<svg xmlns="http://www.w3.org/2000/svg" xmlns:xlink="http://www.w3.org/1999/xlink" version="1.1" baseProfile="full" viewBox="0 0 200 200" width="200" height="200">
<g fill="black">
<path d="M 30.0 25.0 L 71.5 25.0 L 77.5 20.0 L 88.5 29.0 L 83.5 33.0 L 83.5 61.0 L 71.5 67.0 L 71.5 59.0 L 30.0 59.0 L 30.0 79.0 L 73.0 79.0 L 79.0 74.0 L 90.0 83.0 L 85.0 87.0 L 85.0 118.0 L 73.0 124.0 L 73.0 114.0 L 30.0 114.0 L 30.0 135.0 L 74.5 135.0 L 80.5 130.0 L 91.5 139.0 L 86.5 143.0 L 86.5 172.0 L 74.5 178.0 L 74.5 172.0 L 30.0 172.0 L 30.0 184.0 L 18.0 190.0 L 18.0 19.0 Z M 148.5 117.0 L 148.5 66.0 L 125.1 66.0 L 125.1 106.0 L 124.4529411315918 117.0 Z M 30.0 139.0 L 30.0 168.0 L 74.5 168.0 L 74.5 139.0 Z M 30.0 83.0 L 30.0 110.0 L 73.0 110.0 L 73.0 83.0 Z M 30.0 29.0 L 30.0 55.0 L 71.5 55.0 L 71.5 29.0 Z M 92.5 66.0 L 92.5 62.0 L 113.1 62.0 L 113.1 16.0 L 125.1 18.0 L 128.1 20.0 L 125.1 21.8 L 125.1 62.0 L 148.5 62.0 L 148.5 16.0 L 160.5 18.0 L 163.5 20.0 L 160.5 21.8 L 160.5 62.0 L 162.6 62.0 L 172.6 52.0 L 184.6 62.0 L 184.6 66.0 L 160.5 66.0 L 160.5 117.0 L 163.4 117.0 L 173.4 107.0 L 185.4 117.0 L 185.4 121.0 L 160.5 121.0 L 160.5 181.0 L 148.5 187.0 L 148.5 121.0 L 123.9848214149475 121.0 L 122.9 129.1 L 120.7 139.5 L 117.7 149.2 L 113.9 157.9 L 109.3 165.8 L 103.9 172.9 L 97.7 178.9 L 90.8 183.9 L 83.2 187.7 L 82.3 186.2 L 88.5 180.9 L 94.0 175.1 L 98.7 168.8 L 102.7 162.0 L 106.1 154.5 L 108.8 146.3 L 110.9 137.3 L 112.3 127.7 L 112.74666662216187 121.0 L 90.8 121.0 L 90.8 117.0 L 113.00178575515747 117.0 L 113.1 106.0 L 113.1 66.0 Z " />
</g>
</svg>
