<svg xmlns="http://www.w3.org/2000/svg" xmlns:xlink="http://www.w3.org/1999/xlink" version="1.1" baseProfile="full" viewBox="0 0 200 200" width="200" height="200">
<g fill="black">
<path d="M 70.0 174.4 L 84.0 174.4 L 85.2 174.3 L 86.1 174.1 L 87.0 173.8 L 87.4 173.4 L 87.7 172.5 L 87.9 171.6 L 88.0 170.4 L 88.0 48.6 L 32.0 48.6 L 32.0 180.9 L 20.0 186.9 L 20.0 38.6 L 32.0 44.6 L 88.0 44.6 L 94.0 39.6 L 105.0 48.6 L 100.0 52.6 L 100.0 170.4 L 99.8 172.9 L 99.4 175.4 L 98.6 177.8 L 97.3 180.1 L 95.7 182.1 L 93.7 183.7 L 91.4 185.0 L 89.0 185.8 L 86.5 186.2 L 84.0 186.4 L 84.0 180.4 L 70.0 177.4 Z M 67.2 133.8 L 65.5 130.7 L 64.75860214233398 129.6055555343628 L 63.6 132.0 L 58.7 140.5 L 53.3 148.3 L 47.4 155.3 L 41.1 161.3 L 34.3 166.4 L 33.1 165.0 L 38.3 158.7 L 43.2 151.9 L 47.8 144.6 L 52.1 136.8 L 56.0 128.4 L 58.4662522315979 121.98774423599244 L 57.8 121.3 L 54.3 118.1 L 50.3 114.8 L 45.9 111.4 L 41.87563419342041 108.68971281051635 L 41.7 109.0 L 38.3 114.1 L 34.5 118.8 L 32.9 117.9 L 36.9 106.7 L 38.7 101.2 L 40.4 95.6 L 41.9 89.9 L 43.2 84.2 L 44.4 78.4 L 45.3 72.5 L 46.0 66.5 L 46.41798400878906 61.400594520568845 L 46.4 61.4 L 46.44943819046021 61.01685390472412 L 46.5 60.4 L 46.52860174179077 60.403336906433104 L 46.8 58.3 L 58.5 61.8 L 61.2 64.2 L 57.783180809021 65.68277063369752 L 57.3 68.3 L 55.8 74.6 L 55.57704916000366 75.4 L 69.9 75.4 L 75.9 70.4 L 86.9 79.4 L 81.9 82.4 L 80.79054880142212 82.86227130889893 L 79.0 90.6 L 75.8 102.0 L 72.2 112.7 L 68.99900608062744 120.5073021888733 L 70.1 121.4 L 73.4 124.7 L 76.3 128.3 L 78.7 132.0 L 80.7 136.0 L 80.3 140.6 L 76.8 143.6 L 72.3 143.2 L 69.3 139.8 L 68.4 136.8 Z M 122.2 159.3 L 120.8 163.0 L 120.5 165.4 L 120.8 166.7 L 121.6 167.8 L 123.7 169.1 L 127.6 170.3 L 133.1 171.2 L 140.2 171.5 L 175.9 171.5 L 181.9 146.5 L 183.9 146.5 L 181.9 171.5 L 185.5 173.9 L 187.9 177.5 L 185.5 181.1 L 181.9 183.5 L 140.2 183.5 L 132.0 183.1 L 124.9 182.0 L 118.8 180.0 L 113.7 176.7 L 110.0 171.9 L 108.5 166.1 L 109.2 160.1 L 111.4 154.0 L 115.0 147.8 L 119.9 141.2 L 149.1948052406311 104.7 L 115.6 104.7 L 115.6 100.7 L 152.5 100.7 L 158.5 95.7 L 169.5 104.7 L 164.5 107.7 L 160.37624311447144 109.41823205947875 L 129.3 148.7 L 125.0 154.4 Z M 54.462295055389404 79.4 L 54.1 80.7 L 52.2 86.7 L 50.0 92.6 L 47.5 98.2 L 44.7 103.7 L 42.9444076538086 106.80154657363892 L 47.5 108.4 L 52.9 110.5 L 57.8 112.9 L 60.988286876678465 114.74212131500244 L 62.7 109.5 L 65.5 99.1 L 67.9 88.1 L 69.44830513000488 79.4 Z M 140.6 43.1 L 143.0 45.9 L 139.3098934173584 46.87108068466186 L 138.0 50.7 L 135.3 58.0 L 132.3 65.0 L 129.28695650100707 71.3 L 161.5 71.3 L 171.5 61.3 L 183.5 71.3 L 183.5 75.3 L 127.2484848022461 75.3 L 125.6 78.5 L 122.0 84.9 L 118.1 91.0 L 113.9 96.8 L 109.4 102.3 L 104.6 107.4 L 103.2 106.4 L 109.4 94.0 L 112.4 87.8 L 115.2 81.4 L 117.9 74.9 L 120.5 68.2 L 122.9 61.4 L 125.1 54.4 L 127.2 47.2 L 128.86257867813111 40.812197589874266 L 128.8 40.8 L 129.5 38.2 Z M 186.0 24.0 L 186.0 28.0 L 14.0 28.0 L 14.0 24.0 L 164.0 24.0 L 174.0 14.0 Z " />
</g>
</svg>
