<svg xmlns="http://www.w3.org/2000/svg" xmlns:xlink="http://www.w3.org/1999/xlink" version="1.1" baseProfile="full" viewBox="0 0 200 200" width="200" height="200">
<g fill="black">
<path d="M 160.8 125.5 L 159.8 127.8 L 158.4 130.0 L 156.7 131.9 L 154.7 133.4 L 152.4 134.6 L 150.0 135.4 L 147.5 135.8 L 145.0 136.0 L 145.0 130.0 L 133.0 127.0 L 133.0 124.0 L 145.0 124.0 L 146.2 123.9 L 147.2 123.7 L 147.8 123.5 L 148.3 123.3 L 148.6 123.0 L 148.9 122.8 L 149.1 122.3 L 149.4 121.7 L 149.6 120.7 L 149.8 119.5 L 151.73529415130616 96.0 L 106.0 96.0 L 106.0 118.5 L 106.3 118.3 L 112.3 124.3 L 118.3 130.2 L 124.7 135.8 L 131.3 141.2 L 138.2 146.2 L 145.5 150.9 L 153.1 155.4 L 161.2 159.5 L 169.6 163.3 L 178.5 166.8 L 184.9 169.5 L 173.4 179.1 L 164.3 174.7 L 155.6 169.9 L 147.4 164.8 L 139.7 159.4 L 132.5 153.6 L 125.8 147.5 L 119.6 141.0 L 114.0 134.2 L 109.0 126.9 L 106.0 121.4714285850525 L 106.0 183.0 L 94.0 189.0 L 94.0 133.01038961410524 L 88.0 139.4 L 80.0 147.0 L 71.7 154.1 L 63.1 160.5 L 54.3 166.3 L 45.2 171.5 L 35.8 176.0 L 26.2 179.8 L 16.3 182.8 L 15.6 181.1 L 24.6 176.3 L 33.4 171.3 L 41.8 165.9 L 50.0 160.1 L 58.0 153.8 L 65.6 147.0 L 73.0 139.8 L 80.1 132.1 L 87.0 123.8 L 93.11111106872559 115.7444444656372 L 94.0 114.5 L 94.0 96.0 L 56.0 96.0 L 56.0 108.0 L 44.0 114.0 L 44.0 54.0 L 56.0 60.0 L 94.0 60.0 L 94.0 43.0 L 24.0 43.0 L 24.0 39.0 L 94.0 39.0 L 94.0 12.0 L 106.0 14.0 L 109.0 16.0 L 106.0 17.8 L 106.0 39.0 L 159.0 39.0 L 169.0 29.0 L 181.0 39.0 L 181.0 43.0 L 106.0 43.0 L 106.0 60.0 L 142.0 60.0 L 148.0 55.0 L 159.0 64.0 L 154.0 68.0 L 154.0 82.0 L 142.0 88.0 L 142.0 64.0 L 106.0 64.0 L 106.0 92.0 L 152.0 92.0 L 158.0 87.0 L 169.0 96.0 L 164.0 99.0 L 162.7880000114441 99.50500001907349 L 161.8 120.5 L 161.4 123.0 Z M 56.0 64.0 L 56.0 92.0 L 94.0 92.0 L 94.0 64.0 Z " />
</g>
</svg>
