<svg xmlns="http://www.w3.org/2000/svg" xmlns:xlink="http://www.w3.org/1999/xlink" version="1.1" baseProfile="full" viewBox="0 0 200 200" width="200" height="200">
<g fill="black">
<path d="M 46.5 78.7 L 153.5 78.7 L 159.5 73.7 L 170.5 82.7 L 165.5 86.7 L 165.5 178.2 L 153.5 184.2 L 153.5 174.2 L 46.5 174.2 L 46.5 181.2 L 34.5 187.2 L 34.5 72.7 Z M 46.5 82.7 L 46.5 170.2 L 153.5 170.2 L 153.5 82.7 Z M 121.9 147.5 L 115.9 141.7 L 109.6 136.0 L 108.51183528900147 135.11986684799194 L 101.8 141.2 L 92.6 148.0 L 82.7 154.1 L 72.1 159.3 L 60.8 163.6 L 48.8 166.9 L 48.2 165.2 L 59.3 160.1 L 69.7 154.5 L 79.3 148.5 L 88.1 141.9 L 96.2 134.8 L 101.3252371788025 129.39392786026002 L 95.6 125.1 L 88.0 119.8 L 79.9 114.6 L 71.5 109.4 L 62.8 104.2 L 63.5 102.5 L 73.2 106.0 L 82.5 109.9 L 91.3 114.1 L 99.7 118.7 L 106.78011693954468 123.03657159805297 L 110.2 118.8 L 116.1 109.9 L 121.4 100.4 L 125.50255546569824 91.10087423324585 L 125.5 91.1 L 125.6 90.88000001907349 L 125.9 90.2 L 125.90758619308471 90.20331029891967 L 126.5 88.9 L 136.9 95.0 L 138.9 98.0 L 135.1236728668213 98.45576362609863 L 131.4 105.7 L 125.1 115.7 L 118.1 125.0 L 114.93157691955567 128.4527687072754 L 115.3 128.7 L 122.5 134.1 L 129.2 139.7 L 135.6 145.6 L 141.6 151.7 L 142.9 156.1 L 140.9 160.2 L 136.6 161.6 L 132.5 159.5 L 127.4 153.5 Z M 162.6 69.9 L 158.5 66.2 L 154.1 62.5 L 149.3 58.8 L 144.2 55.1 L 138.7 51.3 L 132.9 47.4 L 126.9 43.4 L 120.5 39.2 L 121.2 37.6 L 128.6 40.0 L 135.5 42.7 L 142.0 45.6 L 148.1 48.6 L 154.0 51.7 L 159.4 54.9 L 164.6 58.2 L 169.4 61.6 L 173.9 65.0 L 178.1 68.6 L 179.8 72.8 L 178.1 77.1 L 173.8 78.8 L 169.6 77.1 L 166.3 73.5 Z M 79.5 44.9 L 80.2 48.4 L 76.47247953414917 47.484468650817874 L 75.4 48.4 L 70.8 51.8 L 65.8 55.3 L 60.4 58.7 L 54.6 62.2 L 48.3 65.6 L 41.6 69.0 L 34.3 72.4 L 26.6 75.7 L 18.4 78.8 L 17.5 77.1 L 24.8 72.3 L 31.8 67.7 L 38.3 63.3 L 44.3 59.1 L 50.0 55.1 L 55.1 51.1 L 59.8 47.3 L 64.0 43.5 L 67.8 39.9 L 70.33379983901978 37.1286563873291 L 70.3 37.1 L 71.3 36.1 Z M 182.0 30.0 L 182.0 34.0 L 18.0 34.0 L 18.0 30.0 L 160.0 30.0 L 170.0 20.0 Z " />
</g>
</svg>
