<svg xmlns="http://www.w3.org/2000/svg" xmlns:xlink="http://www.w3.org/1999/xlink" version="1.1" baseProfile="full" viewBox="0 0 200 200" width="200" height="200">
<g fill="black">
<path d="M 22.4 174.9 L 30.5 173.0 L 38.9 171.1 L 47.4 169.2 L 48.0 169.06363639831542 L 48.0 122.0 L 60.0 124.0 L 63.0 126.0 L 60.0 127.8 L 60.0 166.38876399993896 L 65.1 165.3 L 74.2 163.3 L 83.5 161.4 L 93.0 159.5 L 102.8 157.7 L 112.7 156.1 L 113.2 157.8 L 103.7 161.4 L 94.4 164.7 L 85.2 167.7 L 76.2 170.7 L 67.3 173.5 L 58.6 176.2 L 50.0 178.9 L 41.7 181.5 L 33.5 184.0 L 29.4069766998291 185.27906980514527 L 28.2 188.9 L 25.5 186.5 L 20.4 175.4 Z M 151.9 176.9 L 140.7 172.6 L 130.5 167.6 L 121.1 161.9 L 112.7 155.5 L 105.3 148.4 L 98.9 140.7 L 93.6 132.3 L 89.6 123.3 L 91.2 122.4 L 97.1 130.0 L 103.4 136.9 L 110.2 143.2 L 114.20851068496704 146.2063829421997 L 118.0 144.1 L 123.1 141.3 L 127.9 138.8 L 132.6 136.4 L 136.9 134.2 L 141.0 132.1 L 144.8 130.1 L 148.4 128.2 L 151.6 126.5 L 153.73367795944213 125.36203842163086 L 153.7 125.3 L 153.75589351654054 125.35019006729127 L 154.6 124.9 L 155.4800248146057 126.89838962554931 L 163.5 134.1 L 163.6 137.3 L 159.75578508377075 135.65247936248778 L 159.4 135.8 L 152.5 138.1 L 148.6 139.3 L 144.5 140.6 L 140.0 141.9 L 135.3 143.3 L 130.3 144.7 L 124.9 146.1 L 119.3 147.5 L 116.68793106079102 148.06594829559327 L 117.8 148.9 L 126.0 154.0 L 135.0 158.4 L 144.8 162.3 L 155.4 165.6 L 166.8 168.3 L 179.1 170.4 L 188.7 172.1 L 176.8 183.5 L 163.9 180.5 Z M 145.7 116.7 L 132.5 112.0 L 120.2 106.6 L 108.9 100.6 L 101.0492917060852 95.5423321723938 L 97.9 97.5 L 86.0 103.7 L 73.3 109.3 L 59.9 114.1 L 45.7 118.2 L 30.8 121.5 L 15.1 123.9 L 14.8 122.1 L 29.9 117.8 L 44.2 113.1 L 57.7 107.9 L 70.3 102.3 L 82.1 96.2 L 93.01314554214477 89.65211267471314 L 89.2 86.7 L 80.9 78.8 L 73.7 70.2 L 67.8 61.0 L 69.3 59.9 L 76.8 67.4 L 84.9 74.4 L 93.6 81.0 L 99.77993593215942 84.8380654335022 L 103.2 82.4 L 112.5 74.7 L 121.0 66.5 L 128.41481485366822 58.1222222328186 L 129.1 57.3 L 137.9 65.6 L 138.8 69.0 L 135.1134041786194 68.41790590286254 L 129.0 74.6 L 119.4 82.9 L 109.40530424118042 90.2999189376831 L 113.3 92.4 L 124.4 97.2 L 136.3 101.6 L 149.0 105.4 L 162.6 108.7 L 177.2 111.4 L 186.6 113.1 L 174.7 124.4 L 159.7 120.9 Z M 73.8 47.0 L 74.8 50.5 L 70.9050784111023 49.81668043136597 L 70.1 50.6 L 66.1 54.0 L 61.8 57.3 L 57.1 60.5 L 52.2 63.5 L 46.9 66.4 L 41.3 69.1 L 35.3 71.6 L 29.0 73.8 L 22.3 75.8 L 21.6 74.2 L 27.4 70.4 L 32.9 66.8 L 38.0 63.3 L 42.9 59.9 L 47.4 56.5 L 51.6 53.0 L 55.4 49.6 L 58.9 46.1 L 62.0 42.7 L 64.18829650878907 39.964629364013675 L 64.1 39.9 L 65.1 38.7 Z M 159.3 65.4 L 155.8 62.2 L 152.1 59.2 L 148.2 56.3 L 144.1 53.4 L 139.8 50.6 L 135.2 47.9 L 130.5 45.1 L 125.6 42.2 L 126.2 40.5 L 131.9 41.6 L 137.4 43.0 L 142.6 44.7 L 147.7 46.7 L 152.6 49.0 L 157.3 51.5 L 161.8 54.2 L 166.1 57.1 L 170.2 60.2 L 174.1 63.5 L 175.8 67.8 L 174.1 72.0 L 169.8 73.7 L 165.6 72.0 L 162.5 68.6 Z M 14.0 30.1 L 94.0 30.1 L 94.0 12.6 L 106.0 14.6 L 109.0 16.6 L 106.0 18.4 L 106.0 30.1 L 164.0 30.1 L 174.0 20.1 L 186.0 30.1 L 186.0 34.1 L 14.0 34.1 Z " />
</g>
</svg>
