<svg xmlns="http://www.w3.org/2000/svg" xmlns:xlink="http://www.w3.org/1999/xlink" version="1.1" baseProfile="full" viewBox="0 0 200 200" width="200" height="200">
<g fill="black">
<path d="M 80.9 119.2 L 83.8 121.4 L 80.72389469146728 122.5460000038147 L 79.9 138.2 L 73.95 137.95 L 79.9 138.3 L 78.5 146.3 L 75.8 153.9 L 71.8 160.7 L 66.7 166.8 L 60.4 172.2 L 53.0 176.9 L 44.6 181.0 L 35.2 184.3 L 24.7 186.9 L 13.1 188.8 L 12.8 187.1 L 23.7 183.3 L 33.3 179.3 L 41.8 175.0 L 49.0 170.5 L 55.0 165.7 L 59.8 160.6 L 63.4 155.3 L 65.9 149.7 L 67.4 143.9 L 68.0 137.6 L 68.00474863052368 137.60027933120728 L 69.0 116.7 Z M 178.0 147.0 L 180.0 147.0 L 178.0 172.0 L 181.6 174.4 L 184.0 178.0 L 181.6 181.6 L 178.0 184.0 L 132.0 184.0 L 129.4 183.8 L 126.9 183.4 L 124.5 182.6 L 122.2 181.3 L 120.2 179.7 L 118.6 177.7 L 117.3 175.4 L 116.5 173.0 L 116.1 170.5 L 116.0 168.0 L 116.0 117.0 L 128.0 119.0 L 131.0 121.0 L 128.0 122.8 L 128.0 169.2 L 128.2 170.1 L 128.5 171.0 L 128.9 171.4 L 129.8 171.7 L 130.7 171.9 L 132.0 172.0 L 172.0 172.0 Z M 13.5 137.8 L 12.5 133.3 L 14.9 129.4 L 16.9 128.1 L 18.9 126.3 L 20.8 123.9 L 22.7 120.9 L 24.3 117.3 L 25.8 113.0 L 27.1 108.2 L 28.2 102.8 L 29.3 96.8 L 30.1 90.3 L 31.9 90.2 L 32.8 96.9 L 33.179032230377196 101.6 L 54.0 101.6 L 54.0 41.5 L 16.7 41.5 L 16.7 37.5 L 94.0 37.5 L 94.0 13.7 L 106.0 15.7 L 109.0 17.7 L 106.0 19.5 L 106.0 37.5 L 161.3 37.5 L 171.3 27.5 L 183.3 37.5 L 183.3 41.5 L 146.0 41.5 L 146.0 101.6 L 170.0 101.6 L 170.4615385055542 101.21538457870483 L 170.6 100.8 L 170.8226589202881 100.91445083618164 L 176.0 96.6 L 187.0 105.6 L 182.0 108.6 L 178.61818180084228 110.00909090042114 L 177.8 111.1 L 175.8 113.6 L 173.6 116.3 L 171.2 119.1 L 168.7 122.0 L 166.0 125.0 L 163.1 128.1 L 159.9 131.2 L 156.7 134.6 L 155.2 133.6 L 157.5 129.5 L 159.4 125.5 L 161.3 121.7 L 163.0 118.1 L 164.7 114.8 L 166.2 111.6 L 167.5 108.6 L 168.7 105.8 L 168.78461542129517 105.6 L 33.34237289428711 105.6 L 33.4 109.0 L 33.0 114.5 L 32.3 119.5 L 31.2 124.3 L 29.6 128.6 L 27.5 132.5 L 25.0 136.1 L 21.9 139.2 L 17.4 140.1 Z M 66.0 84.0 L 66.0 101.6 L 134.0 101.6 L 134.0 84.0 Z M 66.0 63.0 L 66.0 80.0 L 134.0 80.0 L 134.0 63.0 Z M 66.0 59.0 L 134.0 59.0 L 134.0 41.5 L 66.0 41.5 Z " />
</g>
</svg>
