<svg xmlns="http://www.w3.org/2000/svg" xmlns:xlink="http://www.w3.org/1999/xlink" version="1.1" baseProfile="full" viewBox="0 0 200 200" width="200" height="200">
<g fill="black">
<path d="M 147.0 147.2 L 149.0 147.2 L 147.0 172.2 L 150.6 174.6 L 153.0 178.2 L 150.6 181.8 L 147.0 184.2 L 76.0 184.2 L 73.4 184.0 L 70.9 183.6 L 68.5 182.8 L 66.2 181.6 L 64.2 179.9 L 62.6 177.9 L 61.3 175.6 L 60.5 173.2 L 60.1 170.7 L 60.0 168.2 L 60.0 130.9 L 72.0 132.9 L 75.0 134.9 L 72.0 136.7 L 72.0 169.4 L 72.2 170.3 L 72.5 171.2 L 72.9 171.6 L 73.2 171.8 L 73.8 171.9 L 74.7 172.1 L 76.0 172.2 L 141.0 172.2 Z M 15.4 176.1 L 14.8 171.5 L 17.5 167.8 L 20.3 166.3 L 22.9 164.4 L 25.3 162.1 L 27.5 159.3 L 29.5 156.1 L 31.3 152.3 L 32.9 148.0 L 34.2 143.2 L 35.3 137.9 L 36.1 132.0 L 37.9 132.0 L 38.7 138.0 L 39.1 143.7 L 39.0 149.2 L 38.3 154.3 L 37.2 159.1 L 35.5 163.7 L 33.3 167.9 L 30.6 171.8 L 27.3 175.2 L 23.6 178.2 L 19.1 178.8 Z M 170.2 161.9 L 168.7 158.4 L 166.8 154.9 L 164.6 151.5 L 162.0 148.0 L 159.1 144.6 L 155.9 141.1 L 152.3 137.6 L 148.3 134.1 L 149.3 132.5 L 154.2 134.7 L 158.9 137.2 L 163.2 139.9 L 167.2 142.9 L 170.8 146.1 L 174.1 149.5 L 177.1 153.2 L 179.7 157.0 L 181.9 161.1 L 183.8 165.4 L 183.3 169.9 L 179.8 172.9 L 175.3 172.4 L 172.3 168.9 L 171.4 165.4 Z M 108.1 148.4 L 106.3 145.6 L 104.2 142.9 L 102.0 140.3 L 99.5 137.7 L 96.8 135.1 L 94.0 132.6 L 90.9 130.0 L 87.5 127.7 L 88.2 126.0 L 92.3 127.3 L 96.3 128.6 L 100.1 130.2 L 103.7 132.1 L 107.1 134.2 L 110.4 136.6 L 113.4 139.1 L 116.3 141.9 L 119.0 144.8 L 121.5 148.0 L 122.2 152.5 L 119.5 156.2 L 115.0 156.9 L 111.3 154.2 L 109.8 151.3 Z M 36.4 122.4 L 36.4 50.4 L 48.4 56.4 L 151.6 56.4 L 157.6 51.4 L 168.6 60.4 L 163.6 64.4 L 163.6 116.4 L 151.6 122.4 L 151.6 116.4 L 48.4 116.4 Z M 48.4 88.4 L 48.4 112.4 L 94.0 112.4 L 94.0 88.4 Z M 106.0 88.4 L 106.0 112.4 L 151.6 112.4 L 151.6 88.4 Z M 48.4 60.4 L 48.4 84.4 L 94.0 84.4 L 94.0 60.4 Z M 106.0 60.4 L 106.0 84.4 L 151.6 84.4 L 151.6 60.4 Z M 15.0 35.7 L 94.0 35.7 L 94.0 11.8 L 106.0 13.8 L 109.0 15.8 L 106.0 17.6 L 106.0 35.7 L 163.0 35.7 L 173.0 25.7 L 185.0 35.7 L 185.0 39.7 L 15.0 39.7 Z " />
</g>
</svg>
