<svg xmlns="http://www.w3.org/2000/svg" xmlns:xlink="http://www.w3.org/1999/xlink" version="1.1" baseProfile="full" viewBox="0 0 200 200" width="200" height="200">
<g fill="black">
<path d="M 155.4 97.2 L 155.4 101.2 L 106.1 101.2 L 106.1 132.5 L 147.8 132.5 L 157.8 122.5 L 169.8 132.5 L 169.8 136.5 L 106.1 136.5 L 106.1 183.4 L 94.1 189.4 L 94.1 136.5 L 33.0 136.5 L 33.0 132.5 L 94.1 132.5 L 94.1 101.2 L 44.0 101.2 L 44.0 97.2 L 133.4 97.2 L 143.4 87.2 Z M 159.4 93.0 L 150.7 89.3 L 142.3 85.3 L 134.1 80.8 L 126.2 75.8 L 118.6 70.5 L 111.4 64.6 L 104.5 58.3 L 101.47215919494629 54.988299179077146 L 100.1 56.5 L 93.4 62.6 L 86.0 68.4 L 77.9 74.0 L 69.1 79.2 L 59.5 84.0 L 49.3 88.6 L 38.3 92.8 L 26.6 96.6 L 14.1 99.9 L 13.5 98.2 L 25.3 93.0 L 36.2 87.8 L 46.5 82.6 L 56.0 77.3 L 64.7 71.9 L 72.6 66.3 L 79.8 60.6 L 86.2 54.7 L 91.8 48.7 L 96.29032258987426 42.99354839324951 L 97.0 42.0 L 106.0 50.0 L 107.2 53.4 L 104.00186920166016 53.01401872634888 L 107.1 55.0 L 114.8 59.9 L 122.6 64.4 L 130.4 68.6 L 138.4 72.5 L 146.6 76.0 L 154.8 79.1 L 163.3 81.8 L 171.9 84.2 L 180.7 86.2 L 189.3 88.2 L 177.6 99.0 L 168.4 96.2 Z M 158.4 62.0 L 149.7 58.3 L 141.3 54.3 L 133.1 49.8 L 125.2 44.8 L 117.6 39.5 L 110.4 33.6 L 103.5 27.3 L 100.47215919494629 23.98829917907715 L 99.1 25.5 L 92.4 31.6 L 85.0 37.4 L 76.9 43.0 L 68.1 48.2 L 58.5 53.0 L 48.3 57.6 L 37.3 61.8 L 25.6 65.6 L 13.1 68.9 L 12.5 67.2 L 24.3 62.0 L 35.2 56.8 L 45.5 51.6 L 55.0 46.3 L 63.7 40.9 L 71.6 35.3 L 78.8 29.6 L 85.2 23.7 L 90.8 17.7 L 95.29032258987426 11.993548393249512 L 96.0 11.0 L 105.0 19.0 L 106.2 22.4 L 103.00186920166016 22.014018726348876 L 106.1 24.0 L 113.8 28.9 L 121.6 33.4 L 129.4 37.6 L 137.4 41.5 L 145.6 45.0 L 153.8 48.1 L 162.3 50.8 L 170.9 53.2 L 179.7 55.2 L 188.3 57.2 L 176.6 68.0 L 167.4 65.2 Z " />
</g>
</svg>
