<svg xmlns="http://www.w3.org/2000/svg" xmlns:xlink="http://www.w3.org/1999/xlink" version="1.1" baseProfile="full" viewBox="0 0 200 200" width="200" height="200">
<g fill="black">
<path d="M 67.0 17.9 L 69.1 20.7 L 65.63252449035645 21.42999486923218 L 62.7 29.0 L 58.1 39.9 L 53.4 50.5 L 48.5 60.9 L 43.3 71.0 L 42.18333330154419 73.0472222328186 L 47.9 74.0 L 50.9 76.0 L 47.9 77.8 L 47.9 183.0 L 35.9 189.0 L 35.9 84.26842107772828 L 32.2 90.5 L 26.3 99.8 L 20.1 108.8 L 13.5 117.4 L 12.0 116.5 L 16.8 106.8 L 21.7 97.2 L 26.5 87.4 L 31.1 77.5 L 35.6 67.3 L 40.0 57.1 L 44.2 46.6 L 48.2 35.9 L 52.0 25.0 L 55.6 13.9 L 55.62984294891358 13.91047124862671 L 56.1 12.5 Z M 165.7 167.8 L 159.7 162.9 L 154.1 157.8 L 148.8 152.3 L 143.7 146.5 L 139.0 140.4 L 134.6 133.9 L 130.7 127.1 L 130.0 125.61764707565308 L 130.0 180.4 L 118.0 186.4 L 118.0 132.87551021575928 L 115.6 136.5 L 110.2 143.5 L 104.5 150.1 L 98.4 156.2 L 91.8 161.8 L 84.9 166.9 L 77.6 171.5 L 69.9 175.4 L 61.7 178.8 L 60.9 177.1 L 67.9 172.2 L 74.6 167.0 L 80.9 161.7 L 86.8 156.1 L 92.3 150.2 L 97.4 144.0 L 102.2 137.5 L 106.6 130.7 L 110.6 123.5 L 111.96122446060181 120.6 L 64.9 120.6 L 64.9 116.6 L 118.0 116.6 L 118.0 95.59361705780029 L 117.6 95.9 L 112.5 98.7 L 106.9 100.8 L 106.1 99.1 L 110.4 95.5 L 114.2 91.8 L 117.4 87.9 L 120.1 83.7 L 122.4 79.2 L 124.1 74.4 L 125.5 69.2 L 126.3 63.5 L 126.7 57.5 L 126.7 16.0 L 138.7 22.0 L 160.1 22.0 L 166.1 17.0 L 177.1 26.0 L 172.1 30.0 L 172.1 81.2 L 172.2 82.1 L 172.4 82.7 L 172.5 83.1 L 172.7 83.4 L 173.2 83.9 L 173.9 84.1 L 174.8 84.3 L 176.1 84.5 L 178.1 84.5 L 183.6 63.5 L 185.6 63.5 L 183.6 84.5 L 186.9 86.7 L 189.1 90.0 L 186.9 93.3 L 183.6 95.5 L 176.1 95.5 L 173.6 95.4 L 171.2 95.0 L 168.8 94.2 L 166.6 93.1 L 164.5 91.5 L 162.9 89.6 L 161.6 87.4 L 160.8 85.0 L 160.3 82.5 L 160.1 80.0 L 160.1 26.0 L 138.7 26.0 L 138.7 51.0 L 138.1 58.4 L 136.9 65.3 L 135.2 71.8 L 132.8 77.8 L 129.9 83.2 L 126.3 88.1 L 122.36849317550659 92.2280821800232 L 130.0 93.5 L 133.0 95.5 L 130.0 97.3 L 130.0 116.6 L 161.0 116.6 L 171.0 106.6 L 183.0 116.6 L 183.0 120.6 L 130.35344829559327 120.6 L 134.1 124.7 L 139.3 130.3 L 144.5 135.7 L 149.8 140.8 L 155.2 145.5 L 160.8 150.0 L 166.5 154.2 L 172.4 158.1 L 178.5 161.7 L 184.8 165.0 L 189.6 167.6 L 178.3 176.5 L 171.9 172.3 Z M 64.4 82.9 L 69.9 81.6 L 75.5 80.3 L 86.9 77.7 L 88.1 77.41034479141236 L 88.1 32.0 L 66.5 32.0 L 66.5 28.0 L 100.5 28.0 L 110.5 18.0 L 122.5 28.0 L 122.5 32.0 L 100.1 32.0 L 100.1 74.64406776428223 L 104.5 73.6 L 110.5 72.3 L 116.7 71.1 L 122.9 70.1 L 123.5 71.8 L 117.9 74.7 L 112.2 77.4 L 106.5 79.9 L 100.9 82.2 L 100.1 82.51428575515747 L 100.1 83.0 L 98.86363639831544 83.0 L 89.7 86.6 L 84.1 88.6 L 73.1 92.6 L 71.57068405151367 93.1283091545105 L 70.4 96.8 L 67.6 94.5 L 62.4 83.4 Z " />
</g>
</svg>
