<svg xmlns="http://www.w3.org/2000/svg" xmlns:xlink="http://www.w3.org/1999/xlink" version="1.1" baseProfile="full" viewBox="0 0 200 200" width="200" height="200">
<g fill="black">
<path d="M 70.2 18.0 L 72.4 20.9 L 68.70802431106567 21.60020227432251 L 65.6 29.1 L 60.8 40.0 L 55.7 50.6 L 50.4 61.0 L 44.9 71.1 L 43.788036823272705 72.99800615310669 L 49.8 74.0 L 52.8 76.0 L 49.8 77.8 L 49.8 183.0 L 37.8 189.0 L 37.8 83.08000001907348 L 33.1 90.6 L 26.8 99.9 L 20.1 108.9 L 13.1 117.5 L 11.6 116.4 L 17.0 106.8 L 22.2 97.1 L 27.4 87.3 L 32.5 77.4 L 37.4 67.2 L 42.1 56.9 L 46.6 46.4 L 50.9 35.8 L 55.1 24.9 L 58.676170349121094 14.721669101715088 L 58.6 14.7 L 59.5 12.4 Z M 185.2 26.0 L 185.2 30.0 L 133.0 30.0 L 133.0 58.8 L 164.6 58.8 L 170.6 53.8 L 181.6 62.8 L 176.6 66.8 L 176.6 174.1 L 164.6 180.1 L 164.6 168.1 L 89.3 168.1 L 89.3 180.1 L 77.3 186.1 L 77.3 52.8 L 89.3 58.8 L 121.0 58.8 L 121.0 30.0 L 68.7 30.0 L 68.7 26.0 L 163.2 26.0 L 173.2 16.0 Z M 146.6 118.0 L 144.5 112.3 L 142.3 107.0 L 139.8 102.2 L 137.2 97.8 L 134.5 93.7 L 131.6 90.0 L 129.33193407058715 87.43928031921386 L 128.0 93.1 L 124.7 102.5 L 120.5 111.1 L 115.6 118.8 L 109.8 125.6 L 103.3 131.4 L 96.0 136.1 L 89.3 139.0777777671814 L 89.3 164.1 L 164.6 164.1 L 164.6 62.8 L 132.710169506073 62.8 L 132.1 71.8 L 130.4 82.9 L 130.31576471328736 83.2579999923706 L 130.7 83.4 L 135.1 86.0 L 139.3 89.2 L 143.2 93.1 L 146.9 97.5 L 150.4 102.5 L 153.6 108.0 L 156.6 114.0 L 159.3 120.4 L 161.8 127.4 L 161.2 131.9 L 157.7 134.8 L 153.2 134.3 L 150.3 130.7 L 148.5 124.1 Z M 89.3 62.8 L 89.3 136.49253730773927 L 93.8 133.0 L 99.7 127.4 L 104.8 121.3 L 109.2 114.6 L 112.9 107.3 L 115.9 99.3 L 118.2 90.6 L 119.8 81.1 L 120.8 70.9 L 120.94727268218995 62.8 Z " />
</g>
</svg>
