<svg xmlns="http://www.w3.org/2000/svg" xmlns:xlink="http://www.w3.org/1999/xlink" version="1.1" baseProfile="full" viewBox="0 0 200 200" width="200" height="200">
<g fill="black">
<path d="M 77.2 20.1 L 79.1 23.1 L 75.51190557479859 23.603592205047608 L 71.9 31.1 L 66.4 41.9 L 60.7 52.4 L 54.6 62.7 L 48.4 72.7 L 47.422222232818605 74.13703699111939 L 53.8 75.2 L 56.8 77.2 L 53.8 79.0 L 53.8 183.1 L 41.8 189.1 L 41.8 82.4 L 35.0 91.9 L 27.8 101.1 L 20.3 109.9 L 12.5 118.3 L 11.0 117.2 L 17.3 107.6 L 23.5 98.0 L 29.5 88.2 L 35.4 78.3 L 41.1 68.3 L 46.5 58.1 L 51.8 47.7 L 56.8 37.1 L 61.6 26.3 L 66.1 15.3 L 66.1455852508545 15.31971254348755 L 66.7 14.1 Z M 155.7 180.6 L 154.0 182.3 L 152.1 183.8 L 150.1 185.1 L 147.9 186.1 L 145.6 186.9 L 143.3 187.5 L 140.8 187.8 L 138.3 188.0 L 138.3 182.0 L 118.3 179.0 L 118.3 176.0 L 138.3 176.0 L 139.8 175.9 L 141.0 175.7 L 142.2 175.4 L 143.3 175.1 L 144.2 174.6 L 145.1 174.0 L 146.0 173.3 L 146.9 172.5 L 147.7 171.5 L 148.5 170.3 L 153.7 161.4 L 157.4 152.4 L 159.7 143.5 L 160.11207304000854 139.7501350402832 L 159.9 139.9 L 151.9 144.9 L 143.3 149.6 L 134.1 154.1 L 124.4 158.3 L 114.1 162.3 L 103.3 165.9 L 91.8 169.3 L 79.8 172.3 L 67.2 174.8 L 66.7 173.1 L 78.7 168.6 L 90.1 164.2 L 101.0 159.8 L 111.2 155.2 L 120.9 150.6 L 129.9 145.8 L 138.3 140.9 L 146.1 135.8 L 153.3 130.6 L 159.9 125.3 L 160.22750587463378 125.70610723495483 L 160.2 125.2 L 158.3 115.8 L 155.47948064804078 107.5093825340271 L 152.3 109.6 L 144.7 114.1 L 136.9 118.5 L 128.7 122.6 L 120.3 126.5 L 111.5 130.2 L 102.5 133.6 L 93.1 136.7 L 83.4 139.4 L 73.4 141.8 L 72.8 140.1 L 82.2 135.9 L 91.2 131.7 L 99.9 127.5 L 108.4 123.3 L 116.5 118.9 L 124.3 114.4 L 131.8 109.8 L 139.0 105.0 L 145.9 100.2 L 150.41992568969727 96.65359678268433 L 150.2 96.2 L 143.9 85.9 L 141.25066413879395 82.29962053298951 L 137.4 84.5 L 126.0 90.3 L 114.5 95.7 L 102.8 100.6 L 91.1 105.0 L 79.2 108.7 L 67.3 111.8 L 66.7 110.1 L 77.9 105.2 L 89.1 100.0 L 100.1 94.6 L 111.1 88.9 L 122.0 82.9 L 132.7 76.4 L 143.3 69.6 L 153.9 62.4 L 164.3 54.8 L 173.81138877868653 47.41251354217529 L 173.8 47.4 L 174.6 46.8 L 181.9 56.3 L 182.1 59.9 L 178.69208831787108 58.57470102310181 L 170.9 64.1 L 159.8 71.3 L 148.6 78.1 L 144.01818180084229 80.71818180084229 L 146.8 83.5 L 154.7 93.3 L 160.9 103.3 L 165.6 113.4 L 168.6 123.8 L 170.0 134.3 L 169.7 144.9 L 167.7 155.5 L 164.0 166.1 L 158.7 176.6 L 157.3 178.7 Z M 107.7 71.7 L 106.9 69.7 L 105.9 67.6 L 104.3 65.4 L 102.4 63.0 L 100.1 60.6 L 97.3 58.1 L 94.2 55.5 L 90.5 53.2 L 91.3 51.6 L 95.5 53.1 L 99.5 54.5 L 103.2 56.1 L 106.5 57.8 L 109.6 59.8 L 112.3 61.9 L 114.8 64.3 L 116.8 66.9 L 118.6 69.7 L 119.8 72.8 L 118.9 77.3 L 115.2 79.9 L 110.7 79.0 L 108.1 75.2 L 108.0 73.5 Z M 135.6 56.6 L 134.4 54.3 L 132.9 52.0 L 130.9 49.6 L 128.6 47.3 L 125.8 44.9 L 122.7 42.6 L 119.46822023391724 40.38392238616943 L 116.3 41.5 L 107.2 44.4 L 98.0 47.0 L 88.5 49.3 L 78.7 51.3 L 68.7 52.8 L 68.3 51.1 L 77.7 47.6 L 86.9 44.2 L 95.9 40.8 L 104.7 37.3 L 113.2 33.6 L 121.5 29.8 L 129.5 25.9 L 137.3 21.9 L 144.9 17.6 L 151.320481967926 13.73012046813965 L 151.3 13.7 L 151.32612104415892 13.726721572875977 L 152.2 13.2 L 154.07754888534546 16.541400623321532 L 160.0 22.6 L 160.2 25.9 L 156.6261748313904 24.446240615844726 L 150.2 27.7 L 142.0 31.5 L 133.7 35.1 L 125.1 38.4 L 124.56075620651245 38.58996086120605 L 124.6 38.6 L 128.6 40.0 L 132.4 41.6 L 135.8 43.5 L 138.9 45.7 L 141.8 48.1 L 144.3 50.8 L 146.5 53.8 L 148.4 57.1 L 148.1 61.7 L 144.7 64.8 L 140.2 64.5 L 137.1 61.2 L 136.5 58.9 Z " />
</g>
</svg>
