<svg xmlns="http://www.w3.org/2000/svg" xmlns:xlink="http://www.w3.org/1999/xlink" version="1.1" baseProfile="full" viewBox="0 0 200 200" width="200" height="200">
<g fill="black">
<path d="M 164.3 177.5 L 157.9 173.8 L 151.8 169.8 L 146.1 165.5 L 140.7 160.9 L 135.8 156.0 L 131.3 150.8 L 127.4 145.2 L 127.2 144.83636360168458 L 127.2 183.2 L 115.2 189.2 L 115.2 150.1270833015442 L 112.7 153.2 L 107.3 158.8 L 101.6 164.0 L 95.4 168.8 L 88.7 173.1 L 81.7 177.1 L 74.2 180.6 L 66.3 183.6 L 57.9 186.0 L 57.2 184.3 L 64.7 180.1 L 71.7 175.8 L 78.3 171.5 L 84.4 166.9 L 90.1 162.1 L 95.3 157.2 L 100.0 151.9 L 104.3 146.5 L 108.2 140.8 L 108.69655170440674 139.9 L 58.3 139.9 L 58.3 135.9 L 115.2 135.9 L 115.2 101.2 L 127.2 103.2 L 130.2 105.2 L 127.2 107.0 L 127.2 135.9 L 136.19444446563722 135.9 L 137.6 133.7 L 139.6 130.1 L 141.5 126.6 L 143.3 123.4 L 145.0 120.3 L 146.5 117.4 L 147.9 114.7 L 149.1 112.1 L 150.1 109.7 L 150.62494945526123 108.35846261978149 L 150.5 108.3 L 150.91098899841307 107.62747249603271 L 151.0 107.4 L 151.0369668006897 107.4213270187378 L 151.6 106.5 L 161.4 113.4 L 163.0 116.6 L 158.77342882156373 116.67287187576294 L 157.8 117.8 L 155.8 120.1 L 153.6 122.5 L 151.2 124.9 L 148.7 127.5 L 146.0 130.1 L 143.0 132.8 L 139.8 135.5 L 139.38666667938233 135.9 L 162.9 135.9 L 172.9 125.9 L 184.9 135.9 L 184.9 139.9 L 127.47674417495728 139.9 L 130.5 142.5 L 135.5 146.7 L 140.7 150.7 L 145.9 154.4 L 151.4 157.9 L 157.1 161.1 L 163.1 164.1 L 169.3 166.9 L 175.8 169.4 L 182.6 171.6 L 189.8 174.1 L 178.2 184.0 L 171.1 180.9 Z M 63.6 17.8 L 65.8 20.6 L 62.26243181228638 21.42122116088867 L 59.5 28.9 L 55.1 39.8 L 50.6 50.4 L 45.8 60.8 L 40.8 71.0 L 39.74046506881714 73.05674419403076 L 45.4 74.0 L 48.4 76.0 L 45.4 77.8 L 45.4 183.0 L 33.4 189.0 L 33.4 84.91454544067383 L 30.2 90.5 L 24.5 99.8 L 18.5 108.8 L 12.1 117.4 L 10.6 116.5 L 15.2 106.9 L 19.8 97.2 L 24.4 87.4 L 28.8 77.5 L 33.1 67.4 L 37.3 57.1 L 41.3 46.6 L 45.1 36.0 L 48.8 25.1 L 52.2 14.0 L 52.21807231903076 14.006024074554443 L 52.7 12.5 Z M 96.5 127.5 L 95.7 125.7 L 94.6 123.9 L 93.3 122.0 L 91.8 120.1 L 90.0 118.0 L 88.0 115.9 L 85.8 113.7 L 83.2 111.9 L 84.0 110.3 L 87.1 111.6 L 90.1 112.6 L 93.0 113.8 L 95.7 115.1 L 98.2 116.5 L 100.5 117.9 L 102.7 119.5 L 104.7 121.3 L 106.5 123.1 L 108.2 125.1 L 108.5 129.7 L 105.6 133.2 L 101.0 133.5 L 97.5 130.6 L 97.1 129.1 Z M 87.0 65.2 L 86.0 63.6 L 84.8 61.9 L 83.4 60.1 L 81.8 58.3 L 78.1 54.6 L 76.19054470062255 52.86413154602051 L 73.0 57.2 L 68.8 62.3 L 64.2 67.1 L 59.3 71.6 L 57.9 70.4 L 61.2 64.8 L 64.4 59.2 L 67.5 53.7 L 70.3 48.1 L 72.9 42.4 L 75.3 36.7 L 77.5 30.8 L 79.4 24.8 L 81.1 18.8 L 82.35568695068359 13.609827136993408 L 82.3 13.6 L 83.0 10.9 L 94.2 15.7 L 96.6 18.4 L 92.93138685226441 19.448175144195556 L 92.0 22.2 L 89.5 28.5 L 88.03934421539307 31.8 L 108.7 31.8 L 114.7 26.8 L 125.7 35.8 L 120.7 38.8 L 119.5256329536438 39.289319610595705 L 117.8 46.5 L 114.2 57.4 L 109.8 67.5 L 104.7 76.7 L 98.8 85.1 L 92.1 92.6 L 84.7 99.3 L 76.5 104.9 L 67.7 109.5 L 58.2 113.1 L 57.4 111.5 L 65.8 106.2 L 73.4 100.5 L 80.3 94.3 L 86.5 87.5 L 91.9 80.1 L 96.6 72.1 L 100.7 63.3 L 104.0 53.9 L 106.7 43.7 L 108.22201833724975 35.8 L 86.2 35.8 L 83.8 40.6 L 80.5 46.3 L 77.6956521987915 50.662318801879884 L 80.0 51.2 L 82.7 52.1 L 85.4 53.1 L 87.9 54.3 L 90.2 55.5 L 92.4 56.8 L 94.5 58.3 L 96.5 59.9 L 98.2 61.6 L 99.1 66.1 L 96.6 69.9 L 92.1 70.8 L 88.3 68.3 L 87.7 66.8 Z M 147.5 97.2 L 136.5 102.7 L 136.5 77.0 L 118.0 77.0 L 118.0 73.0 L 136.5 73.0 L 136.5 44.0 L 124.0 44.0 L 124.0 40.0 L 136.5 40.0 L 136.5 13.0 L 147.5 15.0 L 150.2 17.0 L 147.5 18.723404216766358 L 147.5 40.0 L 158.5 40.0 L 164.0 35.0 L 174.5 44.0 L 169.5 47.5 L 169.5 73.0 L 173.7777777671814 73.0 L 180.0 66.0 L 188.0 73.0 L 188.0 77.0 L 147.5 77.0 Z M 147.5 44.0 L 147.5 73.0 L 158.5 73.0 L 158.5 44.0 Z " />
</g>
</svg>
