<svg xmlns="http://www.w3.org/2000/svg" xmlns:xlink="http://www.w3.org/1999/xlink" version="1.1" baseProfile="full" viewBox="0 0 200 200" width="200" height="200">
<g fill="black">
<path d="M 65.8 19.7 L 68.0 22.6 L 64.40364208221436 23.357127952575684 L 61.6 30.7 L 57.1 41.5 L 52.5 52.0 L 47.6 62.3 L 42.6 72.3 L 41.53338537216187 74.27223091125488 L 47.1 75.2 L 50.1 77.2 L 47.1 79.0 L 47.1 183.1 L 35.1 189.1 L 35.1 85.83214282989502 L 31.7 91.6 L 25.9 100.9 L 19.8 109.7 L 13.3 118.3 L 11.8 117.3 L 16.5 107.8 L 21.3 98.2 L 25.9 88.5 L 30.5 78.7 L 34.9 68.7 L 39.1 58.5 L 43.2 48.1 L 47.1 37.5 L 50.9 26.8 L 54.4 15.8 L 54.418026542663576 15.806167030334473 L 54.9 14.3 Z M 104.4 49.9 L 103.1 47.0 L 101.7 44.1 L 100.0 41.3 L 98.2 38.4 L 96.2 35.5 L 93.9 32.7 L 92.00805130004883 30.232240867614745 L 90.1 34.8 L 86.7 42.4 L 83.1 49.7 L 79.4 56.7 L 77.92537317276 59.3 L 91.9777777671814 59.3 L 98.2 52.3 L 106.2 59.3 L 106.2 63.3 L 77.6 63.3 L 77.6 59.87368421554565 L 75.6 63.4 L 71.7 69.8 L 69.88518514633179 72.39259262084961 L 79.5 77.2 L 99.5 77.2 L 105.5 72.2 L 116.5 81.2 L 111.5 85.2 L 111.5 126.7 L 99.5 132.7 L 99.5 124.7 L 79.5 124.7 L 79.5 144.5 L 96.21818180084229 144.5 L 104.4 135.5 L 114.4 144.5 L 114.4 148.5 L 79.5 148.5 L 79.5 167.3 L 96.91818180084229 167.3 L 105.1 158.3 L 115.1 167.3 L 115.1 171.3 L 79.5 171.3 L 79.5 182.1 L 67.5 188.1 L 67.5 75.8 L 63.2 81.4 L 58.6 86.6 L 57.1 85.6 L 60.0 79.4 L 62.9 73.1 L 65.9 66.6 L 68.9 60.0 L 71.8 53.1 L 74.6 45.9 L 77.4 38.5 L 80.1 30.9 L 82.7 23.0 L 85.2 14.8 L 85.21802654266358 14.806167030334473 L 85.7 13.3 L 96.6 18.7 L 98.8 21.5 L 95.18562707901 22.324330711364745 L 93.4 26.9 L 93.21126174926758 27.351827812194824 L 96.8 29.3 L 100.1 31.4 L 103.2 33.7 L 106.1 36.3 L 108.8 39.0 L 111.2 41.8 L 113.5 44.8 L 115.6 48.0 L 117.5 51.4 L 117.4 55.9 L 114.1 59.2 L 109.6 59.1 L 106.3 55.8 L 105.4 52.9 Z M 139.8 31.6 L 158.2 31.6 L 164.2 26.6 L 175.2 35.6 L 170.2 39.6 L 170.2 166.2 L 170.3 167.4 L 170.4 168.3 L 170.6 168.9 L 170.8 169.3 L 171.0 169.4 L 171.2 169.6 L 171.5 169.8 L 172.1 170.0 L 173.0 170.1 L 174.2 170.2 L 175.6 170.2 L 181.6 145.2 L 183.6 145.2 L 181.6 170.2 L 185.2 172.6 L 187.6 176.2 L 185.2 179.8 L 181.6 182.2 L 174.2 182.2 L 171.7 182.0 L 169.2 181.6 L 166.8 180.8 L 164.5 179.6 L 162.5 177.9 L 160.8 175.9 L 159.6 173.6 L 158.8 171.2 L 158.4 168.7 L 158.2 166.2 L 158.2 35.6 L 139.8 35.6 L 139.8 110.8 L 139.2 122.0 L 138.1 132.4 L 136.5 142.1 L 134.4 151.0 L 131.6 159.2 L 128.4 166.5 L 124.5 173.0 L 120.1 178.7 L 115.2 183.3 L 109.7 186.8 L 108.6 185.4 L 112.5 180.6 L 115.9 175.4 L 118.8 169.8 L 121.4 163.5 L 123.6 156.5 L 125.3 148.9 L 126.6 140.5 L 127.4 131.4 L 127.8 121.5 L 127.8 25.6 Z M 79.5 102.0 L 79.5 120.7 L 99.5 120.7 L 99.5 102.0 Z M 79.5 81.2 L 79.5 98.0 L 99.5 98.0 L 99.5 81.2 Z " />
</g>
</svg>
