<svg xmlns="http://www.w3.org/2000/svg" xmlns:xlink="http://www.w3.org/1999/xlink" version="1.1" baseProfile="full" viewBox="0 0 200 200" width="200" height="200">
<g fill="black">
<path d="M 67.5 17.9 L 69.7 20.8 L 66.07299327850342 21.499948692321777 L 63.1 29.0 L 58.5 39.9 L 53.6 50.5 L 48.5 60.9 L 43.2 71.1 L 42.12223949432373 73.02037324905396 L 48.0 74.0 L 51.0 76.0 L 48.0 77.8 L 48.0 183.0 L 36.0 189.0 L 36.0 83.74310340881348 L 31.9 90.6 L 25.9 99.9 L 19.5 108.8 L 12.7 117.4 L 11.2 116.5 L 26.2 87.4 L 31.0 77.4 L 35.6 67.3 L 40.1 57.0 L 44.4 46.5 L 48.5 35.8 L 52.5 25.0 L 56.7 12.4 Z M 182.1 28.0 L 182.1 32.0 L 85.0 32.0 L 85.0 172.0 L 166.6 172.0 L 176.6 162.0 L 188.6 172.0 L 188.6 176.0 L 85.0 176.0 L 85.0 183.0 L 73.0 189.0 L 73.0 22.0 L 85.0 28.0 L 160.1 28.0 L 170.1 18.0 Z M 126.6 155.4 L 126.7 159.0 L 122.89898986816407 157.35050506591796 L 120.8 158.4 L 117.6 159.9 L 114.2 161.4 L 110.5 162.9 L 106.6 164.3 L 102.5 165.8 L 98.1 167.1 L 93.5 168.4 L 88.6 169.8 L 87.9 168.1 L 92.2 165.5 L 96.2 162.9 L 99.9 160.4 L 103.5 158.1 L 106.8 155.8 L 109.8 153.6 L 112.6 151.5 L 115.2 149.5 L 117.4 147.6 L 118.67664670944214 146.3871856689453 L 118.6 146.3 L 119.16470584869384 145.9235294342041 L 119.4 145.7 L 119.43310346603394 145.74459772109986 L 119.5 145.7 Z M 158.6 162.4 L 157.0 160.7 L 155.2 159.0 L 153.2 157.3 L 151.0 155.6 L 148.5 153.9 L 145.9 152.2 L 143.0 150.4 L 139.8 149.1 L 140.2 147.3 L 143.8 148.0 L 147.2 148.3 L 150.6 148.9 L 153.7 149.7 L 156.8 150.6 L 159.7 151.7 L 162.4 153.0 L 165.0 154.4 L 167.5 155.9 L 169.8 157.7 L 171.4 162.0 L 169.5 166.2 L 165.2 167.7 L 161.0 165.8 L 159.9 164.1 Z M 111.8 92.2 L 155.1 92.2 L 161.1 87.2 L 172.1 96.2 L 167.1 100.2 L 167.1 143.1 L 155.1 149.1 L 155.1 143.1 L 111.8 143.1 L 99.8 149.1 L 99.8 86.2 Z M 111.8 126.8 L 111.8 139.1 L 155.1 139.1 L 155.1 126.8 Z M 111.8 111.5 L 111.8 122.8 L 155.1 122.8 L 155.1 111.5 Z M 111.8 96.2 L 111.8 107.5 L 155.1 107.5 L 155.1 96.2 Z M 87.2 78.5 L 127.5 78.5 L 127.5 67.1 L 112.1 67.1 L 100.1 73.1 L 100.1 40.9 L 112.1 46.9 L 127.5 46.9 L 127.5 34.4 L 139.5 36.4 L 142.5 38.4 L 139.5 40.2 L 139.5 46.9 L 154.8 46.9 L 160.8 41.9 L 171.8 50.9 L 166.8 54.9 L 166.8 67.1 L 154.8 73.1 L 154.8 67.1 L 139.5 67.1 L 139.5 78.5 L 166.1777777671814 78.5 L 172.4 71.5 L 180.4 78.5 L 180.4 82.5 L 87.2 82.5 Z M 112.1 50.9 L 112.1 63.1 L 127.5 63.1 L 127.5 50.9 Z M 139.5 50.9 L 139.5 63.1 L 154.8 63.1 L 154.8 50.9 Z " />
</g>
</svg>
