<svg xmlns="http://www.w3.org/2000/svg" xmlns:xlink="http://www.w3.org/1999/xlink" version="1.1" baseProfile="full" viewBox="0 0 200 200" width="200" height="200">
<g fill="black">
<path d="M 165.8295454978943 127.43636360168458 L 162.5 130.1 L 162.5 181.1 L 150.5 187.1 L 150.5 177.1 L 97.4 177.1 L 97.4 184.1 L 85.4 190.1 L 85.4 125.93783779144287 L 85.3 126.0 L 77.6 130.0 L 69.5 133.4 L 61.1 136.3 L 60.4 134.6 L 67.8 130.0 L 74.9 125.3 L 81.7 120.5 L 85.4 117.53999996185303 L 85.4 116.1 L 86.50769233703613 116.65384616851807 L 88.2 115.3 L 94.3 109.9 L 100.1 104.2 L 105.5 98.2 L 110.6 91.9 L 115.3 85.3 L 119.21596221923828 79.20850324630737 L 119.2 79.2 L 120.3 77.5 L 129.9 84.9 L 131.3 88.2 L 129.63599996566774 88.1426206588745 L 129.7 88.2 L 135.3 93.2 L 140.9 97.9 L 146.6 102.2 L 152.3 106.3 L 158.2 109.9 L 164.1 113.3 L 170.1 116.3 L 176.2 118.9 L 182.5 121.2 L 189.1 123.8 L 177.6 133.5 L 171.0 130.3 Z M 69.5 18.0 L 71.6 20.9 L 68.01118364334107 21.592578601837157 L 64.9 29.1 L 60.1 40.0 L 55.1 50.6 L 49.9 61.0 L 44.4 71.1 L 43.30552997589111 73.00092163085938 L 49.3 74.0 L 52.3 76.0 L 49.3 77.8 L 49.3 183.0 L 37.3 189.0 L 37.3 83.27796611785888 L 32.8 90.6 L 26.5 99.9 L 19.9 108.9 L 13.0 117.5 L 11.5 116.4 L 16.8 106.8 L 21.9 97.1 L 27.1 87.3 L 32.0 77.4 L 36.9 67.3 L 41.5 57.0 L 46.0 46.5 L 50.2 35.8 L 54.3 24.9 L 58.2 13.8 L 58.22965879440308 13.811023616790772 L 58.7 12.4 Z M 97.4 159.4 L 97.4 173.1 L 150.5 173.1 L 150.5 159.4 Z M 97.4 142.7 L 97.4 155.4 L 150.5 155.4 L 150.5 142.7 Z M 97.4 126.1 L 97.4 138.7 L 150.5 138.7 L 150.5 126.1 Z M 124.5 92.0 L 118.8 98.8 L 112.8 105.1 L 106.4 111.0 L 99.7 116.4 L 94.05882349014283 120.42941179275513 L 97.4 122.1 L 150.5 122.1 L 153.75497283935547 119.3875226020813 L 152.4 118.4 L 146.6 113.7 L 141.2 108.6 L 136.0 103.1 L 131.0 97.2 L 126.5 90.9 L 125.98555374145508 90.04677200317383 Z M 107.7 81.2 L 109.0 84.6 L 105.01716251373291 84.32997713088989 L 104.7 84.7 L 101.6 88.0 L 98.3 91.2 L 94.9 94.4 L 91.2 97.4 L 87.3 100.4 L 83.3 103.2 L 79.0 105.9 L 74.5 108.4 L 69.8 110.7 L 68.8 109.2 L 72.4 105.5 L 79.2 98.3 L 82.4 94.9 L 85.4 91.4 L 88.3 88.0 L 91.0 84.5 L 95.8 77.7 L 97.3777247428894 75.14558849334716 L 97.3 75.1 L 98.4 73.6 Z M 161.3 94.6 L 159.0 92.7 L 156.6 90.8 L 154.0 89.1 L 151.2 87.3 L 148.2 85.7 L 145.1 84.0 L 141.8 82.3 L 138.2 81.0 L 138.6 79.3 L 142.5 79.6 L 146.3 79.8 L 150.0 80.3 L 153.7 81.1 L 157.2 82.0 L 160.6 83.1 L 163.9 84.4 L 167.1 85.9 L 170.1 87.6 L 173.1 89.4 L 175.1 93.5 L 173.8 97.9 L 169.7 99.9 L 165.4 98.6 L 163.4 96.6 Z M 61.8 72.6 L 60.9 68.1 L 63.4 64.2 L 64.5 63.8 L 65.8 62.9 L 67.1 61.7 L 68.4 59.9 L 69.6 57.7 L 70.8 55.0 L 71.8 51.8 L 72.8 48.2 L 73.7 44.2 L 74.1 39.7 L 75.9 39.7 L 76.4 44.2 L 76.72093019485473 46.5 L 118.0 46.5 L 118.0 12.3 L 130.0 14.3 L 133.0 16.3 L 130.0 18.1 L 130.0 28.8 L 155.51818180084229 28.8 L 163.7 19.8 L 173.7 28.8 L 173.7 32.8 L 130.0 32.8 L 130.0 46.5 L 171.9 46.5 L 172.53658533096313 45.969512176513675 L 172.6 45.7 L 172.75802755355835 45.78497705459595 L 177.9 41.5 L 188.9 50.5 L 183.9 53.5 L 179.78571424484252 55.21428575515747 L 178.8 56.2 L 177.1 58.0 L 173.4 61.7 L 171.3 63.6 L 169.0 65.7 L 166.6 67.7 L 164.4 70.1 L 163.0 69.0 L 164.7 66.3 L 165.9 63.4 L 167.1 60.6 L 168.2 58.1 L 169.2 55.7 L 170.1 53.4 L 170.9 51.2 L 171.1449999809265 50.5 L 77.1 50.5 L 77.2 52.5 L 77.2 56.2 L 76.9 59.7 L 76.4 63.0 L 75.4 66.1 L 74.1 69.0 L 72.4 71.7 L 70.2 74.1 L 65.7 75.0 Z M 157.3 63.8 L 157.3 67.8 L 84.9 67.8 L 84.9 63.8 L 135.3 63.8 L 145.3 53.8 Z " />
</g>
</svg>
