<svg xmlns="http://www.w3.org/2000/svg" xmlns:xlink="http://www.w3.org/1999/xlink" version="1.1" baseProfile="full" viewBox="0 0 200 200" width="200" height="200">
<g fill="black">
<path d="M 68.3 17.9 L 70.4 20.8 L 66.81866254806519 21.553965759277343 L 63.8 29.0 L 59.1 39.9 L 54.2 50.6 L 49.1 60.9 L 43.7 71.1 L 42.614461517333986 73.01907691955566 L 48.5 74.0 L 51.5 76.0 L 48.5 77.8 L 48.5 183.0 L 36.5 189.0 L 36.5 83.64827585220337 L 32.3 90.6 L 26.1 99.9 L 19.6 108.9 L 12.8 117.5 L 11.3 116.4 L 16.4 106.8 L 21.5 97.1 L 26.5 87.3 L 31.4 77.4 L 36.1 67.3 L 40.7 57.0 L 45.0 46.5 L 49.2 35.8 L 53.2 24.9 L 57.0 13.9 L 57.5 12.4 Z M 97.9 175.9 L 113.9 175.9 L 115.1 175.8 L 116.0 175.7 L 116.6 175.5 L 117.2 175.2 L 117.5 174.6 L 117.7 174.0 L 117.8 173.1 L 117.9 171.9 L 117.9 147.5 L 79.0 147.5 L 79.0 143.5 L 144.11818180084228 143.5 L 152.3 134.5 L 162.3 143.5 L 162.3 147.5 L 129.9 147.5 L 129.9 171.9 L 129.8 174.5 L 129.3 177.0 L 128.5 179.4 L 127.3 181.6 L 125.6 183.6 L 123.6 185.3 L 121.4 186.5 L 119.0 187.3 L 116.5 187.8 L 113.9 187.9 L 113.9 181.9 L 97.9 178.9 Z M 59.0 151.2 L 58.3 146.7 L 60.9 143.0 L 62.1 142.6 L 63.3 141.9 L 64.6 140.8 L 65.9 139.3 L 67.1 137.3 L 68.3 134.8 L 69.3 132.0 L 70.3 128.7 L 71.2 124.9 L 71.6 120.8 L 73.4 120.8 L 73.8 125.0 L 74.09230766296386 126.9 L 171.6 126.9 L 172.25915489196777 126.35070419311523 L 172.4 125.9 L 172.6338252067566 126.03847904205323 L 177.6 121.9 L 188.6 130.9 L 183.6 133.9 L 178.68000001907347 135.95 L 178.2 136.4 L 176.5 138.0 L 174.7 139.7 L 172.7 141.4 L 170.6 143.1 L 168.4 144.9 L 165.9 146.8 L 163.7 149.0 L 162.4 147.8 L 164.1 145.3 L 165.4 142.5 L 166.6 140.0 L 167.7 137.5 L 168.8 135.3 L 169.7 133.1 L 170.6 131.1 L 170.67368421554565 130.9 L 74.50526313781738 130.9 L 74.6 132.7 L 74.6 136.2 L 74.3 139.5 L 73.7 142.6 L 72.7 145.6 L 71.4 148.4 L 69.5 150.9 L 67.3 153.1 L 62.8 153.8 Z M 93.7 97.9 L 151.3 97.9 L 157.3 92.9 L 168.3 101.9 L 163.3 105.9 L 163.3 118.5 L 151.3 124.5 L 151.3 118.5 L 93.7 118.5 L 81.7 124.5 L 81.7 91.9 Z M 93.7 101.9 L 93.7 114.5 L 151.3 114.5 L 151.3 101.9 Z M 61.6 85.8 L 116.5 85.8 L 116.5 70.2 L 128.5 72.2 L 131.5 74.2 L 128.5 76.0 L 128.5 85.8 L 165.21818180084227 85.8 L 173.4 76.8 L 183.4 85.8 L 183.4 89.8 L 61.6 89.8 Z M 163.4 73.1 L 161.3 74.0 L 159.2 74.7 L 157.0 75.4 L 154.9 76.0 L 152.6 76.4 L 150.4 76.7 L 148.1 76.9 L 145.8 76.9 L 145.8 70.9 L 125.8 67.9 L 125.8 64.9 L 147.5 64.9 L 150.7 64.5 L 152.3 64.2 L 153.8 63.8 L 155.4 63.4 L 156.9 62.8 L 158.3 62.2 L 161.3 60.6 L 161.6 60.3 L 162.4 59.4 L 163.3 57.7 L 164.3 55.4 L 165.2 52.3 L 166.1 48.6 L 166.9 44.3 L 167.6 39.3 L 168.2 33.8 L 168.5064516067505 30.0 L 153.5 30.0 L 150.6 36.3 L 147.0 42.3 L 142.7 47.9 L 137.7 52.9 L 132.1 57.6 L 125.8 61.8 L 118.9 65.5 L 111.4 68.8 L 103.3 71.6 L 94.5 73.8 L 93.9 72.1 L 101.8 68.1 L 109.1 64.0 L 115.6 59.9 L 121.5 55.6 L 126.6 51.1 L 131.0 46.4 L 134.8 41.6 L 137.9 36.7 L 140.3 31.5 L 140.7714285850525 30.0 L 126.24545450210572 30.0 L 125.3 31.3 L 121.8 35.8 L 117.7 40.0 L 113.3 43.9 L 108.3 47.7 L 102.9 51.1 L 97.1 54.4 L 90.8 57.3 L 84.1 60.1 L 76.8 62.4 L 69.1 64.4 L 68.5 62.7 L 75.4 58.9 L 81.8 55.2 L 87.7 51.5 L 93.2 47.9 L 98.1 44.1 L 102.5 40.4 L 106.5 36.5 L 109.9 32.7 L 111.90769233703614 30.0 L 97.10322580337524 30.0 L 93.4 32.8 L 89.0 35.8 L 84.2 38.7 L 79.2 41.3 L 73.8 43.8 L 68.1 46.0 L 61.9 47.9 L 61.2 46.3 L 66.3 42.7 L 71.2 39.1 L 75.7 35.8 L 80.0 32.4 L 83.9 29.0 L 87.4 25.7 L 90.6 22.4 L 93.5 19.0 L 96.0 15.7 L 97.57738733291626 13.146134757995606 L 97.5 13.1 L 98.6 11.6 L 107.9 19.3 L 109.2 22.6 L 105.29050636291504 22.33037977218628 L 104.8 22.9 L 101.60882349014283 26.0 L 168.7 26.0 L 174.7 21.0 L 185.7 30.0 L 180.7 33.0 L 180.231125831604 33.19536428451538 L 180.1 34.9 L 179.5 40.8 L 178.7 46.2 L 177.8 51.1 L 176.8 55.5 L 175.6 59.4 L 174.1 62.9 L 172.4 66.0 L 170.2 68.7 L 167.5 70.9 L 165.5 72.0 Z " />
</g>
</svg>
