<svg xmlns="http://www.w3.org/2000/svg" xmlns:xlink="http://www.w3.org/1999/xlink" version="1.1" baseProfile="full" viewBox="0 0 200 200" width="200" height="200">
<g fill="black">
<path d="M 12.0 97.0 L 12.0 93.0 L 39.3 93.0 L 39.3 16.0 L 51.3 18.0 L 54.3 20.0 L 51.3 21.8 L 51.3 93.0 L 56.6 93.0 L 66.6 83.0 L 78.6 93.0 L 78.6 97.0 L 61.0 97.0 L 61.0 151.45384616851806 L 64.3 149.0 L 68.3 145.9 L 72.5 142.8 L 77.0 139.6 L 81.6 136.3 L 82.9 137.6 L 79.5 142.2 L 76.2 146.5 L 72.8 150.6 L 69.4 154.5 L 66.1 158.1 L 62.9 161.6 L 59.7 164.9 L 56.7 168.1 L 53.81012659072876 170.98987340927124 L 54.2 175.0 L 50.8 173.9 L 41.6 166.0 L 43.1 164.7 L 46.3 162.4 L 49.7 160.0 L 50.0 159.77941179275513 L 50.0 97.0 L 39.7 97.0 L 39.7 115.0 L 39.2 124.4 L 38.3 133.4 L 37.0 142.1 L 35.2 150.3 L 33.1 158.2 L 30.5 165.6 L 27.5 172.6 L 24.0 179.1 L 19.9 185.0 L 15.4 190.4 L 14.1 189.5 L 16.9 183.3 L 19.5 176.9 L 21.9 170.3 L 23.9 163.4 L 25.6 156.2 L 26.9 148.7 L 27.9 140.8 L 28.5 132.5 L 28.8 123.9 L 28.7 115.0 L 28.7 97.0 Z M 166.3 168.1 L 161.4 162.9 L 156.6 157.5 L 152.2 151.7 L 148.0 145.6 L 144.2 139.2 L 140.6 132.4 L 138.4 127.29032258987426 L 138.4 182.6 L 126.4 188.6 L 126.4 133.67111110687256 L 125.7 134.9 L 120.7 142.4 L 115.1 149.4 L 108.9 156.0 L 102.2 162.0 L 95.0 167.4 L 87.2 172.4 L 78.9 176.6 L 70.1 180.3 L 69.3 178.7 L 77.0 173.4 L 84.2 167.9 L 90.9 162.3 L 97.1 156.4 L 102.7 150.2 L 107.8 143.6 L 112.4 136.8 L 116.4 129.6 L 120.0 122.1 L 121.36315793991089 118.4 L 84.0 118.4 L 84.0 114.4 L 126.4 114.4 L 126.4 87.3 L 138.4 89.3 L 141.4 91.3 L 138.4 93.1 L 138.4 114.4 L 163.6 114.4 L 173.6 104.4 L 185.6 114.4 L 185.6 118.4 L 138.4 118.4 L 138.4 119.50217390060425 L 141.1 123.2 L 145.7 129.3 L 150.2 135.1 L 154.7 140.6 L 159.4 145.7 L 164.2 150.6 L 169.1 155.0 L 174.1 159.2 L 179.3 163.0 L 184.6 166.4 L 188.1 168.9 L 177.1 177.3 L 171.6 172.8 Z M 81.5 105.1 L 80.1 100.7 L 82.1 96.6 L 83.0 96.2 L 84.1 95.3 L 85.2 93.9 L 86.4 92.0 L 87.5 89.6 L 88.5 86.6 L 89.5 83.3 L 90.4 79.5 L 91.3 75.2 L 91.7 70.6 L 93.5 70.6 L 94.0 75.3 L 94.34090909957885 77.8 L 126.4 77.8 L 126.4 54.6 L 138.4 56.6 L 141.4 58.6 L 138.4 60.4 L 138.4 77.8 L 171.3 77.8 L 177.3 72.8 L 188.3 81.8 L 183.3 84.8 L 179.6671233177185 86.3136986732483 L 178.9 87.3 L 177.5 89.2 L 175.9 91.1 L 174.2 93.2 L 170.4 97.4 L 168.2 99.6 L 166.4 102.2 L 164.8 101.3 L 166.2 98.4 L 167.0 95.5 L 167.8 92.7 L 168.6 90.1 L 169.3 87.7 L 170.0 85.4 L 170.6 83.2 L 170.9333333015442 81.8 L 94.80487804412842 81.8 L 95.0 83.8 L 95.1 87.6 L 95.0 91.2 L 94.6 94.5 L 94.0 97.6 L 93.1 100.4 L 91.8 103.2 L 90.0 105.6 L 85.7 107.0 Z M 75.0 38.2 L 77.5 40.8 L 73.88381500244141 42.02691993713379 L 73.6 43.0 L 70.6 52.4 L 69.0 57.0 L 67.3 61.6 L 65.6 66.1 L 63.7 70.5 L 61.7 74.8 L 59.6 79.1 L 57.2 83.2 L 55.5 82.7 L 56.1 78.0 L 57.5 68.6 L 58.4 64.0 L 59.2 59.3 L 60.1 54.6 L 61.7 45.2 L 63.13043479919433 36.61739130020142 L 63.0 36.6 L 63.7 33.8 Z M 23.1 67.8 L 22.7 63.9 L 22.2 59.9 L 21.5 55.8 L 20.7 51.7 L 19.8 47.5 L 18.7 43.2 L 17.6 38.8 L 16.2 34.2 L 17.9 33.4 L 20.6 37.4 L 23.2 41.3 L 25.5 45.3 L 27.5 49.4 L 29.3 53.5 L 30.9 57.7 L 32.3 61.8 L 33.5 66.0 L 34.5 70.2 L 35.3 74.5 L 33.8 78.8 L 29.8 80.9 L 25.5 79.5 L 23.3 75.4 L 23.3 71.6 Z M 156.0 14.7 L 159.0 16.7 L 156.0 18.5 L 156.0 33.1 L 164.9 33.1 L 174.9 23.1 L 186.9 33.1 L 186.9 37.1 L 156.0 37.1 L 156.0 52.8 L 144.0 58.8 L 144.0 37.1 L 120.8 37.1 L 120.8 52.8 L 108.8 58.8 L 108.8 37.1 L 77.9 37.1 L 77.9 33.1 L 108.8 33.1 L 108.8 12.7 L 120.8 14.7 L 123.8 16.7 L 120.8 18.5 L 120.8 33.1 L 144.0 33.1 L 144.0 12.7 Z " />
</g>
</svg>
