<svg xmlns="http://www.w3.org/2000/svg" xmlns:xlink="http://www.w3.org/1999/xlink" version="1.1" baseProfile="full" viewBox="0 0 200 200" width="200" height="200">
<g fill="black">
<path d="M 163.5 58.7 L 155.3 55.7 L 147.4 52.3 L 139.8 48.6 L 132.4 44.6 L 125.3 40.3 L 118.5 35.5 L 112.1 30.4 L 107.92208862304688 26.434524822235108 L 105.8 28.0 L 99.4 32.7 L 92.3 37.1 L 84.6 41.3 L 76.2 45.4 L 67.2 49.2 L 57.5 52.8 L 47.2 56.3 L 43.223648643493654 57.42060813903809 L 53.3 59.1 L 56.3 61.1 L 53.3 62.9 L 53.3 90.1 L 57.7 90.1 L 67.7 80.1 L 79.7 90.1 L 79.7 94.1 L 53.3 94.1 L 53.3 110.85 L 53.5 110.9 L 56.8 111.5 L 59.9 112.2 L 62.8 113.1 L 65.7 114.1 L 68.4 115.3 L 70.9 116.6 L 73.4 118.1 L 75.7 119.7 L 77.9 121.4 L 79.3 125.8 L 77.3 129.9 L 72.9 131.3 L 68.8 129.3 L 67.8 127.5 L 66.6 125.8 L 65.1 124.0 L 63.5 122.3 L 61.7 120.5 L 59.7 118.7 L 57.5 116.9 L 55.2 115.1 L 53.3 113.7115385055542 L 53.3 181.6 L 41.3 187.6 L 41.3 118.0875 L 39.6 121.7 L 36.0 128.2 L 32.2 134.5 L 27.9 140.6 L 23.4 146.4 L 18.4 151.9 L 13.0 157.0 L 11.6 155.9 L 15.4 149.6 L 19.0 143.4 L 22.4 137.1 L 25.5 130.8 L 28.4 124.4 L 31.1 117.9 L 33.4 111.3 L 35.5 104.5 L 37.3 97.7 L 38.07142858505249 94.1 L 12.3 94.1 L 12.3 90.1 L 41.3 90.1 L 41.3 57.9627272605896 L 36.2 59.4 L 24.6 62.3 L 12.2 64.8 L 11.7 63.1 L 23.5 58.7 L 45.0 50.1 L 54.7 45.8 L 63.7 41.5 L 72.0 37.1 L 79.6 32.6 L 86.5 28.1 L 90.0043478012085 25.5 L 61.0 25.5 L 61.0 21.5 L 94.0 21.5 L 104.0 11.5 L 116.0 21.5 L 116.0 25.5 L 111.58108110427857 25.5 L 114.5 27.0 L 121.6 30.5 L 128.8 33.9 L 136.1 37.1 L 143.5 40.1 L 151.2 42.8 L 158.9 45.2 L 166.9 47.4 L 175.0 49.3 L 183.4 51.0 L 192.3 53.0 L 180.5 63.9 L 171.9 61.5 Z M 138.5 138.2 L 141.5 140.2 L 138.5 142.0 L 138.5 153.7 L 165.6 153.7 L 175.6 143.7 L 187.6 153.7 L 187.6 157.7 L 138.5 157.7 L 138.5 180.9 L 126.5 186.9 L 126.5 157.7 L 71.7 157.7 L 71.7 153.7 L 126.5 153.7 L 126.5 136.2 Z M 103.6 137.8 L 91.6 143.8 L 91.6 93.62391300201416 L 90.5 94.7 L 85.7 98.9 L 80.7 102.6 L 75.4 105.7 L 69.9 108.4 L 69.0 106.9 L 73.2 102.7 L 77.2 98.5 L 81.2 94.1 L 85.0 89.6 L 88.6 84.8 L 91.6 80.38823528289795 L 91.6 71.5 L 95.80567378997803 73.60283689498901 L 98.4 69.0 L 101.3 63.2 L 104.1 57.1 L 104.12324247360229 57.11119079589844 L 104.7 55.9 L 114.9 62.3 L 116.7 65.4 L 113.00060358047486 65.71891345977784 L 111.4 68.6 L 107.6 74.5 L 105.45714282989502 77.5 L 132.7545454978943 77.5 L 133.3 76.7 L 134.5 74.2 L 135.6 71.9 L 136.8 69.6 L 137.9 67.4 L 139.0 65.3 L 140.0 63.2 L 141.0 61.2 L 142.36979789733886 58.30820455551147 L 142.2 58.2 L 142.75662651062012 57.491566276550294 L 142.8 57.4 L 142.81788539886475 57.41360034942627 L 143.3 56.8 L 152.4 64.7 L 153.5 68.1 L 148.97166662216188 67.62333335876465 L 147.3 69.0 L 145.5 70.5 L 143.6 72.0 L 141.6 73.6 L 139.5 75.1 L 137.4 76.7 L 136.17333335876464 77.5 L 157.7 77.5 L 167.7 67.5 L 179.7 77.5 L 179.7 81.5 L 141.8 81.5 L 141.8 95.3 L 158.11818180084228 95.3 L 166.3 86.3 L 176.3 95.3 L 176.3 99.3 L 141.8 99.3 L 141.8 113.0 L 158.11818180084228 113.0 L 166.3 104.0 L 176.3 113.0 L 176.3 117.0 L 141.8 117.0 L 141.8 130.8 L 166.01818180084229 130.8 L 174.2 121.8 L 184.2 130.8 L 184.2 134.8 L 103.6 134.8 Z M 103.6 117.0 L 103.6 130.8 L 129.8 130.8 L 129.8 117.0 Z M 103.6 99.3 L 103.6 113.0 L 129.8 113.0 L 129.8 99.3 Z M 103.6 81.5 L 103.6 95.3 L 129.8 95.3 L 129.8 81.5 Z " />
</g>
</svg>
