<svg xmlns="http://www.w3.org/2000/svg" xmlns:xlink="http://www.w3.org/1999/xlink" version="1.1" baseProfile="full" viewBox="0 0 200 200" width="200" height="200">
<g fill="black">
<path d="M 62.9 17.7 L 65.2 20.5 L 61.6060715675354 21.382719230651855 L 59.0 28.8 L 54.8 39.7 L 50.5 50.3 L 45.9 60.7 L 41.2 70.9 L 40.0897515296936 73.09829196929931 L 45.5 74.0 L 48.5 76.0 L 45.5 77.8 L 45.5 183.0 L 33.5 189.0 L 33.5 85.78461542129517 L 31.0 90.4 L 25.6 99.8 L 19.8 108.8 L 13.7 117.4 L 12.2 116.5 L 20.8 97.3 L 25.1 87.5 L 29.3 77.6 L 33.4 67.5 L 37.3 57.2 L 41.1 46.7 L 44.7 36.1 L 48.2 25.2 L 51.202535247802736 15.100563335418702 L 51.2 15.1 L 51.9 12.6 Z M 107.2 168.9 L 107.0 167.0 L 106.6 165.0 L 106.1 163.0 L 105.5 160.9 L 104.8 158.8 L 103.0 154.2 L 101.5 152.1 L 102.9 150.9 L 104.8 152.7 L 106.9 154.2 L 108.9 155.9 L 110.8 157.6 L 112.5 159.5 L 114.1 161.4 L 115.5 163.4 L 116.9 165.5 L 119.1 169.9 L 118.2 174.4 L 117.3777777671814 175.0 L 132.13999996185302 175.0 L 132.8 173.9 L 134.0 171.1 L 135.3 168.4 L 136.6 165.6 L 138.0 162.9 L 140.6 157.3 L 141.9 154.4 L 143.1 151.6 L 143.99115562438965 149.54348707199097 L 143.9 149.5 L 144.9 147.7 L 154.8 154.7 L 156.4 157.9 L 152.18348741531372 157.97146635055543 L 150.7 159.9 L 148.6 162.4 L 146.4 164.9 L 142.0 169.5 L 137.4 173.7 L 135.5944444656372 175.0 L 162.9 175.0 L 172.9 165.0 L 184.9 175.0 L 184.9 179.0 L 67.5 179.0 L 67.5 175.0 L 109.07631578445435 175.0 L 107.3 172.5 L 107.3 170.8 Z M 98.8 122.6 L 152.8 122.6 L 158.8 117.6 L 169.8 126.6 L 164.8 130.6 L 164.8 146.3 L 152.8 152.3 L 152.8 146.3 L 98.8 146.3 L 86.8 152.3 L 86.8 116.6 Z M 98.8 126.6 L 98.8 142.3 L 152.8 142.3 L 152.8 126.6 Z M 179.8 107.7 L 179.8 111.7 L 71.8 111.7 L 71.8 107.7 L 161.61818180084228 107.7 L 169.8 98.7 Z M 165.5 92.1 L 159.8 85.9 L 154.6 79.1 L 153.0312762260437 76.63009452819824 L 148.9 81.1 L 142.3 87.2 L 135.2 92.8 L 127.5 97.9 L 126.3 96.5 L 132.7 90.0 L 138.5 83.4 L 144.0 76.8 L 148.9 69.9 L 148.93038129806519 69.85310716629029 L 145.7 63.7 L 142.1 55.3 L 139.0 46.2 L 136.6 36.6 L 135.12549018859863 27.2 L 128.4 27.2 L 128.4 23.2 L 168.8 23.2 L 174.8 18.2 L 185.8 27.2 L 180.8 30.2 L 179.194771194458 30.86884527206421 L 177.6 35.6 L 174.1 44.2 L 170.1 52.3 L 165.6 60.1 L 160.5 67.5 L 159.47641096115112 68.80274963378906 L 162.7 72.8 L 167.9 78.4 L 173.4 83.4 L 179.3 87.8 L 185.5 91.6 L 189.6 94.2 L 178.5 102.8 L 171.8 97.8 Z M 77.8 95.6 L 65.8 101.6 L 65.8 17.7 L 77.8 23.7 L 103.1 23.7 L 113.1 13.7 L 125.1 23.7 L 125.1 27.7 L 102.1 27.7 L 102.1 43.8 L 110.8 43.8 L 116.8 38.8 L 127.8 47.8 L 122.8 51.8 L 122.8 72.7 L 110.8 78.7 L 110.8 70.7 L 102.1 70.7 L 102.1 88.6 L 108.71818180084229 88.6 L 116.9 79.6 L 126.9 88.6 L 126.9 92.6 L 77.8 92.6 Z M 77.8 70.7 L 77.8 88.6 L 90.1 88.6 L 90.1 70.7 Z M 77.8 66.7 L 110.8 66.7 L 110.8 47.8 L 77.8 47.8 Z M 137.23936166763306 27.2 L 140.6 35.3 L 144.5 44.1 L 148.7 52.2 L 153.0 59.7 L 154.21846227645875 61.488806343078615 L 157.5 55.5 L 161.1 47.9 L 164.2 40.1 L 166.8 32.0 L 168.01445779800414 27.2 Z M 77.8 27.7 L 77.8 43.8 L 90.1 43.8 L 90.1 27.7 Z " />
</g>
</svg>
