<svg xmlns="http://www.w3.org/2000/svg" xmlns:xlink="http://www.w3.org/1999/xlink" version="1.1" baseProfile="full" viewBox="0 0 200 200" width="200" height="200">
<g fill="black">
<path d="M 181.0 146.0 L 183.0 146.0 L 181.0 171.0 L 184.6 173.4 L 187.0 177.0 L 184.6 180.6 L 181.0 183.0 L 77.0 183.0 L 74.4 182.8 L 71.9 182.4 L 69.5 181.6 L 67.2 180.3 L 65.2 178.7 L 63.6 176.7 L 62.3 174.4 L 61.5 172.0 L 61.1 169.5 L 61.0 167.0 L 61.0 109.0 L 54.76306304931641 109.0 L 54.1 118.2 L 52.4 128.7 L 50.1 138.6 L 46.9 148.0 L 43.1 156.7 L 38.4 164.8 L 33.1 172.2 L 27.0 178.8 L 20.1 184.7 L 12.5 189.7 L 11.4 188.2 L 17.5 181.9 L 22.9 175.2 L 27.7 168.3 L 31.9 161.0 L 35.3 153.2 L 38.2 145.0 L 40.3 136.2 L 41.9 127.0 L 42.7 117.2 L 42.86078433990478 109.0 L 38.0 109.0 L 38.0 121.0 L 26.0 127.0 L 26.0 59.0 L 38.0 65.0 L 52.0 65.0 L 52.0 44.0 L 14.0 44.0 L 14.0 40.0 L 52.0 40.0 L 52.0 15.0 L 64.0 17.0 L 67.0 19.0 L 64.0 20.8 L 64.0 40.0 L 80.0 40.0 L 90.0 30.0 L 99.34211435317994 37.78509531021118 L 103.6 36.4 L 111.8 34.0 L 119.9 31.7 L 127.9 29.4 L 135.7 27.2 L 143.4 25.0 L 150.9 22.8 L 158.2 20.7 L 165.4 18.5 L 171.53554916381836 16.59884395599365 L 171.5 16.5 L 171.5962226867676 16.580043697357176 L 172.5 16.3 L 172.85458116531373 17.626819705963136 L 182.8 25.9 L 183.1 28.9 L 178.86745433807374 26.992373752593995 L 175.6 27.9 L 168.3 29.5 L 160.9 31.1 L 153.3 32.6 L 145.5 34.1 L 137.6 35.5 L 136.11991777420045 35.73754405975342 L 141.8 39.6 L 143.5 42.8 L 139.30602407455444 42.94216871261597 L 135.8 47.5 L 133.6 50.0 L 131.5 52.4 L 129.2 54.8 L 126.8 57.1 L 124.4 59.3 L 121.8 61.4 L 120.62597637176513 62.5229790687561 L 123.2 64.8 L 125.7 67.5 L 127.9 70.4 L 130.0 73.6 L 131.9 77.1 L 131.7 81.6 L 128.5 84.8 L 123.9 84.7 L 120.7 81.4 L 119.8 78.3 L 118.8 75.4 L 117.7 72.7 L 116.5 70.1 L 115.0 67.7 L 113.5 65.4 L 111.7 63.3 L 109.8 61.2 L 107.7 59.2 L 105.2 57.6 L 105.8 56.0 L 108.9 56.8 L 112.0 57.7 L 115.0 58.9 L 117.9 60.5 L 118.8434944152832 61.19888477325439 L 119.7 59.7 L 121.0 56.8 L 123.8 51.0 L 125.1 48.1 L 126.4 45.3 L 127.7 42.4 L 128.9 39.6 L 130.09835844039918 36.70396718978882 L 129.5 36.8 L 121.3 38.1 L 112.9 39.2 L 104.3 40.1 L 102.0 40.28505744934082 L 102.0 44.0 L 64.0 44.0 L 64.0 65.0 L 78.0 65.0 L 84.0 60.0 L 95.0 69.0 L 90.0 73.0 L 90.0 115.0 L 78.0 121.0 L 78.0 109.0 L 73.0 109.0 L 73.0 168.2 L 73.2 169.1 L 73.5 170.0 L 73.9 170.4 L 74.8 170.7 L 75.7 170.9 L 77.0 171.0 L 175.0 171.0 Z M 170.8 102.1 L 170.3 98.6 L 169.5 95.2 L 169.1109945297241 93.7304238319397 L 165.3 95.1 L 158.7 97.2 L 151.8 99.0 L 144.8 100.8 L 144.0 100.98888893127442 L 144.0 156.6 L 132.0 162.6 L 132.0 103.71081085205078 L 130.2 104.1 L 122.6 105.7 L 114.8 107.2 L 106.9 108.7 L 102.81898155212403 109.40536117553711 L 101.2 112.8 L 98.8 110.1 L 95.2 98.5 L 97.1 98.2 L 105.3 97.4 L 113.3 96.6 L 121.1 95.7 L 127.6310212135315 95.0125241279602 L 128.3 93.8 L 131.6 88.0 L 134.8 82.5 L 138.0 76.9 L 141.1 71.5 L 144.1 66.0 L 147.0 60.6 L 149.8 55.3 L 152.5 49.9 L 154.64817743301393 45.52102289199829 L 154.6 45.5 L 155.6 43.6 L 165.6 50.3 L 167.3 53.5 L 163.55121955871581 53.62926826477051 L 162.4 55.5 L 159.1 60.7 L 155.6 65.9 L 148.2 76.1 L 144.3 81.2 L 140.2 86.2 L 135.9 91.2 L 132.8458333015442 94.45777778625488 L 136.2 94.1 L 143.5 93.3 L 150.7 92.6 L 157.7 91.9 L 164.5 91.4 L 168.3964345932007 91.17079792022705 L 167.5 88.4 L 166.2 85.1 L 164.6 81.7 L 163.0 78.4 L 160.9 75.1 L 162.2 73.9 L 165.3 76.4 L 168.3 79.0 L 171.1 81.9 L 173.6 85.1 L 175.8 88.5 L 177.8 92.0 L 179.5 95.8 L 181.0 99.7 L 182.2 103.8 L 183.2 108.1 L 181.9 112.5 L 177.9 114.7 L 173.5 113.4 L 171.3 109.4 L 171.1 105.7 Z M 124.9 120.0 L 126.8 123.0 L 122.90460214614868 123.53729629516602 L 122.7 123.9 L 120.4 127.7 L 117.8 131.5 L 115.1 135.3 L 112.1 139.1 L 108.9 142.8 L 105.5 146.4 L 101.8 150.0 L 97.8 153.5 L 93.6 156.9 L 92.2 155.7 L 95.1 151.1 L 97.8 146.7 L 100.4 142.5 L 102.9 138.4 L 105.2 134.3 L 107.3 130.4 L 109.2 126.5 L 111.0 122.7 L 112.5 118.9 L 113.55264482498168 116.1180100440979 L 113.5 116.1 L 114.4 114.0 Z M 166.6 139.7 L 164.9 136.1 L 163.1 132.6 L 161.2 129.3 L 159.2 126.1 L 157.3 122.9 L 155.2 119.8 L 153.2 116.8 L 150.9 113.9 L 152.0 112.5 L 155.3 114.5 L 158.5 116.6 L 161.7 119.0 L 164.7 121.6 L 167.6 124.5 L 170.4 127.6 L 173.1 130.8 L 175.7 134.3 L 178.2 138.0 L 180.6 141.8 L 180.8 146.4 L 177.9 149.9 L 173.3 150.2 L 169.8 147.2 L 168.3 143.4 Z M 38.0 105.0 L 78.0 105.0 L 78.0 69.0 L 38.0 69.0 Z " />
</g>
</svg>
