<svg xmlns="http://www.w3.org/2000/svg" xmlns:xlink="http://www.w3.org/1999/xlink" version="1.1" baseProfile="full" viewBox="0 0 200 200" width="200" height="200">
<g fill="black">
<path d="M 78.0 154.5 L 79.1 158.0 L 75.19558820724487 157.45201234817506 L 74.2 158.5 L 69.9 162.4 L 65.1 166.2 L 59.9 169.9 L 54.2 173.4 L 48.0 176.9 L 41.4 180.2 L 34.2 183.5 L 26.5 186.5 L 18.3 189.2 L 17.6 187.6 L 24.9 183.1 L 31.7 178.7 L 38.1 174.5 L 44.0 170.4 L 49.4 166.4 L 54.3 162.4 L 58.7 158.5 L 62.5 154.6 L 65.8 150.8 L 68.6 147.1 L 68.61765260696411 147.11389675140381 L 69.1 146.5 Z M 162.6 180.3 L 158.6 176.8 L 154.1 173.2 L 149.3 169.5 L 144.2 165.8 L 138.7 161.9 L 132.9 158.0 L 126.8 153.8 L 120.4 149.4 L 121.2 147.8 L 128.6 150.4 L 135.5 153.3 L 142.0 156.2 L 148.1 159.3 L 153.9 162.4 L 159.4 165.5 L 164.5 168.6 L 169.2 171.8 L 173.7 174.9 L 177.8 178.1 L 179.7 182.3 L 178.2 186.6 L 174.0 188.5 L 169.7 187.0 L 166.3 183.7 Z M 19.2 135.0 L 94.0 135.0 L 94.0 107.6 L 106.0 109.6 L 109.0 111.6 L 106.0 113.4 L 106.0 135.0 L 158.7 135.0 L 168.7 125.0 L 180.7 135.0 L 180.7 139.0 L 19.2 139.0 Z M 44.6 116.3 L 32.6 122.3 L 32.6 33.3 L 44.6 39.3 L 94.0 39.3 L 94.0 13.5 L 106.0 15.5 L 109.0 17.5 L 106.0 19.3 L 106.0 39.3 L 155.3 39.3 L 161.3 34.3 L 172.3 43.3 L 167.3 47.3 L 167.3 110.3 L 155.3 116.3 L 155.3 104.3 L 44.6 104.3 Z M 44.6 72.4 L 44.6 100.3 L 94.0 100.3 L 94.0 72.4 Z M 106.0 72.4 L 106.0 100.3 L 155.3 100.3 L 155.3 72.4 Z M 44.6 43.3 L 44.6 68.4 L 94.0 68.4 L 94.0 43.3 Z M 106.0 43.3 L 106.0 68.4 L 155.3 68.4 L 155.3 43.3 Z " />
</g>
</svg>
