<svg xmlns="http://www.w3.org/2000/svg" xmlns:xlink="http://www.w3.org/1999/xlink" version="1.1" baseProfile="full" viewBox="0 0 200 200" width="200" height="200">
<g fill="black">
<path d="M 116.2 176.8 L 111.5 172.6 L 106.3 168.5 L 100.6 164.7 L 94.5 160.9 L 87.9 157.4 L 80.9 153.9 L 73.5 150.5 L 65.7 147.1 L 66.2 145.4 L 74.7 146.9 L 82.8 148.9 L 90.5 151.3 L 97.9 154.1 L 104.8 157.3 L 111.3 160.7 L 117.4 164.5 L 123.2 168.6 L 128.5 173.0 L 133.5 177.7 L 134.9 182.1 L 132.9 186.2 L 128.6 187.6 L 124.5 185.7 L 120.6 181.1 Z M 109.2 135.3 L 107.0 132.6 L 104.6 129.9 L 102.1 127.4 L 99.5 125.0 L 96.7 122.6 L 93.9 120.4 L 90.8 118.1 L 87.6 116.1 L 88.2 114.5 L 92.0 115.3 L 95.9 116.3 L 99.6 117.6 L 103.3 119.2 L 106.8 121.0 L 110.3 123.1 L 113.6 125.5 L 116.8 128.0 L 119.9 130.9 L 122.8 133.9 L 124.0 138.3 L 121.8 142.3 L 117.4 143.5 L 113.4 141.3 L 111.4 138.2 Z M 157.6 131.4 L 149.3 127.8 L 141.5 123.6 L 134.3 118.8 L 127.6 113.4 L 121.6 107.4 L 116.2 100.9 L 111.5 93.8 L 108.04102563858032 86.7 L 91.54285717010498 86.7 L 88.2 93.2 L 78.8 106.0 L 66.8 117.0 L 52.0 126.1 L 34.2 132.8 L 13.1 136.9 L 12.8 135.1 L 33.0 129.2 L 49.5 121.3 L 62.6 111.9 L 73.0 101.1 L 80.9 89.0 L 81.9203007698059 86.7 L 15.0 86.7 L 15.0 82.7 L 42.0 82.7 L 42.0 32.6 L 54.0 38.6 L 94.88701295852661 38.6 L 95.8 31.2 L 96.82997102737427 16.499504566192627 L 96.8 16.5 L 97.1 13.2 L 108.9 16.3 L 111.7 18.6 L 108.46470584869385 20.217647075653076 L 107.1 32.5 L 106.10874996185302 38.6 L 146.0 38.6 L 152.0 33.6 L 163.0 42.6 L 158.0 46.6 L 158.0 82.7 L 164.0 82.7 L 174.0 72.7 L 186.0 82.7 L 186.0 86.7 L 110.6709677696228 86.7 L 114.9 91.3 L 120.6 97.0 L 126.6 102.2 L 132.8 106.8 L 139.4 111.0 L 146.3 114.6 L 153.7 117.6 L 161.4 120.2 L 169.6 122.3 L 178.2 123.8 L 187.6 125.6 L 175.7 136.8 L 166.4 134.4 Z M 54.0 42.6 L 54.0 82.7 L 83.69473686218262 82.7 L 86.8 75.7 L 91.0 61.6 L 93.9 46.6 L 94.39350652694702 42.6 Z M 105.45874996185303 42.6 L 104.5 48.5 L 100.7 64.2 L 95.4 79.2 L 93.6 82.7 L 146.0 82.7 L 146.0 42.6 Z " />
</g>
</svg>
