<svg xmlns="http://www.w3.org/2000/svg" xmlns:xlink="http://www.w3.org/1999/xlink" version="1.1" baseProfile="full" viewBox="0 0 200 200" width="200" height="200">
<g fill="black">
<path d="M 129.3 175.7 L 149.3 175.7 L 150.6 175.6 L 151.5 175.5 L 152.1 175.3 L 152.4 175.1 L 152.6 175.0 L 152.9 174.4 L 153.1 173.9 L 153.3 172.9 L 153.3 105.9 L 47.4 105.9 L 47.4 180.8 L 35.4 186.8 L 35.4 95.9 L 47.4 101.9 L 153.3 101.9 L 159.3 96.9 L 170.3 105.9 L 165.3 109.9 L 165.3 171.7 L 165.2 174.3 L 164.8 176.8 L 163.9 179.2 L 162.7 181.4 L 161.1 183.5 L 159.1 185.1 L 156.8 186.3 L 154.4 187.1 L 151.9 187.6 L 149.3 187.7 L 149.3 181.7 L 129.3 178.7 Z M 142.2 140.6 L 142.2 144.6 L 58.6 144.6 L 58.6 140.6 L 120.2 140.6 L 130.2 130.6 Z M 15.0 80.1 L 94.0 80.1 L 94.0 58.0 L 46.0 58.0 L 46.0 65.0 L 34.0 71.0 L 34.0 22.4 L 46.0 24.4 L 49.0 26.4 L 46.0 28.2 L 46.0 54.0 L 94.0 54.0 L 94.0 12.8 L 106.0 14.8 L 109.0 16.8 L 106.0 18.6 L 106.0 54.0 L 154.0 54.0 L 154.0 22.4 L 166.0 24.4 L 169.0 26.4 L 166.0 28.2 L 166.0 62.0 L 154.0 68.0 L 154.0 58.0 L 106.0 58.0 L 106.0 80.1 L 166.8181818008423 80.1 L 175.0 71.1 L 185.0 80.1 L 185.0 84.1 L 15.0 84.1 Z " />
</g>
</svg>
