<svg xmlns="http://www.w3.org/2000/svg" xmlns:xlink="http://www.w3.org/1999/xlink" version="1.1" baseProfile="full" viewBox="0 0 200 200" width="200" height="200">
<g fill="black">
<path d="M 129.1 64.9 L 127.3 62.5 L 125.2 60.0 L 122.8 57.5 L 120.0 54.9 L 117.0 52.4 L 113.7 49.9 L 110.1 47.2 L 106.1 44.8 L 106.8 43.1 L 111.4 44.5 L 115.8 45.8 L 120.0 47.4 L 123.9 49.1 L 127.5 51.1 L 130.9 53.2 L 131.29085569381715 53.48092746734619 L 131.7 53.1 L 134.8 50.3 L 138.1 47.4 L 141.7 44.5 L 145.5 41.4 L 149.5 38.1 L 153.6 34.7 L 157.9 31.1 L 159.23157892227172 30.0 L 77.1 30.0 L 77.1 26.0 L 164.02749996185304 26.0 L 167.2 23.3 L 167.52791442871094 23.72673797607422 L 170.8 21.0 L 181.8 30.0 L 176.8 33.0 L 169.98249998092652 35.840625 L 169.3 36.3 L 164.3 39.7 L 159.5 42.8 L 154.8 45.7 L 150.3 48.4 L 145.9 50.8 L 141.7 53.0 L 137.6 54.8 L 134.59512195587158 55.9268292427063 L 137.0 58.0 L 139.6 60.7 L 142.0 63.5 L 142.7 68.1 L 141.15405406951905 70.3 L 169.0 70.3 L 175.0 65.3 L 186.0 74.3 L 181.0 78.3 L 181.0 180.7 L 169.0 186.7 L 169.0 178.7 L 87.9 178.7 L 87.9 181.7 L 75.9 187.7 L 75.9 64.3 L 87.9 70.3 L 132.4851851463318 70.3 L 131.8 69.8 L 130.6 67.4 Z M 87.9 74.3 L 87.9 174.7 L 169.0 174.7 L 169.0 74.3 Z M 34.6 179.9 L 30.6 177.6 L 29.4 173.2 L 30.1 167.9 L 30.3 162.6 L 30.0 157.4 L 29.1 152.3 L 27.8 147.2 L 25.9 142.1 L 23.5 137.0 L 20.5 131.9 L 17.1 126.7 L 13.1 121.3 L 14.3 120.0 L 19.8 124.1 L 24.7 128.6 L 26.686400413513184 130.81737718582153 L 26.7 130.8 L 30.6 125.4 L 34.7 119.3 L 39.1 112.4 L 43.7 104.7 L 48.6 96.3 L 53.7 87.2 L 59.1 77.3 L 64.9 66.8 L 71.1 55.6 L 72.8 56.3 L 68.4 68.4 L 64.0 79.6 L 59.6 90.1 L 55.3 99.8 L 51.2 108.7 L 47.2 116.9 L 43.4 124.4 L 39.7 131.1 L 36.2 137.2 L 33.875998878479 140.82270765304565 L 35.7 144.0 L 38.1 149.7 L 39.8 155.7 L 41.0 161.8 L 41.4 168.2 L 41.3 174.7 L 39.0 178.6 Z M 155.6 83.8 L 157.2 87.1 L 152.99130430221558 87.1 L 152.0 88.3 L 150.0 90.7 L 147.8 93.1 L 145.5 95.6 L 143.1 98.2 L 140.5 100.9 L 137.7 103.7 L 134.6 106.5 L 134.11666669845582 107.0 L 143.0 107.0 L 153.0 97.0 L 165.0 107.0 L 165.0 111.0 L 134.0 111.0 L 134.0 134.0 L 142.0 134.0 L 152.0 124.0 L 164.0 134.0 L 164.0 138.0 L 134.0 138.0 L 134.0 167.0 L 122.0 173.0 L 122.0 138.0 L 95.0 138.0 L 95.0 134.0 L 122.0 134.0 L 122.0 111.0 L 93.0 111.0 L 93.0 107.0 L 131.05555553436278 107.0 L 132.4 104.8 L 134.1 101.1 L 135.9 97.6 L 137.6 94.3 L 139.1 91.2 L 140.6 88.2 L 141.9 85.4 L 143.2 82.7 L 144.3 80.2 L 144.90444869995116 78.74932298660278 L 144.8 78.7 L 145.8 76.9 Z M 111.5 96.7 L 110.8 94.7 L 109.9 92.7 L 108.8 90.6 L 107.6 88.4 L 106.1 86.2 L 104.4 83.8 L 102.6 81.4 L 100.2 79.3 L 101.3 77.8 L 104.1 79.5 L 106.9 80.8 L 109.6 82.3 L 112.1 84.0 L 114.4 85.7 L 116.6 87.5 L 118.6 89.5 L 120.4 91.5 L 122.0 93.7 L 123.5 96.0 L 123.3 100.6 L 120.0 103.8 L 115.5 103.6 L 112.3 100.3 L 112.0 98.5 Z M 40.9 52.9 L 39.3 50.4 L 37.6 47.9 L 35.5 45.4 L 33.2 42.9 L 30.7 40.4 L 27.9 37.9 L 24.9 35.4 L 21.5 33.2 L 22.2 31.5 L 30.2 34.1 L 33.8 35.7 L 37.3 37.4 L 40.6 39.4 L 43.7 41.6 L 46.6 44.0 L 49.2 46.7 L 51.7 49.5 L 53.8 52.5 L 54.2 57.0 L 51.4 60.6 L 46.8 61.0 L 43.2 58.1 L 42.2 55.5 Z " />
</g>
</svg>
