<svg xmlns="http://www.w3.org/2000/svg" xmlns:xlink="http://www.w3.org/1999/xlink" version="1.1" baseProfile="full" viewBox="0 0 200 200" width="200" height="200">
<g fill="black">
<path d="M 75.7 108.5 L 74.6 120.3 L 73.0 131.5 L 71.1 142.0 L 68.7 151.9 L 65.8 161.1 L 62.5 169.6 L 58.7 177.4 L 54.4 184.3 L 49.5 190.5 L 48.0 189.4 L 51.0 182.5 L 53.8 175.2 L 56.3 167.3 L 58.5 159.0 L 60.4 150.0 L 61.9 140.4 L 63.1 130.2 L 63.9 119.4 L 64.3 108.0 L 64.4 95.9 L 64.4 23.0 L 76.4 29.0 L 76.4 29.25 L 81.7 28.4 L 92.1 26.8 L 102.3 25.4 L 112.5 23.8 L 122.4 22.3 L 132.2 20.6 L 141.8 18.9 L 151.3 17.1 L 160.7 15.2 L 169.8 13.2 L 170.02107925415038 14.334232711791993 L 180.9 23.4 L 181.3 26.3 L 176.80824174880982 24.143956089019774 L 172.1 25.0 L 162.6 26.4 L 153.0 27.7 L 143.3 28.9 L 133.4 29.9 L 123.4 30.7 L 113.2 31.4 L 102.9 31.9 L 92.5 32.2 L 81.9 32.2 L 76.4 31.994392490386964 L 76.4 48.0 L 168.4 48.0 L 174.4 43.0 L 185.4 52.0 L 180.4 56.0 L 180.4 84.0 L 168.4 90.0 L 168.4 82.0 L 76.4 82.0 L 76.4 96.0 L 76.29224138259887 96.1616379737854 Z M 148.6 175.9 L 165.8 175.9 L 166.7 175.7 L 167.3 175.5 L 167.6 175.3 L 167.8 175.2 L 168.0 175.0 L 168.3 174.1 L 168.5 173.2 L 168.6 171.9 L 168.6 150.3 L 139.0 150.3 L 139.0 175.8 L 127.0 181.8 L 127.0 150.3 L 97.4 150.3 L 97.4 181.0 L 85.4 187.0 L 85.4 94.7 L 97.4 100.7 L 168.6 100.7 L 174.6 95.7 L 185.6 104.7 L 180.6 108.7 L 180.6 171.9 L 180.4 174.5 L 180.0 177.0 L 179.2 179.4 L 177.9 181.7 L 176.3 183.7 L 174.3 185.3 L 172.0 186.5 L 169.6 187.3 L 167.1 187.8 L 164.6 187.9 L 164.6 181.9 L 148.6 178.9 Z M 29.3 179.9 L 25.3 177.7 L 23.9 173.4 L 24.5 167.9 L 24.8 162.5 L 24.6 157.3 L 24.0 152.1 L 23.0 146.9 L 21.6 141.8 L 19.8 136.8 L 19.58510856628418 136.3018424987793 L 18.9 135.9 L 19.20385389328003 135.41802492141724 L 17.6 131.7 L 15.1 126.6 L 12.2 121.3 L 13.6 120.1 L 18.1 124.3 L 22.2 128.9 L 22.742094421386717 129.6589322090149 L 24.9 125.9 L 28.3 119.7 L 31.8 112.8 L 35.6 105.1 L 39.5 96.6 L 43.7 87.4 L 48.1 77.5 L 52.9 66.9 L 58.0 55.6 L 59.7 56.3 L 56.4 68.2 L 53.1 79.4 L 49.8 89.8 L 46.6 99.4 L 43.4 108.3 L 40.3 116.5 L 37.4 123.9 L 34.6 130.6 L 31.9 136.7 L 29.668058109283447 141.24972772598267 L 31.1 144.4 L 33.1 150.0 L 34.5 155.9 L 35.5 161.9 L 35.9 168.1 L 35.9 174.5 L 33.7 178.5 Z M 97.4 127.2 L 97.4 146.3 L 127.0 146.3 L 127.0 127.2 Z M 139.0 127.2 L 139.0 146.3 L 168.6 146.3 L 168.6 127.2 Z M 97.4 104.7 L 97.4 123.2 L 127.0 123.2 L 127.0 104.7 Z M 139.0 104.7 L 139.0 123.2 L 168.6 123.2 L 168.6 104.7 Z M 76.4 52.0 L 76.4 78.0 L 168.4 78.0 L 168.4 52.0 Z M 33.1 52.4 L 32.0 49.9 L 30.7 47.4 L 29.3 45.0 L 27.6 42.6 L 25.8 40.2 L 23.8 37.8 L 21.6 35.3 L 19.0 33.2 L 19.9 31.7 L 23.0 33.1 L 26.3 34.4 L 29.3 36.0 L 32.2 37.8 L 34.9 39.8 L 37.5 42.0 L 39.8 44.5 L 42.0 47.1 L 44.0 49.9 L 45.8 52.9 L 45.8 57.4 L 42.6 60.7 L 38.0 60.7 L 34.8 57.5 L 34.0 54.9 Z " />
</g>
</svg>
