<svg xmlns="http://www.w3.org/2000/svg" xmlns:xlink="http://www.w3.org/1999/xlink" version="1.1" baseProfile="full" viewBox="0 0 200 200" width="200" height="200">
<g fill="black">
<path d="M 144.7 175.6 L 160.7 175.6 L 161.9 175.5 L 162.9 175.4 L 163.4 175.2 L 164.0 174.9 L 164.3 174.3 L 164.5 173.8 L 164.6 172.8 L 164.7 171.6 L 164.7 146.3 L 93.2 146.3 L 93.2 183.1 L 81.2 189.1 L 81.2 77.6 L 93.2 83.6 L 164.7 83.6 L 170.7 78.6 L 181.7 87.6 L 176.7 91.6 L 176.7 171.6 L 176.6 174.2 L 176.1 176.7 L 175.3 179.1 L 174.1 181.3 L 172.4 183.4 L 170.4 185.0 L 168.2 186.2 L 165.8 187.0 L 163.3 187.5 L 160.7 187.6 L 160.7 181.6 L 144.7 178.6 Z M 35.3 179.9 L 31.3 177.6 L 30.1 173.2 L 30.8 167.9 L 31.0 162.6 L 30.7 157.5 L 29.8 152.3 L 28.4 147.2 L 26.5 142.2 L 24.0 137.0 L 21.0 131.9 L 17.4 126.7 L 13.3 121.3 L 14.6 120.0 L 20.2 124.0 L 25.2 128.5 L 27.312139797210694 130.9068570137024 L 27.4 130.8 L 31.3 125.4 L 35.5 119.2 L 40.0 112.3 L 44.7 104.7 L 49.6 96.3 L 54.8 87.1 L 60.4 77.3 L 66.3 66.8 L 72.6 55.6 L 74.2 56.3 L 69.7 68.4 L 65.2 79.6 L 60.7 90.1 L 56.4 99.8 L 52.1 108.7 L 48.1 116.9 L 44.1 124.4 L 40.4 131.2 L 36.8 137.2 L 34.46470260620117 140.8030303001404 L 36.3 144.0 L 38.7 149.7 L 40.5 155.7 L 41.7 161.8 L 42.2 168.2 L 42.0 174.7 L 39.7 178.7 Z M 93.2 116.9 L 93.2 142.3 L 164.7 142.3 L 164.7 116.9 Z M 93.2 87.6 L 93.2 112.9 L 164.7 112.9 L 164.7 87.6 Z M 99.0 23.4 L 158.9 23.4 L 164.9 18.4 L 175.9 27.4 L 170.9 31.4 L 170.9 65.5 L 158.9 71.5 L 158.9 61.5 L 99.0 61.5 L 99.0 68.5 L 87.0 74.5 L 87.0 17.4 Z M 41.8 53.0 L 40.2 50.4 L 38.4 47.9 L 36.3 45.4 L 34.0 42.9 L 31.4 40.4 L 28.5 38.0 L 25.4 35.4 L 21.9 33.2 L 22.6 31.5 L 26.7 32.8 L 30.7 34.1 L 34.5 35.6 L 38.0 37.4 L 41.4 39.4 L 44.5 41.6 L 47.4 44.0 L 50.1 46.6 L 52.6 49.4 L 54.8 52.5 L 55.2 57.0 L 52.4 60.6 L 47.8 61.0 L 44.2 58.2 L 43.1 55.6 Z M 99.0 27.4 L 99.0 57.5 L 158.9 57.5 L 158.9 27.4 Z " />
</g>
</svg>
