<svg xmlns="http://www.w3.org/2000/svg" xmlns:xlink="http://www.w3.org/1999/xlink" version="1.1" baseProfile="full" viewBox="0 0 200 200" width="200" height="200">
<g fill="black">
<path d="M 120.4 27.0 L 149.3 27.0 L 155.3 22.0 L 166.3 31.0 L 161.3 35.0 L 161.3 161.0 L 161.4 162.2 L 161.5 163.1 L 161.7 163.7 L 161.9 164.0 L 162.1 164.2 L 162.2 164.4 L 162.6 164.5 L 163.2 164.7 L 164.1 164.9 L 165.3 165.0 L 177.2 165.0 L 183.2 140.0 L 185.2 140.0 L 183.2 165.0 L 186.8 167.4 L 189.2 171.0 L 186.8 174.6 L 183.2 177.0 L 165.3 177.0 L 162.8 176.8 L 160.3 176.4 L 157.9 175.6 L 155.6 174.3 L 153.6 172.7 L 151.9 170.7 L 150.7 168.4 L 149.9 166.0 L 149.5 163.5 L 149.3 161.0 L 149.3 31.0 L 120.4 31.0 L 120.4 93.0 L 119.8 105.9 L 118.5 118.1 L 116.5 129.5 L 113.8 140.2 L 110.4 150.1 L 106.3 159.2 L 101.5 167.5 L 96.0 174.8 L 89.8 181.3 L 82.8 186.6 L 81.6 185.3 L 87.0 178.7 L 91.49857139587402 172.0 L 29.8 172.0 L 29.8 184.0 L 17.8 190.0 L 17.8 23.0 L 29.8 29.0 L 70.2 29.0 L 80.2 19.0 L 92.2 29.0 L 92.2 33.0 L 61.0 33.0 L 61.0 72.0 L 75.5 72.0 L 81.5 67.0 L 92.5 76.0 L 87.5 80.0 L 87.5 131.0 L 75.5 137.0 L 75.5 125.0 L 61.0 125.0 L 61.0 168.0 L 72.5 168.0 L 82.5 158.0 L 93.96595420837403 167.55496187210082 L 95.8 164.2 L 99.4 156.1 L 102.4 147.3 L 104.8 137.9 L 106.6 127.7 L 107.8 116.9 L 108.4 105.3 L 108.4 21.0 Z M 29.8 125.0 L 29.8 168.0 L 49.0 168.0 L 49.0 125.0 Z M 29.8 121.0 L 75.5 121.0 L 75.5 76.0 L 29.8 76.0 Z M 29.8 33.0 L 29.8 72.0 L 49.0 72.0 L 49.0 33.0 Z " />
</g>
</svg>
