<svg xmlns="http://www.w3.org/2000/svg" xmlns:xlink="http://www.w3.org/1999/xlink" version="1.1" baseProfile="full" viewBox="0 0 200 200" width="200" height="200">
<g fill="black">
<path d="M 137.6 176.0 L 157.6 176.0 L 158.8 175.9 L 159.7 175.7 L 160.6 175.4 L 161.0 175.0 L 161.3 174.1 L 161.5 173.2 L 161.6 172.0 L 161.6 14.0 L 173.6 16.0 L 176.6 18.0 L 173.6 19.8 L 173.6 172.0 L 173.4 174.5 L 173.0 177.0 L 172.2 179.4 L 171.0 181.7 L 169.3 183.7 L 167.3 185.3 L 165.0 186.6 L 162.6 187.4 L 160.1 187.8 L 157.6 188.0 L 157.6 182.0 L 137.6 179.0 Z M 89.6 180.4 L 87.9 182.2 L 86.0 183.7 L 84.0 185.1 L 81.8 186.2 L 79.6 187.0 L 77.2 187.6 L 74.7 187.9 L 72.3 188.1 L 72.3 182.1 L 52.3 179.1 L 52.3 176.1 L 72.3 176.1 L 73.7 176.0 L 74.9 175.8 L 76.0 175.5 L 77.0 175.2 L 78.0 174.7 L 78.8 174.1 L 79.7 173.4 L 80.5 172.6 L 81.2 171.6 L 82.0 170.4 L 83.4 167.2 L 84.9 162.4 L 86.3 156.2 L 87.4 148.6 L 88.4 139.7 L 89.2 129.4 L 89.7 117.9 L 90.1 105.1 L 90.2 91.0 L 90.16411228179932 85.47328653335572 L 90.1 85.5 L 90.1 77.5 L 26.3 77.5 L 26.3 73.5 L 90.1 73.5 L 96.1 68.5 L 107.1 77.5 L 102.13256702423095 80.48045978546142 L 102.2 91.0 L 102.1 105.3 L 101.7 118.3 L 101.1 130.2 L 100.4 140.8 L 99.3 150.1 L 98.1 158.3 L 96.5 165.4 L 94.7 171.3 L 92.4 176.3 L 91.1 178.4 Z M 134.6 31.0 L 137.6 33.0 L 134.6 34.8 L 134.6 149.0 L 122.6 155.0 L 122.6 29.0 Z M 27.7 128.3 L 33.1 127.2 L 38.6 125.9 L 44.2 124.7 L 55.6 122.1 L 67.4 119.3 L 73.4 118.0 L 79.6 116.7 L 85.9 115.6 L 86.5 117.3 L 80.8 120.3 L 75.1 123.1 L 69.4 125.6 L 63.8 127.9 L 58.1 130.2 L 52.6 132.3 L 47.0 134.3 L 41.6 136.3 L 34.75801105499268 138.58066301345826 L 33.5 142.3 L 30.8 139.9 L 25.8 128.8 Z M 51.8 18.3 L 54.1 21.1 L 50.45 22.0125 L 49.4 24.9 L 46.6 31.3 L 43.5 37.4 L 40.2 43.3 L 40.073684215545654 43.5 L 88.6 43.5 L 98.6 33.5 L 110.6 43.5 L 110.6 47.5 L 37.54736843109131 47.5 L 36.6 49.0 L 32.6 54.4 L 28.4 59.5 L 23.9 64.3 L 19.0 68.8 L 13.7 72.8 L 12.4 71.5 L 16.2 66.2 L 19.7 60.9 L 23.1 55.6 L 26.3 50.2 L 29.3 44.7 L 32.0 39.0 L 34.4 33.2 L 36.7 27.2 L 38.6 21.1 L 40.11346378326416 15.802876853942871 L 40.1 15.8 L 40.8 13.2 Z " />
</g>
</svg>
