<svg xmlns="http://www.w3.org/2000/svg" xmlns:xlink="http://www.w3.org/1999/xlink" version="1.1" baseProfile="full" viewBox="0 0 200 200" width="200" height="200">
<g fill="black">
<path d="M 174.0 83.8 L 177.0 85.8 L 174.0 87.6 L 174.0 181.2 L 162.0 187.2 L 162.0 177.2 L 38.0 177.2 L 38.0 184.2 L 26.0 190.2 L 26.0 81.8 L 38.0 83.8 L 41.0 85.8 L 38.0 87.6 L 38.0 173.2 L 162.0 173.2 L 162.0 81.8 Z M 106.0 83.0 L 109.0 85.0 L 106.0 86.8 L 106.0 100.0 L 125.0 100.0 L 135.0 90.0 L 147.0 100.0 L 147.0 104.0 L 106.0 104.0 L 106.0 132.0 L 130.0 132.0 L 140.0 122.0 L 152.0 132.0 L 152.0 136.0 L 106.0 136.0 L 106.0 162.0 L 94.0 168.0 L 94.0 136.0 L 48.0 136.0 L 48.0 132.0 L 94.0 132.0 L 94.0 104.0 L 54.0 104.0 L 54.0 100.0 L 94.0 100.0 L 94.0 81.0 Z M 100.0 68.9 L 98.3 66.1 L 96.5 63.4 L 94.6 60.6 L 92.5 57.9 L 87.7 52.5 L 85.1 49.7 L 82.1 47.1 L 82.5919786453247 46.3128342628479 L 82.3 46.5 L 81.2 45.1 L 84.2 41.7 L 87.0 38.3 L 89.6 35.0 L 92.1 31.8 L 94.5 28.8 L 96.7 25.8 L 98.8 22.9 L 100.7 20.1 L 102.4 17.4 L 103.44146537780762 15.525362300872803 L 103.4 15.5 L 103.65 15.15 L 103.9 14.7 L 103.94707012176514 14.734101867675781 L 104.4 14.1 L 113.7 21.8 L 114.9 25.1 L 110.84920635223389 24.750793647766113 L 108.8 26.8 L 106.1 29.3 L 103.2 31.9 L 100.2 34.4 L 97.0 36.9 L 93.6 39.3 L 90.1 41.7 L 86.2 44.0 L 83.53761997222901 45.706653881072995 L 86.7 47.2 L 90.4 48.9 L 93.8 50.8 L 97.0 52.8 L 100.1 55.1 L 103.1 57.5 L 105.8 60.0 L 108.4 62.7 L 110.9 65.6 L 113.1 68.6 L 113.6 73.1 L 110.9 76.8 L 106.3 77.3 L 102.7 74.5 L 101.4 71.7 Z M 151.9 68.9 L 150.3 66.1 L 148.5 63.4 L 146.5 60.6 L 144.4 57.9 L 142.1 55.2 L 139.6 52.5 L 137.0 49.7 L 134.1 47.1 L 134.51503763198852 46.36215534210205 L 134.3 46.5 L 133.1 45.1 L 136.2 41.7 L 138.9 38.3 L 141.6 35.0 L 144.1 31.8 L 146.5 28.8 L 148.7 25.8 L 150.7 22.9 L 152.6 20.1 L 154.3 17.4 L 155.39242544174195 15.556532096862792 L 155.3 15.5 L 155.81232872009278 14.847945213317871 L 155.9 14.7 L 155.9181393623352 14.713277244567871 L 156.4 14.1 L 165.6 21.8 L 166.9 25.1 L 162.7515625 24.7484375 L 160.7 26.8 L 158.0 29.3 L 155.2 31.9 L 149.0 36.9 L 145.6 39.3 L 142.0 41.7 L 138.2 44.0 L 135.5009446144104 45.730163764953616 L 138.7 47.2 L 142.3 48.9 L 145.7 50.8 L 149.0 52.8 L 152.1 55.1 L 155.0 57.5 L 157.8 60.0 L 160.4 62.7 L 162.8 65.6 L 165.0 68.6 L 165.6 73.1 L 162.8 76.8 L 158.3 77.3 L 154.6 74.5 L 153.3 71.7 Z M 48.0 68.9 L 46.4 66.1 L 44.6 63.4 L 42.7 60.6 L 40.5 57.9 L 38.2 55.2 L 35.7 52.5 L 33.1 49.7 L 30.2 47.1 L 30.691978645324706 46.3128342628479 L 30.4 46.5 L 29.3 45.1 L 32.3 41.7 L 35.0 38.3 L 37.7 35.0 L 40.2 31.8 L 42.6 28.8 L 44.8 25.8 L 46.9 22.9 L 48.8 20.1 L 50.5 17.4 L 51.51610307693481 15.571014499664306 L 51.4 15.5 L 51.93103446960449 14.824137973785401 L 52.0 14.7 L 52.018139362335205 14.713277244567871 L 52.5 14.1 L 61.7 21.8 L 63.0 25.1 L 58.932658195495605 24.749367046356202 L 54.2 29.3 L 51.3 31.9 L 48.3 34.4 L 45.1 36.9 L 41.7 39.3 L 38.1 41.7 L 34.3 44.0 L 31.637619972229004 45.706653881072995 L 38.4 48.9 L 41.8 50.8 L 45.1 52.8 L 48.2 55.1 L 51.1 57.5 L 53.9 60.0 L 56.5 62.7 L 58.9 65.6 L 61.2 68.6 L 61.7 73.1 L 58.9 76.8 L 54.4 77.3 L 50.8 74.5 L 49.5 71.7 Z " />
</g>
</svg>
