<svg xmlns="http://www.w3.org/2000/svg" xmlns:xlink="http://www.w3.org/1999/xlink" version="1.1" baseProfile="full" viewBox="0 0 200 200" width="200" height="200">
<g fill="black">
<path d="M 66.4 17.9 L 68.5 20.7 L 64.99782724380493 21.437299537658692 L 62.0 29.0 L 57.5 39.9 L 52.7 50.5 L 47.7 60.9 L 42.5 71.0 L 41.39166669845581 73.03194446563721 L 47.2 74.0 L 50.2 76.0 L 47.2 77.8 L 47.2 183.0 L 35.2 189.0 L 35.2 84.1 L 31.4 90.5 L 25.5 99.9 L 19.2 108.8 L 12.5 117.4 L 11.0 116.5 L 15.9 106.8 L 20.8 97.2 L 25.6 87.4 L 30.3 77.4 L 34.9 67.3 L 39.3 57.0 L 43.5 46.6 L 47.5 35.9 L 51.4 25.0 L 55.0 13.9 L 55.029842948913576 13.91047124862671 L 55.5 12.5 Z M 141.2 176.0 L 161.2 176.0 L 162.4 175.9 L 163.3 175.7 L 164.2 175.4 L 164.6 175.0 L 164.8 174.7 L 164.9 174.1 L 165.1 173.2 L 165.2 172.0 L 165.2 14.0 L 177.2 16.0 L 180.2 18.0 L 177.2 19.8 L 177.2 172.0 L 177.0 174.5 L 176.6 177.0 L 175.8 179.4 L 174.6 181.7 L 172.9 183.7 L 170.9 185.3 L 168.6 186.6 L 166.2 187.4 L 163.7 187.8 L 161.2 188.0 L 161.2 182.0 L 141.2 179.0 Z M 66.9 153.1 L 69.9 152.4 L 73.5 151.1 L 77.8 149.3 L 82.7 147.1 L 88.2 144.3 L 94.3 141.0 L 101.0 137.3 L 108.2 133.1 L 116.1 128.6 L 124.7 123.7 L 125.7 125.2 L 118.3 131.7 L 111.3 137.6 L 104.6 142.8 L 98.4 147.4 L 92.6 151.5 L 87.4 155.1 L 82.5 158.2 L 78.1 160.8 L 74.47774906158448 162.70168180465697 L 73.2 166.9 L 70.4 164.6 L 65.0 153.7 Z M 146.2 31.0 L 149.2 33.0 L 146.2 34.8 L 146.2 149.0 L 134.2 155.0 L 134.2 29.0 Z M 101.1 104.9 L 99.4 103.5 L 97.1 102.0 L 94.2 100.3 L 90.8 98.6 L 86.9 96.8 L 82.5 94.9 L 77.6 92.8 L 72.2 90.9 L 72.6 89.2 L 78.4 89.9 L 83.7 90.5 L 88.5 91.3 L 93.0 92.1 L 96.9 92.9 L 100.5 93.9 L 103.7 94.9 L 106.6 96.0 L 109.1 97.3 L 111.4 98.9 L 112.9 103.3 L 110.9 107.4 L 106.6 108.9 L 102.5 106.9 L 102.1 106.1 Z M 126.8 70.4 L 126.8 74.4 L 63.1 74.4 L 63.1 70.4 L 104.8 70.4 L 114.8 60.4 Z M 120.1 32.2 L 120.1 36.2 L 69.8 36.2 L 69.8 32.2 L 98.1 32.2 L 108.1 22.2 Z " />
</g>
</svg>
