<svg xmlns="http://www.w3.org/2000/svg" xmlns:xlink="http://www.w3.org/1999/xlink" version="1.1" baseProfile="full" viewBox="0 0 200 200" width="200" height="200">
<g fill="black">
<path d="M 87.2 177.45 L 79.7 181.2 L 79.7 147.8 L 64.2 147.8 L 64.2 175.2 L 52.2 181.2 L 52.2 147.8 L 36.7 147.8 L 36.7 182.4 L 24.7 188.4 L 24.7 109.5 L 20.2 110.4 L 14.0 111.3 L 13.5 109.6 L 19.1 106.8 L 24.4 104.2 L 29.4 101.8 L 34.1 99.4 L 38.4 97.1 L 42.4 94.7 L 46.1 92.5 L 49.3 90.2 L 52.2 88.0 L 53.9525580406189 86.45774898529052 L 53.9 86.4 L 54.8 85.7 L 62.0 95.3 L 62.2 98.9 L 58.49073486328125 97.45750799179078 L 54.8 99.4 L 50.8 101.3 L 46.5 103.1 L 41.9 104.8 L 37.0 106.4 L 31.7 107.9 L 27.897530841827393 108.79876546859741 L 36.7 113.2 L 107.2 113.2 L 113.2 108.2 L 124.2 117.2 L 119.2 121.2 L 119.2 171.8 L 119.1 174.3 L 118.6 176.8 L 117.8 179.2 L 116.6 181.5 L 114.9 183.5 L 112.9 185.1 L 110.7 186.4 L 108.2 187.2 L 105.7 187.6 L 103.2 187.8 L 103.2 181.8 L 87.2 178.8 Z M 142.8 176.0 L 162.8 176.0 L 164.1 175.9 L 165.0 175.7 L 165.9 175.4 L 166.1 175.2 L 166.2 175.0 L 166.4 174.7 L 166.6 174.1 L 166.8 173.2 L 166.8 14.0 L 178.8 16.0 L 181.8 18.0 L 178.8 19.8 L 178.8 172.0 L 178.7 174.5 L 178.3 177.0 L 177.5 179.4 L 176.2 181.7 L 174.6 183.7 L 172.6 185.3 L 170.3 186.6 L 167.9 187.4 L 165.4 187.8 L 162.8 188.0 L 162.8 182.0 L 142.8 179.0 Z M 147.4 31.0 L 150.4 33.0 L 147.4 34.8 L 147.4 149.0 L 135.4 155.0 L 135.4 29.0 Z M 36.7 117.2 L 36.7 143.8 L 52.2 143.8 L 52.2 117.2 Z M 64.2 117.2 L 64.2 143.8 L 79.7 143.8 L 79.7 117.2 Z M 91.7 117.2 L 91.7 143.8 L 107.2 143.8 L 107.2 117.2 Z M 112.4 107.4 L 109.5 105.4 L 106.3 103.3 L 102.7 101.3 L 98.8 99.3 L 94.5 97.2 L 89.9 95.0 L 85.0 92.8 L 79.8 90.5 L 80.2 88.8 L 86.0 89.5 L 91.4 90.3 L 96.5 91.3 L 101.3 92.5 L 105.8 93.7 L 110.1 95.1 L 114.0 96.6 L 117.7 98.2 L 121.1 99.9 L 124.3 101.7 L 126.6 105.7 L 125.5 110.1 L 121.5 112.4 L 117.0 111.3 L 114.9 109.3 Z M 41.9 23.6 L 102.0 23.6 L 108.0 18.6 L 119.0 27.6 L 114.0 31.6 L 114.0 84.2 L 102.0 90.2 L 102.0 84.2 L 41.9 84.2 L 29.9 90.2 L 29.9 17.6 Z M 41.9 64.5 L 41.9 80.2 L 102.0 80.2 L 102.0 64.5 Z M 41.9 46.1 L 41.9 60.5 L 102.0 60.5 L 102.0 46.1 Z M 41.9 27.6 L 41.9 42.1 L 102.0 42.1 L 102.0 27.6 Z M 91.7 147.8 L 91.7 175.2 L 90.5 175.8 L 103.2 175.8 L 104.4 175.7 L 105.3 175.5 L 105.9 175.3 L 106.3 175.2 L 106.4 175.0 L 106.6 174.8 L 106.8 174.5 L 107.0 173.9 L 107.1 173.0 L 107.2 171.8 L 107.2 147.8 Z " />
</g>
</svg>
