<svg xmlns="http://www.w3.org/2000/svg" xmlns:xlink="http://www.w3.org/1999/xlink" version="1.1" baseProfile="full" viewBox="0 0 200 200" width="200" height="200">
<g fill="black">
<path d="M 139.7 176.0 L 159.7 176.0 L 160.9 175.9 L 161.8 175.7 L 162.4 175.5 L 162.8 175.4 L 163.0 175.2 L 163.1 175.0 L 163.3 174.7 L 163.5 174.1 L 163.6 173.2 L 163.7 172.0 L 163.7 14.0 L 175.7 16.0 L 178.7 18.0 L 175.7 19.8 L 175.7 172.0 L 175.6 174.5 L 175.1 177.0 L 174.3 179.4 L 173.1 181.7 L 171.4 183.7 L 169.4 185.3 L 167.2 186.6 L 164.8 187.4 L 162.3 187.8 L 159.7 188.0 L 159.7 182.0 L 139.7 179.0 Z M 68.3 26.9 L 68.9 30.5 L 65.05593223571778 29.33305082321167 L 64.7 29.6 L 61.0 32.2 L 57.3 34.7 L 53.4 37.0 L 49.4 39.2 L 45.3 41.2 L 41.2 43.0 L 36.9 44.7 L 33.7 45.71818180084229 L 33.7 97.7 L 46.1777777671814 97.7 L 52.4 90.7 L 60.4 97.7 L 60.4 101.7 L 33.7 101.7 L 33.7 157.6 L 95.3 157.6 L 95.3 101.7 L 68.5 101.7 L 68.5 97.7 L 95.3 97.7 L 95.3 45.7 L 65.6 45.7 L 65.6 41.7 L 95.3 41.7 L 101.3 36.7 L 112.3 45.7 L 107.3 49.7 L 107.3 167.6 L 95.3 173.6 L 95.3 161.6 L 33.7 161.6 L 33.7 173.6 L 21.7 179.6 L 21.7 38.5 L 30.87802200317383 43.08901100158691 L 31.0 43.0 L 34.6 40.3 L 38.1 37.7 L 41.6 35.0 L 48.2 29.6 L 51.3 26.8 L 54.4 23.9 L 57.4 21.0 L 59.52495946884155 18.723257732391357 L 59.5 18.7 L 59.79166669845581 18.4375 L 60.2 18.0 L 60.23502159118652 18.03848056793213 L 60.5 17.8 Z M 139.8 31.0 L 142.8 33.0 L 139.8 34.8 L 139.8 149.0 L 127.8 155.0 L 127.8 29.0 Z " />
</g>
</svg>
