<svg xmlns="http://www.w3.org/2000/svg" xmlns:xlink="http://www.w3.org/1999/xlink" version="1.1" baseProfile="full" viewBox="0 0 200 200" width="200" height="200">
<g fill="black">
<path d="M 143.6 176.0 L 163.6 176.0 L 164.8 175.9 L 165.7 175.7 L 166.6 175.4 L 167.0 175.0 L 167.3 174.1 L 167.5 173.2 L 167.6 172.0 L 167.6 14.0 L 179.6 16.0 L 182.6 18.0 L 179.6 19.8 L 179.6 172.0 L 179.4 174.5 L 179.0 177.0 L 178.2 179.4 L 176.9 181.7 L 175.3 183.7 L 173.3 185.3 L 171.0 186.6 L 168.6 187.4 L 166.1 187.8 L 163.6 188.0 L 163.6 182.0 L 143.6 179.0 Z M 60.3 160.7 L 61.1 164.2 L 57.26425466537476 163.45976848602294 L 57.0 163.7 L 53.4 166.6 L 49.4 169.5 L 45.2 172.3 L 40.6 175.0 L 35.7 177.7 L 30.4 180.4 L 24.8 183.0 L 18.8 185.4 L 12.3 187.6 L 11.5 185.9 L 17.0 182.0 L 22.2 178.3 L 27.0 174.8 L 31.6 171.3 L 35.8 168.0 L 39.6 164.8 L 43.1 161.6 L 46.2 158.6 L 49.0 155.6 L 50.7740740776062 153.4563271522522 L 50.7 153.4 L 51.7 152.3 Z M 107.8 179.0 L 105.2 176.3 L 102.2 173.5 L 98.8 170.8 L 95.0 168.1 L 90.8 165.4 L 86.2 162.7 L 81.2 159.9 L 75.8 157.1 L 76.3 155.4 L 82.4 156.5 L 88.1 157.9 L 93.5 159.6 L 98.5 161.5 L 103.2 163.7 L 107.5 166.0 L 111.5 168.6 L 115.2 171.3 L 118.5 174.3 L 121.4 177.5 L 122.4 182.0 L 120.1 185.9 L 115.6 186.9 L 111.7 184.5 L 109.9 181.8 Z M 74.5 16.0 L 77.5 18.0 L 74.5 19.8 L 74.5 68.2 L 95.7 68.2 L 101.7 63.2 L 112.7 72.2 L 107.7 76.2 L 107.7 144.8 L 95.7 150.8 L 95.7 144.8 L 41.2 144.8 L 41.2 151.8 L 29.2 157.8 L 29.2 62.2 L 41.2 68.2 L 62.5 68.2 L 62.5 14.0 Z M 142.0 31.0 L 145.0 33.0 L 142.0 34.8 L 142.0 149.0 L 130.0 155.0 L 130.0 29.0 Z M 41.2 120.6 L 41.2 140.8 L 95.7 140.8 L 95.7 120.6 Z M 41.2 96.4 L 41.2 116.6 L 95.7 116.6 L 95.7 96.4 Z M 41.2 72.2 L 41.2 92.4 L 95.7 92.4 L 95.7 72.2 Z M 53.8 29.9 L 55.3 33.2 L 51.432608699798585 33.2 L 50.5 34.5 L 47.1 39.0 L 43.5 43.5 L 39.8 47.8 L 35.9 52.1 L 31.8 56.3 L 27.5 60.4 L 23.0 64.3 L 18.2 68.1 L 13.2 71.6 L 12.0 70.3 L 15.6 65.4 L 19.1 60.6 L 22.6 56.0 L 26.0 51.3 L 29.3 46.7 L 32.4 42.1 L 35.4 37.5 L 38.3 32.9 L 41.0 28.3 L 43.051282024383546 24.52564105987549 L 43.0 24.5 L 44.0 22.8 Z M 105.8 52.7 L 103.9 49.6 L 101.7 46.6 L 99.3 43.6 L 96.7 40.7 L 93.8 37.8 L 90.6 34.9 L 87.3 32.0 L 83.6 29.2 L 84.4 27.6 L 88.9 29.2 L 93.2 30.9 L 97.3 32.9 L 101.2 35.2 L 104.8 37.7 L 108.2 40.4 L 111.4 43.4 L 114.4 46.5 L 117.1 49.9 L 119.6 53.5 L 119.9 58.0 L 117.1 61.6 L 112.5 62.0 L 109.0 59.1 L 107.5 55.9 Z " />
</g>
</svg>
