<svg xmlns="http://www.w3.org/2000/svg" xmlns:xlink="http://www.w3.org/1999/xlink" version="1.1" baseProfile="full" viewBox="0 0 200 200" width="200" height="200">
<g fill="black">
<path d="M 142.2 176.0 L 162.2 176.0 L 163.5 175.9 L 164.4 175.7 L 165.3 175.4 L 165.5 175.2 L 165.6 175.0 L 165.8 174.7 L 166.0 174.1 L 166.2 173.2 L 166.2 14.0 L 178.2 16.0 L 181.2 18.0 L 178.2 19.8 L 178.2 172.0 L 178.1 174.5 L 177.7 177.0 L 176.8 179.4 L 175.6 181.7 L 174.0 183.7 L 172.0 185.3 L 169.7 186.6 L 167.3 187.4 L 164.8 187.8 L 162.2 188.0 L 162.2 182.0 L 142.2 179.0 Z M 78.5 65.7 L 81.5 67.7 L 78.5 69.5 L 78.5 111.7 L 94.6 111.7 L 94.6 73.7 L 106.6 75.7 L 109.6 77.7 L 106.6 79.5 L 106.6 115.7 L 94.6 121.7 L 94.6 115.7 L 78.5 115.7 L 78.5 169.2 L 98.9 169.2 L 98.9 129.1 L 110.9 131.1 L 113.9 133.1 L 110.9 134.9 L 110.9 177.2 L 98.9 183.2 L 98.9 173.2 L 46.1 173.2 L 46.1 180.2 L 34.1 186.2 L 34.1 129.1 L 46.1 131.1 L 49.1 133.1 L 46.1 134.9 L 46.1 169.2 L 66.5 169.2 L 66.5 115.7 L 49.4 115.7 L 39.4 120.7 L 39.4 73.7 L 49.4 75.7 L 51.9 77.7 L 49.4 79.36666669845582 L 49.4 111.7 L 66.5 111.7 L 66.5 63.7 Z M 33.0 23.0 L 97.5 23.0 L 103.5 18.0 L 114.5 27.0 L 109.5 31.0 L 109.5 58.0 L 97.5 64.0 L 97.5 56.0 L 33.0 56.0 L 33.0 87.0 L 32.6 99.6 L 31.8 111.6 L 30.8 123.0 L 29.4 133.8 L 27.8 144.0 L 25.8 153.5 L 23.4 162.5 L 20.7 170.8 L 17.5 178.4 L 13.9 185.2 L 12.5 184.7 L 14.5 177.3 L 16.4 169.5 L 18.1 161.2 L 19.5 152.4 L 20.8 142.9 L 21.8 132.9 L 22.5 122.3 L 22.9 111.1 L 23.1 99.3 L 23.0 87.0 L 23.0 18.0 Z M 138.8 31.0 L 141.8 33.0 L 138.8 34.8 L 138.8 149.0 L 126.8 155.0 L 126.8 29.0 Z M 33.0 27.0 L 33.0 52.0 L 97.5 52.0 L 97.5 27.0 Z " />
</g>
</svg>
