<svg xmlns="http://www.w3.org/2000/svg" xmlns:xlink="http://www.w3.org/1999/xlink" version="1.1" baseProfile="full" viewBox="0 0 200 200" width="200" height="200">
<g fill="black">
<path d="M 140.7 176.0 L 160.7 176.0 L 162.0 175.9 L 162.9 175.7 L 163.8 175.4 L 164.0 175.2 L 164.1 175.0 L 164.3 174.7 L 164.5 174.1 L 164.7 173.2 L 164.7 14.0 L 176.7 16.0 L 179.7 18.0 L 176.7 19.8 L 176.7 172.0 L 176.6 174.5 L 176.2 177.0 L 175.3 179.4 L 174.1 181.7 L 172.5 183.7 L 170.5 185.3 L 168.2 186.6 L 165.8 187.4 L 163.3 187.8 L 160.7 188.0 L 160.7 182.0 L 140.7 179.0 Z M 105.4 145.6 L 107.4 145.6 L 105.4 170.6 L 109.0 173.0 L 111.4 176.6 L 109.0 180.2 L 105.4 182.6 L 84.6 182.6 L 82.1 182.4 L 79.6 182.0 L 77.2 181.2 L 74.9 179.9 L 72.9 178.3 L 71.2 176.3 L 70.0 174.0 L 69.2 171.6 L 68.8 169.1 L 68.6 166.6 L 68.6 133.9 L 53.409756088256835 133.9 L 59.3 136.0 L 61.8 138.5 L 58.27547464370728 139.80537977218628 L 57.2 143.8 L 54.5 151.1 L 51.4 157.8 L 47.7 163.9 L 43.5 169.4 L 38.7 174.3 L 33.5 178.4 L 27.8 181.8 L 21.7 184.4 L 15.1 186.1 L 14.5 184.4 L 20.0 181.0 L 24.9 177.3 L 29.3 173.3 L 33.3 169.0 L 36.7 164.3 L 39.7 159.1 L 42.3 153.5 L 44.5 147.5 L 46.2 140.9 L 47.334526443481444 134.7037404060364 L 47.3 134.7 L 47.44285717010498 133.9 L 14.2 133.9 L 14.2 129.9 L 88.0 129.9 L 98.0 119.9 L 110.0 129.9 L 110.0 133.9 L 80.6 133.9 L 80.6 166.6 L 80.7 167.8 L 80.9 168.7 L 81.0 169.3 L 81.2 169.6 L 81.6 170.0 L 82.5 170.3 L 83.4 170.5 L 84.6 170.6 L 99.4 170.6 Z M 136.6 31.0 L 139.6 33.0 L 136.6 34.8 L 136.6 149.0 L 124.6 155.0 L 124.6 29.0 Z M 14.3 111.4 L 18.8 110.2 L 23.5 108.9 L 28.3 107.7 L 33.3 106.5 L 33.3 88.3 L 16.5 88.3 L 16.5 84.3 L 33.3 84.3 L 33.3 65.0 L 45.3 67.0 L 48.3 69.0 L 45.3 70.8 L 45.3 84.3 L 49.9 84.3 L 54.4 78.3 L 60.4 84.3 L 60.4 88.3 L 45.3 88.3 L 45.3 103.725 L 49.5 102.9 L 55.3 101.8 L 61.3 100.8 L 67.5 100.0 L 68.0 101.8 L 62.4 104.4 L 56.8 106.9 L 51.4 109.2 L 46.2 111.3 L 41.1 113.3 L 36.2 115.3 L 31.4 117.2 L 26.9 119.1 L 22.5 120.9 L 22.082568836212157 121.07889909744263 L 21.1 124.9 L 18.3 122.7 L 12.4 112.0 Z M 58.7 111.5 L 77.2 111.5 L 77.2 88.3 L 66.1 88.3 L 66.1 84.3 L 77.2 84.3 L 77.2 65.0 L 89.2 67.0 L 92.2 69.0 L 89.2 70.8 L 89.2 84.3 L 91.1777777671814 84.3 L 97.4 77.3 L 105.4 84.3 L 105.4 88.3 L 89.2 88.3 L 89.2 111.5 L 91.21818180084229 111.5 L 99.4 102.5 L 109.4 111.5 L 109.4 115.5 L 58.7 115.5 Z M 17.6 57.2 L 55.5 57.2 L 55.5 38.9 L 25.0 38.9 L 25.0 34.9 L 55.5 34.9 L 55.5 15.5 L 67.5 17.5 L 70.5 19.5 L 67.5 21.3 L 67.5 34.9 L 76.0 34.9 L 86.0 24.9 L 98.0 34.9 L 98.0 38.9 L 67.5 38.9 L 67.5 57.2 L 87.21818180084229 57.2 L 95.4 48.2 L 105.4 57.2 L 105.4 61.2 L 17.6 61.2 Z " />
</g>
</svg>
