<svg xmlns="http://www.w3.org/2000/svg" xmlns:xlink="http://www.w3.org/1999/xlink" version="1.1" baseProfile="full" viewBox="0 0 200 200" width="200" height="200">
<g fill="black">
<path d="M 138.9 176.0 L 158.9 176.0 L 160.1 175.9 L 161.0 175.7 L 161.9 175.4 L 162.3 175.0 L 162.6 174.1 L 162.8 173.2 L 162.9 172.0 L 162.9 14.0 L 174.9 16.0 L 177.9 18.0 L 174.9 19.8 L 174.9 172.0 L 174.7 174.5 L 174.3 177.0 L 173.5 179.4 L 172.3 181.7 L 170.6 183.7 L 168.6 185.3 L 166.3 186.6 L 163.9 187.4 L 161.4 187.8 L 158.9 188.0 L 158.9 182.0 L 138.9 179.0 Z M 18.0 172.2 L 26.6 171.4 L 35.4 170.6 L 44.6 169.7 L 54.0 168.7 L 60.0 168.075 L 60.0 145.1 L 23.6 145.1 L 23.6 141.1 L 60.0 141.1 L 60.0 121.4 L 72.0 123.4 L 75.0 125.4 L 72.0 127.2 L 72.0 141.1 L 88.3 141.1 L 98.3 131.1 L 110.3 141.1 L 110.3 145.1 L 72.0 145.1 L 72.0 166.86000003814698 L 73.6 166.7 L 83.8 165.6 L 94.3 164.6 L 105.0 163.7 L 116.1 162.9 L 116.4 164.7 L 105.6 167.5 L 95.1 169.9 L 84.8 172.1 L 74.7 174.2 L 64.9 176.1 L 55.3 177.9 L 46.0 179.6 L 36.9 181.2 L 28.1 182.7 L 23.498949813842774 183.44900817871093 L 21.8 186.9 L 19.5 184.1 L 16.0 172.5 Z M 140.6 31.0 L 143.6 33.0 L 140.6 34.8 L 140.6 149.0 L 128.6 155.0 L 128.6 29.0 Z M 16.7 114.9 L 60.0 114.9 L 60.0 92.7 L 23.6 92.7 L 23.6 88.7 L 60.0 88.7 L 60.0 67.6 L 72.0 69.6 L 75.0 71.6 L 72.0 73.4 L 72.0 88.7 L 88.3 88.7 L 98.3 78.7 L 110.3 88.7 L 110.3 92.7 L 72.0 92.7 L 72.0 114.9 L 93.2 114.9 L 103.2 104.9 L 115.2 114.9 L 115.2 118.9 L 16.7 118.9 Z M 92.2 63.3 L 89.4 60.6 L 86.3 57.9 L 82.8 55.1 L 79.0 52.4 L 74.8 49.6 L 70.3 46.8 L 65.5 43.9 L 63.8032467842102 42.92110385894775 L 60.7 49.3 L 56.1 56.0 L 50.4 61.9 L 43.7 67.2 L 36.0 71.8 L 27.3 75.5 L 17.7 78.5 L 17.1 76.8 L 25.7 72.1 L 33.2 67.2 L 39.6 62.0 L 45.0 56.6 L 49.3 50.9 L 52.5 45.0 L 54.8 38.7 L 54.9880597114563 37.8 L 17.4 37.8 L 17.4 33.8 L 55.8238805770874 33.8 L 56.2 32.0 L 56.6 25.0 L 56.1 17.4 L 56.13730573654175 17.39689121246338 L 56.0 15.2 L 68.1 16.4 L 71.3 18.2 L 68.0544563293457 20.498926734924318 L 68.0 25.4 L 66.73023252487182 33.8 L 92.9 33.8 L 102.9 23.8 L 114.9 33.8 L 114.9 37.8 L 65.5455696105957 37.8 L 64.85758075714111 40.064630126953126 L 66.8 40.5 L 72.4 42.1 L 77.7 43.9 L 82.6 45.9 L 87.2 48.0 L 91.5 50.3 L 95.5 52.7 L 99.2 55.2 L 102.6 58.0 L 105.8 60.8 L 107.1 65.2 L 105.1 69.3 L 100.8 70.7 L 96.7 68.7 L 94.6 66.0 Z " />
</g>
</svg>
