<svg xmlns="http://www.w3.org/2000/svg" xmlns:xlink="http://www.w3.org/1999/xlink" version="1.1" baseProfile="full" viewBox="0 0 200 200" width="200" height="200">
<g fill="black">
<path d="M 28.0 176.2 L 42.0 176.2 L 43.2 176.1 L 44.1 175.9 L 44.7 175.8 L 45.0 175.6 L 45.4 175.2 L 45.7 174.3 L 45.9 173.4 L 46.0 172.2 L 46.0 112.5 L 14.0 112.5 L 14.0 108.5 L 56.49090909957886 108.5 L 53.4 106.8 L 52.2 104.9 L 50.8 102.9 L 49.2 100.9 L 47.3 98.9 L 45.2 96.9 L 42.8 94.8 L 40.1 92.8 L 37.2 90.7 L 34.1 88.6 L 30.6 86.8 L 31.2 85.1 L 35.1 86.1 L 38.9 86.8 L 42.6 87.9 L 46.0 89.0 L 49.3 90.4 L 52.4 91.9 L 54.69090909957886 93.20909090042115 L 55.2 92.7 L 57.8 89.8 L 60.3 87.0 L 62.8 84.3 L 65.2 81.7 L 67.6 79.2 L 69.8 76.7 L 70.16521739959717 76.3 L 19.0 76.3 L 19.0 72.3 L 73.7375 72.3 L 74.0 72.0 L 75.9 69.8 L 76.3744408607483 70.32129926681519 L 80.0 67.3 L 91.0 76.3 L 86.0 79.3 L 78.8 82.3 L 76.0 84.1 L 70.2 87.7 L 67.1 89.6 L 63.9 91.4 L 60.5 93.3 L 57.3037974357605 94.85244121551514 L 58.0 95.3 L 60.5 97.3 L 62.8 99.4 L 64.0 103.8 L 61.8 107.9 L 59.4 108.5 L 79.0 108.5 L 79.46666669845581 108.11111106872559 L 80.0 107.0 L 80.43564357757569 107.30363035202026 L 85.0 103.5 L 96.0 112.5 L 91.0 115.5 L 86.63773584365845 117.3176100730896 L 85.7 118.3 L 83.5 120.5 L 81.1 122.7 L 78.7 125.0 L 76.1 127.3 L 73.4 129.6 L 70.6 131.9 L 67.5 134.1 L 64.6 136.6 L 63.3 135.4 L 65.5 132.3 L 67.3 129.0 L 69.2 125.9 L 71.0 123.0 L 72.7 120.1 L 74.4 117.3 L 75.9 114.6 L 77.1115385055542 112.5 L 58.0 112.5 L 58.0 172.2 L 57.8 174.7 L 57.4 177.2 L 56.6 179.6 L 55.3 181.9 L 53.7 183.9 L 51.7 185.6 L 49.4 186.8 L 47.0 187.6 L 44.5 188.0 L 42.0 188.2 L 42.0 182.2 L 28.0 179.2 Z M 129.24181814193724 166.09090909957885 L 132.4 169.6 L 132.6 173.1 L 128.92361450195312 171.5626024246216 L 127.9 172.1 L 123.6 174.2 L 119.0 176.2 L 114.1 178.2 L 108.9 180.0 L 103.4 181.8 L 97.5 183.4 L 91.3 184.9 L 84.8 186.2 L 77.9 187.3 L 77.4 185.6 L 83.7 182.6 L 89.6 179.8 L 95.3 177.2 L 100.6 174.7 L 105.6 172.2 L 110.3 169.7 L 114.5 167.3 L 118.4 164.8 L 122.0 162.4 L 124.3096242904663 160.61190376281738 L 124.3 160.6 L 124.31026611328124 160.6114068031311 L 125.1 160.0 Z M 169.7 179.6 L 167.3 177.5 L 164.6 175.4 L 161.8 173.4 L 158.7 171.4 L 155.4 169.4 L 151.9 167.3 L 148.2 165.3 L 144.1 163.4 L 144.6 161.7 L 149.1 162.4 L 153.4 163.0 L 157.6 163.9 L 161.5 165.0 L 165.3 166.3 L 169.0 167.7 L 172.5 169.3 L 175.8 171.0 L 178.9 172.9 L 181.9 175.0 L 183.8 179.2 L 182.3 183.5 L 178.2 185.4 L 173.8 183.9 L 171.9 181.7 Z M 186.7 70.8 L 186.7 74.8 L 147.95714282989502 74.8 L 146.5 76.3 L 144.5 78.3 L 140.3 82.1 L 138.1 83.9 L 135.8 85.7 L 133.4 87.4 L 131.0 89.0 L 128.5 90.4 L 127.9214285850525 90.7 L 161.9 90.7 L 167.9 85.7 L 178.9 94.7 L 173.9 98.7 L 173.9 155.8 L 161.9 161.8 L 161.9 155.8 L 115.6 155.8 L 103.6 161.8 L 103.6 84.7 L 115.6 90.7 L 123.4380952835083 90.7 L 124.2 89.9 L 127.4 85.1 L 128.9 82.8 L 130.4 80.6 L 131.8 78.3 L 133.1 76.1 L 133.83478260040283 74.8 L 92.7 74.8 L 92.7 70.8 L 164.7 70.8 L 174.7 60.8 Z M 115.6 135.2 L 115.6 151.8 L 161.9 151.8 L 161.9 135.2 Z M 115.6 115.3 L 115.6 131.2 L 161.9 131.2 L 161.9 115.3 Z M 115.6 94.7 L 115.6 111.3 L 161.9 111.3 L 161.9 94.7 Z M 152.1 61.5 L 150.0 62.0 L 145.8 62.8 L 143.6 63.1 L 141.5 63.4 L 137.1 63.6 L 135.0 63.7 L 135.0 57.7 L 115.0 54.7 L 115.0 51.7 L 135.0 51.7 L 136.8 51.6 L 138.6 51.6 L 140.3 51.4 L 143.9 51.0 L 145.6 50.7 L 147.4 50.3 L 149.1 49.9 L 150.8 49.4 L 152.6 48.8 L 154.3 48.1 L 155.8 47.0 L 157.2 45.6 L 158.6 43.7 L 159.8 41.2 L 160.9 38.1 L 161.8 34.4 L 162.4 30.1 L 162.8 25.3 L 162.9259259223938 21.9 L 94.68260869979858 21.9 L 94.5 22.2 L 90.9 28.0 L 86.3 33.3 L 80.7 38.2 L 74.1 42.6 L 66.5 46.6 L 57.9 50.4 L 48.3 53.8 L 37.6 56.9 L 25.9 59.5 L 13.2 61.8 L 12.7 60.0 L 24.9 55.9 L 36.0 51.8 L 45.9 47.6 L 54.8 43.5 L 62.4 39.2 L 68.9 34.8 L 74.3 30.4 L 78.5 26.0 L 81.36046514511108 21.9 L 22.0 21.9 L 22.0 17.9 L 163.0 17.9 L 169.0 12.9 L 180.0 21.9 L 175.0 24.9 L 174.8309859275818 24.970422554016114 L 174.8 25.9 L 174.3 31.5 L 173.5 36.7 L 172.4 41.4 L 170.9 45.8 L 168.9 49.7 L 166.5 53.2 L 163.5 56.2 L 160.1 58.6 L 156.3 60.2 L 154.2 60.9 Z " />
</g>
</svg>
