<svg xmlns="http://www.w3.org/2000/svg" xmlns:xlink="http://www.w3.org/1999/xlink" version="1.1" baseProfile="full" viewBox="0 0 200 200" width="200" height="200">
<g fill="black">
<path d="M 141.2 32.7 L 141.2 28.7 L 153.7 28.7 L 153.7 11.7 L 165.7 13.7 L 168.7 15.7 L 165.7 17.5 L 165.7 28.7 L 168.37777776718139 28.7 L 174.6 21.7 L 182.6 28.7 L 182.6 32.7 L 165.7 32.7 L 165.7 33.4 L 165.1 40.7 L 164.0 47.6 L 163.775 48.5 L 167.71818180084227 48.5 L 175.9 39.5 L 185.9 48.5 L 185.9 52.5 L 162.775 52.5 L 162.75315313339235 52.58738737106323 L 163.9 54.7 L 166.2 57.9 L 168.4 61.0 L 170.6 63.7 L 172.9 66.3 L 175.2 68.6 L 177.6 70.7 L 180.1 72.5 L 182.7 74.2 L 185.3 75.7 L 188.7 78.1 L 177.7 86.5 L 174.8 83.8 L 172.2 80.9 L 169.8 77.8 L 167.7 74.6 L 165.8 71.2 L 164.1 67.6 L 162.7 63.8 L 161.7 59.9 L 161.18471612930298 57.259170341491696 L 160.2 59.9 L 157.5 65.2 L 154.2 69.9 L 150.4 74.1 L 146.1 77.5 L 145.21724138259887 77.97816095352172 L 147.5 79.5 L 144.5 81.3 L 144.5 91.5 L 164.4181818008423 91.5 L 172.6 82.5 L 182.6 91.5 L 182.6 95.5 L 144.5 95.5 L 144.5 106.0 L 161.3 106.0 L 167.3 101.0 L 178.3 110.0 L 173.3 114.0 L 173.3 147.3 L 161.3 153.3 L 161.3 147.3 L 144.5 147.3 L 144.5 160.4 L 163.3 160.4 L 173.3 150.4 L 185.3 160.4 L 185.3 164.4 L 144.5 164.4 L 144.5 182.1 L 132.5 188.1 L 132.5 164.4 L 91.6 164.4 L 91.6 160.4 L 132.5 160.4 L 132.5 147.3 L 115.6 147.3 L 103.6 153.3 L 103.6 100.0 L 115.6 106.0 L 132.5 106.0 L 132.5 95.5 L 94.3 95.5 L 94.3 91.5 L 132.5 91.5 L 132.5 77.51555557250977 L 129.3 77.8 L 125.7 74.9 L 125.2 73.0 L 124.6 71.2 L 123.8 69.4 L 122.9 67.6 L 121.9 65.8 L 120.7 64.0 L 119.4 62.2 L 118.0 60.4 L 116.74954490661621 58.915084552764895 L 116.0 61.3 L 113.2 67.8 L 109.9 73.9 L 106.0 79.5 L 101.6 84.5 L 96.6 88.9 L 91.1 92.6 L 89.9 91.2 L 93.9 86.2 L 97.4 81.1 L 100.5 75.9 L 103.2 70.4 L 105.4 64.6 L 107.1 58.5 L 108.31875 52.5 L 91.0 52.5 L 91.0 48.5 L 108.8235294342041 48.5 L 109.2 45.3 L 109.6 38.2 L 109.6 32.7 L 94.3 32.7 L 94.3 28.7 L 109.6 28.7 L 109.6 11.7 L 121.6 13.7 L 124.6 15.7 L 121.6 17.5 L 121.6 28.7 L 126.3 28.7 L 130.8 22.7 L 136.8 28.7 L 136.8 32.7 L 121.45365858078003 32.7 L 121.0 38.9 L 119.9 46.8 L 119.51466665267944 48.5 L 123.6777777671814 48.5 L 129.9 41.5 L 137.9 48.5 L 137.9 52.5 L 118.60799999237061 52.5 L 118.2 54.3 L 117.4926118850708 56.55078039169312 L 117.6 56.6 L 120.1 57.3 L 122.5 58.2 L 124.8 59.3 L 127.0 60.6 L 129.1 62.0 L 131.1 63.6 L 133.0 65.4 L 134.7 67.3 L 136.4 69.4 L 136.7 73.9 L 135.02552299499513 75.9209204673767 L 139.43688526153565 76.65614757537841 L 142.6 73.4 L 145.5 69.7 L 147.9 65.7 L 149.9 61.4 L 151.5 56.7 L 152.48823528289796 52.5 L 140.1 52.5 L 140.1 48.5 L 153.0875 48.5 L 153.4 46.0 L 153.8 39.9 L 153.7 33.4 L 153.7 32.7 Z M 79.9745964050293 66.02846221923828 L 76.8 71.0 L 71.1 78.8 L 65.1 85.9 L 58.6 92.4 L 51.7 98.4 L 49.955670070648196 99.68402061462402 L 60.6 102.3 L 63.5 104.4 L 60.20636110305786 106.20827236175538 L 59.2 116.2 L 57.5921875 126.0 L 76.0 126.0 L 82.0 121.0 L 93.0 130.0 L 88.0 133.0 L 88.0 134.4 L 87.9 140.5 L 87.7 146.2 L 87.4 151.5 L 86.9 156.4 L 86.3 160.9 L 85.5 165.1 L 84.6 168.9 L 83.5 172.3 L 82.3 175.5 L 81.1 177.7 L 79.7 179.7 L 78.1 181.6 L 76.3 183.3 L 74.3 184.8 L 72.2 185.9 L 69.9 186.8 L 67.5 187.5 L 65.1 187.8 L 62.6 188.0 L 62.6 182.0 L 44.6 179.0 L 44.6 176.0 L 62.6 176.0 L 63.9 175.9 L 65.1 175.7 L 66.2 175.4 L 67.1 175.1 L 68.7 174.1 L 69.4 173.4 L 70.1 172.6 L 70.8 171.6 L 71.4 170.3 L 72.2 168.3 L 73.0 165.7 L 73.8 162.6 L 74.4 159.0 L 75.0 155.0 L 75.4 150.5 L 75.7 145.6 L 75.9 140.2 L 76.0 134.3 L 76.0 130.0 L 56.85213670730591 130.0 L 54.2 140.7 L 50.6 151.2 L 46.2 160.6 L 41.0 168.7 L 35.1 175.6 L 28.4 181.2 L 21.1 185.2 L 13.2 187.8 L 12.6 186.1 L 19.2 181.9 L 25.0 177.0 L 30.2 171.2 L 34.7 164.5 L 38.6 156.8 L 41.8 148.0 L 44.5 138.2 L 45.97747745513916 130.0 L 19.5 130.0 L 19.5 126.0 L 46.62727270126343 126.0 L 47.9 115.0 L 48.64035873413086 102.59899101257324 L 48.6 102.6 L 48.725659656524655 100.58944492340088 L 44.5 103.7 L 36.9 108.3 L 28.9 112.2 L 20.5 115.4 L 11.8 117.8 L 11.2 116.1 L 19.0 111.9 L 26.4 107.5 L 33.4 102.7 L 40.0 97.6 L 46.2 92.0 L 52.0 85.9 L 57.4 79.4 L 62.5 72.4 L 67.2 64.9 L 71.05205039978027 57.82297716140747 L 71.0 57.8 L 72.1 56.0 L 80.46249675750732 61.60287284851074 L 79.3 57.4 L 77.8 53.0 L 76.3 48.7 L 74.7 44.6 L 73.1 40.7 L 71.4 36.9 L 69.6 33.3 L 67.9 29.7 L 66.0 26.3 L 67.3 25.1 L 70.5 27.6 L 73.7 30.4 L 76.6 33.5 L 79.4 37.0 L 82.0 40.7 L 84.5 44.7 L 86.9 49.0 L 89.2 53.5 L 91.3 58.3 L 93.4 63.3 L 92.9 67.8 L 89.5 70.8 L 84.9 70.4 L 81.9 66.9 L 81.64832744598388 65.97074737548829 Z M 115.6 128.4 L 115.6 143.3 L 132.5 143.3 L 132.5 128.4 Z M 144.5 128.4 L 144.5 143.3 L 161.3 143.3 L 161.3 128.4 Z M 115.6 110.0 L 115.6 124.4 L 132.5 124.4 L 132.5 110.0 Z M 144.5 110.0 L 144.5 124.4 L 161.3 124.4 L 161.3 110.0 Z M 41.4 31.5 L 43.8 34.2 L 40.15263156890869 35.24210529327392 L 39.5 37.2 L 37.3 42.7 L 35.0 48.2 L 32.5 53.6 L 29.9 58.9 L 27.0 64.1 L 23.9 69.2 L 20.7 74.1 L 17.1 78.9 L 13.2 83.4 L 11.6 82.5 L 13.8 77.0 L 15.9 71.5 L 18.1 66.2 L 20.1 60.8 L 22.1 55.5 L 23.9 50.1 L 25.6 44.7 L 27.2 39.3 L 28.6 33.8 L 29.66095037460327 29.31136360168457 L 29.6 29.3 L 30.3 26.7 Z M 27.9 71.0 L 41.9 71.0 L 43.1 70.9 L 44.0 70.7 L 44.6 70.5 L 45.0 70.4 L 45.1 70.2 L 45.3 70.0 L 45.5 69.7 L 45.7 69.1 L 45.8 68.2 L 45.9 67.0 L 45.9 13.0 L 57.9 15.0 L 60.9 17.0 L 57.9 18.8 L 57.9 67.0 L 57.8 69.5 L 57.3 72.0 L 56.5 74.4 L 55.3 76.7 L 53.6 78.7 L 51.6 80.3 L 49.4 81.6 L 46.9 82.4 L 44.5 82.8 L 41.9 83.0 L 41.9 77.0 L 27.9 74.0 Z " />
</g>
</svg>
