<svg xmlns="http://www.w3.org/2000/svg" xmlns:xlink="http://www.w3.org/1999/xlink" version="1.1" baseProfile="full" viewBox="0 0 200 200" width="200" height="200">
<g fill="black">
<path d="M 146.5 184.0 L 144.4 184.8 L 140.0 186.0 L 137.8 186.4 L 135.5 186.7 L 133.3 186.9 L 131.0 187.0 L 131.0 181.0 L 111.0 178.0 L 111.0 175.0 L 131.0 175.0 L 132.6 174.9 L 134.3 174.8 L 135.9 174.6 L 137.4 174.3 L 139.0 173.9 L 140.5 173.4 L 143.5 172.2 L 144.9 171.5 L 146.4 170.6 L 148.3 169.2 L 150.2 167.3 L 151.9 165.0 L 153.5 162.1 L 154.9 158.6 L 156.2 154.6 L 157.2 150.0 L 158.1 144.8 L 158.6 139.1 L 158.86031742095946 135.0 L 104.78018016815186 135.0 L 99.1 144.7 L 91.3 154.6 L 82.2 163.3 L 72.0 170.9 L 60.5 177.3 L 47.9 182.4 L 34.1 186.3 L 19.1 188.8 L 18.8 187.1 L 33.0 182.6 L 45.9 177.4 L 57.4 171.5 L 67.6 164.7 L 76.6 157.0 L 84.2 148.6 L 90.6 139.2 L 92.78235292434692 135.0 L 30.0 135.0 L 30.0 131.0 L 94.86078433990478 131.0 L 95.9 129.0 L 100.0 117.8 L 102.9 105.7 L 102.91366024017334 105.70291881561279 L 103.3 103.9 L 114.6 108.2 L 117.1 110.7 L 113.52474765777588 111.93508720397949 L 110.8 121.4 L 106.70819673538207 131.0 L 159.0 131.0 L 165.0 126.0 L 176.0 135.0 L 171.0 138.0 L 170.67790260314942 138.13420724868774 L 170.6 139.9 L 170.0 146.3 L 169.0 152.2 L 167.8 157.7 L 166.2 162.7 L 164.3 167.3 L 162.0 171.4 L 159.3 175.1 L 156.2 178.3 L 152.6 180.9 L 148.6 183.1 Z M 18.5 70.1 L 25.1 69.2 L 32.1 68.2 L 39.2 67.2 L 46.7 66.2 L 54.3 65.2 L 55.7 65.025 L 55.7 42.8 L 34.69487180709839 42.8 L 32.9 45.6 L 30.2 49.4 L 27.1 53.0 L 23.8 56.3 L 20.1 59.4 L 16.3 62.3 L 15.0 61.0 L 17.6 57.1 L 19.9 53.2 L 22.1 49.3 L 24.0 45.5 L 25.7 41.7 L 27.3 37.8 L 28.6 33.8 L 29.6 29.9 L 30.5 25.9 L 31.043084239959718 22.71907787322998 L 30.9 22.7 L 31.5 19.9 L 42.9 24.3 L 45.4 26.9 L 41.65221242904663 28.12654867172241 L 41.4 28.9 L 39.7 33.3 L 37.7 37.6 L 37.0268292427063 38.8 L 55.7 38.8 L 55.7 13.8 L 67.7 15.8 L 70.7 17.8 L 67.7 19.6 L 67.7 38.8 L 77.0 38.8 L 87.0 28.8 L 99.0 38.8 L 99.0 42.8 L 67.7 42.8 L 67.7 63.54146337509155 L 70.5 63.2 L 79.0 62.2 L 87.8 61.4 L 96.9 60.7 L 97.2 62.5 L 88.5 65.1 L 80.0 67.5 L 71.7 69.7 L 67.7 70.7 L 67.7 101.3 L 55.7 107.3 L 55.7 73.64799995422364 L 48.4 75.4 L 41.1 77.1 L 34.0 78.8 L 27.2 80.4 L 24.694056892395018 80.97829456329346 L 23.2 84.5 L 20.7 81.9 L 16.5 70.5 Z M 168.4 100.9 L 166.4 102.2 L 164.3 103.3 L 162.2 104.2 L 160.0 105.0 L 157.7 105.6 L 155.4 106.0 L 153.1 106.3 L 150.7 106.4 L 150.7 100.4 L 132.7 97.4 L 132.7 94.4 L 150.7 94.4 L 153.7 94.2 L 155.1 93.9 L 156.5 93.5 L 157.8 93.1 L 159.0 92.5 L 160.3 91.8 L 161.5 91.1 L 162.7 90.2 L 163.9 89.0 L 164.6 87.4 L 165.4 84.6 L 166.3 80.7 L 167.1 75.9 L 167.8 70.0 L 168.5 63.3 L 169.0 55.6 L 169.5 47.0 L 169.88297872543336 39.8 L 161.54725275039672 39.8 L 159.5 47.9 L 156.3 56.5 L 152.3 64.4 L 147.5 71.7 L 141.9 78.4 L 135.6 84.4 L 128.4 89.7 L 120.6 94.3 L 112.0 98.2 L 102.7 101.2 L 102.1 99.5 L 110.3 94.8 L 117.8 89.8 L 124.5 84.5 L 130.4 78.9 L 135.5 72.9 L 139.8 66.5 L 143.4 59.8 L 146.3 52.6 L 148.5 44.9 L 149.43380279541014 39.8 L 135.74666662216185 39.8 L 134.1 45.0 L 131.7 50.6 L 128.8 56.0 L 125.3 61.1 L 121.2 65.9 L 116.7 70.5 L 111.6 74.6 L 106.1 78.5 L 99.9 82.0 L 93.3 85.0 L 92.4 83.4 L 97.8 78.8 L 102.8 74.3 L 107.2 69.8 L 111.2 65.2 L 114.6 60.6 L 117.5 56.0 L 119.9 51.3 L 121.8 46.5 L 123.3 41.6 L 123.58421049118041 39.8 L 113.0 39.8 L 111.2 42.5 L 108.0 46.5 L 104.4 50.2 L 100.5 53.5 L 96.1 56.5 L 91.5 59.2 L 90.4 57.8 L 93.8 53.8 L 96.8 49.9 L 99.5 46.0 L 102.0 42.1 L 104.0 38.1 L 105.8 34.1 L 107.2 30.0 L 108.4 25.9 L 109.2 21.6 L 109.58571424484253 18.205714321136476 L 109.5 18.2 L 110.0 15.2 L 121.5 19.0 L 124.2 21.4 L 120.50673570632935 22.973056983947753 L 120.2 24.2 L 118.5 29.1 L 116.5 33.8 L 115.38888893127441 35.8 L 170.0 35.8 L 176.0 30.8 L 187.0 39.8 L 182.0 42.8 L 181.69685316085815 42.92631120681763 L 181.5 47.7 L 181.0 56.4 L 180.4 64.3 L 179.7 71.4 L 178.9 77.6 L 178.0 82.9 L 177.0 87.6 L 175.9 91.5 L 174.4 94.8 L 172.1 97.9 L 170.3 99.5 Z " />
</g>
</svg>
