<svg xmlns="http://www.w3.org/2000/svg" xmlns:xlink="http://www.w3.org/1999/xlink" version="1.1" baseProfile="full" viewBox="0 0 200 200" width="200" height="200">
<g fill="black">
<path d="M 158.3 184.1 L 156.2 185.1 L 154.0 186.0 L 151.8 186.7 L 149.6 187.2 L 147.3 187.6 L 145.0 187.9 L 142.6 187.9 L 142.6 181.9 L 122.6 178.9 L 122.6 175.9 L 144.2 175.9 L 147.2 175.5 L 150.0 174.7 L 151.3 174.2 L 152.7 173.5 L 153.9 172.8 L 155.2 171.9 L 156.5 170.9 L 157.4 169.9 L 158.6 167.9 L 159.9 164.9 L 161.1 160.9 L 162.1 156.0 L 163.0 150.2 L 163.7 143.6 L 164.2 136.1 L 164.5 127.8 L 164.5782608985901 120.6 L 133.189719581604 120.6 L 132.5 128.8 L 130.4 138.9 L 127.0 148.1 L 122.4 156.6 L 116.6 164.1 L 109.7 170.8 L 101.7 176.5 L 92.6 181.2 L 82.5 185.0 L 71.3 187.8 L 70.8 186.0 L 81.1 181.5 L 90.1 176.5 L 98.0 171.1 L 104.6 165.2 L 110.1 158.7 L 114.4 151.8 L 117.7 144.4 L 120.0 136.3 L 121.2 127.5 L 121.34680852890014 120.6 L 87.9 120.6 L 87.9 116.6 L 121.4 116.6 L 121.4 92.3 L 133.4 94.3 L 136.4 96.3 L 133.4 98.1 L 133.4 116.6 L 164.6 116.6 L 170.6 111.6 L 181.6 120.6 L 176.6 123.6 L 176.547136592865 123.62202644348145 L 176.5 128.1 L 176.1 136.7 L 175.6 144.6 L 174.9 151.8 L 173.9 158.2 L 172.7 163.9 L 171.2 168.9 L 169.4 173.3 L 167.1 177.0 L 164.1 180.2 L 160.3 183.0 Z M 19.5 163.5 L 25.6 162.7 L 32.0 161.9 L 38.7 161.1 L 45.0 160.28999996185303 L 45.0 112.8 L 20.6 112.8 L 20.6 108.8 L 66.0 108.8 L 76.0 98.8 L 88.0 108.8 L 88.0 112.8 L 57.0 112.8 L 57.0 158.77368421554564 L 60.6 158.3 L 68.5 157.4 L 76.8 156.5 L 85.4 155.7 L 94.3 155.0 L 94.6 156.8 L 86.1 159.4 L 77.8 161.8 L 69.7 163.9 L 62.0 165.8 L 54.5 167.6 L 47.3 169.3 L 40.4 171.0 L 33.9 172.5 L 27.6 174.0 L 25.625676822662353 174.42777004241944 L 24.1 177.9 L 21.6 175.3 L 17.5 163.9 Z M 92.18822832107544 15.552725315093994 L 102.0 23.7 L 102.3 26.8 L 98.03396224975586 24.817193698883056 L 94.9 25.7 L 90.0 26.7 L 85.0 27.6 L 79.8 28.4 L 74.5 29.2 L 69.0 29.9 L 63.5 30.5 L 57.8 31.0 L 52.0 31.4 L 46.0 31.5 L 45.8 31.496721267700195 L 45.8 52.1 L 70.4 52.1 L 80.4 42.1 L 92.4 52.1 L 92.4 56.1 L 45.8 56.1 L 45.8 78.5 L 70.4 78.5 L 80.4 68.5 L 92.4 78.5 L 92.4 82.5 L 45.8 82.5 L 45.8 94.5 L 33.8 100.5 L 33.8 22.5 L 44.821276569366454 28.010638332366945 L 45.5 27.8 L 51.1 26.1 L 56.7 24.6 L 62.1 23.1 L 67.4 21.6 L 77.6 18.6 L 82.4 17.2 L 87.2 15.6 L 90.80846376419068 14.42332706451416 L 90.8 14.4 L 90.82255792617798 14.418731117248536 L 91.8 14.1 Z M 171.1 31.3 L 166.1 35.3 L 166.1 88.5 L 154.1 94.5 L 154.1 82.5 L 107.5 82.5 L 107.5 78.5 L 154.1 78.5 L 154.1 56.1 L 107.5 56.1 L 107.5 52.1 L 154.1 52.1 L 154.1 31.3 L 107.5 31.3 L 107.5 27.3 L 154.1 27.3 L 160.1 22.3 Z " />
</g>
</svg>
