<svg xmlns="http://www.w3.org/2000/svg" xmlns:xlink="http://www.w3.org/1999/xlink" version="1.1" baseProfile="full" viewBox="0 0 200 200" width="200" height="200">
<g fill="black">
<path d="M 92.4 177.0 L 104.0 177.0 L 104.6 176.9 L 105.1 176.8 L 105.3 176.7 L 105.4 176.6 L 105.6 176.5 L 105.8 176.1 L 106.0 175.5 L 106.2 174.6 L 106.4 173.4 L 106.5 172.0 L 106.5 14.0 L 116.5 16.0 L 119.0 18.0 L 116.5 19.66666669845581 L 116.5 172.0 L 116.4 174.3 L 116.1 176.5 L 115.5 178.6 L 114.7 180.6 L 113.6 182.5 L 112.1 184.1 L 110.3 185.4 L 108.2 186.3 L 106.1 186.8 L 104.0 187.0 L 104.0 182.0 L 92.4 179.5 Z M 27.0 181.1 L 16.0 186.6 L 16.0 102.2 L 27.0 107.7 L 63.4 107.7 L 68.4 102.7 L 78.4 111.7 L 73.4 114.7 L 73.4 178.1 L 63.4 183.1 L 63.4 174.1 L 27.0 174.1 Z M 136.5 181.1 L 126.5 186.1 L 126.5 102.7 L 136.5 107.7 L 172.9 107.7 L 178.4 102.7 L 188.9 111.7 L 183.9 115.2 L 183.9 178.1 L 172.9 183.6 L 172.9 174.1 L 136.5 174.1 Z M 136.5 142.4 L 136.5 170.1 L 150.0 170.1 L 150.0 142.4 Z M 160.0 142.4 L 160.0 170.1 L 172.9 170.1 L 172.9 142.4 Z M 27.0 142.4 L 27.0 170.1 L 40.0 170.1 L 40.0 142.4 Z M 50.0 142.4 L 50.0 170.1 L 63.4 170.1 L 63.4 142.4 Z M 92.5 31.0 L 94.7 33.0 L 92.5 34.57142858505249 L 92.5 149.7 L 83.5 154.2 L 83.5 29.0 Z M 136.5 111.7 L 136.5 138.4 L 150.0 138.4 L 150.0 111.7 Z M 160.0 111.7 L 160.0 138.4 L 172.9 138.4 L 172.9 111.7 Z M 27.0 111.7 L 27.0 138.4 L 40.0 138.4 L 40.0 111.7 Z M 50.0 111.7 L 50.0 138.4 L 63.4 138.4 L 63.4 111.7 Z M 141.9 49.8 L 168.0 49.8 L 174.0 44.8 L 185.0 53.8 L 180.0 57.8 L 180.0 90.2 L 168.0 96.2 L 168.0 86.2 L 141.9 86.2 L 141.9 93.2 L 129.9 99.2 L 129.9 43.8 Z M 31.9 49.8 L 58.5 49.8 L 64.0 44.8 L 74.5 53.8 L 69.5 57.3 L 69.5 90.2 L 58.5 95.7 L 58.5 86.2 L 31.9 86.2 L 31.9 93.2 L 19.9 99.2 L 19.9 43.8 Z M 141.9 53.8 L 141.9 82.2 L 168.0 82.2 L 168.0 53.8 Z M 31.9 53.8 L 31.9 82.2 L 58.5 82.2 L 58.5 53.8 Z M 75.7 26.0 L 75.7 30.0 L 14.2 30.0 L 14.2 26.0 L 53.7 26.0 L 63.7 16.0 Z M 185.7 26.0 L 185.7 30.0 L 124.2 30.0 L 124.2 26.0 L 163.7 26.0 L 173.7 16.0 Z " />
</g>
</svg>
