<svg xmlns="http://www.w3.org/2000/svg" xmlns:xlink="http://www.w3.org/1999/xlink" version="1.1" baseProfile="full" viewBox="0 0 200 200" width="200" height="200">
<g fill="black">
<path d="M 159.4 182.0 L 157.4 183.4 L 155.4 184.6 L 153.3 185.6 L 151.1 186.4 L 148.8 187.0 L 146.5 187.5 L 144.1 187.8 L 141.7 187.9 L 141.7 181.9 L 121.7 178.9 L 121.7 175.9 L 141.7 175.9 L 143.2 175.8 L 144.7 175.6 L 146.0 175.4 L 147.3 175.0 L 148.6 174.5 L 149.8 174.0 L 151.0 173.3 L 152.1 172.5 L 153.2 171.6 L 154.3 170.5 L 157.1 166.7 L 159.9 160.8 L 162.6 152.9 L 164.9 143.0 L 166.8 131.2 L 168.4 117.5 L 169.6 102.0 L 170.4 84.6 L 170.8 65.3 L 170.8 46.2 L 58.65 46.2 L 53.8 55.9 L 48.3 65.5 L 45.6638298034668 69.7 L 69.5 69.7 L 69.5 55.3 L 81.5 57.3 L 84.5 59.3 L 81.5 61.1 L 81.5 69.7 L 117.1 69.7 L 117.1 55.3 L 129.1 57.3 L 132.1 59.3 L 129.1 61.1 L 129.1 69.7 L 135.4 69.7 L 145.4 59.7 L 157.4 69.7 L 157.4 73.7 L 129.1 73.7 L 129.1 100.4 L 117.1 106.4 L 117.1 98.4 L 95.91499996185303 98.4 L 106.2 100.1 L 109.2 102.1 L 105.93136425018311 104.1679123878479 L 105.5 110.7 L 103.6 120.6 L 100.4 129.7 L 96.0 138.0 L 95.93375883102416 138.08599729537963 L 100.3 138.7 L 106.4 139.8 L 112.3 141.3 L 118.0 143.1 L 123.5 145.0 L 128.8 147.1 L 133.9 149.4 L 138.7 151.9 L 143.4 154.5 L 147.9 157.3 L 150.2 161.2 L 149.1 165.7 L 145.2 168.0 L 140.7 166.9 L 137.0 163.9 L 133.1 161.0 L 129.0 158.2 L 124.6 155.4 L 119.9 152.7 L 115.1 150.1 L 110.0 147.5 L 104.7 144.9 L 99.2 142.3 L 94.45302305221557 140.00835599899293 L 90.3 145.4 L 83.4 151.9 L 75.4 157.4 L 66.4 162.0 L 56.2 165.6 L 45.0 168.2 L 44.6 166.4 L 54.9 162.0 L 63.9 157.2 L 71.8 151.9 L 78.3 146.2 L 83.7 140.0 L 87.9 133.3 L 91.1 126.0 L 93.2 118.2 L 94.2 109.7 L 94.2 101.5 L 94.10882349014283 98.4 L 81.5 98.4 L 69.5 104.4 L 69.5 73.7 L 43.3 73.7 L 43.3 73.46610174179077 L 42.4 74.9 L 36.1 84.1 L 29.2 93.1 L 21.7 101.8 L 13.7 110.1 L 12.3 108.9 L 18.7 99.4 L 24.8 90.0 L 30.6 80.5 L 35.9 71.0 L 40.9 61.5 L 45.4 51.8 L 49.5 42.1 L 53.2 32.3 L 56.4 22.4 L 59.2 12.3 L 59.26430549621582 12.31829376220703 L 59.7 10.7 L 70.8 15.6 L 73.1 18.4 L 69.49666919708253 19.36517791748047 L 67.2 26.0 L 63.2 36.2 L 60.47272729873657 42.2 L 170.8 42.2 L 176.8 37.2 L 187.8 46.2 L 182.8 49.2 L 182.8 65.4 L 182.4 85.0 L 181.6 102.7 L 180.4 118.7 L 178.7 132.9 L 176.7 145.4 L 174.1 156.2 L 171.1 165.3 L 167.4 172.8 L 163.0 178.8 L 161.2 180.5 Z M 53.3 138.7 L 51.9 134.3 L 53.9 130.2 L 56.1 128.8 L 58.0 127.3 L 59.6 125.8 L 61.0 124.4 L 62.2 122.8 L 63.2 121.2 L 64.0 119.4 L 64.6 117.4 L 65.0 115.2 L 64.6 112.9 L 66.2 112.2 L 67.2 114.6 L 68.4 117.0 L 69.1 119.6 L 69.4 122.4 L 69.2 125.2 L 68.5 128.1 L 67.4 130.9 L 65.9 133.8 L 64.1 136.5 L 61.8 139.3 L 57.5 140.7 Z M 145.3 113.7 L 146.4 117.1 L 142.14718494415283 116.5134048461914 L 140.2 118.1 L 137.4 120.3 L 134.5 122.3 L 131.3 124.4 L 128.0 126.3 L 124.4 128.1 L 120.7 129.9 L 116.8 131.5 L 112.8 133.2 L 111.8 131.7 L 115.2 129.0 L 118.3 126.1 L 121.1 123.4 L 123.9 120.8 L 126.4 118.2 L 128.7 115.7 L 130.9 113.2 L 132.8 110.8 L 134.5 108.4 L 135.5137930870056 106.87931032180786 L 135.4 106.8 L 136.5 105.5 Z M 81.5 73.7 L 81.5 94.4 L 117.1 94.4 L 117.1 73.7 Z " />
</g>
</svg>
