<svg xmlns="http://www.w3.org/2000/svg" xmlns:xlink="http://www.w3.org/1999/xlink" version="1.1" baseProfile="full" viewBox="0 0 200 200" width="200" height="200">
<g fill="black">
<path d="M 139.4 176.1 L 159.4 176.1 L 160.7 176.0 L 161.6 175.8 L 162.5 175.5 L 162.7 175.3 L 162.8 175.1 L 163.0 174.8 L 163.2 174.2 L 163.4 173.3 L 163.4 89.2 L 175.4 91.2 L 178.4 93.2 L 175.4 95.0 L 175.4 172.1 L 175.3 174.6 L 174.8 177.1 L 174.0 179.5 L 172.8 181.8 L 171.2 183.8 L 169.2 185.4 L 166.9 186.7 L 164.5 187.5 L 162.0 187.9 L 159.4 188.1 L 159.4 182.1 L 139.4 179.1 Z M 50.8 167.3 L 51.7 170.8 L 47.62803430557251 170.01418209075928 L 45.3 171.7 L 42.2 173.8 L 38.8 175.7 L 35.2 177.6 L 31.3 179.5 L 27.1 181.2 L 22.6 182.8 L 17.9 184.3 L 12.9 185.8 L 12.2 184.2 L 16.5 181.4 L 20.5 178.6 L 24.2 175.9 L 27.7 173.4 L 30.8 170.9 L 33.7 168.4 L 36.2 166.0 L 38.4 163.7 L 40.3 161.5 L 41.2764705657959 160.15735292434692 L 41.2 160.1 L 42.2 158.9 Z M 84.8 176.4 L 83.4 174.8 L 81.8 173.2 L 80.0 171.5 L 77.8 169.8 L 75.4 168.0 L 72.7 166.2 L 69.8 164.3 L 66.5 162.7 L 67.1 161.0 L 70.7 161.9 L 74.2 162.5 L 77.5 163.2 L 80.7 164.0 L 83.6 165.0 L 86.3 166.0 L 88.9 167.1 L 91.3 168.4 L 93.5 169.8 L 95.6 171.3 L 97.0 175.7 L 95.0 179.8 L 90.6 181.2 L 86.5 179.2 L 85.8 177.8 Z M 132.0 99.5 L 135.0 101.5 L 132.0 103.3 L 132.0 162.6 L 120.0 168.6 L 120.0 97.5 Z M 35.3 96.3 L 79.7 96.3 L 85.7 91.3 L 96.7 100.3 L 91.7 104.3 L 91.7 157.7 L 79.7 163.7 L 79.7 157.7 L 35.3 157.7 L 23.3 163.7 L 23.3 90.3 Z M 35.3 137.7 L 35.3 153.7 L 79.7 153.7 L 79.7 137.7 Z M 35.3 119.0 L 35.3 133.7 L 79.7 133.7 L 79.7 119.0 Z M 35.3 100.3 L 35.3 115.0 L 79.7 115.0 L 79.7 100.3 Z M 158.5 81.9 L 149.3 76.7 L 141.2 70.8 L 140.13909378051758 69.82750263214112 L 134.8 72.9 L 123.0 78.1 L 109.9 82.4 L 95.6 85.8 L 80.2 88.2 L 79.8 86.4 L 94.7 82.1 L 108.2 77.3 L 120.4 72.1 L 131.1 66.3 L 134.07857933044434 64.27203111648559 L 134.0 64.2 L 128.0 57.0 L 123.0 49.2 L 119.2 40.9 L 116.6 32.0 L 115.5021276473999 23.4 L 100.6777777671814 23.4 L 101.9 24.5 L 101.9 28.5 L 67.0 28.5 L 67.0 39.4 L 80.2 39.4 L 86.2 34.4 L 97.2 43.4 L 92.2 46.4 L 89.87953891754151 47.36685876846313 L 88.4 50.5 L 83.8 57.1 L 78.3 63.1 L 71.7 68.5 L 64.2 73.2 L 55.8 77.4 L 46.5 81.0 L 36.2 84.1 L 25.0 86.4 L 12.8 88.2 L 12.5 86.4 L 24.1 82.8 L 34.6 78.9 L 44.1 74.9 L 52.5 70.6 L 59.8 66.0 L 66.0 61.2 L 71.1 56.1 L 75.2 50.8 L 78.3 45.2 L 78.98275861740112 43.4 L 41.2027027130127 43.4 L 41.1 43.6 L 38.8 47.0 L 36.1 50.1 L 35.463720893859865 50.71506977081299 L 38.7 50.9 L 41.8 51.3 L 44.8 51.7 L 47.5 52.3 L 50.0 52.9 L 52.3 53.6 L 54.5 54.5 L 56.5 55.6 L 58.4 56.9 L 59.7 61.3 L 57.6 65.4 L 53.2 66.6 L 49.2 64.5 L 49.0 63.8 L 48.5 62.8 L 47.5 61.6 L 46.2 60.3 L 44.5 59.0 L 42.5 57.6 L 40.2 56.1 L 37.5 54.6 L 34.6 53.0 L 33.510022735595705 52.60364465713501 L 33.1 53.0 L 29.7 55.5 L 26.0 57.8 L 22.0 59.8 L 17.6 61.4 L 13.0 63.0 L 12.3 61.4 L 16.2 58.8 L 19.5 55.9 L 22.5 53.1 L 25.1 50.3 L 27.3 47.5 L 29.1 44.7 L 30.5 41.9 L 31.6 39.1 L 32.4 36.2 L 32.66999998092651 34.310000038146974 L 32.6 34.3 L 33.2 31.6 L 44.5 36.0 L 47.0 38.7 L 44.861111068725585 39.4 L 55.0 39.4 L 55.0 12.3 L 67.0 14.3 L 70.0 16.3 L 67.0 18.1 L 67.0 24.5 L 83.71818180084229 24.5 L 91.9 15.5 L 99.8 22.61000003814697 L 99.8 19.4 L 167.7 19.4 L 173.7 14.4 L 184.7 23.4 L 179.7 26.4 L 177.92218008041382 27.140758323669434 L 175.4 33.6 L 169.8 43.2 L 163.0 52.0 L 154.8 59.9 L 149.39460706710815 63.8677885055542 L 154.9 67.2 L 163.4 71.2 L 172.9 74.6 L 183.2 77.5 L 191.4 79.8 L 179.7 90.2 L 168.6 86.4 Z M 117.68000001907349 23.4 L 120.6 30.7 L 124.6 38.4 L 129.1 45.4 L 134.4 51.7 L 140.4 57.5 L 141.9620445251465 58.65455465316772 L 148.6 53.0 L 155.3 45.5 L 160.8 37.5 L 165.0 28.9 L 166.79347829818727 23.4 Z " />
</g>
</svg>
