<svg xmlns="http://www.w3.org/2000/svg" xmlns:xlink="http://www.w3.org/1999/xlink" version="1.1" baseProfile="full" viewBox="0 0 200 200" width="200" height="200">
<g fill="black">
<path d="M 41.5 145.3 L 79.6 145.3 L 85.6 140.3 L 96.6 149.3 L 91.6 153.3 L 91.6 179.0 L 79.6 185.0 L 79.6 179.0 L 41.5 179.0 L 41.5 182.0 L 29.5 188.0 L 29.5 139.3 Z M 158.7 181.8 L 156.8 183.3 L 154.8 184.5 L 152.7 185.6 L 150.5 186.4 L 148.2 187.1 L 145.9 187.6 L 143.5 187.8 L 141.1 187.9 L 141.1 181.9 L 121.1 178.9 L 121.1 175.9 L 142.6 175.9 L 144.0 175.7 L 146.6 175.1 L 147.8 174.6 L 148.9 174.0 L 150.1 173.3 L 151.2 172.5 L 152.2 171.6 L 153.3 170.5 L 153.7 169.8 L 154.4 168.0 L 155.3 165.0 L 156.1 161.0 L 156.8 156.1 L 157.3 150.3 L 157.8 143.7 L 158.1 136.2 L 158.3 127.8 L 158.3782608985901 120.6 L 138.23490562438965 120.6 L 137.7 128.7 L 136.0 138.5 L 133.5 147.7 L 130.0 156.1 L 125.6 163.6 L 120.4 170.4 L 114.2 176.2 L 107.3 181.0 L 99.5 184.9 L 91.1 187.7 L 90.4 186.1 L 97.7 181.6 L 104.2 176.7 L 109.7 171.4 L 114.5 165.6 L 118.4 159.2 L 121.5 152.3 L 123.9 144.8 L 125.5 136.6 L 126.3 127.7 L 126.37395830154419 120.6 L 103.1 120.6 L 103.1 116.6 L 126.4 116.6 L 126.4 92.3 L 138.4 94.3 L 141.4 96.3 L 138.4 98.1 L 138.4 116.6 L 158.4 116.6 L 164.4 111.6 L 175.4 120.6 L 170.4 123.6 L 170.34657163619994 123.62226181030273 L 170.3 128.0 L 170.1 136.6 L 169.8 144.3 L 169.3 151.3 L 168.7 157.5 L 167.9 163.0 L 167.0 167.7 L 165.8 171.8 L 164.3 175.4 L 162.2 178.5 L 160.5 180.2 Z M 41.5 149.3 L 41.5 175.0 L 79.6 175.0 L 79.6 149.3 Z M 157.8 97.5 L 149.4 92.9 L 141.7 87.9 L 134.8 82.5 L 128.6 76.9 L 123.2 71.0 L 122.7 70.3 L 79.05106382369995 70.3 L 77.2 72.3 L 67.2 80.9 L 55.7 88.6 L 43.0 95.4 L 32.65084743499756 99.7 L 83.6 99.7 L 89.6 94.7 L 100.6 103.7 L 95.6 106.7 L 95.48077754974365 106.74967603683471 L 95.4 109.9 L 95.2 113.6 L 94.9 116.9 L 94.5 119.9 L 94.0 122.7 L 93.4 125.2 L 92.6 127.6 L 91.6 129.7 L 90.2 131.8 L 88.5 133.6 L 86.8 135.2 L 84.9 136.7 L 82.9 138.0 L 80.8 139.1 L 78.6 140.0 L 76.3 140.7 L 74.0 141.2 L 71.6 141.4 L 69.1 141.5 L 69.1 135.5 L 51.1 132.5 L 51.1 129.5 L 70.6 129.5 L 72.0 129.3 L 74.6 128.7 L 75.7 128.2 L 76.9 127.6 L 77.9 126.9 L 79.0 126.1 L 80.0 125.1 L 81.0 124.0 L 81.1 123.9 L 81.4 123.2 L 81.9 122.0 L 82.3 120.3 L 82.6 118.1 L 83.0 115.6 L 83.2 112.7 L 83.4 109.4 L 83.5 105.7 L 83.55 103.7 L 62.425 103.7 L 61.6 108.2 L 59.7 113.7 L 57.3 118.8 L 54.2 123.3 L 50.6 127.3 L 46.3 130.8 L 41.6 133.6 L 36.4 135.9 L 30.7 137.5 L 24.6 138.5 L 24.1 136.7 L 29.4 134.0 L 34.1 131.2 L 38.1 128.2 L 41.5 125.0 L 44.3 121.7 L 46.6 118.2 L 48.3 114.4 L 49.6 110.3 L 50.4 105.9 L 50.55714282989502 103.7 L 30.7 103.7 L 30.7 100.51056337356567 L 28.8 101.3 L 13.2 106.2 L 12.7 104.5 L 27.3 97.8 L 40.5 90.7 L 52.1 83.1 L 62.4 75.0 L 67.15465116500854 70.3 L 15.0 70.3 L 15.0 66.3 L 71.18021974563598 66.3 L 78.4 57.3 L 81.56288661956788 52.1 L 34.0 52.1 L 34.0 48.1 L 83.99587631225586 48.1 L 84.3 47.6 L 88.8 37.5 L 89.86666669845582 33.9 L 27.0 33.9 L 27.0 29.9 L 91.05185184478759 29.9 L 92.0 26.7 L 93.73310537338257 16.301367950439452 L 93.7 16.3 L 94.1 13.2 L 105.8 16.8 L 108.5 19.2 L 104.96348609924317 20.734713554382324 L 103.1 29.5 L 102.95666666030884 29.9 L 151.0 29.9 L 161.0 19.9 L 173.0 29.9 L 173.0 33.9 L 101.52333335876465 33.9 L 98.8 41.5 L 95.41081085205079 48.1 L 147.8181818008423 48.1 L 156.0 39.1 L 166.0 48.1 L 166.0 52.1 L 115.50370368957519 52.1 L 118.6 55.9 L 123.3 61.1 L 128.4 66.0 L 128.7717391014099 66.3 L 166.8181818008423 66.3 L 175.0 57.3 L 185.0 66.3 L 185.0 70.3 L 133.7282608985901 70.3 L 134.1 70.6 L 140.3 75.1 L 147.2 79.2 L 154.7 83.2 L 162.8 86.9 L 171.6 90.3 L 181.1 93.5 L 188.3 96.0 L 176.8 106.0 L 166.9 101.9 Z M 93.35675678253173 52.1 L 93.1 52.6 L 85.9 62.9 L 82.75319147109985 66.3 L 119.84285717010498 66.3 L 118.7 64.7 L 115.1 58.2 L 112.88985509872437 52.1 Z " />
</g>
</svg>
