<svg xmlns="http://www.w3.org/2000/svg" xmlns:xlink="http://www.w3.org/1999/xlink" version="1.1" baseProfile="full" viewBox="0 0 200 200" width="200" height="200">
<g fill="black">
<path d="M 132.2 130.6 L 131.47608699798585 138.0 L 152.5 138.0 L 152.5 104.7 L 164.5 106.7 L 167.5 108.7 L 164.5 110.5 L 164.5 138.0 L 171.4181818008423 138.0 L 179.6 129.0 L 189.6 138.0 L 189.6 142.0 L 164.5 142.0 L 164.5 182.8 L 152.5 188.8 L 152.5 142.0 L 130.94186048507692 142.0 L 129.9 148.4 L 128.1 156.2 L 125.8 163.3 L 123.1 169.8 L 119.9 175.4 L 116.3 180.3 L 112.3 184.3 L 107.7 187.3 L 102.9 189.2 L 102.1 187.6 L 105.4 184.2 L 108.4 180.6 L 111.0 176.4 L 113.3 171.8 L 115.2 166.5 L 116.9 160.6 L 118.3 154.0 L 119.3 146.7 L 119.65249996185302 142.0 L 94.0 142.0 L 94.0 138.0 L 119.9241379737854 138.0 L 120.2 130.0 L 120.2 104.7 L 132.2 106.7 L 135.2 108.7 L 132.2 110.5 L 132.2 130.3 L 132.0064516067505 130.59032258987426 Z M 59.0 14.0 L 62.0 16.0 L 59.0 17.8 L 59.0 33.0 L 75.11818180084228 33.0 L 83.3 24.0 L 93.3 33.0 L 93.3 37.0 L 59.0 37.0 L 59.0 57.0 L 75.3 57.0 L 81.3 52.0 L 92.3 61.0 L 87.3 65.0 L 87.3 120.0 L 75.3 126.0 L 75.3 114.0 L 59.0 114.0 L 59.0 145.0 L 78.01818180084229 145.0 L 86.2 136.0 L 96.2 145.0 L 96.2 149.0 L 59.0 149.0 L 59.0 182.0 L 47.0 188.0 L 47.0 149.0 L 12.2 149.0 L 12.2 145.0 L 47.0 145.0 L 47.0 114.0 L 32.6 114.0 L 32.6 126.0 L 20.6 132.0 L 20.6 51.0 L 32.6 57.0 L 47.0 57.0 L 47.0 12.0 Z M 141.8 25.8 L 142.0 29.4 L 138.16614170074462 27.838057708740234 L 135.8 29.1 L 132.7 30.7 L 129.4 32.2 L 126.1 33.6 L 122.6 34.9 L 119.1 36.1 L 115.4 37.3 L 113.5 37.75 L 113.5 64.8 L 125.27777776718139 64.8 L 131.5 57.8 L 139.5 64.8 L 139.5 68.8 L 113.5 68.8 L 113.5 97.5 L 169.0 97.5 L 169.0 68.8 L 146.3 68.8 L 146.3 64.8 L 169.0 64.8 L 169.0 36.0 L 146.9 36.0 L 146.9 32.0 L 169.0 32.0 L 175.0 27.0 L 186.0 36.0 L 181.0 40.0 L 181.0 107.5 L 169.0 113.5 L 169.0 101.5 L 113.5 101.5 L 113.5 113.5 L 101.5 119.5 L 101.5 30.5 L 110.92337665557861 35.211688327789304 L 113.5 33.3 L 116.5 31.1 L 119.4 28.9 L 122.2 26.8 L 124.9 24.7 L 127.5 22.5 L 130.0 20.4 L 133.86400003433226 16.87200002670288 L 133.8 16.8 L 134.6 16.2 Z M 32.6 88.0 L 32.6 110.0 L 75.3 110.0 L 75.3 88.0 Z M 32.6 84.0 L 75.3 84.0 L 75.3 61.0 L 32.6 61.0 Z " />
</g>
</svg>
