<svg xmlns="http://www.w3.org/2000/svg" xmlns:xlink="http://www.w3.org/1999/xlink" version="1.1" baseProfile="full" viewBox="0 0 200 200" width="200" height="200">
<g fill="black">
<path d="M 171.5 22.1 L 171.5 26.1 L 32.4 26.1 L 32.4 172.6 L 158.7 172.6 L 168.7 162.6 L 180.7 172.6 L 180.7 176.6 L 32.4 176.6 L 32.4 183.6 L 20.4 189.6 L 20.4 16.1 L 32.4 22.1 L 149.5 22.1 L 159.5 12.1 Z M 67.1 155.6 L 55.1 161.6 L 55.1 107.9 L 67.1 109.9 L 70.1 111.9 L 67.1 113.7 L 67.1 148.6 L 101.0 148.6 L 101.0 98.2 L 39.8 98.2 L 39.8 94.2 L 101.0 94.2 L 101.0 60.2 L 71.875 60.2 L 71.5 60.8 L 67.8 66.2 L 63.7 71.3 L 59.4 76.3 L 54.7 81.0 L 49.7 85.4 L 44.4 89.4 L 43.1 88.1 L 47.0 82.8 L 50.7 77.5 L 54.2 72.2 L 57.5 66.9 L 60.6 61.6 L 63.5 56.1 L 66.1 50.6 L 68.5 44.9 L 70.6 39.2 L 72.5 33.3 L 72.52981529235839 33.310554122924806 L 73.0 31.9 L 83.8 37.3 L 86.0 40.2 L 82.25307264328003 40.98882684707642 L 81.2 43.5 L 78.2 49.4 L 75.0 55.2 L 74.375 56.2 L 139.5 56.2 L 149.5 46.2 L 161.5 56.2 L 161.5 60.2 L 113.0 60.2 L 113.0 94.2 L 152.1 94.2 L 162.1 84.2 L 174.1 94.2 L 174.1 98.2 L 113.0 98.2 L 113.0 148.6 L 146.8 148.6 L 146.8 107.9 L 158.8 109.9 L 161.8 111.9 L 158.8 113.7 L 158.8 154.6 L 146.8 160.6 L 146.8 152.6 L 67.1 152.6 Z " />
</g>
</svg>
