<svg xmlns="http://www.w3.org/2000/svg" xmlns:xlink="http://www.w3.org/1999/xlink" version="1.1" baseProfile="full" viewBox="0 0 200 200" width="200" height="200">
<g fill="black">
<path d="M 106.0 157.4 L 109.0 159.4 L 106.0 161.2 L 106.0 165.0 L 165.3181818008423 165.0 L 173.5 156.0 L 183.5 165.0 L 183.5 169.0 L 106.0 169.0 L 106.0 182.9 L 94.0 188.9 L 94.0 169.0 L 16.4 169.0 L 16.4 165.0 L 94.0 165.0 L 94.0 155.4 Z M 159.4 108.4 L 156.0615385055542 107.56538457870484 L 163.1 113.9 L 163.1 117.9 L 107.5 117.9 L 107.5 126.1 L 142.4777777671814 126.1 L 148.7 119.1 L 156.7 126.1 L 156.7 130.1 L 107.5 130.1 L 107.5 138.0 L 142.4777777671814 138.0 L 148.7 131.0 L 156.7 138.0 L 156.7 142.0 L 107.5 142.0 L 107.5 150.8 L 156.2777777671814 150.8 L 162.5 143.8 L 170.5 150.8 L 170.5 154.8 L 56.0 154.8 L 44.0 160.8 L 44.0 122.79090909957885 L 42.0 123.7 L 36.1 126.0 L 29.9 128.3 L 23.3 130.2 L 16.2 131.9 L 15.6 130.2 L 21.8 126.7 L 27.7 123.3 L 33.3 120.1 L 38.5 117.0 L 43.3 113.8 L 47.7 110.7 L 51.8 107.5 L 55.4 104.4 L 56.05822105407715 103.78167114257812 L 47.2 105.4 L 36.2 107.0 L 24.5 108.3 L 12.1 109.2 L 11.8 107.4 L 23.9 104.6 L 35.2 101.8 L 45.8 99.0 L 55.7 96.1 L 64.8 93.1 L 73.1 90.0 L 80.7 86.8 L 87.5 83.5 L 93.6 80.1 L 98.8 76.6 L 102.1 81.65 L 103.01673812866211 82.64499626159667 L 107.6 84.1 L 114.2 86.2 L 121.0 88.2 L 128.3 90.2 L 136.0 92.0 L 144.1 93.8 L 152.6 95.3 L 161.5 96.7 L 171.0 98.0 L 180.8 99.1 L 190.9 100.5 L 179.1 112.2 L 169.0 110.4 Z M 56.0 142.0 L 56.0 150.8 L 95.5 150.8 L 95.5 142.0 Z M 56.0 130.1 L 56.0 138.0 L 95.5 138.0 L 95.5 130.1 Z M 56.0 117.9 L 56.0 126.1 L 95.5 126.1 L 95.5 117.9 Z M 99.1 90.1 L 92.1 93.3 L 84.4 96.2 L 76.2 98.8 L 67.2 101.3 L 65.36090517044067 101.72145919799804 L 70.0 106.7 L 70.7 110.2 L 66.9554217338562 109.26385545730591 L 66.2 109.9 L 62.0 112.9 L 60.448275852203366 113.9 L 97.76000003814697 113.9 L 99.2 113.1 L 102.4 111.0 L 105.4 109.0 L 108.1 107.1 L 110.7 105.3 L 112.9 103.6 L 114.9 102.1 L 116.7 100.6 L 118.2 99.2 L 118.67882356643676 98.72117643356323 L 118.5 98.5 L 118.69069766998291 98.7093023300171 L 119.4 98.0 L 123.31475095748901 103.78448276519775 L 126.7 107.5 L 126.8 111.1 L 122.55581398010254 109.32515859603882 L 121.8 109.6 L 119.4 110.4 L 116.8 111.3 L 114.0 112.1 L 110.9 113.0 L 107.6 113.9 L 144.9181818008423 113.9 L 151.6740740776062 106.4685185432434 L 150.2 106.1 L 141.6 103.7 L 133.4 101.0 L 125.7 98.1 L 118.5 95.0 L 111.8 91.6 L 106.32122411727906 88.22142152786255 L 106.4 89.6 L 102.78079328536987 88.11354007720948 Z M 159.3 87.6 L 155.7 86.0 L 151.7 84.3 L 147.4 82.7 L 142.8 81.0 L 138.0 79.3 L 132.8 77.5 L 127.5 75.6 L 121.8 73.6 L 122.1 71.9 L 128.1 72.1 L 133.9 72.4 L 139.4 73.0 L 144.7 73.7 L 149.6 74.6 L 154.3 75.5 L 158.8 76.5 L 163.0 77.6 L 166.9 78.7 L 170.7 80.0 L 173.8 83.3 L 173.7 87.9 L 170.3 91.0 L 165.8 90.9 L 162.7 89.3 Z M 105.0 17.6 L 108.0 19.6 L 105.0 21.4 L 105.0 28.5 L 114.11818180084228 28.5 L 122.3 19.5 L 132.3 28.5 L 132.3 32.5 L 105.0 32.5 L 105.0 44.0 L 113.1 44.0 L 119.1 39.0 L 130.1 48.0 L 125.1 52.0 L 125.1 67.0 L 113.1 73.0 L 113.1 67.0 L 84.8 67.0 L 73.42172288894653 72.68913860321045 L 78.5 77.6 L 78.7 80.9 L 74.93705139160156 79.35780792236328 L 71.7 80.7 L 67.2 82.3 L 62.4 83.8 L 57.4 85.2 L 52.0 86.5 L 46.3 87.7 L 40.2 88.8 L 33.9 89.7 L 27.2 90.4 L 20.1 90.8 L 19.8 89.1 L 26.4 86.7 L 32.7 84.5 L 38.6 82.4 L 44.2 80.4 L 49.5 78.4 L 54.4 76.4 L 58.9 74.4 L 63.1 72.4 L 66.9 70.4 L 69.45930919647216 68.8945240020752 L 69.4 68.8 L 69.48320865631104 68.88046550750732 L 70.3 68.4 L 71.62292966842651 70.94964628219604 L 72.8 72.08791208267212 L 72.8 38.0 L 84.8 44.0 L 93.0 44.0 L 93.0 32.5 L 65.6 32.5 L 65.6 28.5 L 93.0 28.5 L 93.0 15.6 Z M 61.08032598495483 13.761466789245606 L 71.5 22.4 L 71.8 25.4 L 67.42950105667114 23.304555320739745 L 63.4 24.2 L 60.5 24.5 L 57.5 24.7 L 54.4 24.9 L 48.0 25.1 L 44.6 25.2 L 41.1 25.2 L 37.6 25.1 L 36.1 25.018918895721434 L 36.1 41.9 L 50.7777777671814 41.9 L 57.0 34.9 L 65.0 41.9 L 65.0 45.9 L 36.1 45.9 L 36.1 62.9 L 50.7777777671814 62.9 L 57.0 55.9 L 65.0 62.9 L 65.0 66.9 L 36.1 66.9 L 36.1 69.9 L 24.1 75.9 L 24.1 16.1 L 35.086666679382326 21.593333339691164 L 36.9 20.9 L 40.3 19.7 L 43.5 18.6 L 46.6 17.5 L 49.7 16.5 L 52.6 15.5 L 55.4 14.5 L 59.84779224395752 12.852669525146485 L 59.8 12.7 L 59.94204273223877 12.817761898040771 L 60.8 12.5 Z M 178.8 26.7 L 173.8 30.7 L 173.8 66.9 L 161.8 72.9 L 161.8 66.9 L 132.9 66.9 L 132.9 62.9 L 161.8 62.9 L 161.8 45.9 L 132.9 45.9 L 132.9 41.9 L 161.8 41.9 L 161.8 26.7 L 132.9 26.7 L 132.9 22.7 L 161.8 22.7 L 167.8 17.7 Z M 84.8 63.0 L 113.1 63.0 L 113.1 48.0 L 84.8 48.0 Z " />
</g>
</svg>
