<svg xmlns="http://www.w3.org/2000/svg" xmlns:xlink="http://www.w3.org/1999/xlink" version="1.1" baseProfile="full" viewBox="0 0 200 200" width="200" height="200">
<g fill="black">
<path d="M 45.0 54.0 L 94.0 54.0 L 94.0 12.0 L 106.0 14.0 L 109.0 16.0 L 106.0 17.8 L 106.0 32.0 L 163.0 32.0 L 173.0 22.0 L 185.0 32.0 L 185.0 36.0 L 106.0 36.0 L 106.0 54.0 L 154.0 54.0 L 160.0 49.0 L 171.0 58.0 L 166.0 61.0 L 165.88275661468506 61.04885139465332 L 165.8 84.8 L 166.6 108.8 L 168.1 128.3 L 170.2 143.7 L 172.6 155.6 L 175.3 164.2 L 177.60172414779663 169.05919542312623 L 182.0 150.0 L 184.0 150.0 L 182.11290321350097 174.53225803375244 L 182.2 174.6 L 183.3 175.1 L 187.0 177.8 L 187.8 182.3 L 185.1 186.0 L 180.6 186.8 L 176.0 185.0 L 171.6 181.4 L 167.7 175.9 L 164.1 168.5 L 161.0 158.6 L 158.3 145.7 L 156.2 129.5 L 154.6 109.4 L 153.8 85.0 L 153.8931034088135 58.0 L 45.0 58.0 L 45.0 84.0 L 44.4 98.5 L 43.2 112.2 L 41.5 125.1 L 39.2 137.0 L 36.3 148.0 L 32.8 158.1 L 28.7 167.3 L 24.0 175.5 L 18.6 182.6 L 12.6 188.6 L 11.3 187.3 L 15.5 180.4 L 19.3 172.9 L 22.7 164.7 L 25.6 155.7 L 28.1 145.9 L 30.1 135.2 L 31.5 123.7 L 32.5 111.3 L 33.0 98.1 L 33.0 48.0 Z M 105.62905521392823 124.16256685256958 L 105.1 131.9 L 103.3 142.5 L 100.2 152.0 L 97.93713235855103 156.22401962280273 L 102.5 156.9 L 110.0 158.3 L 117.1 160.0 L 123.8 161.9 L 130.0 163.8 L 135.9 165.9 L 141.3 168.1 L 146.3 170.5 L 150.9 172.9 L 155.1 175.5 L 157.4 179.4 L 156.3 183.9 L 152.4 186.2 L 147.9 185.1 L 144.7 182.4 L 140.9 179.8 L 136.7 177.1 L 132.0 174.4 L 126.8 171.7 L 121.1 169.0 L 115.0 166.2 L 108.4 163.5 L 101.4 160.5 L 96.67303724288941 158.58366374969484 L 95.7 160.4 L 89.7 167.6 L 82.2 173.6 L 73.1 178.4 L 62.4 182.3 L 50.0 185.2 L 35.7 187.3 L 35.4 185.5 L 49.1 181.5 L 60.7 177.2 L 70.2 172.5 L 77.7 167.4 L 83.5 161.8 L 87.8 155.5 L 90.8 148.5 L 92.8 140.3 L 93.8 130.9 L 93.9 120.2 L 93.9 118.81020412445068 L 92.6 119.5 L 82.0 124.0 L 70.6 127.7 L 58.4 130.7 L 45.3 132.9 L 45.0 131.2 L 57.4 127.1 L 68.9 122.7 L 79.4 117.9 L 89.1 112.8 L 93.85347356796265 109.74029293060303 L 92.0 109.7 L 88.8 106.5 L 88.6 105.2 L 88.3 103.7 L 87.8 102.1 L 87.1 100.4 L 86.2 98.5 L 85.1 96.6 L 83.9 94.6 L 82.4 92.5 L 80.8 90.2 L 79.55392665863037 89.07260036468506 L 76.4 91.0 L 70.6 94.1 L 64.4 96.9 L 57.7 99.3 L 50.7 101.4 L 50.0 99.7 L 56.1 95.9 L 61.9 92.2 L 67.2 88.5 L 72.2 84.7 L 76.7 81.0 L 80.7 77.1 L 84.4 73.2 L 87.6 69.2 L 90.4 65.2 L 92.8 61.1 L 92.82157363891602 61.11332483291626 L 93.3 60.3 L 103.0 67.4 L 104.5 70.7 L 100.55801811218262 70.63203477859497 L 99.6 71.9 L 98.148837184906 73.5 L 127.2 73.5 L 127.77813768386841 73.01821861267089 L 127.9 72.8 L 127.98627910614013 72.84476747512818 L 133.2 68.5 L 144.2 77.5 L 139.2 80.5 L 136.38110237121583 81.67454071044922 L 133.1 86.9 L 126.7 94.8 L 119.4 102.0 L 111.3 108.5 L 102.4 114.3 L 95.28268156051635 118.0765362739563 L 105.9 120.2 L 108.9 122.2 Z M 53.5 160.4 L 53.5 155.8 L 56.6 152.5 L 59.0 151.7 L 61.1 150.7 L 63.1 149.5 L 64.9 148.1 L 66.5 146.3 L 68.0 144.2 L 69.3 141.7 L 70.5 138.7 L 71.4 135.4 L 71.7 131.7 L 73.5 131.5 L 74.0 135.4 L 74.6 139.2 L 74.6 142.8 L 74.2 146.4 L 73.3 149.8 L 71.9 153.0 L 70.0 156.1 L 67.6 158.9 L 64.7 161.3 L 61.4 163.5 L 56.9 163.5 Z M 146.6 134.4 L 146.9 138.0 L 142.8855565071106 136.5875105857849 L 141.9 137.1 L 139.2 138.6 L 136.2 140.2 L 133.0 141.9 L 125.8 145.5 L 121.8 147.3 L 117.5 149.2 L 113.0 151.4 L 112.0 149.9 L 115.9 146.7 L 119.3 143.5 L 122.6 140.6 L 125.7 137.9 L 128.6 135.4 L 131.2 133.0 L 133.5 130.8 L 135.6 128.8 L 137.4 126.9 L 138.31982879638673 125.9226819038391 L 138.2 125.8 L 139.1 125.1 Z M 94.36829271316529 77.5 L 91.5 80.3 L 86.8 84.1 L 81.8 87.7 L 81.43595504760742 87.92247190475464 L 82.2 88.4 L 84.8 89.6 L 87.3 90.9 L 89.5 92.2 L 91.6 93.6 L 93.6 95.1 L 95.4 96.7 L 97.0 98.3 L 98.5 100.1 L 99.9 101.9 L 99.81853742599488 105.64727888107299 L 105.6 101.2 L 112.5 94.7 L 118.5 87.8 L 123.6 80.5 L 125.2753246307373 77.5 Z " />
</g>
</svg>
