<svg xmlns="http://www.w3.org/2000/svg" xmlns:xlink="http://www.w3.org/1999/xlink" version="1.1" baseProfile="full" viewBox="0 0 200 200" width="200" height="200">
<g fill="black">
<path d="M 56.0 184.0 L 44.0 190.0 L 44.0 108.0 L 13.0 108.0 L 13.0 104.0 L 44.0 104.0 L 44.0 64.0 L 56.0 66.0 L 59.0 68.0 L 56.0 69.8 L 56.0 104.0 L 65.0 104.0 L 75.0 94.0 L 87.0 104.0 L 87.0 108.0 L 56.0 108.0 L 56.0 168.0 L 94.0 168.0 L 94.0 49.0 L 25.0 49.0 L 25.0 45.0 L 94.0 45.0 L 94.0 15.0 L 106.0 17.0 L 109.0 19.0 L 106.0 20.8 L 106.0 45.0 L 154.0 45.0 L 164.0 35.0 L 176.0 45.0 L 176.0 49.0 L 106.0 49.0 L 106.0 168.0 L 144.0 168.0 L 144.0 108.0 L 113.0 108.0 L 113.0 104.0 L 144.0 104.0 L 144.0 64.0 L 156.0 66.0 L 159.0 68.0 L 156.0 69.8 L 156.0 104.0 L 165.0 104.0 L 175.0 94.0 L 187.0 104.0 L 187.0 108.0 L 156.0 108.0 L 156.0 178.0 L 144.0 184.0 L 144.0 172.0 L 56.0 172.0 Z " />
</g>
</svg>
