<svg xmlns="http://www.w3.org/2000/svg" xmlns:xlink="http://www.w3.org/1999/xlink" version="1.1" baseProfile="full" viewBox="0 0 200 200" width="200" height="200">
<g fill="black">
<path d="M 150.6 15.0 L 153.6 17.0 L 150.6 18.8 L 150.6 68.0 L 164.8 68.0 L 174.8 58.0 L 186.8 68.0 L 186.8 72.0 L 150.6 72.0 L 150.6 181.0 L 138.6 187.0 L 138.6 72.0 L 98.4 72.0 L 98.4 68.0 L 138.6 68.0 L 138.6 13.0 Z M 82.9 143.5 L 81.74145345687866 139.63817806243895 L 79.4 140.7 L 71.2 144.2 L 63.4 147.3 L 56.0 150.2 L 49.1 152.9 L 42.5 155.4 L 36.5 157.7 L 30.8 159.8 L 25.6 161.7 L 24.8027681350708 161.9823529243469 L 23.6 165.7 L 20.8 163.4 L 15.5 152.5 L 17.5 151.9 L 22.3 150.8 L 27.7 149.5 L 31.737553787231445 148.52541809082032 L 31.9 147.9 L 33.9 140.4 L 35.9 133.1 L 37.9 125.9 L 39.7 118.9 L 41.5 112.0 L 43.2 105.2 L 44.7 98.5 L 46.2 91.9 L 47.29398727416992 86.5142165184021 L 47.2 86.5 L 47.8481481552124 84.0 L 17.1 84.0 L 17.1 80.0 L 73.7 80.0 L 83.7 70.0 L 95.7 80.0 L 95.7 84.0 L 48.39777774810791 84.0 L 59.1 88.3 L 61.6 91.0 L 57.99047336578369 92.09574918746948 L 57.2 94.8 L 55.1 101.4 L 52.8 108.0 L 50.4 114.7 L 47.8 121.5 L 45.0 128.4 L 42.1 135.3 L 38.9 142.3 L 36.36363639831543 147.37272729873658 L 39.8 146.5 L 46.5 144.8 L 53.7 143.0 L 61.4 141.1 L 69.6 139.1 L 78.2 137.1 L 80.62878189086913 136.57200393676757 L 80.2 135.4 L 78.4 131.2 L 76.4 127.0 L 74.1 122.8 L 71.6 118.4 L 69.0 113.9 L 66.1 109.3 L 67.4 108.1 L 71.7 111.6 L 75.7 115.2 L 79.4 119.1 L 82.7 123.0 L 85.7 127.1 L 88.4 131.2 L 90.8 135.5 L 92.9 139.8 L 94.8 144.2 L 96.3 148.6 L 95.5 153.1 L 91.8 155.9 L 87.3 155.1 L 84.6 151.4 L 83.9 147.5 Z M 91.2 38.0 L 91.2 42.0 L 25.0 42.0 L 25.0 38.0 L 69.2 38.0 L 79.2 28.0 Z " />
</g>
</svg>
