<svg xmlns="http://www.w3.org/2000/svg" xmlns:xlink="http://www.w3.org/1999/xlink" version="1.1" baseProfile="full" viewBox="0 0 200 200" width="200" height="200">
<g fill="black">
<path d="M 132.7 175.5 L 152.7 175.5 L 153.9 175.4 L 154.8 175.2 L 155.7 174.9 L 156.1 174.5 L 156.4 173.6 L 156.6 172.7 L 156.7 171.5 L 156.7 98.4 L 104.96542053222656 98.4 L 104.9 99.1 L 102.7 109.0 L 99.3 118.2 L 98.87977523803711 119.00224723815919 L 104.5 120.2 L 110.3 122.0 L 115.8 124.1 L 121.0 126.4 L 125.9 129.0 L 130.4 131.8 L 134.7 134.8 L 138.7 138.0 L 142.3 141.4 L 145.7 145.1 L 146.8 149.5 L 144.5 153.5 L 140.1 154.6 L 136.1 152.3 L 133.8 148.9 L 131.1 145.6 L 128.1 142.4 L 124.8 139.2 L 121.1 136.0 L 117.1 132.9 L 112.7 129.9 L 108.0 126.8 L 103.0 123.7 L 98.00027303695678 120.68129692077636 L 94.9 126.6 L 89.3 134.1 L 82.6 140.8 L 75.0 146.5 L 66.3 151.3 L 56.7 155.2 L 46.1 158.0 L 45.5 156.3 L 55.2 151.7 L 63.7 146.7 L 71.1 141.2 L 77.4 135.3 L 82.6 128.9 L 86.8 121.9 L 90.0 114.5 L 92.3 106.4 L 93.48181819915771 98.4 L 43.3 98.4 L 43.3 181.2 L 31.3 187.2 L 31.3 88.4 L 43.3 94.4 L 93.73617019653321 94.4 L 94.0 88.2 L 94.0 68.4 L 106.0 70.4 L 109.0 72.4 L 106.0 74.2 L 106.0 88.3 L 105.89456520080566 88.45815219879151 L 105.3392523765564 94.4 L 156.7 94.4 L 162.7 89.4 L 173.7 98.4 L 168.7 102.4 L 168.7 171.5 L 168.5 174.0 L 168.1 176.5 L 167.3 178.9 L 166.0 181.2 L 164.4 183.2 L 162.4 184.8 L 160.1 186.1 L 157.7 186.9 L 155.2 187.3 L 152.7 187.5 L 152.7 181.5 L 132.7 178.5 Z M 155.7 63.8 L 152.1 59.1 L 149.77908020019532 56.35154237747192 L 141.7 58.1 L 128.5 60.6 L 115.4 62.8 L 102.6 64.8 L 89.9 66.6 L 77.4 68.3 L 65.1 69.7 L 53.0 71.1 L 41.0 72.2 L 33.33653402328491 72.85499706268311 L 31.4 76.1 L 29.3 73.2 L 26.6 61.4 L 28.6 61.3 L 40.3 60.9 L 52.1 60.4 L 62.4745997428894 59.79981651306152 L 63.7 57.3 L 66.3 52.3 L 71.3 42.5 L 73.7 37.7 L 76.0 32.9 L 78.2 28.1 L 80.3 23.3 L 83.73837318420411 14.61358346939087 L 83.7 14.6 L 84.6 12.5 L 95.0 18.6 L 97.0 21.6 L 93.19854354858398 22.05879650115967 L 92.5 23.4 L 89.9 28.1 L 87.0 32.8 L 84.1 37.4 L 81.0 42.0 L 77.8 46.5 L 74.3 51.0 L 70.7 55.3 L 66.8 59.5 L 66.74336280822754 59.555255794525145 L 76.5 59.0 L 89.0 58.2 L 101.7 57.3 L 114.7 56.3 L 127.8 55.3 L 141.2 54.3 L 147.6243034362793 53.87486228942871 L 144.2 50.2 L 139.8 45.9 L 135.3 41.7 L 130.5 37.7 L 125.6 33.6 L 120.4 29.5 L 121.3 27.9 L 127.5 30.4 L 133.5 33.2 L 139.2 36.4 L 144.6 40.0 L 149.8 43.8 L 154.8 47.9 L 159.5 52.3 L 164.0 56.9 L 168.2 61.8 L 172.3 66.9 L 173.1 71.4 L 170.6 75.2 L 166.1 76.1 L 162.3 73.6 L 159.1 68.6 Z " />
</g>
</svg>
