<svg xmlns="http://www.w3.org/2000/svg" xmlns:xlink="http://www.w3.org/1999/xlink" version="1.1" baseProfile="full" viewBox="0 0 200 200" width="200" height="200">
<g fill="black">
<path d="M 54.5 176.8 L 52.0 176.4 L 49.6 175.6 L 47.4 174.3 L 45.3 172.7 L 43.7 170.7 L 42.5 168.4 L 41.7 166.0 L 41.2 163.5 L 41.1 161.0 L 41.1 156.44672899246217 L 38.5 159.8 L 27.1 172.6 L 15.0 184.6 L 13.7 183.3 L 24.3 170.2 L 34.3 156.5 L 41.1 146.2276596069336 L 41.1 50.0 L 53.1 52.0 L 56.1 54.0 L 53.1 55.8 L 53.1 126.66097564697266 L 60.8 112.2 L 68.4 96.2 L 75.4 79.5 L 81.8 62.1 L 87.5 44.1 L 92.5 25.4 L 92.53946800231934 25.41054744720459 L 93.0 23.7 L 104.1 28.5 L 106.5 31.2 L 102.96771001815796 32.20922565460205 L 98.3 47.5 L 91.8 65.7 L 84.7 83.3 L 76.8 100.1 L 68.3 116.2 L 59.1 131.5 L 53.1 140.2878787994385 L 53.1 161.0 L 53.2 162.2 L 53.3 163.1 L 53.5 163.7 L 53.7 164.0 L 53.8 164.2 L 54.0 164.4 L 54.4 164.5 L 54.9 164.7 L 55.9 164.9 L 57.1 165.0 L 87.9 165.0 L 93.9 140.0 L 95.9 140.0 L 93.9 165.0 L 97.5 167.4 L 99.9 171.0 L 97.5 174.6 L 93.9 177.0 L 57.1 177.0 Z M 152.7 153.0 L 162.7 153.0 L 164.0 152.9 L 164.9 152.7 L 165.8 152.4 L 166.0 152.2 L 166.1 152.0 L 166.3 151.7 L 166.5 151.1 L 166.7 150.2 L 166.7 36.0 L 133.8 36.0 L 133.8 183.0 L 121.8 189.0 L 121.8 26.0 L 133.8 32.0 L 166.7 32.0 L 172.7 27.0 L 183.7 36.0 L 178.7 40.0 L 178.7 149.0 L 178.6 151.5 L 178.2 154.0 L 177.3 156.4 L 176.1 158.7 L 174.5 160.7 L 172.5 162.3 L 170.2 163.6 L 167.8 164.4 L 165.3 164.8 L 162.7 165.0 L 162.7 159.0 L 152.7 156.0 Z M 16.6 140.7 L 13.5 137.3 L 13.6 132.7 L 15.5 129.0 L 17.2 125.0 L 18.7 120.5 L 20.1 115.7 L 21.3 110.5 L 22.3 104.9 L 23.1 99.0 L 23.9 92.7 L 24.5 86.1 L 25.2 79.0 L 27.0 78.9 L 28.3 85.9 L 29.2 92.7 L 29.7 99.3 L 29.8 105.5 L 29.7 111.5 L 29.2 117.3 L 28.5 122.8 L 27.5 128.0 L 26.2 133.0 L 24.5 137.7 L 21.2 140.8 Z M 99.2 119.5 L 98.7 114.7 L 98.0 110.0 L 97.0 105.2 L 95.8 100.5 L 94.3 95.8 L 92.7 91.0 L 90.9 86.2 L 89.0 81.3 L 90.5 80.3 L 94.2 84.3 L 97.5 88.6 L 100.3 93.1 L 102.8 97.8 L 105.1 102.6 L 106.9 107.6 L 108.5 112.7 L 109.8 117.9 L 110.8 123.3 L 111.5 128.7 L 109.8 133.0 L 105.7 134.9 L 101.4 133.3 L 99.5 129.2 L 99.5 124.3 Z M 63.0 42.3 L 61.0 39.5 L 58.7 36.6 L 56.1 33.8 L 53.2 31.0 L 50.0 28.3 L 46.4 25.6 L 42.6 22.8 L 38.3 20.2 L 39.0 18.5 L 43.9 19.8 L 48.7 21.3 L 53.1 23.1 L 57.3 25.2 L 61.2 27.5 L 64.8 30.0 L 68.2 32.8 L 71.3 35.7 L 74.1 39.0 L 76.6 42.4 L 77.1 47.0 L 74.3 50.6 L 69.7 51.0 L 66.1 48.2 L 64.7 45.3 Z " />
</g>
</svg>
