<svg xmlns="http://www.w3.org/2000/svg" xmlns:xlink="http://www.w3.org/1999/xlink" version="1.1" baseProfile="full" viewBox="0 0 200 200" width="200" height="200">
<g fill="black">
<path d="M 158.5 174.0 L 150.0 169.2 L 142.0 163.9 L 134.5 158.1 L 127.6 151.9 L 121.2 145.3 L 115.3 138.1 L 110.2 130.5 L 106.17560977935791 123.0 L 106.0 123.0 L 106.0 183.0 L 94.0 189.0 L 94.0 133.7611110687256 L 87.9 140.2 L 80.2 147.3 L 72.1 154.0 L 63.4 160.1 L 54.4 165.8 L 44.8 170.9 L 34.8 175.5 L 24.3 179.5 L 13.3 182.8 L 12.6 181.1 L 22.8 176.0 L 32.4 170.7 L 41.6 165.2 L 50.3 159.4 L 58.5 153.3 L 66.2 146.8 L 73.4 140.0 L 80.1 132.8 L 86.3 125.3 L 87.95813951492309 123.0 L 54.0 123.0 L 54.0 135.0 L 42.0 141.0 L 42.0 76.0 L 54.0 82.0 L 94.0 82.0 L 94.0 63.0 L 106.0 65.0 L 109.0 67.0 L 106.0 68.8 L 106.0 82.0 L 146.0 82.0 L 152.0 77.0 L 163.0 86.0 L 158.0 90.0 L 158.0 129.0 L 146.0 135.0 L 146.0 123.0 L 108.89696969985962 123.0 L 113.5 127.9 L 119.8 134.2 L 126.3 140.1 L 133.0 145.6 L 140.1 150.7 L 147.6 155.3 L 155.4 159.5 L 163.6 163.3 L 172.1 166.7 L 181.1 169.7 L 188.4 172.2 L 176.8 182.2 L 167.4 178.3 Z M 54.0 86.0 L 54.0 119.0 L 94.0 119.0 L 94.0 86.0 Z M 106.0 86.0 L 106.0 119.0 L 146.0 119.0 L 146.0 86.0 Z M 152.8 56.8 L 149.4 52.8 L 146.91074886322022 50.103311252594 L 139.6 51.6 L 127.0 53.9 L 114.7 55.9 L 102.4 57.7 L 90.4 59.3 L 78.5 60.7 L 66.8 62.0 L 55.3 63.2 L 44.0 64.3 L 36.928634071350096 64.86823472976684 L 35.0 68.1 L 32.8 65.2 L 30.3 53.3 L 32.3 53.2 L 43.3 52.9 L 54.6 52.5 L 64.74979753494263 52.058704471588136 L 68.0 46.1 L 70.4 41.9 L 72.7 37.7 L 75.0 33.6 L 77.1 29.4 L 79.2 25.3 L 81.1 21.2 L 82.9 17.2 L 84.22307119369506 14.009063625335694 L 84.2 14.0 L 84.35714282989503 13.68571424484253 L 84.6 13.1 L 84.64014873504638 13.119702625274659 L 85.2 12.0 L 95.4 18.4 L 97.2 21.5 L 93.34036359786987 21.832727241516114 L 93.0 22.4 L 90.4 26.4 L 87.7 30.4 L 84.9 34.3 L 82.0 38.2 L 78.9 42.0 L 75.6 45.7 L 72.1 49.3 L 69.39589681625367 51.85793552398682 L 77.7 51.5 L 89.6 50.8 L 101.7 50.1 L 113.9 49.3 L 126.4 48.6 L 139.1 47.9 L 144.47568950653076 47.61053981781006 L 142.0 45.2 L 137.9 41.5 L 133.6 37.9 L 129.1 34.4 L 124.4 30.8 L 119.5 27.2 L 120.2 25.6 L 126.2 27.5 L 131.8 29.8 L 137.2 32.4 L 142.3 35.4 L 147.3 38.5 L 152.0 42.0 L 156.4 45.6 L 160.7 49.5 L 164.7 53.6 L 168.5 57.8 L 169.6 62.3 L 167.3 66.2 L 162.9 67.3 L 158.9 65.1 L 156.0 60.8 Z " />
</g>
</svg>
