<svg xmlns="http://www.w3.org/2000/svg" xmlns:xlink="http://www.w3.org/1999/xlink" version="1.1" baseProfile="full" viewBox="0 0 200 200" width="200" height="200">
<g fill="black">
<path d="M 83.3 157.9 L 81.3 153.7 L 79.22754945755005 149.98685941696166 L 77.9 152.8 L 73.1 161.1 L 67.8 169.0 L 62.0 176.2 L 55.7 182.8 L 48.8 188.8 L 47.5 187.5 L 52.8 180.4 L 57.7 173.0 L 62.3 165.4 L 66.4 157.5 L 70.2 149.1 L 73.14051313400269 141.3477379798889 L 72.5 140.5 L 68.5 136.0 L 64.1 131.3 L 59.3 126.5 L 54.0 121.5 L 55.0 120.0 L 61.5 123.5 L 67.5 127.2 L 73.0 131.1 L 75.73456087112427 133.38810195922852 L 76.4 131.3 L 78.9 121.8 L 80.9 111.9 L 82.05384616851806 104.4 L 57.6 104.4 L 52.6 107.4 L 51.766197204589844 107.7474178314209 L 50.7 114.5 L 48.3 125.2 L 45.5 135.3 L 43.87095155715942 139.85175294876097 L 45.5 141.6 L 49.2 146.3 L 52.4 151.2 L 55.3 156.3 L 57.6 161.7 L 57.2 166.3 L 53.8 169.3 L 49.3 168.9 L 46.2 165.5 L 44.8 160.8 L 42.9 156.2 L 40.7 151.6 L 39.77792205810547 150.0395604133606 L 38.2 153.6 L 33.8 161.8 L 28.9 169.2 L 23.4 175.9 L 17.4 181.8 L 10.8 186.8 L 9.6 185.5 L 14.6 179.2 L 19.2 172.7 L 23.3 165.7 L 27.1 158.2 L 30.4 150.2 L 33.3 141.7 L 33.528286361694335 140.8690375328064 L 31.6 138.5 L 27.7 134.3 L 23.5 130.0 L 18.8 125.8 L 13.8 121.4 L 14.7 119.9 L 20.9 122.6 L 26.7 125.8 L 32.0 129.3 L 35.86276073455811 132.29561033248902 L 37.8 122.9 L 39.4 112.7 L 40.31376142501831 104.4 L 13.4 104.4 L 13.4 100.4 L 40.6 100.4 L 46.6 95.4 L 56.8 103.74545450210572 L 56.8 100.4 L 82.4 100.4 L 88.4 95.4 L 99.4 104.4 L 94.4 107.4 L 93.42040815353394 107.80816326141357 L 92.0 114.2 L 89.2 124.6 L 85.9 134.5 L 83.42356405258178 140.62592048645018 L 86.4 143.9 L 89.9 148.4 L 92.9 153.1 L 95.4 158.0 L 97.4 162.9 L 96.7 167.5 L 93.2 170.3 L 88.7 169.7 L 85.8 166.2 L 84.8 162.1 Z M 141.34130430221558 93.73478260040284 L 145.0 97.8 L 145.1 101.4 L 140.63937005996704 99.45354328155517 L 139.0 100.0 L 136.7 100.8 L 134.1 101.7 L 127.8 103.8 L 124.3 105.0 L 121.8 105.75 L 121.8 136.2 L 129.0777777671814 136.2 L 135.3 129.2 L 143.3 136.2 L 143.3 140.2 L 121.8 140.2 L 121.8 171.2 L 171.6 171.2 L 171.6 140.2 L 150.1 140.2 L 150.1 136.2 L 171.6 136.2 L 171.6 107.5 L 149.6 107.5 L 149.6 103.5 L 171.6 103.5 L 177.6 98.5 L 188.6 107.5 L 183.6 111.5 L 183.6 179.2 L 171.6 185.2 L 171.6 175.2 L 121.8 175.2 L 121.8 182.2 L 109.8 188.2 L 109.8 99.1 L 119.29047622680665 103.84523811340333 L 122.3 101.4 L 125.3 99.1 L 128.0 97.0 L 130.4 95.1 L 132.5 93.4 L 134.3 91.8 L 135.8 90.5 L 136.9 89.3 L 137.0986755371094 89.05165567398072 L 136.9 88.8 L 137.11176471710206 89.03529415130615 L 137.7 88.3 Z M 169.5 82.6 L 167.5 83.9 L 163.3 85.9 L 161.1 86.6 L 158.8 87.2 L 156.5 87.6 L 154.2 87.9 L 151.8 88.0 L 151.8 82.0 L 131.8 79.0 L 131.8 76.0 L 151.8 76.0 L 153.3 75.9 L 156.3 75.5 L 157.6 75.1 L 159.0 74.7 L 160.3 74.1 L 161.5 73.5 L 162.7 72.7 L 164.0 71.8 L 164.4782608985901 71.36521739959717 L 164.5 71.3 L 164.9 69.7 L 165.4 67.4 L 165.9 64.3 L 166.4 60.6 L 167.0 56.3 L 167.5 51.3 L 168.1 45.7 L 168.45238094329835 42.0 L 139.34666662216188 42.0 L 137.0 48.4 L 133.5 57.1 L 129.6 65.4 L 125.4 73.3 L 120.8 80.8 L 115.8 87.9 L 110.4 94.5 L 104.6 100.5 L 103.2 99.4 L 107.3 92.3 L 111.3 85.0 L 115.1 77.6 L 118.6 69.9 L 121.8 62.0 L 124.8 53.7 L 127.5 45.2 L 130.0 36.4 L 132.1 27.2 L 133.7102828025818 18.701285362243652 L 133.7 18.7 L 133.79090909957887 18.275757598876954 L 133.9 17.7 L 133.91366529464722 17.702895164489746 L 134.3 15.9 L 145.7 20.2 L 148.2 22.7 L 144.70640363693238 23.906878757476807 L 143.1 29.9 L 140.71263160705567 38.0 L 168.7 38.0 L 174.7 33.0 L 185.7 42.0 L 180.7 45.0 L 180.1495867729187 45.229338836669925 L 180.0 46.8 L 179.5 52.6 L 178.9 57.7 L 178.3 62.2 L 177.7 66.2 L 177.2 69.6 L 176.6 72.4 L 175.9 74.9 L 175.1 77.0 L 173.2 79.7 L 171.4 81.2 Z M 79.2 75.2 L 77.4 71.4 L 75.60965518951416 68.30758619308472 L 73.0 72.4 L 68.2 78.9 L 62.9 84.9 L 57.3 90.3 L 51.1 95.2 L 49.9 93.9 L 54.5 87.8 L 58.7 81.5 L 62.8 75.1 L 66.5 68.5 L 69.9 61.6 L 70.25405406951904 60.75027027130127 L 69.6 59.9 L 66.2 56.0 L 62.5 52.0 L 58.4 47.9 L 54.0 43.7 L 55.0 42.1 L 60.6 44.8 L 65.8 47.8 L 70.6 51.1 L 73.307297706604 53.253532314300536 L 75.6 46.8 L 78.0 39.0 L 80.1 30.9 L 81.16000003814698 25.6 L 57.6 25.6 L 52.6 28.6 L 51.597705936431886 29.017622566223146 L 50.8 33.1 L 48.6 41.4 L 45.8 49.5 L 42.5 57.2 L 41.537866306304934 59.09894819259644 L 42.9 60.5 L 46.0 64.3 L 48.8 68.4 L 51.1 72.7 L 53.0 77.1 L 52.5 81.7 L 49.0 84.6 L 44.5 84.1 L 41.5 80.6 L 40.6 76.9 L 39.3 73.3 L 37.6 69.7 L 36.677493286132815 68.03948783874512 L 34.4 71.8 L 29.5 78.5 L 24.2 84.9 L 18.2 90.8 L 11.6 96.2 L 10.4 94.9 L 15.4 88.2 L 19.9 81.6 L 24.1 74.8 L 27.8 67.9 L 31.1 60.9 L 31.368224334716796 60.210280418395996 L 30.4 59.0 L 27.2 55.4 L 23.6 51.9 L 19.7 48.3 L 15.4 44.6 L 16.3 43.0 L 21.7 45.2 L 26.7 47.7 L 31.3 50.5 L 34.23520250320435 52.666458988189696 L 36.3 46.3 L 38.2 38.7 L 39.6 30.9 L 40.2625 25.6 L 13.4 25.6 L 13.4 21.6 L 40.6 21.6 L 46.6 16.6 L 56.8 24.94545450210571 L 56.8 21.6 L 81.6 21.6 L 87.6 16.6 L 98.6 25.6 L 93.6 28.6 L 92.3632911682129 29.115295314788817 L 91.1 33.8 L 88.2 42.3 L 85.0 50.4 L 81.4 58.2 L 80.52054004669189 59.80501441955566 L 82.6 62.0 L 85.8 66.0 L 88.7 70.2 L 91.1 74.5 L 93.2 79.0 L 92.8 83.5 L 89.4 86.6 L 84.8 86.2 L 81.8 82.8 L 80.7 79.0 Z " />
</g>
</svg>
