<svg xmlns="http://www.w3.org/2000/svg" xmlns:xlink="http://www.w3.org/1999/xlink" version="1.1" baseProfile="full" viewBox="0 0 200 200" width="200" height="200">
<g fill="black">
<path d="M 156.1 180.3 L 145.5 175.6 L 136.0 170.2 L 134.02992849349977 168.77585191726683 L 127.1 171.9 L 113.5 176.6 L 98.4 180.5 L 82.0 183.5 L 64.1 185.6 L 63.8 183.8 L 81.2 179.7 L 97.1 175.3 L 111.3 170.4 L 124.0 165.0 L 126.89148502349853 163.43703517913818 L 120.6 157.5 L 114.7 150.3 L 110.1 142.5 L 107.0 134.2 L 105.45454549789429 126.2 L 87.0 126.2 L 87.0 122.2 L 167.0 122.2 L 173.0 117.2 L 184.0 126.2 L 179.0 129.2 L 176.6883116722107 130.16320343017577 L 173.8 136.0 L 167.3 144.9 L 159.4 153.0 L 150.0 160.1 L 144.8592119216919 163.12681913375854 L 150.1 165.6 L 160.1 169.2 L 171.2 172.4 L 183.3 175.1 L 192.3 177.0 L 180.6 188.0 L 167.8 184.5 Z M 32.9 126.0 L 64.4 126.0 L 70.4 121.0 L 81.4 130.0 L 76.4 134.0 L 76.4 166.5 L 64.4 172.5 L 64.4 164.5 L 32.9 164.5 L 32.9 176.5 L 20.9 182.5 L 20.9 120.0 Z M 32.9 130.0 L 32.9 160.5 L 64.4 160.5 L 64.4 130.0 Z M 107.68421049118042 126.2 L 110.8 132.6 L 115.2 139.5 L 120.4 145.8 L 126.4 151.5 L 133.3 156.7 L 136.07424745559692 158.35050163269042 L 144.7 152.6 L 152.6 145.6 L 159.0 138.3 L 163.8 130.4 L 165.59268293380737 126.2 Z M 177.0 22.4 L 172.0 26.4 L 172.0 72.5 L 160.0 78.5 L 160.0 66.5 L 42.0 66.5 L 42.0 106.5 L 162.7777777671814 106.5 L 169.0 99.5 L 177.0 106.5 L 177.0 110.5 L 42.0 110.5 L 42.0 113.5 L 30.0 119.5 L 30.0 56.5 L 42.0 62.5 L 160.0 62.5 L 160.0 22.4 L 26.0 22.4 L 26.0 18.4 L 160.0 18.4 L 166.0 13.4 Z M 152.1 75.3 L 152.1 79.3 L 72.6 79.3 L 72.6 93.9 L 142.87777776718139 93.9 L 149.1 86.9 L 157.1 93.9 L 157.1 97.9 L 72.6 97.9 L 60.6 103.9 L 60.6 69.3 L 72.6 75.3 L 137.87777776718139 75.3 L 144.1 68.3 Z M 146.1 35.3 L 141.1 39.3 L 141.1 53.9 L 129.1 59.9 L 129.1 53.9 L 43.1 53.9 L 43.1 49.9 L 129.1 49.9 L 129.1 35.3 L 43.1 35.3 L 43.1 31.3 L 129.1 31.3 L 135.1 26.3 Z " />
</g>
</svg>
