<svg xmlns="http://www.w3.org/2000/svg" xmlns:xlink="http://www.w3.org/1999/xlink" version="1.1" baseProfile="full" viewBox="0 0 200 200" width="200" height="200">
<g fill="black">
<path d="M 139.4 181.2 L 124.3 176.7 L 110.7 171.3 L 100.32296562194824 165.98284187316895 L 93.7 169.6 L 79.9 175.6 L 65.3 180.6 L 50.0 184.5 L 33.9 187.2 L 17.1 188.7 L 16.8 186.9 L 33.2 183.4 L 48.6 179.3 L 63.2 174.4 L 76.9 168.6 L 89.7 162.1 L 92.03443832397461 160.6604296684265 L 88.1 158.0 L 79.2 150.1 L 72.0 141.3 L 66.7 131.7 L 63.6264705657959 122.2 L 42.0 122.2 L 42.0 118.2 L 139.91111106872557 118.2 L 141.2 116.6 L 141.57458925247192 116.88784227371215 L 146.0 113.2 L 157.0 122.2 L 152.0 125.2 L 148.1639344215393 126.7983606338501 L 140.9 135.1 L 130.3 145.3 L 118.9 154.4 L 110.35779552459717 160.0714635848999 L 114.6 161.9 L 127.6 166.1 L 142.1 169.7 L 158.1 172.4 L 175.7 174.5 L 186.1 175.6 L 174.2 187.6 L 156.1 184.8 Z M 65.88295450210572 122.2 L 70.4 129.7 L 76.7 137.7 L 84.1 144.8 L 92.9 151.2 L 100.45841836929321 155.46564207077026 L 101.7 154.7 L 112.8 146.4 L 123.1 137.4 L 132.5 127.4 L 136.68888893127442 122.2 Z M 59.82349290847778 15.118407344818115 L 68.7 22.8 L 68.9 25.9 L 64.89319152832032 24.139432621002197 L 63.3 24.7 L 60.2 25.4 L 56.9 26.1 L 53.6 26.7 L 50.2 27.3 L 46.7 27.8 L 43.1 28.3 L 39.4 28.7 L 35.6 29.0 L 33.5 29.107692337036134 L 33.5 59.7 L 46.11818180084229 59.7 L 54.3 50.7 L 64.3 59.7 L 64.3 63.7 L 33.5 63.7 L 33.5 94.9 L 46.11818180084229 94.9 L 54.3 85.9 L 64.3 94.9 L 64.3 98.9 L 33.5 98.9 L 33.5 110.9 L 21.5 116.9 L 21.5 20.7 L 31.963768100738527 25.93188409805298 L 34.5 24.7 L 38.0 23.2 L 41.3 21.7 L 44.6 20.3 L 50.8 17.5 L 53.7 16.2 L 56.5 14.8 L 58.3247049331665 13.853856754302978 L 58.3 13.8 L 58.348172950744626 13.84168815612793 L 59.2 13.4 Z M 183.4 31.8 L 178.4 35.8 L 178.4 104.9 L 166.4 110.9 L 166.4 98.9 L 135.7 98.9 L 135.7 94.9 L 166.4 94.9 L 166.4 63.7 L 135.7 63.7 L 135.7 59.7 L 166.4 59.7 L 166.4 31.8 L 135.7 31.8 L 135.7 27.8 L 166.4 27.8 L 172.4 22.8 Z M 96.3 69.7 L 98.6 72.5 L 94.78950300216675 73.5206687927246 L 94.6 74.0 L 92.8 78.3 L 90.8 82.5 L 88.6 86.6 L 86.3 90.7 L 83.7 94.7 L 80.9 98.5 L 77.9 102.3 L 74.6 106.0 L 71.1 109.5 L 69.6 108.4 L 71.7 104.0 L 73.6 99.6 L 75.5 95.4 L 77.2 91.2 L 78.8 87.0 L 80.3 82.9 L 81.6 78.8 L 82.8 74.7 L 83.8 70.6 L 84.7 66.5 L 84.76444444656372 66.51777782440186 L 85.2 64.9 Z M 122.0 100.4 L 120.6 102.5 L 119.0 104.3 L 117.0 105.9 L 114.9 107.2 L 112.7 108.2 L 110.3 108.9 L 107.8 109.3 L 105.3 109.5 L 105.3 103.5 L 85.3 100.5 L 85.3 97.5 L 105.3 97.5 L 106.6 97.4 L 107.7 97.2 L 108.6 96.9 L 109.4 96.6 L 110.0 96.2 L 110.6 95.7 L 111.1 95.1 L 111.7 94.3 L 112.2 93.3 L 112.6 92.1 L 113.3 89.8 L 113.9 87.2 L 114.4 84.2 L 114.8 80.9 L 115.1 77.2 L 115.4 73.3 L 115.5 69.0 L 115.6 64.4 L 115.59041318893432 63.92066116333008 L 115.4 64.0 L 115.4 56.0 L 84.2852873802185 56.0 L 83.7 59.8 L 70.9 63.9 L 78.9 12.4 L 90.4 16.3 L 93.1 18.7 L 89.87081127166748 19.73577747344971 L 88.2898850440979 30.0 L 110.31818180084228 30.0 L 118.5 21.0 L 128.5 30.0 L 128.5 34.0 L 87.67379312515259 34.0 L 84.90137929916382 52.0 L 115.4 52.0 L 121.4 47.0 L 132.4 56.0 L 127.49532375335693 58.942805767059326 L 127.5 59.2 L 127.6 64.3 L 127.5 69.2 L 127.4 73.8 L 127.1 78.2 L 126.7 82.2 L 126.2 86.0 L 125.6 89.5 L 124.9 92.8 L 124.0 95.8 L 123.1 98.2 Z " />
</g>
</svg>
