<svg xmlns="http://www.w3.org/2000/svg" xmlns:xlink="http://www.w3.org/1999/xlink" version="1.1" baseProfile="full" viewBox="0 0 200 200" width="200" height="200">
<g fill="black">
<path d="M 174.2 187.6 L 163.5 183.2 L 153.7 178.1 L 144.9 172.3 L 137.0 165.6 L 136.47182321548462 165.02521934509278 L 131.7 168.3 L 120.2 174.3 L 107.6 179.3 L 93.8 183.2 L 78.8 186.0 L 78.4 184.3 L 92.7 179.6 L 105.6 174.3 L 117.2 168.4 L 127.5 161.9 L 131.03638582229615 159.1101845741272 L 130.2 158.2 L 124.4 150.2 L 119.7 141.4 L 116.2 132.1 L 113.8 122.1 L 112.79339618682862 112.4 L 97.7 112.4 L 97.7 108.4 L 162.8 108.4 L 168.8 103.4 L 179.8 112.4 L 174.8 115.4 L 173.17419357299804 116.07741937637329 L 170.7 123.5 L 165.4 134.4 L 158.9 144.3 L 151.0 153.3 L 144.88420362472533 158.6765242576599 L 151.2 163.2 L 159.4 167.8 L 168.4 171.7 L 185.8 177.5 Z M 22.1 148.8 L 28.4 147.3 L 33.8 145.9721311569214 L 33.8 108.2 L 45.8 110.2 L 48.8 112.2 L 45.8 114.0 L 45.8 143.10655736923218 L 46.7 142.9 L 52.7 141.5 L 58.6 140.1 L 70.2 137.7 L 75.98987197875977 136.70174617767333 L 76.3 135.5 L 77.5 125.7 L 77.6 115.4 L 77.146875 105.79375 L 77.1 105.8 L 77.0 102.6 L 89.1 104.2 L 92.2 106.1 L 89.06506814956666 108.14730243682861 L 89.0 115.5 L 88.1 126.7 L 86.1 137.7 L 82.6 148.2 L 77.4 157.9 L 70.1 166.7 L 60.6 174.2 L 48.8 180.2 L 34.5 184.6 L 17.4 187.1 L 17.1 185.4 L 33.5 180.9 L 46.6 175.3 L 56.9 168.8 L 64.6 161.5 L 70.1 153.5 L 73.9 144.8 L 74.77109909057617 141.4244912147522 L 71.8 142.8 L 66.4 145.1 L 60.8 147.4 L 49.4 151.8 L 43.5 153.9 L 37.6 156.1 L 31.6 158.2 L 29.42789316177368 158.94777450561523 L 28.3 162.6 L 25.5 160.3 L 20.2 149.4 Z M 114.81632652282715 112.4 L 117.8 121.0 L 121.7 129.9 L 126.1 138.0 L 131.3 145.4 L 137.2 152.0 L 138.29648122787475 152.9801877975464 L 144.2 147.0 L 150.7 138.5 L 156.0 129.4 L 160.0 119.5 L 162.00943393707274 112.4 Z M 105.0 20.4 L 105.3 24.0 L 101.26359834671021 22.532217597961427 L 100.4 23.0 L 97.9 24.4 L 95.3 25.8 L 92.5 27.3 L 89.6 28.8 L 86.6 30.3 L 83.3 31.9 L 83.07333335876464 32.0 L 151.3 32.0 L 157.3 27.0 L 168.3 36.0 L 163.3 40.0 L 163.3 93.5 L 151.3 99.5 L 151.3 91.5 L 48.4 91.5 L 48.4 94.5 L 36.4 100.5 L 36.4 26.0 L 48.4 32.0 L 77.40769233703614 32.0 L 78.3 31.2 L 80.8 28.5 L 83.3 25.9 L 85.7 23.5 L 88.0 21.1 L 90.1 18.9 L 92.1 16.8 L 94.0 14.8 L 95.8 12.9 L 96.73884296417236 11.843801689147949 L 96.6 11.7 L 97.5 11.0 Z M 48.4 36.0 L 48.4 87.5 L 151.3 87.5 L 151.3 36.0 Z M 117.1 75.0 L 113.1671233177185 72.28767127990723 L 112.7 72.5 L 105.4 75.4 L 97.6 78.0 L 89.1 80.3 L 79.9 82.3 L 70.2 83.8 L 69.7 82.1 L 78.9 78.6 L 87.4 75.2 L 95.3 71.8 L 102.4 68.4 L 104.97425746917725 67.01386137008667 L 99.0 63.6 L 92.78888893127441 60.25555553436279 L 92.1 60.6 L 86.0 63.2 L 79.5 65.6 L 72.6 67.8 L 65.1 69.6 L 57.2 71.1 L 56.7 69.3 L 63.9 66.0 L 70.7 62.8 L 76.9 59.6 L 82.7 56.4 L 83.47841634750367 55.93001279830933 L 78.6 53.8 L 71.3 50.8 L 63.7 47.9 L 64.1 46.1 L 72.3 47.2 L 80.3 48.7 L 88.0 50.8 L 90.40406093597412 51.54720811843872 L 92.8 49.9 L 97.0 46.6 L 100.8 43.2 L 104.0 39.9 L 106.7 36.5 L 106.70931177139282 36.50789470672608 L 107.1 36.0 L 115.9 44.3 L 116.9 47.7 L 112.96055269241333 47.088706493377686 L 112.0 48.0 L 107.7 51.5 L 102.9 54.7 L 101.59685401916504 55.47687549591065 L 102.7 55.9 L 109.7 59.0 L 114.67568702697754 61.41467161178589 L 114.7 61.4 L 119.7 57.8 L 124.1 54.2 L 127.7 50.5 L 130.03310108184814 47.622508716583255 L 130.0 47.6 L 131.1 46.3 L 140.0 54.4 L 141.0 57.8 L 137.08203067779542 57.250109577178954 L 135.7 58.6 L 130.8 62.5 L 125.4 66.1 L 124.18998489379882 66.77443466186523 L 129.3 70.1 L 135.4 74.4 L 137.5 78.4 L 136.3 82.8 L 132.2 84.9 L 127.8 83.7 L 122.6 79.2 Z " />
</g>
</svg>
