<svg xmlns="http://www.w3.org/2000/svg" xmlns:xlink="http://www.w3.org/1999/xlink" version="1.1" baseProfile="full" viewBox="0 0 200 200" width="200" height="200">
<g fill="black">
<path d="M 138.6 176.0 L 158.6 176.0 L 159.9 175.9 L 160.8 175.7 L 161.7 175.4 L 161.9 175.2 L 162.0 175.0 L 162.2 174.7 L 162.4 174.1 L 162.6 173.2 L 162.6 14.0 L 174.6 16.0 L 177.6 18.0 L 174.6 19.8 L 174.6 172.0 L 174.5 174.5 L 174.0 177.0 L 173.2 179.4 L 172.0 181.7 L 170.4 183.7 L 168.3 185.3 L 166.1 186.6 L 163.7 187.4 L 161.2 187.8 L 158.6 188.0 L 158.6 182.0 L 138.6 179.0 Z M 127.2 31.0 L 130.2 33.0 L 127.2 34.8 L 127.2 149.0 L 115.2 155.0 L 115.2 29.0 Z M 36.2 42.0 L 72.1 42.0 L 78.1 37.0 L 89.1 46.0 L 84.1 50.0 L 84.1 140.0 L 72.1 146.0 L 72.1 134.0 L 36.2 134.0 L 36.2 146.0 L 24.2 152.0 L 24.2 36.0 Z M 36.2 46.0 L 36.2 130.0 L 72.1 130.0 L 72.1 46.0 Z " />
</g>
</svg>
