<svg xmlns="http://www.w3.org/2000/svg" xmlns:xlink="http://www.w3.org/1999/xlink" version="1.1" baseProfile="full" viewBox="0 0 200 200" width="200" height="200">
<g fill="black">
<path d="M 84.8 74.6 L 77.9 81.6 L 70.5 88.6 L 69.1 87.3 L 75.1 79.2 L 80.7 71.2 L 86.0 63.5 L 90.8 56.0 L 95.3 48.6 L 99.3 41.4 L 102.9 34.3 L 106.1 27.3 L 108.8 20.5 L 110.77906341552735 14.82094841003418 L 110.7 14.8 L 111.6 12.4 L 122.4 17.9 L 124.5 20.8 L 120.79306125640869 21.58040819168091 L 119.3 25.0 L 115.7 32.0 L 145.7 32.0 L 146.11538457870483 31.653846168518065 L 146.2 31.4 L 146.34135513305665 31.465537357330323 L 151.7 27.0 L 162.7 36.0 L 157.7 39.0 L 154.96197185516357 40.140845108032224 L 153.3 42.8 L 151.2 45.9 L 149.0 49.0 L 146.7 52.2 L 144.4 55.3 L 141.8 58.4 L 139.2 61.4 L 136.3 64.4 L 135.75806455612184 65.0 L 163.3 65.0 L 173.3 55.0 L 185.3 65.0 L 185.3 69.0 L 102.1 69.0 L 102.1 101.0 L 101.4 113.5 L 100.2 125.2 L 98.3 136.1 L 95.7 146.3 L 92.4 155.6 L 88.5 164.1 L 84.0 171.7 L 78.7 178.4 L 72.7 184.1 L 66.2 188.7 L 65.0 187.2 L 70.0 181.4 L 74.4 175.2 L 78.3 168.4 L 81.6 160.9 L 84.4 152.8 L 86.7 144.0 L 88.4 134.4 L 89.5 124.0 L 90.1 112.9 L 90.1 68.7203125 Z M 28.8 42.0 L 52.9 42.0 L 58.9 37.0 L 69.9 46.0 L 64.9 50.0 L 64.9 140.0 L 52.9 146.0 L 52.9 134.0 L 28.8 134.0 L 28.8 146.0 L 16.8 152.0 L 16.8 36.0 Z M 132.2 137.0 L 152.2 137.0 L 153.4 136.9 L 154.3 136.7 L 154.9 136.5 L 155.3 136.4 L 155.5 136.2 L 155.6 136.0 L 155.8 135.7 L 156.0 135.1 L 156.1 134.2 L 156.2 133.0 L 156.2 97.0 L 127.3 97.0 L 127.3 167.2 L 127.5 168.1 L 127.8 169.0 L 128.2 169.4 L 129.1 169.7 L 130.0 169.9 L 131.3 170.0 L 175.1 170.0 L 181.1 145.0 L 183.1 145.0 L 181.1 170.0 L 184.7 172.4 L 187.1 176.0 L 184.7 179.6 L 181.1 182.0 L 131.3 182.0 L 128.7 181.8 L 126.2 181.4 L 123.8 180.6 L 121.5 179.3 L 119.5 177.7 L 117.9 175.7 L 116.6 173.4 L 115.8 171.0 L 115.4 168.5 L 115.3 166.0 L 115.3 87.0 L 127.3 93.0 L 156.2 93.0 L 162.2 88.0 L 173.2 97.0 L 168.2 101.0 L 168.2 133.0 L 168.1 135.5 L 167.6 138.0 L 166.8 140.4 L 165.6 142.7 L 163.9 144.7 L 161.9 146.3 L 159.7 147.6 L 157.3 148.4 L 154.8 148.8 L 152.2 149.0 L 152.2 143.0 L 132.2 140.0 Z M 28.8 46.0 L 28.8 130.0 L 52.9 130.0 L 52.9 46.0 Z M 113.50281686782837 36.0 L 111.8 39.1 L 107.3 46.1 L 102.4 53.2 L 97.0 60.4 L 95.81099996566772 61.855500030517575 L 102.1 65.0 L 132.74324321746826 65.0 L 133.8 62.7 L 135.3 59.0 L 136.9 55.3 L 138.4 51.7 L 139.9 48.2 L 141.3 44.8 L 143.9 38.0 L 144.62727270126342 36.0 Z " />
</g>
</svg>
