<svg xmlns="http://www.w3.org/2000/svg" xmlns:xlink="http://www.w3.org/1999/xlink" version="1.1" baseProfile="full" viewBox="0 0 200 200" width="200" height="200">
<g fill="black">
<path d="M 48.0 133.0 L 152.0 133.0 L 158.0 128.0 L 169.0 137.0 L 164.0 141.0 L 164.0 180.0 L 152.0 186.0 L 152.0 176.0 L 48.0 176.0 L 48.0 183.0 L 36.0 189.0 L 36.0 127.0 Z M 48.0 137.0 L 48.0 172.0 L 152.0 172.0 L 152.0 137.0 Z M 72.0 108.9 L 72.1 109.6 L 72.2 110.0 L 72.3 110.3 L 72.5 110.6 L 72.9 111.0 L 73.6 111.3 L 74.6 111.6 L 76.0 111.7 L 146.0 111.7 L 151.0 94.7 L 153.0 94.7 L 151.0 111.7 L 154.0 113.7 L 156.0 116.7 L 154.0 119.7 L 151.0 121.7 L 73.5 121.7 L 71.1 121.4 L 68.8 120.7 L 66.6 119.6 L 64.6 118.1 L 62.9 116.2 L 61.6 114.1 L 60.7 111.7 L 60.58461542129517 111.14615383148194 L 49.3 116.2 L 32.2 122.2 L 14.2 127.0 L 13.7 125.3 L 30.9 118.6 L 47.1 111.3 L 60.0 104.43116884231567 L 60.0 39.5 L 72.0 41.5 L 75.0 43.5 L 72.0 45.3 L 72.0 97.2689655303955 L 77.0 94.2 L 90.5 84.3 L 103.2 73.6 L 115.1 62.1 L 126.0 49.6 L 136.1 36.2 L 145.3 21.9 L 145.32148275375366 21.913479328155518 L 145.8 21.1 L 155.5 28.3 L 157.0 31.5 L 153.26438360214235 31.5 L 145.3 42.9 L 134.2 56.5 L 122.2 69.1 L 109.3 80.7 L 95.6 91.2 L 81.0 100.6 L 72.0 105.45064935684204 L 72.0 106.7 L 71.9 108.0 Z M 14.3 97.9 L 13.8 93.4 L 16.6 89.8 L 20.2 87.9 L 23.2 85.7 L 25.8 83.3 L 28.0 80.5 L 29.8 77.3 L 31.2 73.7 L 32.1 69.5 L 32.7 64.8 L 32.8 59.6 L 32.3 53.8 L 34.1 53.3 L 36.1 59.0 L 37.6 64.5 L 38.3 69.8 L 38.3 74.9 L 37.6 79.9 L 36.0 84.7 L 33.7 89.1 L 30.7 93.3 L 26.9 97.0 L 22.5 100.2 L 18.0 100.7 Z M 173.6 86.9 L 172.5 83.8 L 170.9 80.6 L 168.8 77.3 L 166.1 74.0 L 163.0 70.6 L 159.3 67.1 L 155.1 63.5 L 150.4 59.9 L 151.3 58.3 L 156.9 60.6 L 162.1 63.0 L 166.8 65.7 L 171.1 68.7 L 174.9 71.8 L 178.2 75.2 L 181.1 78.9 L 183.4 82.8 L 185.2 87.0 L 186.5 91.3 L 185.3 95.7 L 181.4 98.1 L 177.0 96.9 L 174.6 93.0 L 174.3 90.0 Z M 100.7 34.8 L 98.1 32.3 L 95.0 29.8 L 91.3 27.3 L 87.2 24.8 L 82.5 22.3 L 77.4 19.8 L 71.8 17.2 L 65.7 14.6 L 66.1 12.8 L 72.8 13.7 L 79.1 14.8 L 84.9 16.3 L 90.2 17.9 L 95.2 19.8 L 99.7 21.9 L 103.9 24.1 L 107.7 26.7 L 111.0 29.4 L 114.0 32.4 L 115.0 36.9 L 112.7 40.8 L 108.3 41.9 L 104.3 39.6 L 102.8 37.2 Z " />
</g>
</svg>
