<svg xmlns="http://www.w3.org/2000/svg" xmlns:xlink="http://www.w3.org/1999/xlink" version="1.1" baseProfile="full" viewBox="0 0 200 200" width="200" height="200">
<g fill="black">
<path d="M 89.8 26.0 L 169.6 26.0 L 179.6 16.0 L 191.6 26.0 L 191.6 30.0 L 89.8 30.0 L 89.8 91.0 L 89.3 105.0 L 88.5 118.2 L 87.4 130.4 L 85.9 141.7 L 84.1 152.1 L 81.9 161.6 L 79.4 170.1 L 76.4 177.6 L 73.0 184.1 L 69.1 189.4 L 67.6 188.5 L 69.5 182.5 L 71.4 175.8 L 73.0 168.4 L 74.5 160.0 L 75.7 150.8 L 76.7 140.7 L 77.4 129.6 L 77.8 117.6 L 77.9 104.8 L 77.8 91.0 L 77.8 20.0 Z M 182.6 58.0 L 182.6 62.0 L 148.2 62.0 L 148.2 109.4 L 169.3 109.4 L 179.3 99.4 L 191.3 109.4 L 191.3 113.4 L 148.2 113.4 L 148.2 181.7 L 136.2 187.7 L 136.2 113.4 L 93.1 113.4 L 93.1 109.4 L 136.2 109.4 L 136.2 62.0 L 101.8 62.0 L 101.8 58.0 L 160.6 58.0 L 170.6 48.0 Z M 27.6 42.0 L 49.8 42.0 L 55.8 37.0 L 66.8 46.0 L 61.8 50.0 L 61.8 140.0 L 49.8 146.0 L 49.8 134.0 L 27.6 134.0 L 27.6 146.0 L 15.6 152.0 L 15.6 36.0 Z M 27.6 46.0 L 27.6 130.0 L 49.8 130.0 L 49.8 46.0 Z " />
</g>
</svg>
