<svg xmlns="http://www.w3.org/2000/svg" xmlns:xlink="http://www.w3.org/1999/xlink" version="1.1" baseProfile="full" viewBox="0 0 200 200" width="200" height="200">
<g fill="black">
<path d="M 110.3 17.6 L 112.6 20.3 L 109.08627452850342 21.241176509857176 L 106.6 28.7 L 102.8 39.6 L 98.9 50.2 L 94.7 60.6 L 90.4 70.8 L 89.31468753814697 73.13578128814697 L 94.5 74.0 L 97.5 76.0 L 94.5 77.8 L 94.5 183.0 L 82.5 189.0 L 82.5 87.440425491333 L 81.1 90.3 L 76.1 99.7 L 70.8 108.7 L 65.1 117.4 L 63.5 116.5 L 67.4 107.0 L 71.2 97.4 L 75.1 87.6 L 78.8 77.7 L 82.5 67.6 L 86.0 57.4 L 89.4 46.9 L 92.6 36.2 L 95.8 25.3 L 98.45956039428711 15.212012195587159 L 98.4 15.2 L 99.2 12.6 Z M 104.1 171.2 L 137.0 171.2 L 137.0 86.0 L 98.3 86.0 L 98.3 82.0 L 137.0 82.0 L 137.0 18.4 L 149.0 20.4 L 152.0 22.4 L 149.0 24.2 L 149.0 82.0 L 165.6 82.0 L 175.6 72.0 L 187.6 82.0 L 187.6 86.0 L 149.0 86.0 L 149.0 171.2 L 159.9 171.2 L 169.9 161.2 L 181.9 171.2 L 181.9 175.2 L 104.1 175.2 Z M 27.6 42.0 L 49.8 42.0 L 55.8 37.0 L 66.8 46.0 L 61.8 50.0 L 61.8 140.0 L 49.8 146.0 L 49.8 134.0 L 27.6 134.0 L 27.6 146.0 L 15.6 152.0 L 15.6 36.0 Z M 27.6 46.0 L 27.6 130.0 L 49.8 130.0 L 49.8 46.0 Z " />
</g>
</svg>
