<svg xmlns="http://www.w3.org/2000/svg" xmlns:xlink="http://www.w3.org/1999/xlink" version="1.1" baseProfile="full" viewBox="0 0 200 200" width="200" height="200">
<g fill="black">
<path d="M 116.9 118.3 L 119.7 120.5 L 116.37424411773682 122.26069431304931 L 115.4 129.6 L 112.9 140.0 L 109.4 149.5 L 104.8 158.2 L 99.3 165.8 L 92.8 172.4 L 85.3 177.9 L 77.0 182.4 L 67.9 185.7 L 57.9 187.8 L 57.4 186.1 L 66.5 182.1 L 74.5 177.7 L 81.5 172.6 L 87.5 166.9 L 92.6 160.6 L 96.7 153.6 L 100.0 145.8 L 102.5 137.2 L 104.1 127.9 L 104.82237319946289 118.59944524765015 L 104.8 118.6 L 105.0 115.4 Z M 182.0 148.0 L 184.0 148.0 L 182.0 173.0 L 185.6 175.4 L 188.0 179.0 L 185.6 182.6 L 182.0 185.0 L 154.2 185.0 L 151.7 184.8 L 149.2 184.4 L 146.8 183.6 L 144.5 182.3 L 142.5 180.7 L 140.8 178.7 L 139.6 176.4 L 138.8 174.0 L 138.4 171.5 L 138.2 169.0 L 138.2 116.0 L 150.2 118.0 L 153.2 120.0 L 150.2 121.8 L 150.2 169.0 L 150.3 170.2 L 150.5 171.1 L 150.6 171.7 L 150.8 172.0 L 151.2 172.4 L 152.1 172.7 L 153.0 172.9 L 154.2 173.0 L 176.0 173.0 Z M 28.8 42.0 L 52.9 42.0 L 58.9 37.0 L 69.9 46.0 L 64.9 50.0 L 64.9 140.0 L 52.9 146.0 L 52.9 134.0 L 28.8 134.0 L 28.8 146.0 L 16.8 152.0 L 16.8 36.0 Z M 28.8 46.0 L 28.8 130.0 L 52.9 130.0 L 52.9 46.0 Z M 167.4 109.7 L 162.7 105.7 L 158.0 101.3 L 153.3 96.2 L 148.6 90.6 L 144.0 84.5 L 139.4 77.7 L 135.0 70.4 L 133.6 67.76279067993164 L 133.6 112.0 L 121.6 118.0 L 121.6 75.73999996185303 L 120.0 78.3 L 115.2 85.1 L 110.1 91.6 L 104.7 97.7 L 99.0 103.4 L 92.9 108.7 L 86.5 113.6 L 79.7 117.9 L 72.6 121.7 L 71.6 120.2 L 77.5 114.9 L 83.1 109.4 L 88.4 103.9 L 93.5 98.2 L 98.3 92.2 L 102.7 86.0 L 106.9 79.5 L 110.8 72.8 L 114.4 65.7 L 115.6063829421997 63.0 L 74.3 63.0 L 74.3 59.0 L 121.6 59.0 L 121.6 34.8160493850708 L 118.8 35.3 L 110.2 36.6 L 101.3 37.6 L 91.9 38.4 L 82.2 38.8 L 81.9 37.1 L 91.3 34.6 L 100.3 32.3 L 109.0 30.1 L 117.2 27.9 L 125.0 25.7 L 132.4 23.4 L 139.3 21.1 L 145.9 18.7 L 152.0 16.2 L 156.83260869979858 14.165217399597168 L 156.8 14.1 L 156.86062421798707 14.153421401977539 L 157.7 13.8 L 158.3894254684448 15.500582885742187 L 166.9 23.0 L 167.1 26.2 L 163.13999996185302 24.519999980926514 L 162.2 24.9 L 155.9 27.0 L 149.2 28.9 L 142.2 30.7 L 134.7 32.4 L 133.6 32.6115385055542 L 133.6 59.0 L 161.1 59.0 L 171.1 49.0 L 183.1 59.0 L 183.1 63.0 L 133.77121210098267 63.0 L 138.3 67.9 L 144.1 74.1 L 149.5 79.8 L 154.8 85.0 L 159.9 89.6 L 164.8 93.6 L 169.5 97.1 L 174.0 99.9 L 178.4 102.2 L 182.5 103.9 L 188.4 106.6 L 177.0 116.0 L 172.2 113.1 Z " />
</g>
</svg>
