<svg xmlns="http://www.w3.org/2000/svg" xmlns:xlink="http://www.w3.org/1999/xlink" version="1.1" baseProfile="full" viewBox="0 0 200 200" width="200" height="200">
<g fill="black">
<path d="M 124.4 176.2 L 145.6 176.2 L 146.5 176.0 L 147.1 175.8 L 147.4 175.6 L 147.6 175.5 L 147.8 175.3 L 148.1 174.4 L 148.3 173.5 L 148.4 172.2 L 148.4 95.6 L 87.2 95.6 L 87.2 91.6 L 148.4 91.6 L 148.4 53.8 L 160.4 55.8 L 163.4 57.8 L 160.4 59.6 L 160.4 91.6 L 163.8181818008423 91.6 L 172.0 82.6 L 182.0 91.6 L 182.0 95.6 L 160.4 95.6 L 160.4 172.2 L 160.2 174.8 L 159.8 177.3 L 159.0 179.7 L 157.7 181.9 L 156.1 184.0 L 154.1 185.6 L 151.8 186.8 L 149.4 187.6 L 146.9 188.1 L 144.4 188.2 L 144.4 182.2 L 124.4 179.2 Z M 30.0 42.0 L 56.0 42.0 L 62.0 37.0 L 73.0 46.0 L 68.0 50.0 L 68.0 140.0 L 56.0 146.0 L 56.0 134.0 L 30.0 134.0 L 30.0 146.0 L 18.0 152.0 L 18.0 36.0 Z M 117.0 134.5 L 116.3 131.7 L 115.4 128.8 L 114.3 126.0 L 113.0 123.1 L 111.6 120.2 L 109.9 117.2 L 108.1 114.1 L 105.9 111.3 L 107.1 110.0 L 110.1 112.2 L 113.2 114.3 L 116.0 116.7 L 118.5 119.2 L 120.9 121.9 L 123.1 124.8 L 125.0 127.8 L 126.8 130.9 L 128.3 134.2 L 129.5 137.6 L 128.7 142.1 L 125.0 144.7 L 120.5 143.9 L 117.8 140.2 L 117.5 137.4 Z M 30.0 46.0 L 30.0 130.0 L 56.0 130.0 L 56.0 46.0 Z M 81.5 78.0 L 79.6 73.8 L 81.2 69.5 L 82.3 68.7 L 83.5 67.2 L 84.8 65.0 L 86.0 62.3 L 87.2 58.9 L 88.2 55.0 L 89.2 50.6 L 90.1 45.7 L 91.0 40.2 L 91.7 34.2 L 93.5 34.2 L 94.2 40.2 L 94.63157892227173 44.3 L 128.0 44.3 L 128.0 14.5 L 140.0 16.5 L 143.0 18.5 L 140.0 20.3 L 140.0 44.3 L 173.6 44.3 L 179.6 39.3 L 190.6 48.3 L 185.6 51.3 L 182.8888889312744 52.42962961196899 L 182.8 52.6 L 181.4 54.9 L 179.9 57.4 L 178.2 59.9 L 176.5 62.6 L 174.6 65.4 L 172.6 68.3 L 170.4 71.2 L 168.4 74.4 L 166.7 73.7 L 168.0 70.1 L 168.8 66.5 L 169.7 63.1 L 170.5 59.9 L 171.3 56.9 L 171.9 54.1 L 172.6 51.4 L 173.1 48.8 L 173.18695650100707 48.3 L 94.98461542129516 48.3 L 95.2 51.1 L 95.2 55.9 L 95.1 60.3 L 94.7 64.4 L 94.0 68.2 L 93.1 71.6 L 91.8 74.8 L 90.0 77.6 L 85.8 79.5 Z " />
</g>
</svg>
