<svg xmlns="http://www.w3.org/2000/svg" xmlns:xlink="http://www.w3.org/1999/xlink" version="1.1" baseProfile="full" viewBox="0 0 200 200" width="200" height="200">
<g fill="black">
<path d="M 172.7 96.4 L 172.7 100.4 L 134.5 100.4 L 134.5 132.6 L 160.1 132.6 L 170.1 122.6 L 182.1 132.6 L 182.1 136.6 L 134.5 136.6 L 134.5 183.3 L 122.5 189.3 L 122.5 136.6 L 74.8 136.6 L 74.8 132.6 L 122.5 132.6 L 122.5 100.4 L 84.2 100.4 L 84.2 96.4 L 150.7 96.4 L 160.7 86.4 Z M 28.2 42.0 L 51.3 42.0 L 57.3 37.0 L 68.3 46.0 L 63.3 50.0 L 63.3 140.0 L 51.3 146.0 L 51.3 134.0 L 28.2 134.0 L 28.2 146.0 L 16.2 152.0 L 16.2 36.0 Z M 28.2 46.0 L 28.2 130.0 L 51.3 130.0 L 51.3 46.0 Z M 117.7 38.4 L 120.6 40.6 L 117.05335569381714 42.441526889801025 L 116.5 45.9 L 114.6 53.0 L 112.0 59.7 L 108.8 65.8 L 104.8 71.4 L 100.2 76.4 L 95.0 80.9 L 89.1 84.8 L 82.7 88.0 L 75.6 90.5 L 74.9 88.8 L 80.8 84.7 L 86.0 80.4 L 90.6 76.0 L 94.5 71.4 L 97.9 66.5 L 100.6 61.4 L 102.7 55.9 L 104.3 50.2 L 105.3 44.1 L 105.72310657501221 38.59961490631103 L 105.7 38.6 L 105.9 35.4 Z M 180.3 46.6 L 182.3 46.6 L 180.3 67.6 L 183.6 69.8 L 185.8 73.1 L 183.6 76.4 L 180.3 78.6 L 151.8 78.6 L 149.2 78.5 L 146.8 78.1 L 144.4 77.4 L 142.2 76.2 L 140.2 74.6 L 138.5 72.7 L 137.3 70.5 L 136.4 68.1 L 135.9 65.6 L 135.8 63.1 L 135.8 29.5 L 85.03888893127441 29.5 L 85.2 32.4 L 85.2 37.4 L 84.9 41.9 L 84.4 46.1 L 83.6 50.0 L 82.5 53.5 L 81.0 56.8 L 79.0 59.7 L 74.7 61.4 L 70.5 59.7 L 68.8 55.5 L 70.5 51.3 L 71.7 50.3 L 73.0 48.8 L 74.4 46.6 L 75.7 43.8 L 77.0 40.4 L 78.1 36.4 L 79.1 31.9 L 80.1 26.8 L 81.0 21.3 L 81.7 15.2 L 83.5 15.1 L 84.2 21.3 L 84.71578950881958 25.5 L 173.0 25.5 L 179.0 20.5 L 190.0 29.5 L 185.0 32.5 L 182.1848340988159 33.67298574447632 L 182.0 34.0 L 180.5 36.4 L 178.9 38.9 L 177.1 41.5 L 175.3 44.2 L 173.3 47.1 L 171.1 50.0 L 168.7 53.0 L 166.5 56.3 L 164.9 55.4 L 166.3 51.8 L 167.3 48.1 L 168.3 44.6 L 169.3 41.3 L 170.2 38.3 L 171.0 35.3 L 171.8 32.6 L 172.4 30.0 L 172.5041666984558 29.5 L 147.8 29.5 L 147.8 64.3 L 147.9 65.2 L 148.0 65.9 L 148.3 66.5 L 148.5 66.7 L 148.9 67.0 L 149.5 67.2 L 150.5 67.5 L 151.8 67.6 L 174.8 67.6 Z " />
</g>
</svg>
