<svg xmlns="http://www.w3.org/2000/svg" xmlns:xlink="http://www.w3.org/1999/xlink" version="1.1" baseProfile="full" viewBox="0 0 200 200" width="200" height="200">
<g fill="black">
<path d="M 124.0 177.0 L 144.0 177.0 L 145.3 176.9 L 146.2 176.7 L 147.1 176.4 L 147.3 176.2 L 147.4 176.0 L 147.6 175.7 L 147.8 175.1 L 148.0 174.2 L 148.0 75.0 L 119.8 75.0 L 119.8 71.0 L 165.5 71.0 L 175.5 61.0 L 187.5 71.0 L 187.5 75.0 L 160.0 75.0 L 160.0 173.0 L 159.9 175.5 L 159.4 178.0 L 158.6 180.4 L 157.4 182.7 L 155.8 184.7 L 153.8 186.3 L 151.5 187.6 L 149.1 188.4 L 146.6 188.8 L 144.0 189.0 L 144.0 183.0 L 124.0 180.0 Z M 60.5 174.0 L 66.8 171.9 L 68.3 171.4078125 L 68.3 103.0 L 78.3 105.0 L 80.8 107.0 L 78.3 108.66666669845581 L 78.3 168.1265625 L 86.0 165.6 L 87.7 165.0246153831482 L 87.7 90.0 L 58.9 90.0 L 58.9 86.0 L 87.7 86.0 L 87.7 46.0 L 79.51587305068969 46.0 L 77.8 50.7 L 75.3 56.8 L 72.5 62.7 L 69.5 68.2 L 66.1 73.5 L 62.4 78.4 L 60.8 77.5 L 64.6 66.1 L 66.4 60.2 L 68.1 54.3 L 69.7 48.2 L 71.2 41.9 L 72.5 35.5 L 73.6 28.8 L 74.6 22.0 L 75.4 15.1 L 75.42367153167724 15.103381633758545 L 75.7 13.1 L 87.3 16.8 L 90.0 19.2 L 86.4883996963501 20.695681667327882 L 85.8 24.0 L 84.1 31.0 L 82.2 37.8 L 80.86363639831544 42.0 L 101.71818180084229 42.0 L 109.9 33.0 L 119.9 42.0 L 119.9 46.0 L 98.7 46.0 L 98.7 86.0 L 105.81818180084228 86.0 L 114.0 77.0 L 124.0 86.0 L 124.0 90.0 L 98.7 90.0 L 98.7 120.0 L 107.6777777671814 120.0 L 113.9 113.0 L 121.9 120.0 L 121.9 124.0 L 98.7 124.0 L 98.7 161.39692306518555 L 99.0 161.3 L 105.5 159.1 L 112.2 157.0 L 118.9 155.0 L 125.7 153.1 L 126.4 154.8 L 120.4 158.5 L 114.2 161.9 L 108.1 165.2 L 101.9 168.3 L 95.7 171.3 L 89.5 174.2 L 83.2 177.1 L 77.0 179.9 L 70.9 182.6 L 68.4383282661438 183.63231391906737 L 67.6 187.3 L 64.7 185.2 L 58.6 174.7 Z M 26.9 42.0 L 45.4 42.0 L 50.9 37.0 L 61.4 46.0 L 56.4 49.5 L 56.4 140.0 L 45.4 145.5 L 45.4 134.0 L 26.9 134.0 L 26.9 146.0 L 14.9 152.0 L 14.9 36.0 Z M 26.9 46.0 L 26.9 130.0 L 45.4 130.0 L 45.4 46.0 Z M 180.7 30.0 L 180.7 34.0 L 124.7 34.0 L 124.7 30.0 L 158.7 30.0 L 168.7 20.0 Z " />
</g>
</svg>
