<svg xmlns="http://www.w3.org/2000/svg" xmlns:xlink="http://www.w3.org/1999/xlink" version="1.1" baseProfile="full" viewBox="0 0 200 200" width="200" height="200">
<g fill="black">
<path d="M 112.3 153.2 L 113.6 156.6 L 109.66535167694092 156.3286449432373 L 109.1 157.0 L 105.7 160.8 L 102.1 164.4 L 98.3 168.0 L 94.3 171.5 L 90.0 174.8 L 85.5 178.1 L 80.8 181.2 L 75.8 184.0 L 70.5 186.7 L 69.4 185.2 L 73.5 181.0 L 77.5 177.0 L 81.3 173.0 L 84.9 169.2 L 88.4 165.4 L 91.6 161.5 L 94.6 157.7 L 97.5 153.9 L 100.1 150.1 L 101.96912851333619 147.14054651260375 L 101.9 147.1 L 102.9 145.6 Z M 165.6 175.4 L 163.5 171.8 L 161.2 168.3 L 158.8 165.0 L 156.3 161.7 L 153.5 158.5 L 150.6 155.4 L 147.6 152.2 L 144.3 149.2 L 145.3 147.7 L 149.5 149.5 L 153.6 151.4 L 157.5 153.8 L 161.3 156.5 L 164.8 159.4 L 168.2 162.5 L 171.4 165.9 L 174.4 169.6 L 177.2 173.4 L 179.9 177.5 L 180.2 182.1 L 177.3 185.6 L 172.8 186.0 L 169.2 183.1 L 167.5 179.2 Z M 29.6 42.0 L 51.8 42.0 L 57.8 37.0 L 68.8 46.0 L 63.8 50.0 L 63.8 140.0 L 51.8 146.0 L 51.8 134.0 L 29.6 134.0 L 29.6 146.0 L 17.6 152.0 L 17.6 36.0 Z M 70.0 135.0 L 80.0 135.0 L 80.0 22.0 L 92.0 24.0 L 95.0 26.0 L 92.0 27.8 L 92.0 135.0 L 107.0 135.0 L 107.0 38.0 L 119.0 40.0 L 122.0 42.0 L 119.0 43.8 L 119.0 135.0 L 147.0 135.0 L 147.0 98.0 L 128.0 98.0 L 128.0 94.0 L 147.0 94.0 L 147.0 59.0 L 128.0 59.0 L 128.0 55.0 L 147.0 55.0 L 147.0 13.0 L 159.0 15.0 L 162.0 17.0 L 159.0 18.8 L 159.0 55.0 L 164.0 55.0 L 174.0 45.0 L 186.0 55.0 L 186.0 59.0 L 159.0 59.0 L 159.0 94.0 L 164.0 94.0 L 174.0 84.0 L 186.0 94.0 L 186.0 98.0 L 159.0 98.0 L 159.0 135.0 L 166.0 135.0 L 176.0 125.0 L 188.0 135.0 L 188.0 139.0 L 70.0 139.0 Z M 29.6 46.0 L 29.6 130.0 L 51.8 130.0 L 51.8 46.0 Z " />
</g>
</svg>
