<svg xmlns="http://www.w3.org/2000/svg" xmlns:xlink="http://www.w3.org/1999/xlink" version="1.1" baseProfile="full" viewBox="0 0 200 200" width="200" height="200">
<g fill="black">
<path d="M 68.2 164.0 L 73.3 162.3 L 76.9 161.12307691574097 L 76.9 100.5 L 85.93636360168458 105.01818180084229 L 92.8 100.9 L 96.3 99.0 L 103.1 95.2 L 106.4 93.4 L 109.6 91.6 L 112.8 89.7 L 115.05193424224854 88.39242525100708 L 115.0 88.3 L 115.08186712265015 88.3750449180603 L 115.9 87.9 L 116.86965703964233 90.01385221481323 L 124.6 97.1 L 124.7 100.4 L 120.89153566360474 98.80290203094482 L 117.4 100.0 L 113.8 101.2 L 110.2 102.3 L 106.5 103.4 L 102.7 104.5 L 94.9 106.5 L 90.9 107.3 L 87.9 107.81219511032104 L 87.9 157.60925922393798 L 89.2 157.2 L 94.6 155.4 L 100.1 153.7 L 105.8 151.9 L 111.5 150.2 L 117.3 148.6 L 123.3 147.1 L 124.0 148.8 L 118.8 152.1 L 113.5 155.1 L 108.3 158.0 L 103.0 160.7 L 97.8 163.3 L 92.7 165.8 L 87.5 168.3 L 76.26335639953614 173.46885604858397 L 75.4 177.3 L 72.5 175.2 L 66.3 164.7 Z M 157.3 160.1 L 167.3 160.1 L 168.5 160.0 L 169.4 159.9 L 170.0 159.7 L 170.6 159.4 L 170.9 158.8 L 171.1 158.2 L 171.2 157.3 L 171.3 156.1 L 171.3 107.1 L 141.6 107.1 L 141.6 182.4 L 129.6 188.4 L 129.6 97.1 L 141.6 103.1 L 171.3 103.1 L 177.3 98.1 L 188.3 107.1 L 183.3 111.1 L 183.3 156.1 L 183.2 158.7 L 182.7 161.2 L 181.9 163.6 L 180.7 165.8 L 179.0 167.8 L 177.0 169.5 L 174.8 170.7 L 172.4 171.5 L 169.9 172.0 L 167.3 172.1 L 167.3 166.1 L 157.3 163.1 Z M 28.8 42.0 L 53.4 42.0 L 58.9 37.0 L 69.4 46.0 L 64.4 49.5 L 64.4 140.0 L 53.4 145.5 L 53.4 134.0 L 28.8 134.0 L 28.8 146.0 L 16.8 152.0 L 16.8 36.0 Z M 28.8 46.0 L 28.8 130.0 L 53.4 130.0 L 53.4 46.0 Z M 96.8 24.8 L 164.6 24.8 L 170.6 19.8 L 181.6 28.8 L 176.6 32.8 L 176.6 82.1 L 164.6 88.1 L 164.6 78.1 L 96.8 78.1 L 96.8 85.1 L 84.8 91.1 L 84.8 18.8 Z M 96.8 53.5 L 96.8 74.1 L 164.6 74.1 L 164.6 53.5 Z M 96.8 28.8 L 96.8 49.5 L 164.6 49.5 L 164.6 28.8 Z " />
</g>
</svg>
