<svg xmlns="http://www.w3.org/2000/svg" xmlns:xlink="http://www.w3.org/1999/xlink" version="1.1" baseProfile="full" viewBox="0 0 200 200" width="200" height="200">
<g fill="black">
<path d="M 54.7 175.0 L 74.7 175.0 L 76.0 174.9 L 76.9 174.7 L 77.8 174.4 L 78.0 174.2 L 78.1 174.0 L 78.3 173.7 L 78.5 173.1 L 78.7 172.2 L 78.7 117.31739130020142 L 74.7 120.1 L 70.1 123.4 L 68.81240787506104 124.27665843963624 L 68.6 128.1 L 65.4 126.6 L 57.5 117.3 L 59.2 116.3 L 64.1 113.7 L 69.0 111.0 L 73.9 108.4 L 78.7 105.75510206222535 L 78.7 57.0 L 60.9 57.0 L 60.9 53.0 L 78.7 53.0 L 78.7 14.0 L 90.7 16.0 L 93.7 18.0 L 90.7 19.8 L 90.7 53.0 L 94.9777777671814 53.0 L 101.2 46.0 L 109.2 53.0 L 109.2 57.0 L 90.7 57.0 L 90.7 99.18571424484253 L 93.5 97.7 L 98.5 95.1 L 103.5 92.6 L 108.6 90.2 L 109.7 91.7 L 105.7 95.7 L 101.5 99.5 L 97.2 103.1 L 92.8 106.7 L 90.7 108.32272729873657 L 90.7 171.0 L 90.6 173.5 L 90.2 176.0 L 89.3 178.4 L 88.1 180.7 L 86.5 182.7 L 84.5 184.3 L 82.2 185.6 L 79.8 186.4 L 77.3 186.8 L 74.7 187.0 L 74.7 181.0 L 54.7 178.0 Z M 189.0 172.0 L 189.0 176.0 L 96.8 176.0 L 96.8 172.0 L 167.0 172.0 L 177.0 162.0 Z M 125.8 27.6 L 163.5 27.6 L 169.5 22.6 L 180.5 31.6 L 175.5 35.6 L 175.5 146.4 L 163.5 152.4 L 163.5 140.4 L 125.8 140.4 L 125.8 152.4 L 113.8 158.4 L 113.8 21.6 Z M 26.3 42.0 L 43.4 42.0 L 49.4 37.0 L 60.4 46.0 L 55.4 50.0 L 55.4 140.0 L 43.4 146.0 L 43.4 134.0 L 26.3 134.0 L 26.3 146.0 L 14.3 152.0 L 14.3 36.0 Z M 125.8 84.4 L 125.8 136.4 L 163.5 136.4 L 163.5 84.4 Z M 26.3 46.0 L 26.3 130.0 L 43.4 130.0 L 43.4 46.0 Z M 125.8 31.6 L 125.8 80.4 L 163.5 80.4 L 163.5 31.6 Z " />
</g>
</svg>
