<svg xmlns="http://www.w3.org/2000/svg" xmlns:xlink="http://www.w3.org/1999/xlink" version="1.1" baseProfile="full" viewBox="0 0 200 200" width="200" height="200">
<g fill="black">
<path d="M 160.0 174.8 L 157.6 178.4 L 154.0 180.8 L 59.0 180.8 L 56.4 180.7 L 53.9 180.2 L 51.5 179.4 L 49.2 178.2 L 47.2 176.5 L 45.6 174.5 L 44.3 172.3 L 43.5 169.8 L 43.1 167.4 L 43.0 164.8 L 43.0 127.6 L 55.0 133.6 L 94.0 133.6 L 94.0 111.2 L 106.0 113.2 L 109.0 115.2 L 106.0 117.0 L 106.0 133.6 L 139.5 133.6 L 149.5 123.6 L 161.5 133.6 L 161.5 137.6 L 55.0 137.6 L 55.0 166.0 L 55.2 166.9 L 55.4 167.5 L 55.5 167.9 L 55.7 168.0 L 55.9 168.2 L 56.2 168.4 L 56.8 168.6 L 57.7 168.7 L 59.0 168.8 L 154.0 168.8 L 157.6 171.2 Z M 161.2 129.6 L 153.8 125.7 L 146.8 121.5 L 140.0 117.2 L 133.6 112.6 L 127.5 107.8 L 121.7 102.7 L 116.3 97.3 L 112.07931032180787 92.2 L 90.99315071105957 92.2 L 88.1 95.4 L 80.6 102.2 L 72.1 108.8 L 62.6 114.9 L 52.0 120.8 L 40.5 126.3 L 27.9 131.3 L 14.2 135.9 L 13.6 134.3 L 26.4 127.9 L 38.1 121.5 L 48.8 115.1 L 58.4 108.6 L 66.9 102.0 L 74.4 95.3 L 77.31764707565307 92.2 L 17.9 92.2 L 17.9 88.2 L 81.03382349014282 88.2 L 86.1 81.7 L 90.3 74.7 L 93.6 67.7 L 93.60771389007569 67.70336608886718 L 94.1 66.5 L 104.6 72.5 L 106.5 75.6 L 102.5908670425415 76.07179193496704 L 100.1 80.5 L 94.7 88.1 L 94.60958900451661 88.2 L 159.0 88.2 L 169.0 78.2 L 181.0 88.2 L 181.0 92.2 L 115.9307692527771 92.2 L 131.6 101.9 L 138.1 105.6 L 144.8 109.2 L 151.7 112.6 L 158.8 115.8 L 166.1 118.8 L 173.6 121.7 L 181.4 124.4 L 188.2 127.0 L 176.7 136.8 L 168.8 133.3 Z M 135.7 82.9 L 133.9 81.2 L 131.8 79.5 L 129.6 77.8 L 127.1 76.1 L 124.5 74.4 L 121.7 72.7 L 118.7 71.0 L 115.4 69.6 L 115.8 67.9 L 119.4 68.5 L 123.0 68.8 L 126.4 69.4 L 129.7 70.1 L 132.9 71.0 L 135.9 72.0 L 138.8 73.1 L 141.6 74.4 L 144.3 75.9 L 146.8 77.5 L 148.7 81.6 L 147.3 86.0 L 143.1 87.9 L 138.8 86.4 L 137.3 84.7 Z M 47.1 23.9 L 76.8 23.9 L 82.8 18.9 L 93.8 27.9 L 88.8 31.9 L 88.8 65.1 L 76.8 71.1 L 76.8 61.1 L 47.1 61.1 L 47.1 73.1 L 35.1 79.1 L 35.1 17.9 Z M 123.1 23.9 L 152.8 23.9 L 158.8 18.9 L 169.8 27.9 L 164.8 31.9 L 164.8 67.1 L 152.8 73.1 L 152.8 61.1 L 123.1 61.1 L 111.1 67.1 L 111.1 17.9 Z M 123.1 27.9 L 123.1 57.1 L 152.8 57.1 L 152.8 27.9 Z M 47.1 27.9 L 47.1 57.1 L 76.8 57.1 L 76.8 27.9 Z " />
</g>
</svg>
