<svg xmlns="http://www.w3.org/2000/svg" xmlns:xlink="http://www.w3.org/1999/xlink" version="1.1" baseProfile="full" viewBox="0 0 200 200" width="200" height="200">
<g fill="black">
<path d="M 48.0 134.6 L 152.0 134.6 L 158.0 129.6 L 169.0 138.6 L 164.0 142.6 L 164.0 179.4 L 152.0 185.4 L 152.0 175.4 L 48.0 175.4 L 48.0 182.4 L 36.0 188.4 L 36.0 128.6 Z M 48.0 138.6 L 48.0 171.4 L 152.0 171.4 L 152.0 138.6 Z M 156.0 120.4 L 146.8 116.7 L 138.4 112.2 L 135.75908508300782 110.35497722625732 L 135.4 110.6 L 126.0 115.6 L 115.9 119.7 L 104.9 123.0 L 93.1 125.4 L 80.5 126.9 L 80.2 125.1 L 92.2 121.7 L 103.3 117.9 L 113.4 113.6 L 122.5 108.8 L 128.58951148986816 104.86409616470337 L 124.7 101.4 L 119.4 95.0 L 115.1 88.0 L 112.1 80.5 L 110.56999998092651 73.3 L 99.9 73.3 L 99.9 69.3 L 157.7 69.3 L 158.13581085205078 68.93682432174683 L 158.2 68.8 L 158.2649582862854 68.82920141220093 L 163.7 64.3 L 174.7 73.3 L 169.7 76.3 L 167.0637909889221 77.39842042922973 L 164.2 82.6 L 158.3 90.8 L 151.6 98.2 L 144.8826530456543 103.95772590637208 L 151.0 106.5 L 159.5 109.2 L 168.9 111.3 L 179.1 112.9 L 188.9 114.4 L 177.1 126.0 L 166.1 123.5 Z M 33.8 74.5 L 72.6 74.5 L 78.6 69.5 L 89.6 78.5 L 84.6 82.5 L 84.6 108.9 L 72.6 114.9 L 72.6 108.9 L 33.8 108.9 L 33.8 120.9 L 21.8 126.9 L 21.8 68.5 Z M 33.8 78.5 L 33.8 104.9 L 72.6 104.9 L 72.6 78.5 Z M 112.87101449966431 73.3 L 115.9 78.8 L 120.1 84.9 L 124.9 90.4 L 130.3 95.2 L 136.09126949310303 99.21652565002441 L 138.0 97.7 L 144.3 91.3 L 149.8 84.4 L 154.4 76.9 L 156.08888893127443 73.3 Z M 121.2 18.4 L 148.3 18.4 L 154.3 13.4 L 165.3 22.4 L 160.3 26.4 L 160.3 46.7 L 160.2 48.0 L 160.2 48.9 L 160.3 49.6 L 160.4 50.1 L 160.5 50.5 L 160.7 50.9 L 161.1 51.3 L 161.9 51.7 L 162.9 52.0 L 164.3 52.2 L 177.0 52.2 L 181.5 39.2 L 183.5 39.2 L 181.5 52.2 L 184.2 54.0 L 186.0 56.7 L 184.2 59.4 L 181.5 61.2 L 164.3 61.2 L 161.9 61.3 L 159.5 61.0 L 157.3 60.4 L 155.1 59.4 L 153.1 57.9 L 151.4 56.1 L 150.1 54.0 L 149.2 51.7 L 148.6 49.3 L 148.3 46.7 L 148.3 22.4 L 121.2 22.4 L 121.2 36.3 L 120.5 40.7 L 119.2 45.0 L 117.3 49.0 L 114.8 52.6 L 111.7 56.0 L 108.2 59.1 L 104.2 61.9 L 99.7 64.4 L 94.7 66.7 L 89.3 68.8 L 88.4 67.1 L 93.0 63.9 L 97.0 60.5 L 100.4 57.2 L 103.2 54.0 L 105.5 50.8 L 107.2 47.8 L 108.4 44.8 L 109.1 41.9 L 109.3 39.1 L 109.2 36.3 L 109.2 12.4 Z M 15.6 58.0 L 47.2 58.0 L 47.2 38.3 L 12.3 38.3 L 12.3 34.3 L 47.2 34.3 L 47.2 10.9 L 59.2 12.9 L 62.2 14.9 L 59.2 16.7 L 59.2 34.3 L 75.4 34.3 L 85.4 24.3 L 97.4 34.3 L 97.4 38.3 L 59.2 38.3 L 59.2 58.0 L 75.91818180084229 58.0 L 84.1 49.0 L 94.1 58.0 L 94.1 62.0 L 15.6 62.0 Z " />
</g>
</svg>
