<svg xmlns="http://www.w3.org/2000/svg" xmlns:xlink="http://www.w3.org/1999/xlink" version="1.1" baseProfile="full" viewBox="0 0 200 200" width="200" height="200">
<g fill="black">
<path d="M 101.1 132.8 L 165.1 132.8 L 171.1 127.8 L 182.1 136.8 L 177.1 140.8 L 177.1 179.7 L 165.1 185.7 L 165.1 175.7 L 101.1 175.7 L 101.1 182.7 L 89.1 188.7 L 89.1 126.8 Z M 101.1 156.3 L 101.1 171.7 L 165.1 171.7 L 165.1 156.3 Z M 101.1 136.8 L 101.1 152.3 L 165.1 152.3 L 165.1 136.8 Z M 28.5 42.0 L 52.2 42.0 L 58.2 37.0 L 69.2 46.0 L 64.2 50.0 L 64.2 140.0 L 52.2 146.0 L 52.2 134.0 L 28.5 134.0 L 28.5 146.0 L 16.5 152.0 L 16.5 36.0 Z M 28.5 46.0 L 28.5 130.0 L 52.2 130.0 L 52.2 46.0 Z M 177.7 46.5 L 179.7 46.5 L 177.7 67.5 L 181.0 69.7 L 183.2 73.0 L 181.0 76.3 L 177.7 78.5 L 145.4 78.5 L 142.8 78.4 L 140.4 78.0 L 138.0 77.2 L 135.8 76.1 L 133.8 74.5 L 132.1 72.6 L 130.9 70.4 L 130.0 68.0 L 129.5 65.5 L 129.4 63.0 L 129.4 46.0 L 123.08152170181275 46.0 L 121.6 48.9 L 116.2 57.6 L 110.1 65.5 L 103.2 72.9 L 95.90700635910034 79.31783437728882 L 100.0 80.0 L 103.0 82.0 L 100.0 83.8 L 100.0 98.9710144996643 L 102.8 98.2 L 109.7 96.5 L 116.5 94.9 L 123.2 93.3 L 129.9 91.6 L 136.4 89.9 L 142.9 88.1 L 149.3 86.3 L 155.5 84.4 L 160.80568084716796 82.71565685272216 L 160.8 82.7 L 160.81509437561036 82.71266841888428 L 161.8 82.4 L 162.1924984931946 83.86870412826538 L 172.0 92.1 L 172.3 95.1 L 168.0942307472229 93.14520587921143 L 164.9 94.0 L 158.4 95.4 L 151.8 96.7 L 145.1 97.9 L 138.3 99.0 L 131.4 99.9 L 124.5 100.7 L 117.5 101.4 L 110.5 101.8 L 103.3 102.0 L 100.0 101.90833330154419 L 100.0 107.0 L 99.9 108.2 L 99.9 109.2 L 100.0 109.9 L 100.1 110.4 L 100.2 110.7 L 100.4 111.1 L 100.9 111.5 L 101.6 111.9 L 102.6 112.2 L 104.0 112.5 L 172.7 112.5 L 177.2 99.5 L 179.2 99.5 L 177.2 112.5 L 179.9 114.3 L 181.7 117.0 L 179.9 119.7 L 177.2 121.5 L 101.6 121.5 L 99.3 121.2 L 97.0 120.6 L 94.8 119.6 L 92.8 118.2 L 91.1 116.3 L 89.8 114.2 L 88.9 111.9 L 88.3 109.5 L 88.0 107.0 L 88.0 85.04024391174316 L 87.5 85.4 L 78.5 90.5 L 68.9 94.8 L 68.1 93.1 L 76.5 87.3 L 84.3 81.1 L 91.3 74.6 L 97.7 67.7 L 103.4 60.3 L 108.4 52.6 L 111.81927709579467 46.0 L 81.9 46.0 L 81.9 42.0 L 113.67816095352173 42.0 L 116.4 35.6 L 119.5 26.3 L 121.65313377380372 17.508037090301514 L 121.6 17.5 L 122.3 14.8 L 133.5 19.3 L 136.0 22.0 L 132.33838081359863 23.11156301498413 L 130.3 29.8 L 126.3 39.7 L 125.125 42.0 L 165.3 42.0 L 175.3 32.0 L 187.3 42.0 L 187.3 46.0 L 135.4 46.0 L 141.4 47.0 L 144.4 49.0 L 141.4 50.8 L 141.4 64.2 L 141.5 65.1 L 141.6 65.7 L 141.8 66.1 L 141.9 66.4 L 142.1 66.6 L 142.5 66.9 L 143.1 67.1 L 144.1 67.3 L 145.4 67.5 L 172.2 67.5 Z M 153.4 33.8 L 152.4 32.0 L 151.3 30.2 L 149.9 28.2 L 148.3 26.3 L 146.5 24.3 L 142.2 20.0 L 139.5 18.2 L 140.4 16.6 L 143.4 17.9 L 146.5 18.8 L 149.4 19.9 L 152.1 21.2 L 154.7 22.6 L 157.1 24.1 L 159.4 25.7 L 161.4 27.5 L 163.4 29.4 L 165.1 31.4 L 165.6 36.0 L 162.8 39.6 L 158.3 40.0 L 154.6 37.2 L 154.1 35.6 Z " />
</g>
</svg>
