<svg xmlns="http://www.w3.org/2000/svg" xmlns:xlink="http://www.w3.org/1999/xlink" version="1.1" baseProfile="full" viewBox="0 0 200 200" width="200" height="200">
<g fill="black">
<path d="M 93.5 175.0 L 113.5 175.0 L 114.7 174.9 L 115.7 174.7 L 116.2 174.5 L 116.6 174.4 L 116.8 174.2 L 116.9 174.0 L 117.1 173.7 L 117.3 173.1 L 117.4 172.2 L 117.5 171.0 L 117.5 131.2045454978943 L 117.4 131.3 L 112.8 135.4 L 108.1 139.4 L 106.49112586975097 140.68053245544434 L 106.6 144.6 L 103.2 143.3 L 94.7 134.6 L 96.3 133.5 L 101.3 130.3 L 106.2 126.9 L 111.0 123.5 L 115.8 120.0 L 117.5 118.6978723526001 L 117.5 78.0 L 97.9 78.0 L 97.9 74.0 L 117.5 74.0 L 117.5 42.44545450210571 L 115.1 43.7 L 110.4 45.9 L 105.5 47.9 L 100.4 49.7 L 99.5 48.2 L 103.7 44.8 L 107.7 41.5 L 111.6 38.3 L 115.4 35.2 L 119.0 32.2 L 122.4 29.2 L 125.7 26.2 L 128.8 23.2 L 131.8 20.2 L 133.82641506195068 18.023480129241943 L 133.8 18.0 L 134.0978723526001 17.731914901733397 L 134.5 17.3 L 134.53593072891235 17.337662315368654 L 134.8 17.1 L 142.8 26.0 L 143.4 29.5 L 139.58694162368775 28.478645038604736 L 139.3 28.7 L 135.7 31.4 L 131.9 34.0 L 129.5 35.560000038146974 L 129.5 74.0 L 146.35344829559327 74.0 L 146.1 69.8 L 145.5 44.1 L 145.6 15.8 L 145.6302801132202 15.800757026672363 L 145.7 13.5 L 157.6 16.1 L 160.6 18.1 L 157.5866901397705 19.813450717926024 L 157.5 44.0 L 158.1 69.3 L 158.36798248291015 74.0 L 163.9 74.0 L 173.9 64.0 L 185.9 74.0 L 185.9 78.0 L 158.59605264663696 78.0 L 159.4 92.1 L 161.5 112.1 L 163.20337476730347 122.6852575302124 L 164.3 119.7 L 167.6 109.3 L 170.443949508667 99.20856637954712 L 170.4 99.2 L 171.1 96.6 L 182.2 101.5 L 184.6 104.3 L 180.97043828964235 105.25514783859253 L 178.5 112.8 L 174.4 123.5 L 169.9 133.5 L 166.72976312637329 139.7744270324707 L 167.8 144.3 L 171.9 156.2 L 176.5 165.4 L 179.46912117004393 169.200475025177 L 183.9 150.0 L 185.9 150.0 L 184.07546358108522 173.71897287368773 L 186.6 175.6 L 189.5 179.2 L 189.2 183.7 L 185.7 186.6 L 181.1 186.3 L 173.1 180.3 L 166.4 171.8 L 160.8 160.8 L 158.462472820282 154.09231328964233 L 154.5 160.0 L 148.6 167.5 L 142.4 174.3 L 135.7 180.4 L 128.7 185.6 L 127.5 184.3 L 133.1 177.7 L 138.3 170.8 L 143.4 163.6 L 148.1 155.8 L 152.6 147.6 L 155.00998983383178 142.55049743652344 L 152.5 131.9 L 149.6 113.7 L 147.5 93.0 L 146.5948275566101 78.0 L 129.5 78.0 L 129.5 109.14255323410035 L 129.8 108.9 L 134.4 105.1 L 139.0 101.2 L 143.8 97.4 L 145.2 98.5 L 141.8 103.8 L 138.3 108.8 L 134.4 113.6 L 130.4 118.2 L 129.5 119.16428575515747 L 129.5 171.0 L 129.4 173.5 L 128.9 176.0 L 128.1 178.4 L 126.9 180.7 L 125.3 182.7 L 123.2 184.3 L 121.0 185.6 L 118.6 186.4 L 116.1 186.8 L 113.5 187.0 L 113.5 181.0 L 93.5 178.0 Z M 84.2 150.2 L 82.0 145.8 L 81.1947853088379 144.44723930358887 L 78.1 152.7 L 73.0 163.4 L 67.3 172.7 L 60.9 180.5 L 53.9 186.6 L 52.7 185.3 L 57.9 178.1 L 62.7 169.9 L 67.1 160.6 L 71.0 150.0 L 74.5 138.2 L 75.18458042144775 135.2106656074524 L 74.1 133.7 L 71.0 130.0 L 67.9 126.4 L 64.68953189849853 123.00068082809449 L 64.4 124.6 L 62.2 136.1 L 50.5 133.8 L 54.7 111.0 L 56.7 99.4 L 58.5 87.8 L 60.3 76.1 L 62.1 64.3 L 62.40924367904663 62.0 L 52.1 62.0 L 52.1 58.0 L 62.947058868408206 58.0 L 63.7 52.4 L 66.7 28.4 L 68.0 16.3 L 68.02863206863404 16.303101825714112 L 68.3 14.2 L 80.0 17.6 L 82.7 19.9 L 79.57360525131226 21.315725898742677 L 78.6 29.8 L 75.6 54.0 L 75.0285714149475 58.0 L 84.6 58.0 L 90.6 53.0 L 101.6 62.0 L 96.6 65.0 L 96.15590553283691 65.1850393295288 L 94.9 79.0 L 92.7 96.4 L 89.9 112.5 L 86.6 127.2 L 84.70093460083008 133.60934581756592 L 87.0 136.1 L 90.4 140.4 L 93.6 144.9 L 96.5 149.7 L 99.2 154.8 L 99.3 159.4 L 96.1 162.7 L 91.6 162.7 L 88.2 159.6 L 86.3 154.8 Z M 24.8 42.0 L 37.9 42.0 L 43.9 37.0 L 54.9 46.0 L 49.9 50.0 L 49.9 140.0 L 37.9 146.0 L 37.9 134.0 L 24.8 134.0 L 24.8 146.0 L 12.8 152.0 L 12.8 36.0 Z M 24.8 46.0 L 24.8 130.0 L 37.9 130.0 L 37.9 46.0 Z M 74.45714282989502 62.0 L 72.2 77.8 L 70.4 89.6 L 68.5 101.4 L 66.5 113.0 L 65.37605638504029 119.20845069885254 L 66.7 119.8 L 71.3 122.3 L 75.5 125.2 L 77.16939163208008 126.54365663528442 L 77.5 125.1 L 80.0 110.7 L 82.1 95.0 L 83.6 78.0 L 84.55652170181274 62.0 Z M 169.9 45.4 L 169.2 42.4 L 168.4 39.5 L 167.5 36.8 L 166.5 34.1 L 165.4 31.5 L 164.3 29.0 L 163.1 26.5 L 161.5 24.3 L 162.7 23.0 L 165.0 24.7 L 167.5 26.3 L 169.8 28.3 L 172.0 30.6 L 174.1 33.0 L 176.1 35.7 L 177.9 38.6 L 179.6 41.7 L 181.2 45.0 L 182.7 48.4 L 182.1 53.0 L 178.5 55.8 L 174.0 55.2 L 171.1 51.7 L 170.6 48.5 Z " />
</g>
</svg>
