<svg xmlns="http://www.w3.org/2000/svg" xmlns:xlink="http://www.w3.org/1999/xlink" version="1.1" baseProfile="full" viewBox="0 0 200 200" width="200" height="200">
<g fill="black">
<path d="M 164.0 142.4 L 158.9 139.3 L 154.0 136.0 L 149.2 132.6 L 144.5 129.0 L 139.8 125.2 L 135.4 121.1 L 131.1 116.8 L 127.2 112.2 L 127.59285717010498 111.7 L 82.36666669845582 111.7 L 77.9 116.1 L 70.7 122.3 L 62.9 128.2 L 59.47628870010376 130.53814430236815 L 65.4 133.5 L 134.6 133.5 L 140.6 128.5 L 151.6 137.5 L 146.6 141.5 L 146.6 180.4 L 134.6 186.4 L 134.6 176.4 L 65.4 176.4 L 65.4 183.4 L 53.4 189.4 L 53.4 134.5681818008423 L 45.9 139.0 L 36.6 143.8 L 26.7 148.2 L 16.3 152.1 L 15.6 150.4 L 25.0 144.8 L 34.0 139.2 L 42.4 133.4 L 50.3 127.6 L 57.7 121.6 L 64.5 115.4 L 68.1421875 111.7 L 18.0 111.7 L 18.0 107.7 L 71.92272729873658 107.7 L 76.5 102.4 L 81.7 95.6 L 84.90144929885864 90.9 L 56.0 90.9 L 56.0 93.9 L 44.0 99.9 L 44.0 45.1 L 56.0 51.1 L 144.0 51.1 L 150.0 46.1 L 161.0 55.1 L 156.0 59.1 L 156.0 92.9 L 144.0 98.9 L 144.0 90.9 L 90.7 90.9 L 96.4 95.4 L 97.7 98.7 L 93.94140787124634 98.50559005737304 L 90.7 102.6 L 86.19130430221557 107.7 L 162.8181818008423 107.7 L 171.0 98.7 L 181.0 107.7 L 181.0 111.7 L 130.1 111.7 L 133.7 113.5 L 138.9 116.4 L 144.0 119.2 L 149.0 122.0 L 159.2 127.2 L 164.3 129.6 L 174.5 134.0 L 179.6 136.0 L 185.7 138.7 L 174.3 148.0 L 169.1 145.3 Z M 65.4 137.5 L 65.4 172.4 L 134.6 172.4 L 134.6 137.5 Z M 56.0 72.4 L 56.0 86.9 L 144.0 86.9 L 144.0 72.4 Z M 56.0 55.1 L 56.0 68.4 L 144.0 68.4 L 144.0 55.1 Z M 133.4 16.1 L 136.4 18.1 L 133.4 19.9 L 133.4 29.7 L 163.2 29.7 L 173.2 19.7 L 185.2 29.7 L 185.2 33.7 L 133.4 33.7 L 133.4 44.5 L 121.4 50.5 L 121.4 33.7 L 78.5 33.7 L 78.5 44.5 L 66.5 50.5 L 66.5 33.7 L 14.7 33.7 L 14.7 29.7 L 66.5 29.7 L 66.5 14.1 L 78.5 16.1 L 81.5 18.1 L 78.5 19.9 L 78.5 29.7 L 121.4 29.7 L 121.4 14.1 Z " />
</g>
</svg>
