<svg xmlns="http://www.w3.org/2000/svg" xmlns:xlink="http://www.w3.org/1999/xlink" version="1.1" baseProfile="full" viewBox="0 0 200 200" width="200" height="200">
<g fill="black">
<path d="M 159.0 82.3 L 161.1 85.2 L 157.02531642913817 85.90253162384033 L 155.8 88.2 L 154.0 91.3 L 152.2 94.5 L 150.3 97.8 L 148.2 101.1 L 146.0 104.4 L 143.6 107.9 L 141.1 111.3 L 140.26666669845582 112.5 L 161.0 112.5 L 171.0 102.5 L 183.0 112.5 L 183.0 116.5 L 132.5 116.5 L 132.5 142.4 L 154.3 142.4 L 164.3 132.4 L 176.3 142.4 L 176.3 146.4 L 132.5 146.4 L 132.5 183.0 L 120.5 189.0 L 120.5 146.4 L 76.6 146.4 L 76.6 142.4 L 120.5 142.4 L 120.5 116.5 L 69.9 116.5 L 69.9 112.5 L 137.54634141921997 112.5 L 138.4 110.0 L 139.5 105.9 L 140.7 101.9 L 141.9 98.1 L 144.1 90.9 L 145.1 87.5 L 146.1 84.2 L 147.0 81.1 L 147.55594625473023 78.94570837020873 L 147.4 78.9 L 148.3 76.6 Z M 28.6 42.0 L 52.5 42.0 L 58.5 37.0 L 69.5 46.0 L 64.5 50.0 L 64.5 140.0 L 52.5 146.0 L 52.5 134.0 L 28.6 134.0 L 28.6 146.0 L 16.6 152.0 L 16.6 36.0 Z M 28.6 46.0 L 28.6 130.0 L 52.5 130.0 L 52.5 46.0 Z M 103.3 101.4 L 102.8 98.6 L 102.2 95.7 L 101.4 92.9 L 99.6 87.3 L 98.5 84.5 L 97.4 81.6 L 95.8 79.0 L 97.2 77.8 L 99.5 80.0 L 102.0 82.1 L 104.2 84.4 L 106.3 86.9 L 108.3 89.6 L 110.1 92.4 L 111.7 95.3 L 113.2 98.4 L 114.5 101.5 L 115.7 104.9 L 114.8 109.3 L 111.1 112.0 L 106.6 111.1 L 104.0 107.3 L 103.7 104.4 Z M 78.6 71.7 L 120.5 71.7 L 120.5 49.9 L 132.5 51.9 L 135.5 53.9 L 132.5 55.7 L 132.5 71.7 L 152.3 71.7 L 162.3 61.7 L 162.93529415130615 62.22941179275513 L 164.4 59.3 L 165.5 56.2 L 166.5 53.2 L 167.5 50.4 L 168.4 47.8 L 169.2 45.3 L 170.0 43.0 L 170.43636360168458 41.4 L 82.85 41.4 L 83.0 43.6 L 83.0 47.7 L 82.8 51.6 L 82.3 55.1 L 81.5 58.5 L 80.3 61.6 L 78.8 64.4 L 76.7 67.0 L 72.3 68.3 L 68.3 66.2 L 67.0 61.8 L 69.1 57.8 L 70.2 57.2 L 71.4 56.1 L 72.7 54.6 L 74.0 52.4 L 75.2 49.8 L 76.3 46.7 L 77.4 43.0 L 78.3 38.9 L 79.2 34.4 L 79.7 29.4 L 81.5 29.3 L 82.0 34.4 L 82.4375 37.4 L 120.5 37.4 L 120.5 12.4 L 132.5 14.4 L 135.5 16.4 L 132.5 18.2 L 132.5 37.4 L 171.0 37.4 L 171.47872343063355 37.00106382369995 L 171.5 36.9 L 171.5651659011841 36.92902841567993 L 177.0 32.4 L 188.0 41.4 L 183.0 44.4 L 179.43636360168458 45.884848499298094 L 178.3 47.4 L 176.7 49.4 L 173.1 53.6 L 171.1 55.9 L 168.9 58.2 L 166.6 60.6 L 164.4 63.3 L 163.5 62.7 L 174.3 71.7 L 174.3 75.7 L 78.6 75.7 Z " />
</g>
</svg>
