<svg xmlns="http://www.w3.org/2000/svg" xmlns:xlink="http://www.w3.org/1999/xlink" version="1.1" baseProfile="full" viewBox="0 0 200 200" width="200" height="200">
<g fill="black">
<path d="M 100.4 130.9 L 99.3 133.2 L 97.8 135.2 L 96.0 137.0 L 94.0 138.5 L 91.7 139.6 L 89.3 140.4 L 86.8 140.8 L 84.2 141.0 L 84.2 135.0 L 76.2 132.0 L 76.2 129.0 L 84.2 129.0 L 85.5 128.9 L 86.5 128.7 L 87.3 128.5 L 87.8 128.2 L 88.6 127.6 L 88.9 127.1 L 89.3 126.4 L 89.6 125.4 L 89.9 124.1 L 90.7 119.6 L 91.1 115.1 L 91.2 110.6 L 91.0 106.0 L 90.3 101.3 L 89.3 96.5 L 87.9 91.7 L 86.2 86.7 L 84.2 81.6 L 81.8 76.3 L 82.17366552352905 76.02597866058349 L 81.2 75.6 L 82.6 69.9 L 84.1 64.4 L 85.6 59.1 L 87.0 54.0 L 88.4 49.0 L 89.6 44.2 L 90.7 39.6 L 91.6 35.1 L 92.5 30.8 L 92.63333330154418 30.0 L 75.2 30.0 L 75.2 183.2 L 64.2 188.7 L 64.2 20.5 L 75.2 26.0 L 93.0 26.0 L 99.0 21.0 L 110.0 30.0 L 105.0 33.0 L 103.49006624221802 33.629139041900636 L 102.0 38.0 L 100.3 42.6 L 98.4 47.2 L 96.4 51.9 L 94.1 56.6 L 91.7 61.5 L 89.1 66.4 L 86.1 71.4 L 83.43978614807129 75.35001440048218 L 87.4 79.6 L 90.9 84.2 L 94.0 89.0 L 96.5 94.0 L 98.5 99.1 L 100.1 104.3 L 101.2 109.6 L 101.9 115.0 L 102.0 120.5 L 101.7 126.0 L 101.2 128.5 Z M 105.0 173.2 L 138.9 173.2 L 138.9 135.4 L 111.1 135.4 L 111.1 131.4 L 138.9 131.4 L 138.9 102.0 L 150.9 104.0 L 153.9 106.0 L 150.9 107.8 L 150.9 131.4 L 156.8 131.4 L 166.8 121.4 L 178.8 131.4 L 178.8 135.4 L 150.9 135.4 L 150.9 173.2 L 162.8 173.2 L 172.8 163.2 L 184.8 173.2 L 184.8 177.2 L 105.0 177.2 Z M 25.7 42.0 L 42.3 42.0 L 47.8 37.0 L 58.3 46.0 L 53.3 49.5 L 53.3 140.0 L 42.3 145.5 L 42.3 134.0 L 25.7 134.0 L 25.7 146.0 L 13.7 152.0 L 13.7 36.0 Z M 25.7 46.0 L 25.7 130.0 L 42.3 130.0 L 42.3 46.0 Z M 104.5 97.3 L 107.4 96.6 L 110.2 95.9 L 110.2 15.3 L 122.2 17.3 L 125.2 19.3 L 122.2 21.1 L 122.2 48.2 L 129.2777777671814 48.2 L 135.5 41.2 L 143.5 48.2 L 143.5 52.2 L 122.2 52.2 L 122.2 92.65714282989502 L 125.9 91.6 L 130.4 90.2 L 135.1 88.9 L 140.2 87.6 L 145.5 86.1 L 146.2 87.7 L 141.5 90.6 L 137.1 93.4 L 132.8 95.9 L 128.7 98.2 L 124.8 100.3 L 121.1 102.3 L 117.6 104.1 L 114.3 105.7 L 112.32488059997559 106.65570287704467 L 111.2 110.8 L 108.4 108.6 L 102.6 97.9 Z M 182.0 70.6 L 184.0 70.6 L 182.0 95.6 L 185.6 98.0 L 188.0 101.6 L 185.6 105.2 L 182.0 107.6 L 162.3 107.6 L 159.8 107.4 L 157.3 107.0 L 154.9 106.2 L 152.6 105.0 L 150.6 103.3 L 149.0 101.3 L 147.7 99.0 L 146.9 96.6 L 146.5 94.1 L 146.3 91.6 L 146.3 15.3 L 158.3 17.3 L 161.3 19.3 L 158.3 21.1 L 158.3 52.46666669845581 L 160.1 50.8 L 165.1 46.0 L 167.5 43.7 L 169.8 41.5 L 171.9 39.2 L 174.0 37.0 L 175.31707315444947 35.617073154449464 L 175.3 35.6 L 175.51724138259888 35.40689659118652 L 176.0 34.9 L 176.03760328292847 34.94435262680054 L 176.2 34.8 L 183.8 44.1 L 184.2 47.7 L 180.18977994918822 46.339389610290525 L 178.4 47.4 L 175.6 49.1 L 169.6 52.3 L 166.5 53.9 L 163.2 55.5 L 159.8 57.0 L 158.3 57.55714282989502 L 158.3 91.6 L 158.4 92.8 L 158.6 93.7 L 158.9 94.6 L 159.3 95.0 L 159.6 95.2 L 160.2 95.3 L 161.1 95.5 L 162.3 95.6 L 176.0 95.6 Z " />
</g>
</svg>
