<svg xmlns="http://www.w3.org/2000/svg" xmlns:xlink="http://www.w3.org/1999/xlink" version="1.1" baseProfile="full" viewBox="0 0 200 200" width="200" height="200">
<g fill="black">
<path d="M 116.9 132.1 L 119.5 134.6 L 115.84857082366943 135.99418201446534 L 114.2 142.1 L 110.6 151.2 L 106.0 159.4 L 100.4 166.7 L 93.9 173.0 L 86.5 178.2 L 78.2 182.5 L 69.2 185.7 L 59.4 187.7 L 48.8 188.7 L 48.5 186.9 L 58.5 184.0 L 67.4 180.6 L 75.3 176.6 L 82.2 172.0 L 88.2 166.7 L 93.2 160.8 L 97.4 154.2 L 100.8 146.9 L 103.3 138.9 L 104.91298704147339 130.9246753692627 L 105.4 128.1 Z M 140.3 185.3 L 137.8 184.9 L 135.4 184.1 L 133.1 182.9 L 131.1 181.2 L 129.4 179.2 L 128.2 176.9 L 127.4 174.5 L 127.0 172.0 L 126.8 169.5 L 126.8 127.5 L 91.6 127.5 L 91.6 139.5 L 79.6 145.5 L 79.6 69.6 L 91.6 75.6 L 111.49166669845582 75.6 L 112.2 74.6 L 113.6 71.9 L 114.9 69.4 L 116.2 67.0 L 117.4 64.7 L 119.6 60.3 L 121.4 56.3 L 121.81457624435424 55.36720342636109 L 121.7 55.3 L 122.13333330154418 54.65 L 122.2 54.5 L 122.22275857925415 54.51586208343506 L 122.23333330154419 54.5 L 87.1 54.5 L 87.1 61.5 L 75.1 67.5 L 75.1 23.1 L 87.1 25.1 L 90.1 27.1 L 87.1 28.9 L 87.1 50.5 L 121.7 50.5 L 121.7 12.8 L 133.7 14.8 L 136.7 16.8 L 133.7 18.6 L 133.7 50.5 L 167.6 50.5 L 167.6 23.1 L 179.6 25.1 L 182.6 27.1 L 179.6 28.9 L 179.6 58.5 L 167.6 64.5 L 167.6 54.5 L 123.56578950881958 54.5 L 132.1 61.4 L 133.4 64.7 L 128.91606426239014 64.39076309204101 L 128.8 64.5 L 127.0 66.0 L 125.1 67.7 L 123.1 69.3 L 118.9 72.7 L 116.5 74.5 L 114.9470588684082 75.6 L 163.8 75.6 L 169.8 70.6 L 180.8 79.6 L 175.8 83.6 L 175.8 129.5 L 163.8 135.5 L 163.8 127.5 L 135.8 127.5 L 138.8 128.0 L 141.8 130.0 L 138.8 131.8 L 138.8 169.5 L 138.9 170.7 L 139.0 171.6 L 139.2 172.2 L 139.4 172.5 L 139.8 172.9 L 140.1 173.1 L 140.7 173.2 L 141.6 173.4 L 142.8 173.5 L 176.6 173.5 L 182.6 148.5 L 184.6 148.5 L 182.6 173.5 L 186.2 175.9 L 188.6 179.5 L 186.2 183.1 L 182.6 185.5 L 142.8 185.5 Z M 168.6 156.1 L 168.6 154.9 L 168.54463415145875 154.23560972213744 L 165.8 155.4 L 162.7 156.6 L 159.7 157.7 L 156.8 158.8 L 154.0 159.9 L 151.3 160.9 L 148.8 161.9 L 148.3316641807556 162.09513988494874 L 146.8 166.2 L 144.1 163.8 L 139.4 152.6 L 141.3 152.1 L 143.9 151.9 L 146.6 151.8 L 148.0 151.7 L 148.3 150.9 L 149.1 148.6 L 149.9 146.4 L 150.7 144.3 L 152.1 140.1 L 152.7 138.1 L 153.3 136.2 L 153.54711418151857 135.26096620559693 L 153.4 135.2 L 153.7444444656372 134.5111110687256 L 153.8 134.3 L 153.83977699279785 134.32044610977172 L 154.4 133.2 L 164.5 139.8 L 166.2 142.9 L 161.58380126953125 143.21835851669312 L 160.1 144.9 L 158.5 146.6 L 156.8 148.2 L 155.1 149.9 L 153.23709325790406 151.46876354217528 L 155.3 151.4 L 158.4 151.3 L 161.7 151.2 L 165.1 151.3 L 168.06098566055297 151.38459959030152 L 168.0 151.1 L 167.5 149.8 L 166.9 148.3 L 166.2 146.8 L 165.0 145.8 L 166.0 144.3 L 167.4 145.3 L 169.2 145.8 L 170.8 146.5 L 172.4 147.3 L 173.9 148.3 L 175.3 149.4 L 176.6 150.7 L 177.9 152.1 L 179.0 153.6 L 180.0 155.3 L 179.3 159.8 L 175.6 162.6 L 171.1 161.9 L 168.3 158.3 L 168.5 157.2 Z M 27.6 42.0 L 49.8 42.0 L 55.8 37.0 L 66.8 46.0 L 61.8 50.0 L 61.8 140.0 L 49.8 146.0 L 49.8 134.0 L 27.6 134.0 L 27.6 146.0 L 15.6 152.0 L 15.6 36.0 Z M 27.6 46.0 L 27.6 130.0 L 49.8 130.0 L 49.8 46.0 Z M 91.6 103.2 L 91.6 123.5 L 121.7 123.5 L 121.7 103.2 Z M 133.7 103.2 L 133.7 123.5 L 163.8 123.5 L 163.8 103.2 Z M 91.6 79.6 L 91.6 99.2 L 121.7 99.2 L 121.7 79.6 Z M 133.7 79.6 L 133.7 99.2 L 163.8 99.2 L 163.8 79.6 Z " />
</g>
</svg>
