<svg xmlns="http://www.w3.org/2000/svg" xmlns:xlink="http://www.w3.org/1999/xlink" version="1.1" baseProfile="full" viewBox="0 0 200 200" width="200" height="200">
<g fill="black">
<path d="M 81.04350576400756 160.6845242500305 L 85.3 165.3 L 85.4 168.8 L 81.82689876556397 167.26867084503175 L 79.7 168.4 L 74.6 170.8 L 69.1 173.1 L 63.2 175.4 L 56.8 177.7 L 50.0 179.8 L 42.8 181.9 L 35.1 183.9 L 26.9 185.7 L 18.2 187.3 L 17.7 185.5 L 25.8 182.1 L 33.4 178.8 L 40.6 175.7 L 47.4 172.7 L 53.6 169.8 L 59.5 166.9 L 64.8 164.1 L 69.6 161.3 L 74.0 158.5 L 77.06185998916627 156.38025074005128 L 77.0 156.3 L 77.06927490234375 156.37511739730834 L 77.9 155.8 Z M 161.4 180.7 L 157.1 178.3 L 152.2 175.9 L 146.8 173.6 L 140.7 171.2 L 134.0 168.9 L 126.8 166.5 L 119.1 164.0 L 110.8 161.4 L 111.1 159.6 L 119.8 160.3 L 128.0 161.3 L 135.7 162.5 L 142.8 164.0 L 149.4 165.5 L 155.5 167.2 L 161.1 169.1 L 166.2 171.1 L 170.8 173.3 L 175.0 175.6 L 177.4 179.5 L 176.4 184.0 L 172.5 186.3 L 168.0 185.4 L 165.0 183.0 Z M 182.0 67.4 L 182.0 71.4 L 106.96341466903687 71.4 L 104.3 73.5 L 102.0 75.3 L 99.6 77.1 L 97.3 78.9 L 95.0 80.6 L 87.8 85.4 L 85.4 86.9 L 83.91428575515747 87.7 L 144.7 87.7 L 150.7 82.7 L 161.7 91.7 L 156.7 95.7 L 156.7 151.5 L 144.7 157.5 L 144.7 151.5 L 55.2 151.5 L 55.2 158.5 L 43.2 164.5 L 43.2 81.7 L 55.2 87.7 L 80.03636360168457 87.7 L 81.1 86.4 L 82.5 84.0 L 85.7 79.2 L 88.9 74.6 L 90.6 72.2 L 91.19130430221557 71.4 L 18.0 71.4 L 18.0 67.4 L 167.7777777671814 67.4 L 174.0 60.4 Z M 55.2 130.7 L 55.2 147.5 L 144.7 147.5 L 144.7 130.7 Z M 55.2 111.2 L 55.2 126.7 L 144.7 126.7 L 144.7 111.2 Z M 55.2 91.7 L 55.2 107.2 L 144.7 107.2 L 144.7 91.7 Z M 43.9 17.1 L 79.0 17.1 L 85.0 12.1 L 96.0 21.1 L 91.0 25.1 L 91.0 54.5 L 79.0 60.5 L 79.0 54.5 L 43.9 54.5 L 31.9 60.5 L 31.9 11.1 Z M 119.9 17.1 L 155.0 17.1 L 161.0 12.1 L 172.0 21.1 L 167.0 25.1 L 167.0 54.5 L 155.0 60.5 L 155.0 54.5 L 119.9 54.5 L 107.9 60.5 L 107.9 11.1 Z M 119.9 21.1 L 119.9 50.5 L 155.0 50.5 L 155.0 21.1 Z M 43.9 21.1 L 43.9 50.5 L 79.0 50.5 L 79.0 21.1 Z " />
</g>
</svg>
