<svg xmlns="http://www.w3.org/2000/svg" xmlns:xlink="http://www.w3.org/1999/xlink" version="1.1" baseProfile="full" viewBox="0 0 200 200" width="200" height="200">
<g fill="black">
<path d="M 27.0 42.0 L 48.2 42.0 L 54.2 37.0 L 65.2 46.0 L 60.2 50.0 L 60.2 140.0 L 48.2 146.0 L 48.2 134.0 L 27.0 134.0 L 27.0 146.0 L 15.0 152.0 L 15.0 36.0 Z M 27.0 46.0 L 27.0 130.0 L 48.2 130.0 L 48.2 46.0 Z M 97.8 100.3 L 97.8 129.4 L 119.0 129.4 L 119.0 100.3 Z M 131.0 100.3 L 131.0 129.4 L 152.1 129.4 L 152.1 100.3 Z M 163.0 89.2 L 156.5 81.6 L 150.6 73.6 L 145.3 64.9 L 140.7 55.7 L 136.7 45.9 L 133.4 35.5 L 131.21733551025392 26.349598693847657 L 126.8 29.0 L 124.9737705230713 29.760928916931153 L 122.3 36.7 L 117.7 47.1 L 112.7 56.9 L 107.2 66.1 L 101.2 74.8 L 94.8 82.9 L 88.0 90.4 L 87.30143537521363 91.05071773529053 L 97.8 96.3 L 119.0 96.3 L 119.0 72.5 L 131.0 74.5 L 134.0 76.5 L 131.0 78.3 L 131.0 96.3 L 152.1 96.3 L 158.1 91.3 L 169.1 100.3 L 164.1 104.3 L 164.1 133.4 L 152.1 139.4 L 152.1 133.4 L 131.0 133.4 L 131.0 166.19239130020142 L 139.3 165.2 L 148.4 164.2 L 157.3 163.2 L 161.50898284912108 162.7743724822998 L 159.4 159.4 L 156.7 155.5 L 153.7 151.7 L 150.6 147.7 L 147.3 143.8 L 148.4 142.4 L 153.0 144.9 L 157.4 147.9 L 161.4 151.1 L 165.2 154.6 L 168.7 158.4 L 171.9 162.4 L 174.9 166.6 L 177.5 171.0 L 180.0 175.7 L 182.1 180.5 L 181.8 185.0 L 178.4 188.1 L 173.8 187.7 L 170.7 184.4 L 169.4 180.0 L 167.9 175.7 L 166.1 171.5 L 164.1 167.4 L 162.91140565872192 165.23891944885253 L 158.1 166.9 L 149.4 169.4 L 140.5 171.7 L 131.3 173.7 L 122.0 175.6 L 112.5 177.4 L 102.8 178.9 L 92.9 180.4 L 82.8 181.7 L 76.61818180084228 182.42727270126343 L 74.8 185.7 L 72.6 182.9 L 69.7 171.1 L 71.7 170.9 L 81.8 170.4 L 91.8 169.7 L 101.6 169.0 L 111.3 168.1 L 119.0 167.37052631378174 L 119.0 133.4 L 97.8 133.4 L 97.8 145.4 L 85.8 151.4 L 85.8 92.44931507110596 L 80.7 97.2 L 73.0 103.3 L 64.8 108.7 L 63.7 107.2 L 70.5 100.5 L 77.0 93.4 L 83.1 86.0 L 88.8 78.3 L 94.2 70.1 L 94.97822036743165 68.71826181411743 L 91.3 68.8 L 87.9 65.7 L 86.9 62.8 L 84.7 57.2 L 83.5 54.6 L 82.2 52.0 L 80.8 49.5 L 77.8 44.7 L 76.1 42.3 L 74.2 40.3 L 75.2 38.8 L 77.8 40.3 L 80.6 41.6 L 83.2 43.3 L 85.7 45.2 L 88.2 47.3 L 90.5 49.6 L 92.7 52.1 L 94.8 54.8 L 96.9 57.7 L 98.8 60.7 L 98.82580089569092 61.88684320449829 L 99.1 61.4 L 103.7 52.3 L 107.9 42.7 L 111.7 32.7 L 113.84905662536622 26.0 L 78.7 26.0 L 78.7 22.0 L 114.8 22.0 L 120.8 17.0 L 130.97243518829345 25.32290153503418 L 130.8 24.6 L 129.1 13.1 L 130.9 12.7 L 134.8 23.5 L 139.0 33.6 L 143.4 43.0 L 146.37675933837892 48.5735068321228 L 147.7 45.1 L 149.3 41.3 L 150.9 37.6 L 152.3 34.2 L 153.7 31.0 L 154.9 27.9 L 156.0 25.1 L 157.0 22.5 L 157.47591619491578 21.072251319885254 L 157.3 21.0 L 158.3 19.0 L 168.5 25.6 L 170.2 28.8 L 166.03922443389894 29.015212535858154 L 165.2 30.2 L 163.3 32.7 L 161.3 35.3 L 159.1 38.2 L 156.8 41.1 L 154.3 44.2 L 151.6 47.5 L 148.6 50.8 L 147.97818098068237 51.57191324234009 L 148.1 51.8 L 153.3 60.0 L 157.7090684890747 65.90500249862671 L 159.4 62.6 L 161.6 58.6 L 163.7 54.8 L 165.6 51.4 L 167.3 48.1 L 168.9 45.1 L 170.3 42.4 L 171.5 39.9 L 172.07057456970216 38.58767852783203 L 171.9 38.5 L 173.0 36.8 L 182.6 44.0 L 184.1 47.3 L 179.84069499969482 47.22656373977661 L 179.0 48.2 L 176.9 50.6 L 174.6 53.2 L 172.0 56.0 L 169.3 58.9 L 166.3 62.1 L 163.1 65.4 L 159.8260579109192 68.58040084838868 L 164.9 74.5 L 171.2 80.7 L 178.1 86.4 L 185.3 91.5 L 188.7 93.9 L 177.7 102.4 L 170.1 96.1 Z " />
</g>
</svg>
