<svg xmlns="http://www.w3.org/2000/svg" xmlns:xlink="http://www.w3.org/1999/xlink" version="1.1" baseProfile="full" viewBox="0 0 200 200" width="200" height="200">
<g fill="black">
<path d="M 104.4 120.3 L 103.8 118.2 L 103.0 116.1 L 102.1 113.9 L 101.0 111.7 L 99.9 109.4 L 98.5 107.1 L 96.8 105.1 L 97.9 103.7 L 100.2 105.3 L 102.7 106.7 L 104.9 108.3 L 107.1 110.1 L 109.1 111.9 L 111.0 113.9 L 112.7 116.1 L 114.3 118.3 L 115.7 120.7 L 117.0 123.2 L 116.4 127.7 L 113.6241379737854 130.0 L 140.94375 130.0 L 141.9 128.2 L 143.2 124.9 L 144.5 121.8 L 145.8 118.8 L 147.1 115.9 L 148.2 113.1 L 149.3 110.4 L 150.3 107.9 L 151.2 105.4 L 151.68753318786622 103.9374005317688 L 151.6 103.9 L 151.87272729873658 103.38181819915772 L 152.0 103.0 L 152.05765342712402 103.03045845031738 L 152.17894735336304 102.8 L 78.3 102.8 L 78.3 98.8 L 123.0 98.8 L 123.0 82.4 L 135.0 84.4 L 138.0 86.4 L 135.0 88.2 L 135.0 98.8 L 157.6 98.8 L 167.6 88.8 L 179.6 98.8 L 179.6 102.8 L 153.81212120056153 102.8 L 162.6 108.6 L 164.4 111.8 L 160.0566159248352 112.02085008621216 L 159.3 113.0 L 157.5 115.3 L 155.6 117.6 L 151.4 122.4 L 149.1 124.8 L 146.7 127.3 L 144.1 129.7 L 143.842857170105 130.0 L 166.8 130.0 L 176.8 120.0 L 188.8 130.0 L 188.8 134.0 L 135.0 134.0 L 135.0 152.8 L 159.7 152.8 L 169.7 142.8 L 181.7 152.8 L 181.7 156.8 L 135.0 156.8 L 135.0 183.6 L 123.0 189.6 L 123.0 156.8 L 76.2 156.8 L 76.2 152.8 L 123.0 152.8 L 123.0 134.0 L 69.1 134.0 L 69.1 130.0 L 108.317142868042 130.0 L 105.5 126.6 L 104.9 122.4 Z M 28.2 42.0 L 51.3 42.0 L 57.3 37.0 L 68.3 46.0 L 63.3 50.0 L 63.3 140.0 L 51.3 146.0 L 51.3 134.0 L 28.2 134.0 L 28.2 146.0 L 16.2 152.0 L 16.2 36.0 Z M 28.2 46.0 L 28.2 130.0 L 51.3 130.0 L 51.3 46.0 Z M 135.0 14.6 L 138.0 16.6 L 135.0 18.4 L 135.0 29.9 L 166.3 29.9 L 176.3 19.9 L 188.3 29.9 L 188.3 33.9 L 135.0 33.9 L 135.0 50.2 L 158.8 50.2 L 164.8 45.2 L 175.8 54.2 L 170.8 58.2 L 170.8 81.1 L 158.8 87.1 L 158.8 79.1 L 99.1 79.1 L 99.1 82.1 L 87.1 88.1 L 87.1 44.2 L 99.1 50.2 L 123.0 50.2 L 123.0 33.9 L 69.6 33.9 L 69.6 29.9 L 123.0 29.9 L 123.0 12.6 Z M 99.1 75.1 L 158.8 75.1 L 158.8 54.2 L 99.1 54.2 Z " />
</g>
</svg>
