<svg xmlns="http://www.w3.org/2000/svg" xmlns:xlink="http://www.w3.org/1999/xlink" version="1.1" baseProfile="full" viewBox="0 0 200 200" width="200" height="200">
<g fill="black">
<path d="M 48.5 175.0 L 66.5 175.0 L 67.8 174.9 L 68.7 174.7 L 69.6 174.4 L 69.8 174.2 L 69.9 174.0 L 70.1 173.7 L 70.3 173.1 L 70.5 172.2 L 70.5 118.37692308425903 L 68.7 119.9 L 64.8 123.1 L 64.04587907791138 123.70329666137695 L 64.1 127.6 L 60.8 126.3 L 52.3 117.6 L 53.9 116.5 L 58.2 113.8 L 62.4 111.2 L 66.6 108.5 L 70.5 106.1418604850769 L 70.5 57.0 L 56.0 57.0 L 56.0 53.0 L 70.5 53.0 L 70.5 14.0 L 82.5 16.0 L 85.5 18.0 L 82.5 19.8 L 82.5 53.0 L 87.0 53.0 L 91.5 47.0 L 97.5 53.0 L 97.5 57.0 L 96.0615385055542 57.0 L 98.0 58.2 L 100.3 59.4 L 102.5 60.8 L 104.7 62.4 L 106.8 64.2 L 108.8 66.2 L 110.7 68.3 L 112.6 70.7 L 114.4 73.1 L 116.1 75.7 L 116.2 80.3 L 113.2 83.7 L 108.6 83.8 L 105.2 80.7 L 104.4 78.1 L 103.6 75.6 L 102.7 73.2 L 101.8 70.9 L 100.8 68.6 L 99.8 66.4 L 98.7 64.3 L 97.5 62.2 L 96.4 60.0 L 94.8 58.3 L 95.82142858505249 57.0 L 82.5 57.0 L 82.5 98.50714282989502 L 83.6 97.8 L 88.0 95.2 L 92.4 92.7 L 96.9 90.3 L 98.1 91.6 L 94.8 95.6 L 91.3 99.4 L 87.7 103.0 L 84.0 106.5 L 82.5 107.84210529327393 L 82.5 171.0 L 82.4 173.5 L 81.9 176.0 L 81.1 178.4 L 79.9 180.7 L 78.3 182.7 L 76.3 184.3 L 74.0 185.6 L 71.6 186.4 L 69.1 186.8 L 66.5 187.0 L 66.5 181.0 L 48.5 178.0 Z M 154.7 183.7 L 144.7 182.6 L 136.4 180.7 L 129.5 177.8 L 124.0 174.1 L 119.8 169.7 L 116.8 164.7 L 114.8 159.2 L 114.37272729873658 157.06363639831542 L 114.33720932006835 157.0813953399658 L 114.1 157.5 L 112.6 160.7 L 111.0 163.7 L 109.4 166.6 L 106.2 172.2 L 103.0 177.4 L 102.2013563156128 178.5274969100952 L 103.3 182.8 L 99.7 182.2 L 89.5 175.7 L 90.8 174.2 L 93.0 172.4 L 95.1 170.6 L 97.3 168.6 L 101.9 164.6 L 104.3 162.5 L 106.5 160.48333330154418 L 106.5 109.0 L 93.6 109.0 L 93.6 105.0 L 106.5 105.0 L 112.5 100.0 L 123.5 109.0 L 118.5 113.0 L 118.5 155.0 L 117.31846151351928 155.59076919555665 L 118.6 157.4 L 121.8 161.5 L 125.2 164.8 L 128.9 167.4 L 133.3 169.3 L 138.9 170.7 L 146.1 171.6 L 155.1 171.9 L 166.2 171.5 L 179.6 170.4 L 190.5 169.5 L 180.7 183.5 L 166.6 184.0 Z M 136.1 79.0 L 135.9 76.5 L 135.7 73.9 L 135.3 71.4 L 135.0 68.9 L 134.5 66.4 L 134.1 63.9 L 133.2 61.6 L 134.7 60.7 L 136.3 62.7 L 138.1 64.7 L 139.8 66.9 L 141.3 69.2 L 142.7 71.6 L 144.0 74.1 L 145.2 76.8 L 146.3 79.5 L 147.3 82.3 L 148.2 85.3 L 146.9 89.7 L 145.20434780120848 90.7 L 158.19310340881347 90.7 L 158.4 89.5 L 158.6 86.6 L 158.9 83.6 L 159.3 80.7 L 159.6 77.8 L 160.1 74.9 L 160.5 71.9 L 161.0 69.0 L 161.4 66.0 L 161.73972368240356 64.02960252761841 L 161.6 64.0 L 162.4 61.5 L 173.4 66.5 L 175.7 69.3 L 171.61717023849488 70.30280027389526 L 166.9 80.1 L 165.5 82.7 L 162.5 87.9 L 160.9 90.4 L 160.74399995803833 90.7 L 169.3 90.7 L 173.8 84.7 L 179.8 90.7 L 179.8 94.7 L 157.8 94.7 L 157.8 115.0 L 162.1777777671814 115.0 L 168.4 108.0 L 176.4 115.0 L 176.4 119.0 L 157.8 119.0 L 157.8 139.3 L 161.6 139.3 L 171.6 129.3 L 183.6 139.3 L 183.6 143.3 L 157.8 143.3 L 157.8 165.3 L 145.8 171.3 L 145.8 143.3 L 121.5 143.3 L 121.5 139.3 L 145.8 139.3 L 145.8 119.0 L 127.3 119.0 L 127.3 115.0 L 145.8 115.0 L 145.8 94.7 L 125.0 94.7 L 125.0 90.7 L 138.54102563858032 90.7 L 136.3 86.9 L 136.3 81.6 Z M 23.9 42.0 L 37.2 42.0 L 43.2 37.0 L 54.2 46.0 L 49.2 50.0 L 49.2 140.0 L 37.2 146.0 L 37.2 134.0 L 23.9 134.0 L 23.9 146.0 L 11.9 152.0 L 11.9 36.0 Z M 23.9 46.0 L 23.9 130.0 L 37.2 130.0 L 37.2 46.0 Z M 120.8 56.5 L 145.8 56.5 L 145.8 36.2 L 125.4 36.2 L 125.4 32.2 L 145.8 32.2 L 145.8 12.5 L 157.8 14.5 L 160.8 16.5 L 157.8 18.3 L 157.8 32.2 L 160.51818180084229 32.2 L 168.7 23.2 L 178.7 32.2 L 178.7 36.2 L 157.8 36.2 L 157.8 56.5 L 161.6 56.5 L 171.6 46.5 L 183.6 56.5 L 183.6 60.5 L 120.8 60.5 Z M 108.7 40.3 L 108.0 37.9 L 107.1 35.6 L 106.3 33.2 L 105.3 31.0 L 104.3 28.7 L 103.2 26.5 L 102.1 24.2 L 100.5 22.3 L 101.7 21.0 L 103.8 22.5 L 106.1 23.8 L 108.3 25.4 L 110.4 27.2 L 112.4 29.1 L 114.3 31.2 L 116.2 33.4 L 117.9 35.8 L 119.6 38.3 L 121.1 41.0 L 121.0 45.5 L 117.7 48.7 L 113.2 48.6 L 110.0 45.4 L 109.4 42.8 Z " />
</g>
</svg>
