<svg xmlns="http://www.w3.org/2000/svg" xmlns:xlink="http://www.w3.org/1999/xlink" version="1.1" baseProfile="full" viewBox="0 0 200 200" width="200" height="200">
<g fill="black">
<path d="M 137.5 175.9 L 157.5 175.9 L 158.8 175.8 L 159.7 175.6 L 160.6 175.3 L 160.8 175.1 L 160.9 174.9 L 161.1 174.6 L 161.3 174.0 L 161.5 173.1 L 161.5 114.5 L 115.3 114.5 L 115.3 110.5 L 161.5 110.5 L 161.5 85.4 L 173.5 87.4 L 176.5 89.4 L 173.5 91.2 L 173.5 110.5 L 178.2 110.5 L 182.7 104.5 L 188.7 110.5 L 188.7 114.5 L 173.5 114.5 L 173.5 171.9 L 173.4 174.4 L 172.9 176.9 L 172.1 179.3 L 170.9 181.6 L 169.3 183.6 L 167.2 185.3 L 165.0 186.5 L 162.6 187.3 L 160.1 187.7 L 157.5 187.9 L 157.5 181.9 L 137.5 178.9 Z M 85.4 132.6 L 101.8 132.6 L 107.8 127.6 L 118.8 136.6 L 113.8 140.6 L 113.8 178.8 L 101.8 184.8 L 101.8 174.8 L 85.4 174.8 L 85.4 181.8 L 73.4 187.8 L 73.4 126.6 Z M 85.4 136.6 L 85.4 170.8 L 101.8 170.8 L 101.8 136.6 Z M 134.3 150.7 L 133.1 147.7 L 131.8 144.7 L 130.4 141.9 L 128.9 139.2 L 127.3 136.5 L 125.5 133.9 L 123.7 131.2 L 121.5 128.9 L 122.6 127.4 L 125.5 129.1 L 128.5 130.7 L 131.3 132.6 L 134.1 134.8 L 136.7 137.3 L 139.1 140.0 L 141.4 142.9 L 143.6 146.0 L 145.6 149.3 L 147.5 152.7 L 147.4 157.3 L 144.1 160.5 L 139.6 160.4 L 136.4 157.2 L 135.4 153.9 Z M 28.7 42.0 L 51.1 42.0 L 57.1 37.0 L 68.1 46.0 L 63.1 50.0 L 63.1 140.0 L 51.1 146.0 L 51.1 134.0 L 28.7 134.0 L 28.7 146.0 L 16.7 152.0 L 16.7 36.0 Z M 28.7 46.0 L 28.7 130.0 L 51.1 130.0 L 51.1 46.0 Z M 111.5 107.5 L 111.5 111.5 L 75.6 111.5 L 75.6 107.5 L 97.27777776718139 107.5 L 103.5 100.5 Z M 111.5 81.4 L 111.5 85.4 L 75.6 85.4 L 75.6 81.4 L 97.27777776718139 81.4 L 103.5 74.4 Z M 114.6 77.4 L 145.0 77.4 L 145.0 46.2 L 118.6 46.2 L 118.6 42.2 L 145.0 42.2 L 145.0 12.0 L 157.0 14.0 L 160.0 16.0 L 157.0 17.8 L 157.0 42.2 L 161.4 42.2 L 171.4 32.2 L 183.4 42.2 L 183.4 46.2 L 157.0 46.2 L 157.0 77.4 L 168.0 77.4 L 178.0 67.4 L 190.0 77.4 L 190.0 81.4 L 114.6 81.4 Z M 117.2 53.2 L 117.2 57.2 L 73.0 57.2 L 73.0 53.2 L 99.01818180084229 53.2 L 107.2 44.2 Z M 111.5 27.1 L 111.5 31.1 L 75.6 31.1 L 75.6 27.1 L 97.27777776718139 27.1 L 103.5 20.1 Z " />
</g>
</svg>
