<svg xmlns="http://www.w3.org/2000/svg" xmlns:xlink="http://www.w3.org/1999/xlink" version="1.1" baseProfile="full" viewBox="0 0 200 200" width="200" height="200">
<g fill="black">
<path d="M 132.23239440917968 99.86056337356567 L 131.5 110.7 L 131.27876176834107 112.14331588745117 L 131.8 115.7 L 134.1 126.2 L 137.1 135.8 L 138.86163730621337 139.69414567947388 L 139.9 138.8 L 143.4 135.7 L 146.9 132.8 L 153.5 127.0 L 156.7 124.2 L 159.8 121.4 L 165.6 115.8 L 167.66253204345702 113.66107788085938 L 167.6 113.6 L 168.5 112.8 L 176.2 122.0 L 176.7 125.6 L 172.94532804489137 124.39314117431641 L 172.8 124.5 L 169.4 126.8 L 165.8 129.2 L 162.1 131.5 L 158.3 133.7 L 154.3 135.9 L 150.3 137.9 L 146.0 139.9 L 141.7 141.7 L 140.0649193763733 142.3540322303772 L 140.9 144.2 L 145.5 151.7 L 150.8 158.3 L 157.0 163.9 L 164.0 168.8 L 171.9 172.8 L 180.7 176.1 L 187.9 178.6 L 176.4 188.5 L 166.4 184.1 L 157.5 178.7 L 149.7 172.3 L 143.1 164.9 L 137.6 156.7 L 133.3 147.7 L 130.2 137.9 L 128.42670888900756 128.00690231323242 L 126.0 137.0 L 121.4 148.3 L 115.5 158.3 L 108.3 167.0 L 100.0 174.4 L 90.6 180.3 L 80.0 184.7 L 68.5 187.6 L 68.0 185.8 L 78.6 181.2 L 87.8 175.7 L 95.8 169.3 L 102.6 162.0 L 108.3 153.7 L 112.9 144.4 L 116.4 134.0 L 118.8 122.5 L 120.2 109.8 L 120.5 95.9 L 120.5 93.5 L 132.5 95.9 L 135.5 97.9 Z M 75.8 149.6 L 75.5 145.0 L 78.5 141.5 L 81.0 140.4 L 83.3 139.1 L 85.4 137.5 L 87.3 135.5 L 89.1 133.1 L 90.7 130.2 L 92.1 126.8 L 93.3 123.0 L 94.3 118.8 L 94.8 114.0 L 96.6 114.0 L 97.2 118.8 L 97.7 123.5 L 97.7 127.9 L 97.3 132.2 L 96.3 136.2 L 94.8 140.0 L 92.9 143.6 L 90.4 146.8 L 87.4 149.7 L 83.9 152.2 L 79.3 152.5 Z M 26.4 42.0 L 46.7 42.0 L 52.7 37.0 L 63.7 46.0 L 58.7 50.0 L 58.7 140.0 L 46.7 146.0 L 46.7 134.0 L 26.4 134.0 L 26.4 146.0 L 14.4 152.0 L 14.4 36.0 Z M 26.4 46.0 L 26.4 130.0 L 46.7 130.0 L 46.7 46.0 Z M 113.6 69.7 L 112.0 67.3 L 110.3 65.0 L 108.5 62.7 L 106.6 60.4 L 104.5 58.2 L 100.1 53.6 L 99.47863063812255 53.145922374725345 L 98.2 56.1 L 94.6 62.0 L 90.4 67.2 L 85.6 71.6 L 80.39392261505127 74.87790050506592 L 80.9 78.8 L 81.3372880935669 83.1 L 172.5 83.1 L 178.5 78.1 L 189.5 87.1 L 184.5 90.1 L 181.7146788597107 91.2605504989624 L 181.4 91.8 L 179.9 94.2 L 178.3 96.7 L 176.5 99.4 L 174.6 102.2 L 172.5 105.0 L 170.3 108.0 L 167.9 111.1 L 165.6 114.4 L 164.0 113.6 L 165.5 109.8 L 166.5 106.1 L 167.6 102.6 L 168.6 99.2 L 169.6 96.1 L 170.4 93.1 L 171.2 90.3 L 171.9 87.7 L 172.025 87.1 L 81.63333330154418 87.1 L 81.8 90.1 L 81.8 95.2 L 81.5 99.8 L 80.9 104.1 L 80.1 108.0 L 78.9 111.7 L 77.3 115.0 L 75.3 117.9 L 71.0 119.6 L 66.8 117.9 L 65.1 113.6 L 66.8 109.4 L 68.1 108.4 L 69.5 106.8 L 70.9 104.6 L 72.3 101.7 L 73.5 98.3 L 74.7 94.2 L 75.7 89.6 L 76.7 84.5 L 77.6 78.8 L 77.92452726364135 75.9256160736084 L 74.3 77.4 L 73.5 75.8 L 78.0 71.9 L 81.9 67.7 L 85.2 63.1 L 88.1 58.1 L 90.4 52.6 L 92.2 46.6 L 93.6 39.9 L 94.4 32.6 L 94.8 24.7 L 94.6 16.1 L 94.67055368423462 16.098824119567873 L 94.6 13.7 L 106.6 15.9 L 109.7 17.9 L 106.42858390808105 19.92827796936035 L 106.2 25.3 L 105.1 33.9 L 103.4 42.0 L 101.1 49.4 L 100.44325695037841 50.917302799224856 L 101.4 51.3 L 104.6 52.4 L 107.7 53.7 L 110.6 55.2 L 113.5 56.9 L 116.2 58.7 L 118.9 60.7 L 121.4 62.9 L 123.9 65.2 L 126.2 67.6 L 127.2 72.1 L 124.8 76.0 L 120.4 77.0 L 116.5 74.6 L 115.1 72.1 Z M 167.3 69.7 L 165.7 67.3 L 164.0 65.0 L 160.2 60.4 L 158.2 58.2 L 156.0 55.9 L 153.7 53.6 L 153.11759462356568 53.15737190246582 L 151.8 56.1 L 148.2 62.0 L 144.0 67.2 L 139.2 71.6 L 133.9 75.0 L 128.0 77.4 L 127.2 75.8 L 131.7 71.9 L 135.6 67.7 L 138.9 63.1 L 141.7 58.1 L 144.0 52.6 L 145.9 46.6 L 147.2 39.9 L 148.1 32.6 L 148.5 24.7 L 148.3232018470764 17.097679805755615 L 148.3 17.1 L 148.3 13.7 L 160.3 15.9 L 163.3 17.9 L 160.08544149398804 19.933700275421142 L 159.8 25.3 L 158.8 33.9 L 157.1 42.0 L 154.8 49.4 L 154.11924495697022 50.920352935791016 L 155.1 51.3 L 158.3 52.4 L 161.3 53.7 L 164.3 55.2 L 167.1 56.9 L 169.9 58.7 L 172.5 60.7 L 175.1 62.9 L 177.5 65.2 L 179.9 67.6 L 180.8 72.1 L 178.5 76.0 L 174.0 77.0 L 170.1 74.6 L 168.7 72.1 Z M 77.6 51.5 L 74.9 47.7 L 75.6 43.2 L 76.8 42.1 L 79.8 38.2 L 80.6 36.7 L 81.4 35.0 L 82.0 33.3 L 82.6 31.4 L 83.2 29.4 L 83.0 27.3 L 84.8 27.0 L 85.3 29.1 L 86.2 31.2 L 86.9 33.4 L 87.4 35.6 L 87.7 37.8 L 87.7 40.1 L 87.6 42.5 L 87.2 44.8 L 86.6 47.1 L 85.8 49.5 L 82.1 52.1 Z M 131.2 51.5 L 128.6 47.7 L 129.2 43.2 L 130.4 42.1 L 131.5 40.8 L 132.5 39.5 L 133.4 38.2 L 134.3 36.7 L 135.7 33.3 L 136.3 31.4 L 136.8 29.4 L 136.7 27.3 L 138.4 27.0 L 139.0 29.1 L 139.9 31.2 L 140.6 33.4 L 141.1 35.6 L 141.3 37.8 L 141.4 40.1 L 141.2 42.5 L 140.9 44.8 L 140.3 47.1 L 139.5 49.5 L 135.7 52.1 Z M 179.2 27.2 L 181.2 30.2 L 176.65480766296386 30.826923084259032 L 176.3 31.3 L 174.7 33.3 L 173.0 35.2 L 169.2 38.8 L 167.2 40.6 L 165.1 42.3 L 162.8 43.8 L 160.8 45.7 L 159.5 44.4 L 161.0 42.3 L 162.1 39.8 L 164.1 35.2 L 165.0 32.9 L 165.9 30.7 L 166.6 28.6 L 167.8 24.4 L 168.00591135025024 23.37044334411621 L 167.8 23.3 L 168.17931032180786 22.503448295593262 L 168.2 22.4 L 168.22365589141845 22.41032257080078 L 168.8 21.2 Z M 125.6 27.2 L 127.5 30.2 L 122.98139533996581 30.823255825042725 L 121.0 33.3 L 119.3 35.2 L 117.5 37.0 L 115.6 38.8 L 113.6 40.6 L 111.4 42.3 L 109.2 43.8 L 107.2 45.7 L 105.8 44.4 L 107.4 42.3 L 108.4 39.8 L 109.5 37.5 L 110.5 35.2 L 111.4 32.9 L 112.2 30.7 L 113.6 26.5 L 114.1 24.4 L 114.36121215820313 23.355151557922362 L 114.2 23.3 L 115.1 21.2 Z " />
</g>
</svg>
