<svg xmlns="http://www.w3.org/2000/svg" xmlns:xlink="http://www.w3.org/1999/xlink" version="1.1" baseProfile="full" viewBox="0 0 200 200" width="200" height="200">
<g fill="black">
<path d="M 96.0 118.0 L 146.9 118.0 L 152.9 113.0 L 163.9 122.0 L 158.9 126.0 L 158.9 149.1 L 147.86085109710694 154.61957445144654 L 152.2 157.6 L 153.8 160.8 L 149.7255570411682 160.94049806594847 L 146.2 165.7 L 144.1 168.3 L 142.0 171.0 L 139.8 173.5 L 137.7 176.1 L 135.4 178.5 L 133.0 180.9 L 158.7 180.9 L 168.7 170.9 L 180.7 180.9 L 180.7 184.9 L 62.2 184.9 L 62.2 180.9 L 130.0709677696228 180.9 L 130.7 179.4 L 131.7 176.3 L 134.1 170.1 L 135.4 167.0 L 136.6 163.9 L 137.9 160.9 L 139.2 157.8 L 140.5 154.8 L 141.34383010864258 152.62010555267335 L 141.3 152.6 L 141.47021274566652 152.2936170578003 L 141.7 151.7 L 141.77620964050294 151.7428225517273 L 142.3 150.8 L 146.9 153.95959596633912 L 146.9 149.1 L 96.0 149.1 L 84.0 155.1 L 84.0 112.0 Z M 100.9 172.1 L 100.2 169.7 L 99.4 167.3 L 98.4 164.8 L 97.3 162.4 L 96.1 160.0 L 94.7 157.5 L 93.2 154.9 L 91.3 152.7 L 92.4 151.3 L 95.0 153.1 L 97.6 154.7 L 100.1 156.5 L 102.5 158.5 L 104.7 160.6 L 106.7 162.9 L 108.6 165.4 L 110.3 167.9 L 111.9 170.6 L 113.3 173.4 L 112.8 178.0 L 109.3 180.9 L 104.8 180.5 L 101.8 177.0 L 101.4 174.6 Z M 24.3 42.0 L 41.4 42.0 L 47.4 37.0 L 58.4 46.0 L 53.4 50.0 L 53.4 140.0 L 41.4 146.0 L 41.4 134.0 L 24.3 134.0 L 24.3 146.0 L 12.3 152.0 L 12.3 36.0 Z M 96.0 122.0 L 96.0 145.1 L 146.9 145.1 L 146.9 122.0 Z M 24.3 46.0 L 24.3 130.0 L 41.4 130.0 L 41.4 46.0 Z M 81.0 86.7 L 79.8 84.5 L 78.6 82.5 L 77.2 80.4 L 75.7 78.4 L 74.1 76.5 L 72.4 74.5 L 70.6 72.4 L 68.4 70.8 L 69.3 69.3 L 71.9 70.3 L 74.6 71.2 L 77.2 72.3 L 79.8 73.5 L 82.2 75.0 L 84.6 76.6 L 86.9 78.4 L 89.1 80.3 L 91.2 82.4 L 93.1 84.6 L 93.62767734527588 87.56818494796752 L 95.0 85.8 L 99.8 78.8 L 104.1 71.4 L 108.1 63.7 L 109.69876546859741 60.0 L 73.0 60.0 L 73.0 56.0 L 111.1 56.0 L 117.1 51.0 L 128.1 60.0 L 123.1 63.0 L 120.78527917861939 63.96446704864502 L 118.2 68.9 L 113.3 76.9 L 108.0 84.5 L 102.2 91.6 L 96.0 98.2 L 93.23225803375244 100.8 L 129.8 100.8 L 139.8 90.8 L 151.8 100.8 L 151.8 104.8 L 91.1 104.8 L 91.1 102.80303030014038 L 89.4 104.4 L 82.3 110.0 L 74.8 115.1 L 66.8 119.6 L 58.3 123.5 L 57.4 121.9 L 64.7 116.4 L 71.6 110.8 L 78.1 105.0 L 84.1 98.9 L 89.16130590438843 93.21713018417358 L 86.7 93.6 L 83.0 91.0 L 82.0 88.8 Z M 162.1 109.8 L 155.3 103.9 L 149.0 97.5 L 143.4 90.7 L 138.5 83.4 L 134.2 75.7 L 130.6 67.6 L 127.8 59.0 L 125.9 50.0 L 127.7 49.5 L 131.7 57.5 L 135.9 65.0 L 140.4 72.1 L 144.07327222824097 76.97270803451538 L 145.7 73.9 L 147.5 70.8 L 149.1 67.9 L 150.7 65.1 L 152.1 62.5 L 153.4 60.1 L 154.5 57.9 L 155.6 55.8 L 156.03059301376342 54.777341556549075 L 155.9 54.7 L 156.342857170105 54.03571424484253 L 156.4 53.9 L 156.4226851463318 53.9159722328186 L 156.9 53.2 L 166.2 60.8 L 167.5 64.1 L 163.11984872817993 63.797920608520506 L 162.8 64.1 L 160.9 65.9 L 158.8 67.8 L 156.6 69.8 L 154.2 72.0 L 151.7 74.2 L 148.9 76.6 L 146.0 79.0 L 145.8051562309265 79.18140621185303 L 150.6 84.7 L 156.03976440429688 90.0443299293518 L 158.0 87.3 L 160.3 84.1 L 162.5 81.0 L 164.6 78.2 L 166.4 75.6 L 168.1 73.2 L 169.6 71.0 L 170.8 69.0 L 171.34696130752565 68.10497236251831 L 171.2 68.0 L 171.8333333015442 67.30909090042114 L 171.9 67.2 L 171.91866664886476 67.21599998474122 L 172.3 66.8 L 181.0 75.0 L 182.0 78.5 L 177.6226414680481 77.74528303146363 L 177.3 78.0 L 175.1 79.8 L 172.7 81.6 L 170.1 83.6 L 167.3 85.8 L 164.3 88.0 L 161.0 90.4 L 158.42841730117797 92.11438846588135 L 162.4 95.5 L 169.1 100.2 L 176.1 104.5 L 183.7 108.3 L 189.0 111.0 L 177.7 120.1 L 169.6 115.2 Z M 148.8 15.3 L 151.8 17.3 L 148.8 19.1 L 148.8 31.0 L 165.0 31.0 L 175.0 21.0 L 187.0 31.0 L 187.0 35.0 L 148.8 35.0 L 148.8 48.0 L 136.8 54.0 L 136.8 35.0 L 106.9 35.0 L 106.9 48.0 L 94.9 54.0 L 94.9 35.0 L 56.7 35.0 L 56.7 31.0 L 94.9 31.0 L 94.9 13.3 L 106.9 15.3 L 109.9 17.3 L 106.9 19.1 L 106.9 31.0 L 136.8 31.0 L 136.8 13.3 Z " />
</g>
</svg>
