<svg xmlns="http://www.w3.org/2000/svg" xmlns:xlink="http://www.w3.org/1999/xlink" version="1.1" baseProfile="full" viewBox="0 0 200 200" width="200" height="200">
<g fill="black">
<path d="M 53.1 177.8 L 69.4 177.8 L 70.1 177.6 L 70.5 177.5 L 70.7 177.3 L 70.9 177.2 L 71.1 176.9 L 71.3 176.5 L 71.5 175.7 L 71.7 174.7 L 71.7 108.3 L 11.5 108.3 L 11.5 104.3 L 74.7 104.3 L 84.7 94.3 L 96.7 104.3 L 96.7 108.3 L 82.7 108.3 L 82.7 173.3 L 82.6 175.8 L 82.2 178.1 L 81.6 180.4 L 80.6 182.5 L 79.2 184.4 L 77.4 186.1 L 75.4 187.4 L 73.1 188.2 L 70.8 188.7 L 68.5 188.8 L 68.5 183.3 L 53.1 180.6 Z M 166.1 109.0 L 161.9 102.4 L 158.3 95.3 L 155.5 87.6 L 153.4 79.3 L 151.9 70.5 L 151.83168725967408 69.70586423873901 L 149.7 77.3 L 145.7 87.7 L 140.7 97.0 L 134.7 105.3 L 127.9 112.5 L 120.2 118.6 L 114.80111112594605 121.5505555152893 L 124.9 126.6 L 164.6 126.6 L 170.6 121.6 L 181.6 130.6 L 176.6 134.6 L 176.6 178.3 L 164.6 184.3 L 164.6 174.3 L 124.9 174.3 L 124.9 181.3 L 112.9 187.3 L 112.9 122.58953485488891 L 111.6 123.3 L 102.3 126.8 L 101.6 125.1 L 109.7 120.0 L 116.9 114.3 L 123.2 107.9 L 128.7 100.8 L 133.3 92.9 L 137.1 84.1 L 140.1 74.4 L 142.3 63.8 L 143.8 52.2 L 144.21803274154664 42.0 L 138.65 42.0 L 138.2 42.9 L 135.3 48.0 L 132.1 52.9 L 128.5 57.7 L 124.4 62.2 L 119.9 66.5 L 118.5 65.4 L 121.3 60.0 L 124.0 54.8 L 126.4 49.6 L 128.6 44.6 L 130.5 39.5 L 132.1 34.4 L 133.4 29.4 L 134.4 24.3 L 135.2 19.3 L 135.52149896621705 15.200888347625732 L 135.5 15.2 L 135.55500001907347 14.773750019073486 L 135.6 14.2 L 135.62857141494752 14.20357141494751 L 135.9 12.1 L 147.6 15.7 L 150.3 18.0 L 146.76402988433838 19.601194000244142 L 146.4 21.3 L 144.9 26.9 L 143.0 32.4 L 140.8 37.7 L 140.65 38.0 L 171.2 38.0 L 177.2 33.0 L 188.2 42.0 L 183.2 45.0 L 180.11428575515748 46.28571424484253 L 179.9 46.6 L 178.4 48.9 L 176.7 51.2 L 174.9 53.5 L 172.9 55.9 L 170.9 58.2 L 168.7 60.6 L 166.3 62.9 L 164.1 65.5 L 162.6 64.4 L 164.1 61.5 L 165.2 58.4 L 166.3 55.4 L 167.3 52.6 L 168.3 49.9 L 169.9 44.7 L 170.6 42.3 L 170.66521739959717 42.0 L 156.22406015396118 42.0 L 155.322451877594 51.22414588928223 L 157.0 60.5 L 159.0 69.2 L 161.4 77.1 L 164.3 84.3 L 167.5 90.8 L 171.2 96.5 L 175.3 101.6 L 179.8 105.9 L 184.6 109.7 L 187.6 111.9 L 176.7 120.2 L 171.0 114.9 Z M 124.9 130.6 L 124.9 170.3 L 164.6 170.3 L 164.6 130.6 Z M 32.0 126.2 L 49.4 126.2 L 54.9 121.2 L 65.4 130.2 L 60.4 133.7 L 60.4 160.7 L 49.4 166.2 L 49.4 156.7 L 32.0 156.7 L 32.0 163.7 L 20.0 169.7 L 20.0 120.2 Z M 32.0 130.2 L 32.0 152.7 L 49.4 152.7 L 49.4 130.2 Z M 94.6 91.3 L 97.9 89.7 L 101.3 87.9 L 104.8 86.0 L 108.4 84.0 L 112.0 81.8 L 115.7 79.5 L 119.5 77.1 L 123.4 74.6 L 127.5 72.0 L 131.6 69.3 L 132.8 70.6 L 129.7 74.5 L 126.6 78.3 L 123.4 81.8 L 120.2 85.2 L 117.0 88.3 L 113.7 91.3 L 110.4 94.1 L 107.2 96.8 L 104.08031988143921 99.16339406967163 L 103.8 103.2 L 100.6 101.6 L 92.9 92.3 Z M 53.1 87.0 L 68.5 87.0 L 69.4 86.9 L 70.1 86.8 L 70.5 86.7 L 70.7 86.5 L 70.9 86.4 L 71.1 86.1 L 71.3 85.7 L 71.5 84.9 L 71.7 83.9 L 71.7 26.8 L 11.5 26.8 L 11.5 22.8 L 78.51818180084229 22.8 L 86.7 13.8 L 96.7 22.8 L 96.7 26.8 L 82.7 26.8 L 82.7 82.5 L 82.6 84.9 L 82.2 87.3 L 81.6 89.5 L 80.6 91.7 L 79.2 93.6 L 77.4 95.3 L 75.4 96.5 L 73.1 97.4 L 70.8 97.8 L 68.5 98.0 L 68.5 92.5 L 53.1 89.7 Z M 31.7 43.5 L 49.7 43.5 L 55.2 38.5 L 65.7 47.5 L 60.7 51.0 L 60.7 78.8 L 49.7 84.3 L 49.7 74.8 L 31.7 74.8 L 31.7 81.8 L 19.7 87.8 L 19.7 37.5 Z M 31.7 47.5 L 31.7 70.8 L 49.7 70.8 L 49.7 47.5 Z M 127.0 40.0 L 127.0 44.0 L 95.0 44.0 L 95.0 40.0 L 112.77777776718139 40.0 L 119.0 33.0 Z " />
</g>
</svg>
