<svg xmlns="http://www.w3.org/2000/svg" xmlns:xlink="http://www.w3.org/1999/xlink" version="1.1" baseProfile="full" viewBox="0 0 200 200" width="200" height="200">
<g fill="black">
<path d="M 53.5 174.1 L 72.7 174.1 L 73.6 173.9 L 74.2 173.7 L 74.5 173.5 L 74.7 173.4 L 74.9 173.2 L 75.2 172.3 L 75.4 171.4 L 75.5 170.1 L 75.5 117.42727270126343 L 72.1 119.9 L 67.6 123.1 L 66.61056699752808 123.8195876121521 L 66.5 127.8 L 63.2 126.3 L 55.1 117.2 L 56.8 116.1 L 61.6 113.5 L 71.0 108.3 L 75.5 105.71489362716675 L 75.5 57.4 L 58.6 57.4 L 58.6 53.4 L 75.5 53.4 L 75.5 14.8 L 87.5 16.8 L 90.5 18.8 L 87.5 20.6 L 87.5 53.4 L 90.5777777671814 53.4 L 96.8 46.4 L 104.8 53.4 L 104.8 57.4 L 87.5 57.4 L 87.5 98.9723403930664 L 94.5 95.1 L 99.3 92.7 L 104.3 90.3 L 105.3 91.8 L 101.6 95.7 L 97.6 99.5 L 93.5 103.1 L 89.3 106.6 L 87.5 108.05714282989501 L 87.5 170.1 L 87.3 172.7 L 86.9 175.2 L 86.1 177.6 L 84.8 179.9 L 83.2 181.9 L 81.2 183.5 L 78.9 184.8 L 76.5 185.6 L 74.0 186.0 L 71.5 186.1 L 71.5 180.1 L 53.5 177.1 Z M 176.2 181.8 L 174.4 183.5 L 172.5 184.9 L 170.4 186.2 L 168.2 187.2 L 166.0 188.0 L 163.6 188.5 L 161.2 188.8 L 158.7 189.0 L 158.7 183.0 L 138.7 180.0 L 138.7 177.0 L 158.7 177.0 L 160.1 176.9 L 161.5 176.7 L 162.7 176.4 L 163.8 176.1 L 164.8 175.6 L 165.8 175.0 L 166.7 174.3 L 167.6 173.5 L 168.5 172.5 L 169.3 171.3 L 170.1 169.9 L 170.9 167.7 L 171.7 164.6 L 172.4 160.8 L 173.0 156.2 L 173.5 151.0 L 173.8 145.0 L 174.0 138.4 L 174.07338619232178 132.9694224357605 L 174.0 133.0 L 174.0 125.0 L 123.5 125.0 L 111.5 131.0 L 111.5 33.0 L 123.5 39.0 L 136.33999996185304 39.0 L 136.7 38.0 L 137.1 35.3 L 137.6 32.6 L 138.2 29.9 L 139.2 24.7 L 139.7 22.0 L 140.1 19.4 L 140.6 16.8 L 140.84701194763184 15.132669353485108 L 140.7 15.1 L 140.98275861740112 14.216379356384277 L 141.0 14.1 L 141.01816444396974 14.10573616027832 L 141.5 12.6 L 152.4 17.7 L 154.7 20.5 L 150.53900003433228 21.52200002670288 L 149.9 22.8 L 148.5 25.3 L 147.1 27.7 L 145.6 30.1 L 144.1 32.4 L 142.5 34.7 L 138.98181819915771 39.0 L 163.6 39.0 L 169.6 34.0 L 180.6 43.0 L 175.6 47.0 L 175.6 81.0 L 163.6 87.0 L 163.6 77.0 L 123.5 77.0 L 123.5 98.0 L 169.61818180084228 98.0 L 177.8 89.0 L 187.8 98.0 L 187.8 102.0 L 123.5 102.0 L 123.5 121.0 L 174.0 121.0 L 180.0 116.0 L 191.0 125.0 L 186.0629539489746 127.96222763061523 L 186.1 131.0 L 186.0 138.6 L 185.8 145.5 L 185.5 151.8 L 185.0 157.5 L 184.3 162.7 L 183.4 167.2 L 182.3 171.3 L 181.0 174.9 L 179.3 178.0 L 177.8 180.0 Z M 104.1 175.0 L 102.4 170.8 L 104.2 166.6 L 105.6 165.5 L 107.0 164.1 L 108.3 162.2 L 109.6 159.9 L 110.8 157.2 L 111.8 154.0 L 112.6 150.4 L 113.3 146.3 L 113.9 141.9 L 114.1 137.0 L 115.9 136.9 L 116.8 141.7 L 117.7 146.3 L 118.3 150.6 L 118.5 154.8 L 118.4 158.7 L 118.0 162.4 L 117.2 165.9 L 116.1 169.2 L 114.5 172.3 L 112.5 175.2 L 108.3 176.8 Z M 128.8 170.8 L 125.3 167.9 L 124.7 163.4 L 125.4 162.2 L 126.0 160.8 L 126.5 159.0 L 126.9 157.0 L 127.2 154.8 L 127.2 149.6 L 126.9 146.6 L 126.6 143.4 L 125.7 140.2 L 127.4 139.5 L 128.9 142.6 L 130.7 145.4 L 132.2 148.2 L 133.4 150.9 L 134.5 153.6 L 135.3 156.3 L 135.9 158.9 L 136.3 161.5 L 136.4 164.1 L 136.2 166.7 L 133.3 170.3 Z M 142.5 154.1 L 142.6 152.3 L 142.6 150.4 L 142.4 148.6 L 142.0 146.7 L 141.5 144.9 L 140.8 142.9 L 140.0 140.9 L 138.5 139.3 L 139.7 137.9 L 141.5 139.3 L 143.7 140.5 L 145.6 142.0 L 147.4 143.7 L 149.0 145.6 L 150.4 147.7 L 151.6 150.1 L 152.6 152.5 L 153.3 155.2 L 153.9 158.0 L 152.1 162.2 L 147.9 164.0 L 143.7 162.2 L 141.9 158.0 L 142.2 156.0 Z M 158.3 147.4 L 158.2 146.2 L 158.0 144.9 L 157.5 143.5 L 156.8 142.0 L 155.8 140.5 L 154.6 138.9 L 153.1 137.3 L 151.1 136.2 L 151.7 134.5 L 154.0 135.3 L 156.4 135.8 L 158.7 136.5 L 160.8 137.5 L 162.8 138.6 L 164.6 140.1 L 166.3 141.7 L 167.7 143.6 L 168.9 145.8 L 169.9 148.1 L 168.7 152.5 L 164.8 154.9 L 160.4 153.7 L 158.0 149.8 L 158.2 148.7 Z M 24.0 42.0 L 40.5 42.0 L 46.5 37.0 L 57.5 46.0 L 52.5 50.0 L 52.5 140.0 L 40.5 146.0 L 40.5 134.0 L 24.0 134.0 L 24.0 146.0 L 12.0 152.0 L 12.0 36.0 Z M 24.0 46.0 L 24.0 130.0 L 40.5 130.0 L 40.5 46.0 Z M 123.5 43.0 L 123.5 73.0 L 163.6 73.0 L 163.6 43.0 Z " />
</g>
</svg>
