<svg xmlns="http://www.w3.org/2000/svg" xmlns:xlink="http://www.w3.org/1999/xlink" version="1.1" baseProfile="full" viewBox="0 0 200 200" width="200" height="200">
<g fill="black">
<path d="M 75.7 179.8 L 74.6 175.4 L 76.8 171.4 L 77.5 171.3 L 78.3 171.1 L 79.3 170.5 L 80.3 169.6 L 81.3 168.4 L 82.3 166.8 L 83.3 165.0 L 84.3 162.9 L 85.3 160.6 L 85.7 157.9 L 87.5 158.0 L 87.5 160.7 L 87.9 163.4 L 88.1 165.9 L 88.2 168.3 L 88.1 170.6 L 87.8 172.8 L 87.3 175.0 L 86.6 177.1 L 85.5 179.0 L 84.1 180.9 L 79.7 182.0 Z M 120.8 169.3 L 121.0 168.0 L 121.0 165.1 L 120.8 163.5 L 120.5 161.8 L 120.1 159.9 L 119.6 158.0 L 118.5 156.3 L 119.9 155.2 L 121.2 156.8 L 123.0 158.0 L 124.6 159.3 L 126.0 160.7 L 127.4 162.2 L 128.6 163.7 L 129.7 165.3 L 131.5 168.7 L 132.1 170.5 L 130.6 174.8 L 126.6 176.9 L 122.3 175.4 L 120.2 171.4 L 120.5 170.4 Z M 140.1 167.5 L 139.9 164.7 L 139.7 163.2 L 139.4 161.7 L 138.9 160.1 L 138.4 158.4 L 137.7 156.6 L 136.5 155.3 L 137.7 153.9 L 139.1 155.2 L 141.0 156.1 L 142.7 157.1 L 144.3 158.3 L 145.8 159.6 L 147.2 161.0 L 148.4 162.5 L 149.6 164.2 L 150.7 166.0 L 151.6 167.9 L 150.6 172.3 L 146.8 174.9 L 142.4 173.9 L 139.8 170.1 L 140.0 168.8 Z M 105.6 179.9 L 101.5 177.8 L 100.0 173.5 L 100.5 172.6 L 100.9 171.5 L 101.3 170.3 L 101.5 168.9 L 101.7 167.4 L 101.7 164.0 L 101.6 162.1 L 101.4 160.1 L 100.5 158.3 L 102.1 157.4 L 103.2 159.2 L 104.7 160.6 L 106.1 162.2 L 108.5 165.4 L 110.3 168.8 L 111.0 170.6 L 111.6 172.5 L 112.0 174.4 L 109.9 178.4 Z M 27.0 42.0 L 48.2 42.0 L 54.2 37.0 L 65.2 46.0 L 60.2 50.0 L 60.2 134.0 L 48.2 140.0 L 48.2 134.0 L 27.0 134.0 L 27.0 146.0 L 15.0 152.0 L 15.0 36.0 Z M 102.6 138.0 L 102.6 148.0 L 119.7 148.0 L 119.7 138.0 Z M 170.4 132.6 L 166.8 129.2 L 163.3 125.5 L 159.9 121.4 L 156.5 117.0 L 153.3 112.2 L 151.9884614944458 110.0 L 131.7 110.0 L 131.7 120.0 L 141.9777777671814 120.0 L 148.2 113.0 L 156.2 120.0 L 156.2 124.0 L 131.7 124.0 L 131.7 134.0 L 141.9777777671814 134.0 L 148.2 127.0 L 156.2 134.0 L 156.2 138.0 L 131.7 138.0 L 131.7 148.0 L 162.3 148.0 L 168.3 143.0 L 179.3 152.0 L 174.3 155.0 L 174.2 155.0416666984558 L 174.2 156.4 L 174.1 159.3 L 174.1 161.9 L 173.9 164.4 L 173.8 166.6 L 173.6 168.6 L 173.4 170.4 L 173.2 172.1 L 172.9 173.6 L 172.1 176.1 L 171.2 178.4 L 169.9 180.5 L 168.4 182.5 L 166.5 184.2 L 164.4 185.6 L 162.1 186.7 L 159.7 187.4 L 157.3 187.8 L 154.7 188.0 L 154.7 182.0 L 134.7 179.0 L 134.7 176.0 L 154.7 176.0 L 156.0 175.9 L 157.1 175.7 L 157.9 175.5 L 158.5 175.2 L 159.1 174.8 L 159.5 174.4 L 160.0 173.8 L 160.4 173.1 L 160.8 172.1 L 161.2 170.8 L 161.3 170.0 L 161.5 168.9 L 161.7 167.4 L 161.8 165.7 L 162.0 163.7 L 162.1 161.4 L 162.2 158.9 L 162.2 153.2 L 162.2375 152.0 L 102.6 152.0 L 90.6 158.0 L 90.6 122.59318180084229 L 90.5 122.7 L 85.9 127.2 L 81.0 131.3 L 75.8 135.0 L 70.3 138.4 L 64.4 141.3 L 63.4 139.8 L 68.0 135.3 L 72.4 130.9 L 76.6 126.4 L 80.5 121.9 L 84.1 117.2 L 87.5 112.4 L 90.5 107.5 L 90.6 107.31428575515747 L 90.6 100.0 L 93.67424240112305 101.53712120056153 L 95.9 97.0 L 96.3 96.0 L 66.7 96.0 L 66.7 92.0 L 101.2 92.0 L 101.2 78.2 L 79.5 78.2 L 79.5 74.2 L 101.2 74.2 L 101.2 61.4 L 82.4 61.4 L 82.4 57.4 L 101.2 57.4 L 101.2 41.5 L 113.2 43.5 L 116.2 45.5 L 113.2 47.3 L 113.2 57.4 L 136.7 57.4 L 136.7 41.5 L 148.7 43.5 L 151.7 45.5 L 148.7 47.3 L 148.7 57.4 L 153.37777776718139 57.4 L 159.6 50.4 L 167.6 57.4 L 167.6 61.4 L 148.7 61.4 L 148.7 74.2 L 152.21818180084227 74.2 L 160.4 65.2 L 170.4 74.2 L 170.4 78.2 L 148.7 78.2 L 148.7 92.0 L 168.9777777671814 92.0 L 175.2 85.0 L 183.2 92.0 L 183.2 96.0 L 147.6659574508667 96.0 L 150.7 99.1 L 154.9 103.5 L 158.9 107.7 L 162.8 111.5 L 166.6 115.0 L 170.4 118.1 L 174.0 120.9 L 177.5 123.2 L 180.9 125.2 L 184.3 126.8 L 189.0 129.5 L 177.8 138.4 L 174.0 135.7 Z M 102.6 124.0 L 102.6 134.0 L 119.7 134.0 L 119.7 124.0 Z M 27.0 46.0 L 27.0 130.0 L 48.2 130.0 L 48.2 46.0 Z M 102.6 110.0 L 102.6 120.0 L 119.7 120.0 L 119.7 110.0 Z M 109.1 96.4 L 106.0 102.2 L 103.69285717010499 106.0 L 139.1777777671814 106.0 L 145.4 99.0 L 146.6392156600952 100.08431367874145 L 144.8983606338501 96.0 L 109.3 96.0 Z M 113.2 78.2 L 113.2 92.0 L 136.7 92.0 L 136.7 78.2 Z M 113.2 61.4 L 113.2 74.2 L 136.7 74.2 L 136.7 61.4 Z M 62.9 62.6 L 61.9 58.2 L 64.2 54.2 L 65.4 53.7 L 66.7 52.8 L 68.0 51.5 L 69.3 49.6 L 70.6 47.2 L 71.7 44.4 L 72.8 41.1 L 73.8 37.3 L 74.7 33.1 L 75.1 28.5 L 76.9 28.4 L 77.4 33.1 L 77.74666662216187 35.7 L 119.0 35.7 L 119.0 12.5 L 131.0 14.5 L 134.0 16.5 L 131.0 18.3 L 131.0 35.7 L 172.9 35.7 L 178.9 30.7 L 189.9 39.7 L 184.9 42.7 L 181.00240001678466 44.32399997711182 L 180.8 44.6 L 179.6 46.3 L 178.3 48.2 L 176.8 50.3 L 175.2 52.6 L 173.4 55.0 L 171.9 57.8 L 170.3 57.1 L 171.3 54.1 L 171.7 51.1 L 172.2 48.4 L 172.6 45.9 L 172.9 43.7 L 172.9 39.7 L 78.15365858078003 39.7 L 78.3 41.7 L 78.3 45.6 L 78.0 49.2 L 77.4 52.6 L 76.5 55.8 L 75.2 58.8 L 73.5 61.5 L 71.3 64.0 L 66.8 65.0 Z " />
</g>
</svg>
