<svg xmlns="http://www.w3.org/2000/svg" xmlns:xlink="http://www.w3.org/1999/xlink" version="1.1" baseProfile="full" viewBox="0 0 200 200" width="200" height="200">
<g fill="black">
<path d="M 36.1 26.1 L 164.8 26.1 L 170.8 21.1 L 181.8 30.1 L 176.8 34.1 L 176.8 178.8 L 164.8 184.8 L 164.8 174.8 L 36.1 174.8 L 36.1 181.8 L 24.1 187.8 L 24.1 20.1 Z M 36.1 30.1 L 36.1 170.8 L 164.8 170.8 L 164.8 30.1 Z M 69.5 119.0 L 133.4 119.0 L 139.4 114.0 L 150.4 123.0 L 145.4 127.0 L 145.4 155.9 L 133.4 161.9 L 133.4 155.9 L 69.5 155.9 L 57.5 161.9 L 57.5 113.0 Z M 69.5 123.0 L 69.5 151.9 L 133.4 151.9 L 133.4 123.0 Z M 151.1 42.4 L 151.1 46.4 L 95.75652170181274 46.4 L 95.6 46.7 L 92.5 52.4 L 89.0 57.8 L 84.9 62.8 L 80.97083330154419 66.9 L 127.5 66.9 L 133.5 61.9 L 144.5 70.9 L 139.5 74.9 L 139.5 102.5 L 127.5 108.5 L 127.5 98.5 L 77.8 98.5 L 77.8 105.5 L 65.8 111.5 L 65.8 78.46557378768921 L 63.6 79.8 L 57.1 83.2 L 50.1 86.2 L 42.5 88.7 L 41.8 87.0 L 48.3 82.8 L 54.4 78.6 L 60.0 74.4 L 65.0 70.1 L 65.8 69.31777782440186 L 65.8 68.5 L 66.63636360168456 68.5 L 69.5 65.7 L 73.5 61.2 L 77.0 56.6 L 80.0 51.9 L 82.5 47.1 L 82.75925922393799 46.4 L 42.8 46.4 L 42.8 42.4 L 132.9181818008423 42.4 L 141.1 33.4 Z M 77.8 70.9 L 77.8 94.5 L 127.5 94.5 L 127.5 70.9 Z " />
</g>
</svg>
