<svg xmlns="http://www.w3.org/2000/svg" xmlns:xlink="http://www.w3.org/1999/xlink" version="1.1" baseProfile="full" viewBox="0 0 200 200" width="200" height="200">
<g fill="black">
<path d="M 96.21156072616577 104.60404624938965 L 93.6 106.2 L 89.9 108.2 L 89.6 108.34594593048095 L 89.6 182.1 L 77.6 188.1 L 77.6 131.65 L 76.71694402694702 132.10850982666017 L 76.5 133.6 L 75.5 139.0 L 74.4 144.4 L 73.0 149.7 L 71.5 154.9 L 69.7 160.0 L 67.7 165.1 L 65.5 170.0 L 63.0 174.8 L 60.1 179.5 L 58.4 178.8 L 59.4 173.5 L 60.4 168.3 L 61.4 163.2 L 62.4 158.0 L 63.2 152.9 L 63.9 147.8 L 64.5 142.7 L 64.9 137.6 L 65.2 132.4 L 65.36155815124512 128.19948701858522 L 65.3 128.2 L 65.5 125.0 L 77.3 128.1 L 77.6 128.32758617401123 L 77.6 113.58717947006225 L 74.5 114.7 L 70.5 116.1 L 66.42992696762084 117.39051094055176 L 64.8 121.1 L 62.3 118.5 L 58.2 107.1 L 60.1 106.7 L 64.1 106.3 L 69.89264707565307 105.57591915130615 L 71.0 102.3 L 73.5 95.2 L 78.9 81.0 L 80.54629430770873 76.56766920089721 L 77.2 79.1 L 72.7 78.4 L 69.9 74.8 L 69.5 71.6 L 68.9 68.6 L 68.1 65.6 L 67.3 62.8 L 66.3 60.0 L 65.2 57.2 L 64.0 54.6 L 62.7 51.9 L 61.2 49.2 L 59.4 46.8 L 60.6 45.5 L 63.2 47.3 L 65.9 49.1 L 68.4 51.2 L 69.90689659118652 52.77241382598877 L 70.1 52.0 L 72.1 43.8 L 76.5 27.8 L 77.5 23.8 L 78.6 19.8 L 79.37048196792603 16.71807231903076 L 79.3 16.7 L 80.1 14.3 L 91.0 19.7 L 93.2 22.5 L 89.40189809799195 23.36623373031616 L 89.3 23.6 L 87.5 27.4 L 85.6 31.3 L 83.8 35.1 L 79.8 42.5 L 77.7 46.2 L 75.5 49.8 L 71.93328466415406 55.00145988464355 L 72.9 56.1 L 75.0 58.9 L 76.9 61.9 L 78.6 65.0 L 80.2 68.3 L 81.6 71.8 L 81.08323526382446 75.1220588684082 L 81.5 74.0 L 84.2 66.9 L 89.4 52.7 L 94.04790258407593 39.31404047012329 L 94.0 39.3 L 94.9 37.0 L 105.6 42.7 L 107.6 45.6 L 104.0390489578247 46.22472829818726 L 102.5 49.7 L 99.3 56.7 L 96.0 63.7 L 92.7 70.6 L 89.3 77.4 L 85.8 84.2 L 82.1 90.9 L 78.4 97.5 L 74.4 103.9 L 73.66045894622803 105.02691965103149 L 76.1 104.6 L 80.0 104.0 L 84.0 103.2 L 87.9 102.5 L 91.9 101.7 L 95.61137437820435 101.06635074615478 L 95.6 101.0 L 95.0 97.7 L 94.3 94.4 L 92.7 88.2 L 91.8 85.2 L 90.8 82.2 L 89.6 79.5 L 91.0 78.4 L 93.2 80.7 L 95.6 83.0 L 97.7 85.6 L 99.7 88.5 L 101.6 91.6 L 103.3 94.8 L 104.8 98.3 L 106.3 102.0 L 107.6 105.8 L 108.8 109.8 L 107.7 114.3 L 103.9 116.8 L 99.5 115.7 L 96.9 111.9 L 96.6 108.1 Z M 142.8 170.7 L 143.2 171.4 L 143.7 171.9 L 144.1 172.1 L 145.1 172.3 L 146.9 172.3 L 148.1 172.2 L 148.7 172.2 L 148.7 27.7 L 142.1 27.7 L 142.1 168.2 L 142.4 169.6 Z M 95.9 150.1 L 95.4 146.3 L 94.8 142.6 L 94.2 139.0 L 93.5 135.6 L 92.8 132.3 L 91.9 129.1 L 91.1 126.0 L 90.0 123.1 L 91.5 122.1 L 93.7 124.5 L 96.0 127.1 L 98.0 130.0 L 99.9 133.1 L 101.7 136.5 L 103.3 140.1 L 104.8 143.9 L 106.1 147.9 L 107.3 152.1 L 108.4 156.5 L 107.2 160.9 L 103.3 163.3 L 98.9 162.1 L 96.5 158.2 L 96.2 154.1 Z M 24.0 42.0 L 40.5 42.0 L 46.5 37.0 L 57.5 46.0 L 52.5 50.0 L 52.5 140.0 L 40.5 146.0 L 40.5 134.0 L 24.0 134.0 L 24.0 146.0 L 12.0 152.0 L 12.0 36.0 Z M 156.7 114.3 L 156.7 138.1 L 170.8 138.1 L 170.8 114.3 Z M 120.0 113.8 L 120.0 137.6 L 134.1 137.6 L 134.1 113.8 Z M 24.0 46.0 L 24.0 130.0 L 40.5 130.0 L 40.5 46.0 Z M 156.7 89.4 L 156.7 110.3 L 170.8 110.3 L 170.8 89.4 Z M 120.0 89.1 L 120.0 109.8 L 134.1 109.8 L 134.1 89.1 Z M 156.7 27.7 L 156.7 56.4 L 168.0 56.4 L 168.0 27.7 Z M 123.8 27.7 L 123.8 56.4 L 134.1 56.4 L 134.1 27.7 Z M 181.6681818008423 148.16590909957887 L 170.8 153.6 L 170.8 142.1 L 156.7 142.1 L 156.7 172.2 L 175.9 172.2 Z M 187.9 178.2 L 185.5 181.8 L 181.9 184.2 L 148.1 184.2 L 145.6 183.8 L 143.2 183.2 L 140.9 182.2 L 138.8 180.9 L 137.1 179.2 L 135.7 177.2 L 134.8 175.1 L 134.2 172.8 L 134.0 170.5 L 134.1 168.2 L 134.1 141.6 L 120.0 141.6 L 120.0 153.6 L 109.0 159.1 L 109.0 79.6 L 120.0 85.1 L 134.1 85.1 L 134.1 60.4 L 123.8 60.4 L 123.8 67.4 L 112.8 72.9 L 112.8 18.2 L 123.8 23.7 L 168.0 23.7 L 173.5 18.7 L 184.0 27.7 L 179.0 31.2 L 179.0 64.4 L 168.0 69.9 L 168.0 60.4 L 156.7 60.4 L 156.7 85.4 L 170.8 85.4 L 176.3 80.4 L 186.8 89.4 L 181.8 92.9 L 181.8 147.61666669845582 L 181.9 147.2 L 183.9 147.2 L 181.9 172.2 L 185.5 174.6 Z " />
</g>
</svg>
