<svg xmlns="http://www.w3.org/2000/svg" xmlns:xlink="http://www.w3.org/1999/xlink" version="1.1" baseProfile="full" viewBox="0 0 200 200" width="200" height="200">
<g fill="black">
<path d="M 36.1 26.1 L 164.8 26.1 L 170.8 21.1 L 181.8 30.1 L 176.8 34.1 L 176.8 178.8 L 164.8 184.8 L 164.8 174.8 L 36.1 174.8 L 36.1 181.8 L 24.1 187.8 L 24.1 20.1 Z M 149.5 87.6 L 144.5 91.6 L 144.5 154.7 L 132.5 160.7 L 132.5 150.7 L 68.4 150.7 L 68.4 157.7 L 56.4 163.7 L 56.4 84.32631578445435 L 54.4 85.3 L 46.4 88.4 L 38.0 91.0 L 37.4 89.3 L 44.8 85.0 L 51.8 80.6 L 58.6 76.0 L 65.0 71.2 L 71.1 66.2 L 76.8 60.9 L 82.2 55.3 L 87.2 49.4 L 92.0 43.3 L 95.84184665679932 37.62454471588135 L 95.8 37.6 L 96.9 36.1 L 106.2 43.7 L 107.5 47.0 L 107.0348608970642 46.96792144775391 L 111.7 50.8 L 117.3 55.1 L 122.9 59.1 L 128.5 62.7 L 134.3 66.1 L 140.2 69.2 L 146.1 71.9 L 152.2 74.3 L 158.4 76.4 L 164.8 78.77714281082153 L 164.8 30.1 L 36.1 30.1 L 36.1 170.8 L 164.8 170.8 L 164.8 79.51130437850952 L 153.9 88.8 L 147.3 85.8 Z M 68.4 128.7 L 68.4 146.7 L 132.5 146.7 L 132.5 128.7 Z M 68.4 108.2 L 68.4 124.7 L 132.5 124.7 L 132.5 108.2 Z M 68.4 87.6 L 68.4 104.2 L 132.5 104.2 L 132.5 87.6 Z M 100.9 50.3 L 95.3 56.6 L 89.3 62.4 L 83.0 67.8 L 76.3 72.9 L 69.3 77.5 L 63.130322551727296 80.96516132354736 L 68.4 83.6 L 132.5 83.6 L 136.7744360923767 80.03796997070313 L 134.7 78.8 L 128.8 74.7 L 123.1 70.3 L 117.6 65.6 L 112.5 60.5 L 107.6 55.0 L 103.0 49.0 L 102.5377984046936 48.260477447509764 Z " />
</g>
</svg>
