<svg xmlns="http://www.w3.org/2000/svg" xmlns:xlink="http://www.w3.org/1999/xlink" version="1.1" baseProfile="full" viewBox="0 0 200 200" width="200" height="200">
<g fill="black">
<path d="M 36.1 26.1 L 164.8 26.1 L 170.8 21.1 L 181.8 30.1 L 176.8 34.1 L 176.8 178.8 L 164.8 184.8 L 164.8 174.8 L 36.1 174.8 L 36.1 181.8 L 24.1 187.8 L 24.1 20.1 Z M 36.1 30.1 L 36.1 170.8 L 164.8 170.8 L 164.8 30.1 Z M 83.5 54.5 L 85.7 57.4 L 81.91570243835449 58.19669418334961 L 81.1 60.1 L 78.2 65.4 L 74.9 70.6 L 71.2 75.5 L 67.1 80.2 L 62.6 84.6 L 57.8 88.8 L 52.5 92.8 L 46.8 96.3 L 40.6 99.5 L 39.6 98.0 L 44.5 93.3 L 49.0 88.7 L 53.2 84.1 L 57.1 79.5 L 60.5 74.8 L 63.6 70.1 L 66.3 65.4 L 68.6 60.5 L 70.6 55.6 L 72.2 50.6 L 72.21801080703736 50.60621614456177 L 72.7 49.1 Z M 141.3 89.8 L 136.7 85.4 L 132.5 80.7 L 131.9 79.88918914794922 L 131.9 83.4 L 96.09393939971923 83.4 L 88.45757579803467 108.6 L 125.2 108.6 L 131.2 103.6 L 142.2 112.6 L 137.2 115.6 L 136.92079210281372 115.71633663177491 L 136.8 117.8 L 136.2 124.2 L 135.4 130.1 L 134.4 135.6 L 133.1 140.5 L 131.6 145.0 L 129.7 149.0 L 127.5 152.6 L 124.9 155.7 L 121.8 158.3 L 119.8 159.5 L 117.8 160.6 L 115.7 161.6 L 111.5 163.2 L 109.3 163.8 L 107.0 164.2 L 104.8 164.5 L 102.5 164.7 L 100.2 164.8 L 100.2 158.8 L 84.2 155.8 L 84.2 152.8 L 101.8 152.8 L 105.0 152.4 L 106.5 152.1 L 108.0 151.7 L 109.5 151.2 L 110.9 150.6 L 112.3 149.9 L 113.8 149.1 L 115.1 148.3 L 116.4 147.2 L 117.8 145.6 L 119.1 143.4 L 120.4 140.6 L 121.6 137.1 L 122.7 133.0 L 123.6 128.2 L 124.3 122.9 L 124.9 116.9 L 125.09846153259278 112.6 L 87.24545450210572 112.6 L 84.7 121.0 L 71.5 123.2 L 83.59234447479248 83.4 L 69.4 83.4 L 69.4 79.4 L 109.9 79.4 L 119.9 69.4 L 130.95565214157105 78.61304349899292 L 128.8 75.7 L 125.6 70.4 L 122.9 64.9 L 120.7 59.0 L 119.2 52.9 L 118.50158729553223 47.4 L 82.3 47.4 L 82.3 43.4 L 106.21818180084229 43.4 L 114.4 34.4 L 124.4 43.4 L 124.4 47.4 L 120.8222222328186 47.4 L 123.1 51.5 L 126.1 56.6 L 129.2 61.4 L 132.6 65.8 L 136.2 69.9 L 140.0 73.7 L 144.1 77.3 L 148.5 80.5 L 153.2 83.4 L 158.3 86.1 L 163.0 88.7 L 151.8 97.6 L 146.3 93.9 Z " />
</g>
</svg>
