<svg xmlns="http://www.w3.org/2000/svg" xmlns:xlink="http://www.w3.org/1999/xlink" version="1.1" baseProfile="full" viewBox="0 0 200 200" width="200" height="200">
<g fill="black">
<path d="M 36.1 26.1 L 164.8 26.1 L 170.8 21.1 L 181.8 30.1 L 176.8 34.1 L 176.8 178.8 L 164.8 184.8 L 164.8 174.8 L 36.1 174.8 L 36.1 181.8 L 24.1 187.8 L 24.1 20.1 Z M 36.1 30.1 L 36.1 170.8 L 164.8 170.8 L 164.8 30.1 Z M 59.3 151.1 L 72.5 151.1 L 73.4 150.9 L 74.0 150.7 L 74.3 150.5 L 74.5 150.4 L 74.7 150.2 L 75.0 149.3 L 75.2 148.4 L 75.3 147.1 L 75.3 129.3125 L 68.3 131.5 L 61.8 133.4 L 55.3 135.2 L 52.783164978027344 135.93569021224977 L 51.4 139.5 L 48.8 137.1 L 44.2 125.8 L 46.1 125.3 L 52.8 124.2 L 59.4 122.9 L 65.9 121.7 L 72.5 120.5 L 75.3 119.98307695388795 L 75.3 104.0 L 83.95 105.4416666984558 L 84.7 104.4 L 86.6 102.0 L 88.4 99.7 L 91.8 95.1 L 93.4 92.9 L 93.74090909957886 92.4 L 53.0 92.4 L 53.0 88.4 L 96.3 88.4 L 96.78387098312378 87.99677419662476 L 97.8 86.4 L 98.23548383712769 86.78709678649902 L 102.3 83.4 L 113.3 92.4 L 108.3 95.4 L 102.51702127456664 97.809574508667 L 102.4 97.9 L 100.1 99.6 L 97.7 101.3 L 92.7 104.5 L 90.1 106.1 L 88.609375 106.87291669845581 L 90.3 108.0 L 87.3 109.8 L 87.3 117.66769227981567 L 92.0 116.8 L 98.4 115.7 L 104.9 114.7 L 111.4 113.9 L 111.9 115.6 L 106.0 118.4 L 99.9 120.9 L 93.7 123.2 L 87.4 125.4 L 87.3 125.4333333015442 L 87.3 147.1 L 87.1 149.7 L 86.7 152.2 L 85.9 154.6 L 84.7 156.9 L 83.0 158.9 L 81.0 160.5 L 78.7 161.7 L 76.3 162.6 L 73.8 163.0 L 71.3 163.1 L 71.3 157.1 L 59.3 154.1 Z M 152.8 129.5 L 154.8 129.5 L 152.8 146.5 L 155.8 148.5 L 157.8 151.5 L 155.8 154.5 L 152.8 156.5 L 130.4 156.5 L 128.0 156.2 L 125.7 155.5 L 123.5 154.4 L 121.5 152.9 L 119.8 151.0 L 118.6 148.9 L 117.7 146.5 L 117.1 144.1 L 116.9 141.5 L 116.9 43.1 L 128.9 45.1 L 131.9 47.1 L 128.9 48.9 L 128.9 143.7 L 129.0 144.4 L 129.2 144.8 L 129.3 145.1 L 129.5 145.4 L 129.9 145.7 L 130.6 146.1 L 131.6 146.4 L 132.9 146.5 L 147.8 146.5 Z M 100.73521738052368 40.805652141571045 L 109.9 48.6 L 110.1 51.7 L 106.03955268859863 49.90862617492676 L 104.0 50.6 L 100.5 51.3 L 96.8 52.0 L 93.0 52.6 L 89.1 53.1 L 85.0 53.6 L 80.7 54.0 L 76.2 54.3 L 71.6 54.5 L 69.66000003814698 54.5 L 70.7 55.5 L 66.77635326385499 56.92678060531616 L 65.5 60.3 L 63.8 64.0 L 62.0 67.7 L 59.9 71.3 L 57.5 75.0 L 55.0 78.7 L 52.2 82.3 L 45.8 89.5 L 44.3 88.5 L 46.3 84.2 L 48.1 79.9 L 49.7 75.7 L 51.2 71.8 L 52.5 67.9 L 53.7 64.2 L 54.6 60.6 L 55.4 57.2 L 56.0 53.8 L 56.205100440979 51.61226167678833 L 56.1 51.6 L 56.294285678863524 50.66095237731933 L 56.3 50.6 L 56.3066180229187 50.601346015930176 L 56.7 48.7 L 64.78747577667237 51.75053911209106 L 66.3 51.3 L 70.8 49.8 L 75.1 48.4 L 83.2 45.7 L 87.0 44.4 L 90.6 43.1 L 94.0 41.8 L 97.2 40.5 L 99.24855842590333 39.61229133605957 L 99.2 39.5 L 99.30385828018188 39.58832807540894 L 100.2 39.2 Z M 76.4 74.5 L 76.5 73.0 L 76.5 69.7 L 76.3 67.9 L 76.0 66.1 L 75.5 64.2 L 75.0 62.2 L 73.9 60.5 L 75.3 59.4 L 76.8 61.0 L 78.5 62.3 L 80.2 63.7 L 81.7 65.3 L 83.0 66.9 L 84.3 68.7 L 85.4 70.5 L 86.3 72.5 L 87.1 74.5 L 87.8 76.6 L 86.2 80.9 L 82.2 83.0 L 77.9 81.4 L 75.8 77.4 L 76.1 76.0 Z M 99.7 73.0 L 99.3 71.1 L 98.8 69.2 L 98.2 67.3 L 97.4 65.2 L 96.4 63.2 L 95.3 61.1 L 94.1 58.8 L 92.3 57.0 L 93.5 55.6 L 95.6 57.2 L 98.0 58.4 L 100.2 59.8 L 102.3 61.4 L 104.2 63.1 L 106.0 64.9 L 107.6 66.9 L 109.1 68.9 L 110.4 71.1 L 111.6 73.4 L 111.0 78.0 L 107.4 80.8 L 102.9 80.2 L 100.0 76.6 L 99.9 74.8 Z " />
</g>
</svg>
