<svg xmlns="http://www.w3.org/2000/svg" xmlns:xlink="http://www.w3.org/1999/xlink" version="1.1" baseProfile="full" viewBox="0 0 200 200" width="200" height="200">
<g fill="black">
<path d="M 36.1 26.1 L 164.8 26.1 L 170.8 21.1 L 181.8 30.1 L 176.8 34.1 L 176.8 178.8 L 164.8 184.8 L 164.8 174.8 L 36.1 174.8 L 36.1 181.8 L 24.1 187.8 L 24.1 20.1 Z M 36.1 30.1 L 36.1 170.8 L 164.8 170.8 L 164.8 30.1 Z M 137.0 144.9 L 131.2 139.5 L 125.8 133.8 L 120.8 128.0 L 116.1 121.9 L 111.8 115.5 L 108.0 108.9 L 105.0 102.81176471710205 L 105.0 160.5 L 93.0 166.5 L 93.0 111.23018865585327 L 87.8 118.0 L 82.1 124.5 L 76.1 130.7 L 69.8 136.4 L 63.1 141.9 L 56.2 146.9 L 48.8 151.4 L 41.1 155.3 L 40.2 153.8 L 46.6 148.3 L 52.9 142.6 L 58.8 136.9 L 64.5 131.0 L 69.9 124.9 L 75.0 118.5 L 79.8 111.9 L 84.3 105.1 L 88.4 98.0 L 89.6777777671814 95.5 L 41.3 95.5 L 41.3 91.5 L 93.0 91.5 L 93.0 34.4 L 105.0 36.4 L 108.0 38.4 L 105.0 40.2 L 105.0 91.5 L 134.6 91.5 L 144.6 81.5 L 156.6 91.5 L 156.6 95.5 L 105.0 95.5 L 105.0 95.7956521987915 L 108.2 99.9 L 112.9 105.6 L 117.6 111.2 L 122.5 116.5 L 127.6 121.7 L 133.0 126.6 L 138.6 131.2 L 144.4 135.7 L 150.5 139.9 L 156.8 143.9 L 160.6 146.3 L 149.6 154.9 L 143.1 150.0 Z M 145.9 49.7 L 147.5 52.9 L 143.5666666984558 52.96666669845581 L 140.9 56.7 L 138.2 60.2 L 132.4 67.4 L 129.3 71.0 L 126.0 74.6 L 122.6 78.1 L 118.9 81.6 L 115.1 85.1 L 113.7 84.0 L 116.1 79.5 L 118.5 75.1 L 120.9 70.8 L 123.3 66.7 L 125.6 62.7 L 127.7 58.7 L 129.8 54.8 L 131.8 51.0 L 133.7 47.3 L 135.04052047729493 44.61895914077759 L 135.0 44.6 L 136.0 42.8 Z M 68.2 72.7 L 67.0 69.4 L 65.6 66.1 L 64.0 62.7 L 62.4 59.4 L 60.5 56.0 L 58.5 52.6 L 56.5 49.1 L 54.1 45.7 L 55.4 44.4 L 58.8 47.0 L 62.1 49.6 L 65.2 52.4 L 68.0 55.3 L 70.7 58.4 L 73.2 61.5 L 75.5 64.8 L 77.7 68.2 L 79.7 71.6 L 81.4 75.2 L 81.2 79.8 L 77.9 82.9 L 73.3 82.7 L 70.2 79.3 L 69.3 76.0 Z " />
</g>
</svg>
