<svg xmlns="http://www.w3.org/2000/svg" xmlns:xlink="http://www.w3.org/1999/xlink" version="1.1" baseProfile="full" viewBox="0 0 200 200" width="200" height="200">
<g fill="black">
<path d="M 99.1 174.0 L 119.1 174.0 L 120.3 173.9 L 121.2 173.7 L 122.1 173.4 L 122.5 173.0 L 122.8 172.1 L 123.0 171.2 L 123.1 170.0 L 123.1 132.0 L 78.4 132.0 L 78.4 128.0 L 123.1 128.0 L 123.1 99.0 L 84.2 99.0 L 84.2 95.0 L 151.3 95.0 L 161.3 85.0 L 173.3 95.0 L 173.3 99.0 L 135.1 99.0 L 135.1 128.0 L 163.0 128.0 L 173.0 118.0 L 185.0 128.0 L 185.0 132.0 L 135.1 132.0 L 135.1 170.0 L 134.9 172.5 L 134.5 175.0 L 133.7 177.4 L 132.4 179.7 L 130.8 181.7 L 128.8 183.3 L 126.5 184.6 L 124.1 185.4 L 121.6 185.8 L 119.1 186.0 L 119.1 180.0 L 99.1 177.0 Z M 13.6 151.0 L 18.5 149.5 L 23.7 147.8 L 29.1 145.9 L 34.9 143.8 L 38.5 142.44262294769288 L 38.5 72.0 L 14.7 72.0 L 14.7 68.0 L 38.5 68.0 L 38.5 17.0 L 50.5 19.0 L 53.5 21.0 L 50.5 22.8 L 50.5 68.0 L 53.9 68.0 L 63.9 58.0 L 75.9 68.0 L 75.9 72.0 L 50.5 72.0 L 50.5 137.89701490402223 L 54.1 136.5 L 61.2 133.7 L 68.6 130.9 L 76.3 128.1 L 77.2 129.8 L 70.3 134.3 L 63.5 138.5 L 57.0 142.4 L 50.6 145.9 L 44.5 149.2 L 38.7 152.3 L 33.1 155.1 L 27.7 157.7 L 22.6 160.1 L 21.533257389068602 160.55717544555665 L 20.6 164.4 L 17.7 162.2 L 11.7 151.7 Z M 77.7 73.0 L 123.7 73.0 L 123.7 44.0 L 81.0 44.0 L 81.0 40.0 L 123.7 40.0 L 123.7 14.0 L 135.7 16.0 L 138.7 18.0 L 135.7 19.8 L 135.7 40.0 L 156.5 40.0 L 166.5 30.0 L 178.5 40.0 L 178.5 44.0 L 135.7 44.0 L 135.7 73.0 L 165.6 73.0 L 175.6 63.0 L 187.6 73.0 L 187.6 77.0 L 77.7 77.0 Z " />
</g>
</svg>
