<svg xmlns="http://www.w3.org/2000/svg" xmlns:xlink="http://www.w3.org/1999/xlink" version="1.1" baseProfile="full" viewBox="0 0 200 200" width="200" height="200">
<g fill="black">
<path d="M 163.2 167.3 L 160.6 161.5 L 159.8371064186096 159.9469666481018 L 153.6 161.9 L 144.0 164.7 L 134.7 167.1 L 125.6 169.3 L 116.8 171.4 L 108.3 173.2 L 100.1 174.8 L 92.2 176.3 L 84.5 177.6 L 81.29045839309693 178.12759590148926 L 79.5 181.6 L 77.2 178.8 L 73.9 167.1 L 75.9 166.9 L 83.1 166.3 L 90.7 165.7 L 93.605220413208 165.40580043792724 L 94.6 162.7 L 97.3 155.9 L 99.9 149.2 L 102.6 142.5 L 105.3 135.9 L 107.9 129.3 L 110.4 122.6 L 112.8 116.0 L 115.2 109.3 L 117.5 102.7 L 117.5452220916748 102.71776580810547 L 117.82608699798584 102.0 L 71.5 102.0 L 71.5 98.0 L 118.5 98.0 L 118.5 56.0 L 79.6 56.0 L 79.6 52.0 L 118.5 52.0 L 118.5 14.0 L 130.5 16.0 L 133.5 18.0 L 130.5 19.8 L 130.5 52.0 L 152.5 52.0 L 162.5 42.0 L 174.5 52.0 L 174.5 56.0 L 130.5 56.0 L 130.5 98.0 L 162.7 98.0 L 172.7 88.0 L 184.7 98.0 L 184.7 102.0 L 119.37931032180786 102.0 L 128.7 107.1 L 130.8 110.0 L 127.12333335876465 110.63390808105468 L 125.8 113.6 L 119.6 126.6 L 116.3 133.1 L 113.0 139.5 L 109.5 145.8 L 105.8 152.1 L 102.0 158.3 L 98.0 164.4 L 97.56667423248291 165.00464057922363 L 98.6 164.9 L 106.8 164.0 L 115.4 163.0 L 124.2 161.9 L 133.4 160.7 L 143.0 159.4 L 152.8 158.2 L 158.6709500312805 157.5730052947998 L 157.8 155.8 L 154.8 150.3 L 151.5 144.8 L 148.1 139.4 L 144.5 134.0 L 140.7 128.7 L 136.8 123.3 L 138.1 122.0 L 143.5 126.1 L 148.5 130.5 L 153.3 135.3 L 157.7 140.3 L 161.9 145.6 L 165.8 151.1 L 169.5 156.7 L 172.9 162.6 L 176.1 168.7 L 179.0 175.0 L 178.8 179.5 L 175.6 182.7 L 171.0 182.6 L 167.8 179.3 L 165.6 173.3 Z M 14.3 151.0 L 19.4 149.4 L 24.8 147.7 L 30.6 145.8 L 36.6 143.7 L 40.5 142.359375 L 40.5 72.0 L 15.3 72.0 L 15.3 68.0 L 40.5 68.0 L 40.5 17.0 L 52.5 19.0 L 55.5 21.0 L 52.5 22.8 L 52.5 68.0 L 57.4 68.0 L 67.4 58.0 L 79.4 68.0 L 79.4 72.0 L 52.5 72.0 L 52.5 137.96000003814697 L 56.7 136.4 L 64.0 133.7 L 71.8 130.9 L 79.9 128.1 L 80.7 129.8 L 73.4 134.4 L 66.3 138.6 L 59.4 142.4 L 52.8 146.0 L 46.4 149.3 L 40.2 152.3 L 34.3 155.1 L 28.7 157.7 L 23.3 160.1 L 22.098109626770018 160.6184624671936 L 21.1 164.5 L 18.2 162.3 L 12.4 151.6 Z " />
</g>
</svg>
