<svg xmlns="http://www.w3.org/2000/svg" xmlns:xlink="http://www.w3.org/1999/xlink" version="1.1" baseProfile="full" viewBox="0 0 200 200" width="200" height="200">
<g fill="black">
<path d="M 166.7 166.4 L 161.4 160.9 L 156.4 155.0 L 151.6 148.8 L 147.2 142.2 L 143.0 135.3 L 139.1 128.0 L 136.0 120.97941179275513 L 136.0 182.5 L 124.0 188.5 L 124.0 128.9800000190735 L 123.1 130.7 L 118.3 138.8 L 113.1 146.3 L 107.5 153.4 L 101.5 159.9 L 95.2 165.9 L 88.5 171.3 L 81.4 176.0 L 73.9 180.0 L 72.9 178.5 L 79.1 173.0 L 85.0 167.2 L 90.6 161.2 L 95.8 154.9 L 100.8 148.2 L 105.3 141.1 L 109.6 133.7 L 113.6 125.8 L 117.2 117.5 L 118.87272729873658 112.9 L 76.7 112.9 L 76.7 108.9 L 124.0 108.9 L 124.0 79.9 L 136.0 81.9 L 139.0 83.9 L 136.0 85.7 L 136.0 108.9 L 161.3 108.9 L 171.3 98.9 L 183.3 108.9 L 183.3 112.9 L 136.0 112.9 L 136.0 113.51224489212036 L 139.4 118.3 L 144.2 125.0 L 149.0 131.3 L 153.9 137.3 L 158.9 142.9 L 164.0 148.1 L 169.2 153.0 L 174.6 157.6 L 180.1 161.8 L 185.8 165.6 L 189.1 168.0 L 178.1 176.4 L 172.3 171.6 Z M 14.4 151.0 L 19.6 149.4 L 25.1 147.7 L 30.9 145.8 L 37.1 143.7 L 41.0 142.359375 L 41.0 72.0 L 15.5 72.0 L 15.5 68.0 L 41.0 68.0 L 41.0 17.0 L 53.0 19.0 L 56.0 21.0 L 53.0 22.8 L 53.0 68.0 L 58.3 68.0 L 68.3 58.0 L 80.3 68.0 L 80.3 72.0 L 53.0 72.0 L 53.0 137.99714288711547 L 57.3 136.4 L 64.8 133.7 L 72.6 130.9 L 80.8 128.1 L 81.5 129.8 L 74.2 134.4 L 67.0 138.6 L 60.0 142.4 L 53.3 146.0 L 46.8 149.3 L 40.6 152.3 L 34.6 155.2 L 29.0 157.8 L 23.5 160.1 L 22.185633277893068 160.66698169708252 L 21.2 164.5 L 18.4 162.3 L 12.5 151.6 Z M 164.0 72.3 L 161.8 66.8 L 161.1591504096985 65.38479042053223 L 157.4 66.8 L 148.9 69.7 L 140.5 72.2 L 132.2 74.5 L 124.0 76.6 L 115.9 78.4 L 107.9 80.1 L 100.1 81.6 L 92.4 82.9 L 88.82938051223755 83.45646018981934 L 87.0 86.9 L 84.7 84.1 L 81.6 72.4 L 83.5 72.1 L 91.0 71.6 L 98.6 71.0 L 104.9264705657959 70.35113124847412 L 105.7 66.9 L 107.0 61.2 L 108.4 55.6 L 109.8 49.9 L 111.2 44.3 L 112.6 38.6 L 113.9 33.0 L 116.3 21.6 L 117.22254009246826 16.819565200805663 L 117.1 16.8 L 117.8 14.1 L 129.0 18.7 L 131.5 21.3 L 127.87726955413818 22.46444902420044 L 127.3 24.4 L 125.5 30.1 L 121.5 41.3 L 119.3 46.9 L 117.0 52.3 L 114.6 57.8 L 112.0 63.1 L 109.2 68.3 L 108.16749334335327 69.99863996505738 L 114.3 69.3 L 122.4 68.2 L 130.7 67.1 L 139.1 65.8 L 147.7 64.5 L 156.5 63.1 L 159.91814947128296 62.64424676895142 L 159.4 61.5 L 157.0 56.4 L 154.3 51.5 L 151.6 46.7 L 148.8 42.1 L 143.0 33.1 L 144.3 31.8 L 148.7 35.1 L 153.0 38.7 L 156.9 42.8 L 160.6 47.2 L 164.2 51.9 L 167.6 57.0 L 170.8 62.3 L 173.8 67.8 L 176.7 73.7 L 179.4 79.8 L 179.2 84.3 L 175.8 87.5 L 171.3 87.2 L 168.1 83.9 L 166.2 78.0 Z " />
</g>
</svg>
