<svg xmlns="http://www.w3.org/2000/svg" xmlns:xlink="http://www.w3.org/1999/xlink" version="1.1" baseProfile="full" viewBox="0 0 200 200" width="200" height="200">
<g fill="black">
<path d="M 36.1 26.1 L 164.8 26.1 L 170.8 21.1 L 181.8 30.1 L 176.8 34.1 L 176.8 178.8 L 164.8 184.8 L 164.8 174.8 L 36.1 174.8 L 36.1 181.8 L 24.1 187.8 L 24.1 20.1 Z M 36.1 30.1 L 36.1 170.8 L 164.8 170.8 L 164.8 30.1 Z M 133.4 154.9 L 126.4 149.3 L 120.3 143.2 L 114.9 136.4 L 110.3 129.2 L 106.5 121.4 L 103.6 113.1 L 101.5 104.3 L 101.34368152618408 102.70207834243774 L 99.3 104.9 L 93.8 110.2 L 88.1 115.1 L 82.3 119.6 L 78.55083055496216 122.05847177505493 L 80.6 122.4 L 83.6 124.4 L 80.6 126.2 L 80.6 147.16349210739136 L 81.0 147.1 L 94.0 145.1 L 100.7 144.1 L 107.6 143.2 L 114.7 142.6 L 115.1 144.3 L 108.5 146.9 L 102.0 149.3 L 95.5 151.5 L 89.2 153.5 L 82.9 155.4 L 76.8 157.2 L 70.8 158.9 L 64.9 160.6 L 59.1 162.2 L 57.46385545730591 162.6674698829651 L 56.0 166.3 L 53.5 163.8 L 48.9 152.5 L 50.9 152.1 L 56.7 151.1 L 62.6 150.1 L 68.6 149.2 L 68.6 127.95 L 63.7 130.4 L 57.2 133.0 L 50.5 135.0 L 43.7 136.5 L 43.1 134.8 L 49.1 131.5 L 54.9 128.1 L 60.6 124.6 L 66.0 120.8 L 71.3 116.7 L 76.5 112.3 L 81.4 107.7 L 86.2 102.6 L 90.71320753097534 97.4 L 46.7 97.4 L 46.7 93.4 L 94.0 93.4 L 94.0 76.3 L 106.0 78.3 L 109.0 80.3 L 106.0 82.1 L 106.0 93.4 L 131.3 93.4 L 141.3 83.4 L 153.3 93.4 L 153.3 97.4 L 106.21052627563476 97.4 L 104.6 99.2 L 104.1982946395874 99.63202276229859 L 105.6 103.2 L 109.1 111.0 L 113.0 118.1 L 116.76197996139527 123.8742018699646 L 117.7 123.2 L 120.6 120.7 L 126.2 116.1 L 128.8 114.0 L 133.6 109.8 L 135.8 107.8 L 137.8 105.9 L 138.9947368621826 104.70526313781738 L 138.9 104.6 L 139.5 104.2 L 139.7 104.0 L 139.73364057540894 104.04423961639404 L 139.8 104.0 L 147.0 113.6 L 147.2 117.2 L 143.25600004196167 115.5931851387024 L 141.7 116.4 L 138.9 117.8 L 135.9 119.2 L 132.8 120.6 L 129.6 121.9 L 126.2 123.2 L 122.7 124.5 L 119.0 125.7 L 118.33841056823731 125.95033111572266 L 122.2 130.6 L 127.5 136.0 L 133.4 140.8 L 139.9 145.1 L 146.9 148.8 L 154.5 152.1 L 160.8 154.7 L 149.4 164.2 L 141.0 159.9 Z M 72.3 42.9 L 127.6 42.9 L 133.6 37.9 L 144.6 46.9 L 139.6 50.9 L 139.6 77.0 L 127.6 83.0 L 127.6 75.0 L 72.3 75.0 L 72.3 78.0 L 60.3 84.0 L 60.3 36.9 Z M 72.3 46.9 L 72.3 71.0 L 127.6 71.0 L 127.6 46.9 Z " />
</g>
</svg>
