<svg xmlns="http://www.w3.org/2000/svg" xmlns:xlink="http://www.w3.org/1999/xlink" version="1.1" baseProfile="full" viewBox="0 0 200 200" width="200" height="200">
<g fill="black">
<path d="M 14.0 172.3 L 94.0 172.3 L 94.0 143.3 L 27.0 143.3 L 27.0 139.3 L 94.0 139.3 L 94.0 116.34923076629639 L 89.7 118.4 L 88.8 116.9 L 94.0 112.2 L 98.6 107.6 L 102.5 102.9 L 105.9 98.1 L 108.7 93.2 L 110.8 88.1 L 112.4 82.8 L 113.5 77.3 L 114.0 71.6 L 114.0 62.6 L 88.6 62.6 L 88.6 58.6 L 114.0 58.6 L 114.0 32.8375 L 109.1 33.8 L 103.2 34.8 L 97.1 35.5 L 90.7 36.1 L 90.3 34.3 L 96.2 31.9 L 101.9 29.6 L 107.3 27.5 L 112.6 25.5 L 117.6 23.5 L 122.4 21.5 L 126.9 19.6 L 131.1 17.7 L 135.1 15.8 L 137.9420663833618 14.378966808319092 L 137.9 14.3 L 137.97148017883302 14.364259910583495 L 138.9 13.9 L 139.7880693435669 15.997355270385743 L 147.8 23.2 L 148.0 26.4 L 144.13648290634154 24.77007875442505 L 143.6 25.0 L 139.3 26.4 L 134.9 27.8 L 130.2 29.1 L 125.3 30.4 L 121.81935482025146 31.203225803375243 L 126.0 31.9 L 129.0 33.9 L 126.0 35.7 L 126.0 58.6 L 150.9 58.6 L 150.9 13.7 L 162.9 15.7 L 165.9 17.7 L 162.9 19.5 L 162.9 58.6 L 167.5 58.6 L 177.5 48.6 L 189.5 58.6 L 189.5 62.6 L 162.9 62.6 L 162.9 112.8 L 150.9 118.8 L 150.9 62.6 L 126.0 62.6 L 126.0 65.6 L 125.4 72.7 L 124.0 79.4 L 122.0 85.8 L 119.3 91.9 L 116.0 97.5 L 112.0 102.7 L 107.3 107.4 L 102.1 111.6 L 96.2 115.3 L 94.07649402618408 116.31274900436401 L 106.0 118.3 L 109.0 120.3 L 106.0 122.1 L 106.0 139.3 L 151.0 139.3 L 161.0 129.3 L 173.0 139.3 L 173.0 143.3 L 106.0 143.3 L 106.0 172.3 L 164.0 172.3 L 174.0 162.3 L 186.0 172.3 L 186.0 176.3 L 14.0 176.3 Z M 90.1 23.6 L 90.1 27.6 L 61.5 27.6 L 58.5 34.5 L 55.2 41.2 L 51.5 47.8 L 47.4 54.2 L 45.61428575515747 56.7 L 68.4 56.7 L 74.4 51.7 L 85.4 60.7 L 80.4 64.7 L 80.4 112.6 L 68.4 118.6 L 68.4 106.6 L 46.1 106.6 L 46.1 118.6 L 34.1 124.6 L 34.1 71.125 L 32.8 72.6 L 27.1 78.4 L 20.9 83.8 L 14.3 89.0 L 13.0 87.7 L 18.2 81.2 L 23.1 74.8 L 27.7 68.5 L 31.9 62.1 L 35.9 55.8 L 39.4 49.4 L 42.7 43.1 L 45.5 36.6 L 48.0 30.1 L 48.7777777671814 27.6 L 18.6 27.6 L 18.6 23.6 L 68.1 23.6 L 78.1 13.6 Z M 46.1 60.7 L 46.1 102.6 L 68.4 102.6 L 68.4 60.7 Z " />
</g>
</svg>
