<svg xmlns="http://www.w3.org/2000/svg" xmlns:xlink="http://www.w3.org/1999/xlink" version="1.1" baseProfile="full" viewBox="0 0 200 200" width="200" height="200">
<g fill="black">
<path d="M 90.4 26.0 L 166.9 26.0 L 176.9 16.0 L 188.9 26.0 L 188.9 30.0 L 90.4 30.0 L 90.4 91.0 L 90.0 105.0 L 89.2 118.1 L 88.2 130.4 L 86.8 141.7 L 85.0 152.0 L 83.0 161.5 L 80.5 170.0 L 77.7 177.5 L 74.5 184.0 L 70.8 189.4 L 69.3 188.5 L 71.3 182.6 L 73.1 175.9 L 74.7 168.4 L 76.1 160.1 L 77.3 150.9 L 78.3 140.7 L 79.0 129.7 L 79.4 117.7 L 79.5 104.8 L 79.4 91.0 L 79.4 20.5 Z M 108.2 175.6 L 128.2 175.6 L 129.5 175.5 L 130.4 175.3 L 131.0 175.2 L 131.3 175.0 L 131.5 174.8 L 131.6 174.6 L 131.8 174.3 L 132.0 173.7 L 132.2 172.8 L 132.2 148.3 L 90.1 148.3 L 90.1 144.3 L 132.2 144.3 L 132.2 129.0 L 141.35272731781006 130.5254545211792 L 143.3 128.3 L 145.5 126.0 L 147.6 123.8 L 153.32727270126344 117.5 L 107.2 117.5 L 107.2 113.5 L 156.94761905670165 113.5 L 157.4 113.0 L 159.2 111.0 L 159.575 111.4375 L 163.1 108.5 L 174.1 117.5 L 169.1 120.5 L 160.74799995422364 123.98000001907349 L 159.5 124.7 L 156.9 126.1 L 154.2 127.6 L 151.5 129.0 L 148.6 130.4 L 145.7 131.7 L 145.41875 131.8125 L 147.2 133.0 L 144.2 134.8 L 144.2 144.3 L 164.9 144.3 L 174.9 134.3 L 186.9 144.3 L 186.9 148.3 L 144.2 148.3 L 144.2 171.6 L 144.1 174.1 L 143.6 176.6 L 142.8 179.0 L 141.6 181.3 L 140.0 183.3 L 138.0 185.0 L 135.7 186.2 L 133.3 187.0 L 130.8 187.4 L 128.2 187.6 L 128.2 181.6 L 108.2 178.6 Z M 13.7 151.0 L 18.3 149.5 L 23.2 147.8 L 28.3 145.9 L 33.8 143.8 L 37.0 142.5087718963623 L 37.0 72.0 L 15.0 72.0 L 15.0 68.0 L 37.0 68.0 L 37.0 17.0 L 49.0 19.0 L 52.0 21.0 L 49.0 22.8 L 49.0 68.0 L 54.418181800842284 68.0 L 62.6 59.0 L 72.6 68.0 L 72.6 72.0 L 49.0 72.0 L 49.0 137.69682540893555 L 51.9 136.5 L 58.6 133.8 L 65.6 131.0 L 72.9 128.2 L 73.8 129.7 L 67.3 134.3 L 61.0 138.5 L 54.9 142.3 L 48.9 145.9 L 43.2 149.2 L 37.7 152.2 L 32.5 155.1 L 27.4 157.6 L 22.6 160.0 L 21.8908899307251 160.3466760635376 L 21.0 164.3 L 18.1 162.2 L 11.8 151.7 Z M 113.8 48.7 L 162.1 48.7 L 168.1 43.7 L 179.1 52.7 L 174.1 56.7 L 174.1 98.7 L 162.1 104.7 L 162.1 98.7 L 113.8 98.7 L 102.8 104.2 L 102.8 43.2 Z M 113.8 75.7 L 113.8 94.7 L 162.1 94.7 L 162.1 75.7 Z M 113.8 52.7 L 113.8 71.7 L 162.1 71.7 L 162.1 52.7 Z " />
</g>
</svg>
