<svg xmlns="http://www.w3.org/2000/svg" xmlns:xlink="http://www.w3.org/1999/xlink" version="1.1" baseProfile="full" viewBox="0 0 200 200" width="200" height="200">
<g fill="black">
<path d="M 99.8 177.0 L 119.8 177.0 L 121.0 176.9 L 121.9 176.7 L 122.5 176.5 L 122.9 176.4 L 123.0 176.2 L 123.2 176.0 L 123.4 175.7 L 123.6 175.1 L 123.7 174.2 L 123.8 173.0 L 123.8 95.0 L 69.9 95.0 L 69.9 91.0 L 137.98909091949463 91.0 L 142.26909093856813 69.0 L 102.2192307472229 69.0 L 100.7 76.9 L 87.8 80.6 L 100.8 12.8 L 112.2 17.1 L 114.8 19.6 L 111.52935285568238 20.58736515045166 L 108.56538457870484 36.0 L 148.4 36.0 L 154.4 31.0 L 165.4 40.0 L 160.4 43.0 L 158.66000003814696 43.725 L 150.2555555343628 91.0 L 168.8181818008423 91.0 L 177.0 82.0 L 187.0 91.0 L 187.0 95.0 L 136.4692307472229 95.0 L 138.9 102.9 L 142.0 111.5 L 145.5 119.7 L 149.4 127.5 L 149.77994718551636 128.11635885238647 L 149.8 128.1 L 153.4 125.1 L 157.0 122.2 L 160.5 119.4 L 163.9 116.7 L 167.2 114.0 L 170.4 111.4 L 173.5 108.8 L 176.4 106.3 L 178.45738325119018 104.46305065155029 L 178.4 104.4 L 179.3 103.7 L 186.5 113.3 L 186.7 116.9 L 182.99887638092042 115.46067419052125 L 179.6 117.5 L 176.0 119.5 L 168.4 123.5 L 164.4 125.5 L 160.2 127.4 L 155.9 129.3 L 151.5277777671814 130.95172843933105 L 153.9 134.8 L 159.0 141.7 L 164.6 148.3 L 170.8 154.4 L 177.5 160.2 L 184.9 165.6 L 188.0 167.9 L 177.1 176.3 L 169.4 169.7 L 162.4 162.8 L 156.2 155.4 L 150.7 147.7 L 145.9 139.6 L 141.9 131.1 L 138.7 122.3 L 136.3 113.2 L 135.8 110.0666666984558 L 135.8 173.0 L 135.6 175.5 L 135.2 178.0 L 134.4 180.4 L 133.2 182.7 L 131.5 184.7 L 129.5 186.3 L 127.2 187.6 L 124.8 188.4 L 122.3 188.8 L 119.8 189.0 L 119.8 183.0 L 99.8 180.0 Z M 74.2 163.3 L 79.2 160.5 L 84.2 157.8 L 89.1 155.3 L 93.8 152.8 L 98.6 150.4 L 103.2 148.2 L 107.8 146.1 L 112.3 144.2 L 116.8 142.5 L 121.4 141.2 L 122.2 142.7 L 118.7 145.8 L 115.0 148.9 L 111.1 151.8 L 107.0 154.7 L 102.9 157.7 L 98.7 160.7 L 94.3 163.8 L 85.3 170.2 L 84.00530443191528 171.109041595459 L 83.9 174.9 L 80.6 173.5 L 72.5 164.4 Z M 14.0 151.0 L 19.0 149.5 L 24.4 147.7 L 30.0 145.8 L 36.0 143.8 L 39.7 142.4492063522339 L 39.7 72.0 L 15.1 72.0 L 15.1 68.0 L 39.7 68.0 L 39.7 17.0 L 51.7 19.0 L 54.7 21.0 L 51.7 22.8 L 51.7 68.0 L 56.1 68.0 L 66.1 58.0 L 78.1 68.0 L 78.1 72.0 L 51.7 72.0 L 51.7 137.9072463989258 L 55.7 136.4 L 63.0 133.7 L 70.6 130.9 L 78.6 128.1 L 79.3 129.8 L 72.2 134.4 L 65.3 138.6 L 58.5 142.4 L 52.0 146.0 L 45.7 149.3 L 39.6 152.3 L 33.8 155.1 L 28.3 157.7 L 23.0 160.1 L 21.87886600494385 160.59329900741577 L 20.9 164.4 L 18.0 162.3 L 12.1 151.6 Z M 97.6 127.9 L 96.2 125.5 L 94.7 122.9 L 93.0 120.3 L 91.2 117.7 L 87.0 112.1 L 84.7 109.1 L 82.1 106.3 L 83.2 104.9 L 86.5 107.0 L 89.9 108.9 L 93.0 110.9 L 95.9 113.0 L 98.6 115.1 L 101.2 117.2 L 103.7 119.4 L 105.9 121.7 L 108.1 123.9 L 110.0 126.2 L 110.7 130.8 L 108.1 134.5 L 103.6 135.2 L 99.8 132.5 L 98.8 130.3 Z M 107.79615383148193 40.0 L 102.9884614944458 65.0 L 143.04727268218994 65.0 L 147.91090908050538 40.0 Z " />
</g>
</svg>
