<svg xmlns="http://www.w3.org/2000/svg" xmlns:xlink="http://www.w3.org/1999/xlink" version="1.1" baseProfile="full" viewBox="0 0 200 200" width="200" height="200">
<g fill="black">
<path d="M 103.1 122.0 L 159.8 122.0 L 165.8 117.0 L 176.8 126.0 L 171.8 130.0 L 171.8 179.0 L 159.8 185.0 L 159.8 175.0 L 103.1 175.0 L 103.1 182.0 L 91.1 188.0 L 91.1 116.0 Z M 103.1 126.0 L 103.1 171.0 L 159.8 171.0 L 159.8 126.0 Z M 14.3 151.0 L 19.4 149.4 L 24.8 147.7 L 30.6 145.8 L 36.6 143.7 L 40.5 142.359375 L 40.5 72.0 L 15.3 72.0 L 15.3 68.0 L 40.5 68.0 L 40.5 17.0 L 52.5 19.0 L 55.5 21.0 L 52.5 22.8 L 52.5 68.0 L 57.4 68.0 L 67.4 58.0 L 79.4 68.0 L 79.4 72.0 L 52.5 72.0 L 52.5 137.96000003814697 L 56.7 136.4 L 64.0 133.7 L 71.8 130.9 L 79.9 128.1 L 80.7 129.8 L 73.4 134.4 L 66.3 138.6 L 59.4 142.4 L 52.8 146.0 L 46.4 149.3 L 40.2 152.3 L 34.3 155.1 L 28.7 157.7 L 23.3 160.1 L 22.098109626770018 160.6184624671936 L 21.1 164.5 L 18.2 162.3 L 12.4 151.6 Z M 138.1 16.0 L 141.1 18.0 L 138.1 19.8 L 138.1 50.0 L 157.1 50.0 L 167.1 40.0 L 179.1 50.0 L 179.1 54.0 L 138.1 54.0 L 138.1 88.0 L 166.7 88.0 L 176.7 78.0 L 188.7 88.0 L 188.7 92.0 L 138.1 92.0 L 138.1 112.0 L 126.1 118.0 L 126.1 92.0 L 73.0 92.0 L 73.0 88.0 L 126.1 88.0 L 126.1 54.0 L 100.48666667938232 54.0 L 98.9 57.4 L 95.7 63.2 L 92.3 68.8 L 88.5 74.3 L 84.4 79.5 L 79.8 84.5 L 78.3 83.4 L 81.2 77.5 L 83.9 71.6 L 86.5 65.7 L 88.9 59.9 L 91.1 54.0 L 93.0 48.1 L 94.7 42.1 L 96.1 36.1 L 97.3 30.0 L 98.15161294937134 24.80516128540039 L 98.1 24.8 L 98.6 21.9 L 110.1 26.0 L 112.7 28.5 L 109.10223035812378 29.87369384765625 L 108.4 32.6 L 106.5 39.0 L 104.2 45.2 L 102.26451616287231 50.0 L 126.1 50.0 L 126.1 14.0 Z " />
</g>
</svg>
