<svg xmlns="http://www.w3.org/2000/svg" xmlns:xlink="http://www.w3.org/1999/xlink" version="1.1" baseProfile="full" viewBox="0 0 200 200" width="200" height="200">
<g fill="black">
<path d="M 148.5 118.6 L 148.5 96.2 L 134.8 96.2 L 134.8 115.8 L 134.60281686782838 118.6 Z M 102.5 118.6 L 102.5 96.2 L 88.8 96.2 L 88.8 115.8 L 88.6 118.6 Z M 14.8 151.1 L 18.7 149.6 L 22.9 147.9 L 27.4 146.0 L 32.1 143.9 L 34.5 142.7960000038147 L 34.5 72.0 L 16.3 72.0 L 16.3 68.0 L 34.5 68.0 L 34.5 17.0 L 46.5 19.0 L 49.5 21.0 L 46.5 22.8 L 46.5 68.0 L 51.7777777671814 68.0 L 58.0 61.0 L 66.0 68.0 L 66.0 72.0 L 46.5 72.0 L 46.5 137.21454544067382 L 47.8 136.6 L 53.6 133.8 L 59.7 131.0 L 66.2 128.2 L 67.1 129.7 L 61.7 134.3 L 56.4 138.4 L 51.1 142.2 L 46.1 145.8 L 41.2 149.1 L 36.5 152.1 L 32.0 154.9 L 27.7 157.5 L 23.6 159.9 L 23.35363531112671 160.03265790939332 L 22.7 163.9 L 19.7 162.0 L 12.9 151.9 Z M 134.8 69.8 L 134.8 92.2 L 148.5 92.2 L 148.5 69.8 Z M 88.8 69.8 L 88.8 92.2 L 102.5 92.2 L 102.5 69.8 Z M 159.9 155.2 L 159.1 157.6 L 157.8 159.9 L 156.2 161.9 L 154.2 163.5 L 151.9 164.8 L 149.5 165.6 L 147.0 166.0 L 144.5 166.2 L 144.5 160.2 L 132.5 157.2 L 132.5 154.2 L 144.5 154.2 L 145.7 154.1 L 146.6 153.9 L 147.5 153.6 L 147.9 153.2 L 148.2 152.3 L 148.4 151.4 L 148.5 150.2 L 148.5 122.6 L 134.32112674713136 122.6 L 134.3 122.9 L 133.5 129.7 L 132.5 135.9 L 131.0 141.7 L 129.2 146.9 L 127.1 151.6 L 124.6 155.8 L 121.7 159.4 L 118.4 162.3 L 114.8 164.4 L 113.8 163.1 L 115.9 159.9 L 117.7 156.6 L 119.3 152.9 L 120.7 149.0 L 121.8 144.6 L 122.7 139.8 L 123.4 134.5 L 123.8 128.7 L 123.9 122.5 L 123.8 115.8 L 123.8 60.3 L 134.8 65.8 L 148.5 65.8 L 154.5 60.8 L 165.5 69.8 L 160.5 73.8 L 160.5 150.2 L 160.3 152.7 Z M 173.1 179.2 L 171.7 181.2 L 170.0 183.1 L 168.1 184.7 L 166.0 185.9 L 163.7 186.9 L 161.3 187.6 L 158.8 188.0 L 156.3 188.1 L 156.3 182.1 L 136.3 179.1 L 136.3 176.1 L 157.6 176.1 L 158.7 175.9 L 159.7 175.6 L 160.4 175.3 L 161.1 174.9 L 161.7 174.4 L 162.3 173.8 L 162.8 173.0 L 163.4 172.0 L 163.9 170.7 L 165.1 166.1 L 166.3 159.4 L 167.4 150.8 L 168.2 140.3 L 169.0 128.0 L 169.5 113.9 L 169.8 98.0 L 170.0 80.3 L 170.0 60.9 L 169.89353075027466 49.56102886199951 L 169.8 49.6 L 169.8 41.6 L 89.53333330154419 41.6 L 87.6 46.2 L 84.4 52.7 L 81.0 58.9 L 79.51948051452636 61.15974025726318 L 88.8 65.8 L 102.5 65.8 L 108.0 60.8 L 118.5 69.8 L 113.5 73.3 L 113.5 150.2 L 113.4 152.6 L 113.0 154.9 L 112.3 157.2 L 111.3 159.3 L 109.9 161.3 L 108.2 162.9 L 106.1 164.2 L 103.9 165.0 L 101.6 165.5 L 99.2 165.7 L 99.2 160.2 L 83.8 157.4 L 83.8 154.7 L 99.2 154.7 L 100.2 154.6 L 100.9 154.5 L 101.5 154.2 L 101.7 154.0 L 101.8 153.8 L 102.1 153.3 L 102.3 152.6 L 102.4 151.5 L 102.5 150.2 L 102.5 122.6 L 88.31428575515747 122.6 L 88.3 122.8 L 87.5 129.4 L 86.2 135.6 L 84.6 141.3 L 82.7 146.5 L 80.3 151.3 L 77.5 155.6 L 74.3 159.2 L 70.8 162.2 L 66.8 164.5 L 65.7 163.0 L 68.0 159.6 L 70.1 156.0 L 71.9 152.2 L 73.4 148.2 L 74.6 143.8 L 75.6 139.0 L 76.4 133.8 L 76.8 128.2 L 76.9 122.2 L 76.8 115.8 L 76.8 65.25 L 73.2 70.2 L 68.7 75.2 L 63.9 79.7 L 62.5 78.6 L 65.7 73.0 L 68.7 67.2 L 71.5 61.4 L 74.2 55.4 L 76.7 49.2 L 79.0 42.8 L 81.0 36.1 L 82.8 29.2 L 84.4 22.0 L 85.61057739257812 15.60123405456543 L 85.6 15.6 L 85.72631578445434 14.989473724365235 L 85.8 14.6 L 85.8066180229187 14.601346015930176 L 86.2 12.7 L 97.6 17.0 L 100.1 19.6 L 96.5718581199646 20.81881265640259 L 95.5 24.8 L 93.1 32.2 L 91.12253522872925 37.6 L 169.8 37.6 L 175.8 32.6 L 186.8 41.6 L 181.84761905670166 44.57142858505249 L 182.0 60.8 L 182.0 80.4 L 181.8 98.2 L 181.5 114.3 L 180.9 128.6 L 180.2 141.1 L 179.3 152.0 L 178.2 161.1 L 176.8 168.6 L 175.2 174.6 L 174.3 177.0 Z " />
</g>
</svg>
