<svg xmlns="http://www.w3.org/2000/svg" xmlns:xlink="http://www.w3.org/1999/xlink" version="1.1" baseProfile="full" viewBox="0 0 200 200" width="200" height="200">
<g fill="black">
<path d="M 169.0 175.7 L 164.1 171.3 L 159.5 166.6 L 155.1 161.7 L 150.9 156.4 L 146.9 150.9 L 143.3 145.0 L 139.9 138.9 L 139.3 137.48571424484254 L 139.3 183.0 L 127.3 189.0 L 127.3 139.9319149017334 L 126.7 140.8 L 121.7 147.2 L 116.4 153.3 L 110.7 159.0 L 104.6 164.3 L 98.2 169.3 L 91.5 173.9 L 84.4 178.0 L 76.9 181.6 L 69.1 184.8 L 68.2 183.1 L 75.0 178.4 L 81.5 173.5 L 87.6 168.5 L 93.4 163.4 L 98.9 158.1 L 104.0 152.5 L 108.7 146.7 L 113.2 140.7 L 117.3 134.4 L 118.08235292434692 133.0 L 80.8 133.0 L 80.8 129.0 L 127.3 129.0 L 127.3 113.0 L 102.9 113.0 L 102.9 116.0 L 90.9 122.0 L 90.9 59.0 L 102.9 65.0 L 162.6 65.0 L 168.6 60.0 L 179.6 69.0 L 174.6 73.0 L 174.6 115.0 L 162.6 121.0 L 162.6 113.0 L 139.3 113.0 L 139.3 129.0 L 163.8 129.0 L 173.8 119.0 L 185.8 129.0 L 185.8 133.0 L 140.1692307472229 133.0 L 143.4 136.5 L 148.0 141.5 L 152.5 146.3 L 157.1 150.9 L 161.8 155.2 L 166.5 159.1 L 171.3 162.9 L 176.2 166.3 L 181.1 169.4 L 186.2 172.3 L 190.5 174.9 L 179.3 183.6 L 174.1 179.8 Z M 14.1 148.1 L 19.1 146.7 L 24.5 145.1 L 30.1 143.3 L 36.1 141.3 L 39.7 140.08064517974853 L 39.7 73.5 L 15.1 73.5 L 15.1 69.5 L 39.7 69.5 L 39.7 21.1 L 51.7 23.1 L 54.7 25.1 L 51.7 26.9 L 51.7 69.5 L 56.1 69.5 L 66.1 59.5 L 78.1 69.5 L 78.1 73.5 L 51.7 73.5 L 51.7 135.88550720214843 L 55.8 134.4 L 63.0 131.9 L 70.6 129.3 L 78.6 126.7 L 79.3 128.3 L 72.2 132.7 L 65.2 136.8 L 58.4 140.5 L 51.9 143.9 L 45.6 147.0 L 39.6 149.9 L 33.8 152.6 L 28.2 155.1 L 23.0 157.4 L 21.83718070983887 157.87880792617798 L 20.8 161.7 L 17.9 159.5 L 12.2 148.7 Z M 102.9 91.0 L 102.9 109.0 L 127.3 109.0 L 127.3 91.0 Z M 139.3 91.0 L 139.3 109.0 L 162.6 109.0 L 162.6 91.0 Z M 102.9 69.0 L 102.9 87.0 L 127.3 87.0 L 127.3 69.0 Z M 139.3 69.0 L 139.3 87.0 L 162.6 87.0 L 162.6 69.0 Z M 100.0 55.0 L 99.4 53.4 L 98.6 51.7 L 97.5 49.7 L 96.1 47.7 L 94.5 45.4 L 92.7 43.1 L 90.7 40.5 L 88.1 38.3 L 88.77019863128662 37.38609275817871 L 88.5 37.6 L 87.2 36.3 L 89.1 33.9 L 90.7 31.2 L 92.4 28.6 L 95.6 23.8 L 97.1 21.4 L 98.6 19.2 L 100.1 16.9 L 102.38816709518433 13.467749404907227 L 102.3 13.4 L 102.8 12.85 L 102.9 12.7 L 102.92001123428345 12.717987632751464 L 103.3 12.3 L 111.8 20.7 L 112.7 24.2 L 108.4630000114441 23.38233337402344 L 107.7 24.0 L 105.5 25.6 L 103.3 27.3 L 101.0 29.0 L 96.2 32.4 L 93.6 34.0 L 90.9 35.7 L 89.374059009552 36.908036613464354 L 92.1 38.6 L 95.1 40.1 L 97.9 41.6 L 100.4 43.1 L 102.8 44.6 L 104.9 46.1 L 106.8 47.7 L 108.6 49.3 L 110.1 51.1 L 111.5 52.9 L 111.4 57.5 L 108.2 60.7 L 103.6 60.6 L 100.3 57.4 L 100.3 56.3 Z M 128.4 53.5 L 127.9 52.0 L 127.2 50.4 L 126.3 48.7 L 125.1 46.8 L 123.8 44.8 L 122.3 42.6 L 120.6 40.3 L 118.4 38.3 L 119.11280002593995 37.32799997329712 L 118.8 37.6 L 117.5 36.3 L 119.2 33.9 L 120.6 31.3 L 122.1 28.7 L 125.1 23.9 L 126.5 21.5 L 128.0 19.2 L 130.8 14.8 L 131.65483875274657 13.51774196624756 L 131.5 13.4 L 132.6 12.3 L 141.1 20.7 L 142.0 24.2 L 137.69632549285888 23.369466304779053 L 137.0 23.9 L 134.9 25.6 L 132.8 27.2 L 130.6 28.9 L 126.0 32.3 L 123.6 34.0 L 121.1 35.6 L 119.62345676422119 36.8839506149292 L 122.0 38.5 L 124.7 39.8 L 127.1 41.0 L 129.4 42.3 L 131.5 43.6 L 133.4 45.0 L 135.2 46.3 L 136.8 47.7 L 138.2 49.2 L 139.6 50.8 L 139.6 55.3 L 136.5 58.7 L 132.0 58.8 L 128.6 55.7 L 128.6 54.7 Z M 157.6 53.1 L 157.2 51.6 L 156.4 50.0 L 155.4 48.3 L 154.2 46.4 L 152.7 44.4 L 151.1 42.3 L 149.2 40.1 L 146.8 38.2 L 147.15730333328247 37.604494380950925 L 147.0 37.7 L 145.9 36.2 L 148.2 33.9 L 150.2 31.4 L 152.2 29.0 L 154.0 26.6 L 155.9 24.3 L 157.6 22.1 L 159.2 19.9 L 162.2 15.7 L 162.99670057296754 14.474306774139404 L 162.9 14.4 L 163.4087718963623 13.840350914001466 L 163.5 13.7 L 163.52001123428346 13.717987632751464 L 163.9 13.3 L 172.4 21.7 L 173.3 25.2 L 169.03559045791627 24.37704372406006 L 168.1 25.1 L 165.8 26.7 L 163.4 28.3 L 160.9 29.9 L 158.3 31.5 L 155.6 33.1 L 152.8 34.6 L 149.8 36.0 L 148.203125 36.96953125 L 150.5 38.2 L 153.3 39.3 L 155.9 40.5 L 158.3 41.7 L 160.5 43.0 L 162.5 44.4 L 164.4 45.8 L 166.1 47.4 L 167.7 49.1 L 169.0 50.9 L 168.9 55.5 L 165.7 58.7 L 161.2 58.6 L 157.9 55.4 L 157.9 54.3 Z " />
</g>
</svg>
