<svg xmlns="http://www.w3.org/2000/svg" xmlns:xlink="http://www.w3.org/1999/xlink" version="1.1" baseProfile="full" viewBox="0 0 200 200" width="200" height="200">
<g fill="black">
<path d="M 14.0 174.9 L 94.0 174.9 L 94.0 149.2 L 27.0 149.2 L 27.0 145.2 L 94.0 145.2 L 94.0 124.6 L 106.0 126.6 L 109.0 128.6 L 106.0 130.4 L 106.0 145.2 L 151.0 145.2 L 161.0 135.2 L 173.0 145.2 L 173.0 149.2 L 106.0 149.2 L 106.0 174.9 L 164.0 174.9 L 174.0 164.9 L 186.0 174.9 L 186.0 178.9 L 14.0 178.9 Z M 101.6 92.0 L 100.5 98.2 L 98.4 103.9 L 95.2 109.2 L 91.0 113.8 L 86.1 117.8 L 80.3 121.3 L 73.7 124.2 L 66.3 126.6 L 58.2 128.5 L 49.2 129.7 L 48.8 128.0 L 57.1 124.8 L 64.5 121.6 L 70.9 118.3 L 76.3 114.8 L 80.8 111.2 L 84.2 107.5 L 86.8 103.6 L 88.5 99.8 L 89.4 95.7 L 89.6 91.5 L 89.6 69.1 L 101.6 71.1 L 104.6 73.1 L 101.6 74.9 L 101.6 91.7 L 101.4054054260254 91.99189186096191 Z M 166.0 126.8 L 163.6 126.5 L 161.2 125.7 L 159.0 124.6 L 157.0 123.0 L 155.3 121.0 L 154.1 118.8 L 153.2 116.5 L 152.7 114.0 L 152.6 111.4 L 152.6 69.1 L 164.6 71.1 L 167.6 73.1 L 164.6 74.9 L 164.6 112.7 L 164.7 113.6 L 164.8 114.2 L 165.0 114.6 L 165.1 114.9 L 165.3 115.1 L 166.3 115.6 L 167.3 115.8 L 168.6 115.9 L 178.0 115.9 L 183.5 94.9 L 185.5 94.9 L 183.5 115.9 L 186.8 118.1 L 189.0 121.4 L 186.8 124.7 L 183.5 126.9 L 168.6 126.9 Z M 37.2 129.1 L 33.2 126.9 L 31.9 122.5 L 32.5 118.3 L 32.6 114.5 L 32.2 111.1 L 31.4 108.0 L 30.1 105.1 L 28.2 102.3 L 25.7 99.7 L 22.5 97.2 L 18.5 94.8 L 13.8 92.8 L 14.2 91.1 L 19.5 91.8 L 24.5 92.9 L 29.0 94.7 L 31.15903615951538 96.04939756393432 L 31.4 95.7 L 33.9 92.2 L 37.0 87.9 L 40.7 82.8 L 45.0 77.0 L 50.0 70.5 L 55.6 63.2 L 62.0 55.3 L 69.2 46.7 L 70.6 47.7 L 65.1 57.4 L 60.0 66.3 L 55.4 74.2 L 51.3 81.2 L 47.8 87.5 L 44.8 92.8 L 42.4 97.4 L 40.7 101.0 L 39.6 103.8 L 39.44744272232056 104.28818340301514 L 41.5 108.3 L 43.0 113.1 L 43.7 118.3 L 43.8 123.8 L 41.5 127.8 Z M 133.1 71.1 L 136.1 73.1 L 133.1 74.9 L 133.1 115.1 L 121.1 121.1 L 121.1 69.1 Z M 129.0 35.4 L 127.5 37.0 L 125.7 38.5 L 123.6 40.3 L 121.2 42.4 L 118.3 44.7 L 115.0 47.4 L 111.2 50.3 L 107.0 53.4 L 103.41904764175415 55.99047622680664 L 111.8 55.8 L 121.4 55.5 L 131.8 55.2 L 142.8 54.8 L 154.6 54.5 L 162.62775020599366 54.435778045654295 L 160.9 52.9 L 158.1 50.4 L 155.0 47.9 L 151.8 45.4 L 148.2 43.0 L 149.0 41.4 L 157.2 44.0 L 161.1 45.4 L 164.7 47.1 L 168.2 48.9 L 171.5 50.8 L 174.7 52.9 L 177.6 55.1 L 180.4 57.5 L 183.0 60.0 L 184.3 64.4 L 182.1 68.4 L 177.7 69.6 L 173.7 67.5 L 172.1 65.0 L 170.3 62.6 L 168.3 60.2 L 166.0 57.7 L 164.9083333015442 56.60833330154419 L 155.0 58.3 L 143.3 60.2 L 132.3 61.7 L 122.0 63.1 L 112.5 64.2 L 103.6 65.3 L 95.4 66.1 L 87.9 66.9 L 81.1 67.5 L 79.23852815628052 67.65512266159058 L 77.1 71.0 L 75.1 68.0 L 72.8 56.0 L 74.8 56.0 L 80.7 56.1 L 87.4 56.2 L 94.8 56.1 L 98.93548383712769 56.049567222595215 L 100.2 54.6 L 103.8 50.1 L 107.1 46.0 L 110.0 42.4 L 112.6 39.2 L 114.7 36.3 L 116.06000003814697 34.3 L 69.6 34.3 L 69.6 30.3 L 121.1 30.3 L 121.1 12.4 L 133.1 14.4 L 136.1 16.4 L 133.1 18.2 L 133.1 30.3 L 165.8 30.3 L 175.8 20.3 L 187.8 30.3 L 187.8 34.3 L 129.9935483932495 34.3 Z M 32.7 59.8 L 31.4 58.3 L 29.7 56.9 L 27.6 55.3 L 25.2 53.8 L 22.5 52.2 L 19.4 50.6 L 16.0 48.9 L 12.2 47.6 L 12.6 45.8 L 16.6 46.4 L 20.5 46.7 L 24.2 47.1 L 27.5 47.7 L 30.7 48.4 L 33.6 49.3 L 36.3 50.3 L 38.9 51.5 L 41.2 52.9 L 43.3 54.5 L 44.7 58.9 L 42.6 63.0 L 38.2 64.3 L 34.1 62.2 L 33.6 61.1 Z M 46.6 28.8 L 45.3 27.3 L 43.6 25.8 L 41.6 24.3 L 39.3 22.7 L 36.7 21.1 L 33.8 19.5 L 30.7 17.8 L 27.2 16.6 L 27.6 14.8 L 31.4 15.4 L 35.0 15.7 L 38.5 16.1 L 41.7 16.7 L 44.7 17.5 L 47.6 18.3 L 50.3 19.3 L 52.8 20.5 L 55.1 21.8 L 57.3 23.4 L 58.8 27.7 L 56.9 31.8 L 52.6 33.4 L 48.4 31.5 L 47.7 30.2 Z " />
</g>
</svg>
