<svg xmlns="http://www.w3.org/2000/svg" xmlns:xlink="http://www.w3.org/1999/xlink" version="1.1" baseProfile="full" viewBox="0 0 200 200" width="200" height="200">
<g fill="black">
<path d="M 69.3 176.6 L 108.2 176.6 L 108.2 154.4 L 76.7 154.4 L 76.7 150.4 L 108.2 150.4 L 108.2 130.6 L 82.7 130.6 L 82.7 126.6 L 108.2 126.6 L 108.2 106.8 L 77.4 106.8 L 77.4 102.8 L 108.2 102.8 L 108.2 83.6 L 120.2 85.6 L 123.2 87.6 L 120.2 89.4 L 120.2 176.6 L 133.7 176.6 L 133.7 83.6 L 145.7 85.6 L 148.7 87.6 L 145.7 89.4 L 145.7 102.8 L 158.3181818008423 102.8 L 166.5 93.8 L 176.5 102.8 L 176.5 106.8 L 145.7 106.8 L 145.7 126.6 L 156.9777777671814 126.6 L 163.2 119.6 L 171.2 126.6 L 171.2 130.6 L 145.7 130.6 L 145.7 150.4 L 159.01818180084229 150.4 L 167.2 141.4 L 177.2 150.4 L 177.2 154.4 L 145.7 154.4 L 145.7 176.6 L 162.6 176.6 L 172.6 166.6 L 184.6 176.6 L 184.6 180.6 L 69.3 180.6 Z M 14.7 151.0 L 19.3 149.5 L 24.2 147.8 L 29.3 145.9 L 34.8 143.8 L 38.0 142.5087718963623 L 38.0 72.0 L 16.0 72.0 L 16.0 68.0 L 38.0 68.0 L 38.0 17.0 L 50.0 19.0 L 53.0 21.0 L 50.0 22.8 L 50.0 68.0 L 55.418181800842284 68.0 L 63.6 59.0 L 73.6 68.0 L 73.6 72.0 L 50.0 72.0 L 50.0 137.69682540893555 L 52.9 136.5 L 59.6 133.8 L 66.6 131.0 L 73.9 128.2 L 74.8 129.7 L 68.3 134.3 L 62.0 138.5 L 55.9 142.3 L 49.9 145.9 L 44.2 149.2 L 38.7 152.2 L 33.5 155.1 L 28.4 157.6 L 23.6 160.0 L 22.8908899307251 160.3466760635376 L 22.0 164.3 L 19.1 162.2 L 12.8 151.7 Z M 166.8 91.8 L 161.8 87.9 L 157.2 83.7 L 152.9 79.3 L 148.9 74.6 L 145.2 69.7 L 141.9 64.6 L 139.0 59.1 L 136.7 53.4 L 136.87777776718139 53.3 L 122.92195119857789 53.3 L 120.3 57.6 L 114.7 65.3 L 108.5 72.4 L 101.7 78.9 L 94.4 84.8 L 86.5 90.1 L 78.1 94.6 L 69.1 98.5 L 68.3 96.9 L 76.1 91.4 L 83.4 85.7 L 90.2 79.7 L 96.4 73.5 L 102.1 66.8 L 107.2 59.8 L 111.1 53.3 L 72.7 53.3 L 72.7 49.3 L 113.27692308425904 49.3 L 115.8 44.5 L 119.3 36.2 L 121.22584009170532 30.615063762664796 L 112.4 31.1 L 102.7 31.6 L 92.4 31.7 L 81.5 31.7 L 81.3 29.9 L 92.0 28.0 L 102.1 26.2 L 111.7 24.6 L 120.5 23.1 L 128.8 21.5 L 136.5 20.0 L 143.5 18.5 L 149.8 16.9 L 155.6 15.4 L 160.6 13.8 L 160.96035900115967 15.148440265655518 L 171.0 23.5 L 171.3 26.6 L 167.0003393173218 24.541007614135744 L 163.7 25.4 L 158.1 26.5 L 151.9 27.5 L 145.2 28.4 L 137.9 29.2 L 130.50967741012573 29.85483875274658 L 133.6 31.4 L 135.8 34.3 L 132.0964705467224 35.07969036102295 L 129.8 40.7 L 125.35172414779663 49.3 L 159.2 49.3 L 169.2 39.3 L 181.2 49.3 L 181.2 53.3 L 139.0813953399658 53.3 L 142.5 56.8 L 146.6 61.0 L 150.7 65.0 L 154.9 68.8 L 159.2 72.4 L 163.8 75.8 L 168.4 79.0 L 173.3 82.0 L 178.4 84.7 L 183.6 87.3 L 188.7 90.0 L 177.5 99.0 L 172.0 95.5 Z " />
</g>
</svg>
