<svg xmlns="http://www.w3.org/2000/svg" xmlns:xlink="http://www.w3.org/1999/xlink" version="1.1" baseProfile="full" viewBox="0 0 200 200" width="200" height="200">
<g fill="black">
<path d="M 107.7 139.5 L 106.8 141.8 L 105.6 144.0 L 104.25 145.8 L 162.5 145.8 L 172.5 135.8 L 184.5 145.8 L 184.5 149.8 L 144.7 149.8 L 144.4 150.3 L 142.7 153.0 L 140.9 155.7 L 139.1 158.3 L 137.2 161.0 L 135.2 163.6 L 133.1 166.2 L 130.9 168.8 L 129.24623889923095 170.5975664138794 L 133.0 170.4 L 138.8 170.0 L 144.7 169.6 L 150.7 169.2 L 156.8 168.7 L 163.1 168.4 L 164.75665206909179 168.347407913208 L 163.9 166.7 L 160.9 161.7 L 159.3 159.1 L 157.3 156.8 L 158.5 155.4 L 161.1 157.2 L 163.8 158.8 L 166.4 160.6 L 168.9 162.5 L 171.2 164.6 L 173.4 166.8 L 175.5 169.1 L 177.5 171.6 L 179.3 174.2 L 181.0 176.8 L 181.1 181.4 L 178.0 184.8 L 173.5 184.8 L 170.1 181.8 L 169.3 179.2 L 168.5 176.7 L 167.5 174.2 L 166.4 171.7 L 166.21496601104735 171.31451244354247 L 163.8 172.2 L 157.8 174.0 L 151.8 175.7 L 145.9 177.1 L 140.0 178.4 L 134.2 179.6 L 128.5 180.7 L 122.8 181.7 L 117.2 182.6 L 115.78793106079101 182.80172414779662 L 113.9 186.2 L 111.6 183.4 L 108.7 171.6 L 110.7 171.4 L 116.1 171.2 L 121.7 171.0 L 124.34054670333862 170.85854215621947 L 126.2 165.9 L 127.4 162.8 L 129.6 156.8 L 130.7 153.9 L 131.6 151.0 L 132.02857141494752 149.8 L 103.9 149.8 L 103.9 146.18947372436523 L 102.2 147.8 L 100.2 149.2 L 97.9 150.3 L 95.5 151.0 L 93.0 151.4 L 90.5 151.6 L 90.5 145.6 L 82.5 142.6 L 82.5 139.6 L 90.5 139.6 L 91.7 139.5 L 92.8 139.3 L 93.6 139.1 L 94.2 138.8 L 94.7 138.4 L 95.1 138.0 L 95.39850749969483 137.6268656730652 L 96.1 134.4 L 96.8 131.9 L 97.3 129.2 L 97.5 126.4 L 97.3 123.4 L 96.7 120.2 L 95.8 116.8 L 94.4 113.2 L 92.7 109.4 L 90.6 105.4 L 87.9 101.3 L 88.23999996185303 100.96000003814697 L 87.1 100.2 L 88.9 95.8 L 90.5 91.5 L 92.1 87.4 L 93.5 83.4 L 94.9 79.6 L 96.1 75.9 L 97.2 72.3 L 98.2 68.9 L 98.85454549789429 66.2 L 81.3 66.2 L 81.3 181.3 L 69.3 187.3 L 69.3 56.2 L 81.3 62.2 L 99.4 62.2 L 105.4 57.2 L 116.4 66.2 L 111.4 69.2 L 109.21951217651367 70.10853662490845 L 108.0 72.7 L 106.2 76.1 L 104.3 79.6 L 102.2 83.1 L 99.9 86.6 L 97.4 90.2 L 94.6 93.9 L 91.7 97.5 L 89.44024639129638 100.19712524414062 L 93.1 103.2 L 96.7 106.4 L 99.9 109.8 L 102.6 113.3 L 104.8 117.0 L 106.7 120.8 L 108.0 124.7 L 108.9 128.8 L 109.2 132.9 L 109.0 137.1 L 108.21941843032837 137.64493436813353 Z M 12.9 151.1 L 16.9 149.6 L 21.2 147.9 L 25.7 146.0 L 30.5 143.9 L 33.0 142.77254905700684 L 33.0 72.0 L 14.5 72.0 L 14.5 68.0 L 33.0 68.0 L 33.0 17.0 L 45.0 19.0 L 48.0 21.0 L 45.0 22.8 L 45.0 68.0 L 50.6777777671814 68.0 L 56.9 61.0 L 64.9 68.0 L 64.9 72.0 L 45.0 72.0 L 45.0 137.2618182182312 L 46.4 136.6 L 52.3 133.8 L 58.5 131.0 L 65.1 128.2 L 66.0 129.7 L 60.5 134.3 L 55.1 138.4 L 49.7 142.3 L 44.6 145.8 L 39.6 149.1 L 34.9 152.1 L 30.3 154.9 L 25.9 157.5 L 21.8 159.9 L 21.524191665649415 160.04479942321777 L 20.8 164.0 L 17.8 162.0 L 11.1 151.9 Z M 173.4 110.3 L 168.4 113.3 L 165.89071617126464 114.34553489685058 L 159.69646015167237 129.9 L 161.5777777671814 129.9 L 167.8 122.9 L 175.8 129.9 L 175.8 133.9 L 112.6 133.9 L 112.6 129.9 L 146.65593223571778 129.9 L 155.04406776428223 110.3 L 115.9 110.3 L 115.9 106.3 L 156.4 106.3 L 162.4 101.3 Z M 169.4 94.7 L 164.9 91.3 L 160.7 87.5 L 156.7 83.4 L 153.0 79.0 L 149.5 74.3 L 146.3 69.2 L 143.70597496032715 64.36974639892578 L 141.4 68.1 L 137.7 73.4 L 133.8 78.4 L 129.5 83.3 L 125.0 87.9 L 120.1 92.3 L 114.9 96.5 L 109.4 100.3 L 103.5 103.7 L 102.4 102.3 L 107.0 97.4 L 111.3 92.5 L 115.5 87.7 L 119.3 82.8 L 122.9 77.9 L 126.3 72.9 L 129.3 67.9 L 132.1 62.7 L 134.6 57.4 L 136.9 52.0 L 136.90765447616576 52.00351123809814 L 137.4 50.8 L 138.6 51.51538457870483 L 138.6 33.6 L 111.4 33.6 L 111.4 47.0 L 99.4 53.0 L 99.4 33.6 L 64.1 33.6 L 64.1 29.6 L 99.4 29.6 L 99.4 11.5 L 111.4 13.5 L 114.4 15.5 L 111.4 17.3 L 111.4 29.6 L 138.6 29.6 L 138.6 11.5 L 150.6 13.5 L 153.6 15.5 L 150.6 17.3 L 150.6 29.6 L 163.9 29.6 L 173.9 19.6 L 185.9 29.6 L 185.9 33.6 L 150.6 33.6 L 150.6 47.0 L 139.95438594818114 52.32280702590943 L 147.8 57.0 L 149.7 60.0 L 145.97846212387086 60.45703096389771 L 146.9 61.4 L 151.0 65.7 L 155.0 69.6 L 159.0 73.3 L 163.1 76.6 L 167.2 79.6 L 171.4 82.3 L 175.6 84.7 L 179.9 86.8 L 184.3 88.6 L 190.3 91.3 L 178.9 100.6 L 174.0 97.9 Z M 161.9 90.4 L 161.9 94.4 L 124.5 94.4 L 124.5 90.4 L 143.71818180084227 90.4 L 151.9 81.4 Z " />
</g>
</svg>
