<svg xmlns="http://www.w3.org/2000/svg" xmlns:xlink="http://www.w3.org/1999/xlink" version="1.1" baseProfile="full" viewBox="0 0 200 200" width="200" height="200">
<g fill="black">
<path d="M 14.0 177.0 L 94.0 177.0 L 94.0 156.6 L 27.0 156.6 L 27.0 152.6 L 94.0 152.6 L 94.0 135.8 L 106.0 137.8 L 109.0 139.8 L 106.0 141.6 L 106.0 152.6 L 151.0 152.6 L 161.0 142.6 L 173.0 152.6 L 173.0 156.6 L 106.0 156.6 L 106.0 177.0 L 164.0 177.0 L 174.0 167.0 L 186.0 177.0 L 186.0 181.0 L 14.0 181.0 Z M 149.0 126.8 L 159.0 126.8 L 160.3 126.7 L 161.2 126.6 L 161.8 126.4 L 162.1 126.2 L 162.3 126.1 L 162.6 125.5 L 162.8 124.9 L 163.0 124.0 L 163.0 97.39655170440673 L 159.621875 97.8625 L 159.6 97.9 L 157.4 101.5 L 155.02262210845947 104.76889457702637 L 155.2 104.9 L 157.4 106.8 L 159.5 108.7 L 161.4 110.8 L 162.2 115.3 L 159.6 119.1 L 155.1 119.9 L 151.3 117.3 L 150.5 115.3 L 148.67781534194947 111.9869369506836 L 146.8 113.8 L 143.8 116.4 L 140.5 118.8 L 133.7 123.0 L 133.0 122.10909090042114 L 133.0 129.8 L 121.0 135.8 L 121.0 97.47931032180786 L 118.28281087875366 97.85409507751464 L 118.2 98.0 L 115.9 101.5 L 113.6069351196289 104.61856822967529 L 114.5 105.4 L 116.7 107.7 L 118.7 110.1 L 120.6 112.6 L 120.9 117.2 L 118.0 120.7 L 113.4 121.0 L 109.9 118.0 L 109.1 115.8 L 108.2 113.5 L 107.28000001907348 111.66000003814698 L 104.8 113.9 L 101.6 116.5 L 98.2 118.9 L 94.6 121.0 L 90.9 123.0 L 90.9 131.9 L 78.9 137.9 L 78.9 52.96363639831543 L 76.5 54.0 L 72.0 55.6 L 67.3 57.1 L 66.5 55.5 L 70.3 52.6 L 74.0 49.6 L 77.5 46.7 L 78.9 45.58000001907349 L 78.9 41.9 L 81.68901100158692 43.294505500793456 L 84.3 41.0 L 87.6 38.0 L 93.6 32.0 L 96.5 28.9 L 98.56473751068116 26.452903747558594 L 98.5 26.4 L 99.5 25.4 L 107.8 34.0 L 108.6 37.5 L 104.74295616149902 36.62032337188721 L 104.3 37.0 L 100.7 39.9 L 97.0 42.6 L 93.1 45.2 L 89.76966295242309 47.334831428527835 L 90.9 47.9 L 121.0 47.9 L 121.0 25.4 L 67.6 25.4 L 67.6 21.4 L 164.3 21.4 L 174.3 11.4 L 186.3 21.4 L 186.3 25.4 L 133.0 25.4 L 133.0 47.9 L 163.0 47.9 L 168.41433448791503 43.38805456161499 L 165.6 41.3 L 162.2 39.0 L 158.5 36.7 L 154.5 34.4 L 150.2 31.9 L 145.6 29.6 L 146.1 27.9 L 151.3 28.9 L 156.3 29.9 L 160.9 31.2 L 165.3 32.6 L 169.5 34.2 L 173.4 35.9 L 177.0 37.8 L 180.4 39.8 L 183.6 41.9 L 186.5 44.2 L 188.1 48.5 L 186.3 52.7 L 182.0 54.4 L 178.66279067993165 52.96976747512817 L 175.0 55.9 L 175.0 122.8 L 174.9 125.4 L 174.5 127.9 L 173.7 130.3 L 172.4 132.5 L 170.8 134.5 L 168.8 136.2 L 166.5 137.4 L 164.1 138.2 L 161.6 138.7 L 159.0 138.8 L 159.0 132.8 L 149.0 129.8 Z M 51.4 130.5 L 49.7 132.3 L 47.8 133.8 L 45.8 135.1 L 43.6 136.2 L 41.3 137.0 L 39.0 137.6 L 36.5 138.0 L 34.0 138.1 L 34.0 132.1 L 20.0 129.1 L 20.0 126.1 L 34.0 126.1 L 35.4 126.0 L 36.7 125.8 L 37.8 125.6 L 38.9 125.2 L 39.8 124.7 L 40.7 124.1 L 41.6 123.4 L 42.4 122.6 L 43.2 121.6 L 43.9 120.4 L 44.8 118.7 L 45.7 116.3 L 46.6 113.4 L 47.4 109.9 L 48.1 105.9 L 48.7 101.4 L 49.3 96.4 L 49.7 90.9 L 50.0 84.8 L 50.13230772018433 80.5 L 26.251804161071778 80.5 L 25.2 88.2 L 12.5 92.5 L 19.4 41.8 L 29.331578922271728 48.6 L 49.4 48.6 L 49.4 23.3 L 13.6 23.3 L 13.6 19.3 L 49.4 19.3 L 55.4 14.3 L 66.4 23.3 L 61.4 27.3 L 61.4 56.6 L 49.4 62.6 L 49.4 52.6 L 30.06288661956787 52.6 L 26.798195838928223 76.5 L 50.2 76.5 L 56.2 71.5 L 67.2 80.5 L 62.2 83.5 L 62.05188913345337 83.56171283721923 L 62.0 85.3 L 61.7 91.6 L 61.2 97.5 L 60.7 102.8 L 60.0 107.8 L 59.2 112.3 L 58.2 116.4 L 57.1 120.2 L 55.8 123.5 L 54.3 126.5 L 52.9 128.6 Z M 149.5 80.4 L 148.375 78.525 L 146.5 80.4 L 143.4 82.9 L 140.3 85.2 L 137.0 87.1 L 133.7 88.8 L 133.0 87.90909090042115 L 133.0 121.11999998092651 L 135.1 118.6 L 137.3 115.5 L 139.5 112.5 L 141.5 109.4 L 143.4 106.2 L 143.9433961868286 105.17713651657104 L 143.8 105.0 L 142.0 102.9 L 140.1 100.7 L 138.1 98.4 L 135.6 96.5 L 136.5 95.0 L 139.4 96.3 L 142.4 97.4 L 145.2 98.6 L 146.85159578323365 99.45638294219971 L 148.2 96.4 L 149.5 93.0 L 150.38183040618895 90.42799463272095 L 150.3 90.4 L 150.62653064727783 89.71428575515748 L 150.7 89.5 L 150.72365589141845 89.51032257080078 L 151.3 88.3 L 161.7 94.3 L 163.0 96.25 L 163.0 63.28448276519775 L 159.67741937637328 63.685483837127684 L 159.5 64.0 L 157.2 67.8 L 154.7 71.3 L 154.50016527175904 71.54595041275024 L 155.0 71.9 L 157.4 73.8 L 159.5 75.9 L 161.5 78.2 L 162.2 82.7 L 159.6 86.4 L 155.0 87.1 L 151.3 84.4 L 150.5 82.4 Z M 108.1 80.4 L 106.9 78.4 L 106.88812303543091 78.38388118743896 L 104.8 80.4 L 101.7 83.0 L 98.4 85.2 L 95.0 87.1 L 91.6 88.9 L 90.9 87.85 L 90.9 120.36071424484253 L 92.6 118.6 L 95.1 115.4 L 97.4 112.4 L 99.6 109.3 L 101.7 106.1 L 102.60909090042114 104.48383836746216 L 100.9 102.3 L 98.9 100.1 L 96.8 97.7 L 94.3 95.8 L 95.1 94.2 L 98.2 95.6 L 101.3 96.7 L 104.2 98.1 L 105.57113399505616 98.883505153656 L 106.7 96.4 L 108.1 93.0 L 108.98183040618896 90.42799463272095 L 108.9 90.4 L 109.22653064727783 89.71428575515748 L 109.3 89.5 L 109.32365589141845 89.51032257080078 L 109.9 88.3 L 120.3 94.3 L 121.0 95.35 L 121.0 63.356896591186526 L 118.33157892227173 63.678947353363036 L 118.1 64.1 L 115.7 67.8 L 113.2 71.3 L 113.0359712600708 71.50047960281373 L 113.6 71.9 L 116.0 73.8 L 118.1 75.9 L 120.1 78.2 L 120.8 82.7 L 118.2 86.4 L 113.6 87.1 L 109.9 84.4 L 109.1 82.4 Z M 90.9 51.9 L 90.9 87.07600002288818 L 93.1 84.7 L 95.3 81.8 L 97.5 78.8 L 99.5 75.8 L 101.5 72.7 L 101.7880000114441 72.18800001144409 L 100.2 70.6 L 98.1 68.7 L 95.8 66.7 L 93.0 65.1 L 93.7 63.5 L 96.8 64.4 L 100.0 65.1 L 103.0 66.1 L 104.68049640655518 66.82021274566651 L 105.0 66.2 L 106.5 62.7 L 108.0 59.1 L 108.95196847915649 56.3173228263855 L 108.9 56.3 L 109.1340425491333 55.785106372833255 L 109.3 55.3 L 109.34551725387573 55.319862079620364 L 109.9 54.1 L 120.3 60.1 L 121.0 61.185000038146974 L 121.0 51.9 Z M 133.0 51.9 L 133.0 86.95 L 135.0 84.7 L 139.2 78.9 L 141.2 75.9 L 143.0 72.8 L 143.2880000114441 72.2880000114441 L 141.6 70.6 L 139.5 68.7 L 137.2 66.7 L 134.4 65.1 L 135.1 63.5 L 138.2 64.4 L 141.4 65.1 L 144.4 66.1 L 146.10349645614625 66.83006992340088 L 146.4 66.2 L 147.9 62.7 L 149.4 59.1 L 150.35196847915648 56.3173228263855 L 150.3 56.3 L 150.5340425491333 55.785106372833255 L 150.7 55.3 L 150.74551725387573 55.319862079620364 L 151.3 54.1 L 161.7 60.1 L 163.0 62.11499996185303 L 163.0 51.9 Z " />
</g>
</svg>
