<svg xmlns="http://www.w3.org/2000/svg" xmlns:xlink="http://www.w3.org/1999/xlink" version="1.1" baseProfile="full" viewBox="0 0 200 200" width="200" height="200">
<g fill="black">
<path d="M 76.7 100.7 L 75.9 96.7 L 75.0 93.0 L 74.1 89.4 L 73.2 86.1 L 72.1 82.9 L 71.35646257400512 80.66938772201539 L 69.8 86.4 L 67.4 94.0 L 64.7 101.1 L 61.7 107.5 L 58.3 113.3 L 54.9 117.74615383148193 L 54.9 128.0 L 59.3 128.0 L 69.3 118.0 L 81.3 128.0 L 81.3 132.0 L 54.9 132.0 L 54.9 160.83999996185304 L 57.9 160.2 L 65.4 158.8 L 72.9 157.3 L 80.5 156.1 L 88.2 155.1 L 88.7 156.8 L 81.5 159.8 L 74.3 162.5 L 67.1 165.1 L 59.9 167.6 L 52.6 170.0 L 45.4 172.3 L 38.2 174.7 L 31.0 177.0 L 23.9 179.2 L 20.61709842681885 180.248704624176 L 19.4 183.9 L 16.7 181.5 L 11.6 170.4 L 13.6 169.9 L 20.9 168.2 L 28.2 166.6 L 42.9 163.42162160873414 L 42.9 132.0 L 16.5 132.0 L 16.5 128.0 L 42.9 128.0 L 42.9 108.5615385055542 L 39.1 110.9 L 34.7 109.7 L 32.3 105.8 L 32.1 102.2 L 31.8 98.7 L 31.4 95.3 L 30.9 92.0 L 30.3 88.7 L 29.6 85.5 L 28.768973350524902 82.279771900177 L 27.6 86.9 L 25.2 94.7 L 22.5 102.0 L 19.6 108.7 L 16.3 114.9 L 12.6 120.4 L 11.0 119.5 L 12.8 113.4 L 14.6 106.9 L 16.3 100.0 L 17.9 92.7 L 19.3 85.0 L 20.6 76.8 L 21.7 68.2 L 22.6 59.1 L 23.4 49.5 L 23.850020694732667 40.49958658218384 L 23.8 40.5 L 24.1 37.3 L 35.9 40.4 L 38.7 42.6 L 35.45463914871216 44.2226803779602 L 34.7 50.7 L 33.3 60.5 L 31.6 69.8 L 30.343977546691896 75.61736698150635 L 31.8 77.2 L 33.9 80.0 L 35.8 83.0 L 37.6 86.1 L 39.2 89.4 L 40.7 92.9 L 42.0 96.5 L 42.9 99.275 L 42.9 19.0 L 54.9 21.0 L 57.9 23.0 L 54.9 24.8 L 54.9 111.37368421554565 L 56.7 105.5 L 58.5 99.0 L 60.1 92.0 L 61.6 84.5 L 62.8 76.5 L 63.9 68.1 L 64.7 59.1 L 65.4 49.6 L 65.76005954742432 40.598510932922366 L 65.7 40.6 L 65.9 37.3 L 77.8 40.3 L 80.6 42.5 L 77.38317193984986 44.20302667617798 L 76.7 50.6 L 75.4 60.3 L 73.8 69.6 L 72.60278100967408 75.38655853271484 L 74.9 77.5 L 77.2 80.1 L 79.4 83.1 L 81.4 86.4 L 83.3 89.9 L 85.1 93.7 L 86.8 97.8 L 88.3 102.2 L 89.7 106.8 L 88.8 111.2 L 85.1 113.9 L 80.6 113.0 L 78.0 109.3 L 77.4 104.9 Z M 111.5 124.0 L 111.5 176.0 L 121.3 176.0 L 121.3 124.0 Z M 131.3 124.0 L 131.3 176.0 L 141.6 176.0 L 141.6 124.0 Z M 151.6 124.0 L 151.6 176.0 L 161.4 176.0 L 161.4 124.0 Z M 172.4 127.5 L 172.4 176.0 L 178.0 176.0 L 182.5 170.0 L 188.5 176.0 L 188.5 180.0 L 84.4 180.0 L 84.4 176.0 L 100.5 176.0 L 100.5 117.28571424484252 L 99.9 117.9 L 95.5 122.2 L 90.8 126.4 L 85.7 130.6 L 84.4 129.3 L 87.9 123.9 L 91.4 118.7 L 94.9 113.7 L 98.1 108.9 L 101.2 104.1 L 104.1 99.5 L 106.7 95.0 L 109.2 90.5 L 111.5 86.2 L 113.14966144561768 82.82212190628051 L 113.1 82.8 L 114.1 81.0 L 124.1 87.7 L 125.8 90.9 L 121.93087463378906 91.03115682601928 L 121.3 92.0 L 118.3 96.3 L 115.1 100.6 L 111.6 104.9 L 108.0 109.2 L 104.1 113.6 L 102.328125 115.4140625 L 111.5 120.0 L 161.4 120.0 L 166.3196551322937 115.52758617401123 L 165.0 114.3 L 161.1 110.0 L 157.9 105.6 L 155.2 100.9 L 153.2 96.1 L 151.9 91.2 L 151.3 86.1 L 151.5460000038147 82.0 L 122.5 82.0 L 122.5 78.0 L 147.58000001907348 78.0 L 152.5 73.9 L 163.5 82.9 L 158.5 85.9 L 156.25643568038942 87.02178220748901 L 157.4 89.2 L 159.7 93.0 L 162.3 96.5 L 165.2 99.8 L 168.5 103.0 L 172.3 106.0 L 176.4 108.9 L 181.0 111.6 L 186.0 114.2 L 190.8 116.8 L 179.6 125.7 L 177.2292682647705 124.11951217651367 Z M 152.3 80.97647056579589 L 152.5 80.94117650985717 L 152.5 80.9 L 152.3 80.83333330154419 Z M 125.3 36.8 L 126.9 40.1 L 122.975 40.1 L 122.2 41.2 L 119.0 45.5 L 115.7 49.6 L 112.1 53.5 L 108.4 57.2 L 104.5 60.8 L 100.4 64.2 L 96.1 67.3 L 91.6 70.2 L 86.8 72.7 L 85.7 71.2 L 89.2 67.2 L 92.6 63.3 L 99.0 55.5 L 102.0 51.6 L 104.9 47.6 L 107.6 43.5 L 110.2 39.4 L 112.6 35.1 L 114.41488056182861 31.706962490081786 L 114.4 31.7 L 115.4 29.9 Z M 168.6 62.1 L 164.4 58.3 L 160.8 54.3 L 157.6 50.0 L 155.1 45.6 L 153.2 40.9 L 151.9 36.0 L 151.4 31.1 L 151.56400003433228 27.0 L 120.6 27.0 L 120.6 23.0 L 147.58000001907348 23.0 L 152.5 18.9 L 163.5 27.9 L 158.5 30.9 L 156.17722768783568 32.06138610839844 L 157.3 34.2 L 159.5 37.8 L 162.0 41.2 L 164.9 44.4 L 168.0 47.3 L 171.5 50.0 L 175.4 52.5 L 179.7 54.9 L 184.5 57.0 L 189.9 59.7 L 178.6 68.9 L 173.4 65.6 Z M 159.9 59.0 L 159.9 63.0 L 114.2 63.0 L 114.2 59.0 L 141.71818180084227 59.0 L 149.9 50.0 Z M 152.3 25.9764705657959 L 152.5 25.94117650985718 L 152.5 25.9 L 152.3 25.83333330154419 Z " />
</g>
</svg>
