<svg xmlns="http://www.w3.org/2000/svg" xmlns:xlink="http://www.w3.org/1999/xlink" version="1.1" baseProfile="full" viewBox="0 0 200 200" width="200" height="200">
<g fill="black">
<path d="M 133.6 107.9 L 134.8 105.3 L 136.1 102.8 L 137.3 100.3 L 138.5 97.9 L 140.7 93.3 L 141.7 91.1 L 142.6 88.9 L 143.04657144546508 87.67192859649658 L 142.9 87.6 L 143.9 85.8 L 153.7 92.9 L 155.2 96.2 L 150.67368421554565 96.2 L 148.4 98.6 L 146.5 100.5 L 144.5 102.4 L 142.4 104.3 L 140.2 106.1 L 137.9 107.9 L 136.28235292434692 109.0 L 159.0 109.0 L 169.0 99.0 L 181.0 109.0 L 181.0 113.0 L 140.8 113.0 L 140.8 131.0 L 159.51818180084229 131.0 L 167.7 122.0 L 177.7 131.0 L 177.7 135.0 L 140.8 135.0 L 140.8 153.0 L 159.51818180084229 153.0 L 167.7 144.0 L 177.7 153.0 L 177.7 157.0 L 140.8 157.0 L 140.8 176.0 L 165.6 176.0 L 175.6 166.0 L 187.6 176.0 L 187.6 180.0 L 103.4 180.0 L 103.4 183.0 L 91.4 189.0 L 91.4 123.3 L 88.1 127.7 L 83.4 133.5 L 78.3 139.2 L 72.9 144.5 L 67.2 149.6 L 65.9 148.3 L 70.0 142.1 L 74.1 135.8 L 78.1 129.7 L 81.8 123.4 L 85.4 117.2 L 88.8 110.8 L 92.0 104.4 L 94.9 97.9 L 97.7 91.3 L 99.85746660232545 85.5179895401001 L 99.8 85.5 L 100.15833330154419 84.71166667938232 L 100.2 84.6 L 100.20767631530762 84.6031120300293 L 100.8 83.3 L 111.3 89.1 L 113.3 92.1 L 109.64074077606202 92.6777777671814 L 108.1 96.0 L 104.6 102.6 L 100.91515150070191 109.0 L 132.82083330154418 109.0 Z M 103.4 157.0 L 103.4 176.0 L 128.8 176.0 L 128.8 157.0 Z M 13.0 151.0 L 17.7 149.5 L 22.6 147.8 L 27.9 145.9 L 33.4 143.8 L 36.7 142.51355934143066 L 36.7 72.0 L 14.2 72.0 L 14.2 68.0 L 36.7 68.0 L 36.7 17.0 L 48.7 19.0 L 51.7 21.0 L 48.7 22.8 L 48.7 68.0 L 50.9 68.0 L 60.9 58.0 L 72.9 68.0 L 72.9 72.0 L 48.7 72.0 L 48.7 137.7800000190735 L 51.9 136.5 L 58.6 133.7 L 65.8 131.0 L 73.2 128.2 L 74.1 129.7 L 67.5 134.3 L 61.1 138.5 L 54.8 142.4 L 48.7 145.9 L 42.9 149.2 L 37.3 152.2 L 31.9 155.1 L 26.8 157.7 L 21.9 160.0 L 21.09693670272827 160.37590198516847 L 20.2 164.3 L 17.2 162.2 L 11.1 151.7 Z M 103.4 135.0 L 103.4 153.0 L 128.8 153.0 L 128.8 135.0 Z M 103.4 113.0 L 103.4 131.0 L 128.8 131.0 L 128.8 113.0 Z M 131.5 27.0 L 126.5 31.0 L 126.5 89.0 L 114.5 95.0 L 114.5 58.40689659118652 L 112.42052984237671 58.299337768554686 L 111.7 59.2 L 108.2 63.1 L 104.5 66.8 L 100.6 70.4 L 96.5 73.8 L 92.2 77.0 L 87.7 80.1 L 82.9 82.9 L 77.8 85.5 L 72.5 87.7 L 71.6 86.2 L 75.7 82.3 L 79.7 78.6 L 83.6 74.9 L 87.3 71.2 L 90.7 67.5 L 94.0 63.8 L 97.1 60.0 L 99.9 56.2 L 102.6 52.3 L 104.50567684173583 49.2032751083374 L 104.5 49.2 L 104.6 49.05 L 105.0 48.4 L 105.02286376953126 48.415704345703126 L 105.5 47.7 L 114.5 54.880851078033444 L 114.5 27.0 L 101.82784814834595 27.0 L 109.2 33.4 L 110.4 36.8 L 106.47384614944458 36.32615385055542 L 103.6 39.2 L 100.5 42.1 L 97.3 44.9 L 94.0 47.6 L 90.5 50.2 L 86.8 52.7 L 83.0 55.2 L 78.9 57.4 L 74.8 59.7 L 73.7 58.2 L 76.9 54.9 L 79.9 51.4 L 82.8 48.1 L 85.6 44.9 L 88.3 41.7 L 90.9 38.6 L 93.3 35.4 L 95.6 32.3 L 97.7 29.2 L 99.11935482025146 27.0 L 75.4 27.0 L 75.4 23.0 L 114.5 23.0 L 120.5 18.0 Z M 187.6 27.0 L 182.6 31.0 L 182.6 87.0 L 170.6 93.0 L 170.6 58.4758620262146 L 169.29688968658448 58.363525009155275 L 169.0 58.7 L 165.7 62.1 L 162.3 65.3 L 158.6 68.5 L 154.7 71.5 L 150.7 74.5 L 146.4 77.3 L 141.8 80.0 L 137.0 82.4 L 131.9 84.7 L 131.0 83.2 L 134.9 79.4 L 138.7 75.8 L 142.4 72.2 L 145.8 68.7 L 149.1 65.3 L 152.2 61.9 L 155.0 58.4 L 157.7 55.0 L 160.1 51.6 L 161.75900163650513 49.036088371276854 L 161.7 49.0 L 162.1666666984558 48.40606060028076 L 162.3 48.2 L 162.31813936233522 48.21327724456787 L 162.8 47.6 L 170.6 54.128260898590085 L 170.6 27.0 L 157.9131579399109 27.0 L 165.5 33.2 L 166.7 36.6 L 162.76260166168214 36.32845525741577 L 162.7 36.4 L 159.8 39.5 L 156.7 42.6 L 153.5 45.6 L 150.2 48.5 L 146.7 51.3 L 143.0 54.1 L 139.2 56.8 L 135.1 59.2 L 130.9 61.7 L 129.8 60.2 L 132.9 56.7 L 135.9 53.1 L 138.8 49.6 L 141.6 46.2 L 144.3 42.8 L 146.9 39.5 L 149.3 36.1 L 151.6 32.8 L 153.7 29.6 L 155.18495273590088 27.149828052520753 L 155.1 27.1 L 155.17333335876464 27.0 L 134.8 27.0 L 134.8 23.0 L 170.6 23.0 L 176.6 18.0 Z " />
</g>
</svg>
