<svg xmlns="http://www.w3.org/2000/svg" xmlns:xlink="http://www.w3.org/1999/xlink" version="1.1" baseProfile="full" viewBox="0 0 200 200" width="200" height="200">
<g fill="black">
<path d="M 140.7 175.0 L 156.7 175.0 L 157.9 174.9 L 158.8 174.8 L 159.4 174.6 L 159.7 174.4 L 159.9 174.3 L 160.1 174.1 L 160.3 173.7 L 160.4 173.1 L 160.6 172.2 L 160.7 171.0 L 160.7 157.4 L 96.2 157.4 L 96.2 181.1 L 84.2 187.1 L 84.2 107.1 L 96.2 113.1 L 160.7 113.1 L 166.7 108.1 L 177.7 117.1 L 172.7 121.1 L 172.7 171.0 L 172.5 173.6 L 172.1 176.1 L 171.3 178.5 L 170.1 180.7 L 168.4 182.7 L 166.4 184.4 L 164.1 185.6 L 161.7 186.4 L 159.2 186.9 L 156.7 187.0 L 156.7 181.0 L 140.7 178.0 Z M 13.1 151.0 L 17.9 149.5 L 22.9 147.8 L 28.2 145.9 L 33.9 143.8 L 37.2 142.51355934143066 L 37.2 72.0 L 14.3 72.0 L 14.3 68.0 L 37.2 68.0 L 37.2 17.0 L 49.2 19.0 L 52.2 21.0 L 49.2 22.8 L 49.2 68.0 L 51.7 68.0 L 61.7 58.0 L 73.7 68.0 L 73.7 72.0 L 49.2 72.0 L 49.2 137.81999998092653 L 52.5 136.5 L 59.4 133.7 L 66.6 131.0 L 74.1 128.2 L 75.0 129.7 L 68.3 134.3 L 61.8 138.5 L 55.4 142.4 L 49.3 145.9 L 43.4 149.2 L 37.7 152.3 L 32.3 155.1 L 27.1 157.7 L 22.1 160.1 L 21.1644549369812 160.51800947189332 L 20.3 164.3 L 17.4 162.2 L 11.3 151.7 Z M 96.2 137.3 L 96.2 153.4 L 160.7 153.4 L 160.7 137.3 Z M 96.2 117.1 L 96.2 133.3 L 160.7 133.3 L 160.7 117.1 Z M 94.7 48.6 L 162.2 48.6 L 167.7 43.6 L 178.2 52.6 L 173.2 56.1 L 173.2 99.8 L 162.2 105.3 L 162.2 99.8 L 94.7 99.8 L 83.7 105.3 L 83.7 43.1 Z M 94.7 52.6 L 94.7 95.8 L 162.2 95.8 L 162.2 52.6 Z M 117.7 63.3 L 139.2 63.3 L 144.7 58.3 L 155.2 67.3 L 150.2 70.8 L 150.2 83.6 L 139.2 89.1 L 139.2 83.6 L 117.7 83.6 L 106.7 89.1 L 106.7 57.8 Z M 117.7 67.3 L 117.7 79.6 L 139.2 79.6 L 139.2 67.3 Z M 68.5 32.9 L 122.5 32.9 L 122.5 12.1 L 134.5 14.1 L 137.5 16.1 L 134.5 17.9 L 134.5 32.9 L 170.21818180084227 32.9 L 178.4 23.9 L 188.4 32.9 L 188.4 36.9 L 68.5 36.9 Z " />
</g>
</svg>
