<svg xmlns="http://www.w3.org/2000/svg" xmlns:xlink="http://www.w3.org/1999/xlink" version="1.1" baseProfile="full" viewBox="0 0 200 200" width="200" height="200">
<g fill="black">
<path d="M 106.0 89.0 L 109.0 91.0 L 106.0 92.8 L 106.0 117.0 L 139.0 117.0 L 149.0 107.0 L 161.0 117.0 L 161.0 121.0 L 106.0 121.0 L 106.0 146.0 L 160.0 146.0 L 170.0 136.0 L 182.0 146.0 L 182.0 150.0 L 106.0 150.0 L 106.0 182.0 L 94.0 188.0 L 94.0 150.0 L 19.0 150.0 L 19.0 146.0 L 94.0 146.0 L 94.0 121.0 L 38.0 121.0 L 38.0 117.0 L 94.0 117.0 L 94.0 87.0 Z M 151.7 94.9 L 139.7 90.3 L 128.2 84.9 L 117.1 78.8 L 106.5 72.0 L 104.55910005569459 70.57286767959594 L 99.5 74.0 L 86.5 81.5 L 73.0 88.1 L 58.9 93.8 L 44.2 98.5 L 28.9 102.3 L 13.1 105.0 L 12.8 103.2 L 28.0 98.6 L 42.5 93.4 L 56.4 87.7 L 69.7 81.2 L 82.4 74.1 L 94.4 66.3 L 96.54613790512084 64.68098373413086 L 96.3 64.5 L 86.6 56.2 L 77.5 47.1 L 71.2947522163391 39.799708461761476 L 67.6 43.3 L 61.6 48.4 L 55.3 53.2 L 48.6 57.7 L 41.6 61.9 L 34.2 65.7 L 26.4 69.1 L 25.5 67.5 L 32.2 62.5 L 38.6 57.4 L 44.7 52.4 L 50.5 47.3 L 56.0 42.0 L 61.1 36.6 L 65.9 31.1 L 70.4 25.5 L 74.6 19.7 L 77.82227926254272 14.612190532684327 L 77.8 14.6 L 78.1807692527771 14.046153831481934 L 78.4 13.7 L 78.41283693313599 13.708600807189942 L 78.9 13.0 L 88.4 20.4 L 89.8 23.7 L 86.00601606369018 23.507085514068603 L 83.7 26.5 L 81.2 29.4 L 134.7111110687256 29.4 L 136.4 27.5 L 136.83380279541015 27.871830940246582 L 141.0 24.4 L 152.0 33.4 L 147.0 36.4 L 142.72253160476686 38.18227844238281 L 134.9 46.3 L 123.7 56.4 L 112.02747135162353 65.50061559677124 L 121.6 70.6 L 132.5 75.6 L 143.7 80.0 L 155.3 83.6 L 167.1 86.6 L 179.2 88.9 L 188.5 90.7 L 176.7 101.9 L 164.0 98.8 Z M 77.63928575515747 33.4 L 73.3 37.9 L 73.05531597137451 38.13180589675903 L 80.3 44.0 L 90.3 51.6 L 100.5 58.6 L 102.7778618812561 59.979858589172366 L 105.8 57.7 L 116.6 48.3 L 126.8 38.3 L 131.1555555343628 33.4 Z " />
</g>
</svg>
