<svg xmlns="http://www.w3.org/2000/svg" xmlns:xlink="http://www.w3.org/1999/xlink" version="1.1" baseProfile="full" viewBox="0 0 200 200" width="200" height="200">
<g fill="black">
<path d="M 106.0 102.3 L 109.0 104.3 L 106.0 106.1 L 106.0 182.2 L 94.0 188.2 L 94.0 100.3 Z M 159.4 125.9 L 150.9 122.2 L 142.7 118.0 L 134.9 113.3 L 127.3 108.3 L 120.1 102.8 L 113.3 96.8 L 106.9 90.4 L 102.59676542282105 85.22153129577637 L 99.4 88.8 L 92.2 95.9 L 84.5 102.5 L 76.2 108.7 L 67.4 114.4 L 58.0 119.7 L 48.2 124.5 L 37.7 128.8 L 26.8 132.6 L 15.2 135.7 L 14.7 134.0 L 25.4 129.0 L 35.5 123.9 L 45.2 118.7 L 54.2 113.1 L 62.7 107.3 L 70.6 101.3 L 77.9 94.9 L 84.7 88.2 L 90.9 81.2 L 96.6 73.9 L 96.60962028503418 73.90749368667602 L 97.0 73.4 L 106.1 81.3 L 107.2 84.7 L 105.86403198242188 84.53876247406006 L 109.6 87.2 L 116.9 92.2 L 124.3 96.9 L 131.8 101.2 L 139.4 105.2 L 147.2 108.8 L 155.3 112.0 L 163.5 114.9 L 171.9 117.3 L 180.6 119.4 L 189.0 121.6 L 177.3 132.2 L 168.2 129.3 Z M 161.3 92.7 L 153.9 87.7 L 146.8 82.4 L 140.0 76.8 L 133.5 71.0 L 127.4 64.9 L 121.6 58.4 L 116.2 51.6 L 111.9569444656372 45.1 L 90.55368423461914 45.1 L 88.4 48.2 L 80.8 57.3 L 72.2 65.9 L 62.5 74.2 L 51.9 82.0 L 40.1 89.4 L 27.3 96.3 L 13.4 102.7 L 12.6 101.1 L 25.4 93.0 L 37.2 84.9 L 47.9 76.7 L 57.6 68.4 L 66.2 59.9 L 73.8 51.2 L 78.25505619049072 45.1 L 17.0 45.1 L 17.0 41.1 L 81.01999998092651 41.1 L 85.7 33.3 L 90.1 24.1 L 93.4 14.7 L 93.9 13.2 L 104.8 18.5 L 107.0 21.3 L 103.23729009628296 22.158161926269532 L 100.4 28.8 L 95.0 38.7 L 93.33263158798218 41.1 L 159.9 41.1 L 169.9 31.1 L 181.9 41.1 L 181.9 45.1 L 114.92727270126343 45.1 L 119.3 48.8 L 125.7 54.2 L 132.2 59.5 L 138.9 64.6 L 145.7 69.5 L 152.7 74.1 L 159.9 78.4 L 167.3 82.5 L 174.9 86.4 L 182.7 90.1 L 188.3 92.8 L 177.0 101.9 L 169.0 97.5 Z " />
</g>
</svg>
