<svg xmlns="http://www.w3.org/2000/svg" xmlns:xlink="http://www.w3.org/1999/xlink" version="1.1" baseProfile="full" viewBox="0 0 200 200" width="200" height="200">
<g fill="black">
<path d="M 154.2 181.5 L 144.9 177.5 L 136.3 172.7 L 128.5 167.1 L 121.5 160.8 L 115.4 153.6 L 110.1 145.8 L 105.8 137.2 L 102.5 127.9 L 103.35 127.5 L 97.24809160232545 127.5 L 91.8 139.2 L 84.3 150.8 L 75.5 161.0 L 65.3 169.6 L 53.8 176.7 L 41.1 182.2 L 27.2 186.0 L 12.1 188.2 L 11.8 186.4 L 26.2 182.3 L 39.1 177.2 L 50.6 171.0 L 60.6 163.6 L 69.3 155.1 L 76.7 145.4 L 82.9 134.6 L 85.7516393661499 127.5 L 12.0 127.5 L 12.0 123.5 L 87.35819673538208 123.5 L 87.8 122.4 L 91.4 108.9 L 93.73082294464112 95.1015284538269 L 93.7 95.1 L 94.1 92.1 L 105.8 95.7 L 108.5 98.1 L 104.99175930023193 99.59425067901611 L 102.5 111.6 L 98.72482757568359 123.5 L 165.0 123.5 L 175.0 113.5 L 187.0 123.5 L 187.0 127.5 L 104.45679016113282 127.5 L 109.4 135.2 L 114.9 142.4 L 120.8 148.9 L 127.2 154.6 L 134.1 159.6 L 141.4 163.9 L 149.4 167.4 L 157.9 170.3 L 167.1 172.5 L 176.9 174.0 L 186.8 175.5 L 175.0 187.1 L 164.3 184.7 Z M 179.0 72.8 L 181.0 72.8 L 179.0 93.8 L 182.3 96.0 L 184.5 99.3 L 182.3 102.6 L 179.0 104.8 L 131.0 104.8 L 128.4 104.7 L 126.0 104.3 L 123.6 103.6 L 121.4 102.4 L 119.4 100.8 L 117.7 98.9 L 116.5 96.7 L 115.6 94.3 L 115.1 91.8 L 115.0 89.3 L 115.0 52.6 L 84.66744184494019 52.6 L 83.9 58.6 L 81.4 66.6 L 77.5 73.9 L 72.2 80.5 L 65.7 86.3 L 57.9 91.4 L 49.0 95.7 L 38.9 99.4 L 27.6 102.4 L 15.1 104.6 L 14.8 102.9 L 26.6 98.8 L 37.0 94.4 L 46.1 89.8 L 53.9 85.0 L 60.2 79.8 L 65.2 74.4 L 68.9 68.7 L 71.4 62.8 L 72.7 56.6 L 72.88181819915772 52.6 L 41.0 52.6 L 41.0 59.6 L 29.0 65.6 L 29.0 12.9 L 41.0 18.9 L 159.0 18.9 L 165.0 13.9 L 176.0 22.9 L 171.0 26.9 L 171.0 56.6 L 159.0 62.6 L 159.0 52.6 L 127.0 52.6 L 127.0 90.5 L 127.1 91.4 L 127.2 92.1 L 127.5 92.7 L 127.7 92.9 L 128.1 93.2 L 128.7 93.4 L 129.7 93.7 L 131.0 93.8 L 173.5 93.8 Z M 41.0 22.9 L 41.0 48.6 L 73.0 48.6 L 73.0 22.9 Z M 85.0 22.9 L 85.0 48.6 L 115.0 48.6 L 115.0 22.9 Z M 127.0 22.9 L 127.0 48.6 L 159.0 48.6 L 159.0 22.9 Z " />
</g>
</svg>
