<svg xmlns="http://www.w3.org/2000/svg" xmlns:xlink="http://www.w3.org/1999/xlink" version="1.1" baseProfile="full" viewBox="0 0 200 200" width="200" height="200">
<g fill="black">
<path d="M 184.0 176.0 L 184.0 180.0 L 16.0 180.0 L 16.0 176.0 L 162.0 176.0 L 172.0 166.0 Z M 16.1 102.9 L 15.6 98.3 L 18.4 94.7 L 20.4 93.9 L 22.2 92.7 L 24.0 91.1 L 25.7 89.1 L 27.3 86.6 L 28.7 83.6 L 30.0 80.1 L 31.1 76.1 L 32.1 71.6 L 32.6 66.7 L 34.4 66.6 L 35.0 71.7 L 35.3625 74.6 L 170.3 74.6 L 170.93243246078492 74.07297296524048 L 171.3 73.2 L 171.67694015502929 73.4525499343872 L 176.3 69.6 L 187.3 78.6 L 182.3 81.6 L 177.659375 83.53359375 L 175.8 85.3 L 173.6 87.2 L 171.3 89.3 L 168.9 91.4 L 166.2 93.5 L 163.4 95.7 L 160.3 98.0 L 160.20287771224974 98.08417263031006 L 161.2 98.9 L 156.2 102.9 L 156.2 162.1 L 144.2 168.1 L 144.2 160.1 L 54.7 160.1 L 54.7 163.1 L 42.7 169.1 L 42.7 88.9 L 54.7 94.9 L 144.2 94.9 L 150.2 89.9 L 158.14890508651735 96.40364961624145 L 158.3 96.2 L 160.3 92.9 L 162.1 89.9 L 163.9 87.0 L 165.5 84.3 L 167.0 81.8 L 168.3 79.4 L 168.73636360168456 78.6 L 35.6 78.6 L 35.6 81.0 L 35.3 85.3 L 34.6 89.3 L 33.5 93.1 L 31.9 96.6 L 29.8 99.8 L 27.3 102.7 L 24.2 105.2 L 19.7 105.7 Z M 54.7 98.9 L 54.7 156.1 L 144.2 156.1 L 144.2 98.9 Z M 117.7 142.9 L 112.8 139.0 L 107.5 135.2 L 106.79560813903808 134.73040542602538 L 101.0 138.7 L 93.1 143.2 L 84.7 147.1 L 75.6 150.3 L 66.0 152.9 L 55.8 154.8 L 55.4 153.1 L 64.8 149.3 L 73.7 145.3 L 81.8 141.1 L 89.3 136.6 L 96.2 131.7 L 98.75781192779542 129.5547384262085 L 95.7 127.7 L 89.3 124.1 L 82.5 120.4 L 75.4 116.7 L 67.9 112.9 L 68.5 111.2 L 76.7 113.2 L 84.6 115.5 L 92.1 118.1 L 99.2 121.0 L 105.20927839279175 123.69072160720825 L 107.9 121.0 L 112.9 115.1 L 117.2 108.8 L 120.40239572525024 103.00106716156006 L 120.4 103.0 L 121.4 101.2 L 131.4 107.9 L 133.1 111.1 L 129.209166431427 111.23189268112182 L 126.6 115.2 L 121.1 121.9 L 115.0 128.1 L 114.49402875900269 128.52290134429933 L 118.4 130.7 L 124.1 134.3 L 129.5 138.1 L 134.6 142.1 L 136.5 146.2 L 134.9 150.5 L 130.8 152.4 L 126.5 150.9 L 122.3 146.9 Z M 28.0 53.2 L 94.0 53.2 L 94.0 34.8 L 16.0 34.8 L 16.0 30.8 L 94.0 30.8 L 94.0 12.8 L 106.0 14.8 L 109.0 16.8 L 106.0 18.6 L 106.0 30.8 L 162.0 30.8 L 172.0 20.8 L 184.0 30.8 L 184.0 34.8 L 106.0 34.8 L 106.0 53.2 L 153.8181818008423 53.2 L 162.0 44.2 L 172.0 53.2 L 172.0 57.2 L 28.0 57.2 Z " />
</g>
</svg>
