<svg xmlns="http://www.w3.org/2000/svg" xmlns:xlink="http://www.w3.org/1999/xlink" version="1.1" baseProfile="full" viewBox="0 0 200 200" width="200" height="200">
<g fill="black">
<path d="M 143.0 103.0 L 146.0 105.0 L 143.0 106.8 L 143.0 182.0 L 131.0 188.0 L 131.0 101.0 Z M 76.9 123.3 L 75.5 132.9 L 72.9 141.9 L 69.3 150.2 L 64.6 157.8 L 58.9 164.7 L 52.3 170.9 L 44.6 176.3 L 36.1 181.0 L 26.6 184.8 L 16.2 187.8 L 15.7 186.1 L 25.1 181.3 L 33.5 176.3 L 40.8 170.9 L 47.2 165.3 L 52.5 159.2 L 56.8 152.7 L 60.2 145.9 L 62.7 138.6 L 64.3 130.8 L 65.0 122.6 L 65.0 101.0 L 77.0 103.0 L 80.0 105.0 L 77.0 106.8 L 77.0 123.0 L 76.80377359390259 123.29433965682983 Z M 158.8 111.9 L 150.6 106.5 L 143.1 100.9 L 136.3 95.0 L 130.3 88.9 L 125.0 82.6 L 120.6 76.0 L 117.1 69.3 L 114.6 62.2 L 115.05714282989501 62.0 L 92.48672561645508 62.0 L 87.9 69.1 L 79.7 79.7 L 70.7 89.6 L 60.9 98.7 L 50.2 107.0 L 38.8 114.5 L 26.5 121.1 L 13.3 126.8 L 12.6 125.1 L 24.6 117.8 L 35.8 110.0 L 46.2 101.8 L 55.8 93.1 L 64.5 83.8 L 72.4 74.0 L 79.5 63.6 L 80.41636362075806 62.0 L 14.0 62.0 L 14.0 58.0 L 82.70727272033692 58.0 L 85.8 52.6 L 91.3 41.0 L 95.64801626205444 29.71365976333618 L 95.6 29.7 L 96.26521739959716 28.0 L 29.0 28.0 L 29.0 24.0 L 145.0 24.0 L 155.0 14.0 L 167.0 24.0 L 167.0 28.0 L 97.64642858505249 28.0 L 107.2 33.0 L 109.4 35.9 L 105.60379257202149 36.61997041702271 L 101.6 45.7 L 95.2 57.8 L 95.07079648971558 58.0 L 165.0 58.0 L 175.0 48.0 L 187.0 58.0 L 187.0 62.0 L 116.59285717010498 62.0 L 120.6 67.1 L 125.3 72.5 L 130.4 77.8 L 136.1 82.9 L 142.3 87.8 L 149.1 92.6 L 156.5 97.2 L 164.6 101.6 L 173.3 105.9 L 182.7 109.9 L 188.6 112.6 L 177.2 122.0 L 167.7 117.0 Z " />
</g>
</svg>
