<svg xmlns="http://www.w3.org/2000/svg" xmlns:xlink="http://www.w3.org/1999/xlink" version="1.1" baseProfile="full" viewBox="0 0 200 200" width="200" height="200">
<g fill="black">
<path d="M 13.9 181.6 L 12.0 177.5 L 13.5 173.2 L 15.3 171.4 L 17.1 169.3 L 18.8 166.7 L 20.4 163.7 L 21.9 160.3 L 23.3 156.4 L 24.5 152.1 L 25.6 147.4 L 26.7 142.3 L 27.6 136.7 L 29.4 136.7 L 30.0 142.4 L 30.4 147.8 L 30.5 152.9 L 30.3 157.8 L 29.8 162.3 L 28.9 166.6 L 27.8 170.7 L 26.4 174.5 L 24.6 178.0 L 22.4 181.2 L 18.3 183.1 Z M 79.0 161.1 L 78.2 157.2 L 77.2 153.4 L 76.0 149.7 L 74.6 145.9 L 72.9 142.2 L 71.1 138.4 L 69.2 134.6 L 67.0 130.9 L 68.3 129.7 L 71.7 132.6 L 75.1 135.6 L 78.1 138.9 L 80.8 142.4 L 83.3 146.1 L 85.5 150.0 L 87.5 154.0 L 89.2 158.2 L 90.7 162.5 L 91.9 166.9 L 90.97111110687256 170.7 L 158.2 170.7 L 168.2 160.7 L 180.2 170.7 L 180.2 174.7 L 90.7 174.7 L 90.7 171.4615385055542 L 86.9 173.8 L 82.5 172.7 L 80.0 168.9 L 79.6 164.9 Z M 54.8 179.6 L 50.7 177.6 L 49.1 173.3 L 49.5 169.3 L 49.7 165.3 L 49.7 161.3 L 49.6 157.3 L 49.3 153.3 L 48.7 149.3 L 48.1 145.2 L 47.2 141.1 L 46.3 136.9 L 45.1 132.8 L 46.7 131.9 L 49.3 135.6 L 51.7 139.4 L 53.8 143.3 L 55.6 147.4 L 57.2 151.5 L 58.5 155.8 L 59.5 160.2 L 60.3 164.7 L 60.8 169.2 L 61.1 173.8 L 59.1 177.9 Z M 50.1 81.2 L 49.0 78.3 L 47.6 75.4 L 46.0 72.4 L 44.2 69.3 L 42.1 66.2 L 39.9 63.0 L 37.5 59.7 L 36.556387710571286 58.65528631210327 L 35.4 60.5 L 30.8 66.9 L 25.9 73.0 L 20.5 78.6 L 14.6 83.9 L 13.3 82.7 L 17.5 76.2 L 21.5 69.8 L 25.3 63.3 L 28.9 56.7 L 32.1 49.9 L 35.1 43.0 L 37.7 35.9 L 40.1 28.7 L 42.1 21.3 L 43.66085662841797 14.709716606140137 L 43.6 14.7 L 44.3 12.0 L 55.5 16.6 L 58.0 19.3 L 54.34243030548096 20.41033363342285 L 53.1 24.5 L 50.2 32.2 L 50.114666652679446 32.4 L 78.5 32.4 L 84.5 27.4 L 95.5 36.4 L 90.5 39.4 L 89.22009515762329 39.93329372406006 L 86.5 51.1 L 81.7 65.5 L 76.2 78.8 L 69.8 91.0 L 62.6 101.9 L 54.5 111.6 L 45.6 120.1 L 35.9 127.3 L 25.5 133.1 L 14.3 137.4 L 13.6 135.8 L 23.6 129.8 L 32.8 123.0 L 41.2 115.3 L 48.8 106.7 L 55.6 97.1 L 59.40179882049561 90.49359560012817 L 54.9 90.2 L 51.8 86.8 L 51.1 84.1 Z M 170.8 110.3 L 170.8 114.3 L 100.1 114.3 L 100.1 110.3 L 148.8 110.3 L 158.8 100.3 Z M 166.9 76.8 L 162.3 72.3 L 157.8 67.3 L 153.4 62.0 L 149.2 56.2 L 145.0 50.0 L 141.1 43.4 L 137.4 36.2 L 136.70481147766114 34.59895973205566 L 134.0 39.4 L 129.6 46.2 L 124.8 52.9 L 119.7 59.3 L 114.1 65.5 L 108.2 71.5 L 101.9 77.2 L 95.2 82.6 L 88.0 87.6 L 86.8 86.2 L 92.6 79.8 L 98.1 73.4 L 103.4 67.1 L 108.3 60.7 L 112.9 54.2 L 117.1 47.6 L 121.0 40.9 L 124.6 34.2 L 127.8 27.3 L 130.32377347946166 21.208133029937745 L 130.3 21.2 L 131.2 19.1 L 141.7 25.1 L 143.7 28.1 L 139.88814430236818 28.625773239135743 L 138.55737762451173 31.2153733253479 L 140.9 34.0 L 146.0 40.0 L 150.8 45.7 L 155.6 50.9 L 160.4 55.8 L 165.1 60.2 L 169.8 64.2 L 174.4 67.7 L 179.0 70.8 L 183.6 73.5 L 187.7 76.0 L 176.6 84.7 L 171.7 81.0 Z M 48.407999992370605 36.4 L 47.0 39.7 L 43.5 46.9 L 39.6 53.8 L 37.886678504943845 56.53315572738647 L 43.0 59.8 L 46.3 62.3 L 49.4 64.9 L 52.3 67.6 L 54.9 70.4 L 57.3 73.3 L 59.4 76.4 L 61.4 79.5 L 63.1 82.8 L 63.052359867095944 83.51460180282592 L 67.0 74.8 L 71.6 62.0 L 75.5 48.2 L 77.93866662979126 36.4 Z " />
</g>
</svg>
