<svg xmlns="http://www.w3.org/2000/svg" xmlns:xlink="http://www.w3.org/1999/xlink" version="1.1" baseProfile="full" viewBox="0 0 200 200" width="200" height="200">
<g fill="black">
<path d="M 105.0 176.0 L 125.0 176.0 L 126.2 175.9 L 127.1 175.8 L 127.7 175.6 L 128.0 175.4 L 128.2 175.3 L 128.4 175.1 L 128.5 174.7 L 128.7 174.1 L 128.9 173.2 L 129.0 172.0 L 129.0 138.4 L 85.0 138.4 L 85.0 134.4 L 129.0 134.4 L 129.0 111.4 L 140.09785718917846 113.2496428489685 L 141.1 112.4 L 145.3 108.6 L 149.2 105.1 L 152.8 101.9 L 156.0 98.9 L 158.9 96.1 L 161.4 93.6 L 161.6625 93.3 L 93.0 93.3 L 93.0 89.3 L 165.0 89.3 L 165.11707315444946 89.20243902206421 L 165.2 89.1 L 166.5 87.3 L 166.93018255233764 87.69151449203491 L 167.90109891891478 86.88241758346558 L 161.7 83.5 L 154.3 78.9 L 147.2 74.2 L 140.5 69.2 L 134.0 63.9 L 127.9 58.3 L 122.1 52.5 L 116.8 46.4 L 112.50909090042114 40.5 L 91.20705881118775 40.5 L 88.8 43.6 L 81.3 51.7 L 72.7 59.4 L 63.1 66.7 L 52.5 73.6 L 40.8 80.1 L 28.1 86.2 L 14.3 91.8 L 13.6 90.1 L 26.4 82.8 L 38.1 75.5 L 48.8 68.1 L 58.5 60.6 L 67.0 53.0 L 74.5 45.2 L 78.36708860397339 40.5 L 18.0 40.5 L 18.0 36.5 L 81.53000001907348 36.5 L 86.3 29.3 L 90.7 21.1 L 93.63788375854492 13.710777282714844 L 93.6 13.7 L 94.5 11.4 L 105.2 17.0 L 107.3 19.9 L 103.45848741531373 20.64134454727173 L 100.8 26.2 L 95.4 35.1 L 94.31294116973876 36.5 L 160.0 36.5 L 170.0 26.5 L 182.0 36.5 L 182.0 40.5 L 115.83333330154419 40.5 L 119.7 43.4 L 126.0 48.1 L 132.5 52.8 L 139.0 57.2 L 145.8 61.5 L 152.7 65.5 L 159.9 69.4 L 167.2 73.0 L 174.8 76.4 L 182.6 79.7 L 188.7 82.3 L 178.66689319610595 90.57291259765626 L 182.0 93.3 L 177.0 96.3 L 170.98834953308105 98.80485439300537 L 170.6 99.1 L 167.7 101.1 L 164.5 103.2 L 160.9 105.4 L 157.0 107.7 L 152.7 110.1 L 148.0 112.6 L 143.27457628250122 114.91638422012329 L 144.0 115.4 L 141.0 117.2 L 141.0 134.4 L 167.0 134.4 L 177.0 124.4 L 189.0 134.4 L 189.0 138.4 L 141.0 138.4 L 141.0 172.0 L 140.8 174.6 L 140.4 177.1 L 139.6 179.5 L 138.3 181.7 L 136.7 183.7 L 134.7 185.4 L 132.4 186.6 L 130.0 187.4 L 127.5 187.9 L 125.0 188.0 L 125.0 182.0 L 105.0 179.0 Z M 73.1 166.7 L 68.8 163.9 L 64.0 161.2 L 61.32551517486572 159.8113251686096 L 61.0 160.2 L 53.2 167.3 L 44.6 173.4 L 35.1 178.6 L 24.7 182.7 L 13.5 185.7 L 13.0 184.0 L 23.3 179.2 L 32.6 173.8 L 40.9 168.0 L 48.2 161.6 L 53.28521738052368 156.03804349899292 L 53.2 156.0 L 47.3 153.5 L 40.9 151.0 L 34.1 148.4 L 29.845026969909668 146.84184083938598 L 27.7 150.9 L 23.8 157.7 L 13.4 151.7 L 17.2 145.1 L 20.8 138.4 L 24.2 131.7 L 27.5 124.9 L 30.6 118.1 L 33.07826089859009 112.4 L 11.1 112.4 L 11.1 108.4 L 34.7529411315918 108.4 L 36.4 104.4 L 39.1 97.5 L 41.6 90.5 L 43.9 83.5 L 43.91811828613281 83.50588045120239 L 44.4 82.0 L 55.3 87.2 L 57.6 90.0 L 54.100632953643796 90.79810123443603 L 52.9 94.4 L 50.3 101.6 L 47.75 108.4 L 73.1 108.4 L 79.1 103.4 L 90.1 112.4 L 85.1 115.4 L 83.89413681030274 115.90244302749633 L 82.2 122.8 L 78.4 133.5 L 73.5 143.3 L 67.7 152.2 L 67.39749164581299 152.56120405197143 L 67.8 152.7 L 73.4 155.0 L 78.6 157.4 L 83.4 160.0 L 87.9 162.9 L 90.2 166.9 L 89.1 171.3 L 85.1 173.6 L 80.6 172.4 L 77.1 169.5 Z M 46.129577445983884 112.4 L 44.7 115.9 L 41.6 123.0 L 35.0 137.0 L 31.4 143.9 L 31.16390037536621 144.34667501449584 L 35.0 144.7 L 42.3 145.8 L 49.2 147.2 L 55.8 148.8 L 58.21436672210693 149.5398865699768 L 60.1 146.9 L 64.7 138.6 L 68.4 129.6 L 71.2 119.9 L 72.62857141494752 112.4 Z " />
</g>
</svg>
