<svg xmlns="http://www.w3.org/2000/svg" xmlns:xlink="http://www.w3.org/1999/xlink" version="1.1" baseProfile="full" viewBox="0 0 200 200" width="200" height="200">
<g fill="black">
<path d="M 109.2 154.9 L 115.2 158.8 L 121.5 162.3 L 128.2 165.4 L 135.4 168.1 L 143.0 170.4 L 151.1 172.3 L 159.7 173.8 L 168.8 174.9 L 178.5 175.6 L 189.3 176.5 L 177.4 188.8 L 167.2 187.3 L 157.5 185.4 L 148.4 183.0 L 139.8 180.1 L 131.9 176.7 L 124.5 172.8 L 117.7 168.4 L 111.7 163.5 L 106.4 158.0 L 102.43999996185303 152.6 L 97.29574470520019 152.6 L 96.3 154.4 L 89.4 162.6 L 80.7 169.6 L 70.4 175.5 L 58.5 180.3 L 45.0 184.0 L 29.8 186.6 L 13.1 188.1 L 12.8 186.3 L 29.1 182.9 L 43.6 178.8 L 56.2 174.2 L 66.9 168.8 L 75.7 162.8 L 82.7 156.2 L 85.3 152.6 L 18.0 152.6 L 18.0 148.6 L 88.08227844238282 148.6 L 91.5 141.1 L 93.5 132.6 L 93.94086017608643 124.4 L 34.0 124.4 L 34.0 120.4 L 94.0 120.4 L 94.0 99.0 L 106.0 101.0 L 109.0 103.0 L 106.0 104.8 L 106.0 120.4 L 147.0 120.4 L 153.0 115.4 L 164.0 124.4 L 159.0 128.4 L 159.0 148.6 L 162.0 148.6 L 172.0 138.6 L 184.0 148.6 L 184.0 152.6 L 105.89024391174317 152.6 Z M 105.87345132827758 124.4 L 104.7 134.6 L 101.5 145.0 L 99.50851068496704 148.6 L 147.0 148.6 L 147.0 124.4 Z M 63.5 15.1 L 66.5 17.1 L 63.5 18.9 L 63.5 31.7 L 74.3 31.7 L 84.3 21.7 L 96.3 31.7 L 96.3 35.7 L 63.5 35.7 L 63.5 55.7 L 76.01818180084229 55.7 L 84.2 46.7 L 94.2 55.7 L 94.2 59.7 L 63.5 59.7 L 63.5 80.8 L 79.6 80.8 L 89.6 70.8 L 101.6 80.8 L 101.6 84.8 L 63.5 84.8 L 63.5 104.3 L 51.5 110.3 L 51.5 84.8 L 14.4 84.8 L 14.4 80.8 L 51.5 80.8 L 51.5 59.7 L 21.2 59.7 L 21.2 55.7 L 51.5 55.7 L 51.5 35.7 L 19.1 35.7 L 19.1 31.7 L 51.5 31.7 L 51.5 13.1 Z M 172.4 101.0 L 170.9 103.1 L 169.3 104.9 L 167.3 106.5 L 165.2 107.8 L 163.0 108.8 L 160.6 109.4 L 158.1 109.8 L 155.6 110.0 L 155.6 104.0 L 135.6 101.0 L 135.6 98.0 L 155.6 98.0 L 156.9 97.9 L 158.0 97.7 L 158.9 97.4 L 159.7 97.1 L 160.4 96.7 L 161.0 96.2 L 161.6 95.6 L 162.1 94.8 L 162.6 93.8 L 163.1 92.5 L 164.3 88.8 L 165.4 84.8 L 166.3 80.4 L 167.1 75.8 L 167.8 70.9 L 168.3 65.7 L 168.7 60.2 L 168.9 54.4 L 169.0 48.4 L 169.0 44.0 L 122.78596487045289 44.0 L 120.9 48.3 L 118.1 53.7 L 115.1 58.8 L 111.9 63.7 L 108.3 68.3 L 104.3 72.5 L 102.9 71.4 L 105.0 66.3 L 107.2 61.1 L 109.2 55.9 L 111.2 50.6 L 113.0 45.1 L 114.6 39.6 L 116.1 33.9 L 117.4 28.0 L 118.6 22.0 L 119.4380449295044 16.804121494293213 L 119.4 16.8 L 119.9 13.9 L 131.4 18.1 L 133.9 20.6 L 130.39069318771362 21.899743270874023 L 129.7 24.5 L 127.8 30.8 L 125.7 36.8 L 124.4310344696045 40.0 L 169.0 40.0 L 175.0 35.0 L 186.0 44.0 L 181.0 47.0 L 181.0 48.5 L 180.9 54.8 L 180.7 60.9 L 180.2 66.7 L 179.7 72.3 L 179.0 77.6 L 178.1 82.7 L 177.0 87.5 L 175.8 92.1 L 174.5 96.4 L 173.5 98.8 Z " />
</g>
</svg>
