<svg xmlns="http://www.w3.org/2000/svg" xmlns:xlink="http://www.w3.org/1999/xlink" version="1.1" baseProfile="full" viewBox="0 0 200 200" width="200" height="200">
<g fill="black">
<path d="M 166.5 171.3 L 161.6 164.6 L 156.2 158.2 L 150.3 152.1 L 147.25438594818115 149.19941520690918 L 145.5 152.1 L 136.6 162.8 L 126.5 171.8 L 115.2 179.0 L 102.7 184.3 L 89.2 187.8 L 88.7 186.1 L 101.2 180.8 L 112.4 174.4 L 122.3 166.7 L 131.0 157.7 L 138.4 147.3 L 140.58674983978273 143.23889322280883 L 137.2 140.4 L 129.9 134.9 L 122.2 129.5 L 119.60331630706787 127.82165565490723 L 117.3 138.3 L 104.3 141.6 L 118.71250972747802 76.0 L 99.9 76.0 L 99.9 72.0 L 119.59132137298585 72.0 L 132.4 13.7 L 143.7 18.2 L 146.2 20.8 L 142.92471313476562 21.726968002319335 L 131.87385511398315 72.0 L 167.9 72.0 L 177.9 62.0 L 189.9 72.0 L 189.9 76.0 L 170.1935483932495 76.0 L 168.0 93.0 L 164.3 110.1 L 159.3 125.7 L 153.0 139.7 L 151.4461562156677 142.2690217971802 L 156.0 145.7 L 162.8 151.7 L 169.2 158.0 L 175.1 164.8 L 180.5 171.9 L 185.5 179.4 L 186.0 183.9 L 183.2 187.6 L 178.7 188.1 L 175.1 185.3 L 171.0 178.2 Z M 84.0 178.5 L 82.5 180.5 L 80.8 182.3 L 78.9 183.9 L 76.8 185.2 L 74.5 186.1 L 72.1 186.8 L 69.6 187.2 L 67.1 187.3 L 67.1 181.3 L 49.1 178.3 L 49.1 175.3 L 67.1 175.3 L 68.4 175.2 L 69.6 175.1 L 70.5 174.8 L 71.3 174.5 L 72.0 174.0 L 72.6 173.5 L 73.2 172.9 L 73.8 172.1 L 74.4 171.1 L 74.9 169.9 L 76.2 165.3 L 77.5 158.9 L 78.6 150.6 L 79.6 140.7 L 80.5 129.1 L 81.2 115.8 L 81.8 100.8 L 82.2 84.2 L 82.4 66.0 L 82.48994970321655 48.1 L 32.94158420562744 48.1 L 32.9 48.3 L 30.7 58.1 L 28.1 67.6 L 25.3 76.9 L 22.3 85.9 L 18.9 94.7 L 15.1 103.1 L 11.0 111.1 L 9.3 110.4 L 11.6 101.7 L 13.8 93.0 L 16.0 84.1 L 18.0 75.0 L 19.9 65.7 L 21.6 56.2 L 23.1 46.5 L 24.4 36.6 L 25.5 26.4 L 26.321312713623048 17.000532817840575 L 26.3 17.0 L 26.6 13.9 L 38.3 17.3 L 41.1 19.6 L 37.7509822845459 21.17972536087036 L 36.8 27.9 L 35.0 38.2 L 33.773267364501955 44.1 L 82.5 44.1 L 88.5 39.1 L 99.5 48.1 L 94.5 51.1 L 94.4749478340149 51.110438442230226 L 94.4 66.1 L 94.2 84.5 L 93.8 101.2 L 93.2 116.3 L 92.5 129.9 L 91.6 141.8 L 90.5 152.1 L 89.3 160.8 L 87.9 168.1 L 86.2 174.0 L 85.2 176.3 Z M 130.99458780288697 76.0 L 120.27977933883668 124.74426145553589 L 124.0 126.2 L 132.7 130.4 L 140.9 135.1 L 143.90962800979614 137.0678337097168 L 144.7 135.6 L 149.9 122.3 L 153.9 107.6 L 156.8 91.3 L 158.2150288581848 76.0 Z M 73.6 106.7 L 73.6 110.7 L 24.6 110.7 L 24.6 106.7 L 55.418181800842284 106.7 L 63.6 97.7 Z " />
</g>
</svg>
