<svg xmlns="http://www.w3.org/2000/svg" xmlns:xlink="http://www.w3.org/1999/xlink" version="1.1" baseProfile="full" viewBox="0 0 200 200" width="200" height="200">
<g fill="black">
<path d="M 146.4 177.0 L 136.3 173.2 L 125.8 169.6 L 115.0 166.1 L 111.36296157836914 164.98595218658448 L 100.1 171.2 L 87.1 176.5 L 72.6 180.7 L 56.6 183.7 L 39.2 185.5 L 20.2 186.1 L 20.1 184.3 L 38.7 181.7 L 55.7 178.4 L 70.9 174.3 L 84.4 169.4 L 96.2 163.7 L 99.66068134307861 161.47282886505127 L 92.5 159.4 L 80.8 156.3 L 68.7 153.1 L 61.754989814758304 151.30773935317993 L 61.0 152.2 L 56.4 157.2 L 51.7 162.1 L 43.1 153.7 L 47.6 149.0 L 52.0 144.2 L 56.2 139.3 L 64.2 129.1 L 65.56226415634156 127.2 L 14.1 127.2 L 14.1 123.2 L 68.40363636016846 123.2 L 71.7 118.3 L 75.3 112.8 L 78.8 107.1 L 81.63561639785766 102.11618928909301 L 81.6 102.1 L 82.6 100.3 L 92.6 107.1 L 94.2 110.3 L 90.69457902908326 110.42087659835815 L 89.1 113.2 L 85.5 119.1 L 82.85932207107544 123.2 L 163.8 123.2 L 173.8 113.2 L 185.8 123.2 L 185.8 127.2 L 141.90892858505248 127.2 L 136.9 138.2 L 130.1 148.3 L 121.7 157.1 L 119.83725490570069 158.53431367874146 L 128.5 160.7 L 139.4 163.7 L 149.9 166.9 L 160.2 170.3 L 170.2 174.0 L 173.4 177.2 L 173.4 181.8 L 170.2 185.0 L 165.6 185.1 L 156.1 181.0 Z M 80.23333330154419 127.2 L 77.9 130.7 L 69.7 141.7 L 65.4 147.0 L 63.8464859008789 148.8359712600708 L 69.4 149.4 L 81.9 151.0 L 94.0 153.0 L 105.8 155.3 L 107.92943096160889 155.78143653869628 L 114.8 149.8 L 121.6 141.8 L 126.8 132.9 L 129.02077922821044 127.2 Z M 157.1 95.0 L 154.3 91.7 L 151.1 88.3 L 150.48078260421752 87.72966814041138 L 142.7 89.0 L 128.3 91.1 L 114.3 93.0 L 100.7 94.7 L 87.5 96.3 L 74.7 97.9 L 62.3 99.3 L 50.4 100.7 L 38.8 102.0 L 31.59324893951416 102.77215185165406 L 29.8 106.0 L 27.6 103.2 L 24.6 91.4 L 26.6 91.3 L 37.8 90.6 L 49.5 90.0 L 56.92657346725464 89.56678323745727 L 58.5 87.6 L 62.4 82.7 L 66.2 78.1 L 69.9 73.6 L 73.4 69.2 L 76.7 64.9 L 79.8 60.7 L 82.6 56.5 L 84.35500001907349 53.9 L 20.3 53.9 L 20.3 49.9 L 158.5 49.9 L 168.5 39.9 L 180.5 49.9 L 180.5 53.9 L 98.67058820724488 53.9 L 97.6 55.3 L 94.5 59.2 L 91.1 63.1 L 87.5 67.1 L 83.7 71.0 L 79.7 74.9 L 75.4 78.8 L 70.9 82.7 L 66.2 86.6 L 62.56093120574951 89.2401086807251 L 73.9 88.6 L 86.8 87.9 L 100.0 87.2 L 113.7 86.4 L 127.8 85.8 L 142.3 85.2 L 147.5813772201538 85.05916328430176 L 147.3 84.8 L 143.1 81.2 L 138.5 77.4 L 133.4 73.6 L 128.0 69.5 L 122.1 65.2 L 122.9 63.7 L 129.8 66.2 L 136.2 69.0 L 142.1 71.9 L 147.5 74.9 L 152.5 78.0 L 157.1 81.2 L 161.2 84.4 L 165.0 87.7 L 168.3 91.0 L 171.3 94.5 L 172.1 99.0 L 169.6 102.8 L 165.1 103.7 L 161.3 101.2 L 159.5 98.2 Z M 163.1 24.1 L 163.1 28.1 L 33.8 28.1 L 33.8 24.1 L 141.1 24.1 L 151.1 14.1 Z " />
</g>
</svg>
