<svg xmlns="http://www.w3.org/2000/svg" xmlns:xlink="http://www.w3.org/1999/xlink" version="1.1" baseProfile="full" viewBox="0 0 200 200" width="200" height="200">
<g fill="black">
<path d="M 155.4 178.2 L 146.4 172.3 L 138.0 165.3 L 130.2 157.4 L 123.0 148.7 L 116.4 138.9 L 110.3 128.3 L 105.0 116.8 L 104.01802577972413 114.05047206878662 L 102.8 120.1 L 98.0 133.8 L 91.5 146.1 L 83.2 156.9 L 73.2 166.4 L 61.5 174.3 L 48.3 180.7 L 33.5 185.5 L 17.1 188.8 L 16.8 187.1 L 32.3 181.9 L 46.1 175.8 L 58.0 168.7 L 68.2 160.6 L 76.7 151.5 L 83.5 141.3 L 88.7 130.0 L 92.4 117.5 L 94.5 103.9 L 95.0 89.0 L 95.0 55.0 L 22.0 55.0 L 22.0 51.0 L 95.0 51.0 L 95.0 14.0 L 107.0 16.0 L 110.0 18.0 L 107.0 19.8 L 107.0 51.0 L 157.0 51.0 L 167.0 41.0 L 179.0 51.0 L 179.0 55.0 L 107.0 55.0 L 107.0 89.0 L 105.8 105.2 L 105.12503395080566 108.55233135223389 L 108.8 114.9 L 115.4 125.3 L 122.3 134.8 L 123.3518518447876 136.059259223938 L 127.0 134.6 L 134.0 131.2 L 140.1 127.3 L 145.2 123.1 L 148.59678993225097 119.46622467041016 L 146.6 118.1 L 142.7 115.6 L 138.5 113.0 L 138.1857632637024 112.82461204528809 L 137.7 114.2 L 124.4 115.9 L 133.41921710968018 90.3 L 115.6 90.3 L 115.6 86.3 L 134.82846975326538 86.3 L 144.2 59.7 L 154.9 65.5 L 157.0 68.4 L 153.60422372817993 69.16885499954223 L 147.55379877090454 86.3 L 162.4 86.3 L 172.4 76.3 L 184.4 86.3 L 184.4 90.3 L 170.84588232040406 90.3 L 169.9 97.0 L 167.8 104.9 L 164.7 112.1 L 161.06008672714233 117.92386121749878 L 162.7 118.9 L 166.8 121.5 L 170.8 124.5 L 174.5 127.7 L 178.1 131.1 L 179.5 135.5 L 177.5 139.6 L 173.2 141.0 L 169.1 139.0 L 166.4 135.6 L 163.5 132.3 L 160.5 129.2 L 157.3 126.3 L 155.3117078781128 124.60410375595093 L 150.0 129.0 L 143.5 133.0 L 136.2 136.1 L 128.1 138.3 L 125.51766681671143 138.65213632583618 L 129.4 143.3 L 136.9 150.9 L 144.6 157.5 L 152.7 163.2 L 161.1 167.9 L 169.8 171.7 L 178.9 174.6 L 186.7 177.0 L 175.0 187.3 L 164.9 183.2 Z M 63.5 132.3 L 60.5 129.2 L 57.3 126.3 L 55.31170787811279 124.60410375595093 L 50.0 129.0 L 43.5 133.0 L 36.2 136.1 L 28.1 138.3 L 19.3 139.5 L 19.0 137.8 L 27.0 134.6 L 34.0 131.2 L 40.1 127.3 L 45.2 123.1 L 48.59678993225098 119.46622467041016 L 46.6 118.1 L 42.7 115.6 L 38.5 113.0 L 38.18576326370239 112.82461204528809 L 37.7 114.2 L 24.4 115.9 L 33.419217109680176 90.3 L 15.6 90.3 L 15.6 86.3 L 34.82846975326538 86.3 L 44.2 59.7 L 54.9 65.5 L 57.0 68.4 L 53.60422372817993 69.16885499954223 L 47.55379877090454 86.3 L 62.4 86.3 L 72.4 76.3 L 84.4 86.3 L 84.4 90.3 L 70.84588232040406 90.3 L 69.9 97.0 L 67.8 104.9 L 64.7 112.1 L 61.060086727142334 117.92386121749878 L 62.7 118.9 L 66.8 121.5 L 70.8 124.5 L 74.5 127.7 L 78.1 131.1 L 79.5 135.5 L 77.5 139.6 L 73.2 141.0 L 69.1 139.0 L 66.4 135.6 Z M 46.141067790985105 90.3 L 39.316636848449704 109.62266187667846 L 39.8 109.7 L 44.7 110.9 L 49.5 112.4 L 52.74577703475952 113.77043914794922 L 53.0 113.4 L 55.6 107.9 L 57.5 101.8 L 58.7 95.2 L 58.98405799865723 90.3 Z M 146.14106779098512 90.3 L 139.31663684844972 109.62266187667846 L 139.8 109.7 L 144.7 110.9 L 149.5 112.4 L 152.74577703475953 113.77043914794922 L 153.0 113.4 L 155.6 107.9 L 157.5 101.8 L 158.7 95.2 L 158.98405799865722 90.3 Z " />
</g>
</svg>
