<svg xmlns="http://www.w3.org/2000/svg" xmlns:xlink="http://www.w3.org/1999/xlink" version="1.1" baseProfile="full" viewBox="0 0 200 200" width="200" height="200">
<g fill="black">
<path d="M 65.0 147.6 L 61.8 143.4 L 58.2 139.5 L 56.970185375213624 138.33325271606446 L 56.0 140.5 L 49.1 152.7 L 41.3 163.7 L 32.8 173.5 L 23.3 181.8 L 13.1 188.7 L 12.1 187.2 L 20.8 179.0 L 28.8 169.9 L 36.0 159.9 L 42.5 148.9 L 48.3 136.9 L 50.071155643463136 132.25957221984862 L 50.0 132.2 L 45.4 128.8 L 40.4 125.5 L 35.4668155670166 122.52147350311279 L 33.5 133.1 L 20.6 136.8 L 34.291131019592285 63.0 L 17.7 63.0 L 17.7 59.0 L 35.033197689056394 59.0 L 43.4 13.9 L 54.9 18.0 L 57.5 20.5 L 54.252934265136716 21.48024625778198 L 47.27706346511841 59.0 L 66.1 59.0 L 72.1 54.0 L 83.1 63.0 L 78.1 66.0 L 77.37244091033935 66.30314960479737 L 75.3 79.7 L 71.7 96.6 L 67.3 112.4 L 62.0 127.1 L 60.722799110412595 129.95241537094117 L 64.4 132.6 L 69.0 136.5 L 73.3 140.7 L 77.2 145.3 L 80.8 150.3 L 81.4 154.8 L 78.7 158.5 L 74.2 159.1 L 70.5 156.5 L 67.9 151.9 Z M 106.1 92.7 L 161.8 92.7 L 167.8 87.7 L 178.8 96.7 L 173.8 100.7 L 173.8 180.1 L 161.8 186.1 L 161.8 178.1 L 106.1 178.1 L 106.1 181.1 L 94.1 187.1 L 94.1 86.7 Z M 106.1 149.8 L 106.1 174.1 L 161.8 174.1 L 161.8 149.8 Z M 106.1 123.2 L 106.1 145.8 L 161.8 145.8 L 161.8 123.2 Z M 46.53336229324341 63.0 L 36.17187156677246 118.72932615280152 L 36.5 118.8 L 42.7 120.7 L 48.6 123.1 L 52.795164585113525 125.12266864776612 L 53.3 123.8 L 57.6 109.6 L 61.2 94.3 L 64.1 77.9 L 65.79318180084229 63.0 Z M 106.1 96.7 L 106.1 119.2 L 161.8 119.2 L 161.8 96.7 Z M 99.2 75.9 L 96.8 75.6 L 94.5 74.9 L 92.3 73.8 L 90.3 72.3 L 88.7 70.5 L 87.4 68.3 L 86.5 66.0 L 85.9 63.5 L 85.7 61.0 L 85.7 30.0 L 97.7 36.0 L 129.3 36.0 L 129.3 13.0 L 141.3 15.0 L 144.3 17.0 L 141.3 18.8 L 141.3 36.0 L 166.1 36.0 L 176.1 26.0 L 188.1 36.0 L 188.1 40.0 L 97.7 40.0 L 97.7 63.1 L 97.8 63.8 L 98.0 64.2 L 98.1 64.6 L 98.3 64.9 L 98.7 65.2 L 99.4 65.5 L 100.4 65.8 L 101.7 66.0 L 180.2 66.0 L 183.2 68.0 L 185.2 71.0 L 183.2 74.0 L 180.2 76.0 L 101.7 76.0 Z " />
</g>
</svg>
