<svg xmlns="http://www.w3.org/2000/svg" xmlns:xlink="http://www.w3.org/1999/xlink" version="1.1" baseProfile="full" viewBox="0 0 200 200" width="200" height="200">
<g fill="black">
<path d="M 59.7 147.4 L 56.7 143.3 L 53.4 139.4 L 52.72185201644898 138.70301456451415 L 52.0 140.4 L 45.5 152.6 L 38.2 163.7 L 30.1 173.4 L 21.3 181.7 L 11.6 188.7 L 10.6 187.2 L 18.6 179.0 L 26.0 169.9 L 32.8 160.0 L 38.8 149.0 L 44.2 137.0 L 45.943581867218015 132.14022941589354 L 45.9 132.1 L 41.6 128.7 L 37.0 125.5 L 32.783266925811766 122.74621515274048 L 31.0 133.0 L 18.2 136.9 L 30.997317028045654 63.0 L 15.9 63.0 L 15.9 59.0 L 31.689999961853026 59.0 L 39.5 13.9 L 51.0 18.0 L 53.6 20.4 L 50.40070924758911 21.445921993255617 L 43.86956520080567 59.0 L 60.8 59.0 L 66.8 54.0 L 77.8 63.0 L 72.8 66.0 L 72.01733989715576 66.32610836029053 L 70.1 79.6 L 66.7 96.6 L 62.6 112.3 L 57.7 127.0 L 56.405428409576416 130.04337873458863 L 59.8 132.7 L 64.2 136.6 L 68.2 140.8 L 71.9 145.5 L 75.3 150.4 L 75.8 154.9 L 73.0 158.6 L 68.4 159.0 L 64.8 156.3 L 62.4 151.7 Z M 94.996875 38.6984375 L 98.2 37.8 L 114.2 33.4 L 122.0 31.1 L 129.6 28.7 L 137.2 26.2 L 144.6 23.5 L 151.8 20.8 L 159.0 17.8 L 165.0537459373474 15.205537414550781 L 165.0 15.1 L 165.09750814437865 15.186782264709473 L 166.0 14.8 L 166.7547568321228 16.661733627319336 L 175.0 24.0 L 175.2 27.2 L 171.3494990348816 25.54132261276245 L 170.5 25.9 L 163.0 28.5 L 155.4 30.9 L 147.6 33.1 L 139.8 35.1 L 131.8 36.9 L 123.7 38.5 L 115.5 39.8 L 107.2 40.8 L 98.8 41.5 L 95.6 41.611627864837644 L 95.6 65.0 L 134.14416961669923 65.0 L 136.4 38.4 L 148.2 41.5 L 151.1 43.7 L 147.92243614196778 44.79992599487305 L 146.22336444854736 65.0 L 166.6 65.0 L 176.6 55.0 L 188.6 65.0 L 188.6 69.0 L 145.8869158744812 69.0 L 143.7588785171509 94.3 L 163.1 94.3 L 169.1 89.3 L 180.1 98.3 L 175.1 102.3 L 175.1 177.5 L 163.1 183.5 L 163.1 173.5 L 117.8 173.5 L 117.8 180.5 L 106.8 186.0 L 106.8 88.8 L 117.8 94.3 L 131.65936393737792 94.3 L 133.8049469947815 69.0 L 95.6 69.0 L 95.6 100.0 L 95.1 112.7 L 94.3 124.5 L 93.2 135.4 L 91.6 145.5 L 89.7 154.7 L 87.4 163.0 L 84.7 170.4 L 81.6 176.8 L 78.0 182.2 L 74.0 186.5 L 72.7 185.4 L 75.0 180.4 L 77.1 174.8 L 79.0 168.4 L 80.7 161.2 L 82.1 153.2 L 83.2 144.3 L 84.0 134.5 L 84.5 123.9 L 84.7 112.4 L 84.6 100.0 L 84.6 33.5 Z M 117.8 147.4 L 117.8 169.5 L 163.1 169.5 L 163.1 147.4 Z M 117.8 122.8 L 117.8 143.4 L 163.1 143.4 L 163.1 122.8 Z M 43.17391300201416 63.0 L 33.47457160949707 118.77121315002441 L 33.6 118.8 L 39.5 120.7 L 45.0 123.1 L 48.509104347229005 124.98951768875122 L 48.9 123.9 L 52.9 109.7 L 56.2 94.4 L 58.9 77.9 L 60.50852270126343 63.0 Z M 117.8 98.3 L 117.8 118.8 L 163.1 118.8 L 163.1 98.3 Z " />
</g>
</svg>
