<svg xmlns="http://www.w3.org/2000/svg" xmlns:xlink="http://www.w3.org/1999/xlink" version="1.1" baseProfile="full" viewBox="0 0 200 200" width="200" height="200">
<g fill="black">
<path d="M 67.0 147.7 L 63.6 143.5 L 59.9 139.6 L 58.39522829055786 138.17046689987183 L 57.3 140.5 L 50.2 152.8 L 42.3 163.8 L 33.5 173.5 L 23.8 181.8 L 13.3 188.7 L 12.3 187.2 L 21.3 178.9 L 29.5 169.9 L 37.0 159.9 L 43.7 148.9 L 49.7 136.9 L 51.525724220275876 132.30057935714723 L 51.4 132.2 L 46.7 128.8 L 41.5 125.5 L 36.239436626434326 122.43930854797364 L 34.2 133.1 L 21.2 136.8 L 35.3 63.0 L 18.1 63.0 L 18.1 59.0 L 36.0642276763916 59.0 L 44.7 13.8 L 56.2 18.1 L 58.7 20.6 L 55.53919553756714 21.55420513153076 L 48.37565221786499 59.0 L 68.1 59.0 L 74.1 54.0 L 85.1 63.0 L 80.1 66.0 L 79.2655511856079 66.34768705368042 L 77.2 79.7 L 73.5 96.7 L 69.0 112.5 L 63.6 127.1 L 62.26598072052002 129.93743772506713 L 66.0 132.5 L 70.7 136.4 L 75.1 140.7 L 79.2 145.3 L 82.9 150.2 L 83.5 154.8 L 80.9 158.5 L 76.4 159.2 L 72.6 156.5 L 70.0 152.0 Z M 128.1 131.3 L 126.6 128.4 L 124.8 125.3 L 122.7 122.2 L 120.4 119.1 L 117.7 115.9 L 114.9 112.6 L 111.7 109.2 L 110.12203388214111 107.62203388214111 L 108.3 110.1 L 102.8 116.6 L 97.0 122.7 L 90.6 128.4 L 83.8 133.8 L 82.6 132.4 L 87.9 125.8 L 92.9 119.2 L 97.7 112.5 L 102.1 105.7 L 106.1 98.8 L 109.7 91.8 L 113.0 84.6 L 115.9 77.2 L 118.5 69.7 L 120.6 61.9 L 120.6641263961792 61.91895914077759 L 121.1 60.3 L 132.1 65.3 L 134.5 68.1 L 130.7436155319214 69.08852224349975 L 129.2 73.4 L 125.84303798675538 81.2 L 162.4 81.2 L 168.4 76.2 L 179.4 85.2 L 174.4 88.2 L 172.98831939697266 88.78820028305054 L 169.6 100.5 L 163.9 115.2 L 157.3 128.8 L 149.6 141.2 L 141.0 152.3 L 131.4 162.2 L 120.8 170.7 L 109.2 178.0 L 96.8 183.8 L 83.5 188.2 L 82.9 186.5 L 95.2 180.4 L 106.4 173.4 L 116.7 165.6 L 126.0 156.7 L 134.4 146.9 L 140.90236682891845 137.41005916595458 L 138.1 140.3 L 133.6 140.3 L 130.2 137.1 L 129.3 134.3 Z M 123.90131578445434 85.2 L 122.1 88.9 L 117.9 96.2 L 113.3 103.3 L 111.64315166473389 105.55331373214722 L 113.6 106.6 L 117.8 108.9 L 121.7 111.4 L 125.3 114.1 L 128.6 116.8 L 131.7 119.7 L 134.5 122.7 L 137.0 125.8 L 139.3 129.0 L 141.3 132.4 L 141.3 136.8297297477722 L 141.8 136.1 L 148.4 124.2 L 154.0 111.2 L 158.7 97.1 L 161.675 85.2 Z M 47.61043481826782 63.0 L 36.9535005569458 118.70670156478882 L 37.4 118.8 L 43.8 120.7 L 49.8 123.0 L 54.33355369567871 125.22700881958008 L 54.9 123.8 L 59.3 109.6 L 63.0 94.3 L 66.0 77.8 L 67.77600002288818 63.0 Z M 156.3 15.1 L 159.3 17.1 L 156.3 18.9 L 156.3 34.5 L 166.5 34.5 L 176.5 24.5 L 188.5 34.5 L 188.5 38.5 L 156.3 38.5 L 156.3 55.0 L 144.3 61.0 L 144.3 38.5 L 120.0 38.5 L 120.0 55.0 L 108.0 61.0 L 108.0 38.5 L 75.7 38.5 L 75.7 34.5 L 108.0 34.5 L 108.0 13.1 L 120.0 15.1 L 123.0 17.1 L 120.0 18.9 L 120.0 34.5 L 144.3 34.5 L 144.3 13.1 Z " />
</g>
</svg>
