<svg xmlns="http://www.w3.org/2000/svg" xmlns:xlink="http://www.w3.org/1999/xlink" version="1.1" baseProfile="full" viewBox="0 0 200 200" width="200" height="200">
<g fill="black">
<path d="M 67.1 147.7 L 63.7 143.5 L 59.9 139.6 L 58.3409761428833 138.15505104064943 L 57.2 140.6 L 49.9 152.8 L 41.9 163.8 L 32.9 173.5 L 23.1 181.8 L 12.5 188.7 L 11.5 187.2 L 20.6 178.9 L 29.0 169.8 L 36.6 159.8 L 43.5 148.9 L 49.5 136.8 L 51.34613609313965 132.2369089126587 L 51.3 132.2 L 46.4 128.8 L 41.1 125.5 L 35.69070291519165 122.40897302627563 L 33.6 133.2 L 20.6 136.7 L 34.93222131729126 63.0 L 17.3 63.0 L 17.3 59.0 L 35.71008949279785 59.0 L 44.5 13.8 L 55.9 18.1 L 58.5 20.6 L 55.22403068542481 21.588971900939942 L 47.97584705352783 59.0 L 68.3 59.0 L 74.3 54.0 L 85.3 63.0 L 80.3 66.0 L 79.43744449615478 66.35939807891846 L 77.3 79.7 L 73.6 96.7 L 69.0 112.5 L 63.5 127.1 L 62.17990245819092 129.92878046035767 L 66.0 132.5 L 70.8 136.4 L 75.2 140.7 L 79.3 145.3 L 83.1 150.2 L 83.8 154.7 L 81.2 158.5 L 76.7 159.2 L 72.9 156.6 L 70.2 152.0 Z M 136.0 175.4 L 156.0 175.4 L 157.2 175.3 L 158.1 175.2 L 158.7 175.0 L 159.0 174.8 L 159.2 174.7 L 159.4 174.5 L 159.5 174.1 L 159.7 173.6 L 159.9 172.6 L 160.0 171.4 L 160.0 131.9 L 110.89166669845581 131.9 L 110.3 139.0 L 108.8 147.0 L 106.5 154.3 L 103.4 161.1 L 99.5 167.2 L 94.9 172.7 L 89.5 177.4 L 83.4 181.4 L 76.7 184.5 L 69.3 186.9 L 68.6 185.2 L 74.9 181.2 L 80.4 177.0 L 85.1 172.5 L 89.1 167.7 L 92.4 162.6 L 95.0 157.1 L 96.9 151.2 L 98.2 144.8 L 98.9 138.0 L 98.9824324607849 131.9 L 82.0 131.9 L 82.0 127.9 L 99.0 127.9 L 99.0 72.4 L 111.0 78.4 L 160.0 78.4 L 166.0 73.4 L 177.0 82.4 L 172.0 86.4 L 172.0 127.9 L 177.5 127.9 L 182.0 121.9 L 188.0 127.9 L 188.0 131.9 L 172.0 131.9 L 172.0 171.4 L 171.8 174.0 L 171.4 176.5 L 170.6 178.9 L 169.3 181.1 L 167.7 183.2 L 165.7 184.8 L 163.4 186.0 L 161.0 186.8 L 158.5 187.3 L 156.0 187.4 L 156.0 181.4 L 136.0 178.4 Z M 111.0 82.4 L 111.0 127.9 L 160.0 127.9 L 160.0 82.4 Z M 47.20086879730225 63.0 L 36.409487628936766 118.69901218414307 L 36.9 118.8 L 43.4 120.6 L 49.5 123.0 L 54.17090950012207 125.25492181777955 L 54.8 123.7 L 59.4 109.5 L 63.1 94.2 L 66.1 77.8 L 67.96057138442993 63.0 Z M 136.1 113.0 L 135.4 111.0 L 134.3 108.8 L 132.9 106.3 L 131.1 103.8 L 129.0 101.1 L 126.5 98.2 L 123.7 95.2 L 120.3 92.3 L 121.3 90.8 L 125.2 92.9 L 129.1 94.9 L 132.6 96.9 L 135.7 99.0 L 138.6 101.2 L 141.1 103.4 L 143.4 105.8 L 145.3 108.3 L 146.9 111.0 L 148.2 113.8 L 147.3 118.3 L 143.6 121.0 L 139.1 120.1 L 136.5 116.4 L 136.4 114.8 Z M 169.2 59.0 L 167.0 54.8 L 166.1792805671692 53.33697843551636 L 162.3 54.6 L 153.8 56.9 L 145.3 59.0 L 137.0 60.9 L 128.8 62.6 L 120.7 64.2 L 112.8 65.6 L 104.9 66.8 L 97.2 67.9 L 93.7089430809021 68.35934963226319 L 91.8 71.7 L 89.6 68.9 L 86.7 57.0 L 88.7 56.9 L 96.2 56.6 L 103.8 56.1 L 110.2959409713745 55.683593559265134 L 110.8 53.9 L 113.6 44.9 L 116.4 36.1 L 119.0 27.3 L 121.4 18.5 L 122.16925897598267 15.115260410308839 L 122.1 15.1 L 122.35098037719726 14.315686321258545 L 122.4 14.1 L 122.41817893981934 14.10569076538086 L 122.9 12.6 L 133.9 17.7 L 136.2 20.5 L 132.36968088150024 21.44078016281128 L 130.3 26.5 L 126.3 35.1 L 124.1 39.3 L 121.8 43.5 L 119.4 47.6 L 116.8 51.6 L 114.06247854232788 55.412976360321046 L 119.5 55.0 L 127.6 54.2 L 135.8 53.4 L 144.2 52.6 L 152.8 51.7 L 161.6 50.8 L 164.61223258972169 50.56308279037476 L 162.2 46.8 L 159.7 43.0 L 157.0 39.2 L 154.1 35.6 L 151.2 31.9 L 148.2 28.3 L 149.3 26.8 L 153.6 29.1 L 157.7 31.8 L 161.6 34.8 L 165.3 38.0 L 168.8 41.6 L 172.2 45.3 L 175.4 49.4 L 178.4 53.6 L 181.2 58.0 L 183.9 62.7 L 184.1 67.2 L 181.1 70.7 L 176.5 70.8 L 173.1 67.8 L 171.2 63.3 Z " />
</g>
</svg>
