<svg xmlns="http://www.w3.org/2000/svg" xmlns:xlink="http://www.w3.org/1999/xlink" version="1.1" baseProfile="full" viewBox="0 0 200 200" width="200" height="200">
<g fill="black">
<path d="M 156.1 170.4 L 150.2 166.1 L 144.0 162.1 L 140.71898736953736 160.27721519470214 L 139.2 162.1 L 130.3 169.8 L 120.2 176.2 L 108.9 181.3 L 96.4 185.2 L 82.6 187.7 L 67.7 188.8 L 67.6 187.1 L 81.9 183.9 L 94.8 180.0 L 106.3 175.3 L 116.4 169.6 L 125.0 163.1 L 132.15050506591797 155.94949493408203 L 131.0 155.4 L 124.1 152.6 L 117.0 150.1 L 109.6 147.9 L 107.86449022293091 147.44921827316284 L 104.7 155.4 L 91.3 156.5 L 105.85686855316162 120.0 L 75.5 120.0 L 75.5 116.0 L 107.45214176177979 116.0 L 118.3 88.8 L 128.7 95.1 L 130.8 98.1 L 127.2153398513794 98.83020858764648 L 120.38159208297729 116.0 L 166.2 116.0 L 176.2 106.0 L 188.2 116.0 L 188.2 120.0 L 160.5359999656677 120.0 L 157.5 131.5 L 152.8 142.9 L 146.7 153.1 L 146.65193929672242 153.15767288208008 L 148.4 153.9 L 155.4 157.5 L 162.3 161.7 L 168.9 166.3 L 175.4 171.5 L 177.2 175.7 L 175.7 180.0 L 171.5 181.8 L 167.2 180.3 L 161.8 175.2 Z M 63.0 147.6 L 59.8 143.4 L 56.2 139.5 L 54.970185375213624 138.33325271606446 L 54.0 140.5 L 47.1 152.7 L 39.3 163.7 L 30.8 173.5 L 21.3 181.8 L 11.1 188.7 L 10.1 187.2 L 18.8 179.0 L 26.8 169.9 L 34.0 159.9 L 40.5 148.9 L 46.3 136.9 L 48.071155643463136 132.25957221984862 L 48.0 132.2 L 43.4 128.8 L 38.4 125.5 L 33.4668155670166 122.52147350311279 L 31.5 133.1 L 18.6 136.8 L 32.291131019592285 63.0 L 15.7 63.0 L 15.7 59.0 L 33.033197689056394 59.0 L 41.4 13.9 L 52.9 18.0 L 55.5 20.5 L 52.252934265136716 21.48024625778198 L 45.27706346511841 59.0 L 64.1 59.0 L 70.1 54.0 L 81.1 63.0 L 76.1 66.0 L 75.37244091033935 66.30314960479737 L 73.3 79.7 L 69.7 96.6 L 65.3 112.4 L 60.0 127.1 L 58.722799110412595 129.95241537094117 L 62.4 132.6 L 67.0 136.5 L 71.3 140.7 L 75.2 145.3 L 78.8 150.3 L 79.4 154.8 L 76.7 158.5 L 72.2 159.1 L 68.5 156.5 L 65.9 151.9 Z M 118.78955221176147 120.0 L 109.15771141052247 144.2 L 110.2 144.2 L 118.2 144.9 L 126.0 146.3 L 133.6 148.3 L 136.92135925292968 149.40711975097656 L 138.3 147.5 L 143.1 138.3 L 146.6 128.1 L 148.28415842056273 120.0 Z M 44.53336229324341 63.0 L 34.17187156677246 118.72932615280152 L 34.5 118.8 L 40.7 120.7 L 46.6 123.1 L 50.795164585113525 125.12266864776612 L 51.3 123.8 L 55.6 109.6 L 59.2 94.3 L 62.1 77.9 L 63.793181800842284 63.0 Z M 164.9 49.2 L 166.9 52.2 L 163.0300000190735 52.74315786361694 L 163.0 52.8 L 161.0 56.4 L 158.9 60.1 L 156.6 63.8 L 154.3 67.6 L 151.7 71.3 L 149.1 75.1 L 146.2 78.9 L 143.1 82.6 L 141.95789470672608 84.0 L 166.2 84.0 L 176.2 74.0 L 188.2 84.0 L 188.2 88.0 L 77.5 88.0 L 77.5 84.0 L 138.98695650100709 84.0 L 140.2 80.9 L 141.9 76.4 L 143.6 72.1 L 145.3 67.9 L 147.0 63.8 L 148.5 59.8 L 150.0 55.9 L 151.4 52.0 L 152.7 48.3 L 153.5295783996582 45.50959997177124 L 153.5 45.5 L 153.61868133544922 45.209890079498294 L 153.8 44.6 L 153.85829830169678 44.62415962219238 L 154.4 43.3 Z M 106.9 68.1 L 105.3 61.5 L 104.3 58.3 L 103.2 55.2 L 102.0 52.2 L 100.7 49.1 L 99.0 46.3 L 100.3 45.1 L 103.0 47.3 L 105.6 49.6 L 108.1 52.3 L 110.3 55.2 L 112.4 58.3 L 114.3 61.6 L 116.0 65.2 L 117.6 68.9 L 118.9 72.9 L 120.1 77.0 L 119.0 81.4 L 115.2 83.9 L 110.8 82.8 L 108.3 79.0 L 107.5 71.6 Z M 84.3 38.0 L 125.4 38.0 L 125.4 11.0 L 137.4 13.0 L 140.4 15.0 L 137.4 16.8 L 137.4 38.0 L 159.3 38.0 L 169.3 28.0 L 181.3 38.0 L 181.3 42.0 L 84.3 42.0 Z " />
</g>
</svg>
