<svg xmlns="http://www.w3.org/2000/svg" xmlns:xlink="http://www.w3.org/1999/xlink" version="1.1" baseProfile="full" viewBox="0 0 200 200" width="200" height="200">
<g fill="black">
<path d="M 54.1 147.1 L 51.5 143.1 L 48.6533106803894 139.27169361114503 L 48.3 140.2 L 42.5 152.5 L 35.9 163.5 L 28.7 173.3 L 20.6 181.7 L 11.9 188.6 L 10.8 187.3 L 17.9 179.1 L 24.4 170.1 L 30.3 160.1 L 35.6 149.2 L 40.4 137.2 L 42.041379356384276 132.04137935638428 L 42.0 132.0 L 38.3 128.7 L 34.3 125.5 L 31.2918869972229 123.26140422821045 L 29.8 132.9 L 17.0 137.0 L 28.4910569190979 63.0 L 15.6 63.0 L 15.6 59.0 L 29.112195110321046 59.0 L 36.1 14.0 L 47.6 17.9 L 50.3 20.3 L 47.06481485366821 21.3576566696167 L 41.23843479156494 59.0 L 55.0 59.0 L 61.0 54.0 L 72.0 63.0 L 67.0 66.0 L 66.36842107772827 66.26315793991088 L 64.6 79.6 L 61.6 96.5 L 57.9 112.2 L 53.4 126.8 L 52.170096492767335 130.03151121139527 L 55.4 132.8 L 59.3 136.8 L 63.0 141.0 L 66.3 145.6 L 69.3 150.6 L 69.6 155.1 L 66.6 158.6 L 62.1 158.9 L 58.6 155.9 L 56.5 151.4 Z M 170.6 170.3 L 167.4 163.8 L 164.0 157.5 L 160.2 151.4 L 160.01401205062865 151.13031749725343 L 159.9 151.4 L 153.8 162.2 L 146.8 171.3 L 139.0 178.7 L 130.3 184.2 L 120.9 187.8 L 120.2 186.1 L 128.3 181.0 L 135.4 174.7 L 141.8 167.1 L 147.3 158.3 L 152.2 148.0 L 154.0080502510071 142.7963433265686 L 151.9 140.1 L 147.2 134.7 L 142.7091857910156 129.74139261245728 L 141.5 137.9 L 128.8 142.0 L 138.55293197631835 76.0 L 127.9 76.0 L 127.9 72.0 L 139.14401874542236 72.0 L 147.7 14.1 L 159.3 17.8 L 161.9 20.2 L 158.7937906265259 21.215491580963135 L 151.2670274734497 72.0 L 166.2 72.0 L 176.2 62.0 L 188.2 72.0 L 188.2 76.0 L 177.03459463119506 76.0 L 175.4 92.8 L 172.9 109.7 L 169.4 125.2 L 165.1 139.1 L 163.63539609909057 142.5643515586853 L 167.0 146.4 L 171.7 152.4 L 176.1 158.7 L 180.2 165.5 L 183.9 172.6 L 187.3 180.0 L 187.1 184.6 L 183.8 187.8 L 179.3 187.6 L 176.1 184.3 L 173.5 177.2 Z M 85.9 111.0 L 108.0 111.0 L 114.0 106.0 L 125.0 115.0 L 120.0 119.0 L 120.0 165.0 L 108.0 171.0 L 108.0 161.0 L 85.9 161.0 L 85.9 173.0 L 73.9 179.0 L 73.9 105.0 Z M 85.9 115.0 L 85.9 157.0 L 108.0 157.0 L 108.0 115.0 Z M 150.67418813705444 76.0 L 143.31488466262817 125.65462665557861 L 144.8 126.5 L 150.9 130.8 L 156.50002174377443 135.4175618171692 L 159.7 122.9 L 162.3 108.0 L 164.1 91.6 L 164.98636360168456 76.0 Z M 40.61930437088013 63.0 L 31.952922344207764 118.99067029953002 L 37.0 120.8 L 42.0 123.2 L 44.399674797058104 124.6295934677124 L 44.6 124.0 L 48.1 109.8 L 51.1 94.5 L 53.4 78.0 L 54.84886360168457 63.0 Z M 71.8 86.0 L 91.0 86.0 L 91.0 54.0 L 69.6 54.0 L 69.6 50.0 L 91.0 50.0 L 91.0 14.0 L 103.0 16.0 L 106.0 18.0 L 103.0 19.8 L 103.0 50.0 L 108.41818180084229 50.0 L 116.6 41.0 L 126.6 50.0 L 126.6 54.0 L 103.0 54.0 L 103.0 86.0 L 106.11818180084228 86.0 L 114.3 77.0 L 124.3 86.0 L 124.3 90.0 L 71.8 90.0 Z " />
</g>
</svg>
