<svg xmlns="http://www.w3.org/2000/svg" xmlns:xlink="http://www.w3.org/1999/xlink" version="1.1" baseProfile="full" viewBox="0 0 200 200" width="200" height="200">
<g fill="black">
<path d="M 60.0 147.4 L 57.0 143.3 L 53.8 139.4 L 53.11482543945313 138.6767601966858 L 52.4 140.4 L 46.0 152.6 L 38.8 163.6 L 30.9 173.4 L 22.1 181.7 L 12.6 188.7 L 11.5 187.2 L 19.4 179.0 L 26.7 170.0 L 33.3 160.0 L 39.3 149.0 L 44.6 137.0 L 46.34388513565064 132.1393840789795 L 46.3 132.1 L 42.1 128.7 L 37.6 125.5 L 33.53772706985474 122.84708709716797 L 31.8 133.0 L 18.9 136.9 L 31.587469482421874 63.0 L 16.7 63.0 L 16.7 59.0 L 32.27420663833618 59.0 L 40.0 14.0 L 51.5 17.9 L 54.1 20.4 L 50.892644596099856 21.44855852127075 L 44.46550827026367 59.0 L 61.0 59.0 L 67.0 54.0 L 78.0 63.0 L 73.0 66.0 L 72.21733989715577 66.32610836029053 L 70.3 79.6 L 67.0 96.6 L 62.9 112.3 L 58.0 126.9 L 56.72287864685059 129.97877464294433 L 60.2 132.7 L 64.5 136.6 L 68.5 140.9 L 72.1 145.5 L 75.5 150.4 L 75.9 155.0 L 73.1 158.6 L 68.6 159.0 L 65.0 156.2 L 62.6 151.7 Z M 167.9 182.3 L 165.7 180.4 L 163.0 178.5 L 159.8 176.5 L 156.3 174.5 L 152.4 172.6 L 148.1 170.6 L 143.5 168.4 L 138.4 166.5 L 138.8 164.7 L 144.3 165.4 L 149.5 166.0 L 154.3 166.9 L 158.9 167.9 L 163.1 169.1 L 167.0 170.5 L 170.6 172.0 L 173.9 173.6 L 177.0 175.5 L 179.7 177.5 L 181.4 181.8 L 179.7 186.0 L 175.4 187.7 L 171.2 185.9 L 169.8 184.2 Z M 123.4 170.7 L 123.7 174.2 L 119.80645160675049 172.78416423797609 L 117.0 174.4 L 113.4 176.1 L 109.5 177.9 L 105.3 179.6 L 100.8 181.2 L 95.9 182.8 L 90.8 184.3 L 85.3 185.6 L 79.5 186.9 L 78.9 185.2 L 84.0 182.4 L 88.9 179.6 L 93.4 177.0 L 97.7 174.6 L 101.6 172.2 L 105.2 169.8 L 108.4 167.6 L 111.2 165.4 L 113.7 163.3 L 115.13312425613404 161.93511972427368 L 115.1 161.9 L 115.9 161.2 Z M 106.7 142.2 L 106.7 154.5 L 156.2 154.5 L 156.2 142.2 Z M 106.7 125.9 L 106.7 138.2 L 156.2 138.2 L 156.2 125.9 Z M 43.78088617324829 63.0 L 34.232857418060306 118.78569087982177 L 34.3 118.8 L 40.0 120.7 L 45.5 123.1 L 48.92529525756836 124.94438972473145 L 49.3 123.9 L 53.2 109.7 L 56.5 94.4 L 59.1 77.9 L 60.708522701263426 63.0 Z M 106.7 109.6 L 106.7 121.9 L 156.2 121.9 L 156.2 109.6 Z M 180.7 79.0 L 182.7 79.0 L 180.7 88.0 L 183.1 89.6 L 184.7 92.0 L 183.1 94.4 L 180.7 96.0 L 152.0 96.0 L 149.7 95.8 L 147.5 95.3 L 145.3 94.3 L 143.3 93.0 L 141.6 91.2 L 140.3 89.2 L 139.3 86.9 L 138.7 84.5 L 138.4 82.0 L 138.4 69.9 L 124.8 69.9 L 122.1 75.7 L 119.0 81.1 L 115.4 86.0 L 111.3 90.5 L 106.8 94.5 L 101.9 98.0 L 97.02212390899658 100.76106195449829 L 106.7 105.6 L 156.2 105.6 L 162.2 100.6 L 173.2 109.6 L 168.2 113.6 L 168.2 158.5 L 156.2 164.5 L 156.2 158.5 L 106.7 158.5 L 94.7 164.5 L 94.7 101.85172414779663 L 90.8 103.6 L 84.7 105.5 L 78.2 106.8 L 77.7 105.0 L 83.3 101.9 L 88.4 98.8 L 93.1 95.5 L 97.3 92.0 L 101.1 88.2 L 104.4 84.3 L 107.2 80.1 L 109.7 75.7 L 111.8 71.0 L 112.15483875274658 69.9 L 80.4 69.9 L 80.4 65.9 L 164.3181818008423 65.9 L 172.5 56.9 L 182.5 65.9 L 182.5 69.9 L 150.4 69.9 L 150.4 82.0 L 150.2 83.2 L 150.2 84.9 L 150.3 85.5 L 150.4 85.9 L 150.6 86.4 L 151.1 86.8 L 151.8 87.3 L 152.9 87.7 L 154.4 88.0 L 176.7 88.0 Z M 77.3 51.3 L 76.5 46.8 L 79.1 43.0 L 79.9 42.9 L 80.9 42.5 L 81.9 41.7 L 83.0 40.5 L 84.1 38.9 L 85.2 36.9 L 86.1 34.4 L 87.0 31.6 L 87.9 28.4 L 88.1 24.9 L 89.9 24.9 L 90.3 28.5 L 90.52941179275513 29.8 L 125.5 29.8 L 125.5 12.1 L 137.5 14.1 L 140.5 16.1 L 137.5 17.9 L 137.5 29.8 L 172.2 29.8 L 172.91304349899292 29.205797100067137 L 173.0 28.8 L 173.23636360168456 28.93636360168457 L 178.2 24.8 L 189.2 33.8 L 184.2 36.8 L 178.8947368621826 39.01052627563477 L 177.8 39.9 L 176.2 41.3 L 174.4 42.7 L 172.6 44.2 L 170.6 45.7 L 168.90391063690186 46.933519554138186 L 170.2 48.1 L 170.2 52.1 L 92.7 52.1 L 92.7 48.1 L 152.01818180084229 48.1 L 160.2 39.1 L 166.98787879943848 45.209090900421145 L 167.7 43.5 L 168.6 41.2 L 170.4 37.0 L 171.1 35.1 L 171.55882349014283 33.8 L 91.078125 33.8 L 91.2 35.1 L 91.3 38.1 L 91.2 41.0 L 90.8 43.7 L 90.1 46.3 L 89.0 48.8 L 87.5 51.1 L 85.6 53.1 L 81.0 53.9 Z " />
</g>
</svg>
