<svg xmlns="http://www.w3.org/2000/svg" xmlns:xlink="http://www.w3.org/1999/xlink" version="1.1" baseProfile="full" viewBox="0 0 200 200" width="200" height="200">
<g fill="black">
<path d="M 119.1 145.7 L 117.8 143.8 L 116.4 141.9 L 114.9 140.1 L 113.4 138.2 L 111.6 136.29411764144896 L 111.6 184.3 L 99.6 190.3 L 99.6 148.32258062362672 L 97.8 151.4 L 94.4 156.5 L 90.9 161.2 L 87.1 165.6 L 83.1 169.5 L 78.7 173.0 L 77.4 171.8 L 82.8 162.4 L 85.4 157.6 L 87.9 152.6 L 90.3 147.5 L 92.5 142.1 L 94.5 136.5 L 96.4 130.8 L 98.2 124.7 L 99.41290321350098 120.0 L 80.0 120.0 L 80.0 116.0 L 99.6 116.0 L 99.6 92.8 L 111.6 94.8 L 114.6 96.8 L 111.6 98.6 L 111.6 116.0 L 116.3777777671814 116.0 L 122.6 109.0 L 130.6 116.0 L 130.6 120.0 L 111.6 120.0 L 111.6 131.1111110687256 L 112.0 131.2 L 114.5 132.1 L 117.0 133.1 L 119.5 134.2 L 121.9 135.5 L 124.2 137.0 L 126.4 138.5 L 128.7 140.2 L 130.8 142.1 L 132.1 146.4 L 130.0 150.5 L 125.6 151.8 L 121.5 149.7 L 120.4 147.7 Z M 172.8 164.2 L 169.6 159.1 L 166.8 153.8 L 164.3 148.4 L 162.2 142.8 L 161.7 141.18888893127442 L 161.7 184.5 L 150.7 190.0 L 150.7 141.77058820724488 L 148.7 145.3 L 145.0 151.1 L 141.1 156.4 L 136.9 161.4 L 132.4 166.0 L 127.6 170.1 L 122.4 173.6 L 121.2 172.3 L 124.8 167.4 L 128.3 162.5 L 131.6 157.4 L 134.8 152.2 L 137.7 146.7 L 140.4 141.0 L 142.9 135.1 L 145.2 128.9 L 147.3 122.4 L 148.13999996185302 119.4 L 133.7 119.4 L 133.7 115.4 L 150.7 115.4 L 150.7 92.2 L 161.7 94.2 L 164.5 96.2 L 161.7 97.95 L 161.7 115.4 L 168.01818180084229 115.4 L 176.2 106.4 L 186.2 115.4 L 186.2 119.4 L 161.7 119.4 L 161.7 122.45600004196167 L 162.3 123.8 L 164.7 129.2 L 167.2 134.4 L 169.8 139.4 L 172.6 144.1 L 175.6 148.6 L 178.8 152.9 L 182.2 157.0 L 185.8 160.8 L 189.7 164.5 L 191.0 165.8 L 180.2 173.7 L 176.4 169.0 Z M 63.9 147.7 L 60.4 143.6 L 56.6 139.6 L 54.90227108001709 138.06395950317383 L 53.7 140.6 L 46.4 152.8 L 38.3 163.8 L 29.2 173.5 L 19.3 181.8 L 8.6 188.7 L 7.5 187.2 L 16.8 178.9 L 25.3 169.8 L 33.0 159.8 L 40.0 148.8 L 46.1 136.8 L 47.97233066558838 132.25786457061767 L 47.9 132.2 L 42.9 128.8 L 37.6 125.5 L 31.936231994628905 122.32034072875976 L 29.8 133.2 L 16.9 136.7 L 31.412123680114746 63.0 L 13.5 63.0 L 13.5 59.0 L 32.199755859375 59.0 L 41.1 13.8 L 52.4 18.1 L 55.0 20.6 L 51.71436386108398 21.591890144348145 L 44.36924409866333 59.0 L 65.1 59.0 L 71.1 54.0 L 82.1 63.0 L 77.1 66.0 L 76.24193229675294 66.35752820968628 L 74.1 79.8 L 70.3 96.7 L 65.6 112.5 L 60.1 127.1 L 58.764017295837405 129.91808853149413 L 62.6 132.5 L 67.5 136.4 L 72.0 140.6 L 76.1 145.3 L 79.9 150.2 L 80.6 154.7 L 78.1 158.5 L 73.5 159.2 L 69.8 156.6 L 67.0 152.1 Z M 43.58384017944336 63.0 L 32.65322160720825 118.66876964569092 L 33.3 118.8 L 39.8 120.6 L 46.0 123.0 L 50.841434955596924 125.29763011932373 L 51.5 123.7 L 56.0 109.5 L 59.9 94.2 L 62.9 77.8 L 64.76057138442994 63.0 Z M 172.7 41.0 L 172.7 45.0 L 138.0 45.0 L 138.0 65.3 L 159.3 65.3 L 169.3 55.3 L 181.3 65.3 L 181.3 69.3 L 138.0 69.3 L 138.0 99.3 L 127.0 104.8 L 127.0 69.3 L 83.6 69.3 L 83.6 65.3 L 127.0 65.3 L 127.0 45.0 L 92.2 45.0 L 92.2 41.0 L 150.7 41.0 L 160.7 31.0 Z M 166.4 20.4 L 167.7 23.8 L 163.3671875 23.4328125 L 162.3 24.5 L 160.2 26.5 L 158.0 28.4 L 155.8 30.4 L 151.0 34.2 L 148.5 36.0 L 145.8 37.8 L 143.4 39.8 L 142.1 38.5 L 143.9 36.0 L 145.5 33.3 L 147.0 30.6 L 148.5 28.0 L 150.0 25.5 L 151.4 23.0 L 152.8 20.6 L 155.4 15.8 L 156.17686567306518 14.24626865386963 L 156.1 14.2 L 156.5 13.6 L 156.6 13.4 L 156.6225806236267 13.416129016876221 L 157.1 12.7 Z M 112.2 32.4 L 111.5 30.7 L 110.6 28.9 L 109.4 27.1 L 108.0 25.3 L 106.3 23.4 L 102.3 19.4 L 99.7 17.9 L 100.5 16.2 L 103.4 17.3 L 106.3 18.1 L 109.1 19.1 L 111.8 20.3 L 114.2 21.6 L 116.5 23.1 L 118.7 24.7 L 120.7 26.5 L 122.4 28.5 L 124.0 30.7 L 124.1 35.3 L 121.0 38.7 L 116.4 38.7 L 113.0 35.6 L 112.7 34.0 Z " />
</g>
</svg>
