<svg xmlns="http://www.w3.org/2000/svg" xmlns:xlink="http://www.w3.org/1999/xlink" version="1.1" baseProfile="full" viewBox="0 0 200 200" width="200" height="200">
<g fill="black">
<path d="M 100.7 177.0 L 120.7 177.0 L 122.0 176.9 L 122.9 176.7 L 123.8 176.4 L 124.0 176.2 L 124.1 176.0 L 124.3 175.7 L 124.5 175.1 L 124.7 174.2 L 124.7 118.0 L 85.9 118.0 L 85.9 114.0 L 124.7 114.0 L 130.7 109.0 L 141.7 118.0 L 137.19421968460082 121.60462427139282 L 139.4 126.2 L 143.1 133.2 L 147.0 139.8 L 150.8029239654541 145.23274850845337 L 151.8 144.3 L 154.7 141.3 L 157.5 138.4 L 162.9 132.8 L 167.9 127.4 L 170.2 124.7 L 172.4 122.1 L 173.88066911697388 120.26679058074951 L 173.8 120.2 L 174.8 119.2 L 183.1 127.9 L 183.8 131.4 L 179.89256200790405 130.42314052581787 L 177.4 132.4 L 171.2 136.8 L 164.6 141.0 L 161.1 143.1 L 157.4 145.0 L 153.6 146.8 L 152.4774193763733 147.36129035949708 L 155.7 151.3 L 160.5 156.4 L 165.7 161.0 L 171.3 165.1 L 177.2 168.8 L 183.5 172.1 L 188.6 174.8 L 177.4 183.8 L 170.5 179.4 L 164.1 174.5 L 158.3 169.2 L 153.0 163.3 L 148.3 157.0 L 144.2 150.3 L 140.6 143.2 L 137.7 135.6 L 136.7 132.1217391014099 L 136.7 173.0 L 136.6 175.5 L 136.1 178.0 L 135.3 180.4 L 134.1 182.7 L 132.5 184.7 L 130.5 186.3 L 128.2 187.6 L 125.8 188.4 L 123.3 188.8 L 120.7 189.0 L 120.7 183.0 L 100.7 180.0 Z M 58.6 147.4 L 55.6 143.3 L 52.4 139.4 L 51.78968334197998 138.73737049102783 L 51.1 140.4 L 44.8 152.6 L 37.6 163.6 L 29.7 173.4 L 21.0 181.7 L 11.5 188.7 L 10.4 187.2 L 18.3 179.0 L 25.6 170.0 L 32.1 160.0 L 38.1 149.0 L 43.3 137.0 L 45.015672016143796 132.1140645980835 L 45.0 132.1 L 40.9 128.7 L 36.4 125.5 L 32.337727069854736 122.84708709716797 L 30.6 133.0 L 17.8 136.9 L 30.427339267730712 63.0 L 15.7 63.0 L 15.7 59.0 L 31.11082181930542 59.0 L 38.8 14.0 L 50.3 17.9 L 52.9 20.4 L 49.69622745513916 21.42762517929077 L 43.26550827026367 59.0 L 59.6 59.0 L 65.6 54.0 L 76.6 63.0 L 71.6 66.0 L 70.84520883560181 66.31449632644653 L 69.0 79.6 L 65.6 96.5 L 61.6 112.3 L 56.7 126.9 L 55.422878646850585 129.97877464294433 L 58.9 132.7 L 63.2 136.6 L 67.1 140.9 L 70.8 145.5 L 74.1 150.4 L 74.5 155.0 L 71.7 158.6 L 67.1 159.0 L 63.5 156.2 L 61.2 151.7 Z M 121.3 137.0 L 116.3 140.0 L 114.69411764144897 140.66911764144896 L 114.1 142.6 L 111.4 148.8 L 107.9 154.7 L 103.6 160.2 L 98.7 165.3 L 93.1 170.2 L 86.8 174.7 L 79.9 178.8 L 72.2 182.5 L 63.8 185.8 L 63.1 184.1 L 70.4 179.2 L 77.0 174.3 L 82.9 169.4 L 88.1 164.5 L 92.5 159.6 L 96.3 154.5 L 99.3 149.4 L 101.6 144.3 L 103.3 139.1 L 103.73584909439087 137.0 L 72.2 137.0 L 72.2 133.0 L 104.3 133.0 L 110.3 128.0 Z M 42.58088617324829 63.0 L 33.0328574180603 118.78569087982177 L 33.1 118.8 L 38.8 120.7 L 44.3 123.1 L 47.553657913208006 124.88632202148438 L 47.9 123.9 L 51.9 109.7 L 55.1 94.4 L 57.7 77.9 L 59.30852270126343 63.0 Z M 133.3 107.6 L 130.3 105.9 L 127.1 104.2 L 123.8 102.6 L 120.3 101.2 L 116.6 99.8 L 112.7 98.4 L 108.6 97.0 L 104.3 95.9 L 104.5 94.1 L 109.0 94.0 L 113.5 93.8 L 117.8 94.0 L 122.0 94.4 L 126.1 95.0 L 130.1 95.8 L 134.0 96.9 L 137.8 98.1 L 141.5 99.6 L 145.0 101.3 L 147.6 105.0 L 146.9 109.5 L 143.2 112.1 L 138.6 111.4 L 136.0 109.5 Z M 80.0 85.0 L 124.7 85.0 L 124.7 65.0 L 92.7 65.0 L 92.7 61.0 L 124.7 61.0 L 124.7 43.0 L 83.0 43.0 L 83.0 39.0 L 111.14411764144897 39.0 L 108.5 36.1 L 108.2 34.2 L 107.7 32.3 L 107.0 30.4 L 106.2 28.4 L 105.1 26.4 L 103.8 24.4 L 102.2 22.3 L 100.5 20.2 L 98.5 18.0 L 96.1 16.2 L 96.9 14.6 L 99.8 15.9 L 102.7 17.0 L 105.5 18.2 L 108.1 19.7 L 110.5 21.3 L 112.7 23.1 L 114.8 25.1 L 116.7 27.3 L 118.3 29.6 L 119.8 32.1 L 119.5 36.7 L 116.97741937637329 39.0 L 141.14230766296387 39.0 L 143.0 36.7 L 144.9 33.9 L 146.7 31.2 L 148.4 28.6 L 150.1 25.9 L 151.7 23.2 L 153.2 20.6 L 154.7 17.9 L 156.0 15.3 L 156.85344066619874 13.527469444274903 L 156.8 13.5 L 157.1673469543457 12.875510215759277 L 157.3 12.6 L 157.32148275375366 12.613479328155517 L 157.8 11.8 L 167.5 19.0 L 168.9 22.3 L 164.66032609939575 22.226902198791503 L 163.1 24.0 L 160.8 26.4 L 158.4 28.7 L 155.9 30.9 L 153.3 33.1 L 150.6 35.1 L 147.8 37.0 L 144.9 38.7 L 144.44210529327393 39.0 L 162.4 39.0 L 172.4 29.0 L 184.4 39.0 L 184.4 43.0 L 136.7 43.0 L 136.7 61.0 L 159.3181818008423 61.0 L 167.5 52.0 L 177.5 61.0 L 177.5 65.0 L 136.7 65.0 L 136.7 85.0 L 166.3 85.0 L 176.3 75.0 L 188.3 85.0 L 188.3 89.0 L 80.0 89.0 Z " />
</g>
</svg>
