<svg xmlns="http://www.w3.org/2000/svg" xmlns:xlink="http://www.w3.org/1999/xlink" version="1.1" baseProfile="full" viewBox="0 0 200 200" width="200" height="200">
<g fill="black">
<path d="M 167.2 106.5 L 166.98787879943848 106.24969692230225 L 165.8 107.2 L 165.8 181.7 L 153.8 187.7 L 153.8 177.7 L 106.1 177.7 L 106.1 184.7 L 94.1 190.7 L 94.1 103.3 L 92.3 105.1 L 83.5 112.1 L 73.9 118.2 L 72.9 116.7 L 81.1 109.2 L 88.5 101.3 L 94.1 94.38235292434692 L 94.1 93.2 L 94.78135595321655 93.54067792892457 L 95.3 92.9 L 101.4 83.8 L 105.99278354644775 75.7 L 74.1 75.7 L 74.1 71.7 L 107.98461542129516 71.7 L 111.6 63.7 L 115.7 52.6 L 116.13220338821411 51.1 L 95.5 51.1 L 95.5 47.1 L 117.28474578857421 47.1 L 119.1 40.8 L 121.8 28.3 L 123.74172096252441 16.002433681488036 L 123.7 16.0 L 124.2 13.0 L 135.7 16.7 L 138.4 19.2 L 134.940625 20.609375 L 133.0 30.6 L 129.4 43.7 L 128.2113821029663 47.1 L 142.4 47.1 L 152.4 37.1 L 164.4 47.1 L 164.4 51.1 L 142.74109592437745 51.1 L 145.7 57.1 L 149.3 64.0 L 153.0 70.6 L 153.70967741012572 71.7 L 163.9 71.7 L 173.9 61.7 L 185.9 71.7 L 185.9 75.7 L 156.29032258987428 75.7 L 157.0 76.8 L 161.2 82.7 L 165.7 88.2 L 170.5 93.3 L 175.5 98.1 L 180.9 102.5 L 186.5 106.6 L 189.6 108.8 L 178.7 117.2 L 172.7 112.0 Z M 58.6 147.4 L 55.6 143.3 L 52.4 139.4 L 51.78968334197998 138.73737049102783 L 51.1 140.4 L 44.8 152.6 L 37.6 163.6 L 29.7 173.4 L 21.0 181.7 L 11.5 188.7 L 10.4 187.2 L 18.3 179.0 L 25.6 170.0 L 32.1 160.0 L 38.1 149.0 L 43.3 137.0 L 45.015672016143796 132.1140645980835 L 45.0 132.1 L 40.9 128.7 L 36.4 125.5 L 32.337727069854736 122.84708709716797 L 30.6 133.0 L 17.8 136.9 L 30.427339267730712 63.0 L 15.7 63.0 L 15.7 59.0 L 31.11082181930542 59.0 L 38.8 14.0 L 50.3 17.9 L 52.9 20.4 L 49.69622745513916 21.42762517929077 L 43.26550827026367 59.0 L 59.6 59.0 L 65.6 54.0 L 76.6 63.0 L 71.6 66.0 L 70.84520883560181 66.31449632644653 L 69.0 79.6 L 65.6 96.5 L 61.6 112.3 L 56.7 126.9 L 55.422878646850585 129.97877464294433 L 58.9 132.7 L 63.2 136.6 L 67.1 140.9 L 70.8 145.5 L 74.1 150.4 L 74.5 155.0 L 71.7 158.6 L 67.1 159.0 L 63.5 156.2 L 61.2 151.7 Z M 106.1 151.8 L 106.1 173.7 L 153.8 173.7 L 153.8 151.8 Z M 106.1 127.5 L 106.1 147.8 L 153.8 147.8 L 153.8 127.5 Z M 42.58088617324829 63.0 L 33.0328574180603 118.78569087982177 L 33.1 118.8 L 38.8 120.7 L 44.3 123.1 L 47.553657913208006 124.88632202148438 L 47.9 123.9 L 51.9 109.7 L 55.1 94.4 L 57.7 77.9 L 59.30852270126343 63.0 Z M 106.1 103.2 L 106.1 123.5 L 153.8 123.5 L 153.8 103.2 Z M 115.655140209198 75.7 L 114.3 78.2 L 107.7 88.0 L 100.77509880065918 96.5375494003296 L 106.1 99.2 L 153.8 99.2 L 158.34883718490602 95.40930233001708 L 157.6 94.4 L 153.4 87.9 L 149.8 81.0 L 147.44444446563722 75.7 Z M 126.81300811767578 51.1 L 125.1 56.0 L 120.1 67.5 L 117.82336444854737 71.7 L 145.84399995803832 71.7 L 143.9 66.3 L 141.8 58.5 L 140.53658533096313 51.1 Z M 115.3 22.5 L 117.1 25.6 L 113.16191730499267 25.87159194946289 L 112.7 26.6 L 110.0 30.6 L 107.1 34.4 L 104.0 38.0 L 100.7 41.6 L 97.3 44.9 L 93.7 48.0 L 89.9 51.0 L 85.9 53.7 L 81.8 56.1 L 80.6 54.7 L 83.6 51.0 L 86.4 47.3 L 89.1 43.7 L 91.8 40.0 L 94.3 36.3 L 96.6 32.6 L 98.8 28.8 L 100.9 24.9 L 102.9 21.0 L 104.28006830215455 17.933181476593017 L 104.2 17.9 L 105.2 15.9 Z M 165.6 42.4 L 164.1 39.3 L 162.4 36.2 L 160.6 33.2 L 158.6 30.2 L 156.5 27.3 L 154.2 24.3 L 151.8 21.3 L 149.1 18.6 L 150.1 17.1 L 153.7 19.0 L 157.2 20.9 L 160.5 23.1 L 163.7 25.5 L 166.7 28.1 L 169.5 30.9 L 172.1 33.9 L 174.6 37.0 L 176.9 40.3 L 179.0 43.8 L 179.1 48.4 L 176.0 51.8 L 171.5 51.9 L 168.1 48.8 L 166.9 45.6 Z " />
</g>
</svg>
