<svg xmlns="http://www.w3.org/2000/svg" xmlns:xlink="http://www.w3.org/1999/xlink" version="1.1" baseProfile="full" viewBox="0 0 200 200" width="200" height="200">
<g fill="black">
<path d="M 61.7 147.5 L 58.6 143.4 L 55.2 139.4 L 54.17830924987793 138.40519590377806 L 53.3 140.4 L 46.7 152.7 L 39.2 163.7 L 30.9 173.4 L 21.8 181.8 L 11.9 188.7 L 10.8 187.2 L 19.2 179.0 L 26.8 169.9 L 33.8 159.9 L 40.0 149.0 L 45.6 137.0 L 47.37232570648193 132.26174144744874 L 47.3 132.2 L 42.9 128.8 L 38.1 125.5 L 33.56902732849121 122.65703678131104 L 31.7 133.1 L 18.8 136.8 L 32.07078924179077 63.0 L 16.3 63.0 L 16.3 59.0 L 32.790073204040525 59.0 L 40.9 13.9 L 52.3 18.0 L 54.9 20.5 L 51.67850522994995 21.47252674102783 L 44.96203298568726 59.0 L 62.7 59.0 L 68.7 54.0 L 79.7 63.0 L 74.7 66.0 L 74.00014724731446 66.29160528182983 L 72.0 79.7 L 68.5 96.6 L 64.3 112.4 L 59.2 127.0 L 57.89251499176025 129.96954221725463 L 61.5 132.6 L 65.9 136.5 L 70.1 140.8 L 73.9 145.4 L 77.3 150.4 L 77.9 154.9 L 75.1 158.5 L 70.6 159.1 L 67.0 156.4 L 64.5 151.8 Z M 171.1 103.4 L 167.9 99.7 L 164.5 96.1 L 162.68161430358887 94.38552207946778 L 160.5 96.3 L 155.2 100.2 L 149.6 103.7 L 143.6 106.7 L 137.2 109.2 L 133.4983425140381 110.24972372055053 L 140.4 111.4 L 143.4 113.4 L 140.4 115.2 L 140.4 126.3 L 164.5 126.3 L 174.5 116.3 L 186.5 126.3 L 186.5 130.3 L 141.47600002288817 130.3 L 144.4 133.7 L 148.5 138.5 L 152.7 143.1 L 156.9 147.4 L 161.2 151.4 L 165.6 155.2 L 170.1 158.6 L 174.7 161.8 L 179.4 164.7 L 184.3 167.4 L 188.8 170.0 L 177.6 178.8 L 172.5 175.2 L 167.6 171.3 L 162.9 167.1 L 158.5 162.6 L 154.4 157.9 L 150.5 152.8 L 146.9 147.5 L 143.7 141.9 L 140.8 135.9 L 140.4 134.8043478012085 L 140.4 181.0 L 128.4 187.0 L 128.4 136.68863639831542 L 127.5 138.1 L 122.7 144.6 L 117.7 150.7 L 112.2 156.5 L 106.5 161.7 L 100.4 166.6 L 93.9 170.9 L 87.2 174.8 L 80.0 178.1 L 72.6 180.9 L 71.8 179.2 L 78.2 174.8 L 84.3 170.3 L 90.1 165.6 L 95.5 160.7 L 100.6 155.6 L 105.4 150.1 L 109.9 144.4 L 114.0 138.4 L 117.8 132.1 L 118.7 130.3 L 77.7 130.3 L 77.7 126.3 L 128.4 126.3 L 128.4 109.4 L 129.9031579017639 109.65052633285522 L 129.8 109.4 L 135.6 105.8 L 140.9 102.1 L 145.9 98.2 L 150.5 94.3 L 154.7 90.1 L 155.97702703475952 88.65925159454346 L 153.3 86.6 L 149.1 83.6 L 144.8 80.8 L 140.2 77.9 L 140.8 76.2 L 146.3 77.3 L 151.5 78.8 L 156.5 80.9 L 160.7047297477722 82.87364864349365 L 162.1 81.0 L 165.3 76.2 L 168.1 71.1 L 168.4555555343628 70.3 L 137.1 70.3 L 137.1 66.3 L 170.0 66.3 L 170.37058820724488 65.99117650985718 L 170.5 65.7 L 170.6399066925049 65.7667444229126 L 176.0 61.3 L 187.0 70.3 L 182.0 73.3 L 179.34448671340942 74.40646390914917 L 178.0 76.7 L 174.2 82.2 L 170.0 87.3 L 169.20220413208008 88.11513919830323 L 170.5 89.0 L 174.8 92.4 L 178.9 96.1 L 182.9 100.1 L 186.6 104.3 L 187.6 108.8 L 185.3 112.7 L 180.8 113.7 L 176.9 111.4 L 174.1 107.3 Z M 44.24613380432129 63.0 L 34.268545150756836 118.7485655784607 L 34.5 118.8 L 40.5 120.7 L 46.2 123.1 L 50.05211935043335 125.0973952293396 L 50.5 123.9 L 54.6 109.7 L 58.0 94.3 L 60.8 77.9 L 62.49318180084229 63.0 Z M 116.6 99.8 L 114.0 96.9 L 112.61851978302002 95.56615705490113 L 108.3 99.8 L 102.8 104.4 L 97.1 108.6 L 91.0 112.3 L 84.6 115.6 L 77.9 118.3 L 77.1 116.7 L 82.6 112.3 L 87.9 107.9 L 93.0 103.4 L 97.7 98.7 L 102.2 93.8 L 105.69853553771972 89.55177822113038 L 104.5 88.6 L 100.8 85.9 L 96.8 83.3 L 92.6 80.6 L 88.2 77.9 L 88.8 76.2 L 94.0 77.4 L 99.0 78.7 L 103.7 80.4 L 108.2 82.3 L 110.26075468063354 83.35433959960938 L 110.3 83.3 L 114.0 77.6 L 117.4 71.7 L 118.1 70.3 L 84.4 70.3 L 84.4 66.3 L 119.8 66.3 L 120.31428575515747 65.87142858505248 L 120.5 65.5 L 120.65912237167359 65.58406467437744 L 125.8 61.3 L 136.8 70.3 L 131.8 73.3 L 129.037931060791 74.4508620262146 L 127.1 77.6 L 122.9 83.7 L 119.0346007347107 88.48973388671875 L 120.4 89.4 L 124.0 92.1 L 127.3 95.0 L 130.5 98.2 L 131.7 102.6 L 129.5 106.6 L 125.1 107.8 L 121.1 105.7 L 119.0 102.7 Z M 153.0 53.1 L 149.3 50.0 L 145.0 47.0 L 141.2524956703186 44.73588275909424 L 135.6 48.0 L 128.1 51.6 L 120.0 54.9 L 111.5 57.8 L 102.4 60.1 L 92.8 62.0 L 92.3 60.3 L 101.2 56.5 L 109.6 52.8 L 117.4 48.9 L 124.6 44.9 L 131.3 40.7 L 132.2540018081665 40.01186752319336 L 128.8 38.4 L 122.3 35.6 L 115.3 32.8 L 107.7 29.9 L 108.1 28.1 L 116.3 29.1 L 123.9 30.5 L 131.0 32.2 L 137.6 34.2 L 139.22250127792358 34.77572622299194 L 142.9 31.7 L 147.9 26.9 L 151.86000003814698 22.4 L 98.2 22.4 L 98.2 18.4 L 154.9 18.4 L 154.92068967819213 18.382758617401123 L 156.1 16.8 L 156.47894735336303 17.08421049118042 L 160.9 13.4 L 171.9 22.4 L 166.9 25.4 L 162.91951217651368 27.05853662490845 L 160.7 29.5 L 155.2 34.7 L 149.77492799758912 39.04005765914917 L 154.8 41.6 L 159.6 44.6 L 163.9 47.8 L 167.8 51.3 L 169.2 55.6 L 167.3 59.8 L 162.9 61.2 L 158.8 59.2 L 156.2 56.1 Z " />
</g>
</svg>
