<svg xmlns="http://www.w3.org/2000/svg" xmlns:xlink="http://www.w3.org/1999/xlink" version="1.1" baseProfile="full" viewBox="0 0 200 200" width="200" height="200">
<g fill="black">
<path d="M 58.1 147.5 L 54.9 143.4 L 51.5 139.5 L 50.48195877075195 138.48195877075196 L 49.6 140.5 L 42.9 152.7 L 35.4 163.7 L 27.0 173.4 L 17.9 181.8 L 7.9 188.7 L 6.8 187.2 L 15.3 179.0 L 23.0 169.9 L 30.0 159.9 L 36.3 149.0 L 41.9 136.9 L 43.64397401809693 132.23753881454468 L 43.6 132.2 L 39.1 128.8 L 34.3 125.5 L 29.695509243011475 122.61090774536133 L 27.8 133.1 L 15.0 136.8 L 28.270789241790773 63.0 L 12.3 63.0 L 12.3 59.0 L 28.990073204040527 59.0 L 37.1 13.9 L 48.6 18.0 L 51.2 20.5 L 47.97212314605713 21.474453449249268 L 41.19079065322876 59.0 L 59.1 59.0 L 65.1 54.0 L 76.1 63.0 L 71.1 66.0 L 70.40014724731445 66.29160528182983 L 68.4 79.7 L 64.9 96.6 L 60.6 112.4 L 55.5 127.0 L 54.22454671859741 129.9184100151062 L 57.8 132.6 L 62.3 136.5 L 66.4 140.8 L 70.3 145.4 L 73.8 150.3 L 74.3 154.9 L 71.6 158.5 L 67.0 159.1 L 63.4 156.4 L 60.9 151.8 Z M 163.4 176.7 L 159.4 172.9 L 155.0 169.3 L 150.3 165.9 L 148.09996252059938 164.53597679138184 L 144.6 168.2 L 137.0 174.0 L 128.3 178.6 L 118.5 182.2 L 107.7 184.8 L 95.7 186.2 L 95.5 184.4 L 106.7 181.1 L 116.7 177.2 L 125.3 172.8 L 132.7 167.8 L 138.7 162.2 L 140.38802366256715 160.01963605880738 L 140.0 159.8 L 134.3 157.1 L 128.4 154.5 L 124.80454988479615 153.01616344451904 L 122.2 160.6 L 108.9 162.4 L 121.18861646652222 126.6 L 91.0 126.6 L 91.0 122.6 L 122.56164627075195 122.6 L 128.5 105.3 L 139.2 111.1 L 141.4 114.0 L 137.9399757385254 114.76889429092407 L 135.25050506591796 122.6 L 167.2 122.6 L 177.2 112.6 L 189.2 122.6 L 189.2 126.6 L 163.582857131958 126.6 L 162.6 135.2 L 160.1 144.9 L 156.2 153.7 L 153.34061136245728 157.9890830039978 L 154.5 158.5 L 160.2 161.5 L 165.5 164.9 L 170.6 168.7 L 175.4 172.9 L 179.9 177.5 L 181.2 181.9 L 179.1 186.0 L 174.7 187.3 L 170.6 185.2 L 167.2 180.8 Z M 87.9 32.1 L 128.5 32.1 L 128.5 11.0 L 140.5 13.0 L 143.5 15.0 L 140.5 16.8 L 140.5 32.1 L 166.1 32.1 L 176.1 22.1 L 188.1 32.1 L 188.1 36.1 L 87.9 36.1 L 87.9 106.5 L 87.5 119.0 L 86.8 130.5 L 85.8 141.0 L 84.4 150.6 L 82.8 159.1 L 80.7 166.7 L 78.4 173.3 L 75.6 178.8 L 72.4 183.2 L 68.8 186.4 L 67.8 185.4 L 69.8 181.5 L 71.6 176.9 L 73.2 171.5 L 74.6 165.2 L 75.8 157.9 L 76.8 149.6 L 77.5 140.3 L 77.9 130.0 L 78.0 118.7 L 77.9 106.5 L 77.9 27.1 Z M 133.87676763534546 126.6 L 125.67530136108398 150.48074007034302 L 129.4 150.8 L 136.0 152.0 L 142.5 153.8 L 144.35043659210206 154.4370355606079 L 147.2 149.2 L 149.8 141.7 L 151.3 133.5 L 151.61011238098143 126.6 Z M 40.46794090270996 63.0 L 30.392519760131837 118.7538932800293 L 30.6 118.8 L 36.7 120.7 L 42.4 123.1 L 46.30454654693604 125.12457971572876 L 46.8 123.8 L 50.9 109.6 L 54.4 94.3 L 57.1 77.9 L 58.87784090042114 63.0 Z M 116.9 44.2 L 118.9 46.2 L 116.9 47.7 L 116.9 57.3 L 121.6777777671814 57.3 L 127.9 50.3 L 135.9 57.3 L 135.9 61.3 L 116.9 61.3 L 116.9 99.5 L 108.9 103.5 L 108.9 61.3 L 89.9 61.3 L 89.9 57.3 L 108.9 57.3 L 108.9 42.2 Z M 160.8 44.2 L 162.8 46.2 L 160.8 47.7 L 160.8 57.3 L 167.8181818008423 57.3 L 176.0 48.3 L 186.0 57.3 L 186.0 61.3 L 160.8 61.3 L 160.8 99.5 L 152.8 103.5 L 152.8 61.3 L 138.0 61.3 L 138.0 57.3 L 152.8 57.3 L 152.8 42.2 Z M 150.3 66.3 L 152.3 68.3 L 150.3 69.8 L 150.3 78.3 L 149.9 81.8 L 149.3 85.0 L 148.4 88.0 L 147.2 90.8 L 145.8 93.5 L 144.1 95.8 L 142.3 98.0 L 140.2 99.8 L 137.8 101.4 L 135.5 103.0 L 134.8 102.0 L 136.7 100.2 L 138.2 98.0 L 139.5 95.9 L 140.5 93.7 L 141.3 91.4 L 141.9 89.0 L 142.3 86.5 L 142.5 83.9 L 142.5 81.2 L 142.3 78.3 L 142.3 64.3 Z M 103.7 66.3 L 105.7 68.3 L 103.7 69.8 L 103.7 78.3 L 103.3 81.7 L 102.7 84.9 L 101.8 87.9 L 100.8 90.7 L 99.5 93.3 L 98.0 95.7 L 96.3 97.9 L 94.4 99.8 L 92.3 101.3 L 90.3 102.9 L 89.5 102.0 L 91.2 100.2 L 92.4 98.1 L 93.4 96.0 L 94.3 93.8 L 94.9 91.5 L 95.4 89.1 L 95.7 86.6 L 95.9 84.0 L 95.8 81.2 L 95.7 78.3 L 95.7 64.3 Z M 181.8 62.4 L 183.8 62.4 L 181.8 87.4 L 185.4 89.8 L 187.8 93.4 L 185.4 97.0 L 181.8 99.4 L 177.2 99.4 L 174.7 99.1 L 172.3 98.5 L 170.0 97.5 L 167.9 96.1 L 166.2 94.5 L 164.8 92.5 L 163.9 90.3 L 163.3 88.1 L 163.1 85.8 L 163.2 83.4 L 163.2 65.3 L 171.2 67.3 L 173.2 69.3 L 171.2 70.8 L 171.2 83.4 L 171.5 84.9 L 171.9 86.0 L 172.3 86.7 L 172.8 87.2 L 173.3 87.4 L 173.7 87.5 L 174.2 87.6 L 176.0 87.6 L 177.2 87.4 L 175.8 87.4 Z M 130.6 67.3 L 132.9 69.3 L 130.6 70.90465116500854 L 130.6 93.2 L 121.6 97.7 L 121.6 65.3 Z " />
</g>
</svg>
