<svg xmlns="http://www.w3.org/2000/svg" xmlns:xlink="http://www.w3.org/1999/xlink" version="1.1" baseProfile="full" viewBox="0 0 200 200" width="200" height="200">
<g fill="black">
<path d="M 110.1 177.0 L 130.1 177.0 L 131.3 176.9 L 132.2 176.7 L 132.8 176.5 L 133.2 176.4 L 133.4 176.2 L 133.5 176.0 L 133.7 175.7 L 133.9 175.1 L 134.0 174.2 L 134.1 173.0 L 134.1 107.0 L 95.6 107.0 L 95.6 103.0 L 134.1 103.0 L 134.1 63.0 L 145.06449089050292 64.8274151802063 L 148.4 59.3 L 151.7 53.9 L 154.7 48.8 L 157.5 44.0 L 160.0 39.6 L 162.2 35.6 L 164.0 31.8 L 164.79411764144896 30.0 L 102.7 30.0 L 102.7 26.0 L 166.1 26.0 L 166.63999996185302 25.55 L 166.7 25.4 L 166.77685079574584 25.43595771789551 L 172.1 21.0 L 183.1 30.0 L 178.1 33.0 L 175.37235498428345 34.13651876449585 L 173.3 37.2 L 170.7 40.9 L 167.8 44.7 L 164.5 48.9 L 160.9 53.2 L 157.0 57.8 L 152.6 62.5 L 148.6 66.66666669845581 L 149.1 67.0 L 147.02553195953368 68.24468088150024 L 146.1 69.13461542129517 L 146.1 103.0 L 166.2 103.0 L 176.2 93.0 L 188.2 103.0 L 188.2 107.0 L 146.1 107.0 L 146.1 173.0 L 146.0 175.5 L 145.5 178.0 L 144.7 180.4 L 143.5 182.7 L 141.8 184.7 L 139.8 186.3 L 137.6 187.6 L 135.2 188.4 L 132.7 188.8 L 130.1 189.0 L 130.1 183.0 L 110.1 180.0 Z M 87.1 34.0 L 82.1 37.0 L 81.00405836105347 37.45664234161377 L 79.63611106872558 101.0 L 83.1 101.0 L 87.6 95.0 L 93.6 101.0 L 93.6 105.0 L 79.55 105.0 L 78.0430555343628 175.0 L 81.4777777671814 175.0 L 87.7 168.0 L 95.7 175.0 L 95.7 179.0 L 12.8 179.0 L 12.8 175.0 L 32.1062068939209 175.0 L 35.82344827651978 105.0 L 14.8 105.0 L 14.8 101.0 L 36.035862064361574 101.0 L 39.593793106079104 34.0 L 18.9 34.0 L 18.9 30.0 L 70.1 30.0 L 76.1 25.0 Z M 47.82344827651978 105.0 L 44.1062068939209 175.0 L 66.05655174255371 175.0 L 68.03586206436157 105.0 Z M 51.593793106079104 34.0 L 48.035862064361574 101.0 L 68.148965549469 101.0 L 70.04344825744629 34.0 Z " />
</g>
</svg>
