<svg xmlns="http://www.w3.org/2000/svg" xmlns:xlink="http://www.w3.org/1999/xlink" version="1.1" baseProfile="full" viewBox="0 0 200 200" width="200" height="200">
<g fill="black">
<path d="M 166.6 174.7 L 162.2 165.7 L 158.3 155.5 L 155.0 144.0 L 152.2 131.2 L 150.0 117.2 L 148.3 101.8 L 147.3 85.1 L 147.1 67.0 L 148.9 66.9 L 151.5 84.7 L 154.2 101.0 L 157.1 115.9 L 160.4 129.4 L 163.9 141.4 L 167.9 151.9 L 172.1 161.0 L 176.6 168.5 L 181.4 174.4 L 186.2 178.9 L 188.5 180.9 L 177.7 189.0 L 171.8 182.5 Z M 70.0 176.9 L 90.0 176.9 L 91.2 176.8 L 92.1 176.7 L 92.7 176.5 L 93.0 176.3 L 93.2 176.2 L 93.4 176.0 L 93.5 175.6 L 93.7 175.0 L 93.9 174.1 L 94.0 172.9 L 94.0 126.9 L 55.2 126.9 L 55.2 122.9 L 94.0 122.9 L 94.0 102.2 L 102.66582279205322 103.64430379867554 L 103.1 102.9 L 105.7 98.4 L 108.2 94.1 L 110.5 90.1 L 112.6 86.3 L 114.5 82.7 L 116.3 79.4 L 117.8 76.3 L 118.16000003814698 75.4 L 68.8 75.4 L 68.8 71.4 L 94.0 71.4 L 94.0 46.0 L 16.0 46.0 L 16.0 42.0 L 94.0 42.0 L 94.0 13.0 L 106.0 15.0 L 109.0 17.0 L 106.0 18.8 L 106.0 42.0 L 162.0 42.0 L 172.0 32.0 L 184.0 42.0 L 184.0 46.0 L 106.0 46.0 L 106.0 71.4 L 119.4 71.4 L 120.0237624168396 70.88019800186157 L 120.1 70.7 L 120.18658962249756 70.7445086479187 L 125.4 66.4 L 136.4 75.4 L 131.4 78.4 L 128.30909090042115 79.68787879943848 L 126.8 81.7 L 124.5 84.7 L 122.0 87.8 L 119.3 91.0 L 116.3 94.3 L 113.1 97.8 L 109.6 101.4 L 106.3290322303772 104.41935482025147 L 109.0 106.2 L 106.0 108.0 L 106.0 122.9 L 122.7 122.9 L 132.7 112.9 L 144.7 122.9 L 144.7 126.9 L 106.0 126.9 L 106.0 172.9 L 105.8 175.5 L 105.4 178.0 L 104.6 180.4 L 103.3 182.6 L 101.7 184.6 L 99.7 186.3 L 97.4 187.5 L 95.0 188.3 L 92.5 188.8 L 90.0 188.9 L 90.0 182.9 L 70.0 179.9 Z M 50.0 67.0 L 53.0 69.0 L 50.0 70.8 L 50.0 116.0 L 49.3 125.7 L 48.0 135.0 L 46.1 143.7 L 43.4 151.9 L 40.1 159.6 L 36.1 166.7 L 31.5 173.3 L 26.1 179.1 L 20.1 184.3 L 13.5 188.7 L 12.4 187.2 L 17.5 181.5 L 22.1 175.6 L 26.1 169.5 L 29.5 163.1 L 32.3 156.3 L 34.6 149.1 L 36.3 141.5 L 37.4 133.4 L 38.0 124.9 L 38.0 65.0 Z " />
</g>
</svg>
