<svg xmlns="http://www.w3.org/2000/svg" xmlns:xlink="http://www.w3.org/1999/xlink" version="1.1" baseProfile="full" viewBox="0 0 200 200" width="200" height="200">
<g fill="black">
<path d="M 106.0 105.3 L 109.0 107.3 L 106.0 109.1 L 106.0 126.6 L 144.0 126.6 L 154.0 116.6 L 166.0 126.6 L 166.0 130.6 L 106.0 130.6 L 106.0 154.0 L 166.0 154.0 L 176.0 144.0 L 188.0 154.0 L 188.0 158.0 L 106.0 158.0 L 106.0 184.4 L 94.0 190.4 L 94.0 158.0 L 14.0 158.0 L 14.0 154.0 L 94.0 154.0 L 94.0 130.6 L 46.4930233001709 130.6 L 45.6 131.8 L 42.0 135.8 L 38.0 139.7 L 33.6 143.3 L 28.8 146.6 L 23.5 149.6 L 22.4 148.2 L 26.3 143.7 L 29.9 139.4 L 33.2 135.2 L 36.1 131.1 L 38.7 126.9 L 40.8 122.8 L 42.6 118.6 L 44.1 114.5 L 45.1 110.3 L 45.72790155410767 107.00351696014404 L 45.7 107.0 L 46.3 104.2 L 57.6 108.5 L 60.2 111.0 L 56.439795875549315 112.3673469543457 L 56.1 113.5 L 54.1 118.3 L 51.7 123.0 L 49.380000019073485 126.6 L 94.0 126.6 L 94.0 103.3 Z M 156.0 94.1 L 152.4 90.5 L 149.3168794631958 87.66028366088867 L 141.6 89.1 L 128.4 91.2 L 115.4 93.1 L 102.5 94.7 L 89.8 96.2 L 77.3 97.6 L 65.0 98.8 L 52.9 99.9 L 40.9 100.9 L 33.28036003112793 101.42100105285644 L 31.3 104.6 L 29.2 101.7 L 26.7 89.8 L 28.7 89.7 L 40.4 89.5 L 52.2 89.2 L 63.252812671661374 88.83461780548096 L 64.0 87.7 L 66.6 83.7 L 69.2 79.8 L 71.7 75.9 L 76.3 68.3 L 78.5 64.6 L 80.5 60.8 L 82.4 57.1 L 83.75072174072265 54.3235164642334 L 83.7 54.3 L 84.00481929779053 53.80120477676392 L 84.2 53.4 L 84.23705883026123 53.42117643356323 L 84.8 52.5 L 94.7 59.4 L 96.3 62.6 L 92.33957319259643 62.66828317642212 L 89.5 66.6 L 86.7 70.2 L 83.7 73.7 L 80.6 77.1 L 77.4 80.5 L 74.0 83.8 L 70.4 87.0 L 68.39773664474487 88.63342533111572 L 76.6 88.3 L 89.1 87.8 L 101.8 87.2 L 114.7 86.5 L 127.9 85.9 L 141.3 85.3 L 146.38938570022583 85.11289024353027 L 144.5 83.5 L 140.2 80.1 L 135.6 76.8 L 130.8 73.5 L 125.8 70.2 L 120.5 66.8 L 121.2 65.1 L 127.4 66.8 L 133.2 68.8 L 138.9 71.1 L 144.2 73.7 L 149.3 76.5 L 154.2 79.6 L 158.9 82.8 L 163.3 86.3 L 167.5 89.9 L 171.5 93.8 L 172.9 98.1 L 170.9 102.2 L 166.6 103.6 L 162.5 101.6 L 159.4 97.8 Z M 16.2 73.1 L 15.4 68.6 L 18.0 64.8 L 20.0 63.8 L 21.9 62.3 L 23.7 60.3 L 25.5 57.8 L 27.1 54.7 L 28.6 51.1 L 29.8 47.0 L 31.0 42.3 L 32.0 37.0 L 32.6 31.3 L 34.4 31.2 L 35.2 37.1 L 35.54545450210571 40.9 L 95.5 40.9 L 95.5 12.0 L 107.5 14.0 L 110.5 16.0 L 107.5 17.8 L 107.5 40.9 L 170.3 40.9 L 170.87391300201415 40.42173910140991 L 171.1 39.8 L 171.40519189834595 39.97900676727295 L 176.3 35.9 L 187.3 44.9 L 182.3 47.9 L 178.41111106872557 49.520370388031004 L 178.0 50.0 L 176.0 52.2 L 173.9 54.5 L 171.6 56.9 L 169.1 59.4 L 166.4 62.0 L 163.5 64.7 L 160.4 67.4 L 157.3 70.4 L 155.9 69.2 L 158.2 65.6 L 160.1 62.0 L 162.0 58.6 L 163.7 55.4 L 165.3 52.4 L 166.8 49.5 L 168.1 46.8 L 169.0119999885559 44.9 L 35.7442307472229 44.9 L 35.8 47.8 L 35.5 52.6 L 34.8 57.2 L 33.6 61.4 L 32.1 65.3 L 30.1 68.9 L 27.5 72.1 L 24.5 74.9 L 20.0 75.7 Z " />
</g>
</svg>
