<svg xmlns="http://www.w3.org/2000/svg" xmlns:xlink="http://www.w3.org/1999/xlink" version="1.1" baseProfile="full" viewBox="0 0 200 200" width="200" height="200">
<g fill="black">
<path d="M 16.1 69.2 L 15.5 64.7 L 18.2 61.0 L 20.1 60.0 L 22.0 58.7 L 23.8 56.9 L 25.5 54.5 L 27.2 51.7 L 28.6 48.3 L 29.9 44.4 L 31.0 40.0 L 32.0 35.1 L 32.6 29.7 L 34.4 29.6 L 35.1 35.1 L 35.43018865585327 38.6 L 95.5 38.6 L 95.5 11.3 L 107.5 13.3 L 110.5 15.3 L 107.5 17.1 L 107.5 38.6 L 170.3 38.6 L 170.948837184906 38.05930233001709 L 171.2 37.4 L 171.5101351737976 37.59155406951904 L 176.3 33.6 L 187.3 42.6 L 182.3 45.6 L 178.13999996185302 47.33333330154419 L 177.9 47.6 L 175.9 49.7 L 171.5 54.1 L 169.0 56.4 L 166.39115142822266 58.71897659301758 L 167.1 59.3 L 167.4 62.3 L 164.21297187805175 60.663418006896975 L 163.5 61.3 L 160.3 63.8 L 157.3 66.6 L 155.9 65.5 L 158.2 62.1 L 158.98464221954345 60.72687606811523 L 158.0 60.9 L 149.0 62.1 L 139.0 63.2 L 128.2 64.1 L 116.4 65.0 L 103.8 65.7 L 102.85198602676391 65.74213399887086 L 99.5 75.0 L 96.85272731781006 80.6 L 145.0 80.6 L 155.0 70.6 L 167.0 80.6 L 167.0 84.6 L 94.9618182182312 84.6 L 94.3 86.0 L 87.9 96.4 L 84.65306119918823 100.7 L 166.8181818008423 100.7 L 175.0 91.7 L 185.0 100.7 L 185.0 104.7 L 81.6326530456543 104.7 L 80.5 106.2 L 72.0 115.3 L 70.38679246902466 116.74339618682862 L 73.3 118.2 L 146.6 118.2 L 152.6 113.2 L 163.6 122.2 L 158.6 126.2 L 158.6 180.2 L 146.6 186.2 L 146.6 178.2 L 73.3 178.2 L 73.3 181.2 L 61.3 187.2 L 61.3 124.69142856597901 L 52.0 131.6 L 40.5 138.7 L 27.9 145.1 L 14.3 150.6 L 13.6 149.0 L 26.1 141.7 L 37.6 134.2 L 48.1 126.3 L 57.5 118.1 L 61.3 114.16428575515747 L 61.3 112.2 L 62.57906980514527 112.83953485488891 L 65.9 109.4 L 69.71222219467163 104.7 L 16.0 104.7 L 16.0 100.7 L 72.95666666030884 100.7 L 73.2 100.4 L 79.4 91.0 L 82.8612244606018 84.6 L 33.0 84.6 L 33.0 80.6 L 84.94466018676758 80.6 L 88.9 70.9 L 90.3189513206482 66.29915771484374 L 90.3 66.3 L 75.8 66.7 L 60.4 66.9 L 44.2 66.9 L 29.047467613220213 66.63571166992188 L 27.4 68.6 L 24.4 71.2 L 19.9 71.9 Z M 73.3 158.7 L 73.3 174.2 L 146.6 174.2 L 146.6 158.7 Z M 73.3 140.5 L 73.3 154.7 L 146.6 154.7 L 146.6 140.5 Z M 73.3 122.2 L 73.3 136.5 L 146.6 136.5 L 146.6 122.2 Z M 35.64489793777466 42.6 L 35.7 45.3 L 35.4 49.9 L 34.7 54.2 L 33.6 58.3 L 32.0 62.1 L 30.6298867225647 64.42919254302979 L 44.0 63.1 L 60.2 61.6 L 75.4 60.1 L 89.7 58.7 L 103.1 57.2 L 115.6 55.7 L 127.1 54.2 L 137.6 52.5 L 147.2 50.9 L 154.90174646377562 49.30653524398804 L 154.9 49.3 L 154.9067180633545 49.30550661087036 L 155.9 49.1 L 156.1124593734741 50.29381914138794 L 162.07252750396728 55.17912092208862 L 163.8 52.3 L 165.4 49.4 L 166.9 46.6 L 168.2 44.1 L 168.95 42.6 Z " />
</g>
</svg>
