<svg xmlns="http://www.w3.org/2000/svg" xmlns:xlink="http://www.w3.org/1999/xlink" version="1.1" baseProfile="full" viewBox="0 0 200 200" width="200" height="200">
<g fill="black">
<path d="M 21.6 132.2 L 21.6 128.2 L 64.0 128.2 L 64.0 102.8 L 41.6 102.8 L 41.6 109.8 L 29.6 115.8 L 29.6 65.97692308425903 L 27.4 68.6 L 24.4 71.2 L 19.9 71.9 L 16.1 69.2 L 15.5 64.7 L 18.2 61.0 L 20.1 60.0 L 22.0 58.7 L 23.8 56.9 L 25.5 54.5 L 27.2 51.7 L 28.6 48.3 L 29.9 44.4 L 31.0 40.0 L 32.0 35.1 L 32.6 29.7 L 34.4 29.6 L 35.1 35.1 L 35.43018865585327 38.6 L 95.5 38.6 L 95.5 11.3 L 107.5 13.3 L 110.5 15.3 L 107.5 17.1 L 107.5 38.6 L 170.3 38.6 L 170.948837184906 38.05930233001709 L 171.2 37.4 L 171.5101351737976 37.59155406951904 L 176.3 33.6 L 187.3 42.6 L 182.3 45.6 L 178.13999996185302 47.33333330154419 L 177.9 47.6 L 175.9 49.7 L 171.5 54.1 L 169.0 56.4 L 166.3 58.8 L 163.5 61.3 L 160.3 63.8 L 157.3 66.6 L 155.9 65.5 L 158.2 62.1 L 160.2 58.6 L 162.0 55.3 L 163.8 52.3 L 165.4 49.4 L 166.9 46.6 L 168.2 44.1 L 168.95 42.6 L 35.64489793777466 42.6 L 35.7 45.3 L 35.4 49.9 L 34.7 54.2 L 33.6 58.3 L 32.0 62.1 L 31.517857170104982 62.91964282989502 L 41.6 64.6 L 44.6 66.6 L 41.6 68.4 L 41.6 98.8 L 64.0 98.8 L 64.0 54.0 L 76.0 56.0 L 79.0 58.0 L 76.0 59.8 L 76.0 185.3 L 64.0 191.3 L 64.0 132.2 L 46.2 132.2 L 46.2 142.6 L 45.7 148.8 L 44.8 154.7 L 43.4 160.4 L 41.5 165.8 L 39.3 170.9 L 36.6 175.8 L 33.4 180.3 L 29.9 184.4 L 25.8 188.1 L 21.3 191.3 L 20.1 190.0 L 23.0 185.6 L 25.6 181.2 L 27.9 176.8 L 29.8 172.3 L 31.4 167.7 L 32.7 163.0 L 33.6 158.2 L 34.1 153.2 L 34.3 148.0 L 34.2 142.6 L 34.2 132.2 Z M 117.9 53.8 L 120.9 55.8 L 117.9 57.6 L 117.9 87.6 L 156.5 87.6 L 166.5 77.6 L 178.5 87.6 L 178.5 91.6 L 117.9 91.6 L 117.9 102.4 L 117.1 114.3 L 115.6 125.5 L 113.5 136.1 L 110.7 146.1 L 107.2 155.4 L 103.1 164.1 L 98.3 172.0 L 92.8 179.2 L 86.6 185.6 L 79.7 191.0 L 78.5 189.7 L 83.8 183.0 L 88.5 176.0 L 92.6 168.7 L 96.2 160.8 L 99.3 152.5 L 101.7 143.6 L 103.6 134.1 L 105.0 124.1 L 105.7 113.5 L 105.9 102.3 L 105.9 91.6 L 83.9 91.6 L 83.9 87.6 L 105.9 87.6 L 105.9 51.8 Z M 132.9 186.6 L 130.4 186.2 L 128.0 185.4 L 125.7 184.1 L 123.7 182.5 L 122.0 180.5 L 120.8 178.2 L 120.0 175.8 L 119.6 173.3 L 119.4 170.8 L 119.4 109.4 L 131.4 111.4 L 134.4 113.4 L 131.4 115.2 L 131.4 169.73913040161133 L 135.6 167.0 L 140.1 164.0 L 144.4 161.0 L 148.5 158.0 L 152.4 154.8 L 156.2 151.5 L 159.7 148.0 L 163.0 144.5 L 166.1 140.7 L 168.40340595245362 137.6023160934448 L 168.4 137.6 L 168.44230766296386 137.55 L 169.0 136.8 L 169.0456753730774 136.83692903518676 L 169.5 136.3 L 178.4 144.4 L 179.4 147.8 L 175.54153842926024 147.25846157073974 L 174.5 148.3 L 170.5 152.1 L 166.3 155.5 L 161.9 158.8 L 157.4 161.7 L 152.6 164.4 L 147.7 166.7 L 142.5 168.8 L 137.2 170.4 L 131.6 171.7 L 131.43636360168458 171.23636360168456 L 131.5 172.0 L 131.7 172.9 L 131.8 173.5 L 132.0 173.8 L 132.4 174.2 L 133.3 174.5 L 134.2 174.7 L 135.4 174.8 L 172.5 174.8 L 178.5 149.8 L 180.5 149.8 L 178.5 174.8 L 182.1 177.2 L 184.5 180.8 L 182.1 184.4 L 178.5 186.8 L 135.4 186.8 Z M 174.5 122.1 L 175.5 125.5 L 171.61975870132446 124.88733034133911 L 171.4 125.1 L 168.2 128.0 L 164.8 130.7 L 161.3 133.3 L 157.7 135.8 L 153.9 138.0 L 150.0 140.1 L 145.9 142.0 L 141.7 143.6 L 137.4 145.2 L 136.6 143.6 L 140.1 140.8 L 143.4 137.9 L 146.6 135.1 L 149.7 132.3 L 152.6 129.4 L 155.4 126.5 L 158.1 123.6 L 160.6 120.6 L 163.0 117.5 L 164.70423784255982 115.20298376083375 L 164.7 115.2 L 164.88181819915772 114.96363639831543 L 165.3 114.4 L 165.30935907363892 114.40783319473266 L 165.7 113.9 Z M 171.6 100.3 L 172.5 103.8 L 168.5427152633667 103.03631343841553 L 165.7 105.5 L 162.6 107.9 L 159.4 110.3 L 152.6 114.7 L 149.0 116.7 L 145.2 118.5 L 141.4 120.2 L 137.4 121.9 L 136.5 120.3 L 139.7 117.6 L 142.6 114.7 L 145.5 111.9 L 148.3 109.1 L 150.9 106.4 L 153.5 103.6 L 158.3 98.0 L 160.5 95.2 L 161.96535129547118 93.14850816726684 L 161.9 93.1 L 162.36666669845582 92.58666667938232 L 162.5 92.4 L 162.52032384872436 92.41764373779297 L 162.9 92.0 Z M 145.4 75.5 L 144.5 73.4 L 143.5 71.3 L 142.4 69.3 L 141.2 67.3 L 139.8 65.3 L 138.3 63.3 L 136.6 61.2 L 134.5 59.6 L 135.4 58.1 L 137.9 59.2 L 140.6 60.2 L 143.1 61.3 L 145.5 62.7 L 147.8 64.3 L 150.0 66.0 L 152.1 67.9 L 154.1 70.0 L 155.9 72.3 L 157.6 74.7 L 157.7 79.3 L 154.7 82.7 L 150.1 82.8 L 146.7 79.8 L 146.1 77.6 Z " />
</g>
</svg>
