<svg xmlns="http://www.w3.org/2000/svg" xmlns:xlink="http://www.w3.org/1999/xlink" version="1.1" baseProfile="full" viewBox="0 0 200 200" width="200" height="200">
<g fill="black">
<path d="M 65.2 126.5 L 134.7 126.5 L 140.7 121.5 L 151.7 130.5 L 146.7 134.5 L 146.7 181.1 L 134.7 187.1 L 134.7 179.1 L 65.2 179.1 L 65.2 182.1 L 53.2 188.1 L 53.2 120.5 Z M 65.2 154.0 L 65.2 175.1 L 134.7 175.1 L 134.7 154.0 Z M 65.2 130.5 L 65.2 150.0 L 134.7 150.0 L 134.7 130.5 Z M 144.2 81.5 L 145.7 84.8 L 141.47214670181273 84.72710599899293 L 140.0 86.4 L 134.6 91.8 L 131.5 94.7 L 128.1 97.8 L 124.4 101.0 L 120.4 104.3 L 115.9 107.7 L 114.6222222328186 108.7 L 161.4 108.7 L 171.4 98.7 L 183.4 108.7 L 183.4 112.7 L 16.5 112.7 L 16.5 108.7 L 111.01739130020141 108.7 L 113.6 105.4 L 116.8 100.9 L 119.9 96.8 L 122.8 92.9 L 125.4 89.3 L 127.7 86.0 L 129.7 82.9 L 131.5 80.0 L 133.0 77.4 L 133.6937131881714 75.94950885772705 L 133.6 75.9 L 134.6 74.3 Z M 72.6 98.4 L 71.5 95.6 L 70.3 93.0 L 68.8 90.3 L 67.1 87.6 L 65.2 85.0 L 63.0 82.3 L 60.5 79.6 L 57.7 77.1 L 58.6 75.6 L 62.1 77.3 L 65.6 78.9 L 68.9 80.8 L 72.0 82.9 L 74.8 85.3 L 77.4 87.9 L 79.8 90.7 L 81.9 93.7 L 83.8 96.9 L 85.4 100.3 L 84.9 104.9 L 81.4 107.9 L 76.9 107.4 L 73.9 103.9 L 73.3 101.1 Z M 32.1 69.0 L 94.0 69.0 L 94.0 47.3 L 106.0 49.3 L 109.0 51.3 L 106.0 53.1 L 106.0 69.0 L 145.9 69.0 L 155.9 59.0 L 157.8464882850647 60.622073554992674 L 159.2 58.2 L 161.1 55.0 L 162.8 52.1 L 164.4 49.3 L 165.9 46.6 L 167.2 44.2 L 167.8 43.0 L 34.646808528900145 43.0 L 34.7 45.5 L 34.4 50.0 L 33.7 54.2 L 32.5 58.1 L 31.0 61.8 L 28.9 65.1 L 26.4 68.1 L 23.3 70.6 L 18.8 71.2 L 15.1 68.5 L 14.6 63.9 L 17.3 60.3 L 19.2 59.4 L 21.1 58.1 L 22.9 56.4 L 24.6 54.3 L 26.2 51.6 L 27.7 48.4 L 29.0 44.7 L 30.1 40.4 L 31.1 35.7 L 31.6 30.5 L 33.4 30.5 L 34.1 35.8 L 34.41999998092651 39.0 L 94.5 39.0 L 94.5 12.9 L 106.5 14.9 L 109.5 16.9 L 106.5 18.7 L 106.5 39.0 L 169.3 39.0 L 169.9640000343323 38.446666622161864 L 170.3 37.7 L 170.6159776687622 37.90335197448731 L 175.3 34.0 L 186.3 43.0 L 181.3 46.0 L 176.842857170105 47.85714282989502 L 176.8 47.9 L 174.9 49.9 L 172.7 51.9 L 170.4 54.1 L 167.9 56.3 L 165.3 58.6 L 162.4 61.0 L 160.2310580253601 62.60921497344971 L 167.9 69.0 L 167.9 73.0 L 32.1 73.0 Z " />
</g>
</svg>
