<svg xmlns="http://www.w3.org/2000/svg" xmlns:xlink="http://www.w3.org/1999/xlink" version="1.1" baseProfile="full" viewBox="0 0 200 200" width="200" height="200">
<g fill="black">
<path d="M 22.4 160.6 L 26.9 159.9 L 31.6 159.2 L 34.2 158.75744676589966 L 34.2 71.5 L 22.8 71.5 L 22.8 69.6 L 19.8 70.0 L 16.1 67.3 L 15.5 62.7 L 18.2 59.0 L 20.2 58.1 L 22.1 56.8 L 23.9 55.1 L 25.6 52.9 L 27.2 50.2 L 28.7 46.9 L 29.9 43.2 L 31.1 38.9 L 32.1 34.1 L 32.6 28.8 L 34.4 28.8 L 35.1 34.2 L 35.41372547149658 37.4 L 95.5 37.4 L 95.5 11.0 L 107.5 13.0 L 110.5 15.0 L 107.5 16.8 L 107.5 37.4 L 170.3 37.4 L 170.93000001907347 36.875 L 171.2 36.2 L 171.50805368423462 36.39328861236572 L 176.3 32.4 L 187.3 41.4 L 182.3 44.4 L 178.16086959838867 46.1246376991272 L 177.9 46.4 L 175.9 48.4 L 173.7 50.5 L 171.4 52.6 L 168.9 54.9 L 166.3 57.2 L 163.4 59.6 L 160.3 62.0 L 157.3 64.8 L 155.9 63.6 L 158.3 60.3 L 160.2 56.9 L 162.1 53.7 L 163.8 50.7 L 165.4 47.9 L 166.9 45.2 L 168.2 42.7 L 168.8782608985901 41.4 L 35.64468088150024 41.4 L 35.7 44.0 L 35.4 48.5 L 34.7 52.8 L 33.6 56.7 L 32.0 60.4 L 29.9 63.8 L 27.4 66.8 L 26.565384578704833 67.5 L 106.71818180084229 67.5 L 114.9 58.5 L 124.9 67.5 L 124.9 71.5 L 79.4 71.5 L 79.4 182.5 L 67.4 188.5 L 67.4 158.02307691574097 L 63.2 159.8 L 58.1 161.7 L 53.1 163.5 L 48.1 165.1 L 43.3 166.7 L 38.6 168.2 L 29.4 171.0 L 29.03249044418335 171.10858240127564 L 27.6 174.8 L 25.0 172.3 L 20.5 161.0 Z M 177.2 160.5 L 175.7 162.5 L 173.9 164.2 L 172.0 165.7 L 169.9 167.0 L 167.6 167.9 L 165.2 168.5 L 162.7 168.9 L 160.2 169.1 L 160.2 163.1 L 150.2 160.1 L 150.2 157.1 L 160.2 157.1 L 161.6 157.0 L 162.7 156.8 L 163.7 156.5 L 164.6 156.2 L 165.3 155.8 L 166.0 155.2 L 166.6 154.6 L 167.3 153.8 L 167.9 152.7 L 168.4 151.5 L 169.2 149.8 L 169.8 147.0 L 170.2 143.5 L 170.1 139.4 L 169.4 134.9 L 168.0 130.3 L 165.7 125.7 L 162.5 121.0 L 158.0 116.4 L 152.4 111.4 L 152.4726414680481 111.22358493804931 L 151.1 110.4 L 153.1 105.5 L 155.1 100.7 L 157.0 96.2 L 158.8 91.8 L 160.6 87.6 L 162.2 83.4 L 163.7 79.4 L 165.0 75.5 L 166.03783779144288 72.3 L 143.5 72.3 L 143.5 181.8 L 131.5 187.8 L 131.5 62.3 L 143.5 68.3 L 166.9 68.3 L 172.9 63.3 L 183.9 72.3 L 178.9 75.3 L 176.62378225326538 76.24842405319214 L 174.8 79.8 L 172.7 83.6 L 170.4 87.5 L 167.9 91.4 L 165.3 95.3 L 162.5 99.3 L 159.4 103.3 L 156.1 107.3 L 153.80909090042115 109.91818180084229 L 160.9 112.1 L 167.2 116.2 L 172.1 121.2 L 175.8 126.6 L 178.3 132.2 L 179.9 137.8 L 180.7 143.1 L 180.9 148.0 L 180.4 152.3 L 179.5 156.1 L 178.5 158.4 Z M 114.1 148.4 L 111.9 143.7 L 109.3 138.9 L 108.76315793991088 138.0410526275635 L 107.6 140.6 L 103.2 148.9 L 98.4 156.5 L 93.2 163.5 L 87.5 169.8 L 81.4 175.3 L 80.1 174.0 L 84.6 167.4 L 88.8 160.4 L 92.8 153.2 L 96.5 145.4 L 99.8 137.3 L 102.68888893127442 128.9222222328186 L 99.1 124.2 L 94.9 119.2 L 90.4 114.0 L 85.5 108.6 L 86.7 107.2 L 92.9 111.1 L 98.6 115.3 L 103.8 119.7 L 105.06414489746093 120.88513584136963 L 105.5 119.4 L 107.9 109.8 L 109.9 99.6 L 111.1277777671814 91.8 L 83.5 91.8 L 83.5 87.8 L 111.5 87.8 L 117.5 82.8 L 128.5 91.8 L 123.5 94.8 L 122.48340177536011 95.22358255386352 L 121.1 101.9 L 118.3 112.4 L 115.1 122.4 L 112.77090473175049 128.6552845954895 L 113.0 128.9 L 117.0 133.7 L 120.5 138.6 L 123.7 143.6 L 126.4 148.7 L 128.7 154.0 L 128.3 158.5 L 124.9 161.5 L 120.3 161.2 L 117.3 157.8 L 115.9 153.1 Z M 46.2 129.5 L 46.2 156.88431367874145 L 51.2 156.1 L 56.5 155.3 L 61.9 154.6 L 67.4 153.9 L 67.4 129.5 Z M 46.2 99.8 L 46.2 125.5 L 67.4 125.5 L 67.4 99.8 Z M 46.2 71.5 L 46.2 95.8 L 67.4 95.8 L 67.4 71.5 Z " />
</g>
</svg>
