<svg xmlns="http://www.w3.org/2000/svg" xmlns:xlink="http://www.w3.org/1999/xlink" version="1.1" baseProfile="full" viewBox="0 0 200 200" width="200" height="200">
<g fill="black">
<path d="M 130.6 176.0 L 150.6 176.0 L 151.8 175.9 L 152.7 175.7 L 153.3 175.5 L 153.7 175.4 L 153.9 175.2 L 154.0 175.0 L 154.2 174.7 L 154.4 174.1 L 154.5 173.2 L 154.6 172.0 L 154.6 69.0 L 103.9 69.0 L 103.9 65.0 L 154.6 65.0 L 154.6 13.0 L 166.6 15.0 L 169.6 17.0 L 166.6 18.8 L 166.6 65.0 L 170.8181818008423 65.0 L 179.0 56.0 L 189.0 65.0 L 189.0 69.0 L 166.6 69.0 L 166.6 172.0 L 166.5 174.5 L 166.0 177.0 L 165.2 179.4 L 164.0 181.7 L 162.3 183.7 L 160.3 185.3 L 158.1 186.6 L 155.7 187.4 L 153.2 187.8 L 150.6 188.0 L 150.6 182.0 L 130.6 179.0 Z M 32.0 175.0 L 46.0 175.0 L 47.2 174.9 L 48.1 174.7 L 48.7 174.5 L 49.1 174.4 L 49.3 174.2 L 49.4 174.0 L 49.6 173.7 L 49.8 173.1 L 49.9 172.2 L 50.0 171.0 L 50.0 89.0 L 62.0 91.0 L 65.0 93.0 L 62.0 94.8 L 62.0 171.0 L 61.9 173.5 L 61.4 176.0 L 60.6 178.4 L 59.4 180.7 L 57.7 182.7 L 55.7 184.3 L 53.5 185.6 L 51.1 186.4 L 48.6 186.8 L 46.0 187.0 L 46.0 181.0 L 32.0 178.0 Z M 40.7 106.2 L 43.2 108.8 L 39.697368431091306 110.01000003814697 L 38.7 113.8 L 36.5 121.1 L 34.3 128.3 L 31.9 135.2 L 29.3 142.0 L 26.7 148.6 L 23.9 154.9 L 20.9 161.0 L 17.6 166.8 L 14.1 172.3 L 12.4 171.6 L 14.1 165.3 L 15.9 159.0 L 17.7 152.6 L 19.5 146.1 L 21.3 139.4 L 23.0 132.6 L 24.6 125.6 L 26.2 118.4 L 27.6 111.1 L 28.81300687789917 104.60174884796143 L 28.8 104.6 L 28.90344829559326 104.11724138259888 L 29.0 103.6 L 29.01363639831543 103.60303030014038 L 29.4 101.8 Z M 85.1 138.8 L 83.6 134.1 L 82.0 129.6 L 80.3 125.2 L 78.4 120.9 L 76.3 116.7 L 74.1 112.5 L 71.8 108.4 L 69.3 104.3 L 70.6 103.1 L 74.6 106.0 L 78.3 109.3 L 81.7 113.0 L 84.8 117.0 L 87.7 121.2 L 90.4 125.6 L 92.9 130.3 L 95.2 135.1 L 97.2 140.2 L 99.0 145.5 L 98.4 150.0 L 94.8 152.9 L 90.2 152.2 L 87.4 148.6 L 86.3 143.6 Z M 127.4 119.9 L 125.9 116.1 L 124.2 112.3 L 122.2 108.5 L 119.9 104.8 L 117.3 101.0 L 114.4 97.1 L 111.3 93.2 L 107.8 89.3 L 108.9 87.9 L 113.6 90.5 L 117.9 93.5 L 121.9 96.7 L 125.6 100.1 L 129.0 103.7 L 132.0 107.5 L 134.7 111.5 L 137.1 115.7 L 139.2 120.0 L 140.9 124.5 L 140.3 129.0 L 136.7 131.8 L 132.2 131.2 L 129.3 127.6 L 128.5 123.7 Z M 14.2 85.0 L 50.0 85.0 L 50.0 14.0 L 62.0 16.0 L 65.0 18.0 L 62.0 19.8 L 62.0 51.0 L 78.71818180084229 51.0 L 86.9 42.0 L 96.9 51.0 L 96.9 55.0 L 62.0 55.0 L 62.0 85.0 L 82.5 85.0 L 92.5 75.0 L 104.5 85.0 L 104.5 89.0 L 14.2 89.0 Z " />
</g>
</svg>
