<svg xmlns="http://www.w3.org/2000/svg" xmlns:xlink="http://www.w3.org/1999/xlink" version="1.1" baseProfile="full" viewBox="0 0 200 200" width="200" height="200">
<g fill="black">
<path d="M 136.9 175.5 L 158.2 175.5 L 159.1 175.3 L 160.0 175.0 L 160.2 174.8 L 160.3 174.6 L 160.5 174.3 L 160.7 173.7 L 160.9 172.8 L 160.9 96.8 L 41.0 96.8 L 41.0 180.8 L 29.0 186.8 L 29.0 86.8 L 41.0 92.8 L 160.9 92.8 L 166.9 87.8 L 177.9 96.8 L 172.9 100.8 L 172.9 171.5 L 172.8 174.1 L 172.3 176.6 L 171.5 179.0 L 170.3 181.3 L 168.7 183.3 L 166.6 184.9 L 164.4 186.2 L 162.0 187.0 L 159.5 187.4 L 156.9 187.5 L 156.9 181.5 L 136.9 178.5 Z M 147.7 136.0 L 147.7 140.0 L 54.2 140.0 L 54.2 136.0 L 125.7 136.0 L 135.7 126.0 Z M 70.5 78.0 L 90.5 78.0 L 91.7 77.9 L 92.6 77.7 L 93.5 77.4 L 93.9 77.0 L 94.2 76.1 L 94.4 75.2 L 94.5 74.0 L 94.5 11.2 L 106.5 13.2 L 109.5 15.2 L 106.5 17.0 L 106.5 74.0 L 106.3 76.5 L 105.9 79.0 L 105.1 81.4 L 103.8 83.7 L 102.2 85.7 L 100.2 87.3 L 97.9 88.6 L 95.5 89.4 L 93.0 89.8 L 90.5 90.0 L 90.5 84.0 L 70.5 81.0 Z M 77.2 32.8 L 78.7 36.0 L 74.93090906143189 36.0 L 73.3 38.3 L 69.1 43.6 L 64.5 48.7 L 59.6 53.7 L 54.3 58.5 L 48.6 63.2 L 42.7 67.6 L 36.3 71.9 L 29.5 75.8 L 22.3 79.5 L 21.4 77.9 L 27.4 72.7 L 33.1 67.6 L 38.5 62.6 L 43.6 57.5 L 48.4 52.5 L 52.8 47.4 L 56.8 42.3 L 60.5 37.1 L 63.9 31.9 L 66.43676471710205 27.418382358551025 L 66.4 27.4 L 66.77671232223511 26.81780824661255 L 66.9 26.6 L 66.91270036697388 26.607644844055176 L 67.5 25.7 Z M 162.5 65.8 L 158.1 61.0 L 153.4 56.4 L 148.6 51.8 L 143.4 47.4 L 138.1 43.0 L 132.5 38.7 L 126.8 34.4 L 120.8 30.1 L 121.7 28.5 L 128.6 31.1 L 135.3 34.2 L 141.8 37.6 L 147.9 41.2 L 153.8 45.2 L 159.5 49.3 L 164.9 53.7 L 170.1 58.3 L 175.1 63.2 L 179.8 68.2 L 181.1 72.6 L 179.0 76.6 L 174.6 77.9 L 170.5 75.8 L 166.6 70.7 Z " />
</g>
</svg>
