<svg xmlns="http://www.w3.org/2000/svg" xmlns:xlink="http://www.w3.org/1999/xlink" version="1.1" baseProfile="full" viewBox="0 0 200 200" width="200" height="200">
<g fill="black">
<path d="M 52.0 114.6 L 51.787036991119386 116.96388893127441 L 54.0 116.3 L 60.2 114.5 L 66.6 112.7 L 73.3 111.1 L 74.0 112.8 L 68.1 116.3 L 62.2 119.5 L 56.4 122.4 L 51.061021995544436 125.02265586853028 L 51.0 125.7 L 49.5 136.2 L 47.3 146.0 L 44.6 155.1 L 41.3 163.6 L 37.4 171.3 L 32.9 178.3 L 27.7 184.4 L 22.0 189.6 L 20.7 188.3 L 24.7 182.1 L 28.3 175.5 L 31.5 168.4 L 34.2 160.9 L 36.4 152.8 L 38.2 144.1 L 39.5 134.7 L 39.85771474838257 130.27328023910522 L 39.8 130.3 L 34.5 132.7 L 29.4 135.0 L 24.4 137.2 L 23.366055011749268 137.64311923980713 L 22.4 141.4 L 19.5 139.3 L 13.6 128.6 L 15.5 128.0 L 20.5 126.5 L 25.6 124.9 L 31.0 123.3 L 36.5 121.6 L 40.46618947982788 120.39597816467285 L 40.7 114.2 L 40.5 103.0 L 40.5 87.0 L 21.3 87.0 L 21.3 83.0 L 40.5 83.0 L 40.5 39.12142858505249 L 37.201346969604494 40.12280540466308 L 37.0 40.7 L 35.3 45.1 L 33.4 49.5 L 31.3 53.9 L 29.0 58.4 L 26.5 62.8 L 23.8 67.3 L 20.8 71.7 L 17.5 76.1 L 13.9 80.4 L 12.4 79.5 L 14.3 74.3 L 16.2 69.2 L 18.0 64.4 L 19.7 59.6 L 21.3 55.0 L 22.7 50.5 L 24.0 46.1 L 25.1 41.8 L 26.0 37.6 L 26.604730701446535 34.500755310058594 L 26.6 34.5 L 26.654545497894286 34.245454502105716 L 26.8 33.5 L 26.813565254211426 33.50336227416992 L 27.2 31.7 L 38.5 36.4 L 40.5 38.56666669845581 L 40.5 17.0 L 52.5 19.0 L 55.5 21.0 L 52.5 22.8 L 52.5 83.0 L 56.7777777671814 83.0 L 63.0 76.0 L 71.0 83.0 L 71.0 87.0 L 52.5 87.0 L 52.5 103.0 L 52.49543380737305 103.00684928894043 Z M 134.9 176.0 L 154.9 176.0 L 156.1 175.9 L 157.1 175.7 L 157.6 175.5 L 158.0 175.4 L 158.2 175.2 L 158.3 175.0 L 158.5 174.7 L 158.7 174.1 L 158.8 173.2 L 158.9 172.0 L 158.9 73.0 L 130.2 73.0 L 130.2 69.0 L 158.9 69.0 L 158.9 15.0 L 170.9 17.0 L 173.9 19.0 L 170.9 20.8 L 170.9 69.0 L 175.8 69.0 L 180.3 63.0 L 186.3 69.0 L 186.3 73.0 L 170.9 73.0 L 170.9 172.0 L 170.8 174.5 L 170.3 177.0 L 169.5 179.4 L 168.3 181.7 L 166.7 183.7 L 164.6 185.3 L 162.4 186.6 L 160.0 187.4 L 157.5 187.8 L 154.9 188.0 L 154.9 182.0 L 134.9 179.0 Z M 90.4 175.0 L 110.4 175.0 L 111.6 174.9 L 112.6 174.7 L 113.1 174.5 L 113.5 174.4 L 113.7 174.2 L 113.8 174.0 L 114.0 173.7 L 114.2 173.1 L 114.3 172.2 L 114.4 171.0 L 114.4 136.00615386962892 L 111.2 139.6 L 104.3 146.8 L 96.9 153.7 L 89.1 160.4 L 80.9 166.9 L 72.3 173.0 L 63.1 178.7 L 62.0 177.2 L 69.9 170.0 L 77.5 162.8 L 84.7 155.6 L 91.6 148.4 L 98.0 141.0 L 104.1 133.6 L 109.8 126.1 L 114.4 119.41698112487794 L 114.4 119.33636360168457 L 114.0 119.5 L 107.8 121.9 L 102.0 124.0 L 96.7 125.9 L 91.9 127.7 L 87.6 129.3 L 83.7 130.8 L 80.4 132.1 L 79.08984775543213 132.64213199615477 L 78.0 136.6 L 75.1 134.4 L 69.6 123.5 L 71.5 122.9 L 74.2 122.4 L 77.4 121.8 L 80.6 121.1777777671814 L 80.6 34.0 L 92.6 40.0 L 96.9333333015442 40.0 L 97.5 38.3 L 98.1 35.0 L 98.8 31.9 L 99.4 29.0 L 100.0 26.3 L 100.5 23.7 L 101.0 21.2 L 101.4 18.9 L 101.7 16.8 L 101.84753885269166 15.86558723449707 L 101.6 15.8 L 102.5 13.4 L 113.3 18.9 L 115.4 21.8 L 110.96546487808227 22.655787467956543 L 109.7 24.7 L 108.3 26.8 L 106.9 29.1 L 105.3 31.5 L 103.6 34.0 L 101.8 36.6 L 99.8 39.3 L 99.40333337783814 40.0 L 114.4 40.0 L 120.4 35.0 L 131.4 44.0 L 126.4 48.0 L 126.4 102.87575759887696 L 134.9 108.8 L 136.4 112.1 L 132.740740776062 112.1 L 129.6 116.9 L 126.4 121.20344829559326 L 126.4 171.0 L 126.3 173.5 L 125.8 176.0 L 125.0 178.4 L 123.8 180.7 L 122.2 182.7 L 120.1 184.3 L 117.9 185.6 L 115.5 186.4 L 113.0 186.8 L 110.4 187.0 L 110.4 181.0 L 90.4 178.0 Z M 141.5 119.9 L 141.1 116.6 L 140.4 113.2 L 139.5 109.7 L 138.4 106.2 L 137.1 102.6 L 135.6 98.9 L 134.0 95.1 L 131.9 91.3 L 133.3 90.2 L 139.5 96.4 L 142.2 99.7 L 144.7 103.1 L 146.9 106.6 L 148.8 110.2 L 150.4 113.9 L 151.8 117.7 L 152.9 121.5 L 153.7 125.5 L 152.3 129.8 L 148.3 131.9 L 143.9 130.5 L 141.8 126.5 L 141.7 123.2 Z M 92.6 94.0 L 92.6 119.08823528289795 L 94.8 118.7 L 100.4 117.7 L 106.5 116.8 L 113.1 115.9 L 114.4 115.75352115631104 L 114.4 94.0 Z M 92.6 69.0 L 92.6 90.0 L 114.4 90.0 L 114.4 69.0 Z M 63.8 52.6 L 63.0 49.6 L 62.1 46.7 L 58.8 38.0 L 57.5 35.0 L 55.9 32.3 L 57.3 31.1 L 59.7 33.4 L 62.2 35.5 L 64.6 37.9 L 66.8 40.5 L 68.9 43.1 L 70.8 46.0 L 72.6 48.9 L 74.3 52.0 L 75.8 55.1 L 77.3 58.4 L 76.7 62.9 L 73.1 65.8 L 68.6 65.3 L 65.7 61.7 L 65.2 58.6 Z M 92.6 44.0 L 92.6 65.0 L 114.4 65.0 L 114.4 44.0 Z " />
</g>
</svg>
