<svg xmlns="http://www.w3.org/2000/svg" xmlns:xlink="http://www.w3.org/1999/xlink" version="1.1" baseProfile="full" viewBox="0 0 200 200" width="200" height="200">
<g fill="black">
<path d="M 176.4 106.0 L 178.5 109.0 L 174.73891086578368 109.64846363067628 L 170.8 118.3 L 164.3 129.8 L 157.0 140.4 L 148.9 150.2 L 140.0 159.0 L 130.3 166.9 L 119.7 173.9 L 108.4 179.9 L 96.4 184.9 L 83.5 188.8 L 83.0 187.1 L 94.9 181.4 L 105.9 175.2 L 116.1 168.4 L 125.5 161.0 L 134.1 152.9 L 141.9 144.1 L 148.9 134.6 L 155.1 124.4 L 160.5 113.4 L 164.86428575515748 102.53571424484252 L 165.7 100.4 Z M 36.2 134.2 L 74.7 134.2 L 80.7 129.2 L 91.7 138.2 L 86.7 142.2 L 86.7 174.1 L 74.7 180.1 L 74.7 174.1 L 36.2 174.1 L 36.2 181.1 L 24.2 187.1 L 24.2 128.2 Z M 36.2 138.2 L 36.2 170.1 L 74.7 170.1 L 74.7 138.2 Z M 61.5 50.0 L 64.5 52.0 L 61.5 53.8 L 61.5 59.42448978424072 L 63.3 58.8 L 68.1 57.1 L 72.6 55.4 L 75.93206110000611 53.97197380065918 L 75.9 53.9 L 75.96617650985718 53.95735292434692 L 76.8 53.6 L 77.35148935317993 55.15795745849609 L 86.4 63.0 L 86.6 66.1 L 82.57500848770141 64.29776496887207 L 80.8 64.9 L 76.1 66.2 L 71.1 67.4 L 66.0 68.5 L 61.5 69.33333330154419 L 61.5 89.0 L 67.8 89.0 L 77.8 79.0 L 89.8 89.0 L 89.8 93.0 L 61.5 93.0 L 61.5 111.0 L 78.71818180084229 111.0 L 86.9 102.0 L 95.32786073684693 109.58507461547852 L 97.1 105.7 L 99.5 100.1 L 101.8 94.5 L 103.9 88.9 L 105.9 83.3 L 107.6 77.7 L 109.1 72.1 L 110.4 66.4 L 111.5 60.7 L 112.16129398345947 55.905618572235106 L 112.1 55.9 L 112.28620691299439 55.0 L 112.3 54.9 L 112.30665159225464 54.90118379592896 L 112.7 53.0 L 124.1 57.0 L 126.7 59.5 L 123.14531717300414 60.8823766708374 L 122.6 63.1 L 120.8 69.2 L 118.7 75.1 L 116.3 80.9 L 113.7 86.6 L 110.8 92.1 L 107.6 97.5 L 104.2 102.7 L 100.3 107.7 L 96.9 111.49534883499146 L 96.9 115.0 L 61.5 115.0 L 61.5 126.0 L 49.5 132.0 L 49.5 115.0 L 14.0 115.0 L 14.0 111.0 L 49.5 111.0 L 49.5 93.0 L 21.1 93.0 L 21.1 89.0 L 49.5 89.0 L 49.5 71.17241382598877 L 49.3 71.2 L 43.4 71.9 L 37.2 72.5 L 30.8 72.8 L 24.1 72.8 L 23.9 71.1 L 30.1 69.1 L 36.2 67.2 L 42.1 65.5 L 47.8 63.8 L 49.5 63.26481485366821 L 49.5 48.0 Z M 114.6 119.0 L 130.6 119.0 L 131.8 118.9 L 132.7 118.7 L 133.3 118.5 L 133.7 118.4 L 133.9 118.2 L 134.0 118.0 L 134.2 117.7 L 134.4 117.1 L 134.5 116.2 L 134.6 115.0 L 134.6 14.0 L 146.6 16.0 L 149.6 18.0 L 146.6 19.8 L 146.6 115.0 L 146.5 117.5 L 146.0 120.0 L 145.2 122.4 L 144.0 124.7 L 142.3 126.7 L 140.3 128.3 L 138.1 129.6 L 135.7 130.4 L 133.2 130.8 L 130.6 131.0 L 130.6 125.0 L 114.6 122.0 Z M 173.6 84.3 L 171.9 80.3 L 170.0 76.4 L 167.9 72.6 L 165.6 68.7 L 163.1 64.9 L 160.4 61.1 L 157.6 57.2 L 154.6 53.3 L 155.8 51.9 L 160.1 54.6 L 164.1 57.6 L 167.9 60.8 L 171.4 64.2 L 174.7 67.7 L 177.7 71.5 L 180.5 75.4 L 183.1 79.5 L 185.5 83.7 L 187.7 88.0 L 187.5 92.6 L 184.2 95.7 L 179.7 95.6 L 176.5 92.3 L 175.1 88.3 Z M 26.9 43.9 L 26.9 48.3 L 26.7 52.4 L 26.3 56.2 L 25.6 59.8 L 24.7 63.2 L 23.5 66.3 L 22.0 69.3 L 18.0 71.5 L 13.6 70.3 L 11.4 66.3 L 12.5 61.9 L 13.8 60.6 L 15.2 58.9 L 16.5 56.6 L 17.8 53.9 L 19.0 50.8 L 20.1 47.3 L 21.1 43.3 L 22.1 38.9 L 23.1 34.1 L 23.8 29.0 L 25.6 29.0 L 26.1 34.2 L 26.55600004196167 38.0 L 49.5 38.0 L 49.5 12.0 L 61.5 14.0 L 64.5 16.0 L 61.5 17.8 L 61.5 38.0 L 84.5 38.0 L 90.5 33.0 L 101.5 42.0 L 96.5 45.0 L 92.44879999160767 46.68800001144409 L 92.0 47.3 L 89.4 50.5 L 88.0 52.3 L 86.4 54.2 L 84.7 56.1 L 83.4 58.3 L 81.8 57.6 L 82.7 55.1 L 83.1 52.6 L 83.5 50.3 L 83.9 48.1 L 84.2 46.0 L 84.4 44.1 L 84.5 43.2 L 84.5 42.0 L 26.81914892196655 42.0 Z " />
</g>
</svg>
