<svg xmlns="http://www.w3.org/2000/svg" xmlns:xlink="http://www.w3.org/1999/xlink" version="1.1" baseProfile="full" viewBox="0 0 200 200" width="200" height="200">
<g fill="black">
<path d="M 63.9 167.4 L 62.2 163.9 L 60.3 160.4 L 58.2 157.0 L 55.9 153.5 L 53.3 150.1 L 50.6 146.7 L 48.2106258392334 143.81627264022828 L 46.8 149.4 L 43.6 158.2 L 39.7 166.2 L 35.0 173.5 L 29.6 179.9 L 23.4 185.4 L 16.5 190.0 L 15.4 188.5 L 20.8 182.7 L 25.4 176.5 L 29.5 170.0 L 32.9 162.9 L 35.6 155.3 L 37.8 147.1 L 39.3 138.2 L 39.55531911849975 135.2 L 16.0 135.2 L 16.0 131.2 L 39.895744705200194 131.2 L 40.1 128.8 L 40.4 118.6 L 39.9 107.8 L 39.96962661743164 107.7976791381836 L 39.9 105.5 L 51.9 107.4 L 55.0 109.2 L 51.83272304534912 111.26842575073242 L 51.7 118.9 L 50.8 129.7 L 50.56470584869385 131.2 L 59.3 131.2 L 69.3 121.2 L 81.3 131.2 L 81.3 135.2 L 49.937254905700684 135.2 L 49.2 139.9 L 49.129722595214844 140.17818145751954 L 49.9 140.6 L 53.9 143.1 L 57.7 145.8 L 61.2 148.7 L 64.5 151.8 L 67.6 155.1 L 70.5 158.6 L 73.1 162.2 L 75.6 165.9 L 77.8 169.9 L 77.8 174.4 L 74.7 177.8 L 70.1 177.8 L 66.8 174.6 L 65.5 171.0 Z M 153.3 183.7 L 142.0 182.6 L 132.6 180.7 L 124.9 177.9 L 118.7 174.3 L 113.9 169.9 L 110.4 164.8 L 108.0 159.3 L 107.30287771224975 156.79856119155883 L 107.0285714149475 156.93571424484253 L 106.6 157.6 L 104.8 160.8 L 102.9 163.9 L 99.1 169.7 L 97.2 172.4 L 95.2 175.1 L 93.3 177.7 L 92.23195934295654 179.10531663894653 L 93.0 183.3 L 89.4 182.6 L 79.7 175.3 L 81.1 173.9 L 83.5 172.2 L 85.9 170.3 L 88.4 168.4 L 90.9 166.4 L 93.5 164.4 L 96.1 162.3 L 98.8 160.1 L 99.5 159.575 L 99.5 109.0 L 83.4 109.0 L 83.4 105.0 L 99.5 105.0 L 105.0 100.0 L 115.5 109.0 L 110.5 112.5 L 110.5 155.2 L 110.15454549789429 155.37272729873658 L 111.6 157.3 L 114.36094808578491 160.3677201271057 L 114.5 159.9 L 115.5 155.9 L 116.5 151.5 L 117.3 146.7 L 118.0 141.4 L 118.6 135.7 L 118.9 129.5 L 119.1 122.8 L 119.2 115.6 L 119.1 108.0 L 119.1 34.0 L 126.10205278396606 35.55601177215576 L 128.2 34.4 L 133.1 31.8 L 138.1 29.4 L 143.0 27.1 L 148.0 24.8 L 152.8 22.6 L 157.7 20.3 L 167.3 15.9 L 171.10849084854127 14.117302131652831 L 171.1 14.1 L 171.11576890945435 14.113895416259766 L 172.0 13.7 L 172.7168740272522 15.524770164489746 L 181.2 23.0 L 181.4 26.2 L 177.40138568878174 24.503618144989012 L 176.4 24.9 L 171.4 26.5 L 166.4 28.2 L 161.2 29.7 L 156.1 31.3 L 150.9 32.8 L 140.3 35.6 L 134.9 36.9 L 130.0583333015442 37.78030300140381 L 130.3 38.0 L 128.1 39.57142858505249 L 128.1 57.0 L 148.8 57.0 L 148.8 36.0 L 160.8 38.0 L 163.8 40.0 L 160.8 41.8 L 160.8 57.0 L 164.0 57.0 L 174.0 47.0 L 186.0 57.0 L 186.0 61.0 L 160.8 61.0 L 160.8 80.0 L 168.0 80.0 L 174.0 75.0 L 185.0 84.0 L 180.0 88.0 L 180.0 156.0 L 168.0 162.0 L 168.0 152.0 L 141.8 152.0 L 141.8 159.0 L 131.8 164.0 L 131.8 75.0 L 141.8 80.0 L 148.8 80.0 L 148.8 61.0 L 128.1 61.0 L 128.1 108.0 L 127.7 115.8 L 127.2 123.2 L 126.4 130.1 L 125.5 136.5 L 124.3 142.5 L 122.9 147.9 L 121.2 152.9 L 119.3 157.3 L 117.1 161.1 L 116.20744371414185 162.19853086471556 L 118.9 164.6 L 123.1 167.2 L 128.3 169.2 L 134.9 170.7 L 143.2 171.6 L 153.6 171.9 L 166.4 171.5 L 181.9 170.4 L 192.9 169.6 L 182.8 183.5 L 166.8 184.0 Z M 141.8 128.0 L 141.8 148.0 L 168.0 148.0 L 168.0 128.0 Z M 141.8 105.0 L 141.8 124.0 L 168.0 124.0 L 168.0 105.0 Z M 141.8 101.0 L 168.0 101.0 L 168.0 84.0 L 141.8 84.0 Z M 24.5 89.0 L 38.5 89.0 L 39.7 88.9 L 40.6 88.7 L 41.5 88.4 L 41.9 88.0 L 42.2 87.1 L 42.4 86.2 L 42.5 85.0 L 42.5 13.5 L 54.5 15.5 L 57.5 17.5 L 54.5 19.3 L 54.5 85.0 L 54.3 87.5 L 53.9 90.0 L 53.1 92.4 L 51.8 94.7 L 50.2 96.7 L 48.2 98.3 L 45.9 99.6 L 43.5 100.4 L 41.0 100.8 L 38.5 101.0 L 38.5 95.0 L 24.5 92.0 Z M 95.7 76.0 L 94.6 73.5 L 93.4 71.1 L 92.2 68.8 L 89.6 64.4 L 88.1 62.2 L 86.7 60.1 L 84.9 58.3 L 85.9 56.8 L 88.2 58.1 L 90.8 59.2 L 93.2 60.6 L 95.6 62.2 L 97.9 64.0 L 100.1 66.0 L 102.3 68.1 L 104.4 70.4 L 106.4 72.9 L 108.3 75.5 L 108.6 80.1 L 105.7 83.6 L 101.2 84.0 L 97.6 81.1 L 96.7 78.5 Z M 37.2 41.1 L 39.8 43.7 L 36.10442399978638 44.976653480529784 L 35.9 45.7 L 34.4 50.2 L 32.7 54.5 L 30.9 58.7 L 28.9 62.8 L 26.7 66.8 L 24.4 70.6 L 21.9 74.2 L 19.1 77.6 L 16.2 80.9 L 14.7 80.0 L 16.2 76.0 L 17.5 71.9 L 20.1 63.9 L 22.3 55.7 L 23.3 51.6 L 24.1 47.3 L 24.9 43.1 L 25.362631607055665 39.70736837387085 L 25.3 39.7 L 25.475 38.88333330154419 L 25.5 38.7 L 25.51368417739868 38.70280704498291 L 25.9 36.9 Z M 70.2 66.5 L 69.5 63.0 L 68.6 59.5 L 67.6 56.1 L 66.5 52.6 L 65.3 49.2 L 62.5 42.2 L 60.7 38.8 L 62.1 37.7 L 64.9 40.5 L 67.8 43.2 L 70.3 46.3 L 72.7 49.4 L 74.8 52.8 L 76.8 56.2 L 78.6 59.8 L 80.3 63.5 L 81.7 67.4 L 83.0 71.3 L 82.1 75.8 L 78.3 78.4 L 73.8 77.5 L 71.2 73.7 L 70.8 70.1 Z M 101.5 40.6 L 99.5 35.8 L 98.4 33.4 L 96.0 28.8 L 94.6 26.6 L 93.2 24.2 L 91.4 22.3 L 92.5 20.9 L 94.8 22.4 L 97.4 23.7 L 99.8 25.2 L 102.1 27.0 L 104.4 28.9 L 106.5 31.0 L 108.5 33.2 L 110.4 35.6 L 112.3 38.1 L 114.0 40.8 L 114.1 45.3 L 111.0 48.7 L 106.4 48.8 L 103.0 45.7 L 102.3 43.1 Z " />
</g>
</svg>
