<svg xmlns="http://www.w3.org/2000/svg" xmlns:xlink="http://www.w3.org/1999/xlink" version="1.1" baseProfile="full" viewBox="0 0 200 200" width="200" height="200">
<g fill="black">
<path d="M 178.2 105.7 L 180.4 108.5 L 176.78471908569335 109.40382022857666 L 173.5 118.0 L 168.1 129.5 L 162.0 140.1 L 155.3 149.8 L 147.8 158.7 L 139.6 166.7 L 130.8 173.7 L 121.3 179.8 L 111.2 184.8 L 100.4 188.8 L 99.7 187.1 L 109.4 181.5 L 118.4 175.3 L 126.7 168.6 L 134.4 161.2 L 141.4 153.2 L 147.7 144.4 L 153.4 135.0 L 158.5 124.8 L 162.9 113.8 L 166.7 102.1 L 166.71817893981932 102.10569076538086 L 167.2 100.6 Z M 13.8 173.7 L 22.9 172.9 L 23.2 172.8774193763733 L 23.2 117.0 L 34.2 122.5 L 90.4 122.5 L 95.9 117.5 L 106.4 126.5 L 101.4 130.0 L 101.4 167.75233640670777 L 102.8 167.7 L 113.8 167.5 L 114.0 169.3 L 103.2 171.5 L 92.7 173.5 L 82.3 175.2 L 72.2 176.9 L 62.2 178.5 L 52.4 180.0 L 42.8 181.4 L 33.4 182.9 L 24.2 184.2 L 19.214156246185304 184.97557573318483 L 17.5 188.3 L 15.2 185.6 L 11.8 173.9 Z M 34.2 126.5 L 34.2 172.05263156890868 L 41.7 171.5 L 46.1 171.17916669845582 L 46.1 126.5 Z M 56.1 126.5 L 56.1 170.41212120056153 L 61.2 170.0 L 68.5 169.5663366317749 L 68.5 126.5 Z M 78.5 126.5 L 78.5 168.91067962646486 L 81.6 168.7 L 90.4 168.1971428871155 L 90.4 126.5 Z M 125.5 119.0 L 137.5 119.0 L 138.8 118.9 L 139.7 118.7 L 140.6 118.4 L 140.8 118.2 L 140.9 118.0 L 141.1 117.7 L 141.3 117.1 L 141.5 116.2 L 141.5 14.0 L 153.5 16.0 L 156.5 18.0 L 153.5 19.8 L 153.5 115.0 L 153.4 117.5 L 152.9 120.0 L 152.1 122.4 L 150.9 124.7 L 149.3 126.7 L 147.2 128.3 L 145.0 129.6 L 142.6 130.4 L 140.1 130.8 L 137.5 131.0 L 137.5 125.0 L 125.5 122.0 Z M 15.2 112.7 L 15.2 17.8 L 25.2 22.8 L 44.418181800842284 22.8 L 52.6 13.8 L 62.6 22.8 L 62.6 26.8 L 45.0 26.8 L 45.0 47.8 L 50.0 47.8 L 56.0 42.8 L 67.0 51.8 L 62.0 55.8 L 62.0 74.55 L 62.6 72.0 L 63.9 66.7 L 65.2 61.3 L 66.4 55.6 L 67.6 49.8 L 68.7 43.7 L 69.7 37.3 L 70.5 30.7 L 71.3 23.8 L 71.90140380859376 17.700046825408936 L 71.9 17.7 L 72.2 14.6 L 83.9 18.1 L 86.6 20.5 L 83.20858726501464 22.03573408126831 L 82.6 25.5 L 81.1 32.5 L 79.5 39.3 L 77.7 45.7 L 77.48548383712769 46.4 L 91.61818180084228 46.4 L 99.8 37.4 L 109.8 46.4 L 109.8 50.4 L 76.25967741012573 50.4 L 75.8 51.9 L 73.7 57.8 L 71.4 63.4 L 68.9 68.6 L 66.1 73.5 L 63.0 77.9 L 62.0 77.4 L 62.0 80.3 L 50.0 86.3 L 50.0 80.3 L 45.0 80.3 L 45.0 103.7 L 49.7777777671814 103.7 L 56.0 96.7 L 64.0 103.7 L 64.0 107.7 L 25.2 107.7 Z M 134.9 56.8 L 137.6 59.2 L 134.06791315078735 60.70440731048584 L 133.6 62.9 L 132.1 68.9 L 130.3 74.8 L 128.3 80.6 L 126.1 86.3 L 123.6 91.9 L 120.9 97.3 L 117.9 102.5 L 114.5 107.6 L 110.8 112.4 L 109.2 111.5 L 111.2 105.8 L 113.0 100.3 L 114.8 94.7 L 116.5 89.2 L 118.0 83.6 L 119.4 78.0 L 120.6 72.3 L 121.6 66.6 L 122.4 60.9 L 122.99064998626709 56.00604333877563 L 122.9 56.0 L 123.4 53.1 Z M 25.2 80.3 L 25.2 103.7 L 34.0 103.7 L 34.0 80.3 Z M 173.9 83.9 L 172.5 80.0 L 171.0 76.1 L 169.4 72.2 L 167.6 68.5 L 163.6 60.9 L 161.4 57.1 L 159.0 53.3 L 160.3 52.1 L 163.9 54.9 L 167.4 57.8 L 170.6 61.1 L 173.6 64.5 L 176.4 68.1 L 179.0 71.8 L 181.4 75.7 L 183.6 79.8 L 185.7 84.0 L 187.5 88.3 L 187.1 92.8 L 183.6 95.8 L 179.1 95.4 L 176.1 91.9 L 175.1 87.9 Z M 108.1 90.1 L 108.1 94.1 L 65.7 94.1 L 65.7 90.1 L 89.91818180084229 90.1 L 98.1 81.1 Z M 25.2 76.3 L 50.0 76.3 L 50.0 51.8 L 25.2 51.8 Z M 25.2 26.8 L 25.2 47.8 L 34.0 47.8 L 34.0 26.8 Z " />
</g>
</svg>
