<svg xmlns="http://www.w3.org/2000/svg" xmlns:xlink="http://www.w3.org/1999/xlink" version="1.1" baseProfile="full" viewBox="0 0 200 200" width="200" height="200">
<g fill="black">
<path d="M 160.4 182.0 L 153.1 177.5 L 146.3 172.4 L 142.34019889831544 168.6998579978943 L 136.6 172.8 L 128.3 177.7 L 119.2 181.9 L 109.4 185.4 L 98.8 188.2 L 98.3 186.5 L 108.0 181.9 L 116.8 177.1 L 124.9 172.1 L 132.2 166.7 L 136.73112030029296 162.72655601501464 L 134.7 160.4 L 130.0 153.6 L 125.9 146.3 L 122.7 138.4 L 120.5285714149475 130.8 L 109.7 130.8 L 109.7 126.8 L 159.3 126.8 L 165.3 121.8 L 176.3 130.8 L 171.3 133.8 L 169.2281928062439 134.66325302124022 L 167.2 139.2 L 162.7 147.1 L 157.3 154.5 L 151.2 161.2 L 149.93458786010743 162.31869773864747 L 152.5 164.2 L 158.8 168.1 L 165.7 171.4 L 173.0 174.2 L 180.7 176.5 L 188.6 178.9 L 177.0 189.2 L 168.4 185.9 Z M 100.6 120.9 L 103.6 122.9 L 100.6 124.7 L 100.6 148.0 L 100.26123495101929 150.55955810546874 L 106.2 149.7 L 114.2 148.6 L 114.7 150.4 L 107.1 153.4 L 99.9 156.0 L 99.21386861801147 156.23524503707887 L 97.6 161.0 L 94.4 166.7 L 90.1 171.7 L 84.9 176.0 L 78.8 179.7 L 71.8 182.7 L 63.9 185.2 L 55.1 187.0 L 45.5 188.2 L 45.1 186.4 L 54.2 183.4 L 62.2 180.1 L 69.1 176.7 L 74.9 173.1 L 79.6 169.4 L 83.3 165.4 L 85.9 161.4 L 86.21214075088501 160.62882881164552 L 79.9 162.7 L 73.9 164.5 L 68.2 166.3 L 62.9 167.9 L 57.8 169.4 L 57.099430847167966 169.5937744140625 L 55.7 173.2 L 53.1 170.7 L 48.6 159.4 L 50.6 159.0 L 55.3 158.3 L 57.6 157.894117641449 L 57.6 124.8 L 69.6 126.8 L 72.6 128.8 L 69.6 130.6 L 69.6 155.862068939209 L 71.7 155.5 L 77.9 154.4 L 84.4 153.3 L 88.50445451736451 152.58618183135985 L 88.6 148.0 L 88.6 118.9 Z M 45.0 23.0 L 161.0 23.0 L 167.0 18.0 L 178.0 27.0 L 173.0 31.0 L 173.0 60.0 L 161.0 66.0 L 161.0 56.0 L 45.0 56.0 L 45.0 87.0 L 44.4 99.7 L 43.3 111.8 L 41.7 123.3 L 39.5 134.2 L 36.8 144.5 L 33.6 154.1 L 29.7 163.1 L 25.4 171.4 L 20.3 178.8 L 14.7 185.5 L 13.2 184.4 L 17.1 176.9 L 20.6 169.0 L 23.7 160.6 L 26.3 151.8 L 28.6 142.4 L 30.4 132.5 L 31.7 122.0 L 32.6 110.9 L 33.0 99.2 L 33.0 17.0 Z M 122.8555555343628 130.8 L 126.4 136.6 L 131.0 143.3 L 135.8 149.4 L 141.0 154.9 L 142.85540008544922 156.55299282073975 L 144.4 154.9 L 149.3 148.4 L 153.5 141.6 L 156.9 134.4 L 158.22631578445436 130.8 Z M 162.4 99.1 L 161.7 97.6 L 160.7 95.9 L 159.4 93.9 L 157.8 91.9 L 155.8 89.6 L 153.6 87.2 L 151.85748119354247 85.31227121353149 L 150.1 88.1 L 146.9 92.5 L 143.4 96.6 L 139.6 100.5 L 135.5 104.0 L 131.0 107.1 L 126.1 109.7 L 125.0 108.3 L 128.5 104.2 L 131.7 100.2 L 134.7 96.1 L 137.4 92.0 L 139.9 87.8 L 142.1 83.5 L 144.0 79.1 L 145.6 74.5 L 147.0 69.8 L 148.1 64.9 L 148.16458396911622 64.91725950241089 L 148.6 63.3 L 159.7 68.0 L 162.1 70.7 L 158.37558822631837 71.7641176223755 L 157.8 73.4 L 155.6 78.5 L 153.31112213134764 82.9016881942749 L 155.9 84.0 L 159.0 85.5 L 161.8 86.9 L 164.3 88.4 L 166.6 89.8 L 168.7 91.3 L 170.5 92.9 L 172.2 94.5 L 173.6 96.4 L 173.6 100.9 L 171.68555240631105 102.93796033859253 L 182.8 112.2 L 182.8 116.2 L 46.1 116.2 L 46.1 112.2 L 108.5 112.2 L 108.5 59.4 L 120.5 61.4 L 123.5 63.4 L 120.5 65.2 L 120.5 112.2 L 160.8 112.2 L 168.8 104.2 L 165.9 104.2 L 162.6 101.1 L 162.6 100.3 Z M 86.7 100.3 L 86.1 98.6 L 85.1 96.7 L 83.9 94.6 L 82.4 92.4 L 80.6 90.0 L 78.5 87.5 L 76.76091451644898 85.38285245895386 L 75.2 88.1 L 72.0 92.5 L 68.6 96.6 L 64.8 100.4 L 60.7 104.0 L 56.2 107.1 L 51.4 109.7 L 50.3 108.3 L 53.7 104.2 L 56.9 100.2 L 59.9 96.1 L 62.5 92.0 L 64.9 87.9 L 67.0 83.6 L 68.8 79.2 L 70.4 74.6 L 71.6 69.9 L 72.6 65.1 L 72.61361255645753 65.10314140319824 L 73.0 63.3 L 84.3 67.8 L 86.8 70.5 L 83.01857767105102 71.71545715332032 L 82.5 73.3 L 80.4 78.4 L 78.1024390220642 82.99512195587158 L 81.0 84.4 L 84.0 86.0 L 86.7 87.7 L 89.2 89.4 L 91.5 91.1 L 93.5 92.9 L 95.4 94.7 L 97.0 96.6 L 98.3 98.6 L 98.1 103.2 L 94.8 106.4 L 90.3 106.1 L 87.1 102.8 L 87.1 101.7 Z M 45.0 27.0 L 45.0 52.0 L 161.0 52.0 L 161.0 27.0 Z " />
</g>
</svg>
