<svg xmlns="http://www.w3.org/2000/svg" xmlns:xlink="http://www.w3.org/1999/xlink" version="1.1" baseProfile="full" viewBox="0 0 200 200" width="200" height="200">
<g fill="black">
<path d="M 81.0 174.8 L 102.2 174.8 L 103.1 174.6 L 103.7 174.4 L 104.0 174.2 L 104.2 174.1 L 104.4 173.9 L 104.7 173.0 L 104.9 172.1 L 105.0 170.8 L 105.0 107.6 L 117.0 109.6 L 120.0 111.6 L 117.0 113.4 L 117.0 123.7 L 119.5 128.2 L 123.7 134.8 L 128.4 140.8 L 131.5504119873047 144.13573036193847 L 132.9 143.1 L 137.0 139.9 L 141.1 136.9 L 145.0 134.0 L 148.7 131.1 L 152.3 128.2 L 155.7 125.4 L 158.9 122.6 L 162.0 119.9 L 164.1375 117.83883924484253 L 164.1 117.8 L 164.5021276473999 117.48723402023316 L 164.8 117.2 L 164.82797966003417 117.23379364013672 L 165.0 117.1 L 172.5 126.5 L 172.8 130.0 L 169.14431133270264 128.73712577819825 L 168.9 128.9 L 165.3 131.2 L 161.4 133.6 L 157.4 135.9 L 153.2 138.1 L 148.9 140.3 L 144.3 142.4 L 139.6 144.4 L 134.6 146.3 L 133.88734712600709 146.53298263549806 L 139.2 151.1 L 145.5 155.4 L 152.4 159.2 L 160.0 162.6 L 168.2 165.4 L 177.1 167.7 L 185.5 169.9 L 173.8 180.5 L 164.1 177.2 L 155.2 173.4 L 147.1 168.9 L 139.7 163.8 L 133.1 158.1 L 127.4 151.9 L 122.5 145.1 L 118.6 137.7 L 117.0 133.53999996185303 L 117.0 170.8 L 116.8 173.4 L 116.4 175.9 L 115.6 178.3 L 114.3 180.6 L 112.7 182.6 L 110.7 184.2 L 108.4 185.4 L 106.0 186.3 L 103.5 186.7 L 101.0 186.8 L 101.0 180.8 L 81.0 177.8 Z M 45.0 23.0 L 161.0 23.0 L 167.0 18.0 L 178.0 27.0 L 173.0 31.0 L 173.0 58.0 L 161.0 64.0 L 161.0 56.0 L 45.0 56.0 L 45.0 87.0 L 44.4 99.7 L 43.3 111.8 L 41.7 123.3 L 39.5 134.2 L 36.8 144.5 L 33.6 154.1 L 29.7 163.1 L 25.4 171.4 L 20.3 178.8 L 14.7 185.5 L 13.2 184.4 L 17.1 176.9 L 20.6 169.0 L 23.7 160.6 L 26.3 151.8 L 28.6 142.4 L 30.4 132.5 L 31.7 122.0 L 32.6 110.9 L 33.0 99.2 L 33.0 17.0 Z M 102.2 132.4 L 97.2 135.4 L 95.70882349014282 136.02132349014283 L 95.1 138.0 L 92.3 144.1 L 88.5 149.7 L 83.9 154.9 L 78.5 159.7 L 72.3 164.0 L 65.4 167.8 L 57.7 171.3 L 49.2 174.2 L 39.9 176.6 L 39.3 174.9 L 47.7 170.7 L 55.3 166.5 L 62.1 162.2 L 67.9 157.8 L 72.9 153.3 L 77.0 148.7 L 80.2 144.0 L 82.7 139.2 L 84.3 134.4 L 84.7 132.4 L 49.0 132.4 L 49.0 128.4 L 85.2 128.4 L 91.2 123.4 Z M 118.0 66.7 L 121.0 68.7 L 118.0 70.5 L 118.0 99.9 L 106.0 105.9 L 106.0 64.7 Z M 171.8 97.0 L 171.8 101.0 L 125.7 101.0 L 125.7 97.0 L 153.61818180084228 97.0 L 161.8 88.0 Z M 98.0 97.0 L 98.0 101.0 L 51.9 101.0 L 51.9 97.0 L 79.81818180084228 97.0 L 88.0 88.0 Z M 171.8 76.0 L 171.8 80.0 L 125.7 80.0 L 125.7 76.0 L 153.61818180084228 76.0 L 161.8 67.0 Z M 98.0 76.0 L 98.0 80.0 L 51.9 80.0 L 51.9 76.0 L 79.81818180084228 76.0 L 88.0 67.0 Z M 45.0 27.0 L 45.0 52.0 L 161.0 52.0 L 161.0 27.0 Z " />
</g>
</svg>
