<svg xmlns="http://www.w3.org/2000/svg" xmlns:xlink="http://www.w3.org/1999/xlink" version="1.1" baseProfile="full" viewBox="0 0 200 200" width="200" height="200">
<g fill="black">
<path d="M 36.5 55.6 L 80.7 55.6 L 86.7 50.6 L 97.4 59.354545497894286 L 97.4 56.6 L 137.0 56.6 L 137.0 13.1 L 149.0 15.1 L 152.0 17.1 L 149.0 18.9 L 149.0 56.6 L 166.5 56.6 L 176.5 46.6 L 188.5 56.6 L 188.5 60.6 L 149.0 60.6 L 149.0 106.0 L 164.5 106.0 L 170.5 101.0 L 181.5 110.0 L 176.5 114.0 L 176.5 176.6 L 164.5 182.6 L 164.5 170.6 L 121.4 170.6 L 121.4 182.6 L 109.4 188.6 L 109.4 100.0 L 121.4 106.0 L 137.0 106.0 L 137.0 60.6 L 97.4 60.6 L 97.4 59.839999961853025 L 92.7 63.6 L 92.7 103.6 L 80.7 109.6 L 80.7 97.6 L 36.442446041107175 97.6 L 36.1 109.5 L 35.3 122.5 L 34.0 134.5 L 32.3 145.4 L 30.2 155.4 L 27.6 164.3 L 24.5 172.2 L 21.0 179.0 L 16.9 184.6 L 12.3 188.9 L 10.9 187.7 L 13.7 182.5 L 16.2 176.6 L 18.4 169.9 L 20.3 162.3 L 21.9 153.7 L 23.1 144.1 L 24.0 133.5 L 24.5 121.9 L 24.7 109.3 L 24.5 95.6 L 24.5 49.6 Z M 121.4 166.6 L 164.5 166.6 L 164.5 110.0 L 121.4 110.0 Z M 36.5 59.6 L 36.5 93.6 L 80.7 93.6 L 80.7 59.6 Z M 84.5 18.9 L 86.7 21.7 L 82.76390600204468 22.59770565032959 L 81.3 25.8 L 79.6 29.2 L 76.0 36.0 L 74.1 39.4 L 72.1 42.8 L 69.9 46.1 L 67.7 49.3 L 65.5 52.6 L 63.8 51.8 L 64.9 48.1 L 65.7 44.2 L 66.7 40.5 L 67.6 36.7 L 68.6 33.1 L 69.6 29.4 L 72.97044534683228 15.918218612670898 L 72.9 15.9 L 73.7 13.5 Z M 40.2 39.5 L 39.7 36.6 L 39.0 33.8 L 38.2 31.1 L 37.3 28.4 L 35.1 23.2 L 33.8 20.5 L 32.1 18.2 L 33.3 16.9 L 35.7 18.8 L 38.3 20.6 L 40.7 22.7 L 42.9 25.0 L 44.9 27.6 L 46.8 30.3 L 48.5 33.2 L 50.1 36.3 L 51.5 39.6 L 52.7 43.0 L 51.8 47.5 L 48.0 50.1 L 43.6 49.2 L 40.9 45.5 L 40.6 42.4 Z " />
</g>
</svg>
