<svg xmlns="http://www.w3.org/2000/svg" xmlns:xlink="http://www.w3.org/1999/xlink" version="1.1" baseProfile="full" viewBox="0 0 200 200" width="200" height="200">
<g fill="black">
<path d="M 33.0 26.0 L 76.0 26.0 L 82.0 21.0 L 93.0 30.0 L 88.0 34.0 L 88.0 60.0 L 76.0 66.0 L 76.0 60.0 L 33.0 60.0 L 33.0 70.0 L 32.5 88.0 L 31.8 104.6 L 30.7 119.9 L 29.3 133.9 L 27.7 146.4 L 25.7 157.7 L 23.3 167.5 L 20.6 176.0 L 17.4 183.0 L 13.7 188.4 L 12.2 187.5 L 13.8 181.6 L 15.4 174.5 L 16.9 166.1 L 18.2 156.5 L 19.2 145.5 L 20.1 133.1 L 20.7 119.3 L 21.0 104.2 L 21.1 87.8 L 21.0 70.0 L 21.0 20.0 Z M 183.0 150.5 L 185.0 150.5 L 183.0 171.5 L 186.3 173.7 L 188.5 177.0 L 186.3 180.3 L 183.0 182.5 L 68.0 182.5 L 65.4 182.4 L 63.0 182.0 L 60.6 181.2 L 58.4 180.1 L 56.4 178.5 L 54.7 176.6 L 53.5 174.4 L 52.6 172.0 L 52.1 169.5 L 52.0 167.0 L 52.0 144.21129035949707 L 30.7 152.8 L 29.2 149.1 L 52.0 139.9064516067505 L 52.0 116.579629611969 L 32.7 124.8 L 31.2 121.1 L 52.0 112.24074077606201 L 52.0 89.85581398010254 L 50.7 90.4 L 46.4 92.0 L 41.9 93.5 L 37.3 94.8 L 36.6 93.1 L 40.3 90.4 L 44.0 87.6 L 47.7 84.9 L 51.3 82.3 L 54.9 79.6 L 61.7 74.2 L 65.1 71.4 L 68.3 68.7 L 70.76234369277954 66.46850109100342 L 70.7 66.4 L 71.5 65.8 L 78.8 75.3 L 79.1 78.9 L 75.52792663574219 77.51086034774781 L 75.1 77.8 L 67.3 82.4 L 64.0 84.1707317352295 L 64.0 107.129629611969 L 64.97001266479492 106.71647605895996 L 70.2 93.6 L 85.2 98.1 L 86.7 101.8 L 64.0 111.4685185432434 L 64.0 135.06774196624755 L 70.78683624267578 132.33111448287963 L 76.3 119.3 L 91.2 124.1 L 92.7 127.8 L 64.0 139.3725806236267 L 64.0 168.2 L 64.1 169.1 L 64.2 169.7 L 64.4 170.1 L 64.5 170.4 L 64.7 170.6 L 65.1 170.9 L 65.7 171.1 L 66.7 171.3 L 68.0 171.5 L 177.5 171.5 Z M 83.7 150.6 L 126.2 150.6 L 126.2 105.6 L 95.6 105.6 L 95.6 101.6 L 126.2 101.6 L 126.2 60.9 L 107.59090909957885 60.9 L 106.5 64.5 L 104.2 70.8 L 101.7 77.0 L 98.9 82.9 L 95.7 88.4 L 92.2 93.6 L 90.5 92.9 L 93.9 80.9 L 95.5 74.8 L 97.0 68.6 L 98.3 62.3 L 99.4 55.9 L 100.4 49.2 L 101.2 42.4 L 101.8 35.5 L 102.23053789138794 29.30025444030762 L 102.2 29.3 L 102.5 26.2 L 114.2 29.4 L 117.0 31.7 L 113.61628885269165 33.326784229278566 L 113.1 36.8 L 111.8 44.1 L 110.3 51.1 L 108.76470584869385 56.9 L 126.2 56.9 L 126.2 14.0 L 138.2 16.0 L 141.2 18.0 L 138.2 19.8 L 138.2 56.9 L 153.5 56.9 L 163.5 46.9 L 175.5 56.9 L 175.5 60.9 L 138.2 60.9 L 138.2 101.6 L 146.7 101.6 L 156.7 91.6 L 168.7 101.6 L 168.7 105.6 L 138.2 105.6 L 138.2 150.6 L 157.8 150.6 L 167.8 140.6 L 179.8 150.6 L 179.8 154.6 L 83.7 154.6 Z M 33.0 30.0 L 33.0 56.0 L 76.0 56.0 L 76.0 30.0 Z " />
</g>
</svg>
