<svg xmlns="http://www.w3.org/2000/svg" xmlns:xlink="http://www.w3.org/1999/xlink" version="1.1" baseProfile="full" viewBox="0 0 200 200" width="200" height="200">
<g fill="black">
<path d="M 146.5 68.0 L 146.5 83.6 L 146.520339012146 84.8 L 163.2 84.8 L 169.2 79.8 L 180.2 88.8 L 175.2 92.8 L 175.2 129.6 L 163.2 135.6 L 163.2 129.6 L 148.80419578552247 129.6 L 149.0 131.6 L 151.3 144.0 L 153.4875391960144 150.89406309127807 L 158.3 145.9 L 162.6588770866394 140.8437026023865 L 162.6 140.8 L 163.6 139.7 L 172.3 148.0 L 173.2 151.5 L 169.45671644210816 150.84328355789185 L 166.4 153.9 L 160.2 159.4 L 158.14313344955445 161.01384916305543 L 159.1 162.8 L 164.8 169.3 L 172.1 174.2 L 174.94145431518555 175.18703145980834 L 180.2 152.4 L 182.2 152.4 L 180.30386438369752 177.0497633934021 L 181.6 177.5 L 185.2 180.2 L 186.0 184.7 L 183.3 188.4 L 178.8 189.2 L 166.8 185.0 L 156.9 178.3 L 149.2 169.6 L 148.41997575759888 168.1494285583496 L 146.9 169.2 L 139.9 173.5 L 132.5 177.5 L 124.9 181.0 L 117.0 184.0 L 108.8 186.5 L 100.4 188.5 L 99.8 186.8 L 107.5 183.0 L 114.9 179.1 L 122.0 175.1 L 128.8 170.9 L 135.3 166.4 L 141.5 161.7 L 143.8712763786316 159.6904438018799 L 143.5 159.0 L 139.6 146.8 L 137.1 133.2 L 136.74238414764403 129.6 L 120.0 129.6 L 120.0 141.6 L 108.0 147.6 L 108.0 78.8 L 120.0 84.8 L 134.5199999809265 84.8 L 134.5 83.6 L 134.5 61.8 L 146.5 64.2 L 149.5 66.2 Z M 47.9 133.7 L 47.9 129.7 L 82.7 129.7 L 82.7 106.2 L 65.1 106.2 L 65.1 113.2 L 54.1 118.7 L 54.1 68.4 L 65.1 70.4 L 67.9 72.4 L 65.1 74.15 L 65.1 102.2 L 82.7 102.2 L 82.7 60.4 L 94.7 62.4 L 97.7 64.4 L 94.7 66.2 L 94.7 183.1 L 82.7 189.1 L 82.7 133.7 L 69.6 133.7 L 69.6 143.3 L 69.1 149.1 L 68.2 154.6 L 67.0 159.9 L 65.4 165.0 L 63.4 169.8 L 61.0 174.3 L 58.3 178.5 L 55.2 182.4 L 51.6 185.8 L 47.7 188.9 L 46.4 187.6 L 48.8 183.5 L 50.9 179.4 L 52.7 175.3 L 54.2 171.1 L 55.5 166.9 L 56.5 162.5 L 57.2 157.9 L 57.6 153.2 L 57.7 148.4 L 57.6 143.3 L 57.6 133.7 Z M 44.5 23.0 L 161.0 23.0 L 167.0 18.0 L 178.0 27.0 L 173.0 31.0 L 173.0 60.0 L 161.0 66.0 L 161.0 56.0 L 44.5 56.0 L 44.5 87.0 L 43.9 99.7 L 42.9 111.8 L 41.3 123.3 L 39.1 134.2 L 36.5 144.4 L 33.3 154.0 L 29.5 163.0 L 25.2 171.3 L 20.2 178.8 L 14.6 185.4 L 13.3 184.5 L 17.2 176.9 L 20.8 169.1 L 23.9 160.7 L 26.6 151.9 L 28.9 142.5 L 30.8 132.5 L 32.1 122.0 L 33.0 110.9 L 33.5 99.2 L 33.5 17.5 Z M 120.0 108.9 L 120.0 125.6 L 136.3450330734253 125.6 L 135.6 118.1 L 135.1539394378662 108.9 Z M 147.18000001907347 108.9 L 147.6 117.3 L 148.41258745193483 125.6 L 163.2 125.6 L 163.2 108.9 Z M 120.0 88.8 L 120.0 104.9 L 134.96000003814697 104.9 L 134.8 101.6 L 134.58666667938232 88.8 Z M 146.5881356239319 88.8 L 146.8 101.3 L 146.9800000190735 104.9 L 163.2 104.9 L 163.2 88.8 Z M 44.5 27.0 L 44.5 52.0 L 161.0 52.0 L 161.0 27.0 Z " />
</g>
</svg>
