<svg xmlns="http://www.w3.org/2000/svg" xmlns:xlink="http://www.w3.org/1999/xlink" version="1.1" baseProfile="full" viewBox="0 0 200 200" width="200" height="200">
<g fill="black">
<path d="M 40.2 130.8 L 39.0 139.9 L 37.4 148.4 L 35.3 156.2 L 32.7 163.3 L 29.6 169.8 L 26.1 175.5 L 22.0 180.5 L 17.5 184.6 L 12.5 187.7 L 11.4 186.2 L 14.8 181.9 L 17.8 177.2 L 20.4 172.2 L 22.7 166.7 L 24.7 160.6 L 26.3 153.9 L 27.5 146.6 L 28.4 138.6 L 28.9 130.0 L 29.0 120.8 L 29.0 76.0 L 41.0 78.0 L 44.0 80.0 L 41.0 81.8 L 41.0 121.0 L 40.89595375061035 121.15606937408447 Z M 179.07624025344847 155.18233242034913 L 171.0 161.7 L 163.2 157.3 L 155.7 152.5 L 148.8 147.1 L 142.3 141.3 L 136.3 135.0 L 130.7 128.3 L 125.7 121.2 L 121.3 113.6 L 117.4 105.5 L 114.64418601989746 97.6 L 103.8 97.6 L 103.8 141.66981134414672 L 105.1 141.4 L 115.9 139.2 L 121.4 138.1 L 127.0 137.2 L 132.6 136.5 L 133.2 138.2 L 128.1 140.9 L 123.0 143.2 L 117.8 145.4 L 112.7 147.5 L 102.5 151.5 L 97.4 153.3 L 92.3 155.2 L 87.3 157.0 L 86.18654098510743 157.37857608795167 L 85.0 161.1 L 82.3 158.7 L 77.0 147.8 L 79.0 147.2 L 84.1 146.0 L 89.3 144.9 L 91.8 144.33396224975587 L 91.8 97.6 L 75.6 97.6 L 75.6 93.6 L 154.8 93.6 L 164.8 83.6 L 176.8 93.6 L 176.8 97.6 L 116.9780821800232 97.6 L 121.1 103.5 L 126.2 110.4 L 131.5 116.9 L 137.1 122.9 L 139.64603853225708 125.35824413299561 L 140.1 124.7 L 141.9 121.7 L 143.6 118.8 L 145.2 115.9 L 146.8 113.1 L 149.8 107.5 L 151.1 104.8 L 152.3 102.1 L 153.09519653320314 100.24454145431518 L 153.0 100.2 L 154.0 98.4 L 163.9 105.3 L 165.5 108.6 L 161.27579021453857 108.67283124923706 L 159.8 110.5 L 157.6 113.0 L 155.3 115.4 L 152.9 117.8 L 150.4 120.2 L 147.8 122.4 L 145.1 124.6 L 142.2 126.6 L 141.50098457336426 127.14922647476196 L 142.9 128.5 L 149.0 133.6 L 155.4 138.3 L 162.2 142.6 L 169.2 146.4 L 176.6 149.8 L 179.98933000564574 151.37779159545897 L 182.0 143.0 L 184.0 143.0 L 182.0 168.0 L 185.6 170.4 L 188.0 174.0 L 185.6 177.6 L 182.0 180.0 L 69.0 180.0 L 66.4 179.8 L 63.9 179.4 L 61.5 178.6 L 59.2 177.3 L 57.2 175.7 L 55.6 173.7 L 54.3 171.4 L 53.5 169.0 L 53.1 166.5 L 53.0 164.0 L 53.0 74.0 L 65.0 76.0 L 68.0 78.0 L 65.0 79.8 L 65.0 165.2 L 65.2 166.1 L 65.5 167.0 L 65.9 167.4 L 66.8 167.7 L 67.7 167.9 L 69.0 168.0 L 176.0 168.0 Z M 87.8 85.1 L 87.8 15.9 L 99.8 21.9 L 154.8 21.9 L 160.8 16.9 L 171.8 25.9 L 166.8 29.9 L 166.8 79.1 L 154.8 85.1 L 154.8 79.1 L 99.8 79.1 Z M 99.8 52.1 L 99.8 75.1 L 121.3 75.1 L 121.3 52.1 Z M 133.3 52.1 L 133.3 75.1 L 154.8 75.1 L 154.8 52.1 Z M 40.9 17.4 L 43.7 19.6 L 40.305504608154294 21.297247695922852 L 40.0 23.3 L 38.7 29.2 L 37.2 35.0 L 35.2 40.8 L 32.9 46.6 L 30.3 52.3 L 27.3 58.0 L 23.9 63.6 L 20.0 69.1 L 15.7 74.4 L 14.2 73.5 L 16.7 67.2 L 19.1 61.2 L 21.3 55.3 L 23.3 49.5 L 24.9 43.8 L 26.3 38.2 L 27.4 32.7 L 28.2 27.2 L 28.7 21.8 L 28.862283611297606 17.499485301971436 L 28.8 17.5 L 29.0 14.3 Z M 67.3 51.9 L 66.2 47.3 L 64.9 42.7 L 63.3 38.3 L 61.4 34.0 L 59.2 29.8 L 56.7 25.7 L 54.0 21.5 L 51.1 17.3 L 52.3 15.9 L 56.7 18.9 L 60.8 22.2 L 64.5 26.0 L 67.8 30.1 L 70.8 34.4 L 73.4 39.1 L 75.7 44.0 L 77.7 49.2 L 79.3 54.6 L 80.5 60.2 L 79.3 64.6 L 75.3 66.9 L 70.9 65.7 L 68.6 61.8 L 68.1 56.8 Z M 99.8 25.9 L 99.8 48.1 L 121.3 48.1 L 121.3 25.9 Z M 133.3 25.9 L 133.3 48.1 L 154.8 48.1 L 154.8 25.9 Z " />
</g>
</svg>
