<svg xmlns="http://www.w3.org/2000/svg" xmlns:xlink="http://www.w3.org/1999/xlink" version="1.1" baseProfile="full" viewBox="0 0 200 200" width="200" height="200">
<g fill="black">
<path d="M 159.2 182.6 L 151.2 178.9 L 144.1 174.8 L 139.26947431564332 171.21606159210205 L 133.1 174.7 L 123.7 178.7 L 113.6 182.0 L 102.7 184.4 L 91.0 185.9 L 78.5 186.6 L 78.4 184.8 L 90.4 182.2 L 101.4 179.2 L 111.5 175.7 L 120.7 171.8 L 129.0 167.3 L 132.46468772888184 164.92692623138427 L 128.3 159.6 L 125.1 153.8 L 123.1 147.5 L 122.91875 146.05 L 122.0 147.1 L 118.3 151.0 L 114.2 154.6 L 109.9 158.0 L 105.2 161.2 L 100.3 164.0 L 95.0 166.4 L 94.0 164.9 L 101.9 157.0 L 105.5 153.1 L 108.8 149.3 L 111.9 145.3 L 114.8 141.4 L 117.3 137.3 L 119.6 133.2 L 121.6 129.0 L 122.97097120285034 125.72490215301514 L 122.9 125.7 L 123.9 123.5 L 134.3 129.7 L 136.2 132.8 L 132.36568098068238 133.19665365219117 L 131.7 134.4 L 129.31363639831542 137.9 L 156.2 137.9 L 156.68051948547364 137.49956712722778 L 156.9 137.1 L 157.0591223716736 137.18406467437745 L 162.2 132.9 L 173.2 141.9 L 168.2 144.9 L 165.33702125549317 146.0929078102112 L 162.4 150.7 L 156.3 157.9 L 149.4 164.3 L 148.05292482376097 165.26713094711303 L 149.2 165.9 L 155.8 168.8 L 163.2 171.4 L 171.5 173.7 L 180.5 175.6 L 189.5 177.6 L 177.7 188.5 L 168.0 185.8 Z M 94.7 95.3 L 96.1 98.6 L 92.36319770812989 98.53557233810425 L 90.8 100.7 L 86.7 105.9 L 82.3 110.9 L 77.8 115.7 L 73.1 120.3 L 72.63821659088134 120.70636940002441 L 78.0 121.6 L 81.0 123.6 L 78.0 125.4 L 78.0 181.2 L 66.0 187.2 L 66.0 126.47058820724487 L 63.0 129.0 L 57.5 132.9 L 51.8 136.6 L 45.9 139.9 L 44.8 138.5 L 49.5 133.6 L 54.1 128.8 L 58.5 124.1 L 62.8 119.3 L 66.9 114.5 L 70.8 109.6 L 74.5 104.6 L 78.0 99.5 L 81.4 94.2 L 84.5 88.9 L 84.52148275375366 88.91347932815552 L 85.0 88.1 Z M 45.0 23.0 L 161.0 23.0 L 167.0 18.0 L 178.0 27.0 L 173.0 31.0 L 173.0 58.0 L 161.0 64.0 L 161.0 56.0 L 45.0 56.0 L 45.0 87.0 L 44.4 99.7 L 43.3 111.8 L 41.7 123.3 L 39.5 134.2 L 36.8 144.5 L 33.6 154.1 L 29.7 163.1 L 25.4 171.4 L 20.3 178.8 L 14.7 185.5 L 13.2 184.4 L 17.1 176.9 L 20.6 169.0 L 23.7 160.6 L 26.3 151.8 L 28.6 142.4 L 30.4 132.5 L 31.7 122.0 L 32.6 110.9 L 33.0 99.2 L 33.0 17.0 Z M 126.3930233001709 141.9 L 125.5 143.1 L 125.44660034179688 143.1610281944275 L 127.0 146.0 L 130.2 150.8 L 134.0 155.1 L 138.4 159.1 L 139.28345861434937 159.73609018325806 L 142.7 156.8 L 148.3 150.7 L 153.0 144.2 L 154.26338024139403 141.9 Z M 179.1 108.8 L 181.1 108.8 L 179.1 121.8 L 181.8 123.6 L 183.6 126.3 L 181.8 129.0 L 179.1 130.8 L 158.2 130.8 L 155.9 130.6 L 153.6 130.0 L 151.4 129.0 L 149.4 127.5 L 147.7 125.7 L 146.4 123.6 L 145.5 121.3 L 144.9 118.9 L 144.6 116.3 L 144.6 97.06800003051758 L 144.4 97.1 L 137.0 98.2 L 124.62086563110351 99.89577178955078 L 132.3 102.5 L 134.9 105.0 L 131.11711225509643 106.47112302780151 L 130.9 107.2 L 129.0 111.5 L 126.6 115.6 L 123.6 119.4 L 120.2 122.9 L 116.4 126.1 L 112.1 129.0 L 107.4 131.5 L 102.2 133.7 L 96.7 135.7 L 95.9 134.1 L 100.5 130.7 L 104.7 127.3 L 108.3 124.0 L 111.5 120.7 L 114.1 117.4 L 116.3 114.0 L 118.0 110.7 L 119.2 107.4 L 120.0 104.0 L 120.35236368179321 101.60392723083496 L 120.3 101.6 L 120.49304552078247 100.44172658920289 L 115.3 101.1 L 105.34444446563721 102.38000001907349 L 103.5 105.7 L 101.3 102.9 L 98.4 91.1 L 100.3 90.9 L 107.3 90.7 L 114.4 90.4 L 116.0696042060852 90.35362215042115 L 118.4 87.3 L 121.2 83.6 L 123.9 80.0 L 126.5 76.5 L 129.1 73.1 L 131.5 69.7 L 133.8 66.4 L 136.0 63.1 L 137.564679813385 60.64121751785278 L 137.5 60.6 L 137.86666669845582 60.16666669845581 L 138.1 59.8 L 138.14680643081664 59.835592365264894 L 138.6 59.3 L 147.7 67.1 L 148.8 70.5 L 144.90894565582275 70.09041538238526 L 144.9 70.1 L 142.0 73.1 L 139.0 76.1 L 135.8 79.1 L 132.5 82.1 L 129.1 85.0 L 125.6 87.9 L 122.64233646392822 90.15716428756714 L 128.9 89.9 L 136.2 89.7 L 143.7 89.5 L 158.9 89.3 L 166.7 89.4 L 170.09180154800416 89.52880258560181 L 169.2 88.0 L 167.4 85.5 L 165.5 83.0 L 163.3 80.5 L 160.9 77.8 L 158.1 75.4 L 159.1 73.9 L 162.5 75.6 L 165.9 77.1 L 169.0 78.9 L 172.0 80.7 L 174.7 82.7 L 177.2 84.9 L 179.6 87.1 L 181.7 89.5 L 183.6 92.1 L 185.3 94.8 L 185.3 99.4 L 182.1 102.6 L 177.5 102.6 L 174.2 99.4 L 173.7 97.2 L 172.9 95.0 L 171.9 92.7 L 171.61872491836547 92.20235939025879 L 167.1 93.2 L 159.4 94.6 L 151.9 95.9 L 145.72653064727783 96.88775510787964 L 156.6 98.7 L 159.6 100.7 L 156.6 102.5 L 156.6 116.3 L 156.5 117.6 L 156.5 118.5 L 156.6 119.2 L 156.7 119.7 L 156.8 120.1 L 157.0 120.5 L 157.5 120.9 L 158.2 121.3 L 159.2 121.6 L 160.6 121.8 L 174.6 121.8 Z M 88.9 68.2 L 90.3 71.5 L 86.48911609649659 71.36859016418457 L 85.4 72.8 L 81.8 77.3 L 78.0 81.5 L 74.2 85.6 L 70.1 89.5 L 66.0 93.2 L 61.6 96.8 L 57.2 100.0 L 52.5 103.0 L 47.6 105.6 L 46.5 104.1 L 50.1 100.0 L 57.1 92.0 L 60.6 87.9 L 63.9 83.8 L 67.1 79.6 L 70.2 75.2 L 73.2 70.8 L 76.1 66.3 L 78.38516683578491 62.54579725265503 L 78.3 62.5 L 79.4 60.9 Z M 45.0 27.0 L 45.0 52.0 L 161.0 52.0 L 161.0 27.0 Z " />
</g>
</svg>
