<svg xmlns="http://www.w3.org/2000/svg" xmlns:xlink="http://www.w3.org/1999/xlink" version="1.1" baseProfile="full" viewBox="0 0 200 200" width="200" height="200">
<g fill="black">
<path d="M 44.5 23.0 L 161.0 23.0 L 167.0 18.0 L 178.0 27.0 L 173.0 31.0 L 173.0 60.0 L 161.0 66.0 L 161.0 56.0 L 44.5 56.0 L 44.5 87.0 L 43.9 99.7 L 42.9 111.8 L 41.3 123.3 L 39.1 134.2 L 36.5 144.4 L 33.3 154.0 L 29.5 163.0 L 25.2 171.3 L 20.2 178.8 L 14.6 185.4 L 13.3 184.5 L 17.2 176.9 L 20.8 169.1 L 23.9 160.7 L 26.6 151.9 L 28.9 142.5 L 30.8 132.5 L 32.1 122.0 L 33.0 110.9 L 33.5 99.2 L 33.5 17.5 Z M 139.2 172.8 L 159.2 172.8 L 160.4 172.7 L 161.3 172.6 L 161.9 172.4 L 162.2 172.2 L 162.4 172.1 L 162.6 171.9 L 162.8 171.5 L 162.9 170.9 L 163.1 170.0 L 163.2 168.8 L 163.2 87.7 L 120.7 87.7 L 117.6 96.7 L 116.79871339797974 98.2280348777771 L 121.0 99.1 L 126.0 100.3 L 130.7 101.7 L 135.2 103.3 L 139.4 104.9 L 143.4 106.7 L 147.1 108.6 L 150.5 110.6 L 153.7 112.8 L 156.7 115.0 L 158.4 119.3 L 156.8 123.5 L 152.5 125.3 L 148.3 123.6 L 146.4 121.3 L 144.1 119.1 L 141.5 116.7 L 138.7 114.4 L 135.5 112.1 L 132.0 109.7 L 128.2 107.3 L 124.1 104.8 L 119.8 102.2 L 115.82469062805175 100.08547372817993 L 113.3 104.9 L 107.9 112.1 L 101.6 118.4 L 94.2 123.7 L 86.0 127.9 L 76.8 131.0 L 66.9 133.0789999961853 L 66.9 178.1 L 55.9 183.6 L 55.9 78.2 L 66.9 83.7 L 110.50689659118652 83.7 L 111.5 76.5 L 111.8580563545227 67.99616155624389 L 111.8 68.0 L 111.9 64.6 L 123.9 67.2 L 126.8 69.2 L 123.49343509674073 71.11780767440796 L 122.8 77.8 L 121.5484848022461 83.7 L 163.2 83.7 L 169.2 78.7 L 180.2 87.7 L 175.2 91.7 L 175.2 168.8 L 175.0 171.4 L 174.6 173.9 L 173.8 176.3 L 172.6 178.5 L 170.9 180.5 L 168.9 182.2 L 166.6 183.4 L 164.2 184.2 L 161.7 184.7 L 159.2 184.8 L 159.2 178.8 L 139.2 175.8 Z M 141.4 158.0 L 138.8 155.7 L 136.1 153.4 L 133.2 151.1 L 130.0 148.9 L 126.6 146.7 L 123.0 144.5 L 119.2 142.2 L 115.47560148239135 140.2923812866211 L 114.7 141.2 L 109.5 146.3 L 103.8 150.9 L 97.6 155.1 L 90.9 158.8 L 83.7 162.0 L 75.9 164.7 L 67.7 166.8 L 67.1 165.1 L 74.5 161.2 L 81.3 157.2 L 87.5 153.1 L 93.2 148.9 L 98.4 144.4 L 103.0 139.7 L 107.1 134.7 L 110.6 129.6 L 113.7 124.1 L 116.11428575515747 118.9 L 116.8 117.3 L 127.2 123.5 L 129.1 126.6 L 125.19790573120117 127.00366487503052 L 123.6 129.8 L 119.4 135.7 L 116.89322719573974 138.6334574699402 L 120.3 139.3 L 124.7 140.2 L 129.0 141.3 L 133.1 142.6 L 137.0 144.1 L 140.8 145.8 L 144.4 147.7 L 147.8 149.7 L 151.0 151.9 L 154.1 154.2 L 155.9 158.4 L 154.2 162.7 L 150.0 164.4 L 145.7 162.8 L 143.7 160.4 Z M 66.9 87.7 L 66.9 131.1456521987915 L 75.5 127.5 L 83.5 123.1 L 90.5 118.3 L 96.4 112.9 L 101.3 106.9 L 105.2 100.3 L 108.2 93.1 L 109.63544301986694 87.7 Z M 44.5 27.0 L 44.5 52.0 L 161.0 52.0 L 161.0 27.0 Z " />
</g>
</svg>
