<svg xmlns="http://www.w3.org/2000/svg" xmlns:xlink="http://www.w3.org/1999/xlink" version="1.1" baseProfile="full" viewBox="0 0 200 200" width="200" height="200">
<g fill="black">
<path d="M 83.5 147.0 L 81.5 144.5 L 79.4 141.9 L 77.2 139.4 L 74.7 136.8 L 72.1 134.2 L 72.0 134.10370368957518 L 72.0 183.0 L 60.0 189.0 L 60.0 140.9875 L 57.2 146.5 L 53.7 152.5 L 49.8 158.2 L 45.6 163.4 L 41.0 168.3 L 36.0 172.7 L 30.6 176.6 L 29.3 175.3 L 33.2 170.1 L 36.9 164.9 L 40.3 159.5 L 43.4 154.1 L 46.2 148.4 L 48.8 142.5 L 51.1 136.4 L 53.0 130.1 L 54.7 123.5 L 55.4 120.0 L 31.0 120.0 L 31.0 116.0 L 60.0 116.0 L 60.0 65.0 L 72.0 67.0 L 75.0 69.0 L 72.0 70.8 L 72.0 116.0 L 78.0 116.0 L 88.0 106.0 L 100.0 116.0 L 100.0 120.0 L 72.0 120.0 L 72.0 129.54594593048097 L 74.6 130.6 L 78.1 132.2 L 81.4 134.0 L 84.6 136.0 L 87.6 138.1 L 90.5 140.4 L 93.2 142.8 L 95.8 145.4 L 98.2 148.1 L 99.1 152.6 L 96.6 156.4 L 92.2 157.3 L 88.3 154.9 L 86.9 152.2 Z M 121.8 116.7 L 166.6 116.7 L 172.6 111.7 L 183.6 120.7 L 178.6 124.7 L 178.6 175.3 L 166.6 181.3 L 166.6 169.3 L 121.8 169.3 L 121.8 181.3 L 109.8 187.3 L 109.8 110.7 Z M 31.8 24.7 L 85.1 24.7 L 91.1 19.7 L 102.1 28.7 L 97.1 32.7 L 97.1 59.4 L 85.1 65.4 L 85.1 57.4 L 31.8 57.4 L 31.8 88.1 L 31.4 100.6 L 30.7 112.5 L 29.7 123.8 L 28.4 134.5 L 26.9 144.6 L 25.0 154.0 L 22.8 162.9 L 20.3 171.1 L 17.3 178.6 L 13.9 185.4 L 12.2 184.8 L 13.7 177.5 L 15.1 169.8 L 16.4 161.6 L 17.5 152.8 L 18.4 143.5 L 19.2 133.6 L 19.7 123.1 L 20.0 112.0 L 20.0 100.3 L 19.8 88.1 L 19.8 18.7 Z M 121.8 120.7 L 121.8 165.3 L 166.6 165.3 L 166.6 120.7 Z M 44.2 99.2 L 43.8 96.7 L 43.4 94.1 L 42.8 91.5 L 42.1 88.8 L 41.2 86.0 L 40.3 83.1 L 39.3 80.1 L 37.8 77.3 L 39.3 76.2 L 41.4 78.7 L 43.8 81.0 L 45.9 83.4 L 47.9 85.8 L 51.3 91.0 L 52.8 93.6 L 54.1 96.3 L 55.3 99.1 L 56.3 101.9 L 55.3 106.4 L 51.5 108.9 L 47.0 107.9 L 44.5 104.1 L 44.4 101.7 Z M 97.1 79.2 L 99.0 82.3 L 94.90574636459351 82.80280303955078 L 93.9 84.5 L 92.1 87.2 L 90.3 90.0 L 88.3 92.9 L 86.3 95.9 L 84.1 98.9 L 81.7 102.0 L 79.2 105.1 L 76.7 108.4 L 75.2 107.5 L 76.6 103.7 L 77.8 99.9 L 79.0 96.3 L 80.2 92.8 L 81.4 89.4 L 82.4 86.2 L 83.5 83.1 L 84.4 80.1 L 85.3 77.2 L 85.75351524353027 75.45072679519653 L 85.6 75.4 L 85.98793106079101 74.54655170440674 L 86.0 74.5 L 86.00762367248535 74.50322799682617 L 86.6 73.2 Z M 107.1 88.0 L 136.7 88.0 L 136.7 53.0 L 103.2 53.0 L 103.2 49.0 L 136.7 49.0 L 136.7 16.0 L 148.7 18.0 L 151.7 20.0 L 148.7 21.8 L 148.7 49.0 L 165.7 49.0 L 175.7 39.0 L 187.7 49.0 L 187.7 53.0 L 148.7 53.0 L 148.7 88.0 L 161.7 88.0 L 171.7 78.0 L 183.7 88.0 L 183.7 92.0 L 107.1 92.0 Z M 31.8 28.7 L 31.8 53.4 L 85.1 53.4 L 85.1 28.7 Z " />
</g>
</svg>
