<svg xmlns="http://www.w3.org/2000/svg" xmlns:xlink="http://www.w3.org/1999/xlink" version="1.1" baseProfile="full" viewBox="0 0 200 200" width="200" height="200">
<g fill="black">
<path d="M 120.7 74.9 L 118.9 72.8 L 116.91784839630127 70.99804401397705 L 115.6 72.8 L 110.2 78.6 L 104.2 83.6 L 97.6 87.6 L 90.5 90.6 L 83.0 92.6 L 82.4 90.9 L 88.9 87.2 L 94.8 83.1 L 100.0 78.5 L 104.7 73.4 L 108.8 67.8 L 109.92105264663697 65.83815793991089 L 108.1 64.7 L 104.5 62.7 L 101.82636165618896 61.260348606109616 L 99.7 69.5 L 86.6 72.3 L 88.48543043136597 65.0 L 46.0 65.0 L 46.0 72.0 L 45.89585800170899 72.15621299743653 L 45.7 89.0 L 44.8 105.0 L 43.3 119.7 L 41.0 133.2 L 38.1 145.5 L 34.4 156.4 L 30.1 166.1 L 25.0 174.5 L 19.1 181.3 L 12.5 186.6 L 11.4 185.3 L 16.2 178.9 L 20.4 171.7 L 24.1 163.4 L 27.2 154.0 L 29.8 143.4 L 31.8 131.6 L 33.3 118.6 L 34.1 104.4 L 34.3 88.8 L 34.0 72.1 L 34.065564727783205 72.09834709167481 L 34.0 72.0 L 34.0 65.0 L 12.0 65.0 L 12.0 61.0 L 34.0 61.0 L 34.0 15.0 L 46.0 17.0 L 49.0 19.0 L 46.0 20.8 L 46.0 61.0 L 67.0 61.0 L 77.0 51.0 L 89.0 61.0 L 89.0 63.00769233703613 L 96.85364236831666 32.6 L 83.3 32.6 L 83.3 28.6 L 97.88675498962402 28.6 L 102.2 11.9 L 113.3 16.8 L 115.7 19.5 L 112.3811779975891 20.36043529510498 L 110.25483875274658 28.6 L 121.5 28.6 L 127.5 23.6 L 138.5 32.6 L 133.5 35.6 L 132.3366063117981 36.08474740982056 L 131.1 41.3 L 128.2 50.4 L 124.6 58.6 L 121.86666669845582 63.6 L 124.8 65.2 L 127.8 67.2 L 130.5 69.4 L 133.0 71.9 L 134.0 76.4 L 131.6 80.3 L 127.1 81.2 L 123.2 78.9 L 122.1 76.9 Z M 75.4 185.8 L 72.9 185.4 L 70.5 184.6 L 68.2 183.3 L 66.2 181.7 L 64.6 179.7 L 63.3 177.4 L 62.5 175.0 L 62.1 172.5 L 62.0 170.0 L 62.0 65.0 L 74.0 67.0 L 77.0 69.0 L 74.0 70.8 L 74.0 171.2 L 74.2 172.1 L 74.5 173.0 L 74.9 173.4 L 75.8 173.7 L 76.7 173.9 L 78.0 174.0 L 177.0 174.0 L 183.0 149.0 L 185.0 149.0 L 183.0 174.0 L 186.6 176.4 L 189.0 180.0 L 186.6 183.6 L 183.0 186.0 L 78.0 186.0 Z M 102.5 157.9 L 122.5 157.9 L 123.7 157.8 L 124.6 157.6 L 125.2 157.5 L 125.5 157.3 L 125.9 156.9 L 126.2 156.0 L 126.4 155.1 L 126.5 153.9 L 126.5 138.8 L 81.6 138.8 L 81.6 134.8 L 126.5 134.8 L 126.5 120.0 L 90.3 120.0 L 90.3 116.0 L 126.5 116.0 L 126.5 101.9125 L 120.0 102.4 L 111.4 102.9 L 102.1 103.2 L 92.2 103.2 L 92.0 101.5 L 101.7 99.4 L 110.8 97.6 L 119.2 95.9 L 126.9 94.3 L 133.9 92.8 L 140.2 91.3 L 145.8 89.8 L 150.7 88.3 L 154.8 86.9 L 158.2 85.5 L 158.76702127456664 87.15744676589966 L 167.8 94.9 L 168.1 98.0 L 164.05322475433348 96.21465797424317 L 162.1 96.9 L 158.0 97.9 L 153.2 98.8 L 147.9 99.6 L 141.9 100.4 L 138.5 100.75522384643554 L 138.5 116.0 L 152.6 116.0 L 162.6 106.0 L 174.6 116.0 L 174.6 120.0 L 138.5 120.0 L 138.5 134.8 L 161.3 134.8 L 171.3 124.8 L 183.3 134.8 L 183.3 138.8 L 138.5 138.8 L 138.5 153.9 L 138.3 156.4 L 137.9 158.9 L 137.1 161.3 L 135.8 163.6 L 134.2 165.6 L 132.2 167.3 L 129.9 168.5 L 127.5 169.3 L 125.0 169.7 L 122.5 169.9 L 122.5 163.9 L 102.5 160.9 Z M 165.2 81.0 L 160.4 76.5 L 156.62462759017944 71.84663400650024 L 154.2 74.5 L 148.6 79.5 L 142.6 83.4 L 136.2 86.3 L 129.5 88.0 L 129.0 86.3 L 134.5 82.9 L 139.6 79.0 L 144.3 74.5 L 148.6 69.5 L 151.96379928588868 64.70658597946166 L 149.1 58.8 L 146.3 51.7 L 144.0 43.9 L 142.4 35.5 L 141.48791208267212 27.2 L 134.5 27.2 L 134.5 23.2 L 167.5 23.2 L 173.5 18.2 L 184.5 27.2 L 179.5 30.2 L 178.00368967056275 30.823462677001952 L 176.2 36.7 L 172.6 45.9 L 168.7 54.4 L 164.3 62.0 L 163.1052797317505 63.66763038635254 L 164.0 64.7 L 168.0 68.5 L 172.2 71.5 L 176.5 73.8 L 181.0 75.5 L 187.9 78.1 L 176.4 87.9 L 170.6 84.8 Z M 109.22258062362671 32.6 L 102.67639074325561 57.966485786437985 L 106.0 58.4 L 110.2 59.4 L 112.99780712127685 60.16939697265625 L 115.5 54.6 L 118.0 47.0 L 120.1 38.7 L 121.10549449920654 32.6 Z M 143.5714285850525 27.2 L 146.4 34.4 L 149.6 42.0 L 152.9 48.9 L 156.4 54.9 L 156.9567398071289 55.69749212265015 L 159.6 50.1 L 162.6 42.1 L 165.3 33.3 L 166.825 27.2 Z " />
</g>
</svg>
