<svg xmlns="http://www.w3.org/2000/svg" xmlns:xlink="http://www.w3.org/1999/xlink" version="1.1" baseProfile="full" viewBox="0 0 200 200" width="200" height="200">
<g fill="black">
<path d="M 44.5 23.0 L 161.0 23.0 L 167.0 18.0 L 178.0 27.0 L 173.0 31.0 L 173.0 48.0 L 161.0 54.0 L 161.0 46.0 L 44.5 46.0 L 44.5 87.0 L 43.9 99.7 L 42.9 111.8 L 41.3 123.3 L 39.1 134.2 L 36.5 144.4 L 33.3 154.0 L 29.5 163.0 L 25.2 171.3 L 20.2 178.8 L 14.6 185.4 L 13.3 184.5 L 17.2 176.9 L 20.8 169.1 L 23.9 160.7 L 26.6 151.9 L 28.9 142.5 L 30.8 132.5 L 32.1 122.0 L 33.0 110.9 L 33.5 99.2 L 33.5 17.5 Z M 63.5 77.4 L 100.8 77.4 L 100.8 50.9 L 112.8 52.9 L 115.8 54.9 L 112.8 56.7 L 112.8 62.1 L 143.8181818008423 62.1 L 152.0 53.1 L 162.0 62.1 L 162.0 66.1 L 112.8 66.1 L 112.8 77.4 L 164.8 77.4 L 165.56438360214233 76.76301374435425 L 165.9 75.9 L 166.2726674079895 76.17277717590332 L 170.8 72.4 L 181.8 81.4 L 176.8 84.4 L 171.0873239517212 86.78028173446656 L 170.8 87.0 L 169.1 88.4 L 167.4 89.7 L 165.5 91.1 L 163.7 92.5 L 161.7 93.9 L 159.6 95.2 L 157.8 96.9 L 156.5 95.7 L 157.9 93.7 L 158.8 91.5 L 159.8 89.3 L 160.8 87.2 L 162.6 83.2 L 163.45263156890869 81.4 L 63.5 81.4 L 63.5 126.9 L 63.0 134.8 L 62.1 142.4 L 60.8 149.4 L 59.1 156.0 L 57.0 162.1 L 54.5 167.7 L 51.6 172.7 L 48.2 177.2 L 44.4 181.0 L 40.1 184.1 L 39.0 182.9 L 41.7 178.7 L 44.1 174.4 L 46.3 169.9 L 48.1 165.0 L 49.7 159.7 L 50.9 154.0 L 51.8 147.9 L 52.3 141.3 L 52.6 134.3 L 52.5 126.9 L 52.5 71.9 Z M 63.2 178.5 L 84.3 178.5 L 84.3 119.5 L 96.3 125.5 L 143.7 125.5 L 149.7 120.5 L 160.7 129.5 L 155.7 133.5 L 155.7 178.5 L 158.51818180084229 178.5 L 166.7 169.5 L 176.7 178.5 L 176.7 182.5 L 63.2 182.5 Z M 96.3 164.4 L 96.3 178.5 L 143.7 178.5 L 143.7 164.4 Z M 96.3 146.9 L 96.3 160.4 L 143.7 160.4 L 143.7 146.9 Z M 96.3 129.5 L 96.3 142.9 L 143.7 142.9 L 143.7 129.5 Z M 109.6 119.5 L 107.3 119.3 L 105.0 118.7 L 102.9 117.8 L 100.9 116.4 L 99.2 114.7 L 97.9 112.6 L 96.9 110.3 L 96.3 107.9 L 96.0 105.4 L 96.0 101.2121527671814 L 66.1 103.6 L 65.8 99.6 L 96.0 97.18819446563721 L 96.0 82.3 L 108.0 84.3 L 111.0 86.3 L 108.0 88.1 L 108.0 96.22986106872558 L 130.22941484451295 94.45459537506103 L 139.4 83.7 L 152.2 92.7 L 152.5 96.7 L 108.0 100.2538194656372 L 108.0 105.4 L 107.8 106.6 L 107.8 108.4 L 108.0 109.4 L 108.2 109.8 L 108.7 110.3 L 109.4 110.7 L 110.5 111.1 L 112.0 111.4 L 162.0 111.4 L 166.0 102.4 L 168.0 102.4 L 166.0 111.4 L 168.4 113.0 L 170.0 115.4 L 168.4 117.8 L 166.0 119.4 L 112.0 119.4 Z M 44.5 27.0 L 44.5 42.0 L 161.0 42.0 L 161.0 27.0 Z " />
</g>
</svg>
