<svg xmlns="http://www.w3.org/2000/svg" xmlns:xlink="http://www.w3.org/1999/xlink" version="1.1" baseProfile="full" viewBox="0 0 200 200" width="200" height="200">
<g fill="black">
<path d="M 102.6 30.0 L 102.6 30.058749961853028 L 105.7 29.4 L 113.6 27.8 L 121.3 26.3 L 128.9 24.7 L 136.4 23.1 L 143.8 21.4 L 151.1 19.5 L 158.2 17.6 L 165.2 15.6 L 172.0 13.4 L 172.37884616851807 14.773317337036133 L 182.3 23.1 L 182.5 26.1 L 178.28678512573242 24.17395887374878 L 175.2 25.0 L 168.0 26.6 L 160.6 28.1 L 153.1 29.4 L 145.5 30.5 L 137.9 31.5 L 130.1 32.2 L 122.2 32.8 L 114.1 33.1 L 106.0 33.2 L 102.6 33.034146308898926 L 102.6 51.0 L 170.4 51.0 L 176.4 46.0 L 187.4 55.0 L 182.4 59.0 L 182.4 93.0 L 170.4 99.0 L 170.4 87.0 L 102.6 87.0 L 102.6 101.0 L 102.1 112.8 L 101.2 124.0 L 100.0 134.6 L 98.4 144.6 L 96.5 153.9 L 94.3 162.6 L 91.7 170.6 L 88.7 178.0 L 85.3 184.5 L 81.4 190.3 L 79.9 189.6 L 82.1 183.1 L 84.1 176.3 L 85.9 168.9 L 87.5 161.0 L 88.9 152.5 L 90.0 143.4 L 90.8 133.7 L 91.4 123.4 L 91.6 112.4 L 91.6 24.5 Z M 27.5 161.0 L 15.5 167.0 L 15.5 50.0 L 27.5 52.0 L 30.5 54.0 L 27.5 55.8 L 27.5 145.0 L 40.5 145.0 L 40.5 20.0 L 52.5 22.0 L 55.5 24.0 L 52.5 25.8 L 52.5 145.0 L 67.7 145.0 L 67.7 50.0 L 78.7 52.0 L 81.4 54.0 L 78.7 55.723404216766355 L 78.7 155.0 L 67.7 160.5 L 67.7 149.0 L 27.5 149.0 Z M 121.6 160.3 L 119.8 163.7 L 119.3 165.6 L 119.3 166.2 L 119.7 166.7 L 121.4 167.7 L 125.1 168.8 L 130.5 169.6 L 137.5 169.8 L 173.0 169.8 L 179.0 144.8 L 181.0 144.8 L 179.0 169.8 L 182.6 172.2 L 185.0 175.8 L 182.6 179.4 L 179.0 181.8 L 137.5 181.8 L 129.5 181.5 L 122.5 180.5 L 116.7 178.7 L 111.7 175.6 L 108.3 170.8 L 107.3 164.9 L 108.6 159.3 L 111.5 153.8 L 115.7 148.2 L 121.2 142.3 L 154.3 109.2 L 110.8 109.2 L 110.8 105.2 L 158.8 105.2 L 164.8 100.2 L 175.8 109.2 L 170.8 112.2 L 165.9256495475769 114.23097934722901 L 129.7 150.8 L 124.9 156.0 Z M 102.6 55.0 L 102.6 83.0 L 170.4 83.0 L 170.4 55.0 Z " />
</g>
</svg>
