<svg xmlns="http://www.w3.org/2000/svg" xmlns:xlink="http://www.w3.org/1999/xlink" version="1.1" baseProfile="full" viewBox="0 0 200 200" width="200" height="200">
<g fill="black">
<path d="M 154.6 181.7 L 145.0 177.7 L 136.2 173.3 L 128.4233733177185 168.41468324661255 L 128.0 168.7 L 118.2 173.9 L 107.6 178.3 L 96.4 181.9 L 84.5 184.5 L 71.9 186.2 L 58.6 187.0 L 58.5 185.2 L 71.3 182.5 L 83.2 179.3 L 94.4 175.6 L 104.7 171.3 L 114.3 166.4 L 120.91690139770508 162.21690139770507 L 115.9 157.2 L 111.3 150.9 L 107.9 144.1 L 107.39075727462769 142.29218845367433 L 106.3 143.8 L 102.4 148.1 L 98.1 152.2 L 93.4 156.1 L 88.4 159.6 L 82.9 162.7 L 76.9 165.4 L 76.0 163.8 L 80.7 159.6 L 85.0 155.4 L 89.0 151.2 L 92.6 147.0 L 95.8 142.7 L 98.7 138.4 L 101.1 133.9 L 103.2 129.4 L 104.9 124.8 L 106.00199556350708 121.10044345855712 L 106.0 121.1 L 106.0307692527771 121.00384616851807 L 106.3 120.1 L 106.31816444396972 120.10573616027833 L 106.8 118.6 L 117.7 123.7 L 120.0 126.5 L 116.17667865753174 127.43906135559082 L 115.5 129.1 L 113.01176471710205 133.8 L 149.3 133.8 L 149.54183673858643 133.59846935272216 L 150.4 132.4 L 150.72006692886353 132.6166109085083 L 155.3 128.8 L 166.3 137.8 L 161.3 140.8 L 157.7927038192749 142.26137342453003 L 153.4 147.8 L 145.7 155.6 L 137.27623319625854 162.43811655044556 L 140.8 164.2 L 149.1 167.5 L 158.3 170.4 L 168.4 173.0 L 179.4 175.2 L 188.5 177.0 L 176.7 188.1 L 165.2 185.1 Z M 71.1 141.4 L 70.0 143.7 L 68.6 145.8 L 67.0 147.6 L 65.1 149.3 L 63.0 150.6 L 60.7 151.6 L 58.3 152.3 L 55.9 152.7 L 53.3 152.9 L 53.3 146.9 L 43.3 143.9 L 43.3 140.9 L 53.3 140.9 L 54.6 140.8 L 55.7 140.6 L 56.6 140.4 L 57.4 140.0 L 58.0 139.6 L 58.5 139.2 L 58.877192974090576 138.7473684310913 L 59.9 135.4 L 60.7 133.3 L 61.2 131.0 L 61.3 128.6 L 60.9 125.8 L 59.9 122.7 L 58.4 119.4 L 56.2 115.8 L 53.5 112.0 L 50.1 107.9 L 46.1 103.8 L 46.245454502105716 103.58181819915771 L 45.1 102.6 L 47.9 98.2 L 50.5 93.8 L 52.9 89.7 L 55.2 85.8 L 57.3 82.0 L 59.2 78.4 L 60.9 74.9 L 62.3 71.5 L 63.03125 69.7 L 34.2 69.7 L 34.2 181.6 L 22.2 187.6 L 22.2 59.7 L 34.2 65.7 L 64.2 65.7 L 70.2 60.7 L 81.2 69.7 L 76.2 72.7 L 73.4307692527771 73.85384616851806 L 71.6 76.6 L 69.3 79.9 L 66.8 83.3 L 64.0 86.6 L 61.0 90.0 L 57.8 93.5 L 54.3 96.9 L 50.5 100.3 L 47.77152318954468 102.68741722106934 L 52.3 105.3 L 57.0 108.3 L 61.1 111.5 L 64.6 114.8 L 67.6 118.4 L 70.0 122.1 L 71.7 126.1 L 72.8 130.3 L 73.1 134.7 L 72.5 139.2 L 71.81129941940307 139.50320148468018 Z M 110.52244901657104 137.8 L 109.7 139.1 L 109.54504976272582 139.31419591903688 L 111.5 142.1 L 116.0 147.3 L 121.1 152.1 L 126.9 156.5 L 127.89073305130005 157.10968189239503 L 131.0 154.7 L 138.2 147.9 L 144.6 140.5 L 146.5333333015442 137.8 Z M 179.2 108.0 L 181.2 108.0 L 179.2 117.0 L 181.6 118.6 L 183.2 121.0 L 181.6 123.4 L 179.2 125.0 L 147.4 125.0 L 145.1 124.8 L 142.9 124.3 L 140.7 123.3 L 138.8 122.0 L 137.1 120.2 L 135.7 118.2 L 134.8 115.9 L 134.1 113.5 L 133.8 111.0 L 133.8 98.5 L 107.76666669845581 98.5 L 114.3 101.3 L 116.7 104.0 L 112.56234941482543 105.16144580841065 L 112.5 105.3 L 110.2 109.1 L 107.3 112.6 L 103.9 115.8 L 100.0 118.8 L 95.7 121.6 L 90.8 124.2 L 85.5 126.6 L 79.6 128.7 L 73.2 130.7 L 72.5 129.0 L 78.1 125.5 L 83.0 122.1 L 87.5 118.8 L 91.3 115.6 L 94.6 112.5 L 97.3 109.4 L 99.5 106.4 L 101.1 103.5 L 102.1 100.8 L 102.48853073120117 99.1163670539856 L 102.4 99.1 L 102.5615385055542 98.5 L 68.1 98.5 L 68.1 94.5 L 118.3 94.5 L 118.3 78.6 L 78.9 78.6 L 78.9 74.6 L 118.3 74.6 L 118.3 56.3 L 130.3 58.3 L 133.3 60.3 L 130.3 62.1 L 130.3 74.6 L 153.9181818008423 74.6 L 162.1 65.6 L 172.1 74.6 L 172.1 78.6 L 130.3 78.6 L 130.3 94.5 L 169.4181818008423 94.5 L 177.6 85.5 L 187.6 94.5 L 187.6 98.5 L 145.8 98.5 L 145.8 111.0 L 145.7 112.2 L 145.6 113.2 L 145.7 113.9 L 145.7 114.5 L 145.8 114.9 L 146.1 115.4 L 146.5 115.8 L 147.3 116.3 L 148.4 116.7 L 149.8 117.0 L 175.2 117.0 Z M 31.3 58.0 L 31.3 22.0 L 43.3 24.0 L 46.3 26.0 L 43.3 27.8 L 43.3 48.0 L 94.0 48.0 L 94.0 12.2 L 106.0 14.2 L 109.0 16.2 L 106.0 18.0 L 106.0 48.0 L 155.6 48.0 L 155.6 22.0 L 167.6 24.0 L 170.6 26.0 L 167.6 27.8 L 167.6 56.0 L 155.6 62.0 L 155.6 52.0 L 43.3 52.0 Z " />
</g>
</svg>
