<svg xmlns="http://www.w3.org/2000/svg" xmlns:xlink="http://www.w3.org/1999/xlink" version="1.1" baseProfile="full" viewBox="0 0 200 200" width="200" height="200">
<g fill="black">
<path d="M 185.6 150.5 L 187.6 150.5 L 185.6 175.5 L 189.2 177.9 L 191.6 181.5 L 189.2 185.1 L 185.6 187.5 L 109.5 187.5 L 106.9 187.4 L 104.4 186.9 L 102.0 186.1 L 99.8 184.9 L 97.8 183.2 L 96.1 181.2 L 94.9 179.0 L 94.1 176.5 L 93.6 174.1 L 93.5 171.5 L 93.5 50.6 L 105.5 52.6 L 108.5 54.6 L 105.5 56.4 L 105.5 171.5 L 105.6 172.7 L 105.7 173.6 L 105.9 174.2 L 106.1 174.6 L 106.4 174.9 L 106.8 175.1 L 107.4 175.3 L 108.3 175.4 L 109.5 175.5 L 179.6 175.5 Z M 151.1076696395874 115.83539819717407 L 150.8 119.0 L 149.2 125.9 L 146.7 132.4 L 145.2876543045044 134.9679012298584 L 146.1 135.2 L 150.8 136.6 L 155.2 138.3 L 159.3 140.1 L 163.2 142.1 L 166.9 144.3 L 170.3 146.6 L 173.5 149.0 L 176.5 151.6 L 179.2 154.3 L 180.3 158.7 L 178.0 162.7 L 173.6 163.8 L 169.6 161.6 L 168.0 159.0 L 166.1 156.5 L 163.9 153.9 L 161.4 151.3 L 158.6 148.8 L 155.6 146.2 L 152.2 143.5 L 148.6 140.9 L 144.7 138.1 L 143.86147756576537 137.5609498977661 L 143.4 138.4 L 139.3 144.0 L 134.4 149.0 L 128.8 153.6 L 122.5 157.6 L 115.4 161.0 L 107.6 163.8 L 106.8 162.2 L 113.5 157.7 L 119.5 153.1 L 124.6 148.5 L 129.0 143.8 L 132.5 138.9 L 135.3 133.9 L 137.4 128.7 L 138.8 123.3 L 139.5 117.7 L 139.5 109.4 L 151.5 111.8 L 154.5 113.8 Z M 61.2076696395874 115.83539819717407 L 60.9 119.0 L 59.4 125.9 L 57.0 132.4 L 55.60171356201172 135.02178707122803 L 56.2 135.2 L 60.8 136.7 L 65.0 138.3 L 69.1 140.2 L 72.8 142.2 L 76.4 144.3 L 79.7 146.6 L 82.8 149.0 L 85.7 151.6 L 88.3 154.4 L 89.3 158.8 L 87.0 162.7 L 82.6 163.8 L 78.6 161.5 L 77.1 158.9 L 75.3 156.4 L 73.2 153.8 L 70.8 151.3 L 68.2 148.7 L 65.2 146.1 L 62.0 143.5 L 58.6 140.8 L 54.8 138.1 L 54.18235292434692 137.68308820724488 L 53.8 138.4 L 49.8 143.9 L 45.1 149.0 L 39.7 153.5 L 33.5 157.5 L 26.6 161.0 L 19.1 163.8 L 18.3 162.2 L 24.8 157.7 L 30.4 153.2 L 35.4 148.6 L 39.5 143.8 L 42.9 139.0 L 45.6 133.9 L 47.6 128.8 L 48.9 123.4 L 49.6 117.7 L 49.6 109.4 L 61.6 111.8 L 64.6 113.8 Z M 61.4625 69.2625 L 61.2 71.7 L 59.7 77.9 L 57.5 83.8 L 56.30973453521729 85.94247789382935 L 56.5 86.0 L 60.6 87.2 L 64.5 88.6 L 68.2 90.2 L 71.7 91.9 L 75.0 93.8 L 78.0 95.7 L 80.9 97.8 L 83.5 100.1 L 85.9 102.5 L 87.0 106.9 L 84.7 110.9 L 80.3 112.0 L 76.3 109.7 L 75.0 107.5 L 73.5 105.2 L 71.6 103.0 L 69.5 100.7 L 67.2 98.3 L 64.6 96.0 L 61.7 93.6 L 58.6 91.2 L 55.2 88.7 L 54.88616075515747 88.50491075515747 L 54.5 89.2 L 50.8 94.2 L 46.5 98.7 L 41.4 102.7 L 35.8 106.3 L 29.5 109.3 L 22.5 111.7 L 21.7 110.1 L 27.6 106.0 L 32.7 101.8 L 37.2 97.7 L 41.0 93.5 L 44.0 89.1 L 46.4 84.7 L 48.2 80.1 L 49.3 75.3 L 49.9 70.4 L 49.9 62.8 L 61.9 65.2 L 64.9 67.2 Z M 150.2625 68.6625 L 150.0 71.1 L 148.6 77.2 L 146.3 83.0 L 145.10973453521729 85.14247789382935 L 145.3 85.2 L 149.5 86.3 L 153.5 87.7 L 157.2 89.3 L 160.7 91.0 L 164.0 92.8 L 167.1 94.7 L 170.0 96.8 L 172.6 99.0 L 175.1 101.4 L 176.2 105.8 L 174.0 109.8 L 169.6 110.9 L 165.6 108.7 L 164.2 106.5 L 162.6 104.3 L 160.8 102.0 L 158.7 99.7 L 156.3 97.4 L 153.6 95.1 L 150.7 92.7 L 147.5 90.3 L 144.1 87.8 L 143.7507658958435 87.58862142562866 L 143.3 88.4 L 139.6 93.3 L 135.1 97.8 L 130.1 101.7 L 124.3 105.2 L 117.9 108.2 L 110.9 110.6 L 110.1 109.0 L 116.1 104.9 L 121.3 100.8 L 125.9 96.7 L 129.7 92.5 L 132.8 88.2 L 135.2 83.8 L 137.0 79.3 L 138.2 74.6 L 138.7 69.7 L 138.7 62.2 L 150.7 64.6 L 153.7 66.6 Z M 44.2 55.8 L 32.2 61.8 L 32.2 21.1 L 44.2 23.1 L 47.2 25.1 L 44.2 26.9 L 44.2 44.8 L 93.0 44.8 L 93.0 12.2 L 105.0 14.2 L 108.0 16.2 L 105.0 18.0 L 105.0 44.8 L 152.7 44.8 L 152.7 21.1 L 164.7 23.1 L 167.7 25.1 L 164.7 26.9 L 164.7 52.8 L 152.7 58.8 L 152.7 48.8 L 44.2 48.8 Z " />
</g>
</svg>
