<svg xmlns="http://www.w3.org/2000/svg" xmlns:xlink="http://www.w3.org/1999/xlink" version="1.1" baseProfile="full" viewBox="0 0 200 200" width="200" height="200">
<g fill="black">
<path d="M 85.3 26.1 L 171.1 26.1 L 177.1 21.1 L 188.1 30.1 L 183.1 34.1 L 183.1 178.8 L 171.1 184.8 L 171.1 174.8 L 85.3 174.8 L 85.3 181.8 L 74.3 187.3 L 74.3 20.6 Z M 85.3 30.1 L 85.3 170.8 L 171.1 170.8 L 171.1 30.1 Z M 150.1 157.0 L 146.2 152.7 L 142.7 148.2 L 139.4 143.4 L 136.4 138.3 L 133.7 133.0 L 131.3 127.4 L 129.4 121.6 L 129.116299533844 120.3436122894287 L 124.1 125.7 L 118.8 130.73934421539306 L 118.8 149.5264705657959 L 118.9 149.5 L 122.4 148.7 L 126.0 147.8 L 129.6 147.0 L 133.3 146.0 L 134.0 147.6 L 130.8 149.6 L 127.7 151.8 L 124.6 153.9 L 121.6 155.8 L 118.6 157.6 L 112.6 161.0 L 109.8 162.6 L 108.05485305786132 163.5628396987915 L 107.1 167.8 L 104.1 165.7 L 98.0 155.2 L 99.8 154.5 L 102.8 153.7 L 106.8 152.66774196624755 L 106.8 140.16716413497926 L 104.9 141.5 L 97.9 145.6 L 90.6 149.0 L 89.7 147.5 L 95.8 142.5 L 101.6 137.3 L 106.8 132.192857170105 L 106.8 130.2 L 108.71578950881958 130.2 L 112.6 126.1 L 117.8 120.0 L 118.0049695968628 119.73228454589844 L 113.9 120.0 L 110.4 117.1 L 110.1 115.6 L 109.6 114.1 L 108.9 112.4 L 107.9 110.7 L 106.7 108.9 L 105.4 107.0 L 103.8 105.1 L 102.0 103.1 L 100.0 101.0 L 97.6 99.3 L 98.4 97.7 L 101.2 99.0 L 104.1 99.9 L 106.02399053573609 100.61258907318116 L 107.0 98.8 L 108.3 96.3 L 109.6 93.7 L 110.8 91.2 L 111.9 88.7 L 113.0 86.1 L 113.9 83.6 L 114.8 81.0 L 115.31071643829345 79.34017143249511 L 115.2 79.3 L 115.54782609939575 78.56956520080567 L 115.6 78.4 L 115.6234492301941 78.41075658798218 L 116.2 77.2 L 126.5 83.4 L 128.4 86.5 L 124.14942855834961 86.93971424102783 L 123.0 88.6 L 121.1 91.0 L 119.1 93.3 L 117.0 95.6 L 114.8 97.7 L 112.5 99.7 L 110.1 101.5 L 109.23215742111206 102.0674355506897 L 109.3 102.1 L 111.6 103.4 L 113.8 104.8 L 115.9 106.3 L 117.8 108.0 L 119.6 109.7 L 121.1 111.7 L 121.34468088150024 115.3702127456665 L 122.7 113.6 L 127.4 106.8 L 131.9 99.6 L 136.1 92.0 L 139.64141788482667 84.91716413497925 L 139.6 84.9 L 140.6 82.9 L 150.7 89.5 L 152.5 92.6 L 148.7333041191101 92.85977210998536 L 145.9 97.7 L 140.9 105.4 L 135.6 112.6 L 131.59572191238402 117.46233768463135 L 133.2 119.8 L 136.6 124.7 L 139.9 129.3 L 140.82317876815796 130.49470195770263 L 141.6 129.2 L 143.2 126.8 L 144.7 124.5 L 146.3 122.2 L 150.8 115.3 L 153.24667911529542 111.7115372657776 L 153.1 111.6 L 154.1 110.5 L 162.7 118.9 L 163.6 122.4 L 159.39242906570433 121.58801259994507 L 158.4 122.4 L 156.2 124.1 L 153.9 125.8 L 149.3 129.0 L 146.9 130.6 L 144.4 132.1 L 142.78403873443602 133.0322854042053 L 143.3 133.7 L 146.8 137.7 L 150.5 141.6 L 154.2 145.1 L 158.1 148.4 L 162.1 151.4 L 166.2 154.1 L 169.5 156.5 L 158.5 164.8 L 154.2 161.1 Z M 23.7 161.0 L 12.7 166.5 L 12.7 50.0 L 23.7 52.0 L 26.5 54.0 L 23.7 55.75 L 23.7 145.0 L 34.0 145.0 L 34.0 20.0 L 44.0 22.0 L 46.5 24.0 L 44.0 25.66666669845581 L 44.0 145.0 L 56.2 145.0 L 56.2 50.0 L 66.2 52.0 L 68.7 54.0 L 66.2 55.66666669845581 L 66.2 155.0 L 56.2 160.0 L 56.2 149.0 L 23.7 149.0 Z M 91.0 72.6 L 122.5 72.6 L 122.5 53.5 L 96.7 53.5 L 96.7 49.5 L 122.5 49.5 L 122.5 33.7 L 134.5 35.7 L 137.5 37.7 L 134.5 39.5 L 134.5 49.5 L 142.01818180084229 49.5 L 150.2 40.5 L 160.2 49.5 L 160.2 53.5 L 134.5 53.5 L 134.5 72.6 L 143.9 72.6 L 153.9 62.6 L 165.9 72.6 L 165.9 76.6 L 91.0 76.6 Z " />
</g>
</svg>
