<svg xmlns="http://www.w3.org/2000/svg" xmlns:xlink="http://www.w3.org/1999/xlink" version="1.1" baseProfile="full" viewBox="0 0 200 200" width="200" height="200">
<g fill="black">
<path d="M 126.3 152.5 L 170.6 152.5 L 176.6 147.5 L 187.6 156.5 L 182.6 160.5 L 182.6 183.5 L 170.6 189.5 L 170.6 183.5 L 126.3 183.5 L 114.3 189.5 L 114.3 146.5 Z M 18.6 172.5 L 25.8 172.0 L 33.1 171.5 L 40.6 171.0 L 48.3 170.4 L 52.0 170.11898736953736 L 52.0 152.7 L 21.7 152.7 L 21.7 148.7 L 52.0 148.7 L 52.0 131.2 L 64.0 133.2 L 67.0 135.2 L 64.0 137.0 L 64.0 148.7 L 70.3 148.7 L 80.3 138.7 L 92.3 148.7 L 92.3 152.7 L 64.0 152.7 L 64.0 169.21499996185304 L 64.2 169.2 L 72.5 168.6 L 81.0 168.0 L 89.6 167.6 L 98.5 167.2 L 98.8 169.0 L 90.2 171.3 L 81.7 173.3 L 73.4 175.1 L 65.3 176.7 L 57.3 178.3 L 49.5 179.7 L 41.8 181.0 L 34.3 182.2 L 27.0 183.4 L 23.936924552917482 183.8314190864563 L 22.2 187.2 L 19.9 184.4 L 16.6 172.7 Z M 126.3 156.5 L 126.3 179.5 L 170.6 179.5 L 170.6 156.5 Z M 114.0 146.2 L 114.0 110.3 L 126.0 112.3 L 129.0 114.3 L 126.0 116.1 L 126.0 136.2 L 143.5 136.2 L 143.5 100.2 L 155.5 102.2 L 158.5 104.2 L 155.5 106.0 L 155.5 136.2 L 172.9 136.2 L 172.9 110.3 L 184.9 112.3 L 187.9 114.3 L 184.9 116.1 L 184.9 140.2 L 172.9 146.2 L 172.9 140.2 L 126.0 140.2 Z M 91.4 134.1 L 89.3 131.5 L 87.0 129.0 L 84.4 126.6 L 81.7 124.1 L 78.7 121.7 L 75.5 119.3 L 72.1 116.9 L 68.3 114.7 L 69.0 113.0 L 73.3 114.1 L 77.5 115.2 L 78.9 115.68999996185303 L 78.9 110.4 L 39.0 110.4 L 27.0 116.4 L 27.0 75.525 L 25.9 76.1 L 21.3 78.2 L 16.6 80.1 L 11.6 81.8 L 10.8 80.2 L 14.8 77.0 L 18.7 73.8 L 22.4 70.7 L 26.0 67.7 L 29.5 64.6 L 32.8 61.6 L 36.0 58.5 L 39.0 55.3 L 41.8 52.2 L 43.86536855697632 49.752155780792236 L 43.8 49.7 L 44.8 48.7 L 53.2 57.2 L 54.0 60.8 L 50.201720237731934 59.933725643157956 L 49.8 60.3 L 46.2 63.2 L 42.4 66.1 L 38.5 68.8 L 34.5 71.3 L 30.3 73.8 L 29.957777786254884 73.97888889312745 L 39.0 78.5 L 78.9 78.5 L 84.9 73.5 L 95.9 82.5 L 90.9 86.5 L 90.9 110.4 L 79.73529415130615 115.98235292434693 L 81.5 116.6 L 85.3 118.3 L 89.0 120.1 L 92.4 122.1 L 95.7 124.3 L 98.8 126.6 L 101.7 129.2 L 104.5 131.9 L 105.6 136.3 L 103.4 140.3 L 99.0 141.5 L 95.0 139.2 L 93.3 136.6 Z M 53.0 119.5 L 53.6 123.0 L 49.786941623687746 121.97864503860474 L 49.5 122.2 L 46.0 124.8 L 42.2 127.4 L 38.3 129.8 L 34.3 132.1 L 30.1 134.2 L 25.7 136.3 L 21.2 138.1 L 16.5 139.8 L 11.6 141.3 L 10.8 139.6 L 14.9 136.7 L 18.8 133.7 L 22.5 130.8 L 26.2 128.0 L 29.7 125.2 L 33.0 122.4 L 36.2 119.5 L 39.2 116.6 L 42.0 113.7 L 43.98153781890869 111.57168159484863 L 43.9 111.5 L 44.9 110.6 Z M 39.0 96.0 L 39.0 106.4 L 78.9 106.4 L 78.9 96.0 Z M 126.3 62.5 L 170.6 62.5 L 176.6 57.5 L 187.6 66.5 L 182.6 70.5 L 182.6 95.5 L 170.6 101.5 L 170.6 93.5 L 126.3 93.5 L 126.3 96.5 L 114.3 102.5 L 114.3 56.5 Z M 39.0 82.5 L 39.0 92.0 L 78.9 92.0 L 78.9 82.5 Z M 126.3 66.5 L 126.3 89.5 L 170.6 89.5 L 170.6 66.5 Z M 91.3 73.5 L 89.2 70.7 L 86.8 68.0 L 84.3 65.4 L 81.5 62.7 L 78.5 60.2 L 75.4 57.6 L 72.0 55.0 L 68.3 52.5 L 69.0 50.9 L 73.4 52.2 L 77.6 53.5 L 81.7 55.1 L 85.5 57.0 L 89.2 59.0 L 92.7 61.3 L 96.0 63.8 L 99.1 66.4 L 102.0 69.3 L 104.7 72.3 L 105.7 76.8 L 103.3 80.7 L 98.8 81.6 L 94.9 79.2 L 93.2 76.4 Z M 114.0 56.2 L 114.0 20.3 L 126.0 22.3 L 129.0 24.3 L 126.0 26.1 L 126.0 46.2 L 143.5 46.2 L 143.5 10.2 L 155.5 12.2 L 158.5 14.2 L 155.5 16.0 L 155.5 46.2 L 172.9 46.2 L 172.9 20.3 L 184.9 22.3 L 187.9 24.3 L 184.9 26.1 L 184.9 50.2 L 172.9 56.2 L 172.9 50.2 L 126.0 50.2 Z M 79.2 14.1 L 82.2 16.1 L 79.2 17.9 L 79.2 27.3 L 93.5777777671814 27.3 L 99.8 20.3 L 107.8 27.3 L 107.8 31.3 L 79.2 31.3 L 79.2 42.0 L 67.2 48.0 L 67.2 12.1 Z M 52.8 14.1 L 55.8 16.1 L 52.8 17.9 L 52.8 42.0 L 40.8 48.0 L 40.8 31.3 L 12.1 31.3 L 12.1 27.3 L 40.8 27.3 L 40.8 12.1 Z " />
</g>
</svg>
