<svg xmlns="http://www.w3.org/2000/svg" xmlns:xlink="http://www.w3.org/1999/xlink" version="1.1" baseProfile="full" viewBox="0 0 200 200" width="200" height="200">
<g fill="black">
<path d="M 60.2 173.8 L 56.9 169.9 L 53.2 166.0 L 48.9 162.2 L 44.2 158.5 L 39.0 154.9 L 33.3 151.3 L 27.2 147.8 L 20.7 144.1 L 20.90234794616699 143.52668085098267 L 20.5 143.7 L 19.6 142.2 L 25.0 137.7 L 30.1 133.4 L 35.1 129.3 L 39.8 125.3 L 44.2 121.4 L 48.3 117.6 L 52.1 113.9 L 55.5 110.2 L 58.7 106.7 L 60.973616981506346 103.95597953796387 L 60.9 103.9 L 62.0 102.8 L 70.5 111.2 L 71.4 114.7 L 67.5755784034729 113.96195373535156 L 66.9 114.6 L 62.9 118.0 L 58.7 121.4 L 54.2 124.8 L 49.4 128.1 L 44.3 131.4 L 38.9 134.7 L 33.1 137.8 L 27.0 140.9 L 22.689597797393798 142.7567886352539 L 28.7 144.3 L 35.7 146.5 L 42.1 149.1 L 48.2 152.1 L 53.9 155.3 L 59.1 158.8 L 63.9 162.7 L 68.3 166.7 L 72.2 171.1 L 75.7 175.8 L 76.4 180.3 L 73.7 184.0 L 69.2 184.7 L 65.5 182.0 L 63.1 177.9 Z M 113.7 173.8 L 110.4 169.9 L 106.6 166.0 L 102.2 162.2 L 97.2 158.6 L 91.7 154.9 L 85.5 151.4 L 78.9 147.8 L 71.7 144.1 L 71.8982089996338 143.53840799331664 L 71.5 143.7 L 70.6 142.2 L 76.5 137.6 L 82.0 133.3 L 87.4 129.2 L 92.4 125.2 L 97.2 121.3 L 101.6 117.5 L 105.7 113.8 L 109.4 110.1 L 112.9 106.5 L 115.34640884399414 103.73792552947998 L 115.3 103.7 L 116.3 102.7 L 124.6 111.3 L 125.4 114.9 L 121.62243213653565 113.97217626571656 L 120.7 114.8 L 116.5 118.2 L 112.0 121.5 L 107.3 124.9 L 102.1 128.2 L 96.7 131.5 L 91.0 134.7 L 84.9 137.9 L 78.4 140.9 L 73.84623775482177 142.74790353775023 L 80.3 144.2 L 87.7 146.5 L 94.6 149.1 L 101.1 152.0 L 107.0 155.3 L 112.4 158.8 L 117.3 162.6 L 121.8 166.7 L 125.7 171.1 L 129.1 175.9 L 129.6 180.4 L 126.8 184.1 L 122.3 184.6 L 118.6 181.8 L 116.4 177.8 Z M 165.4 173.5 L 162.5 169.7 L 158.9 165.9 L 154.8 162.2 L 150.0 158.5 L 144.6 154.9 L 138.6 151.4 L 132.1 147.8 L 124.9 144.1 L 125.09726028442383 143.54109592437743 L 124.7 143.7 L 123.8 142.2 L 129.8 137.6 L 135.6 133.3 L 141.0 129.2 L 146.1 125.2 L 150.9 121.3 L 155.3 117.5 L 159.3 113.8 L 162.9 110.2 L 166.2 106.6 L 168.41441030502318 103.91107320785522 L 168.4 103.9 L 168.65 103.625 L 169.0 103.2 L 169.02001123428346 103.21798763275146 L 169.4 102.8 L 177.9 111.2 L 178.8 114.7 L 174.97943382263185 113.96269779205322 L 174.2 114.7 L 170.1 118.1 L 165.7 121.5 L 161.0 124.9 L 155.9 128.2 L 150.4 131.5 L 144.6 134.7 L 138.4 137.9 L 131.7 140.9 L 127.06088705062866 142.75564517974854 L 133.4 144.2 L 140.8 146.5 L 147.6 149.1 L 153.9 152.0 L 159.7 155.3 L 164.9 158.8 L 169.6 162.7 L 173.8 166.8 L 177.4 171.3 L 180.4 176.2 L 180.6 180.7 L 177.6 184.2 L 173.0 184.3 L 169.6 181.3 L 167.8 177.4 Z M 60.2 85.8 L 56.9 81.9 L 53.2 78.0 L 48.9 74.2 L 44.2 70.5 L 39.0 66.9 L 33.3 63.3 L 27.2 59.8 L 20.7 56.1 L 20.90234794616699 55.526680850982665 L 20.5 55.7 L 19.6 54.2 L 25.0 49.7 L 30.1 45.4 L 35.1 41.3 L 39.8 37.3 L 44.2 33.4 L 48.3 29.6 L 52.1 25.9 L 55.5 22.2 L 58.7 18.7 L 60.973616981506346 15.955979537963866 L 60.9 15.9 L 62.0 14.8 L 70.5 23.2 L 71.4 26.7 L 67.5755784034729 25.961953735351564 L 66.9 26.6 L 62.9 30.0 L 58.7 33.4 L 54.2 36.8 L 49.4 40.1 L 44.3 43.4 L 38.9 46.7 L 33.1 49.8 L 27.0 52.9 L 22.689597797393798 54.756788635253905 L 28.7 56.3 L 35.7 58.5 L 42.1 61.1 L 48.2 64.1 L 53.9 67.3 L 59.1 70.8 L 63.9 74.7 L 68.3 78.7 L 72.2 83.1 L 75.7 87.8 L 76.4 92.3 L 73.7 96.0 L 69.2 96.7 L 65.5 94.0 L 63.1 89.9 Z M 113.7 85.8 L 110.4 81.9 L 106.6 78.0 L 102.2 74.2 L 97.2 70.6 L 91.7 66.9 L 85.5 63.4 L 78.9 59.8 L 71.7 56.1 L 71.8982089996338 55.53840799331665 L 71.5 55.7 L 70.6 54.2 L 76.5 49.6 L 82.0 45.3 L 87.4 41.2 L 92.4 37.2 L 97.2 33.3 L 101.6 29.5 L 105.7 25.8 L 109.4 22.1 L 112.9 18.5 L 115.34640884399414 15.73792552947998 L 115.3 15.7 L 116.3 14.7 L 124.6 23.3 L 125.4 26.9 L 121.62243213653565 25.972176265716552 L 120.7 26.8 L 116.5 30.2 L 112.0 33.5 L 107.3 36.9 L 102.1 40.2 L 96.7 43.5 L 91.0 46.7 L 84.9 49.9 L 78.4 52.9 L 73.84623775482177 54.74790353775025 L 80.3 56.2 L 87.7 58.5 L 94.6 61.1 L 101.1 64.0 L 107.0 67.3 L 112.4 70.8 L 117.3 74.6 L 121.8 78.7 L 125.7 83.1 L 129.1 87.9 L 129.6 92.4 L 126.8 96.1 L 122.3 96.6 L 118.6 93.8 L 116.4 89.8 Z M 165.4 85.5 L 162.5 81.7 L 158.9 77.9 L 154.8 74.2 L 150.0 70.5 L 144.6 66.9 L 138.6 63.4 L 132.1 59.8 L 124.9 56.1 L 125.09726028442383 55.541095924377444 L 124.7 55.7 L 123.8 54.2 L 129.8 49.6 L 135.6 45.3 L 141.0 41.2 L 146.1 37.2 L 150.9 33.3 L 155.3 29.5 L 159.3 25.8 L 162.9 22.2 L 166.2 18.6 L 168.41441030502318 15.911073207855225 L 168.4 15.9 L 168.65 15.625 L 169.0 15.2 L 169.02001123428346 15.217987632751464 L 169.4 14.8 L 177.9 23.2 L 178.8 26.7 L 174.97943382263185 25.962697792053223 L 174.2 26.7 L 170.1 30.1 L 165.7 33.5 L 161.0 36.9 L 155.9 40.2 L 150.4 43.5 L 144.6 46.7 L 138.4 49.9 L 131.7 52.9 L 127.06088705062866 54.755645179748534 L 133.4 56.2 L 140.8 58.5 L 147.6 61.1 L 153.9 64.0 L 159.7 67.3 L 164.9 70.8 L 169.6 74.7 L 173.8 78.8 L 177.4 83.3 L 180.4 88.2 L 180.6 92.7 L 177.6 96.2 L 173.0 96.3 L 169.6 93.3 L 167.8 89.4 Z " />
</g>
</svg>
