<svg xmlns="http://www.w3.org/2000/svg" xmlns:xlink="http://www.w3.org/1999/xlink" version="1.1" baseProfile="full" viewBox="0 0 200 200" width="200" height="200">
<g fill="black">
<path d="M 61.5 176.9 L 58.5 173.0 L 55.1 169.2 L 51.2 165.5 L 46.9 161.8 L 42.2 158.3 L 37.1 154.8 L 31.5 151.2 L 25.6 147.6 L 25.822772312164307 147.00594062805175 L 25.4 147.2 L 24.5 145.7 L 29.3 141.2 L 34.0 137.0 L 38.5 132.9 L 42.8 129.0 L 46.8 125.2 L 50.6 121.4 L 54.0 117.8 L 57.2 114.2 L 60.1 110.7 L 62.1037519454956 108.00264167785645 L 62.1 108.0 L 62.26666669845581 107.78333330154419 L 62.7 107.2 L 62.709359073638915 107.20783319473267 L 63.1 106.7 L 71.9 114.9 L 72.9 118.4 L 69.00447759628295 117.79552240371704 L 68.5 118.3 L 64.8 121.7 L 60.9 125.1 L 56.7 128.4 L 52.3 131.7 L 47.5 135.0 L 42.5 138.2 L 37.2 141.3 L 31.5 144.4 L 27.356831645965578 146.30178213119507 L 33.1 147.8 L 39.5 150.0 L 45.5 152.6 L 51.2 155.5 L 56.4 158.7 L 61.3 162.2 L 65.7 166.0 L 69.8 170.1 L 73.5 174.4 L 76.7 179.0 L 77.2 183.5 L 74.4 187.2 L 69.9 187.7 L 66.3 184.9 L 64.1 180.8 Z M 110.8 176.8 L 107.8 173.0 L 104.3 169.2 L 100.3 165.5 L 95.8 161.9 L 90.7 158.3 L 85.2 154.8 L 79.1 151.2 L 72.6 147.6 L 72.8034782409668 147.0234782218933 L 72.4 147.2 L 71.5 145.7 L 76.8 141.2 L 81.9 136.9 L 86.7 132.9 L 91.3 128.9 L 95.7 125.1 L 99.7 121.3 L 103.4 117.6 L 106.9 114.0 L 110.0 110.5 L 112.13730573654175 107.82836790084839 L 112.1 107.8 L 112.57142858505249 107.28571424484252 L 112.8 107.0 L 112.81817255020141 107.01653909683228 L 113.2 106.6 L 121.7 115.1 L 122.6 118.6 L 118.8336709022522 117.80708856582642 L 118.1 118.5 L 114.3 121.8 L 110.1 125.2 L 105.6 128.5 L 100.9 131.8 L 95.9 135.0 L 90.5 138.3 L 84.9 141.4 L 78.8 144.4 L 74.5955334663391 146.23945407867433 L 80.6 147.7 L 87.5 149.9 L 93.9 152.5 L 99.9 155.4 L 105.4 158.7 L 110.4 162.2 L 115.0 165.9 L 119.1 170.0 L 122.7 174.4 L 125.9 179.1 L 126.2 183.7 L 123.3 187.2 L 118.8 187.6 L 115.2 184.7 L 113.2 180.7 Z M 158.5 176.6 L 155.8 172.8 L 152.6 169.1 L 148.8 165.4 L 144.5 161.8 L 139.6 158.3 L 134.1 154.8 L 128.1 151.2 L 121.6 147.6 L 121.80125789642334 147.02976942062378 L 121.4 147.2 L 120.5 145.7 L 126.0 141.2 L 131.2 136.9 L 136.2 132.9 L 140.8 128.9 L 145.2 125.1 L 149.2 121.3 L 152.8 117.7 L 156.1 114.1 L 159.1 110.6 L 161.7 107.2 L 161.70935907363892 107.20783319473267 L 162.1 106.7 L 170.9 114.9 L 171.9 118.4 L 168.00447759628295 117.79552240371704 L 167.4 118.4 L 163.7 121.8 L 159.6 125.1 L 155.1 128.5 L 150.4 131.8 L 145.3 135.1 L 139.9 138.3 L 134.2 141.4 L 128.0 144.4 L 123.63914108276367 146.25006132125856 L 129.6 147.7 L 136.4 149.9 L 142.8 152.5 L 148.6 155.5 L 154.0 158.7 L 158.8 162.2 L 163.2 166.0 L 167.1 170.2 L 170.4 174.6 L 173.2 179.4 L 173.3 183.9 L 170.2 187.3 L 165.6 187.4 L 162.2 184.3 L 160.6 180.4 Z M 89.3 48.0 L 83.7 57.0 L 80.7 61.5 L 77.7 65.9 L 74.6 70.3 L 71.3 74.7 L 67.9 79.0 L 64.4 83.3 L 61.135103130340575 86.91785869598388 L 66.4 86.4 L 78.8 85.2 L 91.4 84.0 L 104.1 82.7 L 117.0 81.4 L 130.1 80.2 L 143.4 79.1 L 144.18759365081786 79.04122438430787 L 141.5 76.0 L 137.4 71.8 L 133.2 67.7 L 128.8 63.6 L 124.3 59.4 L 125.3 57.9 L 131.0 60.5 L 136.4 63.4 L 141.6 66.8 L 146.6 70.4 L 151.3 74.3 L 155.57136611938478 78.19168910980224 L 156.8 78.1 L 157.06602869033813 79.69617223739624 L 160.0 82.7 L 164.1 87.3 L 167.9 92.1 L 171.5 97.1 L 172.2 101.7 L 169.5 105.4 L 165.0 106.0 L 161.3 103.4 L 158.5 98.5 L 155.5 93.7 L 152.3 89.1 L 148.9 84.6 L 146.8503571510315 82.15181550979614 L 143.9 82.8 L 130.8 85.5 L 117.9 87.9 L 105.1 90.2 L 92.5 92.4 L 80.0 94.4 L 67.7 96.4 L 55.5 98.2 L 43.5 100.0 L 35.69230766296387 101.11538457870483 L 34.0 104.5 L 31.6 101.7 L 28.3 90.0 L 30.3 89.8 L 42.1 88.7 L 54.2 87.6 L 56.567776679992676 87.36710395812989 L 57.5 85.3 L 60.0 80.3 L 62.4 75.4 L 64.9 70.6 L 67.3 65.9 L 69.7 61.1 L 72.0 56.4 L 74.3 51.8 L 76.45319147109986 47.2 L 16.0 47.2 L 16.0 43.2 L 95.0 43.2 L 95.0 14.5 L 107.0 16.5 L 110.0 18.5 L 107.0 20.3 L 107.0 43.2 L 163.0 43.2 L 173.0 33.2 L 185.0 43.2 L 185.0 47.2 L 89.75714282989502 47.2 Z " />
</g>
</svg>
