<svg xmlns="http://www.w3.org/2000/svg" xmlns:xlink="http://www.w3.org/1999/xlink" version="1.1" baseProfile="full" viewBox="0 0 200 200" width="200" height="200">
<g fill="black">
<path d="M 81.8 179.2 L 80.6 174.8 L 82.7 170.8 L 83.9 170.2 L 85.2 169.1 L 86.5 167.7 L 87.8 165.7 L 89.0 163.3 L 90.1 160.3 L 91.1 157.0 L 92.0 153.2 L 92.9 148.9 L 93.2 144.3 L 95.0 144.2 L 95.6 148.9 L 96.3 153.3 L 96.6 157.5 L 96.7 161.4 L 96.5 165.1 L 96.0 168.5 L 95.1 171.8 L 93.9 174.8 L 92.3 177.6 L 90.2 180.2 L 85.8 181.4 Z M 176.4 180.8 L 174.7 182.6 L 172.8 184.2 L 170.8 185.5 L 168.6 186.6 L 166.4 187.5 L 164.0 188.1 L 161.5 188.4 L 159.1 188.5 L 159.1 182.5 L 139.1 179.5 L 139.1 176.5 L 160.4 176.5 L 161.7 176.3 L 162.8 176.0 L 163.8 175.6 L 164.7 175.2 L 165.6 174.6 L 166.4 173.9 L 167.2 173.1 L 167.9 172.1 L 168.7 170.9 L 169.3 169.5 L 170.0 167.6 L 170.6 165.0 L 171.2 161.8 L 171.8 158.1 L 172.2 153.9 L 172.5 149.2 L 172.8 144.0 L 172.9 138.3 L 172.9672131538391 134.2 L 106.2 134.2 L 94.2 140.2 L 94.2 61.9 L 106.2 67.9 L 155.1 67.9 L 164.88999996185302 58.11000003814697 L 164.8 58.1 L 161.8 54.6 L 161.6 52.6 L 161.2 50.6 L 160.7 48.6 L 160.0 46.5 L 159.1 44.4 L 158.1 42.3 L 156.9 40.1 L 155.5 37.8 L 154.0 35.5 L 152.73684206008912 34.3 L 151.1659999847412 34.3 L 150.2 36.4 L 147.5 41.1 L 144.6 45.6 L 141.5 49.9 L 138.0 53.8 L 134.2 57.4 L 130.0 60.6 L 128.7 59.4 L 131.3 55.0 L 133.7 50.6 L 136.0 46.3 L 138.0 41.9 L 139.9 37.4 L 141.6 32.7 L 143.1 28.0 L 144.3 23.1 L 145.4 18.1 L 146.0453971862793 13.904918003082276 L 146.0 13.9 L 146.18000001907347 13.030000019073487 L 146.2 12.9 L 146.2066291809082 12.9012921333313 L 146.6 11.0 L 158.0 15.2 L 160.6 17.8 L 156.8910662651062 19.08126802444458 L 156.4 20.8 L 154.6 26.2 L 152.9442307472229 30.3 L 170.11818180084228 30.3 L 178.3 21.3 L 188.3 30.3 L 188.3 34.3 L 156.7 34.3 L 158.1 35.0 L 160.6 36.5 L 162.9 38.1 L 165.0 39.9 L 167.0 41.9 L 168.8 44.0 L 170.5 46.2 L 172.0 48.6 L 173.3 51.1 L 172.8 55.6 L 169.3 58.6 L 165.42307691574098 58.1692307472229 L 177.1 67.9 L 177.1 71.9 L 141.0 71.9 L 141.0 88.7 L 154.01818180084229 88.7 L 162.2 79.7 L 172.2 88.7 L 172.2 92.7 L 141.0 92.7 L 141.0 109.4 L 154.01818180084229 109.4 L 162.2 100.4 L 172.2 109.4 L 172.2 113.4 L 141.0 113.4 L 141.0 130.2 L 173.0 130.2 L 179.0 125.2 L 190.0 134.2 L 185.0 137.2 L 184.92010650634765 137.23328895568847 L 184.9 138.5 L 184.8 144.5 L 184.5 149.9 L 184.1 155.0 L 183.7 159.6 L 183.1 163.8 L 182.4 167.5 L 181.5 170.9 L 180.5 174.0 L 179.2 176.7 L 177.8 178.9 Z M 108.5 164.5 L 108.6 162.1 L 108.6 157.2 L 108.4 154.8 L 108.1 152.3 L 107.6 149.7 L 107.2 147.1 L 106.2 144.6 L 107.7 143.7 L 109.3 145.9 L 111.2 148.1 L 112.9 150.3 L 114.4 152.8 L 115.7 155.3 L 116.9 157.9 L 117.9 160.6 L 118.7 163.4 L 119.4 166.2 L 119.9 169.2 L 118.1 173.4 L 113.9 175.2 L 109.7 173.4 L 107.9 169.2 L 108.2 166.8 Z M 129.2 159.5 L 128.8 157.2 L 128.3 154.9 L 127.7 152.7 L 127.0 150.4 L 126.1 148.2 L 125.2 145.8 L 123.8 143.9 L 125.1 142.6 L 127.1 144.3 L 129.2 145.8 L 131.3 147.6 L 133.1 149.5 L 134.9 151.6 L 136.5 153.9 L 138.0 156.3 L 139.3 158.9 L 140.5 161.6 L 141.5 164.4 L 140.5 168.9 L 136.8 171.4 L 132.3 170.4 L 129.7 166.6 L 129.5 161.8 Z M 112.2 50.6 L 111.7 48.6 L 111.0 46.5 L 110.1 44.4 L 109.1 42.3 L 107.9 40.1 L 106.5 37.8 L 105.0 35.5 L 103.73684206008912 34.3 L 102.5384614944458 34.3 L 101.2 37.2 L 98.6 42.3 L 95.7 47.1 L 92.6 51.8 L 89.1 56.2 L 85.3 60.3 L 81.1 64.1 L 80.2 63.39285717010498 L 80.2 155.0 L 68.2 161.0 L 68.2 149.0 L 30.0 149.0 L 30.0 161.0 L 18.0 167.0 L 18.0 50.0 L 30.0 52.0 L 33.0 54.0 L 30.0 55.8 L 30.0 145.0 L 42.2 145.0 L 42.2 20.0 L 54.2 22.0 L 57.2 24.0 L 54.2 25.8 L 54.2 145.0 L 68.2 145.0 L 68.2 50.0 L 80.2 52.0 L 83.2 54.0 L 80.2 55.8 L 80.2 62.019999980926514 L 82.2 58.1 L 84.6 53.2 L 86.9 48.4 L 89.0 43.6 L 90.9 38.7 L 92.6 33.8 L 94.1 28.7 L 95.4 23.5 L 96.4 18.3 L 97.2 12.9 L 97.27005939483642 12.913655662536621 L 97.6 11.0 L 109.0 15.2 L 111.6 17.7 L 107.99735450744629 19.0100528717041 L 107.5 20.9 L 105.7 26.5 L 104.24909086227417 30.3 L 120.51818180084229 30.3 L 128.7 21.3 L 138.7 30.3 L 138.7 34.3 L 107.7 34.3 L 109.1 35.0 L 111.6 36.5 L 113.9 38.1 L 116.0 39.9 L 118.0 41.9 L 119.8 44.0 L 121.5 46.2 L 123.0 48.6 L 124.3 51.1 L 123.8 55.6 L 120.3 58.6 L 115.8 58.1 L 112.8 54.6 L 112.6 52.6 Z M 150.7 157.8 L 150.3 156.0 L 149.8 154.2 L 149.1 152.3 L 148.3 150.4 L 147.3 148.5 L 146.2 146.6 L 145.0 144.6 L 143.3 143.1 L 144.3 141.6 L 146.4 142.9 L 148.7 143.9 L 150.9 145.0 L 152.9 146.4 L 154.9 147.9 L 156.7 149.6 L 158.4 151.4 L 159.9 153.4 L 161.4 155.6 L 162.7 157.8 L 162.3 162.4 L 158.8 165.4 L 154.3 165.0 L 151.3 161.5 L 151.1 159.7 Z M 106.2 113.4 L 106.2 130.2 L 129.0 130.2 L 129.0 113.4 Z M 106.2 92.7 L 106.2 109.4 L 129.0 109.4 L 129.0 92.7 Z M 106.2 71.9 L 106.2 88.7 L 129.0 88.7 L 129.0 71.9 Z " />
</g>
</svg>
