<svg xmlns="http://www.w3.org/2000/svg" xmlns:xlink="http://www.w3.org/1999/xlink" version="1.1" baseProfile="full" viewBox="0 0 200 200" width="200" height="200">
<g fill="black">
<path d="M 91.3 25.0 L 115.4 25.0 L 120.9 20.0 L 131.4 29.0 L 126.4 32.5 L 126.4 80.0 L 115.4 85.5 L 115.4 78.0 L 91.3 78.0 L 91.3 183.2 L 80.3 188.7 L 80.3 19.5 Z M 148.5 78.0 L 148.5 81.0 L 137.5 86.5 L 137.5 19.5 L 148.5 25.0 L 172.1 25.0 L 178.1 20.0 L 189.1 29.0 L 184.1 33.0 L 184.1 172.0 L 184.0 174.5 L 183.5 177.0 L 182.7 179.4 L 181.5 181.7 L 179.8 183.7 L 177.8 185.3 L 175.6 186.6 L 173.2 187.4 L 170.7 187.8 L 168.1 188.0 L 168.1 182.0 L 151.0702127456665 179.1617021560669 L 149.9 179.8 L 147.5 180.6 L 145.0 181.0 L 142.4 181.2 L 142.4 175.2 L 128.4 172.2 L 128.4 169.2 L 142.4 169.2 L 143.7 169.1 L 144.6 168.9 L 145.2 168.8 L 145.5 168.6 L 145.7 168.4 L 145.8 168.2 L 146.0 167.9 L 146.2 167.3 L 146.4 166.4 L 146.4 143.7 L 119.40588235855103 143.7 L 119.2 145.8 L 118.4 150.7 L 117.2 155.4 L 115.8 159.8 L 114.1 163.9 L 112.0 167.7 L 109.7 171.2 L 107.0 174.3 L 103.9 177.0 L 100.8 179.4 L 99.5 178.1 L 101.5 175.0 L 103.1 171.6 L 104.4 168.2 L 105.6 164.8 L 106.5 161.2 L 107.2 157.5 L 107.6 153.6 L 107.9 149.5 L 107.9 145.2 L 107.7 140.7 L 107.7 88.9 L 119.7 94.9 L 146.4 94.9 L 152.4 89.9 L 163.4 98.9 L 158.4 102.9 L 158.4 165.2 L 158.3 167.7 L 157.8 170.2 L 157.0 172.6 L 155.8 174.9 L 154.91999998092652 176.0 L 168.1 176.0 L 169.3 175.9 L 170.2 175.7 L 170.8 175.5 L 171.2 175.4 L 171.4 175.2 L 171.5 175.0 L 171.7 174.7 L 171.9 174.1 L 172.0 173.2 L 172.1 172.0 L 172.1 78.0 Z M 24.8 161.0 L 13.8 166.5 L 13.8 50.0 L 24.8 52.0 L 27.6 54.0 L 24.8 55.75 L 24.8 145.0 L 36.5 145.0 L 36.5 20.0 L 46.5 22.0 L 49.0 24.0 L 46.5 25.66666669845581 L 46.5 145.0 L 60.2 145.0 L 60.2 50.0 L 70.2 52.0 L 72.7 54.0 L 70.2 55.66666669845581 L 70.2 155.0 L 60.2 160.0 L 60.2 149.0 L 24.8 149.0 Z M 119.7 121.5 L 119.7 139.7 L 146.4 139.7 L 146.4 121.5 Z M 119.7 98.9 L 119.7 117.5 L 146.4 117.5 L 146.4 98.9 Z M 148.5 53.0 L 148.5 74.0 L 172.1 74.0 L 172.1 53.0 Z M 91.3 53.0 L 91.3 74.0 L 115.4 74.0 L 115.4 53.0 Z M 148.5 29.0 L 148.5 49.0 L 172.1 49.0 L 172.1 29.0 Z M 91.3 29.0 L 91.3 49.0 L 115.4 49.0 L 115.4 29.0 Z " />
</g>
</svg>
