<svg xmlns="http://www.w3.org/2000/svg" xmlns:xlink="http://www.w3.org/1999/xlink" version="1.1" baseProfile="full" viewBox="0 0 200 200" width="200" height="200">
<g fill="black">
<path d="M 137.0 164.5 L 151.0 164.5 L 152.2 164.4 L 153.1 164.2 L 154.0 163.9 L 154.4 163.5 L 154.7 162.6 L 154.9 161.7 L 155.0 160.5 L 155.0 122.0 L 105.0 122.0 L 105.0 184.0 L 93.0 190.0 L 93.0 122.0 L 43.0 122.0 L 43.0 169.5 L 31.0 175.5 L 31.0 112.0 L 43.0 118.0 L 93.0 118.0 L 93.0 102.5 L 105.0 104.5 L 108.0 106.5 L 105.0 108.3 L 105.0 118.0 L 155.0 118.0 L 161.0 113.0 L 172.0 122.0 L 167.0 126.0 L 167.0 160.5 L 166.8 163.0 L 166.4 165.5 L 165.6 167.9 L 164.3 170.2 L 162.7 172.2 L 160.7 173.8 L 158.4 175.1 L 156.0 175.9 L 153.5 176.3 L 151.0 176.5 L 151.0 170.5 L 137.0 167.5 Z M 88.27877321243287 11.881144618988037 L 98.0 20.1 L 98.3 23.2 L 94.07906322479248 21.2704288482666 L 91.3 22.1 L 85.7 23.3 L 80.0 24.5 L 74.2 25.6 L 68.2 26.5 L 62.1 27.3 L 55.9 28.1 L 49.5 28.6 L 43.0 29.0 L 36.4 29.2 L 35.5 29.18676471710205 L 35.5 52.4 L 69.6 52.4 L 79.6 42.4 L 91.6 52.4 L 91.6 56.4 L 35.5 56.4 L 35.5 83.2 L 70.5 83.2 L 80.5 73.2 L 92.5 83.2 L 92.5 87.2 L 35.5 87.2 L 35.5 99.2 L 23.5 105.2 L 23.5 19.2 L 35.5 25.2 L 35.5 25.516923046112062 L 35.9 25.4 L 42.2 23.7 L 48.4 22.2 L 54.5 20.6 L 60.5 19.0 L 71.9 15.8 L 77.4 14.1 L 82.7 12.4 L 87.03750371932983 10.898556423187255 L 87.0 10.8 L 87.09360332489014 10.879137325286866 L 87.9 10.6 Z M 147.2 81.2 L 162.4 81.2 L 163.3 81.0 L 164.2 80.7 L 164.6 80.3 L 164.9 79.4 L 165.1 78.5 L 165.2 77.2 L 165.2 26.1 L 116.5 26.1 L 116.5 97.9 L 104.5 103.9 L 104.5 16.1 L 116.5 22.1 L 165.2 22.1 L 171.2 17.1 L 182.2 26.1 L 177.2 30.1 L 177.2 77.2 L 177.0 79.8 L 176.6 82.3 L 175.8 84.7 L 174.6 87.0 L 172.9 89.0 L 170.9 90.6 L 168.6 91.9 L 166.2 92.7 L 163.7 93.1 L 161.2 93.2 L 161.2 87.2 L 147.2 84.2 Z " />
</g>
</svg>
