<svg xmlns="http://www.w3.org/2000/svg" xmlns:xlink="http://www.w3.org/1999/xlink" version="1.1" baseProfile="full" viewBox="0 0 200 200" width="200" height="200">
<g fill="black">
<path d="M 132.8 165.0 L 144.8 165.0 L 146.1 164.9 L 147.0 164.8 L 147.6 164.6 L 147.9 164.4 L 148.1 164.3 L 148.4 163.7 L 148.6 163.2 L 148.8 162.2 L 148.8 126.6 L 106.0 126.6 L 106.0 182.4 L 94.0 188.4 L 94.0 126.6 L 51.1 126.6 L 51.1 173.5 L 39.1 179.5 L 39.1 116.6 L 51.1 122.6 L 94.0 122.6 L 94.0 103.7 L 106.0 105.7 L 109.0 107.7 L 106.0 109.5 L 106.0 122.6 L 148.8 122.6 L 154.8 117.6 L 165.8 126.6 L 160.8 130.6 L 160.8 161.0 L 160.7 163.6 L 160.2 166.1 L 159.4 168.5 L 158.2 170.7 L 156.6 172.8 L 154.5 174.4 L 152.3 175.6 L 149.9 176.4 L 147.4 176.9 L 144.8 177.0 L 144.8 171.0 L 132.8 168.0 Z M 142.0 106.2 L 127.0 102.7 L 113.3 98.5 L 100.7 93.7 L 99.97693357467651 93.35115213394165 L 93.5 96.3 L 80.1 101.1 L 65.4 105.2 L 49.5 108.4 L 32.4 110.8 L 14.1 112.2 L 13.8 110.5 L 31.8 107.0 L 48.4 103.2 L 63.7 98.8 L 77.6 93.9 L 90.00599336624146 88.54061088562011 L 89.3 88.2 L 79.1 82.1 L 70.3 75.3 L 62.8 67.9 L 56.9 59.7 L 58.3 58.6 L 65.7 64.9 L 73.8 70.6 L 82.9 75.9 L 92.9 80.7 L 99.72481698989868 83.34384803771972 L 101.3 82.5 L 111.0 76.0 L 119.5 69.0 L 126.6 61.5 L 132.4 53.4 L 132.44405288696288 53.42951545715332 L 132.9 52.7 L 142.4 60.1 L 143.8 63.4 L 139.85767822265626 63.19954299926758 L 135.1 69.0 L 126.6 77.0 L 116.8 84.3 L 111.64449844360351 87.29956455230713 L 116.3 88.7 L 129.6 91.9 L 144.1 94.6 L 159.8 96.7 L 176.6 98.3 L 187.2 99.2 L 175.3 111.4 L 158.1 109.1 Z M 143.8 50.4 L 135.4 46.4 L 125.8 42.4 L 118.4851746559143 39.665485858917236 L 117.7 40.1 L 106.4 45.0 L 94.2 49.3 L 80.9 52.9 L 66.7 55.8 L 51.5 58.1 L 35.2 59.5 L 18.0 60.1 L 17.9 58.3 L 34.8 55.7 L 50.6 52.8 L 65.3 49.4 L 78.9 45.6 L 91.4 41.3 L 102.7 36.5 L 105.26901397705078 35.17808017730713 L 103.2 34.5 L 90.3 30.6 L 76.2 26.7 L 61.0 22.8 L 44.8 18.7 L 45.1 16.9 L 61.8 19.1 L 77.3 21.5 L 91.8 24.2 L 105.2 27.2 L 115.31021671295166 29.72755422592163 L 122.1 25.4 L 130.1 19.2 L 137.0 12.5 L 137.3 12.2 L 145.5 20.9 L 146.3 24.4 L 142.467299079895 23.525875186920167 L 137.3 28.0 L 129.07684211730958 33.65894737243652 L 139.1 37.0 L 148.3 40.7 L 156.6 44.4 L 163.8 48.5 L 166.3 52.3 L 165.4 56.8 L 161.6 59.3 L 157.1 58.4 L 151.1 54.4 Z " />
</g>
</svg>
