<svg xmlns="http://www.w3.org/2000/svg" xmlns:xlink="http://www.w3.org/1999/xlink" version="1.1" baseProfile="full" viewBox="0 0 200 200" width="200" height="200">
<g fill="black">
<path d="M 179.6 143.6 L 178.2 145.8 L 176.6 147.7 L 174.7 149.3 L 172.6 150.7 L 170.4 151.7 L 168.0 152.4 L 165.5 152.8 L 163.0 153.0 L 163.0 147.0 L 149.56349210739137 144.98452377319336 L 150.5 146.6 L 155.0 152.7 L 159.8 158.0 L 165.0 162.5 L 170.7 166.3 L 176.7 169.4 L 183.2 171.7 L 190.4 174.3 L 178.9 184.2 L 171.2 180.6 L 164.2 176.2 L 157.8 170.9 L 152.2 164.9 L 147.4 158.2 L 143.2 150.7 L 139.8 142.6 L 137.2 133.8 L 135.3 124.3 L 134.9944133758545 120.83668527603149 L 131.6 133.0 L 126.7 144.7 L 120.5 155.3 L 112.9 164.5 L 104.1 172.4 L 94.1 179.0 L 82.9 184.1 L 70.6 187.8 L 70.1 186.1 L 81.4 180.7 L 91.3 174.4 L 99.9 167.4 L 107.2 159.5 L 113.4 150.6 L 118.3 140.8 L 122.1 130.0 L 124.7 118.1 L 124.94230766296387 116.0 L 98.55652170181274 116.0 L 97.2 123.8 L 84.4 127.7 L 92.8 79.0 L 102.25 86.0 L 126.5 86.0 L 126.5 63.0 L 85.7 63.0 L 85.7 59.0 L 126.5 59.0 L 126.5 41.0 L 80.3 41.0 L 80.3 37.0 L 126.5 37.0 L 126.5 13.0 L 138.5 15.0 L 141.5 17.0 L 138.5 18.8 L 138.5 37.0 L 166.3 37.0 L 176.3 27.0 L 188.3 37.0 L 188.3 41.0 L 138.5 41.0 L 138.5 59.0 L 162.5 59.0 L 168.5 54.0 L 179.5 63.0 L 174.5 67.0 L 174.5 94.0 L 162.5 100.0 L 162.5 90.0 L 138.5 90.0 L 138.5 91.0 L 137.5 106.1 L 136.5307143211365 112.0 L 172.4 112.0 L 178.4 107.0 L 189.4 116.0 L 184.4 119.0 L 184.00213899612427 119.16577539443969 L 183.9 120.8 L 183.7 123.7 L 183.5 126.4 L 183.2 129.0 L 182.9 131.3 L 182.6 133.5 L 182.2 135.5 L 181.9 137.3 L 181.4 138.9 L 180.6 141.4 Z M 52.3 140.0 L 60.3 140.0 L 61.5 139.9 L 62.4 139.7 L 63.3 139.4 L 63.7 139.0 L 64.0 138.1 L 64.2 137.2 L 64.3 136.0 L 64.3 54.0 L 51.5 54.0 L 51.5 183.0 L 39.5 189.0 L 39.5 54.0 L 26.8 54.0 L 26.8 147.0 L 14.8 153.0 L 14.8 44.0 L 26.8 50.0 L 39.5 50.0 L 39.5 13.0 L 51.5 15.0 L 54.5 17.0 L 51.5 18.8 L 51.5 50.0 L 64.3 50.0 L 70.3 45.0 L 81.3 54.0 L 76.3 58.0 L 76.3 136.0 L 76.1 138.5 L 75.7 141.0 L 74.9 143.4 L 73.6 145.7 L 72.0 147.7 L 70.0 149.3 L 67.7 150.6 L 65.3 151.4 L 62.8 151.8 L 60.3 152.0 L 60.3 146.0 L 52.3 143.0 Z M 138.5 63.0 L 138.5 86.0 L 162.5 86.0 L 162.5 63.0 Z M 170.4 133.2 L 170.7 131.6 L 171.0 129.7 L 171.3 127.6 L 171.5 125.3 L 171.8 122.7 L 172.0 119.9 L 172.2 116.9 L 172.2545454978943 116.0 L 136.94105262756347 116.0 L 139.4 123.3 L 142.8 131.9 L 146.5 139.7 L 147.25362319946288 141.0 L 163.0 141.0 L 164.3 140.9 L 165.3 140.7 L 166.2 140.5 L 166.9 140.1 L 167.5 139.8 L 168.0 139.3 L 168.5 138.7 L 169.0 137.9 L 169.5 136.9 L 169.9 135.7 L 170.2 134.6 Z M 103.07826089859009 90.0 L 99.25217390060425 112.0 L 125.40384616851807 112.0 L 126.2 105.1 L 126.5 91.0 L 126.5 90.0 Z " />
</g>
</svg>
