<svg xmlns="http://www.w3.org/2000/svg" xmlns:xlink="http://www.w3.org/1999/xlink" version="1.1" baseProfile="full" viewBox="0 0 200 200" width="200" height="200">
<g fill="black">
<path d="M 138.0 167.4 L 150.0 167.4 L 151.2 167.3 L 152.1 167.1 L 153.0 166.8 L 153.4 166.4 L 153.7 165.5 L 153.9 164.6 L 154.0 163.4 L 154.0 135.5 L 107.0 135.5 L 107.0 182.7 L 95.0 188.7 L 95.0 135.5 L 48.0 135.5 L 48.0 175.1 L 36.0 181.1 L 36.0 125.5 L 48.0 131.5 L 95.0 131.5 L 95.0 115.4 L 107.0 117.4 L 110.0 119.4 L 107.0 121.2 L 107.0 131.5 L 154.0 131.5 L 160.0 126.5 L 171.0 135.5 L 166.0 139.5 L 166.0 163.4 L 165.8 165.9 L 165.4 168.4 L 164.6 170.8 L 163.3 173.1 L 161.7 175.1 L 159.7 176.7 L 157.4 178.0 L 155.0 178.8 L 152.5 179.2 L 150.0 179.4 L 150.0 173.4 L 138.0 170.4 Z M 64.0 67.8 L 67.0 69.8 L 64.0 71.6 L 64.0 80.6 L 63.1 86.8 L 61.2 92.7 L 58.3 98.0 L 54.4 102.7 L 49.7 106.8 L 44.1 110.2 L 37.8 113.0 L 30.7 115.3 L 22.8 117.0 L 14.1 118.0 L 13.8 116.3 L 21.8 113.3 L 28.9 110.3 L 35.0 107.1 L 40.1 103.8 L 44.2 100.2 L 47.4 96.6 L 49.7 92.9 L 51.2 89.0 L 51.9 84.9 L 52.0 80.6 L 52.0 65.8 Z M 181.0 88.6 L 183.0 88.6 L 181.0 105.6 L 184.0 107.6 L 186.0 110.6 L 184.0 113.6 L 181.0 115.6 L 148.0 115.6 L 145.5 115.5 L 143.1 115.2 L 140.8 114.5 L 138.6 113.4 L 136.6 111.9 L 134.9 110.1 L 133.6 107.9 L 132.7 105.6 L 132.2 103.1 L 132.0 100.6 L 132.0 64.6 L 144.0 66.6 L 147.0 68.6 L 144.0 70.4 L 144.0 100.6 L 143.9 101.8 L 144.0 102.7 L 144.1 103.4 L 144.3 104.2 L 144.5 104.5 L 144.9 104.8 L 145.6 105.1 L 146.6 105.4 L 148.0 105.6 L 176.0 105.6 Z M 104.0 68.4 L 107.0 70.4 L 104.0 72.2 L 104.0 106.4 L 92.0 112.4 L 92.0 66.4 Z M 157.3 61.2 L 154.0 58.4 L 150.4 55.6 L 149.34479370117188 54.879371356964114 L 140.8 56.0 L 128.6 57.4 L 116.4 58.5 L 104.1 59.5 L 67.2 61.9 L 54.8 62.6 L 42.5 63.2 L 34.121712589263915 63.53783416748047 L 32.1 66.7 L 30.1 63.7 L 27.8 51.8 L 29.8 51.7 L 42.2 51.8 L 64.95 51.8 L 67.4 49.0 L 70.1 46.0 L 72.7 43.2 L 75.1 40.4 L 77.3 37.8 L 79.4 35.2 L 80.26400003433227 34.0 L 18.0 34.0 L 18.0 30.0 L 94.0 30.0 L 94.0 12.4 L 106.0 14.4 L 109.0 16.4 L 106.0 18.2 L 106.0 30.0 L 160.0 30.0 L 170.0 20.0 L 182.0 30.0 L 182.0 34.0 L 95.63684206008911 34.0 L 93.6 35.8 L 88.8 40.0 L 86.1 42.1 L 83.3 44.2 L 80.3 46.3 L 77.1 48.4 L 73.8 50.5 L 71.46000003814697 51.8 L 79.2 51.8 L 91.6 51.9 L 116.1 51.9 L 128.4 52.0 L 140.7 52.2 L 145.7006028175354 52.40494270324707 L 141.9 49.9 L 137.1 46.9 L 131.9 43.9 L 126.4 40.7 L 120.6 37.3 L 121.2 35.7 L 127.8 37.2 L 134.1 39.0 L 139.9 41.0 L 145.4 43.1 L 150.5 45.4 L 155.2 47.7 L 159.7 50.1 L 163.8 52.6 L 167.5 55.2 L 171.0 58.0 L 172.7 62.2 L 171.1 66.4 L 166.9 68.2 L 162.6 66.6 L 160.2 63.9 Z " />
</g>
</svg>
