<svg xmlns="http://www.w3.org/2000/svg" xmlns:xlink="http://www.w3.org/1999/xlink" version="1.1" baseProfile="full" viewBox="0 0 200 200" width="200" height="200">
<g fill="black">
<path d="M 40.0 35.0 L 98.0 35.0 L 98.0 12.0 L 110.0 14.0 L 113.0 16.0 L 110.0 17.8 L 110.0 35.0 L 164.0 35.0 L 174.0 25.0 L 186.0 35.0 L 186.0 39.0 L 40.0 39.0 L 40.0 102.0 L 39.4 113.7 L 38.3 124.8 L 36.7 135.3 L 34.5 145.2 L 31.8 154.4 L 28.5 162.9 L 24.7 170.8 L 20.3 177.9 L 15.2 184.2 L 9.6 189.5 L 8.3 188.4 L 12.2 181.9 L 15.6 175.2 L 18.7 168.0 L 21.4 160.3 L 23.6 152.0 L 25.4 143.2 L 26.7 133.8 L 27.6 123.8 L 28.0 113.2 L 28.0 29.0 Z M 85.0 176.2 L 105.0 176.2 L 106.2 176.1 L 107.1 176.0 L 107.7 175.8 L 108.0 175.6 L 108.2 175.5 L 108.4 175.3 L 108.5 174.9 L 108.7 174.4 L 108.9 173.4 L 109.0 172.2 L 109.0 142.8 L 45.2 142.8 L 45.2 138.8 L 162.7 138.8 L 172.7 128.8 L 184.7 138.8 L 184.7 142.8 L 121.0 142.8 L 121.0 172.2 L 120.8 174.8 L 120.4 177.3 L 119.6 179.7 L 118.3 181.9 L 116.7 184.0 L 114.7 185.6 L 112.4 186.8 L 110.0 187.6 L 107.5 188.1 L 105.0 188.2 L 105.0 182.2 L 85.0 179.2 Z M 88.9 156.5 L 90.1 160.0 L 86.1514123916626 159.52344636917115 L 85.9 159.8 L 82.6 162.9 L 79.0 166.0 L 75.1 168.9 L 71.0 171.7 L 66.5 174.4 L 61.8 177.0 L 56.8 179.5 L 51.4 181.7 L 45.6 183.7 L 44.8 182.1 L 49.5 178.4 L 54.0 174.9 L 58.2 171.6 L 62.2 168.3 L 65.8 165.0 L 69.1 161.8 L 72.2 158.6 L 74.9 155.5 L 77.2 152.4 L 78.74074563980102 150.12556591033936 L 78.7 150.1 L 79.12127656936646 149.5638298034668 L 79.3 149.3 L 79.3179775238037 149.3134831428528 L 79.8 148.7 Z M 164.1 174.4 L 161.7 171.7 L 159.0 168.9 L 155.9 166.2 L 152.5 163.5 L 148.8 160.8 L 144.8 158.2 L 140.4 155.4 L 135.7 152.7 L 136.4 151.0 L 141.7 152.2 L 146.9 153.6 L 151.7 155.3 L 156.2 157.3 L 160.5 159.4 L 164.5 161.7 L 168.2 164.2 L 171.6 166.9 L 174.8 169.8 L 177.7 172.9 L 178.7 177.4 L 176.4 181.3 L 171.9 182.3 L 168.0 180.0 L 166.2 177.2 Z M 165.4 120.1 L 165.4 124.1 L 64.6 124.1 L 64.6 120.1 L 147.21818180084227 120.1 L 155.4 111.1 Z M 58.6 111.7 L 58.6 68.8 L 70.6 74.8 L 92.2 74.8 L 92.2 59.1 L 45.2 59.1 L 45.2 55.1 L 166.51818180084229 55.1 L 174.7 46.1 L 184.7 55.1 L 184.7 59.1 L 137.8 59.1 L 137.8 74.8 L 159.4 74.8 L 165.4 69.8 L 176.4 78.8 L 171.4 82.8 L 171.4 105.7 L 159.4 111.7 L 159.4 105.7 L 70.6 105.7 Z M 70.6 78.8 L 70.6 101.7 L 92.2 101.7 L 92.2 78.8 Z M 104.2 78.8 L 104.2 101.7 L 125.8 101.7 L 125.8 78.8 Z M 137.8 78.8 L 137.8 101.7 L 159.4 101.7 L 159.4 78.8 Z M 104.2 59.1 L 104.2 74.8 L 125.8 74.8 L 125.8 59.1 Z " />
</g>
</svg>
