<svg xmlns="http://www.w3.org/2000/svg" xmlns:xlink="http://www.w3.org/1999/xlink" version="1.1" baseProfile="full" viewBox="0 0 200 200" width="200" height="200">
<g fill="black">
<path d="M 120.3 51.7 L 121.7 55.0 L 117.6640552520752 54.791244220733645 L 116.0 56.6 L 113.6 59.3 L 111.1 62.1 L 108.3 65.0 L 105.3 68.0 L 102.2 71.2 L 98.8 74.4 L 95.1 77.7 L 94.14857139587403 78.6 L 164.2 78.6 L 170.2 73.6 L 181.2 82.6 L 176.2 86.6 L 176.2 180.8 L 164.2 186.8 L 164.2 176.8 L 63.2 176.8 L 63.2 183.8 L 52.2 189.3 L 52.2 73.1 L 63.2 78.6 L 90.92045450210571 78.6 L 92.7 75.7 L 95.1 71.4 L 97.5 67.4 L 99.8 63.7 L 101.9 60.1 L 103.9 56.7 L 105.8 53.5 L 107.5 50.5 L 109.0 47.7 L 109.94340343475342 45.88057909011841 L 109.8 45.8 L 110.9 44.3 Z M 42.1 34.4 L 99.9 34.4 L 99.9 11.8 L 111.9 13.8 L 114.9 15.8 L 111.9 17.6 L 111.9 34.4 L 165.1 34.4 L 175.1 24.4 L 187.1 34.4 L 187.1 38.4 L 42.1 38.4 L 42.1 100.4 L 41.6 112.0 L 40.5 122.9 L 38.9 133.2 L 36.8 142.9 L 34.2 152.0 L 31.0 160.4 L 27.2 168.1 L 22.9 175.1 L 18.0 181.3 L 12.5 186.7 L 11.2 185.6 L 15.2 179.3 L 18.6 172.6 L 21.8 165.5 L 24.4 157.9 L 26.7 149.8 L 28.5 141.1 L 29.8 131.9 L 30.7 122.0 L 31.2 111.5 L 31.1 100.4 L 31.1 28.9 Z M 63.2 82.6 L 63.2 172.8 L 164.2 172.8 L 164.2 82.6 Z M 129.0 150.5 L 125.3985689163208 146.2035559654236 L 122.2 148.7 L 113.3 154.3 L 103.8 159.1 L 93.5 163.0 L 82.6 166.1 L 71.1 168.1 L 70.6 166.4 L 81.5 162.4 L 91.5 158.1 L 100.8 153.2 L 109.3 147.9 L 117.0 142.0 L 119.54996995925903 139.63217077255248 L 117.4 137.3 L 111.3 131.2 L 104.9 125.6 L 102.51643838882447 123.69315071105957 L 99.4 127.7 L 94.3 133.6 L 88.9 139.0 L 83.3 144.0 L 77.5 148.3 L 71.4 152.0 L 70.3 150.6 L 75.0 145.4 L 79.6 140.1 L 84.1 134.6 L 88.4 128.8 L 92.6 122.7 L 95.36238241195679 118.21112852096557 L 91.6 115.5 L 84.5 110.9 L 77.3 106.5 L 78.0 104.8 L 86.2 107.5 L 94.2 110.9 L 98.38790397644043 113.04764308929444 L 100.4 109.5 L 104.1 102.3 L 107.7 94.8 L 110.62097616195679 87.8073600769043 L 110.6 87.8 L 110.79587631225586 87.38865976333618 L 111.0 86.9 L 111.02357139587403 86.91049995422364 L 111.6 85.7 L 122.0 91.8 L 123.9 94.9 L 120.2051462173462 95.34593067169189 L 117.9 99.9 L 115.46710529327393 104.2 L 144.2 104.2 L 150.2 99.2 L 161.2 108.2 L 156.2 111.2 L 153.7354260444641 112.2269058227539 L 150.5 118.2 L 144.5 127.0 L 137.8 135.0 L 133.22927923202514 139.50895433425904 L 137.2 143.6 L 143.5 150.9 L 149.5 158.7 L 150.4 163.2 L 148.0 167.1 L 143.5 168.0 L 139.7 165.5 L 134.4 157.8 Z M 113.14647884368897 108.2 L 109.0 114.6 L 106.73970451354981 117.87021484375 L 109.5 119.6 L 116.8 124.8 L 123.8 130.5 L 126.34234943389893 132.85541191101075 L 130.2 128.5 L 135.8 120.8 L 140.6 112.6 L 142.67640447616577 108.2 Z " />
</g>
</svg>
