<svg xmlns="http://www.w3.org/2000/svg" xmlns:xlink="http://www.w3.org/1999/xlink" version="1.1" baseProfile="full" viewBox="0 0 200 200" width="200" height="200">
<g fill="black">
<path d="M 79.0 136.8 L 155.9 136.8 L 161.9 131.8 L 172.9 140.8 L 167.9 144.8 L 167.9 179.6 L 155.9 185.6 L 155.9 175.6 L 79.0 175.6 L 79.0 182.6 L 67.0 188.6 L 67.0 130.8 Z M 42.6 34.4 L 99.9 34.4 L 99.9 11.8 L 111.9 13.8 L 114.9 15.8 L 111.9 17.6 L 111.9 34.4 L 165.1 34.4 L 175.1 24.4 L 187.1 34.4 L 187.1 38.4 L 42.6 38.4 L 42.6 100.4 L 42.0 112.0 L 41.0 123.0 L 39.3 133.3 L 37.2 143.0 L 34.5 152.1 L 31.3 160.5 L 27.5 168.2 L 23.1 175.2 L 18.1 181.4 L 12.5 186.7 L 11.2 185.5 L 15.0 179.2 L 18.5 172.5 L 21.5 165.4 L 24.1 157.8 L 26.3 149.7 L 28.1 141.0 L 29.4 131.8 L 30.3 121.9 L 30.7 111.5 L 30.6 100.4 L 30.6 28.4 Z M 79.0 157.7 L 79.0 171.6 L 155.9 171.6 L 155.9 157.7 Z M 79.0 140.8 L 79.0 153.7 L 155.9 153.7 L 155.9 140.8 Z M 50.9 130.3 L 51.5 125.8 L 55.0 122.9 L 57.2 122.7 L 59.2 122.3 L 61.0 121.8 L 62.7 121.2 L 64.2 120.5 L 65.6 119.5 L 67.0 118.3 L 68.3 116.9 L 69.5 115.1 L 69.9 112.9 L 71.7 113.1 L 71.7 115.5 L 71.8 118.0 L 71.5 120.5 L 70.7 122.9 L 69.6 125.3 L 68.0 127.5 L 66.1 129.6 L 63.8 131.4 L 61.2 133.1 L 58.3 134.5 L 53.7 133.9 Z M 173.2 127.8 L 172.4 126.4 L 171.2 124.9 L 169.6 123.2 L 167.7 121.4 L 165.4 119.6 L 162.8 117.6 L 159.9 115.4 L 156.4 113.6 L 157.1 112.0 L 160.8 113.2 L 164.5 114.0 L 167.8 114.9 L 170.8 115.9 L 173.6 116.9 L 176.2 118.1 L 178.5 119.3 L 180.6 120.6 L 182.5 122.2 L 184.2 124.0 L 184.6 128.6 L 181.8 132.2 L 177.2 132.6 L 173.6 129.7 L 173.6 128.9 Z M 134.5 126.1 L 134.4 125.1 L 133.9 123.9 L 133.1 122.5 L 131.9 121.0 L 130.3 119.3 L 128.5 117.5 L 126.4 115.6 L 123.7 114.1 L 124.5 112.4 L 127.3 113.6 L 130.3 114.3 L 132.9 115.1 L 135.3 115.9 L 137.5 116.9 L 139.6 118.0 L 141.4 119.2 L 143.1 120.6 L 144.5 122.4 L 145.7 124.6 L 144.7 129.1 L 140.9 131.6 L 136.4 130.6 L 133.9 126.8 L 134.3 126.7 Z M 101.4 131.6 L 97.6 129.1 L 96.6 124.6 L 97.1 124.6 L 97.5 124.4 L 97.9 123.9 L 98.0 123.0 L 97.9 121.9 L 97.4 120.5 L 96.7 119.0 L 95.7 117.3 L 94.4 115.5 L 92.5 114.1 L 93.5 112.6 L 95.6 113.8 L 97.8 114.6 L 99.9 115.5 L 101.7 116.5 L 103.4 117.6 L 105.0 118.9 L 106.3 120.5 L 107.4 122.3 L 108.1 124.5 L 108.4 126.8 L 105.8 130.6 Z M 68.1 112.5 L 68.1 72.35362319946289 L 61.9 74.6 L 54.5 76.9 L 46.6 79.0 L 46.0 77.4 L 53.1 73.4 L 59.7 69.7 L 65.9 66.2 L 71.6 62.8 L 76.8 59.5 L 81.4 56.2 L 85.6 53.1 L 89.1 50.1 L 92.2 47.1 L 93.95906639099121 45.047755813598634 L 93.9 45.0 L 94.9 44.0 L 103.3 52.6 L 103.98571424484253 55.6 L 137.72941179275512 55.6 L 139.0 54.4 L 140.7 52.7 L 141.02540197372437 53.16216506958008 L 144.1 50.6 L 155.1 59.6 L 150.1 62.6 L 138.1 67.6 L 138.1 66.78888893127441 L 137.4 67.1 L 134.5 68.2 L 131.5 69.3 L 128.3 70.4 L 125.91999998092652 71.1 L 154.8 71.1 L 160.8 66.1 L 171.8 75.1 L 166.8 79.1 L 166.8 106.5 L 154.8 112.5 L 154.8 106.5 L 80.1 106.5 Z M 80.1 90.5 L 80.1 102.5 L 111.5 102.5 L 111.5 90.5 Z M 123.5 90.5 L 123.5 102.5 L 154.8 102.5 L 154.8 90.5 Z M 80.1 75.1 L 80.1 86.5 L 111.5 86.5 L 111.5 75.1 Z M 123.5 75.1 L 123.5 86.5 L 154.8 86.5 L 154.8 75.1 Z M 94.03103446960449 59.6 L 91.3 61.4 L 86.3 64.1 L 81.0 66.9 L 76.05675678253174 69.07837839126587 L 80.1 71.1 L 118.57619047164917 71.1 L 120.2 70.0 L 123.0 67.7 L 125.7 65.6 L 128.3 63.5 L 130.7 61.6 L 133.0 59.7 L 133.11578950881957 59.6 Z M 99.7 55.6 L 101.90769233703614 55.6 L 100.17438020706177 55.204683208465575 Z " />
</g>
</svg>
