<svg xmlns="http://www.w3.org/2000/svg" xmlns:xlink="http://www.w3.org/1999/xlink" version="1.1" baseProfile="full" viewBox="0 0 200 200" width="200" height="200">
<g fill="black">
<path d="M 40.0 35.0 L 98.0 35.0 L 98.0 12.0 L 110.0 14.0 L 113.0 16.0 L 110.0 17.8 L 110.0 35.0 L 164.0 35.0 L 174.0 25.0 L 186.0 35.0 L 186.0 39.0 L 40.0 39.0 L 40.0 102.0 L 39.4 113.7 L 38.3 124.8 L 36.7 135.3 L 34.5 145.2 L 31.8 154.4 L 28.5 162.9 L 24.7 170.8 L 20.3 177.9 L 15.2 184.2 L 9.6 189.5 L 8.3 188.4 L 12.2 181.9 L 15.6 175.2 L 18.7 168.0 L 21.4 160.3 L 23.6 152.0 L 25.4 143.2 L 26.7 133.8 L 27.6 123.8 L 28.0 113.2 L 28.0 29.0 Z M 84.0 175.4 L 104.0 175.4 L 105.2 175.3 L 106.1 175.1 L 106.7 175.0 L 107.0 174.8 L 107.4 174.4 L 107.7 173.5 L 107.9 172.6 L 108.0 171.4 L 108.0 143.2 L 42.6 143.2 L 42.6 139.2 L 163.3 139.2 L 173.3 129.2 L 185.3 139.2 L 185.3 143.2 L 120.0 143.2 L 120.0 171.4 L 119.8 173.9 L 119.4 176.4 L 118.6 178.8 L 117.3 181.1 L 115.7 183.1 L 113.7 184.8 L 111.4 186.0 L 109.0 186.8 L 106.5 187.2 L 104.0 187.4 L 104.0 181.4 L 84.0 178.4 Z M 87.1 157.2 L 88.2 160.6 L 84.26618423461915 160.12522916793824 L 84.0 160.4 L 80.6 163.4 L 76.9 166.4 L 73.0 169.2 L 68.8 171.9 L 64.2 174.4 L 59.4 176.9 L 54.3 179.2 L 48.8 181.2 L 43.0 183.0 L 42.2 181.4 L 47.1 177.9 L 51.7 174.5 L 56.0 171.3 L 60.1 168.1 L 63.8 165.0 L 67.2 161.9 L 70.3 158.8 L 73.1 155.8 L 75.5 152.8 L 77.08992395401 150.55965251922606 L 77.0 150.5 L 78.1 149.2 Z M 164.5 174.2 L 162.0 171.6 L 159.2 168.9 L 156.0 166.3 L 152.5 163.7 L 148.7 161.1 L 144.5 158.5 L 140.1 155.7 L 135.2 153.0 L 135.8 151.3 L 141.3 152.5 L 146.6 153.9 L 151.5 155.5 L 156.1 157.3 L 160.4 159.3 L 164.5 161.5 L 168.2 163.9 L 171.7 166.4 L 174.9 169.1 L 177.9 172.0 L 179.1 176.4 L 176.9 180.4 L 172.5 181.6 L 168.4 179.4 L 166.6 176.8 Z M 165.6 121.2 L 165.6 125.2 L 62.4 125.2 L 62.4 121.2 L 147.4181818008423 121.2 L 155.6 112.2 Z M 70.1 53.9 L 157.8 53.9 L 163.8 48.9 L 174.8 57.9 L 169.8 61.9 L 169.8 107.1 L 157.8 113.1 L 157.8 107.1 L 70.1 107.1 L 58.1 113.1 L 58.1 47.9 Z M 70.1 57.9 L 70.1 103.1 L 157.8 103.1 L 157.8 57.9 Z M 99.3 68.7 L 128.6 68.7 L 134.6 63.7 L 145.6 72.7 L 140.6 76.7 L 140.6 89.9 L 128.6 95.9 L 128.6 89.9 L 99.3 89.9 L 87.3 95.9 L 87.3 62.7 Z M 99.3 72.7 L 99.3 85.9 L 128.6 85.9 L 128.6 72.7 Z " />
</g>
</svg>
