<svg xmlns="http://www.w3.org/2000/svg" xmlns:xlink="http://www.w3.org/1999/xlink" version="1.1" baseProfile="full" viewBox="0 0 200 200" width="200" height="200">
<g fill="black">
<path d="M 40.0 35.0 L 98.0 35.0 L 98.0 12.0 L 110.0 14.0 L 113.0 16.0 L 110.0 17.8 L 110.0 35.0 L 164.0 35.0 L 174.0 25.0 L 186.0 35.0 L 186.0 39.0 L 40.0 39.0 L 40.0 102.0 L 39.4 113.7 L 38.3 124.8 L 36.7 135.3 L 34.5 145.2 L 31.8 154.4 L 28.5 162.9 L 24.7 170.8 L 20.3 177.9 L 15.2 184.2 L 9.6 189.5 L 8.3 188.4 L 12.2 181.9 L 15.6 175.2 L 18.7 168.0 L 21.4 160.3 L 23.6 152.0 L 25.4 143.2 L 26.7 133.8 L 27.6 123.8 L 28.0 113.2 L 28.0 29.0 Z M 138.9 185.6 L 123.9 184.6 L 111.6 183.0 L 101.6 180.7 L 93.5 177.8 L 87.1 174.1 L 82.2 169.8 L 78.5 165.0 L 76.8267557144165 161.83278760910034 L 75.1 163.5 L 72.4 166.4 L 69.6 169.1 L 66.7 171.6 L 63.9 174.1 L 61.0 176.5 L 58.2 178.8 L 53.33775930404663 182.62033195495604 L 53.1 186.9 L 49.8 185.3 L 42.0 176.0 L 43.7 174.9 L 46.8 173.6 L 49.9 172.1 L 56.3 169.1 L 62.9 165.9 L 66.3 164.3 L 67.5 163.717142868042 L 67.5 123.2 L 44.3 123.2 L 44.3 119.2 L 67.5 119.2 L 73.5 114.2 L 84.5 123.2 L 79.5 127.2 L 79.5 160.3 L 79.36206893920898 160.3689655303955 L 81.6 162.2 L 86.0 165.3 L 90.8 167.9 L 96.5 170.0 L 103.8 171.6 L 113.0 172.9 L 124.6 173.6 L 139.0 173.8 L 156.6 173.4 L 177.7 172.4 L 189.0 171.9 L 178.2 185.6 L 156.8 185.9 Z M 140.7 48.3 L 142.9 51.2 L 138.2213333129883 52.168000030517575 L 137.2 53.7 L 135.9 55.6 L 134.6 57.4 L 133.2 59.3 L 131.7 61.3 L 130.1 63.2 L 128.57894735336305 64.9 L 160.4 64.9 L 166.4 59.9 L 177.4 68.9 L 172.4 72.9 L 172.4 101.8 L 160.4 107.8 L 160.4 99.8 L 109.2 99.8 L 109.2 117.3 L 163.4 117.3 L 169.4 112.3 L 180.4 121.3 L 175.4 125.3 L 175.4 158.3 L 163.4 164.3 L 163.4 154.3 L 109.2 154.3 L 109.2 161.3 L 97.2 167.3 L 97.2 58.9 L 109.2 64.9 L 126.03333330154419 64.9 L 126.3 64.1 L 126.7 61.6 L 127.1 59.2 L 127.9 54.6 L 128.3 52.4 L 128.9 48.2 L 129.2 46.2 L 129.29964694976806 45.253353881835935 L 129.1 45.2 L 129.9 42.8 Z M 109.2 121.3 L 109.2 150.3 L 163.4 150.3 L 163.4 121.3 Z M 63.1 97.1 L 61.5 94.9 L 59.7 92.9 L 57.8 90.8 L 55.8 88.8 L 53.7 86.8 L 51.4 84.9 L 49.1 82.8 L 46.5 81.2 L 47.2 79.5 L 50.2 80.5 L 53.4 81.2 L 56.4 82.2 L 59.4 83.4 L 62.2 84.7 L 65.0 86.2 L 67.7 87.8 L 70.3 89.6 L 72.8 91.5 L 75.2 93.6 L 76.6 97.9 L 74.6 102.1 L 70.2 103.4 L 66.1 101.4 L 64.7 99.2 Z M 109.2 68.9 L 109.2 95.8 L 160.4 95.8 L 160.4 68.9 Z M 70.9 67.8 L 69.5 65.7 L 67.9 63.7 L 66.2 61.6 L 64.4 59.5 L 62.4 57.5 L 58.0 53.3 L 55.3 51.5 L 56.1 49.9 L 59.2 51.0 L 62.3 51.9 L 65.3 53.0 L 68.2 54.3 L 70.9 55.7 L 73.6 57.3 L 76.1 59.0 L 78.5 60.8 L 80.8 62.8 L 83.0 64.9 L 84.0 69.4 L 81.7 73.3 L 77.3 74.4 L 73.3 72.0 L 72.2 69.9 Z " />
</g>
</svg>
