<svg xmlns="http://www.w3.org/2000/svg" xmlns:xlink="http://www.w3.org/1999/xlink" version="1.1" baseProfile="full" viewBox="0 0 200 200" width="200" height="200">
<g fill="black">
<path d="M 39.5 35.0 L 98.0 35.0 L 98.0 12.0 L 110.0 14.0 L 113.0 16.0 L 110.0 17.8 L 110.0 35.0 L 167.8181818008423 35.0 L 176.0 26.0 L 186.0 35.0 L 186.0 39.0 L 39.5 39.0 L 39.5 102.0 L 38.9 113.7 L 37.8 124.8 L 36.3 135.2 L 34.1 145.1 L 31.4 154.3 L 28.2 162.8 L 24.4 170.6 L 20.1 177.8 L 15.1 184.1 L 9.6 189.5 L 8.3 188.4 L 12.3 182.0 L 15.8 175.3 L 19.0 168.1 L 21.7 160.4 L 24.0 152.1 L 25.8 143.3 L 27.1 133.9 L 28.1 123.8 L 28.5 113.2 L 28.5 29.5 Z M 145.4 183.3 L 134.7 180.3 L 124.7 176.6 L 115.7 172.2 L 110.00635442733764 168.5893955230713 L 99.8 173.5 L 88.4 177.8 L 76.3 181.5 L 63.5 184.3 L 49.9 186.4 L 35.7 187.5 L 35.5 185.7 L 49.3 182.6 L 62.2 179.1 L 74.3 175.2 L 85.6 170.8 L 96.1 165.8 L 101.91635723114014 162.50206546783448 L 100.3 161.2 L 94.1 154.7 L 89.0 147.5 L 86.59658117294312 142.5034188270569 L 86.4 142.7 L 81.3 147.0 L 75.9 151.1 L 70.2 154.8 L 64.1 158.3 L 57.7 161.4 L 50.8 164.1 L 43.6 166.3 L 42.9 164.7 L 49.1 160.7 L 55.1 156.7 L 60.6 152.7 L 65.8 148.6 L 70.7 144.4 L 75.1 140.1 L 79.2 135.7 L 82.9 131.1 L 86.2 126.4 L 88.67535209655762 122.43943662643433 L 88.6 122.4 L 89.7 120.8 L 99.3 128.0 L 100.7 131.3 L 96.87446804046631 131.2340425491333 L 95.4 133.2 L 93.96326532363892 134.8 L 135.06052627563477 134.8 L 136.6 133.0 L 137.03420190811158 133.35483169555664 L 141.3 129.8 L 152.3 138.8 L 147.3 141.8 L 143.03195877075194 143.57835054397583 L 138.1 148.7 L 129.6 156.0 L 120.4 162.5 L 118.92178049087525 163.37214946746826 L 119.8 163.8 L 128.3 167.0 L 137.7 169.6 L 147.8 171.7 L 158.7 173.1 L 170.5 174.0 L 181.4 174.8 L 169.5 187.2 L 157.1 185.6 Z M 90.3 138.8 L 88.47796611785888 140.62203388214112 L 92.3 145.0 L 98.3 150.6 L 104.8 155.6 L 108.98135013580323 158.1552695274353 L 114.7 154.3 L 122.8 147.7 L 130.1 140.6 L 131.63947372436525 138.8 Z M 59.6 59.0 L 77.8 59.0 L 82.8 54.0 L 92.8 63.0 L 87.8 66.0 L 87.8 114.0 L 77.8 119.0 L 77.8 114.0 L 59.6 114.0 L 59.6 126.0 L 48.6 131.5 L 48.6 53.5 Z M 150.6 59.0 L 167.8 59.0 L 173.8 54.0 L 184.8 63.0 L 179.8 67.0 L 179.8 120.0 L 167.8 126.0 L 167.8 114.0 L 150.6 114.0 L 150.6 121.0 L 139.6 126.5 L 139.6 53.5 Z M 134.7 54.7 L 134.7 58.7 L 118.14285717010497 58.7 L 117.8 59.3 L 117.0 60.8 L 114.3 65.0 L 113.4 66.3 L 112.4 67.7 L 110.87692308425903 69.5 L 121.5 69.5 L 127.0 64.5 L 137.5 73.5 L 132.5 77.0 L 132.5 118.0 L 121.5 123.5 L 121.5 114.0 L 104.7 114.0 L 94.7 119.0 L 94.7 64.5 L 104.7 69.5 L 108.26470584869385 69.5 L 108.0 68.0 L 107.8 66.4 L 107.7 64.8 L 107.5 63.2 L 107.3 60.0 L 107.12666664123535 58.7 L 91.0 58.7 L 91.0 54.7 L 116.51818180084229 54.7 L 124.7 45.7 Z M 150.6 87.7 L 150.6 110.0 L 167.8 110.0 L 167.8 87.7 Z M 104.7 93.0 L 104.7 110.0 L 121.5 110.0 L 121.5 93.0 Z M 59.6 87.7 L 59.6 110.0 L 77.8 110.0 L 77.8 87.7 Z M 104.7 73.5 L 104.7 89.0 L 121.5 89.0 L 121.5 73.5 Z M 150.6 63.0 L 150.6 83.7 L 167.8 83.7 L 167.8 63.0 Z M 59.6 63.0 L 59.6 83.7 L 77.8 83.7 L 77.8 63.0 Z " />
</g>
</svg>
