<svg xmlns="http://www.w3.org/2000/svg" xmlns:xlink="http://www.w3.org/1999/xlink" version="1.1" baseProfile="full" viewBox="0 0 200 200" width="200" height="200">
<g fill="black">
<path d="M 78.9 136.3 L 78.19411764144897 140.3 L 124.0 140.3 L 124.0 119.8 L 136.0 121.8 L 139.0 123.8 L 136.0 125.6 L 136.0 140.3 L 163.0 140.3 L 173.0 130.3 L 185.0 140.3 L 185.0 144.3 L 136.0 144.3 L 136.0 182.5 L 124.0 188.5 L 124.0 144.3 L 77.48823528289795 144.3 L 77.4 144.8 L 75.1 152.6 L 72.1 159.9 L 68.3 166.4 L 63.8 172.2 L 58.5 177.2 L 52.6 181.4 L 46.1 184.8 L 38.9 187.3 L 31.2 188.9 L 30.7 187.1 L 37.5 183.8 L 43.5 180.1 L 48.8 176.1 L 53.3 171.7 L 57.1 166.9 L 60.3 161.6 L 62.9 155.8 L 64.9 149.5 L 65.8797101020813 144.3 L 16.0 144.3 L 16.0 140.3 L 66.4453332901001 140.3 L 67.0 135.1 L 67.0 119.8 L 79.0 121.8 L 82.0 123.8 L 79.0 125.6 L 79.0 135.7 L 78.61889762878418 136.27165355682374 Z M 55.65864944458008 17.564795112609865 L 62.7 24.3 L 62.9 27.5 L 59.1676549911499 25.970350360870363 L 57.2 26.6 L 51.8 28.0 L 49.0 28.7 L 46.1 29.3 L 43.1 29.9 L 40.0 30.4 L 37.74647884368896 30.752112674713135 L 36.0 31.8 L 36.0 58.0 L 47.7777777671814 58.0 L 54.0 51.0 L 62.0 58.0 L 62.0 62.0 L 36.0 62.0 L 36.0 90.0 L 47.7777777671814 90.0 L 54.0 83.0 L 62.0 90.0 L 62.0 94.0 L 36.0 94.0 L 36.0 115.0 L 24.0 121.0 L 24.0 26.0 L 34.31538457870484 27.719230747222902 L 35.5 27.0 L 38.2 25.4 L 40.8 23.8 L 43.4 22.3 L 45.8 20.8 L 48.1 19.3 L 50.3 17.9 L 52.4 16.4 L 53.555054664611816 15.591461753845214 L 53.5 15.5 L 53.578477668762204 15.575065612792969 L 54.4 15.0 Z M 181.0 30.0 L 176.0 34.0 L 176.0 115.0 L 164.0 121.0 L 164.0 94.0 L 139.0 94.0 L 139.0 90.0 L 164.0 90.0 L 164.0 62.0 L 139.0 62.0 L 139.0 58.0 L 164.0 58.0 L 164.0 30.0 L 140.0 30.0 L 140.0 26.0 L 164.0 26.0 L 170.0 21.0 Z M 109.8 19.4 L 108.8 20.1 L 107.8 20.9 L 106.6 21.9 L 105.1 23.1 L 103.5 24.5 L 101.6 26.2 L 99.6 28.1 L 97.2 30.2 L 95.5043478012085 31.7 L 120.7 31.7 L 126.7 26.7 L 137.7 35.7 L 132.7 39.7 L 132.7 108.3 L 120.7 114.3 L 120.7 108.3 L 80.3 108.3 L 68.3 114.3 L 68.3 25.7 L 80.3 31.7 L 92.47741937637329 31.7 L 92.8 31.2 L 94.2 28.0 L 95.5 25.1 L 96.6 22.6 L 97.6 20.3 L 98.3 18.3 L 98.9 16.7 L 99.2 15.3 L 99.2890546798706 14.854726409912109 L 98.7 14.6 L 99.7 12.7 Z M 102.6 85.2 L 100.96555595397949 81.19561204910278 L 99.5 83.3 L 95.5 88.6 L 91.4 93.4 L 86.9 97.8 L 82.2 101.6 L 80.9 100.4 L 87.1 90.2 L 90.1 84.9 L 93.1 79.3 L 96.0 73.5 L 96.78144483566284 71.79756650924682 L 96.4 71.0 L 94.2 66.5 L 91.9 62.0 L 89.6 57.7 L 87.3 53.3 L 84.9 48.9 L 86.3 47.7 L 90.2 50.9 L 93.9 54.5 L 97.4 58.3 L 100.6 62.4 L 100.81756372451783 62.692351245880126 L 101.5 61.1 L 104.1 54.4 L 106.5 47.4 L 109.4 38.7 L 120.2 44.2 L 120.7 44.859090900421144 L 120.7 35.7 L 80.3 35.7 L 80.3 104.3 L 120.7 104.3 L 120.7 47.42807016372681 L 118.68478202819824 47.81697187423706 L 117.1 51.6 L 113.9 58.6 L 110.6 65.3 L 107.1 71.7 L 107.05807666778564 71.76798372268676 L 109.6 75.8 L 112.3 80.7 L 114.9 85.7 L 117.3 90.8 L 117.2 95.4 L 113.9 98.6 L 109.4 98.5 L 106.2 95.2 L 104.4 90.1 Z M 111.5 22.6 L 105.6 22.8 L 109.8 19.4 Z " />
</g>
</svg>
