<svg xmlns="http://www.w3.org/2000/svg" xmlns:xlink="http://www.w3.org/1999/xlink" version="1.1" baseProfile="full" viewBox="0 0 200 200" width="200" height="200">
<g fill="black">
<path d="M 125.3 182.7 L 103.6 179.8 L 85.0 175.1 L 69.3 168.5 L 56.2 159.9 L 50.15878973007202 153.91524963378907 L 47.2 158.6 L 40.3 167.1 L 32.5 174.7 L 23.9 181.3 L 14.4 186.7 L 13.5 185.2 L 21.6 178.3 L 28.8 170.9 L 35.2 163.0 L 40.9 154.4 L 44.420654678344725 147.72542562484742 L 37.0 136.9 L 30.4 122.5 L 25.4 106.2 L 27.1 105.6 L 34.2 120.8 L 42.0 133.7 L 47.627652168273926 140.52906103134154 L 49.7 135.4 L 53.0 124.8 L 55.4 113.5 L 57.1 101.4 L 57.83125 91.0 L 37.53745708465576 91.0 L 36.6 93.2 L 23.3 93.9 L 48.5285475730896 36.0 L 14.0 36.0 L 14.0 32.0 L 50.0 32.0 L 56.0 27.0 L 67.0 36.0 L 62.0 39.0 L 59.19805011749268 40.16747913360596 L 39.241924381256105 87.0 L 58.0 87.0 L 64.0 82.0 L 75.0 91.0 L 70.0 94.0 L 69.35183048248291 94.27007064819335 L 68.4 102.9 L 65.9 115.7 L 62.6 127.7 L 58.3 138.8 L 54.12773494720459 147.22633924484253 L 61.2 153.2 L 73.4 160.1 L 88.0 165.4 L 105.4 169.0 L 126.1 171.0 L 150.4 171.4 L 178.6 170.4 L 189.9 169.8 L 179.3 183.5 L 150.4 184.0 Z M 75.1 151.3 L 125.0 151.3 L 125.0 127.8 L 83.5 127.8 L 83.5 123.8 L 125.0 123.8 L 125.0 104.9 L 137.0 106.9 L 140.0 108.9 L 137.0 110.7 L 137.0 123.8 L 156.4 123.8 L 166.4 113.8 L 178.4 123.8 L 178.4 127.8 L 137.0 127.8 L 137.0 151.3 L 164.9 151.3 L 174.9 141.3 L 186.9 151.3 L 186.9 155.3 L 75.1 155.3 Z M 184.9 28.8 L 184.9 32.8 L 148.0 32.8 L 148.0 47.5 L 165.4 47.5 L 171.4 42.5 L 182.4 51.5 L 177.4 55.5 L 177.4 105.2 L 165.4 111.2 L 165.4 101.2 L 96.5 101.2 L 96.5 108.2 L 84.5 114.2 L 84.5 41.5 L 96.5 47.5 L 112.0 47.5 L 112.0 32.8 L 77.0 32.8 L 77.0 28.8 L 162.9 28.8 L 172.9 18.8 Z M 162.8 58.1 L 164.8 58.1 L 162.8 71.1 L 165.4 72.83333330154419 L 165.4 51.5 L 148.0 51.5 L 148.0 65.6 L 147.9 66.9 L 147.9 67.9 L 148.0 68.6 L 148.2 69.4 L 148.4 69.8 L 148.8 70.2 L 149.6 70.6 L 150.6 70.9 L 152.0 71.1 L 158.3 71.1 Z M 124.0 32.8 L 124.0 47.5 L 136.0 47.5 L 136.0 32.8 Z M 149.6 80.2 L 147.2 79.9 L 145.0 79.3 L 142.8 78.3 L 140.8 76.9 L 139.1 75.0 L 137.8 72.9 L 136.9 70.6 L 136.3 68.2 L 136.0 65.6 L 136.0 51.5 L 124.0 51.5 L 124.0 54.5 L 123.3 59.7 L 122.2 64.6 L 120.4 69.2 L 118.1 73.3 L 115.3 77.0 L 112.1 80.1 L 108.3 82.8 L 104.2 84.9 L 99.7 86.4 L 96.5 87.18367347717285 L 96.5 97.2 L 165.4 97.2 L 165.4 78.36666669845582 L 162.8 80.1 L 152.0 80.1 Z M 96.5 51.5 L 96.5 84.58000001907348 L 98.3 83.5 L 101.8 80.8 L 104.6 78.1 L 107.0 75.2 L 108.9 72.3 L 110.3 69.2 L 111.3 65.9 L 111.9 62.4 L 112.1 58.6 L 112.0 54.5 L 112.0 51.5 Z " />
</g>
</svg>
