<svg xmlns="http://www.w3.org/2000/svg" xmlns:xlink="http://www.w3.org/1999/xlink" version="1.1" baseProfile="full" viewBox="0 0 200 200" width="200" height="200">
<g fill="black">
<path d="M 72.4 78.7 L 74.7 81.5 L 71.27044534683228 82.32563352584839 L 67.01023969650268 96.0 L 161.8181818008423 96.0 L 170.0 87.0 L 180.0 96.0 L 180.0 100.0 L 65.76405229568482 100.0 L 59.844662284851076 119.0 L 161.0 119.0 L 167.0 114.0 L 178.0 123.0 L 173.0 126.0 L 172.3889907836914 126.25458717346191 L 171.9 130.9 L 170.5 139.7 L 168.8 147.8 L 166.6 155.2 L 164.0 161.9 L 160.9 167.9 L 157.3 173.1 L 153.2 177.7 L 148.6 181.4 L 143.5 184.3 L 141.5 185.2 L 139.4 186.0 L 137.3 186.7 L 135.1 187.3 L 133.0 187.8 L 130.8 188.2 L 126.4 188.8 L 122.0 189.0 L 122.0 183.0 L 102.0 180.0 L 102.0 177.0 L 122.0 177.0 L 125.4 176.8 L 128.8 176.4 L 130.5 176.1 L 132.1 175.7 L 133.8 175.2 L 135.4 174.7 L 137.0 174.1 L 138.6 173.4 L 141.9 171.5 L 145.0 169.0 L 147.8 165.8 L 150.5 161.8 L 153.0 157.0 L 155.2 151.3 L 157.1 144.8 L 158.7 137.5 L 160.0 129.4 L 160.7191011428833 123.0 L 58.598474979400635 123.0 L 58.1 124.6 L 44.8 126.8 L 60.62761192321777 76.0 L 12.9 76.0 L 12.9 72.0 L 145.2 72.0 L 145.2 49.9 L 36.8 49.9 L 36.8 45.9 L 145.2 45.9 L 145.2 26.2 L 32.8 26.2 L 32.8 22.2 L 145.2 22.2 L 151.2 17.2 L 162.2 26.2 L 157.2 30.2 L 157.2 72.0 L 165.0 72.0 L 175.0 62.0 L 187.0 72.0 L 187.0 76.0 L 67.04909086227417 76.0 Z M 39.3 134.5 L 105.6 134.5 L 111.6 129.5 L 122.6 138.5 L 117.6 142.5 L 117.6 169.5 L 105.6 175.5 L 105.6 165.5 L 39.3 165.5 L 39.3 172.5 L 27.3 178.5 L 27.3 128.5 Z M 39.3 138.5 L 39.3 161.5 L 105.6 161.5 L 105.6 138.5 Z " />
</g>
</svg>
