<svg xmlns="http://www.w3.org/2000/svg" xmlns:xlink="http://www.w3.org/1999/xlink" version="1.1" baseProfile="full" viewBox="0 0 200 200" width="200" height="200">
<g fill="black">
<path d="M 125.4 24.5 L 170.0 24.5 L 176.0 19.5 L 187.0 28.5 L 182.0 32.5 L 182.0 180.4 L 170.0 186.4 L 170.0 176.4 L 125.4 176.4 L 125.4 183.4 L 114.4 188.9 L 114.4 19.0 Z M 97.4 179.0 L 96.0 181.0 L 94.3 182.9 L 92.4 184.5 L 90.3 185.8 L 88.0 186.8 L 85.6 187.4 L 83.2 187.8 L 80.6 188.0 L 80.6 182.0 L 60.6 179.0 L 60.6 176.0 L 80.6 176.0 L 81.9 175.9 L 83.1 175.7 L 84.0 175.4 L 84.8 175.1 L 85.4 174.7 L 86.0 174.2 L 86.6 173.6 L 87.2 172.8 L 87.7 171.8 L 88.2 170.5 L 89.2 167.1 L 90.2 163.0 L 91.0 158.3 L 91.8 152.8 L 92.5 146.7 L 93.1 140.0 L 93.6 132.7 L 94.0 124.7 L 94.3 116.1 L 94.4543478012085 109.0 L 77.39200000762939 109.0 L 76.4 121.4 L 64.0 126.4 L 69.3 59.5 L 80.13333330154418 66.0 L 94.3 66.0 L 94.3 29.0 L 66.0 29.0 L 66.0 25.0 L 94.3 25.0 L 99.8 20.0 L 110.3 29.0 L 105.3 32.5 L 105.3 76.0 L 94.3 81.5 L 94.3 70.0 L 80.51199998855591 70.0 L 77.7119999885559 105.0 L 94.5 105.0 L 100.5 100.0 L 111.5 109.0 L 106.5 112.0 L 106.39266548156738 112.04472274780274 L 106.3 116.4 L 106.0 125.2 L 105.6 133.4 L 105.1 140.9 L 104.5 147.9 L 103.7 154.4 L 102.9 160.2 L 101.9 165.5 L 100.8 170.2 L 99.5 174.4 L 98.6 176.8 Z M 47.4 179.0 L 46.0 181.0 L 44.3 182.9 L 42.4 184.5 L 40.3 185.8 L 38.0 186.8 L 35.6 187.4 L 33.2 187.8 L 30.6 188.0 L 30.6 182.0 L 18.6 179.0 L 18.6 176.0 L 30.6 176.0 L 31.9 175.9 L 33.1 175.7 L 34.0 175.4 L 34.8 175.1 L 35.4 174.7 L 36.0 174.2 L 36.6 173.6 L 37.2 172.8 L 37.7 171.8 L 38.2 170.5 L 39.2 167.1 L 40.2 163.0 L 41.0 158.3 L 41.8 152.8 L 42.5 146.7 L 43.1 140.0 L 43.6 132.7 L 44.0 124.7 L 44.3 116.1 L 44.4543478012085 109.0 L 27.392000007629395 109.0 L 26.4 121.4 L 14.0 126.4 L 19.3 59.5 L 30.13333330154419 66.0 L 43.8 66.0 L 43.8 29.0 L 16.0 29.0 L 16.0 25.0 L 43.8 25.0 L 49.8 20.0 L 60.8 29.0 L 55.8 33.0 L 55.8 76.0 L 43.8 82.0 L 43.8 70.0 L 30.511999988555907 70.0 L 27.71199998855591 105.0 L 44.5 105.0 L 50.5 100.0 L 61.5 109.0 L 56.5 112.0 L 56.392665481567384 112.04472274780274 L 56.3 116.4 L 56.0 125.2 L 55.6 133.4 L 55.1 140.9 L 54.5 147.9 L 53.7 154.4 L 52.9 160.2 L 51.9 165.5 L 50.8 170.2 L 49.5 174.4 L 48.6 176.8 Z M 159.6 141.9 L 158.3 137.9 L 157.0 134.0 L 155.4 130.1 L 153.7 126.2 L 151.9 122.3 L 149.50245904922485 117.50491800308228 L 147.9 122.8 L 145.3 130.2 L 142.3 137.3 L 139.0 144.2 L 135.3 150.7 L 131.3 157.0 L 126.7 162.8 L 125.4 162.0199999809265 L 125.4 172.4 L 170.0 172.4 L 170.0 153.3944444656372 L 169.0 154.2 L 164.5 153.6 L 161.6 150.1 L 160.7 146.0 Z M 159.6 87.3 L 158.3 83.2 L 156.9 79.1 L 155.4 75.1 L 153.7 71.1 L 151.9 67.2 L 149.9 63.3 L 149.5537190437317 62.607437992095946 L 147.9 68.0 L 145.2 75.2 L 142.3 82.2 L 139.0 89.0 L 135.3 95.5 L 131.3 101.7 L 126.7 107.5 L 125.4 106.71999998092652 L 125.4 161.39629631042482 L 127.9 155.1 L 130.5 148.4 L 133.0 141.6 L 135.2 134.6 L 137.2 127.6 L 138.9 120.4 L 140.4 113.0 L 141.6 105.4 L 142.5 97.7 L 143.11137561798097 90.8001895904541 L 143.1 90.8 L 143.4 87.6 L 155.1 91.0 L 157.9 93.3 L 154.4876534461975 94.90959749221801 L 153.8 99.3 L 152.1 107.4 L 150.83079299926757 112.61042890548705 L 154.0 115.5 L 157.1 118.9 L 159.9 122.4 L 162.6 126.1 L 165.1 130.0 L 167.4 134.0 L 169.5 138.1 L 170.0 139.23157892227172 L 170.0 99.22222223281861 L 169.0 100.0 L 164.5 99.4 L 161.6 95.8 L 160.7 91.5 Z M 125.4 28.5 L 125.4 106.1037036895752 L 127.9 99.9 L 130.5 93.2 L 133.0 86.4 L 135.2 79.6 L 137.2 72.6 L 138.9 65.5 L 140.4 58.2 L 141.6 50.8 L 142.5 43.3 L 143.1090703010559 36.60022678375244 L 143.1 36.6 L 143.4 33.5 L 155.1 36.9 L 157.9 39.2 L 154.48249187469483 40.747550868988036 L 153.8 45.0 L 152.1 52.8 L 150.93819770812988 57.508356761932376 L 154.0 60.3 L 157.1 63.7 L 160.0 67.4 L 162.7 71.2 L 165.1 75.2 L 167.4 79.3 L 169.5 83.6 L 170.0 84.78421049118042 L 170.0 28.5 Z " />
</g>
</svg>
