<svg xmlns="http://www.w3.org/2000/svg" xmlns:xlink="http://www.w3.org/1999/xlink" version="1.1" baseProfile="full" viewBox="0 0 200 200" width="200" height="200">
<g fill="black">
<path d="M 87.4 55.0 L 90.4 57.0 L 87.4 58.8 L 87.4 112.0 L 86.5 123.7 L 84.4 134.7 L 81.2 144.8 L 76.7 153.9 L 71.1 162.2 L 64.4 169.4 L 56.6 175.7 L 47.8 180.8 L 37.9 184.9 L 27.0 187.8 L 26.5 186.1 L 36.4 181.4 L 45.1 176.2 L 52.6 170.5 L 59.0 164.1 L 64.3 157.2 L 68.5 149.6 L 71.7 141.4 L 73.9 132.4 L 75.1 122.6 L 75.1045205116272 122.44027395248413 L 70.1 125.3 L 63.7 128.8 L 57.3 132.1 L 50.9 135.3 L 44.4 138.4 L 31.6 144.4 L 22.545019912719727 148.5030378341675 L 21.7 152.2 L 18.8 150.2 L 12.6 139.7 L 14.4 139.0 L 21.0 136.7 L 27.6 134.5 L 28.2 134.28181819915773 L 28.2 36.0 L 38.282352924346924 41.04117650985718 L 39.2 40.6 L 44.5 38.3 L 49.9 36.0 L 55.3 33.6 L 60.7 31.1 L 66.1 28.5 L 71.5 25.8 L 77.0 23.0 L 82.4 20.1 L 87.04169425964355 17.568166732788086 L 87.0 17.5 L 87.06052627563477 17.557894706726074 L 87.9 17.1 L 89.13016500473023 19.537549114227296 L 96.2 26.3 L 96.4 29.6 L 92.67742567062378 28.07435474395752 L 87.4 30.4 L 81.4 32.8 L 75.5 35.1 L 69.6 37.1 L 63.7 39.0 L 57.8 40.7 L 51.9 42.2 L 46.1 43.4 L 40.2 44.3 L 40.2 130.04029846191406 L 40.9 129.8 L 47.6 127.4 L 54.3 125.1 L 61.1 122.7 L 67.9 120.4 L 74.9 118.2 L 75.22730731964111 118.10180778503418 L 75.4 112.0 L 75.4 53.0 Z M 183.6 41.9 L 178.6 45.9 L 178.6 165.8 L 166.6 171.8 L 166.6 159.8 L 99.5 159.8 L 99.5 155.8 L 166.6 155.8 L 166.6 97.4 L 103.3 97.4 L 103.3 93.4 L 166.6 93.4 L 166.6 41.9 L 100.6 41.9 L 100.6 37.9 L 166.6 37.9 L 172.6 32.9 Z " />
</g>
</svg>
