<svg xmlns="http://www.w3.org/2000/svg" xmlns:xlink="http://www.w3.org/1999/xlink" version="1.1" baseProfile="full" viewBox="0 0 200 200" width="200" height="200">
<g fill="black">
<path d="M 169.3 123.5 L 167.4 124.8 L 165.3 125.9 L 163.2 126.9 L 161.0 127.7 L 158.7 128.4 L 157.087250995636 128.6804780960083 L 167.5 137.2 L 162.5 140.2 L 158.86671533584595 141.71386861801147 L 154.7 147.0 L 147.4 154.8 L 139.4 161.9 L 137.32471837997437 163.37893629074097 L 138.7 164.2 L 146.0 167.6 L 153.9 170.4 L 162.5 172.5 L 171.7 174.1 L 181.7 175.0 L 192.4 175.9 L 180.5 188.1 L 169.7 186.4 L 159.6 184.0 L 150.3 180.8 L 141.6 176.9 L 133.8 172.2 L 129.4914668083191 168.81472396850586 L 121.4 173.6 L 111.5 178.3 L 101.0 182.2 L 89.9 185.3 L 78.2 187.5 L 66.0 188.8 L 65.7 187.1 L 77.4 183.8 L 88.4 180.2 L 98.7 176.1 L 108.3 171.5 L 117.2 166.3 L 122.56115112304687 162.46115112304688 L 120.7 160.6 L 115.5 153.8 L 111.3 146.2 L 109.52935838699341 141.51636724472047 L 105.8 145.5 L 101.1 149.8 L 96.1 153.8 L 90.8 157.6 L 85.1 160.9 L 79.1 163.9 L 72.8 166.3 L 71.9 164.8 L 77.2 160.6 L 82.1 156.5 L 86.8 152.3 L 91.1 148.1 L 95.2 143.7 L 98.9 139.2 L 102.3 134.6 L 105.5 129.8 L 108.3 124.8 L 110.34889154434204 120.62026138305664 L 110.3 120.6 L 111.3 118.6 L 121.4 125.2 L 123.2 128.4 L 119.29702072143554 128.60187826156616 L 118.0 130.7 L 116.22115383148193 133.2 L 150.5 133.2 L 150.57572813034056 133.13689317703248 L 151.5 131.8 L 151.87525081634521 132.05395765304564 L 155.67058820724486 128.8911765098572 L 154.0 129.1 L 151.6 129.2 L 151.6 123.2 L 131.6 120.2 L 131.6 117.2 L 151.6 117.2 L 153.2 117.1 L 156.0 116.7 L 157.3 116.3 L 158.6 115.8 L 159.8 115.3 L 161.0 114.6 L 162.2 113.8 L 163.3 112.9 L 164.5 111.8 L 165.5 110.4 L 166.9 107.3 L 168.2 102.7 L 169.5 96.7 L 170.5 89.4 L 171.4 80.8 L 172.0 70.8 L 172.5 59.6 L 172.7 47.2 L 172.67204370498658 43.36998176574707 L 172.6 43.4 L 172.6 35.4 L 100.19846153259277 35.4 L 100.1 35.6 L 96.6 42.0 L 92.8 48.2 L 88.7 54.3 L 87.78474578857421 55.5 L 121.5 55.5 L 121.5 40.8 L 133.5 42.8 L 136.5 44.8 L 133.5 46.6 L 133.5 55.5 L 153.9181818008423 55.5 L 162.1 46.5 L 172.1 55.5 L 172.1 59.5 L 84.73389825820922 59.5 L 84.2 60.2 L 79.4 65.9 L 74.1 71.4 L 68.5 76.6 L 67.1 75.4 L 71.2 69.0 L 75.1 62.7 L 75.45347003936767 62.10769882202148 L 72.12325582504272 62.16511631011963 L 69.3 66.4 L 64.0 73.7 L 58.3 80.8 L 52.5 87.7 L 46.3 94.2 L 44.67142858505249 95.8285714149475 L 51.7 97.0 L 54.7 99.0 L 51.7 100.8 L 51.7 182.0 L 39.7 188.0 L 39.7 100.7764705657959 L 33.1 106.6 L 26.1 112.3 L 18.7 117.7 L 11.0 122.7 L 9.9 121.2 L 16.3 114.8 L 22.5 108.4 L 28.6 101.9 L 34.4 95.3 L 40.0 88.6 L 45.3 81.7 L 50.4 74.7 L 55.2 67.6 L 59.7 60.2 L 64.0 52.7 L 64.05926837921143 52.73567609786987 L 64.6 51.9 L 74.3 58.9 L 75.6985294342041 61.697058868408206 L 78.8 56.5 L 82.3 50.2 L 85.4 44.0 L 88.4 37.8 L 91.0 31.5 L 93.3 25.1 L 95.4 18.8 L 96.85769090652465 13.312222671508788 L 96.8 13.3 L 97.6 10.8 L 108.6 15.8 L 110.9 18.6 L 107.21111106872559 19.522222232818603 L 106.1 22.5 L 103.3 29.1 L 102.16769227981567 31.4 L 172.6 31.4 L 178.6 26.4 L 189.6 35.4 L 184.63581657409668 38.37850999832153 L 184.7 47.3 L 184.4 59.9 L 184.0 71.4 L 183.3 81.7 L 182.4 90.8 L 181.3 98.8 L 179.9 105.6 L 178.1 111.4 L 175.9 116.3 L 172.9 120.3 L 171.2 122.0 Z M 113.21224489212037 137.2 L 111.36917448043823 139.40269384384155 L 114.8 144.0 L 120.1 150.1 L 125.8 155.5 L 128.68940896987914 157.69035835266112 L 132.9 154.2 L 139.7 147.3 L 145.9 139.9 L 147.76666669845582 137.2 Z M 105.1 70.2 L 149.8 70.2 L 155.8 65.2 L 166.8 74.2 L 161.8 78.2 L 161.8 104.8 L 149.8 110.8 L 149.8 104.8 L 105.1 104.8 L 105.1 116.8 L 93.1 122.8 L 93.1 64.2 Z M 105.1 89.0 L 105.1 100.8 L 149.8 100.8 L 149.8 89.0 Z M 105.1 74.2 L 105.1 85.0 L 149.8 85.0 L 149.8 74.2 Z M 66.8 21.0 L 68.3 24.2 L 64.53538465499878 24.2 L 62.2 27.5 L 57.5 33.8 L 52.7 39.8 L 47.6 45.6 L 42.4 51.2 L 37.0 56.5 L 31.4 61.6 L 25.6 66.3 L 19.6 70.7 L 13.3 74.7 L 12.1 73.2 L 17.1 67.8 L 22.0 62.4 L 26.8 56.9 L 31.4 51.3 L 36.0 45.6 L 40.4 39.8 L 44.7 33.7 L 48.8 27.5 L 52.8 21.2 L 56.06326751708984 15.53221960067749 L 56.0 15.5 L 57.1 13.8 Z " />
</g>
</svg>
