<svg xmlns="http://www.w3.org/2000/svg" xmlns:xlink="http://www.w3.org/1999/xlink" version="1.1" baseProfile="full" viewBox="0 0 200 200" width="200" height="200">
<g fill="black">
<path d="M 154.4 179.8 L 144.8 174.6 L 136.1 168.7 L 129.07583484649658 162.6924903869629 L 119.4 169.9 L 108.8 176.1 L 97.6 181.1 L 85.6 184.9 L 73.1 187.5 L 59.9 188.8 L 59.6 187.1 L 72.2 183.8 L 84.0 179.8 L 95.0 175.0 L 105.1 169.4 L 114.5 163.0 L 122.69256162643433 156.04584884643555 L 121.8 155.1 L 116.2 147.4 L 111.8 139.2 L 108.5 130.4 L 108.02123613357544 128.0817749977112 L 107.4 129.2 L 103.6 135.1 L 99.4 140.8 L 94.7 146.1 L 89.6 151.1 L 84.1 155.6 L 78.1 159.6 L 76.9 158.3 L 81.5 152.9 L 85.7 147.5 L 89.6 142.0 L 93.2 136.4 L 96.4 130.7 L 99.2 124.9 L 101.7 118.8 L 103.8 112.6 L 105.6 106.2 L 107.0 99.6 L 107.01361255645752 99.60314140319824 L 107.4 97.8 L 118.7 102.3 L 121.2 104.9 L 117.52871503829957 106.08005590438843 L 116.5 109.4 L 113.9 116.3 L 113.12727270126342 118.0 L 149.7 118.0 L 150.2902702331543 117.50810813903809 L 150.4 117.3 L 150.4878077507019 117.34349355697631 L 155.7 113.0 L 166.7 122.0 L 161.7 125.0 L 159.0444867134094 126.10646390914917 L 154.3 134.2 L 146.7 144.8 L 138.3 154.3 L 136.14546976089477 156.26512098312378 L 142.0 160.3 L 150.2 164.9 L 159.2 169.0 L 169.2 172.6 L 180.0 175.6 L 188.2 177.8 L 176.5 188.3 L 165.0 184.4 Z M 73.2 58.8 L 74.8 62.0 L 71.06728668212891 62.064357089996335 L 68.3 66.3 L 63.2 73.7 L 57.9 80.7 L 52.2 87.6 L 46.4 94.2 L 44.765454578399655 95.86090908050537 L 51.6 97.0 L 54.6 99.0 L 51.6 100.8 L 51.6 182.0 L 39.6 188.0 L 39.6 101.0625 L 33.8 106.5 L 27.0 112.3 L 19.9 117.7 L 12.5 122.6 L 11.4 121.3 L 17.4 114.8 L 23.3 108.4 L 29.1 101.9 L 34.6 95.4 L 39.9 88.7 L 44.9 81.8 L 49.7 74.8 L 54.3 67.7 L 58.6 60.4 L 62.249995136260985 53.723179531097415 L 62.2 53.7 L 63.3 51.9 Z M 111.30909090042114 122.0 L 110.9 122.9 L 110.1222222328186 124.3 L 112.4 128.8 L 116.9 136.3 L 122.1 143.2 L 127.9 149.5 L 128.50848569869996 150.01766691207885 L 131.0 147.4 L 138.1 138.3 L 144.6 128.3 L 147.92181816101075 122.0 Z M 147.9 104.9 L 145.5 104.6 L 143.1 103.9 L 140.9 102.8 L 138.9 101.3 L 137.3 99.5 L 136.0 97.3 L 135.1 95.0 L 134.6 92.5 L 134.3 90.0 L 134.3 69.0 L 106.78571424484252 69.0 L 115.2 72.1 L 117.8 74.6 L 113.97987928390503 75.98913478851318 L 113.6 77.2 L 111.4 82.1 L 108.6 86.8 L 105.3 91.2 L 101.4 95.5 L 97.1 99.4 L 92.2 103.2 L 86.8 106.7 L 80.9 109.9 L 74.4 112.7 L 73.5 111.2 L 78.8 106.7 L 83.6 102.4 L 88.0 98.2 L 91.8 94.0 L 95.0 89.9 L 97.7 85.8 L 99.9 81.8 L 101.6 77.8 L 102.7 73.8 L 103.24164962768555 70.70485916137696 L 103.2 70.7 L 103.56428575515747 69.0 L 69.2 69.0 L 69.2 65.0 L 118.9 65.0 L 118.9 42.0 L 79.9 42.0 L 79.9 38.0 L 118.9 38.0 L 118.9 13.0 L 130.9 15.0 L 133.9 17.0 L 130.9 18.8 L 130.9 38.0 L 150.3 38.0 L 160.3 28.0 L 172.3 38.0 L 172.3 42.0 L 130.9 42.0 L 130.9 65.0 L 165.7 65.0 L 175.7 55.0 L 187.7 65.0 L 187.7 69.0 L 146.3 69.0 L 146.3 91.2 L 146.4 92.1 L 146.5 92.8 L 146.7 93.6 L 146.9 93.9 L 147.3 94.2 L 148.0 94.5 L 149.0 94.8 L 150.3 95.0 L 174.4 95.0 L 179.4 78.0 L 181.4 78.0 L 179.4 95.0 L 182.4 97.0 L 184.4 100.0 L 182.4 103.0 L 179.4 105.0 L 150.3 105.0 Z M 66.0 20.9 L 67.5 24.1 L 63.833846187591554 24.1 L 61.6 27.4 L 57.1 33.7 L 52.5 39.7 L 47.6 45.6 L 42.6 51.1 L 37.4 56.5 L 32.1 61.5 L 26.5 66.3 L 20.7 70.7 L 14.7 74.6 L 13.5 73.3 L 18.2 67.8 L 22.8 62.4 L 27.3 57.0 L 31.8 51.4 L 36.1 45.7 L 40.3 39.9 L 44.3 33.8 L 48.2 27.7 L 52.0 21.3 L 55.144845962524414 15.62180585861206 L 55.1 15.6 L 56.1 13.9 Z " />
</g>
</svg>
