<svg xmlns="http://www.w3.org/2000/svg" xmlns:xlink="http://www.w3.org/1999/xlink" version="1.1" baseProfile="full" viewBox="0 0 200 200" width="200" height="200">
<g fill="black">
<path d="M 50.5 16.0 L 53.5 18.0 L 50.5 19.8 L 50.5 183.0 L 38.5 189.0 L 38.5 14.0 Z M 161.4 158.7 L 155.6 151.7 L 150.2 144.3 L 145.1 136.6 L 140.4 128.6 L 136.2 120.2 L 132.3 111.6 L 129.4 103.69090909957886 L 129.4 183.0 L 117.4 189.0 L 117.4 114.50727272033691 L 112.2 123.3 L 106.4 132.1 L 100.2 140.4 L 93.8 148.3 L 87.0 155.7 L 79.8 162.6 L 72.3 168.9 L 64.4 174.6 L 63.3 173.3 L 69.7 166.2 L 76.0 158.9 L 82.0 151.4 L 87.8 143.6 L 93.3 135.5 L 98.5 127.0 L 103.5 118.2 L 108.2 109.1 L 112.6 99.5 L 114.87333335876465 94.0 L 65.0 94.0 L 65.0 90.0 L 117.4 90.0 L 117.4 13.0 L 129.4 15.0 L 132.4 17.0 L 129.4 18.8 L 129.4 90.0 L 163.2 90.0 L 173.2 80.0 L 185.2 90.0 L 185.2 94.0 L 129.4 94.0 L 129.4 94.95 L 132.8 100.9 L 137.6 108.9 L 142.5 116.7 L 147.5 124.2 L 152.8 131.3 L 158.3 138.1 L 164.0 144.5 L 170.0 150.7 L 176.2 156.5 L 182.7 162.0 L 184.8 163.8 L 174.0 171.9 L 167.5 165.5 Z M 14.7 101.4 L 12.3 97.5 L 13.3 93.0 L 14.8 91.4 L 16.3 89.3 L 17.8 86.8 L 19.3 83.7 L 20.7 80.3 L 22.2 76.4 L 23.6 72.1 L 25.1 67.4 L 26.6 62.4 L 27.9 56.9 L 29.7 57.0 L 29.8 62.8 L 29.8 68.2 L 29.5 73.2 L 29.1 78.0 L 28.5 82.4 L 27.8 86.5 L 26.9 90.3 L 25.8 93.8 L 24.6 97.0 L 23.1 100.0 L 19.1 102.4 Z M 65.8 78.4 L 65.1 75.6 L 64.1 72.8 L 63.0 69.9 L 61.7 66.9 L 58.6 60.7 L 56.9 57.4 L 54.7 54.3 L 56.0 53.1 L 59.0 55.6 L 62.0 58.0 L 64.7 60.6 L 67.3 63.2 L 69.6 65.9 L 71.8 68.7 L 73.7 71.5 L 75.5 74.4 L 77.0 77.4 L 78.4 80.5 L 77.7 85.0 L 74.2 87.8 L 69.6 87.2 L 66.8 83.7 L 66.4 81.1 Z M 174.2 31.4 L 176.1 34.4 L 172.3644453048706 34.850842761993405 L 171.7 36.1 L 169.0 41.0 L 166.2 45.8 L 163.3 50.7 L 160.2 55.7 L 157.1 60.6 L 153.7 65.6 L 150.2 70.6 L 146.5 75.5 L 142.5 80.4 L 140.9 79.5 L 143.2 73.6 L 145.6 67.9 L 148.0 62.4 L 150.4 57.0 L 152.7 51.7 L 155.0 46.5 L 157.2 41.3 L 161.4 31.3 L 162.9447277069092 27.316228580474853 L 162.9 27.3 L 163.17472524642943 26.723076915740968 L 163.3 26.4 L 163.3234492301941 26.410756587982178 L 163.9 25.2 Z M 90.7 64.3 L 89.4 59.8 L 88.0 55.2 L 86.3 50.8 L 84.6 46.3 L 82.7 41.9 L 78.5 32.9 L 76.3 28.3 L 77.8 27.2 L 81.6 30.7 L 85.1 34.5 L 88.3 38.6 L 91.2 42.7 L 93.9 47.1 L 96.5 51.5 L 98.7 56.1 L 100.8 60.8 L 102.7 65.6 L 104.4 70.6 L 103.7 75.1 L 100.1 77.9 L 95.6 77.1 L 92.8 73.5 L 91.8 68.9 Z " />
</g>
</svg>
