<svg xmlns="http://www.w3.org/2000/svg" xmlns:xlink="http://www.w3.org/1999/xlink" version="1.1" baseProfile="full" viewBox="0 0 200 200" width="200" height="200">
<g fill="black">
<path d="M 46.1 16.0 L 49.1 18.0 L 46.1 19.8 L 46.1 183.0 L 34.1 189.0 L 34.1 14.0 Z M 65.0 176.0 L 76.0 176.0 L 76.0 122.0 L 88.0 128.0 L 160.0 128.0 L 166.0 123.0 L 177.0 132.0 L 172.0 136.0 L 172.0 176.0 L 174.5 176.0 L 179.0 170.0 L 185.0 176.0 L 185.0 180.0 L 65.0 180.0 Z M 88.0 132.0 L 88.0 176.0 L 160.0 176.0 L 160.0 132.0 Z M 146.6 166.5 L 145.0 164.7 L 143.0 162.9 L 140.5 160.8 L 137.7 158.7 L 134.5 156.5 L 127.0 151.5 L 125.06886940002441 150.51297769546508 L 124.3 151.6 L 120.9 155.4 L 117.1 158.9 L 112.8 162.2 L 108.1 165.1 L 103.0 167.7 L 97.4 169.9 L 91.3 171.8 L 90.6 170.1 L 95.7 166.6 L 100.3 163.2 L 104.4 159.8 L 108.0 156.4 L 111.2 152.9 L 113.8 149.5 L 116.0 146.0 L 117.7 142.5 L 119.0 138.9 L 119.64779119491577 136.30883531570436 L 119.6 136.3 L 119.86666669845582 135.4333333015442 L 119.9 135.3 L 119.90709047317505 135.30195598602296 L 120.4 133.7 L 131.5 138.5 L 133.8 141.2 L 129.92781686782837 142.3063380241394 L 129.6 143.1 L 127.2 147.5 L 126.52753620147705 148.4507246017456 L 128.1 148.9 L 132.7 150.1 L 136.9 151.4 L 140.8 152.7 L 144.4 154.1 L 147.6 155.5 L 150.6 156.9 L 153.2 158.4 L 155.6 160.1 L 157.8 161.9 L 159.0 166.3 L 156.8 170.3 L 152.4 171.5 L 148.4 169.4 L 147.7 168.0 Z M 66.9 110.9 L 119.5 110.9 L 119.5 95.6 L 76.8 95.6 L 76.8 91.6 L 119.5 91.6 L 119.5 74.4 L 83.2 74.4 L 83.2 70.4 L 119.5 70.4 L 119.5 54.1 L 64.8 54.1 L 64.8 50.1 L 119.5 50.1 L 119.5 33.8 L 83.2 33.8 L 83.2 29.8 L 119.5 29.8 L 119.5 12.5 L 131.5 14.5 L 134.5 16.5 L 131.5 18.3 L 131.5 29.8 L 156.1 29.8 L 162.1 24.8 L 173.1 33.8 L 168.1 37.8 L 168.1 50.1 L 171.87777776718139 50.1 L 178.1 43.1 L 186.1 50.1 L 186.1 54.1 L 168.1 54.1 L 168.1 76.4 L 156.1 82.4 L 156.1 74.4 L 131.5 74.4 L 131.5 91.6 L 155.9181818008423 91.6 L 164.1 82.6 L 174.1 91.6 L 174.1 95.6 L 131.5 95.6 L 131.5 110.9 L 165.8181818008423 110.9 L 174.0 101.9 L 184.0 110.9 L 184.0 114.9 L 66.9 114.9 Z M 14.2 101.5 L 11.6 97.7 L 12.2 93.2 L 13.5 91.6 L 14.9 89.5 L 16.3 86.9 L 17.6 83.9 L 19.0 80.4 L 20.3 76.5 L 21.6 72.2 L 22.9 67.5 L 24.3 62.4 L 25.6 56.9 L 27.4 57.0 L 27.5 62.7 L 27.6 68.1 L 27.5 73.2 L 27.2 77.9 L 26.8 82.2 L 26.2 86.3 L 25.5 90.0 L 24.7 93.5 L 23.7 96.6 L 22.4 99.6 L 18.7 102.2 Z M 57.8 78.1 L 57.2 75.4 L 56.4 72.6 L 55.5 69.7 L 54.5 66.8 L 53.3 63.7 L 52.0 60.6 L 50.6 57.4 L 48.8 54.3 L 50.2 53.2 L 52.8 55.8 L 55.5 58.2 L 58.0 60.8 L 60.2 63.4 L 62.3 66.1 L 64.2 68.9 L 66.0 71.8 L 67.6 74.7 L 69.0 77.6 L 70.2 80.6 L 69.4 85.1 L 65.7 87.9 L 61.2 87.1 L 58.5 83.4 L 58.2 80.8 Z M 131.5 54.1 L 131.5 70.4 L 156.1 70.4 L 156.1 54.1 Z M 131.5 33.8 L 131.5 50.1 L 156.1 50.1 L 156.1 33.8 Z " />
</g>
</svg>
