<svg xmlns="http://www.w3.org/2000/svg" xmlns:xlink="http://www.w3.org/1999/xlink" version="1.1" baseProfile="full" viewBox="0 0 200 200" width="200" height="200">
<g fill="black">
<path d="M 48.0 16.0 L 51.0 18.0 L 48.0 19.8 L 48.0 183.0 L 36.0 189.0 L 36.0 14.0 Z M 157.8 17.0 L 160.8 19.0 L 157.8 20.8 L 157.8 82.0 L 164.2 82.0 L 174.2 72.0 L 186.2 82.0 L 186.2 86.0 L 157.8 86.0 L 157.8 182.0 L 145.8 188.0 L 145.8 86.0 L 124.8 86.0 L 124.8 82.0 L 145.8 82.0 L 145.8 15.0 Z M 115.1 48.7 L 114.0 46.2 L 112.7 43.8 L 111.2 41.2 L 109.4 38.7 L 107.5 36.1 L 105.3 33.5 L 102.9 30.7 L 102.0306149482727 29.954812812805176 L 100.6 34.0 L 97.5 42.1 L 94.2 50.0 L 90.6 57.6 L 86.8 65.1 L 84.525 69.0 L 104.51818180084229 69.0 L 112.7 60.0 L 122.7 69.0 L 122.7 73.0 L 105.8 73.0 L 105.8 101.0 L 108.61818180084228 101.0 L 116.8 92.0 L 126.8 101.0 L 126.8 105.0 L 105.8 105.0 L 105.8 161.33999996185304 L 108.0 160.7 L 113.6 159.1 L 119.3 157.6 L 125.1 156.1 L 125.8 157.8 L 120.8 161.1 L 115.7 164.1 L 110.5 166.8 L 105.2 169.4 L 100.0 171.9 L 94.7 174.2 L 89.4 176.4 L 84.0 178.5 L 78.7 180.5 L 77.31241121292115 180.99743747711182 L 76.1 184.8 L 73.4 182.4 L 68.1 171.5 L 70.0 170.9 L 80.8 168.3 L 86.2 166.9 L 93.8 164.7888889312744 L 93.8 105.0 L 72.1 105.0 L 72.1 101.0 L 93.8 101.0 L 93.8 73.0 L 82.16000003814698 73.0 L 78.2 79.3 L 73.3 86.1 L 68.1 92.4 L 66.6 91.5 L 69.04199666976929 86.33692140579224 L 66.9 87.9 L 62.4 87.1 L 59.7 83.4 L 59.5 80.8 L 59.0 78.1 L 58.5 75.3 L 57.8 72.5 L 56.9 69.7 L 55.9 66.7 L 54.8 63.7 L 53.5 60.6 L 52.2 57.4 L 50.4 54.3 L 51.9 53.2 L 54.4 55.8 L 57.1 58.2 L 59.5 60.8 L 61.7 63.5 L 63.8 66.2 L 65.6 69.0 L 67.3 71.8 L 68.9 74.7 L 70.2 77.7 L 71.4 80.7 L 71.23454160690308 81.63070363998413 L 73.5 76.7 L 76.8 69.3 L 79.9 61.8 L 82.8 54.3 L 85.6 46.6 L 88.1 38.7 L 90.4 30.8 L 92.5 22.7 L 94.18803510665893 15.414795780181885 L 94.1 15.4 L 94.8 12.7 L 106.0 17.4 L 108.4 20.1 L 104.89277248382568 21.120284366607667 L 103.5 25.8 L 102.85341386795044 27.62827796936035 L 104.5 28.5 L 107.9 30.1 L 111.1 31.9 L 114.1 33.9 L 116.9 36.1 L 119.5 38.3 L 121.8 40.8 L 124.0 43.3 L 126.0 46.0 L 127.8 48.9 L 127.7 53.4 L 124.6 56.7 L 120.0 56.7 L 116.7 53.5 L 116.0 51.1 Z M 79.5 145.2 L 79.3 142.2 L 78.9 139.2 L 78.4 136.3 L 77.7 133.3 L 76.9 130.3 L 75.9 127.3 L 74.9 124.2 L 73.3 121.3 L 74.8 120.2 L 77.1 122.6 L 79.6 125.1 L 81.8 127.7 L 83.8 130.6 L 85.6 133.5 L 87.2 136.7 L 88.5 140.0 L 89.7 143.4 L 90.6 146.9 L 91.4 150.6 L 89.9 154.9 L 85.8 156.9 L 81.5 155.4 L 79.4 151.4 L 79.5 148.3 Z M 125.5 121.6 L 127.8 124.4 L 123.83018865585328 125.39245281219482 L 122.8 127.6 L 119.8 133.6 L 118.2 136.6 L 116.5 139.5 L 114.6 142.5 L 112.7 145.4 L 110.6 148.3 L 108.7 151.3 L 107.1 150.6 L 108.1 147.2 L 108.7 143.7 L 109.5 140.4 L 110.9 133.8 L 112.3 127.4 L 113.5 121.2 L 113.82896175384522 119.22622947692871 L 113.7 119.2 L 113.99090909957886 118.25454549789428 L 114.0 118.2 L 114.00705089569092 118.20208463668823 L 114.5 116.6 Z M 16.9 101.5 L 14.2 97.8 L 14.8 93.3 L 16.1 91.7 L 17.4 89.5 L 18.8 86.9 L 20.1 83.9 L 21.4 80.4 L 22.7 76.5 L 24.0 72.2 L 25.3 67.5 L 26.7 62.4 L 27.9 56.9 L 29.7 57.0 L 29.9 62.7 L 30.0 68.1 L 29.9 73.1 L 29.7 77.8 L 29.3 82.2 L 28.7 86.2 L 28.1 90.0 L 27.3 93.4 L 26.3 96.6 L 25.1 99.5 L 21.4 102.1 Z " />
</g>
</svg>
