<svg xmlns="http://www.w3.org/2000/svg" xmlns:xlink="http://www.w3.org/1999/xlink" version="1.1" baseProfile="full" viewBox="0 0 200 200" width="200" height="200">
<g fill="black">
<path d="M 167.9 91.7 L 164.47424240112304 87.98060607910156 L 163.2 89.0 L 163.2 116.0 L 151.2 122.0 L 151.2 112.0 L 131.71176471710206 112.0 L 130.6 113.4 L 128.85535497665404 115.55514974594116 L 131.3 120.5 L 135.7 128.9 L 140.4 136.8 L 145.4 144.1 L 149.7350393295288 149.76889762878417 L 149.8 149.7 L 152.9 146.3 L 156.0 143.0 L 158.9 139.8 L 161.7 136.8 L 164.4 133.9 L 166.9 131.1 L 169.3 128.4 L 171.6 125.8 L 173.06412210464478 124.0569974899292 L 173.0 124.0 L 173.9 123.1 L 182.0 132.0 L 182.7 135.5 L 178.8192982673645 134.46052627563478 L 176.5 136.2 L 170.3 140.6 L 166.9 142.9 L 163.5 145.3 L 159.8 147.6 L 155.9 149.9 L 151.8 152.2 L 151.77093429565429 152.21730108261107 L 156.2 157.2 L 162.1 163.0 L 168.4 168.3 L 175.1 173.0 L 182.1 177.3 L 186.2 179.9 L 175.1 188.6 L 167.7 183.2 L 160.8 177.2 L 154.4 170.8 L 148.5 163.9 L 143.1 156.5 L 138.3 148.6 L 134.0 140.2 L 130.4 131.4 L 127.4 122.0 L 126.55449047088624 118.39739418029785 L 125.5 119.7 L 120.2 125.7 L 114.6 131.3 L 108.7 136.6 L 105.63483142852783 139.02247190475464 L 111.5 140.0 L 114.5 142.0 L 111.5 143.8 L 111.5 168.0 L 110.90740737915038 168.2962963104248 L 120.5 167.0 L 128.1 166.1 L 135.7 165.5 L 143.5 165.1 L 143.9 166.8 L 136.4 169.2 L 129.1 171.4 L 114.5 175.4 L 100.3 179.2 L 93.3 181.0 L 86.4 182.9 L 79.6 184.7 L 76.88833084106446 185.46898078918457 L 75.5 189.1 L 72.9 186.6 L 68.3 175.3 L 70.2 174.9 L 77.1 173.6 L 84.1 172.4 L 91.2 171.2 L 98.4 170.1 L 99.5 169.93424654006958 L 99.5 143.609375 L 96.1 146.0 L 89.4 150.1 L 82.4 153.9 L 75.2 157.1 L 67.6 159.8 L 66.8 158.1 L 73.4 153.7 L 79.7 149.2 L 85.8 144.7 L 91.6 139.9 L 97.1 134.9 L 102.4 129.7 L 107.4 124.3 L 112.1 118.6 L 116.6 112.7 L 117.0666666984558 112.0 L 99.1 112.0 L 99.1 119.0 L 87.1 125.0 L 87.1 85.46585369110107 L 84.6 87.6 L 80.3 90.9 L 75.6 94.1 L 70.7 97.0 L 65.5 99.7 L 64.4 98.2 L 68.4 94.0 L 72.2 90.0 L 75.9 86.0 L 79.3 82.1 L 82.6 78.2 L 85.6 74.4 L 88.3 70.5 L 90.9 66.6 L 93.2 62.7 L 94.85476055145264 59.62687320709229 L 94.8 59.6 L 95.8 57.9 L 105.6 64.9 L 107.2 68.1 L 103.23037977218628 68.16844177246094 L 102.7 68.9 L 99.6 72.9 L 96.2 76.8 L 94.4 78.65 L 99.1 81.0 L 151.2 81.0 L 156.7577142715454 76.36857147216797 L 156.5 75.9 L 154.6 71.7 L 153.3 67.6 L 153.13894739151002 66.83052635192871 L 153.0 66.9 L 153.0 66.16666669845581 L 152.4 63.3 L 152.15853662490844 60.0 L 110.0 60.0 L 110.0 56.0 L 148.08000001907348 56.0 L 153.0 51.9 L 164.0 60.9 L 159.0 63.9 L 157.7 64.55 L 158.2 65.3 L 160.6 68.4 L 163.2 71.5 L 165.9 74.5 L 168.9 77.4 L 172.2 80.3 L 175.7 83.1 L 179.5 85.9 L 183.7 88.7 L 186.7 90.9 L 175.7 99.2 L 171.6 95.5 Z M 46.1 16.0 L 49.1 18.0 L 46.1 19.8 L 46.1 183.0 L 34.1 189.0 L 34.1 14.0 Z M 99.1 85.0 L 99.1 108.0 L 151.2 108.0 L 151.2 85.0 Z M 14.2 101.5 L 11.6 97.7 L 12.2 93.2 L 13.5 91.6 L 14.9 89.5 L 16.3 86.9 L 17.6 83.9 L 19.0 80.4 L 20.3 76.5 L 21.6 72.2 L 22.9 67.5 L 24.3 62.4 L 25.6 56.9 L 27.4 57.0 L 27.5 62.7 L 27.6 68.1 L 27.5 73.2 L 27.2 77.9 L 26.8 82.2 L 26.2 86.3 L 25.5 90.0 L 24.7 93.5 L 23.7 96.6 L 22.4 99.6 L 18.7 102.2 Z M 57.8 78.1 L 57.2 75.4 L 56.4 72.6 L 55.5 69.7 L 54.5 66.8 L 53.3 63.7 L 52.0 60.6 L 50.6 57.4 L 48.8 54.3 L 50.2 53.2 L 52.8 55.8 L 55.5 58.2 L 58.0 60.8 L 60.2 63.4 L 62.3 66.1 L 64.2 68.9 L 66.0 71.8 L 67.6 74.7 L 69.0 77.6 L 70.2 80.6 L 69.4 85.1 L 65.7 87.9 L 61.2 87.1 L 58.5 83.4 L 58.2 80.8 Z M 152.7 59.0235294342041 L 153.0 58.93529415130615 L 153.0 58.9 L 152.7 58.8 Z M 69.5 38.0 L 119.7 38.0 L 119.7 13.0 L 131.7 15.0 L 134.7 17.0 L 131.7 18.8 L 131.7 38.0 L 164.5 38.0 L 174.5 28.0 L 186.5 38.0 L 186.5 42.0 L 69.5 42.0 Z " />
</g>
</svg>
