<svg xmlns="http://www.w3.org/2000/svg" xmlns:xlink="http://www.w3.org/1999/xlink" version="1.1" baseProfile="full" viewBox="0 0 200 200" width="200" height="200">
<g fill="black">
<path d="M 46.8 16.0 L 49.8 18.0 L 46.8 19.8 L 46.8 183.0 L 34.8 189.0 L 34.8 14.0 Z M 152.9 176.2 L 168.3 176.2 L 169.2 176.1 L 169.9 176.0 L 170.5 175.7 L 170.9 175.3 L 171.1 174.8 L 171.3 174.1 L 171.5 173.0 L 171.5 29.4 L 86.4 29.4 L 86.4 183.0 L 75.4 188.5 L 75.4 19.9 L 86.4 25.4 L 171.5 25.4 L 177.0 20.4 L 187.5 29.4 L 182.5 32.9 L 182.5 171.7 L 182.4 174.1 L 182.0 176.4 L 181.4 178.7 L 180.4 180.8 L 179.0 182.8 L 177.2 184.4 L 175.1 185.7 L 172.9 186.5 L 170.6 187.0 L 168.3 187.2 L 168.3 181.7 L 152.9 178.9 Z M 109.4 158.0 L 98.4 163.5 L 98.4 93.0 L 109.4 95.0 L 112.1 97.0 L 109.4 98.72340421676635 L 109.4 142.0 L 123.0 142.0 L 123.0 77.0 L 89.1 77.0 L 89.1 73.0 L 132.18823528289795 73.0 L 133.6 69.4 L 135.4 64.5 L 137.2 59.9 L 138.9 55.5 L 140.6 51.3 L 142.1 47.3 L 143.5 43.6 L 144.8 40.0 L 146.0 36.7 L 146.70754718780518 34.43584909439087 L 146.6 34.4 L 147.5 32.3 L 158.0 38.2 L 160.0 41.2 L 156.03462438583375 41.74694833755493 L 154.4 44.5 L 152.4 47.9 L 150.2 51.4 L 147.9 55.1 L 145.4 58.9 L 142.7 62.8 L 139.7 66.9 L 136.5 71.1 L 135.0418604850769 73.0 L 145.7 73.0 L 155.7 63.0 L 167.7 73.0 L 167.7 77.0 L 135.0 77.0 L 135.0 142.0 L 148.5 142.0 L 148.5 93.0 L 159.5 95.0 L 162.3 97.0 L 159.5 98.75 L 159.5 152.0 L 148.5 157.5 L 148.5 146.0 L 109.4 146.0 Z M 14.4 101.5 L 11.8 97.7 L 12.5 93.2 L 13.9 91.6 L 15.2 89.5 L 16.6 86.9 L 18.0 83.9 L 19.4 80.4 L 20.7 76.5 L 22.0 72.2 L 23.4 67.5 L 24.8 62.4 L 26.0 56.9 L 27.8 57.0 L 27.9 62.7 L 28.1 68.1 L 27.9 73.2 L 27.6 77.9 L 27.2 82.2 L 26.6 86.3 L 25.9 90.0 L 25.0 93.5 L 23.9 96.7 L 22.7 99.6 L 18.9 102.2 Z M 59.1 78.2 L 57.7 72.6 L 55.7 66.8 L 54.4 63.8 L 53.1 60.6 L 51.6 57.4 L 49.7 54.3 L 51.1 53.1 L 53.8 55.7 L 56.6 58.2 L 59.1 60.7 L 61.4 63.4 L 63.5 66.1 L 65.5 68.9 L 67.2 71.7 L 68.8 74.6 L 70.2 77.6 L 71.5 80.6 L 70.7 85.1 L 67.1 87.9 L 62.6 87.1 L 59.8 83.5 L 59.5 80.8 Z M 110.5 59.3 L 109.8 56.4 L 109.0 53.5 L 108.0 50.6 L 106.7 47.6 L 105.2 44.6 L 103.6 41.5 L 101.7 38.3 L 99.4 35.3 L 100.7 34.0 L 103.8 36.4 L 106.9 38.7 L 109.7 41.2 L 112.3 43.9 L 114.7 46.7 L 116.8 49.7 L 118.7 52.8 L 120.4 56.0 L 121.8 59.4 L 122.9 62.9 L 121.9 67.4 L 118.1 69.9 L 113.6 68.9 L 111.1 65.1 L 110.9 62.2 Z " />
</g>
</svg>
