<svg xmlns="http://www.w3.org/2000/svg" xmlns:xlink="http://www.w3.org/1999/xlink" version="1.1" baseProfile="full" viewBox="0 0 200 200" width="200" height="200">
<g fill="black">
<path d="M 89.6 183.2 L 77.6 189.2 L 77.6 137.5 L 89.6 139.5 L 92.6 141.5 L 89.6 143.3 L 89.6 172.2 L 123.5 172.2 L 123.5 129.41304349899292 L 123.1 129.5 L 120.7 129.7 L 120.7 124.2 L 105.3 121.4 L 105.3 118.7 L 120.7 118.7 L 121.7 118.6 L 122.3 118.5 L 122.7 118.3 L 123.0 118.2 L 123.1 118.0 L 123.3 117.8 L 123.5 117.3 L 123.7 116.6 L 123.9 115.5 L 124.0 114.2 L 124.0 44.6 L 129.44430379867555 45.58987340927124 L 129.0 44.8 L 136.0 39.2 L 139.5 36.5 L 143.0 33.9 L 146.5 31.4 L 150.0 28.8 L 154.06000003814697 25.9 L 87.8 25.9 L 87.8 21.9 L 159.5840000152588 21.9 L 163.8 18.8 L 164.11061096191406 19.307824230194093 L 167.0 16.9 L 178.0 25.9 L 173.0 28.9 L 161.0 33.9 L 161.0 33.582051277160645 L 154.6 36.7 L 150.6 38.5 L 146.6 40.2 L 142.5 41.9 L 138.4 43.5 L 134.1 44.9 L 131.24939756393434 45.91807231903076 L 135.0 46.6 L 137.7 48.6 L 135.0 50.323404216766356 L 135.0 114.2 L 134.8 116.6 L 134.5 118.9 L 133.8 121.2 L 132.8 123.3 L 131.4 125.3 L 129.6 126.9 L 127.6 128.2 L 125.4 129.0 L 124.57547168731689 129.1792452812195 L 135.5 131.0 L 138.5 133.0 L 135.5 134.8 L 135.5 172.2 L 169.3 172.2 L 169.3 137.5 L 181.3 139.5 L 184.3 141.5 L 181.3 143.3 L 181.3 180.2 L 169.3 186.2 L 169.3 176.2 L 89.6 176.2 Z M 46.4 16.0 L 49.4 18.0 L 46.4 19.8 L 46.4 183.0 L 34.4 189.0 L 34.4 14.0 Z M 166.5 113.6 L 161.9 108.2 L 160.22901487350464 105.79541158676147 L 156.9 109.6 L 151.4 114.6 L 145.4 118.8 L 139.0 122.3 L 138.0 120.8 L 143.0 115.9 L 147.6 110.8 L 151.8 105.4 L 155.6 99.7 L 155.97839603424072 99.02111291885376 L 154.3 96.0 L 151.3 89.3 L 148.9 82.2 L 147.0 74.7 L 145.8 66.8 L 145.4433734893799 59.4 L 140.6 59.4 L 140.6 55.4 L 169.3 55.4 L 175.3 50.4 L 186.3 59.4 L 181.3 62.4 L 180.229496383667 62.84604320526123 L 179.3 67.2 L 176.8 75.7 L 173.8 83.6 L 170.3 91.0 L 166.75635261535643 97.02420053482055 L 170.3 101.0 L 174.7 105.1 L 179.4 108.8 L 184.5 112.1 L 188.3 114.6 L 177.2 123.1 L 171.6 118.6 Z M 88.1 55.9 L 103.2 55.9 L 108.7 50.9 L 119.2 59.9 L 114.2 63.4 L 114.2 108.7 L 103.2 114.2 L 103.2 102.7 L 88.1 102.7 L 88.1 114.7 L 76.1 120.7 L 76.1 49.9 Z M 13.5 101.5 L 11.0 97.7 L 11.7 93.2 L 13.1 91.6 L 14.5 89.5 L 15.9 86.9 L 17.2 83.8 L 18.6 80.4 L 20.0 76.5 L 21.3 72.2 L 22.7 67.5 L 24.1 62.4 L 25.4 56.9 L 27.2 57.0 L 27.3 62.7 L 27.4 68.1 L 27.2 73.2 L 26.9 77.9 L 26.4 82.3 L 25.8 86.3 L 25.1 90.1 L 24.2 93.5 L 23.1 96.7 L 21.8 99.7 L 18.0 102.2 Z M 88.1 59.9 L 88.1 98.7 L 103.2 98.7 L 103.2 59.9 Z M 147.62631578445433 59.4 L 149.9 65.8 L 152.7 73.0 L 155.6 79.6 L 158.9 85.7 L 160.9969751358032 89.0551601409912 L 161.9 87.0 L 164.4 80.1 L 166.5 72.7 L 168.1 64.8 L 168.93571424484253 59.4 Z M 58.9 78.2 L 58.3 75.4 L 57.5 72.6 L 56.6 69.8 L 55.5 66.8 L 54.2 63.8 L 52.8 60.7 L 51.3 57.4 L 49.4 54.3 L 50.8 53.1 L 53.5 55.7 L 56.3 58.2 L 58.8 60.7 L 61.2 63.4 L 63.3 66.1 L 65.3 68.9 L 67.1 71.7 L 68.7 74.6 L 70.1 77.6 L 71.4 80.6 L 70.6 85.1 L 67.0 87.9 L 62.5 87.1 L 59.7 83.5 L 59.4 80.9 Z " />
</g>
</svg>
