<svg xmlns="http://www.w3.org/2000/svg" xmlns:xlink="http://www.w3.org/1999/xlink" version="1.1" baseProfile="full" viewBox="0 0 200 200" width="200" height="200">
<g fill="black">
<path d="M 45.9 16.0 L 48.9 18.0 L 45.9 19.8 L 45.9 183.0 L 33.9 189.0 L 33.9 14.0 Z M 107.04210529327392 139.7 L 136.0 139.7 L 136.0 115.4 L 148.0 117.4 L 151.0 119.4 L 148.0 121.2 L 148.0 139.7 L 154.3 139.7 L 164.3 129.7 L 176.3 139.7 L 176.3 143.7 L 148.0 143.7 L 148.0 178.4 L 136.0 184.4 L 136.0 143.7 L 106.67368421554565 143.7 L 106.6 144.5 L 105.3 151.5 L 103.3 158.1 L 100.8 164.1 L 97.7 169.5 L 93.9 174.3 L 89.7 178.4 L 84.8 181.8 L 79.5 184.4 L 73.7 186.1 L 73.0 184.5 L 77.6 181.1 L 81.6 177.5 L 85.0 173.7 L 87.9 169.7 L 90.3 165.2 L 92.3 160.5 L 93.7 155.2 L 94.7 149.5 L 95.27049179077149 143.7 L 65.7 143.7 L 65.7 139.7 L 95.35522384643555 139.7 L 95.4 136.7 L 95.4 115.4 L 107.4 117.4 L 110.4 119.4 L 107.4 121.2 L 107.4 136.8 L 107.29465646743775 136.95801525115968 Z M 160.2 119.2 L 154.4 115.8 L 149.0 112.1 L 144.1 108.0 L 139.6 103.5 L 135.6 98.6 L 132.1 93.4 L 129.1 87.8 L 127.16101694107056 82.6 L 119.33777780532837 82.6 L 119.0 83.4 L 114.1 91.9 L 108.2 99.7 L 101.1 106.9 L 93.0 113.4 L 83.9 119.3 L 73.7 124.5 L 62.5 128.9 L 61.8 127.3 L 71.9 121.1 L 80.9 114.8 L 88.9 108.3 L 95.8 101.5 L 101.5 94.4 L 106.2 87.0 L 108.31428575515747 82.6 L 67.51999998092651 82.6 L 67.0 85.2 L 63.3 87.9 L 58.8 87.0 L 56.2 83.3 L 56.0 80.7 L 55.6 78.0 L 55.1 75.2 L 54.5 72.4 L 53.7 69.6 L 52.8 66.6 L 51.8 63.6 L 50.6 60.6 L 49.4 57.4 L 47.8 54.3 L 49.2 53.2 L 51.6 55.8 L 54.2 58.3 L 56.5 60.9 L 58.6 63.5 L 60.6 66.3 L 62.4 69.1 L 64.0 71.9 L 65.5 74.8 L 66.8 77.7 L 67.13000001907349 78.6 L 110.12749996185303 78.6 L 112.5 71.3 L 114.2 62.9 L 114.82139005661011 54.999469661712645 L 114.8 55.0 L 115.0 51.8 L 126.9 54.7 L 129.8 56.9 L 126.30365171432496 58.71541156768799 L 125.4 64.8 L 122.8 74.4 L 121.02666664123535 78.6 L 157.8 78.6 L 167.8 68.6 L 179.8 78.6 L 179.8 82.6 L 129.92608699798583 82.6 L 132.6 85.6 L 136.7 89.8 L 140.9 93.8 L 145.3 97.4 L 149.8 100.6 L 154.7 103.5 L 159.8 106.1 L 165.1 108.4 L 170.8 110.4 L 176.8 112.1 L 184.6 114.4 L 172.9 124.7 L 166.4 122.1 Z M 16.3 101.6 L 13.5 97.9 L 14.1 93.4 L 15.3 91.7 L 16.5 89.6 L 17.8 87.0 L 19.1 84.0 L 20.4 80.5 L 21.6 76.6 L 22.8 72.2 L 24.1 67.5 L 25.5 62.4 L 26.7 56.9 L 28.4 57.0 L 28.6 62.7 L 28.8 68.1 L 28.8 73.1 L 28.6 77.8 L 28.2 82.1 L 27.8 86.1 L 27.2 89.8 L 26.4 93.3 L 25.6 96.4 L 24.5 99.3 L 20.9 102.1 Z M 150.2 69.0 L 149.6 67.2 L 148.8 65.4 L 147.9 63.5 L 146.9 61.7 L 145.8 59.9 L 144.6 58.0 L 143.8862745285034 56.95686273574829 L 134.6 61.6 L 134.6 40.0 L 107.4 40.0 L 107.4 55.6 L 95.4 61.6 L 95.4 40.0 L 60.1 40.0 L 60.1 36.0 L 95.4 36.0 L 95.4 15.6 L 107.4 17.6 L 110.4 19.6 L 107.4 21.4 L 107.4 36.0 L 134.6 36.0 L 134.6 15.6 L 146.6 17.6 L 149.6 19.6 L 146.6 21.4 L 146.6 36.0 L 159.9 36.0 L 169.9 26.0 L 181.9 36.0 L 181.9 40.0 L 146.6 40.0 L 146.6 54.995652198791504 L 146.9 55.1 L 149.1 56.1 L 151.2 57.3 L 153.3 58.7 L 155.2 60.1 L 157.1 61.8 L 158.8 63.5 L 160.5 65.4 L 162.1 67.4 L 162.3 72.0 L 159.4 75.5 L 154.8 75.7 L 151.3 72.8 L 150.8 70.9 Z " />
</g>
</svg>
