<svg xmlns="http://www.w3.org/2000/svg" xmlns:xlink="http://www.w3.org/1999/xlink" version="1.1" baseProfile="full" viewBox="0 0 200 200" width="200" height="200">
<g fill="black">
<path d="M 47.4 16.0 L 50.4 18.0 L 47.4 19.8 L 47.4 183.0 L 35.4 189.0 L 35.4 14.0 Z M 102.2 176.3 L 118.2 176.3 L 119.4 176.2 L 120.3 176.0 L 120.9 175.9 L 121.3 175.7 L 121.4 175.5 L 121.6 175.3 L 121.8 175.0 L 122.0 174.4 L 122.1 173.5 L 122.2 172.3 L 122.2 131.3 L 72.1 131.3 L 72.1 127.3 L 162.3 127.3 L 172.3 117.3 L 184.3 127.3 L 184.3 131.3 L 134.2 131.3 L 134.2 172.3 L 134.1 174.8 L 133.6 177.3 L 132.8 179.7 L 131.6 182.0 L 129.9 184.0 L 127.9 185.7 L 125.7 186.9 L 123.2 187.7 L 120.8 188.1 L 118.2 188.3 L 118.2 182.3 L 102.2 179.3 Z M 108.8 147.3 L 110.7 150.4 L 106.83834199905395 150.73290157318115 L 106.4 151.5 L 103.7 155.6 L 100.7 159.6 L 97.5 163.4 L 94.0 167.2 L 90.3 170.9 L 86.3 174.4 L 82.1 177.8 L 77.5 180.9 L 72.7 183.8 L 71.5 182.4 L 75.0 178.1 L 78.4 173.9 L 81.6 169.9 L 84.7 165.8 L 87.5 161.9 L 90.0 157.9 L 92.4 154.0 L 94.5 150.0 L 96.4 146.1 L 97.63467493057252 143.01331272125245 L 97.6 143.0 L 97.96000003814697 142.2 L 98.0 142.1 L 98.00410957336426 142.10197868347169 L 98.5 141.0 Z M 166.4 170.6 L 164.5 167.1 L 162.4 163.7 L 160.1 160.4 L 157.5 157.1 L 154.7 153.8 L 151.6 150.6 L 148.4 147.4 L 144.8 144.2 L 145.7 142.7 L 150.2 144.6 L 154.6 146.7 L 158.7 149.1 L 162.5 151.8 L 166.1 154.8 L 169.4 157.9 L 172.5 161.3 L 175.4 164.9 L 178.0 168.8 L 180.4 172.8 L 180.5 177.3 L 177.4 180.7 L 172.9 180.8 L 169.5 177.8 L 168.1 174.1 Z M 168.8 103.3 L 168.8 107.3 L 87.6 107.3 L 87.6 103.3 L 146.8 103.3 L 156.8 93.3 Z M 72.5 101.7 L 71.5 97.3 L 73.8 93.4 L 74.8 93.1 L 75.8 92.4 L 77.0 91.3 L 78.2 89.7 L 79.3 87.7 L 80.4 85.2 L 81.4 82.2 L 82.3 78.9 L 83.2 75.1 L 83.5 71.0 L 85.3 71.0 L 85.8 75.2 L 86.10769233703613 77.2 L 122.2 77.2 L 122.2 56.5 L 134.2 58.5 L 137.2 60.5 L 134.2 62.3 L 134.2 77.2 L 170.4 77.2 L 171.03157892227173 76.67368421554565 L 171.1 76.4 L 171.2602325439453 76.4831395149231 L 176.4 72.2 L 187.4 81.2 L 182.4 84.2 L 177.942857170105 86.05714282989501 L 177.6 86.4 L 176.1 88.0 L 172.6 91.5 L 170.7 93.3 L 168.6 95.1 L 166.4 97.0 L 164.4 99.3 L 163.0 98.2 L 164.5 95.7 L 165.5 93.0 L 166.5 90.4 L 167.4 88.0 L 168.3 85.7 L 169.0 83.6 L 169.7 81.6 L 169.82631578445435 81.2 L 86.57027025222779 81.2 L 86.7 82.8 L 86.8 86.3 L 86.6 89.6 L 86.2 92.6 L 85.4 95.5 L 84.3 98.3 L 82.8 100.8 L 80.8 103.1 L 76.4 104.1 Z M 14.5 101.5 L 12.0 97.7 L 12.7 93.2 L 14.1 91.6 L 15.5 89.5 L 16.9 86.9 L 18.2 83.8 L 19.6 80.4 L 21.0 76.5 L 22.3 72.2 L 23.7 67.5 L 25.1 62.4 L 26.4 56.9 L 28.2 57.0 L 28.3 62.7 L 28.4 68.1 L 28.2 73.2 L 27.9 77.9 L 27.4 82.3 L 26.8 86.3 L 26.1 90.1 L 25.2 93.5 L 24.1 96.7 L 22.8 99.7 L 19.0 102.2 Z M 59.9 78.2 L 59.3 75.4 L 58.5 72.6 L 57.6 69.8 L 56.5 66.8 L 55.2 63.8 L 53.8 60.7 L 52.3 57.4 L 50.4 54.3 L 51.8 53.1 L 54.5 55.7 L 57.3 58.2 L 59.8 60.7 L 62.2 63.4 L 64.3 66.1 L 66.3 68.9 L 68.1 71.7 L 69.7 74.6 L 71.1 77.6 L 72.4 80.6 L 71.6 85.1 L 68.0 87.9 L 63.5 87.1 L 60.7 83.5 L 60.4 80.9 Z M 93.6 55.0 L 81.6 61.0 L 81.6 22.5 L 93.6 24.5 L 96.6 26.5 L 93.6 28.3 L 93.6 48.0 L 122.2 48.0 L 122.2 13.0 L 134.2 15.0 L 137.2 17.0 L 134.2 18.8 L 134.2 48.0 L 162.2 48.0 L 162.2 22.5 L 174.2 24.5 L 177.2 26.5 L 174.2 28.3 L 174.2 56.0 L 162.2 62.0 L 162.2 52.0 L 93.6 52.0 Z " />
</g>
</svg>
