<svg xmlns="http://www.w3.org/2000/svg" xmlns:xlink="http://www.w3.org/1999/xlink" version="1.1" baseProfile="full" viewBox="0 0 200 200" width="200" height="200">
<g fill="black">
<path d="M 43.9 16.0 L 46.9 18.0 L 43.9 19.8 L 43.9 183.0 L 31.9 189.0 L 31.9 14.0 Z M 112.4 176.7 L 112.1 174.1 L 111.71525659561158 171.69535369873046 L 111.0 172.0 L 105.6 174.0 L 100.3 175.8 L 95.0 177.5 L 89.8 179.1 L 79.6 182.1 L 74.6 183.6 L 69.6 184.9 L 68.77462997436524 185.1407329559326 L 67.3 188.8 L 64.8 186.3 L 60.3 175.0 L 62.3 174.5 L 72.3 173.1 L 77.5 172.3 L 82.7 171.6 L 88.0 170.8 L 88.0 147.3 L 76.8 147.3 L 76.8 154.3 L 65.8 159.8 L 65.8 110.0 L 76.8 115.5 L 88.0 115.5 L 88.0 97.2 L 98.0 99.2 L 100.5 101.2 L 98.0 102.86666669845582 L 98.0 115.5 L 109.0 115.5 L 114.0 110.5 L 124.0 119.5 L 119.0 122.5 L 119.0 147.3 L 109.0 152.3 L 109.0 147.3 L 98.0 147.3 L 98.0 169.51454544067383 L 98.9 169.4 L 104.5 168.7 L 110.2 168.3 L 110.99252204895019 168.25900745391846 L 110.5 166.5 L 109.8 163.9 L 109.0 161.3 L 108.1 158.7 L 106.7 156.3 L 108.1 155.2 L 110.1 157.2 L 112.4 159.2 L 114.4 161.3 L 116.3 163.6 L 118.0 166.0 L 119.6 168.5 L 121.1 171.2 L 122.4 174.0 L 123.5 176.9 L 124.5 179.9 L 123.4 184.3 L 119.6 186.8 L 115.2 185.7 L 112.7 181.9 L 112.6 179.3 Z M 176.2 176.7 L 175.8 174.1 L 175.50486488342284 172.1078378677368 L 170.6 173.9 L 165.4 175.7 L 155.0 178.9 L 149.8 180.3 L 134.2 184.2 L 133.12379112243653 184.4276596069336 L 131.5 188.0 L 129.0 185.3 L 125.1 173.8 L 127.1 173.5 L 132.3 172.9 L 137.5 172.4 L 142.7 171.8 L 148.0 171.2 L 149.6 170.98867921829225 L 149.6 147.3 L 138.6 147.3 L 138.6 154.3 L 128.6 159.3 L 128.6 110.5 L 138.6 115.5 L 149.6 115.5 L 149.6 97.2 L 159.6 99.2 L 162.1 101.2 L 159.6 102.86666669845582 L 159.6 115.5 L 170.2 115.5 L 175.7 110.5 L 186.2 119.5 L 181.2 123.0 L 181.2 147.3 L 170.2 152.8 L 170.2 147.3 L 159.6 147.3 L 159.6 169.7888889312744 L 169.4 168.7 L 174.67461996078492 168.31639127731324 L 174.1 166.1 L 172.3 160.7 L 171.3 157.8 L 169.8 155.2 L 171.2 154.1 L 173.3 156.3 L 175.7 158.4 L 177.9 160.7 L 179.8 163.1 L 181.7 165.7 L 183.3 168.3 L 184.8 171.1 L 186.1 173.9 L 187.3 176.8 L 188.3 179.9 L 187.2 184.3 L 183.4 186.8 L 179.0 185.7 L 176.5 181.9 L 176.4 179.3 Z M 138.6 119.5 L 138.6 143.3 L 149.6 143.3 L 149.6 119.5 Z M 159.6 119.5 L 159.6 143.3 L 170.2 143.3 L 170.2 119.5 Z M 76.8 119.5 L 76.8 143.3 L 88.0 143.3 L 88.0 119.5 Z M 98.0 119.5 L 98.0 143.3 L 109.0 143.3 L 109.0 119.5 Z M 170.1 92.3 L 168.5 89.2 L 166.69650793075562 86.35238094329834 L 160.0 87.3 L 149.5 88.5 L 139.1 89.5 L 128.8 90.5 L 108.6 92.3 L 98.7 93.2 L 88.9 94.1 L 73.74605541229248 95.5206823348999 L 71.9 98.7 L 69.7 95.9 L 67.0 84.0 L 69.0 83.9 L 78.6 83.6 L 88.3 83.4 L 108.1 83.0 L 118.2 82.9 L 118.2 60.0 L 91.8 60.0 L 91.8 67.0 L 79.8 73.0 L 79.8 25.0 L 91.8 31.0 L 118.2 31.0 L 118.2 14.0 L 130.2 16.0 L 133.2 18.0 L 130.2 19.8 L 130.2 31.0 L 158.1 31.0 L 164.1 26.0 L 175.1 35.0 L 170.1 39.0 L 170.1 60.0 L 158.1 66.0 L 158.1 60.0 L 130.2 60.0 L 130.2 82.91650485992432 L 138.8 83.0 L 149.2 83.1 L 159.8 83.5 L 164.91060314178466 83.7865758895874 L 164.5 83.2 L 162.1 80.2 L 159.5 77.2 L 156.6 74.2 L 153.5 71.1 L 150.0 68.2 L 150.9 66.7 L 155.2 68.5 L 159.3 70.4 L 163.2 72.5 L 166.9 75.0 L 170.3 77.6 L 173.5 80.4 L 176.4 83.5 L 179.0 86.7 L 181.4 90.2 L 183.6 93.8 L 183.6 98.4 L 180.5 101.7 L 175.9 101.7 L 172.6 98.6 L 171.5 95.4 Z M 14.3 101.6 L 11.5 97.9 L 12.1 93.4 L 13.3 91.7 L 14.5 89.6 L 15.8 87.0 L 17.1 84.0 L 18.4 80.5 L 19.6 76.6 L 20.8 72.2 L 22.1 67.5 L 23.5 62.4 L 24.7 56.9 L 26.4 57.0 L 26.6 62.7 L 26.8 68.1 L 26.8 73.1 L 26.6 77.8 L 26.2 82.1 L 25.8 86.1 L 25.2 89.8 L 24.4 93.3 L 23.6 96.4 L 22.5 99.3 L 18.9 102.1 Z M 53.6 78.0 L 53.1 75.2 L 52.5 72.4 L 51.7 69.6 L 50.8 66.6 L 49.8 63.6 L 48.6 60.6 L 47.4 57.4 L 45.8 54.3 L 47.2 53.2 L 49.6 55.8 L 52.2 58.3 L 54.5 60.9 L 56.6 63.5 L 58.6 66.3 L 60.4 69.1 L 62.0 71.9 L 63.5 74.8 L 64.8 77.7 L 65.9 80.7 L 65.0 85.2 L 61.3 87.9 L 56.8 87.0 L 54.2 83.3 L 54.0 80.7 Z M 91.8 35.0 L 91.8 56.0 L 118.2 56.0 L 118.2 35.0 Z M 130.2 35.0 L 130.2 56.0 L 158.1 56.0 L 158.1 35.0 Z " />
</g>
</svg>
