<svg xmlns="http://www.w3.org/2000/svg" xmlns:xlink="http://www.w3.org/1999/xlink" version="1.1" baseProfile="full" viewBox="0 0 200 200" width="200" height="200">
<g fill="black">
<path d="M 150.6 175.6 L 140.5 164.8 L 131.5 151.4 L 129.84836740493773 147.99086093902588 L 123.0 153.6 L 111.6 161.5 L 99.1 168.7 L 85.7 175.2 L 71.3 180.8 L 70.6 179.1 L 84.0 171.8 L 96.4 164.1 L 107.8 156.1 L 118.3 147.7 L 126.14800434112549 140.35293207168579 L 123.7 135.3 L 116.9 116.6 L 111.0 95.3 L 106.1 71.3 L 105.60375938415527 68.0 L 83.0 68.0 L 83.0 102.0 L 71.0 108.0 L 71.0 96.0 L 21.0 96.0 L 21.0 92.0 L 71.0 92.0 L 71.0 68.0 L 13.0 68.0 L 13.0 64.0 L 71.0 64.0 L 71.0 39.0 L 23.0 39.0 L 23.0 35.0 L 71.0 35.0 L 77.0 30.0 L 88.0 39.0 L 83.0 43.0 L 83.0 64.0 L 105.00225563049317 64.0 L 102.1 44.7 L 99.20091018676757 16.48219232559204 L 99.1 16.5 L 98.9 13.3 L 111.0 14.4 L 114.2 16.2 L 111.39450283050537 18.187227153778075 L 114.0 43.2 L 117.10804595947266 64.0 L 161.0 64.0 L 171.0 54.0 L 183.0 64.0 L 183.0 68.0 L 117.70574712753296 68.0 L 117.9 69.3 L 122.7 92.5 L 128.3 113.0 L 134.7 130.6 L 134.87546434402466 130.955735874176 L 136.1 129.6 L 143.5 119.8 L 150.0 109.6 L 155.5 98.9 L 159.6666666984558 88.529629611969 L 160.5 86.4 L 171.2 92.0 L 173.3 95.0 L 169.5115553855896 95.65318012237549 L 165.7 103.9 L 159.1 115.2 L 151.6 125.8 L 143.1 135.7 L 139.1181739807129 139.55739393234253 L 142.0 145.4 L 149.9 157.4 L 158.5 166.6 L 167.7 173.1 L 170.82870435714722 174.40894775390626 L 176.0 152.0 L 178.0 152.0 L 176.1063878059387 176.6169581413269 L 177.5 177.2 L 181.1 180.0 L 181.7 184.5 L 178.9 188.1 L 174.4 188.7 L 161.9 183.6 Z M 137.9 37.6 L 135.8 34.8 L 133.5 32.1 L 131.1 29.4 L 128.7 26.6 L 126.1 23.8 L 123.3 21.2 L 124.3 19.7 L 127.8 21.4 L 131.4 23.0 L 134.8 24.9 L 138.0 26.9 L 141.2 29.1 L 144.2 31.4 L 147.1 33.9 L 149.9 36.5 L 152.6 39.2 L 155.1 42.0 L 156.1 46.5 L 153.7 50.4 L 149.2 51.4 L 145.3 49.0 L 141.9 43.2 Z " />
</g>
</svg>
