<svg xmlns="http://www.w3.org/2000/svg" xmlns:xlink="http://www.w3.org/1999/xlink" version="1.1" baseProfile="full" viewBox="0 0 200 200" width="200" height="200">
<g fill="black">
<path d="M 47.4 16.0 L 50.4 18.0 L 47.4 19.8 L 47.4 183.0 L 35.4 189.0 L 35.4 14.0 Z M 167.0 183.0 L 164.3 180.8 L 161.1 178.6 L 157.5 176.4 L 153.4 174.2 L 148.8 172.0 L 143.9 169.8 L 138.5 167.4 L 132.7 165.1 L 133.1 163.3 L 139.4 164.0 L 145.4 164.9 L 150.9 166.0 L 156.0 167.3 L 160.8 168.8 L 165.3 170.5 L 169.4 172.3 L 173.1 174.3 L 176.6 176.5 L 179.6 178.9 L 181.3 183.1 L 179.5 187.3 L 175.3 189.0 L 171.1 187.3 L 169.3 185.2 Z M 115.3 169.2 L 115.7 172.8 L 111.97866325378418 171.44678659439086 L 111.9 171.5 L 108.2 173.6 L 104.1 175.7 L 99.7 177.8 L 95.0 179.8 L 89.9 181.8 L 84.4 183.7 L 78.6 185.5 L 72.4 187.1 L 65.8 188.6 L 65.1 186.9 L 71.0 183.6 L 76.6 180.5 L 81.8 177.7 L 86.7 174.9 L 91.2 172.2 L 95.3 169.6 L 99.0 167.1 L 102.4 164.6 L 105.3 162.2 L 107.06909894943237 160.5724289894104 L 107.0 160.5 L 107.9 159.8 Z M 96.0 137.1 L 96.0 151.8 L 154.0 151.8 L 154.0 137.1 Z M 96.0 118.4 L 96.0 133.1 L 154.0 133.1 L 154.0 118.4 Z M 96.0 99.7 L 96.0 114.4 L 154.0 114.4 L 154.0 99.7 Z M 14.5 101.5 L 12.0 97.7 L 12.7 93.2 L 14.1 91.6 L 15.5 89.5 L 16.9 86.9 L 18.2 83.8 L 19.6 80.4 L 21.0 76.5 L 22.3 72.2 L 23.7 67.5 L 25.1 62.4 L 26.4 56.9 L 28.2 57.0 L 28.3 62.7 L 28.4 68.1 L 28.2 73.2 L 27.9 77.9 L 27.4 82.3 L 26.8 86.3 L 26.1 90.1 L 25.2 93.5 L 24.1 96.7 L 22.8 99.7 L 19.0 102.2 Z M 164.17645874023438 94.11710262298584 L 171.0 99.7 L 166.0 103.7 L 166.0 155.8 L 154.0 161.8 L 154.0 155.8 L 96.0 155.8 L 96.0 158.8 L 84.0 164.8 L 84.0 92.8762375831604 L 81.0 93.5 L 69.8 94.7 L 69.5 93.0 L 80.1 89.8 L 89.5 86.3 L 97.6 82.7 L 104.5 78.7 L 110.1 74.4 L 114.5 69.9 L 117.6 65.1 L 119.7 60.2 L 120.9 54.9 L 121.1 49.2 L 121.1 12.5 L 133.1 14.5 L 136.1 16.5 L 133.1 18.3 L 133.1 49.2 L 132.33835620880126 55.064657497406 L 133.9 59.0 L 137.0 64.4 L 140.7 69.0 L 145.1 73.0 L 150.2 76.4 L 156.0 79.1 L 162.7 81.3 L 170.4 83.0 L 178.9 84.0 L 189.2 85.2 L 177.4 97.1 L 167.8 95.2 Z M 126.1 70.5 L 121.3 76.2 L 115.3 81.1 L 108.3 85.2 L 100.2 88.7 L 91.1 91.4 L 88.4867133140564 91.94335660934448 L 96.0 95.7 L 154.0 95.7 L 158.20705881118775 92.19411764144897 L 151.4 89.1 L 144.6 84.9 L 138.8 79.9 L 134.1 74.2 L 130.6 67.8 L 129.53617877960204 64.46346979141235 Z M 59.9 78.2 L 59.3 75.4 L 58.5 72.6 L 57.6 69.8 L 56.5 66.8 L 55.2 63.8 L 53.8 60.7 L 52.3 57.4 L 50.4 54.3 L 51.8 53.1 L 54.5 55.7 L 57.3 58.2 L 59.8 60.7 L 62.2 63.4 L 64.3 66.1 L 66.3 68.9 L 68.1 71.7 L 69.7 74.6 L 71.1 77.6 L 72.4 80.6 L 71.6 85.1 L 68.0 87.9 L 63.5 87.1 L 60.7 83.5 L 60.4 80.9 Z M 109.89857864379883 16.327005100250243 L 118.1 23.7 L 118.3 26.9 L 114.39242296218872 25.216736030578613 L 113.7 25.5 L 111.2 26.1 L 108.6 26.6 L 105.8 27.0 L 102.9 27.4 L 99.8 27.7 L 96.5 28.0 L 93.0 28.2 L 89.4 28.3 L 87.6 28.25263156890869 L 87.6 41.1 L 99.5777777671814 41.1 L 105.8 34.1 L 113.8 41.1 L 113.8 45.1 L 87.6 45.1 L 87.6 61.3 L 100.27777776718139 61.3 L 106.5 54.3 L 114.5 61.3 L 114.5 65.3 L 87.6 65.3 L 87.6 72.3 L 75.6 78.3 L 75.6 19.6 L 86.48888893127442 25.044444465637206 L 88.6 24.2 L 91.9 22.8 L 95.0 21.6 L 97.9 20.3 L 100.6 19.1 L 103.0 17.9 L 105.3 16.7 L 107.3 15.6 L 108.2765661239624 14.948955917358399 L 108.2 14.8 L 108.3277419090271 14.914838695526123 L 109.1 14.4 Z M 180.1 27.2 L 175.1 31.2 L 175.1 69.3 L 163.1 75.3 L 163.1 65.3 L 139.0 65.3 L 139.0 61.3 L 163.1 61.3 L 163.1 45.1 L 139.0 45.1 L 139.0 41.1 L 163.1 41.1 L 163.1 27.2 L 139.0 27.2 L 139.0 23.2 L 163.1 23.2 L 169.1 18.2 Z " />
</g>
</svg>
