<svg xmlns="http://www.w3.org/2000/svg" xmlns:xlink="http://www.w3.org/1999/xlink" version="1.1" baseProfile="full" viewBox="0 0 200 200" width="200" height="200">
<g fill="black">
<path d="M 46.4 16.0 L 49.4 18.0 L 46.4 19.8 L 46.4 183.0 L 34.4 189.0 L 34.4 14.0 Z M 88.2 26.8 L 160.6 26.8 L 170.6 16.8 L 182.6 26.8 L 182.6 30.8 L 88.2 30.8 L 88.2 100.5 L 87.6 112.4 L 86.3 123.6 L 84.4 134.2 L 81.8 144.0 L 78.6 153.2 L 74.6 161.6 L 70.1 169.3 L 64.8 176.2 L 58.9 182.3 L 52.2 187.3 L 51.1 185.9 L 56.1 179.7 L 60.5 173.1 L 64.4 166.0 L 67.8 158.5 L 70.6 150.4 L 72.8 141.7 L 74.5 132.3 L 75.6 122.4 L 76.2 111.8 L 76.2 20.8 Z M 82.4 178.0 L 100.3 178.0 L 100.3 139.9 L 112.3 141.9 L 115.3 143.9 L 112.3 145.7 L 112.3 178.0 L 131.5 178.0 L 131.5 123.0 L 143.5 125.0 L 146.5 127.0 L 143.5 128.8 L 143.5 147.8 L 161.61818180084228 147.8 L 169.8 138.8 L 179.8 147.8 L 179.8 151.8 L 143.5 151.8 L 143.5 178.0 L 165.8 178.0 L 175.8 168.0 L 187.8 178.0 L 187.8 182.0 L 82.4 182.0 Z M 171.3 105.6 L 168.8 101.5 L 166.6 97.2 L 164.6 92.9 L 163.0 88.57058820724487 L 163.0 121.7 L 151.0 127.7 L 151.0 92.63333330154418 L 148.8 95.9 L 145.2 100.6 L 141.3 105.0 L 136.9 109.1 L 132.1 112.7 L 127.0 116.0 L 125.8 114.6 L 129.5 110.0 L 133.0 105.4 L 136.2 100.8 L 139.0 96.2 L 141.6 91.5 L 143.8 86.7 L 145.7 81.8 L 147.3 76.8 L 148.6 71.6 L 148.90731706619263 69.5 L 138.8 69.5 L 138.8 65.5 L 151.0 65.5 L 151.0 50.234090900421144 L 148.7 50.6 L 144.0 51.2 L 139.2 51.7 L 134.1 52.2 L 133.7 50.5 L 138.4 48.5 L 142.8 46.6 L 147.1 44.8 L 151.2 43.1 L 155.1 41.4 L 158.9 39.9 L 162.4 38.4 L 165.7 36.9 L 168.9 35.5 L 170.9493034362793 34.51068115234375 L 170.9 34.4 L 170.9997540473938 34.486325645446776 L 171.8 34.1 L 172.35053977966308 35.65527477264404 L 181.3 43.4 L 181.6 46.5 L 177.57086877822877 44.75604772567749 L 175.8 45.4 L 172.5 46.2 L 169.0 46.9 L 165.3 47.7 L 163.0 48.17179489135742 L 163.0 65.5 L 166.21818180084227 65.5 L 174.4 56.5 L 184.4 65.5 L 184.4 69.5 L 163.0 69.5 L 163.0 71.47272729873657 L 163.6 72.7 L 165.8 77.0 L 168.0 81.1 L 170.3 84.9 L 172.7 88.6 L 175.2 92.0 L 177.8 95.3 L 180.5 98.3 L 183.4 101.2 L 186.4 103.9 L 187.8 105.3 L 177.1 113.2 L 174.1 109.5 Z M 126.5 90.2 L 125.8 89.0 L 125.0 87.8 L 124.0 86.5 L 122.9 85.2 L 121.6 83.8 L 120.9 83.15 L 120.9 121.7 L 108.9 127.7 L 108.9 92.01999998092651 L 108.4 92.9 L 105.6 97.1 L 102.5 101.1 L 99.2 104.8 L 95.6 108.2 L 91.8 111.2 L 90.4 110.0 L 92.8 105.9 L 95.0 101.7 L 97.1 97.6 L 99.1 93.4 L 100.9 89.1 L 102.5 84.7 L 104.0 80.2 L 105.2 75.7 L 106.3 70.9 L 106.5470588684082 69.5 L 91.1 69.5 L 91.1 65.5 L 108.9 65.5 L 108.9 50.80869569778442 L 108.2 50.9 L 103.3 51.4 L 98.0 51.8 L 92.5 52.2 L 92.1 50.5 L 97.4 48.7 L 102.3 46.8 L 106.8 45.0 L 111.0 43.4 L 114.9 41.9 L 118.4 40.4 L 121.5 38.9 L 124.3 37.5 L 126.6 36.2 L 127.73634767532349 35.46137399673462 L 127.7 35.4 L 127.75358819961548 35.450167655944824 L 128.6 34.9 L 129.77690095901488 37.34433288574219 L 137.1 44.2 L 137.2 47.4 L 133.46452627182006 45.807830810546875 L 131.0 46.6 L 128.0 47.4 L 124.6 48.2 L 121.0 48.9 L 120.9 48.917948722839355 L 120.9 65.5 L 126.3 65.5 L 130.8 59.5 L 136.8 65.5 L 136.8 69.5 L 120.9 69.5 L 120.9 79.16818180084229 L 121.6 79.2 L 123.8 79.5 L 127.8 80.5 L 129.7 81.1 L 131.5 81.8 L 133.3 82.7 L 134.9 83.6 L 136.5 84.7 L 137.9 89.1 L 135.8 93.2 L 131.4 94.5 L 127.3 92.4 L 127.0 91.3 Z M 13.5 101.5 L 11.0 97.7 L 11.7 93.2 L 13.1 91.6 L 14.5 89.5 L 15.9 86.9 L 17.2 83.8 L 18.6 80.4 L 20.0 76.5 L 21.3 72.2 L 22.7 67.5 L 24.1 62.4 L 25.4 56.9 L 27.2 57.0 L 27.3 62.7 L 27.4 68.1 L 27.2 73.2 L 26.9 77.9 L 26.4 82.3 L 25.8 86.3 L 25.1 90.1 L 24.2 93.5 L 23.1 96.7 L 21.8 99.7 L 18.0 102.2 Z M 58.9 78.2 L 58.3 75.4 L 57.5 72.6 L 56.6 69.8 L 55.5 66.8 L 54.2 63.8 L 52.8 60.7 L 51.3 57.4 L 49.4 54.3 L 50.8 53.1 L 53.5 55.7 L 56.3 58.2 L 58.8 60.7 L 61.2 63.4 L 63.3 66.1 L 65.3 68.9 L 67.1 71.7 L 68.7 74.6 L 70.1 77.6 L 71.4 80.6 L 70.6 85.1 L 67.0 87.9 L 62.5 87.1 L 59.7 83.5 L 59.4 80.9 Z " />
</g>
</svg>
