<svg xmlns="http://www.w3.org/2000/svg" xmlns:xlink="http://www.w3.org/1999/xlink" version="1.1" baseProfile="full" viewBox="0 0 200 200" width="200" height="200">
<g fill="black">
<path d="M 141.2986780166626 18.740793228149414 L 142.3 56.7 L 143.5306287765503 70.56508417129517 L 165.50486154556273 68.78338956832886 L 174.7 58.0 L 187.5 67.0 L 187.8 70.9 L 143.87645282745362 74.46136865615844 L 145.3 90.5 L 149.8 117.2 L 152.82633571624757 128.47997837066652 L 156.8 120.6 L 162.2 107.8 L 167.0 94.0 L 167.5 92.5 L 178.4 97.8 L 180.6 100.7 L 176.93664121627808 101.47123346328735 L 172.7 112.1 L 166.5 125.3 L 159.6 137.4 L 156.82711868286134 141.46689262390137 L 161.3 152.5 L 167.3 162.7 L 172.9 169.0 L 177.17661409378053 172.06800575256347 L 182.5 149.0 L 184.5 149.0 L 182.57446804046631 174.0319149017334 L 186.7 175.8 L 188.5 180.0 L 186.7 184.2 L 182.5 186.0 L 177.7 185.3 L 171.7 182.8 L 164.8 177.9 L 157.6 169.8 L 150.5 157.9 L 148.4380799293518 152.77644109725952 L 143.9 158.2 L 135.1 166.8 L 125.8 174.3 L 115.8 180.5 L 105.2 185.3 L 94.2 188.8 L 93.6 187.1 L 103.6 181.9 L 113.0 175.9 L 121.7 169.1 L 129.9 161.4 L 137.5 152.7 L 144.5 143.0 L 144.50218706130983 142.99634351730347 L 143.9 141.5 L 138.1 119.8 L 133.4 92.0 L 131.91975717544557 75.43083047866821 L 113.8 76.9 L 113.5 73.0 L 131.57169036865236 71.53472776412964 L 130.3 57.3 L 129.2259485244751 15.99783763885498 L 129.2 16.0 L 129.2 12.6 L 141.2 15.0 L 144.2 17.0 Z M 61.5 127.5 L 59.8 122.0 L 58.0 116.7 L 56.1 111.5 L 54.1 106.4 L 51.9 101.3 L 49.7 96.3 L 48.483576107025144 93.6556001663208 L 47.0 104.7 L 43.6 123.0 L 39.4 139.6 L 34.3 154.4 L 28.4 167.4 L 21.7 178.5 L 14.0 187.5 L 12.6 186.4 L 18.4 176.5 L 23.6 165.1 L 28.1 152.2 L 32.0 137.7 L 35.3 121.4 L 37.8 103.4 L 39.7 83.7 L 40.8 62.2 L 41.3 39.0 L 41.01198682785034 14.998901176452637 L 41.0 15.0 L 41.0 11.7 L 53.0 13.9 L 56.0 15.8 L 52.954624557495116 17.726666164398193 L 52.7 39.2 L 51.6 62.7 L 49.7 84.6 L 49.25 87.95 L 50.5 89.2 L 54.2 93.5 L 57.6 98.1 L 60.8 102.9 L 63.8 107.9 L 66.6 113.0 L 69.2 118.4 L 71.6 123.9 L 73.8 129.6 L 75.8 135.5 L 75.2 140.0 L 71.7 142.8 L 67.1 142.2 L 64.3 138.7 L 62.9 133.0 Z M 108.9 127.6 L 107.1 122.2 L 105.2 116.8 L 103.1 111.6 L 100.9 106.5 L 98.5 101.4 L 96.1 96.4 L 95.67470817565918 95.54941635131836 L 94.4 104.7 L 90.7 123.1 L 86.2 139.7 L 80.8 154.5 L 74.5 167.5 L 67.3 178.5 L 59.1 187.5 L 57.8 186.4 L 64.1 176.4 L 69.7 165.1 L 74.7 152.2 L 78.9 137.6 L 82.4 121.3 L 85.2 103.3 L 87.2 83.6 L 88.5 62.2 L 89.0 39.0 L 88.80799417495727 14.999267196655273 L 88.8 15.0 L 88.7 11.7 L 100.8 13.9 L 103.8 15.8 L 100.73996486663819 17.697221755981445 L 100.4 39.2 L 99.2 62.8 L 97.2 84.6 L 96.57569541931153 89.0816146850586 L 96.7 89.2 L 100.6 93.4 L 104.2 98.0 L 107.5 102.8 L 110.6 107.8 L 113.6 112.9 L 116.4 118.3 L 118.9 123.8 L 121.3 129.5 L 123.5 135.3 L 123.0 139.9 L 119.5 142.8 L 115.0 142.3 L 112.0 138.8 L 110.5 133.2 Z M 165.3 42.5 L 164.0 39.9 L 162.6 37.3 L 161.1 34.8 L 159.3 32.2 L 157.3 29.7 L 155.2 27.2 L 152.9 24.5 L 150.2 22.2 L 151.1 20.7 L 154.4 22.3 L 157.8 23.8 L 160.9 25.5 L 163.9 27.4 L 166.7 29.5 L 169.3 31.8 L 171.8 34.3 L 174.1 37.0 L 176.2 39.8 L 178.1 42.7 L 178.2 47.3 L 175.1 50.7 L 170.5 50.8 L 167.2 47.7 L 166.3 45.1 Z " />
</g>
</svg>
