<svg xmlns="http://www.w3.org/2000/svg" xmlns:xlink="http://www.w3.org/1999/xlink" version="1.1" baseProfile="full" viewBox="0 0 200 200" width="200" height="200">
<g fill="black">
<path d="M 41.2 46.0 L 119.23656387329102 46.0 L 118.7 37.3 L 118.22142095565796 14.99821491241455 L 118.2 15.0 L 118.2 11.6 L 130.2 14.0 L 133.2 16.0 L 130.28225107192992 17.75064935684204 L 130.7 36.8 L 131.28280544281006 46.0 L 162.3 46.0 L 172.3 36.0 L 184.3 46.0 L 184.3 50.0 L 131.536199092865 50.0 L 132.1 58.9 L 134.5 80.0 L 138.0 99.7 L 142.6 117.8 L 145.2551652908325 125.1354567527771 L 148.3 118.2 L 152.9 105.0 L 156.6 90.9 L 159.5 75.9 L 159.5588442802429 75.91047229766846 L 159.9 74.0 L 171.3 78.0 L 173.9 80.5 L 170.41608390808105 81.854856300354 L 167.7 93.7 L 163.1 108.3 L 157.6 122.1 L 151.1 134.8 L 149.8562526702881 136.79340324401855 L 155.6 148.2 L 164.0 159.9 L 173.6 169.0 L 177.30953845977783 171.1920000076294 L 182.2 150.0 L 184.2 150.0 L 182.3411371231079 174.16521739959717 L 184.6 175.5 L 187.7 178.8 L 187.7 183.4 L 184.3 186.5 L 179.8 186.4 L 166.4 178.5 L 154.9 167.7 L 145.3 154.3 L 142.329079246521 148.39624719619752 L 135.5 157.2 L 126.4 166.8 L 116.3 175.3 L 105.4 182.6 L 93.6 188.7 L 92.7 187.2 L 103.3 179.5 L 112.9 171.2 L 121.7 162.2 L 129.6 152.5 L 136.7 141.9 L 137.9257918357849 139.6461247444153 L 137.5 138.8 L 131.2 121.3 L 126.2 102.2 L 125.09309215545655 95.89677457809448 L 116.0 103.3 L 111.2 100.5 L 106.7 97.4 L 102.3 94.1 L 98.2 90.5 L 94.3 86.7 L 90.6 82.6 L 87.2 78.3 L 84.0 73.7 L 81.90195226669312 70.02841644287109 L 80.3 72.5 L 76.6 77.8 L 72.5 82.8 L 68.2 87.5 L 63.6 92.0 L 58.8 96.3 L 53.6 100.2 L 48.1 103.8 L 42.2 107.0 L 41.2 105.6 L 45.7 100.9 L 50.0 96.2 L 54.2 91.6 L 58.1 86.8 L 61.7 82.1 L 65.1 77.2 L 68.2 72.1 L 71.1 67.0 L 73.7 61.7 L 76.1 56.3 L 76.1237624168396 56.3112211227417 L 76.6 55.2 L 86.9 61.4 L 88.8 64.5 L 85.00025644302369 64.89307689666748 L 84.35890254974365 66.07234039306641 L 84.5 66.2 L 88.5 69.9 L 92.5 73.4 L 96.4 76.7 L 100.4 79.7 L 104.5 82.5 L 108.7 85.1 L 112.9 87.4 L 117.2 89.5 L 121.6 91.4 L 124.54869785308838 92.79675159454345 L 122.6 81.7 L 120.1 60.0 L 119.48325986862183 50.0 L 41.2 50.0 L 41.2 100.0 L 40.7 111.5 L 39.6 122.5 L 38.1 132.9 L 36.1 142.8 L 33.6 152.0 L 30.6 160.7 L 27.1 168.7 L 23.0 176.1 L 18.4 182.7 L 13.2 188.5 L 11.7 187.4 L 15.2 180.7 L 18.2 173.6 L 21.0 166.2 L 23.4 158.3 L 25.4 149.9 L 27.0 141.0 L 28.2 131.5 L 29.0 121.6 L 29.3 111.0 L 29.2 100.0 L 29.2 40.0 Z M 111.4 113.1 L 106.4 116.1 L 103.58828449249268 117.27154808044433 L 102.5 119.0 L 100.7 121.5 L 98.9 123.9 L 97.1 126.2 L 95.2 128.4 L 93.3 130.5 L 91.3 132.3 L 90.1235294342041 133.3 L 98.2 133.3 L 104.2 128.3 L 115.2 137.3 L 110.2 141.3 L 110.2 164.9 L 98.2 170.9 L 98.2 164.9 L 64.7 164.9 L 64.7 171.9 L 52.7 177.9 L 52.7 127.3 L 64.7 133.3 L 86.83333330154419 133.3 L 87.2 132.6 L 88.8 127.6 L 89.7 125.1 L 90.5 122.6 L 91.4 119.9 L 92.3 117.3 L 93.2 114.5 L 93.58620691299438 113.1 L 57.2 113.1 L 57.2 109.1 L 94.4 109.1 L 100.4 104.1 Z M 64.7 137.3 L 64.7 160.9 L 98.2 160.9 L 98.2 137.3 Z M 98.4 93.3 L 98.4 97.3 L 64.0 97.3 L 64.0 93.3 L 84.1777777671814 93.3 L 90.4 86.3 Z M 150.9 34.2 L 149.8 32.1 L 148.6 30.1 L 145.8 26.3 L 142.4 22.5 L 140.5 20.6 L 138.2 19.2 L 139.0 17.5 L 141.6 18.5 L 144.4 19.1 L 147.1 20.1 L 149.6 21.3 L 152.1 22.6 L 154.5 24.2 L 156.8 26.0 L 159.0 27.9 L 161.1 30.0 L 163.0 32.3 L 163.6 36.8 L 160.9 40.5 L 156.4 41.1 L 152.7 38.4 L 151.9 36.3 Z " />
</g>
</svg>
