<svg xmlns="http://www.w3.org/2000/svg" xmlns:xlink="http://www.w3.org/1999/xlink" version="1.1" baseProfile="full" viewBox="0 0 200 200" width="200" height="200">
<g fill="black">
<path d="M 44.1 16.0 L 47.1 18.0 L 44.1 19.8 L 44.1 183.0 L 32.1 189.0 L 32.1 14.0 Z M 100.1 48.5 L 99.1 46.0 L 98.0 43.6 L 96.6 41.1 L 95.1 38.6 L 93.4 36.0 L 91.4 33.4 L 89.4 30.7 L 88.9471697807312 30.282002925872803 L 87.8 33.9 L 85.0 42.0 L 81.9 49.8 L 78.6 57.5 L 75.0 65.0 L 72.88888893127441 69.0 L 93.27777776718139 69.0 L 99.5 62.0 L 107.5 69.0 L 107.5 73.0 L 92.5 73.0 L 92.5 101.0 L 96.9777777671814 101.0 L 103.2 94.0 L 111.2 101.0 L 111.2 105.0 L 92.5 105.0 L 92.5 161.23921566009523 L 93.9 160.8 L 99.0 159.1 L 104.2 157.6 L 109.6 156.1 L 110.4 157.8 L 105.8 161.0 L 101.2 164.0 L 96.5 166.8 L 91.8 169.4 L 87.0 171.8 L 82.2 174.1 L 77.3 176.4 L 72.5 178.5 L 67.7 180.5 L 66.67297563552856 180.89823389053345 L 65.6 184.6 L 62.8 182.4 L 57.3 171.5 L 59.2 170.9 L 64.1 169.7 L 78.8 165.5 L 80.5 164.95600004196166 L 80.5 105.0 L 61.3 105.0 L 61.3 101.0 L 80.5 101.0 L 80.5 73.0 L 72.4 73.0 L 72.4 69.92631578445435 L 71.2 72.2 L 67.1 79.3 L 63.114760112762454 85.23357934951783 L 63.1 85.3 L 63.04346828460693 85.33972501754761 L 62.6 86.0 L 57.7 92.4 L 56.2 91.5 L 57.87287902832031 87.56063976287842 L 54.9 86.9 L 52.3 83.2 L 51.9 77.8 L 51.4 75.1 L 50.9 72.3 L 49.5 66.5 L 48.6 63.6 L 47.6 60.5 L 46.6 57.3 L 45.2 54.3 L 46.7 53.3 L 48.9 55.9 L 51.3 58.4 L 53.4 61.0 L 55.4 63.7 L 57.2 66.4 L 58.9 69.2 L 60.4 72.0 L 61.8 74.9 L 62.42866897583008 76.47167234420776 L 65.2 69.4 L 68.0 62.0 L 70.7 54.4 L 73.1 46.7 L 75.4 38.9 L 77.5 30.9 L 79.4 22.8 L 81.1 14.6 L 81.11361255645753 14.603141403198242 L 81.5 12.8 L 92.8 17.3 L 95.3 19.9 L 91.72921352386474 21.04775276184082 L 90.4 25.7 L 89.71674423217773 27.854883766174318 L 91.0 28.6 L 94.2 30.2 L 97.1 32.1 L 99.9 34.1 L 102.5 36.2 L 104.9 38.5 L 107.1 40.9 L 109.2 43.5 L 111.0 46.2 L 112.6 49.0 L 112.5 53.6 L 109.2 56.7 L 104.6 56.6 L 101.4 53.3 L 100.8 50.9 Z M 158.4 165.0 L 166.4 165.0 L 167.7 164.9 L 168.6 164.7 L 169.5 164.4 L 169.7 164.2 L 169.8 164.0 L 170.0 163.7 L 170.2 163.1 L 170.4 162.2 L 170.4 122.0 L 154.3 122.0 L 154.3 184.0 L 142.3 190.0 L 142.3 122.0 L 126.1 122.0 L 126.1 171.0 L 114.1 177.0 L 114.1 112.0 L 126.1 118.0 L 142.3 118.0 L 142.3 96.0 L 154.3 98.0 L 157.3 100.0 L 154.3 101.8 L 154.3 118.0 L 170.4 118.0 L 176.4 113.0 L 187.4 122.0 L 182.4 126.0 L 182.4 161.0 L 182.3 163.5 L 181.9 166.0 L 181.1 168.4 L 179.8 170.7 L 178.2 172.7 L 176.2 174.3 L 173.9 175.6 L 171.5 176.4 L 169.0 176.8 L 166.4 177.0 L 166.4 171.0 L 158.4 168.0 Z M 67.5 145.2 L 67.4 142.1 L 67.1 139.1 L 66.7 136.1 L 66.1 133.2 L 65.4 130.2 L 64.6 127.2 L 63.7 124.2 L 62.3 121.3 L 63.8 120.2 L 66.0 122.7 L 68.3 125.2 L 70.4 127.8 L 72.3 130.7 L 73.9 133.7 L 75.4 136.8 L 76.7 140.1 L 77.8 143.5 L 78.7 147.0 L 79.4 150.6 L 77.9 154.9 L 73.8 156.9 L 69.5 155.4 L 67.4 151.3 L 67.6 148.2 Z M 110.6 121.5 L 112.9 124.2 L 108.93967390060425 125.33152170181275 L 108.0 127.5 L 105.2 133.5 L 103.7 136.5 L 102.1 139.5 L 100.4 142.4 L 98.5 145.4 L 96.5 148.3 L 94.8 151.3 L 93.1 150.6 L 94.0 147.2 L 94.5 143.8 L 95.2 140.4 L 95.8 137.2 L 96.4 133.9 L 97.0 130.7 L 97.5 127.6 L 98.1 124.5 L 98.5 121.4 L 98.84551630020141 119.3269021987915 L 98.7 119.3 L 99.4 116.7 Z M 151.9 19.2 L 153.9 22.2 L 149.5473967552185 22.800359058380128 L 149.3 23.2 L 147.8 25.2 L 146.3 27.4 L 144.7 29.6 L 143.0 31.8 L 141.2 34.1 L 139.2 36.4 L 137.2 38.8 L 137.0615385055542 39.0 L 166.6 39.0 L 172.6 34.0 L 183.6 43.0 L 178.6 47.0 L 178.6 99.0 L 166.6 105.0 L 166.6 95.0 L 129.9 95.0 L 129.9 102.0 L 117.9 108.0 L 117.9 33.0 L 129.9 39.0 L 134.42068967819213 39.0 L 135.0 37.6 L 135.7 34.6 L 136.5 31.7 L 137.3 28.9 L 138.7 23.7 L 139.3 21.3 L 139.9 19.0 L 140.4 16.7 L 140.61537265777588 15.569293785095216 L 140.4 15.5 L 140.79344263076783 14.63442621231079 L 140.8 14.6 L 140.80764989852906 14.603170204162598 L 141.4 13.3 Z M 16.5 101.6 L 13.6 98.1 L 14.0 93.5 L 15.1 91.9 L 16.3 89.7 L 17.5 87.1 L 18.7 84.0 L 19.9 80.5 L 21.1 76.6 L 22.3 72.3 L 23.5 67.5 L 24.8 62.4 L 25.9 56.9 L 27.7 57.0 L 27.9 62.7 L 28.1 68.1 L 28.2 73.1 L 28.0 77.7 L 27.8 82.0 L 27.4 86.0 L 26.9 89.7 L 26.3 93.1 L 25.5 96.2 L 24.6 99.0 L 21.1 101.9 Z M 129.9 69.0 L 129.9 91.0 L 166.6 91.0 L 166.6 69.0 Z M 129.9 43.0 L 129.9 65.0 L 166.6 65.0 L 166.6 43.0 Z " />
</g>
</svg>
