<svg xmlns="http://www.w3.org/2000/svg" xmlns:xlink="http://www.w3.org/1999/xlink" version="1.1" baseProfile="full" viewBox="0 0 200 200" width="200" height="200">
<g fill="black">
<path d="M 43.5 16.0 L 46.5 18.0 L 43.5 19.8 L 43.5 183.0 L 31.5 189.0 L 31.5 14.0 Z M 155.37207202911378 18.75675678253174 L 156.1 56.7 L 156.98491678237914 70.37598695755005 L 165.3318392753601 69.44336986541748 L 174.2 58.4 L 187.2 67.0 L 187.7 70.9 L 157.2386408805847 74.29717760086059 L 158.3 90.7 L 161.6 117.6 L 162.72415351867676 123.36128664016724 L 163.5 121.2 L 167.3 108.4 L 170.54643297195435 95.5070234298706 L 170.5 95.5 L 171.2 92.8 L 182.4 97.3 L 184.9 100.0 L 181.31373271942138 101.08868827819825 L 178.3 111.6 L 173.6 124.8 L 168.5 136.9 L 166.4519681930542 140.95882663726806 L 170.1 153.2 L 174.5 163.4 L 178.5 169.7 L 178.84375 170.04375 L 183.7 149.0 L 185.7 149.0 L 183.7744680404663 174.0319149017334 L 187.9 175.8 L 189.7 180.0 L 187.9 184.2 L 183.7 186.0 L 179.3 185.1 L 174.3 182.4 L 169.1 177.2 L 163.9 169.0 L 158.8 157.2 L 158.28306684494018 155.4553505897522 L 156.9 157.7 L 150.4 166.4 L 143.4 173.9 L 136.0 180.2 L 128.0 185.2 L 119.7 188.8 L 118.9 187.1 L 125.9 182.0 L 132.5 176.1 L 138.6 169.4 L 144.4 161.8 L 149.7 153.2 L 154.7 143.6 L 154.74165868759155 143.5030982017517 L 154.0 141.0 L 149.8 119.4 L 146.4 91.8 L 145.32484006881714 75.62585430145263 L 133.9 76.9 L 133.5 73.0 L 145.06439723968506 71.70788860321045 L 144.1 57.2 L 143.31892747879027 15.998422718048095 L 143.3 16.0 L 143.3 12.6 L 155.3 15.0 L 158.3 17.0 Z M 58.5 152.5 L 74.5 152.5 L 74.5 133.9 L 85.5 135.9 L 88.2 137.9 L 85.5 139.62340421676635 L 85.5 152.5 L 95.5 152.5 L 95.5 127.8 L 106.5 129.8 L 109.2 131.8 L 106.5 133.52340421676635 L 106.5 152.5 L 119.5 152.5 L 129.5 142.5 L 141.5 152.5 L 141.5 156.5 L 106.5 156.5 L 106.5 182.8 L 95.5 188.3 L 95.5 156.5 L 58.5 156.5 Z M 68.5 130.7 L 68.5 69.5 L 80.5 75.5 L 119.5 75.5 L 125.5 70.5 L 136.5 79.5 L 131.5 83.5 L 131.5 130.7 L 119.5 136.7 L 119.5 124.7 L 80.5 124.7 Z M 80.5 103.1 L 80.5 120.7 L 94.5 120.7 L 94.5 103.1 Z M 106.5 103.1 L 106.5 120.7 L 119.5 120.7 L 119.5 103.1 Z M 13.5 101.5 L 10.7 97.9 L 11.3 93.4 L 12.5 91.7 L 13.8 89.6 L 15.1 87.0 L 16.3 83.9 L 17.6 80.5 L 18.9 76.6 L 20.1 72.2 L 21.4 67.5 L 22.8 62.4 L 24.0 56.9 L 25.8 57.0 L 25.9 62.7 L 26.1 68.1 L 26.1 73.1 L 25.8 77.8 L 25.5 82.1 L 25.0 86.2 L 24.4 89.9 L 23.6 93.3 L 22.7 96.4 L 21.6 99.3 L 18.0 102.1 Z M 80.5 79.5 L 80.5 99.1 L 94.5 99.1 L 94.5 79.5 Z M 106.5 79.5 L 106.5 99.1 L 119.5 99.1 L 119.5 79.5 Z M 53.5 78.0 L 52.9 75.3 L 52.3 72.5 L 51.5 69.6 L 50.6 66.7 L 49.5 63.7 L 48.4 60.6 L 47.1 57.4 L 45.5 54.3 L 46.9 53.2 L 49.3 55.8 L 51.9 58.3 L 54.3 60.9 L 56.4 63.5 L 58.4 66.2 L 60.2 69.0 L 61.8 71.9 L 63.3 74.8 L 64.6 77.7 L 65.8 80.7 L 64.9 85.2 L 61.2 87.9 L 56.7 87.0 L 54.1 83.3 L 53.8 80.7 Z M 124.60095691680908 54.906220054626466 L 122.9 55.7 L 119.9 57.0 L 117.0 58.1 L 114.2 59.2 L 108.8 61.2 L 105.7265887260437 62.18349161148071 L 103.7 66.3 L 101.3 63.6 L 100.0529239654541 59.4312029838562 L 99.7 61.7 L 96.1 64.5 L 91.6 63.8 L 88.8 60.2 L 88.5 57.5 L 88.1 54.9 L 88.08033123016358 54.78985509872437 L 86.0 55.7 L 82.9 57.0 L 79.9 58.2 L 76.9 59.3 L 74.1 60.3 L 71.3 61.2 L 68.6 62.0 L 67.90728569030762 62.21314287185669 L 65.8 66.3 L 63.5 63.6 L 60.0 51.9 L 62.0 51.7 L 64.5 51.8 L 68.81363639831542 51.8 L 69.0 47.7 L 69.8 39.1 L 70.3 34.8 L 70.7 30.6 L 71.2 26.3 L 71.7 22.1 L 72.2 17.8 L 72.57992162704468 14.60865821838379 L 72.5 14.6 L 73.0 11.7 L 84.5 15.9 L 87.0 18.4 L 83.38337469100952 19.715136432647704 L 83.3 20.0 L 82.1 24.2 L 80.8 28.3 L 79.6 32.5 L 75.4 44.8 L 73.8 48.8 L 72.48292684555054 51.8 L 75.6 51.8 L 78.6 51.7 L 87.5259259223938 51.7 L 87.1 49.4 L 86.5 46.6 L 85.8 43.8 L 85.1 40.9 L 84.3 38.0 L 83.5 35.0 L 82.3 32.1 L 83.9 31.2 L 85.8 33.7 L 87.9 36.1 L 89.9 38.5 L 91.7 41.1 L 93.4 43.7 L 95.0 46.3 L 96.5 49.0 L 97.9 51.7 L 97.98727912902832 51.88127212524414 L 99.8 51.7 L 102.2 51.8 L 105.32045450210572 51.8 L 105.6 47.7 L 105.9 43.4 L 106.3 39.1 L 106.8 34.8 L 107.3 30.6 L 107.8 26.3 L 108.3 22.1 L 108.7 17.8 L 109.07992162704468 14.60865821838379 L 109.0 14.6 L 109.19065418243409 13.67850465774536 L 109.2 13.6 L 109.20662918090821 13.601292133331299 L 109.6 11.7 L 121.0 15.9 L 123.6 18.4 L 119.87146406173706 19.755831241607666 L 119.8 20.0 L 118.6 24.2 L 117.4 28.3 L 116.1 32.5 L 114.8 36.6 L 113.4 40.7 L 111.9 44.8 L 110.3 48.8 L 109.05609760284423 51.8 L 115.8 51.8 L 118.8 51.7 L 124.11111106872559 51.7 L 123.6 49.4 L 123.0 46.6 L 122.3 43.8 L 121.6 40.9 L 120.8 38.0 L 120.1 35.0 L 118.9 32.1 L 120.4 31.2 L 122.3 33.7 L 124.5 36.1 L 126.4 38.5 L 128.3 41.1 L 130.0 43.7 L 131.6 46.3 L 133.1 49.0 L 134.5 51.7 L 135.8 54.4 L 136.9 57.2 L 136.2 61.7 L 132.6 64.5 L 128.1 63.8 L 125.3 60.2 L 125.0 57.5 Z M 169.7 41.8 L 168.9 39.2 L 168.1 36.7 L 167.1 34.2 L 166.0 31.8 L 164.8 29.4 L 162.0 24.4 L 160.1 22.3 L 161.3 20.9 L 163.7 22.6 L 166.4 24.1 L 168.8 25.9 L 171.2 27.9 L 173.3 30.1 L 175.4 32.4 L 177.3 34.9 L 179.1 37.5 L 180.7 40.3 L 182.2 43.2 L 181.8 47.8 L 178.4 50.8 L 173.8 50.4 L 170.8 47.0 L 170.3 44.3 Z " />
</g>
</svg>
