<svg xmlns="http://www.w3.org/2000/svg" xmlns:xlink="http://www.w3.org/1999/xlink" version="1.1" baseProfile="full" viewBox="0 0 200 200" width="200" height="200">
<g fill="black">
<path d="M 147.0 150.1 L 149.0 150.1 L 147.0 175.1 L 150.6 177.5 L 153.0 181.1 L 150.6 184.7 L 147.0 187.1 L 76.0 187.1 L 73.4 187.0 L 70.9 186.5 L 68.5 185.7 L 66.2 184.5 L 64.2 182.9 L 62.6 180.8 L 61.3 178.6 L 60.5 176.2 L 60.1 173.7 L 60.0 171.1 L 60.0 140.1 L 72.0 142.1 L 75.0 144.1 L 72.0 145.9 L 72.0 172.3 L 72.2 173.3 L 72.4 173.8 L 72.5 174.2 L 72.7 174.4 L 72.9 174.5 L 73.2 174.7 L 73.8 174.9 L 74.7 175.0 L 76.0 175.1 L 141.0 175.1 Z M 15.3 179.3 L 15.0 174.8 L 17.9 171.3 L 20.7 170.0 L 23.3 168.5 L 25.6 166.6 L 27.8 164.3 L 29.8 161.7 L 31.5 158.6 L 33.0 155.0 L 34.3 150.9 L 35.4 146.4 L 36.1 141.3 L 37.9 141.3 L 38.5 146.5 L 39.0 151.4 L 38.8 156.2 L 38.2 160.7 L 37.0 165.0 L 35.3 169.1 L 33.1 172.8 L 30.4 176.3 L 27.1 179.3 L 23.3 182.0 L 18.8 182.3 Z M 170.3 167.4 L 168.8 164.4 L 167.0 161.5 L 164.8 158.5 L 162.3 155.4 L 159.4 152.4 L 156.1 149.3 L 152.5 146.2 L 148.4 143.1 L 149.3 141.5 L 154.1 143.4 L 158.7 145.4 L 163.0 147.6 L 166.9 150.1 L 170.5 152.7 L 173.8 155.6 L 176.8 158.7 L 179.4 162.0 L 181.7 165.5 L 183.6 169.2 L 183.3 173.8 L 180.0 176.9 L 175.4 176.6 L 172.3 173.2 L 171.5 170.3 Z M 108.3 155.9 L 106.5 153.5 L 104.4 151.2 L 102.2 148.8 L 99.7 146.5 L 97.0 144.2 L 94.1 141.9 L 91.0 139.6 L 87.6 137.6 L 88.2 135.9 L 92.2 137.0 L 96.1 138.0 L 99.9 139.3 L 103.4 140.8 L 106.8 142.5 L 110.0 144.4 L 113.1 146.5 L 116.0 148.8 L 118.6 151.3 L 121.1 154.0 L 122.1 158.5 L 119.7 162.4 L 115.2 163.3 L 111.3 160.9 L 109.9 158.4 Z M 142.5 92.5 L 145.1 95.0 L 141.37142858505248 96.45 L 140.5 99.5 L 137.7 106.0 L 134.0 111.9 L 129.6 117.2 L 124.4 121.8 L 118.5 125.7 L 111.9 129.0 L 104.7 131.5 L 96.8 133.4 L 88.2 134.5 L 87.9 132.7 L 95.7 129.7 L 102.7 126.5 L 108.9 123.1 L 114.3 119.4 L 118.8 115.4 L 122.6 111.1 L 125.6 106.4 L 128.0 101.5 L 129.6 96.2 L 130.6 90.5 L 130.670374584198 90.51182765960694 L 131.0 88.6 Z M 37.3 125.9 L 25.3 131.9 L 25.3 91.31935482025146 L 24.5 92.3 L 21.2 96.1 L 17.7 99.7 L 14.1 103.1 L 12.6 102.0 L 14.7 97.5 L 16.8 93.1 L 19.0 88.8 L 21.2 84.4 L 23.4 80.1 L 25.3 76.20952377319335 L 25.3 76.2 L 25.304651165008544 76.2 L 25.5 75.8 L 29.5 67.0 L 31.4 62.6 L 32.903056907653806 59.04012832641602 L 32.8 59.0 L 33.25 58.1 L 32.7 58.1 L 20.7 64.1 L 20.7 33.0 L 32.7 39.0 L 47.9 39.0 L 52.9 34.0 L 62.9 43.0 L 57.9 46.0 L 57.9 58.1 L 47.9 63.1 L 47.9 58.1 L 35.5703125 58.1 L 44.1 63.4 L 45.9 66.5 L 42.155212211608884 66.82282657623291 L 41.6 67.8 L 38.9 72.0 L 37.58139533996582 74.1 L 63.5 74.1 L 64.0 72.3 L 64.6 70.6 L 65.1 68.9 L 65.7 67.3 L 66.2 65.6 L 66.8 64.0 L 67.3 62.5 L 67.68888893127442 61.25555553436279 L 64.0 63.1 L 64.0 34.0 L 70.6 37.3 L 70.6 26.2 L 51.3 26.2 L 51.3 33.0 L 39.3 39.0 L 39.3 26.2 L 12.2 26.2 L 12.2 22.2 L 39.3 22.2 L 39.3 10.8 L 51.3 12.8 L 54.3 14.8 L 51.3 16.6 L 51.3 22.2 L 70.6 22.2 L 70.6 10.8 L 82.6 12.8 L 85.6 14.8 L 82.6 16.6 L 82.6 22.2 L 95.4777777671814 22.2 L 101.7 15.2 L 109.7 22.2 L 109.7 26.2 L 82.6 26.2 L 82.6 33.0 L 72.3 38.15 L 74.0 39.0 L 89.2 39.0 L 95.2 34.0 L 106.2 43.0 L 101.2 47.0 L 101.2 58.1 L 89.2 64.1 L 89.2 58.1 L 74.0 58.1 L 70.41803274154663 59.89098358154297 L 78.2 66.1 L 79.6 69.4 L 74.53352937698364 69.13794116973877 L 72.8 70.5 L 71.3 71.5 L 69.9 72.5 L 68.3 73.6 L 67.46666669845581 74.1 L 88.1777777671814 74.1 L 94.4 67.1 L 102.4 74.1 L 102.4 78.1 L 69.8 78.1 L 69.8 89.0 L 84.77777776718139 89.0 L 91.0 82.0 L 99.0 89.0 L 99.0 93.0 L 69.8 93.0 L 69.8 103.9 L 84.77777776718139 103.9 L 91.0 96.9 L 99.0 103.9 L 99.0 107.9 L 69.8 107.9 L 69.8 118.9 L 89.81818180084228 118.9 L 98.0 109.9 L 108.0 118.9 L 108.0 122.9 L 37.3 122.9 Z M 182.9 94.3 L 184.9 94.3 L 182.9 119.3 L 186.5 121.7 L 188.9 125.3 L 186.5 128.9 L 182.9 131.3 L 162.4 131.3 L 159.8 131.1 L 157.3 130.7 L 154.9 129.9 L 152.7 128.7 L 150.7 127.0 L 149.0 125.0 L 147.8 122.7 L 147.0 120.3 L 146.5 117.8 L 146.4 115.3 L 146.4 88.6 L 127.5 88.6 L 127.5 100.6 L 115.5 106.6 L 115.5 13.9 L 127.5 19.9 L 164.9 19.9 L 170.9 14.9 L 181.9 23.9 L 176.9 27.9 L 176.9 94.6 L 164.9 100.6 L 164.9 88.6 L 158.4 88.6 L 158.4 115.3 L 158.5 116.5 L 158.6 117.4 L 158.8 118.0 L 159.0 118.3 L 159.1 118.5 L 159.3 118.7 L 159.7 118.9 L 160.3 119.0 L 161.2 119.2 L 162.4 119.3 L 176.9 119.3 Z M 37.3 107.9 L 37.3 118.9 L 57.8 118.9 L 57.8 107.9 Z M 37.3 93.0 L 37.3 103.9 L 57.8 103.9 L 57.8 93.0 Z M 37.3 78.1 L 37.3 89.0 L 57.8 89.0 L 57.8 78.1 Z M 127.5 66.1 L 127.5 84.6 L 164.9 84.6 L 164.9 66.1 Z M 127.5 45.0 L 127.5 62.1 L 164.9 62.1 L 164.9 45.0 Z M 74.0 43.0 L 74.0 54.1 L 89.2 54.1 L 89.2 43.0 Z M 32.7 43.0 L 32.7 54.1 L 47.9 54.1 L 47.9 43.0 Z M 127.5 23.9 L 127.5 41.0 L 164.9 41.0 L 164.9 23.9 Z " />
</g>
</svg>
