<svg xmlns="http://www.w3.org/2000/svg" xmlns:xlink="http://www.w3.org/1999/xlink" version="1.1" baseProfile="full" viewBox="0 0 200 200" width="200" height="200">
<g fill="black">
<path d="M 120.1 17.7 L 122.4 20.5 L 118.83645324707031 21.39088668823242 L 116.3 28.8 L 112.2 39.7 L 108.0 50.3 L 103.6 60.7 L 99.0 70.9 L 97.89230766296387 73.11538457870483 L 103.2 74.0 L 106.2 76.0 L 103.2 77.8 L 103.2 183.0 L 91.2 189.0 L 91.2 86.32600002288818 L 89.1 90.4 L 83.8 99.7 L 78.1 108.7 L 72.1 117.4 L 70.6 116.5 L 79.0 97.3 L 83.1 87.5 L 87.2 77.6 L 91.2 67.5 L 95.0 57.2 L 98.6 46.8 L 102.1 36.1 L 105.5 25.2 L 108.4110065460205 15.102445888519288 L 108.4 15.1 L 109.1 12.6 Z M 20.7 175.0 L 34.8 175.0 L 36.0 174.9 L 36.9 174.7 L 37.8 174.4 L 38.2 174.0 L 38.5 173.1 L 38.7 172.2 L 38.8 171.0 L 38.8 116.05789470672607 L 31.3 120.4 L 25.5 123.7 L 23.336071586608888 124.89389152526856 L 22.8 128.7 L 19.7 126.9 L 12.7 117.0 L 14.4 116.1 L 20.5 113.5 L 26.5 110.8 L 32.4 108.2 L 38.4 105.5 L 38.8 105.31694917678833 L 38.8 57.0 L 15.5 57.0 L 15.5 53.0 L 38.8 53.0 L 38.8 14.0 L 50.8 16.0 L 53.8 18.0 L 50.8 19.8 L 50.8 53.0 L 56.518181800842285 53.0 L 64.7 44.0 L 74.7 53.0 L 74.7 57.0 L 50.8 57.0 L 50.8 99.97118644714355 L 56.2 97.5 L 62.1 94.9 L 68.1 92.5 L 74.2 90.2 L 75.1 91.7 L 70.0 95.8 L 64.7 99.6 L 59.4 103.3 L 53.9 106.9 L 50.8 108.78214282989502 L 50.8 171.0 L 50.6 173.5 L 50.2 176.0 L 49.4 178.4 L 48.1 180.7 L 46.5 182.7 L 44.5 184.3 L 42.2 185.6 L 39.8 186.4 L 37.3 186.8 L 34.8 187.0 L 34.8 181.0 L 20.7 178.0 Z M 181.9 141.0 L 183.9 141.0 L 181.9 166.0 L 185.5 168.4 L 187.9 172.0 L 185.5 175.6 L 181.9 178.0 L 141.9 178.0 L 139.3 177.8 L 136.8 177.4 L 134.4 176.6 L 132.1 175.3 L 130.1 173.7 L 128.5 171.7 L 127.2 169.4 L 126.4 167.0 L 126.0 164.5 L 125.9 162.0 L 125.9 103.04358978271485 L 119.1 104.7 L 111.3 105.8 L 110.8 104.1 L 118.0 101.1 L 124.9 97.8 L 125.9 97.25588235855102 L 125.9 18.0 L 137.9 20.0 L 140.9 22.0 L 137.9 23.8 L 137.9 90.34242420196533 L 138.3 90.1 L 144.8 85.6 L 151.2 80.6 L 157.4 75.2 L 163.5 69.2 L 169.5 62.8 L 174.71605091094972 56.611464977264404 L 174.7 56.6 L 175.8 55.3 L 184.5 63.6 L 185.5 67.1 L 181.76617336273193 66.45623674392701 L 177.8 70.6 L 170.9 77.0 L 163.9 82.8 L 156.7 88.1 L 149.5 92.7 L 142.0 96.7 L 137.9 98.5586667060852 L 137.9 163.2 L 138.1 164.1 L 138.4 165.0 L 138.8 165.4 L 139.7 165.7 L 140.6 165.9 L 141.9 166.0 L 175.9 166.0 Z " />
</g>
</svg>
