<svg xmlns="http://www.w3.org/2000/svg" xmlns:xlink="http://www.w3.org/1999/xlink" version="1.1" baseProfile="full" viewBox="0 0 200 200" width="200" height="200">
<g fill="black">
<path d="M 37.3 27.0 L 37.3 27.48095235824585 L 43.9 26.8 L 56.7 25.6 L 69.8 24.4 L 83.1 23.1 L 96.6 21.7 L 110.4 20.3 L 124.4 18.7 L 138.7 17.0 L 153.2 15.1 L 167.00444297790528 13.221844482421876 L 167.0 13.2 L 167.02312660217285 13.219302463531495 L 167.9 13.1 L 168.0199068069458 14.051260852813721 L 179.7 23.8 L 180.1 26.8 L 175.49759998321534 24.289599990844728 L 169.4 25.0 L 154.4 26.4 L 139.8 27.6 L 125.4 28.7 L 111.2 29.5 L 97.2 30.2 L 83.6 30.7 L 70.1 30.9 L 56.9 30.9 L 44.0 30.6 L 37.3 30.177952766418457 L 37.3 46.0 L 159.6 46.0 L 165.6 41.0 L 176.6 50.0 L 171.6 54.0 L 171.6 77.0 L 159.6 83.0 L 159.6 77.0 L 37.3 77.0 L 37.3 108.0 L 36.8 119.8 L 35.8 130.7 L 34.3 140.9 L 32.4 150.3 L 30.1 158.8 L 27.2 166.5 L 23.9 173.3 L 20.0 179.1 L 15.6 183.9 L 10.7 187.6 L 9.5 186.3 L 12.6 181.5 L 15.4 176.3 L 17.9 170.5 L 20.1 163.9 L 21.9 156.6 L 23.3 148.5 L 24.4 139.6 L 25.1 129.9 L 25.4 119.3 L 25.3 108.0 L 25.3 21.0 Z M 64.0 181.2 L 52.0 187.2 L 52.0 124.8 L 63.03999996185303 130.31999998092653 L 65.8 129.4 L 69.6 128.2 L 73.4 127.1 L 77.1 126.0 L 80.7 125.0 L 84.2 123.9 L 87.7 122.9 L 91.0 122.0 L 93.32622947692872 121.29508199691773 L 93.3 121.2 L 93.39133644104004 121.27535257339477 L 94.3 121.0 L 94.52583875656128 122.2113169670105 L 104.8 130.6875 L 104.8 115.0 L 42.0 115.0 L 42.0 111.0 L 104.8 111.0 L 104.8 95.7 L 53.2 95.7 L 53.2 91.7 L 148.61818180084228 91.7 L 156.8 82.7 L 166.8 91.7 L 166.8 95.7 L 116.8 95.7 L 116.8 111.0 L 163.8181818008423 111.0 L 172.0 102.0 L 182.0 111.0 L 182.0 115.0 L 116.8 115.0 L 116.8 174.2 L 156.0 174.2 L 156.0 155.7 L 121.2 155.7 L 121.2 151.7 L 156.0 151.7 L 156.0 134.8 L 121.2 134.8 L 121.2 130.8 L 156.0 130.8 L 162.0 125.8 L 173.0 134.8 L 168.0 138.8 L 168.0 180.2 L 156.0 186.2 L 156.0 178.2 L 64.0 178.2 Z M 96.5 132.8 L 93.0 133.0 L 89.5 133.3 L 82.1 133.7 L 78.3 133.8 L 70.5 134.0 L 66.4 133.9 L 64.0 133.78292684555055 L 64.0 151.7 L 79.01818180084229 151.7 L 87.2 142.7 L 97.2 151.7 L 97.2 155.7 L 64.0 155.7 L 64.0 174.2 L 104.8 174.2 L 104.8 133.65 L 101.26065578460694 131.88032789230346 Z M 37.3 50.0 L 37.3 73.0 L 159.6 73.0 L 159.6 50.0 Z " />
</g>
</svg>
