<svg xmlns="http://www.w3.org/2000/svg" xmlns:xlink="http://www.w3.org/1999/xlink" version="1.1" baseProfile="full" viewBox="0 0 200 200" width="200" height="200">
<g fill="black">
<path d="M 74.74972553253174 181.65016469955444 L 73.85485715866089 168.6 L 34.581818199157716 168.6 L 26.4 177.6 L 16.4 168.6 L 16.4 164.6 L 73.04444446563721 164.6 L 70.4 153.4 L 65.4 141.8 L 59.1 132.6 L 58.97044715881348 132.4647315979004 L 56.8 134.1 L 50.4 140.1 L 44.8 146.5 L 40.0 153.3 L 39.5 154.1 L 30.0 146.6 L 28.6 143.3 L 32.51429824829101 143.49903211593627 L 36.0 139.2 L 43.0 132.3 L 50.6 126.2 L 52.00574989318848 125.29039716720581 L 45.0 120.3 L 37.9 116.6 L 31.4 114.2 L 27.591744327545165 113.36910781860351 L 22.0 137.6 L 20.0 137.6 L 21.925589847564698 112.56733207702636 L 17.9 110.8 L 16.0 106.6 L 17.9 102.4 L 22.0 100.6 L 22.0 111.6 L 22.09166669845581 111.6 L 22.0 100.6 L 27.6 101.1 L 34.6 102.7 L 42.6 105.5 L 51.4 110.0 L 60.1 116.4 L 62.544608211517335 118.90281314849854 L 68.3 115.9 L 78.3 111.7 L 89.0 108.2 L 100.4 105.3 L 112.6 103.2 L 125.6 101.9 L 125.8 103.7 L 113.4 107.0 L 101.8 110.5 L 91.1 114.4 L 81.2 118.7 L 72.2 123.4 L 68.86425771713257 125.541464138031 L 75.9 136.0 L 81.8 149.7 L 85.36503067016602 164.6 L 183.6 164.6 L 183.6 168.6 L 85.87512950897217 168.6 L 86.93301849365234 184.30558176040648 L 87.0 184.3 L 87.0 187.7 L 75.0 185.3 L 72.0 183.3 Z M 37.0 172.3 L 41.1 170.4 L 45.5 171.9 L 46.1 173.0 L 47.1 174.2 L 48.4 175.5 L 49.8 176.8 L 51.5 178.1 L 53.4 179.5 L 55.5 180.9 L 57.8 182.3 L 60.3 183.8 L 63.1 184.7 L 62.8 186.5 L 59.6 186.0 L 56.6 185.9 L 53.9 185.7 L 51.0 185.3 L 48.5 184.9 L 46.0 184.3 L 43.8 183.6 L 41.5 182.8 L 39.5 181.9 L 37.5 180.8 L 35.5 176.7 Z M 107.6 159.7 L 96.6 150.7 L 101.6 146.7 L 101.6 131.0 L 113.6 125.0 L 113.6 131.0 L 151.0 131.0 L 163.0 125.0 L 163.0 160.7 L 151.0 154.7 L 113.6 154.7 Z M 113.6 135.0 L 113.6 150.7 L 151.0 150.7 L 151.0 135.0 Z M 162.7 119.4 L 154.0 120.0 L 145.2 120.5 L 136.1 121.1 L 126.9 121.7 L 117.4 122.2 L 107.8 122.8 L 97.9 123.2 L 87.8 123.4 L 87.6 121.6 L 97.4 119.4 L 107.1 117.4 L 116.7 115.7 L 126.0 114.1 L 135.2 112.7 L 144.2 111.3 L 153.0 110.0 L 161.6 108.8 L 170.1 107.6 L 174.22187118530275 107.04706602096557 L 176.0 103.7 L 178.3 106.5 L 181.4 118.3 L 179.4 118.5 L 171.1 118.9 Z M 125.24229545593262 18.554622745513917 L 126.14696130752563 32.2 L 165.4181818008423 32.2 L 173.6 23.2 L 183.6 32.2 L 183.6 36.2 L 126.93020133972168 36.2 L 129.6 47.9 L 134.6 59.9 L 140.8 69.4 L 140.96098804473877 69.57018737792968 L 143.1 67.9 L 149.5 61.7 L 155.1 55.1 L 159.9 48.1 L 160.4 47.3 L 170.0 54.6 L 171.4 58.0 L 167.46762742996216 57.796601390838624 L 163.9 62.3 L 157.1 69.4 L 149.4 75.7 L 147.79176950454712 76.7912992477417 L 147.8 76.8 L 155.0 82.2 L 162.1 86.0 L 168.7 88.5 L 172.31463413238527 89.30325202941894 L 177.9 65.1 L 179.9 65.1 L 177.974600315094 90.13019542694092 L 182.1 91.8 L 183.9 96.1 L 182.1 100.3 L 177.9 102.1 L 172.3 101.6 L 165.3 100.0 L 157.2 97.0 L 148.6 92.4 L 139.8 85.8 L 137.4490502357483 83.30911273956299 L 131.7 86.4 L 121.8 90.7 L 111.1 94.4 L 99.6 97.3 L 87.4 99.5 L 74.4 100.9 L 74.2 99.1 L 86.6 95.8 L 98.2 92.2 L 108.9 88.2 L 118.8 83.8 L 127.7 78.9 L 131.2070056915283 76.60529251098633 L 124.0 65.6 L 118.2 51.6 L 114.64615383148194 36.2 L 16.4 36.2 L 16.4 32.2 L 114.13585863113403 32.2 L 113.06529932022094 15.894558429718018 L 113.0 15.9 L 113.0 12.5 L 125.0 14.9 L 128.0 16.9 Z M 20.6 84.0 L 28.8 83.6 L 37.3 83.0 L 46.0 82.5 L 54.8 81.9 L 63.9 81.3 L 73.1 80.7 L 82.6 80.1 L 92.2 79.5 L 102.1 79.1 L 112.2 78.8 L 112.4 80.6 L 102.6 82.9 L 92.9 84.8 L 83.3 86.6 L 74.0 88.2 L 64.8 89.7 L 55.8 91.1 L 47.0 92.5 L 38.4 93.7 L 30.0 94.9 L 25.774362087249756 95.46002426147462 L 24.0 98.8 L 21.7 96.0 L 18.6 84.2 Z M 49.0 46.5 L 86.4 46.5 L 92.4 41.5 L 103.4 50.5 L 98.4 54.5 L 98.4 70.8 L 86.4 76.8 L 86.4 70.8 L 49.0 70.8 L 37.0 76.8 L 37.0 40.5 Z M 49.0 50.5 L 49.0 66.8 L 86.4 66.8 L 86.4 50.5 Z M 152.8 26.2 L 151.6 24.9 L 150.2 23.6 L 148.5 22.2 L 146.6 20.8 L 144.5 19.4 L 142.2 18.0 L 139.7 16.5 L 136.8 15.5 L 137.2 13.7 L 140.3 14.3 L 143.3 14.4 L 146.2 14.6 L 148.9 15.0 L 151.5 15.5 L 153.9 16.1 L 156.3 16.9 L 158.5 17.7 L 160.6 18.7 L 162.6 19.8 L 164.5 24.0 L 163.0 28.3 L 158.8 30.2 L 154.5 28.6 L 153.8 27.4 Z " />
</g>
</svg>
