<svg xmlns="http://www.w3.org/2000/svg" xmlns:xlink="http://www.w3.org/1999/xlink" version="1.1" baseProfile="full" viewBox="0 0 200 200" width="200" height="200">
<g fill="black">
<path d="M 158.5 180.5 L 154.9 177.4 L 151.1 174.4 L 147.0 171.5 L 142.7 168.6 L 138.1 165.8 L 133.3 163.0 L 128.3 160.1 L 123.1 157.1 L 123.7 155.4 L 129.7 156.5 L 135.4 158.0 L 140.9 159.9 L 146.2 161.9 L 151.2 164.2 L 156.0 166.6 L 160.7 169.2 L 165.1 172.0 L 169.2 175.0 L 173.2 178.2 L 175.0 182.4 L 173.4 186.6 L 169.2 188.5 L 164.9 186.9 L 161.8 183.7 Z M 93.67975463867188 159.41472396850585 L 95.8 161.8 L 95.9 165.4 L 92.34013938903809 163.88376302719115 L 90.3 165.1 L 84.8 168.2 L 79.0 171.1 L 72.9 173.9 L 66.6 176.7 L 59.9 179.3 L 53.0 181.7 L 45.7 184.0 L 38.1 186.1 L 30.2 187.9 L 29.6 186.2 L 36.8 182.5 L 43.7 179.0 L 50.4 175.7 L 56.8 172.3 L 62.9 169.0 L 68.6 165.7 L 74.1 162.3 L 79.3 159.0 L 84.1 155.6 L 87.80227880477905 152.80272274017335 L 87.8 152.8 L 87.80236339569092 152.8026587486267 L 88.6 152.2 Z M 39.0 27.0 L 39.0 27.46560001373291 L 45.4 26.8 L 58.1 25.6 L 71.1 24.4 L 84.2 23.1 L 97.6 21.7 L 111.3 20.3 L 125.2 18.7 L 139.3 17.0 L 153.6 15.1 L 167.2076150894165 13.235943126678468 L 167.2 13.2 L 167.23832330703735 13.23173656463623 L 168.2 13.1 L 168.33062601089478 14.13629970550537 L 180.0 23.8 L 180.4 26.8 L 175.79759998321532 24.289599990844728 L 169.7 25.0 L 154.9 26.4 L 140.4 27.6 L 126.1 28.7 L 112.1 29.5 L 98.3 30.2 L 84.7 30.7 L 71.4 30.9 L 58.3 30.9 L 45.5 30.6 L 39.0 30.18400001525879 L 39.0 46.0 L 160.0 46.0 L 166.0 41.0 L 177.0 50.0 L 172.0 54.0 L 172.0 81.0 L 160.0 87.0 L 160.0 77.0 L 39.0 77.0 L 39.0 108.0 L 38.4 119.8 L 37.5 130.7 L 36.0 140.9 L 34.2 150.3 L 31.8 158.8 L 29.0 166.5 L 25.6 173.3 L 21.8 179.1 L 17.4 183.9 L 12.6 187.6 L 11.3 186.3 L 14.5 181.5 L 17.2 176.3 L 19.7 170.5 L 21.8 163.9 L 23.6 156.6 L 25.0 148.5 L 26.1 139.6 L 26.8 129.9 L 27.1 119.3 L 27.0 108.0 L 27.0 21.0 Z M 40.2 147.2 L 79.2 147.2 L 79.2 113.4 L 45.3 113.4 L 45.3 109.4 L 79.2 109.4 L 79.2 81.7 L 91.2 83.7 L 94.2 85.7 L 91.2 87.5 L 91.2 109.4 L 129.3 109.4 L 129.3 81.7 L 141.3 83.7 L 144.3 85.7 L 141.3 87.5 L 141.3 109.4 L 153.1 109.4 L 163.1 99.4 L 175.1 109.4 L 175.1 113.4 L 141.3 113.4 L 141.3 147.2 L 158.2 147.2 L 168.2 137.2 L 180.2 147.2 L 180.2 151.2 L 40.2 151.2 Z M 91.2 113.4 L 91.2 147.2 L 129.3 147.2 L 129.3 113.4 Z M 39.0 50.0 L 39.0 73.0 L 160.0 73.0 L 160.0 50.0 Z " />
</g>
</svg>
