<svg xmlns="http://www.w3.org/2000/svg" xmlns:xlink="http://www.w3.org/1999/xlink" version="1.1" baseProfile="full" viewBox="0 0 200 200" width="200" height="200">
<g fill="black">
<path d="M 89.8 182.1 L 84.8 178.8 L 80.2 174.8 L 76.1 170.2 L 72.6 165.1 L 69.5 159.3 L 66.9 152.9 L 64.9 146.0 L 64.3726577758789 143.17495222091674 L 62.7 148.1 L 58.2 157.6 L 52.8 166.0 L 46.5 173.2 L 39.4 179.2 L 31.6 183.8 L 23.0 187.0 L 13.8 188.9 L 13.4 187.1 L 21.6 183.5 L 28.9 179.2 L 35.3 174.0 L 40.9 168.1 L 45.7 161.2 L 49.9 153.4 L 53.3 144.6 L 54.76020412445068 139.3 L 18.6 139.3 L 18.6 135.3 L 55.86224489212036 135.3 L 56.0 134.8 L 57.9 123.8 L 59.169767475128175 112.07906980514527 L 59.4 109.7 L 71.1 112.9 L 73.9 115.2 L 70.48401556015014 116.8423002243042 L 69.1 125.7 L 66.82203388214111 135.3 L 88.2 135.3 L 98.2 125.3 L 110.2 135.3 L 110.2 139.3 L 66.0 139.3 L 68.8 144.5 L 72.2 150.4 L 75.7 155.6 L 79.3 160.2 L 83.0 164.0 L 86.9 167.1 L 90.8 169.6 L 94.9 171.5 L 99.2 172.8 L 103.6 173.6 L 113.0 175.3 L 101.2 186.5 L 95.3 184.7 Z M 140.71422843933107 18.731462955474854 L 141.8 54.2 L 143.44766321182252 71.42073802947998 L 166.80250272750854 67.58239526748658 L 175.1 56.1 L 188.6 64.0 L 189.2 67.9 L 143.82432327270507 75.35744371414185 L 144.9 86.6 L 149.5 112.8 L 151.75725059509278 121.06314945220947 L 154.0 114.7 L 158.0 101.6 L 161.4377820968628 88.40634994506836 L 161.4 88.4 L 162.1 85.7 L 173.3 90.4 L 175.7 93.1 L 172.15404233932495 94.17645139694214 L 168.9 104.9 L 164.1 118.3 L 158.9 130.8 L 156.25024042129516 136.19415340423583 L 161.3 148.9 L 167.6 160.0 L 173.5 167.4 L 178.2175866127014 171.45712451934816 L 183.4 149.0 L 185.4 149.0 L 183.47446804046632 174.0319149017334 L 187.6 175.8 L 189.4 180.0 L 187.6 184.2 L 183.4 186.0 L 177.9 184.8 L 171.8 181.6 L 164.9 175.7 L 157.7 166.7 L 150.5 154.0 L 148.82318048477174 149.8326103210449 L 147.2 152.6 L 140.7 161.9 L 133.7 170.2 L 126.3 177.3 L 118.5 183.1 L 110.3 187.7 L 109.3 186.2 L 116.1 180.2 L 122.6 173.4 L 128.7 165.9 L 134.5 157.6 L 139.9 148.3 L 144.50262298583985 139.09475412368775 L 143.7 137.1 L 137.7 115.4 L 133.0 88.2 L 131.95336198806763 77.3084234237671 L 110.1 80.9 L 109.5 77.0 L 131.57508544921876 73.37198343276978 L 129.8 54.9 L 128.6300000190735 15.997500038146972 L 128.6 16.0 L 128.6 12.6 L 140.6 15.0 L 143.6 17.0 Z M 42.4 59.6 L 86.4 59.6 L 92.4 54.6 L 103.4 63.6 L 98.4 67.6 L 98.4 113.4 L 86.4 119.4 L 86.4 109.4 L 42.4 109.4 L 42.4 116.4 L 30.4 122.4 L 30.4 53.6 Z M 42.4 85.5 L 42.4 105.4 L 86.4 105.4 L 86.4 85.5 Z M 42.4 63.6 L 42.4 81.5 L 86.4 81.5 L 86.4 63.6 Z M 85.1 13.9 L 88.1 15.9 L 85.1 17.7 L 85.1 32.8 L 89.3 32.8 L 99.3 22.8 L 111.3 32.8 L 111.3 36.8 L 85.1 36.8 L 85.1 49.7 L 73.1 55.7 L 73.1 36.8 L 56.2 36.8 L 56.2 50.7 L 44.2 56.7 L 44.2 36.8 L 21.4 36.8 L 21.4 32.8 L 44.2 32.8 L 44.2 11.9 L 56.2 13.9 L 59.2 15.9 L 56.2 17.7 L 56.2 32.8 L 73.1 32.8 L 73.1 11.9 Z M 165.4 42.6 L 164.0 40.0 L 162.5 37.4 L 160.7 34.9 L 158.8 32.3 L 156.6 29.8 L 154.3 27.2 L 151.8 24.6 L 148.9 22.2 L 149.7 20.7 L 153.3 22.2 L 156.8 23.7 L 160.1 25.4 L 163.3 27.3 L 166.2 29.4 L 169.0 31.7 L 171.6 34.2 L 174.0 36.8 L 176.3 39.6 L 178.3 42.6 L 178.5 47.2 L 175.5 50.6 L 170.9 50.9 L 167.5 47.9 L 166.5 45.2 Z " />
</g>
</svg>
