<svg xmlns="http://www.w3.org/2000/svg" xmlns:xlink="http://www.w3.org/1999/xlink" version="1.1" baseProfile="full" viewBox="0 0 200 200" width="200" height="200">
<g fill="black">
<path d="M 21.7 176.0 L 37.0 176.0 L 37.9 175.8 L 38.8 175.5 L 39.2 175.1 L 39.5 174.2 L 39.7 173.3 L 39.8 172.0 L 39.8 117.45789470672608 L 32.3 121.8 L 26.5 125.1 L 24.336071586608888 126.29389152526855 L 23.8 130.1 L 20.7 128.3 L 13.7 118.4 L 15.5 117.5 L 27.5 112.3 L 33.5 109.6 L 39.4 107.0 L 39.8 106.81999998092651 L 39.8 58.7 L 16.5 58.7 L 16.5 54.7 L 39.8 54.7 L 39.8 15.9 L 51.8 17.9 L 54.8 19.9 L 51.8 21.7 L 51.8 54.7 L 57.518181800842285 54.7 L 65.7 45.7 L 75.7 54.7 L 75.7 58.7 L 51.8 58.7 L 51.8 101.47118644714355 L 57.2 99.0 L 63.1 96.5 L 69.1 94.0 L 72.70559043884278 92.64051504135132 L 74.4 88.6 L 78.2 79.1 L 81.8 69.5 L 85.3 59.6 L 88.7 49.6 L 92.0 39.4 L 95.1 29.1 L 97.75082750320435 19.410768508911133 L 97.7 19.4 L 98.5 16.9 L 109.5 21.9 L 111.8 24.7 L 108.24742269515991 25.588144302368164 L 105.9 32.5 L 102.1 42.9 L 98.1 53.1 L 94.0 63.0 L 89.6 72.7 L 88.59024391174316 74.83170728683471 L 93.8 75.7 L 96.8 77.7 L 93.8 79.5 L 93.8 179.6 L 81.8 185.6 L 81.8 88.525 L 80.3 91.4 L 75.3 100.3 L 70.0 108.9 L 64.4 117.1 L 62.8 116.3 L 66.7 107.1 L 70.5 97.9 L 70.64075708389282 97.56434860229493 L 65.7 101.2 L 60.4 104.8 L 54.9 108.3 L 51.8 110.2375 L 51.8 172.0 L 51.6 174.6 L 51.2 177.1 L 50.4 179.5 L 49.1 181.8 L 47.5 183.8 L 45.5 185.4 L 43.2 186.7 L 40.8 187.5 L 38.3 187.9 L 35.8 188.0 L 35.8 182.0 L 21.7 179.0 Z M 146.1 173.5 L 163.3 173.5 L 164.2 173.3 L 164.8 173.1 L 165.4 172.8 L 165.5 172.6 L 165.7 172.3 L 165.9 171.7 L 166.0 170.8 L 166.1 169.5 L 166.1 40.9 L 104.7 40.9 L 104.7 36.9 L 165.7 36.9 L 175.7 26.9 L 187.7 36.9 L 187.7 40.9 L 178.1 40.9 L 178.1 169.5 L 178.0 172.1 L 177.5 174.6 L 176.7 177.0 L 175.5 179.2 L 173.8 181.3 L 171.8 182.9 L 169.6 184.1 L 167.2 184.9 L 164.7 185.4 L 162.1 185.5 L 162.1 179.5 L 146.1 176.5 Z M 120.6 70.8 L 139.8 70.8 L 145.8 65.8 L 156.8 74.8 L 151.8 78.8 L 151.8 137.1 L 139.8 143.1 L 139.8 131.1 L 120.6 131.1 L 120.6 143.1 L 108.6 149.1 L 108.6 64.8 Z M 120.6 74.8 L 120.6 127.1 L 139.8 127.1 L 139.8 74.8 Z " />
</g>
</svg>
