<svg xmlns="http://www.w3.org/2000/svg" xmlns:xlink="http://www.w3.org/1999/xlink" version="1.1" baseProfile="full" viewBox="0 0 200 200" width="200" height="200">
<g fill="black">
<path d="M 98.5 175.5 L 118.5 175.5 L 119.7 175.4 L 120.6 175.3 L 121.2 175.1 L 121.5 174.9 L 121.7 174.8 L 121.9 174.6 L 122.0 174.2 L 122.2 173.6 L 122.4 172.7 L 122.5 171.5 L 122.5 156.9 L 70.6 156.9 L 70.6 152.9 L 122.5 152.9 L 122.5 138.4 L 80.6 138.4 L 80.6 134.4 L 122.5 134.4 L 122.5 120.63888893127441 L 114.2 121.1 L 104.5 121.6 L 93.9 121.9 L 82.6 121.9 L 82.5 120.1 L 93.6 118.1 L 103.9 116.3 L 113.5 114.6 L 122.3 113.0 L 130.3 111.5 L 137.5 110.0 L 143.9 108.5 L 149.6 107.1 L 154.4 105.7 L 157.41726846694945 104.64395608901978 L 157.4 104.6 L 157.44214563369752 104.63524904251099 L 158.4 104.3 L 158.8463348388672 105.80966186523438 L 168.4 113.8 L 168.7 116.9 L 164.50239181518555 114.98109340667725 L 161.8 115.8 L 157.1 116.7 L 151.8 117.6 L 145.7 118.4 L 139.0 119.2 L 134.5 119.61999998092651 L 134.5 134.4 L 154.3 134.4 L 164.3 124.4 L 176.3 134.4 L 176.3 138.4 L 134.5 138.4 L 134.5 152.9 L 164.3 152.9 L 174.3 142.9 L 186.3 152.9 L 186.3 156.9 L 134.5 156.9 L 134.5 171.5 L 134.3 174.1 L 133.9 176.6 L 133.1 179.0 L 131.8 181.2 L 130.2 183.2 L 128.2 184.9 L 125.9 186.1 L 123.5 186.9 L 121.0 187.4 L 118.5 187.5 L 118.5 181.5 L 98.5 178.5 Z M 21.0 175.0 L 35.0 175.0 L 36.2 174.9 L 37.1 174.7 L 38.0 174.4 L 38.4 174.0 L 38.7 173.1 L 38.9 172.2 L 39.0 171.0 L 39.0 115.90517244338989 L 36.9 117.1 L 31.0 120.5 L 22.691028213500978 124.93145160675049 L 22.1 128.8 L 19.0 126.9 L 12.1 117.0 L 13.9 116.1 L 20.1 113.5 L 26.2 110.8 L 32.4 108.2 L 39.0 105.27868852615356 L 39.0 57.0 L 14.9 57.0 L 14.9 53.0 L 39.0 53.0 L 39.0 14.0 L 51.0 16.0 L 54.0 18.0 L 51.0 19.8 L 51.0 53.0 L 53.8 53.0 L 63.8 43.0 L 75.8 53.0 L 75.8 55.93478260040283 L 79.0 53.5 L 83.1 50.0 L 86.9 46.6 L 90.3 43.3 L 93.3 39.9 L 95.9 36.5 L 98.1 33.1 L 99.9 29.8 L 100.92542753219604 27.30967597961426 L 100.9 27.3 L 101.0666666984558 26.96666669845581 L 101.3 26.4 L 101.34037036895752 26.41925926208496 L 101.9 25.3 L 112.2 31.6 L 114.0 34.7 L 110.04965829849243 35.04054670333862 L 109.7 35.6 L 106.8 39.4 L 103.5 43.0 L 99.9 46.4 L 95.9 49.6 L 91.5 52.6 L 86.8 55.4 L 81.7 58.0 L 76.2 60.2 L 70.3 62.2 L 69.5 60.6 L 74.4 57.0 L 51.0 57.0 L 51.0 100.0672131538391 L 56.8 97.5 L 62.9 94.9 L 69.1 92.5 L 75.3 90.2 L 76.2 91.7 L 70.9 95.8 L 65.5 99.7 L 59.9 103.3 L 54.2 106.9 L 51.0 108.86491231918335 L 51.0 171.0 L 50.8 173.5 L 50.4 176.0 L 49.6 178.4 L 48.3 180.7 L 46.7 182.7 L 44.7 184.3 L 42.4 185.6 L 40.0 186.4 L 37.5 186.8 L 35.0 187.0 L 35.0 181.0 L 21.0 178.0 Z M 157.1 96.0 L 155.4 97.8 L 153.5 99.3 L 151.5 100.7 L 149.3 101.8 L 147.0 102.6 L 144.7 103.2 L 142.2 103.5 L 139.7 103.7 L 139.7 97.7 L 119.7 94.7 L 119.7 91.7 L 139.7 91.7 L 141.1 91.6 L 142.4 91.4 L 143.5 91.1 L 144.5 90.8 L 145.5 90.3 L 146.3 89.7 L 147.1 89.0 L 147.9 88.2 L 148.7 87.2 L 149.5 86.0 L 149.8 85.3 L 150.2 84.0 L 150.6 82.2 L 151.0 80.0 L 151.3 77.3 L 151.6 74.1 L 151.7 70.6 L 151.78034553527831 67.46652269363403 L 151.7 67.5 L 151.7 59.5 L 124.85675678253173 59.5 L 124.1 65.1 L 121.9 72.1 L 118.7 78.4 L 114.4 84.0 L 109.3 88.9 L 103.3 93.0 L 96.4 96.4 L 88.9 99.0 L 80.5 100.9 L 71.4 102.0 L 71.1 100.2 L 79.5 97.2 L 87.0 94.0 L 93.5 90.5 L 99.0 86.7 L 103.6 82.6 L 107.2 78.2 L 109.9 73.5 L 111.8 68.5 L 112.9 63.1 L 113.0241379737854 59.5 L 91.2 59.5 L 91.2 55.5 L 151.7 55.5 L 157.7 50.5 L 168.7 59.5 L 163.8 62.439999961853026 L 163.8 66.8 L 163.7 71.0 L 163.5 74.9 L 163.3 78.4 L 162.9 81.6 L 162.4 84.6 L 161.8 87.2 L 161.0 89.7 L 159.9 91.9 L 158.6 94.1 Z M 169.5 56.9 L 165.0 53.7 L 160.9 50.2 L 157.2 46.5 L 154.0 42.6 L 151.3 38.5 L 149.1 34.1 L 147.5 29.6 L 146.75319147109985 25.7 L 111.2 25.7 L 111.2 21.7 L 134.21818180084227 21.7 L 142.4 12.7 L 152.4 21.7 L 152.4 25.7 L 149.3800000190735 25.7 L 151.0 27.8 L 153.9 31.1 L 156.8 34.2 L 160.0 37.1 L 163.4 39.7 L 167.1 42.2 L 171.0 44.5 L 175.3 46.6 L 179.9 48.6 L 184.8 50.4 L 191.3 53.0 L 179.8 62.6 L 174.5 59.9 Z " />
</g>
</svg>
