<svg xmlns="http://www.w3.org/2000/svg" xmlns:xlink="http://www.w3.org/1999/xlink" version="1.1" baseProfile="full" viewBox="0 0 200 200" width="200" height="200">
<g fill="black">
<path d="M 179.1 105.7 L 181.3 108.5 L 177.68471908569336 109.40382022857666 L 174.4 118.0 L 169.0 129.5 L 162.9 140.1 L 156.1 149.8 L 148.5 158.7 L 140.4 166.7 L 131.5 173.7 L 122.0 179.8 L 111.8 184.8 L 101.0 188.8 L 100.3 187.1 L 110.0 181.5 L 119.1 175.3 L 127.4 168.6 L 135.1 161.2 L 142.1 153.2 L 148.5 144.4 L 154.2 135.0 L 159.3 124.8 L 163.8 113.8 L 167.3071601867676 103.00163831710816 L 167.3 103.0 L 168.1 100.5 Z M 99.2 146.8 L 96.9 142.8 L 95.24777469635009 140.22252855300903 L 90.1 152.3 L 84.2 163.4 L 77.8 173.1 L 70.6 181.6 L 62.8 188.6 L 61.5 187.3 L 67.7 179.2 L 73.3 170.2 L 78.4 160.3 L 83.1 149.3 L 87.2 137.3 L 88.76393871307373 131.76281175613403 L 85.6 128.5 L 82.2 125.3 L 80.34407348632813 123.7450345993042 L 79.1 132.8 L 66.4 137.1 L 76.5209755897522 63.0 L 65.9 63.0 L 65.9 59.0 L 77.0673171043396 59.0 L 83.2 14.1 L 94.9 17.8 L 97.6 20.1 L 94.43638181686401 21.174436378479005 L 89.23947830200196 59.0 L 99.9 59.0 L 105.9 54.0 L 116.9 63.0 L 111.9 66.0 L 111.33918724060058 66.23367195129394 L 109.8 79.5 L 107.1 96.3 L 103.8 112.1 L 99.8 126.7 L 98.60935955047607 130.24546270370485 L 101.6 133.0 L 105.1 137.0 L 108.3 141.3 L 111.3 145.9 L 114.0 150.8 L 114.0 155.4 L 110.9 158.7 L 106.3 158.7 L 103.0 155.6 L 101.2 151.1 Z M 19.0 175.0 L 31.0 175.0 L 32.2 174.9 L 33.1 174.7 L 34.0 174.4 L 34.4 174.0 L 34.7 173.1 L 34.9 172.2 L 35.0 171.0 L 35.0 116.79183673858643 L 34.7 117.0 L 29.7 120.3 L 23.026034450531007 124.4875862121582 L 22.7 128.4 L 19.5 126.7 L 12.0 117.2 L 13.7 116.2 L 19.0 113.6 L 24.3 110.9 L 29.6 108.3 L 35.0 105.5490566253662 L 35.0 57.0 L 15.2 57.0 L 15.2 53.0 L 35.0 53.0 L 35.0 14.0 L 47.0 16.0 L 50.0 18.0 L 47.0 19.8 L 47.0 53.0 L 49.21818180084229 53.0 L 57.4 44.0 L 67.4 53.0 L 67.4 57.0 L 47.0 57.0 L 47.0 99.48490562438965 L 50.7 97.6 L 56.0 95.0 L 61.4 92.5 L 66.9 90.2 L 67.8 91.7 L 63.4 95.7 L 58.9 99.6 L 54.2 103.2 L 49.4 106.8 L 47.0 108.5 L 47.0 171.0 L 46.8 173.5 L 46.4 176.0 L 45.6 178.4 L 44.3 180.7 L 42.7 182.7 L 40.7 184.3 L 38.4 185.6 L 36.0 186.4 L 33.5 186.8 L 31.0 187.0 L 31.0 181.0 L 19.0 178.0 Z M 118.3 119.0 L 138.3 119.0 L 139.5 118.9 L 140.4 118.7 L 141.0 118.5 L 141.4 118.4 L 141.6 118.2 L 141.7 118.0 L 141.9 117.7 L 142.1 117.1 L 142.2 116.2 L 142.3 115.0 L 142.3 14.0 L 154.3 16.0 L 157.3 18.0 L 154.3 19.8 L 154.3 115.0 L 154.2 117.5 L 153.7 120.0 L 152.9 122.4 L 151.7 124.7 L 150.0 126.7 L 148.0 128.3 L 145.8 129.6 L 143.4 130.4 L 140.9 130.8 L 138.3 131.0 L 138.3 125.0 L 118.3 122.0 Z M 88.6899130821228 63.0 L 80.95937738418579 119.26655683517455 L 85.0 120.9 L 89.5 123.4 L 90.87336931228637 124.29428701400757 L 90.9 124.2 L 93.9 110.0 L 96.5 94.6 L 98.5 78.1 L 99.78693180084228 63.0 Z M 135.6 56.8 L 138.3 59.2 L 134.76791315078736 60.70440731048584 L 134.3 62.9 L 132.7 68.9 L 131.0 74.9 L 129.0 80.6 L 126.7 86.3 L 124.2 91.9 L 121.5 97.3 L 118.5 102.5 L 115.1 107.6 L 111.4 112.4 L 109.8 111.5 L 111.8 105.8 L 113.6 100.2 L 115.5 94.7 L 117.1 89.2 L 118.7 83.6 L 120.1 78.0 L 121.3 72.3 L 122.3 66.6 L 123.1 60.9 L 123.69064998626709 56.00604333877563 L 123.6 56.0 L 124.1 53.1 Z M 174.8 83.9 L 173.4 80.0 L 171.9 76.1 L 170.3 72.3 L 168.5 68.5 L 166.5 64.7 L 164.4 60.9 L 162.2 57.1 L 159.9 53.3 L 161.2 52.1 L 164.8 54.9 L 168.3 57.8 L 171.5 61.1 L 174.5 64.5 L 177.3 68.1 L 179.9 71.8 L 182.3 75.7 L 184.6 79.8 L 186.6 83.9 L 188.5 88.3 L 188.0 92.8 L 184.6 95.8 L 180.0 95.4 L 177.0 91.9 L 176.0 87.9 Z " />
</g>
</svg>
