<svg xmlns="http://www.w3.org/2000/svg" xmlns:xlink="http://www.w3.org/1999/xlink" version="1.1" baseProfile="full" viewBox="0 0 200 200" width="200" height="200">
<g fill="black">
<path d="M 185.8 70.4 L 185.8 74.4 L 137.57910451889038 74.4 L 143.4 78.3 L 145.1 81.5 L 141.31836977005005 81.69228630065918 L 138.0 87.1 L 132.2 95.5 L 131.16702699661255 96.84450454711914 L 134.5 97.4 L 137.5 99.4 L 134.5 101.2 L 134.5 181.8 L 122.5 187.8 L 122.5 107.66666669845581 L 119.3 111.4 L 112.2 118.8 L 104.7 125.9 L 96.8 132.6 L 88.4 138.9 L 79.5 144.7 L 70.2 150.0 L 69.2 148.5 L 77.3 141.7 L 85.0 134.7 L 92.4 127.7 L 99.4 120.5 L 106.0 113.1 L 112.2 105.5 L 117.9 97.6 L 123.3 89.5 L 128.3 81.2 L 131.8581395149231 74.4 L 71.1 74.4 L 71.1 70.4 L 163.8 70.4 L 173.8 60.4 Z M 21.5 175.0 L 35.5 175.0 L 36.7 174.9 L 37.6 174.7 L 38.5 174.4 L 38.9 174.0 L 39.2 173.1 L 39.4 172.2 L 39.5 171.0 L 39.5 115.75081968307495 L 36.9 117.2 L 30.8 120.5 L 24.6 123.8 L 22.08938274383545 125.09580249786377 L 21.5 128.9 L 18.4 127.0 L 11.6 116.9 L 13.4 116.1 L 19.8 113.4 L 26.2 110.8 L 32.6 108.1 L 38.9 105.5 L 39.5 105.24285717010498 L 39.5 57.0 L 14.3 57.0 L 14.3 53.0 L 39.5 53.0 L 39.5 14.0 L 51.5 16.0 L 54.5 18.0 L 51.5 19.8 L 51.5 53.0 L 59.21818180084229 53.0 L 67.4 44.0 L 77.4 53.0 L 77.4 57.0 L 51.5 57.0 L 51.5 100.1 L 64.1 94.9 L 70.5 92.5 L 76.9 90.2 L 77.8 91.7 L 72.3 95.8 L 66.6 99.7 L 55.0 106.9 L 51.5 108.9416666984558 L 51.5 171.0 L 51.3 173.5 L 50.9 176.0 L 50.1 178.4 L 48.8 180.7 L 47.2 182.7 L 45.2 184.3 L 42.9 185.6 L 40.5 186.4 L 38.0 186.8 L 35.5 187.0 L 35.5 181.0 L 21.5 178.0 Z M 170.6 140.2 L 167.0 136.0 L 163.3 131.9 L 159.4 127.9 L 155.3 124.1 L 151.1 120.3 L 146.8 116.6 L 142.3 113.0 L 137.7 109.2 L 138.5 107.6 L 144.2 109.7 L 149.7 112.1 L 154.9 115.0 L 160.0 118.1 L 164.9 121.5 L 169.6 125.1 L 174.1 128.9 L 178.5 133.0 L 182.7 137.3 L 186.7 141.8 L 187.9 146.2 L 185.6 150.2 L 181.2 151.3 L 177.2 149.1 L 174.0 144.6 Z M 153.4 14.2 L 156.4 16.2 L 153.4 18.0 L 153.4 35.8 L 165.2 35.8 L 175.2 25.8 L 187.2 35.8 L 187.2 39.8 L 153.4 39.8 L 153.4 58.4 L 141.4 64.4 L 141.4 39.8 L 115.6 39.8 L 115.6 58.4 L 103.6 64.4 L 103.6 39.8 L 69.7 39.8 L 69.7 35.8 L 103.6 35.8 L 103.6 12.2 L 115.6 14.2 L 118.6 16.2 L 115.6 18.0 L 115.6 35.8 L 141.4 35.8 L 141.4 12.2 Z " />
</g>
</svg>
