<svg xmlns="http://www.w3.org/2000/svg" xmlns:xlink="http://www.w3.org/1999/xlink" version="1.1" baseProfile="full" viewBox="0 0 200 200" width="200" height="200">
<g fill="black">
<path d="M 95.7 15.0 L 98.7 17.0 L 95.7 18.8 L 95.7 182.0 L 83.7 188.0 L 83.7 13.0 Z M 18.5 175.0 L 32.5 175.0 L 33.7 174.9 L 34.6 174.7 L 35.5 174.4 L 35.9 174.0 L 36.2 173.1 L 36.4 172.2 L 36.5 171.0 L 36.5 116.49230766296387 L 30.5 120.3 L 25.2 123.6 L 23.475139236450197 124.64142541885376 L 23.1 128.5 L 19.9 126.8 L 12.5 117.1 L 14.3 116.2 L 19.8 113.6 L 30.8 108.2 L 36.3 105.6 L 36.5 105.50181818008423 L 36.5 57.0 L 15.6 57.0 L 15.6 53.0 L 36.5 53.0 L 36.5 14.0 L 48.5 16.0 L 51.5 18.0 L 48.5 19.8 L 48.5 53.0 L 51.81818180084228 53.0 L 60.0 44.0 L 70.0 53.0 L 70.0 57.0 L 48.5 57.0 L 48.5 99.6222222328186 L 52.7 97.6 L 58.2 95.0 L 63.8 92.5 L 67.00027933120728 91.2086591720581 L 67.2 90.9 L 68.4 88.8 L 69.6 86.1 L 70.8 83.1 L 71.9 79.5 L 73.1 75.6 L 74.2 71.3 L 75.4 66.5 L 76.7 61.4 L 77.8 55.9 L 79.6 56.0 L 79.9 61.7 L 80.1 67.1 L 80.2 72.0 L 80.1 76.7 L 79.8 81.0 L 79.5 85.0 L 79.0 88.7 L 78.4 92.0 L 77.7 95.1 L 76.8 98.0 L 73.3 100.9 L 68.8 100.6 L 65.8 97.1 L 65.89214172363282 95.71787366867065 L 65.8 95.8 L 61.0 99.6 L 56.1 103.2 L 51.1 106.8 L 48.5 108.58431367874145 L 48.5 171.0 L 48.3 173.5 L 47.9 176.0 L 47.1 178.4 L 45.8 180.7 L 44.2 182.7 L 42.2 184.3 L 39.9 185.6 L 37.5 186.4 L 35.0 186.8 L 32.5 187.0 L 32.5 181.0 L 18.5 178.0 Z M 149.2 108.7 L 151.8 111.3 L 148.225 112.53500003814698 L 147.7 114.6 L 146.1 120.6 L 144.4 126.5 L 140.6 138.5 L 138.5 144.5 L 136.3 150.6 L 134.0 156.6 L 131.46022233963012 162.46102533340454 L 134.4 162.1 L 140.3 161.3 L 146.6 160.3 L 153.1 159.3 L 160.0 158.2 L 167.2 157.1 L 169.94398622512819 156.69754867553712 L 168.9 152.8 L 167.2 147.3 L 165.5 141.9 L 163.7 136.6 L 161.9 131.4 L 158.3 121.2 L 159.8 120.3 L 163.4 124.5 L 166.7 129.0 L 169.7 133.8 L 172.5 138.9 L 175.1 144.1 L 177.6 149.6 L 180.0 155.3 L 182.2 161.2 L 184.2 167.2 L 186.2 173.4 L 185.4 178.0 L 181.8 180.7 L 177.3 180.0 L 174.5 176.3 L 173.3 170.2 L 171.9 164.3 L 170.71938667297363 159.65625410079957 L 168.2 160.7 L 161.4 163.4 L 154.7 165.7 L 148.3 167.7 L 142.1 169.6 L 136.2 171.2 L 130.5 172.7 L 125.0 174.0 L 119.8 175.1 L 118.92676544189453 175.25718221664428 L 117.1 178.8 L 114.8 176.0 L 111.4 164.4 L 113.4 164.1 L 118.2 163.8 L 123.3 163.4 L 127.5015625 162.9331597328186 L 127.7 161.5 L 128.8 155.1 L 131.2 142.5 L 132.4 136.4 L 134.6 124.2 L 135.6 118.2 L 136.6 112.3 L 137.36160631179808 107.30724782943726 L 137.3 107.3 L 137.83571424484253 104.8 L 107.5 104.8 L 107.5 100.8 L 141.8 100.8 L 141.8 55.4 L 115.0 55.4 L 115.0 51.4 L 141.8 51.4 L 141.8 16.3 L 153.8 18.3 L 156.8 20.3 L 153.8 22.1 L 153.8 51.4 L 158.6 51.4 L 168.6 41.4 L 180.6 51.4 L 180.6 55.4 L 153.8 55.4 L 153.8 100.8 L 166.1 100.8 L 176.1 90.8 L 188.1 100.8 L 188.1 104.8 L 138.70714282989502 104.8 Z M 102.5 74.1 L 102.0 71.3 L 100.6 65.5 L 99.8 62.5 L 98.9 59.5 L 97.9 56.3 L 96.5 53.3 L 98.0 52.3 L 100.2 54.9 L 102.5 57.4 L 104.6 60.0 L 106.6 62.7 L 108.4 65.4 L 110.0 68.2 L 111.5 71.1 L 112.8 74.0 L 114.0 76.9 L 115.1 79.9 L 114.1 84.3 L 110.3 86.9 L 105.8 85.9 L 103.3 82.1 L 103.1 79.5 Z " />
</g>
</svg>
