<svg xmlns="http://www.w3.org/2000/svg" xmlns:xlink="http://www.w3.org/1999/xlink" version="1.1" baseProfile="full" viewBox="0 0 200 200" width="200" height="200">
<g fill="black">
<path d="M 134.0 123.0 L 137.0 125.0 L 134.0 126.8 L 134.0 147.0 L 165.8 147.0 L 175.8 137.0 L 187.8 147.0 L 187.8 151.0 L 134.0 151.0 L 134.0 183.0 L 122.0 189.0 L 122.0 151.0 L 68.1 151.0 L 68.1 147.0 L 122.0 147.0 L 122.0 121.0 Z M 22.5 175.9 L 36.5 175.9 L 37.7 175.8 L 38.6 175.6 L 39.5 175.3 L 39.9 174.9 L 40.2 174.0 L 40.4 173.1 L 40.5 171.9 L 40.5 116.29344263076783 L 37.9 117.7 L 31.8 121.1 L 25.7 124.3 L 23.08519048690796 125.6696620941162 L 22.5 129.5 L 19.4 127.6 L 12.6 117.5 L 14.4 116.7 L 20.8 114.0 L 27.2 111.4 L 33.6 108.7 L 40.5 105.74285717010498 L 40.5 57.2 L 15.3 57.2 L 15.3 53.2 L 40.5 53.2 L 40.5 14.0 L 52.5 16.0 L 55.5 18.0 L 52.5 19.8 L 52.5 53.2 L 56.4 53.2 L 66.4 43.2 L 78.4 53.2 L 78.4 57.2 L 52.5 57.2 L 52.5 100.7 L 58.8 98.0 L 65.1 95.4 L 71.5 92.9 L 77.9 90.6 L 78.8 92.2 L 73.3 96.3 L 67.6 100.2 L 56.0 107.4 L 52.5 109.4416666984558 L 52.5 171.9 L 52.3 174.4 L 51.9 176.9 L 51.1 179.3 L 49.8 181.6 L 48.2 183.6 L 46.2 185.2 L 43.9 186.5 L 41.5 187.3 L 39.0 187.7 L 36.5 187.9 L 36.5 181.9 L 22.5 178.9 Z M 135.3 18.2 L 137.2 21.2 L 132.94761905670165 21.796825408935547 L 132.4 22.6 L 130.9 24.9 L 129.3 27.2 L 127.6 29.6 L 125.8 32.0 L 123.9 34.5 L 121.9 37.0 L 119.7 39.6 L 119.42857141494751 40.0 L 159.2 40.0 L 165.2 35.0 L 176.2 44.0 L 171.2 48.0 L 171.2 73.0 L 159.2 79.0 L 159.2 71.0 L 95.3 71.0 L 95.3 88.0 L 165.0 88.0 L 171.0 83.0 L 182.0 92.0 L 177.0 96.0 L 177.0 125.0 L 165.0 131.0 L 165.0 121.0 L 95.3 121.0 L 95.3 133.0 L 83.3 139.0 L 83.3 34.0 L 95.3 40.0 L 116.78064517974853 40.0 L 117.4 38.4 L 118.3 35.2 L 119.1 32.1 L 120.0 29.1 L 121.6 23.5 L 123.0 18.3 L 123.7 15.9 L 123.99881353378296 14.465694904327393 L 123.8 14.4 L 124.1777777671814 13.606666660308838 L 124.2 13.5 L 124.22377719879151 13.51006784439087 L 124.8 12.3 Z M 95.3 92.0 L 95.3 117.0 L 165.0 117.0 L 165.0 92.0 Z M 95.3 44.0 L 95.3 67.0 L 159.2 67.0 L 159.2 44.0 Z " />
</g>
</svg>
