<svg xmlns="http://www.w3.org/2000/svg" xmlns:xlink="http://www.w3.org/1999/xlink" version="1.1" baseProfile="full" viewBox="0 0 200 200" width="200" height="200">
<g fill="black">
<path d="M 182.6 181.8 L 182.6 185.8 L 74.7 185.8 L 74.7 181.8 L 160.6 181.8 L 170.6 171.8 Z M 141.0 158.1 L 155.9 158.1 L 156.6 157.9 L 157.0 157.8 L 157.2 157.7 L 157.4 157.5 L 157.5 157.3 L 157.8 156.8 L 158.0 156.0 L 158.1 155.0 L 158.2 153.6 L 158.2 79.6 L 98.4 79.6 L 98.4 163.2 L 87.4 168.7 L 87.4 70.1 L 98.4 75.6 L 158.2 75.6 L 163.7 70.6 L 174.2 79.6 L 169.2 83.1 L 169.2 153.6 L 169.1 156.1 L 168.7 158.4 L 168.1 160.7 L 167.1 162.8 L 165.7 164.7 L 163.9 166.4 L 161.8 167.7 L 159.6 168.5 L 157.3 169.0 L 155.0 169.1 L 155.0 163.6 L 141.0 160.9 Z M 149.1 149.7 L 146.9 153.0 L 143.6 155.2 L 123.0 155.2 L 120.5 155.0 L 118.1 154.6 L 115.7 153.8 L 113.5 152.7 L 111.6 151.1 L 110.0 149.1 L 108.8 146.9 L 108.1 144.6 L 107.6 142.2 L 107.5 139.7 L 107.5 89.5 L 118.5 95.0 L 138.1 95.0 L 143.6 90.0 L 154.1 99.0 L 149.1 102.5 L 149.1 129.3 L 138.1 134.8 L 138.1 125.3 L 118.5 125.3 L 118.5 139.7 L 118.6 141.0 L 118.7 141.9 L 119.0 142.6 L 119.2 143.0 L 119.4 143.3 L 119.7 143.5 L 120.1 143.7 L 120.7 143.9 L 121.7 144.1 L 123.0 144.2 L 143.6 144.2 L 146.9 146.4 Z M 118.5 99.0 L 118.5 121.3 L 138.1 121.3 L 138.1 99.0 Z M 71.0 62.9 L 69.8 58.5 L 70.625 57.0 L 47.8 57.0 L 47.8 99.97118644714355 L 53.2 97.5 L 59.1 94.9 L 65.1 92.5 L 71.2 90.2 L 72.1 91.7 L 67.0 95.8 L 61.7 99.6 L 56.4 103.3 L 50.9 106.9 L 47.8 108.78214282989502 L 47.8 171.0 L 47.6 173.5 L 47.2 176.0 L 46.4 178.4 L 45.1 180.7 L 43.5 182.7 L 41.5 184.3 L 39.2 185.6 L 36.8 186.4 L 34.3 186.8 L 31.8 187.0 L 31.8 181.0 L 19.7 178.0 L 19.7 175.0 L 31.8 175.0 L 33.0 174.9 L 33.9 174.7 L 34.8 174.4 L 35.2 174.0 L 35.5 173.1 L 35.7 172.2 L 35.8 171.0 L 35.8 116.05789470672607 L 28.3 120.4 L 22.5 123.7 L 20.336071586608888 124.89389152526856 L 19.8 128.7 L 16.7 126.9 L 9.7 117.0 L 11.4 116.1 L 17.5 113.5 L 23.5 110.8 L 29.4 108.2 L 35.4 105.5 L 35.8 105.31694917678833 L 35.8 57.0 L 12.5 57.0 L 12.5 53.0 L 35.8 53.0 L 35.8 14.0 L 47.8 16.0 L 50.8 18.0 L 47.8 19.8 L 47.8 53.0 L 53.518181800842285 53.0 L 61.7 44.0 L 71.7 53.0 L 71.7 55.04545450210571 L 72.0 54.5 L 73.0 54.1 L 74.2 53.2 L 75.4 51.8 L 76.7 49.9 L 77.9 47.5 L 79.0 44.6 L 80.0 41.3 L 80.9 37.5 L 81.8 33.2 L 82.2 28.6 L 84.0 28.6 L 84.5 33.3 L 84.84090909957885 35.8 L 122.0 35.8 L 122.0 12.6 L 134.0 14.6 L 137.0 16.6 L 134.0 18.4 L 134.0 35.8 L 171.4 35.8 L 171.87560977935792 35.40365858078003 L 171.9 35.3 L 171.9640422821045 35.32996473312378 L 177.4 30.8 L 188.4 39.8 L 183.4 42.8 L 179.4936170578003 44.427659606933595 L 178.6 45.5 L 177.0 47.4 L 175.3 49.3 L 173.5 51.3 L 171.5 53.4 L 169.4 55.5 L 167.65480089187622 57.1693208694458 L 168.8 58.2 L 168.8 62.2 L 87.4 62.2 L 87.4 58.2 L 150.61818180084228 58.2 L 158.8 49.2 L 165.49230766296387 55.22307691574097 L 166.1 53.4 L 167.1 50.6 L 168.1 48.0 L 169.0 45.5 L 169.8 43.2 L 170.4 41.0 L 170.74285717010497 39.8 L 85.30487804412842 39.8 L 85.5 41.8 L 85.5 45.7 L 85.3 49.3 L 84.8 52.7 L 84.1 55.8 L 83.0 58.8 L 81.4 61.5 L 79.4 63.9 L 75.0 65.1 Z " />
</g>
</svg>
