<svg xmlns="http://www.w3.org/2000/svg" xmlns:xlink="http://www.w3.org/1999/xlink" version="1.1" baseProfile="full" viewBox="0 0 200 200" width="200" height="200">
<g fill="black">
<path d="M 82.2 133.0 L 101.7 133.0 L 107.7 128.0 L 118.7 137.0 L 113.7 141.0 L 113.7 179.0 L 101.7 185.0 L 101.7 175.0 L 82.2 175.0 L 82.2 182.0 L 70.2 188.0 L 70.2 127.0 Z M 128.7 175.0 L 148.7 175.0 L 150.0 174.9 L 150.9 174.7 L 151.8 174.4 L 152.0 174.2 L 152.1 174.0 L 152.3 173.7 L 152.5 173.1 L 152.7 172.2 L 152.7 40.0 L 118.2 40.0 L 118.2 36.0 L 166.0 36.0 L 176.0 26.0 L 188.0 36.0 L 188.0 40.0 L 164.7 40.0 L 164.7 171.0 L 164.6 173.5 L 164.1 176.0 L 163.3 178.4 L 162.1 180.7 L 160.5 182.7 L 158.4 184.3 L 156.2 185.6 L 153.8 186.4 L 151.3 186.8 L 148.7 187.0 L 148.7 181.0 L 128.7 178.0 Z M 18.4 175.0 L 30.4 175.0 L 31.6 174.9 L 32.5 174.7 L 33.4 174.4 L 33.8 174.0 L 34.1 173.1 L 34.3 172.2 L 34.4 171.0 L 34.4 116.83125 L 34.3 116.9 L 29.4 120.2 L 24.4 123.5 L 22.865116310119628 124.48232555389404 L 22.6 128.3 L 19.4 126.7 L 11.7 117.2 L 13.5 116.2 L 23.9 111.0 L 29.2 108.3 L 34.3 105.6 L 34.4 105.55 L 34.4 57.0 L 15.0 57.0 L 15.0 53.0 L 34.4 53.0 L 34.4 14.0 L 46.4 16.0 L 49.4 18.0 L 46.4 19.8 L 46.4 53.0 L 52.077777767181395 53.0 L 58.3 46.0 L 66.3 53.0 L 66.3 57.0 L 46.4 57.0 L 46.4 99.41730766296386 L 49.9 97.6 L 55.1 95.0 L 60.4 92.5 L 65.8 90.2 L 66.8 91.7 L 62.5 95.7 L 58.0 99.5 L 53.4 103.2 L 46.4 108.41276597976685 L 46.4 171.0 L 46.2 173.5 L 45.8 176.0 L 45.0 178.4 L 43.7 180.7 L 42.1 182.7 L 40.1 184.3 L 37.8 185.6 L 35.4 186.4 L 32.9 186.8 L 30.4 187.0 L 30.4 181.0 L 18.4 178.0 Z M 82.2 137.0 L 82.2 171.0 L 101.7 171.0 L 101.7 137.0 Z M 111.9 108.0 L 111.9 112.0 L 72.0 112.0 L 72.0 108.0 L 93.71818180084229 108.0 L 101.9 99.0 Z M 111.9 82.0 L 111.9 86.0 L 72.0 86.0 L 72.0 82.0 L 93.71818180084229 82.0 L 101.9 73.0 Z M 118.2 54.0 L 118.2 58.0 L 69.2 58.0 L 69.2 54.0 L 100.01818180084229 54.0 L 108.2 45.0 Z M 111.9 28.0 L 111.9 32.0 L 72.0 32.0 L 72.0 28.0 L 93.71818180084229 28.0 L 101.9 19.0 Z " />
</g>
</svg>
