<svg xmlns="http://www.w3.org/2000/svg" xmlns:xlink="http://www.w3.org/1999/xlink" version="1.1" baseProfile="full" viewBox="0 0 200 200" width="200" height="200">
<g fill="black">
<path d="M 159.6 181.5 L 152.1 178.3 L 145.7 174.0 L 140.4 168.8 L 136.2 162.8 L 133.0 156.2 L 130.8 149.0 L 130.74761905670167 148.68571424484253 L 130.7 148.9 L 128.4 157.2 L 125.8 164.9 L 122.8 171.9 L 119.4 178.3 L 115.7 183.8 L 111.5 188.5 L 110.1 187.4 L 112.4 181.9 L 114.6 176.0 L 116.7 169.6 L 118.5 162.7 L 120.2 155.2 L 121.6 147.1 L 122.8 138.4 L 123.7 129.1 L 124.4 119.1 L 124.85244283676147 109.59869976043701 L 124.8 109.6 L 125.0 106.4 L 136.9 109.3 L 139.7 111.5 L 136.50356941223146 113.19222793579101 L 135.8 120.1 L 134.4 130.4 L 132.92515354156495 138.6417890548706 L 133.5 140.3 L 136.4 147.0 L 139.5 153.0 L 143.1 158.1 L 145.1 160.14878044128417 L 145.1 82.0 L 125.6 82.0 L 125.6 78.0 L 170.5 78.0 L 176.5 73.0 L 187.5 82.0 L 182.5 85.0 L 180.20588235855104 85.95588235855102 L 179.2 87.8 L 177.9 90.0 L 176.5 92.3 L 175.0 94.6 L 173.3 97.0 L 171.5 99.4 L 169.5 101.7 L 167.8 104.4 L 166.2 103.5 L 167.3 100.6 L 168.0 97.7 L 168.6 94.8 L 169.1 92.1 L 169.6 89.6 L 170.0 87.1 L 170.3 84.8 L 170.5 82.7 L 170.5 82.0 L 157.1 82.0 L 157.1 124.0 L 168.6777777671814 124.0 L 174.9 117.0 L 182.9 124.0 L 182.9 128.0 L 157.1 128.0 L 157.1 168.46101694107057 L 162.8 170.2 L 169.7 171.2 L 177.6 171.4 L 189.5 171.4 L 177.6 184.6 L 168.1 183.6 Z M 105.7 176.5 L 104.4 178.7 L 102.8 180.6 L 100.9 182.3 L 98.8 183.7 L 96.6 184.7 L 94.2 185.4 L 91.7 185.8 L 89.1 186.0 L 89.1 180.0 L 77.1 177.0 L 77.1 174.0 L 89.1 174.0 L 90.4 173.9 L 91.5 173.7 L 92.4 173.5 L 93.0 173.1 L 93.6 172.8 L 94.1 172.3 L 94.6 171.7 L 95.1 171.0 L 95.5 170.0 L 95.9 168.7 L 96.7 165.1 L 97.4 160.3 L 98.1 154.4 L 98.6 147.6 L 99.1 139.8 L 99.4 131.0 L 99.6 121.2 L 99.7 110.4 L 99.6 98.7 L 99.57848262786865 95.96729888916016 L 99.5 96.0 L 99.5 88.0 L 89.95467624664306 88.0 L 89.7 93.9 L 88.4 107.1 L 86.6 119.7 L 84.1 131.6 L 81.0 142.8 L 77.2 153.3 L 72.8 163.1 L 67.7 172.1 L 61.8 180.3 L 55.3 187.5 L 53.9 186.4 L 58.7 178.2 L 62.9 169.5 L 66.7 160.4 L 70.0 150.8 L 72.8 140.6 L 75.0 129.7 L 76.7 118.2 L 77.8 106.1 L 78.3 93.4 L 78.3 53.0 L 90.3 55.0 L 93.3 57.0 L 90.3 58.8 L 90.3 80.0 L 90.12733812332154 84.0 L 99.5 84.0 L 105.5 79.0 L 116.5 88.0 L 111.53996868133545 90.97601881027222 L 111.6 98.6 L 111.7 110.5 L 111.6 121.3 L 111.4 131.3 L 111.1 140.3 L 110.6 148.4 L 110.0 155.6 L 109.3 161.8 L 108.5 167.2 L 107.5 171.8 L 106.7 174.3 Z M 18.4 175.0 L 30.4 175.0 L 31.6 174.9 L 32.5 174.7 L 33.4 174.4 L 33.8 174.0 L 34.1 173.1 L 34.3 172.2 L 34.4 171.0 L 34.4 116.83125 L 34.3 116.9 L 29.4 120.2 L 24.4 123.5 L 22.865116310119628 124.48232555389404 L 22.6 128.3 L 19.4 126.7 L 11.7 117.2 L 13.5 116.2 L 23.9 111.0 L 29.2 108.3 L 34.3 105.6 L 34.4 105.55 L 34.4 57.0 L 15.0 57.0 L 15.0 53.0 L 34.4 53.0 L 34.4 14.0 L 46.4 16.0 L 49.4 18.0 L 46.4 19.8 L 46.4 53.0 L 52.077777767181395 53.0 L 58.3 46.0 L 65.2 52.0375 L 65.2 49.0 L 83.6 49.0 L 83.6 16.0 L 95.6 18.0 L 98.6 20.0 L 95.6 21.8 L 95.6 49.0 L 100.01818180084229 49.0 L 108.2 40.0 L 118.2 49.0 L 118.2 53.0 L 66.3 53.0 L 66.3 57.0 L 46.4 57.0 L 46.4 99.41730766296386 L 49.9 97.6 L 55.1 95.0 L 60.4 92.5 L 65.8 90.2 L 66.8 91.7 L 62.5 95.7 L 58.0 99.5 L 53.4 103.2 L 46.4 108.41276597976685 L 46.4 171.0 L 46.2 173.5 L 45.8 176.0 L 45.0 178.4 L 43.7 180.7 L 42.1 182.7 L 40.1 184.3 L 37.8 185.6 L 35.4 186.4 L 32.9 186.8 L 30.4 187.0 L 30.4 181.0 L 18.4 178.0 Z M 145.1 18.2 L 147.6 20.8 L 143.99988002777098 22.0214693069458 L 143.2 24.8 L 141.2 31.3 L 139.1 37.5 L 136.8 43.7 L 134.9779661178589 48.0 L 165.1 48.0 L 175.1 38.0 L 187.1 48.0 L 187.1 52.0 L 133.2241379737854 52.0 L 131.7 55.4 L 128.9 61.0 L 125.9 66.4 L 122.6 71.5 L 119.0 76.4 L 117.4 75.5 L 119.2 69.8 L 121.0 64.2 L 122.9 58.4 L 124.6 52.7 L 126.3 46.8 L 128.0 40.8 L 129.5 34.7 L 130.9 28.5 L 132.2 22.1 L 133.13009023666382 16.60401201248169 L 133.1 16.6 L 133.24634141921996 15.917073154449463 L 133.3 15.6 L 133.31364164352416 15.60300579071045 L 133.7 13.8 Z " />
</g>
</svg>
