<svg xmlns="http://www.w3.org/2000/svg" xmlns:xlink="http://www.w3.org/1999/xlink" version="1.1" baseProfile="full" viewBox="0 0 200 200" width="200" height="200">
<g fill="black">
<path d="M 161.7 180.7 L 154.4 176.0 L 147.8 170.7 L 141.8 164.9 L 136.6 158.5 L 132.0 151.6 L 128.2 144.1 L 125.2 136.2 L 123.38823528289795 128.5 L 102.2 128.5 L 102.2 169.59375 L 102.7 169.5 L 109.3 168.3 L 116.0 167.1 L 122.9 165.9 L 130.0 164.8 L 137.2 163.8 L 137.7 165.6 L 131.0 168.4 L 124.3 171.1 L 117.7 173.4 L 111.2 175.7 L 104.8 177.8 L 98.6 179.7 L 92.5 181.6 L 86.5 183.5 L 80.6 185.2 L 78.9065824508667 185.67534532546998 L 77.5 189.3 L 74.9 186.8 L 70.3 175.6 L 72.2 175.1 L 78.0 174.1 L 84.0 173.0 L 90.1 171.9 L 90.2 171.88064517974854 L 90.2 72.7 L 102.2 78.7 L 121.6 78.7 L 121.6 57.2 L 133.6 59.2 L 136.6 61.2 L 133.6 63.0 L 133.6 78.7 L 156.4 78.7 L 162.4 73.7 L 173.4 82.7 L 168.4 86.7 L 168.4 130.5 L 156.4 136.5 L 156.4 128.5 L 125.67567567825317 128.5 L 129.0 134.5 L 133.4 141.3 L 138.0 147.5 L 143.0 153.1 L 148.3 158.2 L 150.48068857192993 159.8632369995117 L 152.7 157.9 L 155.1 155.4 L 157.7 152.9 L 160.2 150.4 L 162.8 148.0 L 165.5 145.5 L 168.1 143.0 L 175.48471269607543 135.88879518508912 L 175.4 135.8 L 176.3 135.1 L 183.7 144.5 L 184.1 148.1 L 180.30909090042115 146.72148761749267 L 177.2 148.7 L 173.9 150.7 L 170.7 152.6 L 167.4 154.4 L 164.2 156.1 L 157.6 159.1 L 154.3 160.4 L 152.2671953201294 161.22582693099974 L 154.2 162.7 L 160.4 166.7 L 167.1 170.2 L 174.4 173.2 L 182.1 175.7 L 189.7 178.1 L 178.1 188.2 L 169.6 184.8 Z M 21.6 175.0 L 35.6 175.0 L 36.8 174.9 L 37.7 174.7 L 38.6 174.4 L 39.0 174.0 L 39.3 173.1 L 39.5 172.2 L 39.6 171.0 L 39.6 115.87457628250122 L 37.3 117.2 L 31.3 120.5 L 25.3 123.7 L 22.83011751174927 125.03616600036621 L 22.3 128.8 L 19.2 127.0 L 12.3 116.9 L 14.1 116.1 L 20.4 113.5 L 26.6 110.8 L 32.9 108.1 L 39.1 105.5 L 39.6 105.28225803375244 L 39.6 57.0 L 15.0 57.0 L 15.0 53.0 L 39.6 53.0 L 39.6 14.0 L 51.6 16.0 L 54.6 18.0 L 51.6 19.8 L 51.6 53.0 L 54.8 53.0 L 64.8 43.0 L 76.8 53.0 L 76.8 57.0 L 51.6 57.0 L 51.6 100.15573768615722 L 57.6 97.5 L 63.8 94.9 L 70.0 92.5 L 76.4 90.2 L 77.2 91.7 L 71.9 95.8 L 66.3 99.7 L 60.7 103.3 L 54.9 106.9 L 51.6 108.89137935638428 L 51.6 171.0 L 51.4 173.5 L 51.0 176.0 L 50.2 178.4 L 48.9 180.7 L 47.3 182.7 L 45.3 184.3 L 43.0 185.6 L 40.6 186.4 L 38.1 186.8 L 35.6 187.0 L 35.6 181.0 L 21.6 178.0 Z M 102.2 105.2 L 102.2 124.5 L 156.4 124.5 L 156.4 105.2 Z M 102.2 101.2 L 156.4 101.2 L 156.4 82.7 L 102.2 82.7 Z M 154.3 14.5 L 157.3 16.5 L 154.3 18.3 L 154.3 34.7 L 167.0 34.7 L 177.0 24.7 L 189.0 34.7 L 189.0 38.7 L 154.3 38.7 L 154.3 55.9 L 142.3 61.9 L 142.3 38.7 L 115.6 38.7 L 115.6 55.9 L 103.6 61.9 L 103.6 38.7 L 68.9 38.7 L 68.9 34.7 L 103.6 34.7 L 103.6 12.5 L 115.6 14.5 L 118.6 16.5 L 115.6 18.3 L 115.6 34.7 L 142.3 34.7 L 142.3 12.5 Z " />
</g>
</svg>
