<svg xmlns="http://www.w3.org/2000/svg" xmlns:xlink="http://www.w3.org/1999/xlink" version="1.1" baseProfile="full" viewBox="0 0 200 200" width="200" height="200">
<g fill="black">
<path d="M 159.1 180.0 L 151.1 175.4 L 144.0 170.2 L 138.9008644104004 165.5789083480835 L 137.8 166.6 L 130.2 172.2 L 122.0 177.1 L 113.1 181.2 L 103.5 184.4 L 93.2 186.8 L 92.7 185.1 L 102.1 180.9 L 110.7 176.3 L 118.6 171.4 L 125.7 166.1 L 132.1 160.3 L 133.11286821365357 159.1786102294922 L 132.1 158.0 L 127.5 151.1 L 123.7 143.6 L 121.0 135.6 L 119.55238094329835 128.0 L 113.57327585220337 128.0 L 112.8 130.3 L 108.0 141.0 L 102.3 150.9 L 95.7 159.8 L 88.2 167.8 L 79.8 174.8 L 70.5 180.7 L 69.4 179.2 L 77.3 171.9 L 84.3 164.2 L 90.5 155.9 L 95.8 147.0 L 100.3 137.4 L 104.1 127.2 L 107.0 116.2 L 109.1 104.5 L 109.15200004577636 104.0 L 76.0 104.0 L 76.0 100.0 L 109.56800003051758 100.0 L 110.4 92.0 L 110.9 78.8 L 110.93028011322022 78.80075702667236 L 111.0 76.5 L 122.9 79.1 L 125.9 81.2 L 122.58698139190673 83.08387336730956 L 121.8 93.1 L 120.70227270126342 100.0 L 160.0 100.0 L 170.0 90.0 L 182.0 100.0 L 182.0 104.0 L 120.06590909957886 104.0 L 119.7 106.3 L 116.7 118.7 L 114.91810340881348 124.0 L 153.0 124.0 L 159.0 119.0 L 170.0 128.0 L 165.0 131.0 L 162.92035007476807 131.8665207862854 L 160.8 137.0 L 156.2 145.4 L 150.8 153.2 L 145.83596487045287 158.8964337348938 L 150.0 161.9 L 156.7 165.9 L 164.1 169.3 L 172.0 172.2 L 180.7 174.6 L 188.9 176.8 L 177.2 187.3 L 167.8 184.0 Z M 121.7675675392151 128.0 L 124.9 134.1 L 128.9 140.8 L 133.4 147.0 L 138.4 152.5 L 138.67366724014283 152.748788356781 L 142.6 147.3 L 146.8 140.1 L 150.4 132.3 L 151.92073173522948 128.0 Z M 172.3 123.7 L 171.6 122.1 L 170.6 120.5 L 169.4 118.7 L 168.0 116.9 L 166.4 115.0 L 164.7 113.0 L 162.8 110.9 L 160.4 109.2 L 161.3 107.7 L 164.0 109.0 L 166.8 109.9 L 169.4 110.9 L 171.8 112.0 L 174.1 113.1 L 176.3 114.4 L 178.3 115.7 L 180.2 117.1 L 182.0 118.7 L 183.6 120.3 L 184.2 124.8 L 181.5 128.5 L 177.0 129.1 L 173.3 126.5 L 172.9 125.1 Z M 75.57122802734375 94.23417539596558 L 72.8 96.3 L 67.1 100.2 L 55.3 107.4 L 51.8 109.4416666984558 L 51.8 171.9 L 51.6 174.4 L 51.2 176.9 L 50.4 179.3 L 49.1 181.6 L 47.5 183.6 L 45.5 185.2 L 43.2 186.5 L 40.8 187.3 L 38.3 187.7 L 35.8 187.9 L 35.8 181.9 L 21.7 178.9 L 21.7 175.9 L 35.8 175.9 L 37.0 175.8 L 37.9 175.6 L 38.8 175.3 L 39.2 174.9 L 39.5 174.0 L 39.7 173.1 L 39.8 171.9 L 39.8 116.29344263076783 L 37.2 117.7 L 31.0 121.1 L 24.8 124.4 L 22.1842999458313 125.72860956192017 L 21.6 129.5 L 18.5 127.6 L 11.7 117.5 L 13.5 116.7 L 20.0 114.0 L 26.4 111.4 L 39.2 106.0 L 39.8 105.74285717010498 L 39.8 57.2 L 14.4 57.2 L 14.4 53.2 L 39.8 53.2 L 39.8 14.0 L 51.8 16.0 L 54.8 18.0 L 51.8 19.8 L 51.8 53.2 L 55.9 53.2 L 65.9 43.2 L 77.9 53.2 L 77.9 57.2 L 51.8 57.2 L 51.8 100.740625 L 51.9 100.7 L 58.2 98.0 L 64.6 95.4 L 71.0 92.9 L 74.0799482345581 91.7931435585022 L 73.4 89.3 L 75.6 85.3 L 76.6 84.9 L 77.7 84.1 L 78.9 82.8 L 80.1 81.0 L 81.3 78.7 L 82.3 75.9 L 83.3 72.7 L 84.3 69.1 L 85.2 65.0 L 85.5 60.5 L 87.3 60.5 L 87.8 65.0 L 88.13488368988037 67.4 L 171.8 67.4 L 172.3707317352295 66.9243902206421 L 172.4 66.8 L 172.4760563850403 66.83661975860596 L 177.8 62.4 L 188.8 71.4 L 183.8 74.4 L 179.93134326934813 76.0119402885437 L 179.2 76.9 L 177.6 78.7 L 175.9 80.5 L 174.2 82.5 L 170.2 86.5 L 167.9 88.6 L 166.0 91.0 L 164.5 90.0 L 165.9 87.3 L 166.9 84.4 L 167.9 81.7 L 168.8 79.2 L 169.6 76.8 L 170.4 74.5 L 171.0 72.4 L 171.3 71.4 L 88.61000003814698 71.4 L 88.8 73.3 L 88.8 77.0 L 88.7 80.5 L 88.2 83.7 L 87.5 86.8 L 86.4 89.7 L 85.0 92.3 L 83.0 94.7 L 78.6 95.9 Z M 175.4 39.4 L 177.6 42.2 L 173.63387975692748 43.10455369949341 L 172.0 46.1 L 170.2 49.3 L 168.2 52.3 L 166.2 55.2 L 164.0 57.9 L 161.6 60.5 L 159.2 62.8 L 156.6 65.0 L 154.1 67.1 L 152.7 66.0 L 154.4 63.2 L 155.7 60.3 L 157.0 57.3 L 158.3 54.4 L 160.5 48.4 L 161.5 45.3 L 163.3 38.9 L 163.7836332321167 36.62001476287842 L 163.7 36.6 L 163.96067419052125 35.78539323806763 L 164.0 35.6 L 164.01807231903075 35.60602407455444 L 164.5 34.1 Z M 97.1 56.7 L 96.6 54.7 L 96.0 52.7 L 95.2 50.6 L 94.2 48.5 L 93.1 46.3 L 91.8 44.0 L 90.4 41.7 L 88.4 39.7 L 89.6 38.3 L 91.9 39.9 L 94.5 41.3 L 96.9 42.8 L 99.1 44.5 L 101.2 46.3 L 103.1 48.2 L 104.8 50.3 L 106.4 52.5 L 107.9 54.8 L 109.1 57.2 L 108.6 61.7 L 105.0 64.6 L 100.5 64.1 L 97.6 60.5 L 97.4 58.6 Z M 127.8 51.7 L 127.5 49.9 L 126.7 46.3 L 126.2 44.5 L 125.5 42.6 L 124.9 40.8 L 124.1 38.8 L 122.9 37.3 L 124.1 36.0 L 125.7 37.4 L 127.6 38.4 L 129.5 39.7 L 131.2 41.0 L 132.8 42.5 L 134.3 44.1 L 135.8 45.9 L 137.1 47.7 L 138.4 49.6 L 139.6 51.7 L 139.1 56.2 L 135.7 59.2 L 131.1 58.8 L 128.1 55.3 L 128.0 53.5 Z M 174.4685453414917 15.239506149291993 L 183.9 23.2 L 184.2 26.3 L 180.08576431274415 24.391948699951172 L 177.5 25.2 L 168.3 27.5 L 158.9 29.5 L 149.5 31.3 L 139.9 32.7 L 130.1 33.8 L 120.3 34.6 L 110.3 35.0 L 100.2 35.1 L 89.9 34.7 L 79.6 33.9 L 79.6 32.1 L 89.8 30.9 L 99.9 29.7 L 109.7 28.5 L 119.4 27.0 L 129.0 25.4 L 138.3 23.5 L 147.5 21.4 L 156.5 19.1 L 165.3 16.5 L 173.00776987075807 14.019338417053223 L 173.0 14.0 L 173.018731880188 14.01581039428711 L 174.0 13.7 Z " />
</g>
</svg>
