<svg xmlns="http://www.w3.org/2000/svg" xmlns:xlink="http://www.w3.org/1999/xlink" version="1.1" baseProfile="full" viewBox="0 0 200 200" width="200" height="200">
<g fill="black">
<path d="M 21.4 175.9 L 35.4 175.9 L 36.6 175.8 L 37.5 175.6 L 38.4 175.3 L 38.8 174.9 L 39.1 174.0 L 39.3 173.1 L 39.4 171.9 L 39.4 116.5666666984558 L 37.5 117.7 L 31.7 121.0 L 25.8 124.3 L 23.530886554718016 125.5307056427002 L 23.0 129.3 L 19.9 127.5 L 12.8 117.6 L 14.6 116.7 L 20.8 114.1 L 26.9 111.4 L 32.9 108.7 L 39.0 106.1 L 39.4 105.91999998092652 L 39.4 57.2 L 15.7 57.2 L 15.7 53.2 L 39.4 53.2 L 39.4 14.0 L 51.4 16.0 L 54.4 18.0 L 51.4 19.8 L 51.4 53.2 L 53.7 53.2 L 63.7 43.2 L 75.7 53.2 L 75.7 57.2 L 51.4 57.2 L 51.4 100.51999998092651 L 57.0 98.0 L 63.0 95.4 L 69.1 93.0 L 75.3 90.6 L 76.2 92.2 L 71.0 96.3 L 65.6 100.1 L 60.1 103.8 L 54.6 107.4 L 51.4 109.36491231918335 L 51.4 171.9 L 51.2 174.4 L 50.8 176.9 L 50.0 179.3 L 48.7 181.6 L 47.1 183.6 L 45.1 185.2 L 42.8 186.5 L 40.4 187.3 L 37.9 187.7 L 35.4 187.9 L 35.4 181.9 L 21.4 178.9 Z M 111.6 182.2 L 109.1 181.8 L 106.7 181.0 L 104.4 179.8 L 102.4 178.1 L 100.8 176.1 L 99.5 173.8 L 98.7 171.4 L 98.3 168.9 L 98.2 166.4 L 98.2 133.3 L 110.2 135.3 L 113.2 137.3 L 110.2 139.1 L 110.2 167.6 L 110.4 168.5 L 110.6 169.1 L 110.7 169.5 L 110.9 169.6 L 111.1 169.8 L 111.4 170.0 L 112.0 170.2 L 112.9 170.3 L 114.2 170.4 L 154.9 170.4 L 160.9 145.4 L 162.9 145.4 L 160.9 170.4 L 164.5 172.8 L 166.9 176.4 L 164.5 180.0 L 160.9 182.4 L 114.2 182.4 Z M 68.2 174.9 L 67.0 170.5 L 69.3 166.5 L 71.1 165.4 L 72.8 163.9 L 74.5 161.9 L 76.2 159.4 L 77.7 156.5 L 79.0 153.0 L 80.3 149.1 L 81.3 144.7 L 82.4 139.8 L 83.0 134.5 L 84.8 134.5 L 85.4 139.9 L 86.0 145.0 L 86.1 149.9 L 85.9 154.5 L 85.3 158.7 L 84.4 162.8 L 83.1 166.5 L 81.3 170.0 L 79.2 173.2 L 76.6 176.0 L 72.2 177.1 Z M 175.5 161.1 L 174.6 158.0 L 173.5 154.9 L 172.1 151.8 L 170.5 148.7 L 168.7 145.7 L 166.7 142.6 L 164.4 139.4 L 161.8 136.5 L 162.9 135.0 L 169.9 139.4 L 173.0 141.9 L 176.0 144.5 L 178.7 147.4 L 181.1 150.5 L 183.3 153.8 L 185.3 157.2 L 187.0 160.9 L 188.4 164.6 L 187.6 169.2 L 183.9 171.9 L 179.4 171.1 L 176.7 167.4 L 176.2 164.2 Z M 132.0 148.8 L 131.0 146.4 L 129.7 144.0 L 128.4 141.7 L 126.9 139.4 L 123.5 134.8 L 121.6 132.5 L 119.3 130.6 L 120.2 129.1 L 123.0 130.4 L 125.9 131.6 L 128.7 133.0 L 131.4 134.7 L 134.0 136.6 L 136.4 138.7 L 138.7 140.9 L 140.8 143.4 L 142.9 146.0 L 144.7 148.9 L 144.9 153.4 L 141.8 156.8 L 137.3 157.0 L 133.8 153.9 L 133.0 151.3 Z M 143.1 106.9 L 143.3 107.8 L 143.6 108.7 L 144.0 109.1 L 144.9 109.4 L 145.8 109.6 L 175.9 109.6 L 181.9 84.6 L 183.9 84.6 L 181.9 109.6 L 185.5 112.0 L 187.9 115.6 L 185.5 119.2 L 181.9 121.6 L 147.1 121.6 L 144.5 121.5 L 142.0 121.1 L 139.6 120.3 L 137.3 119.0 L 135.3 117.4 L 133.7 115.4 L 132.4 113.1 L 131.6 110.7 L 131.2 108.2 L 131.1 105.6 L 131.1 50.980000019073486 L 128.4 52.6 L 127.44223337173462 52.999069404602054 L 126.0 60.9 L 123.0 72.6 L 119.2 83.4 L 114.7 93.3 L 109.3 102.4 L 103.3 110.4 L 96.4 117.5 L 88.9 123.6 L 80.6 128.5 L 71.6 132.2 L 70.9 130.6 L 78.6 125.3 L 85.5 119.4 L 91.7 112.9 L 97.3 105.8 L 102.1 97.9 L 106.3 89.4 L 107.32553300857543 86.64571142196655 L 104.5 89.3 L 99.9 89.0 L 96.8 85.7 L 96.3 83.1 L 95.7 80.6 L 95.1 78.2 L 94.4 75.7 L 93.6 73.2 L 92.8 70.8 L 91.9 68.3 L 91.0165828704834 65.9442211151123 L 90.7 66.6 L 87.6 71.9 L 84.3 76.8 L 80.7 81.2 L 76.8 85.1 L 72.6 88.3 L 71.3 87.1 L 73.9 82.7 L 76.3 78.1 L 78.7 73.4 L 80.9 68.4 L 82.9 63.2 L 84.8 57.6 L 86.4 51.6 L 87.9 45.3 L 89.2 38.7 L 90.22808990478515 32.702808952331544 L 90.2 32.7 L 90.7 29.8 L 102.2 33.9 L 104.8 36.4 L 101.190625 37.778125 L 100.3 41.2 L 99.0246376991272 45.6 L 116.4 45.6 L 122.4 40.6 L 131.1 47.71818180084229 L 131.1 39.6 L 143.1 45.6 L 165.4 45.6 L 171.4 40.6 L 182.4 49.6 L 177.4 53.6 L 177.4 72.8 L 177.2 75.4 L 176.8 77.9 L 176.0 80.3 L 174.7 82.6 L 173.1 84.6 L 171.1 86.2 L 168.8 87.5 L 166.4 88.3 L 163.9 88.7 L 161.4 88.8 L 161.4 82.8 L 143.1 80.05500001907349 Z M 97.77727270126343 49.6 L 96.0 54.7 L 93.5 60.8 L 92.72921352386474 62.39662923812866 L 94.2 63.6 L 96.3 65.4 L 98.3 67.4 L 101.9 71.8 L 103.6 74.1 L 105.2 76.5 L 106.7 79.1 L 108.1 81.7 L 107.86728534698486 85.19071922302246 L 109.8 80.0 L 112.7 69.8 L 114.9 58.8 L 116.05966386795043 49.6 Z M 186.8 24.5 L 186.8 28.5 L 70.6 28.5 L 70.6 24.5 L 168.61818180084228 24.5 L 176.8 15.5 Z M 163.5 76.6 L 164.4 76.3 L 164.8 75.9 L 165.1 75.0 L 165.3 74.1 L 165.4 72.8 L 165.4 49.6 L 143.1 49.6 L 143.1 76.8 L 162.6 76.8 Z " />
</g>
</svg>
