<svg xmlns="http://www.w3.org/2000/svg" xmlns:xlink="http://www.w3.org/1999/xlink" version="1.1" baseProfile="full" viewBox="0 0 200 200" width="200" height="200">
<g fill="black">
<path d="M 85.8 25.0 L 111.3 25.0 L 116.8 20.0 L 127.3 29.0 L 122.3 32.5 L 122.3 84.0 L 111.3 89.5 L 111.3 78.0 L 85.8 78.0 L 85.8 183.0 L 73.8 189.0 L 73.8 19.0 Z M 149.1 176.0 L 167.1 176.0 L 168.3 175.9 L 169.2 175.7 L 169.8 175.5 L 170.2 175.4 L 170.3 175.2 L 170.5 175.0 L 170.7 174.7 L 170.9 174.1 L 171.0 173.2 L 171.1 172.0 L 171.1 78.0 L 145.6 78.0 L 145.6 90.0 L 134.6 95.5 L 134.6 19.5 L 145.6 25.0 L 171.1 25.0 L 177.1 20.0 L 188.1 29.0 L 183.1 33.0 L 183.1 172.0 L 182.9 174.5 L 182.5 177.0 L 181.7 179.4 L 180.5 181.7 L 178.8 183.7 L 176.8 185.3 L 174.5 186.6 L 172.1 187.4 L 169.6 187.8 L 167.1 188.0 L 167.1 182.0 L 149.1 179.0 Z M 19.0 175.0 L 33.0 175.0 L 34.2 174.9 L 35.1 174.7 L 36.0 174.4 L 36.4 174.0 L 36.7 173.1 L 36.9 172.2 L 37.0 171.0 L 37.0 116.34444446563721 L 35.8 117.1 L 30.3 120.4 L 22.828077793121338 124.74730024337768 L 22.4 128.6 L 19.3 126.8 L 12.0 117.1 L 13.8 116.2 L 19.6 113.5 L 25.3 110.9 L 36.7 105.5 L 37.0 105.36315793991089 L 37.0 57.0 L 15.0 57.0 L 15.0 53.0 L 37.0 53.0 L 37.0 14.0 L 49.0 16.0 L 52.0 18.0 L 49.0 19.8 L 49.0 53.0 L 53.418181800842284 53.0 L 61.6 44.0 L 71.6 53.0 L 71.6 57.0 L 49.0 57.0 L 49.0 99.78947372436524 L 59.5 95.0 L 65.2 92.5 L 71.1 90.2 L 72.0 91.7 L 67.2 95.8 L 62.2 99.6 L 57.0 103.3 L 51.8 106.8 L 49.0 108.64905662536621 L 49.0 171.0 L 48.8 173.5 L 48.4 176.0 L 47.6 178.4 L 46.3 180.7 L 44.7 182.7 L 42.7 184.3 L 40.4 185.6 L 38.0 186.4 L 35.5 186.8 L 33.0 187.0 L 33.0 181.0 L 19.0 178.0 Z M 114.5 105.8 L 143.8 105.8 L 149.8 100.8 L 160.8 109.8 L 155.8 113.8 L 155.8 160.1 L 143.8 166.1 L 143.8 154.1 L 114.5 154.1 L 114.5 166.1 L 102.5 172.1 L 102.5 99.8 Z M 114.5 109.8 L 114.5 150.1 L 143.8 150.1 L 143.8 109.8 Z M 145.6 53.0 L 145.6 74.0 L 171.1 74.0 L 171.1 53.0 Z M 85.8 53.0 L 85.8 74.0 L 111.3 74.0 L 111.3 53.0 Z M 145.6 29.0 L 145.6 49.0 L 171.1 49.0 L 171.1 29.0 Z M 85.8 29.0 L 85.8 49.0 L 111.3 49.0 L 111.3 29.0 Z " />
</g>
</svg>
