<svg xmlns="http://www.w3.org/2000/svg" xmlns:xlink="http://www.w3.org/1999/xlink" version="1.1" baseProfile="full" viewBox="0 0 200 200" width="200" height="200">
<g fill="black">
<path d="M 148.2 177.7 L 163.6 177.7 L 164.5 177.6 L 165.2 177.5 L 166.0 177.1 L 166.2 176.8 L 166.4 176.3 L 166.6 175.6 L 166.8 174.5 L 166.8 113.1 L 113.1 113.1 L 113.1 109.1 L 166.8 109.1 L 173.8333333015442 102.0666666984558 L 172.5 102.4 L 168.5 100.2 L 167.1 97.8 L 165.6 95.4 L 163.9 93.2 L 162.1 90.9 L 160.1 88.7 L 155.8 84.4 L 153.4 82.3 L 150.9 80.1 L 150.23391580581665 79.67180299758911 L 150.0 80.2 L 146.2 86.6 L 141.7 92.3 L 136.6 97.2 L 130.9 101.4 L 124.5 104.7 L 117.6 107.1 L 116.9 105.4 L 122.6 101.4 L 127.6 97.1 L 132.0 92.5 L 135.8 87.6 L 138.9 82.2 L 141.5 76.4 L 143.21428575515748 71.0 L 118.0 71.0 L 118.0 67.0 L 144.17391300201416 67.0 L 145.0 63.2 L 146.0 55.8 L 146.3 47.8 L 146.33025722503663 47.80151281356812 L 146.4 45.5 L 158.3 48.4 L 161.2 50.5 L 157.85251903533936 52.33783273696899 L 157.3 57.2 L 155.5 65.5 L 155.03246755599974 67.0 L 162.0 67.0 L 172.0 57.0 L 184.0 67.0 L 184.0 71.0 L 153.78571424484252 71.0 L 153.1 73.2 L 151.22461833953858 77.43473281860352 L 152.1 77.7 L 155.5 78.6 L 158.7 79.7 L 161.8 81.1 L 164.8 82.7 L 167.7 84.4 L 170.5 86.3 L 173.1 88.3 L 175.7 90.5 L 178.1 92.9 L 179.2 97.4 L 177.73696279525757 99.88080224990844 L 188.8 109.1 L 188.8 113.1 L 177.8 113.1 L 177.8 173.2 L 177.7 175.6 L 177.4 178.0 L 176.7 180.2 L 175.7 182.4 L 174.3 184.3 L 172.5 186.0 L 170.5 187.2 L 168.2 188.1 L 165.9 188.5 L 163.6 188.7 L 163.6 183.2 L 148.2 180.4 Z M 101.4 176.5 L 100.1 178.7 L 98.5 180.6 L 96.6 182.3 L 94.5 183.7 L 92.3 184.7 L 89.9 185.4 L 87.4 185.8 L 84.8 186.0 L 84.8 180.0 L 72.8 177.0 L 72.8 174.0 L 84.8 174.0 L 86.1 173.9 L 87.2 173.7 L 88.1 173.5 L 88.7 173.1 L 89.3 172.8 L 89.8 172.3 L 90.3 171.7 L 90.7 171.0 L 91.2 170.0 L 91.6 168.7 L 92.4 165.0 L 93.2 160.2 L 93.8 154.4 L 94.4 147.6 L 94.8 139.7 L 95.2 130.9 L 95.4 121.2 L 95.6 110.4 L 95.6 98.7 L 95.57848262786865 95.96729888916016 L 95.5 96.0 L 95.5 88.0 L 85.71014490127564 88.0 L 85.5 93.8 L 84.6 107.0 L 83.2 119.5 L 81.4 131.3 L 79.2 142.5 L 76.5 153.0 L 73.4 162.7 L 69.8 171.8 L 65.6 180.0 L 60.8 187.4 L 59.3 186.5 L 62.1 178.4 L 64.7 169.9 L 67.1 160.8 L 69.1 151.2 L 70.9 140.9 L 72.2 130.0 L 73.2 118.5 L 73.9 106.3 L 74.1 93.4 L 74.0 80.0 L 74.0 53.0 L 86.0 55.0 L 89.0 57.0 L 86.0 58.8 L 86.0 80.0 L 85.85507249832153 84.0 L 95.5 84.0 L 101.5 79.0 L 112.5 88.0 L 107.53965787887573 90.97620525360108 L 107.6 98.7 L 107.6 110.5 L 107.4 121.4 L 107.2 131.3 L 106.8 140.3 L 106.4 148.4 L 105.8 155.6 L 105.0 161.8 L 104.2 167.2 L 103.2 171.8 L 102.4 174.2 Z M 19.2 175.0 L 31.2 175.0 L 32.4 174.9 L 33.3 174.7 L 34.2 174.4 L 34.6 174.0 L 34.9 173.1 L 35.1 172.2 L 35.2 171.0 L 35.2 116.5557692527771 L 24.1 123.6 L 22.375139236450195 124.64142541885376 L 22.0 128.5 L 18.8 126.8 L 11.4 117.1 L 13.1 116.2 L 18.6 113.6 L 24.1 110.9 L 29.6 108.3 L 35.0 105.6 L 35.2 105.50181818008423 L 35.2 57.0 L 14.5 57.0 L 14.5 53.0 L 35.2 53.0 L 35.2 14.0 L 47.2 16.0 L 50.2 18.0 L 47.2 19.8 L 47.2 53.0 L 49.2777777671814 53.0 L 55.5 46.0 L 60.1 50.025 L 60.1 49.0 L 79.2 49.0 L 79.2 16.0 L 91.2 18.0 L 94.2 20.0 L 91.2 21.8 L 91.2 49.0 L 96.61818180084228 49.0 L 104.8 40.0 L 114.8 49.0 L 114.8 53.0 L 63.5 53.0 L 63.5 57.0 L 47.2 57.0 L 47.2 99.5740740776062 L 51.3 97.6 L 56.8 95.0 L 62.3 92.5 L 68.0 90.2 L 68.9 91.7 L 64.3 95.7 L 59.6 99.6 L 49.8 106.8 L 47.2 108.53333330154419 L 47.2 171.0 L 47.0 173.5 L 46.6 176.0 L 45.8 178.4 L 44.5 180.7 L 42.9 182.7 L 40.9 184.3 L 38.6 185.6 L 36.2 186.4 L 33.7 186.8 L 31.2 187.0 L 31.2 181.0 L 19.2 178.0 Z M 133.8 126.9 L 146.0 126.9 L 151.0 121.9 L 161.0 130.9 L 156.0 133.9 L 156.0 160.8 L 146.0 165.8 L 146.0 156.8 L 133.8 156.8 L 133.8 163.8 L 122.8 169.3 L 122.8 121.4 Z M 133.8 130.9 L 133.8 152.8 L 146.0 152.8 L 146.0 130.9 Z M 140.1 18.0 L 142.5 20.7 L 138.8526315689087 21.742105293273926 L 138.1 24.0 L 135.9 29.7 L 133.4 35.3 L 130.7 40.6 L 162.5 40.6 L 172.5 30.6 L 184.5 40.6 L 184.5 44.6 L 128.42549018859864 44.6 L 127.8 45.7 L 124.7 50.6 L 121.3 55.3 L 117.6 59.6 L 113.6 63.6 L 109.3 67.3 L 107.9 66.1 L 110.6 61.3 L 113.2 56.5 L 115.7 51.7 L 118.1 46.8 L 120.3 41.9 L 122.3 36.8 L 124.1 31.5 L 125.7 26.2 L 127.2 20.7 L 128.26927442550658 16.011642742156983 L 128.2 16.0 L 128.9 13.3 Z " />
</g>
</svg>
