<svg xmlns="http://www.w3.org/2000/svg" xmlns:xlink="http://www.w3.org/1999/xlink" version="1.1" baseProfile="full" viewBox="0 0 200 200" width="200" height="200">
<g fill="black">
<path d="M 171.1 182.8 L 168.2 180.8 L 164.8 178.8 L 160.9 176.8 L 156.5 174.9 L 151.7 172.9 L 146.4 170.8 L 140.7 168.7 L 134.6 166.5 L 135.0 164.7 L 141.5 165.1 L 147.7 165.8 L 153.4 166.7 L 158.8 167.8 L 163.8 169.0 L 168.4 170.4 L 172.6 171.9 L 176.5 173.5 L 180.0 175.4 L 183.2 177.4 L 185.2 181.5 L 183.9 185.9 L 179.8 187.9 L 175.4 186.5 L 173.5 184.7 Z M 19.5 175.0 L 33.5 175.0 L 34.7 174.9 L 35.6 174.7 L 36.5 174.4 L 36.9 174.0 L 37.2 173.1 L 37.4 172.2 L 37.5 171.0 L 37.5 116.08596487045288 L 35.8 117.1 L 30.2 120.4 L 24.4 123.7 L 22.27594337463379 124.89245281219482 L 21.8 128.7 L 18.7 126.9 L 11.5 117.0 L 13.3 116.1 L 19.3 113.5 L 25.3 110.8 L 31.2 108.2 L 37.5 105.31694917678833 L 37.5 57.0 L 14.4 57.0 L 14.4 53.0 L 37.5 53.0 L 37.5 14.0 L 49.5 16.0 L 52.5 18.0 L 49.5 19.8 L 49.5 53.0 L 55.018181800842285 53.0 L 63.2 44.0 L 73.2 53.0 L 73.2 57.0 L 49.5 57.0 L 49.5 99.92542371749877 L 54.8 97.5 L 60.7 95.0 L 66.7 92.5 L 72.7 90.2 L 73.6 91.7 L 72.23170728683472 92.8 L 121.2 92.8 L 121.2 76.4 L 90.4 76.4 L 90.4 72.4 L 141.9 72.4 L 149.54434785842895 64.75565214157105 L 145.0 62.6 L 137.5 58.4 L 130.3 53.8 L 129.67730150222778 53.3238187789917 L 126.9 55.1 L 118.0 60.0 L 108.7 64.2 L 99.1 67.8 L 89.0 70.8 L 78.6 73.0 L 67.8 74.5 L 67.4 72.7 L 77.6 69.3 L 87.3 65.7 L 96.6 61.7 L 105.5 57.3 L 113.9 52.5 L 121.9 47.3 L 121.96335697174072 47.25248222351074 L 117.0 42.9 L 111.0 36.7 L 107.85488071441651 32.7394793510437 L 105.5 34.8 L 101.4 38.0 L 97.0 41.1 L 92.3 43.9 L 87.4 46.6 L 82.3 48.8 L 76.8 50.8 L 76.0 49.2 L 80.3 45.6 L 84.5 42.1 L 88.5 38.6 L 92.3 35.1 L 95.8 31.6 L 99.1 28.1 L 102.2 24.4 L 105.1 20.7 L 107.7 17.0 L 109.60567684173584 13.903275108337402 L 109.6 13.9 L 109.7 13.75 L 110.1 13.1 L 110.12286376953125 13.115704345703126 L 110.6 12.4 L 120.0 19.9 L 121.4 23.2 L 117.44347295761108 22.99882068634033 L 116.86499996185303 23.7 L 147.92535209655762 23.7 L 149.7 21.7 L 150.13548383712768 22.087096786499025 L 154.2 18.7 L 165.2 27.7 L 160.2 30.7 L 155.77894735336304 32.54210529327393 L 151.3 36.9 L 143.6 43.6 L 137.55522384643555 48.07761192321777 L 141.8 50.2 L 149.2 53.3 L 156.7 55.9 L 164.4 58.2 L 172.3 60.0 L 180.4 61.4 L 189.8 63.1 L 178.0 74.4 L 169.3 72.1 L 160.9 69.4 L 159.7904109954834 68.97534246444702 L 163.9 72.4 L 163.9 76.4 L 133.2 76.4 L 133.2 92.8 L 166.3181818008423 92.8 L 174.5 83.8 L 184.5 92.8 L 184.5 96.8 L 70.6 96.8 L 70.6 94.11176471710205 L 68.5 95.8 L 63.3 99.6 L 58.0 103.3 L 52.5 106.9 L 49.5 108.75454549789428 L 49.5 171.0 L 49.3 173.5 L 48.9 176.0 L 48.1 178.4 L 46.8 180.7 L 45.2 182.7 L 43.2 184.3 L 40.9 185.6 L 38.5 186.4 L 36.0 186.8 L 33.5 187.0 L 33.5 181.0 L 19.5 178.0 Z M 112.6259578704834 166.35775861740112 L 116.4 170.5 L 116.5 174.0 L 112.82243242263795 172.4621081352234 L 112.2 172.8 L 108.3 174.6 L 104.1 176.4 L 99.5 178.1 L 94.6 179.8 L 89.3 181.5 L 83.7 183.0 L 77.6 184.5 L 71.1 185.9 L 64.2 187.0 L 63.7 185.3 L 70.0 182.3 L 75.9 179.5 L 81.4 176.9 L 86.6 174.4 L 91.4 172.0 L 95.7 169.6 L 99.7 167.4 L 103.2 165.2 L 106.4 163.0 L 108.25704870223998 161.5715009689331 L 108.2 161.5 L 108.26180906295777 161.56783924102783 L 109.0 161.0 Z M 95.7 105.6 L 157.2 105.6 L 163.2 100.6 L 174.2 109.6 L 169.2 113.6 L 169.2 158.5 L 157.2 164.5 L 157.2 158.5 L 95.7 158.5 L 83.7 164.5 L 83.7 99.6 Z M 95.7 142.2 L 95.7 154.5 L 157.2 154.5 L 157.2 142.2 Z M 95.7 125.9 L 95.7 138.2 L 157.2 138.2 L 157.2 125.9 Z M 95.7 109.6 L 95.7 121.9 L 157.2 121.9 L 157.2 109.6 Z M 113.2 27.7 L 109.95720825195312 30.855148696899413 L 113.8 33.6 L 120.7 38.3 L 127.6 42.7 L 127.84863386154174 42.838524627685544 L 129.5 41.6 L 136.6 35.4 L 143.4 28.8 L 144.37605638504027 27.7 Z " />
</g>
</svg>
