<svg xmlns="http://www.w3.org/2000/svg" xmlns:xlink="http://www.w3.org/1999/xlink" version="1.1" baseProfile="full" viewBox="0 0 200 200" width="200" height="200">
<g fill="black">
<path d="M 100.3 130.8 L 151.6 130.8 L 157.6 125.8 L 168.6 134.8 L 163.6 138.8 L 163.6 181.4 L 151.6 187.4 L 151.6 179.4 L 100.3 179.4 L 100.3 182.4 L 88.3 188.4 L 88.3 124.8 Z M 20.1 175.0 L 34.1 175.0 L 35.3 174.9 L 36.2 174.7 L 37.1 174.4 L 37.5 174.0 L 37.8 173.1 L 38.0 172.2 L 38.1 171.0 L 38.1 116.05789470672607 L 36.3 117.1 L 24.7 123.7 L 22.43088655471802 124.93070564270019 L 21.9 128.7 L 18.8 126.9 L 11.8 117.0 L 13.6 116.1 L 19.6 113.5 L 25.7 110.8 L 31.7 108.2 L 38.1 105.31999998092651 L 38.1 57.0 L 14.6 57.0 L 14.6 53.0 L 38.1 53.0 L 38.1 14.0 L 50.1 16.0 L 53.1 18.0 L 50.1 19.8 L 50.1 53.0 L 52.2 53.0 L 62.2 43.0 L 74.2 53.0 L 74.2 57.0 L 50.1 57.0 L 50.1 99.975 L 55.6 97.5 L 61.6 94.9 L 67.6 92.5 L 73.7 90.2 L 74.6 91.7 L 69.5 95.8 L 64.2 99.6 L 58.7 103.3 L 53.2 106.9 L 50.1 108.78214282989502 L 50.1 171.0 L 49.9 173.5 L 49.5 176.0 L 48.7 178.4 L 47.4 180.7 L 45.8 182.7 L 43.8 184.3 L 41.5 185.6 L 39.1 186.4 L 36.6 186.8 L 34.1 187.0 L 34.1 181.0 L 20.1 178.0 Z M 100.3 157.1 L 100.3 175.4 L 151.6 175.4 L 151.6 157.1 Z M 100.3 134.8 L 100.3 153.1 L 151.6 153.1 L 151.6 134.8 Z M 90.9 78.9 L 90.9 112.6 L 120.0 112.6 L 120.0 78.9 Z M 132.0 78.9 L 132.0 112.6 L 161.0 112.6 L 161.0 78.9 Z M 157.5 89.8 L 158.9 93.1 L 154.508149433136 93.0242784500122 L 152.1 95.7 L 148.1 99.7 L 146.0 101.7 L 143.7 103.8 L 141.4 105.8 L 138.9 107.9 L 136.6 110.2 L 135.2 109.1 L 136.9 106.3 L 138.2 103.4 L 139.5 100.6 L 140.7 97.9 L 142.0 95.3 L 143.2 92.8 L 144.3 90.3 L 145.4 87.9 L 146.4 85.6 L 146.9422673225403 84.27445764541626 L 146.8 84.2 L 147.8 82.6 Z M 103.2 101.0 L 102.6 98.9 L 101.9 96.9 L 101.1 94.9 L 100.2 92.9 L 99.2 90.8 L 98.0 88.8 L 96.8 86.6 L 95.1 84.9 L 96.2 83.5 L 98.3 84.9 L 100.7 86.0 L 102.9 87.4 L 105.0 88.9 L 107.0 90.5 L 108.9 92.3 L 110.6 94.2 L 112.3 96.3 L 113.8 98.5 L 115.2 100.8 L 115.1 105.4 L 111.8 108.5 L 107.2 108.3 L 104.0 105.1 L 103.6 103.0 Z M 166.2 65.3 L 160.1 60.9 L 154.3 56.1 L 148.7 50.9 L 143.5 45.4 L 138.5 39.5 L 133.8 33.2 L 129.5 26.5 L 128.60604028701783 24.76040267944336 L 128.1 25.5 L 122.6 32.7 L 116.7 39.6 L 110.4 46.1 L 103.7 52.2 L 96.7 58.0 L 89.4 63.4 L 81.7 68.3 L 79.7930233001709 69.34651165008545 L 90.9 74.9 L 161.0 74.9 L 167.0 69.9 L 178.0 78.9 L 173.0 82.9 L 173.0 116.6 L 161.0 122.6 L 161.0 116.6 L 90.9 116.6 L 78.9 122.6 L 78.9 69.83658533096313 L 73.5 72.8 L 65.0 76.7 L 64.1 75.2 L 71.5 69.6 L 78.6 63.9 L 85.3 58.2 L 91.8 52.3 L 97.9 46.1 L 103.6 39.7 L 109.0 33.1 L 114.0 26.2 L 118.7 19.1 L 122.55021305084229 12.624641609191894 L 122.5 12.6 L 123.6 10.8 L 133.3 17.9 L 134.9 21.2 L 131.04210529327392 21.2 L 130.67551250457763 21.735789489746093 L 132.9 24.0 L 138.3 29.4 L 143.8 34.6 L 149.3 39.4 L 154.9 43.9 L 160.6 48.0 L 166.4 51.8 L 172.3 55.2 L 178.4 58.2 L 184.6 61.0 L 190.4 63.7 L 179.1 72.9 L 172.5 69.3 Z M 152.2 59.0 L 152.2 63.0 L 99.7 63.0 L 99.7 59.0 L 130.2 59.0 L 140.2 49.0 Z " />
</g>
</svg>
