<svg xmlns="http://www.w3.org/2000/svg" xmlns:xlink="http://www.w3.org/1999/xlink" version="1.1" baseProfile="full" viewBox="0 0 200 200" width="200" height="200">
<g fill="black">
<path d="M 158.3 174.2 L 149.1 167.2 L 140.8 159.4 L 139.49518756866456 157.8659637451172 L 129.6 166.5 L 118.5 174.2 L 106.5 180.5 L 93.7 185.3 L 80.1 188.8 L 79.6 187.1 L 92.3 181.8 L 104.0 175.7 L 114.8 168.7 L 124.7 160.7 L 133.7 151.8 L 134.0100504875183 151.4172215461731 L 133.4 150.7 L 126.9 141.1 L 121.3 130.6 L 116.6 119.3 L 112.9 107.1 L 110.48000001907349 95.0 L 100.8 95.0 L 100.8 91.0 L 133.5 91.0 L 133.5 54.0 L 99.2 54.0 L 99.2 50.0 L 133.5 50.0 L 133.5 14.0 L 145.5 16.0 L 148.5 18.0 L 145.5 19.8 L 145.5 50.0 L 167.0 50.0 L 177.0 40.0 L 189.0 50.0 L 189.0 54.0 L 145.5 54.0 L 145.5 91.0 L 165.4 91.0 L 171.4 86.0 L 182.4 95.0 L 177.4 98.0 L 175.5857894897461 98.75592107772827 L 171.5 109.7 L 165.0 123.5 L 157.5 136.1 L 149.1 147.5 L 146.36752576828002 150.46752576828004 L 148.0 152.1 L 156.0 158.6 L 164.6 164.1 L 173.8 168.9 L 183.8 172.8 L 190.7 175.3 L 179.2 185.1 L 168.3 180.1 Z M 77.5 172.5 L 74.3 169.1 L 71.0 165.9 L 67.7 162.8 L 64.4 159.9 L 61.1 157.1 L 57.7 154.4 L 54.3 151.8 L 53.979577445983885 151.56197185516356 L 50.8 159.4 L 45.4 168.6 L 38.9 176.2 L 31.4 182.1 L 22.9 186.4 L 13.6 188.8 L 13.1 187.1 L 21.2 183.0 L 28.2 177.8 L 34.1 171.7 L 39.0 164.5 L 43.1 156.0 L 46.2 146.2 L 48.4 135.1 L 49.7 122.5 L 50.0 108.6 L 49.4 93.2 L 49.43740262985229 93.19844160079955 L 49.3 91.0 L 61.4 92.7 L 64.5 94.5 L 61.4 96.5666666984558 L 61.4 108.7 L 60.4 123.5 L 58.82516851425171 133.47393255233766 L 61.6 130.6 L 64.4 127.8 L 70.0 122.4 L 72.7 119.7 L 75.5 117.1 L 80.9 111.7 L 82.81320753097535 109.71320753097534 L 82.8 109.7 L 82.98000001907349 109.53999996185303 L 83.5 109.0 L 83.53760328292847 109.04435262680053 L 83.7 108.9 L 91.3 118.2 L 91.7 121.8 L 87.94550895690918 120.50299396514893 L 84.8 122.6 L 81.5 124.7 L 78.1 126.8 L 74.8 128.8 L 67.8 132.6 L 64.2 134.4 L 60.5 136.0 L 58.22711868286133 137.07330513000488 L 55.19462985992432 148.44513788223267 L 55.8 148.6 L 60.2 150.0 L 64.4 151.7 L 68.6 153.8 L 72.7 156.2 L 76.8 158.8 L 80.8 161.6 L 84.8 164.8 L 88.7 168.1 L 92.6 171.7 L 94.1 176.0 L 92.3 180.1 L 88.0 181.7 L 83.8 179.8 L 80.7 176.1 Z M 21.7 150.3 L 19.6 146.3 L 20.7 141.9 L 22.3 140.4 L 23.7 138.6 L 25.1 136.4 L 26.3 134.0 L 27.4 131.1 L 28.4 128.0 L 29.3 124.5 L 30.1 120.6 L 30.8 116.5 L 31.0 112.0 L 32.8 111.9 L 33.6 116.4 L 34.4 120.7 L 35.0 124.8 L 35.2 128.8 L 35.1 132.6 L 34.7 136.2 L 34.1 139.8 L 33.1 143.1 L 31.8 146.3 L 30.2 149.3 L 26.2 151.5 Z M 116.8 105.8 L 122.0 117.0 L 127.6 127.2 L 133.8 136.4 L 140.02222881317138 143.9947793006897 L 141.8 141.8 L 149.0 130.8 L 155.4 118.7 L 161.0 105.5 L 164.4510489463806 95.0 L 112.5157024383545 95.0 Z M 81.1 88.9 L 78.1 85.4 L 75.1 82.1 L 71.8 79.0 L 68.5 76.1 L 65.0 73.2 L 61.5 70.5 L 57.8 67.8 L 55.42481203079224 66.21654138565063 L 55.1 67.2 L 50.4 76.9 L 44.8 85.4 L 38.1 92.6 L 30.5 98.5 L 22.0 102.9 L 12.6 105.8 L 12.0 104.1 L 20.2 99.5 L 27.3 94.2 L 33.4 88.0 L 38.6 81.0 L 42.9 73.0 L 46.3 64.0 L 48.9 53.9 L 50.6 42.8 L 51.5 30.5 L 51.4 17.0 L 51.46967935562134 16.99941930770874 L 51.4 14.7 L 63.4 16.9 L 66.5 18.8 L 63.262419033050534 20.807300186157228 L 62.9 31.1 L 61.3 44.2 L 59.94729728698731 50.49527025222778 L 61.9 48.6 L 65.3 45.5 L 68.6 42.5 L 71.8 39.8 L 74.9 37.1 L 77.9 34.6 L 80.7 32.1 L 83.4 29.8 L 85.23740158081054 28.245275592803956 L 85.2 28.2 L 85.23902435302735 28.24390239715576 L 86.0 27.6 L 90.74418601989746 34.43720932006836 L 93.2 37.2 L 93.3 40.8 L 89.6368803024292 39.23978233337402 L 86.7 40.8 L 83.4 42.6 L 80.0 44.5 L 76.4 46.4 L 72.7 48.4 L 68.8 50.5 L 64.7 52.5 L 60.3 54.5 L 58.940740776062015 55.17962961196899 L 58.7 56.3 L 56.208954906463624 63.842330837249754 L 59.3 64.5 L 63.9 65.9 L 68.3 67.8 L 72.7 69.9 L 76.9 72.4 L 81.0 75.1 L 85.0 78.2 L 88.8 81.5 L 92.5 85.0 L 96.1 88.9 L 97.3 93.3 L 95.2 97.3 L 90.8 98.5 L 86.7 96.3 L 84.0 92.5 Z M 22.9 66.4 L 20.5 62.4 L 21.6 58.0 L 23.1 56.3 L 24.5 54.4 L 25.8 52.2 L 26.9 49.6 L 27.9 46.8 L 28.7 43.7 L 29.4 40.2 L 29.8 36.5 L 30.2 32.4 L 30.1 28.1 L 31.8 27.8 L 33.0 32.1 L 34.2 36.2 L 35.0 40.2 L 35.5 44.1 L 35.6 47.9 L 35.4 51.5 L 34.9 55.1 L 34.1 58.6 L 32.8 61.9 L 31.2 65.1 L 27.3 67.4 Z " />
</g>
</svg>
