<svg xmlns="http://www.w3.org/2000/svg" xmlns:xlink="http://www.w3.org/1999/xlink" version="1.1" baseProfile="full" viewBox="0 0 200 200" width="200" height="200">
<g fill="black">
<path d="M 34.1 108.3 L 85.9 108.3 L 91.9 103.3 L 102.9 112.3 L 97.9 116.3 L 97.9 138.6 L 85.9 144.6 L 85.9 136.6 L 66.1 136.6 L 68.5 138.2 L 65.5 140.0 L 65.5 156.5 L 85.2 156.5 L 95.2 146.5 L 107.2 156.5 L 107.2 160.5 L 65.5 160.5 L 65.5 184.3 L 53.5 190.3 L 53.5 160.5 L 11.7 160.5 L 11.7 156.5 L 53.5 156.5 L 53.5 136.6 L 34.1 136.6 L 34.1 139.6 L 22.1 145.6 L 22.1 102.3 Z M 159.5 174.0 L 151.2 167.1 L 143.6 159.2 L 142.84286823272706 158.21685876846314 L 134.2 166.4 L 124.0 174.1 L 113.0 180.4 L 101.3 185.3 L 88.8 188.8 L 88.3 187.1 L 99.8 181.8 L 110.4 175.7 L 120.2 168.8 L 129.1 160.8 L 137.2 151.9 L 137.57867593765258 151.38126583099364 L 136.9 150.5 L 131.0 140.9 L 125.9 130.5 L 121.7 119.2 L 118.4 107.1 L 116.35230770111085 95.0 L 107.7 95.0 L 107.7 91.0 L 136.9 91.0 L 136.9 54.0 L 106.2 54.0 L 106.2 50.0 L 136.9 50.0 L 136.9 14.0 L 148.9 16.0 L 151.9 18.0 L 148.9 19.8 L 148.9 50.0 L 166.0 50.0 L 176.0 40.0 L 188.0 50.0 L 188.0 54.0 L 148.9 54.0 L 148.9 91.0 L 165.9 91.0 L 171.9 86.0 L 182.9 95.0 L 177.9 98.0 L 176.30939331054688 98.66275281906128 L 172.6 109.5 L 166.6 123.3 L 159.8 135.9 L 152.1 147.3 L 149.45103626251222 150.47875652313232 L 151.1 152.3 L 158.4 158.7 L 166.2 164.3 L 174.6 169.0 L 183.6 172.8 L 190.1 175.5 L 178.6 185.1 L 168.7 180.0 Z M 122.4 105.9 L 127.2 117.1 L 132.4 127.3 L 138.1 136.6 L 143.33462257385253 143.4964075088501 L 144.5 141.9 L 151.1 130.9 L 156.9 118.8 L 161.9 105.6 L 165.08741254806517 95.0 L 118.46885242462159 95.0 Z M 34.1 112.3 L 34.1 132.6 L 85.9 132.6 L 85.9 112.3 Z M 19.8 94.2 L 55.0 94.2 L 55.0 72.4 L 25.2 72.4 L 25.2 68.4 L 78.51818180084229 68.4 L 86.61666669845582 59.49166669845581 L 84.0 60.8 L 84.0 54.8 L 36.0 54.8 L 24.0 60.8 L 24.0 10.1 L 36.0 16.1 L 84.0 16.1 L 90.0 11.1 L 101.0 20.1 L 96.0 24.1 L 96.0 54.8 L 86.73571424484253 59.43214282989502 L 96.7 68.4 L 96.7 72.4 L 67.0 72.4 L 67.0 94.2 L 83.91818180084229 94.2 L 92.1 85.2 L 102.1 94.2 L 102.1 98.2 L 19.8 98.2 Z M 36.0 37.4 L 36.0 50.8 L 84.0 50.8 L 84.0 37.4 Z M 36.0 20.1 L 36.0 33.4 L 84.0 33.4 L 84.0 20.1 Z " />
</g>
</svg>
