<svg xmlns="http://www.w3.org/2000/svg" xmlns:xlink="http://www.w3.org/1999/xlink" version="1.1" baseProfile="full" viewBox="0 0 200 200" width="200" height="200">
<g fill="black">
<path d="M 157.0 174.1 L 148.0 167.2 L 139.8 159.4 L 138.55875663757325 157.90370664596557 L 128.9 166.5 L 118.0 174.1 L 106.2 180.4 L 93.6 185.3 L 80.2 188.8 L 79.7 187.1 L 92.2 181.8 L 103.7 175.7 L 114.3 168.7 L 124.0 160.7 L 132.8 151.8 L 133.13923664093016 151.37058658599852 L 132.5 150.6 L 126.1 141.0 L 120.6 130.6 L 116.0 119.3 L 112.4 107.1 L 110.07307691574097 95.0 L 100.6 95.0 L 100.6 91.0 L 132.6 91.0 L 132.6 54.0 L 99.0 54.0 L 99.0 50.0 L 132.6 50.0 L 132.6 14.0 L 144.6 16.0 L 147.6 18.0 L 144.6 19.8 L 144.6 50.0 L 165.2 50.0 L 175.2 40.0 L 187.2 50.0 L 187.2 54.0 L 144.6 54.0 L 144.6 91.0 L 163.9 91.0 L 169.9 86.0 L 180.9 95.0 L 175.9 98.0 L 174.11770496368408 98.74262294769287 L 170.1 109.7 L 163.7 123.4 L 156.4 136.0 L 148.1 147.4 L 145.36028451919555 150.43751068115233 L 147.0 152.1 L 154.9 158.6 L 163.3 164.2 L 172.4 168.9 L 182.1 172.8 L 189.0 175.4 L 177.5 185.1 L 166.8 180.1 Z M 29.6 175.0 L 43.6 175.0 L 44.9 174.9 L 45.8 174.7 L 46.7 174.4 L 46.9 174.2 L 47.0 174.0 L 47.2 173.7 L 47.4 173.1 L 47.6 172.2 L 47.6 89.0 L 59.6 91.0 L 62.6 93.0 L 59.6 94.8 L 59.6 171.0 L 59.5 173.5 L 59.1 176.0 L 58.3 178.4 L 57.0 180.7 L 55.4 182.7 L 53.4 184.3 L 51.1 185.6 L 48.7 186.4 L 46.2 186.8 L 43.6 187.0 L 43.6 181.0 L 29.6 178.0 Z M 39.3 106.2 L 41.8 108.7 L 38.312016010284424 109.90493993759155 L 37.3 113.7 L 35.2 121.1 L 33.0 128.2 L 30.7 135.2 L 28.3 141.9 L 25.7 148.5 L 23.0 154.8 L 20.1 160.9 L 16.9 166.8 L 13.5 172.3 L 11.9 171.6 L 13.4 165.3 L 15.1 159.0 L 16.8 152.6 L 18.5 146.1 L 20.2 139.4 L 21.8 132.6 L 23.3 125.6 L 24.8 118.5 L 26.2 111.2 L 27.326101112365723 104.70326261520385 L 27.3 104.7 L 27.439534854888915 104.048837184906 L 27.5 103.7 L 27.513665294647218 103.70289516448975 L 27.9 101.9 Z M 81.3 138.7 L 79.9 134.0 L 78.4 129.5 L 76.7 125.1 L 74.9 120.8 L 72.9 116.6 L 68.7 108.4 L 66.4 104.3 L 67.7 103.1 L 71.5 106.1 L 75.1 109.4 L 78.4 113.1 L 81.4 117.0 L 84.2 121.2 L 86.8 125.7 L 89.2 130.3 L 91.4 135.2 L 93.4 140.3 L 95.1 145.6 L 94.4 150.1 L 90.8 152.9 L 86.3 152.1 L 83.5 148.5 L 82.5 143.5 Z M 116.3 105.8 L 121.4 117.0 L 127.0 127.2 L 133.1 136.4 L 139.06147270202638 143.87408514022826 L 140.7 141.8 L 147.8 130.8 L 154.1 118.7 L 159.5 105.5 L 162.9510489463806 95.0 L 112.10495872497559 95.0 Z M 13.6 85.0 L 47.6 85.0 L 47.6 14.0 L 59.6 16.0 L 62.6 18.0 L 59.6 19.8 L 59.6 51.0 L 74.61818180084228 51.0 L 82.8 42.0 L 92.8 51.0 L 92.8 55.0 L 59.6 55.0 L 59.6 85.0 L 78.1 85.0 L 88.1 75.0 L 100.1 85.0 L 100.1 89.0 L 13.6 89.0 Z " />
</g>
</svg>
