<svg xmlns="http://www.w3.org/2000/svg" xmlns:xlink="http://www.w3.org/1999/xlink" version="1.1" baseProfile="full" viewBox="0 0 200 200" width="200" height="200">
<g fill="black">
<path d="M 114.6 162.5 L 114.0 161.0 L 113.1 159.4 L 111.8 157.6 L 110.3 155.7 L 108.4 153.7 L 106.2 151.7 L 104.7 150.2625 L 104.7 184.1 L 94.7 189.1 L 94.7 157.3290322303772 L 92.3 161.2 L 89.0 165.8 L 85.4 170.0 L 81.6 173.9 L 77.6 177.3 L 73.3 180.2 L 68.7 182.5 L 67.6 181.0 L 70.8 177.3 L 73.8 173.5 L 76.7 169.5 L 79.4 165.4 L 81.9 161.1 L 84.3 156.5 L 86.5 151.7 L 88.5 146.6 L 90.3 141.2 L 90.77368421554566 139.4 L 83.9 139.4 L 83.9 142.4 L 72.9 147.9 L 72.9 108.3 L 83.9 113.8 L 94.7 113.8 L 94.7 102.2 L 68.9 102.2 L 68.9 98.2 L 94.7 98.2 L 94.7 81.8 L 104.7 83.8 L 107.2 85.8 L 104.7 87.46666669845581 L 104.7 98.2 L 108.5 98.2 L 118.5 88.2 L 130.5 98.2 L 130.5 102.2 L 104.7 102.2 L 104.7 113.8 L 115.4 113.8 L 120.9 108.8 L 131.4 117.8 L 126.4 121.3 L 126.4 139.4 L 115.4 144.9 L 115.4 139.4 L 104.7 139.4 L 104.7 147.21875 L 104.9 147.3 L 108.2 148.3 L 111.2 149.4 L 114.0 150.6 L 116.5 151.9 L 118.9 153.3 L 121.0 154.9 L 123.0 156.6 L 124.7 158.5 L 126.1 160.6 L 125.9 165.2 L 122.7 168.4 L 118.1 168.2 L 114.9 164.9 L 114.9 163.8 Z M 167.6 179.4 L 163.5 174.6 L 160.0 169.4 L 157.1 163.8 L 154.9 157.9 L 153.3 151.8 L 153.06398258209228 150.12165393829346 L 151.2 155.9 L 147.3 164.3 L 142.6 171.5 L 137.1 177.7 L 130.8 182.6 L 123.8 186.3 L 116.2 188.6 L 115.6 186.9 L 122.0 183.0 L 127.5 178.4 L 132.2 173.2 L 136.3 167.3 L 139.6 160.5 L 142.4 152.9 L 144.4 144.3 L 145.8 134.8 L 146.6 124.3 L 146.6 114.8 L 141.575 114.8 L 139.4 117.8 L 136.2 121.6 L 132.8 125.1 L 129.1 128.3 L 127.7 127.2 L 129.9 122.9 L 132.0 118.7 L 134.0 114.5 L 135.8 110.3 L 137.4 106.1 L 138.9 101.8 L 140.2 97.5 L 141.3 93.2 L 142.3 88.7 L 142.85562829971315 85.20747947692871 L 142.8 85.2 L 143.4 82.4 L 154.7 86.8 L 157.2 89.4 L 153.51431531906127 90.67323656082154 L 153.2 91.7 L 151.5 96.4 L 149.5 101.0 L 147.4 105.4 L 144.9 109.7 L 144.2024390220642 110.8 L 172.1 110.8 L 172.74615383148193 110.2615385055542 L 172.9 109.8 L 173.13798627853393 109.93501148223876 L 178.1 105.8 L 189.1 114.8 L 184.1 117.8 L 179.3 119.8 L 177.3 121.8 L 175.4 123.4 L 173.5 125.2 L 171.4 127.0 L 169.2 128.9 L 166.8 130.8 L 164.6 133.1 L 163.2 132.0 L 164.9 129.4 L 166.1 126.5 L 167.3 123.9 L 168.4 121.5 L 169.5 119.2 L 170.4 117.0 L 171.2 115.0 L 171.27368421554564 114.8 L 158.48524589538573 114.8 L 157.9 125.0 L 156.5 136.3 L 156.22507705688477 137.53117685317994 L 156.4 138.2 L 158.2 144.2 L 160.2 149.7 L 162.6 154.8 L 165.3 159.4 L 168.4 163.6 L 171.8 167.4 L 175.7 170.8 L 179.9 174.0 L 184.5 176.7 L 188.7 179.3 L 177.6 188.0 L 172.3 183.9 Z M 18.6 175.0 L 32.6 175.0 L 33.8 174.9 L 34.7 174.7 L 35.6 174.4 L 36.0 174.0 L 36.3 173.1 L 36.5 172.2 L 36.6 171.0 L 36.6 116.23454542160034 L 35.2 117.1 L 29.7 120.4 L 24.1 123.6 L 22.02823152542114 124.79944486618042 L 21.6 128.6 L 18.4 126.9 L 11.2 117.0 L 13.0 116.1 L 18.9 113.5 L 24.7 110.9 L 36.3 105.5 L 36.6 105.36551723480224 L 36.6 57.0 L 14.2 57.0 L 14.2 53.0 L 36.6 53.0 L 36.6 14.0 L 48.6 16.0 L 51.6 18.0 L 48.6 19.8 L 48.6 53.0 L 53.418181800842284 53.0 L 61.6 44.0 L 71.6 53.0 L 71.6 57.0 L 48.6 57.0 L 48.6 99.84137935638428 L 59.4 95.0 L 65.2 92.5 L 71.1 90.2 L 72.0 91.7 L 67.1 95.8 L 62.0 99.6 L 56.8 103.3 L 51.5 106.8 L 48.6 108.67962961196899 L 48.6 171.0 L 48.4 173.5 L 48.0 176.0 L 47.2 178.4 L 45.9 180.7 L 44.3 182.7 L 42.3 184.3 L 40.0 185.6 L 37.6 186.4 L 35.1 186.8 L 32.6 187.0 L 32.6 181.0 L 18.6 178.0 Z M 83.9 117.8 L 83.9 135.4 L 94.7 135.4 L 94.7 117.8 Z M 104.7 117.8 L 104.7 135.4 L 115.4 135.4 L 115.4 117.8 Z M 168.1 78.1 L 163.3 75.5 L 158.6 72.5 L 153.9 69.1 L 149.3 65.3 L 144.7 61.1 L 140.2 56.5 L 135.8 51.5 L 134.1 49.23333330154419 L 134.1 79.2 L 122.1 85.2 L 122.1 54.72765960693359 L 119.1 57.6 L 114.2 61.9 L 109.1 65.9 L 103.6 69.6 L 97.9 73.0 L 92.0 76.1 L 85.8 78.8 L 79.2 81.2 L 72.4 83.1 L 71.8 81.4 L 77.6 77.7 L 83.3 74.1 L 88.7 70.4 L 93.8 66.6 L 98.6 62.7 L 103.2 58.7 L 107.5 54.5 L 111.5 50.1 L 114.3777777671814 46.6 L 74.8 46.6 L 74.8 42.6 L 122.1 42.6 L 122.1 28.902564144134523 L 119.2 29.2 L 110.9 29.8 L 102.2 30.3 L 93.2 30.6 L 83.7 30.5 L 83.5 28.7 L 92.7 26.8 L 101.6 25.0 L 110.0 23.3 L 118.1 21.7 L 125.7 20.0 L 132.9 18.4 L 139.6 16.7 L 145.9 15.0 L 151.8 13.3 L 156.33636884689332 11.897849655151367 L 156.3 11.8 L 156.39499578475952 11.879728603363038 L 157.3 11.6 L 157.67730960845947 12.955956268310548 L 167.5 21.2 L 167.8 24.2 L 163.57058820724487 22.266554641723634 L 160.5 23.1 L 154.6 24.4 L 148.3 25.5 L 141.6 26.6 L 134.5 27.5 L 134.1 27.547999954223634 L 134.1 42.6 L 160.8 42.6 L 170.8 32.6 L 182.8 42.6 L 182.8 46.6 L 135.8526315689087 46.6 L 138.6 48.4 L 144.0 52.1 L 149.2 55.4 L 154.2 58.5 L 159.0 61.2 L 163.7 63.6 L 168.3 65.6 L 172.8 67.3 L 177.1 68.6 L 181.2 69.6 L 189.3 71.9 L 177.6 82.3 L 172.8 80.4 Z " />
</g>
</svg>
