<svg xmlns="http://www.w3.org/2000/svg" xmlns:xlink="http://www.w3.org/1999/xlink" version="1.1" baseProfile="full" viewBox="0 0 200 200" width="200" height="200">
<g fill="black">
<path d="M 173.7 72.7 L 173.7 83.7 L 173.8 83.7 L 178.3 77.7 L 184.3 83.7 L 184.3 87.7 L 173.7 87.7 L 173.7 117.7 L 161.7 123.7 L 161.7 121.93999996185303 L 160.6 122.6 L 160.6 134.9 L 164.71818180084227 134.9 L 172.9 125.9 L 182.9 134.9 L 182.9 138.9 L 160.6 138.9 L 160.6 142.57931032180787 L 163.1 146.2 L 165.9 150.2 L 168.7 154.0 L 171.5 157.6 L 174.3 160.9 L 177.2 163.9 L 180.1 166.7 L 183.0 169.3 L 185.9 171.6 L 187.9 173.4 L 177.1 181.5 L 174.1 178.1 L 171.3 174.5 L 168.6 170.7 L 166.1 166.7 L 163.8 162.5 L 161.7 158.1 L 160.6 155.4368420600891 L 160.6 181.7 L 148.6 187.7 L 148.6 159.0758620262146 L 147.6 160.8 L 144.4 165.4 L 141.1 169.8 L 137.5 173.7 L 133.8 177.2 L 129.8 180.2 L 125.5 182.7 L 124.4 181.3 L 127.1 177.5 L 129.8 173.6 L 132.4 169.6 L 134.9 165.4 L 137.2 161.0 L 139.4 156.4 L 141.5 151.5 L 143.4 146.3 L 145.2 140.8 L 145.68717947006226 138.9 L 126.3 138.9 L 126.3 134.9 L 148.6 134.9 L 148.6 116.8 L 160.6 118.8 L 161.7 119.53333330154419 L 161.7 113.7 L 147.5 113.7 L 147.5 120.7 L 135.5 126.7 L 135.5 87.7 L 126.3 87.7 L 126.3 83.7 L 135.5 83.7 L 135.5 66.9 L 147.5 68.9 L 150.5 70.9 L 147.5 72.7 L 147.5 83.7 L 161.7 83.7 L 161.7 66.9 L 168.92272729873656 68.10378789901733 L 167.0 67.0 L 161.9 63.7 L 156.9 60.3 L 152.2 56.6 L 147.8 52.8 L 143.6 48.8 L 139.7 44.6 L 136.1 40.1 L 133.442857170105 35.9 L 120.06000003814697 35.9 L 117.9 38.6 L 112.5 44.2 L 106.3 49.6 L 99.5 54.6 L 91.9 59.4 L 83.6 63.8 L 76.57922849655151 66.96320476531983 L 88.2 68.9 L 91.2 70.9 L 88.2 72.7 L 88.2 83.7 L 102.4 83.7 L 102.4 66.9 L 114.4 68.9 L 117.4 70.9 L 114.4 72.7 L 114.4 81.96666669845581 L 117.6 77.7 L 123.6 83.7 L 123.6 87.7 L 114.4 87.7 L 114.4 117.7 L 102.4 123.7 L 102.4 120.81999998092651 L 100.6 121.9 L 100.6 134.9 L 105.41818180084229 134.9 L 113.6 125.9 L 123.6 134.9 L 123.6 138.9 L 100.6 138.9 L 100.6 143.2277777671814 L 103.1 144.2 L 106.5 145.8 L 109.7 147.6 L 112.7 149.6 L 115.5 151.8 L 118.1 154.2 L 120.5 156.7 L 122.8 159.4 L 124.8 162.3 L 125.1 166.8 L 122.2 170.3 L 117.6 170.6 L 114.1 167.7 L 113.2 165.2 L 112.0 162.7 L 110.7 160.2 L 109.1 157.7 L 107.3 155.2 L 105.3 152.8 L 103.1 150.3 L 100.7 147.8 L 100.6 147.7 L 100.6 181.7 L 88.6 187.7 L 88.6 158.43999996185303 L 87.4 160.4 L 84.2 165.0 L 80.8 169.2 L 77.1 173.1 L 73.3 176.6 L 69.2 179.6 L 64.8 182.0 L 63.7 180.6 L 66.6 176.8 L 69.4 172.9 L 72.1 168.9 L 74.6 164.8 L 77.0 160.4 L 79.3 155.9 L 81.4 151.0 L 83.4 146.0 L 85.2 140.6 L 85.65945949554444 138.9 L 67.0 138.9 L 67.0 134.9 L 88.6 134.9 L 88.6 116.1 L 100.6 118.1 L 102.4 119.3 L 102.4 113.7 L 88.2 113.7 L 88.2 120.7 L 76.2 126.7 L 76.2 87.7 L 65.6 87.7 L 65.6 83.7 L 76.2 83.7 L 76.2 67.13406591415405 L 74.5 67.9 L 64.7 71.5 L 64.0 69.9 L 72.8 64.5 L 80.9 59.2 L 88.2 53.9 L 94.8 48.6 L 100.7 43.2 L 105.8 37.8 L 107.28545455932617 35.9 L 67.2 35.9 L 67.2 31.9 L 110.3618182182312 31.9 L 113.7 26.8 L 116.5 21.2 L 118.6 15.6 L 118.64568729400635 15.616576862335204 L 119.2 14.2 L 129.9 19.7 L 132.0 22.7 L 128.11499128341674 23.381580448150636 L 126.7 26.3 L 123.1444444656372 31.9 L 160.0 31.9 L 170.0 21.9 L 182.0 31.9 L 182.0 35.9 L 137.18064517974852 35.9 L 139.0 37.1 L 143.6 40.2 L 148.2 43.2 L 152.8 46.1 L 157.5 49.0 L 162.4 51.6 L 167.4 54.2 L 172.5 56.6 L 177.8 58.9 L 183.3 61.0 L 189.4 63.7 L 178.0 73.1 L 175.37610063552856 71.69433965682984 Z M 18.2 175.0 L 32.3 175.0 L 33.5 174.9 L 34.4 174.7 L 35.3 174.4 L 35.7 174.0 L 36.0 173.1 L 36.2 172.2 L 36.3 171.0 L 36.3 116.2814814567566 L 35.0 117.1 L 29.5 120.4 L 23.9 123.6 L 21.92807779312134 124.74730024337768 L 21.5 128.6 L 18.4 126.8 L 11.1 117.1 L 12.9 116.1 L 24.5 110.9 L 30.3 108.2 L 36.0 105.5 L 36.3 105.36315793991089 L 36.3 57.0 L 14.1 57.0 L 14.1 53.0 L 36.3 53.0 L 36.3 14.0 L 48.3 16.0 L 51.3 18.0 L 48.3 19.8 L 48.3 53.0 L 52.918181800842284 53.0 L 61.1 44.0 L 71.1 53.0 L 71.1 57.0 L 48.3 57.0 L 48.3 99.83508768081666 L 58.9 95.0 L 64.7 92.5 L 70.6 90.2 L 71.5 91.7 L 66.6 95.8 L 61.6 99.6 L 56.4 103.3 L 51.2 106.8 L 48.3 108.67962961196899 L 48.3 171.0 L 48.1 173.5 L 47.7 176.0 L 46.9 178.4 L 45.6 180.7 L 44.0 182.7 L 42.0 184.3 L 39.7 185.6 L 37.3 186.4 L 34.8 186.8 L 32.3 187.0 L 32.3 181.0 L 18.2 178.0 Z M 147.5 87.7 L 147.5 109.7 L 161.7 109.7 L 161.7 87.7 Z M 88.2 87.7 L 88.2 109.7 L 102.4 109.7 L 102.4 87.7 Z " />
</g>
</svg>
