<svg xmlns="http://www.w3.org/2000/svg" xmlns:xlink="http://www.w3.org/1999/xlink" version="1.1" baseProfile="full" viewBox="0 0 200 200" width="200" height="200">
<g fill="black">
<path d="M 157.2 169.4 L 148.2 160.7 L 140.3 151.0 L 138.6045729637146 148.35712842941285 L 132.0 156.9 L 121.5 167.3 L 109.9 176.2 L 97.1 183.3 L 83.3 188.8 L 82.6 187.1 L 95.3 180.0 L 106.8 171.8 L 117.0 162.5 L 126.1 152.1 L 133.79043560028077 140.85273790359497 L 133.5 140.4 L 127.7 128.9 L 122.9 116.5 L 119.3 103.2 L 116.7 89.1 L 115.99934644699097 80.34183006286621 L 111.9 86.7 L 106.5 93.8 L 100.8 100.5 L 99.3 99.4 L 103.4 91.8 L 107.2 84.0 L 110.9 76.1 L 114.4 67.9 L 117.7 59.5 L 120.7 50.9 L 123.4 42.0 L 125.9 32.9 L 128.1 23.4 L 129.80402431488037 14.700507259368896 L 129.8 14.7 L 129.84799995422364 14.476000022888183 L 130.0 13.7 L 130.01366024017335 13.702918815612794 L 130.4 11.9 L 141.7 16.2 L 144.2 18.7 L 140.73915300369262 19.89556531906128 L 139.1 26.2 L 136.2 35.8 L 132.9 45.2 L 129.4 54.2 L 126.31627902984619 61.0 L 166.3 61.0 L 176.3 51.0 L 188.3 61.0 L 188.3 65.0 L 168.77277488708495 65.0 L 165.9 82.7 L 161.6 100.4 L 156.0 116.7 L 149.2 131.6 L 144.46594982147218 139.52953405380248 L 148.4 144.7 L 156.1 153.0 L 164.6 160.3 L 173.9 166.6 L 184.0 172.1 L 189.3 174.8 L 178.1 183.8 L 167.1 177.1 Z M 62.7 15.0 L 65.7 17.0 L 62.7 18.8 L 62.7 57.0 L 86.0 57.0 L 96.0 47.0 L 108.0 57.0 L 108.0 61.0 L 62.7 61.0 L 62.7 182.0 L 50.7 188.0 L 50.7 61.0 L 10.8 61.0 L 10.8 57.0 L 50.7 57.0 L 50.7 13.0 Z M 38.4 78.0 L 41.4 80.0 L 38.4 81.8 L 38.4 115.0 L 37.8 123.6 L 36.9 131.8 L 35.4 139.6 L 33.6 146.9 L 31.2 153.8 L 28.4 160.1 L 25.1 165.9 L 21.3 171.1 L 17.1 175.7 L 12.3 179.6 L 11.0 178.3 L 14.1 173.3 L 16.9 168.2 L 19.3 162.8 L 21.4 157.2 L 23.1 151.1 L 24.5 144.7 L 25.5 137.9 L 26.2 130.7 L 26.5 123.0 L 26.4 115.0 L 26.4 76.0 Z M 101.7 134.0 L 103.7 134.0 L 101.7 159.0 L 105.3 161.4 L 107.7 165.0 L 105.3 168.6 L 101.7 171.0 L 91.0 171.0 L 88.4 170.8 L 85.9 170.4 L 83.5 169.6 L 81.2 168.3 L 79.2 166.7 L 77.6 164.7 L 76.3 162.4 L 75.5 160.0 L 75.1 157.5 L 75.0 155.0 L 75.0 76.0 L 87.0 78.0 L 90.0 80.0 L 87.0 81.8 L 87.0 156.2 L 87.2 157.1 L 87.5 158.0 L 87.9 158.4 L 88.8 158.7 L 89.7 158.9 L 91.0 159.0 L 95.7 159.0 Z M 124.4 65.0 L 121.3 71.2 L 118.0497308731079 76.90602798461914 L 120.8 88.3 L 124.9 101.6 L 129.7 113.9 L 135.2 125.2 L 138.88520193099976 131.32219038009643 L 140.9 127.5 L 146.6 113.2 L 151.2 97.6 L 154.7 80.6 L 156.73863639831544 65.0 Z " />
</g>
</svg>
