<svg xmlns="http://www.w3.org/2000/svg" xmlns:xlink="http://www.w3.org/1999/xlink" version="1.1" baseProfile="full" viewBox="0 0 200 200" width="200" height="200">
<g fill="black">
<path d="M 159.8 174.1 L 151.0 167.2 L 143.1 159.3 L 142.04779386520386 158.01067695617675 L 132.7 166.5 L 122.0 174.1 L 110.5 180.4 L 98.2 185.3 L 85.1 188.8 L 84.6 187.1 L 96.7 181.8 L 107.9 175.7 L 118.3 168.7 L 127.7 160.8 L 136.3 151.8 L 136.63149042129515 151.37379808425902 L 136.0 150.6 L 129.7 141.0 L 124.4 130.5 L 119.9 119.3 L 116.4 107.1 L 114.16615381240845 95.0 L 105.0 95.0 L 105.0 91.0 L 133.6 91.0 L 133.6 14.0 L 145.6 16.0 L 148.6 18.0 L 145.6 19.8 L 145.6 50.0 L 171.3181818008423 50.0 L 179.5 41.0 L 189.5 50.0 L 189.5 54.0 L 145.6 54.0 L 145.6 91.0 L 166.6 91.0 L 172.6 86.0 L 183.6 95.0 L 178.6 98.0 L 176.869730758667 98.72094554901123 L 173.0 109.6 L 166.7 123.4 L 159.5 136.0 L 151.4 147.4 L 148.7302574157715 150.45970497131347 L 150.4 152.2 L 158.0 158.6 L 166.3 164.2 L 175.1 168.9 L 184.6 172.8 L 191.4 175.4 L 179.9 185.1 L 169.4 180.1 Z M 68.8 180.8 L 66.6 178.6 L 63.9 176.2 L 60.5 173.8 L 56.6 171.3 L 52.2 168.7 L 47.2 165.9 L 41.7 163.1 L 35.6 160.1 L 36.2 158.4 L 42.8 159.7 L 49.0 161.2 L 54.7 162.8 L 59.8 164.6 L 64.5 166.5 L 68.8 168.5 L 72.6 170.6 L 75.9 172.9 L 78.9 175.4 L 81.4 178.2 L 82.1 182.7 L 79.6 186.5 L 75.1 187.2 L 71.3 184.7 L 70.3 182.9 Z M 89.7 144.6 L 84.8 140.5 L 80.2 135.9 L 75.8 130.9 L 71.6 125.4 L 67.6 119.6 L 63.9 113.2 L 60.5 106.4 L 60.295890998840335 105.87917003631591 L 58.0 110.0 L 53.7 116.7 L 49.0 123.1 L 43.9 129.1 L 38.3 134.8 L 32.3 140.1 L 25.9 145.1 L 19.0 149.6 L 11.6 153.6 L 10.6 152.1 L 16.7 146.5 L 22.4 141.0 L 27.8 135.4 L 32.7 129.6 L 37.3 123.7 L 41.5 117.6 L 45.2 111.4 L 48.6 104.9 L 51.5 98.3 L 53.7209433555603 92.40595798492431 L 53.7 92.4 L 54.28695650100708 90.9 L 34.6 90.9 L 34.6 102.9 L 22.6 108.9 L 22.6 29.5 L 34.6 35.5 L 51.357692337036134 35.5 L 51.6 34.6 L 51.7 32.0 L 51.9 29.4 L 52.1 26.9 L 52.3 24.5 L 52.5 22.2 L 52.6 20.0 L 52.8 17.8 L 52.8 15.8 L 52.84887409210205 14.822518730163575 L 52.7 14.8 L 52.8956521987915 13.88695650100708 L 52.9 13.8 L 52.91358880996704 13.803252029418946 L 53.3 12.0 L 64.6 16.6 L 67.0 19.3 L 62.524453258514406 20.658648109436037 L 61.6 22.6 L 60.5 24.6 L 58.1 28.8 L 55.3 33.2 L 53.8 35.4 L 53.75 35.5 L 82.3 35.5 L 88.3 30.5 L 99.3 39.5 L 94.3 43.5 L 94.3 96.9 L 82.3 102.9 L 82.3 90.9 L 56.12857141494751 90.9 L 65.3 95.7 L 67.4 98.7 L 63.597380542755126 99.35562400817871 L 62.306765174865724 102.12665119171143 L 64.0 104.2 L 68.7 109.9 L 73.3 115.2 L 77.9 120.1 L 82.5 124.5 L 87.1 128.4 L 91.8 131.9 L 96.4 134.9 L 101.1 137.5 L 105.8 139.6 L 111.4 142.3 L 100.1 151.5 L 94.8 148.3 Z M 65.0 147.7 L 64.2 146.5 L 62.9 145.2 L 61.2 143.7 L 59.1 142.2 L 56.6 140.7 L 53.7 139.0 L 50.4 137.3 L 46.7 136.1 L 47.1 134.3 L 51.1 135.0 L 54.8 135.3 L 58.3 135.7 L 61.5 136.3 L 64.4 137.0 L 67.1 137.8 L 69.6 138.8 L 71.8 140.0 L 73.9 141.5 L 75.7 143.4 L 76.2 148.0 L 73.4 151.6 L 68.9 152.0 L 65.2 149.2 L 65.3 148.6 Z M 120.4 105.8 L 125.4 117.0 L 130.8 127.2 L 136.8 136.5 L 142.51955404281617 143.80343055725098 L 144.0 141.9 L 150.9 130.8 L 157.0 118.7 L 162.3 105.6 L 165.6125 95.0 L 116.20495872497558 95.0 Z M 34.6 64.7 L 34.6 86.9 L 82.3 86.9 L 82.3 64.7 Z M 34.6 39.5 L 34.6 60.7 L 82.3 60.7 L 82.3 39.5 Z " />
</g>
</svg>
