<svg xmlns="http://www.w3.org/2000/svg" xmlns:xlink="http://www.w3.org/1999/xlink" version="1.1" baseProfile="full" viewBox="0 0 200 200" width="200" height="200">
<g fill="black">
<path d="M 155.9 174.2 L 146.6 167.3 L 138.2 159.4 L 136.84783191680907 157.831485080719 L 126.7 166.6 L 115.5 174.2 L 103.4 180.5 L 90.4 185.4 L 76.6 188.8 L 76.2 187.1 L 89.0 181.8 L 100.9 175.7 L 111.9 168.7 L 121.9 160.7 L 131.0 151.7 L 131.2736940383911 151.3654850959778 L 130.7 150.7 L 124.1 141.1 L 118.4 130.6 L 113.6 119.3 L 109.8 107.1 L 107.38000001907349 95.0 L 97.7 95.0 L 97.7 91.0 L 128.2 91.0 L 128.2 14.0 L 140.2 16.0 L 143.2 18.0 L 140.2 19.8 L 140.2 50.0 L 164.9 50.0 L 174.9 40.0 L 186.9 50.0 L 186.9 54.0 L 140.2 54.0 L 140.2 91.0 L 163.1 91.0 L 169.1 86.0 L 180.1 95.0 L 175.1 98.0 L 173.25366334915162 98.76930694580078 L 169.1 109.7 L 162.5 123.5 L 155.0 136.1 L 146.5 147.5 L 143.69271116256715 150.51414165496826 L 145.3 152.1 L 153.4 158.5 L 162.1 164.1 L 171.5 168.9 L 181.5 172.8 L 188.5 175.3 L 177.0 185.1 L 166.0 180.1 Z M 13.6 95.0 L 13.6 91.0 L 48.1 91.0 L 48.1 14.0 L 60.1 16.0 L 63.1 18.0 L 60.1 19.8 L 60.1 91.0 L 72.6 91.0 L 82.6 81.0 L 94.6 91.0 L 94.6 95.0 L 72.5 95.0 L 72.5 150.26000003814698 L 73.4 149.7 L 78.0 146.7 L 82.8 143.7 L 87.8 140.5 L 93.0 137.4 L 98.5 134.2 L 99.6 135.7 L 95.4 140.4 L 91.1 144.8 L 86.8 148.9 L 82.6 152.8 L 78.5 156.4 L 74.5 160.0 L 70.5 163.3 L 66.7 166.5 L 63.0 169.5 L 62.7 169.74166669845582 L 62.7 173.7 L 59.4 172.4 L 51.0 163.6 L 52.7 162.4 L 56.5 160.2 L 60.5 157.7 L 60.5 95.0 L 46.6 95.0 L 46.6 113.0 L 46.0 122.5 L 45.0 131.6 L 43.4 140.3 L 41.3 148.6 L 38.7 156.5 L 35.6 163.9 L 31.9 170.9 L 27.8 177.4 L 23.0 183.3 L 17.6 188.5 L 16.3 187.4 L 19.9 181.1 L 23.1 174.6 L 26.0 168.0 L 28.5 161.1 L 30.6 153.9 L 32.3 146.4 L 33.5 138.6 L 34.3 130.4 L 34.7 121.9 L 34.6 113.0 L 34.6 95.0 Z M 113.8 105.8 L 119.0 117.0 L 124.7 127.2 L 131.0 136.4 L 137.2632776260376 144.04488296508788 L 139.1 141.8 L 146.5 130.7 L 152.9 118.6 L 158.6 105.5 L 162.0510489463806 95.0 L 109.5157024383545 95.0 Z M 88.9 36.5 L 91.2 39.2 L 87.54576272964478 40.24406776428223 L 87.2 41.2 L 85.5 46.0 L 81.9 55.2 L 79.9 59.8 L 77.9 64.3 L 75.8 68.7 L 73.5 73.0 L 71.1 77.2 L 68.4 81.3 L 66.7 80.6 L 67.6 75.9 L 68.6 71.1 L 69.7 66.5 L 70.8 61.8 L 72.0 57.1 L 74.2 47.7 L 75.2 42.9 L 76.3 38.2 L 77.10832767486572 34.32002696990967 L 77.0 34.3 L 77.7 31.7 Z M 28.2 66.0 L 27.7 62.1 L 27.0 58.1 L 26.1 54.1 L 25.0 49.9 L 23.7 45.7 L 22.3 41.4 L 20.7 36.9 L 19.0 32.3 L 20.5 31.3 L 23.7 35.2 L 26.7 39.1 L 29.3 43.1 L 31.7 47.2 L 33.8 51.3 L 35.7 55.4 L 37.3 59.6 L 38.6 63.8 L 39.8 68.1 L 40.6 72.4 L 39.2 76.7 L 35.2 78.9 L 30.9 77.6 L 28.7 73.5 L 28.6 69.8 Z " />
</g>
</svg>
