<svg xmlns="http://www.w3.org/2000/svg" xmlns:xlink="http://www.w3.org/1999/xlink" version="1.1" baseProfile="full" viewBox="0 0 200 200" width="200" height="200">
<g fill="black">
<path d="M 155.5 169.5 L 146.2 160.8 L 137.9 151.1 L 135.91600513458252 148.17911863327026 L 128.8 157.0 L 117.9 167.4 L 105.8 176.2 L 92.5 183.3 L 78.1 188.8 L 77.4 187.1 L 90.7 180.0 L 102.7 171.8 L 113.5 162.5 L 123.0 152.0 L 130.92408542633058 140.8299036026001 L 130.7 140.5 L 124.7 129.0 L 119.7 116.6 L 115.8 103.3 L 113.1 89.1 L 112.31726093292237 80.06839542388916 L 107.8 86.8 L 102.3 93.9 L 96.3 100.5 L 94.9 99.4 L 99.2 91.7 L 103.2 83.9 L 107.1 76.0 L 110.8 67.9 L 114.2 59.5 L 117.4 50.9 L 120.2 42.0 L 122.8 32.8 L 125.1 23.4 L 127.1 13.6 L 127.11364164352418 13.60300579071045 L 127.5 11.8 L 138.9 16.2 L 141.3 18.8 L 137.8370369911194 19.996296310424803 L 136.1 26.2 L 133.1 35.9 L 129.7 45.2 L 126.0 54.2 L 122.87356319427491 61.0 L 165.7 61.0 L 175.7 51.0 L 187.7 61.0 L 187.7 65.0 L 167.15811519622804 65.0 L 164.1 82.7 L 159.6 100.4 L 153.8 116.8 L 146.7 131.6 L 141.8278865814209 139.52452173233033 L 145.8 144.6 L 153.9 152.9 L 162.8 160.2 L 172.5 166.6 L 183.1 172.0 L 188.6 174.7 L 177.3 183.9 L 165.9 177.2 Z M 73.5 167.3 L 68.7 162.3 L 63.5 157.3 L 61.8160964012146 155.85243377685546 L 56.9 161.3 L 49.0 168.6 L 40.7 175.1 L 31.8 180.7 L 22.4 185.3 L 12.5 188.8 L 11.8 187.1 L 20.6 181.9 L 28.9 176.2 L 36.6 169.9 L 43.9 163.1 L 50.6 155.6 L 54.89067716598511 150.01530914306642 L 51.7 147.4 L 45.1 142.5 L 38.1 137.5 L 30.7 132.4 L 23.0 127.2 L 23.8 125.6 L 32.6 129.1 L 40.8 132.9 L 48.6 136.9 L 56.0 141.2 L 59.47895107269287 143.41846151351928 L 62.6 138.6 L 67.9 129.0 L 72.7 118.8 L 75.41999998092652 112.0 L 18.8 112.0 L 18.8 108.0 L 76.7 108.0 L 82.7 103.0 L 93.7 112.0 L 88.7 115.0 L 86.591428565979 115.87857141494752 L 83.1 123.6 L 77.3 134.2 L 71.1 144.1 L 67.53973064422607 148.81212120056153 L 69.4 150.1 L 75.4 154.9 L 81.1 159.7 L 86.3 164.7 L 91.1 169.8 L 92.3 174.2 L 90.2 178.3 L 85.8 179.5 L 81.8 177.4 L 77.9 172.3 Z M 120.88674697875976 65.0 L 117.6 71.2 L 114.3380597114563 76.75223884582519 L 117.2 88.2 L 121.5 101.6 L 126.4 113.9 L 132.1 125.2 L 136.16637420654297 131.58107957839965 L 138.5 127.4 L 144.5 113.1 L 149.3 97.5 L 153.0 80.6 L 155.12727270126342 65.0 Z M 75.4 83.3 L 70.6 78.3 L 65.4 73.3 L 63.098844814300534 71.32181396484376 L 58.1 76.8 L 50.4 83.9 L 42.2 90.2 L 33.6 95.4 L 24.7 99.6 L 15.3 102.8 L 14.7 101.1 L 22.9 96.3 L 30.8 90.9 L 38.2 84.9 L 45.2 78.4 L 51.8 71.1 L 56.12615385055542 65.51786603927613 L 53.5 63.4 L 47.0 58.5 L 40.0 53.5 L 32.6 48.4 L 24.9 43.2 L 25.7 41.6 L 34.4 45.1 L 42.7 48.9 L 50.5 52.9 L 57.8 57.2 L 60.7127516746521 59.030872440338136 L 63.8 54.4 L 69.3 44.9 L 74.3 34.6 L 77.11999998092651 28.0 L 20.6 28.0 L 20.6 24.0 L 78.6 24.0 L 78.95576467514039 23.70352945327759 L 79.0 23.6 L 79.0530466079712 23.622461128234864 L 84.6 19.0 L 95.6 28.0 L 90.6 31.0 L 88.34382429122925 31.940073204040527 L 84.6 39.7 L 78.6 50.2 L 72.2 59.9 L 68.76893558502198 64.39065780639649 L 71.2 66.1 L 77.3 70.9 L 83.0 75.7 L 88.2 80.7 L 93.0 85.8 L 94.2 90.2 L 92.1 94.3 L 87.7 95.5 L 83.6 93.4 L 79.7 88.3 Z " />
</g>
</svg>
