<svg xmlns="http://www.w3.org/2000/svg" xmlns:xlink="http://www.w3.org/1999/xlink" version="1.1" baseProfile="full" viewBox="0 0 200 200" width="200" height="200">
<g fill="black">
<path d="M 58.7 177.0 L 70.7 177.0 L 71.9 176.9 L 72.8 176.7 L 73.4 176.5 L 73.8 176.4 L 74.0 176.2 L 74.1 176.0 L 74.3 175.7 L 74.5 175.1 L 74.6 174.2 L 74.7 173.0 L 74.7 141.0 L 35.7 141.0 L 35.7 183.0 L 23.7 189.0 L 23.7 72.0 L 35.7 78.0 L 49.2 78.0 L 49.2 14.0 L 61.2 16.0 L 64.2 18.0 L 61.2 19.8 L 61.2 78.0 L 74.7 78.0 L 80.7 73.0 L 91.7 82.0 L 86.7 86.0 L 86.7 173.0 L 86.6 175.5 L 86.1 178.0 L 85.3 180.4 L 84.1 182.7 L 82.4 184.7 L 80.4 186.3 L 78.2 187.6 L 75.8 188.4 L 73.3 188.8 L 70.7 189.0 L 70.7 183.0 L 58.7 180.0 Z M 157.4 174.1 L 148.5 167.2 L 140.4 159.3 L 139.29466743469237 157.96438989639282 L 129.8 166.5 L 119.0 174.1 L 107.3 180.4 L 94.9 185.3 L 81.7 188.8 L 81.2 187.1 L 93.5 181.8 L 104.8 175.7 L 115.3 168.7 L 124.8 160.7 L 133.5 151.8 L 133.83849925994872 151.371519947052 L 133.2 150.6 L 126.9 141.0 L 121.5 130.6 L 116.9 119.3 L 113.4 107.1 L 111.07307691574097 95.0 L 101.8 95.0 L 101.8 91.0 L 130.8 91.0 L 130.8 14.0 L 142.8 16.0 L 145.8 18.0 L 142.8 19.8 L 142.8 50.0 L 165.4 50.0 L 175.4 40.0 L 187.4 50.0 L 187.4 54.0 L 142.8 54.0 L 142.8 91.0 L 164.2 91.0 L 170.2 86.0 L 181.2 95.0 L 176.2 98.0 L 174.55573120117188 98.68511199951172 L 170.6 109.6 L 164.2 123.4 L 157.0 136.0 L 148.8 147.4 L 146.0759204864502 150.45336380004883 L 147.7 152.1 L 155.5 158.6 L 163.8 164.2 L 172.8 168.9 L 182.4 172.8 L 189.2 175.4 L 177.7 185.1 L 167.1 180.1 Z M 117.4 105.8 L 122.4 117.0 L 127.9 127.2 L 133.9 136.5 L 139.76259784698487 143.87266092300416 L 141.4 141.8 L 148.4 130.8 L 154.6 118.7 L 159.9 105.5 L 163.27762241363524 95.0 L 113.20495872497558 95.0 Z M 35.7 111.0 L 35.7 137.0 L 74.7 137.0 L 74.7 111.0 Z M 35.7 107.0 L 74.7 107.0 L 74.7 82.0 L 35.7 82.0 Z M 42.7 31.8 L 44.9 34.6 L 41.217048740386964 35.439971351623534 L 40.5 37.2 L 38.1 42.6 L 35.5 47.9 L 32.7 53.0 L 29.8 58.1 L 26.7 63.1 L 23.3 67.9 L 19.8 72.7 L 15.9 77.2 L 11.7 81.5 L 10.3 80.4 L 12.7 75.1 L 15.2 69.8 L 20.0 59.4 L 22.2 54.3 L 24.3 49.1 L 26.3 43.8 L 28.1 38.6 L 29.8 33.3 L 31.04231462478638 28.910488224029542 L 31.0 28.9 L 31.8 26.5 Z M 83.8 57.9 L 82.4 54.4 L 80.8 50.9 L 79.1 47.5 L 77.1 44.1 L 74.9 40.6 L 72.6 37.2 L 70.1 33.7 L 67.3 30.3 L 68.4 28.9 L 72.3 31.3 L 76.0 33.9 L 79.4 36.6 L 82.7 39.6 L 85.6 42.8 L 88.4 46.2 L 91.0 49.7 L 93.3 53.4 L 95.4 57.2 L 97.3 61.1 L 97.0 65.7 L 93.6 68.8 L 89.0 68.5 L 85.9 65.1 L 85.0 61.5 Z " />
</g>
</svg>
