<svg xmlns="http://www.w3.org/2000/svg" xmlns:xlink="http://www.w3.org/1999/xlink" version="1.1" baseProfile="full" viewBox="0 0 200 200" width="200" height="200">
<g fill="black">
<path d="M 88.8 155.4 L 86.7 153.2 L 84.2 151.0 L 81.4 148.7 L 78.1 146.3 L 74.6 143.9 L 70.6 141.4 L 67.2 139.21428575515748 L 67.2 183.0 L 55.2 189.0 L 55.2 143.5731707572937 L 54.8 144.1 L 50.5 149.2 L 46.1 154.0 L 41.4 158.4 L 36.5 162.5 L 31.4 166.2 L 26.1 169.6 L 20.6 172.4 L 14.8 174.7 L 13.9 173.2 L 18.5 169.2 L 22.9 165.2 L 27.2 161.1 L 31.4 156.9 L 35.3 152.5 L 39.1 147.8 L 42.7 143.0 L 46.1 137.9 L 49.3 132.5 L 51.2375 129.0 L 15.6 129.0 L 15.6 125.0 L 55.2 125.0 L 55.2 109.0 L 67.2 111.0 L 70.2 113.0 L 67.2 114.8 L 67.2 125.0 L 82.4 125.0 L 92.4 115.0 L 104.4 125.0 L 104.4 129.0 L 67.2 129.0 L 67.2 135.7 L 67.6 135.8 L 72.6 137.1 L 77.2 138.5 L 81.5 140.1 L 85.4 141.8 L 89.1 143.5 L 92.5 145.4 L 95.7 147.4 L 98.5 149.5 L 101.0 151.8 L 102.3 156.2 L 100.3 160.3 L 95.9 161.6 L 91.8 159.5 L 90.5 157.5 Z M 159.8 174.1 L 151.0 167.2 L 143.1 159.3 L 142.04779386520386 158.01067695617675 L 132.7 166.5 L 122.0 174.1 L 110.5 180.4 L 98.2 185.3 L 85.1 188.8 L 84.6 187.1 L 96.7 181.8 L 107.9 175.7 L 118.3 168.7 L 127.7 160.8 L 136.3 151.8 L 136.63149042129515 151.37379808425902 L 136.0 150.6 L 129.7 141.0 L 124.4 130.5 L 119.9 119.3 L 116.4 107.1 L 114.16615381240845 95.0 L 105.0 95.0 L 105.0 91.0 L 133.6 91.0 L 133.6 14.0 L 145.6 16.0 L 148.6 18.0 L 145.6 19.8 L 145.6 50.0 L 171.3181818008423 50.0 L 179.5 41.0 L 189.5 50.0 L 189.5 54.0 L 145.6 54.0 L 145.6 91.0 L 166.6 91.0 L 172.6 86.0 L 183.6 95.0 L 178.6 98.0 L 176.869730758667 98.72094554901123 L 173.0 109.6 L 166.7 123.4 L 159.5 136.0 L 151.4 147.4 L 148.7302574157715 150.45970497131347 L 150.4 152.2 L 158.0 158.6 L 166.3 164.2 L 175.1 168.9 L 184.6 172.8 L 191.4 175.4 L 179.9 185.1 L 169.4 180.1 Z M 120.4 105.8 L 125.4 117.0 L 130.8 127.2 L 136.8 136.5 L 142.51955404281617 143.80343055725098 L 144.0 141.9 L 150.9 130.8 L 157.0 118.7 L 162.3 105.6 L 165.6125 95.0 L 116.20495872497558 95.0 Z M 40.764256191253665 98.49710741043091 L 38.5 101.4 L 34.4 106.0 L 30.1 109.9 L 25.6 113.2 L 20.9 115.9 L 16.0 117.7 L 15.1 116.2 L 18.7 112.8 L 22.1 109.1 L 25.4 105.3 L 28.6 101.1 L 31.6 96.5 L 34.42749996185303 91.52749996185302 L 33.8 90.9 L 31.5 88.8 L 29.1 86.8 L 23.9 82.8 L 21.0 81.1 L 21.6 79.4 L 24.9 80.2 L 28.4 80.9 L 31.7 81.9 L 35.0 83.1 L 37.99964475631714 84.41234455108642 L 39.9 80.1 L 42.4 73.7 L 43.31323528289795 71.0 L 18.0 71.0 L 18.0 67.0 L 44.4 67.0 L 50.4 62.0 L 61.4 71.0 L 56.4 74.0 L 54.30989961624145 74.87087516784668 L 52.9 78.1 L 49.6 84.7 L 46.70662937164307 89.74273166656494 L 47.2 90.1 L 50.1 92.3 L 52.9 94.7 L 54.3 99.1 L 52.3 103.2 L 48.0 104.6 L 43.9 102.7 L 42.1 100.1 Z M 89.0 98.0 L 86.1 95.6 L 83.182857131958 93.2662857055664 L 82.2 94.2 L 78.0 97.6 L 73.6 100.6 L 69.0 103.2 L 64.2 105.2 L 59.1 106.8 L 58.4 105.1 L 62.3 102.0 L 66.0 98.7 L 69.5 95.4 L 72.9 91.9 L 75.90404596328736 88.42657194137573 L 73.6 87.1 L 70.3 85.3 L 66.8 83.5 L 63.2 82.0 L 63.5 80.3 L 67.6 80.5 L 71.7 80.8 L 75.7 81.6 L 79.7 82.6 L 80.15695362091064 82.75231790542603 L 81.9 80.2 L 84.6 75.8 L 87.1 71.2 L 87.19200000762939 71.0 L 63.6 71.0 L 63.6 67.0 L 88.8 67.0 L 89.17621622085571 66.68648653030395 L 89.4 66.2 L 89.62265892028809 66.31445083618163 L 94.8 62.0 L 105.8 71.0 L 100.8 74.0 L 97.89823007583618 75.20907077789306 L 96.9 76.8 L 93.6 81.7 L 90.0 86.2 L 89.67474575042725 86.55949153900147 L 91.4 87.4 L 95.2 89.5 L 98.9 91.9 L 102.5 94.5 L 104.4 98.6 L 103.0 102.9 L 98.9 104.9 L 94.5 103.4 L 91.8 100.7 Z M 74.7 52.3 L 71.0 49.8 L 67.0 47.3 L 62.7 44.9 L 62.695620441436766 44.89781017303467 L 59.0 47.2 L 52.5 50.8 L 45.7 54.0 L 38.6 57.0 L 31.0 59.6 L 23.1 61.8 L 22.4 60.1 L 29.5 56.1 L 36.2 52.2 L 42.6 48.2 L 48.6 44.3 L 53.73389196395874 40.60720052719116 L 53.5 40.5 L 48.6 38.4 L 43.4 36.2 L 38.0 34.0 L 38.3 32.3 L 44.3 32.5 L 50.0 33.2 L 55.6 34.3 L 60.240226364135744 35.43816871643067 L 64.5 31.7 L 69.0 27.3 L 72.01304349899291 24.0 L 31.2 24.0 L 31.2 20.0 L 75.43043479919433 20.0 L 77.0 18.1 L 77.43664121627808 18.46946563720703 L 81.6 15.0 L 92.6 24.0 L 87.6 27.0 L 83.08152494430541 28.882697963714598 L 81.4 30.6 L 76.3 35.1 L 71.34071292877198 39.04906187057495 L 75.8 41.0 L 80.4 43.2 L 84.7 45.7 L 88.9 48.4 L 91.1 52.4 L 89.9 56.8 L 85.9 59.0 L 81.5 57.8 L 78.2 55.0 Z " />
</g>
</svg>
