<svg xmlns="http://www.w3.org/2000/svg" xmlns:xlink="http://www.w3.org/1999/xlink" version="1.1" baseProfile="full" viewBox="0 0 200 200" width="200" height="200">
<g fill="black">
<path d="M 157.0 174.1 L 148.3 167.2 L 140.4 159.3 L 139.3903603553772 158.06283597946168 L 130.1 166.5 L 119.5 174.1 L 108.0 180.4 L 95.8 185.3 L 82.8 188.8 L 82.3 187.1 L 94.4 181.8 L 105.5 175.7 L 115.7 168.7 L 125.1 160.8 L 133.6 151.8 L 133.93149042129517 151.37379808425902 L 133.3 150.6 L 127.1 141.0 L 121.8 130.5 L 117.4 119.2 L 113.9 107.1 L 111.66615381240845 95.0 L 102.6 95.0 L 102.6 91.0 L 131.0 91.0 L 131.0 14.0 L 143.0 16.0 L 146.0 18.0 L 143.0 19.8 L 143.0 50.0 L 168.4181818008423 50.0 L 176.6 41.0 L 186.6 50.0 L 186.6 54.0 L 143.0 54.0 L 143.0 91.0 L 163.8 91.0 L 169.8 86.0 L 180.8 95.0 L 175.8 98.0 L 174.03947887420654 98.73355045318604 L 170.2 109.6 L 163.9 123.4 L 156.8 136.0 L 148.8 147.4 L 146.09355964660645 150.50176305770873 L 147.7 152.2 L 155.3 158.6 L 163.5 164.2 L 172.3 168.9 L 181.8 172.8 L 188.4 175.4 L 176.9 185.1 L 166.6 180.1 Z M 34.3 176.0 L 50.3 176.0 L 51.5 175.9 L 52.5 175.7 L 53.0 175.5 L 53.4 175.4 L 53.6 175.2 L 53.7 175.0 L 53.9 174.7 L 54.1 174.1 L 54.2 173.2 L 54.3 172.0 L 54.3 131.66086959838867 L 44.9 133.5 L 35.8 135.3 L 26.6 137.0 L 21.548385334014892 137.94370822906495 L 19.9 141.4 L 17.5 138.7 L 13.7 127.2 L 15.7 126.9 L 34.1 124.7 L 52.7 122.5 L 54.3 122.32795696258545 L 54.3 102.0 L 62.68333330154419 103.3972222328186 L 63.5 101.9 L 65.4 98.7 L 71.1 89.4 L 73.0 86.4 L 74.8 83.3 L 74.98620691299439 83.0 L 32.2 83.0 L 32.2 79.0 L 77.2 79.0 L 77.68000001907349 78.6 L 78.4 77.4 L 78.78145694732666 77.68211917877197 L 83.2 74.0 L 90.53333330154419 80.0 L 91.2 77.4 L 91.9 73.6 L 92.5 70.0 L 93.2 66.6 L 93.8 63.3 L 94.3 60.3 L 94.8 57.4 L 95.3 54.7 L 95.45 53.4 L 27.27857141494751 53.4 L 27.5 56.5 L 27.6 61.7 L 27.5 66.5 L 27.2 70.8 L 26.7 74.8 L 25.9 78.4 L 24.9 81.7 L 23.4 84.7 L 19.4 87.0 L 15.0 85.9 L 12.7 81.9 L 13.8 77.5 L 14.8 76.4 L 16.0 74.6 L 17.2 72.2 L 18.4 69.0 L 19.4 65.3 L 20.4 61.0 L 21.4 56.2 L 22.2 50.7 L 23.1 44.8 L 23.9 38.3 L 25.7 38.2 L 26.5 44.8 L 26.952459049224853 49.4 L 74.92745094299316 49.4 L 75.9 46.3 L 77.1 41.3 L 78.4 36.8 L 79.6 32.5 L 80.8 28.5 L 81.8 24.8 L 82.6 21.4 L 83.4 18.3 L 84.0 15.4 L 84.29558820724488 13.922058868408204 L 84.2 13.9 L 84.46666669845581 13.06666669845581 L 84.5 12.9 L 84.51811828613282 12.905880451202393 L 85.0 11.4 L 95.9 16.6 L 98.1 19.5 L 94.05789470672607 20.438345909118652 L 93.3 21.9 L 91.8 24.9 L 90.1 28.1 L 88.2 31.5 L 86.2 35.2 L 83.9 39.1 L 81.5 43.2 L 78.7 47.5 L 77.58478260040283 49.4 L 95.7 49.4 L 101.7 44.4 L 112.7 53.4 L 107.7 56.4 L 105.41499996185303 57.35208330154419 L 105.2 57.8 L 103.9 60.4 L 102.5 63.1 L 101.0 65.9 L 99.4 68.8 L 97.7 71.9 L 95.8 75.1 L 93.8 78.4 L 92.19388484954834 81.35863313674926 L 94.2 83.0 L 89.2 86.0 L 84.99698495864868 87.751256275177 L 83.1 89.8 L 78.0 94.9 L 72.6 99.9 L 69.8 102.4 L 67.16769227981567 104.57846155166627 L 69.3 106.0 L 66.3 107.8 L 66.3 120.99139785766602 L 71.3 120.4 L 80.7 119.4 L 90.1 118.5 L 99.5 117.7 L 109.0 117.1 L 109.3 118.8 L 100.2 121.4 L 91.0 123.8 L 81.7 125.9 L 66.3 129.24782609939575 L 66.3 172.0 L 66.2 174.5 L 65.7 177.0 L 64.9 179.4 L 63.7 181.7 L 62.1 183.7 L 60.0 185.3 L 57.8 186.6 L 55.4 187.4 L 52.9 187.8 L 50.3 188.0 L 50.3 182.0 L 34.3 179.0 Z M 117.9 105.8 L 122.8 117.0 L 128.3 127.2 L 134.2 136.5 L 139.86938247680663 143.7393653869629 L 141.3 141.9 L 148.2 130.8 L 154.3 118.8 L 159.5 105.6 L 162.83566436767578 95.0 L 113.79421491622925 95.0 Z M 36.2 35.1 L 35.9 32.8 L 35.5 30.4 L 35.0 28.1 L 34.3 25.7 L 33.5 23.3 L 32.6 20.9 L 31.6 18.4 L 30.1 16.1 L 31.4 14.9 L 33.5 16.8 L 35.8 18.6 L 37.9 20.5 L 39.8 22.6 L 41.6 24.8 L 43.3 27.1 L 44.8 29.6 L 46.1 32.2 L 47.2 34.8 L 48.2 37.6 L 47.1 42.1 L 43.3 44.5 L 38.8 43.5 L 36.4 39.6 L 36.3 37.3 Z M 57.1 32.2 L 56.9 29.7 L 56.6 27.2 L 55.6 22.2 L 54.9 19.7 L 54.1 17.2 L 53.2 14.7 L 51.8 12.4 L 53.1 11.2 L 55.2 13.2 L 57.4 15.0 L 59.4 17.1 L 61.3 19.3 L 63.0 21.7 L 64.5 24.3 L 65.9 27.0 L 67.1 29.9 L 68.2 32.9 L 69.1 36.0 L 67.8 40.4 L 63.8 42.7 L 59.4 41.4 L 57.2 37.5 L 57.2 34.8 Z " />
</g>
</svg>
