<svg xmlns="http://www.w3.org/2000/svg" xmlns:xlink="http://www.w3.org/1999/xlink" version="1.1" baseProfile="full" viewBox="0 0 200 200" width="200" height="200">
<g fill="black">
<path d="M 73.2 176.8 L 88.4 176.8 L 89.3 176.6 L 89.9 176.4 L 90.5 176.1 L 90.6 175.9 L 90.8 175.6 L 91.0 175.0 L 91.1 174.1 L 91.2 172.8 L 91.2 114.3 L 29.7 114.3 L 29.7 183.2 L 17.7 189.2 L 17.7 104.3 L 26.5 108.7 L 26.5 46.3 L 38.5 52.3 L 53.0 52.3 L 53.0 12.0 L 65.0 14.0 L 68.0 16.0 L 65.0 17.8 L 65.0 31.0 L 84.91818180084229 31.0 L 93.1 22.0 L 103.1 31.0 L 103.1 35.0 L 65.0 35.0 L 65.0 52.3 L 82.4 52.3 L 88.4 47.3 L 99.4 56.3 L 94.4 60.3 L 94.4 107.63333330154418 L 97.2 105.3 L 108.2 114.3 L 103.2 118.3 L 103.2 172.8 L 103.1 175.4 L 102.6 177.9 L 101.8 180.3 L 100.6 182.6 L 98.9 184.6 L 96.9 186.2 L 94.7 187.4 L 92.3 188.3 L 89.8 188.7 L 87.2 188.8 L 87.2 182.8 L 73.2 179.8 Z M 158.3 173.7 L 149.9 166.7 L 143.30477132797242 159.84443340301513 L 138.2 165.8 L 129.7 173.6 L 120.7 180.0 L 111.2 185.1 L 101.2 188.7 L 100.5 187.0 L 109.4 181.7 L 117.6 175.7 L 125.3 168.7 L 132.5 160.7 L 138.09152545928956 153.2724513053894 L 135.6 150.0 L 129.7 140.3 L 124.6 129.8 L 120.4 118.4 L 117.1 106.1 L 114.94153842926025 93.9 L 106.2 93.9 L 106.2 89.9 L 133.4 89.9 L 133.4 12.1 L 145.4 14.1 L 148.4 16.1 L 145.4 17.9 L 145.4 48.5 L 169.11818180084228 48.5 L 177.3 39.5 L 187.3 48.5 L 187.3 52.5 L 145.4 52.5 L 145.4 89.9 L 164.7 89.9 L 170.7 84.9 L 181.7 93.9 L 176.7 96.9 L 175.15161294937133 97.54516124725342 L 171.5 108.5 L 166.0 122.3 L 160.0 135.0 L 153.3 146.5 L 149.63627815246582 151.61917295455933 L 149.8 151.8 L 157.2 158.4 L 165.0 164.0 L 173.5 168.7 L 182.5 172.6 L 188.9 175.3 L 177.5 184.8 L 167.5 179.8 Z M 77.7 156.5 L 77.0 154.4 L 76.1 152.2 L 75.88695650100708 151.77391300201415 L 71.8 153.0 L 65.5 155.1 L 59.7 156.8 L 54.6 158.4 L 50.0 159.7 L 46.1 161.0 L 42.8 162.0 L 40.80689659118652 162.66436777114868 L 39.1 166.9 L 36.5 164.4 L 32.1 153.0 L 34.1 152.6 L 35.7 152.6 L 38.0 152.5 L 40.9 152.3 L 43.37333335876465 152.15450983047486 L 43.8 151.0 L 45.2 146.5 L 46.8 142.2 L 48.2 138.0 L 49.7 134.0 L 51.0 130.1 L 52.3 126.4 L 53.4 122.8 L 54.5 119.3 L 55.21652593612671 116.93546438217163 L 55.1 116.9 L 56.0 114.7 L 66.6 120.4 L 68.7 123.4 L 64.82667818069459 124.00103273391724 L 63.1 127.0 L 61.2 130.4 L 59.2 133.9 L 57.0 137.5 L 54.7 141.2 L 52.2 144.9 L 49.5 148.7 L 47.109459495544435 151.8324324607849 L 48.5 151.7 L 53.2 151.2 L 58.6 150.7 L 64.5 150.2 L 71.2 149.7 L 74.68957052230834 149.40920248031617 L 73.5 147.2 L 71.8 144.4 L 69.9 141.5 L 67.8 138.3 L 65.2 135.3 L 66.4 134.0 L 69.6 136.5 L 72.8 138.6 L 75.8 140.7 L 78.4 142.9 L 80.9 145.1 L 83.1 147.3 L 85.1 149.5 L 86.9 151.7 L 88.4 153.9 L 89.7 156.3 L 89.3 160.8 L 85.9 163.8 L 81.3 163.4 L 78.3 160.0 L 78.1 158.4 Z M 121.1 104.9 L 125.9 116.2 L 131.1 126.6 L 136.8 136.0 L 143.1 144.4 L 143.44150342941285 144.77718286514283 L 145.3 141.7 L 151.0 130.5 L 156.1 118.2 L 160.8 104.8 L 163.8820689201355 93.9 L 117.04262294769288 93.9 Z M 38.5 56.3 L 38.5 110.3 L 82.4 110.3 L 82.4 56.3 Z M 68.3 98.0 L 67.7 96.0 L 66.8 93.9 L 65.8 91.7 L 64.7 89.4 L 63.4 87.0 L 61.9 84.4 L 60.925059700012206 82.64510736465454 L 60.9 82.7 L 58.5 87.2 L 56.0 91.5 L 53.3 95.6 L 50.3 99.5 L 47.0 103.1 L 43.5 106.5 L 42.1 105.4 L 44.0 101.1 L 45.8 96.7 L 47.6 92.4 L 49.3 88.1 L 50.9 83.7 L 52.3 79.3 L 53.6 74.7 L 54.7 70.1 L 55.7 65.4 L 56.41219263076782 61.601639366149904 L 56.4 61.6 L 56.5 61.13333330154419 L 56.6 60.6 L 56.61363639831543 60.60303030014038 L 57.0 58.8 L 68.3 63.2 L 70.8 65.9 L 67.07757005691528 67.09649534225464 L 66.7 68.3 L 65.0 73.3 L 63.0 78.1 L 62.125328350067136 80.01594743728637 L 64.8 81.7 L 67.3 83.5 L 69.6 85.3 L 71.7 87.2 L 73.7 89.0 L 75.6 90.9 L 77.3 92.9 L 78.8 94.8 L 80.2 96.8 L 80.2 101.4 L 77.1 104.7 L 72.5 104.7 L 69.2 101.6 L 68.8 99.8 Z " />
</g>
</svg>
