<svg xmlns="http://www.w3.org/2000/svg" xmlns:xlink="http://www.w3.org/1999/xlink" version="1.1" baseProfile="full" viewBox="0 0 200 200" width="200" height="200">
<g fill="black">
<path d="M 155.1 169.5 L 145.7 160.8 L 137.3 151.1 L 135.25879049301147 148.09488592147827 L 128.0 157.0 L 117.0 167.4 L 104.8 176.2 L 91.3 183.3 L 76.8 188.8 L 76.1 187.1 L 89.6 180.0 L 101.7 171.8 L 112.6 162.5 L 122.2 152.0 L 130.273268699646 140.75509004592897 L 130.1 140.5 L 123.9 129.0 L 118.9 116.6 L 114.9 103.3 L 112.2 89.1 L 111.3521918296814 80.01634149551391 L 106.8 86.8 L 101.2 93.9 L 95.2 100.5 L 93.8 99.4 L 98.1 91.7 L 102.2 83.9 L 106.2 76.0 L 109.9 67.9 L 113.4 59.5 L 116.5 50.8 L 119.4 41.9 L 122.1 32.8 L 124.4 23.3 L 126.4 13.6 L 126.41363639831543 13.60303030014038 L 126.8 11.8 L 138.1 16.2 L 140.6 18.8 L 137.06861839294433 20.01993179321289 L 135.4 26.2 L 132.3 35.9 L 128.9 45.2 L 125.2 54.2 L 121.9954023361206 61.0 L 165.6 61.0 L 175.6 51.0 L 187.6 61.0 L 187.6 65.0 L 166.77421054840087 65.0 L 163.7 82.7 L 159.1 100.5 L 153.3 116.8 L 146.1 131.7 L 141.1852084159851 139.5402626991272 L 145.2 144.6 L 153.4 152.9 L 162.3 160.2 L 172.2 166.5 L 182.9 172.0 L 188.5 174.7 L 177.1 183.9 L 165.6 177.2 Z M 50.6 138.2 L 52.6 141.2 L 48.84074077606201 141.71851854324342 L 47.9 143.6 L 44.9 148.9 L 41.7 154.0 L 38.4 159.0 L 34.8 163.8 L 31.0 168.4 L 27.0 172.8 L 22.8 177.0 L 18.3 181.0 L 13.5 184.6 L 12.2 183.3 L 15.5 178.4 L 21.9 168.8 L 24.9 163.9 L 27.8 159.1 L 30.5 154.1 L 33.0 149.1 L 35.4 144.0 L 37.6 138.8 L 39.25363130569458 134.4178771018982 L 39.2 134.4 L 40.1 132.3 Z M 77.5 161.4 L 76.3 157.8 L 74.9 154.3 L 73.3 150.9 L 71.5 147.5 L 69.5 144.1 L 67.4 140.8 L 65.1 137.5 L 62.5 134.3 L 63.7 132.9 L 67.3 135.2 L 70.8 137.6 L 74.1 140.3 L 77.2 143.2 L 80.0 146.4 L 82.6 149.8 L 85.0 153.4 L 87.2 157.2 L 89.2 161.2 L 91.0 165.3 L 90.4 169.9 L 86.9 172.8 L 82.4 172.3 L 79.5 168.8 L 78.6 165.0 Z M 119.98674697875977 65.0 L 116.7 71.2 L 113.36158828735351 76.76401948928833 L 116.3 88.2 L 120.6 101.6 L 125.6 113.9 L 131.3 125.1 L 135.49595832824707 131.64823799133302 L 137.9 127.4 L 143.9 113.1 L 148.8 97.5 L 152.5 80.6 L 154.53863639831542 65.0 Z M 11.8 118.0 L 34.5 118.0 L 34.5 65.0 L 14.8 65.0 L 14.8 61.0 L 34.5 61.0 L 34.5 16.0 L 46.5 18.0 L 49.5 20.0 L 46.5 21.8 L 46.5 61.0 L 65.2 61.0 L 65.2 16.0 L 77.2 18.0 L 80.2 20.0 L 77.2 21.8 L 77.2 61.0 L 82.77777776718139 61.0 L 89.0 54.0 L 97.0 61.0 L 97.0 65.0 L 77.2 65.0 L 77.2 118.0 L 81.71818180084229 118.0 L 89.9 109.0 L 99.9 118.0 L 99.9 122.0 L 11.8 122.0 Z M 46.5 65.0 L 46.5 118.0 L 65.2 118.0 L 65.2 65.0 Z " />
</g>
</svg>
