<svg xmlns="http://www.w3.org/2000/svg" xmlns:xlink="http://www.w3.org/1999/xlink" version="1.1" baseProfile="full" viewBox="0 0 200 200" width="200" height="200">
<g fill="black">
<path d="M 158.9 174.0 L 150.4 167.1 L 142.7 159.3 L 141.76231985092164 158.10411806106566 L 132.9 166.5 L 122.5 174.1 L 111.3 180.4 L 99.4 185.3 L 86.7 188.8 L 86.37561521530151 187.6970917701721 L 86.3 187.7 L 86.3 187.43999996185303 L 86.2 187.1 L 86.3 187.05470085144043 L 86.3 181.7 L 70.3 178.7 L 70.3 175.7 L 87.5 175.7 L 88.4 175.5 L 89.0 175.3 L 89.4 175.2 L 89.6 175.0 L 89.7 174.8 L 89.9 174.5 L 90.1 173.9 L 90.2 173.0 L 90.3 171.7 L 90.3 120.7 L 57.5375 120.7 L 56.3 124.0 L 54.1 129.5 L 51.8 134.8 L 49.4 140.1 L 46.9 145.1 L 45.25884847640991 148.0783860206604 L 46.9 147.9 L 51.6 147.4 L 56.3 147.1 L 61.1 146.8 L 66.0 146.6 L 70.9 146.5 L 73.32152462005615 146.59686098098754 L 73.1 145.6 L 72.3 142.9 L 71.5 140.1 L 69.7 134.3 L 68.7 131.2 L 67.3 128.3 L 68.8 127.3 L 70.9 129.8 L 73.2 132.1 L 75.4 134.6 L 77.3 137.0 L 79.2 139.6 L 80.9 142.2 L 82.5 144.8 L 84.0 147.4 L 86.6 152.8 L 86.0 157.4 L 82.4 160.2 L 77.9 159.6 L 75.0 156.1 L 74.7 153.5 L 74.18645515441895 150.82956657409667 L 71.6 151.6 L 66.9 152.9 L 62.2 154.1 L 48.7 157.7 L 44.3 158.8 L 40.0 160.0 L 39.92240962982178 160.02216863632202 L 38.4 163.8 L 35.8 161.2 L 31.4 149.9 L 33.3 149.5 L 37.8 148.9 L 40.602531623840335 148.58860759735109 L 41.8 143.2 L 43.2 137.8 L 46.0 126.8 L 47.4 121.2 L 47.53157892227173 120.7 L 26.0 120.7 L 26.0 178.7 L 14.0 184.7 L 14.0 110.7 L 26.0 116.7 L 48.58421049118042 116.7 L 48.9 115.5 L 50.2 109.7 L 51.6 103.8 L 52.76388740539551 98.81191120147705 L 52.7 98.8 L 53.4 96.2 L 64.5 101.0 L 66.9 103.7 L 63.299199962615965 104.72880001068116 L 62.6 106.9 L 60.5 112.7 L 59.02631578445435 116.7 L 90.3 116.7 L 96.3 111.7 L 107.3 120.7 L 102.3 124.7 L 102.3 171.7 L 102.2 174.3 L 101.7 176.8 L 100.9 179.2 L 100.23013696670532 180.48390407562255 L 108.7 175.7 L 118.7 168.7 L 127.8 160.8 L 136.1 151.9 L 136.48999996185302 151.3800000190735 L 135.8 150.5 L 129.8 140.9 L 124.6 130.5 L 120.3 119.2 L 116.9 107.1 L 114.75923080444336 95.0 L 105.9 95.0 L 105.9 91.0 L 133.5 91.0 L 133.5 14.0 L 145.5 16.0 L 148.5 18.0 L 145.5 19.8 L 145.5 50.0 L 169.61818180084228 50.0 L 177.8 41.0 L 187.8 50.0 L 187.8 54.0 L 145.5 54.0 L 145.5 91.0 L 165.4 91.0 L 171.4 86.0 L 182.4 95.0 L 177.4 98.0 L 175.78857145309448 98.6714285850525 L 172.0 109.6 L 165.9 123.3 L 158.9 135.9 L 151.1 147.3 L 148.4287250518799 150.4318395614624 L 150.1 152.2 L 157.5 158.7 L 165.5 164.3 L 174.1 169.0 L 183.2 172.8 L 189.8 175.5 L 178.3 185.1 L 168.2 180.0 Z M 120.9 105.9 L 125.8 117.0 L 131.1 127.3 L 136.9 136.5 L 142.275 143.6666666984558 L 143.6 141.9 L 150.3 130.9 L 156.2 118.8 L 161.3 105.6 L 164.5615385055542 95.0 L 116.87950820922852 95.0 Z M 64.5 15.4 L 67.5 17.4 L 64.5 19.2 L 64.5 28.2 L 77.51818180084229 28.2 L 85.7 19.2 L 95.7 28.2 L 95.7 32.2 L 64.5 32.2 L 64.5 44.1 L 83.0 44.1 L 89.0 39.1 L 100.0 48.1 L 95.0 52.1 L 95.0 98.7 L 83.0 104.7 L 83.0 94.7 L 33.9 94.7 L 33.9 101.7 L 21.9 107.7 L 21.9 38.1 L 33.9 44.1 L 52.5 44.1 L 52.5 13.4 Z M 33.9 90.7 L 83.0 90.7 L 83.0 48.1 L 33.9 48.1 Z M 65.5 79.0 L 62.9 76.1 L 61.60483560562134 74.75686655044555 L 59.8 76.1 L 55.3 79.2 L 50.6 82.1 L 45.7 84.7 L 40.5 87.1 L 35.1 89.1 L 34.2 87.5 L 38.6 83.8 L 42.8 80.2 L 46.8 76.7 L 50.7 73.2 L 55.28620691299439 68.61379308700562 L 54.2 67.6 L 51.0 64.8 L 47.7 61.9 L 44.2 59.0 L 40.6 56.1 L 41.5 54.5 L 45.9 56.1 L 50.2 57.8 L 54.3 59.7 L 58.3 61.8 L 60.44492893218994 63.04180097579956 L 61.0 62.4 L 64.1 58.7 L 66.9 55.0 L 68.93682308197022 52.023104667663574 L 68.9 52.0 L 69.30740737915039 51.48148145675659 L 69.5 51.2 L 69.51797752380371 51.21348314285278 L 70.0 50.6 L 79.1 58.4 L 80.3 61.8 L 76.48037309646607 61.404866218566895 L 75.7 62.3 L 72.0 66.0 L 69.20773477554322 68.57182321548461 L 69.4 68.7 L 72.8 71.3 L 76.0 74.0 L 79.2 76.8 L 80.7 81.1 L 78.8 85.2 L 74.5 86.7 L 70.3 84.9 L 68.0 81.9 Z " />
</g>
</svg>
