<svg xmlns="http://www.w3.org/2000/svg" xmlns:xlink="http://www.w3.org/1999/xlink" version="1.1" baseProfile="full" viewBox="0 0 200 200" width="200" height="200">
<g fill="black">
<path d="M 53.9 107.4 L 52.4 103.9 L 50.8 100.6 L 49.3 97.5 L 47.6 94.4 L 46.4 92.35294113159179 L 46.4 183.0 L 34.4 189.0 L 34.4 113.08064517974853 L 32.7 118.4 L 29.3 127.7 L 25.7 136.4 L 21.8 144.7 L 17.6 152.3 L 13.1 159.4 L 11.5 158.5 L 14.2 150.7 L 16.9 142.6 L 19.5 134.1 L 22.1 125.3 L 24.5 116.0 L 26.8 106.3 L 29.0 96.1 L 31.0 85.5 L 32.8 74.5 L 34.4 63.676470565795896 L 34.4 62.0 L 14.2 62.0 L 14.2 58.0 L 34.4 58.0 L 34.4 15.0 L 46.4 17.0 L 49.4 19.0 L 46.4 20.8 L 46.4 58.0 L 51.7777777671814 58.0 L 58.0 51.0 L 66.0 58.0 L 66.0 62.0 L 46.4 62.0 L 46.4 84.87931032180786 L 47.5 85.6 L 50.3 87.7 L 53.0 90.2 L 55.7 92.9 L 58.2 95.8 L 60.7 99.0 L 63.1 102.4 L 65.4 105.9 L 67.6 109.7 L 67.8 114.3 L 64.7 117.7 L 60.2 117.8 L 56.8 114.8 L 55.4 111.0 Z M 105.7 107.4 L 104.2 103.9 L 102.7 100.6 L 99.5 94.4 L 98.3 92.35294113159179 L 98.3 183.0 L 86.3 189.0 L 86.3 102.29117650985718 L 84.8 107.1 L 81.1 117.6 L 77.1 127.4 L 72.8 136.6 L 68.2 145.2 L 63.2 153.2 L 57.8 160.4 L 56.3 159.5 L 59.9 151.4 L 63.4 142.9 L 66.8 134.0 L 70.0 124.7 L 73.0 114.8 L 75.9 104.5 L 78.5 93.7 L 80.9 82.3 L 83.1 70.4 L 84.58421049118041 61.0 L 69.2 61.0 L 69.2 57.0 L 86.3 57.0 L 86.3 14.0 L 98.3 16.0 L 101.3 18.0 L 98.3 19.8 L 98.3 57.0 L 101.0 57.0 L 111.0 47.0 L 123.0 57.0 L 123.0 61.0 L 98.3 61.0 L 98.3 84.90333337783814 L 99.4 85.6 L 102.2 87.7 L 104.9 90.2 L 107.5 92.9 L 110.1 95.8 L 112.5 99.0 L 114.9 102.4 L 117.2 105.9 L 119.5 109.7 L 119.6 114.3 L 116.6 117.7 L 112.0 117.8 L 108.6 114.8 L 107.2 111.0 Z M 161.3 168.8 L 154.7 160.1 L 148.8 150.5 L 148.66587181091307 150.21564826965331 L 145.0 156.5 L 137.0 167.0 L 128.1 175.9 L 118.3 183.2 L 107.6 188.7 L 106.8 187.2 L 116.0 180.1 L 124.4 172.1 L 131.9 162.9 L 138.5 152.5 L 144.3334328651428 141.03087768554687 L 143.8 139.9 L 139.6 128.5 L 136.2 116.2 L 133.7 103.0 L 132.0 89.0 L 131.7259259223938 82.1481481552124 L 129.6 86.4 L 125.4 93.6 L 120.8 100.4 L 119.2 99.5 L 122.0 92.0 L 124.7 84.3 L 127.3 76.4 L 129.8 68.3 L 132.1 59.9 L 134.3 51.3 L 136.2 42.4 L 138.0 33.2 L 139.6 23.7 L 140.9 14.0 L 140.96493864059448 14.010368347167969 L 141.3 12.0 L 152.8 15.9 L 155.4 18.3 L 152.03848352432252 19.669506740570068 L 150.8 25.8 L 148.5 35.5 L 146.0 44.8 L 143.2 53.8 L 140.71724138259887 61.0 L 168.01818180084229 61.0 L 176.2 52.0 L 186.2 61.0 L 186.2 65.0 L 173.09789476394653 65.0 L 170.9 82.4 L 167.5 100.1 L 163.3 116.3 L 158.1 131.1 L 154.30079011917115 139.44580526351928 L 157.7 145.3 L 163.6 153.6 L 170.0 160.8 L 177.0 167.1 L 184.5 172.5 L 188.1 174.9 L 177.1 183.4 L 168.8 176.6 Z M 139.2361445426941 65.0 L 137.0 70.8 L 133.93999996185303 77.6 L 136.1 88.4 L 139.4 101.8 L 143.2 114.2 L 147.5 125.6 L 149.01888113021852 128.89090909957886 L 149.4 127.9 L 153.6 113.6 L 157.0 97.9 L 159.6 80.9 L 161.0212290763855 65.0 Z " />
</g>
</svg>
