<svg xmlns="http://www.w3.org/2000/svg" xmlns:xlink="http://www.w3.org/1999/xlink" version="1.1" baseProfile="full" viewBox="0 0 200 200" width="200" height="200">
<g fill="black">
<path d="M 156.4 169.4 L 147.5 160.7 L 139.6 151.0 L 138.7689250946045 149.70450086593627 L 135.4 154.8 L 126.5 165.4 L 116.5 174.7 L 105.6 182.5 L 93.8 188.7 L 92.9 187.2 L 103.4 179.4 L 112.9 170.7 L 121.5 161.1 L 129.2 150.4 L 133.9235489845276 142.1514144897461 L 132.8 140.4 L 127.0 128.9 L 122.3 116.5 L 118.7 103.2 L 116.2 89.1 L 115.43790912628174 80.30664386749268 L 111.4 86.7 L 106.1 93.8 L 100.3 100.5 L 98.9 99.4 L 102.9 91.8 L 106.7 84.0 L 110.4 76.1 L 113.9 67.9 L 117.1 59.6 L 120.1 50.9 L 122.8 42.0 L 125.2 32.9 L 127.4 23.4 L 129.10402517318727 14.700503158569337 L 129.1 14.7 L 129.14799995422362 14.476000022888183 L 129.3 13.7 L 129.31366529464722 13.702895164489746 L 129.7 11.9 L 141.1 16.2 L 143.6 18.7 L 140.12847909927368 19.899252700805665 L 138.5 26.1 L 135.6 35.8 L 132.3 45.2 L 128.8 54.2 L 125.71627902984619 61.0 L 165.3 61.0 L 175.3 51.0 L 187.3 61.0 L 187.3 65.0 L 167.9704917907715 65.0 L 165.2 81.9 L 161.3 99.0 L 156.3 114.9 L 150.3 129.4 L 144.52635078430177 140.52891817092896 L 147.7 144.7 L 155.4 153.0 L 163.9 160.3 L 173.1 166.6 L 183.2 172.1 L 188.4 174.8 L 177.1 183.8 L 166.3 177.1 Z M 80.5 178.6 L 76.7 176.8 L 72.4 175.0 L 67.6 173.2 L 65.54878330230713 172.54206256866456 L 60.0 176.0 L 52.3 179.7 L 43.9 182.8 L 34.6 185.2 L 24.6 186.8 L 13.8 187.8 L 13.5 186.0 L 23.8 183.1 L 33.2 180.0 L 41.6 176.6 L 49.0 172.9 L 54.68074550628662 169.31676054000854 L 50.1 168.1 L 43.4 166.2 L 40.556065464019774 165.4597978591919 L 38.0 169.7 L 24.6 168.6 L 37.30921983718872 147.6 L 12.7 147.6 L 12.7 143.6 L 39.73002367019653 143.6 L 50.2 126.3 L 59.4 134.2 L 61.0 137.5 L 57.14781818389893 137.93609609603882 L 53.73352108001709 143.6 L 83.8 143.6 L 93.8 133.6 L 105.8 143.6 L 105.8 147.6 L 86.0 147.6 L 82.6 154.6 L 78.2 160.9 L 73.71375341415406 165.81761646270752 L 75.1 166.1 L 80.0 167.3 L 84.6 168.7 L 88.8 170.2 L 92.6 171.9 L 95.3 175.6 L 94.6 180.2 L 90.9 182.8 L 86.4 182.2 L 83.7 180.4 Z M 51.32225351333618 147.6 L 42.3402816772461 162.5 L 43.9 162.5 L 51.0 162.8 L 57.7 163.3 L 61.68571424484253 163.81428575515747 L 65.8 159.7 L 69.5 154.6 L 72.5 149.3 L 73.14324321746827 147.6 Z M 34.4 89.8 L 82.2 89.8 L 88.2 84.8 L 99.2 93.8 L 94.2 97.8 L 94.2 127.9 L 82.2 133.9 L 82.2 125.9 L 34.4 125.9 L 34.4 128.9 L 22.4 134.9 L 22.4 83.8 Z M 123.82619047164917 65.0 L 120.8 71.2 L 117.4730502128601 76.91367454528809 L 120.3 88.3 L 124.4 101.6 L 129.1 114.0 L 134.5 125.2 L 138.79136304855348 132.32919998168944 L 141.8 125.7 L 146.8 111.7 L 150.9 96.4 L 154.0 79.9 L 155.94715909957887 65.0 Z M 34.4 109.3 L 34.4 121.9 L 82.2 121.9 L 82.2 109.3 Z M 34.4 93.8 L 34.4 105.3 L 82.2 105.3 L 82.2 93.8 Z M 14.5 75.7 L 53.5 75.7 L 53.5 29.52608699798584 L 49.70309276580811 27.875257778167725 L 47.3 28.6 L 45.4 28.8 L 43.4 28.9 L 39.2 29.1 L 32.3 29.1 L 30.6 29.03199996948242 L 30.6 43.0 L 34.3777777671814 43.0 L 40.6 36.0 L 48.6 43.0 L 48.6 47.0 L 30.6 47.0 L 30.6 60.6 L 34.3777777671814 60.6 L 40.6 53.6 L 48.6 60.6 L 48.6 64.6 L 30.6 64.6 L 18.6 70.6 L 18.6 20.3 L 28.90833330154419 25.45416669845581 L 29.0 25.4 L 31.1 24.2 L 33.2 23.1 L 37.0 21.1 L 40.6 19.1 L 42.2 18.1 L 42.878260898590085 17.693043518066407 L 42.8 17.5 L 42.96530609130859 17.640816307067873 L 43.7 17.2 L 44.160799980163574 18.65920000076294 L 53.5 26.614814853668214 L 53.5 12.3 L 65.5 14.3 L 68.5 16.3 L 65.5 18.1 L 65.5 75.7 L 93.9 75.7 L 98.4 69.7 L 104.4 75.7 L 104.4 79.7 L 14.5 79.7 Z M 102.6 30.3 L 97.6 34.3 L 97.6 64.6 L 85.6 70.6 L 85.6 64.6 L 68.4 64.6 L 68.4 60.6 L 85.6 60.6 L 85.6 47.0 L 68.4 47.0 L 68.4 43.0 L 85.6 43.0 L 85.6 30.3 L 68.4 30.3 L 68.4 26.3 L 85.6 26.3 L 91.6 21.3 Z " />
</g>
</svg>
