<svg xmlns="http://www.w3.org/2000/svg" xmlns:xlink="http://www.w3.org/1999/xlink" version="1.1" baseProfile="full" viewBox="0 0 200 200" width="200" height="200">
<g fill="black">
<path d="M 32.10792083740235 29.803960418701173 L 33.7 29.4 L 40.3 27.8 L 46.8 26.3 L 53.2 24.7 L 59.4 23.1 L 65.6 21.4 L 71.6 19.6 L 77.6 17.7 L 83.4 15.7 L 88.12552146911621 13.959018421173095 L 88.1 13.9 L 88.15649900436401 13.947605609893799 L 89.1 13.6 L 89.62961378097535 15.188841247558594 L 98.9 23.0 L 99.1 26.1 L 95.08757762908935 24.270807456970214 L 92.9 25.0 L 86.7 26.6 L 80.4 28.0 L 74.1 29.3 L 67.6 30.5 L 61.1 31.4 L 54.5 32.2 L 47.8 32.8 L 41.0 33.1 L 34.1 33.2 L 32.5 33.108571434020995 L 32.5 51.0 L 87.5 51.0 L 93.5 46.0 L 104.5 55.0 L 99.5 59.0 L 99.5 87.0 L 87.5 93.0 L 87.5 87.0 L 32.5 87.0 L 32.5 101.0 L 32.0 112.8 L 31.2 124.0 L 30.1 134.6 L 28.7 144.5 L 27.0 153.9 L 25.0 162.5 L 22.7 170.6 L 20.0 177.9 L 16.9 184.5 L 13.4 190.3 L 11.8 189.6 L 13.4 183.2 L 14.9 176.3 L 16.3 169.0 L 17.5 161.0 L 18.6 152.5 L 19.4 143.4 L 20.1 133.7 L 20.4 123.4 L 20.6 112.5 L 20.500873374938966 101.00131006240845 L 20.5 101.0 L 20.5 24.0 Z M 81.7 91.6 L 84.7 93.6 L 81.7 95.4 L 81.7 145.17373132705688 L 85.96839141845703 144.5302872657776 L 91.2 136.8 L 100.1 142.4 L 100.6 146.3 L 81.7 149.15336322784424 L 81.7 182.8 L 69.7 188.8 L 69.7 150.9650224685669 L 33.7 156.4 L 33.1 152.5 L 69.7 146.9826865196228 L 69.7 89.6 Z M 126.0 122.0 L 164.4 122.0 L 170.4 117.0 L 181.4 126.0 L 176.4 130.0 L 176.4 179.0 L 164.4 185.0 L 164.4 175.0 L 126.0 175.0 L 126.0 182.0 L 114.0 188.0 L 114.0 116.0 Z M 126.0 126.0 L 126.0 171.0 L 164.4 171.0 L 164.4 126.0 Z M 47.6 134.4 L 47.5 133.1 L 47.2 131.9 L 46.7 130.5 L 46.0 129.1 L 45.2 127.6 L 44.2 126.0 L 43.0 124.4 L 41.3 123.2 L 42.2 121.6 L 44.1 122.6 L 46.2 123.1 L 48.2 123.8 L 50.1 124.7 L 51.8 125.7 L 53.5 126.8 L 55.1 128.1 L 56.6 129.6 L 57.9 131.2 L 59.0 133.0 L 58.5 137.5 L 55.1 140.5 L 50.5 140.0 L 47.5 136.5 L 47.7 135.5 Z M 151.6 16.0 L 154.6 18.0 L 151.6 19.8 L 151.6 50.0 L 158.1 50.0 L 168.1 40.0 L 180.1 50.0 L 180.1 54.0 L 151.6 54.0 L 151.6 88.0 L 165.2 88.0 L 175.2 78.0 L 187.2 88.0 L 187.2 92.0 L 151.6 92.0 L 151.6 112.0 L 139.6 118.0 L 139.6 92.0 L 102.3 92.0 L 102.3 88.0 L 139.6 88.0 L 139.6 54.0 L 123.5 54.0 L 122.4 57.0 L 120.0 62.8 L 117.3 68.5 L 114.4 74.0 L 111.1 79.3 L 107.5 84.4 L 105.9 83.5 L 109.5 71.9 L 111.2 66.1 L 112.8 60.3 L 114.3 54.4 L 115.6 48.5 L 116.8 42.5 L 117.8 36.5 L 118.6 30.4 L 119.10473937988282 25.10023698806763 L 119.1 25.1 L 119.11666669845582 24.975 L 119.2 24.1 L 119.23274631500244 24.104402828216553 L 119.5 22.1 L 131.1 25.7 L 133.8 28.1 L 130.32388668060304 29.580566787719725 L 129.8 32.2 L 128.3 38.6 L 126.6 44.9 L 124.92786884307861 50.0 L 139.6 50.0 L 139.6 14.0 Z M 55.9 110.8 L 55.8 109.6 L 55.5 108.3 L 55.1 107.0 L 54.6 105.7 L 54.0 104.3 L 53.1 102.8 L 52.1 101.3 L 50.7 100.3 L 51.6 98.7 L 53.2 99.6 L 55.2 100.0 L 57.0 100.6 L 58.7 101.4 L 60.4 102.4 L 62.0 103.5 L 63.5 104.7 L 64.9 106.2 L 66.1 107.7 L 67.2 109.5 L 66.8 114.0 L 63.3 117.0 L 58.7 116.5 L 55.8 113.0 L 55.9 111.9 Z M 32.5 55.0 L 32.5 83.0 L 87.5 83.0 L 87.5 55.0 Z " />
</g>
</svg>
