<svg xmlns="http://www.w3.org/2000/svg" xmlns:xlink="http://www.w3.org/1999/xlink" version="1.1" baseProfile="full" viewBox="0 0 200 200" width="200" height="200">
<g fill="black">
<path d="M 178.0 151.5 L 180.0 151.5 L 178.0 176.5 L 181.6 178.9 L 184.0 182.5 L 181.6 186.1 L 178.0 188.5 L 124.7 188.5 L 122.1 188.3 L 119.6 187.9 L 117.2 187.1 L 115.0 185.8 L 112.9 184.2 L 111.3 182.2 L 110.1 179.9 L 109.3 177.5 L 108.8 175.0 L 108.7 172.5 L 108.7 151.5 L 106.0231707572937 151.5 L 102.2 157.0 L 95.0 164.3 L 86.3 170.6 L 76.2 176.0 L 64.6 180.4 L 51.6 184.0 L 37.2 186.7 L 21.2 188.3 L 21.0 186.6 L 36.4 182.9 L 50.2 178.8 L 62.3 174.3 L 72.8 169.2 L 81.6 163.6 L 88.7 157.4 L 93.78307695388794 151.5 L 63.0 151.5 L 63.0 154.5 L 51.0 160.5 L 51.0 131.95 L 45.1 134.9 L 37.4 138.3 L 29.3 141.4 L 20.5 144.3 L 19.8 142.6 L 27.6 138.0 L 35.0 133.5 L 41.9 129.1 L 48.3 124.8 L 51.0 122.86499996185303 L 51.0 121.0 L 52.5328766822815 121.76643838882447 L 54.3 120.5 L 59.7 116.2 L 64.6 111.9 L 69.0 107.5 L 72.9 103.2 L 76.3 98.9 L 76.3094464302063 98.90771961212158 L 76.7 98.4 L 85.6 106.5 L 86.7 110.0 L 82.77351961135864 109.39071855545043 L 81.2 111.0 L 125.7 111.0 L 125.94324321746826 110.7972972869873 L 126.4 110.2 L 127.6 108.5 L 128.07775421142577 109.01853809356689 L 131.7 106.0 L 142.7 115.0 L 137.7 118.0 L 126.3 122.75 L 125.0 123.4 L 122.5 124.6 L 119.9 125.8 L 117.1 127.0 L 151.2 127.0 L 157.2 122.0 L 168.2 131.0 L 163.2 135.0 L 163.2 151.5 L 151.2 157.5 L 151.2 151.5 L 120.7 151.5 L 120.7 173.7 L 120.9 174.6 L 121.1 175.2 L 121.3 175.5 L 121.4 175.7 L 121.6 175.9 L 122.5 176.2 L 123.4 176.4 L 124.7 176.5 L 153.5949999809265 176.5 L 149.7 174.6 L 149.0 173.1 L 147.9 171.6 L 146.6 170.1 L 145.0 168.4 L 143.1 166.7 L 140.9 165.0 L 138.5 163.3 L 135.8 161.5 L 132.9 159.6 L 129.5 158.1 L 130.1 156.4 L 133.7 157.2 L 137.3 157.7 L 140.6 158.4 L 143.8 159.2 L 146.7 160.2 L 149.5 161.2 L 152.1 162.4 L 154.5 163.7 L 156.8 165.1 L 158.9 166.8 L 160.2 171.1 L 158.2 175.2 L 154.11428575515748 176.5 L 172.0 176.5 Z M 63.0 131.0 L 63.0 147.5 L 96.24285717010498 147.5 L 98.3 143.9 L 100.9 136.4 L 101.62972974777222 131.0 Z M 113.69200000762939 131.0 L 111.8 139.6 L 108.45108699798584 147.5 L 151.2 147.5 L 151.2 131.0 Z M 76.74545450210572 115.0 L 76.3 115.4 L 71.0 119.6 L 65.2 123.6 L 61.21428575515747 126.10714282989503 L 63.0 127.0 L 111.83999996185302 127.0 L 112.8 126.2 L 114.8 123.8 L 116.8 121.6 L 118.7 119.5 L 120.4 117.5 L 122.1 115.6 L 122.60526313781739 115.0 Z M 128.8 104.8 L 126.6 104.7 L 124.4 104.2 L 122.3 103.3 L 120.3 102.1 L 118.6 100.4 L 117.2 98.4 L 116.2 96.1 L 115.5 93.7 L 115.2 91.2 L 115.2 77.5 L 83.99682540893555 77.5 L 90.7 81.6 L 92.6 84.6 L 88.43567724227906 85.03079204559326 L 87.4 86.6 L 83.3 91.1 L 78.4 95.1 L 72.7 98.6 L 66.3 101.8 L 59.2 104.5 L 51.2 106.9 L 42.6 108.9 L 33.1 110.4 L 22.8 111.4 L 22.5 109.7 L 32.3 106.7 L 41.2 103.7 L 49.2 100.7 L 56.3 97.5 L 62.5 94.2 L 67.8 90.8 L 72.1 87.2 L 75.6 83.7 L 78.1 80.1 L 79.3277777671814 77.5 L 35.35625 77.5 L 35.4 78.9 L 35.0 82.1 L 34.3 85.1 L 33.0 88.0 L 31.3 90.6 L 29.2 93.1 L 26.6 95.2 L 23.6 97.0 L 19.1 96.8 L 15.9 93.6 L 16.1 89.0 L 19.4 85.8 L 21.3 85.4 L 23.1 84.8 L 24.7 84.0 L 26.3 82.9 L 27.7 81.6 L 29.1 79.9 L 30.3 77.7 L 31.4 75.2 L 32.4 72.3 L 32.5653582572937 69.5715880393982 L 24.5 70.9 L 15.1 71.8 L 14.8 70.1 L 23.6 67.2 L 31.5 64.3 L 38.3 61.5 L 44.1 58.5 L 48.8 55.6 L 52.3 52.6 L 54.8 49.7 L 56.3 47.0 L 57.0 44.4 L 57.0 14.0 L 69.0 20.0 L 69.0 20.105434799194335 L 72.1 19.6 L 81.5 18.4 L 90.9 17.4 L 100.5 16.4 L 110.2 15.5 L 130.0 13.7 L 140.1 12.8 L 150.3 11.9 L 160.6 11.0 L 160.65779523849488 11.99077491760254 L 172.9 22.3 L 173.4 25.3 L 168.58993587493896 22.56009006500244 L 161.3 23.0 L 150.9 23.3 L 140.7 23.5 L 130.6 23.7 L 120.6 23.9 L 110.7 24.0 L 100.9 24.0 L 91.2 23.9 L 81.7 23.8 L 72.3 23.4 L 69.0 23.187096786499023 L 69.0 39.0 L 159.0 39.0 L 169.0 29.0 L 181.0 39.0 L 181.0 43.0 L 129.0 43.0 L 129.0 64.0 L 117.0 70.0 L 117.0 43.0 L 68.80769233703613 43.0 L 68.0 47.2 L 65.8 52.1 L 62.4 56.2 L 58.2 59.8 L 53.1 62.8 L 47.3 65.4 L 40.6 67.6 L 34.4277777671814 69.14305553436279 L 34.8 72.4 L 34.96666669845581 73.5 L 170.3 73.5 L 171.125 72.8125 L 171.2 72.7 L 172.0 71.3 L 172.43276233673095 71.7226981163025 L 176.3 68.5 L 187.3 77.5 L 182.3 80.5 L 170.86470584869386 85.26470584869385 L 170.8 85.3 L 165.8 87.9 L 163.0 89.2 L 160.0 90.5 L 157.1 92.2 L 156.1 90.8 L 158.6 88.5 L 160.6 86.1 L 162.6 83.8 L 164.4 81.6 L 166.1 79.6 L 167.6 77.7 L 167.7555555343628 77.5 L 120.6 77.5 L 127.2 78.6 L 130.2 80.6 L 127.2 82.4 L 127.2 91.2 L 127.0 92.5 L 126.9 93.5 L 126.9 94.8 L 127.0 95.3 L 127.2 95.9 L 127.7 96.4 L 128.5 96.9 L 129.7 97.4 L 131.2 97.7 L 174.8 97.7 L 178.3 92.7 L 180.3 92.7 L 178.3 97.7 L 180.4 99.1 L 181.8 101.2 L 180.4 103.3 L 178.3 104.7 L 131.2 104.7 Z " />
</g>
</svg>
