<svg xmlns="http://www.w3.org/2000/svg" xmlns:xlink="http://www.w3.org/1999/xlink" version="1.1" baseProfile="full" viewBox="0 0 200 200" width="200" height="200">
<g fill="black">
<path d="M 87.7 160.6 L 85.5 157.7 L 83.0 154.9 L 80.2 152.1 L 77.0 149.3 L 73.6 146.6 L 69.8 144.0 L 65.7 141.2 L 65.0 140.78636360168457 L 65.0 184.5 L 53.0 190.5 L 53.0 145.3449999809265 L 50.9 148.6 L 46.5 154.4 L 41.6 159.9 L 36.4 165.1 L 30.8 169.9 L 24.8 174.3 L 18.3 178.3 L 11.5 181.7 L 10.5 180.2 L 16.1 175.2 L 21.4 170.1 L 26.4 165.1 L 30.9 159.9 L 35.1 154.5 L 39.0 148.9 L 42.4 143.2 L 45.5 137.3 L 48.2 131.1 L 48.96829271316528 129.0 L 14.9 129.0 L 14.9 125.0 L 53.0 125.0 L 53.0 106.5 L 65.0 108.5 L 68.0 110.5 L 65.0 112.3 L 65.0 125.0 L 83.3 125.0 L 93.3 115.0 L 105.3 125.0 L 105.3 129.0 L 65.0 129.0 L 65.0 137.70588235855104 L 67.1 138.2 L 72.0 139.5 L 76.6 141.3 L 80.9 143.3 L 85.0 145.5 L 88.8 148.0 L 92.4 150.7 L 95.7 153.6 L 98.8 156.8 L 101.5 160.2 L 102.2 164.7 L 99.6 168.5 L 95.1 169.2 L 91.3 166.6 L 89.7 163.6 Z M 156.4 169.4 L 147.5 160.7 L 139.6 151.0 L 137.9174427986145 148.37719020843505 L 131.4 156.9 L 121.0 167.3 L 109.4 176.2 L 96.7 183.3 L 82.9 188.8 L 82.3 187.1 L 94.9 180.0 L 106.3 171.8 L 116.5 162.6 L 125.5 152.1 L 133.09232091903687 140.85567665100098 L 132.8 140.4 L 127.0 128.9 L 122.3 116.5 L 118.7 103.2 L 116.2 89.1 L 115.43790912628174 80.30664386749268 L 111.4 86.7 L 106.1 93.8 L 100.3 100.5 L 99.40555553436279 99.7972222328186 L 89.0 105.0 L 89.0 99.0 L 73.5 99.0 L 62.5 104.5 L 62.5 61.5 L 73.5 67.0 L 89.0 67.0 L 95.0 62.0 L 106.0 71.0 L 101.0 75.0 L 101.0 95.41000003814698 L 102.9 91.8 L 106.7 84.0 L 110.4 76.1 L 113.9 67.9 L 117.1 59.6 L 120.1 50.9 L 122.8 42.0 L 125.2 32.9 L 127.4 23.4 L 129.10402517318727 14.700503158569337 L 129.1 14.7 L 129.14799995422362 14.476000022888183 L 129.3 13.7 L 129.31366529464722 13.702895164489746 L 129.7 11.9 L 141.1 16.2 L 143.6 18.7 L 140.12847909927368 19.899252700805665 L 138.5 26.1 L 135.6 35.8 L 132.3 45.2 L 128.8 54.2 L 125.71627902984619 61.0 L 165.3 61.0 L 175.3 51.0 L 187.3 61.0 L 187.3 65.0 L 167.97277488708497 65.0 L 165.1 82.7 L 160.8 100.4 L 155.3 116.7 L 148.5 131.6 L 143.76594982147216 139.52953405380248 L 147.7 144.7 L 155.4 153.0 L 163.9 160.3 L 173.1 166.6 L 183.2 172.1 L 188.4 174.8 L 177.1 183.8 L 166.3 177.1 Z M 123.82619047164917 65.0 L 120.8 71.2 L 117.4730502128601 76.91367454528809 L 120.3 88.3 L 124.4 101.6 L 129.1 114.0 L 134.5 125.2 L 138.18520193099977 131.32219038009643 L 140.2 127.5 L 145.9 113.2 L 150.4 97.6 L 153.9 80.6 L 155.93863639831542 65.0 Z M 29.0 67.0 L 44.5 67.0 L 50.0 62.0 L 60.5 71.0 L 55.5 74.5 L 55.5 99.0 L 44.5 104.5 L 44.5 99.0 L 29.0 99.0 L 29.0 106.0 L 17.0 112.0 L 17.0 61.0 Z M 73.5 71.0 L 73.5 95.0 L 89.0 95.0 L 89.0 71.0 Z M 29.0 71.0 L 29.0 95.0 L 44.5 95.0 L 44.5 71.0 Z M 45.0 21.0 L 73.0 21.0 L 79.0 16.0 L 90.0 25.0 L 85.0 29.0 L 85.0 54.0 L 73.0 60.0 L 73.0 54.0 L 45.0 54.0 L 33.0 60.0 L 33.0 15.0 Z M 45.0 25.0 L 45.0 50.0 L 73.0 50.0 L 73.0 25.0 Z " />
</g>
</svg>
