<svg xmlns="http://www.w3.org/2000/svg" xmlns:xlink="http://www.w3.org/1999/xlink" version="1.1" baseProfile="full" viewBox="0 0 200 200" width="200" height="200">
<g fill="black">
<path d="M 161.1 15.0 L 164.1 17.0 L 161.1 18.8 L 161.1 125.66745281219482 L 166.31585273742675 124.56031427383422 L 174.0 112.7 L 187.8 120.0 L 188.7 123.9 L 161.1 129.75159006118776 L 161.1 183.0 L 149.1 189.0 L 149.1 132.29575967788696 L 103.8 141.9 L 103.0 138.0 L 149.1 128.21462268829345 L 149.1 13.0 Z M 63.0 176.0 L 75.0 176.0 L 76.2 175.9 L 77.1 175.7 L 78.0 175.4 L 78.4 175.0 L 78.7 174.1 L 78.9 173.2 L 79.0 172.0 L 79.0 149.0 L 38.0 149.0 L 38.0 183.0 L 26.0 189.0 L 26.0 92.0 L 38.0 98.0 L 79.0 98.0 L 85.0 93.0 L 96.0 102.0 L 91.0 106.0 L 91.0 172.0 L 90.8 174.5 L 90.4 177.0 L 89.6 179.4 L 88.3 181.7 L 86.7 183.7 L 84.7 185.3 L 82.4 186.6 L 80.0 187.4 L 77.5 187.8 L 75.0 188.0 L 75.0 182.0 L 63.0 179.0 Z M 38.0 126.0 L 38.0 145.0 L 79.0 145.0 L 79.0 126.0 Z M 38.0 102.0 L 38.0 122.0 L 79.0 122.0 L 79.0 102.0 Z M 122.7 102.9 L 121.4 100.3 L 120.0 97.6 L 118.4 95.0 L 116.7 92.3 L 114.8 89.5 L 112.9 86.8 L 110.9 83.9 L 108.5 81.3 L 109.6 79.9 L 112.7 81.8 L 115.8 83.6 L 118.8 85.6 L 121.6 87.7 L 124.2 89.9 L 126.7 92.3 L 129.1 94.7 L 131.4 97.2 L 133.5 99.8 L 135.5 102.4 L 136.0 107.0 L 133.1 110.6 L 128.6 111.0 L 125.0 108.2 L 123.9 105.6 Z M 88.2 48.0 L 90.3 50.9 L 86.22341775894165 51.68670883178711 L 84.9 54.1 L 83.1 57.2 L 81.2 60.3 L 79.1 63.5 L 76.9 66.6 L 74.6 69.8 L 72.1 73.0 L 69.4 76.1 L 68.66363639831543 77.0 L 82.0 77.0 L 92.0 67.0 L 104.0 77.0 L 104.0 81.0 L 14.0 81.0 L 14.0 77.0 L 65.81538457870484 77.0 L 66.8 74.6 L 68.2 70.7 L 69.5 67.0 L 70.8 63.4 L 72.1 59.9 L 73.2 56.5 L 74.3 53.2 L 75.3 50.0 L 76.2 46.8 L 76.74871797561646 44.74230766296387 L 76.6 44.7 L 77.5 42.4 Z M 37.4 65.1 L 36.8 62.3 L 36.0 59.7 L 35.1 57.0 L 34.2 54.4 L 33.1 51.8 L 31.9 49.3 L 30.7 46.6 L 29.0 44.3 L 30.3 43.0 L 32.6 44.9 L 35.1 46.7 L 37.5 48.7 L 39.7 50.9 L 41.7 53.3 L 43.6 55.8 L 45.4 58.5 L 47.1 61.4 L 48.6 64.3 L 49.9 67.5 L 49.3 72.0 L 45.8 74.8 L 41.2 74.2 L 38.4 70.7 L 37.9 67.8 Z M 128.6 58.9 L 127.3 56.3 L 125.8 53.6 L 124.2 51.0 L 122.5 48.3 L 120.7 45.5 L 118.7 42.8 L 116.7 39.9 L 114.4 37.3 L 115.5 35.9 L 118.5 37.8 L 121.7 39.6 L 124.6 41.6 L 127.4 43.7 L 130.1 45.9 L 132.6 48.3 L 135.0 50.7 L 137.2 53.2 L 139.4 55.8 L 141.4 58.4 L 141.8 63.0 L 139.0 66.6 L 134.4 67.0 L 130.8 64.2 L 129.8 61.6 Z M 16.0 36.0 L 53.0 36.0 L 53.0 13.0 L 65.0 15.0 L 68.0 17.0 L 65.0 18.8 L 65.0 36.0 L 80.0 36.0 L 90.0 26.0 L 102.0 36.0 L 102.0 40.0 L 16.0 40.0 Z " />
</g>
</svg>
