<svg xmlns="http://www.w3.org/2000/svg" xmlns:xlink="http://www.w3.org/1999/xlink" version="1.1" baseProfile="full" viewBox="0 0 200 200" width="200" height="200">
<g fill="black">
<path d="M 79.0 84.5 L 80.1 87.9 L 76.20835866928101 87.36322193145752 L 75.1 88.5 L 70.7 92.5 L 65.8 96.4 L 61.675 99.4 L 143.6 99.4 L 149.6 94.4 L 160.6 103.4 L 155.6 107.4 L 155.6 175.6 L 143.6 181.6 L 143.6 169.6 L 56.3 169.6 L 56.3 181.6 L 44.3 187.6 L 44.3 110.18888893127442 L 40.5 112.3 L 32.8 116.2 L 24.4 120.1 L 15.4 123.7 L 14.5 122.2 L 22.5 116.7 L 30.1 111.6 L 37.0 106.7 L 43.5 102.0 L 44.3 101.36551723480224 L 44.3 93.4 L 50.427659606933595 96.4638298034668 L 54.6 93.0 L 59.3 88.8 L 63.3 84.7 L 66.8 80.7 L 69.6 77.0 L 69.64592084884643 77.03663902282715 L 70.1 76.5 Z M 56.3 146.6 L 56.3 165.6 L 143.6 165.6 L 143.6 146.6 Z M 56.3 125.0 L 56.3 142.6 L 143.6 142.6 L 143.6 125.0 Z M 56.3 103.4 L 56.3 121.0 L 143.6 121.0 L 143.6 103.4 Z M 48.5 22.4 L 151.5 22.4 L 157.5 17.4 L 168.5 26.4 L 163.5 30.4 L 163.5 78.9 L 151.5 84.9 L 151.5 74.9 L 48.5 74.9 L 48.5 81.9 L 36.5 87.9 L 36.5 16.4 Z M 48.5 50.7 L 48.5 70.9 L 151.5 70.9 L 151.5 50.7 Z M 48.5 26.4 L 48.5 46.7 L 151.5 46.7 L 151.5 26.4 Z " />
</g>
</svg>
