<svg xmlns="http://www.w3.org/2000/svg" xmlns:xlink="http://www.w3.org/1999/xlink" version="1.1" baseProfile="full" viewBox="0 0 200 200" width="200" height="200">
<g fill="black">
<path d="M 130.4 165.6 L 130.8 169.2 L 127.17432708740235 167.88157348632814 L 126.3 168.5 L 121.9 171.3 L 117.3 173.9 L 112.5 176.4 L 107.5 178.8 L 102.3 181.1 L 96.8 183.1 L 91.1 185.0 L 85.1 186.6 L 78.9 187.9 L 78.2 186.2 L 83.7 183.1 L 89.0 180.1 L 94.0 177.2 L 98.9 174.3 L 103.5 171.4 L 107.8 168.4 L 111.9 165.5 L 115.7 162.5 L 119.3 159.4 L 121.95590057373047 157.05655832290648 L 121.9 157.0 L 122.8 156.3 Z M 65.5 177.1 L 64.0 179.1 L 62.4 180.9 L 60.4 182.5 L 58.3 183.8 L 56.0 184.8 L 53.6 185.4 L 51.2 185.8 L 48.6 186.0 L 48.6 180.0 L 32.6 177.0 L 32.6 174.0 L 48.6 174.0 L 50.0 173.9 L 51.1 173.7 L 52.0 173.4 L 52.8 173.1 L 53.5 172.7 L 54.1 172.2 L 54.7 171.6 L 55.3 170.8 L 55.8 169.8 L 56.3 168.5 L 57.4 164.9 L 58.4 160.1 L 59.3 154.3 L 60.1 147.5 L 60.7 139.7 L 61.2 130.9 L 61.5 121.1 L 61.7 110.4 L 61.7 98.7 L 61.678482627868654 95.96729888916016 L 61.6 96.0 L 61.6 88.0 L 44.410144901275636 88.0 L 44.2 93.8 L 43.0 107.1 L 41.3 119.6 L 39.0 131.5 L 36.1 142.7 L 32.7 153.2 L 28.6 163.0 L 24.0 172.0 L 18.6 180.2 L 12.6 187.5 L 11.1 186.4 L 15.4 178.2 L 19.1 169.6 L 22.5 160.6 L 25.5 150.9 L 27.9 140.7 L 29.9 129.8 L 31.3 118.3 L 32.3 106.2 L 32.8 93.4 L 32.7 80.0 L 32.7 53.0 L 44.7 55.0 L 47.7 57.0 L 44.7 58.8 L 44.7 80.0 L 44.555072498321536 84.0 L 61.6 84.0 L 67.6 79.0 L 78.6 88.0 L 73.63965787887574 90.97620525360108 L 73.7 98.7 L 73.7 110.5 L 73.5 121.4 L 73.2 131.4 L 72.7 140.5 L 72.0 148.6 L 71.2 155.9 L 70.2 162.3 L 69.1 167.8 L 67.6 172.5 L 66.7 174.9 Z M 166.7 179.9 L 164.3 177.4 L 161.7 174.9 L 158.7 172.4 L 155.5 169.9 L 152.0 167.4 L 148.2 164.8 L 144.2 162.1 L 139.8 159.6 L 140.5 157.9 L 145.5 159.2 L 150.3 160.5 L 154.8 162.0 L 159.0 163.7 L 163.0 165.6 L 166.8 167.6 L 170.4 169.7 L 173.7 172.0 L 176.8 174.4 L 179.6 176.9 L 181.0 181.2 L 179.0 185.4 L 174.7 186.8 L 170.6 184.8 L 168.8 182.3 Z M 111.4 91.0 L 157.1 91.0 L 163.1 86.0 L 174.1 95.0 L 169.1 99.0 L 169.1 150.5 L 157.1 156.5 L 157.1 150.5 L 111.4 150.5 L 111.4 153.5 L 99.4 159.5 L 99.4 85.0 Z M 111.4 131.6 L 111.4 146.5 L 157.1 146.5 L 157.1 131.6 Z M 111.4 112.8 L 111.4 127.6 L 157.1 127.6 L 157.1 112.8 Z M 111.4 95.0 L 111.4 108.8 L 157.1 108.8 L 157.1 95.0 Z M 85.5 76.2 L 129.3 76.2 L 129.3 59.4 L 110.4 59.4 L 110.4 62.4 L 98.4 68.4 L 98.4 25.6 L 110.4 31.6 L 129.3 31.6 L 129.3 13.8 L 141.3 15.8 L 144.3 17.8 L 141.3 19.6 L 141.3 31.6 L 160.1 31.6 L 166.1 26.6 L 177.1 35.6 L 172.1 39.6 L 172.1 61.4 L 160.1 67.4 L 160.1 59.4 L 141.3 59.4 L 141.3 76.2 L 168.8181818008423 76.2 L 177.0 67.2 L 187.0 76.2 L 187.0 80.2 L 85.5 80.2 Z M 110.4 35.6 L 110.4 55.4 L 129.3 55.4 L 129.3 35.6 Z M 141.3 35.6 L 141.3 55.4 L 160.1 55.4 L 160.1 35.6 Z M 11.9 49.0 L 39.7 49.0 L 39.7 16.0 L 51.7 18.0 L 54.7 20.0 L 51.7 21.8 L 51.7 49.0 L 63.5 49.0 L 73.5 39.0 L 85.5 49.0 L 85.5 53.0 L 11.9 53.0 Z " />
</g>
</svg>
