<svg xmlns="http://www.w3.org/2000/svg" xmlns:xlink="http://www.w3.org/1999/xlink" version="1.1" baseProfile="full" viewBox="0 0 200 200" width="200" height="200">
<g fill="black">
<path d="M 164.3 172.4 L 157.8 165.7 L 151.9 158.4 L 146.6 150.6 L 141.9 142.1 L 137.9 133.0 L 134.5 123.3 L 133.53056240081787 119.60177507400513 L 133.4 120.3 L 129.6 131.8 L 124.6 142.5 L 118.1 152.4 L 110.4 161.3 L 101.4 169.4 L 91.2 176.5 L 79.7 182.7 L 66.9 187.8 L 66.2 186.1 L 77.8 179.3 L 88.1 172.1 L 97.1 164.4 L 104.8 156.2 L 111.2 147.5 L 116.3 138.3 L 120.2 128.4 L 122.9 117.9 L 124.4 106.8 L 124.7 95.0 L 124.7 54.0 L 76.7 54.0 L 76.7 50.0 L 124.7 50.0 L 124.7 12.0 L 136.7 14.0 L 139.7 16.0 L 136.7 17.8 L 136.7 50.0 L 165.0 50.0 L 175.0 40.0 L 187.0 50.0 L 187.0 54.0 L 136.7 54.0 L 136.7 95.0 L 135.7 108.0 L 135.24939937591552 110.40973358154297 L 135.8 111.8 L 140.0 121.2 L 144.4 129.9 L 149.2 138.0 L 154.3 145.3 L 159.8 152.0 L 165.7 158.0 L 172.0 163.4 L 178.7 168.1 L 185.7 172.2 L 190.3 174.9 L 179.2 183.7 L 171.4 178.3 Z M 29.4 36.0 L 55.2 36.0 L 61.2 31.0 L 72.2 40.0 L 67.2 44.0 L 67.2 158.0 L 55.2 164.0 L 55.2 152.0 L 29.4 152.0 L 29.4 164.0 L 17.4 170.0 L 17.4 30.0 Z M 29.4 96.0 L 29.4 148.0 L 55.2 148.0 L 55.2 96.0 Z M 108.3 106.1 L 107.5 103.6 L 106.6 101.1 L 104.4 95.9 L 103.1 93.3 L 101.6 90.6 L 100.81739130020142 89.13913040161133 L 100.4 90.6 L 97.9 97.9 L 95.0 104.9 L 91.8 111.6 L 88.2 118.0 L 84.3 123.9 L 79.9 129.5 L 75.2 134.5 L 73.7 133.4 L 76.8 127.4 L 79.6 121.2 L 82.3 115.0 L 84.8 108.6 L 87.0 101.9 L 89.0 95.1 L 90.7 88.0 L 92.2 80.6 L 93.3 73.0 L 94.2 65.1 L 94.23274631500244 65.10440282821655 L 94.5 63.1 L 106.1 66.7 L 108.8 69.1 L 105.39958066940308 70.57565364837646 L 104.6 75.0 L 102.6 82.9 L 101.7657657623291 85.81981983184815 L 102.0 86.0 L 104.7 87.9 L 107.3 89.9 L 109.6 92.1 L 111.8 94.3 L 113.9 96.7 L 115.8 99.2 L 117.6 101.7 L 119.3 104.4 L 120.7 107.1 L 120.4 111.7 L 117.1 114.8 L 112.5 114.5 L 109.4 111.1 L 108.9 108.6 Z M 173.9 118.1 L 172.7 114.7 L 171.2 111.2 L 169.5 107.7 L 167.6 104.1 L 165.4 100.5 L 163.1 96.8 L 160.6 93.1 L 159.92631578445435 92.18571424484253 L 159.7 92.8 L 157.4 98.2 L 154.9 103.1 L 152.3 107.7 L 149.3 111.8 L 146.1 115.4 L 142.7 118.5 L 141.2 117.4 L 143.0 113.3 L 144.7 109.1 L 146.4 104.7 L 148.0 100.1 L 149.5 95.2 L 150.8 90.0 L 152.1 84.5 L 153.2 78.7 L 154.2 72.5 L 154.87621955871583 67.00571641921997 L 154.8 67.0 L 155.3 64.0 L 166.8 67.9 L 169.5 70.3 L 165.95170555114746 71.74560146331787 L 165.3 74.7 L 163.6 81.1 L 161.8 87.1 L 160.95208110809327 89.40149412155151 L 162.9 90.8 L 166.7 93.6 L 170.1 96.7 L 173.3 99.9 L 176.2 103.2 L 178.9 106.6 L 181.3 110.1 L 183.5 113.7 L 185.5 117.4 L 187.2 121.3 L 186.8 125.8 L 183.4 128.8 L 178.8 128.4 L 175.8 124.9 L 175.0 121.5 Z M 29.4 40.0 L 29.4 92.0 L 55.2 92.0 L 55.2 40.0 Z " />
</g>
</svg>
