<svg xmlns="http://www.w3.org/2000/svg" xmlns:xlink="http://www.w3.org/1999/xlink" version="1.1" baseProfile="full" viewBox="0 0 200 200" width="200" height="200">
<g fill="black">
<path d="M 157.6 161.0 L 159.1 164.3 L 155.07324838638306 164.23057327270507 L 152.3 167.4 L 149.3 170.5 L 146.2 173.4 L 142.8 176.3 L 139.2 179.1 L 135.5 181.7 L 131.5 184.2 L 127.2 186.5 L 122.8 188.7 L 121.8 187.2 L 125.2 183.8 L 128.4 180.4 L 131.5 177.0 L 134.4 173.8 L 137.0 170.5 L 139.5 167.3 L 141.8 164.1 L 143.9 160.9 L 145.8 157.8 L 146.9957329750061 155.54920854568482 L 146.9 155.5 L 148.0 153.8 Z M 56.3 176.6 L 55.0 178.7 L 53.4 180.6 L 51.5 182.3 L 49.4 183.7 L 47.1 184.7 L 44.7 185.4 L 42.2 185.8 L 39.7 186.0 L 39.7 180.0 L 25.7 177.0 L 25.7 174.0 L 39.7 174.0 L 41.0 173.9 L 42.1 173.7 L 42.9 173.5 L 43.6 173.1 L 44.2 172.8 L 44.7 172.3 L 45.2 171.7 L 45.7 171.0 L 46.1 170.0 L 46.6 168.7 L 47.4 165.0 L 48.2 160.2 L 48.9 154.4 L 49.5 147.6 L 49.9 139.7 L 50.3 130.9 L 50.6 121.1 L 50.7 110.4 L 50.7 98.7 L 50.678482627868654 95.96729888916016 L 50.6 96.0 L 50.6 88.0 L 40.01014490127564 88.0 L 39.8 93.8 L 38.8 107.0 L 37.4 119.5 L 35.6 131.3 L 33.3 142.5 L 30.5 153.0 L 27.2 162.8 L 23.5 171.8 L 19.2 180.0 L 14.3 187.4 L 12.7 186.5 L 15.7 178.4 L 18.5 169.9 L 21.0 160.8 L 23.1 151.2 L 24.9 140.9 L 26.4 130.0 L 27.4 118.5 L 28.1 106.3 L 28.4 93.4 L 28.3 80.0 L 28.3 53.0 L 40.3 55.0 L 43.3 57.0 L 40.3 58.8 L 40.3 80.0 L 40.15507249832153 84.0 L 50.6 84.0 L 56.6 79.0 L 67.6 88.0 L 62.63965787887573 90.97620525360108 L 62.7 98.7 L 62.7 110.5 L 62.6 121.4 L 62.3 131.3 L 61.9 140.3 L 61.4 148.4 L 60.8 155.6 L 60.1 161.9 L 59.2 167.3 L 58.1 171.9 L 57.3 174.3 Z M 85.6 99.7 L 112.8 99.7 L 118.3 94.7 L 128.8 103.7 L 123.8 107.2 L 123.8 173.9 L 112.8 179.4 L 112.8 173.9 L 85.6 173.9 L 85.6 180.9 L 73.6 186.9 L 73.6 93.7 Z M 174.5 175.0 L 173.3 172.3 L 172.0 169.7 L 170.6 167.1 L 169.1 164.6 L 167.5 162.2 L 165.8 159.8 L 164.0 157.3 L 161.8 155.3 L 162.8 153.8 L 165.6 155.2 L 168.5 156.6 L 171.3 158.2 L 173.9 160.1 L 176.5 162.2 L 178.9 164.5 L 181.2 167.1 L 183.4 169.8 L 185.5 172.6 L 187.5 175.7 L 187.6 180.3 L 184.6 183.7 L 180.0 183.8 L 176.6 180.8 L 175.6 177.9 Z M 85.6 149.5 L 85.6 169.9 L 112.8 169.9 L 112.8 149.5 Z M 187.2 26.0 L 187.2 30.0 L 165.96551723480223 30.0 L 164.8 32.6 L 163.4 35.5 L 161.9 38.4 L 160.4 41.1 L 158.8 43.9 L 157.2 46.5 L 155.5 49.1 L 153.6 51.6 L 151.7 53.9 L 151.6279999732971 54.0 L 170.0 54.0 L 176.0 49.0 L 187.0 58.0 L 182.0 62.0 L 182.0 144.0 L 170.0 150.0 L 170.0 144.0 L 146.8 144.0 L 135.8 149.5 L 135.8 48.5 L 146.8 54.0 L 148.88214282989503 54.0 L 149.3 52.7 L 151.1 44.0 L 151.8 41.0 L 153.0 35.2 L 153.6 32.2 L 153.9666666984558 30.0 L 131.2 30.0 L 131.2 26.0 L 165.2 26.0 L 175.2 16.0 Z M 85.6 126.6 L 85.6 145.5 L 112.8 145.5 L 112.8 126.6 Z M 146.8 115.0 L 146.8 140.0 L 170.0 140.0 L 170.0 115.0 Z M 85.6 103.7 L 85.6 122.6 L 112.8 122.6 L 112.8 103.7 Z M 146.8 87.0 L 146.8 111.0 L 170.0 111.0 L 170.0 87.0 Z M 146.8 58.0 L 146.8 83.0 L 170.0 83.0 L 170.0 58.0 Z M 68.1 78.7 L 77.1 78.7 L 77.1 43.2 L 87.1 45.2 L 89.6 47.2 L 87.1 48.86666669845581 L 87.1 78.7 L 94.7 78.7 L 94.7 29.7 L 71.0 29.7 L 71.0 25.7 L 104.9 25.7 L 114.9 15.7 L 126.9 25.7 L 126.9 29.7 L 104.7 29.7 L 104.7 50.6 L 108.77777776718139 50.6 L 115.0 43.6 L 123.0 50.6 L 123.0 54.6 L 104.7 54.6 L 104.7 78.7 L 111.61818180084228 78.7 L 119.8 69.7 L 129.8 78.7 L 129.8 82.7 L 68.1 82.7 Z M 13.5 49.0 L 33.7 49.0 L 33.7 16.0 L 45.7 18.0 L 48.7 20.0 L 45.7 21.8 L 45.7 49.0 L 48.5 49.0 L 58.5 39.0 L 70.5 49.0 L 70.5 53.0 L 13.5 53.0 Z " />
</g>
</svg>
