<svg xmlns="http://www.w3.org/2000/svg" xmlns:xlink="http://www.w3.org/1999/xlink" version="1.1" baseProfile="full" viewBox="0 0 200 200" width="200" height="200">
<g fill="black">
<path d="M 156.5 164.8 L 148.7 152.0 L 142.0 137.6 L 136.6 121.7 L 132.4 104.2 L 129.3 85.2 L 127.8075873374939 68.94055681228637 L 124.8 88.9 L 120.3 109.0 L 114.7 127.1 L 107.7 143.2 L 99.6 157.4 L 90.2 169.6 L 79.6 179.5 L 67.8 187.2 L 66.9 185.7 L 77.0 176.7 L 86.1 166.1 L 94.0 154.0 L 100.8 140.0 L 106.6 124.3 L 111.3 106.7 L 114.9 87.3 L 117.4 65.9 L 118.8 42.7 L 119.1 17.5 L 119.1 15.1 L 131.1 17.5 L 134.1 19.5 L 130.96406993865966 21.3815580368042 L 130.49557409286498 34.759717750549314 L 131.0 42.2 L 133.3 64.0 L 136.4 84.0 L 140.5 102.3 L 145.5 118.9 L 151.4 133.6 L 158.3 146.6 L 166.0 157.8 L 174.6 167.2 L 184.0 175.0 L 187.0 177.3 L 176.1 185.6 L 165.7 176.0 Z M 33.5 36.0 L 64.3 36.0 L 70.3 31.0 L 81.3 40.0 L 76.3 44.0 L 76.3 156.0 L 64.3 162.0 L 64.3 152.0 L 33.5 152.0 L 33.5 164.0 L 21.5 170.0 L 21.5 30.0 Z M 33.5 96.0 L 33.5 148.0 L 64.3 148.0 L 64.3 96.0 Z M 33.5 40.0 L 33.5 92.0 L 64.3 92.0 L 64.3 40.0 Z " />
</g>
</svg>
