<svg xmlns="http://www.w3.org/2000/svg" xmlns:xlink="http://www.w3.org/1999/xlink" version="1.1" baseProfile="full" viewBox="0 0 200 200" width="200" height="200">
<g fill="black">
<path d="M 45.6 119.8 L 152.3 119.8 L 158.3 114.8 L 169.3 123.8 L 164.3 127.8 L 164.3 176.3 L 152.3 182.3 L 152.3 172.3 L 45.6 172.3 L 45.6 179.3 L 33.6 185.3 L 33.6 113.8 Z M 45.6 148.1 L 45.6 168.3 L 152.3 168.3 L 152.3 148.1 Z M 45.6 123.8 L 45.6 144.1 L 152.3 144.1 L 152.3 123.8 Z M 52.3 16.7 L 54.2 19.7 L 49.285496139526366 20.29312973022461 L 48.8 20.9 L 47.4 22.5 L 45.9 24.3 L 44.2 26.2 L 42.4 28.2 L 40.5 30.3 L 38.4 32.5 L 38.19230766296387 32.8 L 59.1 32.8 L 65.1 27.8 L 76.1 36.8 L 71.1 40.8 L 71.1 62.12972974777222 L 73.5 59.6 L 76.9 55.8 L 80.0 52.0 L 82.9 48.2 L 85.5 44.4 L 87.8 40.6 L 89.7 36.8 L 91.4 32.9 L 92.8 28.9 L 94.0 24.9 L 94.01807231903076 24.906024074554445 L 94.5 23.4 L 105.4 28.7 L 107.6 31.5 L 103.76702823638917 32.374186515808105 L 103.4 33.2 L 101.0 37.6 L 98.4 41.8 L 95.4 45.8 L 92.1 49.6 L 88.5 53.2 L 84.6 56.5 L 80.3 59.7 L 75.7 62.5 L 71.1 64.84693880081177 L 71.1 102.1 L 59.1 108.1 L 59.1 102.1 L 28.8 102.1 L 28.8 114.1 L 16.8 120.1 L 16.8 26.8 L 28.8 32.8 L 35.7 32.8 L 36.4 31.4 L 37.2 28.4 L 38.0 25.7 L 38.7 23.2 L 39.4 20.8 L 40.0 18.6 L 40.5 16.6 L 40.9 14.8 L 41.2 13.2 L 41.22750606536865 12.814914417266845 L 40.9 12.7 L 41.29495801925659 11.870588207244873 L 41.3 11.8 L 41.323571395874026 11.810499954223634 L 41.9 10.6 Z M 181.0 16.0 L 184.0 18.0 L 181.0 19.8 L 181.0 112.0 L 169.0 118.0 L 169.0 14.0 Z M 140.9 103.4 L 139.4 105.4 L 137.6 107.2 L 135.7 108.7 L 133.6 110.0 L 131.3 110.9 L 128.9 111.6 L 126.4 112.0 L 123.9 112.1 L 123.9 106.1 L 103.9 103.1 L 103.9 100.1 L 123.9 100.1 L 125.3 100.0 L 126.4 99.8 L 127.4 99.6 L 128.2 99.2 L 128.9 98.8 L 129.6 98.3 L 130.2 97.6 L 130.8 96.8 L 131.4 95.8 L 132.0 94.6 L 132.4 93.3 L 132.8 91.5 L 133.2 89.1 L 133.6 86.3 L 133.9 83.0 L 134.1 79.2 L 134.3 75.0 L 134.3 61.8 L 115.29146337509155 61.8 L 114.6 68.1 L 112.9 75.8 L 110.3 82.9 L 107.0 89.2 L 102.8 94.9 L 97.8 99.8 L 92.2 103.9 L 85.9 107.1 L 79.0 109.5 L 71.6 110.9 L 71.1 109.2 L 77.6 105.9 L 83.4 102.4 L 88.3 98.6 L 92.5 94.3 L 96.0 89.7 L 98.8 84.7 L 101.0 79.2 L 102.5 73.3 L 103.3 66.7 L 103.43802814483642 61.8 L 87.3 61.8 L 87.3 57.8 L 134.3 57.8 L 140.3 52.8 L 151.3 61.8 L 146.3 64.8 L 146.3 70.5 L 146.2 75.3 L 146.1 79.8 L 145.8 83.9 L 145.5 87.5 L 145.1 90.9 L 144.6 93.9 L 144.0 96.5 L 143.2 99.0 L 142.1 101.3 Z M 28.8 79.4 L 28.8 98.1 L 59.1 98.1 L 59.1 79.4 Z M 28.8 58.1 L 28.8 75.4 L 59.1 75.4 L 59.1 58.1 Z M 147.9 58.3 L 144.0 54.7 L 140.5 50.7 L 137.6 46.5 L 135.2 42.0 L 133.3 37.3 L 131.9 32.4 L 131.2 27.2 L 131.11698112487792 22.8 L 103.2 22.8 L 103.2 18.8 L 127.2 18.8 L 132.0 14.8 L 143.0 23.8 L 138.0 26.8 L 135.8716980934143 27.86415090560913 L 137.2 30.4 L 139.6 34.3 L 142.1 37.8 L 144.9 41.0 L 147.9 43.9 L 151.2 46.5 L 154.7 48.8 L 158.6 50.9 L 162.8 52.7 L 168.3 55.4 L 157.0 64.6 L 152.2 61.6 Z M 28.8 36.8 L 28.8 54.1 L 59.1 54.1 L 59.1 36.8 Z M 131.8 21.78333330154419 L 131.9 21.76666669845581 L 131.8 21.73333330154419 Z " />
</g>
</svg>
