<svg xmlns="http://www.w3.org/2000/svg" xmlns:xlink="http://www.w3.org/1999/xlink" version="1.1" baseProfile="full" viewBox="0 0 200 200" width="200" height="200">
<g fill="black">
<path d="M 134.6 113.6 L 137.9 126.5 L 141.9 137.8 L 146.7 147.6 L 152.2 155.7 L 158.3 162.3 L 165.0 167.4 L 172.4 171.1 L 180.6 173.5 L 189.2 175.7 L 177.4 186.4 L 167.4 182.5 L 158.3 177.1 L 150.5 170.1 L 143.9 161.7 L 138.4 151.8 L 134.1 140.7 L 130.9 128.3 L 129.99262504577638 122.33725004196167 L 127.2 133.0 L 122.6 144.5 L 116.7 154.9 L 109.7 164.1 L 101.5 172.0 L 92.1 178.6 L 81.6 183.9 L 70.1 187.8 L 69.4 186.1 L 79.9 180.5 L 89.1 174.2 L 97.0 167.2 L 103.8 159.3 L 109.5 150.5 L 114.1 140.8 L 117.6 130.1 L 120.0 118.5 L 121.3 105.7 L 121.6 92.0 L 121.6 15.0 L 133.6 17.0 L 136.6 19.0 L 133.6 20.8 L 133.6 92.0 L 132.87172899246215 103.89509344100952 Z M 27.9 36.0 L 51.4 36.0 L 57.4 31.0 L 68.4 40.0 L 63.4 44.0 L 63.4 158.0 L 51.4 164.0 L 51.4 152.0 L 27.9 152.0 L 27.9 164.0 L 15.9 170.0 L 15.9 30.0 Z M 27.9 96.0 L 27.9 148.0 L 51.4 148.0 L 51.4 96.0 Z M 116.0 34.1 L 116.5 37.7 L 112.43599996566772 36.393714332580565 L 110.5 37.5 L 107.5 39.0 L 104.3 40.5 L 101.0 41.8 L 97.6 43.0 L 93.9 44.1 L 90.1 45.1 L 87.7 45.58000001907349 L 87.7 77.0 L 99.9777777671814 77.0 L 106.2 70.0 L 114.2 77.0 L 114.2 81.0 L 87.7 81.0 L 87.7 120.0 L 100.6777777671814 120.0 L 106.9 113.0 L 114.9 120.0 L 114.9 124.0 L 87.7 124.0 L 87.7 136.0 L 75.7 142.0 L 75.7 38.0 L 85.5285714149475 42.91428575515747 L 88.4 41.0 L 91.6 39.0 L 94.6 36.9 L 97.3 34.9 L 99.9 33.0 L 102.2 31.0 L 104.4 29.0 L 106.3 27.1 L 107.3579815864563 25.85531578063965 L 107.3 25.8 L 107.72954549789429 25.418181800842284 L 108.0 25.1 L 108.03862066268921 25.143448257446288 L 108.2 25.0 Z M 180.9 43.0 L 175.9 47.0 L 175.9 130.0 L 163.9 136.0 L 163.9 124.0 L 139.6 124.0 L 139.6 120.0 L 163.9 120.0 L 163.9 81.0 L 139.6 81.0 L 139.6 77.0 L 163.9 77.0 L 163.9 43.0 L 139.6 43.0 L 139.6 39.0 L 163.9 39.0 L 169.9 34.0 Z M 27.9 40.0 L 27.9 92.0 L 51.4 92.0 L 51.4 40.0 Z " />
</g>
</svg>
