<svg xmlns="http://www.w3.org/2000/svg" xmlns:xlink="http://www.w3.org/1999/xlink" version="1.1" baseProfile="full" viewBox="0 0 200 200" width="200" height="200">
<g fill="black">
<path d="M 53.7 124.2 L 145.3 124.2 L 151.3 119.2 L 162.3 128.2 L 157.3 132.2 L 157.3 179.8 L 145.3 185.8 L 145.3 175.8 L 53.7 175.8 L 53.7 182.8 L 41.7 188.8 L 41.7 118.2 Z M 53.7 152.0 L 53.7 171.8 L 145.3 171.8 L 145.3 152.0 Z M 53.7 128.2 L 53.7 148.0 L 145.3 148.0 L 145.3 128.2 Z M 59.0 79.7 L 141.0 79.7 L 147.0 74.7 L 158.0 83.7 L 153.0 87.7 L 153.0 110.0 L 141.0 116.0 L 141.0 108.0 L 59.0 108.0 L 59.0 111.0 L 47.0 117.0 L 47.0 73.7 Z M 59.0 83.7 L 59.0 104.0 L 141.0 104.0 L 141.0 83.7 Z M 158.7 66.8 L 150.0 62.5 L 141.6 57.7 L 133.4 52.5 L 125.6 46.9 L 118.1 40.8 L 110.9 34.3 L 104.2 27.2 L 102.18253965377808 24.726984119415285 L 98.6 28.6 L 90.7 36.1 L 82.4 43.1 L 73.6 49.6 L 64.4 55.7 L 54.7 61.2 L 44.5 66.2 L 33.9 70.7 L 22.8 74.6 L 11.2 77.8 L 10.7 76.1 L 21.4 71.1 L 31.7 65.8 L 41.5 60.4 L 50.8 54.7 L 59.7 48.6 L 68.0 42.2 L 75.9 35.4 L 83.3 28.3 L 90.2 20.8 L 96.0740740776062 13.751111125946045 L 96.0 13.7 L 97.1 12.5 L 106.0 20.6 L 107.0 24.0 L 106.68168210983276 23.95609407424927 L 107.0 24.2 L 114.7 29.8 L 122.5 35.1 L 130.3 40.0 L 138.3 44.6 L 146.5 48.7 L 154.8 52.5 L 163.3 56.0 L 172.0 59.0 L 180.9 61.6 L 188.6 64.0 L 177.0 74.2 L 167.7 70.7 Z M 133.0 59.2 L 133.0 63.2 L 64.0 63.2 L 64.0 59.2 L 111.0 59.2 L 121.0 49.2 Z " />
</g>
</svg>
