<svg xmlns="http://www.w3.org/2000/svg" xmlns:xlink="http://www.w3.org/1999/xlink" version="1.1" baseProfile="full" viewBox="0 0 200 200" width="200" height="200">
<g fill="black">
<path d="M 68.4 105.1 L 66.9 102.7 L 65.1 100.4 L 63.2 98.2 L 61.1 95.9 L 58.8 93.7 L 56.4 91.4 L 54.4 89.6307692527771 L 54.4 183.0 L 42.4 189.0 L 42.4 94.10909090042114 L 40.3 99.9 L 36.6 108.7 L 32.6 117.3 L 28.2 125.6 L 23.5 133.6 L 18.3 141.2 L 12.6 148.4 L 11.1 147.5 L 15.0 139.3 L 18.7 131.0 L 22.3 122.7 L 25.6 114.3 L 28.7 105.7 L 31.5 96.9 L 34.0 87.9 L 36.2 78.7 L 38.2 69.4 L 39.19047622680664 63.0 L 11.8 63.0 L 11.8 59.0 L 42.4 59.0 L 42.4 14.0 L 54.4 16.0 L 57.4 18.0 L 54.4 19.8 L 54.4 59.0 L 60.3 59.0 L 70.3 49.0 L 82.3 59.0 L 82.3 63.0 L 54.4 63.0 L 54.4 86.50588235855102 L 55.0 86.7 L 58.5 87.8 L 61.8 89.0 L 65.0 90.5 L 68.1 92.2 L 70.9 94.0 L 73.7 96.1 L 76.3 98.2 L 78.7 100.6 L 81.0 103.1 L 81.9 107.6 L 79.4 111.4 L 74.9 112.3 L 71.1 109.8 L 69.8 107.4 Z M 163.1 168.8 L 156.9 161.1 L 151.5 152.7 L 146.7 143.6 L 142.7 133.9 L 139.4 123.7 L 136.8 112.7 L 135.0 101.2 L 134.68969869613647 97.02817096710206 L 133.8 102.7 L 129.9 117.1 L 124.6 130.4 L 117.9 142.6 L 109.7 153.7 L 100.2 163.6 L 89.3 172.3 L 77.0 179.7 L 63.5 185.8 L 62.7 184.1 L 75.1 176.4 L 86.0 168.0 L 95.6 158.9 L 103.7 149.0 L 110.6 138.3 L 116.1 126.7 L 120.3 114.2 L 123.3 100.8 L 124.49172410964965 90.0 L 77.6 90.0 L 77.6 86.0 L 124.90784311294556 86.0 L 125.3 71.0 L 125.3 34.0 L 83.4 34.0 L 83.4 30.0 L 157.1 30.0 L 167.1 20.0 L 179.1 30.0 L 179.1 34.0 L 137.3 34.0 L 137.3 71.0 L 136.29390239715576 86.0 L 163.6 86.0 L 173.6 76.0 L 185.6 86.0 L 185.6 90.0 L 136.23103446960448 90.0 L 139.1 100.4 L 142.5 111.2 L 146.2 121.3 L 150.4 130.7 L 155.0 139.3 L 160.1 147.1 L 165.6 154.3 L 171.7 160.7 L 178.1 166.5 L 185.1 171.6 L 188.4 173.9 L 177.4 182.3 L 169.9 175.9 Z " />
</g>
</svg>
