<svg xmlns="http://www.w3.org/2000/svg" xmlns:xlink="http://www.w3.org/1999/xlink" version="1.1" baseProfile="full" viewBox="0 0 200 200" width="200" height="200">
<g fill="black">
<path d="M 156.1 146.2 L 156.5 149.8 L 152.90141468048097 148.55685234069824 L 146.6 153.2 L 136.2 159.5 L 124.9 165.2 L 112.7 170.3 L 99.6 174.8 L 85.7 178.7 L 70.9 182.0 L 55.2 184.6 L 38.5 186.5 L 21.0 187.6 L 20.9 185.9 L 38.0 182.7 L 54.2 179.3 L 69.4 175.6 L 83.6 171.4 L 96.9 166.8 L 109.1 161.7 L 120.4 156.2 L 130.7 150.3 L 140.0 143.9 L 147.53065958023072 137.7303030014038 L 147.5 137.7 L 148.5 136.9 Z M 70.0 147.5 L 90.0 147.5 L 91.2 147.4 L 92.1 147.2 L 92.7 147.1 L 93.0 146.9 L 93.4 146.5 L 93.7 145.6 L 93.9 144.7 L 94.0 143.5 L 94.0 95.8 L 106.0 97.8 L 109.0 99.8 L 106.0 101.6 L 106.0 143.5 L 105.8 146.0 L 105.4 148.5 L 104.6 150.9 L 103.3 153.2 L 101.7 155.2 L 99.7 156.9 L 97.4 158.1 L 95.0 158.9 L 92.5 159.3 L 90.0 159.5 L 90.0 153.5 L 70.0 150.5 Z M 65.8 117.6 L 67.6 120.7 L 63.57380952835083 120.97766828536987 L 62.9 122.0 L 59.5 126.2 L 55.7 130.2 L 51.3 134.0 L 46.5 137.7 L 41.3 141.2 L 35.6 144.6 L 29.3 147.7 L 22.6 150.6 L 15.3 153.2 L 14.6 151.6 L 20.8 147.3 L 26.6 143.1 L 31.9 139.1 L 36.8 135.1 L 41.1 131.2 L 45.0 127.3 L 48.3 123.4 L 51.1 119.6 L 53.4 115.8 L 54.75173254013062 113.02143869400024 L 54.7 113.0 L 55.7 111.0 Z M 166.3 136.2 L 162.5 133.3 L 158.4 130.4 L 154.0 127.6 L 149.1 124.8 L 144.0 121.9 L 138.5 119.1 L 132.7 116.1 L 126.6 113.0 L 127.2 111.3 L 134.0 112.5 L 140.4 114.1 L 146.5 115.9 L 152.3 117.9 L 157.8 120.0 L 163.0 122.3 L 167.8 124.8 L 172.4 127.3 L 176.7 130.1 L 180.6 132.9 L 182.6 137.1 L 181.2 141.4 L 177.1 143.4 L 172.7 142.0 L 169.7 139.1 Z M 54.5 25.9 L 145.5 25.9 L 151.5 20.9 L 162.5 29.9 L 157.5 33.9 L 157.5 87.4 L 145.5 93.4 L 145.5 81.4 L 54.5 81.4 L 54.5 93.4 L 42.5 99.4 L 42.5 19.9 Z M 54.5 55.6 L 54.5 77.4 L 145.5 77.4 L 145.5 55.6 Z M 54.5 29.9 L 54.5 51.6 L 145.5 51.6 L 145.5 29.9 Z " />
</g>
</svg>
