<svg xmlns="http://www.w3.org/2000/svg" xmlns:xlink="http://www.w3.org/1999/xlink" version="1.1" baseProfile="full" viewBox="0 0 200 200" width="200" height="200">
<g fill="black">
<path d="M 33.4 22.0 L 59.9 22.0 L 65.9 17.0 L 76.9 26.0 L 71.9 30.0 L 71.9 171.0 L 71.7 173.5 L 71.3 176.0 L 70.5 178.4 L 69.3 180.7 L 67.6 182.7 L 65.6 184.3 L 63.3 185.6 L 60.9 186.4 L 58.4 186.8 L 55.9 187.0 L 55.9 181.0 L 39.9 178.0 L 39.9 175.0 L 55.9 175.0 L 57.1 174.9 L 58.0 174.7 L 58.9 174.4 L 59.3 174.0 L 59.6 173.1 L 59.8 172.2 L 59.9 171.0 L 59.9 114.0 L 33.4 114.0 L 33.4 118.0 L 32.9 128.7 L 32.1 138.7 L 31.0 147.9 L 29.5 156.3 L 27.7 163.9 L 25.5 170.6 L 22.9 176.6 L 19.9 181.6 L 16.4 185.7 L 12.6 188.6 L 11.3 187.3 L 13.4 183.4 L 15.1 179.1 L 16.8 174.1 L 18.2 168.5 L 19.4 162.0 L 20.3 154.8 L 21.0 146.8 L 21.4 138.0 L 21.5 128.4 L 21.4 118.0 L 21.4 16.0 Z M 117.6 181.4 L 115.1 180.9 L 112.7 180.1 L 110.5 178.9 L 108.4 177.2 L 106.8 175.2 L 105.6 173.0 L 104.8 170.6 L 104.3 168.1 L 104.2 165.5 L 104.2 126.8 L 116.2 128.8 L 119.2 130.8 L 116.2 132.6 L 116.2 165.5 L 116.3 166.7 L 116.4 167.7 L 116.6 168.2 L 116.9 168.8 L 117.5 169.1 L 118.0 169.3 L 119.0 169.4 L 120.2 169.5 L 156.0 169.5 L 162.0 144.5 L 164.0 144.5 L 162.0 169.5 L 165.6 171.9 L 168.0 175.5 L 165.6 179.1 L 162.0 181.5 L 120.2 181.5 Z M 77.3 173.8 L 75.7 169.5 L 77.5 165.3 L 79.2 164.0 L 80.9 162.1 L 82.5 159.7 L 84.1 156.8 L 85.5 153.2 L 86.8 149.2 L 88.0 144.6 L 89.0 139.5 L 90.0 134.0 L 90.7 127.9 L 92.5 127.8 L 93.3 134.0 L 93.9 139.8 L 94.1 145.3 L 93.9 150.4 L 93.4 155.1 L 92.6 159.6 L 91.5 163.7 L 90.0 167.5 L 88.1 170.9 L 85.8 174.0 L 81.5 175.6 Z M 174.9 157.8 L 174.1 154.2 L 173.0 150.6 L 171.8 147.1 L 170.4 143.7 L 168.8 140.3 L 167.0 136.9 L 165.1 133.4 L 162.8 130.1 L 164.0 128.8 L 167.4 131.3 L 170.6 133.9 L 173.6 136.8 L 176.4 140.0 L 178.9 143.4 L 181.1 146.9 L 183.2 150.7 L 185.0 154.6 L 186.5 158.7 L 187.8 163.0 L 186.9 167.5 L 183.1 170.0 L 178.6 169.1 L 176.1 165.3 L 175.6 161.5 Z M 135.1 143.7 L 134.1 140.9 L 133.1 138.2 L 130.5 133.0 L 129.1 130.5 L 127.6 128.1 L 125.9 125.6 L 123.9 123.5 L 125.0 122.0 L 127.6 123.6 L 130.4 125.0 L 133.1 126.8 L 135.6 128.8 L 138.0 131.1 L 140.3 133.5 L 142.4 136.2 L 144.4 139.1 L 146.3 142.1 L 148.0 145.3 L 147.8 149.9 L 144.5 153.1 L 140.0 152.8 L 136.8 149.6 L 136.0 146.6 Z M 137.9 20.1 L 139.5 23.4 L 134.9777777671814 23.4 L 134.8 23.6 L 133.1 25.5 L 131.2 27.5 L 129.3 29.6 L 124.9 34.0 L 122.5 36.3 L 119.9 38.7 L 119.72222223281861 38.9 L 162.7 38.9 L 168.7 33.9 L 179.7 42.9 L 174.7 46.9 L 174.7 112.9 L 162.7 118.9 L 162.7 112.9 L 101.2 112.9 L 89.2 118.9 L 89.2 32.9 L 101.2 38.9 L 116.84375 38.9 L 117.8 37.2 L 119.2 34.0 L 120.5 31.0 L 121.8 28.1 L 123.0 25.4 L 124.1 22.8 L 125.1 20.4 L 126.0 18.1 L 126.8 16.0 L 127.17457904815674 14.983285427093506 L 127.0 14.9 L 127.47666664123535 14.163333320617676 L 127.5 14.1 L 127.51285009384155 14.107413482666015 L 128.1 13.2 Z M 33.4 69.0 L 33.4 110.0 L 59.9 110.0 L 59.9 69.0 Z M 139.9 93.0 L 138.97594938278198 91.70632915496826 L 138.4 92.2 L 132.4 96.4 L 125.9 99.9 L 119.1 102.8 L 111.7 104.9 L 104.0 106.2 L 103.6 104.4 L 110.5 101.3 L 116.8 97.9 L 122.7 94.2 L 128.0 90.2 L 132.8 85.8 L 133.80147523880004 84.70748157501221 L 132.8 83.4 L 129.0 79.0 L 125.1 74.9 L 124.91336698532105 74.72269859313965 L 123.7 76.4 L 120.2 80.8 L 116.6 84.8 L 112.7 88.4 L 108.7 91.5 L 104.4 94.1 L 103.2 92.8 L 106.0 88.8 L 108.7 84.8 L 111.4 80.6 L 114.1 76.3 L 116.6 71.8 L 118.26524991989136 68.60272016525269 L 116.9 67.4 L 112.6 63.9 L 108.1 60.5 L 108.9 58.8 L 114.5 60.6 L 119.8 62.9 L 120.74386291503906 63.42638502120972 L 121.4 62.0 L 123.7 56.8 L 125.9 51.2 L 127.9 45.4 L 127.94207649230957 45.41653003692627 L 128.4 44.1 L 139.1 49.8 L 141.1 52.8 L 137.3968152999878 53.44968156814575 L 136.3 55.8 L 135.2125 57.9 L 149.6 57.9 L 155.6 52.9 L 162.7 58.709090900421145 L 162.7 42.9 L 101.2 42.9 L 101.2 108.9 L 162.7 108.9 L 162.7 64.23999996185303 L 161.6 64.9 L 159.3915820121765 65.8201741218567 L 157.7 69.3 L 153.6 75.9 L 149.0 81.9 L 146.596053981781 84.54434061050415 L 148.4 86.6 L 152.6 91.9 L 156.6 97.7 L 157.3 102.2 L 154.6 105.9 L 150.1 106.5 L 146.4 103.9 L 143.2 98.3 Z M 133.10754718780518 61.9 L 130.3 66.7 L 129.13104610443116 68.52649040222168 L 130.0 69.1 L 134.9 72.9 L 139.6 77.1 L 139.92685251235963 77.43411588668823 L 141.1 75.9 L 144.5 70.2 L 147.5 64.2 L 148.41999998092652 61.9 Z M 33.4 26.0 L 33.4 65.0 L 59.9 65.0 L 59.9 26.0 Z " />
</g>
</svg>
