<svg xmlns="http://www.w3.org/2000/svg" xmlns:xlink="http://www.w3.org/1999/xlink" version="1.1" baseProfile="full" viewBox="0 0 200 200" width="200" height="200">
<g fill="black">
<path d="M 34.0 22.0 L 60.0 22.0 L 66.0 17.0 L 77.0 26.0 L 72.0 30.0 L 72.0 171.0 L 71.9 173.5 L 71.5 176.0 L 70.6 178.4 L 69.4 180.7 L 67.8 182.7 L 65.8 184.3 L 63.5 185.6 L 61.1 186.4 L 58.6 186.8 L 56.0 187.0 L 56.0 181.0 L 40.0 178.0 L 40.0 175.0 L 56.0 175.0 L 57.3 174.9 L 58.2 174.7 L 59.1 174.4 L 59.3 174.2 L 59.4 174.0 L 59.6 173.7 L 59.8 173.1 L 60.0 172.2 L 60.0 114.0 L 34.0 114.0 L 34.0 118.0 L 33.6 128.7 L 32.8 138.7 L 31.7 147.9 L 30.2 156.3 L 28.4 163.9 L 26.2 170.6 L 23.6 176.6 L 20.7 181.6 L 17.3 185.7 L 13.5 188.6 L 12.2 187.3 L 14.2 183.4 L 15.9 179.1 L 17.5 174.1 L 18.9 168.5 L 20.1 162.0 L 21.0 154.8 L 21.7 146.8 L 22.1 138.0 L 22.2 128.4 L 22.0 118.0 L 22.0 16.0 Z M 183.8 32.0 L 183.8 36.0 L 120.08767776489258 36.0 L 116.47819900512695 70.0 L 154.1 70.0 L 160.1 65.0 L 171.1 74.0 L 166.1 77.0 L 164.78964948654175 77.54597940444947 L 158.1365385055542 175.0 L 166.5 175.0 L 176.5 165.0 L 188.5 175.0 L 188.5 179.0 L 79.1 179.0 L 79.1 175.0 L 146.1542857170105 175.0 L 149.72132530212403 128.76059827804565 L 146.56636362075807 128.97818183898926 L 144.3 132.0 L 141.6 135.2 L 138.6 138.4 L 135.3 141.7 L 131.7 144.9 L 127.8 148.1 L 123.6 151.3 L 119.0 154.5 L 114.1 157.6 L 113.0 156.3 L 116.7 151.9 L 120.1 147.7 L 123.4 143.7 L 126.4 139.9 L 129.1 136.2 L 131.5 132.7 L 133.6 129.3 L 135.4 126.1 L 136.9 123.0 L 137.7235481262207 121.0097586631775 L 137.7 121.0 L 137.8290322303772 120.75483875274658 L 138.1 120.1 L 138.157994556427 120.12981033325195 L 138.7 119.1 L 148.8 125.6 L 149.82849941253662 127.37130451202393 L 153.9457142829895 74.0 L 116.05355453491211 74.0 L 109.1 139.5 L 96.6 144.2 L 107.98947372436524 36.0 L 79.8 36.0 L 79.8 32.0 L 161.8 32.0 L 171.8 22.0 Z M 147.1 85.1 L 149.2 88.1 L 145.12015209197997 88.7330798149109 L 143.1 92.1 L 140.6 95.7 L 137.8 99.3 L 134.7 102.9 L 131.3 106.6 L 127.6 110.3 L 123.5 114.1 L 119.0 117.8 L 114.2 121.6 L 112.9 120.3 L 116.4 115.4 L 119.6 110.7 L 122.7 106.2 L 125.5 102.0 L 128.0 98.0 L 130.2 94.1 L 132.1 90.5 L 133.7 87.0 L 135.0 83.7 L 135.6907895088196 81.6276315689087 L 135.6 81.6 L 136.5 79.3 Z M 34.0 69.0 L 34.0 110.0 L 60.0 110.0 L 60.0 69.0 Z M 34.0 26.0 L 34.0 65.0 L 60.0 65.0 L 60.0 26.0 Z " />
</g>
</svg>
