<svg xmlns="http://www.w3.org/2000/svg" xmlns:xlink="http://www.w3.org/1999/xlink" version="1.1" baseProfile="full" viewBox="0 0 200 200" width="200" height="200">
<g fill="black">
<path d="M 124.6 28.0 L 119.6 31.5 L 119.6 73.0 L 108.6 78.5 L 108.6 71.0 L 80.8 71.0 L 80.8 183.7 L 71.8 188.2 L 71.8 19.5 L 80.8 24.0 L 108.6 24.0 L 114.1 19.0 Z M 147.7 176.0 L 156.45609760284424 176.0 L 154.0 174.1 L 149.3 169.5 L 145.1 164.3 L 142.67854585647584 160.4660309791565 L 141.9 161.6 L 136.7 167.5 L 131.0 172.4 L 124.7 176.3 L 117.9 179.0 L 117.13999996185302 177.4800000190735 L 111.5 180.3 L 111.5 159.05454549789428 L 110.5 159.6 L 107.3 161.2 L 104.1 162.7 L 101.0 164.1 L 97.9 165.4 L 94.9 166.7 L 92.0 167.8 L 90.6381254196167 168.3350221633911 L 89.0 172.4 L 86.5 169.9 L 82.0 158.6 L 83.9 158.2 L 86.7 158.0 L 89.6 157.7 L 89.6 109.3 L 83.7 109.3 L 83.7 105.3 L 99.8 105.3 L 99.8 90.6 L 86.6 90.6 L 86.6 86.6 L 109.21818180084229 86.6 L 117.4 77.6 L 127.4 86.6 L 127.4 90.6 L 111.8 90.6 L 111.8 105.3 L 112.41818180084229 105.3 L 120.6 96.3 L 130.6 105.3 L 130.6 108.6833333015442 L 131.3 106.0 L 132.4 101.2 L 133.5 96.3 L 134.4 91.2 L 135.2 86.1 L 135.76954402923585 81.70637483596802 L 135.7 81.7 L 136.2 78.8 L 147.7 82.8 L 150.3 85.3 L 146.80403490066527 86.65954198837281 L 146.4 88.4 L 144.8 93.7 L 143.2 98.9 L 141.3 103.9 L 140.36122446060182 106.2 L 151.87777776718139 106.2 L 158.1 99.2 L 166.1 106.2 L 166.1 110.2 L 160.1925926208496 110.2 L 158.8 119.6 L 156.6 129.6 L 153.8 138.8 L 150.4 147.3 L 148.58105907440185 150.84460287094117 L 150.1 153.1 L 153.7 157.4 L 157.6 161.1 L 161.8 164.3 L 166.2 167.0 L 169.7 169.1666666984558 L 169.7 71.0 L 143.4 71.0 L 132.4 76.5 L 132.4 18.5 L 143.4 24.0 L 169.7 24.0 L 175.7 19.0 L 186.7 28.0 L 181.7 32.0 L 181.7 172.0 L 181.5 174.5 L 181.1 177.0 L 180.3 179.4 L 179.0 181.7 L 177.4 183.7 L 175.4 185.3 L 173.1 186.6 L 170.7 187.4 L 168.2 187.8 L 165.7 188.0 L 165.7 182.0 L 147.7 179.0 Z M 122.5 109.3 L 122.5 173.17818183898925 L 122.6 173.1 L 127.4 168.4 L 131.8 163.2 L 135.6 157.4 L 138.35849056243896 152.1264150619507 L 136.0 145.9 L 134.1 138.8 L 132.7 131.3 L 132.0 123.3 L 132.0125521659851 122.24562139511109 L 129.3 125.8 L 126.2 129.4 L 124.6 128.5 L 126.0 124.1 L 127.3 119.6 L 128.7 115.2 L 130.1 110.6 L 130.43913040161132 109.3 Z M 28.2 36.0 L 52.6 36.0 L 58.1 31.0 L 68.6 40.0 L 63.6 43.5 L 63.6 158.0 L 52.6 163.5 L 52.6 152.0 L 28.2 152.0 L 28.2 164.0 L 16.2 170.0 L 16.2 30.0 Z M 98.6 143.1 L 98.6 156.7375 L 98.9 156.7 L 105.7 155.9 L 109.3 155.5 L 111.5 155.26216220855713 L 111.5 143.1 Z M 28.2 96.0 L 28.2 148.0 L 52.6 148.0 L 52.6 96.0 Z M 138.63043479919435 110.2 L 137.1 113.4 L 134.70165061950684 117.79697389602661 L 136.1 122.6 L 138.4 129.9 L 141.0 136.6 L 142.7714762687683 140.60222406387328 L 144.2 135.9 L 146.1 127.2 L 147.5 117.9 L 148.25490198135375 110.2 Z M 98.6 126.2 L 98.6 139.1 L 111.5 139.1 L 111.5 126.2 Z M 98.6 109.3 L 98.6 122.2 L 111.5 122.2 L 111.5 109.3 Z M 28.2 40.0 L 28.2 92.0 L 52.6 92.0 L 52.6 40.0 Z M 143.4 49.0 L 143.4 67.0 L 169.7 67.0 L 169.7 49.0 Z M 80.8 49.0 L 80.8 67.0 L 108.6 67.0 L 108.6 49.0 Z M 143.4 28.0 L 143.4 45.0 L 169.7 45.0 L 169.7 28.0 Z M 80.8 28.0 L 80.8 45.0 L 108.6 45.0 L 108.6 28.0 Z M 162.13953485488892 176.0 L 165.7 176.0 L 166.9 175.9 L 167.8 175.7 L 168.7 175.4 L 169.1 175.0 L 169.4 174.1 L 169.6 173.2 L 169.7 172.0 L 169.7 170.142342376709 Z " />
</g>
</svg>
