<svg xmlns="http://www.w3.org/2000/svg" xmlns:xlink="http://www.w3.org/1999/xlink" version="1.1" baseProfile="full" viewBox="0 0 200 200" width="200" height="200">
<g fill="black">
<path d="M 31.2 22.0 L 56.0 22.0 L 62.0 17.0 L 73.0 26.0 L 68.0 30.0 L 68.0 171.0 L 67.8 173.5 L 67.4 176.0 L 66.6 178.4 L 65.3 180.7 L 63.7 182.7 L 61.7 184.3 L 59.4 185.6 L 57.0 186.4 L 54.5 186.8 L 52.0 187.0 L 52.0 181.0 L 36.0 178.0 L 36.0 175.0 L 52.0 175.0 L 53.2 174.9 L 54.1 174.7 L 55.0 174.4 L 55.4 174.0 L 55.7 173.1 L 55.9 172.2 L 56.0 171.0 L 56.0 114.0 L 31.2 114.0 L 31.2 118.0 L 30.7 128.7 L 30.0 138.7 L 28.9 147.9 L 27.4 156.2 L 25.7 163.8 L 23.6 170.6 L 21.1 176.5 L 18.2 181.6 L 14.9 185.6 L 11.1 188.6 L 9.9 187.3 L 11.7 183.5 L 13.4 179.1 L 14.9 174.2 L 16.3 168.5 L 17.4 162.1 L 18.3 154.9 L 18.9 146.8 L 19.3 138.0 L 19.4 128.4 L 19.2 118.0 L 19.2 16.0 Z M 150.0 176.5 L 167.2 176.5 L 168.1 176.3 L 168.7 176.1 L 169.1 175.9 L 169.4 175.6 L 169.6 175.3 L 169.8 174.7 L 169.9 173.8 L 170.0 172.5 L 170.0 67.1 L 137.5 67.1 L 137.5 179.0 L 125.5 185.0 L 125.5 67.1 L 92.9 67.1 L 92.9 182.6 L 80.9 188.6 L 80.9 57.1 L 92.9 63.1 L 125.5 63.1 L 125.5 34.2 L 76.4 34.2 L 76.4 30.2 L 164.5 30.2 L 174.5 20.2 L 186.5 30.2 L 186.5 34.2 L 137.5 34.2 L 137.5 63.1 L 170.0 63.1 L 176.0 58.1 L 187.0 67.1 L 182.0 71.1 L 182.0 172.5 L 181.9 175.1 L 181.4 177.6 L 180.6 180.0 L 179.4 182.2 L 177.7 184.3 L 175.7 185.9 L 173.5 187.1 L 171.0 187.9 L 168.6 188.4 L 166.0 188.5 L 166.0 182.5 L 150.0 179.5 Z M 152.7 147.0 L 152.0 144.4 L 151.1 141.9 L 150.1 139.3 L 148.8 136.8 L 147.3 134.2 L 145.7 131.6 L 143.8 128.9 L 141.5 126.6 L 142.6 125.1 L 145.5 126.9 L 148.5 128.6 L 151.3 130.5 L 153.9 132.6 L 156.3 135.0 L 158.5 137.5 L 160.5 140.2 L 162.3 143.1 L 163.9 146.2 L 165.2 149.5 L 164.5 154.0 L 160.8 156.7 L 156.3 156.0 L 153.5 152.3 L 153.2 149.7 Z M 108.2 147.0 L 107.5 144.4 L 106.6 141.9 L 105.5 139.3 L 104.3 136.8 L 102.8 134.2 L 101.1 131.6 L 99.3 128.9 L 97.0 126.6 L 98.0 125.1 L 101.0 126.9 L 104.0 128.6 L 106.8 130.5 L 109.4 132.6 L 111.8 135.0 L 114.0 137.5 L 116.0 140.2 L 117.8 143.1 L 119.3 146.2 L 120.7 149.5 L 119.9 154.0 L 116.3 156.7 L 111.8 156.0 L 109.0 152.3 L 108.7 149.7 Z M 108.2 105.5 L 107.5 102.9 L 106.6 100.3 L 105.5 97.7 L 104.3 95.2 L 102.8 92.6 L 101.1 90.0 L 99.3 87.4 L 97.0 85.0 L 98.0 83.6 L 104.0 87.0 L 106.8 88.9 L 109.4 91.0 L 111.8 93.4 L 114.0 95.9 L 116.0 98.7 L 117.8 101.6 L 119.3 104.6 L 120.7 107.9 L 119.9 112.4 L 116.3 115.1 L 111.8 114.4 L 109.0 110.7 L 108.7 108.1 Z M 152.7 105.5 L 152.0 102.9 L 151.1 100.3 L 150.1 97.7 L 148.8 95.2 L 147.3 92.6 L 145.7 90.0 L 143.8 87.4 L 141.5 85.0 L 142.6 83.6 L 145.5 85.3 L 148.5 87.0 L 151.3 88.9 L 153.9 91.0 L 156.3 93.4 L 158.5 95.9 L 160.5 98.7 L 162.3 101.6 L 163.9 104.6 L 165.2 107.9 L 164.5 112.4 L 160.8 115.1 L 156.3 114.4 L 153.5 110.7 L 153.2 108.1 Z M 31.2 69.0 L 31.2 110.0 L 56.0 110.0 L 56.0 69.0 Z M 31.2 26.0 L 31.2 65.0 L 56.0 65.0 L 56.0 26.0 Z " />
</g>
</svg>
