<svg xmlns="http://www.w3.org/2000/svg" xmlns:xlink="http://www.w3.org/1999/xlink" version="1.1" baseProfile="full" viewBox="0 0 200 200" width="200" height="200">
<g fill="black">
<path d="M 137.0 176.1 L 152.2 176.1 L 153.1 175.9 L 153.7 175.7 L 154.0 175.5 L 154.2 175.4 L 154.4 175.2 L 154.7 174.3 L 154.9 173.4 L 155.0 172.1 L 155.0 103.5 L 106.0 103.5 L 106.0 179.1 L 94.0 185.1 L 94.0 103.5 L 45.0 103.5 L 45.0 181.2 L 33.0 187.2 L 33.0 103.76101694107055 L 32.0 104.1 L 26.0 105.9 L 19.7 107.4 L 13.2 108.6 L 12.7 106.9 L 18.4 103.9 L 24.0 100.9 L 29.5 98.0 L 33.0 96.15094337463378 L 33.0 93.5 L 35.54862384796142 94.77431192398072 L 39.9 92.3 L 44.8 89.3 L 49.6 86.4 L 54.1 83.3 L 58.5 80.2 L 61.65 77.8 L 14.0 77.8 L 14.0 73.8 L 167.8181818008423 73.8 L 176.0 64.8 L 186.0 73.8 L 186.0 77.8 L 106.0 77.8 L 106.0 99.5 L 155.0 99.5 L 160.21904764175414 95.15079364776611 L 157.4 93.8 L 152.1 91.5 L 146.4 89.2 L 140.2 86.9 L 133.7 84.4 L 126.7 81.8 L 127.1 80.0 L 134.6 80.7 L 141.6 81.7 L 148.2 82.9 L 154.5 84.3 L 160.3 85.9 L 165.7 87.5 L 170.8 89.3 L 175.5 91.3 L 179.9 93.4 L 183.9 95.6 L 186.3 99.4 L 185.4 103.9 L 181.5 106.3 L 177.1 105.4 L 174.0 103.1 L 170.6 100.8 L 166.6 98.5 L 164.4666666984558 97.33636360168457 L 172.0 103.5 L 167.0 107.5 L 167.0 172.1 L 166.8 174.7 L 166.4 177.2 L 165.6 179.6 L 164.3 181.9 L 162.7 183.9 L 160.7 185.5 L 158.4 186.7 L 156.0 187.6 L 153.5 188.0 L 151.0 188.1 L 151.0 182.1 L 137.0 179.1 Z M 135.2 164.2 L 133.1 162.1 L 131.92303886413575 160.9765371322632 L 131.0 161.7 L 127.1 164.4 L 123.0 166.8 L 118.7 169.1 L 114.1 171.0 L 109.4 172.7 L 108.5 171.1 L 112.4 168.0 L 116.0 164.9 L 119.4 161.8 L 122.6 158.7 L 125.529629611969 155.57506170272828 L 122.7 153.5 L 119.6 151.3 L 116.2 148.9 L 112.5 146.8 L 113.2 145.2 L 117.4 146.3 L 121.4 147.2 L 125.3 148.4 L 129.0 149.7 L 130.0833667755127 150.1779559135437 L 130.9 149.1 L 133.3 145.8 L 135.4 142.5 L 136.89853496551513 139.95249061584474 L 136.8 139.9 L 137.9 138.3 L 147.5 145.6 L 148.9 148.9 L 144.8805555343628 148.76139850616454 L 144.6 149.1 L 141.5 152.6 L 139.36353254318237 154.6717260360718 L 141.8 156.1 L 144.6 158.0 L 147.2 160.0 L 148.8 164.3 L 147.0 168.5 L 142.8 170.1 L 138.5 168.4 L 137.0 166.3 Z M 75.3 164.4 L 73.4 162.1 L 72.06414346694946 160.63691902160645 L 70.5 161.8 L 66.4 164.5 L 62.0 166.9 L 57.4 169.1 L 52.5 171.0 L 47.3 172.7 L 46.6 171.1 L 50.8 167.9 L 54.7 164.8 L 58.5 161.7 L 61.9 158.6 L 65.2 155.4 L 65.63036947250366 154.93994989395142 L 63.1 153.0 L 59.9 150.7 L 56.4 148.3 L 52.6 146.1 L 53.2 144.4 L 57.6 145.6 L 61.8 146.6 L 65.8 147.9 L 69.6 149.4 L 70.23999996185303 149.68444442749023 L 70.8 149.0 L 73.2 145.8 L 75.4 142.4 L 76.88704776763916 139.94637126922606 L 76.8 139.9 L 77.9 138.3 L 87.5 145.6 L 88.9 148.9 L 84.95135135650635 148.7638397216797 L 84.6 149.2 L 81.4 152.6 L 79.35529956817626 154.58456220626832 L 79.7 154.8 L 82.6 156.9 L 85.4 159.2 L 87.9 161.7 L 89.0 166.2 L 86.8 170.1 L 82.3 171.2 L 78.4 169.0 L 77.0 166.7 Z M 75.2 132.3 L 73.1 130.2 L 71.1978021621704 128.61483516693116 L 70.3 129.3 L 66.3 131.9 L 62.1 134.3 L 57.7 136.4 L 53.1 138.1 L 48.3 139.5 L 47.6 137.9 L 51.4 135.0 L 55.1 132.0 L 58.5 129.1 L 61.8 126.1 L 64.3384614944458 123.5615385055542 L 62.0 122.1 L 58.5 120.2 L 54.8 118.1 L 50.7 116.3 L 51.2 114.6 L 55.6 115.3 L 60.0 115.9 L 64.1 116.8 L 68.1 117.9 L 68.99675569534301 118.21507635116578 L 70.4 116.5 L 72.9 113.1 L 75.2 109.5 L 76.88362922668458 106.7449704170227 L 76.8 106.7 L 77.9 105.1 L 87.4 112.4 L 88.9 115.7 L 84.9017375946045 115.56446571350098 L 84.4 116.2 L 81.2 119.8 L 78.61656770706176 122.30961999893188 L 81.7 124.1 L 84.6 126.1 L 87.4 128.3 L 88.9 132.6 L 87.0 136.8 L 82.7 138.3 L 78.5 136.4 L 77.0 134.3 Z M 135.2 132.3 L 133.1 130.2 L 131.2307692527771 128.64230766296387 L 130.5 129.2 L 126.6 131.9 L 122.6 134.2 L 118.3 136.3 L 113.9 138.0 L 109.3 139.5 L 108.6 137.9 L 112.2 135.0 L 115.7 132.1 L 119.0 129.1 L 122.1 126.1 L 124.47437181472779 123.64648237228394 L 122.0 122.1 L 118.5 120.2 L 114.8 118.1 L 110.7 116.3 L 111.2 114.6 L 115.6 115.3 L 120.0 115.9 L 124.1 116.8 L 128.1 117.9 L 129.1157793045044 118.25689544677735 L 130.5 116.5 L 133.0 113.1 L 136.88362922668458 106.7449704170227 L 136.8 106.7 L 137.9 105.1 L 147.4 112.4 L 148.9 115.7 L 144.9017375946045 115.56446571350098 L 144.4 116.2 L 141.2 119.8 L 138.6632653236389 122.33673467636109 L 141.7 124.1 L 144.6 126.1 L 147.4 128.3 L 148.9 132.6 L 147.0 136.8 L 142.7 138.3 L 138.5 136.4 L 137.0 134.3 Z M 63.257575798034665 77.8 L 67.54210529327392 83.9473684310913 L 69.9 86.6 L 70.0 90.2 L 66.46206893920899 88.69310340881347 L 64.7 89.7 L 59.7 92.5 L 54.5 95.1 L 49.1 97.6 L 44.79801979064941 99.39900989532471 L 45.0 99.5 L 94.0 99.5 L 94.0 77.8 Z M 55.0 16.9 L 145.0 16.9 L 151.0 11.9 L 162.0 20.9 L 157.0 24.9 L 157.0 61.8 L 145.0 67.8 L 145.0 61.8 L 55.0 61.8 L 43.0 67.8 L 43.0 10.9 Z M 55.0 41.4 L 55.0 57.8 L 145.0 57.8 L 145.0 41.4 Z M 55.0 20.9 L 55.0 37.4 L 145.0 37.4 L 145.0 20.9 Z " />
</g>
</svg>
