<svg xmlns="http://www.w3.org/2000/svg" xmlns:xlink="http://www.w3.org/1999/xlink" version="1.1" baseProfile="full" viewBox="0 0 200 200" width="200" height="200">
<g fill="black">
<path d="M 69.7 105.1 L 68.1 102.8 L 66.3 100.5 L 64.3 98.2 L 62.2 95.9 L 59.8 93.7 L 57.3 91.5 L 55.2 89.64230766296387 L 55.2 183.0 L 43.2 189.0 L 43.2 93.55757579803466 L 40.9 99.9 L 37.1 108.8 L 33.1 117.3 L 28.6 125.6 L 23.8 133.6 L 18.5 141.2 L 12.8 148.4 L 11.3 147.5 L 15.3 139.3 L 19.1 131.0 L 22.7 122.7 L 26.1 114.3 L 29.3 105.6 L 32.1 96.9 L 34.6 87.9 L 36.9 78.7 L 38.9 69.4 L 39.96666669845581 63.0 L 12.0 63.0 L 12.0 59.0 L 43.2 59.0 L 43.2 14.0 L 55.2 16.0 L 58.2 18.0 L 55.2 19.8 L 55.2 59.0 L 61.7 59.0 L 71.7 49.0 L 83.7 59.0 L 83.7 63.0 L 55.2 63.0 L 55.2 86.46000003814697 L 55.9 86.7 L 59.4 87.7 L 62.8 89.0 L 66.0 90.5 L 69.1 92.2 L 72.0 94.0 L 74.8 96.0 L 77.5 98.2 L 79.9 100.6 L 82.3 103.1 L 83.1 107.6 L 80.7 111.4 L 76.2 112.3 L 72.4 109.9 L 71.1 107.5 Z M 169.8 170.6 L 167.4 164.5 L 164.8 158.5 L 164.40086488723756 157.63045558929443 L 160.9 158.9 L 152.0 162.0 L 143.3 164.8 L 135.0 167.4 L 126.9 169.9 L 119.1 172.3 L 111.7 174.6 L 104.5 176.8 L 97.6 179.0 L 95.01969699859619 179.79393939971925 L 93.8 183.4 L 91.1 181.0 L 86.1 169.9 L 88.1 169.4 L 94.8 167.9 L 101.8 166.5 L 105.76077527999878 165.6436161994934 L 108.5 158.7 L 117.1 137.1 L 121.1 126.5 L 125.0 115.8 L 128.7 105.1 L 132.2 94.5 L 135.5 83.8 L 138.6 73.1 L 141.25093908309935 63.41036052703858 L 141.2 63.4 L 142.0 60.8 L 153.0 65.8 L 155.4 68.5 L 151.80758876800536 69.44537134170533 L 149.5 76.5 L 145.7 87.2 L 141.7 97.8 L 137.4 108.4 L 132.9 118.9 L 128.1 129.4 L 123.1 139.8 L 117.7 150.1 L 111.9 160.3 L 109.11003389358521 164.91945209503174 L 109.2 164.9 L 116.8 163.3 L 124.8 161.7 L 133.1 160.1 L 141.7 158.4 L 150.7 156.8 L 159.9 155.2 L 163.07490882873535 154.74176568984984 L 162.0 152.4 L 159.1 146.3 L 156.1 140.2 L 153.0 134.0 L 149.9 127.6 L 146.7 121.2 L 148.2 120.2 L 153.0 125.6 L 157.6 131.1 L 161.8 136.8 L 165.7 142.6 L 169.5 148.4 L 173.0 154.3 L 176.4 160.2 L 179.6 166.1 L 182.6 172.1 L 185.4 178.0 L 185.3 182.6 L 182.1 185.8 L 177.5 185.7 L 174.3 182.5 L 172.1 176.5 Z M 132.9 20.7 L 135.4 23.3 L 131.87485618591307 24.51777696609497 L 130.0 31.5 L 126.6 42.0 L 122.8 52.3 L 118.5 62.3 L 113.7 72.0 L 108.4 81.5 L 102.6 90.7 L 96.4 99.5 L 89.5 108.0 L 82.1 116.0 L 80.7 114.9 L 86.4 105.7 L 91.9 96.6 L 97.0 87.3 L 101.7 77.9 L 106.0 68.4 L 109.9 58.7 L 113.3 48.8 L 116.4 38.8 L 119.0 28.6 L 121.2 18.2 L 121.21366024017334 18.202918815612794 L 121.6 16.4 Z " />
</g>
</svg>
