<svg xmlns="http://www.w3.org/2000/svg" xmlns:xlink="http://www.w3.org/1999/xlink" version="1.1" baseProfile="full" viewBox="0 0 200 200" width="200" height="200">
<g fill="black">
<path d="M 159.0 168.1 L 151.0 162.8 L 143.2 157.3 L 135.8 151.5 L 128.8 145.3 L 122.1 138.9 L 115.9 132.2 L 110.1 125.0 L 106.0 119.00769233703613 L 106.0 183.3 L 94.0 189.3 L 94.0 127.17301588058471 L 93.6 127.7 L 86.8 135.6 L 79.4 143.0 L 71.5 150.0 L 63.1 156.5 L 54.2 162.5 L 44.7 168.0 L 34.8 173.1 L 24.3 177.5 L 13.3 181.3 L 12.6 179.6 L 22.7 174.1 L 32.2 168.3 L 41.3 162.4 L 49.8 156.3 L 57.8 149.8 L 65.3 143.0 L 72.2 136.0 L 78.7 128.6 L 84.6 120.8 L 86.38085107803344 118.1 L 18.0 118.1 L 18.0 114.1 L 94.0 114.1 L 94.0 97.6 L 106.0 99.6 L 109.0 101.6 L 106.0 103.4 L 106.0 114.1 L 160.0 114.1 L 170.0 104.1 L 182.0 114.1 L 182.0 118.1 L 108.37457628250122 118.1 L 113.1 122.2 L 120.0 127.9 L 126.9 133.5 L 134.1 138.9 L 141.4 144.0 L 149.0 148.9 L 156.8 153.5 L 164.8 157.8 L 173.2 161.9 L 181.7 165.7 L 187.5 168.4 L 176.2 177.7 L 167.4 173.0 Z M 166.6 90.6 L 161.7 86.7 L 157.4 82.5 L 153.6 77.9 L 150.4 73.1 L 147.8 68.0 L 145.9 62.6 L 145.04429111480712 58.53538265228271 L 142.7 64.7 L 139.1 71.1 L 134.5 77.0 L 129.1 82.1 L 122.8 86.6 L 115.8 90.4 L 107.9 93.5 L 99.2 95.8 L 98.7 94.1 L 106.3 90.0 L 113.1 85.8 L 118.9 81.3 L 123.9 76.6 L 127.9 71.6 L 131.1 66.4 L 133.4 60.8 L 135.0 55.0 L 135.442857170105 51.9 L 100.5 51.9 L 100.5 47.9 L 135.9119402885437 47.9 L 136.0 42.0 L 136.0 25.8 L 105.5 25.8 L 105.5 21.8 L 156.5 21.8 L 166.5 11.8 L 178.5 21.8 L 178.5 25.8 L 148.0 25.8 L 148.0 42.0 L 147.41000003814696 47.9 L 161.5 47.9 L 171.5 37.9 L 183.5 47.9 L 183.5 51.9 L 146.75 51.9 L 146.72684288024902 51.9977746963501 L 148.6 55.6 L 151.3 60.2 L 154.1 64.4 L 157.2 68.3 L 160.6 71.8 L 164.4 75.0 L 168.5 78.0 L 172.9 80.6 L 177.8 83.1 L 183.1 85.2 L 189.2 87.9 L 177.8 97.3 L 172.0 94.1 Z M 60.9 42.9 L 60.13417720794678 48.4 L 74.5 48.4 L 84.5 38.4 L 96.5 48.4 L 96.5 52.4 L 59.36756753921509 52.4 L 57.8 58.2 L 57.62337665557861 58.63525047302246 L 60.3 59.4 L 65.6 61.3 L 70.6 63.5 L 75.3 66.0 L 79.7 68.7 L 83.8 71.6 L 87.6 74.8 L 91.0 78.2 L 94.2 81.9 L 97.1 85.7 L 97.7 90.3 L 95.0 94.0 L 90.4 94.5 L 86.8 91.8 L 84.9 88.4 L 82.8 85.0 L 80.3 81.7 L 77.5 78.4 L 74.4 75.2 L 71.0 72.1 L 67.2 69.0 L 63.1 65.8 L 58.7 62.7 L 56.564049243927 61.24573564529419 L 55.0 65.1 L 51.4 71.3 L 47.0 77.0 L 41.9 82.0 L 36.0 86.3 L 29.4 90.0 L 22.2 92.9 L 14.3 95.0 L 13.6 93.3 L 20.6 89.4 L 26.7 85.3 L 32.0 81.1 L 36.6 76.5 L 40.4 71.7 L 43.4 66.6 L 45.8 61.1 L 47.5 55.3 L 48.00634918212891 52.4 L 13.5 52.4 L 13.5 48.4 L 48.6358208656311 48.4 L 49.0 42.3 L 49.0 26.7 L 18.5 26.7 L 18.5 22.7 L 69.5 22.7 L 79.5 12.7 L 91.5 22.7 L 91.5 26.7 L 61.0 26.7 L 61.0 42.6 L 60.80325202941894 42.89512195587158 Z " />
</g>
</svg>
