<svg xmlns="http://www.w3.org/2000/svg" xmlns:xlink="http://www.w3.org/1999/xlink" version="1.1" baseProfile="full" viewBox="0 0 200 200" width="200" height="200">
<g fill="black">
<path d="M 59.9 104.6 L 58.7 102.3 L 57.4 100.1 L 55.9 97.9 L 54.3 95.7 L 52.5 93.5 L 50.6 91.3 L 50.2 90.86000003814698 L 50.2 183.0 L 38.2 189.0 L 38.2 99.98387098312378 L 35.2 108.5 L 31.7 117.1 L 28.0 125.4 L 24.0 133.4 L 19.5 141.1 L 14.6 148.4 L 13.0 147.5 L 16.1 139.4 L 19.1 131.2 L 21.9 122.9 L 24.6 114.5 L 27.1 105.9 L 29.3 97.1 L 31.4 88.1 L 33.1 79.0 L 34.7 69.6 L 35.54418601989746 63.0 L 13.8 63.0 L 13.8 59.0 L 38.2 59.0 L 38.2 14.0 L 50.2 16.0 L 53.2 18.0 L 50.2 19.8 L 50.2 59.0 L 54.21818180084229 59.0 L 62.4 50.0 L 72.4 59.0 L 72.4 63.0 L 50.2 63.0 L 50.2 87.01000003814697 L 52.9 88.0 L 55.8 89.3 L 58.5 90.8 L 61.1 92.5 L 63.6 94.3 L 66.0 96.4 L 68.3 98.5 L 70.4 100.9 L 72.3 103.4 L 72.8 108.0 L 70.0 111.6 L 65.5 112.0 L 61.8 109.3 L 60.9 106.9 Z M 130.7 34.0 L 170.9 34.0 L 176.9 29.0 L 187.9 38.0 L 182.9 42.0 L 182.9 174.0 L 170.9 180.0 L 170.9 168.0 L 130.7 168.0 L 130.7 180.0 L 118.7 186.0 L 118.7 28.0 Z M 83.5 186.6 L 79.4 184.5 L 77.9 180.2 L 78.4 173.4 L 78.5 167.2 L 78.2 161.6 L 77.5 156.6 L 76.4 152.2 L 75.50315790176391 149.8084210395813 L 74.6 149.6 L 75.01904764175416 148.51746034622192 L 74.9 148.2 L 73.0 144.7 L 70.7 141.5 L 67.9 138.6 L 64.5 135.8 L 65.1 134.2 L 69.8 135.3 L 74.1 137.4 L 78.0 140.5 L 78.10088214874267 140.61275062561035 L 79.4 137.3 L 82.0 131.1 L 85.1 123.8 L 88.7 115.4 L 92.9 105.9 L 97.6 95.3 L 103.0 83.6 L 109.0 70.9 L 110.7 71.6 L 106.5 85.0 L 102.6 97.2 L 99.0 108.2 L 95.8 118.1 L 93.1 126.7 L 90.8 134.2 L 88.9 140.6 L 87.6 145.7 L 86.7 149.7 L 86.3 152.3 L 85.56688528060913 152.13081970214844 L 86.4 154.1 L 88.1 160.0 L 89.2 166.4 L 89.8 173.4 L 89.8 181.0 L 87.8 185.1 Z M 130.7 123.0 L 130.7 164.0 L 170.9 164.0 L 170.9 123.0 Z M 130.7 79.0 L 130.7 119.0 L 170.9 119.0 L 170.9 79.0 Z M 78.3 86.7 L 77.4 84.9 L 76.2 83.0 L 74.7 81.1 L 72.9 79.1 L 70.9 77.2 L 68.7 75.2 L 66.1 73.1 L 63.2 71.5 L 63.8 69.8 L 67.2 70.8 L 70.5 71.6 L 73.6 72.6 L 76.6 73.8 L 79.4 75.2 L 81.9 76.8 L 84.4 78.6 L 86.6 80.6 L 88.6 82.8 L 90.4 85.2 L 90.5 89.7 L 87.5 93.2 L 82.9 93.4 L 79.5 90.3 L 79.0 88.5 Z M 130.7 38.0 L 130.7 75.0 L 170.9 75.0 L 170.9 38.0 Z M 89.6 42.6 L 88.6 40.7 L 87.4 38.8 L 86.0 36.9 L 84.3 34.9 L 82.4 33.0 L 80.3 31.0 L 78.0 29.0 L 75.3 27.4 L 76.0 25.7 L 79.1 26.7 L 82.2 27.5 L 85.2 28.5 L 88.0 29.7 L 90.7 31.1 L 93.2 32.7 L 95.6 34.4 L 97.8 36.4 L 99.8 38.5 L 101.7 40.9 L 102.0 45.4 L 99.1 49.0 L 94.6 49.3 L 91.0 46.4 L 90.4 44.5 Z " />
</g>
</svg>
