<svg xmlns="http://www.w3.org/2000/svg" xmlns:xlink="http://www.w3.org/1999/xlink" version="1.1" baseProfile="full" viewBox="0 0 200 200" width="200" height="200">
<g fill="black">
<path d="M 56.7 101.8 L 55.5 99.5 L 54.1 97.3 L 52.5 95.2 L 50.9 93.0 L 49.1 90.8 L 48.9 90.58000001907348 L 48.9 182.0 L 36.9 188.0 L 36.9 100.27333335876465 L 34.3 107.9 L 31.0 116.5 L 27.3 124.7 L 23.4 132.7 L 19.1 140.4 L 14.3 147.6 L 12.7 146.8 L 18.5 130.6 L 21.2 122.3 L 23.8 114.0 L 26.2 105.4 L 28.3 96.7 L 30.3 87.7 L 32.0 78.6 L 33.5 69.3 L 34.347126483917236 62.6 L 13.5 62.6 L 13.5 58.6 L 36.9 58.6 L 36.9 13.9 L 48.9 15.9 L 51.9 17.9 L 48.9 19.7 L 48.9 58.6 L 51.918181800842284 58.6 L 60.1 49.6 L 70.1 58.6 L 70.1 62.6 L 48.9 62.6 L 48.9 86.65172414779663 L 51.4 87.6 L 54.2 88.9 L 56.8 90.4 L 59.4 92.0 L 61.8 93.9 L 64.1 95.9 L 66.3 98.1 L 68.4 100.4 L 70.3 102.9 L 70.7 107.5 L 67.9 111.0 L 63.3 111.5 L 59.7 108.6 L 57.9 104.0 Z M 127.6 175.0 L 147.6 175.0 L 148.9 174.9 L 149.8 174.7 L 150.7 174.4 L 150.9 174.2 L 151.0 174.0 L 151.2 173.7 L 151.4 173.1 L 151.6 172.2 L 151.6 40.0 L 113.9 40.0 L 113.9 36.0 L 167.2 36.0 L 177.2 26.0 L 189.2 36.0 L 189.2 40.0 L 163.6 40.0 L 163.6 171.0 L 163.5 173.5 L 163.0 176.0 L 162.2 178.4 L 161.0 180.7 L 159.4 182.7 L 157.3 184.3 L 155.1 185.6 L 152.7 186.4 L 150.2 186.8 L 147.6 187.0 L 147.6 181.0 L 127.6 178.0 Z M 89.3 184.3 L 85.2 182.3 L 83.6 178.0 L 84.2 171.1 L 84.3 164.7 L 84.0 159.0 L 83.3 153.9 L 82.3 149.3 L 81.57125911712646 147.2178832054138 L 80.5 147.0 L 80.99301805496216 145.5657657623291 L 80.9 145.3 L 79.1 141.7 L 77.0 138.5 L 74.3 135.6 L 71.2 132.8 L 71.8 131.2 L 76.4 132.4 L 80.5 134.6 L 84.04822807312011 137.49460706710815 L 85.2 134.5 L 87.7 128.2 L 90.6 120.7 L 94.1 112.2 L 98.1 102.5 L 102.6 91.7 L 107.8 79.9 L 113.6 67.0 L 115.3 67.6 L 111.3 81.2 L 107.6 93.6 L 104.3 104.7 L 101.2 114.7 L 98.6 123.5 L 96.5 131.1 L 94.7 137.5 L 93.4 142.8 L 92.6 146.8 L 92.3 149.4 L 91.37096118927002 149.2110429763794 L 92.3 151.6 L 93.9 157.5 L 95.0 164.0 L 95.5 171.1 L 95.6 178.7 L 93.6 182.8 Z M 84.1 82.8 L 83.2 80.9 L 82.1 79.0 L 80.7 77.1 L 79.1 75.1 L 77.2 73.2 L 75.1 71.2 L 72.7 69.1 L 69.9 67.5 L 70.6 65.9 L 73.8 66.9 L 77.0 67.7 L 80.0 68.7 L 82.9 70.0 L 85.6 71.4 L 88.1 73.0 L 90.4 74.9 L 92.5 76.9 L 94.4 79.1 L 96.1 81.6 L 96.2 86.2 L 93.1 89.5 L 88.5 89.6 L 85.2 86.5 L 84.7 84.7 Z M 94.8 38.0 L 93.9 36.1 L 92.8 34.1 L 91.5 32.2 L 89.9 30.2 L 88.2 28.3 L 86.2 26.3 L 84.1 24.3 L 81.5 22.7 L 82.2 21.0 L 85.2 22.1 L 88.2 22.9 L 91.1 23.9 L 93.8 25.2 L 96.4 26.6 L 98.8 28.2 L 101.1 30.0 L 103.2 32.0 L 105.2 34.2 L 106.9 36.6 L 107.2 41.2 L 104.2 44.6 L 99.6 44.9 L 96.1 41.9 L 95.6 39.9 Z " />
</g>
</svg>
