<svg xmlns="http://www.w3.org/2000/svg" xmlns:xlink="http://www.w3.org/1999/xlink" version="1.1" baseProfile="full" viewBox="0 0 200 200" width="200" height="200">
<g fill="black">
<path d="M 167.8 180.8 L 166.0 182.5 L 164.1 184.0 L 162.1 185.3 L 159.9 186.3 L 157.6 187.1 L 155.3 187.7 L 152.8 188.0 L 150.3 188.1 L 150.3 182.1 L 130.3 179.1 L 130.3 176.1 L 151.8 176.1 L 153.1 175.9 L 154.2 175.6 L 155.3 175.2 L 156.3 174.8 L 157.2 174.2 L 158.1 173.5 L 158.9 172.6 L 159.8 171.6 L 160.6 170.5 L 162.2 167.0 L 163.9 161.3 L 165.5 153.5 L 166.9 143.8 L 168.1 132.2 L 169.1 118.8 L 169.8 103.5 L 170.2 86.3 L 170.5 67.3 L 170.5 48.5 L 102.26185569763183 48.5 L 99.2 57.5 L 95.6 67.0 L 91.7 76.3 L 89.95164833068847 80.0 L 119.0 80.0 L 119.0 52.9 L 131.0 54.9 L 134.0 56.9 L 131.0 58.7 L 131.0 80.0 L 140.3 80.0 L 150.3 70.0 L 162.3 80.0 L 162.3 84.0 L 122.51999998092651 84.0 L 127.8 85.1 L 130.8 87.1 L 127.610631275177 89.0136212348938 L 127.2 97.5 L 125.92068967819213 108.1 L 143.3 108.1 L 149.3 103.1 L 160.3 112.1 L 155.3 115.1 L 155.13191738128663 115.17003440856934 L 155.1 117.5 L 154.9 124.2 L 154.6 130.4 L 154.2 136.0 L 153.8 141.0 L 153.2 145.5 L 152.6 149.5 L 151.9 153.0 L 150.9 156.1 L 149.8 158.8 L 148.5 161.0 L 147.0 163.0 L 145.4 164.8 L 143.6 166.4 L 141.6 167.8 L 139.4 168.9 L 137.1 169.8 L 134.8 170.4 L 132.3 170.8 L 129.8 170.9 L 129.8 164.9 L 111.8 161.9 L 111.8 158.9 L 129.8 158.9 L 131.2 158.8 L 132.4 158.6 L 133.5 158.4 L 134.5 158.0 L 135.4 157.5 L 136.2 157.0 L 137.0 156.3 L 137.7 155.4 L 138.4 154.4 L 139.1 153.2 L 139.6 152.1 L 140.2 150.1 L 140.8 147.3 L 141.4 143.9 L 141.9 139.8 L 142.3 135.1 L 142.6 129.7 L 142.9 123.7 L 143.1 117.2 L 143.24166669845582 112.1 L 125.2444444656372 112.1 L 123.8 119.9 L 121.0 129.9 L 117.5 138.9 L 113.3 147.1 L 108.4 154.4 L 102.8 160.6 L 96.4 165.8 L 89.4 169.7 L 88.5 168.2 L 94.0 162.9 L 98.8 157.1 L 103.0 150.7 L 106.6 143.6 L 109.6 135.8 L 112.1 127.3 L 113.9 118.0 L 115.2 107.8 L 115.8 96.9 L 115.8 84.0 L 88.0615385055542 84.0 L 87.4 85.4 L 82.7 94.3 L 78.07237424850464 102.25951623916626 L 78.9 103.2 L 79.7 107.7 L 77.1 111.5 L 72.6 112.2 L 68.8 109.6 L 67.7 107.3 L 66.4 104.9 L 65.0 102.6 L 63.3 100.3 L 61.6 98.1 L 59.6 95.8 L 57.5 93.6 L 55.2 91.4 L 53.8 90.0583333015442 L 53.8 183.0 L 41.8 189.0 L 41.8 95.534375 L 40.3 99.8 L 36.9 108.7 L 33.0 117.2 L 28.9 125.5 L 24.3 133.5 L 19.4 141.2 L 14.0 148.4 L 12.4 147.5 L 16.1 139.3 L 19.6 131.1 L 22.9 122.8 L 26.0 114.3 L 28.9 105.7 L 31.5 97.0 L 33.9 88.0 L 35.9 78.8 L 37.8 69.5 L 38.79411764144898 63.0 L 13.2 63.0 L 13.2 59.0 L 41.8 59.0 L 41.8 14.0 L 53.8 16.0 L 56.8 18.0 L 53.8 19.8 L 53.8 59.0 L 57.8 59.0 L 67.8 49.0 L 79.8 59.0 L 79.8 63.0 L 53.8 63.0 L 53.8 86.69090909957886 L 54.1 86.8 L 57.4 87.8 L 60.6 89.1 L 63.6 90.6 L 66.5 92.3 L 69.3 94.1 L 71.9 96.1 L 74.4 98.3 L 75.13476514816284 99.06671142578125 L 77.9 92.0 L 81.3 82.8 L 84.6 73.5 L 87.6 64.1 L 90.4 54.7 L 92.9 45.1 L 95.1 35.4 L 97.1 25.6 L 98.62780532836913 16.702780532836915 L 98.6 16.7 L 99.1 13.8 L 110.6 17.9 L 113.2 20.4 L 109.7038423538208 21.671330070495607 L 108.2 28.0 L 105.5 38.0 L 103.51020412445068 44.5 L 170.5 44.5 L 176.5 39.5 L 187.5 48.5 L 182.5 51.5 L 182.5 67.4 L 182.2 86.6 L 181.8 103.9 L 181.0 119.5 L 180.1 133.2 L 178.8 145.3 L 177.4 155.6 L 175.6 164.2 L 173.4 171.2 L 170.7 176.8 L 169.3 178.9 Z " />
</g>
</svg>
