<svg xmlns="http://www.w3.org/2000/svg" xmlns:xlink="http://www.w3.org/1999/xlink" version="1.1" baseProfile="full" viewBox="0 0 200 200" width="200" height="200">
<g fill="black">
<path d="M 67.8 105.0 L 66.3 102.7 L 64.6 100.4 L 62.8 98.1 L 60.7 95.9 L 58.5 93.7 L 56.1 91.4 L 54.4 89.83599996566772 L 54.4 183.0 L 42.4 189.0 L 42.4 94.66060609817505 L 40.5 99.9 L 36.9 108.7 L 33.0 117.3 L 28.7 125.6 L 24.0 133.6 L 18.9 141.2 L 13.3 148.4 L 11.8 147.5 L 15.6 139.3 L 19.3 131.1 L 22.7 122.8 L 26.0 114.3 L 29.0 105.7 L 31.7 96.9 L 34.1 87.9 L 36.3 78.8 L 38.2 69.4 L 39.26666669845581 63.0 L 12.6 63.0 L 12.6 59.0 L 42.4 59.0 L 42.4 14.0 L 54.4 16.0 L 57.4 18.0 L 54.4 19.8 L 54.4 59.0 L 59.5 59.0 L 69.5 49.0 L 81.5 59.0 L 81.5 63.0 L 54.4 63.0 L 54.4 86.53823528289794 L 58.3 87.8 L 61.5 89.1 L 64.7 90.6 L 67.6 92.2 L 70.5 94.1 L 73.2 96.1 L 75.7 98.3 L 78.1 100.6 L 80.4 103.1 L 81.2 107.6 L 78.7 111.5 L 74.2 112.3 L 70.4 109.7 L 69.2 107.4 Z M 123.6 163.1 L 124.1 166.7 L 120.37248640060425 165.50187063217163 L 119.3 166.3 L 114.8 169.3 L 110.0 172.2 L 104.9 175.0 L 99.6 177.6 L 94.0 180.0 L 88.1 182.3 L 81.9 184.4 L 75.5 186.3 L 68.7 187.8 L 68.1 186.1 L 74.1 182.7 L 79.8 179.5 L 85.3 176.4 L 90.5 173.3 L 95.5 170.2 L 100.1 167.0 L 104.4 163.8 L 108.5 160.6 L 112.2 157.4 L 114.92861843109131 154.82730264663695 L 114.9 154.8 L 115.9 153.9 Z M 171.1 179.0 L 168.1 176.1 L 164.7 173.2 L 161.0 170.3 L 156.9 167.4 L 152.5 164.5 L 147.7 161.5 L 142.7 158.4 L 137.3 155.2 L 138.0 153.5 L 144.2 154.9 L 150.0 156.7 L 155.5 158.6 L 160.6 160.8 L 165.4 163.1 L 170.0 165.6 L 174.2 168.1 L 178.1 170.9 L 181.7 173.7 L 185.1 176.7 L 186.5 181.0 L 184.6 185.2 L 180.3 186.7 L 176.1 184.7 L 173.8 181.9 Z M 102.1 73.3 L 167.2 73.3 L 173.2 68.3 L 184.2 77.3 L 179.2 81.3 L 179.2 147.6 L 167.2 153.6 L 167.2 147.6 L 102.1 147.6 L 102.1 154.6 L 90.1 160.6 L 90.1 67.3 Z M 102.1 123.2 L 102.1 143.6 L 167.2 143.6 L 167.2 123.2 Z M 102.1 100.2 L 102.1 119.2 L 167.2 119.2 L 167.2 100.2 Z M 102.1 77.3 L 102.1 96.2 L 167.2 96.2 L 167.2 77.3 Z M 108.7 23.2 L 160.6 23.2 L 166.6 18.2 L 177.6 27.2 L 172.6 31.2 L 172.6 55.7 L 160.6 61.7 L 160.6 53.7 L 108.7 53.7 L 108.7 56.7 L 96.7 62.7 L 96.7 17.2 Z M 108.7 27.2 L 108.7 49.7 L 160.6 49.7 L 160.6 27.2 Z " />
</g>
</svg>
