<svg xmlns="http://www.w3.org/2000/svg" xmlns:xlink="http://www.w3.org/1999/xlink" version="1.1" baseProfile="full" viewBox="0 0 200 200" width="200" height="200">
<g fill="black">
<path d="M 64.2 104.9 L 62.8 102.6 L 61.2 100.3 L 59.5 98.0 L 57.6 95.8 L 55.5 93.6 L 53.3 91.4 L 52.0 90.15416669845581 L 52.0 183.0 L 40.0 189.0 L 40.0 96.27741937637329 L 38.8 99.8 L 35.3 108.6 L 31.6 117.2 L 27.5 125.5 L 23.0 133.5 L 18.1 141.2 L 12.8 148.4 L 11.2 147.5 L 14.8 139.3 L 18.2 131.1 L 21.5 122.8 L 24.5 114.4 L 27.3 105.8 L 29.9 97.0 L 32.2 88.0 L 34.3 78.8 L 36.0 69.5 L 36.99411764144897 63.0 L 12.0 63.0 L 12.0 59.0 L 40.0 59.0 L 40.0 14.0 L 52.0 16.0 L 55.0 18.0 L 52.0 19.8 L 52.0 59.0 L 55.5 59.0 L 65.5 49.0 L 77.5 59.0 L 77.5 63.0 L 52.0 63.0 L 52.0 86.725 L 52.2 86.8 L 55.5 87.8 L 58.6 89.1 L 61.6 90.6 L 64.5 92.3 L 67.2 94.2 L 69.8 96.2 L 72.2 98.4 L 74.5 100.7 L 76.7 103.2 L 77.4 107.7 L 74.8 111.5 L 70.3 112.2 L 66.5 109.6 L 65.4 107.2 Z M 162.9 161.6 L 157.5 152.4 L 152.6 142.3 L 148.3 131.2 L 144.4 119.0 L 141.0 105.8 L 138.1 91.6 L 135.9 76.4 L 134.41495876312257 61.27114248275757 L 133.8 62.1 L 130.4 66.6 L 126.7 71.1 L 122.7 75.4 L 118.2 79.8 L 114.59897346496582 82.95089817047119 L 120.6 88.8 L 127.3 97.0 L 132.8 105.7 L 137.4 114.7 L 140.8 124.0 L 143.2 133.7 L 144.6 143.7 L 144.8 153.9 L 144.0 164.3 L 142.1 174.9 L 141.44263563156127 175.27209300994872 L 140.8 177.2 L 139.8 179.5 L 138.5 181.6 L 136.9 183.6 L 135.0 185.3 L 133.0 186.7 L 130.7 187.7 L 128.3 188.4 L 125.8 188.8 L 123.3 189.0 L 123.3 183.0 L 107.3 180.0 L 107.3 177.0 L 123.3 177.0 L 124.6 176.9 L 125.6 176.7 L 126.5 176.5 L 127.1 176.2 L 127.7 175.8 L 128.5208790779114 174.9791209220886 L 129.4 171.6 L 131.7 162.3 L 133.1 153.1 L 133.5 144.1 L 133.17485466003419 136.86551656723023 L 129.9 140.6 L 123.9 146.7 L 117.5 152.6 L 110.8 158.2 L 103.7 163.4 L 96.3 168.3 L 88.5 172.9 L 80.4 177.1 L 71.8 180.7 L 70.9 179.2 L 78.4 173.8 L 85.6 168.4 L 92.5 163.0 L 99.0 157.4 L 105.2 151.7 L 111.1 145.9 L 116.6 139.8 L 121.8 133.6 L 126.6 127.1 L 130.49129247665405 121.3927710533142 L 129.5 117.6 L 126.4 108.9 L 125.4042329788208 106.81363105773926 L 122.5 110.1 L 118.3 114.3 L 114.0 118.3 L 109.3 122.3 L 104.4 126.1 L 99.2 129.8 L 93.8 133.4 L 88.0 136.7 L 81.9 139.7 L 80.9 138.2 L 85.8 133.6 L 90.5 129.1 L 95.1 124.7 L 99.4 120.4 L 103.5 116.1 L 107.3 111.8 L 110.9 107.5 L 114.3 103.2 L 117.3 98.8 L 119.5585708618164 95.45108461380005 L 117.2 91.3 L 112.80913753509522 84.48659267425538 L 108.3 88.2 L 102.8 92.3 L 96.9 96.3 L 90.5 100.1 L 83.7 103.7 L 82.7 102.2 L 88.3 97.0 L 93.6 92.0 L 98.6 87.2 L 103.2 82.5 L 107.6 77.9 L 111.5 73.3 L 115.1 68.9 L 118.3 64.4 L 120.51395349502563 61.0 L 96.9 61.0 L 96.9 57.0 L 140.4 57.0 L 150.4 47.0 L 162.4 57.0 L 162.4 61.0 L 136.3962025642395 61.0 L 140.0 75.6 L 143.9 90.3 L 148.0 103.9 L 149.6566014289856 108.71570177078247 L 150.5 107.4 L 152.9 103.6 L 155.3 100.0 L 157.5 96.6 L 159.7 93.3 L 161.7 90.1 L 163.6 87.0 L 165.3 84.1 L 166.4065573692322 82.16352462768555 L 166.3 82.1 L 167.4 80.6 L 176.7 88.3 L 178.0 91.6 L 173.89816398620604 91.32190942764282 L 171.9 93.4 L 169.4 96.1 L 166.6 98.9 L 163.7 101.7 L 160.7 104.6 L 157.5 107.5 L 154.0 110.5 L 151.10134716033934 112.91554403305054 L 152.3 116.4 L 157.0 127.7 L 161.9 137.9 L 167.1 146.9 L 172.5 154.8 L 178.2 161.5 L 184.1 167.1 L 186.0 168.8 L 175.2 176.8 L 168.8 169.7 Z M 110.9 33.4 L 112.8 36.5 L 108.84592657089233 36.909042072296145 L 108.5 37.5 L 105.9 41.7 L 103.0 45.8 L 99.9 49.8 L 96.5 53.9 L 92.9 58.0 L 89.1 62.0 L 85.0 66.0 L 80.5 69.8 L 75.7 73.6 L 74.4 72.3 L 77.7 67.3 L 80.9 62.5 L 84.0 57.8 L 86.9 53.3 L 89.7 48.9 L 92.2 44.6 L 94.5 40.4 L 96.6 36.3 L 98.5 32.2 L 99.72666664123535 29.210000038146973 L 99.7 29.2 L 100.6 27.1 Z M 170.9 65.3 L 167.8 61.6 L 164.9 57.5 L 162.1 53.2 L 159.5 48.6 L 157.0 43.7 L 154.7 38.6 L 153.1 34.2 L 151.9 34.8 L 151.9 30.15 L 151.31694917678834 28.0 L 107.8 28.0 L 107.8 24.0 L 146.86000003814698 24.0 L 151.9 19.8 L 162.9 28.8 L 157.9 31.8 L 157.15600004196168 32.17200002670288 L 159.9 35.7 L 163.2 39.9 L 166.4 43.9 L 169.6 47.7 L 172.9 51.1 L 176.0 54.2 L 179.2 57.0 L 182.4 59.5 L 185.6 61.8 L 188.3 63.9 L 177.4 72.1 L 174.1 68.9 Z M 151.5 27.025 L 151.9 26.85 L 151.9 26.8 L 151.5 26.66666669845581 Z " />
</g>
</svg>
