<svg xmlns="http://www.w3.org/2000/svg" xmlns:xlink="http://www.w3.org/1999/xlink" version="1.1" baseProfile="full" viewBox="0 0 200 200" width="200" height="200">
<g fill="black">
<path d="M 66.2 104.9 L 64.8 102.6 L 63.2 100.3 L 61.5 98.0 L 59.6 95.8 L 57.5 93.6 L 55.3 91.4 L 54.0 90.15416669845581 L 54.0 183.0 L 42.0 189.0 L 42.0 96.27741937637329 L 40.8 99.8 L 37.3 108.6 L 33.6 117.2 L 29.5 125.5 L 25.0 133.5 L 20.1 141.2 L 14.8 148.4 L 13.2 147.5 L 16.8 139.3 L 20.2 131.1 L 23.5 122.8 L 26.5 114.4 L 29.3 105.8 L 31.9 97.0 L 34.2 88.0 L 36.3 78.8 L 38.0 69.5 L 38.99411764144897 63.0 L 14.0 63.0 L 14.0 59.0 L 42.0 59.0 L 42.0 14.0 L 54.0 16.0 L 57.0 18.0 L 54.0 19.8 L 54.0 59.0 L 57.5 59.0 L 67.5 49.0 L 79.5 59.0 L 79.5 63.0 L 54.0 63.0 L 54.0 86.725 L 54.2 86.8 L 57.5 87.8 L 60.6 89.1 L 63.6 90.6 L 66.5 92.3 L 69.2 94.2 L 71.8 96.2 L 74.2 98.4 L 76.5 100.7 L 78.7 103.2 L 79.4 107.7 L 76.8 111.5 L 72.3 112.2 L 68.5 109.6 L 67.4 107.2 Z M 138.0 104.0 L 141.0 106.0 L 138.0 107.8 L 138.0 123.0 L 154.0 123.0 L 164.0 113.0 L 176.0 123.0 L 176.0 127.0 L 138.0 127.0 L 138.0 153.0 L 163.0 153.0 L 173.0 143.0 L 185.0 153.0 L 185.0 157.0 L 138.0 157.0 L 138.0 182.0 L 126.0 188.0 L 126.0 157.0 L 81.0 157.0 L 81.0 153.0 L 126.0 153.0 L 126.0 127.0 L 89.0 127.0 L 89.0 123.0 L 126.0 123.0 L 126.0 102.0 Z M 175.0 89.6 L 174.62952604293824 88.44226884841919 L 174.1 88.6 L 169.5 90.0 L 165.1 91.2 L 160.7 92.3 L 156.4 93.3 L 152.3 94.2 L 148.3 95.0 L 144.4 95.8 L 141.30838928222656 96.38489933013916 L 139.3 100.0 L 137.0 97.1 L 134.1 85.3 L 136.1 85.2 L 145.13999996185302 85.2 L 145.7 82.0 L 146.5 78.0 L 147.4 74.1 L 148.3 70.3 L 149.2 66.4 L 151.0 58.8 L 151.8 55.0 L 152.48234167099 52.119001960754396 L 152.4 52.1 L 153.2 49.6 L 164.1 54.8 L 166.4 57.6 L 162.5821940422058 58.537706756591795 L 160.9 62.1 L 159.3 65.8 L 157.6 69.4 L 154.0 76.6 L 152.1 80.1 L 150.1 83.6 L 149.0942856788635 85.2 L 168.9 85.2 L 173.48798589706422 85.39116611480713 L 173.2 84.7 L 172.1 82.1 L 170.8 79.5 L 169.4 76.8 L 167.9 74.1 L 166.4 71.2 L 164.4 68.6 L 165.7 67.3 L 168.3 69.5 L 171.0 71.4 L 173.6 73.4 L 176.0 75.6 L 178.2 77.8 L 180.3 80.0 L 182.3 82.3 L 184.2 84.7 L 185.9 87.1 L 187.4 89.6 L 187.4 94.1 L 184.2 97.4 L 179.7 97.4 L 176.4 94.2 L 175.8 91.9 Z M 167.2 46.1 L 165.4 43.5 L 164.5314368247986 42.32743968963623 L 159.0 43.3 L 150.1 44.7 L 141.4 46.0 L 133.1 47.0 L 125.0 48.0 L 117.2 49.0 L 109.7 49.8 L 102.4 50.6 L 101.68961505889892 50.682363510131836 L 110.4 54.8 L 112.6 57.6 L 108.7833698272705 58.53741798400879 L 107.2 62.1 L 105.5 65.8 L 102.1 73.0 L 100.3 76.6 L 96.3 83.6 L 95.29428567886353 85.2 L 100.7 85.2 L 105.2 85.1 L 114.7 85.1 L 119.64915256500244 85.2979660987854 L 119.4 84.7 L 118.3 82.1 L 117.0 79.5 L 115.7 76.8 L 114.2 74.1 L 112.6 71.2 L 110.6 68.6 L 111.9 67.3 L 114.5 69.5 L 117.3 71.4 L 119.8 73.4 L 122.2 75.6 L 124.5 77.8 L 126.6 80.0 L 128.6 82.3 L 130.4 84.7 L 132.1 87.1 L 133.7 89.6 L 133.7 94.1 L 130.5 97.4 L 125.9 97.4 L 122.6 94.2 L 122.0 91.9 L 121.3 89.6 L 120.89061374664307 88.46281585693359 L 120.1 88.7 L 115.3 90.1 L 110.6 91.3 L 106.0 92.4 L 101.6 93.3 L 97.3 94.2 L 93.1 95.0 L 89.1 95.8 L 85.6457142829895 96.41999998092652 L 83.6 100.0 L 81.4 97.1 L 78.5 85.3 L 80.5 85.2 L 91.33999996185302 85.2 L 91.9 82.0 L 92.8 78.0 L 93.7 74.1 L 94.5 70.3 L 95.4 66.4 L 98.1 55.0 L 98.70544681549072 52.12412767410278 L 98.6 52.1 L 98.95207710266114 50.99975919723511 L 95.5 51.4 L 92.90204086303712 51.67142858505249 L 91.0 55.0 L 88.8 52.1 L 86.1 40.2 L 88.1 40.1 L 94.8 40.0 L 101.8 39.9 L 108.97900552749634 39.80165748596191 L 110.6 37.1 L 112.7 33.7 L 114.7 30.5 L 116.6 27.4 L 118.4 24.4 L 120.1 21.4 L 121.6 18.6 L 123.1 15.9 L 123.95703706741332 14.185925960540771 L 123.8 14.1 L 124.9 12.5 L 134.4 19.9 L 135.8 23.2 L 131.6344042778015 23.056358814239502 L 130.1 24.8 L 127.8 27.2 L 122.7 32.3 L 120.0 34.8 L 117.1 37.4 L 114.32146949768067 39.7303804397583 L 116.6 39.7 L 124.4 39.6 L 132.6 39.5 L 141.0 39.4 L 149.7 39.4 L 158.7 39.5 L 162.43596563339233 39.66068668365479 L 161.2 38.2 L 158.8 35.6 L 156.3 32.9 L 153.5 30.2 L 150.5 27.5 L 147.3 24.9 L 148.1 23.3 L 152.1 24.9 L 156.0 26.5 L 159.6 28.2 L 163.1 30.2 L 166.4 32.3 L 169.5 34.5 L 172.5 36.9 L 175.2 39.4 L 177.8 42.0 L 180.2 44.8 L 181.0 49.3 L 178.5 53.1 L 174.0 53.9 L 170.2 51.3 L 168.8 48.7 Z " />
</g>
</svg>
