<svg xmlns="http://www.w3.org/2000/svg" xmlns:xlink="http://www.w3.org/1999/xlink" version="1.1" baseProfile="full" viewBox="0 0 200 200" width="200" height="200">
<g fill="black">
<path d="M 61.3 104.8 L 60.0 102.5 L 58.5 100.2 L 56.9 98.0 L 55.1 95.8 L 53.2 93.6 L 51.1 91.4 L 50.1 90.35454549789429 L 50.1 183.0 L 38.1 189.0 L 38.1 97.67666664123536 L 37.4 99.8 L 34.1 108.6 L 30.5 117.2 L 26.5 125.5 L 22.2 133.5 L 17.5 141.1 L 12.3 148.4 L 10.8 147.5 L 14.1 139.4 L 17.4 131.2 L 20.5 122.9 L 23.4 114.4 L 26.1 105.8 L 28.5 97.0 L 30.7 88.1 L 32.7 78.9 L 34.3 69.5 L 35.29411764144898 63.0 L 11.5 63.0 L 11.5 59.0 L 38.1 59.0 L 38.1 14.0 L 50.1 16.0 L 53.1 18.0 L 50.1 19.8 L 50.1 59.0 L 56.11818180084229 59.0 L 64.3 50.0 L 74.3 59.0 L 74.3 63.0 L 50.1 63.0 L 50.1 86.76129035949707 L 50.2 86.8 L 53.3 87.9 L 56.4 89.2 L 59.3 90.7 L 62.0 92.4 L 64.6 94.2 L 67.2 96.2 L 69.5 98.4 L 71.8 100.8 L 73.8 103.3 L 74.4 107.8 L 71.8 111.5 L 67.2 112.1 L 63.5 109.5 L 62.5 107.1 Z M 169.9 181.7 L 163.9 174.7 L 157.8 164.7 L 152.1 151.3 L 146.8 133.9 L 142.4 112.1 L 139.2 85.4 L 138.50876569747925 73.0729874610901 L 134.6 76.2 L 134.6 150.6 L 122.6 156.6 L 122.6 150.6 L 92.4 150.6 L 80.4 156.6 L 80.4 62.2 L 92.4 68.2 L 122.6 68.2 L 128.6 63.2 L 138.40498666763307 71.22226181030274 L 137.4 53.3 L 71.8 53.3 L 71.8 49.3 L 137.4 49.3 L 137.4 15.2 L 137.43028011322022 15.200757026672363 L 137.5 12.9 L 149.4 15.5 L 152.4 17.6 L 149.4 19.247058868408203 L 149.4 49.3 L 168.4181818008423 49.3 L 176.6 40.3 L 186.6 49.3 L 186.6 53.3 L 149.42158727645875 53.3 L 151.1 84.4 L 154.3 110.2 L 158.5 131.0 L 163.4 147.2 L 168.5 159.3 L 173.6 167.7 L 177.59841480255128 172.30686922073363 L 182.4 151.5 L 184.4 151.5 L 182.5047059059143 176.1388235092163 L 183.6 176.6 L 187.3 179.1 L 188.3 183.6 L 185.7 187.4 L 181.3 188.3 L 175.7 186.1 Z M 104.8 164.5 L 106.3 167.8 L 102.23082475662231 167.66206188201903 L 102.2 167.7 L 99.5 170.7 L 96.6 173.6 L 93.6 176.2 L 90.4 178.7 L 87.2 181.0 L 83.8 183.0 L 80.2 184.8 L 76.6 186.4 L 72.9 187.9 L 72.0 186.3 L 74.9 183.8 L 77.6 181.1 L 80.2 178.4 L 82.7 175.7 L 85.0 172.9 L 87.2 170.1 L 89.3 167.2 L 91.2 164.2 L 93.0 161.2 L 94.21708106994629 158.90902395248412 L 94.2 158.9 L 94.42580642700196 158.51612901687622 L 94.7 158.0 L 94.72133502960205 158.01373043060303 L 95.2 157.2 Z M 127.1 179.8 L 124.1 175.0 L 122.4 172.7 L 120.6 170.4 L 118.6 168.2 L 116.5 165.9 L 114.3 163.6 L 111.8 161.7 L 112.6 160.1 L 115.7 161.4 L 118.8 162.4 L 121.8 163.8 L 124.8 165.4 L 127.5 167.1 L 130.2 169.0 L 132.8 171.1 L 135.2 173.4 L 137.5 175.8 L 139.7 178.4 L 140.4 182.9 L 137.8 186.7 L 133.3 187.4 L 129.6 184.7 L 128.4 182.2 Z M 92.4 124.0 L 92.4 146.6 L 122.6 146.6 L 122.6 124.0 Z M 92.4 97.3 L 92.4 120.0 L 122.6 120.0 L 122.6 97.3 Z M 92.4 72.2 L 92.4 93.3 L 122.6 93.3 L 122.6 72.2 Z M 163.5 36.0 L 162.8 34.3 L 162.0 32.5 L 161.0 30.8 L 159.8 29.0 L 158.5 27.2 L 157.1 25.3 L 155.6 23.3 L 153.6 21.8 L 154.5 20.2 L 156.8 21.4 L 159.3 22.2 L 161.6 23.2 L 163.9 24.3 L 166.0 25.6 L 168.0 26.9 L 170.0 28.4 L 171.8 29.9 L 173.5 31.6 L 175.1 33.4 L 175.5 38.0 L 172.7 41.6 L 168.2 42.0 L 164.6 39.2 L 164.1 37.6 Z " />
</g>
</svg>
