<svg xmlns="http://www.w3.org/2000/svg" xmlns:xlink="http://www.w3.org/1999/xlink" version="1.1" baseProfile="full" viewBox="0 0 200 200" width="200" height="200">
<g fill="black">
<path d="M 67.0 105.0 L 65.5 102.7 L 63.9 100.4 L 62.0 98.1 L 60.0 95.9 L 57.9 93.6 L 55.5 91.4 L 53.9 89.92799997329712 L 53.9 183.0 L 41.9 189.0 L 41.9 94.93636360168458 L 40.1 99.9 L 36.6 108.7 L 32.7 117.3 L 28.4 125.6 L 23.8 133.5 L 18.7 141.2 L 13.2 148.4 L 11.7 147.5 L 15.4 139.3 L 19.0 131.1 L 22.5 122.8 L 25.7 114.3 L 28.6 105.7 L 31.3 96.9 L 33.7 88.0 L 35.9 78.8 L 37.7 69.4 L 38.76666669845581 63.0 L 12.5 63.0 L 12.5 59.0 L 41.9 59.0 L 41.9 14.0 L 53.9 16.0 L 56.9 18.0 L 53.9 19.8 L 53.9 59.0 L 62.418181800842284 59.0 L 70.6 50.0 L 80.6 59.0 L 80.6 63.0 L 53.9 63.0 L 53.9 86.65882349014282 L 54.3 86.8 L 57.7 87.8 L 60.9 89.1 L 64.0 90.6 L 66.9 92.2 L 69.8 94.1 L 72.4 96.1 L 75.0 98.3 L 77.3 100.7 L 79.6 103.2 L 80.4 107.7 L 77.8 111.5 L 73.3 112.2 L 69.5 109.7 L 68.3 107.3 Z M 186.2 70.4 L 186.2 74.4 L 139.63181819915772 74.4 L 145.6 78.3 L 147.3 81.4 L 143.5943778038025 81.6555601119995 L 140.4 87.0 L 134.8 95.5 L 133.77404022216797 96.86234006881713 L 137.0 97.4 L 140.0 99.4 L 137.0 101.2 L 137.0 181.8 L 125.0 187.8 L 125.0 108.109375 L 122.3 111.4 L 115.5 118.8 L 108.2 125.9 L 100.6 132.6 L 92.5 138.9 L 83.9 144.7 L 74.9 150.0 L 73.9 148.5 L 81.6 141.7 L 89.0 134.8 L 96.1 127.7 L 102.8 120.5 L 109.1 113.1 L 115.1 105.5 L 120.6 97.7 L 125.8 89.6 L 130.5 81.3 L 134.03023252487182 74.4 L 75.7 74.4 L 75.7 70.4 L 168.01818180084229 70.4 L 176.2 61.4 Z M 171.3 140.1 L 167.9 135.9 L 164.3 131.8 L 160.6 127.9 L 156.7 124.0 L 152.7 120.3 L 148.5 116.6 L 144.2 112.9 L 139.8 109.2 L 140.7 107.7 L 146.2 109.7 L 151.5 112.2 L 156.6 115.0 L 161.5 118.1 L 166.2 121.5 L 170.7 125.1 L 175.1 129.0 L 179.3 133.0 L 183.4 137.3 L 187.3 141.8 L 188.3 146.3 L 186.0 150.2 L 181.6 151.3 L 177.6 149.0 L 174.5 144.5 Z M 155.2 14.2 L 158.2 16.2 L 155.2 18.0 L 155.2 35.8 L 165.5 35.8 L 175.5 25.8 L 187.5 35.8 L 187.5 39.8 L 155.2 39.8 L 155.2 58.4 L 143.2 64.4 L 143.2 39.8 L 118.8 39.8 L 118.8 58.4 L 106.8 64.4 L 106.8 39.8 L 74.4 39.8 L 74.4 35.8 L 106.8 35.8 L 106.8 12.2 L 118.8 14.2 L 121.8 16.2 L 118.8 18.0 L 118.8 35.8 L 143.2 35.8 L 143.2 12.2 Z " />
</g>
</svg>
