<svg xmlns="http://www.w3.org/2000/svg" xmlns:xlink="http://www.w3.org/1999/xlink" version="1.1" baseProfile="full" viewBox="0 0 200 200" width="200" height="200">
<g fill="black">
<path d="M 84.8 149.8 L 82.6 146.7 L 80.1 143.4 L 77.3 140.0 L 74.2 136.4 L 70.8 132.6 L 67.2 128.7 L 65.0 126.38717947006225 L 65.0 184.0 L 53.0 190.0 L 53.0 127.0543478012085 L 48.9 135.7 L 43.9 144.5 L 38.5 152.6 L 32.6 159.8 L 26.3 166.1 L 19.6 171.4 L 12.5 175.7 L 11.4 174.2 L 17.1 168.5 L 22.4 162.4 L 27.5 155.7 L 32.2 148.4 L 36.5 140.4 L 40.5 131.7 L 44.2 122.3 L 47.5 112.1 L 48.93478260040283 106.88695650100708 L 47.9 107.8 L 43.3 107.4 L 40.3 104.0 L 40.2 102.4 L 40.0 100.7 L 39.6 99.1 L 39.1 97.3 L 38.5 95.5 L 37.8 93.7 L 36.9 91.8 L 36.2155216217041 90.49949111938477 L 34.6 96.5 L 32.2 103.7 L 29.5 110.3 L 26.4 116.4 L 22.9 121.8 L 19.0 126.6 L 14.6 130.5 L 13.3 129.4 L 15.8 124.4 L 18.2 119.2 L 20.4 113.6 L 22.4 107.6 L 24.1 101.2 L 25.6 94.3 L 26.8 86.9 L 27.8 79.0 L 28.5 70.5 L 28.8551176071167 62.598633480072024 L 28.8 62.6 L 29.0 59.3 L 40.9 62.3 L 43.7 64.5 L 40.440627098083496 66.225550365448 L 39.8 71.7 L 38.4 80.5 L 37.122651958465575 86.66132593154907 L 38.4 87.3 L 40.5 88.5 L 42.5 89.8 L 44.3 91.2 L 46.0 92.8 L 47.6 94.5 L 49.1 96.3 L 50.5 98.2 L 50.98953971862793 99.0158995628357 L 53.0 90.04615383148193 L 53.0 49.0 L 13.0 49.0 L 13.0 45.0 L 53.0 45.0 L 53.0 14.0 L 65.0 16.0 L 68.0 18.0 L 65.0 19.8 L 65.0 45.0 L 80.0 45.0 L 90.0 35.0 L 102.0 45.0 L 102.0 49.0 L 65.0 49.0 L 65.0 121.46037731170654 L 65.6 121.8 L 70.5 124.8 L 75.0 127.8 L 79.3 130.9 L 83.2 134.0 L 86.8 137.1 L 90.1 140.1 L 93.1 143.1 L 95.9 146.1 L 98.4 149.2 L 99.1 153.7 L 96.6 157.5 L 92.1 158.2 L 88.3 155.7 L 86.7 152.8 Z M 119.3 111.6 L 164.7 111.6 L 170.7 106.6 L 181.7 115.6 L 176.7 119.6 L 176.7 177.3 L 164.7 183.3 L 164.7 173.3 L 119.3 173.3 L 119.3 180.3 L 107.3 186.3 L 107.3 105.6 Z M 119.3 115.6 L 119.3 169.3 L 164.7 169.3 L 164.7 115.6 Z M 88.69354839324951 65.98387098312378 L 88.5 68.5 L 87.7 74.8 L 86.6 80.8 L 85.1 86.5 L 84.22580642700196 89.1225806236267 L 85.8 90.5 L 88.0 92.6 L 90.0 94.9 L 91.9 97.1 L 93.7 99.4 L 95.4 101.8 L 96.9 104.2 L 98.4 106.7 L 99.7 109.2 L 99.3 113.8 L 95.9 116.8 L 91.3 116.4 L 88.3 113.0 L 87.9 110.6 L 87.4 108.2 L 86.8 105.8 L 86.1 103.3 L 85.3 100.7 L 83.5 95.5 L 82.64857139587403 93.41012983322143 L 81.1 97.0 L 78.6 101.7 L 75.7 106.1 L 72.4 110.1 L 68.7 113.5 L 67.2 112.4 L 69.2 108.0 L 71.0 103.5 L 72.6 99.0 L 74.0 94.3 L 75.1 89.5 L 76.0 84.5 L 76.6 79.2 L 77.0 73.7 L 77.1 67.9 L 77.016925239563 62.998589515686035 L 77.0 63.0 L 77.0 59.6 L 89.0 62.0 L 92.0 64.0 Z M 173.8 80.7 L 172.44017658233642 77.09646797180176 L 167.5 78.6 L 158.6 81.0 L 150.0 83.1 L 141.8 85.1 L 134.0 86.9 L 126.5 88.5 L 119.5 90.0 L 112.8 91.4 L 106.4 92.6 L 104.58382902145385 92.96939067840576 L 102.9 96.5 L 100.5 93.8 L 96.9 82.1 L 98.9 81.9 L 104.8 81.4 L 111.2 80.8 L 113.40250101089478 80.56988792419433 L 114.2 77.9 L 116.5 70.4 L 118.9 63.1 L 121.2 55.9 L 123.3 49.0 L 125.3 42.2 L 127.2 35.5 L 129.0 29.0 L 130.6 22.6 L 132.0 16.3 L 132.06444444656373 16.317777824401855 L 132.5 14.7 L 143.6 19.5 L 146.0 22.2 L 142.3526315689087 23.242105293273926 L 141.5 25.8 L 139.2 32.2 L 136.7 38.7 L 134.1 45.2 L 131.3 51.9 L 128.2 58.7 L 125.0 65.5 L 121.5 72.4 L 117.7 79.4 L 117.23139295578002 80.16985445022583 L 117.9 80.1 L 125.1 79.3 L 132.6 78.5 L 140.5 77.6 L 148.9 76.7 L 157.6 75.7 L 166.8 74.8 L 171.4215995788574 74.46300840377808 L 169.7 70.2 L 167.4 65.0 L 164.8 60.0 L 162.1 55.1 L 159.2 50.2 L 156.2 45.3 L 153.0 40.3 L 154.3 39.1 L 159.0 42.8 L 163.4 46.8 L 167.5 51.2 L 171.2 55.9 L 174.7 60.8 L 178.0 65.9 L 181.0 71.2 L 183.7 76.7 L 186.2 82.5 L 188.5 88.3 L 187.9 92.9 L 184.4 95.8 L 179.9 95.3 L 177.0 91.8 L 175.5 86.2 Z " />
</g>
</svg>
