<svg xmlns="http://www.w3.org/2000/svg" xmlns:xlink="http://www.w3.org/1999/xlink" version="1.1" baseProfile="full" viewBox="0 0 200 200" width="200" height="200">
<g fill="black">
<path d="M 45.0 84.0 L 161.0 84.0 L 167.0 79.0 L 178.0 88.0 L 173.0 92.0 L 173.0 106.5 L 161.0 112.5 L 161.0 106.5 L 45.0 106.5 L 45.0 125.6 L 44.4 134.0 L 43.3 142.0 L 41.6 149.5 L 39.4 156.7 L 36.6 163.4 L 33.3 169.6 L 29.5 175.3 L 25.1 180.5 L 20.1 185.1 L 14.5 189.0 L 13.4 187.7 L 17.3 182.5 L 20.8 177.2 L 23.9 171.8 L 26.6 166.1 L 28.8 160.2 L 30.5 154.0 L 31.8 147.4 L 32.6 140.5 L 33.0 133.3 L 33.0 78.0 Z M 177.7 150.3 L 179.7 150.3 L 177.7 175.3 L 181.2 177.7 L 183.7 181.3 L 181.2 184.9 L 177.7 187.3 L 66.8 187.3 L 64.2 187.2 L 61.7 186.7 L 59.3 185.9 L 57.0 184.7 L 55.0 183.0 L 53.4 181.0 L 52.1 178.8 L 51.3 176.4 L 50.9 173.9 L 50.8 171.3 L 50.8 140.8 L 62.8 146.8 L 153.1 146.8 L 153.1 126.1 L 49.0 126.1 L 49.0 122.1 L 153.1 122.1 L 159.1 117.1 L 170.1 126.1 L 165.1 130.1 L 165.1 154.8 L 153.1 160.8 L 153.1 150.8 L 62.8 150.8 L 62.8 172.5 L 63.0 173.4 L 63.2 174.0 L 63.3 174.4 L 63.5 174.6 L 63.7 174.7 L 64.0 174.9 L 64.6 175.1 L 65.5 175.2 L 66.8 175.3 L 171.7 175.3 Z M 45.0 88.0 L 45.0 102.5 L 161.0 102.5 L 161.0 88.0 Z M 167.0 67.7 L 162.3 64.2 L 158.0 60.5 L 154.0 56.5 L 150.3 52.4 L 147.0 48.0 L 144.0 43.4 L 143.0 41.4 L 143.0 72.8 L 131.0 78.8 L 131.0 46.54285717010498 L 127.8 50.2 L 123.2 54.6 L 118.3 58.7 L 113.0 62.5 L 107.4 65.9 L 101.4 68.9 L 95.0 71.5 L 88.3 73.5 L 87.6 71.9 L 93.3 68.1 L 98.7 64.3 L 103.7 60.4 L 108.4 56.5 L 112.6 52.4 L 116.6 48.1 L 120.1 43.7 L 123.3 39.1 L 126.1 34.3 L 126.14761905670166 34.2 L 101.0 34.2 L 101.0 30.2 L 131.0 30.2 L 131.0 10.9 L 143.0 12.9 L 146.0 14.9 L 143.0 16.7 L 143.0 30.2 L 160.0 30.2 L 170.0 20.2 L 182.0 30.2 L 182.0 34.2 L 143.0 34.2 L 143.0 34.25263156890869 L 145.0 36.2 L 148.7 39.8 L 152.4 43.2 L 156.2 46.5 L 160.2 49.5 L 164.3 52.4 L 168.6 55.1 L 173.1 57.6 L 177.9 59.9 L 182.8 62.1 L 188.4 64.8 L 177.1 74.0 L 171.9 70.9 Z M 84.9 56.3 L 83.3 54.4 L 81.4 52.5 L 79.3 50.5 L 76.9 48.6 L 74.2 46.7 L 71.3 44.8 L 69.0 43.31612901687622 L 69.0 72.8 L 57.0 78.8 L 57.0 46.54285717010498 L 53.8 50.2 L 49.2 54.6 L 44.3 58.7 L 39.0 62.5 L 33.4 65.9 L 27.4 68.9 L 21.0 71.5 L 14.3 73.5 L 13.6 71.9 L 19.3 68.1 L 24.7 64.3 L 29.7 60.4 L 34.4 56.5 L 38.6 52.4 L 42.6 48.1 L 46.1 43.7 L 49.3 39.1 L 52.1 34.3 L 52.14761905670166 34.2 L 18.0 34.2 L 18.0 30.2 L 57.0 30.2 L 57.0 10.9 L 69.0 12.9 L 72.0 14.9 L 69.0 16.7 L 69.0 30.2 L 77.0 30.2 L 87.0 20.2 L 99.0 30.2 L 99.0 34.2 L 69.0 34.2 L 69.0 40.17948713302612 L 69.1 40.2 L 72.9 40.8 L 76.5 41.7 L 79.9 42.7 L 83.2 43.9 L 86.2 45.3 L 89.1 46.9 L 91.9 48.6 L 94.4 50.5 L 96.8 52.6 L 98.0 57.0 L 95.8 61.0 L 91.4 62.2 L 87.4 60.1 L 86.3 58.2 Z " />
</g>
</svg>
