<svg xmlns="http://www.w3.org/2000/svg" xmlns:xlink="http://www.w3.org/1999/xlink" version="1.1" baseProfile="full" viewBox="0 0 200 200" width="200" height="200">
<g fill="black">
<path d="M 66.4 104.9 L 65.0 102.6 L 63.3 100.3 L 61.6 98.1 L 59.6 95.8 L 57.5 93.6 L 55.2 91.4 L 53.8 90.0583333015442 L 53.8 183.0 L 41.8 189.0 L 41.8 95.534375 L 40.3 99.8 L 36.9 108.7 L 33.0 117.2 L 28.9 125.5 L 24.3 133.5 L 19.4 141.2 L 14.0 148.4 L 12.4 147.5 L 16.1 139.3 L 19.6 131.1 L 22.9 122.8 L 26.0 114.3 L 28.9 105.7 L 31.5 97.0 L 33.9 88.0 L 35.9 78.8 L 37.8 69.5 L 38.79411764144898 63.0 L 13.2 63.0 L 13.2 59.0 L 41.8 59.0 L 41.8 14.0 L 53.8 16.0 L 56.8 18.0 L 53.8 19.8 L 53.8 59.0 L 57.8 59.0 L 67.8 49.0 L 79.8 59.0 L 79.8 63.0 L 53.8 63.0 L 53.8 86.69090909957886 L 54.1 86.8 L 57.4 87.8 L 60.6 89.1 L 63.6 90.6 L 66.5 92.3 L 69.3 94.1 L 71.9 96.1 L 74.4 98.3 L 76.7 100.7 L 78.9 103.2 L 79.7 107.7 L 77.1 111.5 L 72.6 112.2 L 68.8 109.6 L 67.7 107.3 Z M 112.9 119.0 L 112.9 144.0 L 154.4 144.0 L 154.4 119.0 Z M 112.9 92.0 L 112.9 115.0 L 154.4 115.0 L 154.4 92.0 Z M 167.72806692123413 94.93754644393921 L 166.4 96.0 L 166.4 172.0 L 166.2 174.5 L 165.8 177.0 L 165.0 179.4 L 163.7 181.7 L 162.1 183.7 L 160.1 185.3 L 157.8 186.6 L 155.4 187.4 L 152.9 187.8 L 150.4 188.0 L 150.4 182.0 L 138.4 179.0 L 138.4 176.0 L 150.4 176.0 L 151.6 175.9 L 152.5 175.7 L 153.4 175.4 L 153.8 175.0 L 154.1 174.1 L 154.3 173.2 L 154.4 172.0 L 154.4 148.0 L 112.9 148.0 L 112.9 183.0 L 100.9 189.0 L 100.9 93.1684931755066 L 97.4 97.1 L 89.5 104.7 L 81.1 111.6 L 79.9 110.3 L 86.8 102.0 L 93.3 93.6 L 99.4 85.0 L 100.9 82.65789470672607 L 100.9 82.0 L 101.21914892196655 82.15957450866699 L 105.1 76.1 L 110.3 66.8 L 115.0 57.2 L 119.2 47.3 L 123.0 37.0 L 126.4 26.4 L 129.2 15.4 L 129.25553560256958 15.414362621307372 L 129.7 13.7 L 140.8 18.4 L 143.2 21.1 L 139.6024948120117 22.19209976196289 L 137.2 29.8 L 136.49328145980834 31.696074199676513 L 137.9 34.3 L 142.5 42.6 L 147.2 50.5 L 152.0 57.9 L 156.9 64.9 L 162.0 71.4 L 167.3 77.4 L 172.8 83.0 L 178.5 88.2 L 184.3 92.9 L 186.8 94.9 L 176.0 103.0 L 169.9 97.3 Z M 133.1 40.8 L 128.4 51.3 L 123.3 61.4 L 117.6 71.1 L 111.4 80.2 L 107.48008298873901 85.29004144668579 L 112.9 88.0 L 154.4 88.0 L 158.78666667938234 84.34444446563721 L 153.8 77.5 L 149.1 70.0 L 144.8 62.1 L 140.8 53.8 L 137.2 45.1 L 134.44717502593994 37.18562812805176 Z M 185.4 58.0 L 185.4 62.0 L 155.1 62.0 L 155.1 58.0 L 171.1777777671814 58.0 L 177.4 51.0 Z M 112.8 57.0 L 112.8 61.0 L 82.5 61.0 L 82.5 57.0 L 98.5777777671814 57.0 L 104.8 50.0 Z M 184.8 32.0 L 184.8 36.0 L 150.5 36.0 L 150.5 32.0 L 170.5777777671814 32.0 L 176.8 25.0 Z M 117.5 32.0 L 117.5 36.0 L 82.5 36.0 L 82.5 32.0 L 103.27777776718139 32.0 L 109.5 25.0 Z " />
</g>
</svg>
