<svg xmlns="http://www.w3.org/2000/svg" xmlns:xlink="http://www.w3.org/1999/xlink" version="1.1" baseProfile="full" viewBox="0 0 200 200" width="200" height="200">
<g fill="black">
<path d="M 160.2 176.2 L 151.9 172.3 L 143.9 168.1 L 136.3 163.7 L 129.1 158.9 L 122.3 153.9 L 115.9 148.6 L 109.9 142.9 L 105.5 137.83584909439088 L 105.5 183.9 L 93.5 189.9 L 93.5 143.8285714149475 L 91.7 145.6 L 85.0 151.5 L 77.7 156.9 L 69.9 162.0 L 61.6 166.7 L 52.8 170.9 L 43.5 174.8 L 33.6 178.2 L 23.2 181.1 L 12.3 183.5 L 11.8 181.8 L 22.0 177.5 L 31.7 173.2 L 40.8 168.8 L 49.4 164.2 L 57.4 159.3 L 64.8 154.2 L 71.7 148.9 L 78.0 143.4 L 83.7 137.6 L 83.78095235824586 137.5 L 17.0 137.5 L 17.0 133.5 L 93.5 133.5 L 93.5 113.7 L 105.5 115.7 L 108.5 117.7 L 105.5 119.5 L 105.5 133.5 L 159.9 133.5 L 169.9 123.5 L 181.9 133.5 L 181.9 137.5 L 109.0380952835083 137.5 L 119.4 143.9 L 126.3 147.9 L 133.4 151.8 L 140.8 155.5 L 148.5 159.0 L 156.4 162.2 L 164.6 165.2 L 173.1 168.0 L 181.8 170.6 L 189.5 173.1 L 177.9 183.2 L 168.9 179.8 Z M 35.6 117.2 L 23.6 123.2 L 23.6 15.1 L 35.6 21.1 L 79.7 21.1 L 89.7 11.1 L 101.7 21.1 L 101.7 25.1 L 68.5 25.1 L 68.5 47.4 L 84.4 47.4 L 90.4 42.4 L 101.4 51.4 L 96.4 55.4 L 96.4 85.4 L 84.4 91.4 L 84.4 81.4 L 68.5 81.4 L 68.5 106.2 L 82.1 106.2 L 92.1 96.2 L 104.1 106.2 L 104.1 110.2 L 35.6 110.2 Z M 35.6 81.4 L 35.6 106.2 L 56.5 106.2 L 56.5 81.4 Z M 179.0 91.9 L 179.0 95.9 L 107.0 95.9 L 107.0 91.9 L 157.0 91.9 L 167.0 81.9 Z M 133.6 16.5 L 136.2 19.0 L 132.61173400878906 20.30482397079468 L 131.6 24.2 L 129.4 31.7 L 126.8 38.8 L 124.1 45.7 L 123.9615385055542 46.0 L 160.0 46.0 L 170.0 36.0 L 182.0 46.0 L 182.0 50.0 L 122.11538457870483 50.0 L 121.1 52.2 L 117.8 58.3 L 114.2 64.2 L 110.4 69.6 L 106.2 74.6 L 101.7 79.1 L 100.2 78.0 L 103.1 72.5 L 105.8 66.8 L 108.5 61.0 L 110.9 55.1 L 113.2 48.9 L 115.4 42.4 L 117.3 35.7 L 119.0 28.8 L 120.5 21.6 L 121.71304683685302 15.101534938812256 L 121.7 15.1 L 122.2 12.2 Z M 35.6 77.4 L 84.4 77.4 L 84.4 51.4 L 35.6 51.4 Z M 35.6 25.1 L 35.6 47.4 L 56.5 47.4 L 56.5 25.1 Z " />
</g>
</svg>
