<svg xmlns="http://www.w3.org/2000/svg" xmlns:xlink="http://www.w3.org/1999/xlink" version="1.1" baseProfile="full" viewBox="0 0 200 200" width="200" height="200">
<g fill="black">
<path d="M 65.2 104.9 L 63.8 102.6 L 62.2 100.3 L 60.5 98.0 L 58.6 95.8 L 56.5 93.6 L 54.3 91.4 L 53.0 90.15416669845581 L 53.0 183.0 L 41.0 189.0 L 41.0 96.27741937637329 L 39.8 99.8 L 36.3 108.6 L 32.6 117.2 L 28.5 125.5 L 24.0 133.5 L 19.1 141.2 L 13.8 148.4 L 12.2 147.5 L 15.8 139.3 L 19.2 131.1 L 22.5 122.8 L 25.5 114.4 L 28.3 105.8 L 30.9 97.0 L 33.2 88.0 L 35.3 78.8 L 37.0 69.5 L 37.99411764144897 63.0 L 13.0 63.0 L 13.0 59.0 L 41.0 59.0 L 41.0 14.0 L 53.0 16.0 L 56.0 18.0 L 53.0 19.8 L 53.0 59.0 L 56.5 59.0 L 66.5 49.0 L 78.5 59.0 L 78.5 63.0 L 53.0 63.0 L 53.0 86.725 L 53.2 86.8 L 56.5 87.8 L 59.6 89.1 L 62.6 90.6 L 65.5 92.3 L 68.2 94.2 L 70.8 96.2 L 73.2 98.4 L 75.5 100.7 L 77.7 103.2 L 78.4 107.7 L 75.8 111.5 L 71.3 112.2 L 67.5 109.6 L 66.4 107.2 Z M 95.0 81.6 L 126.93571424484253 81.6 L 126.4 74.1 L 126.11406965255738 53.798944759368894 L 126.1 53.8 L 126.10952377319336 53.47619047164917 L 126.1 52.8 L 126.12940454483032 52.80024499893189 L 126.2 50.4 L 138.1 52.9 L 141.1 55.0 L 138.15518827438353 56.70799083709717 L 138.4 73.6 L 138.9957447052002 81.6 L 164.8 81.6 L 174.8 71.6 L 186.8 81.6 L 186.8 85.6 L 139.2936170578003 85.6 L 139.8 92.4 L 142.2 109.4 L 145.7 124.5 L 150.12788457870482 137.5868589401245 L 151.8 134.8 L 156.9 124.6 L 161.4 113.6 L 165.00236225128174 102.70054512023925 L 165.0 102.7 L 165.8 100.3 L 176.7 105.4 L 179.0 108.3 L 175.27915439605712 109.14861392974854 L 172.0 117.8 L 166.6 129.3 L 160.5 139.9 L 155.02202100753783 147.79473447799683 L 155.7 149.2 L 162.1 158.8 L 169.4 166.6 L 177.7 172.7 L 179.7459804534912 173.70075130462646 L 184.8 151.8 L 186.8 151.8 L 184.92062854766846 176.23182916641235 L 186.9 177.2 L 190.2 180.4 L 190.4 185.0 L 187.2 188.3 L 182.7 188.5 L 171.4 183.0 L 161.4 175.5 L 152.7 166.2 L 146.963872051239 157.7105305671692 L 146.3 158.5 L 138.2 166.3 L 129.4 173.2 L 120.0 179.1 L 110.0 184.0 L 99.4 187.7 L 98.7 186.0 L 108.3 180.6 L 117.1 174.6 L 125.3 168.1 L 132.9 160.9 L 139.8 152.9 L 142.4364387512207 149.30105180740355 L 139.1 142.3 L 134.1 127.8 L 130.4 111.6 L 127.8 93.7 L 127.2214285850525 85.6 L 95.0 85.6 L 95.0 122.5 L 94.5 131.0 L 93.6 139.1 L 92.3 146.8 L 90.6 154.1 L 88.5 161.0 L 86.0 167.4 L 83.0 173.4 L 79.6 178.9 L 75.8 183.9 L 71.4 188.2 L 70.0 187.1 L 72.6 181.8 L 74.9 176.4 L 77.0 170.8 L 78.8 164.9 L 80.3 158.7 L 81.5 152.2 L 82.3 145.3 L 82.9 138.1 L 83.1 130.5 L 83.0 122.5 L 83.0 75.6 Z M 158.8 70.7 L 158.1 69.0 L 157.1 67.1 L 156.0 65.3 L 154.7 63.3 L 153.2 61.4 L 151.5 59.4 L 150.13548383712768 57.732258033752444 L 142.4 61.6 L 142.4 38.5 L 116.6 38.5 L 116.6 55.6 L 104.6 61.6 L 104.6 38.5 L 70.7 38.5 L 70.7 34.5 L 104.6 34.5 L 104.6 12.5 L 116.6 14.5 L 119.6 16.5 L 116.6 18.3 L 116.6 34.5 L 142.4 34.5 L 142.4 12.5 L 154.4 14.5 L 157.4 16.5 L 154.4 18.3 L 154.4 34.5 L 166.2 34.5 L 176.2 24.5 L 188.2 34.5 L 188.2 38.5 L 154.4 38.5 L 154.4 55.6 L 153.3956521987915 56.10217390060425 L 153.7 56.2 L 156.3 57.3 L 158.8 58.6 L 161.1 60.0 L 163.2 61.5 L 165.3 63.1 L 167.2 64.8 L 168.9 66.7 L 170.6 68.7 L 170.9 73.2 L 167.9 76.8 L 163.4 77.1 L 159.9 74.1 L 159.4 72.5 Z " />
</g>
</svg>
