<svg xmlns="http://www.w3.org/2000/svg" xmlns:xlink="http://www.w3.org/1999/xlink" version="1.1" baseProfile="full" viewBox="0 0 200 200" width="200" height="200">
<g fill="black">
<path d="M 58.9 104.6 L 57.7 102.3 L 56.4 100.1 L 54.9 97.9 L 53.3 95.7 L 51.5 93.5 L 49.6 91.3 L 49.2 90.86000003814698 L 49.2 183.0 L 37.2 189.0 L 37.2 99.98387098312378 L 34.2 108.5 L 30.7 117.1 L 27.0 125.4 L 23.0 133.4 L 18.5 141.1 L 13.6 148.4 L 12.0 147.5 L 15.1 139.4 L 18.1 131.2 L 20.9 122.9 L 23.6 114.5 L 26.1 105.9 L 28.3 97.1 L 30.4 88.1 L 32.1 79.0 L 33.7 69.6 L 34.54418601989746 63.0 L 12.8 63.0 L 12.8 59.0 L 37.2 59.0 L 37.2 14.0 L 49.2 16.0 L 52.2 18.0 L 49.2 19.8 L 49.2 59.0 L 53.21818180084229 59.0 L 61.4 50.0 L 71.4 59.0 L 71.4 63.0 L 49.2 63.0 L 49.2 87.01000003814697 L 51.9 88.0 L 54.8 89.3 L 57.5 90.8 L 60.1 92.5 L 62.6 94.3 L 65.0 96.4 L 67.3 98.5 L 69.4 100.9 L 71.3 103.4 L 71.8 108.0 L 69.0 111.6 L 64.5 112.0 L 60.8 109.3 L 59.9 106.9 Z M 167.9 145.0 L 162.9 148.0 L 159.87914714813232 149.25868864059447 L 140.3 187.1 L 126.9 186.8 L 149.04063930511475 145.0 L 92.5 145.0 L 92.5 141.0 L 150.9 141.0 L 156.9 136.0 Z M 165.4 130.2 L 159.6 126.0 L 154.0 121.3 L 148.7 116.1 L 143.7 110.4 L 138.8 104.2 L 134.3 97.4 L 130.2 90.2 L 129.3056872367859 88.29052133560181 L 126.6 92.8 L 121.4 100.4 L 115.8 107.6 L 109.9 114.4 L 103.6 120.8 L 96.9 126.8 L 89.9 132.3 L 82.4 137.3 L 74.5 141.7 L 73.5 140.2 L 80.1 134.3 L 86.4 128.2 L 92.4 122.0 L 98.0 115.6 L 103.4 108.9 L 108.4 102.0 L 113.0 94.8 L 117.4 87.3 L 121.4 79.5 L 124.60419368743896 72.20155868530273 L 124.6 72.2 L 124.63999996185302 72.11999998092651 L 125.0 71.3 L 125.04052047729492 71.3189591407776 L 125.6 70.2 L 135.9 76.4 L 137.8 79.4 L 134.05042791366577 79.85253458023071 L 131.4 84.8 L 131.259574508667 85.0340425491333 L 133.6 87.8 L 139.0 93.9 L 144.4 99.5 L 149.7 104.6 L 155.1 109.2 L 160.5 113.4 L 165.9 117.0 L 171.4 120.1 L 177.0 122.7 L 182.6 124.8 L 189.2 127.4 L 177.8 137.1 L 171.5 133.9 Z M 148.7 122.0 L 148.7 126.0 L 107.6 126.0 L 107.6 122.0 L 130.51818180084229 122.0 L 138.7 113.0 Z M 70.8 85.9 L 74.0 85.4 L 77.6 84.7 L 81.5 83.9 L 85.8 83.0 L 87.9 82.49782609939575 L 87.9 56.0 L 74.0 56.0 L 74.0 52.0 L 87.9 52.0 L 87.9 27.0 L 71.3 27.0 L 71.3 23.0 L 100.7 23.0 L 110.7 13.0 L 122.7 23.0 L 122.7 27.0 L 99.9 27.0 L 99.9 52.0 L 104.27777776718139 52.0 L 110.5 45.0 L 118.5 52.0 L 118.5 56.0 L 99.9 56.0 L 99.9 79.5074073791504 L 100.7 79.3 L 106.4 77.9 L 112.4 76.5 L 118.9 75.1 L 119.6 76.8 L 113.7 80.0 L 108.2 82.9 L 102.9 85.5 L 97.8 87.8 L 93.1 89.9 L 88.6 91.8 L 84.4 93.5 L 80.6 95.0 L 77.72755002975464 96.1170639038086 L 76.3 100.0 L 73.7 97.5 L 68.9 86.4 Z M 135.7 82.0 L 148.9 82.0 L 148.9 56.0 L 135.0 56.0 L 135.0 52.0 L 148.9 52.0 L 148.9 27.0 L 130.2 27.0 L 130.2 23.0 L 161.6 23.0 L 171.6 13.0 L 183.6 23.0 L 183.6 27.0 L 160.9 27.0 L 160.9 52.0 L 165.2777777671814 52.0 L 171.5 45.0 L 179.5 52.0 L 179.5 56.0 L 160.9 56.0 L 160.9 82.0 L 163.7 82.0 L 173.7 72.0 L 185.7 82.0 L 185.7 86.0 L 135.7 86.0 Z " />
</g>
</svg>
