<svg xmlns="http://www.w3.org/2000/svg" xmlns:xlink="http://www.w3.org/1999/xlink" version="1.1" baseProfile="full" viewBox="0 0 200 200" width="200" height="200">
<g fill="black">
<path d="M 59.5 104.7 L 58.3 102.4 L 56.9 100.1 L 55.4 97.9 L 53.7 95.7 L 51.9 93.5 L 49.9 91.3 L 49.3 90.6714285850525 L 49.3 183.0 L 37.3 189.0 L 37.3 98.75862064361573 L 37.0 99.7 L 33.9 108.5 L 30.4 117.1 L 26.6 125.4 L 22.4 133.4 L 17.9 141.1 L 12.9 148.4 L 11.3 147.5 L 14.5 139.4 L 17.5 131.2 L 20.5 122.9 L 23.3 114.5 L 25.8 105.9 L 28.1 97.1 L 30.2 88.1 L 32.1 78.9 L 33.7 69.6 L 34.54418601989746 63.0 L 12.1 63.0 L 12.1 59.0 L 37.3 59.0 L 37.3 14.0 L 49.3 16.0 L 52.3 18.0 L 49.3 19.8 L 49.3 59.0 L 54.018181800842285 59.0 L 62.2 50.0 L 72.2 59.0 L 72.2 63.0 L 49.3 63.0 L 49.3 86.96451616287231 L 52.2 87.9 L 55.1 89.2 L 57.9 90.7 L 60.6 92.4 L 63.1 94.3 L 65.5 96.3 L 67.8 98.5 L 70.0 100.9 L 72.0 103.4 L 72.5 107.9 L 69.7 111.6 L 65.2 112.1 L 61.6 109.3 L 60.6 107.0 Z M 124.3 123.5 L 127.1 125.8 L 123.68435554504394 127.41115303039551 L 122.6 134.3 L 120.0 144.2 L 116.7 153.2 L 112.6 161.3 L 107.6 168.4 L 101.9 174.6 L 95.5 179.6 L 88.3 183.5 L 80.6 186.3 L 72.2 187.8 L 71.8 186.1 L 79.2 182.7 L 85.7 178.8 L 91.5 174.4 L 96.5 169.3 L 100.8 163.5 L 104.4 156.9 L 107.4 149.6 L 109.7 141.4 L 111.3 132.3 L 112.36000003814698 122.76000003814697 L 112.6 120.2 Z M 181.0 147.0 L 183.0 147.0 L 181.0 172.0 L 184.6 174.4 L 187.0 178.0 L 184.6 181.6 L 181.0 184.0 L 150.4 184.0 L 147.8 183.8 L 145.3 183.4 L 142.9 182.6 L 140.6 181.3 L 138.6 179.7 L 137.0 177.7 L 135.7 175.4 L 134.9 173.0 L 134.5 170.5 L 134.4 168.0 L 134.4 122.0 L 146.4 124.0 L 149.4 126.0 L 146.4 127.8 L 146.4 169.2 L 146.6 170.1 L 146.9 171.0 L 147.3 171.4 L 148.2 171.7 L 149.1 171.9 L 150.4 172.0 L 175.0 172.0 Z M 105.3 34.0 L 117.3 40.0 L 119.95714282989502 40.0 L 120.3 38.8 L 120.8 36.0 L 121.2 33.1 L 121.7 30.4 L 122.3 27.6 L 122.8 24.9 L 123.3 22.1 L 123.7 19.4 L 124.2 16.7 L 124.52152976989746 15.02804536819458 L 124.4 15.0 L 125.2 12.5 L 136.1 17.7 L 138.3 20.6 L 134.1520700454712 21.546019077301025 L 133.5 22.8 L 129.3 30.3 L 127.7 32.7 L 126.2 35.2 L 124.5 37.5 L 122.7 39.9 L 122.6375 40.0 L 140.2 40.0 L 146.2 35.0 L 157.2 44.0 L 152.2 48.0 L 152.2 111.0 L 140.2 117.0 L 140.2 111.0 L 117.3 111.0 L 105.3 117.0 L 105.3 38.594545459747316 L 101.6977011680603 37.21912221908569 L 101.5 37.3 L 99.2 38.3 L 96.9 39.2 L 94.4 40.1 L 91.9 40.9 L 89.2 41.6 L 87.8285714149475 41.94285717010498 L 86.4 42.8 L 86.4 108.0 L 89.9777777671814 108.0 L 96.2 101.0 L 104.2 108.0 L 104.2 112.0 L 86.4 112.0 L 86.4 124.0 L 74.4 130.0 L 74.4 37.0 L 84.78139533996583 38.73023252487182 L 86.8 37.0 L 88.9 35.3 L 90.8 33.6 L 94.2 30.4 L 95.8 28.9 L 97.2 27.3 L 97.8434232711792 26.557588577270508 L 97.7 26.4 L 98.5 25.8 L 105.3 34.64931507110596 Z M 186.8 39.0 L 181.8 43.0 L 181.8 118.0 L 169.8 124.0 L 169.8 112.0 L 154.5 112.0 L 154.5 108.0 L 169.8 108.0 L 169.8 39.0 L 155.8 39.0 L 155.8 35.0 L 169.8 35.0 L 175.8 30.0 Z M 117.3 76.0 L 117.3 107.0 L 140.2 107.0 L 140.2 76.0 Z M 117.3 44.0 L 117.3 72.0 L 140.2 72.0 L 140.2 44.0 Z " />
</g>
</svg>
