<svg xmlns="http://www.w3.org/2000/svg" xmlns:xlink="http://www.w3.org/1999/xlink" version="1.1" baseProfile="full" viewBox="0 0 200 200" width="200" height="200">
<g fill="black">
<path d="M 59.5 104.7 L 58.3 102.4 L 56.9 100.1 L 55.4 97.9 L 53.7 95.7 L 51.9 93.5 L 49.9 91.3 L 49.3 90.6714285850525 L 49.3 183.0 L 37.3 189.0 L 37.3 98.75862064361573 L 37.0 99.7 L 33.9 108.5 L 30.4 117.1 L 26.6 125.4 L 22.4 133.4 L 17.9 141.1 L 12.9 148.4 L 11.3 147.5 L 14.5 139.4 L 17.5 131.2 L 20.5 122.9 L 23.3 114.5 L 25.8 105.9 L 28.1 97.1 L 30.2 88.1 L 32.1 78.9 L 33.7 69.6 L 34.54418601989746 63.0 L 12.1 63.0 L 12.1 59.0 L 37.3 59.0 L 37.3 14.0 L 49.3 16.0 L 52.3 18.0 L 49.3 19.8 L 49.3 59.0 L 54.018181800842285 59.0 L 62.2 50.0 L 72.2 59.0 L 72.2 63.0 L 49.3 63.0 L 49.3 86.96451616287231 L 52.2 87.9 L 55.1 89.2 L 57.9 90.7 L 60.6 92.4 L 63.1 94.3 L 65.5 96.3 L 67.8 98.5 L 70.0 100.9 L 72.0 103.4 L 72.5 107.9 L 69.7 111.6 L 65.2 112.1 L 61.6 109.3 L 60.6 107.0 Z M 89.1 66.0 L 169.5 66.0 L 175.5 61.0 L 186.5 70.0 L 181.5 74.0 L 181.5 180.7 L 169.5 186.7 L 169.5 178.7 L 89.1 178.7 L 89.1 181.7 L 77.1 187.7 L 77.1 60.0 Z M 89.1 70.0 L 89.1 174.7 L 169.5 174.7 L 169.5 70.0 Z M 150.9 142.0 L 148.9 138.7 L 146.7 135.6 L 144.3 132.5 L 141.8 129.5 L 139.0 126.6 L 136.0 123.8 L 133.0 120.99354839324951 L 133.0 164.7 L 121.0 170.7 L 121.0 134.7457142829895 L 119.8 136.7 L 116.0 142.3 L 111.8 147.7 L 107.3 152.8 L 102.5 157.7 L 97.2 162.3 L 91.5 166.5 L 90.2 165.2 L 94.4 159.6 L 98.4 154.2 L 102.2 148.7 L 105.7 143.3 L 108.8 137.7 L 111.7 132.2 L 114.3 126.5 L 116.6 120.8 L 118.6 114.9 L 119.33220338821411 112.2 L 90.9 112.2 L 90.9 108.2 L 121.0 108.2 L 121.0 90.9625 L 120.8 91.0 L 114.0 92.2 L 106.9 93.3 L 99.4 94.2 L 91.6 95.0 L 91.2 93.2 L 98.6 90.5 L 105.7 88.1 L 112.5 85.8 L 118.9 83.6 L 125.0 81.6 L 130.7 79.6 L 136.1 77.6 L 141.1 75.7 L 145.8 73.9 L 149.14529304504396 72.49964475631714 L 149.1 72.4 L 149.19296875 72.4796875 L 150.1 72.1 L 150.6880217552185 73.76116151809693 L 159.6 81.4 L 159.8 84.5 L 155.8165246963501 82.77580919265748 L 154.1 83.4 L 149.4 84.7 L 144.4 86.0 L 139.0 87.2 L 133.3 88.5 L 133.0 88.5639344215393 L 133.0 108.2 L 145.1 108.2 L 155.1 98.2 L 167.1 108.2 L 167.1 112.2 L 133.0 112.2 L 133.0 117.56428575515747 L 134.5 118.1 L 138.7 119.8 L 142.6 121.8 L 146.4 124.1 L 149.9 126.7 L 153.3 129.5 L 156.5 132.5 L 159.5 135.8 L 162.3 139.3 L 164.9 143.0 L 165.3 147.6 L 162.5 151.2 L 158.0 151.6 L 154.4 148.8 L 152.7 145.3 Z M 154.3 14.0 L 157.3 16.0 L 154.3 17.8 L 154.3 33.1 L 167.0 33.1 L 177.0 23.1 L 189.0 33.1 L 189.0 37.1 L 154.3 37.1 L 154.3 53.4 L 142.3 59.4 L 142.3 37.1 L 115.6 37.1 L 115.6 53.4 L 103.6 59.4 L 103.6 37.1 L 68.9 37.1 L 68.9 33.1 L 103.6 33.1 L 103.6 12.0 L 115.6 14.0 L 118.6 16.0 L 115.6 17.8 L 115.6 33.1 L 142.3 33.1 L 142.3 12.0 Z " />
</g>
</svg>
