<svg xmlns="http://www.w3.org/2000/svg" xmlns:xlink="http://www.w3.org/1999/xlink" version="1.1" baseProfile="full" viewBox="0 0 200 200" width="200" height="200">
<g fill="black">
<path d="M 51.4 104.2 L 49.4 99.8 L 48.2 97.6 L 46.9 95.5 L 45.5 93.3 L 44.7 92.18000001907349 L 44.7 183.0 L 32.7 189.0 L 32.7 104.38888893127441 L 31.5 108.3 L 28.5 116.9 L 25.2 125.2 L 21.6 133.3 L 17.6 141.0 L 13.3 148.3 L 11.6 147.6 L 14.1 139.5 L 16.6 131.3 L 19.0 123.1 L 21.2 114.7 L 23.3 106.1 L 25.2 97.3 L 26.9 88.3 L 28.4 79.1 L 29.7 69.7 L 30.47011489868164 63.0 L 12.5 63.0 L 12.5 59.0 L 32.7 59.0 L 32.7 14.0 L 44.7 16.0 L 47.7 18.0 L 44.7 19.8 L 44.7 59.0 L 48.6777777671814 59.0 L 54.9 52.0 L 62.9 59.0 L 62.9 63.0 L 44.7 63.0 L 44.7 87.36666669845582 L 46.5 88.1 L 49.0 89.5 L 51.5 91.0 L 53.8 92.7 L 56.0 94.6 L 58.1 96.6 L 60.1 98.8 L 62.0 101.2 L 63.7 103.6 L 63.9 108.2 L 60.9 111.7 L 56.4 111.9 L 52.9 108.8 L 52.2 106.5 Z M 75.1 26.0 L 77.6 28.0 L 75.1 29.66666669845581 L 75.1 123.0 L 99.6 123.0 L 109.6 113.0 L 121.6 123.0 L 121.6 127.0 L 101.8 127.0 L 101.8 183.0 L 89.8 189.0 L 89.8 144.15454549789428 L 87.94043006896973 144.830752658844 L 87.7 145.7 L 86.3 150.3 L 84.6 154.8 L 82.8 159.2 L 80.7 163.5 L 78.5 167.6 L 76.1 171.6 L 73.4 175.4 L 70.4 179.0 L 67.2 182.4 L 65.7 181.5 L 67.4 177.2 L 70.4 168.8 L 71.8 164.6 L 73.1 160.4 L 74.2 156.2 L 75.1 152.0 L 76.0 147.7 L 77.06285076141357 139.90576133728027 L 77.0 139.9 L 77.5 137.0 L 89.0 141.0 L 89.8 141.7692307472229 L 89.8 127.0 L 75.1 127.0 L 75.1 139.0 L 65.1 144.0 L 65.1 24.0 Z M 176.1 115.0 L 175.8 110.5 L 175.3 106.2 L 175.21029415130616 105.5720588684082 L 173.9 106.3 L 169.2 108.7 L 164.3 110.8 L 159.7 112.63999996185302 L 159.7 182.0 L 147.7 188.0 L 147.7 138.282142829895 L 144.5983051300049 139.22372884750365 L 144.3 140.1 L 142.5 144.8 L 140.6 149.5 L 138.5 154.2 L 136.2 158.8 L 133.7 163.4 L 131.1 168.0 L 128.2 172.6 L 125.0 177.0 L 121.6 181.4 L 120.0 180.5 L 121.7 175.3 L 123.4 170.2 L 125.1 165.2 L 126.8 160.4 L 129.8 150.8 L 131.1 146.2 L 132.3 141.5 L 133.4 136.9 L 134.3 132.4 L 134.35553560256957 132.41436262130736 L 134.8 130.7 L 145.9 135.4 L 147.7 137.425 L 147.7 116.92727270126343 L 143.2 118.4 L 137.6 120.2 L 131.9 121.9 L 130.04792308807373 122.43364925384522 L 128.7 126.1 L 126.0 123.6 L 121.4 112.3 L 123.4 111.9 L 129.3 110.8 L 135.1 109.8 L 140.8 108.7 L 145.41875 107.77624998092651 L 146.0 105.8 L 148.1 99.1 L 152.5 85.9 L 156.7 72.9 L 158.7 66.4 L 160.6 59.9 L 162.5 53.5 L 164.0216540336609 48.00513820648193 L 164.0 48.0 L 164.1714285850525 47.46428575515747 L 164.3 47.0 L 164.3180874824524 47.00597667694092 L 164.8 45.5 L 175.8 50.8 L 178.0 53.6 L 174.35939989089965 54.43031234741211 L 173.3 57.1 L 170.8 63.5 L 168.1 69.9 L 165.4 76.2 L 162.5 82.5 L 159.5 88.8 L 156.3 95.0 L 153.0 101.2 L 149.68053245544434 106.98535776138306 L 151.8 106.6 L 157.2 105.5 L 167.6 103.5 L 172.8 102.7 L 174.76629209518433 102.46404495239258 L 174.7 102.0 L 174.0 97.9 L 173.2 93.9 L 171.2 86.1 L 170.1 82.3 L 171.6 81.4 L 174.3 84.6 L 176.7 88.0 L 178.9 91.7 L 180.9 95.7 L 182.6 99.8 L 184.2 104.2 L 185.5 108.8 L 186.6 113.5 L 187.6 118.5 L 188.4 123.6 L 186.8 127.9 L 182.8 129.9 L 178.5 128.4 L 176.4 124.4 L 176.3 119.6 Z M 173.0 159.6 L 171.8 155.3 L 170.5 151.1 L 169.3 147.1 L 168.0 143.3 L 166.7 139.6 L 165.4 136.1 L 164.2 132.6 L 162.8 129.3 L 164.3 128.2 L 166.9 130.8 L 169.6 133.6 L 172.1 136.7 L 174.4 140.1 L 176.7 143.8 L 178.8 147.6 L 180.9 151.7 L 182.9 156.1 L 184.9 160.6 L 186.7 165.3 L 186.2 169.9 L 182.7 172.8 L 178.2 172.3 L 175.2 168.8 L 174.1 164.1 Z M 110.2 158.3 L 109.6 155.3 L 108.4 149.5 L 107.6 146.6 L 106.7 143.7 L 105.8 140.9 L 104.8 138.0 L 103.5 135.3 L 104.9 134.2 L 107.1 136.5 L 109.4 138.7 L 111.5 141.1 L 113.5 143.7 L 115.3 146.4 L 117.0 149.2 L 118.6 152.2 L 120.1 155.2 L 121.4 158.4 L 122.6 161.7 L 121.8 166.2 L 118.0 168.9 L 113.6 168.0 L 110.9 164.3 L 110.6 161.3 Z M 124.1 25.9 L 119.1 29.9 L 119.1 105.9 L 107.1 111.9 L 107.1 103.9 L 89.6 103.9 L 89.6 106.9 L 79.6 111.9 L 79.6 16.9 L 89.6 21.9 L 107.1 21.9 L 113.1 16.9 Z M 89.6 76.8 L 89.6 99.9 L 107.1 99.9 L 107.1 76.8 Z M 138.2 81.8 L 137.4 78.4 L 136.6 75.3 L 135.7 72.4 L 134.7 69.8 L 133.6 67.4 L 132.5 65.1 L 131.3 63.0 L 129.6 61.2 L 130.6 59.7 L 133.0 60.9 L 135.5 62.2 L 137.9 64.0 L 139.44351377487183 65.47640447616577 L 139.8 64.3 L 140.5 61.0 L 141.3 57.6 L 142.2 54.3 L 143.0 51.0 L 143.8 47.6 L 144.6 44.3 L 146.2 37.5 L 146.60737419128418 35.71773796081543 L 142.1 36.9 L 135.8 38.4 L 129.4 39.7 L 122.9 40.8 L 122.3 39.1 L 128.3 36.1 L 134.1 33.3 L 139.9 30.7 L 145.6 28.1 L 151.1 25.6 L 156.6 23.0 L 162.0 20.5 L 167.2 18.0 L 172.3 15.4 L 176.4397364616394 13.370717430114746 L 176.4 13.3 L 176.4645450592041 13.358556365966797 L 177.4 12.9 L 178.39236545562744 15.10750675201416 L 186.1 22.1 L 186.3 25.3 L 182.44643545150757 23.73448944091797 L 182.3 23.8 L 176.9 25.9 L 171.4 27.9 L 160.0 31.7 L 151.3082530975342 34.35171937942505 L 158.4 37.8 L 160.6 40.6 L 156.61405696868897 41.509074687957764 L 155.3 44.4 L 151.9 50.8 L 150.2 53.9 L 148.4 56.9 L 146.5 59.9 L 144.5 62.8 L 142.4 65.5 L 141.12183094024658 67.28943662643432 L 142.4 68.8 L 144.4 71.7 L 146.3 75.0 L 148.0 78.6 L 149.6 82.5 L 151.1 86.7 L 150.3 91.2 L 146.6 93.9 L 142.1 93.1 L 139.4 89.4 L 138.8 85.4 Z M 89.6 51.3 L 89.6 72.8 L 107.1 72.8 L 107.1 51.3 Z M 89.6 25.9 L 89.6 47.3 L 107.1 47.3 L 107.1 25.9 Z " />
</g>
</svg>
