<svg xmlns="http://www.w3.org/2000/svg" xmlns:xlink="http://www.w3.org/1999/xlink" version="1.1" baseProfile="full" viewBox="0 0 200 200" width="200" height="200">
<g fill="black">
<path d="M 58.6 114.7 L 57.9 111.5 L 56.9 108.2 L 55.7 104.8 L 54.2 101.3 L 52.4 97.7 L 50.4 94.0 L 50.0 93.29090909957885 L 50.0 183.0 L 38.0 189.0 L 38.0 99.375 L 37.9 99.7 L 34.7 108.5 L 31.2 117.1 L 27.4 125.4 L 23.3 133.4 L 18.8 141.1 L 13.8 148.4 L 12.2 147.5 L 15.4 139.4 L 18.4 131.2 L 21.4 122.9 L 24.1 114.5 L 26.6 105.9 L 28.9 97.1 L 31.0 88.1 L 32.8 78.9 L 34.4 69.6 L 35.32093019485474 63.0 L 13.0 63.0 L 13.0 59.0 L 38.0 59.0 L 38.0 14.0 L 50.0 16.0 L 53.0 18.0 L 50.0 19.8 L 50.0 59.0 L 54.518181800842285 59.0 L 62.7 50.0 L 72.7 59.0 L 72.7 63.0 L 50.0 63.0 L 50.0 87.61351346969604 L 50.6 88.1 L 54.1 91.1 L 57.3 94.3 L 60.1 97.6 L 62.7 101.0 L 65.0 104.4 L 67.0 108.0 L 68.7 111.6 L 70.1 115.3 L 71.2 119.1 L 70.1 123.5 L 66.2 125.9 L 61.8 124.8 L 59.3 120.9 L 59.1 117.9 Z M 147.6 183.7 L 135.5 182.6 L 125.6 180.7 L 117.4 177.9 L 110.9 174.3 L 105.8 169.9 L 102.0 164.9 L 99.3 159.3 L 98.5285714149475 156.68571424484253 L 98.20500001907348 156.84750003814696 L 97.6 157.7 L 95.7 160.9 L 93.6 164.0 L 91.6 166.9 L 89.5 169.8 L 87.3 172.5 L 85.2 175.2 L 83.1 177.8 L 81.83476781845093 179.30622873306274 L 82.5 183.6 L 79.0 182.7 L 69.4 175.2 L 70.9 173.8 L 73.4 172.1 L 78.6 168.3 L 81.2 166.3 L 83.9 164.3 L 86.7 162.2 L 89.6 160.1 L 90.5 159.4172413825989 L 90.5 109.0 L 72.9 109.0 L 72.9 105.0 L 90.5 105.0 L 96.0 100.0 L 106.5 109.0 L 101.5 112.5 L 101.5 155.2 L 101.34545450210571 155.27727270126343 L 102.9 157.2 L 105.99325609207153 160.5374605178833 L 106.2 159.9 L 107.4 155.9 L 108.4 151.5 L 109.3 146.6 L 110.1 141.4 L 110.7 135.6 L 111.1 129.4 L 111.4 122.8 L 111.4 115.6 L 111.3 108.0 L 111.3 34.0 L 118.38687152862549 35.574860382080075 L 120.8 34.3 L 126.1 31.8 L 131.4 29.4 L 142.0 24.8 L 147.2 22.5 L 157.6 18.1 L 166.93435115814208 14.07341718673706 L 166.9 14.0 L 166.96760501861573 14.059072303771973 L 167.8 13.7 L 168.40595664978028 15.315884494781494 L 177.2 23.0 L 177.4 26.1 L 173.457204914093 24.367559719085694 L 172.0 24.9 L 166.6 26.6 L 155.8 29.8 L 144.8 32.8 L 139.2 34.2 L 133.5 35.6 L 127.8 36.9 L 122.32782611846923 37.84347829818726 L 122.5 38.0 L 120.3 39.57142858505249 L 120.3 57.0 L 143.1 57.0 L 143.1 36.0 L 155.1 38.0 L 158.1 40.0 L 155.1 41.8 L 155.1 57.0 L 160.4 57.0 L 170.4 47.0 L 182.4 57.0 L 182.4 61.0 L 155.1 61.0 L 155.1 80.0 L 163.6 80.0 L 169.6 75.0 L 180.6 84.0 L 175.6 88.0 L 175.6 156.0 L 163.6 162.0 L 163.6 152.0 L 134.9 152.0 L 134.9 159.0 L 124.9 164.0 L 124.9 75.0 L 134.9 80.0 L 143.1 80.0 L 143.1 61.0 L 120.3 61.0 L 120.3 108.0 L 120.0 115.8 L 119.4 123.2 L 118.6 130.1 L 117.6 136.6 L 116.4 142.5 L 114.9 148.0 L 113.1 152.9 L 111.1 157.3 L 108.8 161.1 L 107.84119319915771 162.23636360168456 L 110.6 164.5 L 115.1 167.1 L 120.6 169.2 L 127.7 170.7 L 136.7 171.6 L 147.9 171.9 L 161.6 171.5 L 178.1 170.4 L 189.1 169.6 L 178.9 183.5 L 161.9 184.0 Z M 134.9 128.0 L 134.9 148.0 L 163.6 148.0 L 163.6 128.0 Z M 134.9 105.0 L 134.9 124.0 L 163.6 124.0 L 163.6 105.0 Z M 134.9 101.0 L 163.6 101.0 L 163.6 84.0 L 134.9 84.0 Z M 86.4 76.1 L 85.2 73.7 L 83.9 71.3 L 82.6 69.0 L 81.2 66.7 L 79.7 64.5 L 76.5 60.1 L 74.5 58.3 L 75.5 56.7 L 78.0 58.0 L 80.7 59.2 L 83.3 60.5 L 85.8 62.1 L 88.2 63.9 L 90.5 65.9 L 92.8 68.0 L 95.0 70.3 L 97.1 72.8 L 99.1 75.4 L 99.6 79.9 L 96.8 83.6 L 92.2 84.0 L 88.6 81.3 L 87.5 78.6 Z M 91.6 38.3 L 90.5 35.9 L 89.2 33.5 L 87.9 31.2 L 86.5 28.9 L 83.5 24.3 L 81.5 22.3 L 82.6 20.8 L 85.1 22.3 L 87.7 23.6 L 90.3 25.1 L 92.7 26.9 L 95.1 28.8 L 97.3 30.9 L 99.4 33.1 L 101.4 35.5 L 103.4 38.0 L 105.2 40.6 L 105.4 45.2 L 102.4 48.7 L 97.8 48.8 L 94.4 45.8 L 92.6 40.8 Z " />
</g>
</svg>
