<svg xmlns="http://www.w3.org/2000/svg" xmlns:xlink="http://www.w3.org/1999/xlink" version="1.1" baseProfile="full" viewBox="0 0 200 200" width="200" height="200">
<g fill="black">
<path d="M 76.4 162.8 L 74.7 160.5 L 73.6531795501709 159.29615650177 L 72.5 160.2 L 68.6 162.9 L 64.4 165.4 L 60.1 167.7 L 55.4 169.6 L 50.6 171.4 L 49.7 169.8 L 53.7 166.6 L 57.3 163.5 L 60.8 160.3 L 64.0 157.2 L 67.0 154.1 L 67.65853662490845 153.31951217651368 L 65.2 151.3 L 62.2 149.0 L 59.0 146.6 L 55.4 144.4 L 56.1 142.8 L 60.2 143.9 L 64.2 145.0 L 68.0 146.3 L 71.6 147.8 L 71.92527475357056 147.96263732910157 L 72.2 147.6 L 74.5 144.3 L 76.5 140.9 L 77.81875 138.40902776718139 L 77.8 138.4 L 78.8 136.6 L 88.6 143.6 L 90.2 146.9 L 86.19189186096192 146.9 L 85.9 147.3 L 82.9 150.8 L 80.66000003814698 153.03999996185303 L 81.2 153.4 L 84.0 155.6 L 86.6 157.9 L 89.0 160.5 L 90.0 164.9 L 87.6 168.8 L 83.1 169.8 L 79.2 167.4 L 77.9 165.1 Z M 132.7 162.6 L 130.8 160.5 L 129.99111108779908 159.6102222442627 L 129.4 160.1 L 125.7 162.8 L 121.8 165.3 L 117.7 167.6 L 113.4 169.6 L 108.9 171.4 L 108.0 169.8 L 111.5 166.7 L 114.9 163.5 L 118.0 160.4 L 121.0 157.3 L 123.8 154.2 L 123.973796749115 153.97941179275512 L 121.2 151.8 L 118.3 149.6 L 115.2 147.2 L 111.8 145.1 L 112.5 143.5 L 116.4 144.7 L 120.3 145.7 L 123.9 146.9 L 127.4 148.2 L 128.10899353027344 148.522269821167 L 128.7 147.7 L 130.9 144.4 L 132.9 141.0 L 134.2297709465027 138.41433420181275 L 134.2 138.4 L 135.2 136.6 L 145.0 143.6 L 146.6 146.9 L 142.5918918609619 146.9 L 142.3 147.3 L 139.4 150.8 L 137.13252363204955 153.21376514434814 L 139.6 154.8 L 142.3 156.7 L 144.7 158.7 L 146.2 163.1 L 144.2 167.2 L 139.9 168.7 L 135.8 166.7 L 134.3 164.7 Z M 76.3 130.1 L 74.4 128.1 L 72.91779661178589 126.685169506073 L 72.3 127.2 L 68.5 129.9 L 64.5 132.3 L 60.3 134.4 L 56.0 136.2 L 51.5 137.7 L 50.7 136.1 L 54.3 133.2 L 57.6 130.3 L 60.8 127.3 L 63.9 124.3 L 66.35940856933594 121.48924732208252 L 64.2 120.0 L 60.9 118.0 L 57.5 115.9 L 53.7 114.2 L 54.2 112.5 L 58.4 113.2 L 62.5 113.9 L 66.4 114.8 L 70.1 115.9 L 70.74005289077759 116.13113021850586 L 71.9 114.6 L 74.2 111.1 L 76.3 107.5 L 77.8106803894043 104.70524129867553 L 77.8 104.7 L 78.8 102.9 L 88.6 110.0 L 90.1 113.3 L 86.1962025642395 113.23269309997559 L 85.7 113.9 L 82.6 117.6 L 80.04313726425171 120.3166666984558 L 80.2 120.4 L 83.1 122.2 L 85.9 124.3 L 88.5 126.5 L 89.8 130.9 L 87.8 135.0 L 83.4 136.3 L 79.3 134.3 L 77.9 132.2 Z M 132.7 130.1 L 130.8 128.1 L 129.40276765823364 126.76627826690674 L 129.0 127.1 L 125.3 129.8 L 121.4 132.2 L 117.4 134.4 L 113.1 136.2 L 108.8 137.7 L 108.0 136.1 L 111.4 133.3 L 114.6 130.3 L 117.7 127.3 L 120.6 124.3 L 122.93974981307983 121.61362056732177 L 120.6 120.0 L 117.3 118.0 L 113.9 115.9 L 110.1 114.2 L 110.6 112.5 L 114.8 113.2 L 118.9 113.9 L 122.8 114.8 L 126.5 115.9 L 127.203125 116.15390625 L 128.3 114.6 L 130.6 111.1 L 132.7 107.5 L 134.2106803894043 104.70524129867553 L 134.2 104.7 L 135.2 102.9 L 145.0 110.0 L 146.5 113.3 L 142.5962025642395 113.23269309997559 L 142.1 113.9 L 139.1 117.5 L 136.49807691574097 120.34585332870483 L 136.6 120.4 L 139.5 122.2 L 142.3 124.3 L 144.9 126.5 L 146.2 130.9 L 144.2 135.0 L 139.8 136.3 L 135.7 134.3 L 134.3 132.2 Z M 65.04375 75.1 L 71.7 84.1 L 71.9 87.7 L 68.37933130264283 86.26565351486207 L 67.1 87.1 L 62.4 89.9 L 57.5 92.6 L 52.4 95.1 L 48.23999996185303 97.01999998092651 L 48.6 97.2 L 94.0 97.2 L 94.0 75.1 Z M 180.8 71.1 L 180.8 75.1 L 106.0 75.1 L 106.0 97.2 L 151.3 97.2 L 156.6008264541626 92.78264465332032 L 153.7 91.3 L 148.8 89.0 L 143.5 86.6 L 137.7 84.3 L 131.6 81.8 L 125.2 79.1 L 125.6 77.4 L 132.6 78.1 L 139.2 79.1 L 145.5 80.4 L 151.3 81.8 L 156.8 83.4 L 162.0 85.1 L 166.8 86.9 L 171.3 88.9 L 175.4 91.0 L 179.2 93.3 L 181.5 97.3 L 180.4 101.7 L 176.4 104.0 L 172.0 102.9 L 169.2 100.6 L 166.0 98.3 L 162.3 95.9 L 160.7801724433899 95.04741382598877 L 168.3 101.2 L 163.3 105.2 L 163.3 171.0 L 163.2 173.5 L 162.7 176.0 L 161.9 178.4 L 160.7 180.7 L 159.0 182.7 L 157.0 184.4 L 154.8 185.6 L 152.3 186.4 L 149.9 186.8 L 147.3 187.0 L 147.3 181.0 L 135.3 178.0 L 135.3 175.0 L 147.3 175.0 L 148.5 174.9 L 149.4 174.7 L 150.0 174.6 L 150.4 174.4 L 150.5 174.2 L 150.7 174.0 L 150.9 173.7 L 151.1 173.1 L 151.2 172.2 L 151.3 171.0 L 151.3 101.2 L 106.0 101.2 L 106.0 178.0 L 94.0 184.0 L 94.0 101.2 L 48.6 101.2 L 48.6 180.1 L 36.6 186.1 L 36.6 101.59090909957885 L 36.3 101.7 L 30.5 103.6 L 24.6 105.1 L 18.5 106.4 L 17.9 104.7 L 23.2 101.6 L 28.5 98.6 L 33.5 95.7 L 36.6 93.96400003433227 L 36.6 91.2 L 39.16666669845581 92.48333330154419 L 43.3 89.9 L 47.9 87.0 L 52.3 84.0 L 56.5 80.9 L 60.6 77.7 L 63.72899503707886 75.13261947631835 L 63.7 75.1 L 19.1 75.1 L 19.1 71.1 L 158.8 71.1 L 165.74766359329223 64.15233640670776 L 160.0 62.4 L 152.1 59.6 L 144.5 56.5 L 137.1 53.1 L 130.0 49.4 L 123.2 45.3 L 116.8 40.9 L 110.8 36.1 L 106.0 31.55714282989502 L 106.0 57.6 L 94.0 63.6 L 94.0 37.41764707565308 L 91.9 38.9 L 84.7 43.3 L 77.1 47.4 L 69.2 51.2 L 60.9 54.6 L 52.3 57.7 L 43.3 60.4 L 33.9 62.7 L 24.2 64.5 L 14.1 65.9 L 13.8 64.1 L 23.3 60.9 L 32.4 57.6 L 41.2 54.2 L 49.5 50.6 L 57.5 46.8 L 65.0 42.9 L 72.2 38.7 L 78.9 34.3 L 82.84893617630004 31.4 L 20.0 31.4 L 20.0 27.4 L 94.0 27.4 L 94.0 13.8 L 106.0 15.8 L 109.0 17.8 L 106.0 19.6 L 106.0 27.4 L 158.0 27.4 L 168.0 17.4 L 180.0 27.4 L 180.0 31.4 L 110.62727270126342 31.4 L 113.1 32.6 L 119.8 35.9 L 126.6 39.0 L 133.6 41.8 L 140.7 44.5 L 148.0 46.9 L 155.5 49.1 L 163.2 51.0 L 171.1 52.7 L 179.2 54.1 L 188.5 55.9 L 176.7 67.0 L 175.53444814682007 66.71204013824463 Z " />
</g>
</svg>
