<svg xmlns="http://www.w3.org/2000/svg" xmlns:xlink="http://www.w3.org/1999/xlink" version="1.1" baseProfile="full" viewBox="0 0 200 200" width="200" height="200">
<g fill="black">
<path d="M 59.5 104.7 L 58.3 102.4 L 56.9 100.1 L 55.4 97.9 L 53.7 95.7 L 51.9 93.5 L 49.9 91.3 L 49.3 90.6714285850525 L 49.3 183.0 L 37.3 189.0 L 37.3 98.75862064361573 L 37.0 99.7 L 33.9 108.5 L 30.4 117.1 L 26.6 125.4 L 22.4 133.4 L 17.9 141.1 L 12.9 148.4 L 11.3 147.5 L 14.5 139.4 L 17.5 131.2 L 20.5 122.9 L 23.3 114.5 L 25.8 105.9 L 28.1 97.1 L 30.2 88.1 L 32.1 78.9 L 33.7 69.6 L 34.54418601989746 63.0 L 12.1 63.0 L 12.1 59.0 L 37.3 59.0 L 37.3 14.0 L 49.3 16.0 L 52.3 18.0 L 49.3 19.8 L 49.3 59.0 L 54.018181800842285 59.0 L 62.2 50.0 L 72.2 59.0 L 72.2 63.0 L 49.3 63.0 L 49.3 86.96451616287231 L 52.2 87.9 L 55.1 89.2 L 57.9 90.7 L 60.6 92.4 L 63.1 94.3 L 65.5 96.3 L 67.8 98.5 L 70.0 100.9 L 72.0 103.4 L 72.5 107.9 L 69.7 111.6 L 65.2 112.1 L 61.6 109.3 L 60.6 107.0 Z M 180.1 24.1 L 180.1 28.1 L 87.6 28.1 L 87.6 174.6 L 164.3 174.6 L 174.3 164.6 L 186.3 174.6 L 186.3 178.6 L 87.6 178.6 L 87.6 181.6 L 76.6 187.1 L 76.6 18.6 L 87.6 24.1 L 158.1 24.1 L 168.1 14.1 Z M 162.1 153.1 L 157.8 146.4 L 155.38064517974854 141.56129035949706 L 154.4 143.4 L 149.0 151.4 L 142.9 158.1 L 136.2 163.6 L 128.9 167.7 L 128.0 166.1 L 128.2235294342041 165.88823528289794 L 122.0 169.0 L 122.0 140.53428573608397 L 121.1 141.1 L 117.7 143.1 L 114.3 144.9 L 111.0 146.6 L 107.7 148.2 L 104.5 149.7 L 101.4 151.0 L 99.59241819381714 151.78328542709352 L 98.2 155.9 L 95.5 153.6 L 90.4 142.5 L 92.3 142.0 L 95.3 141.5 L 98.0 141.0645161628723 L 98.0 73.2 L 92.5 73.2 L 92.5 69.2 L 110.0 69.2 L 110.0 48.1 L 95.5 48.1 L 95.5 44.1 L 120.81818180084228 44.1 L 129.0 35.1 L 139.0 44.1 L 139.0 48.1 L 122.0 48.1 L 122.0 69.2 L 124.31818180084228 69.2 L 132.5 60.2 L 142.5 69.2 L 142.5 73.2 L 134.0 73.2 L 134.0 160.34807691574096 L 138.9 154.6 L 143.6 147.6 L 147.7 139.8 L 151.16295261383056 131.65738162994384 L 150.9 131.0 L 148.3 122.3 L 146.2 113.0 L 144.8 103.0 L 144.0 92.4 L 144.0 90.4 L 141.0 95.8 L 137.6 100.8 L 136.0 100.1 L 139.0 88.5 L 140.5 82.5 L 142.0 76.4 L 143.3 70.1 L 144.6 63.6 L 145.7 57.0 L 146.8 50.1 L 147.7 43.0 L 148.38991823196412 36.704495906829834 L 148.3 36.7 L 148.7 33.7 L 160.3 37.3 L 163.0 39.7 L 159.57451410293578 41.18653163909912 L 158.9 44.8 L 157.3 52.1 L 155.6 59.1 L 153.6 65.8 L 152.1045454978943 70.5 L 165.9777777671814 70.5 L 172.2 63.5 L 180.2 70.5 L 180.2 74.5 L 173.6111110687256 74.5 L 172.1 87.3 L 169.8 100.7 L 166.9 112.9 L 163.4 124.2 L 160.9607014656067 130.12401075363158 L 163.2 134.3 L 167.1 140.5 L 171.4 145.8 L 175.9 150.3 L 180.7 154.1 L 183.5 156.3 L 172.6 164.5 L 167.1 159.2 Z M 109.0 118.8 L 109.0 139.0666666984558 L 112.0 138.4 L 115.7 137.7 L 119.6 136.9 L 122.0 136.4800000190735 L 122.0 118.8 Z M 150.73333330154418 74.5 L 149.2 78.7 L 146.7 84.7 L 146.61748943328857 84.87418899536132 L 148.1 91.9 L 150.6 101.9 L 153.3 111.2 L 155.4548536300659 117.51595039367676 L 157.2 110.6 L 159.2 98.8 L 160.8 86.0 L 161.62733812332152 74.5 Z M 109.0 96.0 L 109.0 114.8 L 122.0 114.8 L 122.0 96.0 Z M 109.0 73.2 L 109.0 92.0 L 122.0 92.0 L 122.0 73.2 Z " />
</g>
</svg>
