<svg xmlns="http://www.w3.org/2000/svg" xmlns:xlink="http://www.w3.org/1999/xlink" version="1.1" baseProfile="full" viewBox="0 0 200 200" width="200" height="200">
<g fill="black">
<path d="M 53.6 102.0 L 52.5 99.8 L 51.3 97.7 L 50.0 95.5 L 48.5 93.4 L 47.5 92.025 L 47.5 183.0 L 35.5 189.0 L 35.5 103.63214282989502 L 34.0 108.4 L 30.9 116.9 L 27.6 125.3 L 23.9 133.3 L 19.9 141.0 L 15.5 148.3 L 13.8 147.6 L 16.4 139.5 L 21.4 123.1 L 23.7 114.6 L 25.8 106.0 L 27.8 97.3 L 29.5 88.3 L 31.0 79.1 L 32.4 69.7 L 33.09310340881348 63.0 L 14.7 63.0 L 14.7 59.0 L 35.5 59.0 L 35.5 14.0 L 47.5 16.0 L 50.5 18.0 L 47.5 19.8 L 47.5 59.0 L 52.077777767181395 59.0 L 58.3 52.0 L 66.3 59.0 L 66.3 63.0 L 47.5 63.0 L 47.5 87.3259259223938 L 49.4 88.1 L 52.0 89.4 L 54.5 91.0 L 56.8 92.7 L 59.1 94.5 L 61.2 96.6 L 63.3 98.8 L 65.2 101.1 L 67.0 103.6 L 67.2 108.2 L 64.2 111.6 L 59.7 111.9 L 56.2 108.9 L 54.6 104.3 Z M 73.7 157.2 L 75.4 157.15641021728516 L 75.4 130.7 L 87.4 132.7 L 90.4 134.7 L 87.4 136.5 L 87.4 156.4380952835083 L 89.9 156.2 L 94.2 155.8 L 98.6 155.3 L 100.7 155.0666666984558 L 100.7 126.1 L 111.7 128.1 L 114.4 130.1 L 111.7 131.82340421676636 L 111.7 153.86666669845582 L 112.5 153.8 L 117.3 153.2 L 117.8 154.9 L 111.58428831100464 157.86658964157104 L 110.9 162.4 L 109.3 167.3 L 106.7 171.7 L 103.3 175.6 L 99.2 179.0 L 94.5 181.9 L 89.1 184.3 L 83.0 186.3 L 76.3 187.7 L 68.8 188.7 L 68.5 187.1 L 75.3 184.5 L 81.3 181.7 L 86.5 178.9 L 90.9 176.0 L 94.4 173.0 L 97.0 170.0 L 98.9 166.9 L 100.1 163.8 L 100.36548671722412 162.33982305526735 L 100.2 162.4 L 95.9 163.8 L 91.6 165.1 L 87.4 166.3 L 83.2 167.4 L 79.16342935562133 168.2860764503479 L 77.3 171.9 L 75.0 169.2 L 71.7 157.4 Z M 165.5 180.9 L 160.8 176.4 L 158.9728066444397 174.21628112792968 L 158.7 174.5 L 153.3 179.0 L 147.3 182.8 L 140.9 185.8 L 134.0 188.0 L 133.3 186.3 L 139.1 182.5 L 144.3 178.4 L 149.0 174.0 L 153.2 169.3 L 154.27167644500733 167.822824382782 L 153.2 166.2 L 150.2 160.6 L 147.7 154.6 L 145.9 148.2 L 144.7 141.5 L 144.35070419311523 135.3 L 135.7 135.3 L 135.7 131.3 L 168.5 131.3 L 174.5 126.3 L 185.5 135.3 L 180.5 138.3 L 179.16277713775634 138.8571762084961 L 178.1 142.6 L 175.3 150.1 L 172.0 157.1 L 168.1 163.5 L 166.03728551864623 166.21903276443481 L 168.4 168.4 L 172.7 171.5 L 177.3 174.3 L 182.2 176.7 L 187.5 179.4 L 176.2 188.4 L 170.6 184.9 Z M 102.4 69.5 L 101.4 66.5 L 100.7 64.8 L 99.9 63.1 L 98.9 61.4 L 97.9 59.5 L 96.7 57.6 L 95.0 56.1 L 96.1 54.6 L 98.1 55.9 L 100.2 56.8 L 102.3 57.8 L 104.2 58.9 L 106.1 60.1 L 107.8 61.4 L 109.4 62.7 L 111.0 64.1 L 112.4 65.6 L 113.7 67.2 L 113.8 71.7 L 110.88571424484253 75.1 L 137.2166666984558 75.1 L 137.0 74.9 L 138.5 72.8 L 139.6 70.3 L 140.7 68.0 L 142.9 63.6 L 144.9 59.4 L 145.9 57.4 L 146.8 55.5 L 147.21035594940184 54.52540454864502 L 147.0 54.4 L 148.1 52.9 L 157.4 60.6 L 158.6 64.0 L 153.996439743042 63.603141403198244 L 152.3 65.1 L 150.5 66.7 L 148.6 68.2 L 146.6 69.7 L 144.6 71.3 L 142.5 72.8 L 140.3 74.3 L 139.41111106872557 75.1 L 162.4181818008423 75.1 L 170.6 66.1 L 180.6 75.1 L 180.6 79.1 L 131.8 79.1 L 131.8 94.3 L 157.01818180084229 94.3 L 165.2 85.3 L 175.2 94.3 L 175.2 98.3 L 131.8 98.3 L 131.8 112.8 L 166.4181818008423 112.8 L 174.6 103.8 L 184.6 112.8 L 184.6 116.8 L 131.8 116.8 L 131.8 182.9 L 120.8 188.4 L 120.8 116.8 L 69.3 116.8 L 69.3 112.8 L 120.8 112.8 L 120.8 98.3 L 78.7 98.3 L 78.7 94.3 L 120.8 94.3 L 120.8 79.1 L 73.4 79.1 L 73.4 75.1 L 105.97333335876465 75.1 L 102.8 72.3 L 102.7 70.9 Z M 146.61428575515748 135.3 L 148.8 140.4 L 151.5 146.2 L 154.3 151.6 L 157.4 156.4 L 159.68138971328736 159.41948642730713 L 160.1 158.7 L 162.9 152.8 L 165.3 146.4 L 167.2 139.5 L 167.9945945739746 135.3 Z M 65.8 48.9 L 108.6 48.9 L 108.6 12.5 L 119.6 14.5 L 122.3 16.5 L 119.6 18.223404216766358 L 119.6 48.9 L 132.4 48.9 L 132.4 12.5 L 143.4 14.5 L 146.1 16.5 L 143.4 18.223404216766358 L 143.4 48.9 L 150.51081085205078 48.9 L 151.7 46.7 L 153.4 43.0 L 155.1 39.5 L 156.7 36.1 L 158.2 32.8 L 159.7 29.6 L 161.0 26.6 L 162.2 23.7 L 163.3 20.8 L 163.88842105865479 19.034736824035644 L 163.8 19.0 L 164.1 18.4 L 164.2 18.1 L 164.24014873504638 18.11970262527466 L 164.8 17.0 L 175.0 23.4 L 176.8 26.6 L 172.62416200637819 26.88798885345459 L 171.3 28.7 L 169.3 31.5 L 167.1 34.2 L 164.8 37.0 L 162.4 39.8 L 159.8 42.7 L 157.1 45.6 L 154.1 48.4 L 153.61666669845582 48.9 L 164.2 48.9 L 174.2 38.9 L 186.2 48.9 L 186.2 52.9 L 65.8 52.9 Z M 87.8 38.3 L 87.4 36.0 L 86.9 33.7 L 86.2 31.4 L 85.3 29.0 L 84.3 26.6 L 83.1 24.1 L 81.7 21.4 L 79.9 19.1 L 81.1 17.8 L 83.5 19.7 L 86.1 21.5 L 88.5 23.4 L 90.7 25.5 L 92.6 27.7 L 94.5 30.0 L 96.1 32.4 L 97.5 35.0 L 98.8 37.7 L 99.8 40.5 L 98.8 45.0 L 95.0 47.5 L 90.5 46.5 L 88.0 42.7 L 88.0 40.5 Z " />
</g>
</svg>
