<svg xmlns="http://www.w3.org/2000/svg" xmlns:xlink="http://www.w3.org/1999/xlink" version="1.1" baseProfile="full" viewBox="0 0 200 200" width="200" height="200">
<g fill="black">
<path d="M 162.1 172.7 L 153.9 168.7 L 146.0 164.4 L 138.5 160.0 L 131.3 155.3 L 124.5 150.3 L 118.0 145.1 L 112.1 139.5 L 107.5 134.3888889312744 L 107.5 181.7 L 95.5 187.7 L 95.5 141.334375 L 94.4 142.4 L 87.4 148.2 L 79.9 153.7 L 72.0 158.8 L 63.5 163.6 L 54.5 168.0 L 45.0 172.0 L 35.0 175.5 L 24.5 178.6 L 13.4 181.2 L 12.9 179.5 L 23.2 175.1 L 33.0 170.6 L 42.3 166.0 L 51.0 161.2 L 59.2 156.2 L 66.9 151.1 L 74.0 145.7 L 80.5 140.0 L 86.5 134.2 L 18.2 134.2 L 18.2 130.2 L 95.5 130.2 L 95.5 118.0 L 107.5 120.0 L 110.5 122.0 L 107.5 123.8 L 107.5 130.2 L 162.7 130.2 L 172.7 120.2 L 184.7 130.2 L 184.7 134.2 L 111.38292684555054 134.2 L 121.5 140.3 L 128.4 144.3 L 135.6 148.1 L 143.0 151.8 L 150.6 155.3 L 158.5 158.6 L 166.6 161.8 L 175.1 164.8 L 183.8 167.5 L 191.1 170.0 L 179.5 180.0 L 170.6 176.5 Z M 80.4 108.2 L 78.3 106.1 L 75.8 104.0 L 73.0 101.8 L 70.0 99.6 L 66.6 97.3 L 62.9 95.0 L 58.9 92.6 L 58.12421283721924 92.20308561325074 L 55.4 97.3 L 51.4 102.6 L 46.5 107.2 L 40.8 111.2 L 34.3 114.6 L 27.0 117.4 L 19.0 119.5 L 18.4 117.8 L 25.5 113.9 L 31.7 109.9 L 37.0 105.9 L 41.3 101.7 L 44.8 97.3 L 47.4 92.8 L 49.063829803466795 88.2 L 18.7 88.2 L 18.7 84.2 L 49.9579999923706 84.2 L 50.2 83.1 L 50.5 77.9 L 50.0 72.3 L 50.006201553344724 72.29948320388795 L 49.8 70.1 L 62.0 71.3 L 65.1 73.0 L 61.88663196563721 75.32456407546997 L 61.8 78.4 L 60.86176471710205 84.2 L 78.0 84.2 L 88.0 74.2 L 100.0 84.2 L 100.0 88.2 L 59.65238094329834 88.2 L 59.160808372497556 89.6076852798462 L 60.0 89.8 L 64.6 90.8 L 69.0 92.0 L 73.1 93.4 L 76.9 94.8 L 80.5 96.4 L 83.9 98.2 L 87.0 100.0 L 89.9 102.0 L 92.6 104.1 L 94.1 108.4 L 92.3 112.6 L 88.0 114.1 L 83.8 112.3 L 82.3 110.3 Z M 168.7 98.6 L 168.8 99.2 L 168.9 99.4 L 168.9 99.6 L 169.2 99.9 L 169.8 100.1 L 170.7 100.3 L 172.0 100.5 L 176.5 100.5 L 182.0 79.5 L 184.0 79.5 L 182.0 100.5 L 185.3 102.7 L 187.5 106.0 L 185.3 109.3 L 182.0 111.5 L 172.0 111.5 L 169.4 111.4 L 167.0 111.0 L 164.6 110.2 L 162.4 109.0 L 160.4 107.3 L 158.8 105.3 L 157.7 103.0 L 157.1 100.5 L 156.8 98.0 L 156.8 95.5 L 160.73092784881592 49.0 L 130.88157892227173 49.0 L 126.37866668701172 97.88876190185547 L 129.1 97.5 L 134.9 96.7 L 141.0 96.0 L 147.2 95.5 L 153.8 95.1 L 154.1 96.8 L 148.1 99.2 L 142.1 101.3 L 136.3 103.2 L 130.8 104.9 L 125.3 106.5 L 120.1 108.1 L 115.1 109.6 L 110.3 111.0 L 105.6 112.3 L 105.23249044418336 112.40858240127564 L 103.8 116.1 L 101.2 113.6 L 96.7 102.3 L 98.7 101.9 L 103.2 101.2 L 108.0 100.5 L 113.0 99.8 L 114.11848049163818 99.6279260635376 L 120.80789470672607 27.0 L 103.0 27.0 L 103.0 23.0 L 161.0 23.0 L 171.0 13.0 L 183.0 23.0 L 183.0 27.0 L 132.90789470672607 27.0 L 131.25 45.0 L 161.0 45.0 L 167.0 40.0 L 178.0 49.0 L 173.0 52.0 L 171.70035333633422 52.541519451141355 L 168.8 96.5 L 168.7 97.7 Z M 139.3 76.6 L 139.0 74.7 L 138.6 72.8 L 138.0 70.9 L 137.2 69.0 L 136.3 67.0 L 135.2 65.0 L 134.0 62.9 L 132.2 61.3 L 133.3 59.8 L 135.4 61.2 L 137.8 62.3 L 140.0 63.6 L 142.1 65.1 L 144.0 66.8 L 145.8 68.7 L 147.4 70.7 L 148.8 72.9 L 150.1 75.3 L 151.2 77.8 L 150.3 82.2 L 146.6 84.9 L 142.1 84.0 L 139.5 80.3 L 139.4 78.4 Z M 74.2 63.5 L 82.2 63.5 L 83.2 63.4 L 83.8 63.3 L 84.2 63.1 L 84.5 63.0 L 84.6 62.8 L 84.8 62.6 L 85.0 62.1 L 85.2 61.4 L 85.4 60.3 L 85.5 59.0 L 85.5 38.0 L 73.0 38.0 L 73.0 66.5 L 63.0 71.5 L 63.0 38.0 L 51.0 38.0 L 51.0 66.5 L 41.0 71.5 L 41.0 38.0 L 30.5 38.0 L 30.5 67.2 L 19.5 72.7 L 19.5 28.5 L 30.5 34.0 L 47.25 34.0 L 47.5 33.5 L 48.3 32.0 L 49.0 30.5 L 49.6 29.1 L 50.2 27.6 L 50.41428575515747 27.0 L 18.0 27.0 L 18.0 23.0 L 80.81818180084228 23.0 L 89.0 14.0 L 99.0 23.0 L 99.0 27.0 L 63.1 27.0 L 60.8 29.3 L 59.4 30.6 L 56.4 32.8 L 54.8 33.8 L 54.444444465637204 34.0 L 85.5 34.0 L 91.0 29.0 L 101.5 38.0 L 96.5 41.5 L 96.5 59.0 L 96.3 61.4 L 96.0 63.7 L 95.3 66.0 L 94.3 68.1 L 92.9 70.1 L 91.1 71.7 L 89.1 73.0 L 86.9 73.8 L 84.6 74.3 L 82.2 74.5 L 82.2 69.0 L 74.2 66.2 Z " />
</g>
</svg>
