<svg xmlns="http://www.w3.org/2000/svg" xmlns:xlink="http://www.w3.org/1999/xlink" version="1.1" baseProfile="full" viewBox="0 0 200 200" width="200" height="200">
<g fill="black">
<path d="M 164.1 135.1 L 160.5052098274231 133.7020260810852 L 160.2 133.9 L 156.4 136.2 L 152.5 138.6 L 148.3 140.9 L 144.0 143.2 L 139.5 145.5 L 134.8 147.7 L 129.9 149.8 L 124.8 151.8 L 120.2868525505066 153.3043825149536 L 120.8 153.9 L 127.4 159.4 L 135.1 164.1 L 143.9 168.0 L 153.9 171.2 L 165.1 173.5 L 177.6 174.9 L 188.1 176.0 L 176.3 188.1 L 162.8 185.8 L 150.6 182.5 L 139.6 178.2 L 129.9 173.0 L 121.6 166.7 L 114.6 159.4 L 109.1 151.3 L 105.2 142.3 L 103.56378374099731 135.6187837600708 L 102.3 140.2 L 97.3 150.6 L 90.4 159.9 L 81.9 167.8 L 71.8 174.5 L 60.2 179.9 L 47.0 184.1 L 32.3 186.9 L 16.1 188.5 L 15.8 186.8 L 31.5 183.2 L 45.4 178.9 L 57.6 173.9 L 67.9 168.0 L 76.5 161.3 L 83.3 153.9 L 88.5 145.7 L 92.1 136.7 L 94.3 126.7 L 94.9 115.8 L 94.92939739227295 115.80048999786376 L 95.0 113.4 L 106.9 116.0 L 109.9 118.0 L 106.45581951141358 119.99762468338012 L 105.64089632034302 127.33193273544312 L 106.9 131.5 L 110.6 140.0 L 115.2 147.4 L 118.89703168869019 151.69119758605956 L 123.0 148.5 L 127.3 145.2 L 131.5 142.1 L 135.6 139.0 L 139.5 136.1 L 143.2 133.2 L 146.8 130.3 L 150.2 127.5 L 153.4 124.8 L 155.711425113678 122.71226110458375 L 155.7 122.7 L 156.5 122.0 L 163.9 131.5 Z M 35.2 158.2 L 35.1 153.6 L 38.1 150.2 L 41.5 148.8 L 44.6 147.3 L 47.5 145.4 L 50.1 143.3 L 52.6 141.0 L 54.8 138.3 L 56.9 135.2 L 58.8 131.9 L 60.6 128.1 L 61.9 124.0 L 63.7 124.2 L 63.6 128.8 L 63.2 133.2 L 62.3 137.5 L 61.0 141.6 L 59.1 145.5 L 56.8 149.2 L 54.0 152.6 L 50.8 155.7 L 47.2 158.6 L 43.2 161.1 L 38.6 161.2 Z M 164.2 107.2 L 157.7 102.6 L 152.0 97.7 L 147.2 92.4 L 143.3 86.8 L 140.3 80.8 L 138.4 74.6 L 137.97780818939208 71.22246570587158 L 135.5 78.0 L 130.8 86.3 L 124.9 93.6 L 117.8 100.0 L 109.7 105.3 L 100.5 109.6 L 90.2 112.8 L 78.9 114.9 L 78.5 113.2 L 89.0 109.2 L 98.2 104.7 L 106.2 99.7 L 112.9 94.2 L 118.5 88.1 L 122.9 81.4 L 126.2 74.1 L 128.5 66.1 L 129.8 57.3 L 130.0 47.8 L 130.0 45.4 L 142.0 47.8 L 145.0 49.8 L 141.6666666984558 51.8 L 141.1 58.6 L 140.19866333007812 62.73795461654663 L 141.7 67.4 L 144.0 72.7 L 146.8 77.5 L 150.1 82.0 L 154.1 86.1 L 158.7 90.0 L 164.0 93.6 L 170.0 96.9 L 176.8 99.9 L 184.4 102.7 L 191.3 105.3 L 179.8 115.1 L 171.6 111.3 Z M 76.5 97.9 L 74.0 95.3 L 71.4 92.6 L 68.6 90.0 L 65.7 87.4 L 62.6 84.8 L 59.3 82.1 L 55.9 79.4 L 55.44954776763916 79.07467336654663 L 55.4 79.2 L 50.9 87.1 L 45.4 94.3 L 38.9 100.6 L 31.5 106.1 L 23.1 110.7 L 13.8 114.3 L 13.0 112.7 L 21.2 107.4 L 28.3 101.8 L 34.4 95.9 L 39.5 89.6 L 43.6 82.8 L 46.8 75.6 L 49.1 67.9 L 50.5 59.6 L 51.0 50.7 L 50.73143711090088 42.19550895690918 L 50.7 42.2 L 50.50606060028076 39.0 L 39.170967769622806 39.0 L 37.2 43.7 L 34.2 49.5 L 31.0 54.9 L 27.5 59.7 L 23.6 63.9 L 19.4 67.5 L 14.9 70.5 L 13.8 69.1 L 16.7 64.9 L 19.4 60.6 L 22.0 56.0 L 24.4 51.2 L 26.5 45.9 L 28.5 40.3 L 30.3 34.4 L 31.8 28.0 L 33.1 21.2 L 34.04662857055664 15.003885746002197 L 34.0 15.0 L 34.5 12.0 L 46.0 16.0 L 48.6 18.5 L 45.08405799865723 19.867310810089112 L 44.2 23.6 L 42.2 30.8 L 40.69552240371704 35.0 L 84.2 35.0 L 90.2 30.0 L 101.2 39.0 L 96.2 42.0 L 93.67889909744262 43.05045871734619 L 91.9 46.1 L 90.4 48.5 L 88.8 50.9 L 87.1 53.3 L 85.3 55.7 L 83.4 58.0 L 81.3 60.3 L 79.4 62.8 L 77.9 61.8 L 79.1 59.1 L 79.8 56.1 L 80.6 53.3 L 81.3 50.5 L 82.0 47.8 L 83.2 42.6 L 83.7 40.1 L 83.87600002288818 39.0 L 51.25625 39.0 L 62.6 40.5 L 65.7 42.4 L 62.524921131134036 44.51671924591064 L 62.4 51.2 L 61.1 61.2 L 58.8 70.6 L 56.5387638092041 76.31959753036499 L 57.4 76.6 L 61.6 78.0 L 65.7 79.7 L 69.6 81.5 L 73.3 83.5 L 76.8 85.6 L 80.3 87.8 L 83.6 90.1 L 86.7 92.6 L 89.7 95.1 L 91.2 99.4 L 89.4 103.6 L 85.0 105.1 L 80.9 103.3 L 78.8 100.6 Z M 136.6 18.1 L 138.8 21.0 L 134.9283881187439 21.747153186798094 L 134.4 22.9 L 131.8 27.4 L 128.9 31.9 L 125.7 36.1 L 123.15365858078003 39.0 L 171.4 39.0 L 172.18823528289795 38.34313726425171 L 173.0 36.9 L 173.42893886566162 37.30921754837036 L 177.4 34.0 L 188.4 43.0 L 183.4 46.0 L 175.9333333015442 49.111111068725585 L 175.8 49.2 L 173.4 50.6 L 170.9 52.1 L 168.2 53.7 L 165.3 55.3 L 162.1 57.0 L 158.7 58.7 L 155.4 60.7 L 154.3 59.3 L 157.1 56.6 L 159.6 53.8 L 161.9 51.1 L 164.0 48.6 L 166.0 46.3 L 167.8 44.1 L 168.68000001907347 43.0 L 119.3 43.0 L 118.2 44.1 L 113.9 47.8 L 109.3 51.2 L 104.3 54.4 L 99.0 57.3 L 97.9 55.8 L 102.0 51.5 L 105.8 47.2 L 109.3 43.1 L 112.6 39.0 L 115.5 34.9 L 118.1 30.7 L 120.4 26.6 L 122.3 22.5 L 124.0 18.3 L 125.01979150772095 15.005289077758789 L 125.0 15.0 L 125.12272729873658 14.672727298736572 L 125.3 14.1 L 125.33310546875 14.11171875 L 125.9 12.6 Z " />
</g>
</svg>
