<svg xmlns="http://www.w3.org/2000/svg" xmlns:xlink="http://www.w3.org/1999/xlink" version="1.1" baseProfile="full" viewBox="0 0 200 200" width="200" height="200">
<g fill="black">
<path d="M 166.1 171.3 L 160.8 163.7 L 156.2 155.3 L 152.2 146.2 L 148.8 136.3 L 146.2 125.6 L 144.4 114.3 L 143.9645824432373 107.71430969238281 L 141.2 120.8 L 137.2 133.9 L 132.1 145.9 L 125.9 156.9 L 118.6 166.7 L 110.3 175.3 L 101.0 182.6 L 90.6 188.7 L 89.7 187.1 L 98.6 179.7 L 106.5 171.5 L 113.4 162.7 L 119.4 153.0 L 124.4 142.4 L 128.4 130.9 L 131.4 118.5 L 133.6 105.1 L 134.7 90.7 L 134.9 75.3 L 134.9 67.3 L 146.9 69.3 L 149.9 71.3 L 146.9 73.1 L 146.9 75.3 L 146.1 91.5 L 146.0399782180786 91.977015209198 L 147.7 101.7 L 150.2 113.2 L 153.2 123.8 L 156.7 133.6 L 160.7 142.4 L 165.1 150.4 L 170.0 157.5 L 175.1 163.7 L 180.6 169.1 L 186.3 173.6 L 189.1 175.8 L 178.2 184.1 L 171.9 178.1 Z M 34.9 179.7 L 22.9 185.7 L 22.9 139.0 L 34.9 141.0 L 37.9 143.0 L 34.9 144.8 L 34.9 168.7 L 55.7 168.7 L 55.7 132.6 L 13.7 132.6 L 13.7 128.6 L 55.7 128.6 L 55.7 104.6 L 37.72926826477051 104.6 L 37.4 105.1 L 34.6 109.0 L 31.6 112.8 L 28.3 116.4 L 24.9 119.7 L 21.1 122.9 L 17.1 125.8 L 15.9 124.5 L 18.5 120.5 L 23.3 112.5 L 25.5 108.6 L 27.6 104.6 L 29.5 100.6 L 31.2 96.6 L 32.7 92.4 L 34.1 88.3 L 34.23899927139282 87.8019190788269 L 25.5 90.4 L 13.9 92.8 L 13.5 91.1 L 24.3 86.8 L 34.5 82.1 L 44.1 77.1 L 53.1 71.6 L 61.4 65.6 L 69.1 59.0 L 76.3 52.0 L 82.8 44.4 L 88.7 36.3 L 90.89767446517945 32.8 L 56.70217390060425 32.8 L 55.3 34.3 L 50.6 38.6 L 49.055696201324466 39.83544301986694 L 51.0 40.2 L 53.9 40.8 L 56.7 41.5 L 59.3 42.3 L 61.7 43.1 L 63.9 44.0 L 66.0 45.0 L 67.9 46.0 L 69.8 47.2 L 71.3 51.5 L 69.4 55.7 L 65.1 57.2 L 60.9 55.4 L 60.4 54.3 L 59.7 53.0 L 58.6 51.7 L 57.3 50.2 L 55.7 48.7 L 53.8 47.1 L 51.7 45.4 L 49.4 43.7 L 46.9 41.8 L 46.715384578704835 41.707692337036136 L 45.6 42.6 L 40.3 46.5 L 34.7 50.1 L 33.91184511184692 50.53348522186279 L 35.2 50.8 L 37.9 51.4 L 40.5 52.2 L 45.3 54.0 L 49.7 56.2 L 51.7 57.5 L 53.6 58.8 L 55.1 63.1 L 53.2 67.3 L 48.9 68.8 L 44.7 66.9 L 43.9 65.4 L 43.0 64.0 L 41.8 62.4 L 40.5 60.9 L 39.0 59.3 L 37.3 57.6 L 35.5 55.9 L 33.5 54.2 L 31.3 52.4 L 30.912612628936767 52.18306303024292 L 28.7 53.4 L 22.4 56.3 L 15.8 58.9 L 15.0 57.3 L 20.5 53.1 L 25.8 48.9 L 30.8 44.7 L 35.6 40.5 L 40.0 36.3 L 44.1 31.9 L 47.9 27.5 L 51.3 23.0 L 54.5 18.3 L 56.817801570892335 14.40940456390381 L 56.8 14.4 L 57.8 12.8 L 67.4 20.0 L 68.9 23.3 L 65.00766086578369 23.232890701293947 L 63.7 25.0 L 60.38510637283325 28.8 L 93.2 28.8 L 93.63902435302734 28.434146308898924 L 94.1 27.7 L 94.34385566711425 27.846786880493163 L 99.2 23.8 L 110.2 32.8 L 105.2 35.8 L 102.1782382965088 37.05906734466553 L 98.0 43.0 L 91.0 51.4 L 83.4 59.1 L 75.1 66.1 L 66.4 72.5 L 57.0 78.1 L 47.1 82.9 L 41.23871631622315 85.24451341629029 L 46.7 87.9 L 48.9 90.8 L 45.05096778869629 91.61032257080078 L 44.7 92.4 L 42.5 96.8 L 40.32857141494751 100.6 L 78.6 100.6 L 88.6 90.6 L 100.6 100.6 L 100.6 104.6 L 67.7 104.6 L 67.7 128.6 L 87.6 128.6 L 97.6 118.6 L 109.6 128.6 L 109.6 132.6 L 67.7 132.6 L 67.7 168.7 L 88.4 168.7 L 88.4 139.0 L 100.4 141.0 L 103.4 143.0 L 100.4 144.8 L 100.4 172.7 L 88.4 178.7 L 88.4 172.7 L 34.9 172.7 Z M 137.3 17.9 L 140.0 20.3 L 136.49071235656737 21.794696617126466 L 135.7 25.6 L 133.7 33.3 L 131.4 41.1 L 128.7 49.0 L 126.65949363708496 54.2 L 172.5 54.2 L 178.5 49.2 L 189.5 58.2 L 184.5 61.2 L 182.4011583328247 62.07451734542847 L 182.1 62.7 L 180.5 65.6 L 178.6 68.8 L 176.4 72.2 L 173.9 75.8 L 171.1 79.7 L 167.9 83.8 L 164.3 88.2 L 160.5 92.9 L 159.0 91.9 L 161.6 86.5 L 163.8 81.4 L 165.9 76.7 L 167.7 72.4 L 169.3 68.4 L 170.6 64.9 L 171.5 61.8 L 172.2 59.1 L 172.35652170181274 58.2 L 125.04050636291504 58.2 L 122.2 64.8 L 118.3 72.8 L 114.1 80.9 L 109.3 88.9 L 104.1 96.9 L 102.5 96.0 L 106.0 87.2 L 109.2 78.6 L 112.3 70.3 L 115.1 62.1 L 117.6 54.1 L 119.8 46.2 L 121.7 38.5 L 123.3 30.9 L 124.5 23.4 L 125.4 16.1 L 125.43267431259156 16.104942321777344 L 125.7 14.1 Z " />
</g>
</svg>
