<svg xmlns="http://www.w3.org/2000/svg" xmlns:xlink="http://www.w3.org/1999/xlink" version="1.1" baseProfile="full" viewBox="0 0 200 200" width="200" height="200">
<g fill="black">
<path d="M 58.5 104.7 L 57.3 102.4 L 55.9 100.1 L 54.4 97.9 L 52.7 95.7 L 50.9 93.5 L 48.9 91.3 L 48.3 90.6714285850525 L 48.3 183.0 L 36.3 189.0 L 36.3 98.75862064361573 L 36.0 99.7 L 32.9 108.5 L 29.4 117.1 L 25.6 125.4 L 21.4 133.4 L 16.9 141.1 L 11.9 148.4 L 10.3 147.5 L 13.5 139.4 L 16.5 131.2 L 19.5 122.9 L 22.3 114.5 L 24.8 105.9 L 27.1 97.1 L 29.2 88.1 L 31.1 78.9 L 32.7 69.6 L 33.54418601989746 63.0 L 11.1 63.0 L 11.1 59.0 L 36.3 59.0 L 36.3 14.0 L 48.3 16.0 L 51.3 18.0 L 48.3 19.8 L 48.3 59.0 L 53.018181800842285 59.0 L 61.2 50.0 L 71.2 59.0 L 71.2 63.0 L 48.3 63.0 L 48.3 86.96451616287231 L 51.2 87.9 L 54.1 89.2 L 56.9 90.7 L 59.6 92.4 L 62.1 94.3 L 64.5 96.3 L 66.8 98.5 L 69.0 100.9 L 71.0 103.4 L 71.5 107.9 L 68.7 111.6 L 64.2 112.1 L 60.6 109.3 L 59.6 107.0 Z M 97.5 168.9 L 96.1 164.5 L 98.2 160.4 L 99.3 159.9 L 100.5 159.2 L 101.7 158.1 L 102.9 156.7 L 104.1 155.0 L 105.3 153.0 L 106.4 150.7 L 107.4 148.1 L 108.5 145.1 L 109.0 141.9 L 110.8 142.0 L 110.8 145.3 L 111.3 148.6 L 111.4 151.6 L 111.4 154.6 L 111.1 157.4 L 110.6 160.1 L 109.8 162.7 L 108.8 165.1 L 107.6 167.4 L 105.9 169.6 L 101.6 170.9 Z M 170.1 159.3 L 165.9 156.9 L 161.7 154.1 L 158.33225803375245 151.48999996185302 L 159.5 153.3 L 154.9644549369812 153.84739332199098 L 153.2 156.2 L 151.6 158.1 L 149.9 160.1 L 148.2 162.0 L 146.3 163.8 L 144.3 165.7 L 142.47493734359742 167.11027565002442 L 147.2 168.5 L 152.0 170.0 L 156.5 171.6 L 160.7 173.2 L 164.6 174.8 L 168.2 176.5 L 171.5 178.3 L 174.0 182.1 L 173.1 186.6 L 169.3 189.1 L 164.8 188.2 L 162.3 186.3 L 159.4 184.2 L 156.2 182.1 L 152.6 179.9 L 148.7 177.7 L 144.4 175.4 L 139.8 173.0 L 134.9 170.6 L 129.6 167.9 L 126.34496641159058 166.24289197921752 L 124.6 168.9 L 119.1 174.7 L 112.6 179.5 L 105.2 183.4 L 96.9 186.2 L 87.7 188.0 L 77.6 188.8 L 77.4 187.1 L 86.8 184.3 L 95.1 181.1 L 102.2 177.5 L 108.3 173.3 L 113.2 168.7 L 117.1 163.5 L 120.0 157.8 L 122.0 151.6 L 123.2 144.6 L 123.46121635437012 137.89544668197632 L 123.4 137.9 L 123.5 134.5 L 135.5 137.0 L 138.4 139.1 L 135.06125288009645 141.03647327423096 L 134.5 146.2 L 132.3 154.6 L 129.0 162.2 L 127.83501510620117 163.97395429611205 L 130.8 164.5 L 136.6 165.7 L 139.97517433166504 166.49776849746704 L 140.2 166.1 L 141.1 163.5 L 142.0 161.0 L 142.8 158.6 L 143.6 156.3 L 144.3 154.0 L 145.0 151.8 L 145.6 149.7 L 146.1 147.6 L 146.31492538452147 146.47164182662965 L 146.1 146.4 L 146.49344263076782 145.5344262123108 L 146.5 145.5 L 146.5076124191284 145.50325260162353 L 147.1 144.2 L 155.71058826446534 149.16764707565306 L 153.9 147.5 L 150.2 143.8 L 146.6 139.7 L 143.3 135.2 L 140.7285714149475 131.0 L 119.59836063385009 131.0 L 116.5 134.5 L 110.7 140.3 L 104.5 145.6 L 97.9 150.5 L 91.0 154.8 L 83.6 158.7 L 75.9 162.1 L 67.7 164.8 L 67.0 163.1 L 74.2 158.7 L 80.9 154.1 L 87.3 149.4 L 93.3 144.4 L 98.9 139.2 L 104.1 133.8 L 106.41724138259887 131.0 L 72.1 131.0 L 72.1 127.0 L 109.62131147384643 127.0 L 113.3 121.9 L 117.4 115.6 L 118.48020133972167 113.64395971298218 L 115.2 114.3 L 111.3 111.8 L 111.0 110.6 L 110.6 109.3 L 110.1 108.0 L 109.5 106.8 L 108.7 105.4 L 108.5 105.075 L 108.5 121.0 L 96.5 127.0 L 96.5 108.9 L 94.0 111.4 L 90.7 114.2 L 87.2 116.9 L 83.5 119.4 L 79.4 121.6 L 75.3 123.7 L 74.3 122.2 L 77.5 119.0 L 80.4 115.7 L 83.1 112.5 L 85.6 109.3 L 88.0 106.0 L 90.1 102.8 L 91.9 99.5 L 93.6 96.2 L 94.6 94.0 L 80.2 94.0 L 80.2 90.0 L 96.5 90.0 L 96.5 76.0 L 108.5 78.0 L 111.5 80.0 L 108.5 81.8 L 108.5 90.0 L 113.27777776718139 90.0 L 119.5 83.0 L 127.5 90.0 L 127.5 94.0 L 108.5 94.0 L 108.5 98.55789470672607 L 109.4 98.7 L 111.2 99.3 L 113.1 99.9 L 114.8 100.7 L 116.5 101.6 L 118.2 102.6 L 119.8 103.8 L 121.3 105.1 L 121.90211267471314 108.11056337356567 L 131.5 114.8 L 131.9 115.6 L 134.1 112.3 L 136.1 109.1 L 137.9 105.9 L 139.5 102.7 L 140.9 99.5 L 142.2 96.3 L 142.91875 94.0 L 129.5 94.0 L 129.5 90.0 L 144.4 90.0 L 144.4 76.0 L 156.4 78.0 L 159.4 80.0 L 156.4 81.8 L 156.4 90.0 L 160.4777777671814 90.0 L 166.7 83.0 L 170.53529415130615 86.35588235855103 L 170.7 85.8 L 171.5 83.3 L 172.3 81.0 L 172.9 78.8 L 173.5 76.8 L 173.9 75.0 L 78.38000001907349 75.0 L 78.7 76.6 L 79.0 79.3 L 79.2 82.0 L 79.2 84.5 L 79.1 86.8 L 78.8 89.1 L 78.2 91.4 L 77.4 93.5 L 73.4 95.8 L 69.0 94.8 L 66.7 90.8 L 67.7 86.4 L 68.5 86.0 L 69.3 85.2 L 70.2 84.1 L 71.1 82.6 L 72.0 80.8 L 72.8 78.7 L 73.6 76.2 L 74.4 73.5 L 75.1 70.6 L 75.3 67.3 L 76.72651405334473 67.22074918746948 L 75.3 19.7 L 85.19966325759887 24.325252532958984 L 85.5 24.1 L 87.4 22.7 L 89.1 21.3 L 90.7 20.1 L 92.2 18.9 L 93.5 17.7 L 94.7 16.6 L 95.8 15.6 L 95.99203824996948 15.386624240875244 L 95.8 15.1 L 96.03810939788818 15.335433959960938 L 96.7 14.6 L 98.3917236328125 17.662603187561036 L 104.7 23.9 L 104.7 15.1 L 113.7 19.6 L 141.2 19.6 L 145.7 14.6 L 154.5 22.936842060089113 L 154.5 21.8 L 167.4 21.8 L 173.4 16.8 L 184.4 25.8 L 179.4 28.8 L 178.3632200241089 29.231991672515868 L 178.04387187957764 67.71344013214112 L 180.1 66.0 L 191.1 75.0 L 186.1 78.0 L 181.64285717010497 79.85714282989503 L 180.7 80.8 L 179.2 82.4 L 177.6 84.1 L 173.9 87.8 L 173.05719060897826 88.56254177093506 L 174.7 90.0 L 174.7 94.0 L 156.4 94.0 L 156.4 97.64285717010497 L 157.2 97.9 L 162.4 100.3 L 164.8 101.7 L 167.1 103.2 L 169.3 104.7 L 171.4 106.4 L 173.4 108.2 L 175.3 110.1 L 176.2 114.6 L 173.7 118.4 L 172.7161290168762 118.59677419662475 L 182.8 127.0 L 182.8 131.0 L 144.24848480224608 131.0 L 146.2 132.4 L 150.6 135.5 L 154.8 138.4 L 158.9 141.0 L 163.0 143.3 L 167.0 145.4 L 170.9 147.1 L 174.9 148.6 L 178.7 149.7 L 182.6 150.6 L 190.6 152.9 L 179.0 163.3 L 174.5 161.5 Z M 163.6 113.0 L 162.5 111.1 L 161.3 109.2 L 159.9 107.2 L 158.4 105.2 L 156.7 103.2 L 156.4 102.82941179275512 L 156.4 121.0 L 144.4 127.0 L 144.4 110.38888893127441 L 144.3 110.5 L 141.5 113.4 L 138.5 116.2 L 135.2 118.8 L 128.0 123.6 L 126.9 122.3 L 129.5 119.0 L 130.17022590637208 118.05051336288452 L 129.35470848083497 118.06457395553589 L 126.9 121.8 L 122.96060609817505 127.0 L 160.8 127.0 L 168.7734375 119.0265625 L 165.3 116.8 L 164.5 114.9 Z M 99.2 25.7 L 97.4 26.1 L 95.5 26.4 L 93.5 26.7 L 91.4 27.0 L 89.2 27.2 L 87.55897436141967 27.40512819290161 L 87.89705886840821 38.9 L 92.7 38.9 L 97.2 32.9 L 103.2 38.9 L 103.2 42.9 L 88.01470584869385 42.9 L 88.33529415130616 53.8 L 92.7 53.8 L 97.2 47.8 L 103.2 53.8 L 103.2 57.8 L 88.4529411315918 57.8 L 88.84117650985718 71.0 L 104.7 71.0 L 104.7 27.15932207107544 L 100.53384618759155 25.46461534500122 Z M 113.7 23.6 L 113.7 71.0 L 141.2 71.0 L 141.2 48.71999998092652 L 138.5 49.8 L 138.5 62.7 L 130.5 66.7 L 130.5 62.7 L 124.4 62.7 L 116.4 66.7 L 116.4 39.8 L 124.4 43.8 L 130.5 43.8 L 134.5 38.8 L 141.2 45.5 L 141.2 23.6 Z M 150.2 26.1 L 150.2 71.0 L 166.0528455734253 71.0 L 166.40162601470948 57.8 L 151.8 57.8 L 151.8 53.8 L 166.50731706619263 53.8 L 166.7953251838684 42.9 L 151.8 42.9 L 151.8 38.9 L 166.90101623535156 38.9 L 167.2471544265747 25.8 L 154.5 25.8 L 154.5 23.95 Z M 124.4 47.8 L 124.4 58.7 L 130.5 58.7 L 130.5 47.8 Z M 139.6 33.0 L 139.6 37.0 L 115.3 37.0 L 115.3 33.0 L 125.3777777671814 33.0 L 131.6 26.0 Z " />
</g>
</svg>
