<svg xmlns="http://www.w3.org/2000/svg" xmlns:xlink="http://www.w3.org/1999/xlink" version="1.1" baseProfile="full" viewBox="0 0 200 200" width="200" height="200">
<g fill="black">
<path d="M 169.8 170.5 L 166.2 163.0 L 163.0 154.7 L 160.3 145.7 L 158.1 135.9 L 156.5 125.4 L 155.78365125656128 118.04114437103271 L 155.4 120.5 L 152.5 133.5 L 148.7 145.5 L 144.2 156.4 L 138.9 166.2 L 132.8 175.0 L 125.8 182.4 L 118.1 188.6 L 117.0 187.2 L 123.0 179.9 L 128.4 171.9 L 133.1 163.1 L 137.2 153.4 L 140.6 142.9 L 143.4 131.3 L 145.5 118.8 L 146.9 105.3 L 147.7 90.8 L 147.7 67.3 L 159.7 69.3 L 162.7 71.3 L 159.7 73.1 L 159.7 75.3 L 159.1 91.4 L 158.51019105911254 97.29808921813965 L 159.2 101.8 L 161.2 113.4 L 163.6 124.1 L 166.2 133.9 L 169.2 142.9 L 172.6 151.0 L 176.1 158.2 L 180.0 164.5 L 184.0 169.9 L 188.1 174.4 L 189.0 175.4 L 178.3 183.3 L 173.9 177.3 Z M 113.01324920654297 97.84574136734008 L 112.4 98.3 L 109.6 100.2 L 103.8 103.6 L 101.0 105.2 L 95.2 108.2 L 93.39697847366332 109.07042417526245 L 92.2 113.2 L 89.4 111.0 L 85.81764707565307 104.09117650985718 L 77.42857141494751 108.28571424484252 L 79.1 109.4 L 76.1 111.2 L 76.1 123.7 L 98.8 123.7 L 108.8 113.7 L 120.8 123.7 L 120.8 127.7 L 76.1 127.7 L 76.1 136.16964282989503 L 78.8 136.7 L 84.1 138.0 L 89.1 139.7 L 93.8 141.7 L 98.2 143.9 L 102.3 146.3 L 106.2 149.0 L 109.8 151.9 L 113.0 155.0 L 116.0 158.4 L 116.9 162.9 L 114.5 166.8 L 110.0 167.7 L 106.1 165.2 L 104.3 162.2 L 102.1 159.3 L 99.6 156.4 L 96.8 153.5 L 93.6 150.8 L 90.1 148.0 L 86.2 145.3 L 82.0 142.7 L 77.5 139.9 L 76.1 139.157142829895 L 76.1 182.6 L 64.1 188.6 L 64.1 142.58636360168458 L 60.7 147.3 L 55.9 153.1 L 50.6 158.5 L 45.0 163.6 L 38.9 168.3 L 32.4 172.7 L 25.4 176.6 L 18.0 179.9 L 17.1 178.4 L 23.3 173.4 L 29.2 168.4 L 34.7 163.3 L 39.8 158.1 L 44.4 152.8 L 48.6 147.2 L 52.5 141.6 L 55.9 135.7 L 58.9 129.6 L 59.6307692527771 127.7 L 21.9 127.7 L 21.9 123.7 L 64.1 123.7 L 64.1 105.4 L 76.1 107.4 L 76.4 107.6 L 76.4 102.8 L 63.7 102.8 L 51.7 108.8 L 51.7 108.6384614944458 L 49.0 110.3 L 44.6 109.1 L 42.3 105.2 L 42.1 102.0 L 42.0 98.8 L 41.91324920654297 97.84574136734008 L 41.3 98.3 L 38.5 100.2 L 35.6 101.9 L 32.8 103.6 L 29.9 105.2 L 24.1 108.2 L 22.29697847366333 109.07042417526245 L 21.1 113.2 L 18.3 111.0 L 12.7 100.2 L 14.6 99.6 L 17.6 99.0 L 20.7 98.4 L 21.84826307296753 98.13207197189331 L 22.2 96.7 L 23.7 90.8 L 25.4 84.7 L 27.2 78.4 L 29.1 71.9 L 29.796374988555907 69.26925001144409 L 26.7 69.0 L 23.7 65.5 L 23.3 63.0 L 22.8 60.6 L 22.2 58.1 L 21.6 55.7 L 20.9 53.3 L 20.1 51.0 L 19.3 48.6 L 18.4 46.3 L 17.5 43.9 L 16.1 41.8 L 17.5 40.6 L 19.4 42.4 L 21.6 44.0 L 23.20509557723999 45.36433124542236 L 23.4 44.0 L 24.0 40.5 L 24.7 37.1 L 25.4 33.6 L 26.0 30.1 L 27.4 23.1 L 28.0 19.6 L 28.43232879638672 17.00602741241455 L 28.4 17.0 L 28.4875 16.675 L 28.6 16.0 L 28.66444444656372 16.017777824401854 L 29.1 14.4 L 40.2 19.2 L 42.5 22.0 L 38.66960000991821 23.026000022888184 L 37.4 26.2 L 35.9 29.5 L 34.4 32.9 L 32.8 36.1 L 31.1 39.4 L 29.4 42.5 L 27.6 45.6 L 25.868980503082277 48.10997829437256 L 27.3 49.7 L 29.1 51.9 L 30.7 54.2 L 32.3 56.6 L 32.89329824447632 57.659461212158206 L 34.8 50.7 L 36.7 43.1 L 38.44463300704956 36.20869960784912 L 38.4 36.2 L 38.66428575515747 35.34107141494751 L 38.7 35.2 L 38.707068252563474 35.20202827453613 L 39.2 33.6 L 50.2 38.5 L 51.7 40.25 L 51.7 29.3 L 63.7 35.3 L 64.67692308425903 35.3 L 65.1 34.2 L 65.6 31.5 L 66.1 28.9 L 66.6 26.4 L 67.4 21.8 L 67.8 19.6 L 68.1 17.5 L 68.3 15.5 L 68.34453258514404 14.6538800239563 L 68.1 14.6 L 68.39606294631957 13.674803161621094 L 68.4 13.6 L 68.41817893981934 13.60569076538086 L 68.9 12.1 L 79.9 17.2 L 82.2 20.0 L 77.62131147384643 21.12459020614624 L 76.5 22.9 L 75.2 24.9 L 73.8 26.9 L 70.8 31.1 L 69.1 33.2 L 67.2 35.3 L 76.4 35.3 L 82.4 30.3 L 93.4 39.3 L 90.05361442565918 41.97710847854614 L 90.5 42.4 L 92.6 44.0 L 94.30304880142212 45.37865858078003 L 94.5 44.0 L 95.1 40.5 L 95.8 37.1 L 96.4 33.6 L 97.8 26.6 L 98.4 23.1 L 99.1 19.6 L 99.5293478012085 17.02391300201416 L 99.4 17.0 L 99.69090909957886 16.05454549789429 L 99.7 16.0 L 99.70709047317504 16.00195598602295 L 100.2 14.4 L 111.3 19.2 L 113.6 22.0 L 109.759077835083 23.02881841659546 L 108.4 26.2 L 107.0 29.5 L 105.4 32.9 L 103.9 36.1 L 102.2 39.4 L 100.5 42.5 L 98.7 45.6 L 96.96898050308228 48.10997829437256 L 98.4 49.7 L 100.2 51.9 L 101.8 54.2 L 103.3 56.6 L 103.97523508071899 57.72539186477661 L 105.9 50.7 L 107.8 43.1 L 109.54463300704955 36.20869960784912 L 109.5 36.2 L 110.2 33.6 L 121.3 38.5 L 123.6 41.3 L 120.04967317581176 42.250980377197266 L 118.7 46.3 L 116.1 53.8 L 113.5 61.1 L 110.8 68.0 L 108.2 74.6 L 105.4 81.0 L 102.7 87.0 L 99.8 92.8 L 97.300341796875 97.2160629272461 L 97.9 97.1 L 107.5 95.0 L 110.7 94.4 L 112.66340780258179 94.04301671981811 L 112.5 92.3 L 112.2 88.9 L 111.8 85.6 L 111.3 82.2 L 110.8 78.7 L 110.4 75.2 L 109.6 71.7 L 111.3 71.1 L 113.1 74.2 L 115.0 77.3 L 116.7 80.5 L 119.7 86.9 L 121.0 90.2 L 122.2 93.5 L 123.3 96.8 L 124.3 100.1 L 125.2 103.5 L 124.0 107.9 L 120.1 110.3 L 115.7 109.1 L 113.3 105.2 L 113.1 98.8 Z M 93.9 60.6 L 93.3 58.1 L 91.9 53.3 L 91.2 51.0 L 90.4 48.6 L 89.5 46.3 L 88.6 43.9 L 88.4 43.6 L 88.4 99.06000003814697 L 88.7 99.0 L 91.8 98.4 L 92.94826307296753 98.13207197189331 L 93.3 96.7 L 94.8 90.8 L 96.5 84.7 L 98.3 78.4 L 100.1 71.9 L 100.83651685714722 69.26404495239258 L 97.8 69.0 L 94.8 65.5 L 94.4 63.0 Z M 63.7 70.2 L 63.7 98.8 L 76.4 98.8 L 76.4 70.2 Z M 48.946153831481936 42.2615385055542 L 47.6 46.3 L 45.0 53.8 L 42.4 61.1 L 39.8 68.0 L 37.1 74.6 L 34.4 81.0 L 31.6 87.0 L 28.7 92.8 L 26.190765190124512 97.23298149108886 L 26.9 97.1 L 30.0 96.4 L 36.4 95.0 L 39.6 94.4 L 41.56437616348266 94.05334539413452 L 41.4 92.3 L 41.1 88.9 L 40.7 85.6 L 40.2 82.2 L 39.7 78.7 L 39.3 75.2 L 38.5 71.7 L 40.2 71.1 L 42.0 74.2 L 43.9 77.3 L 45.6 80.5 L 48.6 86.9 L 49.9 90.2 L 51.1 93.5 L 51.7 95.3 L 51.7 41.536842060089114 Z M 152.9 17.7 L 155.7 20.0 L 152.2932620048523 21.542673778533935 L 151.7 25.3 L 150.2 33.0 L 148.4 40.8 L 146.4 48.6 L 144.76962022781373 54.2 L 174.5 54.2 L 180.5 49.2 L 191.5 58.2 L 186.5 61.2 L 184.80948905944825 61.904379558563235 L 184.7 62.2 L 183.4 65.1 L 181.9 68.3 L 180.2 71.7 L 178.3 75.4 L 176.1 79.3 L 173.7 83.5 L 170.8 88.0 L 167.9 92.8 L 166.3 92.0 L 168.0 86.7 L 169.4 81.7 L 170.7 77.1 L 171.8 72.8 L 172.8 68.9 L 173.5 65.4 L 174.1 62.3 L 174.5 59.6 L 174.5 58.2 L 143.54750003814698 58.2 L 141.5 64.5 L 138.6 72.5 L 135.4 80.6 L 131.8 88.7 L 127.8 96.8 L 126.1 96.1 L 128.2 87.4 L 130.3 78.9 L 132.3 70.6 L 134.2 62.4 L 135.9 54.4 L 137.3 46.6 L 138.6 38.8 L 139.6 31.2 L 140.4 23.7 L 140.91777172088624 17.400444316864014 L 140.9 17.4 L 141.2 14.3 Z M 63.7 39.3 L 63.7 66.2 L 76.4 66.2 L 76.4 39.3 Z " />
</g>
</svg>
