<svg xmlns="http://www.w3.org/2000/svg" xmlns:xlink="http://www.w3.org/1999/xlink" version="1.1" baseProfile="full" viewBox="0 0 200 200" width="200" height="200">
<g fill="black">
<path d="M 182.0 174.0 L 182.0 178.0 L 18.0 178.0 L 18.0 174.0 L 160.0 174.0 L 170.0 164.0 Z M 14.0 142.0 L 46.0 142.0 L 46.0 63.0 L 58.0 65.0 L 61.0 67.0 L 58.0 68.8 L 58.0 142.0 L 96.0 142.0 L 96.0 34.86038961410522 L 82.5 36.0 L 66.9 36.9 L 51.2 37.6 L 35.2 37.9 L 19.0 37.8 L 18.9 36.1 L 34.9 34.2 L 50.7 32.3 L 66.4 30.4 L 81.8 28.4 L 97.0 26.3 L 111.9 24.0 L 126.7 21.6 L 141.3 19.0 L 155.7 16.2 L 168.82840061187744 13.49983253479004 L 168.8 13.4 L 168.9025288581848 13.484586238861084 L 169.8 13.3 L 170.01703643798828 14.404055118560791 L 180.8 23.3 L 181.2 26.3 L 176.68583145141602 24.10391798019409 L 172.1 25.0 L 157.7 27.4 L 143.0 29.6 L 128.2 31.5 L 113.2 33.2 L 108.0 33.70980396270752 L 108.0 66.0 L 147.0 66.0 L 157.0 56.0 L 169.0 66.0 L 169.0 70.0 L 108.0 70.0 L 108.0 104.0 L 150.0 104.0 L 160.0 94.0 L 172.0 104.0 L 172.0 108.0 L 108.0 108.0 L 108.0 142.0 L 165.0 142.0 L 175.0 132.0 L 187.0 142.0 L 187.0 146.0 L 14.0 146.0 Z " />
</g>
</svg>
