<svg xmlns="http://www.w3.org/2000/svg" xmlns:xlink="http://www.w3.org/1999/xlink" version="1.1" baseProfile="full" viewBox="0 0 200 200" width="200" height="200">
<g fill="black">
<path d="M 94.8630033493042 18.762197971343994 L 95.5 56.8 L 96.29336080551147 70.2871335029602 L 104.66209802627563 69.24538202285767 L 111.8 59.4 L 122.7 67.0 L 123.2 70.9 L 96.52473955154419 74.22057180404663 L 97.5 90.8 L 100.4 117.7 L 100.97788496017456 121.00678606033325 L 104.3 108.5 L 107.17475547790528 95.60996742248535 L 107.1 95.6 L 107.8 92.8 L 119.1 97.2 L 121.6 99.8 L 118.09289045333863 100.98991212844848 L 115.3 111.5 L 111.1 124.6 L 106.5 136.7 L 104.65271968841553 140.7640167236328 L 108.0 153.4 L 112.0 163.6 L 115.01369867324829 168.87397260665892 L 119.6 149.0 L 121.6 149.0 L 119.68970584869385 173.83382349014283 L 119.8 173.9 L 119.68000001907349 173.96000003814697 L 119.67446804046631 174.0319149017334 L 123.8 175.8 L 125.6 180.0 L 124.68615388870239 182.13230772018431 L 127.2 177.7 L 130.6 169.9 L 133.7 161.1 L 136.5 150.9 L 139.0 139.5 L 141.1 126.8 L 142.9 112.8 L 144.2 97.4 L 145.2 80.7 L 145.7 62.7 L 145.73026485443114 62.701261043548584 L 145.8 60.4 L 157.7 63.2 L 160.7 65.3 L 157.4436619758606 67.08779344558715 L 156.5 81.4 L 155.4073510169983 93.00939540863037 L 155.5 93.8 L 157.2 105.9 L 159.3 117.3 L 161.7 128.1 L 164.7 138.2 L 168.1 147.6 L 172.1 156.4 L 176.5 164.5 L 181.3 172.0 L 186.7 178.9 L 187.0 179.3 L 176.3 187.0 L 170.8 178.9 L 166.1 170.2 L 162.0 160.9 L 158.5 151.1 L 155.7 140.7 L 153.6 129.8 L 152.1 118.4 L 152.08571424484253 118.18571424484253 L 150.3 128.4 L 147.3 141.4 L 143.8 153.1 L 139.9 163.4 L 135.4 172.3 L 130.3 179.7 L 124.8 185.5 L 123.4 184.4 L 123.42140846252441 184.36225347518922 L 119.6 186.0 L 115.3 185.1 L 110.6 182.2 L 105.8 176.9 L 101.1 168.8 L 96.6 157.0 L 96.52701740264892 156.72504243850707 L 96.1 157.5 L 90.2 166.2 L 83.8 173.8 L 77.0 180.1 L 69.8 185.1 L 62.3 188.7 L 61.4 187.2 L 67.6 182.1 L 73.4 176.2 L 78.8 169.6 L 83.9 162.0 L 88.6 153.4 L 93.09763526916504 143.8050446510315 L 92.3 140.8 L 88.5 119.3 L 85.5 91.7 L 84.57294759750366 75.70834674835206 L 75.0 76.9 L 74.5 73.0 L 84.34489822387695 71.77449398040771 L 83.5 57.2 L 82.81656475067139 15.998619556427002 L 82.8 16.0 L 82.8 12.6 L 94.8 15.0 L 97.8 17.0 Z M 27.1 174.0 L 31.6 173.6 L 36.2 173.0 L 40.9 172.4 L 45.7 171.7 L 50.6 171.0 L 51.96020660400391 170.78663425445558 L 52.7 168.5 L 53.7 165.3 L 54.7 162.2 L 55.6 159.3 L 56.4 156.5 L 57.1 153.8 L 57.7 151.3 L 58.2 148.9 L 58.42087640762329 147.6299608230591 L 58.3 147.6 L 58.56363639831543 146.80909090042115 L 58.6 146.6 L 58.62992124557495 146.61023626327514 L 59.1 145.2 L 59.8 145.54036693573 L 59.8 141.4 L 41.4 141.4 L 29.4 147.4 L 29.4 108.9 L 41.4 114.9 L 59.8 114.9 L 65.8 109.9 L 76.8 118.9 L 71.8 122.9 L 71.8 141.4 L 61.68558139801026 146.45720930099486 L 70.0 150.5 L 72.1 153.4 L 67.85118112564086 154.2944881439209 L 67.3 155.2 L 65.8 157.6 L 64.2 160.1 L 62.4 162.6 L 60.6 165.2 L 58.5 167.9 L 56.681632614135744 170.04897956848146 L 60.9 169.4 L 66.2 168.5 L 71.8 167.8 L 77.5 167.1 L 78.0 168.9 L 72.8 171.4 L 67.7 173.7 L 62.6 175.7 L 57.6 177.5 L 52.6 179.2 L 47.7 180.8 L 42.9 182.2 L 38.2 183.5 L 33.6 184.8 L 33.129545497894284 184.91499996185303 L 31.5 188.5 L 29.1 185.9 L 25.1 174.3 Z M 36.5 163.5 L 36.4 161.9 L 36.3 160.2 L 36.0 158.4 L 35.5 156.6 L 34.9 154.8 L 34.2 152.8 L 33.4 150.7 L 32.0 149.0 L 33.2 147.7 L 35.0 149.2 L 37.0 150.5 L 38.9 151.9 L 40.6 153.4 L 42.2 155.0 L 43.7 156.7 L 45.0 158.5 L 46.2 160.5 L 47.2 162.5 L 48.1 164.7 L 46.9 169.1 L 43.0 171.5 L 38.6 170.4 L 36.2 166.5 L 36.4 165.0 Z M 41.4 118.9 L 41.4 137.4 L 59.8 137.4 L 59.8 118.9 Z M 74.7 100.6 L 74.7 104.6 L 27.1 104.6 L 27.1 100.6 L 56.518181800842285 100.6 L 64.7 91.6 Z M 148.8 15.8 L 151.5 18.2 L 148.0488076210022 19.60604133605957 L 147.3 23.4 L 145.7 31.0 L 143.9 38.6 L 141.9 46.1 L 139.7 53.5 L 139.1863013267517 55.0 L 172.8 55.0 L 178.8 50.0 L 189.8 59.0 L 184.8 62.0 L 182.86404838562012 62.806646537780765 L 182.0 65.0 L 180.4 68.6 L 178.8 72.3 L 176.9 76.3 L 174.9 80.5 L 172.7 84.9 L 170.3 89.5 L 167.6 94.3 L 164.8 99.3 L 163.1 98.6 L 164.4 93.0 L 165.6 87.7 L 166.9 82.7 L 168.1 78.0 L 169.2 73.6 L 170.2 69.4 L 171.0 65.5 L 171.8 61.9 L 172.3970588684082 59.0 L 137.81643838882445 59.0 L 137.2 60.8 L 134.6 68.1 L 131.7 75.3 L 128.5 82.4 L 124.9 89.3 L 123.3 88.6 L 124.9 81.1 L 126.6 73.6 L 128.3 66.2 L 129.9 58.8 L 131.4 51.4 L 132.8 44.0 L 134.0 36.5 L 135.2 29.1 L 136.1 21.6 L 136.9 14.1 L 136.93271026611328 14.104672908782959 L 137.2 12.1 Z M 70.1 67.5 L 72.1 67.5 L 70.1 80.5 L 72.8 82.3 L 74.6 85.0 L 72.8 87.7 L 70.1 89.5 L 51.0 89.5 L 48.6 89.4 L 46.3 89.1 L 44.0 88.5 L 41.9 87.4 L 40.0 86.0 L 38.4 84.2 L 37.1 82.1 L 36.3 79.8 L 35.7 77.4 L 35.5 75.0 L 35.5 71.51832065582275 L 26.5 73.57938928604126 L 26.5 111.0 L 26.1 121.1 L 25.6 130.7 L 24.8 139.7 L 23.9 148.1 L 22.8 155.9 L 21.4 163.1 L 19.9 169.6 L 18.0 175.5 L 15.9 180.8 L 13.4 185.2 L 11.9 184.7 L 12.5 179.7 L 13.2 174.4 L 13.9 168.5 L 14.5 162.0 L 15.0 155.0 L 15.4 147.4 L 15.6 139.2 L 15.7 130.4 L 15.7 121.0 L 15.5 111.0 L 15.5 38.5 L 26.5 44.0 L 37.2 44.0 L 37.2 12.0 L 49.2 14.0 L 52.2 16.0 L 49.2 17.8 L 49.2 26.0 L 54.077777767181395 26.0 L 60.3 19.0 L 68.3 26.0 L 68.3 30.0 L 49.2 30.0 L 49.2 44.0 L 66.3 44.0 L 72.3 39.0 L 83.3 48.0 L 78.3 51.0 L 75.78972969055175 52.045945930480954 L 75.1 53.3 L 74.1 55.4 L 73.0 57.4 L 70.6 61.6 L 69.3 63.8 L 67.9 65.9 L 67.0 68.2 L 65.2 67.7 L 65.7 65.2 L 65.7 62.7 L 65.8 60.2 L 65.9 57.8 L 66.2 50.9 L 66.3 48.7 L 66.3 48.0 L 41.0 48.0 L 46.5 49.0 L 49.3 51.0 L 46.5 52.75 L 46.5 64.89312973022462 L 49.657222270965576 64.17010173797607 L 54.3 56.2 L 63.5 61.0 L 64.4 64.9 L 46.5 68.99923667907714 L 46.5 77.3 L 46.7 78.0 L 46.8 78.5 L 47.0 78.9 L 47.3 79.3 L 47.8 79.6 L 48.5 80.0 L 49.6 80.3 L 51.0 80.5 L 65.6 80.5 Z M 26.5 48.0 L 26.5 69.47328243255615 L 35.5 67.41221370697022 L 35.5 48.0 Z M 106.5 41.6 L 105.8 39.0 L 105.1 36.5 L 104.3 34.1 L 103.4 31.7 L 102.4 29.3 L 101.2 26.9 L 100.0 24.4 L 98.4 22.3 L 99.6 21.0 L 101.9 22.7 L 104.3 24.3 L 106.6 26.1 L 108.7 28.1 L 110.7 30.2 L 112.6 32.6 L 114.4 35.0 L 116.0 37.7 L 117.5 40.5 L 118.9 43.4 L 118.4 47.9 L 114.8 50.8 L 110.3 50.3 L 107.4 46.8 L 107.0 44.1 Z " />
</g>
</svg>
