<svg xmlns="http://www.w3.org/2000/svg" xmlns:xlink="http://www.w3.org/1999/xlink" version="1.1" baseProfile="full" viewBox="0 0 200 200" width="200" height="200">
<g fill="black">
<path d="M 42.7 120.1 L 41.9 117.5 L 40.9 115.0 L 39.6 112.5 L 38.2 110.1 L 36.5 107.8 L 34.5 105.5 L 32.3 103.1 L 32.04515733718872 102.92066621780396 L 31.3 104.3 L 26.3 112.3 L 20.7 119.8 L 14.6 126.5 L 13.1 125.4 L 17.5 117.6 L 21.6 109.6 L 25.5 101.3 L 29.0 92.6 L 32.2 83.5 L 35.0 73.9 L 37.5 63.9 L 39.6 53.5 L 41.4 42.6 L 42.37358493804932 34.0 L 13.9 34.0 L 13.9 30.0 L 64.1 30.0 L 74.1 20.0 L 86.1 30.0 L 86.1 34.0 L 54.468644046783446 34.0 L 52.6 44.5 L 50.1 55.7 L 47.2 66.5 L 46.391176509857175 69.0 L 67.4 69.0 L 73.4 64.0 L 84.4 73.0 L 79.4 76.0 L 78.59731817245483 76.33445072174072 L 76.8 88.7 L 73.5 104.7 L 69.2 119.6 L 64.1 133.3 L 58.0 145.9 L 51.1 157.2 L 43.2 167.4 L 34.4 176.2 L 24.8 183.7 L 14.3 189.7 L 13.4 188.2 L 22.5 180.7 L 30.7 172.4 L 38.1 163.3 L 44.6 153.2 L 50.4 142.0 L 55.4 129.9 L 59.6 116.7 L 63.0 102.3 L 65.6 86.9 L 67.11636362075805 73.0 L 45.097058868408205 73.0 L 43.9 76.7 L 40.1 86.4 L 36.0 95.6 L 33.2744104385376 100.64524021148682 L 33.7 100.8 L 36.9 102.1 L 40.0 103.6 L 42.8 105.5 L 45.5 107.7 L 48.0 110.1 L 50.2 112.8 L 52.2 115.8 L 53.9 119.0 L 55.4 122.5 L 54.8 127.0 L 51.2 129.8 L 46.7 129.2 L 43.8 125.6 L 43.4 122.8 Z M 98.4 181.8 L 86.4 187.8 L 86.4 131.5 L 98.4 133.5 L 101.4 135.5 L 98.4 137.3 L 98.4 170.8 L 126.5 170.8 L 126.5 116.5 L 138.5 118.5 L 141.5 120.5 L 138.5 122.3 L 138.5 170.8 L 166.5 170.8 L 166.5 131.5 L 178.5 133.5 L 181.5 135.5 L 178.5 137.3 L 178.5 178.8 L 166.5 184.8 L 166.5 174.8 L 98.4 174.8 Z M 75.1 110.6 L 99.5 110.6 L 99.5 33.9 L 109.4876106262207 38.89380531311035 L 110.9 38.2 L 116.4 35.5 L 121.8 33.0 L 127.1 30.5 L 137.1 25.5 L 141.8 22.9 L 146.4 20.4 L 150.8 17.9 L 155.0 15.3 L 156.57137470245362 18.144729995727538 L 163.1 24.6 L 163.2 27.9 L 159.57213773727418 26.36277017593384 L 156.0 28.0 L 151.1 30.1 L 146.0 32.1 L 140.8 34.0 L 135.3 35.8 L 129.8 37.5 L 124.1 39.1 L 118.1 40.6 L 112.0 41.8 L 111.5 41.879365062713624 L 111.5 60.7 L 162.4 60.7 L 172.4 50.7 L 184.4 60.7 L 184.4 64.7 L 157.4 64.7 L 157.4 110.6 L 165.8 110.6 L 175.8 100.6 L 187.8 110.6 L 187.8 114.6 L 75.1 114.6 Z M 111.5 64.7 L 111.5 110.6 L 145.4 110.6 L 145.4 64.7 Z " />
</g>
</svg>
