<svg xmlns="http://www.w3.org/2000/svg" xmlns:xlink="http://www.w3.org/1999/xlink" version="1.1" baseProfile="full" viewBox="0 0 200 200" width="200" height="200">
<g fill="black">
<path d="M 35.3 119.9 L 34.6 117.3 L 33.8 114.7 L 32.8 112.3 L 31.5 110.0 L 30.1 107.7 L 28.5 105.4 L 26.74769172668457 103.16093940734864 L 26.3 104.1 L 21.7 112.2 L 16.7 119.7 L 11.2 126.5 L 9.7 125.4 L 13.4 117.7 L 17.0 109.8 L 20.3 101.5 L 23.3 92.8 L 26.1 83.6 L 28.6 74.1 L 30.7 64.1 L 32.5 53.6 L 34.0 42.7 L 34.89439249038696 34.0 L 10.5 34.0 L 10.5 30.0 L 52.2 30.0 L 62.2 20.0 L 74.2 30.0 L 74.2 34.0 L 46.97457628250122 34.0 L 45.3 44.4 L 43.1 55.6 L 40.5 66.3 L 39.70588235855102 69.0 L 57.0 69.0 L 63.0 64.0 L 74.0 73.0 L 69.0 76.0 L 68.28259525299072 76.29891862869263 L 66.7 88.6 L 63.7 104.6 L 59.9 119.4 L 55.3 133.1 L 50.0 145.7 L 43.8 157.0 L 36.8 167.2 L 29.0 176.1 L 20.3 183.6 L 11.0 189.7 L 9.9 188.2 L 17.8 180.8 L 24.9 172.5 L 31.4 163.4 L 37.1 153.3 L 42.2 142.2 L 46.6 130.1 L 50.2 116.8 L 53.2 102.5 L 55.4 87.0 L 56.74939756393432 73.0 L 38.52941179275513 73.0 L 37.5 76.5 L 34.2 86.3 L 30.4 95.5 L 27.836280155181885 100.87755861282349 L 28.1 101.0 L 31.1 102.2 L 33.8 103.8 L 36.4 105.7 L 38.9 107.9 L 41.1 110.3 L 43.1 113.1 L 44.9 116.0 L 46.5 119.2 L 47.8 122.6 L 47.1 127.1 L 43.4 129.9 L 38.9 129.1 L 36.2 125.4 L 35.8 122.6 Z M 89.7 24.0 L 114.6 24.0 L 120.1 19.0 L 130.6 28.0 L 125.6 31.5 L 125.6 73.0 L 114.6 78.5 L 114.6 71.0 L 89.7 71.0 L 89.7 183.2 L 78.7 188.7 L 78.7 18.5 Z M 156.7 176.0 L 168.7 176.0 L 169.9 175.9 L 170.8 175.7 L 171.7 175.4 L 172.1 175.0 L 172.3 174.7 L 172.4 174.1 L 172.6 173.2 L 172.7 172.0 L 172.7 71.0 L 148.3 71.0 L 148.3 74.0 L 138.1 79.1 L 136.5 80.16666669845581 L 136.5 90.0 L 151.87777776718139 90.0 L 158.1 83.0 L 166.1 90.0 L 166.1 94.0 L 136.5 94.0 L 136.5 104.6 L 149.0 104.6 L 154.5 99.6 L 165.0 108.6 L 160.0 112.1 L 160.0 140.3 L 149.0 145.8 L 149.0 140.3 L 136.5 140.3 L 136.5 143.6666666984558 L 137.0 143.9 L 140.1 145.1 L 143.1 146.6 L 146.0 148.2 L 148.8 150.0 L 151.5 151.9 L 154.0 154.0 L 156.5 156.2 L 158.9 158.6 L 161.1 161.1 L 162.0 165.6 L 159.5 169.4 L 155.0 170.3 L 151.2 167.8 L 149.9 165.3 L 148.5 162.8 L 147.0 160.3 L 145.3 157.9 L 143.6 155.6 L 141.7 153.2 L 139.8 150.9 L 136.5 147.12857141494752 L 136.5 180.9 L 126.5 185.9 L 126.5 155.49117650985718 L 125.8 156.5 L 122.2 161.1 L 118.4 165.3 L 114.5 169.2 L 110.3 172.7 L 105.9 175.8 L 101.3 178.3 L 96.5 180.4 L 95.5 178.9 L 99.1 175.3 L 102.5 171.6 L 105.8 167.9 L 108.9 164.0 L 111.9 159.9 L 114.7 155.6 L 117.3 151.1 L 119.8 146.3 L 122.1 141.2 L 122.44137935638427 140.3 L 112.9 140.3 L 112.9 147.3 L 102.9 152.3 L 102.9 99.6 L 112.9 104.6 L 126.5 104.6 L 126.5 94.0 L 98.5 94.0 L 98.5 90.0 L 126.5 90.0 L 126.5 74.5 L 136.5 76.5 L 137.3 77.13999996185302 L 137.3 18.5 L 148.3 24.0 L 172.7 24.0 L 178.7 19.0 L 189.7 28.0 L 184.7 32.0 L 184.7 172.0 L 184.5 174.5 L 184.1 177.0 L 183.3 179.4 L 182.1 181.7 L 180.4 183.7 L 178.4 185.3 L 176.1 186.6 L 173.7 187.4 L 171.2 187.8 L 168.7 188.0 L 168.7 182.0 L 156.7 179.0 Z M 117.6 128.4 L 117.4 126.9 L 117.1 125.4 L 116.7 123.7 L 116.2 122.0 L 115.6 120.3 L 114.2 116.5 L 112.9 114.9 L 114.2 113.7 L 115.8 115.1 L 119.4 117.3 L 121.0 118.5 L 122.6 119.8 L 125.4 122.6 L 126.5 123.78461542129517 L 126.5 108.6 L 112.9 108.6 L 112.9 136.3 L 126.5 136.3 L 126.5 133.86060609817505 L 125.5 134.8 L 120.9 134.6 L 117.8 131.2 L 117.7 129.9 Z M 148.7 122.2 L 147.2 124.2 L 145.6 126.1 L 143.9 127.9 L 140.3 131.5 L 138.3 133.1 L 136.7 135.0 L 136.5 134.86666669845582 L 136.5 136.3 L 149.0 136.3 L 149.0 121.81999998092651 Z M 136.5 108.6 L 136.5 131.45714282989502 L 137.1 129.4 L 139.2 122.5 L 139.8 120.2 L 141.0 115.8 L 141.5 113.6 L 141.77216892242433 112.45689058303833 L 141.6 112.4 L 141.98999996185302 111.5420000076294 L 142.0 111.5 L 142.00762367248535 111.50322799682617 L 142.6 110.2 L 149.0 113.85714282989503 L 149.0 108.6 Z M 148.3 49.0 L 148.3 67.0 L 172.7 67.0 L 172.7 49.0 Z M 89.7 49.0 L 89.7 67.0 L 114.6 67.0 L 114.6 49.0 Z M 148.3 28.0 L 148.3 45.0 L 172.7 45.0 L 172.7 28.0 Z M 89.7 28.0 L 89.7 45.0 L 114.6 45.0 L 114.6 28.0 Z " />
</g>
</svg>
