<svg xmlns="http://www.w3.org/2000/svg" xmlns:xlink="http://www.w3.org/1999/xlink" version="1.1" baseProfile="full" viewBox="0 0 200 200" width="200" height="200">
<g fill="black">
<path d="M 160.4 176.1 L 152.2 170.5 L 144.8 163.9 L 143.80701379776002 162.73634433746338 L 136.2 169.8 L 127.1 176.4 L 117.2 181.9 L 106.5 186.0 L 95.2 188.8 L 94.7 187.1 L 105.1 182.5 L 114.6 177.1 L 123.3 171.1 L 131.2 164.2 L 138.3 156.4 L 138.35297298431396 156.32684688568116 L 133.0 148.0 L 128.5 138.8 L 125.0 128.7 L 122.6 117.8 L 121.30769233703613 107.0 L 112.2 107.0 L 112.2 103.0 L 162.5 103.0 L 168.5 98.0 L 179.5 107.0 L 174.5 110.0 L 172.92375087738037 110.65677042007447 L 170.0 119.7 L 164.9 131.9 L 159.0 143.0 L 152.2 153.1 L 150.4745782852173 155.1205595970154 L 151.9 156.5 L 158.6 161.5 L 166.0 165.7 L 174.1 169.1 L 182.9 171.6 L 191.2 173.8 L 179.5 184.3 L 169.5 180.7 Z M 57.8 176.2 L 79.0 176.2 L 79.9 176.0 L 80.5 175.8 L 80.9 175.7 L 81.0 175.5 L 81.2 175.3 L 81.4 175.0 L 81.6 174.4 L 81.7 173.5 L 81.8 172.2 L 81.8 156.6 L 42.48636360168457 156.6 L 42.2 158.4 L 41.2 162.6 L 39.9 166.6 L 38.3 170.4 L 36.4 173.9 L 34.3 177.1 L 31.8 180.1 L 29.1 182.8 L 26.1 185.1 L 23.1 187.2 L 21.9 185.9 L 24.0 183.1 L 25.6 180.0 L 27.1 176.9 L 28.3 173.9 L 29.2 170.7 L 30.0 167.5 L 30.5 164.2 L 30.9 160.7 L 31.0 157.1 L 30.90845069885254 153.7126760482788 L 30.9 153.7 L 30.9 122.4 L 27.1 125.4 L 23.1 128.4 L 21.9 127.1 L 24.6 123.1 L 27.1 119.1 L 29.5 115.2 L 30.9 112.88695650100708 L 30.9 110.2 L 32.11818180084229 110.80909090042114 L 33.9 107.5 L 35.8 103.7 L 37.5 99.9 L 39.0 96.1 L 40.3 92.3 L 41.177515506744385 89.52120084762574 L 41.1 89.5 L 42.0 87.1 L 52.8 92.7 L 54.9 95.6 L 51.02706212997437 96.33452272415161 L 50.8 96.8 L 50.08500003814697 98.1 L 67.4 98.1 L 67.94545450210572 97.64545450210571 L 68.0 97.4 L 68.15 97.475 L 73.4 93.1 L 84.4 102.1 L 79.4 105.1 L 75.27906980514527 106.817054271698 L 74.5 107.7 L 73.0 109.3 L 71.4 110.9 L 69.7 112.5 L 68.0 114.0 L 66.2 115.5 L 65.26666669845581 116.2 L 81.8 116.2 L 87.8 111.2 L 98.8 120.2 L 93.8 124.2 L 93.8 172.2 L 93.7 174.8 L 93.2 177.3 L 92.4 179.7 L 91.2 182.0 L 89.5 184.0 L 87.5 185.6 L 85.3 186.9 L 82.8 187.7 L 80.4 188.1 L 77.8 188.2 L 77.8 182.2 L 57.8 179.2 Z M 42.9 138.4 L 42.9 152.6 L 55.9 152.6 L 55.9 138.4 Z M 67.9 138.4 L 67.9 152.6 L 81.8 152.6 L 81.8 138.4 Z M 123.39272727966309 107.0 L 126.6 116.8 L 130.6 126.7 L 135.0 135.6 L 140.1 143.6 L 144.0471526145935 148.46345586776732 L 144.6 147.7 L 150.2 138.1 L 155.1 127.5 L 159.2 116.0 L 161.64799995422362 107.0 Z M 42.9 120.2 L 42.9 134.4 L 55.9 134.4 L 55.9 120.2 Z M 67.9 120.2 L 67.9 134.4 L 81.8 134.4 L 81.8 120.2 Z M 47.77894735336304 102.1 L 46.2 104.6 L 43.6 108.4 L 40.7 112.1 L 38.9 114.2 L 42.9 116.2 L 62.1 116.2 L 62.4 115.7 L 63.1 113.4 L 63.9 111.2 L 65.3 107.0 L 66.5 103.0 L 66.78421049118042 102.1 Z M 13.4 103.8 L 11.8 99.5 L 13.6 95.3 L 14.3 95.1 L 15.3 94.3 L 16.3 93.0 L 17.4 91.2 L 18.4 88.9 L 19.4 86.1 L 20.3 82.9 L 21.1 79.3 L 22.0 75.3 L 22.3 70.9 L 24.1 70.8 L 24.6 75.3 L 24.92857141494751 77.6 L 90.8 77.6 L 96.8 72.6 L 107.8 81.6 L 102.8 84.6 L 99.28633089065552 86.0640287399292 L 98.8 86.7 L 97.5 88.5 L 96.0 90.3 L 94.4 92.2 L 92.8 94.2 L 91.0 96.3 L 89.0 98.4 L 87.4 100.8 L 85.8 100.0 L 87.0 97.3 L 87.6 94.5 L 88.3 91.9 L 88.9 89.4 L 89.4 87.1 L 89.9 84.9 L 90.4 82.8 L 90.58947372436523 81.6 L 25.421052646636962 81.6 L 25.6 83.3 L 25.8 86.9 L 25.8 90.3 L 25.6 93.4 L 25.2 96.3 L 24.5 99.0 L 23.5 101.5 L 21.9 103.9 L 17.7 105.6 Z M 131.7 26.0 L 154.2 26.0 L 160.2 21.0 L 171.2 30.0 L 166.2 34.0 L 166.2 75.1 L 166.3 75.8 L 166.5 76.2 L 166.6 76.6 L 166.8 76.9 L 167.2 77.2 L 167.9 77.5 L 168.9 77.8 L 170.2 78.0 L 179.2 78.0 L 184.2 61.0 L 186.2 61.0 L 184.2 78.0 L 187.2 80.0 L 189.2 83.0 L 187.2 86.0 L 184.2 88.0 L 170.2 88.0 L 167.7 87.9 L 165.3 87.6 L 163.0 86.9 L 160.8 85.8 L 158.8 84.3 L 157.1 82.5 L 155.9 80.3 L 155.0 78.0 L 154.4 75.5 L 154.2 73.0 L 154.2 30.0 L 131.7 30.0 L 131.7 52.0 L 131.1 58.0 L 130.1 63.8 L 128.5 69.3 L 126.3 74.7 L 123.7 79.8 L 120.6 84.6 L 117.0 89.2 L 112.9 93.4 L 108.2 97.2 L 103.0 100.6 L 101.9 99.3 L 105.5 94.5 L 108.8 89.9 L 111.6 85.3 L 114.1 80.7 L 116.1 76.1 L 117.6 71.4 L 118.8 66.7 L 119.5 61.9 L 119.8 57.0 L 119.7 52.0 L 119.7 20.0 Z M 25.5 60.9 L 54.5 60.9 L 54.5 38.1 L 19.7 38.1 L 19.7 34.1 L 54.5 34.1 L 54.5 12.3 L 66.5 14.3 L 69.5 16.3 L 66.5 18.1 L 66.5 34.1 L 79.2 34.1 L 89.2 24.1 L 101.2 34.1 L 101.2 38.1 L 66.5 38.1 L 66.5 60.9 L 77.21818180084229 60.9 L 85.4 51.9 L 95.4 60.9 L 95.4 64.9 L 25.5 64.9 Z " />
</g>
</svg>
