<svg xmlns="http://www.w3.org/2000/svg" xmlns:xlink="http://www.w3.org/1999/xlink" version="1.1" baseProfile="full" viewBox="0 0 200 200" width="200" height="200">
<g fill="black">
<path d="M 160.3 176.1 L 152.2 170.4 L 145.1 163.9 L 144.22548799514772 162.84212265014648 L 137.0 169.8 L 128.0 176.4 L 118.4 181.9 L 108.0 186.0 L 96.9 188.8 L 96.4 187.1 L 106.5 182.5 L 115.7 177.2 L 124.2 171.1 L 131.8 164.2 L 138.7 156.4 L 138.80665578842164 156.25205812454223 L 133.6 148.0 L 129.2 138.7 L 125.9 128.7 L 123.5 117.8 L 122.3 107.0 L 113.5 107.0 L 113.5 103.0 L 162.2 103.0 L 168.2 98.0 L 179.2 107.0 L 174.2 110.0 L 172.68585929870605 110.63089199066162 L 169.9 119.6 L 164.9 131.8 L 159.1 143.0 L 152.5 153.0 L 150.78536586761476 155.08536586761474 L 152.2 156.5 L 158.8 161.6 L 166.0 165.7 L 173.8 169.1 L 182.4 171.6 L 190.6 173.8 L 178.9 184.3 L 169.2 180.7 Z M 66.5 97.4 L 69.5 99.4 L 66.5 101.2 L 66.5 119.3 L 77.3 119.3 L 87.3 109.3 L 99.3 119.3 L 99.3 123.3 L 66.5 123.3 L 66.5 148.5 L 84.0 148.5 L 94.0 138.5 L 106.0 148.5 L 106.0 152.5 L 66.5 152.5 L 66.5 182.5 L 54.5 188.5 L 54.5 152.5 L 14.9 152.5 L 14.9 148.5 L 54.5 148.5 L 54.5 123.3 L 35.512195110321045 123.3 L 34.4 125.2 L 31.7 129.2 L 28.8 133.1 L 25.6 136.9 L 22.1 140.6 L 18.4 144.1 L 17.0 143.1 L 19.3 138.5 L 21.4 134.1 L 23.4 129.8 L 25.3 125.6 L 27.0 121.4 L 28.5 117.3 L 29.9 113.2 L 31.0 109.2 L 32.0 105.2 L 32.52428569793701 102.20408163070678 L 32.5 102.2 L 32.576923084259036 101.90329666137696 L 32.7 101.2 L 32.75556545257568 101.21424751281738 L 33.2 99.5 L 44.4 104.2 L 46.8 106.9 L 42.990334606170656 107.98847579956055 L 42.8 108.5 L 41.0 112.8 L 39.1 117.0 L 37.80975608825683 119.3 L 54.5 119.3 L 54.5 95.4 Z M 124.38181819915772 107.0 L 127.5 116.8 L 131.4 126.7 L 135.8 135.7 L 140.7 143.6 L 144.49529304504395 148.36136770248413 L 144.9 147.8 L 150.3 138.2 L 155.0 127.6 L 159.1 116.0 L 161.47600002288817 107.0 Z M 14.6 110.8 L 12.8 106.6 L 14.4 102.3 L 15.2 101.9 L 16.2 100.9 L 17.3 99.3 L 18.4 97.1 L 19.5 94.4 L 20.5 91.2 L 21.4 87.6 L 22.2 83.5 L 23.1 79.0 L 23.6 74.1 L 25.4 74.0 L 25.9 79.0 L 26.3319149017334 81.9 L 94.1 81.9 L 100.1 76.9 L 111.1 85.9 L 106.1 88.9 L 103.03571424484252 90.17678575515747 L 102.2 91.5 L 100.8 93.5 L 99.3 95.6 L 97.7 97.8 L 96.0 100.1 L 94.2 102.5 L 92.2 104.9 L 90.5 107.6 L 88.9 106.8 L 90.0 103.8 L 90.7 100.8 L 91.3 97.9 L 92.0 95.2 L 92.5 92.6 L 93.1 90.2 L 93.5 87.9 L 93.86363639831544 85.9 L 26.75348834991455 85.9 L 26.9 88.0 L 27.1 92.1 L 27.1 95.8 L 26.8 99.2 L 26.4 102.4 L 25.6 105.3 L 24.6 108.1 L 23.0 110.6 L 18.8 112.4 Z M 132.6 26.0 L 154.2 26.0 L 160.2 21.0 L 171.2 30.0 L 166.2 34.0 L 166.2 73.0 L 166.1 74.2 L 166.2 75.1 L 166.3 75.8 L 166.4 76.2 L 166.6 76.6 L 166.8 76.9 L 167.2 77.2 L 167.8 77.5 L 168.8 77.8 L 170.2 78.0 L 178.5 78.0 L 183.5 61.0 L 185.5 61.0 L 183.5 78.0 L 186.5 80.0 L 188.5 83.0 L 186.5 86.0 L 183.5 88.0 L 170.2 88.0 L 167.7 87.9 L 165.3 87.6 L 163.0 86.9 L 160.8 85.8 L 158.8 84.3 L 157.1 82.5 L 155.8 80.3 L 155.0 78.0 L 154.4 75.5 L 154.2 73.0 L 154.2 30.0 L 132.6 30.0 L 132.6 52.0 L 132.0 57.9 L 131.0 63.7 L 129.4 69.3 L 127.3 74.7 L 124.8 79.8 L 121.7 84.6 L 118.2 89.1 L 114.2 93.4 L 109.6 97.2 L 104.6 100.6 L 103.4 99.3 L 106.9 94.5 L 110.1 89.9 L 112.8 85.3 L 115.2 80.8 L 117.1 76.1 L 118.6 71.5 L 119.7 66.7 L 120.4 61.9 L 120.7 57.0 L 120.6 52.0 L 120.6 20.0 Z M 22.9 60.2 L 54.5 60.2 L 54.5 38.5 L 16.6 38.5 L 16.6 34.5 L 54.5 34.5 L 54.5 13.6 L 66.5 15.6 L 69.5 17.6 L 66.5 19.4 L 66.5 34.5 L 82.3 34.5 L 92.3 24.5 L 104.3 34.5 L 104.3 38.5 L 66.5 38.5 L 66.5 60.2 L 79.81818180084228 60.2 L 88.0 51.2 L 98.0 60.2 L 98.0 64.2 L 22.9 64.2 Z " />
</g>
</svg>
