<svg xmlns="http://www.w3.org/2000/svg" xmlns:xlink="http://www.w3.org/1999/xlink" version="1.1" baseProfile="full" viewBox="0 0 200 200" width="200" height="200">
<g fill="black">
<path d="M 106.0 102.1 L 109.0 104.1 L 106.0 105.9 L 106.0 121.6 L 164.0 121.6 L 174.0 111.6 L 186.0 121.6 L 186.0 125.6 L 106.0 125.6 L 106.0 146.5 L 146.0 146.5 L 152.0 141.5 L 163.0 150.5 L 158.0 154.5 L 158.0 183.1 L 146.0 189.1 L 146.0 181.1 L 54.0 181.1 L 54.0 184.1 L 42.0 190.1 L 42.0 140.5 L 54.0 146.5 L 94.0 146.5 L 94.0 125.6 L 14.0 125.6 L 14.0 121.6 L 94.0 121.6 L 94.0 100.1 Z M 54.0 177.1 L 146.0 177.1 L 146.0 150.5 L 54.0 150.5 Z M 34.4 83.6 L 33.5 88.2 L 32.1 92.5 L 30.4 96.7 L 28.3 100.6 L 25.9 104.3 L 23.1 107.7 L 19.9 110.8 L 16.3 113.5 L 12.5 116.1 L 11.4 114.7 L 14.1 111.3 L 16.3 107.7 L 18.2 104.2 L 19.8 100.8 L 21.1 97.2 L 22.0 93.7 L 22.7 90.1 L 23.1 86.4 L 23.2 82.7 L 23.0 78.8 L 23.0 48.9 L 35.0 54.9 L 82.0 54.9 L 88.0 49.9 L 96.23576049804687 56.638349533081055 L 100.0 54.8 L 103.6 52.4 L 106.7 50.0 L 109.2 47.5 L 111.1 45.0 L 112.5 42.5 L 113.5 40.1 L 114.0 37.5 L 114.1 34.9 L 114.0 32.1 L 114.0 12.3 L 126.0 18.3 L 150.0 18.3 L 156.0 13.3 L 167.0 22.3 L 162.0 26.3 L 162.0 38.6 L 161.9 39.9 L 161.9 40.8 L 162.0 41.5 L 162.0 42.0 L 162.4 42.8 L 162.8 43.2 L 163.5 43.6 L 164.6 43.9 L 166.0 44.1 L 176.5 44.1 L 181.0 31.1 L 183.0 31.1 L 181.0 44.1 L 183.7 45.9 L 185.5 48.6 L 183.7 51.3 L 181.0 53.1 L 163.5 53.1 L 161.2 52.9 L 158.9 52.3 L 156.7 51.3 L 154.7 49.8 L 153.1 48.0 L 151.7 45.9 L 150.8 43.6 L 150.2 41.2 L 150.0 38.6 L 150.0 22.3 L 126.0 22.3 L 126.0 32.1 L 125.3 36.5 L 124.0 40.5 L 122.1 44.2 L 119.7 47.5 L 116.8 50.4 L 113.5 52.8 L 109.7 54.8 L 105.6 56.4 L 101.0 57.5 L 98.10090417861939 58.164376163482665 L 99.0 58.9 L 94.0 62.9 L 94.0 80.8 L 82.0 86.8 L 82.0 80.8 L 34.75 80.8 Z M 158.4 104.1 L 150.1 101.1 L 142.6 97.5 L 136.0 93.3 L 133.97697172164916 91.5609055519104 L 125.2 93.6 L 114.3 95.4 L 102.2 96.6 L 89.0 97.1 L 88.9 95.3 L 101.7 92.8 L 113.3 90.2 L 123.6 87.3 L 127.92257022857666 85.7799753189087 L 125.4 83.0 L 121.6 77.0 L 118.9 70.5 L 117.55217390060425 64.3 L 107.0 64.3 L 107.0 60.3 L 160.0 60.3 L 166.0 55.3 L 177.0 64.3 L 172.0 67.3 L 169.62214765548705 68.29077177047729 L 168.5 70.5 L 164.0 76.1 L 158.4 80.9 L 151.7 84.9 L 145.666712474823 87.60724439620972 L 147.1 88.3 L 153.9 90.7 L 161.4 92.7 L 169.7 94.2 L 178.7 95.1 L 189.1 96.3 L 177.2 108.2 L 167.4 106.5 Z M 119.92105264663697 64.3 L 122.7 68.7 L 126.5 73.7 L 130.8 78.1 L 135.6 82.0 L 136.34863443374633 82.46279220581054 L 140.5 80.6 L 147.0 76.9 L 152.1 73.0 L 156.0 68.9 L 158.7 64.7 L 158.842857170105 64.3 Z M 35.0 58.9 L 35.0 76.8 L 53.0 76.8 L 53.0 58.9 Z M 65.0 58.9 L 65.0 76.8 L 82.0 76.8 L 82.0 58.9 Z M 20.0 43.0 L 53.0 43.0 L 53.0 30.5 L 13.0 30.5 L 13.0 26.5 L 53.0 26.5 L 53.0 12.8 L 65.0 14.8 L 68.0 16.8 L 65.0 18.6 L 65.0 26.5 L 89.81818180084228 26.5 L 98.0 17.5 L 108.0 26.5 L 108.0 30.5 L 65.0 30.5 L 65.0 43.0 L 80.81818180084228 43.0 L 89.0 34.0 L 99.0 43.0 L 99.0 47.0 L 20.0 47.0 Z " />
</g>
</svg>
