<svg xmlns="http://www.w3.org/2000/svg" xmlns:xlink="http://www.w3.org/1999/xlink" version="1.1" baseProfile="full" viewBox="0 0 200 200" width="200" height="200">
<g fill="black">
<path d="M 75.8 173.2 L 74.9 171.3 L 73.9 169.3 L 72.7 167.3 L 71.3 165.3 L 69.9 163.2 L 66.5 159.0 L 64.41379308700562 157.29310340881347 L 55.0 162.0 L 55.0 131.0268292427063 L 52.0 132.6 L 43.4 136.5 L 34.4 140.1 L 25.1 143.2 L 15.3 145.8 L 14.6 144.1 L 23.6 139.7 L 32.3 135.2 L 40.5 130.6 L 48.3 126.0 L 55.7 121.1 L 62.7 116.0 L 69.3 110.8 L 75.5 105.4 L 80.9 100.0 L 34.0 100.0 L 34.0 96.0 L 84.64482755661011 96.0 L 86.6 93.9 L 87.03452768325806 94.30456027984619 L 91.0 91.0 L 102.0 100.0 L 97.0 103.0 L 92.10653266906738 105.03894472122192 L 89.1 107.9 L 82.4 113.5 L 75.4 118.8 L 68.0 123.7 L 67.49130430221558 124.0 L 115.81818180084228 124.0 L 124.0 115.0 L 134.0 124.0 L 134.0 128.0 L 67.0 128.0 L 67.0 124.28974361419678 L 60.2 128.3 L 56.00238094329834 130.50119047164918 L 67.0 136.0 L 134.0 136.0 L 140.0 131.0 L 151.0 140.0 L 146.0 144.0 L 146.0 156.0 L 134.4246808052063 161.78765954971314 L 135.8 162.7 L 137.5 165.9 L 133.05567684173585 166.0506549835205 L 131.7 167.6 L 129.4 169.9 L 126.9 172.1 L 124.3 174.2 L 121.4 176.1 L 118.4 177.9 L 115.2 179.6 L 114.22857141494751 180.0 L 158.0 180.0 L 168.0 170.0 L 180.0 180.0 L 180.0 184.0 L 21.0 184.0 L 21.0 180.0 L 108.9 180.0 L 110.3 178.8 L 112.7 176.2 L 115.0 173.6 L 117.0 171.1 L 118.9 168.7 L 120.6 166.3 L 122.0 163.9 L 123.3 161.6 L 124.3 159.3 L 124.82643213272095 157.9546733856201 L 124.7 157.9 L 125.7 156.0 L 134.0 161.50594062805175 L 134.0 156.0 L 67.0 156.0 L 66.42745094299316 156.2862745285034 L 67.8 157.0 L 70.6 158.0 L 73.1 159.2 L 75.6 160.6 L 77.9 162.1 L 80.1 163.7 L 82.2 165.4 L 84.2 167.3 L 86.1 169.3 L 87.8 171.5 L 88.2 176.0 L 85.4 179.6 L 80.8 180.0 L 77.2 177.2 L 76.6 175.2 Z M 67.0 140.0 L 67.0 152.0 L 134.0 152.0 L 134.0 140.0 Z M 159.6 132.9 L 151.4 129.5 L 143.6 125.8 L 136.4 121.8 L 129.7 117.3 L 123.5 112.4 L 117.9 107.2 L 113.0 101.5 L 108.9 95.3 L 110.3 94.1 L 116.0 98.5 L 121.8 102.7 L 127.8 106.6 L 129.70909090042113 107.69090909957886 L 132.4 105.0 L 135.6 101.4 L 137.1 99.7 L 138.4 97.9 L 139.6 96.2 L 140.8 94.4 L 141.2596876144409 93.61853103637695 L 141.1 93.5 L 141.74029846191405 92.80149250030517 L 141.8 92.7 L 141.81836738586426 92.71632652282715 L 142.2 92.3 L 150.8 100.7 L 151.7 104.2 L 147.12448978424072 103.31700677871704 L 146.7 103.6 L 144.5 105.0 L 142.3 106.2 L 140.0 107.3 L 137.6 108.4 L 135.1 109.3 L 133.4262499809265 109.81499996185303 L 134.1 110.2 L 140.8 113.5 L 147.9 116.5 L 148.10435962677002 116.5735694885254 L 150.8 114.5 L 153.2 112.6 L 155.5 110.6 L 157.7 108.7 L 159.7 106.6 L 161.6 104.6 L 163.4 102.5 L 164.40125789642335 101.18584909439087 L 164.3 101.1 L 165.3 100.1 L 173.5 108.9 L 174.2 112.4 L 170.03461542129517 111.37692308425903 L 168.2 112.6 L 165.4 114.2 L 162.5 115.8 L 159.5 117.1 L 156.5 118.3 L 154.65843696594237 118.93303728103638 L 155.4 119.2 L 163.3 121.6 L 171.6 123.7 L 180.4 125.5 L 189.3 127.5 L 177.5 138.4 L 168.4 135.8 Z M 46.9 116.8 L 45.9 115.3 L 44.7 113.8 L 43.4 112.2 L 41.9 110.6 L 38.6 107.3 L 36.7 105.5 L 34.5 104.2 L 35.2 102.6 L 37.7 103.5 L 40.3 104.0 L 42.8 104.7 L 45.2 105.4 L 47.5 106.2 L 49.7 107.2 L 51.7 108.2 L 53.7 109.3 L 55.6 110.4 L 57.4 111.7 L 58.9 116.1 L 56.9 120.2 L 52.6 121.6 L 48.5 119.7 L 47.8 118.3 Z M 34.4 74.8 L 33.4 78.9 L 32.1 82.9 L 30.3 86.7 L 28.2 90.2 L 25.7 93.4 L 22.9 96.4 L 19.7 99.1 L 16.2 101.4 L 12.5 103.7 L 11.4 102.3 L 14.2 99.2 L 16.4 96.0 L 18.4 92.8 L 19.9 89.7 L 21.2 86.5 L 22.1 83.4 L 22.8 80.2 L 23.1 77.0 L 23.2 73.8 L 23.0 70.4 L 23.0 42.9 L 35.0 48.9 L 82.0 48.9 L 88.0 43.9 L 96.18000001907349 50.59272727966309 L 100.1 48.9 L 103.7 46.7 L 106.8 44.4 L 109.3 42.2 L 111.3 39.9 L 112.7 37.7 L 113.6 35.5 L 114.1 33.3 L 114.2 31.1 L 114.0 28.8 L 114.0 10.3 L 126.0 16.3 L 150.0 16.3 L 156.0 11.3 L 167.0 20.3 L 162.0 24.3 L 162.0 33.5 L 161.9 34.8 L 161.9 35.7 L 162.0 36.4 L 162.0 36.9 L 162.4 37.7 L 162.8 38.1 L 163.5 38.5 L 164.6 38.8 L 166.0 39.0 L 176.5 39.0 L 181.0 26.0 L 183.0 26.0 L 181.0 39.0 L 183.7 40.8 L 185.5 43.5 L 183.7 46.2 L 181.0 48.0 L 163.5 48.0 L 161.2 47.8 L 158.9 47.2 L 156.7 46.2 L 154.7 44.7 L 153.1 42.9 L 151.7 40.8 L 150.8 38.5 L 150.2 36.1 L 150.0 33.5 L 150.0 20.3 L 126.0 20.3 L 126.0 28.8 L 125.3 32.9 L 123.9 36.6 L 122.0 40.0 L 119.5 43.0 L 116.6 45.5 L 113.3 47.6 L 109.6 49.3 L 105.5 50.6 L 101.0 51.6 L 98.08022594451904 52.14745759963989 L 99.0 52.9 L 94.0 56.9 L 94.0 72.4 L 82.0 78.4 L 82.0 72.4 L 34.72727270126343 72.4 Z M 158.5 93.6 L 150.3 90.9 L 142.8 87.7 L 136.2 83.9 L 133.97200288772584 82.20979528427124 L 125.2 84.0 L 114.2 85.5 L 102.2 86.4 L 89.0 86.8 L 88.9 85.0 L 101.7 82.7 L 113.3 80.2 L 123.7 77.6 L 127.38759183883667 76.42483339309692 L 125.6 74.6 L 121.7 69.2 L 119.0 63.3 L 117.5777777671814 57.7 L 107.0 57.7 L 107.0 53.7 L 160.0 53.7 L 166.0 48.7 L 177.0 57.7 L 172.0 60.7 L 169.31299438476563 61.819585704803465 L 168.3 63.6 L 163.8 68.6 L 158.1 72.8 L 151.5 76.4 L 146.81181106567382 78.26325454711915 L 146.9 78.3 L 153.7 80.4 L 161.2 82.1 L 169.5 83.4 L 178.6 84.2 L 189.2 85.3 L 177.3 97.4 L 167.5 95.7 Z M 120.0285714149475 57.7 L 122.6 61.3 L 126.4 65.6 L 130.7 69.4 L 135.5 72.8 L 136.38664684295654 73.29258155822754 L 140.7 71.6 L 147.2 68.2 L 152.3 64.6 L 156.2 61.0 L 158.51891889572144 57.7 Z M 35.0 52.9 L 35.0 68.4 L 53.0 68.4 L 53.0 52.9 Z M 65.0 52.9 L 65.0 68.4 L 82.0 68.4 L 82.0 52.9 Z M 20.0 38.3 L 53.0 38.3 L 53.0 27.6 L 13.0 27.6 L 13.0 23.6 L 53.0 23.6 L 53.0 11.5 L 65.0 13.5 L 68.0 15.5 L 65.0 17.3 L 65.0 23.6 L 89.81818180084228 23.6 L 98.0 14.6 L 108.0 23.6 L 108.0 27.6 L 65.0 27.6 L 65.0 38.3 L 84.77777776718139 38.3 L 91.0 31.3 L 99.0 38.3 L 99.0 42.3 L 20.0 42.3 Z " />
</g>
</svg>
