<svg xmlns="http://www.w3.org/2000/svg" xmlns:xlink="http://www.w3.org/1999/xlink" version="1.1" baseProfile="full" viewBox="0 0 200 200" width="200" height="200">
<g fill="black">
<path d="M 32.4 26.0 L 84.9 26.0 L 94.9 16.0 L 106.9 26.0 L 106.9 30.0 L 32.4 30.0 L 32.4 91.0 L 32.0 105.0 L 31.2 118.2 L 30.1 130.4 L 28.7 141.7 L 27.0 152.1 L 24.9 161.5 L 22.5 170.0 L 19.6 177.6 L 16.4 184.0 L 12.6 189.4 L 11.1 188.5 L 12.9 182.5 L 14.6 175.9 L 16.1 168.4 L 17.5 160.1 L 18.6 150.8 L 19.5 140.7 L 20.1 129.6 L 20.5 117.7 L 20.6 104.8 L 20.4 91.0 L 20.4 20.0 Z M 88.6 172.9 L 86.2 169.8 L 83.7 166.9 L 81.1 164.1 L 75.5 158.9 L 72.5 156.4 L 69.5 154.0 L 67.67317409515381 152.72675771713256 L 66.8 155.1 L 61.8 164.0 L 55.9 171.5 L 49.2 177.5 L 41.9 182.2 L 34.0 185.6 L 25.6 188.1 L 25.0 186.4 L 32.4 182.2 L 39.0 177.7 L 45.0 172.5 L 50.1 166.6 L 54.5 159.6 L 58.2 151.5 L 61.0 141.9 L 63.0 130.6 L 64.0 117.5 L 64.0 100.0 L 76.0 102.2 L 79.0 104.1 L 75.85411548614502 106.09025344848632 L 75.4 118.2 L 73.6 132.3 L 72.79132041931152 135.7020314216614 L 74.0 134.6 L 77.3 131.7 L 80.3 128.9 L 83.1 126.4 L 85.7 124.0 L 88.0 121.8 L 91.9 117.9 L 92.71818180084229 116.91818180084229 L 92.6 116.8 L 93.5 116.0 L 101.1 125.3 L 101.5 128.9 L 97.46224899291992 127.50514059066772 L 96.4 128.1 L 93.7 129.6 L 90.8 131.2 L 87.6 132.9 L 84.2 134.6 L 80.5 136.4 L 76.5 138.3 L 72.2 140.2 L 71.66097917556763 140.45725994110109 L 70.7 144.5 L 68.48965520858765 150.507603931427 L 70.8 151.1 L 74.8 152.3 L 78.7 153.8 L 82.4 155.7 L 86.1 157.8 L 89.6 160.2 L 93.1 162.9 L 96.4 165.8 L 99.6 168.9 L 102.8 172.2 L 103.9 176.7 L 101.6 180.7 L 97.2 181.8 L 93.2 179.5 L 91.0 176.1 Z M 182.6 147.0 L 184.6 147.0 L 182.6 172.0 L 186.2 174.4 L 188.6 178.0 L 186.2 181.6 L 182.6 184.0 L 148.9 184.0 L 146.3 183.8 L 143.8 183.4 L 141.4 182.6 L 139.2 181.3 L 137.2 179.7 L 135.5 177.7 L 134.3 175.4 L 133.5 173.0 L 133.0 170.5 L 132.9 168.0 L 132.9 124.96122446060181 L 103.8 130.9 L 103.0 127.0 L 132.9 120.90527582168579 L 132.9 90.404132270813 L 106.3 95.9 L 105.5 92.0 L 132.9 86.33884296417236 L 132.9 50.81066665649414 L 130.6 51.7 L 122.8 54.3 L 114.7 56.7 L 106.2 58.8 L 105.6 57.1 L 113.3 53.1 L 120.8 49.3 L 128.0 45.6 L 134.9 42.0 L 141.6 38.3 L 147.9 34.6 L 153.9 30.9 L 159.6 27.2 L 165.0 23.4 L 170.1 19.6 L 175.17975463867188 26.81472396850586 L 177.3 29.2 L 177.4 32.8 L 173.8625309944153 31.293300247192384 L 171.2 32.9 L 165.2 36.3 L 158.8 39.6 L 152.2 42.8 L 145.3 45.9 L 141.49512195587158 47.43252029418945 L 144.9 48.0 L 147.9 50.0 L 144.9 51.8 L 144.9 83.85950412750245 L 156.53549842834474 81.45547552108765 L 164.3 69.6 L 178.1 77.0 L 178.9 80.9 L 144.9 87.92479343414307 L 144.9 118.45923261642456 L 164.72062902450563 114.41905641555786 L 172.6 102.6 L 186.4 110.0 L 187.1 113.9 L 144.9 122.51224489212036 L 144.9 168.0 L 145.0 169.2 L 145.1 170.1 L 145.3 170.7 L 145.5 171.0 L 145.6 171.2 L 145.8 171.4 L 146.2 171.5 L 146.8 171.7 L 147.7 171.9 L 148.9 172.0 L 176.6 172.0 Z M 35.5 153.6 L 33.7 149.3 L 35.4 145.1 L 37.2 143.6 L 38.8 141.9 L 40.4 140.0 L 41.8 137.7 L 43.1 135.1 L 44.3 132.3 L 45.3 129.1 L 46.2 125.5 L 47.0 121.7 L 47.3 117.6 L 49.1 117.4 L 49.8 121.6 L 50.5 125.7 L 50.9 129.6 L 50.9 133.4 L 50.6 137.1 L 50.0 140.7 L 49.0 144.1 L 47.7 147.4 L 46.0 150.5 L 44.0 153.5 L 39.7 155.2 Z M 102.7 56.6 L 98.8 55.01111106872558 L 97.2 55.9 L 94.4 57.5 L 91.4 59.1 L 88.3 60.8 L 85.0 62.5 L 81.6 64.3 L 78.1 66.0 L 74.3 67.8 L 73.80675086975097 68.05960483551026 L 73.5 69.5 L 71.33961811065674 76.2599045753479 L 73.5 76.8 L 77.4 78.0 L 81.3 79.6 L 85.0 81.4 L 88.7 83.5 L 92.2 85.9 L 95.7 88.6 L 99.0 91.5 L 102.3 94.6 L 105.4 98.0 L 106.5 102.4 L 104.2 106.4 L 99.8 107.5 L 95.8 105.2 L 93.6 101.8 L 91.3 98.6 L 88.9 95.6 L 86.3 92.6 L 83.7 89.8 L 81.0 87.2 L 78.1 84.6 L 75.1 82.1 L 72.1 79.7 L 70.5789984703064 78.63990802764893 L 70.4 79.2 L 66.4 88.0 L 61.4 95.6 L 55.6 102.1 L 49.0 107.3 L 41.6 111.2 L 33.5 113.8 L 32.9 112.1 L 39.8 107.9 L 45.7 103.1 L 50.8 97.6 L 55.1 91.3 L 58.7 84.2 L 61.6 76.2 L 63.8 67.3 L 65.2 57.3 L 65.8 46.3 L 65.8 35.4 L 65.7 32.0 L 77.8 34.2 L 80.8 36.1 L 77.61700191497803 38.07345876693726 L 77.2 46.9 L 75.8 58.7 L 74.87416048049927 63.04742012023926 L 75.5 62.4 L 81.0 56.9 L 83.7 54.4 L 86.3 52.0 L 88.7 49.7 L 91.1 47.5 L 93.3 45.3 L 94.67694072723388 43.988627910614014 L 94.6 43.9 L 95.4 43.3 L 102.5 53.0 Z M 39.2 81.3 L 37.0 77.2 L 38.2 72.8 L 40.0 71.0 L 41.7 69.0 L 43.1 66.8 L 44.5 64.4 L 45.7 61.6 L 46.7 58.7 L 47.6 55.5 L 48.3 52.0 L 49.0 48.2 L 49.1 44.2 L 50.9 44.0 L 51.7 48.0 L 52.6 52.0 L 53.2 55.8 L 53.4 59.6 L 53.2 63.3 L 52.8 66.9 L 52.0 70.4 L 50.9 73.8 L 49.4 77.1 L 47.6 80.3 L 43.6 82.5 Z " />
</g>
</svg>
