<svg xmlns="http://www.w3.org/2000/svg" xmlns:xlink="http://www.w3.org/1999/xlink" version="1.1" baseProfile="full" viewBox="0 0 200 200" width="200" height="200">
<g fill="black">
<path d="M 182.0 147.0 L 184.0 147.0 L 182.0 172.0 L 185.6 174.4 L 188.0 178.0 L 185.6 181.6 L 182.0 184.0 L 55.0 184.0 L 52.4 183.8 L 49.9 183.4 L 47.5 182.6 L 45.2 181.3 L 43.2 179.7 L 41.6 177.7 L 40.3 175.4 L 39.5 173.0 L 39.1 170.5 L 39.0 168.0 L 39.0 119.84285717010498 L 15.4 124.9 L 14.5 121.0 L 39.0 115.75 L 39.0 85.16000003814698 L 15.3 89.9 L 14.6 86.0 L 39.0 81.11999998092651 L 39.0 45.593506526947024 L 36.5 46.6 L 28.5 49.6 L 20.1 52.3 L 11.3 54.8 L 10.6 53.1 L 18.6 48.8 L 26.4 44.6 L 33.8 40.6 L 40.8 36.7 L 47.5 32.8 L 53.9 29.0 L 59.9 25.1 L 65.5 21.3 L 70.7 17.5 L 74.81058835983276 14.312196731567383 L 74.8 14.3 L 75.6 13.7 L 82.7 23.4 L 82.8 27.0 L 79.34142541885376 25.499109172821044 L 77.1 26.9 L 71.2 30.4 L 65.0 33.8 L 58.4 37.1 L 51.5 40.4 L 51.0 40.612328720092776 L 51.0 78.71999998092652 L 57.971753215789796 77.32564935684204 L 65.8 65.5 L 79.6 73.0 L 80.3 76.9 L 51.0 82.76000003814697 L 51.0 113.17857141494751 L 63.04577054977417 110.59733486175537 L 70.7 98.7 L 84.5 106.0 L 85.4 109.9 L 51.0 117.27142858505249 L 51.0 169.2 L 51.2 170.1 L 51.5 171.0 L 51.9 171.4 L 52.8 171.7 L 53.7 171.9 L 55.0 172.0 L 176.0 172.0 Z M 156.4 13.9 L 159.4 15.9 L 156.4 17.7 L 156.4 107.6952772140503 L 166.46889572143556 106.11361293792724 L 174.8 94.7 L 188.2 102.7 L 188.8 106.6 L 156.4 111.68952770233155 L 156.4 156.1 L 144.4 162.1 L 144.4 113.5745379447937 L 91.4 121.9 L 90.8 118.0 L 144.4 109.58028745651245 L 144.4 11.9 Z M 114.3 89.4 L 112.7 87.1 L 111.0 84.8 L 109.1 82.4 L 107.0 80.1 L 104.8 77.6 L 102.4 75.2 L 99.9 72.6 L 97.1 70.2 L 98.0 68.7 L 101.4 70.3 L 104.8 71.7 L 108.1 73.2 L 114.1 76.6 L 119.5 80.4 L 122.0 82.4 L 124.4 84.6 L 126.6 86.8 L 127.6 91.2 L 125.3 95.2 L 120.9 96.2 L 116.9 93.9 L 115.7 91.7 Z M 121.0 52.0 L 119.4 49.7 L 117.7 47.4 L 115.8 45.0 L 113.7 42.7 L 111.5 40.2 L 109.1 37.8 L 106.6 35.2 L 103.8 32.8 L 104.7 31.3 L 108.1 32.9 L 111.5 34.3 L 114.8 35.8 L 117.9 37.5 L 120.8 39.2 L 123.6 41.1 L 126.2 43.0 L 128.7 45.0 L 131.1 47.2 L 133.3 49.4 L 134.4 53.8 L 132.1 57.8 L 127.6 58.8 L 123.7 56.5 L 122.4 54.3 Z " />
</g>
</svg>
