<svg xmlns="http://www.w3.org/2000/svg" xmlns:xlink="http://www.w3.org/1999/xlink" version="1.1" baseProfile="full" viewBox="0 0 200 200" width="200" height="200">
<g fill="black">
<path d="M 91.9 161.2 L 89.5 158.5 L 86.9 155.8 L 83.9 153.1 L 80.5 150.5 L 76.9 147.9 L 72.9 145.4 L 68.6 142.8 L 67.5 142.20217390060424 L 67.5 183.1 L 55.5 189.1 L 55.5 146.12325582504272 L 52.7 149.9 L 48.1 155.4 L 43.1 160.5 L 37.7 165.4 L 31.9 169.8 L 25.6 173.9 L 18.9 177.6 L 11.8 180.8 L 10.9 179.2 L 16.9 174.4 L 22.5 169.6 L 27.7 164.8 L 32.5 159.8 L 36.9 154.8 L 40.9 149.5 L 44.5 144.1 L 47.8 138.5 L 50.6 132.8 L 51.2222222328186 131.2 L 15.5 131.2 L 15.5 127.2 L 55.5 127.2 L 55.5 109.9 L 67.5 111.9 L 70.5 113.9 L 67.5 115.7 L 67.5 127.2 L 87.9 127.2 L 97.9 117.2 L 109.9 127.2 L 109.9 131.2 L 67.5 131.2 L 67.5 139.1226414680481 L 69.8 139.6 L 74.9 140.9 L 79.7 142.4 L 84.2 144.2 L 88.4 146.3 L 92.4 148.6 L 96.0 151.1 L 99.5 153.8 L 102.6 156.8 L 105.5 160.0 L 106.4 164.5 L 104.0 168.3 L 99.5 169.2 L 95.6 166.8 L 93.9 164.0 Z M 182.5 147.0 L 184.5 147.0 L 182.5 172.0 L 186.1 174.4 L 188.5 178.0 L 186.1 181.6 L 182.5 184.0 L 153.6 184.0 L 151.0 183.8 L 148.5 183.4 L 146.1 182.6 L 143.8 181.3 L 141.8 179.7 L 140.2 177.7 L 138.9 175.4 L 138.1 173.0 L 137.7 170.5 L 137.6 168.0 L 137.6 125.12641506195068 L 112.4 130.9 L 111.5 127.0 L 137.6 121.02021560668945 L 137.6 90.56769704818726 L 114.6 95.9 L 113.7 92.0 L 137.6 86.45904169082641 L 137.6 51.140298461914064 L 136.5 51.6 L 129.4 54.3 L 122.1 56.7 L 114.5 58.8 L 113.8 57.1 L 120.6 53.2 L 127.2 49.4 L 133.6 45.7 L 139.7 42.0 L 145.5 38.4 L 151.1 34.7 L 156.4 31.0 L 161.4 27.3 L 166.2 23.6 L 170.7 19.8 L 170.73772764205933 19.848434066772462 L 170.8 19.8 L 178.1 29.3 L 178.4 32.9 L 174.7959231376648 31.52389793395996 L 172.9 32.8 L 167.5 36.2 L 161.8 39.5 L 155.8 42.7 L 149.6 45.8 L 146.1377049446106 47.42295083999634 L 149.6 48.0 L 152.6 50.0 L 149.6 51.8 L 149.6 83.67697067260742 L 157.00842161178588 81.95940761566162 L 164.4 70.0 L 178.4 77.0 L 179.3 80.9 L 149.6 87.78562593460083 L 149.6 118.27088947296143 L 164.29783716201783 114.90346050262451 L 171.8 102.9 L 185.7 110.0 L 186.6 113.9 L 149.6 122.37708892822266 L 149.6 169.2 L 149.8 170.1 L 150.0 170.7 L 150.2 171.0 L 150.3 171.2 L 150.5 171.4 L 151.4 171.7 L 152.3 171.9 L 153.6 172.0 L 176.5 172.0 Z M 47.3 103.2 L 50.9 103.2 L 50.9 28.0 L 47.3 28.0 L 47.3 24.0 L 85.5 24.0 L 95.5 14.0 L 107.5 24.0 L 107.5 28.0 L 62.9 28.0 L 62.9 48.2 L 92.4 48.2 L 98.4 43.2 L 109.4 52.2 L 104.4 56.2 L 104.4 83.2 L 92.4 89.2 L 92.4 79.2 L 62.9 79.2 L 62.9 103.2 L 88.0 103.2 L 98.0 93.2 L 110.0 103.2 L 110.0 107.2 L 47.3 107.2 Z M 28.5 112.1 L 24.5 109.9 L 23.0 105.6 L 23.6 102.2 L 23.9 99.1 L 23.8 96.4 L 23.6 93.8 L 23.0 91.5 L 22.2 89.4 L 21.876482486724854 88.87739486694336 L 20.6 88.5 L 21.065957450866698 87.56808509826661 L 20.9 87.3 L 19.3 85.3 L 17.2 83.3 L 14.4 81.9 L 15.0 80.2 L 18.2 81.0 L 21.5 81.8 L 23.625333309173584 82.8626667022705 L 24.6 81.2 L 26.6 77.7 L 29.1 73.5 L 31.9 68.7 L 35.2 63.4 L 38.9 57.4 L 43.1 50.8 L 47.9 43.7 L 49.5 44.5 L 46.5 52.6 L 43.6 59.8 L 41.0 66.3 L 38.7 72.1 L 36.7 77.2 L 35.1 81.6 L 33.7 85.3 L 32.8 88.3 L 32.2 90.6 L 32.1 91.9 L 31.968088245391847 91.86099996566773 L 33.0 94.2 L 34.1 98.0 L 34.8 102.1 L 35.0 106.6 L 32.9 110.6 Z M 62.9 52.2 L 62.9 75.2 L 92.4 75.2 L 92.4 52.2 Z M 23.9 54.3 L 23.5 53.3 L 22.8 52.2 L 21.9 50.9 L 20.7 49.7 L 19.3 48.4 L 17.6 47.0 L 15.7 45.6 L 13.5 44.7 L 14.0 43.0 L 16.4 43.6 L 18.9 43.7 L 21.2 44.0 L 23.3 44.3 L 25.4 44.8 L 27.4 45.4 L 29.2 46.1 L 31.0 47.0 L 32.7 48.2 L 34.2 49.5 L 34.9 54.0 L 32.3 57.8 L 27.8 58.5 L 24.0 55.9 L 24.1 55.2 Z M 32.5 28.8 L 32.0 27.8 L 31.3 26.6 L 30.4 25.4 L 29.3 24.1 L 28.0 22.8 L 26.4 21.5 L 24.7 20.1 L 22.7 19.2 L 23.2 17.5 L 25.4 18.1 L 27.8 18.2 L 30.0 18.5 L 32.1 18.8 L 34.0 19.3 L 35.9 19.9 L 37.8 20.7 L 39.5 21.5 L 41.1 22.6 L 42.7 23.8 L 43.6 28.3 L 41.1 32.2 L 36.7 33.1 L 32.8 30.6 L 32.7 29.8 Z " />
</g>
</svg>
