<svg xmlns="http://www.w3.org/2000/svg" xmlns:xlink="http://www.w3.org/1999/xlink" version="1.1" baseProfile="full" viewBox="0 0 200 200" width="200" height="200">
<g fill="black">
<path d="M 100.4 180.5 L 94.8 176.6 L 88.9 173.0 L 82.7 169.5 L 82.45143404006959 169.37380495071412 L 81.1 170.5 L 71.9 176.0 L 61.5 180.5 L 49.8 184.2 L 36.8 186.8 L 22.5 188.4 L 22.2 186.6 L 36.0 183.1 L 48.2 179.0 L 59.0 174.5 L 68.2 169.4 L 73.98711862564087 165.19118642807007 L 69.4 163.1 L 62.3 160.1 L 54.9 157.1 L 51.12099447250366 155.65801105499267 L 46.5 164.9 L 33.1 164.9 L 50.47460994720459 130.2 L 16.3 130.2 L 16.3 126.2 L 52.4774468421936 126.2 L 68.4 94.4 L 78.2 101.5 L 80.0 104.7 L 76.29090909957885 105.31818180084228 L 65.85 126.2 L 109.6 126.2 L 119.6 116.2 L 131.6 126.2 L 131.6 130.2 L 105.11485147476196 130.2 L 103.6 138.7 L 100.2 148.1 L 95.3 156.5 L 89.59543447494507 163.18503770828247 L 93.2 164.7 L 99.9 167.9 L 106.3 171.5 L 112.4 175.3 L 118.3 179.4 L 120.4 183.4 L 119.2 187.8 L 115.1 190.0 L 110.7 188.7 L 105.7 184.5 Z M 165.3 179.1 L 159.4 172.2 L 154.5 163.8 L 150.5 153.8 L 147.4 142.4 L 145.1 129.6 L 143.6 115.2 L 142.9 99.3 L 142.9874285697937 84.0 L 36.0 84.0 L 36.0 80.0 L 143.0 80.0 L 149.0 75.0 L 160.0 84.0 L 155.0 87.0 L 154.9 87.04166669845581 L 154.9 99.0 L 155.6 114.3 L 157.0 127.9 L 159.1 139.9 L 161.9 150.1 L 165.3 158.5 L 169.2 165.3 L 173.5 170.4 L 176.94362144470216 172.9109739303589 L 182.0 151.0 L 184.0 151.0 L 182.11123600006104 175.55393257141114 L 183.6 176.2 L 187.1 179.1 L 187.7 183.6 L 184.8 187.1 L 180.3 187.7 L 172.3 184.4 Z M 63.85 130.2 L 52.43257141113281 153.03485717773438 L 55.9 153.5 L 63.9 155.0 L 71.6 156.9 L 79.1 159.2 L 80.12857141494752 159.5714285850525 L 82.1 157.6 L 86.9 151.0 L 90.3 143.9 L 92.5 136.2 L 93.1 130.2 Z M 65.4 17.7 L 67.7 20.5 L 64.01014490127564 21.40628023147583 L 62.1 26.5 L 58.4 34.9 L 57.83625001907349 36.0 L 156.0 36.0 L 166.0 26.0 L 178.0 36.0 L 178.0 40.0 L 55.786250019073485 40.0 L 54.3 42.9 L 49.8 50.6 L 44.9 57.8 L 39.7 64.5 L 34.0 70.8 L 28.0 76.7 L 21.5 82.0 L 14.5 86.6 L 13.4 85.3 L 18.9 79.2 L 24.1 73.0 L 29.0 66.6 L 33.6 60.0 L 37.8 53.1 L 41.7 45.9 L 45.3 38.5 L 48.5 30.7 L 51.4 22.6 L 53.605524349212644 15.101217269897461 L 53.6 15.1 L 53.672727298736575 14.872727298736573 L 53.9 14.1 L 53.918178939819335 14.10569076538086 L 54.4 12.6 Z M 166.0 58.0 L 166.0 62.0 L 52.0 62.0 L 52.0 58.0 L 147.8181818008423 58.0 L 156.0 49.0 Z " />
</g>
</svg>
