<svg xmlns="http://www.w3.org/2000/svg" xmlns:xlink="http://www.w3.org/1999/xlink" version="1.1" baseProfile="full" viewBox="0 0 200 200" width="200" height="200">
<g fill="black">
<path d="M 68.9 184.8 L 66.5 184.4 L 64.1 183.7 L 61.9 182.5 L 59.9 180.9 L 58.2 179.0 L 57.0 176.8 L 56.1 174.4 L 55.6 171.9 L 55.5 169.4 L 55.5 156.9 L 40.4 156.9 L 40.4 168.9 L 28.4 174.9 L 28.4 106.6 L 40.4 112.6 L 83.1 112.6 L 89.1 107.6 L 100.1 116.6 L 95.1 120.6 L 95.1 160.9 L 83.1 166.9 L 83.1 156.9 L 67.5 156.9 L 67.5 170.6 L 67.6 171.5 L 67.7 172.2 L 67.9 172.5 L 68.0 172.8 L 68.2 173.0 L 68.6 173.3 L 69.2 173.5 L 70.2 173.7 L 71.5 173.9 L 100.8 173.9 L 106.3 152.9 L 108.3 152.9 L 106.3 173.9 L 109.6 176.1 L 111.8 179.4 L 109.6 182.7 L 106.3 184.9 L 71.5 184.9 Z M 183.2 147.0 L 185.2 147.0 L 183.2 172.0 L 186.7 174.4 L 189.2 178.0 L 186.7 181.6 L 183.2 184.0 L 150.8 184.0 L 148.2 183.8 L 145.7 183.4 L 143.3 182.6 L 141.0 181.3 L 139.0 179.7 L 137.4 177.7 L 136.1 175.4 L 135.3 173.0 L 134.9 170.5 L 134.8 168.0 L 134.8 125.00891084671021 L 106.8 130.9 L 105.9 127.0 L 134.8 120.91955442428589 L 134.8 90.44545450210572 L 109.2 95.9 L 108.3 92.0 L 134.8 86.35369319915772 L 134.8 50.832876682281494 L 132.8 51.6 L 125.2 54.3 L 117.3 56.7 L 109.1 58.8 L 108.4 57.1 L 115.9 53.2 L 123.1 49.3 L 130.1 45.6 L 136.8 42.0 L 143.2 38.3 L 149.3 34.6 L 155.2 30.9 L 160.7 27.2 L 165.9 23.5 L 170.06158990859984 20.272644519805908 L 170.0 20.2 L 170.0620638847351 20.272276973724367 L 170.8 19.7 L 177.27342596054078 28.67031888961792 L 177.9 29.4 L 177.8 29.4 L 177.73333330154418 29.441666698455812 L 177.9 29.4 L 178.1 32.9 L 174.52825107574463 31.444843006134032 L 172.2 32.9 L 166.4 36.3 L 160.2 39.6 L 153.8 42.8 L 147.1 45.9 L 143.39918031692505 47.43319673538208 L 146.8 48.0 L 149.8 50.0 L 146.8 51.8 L 146.8 83.796875 L 157.26524543762207 81.5670641899109 L 164.9 69.7 L 178.7 77.0 L 179.6 80.9 L 146.8 87.88863639831543 L 146.8 118.39480199813843 L 165.24595947265624 114.5138451576233 L 172.9 102.7 L 186.7 110.0 L 187.6 113.9 L 146.8 122.48415842056275 L 146.8 169.2 L 147.0 170.1 L 147.3 171.0 L 147.7 171.4 L 148.6 171.7 L 149.5 171.9 L 150.8 172.0 L 177.2 172.0 Z M 40.4 136.3 L 40.4 152.9 L 55.5 152.9 L 55.5 136.3 Z M 67.5 136.3 L 67.5 152.9 L 83.1 152.9 L 83.1 136.3 Z M 40.4 116.6 L 40.4 132.3 L 55.5 132.3 L 55.5 116.6 Z M 67.5 116.6 L 67.5 132.3 L 83.1 132.3 L 83.1 116.6 Z M 86.0 50.1 L 85.6 48.3 L 85.0 46.4 L 84.3 44.5 L 83.4 42.5 L 82.3 40.5 L 81.1 38.5 L 79.7 36.3 L 78.58235292434692 35.3 L 76.26000003814697 35.3 L 75.3 36.9 L 73.0 40.2 L 70.4 43.3 L 67.6 46.2 L 64.6 48.9 L 64.05193367004395 49.34198894500732 L 68.0 50.0 L 71.0 52.0 L 68.0 53.8 L 68.0 68.3 L 79.7 68.3 L 89.7 58.3 L 101.7 68.3 L 101.7 72.3 L 78.225 72.3 L 86.1 76.8 L 88.0 79.9 L 83.72872066497803 80.42454309463501 L 83.2 81.2 L 81.7 83.5 L 80.0 85.8 L 78.3 88.3 L 76.4 90.8 L 74.4 93.4 L 72.3 96.0 L 70.0 98.7 L 69.65517244338989 99.2 L 89.81818180084228 99.2 L 98.0 90.2 L 108.0 99.2 L 108.0 103.2 L 15.5 103.2 L 15.5 99.2 L 50.6375 99.2 L 46.7 98.5 L 44.0 94.8 L 43.9 92.6 L 43.7 90.4 L 43.5 88.3 L 43.2 86.2 L 42.8 84.2 L 42.4 82.3 L 41.9 80.3 L 41.3 78.4 L 40.7 76.4 L 39.6 74.8 L 40.9 73.6 L 42.5 75.0 L 44.3 76.2 L 46.1 77.6 L 47.8 79.2 L 49.3 81.0 L 50.8 83.0 L 52.2 85.1 L 53.4 87.3 L 54.6 89.6 L 55.7 92.1 L 54.9 96.6 L 51.33703699111938 99.2 L 66.99090909957886 99.2 L 67.7 97.4 L 68.7 94.1 L 69.6 90.9 L 70.6 87.8 L 71.5 84.9 L 72.3 82.1 L 73.1 79.4 L 73.8 76.8 L 74.5 74.3 L 74.85168066024781 72.9518907546997 L 74.7 72.9 L 74.95714282989502 72.3 L 21.8 72.3 L 21.8 68.3 L 56.0 68.3 L 56.0 48.0 L 61.06301374435425 48.84383563995361 L 62.3 46.9 L 65.5 40.1 L 66.9 36.7 L 68.2 33.3 L 69.3 29.9 L 70.2 26.4 L 71.0 22.9 L 71.6 19.2 L 72.0 15.5 L 72.07592859268189 15.514799690246582 L 72.4 13.7 L 83.8 17.8 L 86.4 20.4 L 82.52932329177857 21.807518768310548 L 82.5 21.9 L 81.1 25.9 L 79.3 29.7 L 78.47837839126586 31.3 L 93.30180177688598 31.3 L 101.5 22.2 L 111.5 31.3 L 111.5 35.3 L 82.76666669845581 35.3 L 83.6 35.7 L 85.9 37.0 L 88.0 38.4 L 90.1 40.0 L 91.9 41.8 L 93.7 43.7 L 95.2 45.7 L 96.7 47.8 L 97.9 50.1 L 97.4 54.6 L 94.0 57.6 L 89.4 57.1 L 86.5 53.6 L 86.3 51.9 Z M 40.6 50.1 L 40.2 48.3 L 39.6 46.4 L 38.8 44.5 L 37.9 42.5 L 36.9 40.5 L 35.6 38.5 L 34.3 36.3 L 33.18235292434692 35.3 L 32.29375 35.3 L 31.0 38.0 L 28.6 42.6 L 25.9 47.0 L 22.9 51.3 L 19.6 55.3 L 16.1 59.0 L 12.1 62.4 L 10.7 61.3 L 13.0 56.8 L 15.2 52.3 L 17.3 47.9 L 19.2 43.5 L 20.9 39.0 L 22.4 34.5 L 23.8 29.9 L 24.9 25.2 L 25.9 20.4 L 26.456271934509278 16.506096172332764 L 26.4 16.5 L 26.57142858505249 15.7 L 26.6 15.5 L 26.613712978363036 15.502672863006591 L 27.0 13.7 L 38.4 17.8 L 41.0 20.4 L 37.281453132629395 21.752198886871337 L 36.9 23.1 L 35.2 28.2 L 34.022000026702884 31.3 L 47.30180177688599 31.3 L 55.5 22.2 L 65.5 31.3 L 65.5 35.3 L 37.36666669845581 35.3 L 38.2 35.7 L 40.5 37.0 L 42.6 38.4 L 44.6 40.0 L 46.5 41.8 L 48.2 43.7 L 49.8 45.7 L 51.2 47.8 L 52.5 50.1 L 52.0 54.6 L 48.5 57.6 L 44.0 57.1 L 41.0 53.6 L 40.9 51.9 Z " />
</g>
</svg>
