<svg xmlns="http://www.w3.org/2000/svg" xmlns:xlink="http://www.w3.org/1999/xlink" version="1.1" baseProfile="full" viewBox="0 0 200 200" width="200" height="200">
<g fill="black">
<path d="M 108.4 182.4 L 106.3 183.5 L 104.2 184.5 L 102.1 185.3 L 99.9 186.0 L 97.6 186.6 L 93.0 187.2 L 90.7 187.2 L 90.7 181.2 L 70.7 178.2 L 70.7 175.2 L 92.2 175.2 L 93.8 175.0 L 95.3 174.8 L 98.1 174.0 L 99.5 173.5 L 100.9 172.8 L 102.2 172.1 L 103.5 171.3 L 104.8 170.3 L 105.5 169.6 L 106.3 168.4 L 107.3 166.5 L 108.2 164.1 L 109.0 161.1 L 109.8 157.4 L 110.4 153.3 L 110.9 148.6 L 111.2 143.4 L 111.38620691299438 139.8 L 75.2079999923706 139.8 L 71.6 148.0 L 66.3 157.0 L 59.9 165.0 L 52.7 171.9 L 44.6 177.7 L 35.7 182.3 L 26.0 185.7 L 15.5 187.9 L 15.0 186.2 L 24.6 182.2 L 33.3 177.5 L 40.9 172.3 L 47.6 166.3 L 53.4 159.5 L 58.4 152.0 L 62.5 143.7 L 63.95714282989502 139.8 L 23.0 139.8 L 23.0 135.8 L 65.45164833068847 135.8 L 65.9 134.6 L 68.4 124.5 L 69.95909976959229 114.50341901779174 L 69.9 114.5 L 70.4 111.5 L 82.0 115.2 L 84.7 117.6 L 81.18090925216674 119.09887199401855 L 79.5 127.1 L 76.70642204284668 135.8 L 111.5 135.8 L 117.5 130.8 L 128.5 139.8 L 123.5 142.8 L 123.2357340812683 142.91011075973512 L 123.2 144.0 L 122.8 149.6 L 122.3 154.8 L 121.6 159.5 L 120.7 163.9 L 119.6 167.8 L 118.3 171.3 L 116.7 174.5 L 114.7 177.3 L 112.2 179.7 L 110.3 181.1 Z M 165.3 179.1 L 159.4 172.2 L 154.5 163.8 L 150.5 153.8 L 147.4 142.4 L 145.1 129.6 L 143.6 115.2 L 142.9 99.3 L 142.9874285697937 84.0 L 36.0 84.0 L 36.0 80.0 L 143.0 80.0 L 149.0 75.0 L 160.0 84.0 L 155.0 87.0 L 154.9 87.04166669845581 L 154.9 99.0 L 155.6 114.3 L 157.0 127.9 L 159.1 139.9 L 161.9 150.1 L 165.3 158.5 L 169.2 165.3 L 173.5 170.4 L 176.94362144470216 172.9109739303589 L 182.0 151.0 L 184.0 151.0 L 182.11123600006104 175.55393257141114 L 183.6 176.2 L 187.1 179.1 L 187.7 183.6 L 184.8 187.1 L 180.3 187.7 L 172.3 184.4 Z M 129.4 105.0 L 129.4 109.0 L 20.2 109.0 L 20.2 105.0 L 107.4 105.0 L 117.4 95.0 Z M 65.4 17.7 L 67.7 20.5 L 64.01014490127564 21.40628023147583 L 62.1 26.5 L 58.4 34.9 L 57.83625001907349 36.0 L 156.0 36.0 L 166.0 26.0 L 178.0 36.0 L 178.0 40.0 L 55.786250019073485 40.0 L 54.3 42.9 L 49.8 50.6 L 44.9 57.8 L 39.7 64.5 L 34.0 70.8 L 28.0 76.7 L 21.5 82.0 L 14.5 86.6 L 13.4 85.3 L 18.9 79.2 L 24.1 73.0 L 29.0 66.6 L 33.6 60.0 L 37.8 53.1 L 41.7 45.9 L 45.3 38.5 L 48.5 30.7 L 51.4 22.6 L 53.605524349212644 15.101217269897461 L 53.6 15.1 L 53.672727298736575 14.872727298736573 L 53.9 14.1 L 53.918178939819335 14.10569076538086 L 54.4 12.6 Z M 166.0 58.0 L 166.0 62.0 L 52.0 62.0 L 52.0 58.0 L 147.8181818008423 58.0 L 156.0 49.0 Z " />
</g>
</svg>
