<svg xmlns="http://www.w3.org/2000/svg" xmlns:xlink="http://www.w3.org/1999/xlink" version="1.1" baseProfile="full" viewBox="0 0 200 200" width="200" height="200">
<g fill="black">
<path d="M 86.1 26.0 L 167.9 26.0 L 173.9 21.0 L 184.9 30.0 L 179.9 34.0 L 179.9 178.0 L 167.9 184.0 L 167.9 174.0 L 86.1 174.0 L 86.1 181.0 L 74.1 187.0 L 74.1 20.0 Z M 37.0 186.9 L 33.0 184.9 L 31.5 180.5 L 32.0 173.5 L 32.1 167.0 L 31.7 161.2 L 30.8 156.0 L 29.4 151.3 L 28.228210544586183 148.6309239387512 L 27.7 148.5 L 27.922626399993895 147.93487138748168 L 27.6 147.2 L 25.3 143.5 L 22.5 140.1 L 19.1 137.0 L 15.0 134.1 L 15.6 132.4 L 20.9 133.6 L 25.8 135.8 L 30.1 139.0 L 31.18247013092041 140.1394422531128 L 33.2 135.6 L 36.1 129.2 L 39.6 121.6 L 43.7 112.8 L 48.4 103.0 L 53.8 91.9 L 59.9 79.8 L 66.8 66.6 L 68.4 67.3 L 63.4 81.3 L 58.7 94.0 L 54.5 105.5 L 50.7 115.8 L 47.5 124.8 L 44.7 132.6 L 42.5 139.2 L 40.9 144.6 L 39.8 148.7 L 39.4 151.4 L 38.775972557067874 151.24532651901245 L 39.7 153.2 L 41.6 159.4 L 42.8 166.1 L 43.4 173.5 L 43.4 181.4 L 41.4 185.4 Z M 105.0 156.3 L 117.0 156.3 L 118.2 156.2 L 119.1 156.0 L 119.7 155.9 L 120.0 155.7 L 120.4 155.3 L 120.7 154.4 L 120.9 153.5 L 121.0 152.3 L 121.0 81.96000003814697 L 120.6 82.2 L 119.9808455467224 82.45798101425171 L 119.3 87.8 L 117.5 97.3 L 115.4 106.4 L 112.8 114.8 L 109.7 122.7 L 106.3 130.0 L 102.4 136.6 L 98.1 142.6 L 93.2 147.8 L 88.0 152.3 L 86.7 151.0 L 90.3 145.4 L 93.6 139.6 L 96.7 133.4 L 99.4 126.8 L 101.8 119.8 L 103.8 112.2 L 105.6 104.1 L 107.0 95.5 L 108.0 86.4 L 108.5195876121521 79.2 L 89.6 79.2 L 89.6 75.2 L 108.6 75.2 L 114.6 70.2 L 121.0 75.43636360168458 L 121.0 34.4 L 133.0 36.4 L 136.0 38.4 L 133.0 40.2 L 133.0 63.8 L 134.6 73.4 L 137.3 86.1 L 138.80905046463013 91.69809045791627 L 140.2 89.4 L 142.4 85.7 L 144.5 82.3 L 146.4 78.9 L 148.3 75.7 L 150.0 72.7 L 151.5 69.8 L 152.9 67.0 L 153.71818180084227 65.15909090042115 L 153.6 65.1 L 154.6 63.4 L 164.4 70.5 L 165.9 73.7 L 161.80769233703614 73.7 L 160.2 75.6 L 157.9 78.3 L 155.4 81.0 L 152.8 83.8 L 149.9 86.6 L 146.9 89.5 L 143.7 92.3 L 140.2 95.2 L 139.8391897201538 95.51957483291626 L 140.4 97.6 L 143.9 108.0 L 147.9 117.3 L 152.4 125.3 L 157.2 132.2 L 162.4 138.0 L 167.9 142.6160714149475 L 167.9 30.0 L 86.1 30.0 L 86.1 170.0 L 167.9 170.0 L 167.9 146.83119268417357 L 159.7 153.0 L 153.3 146.6 L 147.6 139.1 L 142.7 130.7 L 138.5 121.3 L 135.1 111.0 L 133.0 102.525 L 133.0 152.3 L 132.8 154.8 L 132.4 157.3 L 131.6 159.7 L 130.3 162.0 L 128.7 164.0 L 126.7 165.7 L 124.4 166.9 L 122.0 167.7 L 119.5 168.1 L 117.0 168.3 L 117.0 162.3 L 105.0 159.3 Z M 31.9 83.2 L 30.7 81.3 L 29.1 79.3 L 27.3 77.2 L 25.2 75.2 L 22.7 73.1 L 20.0 71.0 L 17.0 68.9 L 13.5 67.1 L 14.1 65.4 L 17.9 66.4 L 21.7 67.2 L 25.3 68.3 L 28.7 69.6 L 31.8 71.0 L 34.7 72.7 L 37.4 74.6 L 39.9 76.6 L 42.1 79.0 L 44.1 81.5 L 44.5 86.0 L 41.6 89.6 L 37.1 90.0 L 33.5 87.1 L 32.8 85.2 Z M 45.0 37.3 L 43.7 35.3 L 42.2 33.2 L 40.4 31.2 L 38.3 29.1 L 36.0 27.1 L 33.5 25.0 L 30.7 22.9 L 27.5 21.1 L 28.1 19.5 L 31.8 20.5 L 35.3 21.3 L 38.7 22.4 L 41.9 23.6 L 44.9 25.1 L 47.8 26.7 L 50.4 28.6 L 52.9 30.6 L 55.2 32.9 L 57.2 35.3 L 57.8 39.9 L 55.0 43.5 L 50.5 44.1 L 46.8 41.4 L 46.0 39.4 Z " />
</g>
</svg>
