<svg xmlns="http://www.w3.org/2000/svg" xmlns:xlink="http://www.w3.org/1999/xlink" version="1.1" baseProfile="full" viewBox="0 0 200 200" width="200" height="200">
<g fill="black">
<path d="M 35.3 186.9 L 31.2 184.8 L 29.7 180.5 L 30.3 173.5 L 30.4 167.1 L 29.9 161.3 L 28.9 156.1 L 27.5 151.4 L 26.086545372009276 148.50241804122925 L 25.7 148.4 L 25.856564044952393 148.03095626831055 L 25.5 147.3 L 23.0 143.5 L 19.9 140.1 L 16.2 137.0 L 11.7 134.1 L 12.2 132.4 L 17.8 133.6 L 23.0 135.8 L 27.6 138.9 L 29.202240180969238 140.46316118240355 L 31.5 135.5 L 34.6 129.1 L 38.3 121.5 L 42.7 112.8 L 47.7 102.9 L 53.4 91.9 L 59.8 79.8 L 67.1 66.6 L 67.3 66.6875 L 67.3 20.0 L 79.3 26.0 L 171.6 26.0 L 177.6 21.0 L 188.6 30.0 L 183.6 34.0 L 183.6 178.0 L 171.6 184.0 L 171.6 174.0 L 79.3 174.0 L 79.3 181.0 L 67.3 187.0 L 67.3 70.95555553436279 L 63.3 81.4 L 58.3 94.1 L 53.7 105.6 L 49.6 115.9 L 46.1 124.9 L 43.2 132.7 L 40.8 139.3 L 39.0 144.7 L 37.9 148.8 L 37.4 151.5 L 36.84196138381958 151.35214366912842 L 37.7 153.1 L 39.7 159.3 L 41.1 166.1 L 41.7 173.5 L 41.7 181.4 L 39.6 185.5 Z M 79.3 30.0 L 79.3 170.0 L 171.6 170.0 L 171.6 30.0 Z M 113.6 90.0 L 110.5 95.6 L 107.86597366333008 99.70598220825195 L 108.3 100.0 L 111.5 101.8 L 114.5 103.8 L 117.2 105.9 L 119.7 108.1 L 122.1 110.3 L 124.3 112.7 L 126.3 115.1 L 128.1 117.6 L 129.8 120.1 L 129.8 124.7 L 126.6 128.0 L 122.0 128.0 L 118.7 124.8 L 118.1 122.6 L 117.4 120.3 L 116.4 117.9 L 115.2 115.4 L 113.8 112.9 L 112.3 110.3 L 110.6 107.6 L 108.6 104.9 L 106.6 102.0 L 106.4401478767395 101.82735967636108 L 103.4 106.1 L 99.4 111.0 L 95.0 115.8 L 90.3 120.2 L 85.1 124.3 L 83.8 123.1 L 87.4 117.7 L 90.8 112.4 L 94.1 107.2 L 97.0 101.9 L 99.8 96.6 L 102.2 91.3 L 104.4 85.9 L 106.4 80.4 L 108.0 74.9 L 109.15202369689942 70.20961780548096 L 109.1 70.2 L 109.36956520080567 69.32391300201417 L 109.4 69.2 L 109.40709047317505 69.20195598602295 L 109.9 67.6 L 121.0 72.4 L 123.3 75.2 L 119.63622808456421 76.18136749267578 L 118.8 78.5 L 116.7310344696045 83.5 L 123.6 83.5 L 123.6 32.2 L 135.6 34.2 L 138.6 36.2 L 135.6 38.0 L 135.6 56.2 L 151.9181818008423 56.2 L 160.1 47.2 L 170.1 56.2 L 170.1 60.2 L 135.6 60.2 L 135.6 83.5 L 149.9 83.5 L 155.9 78.5 L 166.9 87.5 L 161.9 90.5 L 160.38712873458863 91.13036308288574 L 158.1 98.5 L 153.5 109.4 L 147.9 119.5 L 141.3 128.8 L 133.8 137.3 L 125.4 144.9 L 116.0 151.7 L 105.8 157.7 L 94.7 162.7 L 82.7 166.7 L 82.0 165.0 L 93.1 159.2 L 103.1 153.0 L 112.2 146.4 L 120.4 139.3 L 127.6 131.6 L 133.8 123.3 L 139.2 114.4 L 143.7 104.9 L 147.3 94.8 L 149.210280418396 87.5 L 114.8280701637268 87.5 Z M 30.2 83.4 L 28.8 81.4 L 27.1 79.4 L 25.1 77.3 L 22.8 75.2 L 20.1 73.2 L 17.1 71.1 L 13.8 68.9 L 10.1 67.1 L 10.7 65.4 L 14.8 66.4 L 18.8 67.2 L 22.6 68.2 L 26.1 69.5 L 29.4 70.9 L 32.5 72.6 L 35.3 74.5 L 38.0 76.5 L 40.3 78.8 L 42.4 81.4 L 42.9 85.9 L 40.1 89.6 L 35.6 90.1 L 32.0 87.3 L 31.2 85.4 Z M 44.1 37.5 L 42.7 35.4 L 41.0 33.4 L 39.1 31.3 L 36.8 29.2 L 34.3 27.1 L 31.5 25.1 L 28.5 22.9 L 25.1 21.1 L 25.7 19.4 L 29.5 20.4 L 33.3 21.2 L 36.9 22.3 L 40.3 23.5 L 43.5 25.0 L 46.5 26.7 L 49.2 28.5 L 51.8 30.5 L 54.2 32.8 L 56.4 35.2 L 57.1 39.8 L 54.5 43.5 L 49.9 44.2 L 46.2 41.6 L 45.3 39.5 Z " />
</g>
</svg>
