<svg xmlns="http://www.w3.org/2000/svg" xmlns:xlink="http://www.w3.org/1999/xlink" version="1.1" baseProfile="full" viewBox="0 0 200 200" width="200" height="200">
<g fill="black">
<path d="M 179.7 121.0 L 174.7 124.0 L 172.61179275512694 124.87008638381958 L 158.6 182.3 L 145.5 185.1 L 161.98562784194945 121.0 L 114.1 121.0 L 114.1 117.0 L 162.7 117.0 L 168.7 112.0 Z M 31.4 186.9 L 27.4 184.9 L 25.8 180.6 L 26.3 173.5 L 26.4 166.9 L 26.1 161.0 L 25.5 155.8 L 24.4 151.1 L 23.669018363952638 148.90705518722535 L 22.7 148.7 L 23.15692310333252 147.37076921463012 L 23.0 146.9 L 21.2 143.3 L 19.0 140.0 L 16.4 137.0 L 13.1 134.2 L 13.8 132.5 L 18.4 133.8 L 22.6 136.0 L 26.137980365753172 138.97935190200806 L 27.3 135.9 L 29.8 129.4 L 32.8 121.8 L 36.3 113.1 L 40.3 103.1 L 44.9 92.1 L 50.1 79.9 L 56.0 66.6 L 57.7 67.3 L 53.7 81.2 L 50.0 93.9 L 46.5 105.3 L 43.5 115.6 L 40.9 124.6 L 38.7 132.4 L 36.9 139.0 L 35.6 144.3 L 34.8 148.4 L 34.4 151.2 L 33.50336446762085 151.00841121673585 L 34.5 153.5 L 36.1 159.5 L 37.2 166.2 L 37.7 173.5 L 37.8 181.3 L 35.7 185.4 Z M 73.2 41.7 L 89.0 41.7 L 95.0 36.7 L 106.0 45.7 L 101.0 49.7 L 101.0 140.2 L 89.0 146.2 L 89.0 134.2 L 73.2 134.2 L 73.2 146.2 L 61.2 152.2 L 61.2 35.7 Z M 73.2 45.7 L 73.2 130.2 L 89.0 130.2 L 89.0 45.7 Z M 168.7 88.1 L 164.2 82.1 L 159.9 75.5 L 155.8 68.3 L 152.0 60.6 L 148.5 52.2 L 145.3 43.2 L 142.81152992248536 34.87649669647217 L 141.3 39.5 L 137.6 49.5 L 133.6 59.1 L 129.3 68.4 L 124.6 77.3 L 119.6 85.8 L 114.3 93.9 L 108.6 101.4 L 102.4 108.5 L 101.0 107.4 L 105.4 99.3 L 109.7 91.1 L 113.9 82.6 L 117.8 73.9 L 121.5 65.0 L 125.0 55.7 L 128.1 46.1 L 131.1 36.2 L 133.7 26.0 L 136.1 15.5 L 136.12110004425048 15.50504961013794 L 136.5 13.8 L 147.8 18.3 L 150.2 21.0 L 146.71588764190673 22.076907444000245 L 144.75484647750855 28.908922004699708 L 146.3 32.1 L 150.7 40.9 L 155.1 49.1 L 159.4 56.7 L 163.8 63.5 L 168.3 69.7 L 172.9 75.3 L 177.5 80.1 L 182.1 84.2 L 186.7 87.7 L 189.6 89.9 L 178.7 98.2 L 173.6 93.4 Z M 162.0 87.0 L 162.0 91.0 L 123.2 91.0 L 123.2 87.0 L 143.8181818008423 87.0 L 152.0 78.0 Z M 26.2 82.8 L 25.3 80.9 L 24.2 78.9 L 22.8 76.9 L 21.2 74.9 L 19.3 72.9 L 17.1 70.9 L 14.7 68.8 L 11.9 67.2 L 12.6 65.5 L 15.8 66.6 L 19.1 67.4 L 22.1 68.5 L 25.0 69.8 L 27.7 71.3 L 30.2 73.0 L 32.6 74.9 L 34.7 77.0 L 36.7 79.3 L 38.4 81.8 L 38.4 86.4 L 35.3 89.7 L 30.7 89.7 L 27.4 86.6 L 26.9 84.7 Z M 37.1 36.9 L 36.1 34.9 L 35.0 32.9 L 33.6 30.9 L 32.1 28.9 L 30.3 26.9 L 26.2 22.8 L 23.6 21.2 L 24.3 19.5 L 27.3 20.6 L 30.4 21.5 L 33.3 22.6 L 36.0 23.9 L 38.6 25.4 L 41.1 27.0 L 43.4 28.9 L 45.5 31.0 L 47.5 33.2 L 49.3 35.6 L 49.5 40.2 L 46.5 43.7 L 41.9 43.9 L 38.4 40.9 L 37.9 38.9 Z " />
</g>
</svg>
