<svg xmlns="http://www.w3.org/2000/svg" xmlns:xlink="http://www.w3.org/1999/xlink" version="1.1" baseProfile="full" viewBox="0 0 200 200" width="200" height="200">
<g fill="black">
<path d="M 118.7 148.8 L 119.7 152.3 L 115.91456060409546 151.6473380088806 L 114.2 153.4 L 109.5 157.9 L 104.7 162.3 L 99.6 166.6 L 94.3 170.7 L 88.9 174.6 L 83.2 178.4 L 77.4 182.0 L 71.2 185.3 L 64.8 188.3 L 63.9 186.8 L 69.1 182.2 L 74.2 177.6 L 79.3 173.2 L 84.1 168.7 L 88.8 164.2 L 93.3 159.7 L 97.7 155.1 L 101.8 150.5 L 105.8 145.8 L 109.5 141.0 L 109.53906583786011 141.03312101364136 L 109.9 140.6 Z M 170.7 174.5 L 167.6 170.3 L 164.3 166.3 L 160.8 162.4 L 156.9 158.6 L 152.9 154.9 L 148.5 151.3 L 144.0 147.7 L 139.2 144.0 L 140.0 142.4 L 145.9 144.4 L 151.4 146.7 L 156.7 149.5 L 161.7 152.6 L 166.4 156.0 L 170.9 159.7 L 175.1 163.6 L 179.1 167.8 L 182.8 172.3 L 186.3 176.9 L 187.0 181.5 L 184.3 185.2 L 179.8 185.9 L 176.1 183.3 L 173.5 178.8 Z M 39.5 186.9 L 35.5 184.8 L 34.0 180.5 L 34.6 173.5 L 34.6 167.1 L 34.1 161.3 L 33.1 156.1 L 31.5 151.5 L 29.3 147.4 L 26.6 143.6 L 23.3 140.2 L 19.2 137.0 L 14.4 134.1 L 14.9 132.4 L 20.8 133.6 L 26.3 135.7 L 31.1 138.8 L 33.21546697616577 140.7678762435913 L 35.8 135.4 L 39.1 129.0 L 43.0 121.4 L 47.6 112.7 L 52.9 102.8 L 58.9 91.8 L 65.8 79.7 L 73.4 66.5 L 75.0 67.4 L 69.2 81.4 L 63.8 94.2 L 58.9 105.7 L 54.5 115.9 L 50.7 125.0 L 47.6 132.8 L 45.0 139.4 L 43.1 144.8 L 41.9 148.9 L 41.3 151.6 L 41.00812187194824 151.51624364852904 L 41.8 153.1 L 43.9 159.2 L 45.3 166.1 L 46.0 173.5 L 46.0 181.4 L 43.8 185.5 Z M 136.1 19.1 L 138.4 21.9 L 134.28571424484252 22.92857141494751 L 133.6 24.3 L 132.2 26.9 L 129.2 32.1 L 127.6 34.7 L 125.9 37.2 L 124.0 39.7 L 122.0 42.2 L 121.81111106872558 42.5 L 164.3 42.5 L 170.3 37.5 L 181.3 46.5 L 176.3 50.5 L 176.3 129.6 L 164.3 135.6 L 164.3 125.6 L 95.6 125.6 L 95.6 137.6 L 83.6 143.6 L 83.6 36.5 L 95.6 42.5 L 119.21724138259887 42.5 L 119.7 41.1 L 120.3 38.0 L 120.9 35.1 L 121.6 32.1 L 122.8 26.5 L 123.3 23.7 L 123.8 21.0 L 124.2 18.3 L 124.44171934127807 16.72882423400879 L 124.3 16.7 L 124.59230766296386 15.75 L 124.6 15.7 L 124.60705089569092 15.702084636688232 L 125.1 14.1 Z M 95.6 85.0 L 95.6 121.6 L 164.3 121.6 L 164.3 85.0 Z M 34.4 83.6 L 32.9 81.5 L 31.1 79.5 L 28.9 77.4 L 26.4 75.3 L 23.5 73.2 L 20.3 71.1 L 16.7 69.0 L 12.7 67.1 L 13.3 65.4 L 17.7 66.3 L 21.9 67.1 L 25.9 68.1 L 29.6 69.4 L 33.1 70.9 L 36.3 72.5 L 39.3 74.4 L 42.0 76.4 L 44.5 78.7 L 46.7 81.3 L 47.3 85.8 L 44.7 89.5 L 40.1 90.1 L 36.4 87.5 L 35.6 85.5 Z M 95.6 46.5 L 95.6 81.0 L 164.3 81.0 L 164.3 46.5 Z M 49.3 37.6 L 47.7 35.6 L 45.9 33.5 L 43.8 31.4 L 41.3 29.3 L 38.6 27.2 L 35.6 25.1 L 32.3 22.9 L 28.7 21.1 L 29.2 19.4 L 33.3 20.4 L 37.3 21.2 L 41.1 22.2 L 44.6 23.5 L 48.0 24.9 L 51.1 26.6 L 54.1 28.4 L 56.8 30.4 L 59.3 32.7 L 61.6 35.1 L 62.4 39.6 L 59.9 43.5 L 55.4 44.3 L 51.6 41.8 L 50.6 39.7 Z " />
</g>
</svg>
