<svg xmlns="http://www.w3.org/2000/svg" xmlns:xlink="http://www.w3.org/1999/xlink" version="1.1" baseProfile="full" viewBox="0 0 200 200" width="200" height="200">
<g fill="black">
<path d="M 144.8 71.7 L 147.8 73.7 L 144.8 75.5 L 144.8 95.6 L 152.3 95.6 L 162.3 85.6 L 174.3 95.6 L 174.3 99.6 L 144.8 99.6 L 144.8 141.8 L 157.4 141.8 L 167.4 131.8 L 179.4 141.8 L 179.4 145.8 L 144.8 145.8 L 144.8 184.3 L 132.8 190.3 L 132.8 145.8 L 96.20020036697387 145.8 L 93.1 158.8 L 80.0 161.9 L 93.8 104.2 L 105.0 108.9 L 107.5 111.6 L 104.14892406463623 112.46879749298095 L 97.15410823822022 141.8 L 132.8 141.8 L 132.8 99.6 L 77.8 99.6 L 77.8 95.6 L 132.8 95.6 L 132.8 69.7 Z M 37.3 186.9 L 33.2 184.8 L 31.7 180.5 L 32.3 173.5 L 32.4 167.1 L 31.9 161.3 L 30.9 156.1 L 29.5 151.4 L 28.086545372009276 148.50241804122925 L 27.7 148.4 L 27.856564044952393 148.03095626831055 L 27.5 147.3 L 25.0 143.5 L 21.9 140.1 L 18.2 137.0 L 13.7 134.1 L 14.2 132.4 L 19.8 133.6 L 25.0 135.8 L 29.6 138.9 L 31.202240180969238 140.46316118240355 L 33.5 135.5 L 36.6 129.1 L 40.3 121.5 L 44.7 112.8 L 49.7 102.9 L 55.4 91.9 L 61.8 79.8 L 69.1 66.6 L 70.7 67.3 L 65.3 81.4 L 60.3 94.1 L 55.7 105.6 L 51.6 115.9 L 48.1 124.9 L 45.2 132.7 L 42.8 139.3 L 41.0 144.7 L 39.9 148.8 L 39.4 151.5 L 38.84196138381958 151.35214366912842 L 39.7 153.1 L 41.7 159.3 L 43.1 166.1 L 43.7 173.5 L 43.7 181.4 L 41.6 185.5 Z M 167.7 84.5 L 162.6 80.0 L 157.8 75.3 L 153.2 70.3 L 148.8 65.1 L 144.7 59.6 L 140.9 53.9 L 137.5 47.9 L 134.87619047164918 42.2 L 121.7529411315918 42.2 L 120.4 44.7 L 115.0 52.8 L 108.9 60.5 L 102.0 67.9 L 94.4 74.9 L 86.1 81.4 L 77.0 87.6 L 67.2 93.2 L 66.2 91.7 L 74.8 84.5 L 82.7 77.3 L 89.9 70.1 L 96.4 62.7 L 102.2 55.2 L 107.3 47.6 L 110.27692308425904 42.2 L 69.5 42.2 L 69.5 38.2 L 112.31999998092651 38.2 L 115.2 31.8 L 118.2 23.7 L 120.13641233444214 16.306425666809083 L 120.1 16.3 L 120.8 13.6 L 132.0 18.4 L 134.4 21.0 L 130.73530311584472 22.11249723434448 L 128.9 27.5 L 125.0 36.2 L 123.91764707565308 38.2 L 161.4 38.2 L 171.4 28.2 L 183.4 38.2 L 183.4 42.2 L 137.6673469543457 42.2 L 140.9 45.5 L 145.6 50.3 L 150.2 54.9 L 154.9 59.4 L 159.8 63.7 L 164.7 67.7 L 169.7 71.5 L 174.8 75.1 L 180.1 78.5 L 185.6 81.6 L 189.6 84.2 L 178.5 92.8 L 173.0 88.8 Z M 32.2 83.4 L 30.8 81.4 L 29.1 79.4 L 27.1 77.3 L 24.8 75.2 L 22.1 73.2 L 19.1 71.1 L 15.8 68.9 L 12.1 67.1 L 12.7 65.4 L 16.8 66.4 L 20.8 67.2 L 24.6 68.2 L 28.1 69.5 L 31.4 70.9 L 34.5 72.6 L 37.3 74.5 L 40.0 76.5 L 42.3 78.8 L 44.4 81.4 L 44.9 85.9 L 42.1 89.6 L 37.6 90.1 L 34.0 87.3 L 33.2 85.4 Z M 46.1 37.5 L 44.7 35.4 L 43.0 33.4 L 41.1 31.3 L 38.8 29.2 L 36.3 27.1 L 33.5 25.1 L 30.5 22.9 L 27.1 21.1 L 27.7 19.4 L 31.5 20.4 L 35.3 21.2 L 38.9 22.3 L 42.3 23.5 L 45.5 25.0 L 48.5 26.7 L 51.2 28.5 L 53.8 30.5 L 56.2 32.8 L 58.4 35.2 L 59.1 39.8 L 56.5 43.5 L 51.9 44.2 L 48.2 41.6 L 47.3 39.5 Z " />
</g>
</svg>
