<svg xmlns="http://www.w3.org/2000/svg" xmlns:xlink="http://www.w3.org/1999/xlink" version="1.1" baseProfile="full" viewBox="0 0 200 200" width="200" height="200">
<g fill="black">
<path d="M 120.8 137.6 L 120.8 111.9 L 91.7 111.9 L 91.7 129.5 L 91.22906980514526 137.6 Z M 36.2 186.9 L 32.1 184.8 L 30.6 180.5 L 31.2 173.5 L 31.2 167.0 L 30.8 161.2 L 29.9 156.0 L 28.4 151.4 L 27.211475372314453 148.626775932312 L 26.7 148.5 L 26.92741117477417 147.96395940780639 L 26.6 147.2 L 24.2 143.5 L 21.2 140.1 L 17.6 137.0 L 13.3 134.1 L 13.9 132.4 L 19.3 133.6 L 24.4 135.8 L 28.9 138.9 L 30.201288414001464 140.23465480804444 L 32.3 135.6 L 35.4 129.1 L 39.0 121.5 L 43.2 112.8 L 48.1 102.9 L 53.6 91.9 L 59.9 79.8 L 66.9 66.6 L 68.6 67.3 L 63.3 81.3 L 58.5 94.1 L 54.1 105.6 L 50.2 115.8 L 46.8 124.9 L 43.9 132.7 L 41.7 139.3 L 40.0 144.7 L 38.9 148.8 L 38.4 151.4 L 37.775972557067874 151.24532651901245 L 38.7 153.2 L 40.6 159.3 L 41.9 166.1 L 42.6 173.5 L 42.6 181.4 L 40.5 185.5 Z M 132.8 111.9 L 132.8 137.6 L 163.3 137.6 L 163.3 111.9 Z M 91.7 82.9 L 91.7 107.9 L 120.8 107.9 L 120.8 82.9 Z M 132.8 82.9 L 132.8 107.9 L 163.3 107.9 L 163.3 82.9 Z M 31.0 83.3 L 29.7 81.3 L 28.1 79.3 L 26.2 77.3 L 24.0 75.2 L 21.4 73.1 L 18.6 71.1 L 15.4 68.9 L 11.8 67.1 L 12.4 65.4 L 16.4 66.4 L 20.3 67.2 L 23.9 68.3 L 27.4 69.5 L 30.6 71.0 L 33.6 72.6 L 36.4 74.5 L 38.9 76.6 L 41.2 78.9 L 43.3 81.4 L 43.7 86.0 L 40.9 89.6 L 36.3 90.0 L 32.7 87.2 L 32.0 85.3 Z M 187.3 55.4 L 187.3 59.4 L 68.6 59.4 L 68.6 55.4 L 165.3 55.4 L 175.3 45.4 Z M 44.5 37.4 L 43.2 35.4 L 41.6 33.3 L 39.7 31.2 L 37.6 29.2 L 35.2 27.1 L 32.5 25.0 L 29.6 22.9 L 26.3 21.1 L 26.9 19.4 L 30.6 20.4 L 34.3 21.3 L 37.8 22.3 L 41.1 23.6 L 44.2 25.0 L 47.1 26.7 L 49.8 28.5 L 52.4 30.6 L 54.7 32.8 L 56.8 35.3 L 57.4 39.8 L 54.8 43.5 L 50.2 44.1 L 46.5 41.5 L 45.6 39.4 Z M 174.9 24.1 L 174.9 28.1 L 81.0 28.1 L 81.0 24.1 L 152.9 24.1 L 162.9 14.1 Z M 174.7 177.8 L 173.9 180.2 L 172.7 182.5 L 171.0 184.5 L 169.0 186.2 L 166.8 187.4 L 164.3 188.2 L 161.9 188.6 L 159.3 188.8 L 159.3 182.8 L 139.3 179.8 L 139.3 176.8 L 159.3 176.8 L 160.5 176.7 L 161.4 176.6 L 162.0 176.4 L 162.4 176.2 L 162.5 176.0 L 162.7 175.8 L 162.9 175.5 L 163.1 174.9 L 163.2 174.0 L 163.3 172.8 L 163.3 141.6 L 132.8 141.6 L 132.8 175.7 L 120.8 181.7 L 120.8 141.6 L 90.7679012298584 141.6 L 90.2 146.2 L 88.7 153.8 L 86.7 160.7 L 84.2 167.1 L 81.2 172.8 L 77.7 177.8 L 73.7 182.2 L 69.2 185.7 L 64.3 188.2 L 63.3 186.8 L 66.7 182.8 L 69.7 178.7 L 72.2 174.2 L 74.4 169.4 L 76.3 164.1 L 77.7 158.2 L 78.8 151.9 L 79.5 145.0 L 79.8 137.5 L 79.7 129.5 L 79.7 72.9 L 91.7 78.9 L 163.3 78.9 L 169.3 73.9 L 180.3 82.9 L 175.3 86.9 L 175.3 172.8 L 175.2 175.3 Z " />
</g>
</svg>
