<svg xmlns="http://www.w3.org/2000/svg" xmlns:xlink="http://www.w3.org/1999/xlink" version="1.1" baseProfile="full" viewBox="0 0 200 200" width="200" height="200">
<g fill="black">
<path d="M 126.23999996185303 130.3 L 157.5 130.3 L 157.5 103.9 L 128.9 103.9 L 128.9 110.9 L 127.9 122.0 Z M 37.7 186.9 L 33.7 184.8 L 32.2 180.5 L 32.8 173.5 L 32.8 167.1 L 32.3 161.3 L 31.3 156.1 L 29.9 151.4 L 28.472405338287352 148.47343101501465 L 28.2 148.4 L 28.3056999206543 148.13168487548828 L 27.9 147.3 L 25.3 143.5 L 22.2 140.1 L 18.4 137.0 L 13.8 134.1 L 14.4 132.4 L 20.0 133.6 L 25.3 135.7 L 29.9 138.9 L 31.558267974853514 140.47737684249878 L 34.0 135.5 L 37.1 129.1 L 45.3 112.7 L 50.3 102.9 L 56.1 91.9 L 62.6 79.8 L 69.9 66.6 L 71.6 67.3 L 66.1 81.4 L 61.0 94.1 L 56.3 105.6 L 52.2 115.9 L 48.6 124.9 L 45.6 132.8 L 43.2 139.4 L 41.4 144.7 L 40.3 148.8 L 39.7 151.5 L 39.33542242050171 151.4017225265503 L 40.2 153.1 L 42.2 159.3 L 43.5 166.1 L 44.2 173.5 L 44.2 181.4 L 42.0 185.5 Z M 128.9 75.3 L 128.9 99.9 L 157.5 99.9 L 157.5 75.3 Z M 32.6 83.4 L 31.2 81.4 L 29.5 79.4 L 27.5 77.3 L 25.1 75.3 L 22.4 73.2 L 19.4 71.1 L 16.0 68.9 L 12.2 67.1 L 12.8 65.4 L 17.0 66.4 L 21.0 67.2 L 24.8 68.2 L 28.4 69.5 L 31.8 70.9 L 34.9 72.6 L 37.7 74.4 L 40.4 76.5 L 42.8 78.8 L 44.9 81.4 L 45.4 85.9 L 42.6 89.6 L 38.1 90.1 L 34.5 87.3 L 33.7 85.4 Z M 100.0 53.8 L 99.3 51.6 L 98.4 49.4 L 97.3 47.2 L 96.1 45.0 L 94.6 42.7 L 93.0 40.3 L 91.2 37.9 L 89.66666669845581 36.5 L 87.8127272605896 36.5 L 86.3 39.7 L 83.4 45.0 L 80.2 50.0 L 76.7 54.9 L 72.8 59.5 L 68.6 63.7 L 64.0 67.7 L 62.7 66.5 L 65.7 61.4 L 68.5 56.3 L 71.1 51.3 L 73.6 46.3 L 75.8 41.2 L 77.7 36.0 L 79.5 30.7 L 80.9 25.4 L 82.2 19.9 L 83.02098770141602 15.302469158172608 L 83.0 15.3 L 83.15652170181275 14.543478298187257 L 83.2 14.3 L 83.20661573410034 14.301357078552247 L 83.6 12.4 L 94.9 16.7 L 97.5 19.3 L 93.8084623336792 20.55248603820801 L 93.2 22.7 L 91.2 28.6 L 89.59821424484252 32.5 L 111.01818180084229 32.5 L 119.2 23.5 L 129.2 32.5 L 129.2 36.5 L 93.94285717010499 36.5 L 95.6 37.3 L 98.3 38.9 L 100.8 40.6 L 103.1 42.5 L 105.3 44.5 L 107.3 46.7 L 109.1 49.1 L 110.8 51.6 L 112.2 54.2 L 111.8 58.7 L 108.4 61.8 L 103.8 61.4 L 100.8 58.0 L 100.5 55.9 Z M 155.3 53.8 L 154.6 51.6 L 153.7 49.4 L 152.6 47.2 L 151.4 45.0 L 149.9 42.7 L 148.3 40.3 L 146.5 37.9 L 144.9666666984558 36.5 L 142.7 36.5 L 141.5 38.9 L 138.6 43.8 L 135.4 48.5 L 131.9 52.9 L 128.0 57.0 L 123.8 60.7 L 119.3 64.0 L 118.0 62.7 L 121.0 58.2 L 123.9 53.6 L 126.5 49.1 L 128.9 44.5 L 131.1 39.8 L 133.1 35.0 L 134.8 30.0 L 136.3 24.9 L 137.5 19.7 L 138.33252353668212 15.204372882843018 L 138.3 15.2 L 138.9 12.4 L 150.2 16.8 L 152.7 19.3 L 149.10303449630737 20.54258804321289 L 148.5 22.6 L 146.5 28.3 L 144.63333330154418 32.5 L 167.01818180084229 32.5 L 175.2 23.5 L 185.2 32.5 L 185.2 36.5 L 149.24285717010497 36.5 L 150.9 37.3 L 153.6 38.9 L 156.1 40.6 L 158.4 42.5 L 160.6 44.5 L 162.6 46.7 L 164.4 49.1 L 166.1 51.6 L 167.5 54.2 L 167.1 58.7 L 163.7 61.8 L 159.1 61.4 L 156.1 58.0 L 155.8 55.9 Z M 46.8 37.5 L 45.3 35.5 L 43.6 33.4 L 41.6 31.3 L 39.3 29.2 L 36.8 27.2 L 34.0 25.1 L 30.9 22.9 L 27.4 21.1 L 28.0 19.4 L 31.9 20.4 L 35.7 21.2 L 39.3 22.3 L 42.8 23.5 L 46.0 25.0 L 49.0 26.6 L 51.8 28.5 L 54.4 30.5 L 56.8 32.8 L 59.0 35.2 L 59.7 39.7 L 57.1 43.5 L 52.6 44.2 L 48.9 41.6 L 47.9 39.6 Z M 65.5 103.9 L 65.5 99.9 L 116.9 99.9 L 116.9 75.3 L 80.9 75.3 L 80.9 71.3 L 157.5 71.3 L 163.5 66.3 L 174.5 75.3 L 169.5 79.3 L 169.5 99.9 L 173.0777777671814 99.9 L 179.3 92.9 L 187.3 99.9 L 187.3 103.9 L 169.5 103.9 L 169.5 140.3 L 157.5 146.3 L 157.5 134.3 L 125.1938775062561 134.3 L 122.5 142.3 L 118.0 151.4 L 112.3 159.7 L 105.4 167.1 L 97.5 173.7 L 88.5 179.5 L 78.3 184.3 L 67.2 188.2 L 66.5 186.5 L 76.6 180.9 L 85.6 175.0 L 93.3 168.6 L 100.0 161.9 L 105.4 154.7 L 109.8 147.0 L 113.1 138.8 L 114.28965520858765 134.3 L 79.5 134.3 L 79.5 130.3 L 115.34712648391724 130.3 L 115.4 130.1 L 116.6 120.8 L 116.9 110.9 L 116.9 103.9 Z " />
</g>
</svg>
