<svg xmlns="http://www.w3.org/2000/svg" xmlns:xlink="http://www.w3.org/1999/xlink" version="1.1" baseProfile="full" viewBox="0 0 200 200" width="200" height="200">
<g fill="black">
<path d="M 142.0 183.7 L 128.6 182.6 L 117.6 180.7 L 108.5 178.0 L 101.2 174.4 L 95.5 170.1 L 91.1 165.0 L 88.0 159.4 L 86.94583330154418 156.47708330154418 L 86.59743585586548 156.65128202438353 L 85.7 157.8 L 83.4 161.0 L 81.0 164.1 L 78.6 167.1 L 76.1 170.0 L 73.7 172.8 L 71.3 175.4 L 68.8 178.0 L 67.04968156814576 179.89617834091186 L 67.4 184.1 L 64.0 183.0 L 54.9 174.9 L 56.5 173.6 L 59.3 171.9 L 62.1 170.0 L 65.0 168.1 L 67.9 166.1 L 70.9 164.1 L 77.1 159.9 L 78.5 158.98125 L 78.5 109.0 L 58.0 109.0 L 58.0 105.0 L 78.5 105.0 L 84.0 100.0 L 94.5 109.0 L 89.5 112.5 L 89.5 154.80731706619264 L 91.5 157.1 L 95.6 161.1 L 100.0 164.4 L 105.0 167.0 L 111.4 169.1 L 119.4 170.7 L 129.6 171.6 L 142.3 171.9 L 157.8 171.5 L 176.4 170.4 L 187.6 169.7 L 177.2 183.5 L 158.1 184.0 Z M 34.7 186.9 L 30.6 184.9 L 29.1 180.6 L 29.7 173.5 L 29.7 167.0 L 29.4 161.2 L 28.5 155.9 L 27.2 151.3 L 26.16969699859619 148.7545454978943 L 25.5 148.6 L 25.799458026885986 147.8398373603821 L 25.5 147.1 L 23.3 143.4 L 20.7 140.1 L 17.4 137.0 L 13.5 134.1 L 14.1 132.4 L 19.3 133.7 L 24.0 135.9 L 28.2 139.0 L 28.994966983795166 139.859423828125 L 30.8 135.7 L 33.6 129.2 L 37.0 121.6 L 40.9 112.9 L 45.5 103.0 L 50.7 92.0 L 56.6 79.8 L 63.2 66.6 L 64.8 67.3 L 60.1 81.3 L 55.6 94.0 L 51.6 105.5 L 48.0 115.7 L 44.9 124.8 L 42.3 132.6 L 40.2 139.2 L 38.6 144.5 L 37.6 148.6 L 37.2 151.3 L 36.451943969726564 151.12737169265748 L 37.4 153.3 L 39.2 159.4 L 40.4 166.1 L 41.1 173.5 L 41.1 181.4 L 39.0 185.4 Z M 150.0 147.9 L 164.0 147.9 L 165.0 147.8 L 165.6 147.7 L 166.1 147.5 L 166.3 147.4 L 166.4 147.3 L 166.6 147.0 L 166.8 146.5 L 167.0 145.8 L 167.2 144.7 L 167.3 143.4 L 167.3 29.4 L 110.6 29.4 L 110.6 154.2 L 100.6 159.2 L 100.6 20.4 L 110.6 25.4 L 167.3 25.4 L 172.8 20.4 L 183.3 29.4 L 178.3 32.9 L 178.3 143.4 L 178.1 145.8 L 177.8 148.2 L 177.1 150.4 L 176.1 152.5 L 174.7 154.5 L 172.9 156.1 L 170.9 157.4 L 168.7 158.3 L 166.4 158.7 L 164.0 158.9 L 164.0 153.4 L 150.0 150.6 Z M 129.4 56.8 L 147.4 56.8 L 152.9 51.8 L 163.4 60.8 L 158.4 64.3 L 158.4 113.2 L 147.4 118.7 L 147.4 107.2 L 129.4 107.2 L 129.4 119.2 L 118.4 124.7 L 118.4 51.3 Z M 129.4 60.8 L 129.4 103.2 L 147.4 103.2 L 147.4 60.8 Z M 29.5 83.1 L 28.4 81.2 L 27.0 79.2 L 25.2 77.2 L 23.2 75.1 L 20.9 73.1 L 18.3 71.0 L 15.4 68.9 L 12.1 67.1 L 12.7 65.4 L 16.4 66.5 L 20.1 67.3 L 23.5 68.3 L 26.8 69.6 L 29.8 71.1 L 32.6 72.7 L 35.2 74.6 L 37.6 76.7 L 39.8 79.0 L 41.7 81.6 L 42.0 86.1 L 39.1 89.6 L 34.5 89.9 L 31.0 87.0 L 30.4 85.1 Z M 73.9 76.4 L 72.5 73.9 L 71.0 71.5 L 69.4 69.1 L 67.7 66.8 L 64.1 62.4 L 62.1 60.1 L 59.9 58.2 L 60.8 56.7 L 63.6 57.9 L 66.5 59.0 L 69.3 60.4 L 72.1 62.0 L 74.7 63.7 L 77.3 65.7 L 79.8 67.8 L 82.2 70.1 L 84.5 72.6 L 86.7 75.2 L 87.4 79.7 L 84.8 83.5 L 80.3 84.2 L 76.6 81.6 L 75.3 79.0 Z M 80.9 41.1 L 79.7 38.6 L 78.3 36.1 L 76.9 33.7 L 75.3 31.4 L 73.6 29.0 L 71.8 26.7 L 70.0 24.3 L 67.7 22.3 L 68.7 20.7 L 71.5 22.2 L 74.4 23.5 L 77.2 25.0 L 79.9 26.7 L 82.5 28.6 L 84.9 30.7 L 87.2 32.9 L 89.5 35.3 L 91.6 37.8 L 93.6 40.5 L 94.0 45.0 L 91.1 48.6 L 86.6 49.0 L 83.0 46.2 L 82.0 43.6 Z M 42.1 37.2 L 40.9 35.2 L 39.4 33.2 L 37.8 31.1 L 33.7 27.0 L 31.3 25.0 L 28.6 22.9 L 25.6 21.2 L 26.2 19.5 L 29.7 20.5 L 33.1 21.3 L 36.4 22.4 L 39.5 23.7 L 42.4 25.1 L 45.2 26.8 L 47.7 28.7 L 50.1 30.7 L 52.3 33.0 L 54.3 35.4 L 54.8 40.0 L 52.0 43.6 L 47.4 44.0 L 43.8 41.3 L 43.1 39.2 Z " />
</g>
</svg>
