<svg xmlns="http://www.w3.org/2000/svg" xmlns:xlink="http://www.w3.org/1999/xlink" version="1.1" baseProfile="full" viewBox="0 0 200 200" width="200" height="200">
<g fill="black">
<path d="M 166.4 162.5 L 161.2 155.1 L 156.6 146.9 L 152.3 138.0 L 148.5 128.3 L 145.2 117.9 L 142.3 106.8 L 140.0 94.8 L 138.5133858680725 83.0 L 134.3526315689087 83.0 L 132.6 84.8 L 128.6 88.8 L 124.3 92.7 L 119.5 96.4 L 118.41818180084229 97.16363639831543 L 123.6 102.0 L 130.0 109.2 L 135.4 116.7 L 139.7 124.5 L 143.0 132.6 L 143.2266610145569 133.40809564590455 L 143.7 133.8 L 143.42048711776732 134.09912786483764 L 145.3 140.8 L 146.4 149.3 L 146.5 157.9 L 145.6 166.6 L 143.5 175.3 L 142.6 177.7 L 141.4 179.9 L 140.0 182.0 L 138.4 183.8 L 136.4 185.4 L 134.3 186.7 L 132.1 187.7 L 129.7 188.4 L 127.2 188.8 L 124.7 189.0 L 124.7 183.0 L 104.7 180.0 L 104.7 177.0 L 124.7 177.0 L 126.0 176.9 L 127.1 176.7 L 128.0 176.4 L 128.8 176.1 L 129.4 175.7 L 130.0 175.2 L 130.6 174.6 L 131.1 173.8 L 131.6 172.8 L 132.1 171.6 L 134.4 164.2 L 135.9 156.9 L 136.4 149.6 L 136.1 142.3 L 136.01090574264526 141.79284782409667 L 131.8 145.8 L 125.1 151.4 L 119.93354835510254 155.38554840087892 L 121.9 160.4 L 121.3 164.9 L 117.8 167.8 L 113.3 167.3 L 110.4 163.7 L 110.03571424484252 162.24285717010497 L 102.7 166.7 L 94.3 171.3 L 85.5 175.5 L 76.3 179.4 L 66.5 182.8 L 65.8 181.1 L 74.6 175.9 L 83.0 170.8 L 91.0 165.6 L 98.6 160.4 L 105.7 155.0 L 107.2375 153.71875 L 106.0 150.9 L 103.9 146.8 L 101.5 142.8 L 98.7 138.8 L 98.69224996566773 138.79025001525878 L 94.4 140.9 L 88.2 143.5 L 81.9 145.8 L 75.4 147.8 L 74.6 146.1 L 80.3 142.4 L 85.8 138.7 L 93.9814905166626 133.14276113510132 L 92.1 131.1 L 88.3 127.2 L 84.2 123.2 L 85.1 121.7 L 90.5 124.1 L 95.5 126.9 L 99.20712528228759 129.47886981964112 L 101.4 127.9 L 106.3 124.2 L 111.0 120.4 L 115.5 116.5 L 119.8 112.5 L 123.5207733154297 108.95640640258789 L 120.6 104.4 L 116.42556676864623 98.57018814086913 L 114.4 100.0 L 108.9 103.5 L 103.0 106.7 L 96.7 109.9 L 90.0 112.8 L 82.9 115.4 L 75.3 117.8 L 74.6 116.1 L 81.3 112.0 L 87.5 108.0 L 93.5 104.1 L 99.0 100.3 L 104.1 96.4 L 108.8 92.6 L 113.1 88.7 L 116.9 84.9 L 118.60512819290162 83.0 L 73.9 83.0 L 73.9 79.0 L 144.3319149017334 79.0 L 147.81702127456666 58.0 L 102.72075471878051 58.0 L 100.7 66.1 L 87.6 69.1 L 101.4 13.5 L 112.6 18.4 L 115.0 21.0 L 111.71975650787354 21.92837076187134 L 109.20712785720825 32.0 L 151.9 32.0 L 157.9 27.0 L 168.9 36.0 L 163.9 39.0 L 162.21513986587524 39.70202503204346 L 156.49130430221558 79.0 L 164.6 79.0 L 174.6 69.0 L 186.6 79.0 L 186.6 83.0 L 140.61900825500487 83.0 L 144.1 93.8 L 148.0 105.1 L 152.0 115.6 L 153.10041570663452 118.05674200057983 L 154.3 116.9 L 157.1 114.3 L 159.8 111.8 L 162.5 109.2 L 170.3 101.4 L 172.8 98.8 L 174.53158874511718 96.92411212921142 L 174.4 96.8 L 175.4 96.0 L 183.2 105.1 L 183.8 108.6 L 179.99099102020264 107.44369373321533 L 177.0 109.5 L 173.8 111.6 L 167.2 115.6 L 163.8 117.4 L 156.8 120.8 L 154.68724117279052 121.59942226409912 L 156.3 125.2 L 160.7 133.9 L 165.4 141.8 L 170.3 148.8 L 175.5 155.0 L 180.8 160.3 L 186.3 164.8 L 188.9 166.9 L 178.0 175.1 L 172.0 169.2 Z M 38.9 186.9 L 34.9 184.8 L 33.4 180.5 L 34.0 173.5 L 34.0 167.1 L 33.6 161.3 L 32.6 156.1 L 31.1 151.4 L 29.58959150314331 148.4511073112488 L 29.4 148.4 L 29.471044063568115 148.21965742111206 L 29.0 147.3 L 26.5 143.5 L 23.3 140.1 L 19.5 137.0 L 14.9 134.1 L 15.4 132.4 L 21.1 133.6 L 26.4 135.7 L 31.1 138.9 L 32.82309398651123 140.53904066085815 L 35.2 135.5 L 38.4 129.1 L 42.1 121.5 L 46.6 112.7 L 51.7 102.9 L 57.4 91.9 L 64.0 79.7 L 71.4 66.6 L 73.0 67.3 L 67.4 81.4 L 62.3 94.1 L 57.6 105.6 L 53.5 115.9 L 49.9 124.9 L 46.9 132.8 L 44.5 139.4 L 42.7 144.8 L 41.5 148.8 L 40.9 151.5 L 40.53542242050171 151.4017225265503 L 41.4 153.1 L 43.4 159.3 L 44.7 166.1 L 45.4 173.5 L 45.4 181.4 L 43.3 185.5 Z M 127.2 121.2 L 122.1 124.9 L 116.9 128.5 L 111.6 131.8 L 106.0 135.0 L 105.73793106079101 135.137931060791 L 108.1 137.5 L 111.6 141.6 L 114.8 145.9 L 115.31475706100464 146.77699356079103 L 118.5 143.9 L 124.3 138.1 L 129.6 132.2 L 132.85859718322754 128.05886611938476 L 132.7 127.5 L 129.6 119.9 L 129.37914113998414 119.47484664916992 Z M 33.8 83.5 L 32.4 81.4 L 30.7 79.4 L 28.7 77.3 L 26.3 75.3 L 23.5 73.2 L 20.5 71.1 L 17.1 68.9 L 13.3 67.1 L 13.8 65.4 L 18.1 66.3 L 22.1 67.1 L 26.0 68.2 L 29.6 69.5 L 32.9 70.9 L 36.0 72.6 L 38.9 74.4 L 41.6 76.5 L 44.0 78.8 L 46.1 81.4 L 46.6 85.9 L 43.9 89.6 L 39.4 90.1 L 35.7 87.3 L 34.9 85.4 Z M 108.209224319458 36.0 L 103.71865825653076 54.0 L 148.48085107803345 54.0 L 151.4680850982666 36.0 Z M 48.1 37.5 L 46.6 35.5 L 44.9 33.4 L 42.9 31.3 L 40.6 29.2 L 38.0 27.2 L 35.2 25.1 L 32.1 22.9 L 28.6 21.1 L 29.1 19.4 L 33.1 20.4 L 36.9 21.2 L 40.6 22.3 L 44.0 23.5 L 47.2 25.0 L 50.3 26.6 L 53.1 28.5 L 55.7 30.5 L 58.2 32.8 L 60.4 35.2 L 61.1 39.7 L 58.5 43.5 L 54.0 44.2 L 50.2 41.6 L 49.3 39.6 Z " />
</g>
</svg>
