<svg xmlns="http://www.w3.org/2000/svg" xmlns:xlink="http://www.w3.org/1999/xlink" version="1.1" baseProfile="full" viewBox="0 0 200 200" width="200" height="200">
<g fill="black">
<path d="M 78.5 116.2 L 77.9 113.5 L 77.2 110.9 L 76.3 108.5 L 75.2 106.1 L 74.0 103.7 L 72.6 101.4 L 71.416996383667 99.58606119155884 L 71.2 100.1 L 67.0 108.4 L 62.3 116.2 L 57.2 123.2 L 55.7 122.3 L 59.0 114.4 L 62.1 106.2 L 65.0 97.7 L 67.8 88.7 L 70.2 79.3 L 72.4 69.5 L 74.3 59.2 L 76.0 48.4 L 77.3 37.1 L 78.12142858505248 27.9 L 56.5 27.9 L 56.5 23.9 L 92.2 23.9 L 102.2 13.9 L 114.2 23.9 L 114.2 27.9 L 90.10330581665039 27.9 L 88.6 38.6 L 86.5 50.1 L 84.2 61.1 L 83.40754718780518 64.1 L 98.0 64.1 L 104.0 59.1 L 115.0 68.1 L 110.0 71.1 L 109.45129222869873 71.32862825393677 L 108.0 84.1 L 105.2 100.5 L 101.8 115.8 L 97.6 129.9 L 92.7 142.8 L 87.0 154.5 L 80.7 165.0 L 73.5 174.2 L 65.6 182.0 L 57.0 188.3 L 55.9 186.9 L 62.9 179.3 L 69.3 170.9 L 75.1 161.5 L 80.2 151.2 L 84.8 139.7 L 88.7 127.2 L 89.33398246765137 124.56801233291625 L 86.3 126.7 L 81.8 125.8 L 79.2 122.0 L 78.9 119.1 Z M 33.0 187.9 L 28.9 185.8 L 27.4 181.5 L 27.9 174.3 L 28.0 167.8 L 27.7 161.9 L 27.0 156.6 L 25.8 151.9 L 24.97672414779663 149.5948275566101 L 24.1 149.4 L 24.495859909057618 148.2484076499939 L 24.3 147.7 L 22.3 144.0 L 20.0 140.7 L 17.1 137.6 L 13.6 134.8 L 14.3 133.1 L 19.1 134.4 L 23.5 136.7 L 27.4 139.9 L 27.590582942962648 140.12421522140502 L 29.0 136.5 L 31.6 130.0 L 34.7 122.4 L 38.4 113.6 L 42.6 103.6 L 47.4 92.5 L 52.9 80.3 L 59.0 67.0 L 60.7 67.6 L 56.4 81.6 L 52.4 94.4 L 48.8 105.9 L 45.5 116.2 L 42.7 125.2 L 40.4 133.1 L 38.5 139.7 L 37.1 145.1 L 36.2 149.2 L 35.8 152.0 L 34.94390239715576 151.80975608825685 L 35.9 154.2 L 37.6 160.3 L 38.7 167.0 L 39.3 174.3 L 39.4 182.2 L 37.3 186.3 Z M 106.3 172.7 L 119.8 172.7 L 119.8 13.3 L 131.8 19.3 L 162.6 19.3 L 168.6 14.3 L 179.6 23.3 L 174.6 27.3 L 174.6 172.7 L 177.6 172.7 L 182.1 166.7 L 188.1 172.7 L 188.1 176.7 L 106.3 176.7 Z M 131.8 124.2 L 131.8 172.7 L 162.6 172.7 L 162.6 124.2 Z M 131.8 73.8 L 131.8 120.2 L 162.6 120.2 L 162.6 73.8 Z M 82.35094337463379 68.1 L 81.4 71.7 L 78.4 81.7 L 75.0 91.1 L 72.49136486053467 97.04150419235229 L 72.6 97.1 L 75.4 98.4 L 78.0 100.1 L 80.4 102.1 L 82.6 104.4 L 84.7 107.0 L 86.6 109.8 L 88.2 112.8 L 89.7 116.1 L 90.68306541442871 118.9672739982605 L 92.0 113.5 L 94.7 98.7 L 96.7 82.7 L 97.80994148254395 68.1 Z M 27.8 83.3 L 26.8 81.4 L 25.6 79.4 L 24.1 77.4 L 22.3 75.4 L 20.2 73.3 L 17.9 71.3 L 15.4 69.2 L 12.3 67.5 L 13.0 65.8 L 16.4 66.9 L 19.8 67.7 L 23.0 68.8 L 26.0 70.1 L 28.8 71.6 L 31.5 73.3 L 33.9 75.2 L 36.2 77.3 L 38.2 79.6 L 40.0 82.1 L 40.1 86.7 L 37.1 90.1 L 32.5 90.2 L 29.1 87.2 L 28.6 85.3 Z M 131.8 23.3 L 131.8 69.8 L 162.6 69.8 L 162.6 23.3 Z M 39.3 37.2 L 38.2 35.2 L 37.0 33.1 L 35.5 31.1 L 33.8 29.1 L 31.9 27.1 L 29.8 25.0 L 27.4 23.0 L 24.7 21.3 L 25.4 19.6 L 28.5 20.7 L 31.8 21.5 L 34.8 22.6 L 37.7 23.9 L 40.4 25.4 L 43.0 27.1 L 45.4 29.0 L 47.6 31.1 L 49.6 33.3 L 51.5 35.8 L 51.8 40.3 L 48.9 43.8 L 44.3 44.1 L 40.8 41.2 L 40.1 39.2 Z " />
</g>
</svg>
