<svg xmlns="http://www.w3.org/2000/svg" xmlns:xlink="http://www.w3.org/1999/xlink" version="1.1" baseProfile="full" viewBox="0 0 200 200" width="200" height="200">
<g fill="black">
<path d="M 122.5 105.0 L 125.5 107.0 L 122.17241382598877 108.99655170440674 L 121.5 117.2 L 119.99473686218262 125.0 L 157.1 125.0 L 163.1 120.0 L 174.1 129.0 L 169.33982553482056 131.8561046600342 L 169.4 133.2 L 169.5 139.5 L 169.3 145.4 L 168.8 151.0 L 168.0 156.3 L 167.0 161.2 L 165.6 165.8 L 163.9 170.1 L 161.9 174.0 L 159.5 177.6 L 157.9 179.5 L 156.2 181.2 L 154.4 182.8 L 152.4 184.2 L 150.4 185.3 L 148.2 186.3 L 145.9 187.0 L 143.5 187.5 L 141.1 187.8 L 138.7 188.0 L 138.7 182.0 L 118.7 179.0 L 118.7 176.0 L 138.7 176.0 L 140.1 175.9 L 141.5 175.7 L 143.9 175.1 L 145.0 174.6 L 146.1 174.0 L 147.1 173.3 L 148.0 172.5 L 149.0 171.5 L 149.9 170.4 L 151.5 167.9 L 153.0 165.1 L 154.2 161.9 L 155.3 158.2 L 156.2 154.2 L 156.9 149.6 L 157.3 144.7 L 157.5 139.3 L 157.45777463912964 136.85092725753785 L 157.1 137.0 L 157.1 129.0 L 119.16915884017945 129.0 L 115.8 139.3 L 111.0 149.1 L 104.9 158.0 L 97.6 165.9 L 89.2 172.9 L 79.5 178.9 L 68.7 183.9 L 56.9 187.8 L 56.2 186.1 L 67.1 180.5 L 76.7 174.3 L 85.1 167.8 L 92.2 160.6 L 98.1 152.9 L 102.8 144.7 L 106.4 135.8 L 108.9 126.2 L 110.2 116.0 L 110.5 105.0 L 110.5 104.0 L 67.6 104.0 L 67.6 100.0 L 119.4 100.0 L 119.4 73.0 L 131.4 75.0 L 134.4 77.0 L 131.4 78.8 L 131.4 100.0 L 165.5 100.0 L 175.5 90.0 L 187.5 100.0 L 187.5 104.0 L 117.5 104.0 Z M 35.8 186.9 L 31.8 184.9 L 30.2 180.5 L 30.8 173.5 L 30.9 167.0 L 30.5 161.2 L 29.6 156.0 L 28.2 151.3 L 27.02821054458618 148.6309239387512 L 26.5 148.5 L 26.722626399993896 147.93487138748168 L 26.4 147.2 L 24.2 143.5 L 21.4 140.1 L 18.0 137.0 L 13.9 134.1 L 14.5 132.4 L 19.8 133.6 L 24.6 135.8 L 29.0 139.0 L 30.00763463973999 140.06066799163818 L 31.9 135.7 L 34.9 129.2 L 38.3 121.6 L 42.4 112.9 L 47.1 103.0 L 52.5 91.9 L 58.5 79.8 L 65.3 66.6 L 67.0 67.3 L 62.0 81.3 L 57.4 94.0 L 53.2 105.5 L 49.4 115.8 L 46.2 124.8 L 43.5 132.6 L 41.3 139.2 L 39.7 144.6 L 38.6 148.7 L 38.2 151.4 L 37.556542015075685 151.2405104637146 L 38.5 153.2 L 40.3 159.4 L 41.6 166.1 L 42.2 173.5 L 42.2 181.4 L 40.1 185.4 Z M 30.7 83.2 L 29.5 81.3 L 28.0 79.2 L 26.1 77.2 L 24.0 75.2 L 21.6 73.1 L 18.9 71.0 L 15.9 68.9 L 12.4 67.1 L 13.0 65.4 L 16.9 66.4 L 20.6 67.2 L 24.2 68.3 L 27.5 69.6 L 30.6 71.0 L 33.5 72.7 L 36.2 74.6 L 38.7 76.7 L 40.9 79.0 L 42.9 81.5 L 43.2 86.1 L 40.4 89.6 L 35.8 90.0 L 32.3 87.1 L 31.6 85.2 Z M 85.2 79.3 L 73.2 85.3 L 73.2 18.5 L 85.2 24.5 L 168.9 24.5 L 174.9 19.5 L 185.9 28.5 L 180.9 32.5 L 180.9 73.3 L 168.9 79.3 L 168.9 67.3 L 85.2 67.3 Z M 85.2 28.5 L 85.2 63.3 L 105.1 63.3 L 105.1 28.5 Z M 117.1 28.5 L 117.1 63.3 L 137.0 63.3 L 137.0 28.5 Z M 149.0 28.5 L 149.0 63.3 L 168.9 63.3 L 168.9 28.5 Z M 43.7 37.3 L 42.4 35.3 L 40.9 33.2 L 39.1 31.2 L 37.1 29.1 L 34.8 27.1 L 32.3 25.0 L 29.5 22.9 L 26.3 21.1 L 27.0 19.5 L 30.6 20.5 L 34.1 21.3 L 37.5 22.4 L 40.7 23.6 L 43.7 25.1 L 46.5 26.8 L 49.1 28.6 L 51.6 30.7 L 53.9 32.9 L 55.9 35.4 L 56.4 39.9 L 53.7 43.5 L 49.2 44.1 L 45.5 41.4 L 44.7 39.3 Z " />
</g>
</svg>
