<svg xmlns="http://www.w3.org/2000/svg" xmlns:xlink="http://www.w3.org/1999/xlink" version="1.1" baseProfile="full" viewBox="0 0 200 200" width="200" height="200">
<g fill="black">
<path d="M 76.8 25.0 L 105.6 25.0 L 111.6 20.0 L 122.6 29.0 L 117.6 33.0 L 117.6 82.0 L 105.6 88.0 L 105.6 78.0 L 76.8 78.0 L 76.8 183.0 L 64.8 189.0 L 64.8 19.0 Z M 148.1 176.0 L 168.1 176.0 L 169.3 175.9 L 170.2 175.7 L 171.1 175.4 L 171.5 175.0 L 171.8 174.1 L 172.0 173.2 L 172.1 172.0 L 172.1 78.0 L 143.3 78.0 L 143.3 85.0 L 131.3 91.0 L 131.3 19.0 L 143.3 25.0 L 172.1 25.0 L 178.1 20.0 L 189.1 29.0 L 184.1 33.0 L 184.1 172.0 L 183.9 174.5 L 183.5 177.0 L 182.7 179.4 L 181.4 181.7 L 179.8 183.7 L 177.8 185.3 L 175.5 186.6 L 173.1 187.4 L 170.6 187.8 L 168.1 188.0 L 168.1 182.0 L 148.1 179.0 Z M 31.8 186.9 L 27.7 184.9 L 26.1 180.6 L 26.7 173.5 L 26.8 166.9 L 26.5 161.0 L 25.8 155.7 L 24.8 151.0 L 24.11705026626587 148.99993295669555 L 23.1 148.8 L 23.568674659729005 147.39397592544555 L 23.4 146.9 L 21.7 143.2 L 19.6 140.0 L 17.0 137.0 L 13.9 134.2 L 14.6 132.5 L 19.1 133.8 L 23.2 136.0 L 26.52224760055542 138.96308574676513 L 27.6 135.9 L 30.1 129.5 L 33.0 121.9 L 36.4 113.1 L 40.4 103.2 L 44.8 92.1 L 49.9 79.9 L 55.7 66.6 L 57.4 67.3 L 53.5 81.2 L 49.9 93.9 L 46.6 105.3 L 43.6 115.5 L 41.1 124.5 L 38.9 132.3 L 37.2 138.9 L 36.0 144.3 L 35.2 148.4 L 34.8 151.1 L 33.78940877914429 150.9013367652893 L 34.8 153.5 L 36.4 159.5 L 37.5 166.2 L 38.0 173.5 L 38.1 181.3 L 36.1 185.4 Z M 162.8 167.2 L 162.8 171.2 L 86.1 171.2 L 86.1 167.2 L 140.8 167.2 L 150.8 157.2 Z M 150.3 132.9 L 150.3 136.9 L 98.6 136.9 L 98.6 132.9 L 128.3 132.9 L 138.3 122.9 Z M 157.9 100.8 L 157.9 104.8 L 91.0 104.8 L 91.0 100.8 L 139.71818180084227 100.8 L 147.9 91.8 Z M 26.5 82.7 L 25.7 80.8 L 24.6 78.9 L 23.3 76.9 L 21.7 74.9 L 19.8 72.9 L 17.8 70.9 L 15.5 68.8 L 12.7 67.2 L 13.4 65.5 L 16.6 66.6 L 19.8 67.4 L 22.7 68.5 L 25.6 69.8 L 28.2 71.3 L 30.7 73.0 L 33.0 74.9 L 35.1 77.0 L 37.0 79.3 L 38.7 81.8 L 38.7 86.4 L 35.5 89.7 L 31.0 89.7 L 27.7 86.6 L 27.2 84.7 Z M 143.3 53.0 L 143.3 74.0 L 172.1 74.0 L 172.1 53.0 Z M 76.8 53.0 L 76.8 74.0 L 105.6 74.0 L 105.6 53.0 Z M 143.3 29.0 L 143.3 49.0 L 172.1 49.0 L 172.1 29.0 Z M 76.8 29.0 L 76.8 49.0 L 105.6 49.0 L 105.6 29.0 Z M 37.1 36.8 L 36.2 34.8 L 35.1 32.8 L 33.8 30.9 L 32.3 28.9 L 30.6 26.9 L 28.7 24.9 L 26.6 22.8 L 24.1 21.2 L 24.8 19.6 L 27.8 20.7 L 30.8 21.5 L 33.6 22.6 L 36.3 23.9 L 38.9 25.4 L 41.3 27.1 L 43.5 28.9 L 45.6 31.0 L 47.6 33.3 L 49.3 35.7 L 49.5 40.2 L 46.4 43.7 L 41.9 43.8 L 38.4 40.8 L 37.9 38.8 Z " />
</g>
</svg>
