<svg xmlns="http://www.w3.org/2000/svg" xmlns:xlink="http://www.w3.org/1999/xlink" version="1.1" baseProfile="full" viewBox="0 0 200 200" width="200" height="200">
<g fill="black">
<path d="M 159.0 157.3 L 153.2 153.4 L 147.8 149.2 L 142.8 144.7 L 138.2 139.9 L 134.0 134.7 L 130.3 129.3 L 129.5 127.85 L 129.5 160.0 L 134.71818180084227 160.0 L 142.9 151.0 L 152.9 160.0 L 152.9 164.0 L 129.5 164.0 L 129.5 184.0 L 117.5 190.0 L 117.5 164.0 L 91.8 164.0 L 91.8 160.0 L 117.5 160.0 L 117.5 132.0102041244507 L 113.2 137.1 L 107.9 142.5 L 102.3 147.6 L 96.2 152.2 L 89.8 156.6 L 82.9 160.5 L 75.7 163.9 L 68.0 166.8 L 67.2 165.1 L 73.8 160.6 L 80.1 155.9 L 85.9 151.2 L 91.4 146.4 L 96.5 141.3 L 101.2 136.1 L 105.4 130.7 L 109.3 125.1 L 112.8 119.2 L 113.4 118.0 L 86.0 118.0 L 86.0 114.0 L 117.5 114.0 L 117.5 92.0 L 129.5 94.0 L 132.5 96.0 L 129.5 97.8 L 129.5 114.0 L 138.9 114.0 L 148.9 104.0 L 160.9 114.0 L 160.9 118.0 L 129.5 118.0 L 129.5 119.925 L 130.6 121.1 L 134.9 125.6 L 139.4 129.9 L 144.0 133.9 L 148.8 137.6 L 153.9 141.0 L 159.2 144.1 L 164.7 147.0 L 170.5 149.5 L 176.6 151.8 L 183.2 154.5 L 171.7 164.1 L 165.2 160.9 Z M 36.1 186.9 L 32.1 184.9 L 30.6 180.5 L 31.1 173.5 L 31.2 167.0 L 30.8 161.2 L 29.9 155.9 L 28.6 151.3 L 27.529857540130614 148.65611848831176 L 26.9 148.5 L 27.183853244781496 147.80128440856933 L 26.9 147.1 L 24.7 143.4 L 21.9 140.1 L 18.6 137.0 L 14.7 134.1 L 15.3 132.4 L 20.5 133.7 L 25.2 135.9 L 29.5 139.0 L 30.370347690582275 139.91615543365478 L 32.2 135.7 L 35.1 129.2 L 38.5 121.6 L 42.5 112.9 L 47.2 103.0 L 52.4 92.0 L 58.3 79.8 L 65.0 66.6 L 66.7 67.3 L 61.8 81.3 L 57.3 94.0 L 53.2 105.5 L 49.6 115.7 L 46.4 124.8 L 41.6 139.2 L 40.1 144.6 L 39.0 148.7 L 38.6 151.4 L 37.894615745544435 151.22516117095947 L 38.8 153.3 L 40.7 159.4 L 41.9 166.1 L 42.5 173.5 L 42.5 181.4 L 40.5 185.4 Z M 82.6 90.6 L 81.7 88.9 L 80.6 87.3 L 79.3 85.5 L 77.8 83.7 L 76.0 81.8 L 74.1 79.8 L 72.1 77.8 L 69.5 76.1 L 70.4 74.5 L 73.2 75.7 L 76.1 76.6 L 78.8 77.5 L 81.4 78.6 L 83.8 79.7 L 86.1 81.0 L 88.3 82.3 L 90.3 83.8 L 92.1 85.3 L 93.8 87.0 L 94.52789583206177 91.09441394805908 L 94.7 90.9 L 99.8 84.3 L 104.7 77.2 L 109.4 69.6 L 111.10500001907349 66.5 L 74.2 66.5 L 74.2 62.5 L 113.0 62.5 L 113.563076877594 62.0307692527771 L 113.8 61.6 L 113.96838483810424 61.69301261901855 L 119.0 57.5 L 130.0 66.5 L 125.0 69.5 L 122.21915187835694 70.65868673324584 L 119.0 75.7 L 113.5 83.4 L 107.7 90.5 L 101.5 97.1 L 95.2 103.1 L 88.5 108.5 L 81.6 113.3 L 74.4 117.4 L 66.9 120.7 L 59.1 123.3 L 58.4 121.6 L 65.1 117.4 L 71.5 112.8 L 77.7 107.9 L 83.6 102.7 L 89.3 97.0 L 90.5817120552063 95.55214004516601 L 87.5 96.1 L 83.7 93.5 L 83.2 92.1 Z M 165.7 111.9 L 158.8 106.7 L 152.5 101.1 L 146.8 95.1 L 141.7 88.6 L 137.3 81.8 L 133.4 74.6 L 130.3 66.9 L 128.1 58.9 L 129.8 58.2 L 133.35217390060424 63.9 L 169.6 63.9 L 170.24347829818726 63.363768100738525 L 170.7 62.4 L 171.07692308425902 62.6692307472229 L 175.6 58.9 L 186.6 67.9 L 181.6 70.9 L 176.97368421554566 72.82763156890869 L 175.0 74.9 L 172.6 77.2 L 170.1 79.7 L 167.3 82.4 L 164.3 85.4 L 160.9 88.5 L 157.33163099288942 91.77100496292114 L 159.3 93.4 L 165.4 97.8 L 172.0 101.9 L 179.0 105.6 L 186.4 108.9 L 192.4 111.6 L 181.0 120.9 L 173.1 116.6 Z M 31.0 83.2 L 29.8 81.2 L 28.4 79.2 L 26.6 77.2 L 24.5 75.1 L 22.2 73.1 L 19.5 71.0 L 16.6 68.9 L 13.2 67.1 L 13.8 65.4 L 17.6 66.4 L 21.3 67.3 L 24.8 68.3 L 28.1 69.6 L 31.1 71.1 L 34.0 72.7 L 36.6 74.6 L 39.1 76.7 L 41.3 79.0 L 43.2 81.5 L 43.5 86.1 L 40.6 89.6 L 36.0 89.9 L 32.5 87.0 L 31.9 85.1 Z M 135.99538459777833 67.9 L 138.5 71.6 L 143.2 77.7 L 148.2 83.3 L 153.5 88.6 L 155.0227424621582 89.86020069122314 L 157.4 85.7 L 159.7 81.8 L 161.9 78.2 L 163.9 74.8 L 165.7 71.8 L 167.3 69.0 L 167.9416666984558 67.9 Z M 71.9 56.8 L 71.9 23.7 L 83.9 25.7 L 86.9 27.7 L 83.9 29.5 L 83.9 46.8 L 117.5 46.8 L 117.5 15.0 L 129.5 17.0 L 132.5 19.0 L 129.5 20.8 L 129.5 46.8 L 162.3 46.8 L 162.3 23.7 L 174.3 25.7 L 177.3 27.7 L 174.3 29.5 L 174.3 50.8 L 162.3 56.8 L 162.3 50.8 L 83.9 50.8 Z M 43.7 37.3 L 42.5 35.2 L 41.0 33.2 L 39.3 31.1 L 37.3 29.1 L 35.1 27.1 L 32.7 25.0 L 30.0 22.9 L 26.9 21.2 L 27.5 19.5 L 31.0 20.5 L 34.5 21.3 L 37.8 22.4 L 41.0 23.7 L 43.9 25.1 L 46.7 26.8 L 49.3 28.6 L 51.7 30.7 L 53.9 32.9 L 55.9 35.4 L 56.4 39.9 L 53.7 43.6 L 49.1 44.1 L 45.5 41.3 L 44.7 39.3 Z " />
</g>
</svg>
