<svg xmlns="http://www.w3.org/2000/svg" xmlns:xlink="http://www.w3.org/1999/xlink" version="1.1" baseProfile="full" viewBox="0 0 200 200" width="200" height="200">
<g fill="black">
<path d="M 121.8 177.0 L 141.8 177.0 L 143.0 176.9 L 143.9 176.7 L 144.5 176.5 L 144.9 176.4 L 145.0 176.2 L 145.2 176.0 L 145.4 175.7 L 145.6 175.1 L 145.7 174.2 L 145.8 173.0 L 145.8 84.0 L 119.5 84.0 L 119.5 80.0 L 172.7 80.0 L 178.7 75.0 L 189.7 84.0 L 184.7 87.0 L 182.35016078948973 87.97909965515137 L 181.0 90.6 L 179.1 93.9 L 177.2 97.4 L 175.1 100.9 L 172.9 104.4 L 170.6 108.1 L 168.1 111.8 L 165.4 115.5 L 162.7 119.4 L 161.1 118.5 L 163.9 109.7 L 165.2 105.5 L 167.8 97.5 L 169.0 93.7 L 171.2 86.5 L 171.93529415130615 84.0 L 157.8 84.0 L 157.8 173.0 L 157.6 175.5 L 157.2 178.0 L 156.4 180.4 L 155.2 182.7 L 153.5 184.7 L 151.5 186.3 L 149.2 187.6 L 146.8 188.4 L 144.3 188.8 L 141.8 189.0 L 141.8 183.0 L 121.8 180.0 Z M 60.0 172.9 L 72.8 169.3 L 79.3 167.4 L 85.6 165.628125 L 85.6 136.0 L 61.7 136.0 L 61.7 132.0 L 85.6 132.0 L 85.6 100.0 L 74.0 100.0 L 74.0 112.0 L 63.0 117.5 L 63.0 21.5 L 74.0 27.0 L 107.9 27.0 L 113.4 22.0 L 123.9 31.0 L 118.9 34.5 L 118.9 106.0 L 107.9 111.5 L 107.9 100.0 L 95.6 100.0 L 95.6 132.0 L 99.0 132.0 L 109.0 122.0 L 121.0 132.0 L 121.0 136.0 L 95.6 136.0 L 95.6 162.9307692527771 L 98.6 162.1 L 105.0 160.4 L 111.5 158.8 L 118.0 157.4 L 124.5 156.1 L 125.1 157.8 L 119.2 160.9 L 113.2 163.9 L 101.0 169.3 L 94.9 171.9 L 70.1 181.9 L 67.60493450164795 182.85050115585327 L 66.6 186.5 L 63.8 184.3 L 58.1 173.6 Z M 33.0 186.9 L 28.9 184.9 L 27.4 180.6 L 27.9 173.5 L 28.0 167.0 L 27.7 161.1 L 27.0 155.8 L 25.8 151.1 L 24.991655349731445 148.89052467346193 L 24.1 148.7 L 24.491860485076906 147.52441864013673 L 24.3 147.0 L 22.3 143.3 L 20.0 140.0 L 17.1 137.0 L 13.6 134.2 L 14.3 132.5 L 19.1 133.7 L 23.5 136.0 L 27.4 139.1 L 27.61557283401489 139.35995550155639 L 29.0 135.8 L 31.6 129.4 L 34.7 121.8 L 38.4 113.0 L 42.6 103.1 L 47.4 92.0 L 52.9 79.9 L 59.0 66.6 L 60.7 67.3 L 56.4 81.2 L 52.4 93.9 L 48.8 105.4 L 45.5 115.6 L 42.7 124.6 L 40.4 132.4 L 38.5 139.0 L 37.1 144.4 L 36.2 148.5 L 35.8 151.2 L 34.94710283279419 151.01775703430175 L 35.9 153.4 L 37.6 159.5 L 38.7 166.2 L 39.3 173.5 L 39.4 181.3 L 37.3 185.4 Z M 74.0 66.0 L 74.0 96.0 L 85.6 96.0 L 85.6 66.0 Z M 95.6 66.0 L 95.6 96.0 L 107.9 96.0 L 107.9 66.0 Z M 27.8 82.9 L 26.8 81.0 L 25.6 79.0 L 24.1 77.0 L 22.3 75.0 L 20.2 73.0 L 17.9 71.0 L 15.4 68.8 L 12.3 67.2 L 13.0 65.5 L 16.4 66.5 L 19.8 67.4 L 23.0 68.4 L 26.0 69.7 L 28.8 71.2 L 31.5 72.9 L 33.9 74.8 L 36.2 76.9 L 38.2 79.2 L 40.0 81.7 L 40.1 86.3 L 37.1 89.7 L 32.5 89.8 L 29.1 86.8 L 28.6 84.9 Z M 148.4 68.0 L 147.2 65.3 L 145.8 62.6 L 144.2 59.9 L 142.5 57.3 L 140.7 54.7 L 138.7 52.2 L 136.5 49.6 L 134.0 47.2 L 135.0 45.7 L 138.1 47.3 L 141.4 48.8 L 144.4 50.6 L 147.3 52.7 L 150.1 54.9 L 151.94882202148438 56.67486915588379 L 153.2 54.4 L 155.0 50.3 L 156.8 46.6 L 158.6 43.0 L 160.2 39.5 L 161.8 36.3 L 163.2 33.2 L 164.5 30.3 L 164.63333330154418 30.0 L 124.2 30.0 L 124.2 26.0 L 166.0 26.0 L 166.46415090560913 25.61320753097534 L 166.7 25.0 L 166.99863481521606 25.167804336547853 L 172.0 21.0 L 183.0 30.0 L 178.0 33.0 L 174.47461137771606 34.46891193389892 L 173.5 35.7 L 171.4 38.3 L 169.2 41.0 L 166.9 43.9 L 164.3 46.8 L 161.6 49.8 L 158.8 52.9 L 155.6 56.1 L 153.5782608985901 58.317391300201415 L 155.1 59.9 L 157.4 62.7 L 159.5 65.6 L 161.4 68.8 L 161.5 73.3 L 158.4 76.7 L 153.8 76.8 L 150.5 73.7 L 149.5 70.8 Z M 74.0 31.0 L 74.0 62.0 L 85.6 62.0 L 85.6 31.0 Z M 95.6 31.0 L 95.6 62.0 L 107.9 62.0 L 107.9 31.0 Z M 39.3 37.0 L 38.3 35.0 L 37.0 33.0 L 35.5 31.0 L 33.8 29.0 L 31.9 27.0 L 29.8 24.9 L 27.4 22.8 L 24.7 21.2 L 25.4 19.5 L 28.5 20.6 L 31.8 21.4 L 34.8 22.5 L 37.7 23.8 L 40.4 25.3 L 43.0 26.9 L 45.4 28.8 L 47.6 30.9 L 49.6 33.1 L 51.5 35.5 L 51.8 40.1 L 48.9 43.6 L 44.3 43.9 L 40.8 41.0 L 40.1 39.0 Z " />
</g>
</svg>
