<svg xmlns="http://www.w3.org/2000/svg" xmlns:xlink="http://www.w3.org/1999/xlink" version="1.1" baseProfile="full" viewBox="0 0 200 200" width="200" height="200">
<g fill="black">
<path d="M 145.0 176.0 L 159.0 176.0 L 160.2 175.9 L 161.1 175.7 L 162.0 175.4 L 162.4 175.0 L 162.7 174.1 L 162.9 173.2 L 163.0 172.0 L 163.0 132.0 L 106.0 132.0 L 106.0 179.0 L 94.0 185.0 L 94.0 132.0 L 38.0 132.0 L 38.0 182.0 L 26.0 188.0 L 26.0 122.0 L 38.0 128.0 L 94.0 128.0 L 94.0 115.6 L 71.0 115.6 L 59.0 121.6 L 59.0 97.1 L 19.0 97.1 L 19.0 93.1 L 59.0 93.1 L 59.0 82.7 L 71.0 84.7 L 74.0 86.7 L 71.0 88.5 L 71.0 93.1 L 127.0 93.1 L 127.0 82.7 L 139.0 84.7 L 142.0 86.7 L 139.0 88.5 L 139.0 93.1 L 160.0 93.1 L 170.0 83.1 L 182.0 93.1 L 182.0 97.1 L 139.0 97.1 L 139.0 115.6 L 127.0 121.6 L 127.0 115.6 L 106.0 115.6 L 106.0 128.0 L 163.0 128.0 L 169.0 123.0 L 180.0 132.0 L 175.0 136.0 L 175.0 172.0 L 174.8 174.5 L 174.4 177.0 L 173.6 179.4 L 172.3 181.7 L 170.7 183.7 L 168.7 185.3 L 166.4 186.6 L 164.0 187.4 L 161.5 187.8 L 159.0 188.0 L 159.0 182.0 L 145.0 179.0 Z M 141.6 164.8 L 139.1 162.1 L 137.6555555343628 160.6555555343628 L 135.7 162.3 L 130.9 165.5 L 125.8 168.3 L 120.4 170.6 L 114.6 172.4 L 108.6 173.5 L 108.0 171.8 L 113.2 168.8 L 118.0 165.8 L 122.4 162.7 L 126.4 159.4 L 130.0 155.9 L 131.09575901031494 154.6714217185974 L 130.3 154.0 L 126.9 151.3 L 123.3 148.6 L 119.6 145.8 L 115.5 143.1 L 116.3 141.4 L 121.0 142.9 L 125.6 144.3 L 130.0 146.1 L 134.2 148.0 L 135.76364488601683 148.80186920166017 L 136.2 148.2 L 138.8 144.0 L 141.1 139.6 L 142.63187503814697 135.81062498092652 L 142.6 135.8 L 143.5 133.6 L 154.0 139.6 L 156.0 142.7 L 152.08118810653687 143.17296009063722 L 151.1 145.0 L 147.8 149.9 L 144.4743423461914 153.9447187423706 L 145.5 154.6 L 148.8 157.1 L 152.0 159.7 L 155.0 162.5 L 156.4 166.9 L 154.3 171.0 L 150.0 172.3 L 145.9 170.3 L 143.8 167.6 Z M 73.6 164.8 L 71.1 162.1 L 69.65555553436279 160.6555555343628 L 67.7 162.3 L 62.9 165.5 L 57.8 168.3 L 52.4 170.6 L 46.6 172.4 L 40.6 173.5 L 40.0 171.8 L 45.2 168.8 L 50.0 165.8 L 54.4 162.7 L 58.4 159.4 L 62.0 155.9 L 63.09575901031494 154.6714217185974 L 62.3 154.0 L 58.9 151.3 L 55.3 148.6 L 51.6 145.8 L 47.5 143.1 L 48.3 141.4 L 53.0 142.9 L 57.6 144.3 L 62.0 146.1 L 66.2 148.0 L 67.76364488601685 148.80186920166017 L 68.2 148.2 L 70.8 144.0 L 73.1 139.6 L 74.63187503814697 135.81062498092652 L 74.6 135.8 L 75.5 133.6 L 86.0 139.6 L 88.0 142.7 L 84.08118810653687 143.17296009063722 L 83.1 145.0 L 79.8 149.9 L 76.4743423461914 153.9447187423706 L 77.5 154.6 L 80.8 157.1 L 84.0 159.7 L 87.0 162.5 L 88.4 166.9 L 86.3 171.0 L 82.0 172.3 L 77.9 170.3 L 75.8 167.6 Z M 71.0 97.1 L 71.0 111.6 L 127.0 111.6 L 127.0 97.1 Z M 95.0 72.7 L 115.0 72.7 L 116.2 72.6 L 117.1 72.5 L 117.7 72.3 L 118.0 72.1 L 118.2 72.0 L 118.4 71.8 L 118.5 71.4 L 118.7 70.9 L 118.9 69.9 L 119.0 68.7 L 119.0 38.8 L 115.0 41.2 L 113.48000001907349 41.83333330154419 L 113.1 43.1 L 110.3 48.7 L 106.6 53.9 L 102.0 58.6 L 96.6 62.8 L 90.3 66.7 L 83.3 70.2 L 75.5 73.2 L 66.8 75.9 L 57.2 78.0 L 56.7 76.3 L 65.5 72.3 L 73.3 68.3 L 80.3 64.3 L 86.3 60.3 L 91.3 56.2 L 95.4 52.0 L 98.6 47.8 L 100.9 43.7 L 102.3 39.5 L 102.51666669845581 38.2 L 74.0 38.2 L 74.0 34.2 L 103.0 34.2 L 109.0 29.2 L 119.0 37.38181819915771 L 119.0 12.6 L 131.0 14.6 L 134.0 16.6 L 131.0 18.4 L 131.0 25.3 L 133.7 31.8 L 136.7 37.7 L 138.89618377685548 41.05886926651001 L 141.9 39.7 L 145.8 37.7 L 153.6 34.1 L 157.2 32.5 L 160.8 30.8 L 164.3 29.2 L 167.6 27.7 L 170.8 26.2 L 173.05168914794922 25.11047296524048 L 173.0 25.0 L 173.1004137992859 25.08689651489258 L 173.9 24.7 L 174.49893236160278 26.297152996063232 L 183.4 34.0 L 183.6 37.1 L 179.59192171096802 35.365160179138186 L 178.1 35.9 L 171.1 37.7 L 167.4 38.5 L 163.6 39.3 L 159.7 40.1 L 155.6 40.9 L 151.5 41.6 L 147.2 42.2 L 142.7 42.7 L 140.21000003814697 43.03199996948242 L 144.1 47.7 L 148.7 52.0 L 153.9 55.9 L 159.8 59.3 L 166.4 62.4 L 173.7 65.0 L 181.8 67.3 L 189.8 69.6 L 178.1 80.0 L 169.4 76.8 L 161.4 73.1 L 154.2 68.8 L 147.8 64.0 L 142.2 58.7 L 137.6 52.9 L 134.0 46.7 L 131.3 40.0 L 131.0 38.6875 L 131.0 68.7 L 130.8 71.3 L 130.4 73.8 L 129.6 76.2 L 128.3 78.4 L 126.7 80.5 L 124.7 82.1 L 122.4 83.3 L 120.0 84.1 L 117.5 84.6 L 115.0 84.7 L 115.0 78.7 L 95.0 75.7 Z M 35.0 81.8 L 31.2 79.2 L 30.2 74.8 L 30.7 73.5 L 31.0 72.3 L 31.0 71.1 L 30.6 69.7 L 29.5 68.1 L 27.8 66.4 L 25.4 64.7 L 22.2 63.0 L 18.5 61.3 L 14.0 60.2 L 14.2 58.5 L 18.9 58.9 L 23.3 59.1 L 27.3 59.8 L 29.234336566925048 60.297400856018065 L 30.3 59.4 L 32.6 57.5 L 35.5 55.2 L 38.9 52.5 L 42.8 49.4 L 47.4 45.9 L 52.5 42.0 L 58.3 37.8 L 64.7 33.2 L 65.9 34.5 L 60.7 40.4 L 55.9 45.7 L 51.7 50.5 L 47.9 54.7 L 44.6 58.5 L 41.9 61.7 L 39.7 64.4 L 38.59631233215332 65.91757049560547 L 39.2 66.6 L 41.0 69.6 L 41.9 73.2 L 42.0 76.9 L 39.5 80.7 Z M 31.5 43.0 L 30.3 42.1 L 28.8 41.0 L 26.9 40.0 L 24.6 38.9 L 22.1 37.7 L 19.2 36.6 L 16.0 35.3 L 12.5 34.5 L 12.8 32.7 L 16.4 33.0 L 19.9 32.8 L 23.1 32.7 L 26.0 32.8 L 28.7 32.9 L 31.2 33.0 L 33.5 33.3 L 35.7 33.7 L 37.7 34.2 L 39.6 34.9 L 41.9 38.9 L 40.9 43.3 L 36.9 45.6 L 32.5 44.6 L 32.2 43.9 Z M 44.3 25.4 L 43.1 24.4 L 41.5 23.4 L 39.7 22.3 L 37.5 21.2 L 35.1 20.1 L 32.5 18.9 L 29.5 17.6 L 26.3 16.8 L 26.5 15.1 L 29.9 15.3 L 33.2 15.1 L 39.0 15.1 L 41.6 15.3 L 44.1 15.4 L 46.3 15.7 L 48.5 16.1 L 50.5 16.6 L 52.4 17.2 L 54.9 21.1 L 54.0 25.5 L 50.2 28.0 L 45.7 27.2 L 45.2 26.4 Z " />
</g>
</svg>
