<svg xmlns="http://www.w3.org/2000/svg" xmlns:xlink="http://www.w3.org/1999/xlink" version="1.1" baseProfile="full" viewBox="0 0 200 200" width="200" height="200">
<g fill="black">
<path d="M 75.0 112.6 L 109.2 112.6 L 115.2 107.6 L 126.2 116.6 L 121.2 120.6 L 121.2 178.4 L 109.2 184.4 L 109.2 174.4 L 75.0 174.4 L 75.0 181.4 L 63.0 187.4 L 63.0 106.6 Z M 133.0 173.9 L 153.0 173.9 L 154.3 173.8 L 155.2 173.6 L 155.8 173.5 L 156.1 173.3 L 156.3 173.1 L 156.4 172.9 L 156.6 172.6 L 156.8 172.0 L 157.0 171.1 L 157.0 71.3 L 136.5 71.3 L 136.5 67.3 L 167.0 67.3 L 177.0 57.3 L 189.0 67.3 L 189.0 71.3 L 169.0 71.3 L 169.0 169.9 L 168.9 172.4 L 168.5 174.9 L 167.7 177.3 L 166.4 179.6 L 164.8 181.6 L 162.8 183.3 L 160.5 184.5 L 158.1 185.3 L 155.6 185.7 L 153.0 185.9 L 153.0 179.9 L 133.0 176.9 Z M 30.5 185.9 L 26.4 183.9 L 24.8 179.6 L 25.3 172.5 L 25.4 165.9 L 25.2 160.0 L 24.5 154.7 L 23.6 150.0 L 22.92356071472168 148.01899909973145 L 21.8 147.8 L 22.326140117645263 146.26941041946412 L 22.2 145.9 L 20.6 142.2 L 18.5 138.9 L 16.1 136.0 L 13.1 133.2 L 13.8 131.5 L 18.2 132.8 L 22.3 135.1 L 25.306200313568116 137.77217807769776 L 26.3 135.0 L 28.7 128.5 L 31.5 120.9 L 34.9 112.1 L 38.7 102.2 L 43.1 91.1 L 48.1 78.9 L 53.7 65.7 L 55.4 66.2 L 51.7 80.2 L 48.2 92.9 L 45.0 104.3 L 42.1 114.5 L 39.6 123.5 L 37.6 131.3 L 35.9 137.9 L 34.7 143.3 L 33.9 147.4 L 33.6 150.1 L 32.59011716842652 149.90315847396852 L 33.6 152.5 L 35.1 158.6 L 36.2 165.2 L 36.7 172.5 L 36.8 180.3 L 34.8 184.4 Z M 75.0 144.6 L 75.0 170.4 L 109.2 170.4 L 109.2 144.6 Z M 75.0 116.6 L 75.0 140.6 L 109.2 140.6 L 109.2 116.6 Z M 80.5 94.2 L 79.9 91.8 L 79.2 89.4 L 78.3 87.0 L 77.4 84.5 L 76.4 82.0 L 76.2816725730896 81.6923487663269 L 74.5 87.6 L 72.2 93.4 L 69.4 98.7 L 66.1 103.3 L 62.3 107.3 L 58.1 110.5 L 53.5 112.8 L 52.5 111.3 L 55.6 107.6 L 58.3 103.8 L 60.6 99.7 L 62.6 95.2 L 64.3 90.4 L 65.6 85.1 L 66.6 79.4 L 67.2 73.1 L 67.4 66.4 L 67.38333330154418 65.2 L 52.0 65.2 L 52.0 61.2 L 67.3277777671814 61.2 L 67.3 59.2 L 67.3 35.3 L 65.46666669845581 35.3 L 64.1 39.4 L 62.5 43.3 L 60.8 47.0 L 59.0 50.3 L 56.9 53.4 L 54.8 56.1 L 53.2 55.3 L 53.9 52.0 L 54.5 48.6 L 55.1 45.1 L 55.7 41.4 L 56.2 37.5 L 56.7 33.3 L 57.1 29.0 L 57.4 24.5 L 57.7 19.7 L 57.77998676300049 15.700661087036133 L 57.7 15.7 L 58.0 12.6 L 69.8 15.8 L 72.6 18.1 L 69.11762151718139 19.742631340026854 L 68.9 21.0 L 67.9 26.0 L 66.7 30.7 L 66.53999996185303 31.3 L 77.4777777671814 31.3 L 83.7 24.3 L 91.7 31.3 L 91.7 35.3 L 79.3 35.3 L 79.3 59.2 L 79.17179489135742 61.2 L 82.7 61.2 L 87.2 55.2 L 93.2 61.2 L 93.2 65.2 L 78.91538457870483 65.2 L 78.8 67.0 L 77.8 74.4 L 77.43870964050294 76.18064517974854 L 78.6 77.1 L 80.8 79.0 L 82.8 81.1 L 84.7 83.2 L 86.5 85.3 L 88.3 87.5 L 89.9 89.8 L 91.4 92.1 L 92.8 94.5 L 92.6 99.0 L 89.3 102.2 L 84.7 102.0 L 81.5 98.7 L 81.1 96.5 Z M 105.6 29.3 L 120.2 29.3 L 126.2 24.3 L 137.2 33.3 L 132.2 37.3 L 132.2 96.6 L 120.2 102.6 L 120.2 90.6 L 105.6 90.6 L 105.6 97.6 L 93.6 103.6 L 93.6 23.3 Z M 25.2 81.7 L 24.4 79.8 L 23.4 77.8 L 22.1 75.9 L 20.6 73.9 L 18.8 71.9 L 16.8 69.9 L 14.6 67.8 L 11.9 66.2 L 12.7 64.5 L 15.7 65.6 L 18.8 66.5 L 21.8 67.6 L 24.5 68.9 L 27.1 70.4 L 29.5 72.1 L 31.8 74.0 L 33.8 76.1 L 35.7 78.4 L 37.3 80.9 L 37.3 85.4 L 34.1 88.7 L 29.5 88.7 L 26.3 85.5 L 25.8 83.6 Z M 105.6 33.3 L 105.6 86.6 L 120.2 86.6 L 120.2 33.3 Z M 35.5 35.7 L 34.7 33.8 L 33.6 31.8 L 32.4 29.8 L 30.9 27.8 L 29.3 25.9 L 27.5 23.9 L 25.4 21.8 L 23.0 20.2 L 23.8 18.6 L 26.6 19.7 L 29.5 20.5 L 32.3 21.6 L 35.0 22.9 L 37.5 24.4 L 39.8 26.1 L 42.0 28.0 L 44.1 30.1 L 46.0 32.3 L 47.7 34.7 L 47.8 39.3 L 44.7 42.7 L 40.1 42.8 L 36.8 39.7 L 36.2 37.7 Z M 183.7 26.1 L 183.7 30.1 L 140.3 30.1 L 140.3 26.1 L 165.51818180084229 26.1 L 173.7 17.1 Z " />
</g>
</svg>
