<svg xmlns="http://www.w3.org/2000/svg" xmlns:xlink="http://www.w3.org/1999/xlink" version="1.1" baseProfile="full" viewBox="0 0 200 200" width="200" height="200">
<g fill="black">
<path d="M 151.1 161.4 L 152.3 164.8 L 148.3584704399109 164.32429819107057 L 148.1 164.6 L 144.8 167.8 L 141.3 170.9 L 137.5 173.8 L 133.5 176.6 L 129.3 179.4 L 124.8 182.0 L 120.1 184.4 L 115.0 186.7 L 109.7 188.7 L 108.8 187.2 L 113.1 183.6 L 117.2 180.1 L 121.1 176.7 L 124.8 173.4 L 128.2 170.1 L 131.4 166.9 L 134.3 163.7 L 137.0 160.5 L 139.4 157.3 L 141.03466320037842 154.92230806350707 L 141.0 154.9 L 142.0 153.5 Z M 174.4 175.5 L 172.8 172.7 L 171.1 170.1 L 169.2 167.4 L 167.2 164.9 L 165.1 162.4 L 162.8 159.9 L 160.4 157.4 L 157.7 155.2 L 158.5 153.6 L 161.9 155.0 L 165.3 156.3 L 168.6 157.9 L 171.7 159.8 L 174.7 161.9 L 177.6 164.2 L 180.3 166.7 L 182.9 169.4 L 185.3 172.3 L 187.7 175.4 L 188.2 179.9 L 185.4 183.6 L 180.9 184.1 L 177.2 181.3 L 175.9 178.4 Z M 31.8 186.9 L 27.7 184.9 L 26.1 180.6 L 26.7 173.5 L 26.8 166.9 L 26.5 161.0 L 25.8 155.7 L 24.8 151.0 L 24.11705026626587 148.99993295669555 L 23.1 148.8 L 23.568674659729005 147.39397592544555 L 23.4 146.9 L 21.7 143.2 L 19.6 140.0 L 17.0 137.0 L 13.9 134.2 L 14.6 132.5 L 19.1 133.8 L 23.2 136.0 L 26.52224760055542 138.96308574676513 L 27.6 135.9 L 30.1 129.5 L 33.0 121.9 L 36.4 113.1 L 40.4 103.2 L 44.8 92.1 L 49.9 79.9 L 55.7 66.6 L 57.4 67.3 L 53.5 81.2 L 49.9 93.9 L 46.6 105.3 L 43.6 115.5 L 41.1 124.5 L 38.9 132.3 L 37.2 138.9 L 36.0 144.3 L 35.2 148.4 L 34.8 151.1 L 33.78940877914429 150.9013367652893 L 34.8 153.5 L 36.4 159.5 L 37.5 166.2 L 38.0 173.5 L 38.1 181.3 L 36.1 185.4 Z M 108.1 128.9 L 107.1 125.9 L 106.1 123.1 L 105.1 120.4 L 104.1 117.9 L 103.0 115.6 L 102.0 113.3 L 101.93043479919433 113.16086959838867 L 102.0 113.5 L 103.4 125.3 L 103.8 137.2 L 103.1 149.1 L 101.3 161.1 L 98.5 173.1 L 97.7 175.5 L 96.6 177.8 L 95.2 179.9 L 93.6 181.7 L 91.7 183.4 L 89.6 184.7 L 87.3 185.7 L 84.9 186.4 L 82.4 186.8 L 79.9 187.0 L 79.9 181.0 L 59.9 178.0 L 59.9 175.0 L 79.9 175.0 L 81.2 174.9 L 82.3 174.7 L 83.2 174.5 L 83.9 174.1 L 85.1 173.3 L 85.6 172.7 L 86.1 171.9 L 86.6 170.9 L 87.1 169.6 L 90.2 158.7 L 92.5 147.7 L 93.8 136.7 L 94.2 125.7 L 94.17176332473755 125.17762155532837 L 90.3 130.4 L 85.8 135.8 L 81.1 140.8 L 76.1 145.3 L 70.9 149.3 L 65.6 152.7 L 59.9 155.6 L 54.1 157.7 L 53.2 156.2 L 57.9 152.3 L 62.4 148.4 L 66.7 144.2 L 70.8 139.8 L 74.8 135.1 L 78.6 130.1 L 82.1 124.7 L 85.5 118.9 L 88.7 112.8 L 91.8 106.3 L 92.53730449676513 106.66520690917969 L 92.1 103.4 L 89.88788986206055 92.98464832305908 L 88.8 94.6 L 85.3 99.3 L 81.5 103.8 L 77.6 108.1 L 73.4 112.3 L 69.0 116.3 L 64.4 120.1 L 59.4 123.5 L 54.2 126.6 L 53.1 125.3 L 56.9 120.7 L 60.7 116.2 L 64.3 111.7 L 67.8 107.3 L 71.0 102.8 L 74.1 98.2 L 77.0 93.5 L 79.7 88.8 L 82.3 84.0 L 84.6 79.2 L 86.15500450134277 80.00684194564819 L 82.3 69.1 L 80.83299856185913 65.63787660598754 L 78.2 68.6 L 73.0 73.8 L 67.5 79.0 L 61.5 83.9 L 55.0 88.6 L 53.8 87.3 L 58.8 81.2 L 63.6 75.3 L 68.1 69.5 L 72.3 63.8 L 76.2 58.2 L 79.7 52.6 L 82.8 47.0 L 85.6 41.5 L 88.1 36.1 L 88.52580642700195 35.0 L 58.0 35.0 L 58.0 31.0 L 96.2 31.0 L 106.2 21.0 L 118.2 31.0 L 118.2 35.0 L 101.3 35.0 L 98.3 41.0 L 95.0 46.7 L 91.4 52.3 L 87.4 57.8 L 83.03698339462281 63.15461130142212 L 85.7 67.4 L 91.4 78.7 L 93.4333333015442 83.78333330154419 L 95.2 84.7 L 94.34901962280273 86.07254905700684 L 96.0 90.2 L 96.06226415634156 90.40062894821168 L 96.4 89.5 L 97.7 85.5 L 99.0 81.7 L 100.4 78.0 L 101.7 74.5 L 103.1 71.1 L 105.7 64.7 L 106.9 61.7 L 107.70689105987549 59.750013256073 L 107.6 59.7 L 107.99514560699463 59.053398036956786 L 108.1 58.8 L 108.13696680068969 58.82132701873779 L 108.7 57.9 L 118.5 64.8 L 120.2 68.0 L 116.13815183639527 68.06884489059448 L 114.8 69.9 L 112.8 72.6 L 110.8 75.4 L 108.6 78.3 L 106.4 81.3 L 104.1 84.5 L 101.6 87.7 L 99.0 90.9 L 97.06009616851807 93.61586542129517 L 99.6 101.8 L 100.87455625534058 108.0134614944458 L 102.7 109.2 L 105.0 110.6 L 107.2 112.2 L 109.4 114.2 L 111.5 116.4 L 113.5 118.9 L 115.5 121.5 L 117.5 124.5 L 119.4 127.6 L 121.2 130.9 L 121.1 135.5 L 117.8 138.7 L 113.3 138.6 L 110.0 135.4 L 109.1 132.0 Z M 188.7 26.0 L 188.7 30.0 L 161.5 30.0 L 159.9 33.0 L 158.3 35.9 L 156.7 38.7 L 153.1 44.1 L 151.2 46.7 L 149.2 49.3 L 147.2 51.7 L 144.9 54.0 L 169.0 54.0 L 175.0 49.0 L 186.0 58.0 L 181.0 62.0 L 181.0 144.0 L 169.0 150.0 L 169.0 144.0 L 138.6 144.0 L 138.6 147.0 L 126.6 153.0 L 126.6 48.0 L 138.6 54.0 L 142.02068967819213 54.0 L 142.6 52.6 L 143.5 49.6 L 144.4 46.7 L 145.4 43.7 L 146.3 40.8 L 147.1 37.8 L 148.0 34.9 L 148.8 31.9 L 149.24333333969116 30.0 L 120.2 30.0 L 120.2 26.0 L 166.7 26.0 L 176.7 16.0 Z M 138.6 115.0 L 138.6 140.0 L 169.0 140.0 L 169.0 115.0 Z M 138.6 87.0 L 138.6 111.0 L 169.0 111.0 L 169.0 87.0 Z M 26.5 82.7 L 25.7 80.8 L 24.6 78.9 L 23.3 76.9 L 21.7 74.9 L 19.8 72.9 L 17.8 70.9 L 15.5 68.8 L 12.7 67.2 L 13.4 65.5 L 16.6 66.6 L 19.8 67.4 L 22.7 68.5 L 25.6 69.8 L 28.2 71.3 L 30.7 73.0 L 33.0 74.9 L 35.1 77.0 L 37.0 79.3 L 38.7 81.8 L 38.7 86.4 L 35.5 89.7 L 31.0 89.7 L 27.7 86.6 L 27.2 84.7 Z M 138.6 58.0 L 138.6 83.0 L 169.0 83.0 L 169.0 58.0 Z M 37.1 36.8 L 36.2 34.8 L 35.1 32.8 L 33.8 30.9 L 32.3 28.9 L 30.6 26.9 L 28.7 24.9 L 26.6 22.8 L 24.1 21.2 L 24.8 19.6 L 27.8 20.7 L 30.8 21.5 L 33.6 22.6 L 36.3 23.9 L 38.9 25.4 L 41.3 27.1 L 43.5 28.9 L 45.6 31.0 L 47.6 33.3 L 49.3 35.7 L 49.5 40.2 L 46.4 43.7 L 41.9 43.8 L 38.4 40.8 L 37.9 38.8 Z " />
</g>
</svg>
