<svg xmlns="http://www.w3.org/2000/svg" xmlns:xlink="http://www.w3.org/1999/xlink" version="1.1" baseProfile="full" viewBox="0 0 200 200" width="200" height="200">
<g fill="black">
<path d="M 79.1 26.0 L 165.1 26.0 L 175.1 16.0 L 187.1 26.0 L 187.1 30.0 L 79.1 30.0 L 79.1 91.0 L 78.6 105.0 L 77.8 118.2 L 76.6 130.4 L 75.1 141.8 L 73.2 152.1 L 71.0 161.6 L 68.3 170.1 L 65.2 177.6 L 61.6 184.1 L 57.6 189.4 L 56.1 188.5 L 58.2 182.5 L 60.2 175.8 L 62.0 168.3 L 63.5 160.0 L 64.9 150.8 L 65.9 140.6 L 66.6 129.6 L 67.1 117.6 L 67.3 104.8 L 67.1 91.0 L 67.1 20.0 Z M 102.7 126.4 L 161.9 126.4 L 167.9 121.4 L 178.9 130.4 L 173.9 134.4 L 173.9 178.7 L 161.9 184.7 L 161.9 174.7 L 102.7 174.7 L 102.7 181.7 L 90.7 187.7 L 90.7 120.4 Z M 34.3 186.9 L 30.2 184.9 L 28.7 180.6 L 29.2 173.5 L 29.3 167.0 L 28.9 161.2 L 28.1 155.9 L 26.8 151.2 L 25.78775930404663 148.758713722229 L 25.1 148.6 L 25.39059829711914 147.80085468292236 L 25.1 147.1 L 23.0 143.4 L 20.4 140.1 L 17.2 137.0 L 13.4 134.1 L 14.0 132.5 L 19.1 133.7 L 23.7 135.9 L 27.9 139.0 L 28.62724142074585 139.80586204528808 L 30.3 135.7 L 33.1 129.3 L 36.4 121.7 L 44.9 103.0 L 50.0 92.0 L 55.8 79.8 L 62.3 66.6 L 64.0 67.3 L 59.3 81.3 L 54.9 94.0 L 51.0 105.5 L 47.4 115.7 L 44.4 124.7 L 41.8 132.6 L 39.7 139.2 L 38.2 144.5 L 37.2 148.6 L 36.8 151.3 L 36.051943969726565 151.12737169265748 L 37.0 153.3 L 38.8 159.4 L 40.0 166.1 L 40.6 173.5 L 40.6 181.4 L 38.6 185.4 Z M 102.7 152.6 L 102.7 170.7 L 161.9 170.7 L 161.9 152.6 Z M 102.7 130.4 L 102.7 148.6 L 161.9 148.6 L 161.9 130.4 Z M 170.7 103.0 L 167.8 99.1 L 165.3 95.1 L 163.0 90.9 L 161.1 86.6 L 159.9 83.3 L 159.9 117.2 L 147.9 123.2 L 147.9 88.89375 L 147.7 89.2 L 144.1 93.8 L 140.2 98.1 L 135.8 102.2 L 131.1 105.9 L 125.9 109.2 L 120.2 112.2 L 119.2 110.7 L 123.5 106.3 L 127.5 101.9 L 131.1 97.6 L 134.4 93.2 L 137.3 88.8 L 139.8 84.3 L 141.9 79.7 L 143.7 75.1 L 145.2 70.3 L 145.5 68.8 L 133.5 68.8 L 133.5 64.8 L 147.9 64.8 L 147.9 50.97142858505249 L 144.4 51.4 L 139.3 52.0 L 133.9 52.3 L 128.3 52.7 L 127.9 50.9 L 133.2 48.9 L 138.2 47.0 L 143.0 45.3 L 147.6 43.7 L 152.1 42.1 L 156.3 40.6 L 160.3 39.2 L 164.1 37.8 L 167.7 36.5 L 170.06547317504882 35.56814689636231 L 170.0 35.4 L 170.15744676589966 35.5319149017334 L 171.0 35.2 L 171.40787258148194 36.57956886291504 L 181.1 44.7 L 181.3 47.7 L 177.2083020210266 45.86170091629028 L 174.4 46.7 L 170.7 47.4 L 166.9 48.1 L 162.8 48.8 L 159.9 49.27209300994873 L 159.9 64.8 L 162.5 64.8 L 172.5 54.8 L 184.5 64.8 L 184.5 68.8 L 159.9 68.8 L 159.9 69.87391300201416 L 160.9 71.7 L 163.3 75.5 L 165.6 79.2 L 168.1 82.8 L 170.7 86.1 L 173.4 89.2 L 176.2 92.2 L 179.2 95.0 L 182.4 97.6 L 185.7 100.1 L 188.1 102.1 L 177.2 110.2 L 173.8 106.7 Z M 120.6 88.6 L 119.7 87.4 L 118.7 86.2 L 117.5 84.9 L 116.1 83.6 L 114.6 82.3 L 112.9 81.0 L 112.9 117.2 L 100.9 123.2 L 100.9 88.11785717010498 L 99.0 90.9 L 95.9 94.8 L 92.6 98.5 L 89.0 101.9 L 85.1 104.9 L 81.0 107.7 L 79.8 106.4 L 82.6 102.4 L 87.6 94.6 L 89.8 90.6 L 91.9 86.6 L 93.7 82.5 L 95.4 78.3 L 96.8 74.1 L 98.1 69.7 L 98.28620691299439 68.8 L 80.4 68.8 L 80.4 64.8 L 100.9 64.8 L 100.9 51.511764717102054 L 99.3 51.7 L 93.9 52.1 L 88.0 52.4 L 81.9 52.7 L 81.6 50.9 L 87.4 49.0 L 92.9 47.2 L 98.1 45.5 L 102.8 44.0 L 107.2 42.5 L 111.2 41.1 L 114.7 39.7 L 117.9 38.4 L 120.6 37.1 L 122.02779026031494 36.35506591796875 L 122.0 36.3 L 122.04927625656128 36.34385585784912 L 122.9 35.9 L 123.66173362731934 37.77894287109375 L 132.0 45.2 L 132.2 48.3 L 128.26011610031128 46.66343278884888 L 127.4 47.0 L 124.4 47.8 L 121.1 48.6 L 117.4 49.2 L 113.4 49.9 L 112.9 49.96976747512817 L 112.9 64.8 L 117.1777777671814 64.8 L 123.4 57.8 L 131.4 64.8 L 131.4 68.8 L 112.9 68.8 L 112.9 77.54583330154419 L 114.2 77.6 L 116.5 77.8 L 118.7 78.2 L 120.8 78.6 L 122.8 79.1 L 124.8 79.7 L 126.7 80.5 L 128.5 81.3 L 130.2 82.3 L 131.9 86.5 L 130.2 90.8 L 126.0 92.5 L 121.7 90.8 L 121.2 89.7 Z M 29.1 83.1 L 28.0 81.1 L 26.6 79.1 L 24.9 77.1 L 22.9 75.1 L 20.6 73.1 L 18.1 71.0 L 15.2 68.9 L 12.0 67.1 L 12.6 65.5 L 16.3 66.5 L 19.9 67.3 L 23.3 68.4 L 26.5 69.6 L 29.5 71.1 L 32.3 72.8 L 34.9 74.6 L 37.2 76.7 L 39.4 79.1 L 41.3 81.6 L 41.5 86.1 L 38.6 89.6 L 34.0 89.9 L 30.5 87.0 L 29.9 85.0 Z M 41.4 37.2 L 40.3 35.2 L 38.9 33.1 L 37.2 31.1 L 35.3 29.1 L 33.2 27.0 L 30.8 25.0 L 28.3 22.9 L 25.2 21.2 L 25.9 19.5 L 29.3 20.5 L 32.7 21.3 L 36.0 22.4 L 39.0 23.7 L 41.9 25.2 L 44.6 26.8 L 47.2 28.7 L 49.5 30.7 L 51.7 33.0 L 53.7 35.4 L 54.1 40.0 L 51.3 43.6 L 46.7 44.0 L 43.1 41.2 L 42.4 39.2 Z " />
</g>
</svg>
