<svg xmlns="http://www.w3.org/2000/svg" xmlns:xlink="http://www.w3.org/1999/xlink" version="1.1" baseProfile="full" viewBox="0 0 200 200" width="200" height="200">
<g fill="black">
<path d="M 157.9 162.0 L 157.9 166.0 L 132.5 166.0 L 132.5 180.2 L 120.5 186.2 L 120.5 166.0 L 94.3 166.0 L 94.3 162.0 L 139.71818180084227 162.0 L 146.71818180084227 154.3 L 146.5 154.3 L 144.1 154.4 L 141.9 154.2 L 139.7 153.8 L 137.6 152.9 L 135.6 151.6 L 133.9 149.9 L 132.5 147.9 L 131.5 145.7 L 130.8 143.3 L 130.5 140.8 L 130.5 134.8 L 119.9 134.8 L 119.8 135.0 L 117.6 139.1 L 115.0 142.9 L 112.0 146.3 L 108.7 149.5 L 105.2 152.3 L 101.3 154.8 L 97.2 156.9 L 92.8 158.7 L 88.0 160.1 L 83.1 161.2 L 82.5 159.5 L 86.8 157.1 L 90.5 154.4 L 94.0 151.8 L 97.1 149.0 L 99.8 146.2 L 102.2 143.3 L 104.3 140.3 L 106.1 137.1 L 107.178125 134.8 L 82.4 134.8 L 82.4 180.2 L 70.4 186.2 L 70.4 124.8 L 82.4 130.8 L 170.5 130.8 L 176.5 125.8 L 187.5 134.8 L 182.5 138.8 L 182.5 167.2 L 182.4 169.7 L 181.9 172.2 L 181.1 174.6 L 179.9 176.9 L 178.2 178.9 L 176.2 180.5 L 174.0 181.8 L 171.6 182.6 L 169.1 183.0 L 166.5 183.2 L 166.5 177.2 L 154.5 174.2 L 154.5 171.2 L 166.5 171.2 L 167.7 171.1 L 168.6 170.9 L 169.2 170.7 L 169.6 170.6 L 169.8 170.4 L 169.9 170.2 L 170.1 169.9 L 170.3 169.3 L 170.4 168.4 L 170.5 167.2 L 170.5 134.8 L 142.5 134.8 L 142.5 140.8 L 142.3 142.0 L 142.2 143.0 L 142.2 144.4 L 142.3 144.9 L 142.6 145.4 L 143.0 145.9 L 143.8 146.5 L 145.0 146.9 L 146.5 147.3 L 160.8 147.3 L 164.3 142.3 L 166.3 142.3 L 164.3 147.3 L 166.4 148.7 L 167.8 150.8 L 166.4 152.9 L 164.3 154.3 L 149.3444444656372 154.3 Z M 35.8 186.9 L 31.8 184.9 L 30.2 180.5 L 30.8 173.5 L 30.9 167.0 L 30.5 161.2 L 29.6 156.0 L 28.2 151.3 L 27.02821054458618 148.6309239387512 L 26.5 148.5 L 26.722626399993896 147.93487138748168 L 26.4 147.2 L 24.2 143.5 L 21.4 140.1 L 18.0 137.0 L 13.9 134.1 L 14.5 132.4 L 19.8 133.6 L 24.6 135.8 L 29.0 139.0 L 30.00763463973999 140.06066799163818 L 31.9 135.7 L 34.9 129.2 L 38.3 121.6 L 42.4 112.9 L 47.1 103.0 L 52.5 91.9 L 58.5 79.8 L 65.3 66.6 L 67.0 67.3 L 62.0 81.3 L 57.4 94.0 L 53.2 105.5 L 49.4 115.8 L 46.2 124.8 L 43.5 132.6 L 41.3 139.2 L 39.7 144.6 L 38.6 148.7 L 38.2 151.4 L 37.556542015075685 151.2405104637146 L 38.5 153.2 L 40.3 159.4 L 41.6 166.1 L 42.2 173.5 L 42.2 181.4 L 40.1 185.4 Z M 100.3 99.6 L 152.6 99.6 L 158.6 94.6 L 169.6 103.6 L 164.6 107.6 L 164.6 120.4 L 152.6 126.4 L 152.6 120.4 L 100.3 120.4 L 88.3 126.4 L 88.3 93.6 Z M 100.3 103.6 L 100.3 116.4 L 152.6 116.4 L 152.6 103.6 Z M 30.7 83.2 L 29.5 81.3 L 28.0 79.2 L 26.1 77.2 L 24.0 75.2 L 21.6 73.1 L 18.9 71.0 L 15.9 68.9 L 12.4 67.1 L 13.0 65.4 L 16.9 66.4 L 20.6 67.2 L 24.2 68.3 L 27.5 69.6 L 30.6 71.0 L 33.5 72.7 L 36.2 74.6 L 38.7 76.7 L 40.9 79.0 L 42.9 81.5 L 43.2 86.1 L 40.4 89.6 L 35.8 90.0 L 32.3 87.1 L 31.6 85.2 Z M 110.1 69.1 L 108.9 67.3 L 107.5 65.5 L 105.9 63.7 L 104.1 62.0 L 102.1 60.2 L 100.0 58.4 L 97.6 56.5 L 96.88180990219116 56.12760515213013 L 95.4 59.5 L 91.9 65.6 L 87.6 71.2 L 82.7 76.3 L 77.1 80.9 L 70.9 84.8 L 70.06363639831542 85.2 L 166.21818180084227 85.2 L 172.73740453720092 78.02885494232177 L 172.7 78.0 L 169.5 75.2 L 166.5 72.1 L 163.8 68.9 L 161.4 65.4 L 159.4 61.8 L 157.7 58.1 L 156.4 54.1 L 156.09491529464722 52.910169506073 L 153.4 58.3 L 149.9 63.2 L 145.8 67.6 L 141.0 71.3 L 135.6 74.3 L 129.6 76.6 L 123.2 78.1 L 122.6 76.4 L 128.1 73.1 L 132.8 69.7 L 136.9 66.2 L 140.3 62.4 L 143.0 58.3 L 145.2 54.0 L 146.25531911849976 50.9 L 128.6 50.9 L 128.6 46.9 L 147.2800000190735 46.9 L 147.8 44.3 L 148.4 38.9 L 148.3 33.0 L 148.3 32.5 L 130.0 32.5 L 130.0 28.5 L 148.3 28.5 L 148.3 12.8 L 160.3 14.8 L 163.3 16.8 L 160.3 18.6 L 160.3 28.5 L 162.4 28.5 L 172.4 18.5 L 184.4 28.5 L 184.4 32.5 L 160.3 32.5 L 160.3 33.0 L 159.7 40.0 L 158.3 46.6 L 158.19672126770018 46.9 L 166.7 46.9 L 176.7 36.9 L 188.7 46.9 L 188.7 50.9 L 158.125 50.9 L 159.4 52.6 L 162.0 55.4 L 164.6 58.0 L 167.3 60.5 L 170.1 62.8 L 173.0 64.8 L 176.0 66.7 L 179.1 68.4 L 182.4 70.0 L 185.9 71.3 L 191.3 74.0 L 181.14341764450074 82.26907587051392 L 184.4 85.2 L 184.4 89.2 L 69.3 89.2 L 69.3 85.56521739959717 L 64.0 88.1 L 63.1 86.5 L 68.7 81.7 L 73.6 76.8 L 77.9 71.9 L 81.5 66.7 L 84.5 61.4 L 86.9 55.8 L 88.39491529464722 50.9 L 64.2 50.9 L 64.2 46.9 L 89.24098358154296 46.9 L 89.8 43.8 L 90.4 37.3 L 90.4 32.5 L 68.5 32.5 L 68.5 28.5 L 90.4 28.5 L 90.4 12.8 L 102.4 14.8 L 105.4 16.8 L 102.4 18.6 L 102.4 28.5 L 106.11818180084228 28.5 L 114.3 19.5 L 124.3 28.5 L 124.3 32.5 L 102.24810123443604 32.5 L 101.8 38.4 L 100.4 45.8 L 100.07464790344238 46.9 L 107.51818180084229 46.9 L 115.7 37.9 L 125.7 46.9 L 125.7 50.9 L 98.89154930114746 50.9 L 98.3 52.9 L 97.81751537322998 53.998068523406985 L 98.6 54.2 L 101.7 54.8 L 104.6 55.6 L 107.4 56.5 L 110.1 57.6 L 112.7 58.9 L 115.1 60.3 L 117.4 61.8 L 119.6 63.6 L 121.6 65.5 L 122.7 69.9 L 120.4 73.8 L 115.9 74.9 L 112.0 72.6 L 111.1 70.8 Z M 43.7 37.3 L 42.4 35.3 L 40.9 33.2 L 39.1 31.2 L 37.1 29.1 L 34.8 27.1 L 32.3 25.0 L 29.5 22.9 L 26.3 21.1 L 27.0 19.5 L 30.6 20.5 L 34.1 21.3 L 37.5 22.4 L 40.7 23.6 L 43.7 25.1 L 46.5 26.8 L 49.1 28.6 L 51.6 30.7 L 53.9 32.9 L 55.9 35.4 L 56.4 39.9 L 53.7 43.5 L 49.2 44.1 L 45.5 41.4 L 44.7 39.3 Z " />
</g>
</svg>
