<svg xmlns="http://www.w3.org/2000/svg" xmlns:xlink="http://www.w3.org/1999/xlink" version="1.1" baseProfile="full" viewBox="0 0 200 200" width="200" height="200">
<g fill="black">
<path d="M 167.6 147.3 L 163.8 143.8 L 159.3 140.2 L 154.2 136.6 L 150.7 134.38947372436525 L 150.7 179.0 L 138.7 185.0 L 138.7 127.57391300201417 L 135.3 125.8 L 127.8 122.0 L 119.7 118.1 L 120.3 116.4 L 129.1 118.5 L 137.3 120.8 L 138.7 121.27894735336304 L 138.7 82.0 L 107.0 82.0 L 107.0 96.0 L 106.99744682312011 96.00382976531982 L 106.9 107.6 L 106.0 118.9 L 104.2 129.7 L 101.7 139.8 L 98.3 149.4 L 94.2 158.3 L 89.2 166.5 L 83.4 174.0 L 76.7 180.8 L 69.3 186.6 L 68.1 185.3 L 74.0 178.2 L 79.1 170.8 L 83.6 163.1 L 87.3 155.0 L 90.4 146.5 L 92.7 137.5 L 94.3 128.0 L 95.3 118.0 L 95.5 107.4 L 95.0 96.2 L 95.12972974777222 96.19459457397461 L 95.0 96.0 L 95.0 31.0 L 107.0 37.0 L 107.0 37.619999980926515 L 107.3 37.5 L 113.7 35.0 L 120.1 32.7 L 126.3 30.5 L 132.3 28.2 L 138.2 26.0 L 144.0 23.7 L 149.7 21.4 L 155.2 19.1 L 160.6 16.7 L 161.28430957794188 18.482387828826905 L 169.9 26.0 L 170.1 29.1 L 166.1509419441223 27.424642086029053 L 164.9 27.9 L 159.2 29.8 L 147.2 33.2 L 141.1 34.8 L 134.8 36.4 L 128.3 37.8 L 121.8 39.1 L 115.1 40.2 L 108.2 41.2 L 107.0 41.302857112884524 L 107.0 78.0 L 160.7 78.0 L 170.7 68.0 L 182.7 78.0 L 182.7 82.0 L 150.7 82.0 L 150.7 125.76901407241822 L 152.0 126.3 L 158.5 129.3 L 164.4 132.4 L 169.8 135.7 L 174.7 139.3 L 179.0 143.0 L 182.8 146.9 L 183.9 151.3 L 181.7 155.3 L 177.3 156.5 L 173.3 154.2 L 170.7 150.8 Z M 65.9 153.4 L 64.5 150.0 L 62.9 146.5 L 60.9 142.8 L 58.6 139.0 L 56.0 135.1 L 53.2 131.0 L 50.1 126.7 L 49.98312950134277 126.54875583648682 L 49.2 130.5 L 46.2 140.9 L 42.5 150.5 L 38.0 159.3 L 32.7 167.3 L 26.6 174.4 L 19.8 180.6 L 12.2 185.7 L 11.1 184.2 L 17.2 177.8 L 22.5 171.0 L 27.2 163.7 L 31.2 155.8 L 34.6 147.4 L 37.3 138.3 L 39.4 128.5 L 40.7 118.0 L 41.5 106.8 L 41.5 17.0 L 53.5 19.0 L 56.5 21.0 L 53.5 22.8 L 53.5 73.63999996185302 L 56.3 70.0 L 59.3 66.3 L 62.1 62.8 L 64.7 59.4 L 67.2 56.3 L 69.5 53.2 L 71.7 50.4 L 73.11609077453613 48.488277435302734 L 73.0 48.4 L 74.0 47.3 L 82.6 55.7 L 83.5 59.2 L 79.53118467330933 58.43408823013306 L 77.3 60.5 L 74.4 63.1 L 71.2 65.7 L 67.9 68.5 L 64.4 71.4 L 60.7 74.4 L 56.8 77.4 L 53.5 79.70232553482056 L 53.5 95.0 L 52.8 107.5 L 51.4 119.4 L 50.69721174240112 122.94588642120361 L 52.5 124.2 L 56.8 127.6 L 60.8 131.0 L 64.3 134.5 L 67.6 138.0 L 70.5 141.6 L 73.2 145.2 L 75.5 148.8 L 77.5 152.5 L 79.2 156.3 L 78.7 160.8 L 75.2 163.8 L 70.7 163.4 L 67.7 159.9 L 66.9 156.7 Z M 15.4 108.5 L 12.9 104.6 L 13.7 100.1 L 15.7 97.4 L 17.4 94.3 L 19.0 90.7 L 20.3 86.7 L 21.4 82.3 L 22.2 77.5 L 22.8 72.3 L 23.1 66.7 L 23.4 60.6 L 23.5 54.1 L 25.3 53.8 L 27.1 60.2 L 28.5 66.3 L 29.3 72.2 L 29.8 77.9 L 29.8 83.3 L 29.4 88.5 L 28.6 93.4 L 27.4 98.1 L 25.8 102.6 L 23.7 106.7 L 19.9 109.3 Z " />
</g>
</svg>
