<svg xmlns="http://www.w3.org/2000/svg" xmlns:xlink="http://www.w3.org/1999/xlink" version="1.1" baseProfile="full" viewBox="0 0 200 200" width="200" height="200">
<g fill="black">
<path d="M 166.2 176.9 L 160.0 173.4 L 154.0 169.6 L 148.3 165.5 L 143.0 161.3 L 137.9 156.7 L 133.2 151.9 L 129.0 146.8 L 127.5 144.62894735336303 L 127.5 183.3 L 115.5 189.3 L 115.5 150.62884616851807 L 111.8 154.4 L 106.2 159.3 L 100.2 163.8 L 93.8 168.0 L 87.1 171.8 L 79.9 175.3 L 72.4 178.3 L 64.4 180.8 L 56.1 182.9 L 55.5 181.2 L 63.0 177.3 L 70.1 173.4 L 76.9 169.4 L 83.2 165.3 L 89.0 161.0 L 94.5 156.5 L 99.5 151.8 L 104.1 146.9 L 108.13529415130616 142.0 L 59.5 142.0 L 59.5 138.0 L 115.5 138.0 L 115.5 123.8 L 127.5 125.8 L 130.5 127.8 L 127.5 129.6 L 127.5 138.0 L 161.4 138.0 L 171.4 128.0 L 183.4 138.0 L 183.4 142.0 L 129.32162160873412 142.0 L 131.9 143.8 L 137.1 147.5 L 142.4 151.1 L 147.8 154.5 L 153.4 157.7 L 159.2 160.8 L 165.1 163.6 L 171.3 166.3 L 177.6 168.7 L 184.2 171.0 L 191.0 173.5 L 179.5 183.3 L 172.7 180.2 Z M 174.5 114.7 L 174.351327419281 113.46106195449829 L 172.2 114.6 L 168.8 116.3 L 165.3 117.8 L 161.8 119.2 L 158.2 120.6 L 151.2 123.2 L 148.31805210113527 124.18809642791749 L 146.8 128.1 L 144.2 125.6 L 141.4095588684082 118.7452205657959 L 130.9 124.0 L 130.9 118.0 L 113.5 118.0 L 113.5 121.0 L 101.5 127.0 L 101.5 119.6444444656372 L 101.1 121.6 L 97.4 124.3 L 92.9 123.4 L 90.3 119.6 L 90.1 117.2 L 89.9 114.7 L 89.75730085372925 113.51084070205688 L 87.7 114.6 L 84.2 116.3 L 80.7 117.8 L 73.7 120.6 L 70.2 121.9 L 66.6 123.2 L 63.71805210113526 124.18809642791749 L 62.2 128.1 L 59.6 125.6 L 55.1 114.3 L 57.0 113.9 L 60.6 113.4 L 64.2 113.0 L 65.6020372390747 112.81053552627563 L 65.8 112.3 L 67.8 107.4 L 69.9 102.4 L 72.2 97.2 L 74.5 91.9 L 74.84304771423339 91.06475343704224 L 71.8 91.2 L 68.3 88.2 L 67.8 86.3 L 67.2 84.3 L 66.4 82.4 L 65.6 80.4 L 64.7 78.4 L 63.7 76.4 L 62.6 74.4 L 61.4 72.4 L 60.1 70.3 L 58.978430080413816 69.11245536804199 L 55.5 81.2 L 51.7 93.9 L 48.2 105.3 L 45.1 115.6 L 42.4 124.6 L 40.2 132.4 L 38.4 139.0 L 37.0 144.4 L 36.2 148.5 L 35.8 151.2 L 34.92777395248413 151.01362686157228 L 35.9 153.4 L 37.5 159.5 L 38.6 166.2 L 39.2 173.5 L 39.2 181.3 L 37.2 185.4 L 32.9 186.9 L 28.8 184.9 L 27.3 180.6 L 27.8 173.5 L 27.9 166.9 L 27.6 161.1 L 26.9 155.8 L 25.8 151.1 L 25.069018363952637 148.90705518722535 L 24.1 148.7 L 24.55692310333252 147.37076921463012 L 24.4 146.9 L 22.5 143.3 L 20.3 140.0 L 17.6 137.0 L 14.3 134.2 L 15.0 132.5 L 19.6 133.8 L 23.9 136.0 L 27.58975133895874 139.1071590423584 L 28.8 135.9 L 31.3 129.4 L 34.4 121.8 L 37.9 113.0 L 42.0 103.1 L 46.6 92.1 L 51.9 79.9 L 57.9 66.6 L 59.383056449890134 67.24883718490601 L 59.5 67.1 L 61.6 68.5 L 64.0 69.6 L 66.2 70.8 L 67.05471696853638 71.36981134414673 L 67.5 69.7 L 68.3 66.8 L 70.1 61.0 L 70.9 58.2 L 71.8 55.3 L 73.9474736213684 47.51540813446045 L 73.9 47.5 L 74.05882349014283 47.11176471710205 L 74.2 46.6 L 74.25829830169678 46.62415962219238 L 74.8 45.3 L 85.3 51.2 L 87.3 54.1 L 83.19763441085816 54.747741889953616 L 82.1 56.6 L 80.4 59.3 L 78.7 61.9 L 76.9 64.4 L 73.1 69.4 L 71.1 71.7 L 69.65427131652832 73.28341712951661 L 72.3 75.4 L 74.1 77.1 L 75.9 79.0 L 77.5 80.9 L 78.46688175201416 82.16903228759766 L 79.1 80.6 L 81.5 74.7 L 83.8 68.5 L 85.82230844497681 63.107177543640134 L 85.8 63.1 L 86.1 62.36666669845581 L 86.2 62.1 L 86.20774869918823 62.103281021118164 L 86.7 60.9 L 97.3 66.8 L 99.3 69.8 L 95.60154943466186 70.31013107299805 L 94.3 73.0 L 91.2 79.1 L 88.2 84.9 L 85.1 90.4 L 82.0 95.7 L 78.9 100.8 L 75.7 105.6 L 72.4 110.1 L 70.70988368988037 112.18779067993164 L 71.5 112.1 L 78.9 111.1 L 82.6 110.7 L 86.4 110.3 L 89.27279996871948 110.07320003509521 L 89.2 109.6 L 88.2 104.2 L 87.6 101.5 L 86.9 98.6 L 86.2 95.6 L 85.0 92.8 L 86.6 91.9 L 88.4 94.4 L 90.5 96.8 L 92.4 99.2 L 94.1 101.7 L 95.7 104.2 L 97.2 106.7 L 98.6 109.3 L 101.0 114.5 L 101.5 115.85 L 101.5 56.3 L 113.5 62.3 L 116.45238094329834 62.3 L 116.7 61.9 L 117.5 59.6 L 118.3 57.4 L 119.0 55.2 L 119.6 53.2 L 120.2 51.3 L 120.7 49.5 L 121.1 47.7 L 121.4 46.1 L 121.46738023757935 45.5946478843689 L 121.2 45.5 L 121.58888893127441 44.68333330154419 L 121.6 44.6 L 121.6235336303711 44.610579299926755 L 122.2 43.4 L 132.5 49.5 L 134.4 52.6 L 129.4489637374878 53.19753885269165 L 127.3 55.5 L 125.7 57.0 L 124.1 58.6 L 122.4 60.1 L 120.5 61.7 L 119.7 62.3 L 130.9 62.3 L 136.6 57.55 L 136.6 36.5 L 106.3 36.5 L 106.3 51.7 L 94.3 57.7 L 94.3 36.5 L 55.8 36.5 L 55.8 32.5 L 94.3 32.5 L 94.3 12.5 L 106.3 14.5 L 109.3 16.5 L 106.3 18.3 L 106.3 32.5 L 136.6 32.5 L 136.6 12.5 L 148.6 14.5 L 151.6 16.5 L 148.6 18.3 L 148.6 32.5 L 165.1 32.5 L 175.1 22.5 L 187.1 32.5 L 187.1 36.5 L 148.6 36.5 L 148.6 51.7 L 137.08965520858766 57.45517244338989 L 147.9 66.3 L 145.62727270126342 68.11818180084228 L 146.2 68.5 L 148.5 69.6 L 150.7 70.8 L 151.56062173843384 71.34766836166382 L 152.0 69.7 L 153.8 63.9 L 154.6 61.0 L 155.5 58.2 L 156.4 55.3 L 158.53935556411744 47.54483613967896 L 158.4 47.5 L 159.3 45.3 L 169.9 51.2 L 171.9 54.1 L 167.80492267608642 54.73544301986694 L 166.7 56.6 L 165.0 59.3 L 163.2 61.9 L 159.6 66.9 L 157.7 69.4 L 155.7 71.7 L 154.21527090072632 73.25221672058106 L 154.9 73.8 L 156.8 75.4 L 158.7 77.1 L 162.1 80.9 L 163.0271523475647 82.19801321029664 L 163.7 80.6 L 166.0 74.7 L 168.4 68.5 L 170.42228736877442 63.10723361968994 L 170.4 63.1 L 170.7 62.36666669845581 L 170.8 62.1 L 170.80773830413818 62.10330638885498 L 171.3 60.9 L 181.8 66.8 L 183.8 69.8 L 180.09690341949462 70.31973285675049 L 178.8 73.0 L 175.8 79.1 L 172.7 84.9 L 169.7 90.4 L 166.6 95.7 L 163.4 100.8 L 160.3 105.6 L 157.0 110.1 L 155.31198873519898 112.18519039154053 L 156.1 112.1 L 163.5 111.1 L 167.2 110.7 L 171.0 110.3 L 173.87279996871948 110.07320003509521 L 173.8 109.6 L 173.3 106.9 L 172.1 101.5 L 171.4 98.6 L 170.8 95.6 L 169.6 92.8 L 171.2 91.9 L 173.0 94.4 L 175.1 96.8 L 176.9 99.2 L 178.7 101.7 L 180.3 104.2 L 181.8 106.7 L 184.4 111.9 L 185.5 114.5 L 186.6 117.2 L 185.7 121.6 L 181.9 124.3 L 177.4 123.4 L 174.8 119.6 L 174.7 117.2 Z M 113.5 91.4 L 113.5 114.0 L 130.9 114.0 L 130.9 91.4 Z M 151.7 84.3 L 151.0 82.4 L 150.2 80.4 L 149.3 78.4 L 148.3 76.4 L 145.9 72.4 L 144.7 70.3 L 143.9 69.5 L 142.9 70.3 L 142.9 113.71944446563721 L 145.2 113.4 L 148.8 113.0 L 150.10967741012573 112.81810035705567 L 150.3 112.3 L 152.3 107.4 L 154.5 102.4 L 156.7 97.2 L 159.0 91.9 L 159.34181814193727 91.06774702072144 L 156.3 91.2 L 152.9 88.2 L 152.3 86.3 Z M 27.7 82.8 L 26.8 80.9 L 25.6 78.9 L 24.2 77.0 L 22.5 75.0 L 18.4 70.9 L 15.9 68.8 L 13.0 67.2 L 13.7 65.5 L 17.0 66.6 L 20.3 67.4 L 23.4 68.5 L 26.3 69.8 L 29.0 71.3 L 31.6 72.9 L 34.0 74.8 L 36.1 76.9 L 38.1 79.3 L 39.8 81.8 L 39.9 86.3 L 36.8 89.7 L 32.2 89.8 L 28.9 86.7 L 28.4 84.8 Z M 113.5 66.3 L 113.5 87.4 L 130.9 87.4 L 130.9 66.3 Z M 38.7 36.9 L 37.7 34.9 L 36.6 32.9 L 35.2 30.9 L 33.6 28.9 L 31.8 26.9 L 29.7 24.9 L 27.5 22.8 L 24.9 21.2 L 25.6 19.5 L 28.7 20.6 L 31.8 21.5 L 34.7 22.5 L 37.5 23.8 L 40.1 25.3 L 42.6 27.0 L 44.9 28.9 L 47.1 30.9 L 49.1 33.2 L 50.9 35.6 L 51.1 40.2 L 48.1 43.6 L 43.6 43.9 L 40.1 40.9 L 39.5 38.9 Z " />
</g>
</svg>
