<svg xmlns="http://www.w3.org/2000/svg" xmlns:xlink="http://www.w3.org/1999/xlink" version="1.1" baseProfile="full" viewBox="0 0 200 200" width="200" height="200">
<g fill="black">
<path d="M 158.6 184.8 L 149.0 182.2 L 140.1 178.9 L 132.0 175.0 L 127.14969491958618 171.90119390487672 L 118.3 176.0 L 108.1 179.8 L 97.4 182.9 L 86.0 185.4 L 73.9 187.1 L 61.3 187.9 L 61.1 186.2 L 73.3 183.3 L 84.7 180.2 L 95.5 176.7 L 105.5 172.7 L 114.7 168.4 L 119.12576446533203 165.8783434867859 L 118.4 165.3 L 112.9 159.5 L 108.5 153.1 L 106.64239435195923 149.15962438583375 L 106.6 149.2 L 102.1 152.9 L 97.2 156.4 L 92.1 159.7 L 86.7 162.6 L 80.9 165.3 L 74.8 167.5 L 68.3 169.4 L 67.6 167.7 L 73.1 164.1 L 78.3 160.6 L 83.2 157.0 L 87.8 153.4 L 92.0 149.8 L 95.9 146.0 L 99.4 142.1 L 102.7 138.1 L 105.6 134.0 L 108.1 129.8 L 108.14437608718872 129.82899827957152 L 108.6 129.1 L 108.6 123.7 L 83.6 123.7 L 83.6 135.7 L 71.6 141.7 L 71.6 68.47792205810546 L 64.9 69.0 L 64.6774881362915 67.66492891311646 L 60.1 81.3 L 55.6 94.0 L 51.6 105.5 L 48.0 115.7 L 44.9 124.8 L 42.3 132.6 L 40.2 139.2 L 38.6 144.5 L 37.6 148.6 L 37.2 151.3 L 36.451943969726564 151.12737169265748 L 37.4 153.3 L 39.2 159.4 L 40.4 166.1 L 41.1 173.5 L 41.1 181.4 L 39.0 185.4 L 34.7 186.9 L 30.6 184.9 L 29.1 180.6 L 29.7 173.5 L 29.7 167.0 L 29.4 161.2 L 28.5 155.9 L 27.2 151.3 L 26.16969699859619 148.7545454978943 L 25.5 148.6 L 25.799458026885986 147.8398373603821 L 25.5 147.1 L 23.3 143.4 L 20.7 140.1 L 17.4 137.0 L 13.5 134.1 L 14.1 132.4 L 19.3 133.7 L 24.0 135.9 L 28.2 139.0 L 28.994966983795166 139.859423828125 L 30.8 135.7 L 33.6 129.2 L 37.0 121.6 L 40.9 112.9 L 45.5 103.0 L 50.7 92.0 L 56.6 79.8 L 63.2 66.6 L 64.60224723815918 67.21348314285278 L 64.6 67.2 L 71.7 64.7 L 78.1 62.1 L 83.8 59.4 L 88.8 56.5 L 93.1 53.4 L 96.7 50.1 L 99.7 46.7 L 102.0 43.1 L 103.7 39.4 L 104.62813987731934 36.30620031356811 L 104.6 36.3 L 105.4 33.8 L 116.4 38.9 L 118.7 41.7 L 114.68558654785156 42.68599624633789 L 114.0 44.2 L 110.9 49.0 L 107.2 53.4 L 102.8 57.2 L 97.8 60.4 L 92.3 63.2 L 86.3 65.4 L 79.7 67.2 L 72.74947366714477 68.3747368812561 L 83.6 73.8 L 108.6 73.8 L 114.1 68.8 L 124.6 77.8 L 119.6 81.3 L 119.6 123.7 L 108.67933883666993 129.16033058166505 L 118.2 136.4 L 119.6 139.7 L 115.66845636367798 139.5644295692444 L 114.6 140.9 L 114.06976747512817 141.5 L 148.75522384643554 141.5 L 150.4 139.6 L 150.83380279541015 139.97183094024658 L 155.0 136.5 L 166.0 145.5 L 161.0 148.5 L 156.61454544067382 150.32727270126344 L 152.6 154.4 L 145.0 160.8 L 136.7 166.5 L 136.36265325546265 166.69331102371217 L 143.7 169.3 L 151.9 171.5 L 160.9 173.3 L 170.5 174.5 L 180.9 175.2 L 191.9 176.0 L 180.0 188.4 L 168.9 186.9 Z M 110.48500003814698 145.5 L 108.66061887741088 147.23750581741334 L 111.8 150.5 L 117.1 155.3 L 122.9 159.6 L 126.19320478439332 161.53410444259643 L 131.1 158.2 L 138.2 152.5 L 144.6 146.3 L 145.29253730773925 145.5 Z M 142.3 73.8 L 167.3 73.8 L 173.3 68.8 L 184.3 77.8 L 179.3 81.8 L 179.3 129.7 L 167.3 135.7 L 167.3 123.7 L 142.3 123.7 L 142.3 126.7 L 131.3 132.2 L 131.3 68.3 Z M 142.3 107.7 L 142.3 119.7 L 167.3 119.7 L 167.3 107.7 Z M 83.6 107.7 L 83.6 119.7 L 108.6 119.7 L 108.6 107.7 Z M 142.3 92.8 L 142.3 103.7 L 167.3 103.7 L 167.3 92.8 Z M 83.6 92.8 L 83.6 103.7 L 108.6 103.7 L 108.6 92.8 Z M 29.5 83.1 L 28.4 81.2 L 27.0 79.2 L 25.2 77.2 L 23.2 75.1 L 20.9 73.1 L 18.3 71.0 L 15.4 68.9 L 12.1 67.1 L 12.7 65.4 L 16.4 66.5 L 20.1 67.3 L 23.5 68.3 L 26.8 69.6 L 29.8 71.1 L 32.6 72.7 L 35.2 74.6 L 37.6 76.7 L 39.8 79.0 L 41.7 81.6 L 42.0 86.1 L 39.1 89.6 L 34.5 89.9 L 31.0 87.0 L 30.4 85.1 Z M 142.3 77.8 L 142.3 88.8 L 167.3 88.8 L 167.3 77.8 Z M 83.6 77.8 L 83.6 88.8 L 108.6 88.8 L 108.6 77.8 Z M 146.6 62.8 L 144.3 62.6 L 142.0 62.0 L 139.9 61.1 L 137.9 59.7 L 136.2 58.0 L 134.9 55.9 L 133.9 53.7 L 133.3 51.2 L 133.0 48.7 L 133.0 34.6 L 145.0 36.6 L 148.0 38.6 L 145.0 40.4 L 145.0 48.7 L 144.8 50.0 L 144.8 51.7 L 145.0 52.7 L 145.2 53.1 L 145.7 53.6 L 146.4 54.0 L 147.5 54.4 L 149.0 54.7 L 175.6 54.7 L 179.6 45.7 L 181.6 45.7 L 179.6 54.7 L 182.0 56.3 L 183.6 58.7 L 182.0 61.1 L 179.6 62.7 L 149.0 62.7 Z M 63.6 50.8 L 63.0 46.2 L 65.8 42.6 L 66.8 42.3 L 67.9 41.9 L 69.1 41.0 L 70.3 39.8 L 71.5 38.2 L 72.7 36.1 L 73.7 33.6 L 74.6 30.8 L 75.5 27.5 L 75.8 24.0 L 77.6 23.9 L 77.9 27.6 L 78.13999996185302 29.0 L 119.0 29.0 L 119.0 13.3 L 131.0 15.3 L 134.0 17.3 L 131.0 19.1 L 131.0 29.0 L 172.2 29.0 L 172.9114285469055 28.40714282989502 L 173.1 27.7 L 173.46992235183717 27.941731452941895 L 178.2 24.0 L 189.2 33.0 L 184.2 36.0 L 178.2545454978943 38.47727270126343 L 177.2 39.4 L 175.4 40.8 L 173.5 42.3 L 169.3 45.3 L 166.9 46.8 L 164.8 48.8 L 163.5 47.6 L 165.2 45.3 L 166.4 42.8 L 167.6 40.5 L 168.7 38.3 L 169.7 36.2 L 170.6 34.3 L 171.1473684310913 33.0 L 78.67272729873658 33.0 L 78.8 34.4 L 78.8 37.5 L 78.5 40.5 L 78.0 43.3 L 77.0 46.1 L 75.7 48.6 L 73.9 50.9 L 71.7 53.0 L 67.2 53.5 Z M 42.1 37.2 L 40.9 35.2 L 39.4 33.2 L 37.8 31.1 L 33.7 27.0 L 31.3 25.0 L 28.6 22.9 L 25.6 21.2 L 26.2 19.5 L 29.7 20.5 L 33.1 21.3 L 36.4 22.4 L 39.5 23.7 L 42.4 25.1 L 45.2 26.8 L 47.7 28.7 L 50.1 30.7 L 52.3 33.0 L 54.3 35.4 L 54.8 40.0 L 52.0 43.6 L 47.4 44.0 L 43.8 41.3 L 43.1 39.2 Z " />
</g>
</svg>
