<svg xmlns="http://www.w3.org/2000/svg" xmlns:xlink="http://www.w3.org/1999/xlink" version="1.1" baseProfile="full" viewBox="0 0 200 200" width="200" height="200">
<g fill="black">
<path d="M 121.9 78.1 L 119.59270076751709 89.0 L 158.5 89.0 L 158.5 60.0 L 124.5032787322998 60.0 L 124.1 63.6 Z M 61.9 153.3 L 60.7 149.9 L 59.1 146.4 L 57.3 142.7 L 55.2 138.9 L 52.8 135.0 L 50.1 130.9 L 47.47052631378174 126.95578947067261 L 46.8 130.5 L 44.0 140.8 L 40.4 150.4 L 36.1 159.3 L 31.1 167.3 L 25.4 174.4 L 18.9 180.5 L 11.7 185.7 L 10.5 184.2 L 16.2 177.9 L 21.2 171.0 L 25.5 163.8 L 29.3 155.9 L 32.5 147.5 L 35.0 138.3 L 36.9 128.6 L 38.2 118.1 L 38.9 106.9 L 38.9 17.0 L 50.9 19.0 L 53.9 21.0 L 50.9 22.8 L 50.9 72.98275861740112 L 53.1 70.1 L 55.8 66.4 L 58.4 62.9 L 60.9 59.5 L 63.2 56.4 L 65.4 53.4 L 67.4 50.5 L 68.64516124725341 48.63225803375244 L 68.6 48.6 L 68.9333333015442 48.2 L 69.2 47.8 L 69.23906583786011 47.83312101364136 L 69.6 47.4 L 78.4 55.6 L 79.4 59.1 L 75.37391815185546 58.4058479309082 L 73.3 60.4 L 70.5 62.9 L 67.6 65.6 L 64.4 68.4 L 61.1 71.3 L 57.5 74.3 L 53.8 77.3 L 50.9 79.49268293380737 L 50.9 95.0 L 50.2 107.5 L 48.9 119.4 L 48.2 123.1 L 49.8 124.3 L 53.9 127.6 L 57.6 131.1 L 61.0 134.6 L 64.1 138.1 L 66.9 141.7 L 69.4 145.3 L 71.6 148.9 L 73.5 152.6 L 75.1 156.4 L 74.6 160.9 L 71.1 163.8 L 66.6 163.3 L 63.6 159.8 L 62.9 156.6 Z M 116.3 126.0 L 116.3 169.0 L 163.4 169.0 L 163.4 126.0 Z M 14.6 108.5 L 12.0 104.7 L 12.7 100.2 L 14.5 97.5 L 16.2 94.3 L 17.7 90.8 L 18.9 86.8 L 20.0 82.4 L 20.8 77.5 L 21.4 72.3 L 21.8 66.7 L 22.0 60.6 L 22.2 54.1 L 24.0 53.8 L 25.8 60.2 L 27.1 66.3 L 27.9 72.2 L 28.4 77.9 L 28.4 83.3 L 28.1 88.4 L 27.4 93.3 L 26.3 98.0 L 24.8 102.4 L 22.8 106.6 L 19.1 109.2 Z M 127.97595624923706 29.0 L 124.95136613845825 56.0 L 158.5 56.0 L 158.5 29.0 Z M 81.7 60.0 L 81.7 56.0 L 112.89603395462036 56.0 L 115.87903680801392 29.0 L 91.6 29.0 L 91.6 25.0 L 158.5 25.0 L 164.5 20.0 L 175.5 29.0 L 170.5 33.0 L 170.5 56.0 L 173.87777776718139 56.0 L 180.1 49.0 L 188.1 56.0 L 188.1 60.0 L 170.5 60.0 L 170.5 99.0 L 158.5 105.0 L 158.5 93.0 L 118.67938928604126 93.0 L 115.5 104.9 L 111.2 117.1 L 110.37455196380616 119.03727598190308 L 116.3 122.0 L 163.4 122.0 L 169.4 117.0 L 180.4 126.0 L 175.4 130.0 L 175.4 177.0 L 163.4 183.0 L 163.4 173.0 L 116.3 173.0 L 116.3 180.0 L 104.3 186.0 L 104.3 132.4214285850525 L 100.7 139.3 L 94.5 149.3 L 87.5 158.3 L 79.9 166.5 L 71.5 173.6 L 70.3 172.3 L 77.0 163.9 L 83.3 155.1 L 88.9 145.8 L 94.0 135.8 L 98.5 125.3 L 102.4 114.1 L 105.8 102.2 L 107.77142858505249 93.0 L 90.6 93.0 L 90.6 89.0 L 108.59924812316895 89.0 L 110.7 76.3 L 112.2 62.3 L 112.45410766601563 60.0 Z " />
</g>
</svg>
