<svg xmlns="http://www.w3.org/2000/svg" xmlns:xlink="http://www.w3.org/1999/xlink" version="1.1" baseProfile="full" viewBox="0 0 200 200" width="200" height="200">
<g fill="black">
<path d="M 150.5 180.8 L 139.5 176.2 L 129.8 170.6 L 121.4 163.9 L 114.5 156.1 L 109.1 147.4 L 105.2 137.9 L 103.5433120727539 130.72101907730104 L 102.3 135.5 L 97.3 146.7 L 90.5 156.6 L 82.0 165.1 L 71.9 172.3 L 60.3 178.2 L 47.1 182.7 L 32.3 185.9 L 16.1 187.6 L 15.8 185.9 L 31.5 182.1 L 45.4 177.6 L 57.5 172.2 L 67.8 166.0 L 76.3 158.8 L 83.2 150.9 L 88.4 142.0 L 92.1 132.3 L 94.3 121.5 L 94.9 109.6 L 94.92940454483032 109.60024499893188 L 95.0 107.2 L 106.9 109.7 L 109.9 111.8 L 106.47629251480103 113.7857502937317 L 105.61522216796875 122.08892936706543 L 106.9 126.5 L 110.6 135.7 L 115.3 143.8 L 118.88260869979858 148.27826089859008 L 122.9 144.9 L 127.2 141.4 L 131.4 138.1 L 135.5 134.8 L 139.4 131.7 L 143.1 128.6 L 146.7 125.6 L 150.1 122.6 L 153.3 119.7 L 155.63851671218873 117.43943376541138 L 155.6 117.4 L 156.00588235855102 117.08431367874145 L 156.3 116.8 L 156.32816390991212 116.83365030288697 L 156.5 116.7 L 157.19124422073364 117.55714282989501 L 157.7 116.9 L 159.7 113.6 L 161.6 110.6 L 163.4 107.8 L 165.1 105.1 L 166.6 102.6 L 167.9 100.2 L 168.33636360168458 99.4 L 33.046666622161865 99.4 L 33.1 101.8 L 32.8 106.1 L 32.0 110.1 L 30.9 113.9 L 29.2 117.4 L 27.1 120.6 L 24.5 123.5 L 21.5 125.9 L 16.9 126.3 L 13.3 123.5 L 12.9 119.0 L 15.7 115.4 L 17.7 114.5 L 19.6 113.4 L 21.4 111.8 L 23.1 109.8 L 24.7 107.4 L 26.2 104.4 L 27.5 100.9 L 28.6 96.9 L 29.6 92.5 L 30.1 87.6 L 31.9 87.5 L 32.5 92.6 L 32.797872352600095 95.4 L 170.0 95.4 L 170.6324324607849 94.87297296524048 L 171.0 94.0 L 171.37275743484497 94.2560354232788 L 176.0 90.4 L 187.0 99.4 L 182.0 102.4 L 177.17931032180786 104.40862064361572 L 175.3 106.1 L 173.2 108.1 L 170.8 110.1 L 168.3 112.1 L 165.6 114.3 L 162.8 116.5 L 159.6 118.7 L 158.72468357086183 119.4586075782776 L 164.0 126.0 L 164.4 129.6 L 160.75761585235597 128.3417218208313 L 160.4 128.6 L 156.6 131.1 L 152.6 133.7 L 148.5 136.2 L 144.1 138.7 L 139.6 141.2 L 134.9 143.6 L 130.0 145.9 L 124.8 148.1 L 120.1251428604126 149.83142852783203 L 120.9 150.8 L 127.5 156.8 L 135.2 161.9 L 144.0 166.1 L 154.0 169.5 L 165.2 172.0 L 177.7 173.6 L 188.1 174.8 L 176.2 186.7 L 162.7 184.3 Z M 35.3 155.1 L 35.0 150.5 L 38.0 147.0 L 41.3 145.6 L 44.4 143.8 L 47.3 141.8 L 50.0 139.5 L 52.5 136.9 L 54.7 133.9 L 56.8 130.6 L 58.7 126.9 L 60.5 122.8 L 61.9 118.3 L 63.7 118.5 L 63.7 123.5 L 63.3 128.2 L 62.4 132.8 L 61.0 137.2 L 59.2 141.3 L 56.9 145.2 L 54.2 148.8 L 51.0 152.1 L 47.3 155.1 L 43.3 157.8 L 38.8 158.0 Z M 103.4 19.4 L 161.8 19.4 L 167.8 14.4 L 178.8 23.4 L 173.8 27.4 L 173.8 51.5 L 161.8 57.5 L 161.8 47.5 L 128.8395348548889 47.5 L 131.5 50.1 L 135.9 54.2 L 140.6 58.0 L 145.5 61.6 L 150.7 64.9 L 156.3 67.9 L 162.2 70.7 L 168.5 73.1 L 175.1 75.4 L 182.2 77.3 L 190.1 79.7 L 178.4 90.0 L 170.9 87.2 L 163.8 84.0 L 157.2 80.5 L 151.1 76.7 L 145.4 72.6 L 140.2 68.1 L 135.6 63.3 L 131.5 58.1 L 128.2 52.6 L 125.8258620262146 47.5 L 103.4 47.5 L 103.4 49.6 L 102.7 55.3 L 101.2 60.7 L 99.0 65.7 L 96.0 70.3 L 92.3 74.4 L 88.0 78.1 L 83.1 81.2 L 77.6 84.0 L 71.5 86.2 L 64.7 87.8 L 64.1 86.1 L 69.9 82.7 L 75.0 79.3 L 79.4 75.9 L 83.0 72.4 L 86.0 68.8 L 88.2 65.2 L 89.9 61.5 L 90.9 57.7 L 91.4 53.8 L 91.4 13.4 Z M 34.0 25.1 L 60.8 25.1 L 66.8 20.1 L 77.8 29.1 L 72.8 33.1 L 72.8 65.8 L 60.8 71.8 L 60.8 65.8 L 34.0 65.8 L 34.0 68.8 L 22.0 74.8 L 22.0 19.1 Z M 34.0 29.1 L 34.0 61.8 L 60.8 61.8 L 60.8 29.1 Z M 103.4 23.4 L 103.4 43.5 L 161.8 43.5 L 161.8 23.4 Z " />
</g>
</svg>
