<svg xmlns="http://www.w3.org/2000/svg" xmlns:xlink="http://www.w3.org/1999/xlink" version="1.1" baseProfile="full" viewBox="0 0 200 200" width="200" height="200">
<g fill="black">
<path d="M 150.9 183.9 L 140.1 180.6 L 130.4 176.4 L 122.0 171.5 L 115.0 165.8 L 109.4 159.4 L 105.3 152.2 L 103.62039308547973 146.74127759933472 L 102.1 150.9 L 96.9 159.1 L 90.0 166.3 L 81.5 172.3 L 71.5 177.3 L 59.9 181.3 L 46.8 184.4 L 32.2 186.4 L 16.0 187.4 L 15.9 185.6 L 31.6 182.6 L 45.6 179.1 L 57.8 175.1 L 68.3 170.4 L 76.9 165.2 L 83.7 159.4 L 88.8 153.2 L 92.3 146.5 L 94.3 139.2 L 94.9 131.3 L 94.92939739227295 131.30048999786376 L 95.0 128.9 L 106.9 131.5 L 109.9 133.6 L 106.32731294631958 135.6315279006958 L 105.69949016571044 140.16082077026368 L 106.9 143.1 L 110.5 149.3 L 115.0 154.8 L 119.17746782302856 158.4359441757202 L 123.2 155.9 L 127.6 153.2 L 131.9 150.6 L 136.0 148.1 L 139.9 145.7 L 143.7 143.4 L 147.3 141.1 L 150.7 138.8 L 153.9 136.6 L 156.15366830825806 135.0733214378357 L 156.1 135.0 L 156.16449050903321 135.0659902572632 L 157.0 134.5 L 159.28480100631714 138.25886611938478 L 164.7 143.8 L 164.8 147.3 L 161.108571434021 145.7457142829895 L 159.6 146.5 L 155.8 148.2 L 151.9 149.9 L 147.8 151.5 L 143.5 153.2 L 139.1 154.8 L 134.5 156.4 L 129.6 157.9 L 124.5 159.2 L 121.15 159.97307691574096 L 126.9 163.6 L 134.6 167.1 L 143.4 170.0 L 153.5 172.4 L 164.9 174.1 L 177.5 175.2 L 188.3 176.0 L 176.4 188.3 L 163.1 186.5 Z M 35.1 163.8 L 35.4 159.2 L 38.7 156.1 L 42.1 155.2 L 45.2 154.1 L 48.1 152.8 L 50.7 151.3 L 53.0 149.7 L 55.2 147.8 L 57.2 145.7 L 59.0 143.3 L 60.7 140.7 L 61.9 137.5 L 63.7 137.8 L 63.4 141.4 L 63.0 145.0 L 62.1 148.4 L 60.6 151.7 L 58.7 154.9 L 56.3 157.9 L 53.5 160.6 L 50.3 163.1 L 46.8 165.4 L 42.8 167.4 L 38.2 167.1 Z M 21.3 124.3 L 93.5 124.3 L 93.5 103.8 L 36.7 103.8 L 36.7 99.8 L 93.5 99.8 L 93.5 81.1 L 29.0 81.1 L 29.0 77.1 L 72.1714285850525 77.1 L 69.6 75.1 L 69.3 73.9 L 68.7 72.4 L 67.7 70.7 L 66.5 68.9 L 64.9 67.0 L 63.0 64.9 L 60.9 62.7 L 58.5 60.4 L 55.8 58.0 L 52.6 55.8 L 53.5 54.3 L 57.0 55.8 L 60.6 57.0 L 63.8 58.3 L 66.8 59.7 L 69.5 61.1 L 72.1 62.5 L 74.4 64.0 L 76.5 65.7 L 78.4 67.4 L 80.1 69.3 L 80.5 73.8 L 77.9333333015442 77.1 L 115.55666666030884 77.1 L 117.2 75.4 L 119.7 72.2 L 122.2 69.3 L 124.6 66.5 L 126.8 63.8 L 129.0 61.3 L 130.9 58.9 L 132.8 56.6 L 134.4 54.4 L 135.40176992416383 53.085176944732666 L 135.3 53.0 L 135.4 52.9 L 16.5 52.9 L 16.5 48.9 L 77.0 48.9 L 77.0 12.5 L 89.0 14.5 L 92.0 16.5 L 89.0 18.3 L 89.0 48.9 L 109.9 48.9 L 109.9 12.5 L 121.9 14.5 L 124.9 16.5 L 121.9 18.3 L 121.9 48.9 L 133.59210529327393 48.9 L 135.5 46.4 L 138.1 42.6 L 140.7 39.0 L 143.2 35.6 L 145.5 32.2 L 147.7 29.0 L 149.7 25.9 L 151.5 22.9 L 153.2 20.1 L 154.25456457138063 18.13147954940796 L 154.2 18.1 L 154.56363639831542 17.55454549789429 L 154.7 17.3 L 154.72286376953124 17.315704345703125 L 155.2 16.6 L 164.6 24.1 L 166.0 27.4 L 161.86776552200317 27.186263751983642 L 159.9 29.4 L 154.5 34.8 L 151.5 37.5 L 148.4 40.3 L 145.1 43.1 L 141.5 45.9 L 137.4285714149475 48.9 L 160.4 48.9 L 170.4 38.9 L 182.4 48.9 L 182.4 52.9 L 137.14827585220337 52.9 L 144.5 60.7 L 145.3 64.3 L 141.11882257461548 63.27304410934448 L 140.0 64.1 L 137.5 65.9 L 134.8 67.7 L 132.0 69.6 L 129.0 71.6 L 125.9 73.5 L 122.6 75.6 L 119.75789470672608 77.1 L 149.8 77.1 L 159.8 67.1 L 171.8 77.1 L 171.8 81.1 L 105.5 81.1 L 105.5 99.8 L 144.01818180084229 99.8 L 152.2 90.8 L 162.2 99.8 L 162.2 103.8 L 105.5 103.8 L 105.5 124.3 L 158.5 124.3 L 168.5 114.3 L 180.5 124.3 L 180.5 128.3 L 21.3 128.3 Z M 48.8 38.8 L 48.2 36.6 L 47.3 34.3 L 46.1 31.9 L 44.7 29.4 L 42.9 26.9 L 41.0 24.3 L 38.8 21.5 L 36.1 19.1 L 37.1 17.6 L 40.4 19.4 L 43.7 21.1 L 46.7 23.0 L 49.5 25.0 L 52.0 27.1 L 54.3 29.4 L 56.4 31.9 L 58.3 34.5 L 59.8 37.3 L 61.1 40.2 L 60.4 44.7 L 56.7 47.5 L 52.2 46.7 L 49.5 43.1 L 49.3 41.0 Z " />
</g>
</svg>
