<svg xmlns="http://www.w3.org/2000/svg" xmlns:xlink="http://www.w3.org/1999/xlink" version="1.1" baseProfile="full" viewBox="0 0 200 200" width="200" height="200">
<g fill="black">
<path d="M 57.3 153.1 L 56.2 149.7 L 54.8 146.2 L 53.2 142.5 L 51.4 138.8 L 49.3 134.9 L 47.0 130.8 L 45.16050939559936 127.70965576171875 L 44.7 130.4 L 42.1 140.7 L 38.9 150.3 L 35.0 159.1 L 30.4 167.1 L 25.2 174.3 L 19.3 180.5 L 12.7 185.6 L 11.5 184.3 L 16.4 177.9 L 20.8 171.2 L 24.7 163.9 L 28.1 156.1 L 30.9 147.6 L 33.1 138.5 L 34.8 128.6 L 35.9 118.1 L 36.5 106.9 L 36.5 17.0 L 48.5 19.0 L 51.5 21.0 L 48.5 22.8 L 48.5 71.825 L 49.5 70.2 L 51.9 66.6 L 54.2 63.1 L 56.4 59.8 L 58.4 56.6 L 60.3 53.6 L 62.1 50.8 L 63.191160106658934 48.95866737365723 L 63.1 48.9 L 64.1 47.5 L 73.2 55.4 L 74.4 58.8 L 70.40667486190796 58.318046951293944 L 68.6 60.2 L 66.0 62.8 L 63.3 65.4 L 60.4 68.2 L 57.4 71.1 L 54.1 74.1 L 50.7 77.2 L 48.5 78.99473686218262 L 48.5 95.0 L 47.9 107.5 L 46.6 119.3 L 45.88454704284668 123.47975130081177 L 47.0 124.4 L 50.8 127.8 L 54.2 131.2 L 57.3 134.7 L 60.2 138.3 L 62.7 141.9 L 65.0 145.5 L 67.1 149.1 L 68.8 152.8 L 70.3 156.5 L 69.6 161.0 L 66.0 163.8 L 61.5 163.2 L 58.7 159.6 L 58.1 156.4 Z M 180.7 147.0 L 182.7 147.0 L 180.7 172.0 L 184.2 174.4 L 186.7 178.0 L 184.2 181.6 L 180.7 184.0 L 135.6 184.0 L 133.0 183.8 L 130.5 183.4 L 128.1 182.6 L 125.8 181.3 L 123.8 179.7 L 122.2 177.7 L 120.9 175.4 L 120.1 173.0 L 119.7 170.5 L 119.6 168.0 L 119.6 144.0 L 69.0 144.0 L 69.0 140.0 L 119.6 140.0 L 119.6 84.40967741012574 L 116.6 87.7 L 112.0 87.7 L 108.7 84.6 L 107.8 81.8 L 106.8 79.1 L 105.6 76.5 L 104.4 74.1 L 102.9 71.7 L 101.4 69.4 L 99.7 67.2 L 97.8 65.1 L 97.32583236694336 64.57841558456421 L 95.5 67.7 L 92.2 72.8 L 88.5 77.8 L 84.7 82.6 L 80.5 87.2 L 76.0 91.5 L 71.1 95.6 L 69.8 94.3 L 73.1 89.1 L 76.3 83.9 L 79.3 78.8 L 82.2 73.7 L 84.8 68.5 L 87.3 63.3 L 89.5 58.1 L 91.5 52.8 L 93.3 47.5 L 94.60849924087525 43.00203399658203 L 94.6 43.0 L 94.7 42.6875 L 94.9 42.0 L 94.91807231903076 42.006024074554446 L 95.4 40.5 L 106.3 45.8 L 108.5 48.6 L 104.83267793655395 49.436406803131106 L 104.0 51.5 L 101.4 57.0 L 99.1698857307434 61.300934600830075 L 100.2 61.6 L 103.1 63.0 L 105.8 64.6 L 108.5 66.5 L 111.0 68.7 L 113.4 71.1 L 115.6 73.8 L 117.7 76.7 L 119.6 79.64499998092651 L 119.6 37.63814430236816 L 119.2 37.7 L 108.9 39.1 L 97.9 40.3 L 86.4 41.2 L 74.2 41.8 L 74.0 40.1 L 85.8 37.4 L 97.1 35.0 L 107.7 32.6 L 117.8 30.2 L 127.2 27.9 L 135.9 25.5 L 144.1 23.1 L 151.5 20.7 L 158.4 18.2 L 163.64130058288575 16.08657236099243 L 163.6 16.0 L 163.68083381652832 16.070631504058838 L 164.6 15.7 L 165.25469312667846 17.445848369598387 L 173.9 25.0 L 174.1 28.1 L 170.11588363647462 26.409768867492676 L 168.8 26.9 L 162.0 29.0 L 154.6 31.0 L 146.6 32.8 L 138.1 34.6 L 131.6 35.730434799194335 L 131.6 140.0 L 163.0 140.0 L 173.0 130.0 L 185.0 140.0 L 185.0 144.0 L 131.6 144.0 L 131.6 169.2 L 131.8 170.1 L 132.1 171.0 L 132.5 171.4 L 133.4 171.7 L 134.3 171.9 L 135.6 172.0 L 174.7 172.0 Z M 105.8 124.7 L 104.8 122.3 L 103.6 119.9 L 102.2 117.4 L 100.5 115.0 L 98.7 112.6 L 96.7 110.1 L 95.5181547164917 108.70327377319336 L 94.9 109.8 L 91.7 115.0 L 88.1 120.1 L 84.3 124.9 L 80.3 129.5 L 75.9 133.7 L 71.1 137.6 L 69.8 136.3 L 72.9 131.2 L 76.0 126.2 L 78.9 121.2 L 81.7 116.0 L 84.3 110.9 L 86.6 105.6 L 88.8 100.1 L 90.8 94.6 L 92.6 89.0 L 94.1 83.2 L 94.14791669845582 83.2145833015442 L 94.6 81.6 L 105.6 86.7 L 107.9 89.4 L 104.1833830833435 90.39552240371704 L 103.3 92.7 L 100.8 98.6 L 98.0 104.3 L 97.14342107772828 105.81973686218262 L 99.3 106.8 L 102.3 108.4 L 105.2 110.3 L 107.8 112.3 L 110.3 114.5 L 112.6 116.9 L 114.7 119.4 L 116.7 122.1 L 118.4 124.9 L 118.3 129.5 L 115.1 132.7 L 110.5 132.6 L 107.3 129.4 L 106.6 127.1 Z M 166.1 122.0 L 165.4 119.9 L 164.4 117.6 L 163.2 115.3 L 161.8 112.8 L 160.1 110.3 L 158.1 107.6 L 156.77207546234132 105.82943391799927 L 155.8 107.6 L 152.8 112.7 L 149.5 117.7 L 146.0 122.6 L 142.2 127.4 L 138.0 132.0 L 133.5 136.5 L 132.1 135.4 L 134.9 129.8 L 137.7 124.4 L 140.4 119.1 L 142.9 113.9 L 145.3 108.7 L 147.5 103.5 L 149.5 98.4 L 151.3 93.3 L 152.9 88.2 L 154.04981241226196 84.0113977432251 L 154.0 84.0 L 154.8 81.5 L 165.8 86.7 L 168.0 89.6 L 164.2402925491333 90.45747718811035 L 163.6 92.0 L 161.2 97.3 L 158.6 102.5 L 158.24279832839966 103.15061731338501 L 160.9 104.6 L 163.8 106.4 L 166.5 108.4 L 169.0 110.5 L 171.3 112.6 L 173.4 114.9 L 175.2 117.2 L 176.9 119.7 L 178.2 122.3 L 177.8 126.8 L 174.3 129.8 L 169.7 129.3 L 166.8 125.9 L 166.5 124.0 Z M 15.2 108.6 L 12.4 104.9 L 12.9 100.4 L 14.6 97.6 L 16.1 94.4 L 17.5 90.8 L 18.7 86.8 L 19.7 82.4 L 20.4 77.5 L 21.0 72.3 L 21.4 66.6 L 21.7 60.6 L 22.0 54.1 L 23.7 53.8 L 25.5 60.2 L 26.7 66.3 L 27.5 72.2 L 28.0 77.8 L 28.1 83.2 L 27.8 88.3 L 27.3 93.2 L 26.3 97.8 L 25.0 102.2 L 23.3 106.3 L 19.7 109.0 Z M 168.8 80.8 L 167.7 78.3 L 166.3 75.9 L 164.6 73.3 L 162.6 70.8 L 160.4 68.2 L 157.9 65.5 L 156.28571424484252 63.88571424484253 L 154.5 67.1 L 151.1 72.6 L 147.4 78.0 L 143.4 83.6 L 139.1 89.0 L 134.3 94.5 L 132.8 93.4 L 135.9 87.0 L 138.9 80.7 L 141.7 74.7 L 144.4 68.9 L 146.9 63.3 L 149.1 57.8 L 151.2 52.4 L 152.9 47.2 L 154.5 42.1 L 155.53781509399414 38.10840339660645 L 155.5 38.1 L 155.71333332061766 37.43333330154419 L 155.8 37.1 L 155.81816444396972 37.10573616027832 L 156.3 35.6 L 167.2 40.7 L 169.5 43.5 L 165.7326086997986 44.441847801208496 L 165.2 45.8 L 162.9 51.1 L 160.4 56.4 L 157.92832927703859 60.91719131469726 L 160.5 62.0 L 163.9 63.8 L 167.1 65.8 L 170.1 67.9 L 172.9 70.2 L 175.4 72.6 L 177.7 75.2 L 179.7 78.0 L 181.4 80.9 L 181.4 85.5 L 178.2 88.7 L 173.6 88.6 L 170.3 85.4 L 169.7 83.1 Z " />
</g>
</svg>
