<svg xmlns="http://www.w3.org/2000/svg" xmlns:xlink="http://www.w3.org/1999/xlink" version="1.1" baseProfile="full" viewBox="0 0 200 200" width="200" height="200">
<g fill="black">
<path d="M 120.0 118.0 L 120.0 101.0 L 91.2 101.0 L 91.2 114.0 L 90.91428575515747 118.0 Z M 146.1 176.0 L 166.1 176.0 L 167.3 175.9 L 168.2 175.7 L 168.8 175.5 L 169.2 175.4 L 169.4 175.2 L 169.5 175.0 L 169.7 174.7 L 169.9 174.1 L 170.0 173.2 L 170.1 172.0 L 170.1 14.0 L 182.1 16.0 L 185.1 18.0 L 182.1 19.8 L 182.1 172.0 L 182.0 174.5 L 181.5 177.0 L 180.7 179.4 L 179.5 181.7 L 177.8 183.7 L 175.8 185.3 L 173.6 186.6 L 171.2 187.4 L 168.7 187.8 L 166.1 188.0 L 166.1 182.0 L 146.1 179.0 Z M 58.4 153.2 L 57.3 149.7 L 55.9 146.2 L 54.3 142.6 L 52.4 138.8 L 50.3 134.9 L 47.9 130.8 L 45.905177688598634 127.44869861602783 L 45.4 130.4 L 42.8 140.7 L 39.5 150.3 L 35.6 159.1 L 30.9 167.1 L 25.6 174.3 L 19.5 180.5 L 12.8 185.6 L 11.7 184.3 L 16.7 177.9 L 21.2 171.1 L 25.2 163.9 L 28.6 156.0 L 31.5 147.6 L 33.8 138.4 L 35.5 128.6 L 36.7 118.1 L 37.3 106.9 L 37.3 17.0 L 49.3 19.0 L 52.3 21.0 L 49.3 22.8 L 49.3 72.02399997711181 L 50.5 70.2 L 53.0 66.5 L 55.3 63.0 L 57.5 59.7 L 59.6 56.6 L 61.6 53.6 L 63.4 50.7 L 64.47714128494263 48.94964542388916 L 64.4 48.9 L 64.89677419662476 48.267741966247556 L 65.0 48.1 L 65.0178153038025 48.11368961334229 L 65.5 47.5 L 74.5 55.4 L 75.7 58.8 L 71.68461542129516 58.31538457870484 L 67.2 62.8 L 64.4 65.5 L 61.5 68.3 L 58.4 71.2 L 55.1 74.1 L 51.6 77.2 L 49.3 79.07631578445435 L 49.3 95.0 L 48.6 107.5 L 47.3 119.3 L 46.605388164520264 123.35799531936645 L 47.9 124.4 L 51.7 127.8 L 55.2 131.2 L 58.3 134.7 L 61.2 138.3 L 63.8 141.8 L 66.2 145.4 L 68.2 149.1 L 70.0 152.8 L 71.5 156.5 L 70.9 161.0 L 67.3 163.8 L 62.8 163.2 L 59.9 159.6 L 59.3 156.5 Z M 94.8 144.8 L 94.8 171.1 L 121.1 171.1 L 121.1 144.8 Z M 157.7 31.0 L 160.7 33.0 L 157.7 34.8 L 157.7 149.0 L 145.7 155.0 L 145.7 29.0 Z M 15.4 108.6 L 12.7 104.9 L 13.2 100.4 L 14.9 97.6 L 16.5 94.4 L 17.9 90.8 L 19.1 86.8 L 20.1 82.4 L 20.8 77.5 L 21.4 72.3 L 21.8 66.6 L 22.1 60.6 L 22.3 54.1 L 24.1 53.8 L 25.9 60.2 L 27.2 66.3 L 28.0 72.2 L 28.4 77.8 L 28.5 83.2 L 28.2 88.3 L 27.6 93.2 L 26.7 97.8 L 25.3 102.2 L 23.6 106.3 L 20.0 109.1 Z M 91.2 80.0 L 91.2 97.0 L 120.0 97.0 L 120.0 80.0 Z M 124.6 50.4 L 122.8 47.4 L 120.7 44.4 L 118.3 41.4 L 115.5 38.3 L 112.5 35.1 L 109.3 31.9 L 106.13799057006835 28.91365776062012 L 103.9 34.0 L 100.3 41.1 L 96.4 47.9 L 92.3 54.4 L 89.64426231384277 58.0 L 110.3777777671814 58.0 L 116.6 51.0 L 124.6 58.0 L 124.6 62.0 L 89.2 62.0 L 89.2 58.60222225189209 L 87.8 60.5 L 83.0 66.2 L 79.34615383148193 70.07307691574097 L 91.2 76.0 L 120.0 76.0 L 126.0 71.0 L 137.0 80.0 L 132.0 84.0 L 132.0 124.0 L 120.0 130.0 L 120.0 122.0 L 90.62857141494752 122.0 L 90.6 122.4 L 89.7 130.5 L 88.47878789901733 137.63939390182495 L 94.8 140.8 L 121.1 140.8 L 127.1 135.8 L 138.1 144.8 L 133.1 148.8 L 133.1 179.1 L 121.1 185.1 L 121.1 175.1 L 94.8 175.1 L 94.8 182.1 L 82.8 188.1 L 82.8 156.1666666984558 L 81.8 158.5 L 78.8 164.4 L 75.3 169.7 L 71.3 174.5 L 66.8 178.5 L 65.4 177.4 L 68.2 172.2 L 70.6 167.0 L 72.9 161.5 L 74.7 155.8 L 76.3 149.7 L 77.6 143.3 L 78.5 136.6 L 79.0 129.4 L 79.3 121.9 L 79.2 114.0 L 79.2 70.22799997329712 L 78.0 71.5 L 72.5 76.3 L 66.7 80.6 L 65.5 79.3 L 69.8 73.7 L 73.9 68.0 L 77.8 62.2 L 81.5 56.2 L 85.0 50.0 L 88.3 43.5 L 91.3 36.8 L 94.0 29.8 L 96.6 22.6 L 98.61586952209473 16.02651252746582 L 98.5 16.0 L 99.3 13.5 L 110.3 18.7 L 112.5 21.6 L 108.81325750350952 22.440836048126222 L 107.48149175643921 25.791730403900146 L 107.5 25.8 L 112.1 28.0 L 116.3 30.3 L 120.2 32.8 L 123.8 35.5 L 127.2 38.2 L 130.3 41.1 L 133.2 44.1 L 135.7 47.2 L 138.0 50.5 L 138.4 55.0 L 135.5 58.6 L 131.0 59.0 L 127.4 56.1 L 126.2 53.3 Z " />
</g>
</svg>
