<svg xmlns="http://www.w3.org/2000/svg" xmlns:xlink="http://www.w3.org/1999/xlink" version="1.1" baseProfile="full" viewBox="0 0 200 200" width="200" height="200">
<g fill="black">
<path d="M 107.3 104.6 L 107.28522567749023 104.51381664276123 L 104.2 106.3 L 100.2 108.3 L 99.6 108.56999998092651 L 99.6 183.0 L 87.6 189.0 L 87.6 131.45 L 85.87087383270264 132.3145630836487 L 85.6 134.0 L 84.6 139.4 L 83.4 144.8 L 82.0 150.2 L 80.3 155.5 L 78.5 160.7 L 76.4 165.8 L 74.1 170.8 L 71.4 175.6 L 68.4 180.3 L 66.8 179.6 L 67.9 174.2 L 69.0 169.0 L 70.2 163.8 L 71.2 158.6 L 72.1 153.4 L 72.9 148.3 L 73.5 143.1 L 74.0 137.9 L 74.3 132.7 L 74.46155805587769 128.4994912147522 L 74.4 128.5 L 74.7 125.3 L 86.5 128.4 L 87.6 129.26428575515746 L 87.6 113.50714282989502 L 83.7 114.9 L 79.4 116.3 L 75.1 117.5 L 74.83834114074708 117.57136154174805 L 73.2 121.3 L 70.7 118.7 L 66.6 107.2 L 68.6 106.9 L 72.9 106.4 L 77.1 105.9 L 79.05214719772339 105.62760734558105 L 83.0 95.1 L 85.9 87.9 L 88.8 80.8 L 91.6 73.6 L 94.5 66.5 L 100.1 52.1 L 102.8 44.9 L 105.16015796661377 38.51883211135864 L 105.1 38.5 L 106.0 36.3 L 116.6 42.1 L 118.6 45.1 L 114.96658935546876 45.663805103302 L 113.3 49.3 L 109.9 56.3 L 106.5 63.4 L 103.0 70.3 L 95.6 84.1 L 91.8 90.8 L 87.8 97.5 L 83.6 104.0 L 82.84851484298706 105.09306926727295 L 85.6 104.7 L 89.8 104.0 L 94.1 103.2 L 98.3 102.4 L 102.5 101.7 L 106.66403160095214 100.92529640197753 L 106.0 97.7 L 105.3 94.4 L 104.4 91.2 L 103.4 88.1 L 101.4 82.1 L 100.0 79.3 L 101.4 78.2 L 103.7 80.4 L 106.2 82.8 L 108.4 85.4 L 110.5 88.3 L 112.5 91.4 L 114.3 94.7 L 115.9 98.2 L 117.4 101.9 L 118.8 105.8 L 120.0 109.9 L 119.0 114.4 L 115.2 116.9 L 110.8 115.9 L 108.2 112.1 L 107.8 108.3 Z M 128.8 174.1 L 133.3 172.2 L 138.0 170.1 L 143.0 167.7 L 148.1 165.1 L 153.4 162.3 L 158.9 159.2 L 164.7 155.9 L 170.7 152.5 L 177.0 148.9 L 183.6 145.2 L 184.6 146.7 L 179.2 152.0 L 173.8 156.8 L 168.4 161.3 L 163.1 165.5 L 158.0 169.4 L 152.9 173.0 L 148.0 176.4 L 143.2 179.5 L 138.5 182.3 L 137.65738258361816 182.7868456840515 L 137.1 186.8 L 134.0 184.9 L 127.0 175.0 Z M 52.0 152.9 L 51.0 149.5 L 49.9 146.0 L 48.5 142.3 L 46.9 138.6 L 45.1 134.7 L 42.06938772201538 128.63877553939818 L 41.8 130.3 L 39.5 140.6 L 36.6 150.2 L 33.0 159.0 L 28.9 167.0 L 24.2 174.2 L 18.8 180.4 L 12.7 185.6 L 11.5 184.3 L 15.8 178.0 L 19.6 171.3 L 23.0 164.0 L 26.0 156.2 L 28.4 147.7 L 30.4 138.6 L 31.9 128.7 L 32.9 118.2 L 33.4 106.9 L 33.3 95.0 L 33.3 17.0 L 45.3 19.0 L 48.3 21.0 L 45.3 22.8 L 45.3 70.4 L 47.4 66.7 L 49.4 63.3 L 51.3 60.0 L 53.0 56.8 L 54.7 53.9 L 56.2 51.1 L 57.14285717010498 49.281632614135745 L 57.0 49.2 L 58.1 47.7 L 67.5 55.2 L 68.9 58.5 L 64.80330953598022 58.291693687438965 L 63.3 60.0 L 60.9 62.5 L 58.4 65.2 L 55.8 68.0 L 53.0 71.0 L 50.0 74.0 L 46.9 77.0 L 45.3 78.50588235855102 L 45.3 95.0 L 44.7 107.5 L 43.6 119.2 L 42.840625 123.8828125 L 43.6 124.6 L 47.0 127.9 L 50.2 131.4 L 53.0 134.9 L 55.6 138.5 L 57.9 142.1 L 60.0 145.7 L 61.9 149.3 L 63.5 153.0 L 64.9 156.6 L 64.1 161.1 L 60.4 163.9 L 55.9 163.1 L 53.2 159.4 L 52.7 156.2 Z M 146.1 137.2 L 145.2 134.7 L 144.1 132.3 L 143.0 130.0 L 141.7 127.7 L 140.3 125.5 L 137.1 121.1 L 135.0 119.2 L 135.9 117.7 L 138.5 119.0 L 141.3 120.2 L 143.9 121.6 L 146.4 123.3 L 148.8 125.3 L 151.1 127.4 L 153.2 129.8 L 155.2 132.3 L 157.0 135.0 L 158.7 137.9 L 158.6 142.5 L 155.4 145.7 L 150.8 145.6 L 147.6 142.4 L 146.9 139.7 Z M 163.6 114.3 L 157.5 107.6 L 151.9 100.3 L 150.11830768585205 97.36763134002686 L 149.5 98.3 L 142.7 107.2 L 135.4 115.4 L 127.5 122.9 L 119.0 129.7 L 111.49130430221558 134.70579710006714 L 112.6 136.8 L 114.3 140.5 L 115.8 144.3 L 117.2 148.4 L 118.5 152.6 L 119.6 157.1 L 118.5 161.5 L 114.6 163.9 L 110.1 162.8 L 107.7 158.9 L 107.4 154.7 L 107.0 150.7 L 106.5 146.8 L 105.8 143.1 L 105.1 139.5 L 104.4 136.0 L 103.5 132.7 L 101.7 126.3 L 100.4 123.3 L 101.9 122.3 L 104.2 124.7 L 106.6 127.3 L 108.8 130.2 L 110.42985687255859 132.8077709197998 L 116.6 126.8 L 123.7 119.1 L 130.4 111.1 L 136.6 102.6 L 142.4 93.6 L 145.24496946334838 88.55420503616332 L 143.0 83.9 L 139.5 74.8 L 136.8 65.1 L 135.21327619552613 56.58179874420166 L 134.6 58.0 L 131.1 65.1 L 127.2 71.7 L 123.1 77.8 L 118.5 83.4 L 113.6 88.5 L 112.2 87.4 L 115.4 81.3 L 118.5 75.0 L 121.4 68.6 L 124.2 61.9 L 126.7 54.9 L 129.0 47.5 L 131.1 39.9 L 133.0 31.9 L 134.6 23.6 L 135.83851232528687 15.903530311584472 L 135.8 15.9 L 136.3 13.0 L 147.8 17.0 L 150.4 19.5 L 146.90532264709472 20.83433132171631 L 145.7 26.0 L 143.4 34.5 L 141.28554220199584 41.0 L 163.9 41.0 L 169.9 36.0 L 180.9 45.0 L 175.9 48.0 L 174.19570846557616 48.71012144088745 L 171.5 56.6 L 166.8 67.9 L 161.5 78.6 L 155.91567440032958 88.59300365447999 L 160.1 94.2 L 165.6 100.1 L 171.5 105.5 L 177.9 110.2 L 184.7 114.3 L 189.2 116.9 L 178.0 125.6 L 170.5 120.3 Z M 14.8 108.6 L 11.9 105.1 L 12.2 100.6 L 13.7 97.8 L 15.2 94.6 L 16.4 90.9 L 17.5 86.9 L 18.5 82.4 L 19.2 77.6 L 19.8 72.3 L 20.2 66.6 L 20.5 60.5 L 20.9 54.1 L 22.6 53.8 L 24.3 60.2 L 25.5 66.3 L 26.3 72.2 L 26.8 77.8 L 26.9 83.1 L 26.7 88.2 L 26.3 93.0 L 25.5 97.6 L 24.4 101.9 L 22.9 106.0 L 19.4 108.9 Z M 139.88205127716066 45.0 L 137.82940092086793 50.52092161178589 L 138.9 53.9 L 142.4 63.4 L 146.2 72.1 L 149.99495544433594 79.41884269714356 L 152.5 74.2 L 156.8 63.8 L 160.7 52.8 L 163.0060869216919 45.0 Z M 78.2 68.4 L 77.4 65.4 L 76.5 62.5 L 75.4 59.6 L 74.2 56.9 L 72.8 54.2 L 71.4 51.4 L 69.8 48.7 L 67.8 46.3 L 68.9 44.9 L 71.7 46.7 L 74.5 48.6 L 77.2 50.7 L 79.00560750961304 52.43037385940552 L 79.3 51.4 L 80.3 47.3 L 81.5 43.2 L 82.7 39.2 L 83.9 35.1 L 85.1 31.1 L 86.3 27.0 L 87.5 23.0 L 88.6 18.9 L 89.44890584945679 15.81306962966919 L 89.4 15.8 L 89.596875 15.275 L 89.7 14.9 L 89.73310546875 14.91171875 L 90.3 13.4 L 101.0 18.9 L 103.2 21.8 L 99.33517112731934 22.599619770050047 L 99.2 22.9 L 97.3 26.8 L 95.4 30.6 L 93.4 34.5 L 91.4 38.3 L 89.3 42.0 L 87.1 45.7 L 84.8 49.3 L 81.01477661132813 54.599312686920165 L 81.9 55.6 L 84.1 58.4 L 86.1 61.4 L 87.9 64.6 L 89.5 68.0 L 91.0 71.5 L 90.3 76.0 L 86.8 78.8 L 82.2 78.2 L 79.4 74.6 L 78.9 71.4 Z " />
</g>
</svg>
