<svg xmlns="http://www.w3.org/2000/svg" xmlns:xlink="http://www.w3.org/1999/xlink" version="1.1" baseProfile="full" viewBox="0 0 200 200" width="200" height="200">
<g fill="black">
<path d="M 58.4 153.2 L 57.3 149.7 L 55.9 146.2 L 54.3 142.6 L 52.4 138.8 L 50.3 134.9 L 47.9 130.8 L 45.905177688598634 127.44869861602783 L 45.4 130.4 L 42.8 140.7 L 39.5 150.3 L 35.6 159.1 L 30.9 167.1 L 25.6 174.3 L 19.5 180.5 L 12.8 185.6 L 11.7 184.3 L 16.7 177.9 L 21.2 171.1 L 25.2 163.9 L 28.6 156.0 L 31.5 147.6 L 33.8 138.4 L 35.5 128.6 L 36.7 118.1 L 37.3 106.9 L 37.3 17.0 L 49.3 19.0 L 52.3 21.0 L 49.3 22.8 L 49.3 72.02399997711181 L 50.5 70.2 L 53.0 66.5 L 55.3 63.0 L 57.5 59.7 L 59.6 56.6 L 61.6 53.6 L 63.4 50.7 L 64.47714128494263 48.94964542388916 L 64.4 48.9 L 64.89677419662476 48.267741966247556 L 65.0 48.1 L 65.0178153038025 48.11368961334229 L 65.5 47.5 L 74.5 55.4 L 75.7 58.8 L 71.68461542129516 58.31538457870484 L 67.2 62.8 L 64.4 65.5 L 61.5 68.3 L 58.4 71.2 L 55.1 74.1 L 51.6 77.2 L 49.3 79.07631578445435 L 49.3 95.0 L 48.6 107.5 L 47.3 119.3 L 46.605388164520264 123.35799531936645 L 47.9 124.4 L 51.7 127.8 L 55.2 131.2 L 58.3 134.7 L 61.2 138.3 L 63.8 141.8 L 66.2 145.4 L 68.2 149.1 L 70.0 152.8 L 71.5 156.5 L 70.9 161.0 L 67.3 163.8 L 62.8 163.2 L 59.9 159.6 L 59.3 156.5 Z M 161.6 147.4 L 163.6 147.4 L 161.6 172.4 L 165.2 174.8 L 167.6 178.4 L 165.2 182.0 L 161.6 184.4 L 116.2 184.4 L 113.6 184.2 L 111.1 183.8 L 108.7 183.0 L 106.4 181.7 L 104.4 180.1 L 102.8 178.1 L 101.5 175.8 L 100.7 173.4 L 100.3 170.9 L 100.2 168.4 L 100.2 131.5 L 112.2 133.5 L 115.2 135.5 L 112.2 137.3 L 112.2 169.6 L 112.4 170.5 L 112.6 171.1 L 112.8 171.4 L 112.9 171.6 L 113.1 171.8 L 114.0 172.1 L 114.9 172.3 L 116.2 172.4 L 155.6 172.4 Z M 71.0 176.7 L 69.6 172.3 L 71.7 168.2 L 73.4 167.0 L 75.2 165.2 L 76.9 162.9 L 78.5 160.1 L 80.0 156.8 L 81.4 153.0 L 82.6 148.6 L 83.7 143.8 L 84.7 138.4 L 85.4 132.6 L 87.2 132.5 L 88.0 138.5 L 88.5 144.1 L 88.6 149.3 L 88.4 154.3 L 87.9 158.9 L 87.0 163.2 L 85.7 167.2 L 84.1 170.9 L 82.0 174.3 L 79.5 177.4 L 75.1 178.7 Z M 175.8 161.5 L 174.9 158.0 L 173.8 154.6 L 172.5 151.2 L 170.9 147.9 L 169.1 144.6 L 167.2 141.3 L 165.0 137.9 L 162.5 134.7 L 163.7 133.3 L 167.2 135.7 L 170.6 138.2 L 173.8 140.9 L 176.7 143.9 L 179.3 147.2 L 181.7 150.6 L 183.9 154.2 L 185.8 158.0 L 187.4 161.9 L 188.8 166.1 L 187.9 170.5 L 184.2 173.2 L 179.7 172.3 L 177.1 168.6 L 176.6 165.0 Z M 133.3 148.0 L 132.2 145.3 L 131.0 142.7 L 129.7 140.1 L 128.2 137.7 L 126.6 135.2 L 124.9 132.8 L 123.1 130.4 L 120.9 128.4 L 121.9 126.8 L 124.7 128.3 L 127.6 129.7 L 130.4 131.3 L 133.1 133.2 L 135.6 135.3 L 138.0 137.7 L 140.2 140.2 L 142.3 143.0 L 144.3 145.9 L 146.2 149.0 L 146.1 153.5 L 142.9 156.8 L 138.4 156.8 L 135.1 153.6 L 134.2 150.7 Z M 74.7 115.7 L 123.5 115.7 L 123.5 92.4 L 85.6 92.4 L 85.6 88.4 L 123.5 88.4 L 123.5 66.1 L 135.5 68.1 L 138.5 70.1 L 135.5 71.9 L 135.5 88.4 L 152.0 88.4 L 162.0 78.4 L 174.0 88.4 L 174.0 92.4 L 135.5 92.4 L 135.5 115.7 L 162.9 115.7 L 172.9 105.7 L 184.9 115.7 L 184.9 119.7 L 74.7 119.7 Z M 15.4 108.6 L 12.7 104.9 L 13.2 100.4 L 14.9 97.6 L 16.5 94.4 L 17.9 90.8 L 19.1 86.8 L 20.1 82.4 L 20.8 77.5 L 21.4 72.3 L 21.8 66.6 L 22.1 60.6 L 22.3 54.1 L 24.1 53.8 L 25.9 60.2 L 27.2 66.3 L 28.0 72.2 L 28.4 77.8 L 28.5 83.2 L 28.2 88.3 L 27.6 93.2 L 26.7 97.8 L 25.3 102.2 L 23.6 106.3 L 20.0 109.1 Z M 76.7 61.8 L 123.5 61.8 L 123.5 39.2 L 85.6 39.2 L 85.6 35.2 L 123.5 35.2 L 123.5 12.9 L 135.5 14.9 L 138.5 16.9 L 135.5 18.7 L 135.5 35.2 L 152.0 35.2 L 162.0 25.2 L 174.0 35.2 L 174.0 39.2 L 135.5 39.2 L 135.5 61.8 L 160.9 61.8 L 170.9 51.8 L 182.9 61.8 L 182.9 65.8 L 76.7 65.8 Z " />
</g>
</svg>
