<svg xmlns="http://www.w3.org/2000/svg" xmlns:xlink="http://www.w3.org/1999/xlink" version="1.1" baseProfile="full" viewBox="0 0 200 200" width="200" height="200">
<g fill="black">
<path d="M 97.0 177.0 L 117.0 177.0 L 118.3 176.9 L 119.2 176.7 L 120.1 176.4 L 120.3 176.2 L 120.4 176.0 L 120.6 175.7 L 120.8 175.1 L 121.0 174.2 L 121.0 136.0 L 70.3 136.0 L 70.3 132.0 L 162.9 132.0 L 172.9 122.0 L 184.9 132.0 L 184.9 136.0 L 133.0 136.0 L 133.0 173.0 L 132.9 175.5 L 132.5 178.0 L 131.7 180.4 L 130.4 182.7 L 128.8 184.7 L 126.8 186.3 L 124.5 187.6 L 122.1 188.4 L 119.6 188.8 L 117.0 189.0 L 117.0 183.0 L 97.0 180.0 Z M 61.9 153.3 L 60.7 149.9 L 59.1 146.4 L 57.3 142.7 L 55.2 138.9 L 52.8 135.0 L 50.1 130.9 L 47.47052631378174 126.95578947067261 L 46.8 130.5 L 44.0 140.8 L 40.4 150.4 L 36.1 159.3 L 31.1 167.3 L 25.4 174.4 L 18.9 180.5 L 11.7 185.7 L 10.5 184.2 L 16.2 177.9 L 21.2 171.0 L 25.5 163.8 L 29.3 155.9 L 32.5 147.5 L 35.0 138.3 L 36.9 128.6 L 38.2 118.1 L 38.9 106.9 L 38.9 17.0 L 50.9 19.0 L 53.9 21.0 L 50.9 22.8 L 50.9 72.98275861740112 L 53.1 70.1 L 55.8 66.4 L 58.4 62.9 L 60.9 59.5 L 63.2 56.4 L 65.4 53.4 L 67.4 50.5 L 68.64516124725341 48.63225803375244 L 68.6 48.6 L 68.9333333015442 48.2 L 69.2 47.8 L 69.23906583786011 47.83312101364136 L 69.6 47.4 L 78.4 55.6 L 79.4 59.1 L 75.37391815185546 58.4058479309082 L 73.3 60.4 L 70.5 62.9 L 67.6 65.6 L 64.4 68.4 L 61.1 71.3 L 57.5 74.3 L 53.8 77.3 L 50.9 79.49268293380737 L 50.9 95.0 L 50.2 107.5 L 48.9 119.4 L 48.2 123.1 L 49.8 124.3 L 53.9 127.6 L 57.6 131.1 L 61.0 134.6 L 64.1 138.1 L 66.9 141.7 L 69.4 145.3 L 71.6 148.9 L 73.5 152.6 L 75.1 156.4 L 74.6 160.9 L 71.1 163.8 L 66.6 163.3 L 63.6 159.8 L 62.9 156.6 Z M 103.7 152.6 L 104.7 156.1 L 100.79183168411255 155.4143564224243 L 100.6 155.6 L 97.4 158.5 L 93.9 161.4 L 90.2 164.1 L 86.4 166.9 L 82.3 169.5 L 78.1 172.0 L 73.6 174.4 L 68.9 176.6 L 64.0 178.7 L 63.0 177.2 L 67.0 173.7 L 70.7 170.2 L 74.4 166.9 L 77.8 163.6 L 81.1 160.4 L 84.2 157.3 L 87.1 154.1 L 89.8 151.0 L 92.3 147.9 L 93.9695782661438 145.64969882965087 L 93.9 145.6 L 94.45846157073974 144.99076919555665 L 94.6 144.8 L 94.61866664886475 144.8159999847412 L 95.0 144.4 Z M 168.6 169.2 L 166.5 166.4 L 164.2 163.7 L 161.8 161.0 L 159.3 158.5 L 156.7 156.1 L 151.1 151.3 L 148.0 149.2 L 148.7 147.5 L 152.5 148.6 L 156.2 149.7 L 159.8 151.2 L 163.3 152.9 L 166.7 154.9 L 170.0 157.1 L 173.3 159.5 L 176.4 162.1 L 179.3 164.9 L 182.2 167.9 L 183.3 172.4 L 181.1 176.3 L 176.6 177.4 L 172.7 175.2 L 170.7 172.1 Z M 172.4 106.0 L 172.4 110.0 L 82.8 110.0 L 82.8 106.0 L 150.4 106.0 L 160.4 96.0 Z M 14.6 108.5 L 12.0 104.7 L 12.7 100.2 L 14.5 97.5 L 16.2 94.3 L 17.7 90.8 L 18.9 86.8 L 20.0 82.4 L 20.8 77.5 L 21.4 72.3 L 21.8 66.7 L 22.0 60.6 L 22.2 54.1 L 24.0 53.8 L 25.8 60.2 L 27.1 66.3 L 27.9 72.2 L 28.4 77.9 L 28.4 83.3 L 28.1 88.4 L 27.4 93.3 L 26.3 98.0 L 24.8 102.4 L 22.8 106.6 L 19.1 109.2 Z M 116.9 59.9 L 116.0 58.2 L 114.9 56.5 L 113.7 54.8 L 112.3 52.9 L 110.7 51.0 L 108.9 49.0 L 108.1 48.06666669845581 L 108.1 91.0 L 96.1 97.0 L 96.1 58.439999961853026 L 95.8 58.9 L 92.5 63.3 L 88.9 67.6 L 85.0 71.7 L 80.7 75.6 L 76.0 79.3 L 70.9 82.6 L 69.7 81.3 L 73.4 76.5 L 76.8 72.0 L 80.0 67.5 L 82.9 63.0 L 85.5 58.6 L 87.8 54.2 L 89.8 49.7 L 91.5 45.3 L 92.9 40.8 L 93.07142858505249 40.0 L 72.6 40.0 L 72.6 36.0 L 96.1 36.0 L 96.1 13.0 L 108.1 15.0 L 111.1 17.0 L 108.1 18.8 L 108.1 36.0 L 110.01818180084229 36.0 L 118.2 27.0 L 128.2 36.0 L 128.2 40.0 L 108.1 40.0 L 108.1 44.9 L 108.3 45.0 L 111.1 45.9 L 113.7 46.9 L 116.1 48.0 L 118.4 49.2 L 120.6 50.4 L 122.6 51.7 L 124.6 53.1 L 126.4 54.5 L 128.0 56.1 L 128.9 60.6 L 126.5 64.4 L 122.0 65.3 L 118.1 62.8 L 117.6 61.4 Z M 171.9 72.7 L 169.4 69.2 L 167.1 65.6 L 164.9 61.7 L 162.8 57.7 L 160.9 53.4 L 159.1 48.9 L 158.0 45.453333377838135 L 158.0 91.0 L 146.0 97.0 L 146.0 58.35 L 143.9 61.5 L 140.1 66.4 L 136.1 71.0 L 131.7 75.4 L 126.9 79.5 L 121.8 83.3 L 116.3 86.7 L 115.1 85.2 L 119.3 80.5 L 123.2 75.7 L 126.8 71.0 L 130.2 66.3 L 133.2 61.5 L 136.0 56.6 L 138.4 51.6 L 140.6 46.6 L 142.5 41.4 L 142.87058820724488 40.0 L 130.4 40.0 L 130.4 36.0 L 146.0 36.0 L 146.0 13.0 L 158.0 15.0 L 161.0 17.0 L 158.0 18.8 L 158.0 36.0 L 164.1 36.0 L 174.1 26.0 L 186.1 36.0 L 186.1 40.0 L 158.925 40.0 L 160.8 42.5 L 163.8 46.4 L 166.7 50.0 L 169.5 53.4 L 172.2 56.6 L 175.0 59.6 L 177.7 62.3 L 180.5 64.8 L 183.2 67.0 L 185.9 69.0 L 188.0 70.8 L 177.2 78.9 L 174.5 75.9 Z " />
</g>
</svg>
