<svg xmlns="http://www.w3.org/2000/svg" xmlns:xlink="http://www.w3.org/1999/xlink" version="1.1" baseProfile="full" viewBox="0 0 200 200" width="200" height="200">
<g fill="black">
<path d="M 160.3 182.1 L 152.1 178.0 L 145.0 172.9 L 138.9 167.0 L 133.9 160.2 L 130.1 152.7 L 127.4 144.4 L 127.26017770767211 143.51112995147705 L 123.9 152.0 L 118.9 160.6 L 112.5 168.1 L 105.0 174.4 L 96.3 179.5 L 86.5 183.4 L 75.6 186.0 L 63.7 187.4 L 63.4 185.7 L 74.7 182.3 L 84.5 178.4 L 93.1 173.7 L 100.3 168.4 L 106.3 162.3 L 111.1 155.5 L 114.7 148.0 L 117.3 139.6 L 118.8 130.3 L 119.2 120.0 L 119.2 117.7 L 131.2 120.2 L 134.1 122.2 L 130.82712211608887 124.09826917648316 L 130.1 131.7 L 129.72771453857422 133.3597724914551 L 130.1 134.7 L 133.0 142.6 L 136.6 149.5 L 138.7170621871948 152.54650421142577 L 140.9 150.5 L 146.8 144.6 L 149.5 141.7 L 152.2 139.0 L 154.8 136.3 L 157.2 133.7 L 159.5 131.1 L 161.7 128.5 L 163.08341970443726 126.77072534561157 L 163.0 126.7 L 164.0 125.7 L 172.2 134.5 L 172.9 138.0 L 169.0380531311035 137.0345132827759 L 166.6 138.8 L 163.6 141.0 L 160.5 143.1 L 157.2 145.2 L 153.8 147.2 L 150.3 149.3 L 146.6 151.2 L 142.7 153.0 L 139.97798738479614 154.3610062599182 L 140.7 155.4 L 145.6 160.5 L 151.1 164.8 L 157.4 168.2 L 164.4 171.0 L 172.3 173.0 L 181.2 174.3 L 191.3 175.7 L 179.4 187.4 L 169.4 185.2 Z M 52.7 152.9 L 51.8 149.5 L 50.6 146.0 L 49.2 142.4 L 47.6 138.6 L 45.7 134.7 L 42.593877506256106 128.48775510787965 L 42.3 130.3 L 39.9 140.6 L 37.0 150.2 L 33.4 159.0 L 29.2 167.0 L 24.4 174.2 L 18.9 180.4 L 12.9 185.6 L 11.6 184.3 L 16.0 178.0 L 19.9 171.3 L 23.4 164.0 L 26.4 156.2 L 28.9 147.7 L 30.9 138.6 L 32.4 128.7 L 33.4 118.2 L 33.9 106.9 L 33.8 95.0 L 33.8 17.0 L 45.8 19.0 L 48.8 21.0 L 45.8 22.8 L 45.8 70.74545450210572 L 46.0 70.4 L 48.1 66.7 L 50.1 63.2 L 52.0 59.9 L 53.8 56.8 L 55.5 53.8 L 57.1 51.0 L 58.02941179275513 49.27394962310791 L 57.9 49.2 L 59.0 47.7 L 68.4 55.2 L 69.7 58.5 L 65.60633249282837 58.28825855255127 L 64.1 60.0 L 61.7 62.6 L 59.2 65.3 L 56.5 68.1 L 53.7 71.0 L 50.7 74.0 L 47.5 77.1 L 45.8 78.60571432113647 L 45.8 95.0 L 45.2 107.5 L 44.1 119.2 L 43.34357976913452 123.86459140777588 L 44.1 124.6 L 47.6 127.9 L 50.8 131.4 L 53.7 134.9 L 56.3 138.5 L 58.7 142.0 L 60.8 145.6 L 62.7 149.3 L 64.3 152.9 L 65.7 156.6 L 64.9 161.1 L 61.2 163.9 L 56.7 163.1 L 54.0 159.4 L 53.5 156.3 Z M 76.9 159.6 L 76.3 155.1 L 79.0 151.4 L 81.3 150.3 L 83.4 149.0 L 85.4 147.5 L 87.4 145.7 L 89.2 143.5 L 91.0 141.0 L 92.6 138.2 L 94.2 135.0 L 95.6 131.5 L 96.6 127.6 L 98.4 127.8 L 98.4 132.0 L 98.3 136.0 L 97.9 139.9 L 97.1 143.6 L 96.0 147.1 L 94.6 150.5 L 92.7 153.7 L 90.6 156.6 L 88.0 159.3 L 85.1 161.7 L 80.6 162.3 Z M 99.7 23.0 L 100.0 26.6 L 95.43421049118042 24.773684215545654 L 94.7 25.1 L 92.7 26.0 L 90.6 26.9 L 88.4 27.9 L 86.0 29.0 L 83.60100164413453 29.95959930419922 L 83.97647056579589 52.3 L 89.2 52.3 L 93.7 46.3 L 99.7 52.3 L 99.7 56.3 L 84.04369745254516 56.3 L 84.46050424575806 81.1 L 89.2 81.1 L 93.7 75.1 L 99.7 81.1 L 99.7 85.1 L 84.52773113250733 85.1 L 84.96302518844604 111.0 L 163.93460674285888 111.0 L 164.34202251434326 85.1 L 149.2 85.1 L 149.2 81.1 L 164.40494384765626 81.1 L 164.79505615234376 56.3 L 149.2 56.3 L 149.2 52.3 L 164.85797748565673 52.3 L 165.2685393333435 26.2 L 152.0 26.2 L 152.0 22.2 L 165.3 22.2 L 171.3 17.2 L 182.3 26.2 L 177.3 29.2 L 176.2798861503601 29.625047397613525 L 175.91189022064208 110.58414630889892 L 180.1 105.0 L 186.1 111.0 L 186.1 115.0 L 62.8 115.0 L 62.8 111.0 L 72.96296300888062 111.0 L 71.5 24.1 L 80.16465892791749 28.253307628631593 L 81.2 27.0 L 83.0 24.9 L 84.7 22.9 L 86.2 21.0 L 87.7 19.3 L 89.1 17.7 L 91.5 14.7 L 91.88144330978393 14.20412368774414 L 91.7 14.0 L 92.5 13.4 Z M 15.0 108.6 L 12.1 105.1 L 12.4 100.6 L 14.0 97.8 L 15.4 94.6 L 16.7 90.9 L 17.8 86.9 L 18.7 82.4 L 19.5 77.5 L 20.0 72.3 L 20.5 66.6 L 20.8 60.5 L 21.1 54.1 L 22.9 53.8 L 24.6 60.2 L 25.8 66.3 L 26.6 72.2 L 27.0 77.8 L 27.2 83.1 L 27.0 88.2 L 26.5 93.0 L 25.7 97.6 L 24.6 101.9 L 23.1 106.0 L 19.6 108.9 Z M 132.9 17.9 L 135.2 20.7 L 129.5 22.0 L 131.61034479141236 19.45517244338989 L 131.3 19.8 L 130.3 21.0 L 129.1 22.5 L 127.8 24.3 L 126.4 26.3 L 124.7 28.6 L 122.9 31.2 L 120.87241382598877 34.0 L 136.1 34.0 L 142.1 29.0 L 153.1 38.0 L 148.1 42.0 L 148.1 97.6 L 136.1 103.6 L 136.1 95.6 L 113.0 95.6 L 113.0 98.6 L 101.0 104.6 L 101.0 28.0 L 113.0 34.0 L 118.375 34.0 L 118.7 33.1 L 119.4 29.7 L 120.1 26.6 L 120.6 23.9 L 121.1 21.4 L 121.5 19.3 L 121.7 17.5 L 121.8 16.0 L 121.72970609664917 15.226767253875732 L 121.2 15.1 L 122.0 12.7 Z M 124.3 76.6 L 124.26824150085449 76.49317588806153 L 122.0 79.7 L 119.0 83.6 L 115.8 87.0 L 113.0 89.48000001907349 L 113.0 91.6 L 136.1 91.6 L 136.1 86.24285717010498 L 133.7 88.3 L 129.2 87.9 L 126.2 84.4 L 125.3 80.5 Z M 113.0 38.0 L 113.0 84.2 L 114.5 80.7 L 116.3 76.4 L 118.2 72.0 L 120.0 67.4 L 120.78375720977783 65.18703851699829 L 119.6 62.0 L 118.3 58.4 L 117.0 54.9 L 115.6 51.4 L 114.1 48.0 L 115.6 47.0 L 118.2 49.7 L 120.9 52.5 L 123.4 55.5 L 123.878125 56.1375 L 125.1 52.4 L 126.6 47.0 L 127.83489646911622 42.30739336013794 L 127.8 42.3 L 128.05454549789428 41.47272729873657 L 128.1 41.3 L 128.1070336341858 41.30214071273804 L 128.6 39.7 L 136.1 43.177272701263426 L 136.1 38.0 Z M 135.1 56.1 L 132.7 61.4 L 130.43376626968384 65.93246755599975 L 132.2 69.2 L 134.1 72.9 L 135.9 76.8 L 136.1 77.27058820724487 L 136.1 53.70869569778442 Z " />
</g>
</svg>
