<svg xmlns="http://www.w3.org/2000/svg" xmlns:xlink="http://www.w3.org/1999/xlink" version="1.1" baseProfile="full" viewBox="0 0 200 200" width="200" height="200">
<g fill="black">
<path d="M 151.0 184.7 L 140.2 181.5 L 130.5 177.7 L 122.2 173.1 L 115.1 167.7 L 109.5 161.6 L 105.4 154.8 L 103.63625650405884 149.64986915588378 L 102.1 153.7 L 96.8 161.5 L 89.9 168.1 L 81.4 173.8 L 71.4 178.4 L 59.9 182.1 L 46.8 184.9 L 32.2 186.7 L 16.0 187.6 L 15.9 185.8 L 31.6 182.9 L 45.7 179.6 L 57.9 175.8 L 68.4 171.4 L 77.0 166.5 L 83.8 161.1 L 88.9 155.3 L 92.4 149.1 L 94.4 142.4 L 94.9 135.1 L 94.93028011322022 135.10075702667237 L 95.0 132.8 L 106.9 135.4 L 109.9 137.5 L 106.25958442687988 139.49865951538087 L 105.6666932106018 143.2931637763977 L 106.9 146.1 L 110.5 151.8 L 114.9 156.8 L 119.23147611618042 160.32935094833374 L 123.2 158.0 L 127.6 155.4 L 131.9 153.0 L 136.1 150.6 L 140.0 148.3 L 143.8 146.1 L 147.4 143.9 L 150.8 141.8 L 154.1 139.7 L 156.32736558914183 138.14084415435792 L 156.3 138.1 L 156.33529415130616 138.13529415130614 L 157.1 137.6 L 158.7673913002014 140.56739130020142 L 165.1 146.9 L 165.2 150.3 L 161.4893497467041 148.79058294296266 L 159.5 149.7 L 155.7 151.3 L 151.8 152.8 L 147.7 154.3 L 143.4 155.9 L 139.0 157.3 L 134.4 158.7 L 129.5 160.1 L 124.5 161.3 L 121.54154586791992 161.92582683563234 L 126.8 165.0 L 134.5 168.2 L 143.3 171.0 L 153.4 173.1 L 164.8 174.7 L 177.5 175.7 L 188.3 176.5 L 176.4 188.8 L 163.1 187.1 Z M 35.1 165.5 L 35.5 160.9 L 38.9 157.9 L 42.3 157.0 L 45.4 156.0 L 48.2 154.9 L 50.8 153.6 L 53.1 152.1 L 55.3 150.4 L 57.2 148.5 L 59.1 146.3 L 60.8 143.9 L 61.9 141.0 L 63.7 141.3 L 63.3 144.6 L 62.9 148.0 L 62.0 151.3 L 60.5 154.4 L 58.6 157.4 L 56.2 160.2 L 53.4 162.8 L 50.2 165.2 L 46.6 167.3 L 42.7 169.3 L 38.1 168.9 Z M 85.6 120.7 L 84.2 119.2 L 82.5 117.6 L 80.5 116.0 L 78.3 114.4 L 75.8 112.7 L 73.0 111.0 L 71.0 109.8 L 71.0 132.6 L 59.0 138.6 L 59.0 114.04499998092652 L 57.2 115.8 L 52.9 119.4 L 48.3 122.7 L 43.3 125.7 L 38.1 128.4 L 32.5 130.8 L 26.6 132.7 L 20.3 134.3 L 19.6 132.6 L 25.0 129.3 L 30.0 126.0 L 34.8 122.7 L 39.1 119.4 L 43.1 115.9 L 46.7 112.4 L 50.0 108.8 L 53.0 105.0 L 54.84736843109131 102.3 L 34.0 102.3 L 34.0 98.3 L 59.0 98.3 L 59.0 81.1 L 71.0 83.1 L 74.0 85.1 L 71.0 86.9 L 71.0 98.3 L 77.0 98.3 L 87.0 88.3 L 99.0 98.3 L 99.0 102.3 L 71.0 102.3 L 71.0 106.8222222328186 L 74.4 107.2 L 77.7 107.8 L 80.9 108.5 L 83.9 109.3 L 86.7 110.2 L 89.3 111.3 L 91.8 112.5 L 94.1 113.9 L 96.3 115.4 L 97.8 119.7 L 96.0 123.9 L 91.7 125.4 L 87.5 123.6 L 86.7 122.2 Z M 163.8 126.2 L 161.8 124.3 L 159.4 122.3 L 156.6 120.2 L 153.4 118.1 L 149.8 115.9 L 145.8 113.6 L 141.4 111.2 L 140.0 110.5583333015442 L 140.0 132.6 L 128.0 138.6 L 128.0 114.18529415130615 L 127.5 114.7 L 123.9 117.9 L 120.1 120.8 L 116.1 123.4 L 111.9 125.6 L 107.5 127.5 L 103.0 128.9 L 98.3 130.0 L 97.6 128.4 L 101.5 125.8 L 105.2 123.1 L 108.6 120.4 L 111.8 117.5 L 114.8 114.5 L 117.6 111.4 L 120.2 108.1 L 122.6 104.7 L 124.0666666984558 102.3 L 101.0 102.3 L 101.0 98.3 L 128.0 98.3 L 128.0 81.1 L 140.0 83.1 L 143.0 85.1 L 140.0 86.9 L 140.0 98.3 L 144.0 98.3 L 154.0 88.3 L 159.07444791793824 92.52870664596557 L 159.5 91.7 L 161.4 88.3 L 163.2 85.1 L 164.8 82.1 L 166.3 79.3 L 167.7 76.6 L 168.66000003814696 74.6 L 33.2 74.6 L 33.2 77.6 L 32.9 82.4 L 32.2 87.0 L 31.0 91.2 L 29.4 95.1 L 27.4 98.7 L 24.8 102.0 L 21.7 104.7 L 17.2 105.4 L 13.4 102.9 L 12.7 98.3 L 15.3 94.6 L 17.3 93.5 L 19.2 92.0 L 21.1 90.1 L 22.9 87.6 L 24.5 84.5 L 26.0 80.9 L 27.3 76.7 L 28.4 72.0 L 29.4 66.8 L 30.1 61.0 L 31.9 61.0 L 32.6 66.8 L 33.00714282989502 70.6 L 47.0 70.6 L 47.0 15.8 L 59.0 21.8 L 141.0 21.8 L 147.0 16.8 L 158.0 25.8 L 153.0 29.8 L 153.0 70.6 L 170.0 70.6 L 170.5777777671814 70.11851854324341 L 170.8 69.6 L 171.0338252067566 69.73847904205323 L 176.0 65.6 L 187.0 74.6 L 182.0 77.6 L 178.08888893127443 79.22962961196899 L 177.6 79.8 L 175.6 82.0 L 173.4 84.3 L 171.1 86.7 L 168.5 89.2 L 165.8 91.8 L 162.9 94.5 L 162.1861198425293 95.12176656723022 L 166.0 98.3 L 166.0 102.3 L 140.0 102.3 L 140.0 107.79230766296386 L 142.4 108.3 L 147.4 109.3 L 152.0 110.4 L 156.3 111.7 L 160.3 113.1 L 163.9 114.6 L 167.3 116.2 L 170.3 118.0 L 173.1 119.9 L 175.6 121.9 L 176.9 126.3 L 174.9 130.4 L 170.5 131.8 L 166.4 129.7 L 165.3 128.0 Z M 59.0 25.8 L 59.0 70.6 L 141.0 70.6 L 141.0 25.8 Z M 106.48648653030395 33.408108139038085 L 106.3 34.9 L 104.8 40.2 L 102.5 45.2 L 101.97161588668823 46.01990633010864 L 102.3 46.1 L 106.3 46.9 L 110.1 47.9 L 113.6 49.1 L 117.0 50.5 L 120.2 52.0 L 123.1 53.6 L 125.9 55.4 L 128.5 57.4 L 130.8 59.6 L 132.0 64.0 L 129.8 68.0 L 125.4 69.2 L 121.4 67.0 L 120.2 65.1 L 118.8 63.1 L 117.2 61.1 L 115.2 59.1 L 113.0 57.1 L 110.4 55.0 L 107.6 53.0 L 104.6 50.9 L 101.3 48.7 L 100.50690431594849 48.29273462295532 L 99.6 49.7 L 95.9 53.9 L 91.6 57.6 L 86.7 61.0 L 81.2 63.9 L 75.1 66.3 L 68.3 68.3 L 67.6 66.6 L 73.4 62.9 L 78.5 59.3 L 82.8 55.7 L 86.5 52.0 L 89.5 48.3 L 91.8 44.6 L 93.4 40.9 L 94.5 37.2 L 95.0 33.3 L 95.0 26.9 L 107.0 29.3 L 110.0 31.3 Z " />
</g>
</svg>
