<svg xmlns="http://www.w3.org/2000/svg" xmlns:xlink="http://www.w3.org/1999/xlink" version="1.1" baseProfile="full" viewBox="0 0 200 200" width="200" height="200">
<g fill="black">
<path d="M 120.48547859191895 152.62717275619508 L 117.65094194412231 151.42464208602905 L 116.4 151.9 L 108.6 154.1 L 104.6 155.1 L 100.7 156.1 L 96.7 157.1 L 92.7 158.0 L 88.6 158.8 L 84.5 159.5 L 82.4 159.80731706619264 L 82.4 165.6 L 82.6 166.5 L 82.8 167.1 L 82.9 167.5 L 83.1 167.7 L 83.3 167.8 L 83.6 168.0 L 84.2 168.2 L 85.1 168.3 L 86.4 168.4 L 116.7 168.4 Z M 51.2 152.9 L 50.3 149.5 L 49.1 146.0 L 47.8 142.3 L 46.2 138.6 L 44.5 134.7 L 41.54489793777466 128.78979587554932 L 41.3 130.3 L 39.0 140.6 L 36.2 150.2 L 32.7 159.0 L 28.6 167.0 L 23.9 174.1 L 18.6 180.4 L 12.6 185.6 L 11.4 184.3 L 15.6 178.0 L 19.4 171.3 L 22.7 164.0 L 25.6 156.2 L 28.0 147.7 L 30.0 138.6 L 31.4 128.7 L 32.4 118.2 L 32.8 106.9 L 32.8 17.0 L 44.8 19.0 L 47.8 21.0 L 44.8 22.8 L 44.8 70.21999998092652 L 46.7 66.8 L 48.7 63.3 L 50.5 60.0 L 52.2 56.9 L 53.8 53.9 L 55.3 51.1 L 56.2038649559021 49.35683183670044 L 56.1 49.3 L 56.64246578216553 48.51095886230469 L 56.7 48.4 L 56.71283693313599 48.40860080718994 L 57.2 47.7 L 64.09255323410034 53.06893615722656 L 68.9 47.3 L 71.1 44.2 L 73.1 41.2 L 75.0 38.2 L 76.7 35.1 L 78.1 32.0 L 79.4 28.9 L 80.18108901977538 26.627740955352785 L 80.1 26.6 L 81.0 24.5 L 86.97314624786377 27.913226413726807 L 90.4 27.3 L 99.8 25.8 L 109.0 24.3 L 118.1 22.9 L 127.0 21.5 L 135.8 20.1 L 144.4 18.6 L 152.9 17.1 L 161.2 15.5 L 168.40178146362305 14.006947708129882 L 168.4 14.0 L 168.40711460113525 14.005842113494873 L 169.4 13.8 L 169.59909648895263 14.984623908996582 L 180.7 24.1 L 181.0 27.1 L 176.5038022994995 24.821926498413085 L 171.4 25.7 L 163.0 26.7 L 154.4 27.7 L 145.7 28.5 L 136.9 29.3 L 127.9 30.0 L 118.8 30.5 L 109.6 30.9 L 100.2 31.1 L 91.9 31.1 L 93.5 33.5 L 89.35189876556396 34.072151851654056 L 87.2 37.3 L 84.7 40.5 L 82.1 43.5 L 79.2 46.4 L 76.1 49.0 L 73.95365858078003 50.6768292427063 L 81.4 54.4 L 165.5 54.4 L 171.5 49.4 L 173.46935482025145 51.01129035949707 L 173.3 50.6 L 172.2 48.7 L 170.9 46.7 L 169.3 44.6 L 167.4 42.4 L 165.2 40.1 L 162.8 37.7 L 160.1 35.2 L 157.2 32.5 L 153.9 30.1 L 154.7 28.5 L 158.6 30.2 L 162.4 31.6 L 165.9 33.1 L 169.2 34.7 L 172.2 36.4 L 175.0 38.1 L 177.6 39.9 L 180.0 41.8 L 182.1 43.7 L 184.1 45.8 L 184.9 50.3 L 182.3 54.1 L 178.1468560218811 54.83833675384521 L 182.5 58.4 L 177.5 62.4 L 177.5 82.8 L 165.5 88.8 L 165.5 82.8 L 81.4 82.8 L 69.4 88.8 L 69.4 53.8 L 66.75052700042724 55.2321475982666 L 68.0 58.5 L 63.91010313034057 58.288453578948975 L 62.5 59.9 L 60.2 62.5 L 57.7 65.2 L 55.1 68.0 L 52.3 70.9 L 49.4 73.9 L 46.3 77.0 L 44.8 78.41176471710205 L 44.8 95.0 L 44.2 107.4 L 43.1 119.2 L 42.32734375 123.96471357345581 L 43.0 124.6 L 46.4 128.0 L 49.5 131.4 L 52.3 135.0 L 54.9 138.5 L 57.2 142.1 L 59.3 145.7 L 61.1 149.3 L 62.7 153.0 L 64.0 156.7 L 63.3 161.2 L 59.6 163.9 L 55.1 163.1 L 52.4 159.4 L 51.9 156.2 Z M 140.1516948699951 99.1 L 142.6 109.8 L 145.6 120.6 L 149.0 130.5 L 152.8 139.5 L 156.22438459396363 145.95058498382568 L 158.7 141.7 L 163.1 131.7 L 166.7 120.8 L 169.5 109.0 L 171.046875 99.1 Z M 91.0 126.7 L 90.8 124.7 L 90.6 123.6 L 90.3 122.5 L 90.13678760528565 121.84715023040772 L 86.8 124.6 L 82.6 127.6 L 78.3 130.1 L 75.9 131.2454545021057 L 75.9 132.1 L 94.08666667938232 132.1 L 90.8 129.2 L 91.0 127.6 Z M 101.8 128.5 L 98.8 132.0 L 96.5 132.1 L 113.0 132.1 L 113.0 119.65777778625488 L 110.49462947845458 119.43507814407349 L 112.4 122.0 L 113.0 126.6 L 110.3 130.3 L 105.8 130.8 L 102.1 128.1 L 101.75309972763061 127.44474391937256 Z M 76.4 113.4 L 76.4 111.4 L 76.3 110.3 L 76.1 109.2 L 75.9 108.46666669845581 L 75.9 127.2125 L 76.0 127.1 L 79.1 123.5 L 82.3 119.9 L 83.29717836380004 118.67765235900879 L 79.3 118.5 L 76.1 115.2 L 76.3 114.3 Z M 94.8 117.7 L 93.11847133636475 119.21337575912476 L 94.7 119.7 L 96.0 120.2 L 97.2 120.8 L 98.76129035949707 121.79354839324951 L 98.5 121.3 L 96.4 118.1 L 95.56870231628417 116.89083967208862 Z M 102.4 109.5 L 101.98918914794922 109.95405406951905 L 104.0 111.9 L 107.0 115.1 L 107.23190183639527 115.38159513473511 L 107.3 115.2 L 107.5 113.4 L 107.5 112.4 L 107.4 111.4 L 107.2 110.3 L 106.9 109.2 L 106.5 107.9 L 106.0 106.6 L 105.14044942855836 105.99831457138062 Z M 110.81431064605712 98.3652705192566 L 109.6 100.1 L 106.24264707565308 104.5764705657959 L 107.1 105.2 L 108.6 105.4 L 111.4 106.4 L 112.7 107.1 L 113.0 107.28461542129517 L 113.0 98.32758617401123 Z M 14.7 108.6 L 11.7 105.2 L 12.0 100.6 L 13.5 97.8 L 14.9 94.6 L 16.2 90.9 L 17.3 86.9 L 18.2 82.4 L 18.9 77.6 L 19.5 72.3 L 19.9 66.6 L 20.3 60.5 L 20.6 54.0 L 22.4 53.8 L 24.0 60.2 L 25.2 66.3 L 26.0 72.2 L 26.5 77.8 L 26.6 83.1 L 26.5 88.2 L 26.0 93.0 L 25.2 97.6 L 24.1 101.9 L 22.7 105.9 L 19.2 108.9 Z M 93.86764707565308 103.17843141555787 L 94.2 103.4 L 94.30864934921264 103.48628034591675 L 94.54042987823486 103.11862850189209 Z M 81.4 58.4 L 81.4 78.8 L 101.4 78.8 L 101.4 58.4 Z M 113.4 58.4 L 113.4 78.8 L 133.5 78.8 L 133.5 58.4 Z M 145.5 58.4 L 145.5 78.8 L 165.5 78.8 L 165.5 58.4 Z M 122.4 47.1 L 122.0 45.6 L 121.4 44.0 L 120.6 42.4 L 119.6 40.6 L 118.4 38.8 L 117.0 36.9 L 115.4 34.9 L 113.3 33.3 L 114.2 31.8 L 116.6 33.1 L 119.1 34.0 L 121.5 35.0 L 123.7 36.1 L 125.8 37.4 L 127.7 38.8 L 129.5 40.3 L 131.1 41.9 L 132.6 43.7 L 133.9 45.6 L 133.6 50.2 L 130.3 53.3 L 125.7 53.0 L 122.6 49.7 L 122.6 48.4 Z M 128.7 174.4 L 126.9811188697815 176.97832164764404 L 132.7 173.1 L 140.4 166.4 L 147.4 159.0 L 150.43990077972413 154.8454689025879 L 148.9 152.0 L 145.1 142.7 L 142.1 132.7 L 139.8 121.9 L 138.5 110.4 L 138.1295082092285 99.1 L 127.9 99.1 L 127.9 95.1 L 171.5 95.1 L 177.5 90.1 L 188.5 99.1 L 183.5 102.1 L 182.48196392059327 102.52418165206909 L 180.7 111.5 L 177.0 124.1 L 172.3 135.6 L 166.8 146.2 L 161.41428575515747 154.0714285850525 L 161.9 154.8 L 167.2 161.0 L 172.9 166.5 L 179.1 171.1 L 185.8 174.9 L 190.7 177.5 L 179.5 186.4 L 171.8 181.2 L 164.9 175.1 L 158.8 168.2 L 154.66175918579103 162.18783874511718 L 153.0 164.1 L 144.7 171.4 L 135.6 177.5 L 125.7 182.4 L 115.0 186.0 L 114.3 184.4 L 121.48518514633179 180.4 L 86.4 180.4 L 83.8 180.3 L 81.3 179.8 L 78.9 179.0 L 76.6 177.8 L 74.6 176.1 L 73.0 174.1 L 71.7 171.9 L 70.9 169.4 L 70.5 167.0 L 70.4 164.4 L 70.4 138.85 L 63.9 142.1 L 63.9 90.2 L 75.9 92.2 L 78.9 94.2 L 75.9 96.0 L 75.9 103.96000003814697 L 76.1 104.1 L 77.6 104.4 L 79.0 104.8 L 81.6 106.0 L 82.9 106.8 L 84.1 107.7 L 85.2 108.7 L 86.3 109.8 L 87.3 110.9 L 87.17692308425903 113.7307692527771 L 88.4 112.1 L 90.1692307472229 109.62307691574097 L 89.4 108.7 L 86.7 105.7 L 83.9 102.7 L 81.0 99.6 L 77.9 96.7 L 78.8 95.2 L 86.8 98.8 L 88.9 100.01578950881958 L 88.9 99.6 L 89.0 98.7 L 88.7 95.7 L 88.5 94.6 L 88.2 93.5 L 87.6 91.1 L 86.7 90.3 L 87.9 88.9 L 88.8 89.7 L 91.4 90.3 L 92.7 90.8 L 93.9 91.3 L 95.0 91.8 L 96.2 92.5 L 97.3 93.2 L 98.4 94.0 L 99.4 94.8 L 99.4192307472229 95.01634616851807 L 100.0 94.0 L 102.25385847091675 89.82618808746338 L 102.2 89.8 L 102.61098899841309 89.16483516693116 L 102.7 89.0 L 102.71279211044312 89.00750303268433 L 103.3 88.1 L 113.0 95.0285714149475 L 113.0 90.2 L 125.0 92.2 L 128.0 94.2 L 125.0 96.0 L 125.0 136.1 L 113.0 142.1 L 113.0 136.1 L 75.9 136.1 L 74.225 136.9375 L 82.4 138.3 L 85.4 140.3 L 82.4 142.1 L 82.4 155.35 L 83.0 155.0 L 86.7 153.1 L 90.3 151.3 L 94.0 149.5 L 97.6 147.7 L 101.3 145.9 L 104.9 144.2 L 108.5 142.4 L 111.24866886138916 141.10201749801635 L 111.2 141.0 L 111.29227981567382 141.08142337799072 L 112.1 140.7 L 112.73526611328126 142.35464658737183 L 121.16563110351562 149.79320392608642 L 122.7 143.4 L 124.7 143.4 L 122.7 168.4 L 126.3 170.8 Z " />
</g>
</svg>
