<svg xmlns="http://www.w3.org/2000/svg" xmlns:xlink="http://www.w3.org/1999/xlink" version="1.1" baseProfile="full" viewBox="0 0 200 200" width="200" height="200">
<g fill="black">
<path d="M 96.0 176.5 L 116.0 176.5 L 117.2 176.4 L 118.1 176.3 L 118.7 176.1 L 119.0 175.9 L 119.2 175.7 L 119.4 175.6 L 119.5 175.2 L 119.7 174.6 L 119.9 173.7 L 120.0 172.5 L 120.0 159.3 L 71.32666664123535 159.3 L 71.1 161.0 L 67.5 163.8 L 63.0 163.2 L 60.1 159.7 L 59.5 156.5 L 58.6 153.2 L 57.5 149.8 L 56.0 146.2 L 54.4 142.6 L 52.4 138.8 L 50.2 134.9 L 47.8 130.9 L 45.650453853607175 127.3449812889099 L 45.1 130.4 L 42.5 140.8 L 39.1 150.4 L 35.1 159.2 L 30.4 167.2 L 25.0 174.3 L 18.8 180.5 L 12.0 185.6 L 10.8 184.3 L 16.0 177.9 L 20.6 171.1 L 24.7 163.9 L 28.2 156.0 L 31.1 147.5 L 33.5 138.4 L 35.2 128.6 L 36.4 118.1 L 37.0 106.9 L 37.0 17.0 L 49.0 19.0 L 52.0 21.0 L 49.0 22.8 L 49.0 72.39230766296387 L 50.5 70.2 L 53.0 66.5 L 55.4 63.0 L 57.7 59.7 L 59.8 56.5 L 61.8 53.5 L 63.7 50.7 L 64.83846349716187 48.89185199737549 L 64.7 48.8 L 65.8 47.5 L 74.8 55.5 L 75.9 58.9 L 71.87673568725586 58.34506702423096 L 70.0 60.3 L 67.3 62.8 L 64.5 65.5 L 61.5 68.3 L 58.4 71.2 L 55.0 74.2 L 51.5 77.2 L 49.0 79.18717947006226 L 49.0 95.0 L 48.4 107.5 L 47.1 119.3 L 46.37346000671387 123.33229703903199 L 47.7 124.4 L 51.6 127.7 L 55.1 131.2 L 58.3 134.7 L 61.3 138.2 L 63.9 141.8 L 66.3 145.4 L 68.4 149.1 L 70.2 152.7 L 71.22631578445434 155.3 L 120.0 155.3 L 120.0 141.8 L 80.5 141.8 L 80.5 137.8 L 120.0 137.8 L 120.0 125.11111106872559 L 114.4 125.2 L 107.7 125.1 L 100.5 124.8 L 93.44285717010499 124.24285717010498 L 89.5 127.2 L 84.3 130.4 L 78.7 133.4 L 72.7 136.1 L 66.3 138.3 L 65.5 136.7 L 70.9 132.8 L 75.9 128.9 L 80.5 125.1 L 84.7 121.2 L 88.6 117.4 L 92.0 113.4 L 95.1 109.4 L 97.7 105.4 L 99.77560977935791 101.7 L 68.0 101.7 L 68.0 97.7 L 102.0 97.7 L 102.0 83.2 L 73.5 83.2 L 73.5 79.2 L 102.0 79.2 L 102.0 62.6 L 114.0 64.6 L 117.0 66.6 L 114.0 68.4 L 114.0 79.2 L 137.9 79.2 L 137.9 62.6 L 149.9 64.6 L 152.9 66.6 L 149.9 68.4 L 149.9 79.2 L 160.9181818008423 79.2 L 169.1 70.2 L 179.1 79.2 L 179.1 83.2 L 149.9 83.2 L 149.9 97.7 L 161.9 97.7 L 171.9 87.7 L 183.9 97.7 L 183.9 101.7 L 147.6447368621826 101.7 L 149.8 103.8 L 153.6 107.2 L 157.3 110.5 L 161.0 113.5 L 164.7 116.2 L 168.3 118.6 L 172.0 120.8 L 175.6 122.6 L 179.3 124.2 L 183.0 125.5 L 189.3 128.2 L 177.9 137.7 L 173.7 135.4 L 169.7 132.8 L 165.8 129.8 L 162.1 126.6 L 158.6 123.1 L 155.3 119.3 L 152.1 115.2 L 149.3 110.8 L 146.7 106.1 L 144.71568632125854 101.7 L 113.04615383148193 101.7 L 112.7 102.3 L 109.8 107.1 L 106.5 111.6 L 102.8 115.8 L 98.8 119.9 L 96.62867136001587 121.68531465530396 L 100.3 121.0 L 107.3 119.8 L 113.9 118.6 L 119.9 117.6 L 125.5 116.5 L 130.6 115.4 L 135.3 114.4 L 139.4 113.3 L 143.0 112.2 L 145.11941452026366 111.35223417282104 L 145.1 111.3 L 145.14847164154054 111.34061136245728 L 146.0 111.0 L 146.39369840621947 112.38390941619873 L 156.2 120.6 L 156.4 123.7 L 152.1724500656128 121.76740579605102 L 149.3 122.6 L 145.6 123.2 L 141.4 123.8 L 136.9 124.3 L 132.0 124.59399995803832 L 132.0 137.8 L 149.4 137.8 L 159.4 127.8 L 171.4 137.8 L 171.4 141.8 L 132.0 141.8 L 132.0 155.3 L 160.4 155.3 L 170.4 145.3 L 182.4 155.3 L 182.4 159.3 L 132.0 159.3 L 132.0 172.5 L 131.8 175.1 L 131.4 177.5 L 130.6 180.0 L 129.3 182.2 L 127.7 184.2 L 125.7 185.9 L 123.4 187.1 L 121.0 187.9 L 118.5 188.4 L 116.0 188.5 L 116.0 182.5 L 96.0 179.5 Z M 14.7 108.5 L 11.9 104.9 L 12.5 100.3 L 14.3 97.6 L 15.9 94.4 L 17.3 90.8 L 18.5 86.8 L 19.5 82.4 L 20.3 77.5 L 20.8 72.3 L 21.2 66.6 L 21.5 60.6 L 21.7 54.1 L 23.5 53.8 L 25.3 60.2 L 26.6 66.3 L 27.4 72.2 L 27.8 77.8 L 27.9 83.2 L 27.6 88.3 L 27.0 93.2 L 26.0 97.9 L 24.6 102.2 L 22.9 106.4 L 19.2 109.1 Z M 114.0 83.2 L 114.0 97.7 L 137.9 97.7 L 137.9 83.2 Z M 96.1 22.4 L 155.8 22.4 L 161.8 17.4 L 172.8 26.4 L 167.8 30.4 L 167.8 63.5 L 155.8 69.5 L 155.8 61.5 L 96.1 61.5 L 96.1 64.5 L 84.1 70.5 L 84.1 16.4 Z M 96.1 43.9 L 96.1 57.5 L 155.8 57.5 L 155.8 43.9 Z M 96.1 26.4 L 96.1 39.9 L 155.8 39.9 L 155.8 26.4 Z " />
</g>
</svg>
