<svg xmlns="http://www.w3.org/2000/svg" xmlns:xlink="http://www.w3.org/1999/xlink" version="1.1" baseProfile="full" viewBox="0 0 200 200" width="200" height="200">
<g fill="black">
<path d="M 33.7 116.9 L 33.0 127.3 L 32.0 137.1 L 30.6 146.2 L 28.9 154.7 L 26.7 162.6 L 24.1 169.7 L 21.1 176.1 L 17.7 181.7 L 13.7 186.4 L 12.2 185.5 L 14.3 179.9 L 16.2 174.0 L 17.9 167.7 L 19.3 160.7 L 20.5 153.2 L 21.4 145.0 L 22.0 136.2 L 22.3 126.8 L 22.3 116.8 L 22.0 106.1 L 22.065564727783205 106.09834709167481 L 22.0 106.0 L 22.0 25.0 L 33.1307692527771 30.565384578704833 L 34.4 30.2 L 40.8 28.4 L 46.9 26.7 L 52.9 25.0 L 58.7 23.2 L 64.3 21.3 L 69.7 19.3 L 74.9 17.2 L 79.9 15.1 L 83.81307592391968 13.224984455108643 L 83.8 13.2 L 83.82252531051635 13.220456600189209 L 84.7 12.8 L 85.53750562667847 14.777938747406006 L 93.6 22.1 L 93.8 25.2 L 90.05406827926636 23.619685077667235 L 89.4 23.9 L 84.0 25.7 L 78.4 27.4 L 72.7 28.9 L 66.8 30.2 L 60.7 31.4 L 55.46557378768921 32.244262313842775 L 60.0 33.0 L 63.0 35.0 L 60.0 36.8 L 60.0 183.0 L 48.0 189.0 L 48.0 33.21515150070191 L 41.6 33.7 L 34.9 34.0 L 34.0 33.9735294342041 L 34.0 106.0 L 33.89351854324341 106.15972223281861 Z M 163.5 142.5 L 162.2 144.6 L 160.6 146.5 L 158.7 148.2 L 156.6 149.6 L 154.3 150.6 L 151.9 151.3 L 149.5 151.7 L 146.9 151.8 L 146.9 145.8 L 126.9 142.8 L 126.9 139.8 L 148.2 139.8 L 149.3 139.6 L 150.2 139.3 L 150.9 139.0 L 151.4 138.7 L 151.9 138.2 L 152.4 137.6 L 152.9 136.8 L 153.3 135.9 L 153.8 134.6 L 154.5 131.6 L 155.1 128.0 L 155.7 123.8 L 156.2 119.0 L 156.6 113.7 L 156.9 107.8 L 157.2 101.4 L 157.3 94.5 L 157.3 81.0 L 138.36782608032226 81.0 L 137.7 90.6 L 136.0 101.2 L 133.5 111.0 L 130.2 119.9 L 126.1 128.0 L 121.3 135.0 L 115.6 141.1 L 109.3 146.0 L 102.3 149.8 L 101.39949579238892 150.1080672264099 L 104.1 153.7 L 116.0 163.3 L 129.4 169.6 L 144.2 173.2 L 160.4 174.6 L 177.7 174.4 L 189.2 174.0 L 178.2 187.5 L 159.7 187.1 L 142.1 184.8 L 125.5 179.9 L 110.4 171.8 L 97.2 160.0 L 86.5 144.0 L 78.4 123.6 L 73.2 98.2 L 70.9 67.1 L 72.0 29.9 L 73.8 30.0 L 75.1 66.9 L 79.0 97.2 L 85.3 121.4 L 93.8 140.0 L 99.2528486251831 147.25281810760498 L 100.4 146.5 L 106.0 141.8 L 110.9 136.5 L 115.1 130.6 L 118.6 124.0 L 121.6 116.6 L 123.8 108.4 L 125.4 99.4 L 126.3 89.6 L 126.46074762344361 81.0 L 110.3 81.0 L 110.3 77.0 L 157.3 77.0 L 163.3 72.0 L 174.3 81.0 L 169.3 84.0 L 169.3 94.7 L 169.2 101.8 L 168.9 108.4 L 168.6 114.5 L 168.2 120.1 L 167.6 125.2 L 167.0 129.8 L 166.2 134.0 L 165.3 137.8 L 164.5 140.2 Z M 128.6 32.4 L 131.1 35.0 L 127.49514379501343 36.17977113723755 L 126.7 38.9 L 124.4 45.1 L 121.7 51.1 L 118.8 56.9 L 115.5 62.5 L 111.9 67.9 L 108.0 72.9 L 103.7 77.7 L 99.0 82.1 L 94.0 86.2 L 92.7 84.9 L 96.2 79.6 L 99.5 74.4 L 102.6 69.2 L 105.5 63.9 L 108.1 58.5 L 110.4 53.0 L 112.4 47.4 L 114.2 41.6 L 115.7 35.8 L 116.70318908691407 30.700455570220946 L 116.7 30.7 L 116.72857141494751 30.57142858505249 L 116.9 29.7 L 116.92113819122315 29.704878044128417 L 117.3 28.0 Z M 170.5 73.3 L 167.0 68.3 L 163.9 62.9 L 161.2 57.2 L 158.8 51.1 L 156.9 44.8 L 155.4 38.2 L 154.4 31.2 L 154.13698625564575 24.8 L 126.2 24.8 L 126.2 20.8 L 144.7777777671814 20.8 L 151.0 13.8 L 159.0 20.8 L 159.0 24.8 L 156.37272729873658 24.8 L 158.5 30.2 L 161.1 36.5 L 163.7 42.3 L 166.5 47.8 L 169.4 52.9 L 172.6 57.5 L 175.9 61.8 L 179.5 65.7 L 183.2 69.2 L 187.1 72.3 L 189.5 74.3 L 178.6 82.4 L 174.4 78.0 Z " />
</g>
</svg>
