<svg xmlns="http://www.w3.org/2000/svg" xmlns:xlink="http://www.w3.org/1999/xlink" version="1.1" baseProfile="full" viewBox="0 0 200 200" width="200" height="200">
<g fill="black">
<path d="M 88.9 35.0 L 125.7 35.0 L 125.7 12.0 L 137.7 14.0 L 140.7 16.0 L 137.7 17.8 L 137.7 35.0 L 166.3 35.0 L 176.3 25.0 L 188.3 35.0 L 188.3 39.0 L 88.9 39.0 L 88.9 102.0 L 88.5 113.6 L 87.6 124.6 L 86.4 135.0 L 84.9 144.8 L 82.9 154.0 L 80.6 162.5 L 77.8 170.3 L 74.7 177.4 L 71.0 183.8 L 66.9 189.4 L 65.5 188.5 L 67.9 182.3 L 70.1 175.6 L 72.1 168.4 L 73.8 160.7 L 75.3 152.4 L 76.4 143.6 L 77.3 134.1 L 77.8 124.0 L 78.0 113.3 L 77.9 102.0 L 77.9 29.5 Z M 57.5 153.1 L 56.4 149.7 L 55.1 146.2 L 53.5 142.5 L 51.7 138.7 L 49.6 134.8 L 47.4 130.8 L 45.63817520141602 127.84013433456421 L 45.2 130.4 L 42.7 140.7 L 39.5 150.3 L 35.6 159.1 L 31.1 167.1 L 25.9 174.3 L 20.1 180.4 L 13.6 185.6 L 12.3 184.3 L 17.2 177.9 L 21.6 171.2 L 25.4 163.9 L 28.7 156.1 L 31.4 147.6 L 33.6 138.5 L 35.3 128.7 L 36.4 118.1 L 37.0 106.9 L 37.0 17.0 L 49.0 19.0 L 52.0 21.0 L 49.0 22.8 L 49.0 71.6625 L 49.9 70.2 L 52.3 66.6 L 54.5 63.1 L 56.6 59.8 L 58.6 56.6 L 60.5 53.6 L 62.2 50.8 L 63.29140748977661 48.9582498550415 L 63.2 48.9 L 63.71232872009277 48.24794521331787 L 63.8 48.1 L 63.817885398864746 48.11360034942627 L 64.3 47.5 L 73.4 55.4 L 74.6 58.8 L 70.54654960632324 58.38067750930786 L 68.8 60.2 L 63.6 65.4 L 60.7 68.2 L 57.7 71.1 L 54.5 74.1 L 51.1 77.2 L 49.0 78.95945949554444 L 49.0 95.0 L 48.3 107.5 L 47.1 119.3 L 46.37377109527588 123.54270544052125 L 47.5 124.5 L 51.2 127.8 L 54.6 131.3 L 57.7 134.8 L 60.5 138.3 L 63.0 141.9 L 65.3 145.5 L 67.3 149.1 L 69.0 152.8 L 70.5 156.5 L 69.8 161.0 L 66.2 163.9 L 61.7 163.2 L 58.9 159.6 L 58.3 156.4 Z M 91.9 145.3 L 91.7 140.7 L 94.7 137.3 L 95.8 137.1 L 97.0 136.8 L 98.2 136.2 L 99.4 135.4 L 100.7 134.3 L 101.9 132.9 L 103.0 131.2 L 104.1 129.1 L 105.2 126.7 L 105.6 124.0 L 107.4 124.1 L 107.4 126.9 L 107.7 129.7 L 107.8 132.4 L 107.6 135.0 L 107.1 137.5 L 106.3 139.9 L 105.2 142.2 L 103.8 144.4 L 102.0 146.4 L 99.9 148.1 L 95.3 148.3 Z M 176.0 140.3 L 175.6 138.8 L 175.0 137.1 L 174.1 135.2 L 173.0 133.3 L 171.6 131.3 L 170.1 129.1 L 168.3 126.8 L 166.0 124.8 L 167.0 123.4 L 169.7 125.0 L 172.4 126.2 L 175.0 127.5 L 177.3 128.9 L 179.5 130.4 L 181.5 131.9 L 183.3 133.6 L 184.9 135.3 L 186.4 137.2 L 187.6 139.3 L 187.2 143.9 L 183.7 146.8 L 179.1 146.4 L 176.2 142.9 L 176.2 141.7 Z M 149.1 138.7 L 149.1 137.4 L 148.9 136.0 L 148.5 134.5 L 147.9 132.8 L 147.1 131.0 L 146.1 129.1 L 144.9 127.0 L 143.2 125.4 L 144.3 123.9 L 146.3 125.4 L 148.6 126.5 L 150.7 127.7 L 152.6 129.0 L 154.4 130.3 L 156.0 131.9 L 157.4 133.5 L 158.7 135.3 L 159.7 137.2 L 160.5 139.3 L 159.2 143.7 L 155.2 145.9 L 150.8 144.6 L 148.6 140.6 L 148.9 139.7 Z M 145.0 143.7 L 148.0 145.7 L 145.0 147.5 L 145.0 157.3 L 158.5 157.3 L 168.5 147.3 L 180.5 157.3 L 180.5 161.3 L 145.0 161.3 L 145.0 180.2 L 165.9 180.2 L 175.9 170.2 L 187.9 180.2 L 187.9 184.2 L 90.0 184.2 L 90.0 180.2 L 133.0 180.2 L 133.0 161.3 L 97.4 161.3 L 97.4 157.3 L 133.0 157.3 L 133.0 143.1454545021057 L 132.2 144.6 L 127.8 145.9 L 123.8 143.7 L 122.5 139.3 L 123.0 138.5 L 123.4 137.5 L 123.8 136.4 L 124.0 135.2 L 124.0 133.8 L 123.9 132.3 L 123.6 130.7 L 123.2 128.9 L 122.6 127.0 L 121.3 125.4 L 122.6 124.1 L 124.2 125.7 L 126.0 126.8 L 127.6 128.1 L 129.1 129.5 L 130.5 131.1 L 131.7 132.7 L 132.7 134.5 L 133.5 136.4 L 134.1 138.5 L 134.4 140.6 L 133.72824430465698 141.8213740348816 Z M 91.1 114.7 L 133.0 114.7 L 133.0 102.4 L 99.7 102.4 L 99.7 98.4 L 133.0 98.4 L 133.0 85.6 L 111.4 85.6 L 100.4 91.1 L 100.4 44.8 L 111.4 50.3 L 166.0 50.3 L 172.0 45.3 L 183.0 54.3 L 178.0 58.3 L 178.0 85.6 L 168.98571424484254 90.10714282989503 L 178.2 98.4 L 178.2 102.4 L 145.0 102.4 L 145.0 114.7 L 168.61818180084228 114.7 L 176.8 105.7 L 186.8 114.7 L 186.8 118.7 L 91.1 118.7 Z M 16.0 108.6 L 13.2 105.0 L 13.6 100.4 L 15.3 97.6 L 16.9 94.5 L 18.2 90.9 L 19.4 86.8 L 20.4 82.4 L 21.1 77.5 L 21.7 72.3 L 22.1 66.6 L 22.4 60.6 L 22.7 54.1 L 24.5 53.8 L 26.2 60.2 L 27.5 66.3 L 28.3 72.2 L 28.7 77.8 L 28.8 83.2 L 28.6 88.3 L 28.0 93.2 L 27.1 97.8 L 25.8 102.1 L 24.2 106.2 L 20.5 109.0 Z M 145.0 85.6 L 145.0 98.4 L 160.01818180084229 98.4 L 166.36666669845582 91.41666669845581 L 166.0 91.6 L 166.0 85.6 Z M 111.4 54.3 L 111.4 81.6 L 133.0 81.6 L 133.0 54.3 Z M 145.0 54.3 L 145.0 81.6 L 166.0 81.6 L 166.0 64.56491231918335 L 162.42147397994995 65.3810673713684 L 161.5 66.5 L 158.2 69.8 L 156.3 71.4 L 154.3 73.0 L 152.1 74.6 L 149.7 76.1 L 147.6 78.1 L 146.3 76.8 L 148.1 74.6 L 149.3 72.1 L 150.4 69.8 L 151.4 67.6 L 152.3 65.6 L 153.0 63.6 L 153.5 61.9 L 153.8 60.2 L 154.0 58.8 L 154.0 58.57435894012451 L 153.7 58.5 L 154.0 57.5625 L 154.0 57.5 L 154.01802654266356 57.506167030334474 L 154.5 56.0 L 165.4 61.4 L 166.0 62.16363639831543 L 166.0 54.3 Z M 120.5 70.8 L 120.4 69.6 L 120.1 68.2 L 119.7 66.8 L 119.1 65.2 L 118.4 63.7 L 117.4 62.0 L 116.4 60.2 L 114.8 58.9 L 115.8 57.4 L 117.6 58.6 L 119.7 59.3 L 121.6 60.2 L 123.5 61.2 L 125.2 62.3 L 126.8 63.5 L 128.3 64.9 L 129.7 66.4 L 130.9 68.1 L 132.0 69.9 L 131.4 74.4 L 127.8 77.3 L 123.3 76.7 L 120.4 73.1 L 120.5 72.0 Z " />
</g>
</svg>
