<svg xmlns="http://www.w3.org/2000/svg" xmlns:xlink="http://www.w3.org/1999/xlink" version="1.1" baseProfile="full" viewBox="0 0 200 200" width="200" height="200">
<g fill="black">
<path d="M 138.3 179.1 L 124.4 171.3 L 112.3 161.9 L 101.9 150.7 L 97.82903356552124 144.688224029541 L 92.2 152.4 L 80.4 164.1 L 66.8 173.9 L 51.6 181.6 L 34.6 187.3 L 16.1 190.8 L 15.8 189.1 L 33.5 183.6 L 49.3 176.8 L 63.2 168.4 L 75.3 158.5 L 85.6 147.0 L 92.54740171432495 136.41732997894286 L 86.5 123.7 L 81.5 107.9 L 78.3 90.7 L 77.1 72.0 L 78.9 71.9 L 82.5 90.0 L 87.2 106.3 L 93.1 120.8 L 97.09904012680053 127.81201562881469 L 101.2 119.2 L 106.4 102.8 L 110.0 84.6 L 111.805011844635 65.59987573623657 L 111.8 65.6 L 112.0 62.3 L 123.9 65.3 L 126.7 67.5 L 123.39455738067628 69.24994020462036 L 121.2 86.4 L 116.8 105.6 L 110.4 123.1 L 103.06959762573243 137.0456435203552 L 109.0 144.7 L 119.0 154.1 L 123.85609302520751 157.49496774673463 L 126.3 155.8 L 132.2 151.6 L 138.0 147.2 L 143.6 142.8 L 148.43548469543458 138.51192865371704 L 145.4 135.9 L 141.0 132.3 L 136.4 128.7 L 131.7 125.0 L 126.8 121.1 L 127.7 119.5 L 133.6 121.7 L 139.2 124.1 L 144.6 126.8 L 149.8 129.7 L 154.66937046051027 132.71900968551637 L 159.0 128.3 L 163.7 123.1 L 168.1 117.7 L 172.25952377319337 112.282945728302 L 171.9 112.4 L 167.7 110.5 L 164.5 106.6 L 161.1 102.8 L 157.5 99.0 L 154.73494348526 96.30770807266235 L 154.2 96.7 L 148.0 100.8 L 141.6 104.6 L 135.0 108.0 L 128.1 111.0 L 120.9 113.5 L 120.1 111.9 L 126.3 107.6 L 132.2 103.4 L 138.0 99.1 L 143.6 94.7 L 148.47337465286256 90.54860677719117 L 145.5 88.0 L 136.5 80.8 L 131.7 77.1 L 126.8 73.3 L 127.7 71.7 L 133.6 73.8 L 139.2 76.2 L 144.6 78.9 L 149.8 81.7 L 154.66937046051027 84.71900968551635 L 159.0 80.3 L 163.7 75.2 L 168.2 69.9 L 172.4 64.3 L 172.4095335006714 64.30760650634765 L 172.8 63.8 L 181.8 71.8 L 182.9 75.2 L 179.11914005279542 74.74368934631347 L 176.7 77.4 L 171.4 82.6 L 165.9 87.6 L 162.64466981887819 90.28421964645386 L 164.2 91.4 L 168.5 95.0 L 172.7 98.7 L 176.7 102.5 L 178.1 106.9 L 176.2 111.0 L 173.21744680404663 111.97106380462647 L 181.8 119.6 L 182.9 123.0 L 179.11914005279542 122.54368934631347 L 176.7 125.2 L 171.4 130.5 L 165.9 135.6 L 162.60234146118165 138.3191219329834 L 164.2 139.5 L 168.6 143.1 L 172.7 146.9 L 176.7 150.7 L 178.2 155.1 L 176.2 159.2 L 171.9 160.6 L 167.7 158.7 L 164.5 154.7 L 161.1 150.9 L 157.5 147.0 L 154.7877862930298 144.35916032791138 L 154.2 144.8 L 148.0 148.9 L 141.6 152.7 L 135.0 156.2 L 128.1 159.2 L 126.89393863677978 159.61877126693724 L 130.3 162.0 L 143.1 168.3 L 157.3 173.1 L 173.1 176.4 L 182.6 178.1 L 170.8 189.5 L 153.8 185.1 Z M 17.0 154.9 L 21.8 153.9 L 26.8 152.8 L 32.1 151.7 L 36.4 150.7618182182312 L 36.4 89.7 L 18.5 89.7 L 18.5 85.7 L 49.5 85.7 L 59.5 75.7 L 71.5 85.7 L 71.5 89.7 L 48.4 89.7 L 48.4 148.23442621231078 L 49.5 148.0 L 55.8 146.7 L 62.3 145.4 L 69.2 144.2 L 76.4 143.1 L 76.9 144.8 L 70.3 147.8 L 63.8 150.5 L 57.6 153.0 L 51.6 155.3 L 45.8 157.4 L 40.2 159.4 L 34.8 161.4 L 29.7 163.2 L 24.8 164.9 L 24.159016418457032 165.12295083999635 L 22.9 168.9 L 20.2 166.5 L 15.1 155.5 Z M 38.0 20.3 L 78.0 20.3 L 84.0 15.3 L 95.0 24.3 L 90.0 28.3 L 90.0 53.2 L 78.0 59.2 L 78.0 51.2 L 38.0 51.2 L 38.0 58.2 L 26.0 64.2 L 26.0 14.3 Z M 122.0 20.3 L 162.0 20.3 L 168.0 15.3 L 179.0 24.3 L 174.0 28.3 L 174.0 51.2 L 162.0 57.2 L 162.0 51.2 L 122.0 51.2 L 110.0 57.2 L 110.0 14.3 Z M 122.0 24.3 L 122.0 47.2 L 162.0 47.2 L 162.0 24.3 Z M 38.0 24.3 L 38.0 47.2 L 78.0 47.2 L 78.0 24.3 Z " />
</g>
</svg>
