<svg xmlns="http://www.w3.org/2000/svg" xmlns:xlink="http://www.w3.org/1999/xlink" version="1.1" baseProfile="full" viewBox="0 0 200 200" width="200" height="200">
<g fill="black">
<path d="M 174.2 79.5 L 174.2 83.5 L 137.0 83.5 L 137.0 122.8 L 161.4 122.8 L 171.4 112.8 L 183.4 122.8 L 183.4 126.8 L 137.0 126.8 L 137.0 183.6 L 125.0 189.6 L 125.0 126.8 L 78.5 126.8 L 78.5 122.8 L 125.0 122.8 L 125.0 83.5 L 87.7 83.5 L 87.7 79.5 L 152.2 79.5 L 162.2 69.5 Z M 15.6 112.0 L 15.6 108.0 L 58.0 108.0 L 58.0 74.0 L 35.6 74.0 L 35.6 86.0 L 23.6 92.0 L 23.6 23.0 L 35.6 25.0 L 38.6 27.0 L 35.6 28.8 L 35.6 70.0 L 58.0 70.0 L 58.0 12.0 L 70.0 14.0 L 73.0 16.0 L 70.0 17.8 L 70.0 182.0 L 58.0 188.0 L 58.0 112.0 L 40.2 112.0 L 40.2 126.0 L 39.7 133.7 L 38.8 141.2 L 37.4 148.3 L 35.6 155.2 L 33.4 161.7 L 30.7 167.9 L 27.6 173.7 L 24.0 179.1 L 20.0 184.1 L 15.4 188.5 L 14.0 187.4 L 16.8 181.9 L 19.4 176.4 L 21.7 170.9 L 23.7 165.1 L 25.3 159.2 L 26.6 153.0 L 27.5 146.6 L 28.1 140.0 L 28.3 133.1 L 28.2 126.0 L 28.2 112.0 Z M 155.2 14.1 L 158.2 16.1 L 155.2 17.9 L 155.2 37.3 L 165.5 37.3 L 175.5 27.3 L 187.5 37.3 L 187.5 41.3 L 155.2 41.3 L 155.2 61.6 L 143.2 67.6 L 143.2 41.3 L 118.8 41.3 L 118.8 61.6 L 106.8 67.6 L 106.8 41.3 L 74.4 41.3 L 74.4 37.3 L 106.8 37.3 L 106.8 12.1 L 118.8 14.1 L 121.8 16.1 L 118.8 17.9 L 118.8 37.3 L 143.2 37.3 L 143.2 12.1 Z " />
</g>
</svg>
