<svg xmlns="http://www.w3.org/2000/svg" xmlns:xlink="http://www.w3.org/1999/xlink" version="1.1" baseProfile="full" viewBox="0 0 200 200" width="200" height="200">
<g fill="black">
<path d="M 172.5 121.0 L 167.5 124.0 L 164.9945544242859 125.04393568038941 L 145.5 182.7 L 132.2 184.4 L 154.39969415664672 121.0 L 87.2 121.0 L 87.2 117.0 L 155.5 117.0 L 161.5 112.0 Z M 163.8 88.7 L 157.5 82.7 L 151.5 76.1 L 145.8 68.9 L 140.5 61.0 L 135.4 52.6 L 130.8 43.5 L 126.5 33.7 L 125.77406978607178 31.639927673339844 L 122.2 39.9 L 117.3 50.0 L 112.0 59.6 L 106.2 68.9 L 100.1 77.7 L 93.5 86.2 L 86.5 94.2 L 79.0 101.7 L 74.50762281417846 105.57467536926269 L 75.1 105.4 L 83.2 103.1 L 83.9 104.8 L 76.6 108.9 L 69.4 112.7 L 62.3 116.2 L 59.0 117.85 L 59.0 183.0 L 47.0 189.0 L 47.0 123.671875 L 42.4 125.9 L 36.2 128.8 L 30.2 131.7 L 24.4 134.5 L 22.53643407821655 135.36522703170778 L 21.8 139.1 L 18.8 137.1 L 12.3 126.8 L 14.2 126.0 L 20.0 123.9 L 26.1 121.8 L 32.3 119.6 L 38.9 117.3 L 45.6 114.9 L 47.0 114.41999998092652 L 47.0 66.0 L 30.21578950881958 66.0 L 29.0 70.2 L 26.6 77.6 L 23.9 84.8 L 20.9 91.6 L 17.5 98.2 L 13.8 104.3 L 12.2 103.6 L 15.8 89.8 L 17.6 82.8 L 19.3 75.6 L 20.8 68.2 L 22.1 60.6 L 23.2 52.9 L 24.2 44.9 L 25.0 36.7 L 25.527694320678712 29.400228881835936 L 25.5 29.4 L 25.8 26.2 L 37.6 29.5 L 40.4 31.8 L 37.01065435409546 33.39874792098999 L 36.3 38.1 L 34.8 46.5 L 33.1 54.7 L 31.344303798675536 62.0 L 47.0 62.0 L 47.0 13.0 L 59.0 15.0 L 62.0 17.0 L 59.0 18.8 L 59.0 62.0 L 63.3 62.0 L 73.3 52.0 L 85.3 62.0 L 85.3 66.0 L 59.0 66.0 L 59.0 110.36666669845582 L 59.8 110.1 L 67.3 107.7 L 70.01830234527588 106.89844932556153 L 76.2 99.1 L 82.3 90.8 L 88.2 82.3 L 93.8 73.5 L 99.0 64.5 L 103.8 55.2 L 108.3 45.6 L 112.3 35.7 L 116.1 25.5 L 119.4 15.0 L 119.41807231903076 15.006024074554443 L 119.9 13.5 L 130.8 18.8 L 133.1 21.6 L 129.4041142463684 22.442921352386474 L 127.48611640930176 27.448427963256837 L 130.2 31.8 L 135.9 40.6 L 141.5 48.7 L 147.3 56.2 L 153.1 63.0 L 159.0 69.1 L 165.0 74.6 L 171.2 79.5 L 177.4 83.6 L 183.8 87.2 L 188.5 89.9 L 177.3 98.7 L 170.4 94.0 Z M 152.5 87.0 L 152.5 91.0 L 99.6 91.0 L 99.6 87.0 L 130.5 87.0 L 140.5 77.0 Z " />
</g>
</svg>
