<svg xmlns="http://www.w3.org/2000/svg" xmlns:xlink="http://www.w3.org/1999/xlink" version="1.1" baseProfile="full" viewBox="0 0 200 200" width="200" height="200">
<g fill="black">
<path d="M 14.9 126.0 L 21.7 123.9 L 28.9 121.7 L 36.2 119.5 L 43.9 117.2 L 51.8 114.9 L 54.0 114.25609760284424 L 54.0 66.0 L 32.42857141494751 66.0 L 31.0 70.4 L 28.2 77.8 L 25.1 84.9 L 21.7 91.8 L 17.9 98.3 L 13.7 104.4 L 12.2 103.5 L 16.8 89.7 L 19.0 82.6 L 21.0 75.4 L 22.8 68.0 L 24.5 60.5 L 25.9 52.7 L 27.1 44.8 L 28.1 36.6 L 28.8036057472229 29.3000901222229 L 28.8 29.3 L 29.1 26.2 L 40.8 29.6 L 43.6 31.9 L 40.174701023101804 33.485786533355714 L 39.4 38.3 L 37.7 46.7 L 35.7 54.8 L 33.694936752319336 62.0 L 54.0 62.0 L 54.0 13.0 L 66.0 15.0 L 69.0 17.0 L 66.0 18.8 L 66.0 62.0 L 76.0 62.0 L 86.0 52.0 L 98.0 62.0 L 98.0 66.0 L 66.0 66.0 L 66.0 110.78571424484252 L 68.4 110.1 L 77.2 107.6 L 86.3 105.3 L 95.7 103.1 L 96.2 104.8 L 87.5 108.9 L 79.0 112.7 L 70.6 116.3 L 66.0 118.1740740776062 L 66.0 183.0 L 54.0 189.0 L 54.0 123.1415584564209 L 46.9 126.0 L 39.6 129.0 L 32.4 131.8 L 25.5 134.6 L 22.686157131195067 135.75111751556398 L 21.8 139.4 L 18.9 137.3 L 13.0 126.6 Z M 161.0 170.7 L 155.2 163.1 L 149.9 154.6 L 145.3 145.4 L 141.4 135.3 L 138.3 124.4 L 136.1 112.7 L 135.57863159179686 106.77535943984985 L 132.1 120.4 L 127.2 133.5 L 120.9 145.5 L 113.3 156.4 L 104.5 166.1 L 94.3 174.6 L 82.9 181.9 L 70.3 187.8 L 69.6 186.1 L 80.9 178.6 L 90.9 170.5 L 99.7 161.6 L 107.2 151.9 L 113.5 141.4 L 118.6 130.0 L 122.5 117.7 L 125.1 104.4 L 126.6 90.2 L 127.0 75.0 L 127.0 62.0 L 113.98481016159057 62.0 L 112.8 64.6 L 108.9 72.5 L 104.6 80.5 L 99.9 88.4 L 94.7 96.4 L 93.2 95.5 L 96.5 86.8 L 99.8 78.2 L 102.9 69.9 L 105.8 61.7 L 108.4 53.7 L 110.8 45.8 L 113.0 38.1 L 114.9 30.5 L 116.5 23.0 L 117.70802516937256 16.70101156234741 L 117.7 16.7 L 117.77826089859009 16.334782600402832 L 117.9 15.7 L 117.91366024017334 15.702918815612794 L 118.3 13.9 L 129.6 18.2 L 132.1 20.7 L 128.61201601028444 21.904939937591553 L 127.6 25.7 L 125.2 33.4 L 122.6 41.1 L 119.6 48.9 L 116.4 56.7 L 115.80759496688843 58.0 L 168.0 58.0 L 174.0 53.0 L 185.0 62.0 L 180.0 65.0 L 177.25333337783815 66.1444444656372 L 175.9 68.4 L 174.1 71.2 L 172.0 74.3 L 169.6 77.7 L 166.8 81.4 L 163.8 85.4 L 160.3 89.7 L 156.7 94.4 L 155.2 93.5 L 157.7 88.1 L 159.8 83.1 L 161.7 78.5 L 163.5 74.3 L 164.9 70.6 L 166.1 67.2 L 167.1 64.3 L 167.675 62.0 L 139.0 62.0 L 139.0 75.0 L 138.0 91.1 L 137.81960067749023 92.29220409393311 L 139.1 99.8 L 141.9 111.6 L 145.2 122.4 L 149.2 132.3 L 153.6 141.3 L 158.6 149.3 L 164.0 156.4 L 169.7 162.7 L 175.7 168.1 L 181.8 172.6 L 185.0 174.9 L 174.1 183.3 L 167.3 177.4 Z " />
</g>
</svg>
