<svg xmlns="http://www.w3.org/2000/svg" xmlns:xlink="http://www.w3.org/1999/xlink" version="1.1" baseProfile="full" viewBox="0 0 200 200" width="200" height="200">
<g fill="black">
<path d="M 14.3 126.0 L 20.1 123.9 L 26.2 121.8 L 32.5 119.6 L 39.1 117.3 L 45.9 114.9 L 47.3 114.41999998092652 L 47.3 66.0 L 30.31578950881958 66.0 L 29.1 70.2 L 26.7 77.6 L 24.0 84.8 L 21.0 91.6 L 17.6 98.2 L 13.9 104.3 L 12.2 103.6 L 14.1 96.7 L 15.9 89.8 L 17.7 82.7 L 19.4 75.5 L 20.9 68.2 L 22.2 60.6 L 23.4 52.9 L 24.4 44.9 L 25.2 36.7 L 25.72769432067871 29.400228881835936 L 25.7 29.4 L 26.0 26.2 L 37.8 29.5 L 40.5 31.8 L 37.213479614257814 33.380057907104494 L 36.5 38.1 L 35.0 46.5 L 33.3 54.7 L 31.451898765563964 62.0 L 47.3 62.0 L 47.3 13.0 L 59.3 15.0 L 62.3 17.0 L 59.3 18.8 L 59.3 62.0 L 63.7 62.0 L 73.7 52.0 L 85.7 62.0 L 85.7 66.0 L 59.3 66.0 L 59.3 110.39589042663575 L 60.2 110.1 L 67.7 107.7 L 75.6 105.3 L 83.7 103.1 L 84.4 104.8 L 77.0 108.9 L 69.8 112.7 L 62.7 116.2 L 59.3 117.87536230087281 L 59.3 183.0 L 47.3 189.0 L 47.3 123.65846157073975 L 42.6 125.9 L 36.4 128.8 L 30.3 131.7 L 24.5 134.5 L 22.54131269454956 135.39343633651734 L 21.8 139.1 L 18.8 137.1 L 12.4 126.8 Z M 150.6 175.8 L 160.6 175.8 L 161.8 175.7 L 162.7 175.5 L 163.3 175.4 L 163.7 175.2 L 163.9 175.0 L 164.0 174.8 L 164.2 174.5 L 164.4 173.9 L 164.5 173.0 L 164.6 171.8 L 164.6 133.3 L 138.8 133.3 L 138.8 180.8 L 126.8 186.8 L 126.8 133.3 L 101.0 133.3 L 101.0 182.8 L 89.0 188.8 L 89.0 64.7 L 101.0 70.7 L 126.8 70.7 L 126.8 46.4 L 81.8 46.4 L 81.8 42.4 L 126.8 42.4 L 126.8 11.1 L 138.8 13.1 L 141.8 15.1 L 138.8 16.9 L 138.8 42.4 L 169.4181818008423 42.4 L 177.6 33.4 L 187.6 42.4 L 187.6 46.4 L 138.8 46.4 L 138.8 70.7 L 164.6 70.7 L 170.6 65.7 L 181.6 74.7 L 176.6 78.7 L 176.6 171.8 L 176.5 174.3 L 176.0 176.8 L 175.2 179.2 L 174.0 181.5 L 172.3 183.5 L 170.3 185.2 L 168.1 186.4 L 165.7 187.2 L 163.2 187.6 L 160.6 187.8 L 160.6 181.8 L 150.6 178.8 Z M 101.0 104.0 L 101.0 129.3 L 126.8 129.3 L 126.8 104.0 Z M 138.8 104.0 L 138.8 129.3 L 164.6 129.3 L 164.6 104.0 Z M 101.0 74.7 L 101.0 100.0 L 126.8 100.0 L 126.8 74.7 Z M 138.8 74.7 L 138.8 100.0 L 164.6 100.0 L 164.6 74.7 Z M 158.9 28.8 L 157.7 26.8 L 156.4 24.9 L 153.4 21.3 L 151.7 19.6 L 149.9 18.0 L 148.0 16.4 L 145.8 15.3 L 146.3 13.5 L 148.9 14.1 L 151.6 14.4 L 154.3 15.1 L 156.9 16.0 L 159.4 17.2 L 161.9 18.6 L 164.4 20.2 L 166.7 22.1 L 168.9 24.2 L 171.1 26.5 L 171.9 31.0 L 169.4 34.8 L 164.9 35.6 L 161.1 33.1 L 160.1 30.9 Z " />
</g>
</svg>
