<svg xmlns="http://www.w3.org/2000/svg" xmlns:xlink="http://www.w3.org/1999/xlink" version="1.1" baseProfile="full" viewBox="0 0 200 200" width="200" height="200">
<g fill="black">
<path d="M 121.6 177.0 L 141.6 177.0 L 142.8 176.9 L 143.7 176.7 L 144.6 176.4 L 145.0 176.0 L 145.2 175.7 L 145.4 175.1 L 145.5 174.2 L 145.6 173.0 L 145.6 140.0 L 77.4 140.0 L 77.4 136.0 L 145.6 136.0 L 145.6 120.0 L 157.6 122.0 L 160.6 124.0 L 157.6 125.8 L 157.6 136.0 L 165.1 136.0 L 175.1 126.0 L 187.1 136.0 L 187.1 140.0 L 157.6 140.0 L 157.6 173.0 L 157.4 175.5 L 157.0 178.0 L 156.2 180.4 L 155.0 182.7 L 153.3 184.7 L 151.3 186.3 L 149.0 187.6 L 146.6 188.4 L 144.1 188.8 L 141.6 189.0 L 141.6 183.0 L 121.6 180.0 Z M 13.5 126.0 L 19.1 124.0 L 24.9 121.8 L 31.0 119.6 L 37.2 117.3 L 43.7 115.0 L 44.9 114.57014923095703 L 44.9 66.0 L 29.245454502105712 66.0 L 28.1 70.2 L 25.7 77.6 L 23.1 84.7 L 20.2 91.6 L 17.0 98.1 L 13.4 104.3 L 11.7 103.6 L 13.4 96.8 L 15.2 89.8 L 16.8 82.8 L 18.4 75.6 L 19.8 68.2 L 21.1 60.7 L 22.2 52.9 L 23.1 44.9 L 23.8 36.8 L 24.328554534912108 29.40023603439331 L 24.3 29.4 L 24.6 26.2 L 36.4 29.5 L 39.2 31.8 L 35.81065435409546 33.39874792098999 L 35.1 38.1 L 33.7 46.5 L 32.0 54.6 L 30.313924026489257 62.0 L 44.9 62.0 L 44.9 13.0 L 56.9 15.0 L 59.9 17.0 L 56.9 18.8 L 56.9 62.0 L 59.8 62.0 L 69.8 52.0 L 81.8 62.0 L 81.8 66.0 L 56.9 66.0 L 56.9 110.2785714149475 L 57.4 110.1 L 64.6 107.7 L 72.1 105.4 L 79.8 103.1 L 80.5 104.8 L 73.5 108.9 L 66.7 112.6 L 60.0 116.2 L 56.9 117.75 L 56.9 183.0 L 44.9 189.0 L 44.9 123.76721315383911 L 40.9 125.8 L 34.9 128.8 L 29.2 131.7 L 23.6 134.4 L 21.992291927337646 135.21902112960817 L 21.3 139.0 L 18.3 137.1 L 11.7 126.8 Z M 108.7 165.5 L 107.4 163.2 L 106.0 160.8 L 104.2 158.5 L 102.3 156.1 L 100.0 153.6 L 97.6 151.1 L 94.9 148.5 L 91.8 146.2 L 92.7 144.6 L 96.3 146.2 L 99.9 147.6 L 103.3 149.2 L 106.5 150.9 L 109.5 152.8 L 112.2 154.9 L 114.8 157.1 L 117.1 159.4 L 119.3 161.9 L 121.2 164.6 L 121.5 169.1 L 118.5 172.6 L 114.0 172.9 L 110.5 170.0 L 109.7 167.7 Z M 137.2 17.0 L 140.2 19.0 L 137.2 20.8 L 137.2 40.0 L 167.8181818008423 40.0 L 176.0 31.0 L 186.0 40.0 L 186.0 44.0 L 137.2 44.0 L 137.2 59.0 L 162.8 59.0 L 168.8 54.0 L 179.8 63.0 L 174.8 67.0 L 174.8 117.0 L 162.8 123.0 L 162.8 104.0 L 137.2 104.0 L 137.2 118.0 L 125.2 124.0 L 125.2 104.0 L 99.5 104.0 L 99.5 122.0 L 87.5 128.0 L 87.5 53.0 L 99.5 59.0 L 125.2 59.0 L 125.2 44.0 L 77.4 44.0 L 77.4 40.0 L 125.2 40.0 L 125.2 15.0 Z M 99.5 83.0 L 99.5 100.0 L 125.2 100.0 L 125.2 83.0 Z M 137.2 83.0 L 137.2 100.0 L 162.8 100.0 L 162.8 83.0 Z M 99.5 63.0 L 99.5 79.0 L 125.2 79.0 L 125.2 63.0 Z M 137.2 63.0 L 137.2 79.0 L 162.8 79.0 L 162.8 63.0 Z M 155.4 28.2 L 154.5 26.7 L 153.5 25.2 L 152.3 23.7 L 150.9 22.1 L 149.3 20.6 L 147.6 19.0 L 145.8 17.3 L 143.6 16.2 L 144.2 14.5 L 146.7 15.2 L 149.3 15.6 L 151.7 16.2 L 154.1 16.9 L 156.4 17.7 L 158.6 18.7 L 160.7 19.8 L 162.7 21.0 L 164.6 22.4 L 166.4 23.9 L 167.5 28.4 L 165.2 32.3 L 160.8 33.4 L 156.8 31.2 L 156.2 29.7 Z " />
</g>
</svg>
