<svg xmlns="http://www.w3.org/2000/svg" xmlns:xlink="http://www.w3.org/1999/xlink" version="1.1" baseProfile="full" viewBox="0 0 200 200" width="200" height="200">
<g fill="black">
<path d="M 14.3 126.0 L 20.1 123.9 L 26.2 121.8 L 32.5 119.6 L 39.1 117.3 L 45.9 114.9 L 47.3 114.41999998092652 L 47.3 66.0 L 30.31578950881958 66.0 L 29.1 70.2 L 26.7 77.6 L 24.0 84.8 L 21.0 91.6 L 17.6 98.2 L 13.9 104.3 L 12.2 103.6 L 14.1 96.7 L 15.9 89.8 L 17.7 82.7 L 19.4 75.5 L 20.9 68.2 L 22.2 60.6 L 23.4 52.9 L 24.4 44.9 L 25.2 36.7 L 25.72769432067871 29.400228881835936 L 25.7 29.4 L 26.0 26.2 L 37.8 29.5 L 40.5 31.8 L 37.213479614257814 33.380057907104494 L 36.5 38.1 L 35.0 46.5 L 33.3 54.7 L 31.451898765563964 62.0 L 47.3 62.0 L 47.3 13.0 L 59.3 15.0 L 62.3 17.0 L 59.3 18.8 L 59.3 62.0 L 63.7 62.0 L 73.7 52.0 L 85.7 62.0 L 85.7 66.0 L 59.3 66.0 L 59.3 110.39589042663575 L 60.2 110.1 L 67.7 107.7 L 75.6 105.3 L 83.7 103.1 L 84.4 104.8 L 77.0 108.9 L 69.8 112.7 L 62.7 116.2 L 59.3 117.87536230087281 L 59.3 183.0 L 47.3 189.0 L 47.3 123.65846157073975 L 42.6 125.9 L 36.4 128.8 L 30.3 131.7 L 24.5 134.5 L 22.54131269454956 135.39343633651734 L 21.8 139.1 L 18.8 137.1 L 12.4 126.8 Z M 105.5 177.0 L 121.5 177.0 L 122.7 176.9 L 123.6 176.7 L 124.5 176.4 L 124.9 176.0 L 125.1 175.7 L 125.2 175.1 L 125.4 174.2 L 125.5 173.0 L 125.5 120.0 L 85.7 120.0 L 85.7 116.0 L 125.5 116.0 L 125.5 87.0 L 102.4 87.0 L 102.4 83.0 L 137.6 83.0 L 147.6 73.0 L 159.6 83.0 L 159.6 87.0 L 137.5 87.0 L 137.5 116.0 L 157.0 116.0 L 167.0 106.0 L 179.0 116.0 L 179.0 120.0 L 137.5 120.0 L 137.5 173.0 L 137.3 175.5 L 136.9 178.0 L 136.1 180.4 L 134.9 182.7 L 133.2 184.7 L 131.2 186.3 L 128.9 187.6 L 126.5 188.4 L 124.0 188.8 L 121.5 189.0 L 121.5 183.0 L 105.5 180.0 Z M 112.8 139.4 L 114.7 142.4 L 110.90123100280762 142.85847215652467 L 110.0 144.5 L 107.1 149.5 L 104.0 154.4 L 100.8 159.1 L 97.5 163.7 L 94.1 168.1 L 90.5 172.3 L 86.7 176.4 L 82.7 180.1 L 78.5 183.5 L 77.1 182.4 L 79.8 177.7 L 85.2 168.5 L 90.4 159.1 L 92.9 154.4 L 95.3 149.5 L 97.6 144.6 L 101.42561798095703 135.3092134475708 L 101.4 135.3 L 101.61739130020142 134.84347829818725 L 101.8 134.4 L 101.82348756790161 134.4106761932373 L 102.4 133.2 Z M 166.1 167.3 L 164.4 163.1 L 162.6 159.0 L 160.5 155.0 L 158.2 151.0 L 155.8 147.1 L 153.2 143.2 L 150.4 139.2 L 147.5 135.3 L 148.7 133.9 L 152.9 136.6 L 157.0 139.6 L 160.7 143.0 L 164.2 146.5 L 167.5 150.3 L 170.5 154.3 L 173.3 158.5 L 175.8 162.9 L 178.1 167.5 L 180.2 172.2 L 179.8 176.7 L 176.4 179.8 L 171.9 179.4 L 168.8 176.0 L 167.6 171.6 Z M 163.7 79.7 L 158.9 74.5 L 154.3 68.6 L 149.7 62.3 L 145.2 55.3 L 140.7 47.8 L 136.4 39.6 L 132.68251361846924 31.62100496292114 L 129.8 38.3 L 125.3 47.3 L 120.5 55.7 L 115.4 63.5 L 109.9 70.7 L 104.1 77.2 L 97.9 83.1 L 91.4 88.3 L 84.5 92.7 L 83.4 91.2 L 88.9 85.5 L 94.1 79.4 L 99.1 73.0 L 103.8 66.2 L 108.2 58.9 L 112.4 51.1 L 116.3 42.9 L 119.9 34.1 L 123.3 24.9 L 126.02288665771485 16.00523681640625 L 126.0 16.0 L 126.8 13.5 L 137.8 18.7 L 140.0 21.6 L 136.35959997177125 22.430266666412354 L 134.63669052124024 26.892160511016847 L 135.9 28.7 L 141.5 36.6 L 146.8 43.8 L 152.0 50.5 L 157.1 56.6 L 162.0 62.0 L 166.9 66.8 L 171.7 71.0 L 176.4 74.6 L 180.9 77.5 L 184.6 79.9 L 173.5 88.4 L 168.6 84.3 Z " />
</g>
</svg>
