<svg xmlns="http://www.w3.org/2000/svg" xmlns:xlink="http://www.w3.org/1999/xlink" version="1.1" baseProfile="full" viewBox="0 0 200 200" width="200" height="200">
<g fill="black">
<path d="M 88.6 180.2 L 86.9 182.0 L 85.0 183.5 L 83.0 184.8 L 80.8 185.9 L 78.6 186.8 L 76.2 187.3 L 73.8 187.7 L 71.3 187.8 L 71.3 181.8 L 53.3 178.8 L 53.3 175.8 L 71.3 175.8 L 72.7 175.7 L 75.1 175.3 L 76.1 174.9 L 77.1 174.4 L 77.9 173.8 L 78.8 173.1 L 79.6 172.3 L 80.4 171.3 L 80.95 170.475 L 81.1 169.8 L 81.3 168.0 L 81.5 165.6 L 81.7 162.5 L 81.9 158.7 L 82.0 154.4 L 82.1 149.5 L 82.2 144.0 L 82.2 139.9 L 59.33333330154419 139.9 L 58.8 146.3 L 57.2 153.9 L 54.7 160.7 L 51.3 166.7 L 46.9 171.9 L 41.7 176.3 L 35.8 179.9 L 29.1 182.8 L 21.6 184.9 L 13.4 186.4 L 12.9 184.7 L 20.4 181.3 L 26.9 177.9 L 32.4 174.3 L 36.9 170.5 L 40.5 166.3 L 43.3 161.9 L 45.4 156.9 L 46.8 151.4 L 47.5 145.1 L 47.5 139.9 L 27.0 139.9 L 27.0 135.9 L 82.2 135.9 L 88.2 130.9 L 99.2 139.9 L 94.2 142.9 L 94.2 144.1 L 94.1 149.7 L 94.0 154.7 L 93.9 159.2 L 93.7 163.1 L 93.5 166.5 L 93.2 169.3 L 92.9 171.7 L 92.5 173.8 L 91.5 176.2 L 90.1 178.3 Z M 179.6 167.9 L 177.7 169.4 L 175.7 170.8 L 173.6 171.9 L 171.4 172.8 L 169.1 173.5 L 166.8 174.0 L 164.4 174.3 L 162.0 174.4 L 162.0 168.4 L 150.0 165.4 L 150.0 162.4 L 163.4 162.4 L 164.8 162.2 L 166.1 161.9 L 167.3 161.5 L 168.4 161.1 L 169.5 160.5 L 170.6 159.8 L 172.6 158.0 L 173.6 156.9 L 173.9 156.8 L 174.4 155.7 L 174.7 154.1 L 174.5 151.8 L 173.5 149.0 L 171.3 145.8 L 167.8 142.2 L 162.4 138.5 L 155.1 134.7 L 145.7 130.5 L 145.70444440841675 130.4800000190735 L 145.5 130.6 L 144.4 129.2 L 148.0 125.3 L 151.3 121.5 L 154.5 117.9 L 157.5 114.5 L 160.4 111.2 L 163.0 108.0 L 165.4 104.9 L 167.5 101.9 L 130.0 101.9 L 130.0 181.5 L 118.0 187.5 L 118.0 91.9 L 130.0 97.9 L 170.0 97.9 L 170.2602409362793 97.68313255310059 L 171.1 96.3 L 171.5336968421936 96.62191934585572 L 176.0 92.9 L 187.0 101.9 L 182.0 104.9 L 177.71428575515748 106.68571424484253 L 175.5 108.9 L 172.6 111.6 L 169.4 114.3 L 166.0 117.0 L 162.4 119.8 L 158.6 122.5 L 154.5 125.3 L 150.1 127.9 L 148.28127164840697 128.96751441955567 L 156.7 130.0 L 165.3 132.6 L 172.1 136.0 L 177.4 139.8 L 181.3 144.1 L 183.8 148.5 L 185.1 153.0 L 185.3 157.2 L 184.6 161.0 L 182.9 164.4 L 181.3 166.3 Z M 49.6 108.9 L 51.7 111.8 L 47.76956901550293 112.47766046524048 L 47.4 113.2 L 44.8 117.4 L 42.0 121.3 L 38.7 125.1 L 35.2 128.7 L 31.3 132.0 L 27.1 135.1 L 22.6 138.1 L 17.7 140.6 L 12.4 143.0 L 11.5 141.4 L 15.6 137.6 L 19.4 133.9 L 22.9 130.3 L 26.1 126.7 L 29.0 123.0 L 31.5 119.4 L 33.7 115.7 L 35.6 112.1 L 37.1 108.4 L 38.3 104.6 L 38.36563405990601 104.62497577667236 L 38.9 103.2 Z M 97.6 136.5 L 93.6 133.0 L 90.1 129.2 L 87.0 125.2 L 84.3 121.0 L 82.0 116.6 L 80.3 112.0 L 79.0 107.2 L 78.4960000038147 103.0 L 47.8 103.0 L 47.8 99.0 L 69.3777777671814 99.0 L 75.6 92.0 L 83.6 99.0 L 83.6 103.0 L 80.94499998092651 103.0 L 82.7 105.7 L 85.3 109.5 L 88.0 113.0 L 90.8 116.2 L 93.9 119.2 L 97.1 122.0 L 100.6 124.6 L 104.3 126.9 L 108.3 129.0 L 112.6 131.0 L 117.9 133.7 L 106.6 142.7 L 101.9 139.7 Z M 98.5 78.6 L 118.5 78.6 L 119.7 78.5 L 120.6 78.3 L 121.2 78.2 L 121.5 78.0 L 121.9 77.6 L 122.2 76.7 L 122.4 75.8 L 122.5 74.6 L 122.5 54.75200004577637 L 115.9 58.8 L 107.7 63.1 L 98.8 67.1 L 89.3 70.8 L 79.0 74.2 L 68.1 77.3 L 56.5 80.2 L 44.2 82.6 L 31.2 84.7 L 17.5 86.3 L 17.1 84.5 L 30.4 81.0 L 43.0 77.4 L 54.8 73.8 L 65.9 70.1 L 76.2 66.2 L 85.8 62.2 L 94.6 58.0 L 102.6 53.6 L 106.23720932006836 51.3 L 52.45534353256225 51.3 L 50.1 56.4 L 36.7 56.8 L 51.182089519500735 25.5 L 33.5 25.5 L 33.5 21.5 L 150.2 21.5 L 160.2 11.5 L 172.2 21.5 L 172.2 25.5 L 134.5 25.5 L 134.5 47.3 L 159.7 47.3 L 169.7 37.3 L 181.7 47.3 L 181.7 51.3 L 134.5 51.3 L 134.5 74.6 L 134.3 77.1 L 133.9 79.6 L 133.1 82.0 L 131.8 84.3 L 130.2 86.3 L 128.2 88.0 L 125.9 89.2 L 123.5 90.0 L 121.0 90.4 L 118.5 90.6 L 118.5 84.6 L 98.5 81.6 Z M 55.38840579986572 25.5 L 62.2 30.2 L 64.1 33.3 L 60.49048929214477 33.9015851020813 L 54.30267171859741 47.3 L 122.5 47.3 L 122.5 25.5 Z " />
</g>
</svg>
