<svg xmlns="http://www.w3.org/2000/svg" xmlns:xlink="http://www.w3.org/1999/xlink" version="1.1" baseProfile="full" viewBox="0 0 200 200" width="200" height="200">
<g fill="black">
<path d="M 143.8 78.4 L 143.54209241867065 80.67818326950074 L 146.3 94.1 L 149.6 107.8 L 153.3 120.6 L 157.5 132.4 L 162.1 143.3 L 167.3 153.2 L 172.9 162.2 L 178.9 170.3 L 185.4 177.4 L 186.5 178.6 L 175.7 186.5 L 169.0 177.9 L 162.9 168.5 L 157.5 158.3 L 152.7 147.3 L 148.7 135.5 L 145.2 122.8 L 142.5 109.4 L 141.10160036087035 99.87756443023682 L 139.6 109.2 L 136.5 123.1 L 132.6 136.0 L 128.1 147.8 L 122.9 158.5 L 116.9 168.1 L 110.2 176.6 L 102.8 183.8 L 94.7 189.7 L 93.6 188.2 L 100.1 181.1 L 106.0 173.2 L 111.3 164.6 L 116.1 155.1 L 120.2 144.6 L 123.7 133.2 L 126.7 120.8 L 129.0 107.4 L 130.7 93.0 L 131.8 77.5 L 131.8 72.0 L 102.3 72.0 L 102.3 68.0 L 131.8 68.0 L 131.8 13.0 L 143.8 15.0 L 146.8 17.0 L 143.8 18.8 L 143.8 68.0 L 160.4 68.0 L 170.4 58.0 L 182.4 68.0 L 182.4 72.0 L 143.8 72.0 L 143.8 78.0 L 143.54603176116944 78.38095235824585 Z M 67.4 175.6 L 81.4 175.6 L 82.6 175.5 L 83.6 175.4 L 84.1 175.2 L 84.7 174.9 L 85.0 174.3 L 85.2 173.8 L 85.3 172.8 L 85.4 171.6 L 85.4 146.3 L 34.5 146.3 L 34.5 183.1 L 22.5 189.1 L 22.5 77.6 L 34.5 83.6 L 85.4 83.6 L 91.4 78.6 L 102.4 87.6 L 97.4 91.6 L 97.4 171.6 L 97.3 174.2 L 96.8 176.7 L 96.0 179.1 L 94.8 181.3 L 93.2 183.4 L 91.1 185.0 L 88.9 186.2 L 86.5 187.0 L 84.0 187.5 L 81.4 187.6 L 81.4 181.6 L 67.4 178.6 Z M 34.5 116.9 L 34.5 142.3 L 85.4 142.3 L 85.4 116.9 Z M 34.5 87.6 L 34.5 112.9 L 85.4 112.9 L 85.4 87.6 Z M 38.8 23.4 L 81.1 23.4 L 87.1 18.4 L 98.1 27.4 L 93.1 31.4 L 93.1 65.5 L 81.1 71.5 L 81.1 61.5 L 38.8 61.5 L 38.8 68.5 L 26.8 74.5 L 26.8 17.4 Z M 38.8 27.4 L 38.8 57.5 L 81.1 57.5 L 81.1 27.4 Z M 163.0 43.3 L 162.2 40.3 L 161.3 37.4 L 160.1 34.5 L 158.7 31.6 L 157.0 28.8 L 155.2 25.9 L 153.2 23.0 L 150.8 20.3 L 151.9 18.9 L 155.1 20.8 L 158.3 22.8 L 161.3 25.1 L 164.0 27.5 L 166.6 30.3 L 168.9 33.2 L 170.9 36.3 L 172.8 39.6 L 174.4 43.0 L 175.7 46.7 L 174.9 51.2 L 171.2 53.9 L 166.7 53.1 L 164.0 49.4 L 163.6 46.3 Z " />
</g>
</svg>
