<svg xmlns="http://www.w3.org/2000/svg" xmlns:xlink="http://www.w3.org/1999/xlink" version="1.1" baseProfile="full" viewBox="0 0 200 200" width="200" height="200">
<g fill="black">
<path d="M 157.0 183.5 L 147.6 180.4 L 138.8 176.6 L 130.6 172.3 L 123.0 167.5 L 116.0 162.0 L 109.7 156.1 L 104.1 149.5 L 100.32831020355225 143.80234088897706 L 96.8 151.3 L 90.1 160.3 L 81.8 168.1 L 71.7 174.5 L 60.1 179.8 L 46.9 183.8 L 32.1 186.6 L 15.8 188.1 L 15.5 186.3 L 31.4 182.8 L 45.4 178.6 L 57.6 173.7 L 67.9 168.0 L 76.3 161.5 L 83.0 154.4 L 88.0 146.5 L 89.36781606674194 143.0 L 13.6 143.0 L 13.6 139.0 L 90.9310344696045 139.0 L 91.4 137.8 L 93.2 128.2 L 93.5 117.7 L 93.5 115.3 L 105.5 117.5 L 108.5 119.4 L 105.17447957992553 121.50390062332153 L 104.5 129.8 L 102.1389380455017 139.0 L 164.4 139.0 L 174.4 129.0 L 186.4 139.0 L 186.4 143.0 L 102.8618182182312 143.0 L 107.1 146.7 L 113.6 151.7 L 120.3 156.2 L 127.4 160.3 L 134.9 164.0 L 142.8 167.2 L 151.2 169.9 L 160.0 172.1 L 169.3 173.9 L 179.1 175.2 L 189.1 176.6 L 177.2 188.3 L 166.8 186.2 Z M 138.3 131.0 L 137.2 129.6 L 135.9 128.1 L 134.2 126.6 L 132.3 125.0 L 130.1 123.4 L 127.7 121.7 L 125.0 120.0 L 121.9 118.7 L 122.4 116.9 L 125.8 117.7 L 129.1 118.1 L 132.2 118.6 L 135.0 119.3 L 137.7 120.1 L 140.3 120.9 L 142.7 121.9 L 144.9 123.1 L 147.0 124.4 L 148.9 125.9 L 150.1 130.3 L 147.9 134.3 L 143.5 135.5 L 139.5 133.4 L 139.0 132.2 Z M 138.3 61.4 L 136.9 59.6 L 135.3 57.8 L 133.5 55.8 L 131.5 53.8 L 129.3 51.7 L 126.9 49.6 L 124.3 47.2 L 122.22487392425538 45.76887855529785 L 121.9 46.1 L 116.4 51.1 L 110.5 56.1 L 106.60434780120849 59.068115901947024 L 108.2 59.6 L 111.2 60.4 L 114.1 61.4 L 116.8 62.5 L 119.5 63.7 L 122.0 65.1 L 124.4 66.6 L 126.7 68.3 L 128.9 70.0 L 131.0 71.9 L 132.0 76.4 L 129.8 80.3 L 125.3 81.4 L 121.4 79.2 L 120.4 77.3 L 119.3 75.4 L 118.0 73.5 L 116.6 71.6 L 115.0 69.7 L 113.2 67.8 L 111.3 65.8 L 109.2 63.9 L 107.0 61.8 L 104.8362771987915 60.41521739959717 L 104.2 60.9 L 97.6 65.4 L 90.5 69.7 L 89.4 68.2 L 95.2 62.4 L 100.7 56.8 L 106.0 51.3 L 111.0 45.8 L 115.7 40.3 L 120.1 34.8 L 124.1 29.3 L 127.8 23.8 L 131.2 18.3 L 133.8386122703552 13.618591117858887 L 133.8 13.6 L 134.8 11.9 L 144.6 18.8 L 146.2 22.1 L 142.34210529327393 22.1 L 140.7 24.5 L 136.5 30.1 L 135.75 31.0 L 174.0 31.0 L 174.4234414100647 30.647132205963135 L 174.6 30.3 L 174.75052757263182 30.374560356140137 L 180.0 26.0 L 191.0 35.0 L 186.0 38.0 L 183.34153842926025 39.107692337036134 L 178.6 47.6 L 171.1 58.7 L 163.1 69.0 L 154.4 78.4 L 145.0 86.9 L 135.1 94.4 L 124.5 101.0 L 113.3 106.7 L 101.6 111.3 L 89.2 114.8 L 88.7 113.1 L 100.1 107.8 L 110.9 101.9 L 121.0 95.5 L 130.5 88.4 L 139.4 80.5 L 147.6 72.0 L 155.3 62.7 L 162.3 52.7 L 168.7 41.9 L 172.20948276519775 35.0 L 132.4166666984558 35.0 L 132.0 35.5 L 127.1 40.8 L 123.74949531555175 44.214937400817874 L 125.6 45.0 L 128.9 46.1 L 132.1 47.2 L 135.0 48.4 L 137.8 49.7 L 140.5 51.0 L 142.9 52.3 L 145.2 53.7 L 147.4 55.2 L 149.4 56.7 L 150.9 61.0 L 149.0 65.2 L 144.6 66.7 L 140.5 64.7 L 139.5 63.1 Z M 15.6 70.2 L 15.6 66.2 L 74.3 66.2 L 74.3 48.4 L 40.3 48.4 L 40.3 51.4 L 28.3 57.4 L 28.3 17.8 L 40.3 19.8 L 43.3 21.8 L 40.3 23.6 L 40.3 44.4 L 74.3 44.4 L 74.3 11.4 L 86.3 13.4 L 89.3 15.4 L 86.3 17.2 L 86.3 108.3 L 74.3 114.3 L 74.3 70.2 L 46.5 70.2 L 46.5 77.4 L 45.9 82.4 L 44.6 87.1 L 42.7 91.6 L 40.3 95.8 L 37.3 99.7 L 33.8 103.2 L 29.8 106.4 L 25.2 109.2 L 20.2 111.7 L 14.8 113.8 L 13.9 112.3 L 18.4 108.8 L 22.3 105.2 L 25.6 101.7 L 28.4 98.3 L 30.7 94.8 L 32.4 91.4 L 33.6 87.9 L 34.3 84.5 L 34.6 81.0 L 34.5 77.4 L 34.5 70.2 Z " />
</g>
</svg>
