<svg xmlns="http://www.w3.org/2000/svg" xmlns:xlink="http://www.w3.org/1999/xlink" version="1.1" baseProfile="full" viewBox="0 0 200 200" width="200" height="200">
<g fill="black">
<path d="M 93.1 27.0 L 170.8 27.0 L 176.8 22.0 L 187.8 31.0 L 182.8 35.0 L 182.8 176.0 L 170.8 182.0 L 170.8 170.0 L 93.1 170.0 L 93.1 182.0 L 81.1 188.0 L 81.1 21.0 Z M 57.3 180.2 L 55.6 182.0 L 53.8 183.6 L 51.8 184.9 L 49.6 186.0 L 47.3 186.9 L 44.9 187.5 L 42.5 187.8 L 40.0 188.0 L 40.0 182.0 L 26.0 179.0 L 26.0 176.0 L 40.0 176.0 L 41.4 175.9 L 42.6 175.7 L 43.8 175.4 L 44.8 175.1 L 45.7 174.6 L 46.5 174.0 L 47.3 173.3 L 48.1 172.5 L 48.9 171.5 L 49.6 170.3 L 52.3 163.8 L 54.9 153.2 L 56.6 139.5 L 57.2 123.5 L 56.2 106.0 L 55.582171249389646 101.93998231887818 L 55.5 102.1 L 51.5 109.2 L 47.0 116.0 L 42.3 122.6 L 37.1 128.9 L 31.6 134.9 L 25.7 140.6 L 19.4 145.8 L 12.6 150.6 L 11.4 149.3 L 16.7 143.1 L 21.8 136.9 L 26.6 130.6 L 31.1 124.3 L 35.3 117.8 L 39.1 111.1 L 42.7 104.3 L 45.9 97.4 L 48.8 90.2 L 51.3 82.9 L 52.22697172164917 83.23633489608764 L 48.4 69.0 L 46.035538578033446 63.26224031448364 L 41.2 68.4 L 34.5 74.7 L 27.5 80.4 L 20.2 85.4 L 12.5 89.7 L 11.5 88.2 L 17.9 82.4 L 24.0 76.4 L 29.9 70.0 L 35.5 63.4 L 41.0 56.3 L 42.348983669281004 54.31620044708252 L 40.9 50.8 L 30.6 33.6 L 17.6 17.3 L 18.8 15.9 L 34.8 30.3 L 46.86534671783447 47.55045433044434 L 51.0 40.8 L 55.7 32.5 L 60.1 23.6 L 64.0666666984558 14.911111068725585 L 64.8 13.2 L 75.2 19.4 L 77.1 22.4 L 73.4036211013794 22.846114730834962 L 70.3 28.8 L 65.0 37.8 L 59.5 46.3 L 53.7 54.2 L 51.380420207977295 57.01391649246216 L 55.8 66.3 L 61.9 85.7 L 62.11044511795044 86.82237386703491 L 62.6 87.0 L 62.28260869979859 87.74057970046997 L 65.5 104.9 L 67.2 123.3 L 67.2 140.2 L 65.8 154.9 L 63.4 167.0 L 60.1 176.1 L 58.8 178.2 Z M 93.1 31.0 L 93.1 166.0 L 170.8 166.0 L 170.8 31.0 Z M 149.5 132.2 L 147.8 127.7 L 145.9 123.2 L 143.9 118.8 L 141.8 114.4 L 139.6 109.9 L 137.2 105.5 L 134.9 100.9 L 134.7367841720581 100.5871696472168 L 133.0 110.4 L 130.1 120.7 L 126.5 130.1 L 122.0 138.4 L 116.6 145.8 L 110.5 152.0 L 103.6 157.0 L 96.0 160.7 L 95.1 159.2 L 101.3 154.0 L 106.7 148.2 L 111.4 141.9 L 115.3 134.7 L 118.6 126.8 L 121.2 118.1 L 123.1 108.5 L 124.3 97.9 L 124.8 86.5 L 124.71532258987426 76.0 L 99.5 76.0 L 99.5 72.0 L 124.7 72.0 L 124.7 39.0 L 136.7 41.0 L 139.7 43.0 L 136.7 44.8 L 136.7 72.0 L 145.1 72.0 L 155.1 62.0 L 167.1 72.0 L 167.1 76.0 L 136.53282442092896 76.0 L 136.2 86.9 L 135.26603775024415 96.39528303146362 L 137.9 98.7 L 141.6 102.4 L 145.0 106.3 L 148.3 110.4 L 151.3 114.6 L 154.1 118.9 L 156.8 123.3 L 159.3 127.8 L 161.6 132.4 L 163.8 137.0 L 163.6 141.6 L 160.3 144.8 L 155.7 144.5 L 152.6 141.2 L 151.1 136.7 Z " />
</g>
</svg>
