<svg xmlns="http://www.w3.org/2000/svg" xmlns:xlink="http://www.w3.org/1999/xlink" version="1.1" baseProfile="full" viewBox="0 0 200 200" width="200" height="200">
<g fill="black">
<path d="M 116.7 17.7 L 119.0 20.5 L 115.4060715675354 21.382719230651855 L 112.8 28.8 L 108.6 39.7 L 104.2 50.4 L 99.6 60.8 L 94.8 70.9 L 93.6975154876709 73.082919216156 L 99.2 74.0 L 102.2 76.0 L 99.2 77.8 L 99.2 183.0 L 87.2 189.0 L 87.2 85.6 L 84.6 90.4 L 79.1 99.8 L 73.3 108.8 L 67.1 117.4 L 65.6 116.5 L 70.0 106.9 L 74.3 97.3 L 78.7 87.5 L 82.9 77.6 L 87.1 67.5 L 91.0 57.2 L 94.8 46.7 L 98.5 36.0 L 102.0 25.2 L 105.03035020828247 15.007003879547119 L 105.0 15.0 L 105.8 12.5 Z M 155.2 17.0 L 158.2 19.0 L 155.2 20.8 L 155.2 61.0 L 163.5 61.0 L 173.5 51.0 L 185.5 61.0 L 185.5 65.0 L 155.2 65.0 L 155.2 110.0 L 165.6 110.0 L 175.6 100.0 L 187.6 110.0 L 187.6 114.0 L 155.2 114.0 L 155.2 182.0 L 143.2 188.0 L 143.2 114.0 L 107.8 114.0 L 107.8 110.0 L 143.2 110.0 L 143.2 65.0 L 123.70645160675049 65.0 L 122.4 68.0 L 119.5 74.4 L 116.3 81.0 L 112.6 87.6 L 108.6 94.3 L 106.9 93.6 L 109.1 86.1 L 111.3 78.9 L 113.4 72.1 L 115.3 65.5 L 117.1 59.1 L 118.7 53.0 L 120.0 47.1 L 121.2 41.4 L 122.1 36.0 L 122.74545450210572 31.80454549789429 L 122.7 31.8 L 123.2 28.9 L 134.7 33.0 L 137.3 35.6 L 133.70546445846557 36.907103824615476 L 133.3 38.5 L 131.6 44.1 L 129.7 49.8 L 127.5 55.7 L 125.41475410461426 61.0 L 143.2 61.0 L 143.2 15.0 Z M 55.4 180.0 L 53.8 181.9 L 52.0 183.5 L 50.0 184.9 L 47.8 186.0 L 45.5 186.9 L 43.2 187.5 L 40.7 187.8 L 38.2 188.0 L 38.2 182.0 L 24.2 179.0 L 24.2 176.0 L 38.2 176.0 L 39.6 175.9 L 40.8 175.7 L 41.9 175.4 L 42.9 175.1 L 43.8 174.6 L 44.6 174.0 L 45.3 173.4 L 46.1 172.5 L 46.8 171.5 L 47.5 170.3 L 50.1 163.8 L 52.5 153.2 L 54.1 139.5 L 54.7 123.5 L 53.8 106.0 L 53.326611804962155 102.77394733428955 L 49.9 109.1 L 45.7 115.9 L 41.2 122.5 L 36.3 128.8 L 31.1 134.8 L 25.5 140.5 L 19.5 145.8 L 13.1 150.6 L 11.8 149.3 L 16.8 143.1 L 21.5 136.9 L 26.0 130.7 L 30.2 124.4 L 34.1 117.9 L 37.7 111.3 L 41.0 104.5 L 44.0 97.5 L 46.7 90.3 L 49.1 83.0 L 50.02323322296142 83.3158429145813 L 46.4 68.9 L 44.34929580688477 63.59746475219727 L 40.2 68.3 L 33.8 74.6 L 27.2 80.4 L 20.2 85.4 L 13.0 89.7 L 11.9 88.2 L 17.8 82.4 L 23.5 76.4 L 29.1 70.1 L 34.4 63.4 L 39.4 56.4 L 40.7604362487793 54.31769952774048 L 39.4 50.8 L 29.8 33.6 L 17.7 17.3 L 18.9 16.0 L 34.1 30.4 L 45.233883476257326 47.296156597137454 L 48.9 41.0 L 53.2 32.6 L 57.4 23.8 L 60.91981134414673 15.406603813171387 L 60.9 15.4 L 61.8 13.2 L 72.3 19.2 L 74.3 22.3 L 70.54192237854004 22.753561115264894 L 67.6 28.7 L 62.7 37.7 L 57.5 46.1 L 52.0 54.1 L 49.695569133758546 57.04013595581055 L 53.9 66.4 L 59.6 85.7 L 59.7734395980835 86.65143985748291 L 60.5 86.9 L 60.02646226882935 88.03945016860962 L 63.1 104.9 L 64.7 123.2 L 64.7 140.1 L 63.5 154.8 L 61.2 166.8 L 58.2 175.9 L 56.9 178.0 Z " />
</g>
</svg>
