<svg xmlns="http://www.w3.org/2000/svg" xmlns:xlink="http://www.w3.org/1999/xlink" version="1.1" baseProfile="full" viewBox="0 0 200 200" width="200" height="200">
<g fill="black">
<path d="M 173.0 96.4 L 173.0 100.4 L 135.5 100.4 L 135.5 132.6 L 160.3 132.6 L 170.3 122.6 L 182.3 132.6 L 182.3 136.6 L 135.5 136.6 L 135.5 183.3 L 123.5 189.3 L 123.5 136.6 L 76.6 136.6 L 76.6 132.6 L 123.5 132.6 L 123.5 100.4 L 85.9 100.4 L 85.9 96.4 L 151.0 96.4 L 161.0 86.4 Z M 58.2 180.3 L 56.6 182.0 L 54.7 183.6 L 52.7 185.0 L 50.5 186.1 L 48.2 186.9 L 45.9 187.5 L 43.4 187.8 L 40.9 188.0 L 40.9 182.0 L 26.9 179.0 L 26.9 176.0 L 40.9 176.0 L 42.3 175.9 L 43.6 175.7 L 44.7 175.4 L 45.7 175.1 L 46.6 174.6 L 47.5 174.0 L 48.3 173.3 L 49.1 172.5 L 49.9 171.5 L 50.6 170.3 L 53.4 163.8 L 56.0 153.2 L 57.8 139.5 L 58.3 123.5 L 57.3 106.0 L 56.640909099578856 101.81818180084228 L 56.5 102.1 L 52.3 109.2 L 47.8 116.1 L 42.9 122.6 L 37.7 128.9 L 32.1 134.9 L 26.1 140.6 L 19.7 145.8 L 12.8 150.6 L 11.6 149.3 L 17.1 143.1 L 22.2 136.8 L 27.1 130.6 L 31.7 124.2 L 36.0 117.8 L 40.0 111.1 L 43.6 104.3 L 46.8 97.3 L 49.8 90.2 L 52.4 82.8 L 53.16353788375854 83.09054975509643 L 49.3 69.0 L 46.87330827713013 63.22064199447632 L 41.9 68.5 L 35.1 74.7 L 27.9 80.4 L 20.5 85.4 L 12.7 89.7 L 11.7 88.2 L 18.2 82.4 L 24.5 76.4 L 30.5 70.0 L 36.3 63.3 L 41.8 56.2 L 43.13323087692261 54.313352489471434 L 41.7 50.9 L 31.2 33.6 L 17.9 17.3 L 19.1 15.9 L 35.4 30.3 L 47.7 47.6 L 47.741555309295656 47.68634262084961 L 52.1 40.8 L 56.9 32.4 L 61.4 23.6 L 65.6 14.3 L 65.6233654975891 14.310932445526124 L 66.2 13.1 L 76.5 19.4 L 78.4 22.5 L 74.66506719589233 22.886372375488282 L 71.5 28.9 L 66.1 37.8 L 60.5 46.3 L 54.6 54.2 L 52.23500604629517 57.02273473739624 L 56.7 66.3 L 62.9 85.6 L 63.15446348190308 86.89240646362305 L 63.7 87.1 L 63.34647932052612 87.86764488220214 L 66.7 104.9 L 68.4 123.3 L 68.3 140.2 L 66.9 155.0 L 64.5 167.1 L 61.1 176.2 L 59.7 178.3 Z M 119.0 38.4 L 121.8 40.6 L 118.36241607666015 42.38489933013916 L 117.8 45.9 L 115.9 53.0 L 113.4 59.6 L 110.1 65.8 L 106.2 71.4 L 101.7 76.4 L 96.5 80.9 L 90.7 84.8 L 84.4 88.0 L 77.4 90.5 L 76.7 88.8 L 82.5 84.7 L 87.6 80.4 L 92.1 76.0 L 96.0 71.4 L 99.3 66.5 L 101.9 61.4 L 104.0 55.9 L 105.6 50.2 L 106.6 44.1 L 106.9385006904602 38.59936361312866 L 106.9 38.6 L 107.2 35.4 Z M 180.5 46.6 L 182.5 46.6 L 180.5 67.6 L 183.8 69.8 L 186.0 73.1 L 183.8 76.4 L 180.5 78.6 L 152.6 78.6 L 150.0 78.5 L 147.6 78.1 L 145.2 77.4 L 143.0 76.2 L 141.0 74.6 L 139.3 72.7 L 138.1 70.5 L 137.2 68.1 L 136.7 65.6 L 136.6 63.1 L 136.6 29.5 L 86.73888893127442 29.5 L 86.9 32.4 L 86.9 37.3 L 86.6 41.9 L 86.1 46.1 L 85.3 50.0 L 84.3 53.5 L 82.8 56.8 L 80.8 59.7 L 76.6 61.4 L 72.3 59.8 L 70.6 55.5 L 72.3 51.3 L 73.5 50.3 L 74.8 48.8 L 76.2 46.6 L 77.5 43.8 L 78.7 40.4 L 79.8 36.4 L 80.8 31.9 L 81.8 26.8 L 82.7 21.3 L 83.4 15.2 L 85.2 15.1 L 85.9 21.3 L 86.41578950881959 25.5 L 173.2 25.5 L 179.2 20.5 L 190.2 29.5 L 185.2 32.5 L 182.40388345718384 33.66504850387573 L 182.2 34.0 L 180.8 36.4 L 179.2 38.9 L 177.5 41.5 L 175.6 44.2 L 173.6 47.0 L 171.5 50.0 L 169.1 53.0 L 166.9 56.3 L 165.3 55.4 L 166.7 51.8 L 167.7 48.1 L 168.7 44.6 L 169.6 41.4 L 170.5 38.3 L 171.3 35.4 L 172.0 32.6 L 172.7 30.0 L 172.80416669845582 29.5 L 148.6 29.5 L 148.6 64.3 L 148.7 65.2 L 148.8 65.9 L 149.1 66.5 L 149.3 66.7 L 149.7 67.0 L 150.3 67.2 L 151.3 67.5 L 152.6 67.6 L 175.0 67.6 Z " />
</g>
</svg>
