<svg xmlns="http://www.w3.org/2000/svg" xmlns:xlink="http://www.w3.org/1999/xlink" version="1.1" baseProfile="full" viewBox="0 0 200 200" width="200" height="200">
<g fill="black">
<path d="M 146.3 176.0 L 162.3 176.0 L 163.5 175.9 L 164.5 175.7 L 165.0 175.5 L 165.4 175.4 L 165.6 175.2 L 165.7 175.0 L 165.9 174.7 L 166.1 174.1 L 166.2 173.2 L 166.3 172.0 L 166.3 128.0 L 127.32173910140992 128.0 L 126.5 129.8 L 124.3 134.4 L 122.1 139.1 L 117.3 148.7 L 114.69816179275513 153.16029415130615 L 115.7 153.0 L 120.9 152.3 L 126.2 151.5 L 131.7 150.7 L 137.4 150.0 L 143.2 149.5 L 145.91591119766235 149.32190742492676 L 145.1 146.8 L 143.8 143.3 L 142.4 139.7 L 140.9 136.0 L 139.1 132.3 L 140.6 131.3 L 143.4 134.4 L 146.2 137.4 L 148.8 140.5 L 151.1 143.6 L 153.3 146.7 L 155.3 149.9 L 157.1 153.0 L 158.7 156.2 L 160.2 159.4 L 161.4 162.6 L 160.7 167.1 L 157.1 169.9 L 152.6 169.1 L 149.8 165.5 L 149.4 162.6 L 148.8 159.7 L 148.1 156.6 L 147.2 153.4 L 146.77874011993407 152.0519684791565 L 144.1 153.2 L 138.6 155.3 L 133.2 157.2 L 127.9 158.9 L 122.8 160.5 L 117.8 162.1 L 112.9 163.6 L 108.3 165.0 L 103.7 166.3 L 103.39503269195556 166.39010400772094 L 101.9 170.1 L 99.3 167.6 L 94.8 156.3 L 96.8 155.9 L 101.3 155.2 L 105.9 154.5 L 110.65879831314086 153.80600862503053 L 111.0 152.1 L 112.2 146.7 L 113.6 141.5 L 115.0 136.4 L 117.4 128.0 L 89.4 128.0 L 89.4 183.0 L 77.4 189.0 L 77.4 118.0 L 89.4 124.0 L 118.5041666984558 124.0 L 119.1 121.8 L 120.4 117.1 L 122.71620674133301 108.90419139862061 L 122.7 108.9 L 122.81428575515747 108.55714282989501 L 123.0 107.9 L 123.02981529235839 107.91055412292481 L 123.33333330154419 107.0 L 100.8 107.0 L 100.8 110.0 L 88.8 116.0 L 88.8 67.0 L 100.8 69.0 L 103.8 71.0 L 100.8 72.8 L 100.8 103.0 L 154.9 103.0 L 154.9 67.0 L 166.9 69.0 L 169.9 71.0 L 166.9 72.8 L 166.9 109.0 L 154.9 115.0 L 154.9 107.0 L 124.5 107.0 L 134.3 111.9 L 136.5 114.7 L 132.8020133972168 115.4785234451294 L 132.5 116.2 L 130.5 120.7 L 129.10666666030883 124.0 L 166.3 124.0 L 172.3 119.0 L 183.3 128.0 L 178.3 132.0 L 178.3 172.0 L 178.2 174.5 L 177.7 177.0 L 176.9 179.4 L 175.7 181.7 L 174.1 183.7 L 172.0 185.3 L 169.8 186.6 L 167.4 187.4 L 164.9 187.8 L 162.3 188.0 L 162.3 182.0 L 146.3 179.0 Z M 57.6 180.3 L 55.9 182.1 L 54.0 183.6 L 52.0 185.0 L 49.8 186.1 L 47.5 186.9 L 45.2 187.5 L 42.7 187.8 L 40.2 188.0 L 40.2 182.0 L 26.2 179.0 L 26.2 176.0 L 40.2 176.0 L 41.6 175.9 L 42.9 175.7 L 44.0 175.4 L 45.0 175.1 L 46.0 174.6 L 46.8 174.0 L 47.6 173.3 L 48.4 172.5 L 49.2 171.5 L 50.0 170.3 L 52.8 163.8 L 55.4 153.2 L 57.1 139.5 L 57.7 123.5 L 56.7 106.0 L 56.01831912994385 101.6748522758484 L 55.8 102.1 L 51.6 109.2 L 47.1 116.1 L 42.2 122.7 L 36.9 128.9 L 31.3 134.9 L 25.2 140.6 L 18.8 145.8 L 11.9 150.6 L 10.7 149.3 L 16.2 143.1 L 21.4 136.8 L 26.3 130.6 L 30.9 124.2 L 35.3 117.7 L 39.2 111.1 L 42.9 104.3 L 46.2 97.3 L 49.1 90.2 L 51.8 82.8 L 52.5643328666687 83.0934492111206 L 48.7 69.0 L 46.189091205596924 63.097733879089354 L 41.1 68.5 L 34.3 74.7 L 27.1 80.4 L 19.6 85.4 L 11.8 89.7 L 10.8 88.2 L 17.3 82.4 L 23.6 76.3 L 29.7 70.0 L 35.5 63.3 L 41.1 56.2 L 42.44500255584717 54.29669446945191 L 41.0 50.9 L 30.4 33.6 L 17.0 17.3 L 18.2 15.9 L 34.6 30.3 L 46.9 47.6 L 46.99031448364258 47.78559131622315 L 51.5 40.8 L 56.2 32.4 L 60.8 23.6 L 64.67157125473022 15.226601696014404 L 64.6 15.2 L 65.6 13.1 L 75.9 19.4 L 77.8 22.5 L 74.06506719589234 22.886372375488282 L 70.9 28.9 L 65.5 37.8 L 59.8 46.3 L 53.9 54.2 L 51.489565181732175 57.031304359436035 L 56.0 66.3 L 62.3 85.6 L 62.562246036529544 86.93193378448487 L 63.0 87.1 L 62.719005298614505 87.72810583114624 L 66.1 104.9 L 67.7 123.3 L 67.7 140.2 L 66.3 155.0 L 63.8 167.1 L 60.4 176.2 L 59.1 178.3 Z M 129.94054050445556 88.15675678253174 L 127.5 89.9 L 123.2 92.7 L 118.7 95.2 L 114.1 97.5 L 109.3 99.3 L 104.3 100.8 L 103.5 99.1 L 107.5 96.0 L 111.4 92.9 L 115.1 89.8 L 118.7 86.6 L 122.2 83.4 L 123.65572719573974 81.90015983581543 L 121.4 79.8 L 118.4 77.1 L 115.3 74.5 L 112.2 71.8 L 108.9 69.2 L 109.8 67.6 L 117.8 70.4 L 121.7 72.1 L 125.4 74.0 L 129.0481740951538 76.07058525085449 L 131.7 72.8 L 134.6 69.0 L 136.73192834854126 65.92054796218872 L 136.7 65.9 L 137.7 64.5 L 146.8 72.4 L 148.0 75.8 L 144.16418027877808 75.33705625534057 L 143.3 76.3 L 139.6 80.1 L 137.70133953094484 81.80392608642578 L 139.6 83.2 L 142.9 85.8 L 146.1 88.7 L 147.7 93.0 L 145.9 97.1 L 141.6 98.7 L 137.4 96.9 L 132.4 90.9 Z M 166.1 64.5 L 160.6 60.6 L 155.3 56.4 L 150.1 51.7 L 145.1 46.7 L 140.3 41.3 L 135.8 35.4 L 131.6 29.1 L 130.5114953994751 27.20209445953369 L 126.3 32.9 L 120.8 39.5 L 114.8 45.8 L 108.4 51.7 L 101.7 57.3 L 94.5 62.6 L 86.8 67.4 L 78.7 71.8 L 70.1 75.7 L 69.3 74.2 L 76.7 68.6 L 83.8 63.0 L 90.4 57.4 L 96.7 51.6 L 102.5 45.6 L 108.0 39.5 L 113.0 33.1 L 117.6 26.6 L 121.8 19.9 L 125.5 12.9 L 125.55708742141724 12.931534004211425 L 126.1 11.9 L 136.0 18.7 L 137.7 21.9 L 133.90101404190062 22.03099946975708 L 132.47281646728516 24.297486972808837 L 134.8 26.5 L 140.2 31.5 L 145.5 36.2 L 150.8 40.6 L 156.1 44.6 L 161.4 48.2 L 166.7 51.4 L 172.0 54.3 L 177.4 56.8 L 182.9 58.9 L 189.2 61.5 L 177.7 71.0 L 171.9 68.0 Z M 100.5 59.0 L 121.9 59.0 L 121.9 39.0 L 133.9 41.0 L 136.9 43.0 L 133.9 44.8 L 133.9 59.0 L 138.21818180084227 59.0 L 146.4 50.0 L 156.4 59.0 L 156.4 63.0 L 100.5 63.0 Z " />
</g>
</svg>
