<svg xmlns="http://www.w3.org/2000/svg" xmlns:xlink="http://www.w3.org/1999/xlink" version="1.1" baseProfile="full" viewBox="0 0 200 200" width="200" height="200">
<g fill="black">
<path d="M 134.3 175.6 L 154.3 175.6 L 155.5 175.5 L 156.4 175.4 L 157.0 175.2 L 157.3 175.0 L 157.5 174.9 L 157.7 174.7 L 157.8 174.3 L 158.0 173.8 L 158.2 172.8 L 158.3 171.6 L 158.3 92.9 L 72.2 92.9 L 72.2 88.9 L 164.9 88.9 L 174.9 78.9 L 186.9 88.9 L 186.9 92.9 L 170.3 92.9 L 170.3 171.6 L 170.1 174.2 L 169.7 176.7 L 168.9 179.1 L 167.7 181.3 L 166.0 183.4 L 164.0 185.0 L 161.7 186.2 L 159.3 187.0 L 156.8 187.5 L 154.3 187.6 L 154.3 181.6 L 134.3 178.6 Z M 59.2 180.3 L 57.6 182.0 L 55.7 183.6 L 53.7 185.0 L 51.5 186.1 L 49.2 186.9 L 46.9 187.5 L 44.4 187.8 L 41.9 188.0 L 41.9 182.0 L 27.9 179.0 L 27.9 176.0 L 41.9 176.0 L 43.3 175.9 L 44.6 175.7 L 45.7 175.4 L 46.7 175.1 L 47.6 174.6 L 48.5 174.0 L 49.3 173.3 L 50.1 172.5 L 50.9 171.5 L 51.6 170.3 L 54.4 163.8 L 57.0 153.2 L 58.8 139.5 L 59.3 123.5 L 58.3 106.0 L 57.640909099578856 101.81818180084228 L 57.5 102.1 L 53.3 109.2 L 48.8 116.1 L 43.9 122.6 L 38.7 128.9 L 33.1 134.9 L 27.1 140.6 L 20.7 145.8 L 13.8 150.6 L 12.6 149.3 L 18.1 143.1 L 23.2 136.8 L 28.1 130.6 L 32.7 124.2 L 37.0 117.8 L 41.0 111.1 L 44.6 104.3 L 47.8 97.3 L 50.8 90.2 L 53.4 82.8 L 54.16353788375854 83.09054975509643 L 50.3 69.0 L 47.87330827713013 63.22064199447632 L 42.9 68.5 L 36.1 74.7 L 28.9 80.4 L 21.5 85.4 L 13.7 89.7 L 12.7 88.2 L 19.2 82.4 L 25.5 76.4 L 31.5 70.0 L 37.3 63.3 L 42.8 56.2 L 44.13323087692261 54.313352489471434 L 42.7 50.9 L 32.2 33.6 L 18.9 17.3 L 20.1 15.9 L 36.4 30.3 L 48.7 47.6 L 48.741555309295656 47.68634262084961 L 53.1 40.8 L 57.9 32.4 L 62.4 23.6 L 66.6 14.3 L 66.6233654975891 14.310932445526124 L 67.2 13.1 L 77.5 19.4 L 79.4 22.5 L 75.66506719589233 22.886372375488282 L 72.5 28.9 L 67.1 37.8 L 61.5 46.3 L 55.6 54.2 L 53.23500604629517 57.02273473739624 L 57.7 66.3 L 63.9 85.6 L 64.15446348190308 86.89240646362305 L 64.7 87.1 L 64.34647932052613 87.86764488220214 L 67.7 104.9 L 69.4 123.3 L 69.3 140.2 L 67.9 155.0 L 65.5 167.1 L 62.1 176.2 L 60.7 178.3 Z M 99.1 108.9 L 125.3 108.9 L 131.3 103.9 L 142.3 112.9 L 137.3 116.9 L 137.3 155.7 L 125.3 161.7 L 125.3 149.7 L 99.1 149.7 L 99.1 161.7 L 87.1 167.7 L 87.1 102.9 Z M 99.1 112.9 L 99.1 145.7 L 125.3 145.7 L 125.3 112.9 Z M 168.8685453414917 14.339506149291992 L 178.3 22.3 L 178.6 25.4 L 174.48576431274415 23.491948699951173 L 171.9 24.3 L 164.1 26.3 L 156.2 28.1 L 148.1 29.8 L 139.9 31.3 L 131.6 32.7 L 123.2 33.9 L 114.7 34.9 L 106.0 35.8 L 100.90526313781739 36.089473724365234 L 97.5370246887207 37.11197462081909 L 96.9 39.2 L 94.9 44.8 L 92.7 50.3 L 90.3 55.5 L 87.6 60.5 L 84.8 65.3 L 81.7 69.8 L 78.4 74.1 L 74.9 78.0 L 71.0 81.6 L 69.5 80.5 L 71.8 75.8 L 76.0 66.6 L 78.1 61.8 L 79.9 57.0 L 81.7 52.0 L 83.2 46.9 L 84.7 41.6 L 85.9 36.2 L 86.90377902984619 31.51569766998291 L 86.8 31.5 L 87.5 28.8 L 96.7056058883667 32.49868097305298 L 105.2 30.5 L 113.6 28.5 L 121.8 26.5 L 129.9 24.4 L 137.9 22.3 L 145.7 20.0 L 153.4 17.7 L 161.0 15.3 L 167.41338577270508 13.133315658569336 L 167.4 13.1 L 167.43201513290404 13.127021884918213 L 168.4 12.8 Z M 171.0 64.5 L 169.7 61.1 L 168.1 57.6 L 166.4 54.1 L 164.4 50.5 L 162.3 46.8 L 159.9 43.0 L 157.4 39.0 L 154.7 35.1 L 156.0 33.8 L 163.6 39.8 L 167.0 43.0 L 170.2 46.3 L 173.1 49.6 L 175.8 53.0 L 178.3 56.4 L 180.5 59.9 L 182.5 63.5 L 184.3 67.1 L 184.0 71.6 L 180.7 74.8 L 176.1 74.5 L 173.0 71.1 L 172.1 67.9 Z M 125.4 62.7 L 124.9 60.0 L 124.3 57.2 L 123.5 54.4 L 122.6 51.7 L 121.6 48.9 L 120.4 46.1 L 119.2 43.2 L 117.4 40.5 L 118.8 39.3 L 121.2 41.5 L 123.8 43.6 L 126.2 45.9 L 128.3 48.4 L 130.3 51.0 L 132.2 53.8 L 133.8 56.6 L 135.3 59.7 L 136.6 62.8 L 137.8 66.0 L 136.8 70.5 L 133.0 73.1 L 128.6 72.1 L 126.0 68.3 L 125.8 65.5 Z " />
</g>
</svg>
