<svg xmlns="http://www.w3.org/2000/svg" xmlns:xlink="http://www.w3.org/1999/xlink" version="1.1" baseProfile="full" viewBox="0 0 200 200" width="200" height="200">
<g fill="black">
<path d="M 143.01006011962892 77.77825450897217 L 143.3 77.8 L 143.18855867385864 78.73845348358154 L 143.2 78.8 L 146.4 93.5 L 149.9 107.3 L 154.0 120.1 L 158.6 132.0 L 163.7 142.9 L 169.4 152.8 L 175.5 161.8 L 182.2 169.9 L 190.9 178.6 L 180.2 186.6 L 172.6 178.0 L 165.8 168.6 L 159.8 158.3 L 154.5 147.2 L 149.9 135.3 L 146.0 122.5 L 142.9 109.0 L 140.9084218978882 96.53098936080933 L 138.7 108.8 L 135.3 122.8 L 131.0 135.8 L 126.0 147.6 L 120.3 158.4 L 113.7 168.1 L 106.4 176.5 L 98.2 183.8 L 89.3 189.6 L 88.3 188.2 L 95.7 180.9 L 102.3 173.0 L 108.3 164.3 L 113.6 154.7 L 118.3 144.2 L 122.2 132.8 L 125.5 120.3 L 128.1 106.9 L 130.1 92.4 L 131.3 76.9 L 131.3 71.3 L 97.9 71.3 L 97.9 67.3 L 131.3 67.3 L 131.3 12.0 L 143.3 14.0 L 146.3 16.0 L 143.3 17.8 L 143.3 67.3 L 164.8 67.3 L 174.8 57.3 L 186.8 67.3 L 186.8 71.3 L 143.3 71.3 L 143.3 77.3 L 143.00375938415527 77.74436092376709 Z M 68.1 172.8 L 83.3 172.8 L 84.2 172.6 L 84.8 172.4 L 85.4 172.1 L 85.5 171.9 L 85.7 171.6 L 85.9 171.0 L 86.0 170.1 L 86.1 168.8 L 86.1 164.6615385055542 L 86.0 165.0 L 82.1 167.3 L 77.7 166.1 L 75.4 162.2 L 75.4 157.7 L 75.3 155.5 L 75.0 153.1 L 74.89692983627319 152.48157892227172 L 73.5 153.2 L 69.9 155.1 L 66.1 156.7 L 62.2 158.3 L 58.2 159.8 L 49.8 162.6 L 45.4 164.0 L 40.9 165.3 L 40.39631280899048 165.44234638214112 L 38.9 169.1 L 36.3 166.6 L 32.0 155.2 L 34.0 154.8 L 43.2 153.6 L 47.6 153.0 L 51.5 152.5568181991577 L 51.5 133.2 L 30.8 133.2 L 30.8 179.3 L 18.8 185.3 L 18.8 133.2 L 14.4 133.2 L 14.4 129.2 L 18.8 129.2 L 18.8 118.5 L 30.8 120.5 L 33.8 122.5 L 30.8 124.3 L 30.8 129.2 L 51.5 129.2 L 51.5 113.2 L 36.2 113.2 L 24.2 119.2 L 24.2 64.6 L 36.2 70.6 L 79.2 70.6 L 85.2 65.6 L 96.2 74.6 L 91.2 78.6 L 91.2 115.2 L 79.2 121.2 L 79.2 113.2 L 63.5 113.2 L 63.5 129.2 L 86.1 129.2 L 92.1 124.2 L 103.1 133.2 L 98.1 137.2 L 98.1 168.8 L 98.0 171.4 L 97.5 173.9 L 96.7 176.3 L 95.5 178.6 L 93.8 180.6 L 91.8 182.2 L 89.6 183.5 L 87.2 184.3 L 84.7 184.7 L 82.1 184.8 L 82.1 178.8 L 68.1 175.8 Z M 63.5 133.2 L 63.5 150.9219511985779 L 64.5 150.8 L 68.6 150.4 L 72.6 150.0 L 74.42492113113403 149.85962142944337 L 74.1 148.3 L 73.5 145.8 L 72.8 143.2 L 72.0 140.6 L 70.7 138.1 L 72.1 137.0 L 74.0 139.2 L 76.1 141.2 L 78.1 143.4 L 79.9 145.6 L 81.5 147.9 L 82.9 150.3 L 84.2 152.8 L 85.4 155.3 L 86.1 157.1199999809265 L 86.1 133.2 Z M 36.2 93.2 L 36.2 109.2 L 51.5 109.2 L 51.5 93.2 Z M 63.5 93.2 L 63.5 109.2 L 79.2 109.2 L 79.2 93.2 Z M 36.2 74.6 L 36.2 89.2 L 51.5 89.2 L 51.5 74.6 Z M 63.5 74.6 L 63.5 89.2 L 79.2 89.2 L 79.2 74.6 Z M 90.7 56.4 L 90.55669813156128 55.867735862731934 L 87.3 57.1 L 83.7 58.4 L 80.2 59.5 L 76.8 60.5 L 73.5 61.5 L 70.2 62.4 L 67.1 63.2 L 65.45072813034058 63.63980579376221 L 63.4 67.5 L 61.1 64.7 L 57.9 53.0 L 59.9 52.8 L 62.8 52.8 L 65.8 52.9 L 66.83720932006835 52.9 L 67.2 49.0 L 67.8 44.8 L 68.4 40.7 L 69.0 36.5 L 70.4 28.3 L 71.0 24.2 L 71.7 20.1 L 72.15249652862549 17.007940673828124 L 72.1 17.0 L 72.2692307472229 16.210256385803223 L 72.3 16.0 L 72.31358880996704 16.003252029418945 L 72.7 14.2 L 84.0 18.8 L 86.4 21.5 L 82.64923543930054 22.659327220916747 L 82.6 22.8 L 81.3 26.8 L 79.9 30.8 L 78.4 34.7 L 76.9 38.7 L 75.3 42.6 L 71.9 50.4 L 70.58421049118041 52.9 L 72.2 52.9 L 75.6 52.8 L 89.74074077606201 52.8 L 89.3 51.1 L 88.5 48.4 L 87.5 45.7 L 86.5 42.9 L 85.5 40.0 L 84.4 37.0 L 82.8 34.2 L 84.3 33.1 L 86.5 35.5 L 88.9 37.7 L 91.1 40.0 L 93.2 42.4 L 97.0 47.4 L 98.7 49.9 L 100.2 52.5 L 101.7 55.2 L 103.1 57.9 L 102.6 62.4 L 99.2 65.4 L 94.6 65.0 L 91.6 61.5 L 91.2 59.0 Z M 46.8 56.4 L 46.66612024307251 55.81985425949097 L 43.1 57.1 L 39.3 58.4 L 35.6 59.5 L 32.0 60.6 L 28.5 61.5 L 25.2 62.4 L 21.9 63.2 L 20.036936950683593 63.6657657623291 L 18.0 67.5 L 15.7 64.7 L 12.5 53.0 L 14.5 52.8 L 20.6 52.8 L 22.949859523773192 52.87120790481568 L 23.4 49.0 L 23.9 44.8 L 24.5 40.7 L 25.2 36.5 L 25.8 32.4 L 27.2 24.2 L 28.25249652862549 17.007940673828124 L 28.2 17.0 L 28.329411792755128 16.482352924346923 L 28.4 16.0 L 28.447177410125732 16.01129035949707 L 28.9 14.2 L 40.1 18.8 L 42.6 21.5 L 38.85279846191406 22.637543296813966 L 38.8 22.8 L 36.0 30.8 L 34.5 34.7 L 33.0 38.7 L 29.8 46.5 L 28.0 50.4 L 26.79253730773926 52.81492538452149 L 27.3 52.8 L 34.6 52.8 L 38.4 52.7 L 42.3 52.7 L 45.89946718215943 52.78570156097412 L 44.6 48.4 L 43.7 45.7 L 42.7 42.9 L 41.6 40.0 L 40.5 37.0 L 39.0 34.2 L 40.4 33.1 L 42.6 35.5 L 45.0 37.7 L 47.3 40.0 L 49.3 42.4 L 51.3 44.9 L 53.1 47.4 L 54.8 49.9 L 56.4 52.5 L 57.9 55.2 L 59.2 57.9 L 58.8 62.4 L 55.3 65.4 L 50.8 65.0 L 47.8 61.5 L 47.3 59.0 Z M 165.9 42.7 L 165.0 39.7 L 163.8 36.7 L 162.4 33.8 L 160.8 30.9 L 158.9 28.0 L 156.8 25.1 L 154.5 22.1 L 151.7 19.4 L 152.8 17.9 L 156.3 19.8 L 159.8 21.8 L 163.0 24.0 L 166.0 26.5 L 168.8 29.2 L 171.3 32.2 L 173.5 35.3 L 175.5 38.6 L 177.3 42.1 L 178.7 45.8 L 178.0 50.3 L 174.4 53.1 L 169.9 52.4 L 167.1 48.8 L 166.6 45.7 Z " />
</g>
</svg>
