<svg xmlns="http://www.w3.org/2000/svg" xmlns:xlink="http://www.w3.org/1999/xlink" version="1.1" baseProfile="full" viewBox="0 0 200 200" width="200" height="200">
<g fill="black">
<path d="M 167.1437767982483 72.97939910888672 L 175.5 80.5 L 175.5 84.5 L 136.0 84.5 L 136.0 97.0 L 152.71818180084227 97.0 L 160.9 88.0 L 170.9 97.0 L 170.9 101.0 L 136.0 101.0 L 136.0 113.6 L 167.71818180084227 113.6 L 175.9 104.6 L 185.9 113.6 L 185.9 117.6 L 127.66341466903687 117.6 L 132.6 122.2 L 133.7 125.6 L 129.2650336265564 124.91181554794312 L 128.9 125.2 L 126.9 126.8 L 122.7 129.8 L 120.5 131.2 L 118.2 132.7 L 115.8 134.1 L 114.45862064361572 134.79751720428467 L 115.4 135.4 L 117.7 137.3 L 119.9 139.3 L 121.8 141.5 L 122.5 146.0 L 119.8 149.7 L 115.65384616851807 150.34495725631714 L 119.7 150.3 L 124.38546962738037 150.2506793022156 L 125.0 149.6 L 128.1 146.0 L 131.2 142.6 L 134.2 139.4 L 137.0 136.2 L 139.7 133.2 L 142.3 130.3 L 144.7 127.5 L 146.9 124.8 L 148.3810912132263 122.96626806259155 L 148.3 122.9 L 149.3 121.9 L 157.6 130.5 L 158.4 134.1 L 154.47606287002563 133.13622598648072 L 152.0 135.1 L 149.0 137.5 L 142.4 142.3 L 138.8 144.8 L 135.1 147.2 L 131.2 149.7 L 130.34545450210572 150.1883116722107 L 139.0 150.1 L 149.4 150.0 L 160.2 150.1 L 166.44497957229615 150.2105305671692 L 164.8 148.2 L 162.9 145.9 L 160.8 143.6 L 158.5 141.1 L 155.7 139.0 L 156.6 137.5 L 159.8 139.0 L 163.1 140.2 L 166.1 141.6 L 169.0 143.2 L 171.7 144.9 L 174.2 146.7 L 176.6 148.6 L 178.8 150.7 L 180.8 152.8 L 182.6 155.2 L 183.0 159.7 L 180.1 163.3 L 175.6 163.7 L 172.0 160.8 L 171.3 158.8 L 170.4 156.8 L 169.4 154.7 L 168.1380117416382 152.661403465271 L 160.5 153.9 L 149.7 155.4 L 139.5 156.7 L 136.0 157.08888893127443 L 136.0 181.8 L 124.0 187.8 L 124.0 158.3957447052002 L 120.2 158.8 L 111.2 159.7 L 104.84709749221801 160.29792022705078 L 113.2 167.9 L 114.3 171.3 L 110.07115907669068 170.7167116165161 L 108.2 172.3 L 105.4 174.3 L 102.5 176.3 L 99.3 178.2 L 96.0 180.0 L 92.5 181.7 L 88.9 183.3 L 84.9 184.7 L 81.0 186.3 L 80.1 184.7 L 83.5 182.2 L 86.5 179.5 L 89.4 177.0 L 92.1 174.5 L 94.6 172.0 L 96.9 169.6 L 98.9 167.2 L 100.8 164.9 L 102.4 162.6 L 103.27995080947876 161.15436658859252 L 103.2 161.1 L 103.60281686782837 160.62394361495973 L 103.73771028518676 160.4023331642151 L 102.7 160.5 L 94.7 161.3 L 87.0 161.9 L 83.95070819854736 162.15410766601562 L 81.9 165.5 L 79.8 162.5 L 77.4 150.6 L 94.1 150.6 L 102.2 150.5 L 110.7 150.4 L 115.23100929260254 150.3496554374695 L 111.6 147.7 L 110.8 145.9 L 109.9 144.0 L 108.7 142.1 L 107.3 140.1 L 105.7 138.2 L 103.9 136.2 L 101.8 134.1 L 99.5 132.1 L 97.0 130.0 L 94.1 128.2 L 94.8 126.6 L 98.1 127.7 L 101.4 128.5 L 104.6 129.6 L 107.5 130.8 L 110.3 132.2 L 111.9384428024292 133.20827255249023 L 113.1 131.3 L 114.6 129.0 L 117.4 124.6 L 120.0 120.4 L 121.2 118.4 L 121.63999996185302 117.6 L 74.1 117.6 L 74.1 113.6 L 124.0 113.6 L 124.0 101.0 L 89.0 101.0 L 89.0 97.0 L 124.0 97.0 L 124.0 84.5 L 84.5 84.5 L 84.5 80.5 L 124.0 80.5 L 124.0 65.6 L 136.0 67.6 L 139.0 69.6 L 136.0 71.4 L 136.0 80.5 L 157.3181818008423 80.5 L 164.86902799606324 72.1940691947937 L 161.7 71.1 L 153.6 67.7 L 145.8 63.9 L 138.3 59.4 L 131.2 54.5 L 130.7155378341675 54.115280055999754 L 128.1 55.9 L 119.1 61.1 L 109.8 65.7 L 100.2 69.6 L 90.1 72.8 L 79.7 75.2 L 68.9 76.8 L 68.5 75.0 L 78.7 71.5 L 88.4 67.7 L 97.6 63.5 L 106.4 58.9 L 114.8 53.8 L 122.8 48.3 L 123.18984050750733 47.982929706573486 L 117.9 43.1 L 112.0 36.6 L 108.77609357833862 32.379613399505615 L 106.7 34.3 L 102.5 37.8 L 98.1 41.1 L 93.5 44.2 L 88.6 47.0 L 83.4 49.5 L 78.0 51.6 L 77.0 50.1 L 81.4 46.3 L 85.5 42.6 L 89.5 38.9 L 93.2 35.3 L 96.8 31.6 L 100.1 27.8 L 103.2 24.0 L 106.0 20.0 L 108.6 16.0 L 110.53882837295532 12.820321369171143 L 110.5 12.8 L 110.9529411315918 12.141176509857178 L 111.1 11.9 L 111.11299867630005 11.908365535736085 L 111.6 11.2 L 121.2 18.4 L 122.6 21.7 L 118.7187970161438 21.63308267593384 L 117.9 22.7 L 117.64390239715576 23.0 L 148.925 23.0 L 150.5 21.1 L 150.93904552459716 21.467462062835693 L 155.1 18.0 L 166.1 27.0 L 161.1 30.0 L 156.90536670684816 31.74776382446289 L 152.4 36.5 L 144.7 43.6 L 138.19744777679443 48.81809740066528 L 142.9 51.3 L 150.2 54.6 L 157.7 57.5 L 165.4 59.9 L 173.3 61.9 L 181.4 63.4 L 190.6 65.2 L 178.8 76.3 L 170.1 74.0 Z M 163.9 179.5 L 162.5 177.3 L 160.9 175.1 L 159.0 172.8 L 156.9 170.5 L 154.7 168.2 L 152.3 165.9 L 149.6 163.4 L 146.7 161.2 L 147.5 159.6 L 151.0 161.1 L 154.5 162.3 L 157.8 163.7 L 160.9 165.3 L 163.9 166.9 L 166.7 168.7 L 169.3 170.6 L 171.7 172.6 L 174.0 174.7 L 176.1 177.0 L 177.0 181.5 L 174.5 185.3 L 170.0 186.2 L 166.2 183.7 L 165.2 181.6 Z M 59.8 180.4 L 58.1 182.1 L 56.3 183.7 L 54.2 185.0 L 52.1 186.1 L 49.8 186.9 L 47.4 187.5 L 45.0 187.8 L 42.5 188.0 L 42.5 182.0 L 28.5 179.0 L 28.5 176.0 L 42.5 176.0 L 43.9 175.9 L 45.2 175.7 L 46.3 175.4 L 47.3 175.1 L 48.2 174.6 L 49.1 174.0 L 50.0 173.3 L 50.8 172.5 L 51.6 171.5 L 52.3 170.3 L 55.2 163.8 L 57.8 153.2 L 59.7 139.5 L 60.3 123.6 L 59.2 106.0 L 58.42901258468628 101.2969765663147 L 58.0 102.1 L 53.7 109.3 L 49.1 116.1 L 44.1 122.7 L 38.7 129.0 L 32.9 135.0 L 26.8 140.6 L 20.2 145.8 L 13.1 150.6 L 12.0 149.3 L 17.6 143.0 L 23.0 136.8 L 28.0 130.6 L 32.8 124.2 L 37.2 117.7 L 41.3 111.1 L 45.1 104.2 L 48.4 97.3 L 51.5 90.1 L 54.2 82.8 L 54.90587224960327 83.07100448608398 L 51.0 69.1 L 48.37266311645508 63.04714794158936 L 43.0 68.5 L 36.0 74.8 L 28.7 80.4 L 21.0 85.4 L 13.0 89.7 L 12.1 88.2 L 18.8 82.4 L 25.3 76.3 L 31.5 70.0 L 37.5 63.3 L 43.2 56.2 L 44.58233451843262 54.31499843597412 L 43.1 50.9 L 32.2 33.7 L 18.4 17.3 L 19.6 15.9 L 36.3 30.3 L 49.0 47.5 L 49.20743494033813 47.91933088302612 L 53.9 40.7 L 58.8 32.4 L 63.4 23.5 L 67.8 14.2 L 67.84014873504638 14.219702625274659 L 68.4 13.1 L 78.6 19.5 L 80.5 22.6 L 76.74233207702636 22.92393684387207 L 73.5 28.9 L 68.0 37.9 L 62.2 46.3 L 56.1 54.3 L 53.72326316833496 57.04810190200806 L 58.3 66.3 L 64.7 85.6 L 64.96972770690918 86.93480615615844 L 65.4 87.1 L 65.1252511024475 87.70444765090943 L 68.6 104.9 L 70.3 123.3 L 70.2 140.2 L 68.8 155.0 L 66.2 167.2 L 62.7 176.3 L 61.3 178.4 Z M 114.20526313781738 27.0 L 110.81532468795777 30.481558418273927 L 114.8 33.6 L 121.7 38.6 L 128.7 43.3 L 128.84245281219484 43.385471725463866 L 130.3 42.2 L 137.5 35.7 L 144.2 28.7 L 145.60921049118042 27.0 Z " />
</g>
</svg>
