<svg xmlns="http://www.w3.org/2000/svg" xmlns:xlink="http://www.w3.org/1999/xlink" version="1.1" baseProfile="full" viewBox="0 0 200 200" width="200" height="200">
<g fill="black">
<path d="M 126.7 167.2 L 127.0 170.8 L 123.41075696945191 169.49482069015502 L 122.4 170.2 L 117.8 173.0 L 113.0 175.6 L 108.0 178.1 L 102.7 180.4 L 97.2 182.5 L 91.5 184.5 L 85.5 186.2 L 79.3 187.7 L 72.8 188.8 L 72.2 187.1 L 78.0 184.1 L 83.6 181.2 L 88.9 178.4 L 94.0 175.6 L 98.9 172.8 L 103.5 169.9 L 107.8 167.0 L 111.8 164.0 L 115.6 161.0 L 118.44655561447144 158.54879932403566 L 118.4 158.5 L 119.3 157.8 Z M 167.8 182.2 L 165.2 179.8 L 162.3 177.3 L 159.0 174.8 L 155.3 172.2 L 151.2 169.6 L 146.8 166.9 L 142.0 164.0 L 136.9 161.1 L 137.5 159.5 L 143.3 160.8 L 148.8 162.3 L 153.9 164.0 L 158.7 165.8 L 163.1 167.7 L 167.2 169.7 L 171.0 171.7 L 174.5 173.9 L 177.7 176.3 L 180.5 178.7 L 182.0 183.0 L 180.1 187.2 L 175.7 188.6 L 171.6 186.7 L 169.9 184.5 Z M 60.4 180.5 L 58.7 182.2 L 56.8 183.7 L 54.8 185.0 L 52.6 186.1 L 50.3 186.9 L 48.0 187.5 L 45.5 187.8 L 43.0 188.0 L 43.0 182.0 L 29.0 179.0 L 29.0 176.0 L 43.0 176.0 L 44.4 175.9 L 45.7 175.7 L 46.9 175.4 L 47.9 175.1 L 48.9 174.6 L 49.8 174.0 L 50.6 173.3 L 51.4 172.5 L 52.3 171.5 L 53.0 170.3 L 56.0 163.8 L 58.7 153.2 L 60.6 139.5 L 61.2 123.6 L 60.1 106.1 L 59.24263515472412 101.01112489700317 L 58.6 102.2 L 54.2 109.3 L 49.4 116.2 L 44.2 122.7 L 38.7 129.0 L 32.8 135.0 L 26.4 140.6 L 19.7 145.9 L 12.4 150.7 L 11.3 149.2 L 17.1 143.0 L 22.7 136.8 L 28.0 130.5 L 32.9 124.2 L 37.5 117.7 L 41.7 111.0 L 45.5 104.2 L 49.1 97.2 L 52.2 90.1 L 55.0 82.7 L 55.620802116394046 82.9494294166565 L 51.6 69.1 L 48.79913969039917 62.883456516265866 L 43.1 68.5 L 35.9 74.8 L 28.4 80.5 L 20.5 85.5 L 12.3 89.7 L 11.4 88.2 L 18.4 82.4 L 25.1 76.3 L 31.5 70.0 L 37.7 63.2 L 43.6 56.1 L 44.94531593322754 54.329847526550296 L 43.4 50.9 L 32.2 33.7 L 18.0 17.3 L 19.1 15.9 L 36.3 30.2 L 49.3 47.5 L 49.61990852355957 48.123155212402345 L 54.6 40.7 L 59.7 32.3 L 64.5 23.5 L 68.64591636657715 15.118038558959961 L 68.6 15.1 L 69.6 13.1 L 79.8 19.5 L 81.6 22.6 L 77.89220209121704 22.919637775421144 L 74.5 29.0 L 68.8 38.0 L 62.9 46.4 L 56.6 54.3 L 54.18244371414185 57.01059341430664 L 58.9 66.2 L 65.5 85.6 L 65.79983758926392 87.03922042846679 L 66.2 87.2 L 65.94533758163452 87.7376205444336 L 69.5 104.8 L 71.2 123.3 L 71.2 140.3 L 69.6 155.1 L 67.0 167.3 L 63.3 176.5 L 61.9 178.5 Z M 106.7 92.0 L 157.4 92.0 L 163.4 87.0 L 174.4 96.0 L 169.4 100.0 L 169.4 152.0 L 157.4 158.0 L 157.4 152.0 L 106.7 152.0 L 106.7 155.0 L 94.7 161.0 L 94.7 86.0 Z M 106.7 133.0 L 106.7 148.0 L 157.4 148.0 L 157.4 133.0 Z M 106.7 114.0 L 106.7 129.0 L 157.4 129.0 L 157.4 114.0 Z M 106.7 96.0 L 106.7 110.0 L 157.4 110.0 L 157.4 96.0 Z M 79.8 76.0 L 126.1 76.0 L 126.1 60.0 L 105.7 60.0 L 105.7 63.0 L 93.7 69.0 L 93.7 26.0 L 105.7 32.0 L 126.1 32.0 L 126.1 14.0 L 138.1 16.0 L 141.1 18.0 L 138.1 19.8 L 138.1 32.0 L 158.5 32.0 L 164.5 27.0 L 175.5 36.0 L 170.5 40.0 L 170.5 62.0 L 158.5 68.0 L 158.5 60.0 L 138.1 60.0 L 138.1 76.0 L 168.21818180084227 76.0 L 176.4 67.0 L 186.4 76.0 L 186.4 80.0 L 79.8 80.0 Z M 105.7 36.0 L 105.7 56.0 L 126.1 56.0 L 126.1 36.0 Z M 138.1 36.0 L 138.1 56.0 L 158.5 56.0 L 158.5 36.0 Z " />
</g>
</svg>
