<svg xmlns="http://www.w3.org/2000/svg" xmlns:xlink="http://www.w3.org/1999/xlink" version="1.1" baseProfile="full" viewBox="0 0 200 200" width="200" height="200">
<g fill="black">
<path d="M 30.1 172.5 L 44.8 171.4 L 57.625910949707034 170.50931177139282 L 64.4 164.6 L 73.6 156.5 L 82.7 148.4 L 91.4 140.2 L 99.9 132.1 L 108.1 123.8 L 116.0 115.4 L 123.6 107.0 L 130.9 98.4 L 137.32509508132935 90.61749048233033 L 137.3 90.6 L 138.4 89.3 L 147.2 97.5 L 148.2 100.9 L 144.62283477783203 100.34492263793945 L 139.5 106.0 L 131.5 114.3 L 123.2 122.5 L 114.5 130.5 L 105.6 138.3 L 96.4 146.0 L 86.9 153.4 L 77.0 160.7 L 66.7 167.6 L 62.58906135559082 170.1596410751343 L 73.3 169.4 L 87.2 168.5 L 100.7 167.6 L 113.9 166.9 L 126.9 166.2 L 139.5 165.7 L 151.9 165.4 L 164.0 165.4 L 164.2 167.2 L 152.2 169.2 L 140.0 171.1 L 127.5 172.8 L 114.6 174.5 L 101.5 176.1 L 88.0 177.7 L 74.3 179.4 L 60.2 181.0 L 45.9 182.7 L 35.26480474472046 183.92992057800294 L 33.5 187.2 L 31.2 184.4 L 28.1 172.7 Z M 77.0 123.2 L 73.4 119.8 L 69.4 116.4 L 65.0 112.9 L 60.4 109.4 L 55.3 105.9 L 50.0 102.4 L 44.4 98.7 L 38.5 94.8 L 39.3 93.2 L 46.1 95.3 L 52.5 97.6 L 58.6 100.2 L 58.71858882904053 100.25617370605468 L 62.1 97.0 L 67.2 91.9 L 72.1 87.1 L 76.7 82.3 L 81.0 77.6 L 85.0 73.0 L 88.6 68.5 L 91.9 64.0 L 94.9 59.5 L 97.03588590621948 56.01929712295532 L 97.0 56.0 L 97.4442307472229 55.35384616851807 L 97.6 55.1 L 97.61289768218994 55.108512496948244 L 97.6875 55.0 L 15.0 55.0 L 15.0 51.0 L 94.0 51.0 L 94.0 15.0 L 106.0 17.0 L 109.0 19.0 L 106.0 20.8 L 106.0 51.0 L 163.0 51.0 L 173.0 41.0 L 185.0 51.0 L 185.0 55.0 L 98.88082189559937 55.0 L 107.6 61.7 L 109.0 65.0 L 105.1369402885437 64.86679105758667 L 104.1 66.2 L 100.3 70.7 L 96.2 75.1 L 91.7 79.4 L 87.0 83.7 L 81.9 87.9 L 76.4 92.1 L 70.6 96.1 L 64.4 100.0 L 61.527105712890624 101.5865237236023 L 64.3 102.9 L 69.7 105.8 L 74.8 108.8 L 79.6 111.9 L 84.0 115.1 L 88.2 118.4 L 92.1 121.8 L 93.6 126.1 L 91.8 130.3 L 87.5 131.9 L 83.3 130.1 L 80.4 126.7 Z " />
</g>
</svg>
