<svg xmlns="http://www.w3.org/2000/svg" xmlns:xlink="http://www.w3.org/1999/xlink" version="1.1" baseProfile="full" viewBox="0 0 200 200" width="200" height="200">
<g fill="black">
<path d="M 154.7 176.2 L 144.5 171.7 L 135.3 166.2 L 129.4490885734558 161.372998046875 L 125.4 165.1 L 116.1 172.1 L 106.2 177.9 L 95.8 182.4 L 84.9 185.5 L 73.5 187.4 L 73.2 185.6 L 83.8 181.9 L 93.7 177.4 L 103.0 172.2 L 111.6 166.0 L 119.7 158.8 L 123.19621696472169 155.07376871109008 L 120.5 152.1 L 114.9 143.6 L 110.6 134.2 L 107.7 123.9 L 106.1 112.9 L 107.9 112.6 L 111.6 122.7 L 116.0 131.7 L 121.0 139.7 L 126.8 146.6 L 128.95020580291748 148.55473251342772 L 134.3 141.6 L 140.8 131.5 L 146.8 120.3 L 150.31639347076415 112.5 L 92.1 112.5 L 92.1 108.5 L 151.8 108.5 L 157.8 103.5 L 168.8 112.5 L 163.8 115.5 L 161.50863790512085 116.45473423004151 L 156.9 125.6 L 149.9 137.2 L 142.4 147.6 L 136.31823444366455 154.5717800140381 L 140.8 157.6 L 149.2 161.7 L 158.4 165.0 L 168.7 167.4 L 180.0 168.9 L 190.3 170.1 L 178.4 182.0 L 166.1 179.6 Z M 14.6 153.9 L 20.5 152.3 L 26.7 150.5 L 32.9 148.6 L 37.6 147.22615385055542 L 37.6 95.0 L 18.6 95.0 L 18.6 91.0 L 37.6 91.0 L 37.6 44.0 L 15.5 44.0 L 15.5 40.0 L 57.0 40.0 L 67.0 30.0 L 79.0 40.0 L 79.0 44.0 L 49.6 44.0 L 49.6 91.0 L 53.8 91.0 L 63.8 81.0 L 75.8 91.0 L 75.8 95.0 L 49.6 95.0 L 49.6 143.57164182662964 L 52.7 142.6 L 59.7 140.4 L 66.8 138.2 L 74.1 136.1 L 81.7 134.1 L 82.4 135.8 L 75.6 139.7 L 68.8 143.2 L 62.1 146.5 L 55.5 149.6 L 49.0 152.6 L 42.6 155.4 L 36.3 158.1 L 30.2 160.6 L 24.2 163.0 L 22.22738027572632 163.76898736953734 L 21.2 167.5 L 18.3 165.3 L 12.7 154.6 Z M 159.2 98.6 L 151.6 92.2 L 145.1 84.9 L 139.7 76.7 L 135.5 67.7 L 132.5 57.9 L 130.8964810371399 48.45705499649048 L 128.6 56.9 L 124.1 68.2 L 118.3 78.3 L 111.3 87.0 L 103.2 94.3 L 93.9 100.3 L 83.6 104.7 L 72.2 107.6 L 71.8 105.8 L 82.1 101.2 L 91.1 95.7 L 98.9 89.3 L 105.6 82.0 L 111.1 73.8 L 115.6 64.5 L 119.0 54.0 L 121.4 42.5 L 122.7 29.8 L 123.0 15.9 L 123.0 13.5 L 135.0 15.9 L 138.0 17.9 L 134.76016826629638 19.843899059295655 L 134.1 30.7 L 133.77651624679567 32.81034631729126 L 134.2 35.7 L 136.5 46.3 L 139.4 55.8 L 141.14257144927979 59.697857189178464 L 142.1 58.9 L 145.5 55.8 L 148.9 52.8 L 152.2 49.9 L 155.3 47.1 L 158.4 44.2 L 161.4 41.4 L 164.3 38.6 L 167.1 35.8 L 169.0654623031616 33.761742782592776 L 169.0 33.7 L 169.546875 33.2625 L 169.8 33.0 L 169.83116884231566 33.03506488800049 L 170.0 32.9 L 177.8 42.0 L 178.3 45.6 L 174.52043342590332 44.385139274597165 L 174.5 44.4 L 171.0 46.8 L 167.5 49.1 L 163.9 51.4 L 160.1 53.7 L 156.3 55.8 L 152.3 57.9 L 148.2 59.9 L 143.8 61.7 L 142.31546440124512 62.321433544158936 L 143.2 64.3 L 147.7 71.8 L 152.9 78.3 L 159.0 84.0 L 165.8 88.8 L 173.5 92.8 L 182.1 96.1 L 189.2 98.6 L 177.7 108.5 L 167.9 104.1 Z M 79.4 69.6 L 79.1 65.0 L 82.0 61.5 L 84.4 60.5 L 86.6 59.1 L 88.7 57.5 L 90.6 55.5 L 92.4 53.1 L 93.9 50.2 L 95.3 46.9 L 96.5 43.1 L 97.5 38.8 L 98.0 34.0 L 99.8 34.0 L 100.4 38.8 L 100.9 43.5 L 100.9 47.9 L 100.5 52.2 L 99.6 56.2 L 98.2 60.0 L 96.2 63.5 L 93.8 66.8 L 90.9 69.7 L 87.5 72.2 L 82.9 72.5 Z " />
</g>
</svg>
