<svg xmlns="http://www.w3.org/2000/svg" xmlns:xlink="http://www.w3.org/1999/xlink" version="1.1" baseProfile="full" viewBox="0 0 200 200" width="200" height="200">
<g fill="black">
<path d="M 73.3 174.7 L 124.5 174.7 L 124.5 138.4 L 81.9 138.4 L 81.9 134.4 L 124.5 134.4 L 124.5 106.1 L 136.5 108.1 L 139.5 110.1 L 136.5 111.9 L 136.5 134.4 L 157.0 134.4 L 167.0 124.4 L 179.0 134.4 L 179.0 138.4 L 136.5 138.4 L 136.5 174.7 L 165.6 174.7 L 175.6 164.7 L 187.6 174.7 L 187.6 178.7 L 73.3 178.7 Z M 14.5 154.0 L 20.0 152.3 L 25.7 150.5 L 31.6 148.7 L 35.7 147.3333333015442 L 35.7 95.0 L 18.4 95.0 L 18.4 91.0 L 35.7 91.0 L 35.7 44.0 L 15.5 44.0 L 15.5 40.0 L 52.7 40.0 L 62.7 30.0 L 74.7 40.0 L 74.7 44.0 L 47.7 44.0 L 47.7 91.0 L 49.8 91.0 L 59.8 81.0 L 71.8 91.0 L 71.8 95.0 L 47.7 95.0 L 47.7 143.4 L 50.1 142.6 L 56.6 140.4 L 63.2 138.3 L 70.1 136.2 L 77.2 134.1 L 78.0 135.8 L 71.6 139.6 L 65.4 143.2 L 59.1 146.5 L 53.0 149.6 L 46.9 152.6 L 41.0 155.4 L 35.2 158.0 L 29.5 160.6 L 23.9 163.0 L 22.303422832489012 163.6800235748291 L 21.4 167.4 L 18.5 165.3 L 12.6 154.6 Z M 93.4 110.4 L 81.4 116.4 L 81.4 49.2 L 93.4 55.2 L 110.1 55.2 L 110.1 30.3 L 75.1 30.3 L 75.1 26.3 L 163.8 26.3 L 173.8 16.3 L 185.8 26.3 L 185.8 30.3 L 150.8 30.3 L 150.8 55.2 L 167.5 55.2 L 173.5 50.2 L 184.5 59.2 L 179.5 63.2 L 179.5 104.4 L 167.5 110.4 L 167.5 98.4 L 93.4 98.4 Z M 93.4 59.2 L 93.4 94.4 L 110.1 94.4 L 110.1 59.2 Z M 122.1 59.2 L 122.1 94.4 L 138.8 94.4 L 138.8 59.2 Z M 150.8 59.2 L 150.8 94.4 L 167.5 94.4 L 167.5 59.2 Z M 122.1 30.3 L 122.1 55.2 L 138.8 55.2 L 138.8 30.3 Z " />
</g>
</svg>
