<svg xmlns="http://www.w3.org/2000/svg" xmlns:xlink="http://www.w3.org/1999/xlink" version="1.1" baseProfile="full" viewBox="0 0 200 200" width="200" height="200">
<g fill="black">
<path d="M 89.2 28.5 L 171.7 28.5 L 177.7 23.5 L 188.7 32.5 L 183.7 36.5 L 183.7 178.4 L 171.7 184.4 L 171.7 174.4 L 89.2 174.4 L 89.2 181.4 L 77.2 187.4 L 77.2 22.5 Z M 155.7 136.3 L 151.7 130.4 L 148.0 124.1 L 144.6 117.2 L 141.5 109.8 L 138.7 101.9 L 136.8 95.51599998474121 L 136.8 161.1 L 124.8 167.1 L 124.8 103.4527777671814 L 124.7 103.7 L 120.7 112.1 L 116.4 119.8 L 111.8 127.0 L 106.9 133.5 L 101.6 139.4 L 95.9 144.5 L 89.9 148.8 L 89.2 147.98333330154418 L 89.2 170.4 L 171.7 170.4 L 171.7 141.175 L 164.6 146.5 L 160.0 141.7 Z M 14.0 154.0 L 19.4 152.3 L 24.9 150.5 L 30.6 148.7 L 34.5 147.3551724433899 L 34.5 95.0 L 17.9 95.0 L 17.9 91.0 L 34.5 91.0 L 34.5 44.0 L 15.1 44.0 L 15.1 40.0 L 50.5 40.0 L 60.5 30.0 L 72.5 40.0 L 72.5 44.0 L 46.5 44.0 L 46.5 91.0 L 51.418181800842284 91.0 L 59.6 82.0 L 69.6 91.0 L 69.6 95.0 L 46.5 95.0 L 46.5 143.28852462768555 L 48.5 142.6 L 54.8 140.5 L 61.3 138.3 L 68.0 136.2 L 74.9 134.1 L 75.6 135.8 L 69.5 139.6 L 63.5 143.2 L 57.4 146.5 L 51.5 149.6 L 45.6 152.5 L 39.9 155.3 L 34.3 158.0 L 28.8 160.5 L 23.4 162.9 L 21.93886709213257 163.53407649993898 L 21.0 167.4 L 18.1 165.2 L 12.1 154.7 Z M 89.2 32.5 L 89.2 146.7777777671814 L 93.2 141.8 L 97.5 135.9 L 101.5 129.7 L 105.4 123.0 L 108.9 115.9 L 112.3 108.2 L 115.4 100.0 L 118.2 91.3 L 120.7 82.1 L 122.14216871261597 75.8 L 91.2 75.8 L 91.2 71.8 L 124.8 71.8 L 124.8 38.5 L 136.8 40.5 L 139.8 42.5 L 136.8 44.3 L 136.8 71.8 L 148.4 71.8 L 158.4 61.8 L 170.4 71.8 L 170.4 75.8 L 136.8 75.8 L 136.8 80.28947372436524 L 138.1 83.3 L 141.7 91.5 L 145.4 99.2 L 149.1 106.3 L 152.8 112.8 L 156.7 118.7 L 160.7 124.1 L 164.8 128.8 L 169.0 133.0 L 171.7 135.31428575515747 L 171.7 32.5 Z " />
</g>
</svg>
