<svg xmlns="http://www.w3.org/2000/svg" xmlns:xlink="http://www.w3.org/1999/xlink" version="1.1" baseProfile="full" viewBox="0 0 200 200" width="200" height="200">
<g fill="black">
<path d="M 103.2 176.0 L 123.2 176.0 L 124.4 175.9 L 125.3 175.7 L 125.9 175.5 L 126.3 175.4 L 126.4 175.2 L 126.6 175.0 L 126.8 174.7 L 127.0 174.1 L 127.1 173.2 L 127.2 172.0 L 127.2 143.0 L 85.9 143.0 L 85.9 139.0 L 127.2 139.0 L 127.2 116.0 L 137.4720000267029 117.7119999885559 L 139.5 113.5 L 141.0 110.9 L 143.8 105.7 L 145.3 103.2 L 146.48461542129516 101.0 L 121.74018688201905 101.0 L 112.3 110.1 L 100.5 120.3 L 88.0 129.8 L 79.88294382095337 135.27286357879638 L 80.1 135.8 L 73.5 139.6 L 66.9 143.2 L 60.4 146.5 L 54.0 149.6 L 47.7 152.6 L 41.5 155.4 L 35.4 158.0 L 29.5 160.6 L 23.7 163.0 L 21.814973258972167 163.76062479019166 L 20.8 167.5 L 18.0 165.3 L 12.2 154.6 L 14.1 153.9 L 19.9 152.3 L 25.8 150.5 L 31.9 148.6 L 36.4 147.24285717010497 L 36.4 95.0 L 18.1 95.0 L 18.1 91.0 L 36.4 91.0 L 36.4 44.0 L 15.1 44.0 L 15.1 40.0 L 54.7 40.0 L 64.7 30.0 L 76.7 40.0 L 76.7 44.0 L 48.4 44.0 L 48.4 91.0 L 51.7 91.0 L 61.7 81.0 L 73.7 91.0 L 73.7 95.0 L 48.4 95.0 L 48.4 143.49090909957886 L 51.2 142.6 L 57.9 140.4 L 64.9 138.3 L 72.0 136.1 L 76.31972532272339 134.93250665664672 L 85.6 126.9 L 96.9 116.3 L 107.7 105.4 L 111.66785717010498 101.0 L 95.5 101.0 L 95.5 97.0 L 115.275 97.0 L 117.8 94.2 L 127.2 82.7 L 129.2193277359009 80.0 L 75.0 80.0 L 75.0 76.0 L 119.7 76.0 L 119.7 47.0 L 88.0 47.0 L 88.0 43.0 L 119.7 43.0 L 119.7 14.0 L 131.7 16.0 L 134.7 18.0 L 131.7 19.8 L 131.7 43.0 L 136.9181818008423 43.0 L 145.1 34.0 L 153.8975142478943 41.91776285171509 L 158.7 32.8 L 164.8384614944458 19.743589782714842 L 165.5 18.2 L 175.9 24.4 L 177.8 27.4 L 174.1147536277771 27.844771099090575 L 168.8 38.1 L 161.0 51.3 L 152.6 64.1 L 143.79593496322633 76.0 L 164.6 76.0 L 174.6 66.0 L 186.6 76.0 L 186.6 80.0 L 140.51538457870484 80.0 L 133.8 88.1 L 125.60884952545166 97.0 L 148.4 97.0 L 149.01395349502565 96.48837213516235 L 149.6 95.4 L 149.98145694732665 95.68211917877197 L 154.4 92.0 L 165.4 101.0 L 160.4 104.0 L 155.942857170105 105.85714282989503 L 152.8 109.0 L 150.5 111.0 L 148.3 113.1 L 146.0 115.1 L 143.7 117.0 L 141.3 118.8 L 140.86730766296387 119.1115385055542 L 142.2 120.0 L 139.2 121.8 L 139.2 139.0 L 159.1 139.0 L 169.1 129.0 L 181.1 139.0 L 181.1 143.0 L 139.2 143.0 L 139.2 172.0 L 139.1 174.5 L 138.6 177.0 L 137.8 179.4 L 136.6 181.7 L 134.9 183.7 L 132.9 185.3 L 130.7 186.6 L 128.2 187.4 L 125.8 187.8 L 123.2 188.0 L 123.2 182.0 L 103.2 179.0 Z M 131.7 47.0 L 131.7 76.0 L 132.21092433929442 76.0 L 136.1 70.8 L 144.3 58.5 L 151.1452381134033 47.0 Z " />
</g>
</svg>
