<svg xmlns="http://www.w3.org/2000/svg" xmlns:xlink="http://www.w3.org/1999/xlink" version="1.1" baseProfile="full" viewBox="0 0 200 200" width="200" height="200">
<g fill="black">
<path d="M 117.4 185.8 L 114.9 185.4 L 112.5 184.6 L 110.2 183.3 L 108.2 181.7 L 106.6 179.7 L 105.3 177.4 L 104.5 175.0 L 104.1 172.5 L 104.0 170.0 L 104.0 127.0 L 116.0 129.0 L 119.0 131.0 L 116.0 132.8 L 116.0 171.2 L 116.2 172.1 L 116.5 173.0 L 116.9 173.4 L 117.8 173.7 L 118.7 173.9 L 120.0 174.0 L 156.0 174.0 L 162.0 149.0 L 164.0 149.0 L 162.0 174.0 L 165.6 176.4 L 168.0 180.0 L 165.6 183.6 L 162.0 186.0 L 120.0 186.0 Z M 75.1 175.4 L 72.9 171.4 L 74.0 167.0 L 75.9 164.7 L 77.8 162.3 L 79.5 159.5 L 81.1 156.6 L 82.5 153.3 L 83.9 149.8 L 85.1 146.0 L 86.2 141.9 L 87.3 137.6 L 88.1 133.0 L 89.9 133.0 L 90.4 137.7 L 90.9 142.3 L 91.0 146.8 L 90.7 151.2 L 90.3 155.4 L 89.5 159.5 L 88.4 163.4 L 87.1 167.1 L 85.5 170.7 L 83.6 174.2 L 79.6 176.4 Z M 14.4 153.9 L 20.3 152.3 L 26.4 150.5 L 32.6 148.6 L 37.2 147.234375 L 37.2 95.0 L 18.5 95.0 L 18.5 91.0 L 37.2 91.0 L 37.2 44.0 L 15.4 44.0 L 15.4 40.0 L 56.2 40.0 L 66.2 30.0 L 78.2 40.0 L 78.2 44.0 L 49.2 44.0 L 49.2 91.0 L 53.1 91.0 L 63.1 81.0 L 75.1 91.0 L 75.1 95.0 L 49.2 95.0 L 49.2 143.54029846191406 L 52.2 142.6 L 59.1 140.4 L 66.2 138.2 L 73.4 136.1 L 80.9 134.1 L 81.6 135.8 L 74.9 139.7 L 68.2 143.2 L 61.5 146.5 L 55.0 149.6 L 48.5 152.6 L 42.2 155.4 L 36.0 158.1 L 30.0 160.6 L 24.0 163.0 L 22.135540008544922 163.73935480117797 L 21.1 167.5 L 18.2 165.3 L 12.5 154.6 Z M 173.4 155.2 L 172.3 151.5 L 171.1 147.9 L 169.7 144.4 L 168.2 140.9 L 164.8 134.1 L 163.0 130.6 L 161.0 127.3 L 162.3 126.1 L 165.4 128.6 L 168.5 131.2 L 171.4 134.1 L 174.1 137.2 L 176.6 140.4 L 179.0 143.9 L 181.2 147.5 L 183.2 151.3 L 185.1 155.2 L 186.8 159.3 L 186.3 163.9 L 182.8 166.8 L 178.3 166.3 L 175.3 162.8 L 174.5 159.0 Z M 136.8 135.3 L 135.3 132.2 L 133.7 129.2 L 131.9 126.2 L 129.9 123.3 L 127.8 120.5 L 125.5 117.7 L 123.1 114.9 L 120.3 112.2 L 121.3 110.7 L 124.8 112.5 L 128.3 114.2 L 131.7 116.2 L 134.8 118.6 L 137.8 121.1 L 140.7 123.8 L 143.3 126.8 L 145.8 129.9 L 148.1 133.2 L 150.2 136.8 L 150.3 141.3 L 147.2 144.7 L 142.6 144.8 L 139.2 141.7 L 138.1 138.4 Z M 166.7 100.9 L 165.1 97.5 L 163.4 94.0 L 162.95443563461305 93.17922344207764 L 158.4 94.4 L 149.0 96.7 L 139.8 98.8 L 131.0 100.7 L 122.4 102.6 L 114.1 104.4 L 106.1 106.0 L 98.4 107.7 L 91.0 109.2 L 87.94088516235351 109.84629182815551 L 86.4 113.3 L 83.9 110.7 L 80.0 99.2 L 82.0 98.9 L 89.2 98.0 L 96.7 97.1 L 104.5 96.1 L 104.70102462768554 96.07766389846802 L 105.7 93.8 L 108.2 88.3 L 110.8 82.9 L 113.2 77.7 L 115.6 72.6 L 118.0 67.6 L 120.2 62.7 L 122.2 57.8 L 124.2 53.0 L 125.72457752227783 49.30891752243042 L 125.7 49.3 L 126.6 47.2 L 137.0 53.4 L 138.9 56.4 L 135.1217409133911 56.855996799469 L 134.5 58.0 L 131.8 62.6 L 129.1 67.3 L 126.1 72.0 L 123.0 76.8 L 119.8 81.5 L 116.4 86.3 L 112.8 91.1 L 109.07265625 95.59192705154419 L 112.6 95.2 L 121.0 94.2 L 129.7 93.3 L 138.8 92.3 L 148.1 91.4 L 157.8 90.7 L 161.48784532546998 90.47872924804688 L 159.5 87.0 L 157.3 83.4 L 155.0 79.8 L 152.7 76.0 L 150.0 72.3 L 151.3 71.0 L 155.0 73.8 L 158.6 76.6 L 162.0 79.6 L 165.1 82.7 L 168.1 85.8 L 170.9 89.1 L 173.5 92.4 L 175.9 95.8 L 178.1 99.2 L 180.2 102.8 L 180.3 107.3 L 177.2 110.7 L 172.6 110.8 L 169.2 107.7 L 168.0 104.3 Z M 117.2 28.1 L 119.2 31.0 L 115.45371723175049 31.657242584228516 L 114.5 33.6 L 111.5 39.1 L 108.2 44.5 L 104.6 49.8 L 100.6 55.1 L 96.3 60.3 L 91.7 65.3 L 86.8 70.3 L 81.4 75.0 L 75.6 79.6 L 74.3 78.3 L 78.6 72.4 L 82.7 66.7 L 86.6 61.2 L 90.3 55.7 L 93.6 50.3 L 96.7 44.9 L 99.5 39.5 L 101.9 34.2 L 104.1 28.9 L 105.66408843994141 24.619336986541747 L 105.6 24.6 L 106.5 22.3 Z M 168.8 65.3 L 164.6 61.0 L 160.8 56.5 L 157.4 51.9 L 154.4 47.0 L 151.8 42.1 L 149.8 36.9 L 148.87024793624877 33.61487607955932 L 148.3 33.9 L 148.3 31.6 L 147.5333333015442 27.0 L 126.0 27.0 L 126.0 23.0 L 143.3800000190735 23.0 L 148.3 18.9 L 159.3 27.9 L 154.3 30.9 L 153.1086956977844 31.495652198791504 L 155.0 34.3 L 158.1 38.3 L 161.3 42.3 L 164.7 46.0 L 168.3 49.6 L 172.3 53.1 L 176.4 56.3 L 180.9 59.5 L 185.7 62.5 L 189.3 64.9 L 178.2 73.4 L 173.3 69.4 Z M 148.0 25.98823528289795 L 148.27428569793702 25.891428565979005 L 148.0 25.8 Z " />
</g>
</svg>
