<svg xmlns="http://www.w3.org/2000/svg" xmlns:xlink="http://www.w3.org/1999/xlink" version="1.1" baseProfile="full" viewBox="0 0 200 200" width="200" height="200">
<g fill="black">
<path d="M 14.0 153.7 L 18.1 152.2 L 22.2 150.5 L 26.5 148.8 L 31.0 147.0 L 31.0 95.0 L 18.5 95.0 L 18.5 91.0 L 31.0 91.0 L 31.0 43.1 L 16.6 43.1 L 16.6 39.1 L 41.21818180084229 39.1 L 49.4 30.1 L 59.4 39.1 L 59.4 43.1 L 43.0 43.1 L 43.0 91.0 L 47.0 91.0 L 51.5 85.0 L 57.5 91.0 L 57.5 95.0 L 43.0 95.0 L 43.0 142.075 L 45.1 141.2 L 50.1 139.2 L 55.4 137.3 L 60.8 135.5 L 61.7 137.0 L 57.2 140.6 L 52.7 144.0 L 48.2 147.0 L 43.8 149.9 L 39.4 152.7 L 35.2 155.3 L 31.0 157.8 L 26.9 160.2 L 22.81943016052246 162.5018599510193 L 22.2 166.5 L 19.1 164.6 L 12.2 154.6 Z M 181.1 156.0 L 179.2 157.6 L 177.3 159.0 L 175.2 160.2 L 173.0 161.1 L 170.7 161.9 L 168.4 162.4 L 166.0 162.7 L 163.5 162.8 L 163.5 156.8 L 156.5 154.175 L 156.5 183.7 L 146.5 188.7 L 146.5 43.6 L 142.5 46.0 L 142.5 99.0 L 132.5 104.0 L 132.5 95.0 L 113.5 95.0 L 113.5 120.0 L 126.01818180084229 120.0 L 134.2 111.0 L 144.2 120.0 L 144.2 124.0 L 113.5 124.0 L 113.5 149.0 L 126.01818180084229 149.0 L 134.2 140.0 L 144.2 149.0 L 144.2 153.0 L 113.5 153.0 L 113.5 178.0 L 101.5 184.0 L 101.5 96.7 L 101.16324787139892 96.86837606430053 L 100.2 105.4 L 98.0 117.3 L 95.2 128.5 L 91.6 139.1 L 87.4 149.2 L 82.5 158.5 L 76.8 167.2 L 70.4 175.2 L 63.3 182.4 L 55.5 188.8 L 54.3 187.5 L 60.6 179.9 L 66.2 172.0 L 71.3 163.7 L 75.7 155.0 L 79.6 145.8 L 82.8 136.2 L 85.5 126.0 L 87.22672061920166 116.76204452514648 L 86.2 117.5 L 83.0 119.6 L 79.7 121.6 L 76.4 123.5 L 66.5 128.9 L 63.81840000152588 130.3246000289917 L 62.9 134.4 L 60.0 132.3 L 53.8 121.8 L 55.6 121.1 L 59.1 120.1 L 62.6 119.2 L 65.04827585220337 118.51992340087891 L 66.0 115.7 L 68.7 107.8 L 71.4 100.0 L 74.0 92.4 L 76.5 84.9 L 78.9 77.5 L 81.1 70.1 L 83.2 62.8 L 85.2 55.7 L 86.7475806236267 49.50967741012573 L 86.7 49.5 L 86.96666669845581 48.63333330154419 L 87.0 48.5 L 87.00705089569092 48.50208463668823 L 87.5 46.9 L 98.5 51.9 L 100.9 54.6 L 97.26387310028076 55.55687551498413 L 96.1 59.0 L 93.4 66.2 L 90.6 73.4 L 87.6 80.7 L 84.4 88.0 L 81.1 95.3 L 77.5 102.6 L 73.6 109.9 L 69.4 117.2 L 69.33586702346801 117.30403804779053 L 69.7 117.2 L 73.3 116.2 L 80.7 114.2 L 84.4 113.3 L 87.83744621276855 112.57632713317871 L 88.9 104.0 L 89.6 92.2 L 89.66224069595337 92.20414934158325 L 89.8 90.0 L 101.5 92.97457628250122 L 101.5 33.0 L 113.5 39.0 L 116.21481485366822 39.0 L 116.4 38.0 L 116.6 32.6 L 116.7 30.1 L 116.8 27.5 L 116.9 25.1 L 116.9 16.918333339691163 L 116.7 16.9 L 117.2 14.0 L 128.7 18.0 L 131.3 20.4 L 127.19743585586548 21.99544162750244 L 127.0 22.5 L 126.0 24.7 L 125.0 27.0 L 123.9 29.3 L 122.8 31.7 L 121.5 34.0 L 120.2 36.4 L 118.7 38.7 L 118.56800003051758 39.0 L 132.5 39.0 L 137.5 34.0 L 146.5 42.1 L 146.5 26.4 L 156.5 31.4 L 174.3 31.4 L 180.3 26.4 L 191.3 35.4 L 186.3 38.4 L 184.60534353256224 39.10610685348511 L 183.3 42.5 L 181.6 46.8 L 179.8 51.3 L 177.8 56.0 L 175.6 61.0 L 173.2 66.3 L 170.6 71.9 L 167.7 77.7 L 164.4 83.6 L 162.7 83.0 L 164.1 76.4 L 165.6 70.1 L 167.0 64.2 L 168.4 58.6 L 169.8 53.3 L 171.0 48.4 L 172.0 43.8 L 173.0 39.4 L 173.8 35.5 L 173.81891889572142 35.4 L 156.5 35.4 L 156.5 150.8 L 165.0 150.8 L 166.3 150.6 L 167.6 150.3 L 169.8 149.5 L 170.8 148.9 L 171.8 148.2 L 172.8 147.3 L 173.7 146.4 L 174.6 145.2 L 175.5 143.8 L 176.6 140.2 L 177.5 135.2 L 177.8 129.2 L 177.5 122.4 L 176.4 115.1 L 174.5 107.6 L 171.7 100.0 L 168.0 92.5 L 163.6 84.7 L 164.9 83.4 L 172.3 89.4 L 177.8 96.8 L 181.9 104.8 L 184.9 113.0 L 186.8 121.1 L 187.8 128.8 L 188.0 135.9 L 187.6 142.2 L 186.4 147.6 L 184.3 152.3 L 182.7 154.3 Z M 113.5 69.0 L 113.5 91.0 L 132.5 91.0 L 132.5 69.0 Z M 65.0 74.4 L 64.5 71.3 L 63.9 68.3 L 63.0 65.4 L 62.1 62.6 L 60.9 59.8 L 59.6 57.0 L 58.2 54.1 L 56.3 51.6 L 57.6 50.3 L 60.2 52.3 L 63.0 54.3 L 64.58528432846069 55.75846157073975 L 64.8 55.1 L 66.2 50.7 L 67.7 46.3 L 69.2 42.0 L 72.0 33.4 L 73.4 29.2 L 76.0 20.8 L 76.91327228546143 17.60354690551758 L 76.9 17.6 L 77.0 17.3 L 77.2 16.6 L 77.22973680496216 16.610789489746093 L 77.7 15.2 L 88.5 20.7 L 90.6 23.6 L 86.81785717010499 24.329887199401856 L 86.6 24.8 L 82.6 33.0 L 80.4 37.1 L 78.2 41.1 L 75.8 45.1 L 73.3 49.0 L 70.7 52.9 L 67.9 56.8 L 66.83684854507446 58.111220073699954 L 67.8 59.2 L 69.9 62.0 L 71.8 65.0 L 73.5 68.2 L 75.1 71.5 L 76.4 75.1 L 77.5 78.8 L 76.3 83.3 L 72.5 85.7 L 68.0 84.6 L 65.6 80.7 L 65.4 77.5 Z M 113.5 43.0 L 113.5 65.0 L 132.5 65.0 L 132.5 43.0 Z " />
</g>
</svg>
