<svg xmlns="http://www.w3.org/2000/svg" xmlns:xlink="http://www.w3.org/1999/xlink" version="1.1" baseProfile="full" viewBox="0 0 200 200" width="200" height="200">
<g fill="black">
<path d="M 166.5 173.5 L 161.5 165.0 L 157.1 155.4 L 154.70335731506347 148.71462831497192 L 149.9 156.4 L 141.4 167.0 L 131.9 175.9 L 121.4 183.2 L 110.1 188.8 L 109.3 187.1 L 119.3 180.1 L 128.3 172.0 L 136.4 162.7 L 143.6 152.3 L 149.9 140.5 L 151.25153818130494 137.24629697799682 L 150.1 133.0 L 147.5 120.2 L 145.4 106.3 L 144.0 91.2 L 143.80566625595094 84.90358686447144 L 141.4 91.1 L 137.9 98.9 L 134.0 106.0 L 129.7 112.4 L 128.1 111.5 L 130.5 104.5 L 132.9 97.0 L 135.2 89.0 L 137.4 80.5 L 139.4 71.4 L 141.3 61.8 L 142.9 51.5 L 144.4 40.7 L 145.7 29.3 L 146.70831441879272 18.300206184387207 L 146.7 18.3 L 146.7287769317627 18.076978397369384 L 146.8 17.3 L 146.82863206863402 17.303101825714112 L 147.1 15.2 L 158.8 18.6 L 161.5 20.9 L 158.23856563568114 22.405277442932128 L 157.0 30.8 L 155.0 42.4 L 152.8 53.4 L 151.19805822372436 60.0 L 170.21818180084227 60.0 L 178.4 51.0 L 188.4 60.0 L 188.4 64.0 L 179.8046875 64.0 L 177.5 81.7 L 173.9 99.5 L 169.4 115.9 L 163.9 130.8 L 160.63226327896118 137.63711071014404 L 162.1 141.6 L 166.5 151.2 L 171.1 159.5 L 176.1 166.5 L 181.3 172.2 L 186.7 176.7 L 189.5 178.9 L 178.6 187.2 L 172.2 180.9 Z M 90.8 112.0 L 108.5 112.0 L 114.5 107.0 L 125.5 116.0 L 120.5 120.0 L 120.5 150.18000001907347 L 122.1 149.1 L 126.1 146.2 L 130.3 143.3 L 134.5 140.3 L 139.0 137.3 L 143.7 134.3 L 144.9 135.6 L 141.5 140.1 L 138.1 144.3 L 134.6 148.2 L 131.0 152.0 L 124.0 159.0 L 120.5 162.3 L 117.0 165.4 L 113.6 168.4 L 113.39106149673462 168.57821226119995 L 113.5 172.5 L 110.2 171.3 L 101.6 162.6 L 103.2 161.5 L 106.8 159.2 L 108.5 158.14324321746827 L 108.5 116.0 L 90.8 116.0 L 90.8 136.0 L 90.2 142.6 L 89.1 149.1 L 87.6 155.2 L 85.5 161.0 L 82.9 166.4 L 79.8 171.6 L 76.1 176.3 L 72.0 180.6 L 67.4 184.4 L 62.3 187.6 L 61.1 186.3 L 64.8 181.7 L 68.0 177.1 L 70.8 172.5 L 73.2 167.8 L 75.1 163.0 L 76.7 158.0 L 77.8 152.8 L 78.5 147.4 L 78.8 141.8 L 78.8 106.0 Z M 12.8 154.0 L 17.7 152.3 L 22.8 150.6 L 28.0 148.7 L 31.4 147.5037036895752 L 31.4 95.0 L 16.7 95.0 L 16.7 91.0 L 31.4 91.0 L 31.4 44.0 L 14.1 44.0 L 14.1 40.0 L 44.8 40.0 L 54.8 30.0 L 66.8 40.0 L 66.8 44.0 L 43.4 44.0 L 43.4 91.0 L 46.018181800842285 91.0 L 54.2 82.0 L 64.2 91.0 L 64.2 95.0 L 43.4 95.0 L 43.4 143.04210529327392 L 44.6 142.6 L 50.4 140.5 L 56.4 138.3 L 62.6 136.2 L 69.0 134.1 L 69.8 135.8 L 64.3 139.6 L 58.7 143.2 L 53.2 146.4 L 47.8 149.5 L 42.4 152.5 L 37.2 155.3 L 32.0 157.9 L 27.0 160.5 L 22.0 162.9 L 21.008031368255615 163.37531833648683 L 20.2 167.2 L 17.2 165.2 L 10.9 154.7 Z M 150.21734695434571 64.0 L 147.6 73.5 L 145.97751007080078 78.5912615776062 L 148.2 90.7 L 151.2 105.3 L 154.5 118.7 L 156.22827005386353 124.50890760421753 L 159.8 113.0 L 163.4 97.2 L 166.2 80.0 L 167.83440856933595 64.0 Z M 132.8 93.0 L 132.8 97.0 L 65.6 97.0 L 65.6 93.0 L 114.61818180084228 93.0 L 122.8 84.0 Z M 83.1 79.0 L 71.1 85.0 L 71.1 33.0 L 83.1 35.0 L 86.1 37.0 L 83.1 38.8 L 83.1 68.0 L 95.1 68.0 L 95.1 16.0 L 107.1 18.0 L 110.1 20.0 L 107.1 21.8 L 107.1 68.0 L 119.1 68.0 L 119.1 33.0 L 131.1 35.0 L 134.1 37.0 L 131.1 38.8 L 131.1 76.0 L 119.1 82.0 L 119.1 72.0 L 83.1 72.0 Z " />
</g>
</svg>
