<svg xmlns="http://www.w3.org/2000/svg" xmlns:xlink="http://www.w3.org/1999/xlink" version="1.1" baseProfile="full" viewBox="0 0 200 200" width="200" height="200">
<g fill="black">
<path d="M 90.2 183.8 L 78.2 189.8 L 78.2 149.2 L 90.2 151.2 L 93.2 153.2 L 90.2 155.0 L 90.2 172.8 L 120.0 172.8 L 120.0 144.7 L 64.8 144.7 L 64.8 140.7 L 120.0 140.7 L 120.0 122.2 L 94.640625 122.2 L 93.3 123.5 L 89.9 126.5 L 86.2 129.4 L 82.2 132.1 L 78.0 134.6 L 73.5 136.9 L 68.8 139.0 L 67.9 137.5 L 71.6 134.1 L 75.0 130.7 L 78.3 127.3 L 81.3 124.0 L 84.0 120.7 L 86.6 117.4 L 88.9 114.1 L 90.9 110.8 L 92.7 107.5 L 93.86321840286254 105.02816095352173 L 93.8 105.0 L 94.8 103.1 L 104.8 109.9 L 106.5 113.1 L 102.4815505027771 113.2385672569275 L 102.3 113.5 L 99.6 117.0 L 98.50909090042114 118.2 L 161.37777776718139 118.2 L 167.6 111.2 L 175.6 118.2 L 175.6 122.2 L 132.0 122.2 L 132.0 140.7 L 165.2 140.7 L 175.2 130.7 L 187.2 140.7 L 187.2 144.7 L 132.0 144.7 L 132.0 172.8 L 161.7 172.8 L 161.7 149.2 L 173.7 151.2 L 176.7 153.2 L 173.7 155.0 L 173.7 180.8 L 161.7 186.8 L 161.7 176.8 L 90.2 176.8 Z M 12.9 154.0 L 17.5 152.4 L 22.3 150.6 L 27.2 148.8 L 30.2 147.6 L 30.2 95.0 L 16.7 95.0 L 16.7 91.0 L 30.2 91.0 L 30.2 44.0 L 14.3 44.0 L 14.3 40.0 L 45.518181800842285 40.0 L 53.7 31.0 L 63.7 40.0 L 63.7 44.0 L 42.2 44.0 L 42.2 91.0 L 47.077777767181395 91.0 L 53.3 84.0 L 61.3 91.0 L 61.3 95.0 L 42.2 95.0 L 42.2 142.89811325073242 L 42.7 142.7 L 48.2 140.5 L 53.8 138.3 L 59.6 136.2 L 65.7 134.2 L 66.6 135.7 L 61.4 139.6 L 56.2 143.1 L 51.1 146.4 L 46.1 149.5 L 41.1 152.4 L 36.2 155.2 L 31.4 157.9 L 26.7 160.4 L 22.1 162.8 L 21.313743114471436 163.20186462402344 L 20.6 167.1 L 17.6 165.1 L 11.0 154.8 Z M 80.5 109.2 L 69.5 114.7 L 69.5 61.3 L 80.5 66.8 L 111.5 66.8 L 116.5 61.8 L 126.5 70.8 L 121.5 73.8 L 121.5 104.2 L 111.5 109.2 L 111.5 102.2 L 80.5 102.2 Z M 140.4 105.2 L 130.4 110.2 L 130.4 61.8 L 140.4 66.8 L 171.4 66.8 L 176.9 61.8 L 187.4 70.8 L 182.4 74.3 L 182.4 104.2 L 171.4 109.7 L 171.4 102.2 L 140.4 102.2 Z M 140.4 86.3 L 140.4 98.2 L 151.2 98.2 L 151.2 86.3 Z M 161.2 86.3 L 161.2 98.2 L 171.4 98.2 L 171.4 86.3 Z M 80.5 86.3 L 80.5 98.2 L 90.7 98.2 L 90.7 86.3 Z M 100.7 86.3 L 100.7 98.2 L 111.5 98.2 L 111.5 86.3 Z M 140.4 70.8 L 140.4 82.3 L 151.2 82.3 L 151.2 70.8 Z M 161.2 70.8 L 161.2 82.3 L 171.4 82.3 L 171.4 70.8 Z M 80.5 70.8 L 80.5 82.3 L 90.7 82.3 L 90.7 70.8 Z M 100.7 70.8 L 100.7 82.3 L 111.5 82.3 L 111.5 70.8 Z M 88.1 62.2 L 88.1 16.1 L 100.1 22.1 L 151.8 22.1 L 157.8 17.1 L 168.8 26.1 L 163.8 30.1 L 163.8 56.2 L 151.8 62.2 L 151.8 56.2 L 100.1 56.2 Z M 100.1 40.9 L 100.1 52.2 L 120.0 52.2 L 120.0 40.9 Z M 132.0 40.9 L 132.0 52.2 L 151.8 52.2 L 151.8 40.9 Z M 100.1 26.1 L 100.1 36.9 L 120.0 36.9 L 120.0 26.1 Z M 132.0 26.1 L 132.0 36.9 L 151.8 36.9 L 151.8 26.1 Z " />
</g>
</svg>
