<svg xmlns="http://www.w3.org/2000/svg" xmlns:xlink="http://www.w3.org/1999/xlink" version="1.1" baseProfile="full" viewBox="0 0 200 200" width="200" height="200">
<g fill="black">
<path d="M 168.1 171.1 L 168.4 172.0 L 168.8 172.4 L 169.7 172.7 L 170.6 172.9 L 171.8 173.0 L 174.5 173.0 L 180.5 148.0 L 182.5 148.0 L 180.5 173.0 L 184.1 175.4 L 186.5 179.0 L 184.1 182.6 L 180.5 185.0 L 171.8 185.0 L 169.2 184.8 L 166.7 184.4 L 164.3 183.6 L 162.1 182.3 L 160.1 180.7 L 158.4 178.7 L 157.2 176.4 L 156.4 174.0 L 156.0 171.5 L 155.9 168.9 L 156.58569965362548 73.0 L 132.9302158355713 73.0 L 128.87450790405273 166.95723333358765 L 130.3 166.5 L 135.8 164.8 L 141.6 163.1 L 147.6 161.6 L 153.8 160.1 L 154.5 161.8 L 149.0 165.1 L 143.6 168.1 L 138.3 170.9 L 123.3 178.4 L 118.6 180.7 L 114.1 183.0 L 109.7 185.1 L 109.26787567138672 185.30577354431153 L 108.5 189.2 L 105.5 187.1 L 100.6 179.2140625 L 100.6 181.2 L 97.4 184.5 L 92.9 184.5 L 89.6 181.4 L 87.6 175.6 L 86.4 172.7 L 85.1 169.9 L 83.6 167.0 L 81.9 164.1 L 80.2 161.3 L 78.3 158.4 L 76.3 155.4 L 73.9 152.6 L 75.0 151.3 L 78.2 153.3 L 81.3 155.3 L 84.3 157.5 L 87.1 159.8 L 89.7 162.3 L 92.2 164.9 L 94.5 167.7 L 96.7 170.5 L 98.7 173.5 L 100.38974361419677 176.25695009231566 L 101.0 176.0 L 105.4 174.5 L 110.0 173.0 L 114.8 171.4 L 116.7089503288269 170.78913593292236 L 122.55755395889283 33.0 L 106.6 33.0 L 106.6 29.0 L 159.4 29.0 L 169.4 19.0 L 181.4 29.0 L 181.4 33.0 L 134.65683450698853 33.0 L 133.10287771224975 69.0 L 156.7 69.0 L 162.7 64.0 L 173.7 73.0 L 168.7 76.0 L 167.70909872055054 76.4128755569458 L 167.9 169.0 L 167.9 170.2 Z M 93.2 145.6 L 92.3 142.8 L 91.72896604537964 141.34645891189575 L 85.9 142.6 L 76.8 144.3 L 68.2 145.8 L 66.0 146.17108430862427 L 66.0 181.4 L 54.0 187.4 L 54.0 148.08500003814697 L 51.9 148.4 L 44.4 149.4 L 37.2 150.4 L 30.4 151.3 L 23.9 152.1 L 21.953163814544677 152.32713088989257 L 20.0 155.6 L 17.9 152.8 L 15.1 140.9 L 17.1 140.8 L 23.2 140.7 L 29.6 140.6 L 36.4 140.4 L 43.6 140.2 L 51.2 139.9 L 54.248031520843504 139.7842519760132 L 55.2 138.1 L 57.7 133.7 L 60.2 129.4 L 62.5 125.3 L 64.9 121.4 L 67.0 117.5 L 69.1 113.8 L 71.1 110.2 L 72.9 106.7 L 74.22806320190429 104.26521739959716 L 74.1 104.2 L 75.2 102.5 L 84.9 109.7 L 86.4 112.9 L 82.42424240112305 112.9 L 80.0 116.1 L 77.3 119.4 L 74.5 122.8 L 71.6 126.2 L 65.2 133.2 L 61.7 136.7 L 58.703988265991214 139.61503839492798 L 59.1 139.6 L 67.5 139.3 L 76.3 139.0 L 85.5 138.8 L 90.68571424484253 138.8 L 90.0 137.2 L 88.6 134.4 L 87.1 131.6 L 85.4 128.8 L 83.7 125.8 L 81.5 123.1 L 82.7 121.8 L 85.6 123.9 L 88.6 125.9 L 91.4 128.1 L 94.0 130.4 L 96.4 133.0 L 98.6 135.6 L 100.7 138.4 L 102.6 141.3 L 104.4 144.3 L 105.9 147.4 L 105.6 152.0 L 102.2 155.0 L 97.6 154.7 L 94.6 151.3 L 93.9 148.5 Z M 47.2 159.4 L 49.0 162.6 L 44.87001190185547 162.81362009048462 L 42.9 165.5 L 40.5 168.4 L 37.9 171.2 L 35.1 174.0 L 32.2 176.6 L 29.1 179.1 L 25.8 181.5 L 22.3 183.7 L 18.7 186.0 L 17.6 184.6 L 20.3 181.5 L 22.6 178.2 L 24.9 175.1 L 27.0 172.0 L 29.0 168.9 L 30.8 165.9 L 32.5 162.9 L 34.0 159.9 L 35.4 156.9 L 36.2200927734375 154.84976816177368 L 36.1 154.8 L 37.1 152.9 Z M 140.7 124.5 L 140.2 120.6 L 139.7 116.8 L 139.0 113.2 L 138.2 109.7 L 136.2 102.9 L 135.1 99.5 L 133.6 96.3 L 135.1 95.2 L 137.6 97.8 L 140.2 100.6 L 142.5 103.7 L 144.6 107.0 L 146.5 110.6 L 148.2 114.4 L 149.7 118.3 L 151.0 122.5 L 152.1 126.8 L 153.0 131.4 L 151.7 135.7 L 147.7 137.9 L 143.3 136.6 L 141.1 132.6 L 140.9 128.4 Z M 41.9 128.5 L 40.9 125.9 L 39.8 123.4 L 38.5 120.9 L 37.1 118.4 L 35.5 116.0 L 33.7 113.5 L 31.8 111.0 L 29.5 108.8 L 30.5 107.3 L 33.4 108.9 L 36.4 110.4 L 39.2 112.1 L 41.9 114.0 L 44.373849391937256 116.07803344726562 L 45.2 113.9 L 46.3 111.1 L 47.3 108.4 L 48.4 105.7 L 50.4 100.5 L 52.75272045135498 93.96466541290283 L 52.6 93.9 L 53.6 92.0 L 63.7 98.6 L 65.4 101.8 L 61.053551006317136 102.02481632232666 L 60.3 103.0 L 58.5 105.2 L 56.7 107.5 L 54.8 109.6 L 52.8 111.8 L 50.7 114.0 L 48.6 116.1 L 46.40454549789429 118.02102270126343 L 46.8 118.4 L 49.0 120.9 L 51.0 123.6 L 52.9 126.4 L 54.6 129.3 L 54.4 133.9 L 51.1 137.1 L 46.6 136.9 L 43.4 133.7 L 42.7 131.1 Z M 95.3017391204834 83.57304344177246 L 91.7 84.9 L 87.9 86.1 L 84.2 87.1 L 80.6 88.1 L 77.1 89.0 L 73.7 89.8 L 70.4 90.6 L 68.434645652771 91.02992124557495 L 66.4 94.8 L 64.1 92.0 L 61.1 80.2 L 63.1 80.0 L 66.1 80.1 L 69.3 80.2 L 70.63157892227173 80.2 L 71.0 77.4 L 71.6 73.7 L 72.3 70.1 L 72.9 66.5 L 73.6 62.8 L 74.3 59.3 L 75.7 52.1 L 76.14080486297607 49.52863826751709 L 76.0 49.5 L 76.8 46.9 L 87.8 51.9 L 90.2 54.7 L 86.24730195999146 55.670838069915774 L 85.0 58.7 L 82.0 65.5 L 78.8 72.3 L 77.1 75.6 L 75.3 78.9 L 74.47863397598266 80.25525398254395 L 76.0 80.3 L 83.3 80.3 L 87.1 80.4 L 91.0 80.5 L 94.37208557128906 80.58224601745606 L 94.1 79.8 L 93.3 77.4 L 92.3 75.0 L 91.2 72.5 L 90.0 70.0 L 88.8 67.3 L 87.2 64.9 L 88.5 63.7 L 90.7 65.7 L 93.1 67.5 L 95.4 69.4 L 97.5 71.4 L 99.5 73.4 L 101.4 75.5 L 103.1 77.6 L 104.8 79.8 L 106.3 82.1 L 107.7 84.3 L 107.5 88.9 L 104.2 92.1 L 99.7 91.9 L 96.5 88.7 L 96.1 86.5 Z M 88.8 43.5 L 87.4 41.1 L 86.8812029838562 40.32180452346802 L 82.6 41.2 L 75.1 42.6 L 67.7 43.8 L 60.6 44.8 L 53.7 45.8 L 47.1 46.7 L 40.7 47.5 L 34.5 48.3 L 34.110571479797365 48.34620342254639 L 42.0 51.9 L 44.3 54.7 L 40.4472222328186 55.6462963104248 L 39.1 58.7 L 37.7 62.1 L 36.1 65.5 L 34.6 68.9 L 32.9 72.3 L 31.2 75.6 L 29.4 78.9 L 28.560595989227295 80.28501653671265 L 29.1 80.3 L 40.6 80.3 L 44.7 80.4 L 48.469681358337404 80.57533397674561 L 48.2 79.8 L 47.4 77.4 L 46.4 75.0 L 44.2 70.0 L 42.9 67.3 L 41.3 64.9 L 42.6 63.7 L 44.8 65.7 L 47.3 67.5 L 49.5 69.4 L 51.7 71.4 L 53.6 73.4 L 55.5 75.5 L 57.3 77.6 L 58.9 79.8 L 60.4 82.1 L 61.8 84.3 L 61.6 88.9 L 58.4 92.1 L 53.8 91.9 L 50.6 88.7 L 50.2 86.5 L 49.41632652282715 83.62653064727783 L 45.4 84.9 L 41.4 86.1 L 37.5 87.2 L 33.7 88.1 L 26.5 89.9 L 23.1 90.6 L 20.983969497680665 91.04885492324829 L 18.9 94.8 L 16.6 92.0 L 13.6 80.2 L 15.6 80.0 L 18.8 80.1 L 22.1 80.2 L 24.73157892227173 80.2 L 25.1 77.4 L 25.7 73.7 L 27.1 66.5 L 27.7 62.8 L 28.4 59.3 L 29.8 52.1 L 30.244174098968507 49.50898456573486 L 30.2 49.5 L 30.325842666625977 49.032584285736085 L 30.36737518310547 48.79031143188477 L 28.6 49.0 L 27.019561290740967 49.19408893585205 L 25.1 52.5 L 22.9 49.7 L 20.2 37.8 L 22.2 37.7 L 27.8 37.6 L 33.8 37.6 L 39.96638736724854 37.50054216384888 L 41.1 35.3 L 42.8 32.1 L 44.4 29.1 L 47.4 23.3 L 48.7 20.6 L 50.0 18.0 L 51.1 15.4 L 51.75307083129883 13.975118064880371 L 51.6 13.9 L 52.7 12.1 L 62.4 19.2 L 64.0 22.4 L 59.77391300201416 22.4 L 58.7 23.7 L 56.6 26.0 L 54.4 28.3 L 52.1 30.7 L 49.7 33.1 L 47.2 35.5 L 44.9570291519165 37.42254638671875 L 46.4 37.4 L 53.1 37.3 L 60.0 37.3 L 67.2 37.2 L 74.6 37.2 L 82.3 37.4 L 85.00807456970215 37.53540372848511 L 84.1 36.2 L 82.1 33.8 L 80.0 31.3 L 77.8 28.8 L 75.4 26.2 L 72.6 23.9 L 73.5 22.3 L 76.9 23.9 L 80.3 25.3 L 83.5 27.0 L 86.5 28.8 L 89.4 30.7 L 92.1 32.7 L 94.7 34.9 L 97.1 37.2 L 99.3 39.7 L 101.4 42.2 L 102.0 46.8 L 99.4 50.5 L 94.8 51.1 L 91.1 48.4 L 90.1 46.0 Z " />
</g>
</svg>
