<svg xmlns="http://www.w3.org/2000/svg" xmlns:xlink="http://www.w3.org/1999/xlink" version="1.1" baseProfile="full" viewBox="0 0 200 200" width="200" height="200">
<g fill="black">
<path d="M 32.1 174.0 L 38.6 173.5 L 45.3 173.0 L 52.1 172.4 L 59.0 171.7 L 68.12121210098266 170.68653202056885 L 69.4 168.2 L 71.2 164.8 L 72.9 161.7 L 74.5 158.7 L 75.9 155.8 L 77.1 153.1 L 78.2 150.6 L 79.1 148.2 L 79.51262140274048 146.84424409866332 L 79.4 146.8 L 79.72222223281861 146.1555555343628 L 79.8 145.9 L 79.84014873504638 145.91970262527465 L 80.4 144.8 L 81.4 145.42745094299318 L 81.4 141.4 L 49.7 141.4 L 37.7 147.4 L 37.7 108.9 L 49.7 114.9 L 81.4 114.9 L 87.4 109.9 L 98.4 118.9 L 93.4 122.9 L 93.4 141.4 L 83.14956521987915 146.52521743774415 L 90.6 151.2 L 92.4 154.3 L 88.01658983230591 154.67788019180298 L 87.1 155.9 L 85.2 158.3 L 83.1 160.7 L 80.8 163.2 L 75.7 168.3 L 73.7317811012268 170.06461000442505 L 80.9 169.3 L 88.5 168.5 L 96.3 167.7 L 100.90813703536988 167.3543897628784 L 101.0 167.1 L 103.2 159.3 L 105.0 150.9 L 106.5 142.0 L 107.6 132.4 L 108.3 122.2 L 108.6 111.4 L 108.5 100.0 L 108.5 26.0 L 119.90884952545166 31.70442476272583 L 121.9 31.2 L 129.1 29.4 L 135.8 27.6 L 142.2 25.8 L 148.2 24.0 L 153.8 22.0 L 159.0 19.9 L 163.8 17.8 L 168.2 15.5 L 171.31877670288085 13.628734016418457 L 171.3 13.6 L 171.32535209655762 13.624788761138916 L 172.2 13.1 L 173.76485414505004 16.01007957458496 L 180.3 22.4 L 180.4 25.7 L 176.72318840026855 24.204347801208495 L 173.0 25.8 L 167.8 27.7 L 163.7025951385498 28.966470623016356 L 165.5 47.3 L 167.6 66.4 L 169.7 84.3 L 172.0 101.0 L 174.5 116.5 L 177.3 130.8 L 180.4 143.8 L 183.6 155.6 L 187.2 166.2 L 190.9 175.5 L 181.8 188.0 L 178.7 180.4 L 175.3 170.1 L 172.3 158.7 L 169.6 146.2 L 167.3 132.6 L 165.3 117.9 L 163.7 102.0 L 162.5 85.0 L 161.7 66.8 L 161.4 47.5 L 161.66250619888305 29.562074661254883 L 156.4 30.9 L 150.3 32.2 L 143.8 33.3 L 137.0 34.1 L 129.9 34.7 L 122.4 35.0 L 120.5 34.951282024383545 L 120.5 100.0 L 120.0 111.8 L 119.0 123.1 L 117.6 133.7 L 115.7 143.7 L 113.3 153.0 L 110.4 161.6 L 107.1 169.5 L 103.2 176.7 L 98.8 183.0 L 93.9 188.5 L 92.4 187.4 L 95.6 181.0 L 98.4 174.3 L 99.75095911026001 170.55888242721556 L 97.0 171.5 L 89.5 173.8 L 82.1 175.8 L 74.8 177.6 L 67.6 179.3 L 60.5 180.9 L 53.5 182.3 L 46.7 183.6 L 40.0 184.8 L 37.60165920257568 185.20587301254272 L 35.8 188.7 L 33.5 185.9 L 30.1 174.3 Z M 160.8 170.5 L 160.2 166.6 L 159.60705881118776 163.29647054672242 L 159.6 163.3 L 154.6 165.6 L 149.6 167.7 L 144.6 169.6 L 139.7 171.5 L 134.8 173.2 L 130.0 174.9 L 125.3 176.5 L 120.6 178.0 L 120.04826593399048 178.17991333007814 L 118.7 182.0 L 116.0 179.5 L 111.2 168.4 L 113.1 167.9 L 117.8 167.0 L 122.6 166.1 L 132.4 164.3 L 134.3 163.91999998092652 L 134.3 37.0 L 146.3 39.0 L 149.3 41.0 L 146.3 42.8 L 146.3 161.65471696853638 L 153.1 160.5 L 158.5 159.7 L 158.89160842895507 159.65804195404053 L 158.7 158.7 L 157.8 154.6 L 156.8 150.4 L 155.7 146.2 L 154.6 141.7 L 153.3 137.2 L 154.9 136.5 L 157.6 140.4 L 160.2 144.3 L 162.4 148.2 L 164.5 152.2 L 166.4 156.2 L 168.1 160.1 L 169.7 164.1 L 171.1 168.1 L 172.3 172.1 L 173.4 176.0 L 172.2 180.5 L 168.4 182.9 L 164.0 181.8 L 161.5 177.9 L 161.2 174.3 Z M 47.5 164.0 L 47.3 162.5 L 46.8 160.8 L 46.1 159.0 L 45.2 157.1 L 44.0 155.1 L 42.6 153.0 L 41.1 150.8 L 38.9 149.0 L 39.9 147.5 L 42.4 149.0 L 45.0 150.1 L 47.5 151.4 L 49.7 152.8 L 51.8 154.4 L 53.7 156.1 L 55.4 157.9 L 56.9 159.9 L 58.2 162.1 L 59.3 164.4 L 58.4 168.9 L 54.6 171.5 L 50.1 170.6 L 47.5 166.9 L 47.6 165.5 Z M 49.7 118.9 L 49.7 137.4 L 81.4 137.4 L 81.4 118.9 Z M 100.2 100.6 L 100.2 104.6 L 31.8 104.6 L 31.8 100.6 L 82.01818180084229 100.6 L 90.2 91.6 Z M 93.5 67.5 L 95.5 67.5 L 93.5 80.5 L 96.2 82.3 L 98.0 85.0 L 96.2 87.7 L 93.5 89.5 L 59.3 89.5 L 57.0 89.2 L 54.7 88.6 L 52.5 87.6 L 50.5 86.2 L 48.8 84.3 L 47.5 82.2 L 46.6 79.9 L 46.0 77.5 L 45.7 75.0 L 45.7 71.16017694473267 L 29.0 73.82035398483276 L 29.0 111.0 L 28.6 121.2 L 27.9 130.8 L 26.9 139.9 L 25.7 148.3 L 24.2 156.1 L 22.4 163.3 L 20.3 169.9 L 17.8 175.8 L 15.0 181.0 L 11.8 185.4 L 10.2 184.5 L 11.5 179.5 L 12.8 174.1 L 13.9 168.2 L 14.9 161.8 L 15.8 154.8 L 16.5 147.2 L 16.9 139.0 L 17.1 130.3 L 17.2 120.9 L 17.0 111.0 L 17.0 38.0 L 29.0 44.0 L 48.9 44.0 L 48.9 12.0 L 60.9 14.0 L 63.9 16.0 L 60.9 17.8 L 60.9 26.0 L 72.71818180084229 26.0 L 80.9 17.0 L 90.9 26.0 L 90.9 30.0 L 60.9 30.0 L 60.9 44.0 L 90.7 44.0 L 96.7 39.0 L 107.7 48.0 L 102.7 51.0 L 99.6714285850525 52.2619047164917 L 98.7 53.8 L 97.4 55.8 L 96.0 57.8 L 94.6 59.9 L 93.1 61.9 L 91.6 64.0 L 89.9 66.0 L 88.6 68.3 L 87.0 67.6 L 87.7 65.1 L 88.0 62.5 L 88.4 59.9 L 89.6 52.7 L 90.0 50.4 L 90.4 48.2 L 90.42727270126343 48.0 L 51.7 48.0 L 57.7 49.0 L 60.7 51.0 L 57.7 52.8 L 57.7 65.24468088150024 L 62.52418699264526 64.47486381530761 L 70.9 53.0 L 84.3 61.0 L 85.0 64.9 L 57.7 69.24867258071899 L 57.7 75.0 L 57.6 76.2 L 57.7 77.2 L 57.7 77.9 L 57.8 78.4 L 57.9 78.7 L 58.2 79.1 L 58.6 79.5 L 59.3 79.9 L 60.3 80.2 L 61.7 80.5 L 89.0 80.5 Z M 29.0 48.0 L 29.0 69.82446804046631 L 45.7 67.15957450866699 L 45.7 48.0 Z " />
</g>
</svg>
