<svg xmlns="http://www.w3.org/2000/svg" xmlns:xlink="http://www.w3.org/1999/xlink" version="1.1" baseProfile="full" viewBox="0 0 200 200" width="200" height="200">
<g fill="black">
<path d="M 170.5 171.1 L 170.7 171.7 L 170.9 172.0 L 171.0 172.2 L 171.2 172.4 L 172.1 172.7 L 173.0 172.9 L 174.2 173.0 L 177.2 173.0 L 183.2 148.0 L 185.2 148.0 L 183.2 173.0 L 186.8 175.4 L 189.2 179.0 L 186.8 182.6 L 183.2 185.0 L 174.2 185.0 L 171.7 184.8 L 169.2 184.4 L 166.8 183.6 L 164.5 182.3 L 162.5 180.7 L 160.8 178.7 L 159.6 176.4 L 158.8 174.0 L 158.4 171.5 L 158.3 168.9 L 159.08365678787231 73.0 L 134.7007194519043 73.0 L 130.57503204345704 167.01156396865844 L 132.2 166.5 L 137.8 164.8 L 143.7 163.1 L 149.8 161.6 L 156.1 160.1 L 156.8 161.8 L 151.2 165.1 L 145.7 168.1 L 140.3 170.9 L 135.0 173.5 L 129.9 176.0 L 125.0 178.5 L 120.2 180.8 L 115.6 183.0 L 111.1 185.1 L 110.6189248085022 185.32375593185424 L 109.8 189.2 L 106.8 187.1 L 103.25242719650268 181.3 L 10.8 181.3 L 10.8 177.3 L 23.2 177.3 L 23.2 120.4 L 34.2 125.9 L 83.7 125.9 L 89.2 120.9 L 99.7 129.9 L 94.7 133.4 L 94.7 177.3 L 96.6 177.3 L 101.1 171.3 L 104.95 175.15 L 106.9 174.5 L 111.6 173.0 L 116.5 171.4 L 118.40925807952881 170.78903741836547 L 124.45611515045167 33.0 L 108.0 33.0 L 108.0 29.0 L 162.1 29.0 L 172.1 19.0 L 184.1 29.0 L 184.1 33.0 L 136.45611515045167 33.0 L 134.87625894546508 69.0 L 159.1 69.0 L 165.1 64.0 L 176.1 73.0 L 171.1 76.0 L 170.10909872055055 76.4128755569458 L 170.3 169.0 L 170.3 170.2 Z M 34.2 129.9 L 34.2 177.3 L 43.9 177.3 L 43.9 129.9 Z M 53.9 129.9 L 53.9 177.3 L 64.0 177.3 L 64.0 129.9 Z M 74.0 129.9 L 74.0 177.3 L 83.7 177.3 L 83.7 129.9 Z M 142.8 124.5 L 142.4 120.6 L 141.8 116.9 L 141.1 113.2 L 140.2 109.7 L 139.3 106.3 L 138.2 102.9 L 137.0 99.5 L 135.5 96.3 L 137.0 95.2 L 139.6 97.8 L 142.2 100.6 L 144.5 103.7 L 146.7 107.0 L 148.6 110.6 L 150.3 114.3 L 151.8 118.3 L 153.1 122.5 L 154.2 126.8 L 155.2 131.3 L 153.8 135.7 L 149.8 137.9 L 145.5 136.6 L 143.2 132.6 L 143.1 128.5 Z M 66.3 80.1 L 70.1 85.4 L 73.9 90.2 L 77.8 94.4 L 81.9 98.2 L 86.0 101.5 L 90.3 104.3 L 94.8 106.7 L 99.4 108.6 L 104.2 110.1 L 111.6 112.6 L 100.0 122.7 L 94.3 120.1 L 88.9 117.0 L 84.0 113.4 L 79.4 109.3 L 75.2 104.7 L 71.4 99.7 L 68.0 94.3 L 65.0 88.3 L 62.6 82.0 L 61.583054542541504 78.30688238143921 L 59.2 84.9 L 55.2 92.4 L 50.1 99.3 L 44.1 105.5 L 37.1 110.9 L 29.2 115.6 L 20.3 119.4 L 10.5 122.4 L 9.9 120.7 L 18.7 116.0 L 26.4 111.0 L 33.1 105.7 L 38.7 100.1 L 43.4 94.1 L 47.1 87.8 L 49.9 81.2 L 51.3450704574585 75.8 L 10.8 75.8 L 10.8 71.8 L 23.3 71.8 L 23.3 29.7 L 35.3 35.7 L 53.0 35.7 L 53.0 11.6 L 65.0 13.6 L 68.0 15.6 L 65.0 17.4 L 65.0 35.7 L 82.6 35.7 L 88.6 30.7 L 99.6 39.7 L 94.6 43.7 L 94.6 71.8 L 96.6 71.8 L 101.1 65.8 L 107.1 71.8 L 107.1 75.8 L 63.35789470672607 75.8 Z M 63.23636360168457 71.8 L 82.6 71.8 L 82.6 39.7 L 65.0 39.7 L 65.0 58.4 L 64.1 67.8 Z M 35.3 39.7 L 35.3 71.8 L 52.10263156890869 71.8 L 52.8 66.5 L 53.0 58.4 L 53.0 39.7 Z " />
</g>
</svg>
