<svg xmlns="http://www.w3.org/2000/svg" xmlns:xlink="http://www.w3.org/1999/xlink" version="1.1" baseProfile="full" viewBox="0 0 200 200" width="200" height="200">
<g fill="black">
<path d="M 170.7 179.7 L 169.1 181.6 L 167.4 183.3 L 165.4 184.7 L 163.2 185.9 L 161.0 186.8 L 158.6 187.5 L 156.1 187.8 L 153.6 188.0 L 153.6 182.0 L 133.6 179.0 L 133.6 176.0 L 153.6 176.0 L 155.0 175.9 L 156.2 175.7 L 157.2 175.4 L 158.1 175.1 L 159.7 174.1 L 160.4 173.4 L 161.1 172.6 L 161.7 171.6 L 162.3 170.4 L 163.4 167.2 L 164.6 162.1 L 165.8 155.0 L 166.8 146.2 L 167.7 135.7 L 168.6 123.5 L 169.3 109.6 L 169.9 94.0 L 170.4 76.8 L 170.7555555343628 60.0 L 165.3150288581848 60.0 L 163.5 75.7 L 160.8 92.0 L 157.4 107.2 L 153.4 121.3 L 148.6 134.4 L 143.1 146.4 L 136.9 157.3 L 130.0 167.0 L 122.3 175.5 L 113.9 182.6 L 112.7 181.3 L 119.4 173.0 L 125.6 163.9 L 131.2 154.0 L 136.2 143.2 L 140.6 131.5 L 144.5 118.7 L 147.7 105.0 L 150.2 90.2 L 152.2 74.4 L 153.25365858078004 60.0 L 142.98181819915771 60.0 L 141.6 69.5 L 139.6 80.2 L 137.1 90.5 L 134.1 100.4 L 130.7 109.9 L 126.7 118.9 L 122.3 127.6 L 117.4 135.7 L 111.8 143.4 L 105.7 150.5 L 104.3 149.4 L 108.7 141.3 L 112.7 133.1 L 116.4 124.7 L 119.7 116.0 L 122.7 107.0 L 125.2 97.8 L 127.3 88.2 L 129.1 78.3 L 130.3 68.0 L 130.93999996185303 60.0 L 122.98571424484253 60.0 L 121.9 63.8 L 119.1 71.8 L 116.0 79.4 L 112.5 86.5 L 108.6 93.2 L 104.2 99.4 L 102.6 98.5 L 105.2 91.5 L 107.6 84.4 L 109.8 77.1 L 111.9 69.5 L 113.7 61.6 L 115.2 53.4 L 116.5 45.0 L 117.6 36.1 L 118.3 27.0 L 118.746870803833 18.59882822036743 L 118.7 18.6 L 118.9 15.3 L 130.7 18.3 L 133.6 20.5 L 130.2583038330078 22.23511152267456 L 129.6 28.1 L 128.2 37.6 L 126.4 46.7 L 124.3 55.4 L 124.12857141494752 56.0 L 170.8 56.0 L 176.8 51.0 L 187.8 60.0 L 182.8 63.0 L 182.69436616897582 63.044014072418214 L 182.4 77.1 L 181.9 94.4 L 181.3 110.1 L 180.6 124.2 L 179.7 136.6 L 178.7 147.5 L 177.6 156.7 L 176.4 164.3 L 175.0 170.5 L 173.2 175.4 L 172.1 177.6 Z M 99.8 141.0 L 101.8 141.0 L 99.8 166.0 L 103.4 168.4 L 105.8 172.0 L 103.4 175.6 L 99.8 178.0 L 86.3 178.0 L 83.7 177.8 L 81.3 177.4 L 78.8 176.6 L 76.6 175.3 L 74.6 173.7 L 72.9 171.7 L 71.7 169.4 L 70.9 167.0 L 70.4 164.5 L 70.3 162.0 L 70.3 154.51014490127562 L 69.8 154.8 L 63.2 158.5 L 56.7 161.8 L 50.5 164.9 L 44.4 167.8 L 38.7 170.5 L 33.1 173.0 L 27.8 175.3 L 22.7 177.4 L 21.848516178131103 177.73704566955567 L 20.8 181.6 L 17.9 179.3 L 12.3 168.6 L 14.2 167.9 L 19.1 166.6 L 24.2 165.2 L 27.544528770446778 164.20902853012086 L 34.98740739822388 32.0 L 15.1 32.0 L 15.1 28.0 L 78.8 28.0 L 88.8 18.0 L 100.8 28.0 L 100.8 32.0 L 46.98740739822388 32.0 L 45.07333335876465 66.0 L 70.3 66.0 L 76.3 61.0 L 87.3 70.0 L 82.3 74.0 L 82.3 162.0 L 82.4 163.2 L 82.5 164.1 L 82.7 164.7 L 82.9 165.0 L 83.1 165.2 L 83.2 165.4 L 83.6 165.5 L 84.2 165.7 L 85.1 165.9 L 86.3 166.0 L 93.8 166.0 Z M 44.8481481552124 70.0 L 39.7596510887146 160.38777713775636 L 41.3 159.9 L 47.6 157.9 L 54.2 155.8 L 61.1 153.5 L 68.4 151.3 L 70.3 150.75 L 70.3 70.0 Z M 53.8 120.7 L 53.1 117.0 L 52.3 113.4 L 51.5 109.9 L 49.5 103.1 L 48.4 99.8 L 47.4 96.5 L 46.0 93.3 L 47.5 92.3 L 49.9 94.9 L 52.4 97.6 L 54.7 100.5 L 56.8 103.6 L 58.8 106.9 L 60.6 110.4 L 62.3 114.0 L 63.9 117.8 L 65.4 121.7 L 66.7 125.7 L 65.9 130.2 L 62.2 132.9 L 57.7 132.0 L 55.0 128.3 L 54.5 124.5 Z " />
</g>
</svg>
