<svg xmlns="http://www.w3.org/2000/svg" xmlns:xlink="http://www.w3.org/1999/xlink" version="1.1" baseProfile="full" viewBox="0 0 200 200" width="200" height="200">
<g fill="black">
<path d="M 181.0 147.5 L 183.0 147.5 L 181.0 172.5 L 184.6 174.9 L 187.0 178.5 L 184.6 182.1 L 181.0 184.5 L 143.0 184.5 L 140.4 184.3 L 137.9 183.9 L 135.5 183.1 L 133.2 181.8 L 131.2 180.2 L 129.6 178.2 L 128.3 175.9 L 127.5 173.5 L 127.1 171.0 L 127.0 168.5 L 127.0 139.2 L 71.2230502128601 139.2 L 62.95094499588013 173.29289112091064 L 70.2 173.0 L 80.3 172.7 L 90.6 172.5 L 101.1 172.4 L 111.9 172.6 L 112.0 174.4 L 101.4 176.2 L 91.0 177.8 L 80.8 179.2 L 70.8 180.6 L 61.1 181.8 L 51.5 183.0 L 42.2 184.2 L 33.1 185.4 L 24.2 186.5 L 19.590209484100342 187.08284711837769 L 17.8 190.4 L 15.5 187.6 L 12.4 175.9 L 14.4 175.7 L 23.1 175.2 L 32.1 174.7 L 41.3 174.2 L 50.526107501983645 173.80739965438843 L 63.314731407165525 121.1 L 15.0 121.1 L 15.0 117.1 L 161.0 117.1 L 171.0 107.1 L 183.0 117.1 L 183.0 121.1 L 75.61473140716552 121.1 L 72.19358749389649 135.2 L 127.0 135.2 L 133.0 130.2 L 144.0 139.2 L 139.0 143.2 L 139.0 169.7 L 139.2 170.6 L 139.5 171.5 L 139.9 171.9 L 140.8 172.2 L 141.7 172.4 L 143.0 172.5 L 175.0 172.5 Z M 102.6 163.2 L 100.3 161.0 L 97.8 159.0 L 95.1 156.9 L 92.2 155.0 L 89.1 153.0 L 85.8 151.1 L 82.4 149.1 L 78.7 147.4 L 79.2 145.7 L 87.4 146.9 L 91.3 147.7 L 95.1 148.7 L 98.7 150.0 L 102.2 151.4 L 105.6 153.0 L 108.8 154.8 L 111.9 156.7 L 114.9 158.8 L 116.7 163.0 L 115.1 167.3 L 110.9 169.1 L 106.7 167.6 L 104.7 165.3 Z M 153.0 96.8 L 142.5 90.1 L 133.2 82.5 L 132.1330761909485 81.39356050491332 L 125.7 85.7 L 112.2 92.7 L 97.2 98.6 L 80.9 103.2 L 63.2 106.7 L 62.8 104.9 L 79.8 99.6 L 95.3 93.5 L 109.3 86.8 L 121.6 79.3 L 126.50942754745483 75.56162853240967 L 125.1 74.1 L 118.2 64.8 L 112.6 54.7 L 108.2 43.9 L 105.2 32.4 L 103.71707315444947 21.0 L 85.6 21.0 L 85.6 17.0 L 164.4 17.0 L 170.4 12.0 L 181.4 21.0 L 176.4 24.0 L 174.7497859954834 24.687589168548584 L 171.6 34.0 L 165.4 46.5 L 157.7 58.0 L 148.5 68.4 L 140.59957904815673 75.19288530349732 L 148.7 80.9 L 158.5 86.4 L 169.3 91.1 L 181.2 95.0 L 188.9 97.4 L 177.2 107.6 L 164.6 102.7 Z M 32.4 17.8 L 65.0 17.8 L 71.0 12.8 L 82.0 21.8 L 77.0 25.8 L 77.0 86.8 L 65.0 92.8 L 65.0 84.8 L 32.4 84.8 L 32.4 96.8 L 20.4 102.8 L 20.4 11.8 Z M 32.4 62.9 L 32.4 80.8 L 65.0 80.8 L 65.0 62.9 Z M 105.8 21.0 L 109.2 31.2 L 113.7 41.7 L 118.9 51.3 L 125.0 59.9 L 132.0 67.7 L 134.0322359085083 69.50071535110473 L 141.8 61.9 L 149.6 52.1 L 156.0 41.4 L 161.0 29.9 L 163.51209678649903 21.0 Z M 32.4 42.3 L 32.4 58.9 L 65.0 58.9 L 65.0 42.3 Z M 132.9 43.4 L 131.9 42.0 L 130.5 40.6 L 128.7 39.0 L 126.6 37.4 L 124.1 35.8 L 121.3 34.0 L 118.2 32.2 L 114.6 30.8 L 115.0 29.1 L 118.9 29.9 L 122.6 30.3 L 126.0 30.9 L 129.2 31.6 L 132.2 32.4 L 134.9 33.3 L 137.4 34.4 L 139.7 35.7 L 141.8 37.2 L 143.7 39.0 L 144.5 43.5 L 142.0 47.3 L 137.4 48.0 L 133.6 45.5 L 133.4 44.6 Z M 32.4 21.8 L 32.4 38.3 L 65.0 38.3 L 65.0 21.8 Z " />
</g>
</svg>
