<svg xmlns="http://www.w3.org/2000/svg" xmlns:xlink="http://www.w3.org/1999/xlink" version="1.1" baseProfile="full" viewBox="0 0 200 200" width="200" height="200">
<g fill="black">
<path d="M 176.9 147.5 L 178.9 147.5 L 176.9 172.5 L 180.5 174.9 L 182.9 178.5 L 180.5 182.1 L 176.9 184.5 L 141.3 184.5 L 138.7 184.3 L 136.2 183.9 L 133.8 183.1 L 131.6 181.8 L 129.6 180.2 L 127.9 178.2 L 126.7 175.9 L 125.9 173.5 L 125.4 171.0 L 125.3 168.5 L 125.3 139.2 L 72.96689777374267 139.2 L 65.11128368377686 173.28037090301513 L 71.7 173.0 L 81.2 172.7 L 91.0 172.5 L 101.0 172.4 L 111.3 172.6 L 111.4 174.4 L 101.3 176.2 L 91.5 177.8 L 81.8 179.2 L 72.3 180.6 L 63.0 181.8 L 54.0 183.0 L 45.1 184.2 L 36.5 185.4 L 28.1 186.5 L 23.874362087249757 187.0600242614746 L 22.1 190.4 L 19.8 187.6 L 16.7 175.9 L 18.7 175.7 L 27.0 175.2 L 35.5 174.7 L 44.2 174.2 L 52.686244583129884 173.82283353805542 L 64.83899478912353 121.1 L 51.995348834991454 121.1 L 49.0 123.4 L 43.0 127.5 L 36.5 131.4 L 29.6 135.0 L 22.2 138.4 L 14.4 141.4 L 13.5 139.7 L 20.4 135.0 L 26.9 130.4 L 32.9 125.9 L 38.5 121.4 L 43.6 116.8 L 48.3 112.2 L 52.5 107.6 L 56.2 103.0 L 59.5 98.3 L 59.738297843933104 97.9 L 18.0 97.9 L 18.0 93.9 L 58.0 93.9 L 58.0 38.1 L 24.0 38.1 L 24.0 34.1 L 58.0 34.1 L 58.0 12.3 L 70.0 14.3 L 73.0 16.3 L 70.0 18.1 L 70.0 34.1 L 130.0 34.1 L 130.0 12.3 L 142.0 14.3 L 145.0 16.3 L 142.0 18.1 L 142.0 34.1 L 154.0 34.1 L 164.0 24.1 L 176.0 34.1 L 176.0 38.1 L 142.0 38.1 L 142.0 93.9 L 163.8181818008423 93.9 L 172.0 84.9 L 182.0 93.9 L 182.0 97.9 L 135.7 97.9 L 137.7 99.4 L 146.5 106.2 L 151.1 109.6 L 155.8 112.9 L 160.7 116.1 L 165.7 119.2 L 171.0 122.3 L 176.5 125.2 L 182.2 128.1 L 186.9 130.8 L 175.7 139.7 L 170.1 136.0 L 164.6 132.2 L 159.5 128.3 L 154.6 124.3 L 150.93170728683472 121.1 L 77.13899478912353 121.1 L 73.88890810012818 135.2 L 125.3 135.2 L 131.3 130.2 L 142.3 139.2 L 137.3 143.2 L 137.3 168.5 L 137.4 169.7 L 137.5 170.6 L 137.7 171.2 L 137.9 171.5 L 138.0 171.7 L 138.2 171.9 L 138.6 172.0 L 139.2 172.2 L 140.1 172.4 L 141.3 172.5 L 170.9 172.5 Z M 102.2 163.0 L 100.0 160.9 L 97.7 158.9 L 95.2 156.9 L 92.5 154.9 L 89.6 153.0 L 86.5 151.0 L 83.3 149.1 L 79.8 147.4 L 80.3 145.7 L 84.2 146.4 L 88.1 146.9 L 91.8 147.8 L 95.4 148.8 L 98.9 150.0 L 102.3 151.5 L 105.5 153.0 L 108.6 154.8 L 111.6 156.8 L 114.4 158.9 L 116.1 163.1 L 114.4 167.4 L 110.2 169.1 L 105.9 167.4 L 104.1 165.2 Z M 72.5 99.9 L 74.0 103.2 L 70.09138851165771 103.13261013031006 L 68.7 105.0 L 64.4 109.9 L 59.7 114.6 L 56.86666669845581 117.1 L 134.01818180084229 117.1 L 140.41703615188598 110.06126022338867 L 137.9 107.0 L 134.6 102.2 L 132.2779999732971 97.9 L 69.8055555343628 97.9 Z M 70.0 78.0 L 70.0 93.9 L 130.0 93.9 L 130.0 78.0 Z M 70.0 58.0 L 70.0 74.0 L 130.0 74.0 L 130.0 58.0 Z M 70.0 38.1 L 70.0 54.0 L 130.0 54.0 L 130.0 38.1 Z " />
</g>
</svg>
