<svg xmlns="http://www.w3.org/2000/svg" xmlns:xlink="http://www.w3.org/1999/xlink" version="1.1" baseProfile="full" viewBox="0 0 200 200" width="200" height="200">
<g fill="black">
<path d="M 86.7 172.0 L 131.4 172.0 L 131.4 119.0 L 99.2 119.0 L 99.2 115.0 L 131.4 115.0 L 131.4 67.0 L 111.54545450210571 67.0 L 110.4 71.2 L 108.0 78.6 L 105.4 85.7 L 102.5 92.6 L 99.2 99.1 L 95.5 105.3 L 93.9 104.6 L 95.7 97.7 L 97.4 90.8 L 99.1 83.8 L 100.7 76.6 L 102.1 69.2 L 103.4 61.7 L 104.4 53.9 L 105.3 46.0 L 106.0 37.8 L 106.4 29.5 L 106.46220836639404 29.504665660858155 L 106.6 27.3 L 118.4 30.4 L 121.2 32.7 L 117.90061349868775 34.349693298339844 L 117.3 39.1 L 115.9 47.4 L 114.3 55.6 L 112.61392402648926 63.0 L 131.4 63.0 L 131.4 13.0 L 143.4 15.0 L 146.4 17.0 L 143.4 18.8 L 143.4 63.0 L 160.8 63.0 L 170.8 53.0 L 182.8 63.0 L 182.8 67.0 L 143.4 67.0 L 143.4 115.0 L 153.7 115.0 L 163.7 105.0 L 175.7 115.0 L 175.7 119.0 L 143.4 119.0 L 143.4 172.0 L 165.3 172.0 L 175.3 162.0 L 187.3 172.0 L 187.3 176.0 L 86.7 176.0 Z M 82.7 136.8 L 81.6 134.7 L 80.5 132.7 L 79.4 130.8 L 78.2 129.0 L 77.0 127.4 L 75.7 125.8 L 75.12280702590942 125.14035091400146 L 76.0 134.0 L 76.0 144.2 L 75.1 154.4 L 73.1 164.5 L 70.1 174.7 L 69.1 177.0 L 67.9 179.2 L 66.4 181.2 L 64.7 183.0 L 62.8 184.5 L 60.7 185.8 L 58.4 186.8 L 56.0 187.4 L 53.5 187.8 L 51.0 188.0 L 51.0 182.0 L 35.0 179.0 L 35.0 176.0 L 51.0 176.0 L 52.3 175.9 L 53.5 175.7 L 54.4 175.4 L 55.2 175.1 L 56.0 174.7 L 56.6 174.2 L 57.2 173.5 L 57.8 172.7 L 58.9 170.5 L 62.1 161.5 L 64.5 152.5 L 66.0 143.4 L 66.00228652954101 143.36962203979493 L 65.3 144.1 L 59.9 148.9 L 54.1 153.5 L 48.1 157.8 L 41.6 161.9 L 34.9 165.7 L 27.7 169.1 L 20.2 172.1 L 12.3 174.8 L 11.6 173.1 L 18.5 168.8 L 25.1 164.4 L 31.4 160.0 L 37.4 155.6 L 42.9 151.1 L 48.2 146.4 L 53.0 141.6 L 57.5 136.6 L 61.7 131.6 L 65.5 126.3 L 66.6254280090332 127.16480255126953 L 66.6 124.8 L 65.6 115.3 L 64.5189655303955 109.78103446960449 L 61.0 113.3 L 56.1 117.8 L 51.0 122.0 L 45.7 126.0 L 40.2 129.7 L 34.5 133.2 L 28.6 136.4 L 22.5 139.3 L 16.1 141.7 L 15.2 140.2 L 20.5 136.0 L 25.7 131.9 L 30.7 127.8 L 35.6 123.7 L 40.3 119.4 L 44.8 115.0 L 49.1 110.5 L 53.2 105.9 L 57.2 101.1 L 61.0 96.2 L 61.17481203079224 96.34097747802734 L 61.0 95.7 L 57.6 85.6 L 56.669515228271486 83.37116441726684 L 56.1 83.9 L 49.1 89.8 L 41.9 95.3 L 34.7 100.3 L 27.4 104.7 L 20.0 108.6 L 12.4 111.7 L 11.5 110.2 L 18.0 105.3 L 24.4 100.3 L 30.8 95.0 L 37.2 89.4 L 43.5 83.5 L 49.7 77.2 L 55.9 70.5 L 62.1 63.4 L 68.1 55.9 L 74.2 48.0 L 74.20953350067138 48.007606506347656 L 74.6 47.5 L 83.6 55.5 L 84.7 58.9 L 81.04287424087525 58.39556884765625 L 76.8 63.2 L 70.0 70.6 L 63.1 77.4 L 59.141740798950195 81.07552642822266 L 61.0 84.0 L 66.0 93.8 L 69.79809522628784 103.29523811340331 L 70.3 103.7 L 70.04991760253907 103.96639213562011 L 70.16875 104.3625 L 70.6 103.5 L 73.6 98.5 L 75.2 96.1 L 76.8 93.6 L 81.9 86.1 L 83.12496643066406 84.39865770339966 L 83.0 84.3 L 84.0 83.2 L 92.5 91.8 L 93.3 95.3 L 89.17571115493774 94.4317286491394 L 87.7 95.6 L 83.1 99.4 L 80.7 101.2 L 78.4 103.0 L 76.0 104.7 L 73.6 106.3 L 71.2 107.8 L 73.0 113.8 L 74.59578943252563 121.85873680114746 L 75.4 122.1 L 77.7 122.5 L 79.9 123.2 L 82.2 124.2 L 84.4 125.5 L 86.6 127.0 L 88.8 128.7 L 90.9 130.7 L 93.0 132.9 L 95.1 135.2 L 95.7 139.8 L 93.1 143.5 L 88.6 144.2 L 84.8 141.5 L 83.8 139.1 Z M 34.4 70.8 L 34.1 68.8 L 33.7 66.7 L 33.0 64.6 L 32.1 62.4 L 31.0 60.1 L 29.7 57.8 L 28.2 55.4 L 26.1 53.3 L 27.2 51.8 L 29.8 53.6 L 32.5 55.0 L 34.9 56.7 L 37.2 58.6 L 39.3 60.6 L 41.1 62.8 L 42.8 65.2 L 44.2 67.7 L 45.3 70.4 L 46.2 73.2 L 45.0 77.6 L 41.0 79.9 L 36.6 78.7 L 34.3 74.7 L 34.4 72.8 Z M 51.2 55.6 L 50.7 53.3 L 49.9 51.0 L 49.0 48.8 L 47.9 46.6 L 46.6 44.5 L 45.1 42.3 L 43.851439476013184 40.70461702346802 L 43.0 41.2 L 37.4 44.1 L 31.6 46.8 L 25.6 49.2 L 19.5 51.2 L 13.2 52.8 L 12.6 51.1 L 18.0 47.7 L 23.3 44.4 L 28.5 41.0 L 33.5 37.6 L 38.4 34.0 L 43.2 30.4 L 47.8 26.6 L 52.3 22.6 L 56.6 18.5 L 60.052941131591794 15.047058868408204 L 60.0 15.0 L 61.0 14.1 L 69.0 23.0 L 69.7 26.5 L 65.9853515625 25.5224609375 L 64.1 27.1 L 59.0 30.9 L 53.8 34.6 L 48.5 38.0 L 46.92065486907959 38.918891716003415 L 47.6 39.2 L 50.2 40.6 L 52.7 42.4 L 55.0 44.4 L 57.1 46.6 L 59.1 49.1 L 60.8 51.8 L 62.2 54.7 L 63.4 57.7 L 62.6 62.2 L 58.9 64.9 L 54.4 64.0 L 51.7 60.3 L 51.5 57.9 Z " />
</g>
</svg>
