<svg xmlns="http://www.w3.org/2000/svg" xmlns:xlink="http://www.w3.org/1999/xlink" version="1.1" baseProfile="full" viewBox="0 0 200 200" width="200" height="200">
<g fill="black">
<path d="M 105.8 95.0 L 107.5 98.2 L 102.75735607147217 98.44530916213989 L 101.2 100.1 L 97.8 103.3 L 95.9 104.8 L 93.9 106.4 L 91.8 107.9 L 91.01428575515747 108.4 L 148.0 108.4 L 154.0 103.4 L 165.0 112.4 L 160.0 116.4 L 160.0 181.7 L 148.0 187.7 L 148.0 179.7 L 52.0 179.7 L 52.0 182.7 L 40.0 188.7 L 40.0 102.4 L 52.0 108.4 L 87.36666669845582 108.4 L 87.9 107.7 L 88.9 105.4 L 90.0 103.1 L 91.0 101.0 L 91.9 98.9 L 93.5 94.9 L 94.1 93.0 L 94.7 91.2 L 94.92369012832641 90.39471559524536 L 94.7 90.3 L 95.7 88.4 Z M 52.0 156.3 L 52.0 175.7 L 148.0 175.7 L 148.0 156.3 Z M 52.0 134.4 L 52.0 152.3 L 148.0 152.3 L 148.0 134.4 Z M 52.0 112.4 L 52.0 130.4 L 148.0 130.4 L 148.0 112.4 Z M 16.0 82.0 L 94.0 82.0 L 94.0 62.0 L 40.0 62.0 L 40.0 58.0 L 94.0 58.0 L 94.0 38.0 L 53.17446804046631 38.0 L 52.0 39.2 L 47.1 43.9 L 41.9 48.4 L 36.4 53.0 L 30.5 57.4 L 24.2 61.6 L 17.5 65.7 L 16.4 64.2 L 21.8 58.7 L 27.0 53.3 L 31.9 48.1 L 36.6 43.0 L 41.0 38.0 L 45.1 33.0 L 48.9 28.1 L 52.4 23.2 L 55.5 18.3 L 57.88041486740112 14.442086315155029 L 57.8 14.4 L 58.9 12.8 L 68.5 20.0 L 69.9 23.3 L 66.0581799507141 23.233761692047118 L 64.8 24.9 L 60.9 29.7 L 57.04791669845581 34.0 L 94.0 34.0 L 94.0 13.0 L 106.0 15.0 L 109.0 17.0 L 106.0 18.8 L 106.0 34.0 L 152.0 34.0 L 162.0 24.0 L 174.0 34.0 L 174.0 38.0 L 106.0 38.0 L 106.0 58.0 L 141.8181818008423 58.0 L 150.0 49.0 L 160.0 58.0 L 160.0 62.0 L 106.0 62.0 L 106.0 82.0 L 162.0 82.0 L 172.0 72.0 L 184.0 82.0 L 184.0 86.0 L 16.0 86.0 Z " />
</g>
</svg>
