<svg xmlns="http://www.w3.org/2000/svg" xmlns:xlink="http://www.w3.org/1999/xlink" version="1.1" baseProfile="full" viewBox="0 0 200 200" width="200" height="200">
<g fill="black">
<path d="M 41.7 46.5 L 118.33511114120483 46.5 L 117.8 37.9 L 117.41729106903077 15.798559093475342 L 117.4 15.8 L 117.4 12.4 L 129.4 14.8 L 132.4 16.8 L 129.466259765625 18.56024408340454 L 129.8 37.5 L 130.37798166275024 46.5 L 160.6 46.5 L 170.6 36.5 L 182.6 46.5 L 182.6 50.5 L 130.63486242294312 50.5 L 131.2 59.3 L 133.6 80.2 L 137.0 99.7 L 141.6 117.6 L 144.1363925933838 124.6406759262085 L 147.1 118.0 L 151.6 104.9 L 155.2 91.0 L 157.90527505874633 77.10048351287841 L 157.9 77.1 L 157.99056606292726 76.66226415634155 L 158.1 76.1 L 158.10665159225465 76.10118379592896 L 158.5 74.2 L 169.9 78.2 L 172.5 80.7 L 169.00354614257813 82.05973205566406 L 166.3 93.7 L 161.7 108.3 L 156.3 121.9 L 150.0 134.5 L 148.77404584884644 136.44809160232543 L 154.4 147.7 L 162.7 159.2 L 172.1 168.3 L 175.5983051300049 170.34067792892455 L 180.5 149.1 L 182.5 149.1 L 180.63987731933594 173.2815951347351 L 182.9 174.6 L 186.0 178.0 L 186.0 182.6 L 182.7 185.7 L 178.1 185.6 L 164.9 177.8 L 153.6 167.0 L 144.1 153.8 L 141.2134831428528 148.02696628570556 L 134.6 156.6 L 125.6 166.2 L 115.6 174.6 L 104.9 181.8 L 93.2 187.9 L 92.4 186.3 L 102.7 178.7 L 112.2 170.5 L 120.8 161.6 L 128.6 151.9 L 135.6 141.4 L 136.79404258728027 139.18808507919312 L 136.4 138.4 L 130.1 121.1 L 125.3 102.2 L 121.7 81.9 L 119.2 60.4 L 118.5840000152588 50.5 L 41.7 50.5 L 41.7 68.0 L 89.21818180084229 68.0 L 97.4 59.0 L 107.4 68.0 L 107.4 72.0 L 65.249382686615 72.0 L 63.83358020782471 90.8 L 81.7 90.8 L 87.7 85.8 L 98.7 94.8 L 93.7 98.8 L 93.7 145.2 L 93.8 146.4 L 93.9 147.3 L 94.1 147.9 L 94.3 148.2 L 94.5 148.4 L 94.6 148.6 L 95.0 148.7 L 95.6 148.9 L 96.5 149.1 L 97.7 149.2 L 100.6 149.2 L 106.6 124.2 L 108.6 124.2 L 106.6 149.2 L 110.2 151.6 L 112.6 155.2 L 110.2 158.7 L 106.6 161.2 L 97.7 161.2 L 95.1 161.0 L 92.7 160.6 L 90.2 159.8 L 88.0 158.5 L 86.0 156.9 L 84.3 154.9 L 83.1 152.6 L 82.3 150.2 L 81.8 147.7 L 81.73025455474854 145.95636367797852 L 77.1 148.1 L 71.9 150.4 L 66.9 152.5 L 62.1 154.4 L 57.5 156.1 L 53.0 157.8 L 48.8 159.3 L 44.93409461975098 160.62006521224976 L 43.6 164.4 L 40.9 161.9 L 36.1 150.8 L 38.1 150.3 L 41.9 149.6 L 46.0 148.9 L 47.47886848449707 148.62486171722412 L 53.24938268661499 72.0 L 41.7 72.0 L 41.7 100.0 L 41.1 111.4 L 40.1 122.3 L 38.6 132.6 L 36.6 142.3 L 34.2 151.5 L 31.2 160.1 L 27.7 168.0 L 23.7 175.3 L 19.1 181.9 L 13.9 187.6 L 12.5 186.5 L 15.9 179.9 L 18.9 172.9 L 21.6 165.5 L 24.0 157.7 L 26.0 149.4 L 27.5 140.6 L 28.7 131.2 L 29.4 121.3 L 29.8 110.9 L 29.7 100.0 L 29.7 40.5 Z M 63.53234567642212 94.8 L 59.66086750030517 146.20815258026124 L 59.7 146.2 L 64.7 145.2 L 70.0 144.1 L 75.5 143.0 L 81.3 142.0 L 81.7 141.94098358154298 L 81.7 94.8 Z M 68.4 122.7 L 68.0 120.6 L 67.5 118.6 L 66.9 116.6 L 66.3 114.5 L 65.5 112.4 L 64.8 110.3 L 63.5 108.5 L 64.9 107.3 L 66.5 108.8 L 68.5 110.2 L 70.4 111.7 L 72.2 113.3 L 73.8 115.0 L 75.4 116.9 L 76.9 118.9 L 78.2 120.9 L 79.5 123.1 L 80.7 125.4 L 80.2 129.9 L 76.7 132.8 L 72.1 132.3 L 69.2 128.8 L 69.0 126.7 Z M 148.5 32.8 L 147.3 30.8 L 146.0 28.9 L 144.6 27.0 L 143.0 25.2 L 141.3 23.3 L 139.4 21.4 L 137.2 20.0 L 137.9 18.4 L 140.5 19.3 L 143.3 19.9 L 145.9 20.9 L 148.5 22.0 L 150.9 23.4 L 153.3 24.9 L 155.6 26.7 L 157.7 28.6 L 159.8 30.7 L 161.7 32.9 L 162.3 37.5 L 159.6 41.2 L 155.1 41.7 L 151.4 39.0 L 149.6 34.8 Z " />
</g>
</svg>
