<svg xmlns="http://www.w3.org/2000/svg" xmlns:xlink="http://www.w3.org/1999/xlink" version="1.1" baseProfile="full" viewBox="0 0 200 200" width="200" height="200">
<g fill="black">
<path d="M 138.1243169784546 79.4852367401123 L 138.3 79.5 L 138.23292303085327 80.05073719024658 L 138.3 80.4 L 141.6 94.7 L 145.2 108.0 L 149.4 120.4 L 154.1 131.8 L 159.4 142.4 L 165.1 152.0 L 171.5 160.7 L 178.3 168.6 L 185.7 175.5 L 187.6 177.2 L 176.8 185.3 L 169.0 176.9 L 162.0 167.8 L 155.7 157.8 L 150.2 147.0 L 145.5 135.4 L 141.5 123.0 L 138.2 109.8 L 136.01859455108644 97.07513513565064 L 133.6 109.6 L 130.1 123.2 L 125.7 135.8 L 120.6 147.3 L 114.7 157.8 L 107.9 167.1 L 100.4 175.4 L 92.0 182.3 L 82.9 188.0 L 81.9 186.5 L 89.6 179.4 L 96.4 171.7 L 102.6 163.3 L 108.1 154.0 L 112.9 143.8 L 117.0 132.7 L 120.4 120.6 L 123.1 107.6 L 125.1 93.5 L 126.4 78.5 L 126.4 73.2 L 91.8 73.2 L 91.8 69.2 L 126.4 69.2 L 126.4 15.6 L 138.4 17.6 L 141.4 19.6 L 138.4 21.4 L 138.4 69.2 L 161.3 69.2 L 171.3 59.2 L 183.3 69.2 L 183.3 73.2 L 138.4 73.2 L 138.4 79.0 L 138.11362466812133 79.42956295013428 Z M 32.8 178.8 L 20.8 184.8 L 20.8 73.2 L 32.8 79.2 L 77.1 79.2 L 83.1 74.2 L 94.1 83.2 L 89.1 87.2 L 89.1 166.8 L 77.1 172.8 L 77.1 166.8 L 32.8 166.8 Z M 32.8 124.4 L 32.8 162.8 L 49.0 162.8 L 49.0 124.4 Z M 61.0 124.4 L 61.0 162.8 L 77.1 162.8 L 77.1 124.4 Z M 32.8 83.2 L 32.8 120.4 L 49.0 120.4 L 49.0 83.2 Z M 61.0 83.2 L 61.0 120.4 L 77.1 120.4 L 77.1 83.2 Z M 162.0 45.5 L 161.0 42.6 L 159.8 39.8 L 158.4 36.9 L 156.7 34.1 L 154.7 31.2 L 152.6 28.4 L 150.1 25.5 L 147.2 22.8 L 148.2 21.3 L 151.9 23.2 L 155.4 25.0 L 158.7 27.2 L 161.8 29.6 L 164.6 32.2 L 167.2 35.0 L 169.5 38.0 L 171.5 41.2 L 173.3 44.6 L 174.8 48.2 L 174.2 52.8 L 170.6 55.6 L 166.0 54.9 L 163.2 51.3 L 162.7 48.4 Z M 14.6 49.4 L 49.2 49.4 L 49.2 14.5 L 61.2 16.5 L 64.2 18.5 L 61.2 20.3 L 61.2 49.4 L 77.61818180084228 49.4 L 85.8 40.4 L 95.8 49.4 L 95.8 53.4 L 14.6 53.4 Z " />
</g>
</svg>
