<svg xmlns="http://www.w3.org/2000/svg" xmlns:xlink="http://www.w3.org/1999/xlink" version="1.1" baseProfile="full" viewBox="0 0 200 200" width="200" height="200">
<g fill="black">
<path d="M 106.0 16.0 L 109.0 18.0 L 106.0 19.8 L 106.0 38.0 L 166.0 38.0 L 176.0 28.0 L 188.0 38.0 L 188.0 42.0 L 106.0 42.0 L 106.0 182.0 L 94.0 188.0 L 94.0 42.0 L 12.0 42.0 L 12.0 38.0 L 94.0 38.0 L 94.0 14.0 Z M 27.8 167.7 L 15.8 173.7 L 15.8 57.2 L 27.8 63.2 L 68.6 63.2 L 74.6 58.2 L 85.6 67.2 L 80.6 71.2 L 80.6 161.7 L 68.6 167.7 L 68.6 155.7 L 27.8 155.7 Z M 175.0 167.1 L 172.1 163.3 L 169.0 158.8 L 165.8 153.6 L 162.5 147.7 L 159.0 141.2 L 155.4 133.9 L 151.7 125.8 L 149.232279586792 119.69924669265747 L 149.0 120.5 L 144.3 132.3 L 138.7 143.0 L 132.3 152.5 L 125.1 160.7 L 117.0 167.5 L 108.1 172.9 L 107.1 171.4 L 114.5 164.6 L 121.1 157.1 L 126.9 148.7 L 132.0 139.4 L 136.4 129.1 L 140.1 117.7 L 141.01519842147826 113.75517911911011 L 140.7 113.9 L 137.4 115.8 L 134.2 117.5 L 131.1 119.1 L 128.2 120.5 L 125.5 121.8 L 122.9 123.0 L 120.5 124.2 L 120.40197868347168 124.24261798858643 L 118.8 128.6 L 116.1 126.1 L 111.4 114.9 L 113.4 114.4 L 115.5 114.3 L 116.28638429641724 114.23161878585816 L 116.6 111.2 L 117.4 105.6 L 118.2 100.1 L 119.0 94.7 L 119.7 89.3 L 120.4 84.0 L 121.0 78.8 L 121.5 73.6 L 121.9 68.4 L 122.14109592437744 64.30136985778809 L 122.1 64.3 L 122.4 61.2 L 134.1 64.7 L 136.9 67.0 L 133.42996063232422 68.57133855819703 L 133.2 69.9 L 132.1 75.2 L 129.5 85.8 L 128.0 91.1 L 126.4 96.4 L 124.6 101.7 L 122.6 107.0 L 120.3 112.3 L 119.46666669845581 113.96666669845581 L 120.3 113.9 L 123.0 113.6 L 126.0 113.2 L 129.1 112.8 L 132.5 112.3 L 136.1 111.8 L 139.9 111.4 L 141.65559167861937 110.99486341476441 L 143.0 105.2 L 145.2 91.7 L 146.6 77.0 L 147.25581884384155 62.19723215103149 L 147.2 62.2 L 147.4 58.9 L 159.3 61.6 L 162.2 63.7 L 158.9693176269531 65.47370796203613 L 157.9 78.0 L 155.8 93.3 L 152.8 107.4 L 150.13114566802977 116.60052423477173 L 155.3 123.8 L 160.4 130.9 L 165.1 137.4 L 169.5 143.2 L 173.5 148.3 L 177.2 152.6 L 180.5 156.2 L 183.5 159.0 L 186.1 161.0 L 188.1 162.1 L 191.9 164.6 L 180.9 173.1 L 177.9 170.4 Z M 27.8 111.5 L 27.8 151.7 L 42.2 151.7 L 42.2 111.5 Z M 54.2 111.5 L 54.2 151.7 L 68.6 151.7 L 68.6 111.5 Z M 27.8 67.2 L 27.8 107.5 L 42.2 107.5 L 42.2 67.2 Z M 54.2 67.2 L 54.2 107.5 L 68.6 107.5 L 68.6 67.2 Z " />
</g>
</svg>
