<svg xmlns="http://www.w3.org/2000/svg" xmlns:xlink="http://www.w3.org/1999/xlink" version="1.1" baseProfile="full" viewBox="0 0 200 200" width="200" height="200">
<g fill="black">
<path d="M 75.7 51.7 L 74.4 48.2 L 74.33760004043579 48.03680000305176 L 73.0 48.6 L 67.4 50.8 L 61.8 52.6 L 56.2 54.3 L 50.8 55.8 L 46.91689929962158 56.806729793548584 L 58.2 61.3 L 60.6 63.9 L 57.09075593948364 65.04847984313965 L 55.3 71.1 L 53.613978481292726 76.0 L 72.8 76.0 L 82.8 66.0 L 94.8 76.0 L 94.8 80.0 L 64.46999998092652 80.0 L 67.0 84.6 L 70.2 90.3 L 73.3 95.7 L 76.4 100.8 L 79.7 105.5 L 83.0 109.9 L 86.4 113.9 L 89.9 117.6 L 93.5 121.0 L 97.3 124.0 L 99.4 125.8 L 88.6 133.9 L 84.7 129.8 L 82.2 126.82702703475952 L 82.2 176.8 L 71.2 182.3 L 71.2 176.8 L 37.7 176.8 L 37.7 183.8 L 26.7 189.3 L 26.7 124.26666669845581 L 25.3 125.9 L 19.5 131.6 L 13.3 136.6 L 12.0 135.3 L 16.7 129.1 L 21.1 122.6 L 25.3 115.9 L 26.7 113.38717947006225 L 26.7 107.5 L 29.258695697784425 108.7793478012085 L 32.8 101.5 L 36.1 93.7 L 39.2 85.5 L 40.947058868408206 80.0 L 14.1 80.0 L 14.1 76.0 L 42.1777777671814 76.0 L 44.4 68.0 L 46.5 58.5 L 46.52110004425049 58.50504961013794 L 46.897379875183105 56.81179037094116 L 45.4 57.2 L 40.1 58.4 L 34.8 59.5 L 29.7 60.5 L 28.718503570556642 60.673205280303954 L 26.9 64.2 L 24.6 61.4 L 21.4 49.6 L 23.4 49.4 L 28.3 49.2 L 33.4 48.9 L 37.76798105239868 48.557413291931155 L 37.9 48.0 L 38.5 44.1 L 39.3 40.3 L 40.0 36.6 L 40.8 32.8 L 42.2 25.4 L 42.8 21.7 L 43.4 17.9 L 43.83688287734985 15.205888843536377 L 43.8 15.2 L 43.939999961853026 14.569999980926514 L 44.0 14.2 L 44.0210620880127 14.20522050857544 L 44.4 12.5 L 55.7 17.1 L 58.1 19.8 L 54.34732828140259 20.939203929901122 L 53.0 24.5 L 50.0 31.7 L 48.3 35.3 L 46.6 38.8 L 44.8 42.3 L 42.9 45.8 L 41.2744966506958 48.2382550239563 L 43.8 48.0 L 49.2 47.5 L 54.8 46.9 L 60.4 46.2 L 66.2 45.5 L 72.1 44.9 L 73.10717897415161 44.81877584457398 L 73.1 44.8 L 71.7 41.6 L 70.2 38.4 L 68.6 35.2 L 66.9 32.2 L 65.2 29.1 L 63.3 26.2 L 64.5 25.0 L 67.4 27.1 L 70.4 29.2 L 73.2 31.7 L 75.8 34.4 L 78.4 37.4 L 80.8 40.5 L 83.0 43.8 L 85.2 47.3 L 87.2 51.0 L 89.2 54.8 L 89.0 59.4 L 85.7 62.6 L 81.1 62.4 L 77.9 59.1 L 76.9 55.3 Z M 115.2 47.0 L 138.3 47.0 L 138.3 13.0 L 150.3 15.0 L 153.3 17.0 L 150.3 18.8 L 150.3 47.0 L 163.6 47.0 L 173.6 37.0 L 185.6 47.0 L 185.6 51.0 L 115.2 51.0 L 115.2 85.0 L 128.1 85.0 L 128.1 61.0 L 139.1 63.0 L 141.9 65.0 L 139.1 66.75 L 139.1 85.0 L 158.1 85.0 L 158.1 61.0 L 170.1 63.0 L 173.1 65.0 L 170.1 66.8 L 170.1 85.0 L 173.87777776718139 85.0 L 180.1 78.0 L 188.1 85.0 L 188.1 89.0 L 170.1 89.0 L 170.1 132.0 L 158.1 138.0 L 158.1 128.0 L 139.1 128.0 L 139.1 135.0 L 128.1 140.5 L 128.1 89.0 L 115.2 89.0 L 115.2 103.0 L 114.7 114.4 L 113.7 125.3 L 112.2 135.5 L 110.2 145.1 L 107.6 154.0 L 104.6 162.2 L 101.1 169.7 L 97.0 176.5 L 92.4 182.4 L 87.2 187.5 L 86.0 186.4 L 89.5 180.4 L 92.8 174.1 L 95.6 167.2 L 98.1 159.9 L 100.2 151.9 L 101.8 143.4 L 103.0 134.2 L 103.9 124.4 L 104.2 114.0 L 104.2 41.5 Z M 175.0 176.1 L 174.7 173.3 L 173.5 167.5 L 172.7 164.6 L 171.8 161.5 L 170.7 158.4 L 169.6 155.2 L 168.0 152.1 L 169.4 151.0 L 171.8 153.7 L 174.3 156.2 L 176.6 158.9 L 178.6 161.7 L 180.5 164.5 L 182.2 167.4 L 183.7 170.4 L 185.1 173.4 L 186.2 176.5 L 187.2 179.7 L 186.1 184.1 L 182.2 186.5 L 177.8 185.4 L 175.4 181.5 L 175.3 178.8 Z M 109.3 185.6 L 107.6 181.4 L 109.4 177.2 L 110.4 176.6 L 111.5 175.6 L 112.7 174.1 L 114.0 172.0 L 115.1 169.6 L 116.3 166.7 L 117.3 163.3 L 118.4 159.6 L 119.4 155.5 L 120.0 150.9 L 121.8 151.0 L 122.1 155.6 L 122.6 160.0 L 122.8 164.0 L 122.8 167.8 L 122.6 171.4 L 122.2 174.7 L 121.5 177.7 L 120.6 180.6 L 119.4 183.3 L 117.7 185.8 L 113.5 187.4 Z M 153.7 174.3 L 153.6 171.8 L 153.5 169.2 L 153.2 166.6 L 152.8 163.9 L 152.3 161.2 L 151.7 158.5 L 151.0 155.6 L 149.8 152.9 L 151.3 151.9 L 153.2 154.3 L 155.3 156.6 L 157.1 159.1 L 158.8 161.6 L 160.3 164.2 L 161.7 167.0 L 162.8 169.8 L 163.8 172.6 L 164.7 175.6 L 165.3 178.6 L 163.8 182.9 L 159.7 184.9 L 155.4 183.4 L 153.4 179.3 L 153.6 176.8 Z M 138.0 184.9 L 133.9 182.9 L 132.3 178.6 L 132.8 176.2 L 133.2 173.7 L 133.5 171.2 L 133.7 168.7 L 133.8 166.1 L 133.7 163.6 L 133.6 160.9 L 133.4 158.2 L 133.1 155.5 L 132.3 152.8 L 134.0 152.1 L 135.4 154.5 L 137.1 156.9 L 138.6 159.4 L 139.9 162.0 L 141.1 164.7 L 142.1 167.5 L 142.9 170.3 L 143.5 173.3 L 144.0 176.2 L 144.3 179.3 L 142.3 183.4 Z M 37.7 146.4 L 37.7 172.8 L 49.5 172.8 L 49.5 146.4 Z M 59.5 146.4 L 59.5 172.8 L 71.2 172.8 L 71.2 146.4 Z M 37.7 117.0 L 37.7 142.4 L 49.5 142.4 L 49.5 117.0 Z M 59.5 117.0 L 59.5 142.4 L 71.2 142.4 L 71.2 117.0 Z M 139.1 89.0 L 139.1 124.0 L 158.1 124.0 L 158.1 89.0 Z M 52.237634372711184 80.0 L 52.1 80.4 L 48.5 89.2 L 44.6 97.5 L 40.3 105.4 L 36.079381465911865 112.18969068527221 L 37.7 113.0 L 71.2 113.0 L 72.49130430221558 111.82608699798584 L 71.7 110.3 L 69.1 104.7 L 66.7 98.8 L 64.7 92.6 L 63.1 86.1 L 62.12753620147705 80.0 Z " />
</g>
</svg>
