<svg xmlns="http://www.w3.org/2000/svg" xmlns:xlink="http://www.w3.org/1999/xlink" version="1.1" baseProfile="full" viewBox="0 0 200 200" width="200" height="200">
<g fill="black">
<path d="M 46.0 20.0 L 49.0 22.0 L 46.0 23.8 L 46.0 77.0 L 97.0 77.0 L 97.0 18.0 L 109.0 20.0 L 112.0 22.0 L 109.0 23.8 L 109.0 39.0 L 161.0 39.0 L 161.0 18.0 L 173.0 20.0 L 176.0 22.0 L 173.0 23.8 L 173.0 169.0 L 172.8 171.5 L 172.4 174.0 L 171.6 176.4 L 170.3 178.7 L 168.7 180.7 L 166.7 182.3 L 164.4 183.6 L 162.0 184.4 L 159.5 184.8 L 157.0 185.0 L 157.0 179.0 L 143.0 176.0 L 143.0 173.0 L 157.0 173.0 L 158.2 172.9 L 159.1 172.7 L 160.0 172.4 L 160.4 172.0 L 160.7 171.1 L 160.9 170.2 L 161.0 169.0 L 161.0 120.0 L 109.0 120.0 L 109.0 180.0 L 97.0 186.0 L 97.0 120.0 L 46.0 120.0 L 46.0 124.0 L 45.4 132.7 L 44.2 141.0 L 42.4 148.9 L 40.1 156.2 L 37.1 163.1 L 33.6 169.4 L 29.4 175.2 L 24.7 180.4 L 19.4 184.9 L 13.5 188.7 L 12.4 187.2 L 16.8 182.2 L 20.6 176.9 L 24.0 171.5 L 26.9 165.8 L 29.3 159.8 L 31.2 153.4 L 32.6 146.7 L 33.6 139.5 L 34.0 132.0 L 34.0 18.0 Z M 46.0 81.0 L 46.0 116.0 L 97.0 116.0 L 97.0 81.0 Z M 109.0 81.0 L 109.0 116.0 L 161.0 116.0 L 161.0 81.0 Z M 109.0 43.0 L 109.0 77.0 L 161.0 77.0 L 161.0 43.0 Z " />
</g>
</svg>
