<svg xmlns="http://www.w3.org/2000/svg" xmlns:xlink="http://www.w3.org/1999/xlink" version="1.1" baseProfile="full" viewBox="0 0 200 200" width="200" height="200">
<g fill="black">
<path d="M 153.7 175.8 L 163.7 175.8 L 164.9 175.7 L 165.8 175.5 L 166.4 175.4 L 166.8 175.2 L 167.0 175.0 L 167.1 174.8 L 167.3 174.5 L 167.5 173.9 L 167.6 173.0 L 167.7 171.8 L 167.7 133.3 L 148.7 133.3 L 148.7 180.8 L 136.7 186.8 L 136.7 133.3 L 117.2 133.3 L 117.2 183.1 L 106.2 188.6 L 106.2 65.2 L 117.2 70.7 L 136.7 70.7 L 136.7 46.4 L 100.9 46.4 L 100.9 42.4 L 136.7 42.4 L 136.7 11.1 L 148.7 13.1 L 151.7 15.1 L 148.7 16.9 L 148.7 42.4 L 165.7 42.4 L 175.7 32.4 L 187.7 42.4 L 187.7 46.4 L 148.7 46.4 L 148.7 70.7 L 167.7 70.7 L 173.7 65.7 L 184.7 74.7 L 179.7 78.7 L 179.7 171.8 L 179.6 174.3 L 179.1 176.8 L 178.3 179.2 L 177.1 181.5 L 175.4 183.5 L 173.4 185.2 L 171.2 186.4 L 168.8 187.2 L 166.3 187.6 L 163.7 187.8 L 163.7 181.8 L 153.7 178.8 Z M 69.6 176.2 L 79.6 176.2 L 80.5 176.1 L 81.2 176.0 L 81.8 175.7 L 82.2 175.3 L 82.4 174.8 L 82.6 174.1 L 82.8 173.0 L 82.8 157.2 L 82.5 158.4 L 78.7 160.8 L 74.2 159.7 L 71.8 155.9 L 71.4 151.6 L 70.9 147.6 L 70.3 143.6 L 69.5 139.7 L 68.7 136.0 L 67.7 132.3 L 65.5 125.3 L 64.3 121.8 L 63.0 118.64285717010497 L 63.0 179.4 L 51.0 185.4 L 51.0 123.71320753097534 L 50.45794916152954 123.95866451263427 L 50.2 125.3 L 49.0 130.4 L 47.7 135.4 L 46.2 140.2 L 44.5 145.0 L 42.7 149.6 L 40.6 154.1 L 38.4 158.4 L 35.8 162.5 L 33.0 166.4 L 31.6 165.74117650985718 L 31.6 182.1 L 19.6 188.1 L 19.6 106.15 L 17.6 107.3 L 13.5 109.6 L 12.4 108.2 L 15.6 104.8 L 18.5 101.3 L 19.6 100.00357141494752 L 19.6 98.9 L 20.257446765899658 99.22872343063355 L 21.3 98.0 L 24.0 94.8 L 26.4 91.5 L 28.7 88.4 L 30.9 85.2 L 32.8 82.1 L 34.6 79.1 L 35.69041528701782 76.84647512435913 L 35.6 76.8 L 35.98118810653686 76.24554452896118 L 36.1 76.0 L 36.13509674072266 76.02167739868165 L 36.7 75.2 L 46.3 82.3 L 47.8 85.6 L 43.79024124145508 85.53086624145507 L 41.3 88.5 L 38.5 91.4 L 35.5 94.3 L 32.3 97.1 L 28.9 99.8 L 25.950561809539796 102.07528085708618 L 31.6 104.9 L 51.0 104.9 L 51.0 69.8 L 63.0 71.8 L 66.0 73.8 L 63.0 75.6 L 63.0 104.9 L 82.8 104.9 L 88.3 99.9 L 89.78484849929809 101.17272729873658 L 89.3 100.3 L 87.7 97.7 L 86.0 95.2 L 84.2 92.7 L 82.2 90.3 L 80.1 87.9 L 75.4 83.2 L 72.9 80.9 L 70.1 78.9 L 70.9 77.3 L 74.3 78.5 L 77.7 79.6 L 81.0 80.9 L 84.2 82.6 L 87.2 84.4 L 90.2 86.4 L 93.0 88.6 L 95.7 91.0 L 98.3 93.5 L 100.7 96.3 L 101.6 100.7 L 99.1 104.6 L 94.78918914794922 105.46216220855713 L 98.8 108.9 L 93.8 112.4 L 93.8 171.7 L 93.7 174.1 L 93.3 176.4 L 92.7 178.7 L 91.7 180.8 L 90.3 182.8 L 88.5 184.4 L 86.5 185.7 L 84.2 186.6 L 81.9 187.0 L 79.6 187.2 L 79.6 181.7 L 69.6 178.9 Z M 31.6 108.9 L 31.6 164.34545450210572 L 32.4 161.0 L 33.5 156.5 L 35.5 147.3 L 36.4 142.7 L 37.2 138.0 L 37.9 133.3 L 38.5 128.5 L 38.9 123.7 L 39.13992080688477 119.70131969451904 L 39.1 119.7 L 39.17476634979248 119.12056074142455 L 39.2 118.7 L 39.22860174179077 118.70333690643311 L 39.5 116.6 L 51.0 120.04017095565796 L 51.0 108.9 Z M 63.0 108.9 L 63.0 118.3285714149475 L 64.3 117.4 L 67.0 120.1 L 69.6 123.0 L 72.0 126.1 L 74.1 129.5 L 76.2 133.1 L 78.0 136.9 L 79.6 140.9 L 81.1 145.1 L 82.5 149.4 L 82.8 150.65454549789428 L 82.8 108.9 Z M 117.2 104.0 L 117.2 129.3 L 136.7 129.3 L 136.7 104.0 Z M 148.7 104.0 L 148.7 129.3 L 167.7 129.3 L 167.7 104.0 Z M 117.2 74.7 L 117.2 100.0 L 136.7 100.0 L 136.7 74.7 Z M 148.7 74.7 L 148.7 100.0 L 167.7 100.0 L 167.7 74.7 Z M 11.9 65.4 L 35.0 65.4 L 35.0 42.4 L 17.4 42.4 L 17.4 38.4 L 35.0 38.4 L 35.0 13.6 L 47.0 15.6 L 50.0 17.6 L 47.0 19.4 L 47.0 38.4 L 66.9 38.4 L 66.9 13.6 L 78.9 15.6 L 81.9 17.6 L 78.9 19.4 L 78.9 38.4 L 82.3777777671814 38.4 L 88.6 31.4 L 96.6 38.4 L 96.6 42.4 L 78.9 42.4 L 78.9 65.4 L 83.91818180084229 65.4 L 92.1 56.4 L 102.1 65.4 L 102.1 69.4 L 11.9 69.4 Z M 47.0 42.4 L 47.0 65.4 L 66.9 65.4 L 66.9 42.4 Z M 161.3 24.5 L 159.1 21.1 L 157.9 19.5 L 156.6 17.9 L 155.2 16.3 L 153.4 15.3 L 154.0 13.6 L 156.1 14.2 L 158.5 14.6 L 160.8 15.3 L 163.0 16.3 L 165.2 17.5 L 167.4 18.9 L 169.4 20.5 L 171.4 22.4 L 173.4 24.5 L 175.2 26.8 L 175.6 31.3 L 172.8 34.9 L 168.3 35.4 L 164.7 32.5 L 163.1 28.3 Z " />
</g>
</svg>
