<svg xmlns="http://www.w3.org/2000/svg" xmlns:xlink="http://www.w3.org/1999/xlink" version="1.1" baseProfile="full" viewBox="0 0 200 200" width="200" height="200">
<g fill="black">
<path d="M 82.1 146.3 L 82.1 142.3 L 149.7 142.3 L 149.7 125.8 L 161.7 127.8 L 164.7 129.8 L 161.7 131.6 L 161.7 142.3 L 167.01818180084229 142.3 L 175.2 133.3 L 185.2 142.3 L 185.2 146.3 L 161.7 146.3 L 161.7 171.4 L 161.6 174.0 L 161.1 176.5 L 160.3 178.9 L 159.1 181.1 L 157.5 183.2 L 155.4 184.8 L 153.2 186.0 L 150.8 186.8 L 148.3 187.3 L 145.7 187.4 L 145.7 181.4 L 125.7 178.4 L 125.7 175.9333333015442 L 123.5 178.0 L 118.9 177.8 L 115.8 174.5 L 115.3 172.1 L 114.1 167.5 L 113.4 165.3 L 112.6 163.1 L 111.7 161.0 L 110.8 158.8 L 109.8 156.7 L 108.7 154.6 L 107.2 152.9 L 108.4 151.5 L 110.4 152.9 L 112.6 154.1 L 114.7 155.6 L 116.8 157.2 L 118.7 159.0 L 120.5 161.0 L 122.3 163.1 L 124.0 165.4 L 125.5 167.8 L 127.0 170.3 L 126.8 174.9 L 126.26774196624756 175.4 L 145.7 175.4 L 146.9 175.3 L 147.9 175.2 L 148.4 175.0 L 149.0 174.7 L 149.3 174.1 L 149.5 173.6 L 149.6 172.6 L 149.7 171.4 L 149.7 146.3 Z M 26.4 156.5 L 14.4 162.5 L 14.4 23.6 L 26.4 29.6 L 63.7 29.6 L 69.7 24.6 L 80.7 33.6 L 75.7 37.6 L 75.7 150.5 L 63.7 156.5 L 63.7 144.5 L 26.4 144.5 Z M 26.4 89.1 L 26.4 140.5 L 39.1 140.5 L 39.1 89.1 Z M 51.1 89.1 L 51.1 140.5 L 63.7 140.5 L 63.7 89.1 Z M 147.3 74.7 L 163.1 74.7 L 169.1 69.7 L 180.1 78.7 L 175.1 82.7 L 175.1 112.2 L 175.2 113.1 L 175.3 113.8 L 175.4 114.2 L 175.5 114.5 L 175.7 114.8 L 176.1 115.1 L 176.8 115.5 L 177.8 115.8 L 178.70884952545165 115.86991147994995 L 183.7 98.9 L 185.7 98.9 L 183.7 115.9 L 186.7 117.9 L 188.7 120.9 L 186.7 123.9 L 183.7 125.9 L 176.7 125.9 L 174.3 125.6 L 172.0 124.9 L 169.7 123.8 L 167.8 122.3 L 166.1 120.4 L 164.8 118.3 L 163.9 115.9 L 163.4 113.5 L 163.1 110.9 L 163.1 107.31764707565307 L 160.4 109.7 L 155.8 109.3 L 152.8 105.8 L 152.8 104.4 L 152.7 102.9 L 152.5 101.4 L 151.7 98.4 L 151.1 96.9 L 150.4 95.3 L 148.6 91.9 L 147.3 90.86000003814698 L 147.3 94.8 L 146.7 100.0 L 145.6 104.9 L 144.0 109.4 L 141.8 113.6 L 139.2 117.3 L 136.1 120.5 L 132.6 123.2 L 128.7 125.5 L 124.4 127.1 L 119.9 128.5 L 119.2 126.8 L 122.9 124.3 L 126.1 121.6 L 128.7 118.8 L 130.8 115.9 L 132.5 112.8 L 133.8 109.7 L 134.7 106.3 L 135.3 102.8 L 135.5 98.9 L 135.3 94.8 L 135.3 68.7 Z M 84.1 114.2 L 88.7 113.4 L 93.3 112.7 L 98.0 111.9 L 102.6 111.22916669845581 L 102.6 82.7 L 85.7 82.7 L 85.7 78.7 L 114.01818180084229 78.7 L 122.2 69.7 L 132.2 78.7 L 132.2 82.7 L 114.6 82.7 L 114.6 109.34081630706787 L 117.3 108.9 L 122.3 108.2 L 127.4 107.7 L 132.6 107.3 L 133.1 109.1 L 128.4 111.3 L 123.7 113.4 L 119.0 115.2 L 114.6 116.79148931503296 L 114.6 116.9 L 114.3 116.9 L 109.6 118.6 L 105.0 120.2 L 100.4 121.7 L 95.8 123.1 L 91.3 124.5 L 90.77509002685547 124.65975522994995 L 89.4 128.4 L 86.7 125.9 L 82.1 114.6 Z M 147.3 78.7 L 147.3 90.4 L 148.1 89.2 L 149.8 90.3 L 151.8 90.9 L 153.7 91.8 L 155.5 92.8 L 157.2 94.0 L 158.9 95.4 L 160.4 96.9 L 161.8 98.5 L 163.1 100.3 L 163.1 78.7 Z M 26.4 33.6 L 26.4 85.1 L 39.1 85.1 L 39.1 33.6 Z M 51.1 33.6 L 51.1 85.1 L 63.7 85.1 L 63.7 33.6 Z M 176.2 26.0 L 171.2 30.0 L 171.2 40.3 L 173.4 40.3 L 177.9 34.3 L 183.9 40.3 L 183.9 44.3 L 171.2 44.3 L 171.2 63.8 L 159.2 69.8 L 159.2 63.8 L 99.2 63.8 L 99.2 59.8 L 159.2 59.8 L 159.2 44.3 L 88.2 44.3 L 88.2 40.3 L 159.2 40.3 L 159.2 26.0 L 100.3 26.0 L 100.3 22.0 L 159.2 22.0 L 165.2 17.0 Z " />
</g>
</svg>
