<svg xmlns="http://www.w3.org/2000/svg" xmlns:xlink="http://www.w3.org/1999/xlink" version="1.1" baseProfile="full" viewBox="0 0 200 200" width="200" height="200">
<g fill="black">
<path d="M 46.0 82.0 L 46.0 139.0 L 94.0 139.0 L 94.0 82.0 Z M 106.0 82.0 L 106.0 139.0 L 154.0 139.0 L 154.0 82.0 Z M 147.2 97.3 L 148.4 100.8 L 144.42024412155152 100.38830108642578 L 141.7 103.4 L 138.8 106.6 L 135.6 110.0 L 132.3 113.5 L 128.9 117.2 L 125.2 120.9 L 121.3 124.7 L 117.1 128.6 L 112.6 132.5 L 111.3 131.4 L 114.2 126.3 L 117.2 121.4 L 120.1 116.8 L 123.0 112.4 L 125.8 108.3 L 128.4 104.3 L 130.9 100.5 L 133.2 96.9 L 135.5 93.4 L 137.05336818695068 91.03296270370484 L 137.0 91.0 L 138.0 89.5 Z M 72.4 119.7 L 71.1 116.8 L 69.5 113.8 L 67.6 110.7 L 65.4 107.6 L 63.0 104.4 L 60.4 101.1 L 57.5 97.6 L 54.2 94.3 L 55.3 92.8 L 59.4 95.2 L 63.4 97.6 L 67.1 100.1 L 70.5 102.8 L 73.7 105.6 L 76.6 108.4 L 79.2 111.4 L 81.5 114.5 L 83.6 117.7 L 85.5 121.0 L 85.3 125.5 L 82.0 128.7 L 77.5 128.6 L 74.3 125.3 L 73.5 122.6 Z M 158.5 70.1 L 149.8 65.3 L 141.3 59.9 L 133.2 54.1 L 125.4 47.8 L 117.9 41.0 L 110.8 33.8 L 104.1 25.9 L 101.99502944946289 23.014153289794923 L 98.8 26.9 L 91.0 35.4 L 82.7 43.4 L 73.9 50.8 L 64.6 57.7 L 54.9 64.1 L 44.7 69.8 L 37.042654037475586 73.5213270187378 L 46.0 78.0 L 154.0 78.0 L 160.0 73.0 L 171.0 82.0 L 166.0 86.0 L 166.0 149.0 L 154.0 155.0 L 154.0 143.0 L 106.0 143.0 L 106.0 183.0 L 94.0 189.0 L 94.0 143.0 L 46.0 143.0 L 46.0 155.0 L 34.0 161.0 L 34.0 75.0 L 22.9 79.5 L 11.3 83.2 L 10.6 81.6 L 21.3 76.0 L 31.6 70.2 L 41.4 64.2 L 50.7 57.7 L 59.5 50.9 L 67.8 43.8 L 75.7 36.2 L 83.1 28.1 L 90.0 19.7 L 95.91087312698365 11.60665054321289 L 95.9 11.6 L 96.12318840026856 11.315942001342773 L 96.5 10.8 L 96.5181393623352 10.813277244567871 L 97.0 10.2 L 106.2 17.9 L 107.5 21.3 L 104.85549201965333 21.072025203704833 L 107.1 23.0 L 114.8 29.5 L 122.6 35.5 L 130.5 41.2 L 138.5 46.4 L 146.7 51.2 L 155.0 55.6 L 163.6 59.5 L 172.2 62.9 L 181.1 66.0 L 188.3 68.5 L 176.8 78.4 L 167.5 74.5 Z " />
</g>
</svg>
