<svg xmlns="http://www.w3.org/2000/svg" xmlns:xlink="http://www.w3.org/1999/xlink" version="1.1" baseProfile="full" viewBox="0 0 200 200" width="200" height="200">
<g fill="black">
<path d="M 152.7 184.4 L 150.7 185.3 L 148.5 186.1 L 146.4 186.8 L 144.2 187.3 L 141.9 187.8 L 139.7 188.1 L 137.4 188.3 L 135.1 188.3 L 135.1 182.3 L 115.1 179.3 L 115.1 176.3 L 119.4 176.3 L 119.4 165.2 L 72.1 165.2 L 72.1 177.2 L 60.1 183.2 L 60.1 117.0 L 72.1 123.0 L 119.4 123.0 L 125.4 118.0 L 136.4 127.0 L 131.4 131.0 L 131.4 171.2 L 121.2 176.3 L 136.8 176.3 L 140.0 175.9 L 141.6 175.6 L 143.1 175.2 L 144.7 174.8 L 146.2 174.2 L 147.6 173.6 L 149.1 172.8 L 150.5 172.0 L 152.2 170.6 L 154.0 168.3 L 155.8 164.7 L 157.5 160.1 L 159.0 154.2 L 160.2 147.3 L 161.1 139.3 L 161.7 130.3 L 162.0 120.2 L 162.0 111.0 L 61.12830190658569 111.0 L 60.2 112.2 L 55.6 117.3 L 50.7 122.3 L 45.3 127.1 L 39.5 131.8 L 33.3 136.3 L 26.5 140.6 L 19.4 144.5 L 18.3 143.1 L 24.3 137.5 L 29.9 132.2 L 35.1 126.9 L 40.0 121.7 L 44.5 116.5 L 48.5 111.3 L 52.1 106.2 L 55.4 101.0 L 58.2 95.8 L 60.6 90.7 L 60.60409555435181 90.70200986862183 L 61.1 89.6 L 71.4 96.0 L 73.2 99.1 L 69.34036359786987 99.43272724151612 L 68.1 101.5 L 64.3 106.9 L 64.2226414680481 107.0 L 162.0 107.0 L 168.0 102.0 L 179.0 111.0 L 174.0 114.0 L 174.0 120.4 L 173.7 130.9 L 173.1 140.4 L 172.1 149.0 L 170.7 156.7 L 169.0 163.5 L 166.9 169.5 L 164.2 174.6 L 160.9 178.9 L 156.8 182.3 L 154.8 183.4 Z M 72.1 145.5 L 72.1 161.2 L 119.4 161.2 L 119.4 145.5 Z M 72.1 127.0 L 72.1 141.5 L 119.4 141.5 L 119.4 127.0 Z M 146.5 14.1 L 149.5 16.1 L 146.5 17.9 L 146.5 30.6 L 168.9181818008423 30.6 L 177.1 21.6 L 187.1 30.6 L 187.1 34.6 L 146.5 34.6 L 146.5 47.2 L 164.2 47.2 L 170.2 42.2 L 181.2 51.2 L 176.2 55.2 L 176.2 93.1 L 164.2 99.1 L 164.2 91.1 L 115.9 91.1 L 115.9 94.1 L 103.9 100.1 L 103.9 41.2 L 115.9 47.2 L 134.5 47.2 L 134.5 12.1 Z M 29.7 93.6 L 17.7 99.6 L 17.7 18.0 L 29.7 24.0 L 76.1 24.0 L 82.1 19.0 L 93.1 28.0 L 88.1 32.0 L 88.1 85.6 L 76.1 91.6 L 76.1 81.6 L 29.7 81.6 Z M 115.9 71.2 L 115.9 87.1 L 164.2 87.1 L 164.2 71.2 Z M 29.7 55.0 L 29.7 77.6 L 46.4 77.6 L 46.4 55.0 Z M 58.4 55.0 L 58.4 77.6 L 76.1 77.6 L 76.1 55.0 Z M 115.9 67.2 L 164.2 67.2 L 164.2 51.2 L 115.9 51.2 Z M 29.7 28.0 L 29.7 51.0 L 46.4 51.0 L 46.4 28.0 Z M 58.4 28.0 L 58.4 51.0 L 76.1 51.0 L 76.1 28.0 Z " />
</g>
</svg>
