<svg xmlns="http://www.w3.org/2000/svg" xmlns:xlink="http://www.w3.org/1999/xlink" version="1.1" baseProfile="full" viewBox="0 0 200 200" width="200" height="200">
<g fill="black">
<path d="M 44.2 183.4 L 32.2 189.4 L 32.2 102.2 L 44.2 108.2 L 152.8 108.2 L 158.8 103.2 L 169.8 112.2 L 164.8 116.2 L 164.8 177.4 L 152.8 183.4 L 152.8 171.4 L 44.2 171.4 Z M 44.2 141.8 L 44.2 167.4 L 92.5 167.4 L 92.5 141.8 Z M 104.5 141.8 L 104.5 167.4 L 152.8 167.4 L 152.8 141.8 Z M 44.2 112.2 L 44.2 137.8 L 92.5 137.8 L 92.5 112.2 Z M 104.5 112.2 L 104.5 137.8 L 152.8 137.8 L 152.8 112.2 Z M 180.0 77.8 L 182.0 77.8 L 180.0 90.8 L 182.7 92.6 L 184.5 95.3 L 182.7 98.0 L 180.0 99.8 L 139.5 99.8 L 137.2 99.5 L 134.9 98.9 L 132.7 97.9 L 130.7 96.5 L 129.1 94.6 L 127.7 92.5 L 126.8 90.2 L 126.2 87.8 L 126.0 85.3 L 126.0 41.6 L 85.5087378501892 41.6 L 84.9 47.3 L 82.3 56.8 L 78.3 65.6 L 72.8 73.6 L 65.9 80.6 L 57.7 86.8 L 48.2 92.0 L 37.5 96.4 L 25.4 99.9 L 12.2 102.4 L 11.7 100.7 L 24.3 96.3 L 35.4 91.4 L 45.1 86.2 L 53.3 80.6 L 60.0 74.5 L 65.4 67.9 L 69.4 61.0 L 72.1 53.5 L 73.6 45.6 L 73.78604650497437 41.6 L 25.0 41.6 L 25.0 37.6 L 73.97209300994874 37.6 L 74.0 37.0 L 74.0 12.4 L 86.0 14.4 L 89.0 16.4 L 86.0 18.2 L 86.0 37.0 L 85.93592233657837 37.6 L 126.0 37.6 L 132.0 32.6 L 143.0 41.6 L 138.0 45.6 L 138.0 85.3 L 137.9 86.5 L 137.9 87.5 L 138.0 88.2 L 138.0 88.7 L 138.2 89.0 L 138.4 89.4 L 138.8 89.8 L 139.5 90.2 L 140.6 90.5 L 142.0 90.8 L 175.5 90.8 Z " />
</g>
</svg>
