<svg xmlns="http://www.w3.org/2000/svg" xmlns:xlink="http://www.w3.org/1999/xlink" version="1.1" baseProfile="full" viewBox="0 0 200 200" width="200" height="200">
<g fill="black">
<path d="M 12.7 122.0 L 15.4 121.2 L 18.3 120.3 L 21.4 119.2 L 24.6 117.9 L 27.9 116.5 L 31.3 114.9 L 34.9 113.2 L 38.6 111.4 L 41.900908660888675 109.79186496734619 L 42.0 98.0 L 42.0 31.0 L 54.0 37.0 L 104.0 37.0 L 104.0 12.0 L 116.0 14.0 L 119.0 16.0 L 116.0 17.8 L 116.0 37.0 L 164.0 37.0 L 174.0 27.0 L 186.0 37.0 L 186.0 41.0 L 54.0 41.0 L 54.0 98.0 L 53.3 110.5 L 52.0 122.3 L 49.9 133.4 L 47.2 143.7 L 43.7 153.2 L 39.5 161.9 L 34.6 169.8 L 28.9 176.7 L 22.6 182.7 L 15.5 187.7 L 14.4 186.2 L 19.9 180.0 L 24.7 173.4 L 29.0 166.3 L 32.7 158.6 L 35.7 150.2 L 38.2 141.2 L 40.0 131.5 L 41.3 121.0 L 41.6436749458313 114.64201288223266 L 41.2 115.1 L 38.1 118.0 L 35.1 120.7 L 32.0 123.2 L 29.0 125.6 L 26.0 127.7 L 23.0 129.7 L 21.009677410125732 130.89419355392457 L 20.1 135.2 L 17.1 133.1 L 10.8 122.8 Z M 139.2 176.45 L 130.5 180.8 L 130.5 150.0 L 114.4 150.0 L 114.4 174.8 L 102.4 180.8 L 102.4 150.0 L 85.7 150.0 L 85.7 179.0 L 73.7 185.0 L 73.7 111.0 L 85.7 117.0 L 159.2 117.0 L 165.2 112.0 L 176.2 121.0 L 171.2 125.0 L 171.2 170.8 L 171.1 173.3 L 170.6 175.8 L 169.8 178.2 L 168.6 180.5 L 166.9 182.5 L 164.9 184.2 L 162.7 185.4 L 160.3 186.2 L 157.8 186.6 L 155.2 186.8 L 155.2 180.8 L 139.2 177.8 Z M 85.7 121.0 L 85.7 146.0 L 102.4 146.0 L 102.4 121.0 Z M 114.4 121.0 L 114.4 146.0 L 130.5 146.0 L 130.5 121.0 Z M 142.5 121.0 L 142.5 146.0 L 159.2 146.0 L 159.2 121.0 Z M 163.7 101.9 L 157.3 97.4 L 151.3 92.4 L 145.4 87.0 L 139.9 81.1 L 134.6 74.9 L 129.6 68.2 L 124.9 60.9 L 124.36913108825684 59.90300226211548 L 123.2 61.7 L 117.4 69.6 L 111.2 77.0 L 104.7 83.9 L 97.9 90.3 L 90.7 96.2 L 83.1 101.5 L 75.2 106.3 L 67.0 110.4 L 58.3 113.9 L 57.5 112.3 L 65.1 107.1 L 72.3 101.8 L 79.2 96.2 L 85.8 90.4 L 92.0 84.1 L 97.9 77.6 L 103.5 70.6 L 108.7 63.3 L 113.6 55.5 L 118.2 47.4 L 118.7 46.5 L 128.6 53.4 L 130.2 56.6 L 126.61783370971679 56.66176147460938 L 128.3 58.4 L 134.1 64.4 L 139.9 70.0 L 145.7 75.2 L 151.6 80.0 L 157.6 84.3 L 163.6 88.3 L 169.8 91.8 L 176.0 94.9 L 182.4 97.7 L 188.4 100.3 L 177.0 109.7 L 170.2 106.0 Z M 155.1 98.5 L 155.1 102.5 L 89.8 102.5 L 89.8 98.5 L 133.1 98.5 L 143.1 88.5 Z M 24.3 76.9 L 23.6 73.9 L 22.7 70.9 L 21.7 68.1 L 20.5 65.4 L 19.2 62.7 L 17.8 60.1 L 16.2 57.5 L 14.2 55.3 L 15.3 53.8 L 18.0 55.5 L 20.8 57.2 L 23.5 59.2 L 26.0 61.5 L 28.3 64.1 L 30.4 67.0 L 32.3 70.1 L 34.1 73.4 L 35.7 76.9 L 37.1 80.6 L 36.3 85.1 L 32.6 87.9 L 28.1 87.1 L 25.4 83.4 L 24.9 80.1 Z M 142.5 150.0 L 142.5 174.8 L 155.2 174.8 L 156.4 174.7 L 157.3 174.6 L 157.9 174.4 L 158.3 174.2 L 158.6 173.9 L 158.8 173.5 L 159.0 172.9 L 159.1 172.0 L 159.2 170.8 L 159.2 150.0 Z " />
</g>
</svg>
