<svg xmlns="http://www.w3.org/2000/svg" xmlns:xlink="http://www.w3.org/1999/xlink" version="1.1" baseProfile="full" viewBox="0 0 200 200" width="200" height="200">
<g fill="black">
<path d="M 12.7 122.0 L 15.4 121.2 L 18.3 120.3 L 21.4 119.2 L 24.6 117.9 L 27.9 116.5 L 31.3 114.9 L 34.9 113.2 L 38.6 111.4 L 41.900908660888675 109.79186496734619 L 42.0 98.0 L 42.0 31.0 L 54.0 37.0 L 104.0 37.0 L 104.0 12.0 L 116.0 14.0 L 119.0 16.0 L 116.0 17.8 L 116.0 37.0 L 164.0 37.0 L 174.0 27.0 L 186.0 37.0 L 186.0 41.0 L 54.0 41.0 L 54.0 98.0 L 53.3 110.5 L 52.0 122.3 L 49.9 133.4 L 47.2 143.7 L 43.7 153.2 L 39.5 161.9 L 34.6 169.8 L 28.9 176.7 L 22.6 182.7 L 15.5 187.7 L 14.4 186.2 L 19.9 180.0 L 24.7 173.4 L 29.0 166.3 L 32.7 158.6 L 35.7 150.2 L 38.2 141.2 L 40.0 131.5 L 41.3 121.0 L 41.6436749458313 114.64201288223266 L 41.2 115.1 L 38.1 118.0 L 35.1 120.7 L 32.0 123.2 L 29.0 125.6 L 26.0 127.7 L 23.0 129.7 L 21.009677410125732 130.89419355392457 L 20.1 135.2 L 17.1 133.1 L 10.8 122.8 Z M 109.90157070159913 115.97905759811401 L 109.3 124.0 L 107.4 135.2 L 104.4 145.4 L 100.3 154.6 L 95.0 162.9 L 88.8 170.1 L 81.5 176.1 L 73.2 181.1 L 64.0 184.8 L 53.9 187.3 L 53.4 185.6 L 62.5 181.3 L 70.5 176.5 L 77.4 171.0 L 83.2 164.9 L 88.0 158.1 L 91.9 150.6 L 94.8 142.2 L 96.9 133.1 L 98.0 123.0 L 98.2 112.0 L 98.2 109.6 L 110.2 112.0 L 113.2 114.0 Z M 180.7 144.8 L 182.7 144.8 L 180.7 169.8 L 184.2 172.2 L 186.7 175.8 L 184.2 179.4 L 180.7 181.8 L 146.3 181.8 L 143.7 181.7 L 141.2 181.2 L 138.8 180.4 L 136.6 179.2 L 134.5 177.6 L 132.9 175.5 L 131.7 173.3 L 130.9 170.9 L 130.4 168.4 L 130.3 165.8 L 130.3 110.0 L 142.3 112.0 L 145.3 114.0 L 142.3 115.8 L 142.3 167.0 L 142.5 168.0 L 142.7 168.5 L 143.0 169.1 L 143.2 169.2 L 143.5 169.4 L 144.1 169.6 L 145.0 169.7 L 146.3 169.8 L 174.7 169.8 Z M 55.2 104.9 L 113.5 104.9 L 113.5 46.1 L 125.5 48.1 L 128.5 50.1 L 125.5 51.9 L 125.5 104.9 L 161.7 104.9 L 171.7 94.9 L 183.7 104.9 L 183.7 108.9 L 55.2 108.9 Z M 170.8 60.8 L 172.4 64.0 L 168.59572610855102 64.0655909538269 L 168.1 64.8 L 165.2 68.9 L 162.3 72.9 L 159.2 77.0 L 155.9 81.1 L 152.5 85.1 L 149.0 89.2 L 145.2 93.2 L 141.2 97.1 L 137.0 100.9 L 135.6 99.8 L 138.2 94.8 L 140.9 90.0 L 143.7 85.3 L 146.3 80.7 L 148.9 76.2 L 151.4 71.8 L 153.8 67.5 L 156.1 63.2 L 158.3 59.0 L 159.9405204772949 55.718959140777585 L 159.9 55.7 L 160.9 53.9 Z M 84.1 84.8 L 82.8 81.2 L 81.3 77.7 L 79.6 74.2 L 77.6 70.7 L 75.4 67.3 L 73.0 63.7 L 70.5 60.1 L 67.6 56.6 L 68.8 55.2 L 72.7 57.8 L 76.5 60.4 L 80.0 63.3 L 83.2 66.4 L 86.2 69.6 L 89.0 73.1 L 91.5 76.7 L 93.7 80.4 L 95.8 84.3 L 97.5 88.3 L 97.0 92.9 L 93.6 95.9 L 89.0 95.4 L 86.1 91.9 L 85.2 88.3 Z M 24.3 76.9 L 23.6 73.9 L 22.7 70.9 L 21.7 68.1 L 20.5 65.4 L 19.2 62.7 L 17.8 60.1 L 16.2 57.5 L 14.2 55.3 L 15.3 53.8 L 18.0 55.5 L 20.8 57.2 L 23.5 59.2 L 26.0 61.5 L 28.3 64.1 L 30.4 67.0 L 32.3 70.1 L 34.1 73.4 L 35.7 76.9 L 37.1 80.6 L 36.3 85.1 L 32.6 87.9 L 28.1 87.1 L 25.4 83.4 L 24.9 80.1 Z " />
</g>
</svg>
