<svg xmlns="http://www.w3.org/2000/svg" xmlns:xlink="http://www.w3.org/1999/xlink" version="1.1" baseProfile="full" viewBox="0 0 200 200" width="200" height="200">
<g fill="black">
<path d="M 81.3 87.3 L 84.3 89.3 L 81.3 91.1 L 81.3 173.2 L 164.0 173.2 L 174.0 163.2 L 186.0 173.2 L 186.0 177.2 L 81.3 177.2 L 81.3 184.2 L 69.3 190.2 L 69.3 85.3 Z M 12.7 122.0 L 15.4 121.2 L 18.3 120.3 L 21.4 119.2 L 24.6 117.9 L 27.9 116.5 L 31.3 114.9 L 34.9 113.2 L 38.6 111.4 L 41.900908660888675 109.79186496734619 L 42.0 98.0 L 42.0 31.0 L 54.0 37.0 L 104.0 37.0 L 104.0 12.0 L 116.0 14.0 L 119.0 16.0 L 116.0 17.8 L 116.0 37.0 L 164.0 37.0 L 174.0 27.0 L 186.0 37.0 L 186.0 41.0 L 54.0 41.0 L 54.0 98.0 L 53.3 110.5 L 52.0 122.3 L 49.9 133.4 L 47.2 143.7 L 43.7 153.2 L 39.5 161.9 L 34.6 169.8 L 28.9 176.7 L 22.6 182.7 L 15.5 187.7 L 14.4 186.2 L 19.9 180.0 L 24.7 173.4 L 29.0 166.3 L 32.7 158.6 L 35.7 150.2 L 38.2 141.2 L 40.0 131.5 L 41.3 121.0 L 41.6436749458313 114.64201288223266 L 41.2 115.1 L 38.1 118.0 L 35.1 120.7 L 32.0 123.2 L 29.0 125.6 L 26.0 127.7 L 23.0 129.7 L 21.009677410125732 130.89419355392457 L 20.1 135.2 L 17.1 133.1 L 10.8 122.8 Z M 139.7 153.2 L 158.9 153.2 L 159.8 153.0 L 160.4 152.8 L 161.0 152.5 L 161.1 152.3 L 161.3 152.0 L 161.5 151.4 L 161.6 150.5 L 161.7 149.2 L 161.7 92.1 L 139.3 92.1 L 139.3 95.4 L 139.04603176116944 95.78095235824586 L 139.3 95.8 L 138.2 102.0 L 137.38948516845704 104.9381160736084 L 139.2 105.5 L 142.0 106.6 L 144.7 107.8 L 147.2 109.1 L 149.7 110.6 L 152.1 112.1 L 154.4 113.8 L 156.6 115.6 L 158.7 117.4 L 159.9 121.8 L 157.7 125.9 L 153.3 127.1 L 149.3 124.9 L 148.2 122.9 L 147.0 120.9 L 145.6 118.9 L 144.1 116.9 L 142.5 114.9 L 140.8 112.9 L 139.0 110.9 L 137.1 108.9 L 136.43030490875245 108.1984146118164 L 134.3 113.2 L 131.5 118.3 L 128.2 122.9 L 124.3 127.1 L 119.8 130.8 L 114.9 134.0 L 109.5 136.7 L 107.1 137.55423727035523 L 107.1 159.9 L 95.1 165.9 L 95.1 82.1 L 107.1 88.1 L 127.3 88.1 L 127.3 67.8 L 76.3 67.8 L 76.3 63.8 L 164.0 63.8 L 174.0 53.8 L 186.0 63.8 L 186.0 67.8 L 139.3 67.8 L 139.3 88.1 L 161.7 88.1 L 167.7 83.1 L 178.7 92.1 L 173.7 96.1 L 173.7 149.2 L 173.6 151.8 L 173.1 154.3 L 172.3 156.7 L 171.1 159.0 L 169.4 161.0 L 167.4 162.6 L 165.2 163.8 L 162.8 164.7 L 160.3 165.1 L 157.7 165.2 L 157.7 159.2 L 139.7 156.2 Z M 107.1 92.1 L 107.1 133.7854166984558 L 107.6 133.4 L 111.8 129.7 L 115.4 125.9 L 118.6 122.0 L 121.2 118.0 L 123.4 113.8 L 125.0 109.5 L 126.2 104.9 L 127.0 100.0 L 127.3 94.9 L 127.3 92.1 Z M 24.3 76.9 L 23.6 73.9 L 22.7 70.9 L 21.7 68.1 L 20.5 65.4 L 19.2 62.7 L 17.8 60.1 L 16.2 57.5 L 14.2 55.3 L 15.3 53.8 L 18.0 55.5 L 20.8 57.2 L 23.5 59.2 L 26.0 61.5 L 28.3 64.1 L 30.4 67.0 L 32.3 70.1 L 34.1 73.4 L 35.7 76.9 L 37.1 80.6 L 36.3 85.1 L 32.6 87.9 L 28.1 87.1 L 25.4 83.4 L 24.9 80.1 Z " />
</g>
</svg>
