<svg xmlns="http://www.w3.org/2000/svg" xmlns:xlink="http://www.w3.org/1999/xlink" version="1.1" baseProfile="full" viewBox="0 0 200 200" width="200" height="200">
<g fill="black">
<path d="M 12.7 122.0 L 15.4 121.2 L 18.3 120.3 L 21.4 119.2 L 24.6 117.9 L 27.9 116.5 L 31.3 114.9 L 34.9 113.2 L 38.6 111.4 L 41.900908660888675 109.79186496734619 L 42.0 98.0 L 42.0 31.0 L 54.0 37.0 L 104.0 37.0 L 104.0 12.0 L 116.0 14.0 L 119.0 16.0 L 116.0 17.8 L 116.0 37.0 L 164.0 37.0 L 174.0 27.0 L 186.0 37.0 L 186.0 41.0 L 54.0 41.0 L 54.0 98.0 L 53.3 110.5 L 52.0 122.3 L 49.9 133.4 L 47.2 143.7 L 43.7 153.2 L 39.5 161.9 L 34.6 169.8 L 28.9 176.7 L 22.6 182.7 L 15.5 187.7 L 14.4 186.2 L 19.9 180.0 L 24.7 173.4 L 29.0 166.3 L 32.7 158.6 L 35.7 150.2 L 38.2 141.2 L 40.0 131.5 L 41.3 121.0 L 41.6436749458313 114.64201288223266 L 41.2 115.1 L 38.1 118.0 L 35.1 120.7 L 32.0 123.2 L 29.0 125.6 L 26.0 127.7 L 23.0 129.7 L 21.009677410125732 130.89419355392457 L 20.1 135.2 L 17.1 133.1 L 10.8 122.8 Z M 156.5 142.4 L 158.5 142.4 L 156.5 167.4 L 160.1 169.8 L 162.5 173.4 L 160.1 177.0 L 156.5 179.4 L 107.3 179.4 L 104.7 179.2 L 102.2 178.8 L 99.8 178.0 L 97.5 176.7 L 95.5 175.1 L 93.9 173.1 L 92.7 170.8 L 91.8 168.4 L 91.4 165.9 L 91.3 163.4 L 91.3 84.4 L 103.3 86.4 L 106.3 88.4 L 103.3 90.2 L 103.3 164.6 L 103.5 165.5 L 103.7 166.1 L 103.9 166.4 L 104.0 166.6 L 104.2 166.8 L 105.1 167.1 L 106.0 167.3 L 107.3 167.4 L 150.5 167.4 Z M 55.6 153.5 L 54.6 149.1 L 56.9 145.1 L 59.0 143.7 L 61.1 141.6 L 63.1 138.9 L 65.1 135.4 L 67.0 131.2 L 68.7 126.3 L 70.2 120.7 L 71.6 114.4 L 72.9 107.5 L 74.2 99.9 L 76.0 100.0 L 76.7 107.7 L 76.9 115.0 L 76.7 121.7 L 76.1 127.9 L 75.1 133.5 L 73.8 138.8 L 72.1 143.5 L 69.9 147.8 L 67.2 151.6 L 64.0 154.8 L 59.6 155.8 Z M 173.9 131.7 L 172.8 127.5 L 171.4 123.5 L 169.8 119.4 L 167.8 115.5 L 165.6 111.5 L 163.1 107.5 L 160.4 103.5 L 157.4 99.5 L 158.6 98.1 L 162.9 101.0 L 167.0 104.1 L 170.6 107.6 L 174.0 111.3 L 177.0 115.3 L 179.7 119.5 L 182.0 123.9 L 184.0 128.5 L 185.7 133.2 L 187.0 138.2 L 186.0 142.6 L 182.1 145.1 L 177.7 144.0 L 175.2 140.2 L 174.7 135.9 Z M 24.3 76.9 L 23.6 73.9 L 22.7 70.9 L 21.7 68.1 L 20.5 65.4 L 19.2 62.7 L 17.8 60.1 L 16.2 57.5 L 14.2 55.3 L 15.3 53.8 L 18.0 55.5 L 20.8 57.2 L 23.5 59.2 L 26.0 61.5 L 28.3 64.1 L 30.4 67.0 L 32.3 70.1 L 34.1 73.4 L 35.7 76.9 L 37.1 80.6 L 36.3 85.1 L 32.6 87.9 L 28.1 87.1 L 25.4 83.4 L 24.9 80.1 Z M 124.7 75.5 L 122.9 72.2 L 120.8 69.0 L 118.4 65.9 L 115.8 62.9 L 112.8 59.9 L 109.6 57.0 L 106.1 54.1 L 102.2 51.4 L 103.0 49.7 L 107.7 51.2 L 112.2 52.9 L 116.4 54.9 L 120.4 57.3 L 124.1 60.0 L 127.5 63.0 L 130.7 66.3 L 133.6 69.9 L 136.3 73.7 L 138.6 77.8 L 138.6 82.4 L 135.5 85.7 L 130.9 85.7 L 127.6 82.6 L 126.3 79.0 Z " />
</g>
</svg>
