<svg xmlns="http://www.w3.org/2000/svg" xmlns:xlink="http://www.w3.org/1999/xlink" version="1.1" baseProfile="full" viewBox="0 0 200 200" width="200" height="200">
<g fill="black">
<path d="M 148.29872980117798 50.140762138366696 L 149.1 80.5 L 150.04245624542236 91.37751626968384 L 162.55043277740478 90.3299469947815 L 171.7 79.6 L 184.4 88.5 L 184.8 92.5 L 150.384046459198 95.32003631591797 L 151.5 108.2 L 155.2 130.0 L 156.9046236038208 136.43107995986938 L 158.8 132.6 L 163.0 122.2 L 166.8 110.9 L 166.81807231903076 110.90602407455444 L 167.3 109.4 L 178.2 114.7 L 180.4 117.5 L 176.77400760650636 118.32698068618774 L 173.6 126.4 L 168.4 137.3 L 162.8 147.2 L 160.9203857421875 149.92847232818605 L 164.4 158.7 L 169.2 166.8 L 173.5 171.8 L 175.21388368606569 173.0731707572937 L 180.4 150.6 L 182.4 150.6 L 180.47446804046632 175.6319149017334 L 184.6 177.4 L 186.4 181.6 L 184.6 185.7 L 180.4 187.6 L 176.3 187.0 L 171.1 184.8 L 165.4 180.6 L 159.4 173.8 L 153.6 163.9 L 152.49081296920775 161.10649194717408 L 149.9 164.2 L 142.7 171.3 L 135.0 177.4 L 126.8 182.4 L 118.2 186.3 L 109.2 189.0 L 108.6 187.3 L 116.5 182.8 L 124.0 177.8 L 130.9 172.2 L 137.4 165.9 L 143.4 158.8 L 148.63992595672607 151.4079616546631 L 148.2 150.3 L 143.4 132.5 L 139.6 109.7 L 138.42456092834473 96.29999418258667 L 125.0 97.4 L 124.7 93.5 L 138.0806441307068 92.37934303283691 L 137.1 81.2 L 136.22580642700194 47.3978494644165 L 136.2 47.4 L 136.2 44.0 L 148.2 46.4 L 151.2 48.4 Z M 11.5 121.0 L 14.1 120.3 L 16.8 119.4 L 19.6 118.3 L 22.5 117.0 L 25.5 115.6 L 28.6 114.0 L 31.9 112.3 L 35.3 110.5 L 35.901788330078126 110.18238945007325 L 36.0 108.3 L 36.0 28.0 L 48.0 34.0 L 101.0 34.0 L 101.0 12.0 L 113.0 14.0 L 116.0 16.0 L 113.0 17.8 L 113.0 34.0 L 164.0 34.0 L 174.0 24.0 L 186.0 34.0 L 186.0 38.0 L 48.0 38.0 L 48.0 96.0 L 47.3 108.8 L 46.1 120.9 L 44.2 132.3 L 41.7 142.8 L 38.5 152.5 L 34.6 161.4 L 30.1 169.4 L 24.9 176.5 L 19.1 182.6 L 12.5 187.6 L 11.4 186.3 L 16.2 180.1 L 20.6 173.4 L 24.4 166.2 L 27.7 158.4 L 30.4 149.9 L 32.6 140.6 L 34.3 130.6 L 35.4 119.8 L 35.566769218444826 116.60358972549439 L 35.3 116.9 L 32.6 119.6 L 29.9 122.1 L 27.1 124.4 L 24.4 126.6 L 21.7 128.6 L 20.105434799194335 129.66304349899292 L 19.3 134.0 L 16.2 132.1 L 9.7 121.8 Z M 107.0 143.9 L 109.0 143.9 L 107.0 168.9 L 110.6 171.3 L 113.0 174.9 L 110.6 178.5 L 107.0 180.9 L 83.3 180.9 L 80.8 180.7 L 78.3 180.3 L 75.9 179.5 L 73.6 178.2 L 71.6 176.6 L 69.9 174.6 L 68.7 172.3 L 67.9 169.9 L 67.5 167.4 L 67.3 164.9 L 67.3 137.1 L 79.3 139.1 L 82.3 141.1 L 79.3 142.9 L 79.3 164.9 L 79.4 166.1 L 79.6 167.0 L 79.9 167.9 L 80.3 168.3 L 81.2 168.6 L 82.1 168.8 L 83.3 168.9 L 101.0 168.9 Z M 51.4 174.2 L 49.5 170.1 L 50.9 165.7 L 51.9 165.1 L 53.0 164.0 L 54.1 162.3 L 55.2 160.2 L 56.3 157.6 L 57.3 154.6 L 58.2 151.1 L 59.1 147.3 L 60.0 143.0 L 60.4 138.4 L 62.2 138.4 L 62.7 143.1 L 63.3 147.5 L 63.7 151.6 L 63.9 155.5 L 63.8 159.0 L 63.6 162.4 L 63.1 165.5 L 62.4 168.4 L 61.3 171.1 L 59.9 173.7 L 55.8 175.7 Z M 113.5 160.9 L 113.2 158.2 L 112.2 153.0 L 111.5 150.4 L 110.7 147.8 L 109.8 145.2 L 108.8 142.6 L 107.3 140.2 L 108.7 139.0 L 110.8 141.0 L 113.1 142.9 L 115.3 145.1 L 117.2 147.4 L 119.0 149.9 L 120.7 152.5 L 122.2 155.3 L 123.5 158.2 L 124.7 161.3 L 125.7 164.5 L 124.6 168.9 L 120.7 171.3 L 116.3 170.2 L 113.8 166.4 L 113.7 163.6 Z M 87.7 150.1 L 87.3 148.1 L 86.3 144.1 L 85.7 142.2 L 85.0 140.4 L 84.3 138.5 L 83.5 136.6 L 82.2 135.1 L 83.4 133.8 L 85.1 135.0 L 87.1 136.0 L 88.9 137.3 L 90.7 138.7 L 92.5 140.3 L 94.1 142.1 L 97.1 146.1 L 98.5 148.4 L 99.7 150.7 L 99.3 155.3 L 95.8 158.3 L 91.3 157.8 L 88.3 154.4 L 88.0 152.2 Z M 92.6 47.0 L 94.7 50.0 L 89.85905513763427 50.75118112564087 L 87.9 53.2 L 86.6 54.8 L 85.2 56.2 L 83.8 57.7 L 82.3 59.2 L 81.65714282989502 59.8 L 100.9 59.8 L 106.9 54.8 L 117.9 63.8 L 112.9 67.8 L 112.9 127.9 L 100.9 133.9 L 100.9 127.9 L 74.0 127.9 L 62.0 133.9 L 62.0 53.8 L 74.0 59.8 L 78.77368421554566 59.8 L 78.9 59.5 L 79.5 55.5 L 79.8 53.6 L 80.1 51.6 L 80.4 49.8 L 80.7 47.9 L 81.3 44.3 L 81.37943925857545 43.58504676818848 L 81.1 43.5 L 82.0 41.2 Z M 74.0 105.6 L 74.0 123.9 L 100.9 123.9 L 100.9 105.6 Z M 74.0 85.0 L 74.0 101.6 L 100.9 101.6 L 100.9 85.0 Z M 21.7 73.7 L 21.1 70.7 L 20.3 67.8 L 19.4 65.0 L 18.4 62.3 L 17.1 59.7 L 15.7 57.1 L 14.2 54.5 L 12.2 52.3 L 13.3 50.8 L 16.0 52.5 L 18.8 54.2 L 21.4 56.3 L 23.9 58.6 L 26.1 61.2 L 28.1 64.1 L 30.0 67.2 L 31.6 70.6 L 33.0 74.1 L 34.3 77.9 L 33.3 82.3 L 29.5 84.9 L 25.0 83.9 L 22.5 80.1 L 22.2 76.8 Z M 74.0 63.8 L 74.0 81.0 L 100.9 81.0 L 100.9 63.8 Z M 165.6 68.9 L 164.8 66.9 L 163.8 64.8 L 162.7 62.8 L 161.4 60.7 L 159.9 58.6 L 158.3 56.5 L 156.6 54.3 L 154.4 52.5 L 155.4 50.9 L 158.0 52.3 L 160.7 53.4 L 163.3 54.6 L 165.8 56.1 L 168.1 57.7 L 170.3 59.5 L 172.4 61.5 L 174.3 63.5 L 176.1 65.8 L 177.7 68.1 L 177.8 72.7 L 174.7 76.0 L 170.1 76.1 L 166.8 73.0 L 166.3 71.0 Z " />
</g>
</svg>
