<svg xmlns="http://www.w3.org/2000/svg" xmlns:xlink="http://www.w3.org/1999/xlink" version="1.1" baseProfile="full" viewBox="0 0 200 200" width="200" height="200">
<g fill="black">
<path d="M 12.7 122.0 L 15.4 121.2 L 18.3 120.3 L 21.4 119.2 L 24.6 117.9 L 27.9 116.5 L 31.3 114.9 L 34.9 113.2 L 38.6 111.4 L 41.900908660888675 109.79186496734619 L 42.0 98.0 L 42.0 31.0 L 54.0 37.0 L 104.0 37.0 L 104.0 12.0 L 116.0 14.0 L 119.0 16.0 L 116.0 17.8 L 116.0 37.0 L 164.0 37.0 L 174.0 27.0 L 186.0 37.0 L 186.0 41.0 L 54.0 41.0 L 54.0 98.0 L 53.3 110.5 L 52.0 122.3 L 49.9 133.4 L 47.2 143.7 L 43.7 153.2 L 39.5 161.9 L 34.6 169.8 L 28.9 176.7 L 22.6 182.7 L 15.5 187.7 L 14.4 186.2 L 19.9 180.0 L 24.7 173.4 L 29.0 166.3 L 32.7 158.6 L 35.7 150.2 L 38.2 141.2 L 40.0 131.5 L 41.3 121.0 L 41.6436749458313 114.64201288223266 L 41.2 115.1 L 38.1 118.0 L 35.1 120.7 L 32.0 123.2 L 29.0 125.6 L 26.0 127.7 L 23.0 129.7 L 21.009677410125732 130.89419355392457 L 20.1 135.2 L 17.1 133.1 L 10.8 122.8 Z M 61.3 184.9 L 60.7 180.4 L 63.4 176.7 L 65.3 175.9 L 67.0 174.8 L 68.8 173.4 L 70.4 171.6 L 72.0 169.4 L 73.6 166.7 L 75.0 163.6 L 76.2 160.1 L 77.5 156.2 L 78.2 151.8 L 80.0 151.9 L 80.2 156.4 L 80.5 160.7 L 80.4 164.8 L 79.9 168.7 L 79.1 172.4 L 78.0 175.8 L 76.5 179.0 L 74.6 182.0 L 72.3 184.7 L 69.5 187.0 L 65.0 187.6 Z M 168.8 176.9 L 168.0 174.3 L 166.9 171.5 L 165.5 168.6 L 163.9 165.7 L 162.0 162.6 L 159.9 159.5 L 157.5 156.2 L 154.7 153.0 L 155.9 151.6 L 159.5 154.0 L 163.0 156.4 L 166.2 158.8 L 169.1 161.4 L 171.8 164.1 L 174.3 166.9 L 176.4 169.7 L 178.3 172.7 L 180.0 175.8 L 181.3 179.0 L 180.6 183.5 L 177.0 186.3 L 172.5 185.6 L 169.7 182.0 L 169.4 179.5 Z M 134.5 174.9 L 134.3 172.6 L 133.8 170.1 L 133.0 167.6 L 132.1 165.0 L 130.9 162.3 L 129.4 159.5 L 127.8 156.5 L 125.6 153.8 L 126.9 152.5 L 129.7 154.7 L 132.6 156.8 L 135.2 159.0 L 137.5 161.4 L 139.6 163.9 L 141.5 166.6 L 143.2 169.3 L 144.5 172.2 L 145.6 175.2 L 146.5 178.3 L 145.0 182.7 L 141.0 184.8 L 136.7 183.4 L 134.5 179.4 L 134.6 177.2 Z M 106.4 184.8 L 102.4 182.7 L 101.0 178.3 L 101.5 176.2 L 101.8 174.0 L 102.0 171.7 L 102.1 169.4 L 101.9 167.0 L 101.5 164.5 L 101.0 161.9 L 100.3 159.2 L 99.4 156.4 L 97.9 153.8 L 99.3 152.7 L 101.4 155.0 L 103.7 157.2 L 105.7 159.5 L 107.5 162.0 L 109.0 164.6 L 110.3 167.4 L 111.3 170.2 L 112.1 173.2 L 112.7 176.2 L 112.9 179.4 L 110.8 183.4 Z M 87.8 92.4 L 87.1 90.9 L 86.2 89.3 L 85.2 87.8 L 84.0 86.2 L 82.5 84.6 L 80.9 82.9 L 80.2292869567871 82.5486741065979 L 79.5 83.9 L 75.7 90.1 L 71.6 95.9 L 69.64244899749755 98.391428565979 L 71.2 99.3 L 73.7 100.5 L 76.1 101.9 L 78.3 103.4 L 80.3 105.1 L 82.2 106.9 L 83.9 108.8 L 85.4 110.9 L 86.7 113.2 L 87.8 115.6 L 86.9 120.1 L 83.2 122.8 L 78.7 121.9 L 76.1 118.2 L 76.1 116.6 L 75.9 114.9 L 75.6 113.1 L 75.2 111.3 L 74.5 109.4 L 73.6 107.5 L 72.5 105.4 L 71.2 103.3 L 69.7 101.1 L 68.41966524124146 99.94769878387451 L 67.2 101.5 L 62.5 106.8 L 57.3 111.7 L 55.9 110.5 L 59.4 104.5 L 62.8 98.5 L 66.0 92.5 L 69.1 86.4 L 71.9 80.1 L 74.4 73.8 L 76.8 67.3 L 78.8 60.7 L 80.7 53.9 L 82.06556091308593 48.011018657684325 L 82.0 48.0 L 82.7 45.3 L 93.9 50.0 L 96.3 52.6 L 92.72252130508423 53.68602027893066 L 91.6 57.2 L 89.92857141494751 61.7 L 109.8 61.7 L 115.8 56.7 L 126.8 65.7 L 121.8 68.7 L 120.71164770126343 69.15348014831542 L 118.9 77.5 L 115.3 89.6 L 110.9 100.9 L 105.7 111.5 L 99.7 121.3 L 92.9 130.3 L 85.3 138.5 L 76.9 145.7 L 67.7 152.1 L 57.8 157.4 L 56.9 155.8 L 65.5 149.0 L 73.4 141.7 L 80.5 134.0 L 86.9 125.7 L 92.5 116.8 L 97.4 107.3 L 101.6 97.2 L 105.1 86.4 L 107.8 74.9 L 109.32066116333007 65.7 L 88.36029415130615 65.7 L 86.1 71.0 L 82.9 77.6 L 81.22667055130005 80.70058107376099 L 81.8 80.9 L 84.3 81.3 L 86.7 82.0 L 88.9 82.9 L 91.1 84.0 L 93.1 85.3 L 95.0 86.7 L 96.8 88.4 L 98.4 90.2 L 99.9 92.3 L 99.9 96.8 L 96.7 100.1 L 92.2 100.1 L 88.9 97.0 L 88.3 94.0 Z M 164.6 140.2 L 160.0 135.3 L 156.0 130.0 L 152.6 124.3 L 149.7 118.1 L 147.5 111.6 L 145.8 104.7 L 145.37291278839112 101.58226346969604 L 143.5 108.1 L 140.0 116.2 L 135.6 123.5 L 130.3 130.0 L 124.2 135.7 L 117.2 140.6 L 109.5 144.5 L 101.0 147.5 L 100.3 145.8 L 107.6 141.2 L 114.1 136.2 L 119.7 130.9 L 124.5 125.2 L 128.4 119.0 L 131.5 112.3 L 133.9 105.1 L 135.5 97.3 L 136.20714282989502 90.7 L 117.2 90.7 L 117.2 86.7 L 136.4244444847107 86.7 L 136.5 79.9 L 136.5 48.4 L 148.5 50.4 L 151.5 52.4 L 148.5 54.2 L 148.5 79.9 L 147.96138610839844 86.7 L 161.6 86.7 L 171.6 76.7 L 183.6 86.7 L 183.6 90.7 L 147.57340421676636 90.7 L 147.32302255630492 92.0844633102417 L 148.9 96.5 L 151.4 103.0 L 154.2 108.9 L 157.2 114.4 L 160.5 119.3 L 164.1 123.8 L 168.1 127.8 L 172.3 131.3 L 176.9 134.4 L 181.8 137.2 L 186.4 139.8 L 175.3 148.6 L 169.6 144.7 Z M 24.3 76.9 L 23.6 73.9 L 22.7 70.9 L 21.7 68.1 L 20.5 65.4 L 19.2 62.7 L 17.8 60.1 L 16.2 57.5 L 14.2 55.3 L 15.3 53.8 L 18.0 55.5 L 20.8 57.2 L 23.5 59.2 L 26.0 61.5 L 28.3 64.1 L 30.4 67.0 L 32.3 70.1 L 34.1 73.4 L 35.7 76.9 L 37.1 80.6 L 36.3 85.1 L 32.6 87.9 L 28.1 87.1 L 25.4 83.4 L 24.9 80.1 Z M 165.3 68.3 L 164.7 66.5 L 163.9 64.6 L 162.8 62.7 L 161.6 60.8 L 160.2 58.9 L 158.6 56.9 L 156.7 54.8 L 154.4 53.1 L 155.3 51.6 L 158.0 52.8 L 160.7 53.7 L 163.4 54.8 L 165.8 56.1 L 168.1 57.6 L 170.3 59.3 L 172.3 61.1 L 174.1 63.0 L 175.8 65.2 L 177.3 67.5 L 177.1 72.1 L 173.8 75.2 L 169.3 75.1 L 166.1 71.8 L 165.8 70.1 Z " />
</g>
</svg>
