<svg xmlns="http://www.w3.org/2000/svg" xmlns:xlink="http://www.w3.org/1999/xlink" version="1.1" baseProfile="full" viewBox="0 0 200 200" width="200" height="200">
<g fill="black">
<path d="M 161.0 186.4 L 157.9 184.7 L 154.4 183.0 L 150.7 181.2 L 146.6 179.5 L 142.2 177.8 L 137.6 176.0 L 132.6 174.2 L 127.3 172.3 L 127.7 170.6 L 133.3 170.8 L 138.7 171.2 L 143.7 171.8 L 148.6 172.5 L 153.1 173.4 L 157.5 174.4 L 161.5 175.5 L 165.4 176.8 L 169.0 178.1 L 172.4 179.6 L 175.1 183.3 L 174.5 187.8 L 170.8 190.5 L 166.3 189.9 L 163.8 188.2 Z M 99.33756771087647 168.66026487350464 L 107.4 175.9 L 107.6 179.1 L 103.73648290634155 177.47007875442506 L 103.2 177.7 L 98.8 179.2 L 94.1 180.7 L 89.3 182.1 L 84.3 183.4 L 79.1 184.6 L 73.7 185.8 L 68.1 186.9 L 62.3 187.8 L 56.3 188.5 L 50.0 189.0 L 49.6 187.2 L 55.4 184.8 L 60.9 182.6 L 66.3 180.5 L 71.6 178.5 L 76.6 176.5 L 81.4 174.6 L 86.0 172.6 L 90.4 170.6 L 94.5 168.7 L 97.62089548110961 167.13955221176147 L 97.6 167.1 L 97.63576641082764 167.13211679458618 L 98.5 166.7 Z M 11.5 121.0 L 14.1 120.3 L 16.8 119.4 L 19.6 118.3 L 22.5 117.0 L 25.5 115.6 L 28.6 114.0 L 31.9 112.3 L 35.3 110.5 L 35.901788330078126 110.18238945007325 L 36.0 108.3 L 36.0 28.0 L 48.0 34.0 L 101.0 34.0 L 101.0 12.0 L 113.0 14.0 L 116.0 16.0 L 113.0 17.8 L 113.0 34.0 L 167.8181818008423 34.0 L 176.0 25.0 L 186.0 34.0 L 186.0 38.0 L 48.0 38.0 L 48.0 96.0 L 47.3 108.8 L 46.1 120.9 L 44.2 132.3 L 41.7 142.8 L 38.5 152.5 L 34.6 161.4 L 30.1 169.4 L 24.9 176.5 L 19.1 182.6 L 12.5 187.6 L 11.4 186.3 L 16.2 180.1 L 20.6 173.4 L 24.4 166.2 L 27.7 158.4 L 30.4 149.9 L 32.6 140.6 L 34.3 130.6 L 35.4 119.8 L 35.566769218444826 116.60358972549439 L 35.3 116.9 L 32.6 119.6 L 29.9 122.1 L 27.1 124.4 L 24.4 126.6 L 21.7 128.6 L 20.105434799194335 129.66304349899292 L 19.3 134.0 L 16.2 132.1 L 9.7 121.8 Z M 49.0 160.9 L 90.8 160.9 L 90.8 147.1 L 59.7 147.1 L 59.7 143.1 L 90.8 143.1 L 90.8 131.2 L 102.8 133.2 L 105.8 135.2 L 102.8 137.0 L 102.8 143.1 L 132.1 143.1 L 132.1 131.2 L 144.1 133.2 L 147.1 135.2 L 144.1 137.0 L 144.1 143.1 L 157.01818180084229 143.1 L 165.2 134.1 L 175.2 143.1 L 175.2 147.1 L 144.1 147.1 L 144.1 160.9 L 163.9 160.9 L 173.9 150.9 L 185.9 160.9 L 185.9 164.9 L 49.0 164.9 Z M 102.8 147.1 L 102.8 160.9 L 132.1 160.9 L 132.1 147.1 Z M 68.9 134.2 L 68.9 87.6 L 80.9 93.6 L 154.0 93.6 L 160.0 88.6 L 171.0 97.6 L 166.0 101.6 L 166.0 128.2 L 154.0 134.2 L 154.0 128.2 L 80.9 128.2 Z M 80.9 112.9 L 80.9 124.2 L 111.5 124.2 L 111.5 112.9 Z M 123.5 112.9 L 123.5 124.2 L 154.0 124.2 L 154.0 112.9 Z M 80.9 97.6 L 80.9 108.9 L 111.5 108.9 L 111.5 97.6 Z M 123.5 97.6 L 123.5 108.9 L 154.0 108.9 L 154.0 97.6 Z M 116.7 55.2 L 111.7 59.2 L 111.7 86.5 L 99.7 92.5 L 99.7 78.79298248291016 L 97.96687622070313 78.09365177154541 L 97.1 78.5 L 93.6 79.9 L 89.8 81.3 L 85.8 82.7 L 81.4 84.0 L 76.8 85.2 L 71.8 86.5 L 66.5 87.6 L 60.8 88.6 L 54.8 89.5 L 54.3 87.7 L 59.7 85.2 L 64.9 82.8 L 69.7 80.5 L 74.2 78.3 L 78.4 76.3 L 82.2 74.2 L 85.7 72.3 L 88.8 70.4 L 91.6 68.6 L 93.18344373703003 67.41241722106933 L 93.1 67.3 L 93.19738130569458 67.4019639968872 L 94.0 66.8 L 96.52164545059205 70.88266401290893 L 99.7 74.21058826446533 L 99.7 55.2 L 92.69117650985717 55.2 L 93.4978723526001 56.506079006195066 L 98.4 61.7 L 98.6 65.1 L 94.72682256698609 63.53713893890381 L 94.1 63.8 L 90.9 65.1 L 87.4 66.4 L 83.6 67.6 L 79.6 68.7 L 75.4 69.8 L 70.8 70.8 L 66.0 71.7 L 60.9 72.4 L 55.5 73.1 L 55.1 71.4 L 60.0 69.3 L 64.6 67.1 L 68.9 65.0 L 73.0 63.1 L 76.7 61.1 L 80.2 59.3 L 83.3 57.5 L 86.2 55.7 L 86.93529415130615 55.2 L 54.5 55.2 L 54.5 51.2 L 99.7 51.2 L 105.7 46.2 Z M 181.9 55.2 L 176.9 59.2 L 176.9 86.5 L 164.9 92.5 L 164.9 79.11578950881957 L 162.3545781135559 78.08868942260742 L 161.3 78.6 L 157.8 80.0 L 154.0 81.5 L 149.9 82.9 L 145.6 84.2 L 141.0 85.4 L 136.2 86.6 L 131.1 87.7 L 125.6 88.6 L 119.9 89.5 L 119.4 87.7 L 124.6 85.3 L 129.5 82.9 L 134.1 80.7 L 138.5 78.6 L 142.6 76.5 L 146.3 74.5 L 149.8 72.5 L 153.0 70.6 L 155.8 68.6 L 157.53642988204956 67.34977045059205 L 157.5 67.3 L 157.54300928115845 67.34503326416015 L 158.3 66.8 L 160.63858957290648 70.58628797531128 L 164.9 75.04823532104493 L 164.9 55.2 L 158.64757280349733 55.2 L 158.9 55.63333330154419 L 164.7 61.5 L 164.8 64.9 L 161.03521852493287 63.34215936660767 L 159.8 63.9 L 156.5 65.2 L 152.9 66.4 L 149.2 67.6 L 145.2 68.7 L 140.9 69.8 L 136.4 70.8 L 131.7 71.6 L 126.7 72.4 L 121.5 73.1 L 121.0 71.4 L 125.8 69.3 L 130.2 67.1 L 134.5 65.0 L 138.5 63.1 L 142.2 61.1 L 145.7 59.3 L 148.9 57.4 L 151.9 55.7 L 152.62222223281861 55.2 L 119.7 55.2 L 119.7 51.2 L 164.9 51.2 L 170.9 46.2 Z M 21.7 73.7 L 21.1 70.7 L 20.3 67.8 L 19.4 65.0 L 18.4 62.3 L 17.1 59.7 L 15.7 57.1 L 14.2 54.5 L 12.2 52.3 L 13.3 50.8 L 16.0 52.5 L 18.8 54.2 L 21.4 56.3 L 23.9 58.6 L 26.1 61.2 L 28.1 64.1 L 30.0 67.2 L 31.6 70.6 L 33.0 74.1 L 34.3 77.9 L 33.3 82.3 L 29.5 84.9 L 25.0 83.9 L 22.5 80.1 L 22.2 76.8 Z " />
</g>
</svg>
