<svg xmlns="http://www.w3.org/2000/svg" xmlns:xlink="http://www.w3.org/1999/xlink" version="1.1" baseProfile="full" viewBox="0 0 200 200" width="200" height="200">
<g fill="black">
<path d="M 11.5 121.0 L 14.1 120.3 L 16.8 119.4 L 19.6 118.3 L 22.5 117.0 L 25.5 115.6 L 28.6 114.0 L 31.9 112.3 L 35.3 110.5 L 35.901788330078126 110.18238945007325 L 36.0 108.3 L 36.0 28.0 L 48.0 34.0 L 101.0 34.0 L 101.0 12.0 L 113.0 14.0 L 116.0 16.0 L 113.0 17.8 L 113.0 34.0 L 164.0 34.0 L 174.0 24.0 L 186.0 34.0 L 186.0 38.0 L 48.0 38.0 L 48.0 96.0 L 47.3 108.8 L 46.1 120.9 L 44.2 132.3 L 41.7 142.8 L 38.5 152.5 L 34.6 161.4 L 30.1 169.4 L 24.9 176.5 L 19.1 182.6 L 12.5 187.6 L 11.4 186.3 L 16.2 180.1 L 20.6 173.4 L 24.4 166.2 L 27.7 158.4 L 30.4 149.9 L 32.6 140.6 L 34.3 130.6 L 35.4 119.8 L 35.566769218444826 116.60358972549439 L 35.3 116.9 L 32.6 119.6 L 29.9 122.1 L 27.1 124.4 L 24.4 126.6 L 21.7 128.6 L 20.105434799194335 129.66304349899292 L 19.3 134.0 L 16.2 132.1 L 9.7 121.8 Z M 99.9 186.3 L 97.4 185.9 L 95.0 185.1 L 92.7 183.8 L 90.7 182.2 L 89.1 180.2 L 87.8 177.9 L 87.0 175.5 L 86.6 173.0 L 86.5 170.5 L 86.5 147.9 L 98.5 149.9 L 101.5 151.9 L 98.5 153.7 L 98.5 171.7 L 98.7 172.6 L 99.0 173.5 L 99.4 173.9 L 100.3 174.2 L 101.2 174.4 L 102.5 174.5 L 147.2 174.5 L 153.2 149.5 L 155.13125 149.5 L 155.3 149.2 L 158.8 150.8 L 162.4 152.2 L 165.6 153.8 L 168.7 155.6 L 171.5 157.6 L 174.1 159.7 L 176.4 162.1 L 178.5 164.6 L 180.4 167.2 L 181.9 170.1 L 181.6 174.7 L 178.2 177.7 L 173.6 177.4 L 170.6 174.0 L 170.1 171.9 L 169.5 169.7 L 168.6 167.5 L 167.5 165.2 L 166.0 162.9 L 164.3 160.5 L 162.3 158.1 L 160.0 155.6 L 157.4 153.1 L 155.0557788848877 151.30276384353638 L 153.2 174.5 L 156.8 176.9 L 159.2 180.5 L 156.8 184.1 L 153.2 186.5 L 102.5 186.5 Z M 53.8 179.4 L 53.4 174.8 L 56.3 171.3 L 58.1 170.6 L 59.9 169.6 L 61.6 168.4 L 63.2 166.9 L 64.7 165.0 L 66.1 162.6 L 67.3 159.9 L 68.4 156.8 L 69.4 153.3 L 69.8 149.4 L 71.6 149.3 L 72.1 153.3 L 72.6 157.2 L 72.6 161.0 L 72.3 164.5 L 71.7 167.9 L 70.6 171.2 L 69.1 174.2 L 67.1 177.1 L 64.7 179.6 L 61.9 181.9 L 57.4 182.2 Z M 123.0 160.9 L 121.9 159.1 L 120.6 157.2 L 119.1 155.4 L 117.4 153.5 L 115.6 151.7 L 111.4 147.9 L 108.8 146.4 L 109.5 144.8 L 112.4 145.7 L 115.4 146.4 L 118.2 147.2 L 121.0 148.3 L 123.6 149.5 L 126.1 150.8 L 128.4 152.4 L 130.7 154.1 L 132.8 155.9 L 134.8 157.9 L 135.6 162.4 L 133.1 166.3 L 128.6 167.1 L 124.8 164.6 L 124.0 162.8 Z M 69.7 147.2 L 69.7 109.3 L 81.7 115.3 L 112.0 115.3 L 112.0 107.1 L 55.0 107.1 L 55.0 103.1 L 112.0 103.1 L 112.0 94.6 L 73.0 94.6 L 73.0 90.6 L 112.0 90.6 L 112.0 81.72375001907349 L 107.3 81.9 L 99.1 82.0 L 90.6 81.9 L 81.9 81.6 L 73.0 80.9 L 72.9 79.2 L 81.7 77.8 L 90.3 76.5 L 98.6 75.4 L 106.7 74.3 L 112.0 73.55256414413452 L 112.0 62.4 L 124.0 64.4 L 127.0 66.4 L 124.0 68.2 L 124.0 71.67123289108277 L 129.3 70.8 L 136.4 69.5 L 143.2 68.2 L 148.703768825531 67.01457290649414 L 148.7 67.0 L 148.7148635864258 67.01218318939209 L 149.7 66.8 L 149.90070991516114 67.98418846130372 L 160.9 77.0 L 161.3 80.0 L 156.78977851867677 77.7148211479187 L 151.7 78.6 L 144.9 79.4 L 137.9 80.1 L 130.6 80.7 L 124.0 81.13421049118043 L 124.0 90.6 L 144.8181818008423 90.6 L 153.0 81.6 L 163.0 90.6 L 163.0 94.6 L 124.0 94.6 L 124.0 103.1 L 166.7777777671814 103.1 L 173.0 96.1 L 181.0 103.1 L 181.0 107.1 L 124.0 107.1 L 124.0 110.5 L 114.4 115.3 L 152.7 115.3 L 158.7 110.3 L 169.7 119.3 L 164.7 123.3 L 164.7 141.2 L 152.7 147.2 L 152.7 141.2 L 81.7 141.2 Z M 81.7 119.3 L 81.7 137.2 L 97.2 137.2 L 97.2 119.3 Z M 109.2 119.3 L 109.2 137.2 L 125.2 137.2 L 125.2 119.3 Z M 137.2 119.3 L 137.2 137.2 L 152.7 137.2 L 152.7 119.3 Z M 21.7 73.7 L 21.1 70.7 L 20.3 67.8 L 19.4 65.0 L 18.4 62.3 L 17.1 59.7 L 15.7 57.1 L 14.2 54.5 L 12.2 52.3 L 13.3 50.8 L 16.0 52.5 L 18.8 54.2 L 21.4 56.3 L 23.9 58.6 L 26.1 61.2 L 28.1 64.1 L 30.0 67.2 L 31.6 70.6 L 33.0 74.1 L 34.3 77.9 L 33.3 82.3 L 29.5 84.9 L 25.0 83.9 L 22.5 80.1 L 22.2 76.8 Z M 52.3 77.8 L 52.0 73.2 L 54.9 69.7 L 56.1 69.5 L 57.3 69.0 L 58.6 68.3 L 59.8 67.2 L 61.0 65.7 L 62.2 63.9 L 63.2 61.6 L 64.2 59.0 L 65.1 56.0 L 65.3 52.6 L 67.1 52.5 L 67.5 56.0 L 67.68181819915772 57.2 L 112.0 57.2 L 112.0 40.2 L 124.0 42.2 L 127.0 44.2 L 124.0 46.0 L 124.0 57.2 L 169.0 57.2 L 169.7525424003601 56.57288131713867 L 170.1 55.6 L 170.53655319213868 55.91953897476196 L 175.0 52.2 L 186.0 61.2 L 181.0 64.2 L 173.75932207107545 67.21694917678833 L 173.5 67.4 L 171.6 68.7 L 169.6 70.1 L 167.5 71.4 L 165.2 72.8 L 162.8 74.2 L 160.6 76.0 L 159.3 74.7 L 161.2 72.6 L 162.6 70.2 L 163.9 67.9 L 165.1 65.8 L 166.3 63.8 L 167.3 61.9 L 167.67058820724486 61.2 L 68.178125 61.2 L 68.3 62.5 L 68.2 65.5 L 67.9 68.4 L 67.2 71.1 L 66.1 73.8 L 64.6 76.3 L 62.7 78.5 L 60.3 80.4 L 55.8 80.7 Z " />
</g>
</svg>
