<svg xmlns="http://www.w3.org/2000/svg" xmlns:xlink="http://www.w3.org/1999/xlink" version="1.1" baseProfile="full" viewBox="0 0 200 200" width="200" height="200">
<g fill="black">
<path d="M 154.9 185.1 L 145.8 182.6 L 137.3 179.6 L 129.5 176.1 L 122.4 172.1 L 116.2 167.6 L 110.7 162.6 L 106.2 157.1 L 102.8 151.1 L 97.56000003814697 151.1 L 97.4 151.4 L 91.1 159.4 L 83.5 166.3 L 74.6 172.3 L 64.6 177.2 L 53.3 181.2 L 40.7 184.2 L 27.0 186.2 L 12.0 187.1 L 11.9 185.3 L 26.4 182.4 L 39.5 179.0 L 51.1 175.0 L 61.4 170.4 L 70.1 165.1 L 77.5 159.2 L 83.5 152.8 L 84.641428565979 151.1 L 12.0 151.1 L 12.0 147.1 L 87.32714281082153 147.1 L 88.2 145.8 L 91.6 138.1 L 93.9 129.8 L 93.91363639831543 129.8030303001404 L 94.3 128.0 L 105.6 132.4 L 108.1 135.1 L 104.26263027191162 136.3334403038025 L 102.2 142.4 L 99.69333333969116 147.1 L 165.0 147.1 L 175.0 137.1 L 187.0 147.1 L 187.0 151.1 L 105.57906980514527 151.1 L 109.3 154.3 L 114.6 158.2 L 120.3 161.7 L 126.4 164.8 L 133.2 167.6 L 140.6 170.0 L 148.6 172.0 L 157.2 173.6 L 166.6 174.8 L 176.5 175.6 L 187.3 176.5 L 175.4 188.7 L 164.8 187.2 Z M 149.0 76.1 L 150.9 79.2 L 145.1 79.7 L 146.3133333206177 78.58000001907348 L 145.8 79.0 L 144.6 80.0 L 143.4 80.9 L 140.8 82.7 L 140.3333333015442 83.0 L 166.3 83.0 L 172.3 78.0 L 183.3 87.0 L 178.3 91.0 L 178.3 126.0 L 166.3 132.0 L 166.3 122.0 L 120.9 122.0 L 120.9 129.0 L 108.9 135.0 L 108.9 77.0 L 120.9 83.0 L 136.35 83.0 L 136.7 81.6 L 137.0 80.0 L 137.3 78.5 L 137.6 77.1 L 138.0 74.5 L 138.1 73.2 L 138.2 72.0 L 138.2 71.9535714149475 L 137.8 71.8 L 138.2 71.0 L 138.2 70.9 L 138.24029846191405 70.91940298080445 L 138.8 69.8 Z M 61.8 76.1 L 63.7 79.2 L 57.9 79.7 L 59.11333332061768 78.58000001907348 L 58.6 79.0 L 57.4 80.0 L 56.2 80.9 L 53.6 82.7 L 53.13333330154419 83.0 L 79.0 83.0 L 85.0 78.0 L 96.0 87.0 L 91.0 91.0 L 91.0 126.0 L 79.0 132.0 L 79.0 122.0 L 33.6 122.0 L 33.6 129.0 L 21.6 135.0 L 21.6 77.0 L 33.6 83.0 L 49.1375 83.0 L 49.4 81.6 L 49.8 80.0 L 50.1 78.5 L 50.4 77.1 L 50.8 74.5 L 50.9 73.2 L 51.0 72.0 L 51.0 71.9535714149475 L 50.6 71.8 L 51.0 70.91111106872559 L 51.0 70.9 L 51.00410957336426 70.90197868347168 L 51.5 69.8 Z M 120.9 104.1 L 120.9 118.0 L 166.3 118.0 L 166.3 104.1 Z M 33.6 104.1 L 33.6 118.0 L 79.0 118.0 L 79.0 104.1 Z M 120.9 87.0 L 120.9 100.1 L 166.3 100.1 L 166.3 87.0 Z M 33.6 87.0 L 33.6 100.1 L 79.0 100.1 L 79.0 87.0 Z M 104.7 21.1 L 105.3 24.6 L 100.32306652069092 23.089145183563232 L 100.3 23.1 L 98.4 24.1 L 96.4 25.1 L 94.1 26.3 L 91.6 27.6 L 88.9 29.0 L 87.45 29.7 L 145.2 29.7 L 151.2 24.7 L 162.2 33.7 L 157.2 37.7 L 157.2 66.7 L 145.2 72.7 L 145.2 66.7 L 55.7 66.7 L 43.7 72.7 L 43.7 23.7 L 55.7 29.7 L 83.35416669845581 29.7 L 84.5 28.6 L 86.5 26.0 L 88.4 23.6 L 90.1 21.5 L 91.7 19.5 L 93.1 17.7 L 94.3 16.0 L 95.3 14.6 L 96.1 13.3 L 96.2121418952942 13.094406509399414 L 95.9 12.8 L 96.9 12.0 Z M 55.7 50.2 L 55.7 62.7 L 145.2 62.7 L 145.2 50.2 Z M 55.7 33.7 L 55.7 46.2 L 145.2 46.2 L 145.2 33.7 Z " />
</g>
</svg>
