<svg xmlns="http://www.w3.org/2000/svg" xmlns:xlink="http://www.w3.org/1999/xlink" version="1.1" baseProfile="full" viewBox="0 0 200 200" width="200" height="200">
<g fill="black">
<path d="M 153.6 174.3 L 143.2 167.4 L 133.8 159.6 L 131.6951132774353 157.41993865966796 L 131.3 157.8 L 119.9 166.7 L 107.4 174.3 L 94.0 180.5 L 79.6 185.4 L 64.3 188.8 L 63.9 187.1 L 78.4 181.8 L 91.8 175.6 L 104.1 168.6 L 115.4 160.6 L 125.6 151.6 L 125.83218727111816 151.3476224899292 L 125.4 150.9 L 117.9 141.3 L 111.5 130.8 L 106.0 119.4 L 101.7 107.2 L 98.88461542129517 95.0 L 87.9 95.0 L 87.9 91.0 L 125.6 91.0 L 125.6 54.0 L 86.0 54.0 L 86.0 50.0 L 125.6 50.0 L 125.6 14.0 L 137.6 16.0 L 140.6 18.0 L 137.6 19.8 L 137.6 50.0 L 165.6 50.0 L 175.6 40.0 L 187.6 50.0 L 187.6 54.0 L 137.6 54.0 L 137.6 91.0 L 161.7 91.0 L 167.7 86.0 L 178.7 95.0 L 173.7 98.0 L 171.63696966171264 98.85959596633911 L 167.0 109.9 L 159.7 123.7 L 151.3 136.3 L 141.8 147.7 L 138.9086485862732 150.48120470046996 L 140.5 151.9 L 149.5 158.4 L 159.3 164.0 L 169.8 168.8 L 181.1 172.7 L 188.6 175.1 L 177.0 185.2 L 164.8 180.2 Z M 58.8 19.5 L 61.2 22.2 L 57.32121210098266 23.30822515487671 L 56.0 26.8 L 54.4 30.4 L 52.7 34.1 L 50.9 37.8 L 49.0 41.5 L 47.0 45.2 L 44.9 48.9 L 41.3972972869873 54.3 L 63.9 54.3 L 69.9 49.3 L 80.9 58.3 L 75.9 62.3 L 75.9 161.6 L 63.9 167.6 L 63.9 157.6 L 30.5 157.6 L 30.5 169.6 L 18.5 175.6 L 18.5 48.3 L 30.5 54.3 L 38.84047622680664 54.3 L 39.6 51.4 L 40.5 47.1 L 41.4 43.0 L 42.4 39.0 L 44.2 31.2 L 45.1 27.4 L 45.9 23.6 L 46.6 19.9 L 47.101862812042235 17.31899137496948 L 47.0 17.3 L 47.7 14.7 Z M 30.5 106.5 L 30.5 153.6 L 63.9 153.6 L 63.9 106.5 Z M 105.6 105.7 L 111.4 116.8 L 117.6 127.0 L 124.6 136.2 L 132.1660803794861 144.46295614242553 L 134.8 141.6 L 143.1 130.5 L 150.3 118.4 L 156.6 105.2 L 160.47887325286865 95.0 L 100.96333332061768 95.0 Z M 30.5 58.3 L 30.5 102.5 L 63.9 102.5 L 63.9 58.3 Z " />
</g>
</svg>
