<svg xmlns="http://www.w3.org/2000/svg" xmlns:xlink="http://www.w3.org/1999/xlink" version="1.1" baseProfile="full" viewBox="0 0 200 200" width="200" height="200">
<g fill="black">
<path d="M 158.22123651504518 96.10725803375244 L 157.7 107.5 L 156.4721399307251 118.9600269317627 L 156.9 121.2 L 158.8 129.5 L 160.9 137.3 L 163.4 144.4 L 166.4 151.1 L 169.7 157.2 L 173.4 162.7 L 177.6 167.7 L 182.1 172.3 L 187.1 176.3 L 189.6 178.4 L 178.7 186.5 L 173.2 181.1 L 168.4 175.1 L 164.2 168.8 L 160.7 161.9 L 157.7 154.6 L 155.5 147.0 L 153.9 138.9 L 153.53433809280395 135.79187421798707 L 150.8 146.2 L 146.9 156.7 L 142.1 166.0 L 136.5 174.1 L 130.0 180.8 L 122.8 186.0 L 114.9 189.7 L 114.1 188.1 L 120.6 183.0 L 126.2 177.0 L 126.27352943420411 176.9 L 77.9 176.9 L 77.9 183.9 L 66.9 189.4 L 66.9 140.03571424484252 L 65.2 142.1 L 59.0 148.7 L 57.5 147.6 L 59.4 143.6 L 61.1 139.6 L 62.8 135.7 L 64.4 131.8 L 65.9 128.1 L 66.9 125.17692308425903 L 66.9 123.2 L 67.55426540374756 123.31895732879639 L 68.5 120.7 L 69.6 117.0 L 70.6 113.5 L 71.17385034561157 110.91767358779907 L 71.1 110.9 L 71.35454549789429 110.10454549789429 L 71.4 109.9 L 71.41807231903076 109.90602407455444 L 71.9 108.4 L 82.8 113.7 L 85.1 116.5 L 81.20504999160767 117.3883219718933 L 81.2 117.4 L 79.4 121.0 L 77.4 124.6 L 77.13150682449341 125.06027393341064 L 77.9 125.2 L 78.6 125.7 L 93.21764707565308 125.7 L 93.3 124.3 L 93.7 121.1 L 94.0 119.4 L 94.2 117.8 L 94.5 116.2 L 94.8 114.5 L 95.1 112.9 L 95.22554025650024 112.18860511779785 L 95.0 112.1 L 95.37272729873658 111.35454549789429 L 95.4 111.2 L 95.44014873504639 111.21970262527466 L 96.0 110.1 L 106.2 116.5 L 108.0 119.6 L 102.93544664382935 120.03659944534301 L 102.6 120.4 L 101.4 121.6 L 100.1 122.8 L 98.9 123.9 L 97.6 125.0 L 96.68999996185303 125.7 L 112.4777777671814 125.7 L 118.7 118.7 L 126.7 125.7 L 126.7 129.7 L 101.7 129.7 L 101.7 141.2 L 107.4777777671814 141.2 L 113.7 134.2 L 121.7 141.2 L 121.7 145.2 L 101.7 145.2 L 101.7 157.4 L 107.4777777671814 157.4 L 113.7 150.4 L 121.7 157.4 L 121.7 161.4 L 101.7 161.4 L 101.7 172.9 L 112.71818180084229 172.9 L 120.9 163.9 L 129.8858407020569 171.98725662231445 L 131.2 170.2 L 135.4 162.4 L 139.0 153.6 L 141.9 143.6 L 144.1 132.5 L 145.6 120.3 L 146.4 106.8 L 146.4 89.8 L 158.4 92.2 L 161.4 94.2 Z M 11.5 121.0 L 14.1 120.3 L 16.8 119.4 L 19.6 118.3 L 22.5 117.0 L 25.5 115.6 L 28.6 114.0 L 31.9 112.3 L 35.3 110.5 L 36.32857141494751 109.95714282989502 L 36.4 108.3 L 36.5 96.0 L 36.5 28.5 L 47.5 34.0 L 101.0 34.0 L 101.0 12.0 L 113.0 14.0 L 116.0 16.0 L 113.0 17.8 L 113.0 34.0 L 164.0 34.0 L 174.0 24.0 L 186.0 34.0 L 186.0 38.0 L 47.5 38.0 L 47.5 96.0 L 46.9 108.8 L 45.6 120.9 L 43.8 132.2 L 41.3 142.7 L 38.1 152.4 L 34.3 161.3 L 29.9 169.3 L 24.8 176.4 L 18.9 182.5 L 12.5 187.6 L 11.4 186.3 L 16.4 180.2 L 20.7 173.6 L 24.6 166.4 L 28.0 158.5 L 30.8 150.0 L 33.0 140.7 L 34.7 130.7 L 35.9 119.9 L 36.06599597930908 116.04889335632325 L 35.3 116.9 L 32.6 119.6 L 29.9 122.1 L 27.1 124.4 L 24.4 126.6 L 21.7 128.6 L 20.105434799194335 129.66304349899292 L 19.3 134.0 L 16.2 132.1 L 9.7 121.8 Z M 77.9 161.4 L 77.9 172.9 L 90.7 172.9 L 90.7 161.4 Z M 77.9 145.2 L 77.9 157.4 L 90.7 157.4 L 90.7 145.2 Z M 77.9 129.7 L 77.9 141.2 L 90.7 141.2 L 90.7 129.7 Z M 142.3 85.0 L 139.3 90.6 L 136.0 96.0 L 132.3 101.1 L 128.3 105.9 L 127.25454549789428 105.27272729873657 L 117.0 110.4 L 117.0 104.9 L 105.3 104.9 L 96.3 109.4 L 96.3 87.05 L 92.0 89.2 L 92.0 104.9 L 83.0 109.4 L 83.0 104.9 L 70.8 104.9 L 60.8 109.9 L 60.8 77.7 L 70.8 82.7 L 83.0 82.7 L 87.5 77.7 L 96.3 86.03684206008911 L 96.3 78.2 L 105.3 82.7 L 117.0 82.7 L 122.5 77.7 L 133.0 86.7 L 128.0 90.2 L 128.0 101.83636360168457 L 129.0 99.2 L 131.2 93.6 L 133.3 87.9 L 135.2 82.1 L 137.0 76.2 L 138.6 70.3 L 140.1 64.2 L 141.3 58.1 L 142.4 51.8 L 143.2 45.3 L 143.23707160949706 45.306230545043945 L 143.5 43.4 L 155.1 47.3 L 157.7 49.7 L 154.1848744392395 51.13208818435669 L 153.5 54.0 L 151.8 60.5 L 149.7 66.9 L 147.5 73.1 L 145.0 79.2 L 144.20862064361572 80.9 L 173.8 80.9 L 179.8 75.9 L 190.8 84.9 L 185.8 87.9 L 182.6948453903198 89.19381446838379 L 182.5 89.5 L 180.9 91.7 L 179.1 94.1 L 177.2 96.6 L 175.2 99.2 L 173.0 102.0 L 170.7 104.8 L 168.1 107.7 L 165.6 110.9 L 164.1 110.0 L 165.8 106.3 L 167.0 102.7 L 168.3 99.2 L 169.4 96.0 L 170.5 93.0 L 171.5 90.1 L 172.4 87.4 L 173.1 84.9 L 142.34655170440675 84.9 Z M 105.3 86.7 L 105.3 100.9 L 117.0 100.9 L 117.0 86.7 Z M 70.8 86.7 L 70.8 100.9 L 83.0 100.9 L 83.0 86.7 Z M 21.7 73.7 L 21.1 70.7 L 20.3 67.8 L 19.4 65.0 L 18.4 62.3 L 17.1 59.7 L 15.7 57.1 L 14.2 54.5 L 12.2 52.3 L 13.3 50.8 L 16.0 52.5 L 18.8 54.2 L 21.4 56.3 L 23.9 58.6 L 26.1 61.2 L 28.1 64.1 L 30.0 67.2 L 31.6 70.6 L 33.0 74.1 L 34.3 77.9 L 33.3 82.3 L 29.5 84.9 L 25.0 83.9 L 22.5 80.1 L 22.2 76.8 Z M 111.3 45.4 L 114.1 47.4 L 111.3 49.15 L 111.3 59.2 L 116.1777777671814 59.2 L 122.4 52.2 L 130.4 59.2 L 130.4 63.2 L 111.3 63.2 L 111.3 74.6 L 100.3 80.1 L 100.3 63.2 L 88.0 63.2 L 88.0 74.6 L 77.0 80.1 L 77.0 63.2 L 57.8 63.2 L 57.8 59.2 L 77.0 59.2 L 77.0 43.4 L 88.0 45.4 L 90.7 47.4 L 88.0 49.12340421676636 L 88.0 59.2 L 100.3 59.2 L 100.3 43.4 Z " />
</g>
</svg>
