<svg xmlns="http://www.w3.org/2000/svg" xmlns:xlink="http://www.w3.org/1999/xlink" version="1.1" baseProfile="full" viewBox="0 0 200 200" width="200" height="200">
<g fill="black">
<path d="M 119.2 46.0 L 137.5 46.0 L 137.5 12.0 L 149.5 14.0 L 152.5 16.0 L 149.5 17.8 L 149.5 46.0 L 172.7 46.0 L 178.7 41.0 L 189.7 50.0 L 184.7 53.0 L 181.99174308776855 54.128440380096436 L 181.6 54.8 L 180.0 57.3 L 178.3 59.9 L 176.4 62.7 L 174.4 65.6 L 172.2 68.6 L 169.8 71.7 L 167.2 74.9 L 164.7 78.4 L 163.1 77.5 L 164.8 73.6 L 166.0 69.6 L 167.2 66.0 L 168.4 62.5 L 169.4 59.2 L 170.4 56.2 L 171.3 53.3 L 172.0 50.6 L 172.14399995803834 50.0 L 149.5 50.0 L 149.5 93.0 L 163.6 93.0 L 169.6 88.0 L 180.6 97.0 L 175.6 100.0 L 174.13803386688232 100.60915250778199 L 171.3 110.3 L 166.6 123.3 L 161.2 135.2 L 155.2 146.2 L 152.48125 150.278125 L 155.2 153.7 L 161.4 160.1 L 168.1 165.6 L 175.3 170.2 L 183.0 174.0 L 188.7 176.7 L 177.3 185.9 L 168.7 180.8 L 160.8 174.8 L 153.6 167.9 L 147.2 160.1 L 146.35938682556153 158.83170642852784 L 141.3 165.0 L 133.3 172.7 L 124.7 179.3 L 115.5 184.7 L 105.8 188.8 L 105.0 187.1 L 113.6 181.4 L 121.5 175.1 L 128.7 168.0 L 135.5 160.1 L 141.48371095657347 151.46776123046874 L 136.7 142.0 L 132.5 131.8 L 129.2 120.7 L 126.7 108.8 L 125.30629920959473 97.0 L 119.2 97.0 L 119.2 106.0 L 118.6 117.8 L 117.6 128.9 L 116.2 139.2 L 114.2 148.8 L 111.8 157.5 L 108.9 165.5 L 105.4 172.7 L 101.5 179.0 L 97.0 184.3 L 92.0 188.6 L 90.7 187.3 L 94.0 182.0 L 96.9 176.3 L 99.5 170.0 L 101.7 163.0 L 103.6 155.4 L 105.1 147.0 L 106.2 137.9 L 106.9 128.0 L 107.3 117.3 L 107.2 106.0 L 107.2 40.0 Z M 61.5 176.0 L 75.5 176.0 L 76.8 175.9 L 77.7 175.7 L 78.6 175.4 L 78.8 175.2 L 78.9 175.0 L 79.1 174.7 L 79.3 174.1 L 79.5 173.2 L 79.5 133.15046730041504 L 72.9 137.9 L 68.0 130.1 L 63.6 121.5 L 60.0 112.4 L 56.9 102.5 L 54.5 92.0 L 53.532042026519775 86.34508752822876 L 52.0 93.1 L 49.4 102.2 L 46.4 110.8 L 42.9 118.8 L 38.9 126.3 L 34.6 133.1 L 29.7 139.2 L 25.4 143.42037038803102 L 25.4 182.0 L 13.4 188.0 L 13.4 55.0 L 25.4 61.0 L 51.07200002670288 61.0 L 50.9 56.7 L 51.0 43.7 L 52.09202899932861 30.0 L 28.8 30.0 L 28.8 26.0 L 49.28000001907348 26.0 L 53.0 22.9 L 64.0 31.9 L 59.0 34.9 L 54.58445234298706 37.10777387619019 L 55.2 43.5 L 56.8 56.3 L 57.505000019073485 61.0 L 79.5 61.0 L 85.5 56.0 L 96.5 65.0 L 91.5 69.0 L 91.5 172.0 L 91.4 174.5 L 90.9 177.0 L 90.1 179.4 L 88.9 181.7 L 87.3 183.7 L 85.3 185.3 L 83.0 186.6 L 80.6 187.4 L 78.1 187.8 L 75.5 188.0 L 75.5 182.0 L 61.5 179.0 Z M 130.7 107.8 L 134.8 118.9 L 139.2 129.0 L 144.1 138.2 L 146.7250129699707 142.2613408088684 L 147.1 141.6 L 152.1 131.0 L 156.6 119.5 L 160.4 107.0 L 162.8626865386963 97.0 L 127.28000001907348 97.0 Z M 25.4 65.0 L 25.4 139.07567567825316 L 26.6 137.0 L 29.9 130.3 L 33.1 123.3 L 35.9 115.9 L 38.3 108.1 L 40.5 99.8 L 42.2 90.9 L 43.6 81.6 L 44.7 71.8 L 45.16213588714599 65.0 Z M 58.105000019073486 65.0 L 58.6 68.3 L 60.9 79.5 L 63.5 89.9 L 66.7 99.5 L 70.2 108.3 L 74.2 116.3 L 78.6 123.5 L 79.5 124.71875 L 79.5 65.0 Z M 119.2 50.0 L 119.2 93.0 L 137.5 93.0 L 137.5 50.0 Z " />
</g>
</svg>
