<svg xmlns="http://www.w3.org/2000/svg" xmlns:xlink="http://www.w3.org/1999/xlink" version="1.1" baseProfile="full" viewBox="0 0 200 200" width="200" height="200">
<g fill="black">
<path d="M 110.2 46.0 L 132.6 46.0 L 132.6 12.0 L 144.6 14.0 L 147.6 16.0 L 144.6 17.8 L 144.6 46.0 L 172.6 46.0 L 178.6 41.0 L 189.6 50.0 L 184.6 53.0 L 181.4615385055542 54.30769233703613 L 181.0 55.0 L 179.3 57.5 L 177.4 60.1 L 175.3 62.9 L 173.1 65.7 L 170.7 68.7 L 168.1 71.8 L 165.3 75.0 L 162.5 78.4 L 161.0 77.5 L 162.9 73.5 L 164.4 69.5 L 165.9 65.8 L 167.3 62.3 L 168.6 59.0 L 169.7 56.0 L 170.8 53.1 L 171.7 50.4 L 171.80769233703614 50.0 L 144.6 50.0 L 144.6 93.0 L 162.2 93.0 L 168.2 88.0 L 179.2 97.0 L 174.2 100.0 L 172.55463914871217 100.68556699752807 L 169.4 110.5 L 164.0 123.5 L 158.0 135.5 L 151.2 146.4 L 148.24785890579224 150.296826171875 L 151.1 153.5 L 158.1 159.8 L 165.7 165.4 L 173.9 170.0 L 182.7 173.9 L 189.1 176.5 L 177.6 186.0 L 167.9 181.0 L 158.9 175.0 L 150.8 168.1 L 143.5 160.3 L 141.92029438018798 158.20992794036866 L 135.5 165.1 L 126.5 172.8 L 116.9 179.4 L 106.6 184.7 L 95.7 188.8 L 95.0 187.1 L 104.8 181.4 L 113.9 175.0 L 122.3 167.8 L 130.0 159.9 L 136.79685611724852 151.35538091659546 L 131.4 142.2 L 126.6 131.9 L 122.7 120.8 L 119.8 108.9 L 118.03359375 97.0 L 110.2 97.0 L 110.2 106.0 L 109.6 117.8 L 108.5 128.9 L 106.9 139.3 L 104.7 148.9 L 102.0 157.7 L 98.7 165.7 L 94.9 172.8 L 90.5 179.1 L 85.5 184.4 L 79.9 188.6 L 78.8 187.3 L 82.6 181.9 L 86.0 176.1 L 89.1 169.8 L 91.7 162.9 L 93.9 155.2 L 95.6 146.9 L 97.0 137.8 L 97.8 127.9 L 98.2 117.3 L 98.2 40.0 Z M 33.0 111.0 L 67.0 111.0 L 73.0 106.0 L 84.0 115.0 L 79.0 119.0 L 79.0 165.0 L 67.0 171.0 L 67.0 161.0 L 33.0 161.0 L 33.0 173.0 L 21.0 179.0 L 21.0 105.0 Z M 33.0 115.0 L 33.0 157.0 L 67.0 157.0 L 67.0 115.0 Z M 123.8 107.7 L 128.3 118.8 L 133.2 128.8 L 138.6 138.0 L 142.30365018844606 143.06165523529052 L 143.4 141.4 L 149.1 130.8 L 154.2 119.3 L 158.6 106.8 L 161.3791045188904 97.0 L 120.05500001907349 97.0 Z M 110.2 50.0 L 110.2 93.0 L 132.6 93.0 L 132.6 50.0 Z M 16.0 86.0 L 44.0 86.0 L 44.0 54.0 L 13.0 54.0 L 13.0 50.0 L 44.0 50.0 L 44.0 14.0 L 56.0 16.0 L 59.0 18.0 L 56.0 19.8 L 56.0 50.0 L 68.0 50.0 L 78.0 40.0 L 90.0 50.0 L 90.0 54.0 L 56.0 54.0 L 56.0 86.0 L 65.0 86.0 L 75.0 76.0 L 87.0 86.0 L 87.0 90.0 L 16.0 90.0 Z " />
</g>
</svg>
