<svg xmlns="http://www.w3.org/2000/svg" xmlns:xlink="http://www.w3.org/1999/xlink" version="1.1" baseProfile="full" viewBox="0 0 200 200" width="200" height="200">
<g fill="black">
<path d="M 113.6 134.2 L 161.9 134.2 L 167.9 129.2 L 178.9 138.2 L 173.9 142.2 L 173.9 180.5 L 161.9 186.5 L 161.9 178.5 L 113.6 178.5 L 113.6 181.5 L 101.6 187.5 L 101.6 128.2 Z M 14.3 169.9 L 21.5 169.0 L 28.7 168.2 L 35.9 167.3 L 43.2 166.5 L 43.9 166.42432432174684 L 43.9 142.0 L 18.8 142.0 L 18.8 138.0 L 43.9 138.0 L 43.9 114.0 L 17.0 114.0 L 17.0 110.0 L 64.4 110.0 L 74.4 100.0 L 86.4 110.0 L 86.4 114.0 L 55.9 114.0 L 55.9 138.0 L 61.7 138.0 L 71.7 128.0 L 83.7 138.0 L 83.7 142.0 L 55.9 142.0 L 55.9 165.19864864349364 L 65.4 164.3 L 72.9 163.7 L 80.4 163.3 L 88.0 163.1 L 88.3 164.8 L 81.0 167.0 L 73.7 169.0 L 66.4 170.8 L 59.2 172.5 L 51.9 174.1 L 44.7 175.7 L 37.6 177.2 L 30.4 178.7 L 23.3 180.2 L 20.295121955871583 180.84390239715577 L 18.7 184.3 L 16.3 181.7 L 12.3 170.2 Z M 113.6 157.7 L 113.6 174.5 L 161.9 174.5 L 161.9 157.7 Z M 113.6 138.2 L 113.6 153.7 L 161.9 153.7 L 161.9 138.2 Z M 88.1 115.0 L 131.5 115.0 L 131.5 99.0 L 96.4 99.0 L 96.4 95.0 L 131.5 95.0 L 131.5 77.0 L 101.8 77.0 L 101.8 73.0 L 131.5 73.0 L 131.5 56.0 L 86.3 56.0 L 86.3 52.0 L 131.5 52.0 L 131.5 35.0 L 101.8 35.0 L 101.8 31.0 L 131.5 31.0 L 131.5 13.0 L 143.5 15.0 L 146.5 17.0 L 143.5 18.8 L 143.5 31.0 L 162.4 31.0 L 168.4 26.0 L 179.4 35.0 L 174.4 39.0 L 174.4 52.0 L 178.1 52.0 L 182.6 46.0 L 188.6 52.0 L 188.6 56.0 L 174.4 56.0 L 174.4 79.0 L 162.4 85.0 L 162.4 77.0 L 143.5 77.0 L 143.5 95.0 L 160.3181818008423 95.0 L 168.5 86.0 L 178.5 95.0 L 178.5 99.0 L 143.5 99.0 L 143.5 115.0 L 168.61818180084228 115.0 L 176.8 106.0 L 186.8 115.0 L 186.8 119.0 L 88.1 119.0 Z M 56.5 18.6 L 58.6 21.5 L 53.59891004562378 22.465122604370116 L 53.5 22.6 L 52.3 24.3 L 51.0 26.3 L 49.5 28.4 L 47.9 30.7 L 46.2 33.2 L 44.2 35.9 L 43.78709678649902 36.7 L 70.2 36.7 L 76.2 31.7 L 87.2 40.7 L 82.2 44.7 L 82.2 93.1 L 70.2 99.1 L 70.2 89.1 L 31.4 89.1 L 31.4 96.1 L 19.4 102.1 L 19.4 30.7 L 31.4 36.7 L 41.53333330154419 36.7 L 42.1 35.0 L 42.6 31.7 L 43.2 28.7 L 43.7 26.0 L 44.2 23.5 L 44.6 21.2 L 44.9 19.1 L 45.1 17.3 L 45.3 15.7 L 45.3 15.38608694076538 L 45.0 15.3 L 45.3 14.4375 L 45.3 14.4 L 45.311538505554196 14.404326915740967 L 45.8 13.0 Z M 31.4 64.9 L 31.4 85.1 L 70.2 85.1 L 70.2 64.9 Z M 143.5 56.0 L 143.5 73.0 L 162.4 73.0 L 162.4 56.0 Z M 31.4 40.7 L 31.4 60.9 L 70.2 60.9 L 70.2 40.7 Z M 143.5 35.0 L 143.5 52.0 L 162.4 52.0 L 162.4 35.0 Z " />
</g>
</svg>
