<svg xmlns="http://www.w3.org/2000/svg" xmlns:xlink="http://www.w3.org/1999/xlink" version="1.1" baseProfile="full" viewBox="0 0 200 200" width="200" height="200">
<g fill="black">
<path d="M 86.5 140.9 L 94.4 138.7 L 102.3 136.4 L 103.3 136.10512819290162 L 103.3 43.0 L 115.3 45.0 L 118.3 47.0 L 115.3 48.8 L 115.3 132.52025318145752 L 118.0 131.7 L 125.9 129.4 L 133.9 127.0 L 141.8 124.7 L 149.8 122.3 L 157.8 120.2 L 159.4 119.79024391174316 L 159.4 13.0 L 171.4 15.0 L 174.4 17.0 L 171.4 18.8 L 171.4 183.0 L 159.4 189.0 L 159.4 123.5945945739746 L 159.2 123.7 L 151.7 127.4 L 144.1 130.8 L 136.4 134.1 L 128.8 137.4 L 113.4 143.6 L 105.7 146.6 L 98.0 149.5 L 94.09927949905395 150.918443775177 L 93.1 154.6 L 90.3 152.3 L 84.6 141.6 Z M 30.9 33.4 L 61.0 33.4 L 67.0 28.4 L 78.0 37.4 L 73.0 41.4 L 73.0 155.9 L 61.0 161.9 L 61.0 149.9 L 30.9 149.9 L 30.9 161.9 L 18.9 167.9 L 18.9 27.4 Z M 30.9 110.8 L 30.9 145.9 L 61.0 145.9 L 61.0 110.8 Z M 30.9 74.1 L 30.9 106.8 L 61.0 106.8 L 61.0 74.1 Z M 30.9 37.4 L 30.9 70.1 L 61.0 70.1 L 61.0 37.4 Z " />
</g>
</svg>
