<svg xmlns="http://www.w3.org/2000/svg" xmlns:xlink="http://www.w3.org/1999/xlink" version="1.1" baseProfile="full" viewBox="0 0 200 200" width="200" height="200">
<g fill="black">
<path d="M 87.7 105.9 L 87.8 109.5 L 83.5765625 107.6671875 L 83.5 107.7 L 81.2 108.6 L 76.6 110.2 L 74.1 110.9 L 71.87142858505248 111.5 L 148.0 111.5 L 154.0 106.5 L 165.0 115.5 L 160.0 119.5 L 160.0 148.5 L 148.0 154.5 L 148.0 146.5 L 103.5 146.5 L 100.2 150.3 L 96.2 153.6 L 91.4 156.4 L 85.9 158.9 L 79.7 161.0 L 72.6 162.9 L 69.25714282989502 163.5 L 115.0 163.5 L 115.0 147.0 L 127.0 149.0 L 130.0 151.0 L 127.0 152.8 L 127.0 163.5 L 162.0 163.5 L 172.0 153.5 L 184.0 163.5 L 184.0 167.5 L 127.0 167.5 L 127.0 182.5 L 115.0 188.5 L 115.0 167.5 L 18.0 167.5 L 18.0 163.5 L 56.06666669845581 163.5 L 63.8 160.6 L 71.0 157.8 L 77.3 154.9 L 82.6 152.1 L 87.0 149.2 L 90.2785714149475 146.5 L 54.0 146.5 L 54.0 149.5 L 42.0 155.5 L 42.0 105.5 L 54.0 111.5 L 63.62857141494751 111.5 L 65.0 110.7 L 67.1 108.8 L 71.1 105.4 L 74.7 102.2 L 76.3 100.6 L 77.9 99.1 L 79.3 97.6 L 80.6 96.2 Z M 54.0 131.5 L 54.0 142.5 L 93.36000003814698 142.5 L 94.2 141.1 L 94.9 138.8 L 95.0 136.6 L 95.00387048721313 136.60022764205934 L 95.20172414779663 131.5 Z M 107.16455698013306 131.5 L 106.9 137.2 L 100.95 136.95 L 106.9 137.3 L 105.8 142.1 L 105.59090909957885 142.5 L 148.0 142.5 L 148.0 131.5 Z M 54.0 115.5 L 54.0 127.5 L 95.35689659118653 127.5 L 95.82241382598878 115.5 Z M 107.90717296600342 115.5 L 107.35021095275879 127.5 L 148.0 127.5 L 148.0 115.5 Z M 15.1 92.0 L 22.8 91.3 L 30.4 90.5 L 38.0 89.8 L 42.37027025222778 89.4027027130127 L 39.3 87.1 L 39.1 86.0 L 38.8 84.7 L 38.4 83.5 L 37.8 82.1 L 37.1 80.7 L 36.3 79.2 L 35.3 77.7 L 34.2 76.0 L 33.0 74.3 L 31.3 73.1 L 32.3 71.6 L 34.1 72.6 L 36.3 73.2 L 38.3 73.9 L 40.1 74.6 L 43.7 76.4 L 45.3 77.5 L 46.8 78.6 L 48.3 79.8 L 49.7 81.1 L 50.2 85.7 L 47.69874019622803 88.91590547561646 L 53.3 88.4 L 60.33421049118042 87.76052627563476 L 61.6 86.3 L 62.4 84.4 L 63.3 82.5 L 64.3 80.7 L 65.2 79.0 L 66.1 77.2 L 67.0 75.5 L 68.0 73.7 L 69.29847631454467 71.24732255935669 L 69.1 71.1 L 69.75443038940429 70.38607597351074 L 69.8 70.3 L 69.81836738586426 70.31632652282715 L 70.10833330154419 70.0 L 33.7 70.0 L 21.7 76.0 L 21.7 44.9 L 33.7 50.9 L 76.2 50.9 L 82.2 45.9 L 93.2 54.9 L 88.2 58.9 L 88.2 70.0 L 76.36220474243164 75.91889762878418 L 78.8 78.3 L 79.7 81.8 L 75.03636360168457 80.9 L 70.4 83.9 L 68.6 84.9 L 66.9 85.9 L 65.0 86.9 L 63.86000003814697 87.43999996185303 L 68.7 87.0 L 76.3 86.5 L 84.1 86.0 L 91.8 85.8 L 92.1 87.6 L 84.6 89.8 L 77.2 91.8 L 69.6 93.5 L 62.1 95.2 L 54.6 96.8 L 47.0 98.3 L 39.5 99.8 L 31.9 101.2 L 24.3 102.5 L 20.801157569885255 103.14452362060547 L 19.1 106.6 L 16.7 103.9 L 13.2 92.3 Z M 159.1 96.8 L 151.5 93.1 L 144.5 89.0 L 138.4908408164978 84.54159154891968 L 135.9 85.8 L 128.5 88.6 L 120.7 90.7 L 112.6 92.2 L 104.1 92.8 L 103.8 91.1 L 111.7 88.5 L 119.1 85.6 L 126.0 82.5 L 132.5 79.0 L 132.52831296920778 78.98206844329835 L 128.1 73.8 L 124.3 67.8 L 121.3 61.5 L 119.71176471710206 55.5 L 112.96538457870483 55.5 L 112.4 60.4 L 111.5 65.4 L 110.1 70.2 L 108.3 74.6 L 106.1 78.8 L 103.6 82.7 L 100.6 86.2 L 97.2 89.3 L 93.5 92.0 L 89.5 94.4 L 88.4 93.0 L 91.2 89.6 L 93.6 86.1 L 95.7 82.5 L 97.4 79.0 L 98.8 75.4 L 99.8 71.6 L 100.6 67.8 L 101.0 63.7 L 101.1 59.6 L 101.0 55.2 L 101.0 21.8 L 113.0 27.8 L 133.0 27.8 L 133.0 11.3 L 145.0 13.3 L 148.0 15.3 L 145.0 17.1 L 145.0 27.8 L 170.0 27.8 L 170.92307691574098 27.030769252777098 L 171.2 26.2 L 171.57458925247192 26.487842273712157 L 176.0 22.8 L 187.0 31.8 L 182.0 34.8 L 172.85405406951904 38.61081085205078 L 172.7 38.7 L 170.8 39.9 L 168.6 41.1 L 166.3 42.4 L 163.8 43.7 L 161.5 45.4 L 160.4 44.0 L 162.3 42.0 L 163.8 39.7 L 165.2 37.5 L 166.5 35.5 L 167.7 33.6 L 168.7 31.8 L 145.0 31.8 L 145.0 51.5 L 161.0 51.5 L 161.16603775024413 51.36163520812988 L 162.0 50.1 L 162.37525081634521 50.353957653045654 L 167.0 46.5 L 178.0 55.5 L 173.0 58.5 L 169.35671339035034 60.01803607940674 L 167.0 63.0 L 161.6 68.8 L 155.8 73.9 L 149.5 78.5 L 148.14224424362183 79.30231027603149 L 149.7 80.2 L 156.2 83.2 L 163.3 85.8 L 171.1 88.0 L 179.4 89.9 L 188.2 91.9 L 176.5 102.8 L 167.5 100.0 Z M 70.30238094329835 70.0 L 76.2 75.76046514511108 L 76.2 70.0 Z M 125.0 59.5 L 129.1 64.4 L 133.5 69.0 L 138.4 73.1 L 139.90216131210326 74.12925863265991 L 144.0 71.0 L 149.1 66.4 L 153.8 61.4 L 158.1 56.0 L 158.430508518219 55.5 L 122.23636360168457 55.5 Z M 33.7 54.9 L 33.7 66.0 L 76.2 66.0 L 76.2 54.9 Z M 113.0 31.8 L 113.0 51.5 L 133.0 51.5 L 133.0 31.8 Z M 20.0 38.3 L 49.0 38.3 L 49.0 28.3 L 13.0 28.3 L 13.0 24.3 L 49.0 24.3 L 49.0 12.2 L 61.0 14.2 L 64.0 16.2 L 61.0 18.0 L 61.0 24.3 L 80.81818180084228 24.3 L 89.0 15.3 L 99.0 24.3 L 99.0 28.3 L 61.0 28.3 L 61.0 38.3 L 78.77777776718139 38.3 L 85.0 31.3 L 93.0 38.3 L 93.0 42.3 L 20.0 42.3 Z " />
</g>
</svg>
