<svg xmlns="http://www.w3.org/2000/svg" xmlns:xlink="http://www.w3.org/1999/xlink" version="1.1" baseProfile="full" viewBox="0 0 200 200" width="200" height="200">
<g fill="black">
<path d="M 102.0 25.0 L 140.0 25.0 L 146.0 20.0 L 157.0 29.0 L 152.0 33.0 L 152.0 166.2 L 152.2 167.1 L 152.5 168.0 L 152.9 168.4 L 153.8 168.7 L 154.7 168.9 L 156.0 169.0 L 174.0 169.0 L 180.0 144.0 L 182.0 144.0 L 180.0 169.0 L 183.6 171.4 L 186.0 175.0 L 183.6 178.6 L 180.0 181.0 L 156.0 181.0 L 153.4 180.8 L 150.9 180.4 L 148.5 179.6 L 146.2 178.3 L 144.2 176.7 L 142.6 174.7 L 141.3 172.4 L 140.5 170.0 L 140.1 167.5 L 140.0 165.0 L 140.0 29.0 L 102.0 29.0 L 102.0 103.0 L 101.3 115.5 L 99.9 127.1 L 97.7 137.9 L 94.8 147.8 L 91.1 156.8 L 86.7 164.9 L 81.4 172.0 L 75.5 178.1 L 68.8 183.0 L 61.4 186.7 L 60.5 185.2 L 66.4 180.0 L 71.6 174.4 L 76.2 168.1 L 80.0 161.2 L 83.3 153.6 L 85.9 145.1 L 87.9 135.9 L 89.2 125.7 L 89.9 114.8 L 90.0 103.0 L 90.0 19.0 Z M 28.8 33.4 L 55.3 33.4 L 61.3 28.4 L 72.3 37.4 L 67.3 41.4 L 67.3 155.9 L 55.3 161.9 L 55.3 149.9 L 28.8 149.9 L 28.8 161.9 L 16.8 167.9 L 16.8 27.4 Z M 28.8 110.8 L 28.8 145.9 L 55.3 145.9 L 55.3 110.8 Z M 28.8 74.1 L 28.8 106.8 L 55.3 106.8 L 55.3 74.1 Z M 120.2 93.9 L 119.4 90.2 L 117.2 83.2 L 114.4 76.4 L 111.0 69.6 L 109.0 66.3 L 110.3 65.1 L 113.4 67.6 L 116.5 70.2 L 119.3 73.1 L 121.9 76.3 L 124.3 79.6 L 126.4 83.1 L 128.4 86.8 L 130.2 90.6 L 131.8 94.6 L 133.2 98.7 L 132.3 103.2 L 128.6 105.9 L 124.1 105.0 L 121.4 101.3 L 120.9 97.5 Z M 28.8 37.4 L 28.8 70.1 L 55.3 70.1 L 55.3 37.4 Z " />
</g>
</svg>
