<svg xmlns="http://www.w3.org/2000/svg" xmlns:xlink="http://www.w3.org/1999/xlink" version="1.1" baseProfile="full" viewBox="0 0 200 200" width="200" height="200">
<g fill="black">
<path d="M 14.0 177.2 L 40.0 177.2 L 40.0 139.7 L 52.0 145.7 L 148.0 145.7 L 154.0 140.7 L 165.0 149.7 L 160.0 153.7 L 160.0 177.2 L 164.0 177.2 L 174.0 167.2 L 186.0 177.2 L 186.0 181.2 L 14.0 181.2 Z M 52.0 149.7 L 52.0 177.2 L 76.0 177.2 L 76.0 149.7 Z M 88.0 149.7 L 88.0 177.2 L 112.0 177.2 L 112.0 149.7 Z M 124.0 149.7 L 124.0 177.2 L 148.0 177.2 L 148.0 149.7 Z M 146.0 113.9 L 148.0 113.9 L 146.0 126.9 L 148.7 128.7 L 150.5 131.4 L 148.7 134.1 L 146.0 135.9 L 74.5 135.9 L 72.2 135.7 L 69.9 135.1 L 67.7 134.1 L 65.7 132.6 L 64.1 130.8 L 63.325708866119385 129.63856334686278 L 50.0 132.1 L 33.4 134.3 L 16.1 136.0 L 15.8 134.2 L 32.8 130.6 L 48.9 126.8 L 61.167063522338864 123.57182540893555 L 61.0 121.4 L 61.0 93.5 L 73.0 95.5 L 76.0 97.5 L 73.0 99.3 L 73.0 120.20416669845581 L 78.5 118.6 L 91.9 114.0 L 104.5 109.1 L 116.1 103.9 L 126.9 98.4 L 136.7 92.6 L 144.92239227294922 87.02704524993896 L 144.9 87.0 L 144.9232593536377 87.02645750045777 L 145.7 86.5 L 150.68603458404542 93.58161430358886 L 152.9 96.1 L 153.0 99.6 L 149.5789059638977 98.14286737442016 L 142.6 102.4 L 131.8 108.0 L 120.2 113.1 L 107.8 117.8 L 94.6 122.1 L 80.5 125.9 L 76.39973611831665 126.81424798965455 L 77.0 126.9 L 141.5 126.9 Z M 170.2 119.6 L 169.1 117.8 L 167.8 115.9 L 166.1 113.9 L 164.0 111.8 L 161.7 109.7 L 159.0 107.5 L 156.0 105.1 L 152.5 103.1 L 153.2 101.5 L 157.1 102.8 L 160.9 103.8 L 164.4 105.0 L 167.6 106.4 L 170.6 107.8 L 173.4 109.4 L 175.9 111.2 L 178.2 113.1 L 180.3 115.2 L 182.0 117.5 L 182.3 122.0 L 179.3 125.5 L 174.7 125.7 L 171.2 122.7 L 170.9 121.2 Z M 19.2 122.9 L 19.1 118.3 L 22.1 114.9 L 24.9 113.9 L 27.6 112.7 L 30.1 111.5 L 32.5 110.2 L 34.8 108.7 L 37.0 107.0 L 39.1 105.3 L 41.2 103.3 L 43.2 101.3 L 44.7 98.8 L 46.4 99.5 L 45.5 102.4 L 44.7 105.5 L 43.5 108.4 L 42.0 111.3 L 40.2 114.0 L 38.1 116.6 L 35.8 119.1 L 33.2 121.4 L 30.3 123.6 L 27.2 125.7 L 22.7 125.9 Z M 98.6 100.1 L 96.8 98.4 L 94.7 96.7 L 92.5 95.1 L 90.1 93.4 L 87.5 91.8 L 84.8 90.1 L 81.9 88.4 L 78.7 87.0 L 79.2 85.3 L 82.6 85.9 L 86.1 86.2 L 89.4 86.7 L 92.6 87.4 L 95.7 88.2 L 98.7 89.2 L 101.6 90.2 L 104.3 91.4 L 106.9 92.7 L 109.4 94.1 L 111.5 98.2 L 110.3 102.6 L 106.2 104.7 L 101.8 103.4 L 100.3 101.7 Z M 33.0 91.4 L 21.0 97.4 L 21.0 14.7 L 33.0 20.7 L 74.1 20.7 L 84.1 10.7 L 96.1 20.7 L 96.1 24.7 L 64.5 24.7 L 64.5 37.6 L 79.3 37.6 L 85.3 32.6 L 96.3 41.6 L 91.3 45.6 L 91.3 60.9 L 79.3 66.9 L 79.3 60.9 L 64.5 60.9 L 64.5 75.4 L 76.4 75.4 L 86.4 65.4 L 98.4 75.4 L 98.4 79.4 L 33.0 79.4 Z M 185.5 75.7 L 185.5 79.7 L 106.4 79.7 L 106.4 75.7 L 163.5 75.7 L 173.5 65.7 Z M 33.0 60.9 L 33.0 75.4 L 52.5 75.4 L 52.5 60.9 Z M 177.2 53.3 L 177.2 57.3 L 114.7 57.3 L 114.7 53.3 L 159.01818180084229 53.3 L 167.2 44.3 Z M 33.0 56.9 L 79.3 56.9 L 79.3 41.6 L 33.0 41.6 Z M 129.9 19.2 L 131.9 22.2 L 128.1062066078186 22.86557779312134 L 127.6 23.9 L 125.2 28.4 L 122.81904764175415 32.4 L 162.8 32.4 L 172.8 22.4 L 184.8 32.4 L 184.8 36.4 L 120.1975609779358 36.4 L 120.0 36.7 L 117.2 40.5 L 114.3 44.2 L 111.2 47.5 L 107.9 50.7 L 104.4 53.5 L 100.8 56.0 L 99.5 54.7 L 101.8 51.1 L 104.0 47.4 L 106.2 43.8 L 108.2 40.0 L 110.2 36.1 L 112.1 32.2 L 113.9 28.1 L 115.6 23.8 L 117.2 19.4 L 118.39109945297241 15.826701545715332 L 118.3 15.8 L 119.2 13.5 Z M 33.0 24.7 L 33.0 37.6 L 52.5 37.6 L 52.5 24.7 Z " />
</g>
</svg>
