<svg xmlns="http://www.w3.org/2000/svg" xmlns:xlink="http://www.w3.org/1999/xlink" version="1.1" baseProfile="full" viewBox="0 0 200 200" width="200" height="200">
<g fill="black">
<path d="M 122.9 43.0 L 138.0 43.0 L 138.0 14.1 L 150.0 16.1 L 153.0 18.1 L 150.0 19.9 L 150.0 43.0 L 169.5 43.0 L 175.5 38.0 L 186.5 47.0 L 181.5 50.0 L 178.30677967071534 51.33050851821899 L 176.9 53.3 L 175.3 55.5 L 173.6 57.8 L 171.8 60.3 L 169.7 62.8 L 167.6 65.4 L 165.2 68.1 L 163.0 71.1 L 161.5 70.2 L 162.9 66.8 L 164.0 63.4 L 165.0 60.2 L 166.0 57.2 L 166.9 54.4 L 167.7 51.7 L 168.4 49.2 L 168.97391300201417 47.0 L 150.0 47.0 L 150.0 83.2 L 161.3 83.2 L 167.3 78.2 L 178.3 87.2 L 173.3 90.2 L 171.79689245224 90.82629480361939 L 169.4 98.6 L 165.1 109.7 L 160.3 120.0 L 154.8 129.4 L 152.6762375831604 132.4086633682251 L 154.8 134.9 L 160.3 140.2 L 166.3 144.8 L 172.6 148.7 L 179.4 151.8 L 181.82599277496337 152.8916967391968 L 183.0 148.0 L 185.0 148.0 L 184.51196908950806 154.1003861427307 L 185.4 154.5 L 184.41502628326415 155.31217126846315 L 183.0 173.0 L 186.6 175.4 L 189.0 179.0 L 186.6 182.6 L 183.0 185.0 L 56.0 185.0 L 53.4 184.7 L 51.0 184.1 L 48.7 183.2 L 46.6 181.8 L 44.7 180.2 L 43.3 178.2 L 42.3 176.0 L 41.7 173.7 L 41.4 171.4 L 41.5 169.0 L 41.5 142.0 L 25.0 142.0 L 25.0 154.0 L 13.0 160.0 L 13.0 79.0 L 25.0 85.0 L 41.5 85.0 L 41.5 60.0 L 28.5 60.0 L 28.5 67.0 L 17.5 72.5 L 17.5 17.5 L 28.5 23.0 L 82.0 23.0 L 88.0 18.0 L 99.0 27.0 L 94.0 31.0 L 94.0 64.0 L 82.0 70.0 L 82.0 60.0 L 68.0 60.0 L 68.0 85.0 L 86.0 85.0 L 92.0 80.0 L 103.0 89.0 L 98.0 93.0 L 98.0 144.0 L 86.0 150.0 L 86.0 142.0 L 68.0 142.0 L 68.0 162.5 L 58.0 167.5 L 58.0 27.0 L 50.5 27.0 L 50.5 169.0 L 50.7 170.3 L 51.0 171.4 L 51.4 172.1 L 51.8 172.5 L 52.2 172.7 L 52.5 172.9 L 53.0 172.9 L 53.7 173.0 L 177.0 173.0 L 180.46299209594727 158.57086610794067 L 174.0 163.9 L 166.2 159.4 L 159.1 154.2 L 152.7 148.2 L 146.9 141.5 L 146.35344829559327 140.6801724433899 L 142.2 145.4 L 135.1 152.1 L 127.3 157.6 L 119.1 162.1 L 110.3 165.5 L 109.6 163.9 L 117.2 158.9 L 124.1 153.3 L 130.6 147.2 L 136.5 140.4 L 141.56180124282838 133.36972045898438 L 137.5 125.8 L 133.8 117.0 L 130.9 107.4 L 128.8 97.2 L 127.60733947753906 87.2 L 122.9 87.2 L 122.9 94.6 L 122.4 104.7 L 121.4 114.3 L 120.1 123.1 L 118.3 131.4 L 116.1 138.9 L 113.4 145.8 L 110.3 151.9 L 106.7 157.3 L 102.5 161.8 L 98.0 165.3 L 96.7 164.0 L 99.6 159.4 L 102.1 154.5 L 104.3 149.1 L 106.3 143.1 L 107.9 136.6 L 109.2 129.5 L 110.1 121.7 L 110.7 113.3 L 111.0 104.3 L 110.9 94.6 L 110.9 37.0 Z M 68.0 114.0 L 68.0 138.0 L 86.0 138.0 L 86.0 114.0 Z M 25.0 114.0 L 25.0 138.0 L 41.5 138.0 L 41.5 114.0 Z M 132.8 96.2 L 136.5 105.5 L 140.5 114.1 L 144.9 121.8 L 146.81973628997804 124.65918169021606 L 151.2 115.6 L 155.1 105.8 L 158.5 95.2 L 160.5173913002014 87.2 L 129.71176471710206 87.2 Z M 68.0 89.0 L 68.0 110.0 L 86.0 110.0 L 86.0 89.0 Z M 25.0 89.0 L 25.0 110.0 L 41.5 110.0 L 41.5 89.0 Z M 122.9 47.0 L 122.9 83.2 L 138.0 83.2 L 138.0 47.0 Z M 68.0 27.0 L 68.0 56.0 L 82.0 56.0 L 82.0 27.0 Z M 28.5 27.0 L 28.5 56.0 L 41.5 56.0 L 41.5 27.0 Z " />
</g>
</svg>
