<svg xmlns="http://www.w3.org/2000/svg" xmlns:xlink="http://www.w3.org/1999/xlink" version="1.1" baseProfile="full" viewBox="0 0 200 200" width="200" height="200">
<g fill="black">
<path d="M 14.0 174.5 L 40.0 174.5 L 40.0 122.3 L 52.0 128.3 L 148.0 128.3 L 154.0 123.3 L 165.0 132.3 L 160.0 136.3 L 160.0 174.5 L 164.0 174.5 L 174.0 164.5 L 186.0 174.5 L 186.0 178.5 L 14.0 178.5 Z M 52.0 132.3 L 52.0 174.5 L 76.0 174.5 L 76.0 132.3 Z M 88.0 132.3 L 88.0 174.5 L 112.0 174.5 L 112.0 132.3 Z M 124.0 132.3 L 124.0 174.5 L 148.0 174.5 L 148.0 132.3 Z M 127.0 14.1 L 130.0 16.1 L 127.0 17.9 L 127.0 37.1 L 158.9 37.1 L 164.9 32.1 L 175.9 41.1 L 170.9 45.1 L 170.9 82.3 L 158.9 88.3 L 158.9 76.3 L 127.0 76.3 L 127.0 113.8 L 115.0 119.8 L 115.0 76.3 L 81.39647054672241 76.3 L 80.7 80.0 L 77.9 87.8 L 74.1 94.9 L 69.2 101.2 L 63.4 106.6 L 56.7 111.2 L 49.0 114.9 L 40.5 117.7 L 31.2 119.5 L 30.7 117.8 L 39.2 114.1 L 46.6 110.1 L 53.0 105.7 L 58.3 101.0 L 62.7 95.8 L 66.1 90.2 L 68.6 84.2 L 70.2 77.6 L 70.34444446563721 76.3 L 41.0 76.3 L 41.0 88.3 L 29.0 94.3 L 29.0 31.1 L 41.0 37.1 L 71.0 37.1 L 71.0 12.1 L 83.0 14.1 L 86.0 16.1 L 83.0 17.9 L 83.0 37.1 L 115.0 37.1 L 115.0 12.1 Z M 41.0 41.1 L 41.0 72.3 L 70.78888893127441 72.3 L 71.0 70.4 L 71.0 62.6 L 71.06592798233032 62.59889192581177 L 71.0 62.5 L 71.0 41.1 Z M 82.3 71.5 L 82.14941177368163 72.3 L 115.0 72.3 L 115.0 41.1 L 83.0 41.1 L 83.0 62.5 L 82.88170728683471 62.677439022064206 Z M 127.0 41.1 L 127.0 72.3 L 158.9 72.3 L 158.9 41.1 Z " />
</g>
</svg>
