<svg xmlns="http://www.w3.org/2000/svg" xmlns:xlink="http://www.w3.org/1999/xlink" version="1.1" baseProfile="full" viewBox="0 0 200 200" width="200" height="200">
<g fill="black">
<path d="M 14.0 176.2 L 40.0 176.2 L 40.0 130.3 L 52.0 136.3 L 148.0 136.3 L 154.0 131.3 L 165.0 140.3 L 160.0 144.3 L 160.0 176.2 L 164.0 176.2 L 174.0 166.2 L 186.0 176.2 L 186.0 180.2 L 14.0 180.2 Z M 52.0 140.3 L 52.0 176.2 L 76.0 176.2 L 76.0 140.3 Z M 88.0 140.3 L 88.0 176.2 L 112.0 176.2 L 112.0 140.3 Z M 124.0 140.3 L 124.0 176.2 L 148.0 176.2 L 148.0 140.3 Z M 38.5 124.8 L 34.6 122.5 L 33.3 118.1 L 33.9 114.3 L 34.0 110.8 L 33.7 107.7 L 32.9 104.9 L 31.7 102.1 L 29.8 99.5 L 27.4 97.0 L 24.2 94.6 L 20.3 92.3 L 15.6 90.5 L 16.0 88.7 L 21.2 89.5 L 26.0 90.5 L 30.4 92.1 L 32.53618154525757 93.27489986419678 L 32.8 92.9 L 35.3 89.6 L 38.3 85.5 L 42.0 80.8 L 46.2 75.4 L 51.1 69.3 L 56.7 62.5 L 63.0 55.0 L 70.0 47.0 L 71.5 48.0 L 66.1 57.2 L 61.1 65.6 L 56.5 73.1 L 52.5 79.7 L 49.0 85.6 L 46.1 90.7 L 43.8 94.9 L 42.0 98.4 L 40.9 101.0 L 40.89066667556763 101.04666662216187 L 42.9 104.7 L 44.4 109.3 L 45.1 114.2 L 45.2 119.5 L 42.9 123.5 Z M 152.9 115.3 L 152.9 119.3 L 63.9 119.3 L 63.9 115.3 L 130.9 115.3 L 140.9 105.3 Z M 158.3 111.8 L 150.0 105.9 L 142.9 98.6 L 137.0 89.8 L 132.2 79.7 L 128.5 68.4 L 127.65354328155517 64.1 L 92.9 64.1 L 92.9 94.7 L 99.4 94.0 L 106.1 93.2 L 113.0 92.4 L 120.2 91.7 L 127.7 91.1 L 128.1 92.8 L 121.0 95.4 L 114.1 97.7 L 107.4 99.7 L 100.8 101.4 L 94.4 103.1 L 88.3 104.6 L 82.3 105.9 L 76.5 107.1 L 71.0 108.2 L 69.75749216079711 108.43009405136108 L 68.0 112.0 L 65.6 109.2 L 62.2 97.5 L 64.2 97.3 L 69.5 97.0 L 75.0 96.5 L 80.7 96.0 L 80.9 95.98000001907349 L 80.9 23.6 L 92.77666664123535 29.538333320617674 L 95.5 29.0 L 104.0 27.5 L 112.2 26.0 L 120.4 24.4 L 128.3 22.9 L 136.1 21.3 L 143.7 19.6 L 151.2 17.8 L 158.5 15.9 L 164.62068967819215 14.262068939208984 L 164.6 14.2 L 164.66132650375366 14.251194286346436 L 165.6 14.0 L 165.91280508041382 15.295906829833985 L 176.1 23.8 L 176.4 26.8 L 172.09188909530639 24.73696098327637 L 168.4 25.6 L 160.9 27.0 L 153.3 28.3 L 145.5 29.4 L 137.6 30.4 L 136.041504573822 30.57533073425293 L 136.4 40.9 L 137.8 53.9 L 139.1052631378174 60.1 L 164.9 60.1 L 174.9 50.1 L 186.9 60.1 L 186.9 64.1 L 139.94736843109132 64.1 L 140.2 65.3 L 143.4 75.4 L 147.4 83.9 L 152.2 91.0 L 157.9 96.8 L 164.3 101.4 L 171.6 104.8 L 173.50051813125611 105.29775476455688 L 178.9 81.9 L 180.9 81.9 L 178.98958711624147 106.73536806106567 L 180.0 107.0 L 183.8 109.5 L 184.8 114.0 L 182.3 117.8 L 177.9 118.8 L 167.6 116.1 Z M 34.1 59.6 L 32.9 58.2 L 31.2 56.8 L 29.2 55.4 L 26.9 53.9 L 24.1 52.4 L 21.1 50.8 L 17.8 49.2 L 14.0 47.9 L 14.4 46.2 L 18.4 46.7 L 22.2 46.9 L 25.7 47.3 L 29.1 47.8 L 32.1 48.4 L 35.0 49.2 L 37.7 50.1 L 40.1 51.2 L 42.4 52.5 L 44.5 54.0 L 46.0 58.3 L 44.0 62.5 L 39.6 63.9 L 35.5 61.9 L 35.0 60.8 Z M 121.4 32.0 L 113.0 32.5 L 104.5 32.8 L 95.8 32.8 L 92.9 32.70113639831543 L 92.9 60.1 L 126.86614170074463 60.1 L 126.0 55.7 L 124.4 41.8 L 124.07228364944459 31.771878242492676 Z M 47.9 30.4 L 46.5 29.1 L 44.9 27.6 L 42.9 26.1 L 40.7 24.7 L 38.1 23.1 L 35.3 21.6 L 32.2 19.9 L 28.8 18.8 L 29.2 17.0 L 32.9 17.5 L 36.5 17.7 L 39.8 18.1 L 43.0 18.7 L 45.9 19.3 L 48.7 20.1 L 51.4 21.0 L 53.8 22.0 L 56.1 23.2 L 58.2 24.7 L 59.8 28.9 L 58.1 33.1 L 53.8 34.8 L 49.6 33.0 L 48.9 31.8 Z " />
</g>
</svg>
