<svg xmlns="http://www.w3.org/2000/svg" xmlns:xlink="http://www.w3.org/1999/xlink" version="1.1" baseProfile="full" viewBox="0 0 200 200" width="200" height="200">
<g fill="black">
<path d="M 152.9 163.3 L 144.9 150.5 L 138.1 136.5 L 132.4 121.3 L 127.8 104.8 L 124.4 87.2 L 124.25 86.01875 L 123.6912281036377 86.92675437927247 L 123.6 87.4 L 119.6 102.9 L 114.8 117.5 L 109.2 131.0 L 102.8 143.4 L 95.6 154.8 L 87.7 165.1 L 78.9 174.2 L 69.3 182.1 L 59.0 188.7 L 58.0 187.2 L 66.9 179.2 L 75.0 170.5 L 82.5 161.0 L 89.3 150.7 L 95.3 139.5 L 100.7 127.3 L 105.3 114.2 L 109.2 100.2 L 112.5 85.1 L 115.0 69.1 L 115.4161590576172 69.15995512008666 L 116.0 64.1 L 116.5 58.6 L 117.0 52.9 L 117.4 46.8 L 117.8 40.5 L 118.3 33.9 L 118.81304349899293 28.0 L 78.9 28.0 L 78.9 24.0 L 117.18000001907349 24.0 L 122.1 19.9 L 133.1 28.9 L 128.1 31.9 L 123.7158013343811 34.092099285125734 L 125.1 48.0 L 127.9 67.6 L 131.5 85.8 L 135.9 102.7 L 141.2 118.1 L 147.4 132.2 L 154.5 144.9 L 162.4 156.2 L 171.2 166.2 L 180.8 174.9 L 183.1 176.9 L 172.3 185.0 L 162.0 174.8 Z M 31.5 33.4 L 62.7 33.4 L 68.7 28.4 L 79.7 37.4 L 74.7 41.4 L 74.7 153.9 L 62.7 159.9 L 62.7 149.9 L 31.5 149.9 L 31.5 161.9 L 19.5 167.9 L 19.5 27.4 Z M 31.5 110.8 L 31.5 145.9 L 62.7 145.9 L 62.7 110.8 Z M 31.5 74.1 L 31.5 106.8 L 62.7 106.8 L 62.7 74.1 Z M 31.5 37.4 L 31.5 70.1 L 62.7 70.1 L 62.7 37.4 Z M 120.9264705657959 28.0 L 121.16916770935059 29.178814601898193 L 121.18584909439087 28.0 Z M 122.0 26.955555534362794 L 122.1 26.95 L 122.1 26.9 L 122.0 26.86666669845581 Z " />
</g>
</svg>
