<svg xmlns="http://www.w3.org/2000/svg" xmlns:xlink="http://www.w3.org/1999/xlink" version="1.1" baseProfile="full" viewBox="0 0 200 200" width="200" height="200">
<g fill="black">
<path d="M 188.5 87.0 L 188.5 91.0 L 123.05853662490844 91.0 L 120.3 98.8 L 117.0 106.7 L 113.2 114.5 L 109.56735754013062 121.2336787223816 L 113.1 123.0 L 165.3 123.0 L 171.3 118.0 L 182.3 127.0 L 177.3 131.0 L 177.3 178.0 L 165.3 184.0 L 165.3 174.0 L 113.1 174.0 L 113.1 181.0 L 101.1 187.0 L 101.1 134.63999996185302 L 99.6 136.8 L 94.3 143.9 L 88.5 150.8 L 82.1 157.3 L 75.3 163.6 L 74.0 162.3 L 79.2 154.9 L 84.2 147.5 L 88.9 140.1 L 93.2 132.7 L 97.2 125.3 L 100.9 117.9 L 101.1 117.425 L 101.1 117.0 L 101.24782609939575 117.07391300201417 L 104.1 110.3 L 107.0 102.7 L 109.5 95.0 L 110.63333330154418 91.0 L 74.7 91.0 L 74.7 87.0 L 166.5 87.0 L 176.5 77.0 Z M 113.1 127.0 L 113.1 170.0 L 165.3 170.0 L 165.3 127.0 Z M 31.9 27.8 L 60.3 27.8 L 66.3 22.8 L 77.3 31.8 L 72.3 35.8 L 72.3 148.8 L 60.3 154.8 L 60.3 148.8 L 31.9 148.8 L 31.9 160.8 L 19.9 166.8 L 19.9 21.8 Z M 31.9 108.1 L 31.9 144.8 L 60.3 144.8 L 60.3 108.1 Z M 31.9 70.0 L 31.9 104.1 L 60.3 104.1 L 60.3 70.0 Z M 98.5 72.3 L 86.5 78.3 L 86.5 26.2 L 98.5 28.2 L 101.5 30.2 L 98.5 32.0 L 98.5 56.3 L 125.6 56.3 L 125.6 14.9 L 137.6 16.9 L 140.6 18.9 L 137.6 20.7 L 137.6 56.3 L 164.1 56.3 L 164.1 26.2 L 176.1 28.2 L 179.1 30.2 L 176.1 32.0 L 176.1 66.3 L 164.1 72.3 L 164.1 60.3 L 98.5 60.3 Z M 31.9 31.8 L 31.9 66.0 L 60.3 66.0 L 60.3 31.8 Z " />
</g>
</svg>
