<svg xmlns="http://www.w3.org/2000/svg" xmlns:xlink="http://www.w3.org/1999/xlink" version="1.1" baseProfile="full" viewBox="0 0 200 200" width="200" height="200">
<g fill="black">
<path d="M 19.3 185.1 L 19.0 180.5 L 22.0 177.0 L 24.8 175.8 L 27.4 174.3 L 29.9 172.4 L 32.2 170.1 L 34.3 167.4 L 36.2 164.3 L 38.0 160.7 L 39.6 156.6 L 41.0 152.0 L 42.0 146.9 L 43.8 147.0 L 44.1 152.3 L 44.2 157.4 L 43.7 162.2 L 42.8 166.8 L 41.4 171.1 L 39.6 175.1 L 37.2 178.9 L 34.4 182.2 L 31.1 185.2 L 27.3 187.8 L 22.7 188.0 Z M 168.6 176.6 L 167.2 173.4 L 165.4 170.1 L 163.3 166.7 L 160.8 163.2 L 157.9 159.6 L 154.7 155.9 L 151.2 152.1 L 147.2 148.2 L 148.3 146.7 L 153.3 149.4 L 157.9 152.2 L 162.2 155.1 L 166.0 158.2 L 169.6 161.4 L 172.7 164.7 L 175.6 168.1 L 178.0 171.7 L 180.1 175.3 L 181.8 179.1 L 181.3 183.7 L 177.8 186.6 L 173.3 186.1 L 170.3 182.6 L 169.6 179.6 Z M 121.3 174.2 L 120.7 171.4 L 119.8 168.5 L 118.5 165.5 L 116.9 162.4 L 115.0 159.2 L 112.8 155.9 L 110.2 152.4 L 107.2 149.1 L 108.3 147.7 L 112.2 150.2 L 116.0 152.7 L 119.3 155.4 L 122.4 158.2 L 125.1 161.2 L 127.5 164.3 L 129.6 167.6 L 131.3 171.1 L 132.6 174.6 L 133.6 178.3 L 132.3 182.7 L 128.3 184.9 L 123.9 183.6 L 121.7 179.6 L 121.6 177.0 Z M 80.6 184.9 L 76.6 182.7 L 75.3 178.3 L 75.8 175.7 L 76.2 173.1 L 76.2 170.4 L 76.0 167.6 L 75.6 164.8 L 74.9 161.8 L 73.9 158.8 L 72.6 155.6 L 71.1 152.3 L 69.0 149.1 L 70.3 147.9 L 73.2 150.6 L 76.1 153.1 L 78.7 155.9 L 80.9 158.9 L 82.8 162.0 L 84.4 165.3 L 85.6 168.7 L 86.5 172.2 L 87.1 175.9 L 87.2 179.6 L 85.0 183.6 Z M 52.0 21.2 L 148.0 21.2 L 154.0 16.2 L 165.0 25.2 L 160.0 29.2 L 160.0 132.2 L 148.0 138.2 L 148.0 132.2 L 52.0 132.2 L 40.0 138.2 L 40.0 15.2 Z M 52.0 95.0 L 52.0 128.2 L 148.0 128.2 L 148.0 95.0 Z M 52.0 60.1 L 52.0 91.0 L 148.0 91.0 L 148.0 60.1 Z M 52.0 25.2 L 52.0 56.1 L 148.0 56.1 L 148.0 25.2 Z " />
</g>
</svg>
