<svg xmlns="http://www.w3.org/2000/svg" xmlns:xlink="http://www.w3.org/1999/xlink" version="1.1" baseProfile="full" viewBox="0 0 200 200" width="200" height="200">
<g fill="black">
<path d="M 136.5 14.0 L 139.5 16.0 L 136.5 17.8 L 136.5 36.0 L 163.1 36.0 L 173.1 26.0 L 185.1 36.0 L 185.1 40.0 L 136.5 40.0 L 136.5 60.0 L 159.6 60.0 L 165.6 55.0 L 176.6 64.0 L 171.6 68.0 L 171.6 126.0 L 159.6 132.0 L 159.6 122.0 L 136.5 122.0 L 136.5 144.0 L 165.8 144.0 L 175.8 134.0 L 187.8 144.0 L 187.8 148.0 L 136.5 148.0 L 136.5 183.0 L 124.5 189.0 L 124.5 148.0 L 73.1 148.0 L 73.1 144.0 L 124.5 144.0 L 124.5 122.0 L 101.4 122.0 L 101.4 129.0 L 89.4 135.0 L 89.4 54.0 L 101.4 60.0 L 124.5 60.0 L 124.5 12.0 Z M 29.0 33.4 L 56.0 33.4 L 62.0 28.4 L 73.0 37.4 L 68.0 41.4 L 68.0 155.9 L 56.0 161.9 L 56.0 149.9 L 29.0 149.9 L 29.0 161.9 L 17.0 167.9 L 17.0 27.4 Z M 29.0 110.8 L 29.0 145.9 L 56.0 145.9 L 56.0 110.8 Z M 101.4 93.0 L 101.4 118.0 L 159.6 118.0 L 159.6 93.0 Z M 29.0 74.1 L 29.0 106.8 L 56.0 106.8 L 56.0 74.1 Z M 101.4 89.0 L 159.6 89.0 L 159.6 64.0 L 101.4 64.0 Z M 29.0 37.4 L 29.0 70.1 L 56.0 70.1 L 56.0 37.4 Z " />
</g>
</svg>
