<svg xmlns="http://www.w3.org/2000/svg" xmlns:xlink="http://www.w3.org/1999/xlink" version="1.1" baseProfile="full" viewBox="0 0 200 200" width="200" height="200">
<g fill="black">
<path d="M 175.6 103.0 L 175.6 107.0 L 143.0 107.0 L 143.0 134.8 L 166.8 134.8 L 176.8 124.8 L 188.8 134.8 L 188.8 138.8 L 143.0 138.8 L 143.0 182.5 L 131.0 188.5 L 131.0 138.8 L 104.6 138.8 L 104.6 134.8 L 131.0 134.8 L 131.0 107.0 L 102.5 107.0 L 102.5 103.0 L 157.4181818008423 103.0 L 165.6 94.0 Z M 93.4 103.0 L 93.4 107.0 L 65.9 107.0 L 65.9 134.8 L 78.5 134.8 L 88.5 124.8 L 100.5 134.8 L 100.5 138.8 L 65.7 138.8 L 65.1 144.8 L 63.2 152.3 L 60.4 159.1 L 56.5 165.4 L 51.6 170.9 L 45.9 175.7 L 39.2 179.8 L 31.8 183.1 L 23.5 185.7 L 14.5 187.5 L 14.0 185.7 L 22.3 182.1 L 29.5 178.3 L 35.8 174.2 L 41.1 169.8 L 45.3 165.2 L 48.7 160.2 L 51.2 155.0 L 52.9 149.4 L 53.8 143.3 L 53.8692307472229 138.8 L 12.2 138.8 L 12.2 134.8 L 53.9 134.8 L 53.9 107.0 L 20.3 107.0 L 20.3 103.0 L 75.21818180084229 103.0 L 83.4 94.0 Z M 52.0 18.7 L 148.0 18.7 L 154.0 13.7 L 165.0 22.7 L 160.0 26.7 L 160.0 90.3 L 148.0 96.3 L 148.0 90.3 L 52.0 90.3 L 40.0 96.3 L 40.0 12.7 Z M 52.0 66.8 L 52.0 86.3 L 148.0 86.3 L 148.0 66.8 Z M 52.0 44.7 L 52.0 62.8 L 148.0 62.8 L 148.0 44.7 Z M 52.0 22.7 L 52.0 40.7 L 148.0 40.7 L 148.0 22.7 Z " />
</g>
</svg>
