<svg xmlns="http://www.w3.org/2000/svg" xmlns:xlink="http://www.w3.org/1999/xlink" version="1.1" baseProfile="full" viewBox="0 0 200 200" width="200" height="200">
<g fill="black">
<path d="M 69.0 175.4 L 89.0 175.4 L 90.2 175.3 L 91.1 175.1 L 92.0 174.8 L 92.4 174.4 L 92.7 173.5 L 92.9 172.6 L 93.0 171.4 L 93.0 148.0 L 14.6 148.0 L 14.6 144.0 L 93.0 144.0 L 93.0 128.6 L 103.69909086227418 130.38318185806276 L 105.1 129.5 L 109.4 126.6 L 113.5 124.0 L 117.3 121.5 L 120.9 119.2 L 124.3 117.1 L 54.3 117.1 L 54.3 113.1 L 130.2388889312744 113.1 L 132.6 111.4 L 134.9 109.8 L 135.1661237716675 110.29489688873291 L 137.8 108.1 L 148.8 117.1 L 143.8 120.1 L 131.8 125.1 L 131.8 123.8 L 128.3 125.1 L 124.5 126.5 L 120.4 127.9 L 116.1 129.4 L 111.5 130.9 L 107.32758617401123 132.15172414779664 L 108.0 132.6 L 105.0 134.4 L 105.0 144.0 L 162.3 144.0 L 172.3 134.0 L 184.3 144.0 L 184.3 148.0 L 105.0 148.0 L 105.0 171.4 L 104.8 173.9 L 104.4 176.4 L 103.6 178.8 L 102.3 181.1 L 100.7 183.1 L 98.7 184.8 L 96.4 186.0 L 94.0 186.8 L 91.5 187.2 L 89.0 187.4 L 89.0 181.4 L 69.0 178.4 Z M 14.7 118.4 L 14.7 113.8 L 17.9 110.5 L 19.8 110.1 L 21.5 109.4 L 23.2 108.4 L 24.7 107.2 L 26.2 105.6 L 27.6 103.6 L 28.8 101.3 L 29.9 98.4 L 30.9 95.2 L 31.2 91.6 L 33.0 91.5 L 33.4 95.3 L 33.59444446563721 96.7 L 93.0 96.7 L 93.0 78.4 L 105.0 80.4 L 108.0 82.4 L 105.0 84.2 L 105.0 96.7 L 166.7 96.7 L 167.4800000190735 96.05 L 168.2 94.7 L 168.63548383712768 95.08709678649902 L 172.7 91.7 L 183.7 100.7 L 178.7 103.7 L 170.62941179275512 107.06274509429932 L 169.6 107.7 L 167.4 109.1 L 165.0 110.5 L 162.4 112.0 L 159.7 113.5 L 156.7 115.0 L 153.8 116.8 L 152.7 115.4 L 155.1 113.1 L 157.1 110.4 L 159.0 108.0 L 160.8 105.7 L 162.4 103.6 L 163.9 101.6 L 164.51578950881958 100.7 L 33.9529411315918 100.7 L 34.0 102.3 L 33.7 105.7 L 32.9 108.9 L 31.8 111.9 L 30.1 114.8 L 28.0 117.4 L 25.5 119.7 L 22.6 121.6 L 18.0 121.6 Z M 122.0 16.6 L 161.9 16.6 L 167.9 11.6 L 178.9 20.6 L 173.9 24.6 L 173.9 79.8 L 161.9 85.8 L 161.9 75.8 L 122.0 75.8 L 122.0 82.8 L 110.0 88.8 L 110.0 10.6 Z M 38.0 16.6 L 77.9 16.6 L 83.9 11.6 L 94.9 20.6 L 89.9 24.6 L 89.9 79.8 L 77.9 85.8 L 77.9 75.8 L 38.0 75.8 L 26.0 81.8 L 26.0 10.6 Z M 122.0 56.6 L 122.0 71.8 L 161.9 71.8 L 161.9 56.6 Z M 38.0 56.6 L 38.0 71.8 L 77.9 71.8 L 77.9 56.6 Z M 122.0 38.6 L 122.0 52.6 L 161.9 52.6 L 161.9 38.6 Z M 38.0 38.6 L 38.0 52.6 L 77.9 52.6 L 77.9 38.6 Z M 122.0 20.6 L 122.0 34.6 L 161.9 34.6 L 161.9 20.6 Z M 38.0 20.6 L 38.0 34.6 L 77.9 34.6 L 77.9 20.6 Z " />
</g>
</svg>
