<svg xmlns="http://www.w3.org/2000/svg" xmlns:xlink="http://www.w3.org/1999/xlink" version="1.1" baseProfile="full" viewBox="0 0 200 200" width="200" height="200">
<g fill="black">
<path d="M 94.5 125.2 L 94.48260869979859 125.3 L 155.32310752868653 125.3 L 157.67689247131347 104.2 L 96.1 104.2 L 96.1 105.6 L 95.5 115.6 Z M 88.1 183.3 L 86.1 179.2 L 87.4 174.9 L 88.8 173.5 L 90.3 171.7 L 91.7 169.4 L 93.0 166.6 L 94.2 163.3 L 95.4 159.5 L 96.4 155.3 L 97.3 150.6 L 98.2 145.5 L 98.9 139.9 L 100.7 139.8 L 101.4 145.5 L 102.0 150.8 L 102.3 155.8 L 102.3 160.5 L 102.1 164.8 L 101.6 168.9 L 100.8 172.7 L 99.8 176.3 L 98.4 179.6 L 96.6 182.6 L 92.5 184.7 Z M 116.7 178.6 L 112.7 176.5 L 111.2 172.1 L 111.7 169.5 L 112.1 166.9 L 112.3 164.1 L 112.4 161.2 L 112.4 158.2 L 112.1 155.1 L 111.8 151.9 L 111.3 148.5 L 110.7 145.0 L 109.7 141.5 L 111.3 140.8 L 113.2 143.9 L 115.3 147.0 L 117.0 150.2 L 118.6 153.4 L 119.9 156.6 L 121.0 159.8 L 121.8 163.1 L 122.5 166.4 L 123.0 169.7 L 123.2 173.1 L 121.1 177.1 Z M 131.4 162.4 L 131.0 159.5 L 130.4 156.6 L 129.8 153.8 L 129.0 151.1 L 128.1 148.3 L 127.1 145.6 L 126.0 142.8 L 124.5 140.2 L 125.9 139.1 L 128.1 141.2 L 130.6 143.2 L 132.8 145.5 L 134.8 148.0 L 136.7 150.7 L 138.4 153.5 L 140.0 156.4 L 141.4 159.5 L 142.6 162.8 L 143.7 166.1 L 142.7 170.6 L 138.9 173.1 L 134.5 172.1 L 131.9 168.3 L 131.7 165.3 Z M 27.9 34.4 L 51.3 34.4 L 57.3 29.4 L 68.3 38.4 L 63.3 42.4 L 63.3 156.9 L 51.3 162.9 L 51.3 150.9 L 27.9 150.9 L 27.9 162.9 L 15.9 168.9 L 15.9 28.4 Z M 150.9 155.3 L 150.3 153.0 L 149.6 150.7 L 148.7 148.4 L 147.7 146.2 L 146.6 143.9 L 145.3 141.7 L 143.9 139.4 L 142.1 137.5 L 143.2 136.0 L 145.5 137.5 L 148.1 138.8 L 150.5 140.4 L 152.8 142.2 L 154.9 144.2 L 156.9 146.4 L 158.7 148.7 L 160.4 151.2 L 161.9 153.9 L 163.3 156.7 L 162.7 161.3 L 159.2 164.2 L 154.7 163.7 L 151.8 160.1 L 151.4 157.7 Z M 27.9 111.8 L 27.9 146.9 L 51.3 146.9 L 51.3 111.8 Z M 27.9 75.1 L 27.9 107.8 L 51.3 107.8 L 51.3 75.1 Z M 96.1 78.3 L 96.1 100.2 L 141.51621618270875 100.2 L 143.88378381729126 78.3 Z M 166.2 64.2 L 164.3 60.5 L 162.2 56.8 L 159.9 53.3 L 157.5 49.8 L 154.9 46.4 L 152.2 43.0 L 149.3 39.6 L 146.2 36.3 L 147.3 34.8 L 151.4 37.0 L 155.5 39.3 L 159.3 42.0 L 162.8 44.9 L 166.2 48.0 L 169.4 51.4 L 172.5 54.9 L 175.3 58.6 L 178.0 62.6 L 180.4 66.6 L 180.6 71.2 L 177.6 74.7 L 173.1 74.8 L 169.6 71.8 L 168.0 68.0 Z M 27.9 38.4 L 27.9 71.1 L 51.3 71.1 L 51.3 38.4 Z M 121.5 59.3 L 121.0 56.8 L 120.3 54.3 L 119.6 51.7 L 118.7 49.2 L 117.7 46.7 L 116.5 44.2 L 115.3 41.6 L 113.6 39.3 L 114.9 38.0 L 117.2 39.9 L 119.7 41.7 L 122.0 43.6 L 124.1 45.8 L 126.1 48.1 L 128.0 50.5 L 129.7 53.1 L 131.2 55.8 L 132.6 58.6 L 133.8 61.6 L 133.1 66.1 L 129.4 68.9 L 124.9 68.1 L 122.2 64.5 L 121.9 61.9 Z M 96.06367855072021 33.97835578918457 L 99.3 33.2 L 107.0 31.4 L 114.6 29.7 L 122.0 27.9 L 129.2 26.1 L 136.2 24.2 L 143.0 22.2 L 149.7 20.1 L 156.2 17.9 L 161.5123948097229 15.929272842407226 L 161.5 15.9 L 161.5277304649353 15.923583889007569 L 162.4 15.6 L 162.8956521987915 17.08695650100708 L 172.2 25.0 L 172.4 28.1 L 168.31139240264892 26.2962025642395 L 166.2 27.0 L 159.5 28.8 L 152.5 30.4 L 145.5 31.9 L 138.2 33.3 L 130.9 34.4 L 123.3 35.4 L 115.6 36.2 L 107.8 36.7 L 99.7 37.0 L 97.22398433685302 36.939609336853025 L 95.9 41.5 L 93.9 47.7 L 91.5 53.6 L 89.0 59.4 L 86.1 65.0 L 84.1820143699646 68.34100723266602 L 96.1 74.3 L 144.1 74.3 L 150.1 69.3 L 161.1 78.3 L 156.1 81.3 L 154.78963146209716 81.84598693847656 L 153.53654623031616 100.2 L 157.9 100.2 L 163.9 95.2 L 174.9 104.2 L 169.9 107.2 L 168.57901678085327 107.75040969848632 L 167.34107885360717 125.3 L 171.7 125.3 L 177.7 120.3 L 188.7 129.3 L 183.7 132.3 L 183.7 133.7 L 183.5 139.7 L 183.3 145.4 L 183.0 150.6 L 182.6 155.4 L 182.1 159.9 L 181.5 164.0 L 180.8 167.8 L 180.0 171.2 L 179.1 174.2 L 178.1 176.6 L 176.9 178.8 L 175.5 180.8 L 173.8 182.7 L 171.9 184.2 L 169.8 185.5 L 167.5 186.5 L 165.1 187.2 L 162.6 187.6 L 160.1 187.7 L 160.1 181.7 L 140.1 178.7 L 140.1 175.7 L 160.1 175.7 L 161.4 175.6 L 162.6 175.5 L 163.5 175.2 L 164.3 174.9 L 165.0 174.5 L 165.6 174.0 L 166.1 173.3 L 166.7 172.5 L 167.2 171.5 L 167.7 170.3 L 168.4 168.0 L 169.1 165.3 L 169.7 162.1 L 170.2 158.4 L 170.7 154.3 L 171.0 149.8 L 171.3 144.8 L 171.5 139.4 L 171.7 133.6 L 171.7 129.3 L 93.78695650100708 129.3 L 92.9 134.4 L 90.9 143.2 L 88.3 151.6 L 85.2 159.6 L 81.6 167.1 L 77.4 174.1 L 72.7 180.5 L 67.3 186.3 L 65.9 185.2 L 69.5 178.4 L 72.7 171.5 L 75.6 164.4 L 78.1 157.0 L 80.1 149.2 L 81.8 141.2 L 83.0 132.8 L 83.8 124.1 L 84.2 115.0 L 84.1 105.6 L 84.1 68.48387098312378 L 83.0 70.4 L 79.6 75.6 L 75.8 80.5 L 71.8 85.2 L 67.3 89.5 L 65.9 88.4 L 68.7 83.0 L 71.3 77.6 L 73.9 72.3 L 76.2 66.9 L 78.4 61.4 L 80.3 55.9 L 82.1 50.3 L 83.6 44.5 L 84.9 38.7 L 86.0 32.7 L 87.3 26.9 Z " />
</g>
</svg>
