<svg xmlns="http://www.w3.org/2000/svg" xmlns:xlink="http://www.w3.org/1999/xlink" version="1.1" baseProfile="full" viewBox="0 0 200 200" width="200" height="200">
<g fill="black">
<path d="M 113.7 130.8 L 112.75054941177368 138.0 L 141.3 138.0 L 141.3 105.2 L 153.3 107.2 L 156.3 109.2 L 153.3 111.0 L 153.3 138.0 L 163.5 138.0 L 173.5 128.0 L 185.5 138.0 L 185.5 142.0 L 153.3 142.0 L 153.3 182.0 L 141.3 188.0 L 141.3 142.0 L 112.1047059059143 142.0 L 110.9 148.4 L 108.7 156.2 L 106.0 163.3 L 102.8 169.6 L 99.0 175.1 L 94.7 179.9 L 89.8 183.7 L 84.5 186.6 L 78.8 188.4 L 78.1 186.7 L 82.6 183.3 L 86.4 179.6 L 89.8 175.5 L 92.7 170.9 L 95.2 165.7 L 97.3 159.9 L 99.1 153.5 L 100.4 146.4 L 100.85128202438355 142.0 L 68.1 142.0 L 68.1 138.0 L 101.23529415130615 138.0 L 101.7 130.1 L 101.7 105.2 L 113.7 107.2 L 116.7 109.2 L 113.7 111.0 L 113.7 130.4 L 113.44331550598145 130.78502674102782 Z M 29.4 33.4 L 50.3 33.4 L 56.3 28.4 L 67.3 37.4 L 62.3 41.4 L 62.3 155.9 L 50.3 161.9 L 50.3 149.9 L 29.4 149.9 L 29.4 161.9 L 17.4 167.9 L 17.4 27.4 Z M 29.4 110.8 L 29.4 145.9 L 50.3 145.9 L 50.3 110.8 Z M 29.4 74.1 L 29.4 106.8 L 50.3 106.8 L 50.3 74.1 Z M 114.77300271987914 90.55417814254761 L 111.6 92.1 L 107.4 93.8 L 103.1 95.4 L 98.7 96.9 L 94.1 98.4 L 89.4 99.9 L 84.6 101.3 L 79.7 102.7 L 78.68102407455444 102.97971887588501 L 77.2 106.6 L 74.6 104.1 L 70.2 92.8 L 72.2 92.4 L 77.3 91.6 L 81.81219511032104 90.96829271316528 L 82.0 90.7 L 86.0 84.8 L 89.9 79.0 L 93.5 73.2 L 97.0 67.4 L 98.77777776718139 64.1777777671814 L 98.5 64.6 L 94.0 65.5 L 90.2 63.1 L 89.0 60.8 L 87.7 58.5 L 86.3 56.3 L 84.8 54.1 L 81.4 49.7 L 79.5 47.5 L 77.4 45.2 L 75.3 43.0 L 72.9 41.0 L 73.7 39.5 L 76.7 40.8 L 79.7 41.8 L 82.7 43.1 L 84.19145727157593 43.89899501800537 L 85.5 41.5 L 88.5 34.9 L 89.9 31.8 L 91.2 28.8 L 92.5 25.9 L 93.7 23.0 L 94.8 20.2 L 96.28865432739258 15.734036922454834 L 96.2 15.7 L 96.5 15.1 L 96.6 14.8 L 96.64029846191406 14.819402980804444 L 97.2 13.7 L 107.4 20.0 L 109.3 23.1 L 105.0494285583496 23.53971424102783 L 103.9 25.2 L 102.0 27.8 L 99.9 30.3 L 97.8 32.9 L 95.5 35.5 L 93.1 38.1 L 90.5 40.7 L 87.8 43.2 L 86.10602617263794 44.95912666320801 L 88.2 46.2 L 90.8 48.0 L 93.3 49.8 L 97.9 54.0 L 100.1 56.3 L 100.88235292434692 60.21176471710205 L 103.1 55.7 L 105.9 49.8 L 108.3 43.9 L 110.5 37.9 L 110.55855703353882 37.92352733612061 L 111.1 36.6 L 121.7 42.4 L 123.7 45.4 L 119.9681900024414 45.979074001312256 L 118.7 48.6 L 115.5 54.6 L 111.9 60.6 L 108.1 66.4 L 104.1 72.1 L 99.7 77.6 L 95.1 83.0 L 90.1 88.3 L 88.20312976837158 90.05371026992798 L 92.0 89.5 L 96.7 88.8 L 101.3 88.2 L 105.8 87.6 L 110.3 87.1 L 113.6910569190979 86.78455286026 L 113.6 86.5 L 112.8 84.1 L 111.9 81.7 L 110.9 79.2 L 109.8 76.8 L 108.7 74.3 L 107.2 72.1 L 108.5 70.9 L 110.6 72.7 L 112.9 74.3 L 115.1 76.1 L 117.2 78.1 L 119.2 80.2 L 122.8 84.8 L 124.5 87.3 L 126.0 89.9 L 127.5 92.6 L 127.2 97.1 L 123.8 100.2 L 119.2 99.9 L 116.1 96.6 L 115.6 94.0 Z M 173.7 93.9 L 173.0 90.6 L 172.63466901779174 89.26045293807984 L 171.3 89.8 L 166.7 91.6 L 162.2 93.2 L 157.6 94.6 L 148.8 97.2 L 144.4 98.3 L 140.2 99.4 L 135.91927461624147 100.49506931304931 L 134.2 104.1 L 131.8 101.4 L 128.0 89.9 L 130.0 89.6 L 134.2 89.3 L 138.0059030532837 88.93753299713134 L 140.8 83.8 L 144.0 77.9 L 147.2 71.9 L 150.5 65.8 L 152.81655626296998 61.3072847366333 L 150.8 63.9 L 146.3 64.3 L 142.7 61.5 L 141.9 59.4 L 140.9 57.2 L 139.8 55.0 L 138.5 52.8 L 137.0 50.5 L 135.4 48.3 L 133.5 45.9 L 131.5 43.6 L 129.4 41.1 L 126.8 38.9 L 127.8 37.4 L 130.8 39.0 L 134.0 40.3 L 136.9 41.8 L 138.80952377319335 42.89115648269653 L 140.0 40.0 L 141.5 36.6 L 145.7 26.7 L 147.0 23.4 L 149.4 16.8 L 150.08786125183104 14.530057811737061 L 150.0 14.5 L 150.29090909957887 13.860000038146973 L 150.4 13.5 L 150.44536085128783 13.52020616531372 L 151.0 12.3 L 161.4 18.4 L 163.3 21.5 L 159.26516857147217 21.995505619049073 L 157.6 24.8 L 155.5 27.9 L 153.4 30.9 L 148.8 36.9 L 146.3 39.7 L 143.7 42.5 L 141.4833046913147 44.634595489501955 L 142.3 45.2 L 144.8 47.1 L 147.2 49.1 L 149.3 51.2 L 151.3 53.4 L 153.2 55.8 L 153.5611717224121 59.863182067871094 L 153.8 59.4 L 157.2 52.7 L 160.5 45.9 L 163.8 38.8 L 166.81865158081055 32.40756139755249 L 166.8 32.4 L 167.7 30.5 L 177.9 36.9 L 179.7 40.0 L 176.05041446685792 40.31461944580078 L 174.0 44.1 L 170.0 51.0 L 165.9 57.6 L 161.9 64.0 L 157.8 70.1 L 153.6 76.0 L 149.4 81.6 L 145.2 86.8 L 143.66222219467164 88.51252527236939 L 147.1 88.2 L 151.6 87.8 L 156.2 87.4 L 160.9 87.0 L 165.7 86.6 L 170.6 86.4 L 171.78421049118043 86.35263156890869 L 171.0 84.0 L 169.9 80.6 L 168.6 77.2 L 167.2 73.8 L 165.7 70.3 L 163.9 66.9 L 165.3 65.8 L 168.1 68.6 L 170.9 71.3 L 173.5 74.3 L 175.9 77.3 L 178.1 80.5 L 180.1 83.8 L 182.0 87.2 L 183.7 90.6 L 185.2 94.2 L 186.5 97.8 L 185.7 102.3 L 182.1 105.0 L 177.5 104.3 L 174.8 100.6 L 174.3 97.3 Z M 29.4 37.4 L 29.4 70.1 L 50.3 70.1 L 50.3 37.4 Z " />
</g>
</svg>
