<svg xmlns="http://www.w3.org/2000/svg" xmlns:xlink="http://www.w3.org/1999/xlink" version="1.1" baseProfile="full" viewBox="0 0 200 200" width="200" height="200">
<g fill="black">
<path d="M 65.5 177.2 L 82.4 177.2 L 82.4 121.2 L 94.4 127.2 L 159.5 127.2 L 165.5 122.2 L 176.5 131.2 L 171.5 135.2 L 171.5 177.2 L 174.1777777671814 177.2 L 180.4 170.2 L 188.4 177.2 L 188.4 181.2 L 65.5 181.2 Z M 94.4 131.2 L 94.4 177.2 L 108.1 177.2 L 108.1 131.2 Z M 120.1 131.2 L 120.1 177.2 L 133.8 177.2 L 133.8 131.2 Z M 145.8 131.2 L 145.8 177.2 L 159.5 177.2 L 159.5 131.2 Z M 27.4 33.4 L 51.6 33.4 L 57.6 28.4 L 68.6 37.4 L 63.6 41.4 L 63.6 155.9 L 51.6 161.9 L 51.6 149.9 L 27.4 149.9 L 27.4 161.9 L 15.4 167.9 L 15.4 27.4 Z M 27.4 110.8 L 27.4 145.9 L 51.6 145.9 L 51.6 110.8 Z M 175.8 119.8 L 169.2 115.4 L 163.3 110.2 L 158.1 104.2 L 153.7 97.3 L 150.1 89.7 L 147.1 81.4 L 144.9 72.3 L 144.21537246704102 67.82709980010986 L 142.4 74.4 L 138.7 84.0 L 134.4 92.6 L 129.3 100.1 L 123.5 106.6 L 117.0 112.0 L 109.8 116.1 L 102.1 118.9 L 101.4 117.2 L 107.9 112.8 L 113.6 107.8 L 118.6 102.2 L 123.0 95.8 L 126.9 88.6 L 130.1 80.6 L 132.7 71.7 L 134.8 61.8 L 136.2 51.0 L 136.85840711593627 41.7 L 127.01499996185302 41.7 L 126.7 42.4 L 123.7 48.2 L 120.5 53.7 L 117.0 59.0 L 113.2 63.9 L 109.0 68.5 L 104.5 72.6 L 103.2 71.5 L 106.0 66.2 L 108.7 61.0 L 111.3 55.6 L 113.8 50.2 L 116.1 44.6 L 118.1 38.9 L 120.0 33.0 L 121.7 26.9 L 123.1 20.7 L 124.4 14.2 L 124.42113819122315 14.204878044128417 L 124.8 12.5 L 136.1 16.9 L 138.6 19.5 L 134.97617921829223 20.66479949951172 L 134.1 23.6 L 131.9 30.1 L 129.4 36.4 L 128.81499996185303 37.7 L 169.3 37.7 L 175.3 32.7 L 186.3 41.7 L 181.3 44.7 L 177.7 46.2 L 177.1 47.0 L 175.4 49.1 L 173.5 51.5 L 171.3 54.2 L 168.8 57.1 L 166.1 60.2 L 163.0 63.5 L 159.9 67.3 L 158.4 66.3 L 160.7 62.1 L 162.5 57.9 L 164.2 54.1 L 165.6 50.7 L 166.9 47.6 L 167.9 44.9 L 168.7 42.5 L 168.93999996185303 41.7 L 148.8064516067505 41.7 L 147.5 52.5 L 147.33119039535524 53.374740791320804 L 149.2 61.5 L 151.9 70.5 L 155.0 78.6 L 158.5 85.7 L 162.4 91.9 L 166.7 97.2 L 171.3 101.6 L 176.3 105.2 L 187.1 110.6 Z M 87.2 123.1 L 83.2 121.0 L 81.7 116.7 L 82.2 112.2 L 82.4 108.1 L 82.2 104.6 L 81.6 101.5 L 80.8 98.7 L 79.6 96.3 L 78.0 94.0 L 75.8 92.0 L 73.1 90.1 L 69.6 88.8 L 69.9 87.0 L 73.9 87.3 L 77.8 88.0 L 81.4 89.5 L 81.45035762786866 89.53462085723876 L 82.0 88.5 L 84.2 84.2 L 86.8 78.9 L 89.9 72.5 L 93.6 65.0 L 97.7 56.5 L 102.4 46.9 L 107.7 36.3 L 113.6 24.7 L 115.3 25.4 L 111.2 37.8 L 107.3 49.0 L 103.8 59.0 L 100.6 68.0 L 97.8 75.8 L 95.4 82.5 L 93.4 88.1 L 91.9 92.6 L 90.9 96.1 L 90.2 98.4 L 89.6934913635254 98.19009552001953 L 89.7 98.2 L 91.5 102.3 L 92.7 107.0 L 93.4 112.0 L 93.6 117.6 L 91.6 121.6 Z M 27.4 74.1 L 27.4 106.8 L 51.6 106.8 L 51.6 74.1 Z M 27.4 37.4 L 27.4 70.1 L 51.6 70.1 L 51.6 37.4 Z M 76.5 57.7 L 76.1 56.2 L 75.5 54.5 L 74.7 52.8 L 73.7 50.9 L 72.4 49.0 L 70.9 46.9 L 69.2 44.8 L 67.0 43.0 L 68.0 41.5 L 70.5 42.9 L 73.2 44.0 L 75.7 45.1 L 78.0 46.4 L 80.1 47.9 L 82.1 49.4 L 83.9 51.1 L 85.5 52.9 L 86.9 54.9 L 88.2 57.0 L 87.7 61.5 L 84.2 64.5 L 79.6 64.0 L 76.7 60.5 L 76.7 59.2 Z M 89.0 33.2 L 88.7 31.8 L 88.1 30.2 L 87.2 28.5 L 86.2 26.7 L 84.9 24.8 L 83.4 22.9 L 81.7 20.7 L 79.5 19.0 L 80.5 17.5 L 83.0 18.9 L 85.6 19.9 L 88.1 21.0 L 90.4 22.2 L 92.5 23.5 L 94.4 24.9 L 96.2 26.4 L 97.8 28.0 L 99.3 29.8 L 100.5 31.8 L 100.1 36.3 L 96.7 39.4 L 92.2 39.0 L 89.1 35.6 L 89.2 34.5 Z " />
</g>
</svg>
