<svg xmlns="http://www.w3.org/2000/svg" xmlns:xlink="http://www.w3.org/1999/xlink" version="1.1" baseProfile="full" viewBox="0 0 200 200" width="200" height="200">
<g fill="black">
<path d="M 101.8 104.8 L 104.0 107.7 L 100.30380487442017 108.47814636230468 L 99.4 110.7 L 96.8 116.3 L 95.37636365890503 119.0 L 112.4 119.0 L 118.4 114.0 L 129.4 123.0 L 127.73333330154419 124.0 L 151.1 124.0 L 151.1 104.0 L 163.1 106.0 L 166.1 108.0 L 163.1 109.8 L 163.1 124.0 L 167.6777777671814 124.0 L 173.9 117.0 L 181.9 124.0 L 181.9 128.0 L 163.1 128.0 L 163.1 152.0 L 165.7 152.0 L 175.7 142.0 L 187.7 152.0 L 187.7 156.0 L 163.1 156.0 L 163.1 183.0 L 151.1 189.0 L 151.1 156.0 L 136.54499998092652 156.0 L 135.9 159.9 L 123.1 163.8 L 128.7 130.0 L 140.2 133.9 L 142.8 136.4 L 139.62496881484986 137.3769326210022 L 137.20653848648072 152.0 L 151.1 152.0 L 151.1 128.0 L 126.4 128.0 L 126.4 124.8 L 124.4 126.0 L 122.6222222328186 126.74074077606201 L 120.2 133.2 L 115.8 142.8 L 111.0 151.6 L 105.8 159.6 L 100.2 166.8 L 94.1 173.1 L 87.7 178.5 L 80.9 183.0 L 73.7 186.4 L 66.1 188.8 L 65.5 187.1 L 71.9 183.1 L 77.9 178.6 L 83.4 173.5 L 88.7 167.9 L 93.5 161.6 L 98.0 154.6 L 98.49070949554444 153.68868246078492 L 94.5 153.6 L 91.3 150.4 L 90.9 148.5 L 90.6 146.6 L 89.6 143.0 L 89.0 141.3 L 87.6 137.9 L 85.86309642791748 134.61918210983276 L 84.2 136.9 L 80.6 141.5 L 76.6 145.9 L 72.4 149.9 L 67.9 153.6 L 66.6 152.3 L 69.5 147.5 L 72.4 142.6 L 75.2 137.8 L 77.8 132.8 L 80.3 127.8 L 82.7 122.7 L 84.9 117.5 L 86.9 112.1 L 88.8 106.6 L 90.22489624023437 101.90622406005859 L 90.2 101.9 L 90.5 101.0 L 67.3 101.0 L 67.3 97.0 L 85.1 97.0 L 85.1 69.0 L 63.6 69.0 L 63.6 65.0 L 85.1 65.0 L 85.1 42.0 L 84.5 42.9 L 81.4 47.1 L 78.0 51.3 L 74.2 55.4 L 70.2 59.5 L 68.7 58.4 L 71.2 53.3 L 73.6 48.4 L 75.8 43.7 L 78.0 39.1 L 79.9 34.7 L 81.7 30.4 L 83.3 26.1 L 84.6 22.0 L 85.8 18.0 L 86.54125871658326 15.109090900421142 L 86.5 15.1 L 86.71935482025147 14.414516162872314 L 86.8 14.1 L 86.81817893981933 14.10569076538086 L 87.3 12.6 L 98.3 17.7 L 100.5 20.5 L 96.69200000762939 21.452000045776366 L 96.5 21.9 L 94.6 26.1 L 92.4 30.3 L 90.85714282989503 33.0 L 157.7 33.0 L 167.7 23.0 L 179.7 33.0 L 179.7 37.0 L 164.0 37.0 L 164.0 65.0 L 169.51818180084229 65.0 L 177.7 56.0 L 187.7 65.0 L 187.7 69.0 L 164.0 69.0 L 164.0 97.0 L 166.61818180084228 97.0 L 174.8 88.0 L 184.8 97.0 L 184.8 101.0 L 94.05660381317139 101.0 Z M 31.0 33.4 L 49.6 33.4 L 55.6 28.4 L 66.6 37.4 L 61.6 41.4 L 61.6 155.9 L 49.6 161.9 L 49.6 149.9 L 31.0 149.9 L 31.0 161.9 L 19.0 167.9 L 19.0 27.4 Z M 93.20769233703614 123.0 L 90.9 127.0 L 87.7 132.1 L 87.17136926651001 132.8249792098999 L 89.1 133.5 L 91.1 134.5 L 92.9 135.6 L 94.7 137.0 L 96.4 138.5 L 98.0 140.1 L 99.6 141.9 L 101.1 143.9 L 102.4 146.0 L 102.39163589477539 146.3763837814331 L 106.0 138.4 L 109.5 129.1 L 111.45200004577637 123.0 Z M 31.0 110.8 L 31.0 145.9 L 49.6 145.9 L 49.6 110.8 Z M 31.0 74.1 L 31.0 106.8 L 49.6 106.8 L 49.6 74.1 Z M 96.1 69.0 L 96.1 97.0 L 108.3 97.0 L 108.3 69.0 Z M 118.3 69.0 L 118.3 97.0 L 130.9 97.0 L 130.9 69.0 Z M 140.9 69.0 L 140.9 97.0 L 153.0 97.0 L 153.0 69.0 Z M 31.0 37.4 L 31.0 70.1 L 49.6 70.1 L 49.6 37.4 Z M 96.1 37.0 L 96.1 65.0 L 108.3 65.0 L 108.3 37.0 Z M 118.3 37.0 L 118.3 65.0 L 130.9 65.0 L 130.9 37.0 Z M 140.9 37.0 L 140.9 65.0 L 153.0 65.0 L 153.0 37.0 Z " />
</g>
</svg>
