<svg xmlns="http://www.w3.org/2000/svg" xmlns:xlink="http://www.w3.org/1999/xlink" version="1.1" baseProfile="full" viewBox="0 0 200 200" width="200" height="200">
<g fill="black">
<path d="M 32.6 176.0 L 46.6 176.0 L 47.8 175.9 L 48.7 175.7 L 49.6 175.4 L 50.0 175.0 L 50.3 174.1 L 50.5 173.2 L 50.6 172.0 L 50.6 110.63636360168456 L 47.1 117.0 L 42.5 124.6 L 37.4 131.8 L 32.0 138.5 L 26.3 144.8 L 20.1 150.5 L 13.5 155.6 L 12.3 154.3 L 17.3 147.9 L 22.2 141.3 L 26.8 134.6 L 31.1 127.6 L 35.2 120.3 L 38.9 112.7 L 42.3 104.8 L 45.5 96.6 L 48.3 88.1 L 49.66478872299194 83.0 L 13.8 83.0 L 13.8 79.0 L 78.8 79.0 L 79.29285717010498 78.58928575515748 L 79.4 78.3 L 79.55052757263184 78.37456035614014 L 84.8 74.0 L 95.8 83.0 L 90.8 86.0 L 87.60349340438843 87.33187770843506 L 86.5 88.9 L 84.4 91.7 L 82.2 94.5 L 79.9 97.3 L 77.4 100.3 L 74.7 103.3 L 71.8 106.3 L 68.6 109.3 L 65.5 112.5 L 64.0 111.4 L 66.2 107.5 L 68.1 103.6 L 69.9 99.9 L 71.6 96.4 L 73.3 93.1 L 74.8 89.8 L 76.1 86.7 L 77.3 83.8 L 77.61428575515747 83.0 L 62.6 83.0 L 62.6 172.0 L 62.4 174.5 L 62.0 177.0 L 61.2 179.4 L 59.9 181.7 L 58.3 183.7 L 56.3 185.3 L 54.0 186.6 L 51.6 187.4 L 49.1 187.8 L 46.6 188.0 L 46.6 182.0 L 32.6 179.0 Z M 156.9 175.6 L 147.0 170.1 L 138.2 163.6 L 136.0464063644409 161.5568470954895 L 135.9 161.7 L 125.9 169.4 L 115.0 175.9 L 103.2 181.2 L 90.6 185.2 L 77.1 187.9 L 76.7 186.2 L 89.4 181.6 L 101.0 176.3 L 111.7 170.2 L 121.4 163.3 L 129.94622802734375 155.63786458969116 L 123.7 147.9 L 118.2 138.7 L 113.8 128.6 L 110.6 117.7 L 108.9241379737854 106.9 L 97.7 106.9 L 97.7 102.9 L 159.6 102.9 L 165.6 97.9 L 176.6 106.9 L 171.6 109.9 L 169.75489749908448 110.66879272460938 L 166.2 119.8 L 160.1 132.0 L 153.0 143.0 L 144.9 152.9 L 143.21069192886353 154.55176792144775 L 144.4 155.5 L 152.6 160.6 L 161.7 164.8 L 171.6 168.2 L 182.4 170.7 L 191.3 172.7 L 179.5 183.6 L 167.7 180.1 Z M 110.95555553436279 106.9 L 114.6 116.5 L 119.2 126.2 L 124.4 135.0 L 130.4 142.8 L 136.19934425354003 148.7750819206238 L 137.9 146.9 L 144.7 137.3 L 150.6 126.9 L 155.7 115.5 L 158.54354839324952 106.9 Z M 120.0 26.7 L 149.6 26.7 L 155.6 21.7 L 166.6 30.7 L 161.6 34.7 L 161.6 75.3 L 161.7 76.0 L 161.9 76.4 L 162.0 76.7 L 162.2 77.0 L 162.6 77.3 L 163.3 77.7 L 164.3 78.0 L 165.6 78.1 L 179.6 78.1 L 184.6 61.1 L 186.6 61.1 L 184.6 78.1 L 187.6 80.1 L 189.6 83.1 L 187.6 86.1 L 184.6 88.1 L 163.1 88.1 L 160.7 87.8 L 158.4 87.1 L 156.2 86.0 L 154.2 84.5 L 152.5 82.6 L 151.3 80.5 L 150.4 78.1 L 149.8 75.7 L 149.6 73.1 L 149.6 30.7 L 120.0 30.7 L 120.0 52.4 L 119.4 58.5 L 118.1 64.3 L 116.2 69.9 L 113.7 75.3 L 110.6 80.3 L 106.9 85.1 L 102.7 89.5 L 97.9 93.7 L 92.4 97.4 L 86.4 100.7 L 85.4 99.2 L 90.1 94.4 L 94.2 89.8 L 97.8 85.2 L 100.8 80.6 L 103.3 76.0 L 105.3 71.4 L 106.7 66.8 L 107.6 62.1 L 108.0 57.3 L 108.0 20.7 Z M 53.8 67.3 L 51.8 64.0 L 49.6 60.7 L 47.2 57.6 L 44.5 54.5 L 41.6 51.4 L 38.5 48.3 L 35.2 45.2 L 31.5 42.2 L 32.4 40.6 L 36.9 42.4 L 41.3 44.3 L 45.4 46.5 L 49.2 49.0 L 52.9 51.7 L 56.3 54.7 L 57.37341775894165 55.73987340927124 L 57.8 55.1 L 60.4 51.0 L 63.0 47.1 L 65.4 43.4 L 67.8 39.9 L 69.9 36.5 L 72.0 33.3 L 73.8 30.2 L 73.9241379737854 30.0 L 18.3 30.0 L 18.3 26.0 L 76.0 26.0 L 76.53548383712769 25.553763484954835 L 77.1 24.5 L 77.47942476272583 24.767146015167235 L 82.0 21.0 L 93.0 30.0 L 88.0 33.0 L 84.02941179275513 34.65441179275513 L 82.3 36.6 L 79.7 39.3 L 74.0 45.0 L 70.9 48.0 L 67.6 51.1 L 64.0 54.2 L 60.2 57.3 L 59.54663209915161 57.85284976959228 L 62.5 61.2 L 65.3 64.8 L 67.8 68.5 L 68.1 73.1 L 65.2 76.6 L 60.7 77.0 L 57.1 74.1 L 55.6 70.6 Z " />
</g>
</svg>
