<svg xmlns="http://www.w3.org/2000/svg" xmlns:xlink="http://www.w3.org/1999/xlink" version="1.1" baseProfile="full" viewBox="0 0 200 200" width="200" height="200">
<g fill="black">
<path d="M 101.4 109.1 L 171.5 109.1 L 177.5 104.1 L 188.5 113.1 L 183.5 117.1 L 183.5 177.8 L 171.5 183.8 L 171.5 171.8 L 101.4 171.8 L 101.4 183.8 L 89.4 189.8 L 89.4 103.1 Z M 83.6 36.0 L 83.6 40.0 L 56.98613862991333 40.0 L 54.5 49.3 L 51.4 59.2 L 47.9 68.9 L 44.1 78.5 L 41.1957447052002 85.0 L 62.9 85.0 L 68.9 80.0 L 79.9 89.0 L 74.9 93.0 L 74.9 163.0 L 62.9 169.0 L 62.9 157.0 L 42.7 157.0 L 42.7 169.0 L 30.7 175.0 L 30.7 105.28000001907348 L 30.3 106.0 L 24.9 114.8 L 19.0 123.3 L 12.6 131.4 L 11.1 130.5 L 15.7 121.3 L 20.2 112.2 L 24.4 103.0 L 28.4 93.8 L 30.7 88.01891889572144 L 30.7 88.0 L 30.707526874542236 88.0 L 32.1 84.5 L 35.4 75.2 L 38.4 65.7 L 41.1 56.1 L 43.5 46.5 L 44.8 40.0 L 16.4 40.0 L 16.4 36.0 L 61.6 36.0 L 71.6 26.0 Z M 101.4 141.6 L 101.4 167.8 L 171.5 167.8 L 171.5 141.6 Z M 42.7 89.0 L 42.7 153.0 L 62.9 153.0 L 62.9 89.0 Z M 101.4 113.1 L 101.4 137.6 L 171.5 137.6 L 171.5 113.1 Z M 109.1 27.1 L 163.8 27.1 L 169.8 22.1 L 180.8 31.1 L 175.8 35.1 L 175.8 91.9 L 163.8 97.9 L 163.8 87.9 L 109.1 87.9 L 109.1 94.9 L 97.1 100.9 L 97.1 21.1 Z M 109.1 58.7 L 109.1 83.9 L 163.8 83.9 L 163.8 58.7 Z M 109.1 31.1 L 109.1 54.7 L 163.8 54.7 L 163.8 31.1 Z " />
</g>
</svg>
