<svg xmlns="http://www.w3.org/2000/svg" xmlns:xlink="http://www.w3.org/1999/xlink" version="1.1" baseProfile="full" viewBox="0 0 200 200" width="200" height="200">
<g fill="black">
<path d="M 181.7 144.0 L 183.7 144.0 L 181.7 169.0 L 185.3 171.4 L 187.7 175.0 L 185.3 178.6 L 181.7 181.0 L 153.5 181.0 L 150.9 180.8 L 148.4 180.4 L 146.0 179.6 L 143.7 178.3 L 141.7 176.7 L 140.1 174.7 L 138.8 172.4 L 138.0 170.0 L 137.6 167.5 L 137.5 165.0 L 137.5 109.0 L 121.33529415130616 109.0 L 123.4 109.6 L 126.2 111.9 L 122.7436559677124 113.46513690948487 L 121.6 120.2 L 118.8 130.2 L 115.3 139.6 L 110.9 148.5 L 105.6 156.8 L 99.6 164.4 L 92.7 171.3 L 85.1 177.6 L 76.6 183.0 L 67.4 187.7 L 66.5 186.2 L 74.5 179.9 L 81.6 173.5 L 88.1 166.7 L 93.7 159.6 L 98.5 152.1 L 102.6 144.3 L 105.9 136.0 L 108.5 127.2 L 110.4 118.0 L 111.42061853408813 109.0 L 80.5 109.0 L 80.5 105.0 L 124.0 105.0 L 124.0 80.0 L 92.8 80.0 L 92.8 76.0 L 124.0 76.0 L 124.0 51.0 L 86.1 51.0 L 86.1 47.0 L 112.95 47.0 L 112.5 46.9 L 110.0 43.1 L 109.8 40.4 L 109.5 37.8 L 109.1 35.2 L 108.6 32.7 L 107.9 30.2 L 107.0 27.7 L 106.1 25.3 L 104.9 22.9 L 103.7 20.4 L 102.0 18.3 L 103.2 16.9 L 105.5 18.7 L 108.0 20.3 L 110.3 22.1 L 112.5 24.3 L 114.4 26.6 L 116.3 29.1 L 117.9 31.8 L 119.4 34.7 L 120.7 37.7 L 121.8 40.9 L 120.8 45.4 L 118.36800003051758 47.0 L 139.89210529327391 47.0 L 140.8 44.7 L 142.0 40.9 L 143.3 37.2 L 144.6 33.7 L 145.8 30.3 L 147.0 27.1 L 149.2 20.9 L 150.2 18.0 L 150.79830121994019 16.138618373870848 L 150.7 16.1 L 151.01000003814698 15.480000019073486 L 151.1 15.2 L 151.14014873504638 15.219702625274659 L 151.7 14.1 L 161.9 20.5 L 163.8 23.6 L 159.64058170318603 23.952493095397948 L 158.5 25.6 L 156.7 28.3 L 154.7 31.1 L 152.7 34.0 L 150.6 36.9 L 148.3 40.0 L 145.9 43.0 L 143.3 46.1 L 142.6454545021057 47.0 L 157.5 47.0 L 167.5 37.0 L 179.5 47.0 L 179.5 51.0 L 136.0 51.0 L 136.0 76.0 L 151.8 76.0 L 161.8 66.0 L 173.8 76.0 L 173.8 80.0 L 136.0 80.0 L 136.0 105.0 L 165.3 105.0 L 175.3 95.0 L 187.3 105.0 L 187.3 109.0 L 149.5 109.0 L 149.5 166.2 L 149.7 167.1 L 150.0 168.0 L 150.4 168.4 L 151.3 168.7 L 152.2 168.9 L 153.5 169.0 L 175.7 169.0 Z M 80.5 36.0 L 80.5 40.0 L 55.49200000762939 40.0 L 53.1 49.2 L 50.1 59.1 L 46.8 68.9 L 43.1 78.4 L 40.29148931503296 85.0 L 60.5 85.0 L 66.5 80.0 L 77.5 89.0 L 72.5 93.0 L 72.5 161.0 L 60.5 167.0 L 60.5 157.0 L 41.8 157.0 L 41.8 169.0 L 29.8 175.0 L 29.8 106.16730766296386 L 24.7 114.7 L 19.1 123.2 L 13.0 131.4 L 11.4 130.5 L 15.8 121.3 L 20.0 112.2 L 24.0 103.1 L 27.8 93.9 L 29.8 88.42941179275513 L 29.8 88.0 L 29.956989288330078 88.0 L 31.2 84.6 L 34.4 75.2 L 37.3 65.8 L 39.8 56.2 L 42.0 46.5 L 43.3 40.0 L 16.6 40.0 L 16.6 36.0 L 58.5 36.0 L 68.5 26.0 Z M 41.8 89.0 L 41.8 153.0 L 60.5 153.0 L 60.5 89.0 Z " />
</g>
</svg>
