<svg xmlns="http://www.w3.org/2000/svg" xmlns:xlink="http://www.w3.org/1999/xlink" version="1.1" baseProfile="full" viewBox="0 0 200 200" width="200" height="200">
<g fill="black">
<path d="M 147.8 174.0 L 163.8 174.0 L 165.0 173.9 L 165.9 173.7 L 166.8 173.4 L 167.2 173.0 L 167.5 172.1 L 167.7 171.2 L 167.8 170.0 L 167.8 30.0 L 98.2 30.0 L 98.2 181.0 L 86.2 187.0 L 86.2 20.0 L 98.2 26.0 L 167.8 26.0 L 173.8 21.0 L 184.8 30.0 L 179.8 34.0 L 179.8 170.0 L 179.6 172.5 L 179.2 175.0 L 178.4 177.4 L 177.1 179.7 L 175.5 181.7 L 173.5 183.3 L 171.2 184.6 L 168.8 185.4 L 166.3 185.8 L 163.8 186.0 L 163.8 180.0 L 147.8 177.0 Z M 81.3 36.0 L 81.3 40.0 L 55.59405937194824 40.0 L 53.2 49.3 L 50.1 59.2 L 46.8 68.9 L 43.0 78.4 L 40.12127656936646 85.0 L 61.0 85.0 L 67.0 80.0 L 78.0 89.0 L 73.0 93.0 L 73.0 163.0 L 61.0 169.0 L 61.0 157.0 L 41.6 157.0 L 41.6 169.0 L 29.6 175.0 L 29.6 105.81632652282715 L 29.5 106.0 L 24.3 114.8 L 18.5 123.3 L 12.2 131.4 L 10.7 130.5 L 15.2 121.3 L 19.5 112.2 L 23.7 103.0 L 27.5 93.9 L 29.6 88.475 L 29.6 88.0 L 29.78387098312378 88.0 L 31.1 84.6 L 34.3 75.2 L 37.2 65.7 L 39.8 56.2 L 42.1 46.5 L 43.4 40.0 L 16.0 40.0 L 16.0 36.0 L 59.3 36.0 L 69.3 26.0 Z M 41.6 89.0 L 41.6 153.0 L 61.0 153.0 L 61.0 89.0 Z M 124.5 67.6 L 141.5 67.6 L 147.5 62.6 L 158.5 71.6 L 153.5 75.6 L 153.5 133.3 L 141.5 139.3 L 141.5 127.3 L 124.5 127.3 L 124.5 139.3 L 112.5 145.3 L 112.5 61.6 Z M 124.5 71.6 L 124.5 123.3 L 141.5 123.3 L 141.5 71.6 Z " />
</g>
</svg>
