<svg xmlns="http://www.w3.org/2000/svg" xmlns:xlink="http://www.w3.org/1999/xlink" version="1.1" baseProfile="full" viewBox="0 0 200 200" width="200" height="200">
<g fill="black">
<path d="M 168.4 171.9 L 163.2 167.4 L 158.2 162.7 L 153.5 157.7 L 149.1 152.4 L 144.9 146.9 L 141.1 141.0 L 138.0 135.17575759887694 L 138.0 182.5 L 126.0 188.5 L 126.0 142.00909090042114 L 125.1 143.4 L 120.3 149.7 L 115.2 155.7 L 109.7 161.2 L 103.9 166.2 L 97.7 170.8 L 91.1 175.0 L 84.2 178.5 L 76.9 181.4 L 76.1 179.9 L 82.3 175.3 L 88.1 170.6 L 93.6 165.7 L 98.7 160.6 L 103.6 155.3 L 108.1 149.7 L 112.2 143.8 L 116.0 137.6 L 119.5 131.1 L 120.49523811340332 128.9 L 79.7 128.9 L 79.7 124.9 L 126.0 124.9 L 126.0 102.6 L 83.2 102.6 L 83.2 98.6 L 92.2 98.6 L 92.2 25.5 L 83.2 25.5 L 83.2 21.5 L 155.5 21.5 L 165.5 11.5 L 177.5 21.5 L 177.5 25.5 L 104.2 25.5 L 104.2 45.1 L 157.2 45.1 L 163.2 40.1 L 174.2 49.1 L 169.2 53.1 L 169.2 79.3 L 157.2 85.3 L 157.2 75.3 L 104.2 75.3 L 104.2 98.6 L 159.4 98.6 L 169.4 88.6 L 181.4 98.6 L 181.4 102.6 L 128.4 102.6 L 138.0 104.2 L 141.0 106.2 L 138.0 108.0 L 138.0 124.9 L 162.2 124.9 L 172.2 114.9 L 184.2 124.9 L 184.2 128.9 L 138.0 128.9 L 138.0 128.9333333015442 L 141.2 132.4 L 145.9 137.4 L 150.5 142.2 L 155.2 146.8 L 160.0 151.0 L 165.0 155.1 L 170.1 158.8 L 175.3 162.3 L 180.7 165.5 L 186.2 168.4 L 190.8 171.0 L 179.6 179.9 L 173.9 176.0 Z M 80.5 36.0 L 80.5 40.0 L 55.49200000762939 40.0 L 53.1 49.2 L 50.1 59.1 L 46.8 68.9 L 43.1 78.4 L 40.29148931503296 85.0 L 60.5 85.0 L 66.5 80.0 L 77.5 89.0 L 72.5 93.0 L 72.5 163.0 L 60.5 169.0 L 60.5 157.0 L 41.8 157.0 L 41.8 169.0 L 29.8 175.0 L 29.8 106.16730766296386 L 24.7 114.7 L 19.1 123.2 L 13.0 131.4 L 11.4 130.5 L 15.8 121.3 L 20.0 112.2 L 24.0 103.1 L 27.8 93.9 L 29.8 88.42941179275513 L 29.8 88.0 L 29.956989288330078 88.0 L 31.2 84.6 L 34.4 75.2 L 37.3 65.8 L 39.8 56.2 L 42.0 46.5 L 43.3 40.0 L 16.6 40.0 L 16.6 36.0 L 58.5 36.0 L 68.5 26.0 Z M 41.8 89.0 L 41.8 153.0 L 60.5 153.0 L 60.5 89.0 Z M 104.2 49.1 L 104.2 71.3 L 157.2 71.3 L 157.2 49.1 Z " />
</g>
</svg>
