<svg xmlns="http://www.w3.org/2000/svg" xmlns:xlink="http://www.w3.org/1999/xlink" version="1.1" baseProfile="full" viewBox="0 0 200 200" width="200" height="200">
<g fill="black">
<path d="M 99.8 176.0 L 119.8 176.0 L 121.0 175.9 L 121.9 175.7 L 122.8 175.4 L 123.2 175.0 L 123.5 174.1 L 123.7 173.2 L 123.8 172.0 L 123.8 70.0 L 135.8 72.0 L 138.8 74.0 L 135.8 75.8 L 135.8 172.0 L 135.6 174.5 L 135.2 177.0 L 134.4 179.4 L 133.2 181.7 L 131.5 183.7 L 129.5 185.3 L 127.2 186.6 L 124.8 187.4 L 122.3 187.8 L 119.8 188.0 L 119.8 182.0 L 99.8 179.0 Z M 87.4 36.0 L 87.4 40.0 L 59.705940628051756 40.0 L 57.1 49.4 L 53.9 59.3 L 50.4 69.0 L 46.4 78.5 L 43.426595783233644 85.0 L 66.2 85.0 L 72.2 80.0 L 83.2 89.0 L 78.2 93.0 L 78.2 163.0 L 66.2 169.0 L 66.2 157.0 L 44.9 157.0 L 44.9 169.0 L 32.9 175.0 L 32.9 104.86470584869384 L 32.2 106.1 L 26.6 114.8 L 20.6 123.3 L 14.0 131.5 L 12.5 130.4 L 17.4 121.3 L 22.0 112.1 L 26.4 103.0 L 30.5 93.8 L 34.3 84.5 L 37.8 75.1 L 40.9 65.7 L 43.7 56.1 L 46.1 46.4 L 47.47142858505249 40.0 L 18.0 40.0 L 18.0 36.0 L 65.4 36.0 L 75.4 26.0 Z M 115.8 103.2 L 118.3 105.7 L 114.762730884552 106.92196569442748 L 114.1 109.3 L 112.1 115.2 L 109.9 121.1 L 107.5 126.8 L 104.9 132.3 L 102.0 137.8 L 98.8 143.0 L 95.4 148.1 L 91.6 152.9 L 87.5 157.5 L 86.0 156.4 L 88.4 150.9 L 90.7 145.4 L 93.0 140.0 L 95.1 134.5 L 97.0 129.0 L 98.8 123.5 L 100.4 117.9 L 101.8 112.2 L 103.0 106.5 L 103.82700424194336 101.70337553024292 L 103.8 101.7 L 103.94117650985717 101.04117650985718 L 104.0 100.7 L 104.01366529464721 100.70289516448975 L 104.4 98.9 Z M 174.0 140.4 L 173.0 136.1 L 171.8 131.6 L 170.2 127.0 L 168.3 122.2 L 166.0 117.3 L 163.5 112.2 L 160.7 106.9 L 157.7 101.3 L 159.1 100.2 L 163.8 104.6 L 167.9 109.2 L 171.6 113.9 L 174.9 118.6 L 177.8 123.3 L 180.4 128.1 L 182.6 132.9 L 184.4 137.7 L 185.8 142.5 L 186.8 147.3 L 185.5 151.7 L 181.5 153.9 L 177.1 152.6 L 174.9 148.6 L 174.6 144.6 Z M 152.1 140.7 L 151.5 136.5 L 150.7 132.1 L 149.6 127.5 L 148.4 122.8 L 146.9 117.7 L 145.2 112.5 L 143.5 107.0 L 141.6 101.3 L 143.2 100.4 L 146.8 105.3 L 150.1 110.3 L 152.9 115.2 L 155.5 120.0 L 157.7 124.8 L 159.6 129.5 L 161.2 134.1 L 162.6 138.6 L 163.7 143.1 L 164.5 147.5 L 163.0 151.8 L 159.0 153.9 L 154.7 152.5 L 152.5 148.4 L 152.4 144.7 Z M 44.9 89.0 L 44.9 153.0 L 66.2 153.0 L 66.2 89.0 Z M 166.5 73.9 L 161.7 68.8 L 157.1 63.1 L 152.8 57.0 L 148.7 50.3 L 144.8 43.1 L 141.1 35.4 L 138.18013029098512 28.056085300445556 L 133.9 37.2 L 129.1 46.0 L 124.1 54.3 L 118.7 62.0 L 113.1 69.2 L 107.1 75.8 L 100.9 81.8 L 94.2 87.1 L 87.3 91.7 L 86.2 90.2 L 91.7 84.3 L 97.0 78.1 L 102.1 71.6 L 107.0 64.7 L 111.7 57.3 L 116.1 49.6 L 120.2 41.3 L 124.2 32.6 L 127.8 23.5 L 130.93562879562378 14.809828662872315 L 130.9 14.8 L 131.8 12.4 L 142.5 18.0 L 144.7 20.9 L 140.9525468826294 21.610723876953124 L 140.26438360214235 23.216438388824464 L 141.6 25.3 L 146.3 32.6 L 151.0 39.4 L 155.6 45.7 L 160.2 51.4 L 164.9 56.5 L 169.6 61.1 L 174.3 65.1 L 179.0 68.5 L 183.8 71.4 L 187.8 73.9 L 176.7 82.5 L 171.5 78.5 Z " />
</g>
</svg>
