<svg xmlns="http://www.w3.org/2000/svg" xmlns:xlink="http://www.w3.org/1999/xlink" version="1.1" baseProfile="full" viewBox="0 0 200 200" width="200" height="200">
<g fill="black">
<path d="M 96.3 77.6 L 96.3 81.6 L 55.880000019073485 81.6 L 53.9 90.6 L 51.2 100.2 L 48.2 109.3 L 44.7 118.0 L 42.538554191589355 122.6 L 77.0 122.6 L 83.0 117.6 L 94.0 126.6 L 89.0 130.6 L 89.0 177.3 L 77.0 183.3 L 77.0 177.3 L 42.5 177.3 L 42.5 184.3 L 30.5 190.3 L 30.5 143.1 L 26.6 148.2 L 20.9 154.4 L 14.8 160.0 L 13.5 158.7 L 18.0 152.0 L 22.2 145.1 L 26.1 138.0 L 29.8 130.6 L 30.5 128.94545450210572 L 30.5 125.5 L 31.957692337036132 125.5 L 33.1 122.8 L 36.0 114.7 L 38.6 106.2 L 40.9 97.4 L 42.8 88.2 L 43.79767446517944 81.6 L 14.6 81.6 L 14.6 77.6 L 74.3 77.6 L 84.3 67.6 Z M 166.4 181.8 L 163.9 181.4 L 161.5 180.6 L 159.2 179.3 L 157.2 177.7 L 155.6 175.7 L 154.4 173.4 L 153.6 171.0 L 153.1 168.5 L 153.0 166.0 L 153.0 86.0 L 129.3 86.0 L 129.3 113.0 L 128.5 123.6 L 126.8 133.5 L 124.4 142.8 L 121.2 151.4 L 117.2 159.4 L 112.4 166.7 L 106.9 173.2 L 100.6 178.9 L 93.6 183.8 L 85.8 187.7 L 84.9 186.2 L 91.3 180.7 L 96.9 175.0 L 101.9 168.9 L 106.1 162.4 L 109.7 155.5 L 112.5 148.1 L 114.7 140.1 L 116.3 131.6 L 117.1 122.5 L 117.3 112.9 L 117.3 76.0 L 129.3 82.0 L 153.0 82.0 L 159.0 77.0 L 170.0 86.0 L 165.0 90.0 L 165.0 167.2 L 165.2 168.1 L 165.4 168.7 L 165.6 169.0 L 165.7 169.2 L 165.9 169.4 L 166.8 169.7 L 167.7 169.9 L 169.0 170.0 L 177.0 170.0 L 183.0 145.0 L 185.0 145.0 L 183.0 170.0 L 186.6 172.4 L 189.0 176.0 L 186.6 179.6 L 183.0 182.0 L 169.0 182.0 Z M 42.5 126.6 L 42.5 173.3 L 77.0 173.3 L 77.0 126.6 Z M 13.7 71.2 L 11.5 67.2 L 12.7 62.7 L 13.5 62.1 L 14.6 60.7 L 15.6 58.8 L 16.7 56.2 L 17.7 53.1 L 18.6 49.5 L 19.5 45.4 L 20.4 40.8 L 21.2 35.7 L 21.8 30.1 L 23.6 30.1 L 24.2 35.7 L 24.684615421295167 39.3 L 49.5 39.3 L 49.5 11.6 L 61.5 13.6 L 64.5 15.6 L 61.5 17.4 L 61.5 39.3 L 85.6 39.3 L 91.6 34.3 L 102.6 43.3 L 97.6 46.3 L 94.98823528289795 47.38823528289795 L 94.0 49.2 L 92.7 51.5 L 91.3 53.9 L 89.8 56.4 L 88.2 59.0 L 86.4 61.7 L 84.5 64.5 L 82.9 67.5 L 81.2 66.8 L 82.2 63.5 L 82.7 60.2 L 83.2 57.1 L 83.7 54.1 L 84.2 51.3 L 84.7 48.7 L 85.0 46.2 L 85.4 43.8 L 85.44545450210572 43.3 L 25.1 43.3 L 25.3 45.7 L 25.5 50.2 L 25.5 54.2 L 25.3 58.0 L 24.9 61.4 L 24.3 64.5 L 23.4 67.4 L 22.1 70.1 L 18.1 72.3 Z M 101.6 49.0 L 135.2 49.0 L 135.2 14.0 L 147.2 16.0 L 150.2 18.0 L 147.2 19.8 L 147.2 49.0 L 164.1 49.0 L 174.1 39.0 L 186.1 49.0 L 186.1 53.0 L 101.6 53.0 Z " />
</g>
</svg>
