<svg xmlns="http://www.w3.org/2000/svg" xmlns:xlink="http://www.w3.org/1999/xlink" version="1.1" baseProfile="full" viewBox="0 0 200 200" width="200" height="200">
<g fill="black">
<path d="M 76.8 178.8 L 96.9 178.8 L 96.9 91.1 L 108.9 97.1 L 154.0 97.1 L 160.0 92.1 L 171.0 101.1 L 166.0 105.1 L 166.0 178.8 L 167.9181818008423 178.8 L 176.1 169.8 L 186.1 178.8 L 186.1 182.8 L 76.8 182.8 Z M 108.9 154.8 L 108.9 178.8 L 154.0 178.8 L 154.0 154.8 Z M 77.7 36.0 L 77.7 40.0 L 53.77722768783569 40.0 L 51.5 49.2 L 48.6 59.1 L 45.4 68.8 L 41.8 78.4 L 39.03225803375244 85.0 L 58.2 85.0 L 64.2 80.0 L 75.2 89.0 L 70.2 93.0 L 70.2 163.0 L 58.2 169.0 L 58.2 157.0 L 40.6 157.0 L 40.6 169.0 L 28.6 175.0 L 28.6 106.60399999618531 L 24.0 114.7 L 18.5 123.2 L 12.5 131.4 L 11.0 130.5 L 15.2 121.3 L 19.2 112.2 L 23.1 103.1 L 26.7 93.9 L 28.6 88.60303030014038 L 28.6 88.0 L 28.816304302215578 88.0 L 30.0 84.7 L 33.0 75.3 L 35.8 65.8 L 38.2 56.2 L 40.4 46.6 L 41.551162815093996 40.0 L 16.0 40.0 L 16.0 36.0 L 55.7 36.0 L 65.7 26.0 Z M 40.6 89.0 L 40.6 153.0 L 58.2 153.0 L 58.2 89.0 Z M 108.9 128.0 L 108.9 150.8 L 154.0 150.8 L 154.0 128.0 Z M 108.9 101.1 L 108.9 124.0 L 154.0 124.0 L 154.0 101.1 Z M 124.5 49.5 L 127.1 52.0 L 123.42107515335083 53.40468044281006 L 122.4 57.1 L 119.7 64.1 L 116.4 70.6 L 112.5 76.4 L 107.9 81.6 L 102.8 86.1 L 97.1 89.9 L 91.0 93.0 L 84.3 95.3 L 77.1 96.8 L 76.6 95.0 L 82.8 91.8 L 88.4 88.3 L 93.4 84.5 L 97.8 80.5 L 101.5 76.0 L 104.8 71.2 L 107.5 65.9 L 109.7 60.2 L 111.4 54.0 L 112.50585651397705 48.300585651397704 L 112.5 48.3 L 113.0 45.4 Z M 181.0 64.2 L 183.0 64.2 L 181.0 77.2 L 183.7 79.0 L 185.5 81.7 L 183.7 84.4 L 181.0 86.2 L 151.7 86.2 L 149.4 85.9 L 147.1 85.3 L 144.9 84.3 L 142.9 82.9 L 141.3 81.0 L 139.9 78.9 L 139.0 76.6 L 138.4 74.2 L 138.2 71.7 L 138.2 45.5 L 150.2 47.5 L 153.2 49.5 L 150.2 51.3 L 150.2 71.7 L 150.1 72.9 L 150.1 73.9 L 150.2 74.6 L 150.2 75.1 L 150.4 75.4 L 150.6 75.8 L 151.0 76.2 L 151.7 76.6 L 152.8 76.9 L 154.2 77.2 L 176.5 77.2 Z M 76.0 69.4 L 74.3 65.1 L 76.1 60.9 L 77.2 60.2 L 78.5 58.8 L 79.8 56.9 L 81.0 54.4 L 82.2 51.3 L 83.3 47.7 L 84.3 43.6 L 85.3 39.0 L 86.2 33.9 L 86.8 28.3 L 88.6 28.3 L 89.2 33.9 L 89.60754718780518 37.5 L 125.5 37.5 L 125.5 13.2 L 137.5 15.2 L 140.5 17.2 L 137.5 19.0 L 137.5 37.5 L 173.7 37.5 L 179.7 32.5 L 190.7 41.5 L 185.7 44.5 L 182.74615383148193 45.7307692527771 L 182.7 45.8 L 181.3 48.0 L 179.7 50.2 L 178.0 52.6 L 176.2 55.1 L 174.3 57.7 L 172.2 60.3 L 169.9 63.1 L 167.8 66.1 L 166.2 65.2 L 167.6 61.9 L 168.5 58.4 L 169.5 55.2 L 170.4 52.2 L 171.2 49.3 L 172.0 46.6 L 172.7 44.0 L 173.24347829818726 41.5 L 89.98775510787964 41.5 L 90.2 44.1 L 90.2 48.7 L 90.0 52.9 L 89.5 56.8 L 88.8 60.4 L 87.8 63.7 L 86.3 66.8 L 84.4 69.5 L 80.2 71.2 Z " />
</g>
</svg>
