<svg xmlns="http://www.w3.org/2000/svg" xmlns:xlink="http://www.w3.org/1999/xlink" version="1.1" baseProfile="full" viewBox="0 0 200 200" width="200" height="200">
<g fill="black">
<path d="M 126.04963607788086 81.67876901626587 L 133.0 88.4 L 133.1 91.7 L 129.38220863342286 90.1509202003479 L 123.5 92.4 L 120.0 93.6 L 116.4 94.8 L 112.7 96.0 L 109.0 97.0 L 105.2 98.1 L 101.3 99.0 L 99.0 99.46000003814697 L 99.0 132.0 L 110.81818180084228 132.0 L 119.0 123.0 L 129.0 132.0 L 129.0 136.0 L 99.0 136.0 L 99.0 170.4 L 167.9 170.4 L 167.9 136.0 L 137.9 136.0 L 137.9 132.0 L 167.9 132.0 L 167.9 100.0 L 137.2 100.0 L 137.2 96.0 L 167.9 96.0 L 173.9 91.0 L 184.9 100.0 L 179.9 104.0 L 179.9 178.4 L 167.9 184.4 L 167.9 174.4 L 99.0 174.4 L 99.0 181.4 L 87.0 187.4 L 87.0 91.8 L 96.72307691574096 96.6615385055542 L 99.6 94.8 L 102.9 92.7 L 106.3 90.7 L 109.5 88.7 L 112.7 86.8 L 115.8 84.8 L 118.9 82.9 L 123.910733127594 79.61710586547852 L 123.9 79.6 L 123.91487970352173 79.61438913345337 L 124.7 79.1 Z M 80.5 36.0 L 80.5 40.0 L 55.49200000762939 40.0 L 53.1 49.2 L 50.1 59.1 L 46.8 68.9 L 43.1 78.4 L 40.29148931503296 85.0 L 60.5 85.0 L 66.5 80.0 L 77.5 89.0 L 72.5 93.0 L 72.5 163.0 L 60.5 169.0 L 60.5 157.0 L 41.8 157.0 L 41.8 169.0 L 29.8 175.0 L 29.8 106.16730766296386 L 24.7 114.7 L 19.1 123.2 L 13.0 131.4 L 11.4 130.5 L 15.8 121.3 L 20.0 112.2 L 24.0 103.1 L 27.8 93.9 L 29.8 88.42941179275513 L 29.8 88.0 L 29.956989288330078 88.0 L 31.2 84.6 L 34.4 75.2 L 37.3 65.8 L 39.8 56.2 L 42.0 46.5 L 43.3 40.0 L 16.6 40.0 L 16.6 36.0 L 58.5 36.0 L 68.5 26.0 Z M 41.8 89.0 L 41.8 153.0 L 60.5 153.0 L 60.5 89.0 Z M 171.62349290847777 13.318407344818116 L 180.5 21.0 L 180.7 24.1 L 176.6597041130066 22.351215171813966 L 175.1 22.9 L 167.8 25.1 L 160.4 27.2 L 152.9 29.1 L 145.3 30.8 L 137.5 32.4 L 129.7 33.8 L 121.7 35.0 L 113.6 35.9 L 107.78380222320557 36.39650468826294 L 106.17691583633423 36.95161085128784 L 105.5 39.5 L 103.6 45.7 L 101.5 51.7 L 99.3 57.5 L 96.8 63.0 L 94.1 68.3 L 91.2 73.3 L 88.1 78.0 L 84.7 82.4 L 81.0 86.4 L 79.5 85.5 L 81.5 80.5 L 83.4 75.5 L 85.3 70.4 L 87.2 65.2 L 88.9 59.9 L 90.5 54.4 L 91.9 48.8 L 93.2 42.9 L 94.4 36.9 L 95.32211894989014 31.702602195739747 L 95.3 31.7 L 95.8 28.9 L 105.6981328010559 32.54668045043945 L 112.6 30.6 L 120.4 28.5 L 128.0 26.4 L 135.5 24.2 L 142.9 21.9 L 150.1 19.5 L 157.2 17.0 L 164.2 14.4 L 171.0 11.6 Z M 173.5 67.4 L 172.3 63.7 L 170.8 59.8 L 169.2 56.0 L 167.4 52.0 L 165.5 48.0 L 163.3 43.9 L 161.1 39.6 L 158.7 35.3 L 160.1 34.1 L 163.8 37.5 L 167.4 40.9 L 170.6 44.5 L 173.6 48.2 L 176.4 51.9 L 178.9 55.7 L 181.2 59.5 L 183.3 63.4 L 185.2 67.4 L 186.9 71.3 L 186.4 75.9 L 182.9 78.8 L 178.3 78.3 L 175.4 74.8 L 174.5 71.1 Z M 131.2 65.6 L 130.7 62.5 L 130.1 59.5 L 129.4 56.4 L 128.6 53.4 L 127.7 50.4 L 125.5 44.2 L 124.0 41.3 L 125.5 40.2 L 127.8 42.6 L 130.3 45.1 L 132.6 47.7 L 134.6 50.5 L 136.5 53.4 L 138.3 56.5 L 139.8 59.7 L 141.2 63.0 L 142.5 66.5 L 143.5 70.0 L 142.4 74.4 L 138.6 76.9 L 134.2 75.8 L 131.7 72.0 L 131.5 68.8 Z " />
</g>
</svg>
