<svg xmlns="http://www.w3.org/2000/svg" xmlns:xlink="http://www.w3.org/1999/xlink" version="1.1" baseProfile="full" viewBox="0 0 200 200" width="200" height="200">
<g fill="black">
<path d="M 110.4 147.1 L 109.4 153.7 L 107.5 159.9 L 104.6 165.6 L 100.9 170.7 L 96.4 175.3 L 91.1 179.2 L 85.1 182.6 L 78.4 185.4 L 70.9 187.6 L 62.7 189.1 L 62.2 187.4 L 69.6 184.0 L 76.1 180.5 L 81.8 176.9 L 86.6 173.1 L 90.5 169.2 L 93.5 165.1 L 95.8 160.9 L 97.3 156.4 L 98.2 151.7 L 98.4 146.7 L 98.4 121.6 L 110.4 123.6 L 113.4 125.6 L 110.4 127.4 L 110.4 146.9 L 110.26956520080566 147.0956521987915 Z M 183.4 148.3 L 185.4 148.3 L 183.4 173.3 L 187.0 175.7 L 189.4 179.3 L 187.0 182.9 L 183.4 185.3 L 171.0 185.3 L 168.4 185.2 L 165.9 184.7 L 163.5 183.9 L 161.2 182.7 L 159.2 181.1 L 157.6 179.0 L 156.3 176.8 L 155.5 174.4 L 155.1 171.9 L 155.0 169.3 L 155.0 121.6 L 167.0 123.6 L 170.0 125.6 L 167.0 127.4 L 167.0 170.6 L 167.2 171.5 L 167.5 172.4 L 167.7 172.6 L 167.9 172.7 L 168.2 172.9 L 168.8 173.1 L 169.7 173.3 L 177.4 173.3 Z M 138.7 123.6 L 141.7 125.6 L 138.7 127.4 L 138.7 178.8 L 126.7 184.8 L 126.7 121.6 Z M 77.2 36.0 L 77.2 40.0 L 53.47722768783569 40.0 L 51.2 49.2 L 48.3 59.1 L 45.1 68.8 L 41.6 78.4 L 38.83225803375244 85.0 L 57.8 85.0 L 63.8 80.0 L 74.8 89.0 L 69.8 93.0 L 69.8 163.0 L 57.8 169.0 L 57.8 157.0 L 40.4 157.0 L 40.4 169.0 L 28.4 175.0 L 28.4 106.78000001907348 L 23.9 114.7 L 18.4 123.2 L 12.5 131.4 L 10.9 130.5 L 15.1 121.4 L 19.1 112.2 L 22.9 103.1 L 26.5 93.9 L 28.4 88.60303030014038 L 28.4 88.0 L 28.616304302215575 88.0 L 29.8 84.7 L 32.8 75.3 L 35.6 65.8 L 38.0 56.3 L 40.1 46.6 L 41.25116281509399 40.0 L 15.9 40.0 L 15.9 36.0 L 55.2 36.0 L 65.2 26.0 Z M 40.4 89.0 L 40.4 153.0 L 57.8 153.0 L 57.8 89.0 Z M 180.6 108.9 L 178.2 112.5 L 174.6 114.9 L 103.7 114.9 L 101.1 114.7 L 98.6 114.3 L 96.2 113.5 L 93.9 112.2 L 91.9 110.6 L 90.3 108.6 L 89.1 106.3 L 88.3 103.9 L 87.8 101.4 L 87.7 98.9 L 87.7 66.0 L 99.7 72.0 L 126.7 72.0 L 126.7 46.3 L 138.7 48.3 L 141.7 50.3 L 138.7 52.1 L 138.7 72.0 L 162.4 72.0 L 172.4 62.0 L 184.4 72.0 L 184.4 76.0 L 99.7 76.0 L 99.7 100.1 L 99.9 101.0 L 100.1 101.6 L 100.3 101.9 L 100.4 102.1 L 100.6 102.3 L 101.5 102.6 L 102.4 102.8 L 103.7 102.9 L 174.6 102.9 L 178.2 105.3 Z M 162.9 14.3 L 165.9 16.3 L 162.9 18.1 L 162.9 33.6 L 167.71818180084227 33.6 L 175.9 24.6 L 185.9 33.6 L 185.9 37.6 L 162.9 37.6 L 162.9 54.8 L 150.9 60.8 L 150.9 37.6 L 114.5 37.6 L 114.5 54.8 L 102.5 60.8 L 102.5 37.6 L 79.5 37.6 L 79.5 33.6 L 102.5 33.6 L 102.5 12.3 L 114.5 14.3 L 117.5 16.3 L 114.5 18.1 L 114.5 33.6 L 150.9 33.6 L 150.9 12.3 Z " />
</g>
</svg>
