<svg xmlns="http://www.w3.org/2000/svg" xmlns:xlink="http://www.w3.org/1999/xlink" version="1.1" baseProfile="full" viewBox="0 0 200 200" width="200" height="200">
<g fill="black">
<path d="M 159.0 179.0 L 150.5 174.2 L 142.6 168.6 L 135.3 162.2 L 129.44168586730956 155.9919358253479 L 128.7 157.3 L 121.8 165.8 L 113.5 173.0 L 103.9 178.9 L 93.0 183.6 L 80.9 186.9 L 67.6 188.8 L 67.2 187.1 L 79.9 183.2 L 91.0 178.6 L 100.6 173.2 L 108.7 167.1 L 115.5 160.1 L 120.9 152.3 L 122.98184633255005 147.82403049468994 L 122.5 147.2 L 117.1 138.7 L 112.3 129.3 L 108.4 119.2 L 110.0 118.5 L 116.0 127.3 L 122.0 135.4 L 125.98862314224243 140.09628210067748 L 127.8 134.1 L 129.4 123.6 L 129.6741379737854 113.0 L 103.4 113.0 L 103.4 125.0 L 91.4 131.0 L 91.4 48.0 L 103.4 54.0 L 129.7 54.0 L 129.7 32.0 L 82.9 32.0 L 82.9 28.0 L 166.5 28.0 L 176.5 18.0 L 188.5 28.0 L 188.5 32.0 L 141.7 32.0 L 141.7 54.0 L 167.0 54.0 L 173.0 49.0 L 184.0 58.0 L 179.0 62.0 L 179.0 119.0 L 167.0 125.0 L 167.0 113.0 L 141.6224805831909 113.0 L 140.7 124.9 L 138.2 136.8 L 134.2 147.6 L 133.77096128463745 148.3566683769226 L 134.7 149.3 L 141.5 155.2 L 148.6 160.3 L 156.1 164.6 L 164.0 168.3 L 172.2 171.3 L 180.8 173.6 L 189.3 175.7 L 177.5 186.3 L 168.0 183.1 Z M 84.5 66.0 L 84.5 70.0 L 51.5 70.0 L 51.5 183.5 L 41.5 188.5 L 41.5 70.0 L 12.7 70.0 L 12.7 66.0 L 62.5 66.0 L 72.5 56.0 Z M 31.4 88.0 L 34.1 90.0 L 31.4 91.72340421676635 L 31.4 120.0 L 31.0 128.2 L 30.3 135.9 L 29.3 143.0 L 28.0 149.5 L 26.4 155.4 L 24.4 160.6 L 22.2 165.3 L 19.5 169.2 L 16.5 172.3 L 13.2 174.6 L 12.1 173.3 L 13.8 170.2 L 15.3 166.7 L 16.6 162.8 L 17.8 158.5 L 18.8 153.5 L 19.6 148.0 L 20.1 141.9 L 20.4 135.2 L 20.5 127.9 L 20.4 120.0 L 20.4 86.0 Z M 74.3 88.0 L 77.0 90.0 L 74.3 91.72340421676635 L 74.3 155.2 L 63.3 160.7 L 63.3 86.0 Z M 103.4 85.0 L 103.4 109.0 L 129.7 109.0 L 129.7 85.0 Z M 141.7 85.0 L 141.7 109.0 L 167.0 109.0 L 167.0 85.0 Z M 103.4 58.0 L 103.4 81.0 L 129.7 81.0 L 129.7 58.0 Z M 141.7 58.0 L 141.7 81.0 L 167.0 81.0 L 167.0 58.0 Z M 75.4 30.0 L 75.4 34.0 L 20.9 34.0 L 20.9 30.0 L 53.4 30.0 L 63.4 20.0 Z " />
</g>
</svg>
