<svg xmlns="http://www.w3.org/2000/svg" xmlns:xlink="http://www.w3.org/1999/xlink" version="1.1" baseProfile="full" viewBox="0 0 200 200" width="200" height="200">
<g fill="black">
<path d="M 137.0 176.1 L 157.0 176.1 L 158.2 176.0 L 159.1 175.9 L 159.7 175.7 L 160.0 175.5 L 160.2 175.3 L 160.4 175.2 L 160.5 174.8 L 160.7 174.2 L 160.9 173.3 L 161.0 172.1 L 161.0 136.9 L 95.48500003814698 136.9 L 95.4 137.0 L 91.9 140.8 L 88.3 144.6 L 84.7 148.3 L 80.9 151.8 L 77.08873720169068 155.1226393699646 L 80.4 155.0 L 88.6 154.8 L 96.9 154.6 L 105.3 154.5 L 113.8 154.5 L 122.4 154.6 L 128.65061540603637 154.8155385017395 L 127.9 153.8 L 126.0 151.5 L 123.9 149.0 L 121.6 146.4 L 119.2 143.7 L 116.3 141.2 L 117.3 139.7 L 120.7 141.5 L 124.1 143.1 L 127.3 144.7 L 130.3 146.5 L 133.1 148.2 L 135.7 150.0 L 138.1 151.9 L 140.3 153.7 L 142.4 155.7 L 144.3 157.7 L 145.1 162.2 L 142.6 166.0 L 138.1 166.8 L 134.3 164.3 L 133.5 162.4 L 132.4 160.4 L 131.34302673339843 158.69258155822754 L 131.3 158.7 L 122.7 159.9 L 114.2 161.0 L 105.8 162.1 L 97.5 163.1 L 89.3 164.0 L 81.2 165.0 L 73.2 166.0 L 65.3 167.0 L 61.5409236907959 167.43373956680298 L 59.7 170.8 L 57.5 167.9 L 54.4 156.2 L 56.4 156.0 L 64.3 155.6 L 70.41965808868409 155.37051286697388 L 73.0 151.5 L 76.0 147.4 L 81.8 139.2 L 83.33333330154419 136.9 L 38.0 136.9 L 38.0 181.2 L 26.0 187.2 L 26.0 126.9 L 38.0 132.9 L 86.03414630889893 132.9 L 87.4 130.9 L 90.1 126.6 L 92.8 122.4 L 94.91215076446534 118.90682754516601 L 94.9 118.9 L 95.9 117.3 L 105.4 124.8 L 106.7 128.1 L 102.9020185470581 127.90355272293091 L 98.88048782348633 132.9 L 161.0 132.9 L 167.0 127.9 L 178.0 136.9 L 173.0 140.9 L 173.0 172.1 L 172.8 174.6 L 172.4 177.1 L 171.6 179.5 L 170.3 181.8 L 168.7 183.8 L 166.7 185.5 L 164.4 186.7 L 162.0 187.5 L 159.5 187.9 L 157.0 188.1 L 157.0 182.1 L 137.0 179.1 Z M 48.3 59.0 L 149.7 59.0 L 155.7 54.0 L 166.7 63.0 L 161.7 67.0 L 161.7 116.9 L 149.7 122.9 L 149.7 114.9 L 48.3 114.9 L 48.3 117.9 L 36.3 123.9 L 36.3 53.0 Z M 48.3 63.0 L 48.3 110.9 L 149.7 110.9 L 149.7 63.0 Z M 120.3 101.1 L 114.7 97.7 L 108.7 94.4 L 107.17210178375244 93.62429780960083 L 100.0 97.3 L 91.3 101.0 L 82.0 104.1 L 72.0 106.8 L 61.4 108.8 L 50.1 110.3 L 49.8 108.5 L 60.5 105.2 L 70.5 101.7 L 79.7 98.0 L 88.2 94.0 L 96.0 89.8 L 97.43531713485717 88.89029197692871 L 95.3 87.9 L 88.0 84.6 L 80.3 81.4 L 72.2 78.1 L 63.7 74.7 L 64.2 73.0 L 73.3 74.5 L 81.9 76.3 L 90.2 78.4 L 98.0 80.8 L 105.5 83.3 L 105.62446212768555 83.34557771682739 L 109.3 80.5 L 114.9 75.4 L 119.7 70.1 L 123.9 64.5 L 123.91813936233521 64.51327724456787 L 124.4 63.9 L 133.6 71.6 L 134.8 74.9 L 130.97090339660645 74.56990547180176 L 128.2 77.7 L 122.1 83.4 L 116.5625 87.61511192321777 L 119.3 88.8 L 125.6 91.7 L 131.5 94.9 L 137.1 98.2 L 139.5 102.0 L 138.6 106.5 L 134.7 108.9 L 130.2 108.0 L 125.5 104.5 Z M 147.4 48.3 L 146.1 46.6 L 144.6 44.9 L 141.1 41.4 L 139.0 39.6 L 136.7 37.8 L 134.3 35.9 L 131.5 34.4 L 131.72073431015014 33.86393089294434 L 131.4 34.0 L 130.5 32.4 L 133.4 30.3 L 136.0 28.0 L 138.5 25.8 L 140.8 23.8 L 142.9 21.7 L 144.9 19.8 L 146.8 18.0 L 148.4 16.2 L 149.9 14.4 L 150.61970863342285 13.514204788208009 L 150.5 13.4 L 151.4 12.6 L 159.2 21.7 L 159.7 25.3 L 155.3450090408325 23.977949142456055 L 154.8 24.3 L 152.3 25.6 L 149.8 26.8 L 147.1 28.1 L 144.2 29.3 L 141.2 30.4 L 138.1 31.6 L 134.7 32.6 L 133.54432287216187 33.09028730392456 L 135.3 33.6 L 138.4 34.3 L 141.4 35.0 L 144.2 35.9 L 146.9 36.9 L 149.5 38.0 L 151.9 39.2 L 154.2 40.5 L 156.4 42.0 L 158.5 43.5 L 159.9 47.9 L 157.9 52.0 L 153.6 53.4 L 149.5 51.5 L 148.6 49.9 Z M 53.4 48.3 L 52.1 46.6 L 50.6 44.9 L 47.1 41.4 L 45.0 39.6 L 42.7 37.8 L 40.3 35.9 L 37.5 34.4 L 37.72073431015015 33.86393089294434 L 37.4 34.0 L 36.5 32.4 L 39.4 30.3 L 42.0 28.0 L 44.5 25.8 L 46.8 23.8 L 48.9 21.7 L 50.9 19.8 L 52.8 18.0 L 54.4 16.2 L 55.9 14.4 L 56.61970863342285 13.514204788208009 L 56.5 13.4 L 57.4 12.6 L 65.2 21.7 L 65.7 25.3 L 61.34500904083252 23.977949142456055 L 60.8 24.3 L 58.3 25.6 L 55.8 26.8 L 53.1 28.1 L 50.2 29.3 L 47.2 30.4 L 44.1 31.6 L 40.7 32.6 L 39.544322872161864 33.09028730392456 L 41.3 33.6 L 44.4 34.3 L 47.4 35.0 L 50.2 35.9 L 52.9 36.9 L 55.5 38.0 L 57.9 39.2 L 60.2 40.5 L 62.4 42.0 L 64.5 43.5 L 65.9 47.9 L 63.9 52.0 L 59.6 53.4 L 55.5 51.5 L 54.6 49.9 Z M 100.4 48.3 L 99.1 46.6 L 97.6 44.9 L 94.1 41.4 L 92.0 39.6 L 89.7 37.8 L 87.3 35.9 L 84.5 34.4 L 84.72073431015015 33.86393089294434 L 84.4 34.0 L 83.5 32.4 L 86.4 30.3 L 89.0 28.0 L 91.5 25.8 L 93.8 23.8 L 95.9 21.7 L 97.9 19.8 L 99.8 18.0 L 101.4 16.2 L 102.9 14.4 L 103.61970863342285 13.514204788208009 L 103.5 13.4 L 104.4 12.6 L 112.2 21.7 L 112.7 25.3 L 108.34500904083252 23.977949142456055 L 107.8 24.3 L 105.3 25.6 L 102.8 26.8 L 100.1 28.1 L 97.2 29.3 L 94.2 30.4 L 91.1 31.6 L 87.7 32.6 L 86.54432287216187 33.09028730392456 L 88.3 33.6 L 91.4 34.3 L 94.4 35.0 L 97.2 35.9 L 99.9 36.9 L 102.5 38.0 L 104.9 39.2 L 107.2 40.5 L 109.4 42.0 L 111.5 43.5 L 112.9 47.9 L 110.9 52.0 L 106.6 53.4 L 102.5 51.5 L 101.6 49.9 Z " />
</g>
</svg>
