<svg xmlns="http://www.w3.org/2000/svg" xmlns:xlink="http://www.w3.org/1999/xlink" version="1.1" baseProfile="full" viewBox="0 0 200 200" width="200" height="200">
<g fill="black">
<path d="M 161.3 176.0 L 152.7 172.7 L 144.6 169.2 L 137.1 165.5 L 130.0 161.4 L 123.5 157.1 L 117.6 152.6 L 112.4 147.6 L 109.0 143.59555559158326 L 109.0 181.3 L 97.0 187.3 L 97.0 150.98636360168456 L 91.7 154.6 L 84.6 158.8 L 76.9 162.7 L 68.6 166.3 L 59.6 169.6 L 50.1 172.6 L 40.0 175.2 L 29.2 177.5 L 17.8 179.3 L 17.4 177.5 L 28.2 173.8 L 38.4 170.1 L 48.0 166.4 L 56.9 162.5 L 65.1 158.6 L 72.6 154.5 L 79.4 150.2 L 85.6 145.8 L 89.0222222328186 143.0 L 20.5 143.0 L 20.5 139.0 L 97.0 139.0 L 97.0 125.96299209594727 L 85.3 126.7 L 72.2 127.3 L 58.6 127.8 L 44.7 128.0 L 30.3 127.8 L 30.1 126.1 L 44.4 124.2 L 58.2 122.4 L 71.7 120.8 L 84.6 119.1 L 97.2 117.5 L 109.3 115.8 L 121.0 114.0 L 132.2 112.2 L 143.0 110.4 L 153.4 108.4 L 153.58941650390625 109.58634538650513 L 164.7 118.8 L 165.1 121.7 L 160.65141582489014 119.4460506439209 L 155.3 120.3 L 144.7 121.6 L 133.7 122.9 L 122.2 124.0 L 110.3 125.0 L 109.0 125.09512195587158 L 109.0 139.0 L 163.4 139.0 L 173.4 129.0 L 185.4 139.0 L 185.4 143.0 L 112.57058820724487 143.0 L 115.0 144.4 L 121.0 147.7 L 127.3 150.9 L 133.9 154.0 L 141.0 157.0 L 148.5 159.8 L 156.4 162.3 L 164.8 164.7 L 173.7 167.0 L 183.0 169.0 L 191.8 171.0 L 180.0 181.8 L 170.4 179.0 Z M 74.8 43.0 L 75.4 46.6 L 71.69555130004883 45.60773696899414 L 69.8 47.2 L 64.6 51.2 L 59.2 55.0 L 53.5 58.7 L 48.9 61.38333330154419 L 53.8 62.2 L 56.8 64.2 L 53.8 66.0 L 53.8 108.5 L 41.8 114.5 L 41.8 65.32580642700195 L 41.3 65.6 L 34.8 68.8 L 28.1 71.7 L 21.0 74.4 L 13.6 76.7 L 12.9 75.1 L 19.3 71.0 L 25.6 66.9 L 31.6 63.0 L 37.4 59.1 L 42.9 55.1 L 48.2 51.1 L 53.1 47.0 L 57.8 42.9 L 62.3 38.7 L 65.717813205719 35.115464210510254 L 65.7 35.1 L 65.92950820922852 34.89344263076782 L 66.4 34.4 L 66.43638610839844 34.43725252151489 L 66.7 34.2 Z M 166.3 88.3 L 160.7 83.8 L 155.6 78.8 L 150.7 73.4 L 146.3 67.6 L 142.2 61.5 L 138.5 54.9 L 136.0 49.17419357299805 L 136.0 104.3 L 124.0 110.3 L 124.0 56.96666669845581 L 119.6 63.2 L 114.3 69.5 L 108.7 75.2 L 102.6 80.5 L 96.2 85.3 L 89.3 89.5 L 82.1 93.1 L 74.4 96.0 L 73.7 94.3 L 80.2 89.8 L 86.3 85.0 L 92.1 80.1 L 97.5 74.9 L 102.5 69.4 L 107.1 63.6 L 111.4 57.4 L 115.2 50.8 L 118.7 43.9 L 119.925 41.1 L 76.7 41.1 L 76.7 37.1 L 124.0 37.1 L 124.0 12.2 L 136.0 14.2 L 139.0 16.2 L 136.0 18.0 L 136.0 37.1 L 161.3 37.1 L 171.3 27.1 L 183.3 37.1 L 183.3 41.1 L 136.0 41.1 L 136.0 41.756521701812744 L 139.0 45.8 L 143.5 51.7 L 148.0 57.2 L 152.7 62.3 L 157.5 67.0 L 162.5 71.3 L 167.6 75.1 L 172.9 78.6 L 178.5 81.6 L 184.2 84.3 L 189.7 87.0 L 178.4 96.1 L 172.2 92.4 Z M 67.3 21.6 L 67.9 25.2 L 64.19411764144897 24.14117650985718 L 62.9 25.2 L 58.3 28.6 L 53.6 31.9 L 48.7 35.0 L 43.7 37.9 L 38.5 40.7 L 33.1 43.3 L 27.6 45.7 L 21.8 47.8 L 15.8 49.6 L 15.1 47.9 L 20.1 44.4 L 25.0 41.0 L 29.8 37.6 L 34.5 34.2 L 39.0 30.8 L 43.4 27.4 L 47.6 23.9 L 51.6 20.3 L 55.4 16.6 L 58.452352905273436 13.547647094726562 L 58.4 13.5 L 59.4 12.6 Z M 154.4 28.0 L 153.4 26.4 L 152.3 24.9 L 151.0 23.2 L 149.6 21.5 L 148.1 19.8 L 146.5 17.9 L 144.8 16.0 L 142.7 14.5 L 143.6 12.9 L 146.0 14.1 L 148.5 14.8 L 150.9 15.6 L 153.2 16.5 L 155.4 17.4 L 157.5 18.4 L 159.5 19.5 L 161.4 20.6 L 163.2 21.7 L 165.0 22.9 L 166.4 27.3 L 164.4 31.4 L 160.1 32.8 L 156.0 30.9 L 155.3 29.5 Z " />
</g>
</svg>
