<svg xmlns="http://www.w3.org/2000/svg" xmlns:xlink="http://www.w3.org/1999/xlink" version="1.1" baseProfile="full" viewBox="0 0 200 200" width="200" height="200">
<g fill="black">
<path d="M 70.3 117.1 L 68.7 114.8 L 66.9 112.5 L 65.0 110.2 L 62.8 107.9 L 60.5 105.7 L 58.0 103.4 L 56.0 101.6307692527771 L 56.0 183.0 L 44.0 189.0 L 44.0 108.16666669845581 L 41.7 114.3 L 37.9 122.8 L 33.9 131.0 L 29.5 138.7 L 24.6 146.1 L 19.4 153.0 L 13.7 159.5 L 12.2 158.4 L 16.2 151.0 L 20.0 143.4 L 23.6 135.7 L 27.0 127.7 L 30.1 119.6 L 32.9 111.2 L 35.4 102.5 L 37.7 93.6 L 39.6 84.3 L 40.66265058517456 78.0 L 13.0 78.0 L 13.0 74.0 L 44.0 74.0 L 44.0 40.422535228729245 L 39.5 41.5 L 31.9 43.2 L 23.8 44.6 L 15.0 45.8 L 14.6 44.1 L 22.8 40.9 L 30.4 38.0 L 37.6 35.3 L 44.3 32.6 L 50.4 30.1 L 56.0 27.6 L 61.1 25.2 L 65.6 22.8 L 69.5 20.5 L 72.04022989273071 18.856321811676025 L 72.0 18.8 L 72.04896297454835 18.850671005249023 L 72.9 18.3 L 75.08988046646118 21.997666931152345 L 80.6 27.7 L 80.8 31.1 L 77.0278597831726 29.53911437988281 L 74.8 30.6 L 70.1 32.5 L 65.0 34.4 L 59.4 36.3 L 56.0 37.28709678649902 L 56.0 74.0 L 62.2 74.0 L 72.2 64.0 L 84.2 74.0 L 84.2 78.0 L 56.0 78.0 L 56.0 98.49428567886352 L 56.6 98.7 L 60.1 99.7 L 63.5 101.0 L 66.7 102.5 L 69.8 104.2 L 72.7 106.0 L 75.4 108.0 L 78.1 110.2 L 80.5 112.6 L 82.9 115.1 L 83.7 119.6 L 81.3 123.4 L 76.8 124.3 L 72.9 121.8 L 71.7 119.4 Z M 166.5 162.1 L 161.5 156.2 L 156.7 149.9 L 152.2 143.2 L 147.9 136.1 L 143.9 128.8 L 140.2 121.0 L 137.3 114.00588235855102 L 137.3 183.0 L 125.3 189.0 L 125.3 122.13061227798462 L 124.5 123.6 L 119.0 132.1 L 112.9 140.3 L 106.3 147.9 L 99.2 155.1 L 91.5 161.9 L 83.3 168.1 L 74.5 173.7 L 65.1 178.7 L 64.2 177.2 L 72.3 170.6 L 79.9 163.9 L 87.1 157.0 L 93.7 149.9 L 99.9 142.5 L 105.4 134.7 L 110.5 126.7 L 115.1 118.4 L 119.1 109.7 L 120.9238805770874 105.0 L 79.0 105.0 L 79.0 101.0 L 125.3 101.0 L 125.3 48.0 L 87.2 48.0 L 87.2 44.0 L 125.3 44.0 L 125.3 13.0 L 137.3 15.0 L 140.3 17.0 L 137.3 18.8 L 137.3 44.0 L 157.5 44.0 L 167.5 34.0 L 179.5 44.0 L 179.5 48.0 L 137.3 48.0 L 137.3 101.0 L 164.6 101.0 L 174.6 91.0 L 186.6 101.0 L 186.6 105.0 L 137.3 105.0 L 137.3 106.1020408630371 L 140.5 111.0 L 145.3 118.1 L 150.1 125.0 L 154.9 131.5 L 159.8 137.7 L 164.7 143.5 L 169.8 148.9 L 175.0 153.9 L 180.3 158.6 L 185.7 162.9 L 188.1 164.9 L 177.3 173.0 L 171.8 167.8 Z M 173.4 60.1 L 175.4 63.1 L 171.53719005584716 63.70991735458374 L 169.6 67.1 L 167.5 70.7 L 165.2 74.3 L 162.7 77.9 L 160.0 81.6 L 157.2 85.3 L 154.2 89.0 L 150.9 92.7 L 147.4 96.5 L 145.9 95.4 L 148.0 90.9 L 150.0 86.4 L 151.9 82.1 L 153.8 78.0 L 155.5 73.9 L 157.1 70.1 L 158.6 66.3 L 160.0 62.6 L 161.2 59.1 L 161.9323944091797 56.60985918045044 L 161.9 56.6 L 162.04210529327392 56.23684206008911 L 162.2 55.7 L 162.2452220916748 55.71776580810547 L 162.8 54.3 Z M 102.6 81.6 L 101.6 78.2 L 100.5 74.9 L 99.2 71.7 L 97.7 68.5 L 96.2 65.4 L 92.6 59.2 L 90.4 56.3 L 91.6 55.0 L 94.7 57.1 L 97.8 59.3 L 100.7 61.9 L 103.4 64.6 L 105.9 67.6 L 108.3 70.8 L 110.4 74.2 L 112.4 77.8 L 114.2 81.5 L 115.7 85.4 L 115.1 90.0 L 111.6 92.8 L 107.1 92.2 L 104.2 88.7 L 103.5 85.1 Z " />
</g>
</svg>
