<svg xmlns="http://www.w3.org/2000/svg" xmlns:xlink="http://www.w3.org/1999/xlink" version="1.1" baseProfile="full" viewBox="0 0 200 200" width="200" height="200">
<g fill="black">
<path d="M 78.5 67.0 L 78.5 71.0 L 48.3 71.0 L 48.3 184.5 L 38.3 189.5 L 38.3 71.0 L 11.9 71.0 L 11.9 67.0 L 56.5 67.0 L 66.5 57.0 Z M 107.3 122.2 L 157.6 122.2 L 163.6 117.2 L 174.6 126.2 L 169.6 130.2 L 169.6 152.1 L 157.88607597351074 157.95696201324463 L 163.4 161.8 L 165.0 165.0 L 160.6945945739746 165.07297296524047 L 159.9 166.0 L 157.9 168.1 L 155.9 170.3 L 151.5 174.7 L 149.0 177.0 L 146.4 179.3 L 143.72727270126342 181.4 L 166.1 181.4 L 176.1 171.4 L 188.1 181.4 L 188.1 185.4 L 76.8 185.4 L 76.8 181.4 L 140.56774196624755 181.4 L 141.6 179.8 L 143.2 176.7 L 144.7 173.7 L 146.2 170.8 L 148.9 165.4 L 150.1 162.8 L 151.1 160.4 L 152.1 158.1 L 152.5609938621521 156.77464265823363 L 152.4 156.7 L 152.83394498825072 155.9899082183838 L 152.9 155.8 L 152.93705883026124 155.82117643356324 L 153.5 154.9 L 157.6 157.75757579803468 L 157.6 152.1 L 107.3 152.1 L 95.3 158.1 L 95.3 116.2 Z M 110.6 174.3 L 109.9 172.5 L 109.1 170.6 L 108.2 168.7 L 107.1 166.7 L 105.8 164.7 L 104.3 162.7 L 102.7 160.5 L 100.7 158.7 L 101.7 157.2 L 104.1 158.6 L 106.7 159.7 L 109.2 160.9 L 111.5 162.3 L 113.6 163.8 L 115.7 165.4 L 117.6 167.2 L 119.3 169.0 L 121.0 171.0 L 122.4 173.1 L 122.4 177.7 L 119.2 181.0 L 114.6 181.0 L 111.3 177.8 L 111.0 176.1 Z M 29.6 89.0 L 32.4 91.0 L 29.6 92.75 L 29.6 121.0 L 29.2 129.2 L 28.6 136.9 L 27.6 144.0 L 26.4 150.4 L 24.9 156.3 L 23.1 161.6 L 20.9 166.2 L 18.5 170.1 L 15.6 173.3 L 12.5 175.5 L 11.3 174.4 L 12.8 171.2 L 14.1 167.8 L 15.3 163.9 L 16.4 159.5 L 17.3 154.6 L 18.0 149.1 L 18.5 142.9 L 18.7 136.2 L 18.8 128.9 L 18.6 121.0 L 18.6 87.0 Z M 68.9 89.0 L 71.4 91.0 L 68.9 92.66666669845581 L 68.9 156.5 L 58.9 161.5 L 58.9 87.0 Z M 107.3 126.2 L 107.3 148.1 L 157.6 148.1 L 157.6 126.2 Z M 183.5 107.6 L 183.5 111.6 L 81.4 111.6 L 81.4 107.6 L 165.3181818008423 107.6 L 173.5 98.6 Z M 183.0 17.0 L 186.0 19.0 L 183.0 20.8 L 183.0 92.9 L 171.0 98.9 L 171.0 92.9 L 93.4 92.9 L 82.4 98.4 L 82.4 15.0 L 93.4 17.0 L 96.2 19.0 L 93.4 20.75 L 93.4 88.9 L 171.0 88.9 L 171.0 15.0 Z M 118.5 16.8 L 121.5 18.8 L 118.5 20.6 L 118.5 27.8 L 118.7 27.8 L 123.2 21.8 L 129.2 27.8 L 129.2 31.8 L 118.5 31.8 L 118.5 44.06666669845581 L 122.3 39.0 L 128.3 45.0 L 128.3 49.0 L 118.5 49.0 L 118.5 62.9 L 121.0 62.9 L 125.5 56.9 L 131.5 62.9 L 131.5 66.9 L 118.5 66.9 L 118.5 79.5 L 106.5 85.5 L 106.5 66.9 L 93.9 66.9 L 93.9 62.9 L 106.5 62.9 L 106.5 49.0 L 96.9 49.0 L 96.9 45.0 L 106.5 45.0 L 106.5 31.8 L 96.0 31.8 L 96.0 27.8 L 106.5 27.8 L 106.5 14.8 Z M 158.1 16.8 L 161.1 18.8 L 158.1 20.6 L 158.1 27.8 L 162.6 21.8 L 168.6 27.8 L 168.6 31.8 L 158.1 31.8 L 158.1 43.8 L 161.7 39.0 L 167.7 45.0 L 167.7 49.0 L 158.1 49.0 L 158.1 62.9 L 160.3 62.9 L 164.8 56.9 L 170.8 62.9 L 170.8 66.9 L 158.1 66.9 L 158.1 79.5 L 146.1 85.5 L 146.1 66.9 L 133.8 66.9 L 133.8 62.9 L 146.1 62.9 L 146.1 49.0 L 136.7 49.0 L 136.7 45.0 L 146.1 45.0 L 146.1 31.8 L 135.8 31.8 L 135.8 27.8 L 146.1 27.8 L 146.1 14.8 Z M 70.0 31.0 L 70.0 35.0 L 19.5 35.0 L 19.5 31.0 L 48.0 31.0 L 58.0 21.0 Z " />
</g>
</svg>
