<svg xmlns="http://www.w3.org/2000/svg" xmlns:xlink="http://www.w3.org/1999/xlink" version="1.1" baseProfile="full" viewBox="0 0 200 200" width="200" height="200">
<g fill="black">
<path d="M 149.0 95.0 L 152.0 97.0 L 149.0 98.8 L 149.0 119.9 L 165.0 119.9 L 175.0 109.9 L 187.0 119.9 L 187.0 123.9 L 149.0 123.9 L 149.0 180.3 L 137.0 186.3 L 137.0 176.3 L 63.0 176.3 L 63.0 183.3 L 51.0 189.3 L 51.0 123.9 L 13.0 123.9 L 13.0 119.9 L 51.0 119.9 L 51.0 93.0 L 63.0 95.0 L 66.0 97.0 L 63.0 98.8 L 63.0 119.9 L 137.0 119.9 L 137.0 93.0 Z M 63.0 149.5 L 63.0 172.3 L 137.0 172.3 L 137.0 149.5 Z M 63.0 123.9 L 63.0 145.5 L 137.0 145.5 L 137.0 123.9 Z M 161.5 94.3 L 154.6 91.1 L 147.6 87.4 L 140.6 83.2 L 133.6 78.5 L 126.6 73.3 L 119.7 67.6 L 112.8 61.3 L 107.0 55.240298461914065 L 107.0 98.0 L 95.0 104.0 L 95.0 60.292063522338864 L 92.1 63.1 L 85.5 68.8 L 78.5 74.2 L 71.0 79.3 L 63.2 84.0 L 55.0 88.4 L 46.4 92.4 L 37.5 96.0 L 28.1 99.2 L 18.3 101.8 L 17.6 100.1 L 26.6 95.6 L 35.2 91.1 L 43.5 86.6 L 51.3 81.8 L 58.7 76.9 L 65.7 71.7 L 72.2 66.3 L 78.4 60.8 L 84.2 55.0 L 22.0 55.0 L 22.0 51.0 L 95.0 51.0 L 95.0 31.57931032180786 L 87.4 32.3 L 75.2 33.3 L 62.4 34.1 L 49.0 34.6 L 35.0 34.8 L 34.9 33.1 L 48.7 30.8 L 61.9 28.7 L 74.5 26.7 L 86.5 24.8 L 97.9 22.8 L 108.6 20.8 L 118.8 18.8 L 128.4 16.7 L 137.3 14.5 L 145.6 12.3 L 145.93649396896362 13.706063938140868 L 156.2 22.2 L 156.5 25.2 L 152.21862888336182 23.11877794265747 L 148.4 24.0 L 139.7 25.7 L 130.4 27.2 L 120.5 28.7 L 110.1 30.0 L 107.0 30.335135173797607 L 107.0 51.0 L 160.0 51.0 L 170.0 41.0 L 182.0 51.0 L 182.0 55.0 L 110.63529415130616 55.0 L 115.4 58.0 L 123.2 62.8 L 130.7 67.3 L 138.0 71.4 L 145.2 75.0 L 152.2 78.2 L 159.0 81.0 L 165.7 83.3 L 172.2 85.1 L 178.5 86.5 L 187.1 88.6 L 175.4 99.4 L 168.5 97.1 Z " />
</g>
</svg>
