<svg xmlns="http://www.w3.org/2000/svg" xmlns:xlink="http://www.w3.org/1999/xlink" version="1.1" baseProfile="full" viewBox="0 0 200 200" width="200" height="200">
<g fill="black">
<path d="M 66.8 117.0 L 65.3 114.7 L 63.6 112.4 L 61.8 110.1 L 59.7 107.9 L 57.5 105.7 L 55.1 103.4 L 53.4 101.83599996566772 L 53.4 183.0 L 41.4 189.0 L 41.4 109.23333330154419 L 39.5 114.3 L 35.9 122.8 L 31.9 130.9 L 27.6 138.7 L 23.0 146.1 L 17.9 153.0 L 12.3 159.5 L 10.9 158.4 L 14.7 151.0 L 18.3 143.4 L 21.8 135.7 L 25.0 127.8 L 28.0 119.6 L 30.7 111.2 L 33.2 102.5 L 35.3 93.6 L 37.2 84.4 L 38.26666669845581 78.0 L 11.6 78.0 L 11.6 74.0 L 41.4 74.0 L 41.4 40.48985509872436 L 37.3 41.5 L 30.0 43.1 L 22.0 44.6 L 13.6 45.8 L 13.1 44.1 L 21.0 40.9 L 28.4 38.0 L 35.4 35.3 L 41.8 32.6 L 47.7 30.1 L 53.1 27.6 L 58.0 25.2 L 62.3 22.8 L 66.1 20.6 L 68.52434635162354 18.93326187133789 L 68.5 18.9 L 68.5288257598877 18.930182266235352 L 69.3 18.4 L 71.6385895729065 22.18628797531128 L 77.0 27.8 L 77.1 31.2 L 73.43418083190917 29.656497192382812 L 71.5 30.6 L 67.0 32.5 L 62.0 34.4 L 56.6 36.3 L 53.4 37.26000003814697 L 53.4 74.0 L 58.5 74.0 L 68.5 64.0 L 80.5 74.0 L 80.5 78.0 L 53.4 78.0 L 53.4 98.53823528289794 L 57.3 99.8 L 60.5 101.1 L 63.7 102.6 L 66.6 104.2 L 69.5 106.1 L 72.2 108.1 L 74.7 110.3 L 77.1 112.6 L 79.4 115.1 L 80.2 119.6 L 77.7 123.5 L 73.2 124.3 L 69.4 121.7 L 68.2 119.4 Z M 141.0 70.6 L 144.0 72.6 L 141.0 74.4 L 141.0 117.1 L 160.3 117.1 L 170.3 107.1 L 182.3 117.1 L 182.3 121.1 L 141.0 121.1 L 141.0 181.8 L 129.0 187.8 L 129.0 121.1 L 87.6 121.1 L 87.6 117.1 L 129.0 117.1 L 129.0 68.6 Z M 169.9 89.7 L 164.4 83.4 L 159.1 76.5 L 154.1 69.0 L 149.3 60.9 L 144.8 52.3 L 140.5 43.0 L 136.6 33.1 L 136.58529415130616 33.054152202606204 L 131.6 44.1 L 126.2 54.7 L 120.4 64.7 L 114.3 74.0 L 107.8 82.6 L 101.1 90.5 L 93.9 97.6 L 86.4 103.9 L 78.6 109.4 L 77.4 108.0 L 83.8 101.2 L 90.0 93.9 L 96.0 86.3 L 101.7 78.1 L 107.1 69.4 L 112.3 60.0 L 117.2 50.2 L 121.8 39.7 L 126.2 28.6 L 130.2 16.8 L 130.2662790298462 16.823255825042725 L 130.8 15.4 L 141.6 20.8 L 143.7 23.7 L 140.10695781707764 24.456429958343506 L 138.58947134017944 28.17272319793701 L 140.4 31.3 L 145.8 40.3 L 151.1 48.7 L 156.4 56.5 L 161.7 63.6 L 167.2 70.2 L 172.6 76.0 L 178.2 81.3 L 183.7 85.9 L 189.4 89.9 L 192.6 92.2 L 181.6 100.6 L 175.6 95.5 Z " />
</g>
</svg>
