<svg xmlns="http://www.w3.org/2000/svg" xmlns:xlink="http://www.w3.org/1999/xlink" version="1.1" baseProfile="full" viewBox="0 0 200 200" width="200" height="200">
<g fill="black">
<path d="M 111.2 116.9 L 111.1 115.8 L 110.9 114.6 L 110.4 113.2 L 109.7 111.7 L 108.9 110.2 L 107.9 108.5 L 106.7 106.7 L 105.0 105.4 L 106.0 103.9 L 107.9 105.1 L 110.0 105.8 L 112.0 106.6 L 113.9 107.5 L 115.6 108.5 L 117.3 109.6 L 118.8 110.8 L 120.1 112.2 L 121.4 113.7 L 122.5 115.4 L 121.9 120.0 L 120.61428575515747 121.0 L 142.16999998092652 121.0 L 143.7 119.2 L 145.0 116.9 L 146.2 114.7 L 147.5 112.6 L 149.7 108.6 L 150.7 106.7 L 152.5 103.1 L 152.89114141464233 102.21993188858032 L 152.7 102.1 L 153.7 100.7 L 162.9 108.5 L 164.1 111.9 L 159.4473913192749 111.41869564056397 L 157.8 112.7 L 154.0 115.5 L 152.0 116.9 L 149.9 118.3 L 145.3 120.9 L 145.16875 121.0 L 163.71818180084227 121.0 L 171.9 112.0 L 181.9 121.0 L 181.9 125.0 L 139.0 125.0 L 139.0 139.8 L 159.21818180084227 139.8 L 167.4 130.8 L 177.4 139.8 L 177.4 143.8 L 139.0 143.8 L 139.0 158.1 L 165.0 158.1 L 175.0 148.1 L 187.0 158.1 L 187.0 162.1 L 139.0 162.1 L 139.0 182.8 L 127.0 188.8 L 127.0 162.1 L 78.9 162.1 L 78.9 158.1 L 127.0 158.1 L 127.0 143.8 L 88.5 143.8 L 88.5 139.8 L 127.0 139.8 L 127.0 125.0 L 84.0 125.0 L 84.0 121.0 L 112.80571432113648 121.0 L 110.9 118.7 L 111.1 117.9 Z M 80.0 66.0 L 80.0 70.0 L 49.1 70.0 L 49.1 183.5 L 39.1 188.5 L 39.1 70.0 L 12.1 70.0 L 12.1 66.0 L 58.0 66.0 L 68.0 56.0 Z M 30.1 88.0 L 32.8 90.0 L 30.1 91.72340421676635 L 30.1 120.0 L 29.7 128.2 L 29.0 135.9 L 28.0 143.0 L 26.8 149.4 L 25.2 155.3 L 23.4 160.6 L 21.2 165.2 L 18.7 169.1 L 15.9 172.3 L 12.7 174.5 L 11.5 173.4 L 13.1 170.2 L 14.4 166.8 L 15.7 162.9 L 16.8 158.5 L 17.7 153.6 L 18.4 148.1 L 18.9 141.9 L 19.2 135.2 L 19.2 127.9 L 19.1 120.0 L 19.1 86.0 Z M 70.6 88.0 L 73.4 90.0 L 70.6 91.75 L 70.6 155.2 L 59.6 160.7 L 59.6 86.0 Z M 175.8 23.4 L 170.8 27.4 L 170.8 35.9 L 174.6777777671814 35.9 L 180.9 28.9 L 188.9 35.9 L 188.9 39.9 L 170.8 39.9 L 170.8 56.3 L 158.8 62.3 L 158.8 56.3 L 117.4037036895752 56.3 L 116.9 57.5 L 112.5 64.9 L 112.10860214233398 65.404301071167 L 116.9 67.8 L 164.7 67.8 L 170.7 62.8 L 181.7 71.8 L 176.7 75.8 L 176.7 101.5 L 164.7 107.5 L 164.7 97.5 L 116.9 97.5 L 104.9 103.5 L 104.9 73.96065578460693 L 101.2 77.6 L 94.3 82.8 L 86.6 87.2 L 78.1 90.7 L 77.3 89.1 L 84.6 83.9 L 91.0 78.6 L 96.6 72.9 L 101.4 66.9 L 105.3 60.5 L 107.21470584869385 56.3 L 90.1 56.3 L 90.1 52.3 L 108.86027393341064 52.3 L 110.8 46.4 L 112.13333330154418 39.9 L 77.1 39.9 L 77.1 35.9 L 112.6602409362793 35.9 L 113.2 30.3 L 113.27752809524536 23.4 L 92.7 23.4 L 92.7 19.4 L 158.8 19.4 L 164.8 14.4 Z M 116.9 71.8 L 116.9 93.5 L 164.7 93.5 L 164.7 71.8 Z M 123.02795696258545 39.9 L 122.9 40.6 L 120.3 49.4 L 119.0827160835266 52.3 L 158.8 52.3 L 158.8 39.9 Z M 125.15858583450317 23.4 L 124.6 31.3 L 123.75913982391357 35.9 L 158.8 35.9 L 158.8 23.4 Z M 71.4 30.0 L 71.4 34.0 L 19.9 34.0 L 19.9 30.0 L 49.4 30.0 L 59.4 20.0 Z " />
</g>
</svg>
