<svg xmlns="http://www.w3.org/2000/svg" xmlns:xlink="http://www.w3.org/1999/xlink" version="1.1" baseProfile="full" viewBox="0 0 200 200" width="200" height="200">
<g fill="black">
<path d="M 156.4 185.0 L 151.2 183.1 L 145.6 181.2 L 139.7 179.4 L 133.4 177.7 L 126.8 176.0 L 119.9 174.4 L 112.7 172.7 L 105.1 170.9 L 105.3 169.1 L 113.1 168.9 L 120.6 169.1 L 127.9 169.5 L 134.8 170.2 L 141.5 171.1 L 147.9 172.2 L 154.0 173.4 L 159.8 174.9 L 165.3 176.5 L 170.6 178.3 L 173.7 181.6 L 173.7 186.1 L 170.4 189.3 L 165.8 189.3 L 161.3 187.1 Z M 77.53883848190307 167.60471868515015 L 86.4 175.2 L 86.6 178.3 L 82.52813806533814 176.53755226135254 L 80.9 177.1 L 75.0 178.8 L 69.0 180.4 L 62.8 181.8 L 56.4 183.2 L 49.8 184.4 L 43.1 185.4 L 36.1 186.3 L 29.0 187.1 L 21.7 187.5 L 14.2 187.6 L 14.0 185.9 L 21.1 183.8 L 28.1 181.8 L 34.9 179.9 L 41.5 178.0 L 47.9 176.1 L 54.1 174.2 L 60.1 172.2 L 65.9 170.1 L 71.5 168.0 L 75.90286283493042 166.20624103546143 L 75.9 166.2 L 75.90585775375366 166.20502090454102 L 76.9 165.8 Z M 103.8 83.4 L 106.8 85.4 L 103.8 87.2 L 103.8 94.2 L 165.51818180084229 94.2 L 173.7 85.2 L 183.7 94.2 L 183.7 98.2 L 103.8 98.2 L 103.8 107.4 L 145.9 107.4 L 151.9 102.4 L 162.9 111.4 L 157.9 115.4 L 157.9 164.2 L 145.9 170.2 L 145.9 164.2 L 54.0 164.2 L 42.0 170.2 L 42.0 101.4 L 54.0 107.4 L 91.8 107.4 L 91.8 81.4 Z M 54.0 146.8 L 54.0 160.2 L 145.9 160.2 L 145.9 146.8 Z M 54.0 128.8 L 54.0 142.8 L 145.9 142.8 L 145.9 128.8 Z M 54.0 111.4 L 54.0 124.8 L 145.9 124.8 L 145.9 111.4 Z M 86.7 61.5 L 84.6 60.2 L 82.2 58.9 L 79.5 57.7 L 76.6 56.4 L 73.5 55.1 L 70.1 53.7 L 66.5 52.2 L 65.6 51.939473724365236 L 65.6 84.9 L 53.6 90.9 L 53.6 53.786486530303954 L 51.5 56.0 L 47.4 59.8 L 42.9 63.3 L 38.1 66.6 L 32.9 69.7 L 27.3 72.5 L 21.4 75.0 L 15.0 77.1 L 14.2 75.5 L 19.6 71.7 L 24.6 67.9 L 29.2 64.2 L 33.5 60.6 L 37.4 56.9 L 40.9 53.1 L 44.0 49.4 L 46.7 45.5 L 48.45526313781738 42.6 L 14.6 42.6 L 14.6 38.6 L 53.6 38.6 L 53.6 27.34285717010498 L 46.1 27.7 L 37.0 28.1 L 27.3 28.2 L 16.9 28.2 L 16.7 26.4 L 26.9 24.5 L 36.5 22.7 L 45.4 21.2 L 53.7 19.8 L 61.3 18.4 L 68.4 17.1 L 74.8 15.8 L 80.5 14.6 L 85.6 13.4 L 89.02043800354004 12.46715326309204 L 89.0 12.4 L 89.06634149551391 12.454634189605713 L 90.0 12.2 L 90.26540575027465 13.442098808288574 L 100.9 22.2 L 101.2 25.1 L 96.85771350860595 23.018081760406496 L 92.5 23.9 L 87.6 24.6 L 82.2 25.2 L 76.2 25.7 L 69.6 26.3 L 65.6 26.577777767181395 L 65.6 38.6 L 79.2 38.6 L 89.2 28.6 L 101.2 38.6 L 101.2 42.6 L 65.6 42.6 L 65.6 49.53000001907348 L 67.0 49.6 L 71.0 49.6 L 74.7 49.7 L 78.2 49.9 L 81.6 50.3 L 84.7 50.7 L 87.7 51.2 L 90.5 51.8 L 93.2 52.5 L 95.7 53.3 L 98.6 56.8 L 98.2 61.4 L 94.7 64.3 L 90.1 63.9 L 88.6 62.7 Z M 172.8 72.6 L 170.7 70.1 L 168.8452935218811 68.17110528945923 L 161.4 69.6 L 151.8 71.2 L 142.6 72.6 L 133.9 73.8 L 125.4 74.9 L 117.4 75.8 L 109.8 76.7 L 102.6 77.5 L 95.7 78.2 L 93.39813966751099 78.45176601409912 L 91.4 81.8 L 89.3 78.9 L 86.7 67.0 L 88.7 66.9 L 95.1 66.9 L 101.9 66.8 L 106.92299613952636 66.7311918258667 L 107.0 66.6 L 109.9 61.8 L 113.1 56.8 L 116.5 51.6 L 120.0 46.1 L 123.6 40.2 L 127.4 34.0 L 131.4 27.5 L 135.4 20.7 L 139.12043418884278 14.41069450378418 L 139.1 14.4 L 139.29174308776857 14.121100902557373 L 139.6 13.6 L 139.63493146896363 13.621917819976806 L 140.2 12.8 L 149.8 20.0 L 151.3 23.3 L 147.591792678833 23.174298095703126 L 145.0 26.9 L 140.3 33.5 L 135.7 39.7 L 131.3 45.5 L 126.9 51.0 L 122.5 56.1 L 118.3 60.9 L 114.1 65.2 L 112.48995084762574 66.65671119689941 L 116.8 66.6 L 124.8 66.4 L 133.3 66.2 L 142.1 66.0 L 151.4 65.9 L 161.0 65.8 L 166.551029586792 65.90992136001587 L 165.4 64.8 L 162.4 62.1 L 159.1 59.2 L 155.5 56.3 L 151.7 53.3 L 147.5 50.2 L 148.3 48.7 L 153.2 50.5 L 157.9 52.2 L 162.3 54.2 L 166.4 56.2 L 170.2 58.3 L 173.8 60.5 L 177.1 62.7 L 180.2 65.0 L 183.0 67.4 L 185.6 69.9 L 186.9 74.3 L 184.7 78.3 L 180.3 79.5 L 176.3 77.4 L 174.7 75.0 Z " />
</g>
</svg>
