<svg xmlns="http://www.w3.org/2000/svg" xmlns:xlink="http://www.w3.org/1999/xlink" version="1.1" baseProfile="full" viewBox="0 0 200 200" width="200" height="200">
<g fill="black">
<path d="M 60.3 116.7 L 59.1 114.4 L 57.6 112.2 L 56.1 109.9 L 54.4 107.7 L 52.5 105.5 L 50.5 103.3 L 49.8 102.5666666984558 L 49.8 183.0 L 37.8 189.0 L 37.8 112.92666664123536 L 37.4 114.1 L 34.2 122.6 L 30.7 130.8 L 26.8 138.5 L 22.6 146.0 L 18.0 152.9 L 13.0 159.4 L 11.5 158.5 L 14.7 151.1 L 17.8 143.5 L 20.8 135.9 L 23.6 127.9 L 26.2 119.8 L 28.5 111.4 L 30.7 102.7 L 32.5 93.7 L 34.1 84.5 L 35.01764707565307 78.0 L 12.2 78.0 L 12.2 74.0 L 37.8 74.0 L 37.8 40.77540979385376 L 35.2 41.5 L 28.6 43.1 L 21.6 44.6 L 14.1 45.8 L 13.5 44.1 L 20.4 40.9 L 26.9 38.0 L 33.0 35.3 L 37.8 33.07142858505249 L 37.8 33.0 L 37.95384616851807 33.0 L 38.6 32.7 L 43.8 30.2 L 48.5 27.7 L 52.7 25.3 L 56.5 23.0 L 59.7 20.8 L 61.714312648773195 19.21732578277588 L 61.7 19.2 L 61.71495323181152 19.21682243347168 L 62.5 18.6 L 67.24418601989746 25.43720932006836 L 69.7 28.2 L 69.8 31.8 L 66.14220180511475 30.242048931121825 L 65.7 30.5 L 61.6 32.4 L 57.1 34.3 L 52.3 36.2 L 49.8 37.04905662536621 L 49.8 74.0 L 54.918181800842284 74.0 L 63.1 65.0 L 73.1 74.0 L 73.1 78.0 L 49.8 78.0 L 49.8 98.93225803375245 L 52.8 99.9 L 55.7 101.2 L 58.6 102.7 L 61.3 104.4 L 63.8 106.3 L 66.3 108.3 L 68.6 110.5 L 70.8 112.8 L 72.8 115.3 L 73.3 119.9 L 70.6 123.5 L 66.1 124.1 L 62.4 121.4 L 61.4 119.0 Z M 145.8 183.7 L 133.7 182.6 L 123.8 180.7 L 115.6 177.9 L 109.0 174.3 L 103.9 169.9 L 100.1 164.9 L 97.4 159.3 L 96.62857141494752 156.68571424484253 L 96.30500001907349 156.84750003814696 L 95.7 157.7 L 93.8 160.9 L 91.7 164.0 L 87.5 169.8 L 83.3 175.2 L 81.2 177.8 L 79.85033979415894 179.40673837661743 L 80.5 183.6 L 77.0 182.7 L 67.5 175.2 L 68.9 173.8 L 71.5 172.0 L 74.0 170.2 L 76.6 168.3 L 82.0 164.3 L 87.6 160.1 L 88.0 159.80666666030885 L 88.0 109.0 L 70.9 109.0 L 70.9 105.0 L 88.0 105.0 L 94.0 100.0 L 105.0 109.0 L 100.0 113.0 L 100.0 155.0 L 99.44545450210572 155.27727270126343 L 101.0 157.2 L 101.8886236190796 158.15877809524537 L 102.5 155.0 L 103.7 148.5 L 104.9 141.6 L 105.9 134.2 L 106.7 126.4 L 107.3 118.2 L 107.8 109.4 L 108.0 100.1 L 108.0 90.4 L 107.9 80.2 L 107.9 20.7 L 119.9 26.7 L 168.1 26.7 L 174.1 21.7 L 185.1 30.7 L 180.1 34.7 L 180.1 58.8 L 169.14976959228517 64.27511520385742 L 169.2 64.3 L 171.3 67.1 L 166.92073173522948 68.09878044128418 L 166.8 68.3 L 162.9 74.3 L 159.9 78.3 L 158.3 80.3 L 156.5 82.3 L 156.23999996185302 82.76000003814697 L 165.4 73.6 L 177.4 83.6 L 177.4 87.6 L 154.7 87.6 L 154.7 107.7 L 156.51818180084229 107.7 L 164.7 98.7 L 174.7 107.7 L 174.7 111.7 L 154.7 111.7 L 154.7 131.2 L 158.4 131.2 L 168.4 121.2 L 180.4 131.2 L 180.4 135.2 L 154.7 135.2 L 154.7 163.1 L 142.7 169.1 L 142.7 135.2 L 117.0 135.2 L 117.0 131.2 L 142.7 131.2 L 142.7 111.7 L 122.7 111.7 L 122.7 107.7 L 142.7 107.7 L 142.7 87.6 L 120.0 87.6 L 120.0 83.6 L 136.27692308425904 83.6 L 135.6 83.4 L 133.3 79.5 L 133.5 78.0 L 133.7 76.4 L 133.8 74.8 L 133.8 71.6 L 133.6 69.8 L 133.4 68.1 L 133.2 66.3 L 132.8 64.4 L 131.9 62.7 L 133.4 61.7 L 134.6 63.2 L 136.2 64.5 L 137.7 65.9 L 139.1 67.4 L 140.3 68.9 L 141.5 70.6 L 142.6 72.3 L 143.6 74.1 L 144.4 76.0 L 145.2 78.0 L 144.0 82.4 L 141.91304349899292 83.6 L 153.66400003433228 83.6 L 154.4 81.3 L 155.2 76.3 L 155.7 73.8 L 156.1 71.5 L 156.5 69.1 L 156.9 66.9 L 157.5 62.5 L 157.65176887512206 61.43761796951294 L 157.5 61.4 L 157.7838709831238 60.51290321350098 L 157.8 60.4 L 157.81802654266357 60.40616703033447 L 158.3 58.9 L 168.1 63.755045890808105 L 168.1 54.8 L 119.9 54.8 L 119.9 80.2 L 119.4 90.7 L 118.7 100.7 L 117.8 110.2 L 116.6 119.2 L 115.1 127.7 L 113.3 135.6 L 111.3 143.1 L 108.9 149.9 L 106.1 156.2 L 103.80139532089234 160.22255811691284 L 104.8 161.3 L 108.7 164.5 L 113.2 167.1 L 118.8 169.2 L 125.9 170.7 L 134.9 171.6 L 146.1 171.9 L 159.8 171.5 L 176.4 170.4 L 187.4 169.6 L 177.3 183.5 L 160.2 184.0 Z M 83.3 73.7 L 82.0 71.3 L 80.7 69.0 L 79.2 66.7 L 76.2 62.3 L 74.5 60.1 L 72.6 58.3 L 73.5 56.7 L 76.0 58.0 L 78.7 59.1 L 81.3 60.5 L 83.8 62.1 L 86.2 63.9 L 88.6 65.9 L 90.9 68.0 L 93.0 70.3 L 95.1 72.8 L 97.2 75.4 L 97.6 79.9 L 94.9 83.6 L 90.3 84.1 L 86.7 81.3 L 84.5 76.1 Z M 119.9 30.7 L 119.9 50.8 L 168.1 50.8 L 168.1 30.7 Z M 89.7 38.3 L 88.5 35.9 L 87.3 33.6 L 86.0 31.2 L 84.6 28.9 L 83.1 26.6 L 81.5 24.3 L 79.5 22.3 L 80.6 20.8 L 83.1 22.3 L 85.8 23.6 L 88.3 25.1 L 90.8 26.9 L 93.1 28.8 L 95.4 30.9 L 97.5 33.1 L 99.5 35.5 L 101.5 38.0 L 103.3 40.6 L 103.5 45.2 L 100.5 48.7 L 95.9 48.9 L 92.5 45.8 L 90.7 40.8 Z " />
</g>
</svg>
