<svg xmlns="http://www.w3.org/2000/svg" xmlns:xlink="http://www.w3.org/1999/xlink" version="1.1" baseProfile="full" viewBox="0 0 200 200" width="200" height="200">
<g fill="black">
<path d="M 78.4 145.6 L 79.7 149.0 L 75.80134439468384 148.79834537506105 L 74.5 150.4 L 70.2 154.9 L 65.4 159.4 L 60.2 163.8 L 54.5 168.0 L 48.3 172.2 L 41.6 176.2 L 34.4 180.1 L 26.6 183.8 L 18.4 187.2 L 17.5 185.7 L 24.8 180.5 L 31.6 175.6 L 37.9 170.8 L 43.8 166.1 L 49.2 161.4 L 54.0 156.8 L 58.4 152.2 L 62.3 147.7 L 65.6 143.3 L 68.4 138.9 L 68.42304143905639 138.91543779373168 L 68.9 138.2 Z M 162.4 176.0 L 158.3 171.9 L 153.9 167.8 L 149.1 163.5 L 144.0 159.2 L 138.5 154.8 L 132.7 150.2 L 126.7 145.5 L 120.4 140.5 L 121.3 138.9 L 128.7 142.3 L 135.6 145.7 L 142.2 149.4 L 148.4 153.0 L 154.2 156.8 L 159.7 160.5 L 164.8 164.3 L 169.7 168.1 L 174.1 171.8 L 178.3 175.7 L 179.8 180.0 L 178.0 184.1 L 173.7 185.7 L 169.5 183.9 L 166.1 180.0 Z M 19.2 124.2 L 94.0 124.2 L 94.0 91.9 L 106.0 93.9 L 109.0 95.9 L 106.0 97.7 L 106.0 124.2 L 158.7 124.2 L 168.7 114.2 L 180.7 124.2 L 180.7 128.2 L 19.2 128.2 Z M 85.5 52.5 L 87.8 55.2 L 84.00497016906738 56.2842942237854 L 82.3 60.6 L 78.3 68.1 L 73.2 74.9 L 67.3 81.0 L 60.5 86.3 L 52.8 90.9 L 44.4 94.8 L 35.1 98.0 L 25.0 100.3 L 14.1 101.8 L 13.8 100.1 L 24.0 96.6 L 33.3 92.9 L 41.6 88.8 L 48.9 84.4 L 55.3 79.6 L 60.8 74.3 L 65.3 68.7 L 69.0 62.7 L 71.8 56.2 L 73.9 49.3 L 73.90709047317505 49.301955986022946 L 74.4 47.7 Z M 127.4 91.8 L 124.9 91.4 L 122.5 90.6 L 120.2 89.3 L 118.2 87.7 L 116.6 85.7 L 115.3 83.4 L 114.5 81.0 L 114.1 78.5 L 114.0 76.0 L 114.0 48.0 L 126.0 50.0 L 129.0 52.0 L 126.0 53.8 L 126.0 77.2 L 126.2 78.1 L 126.5 79.0 L 126.9 79.4 L 127.8 79.7 L 128.7 79.9 L 130.0 80.0 L 172.0 80.0 L 178.0 55.0 L 180.0 55.0 L 178.0 80.0 L 181.6 82.4 L 184.0 86.0 L 181.6 89.6 L 178.0 92.0 L 130.0 92.0 Z M 13.4 72.5 L 12.7 68.0 L 15.2 64.2 L 17.2 63.1 L 19.2 61.5 L 21.1 59.5 L 22.8 56.9 L 24.5 53.8 L 26.0 50.1 L 27.3 45.8 L 28.4 41.0 L 29.4 35.6 L 30.1 29.7 L 31.9 29.7 L 32.7 35.7 L 33.04821424484253 39.6 L 94.0 39.6 L 94.0 14.0 L 106.0 16.0 L 109.0 18.0 L 106.0 19.8 L 106.0 39.6 L 170.0 39.6 L 170.59310340881348 39.10574712753296 L 170.8 38.6 L 171.03542852401733 38.7371428489685 L 176.0 34.6 L 187.0 43.6 L 182.0 46.6 L 178.17931032180786 48.19195404052734 L 177.6 48.9 L 175.6 51.1 L 173.4 53.5 L 171.1 55.9 L 168.6 58.5 L 165.9 61.1 L 162.9 63.9 L 159.8 66.6 L 156.6 69.7 L 155.3 68.6 L 157.6 64.9 L 159.5 61.2 L 161.4 57.7 L 163.2 54.4 L 164.8 51.4 L 166.3 48.5 L 167.7 45.7 L 168.70799999237062 43.6 L 33.24339618682861 43.6 L 33.3 46.6 L 32.9 51.6 L 32.2 56.2 L 31.1 60.5 L 29.5 64.5 L 27.4 68.2 L 24.8 71.5 L 21.7 74.3 L 17.2 75.0 Z " />
</g>
</svg>
