<svg xmlns="http://www.w3.org/2000/svg" xmlns:xlink="http://www.w3.org/1999/xlink" version="1.1" baseProfile="full" viewBox="0 0 200 200" width="200" height="200">
<g fill="black">
<path d="M 21.5 160.3 L 32.9 159.8 L 45.3 159.2 L 51.0 158.90661764144897 L 51.0 89.7 L 20.0 89.7 L 20.0 85.7 L 161.8181818008423 85.7 L 170.0 76.7 L 180.0 85.7 L 180.0 89.7 L 145.0 89.7 L 145.0 154.02425746917726 L 163.5 153.2 L 184.9 152.5 L 185.0 154.2 L 163.9 157.0 L 145.0 159.35074625015258 L 145.0 182.9 L 133.0 188.9 L 133.0 160.69368419647216 L 124.8 161.6 L 106.9 163.6 L 90.0 165.4 L 74.3 167.0 L 59.7 168.5 L 46.2 169.9 L 33.7 171.1 L 26.391013622283936 171.87617559432982 L 24.6 175.1 L 22.4 172.3 L 19.5 160.4 Z M 63.0 137.2 L 63.0 158.27687072753906 L 73.6 157.7 L 89.4 156.9 L 106.2 156.0 L 124.2 155.1 L 133.0 154.63926706314086 L 133.0 137.2 Z M 63.0 113.8 L 63.0 133.2 L 133.0 133.2 L 133.0 113.8 Z M 63.0 89.7 L 63.0 109.8 L 133.0 109.8 L 133.0 89.7 Z M 85.3 42.4 L 87.4 45.3 L 83.43967685699462 46.0642728805542 L 82.0 48.9 L 77.8 54.7 L 72.7 60.0 L 66.8 64.6 L 60.0 68.6 L 52.4 72.0 L 44.1 74.8 L 34.9 77.1 L 24.9 78.7 L 14.1 79.6 L 13.8 77.8 L 24.1 75.0 L 33.5 71.9 L 41.9 68.6 L 49.3 65.1 L 55.7 61.2 L 61.2 57.1 L 65.7 52.8 L 69.3 48.2 L 72.0 43.4 L 73.63616695404053 39.30958271026611 L 73.6 39.3 L 74.5 36.9 Z M 127.5 72.1 L 125.1 71.8 L 122.8 71.1 L 120.6 70.1 L 118.6 68.6 L 116.9 66.7 L 115.6 64.5 L 114.7 62.2 L 114.2 59.7 L 114.0 57.2 L 114.0 37.7 L 126.0 39.7 L 129.0 41.7 L 126.0 43.5 L 126.0 57.2 L 125.9 58.4 L 126.0 59.4 L 126.1 60.0 L 126.2 60.5 L 126.3 60.8 L 126.5 61.1 L 126.9 61.4 L 127.6 61.7 L 128.6 62.0 L 130.0 62.2 L 173.0 62.2 L 178.0 45.2 L 180.0 45.2 L 178.0 62.2 L 181.0 64.2 L 183.0 67.2 L 181.0 70.2 L 178.0 72.2 L 130.0 72.2 Z M 13.3 56.9 L 13.0 52.3 L 16.0 48.8 L 17.9 48.1 L 19.8 47.1 L 21.6 45.8 L 23.2 44.1 L 24.8 41.9 L 26.3 39.3 L 27.5 36.2 L 28.7 32.6 L 29.7 28.6 L 30.1 24.1 L 31.9 24.1 L 32.4 28.7 L 32.667441844940186 31.0 L 94.0 31.0 L 94.0 11.5 L 106.0 13.5 L 109.0 15.5 L 106.0 17.3 L 106.0 31.0 L 170.0 31.0 L 170.68571424484253 30.42857141494751 L 171.2 29.4 L 171.57706727981568 29.685777282714845 L 176.0 26.0 L 187.0 35.0 L 182.0 38.0 L 176.67826089859008 40.21739130020141 L 175.2 41.4 L 173.0 43.1 L 170.7 44.9 L 168.2 46.7 L 165.5 48.6 L 162.7 50.6 L 159.6 52.6 L 156.6 54.9 L 155.3 53.6 L 157.8 50.7 L 159.8 47.7 L 161.7 44.9 L 163.5 42.2 L 165.2 39.7 L 166.7 37.4 L 168.1 35.1 L 168.16000003814696 35.0 L 32.94761905670166 35.0 L 33.0 37.2 L 32.7 41.1 L 31.9 44.8 L 30.8 48.4 L 29.1 51.6 L 27.0 54.6 L 24.4 57.3 L 21.3 59.6 L 16.7 59.8 Z " />
</g>
</svg>
