<svg xmlns="http://www.w3.org/2000/svg" xmlns:xlink="http://www.w3.org/1999/xlink" version="1.1" baseProfile="full" viewBox="0 0 200 200" width="200" height="200">
<g fill="black">
<path d="M 169.2 151.6 L 166.2 144.6 L 163.4 137.1 L 160.9 129.3 L 158.6 121.1 L 156.5 112.5 L 155.1 105.4222222328186 L 155.1 182.0 L 143.1 188.0 L 143.1 118.425 L 140.6 125.3 L 136.6 134.8 L 132.2 143.9 L 127.3 152.7 L 122.0 161.1 L 116.2 169.0 L 109.8 176.5 L 108.4 175.4 L 113.0 167.0 L 117.4 158.4 L 121.5 149.7 L 125.3 140.8 L 128.7 131.6 L 131.8 122.2 L 134.5 112.6 L 136.9 102.6 L 138.9 92.4 L 140.08085107803345 85.0 L 118.1 85.0 L 118.1 81.0 L 143.1 81.0 L 143.1 40.9 L 141.9 41.1 L 135.5 42.0 L 128.7 42.6 L 121.5 42.8 L 121.2 41.1 L 128.0 38.8 L 134.4 36.7 L 140.4 34.8 L 145.9 32.8 L 151.0 30.8 L 155.6 28.8 L 159.8 26.8 L 163.5 24.7 L 166.7 22.6 L 168.64682111740112 21.157910346984863 L 168.6 21.1 L 168.65 21.155555534362794 L 169.4 20.6 L 173.42843599319457 26.464928913116456 L 176.7 30.1 L 176.8 33.7 L 173.03234853744507 32.124436664581296 L 172.3 32.5 L 168.2 34.3 L 163.7 36.0 L 158.8 37.5 L 155.1 38.496153831481934 L 155.1 81.0 L 162.6 81.0 L 172.6 71.0 L 184.6 81.0 L 184.6 85.0 L 155.1 85.0 L 155.1 86.83333330154419 L 157.3 93.1 L 160.4 102.0 L 163.4 110.4 L 166.5 118.5 L 169.6 126.1 L 172.9 133.3 L 176.2 140.0 L 179.7 146.2 L 183.2 152.0 L 186.9 157.4 L 176.8 166.1 L 175.8 164.5 L 172.4 158.3 Z M 71.6 182.3 L 71.6 159.8 L 58.3 159.8 L 58.3 177.3 L 48.3 182.3 L 48.3 159.8 L 35.1 159.8 L 35.1 180.2 L 24.1 185.7 L 24.1 130.9 L 22.5 131.7 L 22.5 97.7202898979187 L 19.1 99.1 L 11.9 101.5 L 11.2 99.8 L 17.4 95.8 L 23.3 91.6 L 29.0 87.4 L 34.3 83.0 L 39.4 78.3 L 44.2 73.4 L 48.7 68.2 L 52.9 62.8 L 56.9 57.1 L 60.07401313781738 52.03873586654663 L 60.0 52.0 L 61.1 50.4 L 70.7 57.6 L 72.1 60.9 L 71.24956007003784 60.88533725738525 L 75.0 64.1 L 79.8 68.0 L 84.6 71.7 L 89.4 75.1 L 94.3 78.2 L 99.3 80.9 L 104.4 83.4 L 109.6 85.6 L 114.8 87.5 L 121.4 90.2 L 109.9 99.8 L 107.28634147644043 98.51609754562378 L 112.4 102.7 L 107.4 106.7 L 107.4 125.7 L 95.4 131.7 L 95.4 125.7 L 34.5 125.7 L 26.0 129.95 L 35.1 134.5 L 94.8 134.5 L 100.3 129.5 L 110.8 138.5 L 105.8 142.0 L 105.8 172.0 L 105.7 174.4 L 105.3 176.8 L 104.7 179.0 L 103.7 181.2 L 102.3 183.1 L 100.5 184.8 L 98.5 186.1 L 96.2 186.9 L 93.9 187.4 L 91.6 187.5 L 91.6 182.0 L 77.6 179.3 Z M 35.1 138.5 L 35.1 155.8 L 48.3 155.8 L 48.3 138.5 Z M 58.3 138.5 L 58.3 155.8 L 71.6 155.8 L 71.6 138.5 Z M 81.6 138.5 L 81.6 155.8 L 94.8 155.8 L 94.8 138.5 Z M 34.5 102.7 L 34.5 121.7 L 46.8 121.7 L 46.8 102.7 Z M 58.8 102.7 L 58.8 121.7 L 71.1 121.7 L 71.1 102.7 Z M 83.1 102.7 L 83.1 121.7 L 95.4 121.7 L 95.4 102.7 Z M 66.1 63.8 L 61.3 69.6 L 56.1 75.0 L 50.7 80.1 L 44.9 84.7 L 38.9 89.0 L 32.6 92.9 L 27.822388076782225 95.36119403839112 L 34.5 98.7 L 95.4 98.7 L 100.24935064315795 94.65887441635132 L 98.8 93.8 L 93.5 90.3 L 88.5 86.5 L 83.7 82.4 L 79.1 78.0 L 74.7 73.2 L 70.6 68.1 L 66.9429518699646 62.66384744644165 Z M 84.8 86.4 L 84.8 90.4 L 43.4 90.4 L 43.4 86.4 L 66.61818180084228 86.4 L 74.8 77.4 Z M 43.5 48.2 L 43.0 46.4 L 42.4 44.5 L 41.5 42.6 L 40.5 40.6 L 39.3 38.6 L 37.9 36.5 L 36.4 34.3 L 35.2235294342041 33.3 L 33.94166669845581 33.3 L 32.6 36.1 L 30.0 40.7 L 27.1 45.1 L 24.0 49.4 L 20.5 53.4 L 16.8 57.1 L 12.6 60.4 L 11.3 59.3 L 13.8 54.7 L 16.2 50.2 L 18.4 45.8 L 20.5 41.4 L 22.4 36.9 L 24.1 32.4 L 25.5 27.8 L 26.8 23.1 L 27.8 18.3 L 28.448979568481445 14.406122493743897 L 28.4 14.4 L 29.0 11.6 L 40.4 15.9 L 42.9 18.5 L 39.23263120651245 19.766909217834474 L 38.8 21.2 L 37.0 26.3 L 35.73999996185303 29.3 L 51.61818180084229 29.3 L 59.8 20.3 L 69.8 29.3 L 69.8 33.3 L 39.69090909957886 33.3 L 40.4 33.6 L 42.8 34.9 L 45.1 36.4 L 47.2 37.9 L 49.2 39.7 L 51.0 41.5 L 52.6 43.5 L 54.1 45.7 L 55.4 48.0 L 55.1 52.5 L 51.6 55.5 L 47.1 55.2 L 44.1 51.7 L 43.9 50.0 Z M 92.1 48.2 L 91.6 46.4 L 91.0 44.5 L 90.1 42.6 L 89.1 40.6 L 87.9 38.6 L 86.5 36.5 L 85.0 34.3 L 83.8235294342041 33.3 L 81.06857147216797 33.3 L 80.0 35.0 L 77.5 38.3 L 74.8 41.4 L 71.9 44.3 L 68.7 46.9 L 65.5 49.4 L 64.2 48.2 L 66.4 44.9 L 68.3 41.4 L 70.0 38.0 L 71.6 34.7 L 73.0 31.2 L 74.2 27.8 L 75.2 24.3 L 76.0 20.8 L 76.7 17.1 L 77.07372016906739 14.409214973449707 L 77.0 14.4 L 77.6 11.6 L 89.0 15.9 L 91.5 18.5 L 87.65912523269654 19.826847648620607 L 87.6 20.0 L 86.0 24.0 L 84.2 27.8 L 83.38918914794922 29.3 L 100.81818180084228 29.3 L 109.0 20.3 L 119.0 29.3 L 119.0 33.3 L 88.29090909957885 33.3 L 89.0 33.6 L 91.4 34.9 L 93.7 36.4 L 95.8 37.9 L 99.6 41.5 L 101.2 43.5 L 102.7 45.7 L 104.0 48.0 L 103.6 52.5 L 100.2 55.5 L 95.7 55.2 L 92.6 51.7 L 92.4 50.0 Z M 93.2 176.3 L 93.6 176.2 L 93.8 176.0 L 94.0 175.9 L 94.2 175.6 L 94.4 175.2 L 94.6 174.4 L 94.8 173.4 L 94.8 159.8 L 81.6 159.8 L 81.6 176.5 L 92.5 176.5 Z " />
</g>
</svg>
