<svg xmlns="http://www.w3.org/2000/svg" xmlns:xlink="http://www.w3.org/1999/xlink" version="1.1" baseProfile="full" viewBox="0 0 200 200" width="200" height="200">
<g fill="black">
<path d="M 58.1 116.6 L 56.9 114.3 L 55.6 112.1 L 54.2 109.8 L 52.6 107.7 L 50.9 105.5 L 49.0 103.3 L 48.7 102.96999998092652 L 48.7 183.0 L 36.7 189.0 L 36.7 114.64193544387817 L 33.8 122.5 L 30.4 130.7 L 26.7 138.5 L 22.7 145.9 L 18.3 152.9 L 13.5 159.4 L 11.9 158.5 L 14.9 151.1 L 17.9 143.6 L 20.7 135.9 L 23.3 128.0 L 25.7 119.9 L 27.9 111.4 L 29.9 102.8 L 31.7 93.8 L 33.2 84.6 L 34.04418601989746 78.0 L 12.7 78.0 L 12.7 74.0 L 36.7 74.0 L 36.7 40.88448276519775 L 34.6 41.5 L 28.3 43.1 L 21.6 44.6 L 14.5 45.8 L 13.9 44.1 L 20.4 41.0 L 26.6 38.0 L 32.3 35.3 L 36.7 33.141509437561034 L 36.7 33.0 L 36.9884614944458 33.0 L 37.6 32.7 L 42.5 30.2 L 46.9 27.8 L 50.9 25.4 L 54.5 23.1 L 57.5 20.8 L 59.323552799224856 19.32713041305542 L 59.3 19.3 L 60.1 18.7 L 67.2 28.4 L 67.4 32.0 L 63.67435512542725 30.413151264190674 L 59.8 32.4 L 55.5 34.3 L 50.9 36.2 L 48.7 36.99200000762939 L 48.7 74.0 L 52.31818180084228 74.0 L 60.5 65.0 L 70.5 74.0 L 70.5 78.0 L 48.7 78.0 L 48.7 99.01379308700561 L 51.3 100.0 L 54.2 101.3 L 56.9 102.8 L 59.4 104.5 L 61.9 106.3 L 64.3 108.4 L 66.5 110.6 L 68.6 112.9 L 70.5 115.4 L 71.0 120.0 L 68.1 123.6 L 63.6 124.0 L 60.0 121.2 L 59.1 118.9 Z M 147.4 185.8 L 144.9 185.4 L 142.5 184.6 L 140.2 183.3 L 138.2 181.7 L 136.5 179.7 L 135.3 177.4 L 134.5 175.0 L 134.1 172.5 L 133.9 170.0 L 133.9 150.4 L 119.3 150.4 L 123.9 152.0 L 126.5 154.4 L 122.70776700973511 155.87475728988647 L 121.9 158.5 L 118.7 164.4 L 114.4 169.7 L 109.2 174.3 L 103.1 178.3 L 96.1 181.6 L 88.2 184.3 L 79.5 186.5 L 69.8 188.0 L 59.3 188.8 L 59.1 187.1 L 69.1 184.3 L 78.0 181.3 L 86.0 178.2 L 92.8 174.8 L 98.5 171.1 L 103.2 167.2 L 106.8 163.2 L 109.4 159.0 L 111.2 154.6 L 111.90836381912231 150.90076665878297 L 111.9 150.9 L 111.98620691299439 150.4 L 101.7 150.4 L 101.7 162.4 L 89.7 168.4 L 89.7 90.8 L 101.7 96.8 L 158.5 96.8 L 164.5 91.8 L 175.5 100.8 L 170.5 104.8 L 170.5 156.4 L 158.5 162.4 L 158.5 150.4 L 145.9 150.4 L 145.9 170.0 L 146.0 171.2 L 146.1 172.1 L 146.3 172.7 L 146.5 173.0 L 146.7 173.2 L 146.8 173.4 L 147.2 173.5 L 147.8 173.7 L 148.7 173.9 L 149.9 174.0 L 176.4 174.0 L 182.4 149.0 L 184.4 149.0 L 182.4 174.0 L 186.0 176.4 L 188.4 180.0 L 186.0 183.6 L 182.4 186.0 L 149.9 186.0 Z M 101.7 133.2 L 101.7 146.4 L 158.5 146.4 L 158.5 133.2 Z M 101.7 117.0 L 101.7 129.2 L 158.5 129.2 L 158.5 117.0 Z M 101.7 100.8 L 101.7 113.0 L 158.5 113.0 L 158.5 100.8 Z M 84.5 97.6 L 74.5 102.6 L 74.5 17.0 L 84.5 22.0 L 104.71818180084229 22.0 L 112.9 13.0 L 122.9 22.0 L 122.9 26.0 L 104.8 26.0 L 104.8 40.4 L 110.6 40.4 L 116.1 35.4 L 126.6 44.4 L 121.6 47.9 L 121.6 65.4 L 110.6 70.9 L 110.6 65.4 L 104.8 65.4 L 104.8 81.6 L 110.1777777671814 81.6 L 116.4 74.6 L 124.4 81.6 L 124.4 85.6 L 84.5 85.6 Z M 131.8 89.2 L 131.8 55.98571424484253 L 129.5 59.6 L 126.5 63.9 L 123.2 67.8 L 121.7 66.9 L 123.1 62.1 L 126.3 52.5 L 127.8 47.6 L 129.3 42.6 L 130.7 37.5 L 132.0 32.3 L 133.2 26.9 L 134.3 21.5 L 135.13830842971802 16.805472660064698 L 135.1 16.8 L 135.7 14.1 L 147.0 18.5 L 149.5 21.1 L 145.87027215957642 22.28791093826294 L 145.3 24.2 L 143.5 29.8 L 142.759259223938 31.8 L 169.61818180084228 31.8 L 177.8 22.8 L 187.8 31.8 L 187.8 35.8 L 141.2735849380493 35.8 L 139.5 40.5 L 137.2 45.6 L 134.8 50.5 L 132.3 55.2 L 132.17931032180786 55.38965520858765 L 140.8 59.7 L 170.4 59.7 L 175.4 54.7 L 185.4 63.7 L 180.4 66.7 L 180.4 86.7 L 170.4 91.7 L 170.4 84.7 L 140.8 84.7 Z M 84.5 65.4 L 84.5 81.6 L 93.8 81.6 L 93.8 65.4 Z M 140.8 63.7 L 140.8 80.7 L 145.3 80.7 L 145.3 63.7 Z M 153.3 63.7 L 153.3 80.7 L 158.4 80.7 L 158.4 63.7 Z M 166.4 63.7 L 166.4 80.7 L 170.4 80.7 L 170.4 63.7 Z M 84.5 61.4 L 110.6 61.4 L 110.6 44.4 L 84.5 44.4 Z M 178.5 46.5 L 178.5 50.5 L 139.9 50.5 L 139.9 46.5 L 160.3181818008423 46.5 L 168.5 37.5 Z M 84.5 26.0 L 84.5 40.4 L 93.8 40.4 L 93.8 26.0 Z " />
</g>
</svg>
