<svg xmlns="http://www.w3.org/2000/svg" xmlns:xlink="http://www.w3.org/1999/xlink" version="1.1" baseProfile="full" viewBox="0 0 200 200" width="200" height="200">
<g fill="black">
<path d="M 95.9 140.5 L 95.9 117.9 L 50.3 117.9 L 50.3 133.5 L 49.67974681854248 140.5 Z M 107.9 117.9 L 107.9 140.5 L 155.4 140.5 L 155.4 117.9 Z M 50.3 91.9 L 50.3 113.9 L 95.9 113.9 L 95.9 91.9 Z M 107.9 91.9 L 107.9 113.9 L 155.4 113.9 L 155.4 91.9 Z M 177.2 55.3 L 179.2 55.3 L 177.2 68.3 L 179.9 70.1 L 181.7 72.8 L 179.9 75.5 L 177.2 77.3 L 127.3 77.3 L 125.0 77.0 L 122.7 76.4 L 120.5 75.4 L 118.5 74.0 L 116.9 72.2 L 115.5 70.0 L 114.6 67.7 L 114.0 65.3 L 113.8 62.8 L 113.8 40.9 L 125.8 42.9 L 128.8 44.9 L 125.8 46.7 L 125.8 62.8 L 125.7 64.0 L 125.7 65.0 L 125.8 65.7 L 125.8 66.2 L 126.0 66.5 L 126.2 66.9 L 126.6 67.3 L 127.3 67.7 L 128.4 68.0 L 129.8 68.3 L 172.7 68.3 Z M 14.2 61.6 L 13.7 57.0 L 16.6 53.4 L 18.5 52.6 L 20.4 51.5 L 22.1 50.0 L 23.8 48.0 L 25.4 45.6 L 26.9 42.6 L 28.2 39.2 L 29.3 35.3 L 30.3 30.9 L 30.8 26.0 L 32.6 25.9 L 33.2 30.9 L 33.4978723526001 33.7 L 94.0 33.7 L 94.0 12.5 L 106.0 14.5 L 109.0 16.5 L 106.0 18.3 L 106.0 33.7 L 169.2 33.7 L 169.8324324607849 33.172972965240476 L 170.2 32.3 L 170.57275743484496 32.55603542327881 L 175.2 28.7 L 186.2 37.7 L 181.2 40.7 L 176.56551723480226 42.631034469604494 L 174.6 44.4 L 172.5 46.3 L 170.2 48.3 L 167.7 50.3 L 165.0 52.4 L 162.1 54.6 L 159.0 56.8 L 156.0 59.3 L 154.7 58.1 L 157.1 55.0 L 159.1 51.8 L 161.0 48.8 L 162.8 46.0 L 164.4 43.3 L 165.9 40.8 L 167.2 38.4 L 167.6 37.7 L 33.74666662216187 37.7 L 33.8 40.1 L 33.5 44.3 L 32.7 48.3 L 31.6 52.0 L 30.0 55.5 L 27.9 58.7 L 25.3 61.6 L 22.3 64.0 L 17.7 64.4 Z M 166.8 176.3 L 166.0 178.7 L 164.8 181.0 L 163.1 183.0 L 161.1 184.6 L 158.9 185.9 L 156.4 186.7 L 154.0 187.1 L 151.4 187.2 L 151.4 181.2 L 131.4 178.2 L 131.4 175.2 L 152.6 175.2 L 153.5 175.0 L 154.1 174.8 L 154.5 174.7 L 154.6 174.5 L 154.8 174.3 L 155.0 174.0 L 155.2 173.4 L 155.3 172.5 L 155.4 171.2 L 155.4 144.5 L 107.9 144.5 L 107.9 174.6 L 95.9 180.6 L 95.9 144.5 L 49.062666702270505 144.5 L 48.3 148.9 L 46.3 155.8 L 43.6 162.2 L 40.2 168.0 L 36.2 173.1 L 31.5 177.6 L 26.2 181.3 L 20.3 184.2 L 13.9 186.3 L 13.2 184.7 L 18.4 180.9 L 23.0 177.0 L 26.9 172.9 L 30.2 168.4 L 32.9 163.7 L 35.1 158.5 L 36.7 153.0 L 37.8 147.0 L 38.3 140.5 L 38.3 82.45824174880981 L 35.6 83.2 L 25.7 85.1 L 15.0 86.2 L 14.7 84.4 L 24.8 81.4 L 34.1 78.1 L 42.3 74.6 L 49.7 70.8 L 56.0 66.7 L 61.4 62.3 L 65.9 57.6 L 69.4 52.6 L 72.2 47.4 L 74.1 41.8 L 74.6 40.3 L 85.5 45.5 L 87.8 48.3 L 83.83583564758301 49.204107666015624 L 82.4 52.4 L 78.3 58.8 L 73.2 64.4 L 67.3 69.5 L 60.6 73.9 L 53.1 77.6 L 44.7 80.7 L 39.020567417144775 82.26028366088867 L 50.3 87.9 L 155.4 87.9 L 161.4 82.9 L 172.4 91.9 L 167.4 95.9 L 167.4 171.2 L 167.3 173.8 Z " />
</g>
</svg>
