<svg xmlns="http://www.w3.org/2000/svg" xmlns:xlink="http://www.w3.org/1999/xlink" version="1.1" baseProfile="full" viewBox="0 0 200 200" width="200" height="200">
<g fill="black">
<path d="M 56.8 116.5 L 55.7 114.2 L 54.5 112.0 L 53.1 109.8 L 51.5 107.6 L 49.9 105.5 L 47.9 103.18421049118042 L 47.9 183.0 L 35.9 189.0 L 35.9 115.13333330154418 L 33.3 122.5 L 29.9 130.7 L 26.3 138.5 L 22.4 145.9 L 18.0 152.9 L 13.3 159.4 L 11.7 158.5 L 14.7 151.1 L 17.5 143.6 L 20.3 135.9 L 22.8 128.0 L 25.2 119.9 L 27.4 111.5 L 29.3 102.8 L 31.0 93.8 L 32.5 84.6 L 33.344186019897464 78.0 L 12.5 78.0 L 12.5 74.0 L 35.9 74.0 L 35.9 40.93333330154419 L 34.0 41.5 L 27.9 43.1 L 21.3 44.6 L 14.2 45.8 L 13.7 44.1 L 20.1 41.0 L 26.1 38.0 L 31.7 35.3 L 35.9 33.2 L 35.9 33.0 L 36.3 33.0 L 36.9 32.7 L 41.6 30.2 L 46.0 27.8 L 49.9 25.4 L 53.3 23.1 L 56.3 20.9 L 58.05154895782471 19.358636951446535 L 58.0 19.3 L 58.4875 18.975 L 58.8 18.7 L 58.83310346603393 18.744597721099854 L 58.9 18.7 L 66.0 28.4 L 66.2 32.0 L 62.52898330688477 30.43641881942749 L 58.7 32.4 L 54.6 34.3 L 50.0 36.2 L 47.9 36.97142858505249 L 47.9 74.0 L 50.918181800842284 74.0 L 59.1 65.0 L 69.1 74.0 L 69.1 78.0 L 47.9 78.0 L 47.9 99.05172414779663 L 50.4 100.0 L 53.2 101.3 L 55.8 102.8 L 58.4 104.5 L 60.8 106.4 L 63.1 108.4 L 65.3 110.6 L 67.4 113.0 L 69.3 115.5 L 69.7 120.0 L 66.8 123.6 L 62.3 124.0 L 58.7 121.2 L 57.8 118.8 Z M 169.7 137.95806455612183 L 169.7 159.0 L 157.7 165.0 L 157.7 157.0 L 129.1 157.0 L 129.1 160.0 L 117.1 166.0 L 117.1 136.65142860412598 L 115.4 138.4 L 111.6 142.0 L 107.5 145.4 L 103.1 148.6 L 101.9 147.3 L 104.9 142.9 L 107.8 138.6 L 110.4 134.5 L 112.9 130.4 L 115.1 126.4 L 117.0 122.5 L 118.8 118.5 L 120.2 114.7 L 121.4 110.9 L 122.15957088470459 108.0136305809021 L 122.1 108.0 L 122.9 105.5 L 133.9 110.7 L 136.1 113.5 L 132.2 114.45789470672608 L 132.0 114.9 L 130.0 119.1 L 127.6 123.1 L 125.00093460083008 126.95046730041504 L 129.1 129.0 L 157.7 129.0 L 161.25495491027831 126.03753757476807 L 159.3 122.5 L 157.6 118.5 L 156.2 114.5 L 155.3 110.4 L 154.65238094329834 107.0 L 137.1 107.0 L 137.1 103.0 L 149.4777777671814 103.0 L 155.7 96.0 L 163.7 103.0 L 163.7 107.0 L 157.1470588684082 107.0 L 158.5 109.0 L 160.9 112.1 L 163.4 115.2 L 165.9 118.2 L 168.5 121.1 L 171.3 123.8 L 174.2 126.5 L 177.2 129.0 L 180.4 131.5 L 183.8 133.8 L 186.4 135.9 L 175.5 144.1 L 172.2 140.7 Z M 129.1 133.0 L 129.1 153.0 L 157.7 153.0 L 157.7 133.0 Z M 113.3 92.7 L 113.9 95.6 L 114.2 98.5 L 114.3 101.4 L 114.2 104.4 L 113.8 107.4 L 113.2 110.4 L 110.0 113.6 L 105.4 113.7 L 102.2555555343628 110.5555555343628 L 99.2 113.0 L 99.2 155.0 L 98.7529411315918 155.2235294342041 L 100.4 157.2 L 104.2 161.2 L 108.3 164.5 L 113.0 167.1 L 118.7 169.2 L 126.1 170.7 L 135.5 171.6 L 147.1 171.9 L 161.4 171.5 L 178.6 170.4 L 189.6 169.7 L 179.4 183.5 L 161.7 184.0 L 146.8 183.7 L 134.4 182.6 L 124.1 180.7 L 115.6 178.0 L 108.8 174.4 L 103.5 170.0 L 99.6 164.9 L 96.8 159.3 L 95.92676057815552 156.63661975860595 L 95.54871797561646 156.8256410598755 L 94.9 157.7 L 92.8 161.0 L 90.7 164.0 L 88.5 167.0 L 84.1 172.6 L 81.9 175.3 L 79.7 177.9 L 78.21493997573853 179.58756818771363 L 78.8 183.8 L 75.3 182.8 L 65.9 175.1 L 67.4 173.8 L 70.0 172.0 L 72.6 170.1 L 75.3 168.2 L 78.1 166.3 L 83.7 162.1 L 87.2 159.65 L 87.2 109.0 L 69.3 109.0 L 69.3 105.0 L 87.2 105.0 L 93.2 100.0 L 102.05860652923585 107.24795083999634 L 102.0 105.9 L 103.2 104.0 L 104.2 102.0 L 105.1 99.9 L 105.8 97.7 L 106.5 95.4 L 107.0 93.0 L 107.3 90.5 L 107.6 87.8 L 107.7 85.0 L 107.3 82.2 L 109.0 81.6 L 110.1 84.4 L 111.4 87.1 L 111.75357141494752 88.0 L 138.0 88.0 L 138.0 77.0 L 124.5 77.0 L 112.5 83.0 L 112.5 28.0 L 124.5 34.0 L 135.2235294342041 34.0 L 135.4 33.7 L 136.0 31.7 L 137.2 27.9 L 137.9 26.1 L 139.1 22.5 L 140.3 19.1 L 140.5485207557678 18.437278079986573 L 140.3 18.3 L 141.4 16.7 L 150.8 24.1 L 152.2 27.4 L 147.31227617263795 27.231457805633546 L 146.7 27.8 L 143.7 30.2 L 142.1 31.4 L 140.5 32.7 L 138.9 33.8 L 138.6 34.0 L 163.7 34.0 L 169.7 29.0 L 180.7 38.0 L 175.7 42.0 L 175.7 77.0 L 163.7 83.0 L 163.7 77.0 L 151.5 77.0 L 153.0 78.0 L 150.0 79.8 L 150.0 88.0 L 171.7 88.0 L 177.7 83.0 L 188.7 92.0 L 183.7 95.0 L 180.76589593887329 96.22254333496093 L 180.2 97.2 L 179.0 99.1 L 177.7 101.0 L 176.4 103.0 L 175.0 105.0 L 171.8 109.0 L 170.5 111.3 L 168.9 110.6 L 169.7 108.1 L 170.0 105.5 L 170.6 100.7 L 170.9 98.4 L 171.2 96.2 L 171.4 94.1 L 171.61000003814698 92.0 L 113.1 92.0 Z M 82.3 73.7 L 80.9 71.3 L 79.5 69.0 L 78.0 66.7 L 76.4 64.5 L 73.0 60.1 L 71.0 58.2 L 71.9 56.7 L 74.5 58.0 L 77.3 59.1 L 79.9 60.5 L 82.5 62.1 L 85.0 63.9 L 87.4 65.8 L 89.7 68.0 L 92.0 70.3 L 94.1 72.7 L 96.2 75.3 L 96.8 79.9 L 94.0 83.5 L 89.5 84.1 L 85.8 81.4 L 84.7 78.7 Z M 124.5 63.0 L 124.5 73.0 L 163.7 73.0 L 163.7 63.0 Z M 124.5 50.0 L 124.5 59.0 L 163.7 59.0 L 163.7 50.0 Z M 89.9 40.9 L 88.8 38.4 L 87.7 36.0 L 86.4 33.6 L 85.0 31.3 L 83.5 28.9 L 81.9 26.6 L 80.2 24.3 L 78.2 22.3 L 79.2 20.8 L 81.8 22.3 L 84.6 23.6 L 87.2 25.1 L 89.7 26.8 L 92.1 28.7 L 94.4 30.8 L 96.6 33.0 L 98.7 35.4 L 100.7 37.9 L 102.6 40.6 L 102.8 45.1 L 99.9 48.6 L 95.3 48.9 L 91.8 45.9 L 90.9 43.4 Z M 124.5 38.0 L 124.5 46.0 L 163.7 46.0 L 163.7 38.0 Z " />
</g>
</svg>
