<svg xmlns="http://www.w3.org/2000/svg" xmlns:xlink="http://www.w3.org/1999/xlink" version="1.1" baseProfile="full" viewBox="0 0 200 200" width="200" height="200">
<g fill="black">
<path d="M 121.5 122.1 L 120.6 131.7 L 118.8 140.7 L 116.2 149.2 L 112.8 157.0 L 108.5 164.2 L 103.5 170.6 L 97.6 176.4 L 91.0 181.3 L 83.6 185.5 L 75.5 188.8 L 74.8 187.1 L 81.6 182.3 L 87.7 177.1 L 93.0 171.7 L 97.5 165.9 L 101.3 159.7 L 104.3 153.1 L 106.7 146.1 L 108.3 138.5 L 109.2 130.5 L 109.5 121.8 L 109.5 114.0 L 81.9 114.0 L 81.9 110.0 L 109.5 110.0 L 109.5 63.0 L 85.7 63.0 L 85.7 59.0 L 142.4875 59.0 L 145.3 50.0 L 147.0 45.4 L 148.7 40.7 L 150.4 36.2 L 152.1 31.6 L 155.3 22.6 L 157.9905511856079 14.52834644317627 L 157.9 14.5 L 158.8 12.3 L 169.4 18.1 L 171.5 21.0 L 167.66042032241822 21.66199645996094 L 167.3 22.4 L 165.1 26.8 L 162.8 31.1 L 160.5 35.5 L 158.0 39.8 L 155.5 44.0 L 152.8 48.3 L 150.1 52.4 L 147.0 56.5 L 145.0 59.0 L 160.7 59.0 L 170.7 49.0 L 182.7 59.0 L 182.7 63.0 L 157.0 63.0 L 157.0 110.0 L 166.4 110.0 L 176.4 100.0 L 188.4 110.0 L 188.4 114.0 L 157.0 114.0 L 157.0 182.0 L 145.0 188.0 L 145.0 114.0 L 121.5 114.0 L 121.5 122.0 L 121.4344262123108 122.09836063385009 Z M 13.5 158.0 L 20.3 155.6 L 27.0 153.1 L 33.9 150.6 L 40.8 148.0 L 47.9 145.5 L 52.12246694564819 143.95374450683593 L 51.2 143.8 L 52.3 133.8 L 53.4 124.4 L 54.5 115.6 L 55.6 107.2 L 56.6 99.4 L 57.5 92.1 L 58.2 85.4 L 58.9 79.1 L 59.5 73.4 L 59.82406396865845 69.10615196228028 L 59.7 69.1 L 60.2 66.1 L 71.8 69.7 L 74.5 72.1 L 70.99175930023193 73.59425067901611 L 70.7 75.0 L 69.5 80.8 L 68.1 87.0 L 66.6 93.8 L 64.9 101.0 L 63.0 108.7 L 60.9 116.8 L 58.6 125.5 L 56.0 134.6 L 53.166973972320555 143.57124891281128 L 55.0 142.9 L 62.2 140.3 L 69.5 137.8 L 77.0 135.4 L 84.6 133.1 L 85.4 134.8 L 78.5 138.9 L 71.7 142.7 L 64.8 146.4 L 58.0 149.9 L 51.2 153.3 L 44.5 156.6 L 37.8 159.8 L 31.2 163.0 L 24.6 166.1 L 21.834207344055176 167.3765196800232 L 21.1 171.1 L 18.1 169.1 L 11.7 158.8 Z M 30.2 120.3 L 29.9 113.9 L 28.9 101.1 L 28.3 94.7 L 27.6 88.4 L 26.2 75.6 L 25.6 69.2 L 27.3 68.7 L 29.9 74.7 L 32.1 80.8 L 34.1 87.1 L 35.8 93.4 L 37.3 99.8 L 38.7 106.2 L 39.8 112.8 L 40.8 119.3 L 41.7 126.0 L 42.4 132.7 L 40.8 136.9 L 36.7 138.9 L 32.4 137.4 L 30.4 133.2 L 30.3 126.8 Z M 121.5 63.0 L 121.5 110.0 L 145.0 110.0 L 145.0 63.0 Z M 14.1 56.0 L 40.9 56.0 L 40.9 17.0 L 52.9 19.0 L 55.9 21.0 L 52.9 22.8 L 52.9 56.0 L 61.3 56.0 L 71.3 46.0 L 83.3 56.0 L 83.3 60.0 L 14.1 60.0 Z M 109.7 44.5 L 108.6 40.8 L 107.3 37.2 L 105.9 33.8 L 104.2 30.4 L 102.3 27.0 L 100.3 23.7 L 98.1 20.4 L 95.6 17.3 L 96.7 15.9 L 100.3 18.1 L 103.8 20.5 L 107.0 23.2 L 110.0 26.3 L 112.7 29.6 L 115.2 33.1 L 117.5 36.8 L 119.6 40.8 L 121.4 45.0 L 123.0 49.4 L 122.2 53.9 L 118.6 56.7 L 114.1 55.9 L 111.3 52.3 L 110.6 48.3 Z " />
</g>
</svg>
