<svg xmlns="http://www.w3.org/2000/svg" xmlns:xlink="http://www.w3.org/1999/xlink" version="1.1" baseProfile="full" viewBox="0 0 200 200" width="200" height="200">
<g fill="black">
<path d="M 56.1 141.0 L 51.8 143.4 L 47.4 145.6 L 38.4 150.0 L 33.9 152.1 L 29.3 154.2 L 24.6 156.2 L 23.786538505554198 156.5634614944458 L 22.8 160.4 L 19.9 158.3 L 14.0 147.6 L 15.9 147.0 L 20.7 145.5 L 25.6 144.1 L 35.2 141.3 L 39.9 139.9 L 44.7 138.6 L 49.4 137.3 L 54.1 136.1 L 58.8 135.0 L 60.0 134.775 L 60.0 79.0 L 72.0 81.0 L 75.0 83.0 L 72.0 84.8 L 72.0 140.0 L 71.0 148.1 L 68.9 155.7 L 65.6 162.6 L 61.1 168.8 L 55.5 174.1 L 49.0 178.6 L 41.4 182.4 L 33.0 185.3 L 23.5 187.5 L 13.1 188.8 L 12.8 187.1 L 22.5 183.8 L 31.1 180.3 L 38.5 176.5 L 44.8 172.3 L 49.9 167.8 L 53.8 163.0 L 56.8 157.9 L 58.7 152.4 L 59.8 146.4 L 60.0 140.0 L 60.0 138.62195119857788 Z M 182.0 149.0 L 184.0 149.0 L 182.0 174.0 L 185.6 176.4 L 188.0 180.0 L 185.6 183.6 L 182.0 186.0 L 112.0 186.0 L 109.4 185.8 L 106.9 185.4 L 104.5 184.6 L 102.2 183.3 L 100.2 181.7 L 98.6 179.7 L 97.3 177.4 L 96.5 175.0 L 96.1 172.5 L 96.0 170.0 L 96.0 80.0 L 108.0 82.0 L 111.0 84.0 L 108.0 85.8 L 108.0 171.2 L 108.2 172.1 L 108.5 173.0 L 108.9 173.4 L 109.8 173.7 L 110.7 173.9 L 112.0 174.0 L 176.0 174.0 Z M 154.0 84.8 L 157.0 86.8 L 154.0 88.6 L 154.0 102.9 L 156.8 102.9 L 166.8 92.9 L 178.8 102.9 L 178.8 106.9 L 154.0 106.9 L 154.0 128.8 L 162.0 128.8 L 172.0 118.8 L 184.0 128.8 L 184.0 132.8 L 154.0 132.8 L 154.0 163.1 L 142.0 169.1 L 142.0 132.8 L 111.9 132.8 L 111.9 128.8 L 142.0 128.8 L 142.0 106.9 L 128.88823528289794 106.9 L 127.9 108.5 L 125.7 111.9 L 123.3 115.1 L 120.6 118.3 L 114.8 124.5 L 113.3 123.4 L 115.2 119.7 L 116.7 115.9 L 118.2 112.2 L 119.5 108.6 L 120.8 105.1 L 121.9 101.6 L 122.8 98.2 L 123.6 94.8 L 124.2 91.5 L 124.54733963012696 89.2075584411621 L 124.5 89.2 L 124.65238094329834 88.51428575515747 L 124.7 88.2 L 124.7210620880127 88.20522050857544 L 125.1 86.5 L 136.4 91.1 L 138.8 93.7 L 134.98662185668945 94.94801464080811 L 133.5 98.2 L 131.8 101.7 L 131.16470584869384 102.9 L 142.0 102.9 L 142.0 82.8 Z M 38.6 115.0 L 37.0 112.4 L 35.2 109.8 L 33.2 107.3 L 31.0 104.8 L 28.7 102.4 L 26.2 99.9 L 23.5 97.4 L 20.4 95.2 L 21.2 93.6 L 24.9 94.9 L 28.5 96.2 L 32.0 97.8 L 35.3 99.5 L 38.4 101.5 L 41.4 103.7 L 44.2 106.1 L 46.8 108.6 L 49.3 111.4 L 51.6 114.3 L 52.2 118.9 L 49.5 122.5 L 44.9 123.1 L 41.3 120.4 L 40.0 117.7 Z M 144.7 43.9 L 146.4 47.1 L 142.17247953414918 47.24577655792236 L 140.9 48.9 L 138.7 51.6 L 136.2 54.4 L 133.6 57.3 L 130.7 60.3 L 127.6 63.5 L 124.2 66.8 L 120.5 70.1 L 119.41666669845581 71.1 L 163.0 71.1 L 173.0 61.1 L 185.0 71.1 L 185.0 75.1 L 15.0 75.1 L 15.0 71.1 L 116.15909090042115 71.1 L 118.0 68.1 L 120.5 63.8 L 122.9 59.8 L 125.1 56.1 L 127.1 52.6 L 128.9 49.2 L 130.6 46.1 L 132.0 43.2 L 133.2 40.6 L 133.8188271522522 39.05293207168579 L 133.7 39.0 L 134.1529411315918 38.217647075653076 L 134.2 38.1 L 134.21595134735108 38.10881128311157 L 134.8 37.1 Z M 67.9 60.4 L 67.0 57.9 L 65.8 55.3 L 64.4 52.8 L 62.9 50.2 L 61.1 47.6 L 59.1 44.9 L 56.9 42.2 L 54.3 39.7 L 55.3 38.3 L 58.5 40.0 L 61.8 41.7 L 64.9 43.6 L 67.7 45.7 L 70.4 47.9 L 72.8 50.3 L 75.1 52.9 L 77.1 55.6 L 79.0 58.5 L 80.6 61.5 L 80.3 66.1 L 77.0 69.2 L 72.4 68.9 L 69.3 65.5 L 68.7 63.0 Z M 26.0 32.2 L 94.0 32.2 L 94.0 12.9 L 106.0 14.9 L 109.0 16.9 L 106.0 18.7 L 106.0 32.2 L 152.0 32.2 L 162.0 22.2 L 174.0 32.2 L 174.0 36.2 L 26.0 36.2 Z " />
</g>
</svg>
