<svg xmlns="http://www.w3.org/2000/svg" xmlns:xlink="http://www.w3.org/1999/xlink" version="1.1" baseProfile="full" viewBox="0 0 200 200" width="200" height="200">
<g fill="black">
<path d="M 183.1 147.7 L 185.1 147.7 L 183.1 172.7 L 186.7 175.1 L 189.1 178.7 L 186.7 182.3 L 183.1 184.7 L 152.9 184.7 L 150.4 184.6 L 147.9 184.2 L 145.5 183.3 L 143.2 182.1 L 141.2 180.5 L 139.5 178.5 L 138.3 176.2 L 137.5 173.8 L 137.1 171.3 L 136.9 168.7 L 136.9 132.3 L 114.70487804412842 132.3 L 123.4 135.4 L 126.0 137.9 L 122.38255033493041 139.2154362678528 L 121.0 144.4 L 117.8 152.6 L 113.9 160.2 L 109.3 166.9 L 103.9 172.8 L 97.8 177.8 L 91.1 182.0 L 83.8 185.2 L 75.8 187.5 L 67.4 188.7 L 67.0 186.9 L 74.7 183.8 L 81.5 180.3 L 87.7 176.4 L 93.0 171.9 L 97.7 167.0 L 101.7 161.5 L 105.1 155.4 L 107.9 148.6 L 110.0 141.2 L 111.4 134.2 L 111.72758617401124 132.3 L 84.0 132.3 L 84.0 128.3 L 158.3 128.3 L 168.3 118.3 L 180.3 128.3 L 180.3 132.3 L 148.9 132.3 L 148.9 168.7 L 149.0 170.0 L 149.1 170.9 L 149.3 171.5 L 149.5 171.8 L 149.8 172.1 L 150.2 172.3 L 150.8 172.5 L 151.7 172.7 L 177.1 172.7 Z M 12.2 158.1 L 30.8 150.6 L 37.2 148.1 L 43.6 145.5 L 47.613513469696045 143.91891889572145 L 46.9 143.8 L 47.7 133.9 L 48.7 124.5 L 49.6 115.6 L 50.6 107.3 L 51.5 99.5 L 52.2 92.2 L 52.9 85.4 L 53.5 79.2 L 54.0 73.4 L 54.2422061920166 69.20175857543946 L 54.2 69.2 L 54.27652177810669 68.6069564819336 L 54.3 68.2 L 54.328567600250246 68.20360097885131 L 54.6 66.1 L 66.2 69.7 L 69.0 72.0 L 65.52996063232422 73.57133855819703 L 65.3 74.9 L 64.1 80.7 L 62.8 87.0 L 61.4 93.7 L 59.8 100.9 L 58.1 108.6 L 56.1 116.8 L 53.9 125.4 L 51.5 134.5 L 48.90071325302124 143.41184024810792 L 50.2 142.9 L 56.8 140.4 L 63.5 137.8 L 70.4 135.4 L 77.4 133.1 L 78.2 134.8 L 72.0 138.8 L 65.8 142.7 L 59.6 146.3 L 53.4 149.8 L 47.2 153.2 L 41.1 156.5 L 35.1 159.7 L 29.0 162.9 L 23.1 166.0 L 20.884633350372315 167.1264575958252 L 20.3 170.9 L 17.2 169.0 L 10.4 158.9 Z M 27.2 120.3 L 27.0 113.8 L 26.7 107.4 L 26.2 101.0 L 25.7 94.7 L 24.5 81.9 L 23.9 75.6 L 23.4 69.1 L 25.2 68.7 L 27.6 74.7 L 29.8 80.9 L 31.6 87.1 L 33.2 93.5 L 34.6 99.8 L 35.9 106.3 L 37.0 112.8 L 37.9 119.4 L 38.7 126.0 L 39.4 132.7 L 37.8 137.0 L 33.7 138.9 L 29.4 137.3 L 27.4 133.2 L 27.4 126.7 Z M 81.2 113.1 L 85.5 112.0 L 90.2 110.8 L 95.1 109.5 L 100.3 108.2 L 100.5 108.14545450210571 L 100.5 86.8 L 83.1 86.8 L 83.1 82.8 L 100.5 82.8 L 100.5 62.6 L 112.5 64.6 L 115.5 66.6 L 112.5 68.4 L 112.5 82.8 L 116.5777777671814 82.8 L 122.8 75.8 L 130.8 82.8 L 130.8 86.8 L 112.5 86.8 L 112.5 104.9639344215393 L 117.7 103.6 L 124.1 102.0 L 130.8 100.5 L 137.9 99.1 L 138.5 100.8 L 132.1 104.1 L 125.8 107.1 L 119.8 109.8 L 114.0 112.4 L 108.5 114.7 L 103.3 117.0 L 98.3 119.0 L 93.6 121.0 L 89.1 122.8 L 88.8585394859314 122.90011777877808 L 87.8 126.8 L 85.0 124.5 L 79.3 113.8 Z M 128.9 110.1 L 149.1 110.1 L 149.1 86.8 L 135.4 86.8 L 135.4 82.8 L 149.1 82.8 L 149.1 62.6 L 161.1 64.6 L 164.1 66.6 L 161.1 68.4 L 161.1 82.8 L 166.0777777671814 82.8 L 172.3 75.8 L 180.3 82.8 L 180.3 86.8 L 161.1 86.8 L 161.1 110.1 L 167.71818180084227 110.1 L 175.9 101.1 L 185.9 110.1 L 185.9 114.1 L 128.9 114.1 Z M 76.5 56.5 L 124.8 56.5 L 124.8 35.3 L 89.6 35.3 L 89.6 31.3 L 124.8 31.3 L 124.8 11.1 L 136.8 13.1 L 139.8 15.1 L 136.8 16.9 L 136.8 31.3 L 153.6 31.3 L 163.6 21.3 L 175.6 31.3 L 175.6 35.3 L 136.8 35.3 L 136.8 56.5 L 168.71818180084227 56.5 L 176.9 47.5 L 186.9 56.5 L 186.9 60.5 L 76.5 60.5 Z M 13.0 56.0 L 37.0 56.0 L 37.0 17.0 L 49.0 19.0 L 52.0 21.0 L 49.0 22.8 L 49.0 56.0 L 54.2 56.0 L 64.2 46.0 L 76.2 56.0 L 76.2 60.0 L 13.0 60.0 Z " />
</g>
</svg>
