<svg xmlns="http://www.w3.org/2000/svg" xmlns:xlink="http://www.w3.org/1999/xlink" version="1.1" baseProfile="full" viewBox="0 0 200 200" width="200" height="200">
<g fill="black">
<path d="M 144.4 104.0 L 147.4 106.0 L 144.4 107.8 L 144.4 132.0 L 165.7 132.0 L 175.7 122.0 L 187.7 132.0 L 187.7 136.0 L 144.4 136.0 L 144.4 182.0 L 132.4 188.0 L 132.4 136.0 L 99.95 136.0 L 99.7 136.5 L 96.4 142.1 L 92.7 147.6 L 88.7 152.8 L 84.2 157.8 L 79.3 162.5 L 77.9 161.4 L 81.2 155.6 L 84.2 149.9 L 87.1 144.2 L 89.7 138.6 L 92.0 132.9 L 94.0 127.2 L 95.7 121.5 L 97.1 115.7 L 98.3 109.9 L 98.97709493637085 104.90642461776733 L 98.9 104.9 L 99.4 102.0 L 110.9 105.9 L 113.6 108.4 L 109.98452720642089 109.80601720809936 L 109.4 112.3 L 107.5 118.6 L 105.2 124.7 L 102.6 130.7 L 101.95 132.0 L 132.4 132.0 L 132.4 102.0 Z M 14.0 158.0 L 20.9 155.6 L 27.9 153.1 L 34.9 150.5 L 42.1 148.0 L 49.3 145.4 L 53.55560541152954 143.94260091781615 L 52.7 143.8 L 53.8 133.8 L 54.9 124.4 L 56.1 115.6 L 57.2 107.2 L 58.3 99.4 L 59.2 92.1 L 60.0 85.3 L 60.7 79.1 L 61.3 73.3 L 61.62297382354736 69.10134010314941 L 61.6 69.1 L 61.65454549789429 68.69090909957886 L 61.7 68.1 L 61.73271026611328 68.10467290878296 L 62.0 66.1 L 73.6 69.8 L 76.3 72.1 L 72.7913703918457 73.62261285781861 L 72.5 75.0 L 71.3 80.8 L 69.9 87.0 L 68.3 93.8 L 66.6 101.0 L 64.7 108.7 L 62.5 116.8 L 60.2 125.5 L 57.5 134.6 L 54.67025060653687 143.56087312698364 L 56.6 142.9 L 64.0 140.3 L 71.5 137.8 L 79.2 135.4 L 87.0 133.1 L 87.7 134.8 L 80.7 138.9 L 73.6 142.7 L 66.6 146.4 L 59.5 149.9 L 52.5 153.3 L 45.6 156.6 L 38.7 159.8 L 31.9 163.0 L 25.2 166.1 L 22.193011379241945 167.44641284942628 L 21.4 171.2 L 18.5 169.1 L 12.1 158.8 Z M 31.1 120.3 L 30.8 113.9 L 30.4 107.5 L 29.2 94.7 L 28.5 88.4 L 27.7 82.0 L 26.3 69.2 L 28.0 68.7 L 30.6 74.7 L 32.9 80.8 L 34.9 87.0 L 36.7 93.4 L 38.2 99.8 L 39.6 106.2 L 40.8 112.8 L 41.8 119.3 L 42.7 126.0 L 43.4 132.7 L 41.8 136.9 L 37.7 138.9 L 33.4 137.4 L 31.4 133.2 L 31.3 126.8 Z M 94.5 101.0 L 94.5 18.0 L 106.5 24.0 L 162.4 24.0 L 168.4 19.0 L 179.4 28.0 L 174.4 32.0 L 174.4 101.0 L 162.4 107.0 L 162.4 95.0 L 106.5 95.0 Z M 106.5 63.0 L 106.5 91.0 L 129.1 91.0 L 129.1 63.0 Z M 141.1 63.0 L 141.1 91.0 L 162.4 91.0 L 162.4 63.0 Z M 14.4 56.0 L 42.2 56.0 L 42.2 17.0 L 54.2 19.0 L 57.2 21.0 L 54.2 22.8 L 54.2 56.0 L 63.6 56.0 L 73.6 46.0 L 85.6 56.0 L 85.6 60.0 L 14.4 60.0 Z M 106.5 28.0 L 106.5 59.0 L 129.1 59.0 L 129.1 28.0 Z M 141.1 28.0 L 141.1 59.0 L 162.4 59.0 L 162.4 28.0 Z " />
</g>
</svg>
