<svg xmlns="http://www.w3.org/2000/svg" xmlns:xlink="http://www.w3.org/1999/xlink" version="1.1" baseProfile="full" viewBox="0 0 200 200" width="200" height="200">
<g fill="black">
<path d="M 163.5 179.8 L 155.2 177.0 L 147.2 174.1 L 139.6 171.1 L 132.3 167.8 L 125.3 164.4 L 118.8 160.7 L 112.6 156.8 L 108.01818180084229 153.2 L 107.5 153.2 L 107.5 182.5 L 95.5 188.5 L 95.5 158.64615383148194 L 93.3 160.0 L 86.4 163.7 L 78.9 167.1 L 70.9 170.3 L 62.5 173.3 L 53.5 175.9 L 44.0 178.4 L 34.0 180.5 L 23.5 182.2 L 12.4 183.5 L 12.1 181.8 L 22.7 178.5 L 32.7 175.3 L 42.2 172.0 L 51.1 168.7 L 59.5 165.3 L 67.3 161.8 L 74.5 158.1 L 81.2 154.3 L 82.86774196624756 153.2 L 17.4 153.2 L 17.4 149.2 L 95.5 149.2 L 95.5 141.6 L 107.5 143.6 L 110.5 145.6 L 107.5 147.4 L 107.5 149.2 L 167.3181818008423 149.2 L 175.5 140.2 L 185.5 149.2 L 185.5 153.2 L 114.7956521987915 153.2 L 121.3 155.4 L 128.2 157.7 L 135.3 160.0 L 142.7 162.3 L 150.4 164.4 L 158.3 166.4 L 166.5 168.4 L 175.1 170.2 L 183.9 171.9 L 192.8 173.9 L 181.0 184.8 L 172.1 182.4 Z M 156.7 105.6 L 156.7 109.6 L 92.8 109.6 L 87.7 112.6 L 81.3 116.3 L 74.99117650985718 119.6 L 137.2 119.6 L 143.2 114.6 L 154.2 123.6 L 149.2 127.6 L 149.2 139.5 L 137.2 145.5 L 137.2 139.5 L 72.8 139.5 L 60.8 145.5 L 60.8 125.7 L 53.5 128.2 L 45.9 130.5 L 38.1 132.5 L 30.1 134.2 L 21.8 135.5 L 13.2 136.3 L 12.8 134.5 L 20.9 131.8 L 28.7 129.0 L 36.2 126.3 L 43.5 123.4 L 50.4 120.3 L 57.1 117.1 L 60.8 115.1921875 L 60.8 113.6 L 62.36769227981567 114.38384618759156 L 63.5 113.8 L 69.6 110.2 L 70.52307691574097 109.6 L 38.1 109.6 L 38.1 105.6 L 142.4777777671814 105.6 L 148.7 98.6 Z M 72.8 123.6 L 72.8 135.5 L 137.2 135.5 L 137.2 123.6 Z M 13.3 115.0 L 13.3 110.5 L 16.5 107.2 L 18.5 106.6 L 20.3 105.9 L 22.0 104.9 L 23.7 103.7 L 25.2 102.0 L 26.6 100.0 L 27.8 97.5 L 29.0 94.6 L 29.9 91.3 L 30.3 87.6 L 32.1 87.6 L 32.5 91.4 L 32.71621618270874 93.0 L 94.5 93.0 L 94.5 85.3 L 50.2 85.3 L 38.2 91.3 L 38.2 62.5 L 50.2 68.5 L 94.5 68.5 L 94.5 61.4 L 18.0 61.4 L 18.0 57.4 L 94.5 57.4 L 94.5 48.1 L 106.5 50.1 L 109.5 52.1 L 106.5 53.9 L 106.5 57.4 L 168.6777777671814 57.4 L 174.9 50.4 L 182.9 57.4 L 182.9 61.4 L 106.5 61.4 L 106.5 68.5 L 150.7 68.5 L 156.7 63.5 L 167.7 72.5 L 162.7 76.5 L 162.7 85.3 L 150.7 91.3 L 150.7 85.3 L 106.5 85.3 L 106.5 93.0 L 170.8 93.0 L 171.58823528289795 92.34313726425171 L 172.4 90.9 L 172.8397421836853 91.30021486282348 L 176.8 88.0 L 187.8 97.0 L 182.8 100.0 L 174.91764707565306 103.28431367874146 L 173.6 104.1 L 171.3 105.5 L 168.8 107.0 L 166.1 108.5 L 163.3 110.0 L 160.2 111.5 L 157.3 113.5 L 156.2 112.1 L 158.7 109.6 L 160.8 106.9 L 162.8 104.5 L 164.6 102.1 L 166.3 99.9 L 167.9 97.9 L 168.5631579399109 97.0 L 33.0 97.0 L 33.0 98.7 L 32.7 102.1 L 31.9 105.3 L 30.7 108.4 L 29.0 111.3 L 26.8 114.0 L 24.1 116.3 L 21.1 118.3 L 16.5 118.2 Z M 50.2 72.5 L 50.2 81.3 L 94.5 81.3 L 94.5 72.5 Z M 106.5 72.5 L 106.5 81.3 L 150.7 81.3 L 150.7 72.5 Z M 13.1 40.1 L 13.6 35.5 L 17.1 32.6 L 19.2 32.4 L 21.0 32.0 L 22.6 31.5 L 24.1 30.9 L 25.5 30.0 L 26.8 28.9 L 27.9 27.5 L 29.0 25.7 L 29.9 23.6 L 30.1 21.1 L 31.9 21.0 L 32.2 23.7 L 32.2384614944458 23.9 L 94.0 23.9 L 94.0 12.8 L 106.0 14.8 L 109.0 16.8 L 106.0 18.6 L 106.0 23.9 L 170.0 23.9 L 170.44347829818724 23.530434799194335 L 171.4 22.4 L 172.3 21.2 L 172.66932182312013 21.6755651473999 L 176.0 18.9 L 187.0 27.9 L 182.0 30.9 L 170.0 35.9 L 170.0 34.46363639831543 L 169.9 34.5 L 167.5 35.3 L 164.9 36.2 L 162.2 37.1 L 159.2 37.9 L 156.4 39.2 L 155.5 37.6 L 158.1 35.9 L 160.3 33.8 L 162.3 31.8 L 164.2 30.0 L 166.0 28.3 L 166.4 27.9 L 76.59436616897582 27.9 L 84.6 33.7 L 86.1 36.9 L 81.86829271316529 36.9 L 81.1 37.8 L 76.7 41.3 L 71.6 44.2 L 65.8 46.7 L 59.2 48.8 L 51.8 50.6 L 43.6 52.0 L 34.6 53.1 L 24.7 53.7 L 14.0 53.8 L 13.9 52.0 L 24.3 49.9 L 33.7 47.8 L 42.3 45.6 L 49.8 43.3 L 56.5 40.8 L 62.1 38.2 L 66.6 35.5 L 70.2 32.7 L 72.7 30.0 L 73.93636360168458 28.068181800842286 L 74.03529415130615 27.9 L 32.7 27.9 L 32.7 29.0 L 32.3 31.6 L 31.4 34.2 L 30.0 36.6 L 28.2 38.9 L 26.0 40.9 L 23.4 42.6 L 20.5 44.1 L 16.0 43.6 Z M 127.6 49.7 L 125.4 49.6 L 123.2 49.1 L 121.1 48.2 L 119.1 46.9 L 117.4 45.3 L 116.0 43.2 L 115.0 41.0 L 114.3 38.6 L 114.0 36.1 L 114.0 28.2 L 126.0 30.2 L 129.0 32.2 L 126.0 34.0 L 126.0 36.1 L 125.8 37.3 L 125.7 38.3 L 125.7 39.7 L 125.8 40.2 L 126.0 40.7 L 126.5 41.3 L 127.3 41.8 L 128.5 42.3 L 130.0 42.6 L 174.5 42.6 L 178.0 37.6 L 180.0 37.6 L 178.0 42.6 L 180.1 44.0 L 181.5 46.1 L 180.1 48.2 L 178.0 49.6 L 130.0 49.6 Z " />
</g>
</svg>
