<svg xmlns="http://www.w3.org/2000/svg" xmlns:xlink="http://www.w3.org/1999/xlink" version="1.1" baseProfile="full" viewBox="0 0 200 200" width="200" height="200">
<g fill="black">
<path d="M 73.1 97.5 L 74.2 100.9 L 70.43255128860474 100.44530792236328 L 68.3 102.8 L 63.2 107.9 L 57.9 112.9 L 52.3 117.6 L 46.569461059570315 122.1449101448059 L 52.3 123.1 L 55.3 125.1 L 52.3 126.9 L 52.3 182.3 L 40.3 188.3 L 40.3 126.63125 L 34.1 130.7 L 27.5 134.6 L 20.6 138.1 L 13.3 141.3 L 12.4 139.8 L 18.6 134.9 L 24.5 130.1 L 30.3 125.4 L 35.8 120.6 L 41.1 115.7 L 46.1 110.7 L 50.9 105.7 L 55.4 100.6 L 59.6 95.4 L 63.06157789230347 90.8408486366272 L 63.0 90.8 L 64.1 89.5 Z M 64.3 175.5 L 120.2 175.5 L 120.2 139.0 L 79.5 139.0 L 79.5 135.0 L 120.2 135.0 L 120.2 102.1 L 93.6740740776062 102.1 L 92.1 105.5 L 89.3 110.7 L 86.2 115.7 L 82.8 120.5 L 79.0 125.0 L 74.8 129.0 L 73.4 128.0 L 75.9 122.8 L 78.2 117.7 L 80.4 112.6 L 82.4 107.5 L 84.2 102.3 L 85.8 97.0 L 87.1 91.6 L 88.2 86.1 L 89.1 80.5 L 89.7 74.7 L 89.73271026611329 74.70467290878295 L 90.0 72.7 L 101.6 76.4 L 104.3 78.7 L 100.8056739807129 80.1883240699768 L 100.3 82.6 L 98.7 88.6 L 96.8 94.4 L 95.3719298362732 98.1 L 120.2 98.1 L 120.2 62.9 L 132.2 64.9 L 135.2 66.9 L 132.2 68.7 L 132.2 98.1 L 159.5 98.1 L 169.5 88.1 L 181.5 98.1 L 181.5 102.1 L 132.2 102.1 L 132.2 135.0 L 150.8 135.0 L 160.8 125.0 L 172.8 135.0 L 172.8 139.0 L 132.2 139.0 L 132.2 175.5 L 164.9 175.5 L 174.9 165.5 L 186.9 175.5 L 186.9 179.5 L 64.3 179.5 Z M 65.9 70.6 L 66.9 74.1 L 63.17766704559326 73.51226320266724 L 61.6 75.2 L 57.1 79.5 L 52.5 83.8 L 47.8 87.8 L 42.8 91.6 L 37.7 95.3 L 32.5 98.7 L 27.0 101.9 L 21.4 104.7 L 15.5 107.3 L 14.6 105.7 L 24.0 97.5 L 33.0 89.3 L 37.3 85.2 L 41.5 80.9 L 45.5 76.6 L 49.3 72.2 L 53.1 67.6 L 56.044037914276124 63.73069305419922 L 56.0 63.7 L 57.0 62.5 Z M 66.6 56.5 L 65.3 54.2 L 63.8 51.8 L 62.0 49.4 L 59.9 46.9 L 57.5 44.4 L 54.8 41.8 L 51.8 39.1 L 49.53333330154419 37.5 L 45.02068967819214 37.5 L 42.6 41.4 L 38.7 46.9 L 34.3 52.3 L 29.5 57.4 L 24.3 62.2 L 18.7 66.6 L 12.5 70.7 L 11.4 69.3 L 16.1 63.9 L 20.4 58.4 L 24.5 53.1 L 28.2 47.7 L 31.6 42.2 L 34.6 36.7 L 37.2 31.0 L 39.5 25.3 L 41.4 19.5 L 42.64361934661865 14.608430671691895 L 42.6 14.6 L 42.863414669036864 13.743902397155761 L 42.9 13.6 L 42.907073211669925 13.602012157440186 L 43.4 12.0 L 54.5 16.9 L 56.8 19.6 L 53.089999961853025 20.660000038146972 L 52.1 23.3 L 49.4 29.5 L 47.3016393661499 33.5 L 84.0 33.5 L 94.0 23.5 L 106.0 33.5 L 106.0 37.5 L 55.42857141494751 37.5 L 57.1 38.1 L 60.7 39.8 L 64.1 41.6 L 67.2 43.6 L 70.1 45.8 L 72.8 48.1 L 75.2 50.7 L 77.3 53.3 L 79.2 56.2 L 79.3 60.8 L 76.2 64.1 L 71.6 64.2 L 68.2 61.1 L 67.5 58.8 Z M 145.6 56.5 L 144.3 54.2 L 142.8 51.8 L 141.0 49.4 L 138.9 46.9 L 136.5 44.4 L 133.8 41.8 L 130.8 39.1 L 128.5333333015442 37.5 L 123.50909090042114 37.5 L 121.6 40.5 L 117.6 45.7 L 113.2 50.6 L 108.4 55.2 L 103.2 59.5 L 97.6 63.4 L 91.5 66.8 L 90.4 65.4 L 95.2 60.5 L 99.6 55.6 L 103.6 50.7 L 107.3 45.7 L 110.7 40.7 L 113.7 35.5 L 116.3 30.3 L 118.5 24.9 L 120.4 19.3 L 121.63504457473755 14.60683069229126 L 121.6 14.6 L 121.85454549789429 13.772727298736573 L 121.9 13.6 L 121.90706825256348 13.602028274536133 L 122.4 12.0 L 133.4 16.9 L 135.8 19.7 L 132.01404809951782 20.696303176879884 L 131.1 23.2 L 128.3 29.2 L 125.92758617401122 33.5 L 164.0 33.5 L 174.0 23.5 L 186.0 33.5 L 186.0 37.5 L 134.4285714149475 37.5 L 136.1 38.1 L 139.7 39.8 L 143.1 41.6 L 146.2 43.6 L 149.1 45.8 L 151.8 48.1 L 154.2 50.7 L 156.3 53.3 L 158.2 56.2 L 158.3 60.8 L 155.2 64.1 L 150.6 64.2 L 147.2 61.1 L 146.5 58.8 Z " />
</g>
</svg>
