<svg xmlns="http://www.w3.org/2000/svg" xmlns:xlink="http://www.w3.org/1999/xlink" version="1.1" baseProfile="full" viewBox="0 0 200 200" width="200" height="200">
<g fill="black">
<path d="M 93.8 129.3 L 95.5 132.5 L 91.74946231842041 132.6939932823181 L 90.9 134.1 L 87.9 138.9 L 84.7 143.6 L 81.4 148.3 L 77.9 153.0 L 74.3 157.7 L 70.5 162.3 L 66.5 166.8 L 63.477752113342284 169.89253273010254 L 72.4 169.6 L 85.2 169.2 L 98.4 168.7 L 112.3 168.3 L 126.6 167.8 L 141.5 167.5 L 150.1905442237854 167.44356784820556 L 148.7 165.6 L 144.6 160.9 L 140.3 156.4 L 135.6 152.0 L 130.8 147.6 L 125.7 143.2 L 120.4 138.7 L 121.3 137.2 L 127.7 140.0 L 133.9 143.2 L 139.7 146.8 L 145.2 150.7 L 150.4 154.8 L 155.4 159.1 L 160.1 163.7 L 164.5 168.5 L 168.6 173.5 L 172.4 178.7 L 173.1 183.2 L 170.5 187.0 L 166.0 187.7 L 162.3 185.1 L 159.3 180.0 L 156.0 175.1 L 152.5 170.3 L 152.15215311050414 169.86976833343505 L 141.8 171.3 L 127.0 173.2 L 112.7 174.8 L 99.0 176.3 L 85.7 177.6 L 73.0 178.9 L 60.8 180.1 L 49.1 181.1 L 37.9 182.1 L 31.335101795196532 182.65739698410033 L 29.4 185.9 L 27.3 183.0 L 24.6 171.2 L 26.6 171.1 L 37.3 170.8 L 48.5 170.4 L 58.55769605636597 170.05614709854126 L 59.2 168.9 L 62.1 163.6 L 65.1 158.5 L 68.0 153.4 L 70.8 148.4 L 73.5 143.4 L 76.1 138.4 L 78.6 133.5 L 80.9 128.6 L 82.75735988616944 124.72377071380615 L 82.7 124.7 L 83.05 124.0 L 14.0 124.0 L 14.0 120.0 L 94.0 120.0 L 94.0 88.7 L 29.0 88.7 L 29.0 84.7 L 94.0 84.7 L 94.0 59.2 L 106.0 61.2 L 109.0 63.2 L 106.0 65.0 L 106.0 84.7 L 149.0 84.7 L 159.0 74.7 L 171.0 84.7 L 171.0 88.7 L 106.0 88.7 L 106.0 120.0 L 164.0 120.0 L 174.0 110.0 L 186.0 120.0 L 186.0 124.0 L 85.68939390182496 124.0 Z M 67.6 56.3 L 66.3 53.9 L 64.8 51.5 L 63.0 49.1 L 60.9 46.6 L 58.5 44.1 L 55.8 41.5 L 52.8 38.8 L 50.39166669845581 37.1 L 46.02068967819214 37.1 L 43.6 41.0 L 39.7 46.6 L 35.3 52.0 L 30.5 57.1 L 25.3 62.0 L 19.7 66.5 L 13.5 70.6 L 12.4 69.2 L 17.1 63.7 L 21.4 58.2 L 25.5 52.8 L 29.2 47.4 L 32.6 41.9 L 35.6 36.3 L 38.2 30.7 L 40.5 24.9 L 42.4 19.1 L 43.667852306365965 14.113114261627198 L 43.6 14.1 L 44.4 11.5 L 55.5 16.4 L 57.8 19.1 L 54.089999961853025 20.160000038146972 L 53.1 22.8 L 50.4 29.1 L 48.3016393661499 33.1 L 85.0 33.1 L 95.0 23.1 L 107.0 33.1 L 107.0 37.1 L 56.15 37.1 L 58.1 37.8 L 61.7 39.5 L 65.1 41.3 L 68.2 43.4 L 71.1 45.5 L 73.8 47.9 L 76.2 50.4 L 78.3 53.1 L 80.2 56.0 L 80.3 60.6 L 77.2 63.9 L 72.6 64.0 L 69.2 60.9 L 68.5 58.6 Z M 146.6 56.3 L 145.3 53.9 L 143.8 51.5 L 142.0 49.1 L 139.9 46.6 L 137.5 44.1 L 134.8 41.5 L 131.8 38.8 L 129.39166669845582 37.1 L 123.43488368988037 37.1 L 121.3 39.8 L 117.7 43.8 L 113.7 47.6 L 109.3 51.2 L 104.6 54.4 L 99.5 57.2 L 98.4 55.7 L 102.2 51.5 L 105.7 47.3 L 108.9 43.2 L 111.8 39.0 L 114.4 34.9 L 116.7 30.7 L 118.7 26.4 L 120.4 22.1 L 121.8 17.7 L 122.67639083862305 14.114764595031739 L 122.6 14.1 L 123.4 11.5 L 134.5 16.4 L 136.8 19.1 L 133.04694833755494 20.10528173446655 L 132.5 21.5 L 130.3 26.4 L 127.6 31.1 L 126.28181819915771 33.1 L 165.0 33.1 L 175.0 23.1 L 187.0 33.1 L 187.0 37.1 L 135.15 37.1 L 137.1 37.8 L 140.7 39.5 L 144.1 41.3 L 147.2 43.4 L 150.1 45.5 L 152.8 47.9 L 155.2 50.4 L 157.3 53.1 L 159.2 56.0 L 159.3 60.6 L 156.2 63.9 L 151.6 64.0 L 148.2 60.9 L 147.5 58.6 Z " />
</g>
</svg>
