<svg xmlns="http://www.w3.org/2000/svg" xmlns:xlink="http://www.w3.org/1999/xlink" version="1.1" baseProfile="full" viewBox="0 0 200 200" width="200" height="200">
<g fill="black">
<path d="M 121.6 106.3 L 124.6 108.3 L 121.6 110.1 L 121.6 137.6 L 157.8 137.6 L 157.8 111.3 L 169.8 113.3 L 172.8 115.3 L 169.8 117.1 L 169.8 141.6 L 157.8 147.6 L 157.8 141.6 L 121.6 141.6 L 121.6 177.8 L 165.0 177.8 L 165.0 150.0 L 177.0 152.0 L 180.0 154.0 L 177.0 155.8 L 177.0 183.8 L 165.0 189.8 L 165.0 181.8 L 66.2 181.8 L 66.2 184.8 L 54.2 190.8 L 54.2 150.0 L 66.2 152.0 L 69.2 154.0 L 66.2 155.8 L 66.2 177.8 L 109.6 177.8 L 109.6 141.6 L 73.4 141.6 L 61.4 147.6 L 61.4 111.3 L 73.4 113.3 L 76.4 115.3 L 73.4 117.1 L 73.4 137.6 L 109.6 137.6 L 109.6 104.3 Z M 45.3 75.5 L 162.6 75.5 L 168.6 70.5 L 179.6 79.5 L 174.6 83.5 L 174.6 99.8 L 162.6 105.8 L 162.6 99.8 L 45.3 99.8 L 45.3 120.9 L 44.8 129.9 L 43.7 138.6 L 42.0 146.8 L 39.8 154.6 L 37.0 161.9 L 33.7 168.7 L 29.8 174.9 L 25.4 180.7 L 20.3 185.7 L 14.7 190.1 L 13.5 188.8 L 17.5 183.2 L 21.0 177.5 L 24.1 171.6 L 26.8 165.4 L 29.0 158.9 L 30.8 152.1 L 32.1 144.9 L 33.0 137.3 L 33.4 129.3 L 33.3 120.9 L 33.3 69.5 Z M 45.3 79.5 L 45.3 95.8 L 162.6 95.8 L 162.6 79.5 Z M 66.6 57.2 L 65.3 54.8 L 63.8 52.3 L 62.0 49.8 L 59.8 47.3 L 57.4 44.7 L 54.8 42.1 L 51.8 39.3 L 49.39166669845581 37.6 L 44.975 37.6 L 42.7 41.5 L 38.7 47.3 L 34.3 52.8 L 29.5 58.0 L 24.3 63.0 L 18.7 67.7 L 12.5 71.9 L 11.4 70.6 L 16.0 64.9 L 20.4 59.4 L 24.5 53.8 L 28.2 48.3 L 31.6 42.6 L 34.6 36.9 L 37.2 31.1 L 39.5 25.2 L 41.4 19.2 L 42.65174598693848 14.109566497802735 L 42.6 14.1 L 43.3 11.4 L 54.5 16.3 L 56.9 19.0 L 53.1337477684021 20.057193565368653 L 52.1 22.9 L 49.4 29.3 L 47.18064517974854 33.6 L 84.0 33.6 L 94.0 23.6 L 106.0 33.6 L 106.0 37.6 L 55.019999980926514 37.6 L 57.1 38.4 L 60.8 40.1 L 64.2 42.0 L 67.3 44.1 L 70.2 46.4 L 72.8 48.8 L 75.3 51.4 L 77.4 54.2 L 79.3 57.2 L 79.3 61.8 L 76.1 65.1 L 71.6 65.1 L 68.3 61.9 L 67.5 59.6 Z M 145.6 57.2 L 144.3 54.8 L 142.8 52.3 L 141.0 49.8 L 138.8 47.3 L 136.4 44.7 L 133.8 42.1 L 130.8 39.3 L 128.39166669845582 37.6 L 123.49473686218262 37.6 L 121.6 40.6 L 117.6 46.0 L 113.2 51.1 L 108.4 55.8 L 103.2 60.3 L 97.6 64.3 L 91.5 67.9 L 90.4 66.5 L 95.1 61.4 L 99.5 56.4 L 103.6 51.4 L 107.3 46.3 L 110.7 41.1 L 113.6 35.8 L 116.2 30.3 L 118.5 24.7 L 120.4 19.0 L 121.66785230636597 14.013114261627198 L 121.6 14.0 L 122.4 11.4 L 133.5 16.3 L 135.8 19.0 L 132.11425065994263 20.053071212768554 L 131.1 22.8 L 128.4 29.0 L 125.90508470535278 33.6 L 164.0 33.6 L 174.0 23.6 L 186.0 33.6 L 186.0 37.6 L 134.0199999809265 37.6 L 136.1 38.4 L 139.8 40.1 L 143.2 42.0 L 146.3 44.1 L 149.2 46.4 L 151.8 48.8 L 154.3 51.4 L 156.4 54.2 L 158.3 57.2 L 158.3 61.8 L 155.1 65.1 L 150.6 65.1 L 147.3 61.9 L 146.5 59.6 Z " />
</g>
</svg>
