<svg xmlns="http://www.w3.org/2000/svg" xmlns:xlink="http://www.w3.org/1999/xlink" version="1.1" baseProfile="full" viewBox="0 0 200 200" width="200" height="200">
<g fill="black">
<path d="M 130.1 186.4 L 111.8 185.4 L 96.9 183.9 L 84.8 181.7 L 75.0 178.9 L 67.2 175.4 L 61.1 171.3 L 56.4 166.6 L 54.013067436218265 163.24539203643798 L 51.5 165.2 L 47.9 168.1 L 44.3 170.7 L 40.7 173.2 L 37.1 175.6 L 33.5 177.9 L 26.3 182.3 L 23.02515525817871 184.26490678787232 L 22.4 188.3 L 19.3 186.4 L 12.5 176.3 L 14.3 175.5 L 18.0 174.1 L 25.6 171.3 L 33.4 168.3 L 37.4 166.8 L 43.7 164.49512195587158 L 43.7 126.5 L 13.9 126.5 L 13.9 122.5 L 43.7 122.5 L 49.7 117.5 L 60.7 126.5 L 55.7 130.5 L 55.7 161.23333330154418 L 59.1 163.5 L 64.4 166.4 L 70.2 168.8 L 77.4 170.9 L 86.5 172.5 L 98.0 173.7 L 112.4 174.4 L 130.2 174.6 L 151.9 174.2 L 177.8 173.2 L 189.3 172.8 L 178.3 186.4 L 152.1 186.7 Z M 102.4 64.3 L 104.8 67.0 L 101.05340909957886 68.07045450210572 L 100.4 69.9 L 98.1 75.6 L 95.5 81.1 L 95.11818180084228 81.8 L 156.1 81.8 L 166.1 71.8 L 178.1 81.8 L 178.1 85.8 L 119.1 85.8 L 119.1 108.9 L 146.7 108.9 L 156.7 98.9 L 168.7 108.9 L 168.7 112.9 L 119.1 112.9 L 119.1 136.0 L 151.7 136.0 L 161.7 126.0 L 173.7 136.0 L 173.7 140.0 L 119.1 140.0 L 119.1 166.5 L 107.1 172.5 L 107.1 85.8 L 92.93636360168458 85.8 L 92.5 86.6 L 89.2 91.9 L 85.6 97.2 L 81.7 102.5 L 77.4 107.5 L 72.7 112.5 L 67.5 117.2 L 66.1 116.0 L 69.7 110.1 L 73.0 104.4 L 76.2 98.8 L 79.1 93.3 L 81.8 87.8 L 84.2 82.4 L 86.2 77.1 L 88.0 71.8 L 89.5 66.5 L 90.5524468421936 62.20925531387329 L 90.5 62.2 L 91.2 59.5 Z M 38.4 102.0 L 36.2 99.9 L 33.8 97.9 L 31.3 95.8 L 28.7 93.8 L 25.9 91.9 L 19.9 87.9 L 16.5 86.2 L 17.1 84.4 L 20.8 85.2 L 24.6 85.9 L 28.2 86.8 L 31.7 87.8 L 35.1 89.1 L 38.4 90.5 L 41.6 92.0 L 44.7 93.7 L 47.7 95.5 L 50.5 97.5 L 52.4 101.6 L 50.9 106.0 L 46.8 107.9 L 42.5 106.4 L 40.5 104.2 Z M 48.0 74.0 L 46.1 72.0 L 44.0 69.9 L 41.7 67.9 L 39.2 65.8 L 36.5 63.8 L 33.7 61.7 L 30.7 59.6 L 27.4 57.7 L 28.1 56.0 L 31.8 57.0 L 35.5 57.8 L 39.1 58.8 L 42.5 60.0 L 45.7 61.3 L 48.8 62.8 L 51.8 64.4 L 54.7 66.1 L 57.4 68.0 L 60.0 70.0 L 61.5 74.3 L 59.7 78.5 L 55.4 80.0 L 51.2 78.2 L 49.7 76.1 Z M 67.8 49.7 L 66.7 47.8 L 65.2 45.9 L 63.4 43.9 L 61.2 41.9 L 58.8 39.8 L 56.0 37.6 L 53.0 35.4 L 50.9 34.2 L 46.18000001907349 34.2 L 43.3 37.8 L 39.3 42.2 L 35.0 46.3 L 30.2 50.2 L 25.1 53.9 L 19.5 57.3 L 13.4 60.3 L 12.5 58.8 L 17.2 54.2 L 21.7 49.8 L 25.8 45.4 L 29.5 41.1 L 32.9 36.7 L 35.9 32.3 L 38.4 27.9 L 40.7 23.4 L 42.5 19.0 L 43.668209838867185 15.417489719390868 L 43.6 15.4 L 44.5 13.0 L 55.3 18.4 L 57.4 21.3 L 53.591479778289795 22.10179376602173 L 52.9 23.6 L 50.1 28.5 L 48.96666669845581 30.2 L 85.0 30.2 L 95.0 20.2 L 107.0 30.2 L 107.0 34.2 L 58.854545497894286 34.2 L 61.4 35.0 L 64.7 36.3 L 67.8 37.7 L 70.6 39.3 L 73.2 41.0 L 75.6 42.8 L 77.8 44.9 L 79.7 47.1 L 80.2 51.7 L 77.4 55.3 L 72.9 55.8 L 69.3 53.0 L 68.7 51.4 Z M 146.8 49.7 L 145.7 47.8 L 144.2 45.9 L 142.4 43.9 L 140.2 41.9 L 137.8 39.8 L 135.0 37.6 L 132.0 35.4 L 129.9 34.2 L 124.65454549789429 34.2 L 122.2 37.2 L 118.2 41.2 L 113.9 45.0 L 109.1 48.6 L 104.0 51.8 L 98.4 54.7 L 92.4 57.2 L 91.5 55.6 L 96.3 51.5 L 100.8 47.5 L 104.9 43.5 L 108.6 39.5 L 112.0 35.5 L 114.9 31.4 L 117.5 27.3 L 119.7 23.0 L 121.5 18.8 L 122.68517189025879 15.323495674133301 L 122.6 15.3 L 123.5 13.0 L 134.2 18.5 L 136.4 21.4 L 132.5217173576355 22.148440551757812 L 131.9 23.5 L 129.1 28.3 L 127.70666666030884 30.2 L 165.0 30.2 L 175.0 20.2 L 187.0 30.2 L 187.0 34.2 L 137.8545454978943 34.2 L 140.4 35.0 L 143.7 36.3 L 146.8 37.7 L 149.6 39.3 L 152.2 41.0 L 154.6 42.8 L 156.8 44.9 L 158.7 47.1 L 159.2 51.7 L 156.4 55.3 L 151.9 55.8 L 148.3 53.0 L 147.7 51.4 Z " />
</g>
</svg>
