<svg xmlns="http://www.w3.org/2000/svg" xmlns:xlink="http://www.w3.org/1999/xlink" version="1.1" baseProfile="full" viewBox="0 0 200 200" width="200" height="200">
<g fill="black">
<path d="M 154.4 134.9 L 144.4 130.7 L 135.3 125.9 L 130.0642999649048 122.64364995956421 L 126.6 124.8 L 116.0 130.3 L 104.6 135.2 L 92.5 139.4 L 90.18955221176148 140.04477615356444 L 99.1 144.5 L 154.3 144.5 L 160.3 139.5 L 171.3 148.5 L 166.3 152.5 L 166.3 184.0 L 154.3 190.0 L 154.3 182.0 L 99.1 182.0 L 99.1 185.0 L 87.1 191.0 L 87.1 140.9069766998291 L 79.6 143.0 L 65.9 145.8 L 65.5 144.1 L 78.4 139.4 L 90.6 134.4 L 102.0 129.2 L 112.5 123.5 L 122.1 117.6 L 122.52767190933227 117.29246063232422 L 119.8 115.2 L 113.5 109.1 L 108.2 102.6 L 104.1 95.7 L 103.18413829803467 93.39455490112304 L 102.8 93.9 L 98.6 98.7 L 94.1 103.3 L 89.2 107.6 L 84.0 111.7 L 78.4 115.5 L 72.4 118.9 L 71.3 117.4 L 76.0 112.5 L 80.4 107.7 L 84.6 103.0 L 88.5 98.2 L 92.0 93.4 L 95.2 88.5 L 98.1 83.5 L 100.7 78.5 L 102.9 73.4 L 104.8 68.2 L 104.87889966964721 68.23170080184937 L 105.4 66.9 L 116.0 72.7 L 118.0 75.7 L 114.2 76.3 L 113.2 78.3 L 110.5018518447876 83.0 L 157.1 83.0 L 157.29175262451173 82.84020614624023 L 158.1 81.7 L 158.40903005599975 81.90914154052734 L 163.1 78.0 L 174.1 87.0 L 169.1 90.0 L 165.58408756256102 91.46496353149413 L 161.3 96.9 L 153.8 104.7 L 145.5 112.0 L 139.39598121643067 116.49416770935059 L 140.0 116.8 L 148.7 120.5 L 158.3 123.8 L 168.7 126.8 L 179.9 129.4 L 188.7 131.4 L 176.9 142.2 L 165.2 138.8 Z M 38.3 191.7 L 34.3 189.4 L 33.0 185.0 L 33.6 180.6 L 33.7 176.6 L 33.3 173.0 L 32.4 169.7 L 31.0 166.6 L 29.1 163.7 L 26.5 161.0 L 23.1 158.4 L 19.0 155.9 L 14.1 153.8 L 14.5 152.1 L 20.0 152.8 L 25.2 154.0 L 29.8 155.9 L 32.14285717010498 157.38571424484252 L 32.4 157.0 L 35.0 153.3 L 38.2 148.8 L 42.0 143.6 L 46.4 137.5 L 51.6 130.7 L 57.4 123.0 L 63.9 114.7 L 71.3 105.7 L 72.8 106.7 L 67.1 116.8 L 61.8 126.0 L 57.0 134.3 L 52.8 141.6 L 49.1 148.1 L 46.1 153.7 L 43.6 158.5 L 41.8 162.3 L 40.6 165.2 L 40.433878898620605 165.7648118019104 L 42.7 170.1 L 44.1 175.1 L 44.9 180.5 L 44.9 186.3 L 42.7 190.3 Z M 99.1 148.5 L 99.1 178.0 L 154.3 178.0 L 154.3 148.5 Z M 33.8 119.2 L 32.4 117.7 L 30.6 116.2 L 28.5 114.6 L 26.0 113.0 L 23.1 111.4 L 19.9 109.7 L 16.4 107.9 L 12.5 106.6 L 12.9 104.8 L 17.1 105.4 L 21.1 105.7 L 24.9 106.2 L 28.3 106.9 L 31.6 107.7 L 34.6 108.6 L 37.4 109.7 L 40.0 110.9 L 42.4 112.4 L 44.6 114.2 L 45.9 118.5 L 43.8 122.6 L 39.4 123.9 L 35.3 121.8 L 34.7 120.6 Z M 107.87884616851807 87.0 L 106.6 88.9 L 105.29591655731201 90.61589918136596 L 107.6 93.4 L 112.7 98.8 L 118.5 103.8 L 124.9 108.5 L 130.2835684776306 111.71518669128417 L 131.0 111.2 L 139.0 104.4 L 146.1 97.2 L 152.5 89.6 L 154.34303798675538 87.0 Z M 48.2 86.8 L 46.7 85.3 L 45.0 83.7 L 42.9 82.1 L 40.5 80.5 L 37.8 78.9 L 34.8 77.2 L 31.6 75.5 L 28.0 74.2 L 28.4 72.4 L 32.3 73.0 L 36.1 73.3 L 39.6 73.8 L 42.9 74.5 L 46.1 75.3 L 49.0 76.2 L 51.8 77.3 L 54.4 78.6 L 56.8 80.0 L 59.0 81.6 L 60.5 85.9 L 58.6 90.1 L 54.3 91.6 L 50.1 89.7 L 49.3 88.3 Z M 66.6 57.2 L 65.3 54.8 L 63.8 52.3 L 62.0 49.8 L 59.8 47.3 L 57.4 44.7 L 54.8 42.1 L 51.8 39.3 L 49.39166669845581 37.6 L 44.975 37.6 L 42.7 41.5 L 38.7 47.3 L 34.3 52.8 L 29.5 58.0 L 24.3 63.0 L 18.7 67.7 L 12.5 71.9 L 11.4 70.6 L 16.0 64.9 L 20.4 59.4 L 24.5 53.8 L 28.2 48.3 L 31.6 42.6 L 34.6 36.9 L 37.2 31.1 L 39.5 25.2 L 41.4 19.2 L 42.65174598693848 14.109566497802735 L 42.6 14.1 L 43.3 11.4 L 54.5 16.3 L 56.9 19.0 L 53.1337477684021 20.057193565368653 L 52.1 22.9 L 49.4 29.3 L 47.18064517974854 33.6 L 84.0 33.6 L 94.0 23.6 L 106.0 33.6 L 106.0 37.6 L 55.019999980926514 37.6 L 57.1 38.4 L 60.8 40.1 L 64.2 42.0 L 67.3 44.1 L 70.2 46.4 L 72.8 48.8 L 75.3 51.4 L 77.4 54.2 L 79.3 57.2 L 79.3 61.8 L 76.1 65.1 L 71.6 65.1 L 68.3 61.9 L 67.5 59.6 Z M 145.6 57.2 L 144.3 54.8 L 142.8 52.3 L 141.0 49.8 L 138.8 47.3 L 136.4 44.7 L 133.8 42.1 L 130.8 39.3 L 128.39166669845582 37.6 L 123.49473686218262 37.6 L 121.6 40.6 L 117.6 46.0 L 113.2 51.1 L 108.4 55.8 L 103.2 60.3 L 97.6 64.3 L 91.5 67.9 L 90.4 66.5 L 95.1 61.4 L 99.5 56.4 L 103.6 51.4 L 107.3 46.3 L 110.7 41.1 L 113.6 35.8 L 116.2 30.3 L 118.5 24.7 L 120.4 19.0 L 121.66785230636597 14.013114261627198 L 121.6 14.0 L 122.4 11.4 L 133.5 16.3 L 135.8 19.0 L 132.11425065994263 20.053071212768554 L 131.1 22.8 L 128.4 29.0 L 125.90508470535278 33.6 L 164.0 33.6 L 174.0 23.6 L 186.0 33.6 L 186.0 37.6 L 134.0199999809265 37.6 L 136.1 38.4 L 139.8 40.1 L 143.2 42.0 L 146.3 44.1 L 149.2 46.4 L 151.8 48.8 L 154.3 51.4 L 156.4 54.2 L 158.3 57.2 L 158.3 61.8 L 155.1 65.1 L 150.6 65.1 L 147.3 61.9 L 146.5 59.6 Z " />
</g>
</svg>
