<svg xmlns="http://www.w3.org/2000/svg" xmlns:xlink="http://www.w3.org/1999/xlink" version="1.1" baseProfile="full" viewBox="0 0 200 200" width="200" height="200">
<g fill="black">
<path d="M 181.2 131.3 L 183.2 131.3 L 181.2 156.3 L 184.8 158.7 L 187.2 162.3 L 184.8 165.9 L 181.2 168.3 L 142.6 168.3 L 140.0 168.1 L 137.5 167.7 L 135.1 166.9 L 132.9 165.6 L 130.9 164.0 L 129.2 162.0 L 128.0 159.7 L 127.2 157.3 L 126.7 154.8 L 126.6 152.3 L 126.6 122.0 L 124.6 127.0 L 119.0 136.5 L 112.2 144.9 L 104.2 152.2 L 95.1 158.4 L 84.8 163.3 L 73.5 167.1 L 67.36198682785034 168.37670669555663 L 70.5 169.6 L 77.7 171.6 L 86.9 173.2 L 98.4 174.3 L 113.0 175.0 L 130.9 175.1 L 152.7 174.7 L 178.7 173.8 L 190.2 173.4 L 179.2 187.0 L 152.8 187.2 L 130.7 186.9 L 112.4 186.0 L 97.4 184.5 L 85.2 182.4 L 75.4 179.6 L 67.6 176.2 L 61.5 172.2 L 56.7 167.7 L 54.30512819290161 164.39896049499512 L 51.7 166.3 L 48.1 169.1 L 44.5 171.7 L 40.9 174.1 L 37.2 176.4 L 33.6 178.7 L 30.0 180.9 L 26.4 183.0 L 23.038327503204346 184.86759586334227 L 22.3 188.9 L 19.3 187.0 L 12.6 176.8 L 14.4 176.0 L 22.0 173.4 L 25.8 172.0 L 29.7 170.6 L 33.6 169.1 L 37.6 167.7 L 41.7 166.2 L 44.0 165.4333333015442 L 44.0 128.8 L 14.0 128.8 L 14.0 124.8 L 44.0 124.8 L 50.0 119.8 L 61.0 128.8 L 56.0 132.8 L 56.0 162.36666669845582 L 59.4 164.5 L 63.60057802200318 166.76184968948365 L 72.2 163.5 L 82.5 158.5 L 91.5 152.8 L 99.3 146.4 L 105.8 139.4 L 111.2 131.5 L 115.4 122.9 L 116.01276597976684 121.1 L 94.4 121.1 L 94.4 128.1 L 82.4 134.1 L 82.4 96.79473686218262 L 80.3 98.6 L 74.2 103.4 L 67.6 107.8 L 60.6 112.0 L 59.6 110.5 L 65.3 104.9 L 70.6 99.3 L 75.7 93.9 L 80.5 88.4 L 82.4 86.06818180084228 L 82.4 84.3 L 83.42368421554565 84.8118420600891 L 84.9 83.0 L 88.9 77.5 L 92.6 72.0 L 95.9 66.5 L 98.8 60.9 L 101.4 55.2 L 101.40409555435181 55.20200986862183 L 101.9 54.1 L 112.2 60.5 L 114.0 63.6 L 110.22607622146606 63.92533826828003 L 108.8 66.4 L 106.9 69.3 L 139.7 69.3 L 140.33000001907348 68.775 L 140.6 68.1 L 140.9067491531372 68.29437570571899 L 145.7 64.3 L 156.7 73.3 L 151.7 76.3 L 147.24285717010497 78.15714282989502 L 145.6 79.8 L 143.7 81.6 L 141.7 83.4 L 139.6 85.2 L 137.4 87.1 L 135.1 88.9 L 133.1555555343628 90.3 L 159.2 90.3 L 165.2 85.3 L 176.2 94.3 L 171.2 98.3 L 171.2 121.1 L 159.2 127.1 L 159.2 121.1 L 138.6 121.1 L 138.6 152.3 L 138.7 153.5 L 138.8 154.4 L 139.0 155.0 L 139.2 155.3 L 139.3 155.5 L 139.5 155.7 L 139.9 155.8 L 140.5 156.0 L 141.4 156.2 L 142.6 156.3 L 175.2 156.3 Z M 156.5 146.1 L 155.7 144.1 L 154.6 142.2 L 153.3 140.2 L 151.9 138.2 L 150.2 136.2 L 148.4 134.1 L 146.4 131.9 L 143.9 130.2 L 144.8 128.6 L 147.6 129.8 L 150.6 130.8 L 153.3 132.0 L 155.9 133.3 L 158.4 134.8 L 160.7 136.4 L 162.9 138.2 L 165.0 140.1 L 166.8 142.2 L 168.5 144.5 L 168.8 149.0 L 165.8 152.5 L 161.3 152.8 L 157.8 149.8 L 157.3 148.0 Z M 94.4 94.3 L 94.4 117.1 L 117.37446804046631 117.1 L 118.6 113.5 L 120.6 103.2 L 121.25321102142334 94.3 Z M 133.26693544387817 94.3 L 131.8 105.0 L 128.8 116.5 L 128.56000003814697 117.1 L 159.2 117.1 L 159.2 94.3 Z M 38.7 105.2 L 36.5 103.2 L 34.1 101.2 L 31.5 99.2 L 28.9 97.3 L 26.0 95.3 L 23.1 93.4 L 20.0 91.4 L 16.6 89.7 L 17.2 88.0 L 20.9 88.7 L 24.7 89.3 L 28.3 90.2 L 31.8 91.2 L 35.2 92.4 L 38.5 93.7 L 41.7 95.2 L 44.8 96.8 L 47.8 98.5 L 50.6 100.4 L 52.6 104.5 L 51.2 108.9 L 47.1 110.9 L 42.7 109.5 L 40.8 107.3 Z M 104.175 73.3 L 100.8 77.8 L 96.2 83.3 L 91.3 88.6 L 91.19741935729981 88.6987096786499 L 94.4 90.3 L 129.91538457870485 90.3 L 130.7 89.1 L 132.1 86.4 L 133.4 83.8 L 134.6 81.3 L 135.8 78.9 L 138.0 74.3 L 138.4285714149475 73.3 Z M 48.3 78.1 L 46.4 76.1 L 44.2 74.1 L 41.9 72.1 L 39.4 70.1 L 36.8 68.1 L 33.9 66.1 L 30.9 64.0 L 27.6 62.2 L 28.2 60.5 L 31.9 61.4 L 35.7 62.2 L 39.2 63.1 L 42.6 64.2 L 45.9 65.5 L 49.0 66.9 L 52.0 68.4 L 54.8 70.1 L 57.6 71.9 L 60.1 73.8 L 61.8 78.1 L 60.1 82.3 L 55.8 83.9 L 51.6 82.2 L 50.0 80.2 Z M 66.8 50.3 L 65.6 48.3 L 64.1 46.3 L 62.3 44.2 L 60.1 42.1 L 57.7 39.9 L 55.0 37.6 L 52.0 35.3 L 49.83333330154419 34.0 L 45.11836738586426 34.0 L 42.4 37.7 L 38.4 42.3 L 34.1 46.7 L 29.3 50.9 L 24.1 54.9 L 18.5 58.5 L 12.5 61.8 L 11.4 60.3 L 16.2 55.5 L 20.6 50.8 L 24.7 46.2 L 28.5 41.6 L 31.8 37.0 L 34.8 32.3 L 37.4 27.6 L 39.6 22.9 L 41.5 18.1 L 42.61337146759033 14.20319995880127 L 42.6 14.2 L 42.73333330154419 13.78333330154419 L 42.9 13.2 L 42.91807231903076 13.206024074554444 L 43.4 11.7 L 54.3 17.0 L 56.5 19.9 L 52.75135517120361 20.703281021118165 L 52.0 22.5 L 49.2 27.7 L 47.75686273574829 30.0 L 84.0 30.0 L 94.0 20.0 L 106.0 30.0 L 106.0 34.0 L 57.17692308425903 34.0 L 60.5 35.2 L 63.8 36.6 L 66.9 38.1 L 69.7 39.8 L 72.4 41.7 L 74.8 43.7 L 76.9 45.9 L 78.8 48.3 L 79.2 52.9 L 76.4 56.4 L 71.8 56.8 L 68.2 53.9 L 67.6 52.2 Z M 145.8 50.3 L 144.6 48.3 L 143.1 46.3 L 141.3 44.2 L 139.1 42.1 L 136.7 39.9 L 134.0 37.6 L 131.0 35.3 L 128.8333333015442 34.0 L 123.56956520080567 34.0 L 121.3 36.9 L 117.3 41.3 L 113.0 45.3 L 108.2 49.1 L 103.0 52.7 L 97.4 55.8 L 91.4 58.5 L 90.5 57.0 L 95.3 52.7 L 99.7 48.4 L 103.8 44.2 L 107.6 40.0 L 110.9 35.7 L 113.9 31.4 L 116.4 27.0 L 118.6 22.5 L 120.5 17.9 L 121.62965030670166 14.107602596282959 L 121.6 14.1 L 121.7551724433899 13.686206912994384 L 121.9 13.2 L 121.93323612213135 13.211370277404786 L 122.5 11.7 L 133.3 17.1 L 135.5 19.9 L 131.66663007736207 20.707025241851806 L 130.9 22.4 L 128.1 27.5 L 126.4333333015442 30.0 L 164.0 30.0 L 174.0 20.0 L 186.0 30.0 L 186.0 34.0 L 136.17692308425904 34.0 L 139.5 35.2 L 142.8 36.6 L 145.9 38.1 L 148.7 39.8 L 151.4 41.7 L 153.8 43.7 L 155.9 45.9 L 157.8 48.3 L 158.2 52.9 L 155.4 56.4 L 150.8 56.8 L 147.2 53.9 L 146.6 52.2 Z " />
</g>
</svg>
