<svg xmlns="http://www.w3.org/2000/svg" xmlns:xlink="http://www.w3.org/1999/xlink" version="1.1" baseProfile="full" viewBox="0 0 200 200" width="200" height="200">
<g fill="black">
<path d="M 63.6 129.6 L 62.4 127.8 L 61.1 126.1 L 59.5 124.4 L 57.8 122.6 L 55.9 120.9 L 53.8 119.1 L 52.8 118.28181819915771 L 52.8 185.2 L 40.8 191.2 L 40.8 124.34482755661011 L 40.3 125.5 L 37.1 132.0 L 33.5 138.3 L 29.7 144.4 L 25.5 150.2 L 20.9 155.6 L 15.9 160.8 L 14.5 159.7 L 17.8 153.5 L 24.0 141.1 L 26.8 134.9 L 29.3 128.5 L 31.7 122.1 L 33.8 115.5 L 35.6 108.8 L 37.2 102.0 L 37.914035129547116 98.3 L 15.2 98.3 L 15.2 94.3 L 40.8 94.3 L 40.8 61.5 L 52.8 63.5 L 55.8 65.5 L 52.8 67.3 L 52.8 94.3 L 57.918181800842284 94.3 L 66.1 85.3 L 76.1 94.3 L 76.1 98.3 L 52.8 98.3 L 52.8 115.13448276519776 L 55.5 115.6 L 58.4 116.3 L 61.1 117.2 L 63.7 118.3 L 66.2 119.4 L 68.5 120.7 L 70.8 122.2 L 72.9 123.8 L 75.0 125.5 L 76.1 129.9 L 74.0 133.9 L 69.5 135.1 L 65.5 132.9 L 64.7 131.2 Z M 182.0 74.2 L 182.0 78.2 L 91.0 78.2 L 91.0 175.5 L 164.0 175.5 L 174.0 165.5 L 186.0 175.5 L 186.0 179.5 L 91.0 179.5 L 91.0 182.5 L 79.0 188.5 L 79.0 68.2 L 91.0 74.2 L 160.0 74.2 L 170.0 64.2 Z M 98.0 157.5 L 128.0 157.5 L 128.0 128.5 L 104.0 128.5 L 104.0 124.5 L 128.0 124.5 L 128.0 97.0 L 101.0 97.0 L 101.0 93.0 L 151.0 93.0 L 161.0 83.0 L 173.0 93.0 L 173.0 97.0 L 140.0 97.0 L 140.0 124.5 L 147.0 124.5 L 157.0 114.5 L 169.0 124.5 L 169.0 128.5 L 140.0 128.5 L 140.0 157.5 L 158.0 157.5 L 168.0 147.5 L 180.0 157.5 L 180.0 161.5 L 98.0 161.5 Z M 66.6 52.6 L 65.4 50.4 L 63.9 48.1 L 62.1 45.8 L 60.0 43.4 L 57.6 41.0 L 54.9 38.6 L 51.9 36.0 L 49.581818199157716 34.5 L 45.018181800842285 34.5 L 42.6 38.3 L 38.6 43.5 L 34.2 48.5 L 29.4 53.3 L 24.3 57.8 L 18.6 62.0 L 12.5 65.8 L 11.4 64.4 L 16.1 59.1 L 20.5 54.0 L 24.6 48.9 L 28.3 43.8 L 31.7 38.6 L 34.7 33.4 L 37.3 28.1 L 39.5 22.8 L 41.4 17.3 L 42.65156593322754 12.710925006866455 L 42.6 12.7 L 43.4 10.2 L 54.4 15.2 L 56.7 18.0 L 52.99502258300781 18.92624435424805 L 52.1 21.3 L 49.3 27.2 L 47.41428575515747 30.5 L 84.0 30.5 L 94.0 20.5 L 106.0 30.5 L 106.0 34.5 L 55.9 34.5 L 57.1 34.9 L 60.6 36.4 L 64.0 38.1 L 67.1 39.9 L 70.0 41.9 L 72.6 44.1 L 75.0 46.4 L 77.2 49.0 L 79.1 51.7 L 79.3 56.2 L 76.2 59.6 L 71.7 59.8 L 68.2 56.8 L 67.6 54.7 Z M 145.6 52.6 L 144.4 50.4 L 142.9 48.1 L 141.1 45.8 L 139.0 43.4 L 136.6 41.0 L 133.9 38.6 L 130.9 36.0 L 128.5818181991577 34.5 L 123.57692308425904 34.5 L 121.5 37.5 L 117.5 42.4 L 113.1 47.0 L 108.3 51.3 L 103.1 55.3 L 97.5 58.9 L 91.5 62.1 L 90.4 60.6 L 95.2 55.9 L 99.6 51.3 L 103.7 46.6 L 107.4 42.0 L 110.8 37.2 L 113.7 32.3 L 116.3 27.4 L 118.5 22.3 L 120.4 17.1 L 121.62098712921143 12.704446411132812 L 121.6 12.7 L 121.76842107772828 12.173684215545654 L 121.9 11.7 L 121.91822500228882 11.705546760559082 L 122.4 10.2 L 133.4 15.2 L 135.7 18.0 L 131.9073929786682 18.93151750564575 L 131.0 21.2 L 128.3 26.8 L 126.14727268218994 30.5 L 164.0 30.5 L 174.0 20.5 L 186.0 30.5 L 186.0 34.5 L 134.9 34.5 L 136.1 34.9 L 139.6 36.4 L 143.0 38.1 L 146.1 39.9 L 149.0 41.9 L 151.6 44.1 L 154.0 46.4 L 156.2 49.0 L 158.1 51.7 L 158.3 56.2 L 155.2 59.6 L 150.7 59.8 L 147.2 56.8 L 146.6 54.7 Z " />
</g>
</svg>
