<svg xmlns="http://www.w3.org/2000/svg" xmlns:xlink="http://www.w3.org/1999/xlink" version="1.1" baseProfile="full" viewBox="0 0 200 200" width="200" height="200">
<g fill="black">
<path d="M 62.4 175.0 L 74.4 175.0 L 75.6 174.9 L 76.5 174.8 L 77.1 174.6 L 77.4 174.4 L 77.6 174.2 L 77.8 174.1 L 78.0 173.7 L 78.2 173.1 L 78.3 172.2 L 78.4 171.0 L 78.4 152.9 L 35.1 152.9 L 35.1 180.2 L 23.1 186.2 L 23.1 102.64096384048462 L 19.768627452850343 103.16274509429931 L 18.1 106.5 L 15.7 103.8 L 12.3 92.1 L 14.3 91.9 L 22.7 91.2 L 28.437348747253417 90.71612720489502 L 30.7 86.8 L 33.4 82.6 L 36.0 78.5 L 38.5 74.6 L 41.0 70.8 L 45.6 63.6 L 47.8 60.2 L 49.28342657089233 57.75234613418579 L 49.2 57.7 L 49.70361442565918 57.05903615951538 L 49.8 56.9 L 49.81797752380371 56.91348314285278 L 50.3 56.3 L 59.4 64.1 L 60.7 67.5 L 56.79711046218872 67.10309600830078 L 54.0 70.1 L 51.2 73.2 L 48.2 76.5 L 45.0 79.8 L 41.7 83.1 L 38.3 86.6 L 34.7 90.0 L 34.42946224212646 90.2427903175354 L 39.0 89.9 L 47.0 89.4 L 54.7 88.9 L 62.4 88.5 L 69.8 88.2 L 77.1 88.0 L 84.3 88.0 L 84.82244672775269 88.01492700576782 L 84.3 87.3 L 82.1 84.6 L 79.7 81.8 L 77.0 78.8 L 74.0 75.7 L 70.6 72.8 L 71.6 71.3 L 75.7 73.4 L 79.6 75.3 L 83.3 77.4 L 86.7 79.5 L 89.8 81.7 L 92.6 84.0 L 95.2 86.4 L 97.6 88.9 L 99.7 91.4 L 101.6 94.1 L 101.7 98.7 L 98.7 102.1 L 94.2 102.3 L 90.7 99.3 L 90.0 97.1 L 89.0 94.9 L 87.7 92.4 L 86.94347829818726 91.13913040161133 L 84.7 91.7 L 77.7 93.3 L 70.5 94.7 L 63.2 96.0 L 55.7 97.3 L 48.0 98.6 L 40.2 99.9 L 32.2 101.2 L 24.53148145675659 102.41574077606201 L 35.1 107.7 L 78.4 107.7 L 84.4 102.7 L 95.4 111.7 L 90.4 115.7 L 90.4 171.0 L 90.2 173.5 L 89.8 176.0 L 89.0 178.4 L 87.8 180.7 L 86.1 182.7 L 84.1 184.4 L 81.8 185.6 L 79.4 186.4 L 76.9 186.8 L 74.4 187.0 L 74.4 181.0 L 62.4 178.0 Z M 179.9 147.0 L 181.9 147.0 L 179.9 172.0 L 183.5 174.4 L 185.9 178.0 L 183.5 181.6 L 179.9 184.0 L 125.5 184.0 L 123.0 183.9 L 120.5 183.5 L 118.1 182.7 L 115.8 181.4 L 113.8 179.8 L 112.1 177.8 L 110.9 175.5 L 110.1 173.1 L 109.7 170.6 L 109.5 168.0 L 109.5 122.7 L 121.5 124.7 L 124.5 126.7 L 121.5 128.5 L 121.5 149.79402980804443 L 122.0 149.6 L 128.4 147.2 L 134.6 145.0 L 140.6 142.9 L 146.3 140.8 L 151.7 138.8 L 156.9 136.8 L 161.8 134.8 L 166.4 132.8 L 170.7 130.9 L 171.3843095779419 132.6823878288269 L 180.0 140.2 L 180.3 143.3 L 176.30369253158568 141.6045968055725 L 175.0 142.1 L 170.2 143.6 L 165.2 145.0 L 159.9 146.3 L 154.4 147.7 L 148.6 149.0 L 142.6 150.2 L 136.3 151.3 L 129.7 152.4 L 122.9 153.3 L 121.5 153.4166666984558 L 121.5 168.0 L 121.6 169.3 L 121.8 170.2 L 121.9 170.8 L 122.1 171.1 L 122.5 171.5 L 123.4 171.8 L 124.3 172.0 L 173.9 172.0 Z M 35.1 132.3 L 35.1 148.9 L 78.4 148.9 L 78.4 132.3 Z M 35.1 111.7 L 35.1 128.3 L 78.4 128.3 L 78.4 111.7 Z M 123.0 121.4 L 120.5 121.0 L 118.1 120.2 L 115.8 119.0 L 113.8 117.3 L 112.1 115.3 L 110.9 113.0 L 110.1 110.6 L 109.7 108.1 L 109.5 105.6 L 109.5 60.2 L 121.5 62.2 L 124.5 64.2 L 121.5 66.0 L 121.5 87.29402980804443 L 122.0 87.1 L 128.4 84.7 L 134.6 82.5 L 140.6 80.4 L 146.3 78.3 L 151.7 76.3 L 156.9 74.3 L 161.8 72.3 L 166.4 70.4 L 169.8073187828064 68.81520051956177 L 169.8 68.8 L 169.81390829086303 68.81213569641113 L 170.7 68.4 L 171.3843095779419 70.1823878288269 L 180.0 77.7 L 180.3 80.9 L 176.25554733276368 79.12289199829101 L 175.0 79.6 L 170.2 81.1 L 165.2 82.5 L 159.9 83.9 L 154.4 85.2 L 148.6 86.5 L 142.6 87.7 L 136.3 88.9 L 129.7 89.9 L 122.9 90.8 L 121.5 90.93611106872558 L 121.5 105.6 L 121.6 106.8 L 121.8 107.7 L 121.9 108.3 L 122.1 108.6 L 122.5 109.0 L 122.8 109.2 L 123.4 109.3 L 124.3 109.5 L 125.5 109.6 L 173.9 109.6 L 179.9 84.6 L 181.9 84.6 L 179.9 109.6 L 183.5 112.0 L 185.9 115.6 L 183.5 119.2 L 179.9 121.6 L 125.5 121.6 Z M 66.6 54.6 L 65.4 52.4 L 63.9 50.1 L 62.1 47.8 L 60.0 45.4 L 57.6 43.0 L 54.9 40.6 L 51.9 38.0 L 49.581818199157716 36.5 L 45.018181800842285 36.5 L 42.6 40.3 L 38.6 45.5 L 34.2 50.5 L 29.4 55.3 L 24.3 59.8 L 18.6 64.0 L 12.5 67.8 L 11.4 66.4 L 16.1 61.1 L 20.5 56.0 L 24.6 50.9 L 28.3 45.8 L 31.7 40.6 L 34.7 35.4 L 37.3 30.1 L 39.5 24.8 L 41.4 19.3 L 42.65156593322754 14.710925006866455 L 42.6 14.7 L 43.4 12.2 L 54.4 17.2 L 56.7 20.0 L 52.99502258300781 20.92624435424805 L 52.1 23.3 L 49.3 29.2 L 47.41428575515747 32.5 L 84.0 32.5 L 94.0 22.5 L 106.0 32.5 L 106.0 36.5 L 55.9 36.5 L 57.1 36.9 L 60.6 38.4 L 64.0 40.1 L 67.1 41.9 L 70.0 43.9 L 72.6 46.1 L 75.0 48.4 L 77.2 51.0 L 79.1 53.7 L 79.3 58.2 L 76.2 61.6 L 71.7 61.8 L 68.2 58.8 L 67.6 56.7 Z M 145.6 54.6 L 144.4 52.4 L 142.9 50.1 L 141.1 47.8 L 139.0 45.4 L 136.6 43.0 L 133.9 40.6 L 130.9 38.0 L 128.5818181991577 36.5 L 123.57692308425904 36.5 L 121.5 39.5 L 117.5 44.4 L 113.1 49.0 L 108.3 53.3 L 103.1 57.3 L 97.5 60.9 L 91.5 64.1 L 90.4 62.6 L 95.2 57.9 L 99.6 53.3 L 103.7 48.6 L 107.4 44.0 L 110.8 39.2 L 113.7 34.3 L 116.3 29.4 L 118.5 24.3 L 120.4 19.1 L 121.62098712921143 14.704446411132812 L 121.6 14.7 L 121.76842107772828 14.173684215545654 L 121.9 13.7 L 121.91822500228882 13.705546760559082 L 122.4 12.2 L 133.4 17.2 L 135.7 20.0 L 131.9073929786682 20.93151750564575 L 131.0 23.2 L 128.3 28.8 L 126.14727268218994 32.5 L 164.0 32.5 L 174.0 22.5 L 186.0 32.5 L 186.0 36.5 L 134.9 36.5 L 136.1 36.9 L 139.6 38.4 L 143.0 40.1 L 146.1 41.9 L 149.0 43.9 L 151.6 46.1 L 154.0 48.4 L 156.2 51.0 L 158.1 53.7 L 158.3 58.2 L 155.2 61.6 L 150.7 61.8 L 147.2 58.8 L 146.6 56.7 Z " />
</g>
</svg>
