<svg xmlns="http://www.w3.org/2000/svg" xmlns:xlink="http://www.w3.org/1999/xlink" version="1.1" baseProfile="full" viewBox="0 0 200 200" width="200" height="200">
<g fill="black">
<path d="M 36.8 127.6 L 74.3 127.6 L 80.3 122.6 L 91.3 131.6 L 86.3 135.6 L 86.3 179.7 L 74.3 185.7 L 74.3 179.7 L 36.8 179.7 L 36.8 182.7 L 24.8 188.7 L 24.8 121.6 Z M 145.6906976699829 116.65581398010254 L 147.4 123.9 L 149.9 132.2 L 152.9 139.7 L 156.3 146.6 L 160.2 152.9 L 164.5 158.5 L 169.2 163.5 L 174.3 167.9 L 179.7 171.7 L 185.4 174.9 L 190.1 177.6 L 178.9 186.4 L 172.5 181.9 L 166.5 176.8 L 161.1 171.0 L 156.3 164.6 L 152.2 157.7 L 148.7 150.2 L 146.0 142.1 L 144.2 133.6 L 143.68177337646483 128.4177339553833 L 140.8 138.6 L 136.6 148.4 L 131.4 157.4 L 125.2 165.4 L 117.8 172.6 L 109.5 178.8 L 100.2 184.0 L 89.9 188.2 L 89.2 186.5 L 98.3 180.7 L 106.3 174.5 L 113.3 167.9 L 119.3 160.7 L 124.2 152.9 L 128.2 144.6 L 131.2 135.6 L 133.3 125.9 L 134.4 115.6 L 134.6 104.5 L 134.6 98.3 L 146.6 100.3 L 149.6 102.3 L 146.6 104.1 L 146.6 104.5 L 145.7 116.6 Z M 36.8 154.6 L 36.8 175.7 L 74.3 175.7 L 74.3 154.6 Z M 36.8 131.6 L 36.8 150.6 L 74.3 150.6 L 74.3 131.6 Z M 136.8 63.1 L 139.3 65.7 L 135.52933330535888 66.9119999885559 L 135.1 68.2 L 133.2 73.4 L 130.9 78.6 L 128.4 83.9 L 125.8528302192688 88.4 L 172.4 88.4 L 178.4 83.4 L 189.4 92.4 L 184.4 95.4 L 181.30299396514891 96.69041919708252 L 180.0 98.3 L 178.1 100.6 L 175.9 103.0 L 173.3 105.5 L 170.5 108.3 L 167.3 111.2 L 163.8 114.2 L 160.2 117.6 L 158.8 116.4 L 161.7 112.4 L 164.0 108.4 L 166.1 104.8 L 168.0 101.5 L 169.6 98.5 L 170.8 95.8 L 171.8 93.5 L 172.1300000190735 92.4 L 123.6 92.4 L 123.6 92.18125 L 122.2 94.5 L 118.6 99.9 L 114.7 105.3 L 110.3 110.7 L 105.4 116.1 L 103.9 115.0 L 107.1 108.6 L 110.1 102.5 L 112.9 96.6 L 115.5 90.9 L 117.8 85.4 L 119.8 80.1 L 121.6 74.9 L 123.0 69.9 L 124.2 65.1 L 124.90564470291137 61.41496629714966 L 124.8 61.4 L 125.5 58.7 Z M 82.9 85.8 L 85.2 88.6 L 80.85761823654175 89.59036779403687 L 80.4 90.4 L 78.8 92.9 L 77.0 95.6 L 75.1 98.4 L 72.9 101.3 L 70.5 104.4 L 67.9 107.6 L 65.0 110.9 L 64.05945949554443 112.1 L 79.21818180084229 112.1 L 87.4 103.1 L 97.4 112.1 L 97.4 116.1 L 13.7 116.1 L 13.7 112.1 L 61.31428575515747 112.1 L 62.6 109.4 L 64.1 105.4 L 65.6 101.6 L 67.0 98.0 L 68.2 94.7 L 69.2 91.7 L 70.1 88.9 L 70.8 86.4 L 71.2 84.1 L 71.35928220748902 83.03811883926392 L 71.2 83.0 L 72.0 80.6 Z M 36.5 98.7 L 36.1 96.4 L 35.6 94.1 L 35.0 91.8 L 34.2 89.5 L 33.3 87.2 L 32.3 84.9 L 30.8 82.9 L 32.1 81.6 L 34.1 83.2 L 36.4 84.8 L 38.5 86.6 L 40.4 88.6 L 42.2 90.8 L 43.9 93.1 L 45.3 95.7 L 46.7 98.4 L 47.8 101.2 L 48.8 104.2 L 47.7 108.7 L 43.8 111.1 L 39.4 110.0 L 37.0 106.1 L 36.8 101.1 Z M 17.3 76.6 L 50.0 76.6 L 50.0 58.3 L 62.0 60.3 L 65.0 62.3 L 62.0 64.1 L 62.0 76.6 L 71.8 76.6 L 81.8 66.6 L 93.8 76.6 L 93.8 80.6 L 17.3 80.6 Z M 66.7 52.9 L 65.5 50.8 L 64.0 48.6 L 62.1 46.3 L 60.0 44.1 L 57.6 41.7 L 54.9 39.3 L 51.9 36.8 L 49.73636360168457 35.4 L 45.08113203048706 35.4 L 42.5 39.2 L 38.5 44.2 L 34.2 49.0 L 29.4 53.6 L 24.2 58.0 L 18.6 62.0 L 12.5 65.6 L 11.4 64.2 L 16.1 59.1 L 20.5 54.1 L 24.6 49.1 L 28.4 44.2 L 31.7 39.2 L 34.7 34.1 L 37.3 29.0 L 39.5 23.9 L 41.4 18.6 L 42.61602048873901 14.303394222259522 L 42.6 14.3 L 42.81176471710205 13.611764717102051 L 42.9 13.3 L 42.907033634185794 13.302140712738037 L 43.4 11.7 L 54.4 16.8 L 56.7 19.6 L 52.87928638458252 20.53842086791992 L 52.0 22.7 L 49.3 28.4 L 47.55454549789429 31.4 L 84.0 31.4 L 94.0 21.4 L 106.0 31.4 L 106.0 35.4 L 56.36666669845581 35.4 L 57.0 35.6 L 60.6 37.1 L 63.9 38.7 L 67.0 40.4 L 69.9 42.3 L 72.6 44.4 L 75.0 46.6 L 77.1 49.1 L 79.0 51.7 L 79.2 56.2 L 76.3 59.7 L 71.7 59.9 L 68.2 56.9 L 67.6 55.0 Z M 145.7 52.9 L 144.5 50.8 L 143.0 48.6 L 141.1 46.3 L 139.0 44.1 L 136.6 41.7 L 133.9 39.3 L 130.9 36.8 L 128.73636360168456 35.4 L 123.53061227798462 35.4 L 121.4 38.3 L 117.4 43.1 L 113.1 47.5 L 108.3 51.7 L 103.1 55.5 L 97.5 59.0 L 91.4 62.0 L 90.5 60.5 L 95.2 56.0 L 99.6 51.4 L 103.7 47.0 L 107.5 42.4 L 110.8 37.8 L 113.8 33.1 L 116.4 28.3 L 118.6 23.4 L 120.4 18.4 L 121.63306865692138 14.2075665473938 L 121.6 14.2 L 122.4 11.7 L 133.4 16.9 L 135.6 19.7 L 131.8550000190735 20.569375038146973 L 131.0 22.6 L 128.2 28.1 L 126.20754718780518 31.4 L 164.0 31.4 L 174.0 21.4 L 186.0 31.4 L 186.0 35.4 L 135.36666669845582 35.4 L 136.0 35.6 L 139.6 37.1 L 142.9 38.7 L 146.0 40.4 L 148.9 42.3 L 151.6 44.4 L 154.0 46.6 L 156.1 49.1 L 158.0 51.7 L 158.2 56.2 L 155.3 59.7 L 150.7 59.9 L 147.2 56.9 L 146.6 55.0 Z " />
</g>
</svg>
