<svg xmlns="http://www.w3.org/2000/svg" xmlns:xlink="http://www.w3.org/1999/xlink" version="1.1" baseProfile="full" viewBox="0 0 200 200" width="200" height="200">
<g fill="black">
<path d="M 160.7 183.3 L 152.9 180.0 L 146.0 176.1 L 145.99306602478026 176.09519090652466 L 138.9 179.6 L 129.8 182.9 L 120.0 185.5 L 109.5 187.2 L 98.3 188.1 L 98.1 186.3 L 108.7 183.5 L 118.5 180.4 L 127.5 176.8 L 135.6 172.7 L 138.70490131378173 170.78601970672608 L 134.4 166.8 L 129.9 161.5 L 126.4 155.6 L 123.9 149.3 L 122.6 142.7 L 108.4 142.7 L 108.4 138.7 L 167.1 138.7 L 167.61633462905883 138.2697211265564 L 167.7 138.1 L 167.77605638504028 138.13661975860595 L 173.1 133.7 L 184.1 142.7 L 179.1 145.7 L 176.46267414093018 146.79888582229614 L 173.9 151.2 L 168.4 158.4 L 162.1 164.8 L 156.33618631362916 169.49339113235473 L 157.3 169.9 L 164.4 172.1 L 172.2 174.0 L 180.8 175.5 L 190.3 177.1 L 178.4 188.4 L 169.2 186.1 Z M 82.5 178.8 L 77.2 175.7 L 71.4 172.6 L 69.02204151153565 171.42989339828492 L 63.6 174.9 L 55.4 179.0 L 46.6 182.5 L 37.0 185.2 L 26.9 187.1 L 16.0 188.2 L 15.7 186.5 L 26.0 183.4 L 35.5 180.0 L 44.1 176.4 L 52.0 172.3 L 59.0 167.7 L 59.7599458694458 167.1089309692383 L 58.4 166.5 L 51.2 163.5 L 43.6 160.5 L 35.5 157.4 L 27.0 154.2 L 27.4 152.5 L 36.5 153.8 L 45.1 155.4 L 53.2 157.3 L 61.0 159.4 L 66.92043943405152 161.20902318954467 L 70.8 157.4 L 75.5 151.6 L 79.6 145.4 L 80.63432836532593 143.3 L 24.5 143.3 L 24.5 139.3 L 82.3 139.3 L 82.81645565032959 138.86962022781373 L 82.9 138.7 L 82.97605638504028 138.73661975860597 L 88.3 134.3 L 99.3 143.3 L 94.3 146.3 L 91.58000001907348 147.4333333015442 L 89.2 151.4 L 83.9 158.3 L 77.9 164.5 L 77.3115385055542 164.98461542129516 L 81.6 166.7 L 87.6 169.4 L 93.3 172.3 L 98.5 175.4 L 100.9 179.3 L 100.0 183.8 L 96.1 186.2 L 91.6 185.2 L 87.3 182.0 Z M 124.67090911865235 142.7 L 127.7 147.6 L 131.4 152.4 L 135.4 156.8 L 140.0 160.7 L 145.1 164.1 L 146.94679555892944 165.0870803833008 L 149.4 163.2 L 155.1 157.7 L 160.0 151.7 L 164.2 145.2 L 165.4323944091797 142.7 Z M 110.0 135.7 L 110.0 88.075 L 108.6 89.3 L 104.4 92.7 L 99.8 95.8 L 94.9 98.6 L 93.7 97.3 L 94.28604650497437 96.6 L 71.5 96.6 L 71.5 109.1 L 82.5777777671814 109.1 L 88.8 102.1 L 96.8 109.1 L 96.8 113.1 L 71.5 113.1 L 71.5 126.9 L 86.31818180084228 126.9 L 94.5 117.9 L 104.5 126.9 L 104.5 130.9 L 39.6 130.9 L 27.6 136.9 L 27.6 88.73000001907349 L 26.3 89.9 L 22.1 93.4 L 17.5 96.5 L 12.7 99.4 L 11.5 98.0 L 15.0 93.7 L 18.4 89.5 L 21.6 85.4 L 24.6 81.3 L 27.4 77.2 L 27.6 76.88461542129517 L 27.6 69.7 L 30.963809490203857 71.38190479278565 L 32.3 69.0 L 34.5 64.8 L 36.4 60.7 L 37.738642883300784 57.3140209197998 L 37.7 57.3 L 37.96027393341065 56.753424644470215 L 38.1 56.4 L 38.12344923019409 56.41075658798218 L 38.7 55.2 L 49.0 61.4 L 50.9 64.5 L 47.056910610198976 64.8975609779358 L 46.5 65.9 L 43.8 70.3 L 40.7 74.5 L 39.76341466903686 75.7 L 62.60833330154419 75.7 L 63.4 74.7 L 64.9 72.1 L 66.3 69.7 L 67.6 67.5 L 68.7 65.3 L 69.8 63.3 L 70.7 61.4 L 71.4 59.7 L 72.0 58.0 L 72.18027210235596 57.49523811340332 L 72.0 57.4 L 73.0 55.7 L 82.6 63.0 L 84.1 66.3 L 79.22085304260254 66.13175354003906 L 78.0 67.2 L 76.2 68.6 L 74.3 70.1 L 72.2 71.6 L 70.0 73.2 L 67.7 74.8 L 66.2375 75.7 L 78.7 75.7 L 88.7 65.7 L 100.7 75.7 L 100.7 79.7 L 71.5 79.7 L 71.5 92.6 L 78.61818180084228 92.6 L 86.8 83.6 L 96.8 92.6 L 96.8 93.59722223281861 L 97.3 93.0 L 100.7 88.8 L 103.9 84.8 L 107.0 80.7 L 109.8 76.7 L 110.0 76.39230766296387 L 110.0 69.3 L 113.39622640609741 70.99811325073242 L 114.8 68.6 L 117.0 64.5 L 118.9 60.4 L 120.22324666976928 57.20864038467407 L 120.2 57.2 L 120.40754718780518 56.76415090560913 L 120.6 56.3 L 120.6233654975891 56.31093244552612 L 121.2 55.1 L 131.5 61.4 L 133.4 64.4 L 129.57035799026488 64.79616985321044 L 129.0 65.8 L 126.2 70.0 L 123.1 74.2 L 122.21999998092652 75.3 L 145.33043479919434 75.3 L 146.2 74.3 L 147.6 71.8 L 149.0 69.4 L 150.3 67.1 L 151.5 65.0 L 152.6 63.0 L 153.5 61.2 L 154.2 59.4 L 154.9 57.8 L 155.03528041839598 57.32651872634888 L 154.8 57.2 L 155.26444444656372 56.52444448471069 L 155.3 56.4 L 155.33466320037843 56.42230806350708 L 155.9 55.6 L 165.4 62.9 L 166.8 66.2 L 161.87754135131837 66.03026008605957 L 160.7 67.0 L 158.9 68.4 L 157.0 69.9 L 154.9 71.4 L 152.7 72.9 L 150.4 74.4 L 148.9375 75.3 L 165.51818180084229 75.3 L 173.7 66.3 L 183.7 75.3 L 183.7 79.3 L 154.2 79.3 L 154.2 91.9 L 161.61818180084228 91.9 L 169.8 82.9 L 179.8 91.9 L 179.8 95.9 L 154.2 95.9 L 154.2 108.1 L 165.5777777671814 108.1 L 171.8 101.1 L 179.8 108.1 L 179.8 112.1 L 154.2 112.1 L 154.2 125.7 L 169.4181818008423 125.7 L 177.6 116.7 L 187.6 125.7 L 187.6 129.7 L 122.0 129.7 Z M 39.6 113.1 L 39.6 126.9 L 59.5 126.9 L 59.5 113.1 Z M 122.0 112.1 L 122.0 125.7 L 142.2 125.7 L 142.2 112.1 Z M 39.6 96.6 L 39.6 109.1 L 59.5 109.1 L 59.5 96.6 Z M 122.0 95.9 L 122.0 108.1 L 142.2 108.1 L 142.2 95.9 Z M 39.6 79.7 L 39.6 92.6 L 59.5 92.6 L 59.5 79.7 Z M 122.0 79.3 L 122.0 91.9 L 142.2 91.9 L 142.2 79.3 Z M 66.8 48.3 L 65.7 46.5 L 64.2 44.6 L 62.4 42.6 L 60.2 40.6 L 57.8 38.5 L 55.0 36.4 L 52.0 34.1 L 49.97368421554565 33.0 L 45.18000001907349 33.0 L 42.3 36.6 L 38.3 40.9 L 34.0 45.0 L 29.2 48.9 L 24.1 52.5 L 18.5 55.9 L 12.4 58.8 L 11.5 57.3 L 16.2 52.8 L 20.7 48.4 L 24.8 44.0 L 28.5 39.7 L 31.9 35.4 L 34.9 31.1 L 37.5 26.7 L 39.7 22.3 L 41.5 17.8 L 42.66125650405884 14.316230392456054 L 42.6 14.3 L 43.5 11.9 L 54.3 17.4 L 56.4 20.3 L 52.589216804504396 21.03541431427002 L 51.9 22.5 L 49.1 27.4 L 48.010638332366945 29.0 L 84.0 29.0 L 94.0 19.0 L 106.0 29.0 L 106.0 33.0 L 57.854545497894286 33.0 L 60.4 33.8 L 63.7 35.0 L 66.7 36.4 L 69.6 37.9 L 72.2 39.6 L 74.6 41.5 L 76.8 43.5 L 78.7 45.7 L 79.2 50.3 L 76.4 53.9 L 71.9 54.4 L 68.3 51.7 L 67.7 50.1 Z M 145.8 48.3 L 144.7 46.5 L 143.2 44.6 L 141.4 42.6 L 139.2 40.6 L 136.8 38.5 L 134.0 36.4 L 131.0 34.1 L 128.97368421554566 33.0 L 123.68571424484253 33.0 L 121.2 35.9 L 117.2 40.0 L 112.9 43.7 L 108.1 47.2 L 103.0 50.5 L 97.4 53.3 L 91.4 55.8 L 90.5 54.2 L 95.3 50.1 L 99.8 46.1 L 103.9 42.2 L 107.7 38.2 L 111.0 34.2 L 114.0 30.2 L 116.5 26.0 L 118.7 21.9 L 120.5 17.6 L 121.6784930229187 14.221653270721436 L 121.6 14.2 L 122.5 11.9 L 133.2 17.4 L 135.4 20.3 L 131.44825496673585 21.049468898773192 L 130.8 22.4 L 128.0 27.1 L 126.67826089859008 29.0 L 164.0 29.0 L 174.0 19.0 L 186.0 29.0 L 186.0 33.0 L 136.8545454978943 33.0 L 139.4 33.8 L 142.7 35.0 L 145.7 36.4 L 148.6 37.9 L 151.2 39.6 L 153.6 41.5 L 155.8 43.5 L 157.7 45.7 L 158.2 50.3 L 155.4 53.9 L 150.9 54.4 L 147.3 51.7 L 146.7 50.1 Z " />
</g>
</svg>
