<svg xmlns="http://www.w3.org/2000/svg" xmlns:xlink="http://www.w3.org/1999/xlink" version="1.1" baseProfile="full" viewBox="0 0 200 200" width="200" height="200">
<g fill="black">
<path d="M 100.3 178.2 L 111.3 178.2 L 112.0 178.0 L 112.4 177.9 L 112.6 177.8 L 112.8 177.6 L 112.9 177.4 L 113.1 176.9 L 113.4 176.2 L 113.5 175.1 L 113.6 173.7 L 113.6 158.1 L 88.8 158.1 L 88.8 183.9 L 76.8 189.9 L 76.8 111.0 L 88.8 117.0 L 113.6 117.0 L 119.1 112.0 L 129.6 121.0 L 124.6 124.5 L 124.6 173.7 L 124.5 176.2 L 124.1 178.5 L 123.4 180.8 L 122.4 182.9 L 121.0 184.9 L 119.3 186.5 L 117.2 187.8 L 115.0 188.6 L 112.7 189.1 L 110.3 189.2 L 110.3 183.7 L 100.3 181.0 Z M 13.1 172.1 L 17.6 171.1526315689087 L 17.6 119.5 L 28.6 121.5 L 31.3 123.5 L 28.6 125.22340421676635 L 28.6 168.59298248291014 L 30.2 168.2 L 35.9 166.7 L 37.7 166.217857170105 L 37.7 103.6 L 29.1 103.6 L 17.1 109.6 L 17.1 55.7 L 29.1 61.7 L 55.3 61.7 L 61.3 56.7 L 72.3 65.7 L 67.3 69.7 L 67.3 109.6 L 55.3 115.6 L 55.3 103.6 L 48.7 103.6 L 48.7 132.0 L 55.077777767181395 132.0 L 61.3 125.0 L 69.3 132.0 L 69.3 136.0 L 48.7 136.0 L 48.7 163.27894735336304 L 58.6 160.5 L 64.4 159.0 L 70.3 157.6 L 71.0 159.3 L 65.9 162.5 L 60.6 165.5 L 55.3 168.3 L 44.3 173.3 L 38.8 175.6 L 33.2 177.8 L 27.6 179.9 L 20.219999980926513 182.36000003814698 L 18.9 186.1 L 16.2 183.7 L 11.2 172.7 Z M 186.2 157.8 L 188.2 157.8 L 186.2 174.8 L 189.2 176.8 L 191.2 179.8 L 189.2 182.8 L 186.2 184.8 L 151.0 184.8 L 148.6 184.7 L 146.2 184.3 L 143.9 183.6 L 141.7 182.5 L 139.8 181.0 L 138.2 179.1 L 137.0 177.0 L 136.2 174.7 L 135.7 172.3 L 135.5 169.8 L 135.5 98.8 L 146.5 104.3 L 172.0 104.3 L 172.0 88.6 L 147.0 88.6 L 135.0 94.6 L 135.0 50.0 L 147.0 52.0 L 150.0 54.0 L 147.0 55.8 L 147.0 66.4 L 169.4181818008423 66.4 L 177.6 57.4 L 187.6 66.4 L 187.6 70.4 L 147.0 70.4 L 147.0 84.6 L 172.0 84.6 L 178.0 79.6 L 189.0 88.6 L 184.0 92.6 L 184.0 108.3 L 172.0 114.3 L 172.0 108.3 L 146.5 108.3 L 146.5 122.5 L 162.51818180084229 122.5 L 170.7 113.5 L 180.7 122.5 L 180.7 126.5 L 146.5 126.5 L 146.5 139.1 L 162.51818180084229 139.1 L 170.7 130.1 L 180.7 139.1 L 180.7 143.1 L 146.5 143.1 L 146.5 155.7 L 162.51818180084229 155.7 L 170.7 146.7 L 180.7 155.7 L 180.7 159.7 L 146.5 159.7 L 146.5 171.1 L 146.6 172.1 L 146.8 172.8 L 147.2 173.6 L 147.5 173.9 L 147.9 174.1 L 148.6 174.4 L 149.7 174.7 L 151.0 174.8 L 181.2 174.8 Z M 88.8 139.9 L 88.8 154.1 L 113.6 154.1 L 113.6 139.9 Z M 88.8 121.0 L 88.8 135.9 L 113.6 135.9 L 113.6 121.0 Z M 123.1 78.3 L 125.3 81.1 L 121.1262734413147 82.06890077590943 L 120.6 83.0 L 119.2 85.4 L 117.7 87.8 L 116.1 90.3 L 114.4 92.7 L 112.7 95.2 L 110.8 97.7 L 108.7 100.1 L 108.5 100.4 L 117.8777777671814 100.4 L 124.1 93.4 L 132.1 100.4 L 132.1 104.4 L 70.4 104.4 L 70.4 100.4 L 105.86896553039551 100.4 L 106.4 99.0 L 107.1 95.9 L 107.8 92.9 L 108.6 90.0 L 109.8 84.6 L 110.4 82.0 L 110.9 79.4 L 111.54424657821656 75.53452053070069 L 111.4 75.5 L 112.2 73.1 Z M 84.7 89.1 L 84.3 87.1 L 84.0 85.1 L 83.0 81.1 L 82.4 79.1 L 81.8 77.0 L 80.7 75.3 L 82.1 74.1 L 83.6 75.6 L 85.5 76.9 L 87.2 78.4 L 88.9 80.1 L 90.5 81.8 L 91.9 83.7 L 93.3 85.8 L 94.6 87.9 L 96.8 92.5 L 96.0 97.0 L 92.4 99.7 L 87.9 99.0 L 85.1 95.3 L 84.9 91.1 Z M 29.1 65.7 L 29.1 99.6 L 55.3 99.6 L 55.3 65.7 Z M 71.8 68.0 L 95.3 68.0 L 95.3 50.0 L 107.3 52.0 L 110.3 54.0 L 107.3 55.8 L 107.3 68.0 L 112.51818180084229 68.0 L 120.7 59.0 L 130.7 68.0 L 130.7 72.0 L 71.8 72.0 Z M 67.9 45.8 L 66.7 44.1 L 65.2 42.2 L 63.4 40.3 L 61.3 38.3 L 58.8 36.3 L 56.1 34.2 L 53.0 32.0 L 51.03157892227173 30.9 L 46.313953495025636 30.9 L 43.3 34.5 L 39.3 38.7 L 34.9 42.6 L 30.2 46.4 L 25.0 49.9 L 19.5 53.0 L 13.4 55.9 L 12.5 54.4 L 17.3 49.9 L 21.7 45.6 L 25.8 41.4 L 29.6 37.2 L 32.9 33.1 L 35.9 28.8 L 38.5 24.6 L 40.7 20.3 L 42.5 16.1 L 43.6540114402771 12.714899730682372 L 43.6 12.7 L 44.5 10.3 L 55.2 15.9 L 57.4 18.8 L 53.40884408950806 19.556943321228026 L 52.8 20.8 L 50.0 25.6 L 49.12391300201416 26.9 L 85.0 26.9 L 95.0 16.9 L 107.0 26.9 L 107.0 30.9 L 59.3 30.9 L 61.4 31.5 L 64.6 32.7 L 67.7 34.0 L 70.5 35.5 L 73.1 37.1 L 75.5 38.8 L 77.7 40.8 L 79.6 42.9 L 80.2 47.5 L 77.5 51.2 L 72.9 51.7 L 69.3 49.0 L 68.7 47.5 Z M 146.9 45.8 L 145.7 44.1 L 144.2 42.2 L 142.4 40.3 L 140.3 38.3 L 137.8 36.3 L 135.1 34.2 L 132.0 32.0 L 130.03157892227173 30.9 L 123.65161294937134 30.9 L 120.8 33.5 L 117.2 36.4 L 113.2 39.1 L 108.9 41.6 L 104.3 43.7 L 99.4 45.8 L 98.5 44.2 L 102.5 40.9 L 106.1 37.6 L 109.3 34.3 L 112.3 31.1 L 114.9 27.8 L 117.2 24.6 L 119.1 21.4 L 120.7 18.2 L 122.0 15.0 L 122.68948888778687 12.724686622619629 L 122.6 12.7 L 123.5 10.3 L 134.2 15.9 L 136.4 18.8 L 132.3155729293823 19.574632740020753 L 132.2 19.8 L 129.9 23.5 L 127.27714281082153 26.9 L 165.0 26.9 L 175.0 16.9 L 187.0 26.9 L 187.0 30.9 L 138.3 30.9 L 140.4 31.5 L 143.6 32.7 L 146.7 34.0 L 149.5 35.5 L 152.1 37.1 L 154.5 38.8 L 156.7 40.8 L 158.6 42.9 L 159.2 47.5 L 156.5 51.2 L 151.9 51.7 L 148.3 49.0 L 147.7 47.5 Z " />
</g>
</svg>
