<svg xmlns="http://www.w3.org/2000/svg" xmlns:xlink="http://www.w3.org/1999/xlink" version="1.1" baseProfile="full" viewBox="0 0 200 200" width="200" height="200">
<g fill="black">
<path d="M 157.1 175.8 L 149.2 172.4 L 141.6 168.7 L 134.5 164.8 L 127.8 160.6 L 121.6 156.1 L 115.8 151.3 L 110.6 146.1 L 106.6625 141.2 L 106.0 141.2 L 106.0 181.7 L 94.0 187.7 L 94.0 149.03181819915773 L 87.7 153.9 L 80.7 158.6 L 73.0 163.0 L 64.9 167.0 L 56.2 170.7 L 47.0 173.9 L 37.3 176.8 L 27.0 179.1 L 16.2 181.0 L 15.7 179.2 L 25.9 175.5 L 35.6 171.7 L 44.6 167.8 L 53.1 163.7 L 61.0 159.5 L 68.3 155.0 L 75.0 150.3 L 81.1 145.5 L 85.73725490570068 141.2 L 21.0 141.2 L 21.0 137.2 L 94.0 137.2 L 94.0 100.6 L 106.0 102.6 L 109.0 104.6 L 106.0 106.4 L 106.0 137.2 L 116.33999996185302 137.2 L 115.5 135.8 L 120.7 131.7 L 125.4 127.9 L 129.7 124.4 L 133.6 121.4 L 137.1 118.6 L 140.1 116.1 L 142.7 113.9 L 144.8 112.1 L 146.4 110.5 L 146.85066080093384 109.96740083694458 L 146.7 109.8 L 147.37058820724488 109.35294113159179 L 147.5 109.2 L 147.53364057540892 109.24423961639404 L 147.6 109.2 L 154.8 118.8 L 155.0 122.4 L 150.8673469543457 120.71632652282715 L 148.1 122.1 L 145.0 123.6 L 137.4 127.4 L 132.9 129.6 L 127.9 132.0 L 122.4 134.5 L 116.61428575515747 137.2 L 157.0 137.2 L 167.0 127.2 L 179.0 137.2 L 179.0 141.2 L 110.54324321746826 141.2 L 113.3 142.9 L 119.3 146.5 L 125.5 150.0 L 132.0 153.3 L 138.8 156.5 L 145.9 159.4 L 153.3 162.2 L 161.1 164.7 L 169.2 167.0 L 177.7 169.1 L 185.9 171.3 L 174.2 181.8 L 165.5 179.0 Z M 64.9 129.8 L 63.7 128.1 L 62.1 126.3 L 60.2 124.3 L 57.9 122.3 L 55.3 120.1 L 52.4 117.9 L 49.2 115.5 L 45.5 113.3 L 46.2 111.7 L 50.3 113.1 L 54.3 114.2 L 57.9 115.4 L 61.3 116.6 L 64.4 118.0 L 67.2 119.4 L 69.8 120.9 L 72.2 122.5 L 74.4 124.2 L 76.3 126.1 L 77.1 130.6 L 74.6 134.4 L 70.1 135.2 L 66.3 132.7 L 65.8 131.4 Z M 158.6 113.0 L 149.9 109.6 L 141.6 105.8 L 133.5 101.6 L 125.7 97.1 L 118.3 92.3 L 111.1 87.0 L 104.4 81.3 L 102.78000001907348 79.68000001907349 L 102.37931032180786 79.56551723480224 L 98.1 83.2 L 90.3 89.0 L 82.1 94.4 L 73.5 99.4 L 64.4 104.0 L 54.8 108.2 L 44.8 112.0 L 34.4 115.4 L 23.5 118.2 L 12.1 120.5 L 11.6 118.7 L 22.3 114.6 L 32.6 110.3 L 42.3 105.9 L 51.6 101.3 L 60.4 96.5 L 68.7 91.4 L 76.5 86.0 L 83.9 80.4 L 90.7 74.5 L 93.53278684616089 71.8 L 39.0 71.8 L 39.0 74.8 L 27.0 80.8 L 27.0 46.8 L 39.0 48.8 L 42.0 50.8 L 39.0 52.6 L 39.0 67.8 L 94.0 67.8 L 94.0 41.0 L 47.8 41.0 L 35.8 47.0 L 35.8 17.1 L 47.8 19.1 L 50.8 21.1 L 47.8 22.9 L 47.8 37.0 L 94.0 37.0 L 94.0 11.8 L 106.0 13.8 L 109.0 15.8 L 106.0 17.6 L 106.0 37.0 L 152.2 37.0 L 152.2 17.1 L 164.2 19.1 L 167.2 21.1 L 164.2 22.9 L 164.2 41.0 L 152.2 47.0 L 152.2 41.0 L 106.0 41.0 L 106.0 67.8 L 160.9 67.8 L 160.9 46.8 L 172.9 48.8 L 175.9 50.8 L 172.9 52.6 L 172.9 73.8 L 160.9 79.8 L 160.9 71.8 L 100.66741571426391 71.8 L 105.4 77.0 L 105.41304349899292 77.07826089859009 L 106.9 77.9 L 114.4 82.1 L 122.0 86.1 L 129.7 89.8 L 137.6 93.2 L 145.6 96.4 L 153.8 99.3 L 162.3 101.8 L 170.9 104.1 L 179.7 106.1 L 188.3 108.2 L 176.6 118.9 L 167.4 116.2 Z " />
</g>
</svg>
