<svg xmlns="http://www.w3.org/2000/svg" xmlns:xlink="http://www.w3.org/1999/xlink" version="1.1" baseProfile="full" viewBox="0 0 200 200" width="200" height="200">
<g fill="black">
<path d="M 17.4 177.2 L 94.0 177.2 L 94.0 155.9 L 44.3 155.9 L 44.3 151.9 L 94.0 151.9 L 94.0 129.1 L 106.0 131.1 L 109.0 133.1 L 106.0 134.9 L 106.0 151.9 L 133.6 151.9 L 143.6 141.9 L 155.6 151.9 L 155.6 155.9 L 106.0 155.9 L 106.0 177.2 L 160.5 177.2 L 170.5 167.2 L 182.5 177.2 L 182.5 181.2 L 17.4 181.2 Z M 164.6 151.9 L 158.9 148.9 L 153.6 145.7 L 148.8 142.2 L 144.4 138.5 L 140.4 134.5 L 136.9 130.3 L 134.0 125.8 L 132.075 121.6 L 73.8625 121.6 L 73.0 122.8 L 69.4 127.5 L 65.3 131.9 L 60.7 136.0 L 55.6 139.8 L 50.1 143.4 L 44.1 146.7 L 37.6 149.8 L 30.7 152.6 L 23.2 155.0 L 15.3 157.0 L 14.6 155.3 L 21.8 151.5 L 28.4 147.7 L 34.6 144.0 L 40.2 140.2 L 45.3 136.4 L 49.9 132.5 L 53.9 128.6 L 57.4 124.6 L 59.59512195587158 121.6 L 20.0 121.6 L 20.0 117.6 L 70.0 117.6 L 70.0 98.5 L 28.0 98.5 L 28.0 94.5 L 70.0 94.5 L 70.0 74.1 L 82.0 76.1 L 85.0 78.1 L 82.0 79.9 L 82.0 94.5 L 119.0 94.5 L 119.0 74.1 L 131.0 76.1 L 134.0 78.1 L 131.0 79.9 L 131.0 94.5 L 150.0 94.5 L 160.0 84.5 L 172.0 94.5 L 172.0 98.5 L 131.0 98.5 L 131.0 117.6 L 159.0 117.6 L 169.0 107.6 L 181.0 117.6 L 181.0 121.6 L 135.371875 121.6 L 137.2 123.1 L 141.1 126.2 L 145.1 129.1 L 149.4 131.9 L 153.9 134.4 L 158.7 136.8 L 163.8 139.0 L 169.1 141.0 L 174.8 142.9 L 180.9 144.5 L 188.7 146.9 L 177.0 157.1 L 170.6 154.6 Z M 82.0 98.5 L 82.0 117.6 L 119.0 117.6 L 119.0 98.5 Z M 156.8 72.8 L 149.1 70.0 L 141.6 67.0 L 134.6 63.8 L 128.0 60.4 L 121.8 56.8 L 116.1 52.9 L 110.8 48.7 L 106.9 44.8 L 106.0 44.8 L 106.0 75.9 L 94.0 81.9 L 94.0 51.62666664123535 L 93.9 51.7 L 87.5 55.9 L 80.5 59.8 L 73.1 63.5 L 65.2 66.8 L 56.8 69.9 L 47.9 72.7 L 38.5 75.1 L 28.6 77.2 L 18.2 78.8 L 17.7 77.0 L 27.6 73.5 L 36.9 70.0 L 45.7 66.4 L 54.0 62.8 L 61.7 59.1 L 68.9 55.2 L 75.5 51.2 L 81.5 47.0 L 84.27619047164917 44.8 L 18.0 44.8 L 18.0 40.8 L 94.0 40.8 L 94.0 13.3 L 106.0 15.3 L 109.0 17.3 L 106.0 19.1 L 106.0 40.8 L 160.0 40.8 L 170.0 30.8 L 182.0 40.8 L 182.0 44.8 L 112.20769233703614 44.8 L 113.1 45.2 L 119.0 47.8 L 125.1 50.4 L 131.5 52.8 L 138.2 55.2 L 145.1 57.4 L 152.5 59.5 L 160.1 61.4 L 168.1 63.2 L 176.4 64.8 L 185.3 66.8 L 173.5 77.7 L 165.0 75.3 Z M 149.6 22.0 L 150.3 25.5 L 146.23606910705567 24.556587505340577 L 144.6 25.8 L 142.0 27.8 L 139.4 29.7 L 136.6 31.5 L 133.8 33.4 L 127.8 37.0 L 124.6 38.7 L 121.5 40.6 L 120.4 39.2 L 122.8 36.6 L 125.0 33.7 L 127.2 31.0 L 131.4 25.8 L 133.5 23.3 L 135.4 20.8 L 139.2 16.0 L 140.31430225372316 14.492414569854736 L 140.2 14.4 L 141.2 13.3 Z M 64.7 33.3 L 63.7 31.2 L 62.3 29.1 L 60.8 27.0 L 59.0 24.7 L 57.0 22.5 L 54.7 20.1 L 52.3 17.7 L 49.4 15.5 L 50.3 14.0 L 53.6 15.4 L 57.0 16.7 L 60.1 18.1 L 63.1 19.7 L 65.9 21.4 L 68.4 23.1 L 70.8 25.1 L 73.0 27.1 L 75.0 29.3 L 76.9 31.6 L 77.2 36.2 L 74.3 39.7 L 69.8 40.1 L 66.2 37.2 L 65.6 35.3 Z " />
</g>
</svg>
