<svg xmlns="http://www.w3.org/2000/svg" xmlns:xlink="http://www.w3.org/1999/xlink" version="1.1" baseProfile="full" viewBox="0 0 200 200" width="200" height="200">
<g fill="black">
<path d="M 70.9 127.4 L 69.0 124.3 L 66.8 121.2 L 64.5 118.0 L 62.1 114.8 L 59.4 111.5 L 56.6 108.2 L 56.3 107.83793106079102 L 56.3 181.0 L 44.3 187.0 L 44.3 115.88965520858764 L 44.2 116.2 L 40.8 124.9 L 37.2 133.1 L 33.1 140.9 L 28.6 148.3 L 23.8 155.3 L 18.5 161.7 L 12.7 167.5 L 11.3 166.4 L 15.4 159.5 L 19.3 152.4 L 22.9 145.1 L 26.3 137.6 L 29.3 129.8 L 32.1 121.7 L 34.6 113.2 L 36.7 104.5 L 38.6 95.4 L 39.59047622680664 89.0 L 12.9 89.0 L 12.9 85.0 L 44.3 85.0 L 44.3 14.0 L 56.3 16.0 L 59.3 18.0 L 56.3 19.8 L 56.3 85.0 L 64.8 85.0 L 74.8 75.0 L 86.8 85.0 L 86.8 89.0 L 56.3 89.0 L 56.3 102.54499998092652 L 59.7 104.5 L 63.5 107.1 L 67.1 109.7 L 70.4 112.4 L 73.6 115.3 L 76.6 118.1 L 79.4 121.1 L 82.0 124.1 L 84.4 127.3 L 85.1 131.8 L 82.4 135.5 L 77.9 136.2 L 74.2 133.5 L 72.6 130.5 Z M 149.9 155.0 L 161.9 155.0 L 163.1 154.9 L 164.1 154.7 L 164.6 154.5 L 165.0 154.4 L 165.2 154.2 L 165.3 154.0 L 165.5 153.7 L 165.7 153.1 L 165.8 152.2 L 165.9 151.0 L 165.9 112.0 L 132.6 112.0 L 132.6 181.0 L 120.6 187.0 L 120.6 112.0 L 82.9 112.0 L 82.9 108.0 L 165.9 108.0 L 171.9 103.0 L 182.9 112.0 L 177.9 116.0 L 177.9 151.0 L 177.8 153.5 L 177.3 156.0 L 176.5 158.4 L 175.3 160.7 L 173.7 162.7 L 171.6 164.3 L 169.4 165.6 L 167.0 166.4 L 164.5 166.8 L 161.9 167.0 L 161.9 161.0 L 149.9 158.0 Z M 165.7 85.9 L 160.3 78.8 L 155.2 71.3 L 150.4 63.4 L 146.0 55.2 L 142.0 46.6 L 138.4 37.5 L 135.3 28.1 L 135.29916496276854 28.096693420410155 L 134.9 29.1 L 130.9 38.1 L 126.4 46.9 L 121.5 55.5 L 116.2 63.9 L 110.6 72.0 L 104.5 79.9 L 98.0 87.5 L 91.0 94.7 L 83.5 101.6 L 82.2 100.3 L 88.1 92.2 L 93.8 84.1 L 99.2 76.0 L 104.3 67.8 L 109.0 59.5 L 113.3 51.1 L 117.4 42.5 L 121.0 33.8 L 124.3 25.0 L 126.99236841201783 16.922894763946534 L 126.9 16.9 L 127.8 14.5 L 134.2772110939026 17.678631401062013 L 134.5 17.6 L 134.63016452789307 17.851840019226074 L 138.6 19.8 L 140.8 22.7 L 137.49552001953126 23.395680046081544 L 139.1 26.5 L 143.8 35.1 L 148.5 43.3 L 153.3 51.1 L 158.3 58.4 L 163.5 65.4 L 168.9 71.9 L 174.5 78.0 L 180.4 83.7 L 186.4 89.0 L 188.4 90.8 L 177.6 98.9 L 171.5 92.6 Z M 159.3 83.0 L 159.3 87.0 L 107.2 87.0 L 107.2 83.0 L 137.3 83.0 L 147.3 73.0 Z M 84.5 32.9 L 86.6 35.8 L 82.83361082077026 36.52684707641602 L 82.8 36.6 L 80.9 40.4 L 79.0 44.3 L 76.9 48.3 L 74.6 52.4 L 72.2 56.6 L 69.6 60.9 L 66.8 65.4 L 63.7 69.8 L 60.4 74.4 L 58.8 73.5 L 60.5 68.2 L 62.1 63.1 L 63.8 58.2 L 65.4 53.5 L 67.0 49.0 L 68.4 44.6 L 69.8 40.4 L 71.0 36.4 L 72.1 32.6 L 72.92276229858399 29.832526779174806 L 72.8 29.8 L 73.7 27.4 Z M 27.0 62.7 L 26.4 59.2 L 25.7 55.6 L 24.8 51.8 L 23.8 47.9 L 22.6 43.8 L 21.3 39.4 L 20.0 34.9 L 18.5 30.3 L 20.1 29.4 L 22.9 33.5 L 25.7 37.4 L 28.1 41.4 L 30.3 45.2 L 32.3 49.0 L 34.1 52.7 L 35.8 56.4 L 37.2 60.0 L 38.4 63.5 L 39.5 66.9 L 38.4 71.4 L 34.6 73.9 L 30.2 72.9 L 27.7 69.1 L 27.4 66.0 Z " />
</g>
</svg>
