<svg xmlns="http://www.w3.org/2000/svg" xmlns:xlink="http://www.w3.org/1999/xlink" version="1.1" baseProfile="full" viewBox="0 0 200 200" width="200" height="200">
<g fill="black">
<path d="M 65.1 127.2 L 63.4 124.1 L 61.5 121.0 L 59.4 117.8 L 54.8 111.4 L 52.5 108.4807692527771 L 52.5 181.0 L 40.5 187.0 L 40.5 118.34516124725342 L 38.2 124.8 L 34.7 133.0 L 30.9 140.8 L 26.8 148.2 L 22.3 155.2 L 17.3 161.6 L 11.9 167.5 L 10.4 166.4 L 14.1 159.5 L 17.6 152.5 L 21.0 145.2 L 24.0 137.7 L 26.8 129.9 L 29.4 121.8 L 31.6 113.3 L 33.6 104.6 L 35.2 95.5 L 36.117647075653075 89.0 L 11.9 89.0 L 11.9 85.0 L 40.5 85.0 L 40.5 14.0 L 52.5 16.0 L 55.5 18.0 L 52.5 19.8 L 52.5 85.0 L 58.2 85.0 L 68.2 75.0 L 80.2 85.0 L 80.2 89.0 L 52.5 89.0 L 52.5 102.81891889572144 L 55.4 104.7 L 58.9 107.2 L 62.3 109.8 L 65.4 112.6 L 68.4 115.4 L 71.2 118.3 L 73.8 121.2 L 76.2 124.3 L 78.5 127.4 L 79.0 131.9 L 76.2 135.6 L 71.7 136.1 L 68.0 133.3 L 66.6 130.3 Z M 69.6 174.2 L 86.3 174.2 L 86.3 113.7 L 98.3 119.7 L 160.9 119.7 L 166.9 114.7 L 177.9 123.7 L 172.9 127.7 L 172.9 174.2 L 176.0 174.2 L 180.5 168.2 L 186.5 174.2 L 186.5 178.2 L 69.6 178.2 Z M 98.3 123.7 L 98.3 174.2 L 111.2 174.2 L 111.2 123.7 Z M 123.2 123.7 L 123.2 174.2 L 136.0 174.2 L 136.0 123.7 Z M 148.0 123.7 L 148.0 174.2 L 160.9 174.2 L 160.9 123.7 Z M 104.6 100.9 L 120.6 100.9 L 121.9 100.8 L 122.8 100.6 L 123.4 100.5 L 123.7 100.3 L 123.9 100.1 L 124.0 99.9 L 124.2 99.6 L 124.4 99.0 L 124.6 98.1 L 124.6 71.3 L 75.8 71.3 L 75.8 67.3 L 124.6 67.3 L 124.6 46.5 L 131.58028173446655 47.663380241394044 L 135.8 44.8 L 140.9 41.3 L 145.6 38.0 L 149.9 35.0 L 153.6 32.3 L 156.9 29.8 L 158.23913040161133 28.7 L 87.2 28.7 L 87.2 24.7 L 162.8 24.7 L 163.7 23.8 L 164.8 22.3 L 165.23404483795167 22.754962635040282 L 168.9 19.7 L 179.9 28.7 L 174.9 31.7 L 165.58888893127443 35.579629611969 L 165.2 35.8 L 161.7 37.5 L 157.8 39.4 L 153.5 41.4 L 148.6 43.5 L 143.3 45.7 L 137.4 47.9 L 136.04615383148194 48.40769233703613 L 136.6 48.5 L 139.6 50.5 L 136.6 52.3 L 136.6 67.3 L 163.5 67.3 L 173.5 57.3 L 185.5 67.3 L 185.5 71.3 L 136.6 71.3 L 136.6 96.9 L 136.5 99.4 L 136.1 101.9 L 135.3 104.3 L 134.0 106.6 L 132.4 108.6 L 130.4 110.3 L 128.1 111.5 L 125.7 112.3 L 123.2 112.7 L 120.6 112.9 L 120.6 106.9 L 104.6 103.9 Z M 78.6 32.8 L 80.8 35.6 L 77.01599159240723 36.46301946640015 L 77.0 36.5 L 75.2 40.2 L 73.4 44.1 L 69.3 52.3 L 67.0 56.5 L 64.6 60.9 L 61.9 65.3 L 59.0 69.8 L 55.9 74.3 L 54.3 73.6 L 55.8 68.3 L 57.3 63.2 L 58.7 58.3 L 60.2 53.6 L 61.6 49.1 L 62.9 44.8 L 64.1 40.6 L 65.2 36.6 L 66.2 32.7 L 66.92191133499145 30.028928089141846 L 66.8 30.0 L 67.7 27.5 Z M 24.6 62.6 L 24.1 59.1 L 23.4 55.5 L 22.6 51.8 L 21.7 47.8 L 20.7 43.7 L 19.6 39.4 L 18.5 34.9 L 17.1 30.2 L 18.7 29.5 L 21.3 33.6 L 24.0 37.5 L 26.3 41.4 L 28.4 45.3 L 30.2 49.1 L 32.0 52.8 L 33.5 56.5 L 34.8 60.1 L 36.0 63.6 L 37.0 67.0 L 35.9 71.4 L 32.1 73.9 L 27.6 72.8 L 25.2 69.0 L 24.9 65.9 Z " />
</g>
</svg>
