<svg xmlns="http://www.w3.org/2000/svg" xmlns:xlink="http://www.w3.org/1999/xlink" version="1.1" baseProfile="full" viewBox="0 0 200 200" width="200" height="200">
<g fill="black">
<path d="M 175.1 177.5 L 174.3 174.2 L 173.3 170.8 L 172.1 167.4 L 170.8 163.9 L 167.6 156.5 L 165.8 152.6 L 163.7 148.7 L 165.1 147.6 L 171.4 153.9 L 174.2 157.1 L 176.8 160.4 L 179.2 163.8 L 181.3 167.1 L 183.3 170.5 L 185.0 174.0 L 186.5 177.5 L 187.8 181.0 L 187.0 185.5 L 183.3 188.2 L 178.8 187.4 L 176.1 183.7 L 175.7 180.6 Z M 70.9 184.4 L 71.3 179.8 L 74.7 176.8 L 77.3 176.1 L 79.7 175.1 L 82.0 173.6 L 84.3 171.6 L 86.5 169.0 L 88.5 165.9 L 90.4 162.1 L 92.2 157.8 L 93.9 152.9 L 95.3 147.4 L 97.1 147.5 L 97.1 153.3 L 96.9 158.8 L 96.2 163.9 L 95.0 168.6 L 93.5 172.9 L 91.5 176.9 L 88.9 180.5 L 85.9 183.6 L 82.4 186.2 L 78.5 188.2 L 73.9 187.8 Z M 77.9 135.6043478012085 L 74.1 136.1 L 70.5 133.4 L 69.0 130.3 L 67.4 127.3 L 65.6 124.2 L 63.7 121.0 L 61.6 117.9 L 59.3 114.7 L 56.8 111.4 L 54.4 108.35384616851806 L 54.4 181.0 L 42.4 187.0 L 42.4 117.50322580337524 L 39.8 124.8 L 36.3 133.0 L 32.4 140.9 L 28.2 148.3 L 23.6 155.2 L 18.6 161.6 L 13.1 167.5 L 11.6 166.4 L 15.4 159.5 L 19.0 152.4 L 22.4 145.2 L 25.5 137.7 L 28.4 129.9 L 31.0 121.8 L 33.3 113.3 L 35.3 104.5 L 37.0 95.4 L 37.91428575515747 89.0 L 13.2 89.0 L 13.2 85.0 L 42.4 85.0 L 42.4 14.0 L 54.4 16.0 L 57.4 18.0 L 54.4 19.8 L 54.4 85.0 L 60.8 85.0 L 70.8 75.0 L 82.8 85.0 L 82.8 89.0 L 54.4 89.0 L 54.4 102.78421049118042 L 57.4 104.6 L 61.0 107.2 L 64.4 109.8 L 67.6 112.5 L 70.6 115.4 L 73.4 118.2 L 76.1 121.2 L 78.5 124.2 L 80.8 127.4 L 81.4 131.9 L 79.525 134.4 L 126.7 134.4 L 126.7 109.7 L 87.7 109.7 L 87.7 105.7 L 126.7 105.7 L 126.7 80.2 L 100.9 80.2 L 100.9 87.2 L 88.9 93.2 L 88.9 15.2 L 100.9 21.2 L 164.5 21.2 L 170.5 16.2 L 181.5 25.2 L 176.5 29.2 L 176.5 84.2 L 164.5 90.2 L 164.5 80.2 L 138.7 80.2 L 138.7 105.7 L 155.7 105.7 L 165.7 95.7 L 177.7 105.7 L 177.7 109.7 L 138.7 109.7 L 138.7 134.4 L 165.5 134.4 L 175.5 124.4 L 187.5 134.4 L 187.5 138.4 L 77.9 138.4 Z M 116.0 174.9 L 116.0 172.3 L 115.9 169.5 L 115.6 166.6 L 115.2 163.5 L 114.7 160.3 L 114.0 156.9 L 113.3 153.2 L 112.1 149.6 L 113.7 148.8 L 115.7 152.1 L 117.9 155.2 L 119.8 158.4 L 121.5 161.5 L 123.0 164.5 L 124.3 167.6 L 125.4 170.6 L 126.3 173.6 L 127.0 176.6 L 127.5 179.5 L 125.7 183.7 L 121.5 185.5 L 117.3 183.7 L 115.5 179.5 L 115.8 177.3 Z M 145.1 174.7 L 144.8 171.9 L 144.4 169.0 L 143.6 165.9 L 142.7 162.8 L 141.6 159.4 L 140.2 156.0 L 138.7 152.3 L 136.6 148.7 L 138.1 147.6 L 141.0 150.7 L 143.9 153.6 L 146.4 156.6 L 148.7 159.7 L 150.8 162.8 L 152.6 166.0 L 154.1 169.3 L 155.3 172.5 L 156.3 175.9 L 157.0 179.2 L 155.4 183.5 L 151.3 185.5 L 147.0 183.9 L 145.0 179.8 L 145.2 177.3 Z M 100.9 25.2 L 100.9 76.2 L 126.7 76.2 L 126.7 25.2 Z M 138.7 25.2 L 138.7 76.2 L 164.5 76.2 L 164.5 39.06964282989502 L 160.94455442428588 40.275954723358154 L 160.0 42.3 L 158.5 45.4 L 156.8 48.5 L 155.0 51.6 L 152.9 54.8 L 150.6 58.0 L 148.1 61.2 L 145.3 64.5 L 142.6 67.9 L 141.1 66.9 L 142.8 63.0 L 144.2 59.0 L 145.6 55.3 L 146.8 51.8 L 147.8 48.4 L 148.8 45.1 L 149.5 42.0 L 150.1 39.1 L 150.5 36.3 L 150.6833227157593 34.71120309829712 L 150.6 34.7 L 150.7833333015442 33.84444446563721 L 150.8 33.7 L 150.81363639831542 33.703030300140384 L 151.2 31.9 L 162.5 36.3 L 164.5 38.380000019073485 L 164.5 25.2 Z M 80.9 32.8 L 83.1 35.7 L 79.3 36.5 L 77.6 40.3 L 75.7 44.2 L 73.7 48.2 L 71.5 52.3 L 69.2 56.5 L 66.7 60.9 L 64.1 65.3 L 61.1 69.8 L 58.0 74.3 L 56.3 73.6 L 57.9 68.3 L 59.4 63.2 L 60.9 58.3 L 62.4 53.6 L 63.8 49.1 L 65.2 44.7 L 66.4 40.5 L 67.6 36.5 L 68.6 32.7 L 69.2764705657959 29.918954277038573 L 69.2 29.9 L 70.0 27.5 Z M 26.1 62.6 L 25.6 59.2 L 24.9 55.6 L 24.1 51.8 L 23.2 47.8 L 22.1 43.7 L 21.0 39.4 L 19.8 34.9 L 18.4 30.2 L 20.0 29.5 L 22.7 33.5 L 25.3 37.5 L 27.7 41.4 L 29.8 45.3 L 31.7 49.1 L 33.5 52.8 L 35.0 56.5 L 36.4 60.1 L 37.6 63.6 L 38.6 67.0 L 37.5 71.4 L 33.6 73.9 L 29.2 72.8 L 26.7 69.0 L 26.5 65.9 Z M 112.1 54.7 L 111.7 52.1 L 111.1 49.4 L 110.5 46.8 L 108.7 41.6 L 107.6 39.0 L 106.4 36.3 L 104.7 33.8 L 106.0 32.6 L 108.3 34.6 L 110.8 36.5 L 113.1 38.6 L 115.2 40.9 L 117.2 43.4 L 119.0 46.0 L 120.6 48.8 L 122.0 51.7 L 123.3 54.8 L 124.4 57.9 L 123.3 62.4 L 119.5 64.9 L 115.1 63.9 L 112.6 60.1 L 112.4 57.4 Z " />
</g>
</svg>
