<svg xmlns="http://www.w3.org/2000/svg" xmlns:xlink="http://www.w3.org/1999/xlink" version="1.1" baseProfile="full" viewBox="0 0 200 200" width="200" height="200">
<g fill="black">
<path d="M 167.2 166.5 L 162.4 161.8 L 157.9 156.5 L 153.6 150.8 L 149.7 144.7 L 146.1 138.0 L 142.8 130.9 L 140.0 123.56206893920898 L 140.0 184.0 L 128.0 190.0 L 128.0 130.8133333206177 L 126.8 133.0 L 122.0 140.7 L 116.8 148.1 L 111.3 155.0 L 105.5 161.5 L 99.3 167.6 L 92.7 173.2 L 85.8 178.2 L 78.5 182.7 L 77.4 181.2 L 83.4 175.3 L 89.1 169.3 L 94.5 163.1 L 99.7 156.6 L 104.6 149.9 L 109.1 142.9 L 113.4 135.5 L 117.4 127.9 L 121.0 119.9 L 122.58644065856933 116.0 L 85.0 116.0 L 85.0 112.0 L 128.0 112.0 L 128.0 92.0 L 140.0 94.0 L 143.0 96.0 L 140.0 97.8 L 140.0 112.0 L 163.0 112.0 L 173.0 102.0 L 185.0 112.0 L 185.0 116.0 L 140.14285717010497 116.0 L 143.6 121.5 L 148.0 128.1 L 152.2 134.3 L 156.6 139.9 L 161.0 145.0 L 165.4 149.7 L 170.0 153.8 L 174.7 157.4 L 179.4 160.6 L 184.2 163.2 L 188.8 165.9 L 177.7 174.7 L 172.3 170.9 Z M 69.6 105.1 L 69.22042751312256 103.77149639129638 L 68.1 104.3 L 62.6 106.6 L 57.1 108.6 L 54.5 109.42105264663697 L 54.5 183.0 L 42.5 189.0 L 42.5 112.90172414779663 L 39.8 113.6 L 33.9 115.1 L 27.9 116.4 L 19.8291259765625 117.98771295547485 L 18.1 121.5 L 15.7 118.8 L 12.2 107.1 L 14.2 106.9 L 20.2 106.4 L 26.2 105.8 L 28.84354372024536 105.53116502761841 L 30.8 102.0 L 35.0 94.7 L 47.6 73.1 L 51.7 65.9 L 55.7 58.7 L 59.7 51.4 L 63.6 44.2 L 67.05808362960815 37.7271767616272 L 67.0 37.7 L 68.0 35.9 L 77.9 42.8 L 79.5 46.0 L 75.87820320129394 46.06244478225708 L 73.5 49.9 L 64.3 63.9 L 59.6 70.9 L 54.7 77.7 L 49.7 84.5 L 44.6 91.2 L 39.4 97.8 L 33.9 104.2 L 33.102893352508545 105.08101263046265 L 43.9 103.8 L 61.3 101.4 L 67.1 100.7 L 68.2703185081482 100.58098459243774 L 67.5 98.2 L 66.2 94.9 L 64.8 91.6 L 63.2 88.5 L 61.5 85.3 L 59.7 82.2 L 57.6 79.3 L 58.8 78.0 L 61.9 80.1 L 65.0 82.4 L 67.9 85.0 L 70.6 87.8 L 73.1 90.9 L 75.4 94.2 L 77.5 97.8 L 79.4 101.5 L 81.2 105.4 L 82.7 109.5 L 82.1 114.1 L 78.5 116.9 L 73.9 116.2 L 71.1 112.6 L 70.4 108.8 Z M 36.3 128.6 L 39.1 130.9 L 35.606818199157715 132.48181819915771 L 35.3 134.2 L 34.0 139.7 L 32.4 145.2 L 30.5 150.5 L 28.4 155.8 L 26.0 161.0 L 23.4 166.1 L 20.4 171.1 L 17.0 175.8 L 13.2 180.4 L 11.7 179.5 L 13.7 174.0 L 15.6 168.7 L 17.4 163.4 L 19.0 158.2 L 20.4 153.1 L 21.6 147.9 L 22.6 142.8 L 23.4 137.6 L 24.0 132.5 L 24.323032665252686 128.30057582855224 L 24.3 128.3 L 24.6 125.2 Z M 69.1 151.1 L 68.2 147.2 L 67.2 143.5 L 66.1 139.9 L 64.8 136.4 L 63.4 133.0 L 60.2 126.4 L 58.2 123.3 L 59.5 122.0 L 62.6 124.4 L 65.6 126.9 L 68.3 129.8 L 70.9 133.0 L 73.2 136.4 L 75.4 140.0 L 77.4 143.9 L 79.2 148.0 L 80.8 152.3 L 82.2 156.8 L 81.3 161.3 L 77.6 163.9 L 73.1 163.0 L 70.5 159.2 L 69.9 155.1 Z M 170.6 92.6 L 168.7 94.1 L 166.7 95.4 L 164.6 96.5 L 162.4 97.4 L 160.1 98.1 L 157.8 98.6 L 155.4 98.9 L 153.0 99.0 L 153.0 93.0 L 145.0 90.0 L 145.0 87.0 L 153.0 87.0 L 154.4 86.9 L 155.8 86.7 L 157.1 86.4 L 158.3 86.1 L 159.5 85.6 L 160.6 85.0 L 161.7 84.3 L 162.7 83.5 L 163.7 82.5 L 164.7 81.4 L 164.8 81.4 L 165.2 80.4 L 165.7 78.8 L 166.3 76.6 L 166.9 73.8 L 167.5 70.5 L 168.2 66.7 L 168.8 62.4 L 169.4 57.6 L 169.69433965682984 55.0 L 158.5 55.0 L 156.9 63.0 L 143.8 66.3 L 152.3533498764038 28.0 L 128.7085470199585 28.0 L 127.5 38.1 L 125.5 49.0 L 122.9 59.1 L 119.7 68.4 L 115.8 77.0 L 111.3 84.6 L 106.3 91.4 L 100.6 97.2 L 94.3 102.0 L 87.4 105.7 L 86.5 104.2 L 91.9 99.1 L 96.7 93.5 L 101.0 87.5 L 104.8 80.8 L 108.1 73.4 L 110.9 65.4 L 113.2 56.6 L 115.0 47.0 L 116.2 36.7 L 116.76915884017944 28.0 L 96.0 28.0 L 96.0 24.0 L 153.0 24.0 L 159.0 19.0 L 170.0 28.0 L 165.0 31.0 L 163.1454545021057 31.772727298736573 L 159.3 51.0 L 170.0 51.0 L 176.0 46.0 L 187.0 55.0 L 182.0 58.0 L 181.3825242996216 58.257281589508054 L 181.3 59.0 L 180.7 64.0 L 180.0 68.5 L 179.4 72.6 L 178.7 76.2 L 178.0 79.4 L 177.2 82.3 L 176.4 84.7 L 175.4 87.0 L 174.0 89.1 L 172.3 90.9 Z M 29.3 69.0 L 28.0 66.0 L 26.5 63.1 L 24.8 60.2 L 22.9 57.3 L 20.7 54.5 L 18.3 51.7 L 15.8 48.8 L 12.8 46.2 L 13.8 44.7 L 17.5 46.4 L 21.1 48.2 L 24.6 50.2 L 27.8 52.5 L 28.4875 53.09583330154419 L 32.9 42.8 L 38.6 30.5 L 42.2 22.3 L 43.9 18.3 L 45.22307119369507 15.109063625335693 L 45.2 15.1 L 45.35714282989502 14.785714244842529 L 45.6 14.2 L 45.64014873504639 14.219702625274659 L 46.2 13.1 L 56.4 19.5 L 58.2 22.7 L 54.32226152420044 22.962897491455077 L 54.0 23.5 L 51.6 27.3 L 49.1 31.2 L 46.5 35.0 L 43.8 38.8 L 41.1 42.5 L 38.3 46.1 L 35.3 49.7 L 32.2 53.1 L 30.50607032775879 54.84526090621948 L 30.8 55.1 L 33.6 57.8 L 36.1 60.8 L 38.5 64.0 L 40.6 67.4 L 42.5 71.0 L 42.3 75.6 L 39.0 78.8 L 34.4 78.5 L 31.3 75.2 L 30.4 72.1 Z " />
</g>
</svg>
