<svg xmlns="http://www.w3.org/2000/svg" xmlns:xlink="http://www.w3.org/1999/xlink" version="1.1" baseProfile="full" viewBox="0 0 200 200" width="200" height="200">
<g fill="black">
<path d="M 62.0 127.1 L 60.3 124.0 L 58.5 120.9 L 56.6 117.8 L 54.5 114.6 L 50.5 108.86086959838867 L 50.5 181.0 L 38.5 187.0 L 38.5 119.53999996185303 L 36.7 124.7 L 33.4 132.9 L 29.8 140.8 L 25.8 148.2 L 21.4 155.1 L 16.6 161.6 L 11.4 167.5 L 10.0 166.4 L 13.5 159.5 L 16.8 152.5 L 19.9 145.3 L 22.8 137.8 L 25.5 130.0 L 27.9 121.8 L 30.0 113.4 L 31.9 104.6 L 33.5 95.5 L 34.34117650985718 89.0 L 11.5 89.0 L 11.5 85.0 L 38.5 85.0 L 38.5 14.0 L 50.5 16.0 L 53.5 18.0 L 50.5 19.8 L 50.5 85.0 L 54.7 85.0 L 64.7 75.0 L 76.7 85.0 L 76.7 89.0 L 50.5 89.0 L 50.5 103.03888893127441 L 53.1 104.7 L 56.5 107.3 L 59.7 109.9 L 62.7 112.6 L 65.6 115.5 L 70.8 121.3 L 73.1 124.4 L 75.3 127.5 L 75.7 132.0 L 72.9 135.6 L 68.3 136.0 L 64.7 133.2 L 63.4 130.1 Z M 174.6 171.3 L 173.8 167.9 L 172.9 164.5 L 171.7 160.9 L 170.3 157.4 L 168.7 153.7 L 166.9 150.0 L 165.0 146.1 L 162.8 142.2 L 164.1 141.1 L 167.5 144.2 L 170.8 147.2 L 173.7 150.5 L 176.4 153.8 L 178.8 157.3 L 181.0 160.8 L 183.0 164.5 L 184.7 168.2 L 186.1 172.0 L 187.3 175.8 L 186.3 180.3 L 182.5 182.8 L 178.0 181.8 L 175.5 178.0 L 175.2 174.7 Z M 80.7 181.8 L 79.4 177.4 L 81.5 173.3 L 83.1 172.3 L 84.7 170.8 L 86.4 168.8 L 88.0 166.3 L 89.5 163.3 L 90.9 159.8 L 92.2 155.8 L 93.4 151.3 L 94.6 146.3 L 95.5 140.9 L 97.3 141.0 L 97.7 146.5 L 98.0 151.8 L 98.0 156.7 L 97.7 161.3 L 97.1 165.6 L 96.2 169.6 L 95.0 173.3 L 93.5 176.7 L 91.5 179.8 L 89.1 182.6 L 84.7 183.9 Z M 144.5 169.2 L 144.2 166.1 L 143.8 163.0 L 143.1 159.8 L 142.3 156.6 L 141.3 153.3 L 140.2 150.0 L 138.9 146.5 L 137.1 143.2 L 138.6 142.1 L 141.2 144.9 L 143.9 147.7 L 146.3 150.7 L 148.5 153.8 L 150.4 157.0 L 152.1 160.3 L 153.5 163.7 L 154.7 167.3 L 155.7 170.9 L 156.5 174.6 L 154.9 178.9 L 150.9 180.9 L 146.5 179.4 L 144.5 175.3 L 144.6 172.3 Z M 120.5 180.9 L 116.4 178.9 L 114.9 174.6 L 115.4 171.5 L 115.7 168.5 L 115.9 165.4 L 115.9 162.4 L 115.8 159.3 L 115.5 156.1 L 115.1 153.0 L 114.5 149.7 L 113.8 146.4 L 112.7 143.2 L 114.3 142.3 L 116.3 145.2 L 118.5 148.1 L 120.3 151.1 L 121.9 154.3 L 123.3 157.6 L 124.5 160.9 L 125.4 164.4 L 126.1 168.0 L 126.6 171.6 L 126.8 175.3 L 124.8 179.4 Z M 172.7 29.1 L 184.7 39.1 L 184.7 43.1 L 168.2 43.1 L 168.2 85.7 L 174.37777776718139 85.7 L 180.6 78.7 L 188.6 85.7 L 188.6 89.7 L 168.2 89.7 L 168.2 130.8 L 173.0777777671814 130.8 L 179.3 123.8 L 187.3 130.8 L 187.3 134.8 L 79.6 134.8 L 79.6 130.8 L 95.4 130.8 L 95.4 89.7 L 77.6 89.7 L 77.6 85.7 L 95.4 85.7 L 95.4 53.12307691574097 L 92.2 57.8 L 87.9 63.4 L 83.3 68.9 L 78.3 74.3 L 76.9 73.2 L 80.2 66.7 L 83.4 60.4 L 86.6 54.3 L 89.6 48.3 L 92.4 42.4 L 95.0 36.6 L 97.5 30.9 L 99.7 25.2 L 101.7 19.7 L 103.20499000549316 15.10141954421997 L 103.2 15.1 L 103.23333330154419 15.014814853668213 L 103.5 14.2 L 103.54554920196533 14.216929817199707 L 104.1 12.8 L 114.8 18.4 L 116.9 21.3 L 113.1853274345398 22.01686668395996 L 112.3 24.0 L 109.5 29.6 L 106.5 35.2 L 104.31052627563477 39.1 L 162.7 39.1 Z M 106.4 89.7 L 106.4 130.8 L 116.5 130.8 L 116.5 89.7 Z M 126.5 89.7 L 126.5 130.8 L 137.1 130.8 L 137.1 89.7 Z M 147.1 89.7 L 147.1 130.8 L 157.2 130.8 L 157.2 89.7 Z M 106.4 43.1 L 106.4 85.7 L 116.5 85.7 L 116.5 43.1 Z M 126.5 43.1 L 126.5 85.7 L 137.1 85.7 L 137.1 43.1 Z M 147.1 43.1 L 147.1 85.7 L 157.2 85.7 L 157.2 43.1 Z M 75.4 32.7 L 77.6 35.5 L 73.7764705657959 36.45588235855102 L 72.2 40.2 L 70.4 44.1 L 68.5 48.1 L 66.4 52.2 L 64.2 56.5 L 61.9 60.8 L 59.3 65.2 L 56.5 69.7 L 53.5 74.3 L 51.9 73.6 L 53.3 68.3 L 54.6 63.2 L 56.0 58.4 L 57.4 53.7 L 58.7 49.2 L 59.9 44.8 L 61.1 40.7 L 62.1 36.6 L 63.1 32.8 L 63.67997379302979 30.117621326446532 L 63.6 30.1 L 63.85833330154419 29.292708301544188 L 63.9 29.1 L 63.918178939819335 29.10569076538086 L 64.4 27.6 Z M 23.3 62.5 L 22.8 59.1 L 22.2 55.5 L 21.5 51.7 L 20.7 47.8 L 18.7 39.4 L 17.6 34.8 L 16.3 30.2 L 17.9 29.5 L 20.5 33.6 L 23.0 37.6 L 25.3 41.5 L 27.3 45.4 L 29.1 49.2 L 30.8 52.9 L 32.2 56.6 L 33.6 60.1 L 34.7 63.6 L 35.7 67.1 L 34.5 71.5 L 30.7 73.9 L 26.2 72.8 L 23.8 68.9 L 23.6 65.8 Z " />
</g>
</svg>
