<svg xmlns="http://www.w3.org/2000/svg" xmlns:xlink="http://www.w3.org/1999/xlink" version="1.1" baseProfile="full" viewBox="0 0 200 200" width="200" height="200">
<g fill="black">
<path d="M 117.5 186.8 L 115.0 186.4 L 112.6 185.6 L 110.3 184.3 L 108.3 182.7 L 106.7 180.7 L 105.5 178.4 L 104.6 176.0 L 104.2 173.5 L 104.1 171.0 L 104.1 130.0 L 116.1 132.0 L 119.1 134.0 L 116.1 135.8 L 116.1 172.2 L 116.3 173.1 L 116.5 173.7 L 116.7 174.0 L 116.8 174.2 L 117.0 174.4 L 117.9 174.7 L 118.8 174.9 L 120.1 175.0 L 161.6 175.0 L 167.6 150.0 L 169.6 150.0 L 167.6 175.0 L 171.2 177.4 L 173.6 181.0 L 171.2 184.6 L 167.6 187.0 L 120.1 187.0 Z M 97.9 37.0 L 142.38235292434692 37.0 L 142.3 36.3 L 140.5 15.4 L 140.53732500076293 15.397200584411621 L 140.4 13.2 L 152.5 14.5 L 155.6 16.3 L 152.827384185791 18.246730232238768 L 154.3 35.1 L 154.51803274154662 37.0 L 164.8 37.0 L 169.98688526153563 31.813114738464357 L 169.2 31.4 L 168.5 29.9 L 167.7 28.4 L 166.8 26.9 L 165.9 25.5 L 164.9 24.1 L 163.8 22.8 L 162.6 21.5 L 159.9 18.8 L 158.2 18.1 L 158.8 16.4 L 160.7 16.8 L 162.7 16.9 L 164.8 17.1 L 166.9 17.6 L 168.9 18.2 L 170.9 19.0 L 172.9 20.0 L 174.8 21.1 L 176.7 22.4 L 178.5 23.8 L 179.7 28.2 L 178.66495723724364 30.220797729492187 L 186.8 37.0 L 186.8 41.0 L 154.97704916000367 41.0 L 156.4 53.4 L 158.9 69.5 L 161.7 83.3 L 161.77888498306274 83.59518260955811 L 163.1 79.0 L 165.1 70.8 L 166.6 62.1 L 167.6 53.2 L 167.62856760025025 53.20360097885132 L 167.9 51.1 L 179.5 54.7 L 182.3 57.1 L 178.80407257080077 58.5890061378479 L 177.8 64.2 L 175.5 73.3 L 172.7 82.0 L 169.4 90.3 L 165.87862071990966 97.8186206817627 L 168.2 104.1 L 171.7 110.9 L 175.2 115.3 L 175.58886365890504 115.58159093856811 L 180.8 93.0 L 182.8 93.0 L 180.8744680404663 118.0319149017334 L 185.0 119.8 L 186.8 124.0 L 185.0 128.2 L 180.8 130.0 L 173.3 128.3 L 166.8 123.9 L 161.6 117.4 L 158.0627932548523 110.5667597770691 L 156.6 112.7 L 151.3 119.2 L 145.4 125.2 L 139.0 130.6 L 137.7 129.3 L 142.5 122.7 L 147.0 116.0 L 151.1 109.1 L 154.64970064163208 102.09920158386231 L 153.3 98.5 L 150.0 86.1 L 147.0 71.6 L 144.5 55.0 L 142.8529411315918 41.0 L 97.9 41.0 L 97.9 72.0 L 97.4 79.8 L 96.7 87.5 L 95.6 94.9 L 94.2 102.0 L 92.5 108.8 L 90.5 115.4 L 88.1 121.7 L 85.3 127.6 L 82.2 133.2 L 78.5 138.4 L 77.0 137.5 L 78.57576923370361 132.0311538696289 L 75.8 135.6 L 71.3 136.0 L 67.7 133.2 L 66.4 130.2 L 64.9 127.1 L 63.2 124.0 L 61.4 120.9 L 59.4 117.8 L 57.3 114.6 L 55.0 111.4 L 53.0 108.76000003814697 L 53.0 181.0 L 41.0 187.0 L 41.0 119.25333337783813 L 39.1 124.7 L 35.8 133.0 L 32.1 140.8 L 28.1 148.2 L 23.7 155.2 L 18.8 161.6 L 13.6 167.5 L 12.1 166.4 L 15.6 159.5 L 19.0 152.5 L 22.2 145.3 L 25.2 137.7 L 27.9 129.9 L 30.3 121.8 L 32.5 113.4 L 34.4 104.6 L 36.0 95.5 L 36.84117650985718 89.0 L 13.6 89.0 L 13.6 85.0 L 41.0 85.0 L 41.0 14.0 L 53.0 16.0 L 56.0 18.0 L 53.0 19.8 L 53.0 85.0 L 57.7 85.0 L 67.7 75.0 L 79.7 85.0 L 79.7 89.0 L 53.0 89.0 L 53.0 102.88378381729126 L 55.8 104.7 L 59.2 107.2 L 62.4 109.9 L 65.5 112.6 L 68.4 115.4 L 71.1 118.3 L 73.6 121.3 L 76.0 124.3 L 78.2 127.4 L 78.59646368026733 131.95933198928833 L 78.7 131.6 L 80.3 125.7 L 81.8 119.7 L 83.1 113.5 L 84.2 107.1 L 85.0 100.5 L 85.6 93.7 L 86.0 86.7 L 86.1 79.4 L 85.9 72.0 L 85.9 31.0 Z M 80.1 180.4 L 77.7 176.5 L 78.6 172.1 L 80.4 169.8 L 82.1 167.4 L 83.8 164.6 L 85.3 161.6 L 86.7 158.4 L 88.0 154.8 L 89.1 151.0 L 90.2 146.9 L 91.3 142.6 L 92.0 138.0 L 93.8 138.0 L 94.3 142.7 L 94.8 147.3 L 95.0 151.8 L 94.8 156.1 L 94.4 160.3 L 93.7 164.3 L 92.8 168.2 L 91.6 171.9 L 90.2 175.5 L 88.4 178.9 L 84.6 181.3 Z M 173.0 157.0 L 172.0 153.8 L 170.9 150.7 L 169.5 147.6 L 167.8 144.5 L 165.9 141.4 L 163.8 138.4 L 161.5 135.2 L 158.8 132.3 L 159.9 130.8 L 163.5 133.0 L 167.0 135.1 L 170.2 137.6 L 173.2 140.2 L 176.0 143.2 L 178.5 146.3 L 180.7 149.6 L 182.7 153.1 L 184.4 156.8 L 185.9 160.6 L 185.1 165.1 L 181.5 167.9 L 177.0 167.1 L 174.2 163.4 L 173.7 160.2 Z M 138.0 151.0 L 136.9 148.1 L 135.6 145.3 L 134.1 142.6 L 132.4 140.0 L 130.6 137.4 L 128.5 134.9 L 126.3 132.4 L 123.6 130.2 L 124.5 128.7 L 131.1 131.5 L 134.3 133.2 L 137.2 135.3 L 140.0 137.6 L 142.6 140.3 L 145.1 143.1 L 147.3 146.2 L 149.3 149.6 L 151.1 153.1 L 150.8 157.7 L 147.4 160.8 L 142.9 160.5 L 139.8 157.1 L 139.0 154.0 Z M 113.0 80.0 L 127.3 80.0 L 133.3 75.0 L 144.3 84.0 L 139.3 88.0 L 139.3 111.0 L 127.3 117.0 L 127.3 111.0 L 113.0 111.0 L 113.0 114.0 L 101.0 120.0 L 101.0 74.0 Z M 113.0 84.0 L 113.0 107.0 L 127.3 107.0 L 127.3 84.0 Z M 78.3 32.7 L 80.5 35.6 L 76.66166667938232 36.49104166030884 L 75.1 40.2 L 73.3 44.1 L 71.3 48.1 L 69.2 52.2 L 67.0 56.5 L 64.6 60.8 L 62.1 65.2 L 59.2 69.7 L 56.2 74.3 L 54.6 73.6 L 56.0 68.3 L 57.4 63.2 L 58.8 58.3 L 60.2 53.7 L 61.5 49.1 L 62.8 44.8 L 63.9 40.6 L 65.0 36.6 L 66.0 32.8 L 66.67153396606446 30.039249324798583 L 66.5 30.0 L 67.3 27.5 Z M 25.7 62.5 L 25.2 59.1 L 24.6 55.5 L 23.8 51.7 L 23.0 47.8 L 22.0 43.7 L 20.9 39.4 L 19.8 34.9 L 18.5 30.2 L 20.1 29.5 L 22.7 33.6 L 25.3 37.5 L 27.6 41.5 L 29.6 45.4 L 31.4 49.2 L 33.1 52.9 L 34.6 56.5 L 35.9 60.1 L 37.1 63.6 L 38.0 67.0 L 36.9 71.5 L 33.1 73.9 L 28.6 72.8 L 26.2 68.9 L 26.0 65.8 Z M 140.4 59.0 L 140.4 63.0 L 101.0 63.0 L 101.0 59.0 L 122.21818180084229 59.0 L 130.4 50.0 Z " />
</g>
</svg>
