<svg xmlns="http://www.w3.org/2000/svg" xmlns:xlink="http://www.w3.org/1999/xlink" version="1.1" baseProfile="full" viewBox="0 0 200 200" width="200" height="200">
<g fill="black">
<path d="M 78.6 96.0 L 78.6 92.0 L 106.6 92.0 L 106.6 39.30303030014038 L 104.6 40.0 L 97.7 42.0 L 90.5 43.9 L 82.9 45.5 L 75.0 46.8 L 74.74025974273681 45.916883087158205 L 73.32237033843994 45.99022226333618 L 71.1 49.8 L 66.9 56.8 L 62.5 63.8 L 53.5 77.6 L 48.8 84.4 L 44.0 91.1 L 39.1 97.7 L 33.9 104.2 L 33.17055397033691 105.05102043151855 L 43.0 103.8 L 48.5 103.0 L 59.3 101.4 L 64.7 100.7 L 65.53782386779785 100.60860099792481 L 64.8 98.1 L 63.7 94.8 L 62.4 91.5 L 61.0 88.4 L 57.8 82.2 L 55.8 79.3 L 57.1 78.0 L 60.0 80.2 L 63.0 82.5 L 65.7 85.1 L 68.2 87.9 L 70.6 91.0 L 72.8 94.3 L 74.8 97.9 L 76.6 101.6 L 78.3 105.5 L 79.8 109.6 L 79.0 114.1 L 75.4 116.9 L 70.9 116.1 L 68.1 112.5 L 67.5 108.7 L 66.7 105.0 L 66.43649482727051 103.97525777816773 L 65.8 104.3 L 60.7 106.6 L 55.5 108.6 L 53.4 109.31320753097535 L 53.4 183.0 L 41.4 189.0 L 41.4 113.04444446563721 L 39.4 113.6 L 33.9 115.1 L 28.3 116.4 L 22.7 117.6 L 21.0521559715271 117.94093322753906 L 19.3 121.5 L 16.9 118.8 L 13.4 107.1 L 15.3 106.9 L 20.9 106.4 L 26.5 105.8 L 28.960717105865477 105.53155813217163 L 30.7 102.1 L 34.6 94.8 L 42.4 80.4 L 53.8 58.8 L 57.5 51.6 L 64.24646244049072 37.91967334747314 L 64.2 37.9 L 65.2 36.0 L 75.3 42.6 L 76.22614583969116 44.34333333969116 L 81.8 41.9 L 88.8 38.8 L 95.4 35.9 L 101.8 32.9 L 107.8 29.9 L 113.5 26.9 L 118.8 23.9 L 123.7 20.8 L 128.4 17.7 L 131.8458122253418 15.156662464141846 L 131.8 15.1 L 131.84860258102418 15.154602909088135 L 132.6 14.6 L 136.80775527954103 20.725996685028075 L 139.9 24.2 L 140.0 27.7 L 136.44553737640382 26.213588333129884 L 134.4 27.4 L 129.0 30.2 L 123.4 32.8 L 118.6 34.880000019073485 L 118.6 92.0 L 147.3 92.0 L 147.3 17.0 L 159.3 19.0 L 162.3 21.0 L 159.3 22.8 L 159.3 92.0 L 164.3 92.0 L 174.3 82.0 L 186.3 92.0 L 186.3 96.0 L 159.3 96.0 L 159.3 182.0 L 147.3 188.0 L 147.3 96.0 L 118.6 96.0 L 118.6 108.0 L 117.8 119.3 L 116.0 130.0 L 113.3 140.1 L 109.6 149.4 L 104.9 158.1 L 99.2 165.9 L 92.6 172.9 L 85.1 179.1 L 76.7 184.4 L 67.4 188.7 L 66.6 187.2 L 74.6 181.2 L 81.7 175.0 L 87.9 168.4 L 93.1 161.4 L 97.5 153.8 L 101.0 145.8 L 103.7 137.3 L 105.5 128.1 L 106.5 118.3 L 106.6 108.0 L 106.6 96.0 Z M 36.4 128.5 L 39.2 130.8 L 35.69396619796753 132.45378952026368 L 35.4 134.1 L 34.2 139.7 L 32.7 145.1 L 31.0 150.5 L 29.0 155.7 L 26.7 160.9 L 24.2 166.0 L 21.3 171.0 L 18.1 175.8 L 14.5 180.4 L 13.0 179.5 L 14.7 174.1 L 16.5 168.7 L 18.1 163.5 L 19.6 158.3 L 20.9 153.2 L 22.0 148.0 L 22.9 142.8 L 23.6 137.7 L 24.2 132.5 L 24.44226703643799 128.30070447921753 L 24.4 128.3 L 24.7 125.2 Z M 66.3 151.0 L 65.5 147.1 L 64.6 143.4 L 63.5 139.8 L 62.4 136.3 L 61.1 133.0 L 59.7 129.7 L 58.2 126.4 L 56.5 123.3 L 57.8 122.1 L 60.6 124.5 L 63.5 127.0 L 66.1 129.9 L 68.5 133.1 L 70.8 136.5 L 72.8 140.1 L 74.7 144.0 L 76.4 148.1 L 77.9 152.4 L 79.3 156.9 L 78.3 161.3 L 74.5 163.9 L 70.1 162.9 L 67.5 159.2 L 66.9 155.0 Z M 29.1 68.9 L 27.9 65.9 L 26.6 62.9 L 25.0 60.1 L 23.2 57.2 L 21.3 54.4 L 19.1 51.6 L 16.8 48.8 L 14.1 46.3 L 15.1 44.7 L 18.5 46.5 L 22.0 48.3 L 25.2 50.3 L 28.3 52.6 L 28.65604934692383 52.93061723709106 L 29.3 51.2 L 31.0 47.0 L 37.8 30.6 L 39.5 26.6 L 43.94260129928589 15.215834140777588 L 43.9 15.2 L 44.267346954345705 14.383673477172852 L 44.3 14.3 L 44.30413036346435 14.301932525634765 L 44.8 13.2 L 55.2 19.4 L 57.0 22.5 L 53.13606405258179 22.89971752166748 L 48.3 31.1 L 45.8 34.9 L 43.3 38.6 L 40.7 42.4 L 38.1 46.0 L 35.3 49.6 L 32.3 53.0 L 30.6635950088501 54.79476680755615 L 31.1 55.2 L 33.8 58.0 L 36.2 61.0 L 38.4 64.2 L 40.4 67.6 L 42.2 71.1 L 41.9 75.7 L 38.5 78.8 L 34.0 78.5 L 30.9 75.1 L 30.1 71.9 Z " />
</g>
</svg>
