<svg xmlns="http://www.w3.org/2000/svg" xmlns:xlink="http://www.w3.org/1999/xlink" version="1.1" baseProfile="full" viewBox="0 0 200 200" width="200" height="200">
<g fill="black">
<path d="M 126.12765960693359 17.723404216766358 L 127.2 49.0 L 130.26000003814698 76.0 L 166.0 76.0 L 176.0 66.0 L 188.0 76.0 L 188.0 80.0 L 130.80158100128173 80.0 L 135.7 104.3 L 142.2 125.2 L 145.87323417663575 133.6688455581665 L 146.9 132.2 L 153.6 120.9 L 159.6 108.7 L 164.62321853637695 96.60706653594971 L 164.6 96.6 L 165.5 94.3 L 176.1 100.1 L 178.2 103.1 L 174.4683765411377 103.67904500961303 L 169.9 113.7 L 162.9 126.3 L 155.2 137.8 L 150.5540410041809 143.7333933830261 L 157.1 154.7 L 164.6 163.9 L 171.5 170.0 L 175.64285717010497 172.21428575515748 L 181.0 149.0 L 183.0 149.0 L 181.07446804046631 174.0319149017334 L 185.2 175.8 L 187.0 180.0 L 185.2 184.2 L 181.0 186.0 L 173.0 184.3 L 164.6 179.8 L 156.0 172.3 L 147.2 161.5 L 142.27851829528808 153.27823066711426 L 137.9 157.9 L 128.2 166.3 L 117.9 173.7 L 107.0 180.0 L 95.4 185.0 L 83.2 188.8 L 82.7 187.1 L 93.8 181.5 L 104.3 175.3 L 114.1 168.3 L 123.3 160.6 L 131.8 152.0 L 137.67514562606812 144.93495149612426 L 130.9 129.3 L 124.1 107.3 L 118.7 80.9 L 118.59838705062866 80.0 L 63.35555553436279 80.0 L 71.0 88.6 L 71.5 92.2 L 67.60747661590577 91.08785047531128 L 65.0 93.0 L 61.9 95.1 L 58.7 97.1 L 52.1 101.1 L 48.7 103.0 L 45.1 104.8 L 41.765896511077884 106.33188543319702 L 44.8 107.8 L 47.7 109.5 L 50.3 111.3 L 52.7 113.4 L 54.0 117.8 L 51.9 121.9 L 47.5 123.1 L 43.4 121.0 L 42.4 119.3 L 41.0 117.5 L 39.3 115.6 L 37.2 113.8 L 34.7 111.8 L 31.9 109.9 L 28.8 107.9 L 25.3 106.0 L 21.6 103.9 L 17.4 102.1 L 17.9 100.4 L 22.4 101.2 L 26.8 101.8 L 30.9 102.7 L 34.7 103.7 L 38.3 104.9 L 38.60233240127563 105.02448978424073 L 39.7 104.0 L 42.4 101.1 L 47.9 95.6 L 53.1 90.2 L 55.7 87.6 L 60.5 82.4 L 62.14474506378174 80.54072303771973 L 62.1 80.5 L 62.6 80.0 L 12.0 80.0 L 12.0 76.0 L 73.57659578323364 76.0 L 74.5 72.9 L 75.6 68.3 L 76.7 64.1 L 77.8 60.2 L 78.7 56.5 L 79.6 53.0 L 80.3 49.9 L 81.0 47.0 L 81.5 44.4 L 81.74404926300049 42.9357045173645 L 81.6 42.9 L 82.4 40.5 L 93.3 45.8 L 95.5 48.6 L 91.34753189086913 49.54705410003662 L 90.8 50.6 L 89.4 53.3 L 87.8 56.3 L 86.0 59.4 L 84.1 62.8 L 82.0 66.3 L 79.8 70.1 L 77.3 74.1 L 76.16904764175415 76.0 L 118.14677419662476 76.0 L 115.2 49.9 L 114.03333330154419 14.997222232818604 L 114.0 15.0 L 114.0 11.6 L 126.0 14.0 L 129.0 16.0 Z M 93.5 138.7 L 92.2 136.7 L 92.08741722106933 136.54238414764404 L 89.0 137.4 L 81.7 139.0 L 74.3 140.5 L 69.7 141.29733333587646 L 69.7 182.6 L 57.7 188.6 L 57.7 143.21428575515748 L 51.5 144.1 L 43.8 145.1 L 28.0 146.9 L 24.04047222137451 147.29595279693604 L 22.1 150.6 L 20.0 147.7 L 17.3 135.8 L 19.3 135.7 L 27.3 135.5 L 35.2 135.3 L 40.66463279724121 135.15988121032714 L 41.7 134.3 L 47.5 129.5 L 59.1 120.3 L 70.3 111.3 L 75.8 106.8 L 86.4 97.8 L 90.75484580993653 93.95748901367188 L 90.7 93.9 L 91.6 93.2 L 99.0 102.6 L 99.4 106.2 L 95.8979591369629 104.92653064727783 L 93.4 106.8 L 81.8 114.8 L 75.8 118.8 L 63.4 126.6 L 57.0 130.3 L 50.5 134.0 L 48.80204734802246 134.87394618988037 L 58.4 134.5 L 73.6 133.9 L 81.1 133.7 L 88.5 133.6 L 89.85859375 133.618359375 L 88.9 132.5 L 86.9 130.4 L 84.6 128.3 L 82.0 126.1 L 79.3 123.9 L 76.0 122.0 L 76.7 120.3 L 80.4 121.5 L 84.0 122.4 L 87.4 123.6 L 90.6 125.0 L 93.6 126.5 L 96.4 128.2 L 99.0 130.1 L 101.4 132.1 L 103.7 134.4 L 105.7 136.8 L 106.2 141.3 L 103.4 145.0 L 98.9 145.5 L 95.2 142.7 L 94.5 140.7 Z M 45.8 152.5 L 48.3 155.1 L 44.24893617630005 156.4021276473999 L 42.7 159.5 L 40.6 162.9 L 38.2 166.1 L 35.5 169.1 L 32.4 172.1 L 29.1 174.9 L 25.4 177.6 L 21.4 180.1 L 17.2 182.7 L 16.1 181.2 L 19.4 177.8 L 22.3 174.2 L 24.9 170.8 L 27.2 167.5 L 29.1 164.3 L 30.7 161.2 L 32.0 158.2 L 33.0 155.3 L 33.7 152.5 L 33.96520547866821 150.70986299514772 L 33.9 150.7 L 34.5 148.0 Z M 92.7 166.0 L 91.7 163.8 L 90.3 161.7 L 88.8 159.4 L 86.9 157.2 L 84.9 155.0 L 82.5 152.7 L 80.0 150.4 L 77.0 148.4 L 77.7 146.8 L 81.2 148.1 L 84.7 149.2 L 87.9 150.5 L 91.0 152.1 L 93.9 153.8 L 96.5 155.7 L 99.0 157.8 L 101.3 160.2 L 103.3 162.6 L 105.2 165.3 L 105.3 169.9 L 102.2 173.3 L 97.6 173.4 L 94.2 170.3 L 93.6 168.2 Z M 42.8 62.8 L 41.8 57.4 L 41.1 54.8 L 40.3 52.3 L 39.4 49.7 L 38.5 47.2 L 37.4 44.6 L 36.0 42.3 L 37.3 41.1 L 39.4 43.0 L 41.8 44.8 L 43.9 46.8 L 45.9 49.1 L 47.8 51.5 L 49.6 54.0 L 51.2 56.7 L 52.6 59.6 L 54.0 62.6 L 55.2 65.7 L 54.3 70.2 L 50.6 72.9 L 46.1 72.0 L 43.4 68.3 L 43.2 65.5 Z M 157.1 48.1 L 155.3 45.1 L 153.3 42.1 L 151.2 39.2 L 149.0 36.4 L 146.5 33.5 L 144.0 30.7 L 141.3 27.9 L 138.3 25.2 L 139.3 23.7 L 146.7 27.1 L 150.3 29.0 L 153.6 31.2 L 156.9 33.6 L 159.9 36.2 L 162.8 39.0 L 165.6 41.9 L 168.2 45.1 L 170.6 48.3 L 171.2 52.9 L 168.5 56.5 L 163.9 57.1 L 160.3 54.4 L 158.7 51.2 Z M 19.8 35.6 L 58.0 35.6 L 58.0 13.1 L 70.0 15.1 L 73.0 17.1 L 70.0 18.9 L 70.0 35.6 L 86.2 35.6 L 96.2 25.6 L 108.2 35.6 L 108.2 39.6 L 19.8 39.6 Z " />
</g>
</svg>
