<svg xmlns="http://www.w3.org/2000/svg" xmlns:xlink="http://www.w3.org/1999/xlink" version="1.1" baseProfile="full" viewBox="0 0 200 200" width="200" height="200">
<g fill="black">
<path d="M 62.8 104.9 L 62.62276239395142 104.12458562850952 L 62.3 104.3 L 57.5 106.6 L 52.6 108.6 L 50.9 109.22448978424072 L 50.9 183.0 L 38.9 189.0 L 38.9 113.16078433990478 L 37.5 113.6 L 32.3 115.0 L 27.0 116.4 L 21.7 117.6 L 20.492815685272216 117.85054769515992 L 18.8 121.4 L 16.4 118.7 L 12.7 107.2 L 14.6 106.9 L 19.9 106.4 L 25.2 105.8 L 27.47410669326782 105.5376030921936 L 29.1 102.1 L 47.1 66.1 L 54.1 51.7 L 57.5 44.4 L 60.8 37.2 L 60.840148735046384 37.21970262527466 L 61.4 36.1 L 71.6 42.5 L 73.4 45.7 L 69.65410776138306 45.95395879745483 L 63.6 56.7 L 59.5 63.7 L 50.9 77.5 L 46.5 84.3 L 41.9 91.0 L 37.2 97.7 L 32.3 104.1 L 31.518813610076904 105.0464373588562 L 35.5 104.5 L 40.7 103.8 L 56.0 101.4 L 61.2 100.7 L 61.79648733139038 100.63117456436157 L 61.1 98.0 L 60.0 94.7 L 58.8 91.5 L 57.5 88.3 L 56.1 85.2 L 54.7 82.2 L 52.8 79.3 L 54.1 78.0 L 56.9 80.2 L 59.7 82.5 L 62.3 85.2 L 64.8 88.0 L 67.0 91.1 L 69.1 94.4 L 71.0 98.0 L 72.8 101.7 L 74.4 105.6 L 75.8 109.7 L 75.0 114.2 L 71.3 116.9 L 66.8 116.1 L 64.1 112.4 L 63.5 108.6 Z M 91.8 25.4 L 115.4 25.4 L 120.9 20.4 L 131.4 29.4 L 126.4 32.9 L 126.4 94.2 L 115.4 99.7 L 115.4 88.2 L 91.8 88.2 L 91.8 180.2 L 79.8 186.2 L 79.8 19.4 Z M 150.1 173.3 L 168.1 173.3 L 169.3 173.2 L 170.2 173.1 L 170.8 172.9 L 171.4 172.6 L 171.7 172.0 L 171.9 171.5 L 172.0 170.5 L 172.1 169.3 L 172.1 88.2 L 148.5 88.2 L 148.5 100.2 L 137.5 105.7 L 137.5 19.9 L 148.5 25.4 L 172.1 25.4 L 178.1 20.4 L 189.1 29.4 L 184.1 33.4 L 184.1 169.3 L 184.0 171.9 L 183.5 174.4 L 182.7 176.8 L 181.5 179.0 L 179.8 181.1 L 177.8 182.7 L 175.6 183.9 L 173.2 184.7 L 170.7 185.2 L 168.1 185.3 L 168.1 179.3 L 150.1 176.3 Z M 34.9 128.5 L 37.7 130.8 L 34.27036094665527 132.41775426864623 L 34.0 134.1 L 32.8 139.6 L 31.4 145.0 L 29.7 150.4 L 27.8 155.7 L 25.6 160.9 L 23.2 166.0 L 20.5 170.9 L 17.4 175.8 L 14.0 180.4 L 12.4 179.5 L 14.0 174.1 L 15.6 168.8 L 17.1 163.6 L 18.5 158.4 L 19.7 153.2 L 20.7 148.1 L 21.5 142.9 L 22.2 137.7 L 22.7 132.6 L 22.942287349700926 128.40035238265992 L 22.9 128.4 L 23.2 125.2 Z M 62.4 150.9 L 61.7 147.0 L 60.8 143.3 L 59.9 139.7 L 58.8 136.3 L 57.6 132.9 L 56.4 129.6 L 55.0 126.4 L 53.4 123.3 L 54.8 122.1 L 57.5 124.5 L 60.2 127.1 L 62.7 130.0 L 65.1 133.2 L 67.2 136.6 L 69.2 140.2 L 70.9 144.1 L 72.6 148.2 L 74.0 152.4 L 75.3 156.9 L 74.3 161.4 L 70.5 163.9 L 66.0 162.9 L 63.5 159.1 L 63.0 154.9 Z M 148.5 57.8 L 148.5 84.2 L 172.1 84.2 L 172.1 57.8 Z M 91.8 57.8 L 91.8 84.2 L 115.4 84.2 L 115.4 57.8 Z M 27.3 68.8 L 26.3 65.8 L 25.0 62.8 L 23.6 60.0 L 22.0 57.1 L 20.2 54.4 L 18.2 51.6 L 16.0 48.8 L 13.5 46.3 L 14.5 44.8 L 17.8 46.6 L 21.1 48.3 L 24.2 50.4 L 27.1 52.7 L 27.24881887435913 52.84330711364746 L 29.3 47.1 L 30.8 43.0 L 35.6 30.7 L 37.1 26.7 L 38.7 22.6 L 40.2 18.5 L 41.252413749694824 15.417931079864502 L 41.2 15.4 L 41.43529415130615 14.882352924346923 L 41.6 14.4 L 41.64536085128784 14.42020616531372 L 42.2 13.2 L 52.6 19.3 L 54.5 22.3 L 50.697226238250735 22.833722591400146 L 50.5 23.2 L 48.3 27.1 L 46.0 31.0 L 43.7 34.8 L 41.3 38.6 L 38.9 42.3 L 36.3 45.9 L 33.6 49.5 L 30.7 53.0 L 29.217045497894286 54.73863639831543 L 29.8 55.3 L 32.3 58.1 L 34.6 61.1 L 36.8 64.3 L 38.7 67.7 L 40.4 71.2 L 40.0 75.8 L 36.6 78.8 L 32.0 78.4 L 29.0 75.0 L 28.2 71.8 Z M 148.5 29.4 L 148.5 53.8 L 172.1 53.8 L 172.1 29.4 Z M 91.8 29.4 L 91.8 53.8 L 115.4 53.8 L 115.4 29.4 Z " />
</g>
</svg>
