<svg xmlns="http://www.w3.org/2000/svg" xmlns:xlink="http://www.w3.org/1999/xlink" version="1.1" baseProfile="full" viewBox="0 0 200 200" width="200" height="200">
<g fill="black">
<path d="M 147.1 183.7 L 134.2 182.6 L 123.6 180.7 L 114.8 178.0 L 107.8 174.4 L 102.3 170.0 L 98.2 165.0 L 95.3 159.4 L 94.31608390808105 156.54195804595946 L 93.90769233703614 156.74615383148193 L 93.2 157.7 L 91.0 161.0 L 88.7 164.1 L 84.1 169.9 L 81.8 172.7 L 79.5 175.4 L 77.2 178.0 L 75.63362064361573 179.70258617401123 L 76.1 183.9 L 72.6 182.9 L 63.4 175.0 L 64.9 173.7 L 70.3 170.1 L 73.1 168.2 L 75.9 166.2 L 78.8 164.2 L 81.7 162.1 L 84.8 160.0 L 86.0 159.14838705062866 L 86.0 109.0 L 72.06097564697265 109.0 L 72.3 109.7 L 71.4 114.2 L 67.7 116.9 L 63.2 116.0 L 60.6 112.3 L 60.0 108.5 L 59.4 104.9 L 59.248351669311525 104.21758241653443 L 59.1 104.3 L 54.6 106.6 L 49.9 108.5 L 48.3 109.13333330154418 L 48.3 183.0 L 36.3 189.0 L 36.3 113.27346935272217 L 35.3 113.6 L 25.3 116.4 L 20.2 117.6 L 19.101480770111085 117.8323790550232 L 17.4 121.4 L 15.0 118.7 L 11.2 107.2 L 13.2 106.9 L 18.3 106.4 L 25.597218990325928 105.52433376312256 L 27.1 102.2 L 30.5 94.9 L 33.9 87.7 L 37.4 80.6 L 40.9 73.4 L 47.7 59.0 L 51.0 51.8 L 54.2 44.5 L 57.4 37.3 L 57.42324247360229 37.31119079589844 L 58.0 36.1 L 68.2 42.5 L 70.1 45.6 L 66.3686863899231 45.921665000915525 L 64.4 49.6 L 56.6 63.6 L 52.5 70.6 L 48.3 77.5 L 44.0 84.3 L 39.6 91.0 L 35.1 97.6 L 30.3 104.1 L 29.56785717010498 105.02250003814697 L 33.3 104.5 L 38.2 103.8 L 43.2 103.0 L 53.0 101.4 L 58.0 100.7 L 58.427594089508055 100.64868869781495 L 57.7 97.9 L 56.7 94.6 L 55.6 91.4 L 54.4 88.3 L 53.1 85.2 L 51.7 82.1 L 50.0 79.3 L 51.3 78.1 L 54.0 80.3 L 56.7 82.6 L 59.2 85.2 L 61.6 88.1 L 63.8 91.2 L 65.8 94.5 L 67.7 98.0 L 69.4 101.7 L 70.6692307472229 105.0 L 86.0 105.0 L 91.5 100.0 L 102.0 109.0 L 97.0 112.5 L 97.0 155.03999996185303 L 98.8 157.2 L 102.7 161.2 L 106.9 164.5 L 111.8 167.1 L 117.8 169.1 L 125.5 170.7 L 135.3 171.6 L 147.4 171.9 L 162.2 171.5 L 180.1 170.4 L 191.1 169.7 L 180.9 183.5 L 162.5 184.0 Z M 33.0 128.5 L 35.8 130.8 L 32.29396619796753 132.45378952026368 L 32.0 134.1 L 30.9 139.6 L 29.5 145.0 L 27.9 150.4 L 26.1 155.6 L 24.0 160.8 L 21.6 165.9 L 19.0 170.9 L 16.0 175.7 L 12.6 180.4 L 11.0 179.5 L 12.6 174.1 L 14.0 168.8 L 15.5 163.6 L 16.8 158.4 L 17.9 153.3 L 18.9 148.1 L 19.7 142.9 L 20.3 137.8 L 20.8 132.6 L 20.961518859863283 128.40050840377808 L 20.9 128.4 L 21.2 125.2 Z M 59.0 150.9 L 58.3 147.0 L 57.5 143.3 L 56.6 139.7 L 55.6 136.2 L 54.5 132.9 L 52.1 126.3 L 50.5 123.3 L 51.9 122.2 L 54.5 124.6 L 57.2 127.1 L 59.6 130.0 L 61.9 133.2 L 64.0 136.6 L 65.9 140.3 L 67.6 144.1 L 69.2 148.2 L 70.6 152.5 L 71.8 156.9 L 70.8 161.4 L 67.0 163.9 L 62.5 162.9 L 60.0 159.0 L 59.6 154.9 Z M 107.2 159.2 L 107.2 124.9 L 118.2 126.9 L 120.9 128.9 L 118.2 130.62340421676635 L 118.2 149.7 L 137.2 149.7 L 137.2 118.5 L 99.7 118.5 L 99.7 114.5 L 137.2 114.5 L 137.2 92.7 L 128.2285714149475 92.7 L 127.3 94.0 L 125.1 96.7 L 122.9 99.5 L 120.5 102.4 L 118.0 105.2 L 115.4 108.0 L 112.9 110.9 L 111.4 110.0 L 113.0 106.4 L 114.3 102.9 L 115.7 99.4 L 117.0 96.1 L 118.4 92.8 L 119.7 89.6 L 121.0 86.5 L 121.22836227416992 85.9100640296936 L 119.1 86.9 L 110.0 90.1 L 100.5 92.4 L 100.0 90.7 L 108.6 86.5 L 116.7 82.1 L 124.3 77.2 L 124.85124998092651 76.78262500762939 L 125.0 76.5 L 125.11967535018921 76.57938861846924 L 128.03887948989868 74.36913414001465 L 125.4 73.9 L 122.7 70.2 L 122.7 68.5 L 122.6 66.7 L 122.0 63.1 L 121.6 61.2 L 120.4 57.4 L 119.6 55.4 L 119.26984128952026 54.53333330154419 L 119.2 54.6 L 114.4 58.6 L 109.3 62.3 L 103.9 65.6 L 102.8 64.2 L 106.8 59.4 L 110.7 54.8 L 114.4 50.1 L 117.9 45.5 L 121.1 40.8 L 124.1 36.0 L 126.9 31.2 L 129.4 26.2 L 131.6 21.2 L 133.32578020095826 17.008819580078125 L 133.3 17.0 L 134.2 14.9 L 144.7 20.9 L 146.6 23.9 L 142.87323055267333 24.423055362701415 L 141.9 26.3 L 139.575 30.2 L 162.6 30.2 L 163.11428575515748 29.77142858505249 L 163.2 29.6 L 163.27605638504028 29.636619758605956 L 168.6 25.2 L 179.6 34.2 L 174.6 37.2 L 172.00516605377197 38.28118085861206 L 168.9 43.7 L 163.3 51.9 L 157.2 59.5 L 150.5 66.4 L 143.4 72.6 L 135.8 78.1 L 131.36963500976563 80.7254014968872 L 135.1 83.2 L 136.8 86.4 L 132.62584495544434 86.61590461730957 L 131.3 88.5 L 131.1518518447876 88.7 L 156.11818180084228 88.7 L 164.3 79.7 L 174.3 88.7 L 174.3 92.7 L 149.2 92.7 L 149.2 114.5 L 164.7 114.5 L 174.7 104.5 L 186.7 114.5 L 186.7 118.5 L 149.2 118.5 L 149.2 149.7 L 167.7 149.7 L 167.7 124.9 L 179.7 126.9 L 182.7 128.9 L 179.7 130.7 L 179.7 157.7 L 167.7 163.7 L 167.7 153.7 L 118.2 153.7 Z M 80.3 73.8 L 78.9 71.4 L 77.4 69.1 L 75.8 66.8 L 74.1 64.6 L 72.3 62.3 L 70.5 60.1 L 68.4 58.2 L 69.3 56.7 L 72.0 58.0 L 74.8 59.1 L 77.6 60.4 L 80.2 62.0 L 82.8 63.8 L 85.3 65.8 L 87.7 67.9 L 90.0 70.2 L 92.2 72.7 L 94.3 75.3 L 95.0 79.8 L 92.3 83.5 L 87.8 84.1 L 84.1 81.5 L 82.9 78.8 Z M 25.2 68.7 L 24.2 65.7 L 23.0 62.8 L 21.7 59.9 L 20.2 57.1 L 18.5 54.3 L 16.6 51.6 L 14.6 48.8 L 12.1 46.3 L 13.2 44.8 L 16.3 46.6 L 19.6 48.4 L 22.5 50.5 L 25.320909118652345 52.7372727394104 L 27.2 47.1 L 30.2 38.9 L 31.7 34.9 L 34.7 26.7 L 36.1 22.7 L 37.6 18.6 L 38.9 14.5 L 38.99298429489136 14.539371681213378 L 39.5 13.3 L 50.0 19.2 L 52.0 22.2 L 48.09455585479736 22.738681983947753 L 45.8 27.0 L 43.6 30.9 L 41.4 34.7 L 39.1 38.5 L 36.7 42.2 L 34.2 45.9 L 31.6 49.5 L 28.8 53.0 L 27.35483875274658 54.75483875274658 L 28.0 55.4 L 30.4 58.1 L 32.7 61.1 L 34.7 64.3 L 36.6 67.7 L 38.2 71.3 L 37.8 75.8 L 34.3 78.8 L 29.8 78.4 L 26.8 74.9 L 26.1 71.7 Z M 134.9 54.9 L 134.4 53.0 L 133.9 51.2 L 133.2 49.3 L 132.4 47.5 L 131.4 45.6 L 130.05691576004028 43.280127143859865 L 127.8 46.0 L 123.6 50.4 L 121.48425531387329 52.419574451446536 L 122.5 53.0 L 124.4 54.4 L 126.1 55.9 L 127.8 57.5 L 129.4 59.3 L 130.8 61.2 L 132.1 63.2 L 133.3 65.2 L 134.4 67.4 L 134.02478733062745 69.51057109832763 L 137.8 66.2 L 141.4294900894165 62.45151023864746 L 138.6 62.2 L 135.5 58.8 L 135.3 56.8 Z M 136.9640000343323 34.2 L 135.4 36.5 L 132.19178848266603 40.6620041847229 L 132.8 40.9 L 134.9 42.1 L 137.0 43.4 L 138.9 44.9 L 140.8 46.6 L 142.5 48.4 L 144.1 50.5 L 145.6 52.6 L 146.9 54.9 L 146.77422494888305 56.34641275405884 L 149.4 53.1 L 154.5 45.8 L 159.0 38.0 L 160.9 34.2 Z M 87.1 38.5 L 85.9 36.1 L 84.5 33.7 L 83.0 31.3 L 81.5 29.0 L 79.8 26.7 L 78.0 24.3 L 75.9 22.3 L 76.9 20.8 L 79.6 22.2 L 82.4 23.5 L 85.1 25.0 L 87.7 26.8 L 90.2 28.7 L 92.5 30.7 L 94.8 33.0 L 97.0 35.3 L 99.0 37.9 L 100.9 40.5 L 101.3 45.1 L 98.3 48.6 L 93.8 48.9 L 90.3 46.0 L 88.3 41.0 Z " />
</g>
</svg>
