<svg xmlns="http://www.w3.org/2000/svg" xmlns:xlink="http://www.w3.org/1999/xlink" version="1.1" baseProfile="full" viewBox="0 0 200 200" width="200" height="200">
<g fill="black">
<path d="M 68.2 105.1 L 67.84202899932862 103.84710140228272 L 66.9 104.3 L 61.7 106.6 L 56.3 108.6 L 53.9 109.38545455932618 L 53.9 183.0 L 41.9 189.0 L 41.9 112.9839285850525 L 39.6 113.6 L 33.9 115.1 L 28.1 116.4 L 20.444190120697023 117.9571138381958 L 18.7 121.5 L 16.3 118.8 L 12.8 107.1 L 14.8 106.9 L 20.6 106.4 L 26.4 105.8 L 28.967685222625732 105.52971735000611 L 30.8 102.1 L 34.8 94.8 L 38.8 87.6 L 42.9 80.4 L 50.9 66.0 L 54.8 58.7 L 58.6 51.5 L 62.4 44.2 L 65.6357614517212 37.81593008041382 L 65.6 37.8 L 66.6 36.0 L 76.6 42.7 L 78.3 45.9 L 74.5857177734375 46.02590789794922 L 72.3 49.8 L 67.9 56.9 L 63.4 63.9 L 58.8 70.8 L 54.1 77.7 L 49.3 84.5 L 44.3 91.2 L 39.2 97.8 L 33.9 104.2 L 33.12275714874268 105.07439823150635 L 43.5 103.8 L 60.3 101.4 L 65.9 100.7 L 66.8845705986023 100.59636096954345 L 66.1 98.1 L 64.9 94.8 L 63.6 91.6 L 62.1 88.4 L 60.5 85.3 L 58.8 82.2 L 56.7 79.3 L 57.9 78.0 L 60.9 80.2 L 64.0 82.4 L 66.8 85.0 L 69.4 87.9 L 71.8 91.0 L 74.1 94.3 L 76.1 97.8 L 78.0 101.5 L 79.7 105.5 L 81.3 109.6 L 80.5 114.1 L 76.9 116.9 L 72.4 116.1 L 69.6 112.5 L 69.0 108.7 Z M 118.2 124.4 L 115.1 132.2 L 111.6 139.9 L 107.6 147.3 L 103.1 154.6 L 98.2 161.7 L 92.8 168.5 L 87.0 175.2 L 80.5 181.5 L 73.6 187.6 L 72.3 186.3 L 77.7 179.0 L 82.8 171.8 L 87.5 164.7 L 91.9 157.5 L 95.8 150.3 L 99.3 143.1 L 102.4 135.8 L 105.1 128.4 L 107.3 121.0 L 108.23333330154419 117.0 L 84.0 117.0 L 84.0 113.0 L 128.0 113.0 L 128.0 11.0 L 140.0 13.0 L 143.0 15.0 L 140.0 16.8 L 140.0 113.0 L 166.0 113.0 L 176.0 103.0 L 188.0 113.0 L 188.0 117.0 L 120.60500001907349 117.0 Z M 95.0 180.0 L 135.0 180.0 L 135.0 147.0 L 114.0 147.0 L 114.0 143.0 L 155.0 143.0 L 165.0 133.0 L 177.0 143.0 L 177.0 147.0 L 147.0 147.0 L 147.0 180.0 L 164.0 180.0 L 174.0 170.0 L 186.0 180.0 L 186.0 184.0 L 95.0 184.0 Z M 36.4 128.6 L 39.1 130.9 L 35.70988025665283 132.46467065811157 L 35.4 134.2 L 34.1 139.7 L 32.5 145.1 L 30.8 150.5 L 28.7 155.8 L 26.4 161.0 L 23.8 166.1 L 20.9 171.0 L 17.6 175.8 L 13.9 180.4 L 12.3 179.5 L 14.2 174.0 L 16.0 168.7 L 17.7 163.5 L 19.3 158.3 L 20.6 153.1 L 21.8 148.0 L 22.8 142.8 L 23.5 137.6 L 24.1 132.5 L 24.34224729537964 128.3010474205017 L 24.3 128.3 L 24.6 125.2 Z M 67.7 151.0 L 66.9 147.2 L 65.9 143.5 L 64.8 139.9 L 63.6 136.4 L 62.2 133.0 L 59.2 126.4 L 57.3 123.3 L 58.7 122.1 L 61.6 124.4 L 64.5 127.0 L 67.2 129.9 L 69.7 133.0 L 72.0 136.4 L 74.1 140.1 L 76.0 143.9 L 77.8 148.0 L 79.4 152.3 L 80.7 156.8 L 79.8 161.3 L 76.0 163.9 L 71.6 163.0 L 69.0 159.2 L 68.4 155.0 Z M 113.6 94.2 L 112.5 92.2 L 111.4 90.3 L 110.2 88.3 L 108.9 86.4 L 105.75641021728515 82.2085470199585 L 105.5 82.7 L 102.7 87.1 L 99.6 91.3 L 96.1 95.3 L 92.3 99.0 L 88.1 102.4 L 83.5 105.5 L 82.3 104.1 L 85.4 99.8 L 88.3 95.5 L 90.9 91.3 L 93.3 87.2 L 95.3 82.9 L 97.1 78.7 L 98.6 74.4 L 99.8 70.0 L 100.7 65.6 L 101.25908098220825 62.00590810775757 L 101.2 62.0 L 101.7 59.1 L 113.2 63.2 L 115.8 65.7 L 112.14179468154907 67.05489082336426 L 111.8 68.3 L 110.0 73.3 L 107.9 78.1 L 107.42035140991212 79.01932649612426 L 108.2 79.3 L 110.7 80.4 L 113.0 81.6 L 115.3 83.0 L 117.5 84.5 L 119.6 86.1 L 121.6 87.9 L 123.6 89.8 L 125.5 91.8 L 126.2 96.3 L 123.7 100.1 L 119.1 100.8 L 115.4 98.3 L 114.5 96.2 Z M 172.4 94.9 L 171.2 92.7 L 168.6 88.5 L 167.2 86.5 L 164.2 82.5 L 163.97530269622803 82.20508470535279 L 161.6 85.9 L 158.6 90.0 L 155.3 94.0 L 151.8 97.7 L 147.8 101.2 L 143.6 104.5 L 142.3 103.3 L 145.1 98.8 L 147.7 94.5 L 150.1 90.2 L 152.3 86.0 L 154.3 81.8 L 156.0 77.7 L 157.5 73.5 L 158.7 69.2 L 159.8 65.0 L 160.3487705230713 61.70737705230713 L 160.3 61.7 L 160.43999996185303 61.160000038146975 L 160.5 60.8 L 160.5314516067505 60.80725803375244 L 161.0 59.0 L 172.2 63.5 L 174.7 66.1 L 170.98185749053954 67.31684665679931 L 170.7 68.2 L 168.8 72.8 L 166.7 77.3 L 165.75058822631837 79.04058818817138 L 166.5 79.3 L 169.0 80.5 L 171.4 81.8 L 173.8 83.2 L 176.1 84.8 L 178.3 86.6 L 180.4 88.5 L 182.5 90.5 L 184.5 92.6 L 185.3 97.1 L 182.8 100.9 L 178.4 101.8 L 174.5 99.3 L 173.5 97.0 Z M 29.2 69.0 L 28.0 66.0 L 26.5 63.0 L 24.9 60.1 L 23.1 57.3 L 21.0 54.5 L 18.7 51.7 L 16.3 48.8 L 13.5 46.2 L 14.4 44.7 L 18.0 46.5 L 21.6 48.2 L 24.9 50.3 L 28.0 52.6 L 28.556758403778076 53.07996416091919 L 29.3 51.2 L 31.0 47.0 L 32.8 42.8 L 34.6 38.7 L 36.4 34.7 L 38.2 30.6 L 44.60919904708862 15.1425199508667 L 44.5 15.1 L 45.5 13.1 L 55.8 19.5 L 57.6 22.6 L 53.77745695114136 22.9295295715332 L 53.5 23.4 L 51.1 27.3 L 48.7 31.1 L 46.2 34.9 L 43.6 38.7 L 38.2 46.1 L 35.3 49.6 L 32.2 53.1 L 30.5801962852478 54.824307155609134 L 30.9 55.1 L 33.7 57.9 L 36.2 60.9 L 38.5 64.1 L 40.5 67.5 L 42.4 71.1 L 42.1 75.6 L 38.8 78.8 L 34.2 78.5 L 31.1 75.2 L 30.2 72.0 Z M 172.4 51.2 L 171.6 49.4 L 170.7 47.6 L 169.5 45.8 L 168.2 44.0 L 166.7 42.1 L 165.0 40.3 L 164.2685230255127 39.530024242401126 L 163.5 40.9 L 160.8 45.0 L 158.0 48.9 L 154.8 52.6 L 151.4 56.2 L 147.6 59.5 L 143.6 62.7 L 142.3 61.4 L 145.0 57.2 L 147.4 53.0 L 149.7 49.0 L 151.8 44.9 L 153.6 40.9 L 155.3 36.9 L 156.7 32.9 L 157.9 28.8 L 158.9 24.8 L 159.4451117515564 21.60720272064209 L 159.4 21.6 L 159.53571424484252 21.07653064727783 L 159.6 20.7 L 159.6313859939575 20.707511138916015 L 160.1 18.9 L 171.3 23.5 L 173.8 26.1 L 169.93369178771974 27.34274196624756 L 169.7 28.0 L 167.9 32.4 L 165.83617973327637 36.72419471740723 L 166.9 37.0 L 169.6 37.9 L 172.1 39.0 L 174.4 40.3 L 176.7 41.8 L 178.8 43.4 L 180.8 45.2 L 182.6 47.2 L 184.3 49.4 L 184.6 54.0 L 181.6 57.4 L 177.1 57.7 L 173.6 54.8 L 173.1 53.0 Z M 113.0 51.7 L 112.1 49.9 L 111.1 48.0 L 110.0 46.2 L 107.4 42.4 L 105.9 40.5 L 105.60810813903808 40.11081085205078 L 105.1 41.0 L 102.4 45.0 L 99.4 48.9 L 96.1 52.7 L 92.5 56.2 L 88.6 59.6 L 84.4 62.7 L 83.2 61.4 L 86.0 57.2 L 88.6 53.0 L 91.0 48.9 L 93.2 44.9 L 95.2 40.8 L 96.9 36.8 L 98.4 32.8 L 99.6 28.8 L 100.6 24.7 L 101.2193811416626 21.603094482421874 L 101.2 21.6 L 101.8 18.9 L 113.1 23.5 L 115.5 26.1 L 111.73776865005493 27.331275749206544 L 111.5 28.0 L 109.6 32.5 L 107.5 36.8 L 107.3130841255188 37.12710275650024 L 108.2 37.4 L 110.6 38.5 L 112.9 39.6 L 115.1 40.9 L 117.2 42.3 L 119.2 43.8 L 121.1 45.5 L 122.9 47.2 L 124.7 49.1 L 125.3 53.6 L 122.7 57.3 L 118.2 58.0 L 114.4 55.3 L 113.8 53.5 Z " />
</g>
</svg>
