<svg xmlns="http://www.w3.org/2000/svg" xmlns:xlink="http://www.w3.org/1999/xlink" version="1.1" baseProfile="full" viewBox="0 0 200 200" width="200" height="200">
<g fill="black">
<path d="M 77.6 99.6 L 76.1 95.3 L 78.0 91.1 L 79.0 90.6 L 80.2 89.5 L 81.4 87.8 L 82.6 85.6 L 83.8 82.9 L 84.8 79.7 L 85.8 75.9 L 86.8 71.7 L 87.7 67.1 L 88.1 62.0 L 89.9 61.9 L 90.5 67.1 L 90.8875 70.2 L 146.8586956977844 70.2 L 148.3 66.3 L 149.8 61.9 L 151.3 57.6 L 152.8 53.5 L 154.2 49.6 L 155.5 45.8 L 156.8 42.2 L 157.9 38.7 L 159.0 35.3 L 159.70790119171141 33.034716033935545 L 159.6 33.0 L 160.5 30.8 L 171.1 36.7 L 173.1 39.7 L 169.10779218673707 40.31948051452637 L 167.6 43.0 L 163.6 49.6 L 161.4 53.1 L 159.1 56.7 L 156.7 60.4 L 154.0 64.1 L 151.1 67.8 L 149.36000003814698 70.2 L 172.2 70.2 L 178.2 65.2 L 189.2 74.2 L 184.2 77.2 L 180.85411767959596 78.59411764144897 L 179.8 80.1 L 176.6 84.3 L 174.8 86.6 L 172.9 88.9 L 170.9 91.3 L 169.03423233032225 93.32800827026367 L 170.1 94.2 L 165.1 98.2 L 165.1 126.1 L 153.1 132.1 L 153.1 124.1 L 106.7 124.1 L 106.7 140.8 L 159.3 140.8 L 165.3 135.8 L 176.3 144.8 L 171.3 148.8 L 171.3 180.4 L 159.3 186.4 L 159.3 176.4 L 106.7 176.4 L 106.7 183.4 L 94.7 189.4 L 94.7 84.2 L 106.7 90.2 L 153.1 90.2 L 159.1 85.2 L 166.80762128829957 91.50623559951782 L 167.4 89.4 L 168.3 86.4 L 169.2 83.6 L 169.9 80.9 L 170.7 78.4 L 171.3 76.1 L 171.71304349899293 74.2 L 91.30444440841674 74.2 L 91.5 76.4 L 91.5 80.6 L 91.4 84.5 L 91.0 88.1 L 90.3 91.4 L 89.3 94.5 L 87.9 97.4 L 86.1 100.0 L 81.7 101.5 Z M 65.7 105.0 L 65.43649482727051 103.97525777816773 L 64.8 104.3 L 59.7 106.6 L 54.5 108.6 L 52.4 109.31320753097535 L 52.4 183.0 L 40.4 189.0 L 40.4 113.04444446563721 L 38.4 113.6 L 32.9 115.1 L 27.3 116.4 L 21.7 117.6 L 20.0521559715271 117.94093322753906 L 18.3 121.5 L 15.9 118.8 L 12.4 107.1 L 14.3 106.9 L 19.9 106.4 L 25.5 105.8 L 27.960717105865477 105.53155813217163 L 29.7 102.1 L 33.6 94.8 L 41.4 80.4 L 52.8 58.8 L 56.5 51.6 L 63.246462440490724 37.91967334747314 L 63.2 37.9 L 64.2 36.0 L 74.3 42.6 L 76.0 45.8 L 72.32237033843994 45.99022226333618 L 70.1 49.8 L 65.9 56.8 L 61.5 63.8 L 52.5 77.6 L 47.8 84.4 L 43.0 91.1 L 38.1 97.7 L 32.9 104.2 L 32.17055397033691 105.05102043151855 L 42.0 103.8 L 47.5 103.0 L 58.3 101.4 L 63.7 100.7 L 64.53782386779785 100.60860099792481 L 63.8 98.1 L 62.7 94.8 L 61.4 91.5 L 60.0 88.4 L 56.8 82.2 L 54.8 79.3 L 56.1 78.0 L 59.0 80.2 L 62.0 82.5 L 64.7 85.1 L 67.2 87.9 L 69.6 91.0 L 71.8 94.3 L 73.8 97.9 L 75.6 101.6 L 77.3 105.5 L 78.8 109.6 L 78.0 114.1 L 74.4 116.9 L 69.9 116.1 L 67.1 112.5 L 66.5 108.7 Z M 35.4 128.5 L 38.2 130.8 L 34.69396619796753 132.45378952026368 L 34.4 134.1 L 33.2 139.7 L 31.7 145.1 L 30.0 150.5 L 28.0 155.7 L 25.7 160.9 L 23.2 166.0 L 20.3 171.0 L 17.1 175.8 L 13.5 180.4 L 12.0 179.5 L 13.7 174.1 L 15.5 168.7 L 17.1 163.5 L 18.6 158.3 L 19.9 153.2 L 21.0 148.0 L 21.9 142.8 L 22.6 137.7 L 23.2 132.5 L 23.44226703643799 128.30070447921753 L 23.4 128.3 L 23.7 125.2 Z M 106.7 144.8 L 106.7 172.4 L 159.3 172.4 L 159.3 144.8 Z M 65.3 151.0 L 64.5 147.1 L 63.6 143.4 L 62.5 139.8 L 61.4 136.3 L 60.1 133.0 L 58.7 129.7 L 57.2 126.4 L 55.5 123.3 L 56.8 122.1 L 59.6 124.5 L 62.5 127.0 L 65.1 129.9 L 67.5 133.1 L 69.8 136.5 L 71.8 140.1 L 73.7 144.0 L 75.4 148.1 L 76.9 152.4 L 78.3 156.9 L 77.3 161.3 L 73.5 163.9 L 69.1 162.9 L 66.5 159.2 L 65.9 155.0 Z M 106.7 94.2 L 106.7 120.1 L 153.1 120.1 L 153.1 94.2 Z M 28.1 68.9 L 26.9 65.9 L 25.6 62.9 L 24.0 60.1 L 22.2 57.2 L 20.3 54.4 L 18.1 51.6 L 15.8 48.8 L 13.1 46.3 L 14.1 44.7 L 17.5 46.5 L 21.0 48.3 L 24.2 50.3 L 27.3 52.6 L 27.65604934692383 52.93061723709106 L 28.3 51.2 L 30.0 47.0 L 36.8 30.6 L 38.5 26.6 L 42.94260129928589 15.215834140777588 L 42.9 15.2 L 43.267346954345705 14.383673477172852 L 43.3 14.3 L 43.30413036346435 14.301932525634765 L 43.8 13.2 L 54.2 19.4 L 56.0 22.5 L 52.13606405258179 22.89971752166748 L 47.3 31.1 L 44.8 34.9 L 42.3 38.6 L 39.7 42.4 L 37.1 46.0 L 34.3 49.6 L 31.3 53.0 L 29.6635950088501 54.79476680755615 L 30.1 55.2 L 32.8 58.0 L 35.2 61.0 L 37.4 64.2 L 39.4 67.6 L 41.2 71.1 L 40.9 75.7 L 37.5 78.8 L 33.0 78.5 L 29.9 75.1 L 29.1 71.9 Z M 100.7 55.7 L 100.4 53.2 L 100.0 50.7 L 99.5 48.3 L 98.9 45.9 L 98.2 43.5 L 97.4 41.1 L 96.5 38.7 L 95.2 36.6 L 96.5 35.4 L 98.4 37.2 L 100.6 38.8 L 102.7 40.8 L 104.5 42.9 L 106.3 45.1 L 107.9 47.6 L 109.3 50.1 L 110.6 52.9 L 111.8 55.7 L 112.8 58.7 L 111.8 63.2 L 108.0 65.7 L 103.5 64.7 L 101.0 60.8 L 100.9 58.2 Z M 126.6 53.5 L 126.3 50.9 L 125.9 48.3 L 124.9 43.3 L 124.3 40.9 L 123.6 38.5 L 122.8 36.1 L 121.6 34.0 L 122.9 32.8 L 124.8 34.6 L 126.9 36.4 L 128.8 38.3 L 130.6 40.5 L 132.3 42.9 L 133.8 45.4 L 135.2 48.1 L 136.5 50.9 L 137.7 53.9 L 138.7 57.0 L 137.6 61.5 L 133.8 64.0 L 129.4 62.9 L 126.9 59.1 L 126.8 56.3 Z M 165.55151767730712 14.027192211151123 L 175.1 22.1 L 175.4 25.1 L 171.17636251449585 23.229531955718993 L 168.5 24.0 L 161.8 25.6 L 154.8 27.0 L 147.4 28.3 L 139.6 29.4 L 131.4 30.4 L 122.9 31.3 L 114.0 32.0 L 104.6 32.5 L 94.9 32.7 L 84.8 32.7 L 84.6 30.9 L 94.5 29.0 L 104.0 27.2 L 113.1 25.5 L 121.8 23.8 L 130.1 22.1 L 137.9 20.3 L 145.3 18.4 L 152.3 16.5 L 158.9 14.6 L 164.1134214401245 12.834163665771484 L 164.1 12.8 L 164.13268947601318 12.827637481689454 L 165.1 12.5 Z " />
</g>
</svg>
