<svg xmlns="http://www.w3.org/2000/svg" xmlns:xlink="http://www.w3.org/1999/xlink" version="1.1" baseProfile="full" viewBox="0 0 200 200" width="200" height="200">
<g fill="black">
<path d="M 63.8 105.0 L 63.597463035583495 104.08858346939087 L 63.2 104.3 L 58.3 106.6 L 53.4 108.6 L 51.5 109.27058820724487 L 51.5 183.0 L 39.5 189.0 L 39.5 113.16730766296386 L 38.0 113.6 L 32.7 115.1 L 27.4 116.4 L 22.0 117.6 L 20.57653064727783 117.8846939086914 L 18.9 121.4 L 16.5 118.7 L 12.8 107.2 L 14.8 106.9 L 20.2 106.4 L 27.877289867401124 105.53087282180786 L 29.5 102.1 L 33.1 94.9 L 44.2 73.3 L 51.4 58.9 L 54.9 51.7 L 58.4 44.4 L 61.36784391403198 38.02786445617676 L 61.3 38.0 L 62.3 36.1 L 72.5 42.6 L 74.3 45.7 L 70.61015663146972 45.95447196960449 L 68.5 49.7 L 64.4 56.7 L 60.2 63.7 L 55.9 70.7 L 51.6 77.5 L 47.1 84.3 L 42.5 91.1 L 37.7 97.7 L 32.7 104.1 L 31.91607141494751 105.04975957870484 L 36.0 104.5 L 41.3 103.8 L 56.9 101.4 L 62.1 100.7 L 62.77133483886719 100.62253828048706 L 62.0 98.0 L 60.9 94.7 L 59.7 91.5 L 58.4 88.3 L 57.0 85.3 L 55.4 82.2 L 53.6 79.3 L 54.9 78.0 L 57.7 80.2 L 60.5 82.5 L 63.2 85.1 L 65.6 88.0 L 67.9 91.1 L 70.0 94.4 L 72.0 97.9 L 73.7 101.7 L 75.3 105.6 L 76.8 109.7 L 76.0 114.2 L 72.3 116.9 L 67.8 116.1 L 65.1 112.4 L 64.5 108.6 Z M 167.9 178.0 L 166.7 175.3 L 165.3 172.6 L 163.7 169.9 L 162.92813701629638 168.62869625091554 L 159.2 169.7 L 150.5 171.9 L 141.9 173.8 L 133.4 175.6 L 124.9 177.3 L 116.6 179.0 L 108.3 180.5 L 100.1 182.0 L 92.0 183.4 L 87.97138042449951 184.10500841140748 L 86.3 187.5 L 84.0 184.8 L 80.5 173.1 L 82.4 172.9 L 90.5 172.1 L 98.6 171.4 L 115.2 169.8 L 123.3 168.94235296249389 L 123.3 140.0 L 105.0 140.0 L 105.0 147.0 L 93.0 153.0 L 93.0 102.7 L 105.0 108.7 L 123.3 108.7 L 123.3 89.8 L 135.3 91.8 L 138.3 93.8 L 135.3 95.6 L 135.3 108.7 L 155.0 108.7 L 161.0 103.7 L 172.0 112.7 L 167.0 116.7 L 167.0 140.0 L 155.0 146.0 L 155.0 140.0 L 135.3 140.0 L 135.3 167.81494255065917 L 140.9 167.3 L 149.7 166.6 L 158.6 165.9 L 161.09591073989867 165.7890706062317 L 160.0 164.2 L 157.9 161.2 L 155.7 158.0 L 153.1 155.1 L 154.2 153.7 L 157.6 156.0 L 160.9 158.0 L 164.1 160.2 L 167.0 162.6 L 169.7 164.9 L 172.2 167.4 L 174.6 169.9 L 176.8 172.5 L 178.8 175.2 L 180.6 177.9 L 180.8 182.4 L 177.7 185.9 L 173.2 186.0 L 169.7 183.0 L 168.9 180.5 Z M 35.3 128.5 L 38.1 130.8 L 34.59396619796753 132.45378952026368 L 34.3 134.1 L 33.1 139.6 L 31.7 145.1 L 30.0 150.4 L 28.1 155.7 L 25.9 160.9 L 23.5 166.0 L 20.7 171.0 L 17.6 175.8 L 14.1 180.4 L 12.5 179.5 L 14.2 174.1 L 15.8 168.8 L 17.3 163.6 L 18.7 158.4 L 20.0 153.2 L 21.0 148.0 L 21.9 142.9 L 22.6 137.7 L 23.1 132.6 L 23.26151885986328 128.40050840377808 L 23.2 128.4 L 23.5 125.2 Z M 63.4 150.9 L 61.8 143.3 L 60.8 139.8 L 59.7 136.3 L 58.5 132.9 L 57.2 129.6 L 55.8 126.4 L 54.2 123.3 L 55.5 122.1 L 58.3 124.5 L 61.1 127.1 L 63.6 130.0 L 65.9 133.1 L 68.1 136.5 L 70.1 140.2 L 71.9 144.1 L 73.5 148.1 L 75.0 152.4 L 76.3 156.9 L 75.3 161.4 L 71.5 163.9 L 67.0 162.9 L 64.5 159.1 L 64.0 154.9 Z M 105.0 112.7 L 105.0 136.0 L 123.3 136.0 L 123.3 112.7 Z M 135.3 112.7 L 135.3 136.0 L 155.0 136.0 L 155.0 112.7 Z M 150.2 92.1 L 138.7 90.6 L 128.5 88.1 L 119.6 84.5 L 112.1 79.9 L 106.0 74.2 L 101.6 67.5 L 100.53947372436524 64.48157892227172 L 99.3 68.2 L 96.7 75.0 L 94.0 81.5 L 91.0 87.5 L 87.8 93.1 L 84.3 98.2 L 80.5 102.8 L 79.0 101.8 L 81.0 96.4 L 83.0 90.8 L 85.0 84.9 L 86.9 78.8 L 88.7 72.3 L 90.4 65.6 L 92.0 58.4 L 93.4 51.0 L 94.8 43.2 L 95.86577348709106 36.00602922439575 L 95.8 36.0 L 96.3 33.1 L 107.8 37.1 L 110.4 39.6 L 106.91770753860473 40.95422487258911 L 105.9 45.4 L 103.9 53.4 L 102.58552350997925 57.94091882705688 L 102.9 58.7 L 106.6 64.4 L 111.2 69.1 L 116.7 72.9 L 123.3 76.0 L 124.0 76.19493675231934 L 124.0 25.6 L 86.6 25.6 L 86.6 21.6 L 167.4 21.6 L 167.4 20.5 L 173.4 15.5 L 184.4 24.5 L 179.4 27.5 L 177.24201679229736 28.399159622192382 L 177.2 28.5 L 176.1 30.8 L 174.9 33.2 L 173.6 35.5 L 170.8 40.1 L 169.2 42.4 L 167.5 44.6 L 166.1 47.0 L 164.5 46.3 L 165.3 43.7 L 165.6 40.9 L 165.9 38.3 L 166.3 35.7 L 166.6 33.1 L 166.9 30.7 L 167.1 28.2 L 167.3 25.9 L 167.3125 25.6 L 136.0 25.6 L 136.0 51.0 L 149.01818180084229 51.0 L 157.2 42.0 L 167.2 51.0 L 167.2 55.0 L 136.0 55.0 L 136.0 78.99120874404908 L 140.3 79.7 L 150.8 80.3 L 162.7 80.0 L 175.9 78.9 L 186.6 78.0 L 177.0 92.1 L 163.0 92.6 Z M 27.8 68.8 L 26.7 65.8 L 25.4 62.9 L 23.9 60.0 L 22.3 57.2 L 20.4 54.4 L 18.4 51.6 L 16.2 48.8 L 13.6 46.3 L 14.7 44.8 L 18.0 46.5 L 21.3 48.3 L 24.5 50.4 L 27.4 52.7 L 27.595096778869628 52.887870979309085 L 28.2 51.3 L 29.7 47.1 L 37.7 26.6 L 39.3 22.6 L 41.96262178421021 15.322167015075683 L 41.9 15.3 L 42.8 13.2 L 53.2 19.3 L 55.2 22.4 L 51.27574472427368 22.87361698150635 L 51.1 23.2 L 48.9 27.1 L 46.6 31.0 L 41.8 38.6 L 39.3 42.3 L 36.7 46.0 L 34.0 49.5 L 31.1 53.0 L 29.571949768066407 54.791507148742674 L 30.1 55.3 L 32.7 58.1 L 35.0 61.0 L 37.2 64.2 L 39.1 67.6 L 40.8 71.2 L 40.5 75.8 L 37.1 78.8 L 32.5 78.4 L 29.5 75.0 L 28.7 71.9 Z " />
</g>
</svg>
