<svg xmlns="http://www.w3.org/2000/svg" xmlns:xlink="http://www.w3.org/1999/xlink" version="1.1" baseProfile="full" viewBox="0 0 200 200" width="200" height="200">
<g fill="black">
<path d="M 59.5 136.1 L 140.4 136.1 L 146.4 131.1 L 157.4 140.1 L 152.4 144.1 L 152.4 180.6 L 140.4 186.6 L 140.4 178.6 L 59.5 178.6 L 59.5 181.6 L 47.5 187.6 L 47.5 130.1 Z M 59.5 159.3 L 59.5 174.6 L 140.4 174.6 L 140.4 159.3 Z M 59.5 140.1 L 59.5 155.3 L 140.4 155.3 L 140.4 140.1 Z M 44.0 136.7 L 32.0 142.7 L 32.0 79.3 L 44.0 85.3 L 73.0 85.3 L 73.0 72.1 L 15.0 72.1 L 15.0 68.1 L 73.0 68.1 L 73.0 51.0 L 85.0 53.0 L 88.0 55.0 L 85.0 56.8 L 85.0 68.1 L 115.0 68.1 L 115.0 51.0 L 127.0 53.0 L 130.0 55.0 L 127.0 56.8 L 127.0 68.1 L 166.8181818008423 68.1 L 175.0 59.1 L 185.0 68.1 L 185.0 72.1 L 127.0 72.1 L 127.0 85.3 L 156.0 85.3 L 162.0 80.3 L 173.0 89.3 L 168.0 93.3 L 168.0 130.7 L 156.0 136.7 L 156.0 124.7 L 44.0 124.7 Z M 44.0 107.0 L 44.0 120.7 L 73.0 120.7 L 73.0 107.0 Z M 85.0 107.0 L 85.0 120.7 L 115.0 120.7 L 115.0 107.0 Z M 127.0 107.0 L 127.0 120.7 L 156.0 120.7 L 156.0 107.0 Z M 44.0 89.3 L 44.0 103.0 L 73.0 103.0 L 73.0 89.3 Z M 85.0 89.3 L 85.0 103.0 L 115.0 103.0 L 115.0 89.3 Z M 127.0 89.3 L 127.0 103.0 L 156.0 103.0 L 156.0 89.3 Z M 85.0 72.1 L 85.0 85.3 L 115.0 85.3 L 115.0 72.1 Z M 37.0 55.1 L 25.0 61.1 L 25.0 12.1 L 37.0 18.1 L 163.0 18.1 L 169.0 13.1 L 180.0 22.1 L 175.0 26.1 L 175.0 52.1 L 163.0 58.1 L 163.0 48.1 L 37.0 48.1 Z M 37.0 22.1 L 37.0 44.1 L 71.0 44.1 L 71.0 22.1 Z M 83.0 22.1 L 83.0 44.1 L 117.0 44.1 L 117.0 22.1 Z M 129.0 22.1 L 129.0 44.1 L 163.0 44.1 L 163.0 22.1 Z " />
</g>
</svg>
