<svg xmlns="http://www.w3.org/2000/svg" xmlns:xlink="http://www.w3.org/1999/xlink" version="1.1" baseProfile="full" viewBox="0 0 200 200" width="200" height="200">
<g fill="black">
<path d="M 48.0 181.5 L 36.0 187.5 L 36.0 150.3 L 48.0 152.3 L 51.0 154.3 L 48.0 156.1 L 48.0 174.5 L 94.0 174.5 L 94.0 145.6 L 15.0 145.6 L 15.0 141.6 L 94.0 141.6 L 94.0 122.7 L 55.245454502105716 122.7 L 52.9 124.5 L 48.3 127.5 L 43.4 130.4 L 38.2 133.2 L 32.6 135.7 L 26.6 138.0 L 20.3 139.9 L 19.6 138.3 L 24.9 134.6 L 30.0 131.0 L 34.8 127.5 L 39.2 124.1 L 43.3 120.7 L 47.0 117.3 L 50.4 113.8 L 53.5 110.4 L 56.2 106.9 L 57.941607761383054 104.3254493713379 L 57.9 104.3 L 58.32307691574097 103.7615385055542 L 58.5 103.5 L 58.518139362335205 103.51327724456787 L 59.0 102.9 L 68.2 110.6 L 69.4 114.0 L 65.39309158325196 113.65457687377929 L 64.8 114.3 L 61.2 117.9 L 60.23030300140381 118.7 L 150.8181818008423 118.7 L 159.0 109.7 L 169.0 118.7 L 169.0 122.7 L 106.0 122.7 L 106.0 141.6 L 163.0 141.6 L 173.0 131.6 L 185.0 141.6 L 185.0 145.6 L 106.0 145.6 L 106.0 174.5 L 152.0 174.5 L 152.0 150.3 L 164.0 152.3 L 167.0 154.3 L 164.0 156.1 L 164.0 180.5 L 152.0 186.5 L 152.0 178.5 L 48.0 178.5 Z M 152.5 68.5 L 162.5 68.5 L 163.7 68.4 L 164.6 68.3 L 165.2 68.1 L 165.5 67.9 L 165.7 67.8 L 165.9 67.6 L 166.1 67.2 L 166.2 66.6 L 166.4 65.7 L 166.5 64.5 L 166.5 38.387442684173585 L 135.6 43.23061408996582 L 135.6 82.2 L 123.6 88.2 L 123.6 45.11145734786987 L 97.3 49.23363885879517 L 97.3 89.6 L 97.2 90.9 L 97.3 91.8 L 97.4 92.5 L 97.5 92.9 L 97.7 93.3 L 97.9 93.6 L 98.3 93.9 L 98.9 94.2 L 99.9 94.5 L 101.3 94.6 L 175.6 94.6 L 180.6 77.6 L 182.6 77.6 L 180.6 94.6 L 183.6 96.6 L 185.6 99.6 L 183.6 102.6 L 180.6 104.6 L 98.8 104.6 L 96.4 104.3 L 94.1 103.6 L 91.9 102.5 L 89.9 101.0 L 88.2 99.2 L 86.9 97.0 L 86.0 94.7 L 85.5 92.2 L 85.3 89.6 L 85.3 51.11448211669922 L 63.7 54.5 L 63.591476631164554 53.79459781646729 L 61.6 56.5 L 56.8 62.9 L 52.5 68.6 L 48.8 73.6 L 45.7 78.0 L 43.2 81.6 L 41.4 84.6 L 40.807311630249025 85.73149604797364 L 42.5 88.2 L 44.1 92.2 L 44.9 96.6 L 45.0 101.3 L 42.6 105.2 L 38.2 106.4 L 34.3 104.0 L 33.1 99.6 L 33.7 96.7 L 33.8 94.2 L 33.6 91.9 L 32.9 89.7 L 31.6 87.4 L 29.6 85.2 L 26.9 82.9 L 23.4 80.8 L 19.2 78.7 L 14.2 77.2 L 14.5 75.4 L 19.9 76.0 L 24.9 76.7 L 29.4 77.9 L 32.07301588058472 79.03603172302246 L 32.8 78.2 L 35.4 75.4 L 38.5 72.1 L 42.3 68.2 L 46.7 63.7 L 51.8 58.6 L 57.6 52.9 L 64.1 46.8 L 71.4 40.2 L 72.7 41.4 L 66.9 49.3 L 66.31385688781738 50.09626989364624 L 85.3 47.1204400062561 L 85.3 24.3 L 97.3 26.3 L 100.3 28.3 L 97.3 30.1 L 97.3 45.239596652984616 L 123.6 41.117415237426755 L 123.6 12.0 L 135.6 14.0 L 138.6 16.0 L 135.6 17.8 L 135.6 39.23657197952271 L 166.5 34.39340057373047 L 166.5 33.4 L 172.5 28.4 L 183.5 37.4 L 178.5 41.4 L 178.5 64.5 L 178.3 67.1 L 177.9 69.6 L 177.1 72.0 L 175.9 74.2 L 174.2 76.2 L 172.2 77.9 L 169.9 79.1 L 167.5 79.9 L 165.0 80.4 L 162.5 80.5 L 162.5 74.5 L 152.5 71.5 Z M 34.1 51.8 L 32.8 50.6 L 31.0 49.4 L 28.8 48.0 L 26.2 46.7 L 23.3 45.3 L 20.1 43.9 L 16.5 42.4 L 12.6 41.3 L 12.9 39.5 L 17.0 39.9 L 21.0 39.9 L 24.6 40.2 L 28.0 40.5 L 31.2 40.9 L 34.1 41.4 L 36.8 42.1 L 39.2 42.9 L 41.6 43.8 L 43.7 45.0 L 45.6 49.2 L 44.1 53.5 L 39.9 55.4 L 35.6 53.9 L 35.1 53.0 Z M 48.6 27.3 L 47.1 26.1 L 45.3 24.8 L 43.2 23.4 L 40.7 22.1 L 38.0 20.7 L 35.0 19.3 L 31.7 17.8 L 28.0 16.7 L 28.4 14.9 L 32.2 15.3 L 35.9 15.4 L 39.4 15.6 L 42.6 15.9 L 45.6 16.4 L 48.5 16.9 L 51.1 17.5 L 53.6 18.3 L 55.9 19.2 L 58.1 20.4 L 60.2 24.4 L 58.9 28.8 L 54.8 30.9 L 50.4 29.6 L 49.7 28.5 Z " />
</g>
</svg>
