<svg xmlns="http://www.w3.org/2000/svg" xmlns:xlink="http://www.w3.org/1999/xlink" version="1.1" baseProfile="full" viewBox="0 0 200 200" width="200" height="200">
<g fill="black">
<path d="M 50.9 183.3 L 38.9 189.3 L 38.9 149.8 L 50.9 151.8 L 53.9 153.8 L 50.9 155.6 L 50.9 176.3 L 94.0 176.3 L 94.0 144.5 L 19.2 144.5 L 19.2 140.5 L 94.0 140.5 L 94.0 119.5 L 57.522222232818606 119.5 L 55.7 121.1 L 51.3 124.5 L 46.5 127.7 L 41.5 130.8 L 36.2 133.6 L 30.4 136.1 L 24.4 138.4 L 23.5 136.8 L 28.5 132.9 L 33.3 129.1 L 37.8 125.4 L 41.9 121.7 L 45.8 118.0 L 49.3 114.3 L 52.5 110.6 L 55.4 106.9 L 57.9 103.2 L 59.687357139587405 100.24697513580323 L 59.6 100.2 L 60.7 98.6 L 70.2 105.9 L 71.7 109.2 L 67.74811086654663 109.0637279510498 L 67.1 109.9 L 63.6 113.8 L 61.854054069519044 115.5 L 143.5 115.5 L 153.5 105.5 L 162.575 113.0625 L 163.2 112.0 L 164.8 108.5 L 166.2 105.3 L 167.6 102.3 L 168.8 99.5 L 169.9 97.0 L 170.8 94.6 L 171.18095235824586 93.6 L 26.33333330154419 93.6 L 26.6 96.2 L 26.8 99.9 L 26.7 103.5 L 26.4 106.8 L 25.9 110.0 L 25.1 113.0 L 23.9 115.8 L 22.5 118.5 L 18.4 120.6 L 14.0 119.2 L 12.0 115.2 L 13.3 110.8 L 14.5 109.8 L 15.7 108.4 L 16.9 106.7 L 18.1 104.5 L 19.2 102.0 L 20.2 99.1 L 21.1 95.8 L 21.9 92.2 L 22.8 88.2 L 23.1 83.9 L 24.9 83.8 L 25.5 88.2 L 26.0 91.12857141494752 L 26.0 89.6 L 27.834621143341064 89.6 L 25.7 24.3 L 36.124767780303955 29.085139274597168 L 38.1 27.9 L 41.1 26.2 L 43.8 24.6 L 46.4 23.1 L 48.8 21.6 L 51.0 20.3 L 53.0 18.9 L 54.8 17.7 L 55.593480014801024 17.055297470092775 L 55.5 16.9 L 55.63224334716797 17.023802280426025 L 56.4 16.4 L 57.61876821517944 18.88352766036987 L 64.9 25.7 L 65.0 28.9 L 61.1908296585083 27.338864612579346 L 59.5 27.8 L 57.1 28.4 L 54.6 29.0 L 51.9 29.6 L 49.1 30.2 L 46.0 30.7 L 42.8 31.3 L 39.5 31.8 L 37.97045211791992 31.96994972229004 L 38.50583467483521 47.7 L 49.7777777671814 47.7 L 56.0 40.7 L 64.0 47.7 L 64.0 51.7 L 38.641977310180664 51.7 L 39.16953001022339 67.2 L 49.7777777671814 67.2 L 56.0 60.2 L 64.0 67.2 L 64.0 71.2 L 39.30567264556885 71.2 L 39.93192873001099 89.6 L 68.0 89.6 L 68.0 17.3 L 78.0 22.3 L 122.0 22.3 L 127.0 17.3 L 137.0 26.3 L 132.0 29.3 L 132.0 89.6 L 159.96220836639404 89.6 L 160.534525680542 71.2 L 136.0 71.2 L 136.0 67.2 L 160.65894241333007 67.2 L 161.14105758666992 51.7 L 136.0 51.7 L 136.0 47.7 L 161.265474319458 47.7 L 161.83779163360595 29.3 L 140.0 29.3 L 140.0 25.3 L 162.0 25.3 L 168.0 20.3 L 179.0 29.3 L 174.0 32.3 L 172.92976408004762 32.74593162536621 L 172.0320170402527 89.57331914901734 L 172.5368420600891 89.15263156890869 L 172.6 88.9 L 172.749476146698 88.97543659210206 L 178.0 84.6 L 189.0 93.6 L 184.0 96.6 L 179.99411764144898 98.26911764144897 L 178.9 99.5 L 177.1 101.5 L 175.1 103.7 L 173.0 105.9 L 170.6 108.3 L 168.1 110.9 L 165.3 113.5 L 164.3774193763733 114.56451616287231 L 165.5 115.5 L 165.5 119.5 L 106.0 119.5 L 106.0 140.5 L 158.7 140.5 L 168.7 130.5 L 180.7 140.5 L 180.7 144.5 L 106.0 144.5 L 106.0 176.3 L 149.1 176.3 L 149.1 149.8 L 161.1 151.8 L 164.1 153.8 L 161.1 155.6 L 161.1 182.3 L 149.1 188.3 L 149.1 180.3 L 50.9 180.3 Z M 78.0 26.3 L 78.0 89.6 L 122.0 89.6 L 122.0 26.3 Z M 119.9 58.0 L 114.9 60.5 L 114.9 77.5 L 105.9 82.0 L 105.9 77.5 L 94.0 77.5 L 85.0 82.0 L 85.0 49.5 L 94.0 54.0 L 105.9 54.0 L 110.4 49.0 Z M 94.0 58.0 L 94.0 73.5 L 105.9 73.5 L 105.9 58.0 Z M 118.0 39.9 L 118.0 43.9 L 82.0 43.9 L 82.0 39.9 L 99.81818180084228 39.9 L 108.0 30.9 Z " />
</g>
</svg>
