<svg xmlns="http://www.w3.org/2000/svg" xmlns:xlink="http://www.w3.org/1999/xlink" version="1.1" baseProfile="full" viewBox="0 0 200 200" width="200" height="200">
<g fill="black">
<path d="M 149.1 180.7 L 138.1 175.0 L 128.5 168.0 L 120.4 159.8 L 113.7 150.4 L 108.5 139.8 L 107.38362064361573 136.3 L 50.0 136.3 L 50.0 169.05652170181276 L 58.1 168.0 L 67.2 166.8 L 85.2 164.6 L 94.1 163.6 L 103.0 162.8 L 111.8 162.2 L 112.1 164.0 L 103.6 166.6 L 95.1 168.9 L 86.4 171.1 L 77.6 173.2 L 68.7 175.2 L 59.7 177.1 L 50.6 179.1 L 41.5 181.0 L 32.2 182.8 L 26.9270658493042 183.87726612091063 L 25.4 187.3 L 22.9 184.7 L 19.0 173.2 L 21.0 172.9 L 30.4 171.6 L 38.0 170.61935482025146 L 38.0 68.7 L 50.0 74.7 L 147.0 74.7 L 153.0 69.7 L 164.0 78.7 L 159.0 82.7 L 159.0 107.9 L 147.0 113.9 L 147.0 103.9 L 114.09756097793579 103.9 L 114.6 114.2 L 116.5 125.4 L 118.63900003433227 132.3 L 151.0 132.3 L 161.0 122.3 L 173.0 132.3 L 173.0 136.3 L 120.05 136.3 L 124.0 144.2 L 129.5 152.0 L 136.3 158.9 L 144.4 164.7 L 153.9 169.7 L 164.8 173.7 L 170.57495555877685 175.10852575302124 L 176.0 151.6 L 178.0 151.6 L 176.08821363449096 176.45322284698486 L 177.1 176.7 L 180.9 179.2 L 181.8 183.7 L 179.3 187.5 L 174.8 188.4 L 161.3 185.2 Z M 50.0 103.9 L 50.0 132.3 L 106.10775861740112 132.3 L 104.8 128.2 L 102.7 115.6 L 102.10218982696533 103.9 Z M 50.0 78.7 L 50.0 99.9 L 147.0 99.9 L 147.0 78.7 Z M 137.0 52.6 L 133.8 49.7 L 131.75795793533325 47.95825824737549 L 126.8 51.2 L 121.2 54.4 L 115.2 57.4 L 108.7 60.2 L 101.6 62.7 L 100.9 61.1 L 106.9 56.9 L 112.5 52.8 L 117.7 48.9 L 122.4 45.0 L 124.99515419006347 42.70660791397095 L 122.7 41.1 L 118.4 38.3 L 113.8 35.5 L 108.9 32.6 L 103.9 29.6 L 104.5 27.9 L 110.4 29.1 L 116.0 30.6 L 121.2 32.5 L 126.3 34.5 L 131.0 36.7 L 131.0737410545349 36.73932857513428 L 133.8 33.6 L 136.7 29.8 L 139.1 26.1 L 140.61078567504882 23.305046463012694 L 140.6 23.3 L 141.2111110687256 22.2 L 86.00422534942626 22.2 L 94.7 28.5 L 96.2 31.7 L 92.20243902206421 31.7 L 91.5 32.6 L 88.1 36.7 L 84.2 40.5 L 82.8673963546753 41.646658992767335 L 86.7 44.3 L 90.4 47.2 L 93.8 50.3 L 95.3 54.6 L 93.4 58.8 L 89.0 60.2 L 84.9 58.3 L 82.5 55.4 L 79.8 52.5 L 76.7 49.6 L 74.934525680542 48.048522567749025 L 70.3 51.2 L 64.9 54.4 L 59.1 57.4 L 52.9 60.2 L 46.2 62.7 L 45.4 61.1 L 51.0 56.9 L 56.3 52.9 L 61.2 48.9 L 65.7 45.1 L 68.1729700088501 42.80367078781128 L 65.8 41.1 L 61.5 38.3 L 57.0 35.5 L 52.2 32.6 L 47.1 29.6 L 47.7 27.9 L 53.6 29.1 L 59.2 30.7 L 64.4 32.5 L 69.4 34.5 L 74.1 36.7 L 74.17374105453491 36.73932857513428 L 76.9 33.6 L 79.8 29.8 L 82.3 26.0 L 83.9357894897461 23.11789474487305 L 83.9 23.1 L 84.42941179275513 22.2 L 42.7 22.2 L 42.7 63.6 L 30.7 69.6 L 30.7 12.2 L 42.7 18.2 L 157.2 18.2 L 163.2 13.2 L 174.2 22.2 L 169.2 26.2 L 169.2 62.4 L 157.2 68.4 L 157.2 22.2 L 142.6043478012085 22.2 L 151.5 28.4 L 153.1 31.6 L 149.1658353805542 31.66783046722412 L 148.5 32.6 L 145.0 36.7 L 141.1 40.5 L 139.8313316345215 41.621148872375485 L 143.8 44.3 L 147.6 47.2 L 151.1 50.2 L 152.6 54.5 L 150.8 58.7 L 146.5 60.3 L 142.3 58.5 L 139.8 55.5 Z " />
</g>
</svg>
