<svg xmlns="http://www.w3.org/2000/svg" xmlns:xlink="http://www.w3.org/1999/xlink" version="1.1" baseProfile="full" viewBox="0 0 200 200" width="200" height="200">
<g fill="black">
<path d="M 150.4 176.4 L 142.1 171.0 L 134.2 165.2 L 126.7 159.1 L 119.7 152.5 L 113.1 145.6 L 107.1 138.3 L 101.6 130.5 L 99.19256525039673 126.38729896545411 L 96.1 128.7 L 83.9 136.9 L 72.0 144.20866146087647 L 72.0 170.70714282989502 L 73.9 170.3 L 79.8 169.1 L 85.8 167.8 L 91.9 166.5 L 98.3 165.2 L 104.9 164.1 L 111.7 163.1 L 112.2 164.8 L 106.0 167.7 L 99.8 170.4 L 93.8 172.8 L 87.9 175.1 L 82.1 177.2 L 76.5 179.2 L 71.0 181.2 L 65.7 183.0 L 60.5 184.8 L 59.447368431091306 185.15789470672607 L 58.2 188.9 L 55.5 186.5 L 50.4 175.4 L 52.4 174.9 L 57.5 173.8 L 60.0 173.28113203048707 L 60.0 150.8473684310913 L 57.9 152.0 L 44.0 158.8 L 29.5 165.1 L 14.3 170.8 L 13.6 169.1 L 27.8 161.6 L 41.5 154.0 L 54.7 146.2 L 67.2 138.2 L 79.1 129.9 L 90.5 121.3 L 98.24476194381714 114.78571424484252 L 92.9 116.1 L 86.7 117.4 L 80.5 118.6 L 74.4 119.7 L 55.8 122.4 L 49.5 123.2 L 47.39420938491821 123.43775053024292 L 45.5 126.7 L 43.3 123.9 L 40.6 112.0 L 42.6 111.9 L 48.3824200630188 111.80673513412475 L 52.1 107.6 L 55.9 103.5 L 59.5 99.4 L 63.1 95.4 L 66.4 91.3 L 69.7 87.3 L 72.8 83.2 L 75.8 79.2 L 77.98536586761475 76.0 L 24.0 76.0 L 24.0 72.0 L 157.0 72.0 L 167.0 62.0 L 179.0 72.0 L 179.0 76.0 L 80.72784814834594 76.0 L 88.1 82.4 L 89.3 85.8 L 85.46418027877807 85.33705625534057 L 84.6 86.3 L 81.0 90.2 L 73.2 97.8 L 69.0 101.4 L 64.7 105.0 L 60.3 108.4 L 55.633709049224855 111.67633199691772 L 61.1 111.5 L 67.3 111.4 L 73.5 111.2 L 79.8 111.0 L 92.2 110.8 L 98.5 110.8 L 102.64424781799316 110.99734516143799 L 111.4 103.1 L 120.9 93.5 L 129.8 83.7 L 129.82001123428344 83.71798763275146 L 130.2 83.3 L 138.7 91.7 L 139.6 95.2 L 135.93541135787964 94.49279870986939 L 128.9 101.6 L 118.6 111.0 L 107.6 120.1 L 101.59180145263672 124.59308767318726 L 104.8 127.9 L 111.4 134.3 L 118.2 140.5 L 123.80502691268921 145.14416513442993 L 125.2 143.9 L 129.0 140.8 L 132.8 137.8 L 136.7 134.9 L 140.5 132.0 L 148.3 126.2 L 152.1 123.3 L 156.0 120.4 L 159.00517663955688 118.10657567977906 L 159.0 118.1 L 159.00565347671508 118.10621185302735 L 159.8 117.5 L 163.35202159881592 122.88185081481933 L 167.1 127.0 L 167.3 130.6 L 163.68571424484253 129.05102043151857 L 162.2 129.9 L 153.6 134.7 L 149.3 136.9 L 145.0 139.2 L 140.6 141.3 L 136.1 143.4 L 131.7 145.4 L 127.1 147.1 L 126.5394495010376 147.29082565307618 L 132.5 151.7 L 140.1 156.9 L 148.0 161.6 L 156.2 166.1 L 164.7 170.2 L 173.6 173.9 L 179.7 176.6 L 168.3 186.0 L 159.2 181.4 Z M 37.8 64.4 L 37.8 15.0 L 49.8 21.0 L 148.2 21.0 L 154.2 16.0 L 165.2 25.0 L 160.2 29.0 L 160.2 58.4 L 148.2 64.4 L 148.2 58.4 L 49.8 58.4 Z M 49.8 25.0 L 49.8 54.4 L 74.6 54.4 L 74.6 25.0 Z M 86.6 25.0 L 86.6 54.4 L 111.4 54.4 L 111.4 25.0 Z M 123.4 25.0 L 123.4 54.4 L 148.2 54.4 L 148.2 25.0 Z " />
</g>
</svg>
