<svg xmlns="http://www.w3.org/2000/svg" xmlns:xlink="http://www.w3.org/1999/xlink" version="1.1" baseProfile="full" viewBox="0 0 200 200" width="200" height="200">
<g fill="black">
<path d="M 116.7 133.1 L 115.8 141.4 L 114.1 149.2 L 111.6 156.4 L 108.3 163.1 L 104.2 169.1 L 99.3 174.5 L 93.7 179.2 L 87.4 183.2 L 80.4 186.4 L 72.8 188.8 L 72.1 187.1 L 78.7 183.0 L 84.5 178.7 L 89.5 174.2 L 93.7 169.4 L 97.2 164.3 L 100.0 158.8 L 102.2 153.0 L 103.7 146.7 L 104.5 140.0 L 104.7 132.8 L 104.7 100.0 L 116.7 102.0 L 119.7 104.0 L 116.7 105.8 L 116.7 133.0 L 116.63442621231079 133.0983606338501 Z M 182.8 146.0 L 184.8 146.0 L 182.8 171.0 L 186.4 173.4 L 188.8 177.0 L 186.4 180.6 L 182.8 183.0 L 172.4 183.0 L 169.8 182.8 L 167.3 182.4 L 164.9 181.6 L 162.6 180.3 L 160.6 178.7 L 159.0 176.7 L 157.7 174.4 L 156.9 172.0 L 156.5 169.5 L 156.4 167.0 L 156.4 100.0 L 168.4 102.0 L 171.4 104.0 L 168.4 105.8 L 168.4 168.2 L 168.6 169.1 L 168.9 170.0 L 169.3 170.4 L 170.2 170.7 L 171.1 170.9 L 172.4 171.0 L 176.8 171.0 Z M 30.0 176.0 L 18.0 182.0 L 18.0 105.0 L 30.0 107.0 L 33.0 109.0 L 30.0 110.8 L 30.0 160.0 L 44.0 160.0 L 44.0 91.0 L 13.0 91.0 L 13.0 87.0 L 44.0 87.0 L 44.0 48.0 L 33.853125 48.0 L 30.9 54.3 L 27.7 60.8 L 24.1 67.3 L 20.1 73.8 L 15.8 80.4 L 14.1 79.5 L 16.7 72.2 L 19.2 65.1 L 21.6 58.2 L 23.9 51.5 L 25.9 45.0 L 27.8 38.6 L 29.4 32.4 L 30.8 26.4 L 31.9 20.5 L 32.741253757476805 15.704853343963624 L 32.7 15.7 L 33.2 12.9 L 44.6 17.1 L 47.2 19.7 L 43.57249670028686 20.953137493133546 L 43.0 23.1 L 41.1 29.2 L 39.0 35.4 L 36.6 41.6 L 35.57142858505249 44.0 L 62.0 44.0 L 72.0 34.0 L 84.0 44.0 L 84.0 48.0 L 56.0 48.0 L 56.0 87.0 L 67.0 87.0 L 77.0 77.0 L 89.0 87.0 L 89.0 91.0 L 56.0 91.0 L 56.0 160.0 L 70.0 160.0 L 70.0 105.0 L 82.0 107.0 L 85.0 109.0 L 82.0 110.8 L 82.0 166.0 L 70.0 172.0 L 70.0 164.0 L 30.0 164.0 Z M 142.5 102.0 L 145.5 104.0 L 142.5 105.8 L 142.5 169.0 L 130.5 175.0 L 130.5 100.0 Z M 138.4 49.0 L 137.0 51.4 L 135.2 54.2 L 133.1 57.5 L 130.6 61.2 L 127.8 65.4 L 124.6 70.0 L 121.0 75.0 L 116.9 80.5 L 115.55993537902832 82.2569736480713 L 116.5 82.2 L 123.8 81.7 L 131.6 81.1 L 140.1 80.4 L 149.2 79.6 L 159.0 78.8 L 166.09240713119507 78.31799173355103 L 165.3 76.9 L 163.2 73.5 L 161.0 70.2 L 158.7 66.9 L 156.3 63.5 L 153.6 60.3 L 154.8 58.9 L 158.5 61.1 L 162.1 63.5 L 165.4 66.1 L 168.6 68.9 L 171.7 72.0 L 174.6 75.2 L 177.3 78.6 L 179.8 82.2 L 182.2 85.9 L 184.4 89.8 L 184.5 94.3 L 181.4 97.7 L 176.8 97.8 L 173.4 94.6 L 172.1 90.9 L 170.6 87.3 L 167.26355142593383 80.43084115982056 L 159.6 82.5 L 150.1 84.9 L 141.1 86.9 L 132.7 88.6 L 124.9 90.1 L 117.6 91.5 L 110.9 92.6 L 104.8 93.5 L 99.2 94.3 L 98.36195192337036 94.40056581497193 L 96.3 97.8 L 94.2 94.9 L 91.7 83.0 L 93.7 82.9 L 98.4 83.0 L 103.8 82.9 L 109.9 82.6 L 112.13928575515747 82.46428575515748 L 113.8 78.7 L 116.6 72.5 L 119.1 66.8 L 121.3 61.7 L 123.3 57.2 L 125.0 53.2 L 126.3 49.8 L 127.26551723480225 47.0 L 89.4 47.0 L 89.4 43.0 L 130.5 43.0 L 130.5 16.0 L 142.5 18.0 L 145.5 20.0 L 142.5 21.8 L 142.5 43.0 L 164.4 43.0 L 174.4 33.0 L 186.4 43.0 L 186.4 47.0 L 139.49090909957886 47.0 Z " />
</g>
</svg>
