<svg xmlns="http://www.w3.org/2000/svg" xmlns:xlink="http://www.w3.org/1999/xlink" version="1.1" baseProfile="full" viewBox="0 0 200 200" width="200" height="200">
<g fill="black">
<path d="M 163.1 161.0 L 157.5 155.0 L 152.3 148.9 L 147.7 142.5 L 143.6 136.0 L 140.0 129.4 L 137.0 122.5 L 136.2 120.13333330154418 L 136.2 183.0 L 124.2 189.0 L 124.2 123.0079999923706 L 122.0 127.1 L 116.4 135.8 L 110.1 144.0 L 103.2 151.6 L 95.8 158.5 L 87.7 164.9 L 79.0 170.6 L 69.7 175.5 L 59.7 179.8 L 58.9 178.1 L 67.7 172.3 L 75.9 166.1 L 83.6 159.7 L 90.6 153.0 L 97.0 145.8 L 102.8 138.3 L 108.0 130.4 L 112.6 122.0 L 116.6 113.2 L 118.55 108.0 L 100.2 108.0 L 100.2 120.0 L 88.2 126.0 L 88.2 61.0 L 100.2 67.0 L 124.2 67.0 L 124.2 47.0 L 77.3 47.0 L 77.3 43.0 L 124.2 43.0 L 124.2 12.0 L 136.2 14.0 L 139.2 16.0 L 136.2 17.8 L 136.2 43.0 L 164.5 43.0 L 174.5 33.0 L 186.5 43.0 L 186.5 47.0 L 136.2 47.0 L 136.2 67.0 L 161.3 67.0 L 167.3 62.0 L 178.3 71.0 L 173.3 75.0 L 173.3 114.0 L 161.3 120.0 L 161.3 108.0 L 136.2 108.0 L 136.2 109.94594593048096 L 138.5 113.8 L 142.2 119.8 L 146.2 125.7 L 150.5 131.3 L 155.1 136.8 L 160.0 142.1 L 165.3 147.3 L 171.0 152.2 L 177.1 157.0 L 183.6 161.6 L 186.7 163.9 L 175.8 172.3 L 169.2 166.7 Z M 15.8 166.0 L 22.1 163.8 L 28.6 161.4 L 35.2 159.1 L 41.9 156.6 L 48.8 154.2 L 55.8 151.7 L 62.9 149.2 L 70.3 146.7 L 77.8 144.4 L 85.6 142.1 L 86.3 143.8 L 79.3 147.9 L 72.4 151.7 L 65.5 155.3 L 52.1 162.0 L 45.5 165.2 L 39.0 168.3 L 32.7 171.3 L 26.5 174.3 L 24.095918369293212 175.38571424484252 L 23.3 179.1 L 20.3 177.1 L 13.9 166.8 Z M 18.034905624389648 124.20660381317138 L 18.1 123.1 L 21.6 121.2 L 25.6 117.4 L 30.2 111.8 L 35.3 104.5 L 40.7 96.1 L 46.3 86.7 L 48.59566564559937 82.65128059387207 L 46.4 83.3 L 42.0 84.5 L 37.7 85.7 L 29.3 87.9 L 25.2 88.9 L 21.330978012084962 89.77052993774414 L 19.6 93.4 L 17.2 90.7 L 13.5 79.2 L 14.604247093200684 79.03436288833618 L 17.2 77.4 L 20.2 74.0 L 23.6 69.1 L 27.3 62.8 L 31.0 55.5 L 34.7 47.7 L 38.2 39.7 L 41.4 31.9 L 44.2 24.7 L 46.15890808105469 19.419465255737304 L 46.1 19.4 L 46.459649085998535 18.608771896362306 L 46.5 18.5 L 46.50762367248535 18.503227996826173 L 47.1 17.2 L 57.6 23.2 L 59.5 26.3 L 55.824299049377444 26.751401901245117 L 54.6 29.2 L 51.2 36.3 L 47.3 43.9 L 43.0 51.9 L 38.5 59.6 L 33.7 66.8 L 28.9 73.0 L 24.0 77.8 L 22.90725431442261 78.43379249572754 L 23.6 78.4 L 27.8 78.1 L 32.1 77.9 L 36.4 77.6 L 45.4 77.2 L 50.0 77.1 L 51.74329900741577 77.1 L 51.8 77.0 L 57.3 67.1 L 62.6 57.5 L 67.13532514572144 49.517827701568606 L 67.1 49.5 L 68.1 47.8 L 77.8 54.9 L 79.4 58.2 L 75.70352945327758 58.2 L 72.4 63.4 L 66.6 72.6 L 60.4 82.1 L 54.1 91.7 L 47.8 100.8 L 41.4 109.1 L 35.2 116.1 L 29.1 121.4 L 28.13999996185303 121.92965517044067 L 42.3 119.0 L 54.1 116.6 L 60.1 115.6 L 66.1 114.5 L 72.2 113.7 L 78.5 113.1 L 78.9 114.8 L 73.2 117.4 L 67.5 119.7 L 61.8 121.9 L 56.1 124.0 L 50.4 126.0 L 44.7 127.9 L 39.1 129.9 L 33.5 131.8 L 28.0 133.6 L 26.32880449295044 134.16701278686523 L 25.1 137.8 L 22.4 135.5 L 17.3 124.4 Z M 100.2 71.0 L 100.2 104.0 L 124.2 104.0 L 124.2 71.0 Z M 136.2 71.0 L 136.2 104.0 L 161.3 104.0 L 161.3 71.0 Z " />
</g>
</svg>
