<svg xmlns="http://www.w3.org/2000/svg" xmlns:xlink="http://www.w3.org/1999/xlink" version="1.1" baseProfile="full" viewBox="0 0 200 200" width="200" height="200">
<g fill="black">
<path d="M 149.4745463371277 18.75527219772339 L 150.15434246063234 53.0 L 166.7 53.0 L 176.7 43.0 L 188.7 53.0 L 188.7 57.0 L 150.32363634109498 57.0 L 152.6 88.3 L 156.2 114.8 L 158.26183834075928 124.45315208435059 L 162.0 115.8 L 166.6 102.2 L 170.42195091247558 88.40368919372558 L 170.4 88.4 L 171.1 85.7 L 182.3 90.4 L 184.7 93.1 L 181.1111454963684 94.18947372436523 L 177.5 105.7 L 171.9 119.9 L 165.5 132.9 L 161.75879020690917 139.11778526306153 L 165.4 150.8 L 170.4 161.6 L 175.0 168.4 L 177.6314009666443 170.96392917633057 L 182.7 149.0 L 184.7 149.0 L 182.7744680404663 174.0319149017334 L 186.9 175.8 L 188.7 180.0 L 186.9 184.2 L 182.7 186.0 L 177.5 185.0 L 171.8 181.8 L 165.8 176.1 L 159.9 167.4 L 154.2 155.1 L 153.14916782379152 151.7454203605652 L 150.5 155.3 L 141.9 164.6 L 132.5 172.7 L 122.4 179.5 L 111.6 184.9 L 100.1 188.8 L 99.5 187.1 L 109.8 181.5 L 119.4 175.0 L 128.3 167.7 L 136.4 159.4 L 143.8 150.1 L 149.74366607666016 140.87401084899903 L 149.0 138.5 L 144.3 116.9 L 140.7 89.5 L 138.38545989990234 57.0 L 87.8 57.0 L 87.8 53.0 L 138.23823528289796 53.0 L 137.42201833724977 15.998165130615234 L 137.4 16.0 L 137.4 12.6 L 149.4 15.0 L 152.4 17.0 Z M 52.07100124359131 116.42796173095704 L 59.7 114.4 L 67.9 112.2 L 76.6 110.1 L 85.6 108.1 L 86.2 109.8 L 77.8 113.7 L 69.7 117.3 L 61.8 120.6 L 54.3 123.7 L 51.37877445220947 124.8604868888855 L 50.8 130.6 L 49.0 141.5 L 46.5 151.4 L 43.4 160.4 L 39.5 168.4 L 34.9 175.3 L 29.6 181.0 L 23.6 185.6 L 17.1 188.7 L 16.2 187.2 L 21.3 182.6 L 25.6 177.4 L 29.4 171.6 L 32.7 165.0 L 35.4 157.5 L 37.5 149.1 L 39.1 139.8 L 40.1 129.5 L 40.10450563430786 129.39817161560057 L 40.1 129.4 L 33.5 132.1 L 27.2 134.6 L 21.2 137.0 L 19.366946315765382 137.73965320587158 L 18.4 141.5 L 15.5 139.3 L 9.7 128.6 L 11.6 128.0 L 17.5 126.3 L 23.7 124.5 L 30.2 122.6 L 37.1 120.6 L 40.536037826538085 119.64554500579834 L 40.6 118.2 L 40.4 106.0 L 40.4 89.0 L 19.1 89.0 L 19.1 85.0 L 40.4 85.0 L 40.4 55.0 L 12.6 55.0 L 12.6 51.0 L 52.7375 51.0 L 53.8 48.5 L 55.2 44.5 L 56.6 40.7 L 58.0 37.0 L 59.4 33.6 L 60.6 30.2 L 61.8 27.0 L 62.8 24.0 L 63.8 21.1 L 64.3892105102539 19.33236837387085 L 64.3 19.3 L 65.2 17.2 L 75.6 23.4 L 77.5 26.4 L 73.40375003814697 26.894375038146972 L 70.4 31.4 L 68.4 34.3 L 66.3 37.3 L 61.7 43.5 L 59.1 46.7 L 56.3 50.0 L 55.50588235855103 51.0 L 61.5 51.0 L 71.5 41.0 L 83.5 51.0 L 83.5 55.0 L 52.4 55.0 L 52.4 85.0 L 55.8 85.0 L 65.8 75.0 L 77.8 85.0 L 77.8 89.0 L 52.4 89.0 L 52.4 106.0 L 52.396721267700194 106.00491800308228 Z M 84.2 156.0 L 89.2 154.5 L 94.3 152.9 L 99.6 151.3 L 104.9 149.5 L 110.3 147.7 L 115.9 145.8 L 121.6 143.9 L 127.4 141.9 L 133.4 140.0 L 139.6 138.1 L 140.3 139.8 L 135.0 143.4 L 129.6 146.8 L 124.2 149.9 L 118.9 152.8 L 113.6 155.5 L 108.4 158.1 L 103.2 160.6 L 98.1 163.0 L 93.1 165.2 L 91.9692307472229 165.68461542129518 L 91.0 169.4 L 88.2 167.3 L 82.3 156.6 Z M 104.9 79.0 L 121.1 79.0 L 127.1 74.0 L 138.1 83.0 L 133.1 87.0 L 133.1 124.0 L 121.1 130.0 L 121.1 124.0 L 104.9 124.0 L 104.9 136.0 L 92.9 142.0 L 92.9 73.0 Z M 104.9 83.0 L 104.9 120.0 L 121.1 120.0 L 121.1 83.0 Z M 28.8 40.2 L 28.3 37.7 L 27.7 35.2 L 27.0 32.7 L 26.2 30.2 L 25.3 27.7 L 24.2 25.2 L 23.1 22.6 L 21.5 20.3 L 22.8 19.1 L 25.0 20.9 L 27.4 22.7 L 29.6 24.7 L 31.7 26.8 L 33.6 29.1 L 35.4 31.6 L 37.0 34.1 L 38.5 36.9 L 39.9 39.7 L 41.1 42.6 L 40.3 47.2 L 36.6 49.9 L 32.1 49.1 L 29.4 45.4 L 29.2 42.8 Z M 166.6 33.4 L 165.6 31.1 L 163.2 26.7 L 161.8 24.5 L 160.3 22.4 L 158.7 20.2 L 157.0 18.0 L 154.9 16.2 L 155.8 14.7 L 158.4 16.0 L 161.1 17.1 L 163.7 18.4 L 166.2 19.9 L 168.6 21.6 L 170.9 23.5 L 173.1 25.5 L 175.2 27.7 L 179.0 32.5 L 179.3 37.1 L 176.4 40.6 L 171.8 40.9 L 168.3 38.0 L 167.5 35.7 Z " />
</g>
</svg>
