<svg xmlns="http://www.w3.org/2000/svg" xmlns:xlink="http://www.w3.org/1999/xlink" version="1.1" baseProfile="full" viewBox="0 0 200 200" width="200" height="200">
<g fill="black">
<path d="M 150.0 129.9 L 153.0 131.9 L 150.0 133.7 L 150.0 141.5 L 159.8181818008423 141.5 L 168.0 132.5 L 178.0 141.5 L 178.0 145.5 L 150.0 145.5 L 150.0 161.0 L 164.0 161.0 L 174.0 151.0 L 186.0 161.0 L 186.0 165.0 L 150.0 165.0 L 150.0 182.2 L 138.0 188.2 L 138.0 165.0 L 113.5561728477478 165.0 L 113.0 166.7 L 99.8 168.7 L 107.4033613204956 145.5 L 102.0 145.5 L 102.0 141.5 L 138.0 141.5 L 138.0 127.9 Z M 65.4 131.0 L 66.7 134.3 L 62.78876781463623 134.16512994766236 L 62.1 135.0 L 59.40769233703613 138.0 L 85.0 138.0 L 85.40851068496704 137.659574508667 L 85.9 136.9 L 86.14020385742188 137.04983015060424 L 91.0 133.0 L 102.0 142.0 L 97.0 145.0 L 93.67572813034057 146.38511323928833 L 90.6 150.6 L 84.7 157.3 L 78.2 163.4 L 71.2 168.8 L 63.8 173.7 L 55.8 177.8 L 47.3 181.3 L 38.4 184.2 L 29.0 186.2 L 19.1 187.5 L 18.8 185.7 L 28.0 182.6 L 36.6 179.1 L 44.7 175.3 L 52.2 171.1 L 59.1 166.5 L 62.44117650985718 163.88970584869384 L 60.4 164.4 L 56.4 162.2 L 55.9 160.9 L 55.3 159.6 L 54.5 158.3 L 53.6 156.9 L 52.5 155.6 L 51.3 154.2 L 49.9 152.8 L 46.7 149.8 L 46.374373245239255 149.66044569015503 L 42.1 152.7 L 37.4 155.7 L 32.3 158.5 L 27.0 160.9 L 21.4 163.1 L 20.5 161.5 L 25.0 157.7 L 29.4 154.0 L 33.5 150.4 L 37.4 146.8 L 41.0 143.1 L 44.4 139.5 L 47.5 135.8 L 50.4 132.0 L 53.0 128.2 L 53.8615385055542 126.8 L 21.0 126.8 L 21.0 122.8 L 47.0 122.8 L 47.0 104.5 L 16.0 104.5 L 16.0 100.5 L 47.0 100.5 L 47.0 83.78000001907348 L 46.1 84.5 L 42.4 87.2 L 38.4 89.9 L 34.1 92.6 L 29.4 95.1 L 24.5 97.7 L 23.4 96.2 L 27.4 92.4 L 31.1 88.7 L 34.5 85.2 L 37.6 81.8 L 40.5 78.6 L 43.1 75.4 L 45.4 72.4 L 47.3 69.5 L 49.0 66.7 L 49.87955389022827 64.94089221954346 L 49.8 64.9 L 50.8 63.2 L 60.5 70.4 L 62.0 73.7 L 57.89430303573609 73.62921209335327 L 55.6 76.1 L 53.32142858505249 78.3 L 153.0 78.3 L 163.0 68.3 L 175.0 78.3 L 175.0 82.3 L 152.0 82.3 L 152.0 100.5 L 167.8181818008423 100.5 L 176.0 91.5 L 186.0 100.5 L 186.0 104.5 L 152.0 104.5 L 152.0 122.8 L 167.7777777671814 122.8 L 174.0 115.8 L 182.0 122.8 L 182.0 126.8 L 60.008108139038086 126.8 Z M 108.74642858505248 145.5 L 118.3 150.5 L 120.6 153.3 L 117.10899620056152 154.14042682647704 L 114.86481485366821 161.0 L 138.0 161.0 L 138.0 145.5 Z M 55.5 142.0 L 54.9 142.6 L 50.9 146.2 L 48.67653760910034 147.90637817382813 L 49.8 148.0 L 52.1 148.4 L 54.3 148.9 L 58.5 150.3 L 62.3 152.3 L 64.1 153.5 L 65.9 154.8 L 67.0 159.3 L 66.095130443573 160.94521741867067 L 71.4 156.0 L 76.7 150.1 L 81.5 143.7 L 82.6 142.0 Z M 59.0 104.5 L 59.0 122.8 L 78.0 122.8 L 78.0 104.5 Z M 90.0 104.5 L 90.0 122.8 L 109.0 122.8 L 109.0 104.5 Z M 121.0 104.5 L 121.0 122.8 L 140.0 122.8 L 140.0 104.5 Z M 59.0 82.3 L 59.0 100.5 L 78.0 100.5 L 78.0 82.3 Z M 90.0 82.3 L 90.0 100.5 L 109.0 100.5 L 109.0 82.3 Z M 121.0 82.3 L 121.0 100.5 L 140.0 100.5 L 140.0 82.3 Z M 137.0 52.5 L 133.9 49.7 L 131.80482578277588 48.02386054992676 L 126.8 51.2 L 121.2 54.3 L 115.2 57.3 L 108.6 59.9 L 101.6 62.3 L 100.9 60.7 L 106.9 56.6 L 112.5 52.6 L 117.7 48.8 L 122.4 45.0 L 124.86886930465698 42.81820850372314 L 122.7 41.3 L 118.4 38.6 L 113.8 35.8 L 109.0 32.9 L 103.9 30.0 L 104.5 28.3 L 110.3 29.4 L 115.9 30.9 L 121.2 32.7 L 126.2 34.6 L 131.0 36.8 L 131.09746627807618 36.849816131591794 L 133.9 33.8 L 136.7 30.1 L 139.1 26.4 L 141.1 22.8 L 141.1555555343628 22.7 L 85.99295778274536 22.7 L 94.6 29.0 L 96.1 32.3 L 92.1562889099121 32.2320050239563 L 91.5 33.1 L 88.0 37.0 L 84.1 40.8 L 82.9654028892517 41.772511863708495 L 86.7 44.2 L 90.3 47.0 L 93.7 50.0 L 95.2 54.3 L 93.4 58.5 L 89.1 60.0 L 84.9 58.2 L 82.5 55.3 L 79.8 52.4 L 76.8 49.6 L 74.91934976577758 48.05122919082642 L 70.3 51.1 L 64.9 54.3 L 59.1 57.2 L 52.9 59.9 L 46.2 62.3 L 45.4 60.7 L 51.0 56.6 L 56.3 52.6 L 61.2 48.8 L 65.8 45.0 L 68.10985918045044 42.859154891967776 L 65.8 41.3 L 61.6 38.5 L 57.0 35.8 L 52.2 32.9 L 47.1 30.0 L 47.7 28.3 L 53.6 29.5 L 59.1 30.9 L 64.4 32.7 L 69.4 34.7 L 74.1 36.8 L 74.18479261398315 36.84432344436645 L 76.9 33.8 L 79.8 30.1 L 82.3 26.4 L 84.4 22.7 L 84.42157363891602 22.71332483291626 L 84.42941179275513 22.7 L 42.7 22.7 L 42.7 63.1 L 30.7 69.1 L 30.7 12.7 L 42.7 18.7 L 157.2 18.7 L 163.2 13.7 L 174.2 22.7 L 169.2 26.7 L 169.2 61.9 L 157.2 67.9 L 157.2 22.7 L 142.73142852783204 22.7 L 151.5 28.9 L 153.1 32.1 L 149.0283082008362 32.16901168823242 L 148.4 33.0 L 145.0 37.0 L 141.0 40.8 L 139.93760747909545 41.68944492340088 L 143.8 44.2 L 147.5 47.0 L 151.0 50.0 L 152.6 54.2 L 150.9 58.5 L 146.6 60.1 L 142.4 58.3 L 139.8 55.4 Z " />
</g>
</svg>
