<svg xmlns="http://www.w3.org/2000/svg" xmlns:xlink="http://www.w3.org/1999/xlink" version="1.1" baseProfile="full" viewBox="0 0 200 200" width="200" height="200">
<g fill="black">
<path d="M 53.66742238998413 117.70877084732055 L 53.7 117.7 L 61.9 115.5 L 70.4 113.3 L 79.3 111.2 L 88.7 109.2 L 89.2 110.9 L 80.5 114.8 L 72.1 118.4 L 63.9 121.8 L 56.1 124.9 L 52.975 126.15 L 52.4 131.9 L 50.6 142.9 L 48.0 153.0 L 44.7 162.0 L 40.7 170.1 L 36.0 177.0 L 30.5 182.9 L 24.3 187.4 L 17.6 190.6 L 16.7 189.0 L 22.0 184.4 L 26.6 179.2 L 30.6 173.3 L 33.9 166.6 L 36.8 159.1 L 39.0 150.6 L 40.7 141.2 L 41.7 130.8 L 41.70966777801514 130.57957363128662 L 41.4 130.7 L 34.5 133.4 L 27.9 135.9 L 21.7 138.4 L 19.710966682434083 139.17538585662842 L 18.7 142.9 L 15.8 140.7 L 10.1 129.9 L 12.0 129.3 L 18.1 127.6 L 24.5 125.8 L 31.3 123.9 L 38.4 121.9 L 42.13623447418213 120.85385437011719 L 42.2 119.4 L 42.0 107.1 L 42.065934085845946 107.0989010810852 L 42.0 107.0 L 42.0 89.8 L 19.7 89.8 L 19.7 85.8 L 42.0 85.8 L 42.0 55.5 L 13.0 55.5 L 13.0 51.5 L 54.62195119857788 51.5 L 55.7 48.9 L 57.2 44.9 L 58.7 41.1 L 60.2 37.4 L 61.6 33.9 L 62.9 30.5 L 64.1 27.3 L 65.3 24.2 L 66.3 21.3 L 66.89889888763427 19.43675889968872 L 66.8 19.4 L 67.14065933227539 18.684615421295167 L 67.2 18.5 L 67.22336549758911 18.510932445526123 L 67.8 17.3 L 78.1 23.6 L 79.9 26.7 L 75.80633249282837 27.12348289489746 L 74.6 29.0 L 72.7 31.8 L 70.7 34.7 L 68.5 37.7 L 66.2 40.8 L 63.8 44.0 L 61.1 47.2 L 58.3 50.5 L 57.4764705657959 51.5 L 64.5 51.5 L 74.5 41.5 L 86.5 51.5 L 86.5 55.5 L 54.0 55.5 L 54.0 85.8 L 58.6 85.8 L 68.6 75.8 L 80.6 85.8 L 80.6 89.8 L 54.0 89.8 L 54.0 107.0 L 53.996774196624756 107.00483875274658 Z M 143.5 19.0 L 146.5 21.0 L 143.5 22.8 L 143.5 85.0 L 163.0 85.0 L 163.0 31.0 L 175.0 33.0 L 178.0 35.0 L 175.0 36.8 L 175.0 91.0 L 163.0 97.0 L 163.0 89.0 L 143.5 89.0 L 143.5 166.0 L 167.7 166.0 L 167.7 109.0 L 179.7 111.0 L 182.7 113.0 L 179.7 114.8 L 179.7 176.0 L 167.7 182.0 L 167.7 170.0 L 107.2 170.0 L 107.2 182.0 L 95.2 188.0 L 95.2 109.0 L 107.2 111.0 L 110.2 113.0 L 107.2 114.8 L 107.2 166.0 L 131.5 166.0 L 131.5 89.0 L 112.0 89.0 L 112.0 92.0 L 100.0 98.0 L 100.0 31.0 L 112.0 33.0 L 115.0 35.0 L 112.0 36.8 L 112.0 85.0 L 131.5 85.0 L 131.5 17.0 Z M 30.0 40.7 L 29.4 38.1 L 28.8 35.6 L 28.0 33.0 L 27.2 30.5 L 26.2 28.0 L 25.1 25.4 L 23.9 22.8 L 22.2 20.5 L 23.5 19.2 L 25.8 21.1 L 28.2 22.9 L 30.5 24.9 L 32.6 27.1 L 34.6 29.4 L 36.5 31.9 L 38.1 34.5 L 39.7 37.2 L 41.1 40.1 L 42.3 43.1 L 41.5 47.6 L 37.9 50.3 L 33.4 49.6 L 30.6 45.9 L 30.4 43.3 Z " />
</g>
</svg>
