<svg xmlns="http://www.w3.org/2000/svg" xmlns:xlink="http://www.w3.org/1999/xlink" version="1.1" baseProfile="full" viewBox="0 0 200 200" width="200" height="200">
<g fill="black">
<path d="M 130.7 183.7 L 112.3 182.6 L 97.2 180.8 L 85.0 178.1 L 75.1 174.6 L 67.2 170.3 L 61.1 165.3 L 56.4 159.6 L 54.27821521759033 155.8868766784668 L 52.0 158.1 L 48.4 161.5 L 44.9 164.6 L 41.3 167.7 L 37.7 170.6 L 26.9 178.7 L 23.323113918304443 181.18394861221313 L 23.1 185.2 L 19.8 183.6 L 12.1 174.3 L 13.8 173.3 L 17.6 171.4 L 21.4 169.6 L 29.2 165.6 L 33.2 163.6 L 37.2 161.5 L 44.0 158.1 L 44.0 109.0 L 14.0 109.0 L 14.0 105.0 L 44.0 105.0 L 50.0 100.0 L 61.0 109.0 L 56.0 113.0 L 56.0 153.70384616851806 L 59.5 156.8 L 64.9 160.7 L 70.8 164.1 L 72.67286825180054 164.80232553482057 L 72.2 163.1 L 77.2 160.8 L 81.8 158.5 L 86.3 156.4 L 90.6 154.4 L 94.6 152.4 L 98.3 150.4 L 101.8 148.5 L 105.0 146.7 L 108.0 144.9 L 109.89103450775147 143.63931035995483 L 109.8 143.5 L 109.92162160873413 143.61891889572144 L 110.7 143.1 L 112.18092012405396 145.82801084518434 L 118.8 152.3 L 118.9 155.7 L 115.14144144058227 154.13393392562867 L 113.1 155.0 L 109.5 156.3 L 105.7 157.6 L 101.7 158.8 L 97.5 160.0 L 93.0 161.2 L 88.3 162.3 L 83.4 163.3 L 78.1 164.1 L 72.86725664138794 164.8752212524414 L 78.0 166.8 L 87.1 169.0 L 98.6 170.6 L 113.0 171.6 L 130.9 171.9 L 152.6 171.5 L 178.7 170.4 L 190.0 169.9 L 179.2 183.5 L 152.9 184.0 Z M 163.5 162.1 L 160.8 160.3 L 157.8 158.6 L 154.5 156.9 L 151.1 155.2 L 147.4 153.5 L 143.4 151.8 L 139.3 149.9 L 134.8 148.3 L 135.2 146.5 L 140.0 146.9 L 144.6 147.3 L 149.0 147.8 L 153.2 148.6 L 157.2 149.4 L 161.1 150.4 L 164.7 151.5 L 168.2 152.6 L 171.5 154.0 L 174.6 155.4 L 177.2 159.1 L 176.5 163.7 L 172.7 166.3 L 168.2 165.5 L 166.0 163.8 Z M 66.9 138.1 L 100.1 138.1 L 100.1 122.1 L 74.6 122.1 L 74.6 118.1 L 100.1 118.1 L 100.1 106.2 L 112.1 108.2 L 115.1 110.2 L 112.1 112.0 L 112.1 118.1 L 138.6 118.1 L 138.6 106.2 L 150.6 108.2 L 153.6 110.2 L 150.6 112.0 L 150.6 118.1 L 160.71818180084227 118.1 L 168.9 109.1 L 178.9 118.1 L 178.9 122.1 L 150.6 122.1 L 150.6 138.1 L 163.2 138.1 L 173.2 128.1 L 185.2 138.1 L 185.2 142.1 L 66.9 142.1 Z M 112.1 122.1 L 112.1 138.1 L 138.6 138.1 L 138.6 122.1 Z M 121.5 85.8 L 123.5 85.8 L 121.5 94.8 L 123.9 96.4 L 125.5 98.8 L 123.9 101.2 L 121.5 102.8 L 87.8 102.8 L 85.5 102.6 L 83.2 102.1 L 81.1 101.1 L 79.1 99.8 L 77.4 98.0 L 76.1 96.0 L 75.1 93.7 L 74.5 91.3 L 74.2 88.8 L 74.2 52.15 L 70.7 53.9 L 70.7 14.8 L 82.7 20.8 L 167.3 20.8 L 173.3 15.8 L 184.3 24.8 L 179.3 28.8 L 179.3 47.9 L 167.3 53.9 L 167.3 47.9 L 82.7 47.9 L 74.35 52.075 L 86.2 58.0 L 108.3 58.0 L 113.8 53.0 L 124.3 62.0 L 119.3 65.5 L 119.3 78.1 L 108.3 83.6 L 108.3 78.1 L 86.2 78.1 L 86.2 88.8 L 86.0 90.0 L 86.0 91.7 L 86.1 92.3 L 86.2 92.7 L 86.4 93.2 L 86.9 93.6 L 87.6 94.1 L 88.7 94.5 L 90.2 94.8 L 117.5 94.8 Z M 178.9 85.8 L 180.9 85.8 L 178.9 94.8 L 181.3 96.4 L 182.9 98.8 L 181.3 101.2 L 178.9 102.8 L 145.2 102.8 L 142.9 102.5 L 140.7 101.9 L 138.6 101.0 L 136.7 99.6 L 135.1 97.9 L 133.8 95.8 L 132.9 93.6 L 132.3 91.2 L 132.1 88.8 L 132.1 52.5 L 143.1 58.0 L 165.9 58.0 L 171.9 53.0 L 182.9 62.0 L 177.9 66.0 L 177.9 78.1 L 165.9 84.1 L 165.9 78.1 L 143.1 78.1 L 143.1 88.8 L 143.0 90.1 L 143.0 91.1 L 143.1 91.9 L 143.2 92.4 L 143.4 92.9 L 143.7 93.3 L 144.2 93.8 L 145.0 94.2 L 146.1 94.5 L 147.6 94.8 L 174.9 94.8 Z M 38.3 77.2 L 36.1 74.7 L 33.7 72.2 L 31.2 69.7 L 28.5 67.3 L 25.7 65.0 L 22.8 62.6 L 19.8 60.3 L 16.5 58.2 L 17.2 56.5 L 21.1 57.6 L 24.9 58.6 L 28.6 60.0 L 32.2 61.5 L 35.7 63.3 L 39.1 65.2 L 42.4 67.3 L 45.5 69.6 L 48.6 72.1 L 51.5 74.7 L 52.9 79.1 L 50.9 83.2 L 46.6 84.6 L 42.5 82.6 L 40.5 79.9 Z M 143.1 62.0 L 143.1 74.1 L 165.9 74.1 L 165.9 62.0 Z M 86.2 62.0 L 86.2 74.1 L 108.3 74.1 L 108.3 62.0 Z M 47.9 41.9 L 46.0 39.3 L 43.9 36.8 L 41.6 34.3 L 39.1 31.8 L 36.5 29.4 L 33.7 26.9 L 30.7 24.4 L 27.5 22.2 L 28.2 20.6 L 32.1 21.8 L 35.9 23.1 L 39.5 24.6 L 43.0 26.2 L 46.4 28.1 L 49.6 30.2 L 52.7 32.4 L 55.6 34.7 L 58.3 37.3 L 61.0 40.0 L 62.0 44.4 L 59.8 48.4 L 55.3 49.4 L 51.4 47.2 L 49.7 44.5 Z M 82.7 24.8 L 82.7 43.9 L 102.9 43.9 L 102.9 24.8 Z M 114.9 24.8 L 114.9 43.9 L 135.1 43.9 L 135.1 24.8 Z M 147.1 24.8 L 147.1 43.9 L 167.3 43.9 L 167.3 24.8 Z " />
</g>
</svg>
