<svg xmlns="http://www.w3.org/2000/svg" xmlns:xlink="http://www.w3.org/1999/xlink" version="1.1" baseProfile="full" viewBox="0 0 200 200" width="200" height="200">
<g fill="black">
<path d="M 45.19024991989136 115.73456468582154 L 48.6 114.5 L 54.7 112.3 L 61.1 110.2 L 67.8 108.1 L 68.6 109.8 L 62.7 113.6 L 57.0 117.2 L 51.4 120.4 L 46.0 123.5 L 44.66968507766724 124.24190635681153 L 44.2 130.4 L 42.8 141.2 L 40.9 151.1 L 38.5 160.0 L 35.6 168.0 L 32.1 174.9 L 28.1 180.7 L 23.5 185.4 L 18.4 188.7 L 17.3 187.2 L 20.7 182.8 L 23.6 177.7 L 26.2 172.0 L 28.5 165.4 L 30.3 157.9 L 31.8 149.4 L 32.9 140.0 L 33.44471683502197 130.55824174880982 L 31.2 131.8 L 26.7 134.3 L 22.5 136.7 L 22.10213565826416 136.91348819732667 L 21.5 140.8 L 18.4 138.9 L 11.5 129.0 L 13.3 128.1 L 17.6 126.4 L 22.1 124.6 L 26.9 122.7 L 31.9 120.8 L 33.66755752563476 120.13299713134765 L 33.7 118.3 L 33.5 106.0 L 33.5 89.0 L 19.7 89.0 L 19.7 85.0 L 33.5 85.0 L 33.5 55.0 L 15.0 55.0 L 15.0 51.0 L 43.85128202438354 51.0 L 44.5 48.7 L 45.3 44.7 L 46.2 41.0 L 47.0 37.4 L 47.8 34.0 L 48.6 30.7 L 49.3 27.6 L 50.0 24.6 L 50.6 21.7 L 50.92748184204102 19.931598091125487 L 50.8 19.9 L 51.6 17.5 L 62.5 22.8 L 64.7 25.6 L 60.61296977996826 26.53212966918945 L 59.8 28.1 L 58.3 30.9 L 56.7 33.8 L 55.1 36.9 L 53.3 40.0 L 51.4 43.2 L 49.4 46.4 L 47.1 49.8 L 46.380000019073485 51.0 L 52.2777777671814 51.0 L 58.5 44.0 L 66.5 51.0 L 66.5 55.0 L 45.5 55.0 L 45.5 85.0 L 48.1777777671814 85.0 L 54.4 78.0 L 62.4 85.0 L 62.4 89.0 L 45.5 89.0 L 45.5 106.0 L 45.49669418334961 106.00495872497558 Z M 67.1 170.9 L 71.4 170.2 L 76.0 169.4 L 81.0 168.4 L 86.3 167.4 L 92.0 166.3 L 98.1 165.1 L 104.6 163.8 L 111.5 162.5 L 118.8 161.3 L 126.5 160.1 L 127.0 161.8 L 119.8 164.9 L 113.0 167.7 L 106.4 170.2 L 100.2 172.4 L 94.3 174.5 L 88.7 176.4 L 83.5 178.2 L 78.6 179.8 L 74.1 181.2 L 73.89204549789429 181.2693181991577 L 72.5 185.0 L 69.9 182.6 L 65.2 171.3 Z M 182.9 147.0 L 184.9 147.0 L 182.9 172.0 L 186.5 174.4 L 188.9 178.0 L 186.5 181.6 L 182.9 184.0 L 162.4 184.0 L 159.8 183.8 L 157.3 183.4 L 154.9 182.6 L 152.7 181.3 L 150.7 179.7 L 149.0 177.7 L 147.8 175.4 L 147.0 173.0 L 146.5 170.5 L 146.4 168.0 L 146.4 125.57469882965088 L 128.2 130.9 L 127.1 127.0 L 146.4 121.35283994674683 L 146.4 91.03833990097046 L 130.0 95.9 L 128.8 92.0 L 146.4 86.78260869979859 L 146.4 51.88214282989502 L 141.8 54.1 L 136.0 56.6 L 129.8 58.7 L 129.0 57.2 L 134.1 53.3 L 139.1 49.5 L 144.0 45.9 L 148.6 42.3 L 153.1 38.7 L 157.3 35.1 L 161.4 31.4 L 165.2 27.8 L 168.8 24.1 L 171.531902217865 21.127047538757324 L 171.5 21.1 L 172.5 20.1 L 180.7 28.9 L 181.4 32.4 L 177.68204545974731 31.4868182182312 L 176.5 32.5 L 172.2 35.9 L 167.7 39.2 L 162.9 42.5 L 158.0 45.6 L 154.862068939209 47.410344791412356 L 158.4 48.0 L 161.4 50.0 L 158.4 51.8 L 158.4 83.22529640197754 L 162.07983455657958 82.13443641662597 L 167.6 71.5 L 179.4 77.0 L 180.6 80.9 L 158.4 87.48102769851684 L 158.4 117.84165229797364 L 164.08836278915405 116.17724323272705 L 170.9 103.8 L 185.2 110.0 L 186.3 113.9 L 158.4 122.06351118087768 L 158.4 168.0 L 158.5 169.2 L 158.6 170.1 L 158.8 170.7 L 159.0 171.0 L 159.1 171.2 L 159.3 171.4 L 159.7 171.5 L 160.3 171.7 L 161.2 171.9 L 162.4 172.0 L 176.9 172.0 Z M 129.0 54.4 L 124.0 57.4 L 124.0 101.3 L 114.0 106.3 L 114.0 101.3 L 80.6 101.3 L 73.0 105.1 L 84.6 110.9 L 106.9 110.9 L 112.9 105.9 L 123.9 114.9 L 118.9 118.9 L 118.9 153.0 L 106.9 159.0 L 106.9 153.0 L 84.6 153.0 L 84.6 156.0 L 72.6 162.0 L 72.6 105.3 L 70.6 106.3 L 70.6 45.4 L 80.6 50.4 L 114.0 50.4 L 119.0 45.4 Z M 84.6 133.4 L 84.6 149.0 L 106.9 149.0 L 106.9 133.4 Z M 84.6 114.9 L 84.6 129.4 L 106.9 129.4 L 106.9 114.9 Z M 80.6 54.4 L 80.6 97.3 L 114.0 97.3 L 114.0 68.03999996185303 L 110.1 69.6 L 110.1 86.7 L 102.1 90.7 L 102.1 86.7 L 92.2 86.7 L 84.2 90.7 L 84.2 59.6 L 92.2 63.6 L 102.1 63.6 L 106.1 58.6 L 114.0 66.5 L 114.0 54.4 Z M 92.2 67.6 L 92.2 82.7 L 102.1 82.7 L 102.1 67.6 Z M 25.1 37.2 L 24.8 34.7 L 24.4 32.3 L 24.0 29.8 L 23.4 27.4 L 22.9 25.0 L 22.3 22.5 L 21.2 20.3 L 22.7 19.3 L 24.4 21.2 L 26.3 23.0 L 28.1 25.1 L 29.8 27.2 L 31.3 29.6 L 32.7 32.0 L 34.1 34.6 L 35.3 37.3 L 36.4 40.1 L 37.3 43.0 L 36.3 47.4 L 32.4 49.9 L 28.0 48.8 L 25.5 45.0 L 25.3 39.8 Z M 66.6 36.4 L 91.5 36.4 L 91.5 13.4 L 103.5 15.4 L 106.5 17.4 L 103.5 19.2 L 103.5 36.4 L 110.11818180084228 36.4 L 118.3 27.4 L 128.3 36.4 L 128.3 40.4 L 66.6 40.4 Z " />
</g>
</svg>
