<svg xmlns="http://www.w3.org/2000/svg" xmlns:xlink="http://www.w3.org/1999/xlink" version="1.1" baseProfile="full" viewBox="0 0 200 200" width="200" height="200">
<g fill="black">
<path d="M 19.1 183.9 L 19.6 179.4 L 23.1 176.4 L 26.0 175.9 L 28.6 175.1 L 31.0 174.2 L 33.1 173.1 L 35.0 171.9 L 36.8 170.3 L 38.5 168.5 L 39.9 166.4 L 41.3 163.8 L 42.0 160.9 L 43.8 161.0 L 43.8 167.5 L 43.3 170.7 L 42.3 173.8 L 40.8 176.7 L 38.8 179.5 L 36.3 182.0 L 33.4 184.2 L 30.2 186.2 L 26.6 187.9 L 22.0 187.4 Z M 169.1 180.0 L 167.9 178.1 L 166.2 176.1 L 164.1 174.0 L 161.6 171.7 L 158.7 169.3 L 155.4 166.8 L 151.7 164.2 L 147.5 161.7 L 148.2 160.1 L 152.9 161.6 L 157.4 163.0 L 161.4 164.4 L 165.2 166.0 L 168.6 167.6 L 171.7 169.3 L 174.4 171.2 L 176.9 173.1 L 179.1 175.3 L 181.0 177.7 L 181.2 182.3 L 178.3 185.7 L 173.7 186.0 L 170.2 183.0 L 169.9 181.7 Z M 121.7 178.0 L 121.3 176.6 L 120.5 174.9 L 119.3 173.1 L 117.7 171.1 L 115.8 169.0 L 113.4 166.7 L 110.7 164.3 L 107.4 162.3 L 108.2 160.7 L 111.9 162.2 L 115.4 163.3 L 118.7 164.6 L 121.6 166.0 L 124.3 167.5 L 126.7 169.2 L 128.8 171.0 L 130.7 173.0 L 132.2 175.4 L 133.4 178.0 L 132.3 182.4 L 128.5 184.9 L 124.0 183.8 L 121.5 180.0 L 121.7 179.2 Z M 80.4 184.9 L 76.6 182.4 L 75.5 178.0 L 76.1 177.3 L 76.4 176.4 L 76.7 175.3 L 76.6 173.9 L 76.3 172.4 L 75.6 170.6 L 74.6 168.6 L 73.3 166.5 L 71.6 164.3 L 69.3 162.4 L 70.3 160.9 L 72.9 162.5 L 75.7 163.7 L 78.1 165.1 L 80.3 166.6 L 82.3 168.3 L 84.0 170.2 L 85.4 172.3 L 86.5 174.7 L 87.2 177.3 L 87.4 180.0 L 84.9 183.8 Z M 19.0 151.0 L 94.0 151.0 L 94.0 133.5 L 35.0 133.5 L 35.0 129.5 L 94.0 129.5 L 94.0 113.7 L 27.0 113.7 L 27.0 109.7 L 70.7615385055542 109.7 L 69.3 108.7 L 69.0 107.7 L 68.4 106.4 L 67.4 104.9 L 66.1 103.3 L 64.5 101.6 L 62.5 99.7 L 60.2 97.7 L 57.6 95.6 L 54.8 93.4 L 51.5 91.5 L 52.2 89.8 L 55.9 91.2 L 59.5 92.1 L 62.7 93.1 L 65.8 94.2 L 68.6 95.3 L 71.1 96.5 L 73.5 97.7 L 75.6 99.0 L 77.6 100.5 L 79.3 102.1 L 80.1 106.6 L 78.11282052993775 109.7 L 116.83928575515748 109.7 L 118.5 108.2 L 121.2 105.4 L 123.8 102.7 L 128.7 97.8 L 130.9 95.5 L 133.0 93.3 L 134.9 91.2 L 136.7 89.3 L 137.6155138015747 88.21282739639283 L 137.5 88.1 L 138.4 87.3 L 146.1 96.5 L 146.5 100.1 L 142.45601291656493 98.77651329040528 L 141.5 99.4 L 138.9 100.8 L 136.2 102.4 L 133.3 104.0 L 130.3 105.6 L 123.7 108.9 L 121.9 109.7 L 156.8181818008423 109.7 L 160.90476188659667 105.20476188659669 L 160.3 104.6 L 162.4 101.9 L 164.0 99.0 L 165.5 96.3 L 166.9 93.7 L 168.2 91.2 L 169.4 88.8 L 170.4 86.6 L 170.91428575515747 85.4 L 28.773684215545654 85.4 L 28.8 86.4 L 28.8 90.0 L 28.4 93.4 L 27.8 96.6 L 26.9 99.6 L 25.6 102.4 L 24.0 105.0 L 22.0 107.4 L 17.5 108.5 L 13.6 106.3 L 12.4 101.8 L 14.7 97.8 L 15.9 97.3 L 17.2 96.4 L 18.6 95.0 L 19.9 93.3 L 21.2 91.2 L 22.4 88.6 L 23.5 85.6 L 24.6 82.2 L 25.6 78.5 L 26.1 74.4 L 27.9 74.4 L 28.2 78.6 L 28.55 81.4 L 36.75714282989502 81.4 L 32.4 20.4 L 44.29059753417969 25.386379623413085 L 48.4 23.9 L 52.8 22.4 L 56.9 21.0 L 60.8 19.6 L 64.3 18.2 L 67.6 16.8 L 70.6 15.4 L 73.3 14.1 L 74.83594131469727 13.268031787872314 L 74.8 13.2 L 74.8611650466919 13.25436897277832 L 75.7 12.8 L 76.52671012878417 14.73485345840454 L 84.7 22.0 L 84.9 25.2 L 80.96263408660889 23.56447877883911 L 80.4 23.8 L 77.3 24.7 L 74.0 25.4 L 70.4 26.2 L 66.7 26.8 L 62.7 27.4 L 58.5 27.9 L 54.0 28.3 L 49.3 28.6 L 45.02420701980591 28.685515880584717 L 45.9262975692749 41.1 L 58.81818180084228 41.1 L 67.0 32.1 L 77.0 41.1 L 77.0 45.1 L 46.21695499420166 45.1 L 47.39411764144897 61.3 L 62.7777777671814 61.3 L 69.0 54.3 L 77.0 61.3 L 77.0 65.3 L 47.684775066375735 65.3 L 48.85467128753662 81.4 L 151.03245029449462 81.4 L 152.0986755371094 65.3 L 128.0 65.3 L 128.0 61.3 L 152.36357612609862 61.3 L 153.43642387390136 45.1 L 128.0 45.1 L 128.0 41.1 L 153.70132446289062 41.1 L 154.76754970550536 25.0 L 126.0 25.0 L 126.0 21.0 L 155.0 21.0 L 161.0 16.0 L 172.0 25.0 L 167.0 28.0 L 165.77214097976685 28.511607933044434 L 163.10101013183595 81.4 L 172.0 81.4 L 172.60714282989503 80.89404764175416 L 172.7 80.6 L 172.85743942260743 80.68546714782715 L 178.0 76.4 L 189.0 85.4 L 184.0 88.4 L 180.04755249023438 90.04685316085815 L 180.0 90.1 L 178.2 92.0 L 174.2 95.8 L 171.9 97.8 L 169.5 99.7 L 167.0 101.7 L 166.49321269989014 102.04389142990112 L 175.0 109.7 L 175.0 113.7 L 106.0 113.7 L 106.0 129.5 L 146.8181818008423 129.5 L 155.0 120.5 L 165.0 129.5 L 165.0 133.5 L 106.0 133.5 L 106.0 151.0 L 162.0 151.0 L 172.0 141.0 L 184.0 151.0 L 184.0 155.0 L 19.0 155.0 Z M 108.3 72.2 L 105.9 69.6 L 104.84545450210571 68.54545450210571 L 103.1 69.6 L 98.0 72.1 L 92.5 74.5 L 86.7 76.5 L 80.7 78.1 L 74.2 79.2 L 73.7 77.5 L 79.3 74.5 L 84.6 71.5 L 89.6 68.6 L 94.2 65.5 L 98.25504922866821 62.576592445373535 L 97.8 62.2 L 94.8 59.8 L 91.6 57.4 L 88.2 55.0 L 84.5 52.7 L 85.2 51.0 L 93.6 53.2 L 97.6 54.6 L 101.5 56.2 L 104.22600317001343 57.52616376876831 L 106.0 55.9 L 109.2 52.5 L 112.0 49.0 L 113.93119440078735 46.21908006668091 L 113.9 46.2 L 114.23664989471436 45.77153654098511 L 110.4 43.9 L 108.7 41.4 L 106.7 39.0 L 105.6078595161438 37.75183944702148 L 102.5 40.1 L 97.7 43.1 L 92.8 45.9 L 87.5 48.2 L 82.0 50.1 L 76.3 51.5 L 75.6 49.8 L 80.4 46.7 L 85.0 43.5 L 89.3 40.3 L 93.3 37.0 L 97.1 33.5 L 99.09583330154419 31.504166698455812 L 97.2 29.9 L 94.3 27.7 L 91.3 25.6 L 88.1 23.5 L 84.6 21.6 L 85.2 19.9 L 89.2 20.7 L 93.1 21.5 L 96.9 22.6 L 100.5 23.9 L 104.1 25.5 L 104.40655736923217 25.65792350769043 L 107.0 22.2 L 109.8 18.1 L 111.84239721298218 14.722189235687257 L 111.8 14.7 L 112.9 13.0 L 122.5 20.3 L 123.9 23.6 L 120.0369402885437 23.46679105758667 L 119.0 24.8 L 115.2 29.1 L 113.33207550048829 30.967924499511717 L 113.8 31.3 L 116.7 33.6 L 119.5 36.1 L 120.9 40.4 L 118.9 44.5 L 115.81454238891601 45.48173656463623 L 124.2 52.5 L 125.4 55.9 L 121.44672002792359 55.55920000076294 L 120.6 56.5 L 116.7 60.1 L 113.17787351608277 62.95124521255493 L 115.4 64.5 L 118.5 67.0 L 121.5 69.7 L 122.9 74.0 L 120.9 78.1 L 116.6 79.5 L 112.5 77.6 L 110.5 74.9 Z " />
</g>
</svg>
