<svg xmlns="http://www.w3.org/2000/svg" xmlns:xlink="http://www.w3.org/1999/xlink" version="1.1" baseProfile="full" viewBox="0 0 200 200" width="200" height="200">
<g fill="black">
<path d="M 177.96008653640746 148.56630611419678 L 174.52481117248536 147.07939586639404 L 173.1 147.6 L 169.4 148.6 L 165.3 149.6 L 161.1 150.6 L 156.6 151.6 L 151.9 152.5 L 146.8 153.4 L 141.6 154.3 L 136.1 155.0 L 130.2 155.6 L 130.0 155.61311473846436 L 130.0 170.7 L 130.2 171.6 L 130.5 172.5 L 130.7 172.7 L 130.9 172.8 L 131.2 173.0 L 131.8 173.2 L 132.7 173.4 L 172.0 173.4 Z M 40.0 107.2 L 40.0 124.8 L 75.0 124.8 L 75.0 107.2 Z M 87.0 107.2 L 87.0 124.8 L 119.0 124.8 L 119.0 107.2 Z M 131.0 107.2 L 131.0 124.8 L 162.0 124.8 L 162.0 107.2 Z M 40.0 87.6 L 40.0 103.2 L 75.0 103.2 L 75.0 87.6 Z M 87.0 89.3 L 90.0 91.3 L 87.0 93.1 L 87.0 103.2 L 119.0 103.2 L 119.0 87.6 L 76.8 87.6 Z M 136.9 54.4 L 133.8 51.4 L 131.81059246063234 49.69479351043701 L 126.9 53.0 L 121.3 56.4 L 115.2 59.5 L 108.7 62.4 L 101.7 65.0 L 100.8 63.4 L 106.8 59.1 L 112.4 55.0 L 117.6 50.9 L 122.3 46.9 L 125.06811542510987 44.389383697509764 L 122.6 42.6 L 118.3 39.7 L 113.7 36.8 L 108.9 33.8 L 103.8 30.7 L 104.5 29.0 L 110.4 30.3 L 116.0 31.9 L 121.3 33.8 L 126.3 36.0 L 131.03669929504395 38.269668388366696 L 133.8 35.1 L 136.6 31.2 L 139.1 27.3 L 141.0 23.5 L 141.03422117233276 23.518401908874512 L 141.37777776718139 22.9 L 85.61014490127563 22.9 L 94.7 29.3 L 96.3 32.6 L 92.32673540115357 32.668504524230954 L 91.6 33.7 L 88.1 37.8 L 84.2 41.9 L 82.6875 43.26845235824585 L 82.9 43.4 L 86.8 46.3 L 90.5 49.3 L 93.9 52.5 L 95.3 56.8 L 93.3 61.0 L 89.0 62.4 L 84.9 60.4 L 82.4 57.3 L 79.7 54.3 L 76.7 51.3 L 74.88598728179932 49.752753829956056 L 70.3 52.9 L 64.9 56.3 L 59.1 59.5 L 52.9 62.4 L 46.2 65.0 L 45.4 63.4 L 51.0 59.1 L 56.2 55.0 L 61.2 51.0 L 65.7 47.0 L 68.34610967636108 44.41842956542969 L 65.7 42.5 L 61.5 39.7 L 56.9 36.8 L 52.2 33.8 L 47.1 30.7 L 47.7 29.0 L 53.6 30.3 L 59.2 31.9 L 64.5 33.8 L 69.5 36.0 L 74.12384262084962 38.26273145675659 L 76.8 35.1 L 79.7 31.2 L 82.2 27.2 L 83.81228857040405 24.205749702453613 L 83.8 24.2 L 83.92941179275513 23.98823528289795 L 84.3 23.3 L 84.3369668006897 23.321327018737794 L 84.59444446563721 22.9 L 42.7 22.9 L 42.7 66.1 L 30.7 72.1 L 30.7 12.9 L 42.7 18.9 L 157.2 18.9 L 163.2 13.9 L 174.2 22.9 L 169.2 26.9 L 169.2 64.9 L 157.2 70.9 L 157.2 22.9 L 142.1970149040222 22.9 L 151.6 29.2 L 153.2 32.4 L 149.19967470169067 32.60691337585449 L 148.5 33.6 L 145.1 37.8 L 141.2 41.9 L 139.6430525779724 43.2446364402771 L 139.9 43.4 L 143.9 46.3 L 147.7 49.3 L 151.2 52.4 L 152.7 56.8 L 150.8 60.9 L 146.5 62.4 L 142.3 60.5 L 139.8 57.4 Z M 69.0 130.5 L 72.0 132.5 L 69.0 134.3 L 69.0 148.4 L 91.81818180084228 148.4 L 100.0 139.4 L 110.0 148.4 L 110.0 152.4 L 69.0 152.4 L 69.0 172.67945203781127 L 74.0 172.2 L 88.8 170.6 L 96.4 169.7 L 104.0 169.0 L 111.8 168.4 L 112.1 170.2 L 104.8 172.7 L 97.4 175.0 L 90.0 177.0 L 82.7 178.9 L 68.1 182.1 L 60.9 183.6 L 46.7 186.2 L 43.6392520904541 186.6742003440857 L 41.9 190.1 L 39.6 187.3 L 36.3 175.6 L 38.3 175.4 L 45.3 174.9 L 52.4 174.3 L 57.0 173.84647884368897 L 57.0 128.8 L 39.85714282989502 128.8 L 39.4 135.2 L 38.5 143.1 L 37.1 150.6 L 35.3 157.5 L 33.0 163.9 L 30.2 169.8 L 27.0 175.1 L 23.3 179.7 L 19.2 183.7 L 14.5 186.9 L 13.4 185.5 L 16.3 181.2 L 19.0 176.6 L 21.3 171.8 L 23.3 166.7 L 24.9 161.2 L 26.2 155.2 L 27.2 148.8 L 27.8 142.0 L 28.1 134.6 L 28.0 126.8 L 28.0 77.6 L 40.0 83.6 L 98.0 83.6 L 98.0 68.4 L 110.0 70.4 L 113.0 72.4 L 110.0 74.2 L 110.0 83.6 L 162.0 83.6 L 172.0 73.6 L 184.0 83.6 L 184.0 87.6 L 120.8 87.6 L 131.0 89.3 L 134.0 91.3 L 131.0 93.1 L 131.0 103.2 L 162.0 103.2 L 168.0 98.2 L 179.0 107.2 L 174.0 111.2 L 174.0 128.8 L 162.0 134.8 L 162.0 128.8 L 119.8 128.8 L 130.0 130.5 L 133.0 132.5 L 130.0 134.3 L 130.0 151.76666669845582 L 134.8 149.9 L 140.0 148.0 L 144.9 146.1 L 149.6 144.4 L 154.0 142.7 L 158.1 141.1 L 162.0 139.5 L 165.6 137.9 L 168.04209079742432 136.78995876312257 L 168.0 136.7 L 168.0821262359619 136.7717607498169 L 168.9 136.4 L 169.50595664978027 138.0158844947815 L 178.3 145.7 L 178.47419357299805 148.4 L 180.0 148.4 L 178.0 173.4 L 181.6 175.8 L 184.0 179.4 L 181.6 183.0 L 178.0 185.4 L 134.0 185.4 L 131.4 185.3 L 128.9 184.8 L 126.5 184.0 L 124.2 182.8 L 122.2 181.2 L 120.6 179.2 L 119.3 176.9 L 118.5 174.5 L 118.1 172.0 L 118.0 169.4 L 118.0 128.8 L 58.8 128.8 Z " />
</g>
</svg>
