<svg xmlns="http://www.w3.org/2000/svg" xmlns:xlink="http://www.w3.org/1999/xlink" version="1.1" baseProfile="full" viewBox="0 0 200 200" width="200" height="200">
<g fill="black">
<path d="M 55.780742931365964 116.63298044204711 L 56.3 116.5 L 64.8 114.3 L 73.7 112.2 L 83.1 110.1 L 92.8 108.1 L 93.3 109.8 L 84.2 113.7 L 75.3 117.3 L 66.8 120.6 L 58.5 123.7 L 55.064229583740236 125.00472288131714 L 54.5 130.6 L 52.6 141.5 L 49.9 151.5 L 46.5 160.5 L 42.3 168.5 L 37.4 175.4 L 31.7 181.1 L 25.3 185.6 L 18.2 188.8 L 17.4 187.1 L 23.0 182.5 L 27.9 177.3 L 32.1 171.5 L 35.6 164.9 L 38.6 157.4 L 41.0 149.0 L 42.7 139.7 L 43.8 129.5 L 43.81325759887695 129.20037879943848 L 43.0 129.5 L 35.8 132.1 L 28.9 134.7 L 22.4 137.1 L 20.05185956954956 137.97108430862426 L 19.0 141.6 L 16.2 139.4 L 10.7 128.5 L 12.6 127.9 L 19.0 126.2 L 25.7 124.4 L 32.8 122.6 L 40.3 120.6 L 44.238489818573 119.59013080596924 L 44.3 118.2 L 44.2 106.0 L 44.2 89.0 L 20.5 89.0 L 20.5 85.0 L 44.2 85.0 L 44.2 55.0 L 13.5 55.0 L 13.5 51.0 L 57.09512195587158 51.0 L 58.3 48.4 L 59.9 44.4 L 61.6 40.6 L 63.1 36.9 L 64.6 33.4 L 66.0 30.1 L 67.3 26.9 L 68.5 23.8 L 69.6 20.9 L 70.25819864273072 19.12286376953125 L 70.2 19.1 L 70.45714282989502 18.585714244842528 L 70.6 18.2 L 70.64014873504638 18.219702625274657 L 71.2 17.1 L 81.4 23.5 L 83.2 26.7 L 79.01065092086792 26.984023666381837 L 77.8 28.8 L 75.8 31.6 L 73.7 34.5 L 71.4 37.4 L 69.1 40.5 L 66.5 43.6 L 63.8 46.8 L 60.9 50.0 L 60.0470588684082 51.0 L 68.5 51.0 L 78.5 41.0 L 90.5 51.0 L 90.5 55.0 L 56.2 55.0 L 56.2 85.0 L 62.3 85.0 L 72.3 75.0 L 84.3 85.0 L 84.3 89.0 L 56.2 89.0 L 56.2 106.0 L 56.195850658416745 106.0062240600586 Z M 172.6 169.8 L 171.0 164.3 L 170.59894075393677 163.16014757156373 L 167.4 164.3 L 158.7 167.2 L 149.9 169.8 L 141.1 172.2 L 132.2 174.6 L 123.4 176.8 L 114.5 179.0 L 105.6 181.1 L 96.6 183.1 L 91.71946268081665 184.14191246032715 L 90.2 187.6 L 87.7 185.0 L 83.7 173.5 L 85.6 173.2 L 94.6 171.9 L 103.6 170.5 L 105.44302177429199 170.21008644104003 L 108.7 165.1 L 114.7 155.7 L 120.8 146.0 L 127.0 135.9 L 133.2 125.5 L 139.5 114.6 L 145.8 103.2 L 152.1 91.5 L 158.4 79.3 L 164.37707424163818 67.53263502120971 L 164.3 67.5 L 165.3 65.6 L 175.4 72.2 L 177.1 75.4 L 173.50383520126343 75.58600854873657 L 168.4 84.7 L 161.4 96.7 L 154.4 108.3 L 147.4 119.4 L 140.4 130.0 L 133.3 140.1 L 126.2 149.7 L 119.0 158.9 L 111.7 167.4 L 109.69416179656983 169.54136781692506 L 112.5 169.1 L 130.5 166.3 L 139.5 164.8 L 148.5 163.4 L 157.5 161.9 L 166.5 160.6 L 169.5676752090454 160.22918214797974 L 169.1 158.9 L 167.0 153.4 L 164.7 147.8 L 162.2 142.2 L 159.5 136.5 L 156.7 130.7 L 153.8 124.8 L 155.3 123.7 L 159.9 128.6 L 164.1 133.7 L 167.9 138.9 L 171.4 144.3 L 174.7 149.7 L 177.6 155.1 L 180.3 160.6 L 182.8 166.2 L 185.0 171.9 L 186.9 177.5 L 186.2 182.1 L 182.6 184.9 L 178.1 184.2 L 175.3 180.6 L 174.1 175.2 Z M 117.0 109.0 L 114.1 104.8 L 111.0 100.7 L 107.7 96.7 L 104.2 92.7 L 100.4 88.8 L 96.5 85.0 L 92.3 81.0 L 88.0 77.0 L 89.0 75.5 L 94.5 77.9 L 99.7 80.7 L 104.6 83.8 L 109.3 87.1 L 109.43546180725097 87.21083240509033 L 112.6 81.1 L 118.6 70.1 L 121.6 64.5 L 127.4 53.3 L 130.2 47.6 L 132.9 41.9 L 135.16802787780762 37.027940082550046 L 135.1 37.0 L 136.1 35.0 L 146.3 41.6 L 148.0 44.7 L 144.32381258010864 44.95353012084961 L 143.0 47.2 L 139.6 52.8 L 136.1 58.3 L 132.5 63.7 L 128.8 69.0 L 125.0 74.2 L 121.1 79.2 L 117.1 84.1 L 112.8 88.9 L 112.21499996185302 89.48500003814698 L 113.7 90.7 L 117.9 94.4 L 121.9 98.4 L 125.6 102.6 L 129.1 106.9 L 132.4 111.5 L 133.0 116.0 L 130.3 119.7 L 125.8 120.4 L 122.1 117.7 L 119.7 113.3 Z M 31.5 40.4 L 31.0 37.8 L 30.3 35.3 L 28.5 30.3 L 27.4 27.8 L 26.2 25.2 L 24.9 22.6 L 23.2 20.3 L 24.4 19.0 L 26.8 20.9 L 29.3 22.6 L 31.7 24.6 L 33.9 26.7 L 35.9 29.0 L 37.8 31.4 L 39.6 34.0 L 41.2 36.7 L 42.6 39.6 L 43.9 42.5 L 43.2 47.1 L 39.6 49.9 L 35.1 49.2 L 32.3 45.5 L 32.0 42.9 Z M 185.5 30.0 L 185.5 34.0 L 93.8 34.0 L 93.8 30.0 L 163.5 30.0 L 173.5 20.0 Z " />
</g>
</svg>
