<svg xmlns="http://www.w3.org/2000/svg" xmlns:xlink="http://www.w3.org/1999/xlink" version="1.1" baseProfile="full" viewBox="0 0 200 200" width="200" height="200">
<g fill="black">
<path d="M 71.5 175.9 L 81.5 175.9 L 82.8 175.8 L 83.7 175.6 L 84.6 175.3 L 84.8 175.1 L 84.9 174.9 L 85.1 174.6 L 85.3 174.0 L 85.5 173.1 L 85.5 113.53870964050293 L 82.8 119.2 L 79.6 125.5 L 76.1 131.5 L 72.4 137.4 L 68.5 143.0 L 64.4 148.4 L 59.9 153.5 L 55.1 158.3 L 53.7 157.2 L 56.8 151.3 L 59.9 145.5 L 62.9 139.6 L 65.8 133.7 L 68.6 127.6 L 71.2 121.5 L 73.6 115.2 L 75.9 108.8 L 78.1 102.2 L 79.71541748046874 96.50352773666381 L 79.7 96.5 L 79.84426231384278 96.04918031692505 L 80.0 95.5 L 80.01813306808472 95.50583410263062 L 80.5 94.0 L 85.5 96.36363639831544 L 85.5 59.73214282989502 L 83.6 63.6 L 80.6 69.2 L 77.5 74.5 L 74.1 79.7 L 70.6 84.7 L 66.8 89.4 L 62.7 93.9 L 58.4 98.0 L 57.0 96.9 L 59.7 91.6 L 62.3 86.4 L 65.0 81.2 L 67.5 75.9 L 69.9 70.6 L 72.2 65.1 L 74.4 59.6 L 76.4 53.9 L 78.3 48.1 L 79.78845682144166 43.22116918563843 L 79.7 43.2 L 80.6 40.7 L 85.5 43.104629611968996 L 85.5 32.1 L 57.7 32.1 L 52.7 36.1 L 52.7 171.9 L 52.6 174.4 L 52.1 176.9 L 51.3 179.3 L 50.1 181.6 L 48.5 183.6 L 46.5 185.2 L 44.2 186.5 L 41.8 187.3 L 39.3 187.7 L 36.7 187.9 L 36.7 181.9 L 22.7 178.9 L 22.7 175.9 L 36.7 175.9 L 38.0 175.8 L 38.9 175.6 L 39.8 175.3 L 40.0 175.1 L 40.1 174.9 L 40.3 174.6 L 40.5 174.0 L 40.7 173.1 L 40.7 114.91724138259887 L 38.5 120.0 L 35.3 126.5 L 32.0 132.7 L 28.5 138.6 L 24.8 144.3 L 20.9 149.7 L 16.6 154.7 L 12.1 159.3 L 10.7 158.2 L 16.3 146.8 L 19.1 141.0 L 21.8 135.1 L 24.4 129.0 L 26.8 122.7 L 29.2 116.2 L 31.4 109.6 L 33.4 102.7 L 35.3 95.7 L 35.34802436828613 95.71419849395753 L 35.8 94.1 L 40.7 96.32727270126342 L 40.7 60.2115385055542 L 39.2 63.5 L 36.3 68.9 L 33.3 74.2 L 30.1 79.3 L 26.8 84.1 L 23.2 88.7 L 19.4 93.0 L 15.3 97.0 L 13.9 95.9 L 16.3 90.8 L 21.1 80.8 L 23.5 75.6 L 25.7 70.4 L 27.9 65.0 L 29.9 59.5 L 31.9 53.9 L 33.7 48.2 L 35.13805389404297 43.20910692214966 L 35.1 43.2 L 35.9 40.7 L 40.7 43.03394498825073 L 40.7 32.1 L 11.4 32.1 L 11.4 28.1 L 40.7 28.1 L 46.7 23.1 L 56.6 31.2 L 56.6 28.1 L 85.5 28.1 L 91.5 23.1 L 102.5 32.1 L 97.5 36.1 L 97.5 171.9 L 97.4 174.4 L 96.9 176.9 L 96.1 179.3 L 94.9 181.6 L 93.3 183.6 L 91.3 185.2 L 89.0 186.5 L 86.6 187.3 L 84.1 187.7 L 81.5 187.9 L 81.5 181.9 L 71.5 178.9 Z M 140.7 176.5 L 156.1 176.5 L 157.1 176.4 L 157.7 176.3 L 158.2 176.1 L 158.4 176.0 L 158.5 175.8 L 158.7 175.6 L 158.9 175.1 L 159.1 174.4 L 159.3 173.3 L 159.4 172.0 L 159.4 108.0 L 127.96333332061768 108.0 L 127.6 118.9 L 126.8 130.0 L 125.5 140.3 L 123.8 149.8 L 121.7 158.4 L 119.1 166.2 L 116.0 173.1 L 112.4 179.0 L 108.3 183.9 L 103.8 187.6 L 102.5 186.3 L 105.3 181.6 L 107.8 176.4 L 110.0 170.5 L 111.9 163.9 L 113.4 156.5 L 114.7 148.3 L 115.5 139.2 L 116.1 129.3 L 116.2 118.6 L 116.01724138259888 108.0 L 101.1 108.0 L 101.1 104.0 L 116.0 104.0 L 116.0 41.0 L 128.0 47.0 L 130.52857141494752 47.0 L 131.0 44.8 L 131.3 41.8 L 132.1 35.6 L 132.5 32.4 L 132.9 29.1 L 133.3 25.7 L 133.7 22.2 L 134.0 18.6 L 134.21804161071776 15.910820484161377 L 134.1 15.9 L 134.6 13.0 L 146.1 17.0 L 148.7 19.5 L 144.94680852890014 20.959574508666993 L 143.8 24.4 L 142.6 27.9 L 141.3 31.3 L 140.0 34.5 L 138.5 37.6 L 137.0 40.5 L 135.4 43.2 L 133.6 45.8 L 132.8319999694824 47.0 L 159.4 47.0 L 164.9 42.0 L 175.4 51.0 L 170.4 54.5 L 170.4 104.0 L 173.5777777671814 104.0 L 179.8 97.0 L 187.8 104.0 L 187.8 108.0 L 170.4 108.0 L 170.4 172.0 L 170.2 174.4 L 169.9 176.7 L 169.2 179.0 L 168.2 181.1 L 166.8 183.1 L 165.0 184.7 L 163.0 186.0 L 160.8 186.8 L 158.5 187.3 L 156.1 187.5 L 156.1 182.0 L 140.7 179.2 Z M 147.9 119.0 L 150.7 121.0 L 147.9 122.75 L 147.9 164.2 L 136.9 169.7 L 136.9 117.0 Z M 128.0 51.0 L 128.0 104.0 L 159.4 104.0 L 159.4 51.0 Z M 139.4 84.7 L 139.2 82.2 L 139.0 79.6 L 138.7 76.9 L 138.2 74.1 L 137.6 71.3 L 136.9 68.3 L 136.2 65.2 L 135.0 62.3 L 136.6 61.4 L 138.5 64.0 L 140.6 66.5 L 142.5 69.1 L 144.2 71.8 L 145.8 74.4 L 147.2 77.2 L 148.4 79.9 L 149.5 82.7 L 150.4 85.5 L 151.2 88.4 L 149.8 92.7 L 145.8 94.9 L 141.4 93.5 L 139.2 89.5 L 139.3 87.2 Z " />
</g>
</svg>
