<svg xmlns="http://www.w3.org/2000/svg" xmlns:xlink="http://www.w3.org/1999/xlink" version="1.1" baseProfile="full" viewBox="0 0 200 200" width="200" height="200">
<g fill="black">
<path d="M 100.1 175.9 L 120.1 175.9 L 121.4 175.8 L 122.3 175.6 L 123.2 175.3 L 123.4 175.1 L 123.5 174.9 L 123.7 174.6 L 123.9 174.0 L 124.1 173.1 L 124.1 112.71000003814697 L 123.8 113.4 L 120.6 120.2 L 117.2 126.6 L 113.6 132.8 L 109.8 138.8 L 105.8 144.4 L 101.5 149.8 L 97.0 154.7 L 92.2 159.3 L 90.8 158.2 L 94.0 152.5 L 100.2 140.9 L 103.2 135.0 L 106.1 128.9 L 108.8 122.6 L 111.4 116.1 L 113.9 109.4 L 116.1 102.6 L 118.01961994171143 96.40486307144165 L 118.0 96.4 L 118.8 94.0 L 124.1 96.57706422805786 L 124.1 58.38620691299438 L 121.4 63.6 L 118.3 69.1 L 115.0 74.3 L 111.6 79.4 L 108.0 84.2 L 104.2 88.8 L 100.1 93.1 L 95.7 97.0 L 94.3 95.9 L 97.0 90.8 L 99.8 85.7 L 102.5 80.6 L 105.1 75.5 L 107.6 70.2 L 110.0 64.9 L 112.3 59.4 L 114.4 53.8 L 116.4 48.0 L 118.00936365127563 43.00250234603882 L 118.0 43.0 L 118.13714284896851 42.605714321136475 L 118.3 42.1 L 118.3116135597229 42.10411100387573 L 118.8 40.7 L 124.1 43.35 L 124.1 32.1 L 91.5 32.1 L 91.5 28.1 L 124.1 28.1 L 130.1 23.1 L 140.9 31.93636360168457 L 140.9 28.1 L 173.2 28.1 L 179.2 23.1 L 190.2 32.1 L 185.2 36.1 L 185.2 171.9 L 185.0 174.4 L 184.6 176.9 L 183.8 179.3 L 182.6 181.6 L 180.9 183.6 L 178.9 185.2 L 176.6 186.5 L 174.2 187.3 L 171.7 187.7 L 169.2 187.9 L 169.2 181.9 L 157.2 178.9 L 157.2 175.9 L 169.2 175.9 L 170.4 175.8 L 171.3 175.6 L 172.2 175.3 L 172.6 174.9 L 172.9 174.0 L 173.1 173.1 L 173.2 171.9 L 173.2 111.38709678649903 L 172.5 112.9 L 169.2 119.3 L 165.6 125.6 L 161.9 131.7 L 157.9 137.5 L 153.6 143.2 L 149.2 148.5 L 144.4 153.6 L 139.2 158.3 L 137.9 157.2 L 141.4 151.3 L 148.2 139.5 L 151.4 133.5 L 154.5 127.5 L 157.4 121.3 L 160.1 115.0 L 162.7 108.6 L 165.0 102.0 L 167.7 93.9 L 173.2 96.7009259223938 L 173.2 57.67857141494751 L 173.0 58.1 L 170.0 63.8 L 166.8 69.3 L 163.3 74.7 L 159.7 79.8 L 155.9 84.8 L 151.8 89.5 L 147.5 93.9 L 142.8 98.0 L 141.4 96.9 L 144.5 91.6 L 147.5 86.3 L 150.4 81.1 L 153.3 75.8 L 156.0 70.4 L 158.5 65.0 L 160.9 59.4 L 163.2 53.7 L 165.3 48.0 L 166.90933980941773 43.002576446533205 L 166.9 43.0 L 167.7 40.6 L 173.2 43.4518518447876 L 173.2 32.1 L 141.1 32.1 L 136.1 36.1 L 136.1 171.9 L 136.0 174.4 L 135.6 176.9 L 134.8 179.3 L 133.5 181.6 L 131.9 183.6 L 129.9 185.2 L 127.6 186.5 L 125.2 187.3 L 122.7 187.7 L 120.1 187.9 L 120.1 181.9 L 100.1 178.9 Z M 53.0 106.2 L 52.783759117126465 108.14616785049438 L 54.5 109.8 L 59.6 115.3 L 64.2 120.8 L 68.5 126.4 L 72.3 132.0 L 75.8 137.5 L 78.9 143.1 L 81.7 148.7 L 84.2 154.3 L 86.2 159.9 L 85.7 164.4 L 82.1 167.3 L 77.6 166.7 L 74.7 163.1 L 73.4 158.0 L 71.8 152.7 L 69.8 147.3 L 67.5 141.8 L 64.9 136.2 L 62.0 130.4 L 58.8 124.5 L 55.3 118.4 L 52.20544557571411 113.35099010467529 L 51.5 119.7 L 49.4 132.0 L 46.4 143.2 L 42.7 153.1 L 38.2 161.9 L 32.9 169.3 L 26.8 175.4 L 19.9 179.9 L 12.5 182.9 L 11.7 181.3 L 17.8 176.8 L 23.0 171.5 L 27.6 165.4 L 31.5 158.2 L 34.8 150.0 L 37.5 140.7 L 39.5 130.2 L 40.9 118.5 L 41.6 105.6 L 41.6 104.3 L 14.0 104.3 L 14.0 100.3 L 41.6 100.3 L 41.6 91.5 L 47.6 91.5 L 41.6 91.4 L 42.10501251220703 51.1 L 20.5 51.1 L 20.5 47.1 L 42.155137825012204 47.1 L 42.6 11.6 L 54.6 13.8 L 57.5 15.8 L 54.55917310714722 16.976330757141113 L 54.17197942733765 47.1 L 65.9 47.1 L 71.9 42.1 L 82.9 51.1 L 77.9 55.1 L 77.9 100.3 L 80.1777777671814 100.3 L 86.4 93.3 L 94.4 100.3 L 94.4 104.3 L 53.07755098342896 104.3 Z M 54.120565509796144 51.1 L 53.6 91.6 L 53.59592113494873 91.59993200302124 L 53.240816307067874 100.3 L 65.9 100.3 L 65.9 51.1 Z " />
</g>
</svg>
