<svg xmlns="http://www.w3.org/2000/svg" xmlns:xlink="http://www.w3.org/1999/xlink" version="1.1" baseProfile="full" viewBox="0 0 200 200" width="200" height="200">
<g fill="black">
<path d="M 52.0 111.8 L 148.0 111.8 L 154.0 106.8 L 165.0 115.8 L 160.0 119.8 L 160.0 181.2 L 148.0 187.2 L 148.0 179.2 L 52.0 179.2 L 52.0 182.2 L 40.0 188.2 L 40.0 105.8 Z M 52.0 157.2 L 52.0 175.2 L 148.0 175.2 L 148.0 157.2 Z M 52.0 136.5 L 52.0 153.2 L 148.0 153.2 L 148.0 136.5 Z M 52.0 115.8 L 52.0 132.5 L 148.0 132.5 L 148.0 115.8 Z M 173.0 79.7 L 175.0 79.7 L 173.0 92.7 L 175.7 94.5 L 177.5 97.2 L 175.7 99.9 L 173.0 101.7 L 81.5 101.7 L 79.2 101.4 L 76.9 100.8 L 74.7 99.8 L 72.7 98.4 L 71.1 96.5 L 69.7 94.4 L 68.8 92.1 L 68.2 89.7 L 68.0 87.2 L 68.0 76.6714285850525 L 62.5 79.1 L 46.4 85.4 L 29.7 91.2 L 12.2 96.4 L 11.7 94.7 L 28.3 87.7 L 44.4 80.5 L 59.7 73.1 L 68.0 68.80884351730347 L 68.0 61.0 L 79.12292680740356 62.853821182250975 L 88.5 57.6 L 96.28536586761474 52.8 L 15.0 52.8 L 15.0 48.8 L 84.0 48.8 L 84.0 32.8 L 32.0 32.8 L 32.0 28.8 L 84.0 28.8 L 84.0 12.2 L 96.0 14.2 L 99.0 16.2 L 96.0 18.0 L 96.0 28.8 L 109.0 28.8 L 119.0 18.8 L 130.67341775894164 28.527848148345946 L 137.6 22.9 L 147.46359720230103 14.05998363494873 L 147.4 14.0 L 148.4 13.2 L 156.2 22.3 L 156.8 25.8 L 153.25898361206055 24.725048637390138 L 144.8 31.7 L 132.7 40.6 L 120.59069766998292 48.8 L 163.0 48.8 L 173.0 38.8 L 185.0 48.8 L 185.0 52.8 L 114.04444446563721 52.8 L 106.6 57.3 L 92.6 65.0 L 80.0 71.25714282989502 L 80.0 80.19803924560547 L 84.0 79.1 L 93.6 76.6 L 102.7 74.3 L 111.3 72.0 L 119.3 69.9 L 126.8 67.8 L 133.7 65.7 L 140.1 63.7 L 145.9 61.7 L 150.2105776786804 60.124981212615964 L 150.2 60.1 L 150.22372503280639 60.12017736434937 L 151.1 59.8 L 151.5956521987915 61.28695650100708 L 160.9 69.2 L 161.2 72.3 L 157.1111110687256 70.46296300888062 L 154.9 71.2 L 149.1 72.6 L 142.9 74.0 L 136.2 75.5 L 128.9 76.8 L 121.1 78.2 L 112.8 79.5 L 103.9 80.7 L 94.6 81.9 L 84.6 82.9 L 80.0 83.20666666030884 L 80.0 87.2 L 79.9 88.4 L 79.9 89.4 L 80.0 90.1 L 80.0 90.6 L 80.2 90.9 L 80.4 91.3 L 80.8 91.7 L 81.5 92.1 L 82.6 92.4 L 84.0 92.7 L 168.5 92.7 Z M 96.0 32.8 L 96.0 48.8 L 102.68941173553466 48.8 L 114.4 40.9 L 125.32134828567504 32.8 Z " />
</g>
</svg>
