<svg xmlns="http://www.w3.org/2000/svg" xmlns:xlink="http://www.w3.org/1999/xlink" version="1.1" baseProfile="full" viewBox="0 0 200 200" width="200" height="200">
<g fill="black">
<path d="M 140.6 186.4 L 124.6 185.8 L 110.0 184.8 L 96.7 183.3 L 84.7 181.4 L 74.0 178.9 L 64.6 175.9 L 56.7 172.2 L 51.34826993942261 168.5472318649292 L 46.8 172.7 L 41.6 176.6 L 36.0 180.1 L 30.0 183.4 L 23.4 186.3 L 16.3 188.7 L 15.6 187.1 L 21.6 182.9 L 27.2 178.8 L 32.3 174.8 L 36.9 170.7 L 41.0 166.5 L 44.5 162.3 L 47.6 158.0 L 50.2 153.7 L 52.3 149.3 L 53.654018592834475 145.71583309173585 L 53.6 145.7 L 54.5 143.4 L 65.2 149.1 L 67.3 152.0 L 63.378174018859866 152.67617692947388 L 62.5 154.4 L 59.3 159.4 L 55.6 164.1 L 53.01024732589722 166.8130742073059 L 58.3 168.4 L 66.3 170.2 L 75.5 171.8 L 85.9 173.1 L 94.0 173.72307691574096 L 94.0 141.7 L 43.1 141.7 L 43.1 137.7 L 94.0 137.7 L 94.0 124.3 L 25.3 124.3 L 25.3 120.3 L 94.0 120.3 L 94.0 107.9 L 44.9 107.9 L 44.9 103.9 L 94.0 103.9 L 94.0 76.6 L 106.0 78.6 L 109.0 80.6 L 106.0 82.4 L 106.0 89.8 L 160.8181818008423 89.8 L 169.0 80.8 L 179.0 89.8 L 179.0 93.8 L 106.0 93.8 L 106.0 103.9 L 143.9 103.9 L 149.9 98.9 L 160.9 107.9 L 155.9 111.9 L 155.9 120.3 L 165.9777777671814 120.3 L 172.2 113.3 L 180.2 120.3 L 180.2 124.3 L 155.9 124.3 L 155.9 141.7 L 143.9 147.7 L 143.9 141.7 L 106.0 141.7 L 106.0 155.0 L 147.0 155.0 L 157.0 145.0 L 169.0 155.0 L 169.0 159.0 L 106.0 159.0 L 106.0 174.3876922607422 L 110.6 174.6 L 124.9 174.8 L 140.5 174.6 L 157.4 174.0 L 175.6 172.9 L 186.9 172.4 L 176.3 186.1 L 157.8 186.5 Z M 106.0 124.3 L 106.0 137.7 L 143.9 137.7 L 143.9 124.3 Z M 106.0 107.9 L 106.0 120.3 L 143.9 120.3 L 143.9 107.9 Z M 186.2 19.9 L 181.2 23.9 L 181.2 70.1 L 169.2 76.1 L 169.2 19.9 L 158.30909090042115 19.9 L 161.4895927429199 24.599547481536867 L 165.0 28.5 L 165.2 32.1 L 161.48695650100709 30.575 L 160.4 31.2 L 156.0 33.4 L 151.3 35.5 L 146.4 37.5 L 141.1 39.5 L 135.5 41.4 L 129.7 43.2 L 123.4 44.9 L 116.8 46.4 L 109.9 47.7 L 109.3 46.0 L 115.6 42.9 L 121.6 39.9 L 127.3 37.1 L 132.6 34.4 L 137.7 31.7 L 142.4 29.1 L 146.7 26.6 L 150.7 24.0 L 154.4 21.5 L 156.5119999885559 19.9 L 107.6 19.9 L 107.6 15.9 L 169.2 15.9 L 175.2 10.9 Z M 100.1 19.9 L 95.1 23.9 L 95.1 70.1 L 83.1 76.1 L 83.1 19.9 L 71.06326532363892 19.9 L 76.16903619766235 27.151674652099608 L 77.6 28.8 L 77.7 32.4 L 73.99381294250489 30.82143888473511 L 73.5 31.1 L 69.3 33.3 L 64.7 35.5 L 59.8 37.5 L 54.5 39.5 L 48.9 41.4 L 42.9 43.2 L 36.6 44.9 L 29.9 46.5 L 22.8 47.7 L 22.2 46.0 L 28.7 42.9 L 34.8 39.9 L 40.6 37.1 L 46.0 34.4 L 51.1 31.8 L 55.7 29.1 L 60.0 26.6 L 63.9 24.0 L 67.4 21.6 L 69.5079999923706 19.9 L 21.5 19.9 L 21.5 15.9 L 83.1 15.9 L 89.1 10.9 Z M 165.1607361793518 48.95582818984985 L 166.8 50.8 L 166.9 54.4 L 163.35156049728394 52.88862762451172 L 162.3 53.5 L 157.7 56.0 L 152.7 58.3 L 147.4 60.7 L 141.7 62.9 L 135.7 65.1 L 129.3 67.2 L 122.6 69.2 L 115.4 71.0 L 107.9 72.6 L 107.3 70.9 L 114.1 67.4 L 120.7 64.2 L 126.8 61.1 L 132.7 58.2 L 138.1 55.2 L 143.2 52.4 L 147.9 49.5 L 152.2 46.7 L 156.1 43.9 L 158.83887042999268 41.84584712982178 L 158.8 41.8 L 158.83999996185304 41.84499998092652 L 159.7 41.2 Z M 79.9776762008667 48.83785896301269 L 81.7 50.8 L 81.9 54.4 L 78.27870082855225 52.885638523101804 L 77.4 53.4 L 72.8 55.8 L 67.9 58.1 L 62.6 60.4 L 56.8 62.6 L 50.7 64.8 L 44.1 67.0 L 37.1 69.0 L 29.7 70.9 L 21.8 72.6 L 21.2 70.9 L 28.4 67.3 L 35.3 64.0 L 47.7 57.8 L 53.3 54.9 L 58.5 52.0 L 63.2 49.2 L 67.5 46.5 L 71.3 43.8 L 73.81528387069702 41.81826124191284 L 73.8 41.8 L 73.81572456359864 41.81791400909424 L 74.6 41.2 Z " />
</g>
</svg>
