<svg xmlns="http://www.w3.org/2000/svg" xmlns:xlink="http://www.w3.org/1999/xlink" version="1.1" baseProfile="full" viewBox="0 0 200 200" width="200" height="200">
<g fill="black">
<path d="M 106.0 132.2 L 109.0 134.2 L 106.0 136.0 L 106.0 154.5 L 145.0 154.5 L 155.0 144.5 L 167.0 154.5 L 167.0 158.5 L 106.0 158.5 L 106.0 183.9 L 162.0 183.9 L 172.0 173.9 L 184.0 183.9 L 184.0 187.9 L 17.0 187.9 L 17.0 183.9 L 94.0 183.9 L 94.0 158.5 L 35.0 158.5 L 35.0 154.5 L 94.0 154.5 L 94.0 131.3 L 27.0 131.3 L 27.0 127.3 L 94.0 127.3 L 94.0 111.8 L 106.0 113.8 L 109.0 115.8 L 106.0 117.6 L 106.0 127.3 L 152.0 127.3 L 162.0 117.3 L 174.0 127.3 L 174.0 131.3 L 100.6 131.3 Z M 81.4 106.5 L 79.0 106.1 L 76.6 105.4 L 74.4 104.2 L 72.4 102.7 L 70.7 100.7 L 69.5 98.5 L 68.6 96.1 L 68.1 93.7 L 68.0 91.1 L 68.0 79.1235294342041 L 62.6 81.7 L 46.5 88.5 L 29.7 94.7 L 12.3 100.2 L 11.6 98.6 L 28.3 91.2 L 44.3 83.6 L 59.7 75.8 L 68.0 71.22653064727783 L 68.0 62.7 L 79.57868337631226 64.62978057861328 L 88.4 59.4 L 96.96091957092285 53.8 L 15.0 53.8 L 15.0 49.8 L 84.0 49.8 L 84.0 32.6 L 32.0 32.6 L 32.0 28.6 L 84.0 28.6 L 84.0 10.9 L 96.0 12.9 L 99.0 14.9 L 96.0 16.7 L 96.0 28.6 L 109.0 28.6 L 119.0 18.6 L 130.72311735153198 28.36926441192627 L 137.5 22.5 L 147.6362500190735 12.9375 L 148.3 12.2 L 156.4 21.1 L 157.0 24.7 L 153.45172414779663 23.686206912994386 L 145.0 31.1 L 132.9 40.7 L 120.1 49.8 L 163.0 49.8 L 173.0 39.8 L 185.0 49.8 L 185.0 53.8 L 113.93908042907715 53.8 L 106.7 58.5 L 92.7 66.7 L 80.0 73.30743246078491 L 80.0 83.18118810653687 L 83.9 82.1 L 93.6 79.4 L 102.7 77.0 L 111.2 74.7 L 119.3 72.4 L 126.7 70.2 L 133.7 68.0 L 140.0 65.9 L 145.8 63.8 L 150.11755228042603 62.13940296173096 L 150.1 62.1 L 150.13716812133788 62.13185844421387 L 151.0 61.8 L 151.54446458816528 63.33811254501343 L 160.6 71.1 L 160.9 74.2 L 156.8072385787964 72.45455760955811 L 155.0 73.1 L 149.2 74.7 L 143.0 76.2 L 136.2 77.7 L 129.0 79.2 L 121.2 80.7 L 112.8 82.1 L 104.0 83.4 L 94.6 84.7 L 84.6 85.8 L 80.0 86.19428567886352 L 80.0 92.3 L 80.1 93.3 L 80.2 93.9 L 80.5 94.5 L 80.7 94.8 L 81.7 95.3 L 82.7 95.5 L 84.0 95.6 L 167.5 95.6 L 173.0 74.6 L 175.0 74.6 L 173.0 95.6 L 176.3 97.8 L 178.5 101.1 L 176.3 104.4 L 173.0 106.6 L 84.0 106.6 Z M 96.0 32.6 L 96.0 49.8 L 102.94615383148194 49.8 L 114.3 41.6 L 125.78936166763306 32.6 Z " />
</g>
</svg>
