<svg xmlns="http://www.w3.org/2000/svg" xmlns:xlink="http://www.w3.org/1999/xlink" version="1.1" baseProfile="full" viewBox="0 0 200 200" width="200" height="200">
<g fill="black">
<path d="M 13.2 149.9 L 18.0 148.8 L 22.9 147.6 L 24.4 147.21764707565308 L 24.4 30.0 L 13.2 30.0 L 13.2 26.0 L 69.7 26.0 L 79.7 16.0 L 91.7 26.0 L 91.7 30.0 L 74.9 30.0 L 74.9 183.0 L 62.9 189.0 L 62.9 140.59298248291014 L 57.9 143.4 L 52.4 146.2 L 46.9 148.9 L 41.5 151.4 L 36.3 153.7 L 31.2 155.8 L 26.2 157.8 L 21.3 159.7 L 20.5169397354126 159.98323459625243 L 19.3 163.8 L 16.6 161.4 L 11.3 150.5 Z M 113.0 177.0 L 127.0 177.0 L 128.2 176.9 L 129.1 176.7 L 130.0 176.4 L 130.4 176.0 L 130.7 175.1 L 130.9 174.2 L 131.0 173.0 L 131.0 77.0 L 90.0 77.0 L 90.0 73.0 L 166.0 73.0 L 176.0 63.0 L 188.0 73.0 L 188.0 77.0 L 143.0 77.0 L 143.0 173.0 L 142.8 175.5 L 142.4 178.0 L 141.6 180.4 L 140.3 182.7 L 138.7 184.7 L 136.7 186.3 L 134.4 187.6 L 132.0 188.4 L 129.5 188.8 L 127.0 189.0 L 127.0 183.0 L 113.0 180.0 Z M 118.4 104.6 L 120.7 107.4 L 117.07213115692139 108.30696725845337 L 116.0 111.3 L 113.3 118.1 L 110.4 124.9 L 107.2 131.8 L 103.7 138.7 L 100.0 145.6 L 96.0 152.6 L 91.6 159.6 L 86.9 166.5 L 81.7 173.4 L 80.2 172.5 L 83.6 164.7 L 86.9 157.0 L 90.1 149.6 L 93.2 142.3 L 96.0 135.2 L 98.6 128.2 L 101.1 121.3 L 103.2 114.5 L 105.2 107.8 L 106.64031238555908 102.20819911956787 L 106.6 102.2 L 106.86046514511108 101.35348834991456 L 106.9 101.2 L 106.90705089569092 101.20208463668823 L 107.4 99.6 Z M 172.5 149.7 L 171.0 143.6 L 169.3 137.4 L 167.3 131.3 L 165.0 125.2 L 162.5 119.1 L 159.8 112.9 L 156.9 106.7 L 153.8 100.3 L 155.3 99.3 L 160.1 104.6 L 164.4 110.2 L 168.3 116.0 L 171.9 121.9 L 175.1 128.0 L 178.0 134.2 L 180.6 140.5 L 182.8 146.9 L 184.8 153.4 L 186.4 160.0 L 185.3 164.4 L 181.5 166.9 L 177.0 165.8 L 174.5 162.0 L 173.6 155.8 Z M 36.4 106.0 L 36.4 144.0111110687256 L 38.6 143.4 L 44.2 141.8 L 50.0 140.1 L 55.9 138.4 L 62.1 136.7 L 62.9 136.5 L 62.9 106.0 Z M 36.4 68.0 L 36.4 102.0 L 62.9 102.0 L 62.9 68.0 Z M 36.4 30.0 L 36.4 64.0 L 62.9 64.0 L 62.9 30.0 Z M 180.0 33.0 L 180.0 37.0 L 100.0 37.0 L 100.0 33.0 L 158.0 33.0 L 168.0 23.0 Z " />
</g>
</svg>
