<svg xmlns="http://www.w3.org/2000/svg" xmlns:xlink="http://www.w3.org/1999/xlink" version="1.1" baseProfile="full" viewBox="0 0 200 200" width="200" height="200">
<g fill="black">
<path d="M 98.4 156.9 L 98.69199647903443 156.82260332107543 L 94.6 155.3 L 92.6 151.2 L 92.7 148.3 L 92.7 145.3 L 92.4 142.3 L 91.8 139.3 L 91.1 136.3 L 90.1 133.2 L 88.9 130.0 L 87.4 126.8 L 85.7 123.5 L 83.6 120.3 L 84.9 119.1 L 87.9 121.6 L 90.9 124.2 L 93.6 127.0 L 96.0 129.9 L 98.1 133.0 L 100.0 136.3 L 101.6 139.7 L 102.9 143.2 L 103.9 146.9 L 104.6 150.7 L 103.0 154.9 L 99.49498682022094 156.6097625732422 L 106.7 154.7 L 115.1 152.4 L 120.3 150.99294118881227 L 120.3 28.0 L 106.2 28.0 L 106.2 24.0 L 164.8 24.0 L 174.8 14.0 L 186.8 24.0 L 186.8 28.0 L 173.4 28.0 L 173.4 137.5813186645508 L 176.5 136.9 L 185.7 135.1 L 186.3 136.8 L 177.6 140.5 L 173.4 142.2581395149231 L 173.4 182.0 L 161.4 188.0 L 161.4 147.0162790298462 L 160.4 147.4 L 151.8 150.6 L 143.3 153.7 L 126.5 159.7 L 105.80422916412354 167.01923599243165 L 104.7 170.7 L 101.9 168.4 L 96.5 157.5 Z M 85.5 141.0 L 87.5 141.0 L 85.5 166.0 L 89.1 168.4 L 91.5 172.0 L 89.1 175.6 L 85.5 178.0 L 56.5 178.0 L 53.9 177.8 L 51.4 177.4 L 49.0 176.6 L 46.8 175.3 L 44.8 173.7 L 43.1 171.7 L 41.9 169.4 L 41.1 167.0 L 40.6 164.5 L 40.5 162.0 L 40.5 112.0 L 52.5 114.0 L 55.5 116.0 L 52.5 117.8 L 52.5 162.0 L 52.6 163.2 L 52.7 164.1 L 52.9 164.7 L 53.1 165.0 L 53.2 165.2 L 53.4 165.4 L 53.8 165.5 L 54.4 165.7 L 55.3 165.9 L 56.5 166.0 L 79.5 166.0 Z M 15.3 169.4 L 12.9 165.5 L 14.0 161.0 L 16.0 158.5 L 18.0 155.8 L 19.9 152.8 L 21.7 149.6 L 23.3 146.1 L 24.9 142.4 L 26.4 138.4 L 27.8 134.2 L 29.2 129.7 L 30.3 124.9 L 32.1 125.0 L 32.4 130.0 L 32.5 134.9 L 32.3 139.6 L 31.8 144.2 L 31.1 148.6 L 30.1 152.8 L 28.8 156.8 L 27.4 160.8 L 25.6 164.5 L 23.7 168.0 L 19.7 170.4 Z M 132.3 109.0 L 132.3 147.74942531585694 L 140.8 145.6 L 149.6 143.3 L 158.4 141.1 L 161.4 140.36666669845582 L 161.4 109.0 Z M 65.4 130.8 L 65.0 127.9 L 64.4 125.1 L 63.6 122.4 L 62.7 119.7 L 61.6 117.0 L 60.4 114.4 L 59.0 111.7 L 57.1 109.3 L 58.3 107.9 L 60.9 109.8 L 63.6 111.7 L 66.1 113.8 L 68.3 116.2 L 70.4 118.9 L 72.3 121.7 L 73.9 124.8 L 75.4 128.1 L 76.6 131.5 L 77.7 135.1 L 76.5 139.5 L 72.6 141.9 L 68.2 140.7 L 65.8 136.8 L 65.7 133.8 Z M 35.4 107.0 L 23.4 113.0 L 23.4 22.0 L 35.4 28.0 L 88.0 28.0 L 94.0 23.0 L 105.0 32.0 L 100.0 36.0 L 100.0 99.0 L 88.0 105.0 L 88.0 95.0 L 35.4 95.0 Z M 132.3 66.0 L 132.3 105.0 L 161.4 105.0 L 161.4 66.0 Z M 35.4 63.0 L 35.4 91.0 L 55.7 91.0 L 55.7 63.0 Z M 67.7 63.0 L 67.7 91.0 L 88.0 91.0 L 88.0 63.0 Z M 132.3 28.0 L 132.3 62.0 L 161.4 62.0 L 161.4 28.0 Z M 35.4 32.0 L 35.4 59.0 L 55.7 59.0 L 55.7 32.0 Z M 67.7 32.0 L 67.7 59.0 L 88.0 59.0 L 88.0 32.0 Z " />
</g>
</svg>
