<svg xmlns="http://www.w3.org/2000/svg" xmlns:xlink="http://www.w3.org/1999/xlink" version="1.1" baseProfile="full" viewBox="0 0 200 200" width="200" height="200">
<g fill="black">
<path d="M 11.5 149.9 L 16.0 148.8 L 20.6 147.6 L 21.9 147.2479166984558 L 21.9 30.0 L 11.6 30.0 L 11.6 26.0 L 63.6 26.0 L 73.6 16.0 L 85.6 26.0 L 85.6 30.0 L 70.1 30.0 L 70.1 183.0 L 58.1 189.0 L 58.1 140.86415090560914 L 53.9 143.4 L 48.7 146.2 L 43.5 148.9 L 38.5 151.3 L 33.6 153.6 L 28.8 155.8 L 24.1 157.8 L 19.5 159.7 L 18.95469436645508 159.9060043334961 L 17.8 163.7 L 15.0 161.4 L 9.6 150.5 Z M 76.3 150.8 L 80.8 148.2 L 84.5 145.9800000190735 L 84.5 39.6 L 93.03258428573608 43.86629209518433 L 95.9 40.9 L 98.9 37.9 L 105.1 32.1 L 108.1 29.2 L 117.4 20.2 L 119.8380952835083 17.838095283508302 L 119.8 17.8 L 120.7 17.0 L 128.3 26.3 L 128.7 29.9 L 125.05761585235595 28.6417218208313 L 124.7 28.9 L 121.0 31.4 L 117.4 33.9 L 113.7 36.3 L 110.0 38.6 L 106.3 40.8 L 102.6 42.9 L 98.8 44.9 L 96.5 45.90256414413452 L 96.5 138.99166669845582 L 99.4 137.3 L 104.2 134.6 L 109.1 131.9 L 114.1 129.1 L 119.3 126.5 L 124.7 124.1 L 125.7 125.6 L 121.5 129.7 L 117.2 133.6 L 112.8 137.3 L 108.5 140.9 L 104.1 144.4 L 99.8 147.8 L 95.6 151.1 L 91.3 154.4 L 87.1 157.6 L 86.3 158.22439022064208 L 86.3 162.2 L 83.0 160.8 L 74.6 151.9 Z M 153.5 147.0 L 163.5 147.0 L 164.8 146.9 L 165.7 146.7 L 166.6 146.4 L 166.8 146.2 L 166.9 146.0 L 167.1 145.7 L 167.3 145.1 L 167.5 144.2 L 167.5 44.0 L 141.4 44.0 L 141.4 185.0 L 129.4 191.0 L 129.4 34.0 L 141.4 40.0 L 167.5 40.0 L 173.5 35.0 L 184.5 44.0 L 179.5 48.0 L 179.5 143.0 L 179.4 145.5 L 179.0 148.0 L 178.1 150.4 L 176.9 152.7 L 175.3 154.7 L 173.3 156.3 L 171.0 157.6 L 168.6 158.4 L 166.1 158.8 L 163.5 159.0 L 163.5 153.0 L 153.5 150.0 Z M 33.9 106.0 L 33.9 143.84117650985718 L 35.4 143.4 L 40.7 141.8 L 46.2 140.1 L 51.8 138.4 L 57.6 136.7 L 58.1 136.56885242462158 L 58.1 106.0 Z M 33.9 68.0 L 33.9 102.0 L 58.1 102.0 L 58.1 68.0 Z M 33.9 30.0 L 33.9 64.0 L 58.1 64.0 L 58.1 30.0 Z " />
</g>
</svg>
