<svg xmlns="http://www.w3.org/2000/svg" xmlns:xlink="http://www.w3.org/1999/xlink" version="1.1" baseProfile="full" viewBox="0 0 200 200" width="200" height="200">
<g fill="black">
<path d="M 21.6 165.3 L 33.0 165.0 L 45.4 164.7 L 51.0 164.49411764144898 L 51.0 114.1 L 20.0 114.1 L 20.0 110.1 L 158.0 110.1 L 168.0 100.1 L 180.0 110.1 L 180.0 114.1 L 145.0 114.1 L 145.0 161.46039600372313 L 163.6 161.0 L 184.9 160.7 L 185.0 162.5 L 163.8 164.8 L 145.0 166.7641791343689 L 145.0 183.1 L 133.0 189.1 L 133.0 167.85736837387086 L 124.7 168.6 L 106.8 170.2 L 90.0 171.7 L 74.2 173.0 L 59.6 174.3 L 46.1 175.4 L 33.6 176.4 L 26.321804332733155 176.97967929840087 L 24.4 180.2 L 22.3 177.3 L 19.6 165.5 Z M 63.0 149.9 L 63.0 164.09115648269653 L 73.7 163.8 L 89.4 163.2 L 106.3 162.7 L 124.3 162.1 L 133.0 161.82670154571534 L 133.0 149.9 Z M 63.0 132.2 L 63.0 145.9 L 133.0 145.9 L 133.0 132.2 Z M 63.0 114.1 L 63.0 128.2 L 133.0 128.2 L 133.0 114.1 Z M 160.8 94.8 L 152.7 90.2 L 145.6 85.1 L 143.21631803512574 82.98117151260377 L 137.0 87.4 L 127.8 92.3 L 117.5 96.5 L 106.3 99.6 L 94.53571424484252 101.7214285850525 L 94.0 101.9 L 91.5 102.3 L 89.0 102.5 L 89.0 96.5 L 79.0 93.5 L 79.0 90.5 L 89.0 90.5 L 90.2 90.4 L 91.1 90.2 L 92.0 89.9 L 92.4 89.5 L 92.7 88.6 L 92.9 87.7 L 93.0 86.5 L 93.0 48.5 L 69.0 48.5 L 69.0 95.0 L 57.0 101.0 L 57.0 48.5 L 33.0 48.5 L 33.0 96.5 L 21.0 102.5 L 21.0 43.645454502105714 L 17.0 45.1 L 12.4 46.8 L 11.5 45.1 L 15.5 42.4 L 19.1 39.5 L 22.5 36.7 L 25.6 34.1 L 28.4 31.4 L 31.0 28.9 L 33.3 26.3 L 35.4 23.9 L 37.1 21.4 L 38.055124282836914 19.93547601699829 L 38.0 19.9 L 39.0 18.5 L 48.1 26.4 L 49.3 29.8 L 45.1362720489502 29.29748115539551 L 42.8 31.3 L 39.8 33.6 L 36.6 35.8 L 33.2 37.9 L 29.5 39.9 L 26.61298704147339 41.30649347305298 L 33.0 44.5 L 57.0 44.5 L 57.0 13.0 L 69.0 15.0 L 72.0 17.0 L 69.0 18.8 L 69.0 44.5 L 93.0 44.5 L 97.60578031539917 40.661849689483645 L 97.2 40.1 L 95.7 38.2 L 93.9 36.3 L 91.9 34.3 L 89.7 32.4 L 87.3 30.5 L 84.7 28.5 L 81.9 26.5 L 78.9 24.4 L 75.6 22.6 L 76.2 21.0 L 79.9 21.9 L 83.6 22.6 L 87.1 23.6 L 90.4 24.6 L 93.6 25.8 L 96.6 27.1 L 99.5 28.6 L 102.2 30.1 L 104.8 31.8 L 107.2 33.6 L 108.8 37.9 L 107.0 42.1 L 103.6852575302124 43.33339252471924 L 110.0 48.5 L 105.0 52.5 L 105.0 86.5 L 104.8 89.0 L 104.4 91.5 L 103.6 93.9 L 102.3 96.2 L 101.35320196151733 97.38349752426147 L 105.2 96.0 L 115.5 91.5 L 124.7 86.5 L 132.8 81.1 L 137.30106525421144 77.24194402694702 L 133.9 73.4 L 129.5 66.9 L 126.2 59.8 L 123.9 52.4 L 123.39048118591309 48.425753593444824 L 119.4 51.6 L 114.7 54.8 L 109.7 57.7 L 108.6 56.2 L 112.3 51.9 L 115.7 47.7 L 119.0 43.6 L 122.1 39.4 L 124.9 35.1 L 127.4 30.8 L 129.7 26.4 L 131.8 22.0 L 133.6 17.4 L 134.8791268348694 13.722510242462159 L 134.8 13.7 L 135.7 11.4 L 146.4 17.0 L 148.5 19.9 L 144.65150814056398 20.64269142150879 L 144.0 22.0 L 141.3 26.9 L 138.4 31.5 L 135.2 36.0 L 134.7833333015442 36.5 L 165.6 36.5 L 175.6 26.5 L 187.6 36.5 L 187.6 40.5 L 170.73900003433226 40.5 L 168.1 49.6 L 164.1 58.8 L 158.9 67.2 L 152.6 74.8 L 150.88780698776245 76.37146482467651 L 151.5 76.8 L 158.2 80.6 L 165.7 84.0 L 173.9 87.0 L 183.0 89.6 L 191.0 91.9 L 179.3 102.3 L 169.6 98.8 Z M 53.6 58.6 L 56.2 61.2 L 52.07600584030151 62.6246524810791 L 51.3 64.5 L 49.9 67.3 L 48.3 70.1 L 46.6 72.7 L 44.7 75.3 L 42.6 77.7 L 40.4 80.0 L 37.9 82.2 L 35.7 84.5 L 34.2 83.4 L 35.8 80.7 L 37.0 77.7 L 38.0 74.9 L 38.9 72.1 L 39.7 69.4 L 40.4 66.7 L 41.0 64.1 L 41.4 61.4 L 41.7 58.8 L 41.82680654525757 57.21491842269897 L 41.7 57.2 L 42.2 54.4 Z M 78.2 74.4 L 77.9 72.3 L 77.4 70.2 L 76.8 68.0 L 76.0 65.8 L 75.1 63.5 L 74.0 61.0 L 72.8 58.5 L 71.0 56.3 L 72.3 55.0 L 74.5 56.9 L 76.9 58.6 L 79.2 60.4 L 81.2 62.3 L 83.1 64.3 L 84.9 66.4 L 86.5 68.6 L 87.9 70.9 L 89.1 73.3 L 90.2 75.8 L 89.3 80.2 L 85.6 82.9 L 81.1 82.0 L 78.5 78.3 L 78.4 76.4 Z M 131.4219511985779 40.5 L 127.9 44.3 L 125.70459537506103 46.33476524353027 L 127.9 51.0 L 131.4 57.2 L 135.5 62.8 L 140.2 67.9 L 143.63188972473145 70.94337387084961 L 145.7 68.7 L 150.5 61.7 L 154.4 54.1 L 157.3 46.0 L 158.54666662216187 40.5 Z " />
</g>
</svg>
