<svg xmlns="http://www.w3.org/2000/svg" xmlns:xlink="http://www.w3.org/1999/xlink" version="1.1" baseProfile="full" viewBox="0 0 200 200" width="200" height="200">
<g fill="black">
<path d="M 36.3 22.0 L 67.3 22.0 L 73.3 17.0 L 84.3 26.0 L 79.3 30.0 L 79.3 171.0 L 79.2 173.5 L 78.8 176.0 L 77.9 178.4 L 76.7 180.7 L 75.1 182.7 L 73.1 184.3 L 70.8 185.6 L 68.4 186.4 L 65.9 186.8 L 63.3 187.0 L 63.3 181.0 L 45.3 178.0 L 45.3 175.0 L 63.3 175.0 L 64.6 174.9 L 65.5 174.7 L 66.4 174.4 L 66.6 174.2 L 66.7 174.0 L 66.9 173.7 L 67.1 173.1 L 67.3 172.2 L 67.3 114.0 L 36.3 114.0 L 36.3 118.0 L 35.8 128.7 L 35.0 138.7 L 33.8 147.9 L 32.2 156.4 L 30.2 164.0 L 27.7 170.7 L 24.9 176.7 L 21.6 181.7 L 17.9 185.7 L 13.7 188.6 L 12.5 187.3 L 14.9 183.4 L 17.0 179.0 L 18.9 174.0 L 20.5 168.4 L 21.9 161.9 L 23.0 154.7 L 23.8 146.8 L 24.3 138.0 L 24.5 128.4 L 24.3 118.0 L 24.3 16.0 Z M 143.2 174.0 L 157.2 174.0 L 158.4 173.9 L 159.3 173.7 L 159.9 173.5 L 160.3 173.4 L 160.5 173.2 L 160.6 173.0 L 160.8 172.7 L 161.0 172.1 L 161.1 171.2 L 161.2 170.0 L 161.2 122.0 L 111.7 122.0 L 111.7 181.0 L 99.7 187.0 L 99.7 122.0 L 84.3 122.0 L 84.3 118.0 L 99.7 118.0 L 99.7 74.7 L 84.3 74.7 L 84.3 70.7 L 99.7 70.7 L 99.7 20.0 L 111.7 26.0 L 161.2 26.0 L 167.2 21.0 L 178.2 30.0 L 173.2 34.0 L 173.2 70.7 L 178.2 70.7 L 182.7 64.7 L 188.7 70.7 L 188.7 74.7 L 173.2 74.7 L 173.2 118.0 L 178.2 118.0 L 182.7 112.0 L 188.7 118.0 L 188.7 122.0 L 173.2 122.0 L 173.2 170.0 L 173.1 172.5 L 172.6 175.0 L 171.8 177.4 L 170.6 179.7 L 168.9 181.7 L 166.9 183.3 L 164.7 184.6 L 162.3 185.4 L 159.8 185.8 L 157.2 186.0 L 157.2 180.0 L 143.2 177.0 Z M 111.7 74.7 L 111.7 118.0 L 161.2 118.0 L 161.2 74.7 Z M 36.3 69.0 L 36.3 110.0 L 67.3 110.0 L 67.3 69.0 Z M 111.7 30.0 L 111.7 70.7 L 161.2 70.7 L 161.2 30.0 Z M 36.3 26.0 L 36.3 65.0 L 67.3 65.0 L 67.3 26.0 Z " />
</g>
</svg>
