<svg xmlns="http://www.w3.org/2000/svg" xmlns:xlink="http://www.w3.org/1999/xlink" version="1.1" baseProfile="full" viewBox="0 0 200 200" width="200" height="200">
<g fill="black">
<path d="M 146.2 15.0 L 149.2 17.0 L 146.2 18.8 L 146.2 85.0 L 155.9 85.0 L 165.9 75.0 L 177.9 85.0 L 177.9 89.0 L 146.2 89.0 L 146.2 127.0 L 166.0 127.0 L 176.0 117.0 L 188.0 127.0 L 188.0 131.0 L 146.2 131.0 L 146.2 183.0 L 134.2 189.0 L 134.2 131.0 L 94.2 131.0 L 94.2 127.0 L 134.2 127.0 L 134.2 89.0 L 105.2 89.0 L 105.2 85.0 L 134.2 85.0 L 134.2 13.0 Z M 60.0 176.0 L 74.0 176.0 L 75.2 175.9 L 76.1 175.7 L 77.0 175.4 L 77.4 175.0 L 77.7 174.1 L 77.9 173.2 L 78.0 172.0 L 78.0 154.8 L 75.1 157.7 L 70.5 157.6 L 67.3 154.4 L 66.2 150.9 L 65.0 147.6 L 63.7 144.3 L 62.4 141.2 L 59.4 135.2 L 56.0 129.6 L 54.2 126.8 L 53.45172414779663 125.86465520858765 L 51.5 130.5 L 48.0 137.5 L 44.1 144.0 L 39.9 149.9 L 35.4 155.2 L 30.4 159.8 L 27.0 162.1925926208496 L 27.0 182.0 L 15.0 188.0 L 15.0 36.0 L 27.0 42.0 L 47.31838235855103 42.0 L 47.9 30.7 L 47.9 15.9 L 47.92940454483032 15.900244998931885 L 48.0 13.5 L 59.9 16.0 L 62.9 18.0 L 59.7200270652771 19.907983779907227 L 59.2 31.2 L 58.20425529479981 42.0 L 78.0 42.0 L 84.0 37.0 L 95.0 46.0 L 90.0 50.0 L 90.0 172.0 L 89.8 174.5 L 89.4 177.0 L 88.6 179.4 L 87.3 181.7 L 85.7 183.7 L 83.7 185.3 L 81.4 186.6 L 79.0 187.4 L 76.5 187.8 L 74.0 188.0 L 74.0 182.0 L 60.0 179.0 Z M 66.6 89.8 L 65.3 86.6 L 63.9 83.4 L 62.3 80.2 L 60.5 77.0 L 58.6 73.9 L 56.6 70.7 L 54.5 67.4 L 54.07697839736939 66.85359716415405 L 53.4 69.9 L 50.3 80.5 L 46.4 89.8 L 41.9 97.9 L 36.7 104.6 L 30.9 109.9 L 27.0 112.18000001907349 L 27.0 158.02702703475953 L 27.6 157.2 L 31.1 151.9 L 34.4 146.3 L 37.5 140.3 L 40.3 133.9 L 42.9 127.0 L 45.2 119.7 L 47.2 111.9 L 48.9 103.6 L 50.227157020568846 95.90248937606812 L 50.2 95.9 L 50.7 93.0 L 62.2 97.0 L 64.8 99.5 L 61.269733619689944 100.84791984558106 L 60.0 106.1 L 57.5 114.8 L 54.7 122.9 L 54.40992803573609 123.58892087936401 L 56.2 124.7 L 59.2 126.5 L 62.0 128.6 L 64.7 131.0 L 67.3 133.7 L 69.8 136.5 L 72.1 139.6 L 74.3 142.8 L 76.4 146.3 L 78.0 149.18000001907347 L 78.0 98.3 L 76.6 99.7 L 72.0 99.6 L 68.8 96.4 L 67.8 93.1 Z M 27.0 46.0 L 27.0 108.55416669845582 L 28.3 107.2 L 32.5 101.4 L 36.2 94.6 L 39.4 86.8 L 42.1 77.9 L 44.4 67.9 L 46.1 56.7 L 47.04919357299805 46.0 Z M 57.796899223327635 46.0 L 56.0 58.2 L 54.71428575515747 63.98571424484253 L 56.6 65.3 L 59.9 67.5 L 63.1 70.1 L 66.0 72.8 L 68.7 75.6 L 71.3 78.6 L 73.7 81.8 L 75.9 85.0 L 78.0 88.4 L 78.0 46.0 Z M 125.4 34.5 L 127.8 37.2 L 124.12656717300415 38.24955224990845 L 123.6 39.8 L 121.5 45.2 L 119.1 50.5 L 116.6 55.9 L 113.8 61.2 L 110.8 66.5 L 107.5 71.9 L 104.0 77.1 L 100.1 82.3 L 95.8 87.4 L 94.3 86.5 L 96.8 80.4 L 99.3 74.5 L 101.7 68.8 L 104.0 63.2 L 106.1 57.7 L 108.0 52.3 L 109.8 46.9 L 111.3 41.6 L 112.7 36.5 L 113.66637496948242 32.31237497329712 L 113.6 32.3 L 114.3 29.7 Z M 172.5 61.7 L 171.0 57.7 L 169.4 53.9 L 167.7 50.1 L 165.8 46.4 L 163.8 42.8 L 161.6 39.3 L 159.3 35.7 L 156.8 32.3 L 158.1 31.0 L 161.7 33.4 L 165.3 36.0 L 168.6 39.0 L 171.7 42.2 L 174.6 45.7 L 177.3 49.4 L 179.8 53.3 L 182.2 57.4 L 184.3 61.7 L 186.3 66.2 L 185.9 70.8 L 182.5 73.8 L 177.9 73.4 L 174.9 70.0 L 173.8 65.8 Z " />
</g>
</svg>
