<svg xmlns="http://www.w3.org/2000/svg" xmlns:xlink="http://www.w3.org/1999/xlink" version="1.1" baseProfile="full" viewBox="0 0 200 200" width="200" height="200">
<g fill="black">
<path d="M 32.9 22.0 L 58.6 22.0 L 64.6 17.0 L 75.6 26.0 L 70.6 30.0 L 70.6 171.0 L 70.5 173.5 L 70.0 176.0 L 69.2 178.4 L 68.0 180.7 L 66.4 182.7 L 64.3 184.3 L 62.1 185.6 L 59.7 186.4 L 57.2 186.8 L 54.6 187.0 L 54.6 181.0 L 38.6 178.0 L 38.6 175.0 L 54.6 175.0 L 55.9 174.9 L 56.8 174.7 L 57.7 174.4 L 57.9 174.2 L 58.0 174.0 L 58.2 173.7 L 58.4 173.1 L 58.6 172.2 L 58.6 114.0 L 32.9 114.0 L 32.9 118.0 L 32.4 128.7 L 31.6 138.7 L 30.5 147.9 L 29.0 156.3 L 27.2 163.8 L 25.1 170.6 L 22.5 176.5 L 19.6 181.6 L 16.2 185.7 L 12.4 188.6 L 11.1 187.3 L 13.1 183.4 L 14.8 179.1 L 16.4 174.2 L 17.8 168.5 L 18.9 162.1 L 19.9 154.8 L 20.5 146.8 L 20.9 138.0 L 21.0 128.4 L 20.9 118.0 L 20.9 16.0 Z M 142.0 134.0 L 158.0 134.0 L 159.2 133.9 L 160.1 133.7 L 161.0 133.4 L 161.4 133.0 L 161.7 132.1 L 161.9 131.2 L 162.0 130.0 L 162.0 77.0 L 134.0 77.0 L 134.0 171.2 L 134.2 172.1 L 134.5 173.0 L 134.9 173.4 L 135.8 173.7 L 136.7 173.9 L 138.0 174.0 L 176.0 174.0 L 182.0 149.0 L 184.0 149.0 L 182.0 174.0 L 185.6 176.4 L 188.0 180.0 L 185.6 183.6 L 182.0 186.0 L 138.0 186.0 L 135.4 185.8 L 132.9 185.4 L 130.5 184.6 L 128.2 183.3 L 126.2 181.7 L 124.6 179.7 L 123.3 177.4 L 122.5 175.0 L 122.1 172.5 L 122.0 170.0 L 122.0 77.0 L 98.0 77.0 L 98.0 137.0 L 86.0 143.0 L 86.0 67.0 L 98.0 73.0 L 122.0 73.0 L 122.0 49.86176471710205 L 106.1 52.2 L 95.8 53.6 L 85.5 54.8 L 75.1 55.8 L 74.8 54.1 L 84.8 51.1 L 94.8 48.3 L 104.8 45.7 L 114.9 43.3 L 122.0 41.525 L 122.0 16.0 L 134.0 18.0 L 137.0 20.0 L 134.0 21.8 L 134.0 38.706999969482425 L 134.9 38.5 L 144.9 36.1 L 164.9 31.5 L 173.83270273208618 29.51495494842529 L 173.8 29.4 L 173.91671085357666 29.496286487579347 L 174.8 29.3 L 175.01703643798828 30.40405511856079 L 185.8 39.3 L 186.2 42.3 L 181.68583145141602 40.10391798019409 L 177.1 41.0 L 167.1 42.7 L 157.0 44.3 L 146.8 46.0 L 136.7 47.6 L 134.0 48.0235294342041 L 134.0 73.0 L 162.0 73.0 L 168.0 68.0 L 179.0 77.0 L 174.0 81.0 L 174.0 130.0 L 173.8 132.5 L 173.4 135.0 L 172.6 137.4 L 171.3 139.7 L 169.7 141.7 L 167.7 143.3 L 165.4 144.6 L 163.0 145.4 L 160.5 145.8 L 158.0 146.0 L 158.0 140.0 L 142.0 137.0 Z M 32.9 69.0 L 32.9 110.0 L 58.6 110.0 L 58.6 69.0 Z M 32.9 26.0 L 32.9 65.0 L 58.6 65.0 L 58.6 26.0 Z " />
</g>
</svg>
