<svg xmlns="http://www.w3.org/2000/svg" xmlns:xlink="http://www.w3.org/1999/xlink" version="1.1" baseProfile="full" viewBox="0 0 200 200" width="200" height="200">
<g fill="black">
<path d="M 31.6 22.0 L 52.3 22.0 L 58.3 17.0 L 69.3 26.0 L 64.3 30.0 L 64.3 171.0 L 64.2 173.5 L 63.7 176.0 L 62.9 178.4 L 61.7 180.7 L 60.1 182.7 L 58.0 184.3 L 55.8 185.6 L 53.4 186.4 L 50.9 186.8 L 48.3 187.0 L 48.3 181.0 L 32.3 178.0 L 32.3 175.0 L 48.3 175.0 L 49.6 174.9 L 50.5 174.7 L 51.4 174.4 L 51.6 174.2 L 51.7 174.0 L 51.9 173.7 L 52.1 173.1 L 52.3 172.2 L 52.3 114.0 L 31.6 114.0 L 31.6 118.0 L 31.1 128.7 L 30.4 138.6 L 29.4 147.8 L 28.1 156.2 L 26.5 163.7 L 24.5 170.5 L 22.3 176.4 L 19.6 181.5 L 16.6 185.6 L 13.1 188.5 L 11.8 187.4 L 13.3 183.5 L 14.7 179.2 L 16.0 174.3 L 17.2 168.6 L 18.1 162.2 L 18.9 154.9 L 19.4 146.9 L 19.7 138.1 L 19.7 128.4 L 19.6 118.0 L 19.6 16.0 Z M 148.2 182.9 L 136.1 181.8 L 126.1 179.9 L 117.9 177.2 L 111.3 173.6 L 106.1 169.3 L 102.3 164.3 L 99.6 158.8 L 98.80285711288452 156.09857139587402 L 98.50500001907349 156.24750003814697 L 97.9 157.1 L 95.9 160.3 L 93.8 163.4 L 91.7 166.3 L 87.5 171.9 L 85.4 174.5 L 83.2 177.1 L 81.90091905593872 178.64652500152587 L 82.5 182.9 L 79.0 182.0 L 69.5 174.3 L 71.0 173.0 L 73.6 171.3 L 76.1 169.4 L 78.7 167.6 L 84.1 163.6 L 86.9 161.5 L 90.2 159.11034479141236 L 90.2 108.9 L 73.0 108.9 L 73.0 104.9 L 90.2 104.9 L 96.2 99.9 L 107.2 108.9 L 102.2 112.9 L 102.2 152.6449999809265 L 106.1 146.6 L 110.0 140.2 L 113.8 133.7 L 117.5 126.9 L 121.0 119.8 L 124.3 112.5 L 127.4 104.8 L 130.4 96.8 L 133.1 88.4 L 134.51176471710204 83.6 L 103.2 83.6 L 103.2 79.6 L 136.3 79.6 L 136.3 12.2 L 148.3 14.2 L 151.3 16.2 L 148.3 18.0 L 148.3 79.6 L 159.4 79.6 L 169.4 69.6 L 181.4 79.6 L 181.4 83.6 L 148.3 83.6 L 148.3 87.42972974777221 L 149.4 89.6 L 152.8 96.6 L 156.3 103.4 L 159.9 110.0 L 163.6 116.2 L 167.4 122.1 L 171.3 127.8 L 175.4 133.1 L 179.7 138.2 L 184.1 142.9 L 184.9 143.8 L 174.2 151.6 L 169.9 145.9 L 165.9 140.0 L 162.1 133.8 L 158.6 127.3 L 155.3 120.6 L 152.4 113.6 L 149.7 106.3 L 148.3 101.925 L 148.3 160.9 L 136.3 166.9 L 136.3 109.37749996185303 L 132.6 116.5 L 128.4 123.9 L 124.0 130.8 L 119.3 137.3 L 114.3 143.4 L 109.0 149.0 L 103.4 154.0 L 102.2 152.89230766296387 L 102.2 154.4 L 101.64545450210571 154.67727270126343 L 103.2 156.6 L 107.0 160.6 L 110.9 163.9 L 115.5 166.4 L 121.1 168.4 L 128.2 169.9 L 137.2 170.9 L 148.5 171.1 L 162.3 170.7 L 179.0 169.6 L 190.0 168.9 L 179.8 182.8 L 162.7 183.2 Z M 31.6 69.0 L 31.6 110.0 L 52.3 110.0 L 52.3 69.0 Z M 86.6 76.4 L 84.2 71.6 L 82.8 69.3 L 81.4 67.1 L 79.8 64.9 L 78.3 62.7 L 76.6 60.5 L 74.6 58.7 L 75.6 57.2 L 78.1 58.4 L 80.8 59.5 L 83.4 60.9 L 85.9 62.5 L 88.3 64.2 L 90.7 66.2 L 93.0 68.3 L 95.1 70.5 L 97.3 73.0 L 99.3 75.6 L 99.8 80.1 L 97.0 83.7 L 92.5 84.3 L 88.9 81.5 L 87.8 78.9 Z M 176.3 28.3 L 178.6 31.2 L 174.80260276794434 31.99945201873779 L 174.6 32.5 L 172.7 36.7 L 170.8 41.0 L 166.6 49.6 L 164.3 54.0 L 161.9 58.4 L 159.4 62.7 L 156.6 67.1 L 153.6 71.4 L 152.0 70.7 L 153.2 65.6 L 154.6 60.6 L 156.0 55.8 L 157.4 51.1 L 158.8 46.5 L 160.2 42.0 L 161.4 37.5 L 162.7 33.1 L 163.8 28.8 L 164.71335945129394 25.527128791809083 L 164.6 25.5 L 165.5 23.0 Z M 118.9 52.1 L 118.1 48.2 L 117.1 44.3 L 116.1 40.5 L 115.1 36.6 L 114.0 32.8 L 112.9 28.9 L 111.6 25.0 L 113.1 24.2 L 115.7 27.4 L 118.3 30.7 L 120.6 34.2 L 122.7 37.8 L 124.7 41.5 L 126.5 45.3 L 128.2 49.3 L 129.8 53.3 L 131.2 57.4 L 132.6 61.6 L 131.7 66.1 L 127.9 68.7 L 123.5 67.8 L 120.8 64.1 L 120.3 60.1 Z M 31.6 26.0 L 31.6 65.0 L 52.3 65.0 L 52.3 26.0 Z M 90.7 36.6 L 89.5 34.3 L 88.2 31.9 L 86.7 29.7 L 85.2 27.4 L 83.6 25.0 L 81.6 23.1 L 82.7 21.6 L 85.2 23.1 L 87.9 24.3 L 90.5 25.9 L 92.9 27.6 L 95.2 29.5 L 97.5 31.5 L 99.6 33.7 L 101.7 36.0 L 103.6 38.5 L 105.4 41.2 L 105.7 45.7 L 102.7 49.2 L 98.1 49.4 L 94.7 46.4 L 92.9 41.4 Z " />
</g>
</svg>
