<svg xmlns="http://www.w3.org/2000/svg" xmlns:xlink="http://www.w3.org/1999/xlink" version="1.1" baseProfile="full" viewBox="0 0 200 200" width="200" height="200">
<g fill="black">
<path d="M 135.7 183.9 L 135.7 155.0 L 122.2 155.0 L 122.2 177.9 L 110.2 183.9 L 110.2 155.0 L 96.0 155.0 L 96.0 181.8 L 84.0 187.8 L 84.0 117.8 L 96.0 123.8 L 161.9 123.8 L 167.9 118.8 L 178.9 127.8 L 173.9 131.8 L 173.9 173.6 L 173.7 176.2 L 173.3 178.7 L 172.5 181.1 L 171.3 183.4 L 169.6 185.4 L 167.6 187.0 L 165.3 188.2 L 162.9 189.0 L 160.4 189.5 L 157.9 189.6 L 157.9 183.6 L 142.19090909957885 180.65454549789428 Z M 32.4 22.0 L 54.4 22.0 L 60.4 17.0 L 71.4 26.0 L 66.4 30.0 L 66.4 171.0 L 66.3 173.5 L 65.8 176.0 L 65.0 178.4 L 63.8 180.7 L 62.1 182.7 L 60.1 184.3 L 57.9 185.6 L 55.4 186.4 L 53.0 186.8 L 50.4 187.0 L 50.4 181.0 L 34.4 178.0 L 34.4 175.0 L 50.4 175.0 L 51.6 174.9 L 52.5 174.7 L 53.1 174.5 L 53.5 174.4 L 53.6 174.2 L 53.8 174.0 L 54.0 173.7 L 54.2 173.1 L 54.3 172.2 L 54.4 171.0 L 54.4 114.0 L 32.4 114.0 L 32.4 118.0 L 31.9 128.7 L 31.2 138.7 L 30.2 147.8 L 28.8 156.2 L 27.2 163.8 L 25.2 170.5 L 22.8 176.4 L 20.1 181.5 L 17.0 185.6 L 13.5 188.6 L 12.1 187.3 L 13.8 183.5 L 15.3 179.2 L 16.6 174.3 L 17.8 168.6 L 18.8 162.1 L 19.6 154.9 L 20.2 146.9 L 20.5 138.0 L 20.6 128.4 L 20.4 118.0 L 20.4 16.0 Z M 96.0 127.8 L 96.0 151.0 L 110.2 151.0 L 110.2 127.8 Z M 122.2 127.8 L 122.2 151.0 L 135.7 151.0 L 135.7 127.8 Z M 147.7 127.8 L 147.7 151.0 L 161.9 151.0 L 161.9 127.8 Z M 166.1 110.1 L 160.4 105.8 L 154.9 101.1 L 149.6 96.0 L 144.5 90.5 L 139.7 84.6 L 135.2 78.3 L 131.1 71.5 L 130.87787408828734 71.06175146102905 L 130.1 72.3 L 124.8 79.7 L 119.1 86.6 L 113.2 93.1 L 106.9 99.0 L 100.3 104.5 L 93.4 109.5 L 86.1 114.0 L 78.5 117.9 L 70.6 121.0 L 69.8 119.4 L 76.6 114.6 L 83.1 109.6 L 89.4 104.3 L 95.3 98.8 L 100.9 93.0 L 106.3 86.8 L 111.3 80.3 L 116.0 73.5 L 120.4 66.3 L 124.5 58.7 L 124.53400812149047 58.71878538131714 L 125.1 57.7 L 135.0 64.5 L 136.7 67.7 L 133.28302211761473 67.81782684326171 L 134.5 69.1 L 139.8 74.6 L 145.1 79.8 L 150.4 84.6 L 155.8 89.1 L 161.3 93.1 L 166.8 96.8 L 172.4 100.0 L 178.1 102.9 L 183.8 105.4 L 189.7 108.1 L 178.3 117.4 L 172.1 113.9 Z M 158.7 106.5 L 158.7 110.5 L 99.3 110.5 L 99.3 106.5 L 136.7 106.5 L 146.7 96.5 Z M 32.4 69.0 L 32.4 110.0 L 54.4 110.0 L 54.4 69.0 Z M 93.6 68.7 L 81.6 74.7 L 81.6 23.5 L 93.6 25.5 L 96.6 27.5 L 93.6 29.3 L 93.6 52.7 L 123.0 52.7 L 123.0 12.6 L 135.0 14.6 L 138.0 16.6 L 135.0 18.4 L 135.0 52.7 L 163.6 52.7 L 163.6 23.5 L 175.6 25.5 L 178.6 27.5 L 175.6 29.3 L 175.6 62.7 L 163.6 68.7 L 163.6 56.7 L 93.6 56.7 Z M 32.4 26.0 L 32.4 65.0 L 54.4 65.0 L 54.4 26.0 Z M 160.0 177.4 L 160.6 177.2 L 160.9 177.0 L 161.1 176.9 L 161.3 176.7 L 161.6 175.8 L 161.8 174.9 L 161.9 173.6 L 161.9 155.0 L 147.7 155.0 L 147.7 177.6 L 159.1 177.6 Z " />
</g>
</svg>
