<svg xmlns="http://www.w3.org/2000/svg" xmlns:xlink="http://www.w3.org/1999/xlink" version="1.1" baseProfile="full" viewBox="0 0 200 200" width="200" height="200">
<g fill="black">
<path d="M 31.7 22.0 L 55.7 22.0 L 61.7 17.0 L 72.7 26.0 L 67.7 30.0 L 67.7 171.0 L 67.6 173.5 L 67.1 176.0 L 66.3 178.4 L 65.1 180.7 L 63.5 182.7 L 61.4 184.3 L 59.2 185.6 L 56.8 186.4 L 54.3 186.8 L 51.7 187.0 L 51.7 181.0 L 35.7 178.0 L 35.7 175.0 L 51.7 175.0 L 52.9 174.9 L 53.9 174.7 L 54.4 174.5 L 54.8 174.4 L 55.0 174.2 L 55.1 174.0 L 55.3 173.7 L 55.5 173.1 L 55.6 172.2 L 55.7 171.0 L 55.7 114.0 L 31.7 114.0 L 31.7 118.0 L 31.3 128.7 L 30.5 138.7 L 29.4 147.9 L 28.0 156.2 L 26.3 163.8 L 24.2 170.6 L 21.7 176.5 L 18.9 181.6 L 15.6 185.6 L 12.0 188.6 L 10.7 187.3 L 12.5 183.5 L 14.1 179.1 L 15.6 174.2 L 16.9 168.5 L 18.0 162.1 L 18.8 154.9 L 19.4 146.8 L 19.8 138.0 L 19.9 128.4 L 19.7 118.0 L 19.7 16.0 Z M 118.2 62.0 L 120.4 64.9 L 116.53766403198242 65.6325119972229 L 115.5 67.9 L 112.5 73.8 L 109.1 79.5 L 105.4 85.2 L 101.4 90.8 L 98.74117650985718 94.1235294342041 L 104.0 95.0 L 107.0 97.0 L 104.0 98.8 L 104.0 182.0 L 92.0 188.0 L 92.0 101.8039216041565 L 87.1 106.8 L 81.6 111.8 L 75.6 116.6 L 74.3 115.3 L 78.8 109.2 L 83.1 103.3 L 87.1 97.5 L 90.9 91.8 L 94.3 86.1 L 97.5 80.4 L 100.3 74.7 L 102.9 69.1 L 105.1 63.4 L 106.65551805496216 58.815315341949464 L 106.6 58.8 L 107.5 56.4 Z M 181.0 70.0 L 181.0 74.0 L 153.559375 74.0 L 152.2 76.9 L 150.7 80.0 L 149.1 83.0 L 145.7 88.6 L 143.8 91.2 L 141.9 93.7 L 139.8 96.0 L 137.89090909957886 98.0 L 165.0 98.0 L 171.0 93.0 L 182.0 102.0 L 177.0 106.0 L 177.0 179.0 L 165.0 185.0 L 165.0 175.0 L 131.0 175.0 L 131.0 182.0 L 119.0 188.0 L 119.0 92.0 L 131.0 98.0 L 134.86666669845582 98.0 L 135.4 96.8 L 136.2 93.9 L 137.1 91.1 L 139.5 82.4 L 140.3 79.4 L 141.0 76.4 L 141.46451616287231 74.0 L 116.0 74.0 L 116.0 70.0 L 159.0 70.0 L 169.0 60.0 Z M 131.0 138.0 L 131.0 171.0 L 165.0 171.0 L 165.0 138.0 Z M 131.0 102.0 L 131.0 134.0 L 165.0 134.0 L 165.0 102.0 Z M 31.7 69.0 L 31.7 110.0 L 55.7 110.0 L 55.7 69.0 Z M 91.1 44.1 L 91.3 48.2 L 91.3 52.3 L 90.9 56.2 L 90.3 60.0 L 89.3 63.6 L 88.1 67.2 L 86.6 70.6 L 82.9 73.2 L 78.4 72.5 L 75.8 68.7 L 76.5 64.2 L 78.1 62.1 L 79.6 59.6 L 81.1 57.0 L 82.3 54.1 L 83.5 50.9 L 84.5 47.4 L 85.4 43.7 L 86.1 39.8 L 86.8 35.5 L 87.1 31.0 L 88.9 30.9 L 89.8 35.4 L 90.33181819915771 38.0 L 124.0 38.0 L 124.0 13.0 L 136.0 15.0 L 139.0 17.0 L 136.0 18.8 L 136.0 38.0 L 170.0 38.0 L 176.0 33.0 L 187.0 42.0 L 182.0 45.0 L 179.15145635604858 46.18689317703247 L 178.9 46.6 L 177.4 48.9 L 175.9 51.1 L 174.2 53.2 L 170.6 57.2 L 168.6 59.0 L 166.5 60.6 L 164.7 62.5 L 163.2 61.4 L 164.5 59.2 L 165.4 56.8 L 167.0 52.0 L 168.4 47.4 L 168.9 45.0 L 169.55217390060426 42.0 L 90.90465116500854 42.0 Z M 31.7 26.0 L 31.7 65.0 L 55.7 65.0 L 55.7 26.0 Z " />
</g>
</svg>
