<svg xmlns="http://www.w3.org/2000/svg" xmlns:xlink="http://www.w3.org/1999/xlink" version="1.1" baseProfile="full" viewBox="0 0 200 200" width="200" height="200">
<g fill="black">
<path d="M 32.4 22.0 L 58.9 22.0 L 64.9 17.0 L 75.9 26.0 L 70.9 30.0 L 70.9 171.0 L 70.7 173.5 L 70.3 176.0 L 69.5 178.4 L 68.3 180.7 L 66.6 182.7 L 64.6 184.3 L 62.3 185.6 L 59.9 186.4 L 57.4 186.8 L 54.9 187.0 L 54.9 181.0 L 38.9 178.0 L 38.9 175.0 L 54.9 175.0 L 56.1 174.9 L 57.0 174.7 L 57.9 174.4 L 58.3 174.0 L 58.6 173.1 L 58.8 172.2 L 58.9 171.0 L 58.9 114.0 L 32.4 114.0 L 32.4 118.0 L 31.9 128.7 L 31.1 138.7 L 30.0 147.9 L 28.5 156.3 L 26.7 163.9 L 24.5 170.6 L 21.9 176.6 L 18.9 181.6 L 15.4 185.7 L 11.6 188.6 L 10.3 187.3 L 12.4 183.4 L 14.1 179.1 L 15.8 174.1 L 17.2 168.5 L 18.4 162.0 L 19.3 154.8 L 20.0 146.8 L 20.4 138.0 L 20.5 128.4 L 20.4 118.0 L 20.4 16.0 Z M 96.7 36.2 L 129.0 36.2 L 129.0 13.7 L 141.0 15.7 L 144.0 17.7 L 141.0 19.5 L 141.0 36.2 L 164.2 36.2 L 174.2 26.2 L 186.2 36.2 L 186.2 40.2 L 96.7 40.2 L 96.7 101.9 L 96.3 113.3 L 95.5 124.1 L 94.4 134.3 L 92.9 143.9 L 91.1 152.8 L 89.0 161.2 L 86.4 168.8 L 83.5 175.8 L 80.1 182.1 L 76.3 187.6 L 74.9 186.8 L 77.0 180.6 L 78.9 174.1 L 80.7 167.1 L 82.2 159.6 L 83.5 151.4 L 84.5 142.7 L 85.2 133.4 L 85.7 123.5 L 85.8 113.0 L 85.7 101.9 L 85.7 30.7 Z M 165.2 177.4 L 165.2 181.4 L 102.5 181.4 L 102.5 177.4 L 143.2 177.4 L 153.2 167.4 Z M 163.3 164.5 L 156.9 156.3 L 151.6 146.7 L 147.3 136.0 L 144.0 123.9 L 141.5 110.6 L 141.45310344696045 110.2 L 117.6 110.2 L 117.6 151.62608699798585 L 119.4 151.0 L 124.3 149.2 L 129.3 147.3 L 134.5 145.3 L 139.9 143.3 L 145.6 141.4 L 146.5 143.0 L 141.7 146.7 L 137.0 150.1 L 132.2 153.1 L 127.6 156.0 L 123.0 158.7 L 118.5 161.1 L 114.2 163.4 L 109.9 165.6 L 105.8 167.5 L 105.60675573348999 167.58483896255493 L 104.6 171.5 L 101.7 169.3 L 95.9 158.7 L 97.7 158.0 L 101.8 156.9 L 105.9 155.6 L 106.6 155.37727270126342 L 106.6 64.3 L 116.50833330154418 69.2541666984558 L 117.5 68.9 L 123.0 67.0 L 128.5 65.0 L 133.8 63.1 L 139.1 61.0 L 144.3 58.9 L 149.4 56.6 L 154.5 54.2 L 159.4 51.7 L 163.4351222038269 49.558914756774904 L 163.4 49.5 L 163.4528715133667 49.549496746063234 L 164.3 49.1 L 165.42798833847047 51.39854230880737 L 172.8 58.3 L 172.9 61.6 L 169.24484128952025 60.042063522338864 L 164.1 62.1 L 158.6 64.1 L 153.0 66.0 L 150.5677664756775 66.69492387771606 L 150.8 79.7 L 151.7 95.0 L 152.98920860290528 106.2 L 163.9 106.2 L 173.9 96.2 L 185.9 106.2 L 185.9 110.2 L 153.55161294937133 110.2 L 155.7 121.3 L 158.7 132.2 L 162.4 141.6 L 166.9 149.7 L 172.1 156.3 L 177.39031219482422 161.14198064804077 L 182.2 140.3 L 184.2 140.3 L 182.350159740448 164.3479232788086 L 184.9 165.9 L 187.8 169.4 L 187.6 173.9 L 184.1 176.9 L 179.5 176.6 L 170.8 171.3 Z M 32.4 69.0 L 32.4 110.0 L 58.9 110.0 L 58.9 69.0 Z M 135.9 70.4 L 130.1 71.4 L 124.2 72.2 L 118.2 72.6 L 117.6 72.61000003814698 L 117.6 106.2 L 140.98413791656495 106.2 L 139.8 96.1 L 138.8 80.2 L 138.61948776245117 69.79045963287354 Z M 32.4 26.0 L 32.4 65.0 L 58.9 65.0 L 58.9 26.0 Z " />
</g>
</svg>
