<svg xmlns="http://www.w3.org/2000/svg" xmlns:xlink="http://www.w3.org/1999/xlink" version="1.1" baseProfile="full" viewBox="0 0 200 200" width="200" height="200">
<g fill="black">
<path d="M 32.9 22.0 L 57.1 22.0 L 63.1 17.0 L 74.1 26.0 L 69.1 30.0 L 69.1 171.0 L 69.0 173.5 L 68.5 176.0 L 67.7 178.4 L 66.5 180.7 L 64.9 182.7 L 62.9 184.3 L 60.6 185.6 L 58.2 186.4 L 55.7 186.8 L 53.1 187.0 L 53.1 181.0 L 37.1 178.0 L 37.1 175.0 L 53.1 175.0 L 54.4 174.9 L 55.3 174.7 L 56.2 174.4 L 56.4 174.2 L 56.5 174.0 L 56.7 173.7 L 56.9 173.1 L 57.1 172.2 L 57.1 114.0 L 32.9 114.0 L 32.9 118.0 L 32.4 128.7 L 31.7 138.7 L 30.6 147.9 L 29.2 156.2 L 27.4 163.8 L 25.3 170.6 L 22.8 176.5 L 20.0 181.6 L 16.7 185.6 L 13.0 188.6 L 11.7 187.3 L 13.6 183.5 L 15.2 179.1 L 16.7 174.2 L 18.0 168.5 L 19.1 162.1 L 20.0 154.9 L 20.6 146.8 L 20.9 138.0 L 21.0 128.4 L 20.9 118.0 L 20.9 16.0 Z M 117.3 181.8 L 114.8 181.4 L 112.4 180.6 L 110.1 179.3 L 108.1 177.7 L 106.5 175.7 L 105.2 173.4 L 104.4 171.0 L 104.0 168.5 L 103.9 166.0 L 103.9 124.0 L 115.9 126.0 L 118.9 128.0 L 115.9 129.8 L 115.9 167.2 L 116.1 168.1 L 116.4 169.0 L 116.8 169.4 L 117.7 169.7 L 118.6 169.9 L 119.9 170.0 L 156.5 170.0 L 162.5 145.0 L 164.5 145.0 L 162.5 170.0 L 166.1 172.4 L 168.5 176.0 L 166.1 179.6 L 162.5 182.0 L 119.9 182.0 Z M 76.5 174.1 L 74.8 169.8 L 76.5 165.6 L 78.3 164.1 L 80.0 162.0 L 81.7 159.3 L 83.3 156.1 L 84.7 152.2 L 86.0 147.9 L 87.2 142.9 L 88.3 137.5 L 89.3 131.5 L 90.1 125.0 L 91.9 124.9 L 92.8 131.5 L 93.4 137.8 L 93.5 143.6 L 93.3 149.0 L 92.8 154.1 L 92.0 158.8 L 90.8 163.1 L 89.3 167.1 L 87.4 170.8 L 85.0 174.1 L 80.8 175.8 Z M 175.7 157.0 L 174.8 153.1 L 173.7 149.2 L 172.4 145.5 L 170.9 141.8 L 169.3 138.1 L 167.5 134.5 L 165.5 130.9 L 163.2 127.3 L 164.5 126.0 L 168.0 128.7 L 171.3 131.6 L 174.3 134.8 L 177.1 138.2 L 179.6 141.8 L 181.9 145.7 L 184.0 149.7 L 185.8 153.9 L 187.4 158.3 L 188.7 162.9 L 187.6 167.4 L 183.8 169.9 L 179.4 168.9 L 176.9 165.1 L 176.4 161.0 Z M 135.2 141.8 L 134.2 138.8 L 133.1 135.9 L 131.8 133.1 L 130.5 130.4 L 129.0 127.7 L 125.8 122.5 L 123.7 120.3 L 124.8 118.8 L 127.6 120.5 L 130.4 122.1 L 133.1 124.1 L 135.7 126.3 L 138.1 128.7 L 140.4 131.4 L 142.6 134.3 L 144.6 137.4 L 146.5 140.6 L 148.3 144.1 L 148.0 148.7 L 144.7 151.8 L 140.1 151.5 L 137.0 148.1 L 136.2 144.9 Z M 138.0 15.0 L 141.0 17.0 L 138.0 18.8 L 138.0 42.7 L 163.7 42.7 L 169.7 37.7 L 180.7 46.7 L 175.7 50.7 L 175.7 94.2 L 163.7 100.2 L 163.7 88.2 L 138.0 88.2 L 138.0 113.0 L 126.0 119.0 L 126.0 88.2 L 100.3 88.2 L 100.3 100.2 L 88.3 106.2 L 88.3 36.7 L 100.3 42.7 L 126.0 42.7 L 126.0 13.0 Z M 32.9 69.0 L 32.9 110.0 L 57.1 110.0 L 57.1 69.0 Z M 100.3 46.7 L 100.3 84.2 L 126.0 84.2 L 126.0 46.7 Z M 138.0 46.7 L 138.0 84.2 L 163.7 84.2 L 163.7 46.7 Z M 32.9 26.0 L 32.9 65.0 L 57.1 65.0 L 57.1 26.0 Z " />
</g>
</svg>
