<svg xmlns="http://www.w3.org/2000/svg" xmlns:xlink="http://www.w3.org/1999/xlink" version="1.1" baseProfile="full" viewBox="0 0 200 200" width="200" height="200">
<g fill="black">
<path d="M 122.0 176.8 L 142.0 176.8 L 143.2 176.7 L 144.1 176.6 L 144.7 176.4 L 145.0 176.2 L 145.2 176.1 L 145.4 175.9 L 145.5 175.5 L 145.7 175.0 L 145.9 174.0 L 146.0 172.8 L 146.0 160.7 L 54.0 160.7 L 54.0 182.7 L 42.0 188.7 L 42.0 112.8 L 54.0 118.8 L 146.0 118.8 L 152.0 113.8 L 163.0 122.8 L 158.0 126.8 L 158.0 172.8 L 157.8 175.4 L 157.4 177.9 L 156.6 180.3 L 155.3 182.5 L 153.7 184.6 L 151.7 186.2 L 149.4 187.4 L 147.0 188.2 L 144.5 188.7 L 142.0 188.8 L 142.0 182.8 L 122.0 179.8 Z M 54.0 141.7 L 54.0 156.7 L 146.0 156.7 L 146.0 141.7 Z M 54.0 122.8 L 54.0 137.7 L 146.0 137.7 L 146.0 122.8 Z M 177.0 113.3 L 162.0 112.6 L 149.2 111.2 L 138.5 109.2 L 129.6 106.6 L 122.3 103.3 L 116.4 99.4 L 112.0 95.1 L 109.80804023742675 91.81206026077271 L 109.4 92.6 L 105.9 97.5 L 101.7 101.8 L 96.9 105.5 L 91.5 108.5 L 85.6 110.6 L 79.2 112.0 L 78.7 110.3 L 83.69204769134521 107.43419485092163 L 79.9 106.4 L 78.6 104.9 L 77.0 103.4 L 75.1 101.7 L 73.0 100.1 L 70.7 98.4 L 68.1 96.6 L 65.3 94.7 L 62.3 92.8 L 59.1 90.7 L 59.06644296646118 90.68370084762573 L 56.5 94.9 L 52.8 99.0 L 48.3 102.4 L 43.1 105.3 L 37.2 107.8 L 30.6 109.7 L 23.2 111.1 L 15.1 111.9 L 14.8 110.1 L 22.3 107.4 L 28.8 104.6 L 34.5 101.7 L 39.3 98.8 L 43.1 95.7 L 46.0 92.6 L 48.1 89.4 L 49.3 86.3 L 49.71818180084229 84.0 L 13.0 84.0 L 13.0 80.0 L 49.988235282897946 80.0 L 50.0 79.6 L 50.0 66.2 L 35.81538457870484 66.2 L 34.8 67.4 L 32.3 69.8 L 29.7 71.9 L 26.8 73.9 L 23.8 75.5 L 17.4 78.3 L 16.5 76.7 L 19.1 74.6 L 21.3 72.2 L 23.2 69.8 L 24.9 67.3 L 26.4 64.9 L 27.7 62.4 L 28.8 59.9 L 29.7 57.4 L 30.4 54.8 L 30.727913284301756 53.02926826477051 L 30.6 53.0 L 31.26354513168335 50.9264214515686 L 30.8 50.8 L 28.6 49.8 L 26.6 48.3 L 24.9 46.5 L 23.6 44.4 L 22.7 42.1 L 22.1 39.7 L 21.8 37.1 L 21.8 12.8 L 33.8 14.8 L 36.8 16.8 L 33.8 18.6 L 33.8 28.32758617401123 L 39.3 27.0 L 45.0 25.8 L 56.2 23.4 L 61.8 22.1 L 67.3 20.8 L 72.7 19.5 L 78.0 18.2 L 82.41034851074218 17.035002326965333 L 82.4 17.0 L 82.43474168777466 17.028558826446535 L 83.3 16.8 L 83.54360780715942 17.940084362030028 L 94.2 26.7 L 94.5 29.7 L 90.08293371200561 27.582228469848634 L 85.8 28.5 L 74.6 30.1 L 63.2 31.3 L 57.4 31.8 L 51.6 32.1 L 45.8 32.3 L 39.9 32.4 L 33.9 32.2 L 33.8 32.19166669845581 L 33.8 37.1 L 33.7 38.4 L 33.7 39.3 L 33.8 40.0 L 33.9 40.5 L 34.0 40.9 L 34.2 41.3 L 34.6 41.7 L 35.4 42.1 L 36.4 42.4 L 37.8 42.6 L 83.2 42.6 L 87.7 29.6 L 89.7 29.6 L 87.7 42.6 L 90.4 44.4 L 92.2 47.1 L 90.4 49.8 L 87.7 51.6 L 35.4 51.6 L 33.36887159347534 51.43073930740356 L 42.4 55.7 L 44.7 58.5 L 40.45975608825684 59.467073154449466 L 39.0 61.9 L 38.79310340881348 62.2 L 74.81818180084228 62.2 L 83.0 53.2 L 93.0 62.2 L 93.0 66.2 L 62.0 66.2 L 62.0 79.6 L 61.93454542160034 80.0 L 77.81818180084228 80.0 L 86.0 71.0 L 96.0 80.0 L 96.0 84.0 L 61.28000001907348 84.0 L 61.1 85.1 L 60.03232879638672 88.18438358306885 L 60.1 88.2 L 63.9 88.9 L 67.5 89.7 L 70.8 90.6 L 74.0 91.5 L 77.0 92.5 L 79.8 93.5 L 82.5 94.6 L 84.9 95.7 L 87.3 96.9 L 89.5 100.9 L 88.68674697875977 103.88192768096924 L 88.8 103.8 L 92.8 100.3 L 96.2 96.6 L 99.0 92.5 L 101.2 88.2 L 102.9 83.5 L 104.1 78.4 L 104.8 72.8 L 104.9 66.8 L 104.93028011322022 66.80075702667236 L 105.0 64.5 L 116.9 67.1 L 119.9 69.2 L 116.44181175231934 71.1664207458496 L 116.1 74.2 L 114.6 80.9 L 112.67707653045655 85.99992742538453 L 113.5 86.9 L 117.0 89.9 L 121.1 92.5 L 126.2 94.8 L 132.0 96.6125 L 132.0 55.5 L 95.0 55.5 L 95.0 51.5 L 143.30909090042115 51.5 L 142.4 51.0 L 141.1 49.0 L 139.4 46.9 L 137.4 44.8 L 135.0 42.7 L 132.3 40.5 L 129.2 38.4 L 125.8 36.3 L 122.1 34.1 L 118.1 31.9 L 113.7 29.8 L 114.2 28.1 L 119.0 29.0 L 123.7 29.8 L 128.1 30.9 L 132.3 32.2 L 136.1 33.6 L 139.8 35.2 L 143.1 37.0 L 143.1409511566162 37.02509908676147 L 143.9 36.4 L 147.1 33.5 L 150.2 30.8 L 153.3 28.2 L 159.1 23.2 L 161.8 20.8 L 162.125 20.5 L 99.0 20.5 L 99.0 16.5 L 166.46521739959718 16.5 L 166.9 16.1 L 169.3 13.8 L 169.66932182312013 14.275565147399902 L 173.0 11.5 L 184.0 20.5 L 179.0 23.5 L 169.91428575515747 27.28571424484253 L 167.4 28.7 L 164.1 30.5 L 160.7 32.3 L 157.1 34.0 L 153.4 35.8 L 149.5 37.5 L 146.0355101585388 38.79918365478515 L 146.2 38.9 L 149.1 41.1 L 151.7 43.5 L 153.0 47.9 L 151.0199999809265 51.5 L 170.0 51.5 L 170.3081081390381 51.24324321746826 L 170.8 50.6 L 172.1 49.0 L 172.47218046188354 49.43984966278076 L 176.0 46.5 L 187.0 55.5 L 182.0 58.5 L 170.0 63.5 L 170.0 63.03636360168457 L 169.6 63.2 L 167.5 64.2 L 165.2 65.1 L 163.0 65.9 L 160.6 66.7 L 158.5 67.8 L 157.4 66.4 L 159.3 64.8 L 160.8 62.8 L 165.3 57.4 L 166.86470584869386 55.5 L 144.0 55.5 L 144.0 77.0 L 163.8181818008423 77.0 L 172.0 68.0 L 182.0 77.0 L 182.0 81.0 L 144.0 81.0 L 144.0 98.77777776718139 L 150.5 99.5 L 162.6 100.1 L 188.8 100.1 Z " />
</g>
</svg>
