<svg xmlns="http://www.w3.org/2000/svg" xmlns:xlink="http://www.w3.org/1999/xlink" version="1.1" baseProfile="full" viewBox="0 0 200 200" width="200" height="200">
<g fill="black">
<path d="M 89.2 154.3 L 108.7 154.3 L 114.7 149.3 L 125.7 158.3 L 120.7 162.3 L 120.7 180.3 L 108.7 186.3 L 108.7 180.3 L 89.2 180.3 L 89.2 183.3 L 77.2 189.3 L 77.2 148.3 Z M 176.8 141.7 L 176.4 139.8 L 175.8 137.9 L 175.302583026886 136.65645751953124 L 173.1 137.5 L 168.3 139.0 L 163.4 140.3 L 161.8 140.6840000152588 L 161.8 182.8 L 149.8 188.8 L 149.8 143.32549018859862 L 143.3 144.6 L 138.2 145.5 L 131.90654201507567 146.4682243347168 L 130.0 149.9 L 127.8 147.1 L 124.8 135.3 L 126.8 135.1 L 132.0 135.0 L 140.91740169525147 134.65029792785646 L 141.7 133.7 L 145.8 128.9 L 149.8 124.4 L 153.6 120.2 L 157.3 116.1 L 160.7 112.2 L 164.0 108.5 L 167.1 104.9 L 169.9 101.6 L 171.92750148773194 99.12194261550903 L 171.9 99.1 L 172.3545454978943 98.6 L 172.6 98.3 L 172.61460552215576 98.31393394470214 L 172.9 98.0 L 181.3 106.6 L 182.1 110.1 L 178.37530212402345 109.25050745010375 L 178.1 109.5 L 174.7 112.5 L 171.0 115.6 L 167.2 118.9 L 163.1 122.2 L 158.8 125.7 L 154.2 129.3 L 149.4 132.9 L 147.22933025360106 134.40277137756348 L 152.4 134.2 L 157.4 134.0 L 162.5 133.8 L 167.5 133.7 L 172.5 133.7 L 173.97579145431519 133.7590316772461 L 172.7 131.6 L 171.2 129.4 L 169.5 127.0 L 167.3 125.1 L 168.3 123.6 L 171.0 125.2 L 173.8 126.4 L 176.3 127.9 L 178.7 129.6 L 180.9 131.4 L 182.9 133.3 L 184.7 135.5 L 186.3 137.7 L 187.6 140.2 L 188.8 142.8 L 187.9 147.3 L 184.1 149.9 L 179.7 149.0 L 177.0 145.3 L 177.0 143.5 Z M 62.1 139.7 L 61.88609733581543 139.0226414680481 L 61.2 139.3 L 56.4 140.9 L 51.6 142.3 L 50.3 142.64489793777466 L 50.3 182.8 L 38.3 188.8 L 38.3 145.4666666984558 L 31.5 146.8 L 26.3 147.8 L 20.006542015075684 148.7682243347168 L 18.1 152.2 L 15.9 149.4 L 12.8 137.6 L 14.8 137.4 L 20.0 137.3 L 28.56290054321289 136.97065763473512 L 29.0 136.4 L 32.6 131.9 L 36.3 127.5 L 39.9 123.1 L 43.5 118.8 L 47.0 114.5 L 50.5 110.3 L 53.9 106.0 L 57.2 101.7 L 59.8960783958435 98.26862745285034 L 59.8 98.2 L 60.9 97.0 L 69.6 105.2 L 70.6 108.7 L 66.89285717010497 108.04962406158447 L 65.8 109.2 L 57.9 117.1 L 53.8 120.9 L 49.6 124.7 L 45.3 128.5 L 40.9 132.2 L 36.3 135.8 L 35.175497150421144 136.61347017288207 L 35.4 136.6 L 40.5 136.4 L 45.5 136.1 L 50.6 135.9 L 55.5 135.6 L 60.519999980926514 135.6 L 59.8 134.0 L 58.7 132.1 L 57.5 130.2 L 56.0 128.2 L 54.5 126.1 L 52.4 124.5 L 53.4 122.9 L 55.8 124.2 L 58.4 125.1 L 60.8 126.3 L 63.1 127.7 L 65.3 129.2 L 67.3 130.9 L 69.3 132.7 L 71.0 134.7 L 72.6 136.8 L 74.1 139.1 L 73.9 143.7 L 70.7 146.9 L 66.1 146.7 L 62.9 143.5 L 62.6 141.6 Z M 34.4 153.5 L 37.1 156.0 L 33.11497325897217 157.6235294342041 L 32.1 160.2 L 30.6 163.4 L 28.8 166.4 L 26.8 169.4 L 24.7 172.3 L 22.2 175.1 L 19.6 177.8 L 16.6 180.3 L 13.7 183.0 L 12.4 181.7 L 14.5 178.6 L 16.1 175.2 L 17.6 172.0 L 18.9 168.9 L 20.0 165.9 L 20.9 162.9 L 21.6 160.0 L 22.1 157.2 L 22.4 154.4 L 22.527886295318602 152.60959148406982 L 22.4 152.6 L 22.9 149.7 Z M 142.7 152.7 L 145.5 155.0 L 141.6027235031128 156.76480445861816 L 140.8 159.1 L 139.5 162.3 L 138.0 165.3 L 136.3 168.3 L 134.3 171.3 L 132.2 174.1 L 129.8 176.9 L 127.2 179.5 L 124.6 182.3 L 123.2 181.2 L 124.9 178.0 L 126.2 174.6 L 127.4 171.4 L 128.4 168.3 L 129.2 165.3 L 129.9 162.3 L 130.4 159.5 L 130.7 156.7 L 130.8 154.0 L 130.8 152.30333337783813 L 130.7 152.3 L 130.8 151.525 L 130.8 151.3 L 130.82859811782836 151.30336446762084 L 131.1 149.2 Z M 175.3 168.4 L 175.0 166.4 L 174.6 164.3 L 174.0 162.3 L 173.2 160.1 L 172.2 157.9 L 171.0 155.6 L 169.7 153.2 L 167.8 151.2 L 168.9 149.8 L 171.3 151.5 L 173.8 153.0 L 176.1 154.6 L 178.3 156.4 L 180.2 158.4 L 182.0 160.5 L 183.6 162.7 L 185.0 165.1 L 186.2 167.6 L 187.2 170.3 L 186.1 174.7 L 182.2 177.2 L 177.8 176.1 L 175.3 172.2 L 175.4 170.3 Z M 89.2 158.3 L 89.2 176.3 L 108.7 176.3 L 108.7 158.3 Z M 61.7 166.2 L 61.1 164.1 L 60.5 162.1 L 59.7 160.1 L 58.7 158.0 L 57.6 156.0 L 56.3 153.9 L 54.9 151.8 L 53.0 150.0 L 54.0 148.5 L 56.4 149.9 L 58.9 151.0 L 61.2 152.4 L 63.4 153.9 L 65.5 155.6 L 67.5 157.5 L 69.3 159.6 L 70.9 161.8 L 72.4 164.2 L 73.8 166.7 L 73.3 171.2 L 69.8 174.2 L 65.3 173.7 L 62.3 170.3 L 62.1 168.2 Z M 118.9 139.8 L 118.9 143.8 L 79.0 143.8 L 79.0 139.8 L 100.71818180084229 139.8 L 108.9 130.8 Z M 118.9 124.7 L 118.9 128.7 L 79.0 128.7 L 79.0 124.7 L 100.71818180084229 124.7 L 108.9 115.7 Z M 27.3 119.2 L 26.5 117.6 L 25.4 115.9 L 24.0 114.1 L 22.4 112.3 L 20.6 110.5 L 18.6 108.7 L 16.3 106.7 L 13.6 105.3 L 14.3 103.6 L 17.3 104.6 L 20.4 105.2 L 23.2 106.1 L 25.9 107.1 L 27.543396186828613 107.79528303146363 L 27.9 107.3 L 29.5 104.6 L 34.3 96.8 L 37.3 91.8 L 38.7 89.3 L 39.212615394592284 88.42123079299927 L 19.1 90.7 L 18.8 89.0 L 38.7 84.7 L 41.79010419845581 83.93986740112305 L 41.9 83.8 L 42.00315656661987 83.88745880126953 L 57.4 80.1 L 75.1 75.1 L 91.7 69.6 L 107.2 63.6 L 121.5 57.1 L 134.8 50.1 L 146.9 42.6 L 158.0 34.5 L 160.3529411315918 32.5 L 93.31162786483765 32.5 L 89.3 34.8 L 81.60769233703613 38.64615383148193 L 84.4 38.9 L 89.4 39.5 L 94.1 40.2 L 98.5 41.0 L 102.5 41.8 L 106.2 42.7 L 109.6 43.7 L 112.6 44.7 L 115.4 45.8 L 118.1 49.5 L 117.5 54.0 L 113.9 56.7 L 109.3 56.1 L 107.6 54.8 L 105.4 53.4 L 102.7 51.9 L 99.6 50.3 L 96.1 48.7 L 92.2 47.1 L 87.9 45.3 L 83.2 43.5 L 78.2 41.6 L 76.52496747970581 40.990897274017335 L 72.8 42.7 L 63.8 46.3 L 55.51162786483765 49.149127864837645 L 56.0 49.2 L 60.6 49.8 L 65.0 50.6 L 69.1 51.4 L 73.0 52.4 L 76.7 53.4 L 80.2 54.5 L 83.4 55.8 L 86.5 57.1 L 89.1 60.8 L 88.5 65.3 L 84.8 68.0 L 80.3 67.4 L 78.1 65.7 L 75.6 64.1 L 72.9 62.4 L 69.8 60.7 L 66.5 59.0 L 62.9 57.3 L 59.0 55.5 L 54.8 53.7 L 50.4 51.8 L 48.90174045562744 51.226198482513425 L 44.1 52.7 L 33.4 55.5 L 22.2 57.9 L 21.7 56.1 L 32.3 51.9 L 42.3 47.7 L 51.9 43.5 L 60.8 39.3 L 69.2 35.0 L 77.0 30.6 L 84.2 26.1 L 90.8 21.6 L 96.8 16.9 L 101.6125 12.7 L 102.4 12.0 L 110.1 21.3 L 110.5 24.8 L 106.92654533386231 23.630505752563476 L 103.7 26.0 L 99.86666669845582 28.5 L 165.05882349014283 28.5 L 168.0 26.0 L 168.4251883506775 26.47900972366333 L 172.0 23.5 L 183.0 32.5 L 178.0 35.5 L 171.88220863342286 38.0490797996521 L 164.8 43.6 L 152.7 51.6 L 139.6 58.9 L 125.4 65.6 L 110.2 71.5 L 94.0 76.8 L 76.8 81.4 L 58.6 85.3 L 46.05775184631348 87.32505044937133 L 51.1 91.6 L 52.3 95.0 L 48.09392595291138 94.56488885879517 L 46.8 95.8 L 44.6 97.8 L 40.0 101.8 L 37.6 103.7 L 35.1 105.6 L 32.5 107.4 L 29.91679391860962 109.02646312713622 L 30.9 109.6 L 33.1 111.0 L 35.2 112.7 L 37.2 114.5 L 38.9 116.5 L 39.4 121.0 L 36.6 124.6 L 32.1 125.1 L 28.4 122.3 L 28.0 120.8 Z M 140.2 118.3 L 139.0 116.6 L 137.6 114.9 L 136.1 113.1 L 132.5 109.7 L 130.4 107.9 L 128.2 106.1 L 125.7 104.7 L 126.4 103.0 L 129.2 103.9 L 132.1 104.4 L 134.9 105.1 L 137.6 106.0 L 138.5388889312744 106.36111106872559 L 140.0 104.9 L 142.1 102.1 L 144.1 99.5 L 146.0 97.0 L 147.7 94.7 L 149.3 92.5 L 150.7 90.4 L 152.0 88.4 L 153.1 86.5 L 153.52941179275513 85.68888893127442 L 153.4 85.6 L 153.87142858505248 85.04285717010498 L 154.0 84.8 L 154.04547681808472 84.83716382980347 L 154.5 84.3 L 163.3 92.4 L 164.4 95.8 L 159.8825831413269 95.17690801620483 L 159.6 95.4 L 157.5 97.0 L 155.3 98.5 L 152.9 100.2 L 150.4 101.8 L 147.7 103.5 L 144.8 105.2 L 141.7 106.8 L 140.89767446517945 107.33488368988037 L 142.7 108.2 L 145.1 109.5 L 147.3 110.9 L 149.5 112.5 L 151.5 114.2 L 152.7 118.6 L 150.6 122.6 L 146.2 123.9 L 142.1 121.7 L 141.2 120.0 Z M 125.2 108.4 L 125.2 112.4 L 76.2 112.4 L 76.2 108.4 L 107.01818180084229 108.4 L 115.2 99.4 Z M 118.9 93.4 L 118.9 97.4 L 79.0 97.4 L 79.0 93.4 L 100.71818180084229 93.4 L 108.9 84.4 Z " />
</g>
</svg>
