<svg xmlns="http://www.w3.org/2000/svg" xmlns:xlink="http://www.w3.org/1999/xlink" version="1.1" baseProfile="full" viewBox="0 0 200 200" width="200" height="200">
<g fill="black">
<path d="M 29.4 22.0 L 51.4 22.0 L 57.4 17.0 L 68.4 26.0 L 63.4 30.0 L 63.4 171.0 L 63.3 173.5 L 62.8 176.0 L 62.0 178.4 L 60.8 180.7 L 59.1 182.7 L 57.1 184.3 L 54.9 185.6 L 52.4 186.4 L 50.0 186.8 L 47.4 187.0 L 47.4 181.0 L 31.4 178.0 L 31.4 175.0 L 47.4 175.0 L 48.6 174.9 L 49.5 174.7 L 50.1 174.5 L 50.5 174.4 L 50.6 174.2 L 50.8 174.0 L 51.0 173.7 L 51.2 173.1 L 51.3 172.2 L 51.4 171.0 L 51.4 114.0 L 29.4 114.0 L 29.4 118.0 L 28.9 128.7 L 28.2 138.7 L 27.2 147.8 L 25.8 156.2 L 24.2 163.8 L 22.2 170.5 L 19.8 176.4 L 17.1 181.5 L 14.0 185.6 L 10.5 188.6 L 9.1 187.3 L 10.8 183.5 L 12.3 179.2 L 13.6 174.3 L 14.8 168.6 L 15.8 162.1 L 16.6 154.9 L 17.2 146.9 L 17.5 138.0 L 17.6 128.4 L 17.4 118.0 L 17.4 16.0 Z M 82.2 175.0 L 92.2 175.0 L 93.4 174.9 L 94.3 174.7 L 95.2 174.4 L 95.6 174.0 L 95.9 173.1 L 96.1 172.2 L 96.2 171.0 L 96.2 108.5 L 87.7 108.5 L 87.7 111.5 L 75.7 117.5 L 75.7 62.4 L 87.7 68.4 L 114.7 68.4 L 120.7 63.4 L 131.7 72.4 L 126.7 76.4 L 126.7 110.5 L 114.7 116.5 L 114.7 108.5 L 108.2 108.5 L 108.2 171.0 L 108.0 173.5 L 107.6 176.0 L 106.8 178.4 L 105.5 180.7 L 103.9 182.7 L 101.9 184.3 L 99.6 185.6 L 97.2 186.4 L 94.7 186.8 L 92.2 187.0 L 92.2 181.0 L 82.2 178.0 Z M 186.6 147.0 L 188.6 147.0 L 186.6 172.0 L 190.2 174.4 L 192.6 178.0 L 190.2 181.6 L 186.6 184.0 L 169.8 184.0 L 167.2 183.8 L 164.7 183.4 L 162.3 182.6 L 160.0 181.3 L 158.0 179.7 L 156.4 177.7 L 155.1 175.4 L 154.3 173.0 L 153.9 170.5 L 153.8 168.0 L 153.8 113.529629611969 L 153.4 115.9 L 149.9 130.5 L 145.5 143.8 L 140.4 155.7 L 134.4 166.3 L 127.5 175.4 L 119.8 182.8 L 111.3 188.7 L 110.3 187.2 L 117.1 180.1 L 123.3 172.1 L 128.7 162.9 L 133.4 152.6 L 137.5 141.1 L 140.8 128.3 L 143.5 114.1 L 145.4 98.7 L 146.6 81.9 L 146.9071823120117 68.0 L 130.0 68.0 L 130.0 64.0 L 146.9955801010132 64.0 L 147.0 63.8 L 147.0 13.0 L 159.0 15.0 L 162.0 17.0 L 159.0 18.8 L 159.0 64.0 L 167.5 64.0 L 177.5 54.0 L 189.5 64.0 L 189.5 68.0 L 158.76935482025146 68.0 L 157.9 82.7 L 157.3874285697937 87.59790477752685 L 165.8 89.0 L 168.8 91.0 L 165.8 92.8 L 165.8 169.2 L 166.0 170.1 L 166.3 171.0 L 166.7 171.4 L 167.6 171.7 L 168.5 171.9 L 169.8 172.0 L 180.6 172.0 Z M 91.5 132.2 L 94.0 134.8 L 90.28934173583984 136.05897331237793 L 89.9 137.3 L 88.2 142.3 L 86.3 147.1 L 84.2 151.8 L 82.0 156.3 L 79.5 160.7 L 76.9 165.0 L 74.0 169.0 L 70.8 172.9 L 67.4 176.5 L 65.9 175.4 L 67.7 170.9 L 69.4 166.4 L 71.1 162.0 L 72.7 157.6 L 74.2 153.1 L 75.6 148.5 L 76.8 143.9 L 77.9 139.2 L 78.9 134.5 L 79.61354579925538 130.61513948440552 L 79.5 130.6 L 80.2 127.8 Z M 119.1 147.5 L 118.7 145.1 L 117.5 140.1 L 116.8 137.6 L 115.0 132.4 L 114.1 129.7 L 112.6 127.3 L 114.0 126.2 L 116.1 128.3 L 118.3 130.2 L 120.4 132.3 L 122.4 134.4 L 124.2 136.7 L 125.9 139.1 L 127.4 141.6 L 128.8 144.2 L 130.1 146.9 L 131.3 149.6 L 130.5 154.1 L 126.9 156.9 L 122.3 156.1 L 119.6 152.4 L 119.4 150.0 Z M 29.4 69.0 L 29.4 110.0 L 51.4 110.0 L 51.4 69.0 Z M 87.7 72.4 L 87.7 104.5 L 114.7 104.5 L 114.7 72.4 Z M 29.4 26.0 L 29.4 65.0 L 51.4 65.0 L 51.4 26.0 Z M 170.0 41.5 L 169.0 36.5 L 168.4 34.2 L 167.6 32.0 L 166.7 29.9 L 165.7 27.9 L 164.6 25.8 L 163.0 24.3 L 164.0 22.8 L 166.1 23.9 L 168.5 25.1 L 170.7 26.6 L 172.8 28.4 L 174.8 30.5 L 176.6 32.9 L 178.3 35.5 L 179.8 38.4 L 181.1 41.5 L 182.3 44.8 L 181.4 49.3 L 177.6 51.9 L 173.2 51.0 L 170.6 47.2 L 170.3 44.3 Z M 70.5 45.0 L 96.2 45.0 L 96.2 13.0 L 108.2 15.0 L 111.2 17.0 L 108.2 18.8 L 108.2 45.0 L 115.61818180084228 45.0 L 123.8 36.0 L 133.8 45.0 L 133.8 49.0 L 70.5 49.0 Z " />
</g>
</svg>
