<svg xmlns="http://www.w3.org/2000/svg" xmlns:xlink="http://www.w3.org/1999/xlink" version="1.1" baseProfile="full" viewBox="0 0 200 200" width="200" height="200">
<g fill="black">
<path d="M 154.4 161.2 L 155.7 164.5 L 151.69381446838378 164.29278354644777 L 151.6 164.4 L 148.6 167.6 L 145.4 170.7 L 141.9 173.6 L 138.2 176.5 L 134.4 179.2 L 130.3 181.8 L 125.9 184.3 L 121.3 186.6 L 116.4 188.7 L 115.5 187.2 L 119.3 183.7 L 123.0 180.2 L 126.4 176.9 L 129.7 173.6 L 132.7 170.3 L 135.5 167.1 L 138.1 163.9 L 140.5 160.7 L 142.6 157.5 L 144.0071494102478 155.20412464141845 L 144.0 155.2 L 144.1199999809265 155.0199999809265 L 144.5 154.4 L 144.52286376953126 154.41570434570312 L 145.0 153.7 Z M 30.4 22.0 L 48.4 22.0 L 53.9 17.0 L 64.4 26.0 L 59.4 29.5 L 59.4 171.0 L 59.3 173.4 L 58.9 175.7 L 58.3 178.0 L 57.3 180.1 L 55.9 182.1 L 54.1 183.7 L 52.1 185.0 L 49.8 185.8 L 47.5 186.3 L 45.2 186.5 L 45.2 181.0 L 31.2 178.2 L 31.2 175.5 L 45.2 175.5 L 46.1 175.4 L 46.8 175.3 L 47.4 175.0 L 47.8 174.6 L 48.0 174.1 L 48.2 173.4 L 48.4 172.3 L 48.4 114.0 L 30.4 114.0 L 30.4 118.0 L 30.0 128.7 L 29.3 138.6 L 28.4 147.8 L 27.1 156.1 L 25.7 163.7 L 23.9 170.4 L 21.8 176.3 L 19.4 181.4 L 16.5 185.5 L 13.3 188.5 L 11.9 187.4 L 13.2 183.6 L 14.4 179.3 L 15.5 174.4 L 16.5 168.7 L 17.3 162.2 L 17.9 155.0 L 18.4 146.9 L 18.6 138.1 L 18.6 128.4 L 18.4 118.0 L 18.4 16.0 Z M 173.0 172.5 L 171.5 169.9 L 168.1 164.7 L 166.2 162.3 L 164.2 159.8 L 162.1 157.4 L 159.7 155.2 L 160.6 153.7 L 163.7 155.1 L 166.8 156.4 L 169.8 158.1 L 172.7 160.0 L 175.5 162.1 L 178.1 164.4 L 180.7 166.9 L 183.0 169.6 L 185.3 172.5 L 187.4 175.5 L 187.8 180.1 L 184.9 183.6 L 180.3 183.9 L 176.8 181.0 L 175.6 178.1 Z M 122.8 138.8 L 124.8 138.8 L 122.8 163.8 L 126.4 166.2 L 128.8 169.8 L 126.4 173.4 L 122.8 175.8 L 103.4 175.8 L 100.8 175.6 L 98.4 175.0 L 96.0 174.1 L 93.9 172.8 L 92.0 171.2 L 90.5 169.2 L 89.4 167.0 L 88.7 164.7 L 88.4 162.3 L 88.4 123.5 L 78.5 123.5 L 78.5 135.5 L 68.5 140.5 L 68.5 68.4 L 78.5 70.4 L 81.0 72.4 L 78.5 74.0666666984558 L 78.5 119.5 L 88.4 119.5 L 88.4 55.8125 L 83.1 57.8 L 77.2 59.8 L 71.3 61.7 L 65.1 63.5 L 64.3 61.9 L 69.7 58.3 L 75.0 54.9 L 80.3 51.8 L 85.5 48.8 L 88.4 47.18269233703613 L 88.4 20.2 L 98.4 22.2 L 100.9 24.2 L 98.4 25.86666669845581 L 98.4 41.696000003814696 L 100.8 40.4 L 105.7 37.7 L 110.6 35.1 L 114.43430767059326 33.06047458648682 L 114.4 33.0 L 114.45398559570313 33.05000772476196 L 115.3 32.6 L 116.3 34.76000003814697 L 123.9 41.8 L 124.1 45.0 L 120.2609375 43.415625 L 115.3 45.4 L 110.2 47.4 L 105.0 49.5 L 99.7 51.5 L 98.4 52.00555553436279 L 98.4 119.5 L 108.9 119.5 L 108.9 68.4 L 118.9 70.4 L 121.4 72.4 L 118.9 74.0666666984558 L 118.9 129.5 L 108.9 134.5 L 108.9 123.5 L 98.4 123.5 L 98.4 159.8 L 98.5 161.1 L 98.8 162.1 L 99.1 162.8 L 99.5 163.2 L 99.8 163.4 L 100.1 163.5 L 100.5 163.7 L 101.2 163.8 L 116.8 163.8 Z M 187.8 26.0 L 187.8 30.0 L 163.7 30.0 L 162.3 32.8 L 160.9 35.7 L 157.7 41.3 L 156.0 44.0 L 152.4 49.2 L 150.4 51.6 L 148.3 54.0 L 169.4 54.0 L 175.4 49.0 L 186.4 58.0 L 181.4 62.0 L 181.4 144.0 L 169.4 150.0 L 169.4 144.0 L 142.5 144.0 L 142.5 147.0 L 131.5 152.5 L 131.5 48.5 L 142.5 54.0 L 145.48928575515748 54.0 L 146.0 52.7 L 146.7 49.7 L 147.5 46.8 L 148.3 43.8 L 149.0 40.9 L 149.8 38.0 L 150.5 35.0 L 151.1 32.1 L 151.58999996185304 30.0 L 125.9 30.0 L 125.9 26.0 L 165.8 26.0 L 175.8 16.0 Z M 142.5 115.0 L 142.5 140.0 L 169.4 140.0 L 169.4 115.0 Z M 142.5 87.0 L 142.5 111.0 L 169.4 111.0 L 169.4 87.0 Z M 30.4 69.0 L 30.4 110.0 L 48.4 110.0 L 48.4 69.0 Z M 142.5 58.0 L 142.5 83.0 L 169.4 83.0 L 169.4 58.0 Z M 30.4 26.0 L 30.4 65.0 L 48.4 65.0 L 48.4 26.0 Z " />
</g>
</svg>
