<svg xmlns="http://www.w3.org/2000/svg" xmlns:xlink="http://www.w3.org/1999/xlink" version="1.1" baseProfile="full" viewBox="0 0 200 200" width="200" height="200">
<g fill="black">
<path d="M 89.0 170.0 L 90.5 173.3 L 86.075 173.225 L 84.8 174.5 L 82.5 176.6 L 79.9 178.8 L 77.2 180.8 L 74.3 182.8 L 71.2 184.8 L 67.9 186.7 L 64.4 188.5 L 60.9 190.5 L 59.8 189.0 L 62.7 186.3 L 65.2 183.3 L 67.6 180.6 L 69.8 177.9 L 71.8 175.3 L 73.6 172.8 L 75.3 170.4 L 76.7 168.0 L 77.9 165.7 L 78.47534732818603 164.49177055358888 L 78.3 164.4 L 79.4 162.8 Z M 109.9 183.4 L 108.8 181.4 L 107.6 179.4 L 106.1 177.4 L 104.4 175.3 L 102.5 173.3 L 100.3 171.2 L 97.9 169.0 L 95.1 167.2 L 95.8 165.6 L 99.1 166.7 L 102.3 167.7 L 105.4 168.8 L 108.3 170.2 L 111.0 171.7 L 113.6 173.4 L 115.9 175.2 L 118.1 177.2 L 120.2 179.4 L 122.0 181.8 L 122.2 186.4 L 119.3 189.9 L 114.7 190.2 L 111.2 187.2 L 110.6 185.3 Z M 172.7 182.4 L 169.7 177.0 L 167.6 170.4 L 166.1 162.4 L 165.0 152.9 L 165.0 156.1 L 146.46000003814697 156.1 L 145.8 159.4 L 143.4 166.5 L 140.4 172.5 L 136.5 177.7 L 131.6 182.0 L 125.9 185.6 L 124.8 184.1 L 129.0 179.3 L 132.1 174.5 L 134.5 169.6 L 136.2 164.1 L 137.4 157.7 L 137.57297296524047 156.1 L 122.8 156.1 L 122.8 152.1 L 138.0054054260254 152.1 L 138.2 150.3 L 138.6 141.6 L 138.6 131.4 L 138.59406776428222 130.7 L 124.7 130.7 L 124.7 126.7 L 138.560169506073 126.7 L 138.5 119.6 L 138.22185792922974 106.89817848205567 L 138.2 106.9 L 138.2 103.5 L 150.2 105.9 L 153.2 107.9 L 150.11568050384523 109.75059175491333 L 149.9 119.6 L 149.60661153793336 126.7 L 152.6 126.7 L 157.1 120.7 L 163.1 126.7 L 163.1 130.7 L 149.44132232666016 130.7 L 149.4 131.7 L 148.6 142.2 L 147.4 151.4 L 147.26000003814698 152.1 L 154.5 152.1 L 159.0 146.1 L 164.94563102722168 152.04563102722167 L 164.3 141.9 L 164.1 129.3 L 164.3 115.1 L 164.81320753097535 101.5 L 122.8 101.5 L 122.8 97.5 L 164.9 97.5 L 170.9 92.5 L 181.9 101.5 L 176.9 104.5 L 176.64596643447877 104.60584735870361 L 176.3 115.4 L 176.1 129.3 L 176.3 141.4 L 176.9 151.9 L 177.9 160.6 L 179.2 167.5 L 179.3397183418274 167.92788734436036 L 183.2 151.2 L 185.2 151.2 L 183.2744680404663 176.2319149017334 L 187.4 178.0 L 189.2 182.2 L 187.4 186.3 L 183.2 188.2 L 177.1 186.5 Z M 27.8 95.0 L 46.3 95.0 L 51.8 90.0 L 62.3 99.0 L 57.3 102.5 L 57.3 172.6 L 57.1 175.0 L 56.8 177.4 L 56.1 179.6 L 55.1 181.8 L 53.7 183.7 L 51.9 185.4 L 49.9 186.6 L 47.7 187.5 L 45.4 188.0 L 43.0 188.1 L 43.0 182.6 L 29.0 179.8 L 29.0 177.1 L 43.0 177.1 L 44.0 177.0 L 44.6 176.9 L 45.0 176.8 L 45.3 176.6 L 45.4 176.5 L 45.6 176.2 L 45.8 175.8 L 46.0 175.0 L 46.2 174.0 L 46.3 172.6 L 46.3 147.0 L 27.8 147.0 L 27.8 148.3 L 27.3 154.3 L 26.5 159.9 L 25.5 165.0 L 24.2 169.7 L 22.6 174.0 L 20.7 177.8 L 18.5 181.0 L 15.9 183.7 L 13.1 185.7 L 10.3 187.2 L 9.2 185.7 L 10.9 183.4 L 12.2 180.8 L 13.3 178.1 L 14.2 175.0 L 14.9 171.6 L 15.5 167.8 L 15.8 163.5 L 16.0 158.9 L 16.0 153.8 L 15.8 148.3 L 15.8 89.0 Z M 78.5 97.7 L 103.0 97.7 L 109.0 92.7 L 120.0 101.7 L 115.0 105.7 L 115.0 157.8 L 103.0 163.8 L 103.0 157.8 L 78.5 157.8 L 67.5 163.3 L 67.5 92.2 Z M 78.5 139.1 L 78.5 153.8 L 103.0 153.8 L 103.0 139.1 Z M 27.8 122.5 L 27.8 143.0 L 46.3 143.0 L 46.3 122.5 Z M 78.5 120.4 L 78.5 135.1 L 103.0 135.1 L 103.0 120.4 Z M 27.8 99.0 L 27.8 118.5 L 46.3 118.5 L 46.3 99.0 Z M 78.5 101.7 L 78.5 116.4 L 103.0 116.4 L 103.0 101.7 Z M 49.0 62.0 L 155.0 62.0 L 161.0 57.0 L 172.0 66.0 L 167.0 70.0 L 167.0 82.0 L 155.0 88.0 L 155.0 82.0 L 49.0 82.0 L 37.0 88.0 L 37.0 56.0 Z M 49.0 66.0 L 49.0 78.0 L 155.0 78.0 L 155.0 66.0 Z M 38.6 51.6 L 36.4 51.4 L 34.2 51.0 L 32.1 50.1 L 30.1 48.8 L 28.4 47.1 L 27.0 45.1 L 26.0 42.9 L 25.3 40.5 L 25.0 38.0 L 25.0 23.0 L 37.0 29.0 L 94.0 29.0 L 94.0 13.0 L 106.0 15.0 L 109.0 17.0 L 106.0 18.8 L 106.0 29.0 L 162.0 29.0 L 172.0 19.0 L 184.0 29.0 L 184.0 33.0 L 37.0 33.0 L 37.0 38.0 L 36.8 39.2 L 36.7 40.2 L 36.7 41.6 L 36.8 42.1 L 37.0 42.6 L 37.5 43.1 L 38.3 43.7 L 39.5 44.1 L 41.0 44.5 L 172.0 44.5 L 174.1 45.9 L 175.5 48.0 L 174.1 50.1 L 172.0 51.5 L 41.0 51.5 Z " />
</g>
</svg>
