<svg xmlns="http://www.w3.org/2000/svg" xmlns:xlink="http://www.w3.org/1999/xlink" version="1.1" baseProfile="full" viewBox="0 0 200 200" width="200" height="200">
<g fill="black">
<path d="M 81.68153982162475 158.6903000831604 L 87.1 164.3 L 87.2 167.7 L 83.58735122680665 166.24226455688478 L 80.0 168.1 L 74.2 171.0 L 68.1 173.7 L 61.8 176.4 L 55.3 178.9 L 48.5 181.3 L 41.5 183.6 L 34.2 185.7 L 26.6 187.6 L 18.8 189.2 L 18.2 187.5 L 25.4 184.0 L 32.3 180.7 L 39.1 177.5 L 45.6 174.3 L 51.8 171.1 L 57.9 167.9 L 63.6 164.7 L 69.1 161.5 L 74.4 158.2 L 79.4 154.9 Z M 157.7 181.8 L 153.6 178.9 L 149.2 176.1 L 144.4 173.3 L 139.2 170.6 L 133.7 167.9 L 127.8 165.3 L 121.6 162.6 L 115.0 159.7 L 115.5 158.0 L 122.6 158.9 L 129.4 160.2 L 135.9 161.8 L 142.1 163.6 L 147.9 165.6 L 153.4 167.8 L 158.6 170.2 L 163.6 172.8 L 168.2 175.6 L 172.5 178.6 L 174.5 182.7 L 173.2 187.0 L 169.2 189.1 L 164.8 187.8 L 161.4 184.8 Z M 187.0 149.0 L 187.0 153.0 L 14.0 153.0 L 14.0 149.0 L 168.8181818008423 149.0 L 177.0 140.0 Z M 92.0380711555481 84.82140874862671 L 102.8 93.7 L 103.2 96.7 L 98.77355375289918 94.48677682876587 L 94.1 95.4 L 88.9 96.1 L 83.6 96.7 L 78.1 97.3 L 72.5 97.8 L 66.8 98.2 L 60.9 98.6 L 54.9 98.8 L 48.8 98.9 L 42.5 98.9 L 42.0 98.8692307472229 L 42.0 113.6 L 70.0 113.6 L 80.0 103.6 L 92.0 113.6 L 92.0 117.6 L 42.0 117.6 L 42.0 133.7 L 73.81818180084228 133.7 L 82.0 124.7 L 92.0 133.7 L 92.0 137.7 L 42.0 137.7 L 30.0 143.7 L 30.0 89.6 L 41.37446804046631 95.28723402023316 L 42.1 95.1 L 48.2 93.6 L 54.1 92.3 L 59.9 91.0 L 65.6 89.8 L 71.1 88.6 L 76.5 87.3 L 81.8 86.1 L 86.9 84.9 L 90.81727466583251 83.86072301864624 L 90.8 83.8 L 90.8598970413208 83.84941511154175 L 91.8 83.6 Z M 175.0 98.7 L 170.0 102.7 L 170.0 137.7 L 158.0 143.7 L 158.0 137.7 L 108.0 137.7 L 108.0 133.7 L 158.0 133.7 L 158.0 117.6 L 108.0 117.6 L 108.0 113.6 L 158.0 113.6 L 158.0 98.7 L 108.0 98.7 L 108.0 94.7 L 158.0 94.7 L 164.0 89.7 Z M 175.0 26.0 L 170.0 30.0 L 170.0 81.0 L 158.0 87.0 L 158.0 67.0 L 132.0 67.0 L 132.0 63.0 L 158.0 63.0 L 158.0 47.0 L 132.0 47.0 L 132.0 43.0 L 158.0 43.0 L 158.0 26.0 L 132.0 26.0 L 132.0 22.0 L 158.0 22.0 L 164.0 17.0 Z M 67.63883848190308 14.404718685150147 L 76.5 22.0 L 76.7 25.1 L 72.62813806533813 23.33755226135254 L 71.0 23.9 L 68.1 24.5 L 65.0 25.1 L 61.8 25.6 L 58.5 26.0 L 55.1 26.3 L 51.5 26.6 L 47.9 26.8 L 44.1 26.8 L 42.0 26.747500038146974 L 42.0 43.0 L 55.81818180084228 43.0 L 64.0 34.0 L 74.0 43.0 L 74.0 47.0 L 42.0 47.0 L 42.0 63.0 L 55.81818180084228 63.0 L 64.0 54.0 L 74.0 63.0 L 74.0 67.0 L 42.0 67.0 L 42.0 81.0 L 30.0 87.0 L 30.0 18.0 L 40.88125 23.440625 L 43.3 22.5 L 46.8 21.2 L 50.1 20.0 L 53.3 18.8 L 56.4 17.5 L 59.3 16.3 L 62.0 15.1 L 64.6 13.9 L 66.05205144882203 13.113472175598144 L 66.0 13.0 L 66.10127658843994 13.086808490753175 L 67.0 12.6 Z M 119.6 75.3 L 118.7 77.6 L 117.4 79.9 L 115.7 81.8 L 113.7 83.4 L 111.4 84.6 L 109.0 85.4 L 106.5 85.8 L 104.0 86.0 L 104.0 80.0 L 89.68951320648193 77.31678371429443 L 89.4 79.0 L 76.5 82.9 L 82.2 49.9 L 93.7 54.0 L 96.3 56.4 L 93.11127882003784 57.42279739379883 L 90.26000003814697 74.0 L 104.0 74.0 L 105.2 73.9 L 106.1 73.7 L 106.8 73.5 L 107.2 73.3 L 107.4 73.1 L 107.7 72.9 L 107.9 72.5 L 108.1 71.8 L 108.3 70.9 L 108.5 69.7 L 109.80572395324707 42.0 L 92.78680000305175 42.0 L 92.7 42.7 L 80.0 47.1 L 84.1 14.2 L 95.8 17.7 L 98.5 20.0 L 95.38091945648193 21.07968168258667 L 95.01879997253418 24.0 L 107.81818180084228 24.0 L 116.0 15.0 L 126.0 24.0 L 126.0 28.0 L 94.52279996871948 28.0 L 93.28280000686645 38.0 L 110.0 38.0 L 116.0 33.0 L 127.0 42.0 L 122.0 45.0 L 120.90877799987793 45.45467586517334 L 120.4 70.3 L 120.2 72.8 Z " />
</g>
</svg>
