<svg xmlns="http://www.w3.org/2000/svg" xmlns:xlink="http://www.w3.org/1999/xlink" version="1.1" baseProfile="full" viewBox="0 0 200 200" width="200" height="200">
<g fill="black">
<path d="M 160.1 165.7 L 152.2 161.4 L 144.5 156.8 L 137.2 151.9 L 130.1 146.6 L 123.2 141.1 L 116.8 135.2 L 110.7 128.9 L 105.58676471710206 122.8 L 105.0 122.8 L 105.0 158.8 L 121.0 158.8 L 131.0 148.8 L 143.0 158.8 L 143.0 162.8 L 105.0 162.8 L 105.0 182.9 L 93.0 188.9 L 93.0 162.8 L 55.0 162.8 L 55.0 158.8 L 93.0 158.8 L 93.0 128.27796611785888 L 90.6 130.8 L 84.1 136.7 L 77.0 142.4 L 69.4 147.8 L 61.3 153.1 L 52.7 158.1 L 43.4 162.9 L 33.7 167.5 L 23.3 171.7 L 12.3 175.5 L 11.6 173.9 L 21.7 168.3 L 31.2 162.7 L 40.2 157.2 L 48.7 151.7 L 56.6 146.1 L 63.9 140.4 L 70.6 134.6 L 76.8 128.8 L 82.4 122.9 L 82.48095235824584 122.8 L 15.0 122.8 L 15.0 118.8 L 93.0 118.8 L 93.0 98.4 L 105.0 100.4 L 108.0 102.4 L 105.0 104.2 L 105.0 118.8 L 162.0 118.8 L 172.0 108.8 L 184.0 118.8 L 184.0 122.8 L 109.1979591369629 122.8 L 120.5 130.6 L 127.6 135.3 L 134.8 139.7 L 142.1 143.9 L 149.6 147.9 L 157.3 151.6 L 165.1 155.0 L 173.1 158.2 L 181.3 161.1 L 188.1 163.7 L 176.6 173.4 L 168.2 169.7 Z M 105.6 19.5 L 107.2 22.7 L 102.37638187408447 22.783165836334227 L 101.1 23.9 L 99.4 25.4 L 95.8 28.2 L 93.8 29.5 L 91.7 30.8 L 91.33333330154419 31.0 L 148.0 31.0 L 154.0 26.0 L 165.0 35.0 L 160.0 39.0 L 160.0 100.2 L 148.0 106.2 L 148.0 96.2 L 52.0 96.2 L 52.0 103.2 L 40.0 109.2 L 40.0 25.0 L 52.0 31.0 L 87.39473686218261 31.0 L 87.9 30.4 L 89.0 28.2 L 90.1 26.1 L 91.1 24.1 L 92.9 20.3 L 93.6 18.5 L 94.8 15.1 L 95.01730384826661 14.404627799987793 L 94.8 14.3 L 95.8 12.5 Z M 52.0 74.9 L 52.0 92.2 L 148.0 92.2 L 148.0 74.9 Z M 52.0 55.0 L 52.0 70.9 L 148.0 70.9 L 148.0 55.0 Z M 52.0 35.0 L 52.0 51.0 L 148.0 51.0 L 148.0 35.0 Z " />
</g>
</svg>
