<svg xmlns="http://www.w3.org/2000/svg" xmlns:xlink="http://www.w3.org/1999/xlink" version="1.1" baseProfile="full" viewBox="0 0 200 200" width="200" height="200">
<g fill="black">
<path d="M 183.5 27.0 L 183.5 31.0 L 142.3 31.0 L 142.3 109.0 L 166.4 109.0 L 176.4 99.0 L 188.4 109.0 L 188.4 113.0 L 142.3 113.0 L 142.3 182.0 L 130.3 188.0 L 130.3 113.0 L 86.1 113.0 L 86.1 109.0 L 130.3 109.0 L 130.3 31.0 L 91.9 31.0 L 91.9 27.0 L 161.5 27.0 L 171.5 17.0 Z M 46.7 176.5 L 62.1 176.5 L 63.1 176.4 L 63.8 176.3 L 64.4 176.0 L 64.6 175.8 L 64.7 175.6 L 65.0 175.1 L 65.2 174.4 L 65.3 173.3 L 65.4 172.0 L 65.4 101.15 L 62.0 102.0 L 54.6 103.6 L 47.1 105.2 L 39.5 106.7 L 38.814302921295166 106.82307386398315 L 38.7 111.7 L 38.0 123.6 L 36.8 134.8 L 35.2 145.2 L 33.1 154.8 L 30.6 163.5 L 27.7 171.4 L 24.2 178.5 L 20.2 184.5 L 15.7 189.5 L 14.3 188.4 L 16.9 182.6 L 19.3 176.2 L 21.5 169.3 L 23.3 161.6 L 24.8 153.1 L 26.0 143.9 L 26.8 133.9 L 27.2 123.1 L 27.3 111.4 L 27.259466648101807 108.88692998886108 L 23.8 109.5 L 19.881632614135743 110.13673467636109 L 18.2 113.5 L 15.8 110.8 L 12.4 99.1 L 14.4 98.9 L 22.4 98.2 L 27.1 97.78354434967041 L 27.1 34.0 L 39.1 40.0 L 41.59642858505249 40.0 L 42.2 38.7 L 43.1 35.7 L 44.1 32.8 L 44.9 30.0 L 45.7 27.3 L 47.1 21.9 L 48.1 16.7 L 48.341361904144286 15.131147575378417 L 48.2 15.1 L 48.48148145675659 14.220370388031006 L 48.5 14.1 L 48.518178939819336 14.10569076538086 L 49.0 12.6 L 60.0 17.7 L 62.3 20.5 L 58.02721614837647 21.549455642700195 L 57.3 22.9 L 55.8 25.5 L 54.2 28.1 L 52.5 30.6 L 50.7 33.0 L 46.7 37.8 L 44.4 40.0 L 65.4 40.0 L 70.9 35.0 L 81.4 44.0 L 76.4 47.5 L 76.4 92.92361106872559 L 82.5 92.5 L 89.6 92.1 L 90.0 93.8 L 83.2 96.2 L 76.4 98.26956520080566 L 76.4 172.0 L 76.3 174.4 L 75.9 176.7 L 75.3 179.0 L 74.2 181.1 L 72.8 183.1 L 71.1 184.7 L 69.0 186.0 L 66.8 186.8 L 64.5 187.3 L 62.1 187.5 L 62.1 182.0 L 46.7 179.2 Z M 55.8 114.0 L 58.5 116.0 L 55.8 117.72340421676635 L 55.8 153.2 L 44.8 158.7 L 44.8 112.0 Z M 120.7 50.1 L 123.2 52.7 L 119.6020173072815 53.94293947219849 L 119.1 55.7 L 117.2 61.3 L 115.0 66.8 L 112.5 72.2 L 109.7 77.5 L 106.5 82.7 L 103.1 87.9 L 99.4 92.9 L 95.2 97.8 L 90.7 102.5 L 89.2 101.4 L 92.1 95.7 L 94.8 90.1 L 97.4 84.6 L 99.8 79.2 L 102.0 73.9 L 103.9 68.6 L 105.5 63.3 L 106.9 58.1 L 108.1 52.9 L 108.82441091537476 48.71451463699341 L 108.7 48.7 L 109.3 45.9 Z M 39.1 44.0 L 39.1 96.60789470672607 L 45.7 96.0 L 53.3 95.2 L 60.7 94.5 L 65.4 93.99189186096191 L 65.4 44.0 Z M 167.6 82.6 L 166.4 78.2 L 165.0 73.9 L 163.4 69.6 L 161.6 65.2 L 159.6 60.8 L 157.4 56.4 L 155.1 51.9 L 152.6 47.3 L 154.0 46.1 L 158.0 49.7 L 161.7 53.4 L 165.0 57.4 L 168.1 61.5 L 170.9 65.8 L 173.4 70.1 L 175.7 74.6 L 177.7 79.2 L 179.5 83.9 L 181.0 88.7 L 180.2 93.2 L 176.5 95.9 L 172.0 95.0 L 169.3 91.3 L 168.5 87.0 Z M 48.8 75.0 L 48.4 71.6 L 47.8 68.2 L 47.2 65.1 L 46.4 62.1 L 45.5 59.2 L 44.4 56.5 L 43.3 53.7 L 41.7 51.3 L 43.0 50.0 L 45.4 51.9 L 48.0 53.9 L 50.3 56.4 L 52.4 59.1 L 54.4 62.2 L 56.1 65.5 L 57.6 69.1 L 59.0 72.9 L 60.1 77.0 L 61.1 81.3 L 59.7 85.7 L 55.7 87.9 L 51.4 86.6 L 49.1 82.6 L 49.0 78.7 Z " />
</g>
</svg>
