<svg xmlns="http://www.w3.org/2000/svg" xmlns:xlink="http://www.w3.org/1999/xlink" version="1.1" baseProfile="full" viewBox="0 0 200 200" width="200" height="200">
<g fill="black">
<path d="M 82.4 176.7 L 81.8 179.0 L 80.7 181.1 L 79.3 183.1 L 78.23857870101929 184.09898481369018 L 83.4 180.7 L 90.7 174.9 L 97.3 168.6 L 103.0 161.8 L 107.9 154.4 L 112.0 146.3 L 115.4 137.6 L 118.1 128.3 L 120.0 118.2 L 121.16000003814698 107.76000003814697 L 121.3625 105.6 L 109.6 105.6 L 109.6 117.6 L 97.6 123.6 L 97.6 94.11578950881957 L 91.0 96.2 L 83.3 98.3 L 82.9 98.3962025642395 L 82.9 172.0 L 82.8 174.4 Z M 182.2 145.0 L 184.2 145.0 L 182.2 170.0 L 185.8 172.4 L 188.2 176.0 L 185.8 179.6 L 182.2 182.0 L 157.8 182.0 L 155.2 181.8 L 152.7 181.4 L 150.3 180.6 L 148.0 179.3 L 146.0 177.7 L 144.4 175.7 L 143.1 173.4 L 142.3 171.0 L 141.9 168.5 L 141.8 166.0 L 141.8 105.6 L 122.81818180084228 105.6 L 133.1 108.5 L 135.9 110.8 L 132.4577465057373 112.4549295425415 L 131.2 120.2 L 128.5 131.1 L 124.8 141.2 L 120.3 150.5 L 115.0 159.0 L 108.8 166.7 L 101.8 173.4 L 94.0 179.2 L 85.3 184.0 L 76.0 187.8 L 75.20365295410156 186.1077625274658 L 73.3 186.8 L 71.0 187.3 L 68.6 187.5 L 68.6 182.0 L 53.2 179.2 L 53.2 176.5 L 68.6 176.5 L 69.6 176.4 L 70.3 176.3 L 70.9 176.0 L 71.1 175.8 L 71.2 175.6 L 71.5 175.1 L 71.7 174.4 L 71.8 173.3 L 71.9 172.0 L 71.9 100.9777777671814 L 67.3 102.0 L 59.1 103.6 L 50.8 105.2 L 42.3 106.7 L 41.150401782989505 106.88714389801025 L 41.0 111.7 L 40.2 123.7 L 39.0 134.9 L 37.2 145.3 L 35.0 154.9 L 32.3 163.6 L 29.0 171.5 L 25.2 178.6 L 20.9 184.6 L 16.0 189.5 L 14.6 188.4 L 17.7 182.5 L 20.4 176.1 L 22.9 169.2 L 25.0 161.5 L 26.7 153.0 L 28.0 143.8 L 29.0 133.8 L 29.5 123.0 L 29.7 111.4 L 29.635804271698 108.7465765953064 L 24.9 109.5 L 20.04868049621582 110.2086196899414 L 18.3 113.6 L 16.0 110.8 L 12.7 99.1 L 14.7 98.9 L 23.6 98.2 L 29.4 97.73863639831544 L 29.4 34.0 L 41.4 40.0 L 44.95 40.0 L 45.7 38.6 L 46.8 35.6 L 47.9 32.7 L 49.9 27.1 L 51.5 21.7 L 52.2 19.1 L 52.8 16.5 L 53.05004930496216 14.937191677093505 L 52.9 14.9 L 53.17209300994873 14.174418640136718 L 53.2 14.0 L 53.23333330154419 14.011111068725587 L 53.8 12.5 L 64.6 17.8 L 66.8 20.7 L 62.570967769622804 21.59032258987427 L 61.7 23.1 L 60.1 25.7 L 58.4 28.2 L 54.6 33.2 L 52.5 35.6 L 50.3 37.9 L 48.00909090042114 40.0 L 71.9 40.0 L 77.4 35.0 L 87.9 44.0 L 82.9 47.5 L 82.9 92.96875 L 90.4 92.5 L 97.6 92.1307692527771 L 97.6 30.3 L 106.92307691574096 34.9615385055542 L 109.5 32.9 L 112.5 30.6 L 118.1 26.0 L 120.8 23.8 L 125.8 19.4 L 129.59824562072754 15.60175437927246 L 129.5 15.5 L 130.4 14.8 L 137.9 24.2 L 138.2 27.8 L 134.3625407218933 26.40456027984619 L 131.9 27.8 L 128.8 29.5 L 125.5 31.2 L 122.2 32.7 L 118.8 34.2 L 115.3 35.6 L 111.6 36.8 L 109.6 37.37894735336304 L 109.6 66.6 L 121.1777777671814 66.6 L 127.4 59.6 L 135.4 66.6 L 135.4 70.6 L 109.6 70.6 L 109.6 101.6 L 164.5 101.6 L 164.5 70.6 L 142.1 70.6 L 142.1 66.6 L 164.5 66.6 L 164.5 35.5 L 142.7 35.5 L 142.7 31.5 L 164.5 31.5 L 170.5 26.5 L 181.5 35.5 L 176.5 39.5 L 176.5 111.6 L 164.5 117.6 L 164.5 105.6 L 153.8 105.6 L 153.8 167.2 L 154.0 168.1 L 154.3 169.0 L 154.7 169.4 L 155.6 169.7 L 156.5 169.9 L 157.8 170.0 L 176.2 170.0 Z M 60.0 114.0 L 62.7 116.0 L 60.0 117.72340421676635 L 60.0 153.2 L 49.0 158.7 L 49.0 112.0 Z M 41.4 44.0 L 41.4 96.66705884933472 L 49.5 96.0 L 57.9 95.2 L 66.2 94.5 L 71.9 93.94390239715577 L 71.9 44.0 Z M 53.4 75.2 L 52.9 71.7 L 52.3 68.4 L 51.5 65.2 L 50.6 62.2 L 49.5 59.3 L 48.2 56.5 L 46.9 53.8 L 45.1 51.3 L 46.3 49.9 L 49.0 51.8 L 51.7 53.8 L 54.2 56.2 L 56.5 59.0 L 58.6 62.0 L 60.5 65.4 L 62.1 69.0 L 63.6 72.8 L 64.8 76.9 L 65.8 81.3 L 64.5 85.6 L 60.6 87.9 L 56.2 86.6 L 53.9 82.7 L 53.7 78.8 Z " />
</g>
</svg>
