<svg xmlns="http://www.w3.org/2000/svg" xmlns:xlink="http://www.w3.org/1999/xlink" version="1.1" baseProfile="full" viewBox="0 0 200 200" width="200" height="200">
<g fill="black">
<path d="M 50.1 176.5 L 65.5 176.5 L 66.5 176.4 L 67.1 176.3 L 67.5 176.1 L 67.8 176.0 L 67.9 175.8 L 68.1 175.6 L 68.3 175.1 L 68.5 174.4 L 68.7 173.3 L 68.7 101.06493511199952 L 64.7 102.0 L 56.8 103.6 L 48.8 105.2 L 40.7 106.7 L 39.7512490272522 106.8600302696228 L 39.6 111.7 L 38.9 123.7 L 37.6 134.9 L 35.9 145.3 L 33.8 154.8 L 31.1 163.6 L 28.0 171.5 L 24.4 178.5 L 20.2 184.6 L 15.5 189.5 L 14.1 188.4 L 17.0 182.5 L 19.6 176.2 L 21.9 169.2 L 23.8 161.5 L 25.5 153.1 L 26.7 143.8 L 27.6 133.8 L 28.1 123.0 L 28.3 111.4 L 28.2369478225708 108.79384202957154 L 24.0 109.5 L 19.534831237792968 110.18290815353393 L 17.8 113.6 L 15.5 110.8 L 12.2 99.1 L 14.2 98.9 L 22.7 98.2 L 28.0 97.75833330154418 L 28.0 34.0 L 40.0 40.0 L 43.1 40.0 L 43.8 38.6 L 44.8 35.7 L 45.9 32.8 L 47.7 27.2 L 48.5 24.5 L 49.2 21.8 L 50.4 16.6 L 50.640963840484616 15.033734893798828 L 50.5 15.0 L 50.781481456756595 14.120370388031006 L 50.8 14.0 L 50.81807231903076 14.006024074554443 L 51.3 12.5 L 62.2 17.8 L 64.5 20.6 L 60.22167835235596 21.575757598876955 L 57.9 25.6 L 56.2 28.2 L 54.4 30.7 L 52.5 33.1 L 50.5 35.5 L 48.3 37.8 L 46.1 40.0 L 68.7 40.0 L 74.2 35.0 L 84.7 44.0 L 79.7 47.5 L 79.7 92.95394735336303 L 86.6 92.5 L 87.63012046813965 92.44578313827515 L 91.1 86.2 L 95.0 78.8 L 98.8 71.4 L 102.4 63.8 L 105.8 56.1 L 109.0 48.1 L 112.0 40.0 L 114.8 31.6 L 117.4 23.0 L 119.5258394241333 15.205255508422852 L 119.5 15.2 L 119.73999996185303 14.419999980926514 L 119.8 14.2 L 119.80705089569092 14.202084636688232 L 120.3 12.6 L 131.3 17.6 L 133.7 20.3 L 130.08269233703612 21.251923084259033 L 128.3 26.6 L 124.9 35.3 L 121.4 43.7 L 117.5 51.9 L 117.4493670463562 52.0 L 162.8 52.0 L 172.8 42.0 L 184.8 52.0 L 184.8 56.0 L 115.42405061721801 56.0 L 113.5 59.8 L 109.1 67.4 L 104.5 74.7 L 99.5 81.7 L 94.2 88.3 L 90.59643497467042 92.28966131210328 L 94.2 92.1 L 94.5 93.8 L 87.3 96.2 L 79.9 98.3 L 79.7 98.3506667137146 L 79.7 172.0 L 79.6 174.4 L 79.3 176.7 L 78.6 179.0 L 77.6 181.1 L 76.2 183.1 L 74.4 184.7 L 72.4 186.0 L 70.1 186.8 L 67.8 187.3 L 65.5 187.5 L 65.5 182.0 L 50.1 179.2 Z M 57.8 114.0 L 60.5 116.0 L 57.8 117.72340421676635 L 57.8 153.2 L 46.8 158.7 L 46.8 112.0 Z M 109.3 155.5 L 107.4 160.3 L 106.9 163.6 L 107.4 165.6 L 108.7 167.2 L 111.5 169.0 L 116.4 170.5 L 123.2 171.6 L 132.0 172.0 L 176.9 172.0 L 182.9 147.0 L 184.9 147.0 L 182.9 172.0 L 186.5 174.4 L 188.9 178.0 L 186.5 181.6 L 182.9 184.0 L 132.0 184.0 L 122.1 183.5 L 113.7 182.2 L 106.5 179.9 L 100.7 176.1 L 96.5 170.7 L 95.0 164.1 L 95.8 157.2 L 98.5 150.1 L 102.9 142.8 L 108.8 134.9 L 144.95294113159179 91.0 L 102.1 91.0 L 102.1 87.0 L 148.4 87.0 L 154.4 82.0 L 165.4 91.0 L 160.4 94.0 L 156.08403358459472 95.7983193397522 L 118.1 142.5 L 112.8 149.5 Z M 40.0 44.0 L 40.0 96.6481481552124 L 47.5 96.0 L 55.6 95.2 L 63.5 94.5 L 68.7 93.96666669845581 L 68.7 44.0 Z M 51.0 75.1 L 50.6 71.6 L 50.0 68.3 L 49.3 65.2 L 48.4 62.2 L 47.4 59.3 L 45.0 53.7 L 43.2 51.3 L 44.5 50.0 L 47.1 51.9 L 49.7 53.9 L 52.2 56.3 L 54.4 59.0 L 56.4 62.1 L 58.2 65.4 L 59.8 69.0 L 61.2 72.9 L 62.4 77.0 L 63.4 81.3 L 62.1 85.7 L 58.1 87.9 L 53.7 86.6 L 51.5 82.7 L 51.3 78.8 Z " />
</g>
</svg>
