<svg xmlns="http://www.w3.org/2000/svg" xmlns:xlink="http://www.w3.org/1999/xlink" version="1.1" baseProfile="full" viewBox="0 0 200 200" width="200" height="200">
<g fill="black">
<path d="M 149.5 174.3 L 137.8 165.6 L 127.7 155.7 L 119.4 144.7 L 112.7 132.7 L 107.9 119.6 L 104.7 105.5 L 103.8994550704956 96.26294279098511 L 101.8 107.6 L 97.1 122.5 L 90.6 136.0 L 82.3 148.2 L 72.4 158.9 L 60.7 168.2 L 47.5 176.0 L 32.6 182.2 L 16.2 186.9 L 15.7 185.1 L 31.2 178.7 L 44.9 171.3 L 56.8 162.9 L 67.0 153.5 L 75.6 143.1 L 82.4 131.6 L 87.7 119.0 L 91.4 105.2 L 93.4 90.2 L 94.0 74.0 L 94.0 71.6 L 106.0 74.0 L 109.0 76.0 L 106.14957780838013 77.7102533340454 L 107.6 90.2 L 110.5 104.3 L 114.7 117.2 L 120.2 128.9 L 127.0 139.4 L 135.2 148.7 L 144.7 157.0 L 155.7 164.2 L 168.1 170.4 L 182.1 175.6 L 189.4 178.1 L 177.8 188.1 L 162.9 181.8 Z M 134.0 15.3 L 137.0 17.3 L 134.0 19.1 L 134.0 40.9 L 165.0 40.9 L 175.0 30.9 L 187.0 40.9 L 187.0 44.9 L 134.0 44.9 L 134.0 67.4 L 122.0 73.4 L 122.0 44.9 L 78.0 44.9 L 78.0 67.4 L 66.0 73.4 L 66.0 44.9 L 13.0 44.9 L 13.0 40.9 L 66.0 40.9 L 66.0 13.3 L 78.0 15.3 L 81.0 17.3 L 78.0 19.1 L 78.0 40.9 L 122.0 40.9 L 122.0 13.3 Z " />
</g>
</svg>
