<svg xmlns="http://www.w3.org/2000/svg" xmlns:xlink="http://www.w3.org/1999/xlink" version="1.1" baseProfile="full" viewBox="0 0 200 200" width="200" height="200">
<g fill="black">
<path d="M 31.6 154.5 L 31.5 153.5 L 31.2 152.5 L 30.8 151.3 L 30.2 150.1 L 29.5 148.9 L 28.6 147.6 L 28.1095890045166 146.83713846206666 L 26.4 148.8 L 23.6 151.6 L 20.6 153.9 L 17.4 155.7 L 14.3 157.3 L 13.3 155.8 L 15.5 153.4 L 19.1 147.8 L 20.7 144.7 L 22.3 141.5 L 23.7 138.1 L 25.0 134.4 L 26.2 130.5 L 27.3 126.3 L 28.074683570861815 122.81392402648926 L 28.0 122.8 L 28.7 120.2 L 39.8 125.0 L 42.2 127.7 L 38.37799997329712 128.79200000762938 L 38.0 129.8 L 36.95454549789429 132.1 L 50.5 132.1 L 56.5 127.1 L 67.5 136.1 L 66.66666669845581 136.6 L 83.6 136.6 L 83.6 121.8 L 95.6 123.8 L 98.6 125.8 L 95.6 127.6 L 95.6 136.6 L 98.5 136.6 L 103.0 130.6 L 109.0 136.6 L 109.0 140.6 L 95.6 140.6 L 95.6 160.6 L 99.0 160.6 L 103.5 154.6 L 109.5 160.6 L 109.5 164.6 L 95.6 164.6 L 95.6 182.1 L 83.6 188.1 L 83.6 164.6 L 66.20621757507324 164.6 L 65.6 166.4 L 52.3 168.2 L 61.4 141.3 L 72.1 147.1 L 74.3 149.9 L 70.87397699356079 150.740345287323 L 67.55336790084839 160.6 L 83.6 160.6 L 83.6 140.6 L 62.8 140.6 L 62.8 138.91999998092652 L 62.5 139.1 L 60.40476188659668 139.9730158805847 L 58.5 144.1 L 54.5 151.3 L 50.2 157.9 L 45.5 163.8 L 40.6 169.2 L 35.3 173.9 L 29.7 177.9 L 23.8 181.1 L 17.6 183.6 L 11.2 185.2 L 10.6 183.5 L 16.0 180.2 L 21.0 176.5 L 25.7 172.6 L 30.2 168.3 L 34.3 163.5 L 37.586111068725586 159.034259223938 L 35.1 159.2 L 31.6 156.2 L 31.7 155.4 Z M 105.8 178.7 L 142.3 178.7 L 142.3 141.1 L 116.0 141.1 L 116.0 137.1 L 142.3 137.1 L 142.3 106.0 L 110.0 106.0 L 110.0 102.0 L 164.5 102.0 L 174.5 92.0 L 186.5 102.0 L 186.5 106.0 L 154.3 106.0 L 154.3 137.1 L 159.4 137.1 L 169.4 127.1 L 181.4 137.1 L 181.4 141.1 L 154.3 141.1 L 154.3 178.7 L 168.8 178.7 L 178.8 168.7 L 190.8 178.7 L 190.8 182.7 L 105.8 182.7 Z M 35.05 136.1 L 33.9 138.4 L 31.6 142.2 L 29.857352924346923 144.63970584869384 L 30.4 144.7 L 32.1 145.1 L 33.7 145.5 L 35.3 146.1 L 36.8 146.8 L 38.3 147.6 L 39.7 148.5 L 41.0 149.6 L 42.3 150.8 L 42.32840843200684 151.23559608459473 L 45.1 146.1 L 48.1 139.3 L 49.31081085205078 136.1 Z M 66.22952642440796 68.82228412628174 L 65.9 72.4 L 65.17169618606567 75.63184814453125 L 66.4 79.1 L 68.5 83.3 L 69.45880889892578 84.77816381454468 L 73.4 81.4 L 75.5 79.7 L 79.3 76.5 L 82.9 73.3 L 85.28875741958618 70.91124258041381 L 85.2 70.8 L 85.29473686218262 70.90526313781739 L 85.44210529327393 70.75789470672608 L 84.6 70.0 L 82.4 68.3 L 80.0 66.6 L 77.4 64.9 L 74.6 63.3 L 71.7 61.6 L 68.6 59.9 L 65.4 58.2 L 61.9 56.4 L 60.24078216552734 55.708659172058105 L 56.9 59.3 L 52.2 63.0 L 46.8 66.0 L 40.8 68.4 L 34.1 70.2 L 26.8 71.2 L 26.4 69.5 L 32.9 66.6 L 38.6 63.5 L 43.5 60.3 L 47.5 57.0 L 50.7 53.5 L 53.2 49.8 L 54.9 45.9 L 56.0 41.8 L 56.5 37.4 L 56.3 32.6 L 56.36964416503906 32.598258876800536 L 56.3 30.3 L 68.3 32.3 L 71.4 34.2 L 67.97691535949707 36.435483837127684 L 67.8 38.7 L 66.4 44.6 L 64.1 50.1 L 61.82075471878052 53.59009437561035 L 62.7 53.7 L 66.6 54.0 L 70.4 54.6 L 74.0 55.3 L 77.6 56.1 L 80.9 57.0 L 84.2 58.0 L 87.3 59.2 L 90.3 60.4 L 93.2 61.7 L 95.7 65.6 L 94.9 70.1 L 91.1 72.6 L 87.13582239151 71.89525728225708 L 89.90347824096679 76.02608699798584 L 93.3 79.8 L 93.5 83.3 L 89.29322366714477 81.572216796875 L 85.9 82.9 L 83.5 83.8 L 81.0 84.6 L 78.4 85.3 L 75.8 86.1 L 73.0 86.7 L 70.95833330154419 87.06458330154419 L 73.7 90.1 L 77.0 92.9 L 80.8 95.3 L 85.0 97.3 L 89.9 99.0 L 95.4 100.4 L 103.7 102.6 L 99.54964332580566 106.32467899322509 L 108.3 114.2 L 108.3 118.2 L 25.3 118.2 L 25.3 125.2 L 13.3 131.2 L 13.3 17.6 L 25.3 23.6 L 81.0 23.6 L 91.0 13.6 L 103.0 23.6 L 103.0 27.6 L 25.3 27.6 L 25.3 107.19402980804443 L 30.0 105.3 L 35.8 102.2 L 40.7 98.9 L 44.8 95.2 L 48.1 91.3 L 50.7 86.9 L 52.6 82.2 L 53.9 76.9 L 54.5 71.2 L 54.6 64.8 L 54.6 62.4 L 66.6 64.8 L 69.6 66.8 Z M 58.6 91.7 L 54.6 96.7 L 49.7 101.0 L 44.2 104.4 L 38.0 107.1 L 31.1 108.9 L 25.3 109.60540542602538 L 25.3 114.2 L 90.11818180084228 114.2 L 91.34237289428711 112.85338983535766 L 85.6 110.7 L 79.8 107.8 L 74.6 104.4 L 70.2 100.5 L 66.6 96.1 L 63.8 91.2 L 61.817385292053224 86.04520168304444 Z M 143.6 93.5 L 142.9 91.8 L 141.9 90.0 L 140.5 87.9 L 138.9 85.7 L 136.9 83.4 L 134.6 81.0 L 132.1 78.4 L 129.1 76.0 L 130.0 74.5 L 133.5 76.3 L 137.0 77.7 L 140.1 79.2 L 143.0 80.8 L 145.6 82.4 L 148.0 84.1 L 150.2 85.9 L 152.2 87.7 L 153.9 89.7 L 155.3 91.8 L 155.2 96.4 L 151.9 99.6 L 147.3 99.4 L 144.1 96.2 L 144.0 95.0 Z M 27.3 91.1 L 27.4 86.5 L 30.7 83.3 L 31.9 83.3 L 33.1 83.1 L 34.2 82.8 L 35.2 82.4 L 36.3 81.7 L 37.3 80.8 L 38.3 79.5 L 39.2 77.9 L 40.1 76.0 L 40.1 73.8 L 41.9 73.7 L 42.1 76.0 L 42.7 78.3 L 43.0 80.6 L 42.9 82.8 L 42.5 85.1 L 41.7 87.3 L 40.6 89.4 L 39.0 91.3 L 37.2 93.0 L 35.0 94.5 L 30.5 94.4 Z M 120.9 81.4 L 108.9 87.4 L 108.9 28.8 L 120.9 30.8 L 123.9 32.8 L 120.9 34.6 L 120.9 65.4 L 141.5 65.4 L 141.5 14.7 L 153.5 16.7 L 156.5 18.7 L 153.5 20.5 L 153.5 65.4 L 174.0 65.4 L 174.0 28.8 L 186.0 30.8 L 189.0 32.8 L 186.0 34.6 L 186.0 75.4 L 174.0 81.4 L 174.0 69.4 L 120.9 69.4 Z M 31.2 54.7 L 30.0 50.3 L 32.3 46.3 L 33.5 45.9 L 34.5 45.5 L 35.5 45.2 L 37.1 44.4 L 37.8 43.8 L 38.5 43.1 L 39.1 42.1 L 39.6 41.0 L 39.2 39.8 L 40.9 39.1 L 41.4 40.5 L 42.4 41.7 L 43.1 43.2 L 43.5 44.9 L 43.6 46.7 L 43.4 48.5 L 42.8 50.4 L 42.0 52.2 L 40.9 54.0 L 39.6 55.8 L 35.2 56.9 Z M 92.6 41.9 L 93.5 45.4 L 88.55333337783813 44.35859651565552 L 87.1 45.2 L 85.0 46.2 L 82.9 47.1 L 80.6 48.0 L 78.2 48.8 L 75.7 49.5 L 73.1 50.2 L 70.6 51.2 L 69.7 49.6 L 72.0 48.2 L 73.9 46.3 L 75.6 44.5 L 77.2 42.8 L 78.7 41.1 L 80.0 39.5 L 81.2 38.0 L 82.2 36.5 L 83.1 35.1 L 83.35094337463379 34.598113250732425 L 83.1 34.4 L 84.2 33.3 Z " />
</g>
</svg>
