<svg xmlns="http://www.w3.org/2000/svg" xmlns:xlink="http://www.w3.org/1999/xlink" version="1.1" baseProfile="full" viewBox="0 0 200 200" width="200" height="200">
<g fill="black">
<path d="M 140.2 176.0 L 152.2 176.0 L 153.4 175.9 L 154.3 175.7 L 154.9 175.5 L 155.3 175.4 L 155.5 175.2 L 155.6 175.0 L 155.8 174.7 L 156.0 174.1 L 156.1 173.2 L 156.2 172.0 L 156.2 82.0 L 121.6 82.0 L 121.6 78.0 L 166.5 78.0 L 176.5 68.0 L 188.5 78.0 L 188.5 82.0 L 168.2 82.0 L 168.2 172.0 L 168.1 174.5 L 167.6 177.0 L 166.8 179.4 L 165.6 181.7 L 163.9 183.7 L 161.9 185.3 L 159.7 186.6 L 157.3 187.4 L 154.8 187.8 L 152.2 188.0 L 152.2 182.0 L 140.2 179.0 Z M 125.3 51.1 L 127.3 54.1 L 123.65324869155884 54.67580280303955 L 121.8 58.7 L 118.1 66.1 L 114.1 73.4 L 109.9 80.6 L 105.74655170440674 87.20775861740113 L 110.5 88.0 L 113.5 90.0 L 110.5 91.8 L 110.5 182.0 L 98.5 188.0 L 98.5 97.6326530456543 L 96.0 101.0 L 90.9 107.5 L 85.4 113.6 L 79.6 119.5 L 78.2 118.4 L 82.4 111.3 L 86.5 104.4 L 90.6 97.4 L 94.5 90.4 L 98.2 83.3 L 101.8 76.1 L 105.2 68.9 L 108.4 61.6 L 111.4 54.2 L 113.82839508056641 47.60864200592041 L 113.8 47.6 L 114.7 45.3 Z M 40.0 176.5 L 55.4 176.5 L 56.4 176.4 L 57.0 176.3 L 57.4 176.1 L 57.7 176.0 L 57.8 175.8 L 58.0 175.6 L 58.2 175.1 L 58.4 174.4 L 58.6 173.3 L 58.7 172.0 L 58.7 101.21492538452148 L 56.0 101.9 L 49.1 103.6 L 42.1 105.2 L 35.1 106.7 L 34.713974952697754 106.77506046295166 L 34.6 111.6 L 33.9 123.6 L 32.8 134.8 L 31.3 145.2 L 29.3 154.7 L 27.0 163.5 L 24.2 171.4 L 20.9 178.4 L 17.2 184.5 L 12.9 189.5 L 11.4 188.4 L 13.8 182.6 L 16.0 176.3 L 17.9 169.3 L 19.6 161.6 L 21.0 153.2 L 22.0 143.9 L 22.8 133.9 L 23.2 123.1 L 23.2 111.5 L 23.15994825363159 108.99676656723022 L 20.5 109.5 L 17.1822940826416 110.0828402519226 L 15.5 113.5 L 13.1 110.8 L 9.6 99.1 L 11.6 98.9 L 19.0 98.2 L 23.0 97.81643838882447 L 23.0 34.0 L 35.0 40.0 L 36.84285717010498 40.0 L 37.4 38.7 L 39.0 32.9 L 39.7 30.1 L 41.1 24.7 L 41.6 22.0 L 42.6 16.8 L 42.78742551803589 15.238120460510254 L 42.6 15.2 L 43.4 12.6 L 54.4 17.6 L 56.8 20.3 L 52.59696969985962 21.40606060028076 L 51.9 22.8 L 50.5 25.4 L 48.9 28.0 L 47.3 30.5 L 45.6 33.0 L 43.7 35.4 L 41.8 37.7 L 39.6 40.0 L 58.7 40.0 L 64.2 35.0 L 74.7 44.0 L 69.7 47.5 L 69.7 92.8880597114563 L 74.9 92.5 L 81.6 92.1 L 81.9 93.8 L 75.7 96.2 L 69.7 98.16875 L 69.7 172.0 L 69.5 174.4 L 69.2 176.7 L 68.5 179.0 L 67.5 181.1 L 66.1 183.1 L 64.3 184.7 L 62.3 186.0 L 60.1 186.8 L 57.8 187.3 L 55.4 187.5 L 55.4 182.0 L 40.0 179.2 Z M 50.5 114.0 L 53.2 116.0 L 50.5 117.72340421676635 L 50.5 153.2 L 39.5 158.7 L 39.5 112.0 Z M 35.0 44.0 L 35.0 96.55416669845582 L 40.7 96.0 L 47.7 95.2 L 54.6 94.5 L 58.7 94.0246376991272 L 58.7 44.0 Z M 43.2 75.0 L 42.9 71.5 L 42.4 68.1 L 41.8 65.0 L 41.1 62.0 L 40.3 59.2 L 39.4 56.4 L 38.4 53.7 L 37.0 51.3 L 38.3 50.1 L 40.6 52.0 L 43.0 54.0 L 45.2 56.5 L 47.2 59.2 L 49.1 62.3 L 50.7 65.6 L 52.2 69.2 L 53.4 73.0 L 54.5 77.1 L 55.4 81.4 L 54.0 85.7 L 50.0 87.9 L 45.7 86.6 L 43.5 82.6 L 43.4 78.7 Z M 122.2 19.9 L 123.7 23.1 L 119.89928598403931 23.16552953720093 L 119.1 24.3 L 115.9 28.6 L 112.6 33.0 L 109.0 37.2 L 105.3 41.5 L 101.5 45.7 L 97.4 49.9 L 93.1 53.9 L 88.6 57.8 L 83.7 61.6 L 82.4 60.3 L 85.8 55.3 L 89.1 50.4 L 92.4 45.6 L 95.5 40.9 L 98.6 36.3 L 101.5 31.8 L 104.3 27.2 L 107.0 22.7 L 109.5 18.2 L 111.36523694992066 14.631720733642577 L 111.3 14.6 L 111.72580642700196 13.941935443878174 L 111.8 13.8 L 111.81279211044311 13.807503032684327 L 112.4 12.9 Z M 181.6 24.0 L 181.6 28.0 L 127.8 28.0 L 127.8 24.0 L 159.6 24.0 L 169.6 14.0 Z " />
</g>
</svg>
