<svg xmlns="http://www.w3.org/2000/svg" xmlns:xlink="http://www.w3.org/1999/xlink" version="1.1" baseProfile="full" viewBox="0 0 200 200" width="200" height="200">
<g fill="black">
<path d="M 64.9 177.5 L 78.9 177.5 L 79.8 177.4 L 80.5 177.3 L 81.1 177.0 L 81.5 176.6 L 81.7 176.1 L 81.9 175.4 L 82.1 174.3 L 82.1 77.0 L 30.8 77.0 L 30.8 183.2 L 19.8 188.7 L 19.8 72.8285714149475 L 17.2 75.8 L 12.6 80.5 L 11.2 79.4 L 17.0 68.0 L 19.8 62.5 L 22.4 57.1 L 24.9 51.7 L 27.2 46.3 L 29.3 41.0 L 31.3 35.6 L 33.0 30.3 L 34.326331615448 25.90652666091919 L 34.3 25.9 L 35.1 23.5 L 46.0 28.8 L 48.2 31.7 L 44.457817459106444 32.48782787322998 L 43.7 34.3 L 41.2 39.7 L 38.5 45.1 L 35.5 50.4 L 32.4 55.7 L 29.0 60.9 L 25.4 66.0 L 22.94285717010498 69.07142858505249 L 30.8 73.0 L 49.9 73.0 L 49.9 14.0 L 61.9 16.0 L 64.9 18.0 L 61.9 19.8 L 61.9 73.0 L 82.1 73.0 L 87.6 68.0 L 98.1 77.0 L 93.1 80.5 L 93.1 173.0 L 93.0 175.4 L 92.6 177.7 L 92.0 180.0 L 91.0 182.1 L 89.6 184.1 L 87.8 185.7 L 85.8 187.0 L 83.5 187.8 L 81.2 188.3 L 78.9 188.5 L 78.9 183.0 L 64.9 180.2 Z M 183.5 145.0 L 185.5 145.0 L 183.5 170.0 L 187.1 172.4 L 189.5 176.0 L 187.1 179.6 L 183.5 182.0 L 128.3 182.0 L 125.7 181.8 L 123.2 181.4 L 120.8 180.6 L 118.5 179.3 L 116.5 177.7 L 114.9 175.7 L 113.7 173.4 L 112.8 171.0 L 112.4 168.5 L 112.3 166.0 L 112.3 73.13636360168456 L 111.1 75.1 L 106.3 82.3 L 101.1 89.4 L 99.6 88.5 L 103.0 80.5 L 106.3 72.6 L 109.6 64.9 L 112.8 57.4 L 115.8 49.9 L 118.5 42.6 L 121.1 35.3 L 123.5 28.2 L 125.7 21.1 L 127.44022731781006 15.009204578399657 L 127.4 15.0 L 128.2 12.5 L 139.2 17.7 L 141.4 20.5 L 137.79221792221068 21.401945495605467 L 136.5 24.8 L 133.6 31.9 L 130.97361106872557 38.0 L 153.8 38.0 L 154.29923667907715 37.58396949768066 L 154.4 37.3 L 154.5510489463806 37.37412586212158 L 159.8 33.0 L 170.8 42.0 L 165.8 45.0 L 162.8118577003479 46.24505929946899 L 161.4 48.4 L 159.4 51.3 L 157.3 54.3 L 155.1 57.2 L 152.8 60.1 L 150.4 62.9 L 147.9 65.8 L 145.2 68.6 L 144.842857170105 69.0 L 169.3 69.0 L 175.3 64.0 L 186.3 73.0 L 181.3 77.0 L 181.3 125.0 L 169.3 131.0 L 169.3 119.0 L 124.3 119.0 L 124.3 167.2 L 124.5 168.1 L 124.7 168.7 L 124.9 169.0 L 125.0 169.2 L 125.2 169.4 L 126.1 169.7 L 127.0 169.9 L 128.3 170.0 L 177.5 170.0 Z M 49.1 103.0 L 63.3 103.0 L 68.8 98.0 L 79.3 107.0 L 74.3 110.5 L 74.3 153.0 L 63.3 158.5 L 63.3 147.0 L 49.1 147.0 L 49.1 159.0 L 38.1 164.5 L 38.1 97.5 Z M 49.1 107.0 L 49.1 143.0 L 63.3 143.0 L 63.3 107.0 Z M 124.3 73.0 L 124.3 115.0 L 140.8 115.0 L 140.8 73.0 Z M 152.8 73.0 L 152.8 115.0 L 169.3 115.0 L 169.3 73.0 Z M 129.1112675666809 42.0 L 127.1 46.2 L 123.5 53.4 L 119.6 60.7 L 116.96270265579224 65.33135137557983 L 124.3 69.0 L 141.8285714149475 69.0 L 142.8 67.0 L 144.1 63.4 L 145.5 59.9 L 146.9 56.6 L 148.3 53.2 L 149.6 50.0 L 150.9 46.7 L 152.1 43.6 L 152.7 42.0 Z M 85.5 55.3 L 84.0 51.6 L 82.4 48.0 L 80.6 44.5 L 78.6 41.1 L 76.5 37.8 L 74.2 34.6 L 71.8 31.3 L 69.1 28.3 L 70.2 26.8 L 73.9 28.9 L 77.5 31.1 L 80.9 33.7 L 84.1 36.6 L 87.2 39.8 L 90.0 43.2 L 92.6 46.9 L 95.0 50.7 L 97.2 54.8 L 99.2 59.1 L 98.9 63.7 L 95.5 66.8 L 91.0 66.5 L 87.9 63.1 L 86.8 59.1 Z " />
</g>
</svg>
