<svg xmlns="http://www.w3.org/2000/svg" xmlns:xlink="http://www.w3.org/1999/xlink" version="1.1" baseProfile="full" viewBox="0 0 200 200" width="200" height="200">
<g fill="black">
<path d="M 75.3 144.2 L 74.1 150.8 L 71.9 156.9 L 68.8 162.6 L 64.8 167.8 L 60.1 172.5 L 54.5 176.6 L 48.2 180.3 L 41.1 183.4 L 33.3 186.0 L 24.7 188.0 L 24.2 186.3 L 31.9 182.4 L 38.8 178.6 L 44.8 174.7 L 49.9 170.6 L 54.2 166.4 L 57.5 162.1 L 60.1 157.6 L 61.9 153.1 L 63.0 148.3 L 63.4 143.4 L 63.4 127.6 L 18.4 127.6 L 18.4 123.6 L 159.6 123.6 L 169.6 113.6 L 181.6 123.6 L 181.6 127.6 L 134.5 127.6 L 134.5 182.4 L 122.5 188.4 L 122.5 127.6 L 75.4 127.6 L 75.4 143.8 L 75.14048261642456 144.18927612304688 Z M 157.1 97.3 L 157.1 101.3 L 42.8 101.3 L 42.8 97.3 L 135.1 97.3 L 145.1 87.3 Z M 149.0 15.1 L 152.0 17.1 L 149.0 18.9 L 149.0 57.7 L 165.0 57.7 L 165.0 25.2 L 177.0 27.2 L 180.0 29.2 L 177.0 31.0 L 177.0 67.7 L 165.0 73.7 L 165.0 61.7 L 149.0 61.7 L 149.0 83.4 L 137.0 89.4 L 137.0 61.7 L 119.0 61.7 L 119.0 73.7 L 107.0 79.7 L 107.0 25.2 L 119.0 27.2 L 122.0 29.2 L 119.0 31.0 L 119.0 57.7 L 137.0 57.7 L 137.0 13.1 Z M 66.0 15.1 L 69.0 17.1 L 66.0 18.9 L 66.0 57.7 L 82.0 57.7 L 82.0 25.2 L 94.0 27.2 L 97.0 29.2 L 94.0 31.0 L 94.0 67.7 L 82.0 73.7 L 82.0 61.7 L 65.67857141494751 61.7 L 65.1 65.3 L 63.1 70.4 L 60.1 74.9 L 56.2 78.7 L 51.5 81.8 L 46.1 84.2 L 39.9 86.1 L 33.0 87.4 L 25.4 88.0 L 17.0 88.1 L 16.9 86.3 L 24.8 84.3 L 31.8 82.1 L 37.8 79.8 L 42.9 77.3 L 46.9 74.6 L 49.9 71.8 L 52.0 69.0 L 53.3 66.1 L 53.9 63.0 L 53.93939390182495 61.7 L 37.0 61.7 L 37.0 68.7 L 25.0 74.7 L 25.0 25.2 L 37.0 27.2 L 40.0 29.2 L 37.0 31.0 L 37.0 57.7 L 54.0 57.7 L 54.0 13.1 Z " />
</g>
</svg>
