<svg xmlns="http://www.w3.org/2000/svg" xmlns:xlink="http://www.w3.org/1999/xlink" version="1.1" baseProfile="full" viewBox="0 0 200 200" width="200" height="200">
<g fill="black">
<path d="M 96.3 68.1 L 97.5 71.5 L 93.80084238052368 71.0535499572754 L 89.7 75.9 L 82.8 83.5 L 75.5 90.9 L 67.9 98.2 L 60.53827657699585 104.72304611206054 L 67.0 105.8 L 70.0 107.8 L 67.0 109.6 L 67.0 182.0 L 55.0 188.0 L 55.0 109.40731706619263 L 51.8 112.1 L 43.2 118.7 L 34.3 125.0 L 25.0 131.1 L 15.3 136.8 L 14.3 135.3 L 22.8 128.0 L 31.0 120.8 L 39.0 113.6 L 46.8 106.4 L 54.2 99.0 L 61.3 91.6 L 68.2 84.1 L 74.7 76.4 L 80.9 68.6 L 86.20170135498047 61.501111793518064 L 86.2 61.5 L 86.22156858444214 61.47450981140137 L 86.8 60.7 L 86.8463641166687 60.73611516952515 L 87.3 60.2 Z M 169.8 132.6 L 165.3 130.2 L 160.5 127.8 L 155.3 125.5 L 149.8 123.2 L 144.0 120.9 L 137.9 118.6 L 131.4 116.2 L 126.1 114.2514705657959 L 126.1 182.0 L 114.1 188.0 L 114.1 65.4 L 126.1 67.4 L 129.1 69.4 L 126.1 71.2 L 126.1 111.9904109954834 L 132.3 112.5 L 139.2 113.4 L 145.8 114.6 L 152.1 116.0 L 158.1 117.5 L 163.9 119.2 L 169.3 121.0 L 174.4 122.9 L 179.3 125.0 L 183.9 127.2 L 186.5 130.9 L 185.9 135.4 L 182.3 138.1 L 177.7 137.5 L 173.9 135.0 Z M 134.0 14.1 L 137.0 16.1 L 134.0 17.9 L 134.0 35.4 L 165.0 35.4 L 175.0 25.4 L 187.0 35.4 L 187.0 39.4 L 134.0 39.4 L 134.0 57.8 L 122.0 63.8 L 122.0 39.4 L 78.0 39.4 L 78.0 57.8 L 66.0 63.8 L 66.0 39.4 L 13.0 39.4 L 13.0 35.4 L 66.0 35.4 L 66.0 12.1 L 78.0 14.1 L 81.0 16.1 L 78.0 17.9 L 78.0 35.4 L 122.0 35.4 L 122.0 12.1 Z " />
</g>
</svg>
