<svg xmlns="http://www.w3.org/2000/svg" xmlns:xlink="http://www.w3.org/1999/xlink" version="1.1" baseProfile="full" viewBox="0 0 200 200" width="200" height="200">
<g fill="black">
<path d="M 173.2 145.5 L 175.2 145.5 L 173.2 170.5 L 176.8 172.9 L 179.2 176.5 L 176.8 180.1 L 173.2 182.5 L 96.1 182.5 L 93.5 182.3 L 91.0 181.9 L 88.6 181.1 L 86.3 179.8 L 84.3 178.2 L 82.7 176.2 L 81.4 173.9 L 80.6 171.5 L 80.2 169.0 L 80.1 166.5 L 80.1 153.5870273590088 L 20.0 160.6 L 19.5 156.6 L 80.1 149.5286831855774 L 80.1 129.7243842124939 L 32.8 135.2 L 32.4 131.2 L 80.1 125.6735414505005 L 80.1 109.23218393325806 L 76.9 109.6 L 67.9 110.5 L 58.4 111.2 L 48.6 111.5 L 48.3 109.8 L 57.9 107.4 L 67.0 105.2 L 75.8 103.2 L 80.1 102.125 L 80.1 102.1 L 80.2 102.1 L 84.2 101.1 L 92.1 99.1 L 99.7 97.0 L 106.8 94.9 L 113.6 92.7 L 119.9 90.6 L 124.82735223770142 88.76268224716186 L 124.8 88.7 L 124.85957527160645 88.75066680908203 L 125.8 88.4 L 126.34185104370117 90.01129388809204 L 135.5 97.8 L 135.7 100.8 L 131.60596075057984 99.05401268005372 L 129.6 99.7 L 123.2 101.5 L 116.4 103.1 L 109.3 104.6 L 101.8 106.0 L 93.9 107.4 L 92.1 107.6602409362793 L 92.1 124.28323745727539 L 132.31386518478394 119.62411260604858 L 141.1 108.6 L 154.1 117.1 L 154.6 121.1 L 92.1 128.3352216720581 L 92.1 148.12842245101928 L 151.09798107147216 141.24404258728026 L 159.9 130.2 L 172.9 138.7 L 173.4 142.7 L 92.1 152.18676662445068 L 92.1 167.7 L 92.3 168.6 L 92.5 169.2 L 92.7 169.5 L 92.8 169.7 L 93.0 169.9 L 93.9 170.2 L 94.8 170.4 L 96.1 170.5 L 167.2 170.5 Z M 160.6 109.1 L 153.4 105.0 L 146.4 100.7 L 139.8 96.2 L 133.4 91.4 L 127.4 86.4 L 121.8 81.2 L 116.5 75.6 L 112.34833335876465 70.3 L 91.6453332901001 70.3 L 89.0 73.4 L 81.5 80.6 L 73.1 87.4 L 63.7 93.9 L 53.3 100.0 L 41.9 105.7 L 29.5 111.1 L 16.0 115.9 L 15.3 114.2 L 27.9 107.6 L 39.4 101.0 L 49.9 94.4 L 59.4 87.6 L 67.8 80.8 L 75.1 73.8 L 78.25 70.3 L 19.6 70.3 L 19.6 66.3 L 81.76111106872558 66.3 L 86.6 59.6 L 90.8 52.4 L 93.60481824874878 46.00150833129883 L 93.6 46.0 L 93.75384616851807 45.6615385055542 L 94.0 45.1 L 94.00767631530762 45.103112030029294 L 94.6 43.8 L 105.1 49.6 L 107.1 52.6 L 103.22914361953735 53.21118783950806 L 100.8 57.9 L 95.4 65.9 L 95.0586667060852 66.3 L 158.3 66.3 L 168.3 56.3 L 180.3 66.3 L 180.3 70.3 L 116.05238094329835 70.3 L 119.3 72.5 L 125.5 76.6 L 131.7 80.6 L 138.2 84.5 L 144.8 88.3 L 151.5 91.8 L 158.5 95.2 L 165.7 98.4 L 173.1 101.4 L 180.8 104.3 L 187.4 106.9 L 175.9 116.5 L 168.1 112.9 Z M 134.0 14.4 L 137.0 16.4 L 134.0 18.2 L 134.0 32.3 L 165.0 32.3 L 175.0 22.3 L 187.0 32.3 L 187.0 36.3 L 134.0 36.3 L 134.0 51.5 L 122.0 57.5 L 122.0 36.3 L 78.0 36.3 L 78.0 51.5 L 66.0 57.5 L 66.0 36.3 L 13.0 36.3 L 13.0 32.3 L 66.0 32.3 L 66.0 12.4 L 78.0 14.4 L 81.0 16.4 L 78.0 18.2 L 78.0 32.3 L 122.0 32.3 L 122.0 12.4 Z " />
</g>
</svg>
