<svg xmlns="http://www.w3.org/2000/svg" xmlns:xlink="http://www.w3.org/1999/xlink" version="1.1" baseProfile="full" viewBox="0 0 200 200" width="200" height="200">
<g fill="black">
<path d="M 146.5 177.9 L 136.4 174.5 L 125.9 171.2 L 115.2 168.1 L 111.40174894332885 167.04869832992554 L 100.0 172.7 L 87.0 177.3 L 72.5 181.0 L 56.6 183.6 L 39.1 185.1 L 20.2 185.5 L 20.1 183.7 L 38.8 181.3 L 55.7 178.3 L 71.0 174.6 L 84.6 170.1 L 96.4 165.0 L 98.76039361953735 163.62115621566772 L 92.6 162.0 L 80.8 159.1 L 68.8 156.2 L 62.01287212371826 154.5579529762268 L 60.7 155.9 L 56.2 160.4 L 51.5 164.8 L 43.4 155.9 L 47.9 151.7 L 52.2 147.4 L 56.4 143.1 L 60.5 138.6 L 64.4 134.0 L 65.04680852890014 133.2 L 14.1 133.2 L 14.1 129.2 L 68.2770833015442 129.2 L 71.9 124.5 L 75.5 119.6 L 78.9 114.5 L 82.2 109.4 L 82.7 108.6 L 92.4 115.7 L 93.9 119.0 L 90.33906974792481 118.93860464096069 L 88.9 121.2 L 85.3 126.5 L 83.32692308425904 129.2 L 163.8 129.2 L 173.8 119.2 L 185.8 129.2 L 185.8 133.2 L 141.94761905670165 133.2 L 141.9 133.3 L 136.8 143.3 L 129.9 152.3 L 121.5 160.2 L 120.90892639160157 160.60193004608155 L 128.3 162.2 L 139.2 164.9 L 149.7 167.7 L 160.0 170.7 L 169.9 173.9 L 173.2 177.0 L 173.5 181.6 L 170.3 184.9 L 165.8 185.2 L 156.3 181.5 Z M 80.33000001907348 133.2 L 77.6 136.7 L 73.6 141.7 L 69.5 146.5 L 65.2 151.3 L 64.40763645172119 152.10997161865234 L 69.4 152.5 L 81.8 153.9 L 93.9 155.6 L 105.7 157.6 L 107.89180765151977 158.01930236816406 L 115.0 152.5 L 121.8 145.3 L 127.0 137.5 L 128.842857170105 133.2 Z M 147.0 69.6 L 149.0 69.6 L 147.0 94.6 L 150.6 97.0 L 153.0 100.6 L 150.6 104.2 L 147.0 106.6 L 76.0 106.6 L 73.4 106.5 L 70.9 106.0 L 68.5 105.2 L 66.2 104.0 L 64.2 102.3 L 62.6 100.3 L 61.3 98.1 L 60.5 95.7 L 60.1 93.2 L 60.0 90.6 L 60.0 57.5 L 72.0 59.5 L 75.0 61.5 L 72.0 63.3 L 72.0 91.8 L 72.2 92.7 L 72.4 93.3 L 72.5 93.7 L 72.7 93.9 L 72.9 94.0 L 73.2 94.2 L 73.8 94.4 L 74.7 94.5 L 76.0 94.6 L 141.0 94.6 Z M 15.3 98.7 L 14.9 94.2 L 17.8 90.6 L 20.6 89.3 L 23.2 87.6 L 25.5 85.6 L 27.7 83.2 L 29.7 80.3 L 31.4 77.0 L 33.0 73.2 L 34.3 68.8 L 35.4 64.0 L 36.1 58.7 L 37.9 58.7 L 38.6 64.1 L 39.0 69.4 L 38.9 74.4 L 38.2 79.1 L 37.1 83.6 L 35.4 87.8 L 33.2 91.7 L 30.4 95.2 L 27.2 98.4 L 23.4 101.2 L 18.9 101.6 Z M 170.3 86.0 L 168.8 82.9 L 166.9 79.8 L 164.7 76.6 L 162.2 73.5 L 159.3 70.3 L 156.0 67.1 L 152.4 63.8 L 148.4 60.6 L 149.3 59.0 L 154.1 61.0 L 158.8 63.1 L 163.1 65.5 L 167.0 68.2 L 170.6 71.0 L 173.9 74.1 L 176.9 77.3 L 179.5 80.8 L 181.8 84.5 L 183.7 88.4 L 183.3 93.0 L 179.9 96.0 L 175.4 95.7 L 172.3 92.3 L 171.4 89.1 Z M 108.2 73.9 L 106.4 71.4 L 104.4 68.9 L 102.1 66.5 L 99.7 64.1 L 97.0 61.7 L 94.1 59.3 L 91.0 56.9 L 87.5 54.8 L 88.2 53.1 L 92.2 54.3 L 96.2 55.4 L 99.9 56.8 L 103.5 58.4 L 106.9 60.3 L 110.1 62.3 L 113.2 64.6 L 116.1 67.0 L 118.8 69.7 L 121.3 72.5 L 122.1 77.0 L 119.6 80.8 L 115.1 81.7 L 111.3 79.2 L 109.9 76.5 Z M 134.0 13.5 L 137.0 15.5 L 134.0 17.3 L 134.0 29.6 L 165.0 29.6 L 175.0 19.6 L 187.0 29.6 L 187.0 33.6 L 134.0 33.6 L 134.0 47.0 L 122.0 53.0 L 122.0 33.6 L 78.0 33.6 L 78.0 47.0 L 66.0 53.0 L 66.0 33.6 L 13.0 33.6 L 13.0 29.6 L 66.0 29.6 L 66.0 11.5 L 78.0 13.5 L 81.0 15.5 L 78.0 17.3 L 78.0 29.6 L 122.0 29.6 L 122.0 11.5 Z " />
</g>
</svg>
