<svg xmlns="http://www.w3.org/2000/svg" xmlns:xlink="http://www.w3.org/1999/xlink" version="1.1" baseProfile="full" viewBox="0 0 200 200" width="200" height="200">
<g fill="black">
<path d="M 69.5 176.9 L 89.5 176.9 L 90.7 176.8 L 91.6 176.7 L 92.2 176.5 L 92.5 176.3 L 92.7 176.1 L 92.9 176.0 L 93.0 175.6 L 93.2 175.0 L 93.4 174.1 L 93.5 172.9 L 93.5 117.2 L 105.5 119.2 L 108.5 121.2 L 105.5 123.0 L 105.5 172.9 L 105.3 175.4 L 104.9 177.9 L 104.1 180.3 L 102.8 182.6 L 101.2 184.6 L 99.2 186.3 L 96.9 187.5 L 94.5 188.3 L 92.0 188.7 L 89.5 188.9 L 89.5 182.9 L 69.5 179.9 Z M 73.8 136.0 L 75.4 139.3 L 71.44285717010499 139.3 L 70.3 140.9 L 66.2 145.6 L 61.7 150.1 L 56.8 154.5 L 51.3 158.8 L 45.4 162.9 L 39.1 166.8 L 32.2 170.6 L 24.9 174.1 L 17.0 177.3 L 16.1 175.7 L 23.0 170.8 L 29.4 166.0 L 35.4 161.4 L 40.9 156.8 L 45.9 152.3 L 50.4 147.7 L 54.4 143.2 L 58.0 138.7 L 61.0 134.3 L 63.6 129.8 L 63.62166528701782 129.81316909790038 L 64.1 129.0 Z M 163.5 165.0 L 160.5 161.4 L 157.0 157.7 L 153.0 154.0 L 148.5 150.1 L 143.4 146.1 L 137.8 142.1 L 131.8 137.8 L 125.3 133.3 L 126.1 131.7 L 133.6 134.4 L 140.5 137.4 L 146.9 140.6 L 152.8 143.9 L 158.2 147.2 L 163.1 150.7 L 167.6 154.3 L 171.5 157.9 L 175.1 161.7 L 178.1 165.7 L 178.7 170.2 L 176.1 173.9 L 171.6 174.5 L 167.8 171.9 L 165.9 168.5 Z M 18.4 112.8 L 45.2 112.8 L 45.2 73.2 L 57.2 75.2 L 60.2 77.2 L 57.2 79.0 L 57.2 112.8 L 93.5 112.8 L 93.5 55.6 L 105.5 57.6 L 108.5 59.6 L 105.5 61.4 L 105.5 81.4 L 141.1 81.4 L 151.1 71.4 L 163.1 81.4 L 163.1 85.4 L 105.5 85.4 L 105.5 112.8 L 158.5 112.8 L 168.5 102.8 L 180.5 112.8 L 180.5 116.8 L 18.4 116.8 Z M 134.0 14.8 L 137.0 16.8 L 134.0 18.6 L 134.0 35.6 L 165.0 35.6 L 175.0 25.6 L 187.0 35.6 L 187.0 39.6 L 134.0 39.6 L 134.0 57.5 L 122.0 63.5 L 122.0 39.6 L 78.0 39.6 L 78.0 57.5 L 66.0 63.5 L 66.0 39.6 L 13.0 39.6 L 13.0 35.6 L 66.0 35.6 L 66.0 12.8 L 78.0 14.8 L 81.0 16.8 L 78.0 18.6 L 78.0 35.6 L 122.0 35.6 L 122.0 12.8 Z " />
</g>
</svg>
