<svg xmlns="http://www.w3.org/2000/svg" xmlns:xlink="http://www.w3.org/1999/xlink" version="1.1" baseProfile="full" viewBox="0 0 200 200" width="200" height="200">
<g fill="black">
<path d="M 151.3 181.5 L 139.7 177.1 L 128.9 171.9 L 119.0 166.1 L 116.24327936172486 164.15231695175171 L 108.1 168.5 L 95.1 173.9 L 80.7 178.6 L 65.1 182.5 L 48.2 185.4 L 30.1 187.4 L 29.8 185.7 L 47.5 181.7 L 63.8 177.3 L 78.7 172.4 L 92.2 166.9 L 104.3 160.9 L 108.39571104049682 158.349840259552 L 101.6 152.3 L 94.2 144.3 L 87.9 135.7 L 83.4744680404663 127.7 L 78.42190475463867 127.7 L 70.3 138.1 L 60.9 148.1 L 50.5 157.5 L 39.0 166.5 L 26.3 174.8 L 12.4 182.4 L 11.5 180.9 L 24.1 171.6 L 35.7 162.2 L 46.1 152.7 L 55.4 142.9 L 63.6 132.8 L 70.7 122.5 L 76.7 111.8 L 78.67798166275024 107.4 L 16.0 107.4 L 16.0 103.4 L 80.47614679336547 103.4 L 81.6 100.9 L 85.4 89.7 L 86.82715873718261 83.62136106491089 L 81.4 84.0 L 68.3 84.7 L 55.0 85.2 L 41.5 85.3 L 28.0 85.1 L 27.9 83.3 L 41.3 81.5 L 54.6 79.9 L 67.7 78.2 L 80.6 76.5 L 93.3 74.6 L 105.9 72.7 L 118.3 70.6 L 130.5 68.3 L 142.5 66.0 L 153.303209400177 63.711184406280516 L 153.3 63.7 L 153.31153526306153 63.70942049026489 L 154.3 63.5 L 154.53807907104493 64.71109790802002 L 165.3 73.5 L 165.7 76.5 L 161.18583145141602 74.30391798019409 L 156.6 75.2 L 144.5 77.2 L 132.2 78.9 L 119.7 80.5 L 107.1 81.9 L 99.23761653900146 82.63709840774536 L 96.2 93.1 L 92.08000001907348 103.4 L 164.0 103.4 L 174.0 93.4 L 186.0 103.4 L 186.0 107.4 L 90.21999998092652 107.4 L 85.5 116.6 L 80.98181819915771 123.7 L 143.0 123.7 L 143.3140625 123.43828125 L 143.7 122.8 L 143.9301037788391 122.9249135017395 L 149.0 118.7 L 160.0 127.7 L 155.0 130.7 L 151.84481525421143 132.01466026306153 L 147.7 138.2 L 139.7 147.0 L 130.5 155.0 L 125.01677913665772 158.72445192337037 L 133.4 162.7 L 143.7 166.8 L 154.8 170.2 L 166.6 173.0 L 179.1 175.1 L 188.7 176.8 L 176.8 188.2 L 163.7 185.2 Z M 86.35384616851806 127.7 L 91.2 133.1 L 98.5 140.3 L 106.3 146.9 L 114.7 152.8 L 115.92210445404052 153.5196837425232 L 124.2 147.2 L 132.0 139.6 L 138.5 131.4 L 140.73720932006836 127.7 Z M 134.0 14.0 L 137.0 16.0 L 134.0 17.8 L 134.0 37.0 L 165.0 37.0 L 175.0 27.0 L 187.0 37.0 L 187.0 41.0 L 134.0 41.0 L 134.0 61.0 L 122.0 67.0 L 122.0 41.0 L 78.0 41.0 L 78.0 61.0 L 66.0 67.0 L 66.0 41.0 L 13.0 41.0 L 13.0 37.0 L 66.0 37.0 L 66.0 12.0 L 78.0 14.0 L 81.0 16.0 L 78.0 17.8 L 78.0 37.0 L 122.0 37.0 L 122.0 12.0 Z " />
</g>
</svg>
