<svg xmlns="http://www.w3.org/2000/svg" xmlns:xlink="http://www.w3.org/1999/xlink" version="1.1" baseProfile="full" viewBox="0 0 200 200" width="200" height="200">
<g fill="black">
<path d="M 70.0 176.3 L 90.0 176.3 L 91.2 176.2 L 92.1 176.0 L 92.7 175.9 L 93.0 175.7 L 93.4 175.3 L 93.7 174.4 L 93.9 173.5 L 94.0 172.3 L 94.0 150.6 L 13.0 150.6 L 13.0 146.6 L 94.0 146.6 L 94.0 132.1 L 104.73432836532592 133.8890546798706 L 106.1 133.1 L 110.5 130.7 L 114.8 128.4 L 123.2 124.0 L 128.5333333015442 121.2 L 44.0 121.2 L 44.0 117.2 L 136.13999996185302 117.2 L 138.8 115.8 L 142.5 113.8 L 142.65806455612181 114.15161294937134 L 145.0 112.2 L 156.0 121.2 L 151.0 124.2 L 139.0 129.2 L 139.0 127.69767446517945 L 130.7 130.4 L 121.7 133.0 L 117.0 134.3 L 112.2 135.4 L 108.94609375 136.0640625 L 109.0 136.1 L 106.0 137.9 L 106.0 146.6 L 166.0 146.6 L 176.0 136.6 L 188.0 146.6 L 188.0 150.6 L 106.0 150.6 L 106.0 172.3 L 105.8 174.8 L 105.4 177.3 L 104.6 179.7 L 103.3 182.0 L 101.7 184.0 L 99.7 185.7 L 97.4 186.9 L 95.0 187.7 L 92.5 188.1 L 90.0 188.3 L 90.0 182.3 L 70.0 179.3 Z M 159.5 112.3 L 151.6 108.6 L 143.9 104.6 L 136.6 100.2 L 129.5 95.3 L 122.8 90.0 L 116.4 84.3 L 110.4 78.1 L 106.0 72.64074077606202 L 106.0 109.0 L 94.0 115.0 L 94.0 79.16617650985718 L 92.5 80.6 L 85.3 86.7 L 77.7 92.4 L 69.7 97.6 L 61.4 102.4 L 52.7 106.7 L 43.6 110.5 L 34.2 113.9 L 24.4 116.7 L 14.2 118.8 L 13.7 117.1 L 23.1 113.1 L 32.2 108.9 L 40.9 104.5 L 49.2 99.9 L 57.0 95.1 L 64.5 89.9 L 71.6 84.4 L 78.3 78.5 L 84.6 72.4 L 84.95 72.0 L 20.0 72.0 L 20.0 68.0 L 94.0 68.0 L 94.0 49.4 L 106.0 51.4 L 109.0 53.4 L 106.0 55.2 L 106.0 68.0 L 158.0 68.0 L 168.0 58.0 L 180.0 68.0 L 180.0 72.0 L 108.97551021575927 72.0 L 113.2 75.0 L 120.1 79.7 L 127.0 84.2 L 134.0 88.3 L 141.2 92.0 L 148.5 95.5 L 156.0 98.5 L 163.7 101.2 L 171.6 103.6 L 179.6 105.6 L 188.0 107.8 L 176.3 118.3 L 167.8 115.5 Z M 134.0 13.7 L 137.0 15.7 L 134.0 17.5 L 134.0 30.2 L 165.0 30.2 L 175.0 20.2 L 187.0 30.2 L 187.0 34.2 L 134.0 34.2 L 134.0 48.0 L 122.0 54.0 L 122.0 34.2 L 78.0 34.2 L 78.0 48.0 L 66.0 54.0 L 66.0 34.2 L 13.0 34.2 L 13.0 30.2 L 66.0 30.2 L 66.0 11.7 L 78.0 13.7 L 81.0 15.7 L 78.0 17.5 L 78.0 30.2 L 122.0 30.2 L 122.0 11.7 Z " />
</g>
</svg>
