<svg xmlns="http://www.w3.org/2000/svg" xmlns:xlink="http://www.w3.org/1999/xlink" version="1.1" baseProfile="full" viewBox="0 0 200 200" width="200" height="200">
<g fill="black">
<path d="M 136.3 183.5 L 122.9 180.5 L 110.6 176.8 L 99.9216407775879 172.79561529159545 L 97.7 173.7 L 85.3 177.6 L 71.7 180.8 L 57.1 183.5 L 41.3 185.4 L 24.4 186.6 L 24.3 184.8 L 40.8 181.6 L 56.1 178.2 L 70.1 174.5 L 83.0 170.3 L 89.31045484542847 167.8519787788391 L 89.2 167.8 L 80.1 162.3 L 72.2 156.2 L 65.5 149.5 L 60.72162160873413 142.7 L 39.7 142.7 L 39.7 138.7 L 132.4876922607422 138.7 L 133.9 137.0 L 134.33416757583618 137.33819370269777 L 138.7 133.7 L 149.7 142.7 L 144.7 145.7 L 140.46184968948364 147.4658959388733 L 136.5 151.6 L 128.4 158.1 L 119.3 164.0 L 113.33615674972535 166.95297088623047 L 113.5 167.0 L 125.4 169.7 L 138.3 171.9 L 152.2 173.5 L 167.1 174.6 L 177.9 175.5 L 166.0 187.8 L 150.6 185.9 Z M 63.892727279663085 142.7 L 68.4 146.4 L 75.7 151.5 L 83.8 156.1 L 92.7 160.2 L 100.32456016540527 163.02108726501464 L 104.9 160.8 L 114.0 155.4 L 121.9 149.6 L 128.5 143.5 L 129.1646153450012 142.7 Z M 136.4 133.7 L 134.1 133.5 L 131.8 133.0 L 129.7 132.0 L 127.7 130.7 L 126.0 128.9 L 124.7 126.9 L 123.7 124.6 L 123.1 122.2 L 122.8 119.6 L 122.8 99.4 L 73.6 99.4 L 73.6 108.5 L 73.3947380065918 108.79557723999024 L 73.5 108.8 L 72.4 114.1 L 70.3 119.0 L 67.1 123.3 L 63.1 127.1 L 58.3 130.3 L 52.7 133.2 L 46.4 135.6 L 39.3 137.7 L 31.4 139.3 L 22.7 140.5 L 22.4 138.7 L 30.4 135.7 L 37.6 132.6 L 43.8 129.6 L 49.1 126.5 L 53.4 123.4 L 56.8 120.2 L 59.2 117.1 L 60.7 114.1 L 61.4 111.2 L 61.6 108.3 L 61.6 95.47415733337402 L 53.9 99.8 L 44.3 104.4 L 34.2 108.5 L 23.5 112.1 L 12.2 115.1 L 11.7 113.4 L 22.2 108.6 L 32.1 103.6 L 41.4 98.6 L 50.0 93.3 L 53.57594871520996 90.87188673019409 L 49.6 89.3 L 48.1 87.4 L 46.4 85.5 L 44.5 83.6 L 42.5 81.7 L 40.3 79.8 L 37.9 78.0 L 35.4 76.1 L 32.6 74.3 L 29.8 72.4 L 26.6 70.8 L 27.2 69.1 L 30.7 69.9 L 34.2 70.4 L 37.6 71.1 L 40.9 72.1 L 44.0 73.2 L 47.0 74.4 L 49.9 75.8 L 52.7 77.3 L 55.4 78.9 L 58.0 80.7 L 59.7 84.9 L 58.835403728485105 87.22360248565674 L 65.5 82.0 L 72.4 76.0 L 78.5 69.7 L 84.1 63.2 L 84.98235292434693 62.0 L 33.0 62.0 L 33.0 58.0 L 87.9235294342041 58.0 L 89.1 56.4 L 89.53655319213867 56.71953897476196 L 94.0 53.0 L 105.0 62.0 L 100.0 65.0 L 96.19130430221557 66.58695650100708 L 92.8 70.6 L 86.2 77.3 L 78.9 83.6 L 71.2 89.4 L 67.0 92.1 L 73.6 95.4 L 122.8 95.4 L 128.8 90.4 L 139.8 99.4 L 134.8 103.4 L 134.8 119.6 L 134.6 120.9 L 134.6 122.6 L 134.8 123.6 L 135.0 124.0 L 135.5 124.5 L 136.2 125.0 L 137.3 125.4 L 138.8 125.6 L 166.2 125.6 L 170.2 116.6 L 172.2 116.6 L 170.2 125.6 L 172.6 127.2 L 174.2 129.6 L 172.6 132.0 L 170.2 133.6 L 138.8 133.6 Z M 158.7 104.8 L 149.2 99.8 L 140.5 94.5 L 132.6 88.7 L 125.5 82.5 L 119.3 75.8 L 114.0 68.8 L 109.7 61.4 L 106.6 53.5 L 108.2 52.7 L 113.2 59.1 L 118.6 65.1 L 124.5 70.8 L 131.0 76.2 L 131.02740554809571 76.21891374588013 L 131.6 75.7 L 134.5 72.7 L 137.2 69.9 L 139.8 67.3 L 142.2 64.8 L 144.4 62.5 L 146.4 60.4 L 148.2 58.4 L 149.9 56.5 L 150.66862745285033 55.56666669845581 L 150.5 55.4 L 151.4 54.7 L 159.1 63.9 L 159.6 67.5 L 155.44425954818726 66.09001665115356 L 154.8 66.5 L 152.3 67.9 L 149.7 69.4 L 146.9 71.0 L 143.8 72.6 L 140.5 74.4 L 137.0 76.2 L 133.4807505607605 77.91206731796265 L 138.1 81.1 L 145.8 85.8 L 147.83710708618165 86.80657052993774 L 151.4 83.9 L 155.0 81.0 L 158.3 78.3 L 161.4 75.8 L 164.2 73.5 L 166.7 71.4 L 169.0 69.4 L 171.0 67.6 L 171.91650066375732 66.7374111175537 L 171.8 66.6 L 171.91885395050048 66.73519630432129 L 172.7 66.0 L 178.44189624786378 74.15515699386597 L 179.8 75.7 L 179.9 79.2 L 176.03923254013063 77.55559902191162 L 174.8 78.2 L 172.0 79.5 L 168.9 81.0 L 165.6 82.5 L 162.0 84.2 L 158.0 86.0 L 153.8 87.8 L 151.59433851242065 88.66308488845826 L 154.3 90.0 L 163.4 94.0 L 173.3 97.6 L 183.9 100.8 L 191.6 103.2 L 180.0 113.4 L 168.9 109.3 Z M 134.0 13.8 L 137.0 15.8 L 134.0 17.6 L 134.0 30.6 L 165.0 30.6 L 175.0 20.6 L 187.0 30.6 L 187.0 34.6 L 134.0 34.6 L 134.0 48.6 L 122.0 54.6 L 122.0 34.6 L 78.0 34.6 L 78.0 48.6 L 66.0 54.6 L 66.0 34.6 L 13.0 34.6 L 13.0 30.6 L 66.0 30.6 L 66.0 11.8 L 78.0 13.8 L 81.0 15.8 L 78.0 17.6 L 78.0 30.6 L 122.0 30.6 L 122.0 11.8 Z " />
</g>
</svg>
