<svg xmlns="http://www.w3.org/2000/svg" xmlns:xlink="http://www.w3.org/1999/xlink" version="1.1" baseProfile="full" viewBox="0 0 200 200" width="200" height="200">
<g fill="black">
<path d="M 156.5 183.3 L 154.4 184.1 L 152.2 184.9 L 150.1 185.5 L 147.9 186.0 L 145.7 186.4 L 143.4 186.6 L 141.2 186.8 L 138.9 186.9 L 138.9 180.9 L 118.9 177.9 L 118.9 174.9 L 138.9 174.9 L 142.3 174.7 L 143.9 174.5 L 145.5 174.2 L 148.7 173.4 L 150.2 172.9 L 151.8 172.3 L 153.3 171.6 L 154.8 170.8 L 156.7 169.4 L 158.6 167.2 L 160.5 163.9 L 162.2 159.6 L 163.7 154.2 L 165.0 147.7 L 166.0 140.2 L 166.6 131.7 L 166.9 122.2 L 166.9 113.7 L 105.0 113.7 L 105.0 114.0 L 93.0 114.0 L 93.0 113.7 L 60.63199996948242 113.7 L 59.4 115.1 L 54.7 119.9 L 49.5 124.5 L 43.9 129.1 L 37.8 133.5 L 31.4 137.7 L 24.4 141.6 L 16.9 145.3 L 16.0 143.7 L 22.3 138.5 L 28.2 133.3 L 33.7 128.3 L 38.9 123.4 L 43.6 118.4 L 47.9 113.5 L 51.7 108.6 L 55.1 103.7 L 58.1 98.9 L 60.13325777053833 94.91481485366822 L 60.1 94.9 L 61.1 93.0 L 71.1 99.8 L 72.8 103.0 L 68.92021713256835 103.13378562927247 L 67.7 105.0 L 64.10588235855103 109.7 L 93.0 109.7 L 93.0 85.0 L 20.0 85.0 L 20.0 81.0 L 93.0 81.0 L 93.0 61.0 L 33.0 61.0 L 33.0 57.0 L 142.0 57.0 L 152.0 47.0 L 164.0 57.0 L 164.0 61.0 L 105.0 61.0 L 105.0 81.0 L 159.0 81.0 L 169.0 71.0 L 181.0 81.0 L 181.0 85.0 L 105.0 85.0 L 105.0 109.7 L 166.9 109.7 L 172.9 104.7 L 183.9 113.7 L 178.9 116.7 L 178.9 122.4 L 178.6 132.3 L 177.9 141.4 L 176.9 149.6 L 175.4 156.9 L 173.6 163.4 L 171.3 169.2 L 168.4 174.1 L 164.8 178.2 L 160.6 181.3 L 158.5 182.4 Z M 71.2 127.3 L 117.1 127.3 L 123.1 122.3 L 134.1 131.3 L 129.1 135.3 L 129.1 163.7 L 117.1 169.7 L 117.1 159.7 L 71.2 159.7 L 71.2 166.7 L 59.2 172.7 L 59.2 121.3 Z M 71.2 131.3 L 71.2 155.7 L 117.1 155.7 L 117.1 131.3 Z M 134.0 13.5 L 137.0 15.5 L 134.0 17.3 L 134.0 29.6 L 165.0 29.6 L 175.0 19.6 L 187.0 29.6 L 187.0 33.6 L 134.0 33.6 L 134.0 47.0 L 122.0 53.0 L 122.0 33.6 L 78.0 33.6 L 78.0 47.0 L 66.0 53.0 L 66.0 33.6 L 13.0 33.6 L 13.0 29.6 L 66.0 29.6 L 66.0 11.5 L 78.0 13.5 L 81.0 15.5 L 78.0 17.3 L 78.0 29.6 L 122.0 29.6 L 122.0 11.5 Z " />
</g>
</svg>
