<svg xmlns="http://www.w3.org/2000/svg" xmlns:xlink="http://www.w3.org/1999/xlink" version="1.1" baseProfile="full" viewBox="0 0 200 200" width="200" height="200">
<g fill="black">
<path d="M 174.6 174.5 L 173.3 171.6 L 171.6 168.7 L 171.07156858444213 167.91993465423585 L 166.3 169.1 L 156.9 171.2 L 137.9 174.8 L 128.3 176.5 L 108.9 179.7 L 99.0 181.2 L 89.2 182.7 L 83.23502864837647 183.53509597778321 L 81.5 186.9 L 79.2 184.1 L 75.9 172.4 L 77.8 172.2 L 87.8 171.4 L 97.8 170.5 L 100.48130769729615 170.28111772537233 L 103.6 167.2 L 111.7 159.3 L 119.4 151.7 L 126.8 144.3 L 133.9 137.1 L 140.5 130.2 L 146.7 123.4 L 152.6 116.8 L 158.0 110.3 L 162.42641506195068 104.91886796951295 L 162.4 104.9 L 163.5 103.6 L 172.2 111.9 L 173.2 115.3 L 169.5217391014099 114.7192219734192 L 166.5 117.9 L 160.4 124.1 L 153.9 130.4 L 147.0 136.8 L 139.7 143.3 L 132.0 149.9 L 123.8 156.6 L 115.2 163.3 L 106.51698112487793 169.78840970993042 L 107.6 169.7 L 117.5 168.9 L 146.6 166.5 L 156.2 165.9 L 165.8 165.4 L 169.24111804962158 165.29133310317994 L 166.9 162.5 L 163.9 159.3 L 160.5 156.0 L 156.7 152.5 L 152.4 149.1 L 153.3 147.5 L 158.4 149.8 L 163.3 152.0 L 167.7 154.5 L 171.7 157.2 L 175.3 160.0 L 178.6 163.0 L 181.4 166.1 L 183.9 169.5 L 186.0 173.0 L 187.6 176.7 L 187.0 181.2 L 183.4 184.1 L 178.8 183.4 L 176.0 179.8 L 175.5 177.2 Z M 61.7 181.0 L 59.9 182.6 L 57.9 184.0 L 55.9 185.2 L 53.7 186.2 L 51.4 186.9 L 49.1 187.5 L 46.6 187.8 L 44.2 187.9 L 44.2 181.9 L 30.2 178.9 L 30.2 175.9 L 44.2 175.9 L 47.0 175.7 L 48.2 175.4 L 49.3 175.0 L 50.4 174.5 L 51.4 173.9 L 52.4 173.2 L 53.3 172.4 L 54.2 171.4 L 55.1 170.3 L 56.3 168.4 L 57.5 165.9 L 58.6 162.9 L 59.6 159.4 L 60.5 155.3 L 61.3 150.7 L 62.0 145.6 L 62.5 140.0 L 62.9 133.9 L 63.03538465499878 129.5 L 30.91329927444458 129.5 L 29.6 137.4 L 16.8 141.3 L 25.3 90.4 L 34.73291139602661 97.3 L 62.2 97.3 L 62.2 71.5 L 16.8 71.5 L 16.8 67.5 L 62.2 67.5 L 68.2 62.5 L 79.2 71.5 L 74.2 75.5 L 74.2 105.3 L 62.2 111.3 L 62.2 101.3 L 35.60127878189087 101.3 L 31.578260898590088 125.5 L 63.1 125.5 L 69.1 120.5 L 80.1 129.5 L 75.1 132.5 L 74.95916872024536 132.5586796760559 L 74.9 134.6 L 74.5 141.0 L 73.9 147.0 L 73.2 152.5 L 72.3 157.6 L 71.2 162.4 L 70.0 166.7 L 68.5 170.6 L 66.8 174.1 L 64.9 177.3 L 63.4 179.2 Z M 114.2 134.3 L 112.8 131.9 L 111.0 129.4 L 108.7 126.7 L 106.0 123.8 L 102.9 120.8 L 99.4 117.6 L 95.5 114.1 L 91.2 110.7 L 92.1 109.1 L 97.2 111.5 L 102.0 113.7 L 106.4 116.0 L 110.4 118.3 L 110.41463413238526 118.30975608825683 L 112.0 115.9 L 114.3 112.2 L 116.6 108.6 L 121.0 101.8 L 125.0 95.4 L 126.8 92.3 L 128.6 89.4 L 129.26206893920897 88.2 L 81.6 88.2 L 81.6 84.2 L 124.6 84.2 L 124.6 60.6 L 136.6 62.6 L 139.6 64.6 L 136.6 66.4 L 136.6 84.2 L 164.7 84.2 L 174.7 74.2 L 186.7 84.2 L 186.7 88.2 L 133.63684206008912 88.2 L 140.0 93.4 L 141.3 96.7 L 137.30684270858765 96.42460985183716 L 132.7 101.4 L 130.0 104.1 L 124.2 109.7 L 121.1 112.5 L 117.8 115.3 L 114.3 118.0 L 112.36050958633423 119.60700635910034 L 114.0 120.7 L 117.2 123.1 L 120.1 125.5 L 122.6 127.9 L 124.8 130.5 L 126.7 133.2 L 126.7 137.8 L 123.6 141.1 L 119.1 141.2 L 115.7 138.1 L 115.2 136.3 Z M 134.0 13.9 L 137.0 15.9 L 134.0 17.7 L 134.0 32.7 L 165.0 32.7 L 175.0 22.7 L 187.0 32.7 L 187.0 36.7 L 134.0 36.7 L 134.0 52.7 L 122.0 58.7 L 122.0 36.7 L 78.0 36.7 L 78.0 52.7 L 66.0 58.7 L 66.0 36.7 L 13.0 36.7 L 13.0 32.7 L 66.0 32.7 L 66.0 11.9 L 78.0 13.9 L 81.0 15.9 L 78.0 17.7 L 78.0 32.7 L 122.0 32.7 L 122.0 11.9 Z " />
</g>
</svg>
