<svg xmlns="http://www.w3.org/2000/svg" xmlns:xlink="http://www.w3.org/1999/xlink" version="1.1" baseProfile="full" viewBox="0 0 200 200" width="200" height="200">
<g fill="black">
<path d="M 36.3 57.7 L 165.7 57.7 L 171.7 52.7 L 182.7 61.7 L 177.7 65.7 L 177.7 181.0 L 165.7 187.0 L 165.7 179.0 L 36.3 179.0 L 36.3 182.0 L 24.3 188.0 L 24.3 51.7 Z M 36.3 61.7 L 36.3 175.0 L 165.7 175.0 L 165.7 61.7 Z M 123.5 142.4 L 114.8 134.1 L 105.9 126.1 L 104.05837497711181 124.55541124343873 L 100.0 128.5 L 88.8 138.2 L 77.2 147.4 L 65.2 155.9 L 52.8 163.7 L 39.8 170.7 L 38.9 169.2 L 50.6 160.5 L 62.1 151.6 L 73.1 142.2 L 83.8 132.5 L 94.0 122.4 L 97.28930034637452 118.8781229019165 L 96.6 118.3 L 87.1 110.9 L 77.3 103.7 L 67.2 96.8 L 56.8 90.0 L 46.3 83.3 L 47.1 81.7 L 58.7 86.6 L 69.9 92.1 L 80.8 98.2 L 91.4 104.7 L 101.7 111.6 L 103.11919555664062 112.63601274490357 L 103.9 111.8 L 113.4 100.7 L 122.5 89.1 L 131.1 77.1 L 138.85046501159667 65.42761297225952 L 138.8 65.4 L 139.9 63.8 L 149.4 71.2 L 150.8 74.5 L 147.13317308425903 74.37355766296386 L 140.4 83.8 L 130.9 95.8 L 121.0 107.2 L 110.7 118.1 L 110.65887098312378 118.13997583389282 L 111.7 118.9 L 121.4 126.5 L 130.8 134.6 L 140.0 143.0 L 148.8 151.9 L 150.3 156.2 L 148.4 160.3 L 144.1 161.8 L 139.9 160.0 L 131.9 151.0 Z M 103.3 162.0 L 101.9 160.0 L 100.4 158.1 L 98.7 156.1 L 96.8 154.2 L 92.4 150.4 L 89.9 148.4 L 87.1 146.8 L 87.7 145.2 L 90.9 146.1 L 94.1 146.7 L 97.2 147.6 L 100.2 148.7 L 103.1 150.0 L 105.8 151.5 L 108.4 153.1 L 110.8 154.9 L 113.1 156.9 L 115.3 159.1 L 116.2 163.5 L 113.9 167.4 L 109.4 168.4 L 105.5 166.0 L 104.5 164.0 Z M 64.4 125.9 L 62.9 123.6 L 61.3 121.4 L 59.4 119.3 L 57.4 117.1 L 55.3 115.0 L 53.0 112.8 L 50.5 110.7 L 47.7 108.8 L 48.5 107.2 L 51.7 108.3 L 55.1 109.2 L 58.2 110.4 L 61.3 111.8 L 64.2 113.3 L 67.0 115.0 L 69.6 116.9 L 72.2 119.0 L 74.5 121.2 L 76.8 123.5 L 77.7 128.0 L 75.3 131.9 L 70.8 132.8 L 67.0 130.4 L 65.8 128.1 Z M 141.1 123.5 L 139.8 121.3 L 138.4 119.2 L 137.0 117.2 L 135.4 115.2 L 133.7 113.3 L 130.0 109.6 L 127.7 108.2 L 128.4 106.5 L 131.1 107.4 L 133.9 108.0 L 136.6 108.9 L 139.3 110.1 L 141.9 111.6 L 144.4 113.2 L 146.8 115.1 L 149.1 117.1 L 151.4 119.4 L 153.5 121.8 L 154.1 126.4 L 151.5 130.1 L 147.0 130.8 L 143.3 128.2 L 142.2 125.8 Z M 98.3 90.3 L 96.6 87.8 L 94.8 85.3 L 92.8 82.9 L 90.6 80.4 L 88.4 78.0 L 85.9 75.6 L 83.4 73.1 L 80.5 70.8 L 81.3 69.2 L 84.8 70.6 L 88.3 71.9 L 91.6 73.5 L 94.8 75.2 L 97.9 77.0 L 100.8 79.1 L 103.6 81.3 L 106.2 83.6 L 108.7 86.0 L 111.1 88.6 L 112.0 93.1 L 109.5 97.0 L 105.1 97.9 L 101.2 95.4 L 99.8 92.9 Z M 134.0 14.6 L 137.0 16.6 L 134.0 18.4 L 134.0 30.8 L 165.0 30.8 L 175.0 20.8 L 187.0 30.8 L 187.0 34.8 L 134.0 34.8 L 134.0 48.3 L 122.0 54.3 L 122.0 34.8 L 78.0 34.8 L 78.0 48.3 L 66.0 54.3 L 66.0 34.8 L 13.0 34.8 L 13.0 30.8 L 66.0 30.8 L 66.0 12.6 L 78.0 14.6 L 81.0 16.6 L 78.0 18.4 L 78.0 30.8 L 122.0 30.8 L 122.0 12.6 Z " />
</g>
</svg>
