<svg xmlns="http://www.w3.org/2000/svg" xmlns:xlink="http://www.w3.org/1999/xlink" version="1.1" baseProfile="full" viewBox="0 0 200 200" width="200" height="200">
<g fill="black">
<path d="M 134.0 14.5 L 137.0 16.5 L 134.0 18.3 L 134.0 30.6 L 165.0 30.6 L 175.0 20.6 L 187.0 30.6 L 187.0 34.6 L 134.0 34.6 L 134.0 48.0 L 122.0 54.0 L 122.0 34.6 L 78.0 34.6 L 78.0 48.0 L 67.49090909957886 53.254545497894284 L 73.0 56.8 L 74.8 59.9 L 71.10552978515625 60.154791069030765 L 68.2 65.3 L 63.1 73.7 L 57.8 81.9 L 52.3 89.9 L 46.5 97.7 L 46.1470588684082 98.14117650985717 L 51.9 99.1 L 54.9 101.1 L 51.9 102.9 L 51.9 182.7 L 39.9 188.7 L 39.9 105.90476188659667 L 34.2 112.6 L 27.7 119.7 L 20.8 126.4 L 13.5 132.8 L 12.2 131.6 L 17.9 123.9 L 29.1 108.5 L 34.4 100.7 L 39.6 92.8 L 44.5 84.8 L 49.3 76.6 L 53.9 68.4 L 58.2 59.9 L 62.3 51.4 L 62.339925384521486 51.42014923095703 L 62.9 50.3 L 66.0 52.29504947662353 L 66.0 34.6 L 13.0 34.6 L 13.0 30.6 L 66.0 30.6 L 66.0 12.5 L 78.0 14.5 L 81.0 16.5 L 78.0 18.3 L 78.0 30.6 L 122.0 30.6 L 122.0 12.5 Z M 112.1 103.1 L 109.88962268829346 110.2 L 155.6 110.2 L 155.6 89.2 L 115.04840993881226 89.2 L 114.6 91.9 Z M 105.7 139.3 L 105.7 171.0 L 161.2 171.0 L 161.2 139.3 Z M 118.96784448623657 65.6 L 115.71272087097168 85.2 L 155.6 85.2 L 155.6 65.6 Z M 67.1 89.2 L 67.1 85.2 L 103.58181819915771 85.2 L 106.77424240112305 65.6 L 78.3 65.6 L 78.3 61.6 L 155.6 61.6 L 161.6 56.6 L 172.6 65.6 L 167.6 69.6 L 167.6 85.2 L 170.4181818008423 85.2 L 178.6 76.2 L 188.6 85.2 L 188.6 89.2 L 167.6 89.2 L 167.6 118.2 L 155.6 124.2 L 155.6 114.2 L 108.59499998092652 114.2 L 104.7 123.7 L 100.18474578857422 132.5423728942871 L 105.7 135.3 L 161.2 135.3 L 167.2 130.3 L 178.2 139.3 L 173.2 143.3 L 173.2 179.0 L 161.2 185.0 L 161.2 175.0 L 105.7 175.0 L 105.7 182.0 L 93.7 188.0 L 93.7 142.659375 L 87.9 150.0 L 80.9 157.4 L 73.0 164.2 L 64.5 170.1 L 55.2 175.2 L 54.2 173.7 L 62.2 167.1 L 69.5 160.1 L 76.1 152.9 L 82.0 145.3 L 87.1 137.2 L 91.6 128.8 L 95.4 119.8 L 97.3063829421997 114.2 L 77.2 114.2 L 77.2 110.2 L 98.64799995422364 110.2 L 101.0 100.4 L 102.8 90.0 L 102.93030300140381 89.2 Z " />
</g>
</svg>
