<svg xmlns="http://www.w3.org/2000/svg" xmlns:xlink="http://www.w3.org/1999/xlink" version="1.1" baseProfile="full" viewBox="0 0 200 200" width="200" height="200">
<g fill="black">
<path d="M 62.0 140.9 L 65.0 142.9 L 62.0 144.7 L 62.0 157.8 L 74.0 157.8 L 84.0 147.8 L 96.0 157.8 L 96.0 161.8 L 61.80222225189209 161.8 L 60.8 165.9 L 59.0 170.1 L 56.7 173.9 L 53.8 177.2 L 50.4 180.2 L 46.6 182.7 L 42.4 184.8 L 37.7 186.4 L 32.6 187.7 L 27.2 188.7 L 26.7 187.0 L 31.6 184.7 L 35.8 182.2 L 39.4 179.6 L 42.5 177.0 L 45.0 174.3 L 46.9 171.6 L 48.3 168.9 L 49.3 166.1 L 49.8 163.2 L 49.89333333969116 161.8 L 15.0 161.8 L 15.0 157.8 L 50.0 157.8 L 50.0 138.9 Z M 148.0 140.9 L 151.0 142.9 L 148.0 144.7 L 148.0 157.8 L 163.0 157.8 L 173.0 147.8 L 185.0 157.8 L 185.0 161.8 L 148.0 161.8 L 148.0 182.3 L 136.0 188.3 L 136.0 161.8 L 102.0 161.8 L 102.0 157.8 L 136.0 157.8 L 136.0 138.9 Z M 86.7 135.2 L 84.6 136.4 L 82.6 137.5 L 78.2 139.1 L 76.0 139.6 L 73.7 140.0 L 71.3 140.2 L 69.0 140.3 L 68.94993047714233 134.29165506362915 L 51.0 131.3 L 51.0 128.3 L 70.5 128.3 L 73.5 127.9 L 76.3 127.1 L 78.9 125.9 L 81.5 124.3 L 82.61999998092651 123.36666669845582 L 82.9 122.9 L 83.3 122.0 L 83.8 120.5 L 84.2 118.6 L 84.7 116.2 L 85.1 113.5 L 85.4 110.4 L 85.7 106.9 L 85.82307691574097 105.3 L 62.04305553436279 105.3 L 61.6 106.4 L 57.9 112.9 L 53.5 118.8 L 48.4 123.9 L 42.6 128.4 L 36.1 132.1 L 29.1 135.0 L 21.4 137.1 L 13.2 138.4 L 12.7 136.7 L 20.2 133.5 L 26.9 130.1 L 32.8 126.4 L 38.0 122.3 L 42.4 117.9 L 46.2 113.1 L 49.3 107.8 L 50.37142858505249 105.3 L 19.0 105.3 L 19.0 101.3 L 51.975806427001956 101.3 L 53.6 96.0 L 54.70586585998535 90.30053768157958 L 54.7 90.3 L 55.2 87.4 L 66.7 91.4 L 69.3 93.9 L 65.59597702026367 95.31426334381104 L 64.5 99.2 L 63.65416669845581 101.3 L 86.0 101.3 L 92.0 96.3 L 103.0 105.3 L 98.0 108.3 L 97.64081630706787 108.44965982437134 L 97.4 111.5 L 97.0 115.0 L 96.5 118.2 L 96.0 121.1 L 95.3 123.8 L 94.5 126.2 L 93.5 128.4 L 92.2 130.5 L 90.5 132.4 L 88.6 133.9 Z M 144.08153409957885 88.40227270126343 L 152.7 91.4 L 155.3 93.9 L 151.59597702026366 95.31426334381104 L 150.5 99.2 L 149.6541666984558 101.3 L 172.0 101.3 L 178.0 96.3 L 189.0 105.3 L 184.0 108.3 L 183.64081630706787 108.44965982437134 L 183.4 111.5 L 183.0 115.0 L 182.5 118.2 L 182.0 121.1 L 181.3 123.8 L 180.5 126.2 L 179.5 128.4 L 178.2 130.5 L 176.5 132.4 L 174.6 133.9 L 172.7 135.2 L 170.6 136.4 L 168.6 137.5 L 164.2 139.1 L 162.0 139.6 L 159.7 140.0 L 157.3 140.2 L 155.0 140.3 L 155.0 134.3 L 135.0 131.3 L 135.0 128.3 L 156.5 128.3 L 159.5 127.9 L 162.3 127.1 L 164.9 125.9 L 167.5 124.3 L 168.6199999809265 123.36666669845582 L 168.9 122.9 L 169.3 122.0 L 169.8 120.5 L 170.2 118.6 L 170.7 116.2 L 171.1 113.5 L 171.4 110.4 L 171.7 106.9 L 171.82307691574096 105.3 L 148.0430555343628 105.3 L 147.6 106.4 L 143.9 112.9 L 139.5 118.8 L 134.4 123.9 L 128.6 128.4 L 122.1 132.1 L 115.1 135.0 L 107.4 137.1 L 99.2 138.4 L 98.7 136.7 L 106.2 133.5 L 112.9 130.1 L 118.8 126.4 L 124.0 122.3 L 128.4 117.9 L 132.2 113.1 L 135.3 107.8 L 136.37142858505248 105.3 L 105.0 105.3 L 105.0 101.3 L 137.97580642700194 101.3 L 139.6 96.0 L 140.70586585998535 90.30053768157958 L 140.7 90.3 L 140.85625 89.39375 L 139.0 89.9 L 136.9 90.3 L 134.7 90.7 L 132.4 90.9 L 130.2 91.1 L 128.0 91.1 L 128.0 85.1 L 108.0 82.1 L 108.0 79.1 L 129.7 79.1 L 131.4 78.9 L 133.1 78.8 L 134.7 78.5 L 136.4 78.2 L 138.0 77.8 L 139.6 77.3 L 142.8 76.1 L 144.4 75.4 L 145.9 74.5 L 147.2 73.6 L 148.4 72.4 L 149.6 71.1 L 150.6 69.7 L 151.5 68.0 L 152.3 66.0 L 153.0 63.8 L 153.6 61.4 L 103.79538459777832 61.4 L 103.3 62.1 L 97.4 68.0 L 90.4 73.1 L 82.4 77.6 L 73.3 81.4 L 63.1 84.6 L 51.9 87.2 L 39.5 89.1 L 26.1 90.3 L 25.8 88.5 L 38.8 85.4 L 50.6 82.0 L 61.1 78.3 L 70.4 74.4 L 78.4 70.1 L 85.1 65.5 L 89.70204086303711 61.4 L 36.0 61.4 L 36.0 57.4 L 93.23529415130615 57.4 L 94.8 55.5 L 97.9 50.2 L 99.9 44.6 L 99.91813306808471 44.60583410263062 L 100.4 43.1 L 111.4 48.3 L 113.6 51.1 L 109.62261199951172 52.00712356567383 L 107.9 55.6 L 106.62615385055543 57.4 L 154.0 57.4 L 160.0 52.4 L 171.0 61.4 L 166.0 64.4 L 165.1438201904297 64.7567416191101 L 164.6 67.0 L 163.6 70.1 L 162.3 73.1 L 160.8 75.9 L 159.1 78.5 L 157.0 80.8 L 154.8 82.9 L 152.3 84.7 L 149.6 86.2 L 147.5 87.1 Z M 134.0 14.3 L 137.0 16.3 L 134.0 18.1 L 134.0 30.0 L 165.0 30.0 L 175.0 20.0 L 187.0 30.0 L 187.0 34.0 L 134.0 34.0 L 134.0 47.0 L 122.0 53.0 L 122.0 34.0 L 78.0 34.0 L 78.0 47.0 L 66.0 53.0 L 66.0 34.0 L 13.0 34.0 L 13.0 30.0 L 66.0 30.0 L 66.0 12.3 L 78.0 14.3 L 81.0 16.3 L 78.0 18.1 L 78.0 30.0 L 122.0 30.0 L 122.0 12.3 Z " />
</g>
</svg>
