<svg xmlns="http://www.w3.org/2000/svg" xmlns:xlink="http://www.w3.org/1999/xlink" version="1.1" baseProfile="full" viewBox="0 0 200 200" width="200" height="200">
<g fill="black">
<path d="M 150.2639705657959 144.09779415130615 L 151.0 144.7 L 146.0 148.7 L 146.0 181.5 L 134.0 187.5 L 134.0 179.5 L 66.0 179.5 L 66.0 182.5 L 54.0 188.5 L 54.0 143.7754716873169 L 47.2 145.7 L 30.2 149.4 L 12.1 152.5 L 11.8 150.7 L 29.3 145.8 L 45.7 140.5 L 54.0 137.4967104911804 L 54.0 134.7 L 57.24503812789917 136.3225191116333 L 60.9 135.0 L 75.0 129.0 L 87.8 122.7 L 94.27120313644409 118.93895883560181 L 88.7 114.7 L 80.9 107.0 L 74.5 98.7 L 71.00360202789307 92.14425382614135 L 69.7 93.5 L 64.2 98.6 L 58.3 103.4 L 52.0 107.9 L 45.3 112.3 L 38.1 116.3 L 30.5 119.9 L 22.4 123.2 L 21.5 121.6 L 28.6 116.7 L 35.3 111.7 L 41.5 106.9 L 47.4 101.9 L 52.8 96.9 L 57.8 91.9 L 62.3 86.7 L 66.4 81.5 L 70.1 76.1 L 73.3 70.7 L 73.32157363891602 70.71332483291626 L 73.68235292434693 70.1 L 32.95 70.1 L 33.0 72.1 L 32.7 75.9 L 31.9 79.5 L 30.7 82.9 L 29.1 86.1 L 26.9 89.0 L 24.3 91.6 L 21.2 93.8 L 16.7 94.0 L 13.2 91.0 L 13.1 86.4 L 16.1 83.0 L 18.1 82.3 L 19.9 81.4 L 21.6 80.1 L 23.3 78.5 L 24.9 76.5 L 26.3 74.0 L 27.6 71.1 L 28.7 67.7 L 29.7 63.9 L 30.1 59.6 L 31.9 59.6 L 32.4 64.0 L 32.65609760284424 66.1 L 94.0 66.1 L 94.0 44.6 L 106.0 46.6 L 109.0 48.6 L 106.0 50.4 L 106.0 66.1 L 170.0 66.1 L 170.65806455612181 65.55161294937133 L 171.2 64.4 L 171.6341675758362 64.73819370269776 L 176.0 61.1 L 187.0 70.1 L 182.0 73.1 L 176.075 75.56875 L 175.1 76.3 L 172.9 77.9 L 170.6 79.6 L 168.1 81.4 L 165.5 83.2 L 162.6 85.0 L 159.5 86.9 L 156.6 89.1 L 155.3 87.7 L 157.8 85.0 L 159.8 82.0 L 161.8 79.3 L 163.6 76.8 L 165.3 74.3 L 166.8 72.1 L 168.07272729873657 70.1 L 74.07323942184448 70.1 L 83.5 77.0 L 85.0 80.3 L 81.1583088874817 80.23376398086548 L 79.3 82.8 L 76.28909091949463 86.4 L 132.8035714149475 86.4 L 134.2 84.7 L 134.6341675758362 85.03819370269775 L 139.0 81.4 L 150.0 90.4 L 145.0 93.4 L 140.9458966255188 95.08920974731446 L 135.5 101.0 L 126.1 109.3 L 115.7 116.9 L 111.68944721221924 119.34120607376099 L 112.4 119.7 L 123.7 124.2 L 136.0 128.2 L 149.5 131.7 L 164.1 134.6 L 179.9 137.0 L 189.8 138.4 L 178.0 150.0 L 161.7 146.9 Z M 66.0 144.7 L 66.0 175.5 L 134.0 175.5 L 134.0 144.7 Z M 91.6 130.3 L 77.9 136.0 L 65.39047622680664 140.3952381134033 L 66.0 140.7 L 134.0 140.7 L 135.27219915390015 139.63983402252197 L 132.6 138.8 L 119.8 133.7 L 108.2 128.0 L 102.72320718765259 124.65011701583862 Z M 72.6807692527771 90.4 L 72.66314601898193 90.41832818984986 L 77.8 96.1 L 85.0 102.8 L 93.1 109.0 L 101.8092544555664 114.30128536224365 L 109.9 108.7 L 119.2 101.1 L 127.3 93.1 L 129.51785717010497 90.4 Z M 134.0 13.8 L 137.0 15.8 L 134.0 17.6 L 134.0 30.6 L 165.0 30.6 L 175.0 20.6 L 187.0 30.6 L 187.0 34.6 L 134.0 34.6 L 134.0 48.6 L 122.0 54.6 L 122.0 34.6 L 78.0 34.6 L 78.0 48.6 L 66.0 54.6 L 66.0 34.6 L 13.0 34.6 L 13.0 30.6 L 66.0 30.6 L 66.0 11.8 L 78.0 13.8 L 81.0 15.8 L 78.0 17.6 L 78.0 30.6 L 122.0 30.6 L 122.0 11.8 Z " />
</g>
</svg>
