<svg xmlns="http://www.w3.org/2000/svg" xmlns:xlink="http://www.w3.org/1999/xlink" version="1.1" baseProfile="full" viewBox="0 0 200 200" width="200" height="200">
<g fill="black">
<path d="M 60.0 151.6 L 140.0 151.6 L 146.0 146.6 L 157.0 155.6 L 152.0 159.6 L 152.0 181.8 L 140.0 187.8 L 140.0 179.8 L 60.0 179.8 L 60.0 182.8 L 48.0 188.8 L 48.0 145.6 Z M 60.0 155.6 L 60.0 175.8 L 140.0 175.8 L 140.0 155.6 Z M 159.3 139.8 L 150.6 136.7 L 142.1 133.3 L 138.7711230278015 131.77593584060668 L 143.0 135.3 L 143.0 139.3 L 57.0 139.3 L 57.0 135.3 L 121.0 135.3 L 129.1916666984558 127.10833330154419 L 125.9 125.4 L 118.2 121.0 L 110.8 116.2 L 103.8 111.0 L 100.27773714065552 107.857057762146 L 97.4 110.1 L 90.1 115.2 L 82.3 120.0 L 74.0 124.5 L 65.2 128.8 L 55.9 132.9 L 46.0 136.7 L 35.6 140.2 L 24.7 143.3 L 13.2 146.0 L 12.7 144.3 L 23.5 139.7 L 33.7 135.1 L 43.5 130.6 L 52.7 126.0 L 61.3 121.3 L 69.4 116.4 L 77.0 111.5 L 83.9 106.4 L 90.4 101.2 L 95.52123079299926 96.520254611969 L 95.5 96.5 L 96.4 95.7 L 104.2 104.8 L 104.4730962753296 106.76629304885864 L 106.0 107.5 L 113.7 111.1 L 121.5 114.6 L 129.4 117.9 L 137.5 120.9 L 145.7 123.7 L 154.1 126.2 L 162.6 128.5 L 171.4 130.5 L 180.3 132.3 L 189.3 134.2 L 177.6 145.2 L 168.3 142.7 Z M 85.4 47.8 L 86.0 51.4 L 82.36000003814698 50.36000003814697 L 79.7 52.6 L 73.7 57.1 L 67.3 61.3 L 66.8416937828064 61.573615646362306 L 67.0 61.6 L 70.0 63.6 L 67.0 65.4 L 67.0 103.6 L 55.0 109.6 L 55.0 68.26000003814697 L 53.6 69.0 L 46.2 72.5 L 38.5 75.6 L 30.5 78.5 L 22.0 81.0 L 13.2 83.1 L 12.7 81.4 L 20.7 77.4 L 28.4 73.6 L 35.8 69.7 L 42.8 65.7 L 49.4 61.6 L 55.7 57.4 L 61.6 53.1 L 67.1 48.6 L 72.3 43.9 L 76.51052627563476 39.777192974090575 L 77.3 38.9 Z M 123.4 106.9 L 120.9 106.5 L 118.5 105.7 L 116.2 104.5 L 114.2 102.8 L 112.6 100.8 L 111.3 98.5 L 110.5 96.1 L 110.1 93.6 L 110.0 91.1 L 110.0 78.03831777572631 L 105.1 79.0 L 93.9 80.9 L 82.1 82.5 L 81.8 80.8 L 93.1 77.2 L 103.8 73.8 L 110.0 71.87378644943237 L 110.0 41.8 L 122.0 43.8 L 125.0 45.8 L 122.0 47.6 L 122.0 67.91237115859985 L 123.8 67.3 L 133.0 64.1 L 141.6 60.9 L 149.6 57.7 L 157.1 54.4 L 164.1 51.1 L 170.4 47.8 L 171.61876821517944 50.28352766036987 L 178.9 57.1 L 179.0 60.3 L 175.27828931808472 58.77470874786377 L 168.7 61.5 L 161.1 64.4 L 153.1 67.1 L 144.6 69.7 L 135.5 72.2 L 125.9 74.6 L 122.0 75.48811883926392 L 122.0 92.3 L 122.2 93.2 L 122.5 94.1 L 122.9 94.5 L 123.2 94.7 L 123.8 94.9 L 124.7 95.0 L 126.0 95.1 L 174.0 95.1 L 180.0 70.1 L 182.0 70.1 L 180.0 95.1 L 183.6 97.5 L 186.0 101.1 L 183.6 104.7 L 180.0 107.1 L 126.0 107.1 Z M 134.0 13.1 L 137.0 15.1 L 134.0 16.9 L 134.0 24.2 L 165.0 24.2 L 175.0 14.2 L 187.0 24.2 L 187.0 28.2 L 134.0 28.2 L 134.0 36.7 L 122.0 42.7 L 122.0 28.2 L 78.0 28.2 L 78.0 36.7 L 66.0 42.7 L 66.0 28.2 L 13.0 28.2 L 13.0 24.2 L 66.0 24.2 L 66.0 11.1 L 78.0 13.1 L 81.0 15.1 L 78.0 16.9 L 78.0 24.2 L 122.0 24.2 L 122.0 11.1 Z " />
</g>
</svg>
