<svg xmlns="http://www.w3.org/2000/svg" xmlns:xlink="http://www.w3.org/1999/xlink" version="1.1" baseProfile="full" viewBox="0 0 200 200" width="200" height="200">
<g fill="black">
<path d="M 57.4 158.2 L 57.4 175.0 L 142.6 175.0 L 142.6 158.2 Z M 57.4 138.6 L 57.4 154.2 L 142.6 154.2 L 142.6 138.6 Z M 57.4 119.0 L 57.4 134.6 L 142.6 134.6 L 142.6 119.0 Z M 155.9 114.2 L 150.02417221069337 111.16523180007934 L 159.6 119.0 L 154.6 123.0 L 154.6 181.0 L 142.6 187.0 L 142.6 179.0 L 57.4 179.0 L 57.4 182.0 L 45.4 188.0 L 45.4 113.6956521987915 L 38.4 116.8 L 26.1 121.2 L 13.0 124.7 L 12.5 123.0 L 24.8 117.6 L 36.2 112.0 L 46.7 106.0 L 56.4 99.5 L 65.1 92.6 L 73.0 85.3 L 80.0 77.5 L 86.2 69.2 L 91.5 60.5 L 95.64216413497925 52.215671634674074 L 95.6 52.2 L 96.6 50.1 L 106.9 56.4 L 108.8 59.5 L 104.91938591003418 59.90144281387329 L 101.36249504089355 66.18951768875122 L 106.1 70.3 L 113.0 75.9 L 120.1 81.3 L 127.5 86.4 L 135.16518983840942 91.17830018997192 L 135.5 90.7 L 138.3 86.8 L 143.7 79.2 L 146.3 75.4 L 148.9 71.5 L 151.3 67.7 L 153.6 63.8 L 155.9 59.8 L 157.5217399597168 56.7109715461731 L 157.5 56.7 L 157.75581398010254 56.26511631011963 L 158.0 55.8 L 158.021573638916 55.81332483291626 L 158.5 55.0 L 168.2 62.1 L 169.8 65.4 L 165.87848863601684 65.33353366851807 L 165.4 66.0 L 162.4 69.8 L 159.3 73.5 L 156.1 77.2 L 152.8 80.7 L 149.3 84.0 L 145.7 87.3 L 142.0 90.4 L 138.45655879974365 92.96899490356445 L 143.3 95.6 L 151.8 99.6 L 160.6 103.4 L 169.8 106.8 L 179.4 109.8 L 186.9 112.3 L 175.3 122.3 L 165.4 118.5 Z M 94.9 75.5 L 87.6 84.1 L 79.4 92.1 L 70.4 99.3 L 60.5 105.9 L 50.32972974777222 111.46486482620239 L 57.4 115.0 L 142.6 115.0 L 148.2816824913025 110.26526460647582 L 146.8 109.5 L 138.2 104.4 L 130.2 99.0 L 122.6 93.1 L 115.5 86.9 L 109.0 80.2 L 103.1 73.1 L 99.8618574142456 68.36732997894288 Z M 25.8 94.1 L 25.4 89.6 L 28.2 86.0 L 31.7 84.3 L 34.9 82.4 L 37.8 80.2 L 40.5 77.7 L 43.0 74.9 L 45.2 71.8 L 47.2 68.3 L 49.0 64.5 L 50.7 60.2 L 51.9 55.6 L 53.7 55.7 L 53.9 60.8 L 53.7 65.6 L 52.9 70.3 L 51.7 74.9 L 49.9 79.2 L 47.6 83.2 L 44.9 87.0 L 41.7 90.5 L 38.0 93.7 L 33.9 96.6 L 29.3 97.0 Z M 134.0 14.2 L 137.0 16.2 L 134.0 18.0 L 134.0 31.6 L 165.0 31.6 L 175.0 21.6 L 187.0 31.6 L 187.0 35.6 L 134.0 35.6 L 134.0 50.2 L 122.0 56.2 L 122.0 35.6 L 78.0 35.6 L 78.0 50.2 L 66.0 56.2 L 66.0 35.6 L 13.0 35.6 L 13.0 31.6 L 66.0 31.6 L 66.0 12.2 L 78.0 14.2 L 81.0 16.2 L 78.0 18.0 L 78.0 31.6 L 122.0 31.6 L 122.0 12.2 Z " />
</g>
</svg>
