<svg xmlns="http://www.w3.org/2000/svg" xmlns:xlink="http://www.w3.org/1999/xlink" version="1.1" baseProfile="full" viewBox="0 0 200 200" width="200" height="200">
<g fill="black">
<path d="M 140.2 181.8 L 125.2 178.2 L 111.9 173.7 L 100.47958660125732 168.6135973930359 L 92.3 172.8 L 78.8 178.2 L 64.5 182.7 L 49.5 186.2 L 33.6 188.6 L 17.0 189.8 L 16.9 188.1 L 33.0 184.8 L 48.3 181.0 L 62.6 176.5 L 76.0 171.2 L 88.6 165.1 L 91.63958101272583 163.31817665100098 L 89.8 162.2 L 81.2 155.1 L 74.3 147.2 L 69.4 138.5 L 66.4 129.2 L 66.96666669845581 129.0 L 45.0 129.0 L 45.0 125.0 L 136.72399997711182 125.0 L 138.2 123.2 L 138.692972946167 123.58918914794921 L 143.0 120.0 L 154.0 129.0 L 149.0 132.0 L 144.9879895210266 133.67167100906372 L 138.3 141.0 L 128.0 150.4 L 116.9 158.8 L 110.97851581573487 162.53202781677246 L 115.3 164.1 L 128.0 167.5 L 142.2 170.2 L 158.0 172.1 L 175.4 173.4 L 186.4 174.1 L 174.5 186.5 L 156.6 184.6 Z M 68.34810123443603 129.0 L 73.0 136.5 L 78.9 143.5 L 85.9 149.7 L 94.3 155.2 L 100.3505256652832 158.19407453536988 L 111.0 150.7 L 120.9 142.4 L 130.0 133.2 L 133.44399995803832 129.0 Z M 13.4 133.8 L 12.8 129.3 L 15.5 125.6 L 17.5 124.6 L 19.4 123.3 L 21.2 121.5 L 23.0 119.3 L 24.6 116.5 L 26.1 113.1 L 27.4 109.3 L 28.5 104.9 L 29.5 100.0 L 30.1 94.6 L 31.9 94.6 L 32.6 100.1 L 32.917307662963864 103.4 L 170.0 103.4 L 176.0 98.4 L 187.0 107.4 L 182.0 110.4 L 178.1698630332947 111.99589042663574 L 177.0 113.5 L 175.5 115.5 L 173.9 117.7 L 172.0 120.1 L 170.0 122.8 L 167.8 125.5 L 165.7 128.8 L 164.2 127.9 L 165.6 124.4 L 166.5 121.0 L 167.4 117.8 L 168.2 114.9 L 168.9 112.3 L 169.4 110.0 L 169.9 107.9 L 169.98333330154418 107.4 L 33.14375 107.4 L 33.2 110.1 L 32.8 114.7 L 32.1 119.0 L 31.0 123.1 L 29.4 126.8 L 27.3 130.2 L 24.7 133.3 L 21.6 135.9 L 17.1 136.5 Z M 30.5 92.8 L 30.5 47.6 L 42.5 53.6 L 155.4 53.6 L 161.4 48.6 L 172.4 57.6 L 167.4 61.6 L 167.4 88.8 L 155.4 94.8 L 155.4 86.8 L 42.5 86.8 Z M 42.5 57.6 L 42.5 82.8 L 71.8 82.8 L 71.8 57.6 Z M 83.8 57.6 L 83.8 82.8 L 114.1 82.8 L 114.1 57.6 Z M 126.1 57.6 L 126.1 82.8 L 155.4 82.8 L 155.4 57.6 Z M 132.8 14.0 L 135.8 16.0 L 132.8 17.8 L 132.8 29.1 L 161.5 29.1 L 171.5 19.1 L 183.5 29.1 L 183.5 33.1 L 132.8 33.1 L 132.8 45.4 L 120.8 51.4 L 120.8 33.1 L 79.1 33.1 L 79.1 45.4 L 67.1 51.4 L 67.1 33.1 L 16.4 33.1 L 16.4 29.1 L 67.1 29.1 L 67.1 12.0 L 79.1 14.0 L 82.1 16.0 L 79.1 17.8 L 79.1 29.1 L 120.8 29.1 L 120.8 12.0 Z " />
</g>
</svg>
