<svg xmlns="http://www.w3.org/2000/svg" xmlns:xlink="http://www.w3.org/1999/xlink" version="1.1" baseProfile="full" viewBox="0 0 200 200" width="200" height="200">
<g fill="black">
<path d="M 134.2 185.2 L 116.5 183.4 L 101.0 180.8 L 87.7 177.2 L 76.6 172.7 L 67.8 167.1 L 61.4 160.5 L 58.0618314743042 153.45275526046754 L 55.9 156.9 L 51.8 162.6 L 47.1 167.9 L 42.0 172.9 L 36.3 177.5 L 30.2 181.8 L 23.6 185.7 L 16.4 189.2 L 15.5 187.6 L 21.4 182.6 L 26.9 177.6 L 32.0 172.6 L 36.5 167.6 L 40.6 162.4 L 44.2 157.1 L 47.4 151.7 L 50.0 146.2 L 52.2 140.6 L 53.63401041030884 135.70749378204346 L 53.6 135.7 L 54.4 133.2 L 65.4 138.3 L 67.7 141.1 L 63.90739297866821 142.03151750564575 L 62.8 144.8 L 60.67421379089355 148.91871070861816 L 61.7 151.3 L 65.9 156.7 L 72.0 161.2 L 80.0 165.1 L 90.3 168.3 L 94.0 169.03999996185303 L 94.0 126.9 L 43.0 126.9 L 43.0 122.9 L 141.0 122.9 L 141.0 106.3 L 14.0 106.3 L 14.0 102.3 L 141.0 102.3 L 141.0 85.6 L 43.0 85.6 L 43.0 81.6 L 94.0 81.6 L 94.0 45.5 L 106.0 47.5 L 109.0 49.5 L 106.0 51.3 L 106.0 63.5 L 161.0 63.5 L 171.0 53.5 L 183.0 63.5 L 183.0 67.5 L 106.0 67.5 L 106.0 81.6 L 141.0 81.6 L 147.0 76.6 L 158.0 85.6 L 153.0 89.6 L 153.0 102.3 L 167.8181818008423 102.3 L 176.0 93.3 L 186.0 102.3 L 186.0 106.3 L 153.0 106.3 L 153.0 130.9 L 141.0 136.9 L 141.0 126.9 L 106.0 126.9 L 106.0 147.6 L 147.0 147.6 L 157.0 137.6 L 169.0 147.6 L 169.0 151.6 L 106.0 151.6 L 106.0 171.1675675392151 L 117.6 172.5 L 134.7 173.4 L 154.1 173.5 L 175.7 172.7 L 187.1 172.3 L 176.2 185.9 L 154.1 186.0 Z M 134.0 13.7 L 137.0 15.7 L 134.0 17.5 L 134.0 30.2 L 165.0 30.2 L 175.0 20.2 L 187.0 30.2 L 187.0 34.2 L 134.0 34.2 L 134.0 48.0 L 122.0 54.0 L 122.0 34.2 L 78.0 34.2 L 78.0 48.0 L 66.0 54.0 L 66.0 34.2 L 13.0 34.2 L 13.0 30.2 L 66.0 30.2 L 66.0 11.7 L 78.0 13.7 L 81.0 15.7 L 78.0 17.5 L 78.0 30.2 L 122.0 30.2 L 122.0 11.7 Z " />
</g>
</svg>
