<svg xmlns="http://www.w3.org/2000/svg" xmlns:xlink="http://www.w3.org/1999/xlink" version="1.1" baseProfile="full" viewBox="0 0 200 200" width="200" height="200">
<g fill="black">
<path d="M 157.3 177.2 L 153.0 173.5 L 147.9 169.9 L 142.2 166.4 L 137.47718505859376 163.70124855041504 L 132.6 168.4 L 123.1 175.2 L 112.4 180.7 L 100.5 185.0 L 87.4 188.0 L 73.2 189.8 L 72.9 188.0 L 86.5 184.3 L 98.7 179.9 L 109.5 174.8 L 118.9 168.8 L 126.9 162.1 L 129.22511415481569 159.46255712509156 L 128.9 159.3 L 121.3 155.7 L 113.1 152.0 L 109.08879623413085 150.3134711265564 L 106.7 157.9 L 93.5 160.0 L 106.60282487869263 118.4 L 75.4 118.4 L 75.4 114.4 L 107.8627119064331 114.4 L 115.8 89.2 L 126.6 94.7 L 128.9 97.5 L 125.45739517211913 98.32877521514892 L 120.39699363708496 114.4 L 163.9 114.4 L 173.9 104.4 L 185.9 114.4 L 185.9 118.4 L 159.8290322303772 118.4 L 157.3 129.6 L 153.2 141.0 L 147.7 151.3 L 143.01886796951294 157.54150943756105 L 146.1 158.8 L 152.6 161.9 L 158.6 165.2 L 164.0 168.7 L 168.8 172.4 L 173.1 176.4 L 174.5 180.7 L 172.6 184.8 L 168.2 186.3 L 164.1 184.3 L 161.0 180.8 Z M 119.1375 118.4 L 109.96433458328247 147.53286695480347 L 114.3 148.4 L 123.1 150.7 L 131.4 153.2 L 133.87807006835936 154.08036699295045 L 139.1 146.2 L 143.3 136.9 L 146.3 126.8 L 147.67307691574098 118.4 Z M 37.8 108.3 L 36.4 106.7 L 34.7 105.0 L 32.5 103.3 L 30.0 101.6 L 27.2 99.8 L 24.0 98.0 L 20.5 96.2 L 16.5 94.7 L 17.0 92.9 L 21.2 93.6 L 25.3 94.0 L 29.1 94.7 L 32.6 95.5 L 36.0 96.5 L 39.0 97.6 L 41.9 98.9 L 44.5 100.4 L 47.0 102.1 L 49.2 104.1 L 50.2 108.6 L 47.9 112.5 L 43.5 113.6 L 39.5 111.3 L 38.9 109.9 Z M 89.3 77.6 L 89.9 80.9 L 90.2 84.1 L 90.2 87.3 L 89.9 90.5 L 89.2 93.6 L 88.1 96.6 L 86.7 99.5 L 82.7 101.7 L 78.3 100.7 L 76.12869443893433 96.92381639480591 L 71.5 106.1 L 66.2 116.3 L 61.4 125.4 L 57.2 133.6 L 53.5 140.8 L 50.4 147.0 L 47.9 152.3 L 46.1 156.5 L 44.9 159.7 L 44.58113203048706 160.97547168731688 L 44.8 161.3 L 46.9 166.3 L 48.4 171.8 L 49.1 177.7 L 49.1 184.1 L 46.9 188.2 L 42.6 189.5 L 38.6 187.3 L 37.2 183.0 L 37.8 177.8 L 37.8 173.1 L 37.4 168.9 L 36.5 165.0 L 35.0 161.5 L 33.0 158.3 L 30.4 155.3 L 27.1 152.5 L 23.0 149.8 L 18.2 147.5 L 18.6 145.7 L 24.2 146.6 L 29.4 148.1 L 34.1 150.3 L 36.36706953048706 151.9193353652954 L 36.5 151.7 L 39.1 147.5 L 42.3 142.5 L 46.1 136.6 L 50.6 129.7 L 55.8 122.0 L 61.6 113.5 L 68.3 104.1 L 75.7 93.9 L 76.56956520080567 94.42173910140991 L 77.1 92.3 L 78.5 90.9 L 79.7 89.4 L 80.9 87.6 L 81.9 85.6 L 82.7 83.3 L 83.4 80.8 L 84.0 77.9 L 84.3 74.8 L 84.6 71.5 L 84.2 67.9 L 85.9 67.5 L 87.1 71.0 L 88.04545450210571 73.4 L 122.3 73.4 L 122.3 52.85 L 122.0 53.0 L 122.0 33.6 L 78.0 33.6 L 78.0 47.0 L 66.0 53.0 L 66.0 33.6 L 13.0 33.6 L 13.0 29.6 L 66.0 29.6 L 66.0 11.5 L 78.0 13.5 L 81.0 15.5 L 78.0 17.3 L 78.0 29.6 L 122.0 29.6 L 122.0 11.5 L 134.0 13.5 L 137.0 15.5 L 134.0 17.3 L 134.0 29.6 L 165.0 29.6 L 175.0 19.6 L 187.0 29.6 L 187.0 33.6 L 134.0 33.6 L 134.0 47.0 L 124.175 51.9125 L 134.3 53.6 L 137.3 55.6 L 134.3 57.4 L 134.3 73.4 L 168.1 73.4 L 174.1 68.4 L 185.1 77.4 L 180.1 80.4 L 177.14660196304322 81.63058252334595 L 176.8 82.2 L 175.3 84.5 L 173.6 86.8 L 171.9 89.3 L 170.1 91.8 L 168.2 94.4 L 166.2 97.0 L 163.9 99.7 L 162.0 102.6 L 160.4 101.8 L 161.6 98.5 L 162.5 95.2 L 163.4 92.0 L 164.3 88.9 L 165.1 86.0 L 165.9 83.2 L 166.7 80.5 L 167.4 77.9 L 167.5199999809265 77.4 L 89.24545450210572 77.4 Z M 52.3 72.2 L 50.9 70.5 L 49.1 68.8 L 47.0 67.1 L 44.6 65.3 L 41.9 63.6 L 39.0 61.8 L 35.7 59.9 L 32.1 58.4 L 32.6 56.7 L 36.5 57.4 L 40.3 57.8 L 43.9 58.5 L 47.3 59.3 L 50.5 60.3 L 53.5 61.5 L 56.3 62.7 L 59.0 64.2 L 61.4 65.9 L 63.6 67.7 L 64.9 72.1 L 62.8 76.2 L 58.4 77.4 L 54.3 75.3 L 53.5 73.8 Z " />
</g>
</svg>
