<svg xmlns="http://www.w3.org/2000/svg" xmlns:xlink="http://www.w3.org/1999/xlink" version="1.1" baseProfile="full" viewBox="0 0 200 200" width="200" height="200">
<g fill="black">
<path d="M 79.4 187.6 L 76.9 187.1 L 74.5 186.3 L 72.2 185.1 L 70.2 183.4 L 68.6 181.4 L 67.3 179.2 L 66.5 176.8 L 66.1 174.3 L 66.0 171.7 L 66.0 123.9 L 48.60645160675049 123.9 L 55.9 125.8 L 58.7 128.0 L 55.31863355636597 129.69068326950074 L 54.6 134.5 L 52.7 142.7 L 50.1 150.4 L 46.8 157.7 L 42.8 164.4 L 38.2 170.6 L 33.0 176.2 L 27.1 181.2 L 20.6 185.6 L 13.4 189.2 L 12.5 187.6 L 18.3 182.5 L 23.5 177.3 L 28.1 171.8 L 32.1 166.1 L 35.5 160.1 L 38.3 153.8 L 40.6 147.2 L 42.2 140.2 L 43.4 132.8 L 43.8367280960083 125.89969644546508 L 43.8 125.9 L 43.925 123.9 L 21.0 123.9 L 21.0 119.9 L 79.0 119.9 L 89.0 109.9 L 101.0 119.9 L 101.0 123.9 L 78.0 123.9 L 78.0 172.9 L 78.2 173.8 L 78.4 174.4 L 78.5 174.8 L 78.7 175.0 L 78.9 175.1 L 79.2 175.3 L 79.8 175.5 L 80.7 175.6 L 82.0 175.7 L 172.0 175.7 L 178.0 150.7 L 180.0 150.7 L 178.0 175.7 L 181.6 178.1 L 184.0 181.7 L 181.6 185.3 L 178.0 187.7 L 82.0 187.7 Z M 157.5 156.7 L 153.7 152.3 L 149.6 148.1 L 145.1 144.0 L 143.16736526489257 142.45389223098755 L 142.1 143.9 L 134.8 151.1 L 126.6 157.1 L 117.5 161.8 L 107.5 165.1 L 96.7 167.1 L 96.3 165.4 L 106.3 161.5 L 115.1 157.0 L 122.9 151.7 L 129.6 145.6 L 135.4 138.6 L 136.28435068130494 137.1922580718994 L 134.8 136.1 L 129.1 132.3 L 123.1 128.4 L 121.98054103851318 127.73532123565674 L 120.5 133.4 L 107.3 136.1 L 118.73935556411743 92.5 L 105.2 92.5 L 105.2 88.5 L 119.78883771896362 88.5 L 130.1 49.2 L 141.2 54.2 L 143.6 56.9 L 140.2640027999878 57.78120679855347 L 132.23522729873656 88.5 L 155.0 88.5 L 165.0 78.5 L 177.0 88.5 L 177.0 92.5 L 162.46850395202637 92.5 L 160.6 103.8 L 157.6 115.4 L 153.4 126.0 L 148.3 135.5 L 147.98656635284425 135.92465209960938 L 150.1 137.2 L 155.6 141.0 L 160.7 145.1 L 165.4 149.5 L 169.8 154.1 L 173.7 159.1 L 174.6 163.5 L 172.1 167.4 L 167.6 168.2 L 163.8 165.8 L 160.8 161.2 Z M 131.18977270126342 92.5 L 122.83386707305908 124.47042169570923 L 124.7 125.0 L 131.6 127.5 L 138.2 130.4 L 139.95488624572755 131.34936466217042 L 140.3 130.8 L 144.2 122.1 L 147.3 112.4 L 149.4 101.7 L 150.38571424484252 92.5 Z M 93.0 93.1 L 93.0 97.1 L 27.0 97.1 L 27.0 93.1 L 71.0 93.1 L 81.0 83.1 Z M 11.8 94.3 L 10.6 89.9 L 12.8 85.9 L 13.6 85.7 L 14.6 85.1 L 15.7 84.0 L 16.8 82.5 L 17.9 80.5 L 18.9 78.1 L 19.8 75.2 L 20.7 72.0 L 21.6 68.4 L 21.9 64.4 L 23.7 64.3 L 24.1 68.4 L 24.38421049118042 70.2 L 56.5 70.2 L 56.5 50.2 L 66.0 51.78333330154419 L 66.0 33.6 L 13.0 33.6 L 13.0 29.6 L 66.0 29.6 L 66.0 11.5 L 78.0 13.5 L 81.0 15.5 L 78.0 17.3 L 78.0 29.6 L 122.0 29.6 L 122.0 11.5 L 134.0 13.5 L 137.0 15.5 L 134.0 17.3 L 134.0 29.6 L 165.0 29.6 L 175.0 19.6 L 187.0 29.6 L 187.0 33.6 L 134.0 33.6 L 134.0 47.0 L 122.0 53.0 L 122.0 33.6 L 78.0 33.6 L 78.0 47.0 L 67.825 52.0875 L 68.5 52.2 L 71.5 54.2 L 68.5 56.0 L 68.5 70.2 L 100.2 70.2 L 100.67441864013672 69.80465116500855 L 100.7 69.6 L 100.83893394470215 69.66755504608155 L 106.2 65.2 L 117.2 74.2 L 112.2 77.2 L 107.89090909957886 78.99545450210572 L 107.7 79.2 L 104.7 82.4 L 101.2 85.9 L 99.3 87.7 L 97.2 89.6 L 95.4 91.8 L 93.9 90.7 L 95.3 88.3 L 96.1 85.7 L 96.9 83.2 L 97.7 80.9 L 98.4 78.7 L 99.1 76.6 L 99.6 74.7 L 99.73888893127442 74.2 L 24.922222232818605 74.2 L 25.1 75.8 L 25.2 79.1 L 25.1 82.3 L 24.8 85.2 L 24.2 88.0 L 23.3 90.6 L 22.0 93.1 L 20.2 95.3 L 15.8 96.5 Z " />
</g>
</svg>
