<svg xmlns="http://www.w3.org/2000/svg" xmlns:xlink="http://www.w3.org/1999/xlink" version="1.1" baseProfile="full" viewBox="0 0 200 200" width="200" height="200">
<g fill="black">
<path d="M 62.0 136.7 L 65.0 138.7 L 62.0 140.5 L 62.0 155.1 L 74.0 155.1 L 84.0 145.1 L 96.0 155.1 L 96.0 159.1 L 61.829787254333496 159.1 L 60.8 163.5 L 59.1 167.9 L 56.8 172.0 L 53.9 175.6 L 50.6 178.8 L 46.7 181.5 L 42.5 183.8 L 37.8 185.7 L 32.7 187.1 L 27.2 188.2 L 26.7 186.5 L 31.5 184.1 L 35.7 181.4 L 39.3 178.7 L 42.4 175.9 L 44.8 173.1 L 46.8 170.2 L 48.2 167.2 L 49.2 164.2 L 49.8 161.0 L 49.91176471710205 159.1 L 15.0 159.1 L 15.0 155.1 L 50.0 155.1 L 50.0 134.7 Z M 148.0 136.7 L 151.0 138.7 L 148.0 140.5 L 148.0 155.1 L 163.0 155.1 L 173.0 145.1 L 185.0 155.1 L 185.0 159.1 L 148.0 159.1 L 148.0 181.6 L 136.0 187.6 L 136.0 159.1 L 102.0 159.1 L 102.0 155.1 L 136.0 155.1 L 136.0 134.7 Z M 166.0 99.0 L 166.7 102.5 L 163.00865049362181 101.57716264724732 L 159.5 104.6 L 152.3 109.7 L 144.5 114.3 L 136.2 118.4 L 127.3 122.0 L 117.7 125.0 L 107.7 127.6 L 97.0 129.6 L 85.7 131.0 L 73.9 131.7 L 73.6 129.9 L 85.1 127.2 L 95.8 124.3 L 105.9 121.2 L 115.3 117.8 L 124.0 114.1 L 132.1 110.1 L 139.4 105.7 L 146.1 101.0 L 152.1 95.9 L 157.5 90.6 L 157.8 90.3 Z M 46.0 133.6 L 42.1 131.2 L 41.0 126.8 L 41.5 124.6 L 41.6 122.7 L 41.4 121.0 L 40.7 119.2 L 39.4 117.4 L 37.2 115.5 L 34.3 113.7 L 30.5 111.9 L 26.0 110.4 L 20.7 109.3 L 20.8 107.5 L 26.4 107.6 L 31.5 107.8 L 36.1 108.4 L 39.136819458007814 109.21475648880005 L 39.5 108.9 L 41.7 106.8 L 44.6 104.0 L 48.2 100.5 L 52.4 96.2 L 57.3 91.2 L 62.9 85.5 L 69.3 79.2 L 76.4 72.2 L 84.4 64.6 L 85.7 65.7 L 79.3 74.7 L 67.9 89.9 L 63.1 96.2 L 58.8 101.8 L 52.2 110.6 L 49.9 113.8 L 48.792773151397704 115.33781509399414 L 49.8 116.5 L 51.7 120.1 L 52.7 124.2 L 52.8 128.6 L 50.4 132.5 Z M 96.8 98.1 L 116.8 98.1 L 118.1 98.0 L 119.0 97.9 L 119.6 97.7 L 119.9 97.5 L 120.2 97.2 L 120.4 96.8 L 120.6 96.2 L 120.8 95.3 L 120.8 57.6 L 132.8 59.6 L 135.8 61.6 L 132.8 63.4 L 132.8 94.1 L 132.7 96.7 L 132.3 99.1 L 131.4 101.6 L 130.2 103.8 L 128.6 105.8 L 126.6 107.5 L 124.3 108.7 L 121.9 109.5 L 119.4 110.0 L 116.8 110.1 L 116.8 104.1 L 96.8 101.1 Z M 105.7 75.6 L 107.7 78.7 L 103.60324573516846 79.19443588256836 L 103.6 79.2 L 101.2 82.6 L 98.4 85.8 L 95.4 88.8 L 92.0 91.8 L 88.2 94.6 L 84.2 97.2 L 79.9 99.6 L 75.1 101.9 L 70.2 104.0 L 69.3 102.5 L 73.4 99.1 L 77.0 95.6 L 80.4 92.4 L 83.5 89.1 L 86.2 86.0 L 88.6 82.8 L 90.6 79.8 L 92.3 76.7 L 93.7 73.8 L 94.3804123878479 71.82680416107178 L 94.3 71.8 L 94.6714285850525 70.98285713195801 L 94.7 70.9 L 94.70761241912842 70.90325260162354 L 95.3 69.6 Z M 169.8 90.3 L 167.5 88.1 L 165.0 85.8 L 162.3 83.5 L 159.3 81.3 L 156.1 79.0 L 152.6 76.6 L 148.9 74.2 L 144.9 71.9 L 145.6 70.2 L 150.1 71.3 L 154.5 72.4 L 158.7 73.7 L 162.6 75.2 L 166.4 76.7 L 169.9 78.4 L 173.3 80.3 L 176.5 82.2 L 179.4 84.3 L 182.2 86.5 L 183.8 90.8 L 182.0 95.0 L 177.7 96.6 L 173.5 94.8 L 171.8 92.6 Z M 33.7 89.5 L 33.0 88.4 L 31.8 87.1 L 30.3 85.7 L 28.4 84.2 L 26.2 82.6 L 23.7 80.9 L 20.8 79.2 L 17.5 77.8 L 18.0 76.1 L 21.6 76.9 L 25.0 77.3 L 28.1 77.9 L 31.0 78.5 L 33.6 79.1 L 36.1 79.9 L 38.3 80.8 L 40.4 81.8 L 42.3 83.0 L 44.0 84.6 L 44.7 89.1 L 42.1 92.9 L 37.6 93.6 L 33.9 91.0 L 34.0 90.4 Z M 51.6 72.7 L 50.8 71.6 L 49.7 70.3 L 48.1 69.0 L 46.3 67.5 L 44.0 66.0 L 41.5 64.4 L 38.6 62.6 L 35.3 61.3 L 35.8 59.5 L 39.3 60.4 L 42.7 60.8 L 45.9 61.2 L 48.7 61.8 L 51.3 62.4 L 53.7 63.0 L 55.9 63.8 L 57.9 64.7 L 59.8 65.7 L 61.6 67.2 L 62.5 71.7 L 60.0 75.5 L 55.6 76.4 L 51.7 74.0 L 51.9 73.5 Z M 134.0 15.1 L 137.0 17.1 L 134.0 18.9 L 134.0 32.4 L 165.0 32.4 L 175.0 22.4 L 187.0 32.4 L 187.0 36.4 L 134.0 36.4 L 134.0 50.9 L 122.0 56.9 L 122.0 36.4 L 78.0 36.4 L 78.0 50.9 L 66.0 56.9 L 66.0 36.4 L 13.0 36.4 L 13.0 32.4 L 66.0 32.4 L 66.0 13.1 L 78.0 15.1 L 81.0 17.1 L 78.0 18.9 L 78.0 32.4 L 122.0 32.4 L 122.0 13.1 Z " />
</g>
</svg>
