<svg xmlns="http://www.w3.org/2000/svg" xmlns:xlink="http://www.w3.org/1999/xlink" version="1.1" baseProfile="full" viewBox="0 0 200 200" width="200" height="200">
<g fill="black">
<path d="M 22.1 158.2 L 30.2 157.7 L 38.4 157.1 L 46.6 156.6 L 54.8 155.9 L 71.4 154.7 L 71.6510046005249 154.68207111358643 L 72.7 150.2 L 72.8 145.3 L 72.8 143.6 L 27.3 143.6 L 27.3 139.6 L 72.8 139.6 L 72.8 124.6 L 22.7 124.6 L 22.7 120.6 L 72.8 120.6 L 72.8 104.8 L 84.8 106.8 L 87.8 108.8 L 84.8 110.6 L 84.8 145.3 L 83.8 152.3 L 83.28292684555053 153.85121955871583 L 88.2 153.5 L 96.7 153.0 L 105.3 152.7 L 105.6 154.5 L 97.3 156.8 L 89.0 158.8 L 80.7 160.6 L 80.57751903533935 160.6236107826233 L 78.1 164.8 L 73.5 170.0 L 67.8 174.5 L 61.1 178.4 L 53.5 181.6 L 44.9 184.2 L 35.3 186.2 L 24.7 187.5 L 24.3 185.7 L 34.4 182.5 L 43.2 179.1 L 50.9 175.6 L 57.4 171.8 L 62.7 167.8 L 66.7 163.6 L 66.98576068878174 163.19040966033936 L 64.2 163.7 L 55.9 165.2 L 47.7 166.5 L 39.6 167.8 L 31.4 169.0 L 27.411055278778075 169.5909547805786 L 25.6 173.0 L 23.3 170.2 L 20.2 158.4 Z M 177.2 124.6 L 128.0 124.6 L 128.0 139.6 L 151.71818180084227 139.6 L 159.9 130.6 L 169.9 139.6 L 169.9 143.6 L 128.0 143.6 L 128.0 159.1 L 158.0 159.1 L 168.0 149.1 L 180.0 159.1 L 180.0 163.1 L 128.0 163.1 L 128.0 182.7 L 116.0 188.7 L 116.0 104.8 L 128.0 106.8 L 131.0 108.8 L 128.0 110.6 L 128.0 120.6 L 155.2 120.6 L 161.2317756652832 114.5682243347168 L 154.8 111.7 L 147.8 108.2 L 141.2 104.4 L 135.0 100.4 L 129.3 96.2 L 124.0 91.7 L 119.2 86.9 L 115.1 81.7 L 92.26029415130616 81.7 L 87.0 86.6 L 78.8 92.9 L 69.9 98.6 L 60.1 103.9 L 49.6 108.6 L 38.3 112.9 L 26.1 116.5 L 13.2 119.4 L 12.7 117.7 L 24.9 112.9 L 36.3 107.9 L 46.8 102.7 L 56.5 97.2 L 65.3 91.5 L 73.2 85.5 L 77.35625 81.7 L 19.0 81.7 L 19.0 77.7 L 81.5151515007019 77.7 L 86.4 72.5 L 91.8 65.6 L 93.47650051116943 62.91759920120239 L 91.4 63.0 L 77.9 63.4 L 63.5 63.7 L 48.2 63.7 L 32.0 63.5 L 31.9 61.7 L 48.0 59.9 L 63.2 58.3 L 77.5 56.8 L 90.9 55.5 L 103.4 54.1 L 115.0 52.7 L 122.0 51.84150943756104 L 122.0 34.8 L 78.0 34.8 L 78.0 47.0 L 66.0 53.0 L 66.0 34.8 L 13.0 34.8 L 13.0 30.8 L 66.0 30.8 L 66.0 12.3 L 78.0 14.3 L 81.0 16.3 L 78.0 18.1 L 78.0 30.8 L 122.0 30.8 L 122.0 12.3 L 134.0 14.3 L 137.0 16.3 L 134.0 18.1 L 134.0 30.8 L 164.9834711074829 30.8 L 175.0 20.7 L 187.0 30.8 L 187.0 34.8 L 134.0 34.8 L 134.0 47.0 L 125.06999998092651 51.464999961853025 L 125.6 51.4 L 135.4 50.0 L 144.2 48.6 L 152.1 47.2 L 152.26580314636232 48.360621738433835 L 163.6 57.7 L 164.0 60.7 L 159.4314606666565 58.295505619049074 L 153.8 59.1 L 145.6 59.9 L 136.5 60.7 L 126.6 61.4 L 115.8 62.0 L 104.0 62.5 L 103.71691398620605 62.51123361587524 L 106.6 64.6 L 108.1 67.9 L 104.21898736953736 67.9 L 100.9 72.5 L 96.19863014221191 77.7 L 159.0 77.7 L 169.0 67.7 L 181.0 77.7 L 181.0 81.7 L 118.46666669845581 81.7 L 121.8 83.7 L 127.4 86.9 L 133.2 90.1 L 139.2 93.2 L 145.5 96.1 L 152.2 98.9 L 159.1 101.5 L 166.3 104.0 L 173.9 106.3 L 181.8 108.4 L 189.7 110.7 L 178.1 121.1 L 177.2 120.77777776718139 Z " />
</g>
</svg>
