<svg xmlns="http://www.w3.org/2000/svg" xmlns:xlink="http://www.w3.org/1999/xlink" version="1.1" baseProfile="full" viewBox="0 0 200 200" width="200" height="200">
<g fill="black">
<path d="M 70.8 54.4 L 72.6 57.5 L 68.91960535049438 57.88073043823242 L 66.1 63.1 L 61.2 71.7 L 56.1 80.0 L 50.8 88.1 L 45.2 96.0 L 44.690403079986574 96.66506719589233 L 50.3 97.6 L 53.3 99.6 L 50.3 101.4 L 50.3 182.5 L 38.3 188.5 L 38.3 104.95 L 33.3 111.2 L 26.9 118.4 L 20.2 125.3 L 13.2 131.8 L 11.8 130.6 L 17.3 122.8 L 22.7 115.0 L 28.0 107.2 L 33.1 99.3 L 38.1 91.3 L 42.9 83.2 L 47.5 74.9 L 51.8 66.5 L 56.0 57.9 L 59.57337026596069 50.12791967391968 L 59.5 50.1 L 60.5 48.1 Z M 87.2 56.2 L 114.1 56.2 L 120.1 51.2 L 131.1 60.2 L 126.1 64.2 L 126.1 97.6 L 114.1 103.6 L 114.1 93.6 L 87.2 93.6 L 87.2 116.6 L 105.21818180084229 116.6 L 113.4 107.6 L 123.4 116.6 L 123.4 120.6 L 87.2 120.6 L 87.2 142.1 L 105.21818180084229 142.1 L 113.4 133.1 L 123.4 142.1 L 123.4 146.1 L 87.2 146.1 L 87.2 180.8 L 75.2 186.8 L 75.2 50.2 Z M 162.6 174.9 L 156.2 169.7 L 151.13830337524413 164.36221075057983 L 145.1 168.8 L 135.7 174.0 L 125.3 178.3 L 113.9 181.6 L 101.4 183.9 L 101.0 182.1 L 112.7 178.0 L 123.3 173.4 L 132.6 168.3 L 140.7 162.6 L 146.13732929229735 157.78407974243163 L 146.0 157.6 L 142.2 150.8 L 139.2 143.5 L 137.1 135.7 L 136.0 127.5 L 135.9104651451111 119.8 L 127.8 119.8 L 127.8 115.8 L 166.2 115.8 L 172.2 110.8 L 183.2 119.8 L 178.2 122.8 L 177.00528631210327 123.29779739379883 L 175.6 129.2 L 171.8 138.9 L 166.8 147.7 L 160.7 155.6 L 158.816508102417 157.43188934326173 L 163.3 161.3 L 169.1 165.1 L 175.5 168.5 L 182.5 171.4 L 188.9 174.0 L 177.5 183.6 L 169.6 179.6 Z M 138.0300000190735 119.8 L 140.1 126.7 L 142.8 134.0 L 145.8 140.6 L 149.4 146.7 L 152.52922267913817 150.82141523361207 L 153.5 149.7 L 158.3 142.5 L 162.0 134.6 L 164.6 126.1 L 165.76413040161134 119.8 Z M 183.2 60.2 L 178.2 64.2 L 178.2 97.6 L 166.2 103.6 L 166.2 93.6 L 134.5 93.6 L 134.5 89.6 L 166.2 89.6 L 166.2 60.2 L 136.7 60.2 L 136.7 56.2 L 166.2 56.2 L 172.2 51.2 Z M 87.2 60.2 L 87.2 89.6 L 114.1 89.6 L 114.1 60.2 Z M 135.2 13.9 L 138.2 15.9 L 135.2 17.7 L 135.2 26.9 L 166.8 26.9 L 176.8 16.9 L 188.8 26.9 L 188.8 30.9 L 135.2 30.9 L 135.2 41.3 L 123.2 47.3 L 123.2 30.9 L 78.7 30.9 L 78.7 41.3 L 66.7 47.3 L 66.7 30.9 L 13.1 30.9 L 13.1 26.9 L 66.7 26.9 L 66.7 11.9 L 78.7 13.9 L 81.7 15.9 L 78.7 17.7 L 78.7 26.9 L 123.2 26.9 L 123.2 11.9 Z " />
</g>
</svg>
