<svg xmlns="http://www.w3.org/2000/svg" xmlns:xlink="http://www.w3.org/1999/xlink" version="1.1" baseProfile="full" viewBox="0 0 200 200" width="200" height="200">
<g fill="black">
<path d="M 86.84987468719483 137.8 L 73.32239456176758 156.28446769714355 L 81.8 156.5 L 93.0 157.3 L 103.7 158.5 L 110.90808410644532 159.68968381881714 L 111.4 159.4 L 118.1 153.8 L 122.6 147.9 L 125.2 141.9 L 125.67049179077148 137.8 Z M 137.2 110.5 L 128.9 115.8 L 119.7 120.1 L 109.6 123.7 L 98.7 126.3 L 94.90513792037964 126.81455755233765 L 96.1 130.2 L 92.13260059356689 130.58148069381713 L 89.77719297409058 133.8 L 164.2 133.8 L 172.748837184906 125.25116281509399 L 170.4 124.6 L 161.1 121.0 L 152.6 116.9 L 144.9 112.0 L 140.08428745269777 108.16138858795166 Z M 40.9 117.6 L 56.9 117.6 L 58.1 117.5 L 59.0 117.3 L 59.6 117.1 L 60.0 117.0 L 60.1 116.8 L 60.3 116.6 L 60.5 116.3 L 60.7 115.7 L 60.8 114.8 L 60.9 113.6 L 60.9 96.7 L 60.3 97.2 L 55.8 100.4 L 51.0 103.5 L 45.9 106.5 L 40.4 109.2 L 34.6 111.6 L 28.4 113.9 L 21.9 115.8 L 14.9 117.4 L 14.3 115.7 L 20.4 112.3 L 26.2 109.0 L 31.6 105.8 L 36.7 102.5 L 41.4 99.2 L 45.7 95.9 L 49.6 92.5 L 53.2 89.1 L 54.13333330154419 88.1 L 21.9 88.1 L 21.9 84.1 L 60.175 84.1 L 59.9 83.0 L 59.3 81.7 L 58.4 80.2 L 57.3 78.6 L 56.0 77.0 L 54.4 75.3 L 52.5 73.5 L 50.5 71.6 L 48.2 69.7 L 45.5 68.1 L 46.2 66.5 L 49.2 67.6 L 52.2 68.2 L 55.1 69.1 L 57.7 70.0 L 60.2 71.0 L 62.5 72.1 L 64.7 73.3 L 66.7 74.6 L 68.6 76.0 L 68.7 76.1 L 72.6 72.2 L 75.2 69.7 L 77.6 67.3 L 79.9 64.9 L 82.0 62.5 L 82.54782609939575 61.9 L 27.2 61.9 L 27.2 57.9 L 86.0 57.9 L 87.7 55.7 L 88.13003225326538 56.124973106384275 L 92.0 52.9 L 103.0 61.9 L 98.0 64.9 L 91.63870964050292 67.55053768157958 L 91.0 68.0 L 88.2 69.8 L 85.3 71.7 L 82.3 73.4 L 79.2 75.2 L 75.9 76.9 L 72.5 78.5 L 70.57528867721558 79.24849882125855 L 71.1 82.2 L 69.8 84.1 L 91.2 84.1 L 91.86400003433228 83.54666662216187 L 92.2 82.8 L 92.51460676193237 83.00449438095093 L 97.2 79.1 L 106.69182386398316 86.86603775024415 L 108.0 84.3 L 110.4 79.4 L 112.4 74.6 L 114.2 69.9 L 115.7 65.4 L 116.8 61.1 L 117.7 56.9 L 118.15288457870483 53.8052885055542 L 118.1 53.8 L 118.6 50.9 L 122.0 52.11217393875122 L 122.0 33.6 L 78.0 33.6 L 78.0 47.0 L 66.0 53.0 L 66.0 33.6 L 13.0 33.6 L 13.0 29.6 L 66.0 29.6 L 66.0 11.5 L 78.0 13.5 L 81.0 15.5 L 78.0 17.3 L 78.0 29.6 L 122.0 29.6 L 122.0 11.5 L 134.0 13.5 L 137.0 15.5 L 134.0 17.3 L 134.0 29.6 L 165.0 29.6 L 175.0 19.6 L 187.0 29.6 L 187.0 33.6 L 134.0 33.6 L 134.0 47.0 L 123.03654823303222 52.48172588348389 L 130.1 55.0 L 132.7 57.5 L 129.01985292434694 58.905147075653076 L 128.8 59.7 L 127.1 64.4 L 125.78085107803345 67.5 L 160.9 67.5 L 170.9 57.5 L 182.9 67.5 L 182.9 71.5 L 162.803125 71.5 L 164.6 72.0 L 161.2 81.3 L 156.6 89.8 L 151.1 97.5 L 147.39632654190063 101.48857145309448 L 150.4 103.4 L 157.6 107.0 L 165.4 110.0 L 173.9 112.5 L 183.2 114.5 L 192.3 116.4 L 180.5 127.4 L 177.53293771743773 126.57744808197022 L 186.2 133.8 L 186.2 137.8 L 137.61702127456664 137.8 L 136.0 145.4 L 131.6 153.8 L 124.9 161.1 L 123.56897144317627 162.05520877838134 L 123.8 162.1 L 133.2 164.4 L 142.0 167.0 L 150.4 169.9 L 158.3 173.2 L 165.8 176.8 L 168.6 180.4 L 168.1 184.9 L 164.5 187.7 L 159.9 187.2 L 153.3 183.4 L 146.2 179.8 L 138.6 176.5 L 130.4 173.3 L 121.6 170.3 L 114.37555732727051 168.20258111953734 L 105.9 172.4 L 93.6 176.7 L 79.3 180.2 L 63.1 182.9 L 44.9 184.7 L 24.7 185.7 L 24.6 183.9 L 44.5 181.0 L 62.2 177.6 L 77.8 173.8 L 91.2 169.5 L 101.98176097869873 164.87924528121948 L 92.2 162.6 L 81.3 160.2 L 71.79875555038453 158.3664264678955 L 65.7 166.7 L 52.5 164.4 L 71.9760259628296 137.8 L 16.8 137.8 L 16.8 133.8 L 74.90475158691406 133.8 L 86.4 118.1 L 92.45767869949341 124.30021228790284 L 97.7 122.6 L 107.8 118.6 L 116.9 114.2 L 124.9 109.3 L 131.9 103.9 L 133.7 102.12950820922852 L 131.9 100.3 L 126.8 93.6 L 122.7 86.2 L 119.71889524459839 78.84039754867554 L 117.0 83.1 L 113.6 87.8 L 109.9 92.4 L 105.7 97.0 L 101.0 101.4 L 99.6 100.3 L 102.6 94.7 L 105.10607738494873 89.95635356903077 L 103.2 91.1 L 98.74285717010498 92.95714282989502 L 98.7 93.0 L 94.7 96.8 L 90.3 100.6 L 87.9 102.5 L 85.3 104.4 L 82.6 106.3 L 80.1 108.5 L 78.8 107.2 L 80.7 104.6 L 82.3 101.7 L 83.8 99.0 L 85.3 96.4 L 86.7 93.9 L 88.0 91.5 L 89.2 89.2 L 89.75 88.1 L 72.9 88.1 L 72.9 113.6 L 72.8 116.1 L 72.3 118.6 L 71.5 121.0 L 70.3 123.3 L 68.6 125.3 L 66.6 126.9 L 64.4 128.2 L 61.9 129.0 L 59.5 129.4 L 56.9 129.6 L 56.9 123.6 L 40.9 120.6 Z M 123.84782609939575 71.5 L 122.7 73.7 L 122.19379377365112 74.58117370605468 L 123.3 76.6 L 127.7 83.2 L 132.6 89.2 L 137.9 94.5 L 139.61848373413085 95.86896162033081 L 143.1 91.5 L 147.3 84.5 L 150.6 76.9 L 152.26666669845582 71.5 Z " />
</g>
</svg>
