<svg xmlns="http://www.w3.org/2000/svg" xmlns:xlink="http://www.w3.org/1999/xlink" version="1.1" baseProfile="full" viewBox="0 0 200 200" width="200" height="200">
<g fill="black">
<path d="M 21.4 175.5 L 35.4 175.5 L 36.6 175.4 L 37.5 175.2 L 38.4 174.9 L 38.8 174.5 L 39.1 173.6 L 39.3 172.7 L 39.4 171.5 L 39.4 133.8241379737854 L 31.2 137.5 L 23.201160621643066 140.88933868408202 L 22.3 144.6 L 19.4 142.5 L 13.4 131.9 L 15.3 131.2 L 21.3 129.3 L 27.4 127.4 L 39.4 123.6 L 39.4 89.0 L 15.7 89.0 L 15.7 85.0 L 39.4 85.0 L 39.4 56.0 L 51.4 58.0 L 54.4 60.0 L 51.4 61.8 L 51.4 85.0 L 53.7 85.0 L 63.7 75.0 L 75.7 85.0 L 75.7 89.0 L 51.4 89.0 L 51.4 119.9 L 57.3 118.0 L 63.3 116.2 L 69.3 114.6 L 75.4 113.1 L 76.1 114.8 L 70.8 118.1 L 65.3 121.2 L 59.8 124.1 L 54.2 126.9 L 51.4 128.22631578445436 L 51.4 171.5 L 51.2 174.0 L 50.8 176.5 L 50.0 178.9 L 48.7 181.2 L 47.1 183.2 L 45.1 184.8 L 42.8 186.1 L 40.4 186.9 L 37.9 187.3 L 35.4 187.5 L 35.4 181.5 L 21.4 178.5 Z M 167.3 178.9 L 161.7 175.8 L 156.4 172.3 L 151.2 168.6 L 146.3 164.5 L 141.5 160.2 L 137.1 155.5 L 133.0 150.4 L 131.0 147.37297296524048 L 131.0 180.3 L 119.0 186.3 L 119.0 153.8277777671814 L 114.9 157.7 L 109.3 162.5 L 103.3 166.9 L 97.0 170.9 L 90.5 174.6 L 83.6 177.9 L 76.4 180.8 L 68.9 183.2 L 61.0 185.0 L 60.4 183.3 L 67.4 179.6 L 74.1 175.9 L 80.5 172.1 L 86.6 168.1 L 92.3 163.9 L 97.6 159.5 L 102.7 154.9 L 107.4 150.1 L 111.36862745285035 145.5 L 63.6 145.5 L 63.6 141.5 L 119.0 141.5 L 119.0 129.6 L 93.0 129.6 L 81.0 135.6 L 81.0 87.7 L 93.0 93.7 L 156.9 93.7 L 161.12123889923095 90.18230085372925 L 159.2 89.0 L 158.8 87.7 L 158.2 86.3 L 157.4 84.8 L 156.6 83.4 L 155.6 81.8 L 154.4 80.3 L 153.1 78.7 L 151.6 77.0 L 150.0 75.3 L 148.1 74.0 L 148.442857170105 73.31428575515747 L 148.1 73.5 L 147.1 72.0 L 149.2 70.3 L 150.9 68.1 L 152.5 66.1 L 154.1 64.2 L 155.5 62.4 L 156.8 60.6 L 158.0 58.9 L 159.0 57.3 L 159.9 55.8 L 160.2324110984802 55.17672920227051 L 160.0 55.0 L 161.0 53.9 L 169.6 62.3 L 170.6 65.8 L 165.77922077178954 64.88571424484253 L 164.2 65.8 L 162.2 66.9 L 160.1 68.0 L 157.9 69.1 L 155.6 70.2 L 153.1 71.2 L 150.5 72.2 L 149.5692015647888 72.70418252944947 L 151.1 73.4 L 153.5 73.9 L 155.8 74.6 L 157.9 75.3 L 160.0 76.2 L 162.0 77.2 L 163.9 78.2 L 165.7 79.4 L 167.4 80.7 L 169.0 82.1 L 170.0 86.6 L 167.6 90.5 L 165.59107141494752 90.90178575515748 L 173.9 97.7 L 168.9 101.7 L 168.9 129.6 L 156.9 135.6 L 156.9 129.6 L 131.0 129.6 L 131.0 141.5 L 168.11818180084228 141.5 L 176.3 132.5 L 186.3 141.5 L 186.3 145.5 L 133.3 145.5 L 135.9 147.4 L 141.1 151.1 L 146.1 154.6 L 151.2 157.8 L 156.3 160.8 L 161.5 163.5 L 166.8 166.0 L 172.2 168.2 L 177.7 170.1 L 183.2 171.7 L 190.7 174.2 L 179.1 184.3 L 173.1 181.7 Z M 93.0 113.6 L 93.0 125.6 L 119.0 125.6 L 119.0 113.6 Z M 131.0 113.6 L 131.0 125.6 L 156.9 125.6 L 156.9 113.6 Z M 93.0 97.7 L 93.0 109.6 L 119.0 109.6 L 119.0 97.7 Z M 131.0 97.7 L 131.0 109.6 L 156.9 109.6 L 156.9 97.7 Z M 89.6 86.3 L 88.8 84.8 L 88.0 83.4 L 86.9 81.8 L 85.8 80.3 L 84.4 78.7 L 83.0 77.0 L 81.4 75.3 L 79.4 74.0 L 79.76067419052124 73.35880146026611 L 79.5 73.5 L 78.5 72.0 L 80.6 70.3 L 82.3 68.1 L 83.9 66.1 L 85.5 64.2 L 86.9 62.4 L 88.2 60.6 L 89.3 58.9 L 90.4 57.3 L 91.3 55.8 L 91.63241109848022 55.17672920227051 L 91.4 55.0 L 92.4 53.9 L 101.0 62.3 L 101.9 65.8 L 97.175 64.88815793991088 L 95.6 65.8 L 93.6 66.9 L 91.5 68.0 L 89.3 69.1 L 87.0 70.2 L 84.5 71.2 L 81.9 72.2 L 80.96920156478882 72.70418252944947 L 82.5 73.4 L 84.9 73.9 L 89.3 75.3 L 91.4 76.2 L 93.4 77.2 L 95.3 78.2 L 97.1 79.4 L 98.8 80.7 L 100.4 82.1 L 101.3 86.6 L 98.9 90.5 L 94.5 91.4 L 90.6 89.0 L 90.1 87.7 Z M 123.9 86.3 L 123.1 84.8 L 122.3 83.4 L 121.2 81.8 L 120.1 80.3 L 118.8 78.7 L 117.3 77.0 L 115.7 75.3 L 113.8 74.0 L 114.14285717010497 73.31428575515747 L 113.8 73.5 L 112.8 72.0 L 114.9 70.3 L 116.6 68.1 L 118.2 66.1 L 119.8 64.2 L 121.2 62.4 L 122.5 60.6 L 123.7 58.9 L 124.7 57.3 L 125.6 55.8 L 125.93241109848023 55.17672920227051 L 125.7 55.0 L 126.7 53.9 L 135.3 62.3 L 136.2 65.8 L 131.475 64.88815793991088 L 129.9 65.8 L 127.9 66.9 L 125.8 68.0 L 123.6 69.1 L 121.3 70.2 L 118.8 71.2 L 116.2 72.2 L 115.26920156478882 72.70418252944947 L 116.8 73.4 L 119.2 73.9 L 123.6 75.3 L 125.7 76.2 L 127.7 77.2 L 129.6 78.2 L 131.4 79.4 L 133.1 80.7 L 134.7 82.1 L 135.6 86.6 L 133.2 90.5 L 128.8 91.4 L 124.9 89.0 L 124.4 87.7 Z M 134.0 13.8 L 137.0 15.8 L 134.0 17.6 L 134.0 30.6 L 165.0 30.6 L 175.0 20.6 L 187.0 30.6 L 187.0 34.6 L 134.0 34.6 L 134.0 48.6 L 122.0 54.6 L 122.0 34.6 L 78.0 34.6 L 78.0 48.6 L 66.0 54.6 L 66.0 34.6 L 13.0 34.6 L 13.0 30.6 L 66.0 30.6 L 66.0 11.8 L 78.0 13.8 L 81.0 15.8 L 78.0 17.6 L 78.0 30.6 L 122.0 30.6 L 122.0 11.8 Z " />
</g>
</svg>
