<svg xmlns="http://www.w3.org/2000/svg" xmlns:xlink="http://www.w3.org/1999/xlink" version="1.1" baseProfile="full" viewBox="0 0 200 200" width="200" height="200">
<g fill="black">
<path d="M 12.2 176.7 L 38.9 176.7 L 38.9 135.0 L 50.9 141.0 L 149.0 141.0 L 155.0 136.0 L 166.0 145.0 L 161.0 149.0 L 161.0 176.7 L 165.7 176.7 L 175.7 166.7 L 187.7 176.7 L 187.7 180.7 L 12.2 180.7 Z M 50.9 145.0 L 50.9 176.7 L 75.6 176.7 L 75.6 145.0 Z M 87.6 145.0 L 87.6 176.7 L 112.3 176.7 L 112.3 145.0 Z M 124.3 145.0 L 124.3 176.7 L 149.0 176.7 L 149.0 145.0 Z M 70.9 127.3 L 90.9 127.3 L 92.1 127.2 L 93.0 127.1 L 93.6 126.9 L 93.9 126.7 L 94.1 126.5 L 94.3 126.4 L 94.4 126.0 L 94.6 125.4 L 94.8 124.5 L 94.9 123.3 L 94.9 89.4 L 15.4 89.4 L 15.4 85.4 L 115.08185052871704 85.4 L 120.11245555877686 76.1 L 59.09489049911499 76.1 L 57.7 78.7 L 44.3 78.3 L 62.8 43.9 L 66.0 46.36666669845581 L 66.0 31.9 L 13.0 31.9 L 13.0 27.9 L 66.0 27.9 L 66.0 12.3 L 78.0 14.3 L 81.0 16.3 L 78.0 18.1 L 78.0 27.9 L 122.0 27.9 L 122.0 12.3 L 134.0 14.3 L 137.0 16.3 L 134.0 18.1 L 134.0 27.9 L 165.0 27.9 L 175.0 17.9 L 187.0 27.9 L 187.0 31.9 L 134.0 31.9 L 134.0 42.9 L 122.0 48.9 L 122.0 31.9 L 78.0 31.9 L 78.0 42.9 L 67.99344263076782 47.9032787322998 L 72.4 51.3 L 74.1 54.5 L 70.38213701248169 55.06118688583374 L 69.18102188110352 57.3 L 130.0 57.3 L 136.0 52.3 L 147.0 61.3 L 142.0 64.3 L 138.95971727371216 65.56678447723388 L 128.6405903816223 85.4 L 164.4181818008423 85.4 L 172.6 76.4 L 182.6 85.4 L 182.6 89.4 L 110.75500001907349 89.4 L 112.9 92.0 L 116.6 95.7 L 121.0 99.2 L 126.1 102.7 L 129.3875696182251 104.50816326141357 L 130.2 104.2 L 135.9 102.2 L 141.4 100.4 L 146.7 98.7 L 151.9 97.1 L 156.9 95.5 L 161.8 94.0 L 166.5 92.4 L 171.0 91.0 L 174.31572885513305 89.84335041046143 L 174.3 89.8 L 174.34136304855346 89.83440818786622 L 175.3 89.5 L 175.68894443511962 90.9554051399231 L 185.6 99.2 L 185.9 102.2 L 181.67430868148804 100.2359462738037 L 178.4 101.1 L 173.8 102.0 L 169.1 102.8 L 164.1 103.7 L 159.1 104.5 L 153.8 105.4 L 148.4 106.1 L 142.8 106.8 L 137.0 107.5 L 135.40941381454468 107.60603904724121 L 138.9 109.3 L 146.7 112.4 L 155.4 115.3 L 165.1 118.1 L 175.7 120.8 L 184.0 123.0 L 172.3 133.5 L 161.4 130.1 L 151.5 126.4 L 142.5 122.5 L 134.4 118.4 L 127.3 114.1 L 121.2 109.4 L 116.1 104.6 L 112.1 99.5 L 109.3 94.1 L 108.18909091949463 89.4 L 106.9 89.4 L 106.9 123.3 L 106.7 125.8 L 106.3 128.3 L 105.5 130.7 L 104.2 133.0 L 102.6 135.0 L 100.6 136.7 L 98.3 137.9 L 95.9 138.7 L 93.4 139.1 L 90.9 139.3 L 90.9 133.3 L 70.9 130.3 Z M 24.5 120.1 L 31.5 118.8 L 38.5 117.6 L 51.9 115.4 L 58.4 114.4 L 64.8 113.5 L 71.1 112.7 L 77.2 112.1 L 83.3 111.7 L 89.3 111.5 L 89.6 113.3 L 84.1 115.4 L 78.3 117.3 L 72.4 119.2 L 66.4 120.9 L 60.2 122.7 L 47.4 126.3 L 40.8 128.1 L 34.0 129.9 L 31.126772594451904 130.69117860794069 L 29.8 134.3 L 27.1 131.8 L 22.6 120.5 Z M 58.4 108.2 L 56.1 106.7 L 53.6 105.2 L 50.9 103.6 L 47.8 101.9 L 44.5 100.2 L 41.0 98.4 L 37.2 96.4 L 33.2 94.6 L 33.7 92.9 L 38.1 93.7 L 42.3 94.2 L 46.3 94.9 L 50.1 95.6 L 53.6 96.3 L 56.9 97.1 L 60.0 97.9 L 62.9 98.8 L 65.5 99.7 L 68.0 100.6 L 70.7 104.2 L 70.2 108.8 L 66.5 111.5 L 62.0 111.0 L 60.3 109.6 Z M 67.03503646850587 61.3 L 61.24087591171265 72.1 L 122.27615661621094 72.1 L 128.11814947128295 61.3 Z " />
</g>
</svg>
