<svg xmlns="http://www.w3.org/2000/svg" xmlns:xlink="http://www.w3.org/1999/xlink" version="1.1" baseProfile="full" viewBox="0 0 200 200" width="200" height="200">
<g fill="black">
<path d="M 130.1 186.5 L 111.8 185.5 L 96.9 183.9 L 84.7 181.6 L 74.9 178.7 L 67.2 175.1 L 61.0 170.8 L 56.3 165.9 L 53.98571424484253 162.4285714149475 L 51.5 164.5 L 48.0 167.4 L 44.4 170.2 L 40.8 172.8 L 37.2 175.3 L 33.6 177.7 L 30.0 180.0 L 26.4 182.2 L 23.06379690170288 184.2970419883728 L 22.5 188.3 L 19.4 186.5 L 12.4 176.6 L 14.2 175.7 L 17.9 174.2 L 21.7 172.8 L 25.5 171.2 L 29.4 169.7 L 33.3 168.1 L 37.3 166.4 L 41.4 164.8 L 43.7 163.92380952835083 L 43.7 123.8 L 13.9 123.8 L 13.9 119.8 L 43.7 119.8 L 49.7 114.8 L 60.7 123.8 L 55.7 127.8 L 55.7 160.4442307472229 L 59.2 162.8 L 64.4 165.9 L 70.3 168.5 L 77.4 170.7 L 86.5 172.5 L 98.0 173.7 L 112.4 174.5 L 130.2 174.7 L 151.9 174.3 L 177.8 173.3 L 189.3 172.9 L 178.3 186.5 L 152.1 186.8 Z M 136.7 160.7 L 150.7 160.7 L 151.9 160.6 L 152.8 160.4 L 153.7 160.1 L 154.1 159.7 L 154.4 158.8 L 154.6 157.9 L 154.7 156.7 L 154.7 145.8 L 96.7 145.8 L 96.7 165.9 L 84.7 171.9 L 84.7 145.8 L 67.2 145.8 L 67.2 141.8 L 84.7 141.8 L 84.7 126.5 L 67.2 126.5 L 67.2 122.5 L 84.7 122.5 L 84.7 100.3 L 96.7 106.3 L 120.1 106.3 L 120.1 94.8 L 67.2 94.8 L 67.2 90.8 L 100.2 90.8 L 100.2 77.1 L 74.5 77.1 L 74.5 73.1 L 100.2 73.1 L 100.2 61.5 L 71.6 61.5 L 71.6 57.5 L 100.2 57.5 L 100.2 43.8 L 112.2 45.8 L 115.2 47.8 L 112.2 49.6 L 112.2 57.5 L 139.2 57.5 L 139.2 43.8 L 151.2 45.8 L 154.2 47.8 L 151.2 49.6 L 151.2 57.5 L 163.11818180084228 57.5 L 171.3 48.5 L 181.3 57.5 L 181.3 61.5 L 151.2 61.5 L 151.2 73.1 L 160.11818180084228 73.1 L 168.3 64.1 L 178.3 73.1 L 178.3 77.1 L 151.2 77.1 L 151.2 90.8 L 171.4777777671814 90.8 L 177.7 83.8 L 185.7 90.8 L 185.7 94.8 L 132.1 94.8 L 132.1 106.3 L 154.7 106.3 L 160.7 101.3 L 171.7 110.3 L 166.7 114.3 L 166.7 122.5 L 171.4777777671814 122.5 L 177.7 115.5 L 185.7 122.5 L 185.7 126.5 L 166.7 126.5 L 166.7 141.8 L 171.4777777671814 141.8 L 177.7 134.8 L 185.7 141.8 L 185.7 145.8 L 166.7 145.8 L 166.7 156.7 L 166.5 159.2 L 166.1 161.7 L 165.3 164.1 L 164.1 166.4 L 162.4 168.4 L 160.4 170.0 L 158.1 171.3 L 155.7 172.1 L 153.2 172.5 L 150.7 172.7 L 150.7 166.7 L 136.7 163.7 Z M 96.7 126.5 L 96.7 141.8 L 120.1 141.8 L 120.1 126.5 Z M 132.1 126.5 L 132.1 141.8 L 154.7 141.8 L 154.7 126.5 Z M 96.7 110.3 L 96.7 122.5 L 120.1 122.5 L 120.1 110.3 Z M 132.1 110.3 L 132.1 122.5 L 154.7 122.5 L 154.7 110.3 Z M 36.1 95.7 L 33.8 93.6 L 28.6 89.4 L 25.8 87.4 L 22.9 85.3 L 19.8 83.2 L 16.5 81.4 L 17.1 79.7 L 20.9 80.6 L 24.6 81.3 L 28.3 82.3 L 31.8 83.4 L 35.2 84.8 L 38.5 86.3 L 41.7 87.9 L 44.8 89.7 L 47.8 91.7 L 50.7 93.8 L 52.5 98.0 L 50.9 102.3 L 46.7 104.0 L 42.4 102.5 L 38.4 97.9 Z M 112.2 77.1 L 112.2 90.8 L 139.2 90.8 L 139.2 77.1 Z M 47.9 68.5 L 46.0 66.4 L 43.9 64.2 L 41.6 62.1 L 39.1 60.0 L 36.5 57.8 L 33.7 55.7 L 30.7 53.5 L 27.4 51.6 L 28.1 49.9 L 31.8 50.9 L 35.6 51.8 L 39.1 52.9 L 42.5 54.2 L 45.8 55.6 L 49.0 57.2 L 52.0 58.9 L 54.8 60.7 L 57.5 62.7 L 60.1 64.9 L 61.6 69.2 L 59.7 73.4 L 55.3 74.8 L 51.2 72.9 L 49.6 70.7 Z M 112.2 61.5 L 112.2 73.1 L 139.2 73.1 L 139.2 61.5 Z M 134.0 14.2 L 137.0 16.2 L 134.0 18.0 L 134.0 27.7 L 165.0 27.7 L 175.0 17.7 L 187.0 27.7 L 187.0 31.7 L 134.0 31.7 L 134.0 42.6 L 122.0 48.6 L 122.0 31.7 L 78.0 31.7 L 78.0 42.6 L 66.0 48.6 L 66.0 31.7 L 13.0 31.7 L 13.0 27.7 L 66.0 27.7 L 66.0 12.2 L 78.0 14.2 L 81.0 16.2 L 78.0 18.0 L 78.0 27.7 L 122.0 27.7 L 122.0 12.2 Z " />
</g>
</svg>
