<svg xmlns="http://www.w3.org/2000/svg" xmlns:xlink="http://www.w3.org/1999/xlink" version="1.1" baseProfile="full" viewBox="0 0 200 200" width="200" height="200">
<g fill="black">
<path d="M 95.0 111.8 L 95.0 115.8 L 71.8 115.8 L 71.8 144.0 L 77.0 144.0 L 87.0 134.0 L 99.0 144.0 L 99.0 148.0 L 71.8 148.0 L 71.8 182.5 L 59.8 188.5 L 59.8 148.0 L 43.51857585906983 148.0 L 42.1 155.9 L 29.2 159.6 L 36.4 119.5 L 47.9 123.6 L 50.5 126.1 L 47.27633256912232 127.07318267822265 L 44.23684206008911 144.0 L 59.8 144.0 L 59.8 115.8 L 36.6 115.8 L 36.6 111.8 L 73.0 111.8 L 83.0 101.8 Z M 46.3 84.6 L 44.5 82.6 L 42.4 80.6 L 40.2 78.7 L 37.9 76.8 L 35.3 74.9 L 32.6 73.0 L 29.8 71.0 L 26.6 69.4 L 27.2 67.7 L 30.7 68.5 L 34.3 69.1 L 37.7 70.0 L 40.9 71.0 L 44.1 72.1 L 47.1 73.4 L 50.1 74.9 L 52.9 76.5 L 55.5 78.2 L 58.1 80.1 L 59.8 84.4 L 58.866197204589845 86.70704221725464 L 65.5 81.4 L 72.3 75.1 L 78.5 68.6 L 84.0 61.8 L 85.12676057815551 60.2 L 33.0 60.2 L 33.0 56.2 L 87.94366197586059 56.2 L 89.0 54.7 L 89.43564357757569 55.00363035202027 L 94.0 51.2 L 105.0 60.2 L 100.0 63.2 L 96.37959184646607 64.70850343704224 L 92.9 69.0 L 86.2 76.0 L 79.0 82.6 L 71.2 88.7 L 62.9 94.4 L 53.9 99.6 L 44.4 104.4 L 34.3 108.8 L 23.6 112.5 L 12.2 115.7 L 11.7 114.0 L 22.1 109.0 L 32.0 103.9 L 41.3 98.6 L 50.0 93.1 L 54.09165906906128 90.18469295501708 L 53.8 90.3 L 49.6 88.6 L 48.0 86.6 Z M 163.41845493316652 106.89871244430542 L 169.3 111.8 L 169.3 115.8 L 144.3 115.8 L 144.3 144.0 L 151.6 144.0 L 161.6 134.0 L 173.6 144.0 L 173.6 148.0 L 144.3 148.0 L 144.3 182.5 L 132.3 188.5 L 132.3 148.0 L 114.22111797332764 148.0 L 112.7 155.9 L 99.8 159.6 L 107.5 119.5 L 118.9 123.7 L 121.5 126.2 L 118.22846832275391 127.18763217926025 L 114.99130430221558 144.0 L 132.3 144.0 L 132.3 115.8 L 107.3 115.8 L 107.3 111.8 L 147.3 111.8 L 155.88571424484252 103.21428575515748 L 149.1 99.5 L 140.4 93.9 L 132.5 87.9 L 125.4 81.4 L 119.2 74.6 L 114.0 67.2 L 109.7 59.5 L 106.6 51.3 L 108.2 50.6 L 113.3 57.3 L 118.7 63.7 L 124.5 69.6 L 130.9897557258606 75.19117412567138 L 131.6 74.6 L 134.4 71.5 L 137.2 68.6 L 139.7 65.9 L 142.1 63.4 L 144.3 61.0 L 146.3 58.8 L 148.1 56.7 L 149.8 54.8 L 150.54816980361937 53.83806734085083 L 150.4 53.7 L 151.4 52.8 L 159.2 61.9 L 159.7 65.5 L 155.58990821838378 64.22960796356202 L 154.9 64.7 L 152.4 66.2 L 149.8 67.8 L 146.9 69.4 L 143.9 71.2 L 140.6 73.1 L 137.1 75.0 L 133.3 76.9 L 133.2872483253479 76.90738258361816 L 138.1 80.5 L 145.9 85.3 L 147.80602407455444 86.32108430862426 L 151.4 83.2 L 154.9 80.2 L 158.3 77.5 L 161.3 74.9 L 164.1 72.5 L 166.7 70.3 L 168.9 68.3 L 170.9 66.4 L 171.89294118881224 65.40705881118774 L 171.8 65.3 L 172.6 64.7 L 179.7 74.4 L 179.9 78.0 L 175.98848867416382 76.3339859008789 L 174.9 76.9 L 172.1 78.3 L 169.0 79.9 L 165.7 81.5 L 162.0 83.3 L 158.1 85.2 L 153.8 87.1 L 151.29392004013062 88.18959999084473 L 154.3 89.8 L 163.5 94.0 L 173.4 97.7 L 184.0 101.1 L 191.5 103.6 L 179.9 113.7 L 168.9 109.4 Z M 134.0 13.5 L 137.0 15.5 L 134.0 17.3 L 134.0 29.6 L 165.0 29.6 L 175.0 19.6 L 187.0 29.6 L 187.0 33.6 L 134.0 33.6 L 134.0 47.0 L 122.0 53.0 L 122.0 33.6 L 78.0 33.6 L 78.0 47.0 L 66.0 53.0 L 66.0 33.6 L 13.0 33.6 L 13.0 29.6 L 66.0 29.6 L 66.0 11.5 L 78.0 13.5 L 81.0 15.5 L 78.0 17.3 L 78.0 29.6 L 122.0 29.6 L 122.0 11.5 Z " />
</g>
</svg>
