<svg xmlns="http://www.w3.org/2000/svg" xmlns:xlink="http://www.w3.org/1999/xlink" version="1.1" baseProfile="full" viewBox="0 0 200 200" width="200" height="200">
<g fill="black">
<path d="M 157.7 180.7 L 148.6 176.6 L 140.5 172.0 L 133.70751752853394 167.09431819915773 L 133.7 167.1 L 124.5 172.6 L 114.6 177.3 L 104.1 181.1 L 92.9 183.9 L 81.2 185.7 L 68.9 186.5 L 68.6 184.8 L 80.5 182.0 L 91.5 178.7 L 101.8 174.9 L 111.4 170.4 L 120.2 165.3 L 126.60020246505738 160.73985567092896 L 121.7 155.1 L 117.5 148.5 L 114.4 141.5 L 114.06382846832275 140.1366376876831 L 113.5 141.0 L 109.8 145.6 L 105.8 149.9 L 101.4 154.0 L 96.7 157.7 L 91.5 161.0 L 85.9 163.9 L 84.9 162.4 L 89.1 158.0 L 93.1 153.7 L 96.7 149.4 L 100.1 145.0 L 103.0 140.6 L 105.6 136.0 L 107.9 131.4 L 109.8 126.7 L 111.4 121.8 L 112.43815069198608 117.80711278915405 L 112.4 117.8 L 113.1 115.2 L 124.2 120.0 L 126.6 122.8 L 122.77226276397705 123.8072992324829 L 122.1 125.6 L 119.6 131.0 L 152.7 131.0 L 152.80775508880615 130.91020412445067 L 153.5 129.8 L 153.86909294128418 130.02575588226318 L 158.7 126.0 L 169.7 135.0 L 164.7 138.0 L 161.44966888427734 139.35430459976197 L 157.3 145.1 L 150.1 153.3 L 142.3 160.6 L 141.81947956085205 160.96318407058715 L 145.6 163.1 L 153.2 166.5 L 161.7 169.6 L 171.1 172.3 L 181.2 174.6 L 190.0 176.6 L 178.3 187.4 L 167.5 184.3 Z M 66.7 122.3 L 65.3 120.5 L 63.7 118.6 L 61.9 116.8 L 60.0 115.0 L 57.8 113.1 L 55.5 111.3 L 53.8 109.93999996185303 L 53.8 181.1 L 41.8 187.1 L 41.8 114.5 L 40.2 118.0 L 36.7 124.9 L 32.9 131.5 L 28.7 137.9 L 24.2 144.0 L 19.3 149.8 L 13.9 155.2 L 12.5 154.1 L 16.2 147.6 L 19.7 141.1 L 23.1 134.5 L 26.2 127.9 L 29.0 121.2 L 31.6 114.4 L 34.0 107.5 L 36.0 100.4 L 37.8 93.2 L 38.6 89.2 L 13.2 89.2 L 13.2 85.2 L 41.8 85.2 L 41.8 50.6 L 53.8 52.6 L 56.8 54.6 L 53.8 56.4 L 53.8 85.2 L 61.61818180084229 85.2 L 69.8 76.2 L 79.8 85.2 L 79.8 89.2 L 53.8 89.2 L 53.8 106.94375 L 54.0 107.0 L 57.2 107.6 L 60.3 108.4 L 63.2 109.4 L 66.0 110.5 L 68.7 111.8 L 71.3 113.2 L 73.7 114.8 L 76.0 116.5 L 78.2 118.3 L 79.5 122.7 L 77.4 126.7 L 73.0 128.0 L 68.9 125.9 L 67.9 124.1 Z M 117.32549018859864 135.0 L 116.7 136.1 L 116.26874675750733 136.76035661697387 L 118.1 139.7 L 122.4 145.2 L 127.1 150.3 L 132.6 155.0 L 133.11152305603028 155.35219621658325 L 135.6 153.2 L 142.2 146.1 L 148.2 138.3 L 150.2576470375061 135.0 Z M 180.9 104.5 L 182.9 104.5 L 180.9 113.5 L 183.3 115.1 L 184.9 117.5 L 183.3 119.9 L 180.9 121.5 L 151.9 121.5 L 149.6 121.3 L 147.3 120.8 L 145.2 119.8 L 143.2 118.5 L 141.5 116.7 L 140.2 114.7 L 139.2 112.4 L 138.6 110.0 L 138.2 107.5 L 138.2 93.9 L 114.36739130020142 93.9 L 121.0 96.6 L 123.4 99.2 L 119.37588510513305 100.51698303222656 L 119.3 100.7 L 117.2 104.6 L 114.5 108.3 L 111.3 111.7 L 107.6 114.9 L 103.5 117.9 L 99.0 120.6 L 94.0 123.2 L 88.4 125.5 L 82.5 127.6 L 81.7 125.9 L 86.8 122.4 L 91.3 118.9 L 95.4 115.5 L 98.9 112.1 L 101.9 108.9 L 104.4 105.7 L 106.3 102.6 L 107.8 99.5 L 108.8 96.6 L 109.12086496353149 94.80315608978272 L 109.1 94.8 L 109.22857141494751 94.2 L 109.28214282989502 93.9 L 77.6 93.9 L 77.6 89.9 L 123.8 89.9 L 123.8 73.0 L 87.6 73.0 L 87.6 69.0 L 123.8 69.0 L 123.8 49.8 L 135.8 51.8 L 138.8 53.8 L 135.8 55.6 L 135.8 69.0 L 152.2 69.0 L 162.2 59.0 L 174.2 69.0 L 174.2 73.0 L 135.8 73.0 L 135.8 89.9 L 174.37777776718139 89.9 L 180.6 82.9 L 188.6 89.9 L 188.6 93.9 L 150.2 93.9 L 150.2 107.5 L 150.1 108.7 L 150.1 110.4 L 150.2 111.0 L 150.3 111.4 L 150.5 111.9 L 150.9 112.3 L 151.7 112.8 L 152.8 113.2 L 154.2 113.5 L 176.9 113.5 Z M 134.0 14.2 L 137.0 16.2 L 134.0 18.0 L 134.0 31.6 L 165.0 31.6 L 175.0 21.6 L 187.0 31.6 L 187.0 35.6 L 134.0 35.6 L 134.0 42.3 L 122.0 48.3 L 122.0 35.6 L 78.0 35.6 L 78.0 50.2 L 66.0 56.2 L 66.0 35.6 L 13.0 35.6 L 13.0 31.6 L 66.0 31.6 L 66.0 12.2 L 78.0 14.2 L 81.0 16.2 L 78.0 18.0 L 78.0 31.6 L 122.0 31.6 L 122.0 12.2 Z " />
</g>
</svg>
