<svg xmlns="http://www.w3.org/2000/svg" xmlns:xlink="http://www.w3.org/1999/xlink" version="1.1" baseProfile="full" viewBox="0 0 200 200" width="200" height="200">
<g fill="black">
<path d="M 136.1 109.9 L 133.9 107.4 L 131.71754388809205 105.21754388809204 L 129.9 109.0 L 125.3 115.9 L 119.7 122.0 L 113.3 127.3 L 106.0 131.7 L 99.82061853408814 134.3701030731201 L 106.0 135.4 L 109.0 137.4 L 106.0 139.2 L 106.0 150.3 L 151.0 150.3 L 161.0 140.3 L 173.0 150.3 L 173.0 154.3 L 106.0 154.3 L 106.0 174.9 L 164.0 174.9 L 174.0 164.9 L 186.0 174.9 L 186.0 178.9 L 14.0 178.9 L 14.0 174.9 L 94.0 174.9 L 94.0 154.3 L 27.0 154.3 L 27.0 150.3 L 94.0 150.3 L 94.0 136.3079545021057 L 89.1 137.7 L 88.5 136.0 L 96.3 131.7 L 103.2 127.1 L 109.2 122.2 L 114.2 116.9 L 118.3 111.1 L 121.6 104.8 L 123.82680416107178 98.74309282302856 L 120.8 96.7 L 116.5 93.9 L 111.8 91.0 L 106.7 88.0 L 107.3 86.4 L 113.1 87.8 L 118.6 89.4 L 123.7 91.2 L 125.51289291381836 91.93287162780761 L 125.8 90.7 L 126.7 82.7 L 126.8 74.1 L 104.5 74.1 L 104.5 78.1 L 72.7 78.1 L 76.3 78.7 L 79.3 80.7 L 76.3 82.5 L 76.3 84.0 L 76.1 85.3 L 76.0 86.3 L 76.0 87.0 L 76.1 87.6 L 76.2 88.1 L 76.4 88.6 L 76.9 89.2 L 77.7 89.7 L 78.8 90.2 L 80.3 90.5 L 94.9 90.5 L 98.4 85.5 L 100.4 85.5 L 98.4 90.5 L 100.5 91.9 L 101.9 94.0 L 100.5 96.1 L 98.4 97.5 L 88.6222222328186 97.5 L 98.4 106.3 L 98.4 110.3 L 62.2 110.3 L 62.2 121.11724138259888 L 64.3 120.9 L 73.3 120.1 L 82.6 119.3 L 92.3 118.6 L 102.3 118.1 L 102.6 119.9 L 92.9 122.4 L 83.4 124.6 L 74.3 126.6 L 65.4 128.4 L 56.9 130.2 L 48.6 131.8 L 40.7 133.3 L 33.1 134.8 L 25.8 136.2 L 22.951763820648193 136.73662424087524 L 21.3 140.2 L 18.9 137.5 L 15.2 125.9 L 17.2 125.6 L 24.2 124.9 L 31.6 124.2 L 39.3 123.4 L 47.3 122.6 L 50.2 122.32048196792603 L 50.2 110.3 L 20.1 110.3 L 20.1 106.3 L 50.2 106.3 L 50.2 94.5 L 62.2 96.5 L 65.2 98.5 L 62.2 100.3 L 62.2 106.3 L 80.21818180084229 106.3 L 88.21818180084229 97.5 L 80.3 97.5 L 78.0 97.6 L 75.7 97.5 L 73.5 97.0 L 71.4 96.1 L 69.4 94.8 L 67.7 93.2 L 66.4 91.2 L 65.4 88.9 L 64.7 86.5 L 64.3 84.0 L 64.3 78.1 L 42.42711868286133 78.1 L 48.3 81.4 L 50.4 84.4 L 46.07140941619873 84.99704694747925 L 44.0 87.5 L 41.3 90.2 L 38.2 92.6 L 34.9 94.7 L 31.2 96.6 L 27.2 98.3 L 22.9 99.7 L 18.2 100.8 L 13.3 102.0 L 12.7 100.3 L 17.1 98.0 L 21.0 95.6 L 24.5 93.2 L 27.5 90.8 L 30.2 88.4 L 32.4 86.0 L 34.2 83.6 L 35.6 81.3 L 36.6 79.1 L 36.860869598388675 78.1 L 13.0 78.1 L 13.0 74.1 L 50.2 74.1 L 50.2 62.8 L 20.1 62.8 L 20.1 58.8 L 50.2 58.8 L 50.2 47.1 L 62.2 49.1 L 65.2 51.1 L 62.2 52.9 L 62.2 58.8 L 80.21818180084229 58.8 L 88.4 49.8 L 98.4 58.8 L 98.4 62.8 L 62.2 62.8 L 62.2 74.1 L 94.0 74.1 L 98.5 68.1 L 103.4 73.0 L 103.4 70.1 L 126.8 70.1 L 126.8 48.1 L 138.8 50.1 L 141.8 52.1 L 138.8 53.9 L 138.8 70.1 L 155.4 70.1 L 161.4 65.1 L 172.4 74.1 L 167.48833923339845 77.04699649810792 L 167.6 83.3 L 168.2 93.2 L 169.2 101.9 L 170.5 109.2 L 172.2 115.2 L 174.2 119.9 L 176.2 123.1 L 176.89400634765624 123.75930595397949 L 182.1 101.2 L 184.1 101.2 L 182.1744680404663 126.2319149017334 L 186.3 128.0 L 188.1 132.2 L 186.3 136.4 L 182.1 138.2 L 176.3 137.3 L 171.1 134.7 L 166.8 130.6 L 163.5 125.4 L 160.9 119.2 L 158.8 111.9 L 157.3 103.6 L 156.2 94.2 L 155.6 83.7 L 155.57118406295777 82.02867336273194 L 155.4 82.1 L 155.4 74.1 L 138.8 74.1 L 138.1 83.8 L 136.3 92.9 L 135.11446876525878 96.58831949234009 L 136.7 97.5 L 140.4 99.9 L 143.7 102.4 L 146.6 105.1 L 149.2 108.1 L 150.0 112.6 L 147.4 116.4 L 142.9 117.2 L 139.1 114.7 L 137.8 112.3 Z M 135.2 15.0 L 138.2 17.0 L 135.2 18.8 L 135.2 28.1 L 166.8 28.1 L 176.8 18.1 L 188.8 28.1 L 188.8 32.1 L 135.2 32.1 L 135.2 42.6 L 123.2 48.6 L 123.2 32.1 L 78.7 32.1 L 78.7 42.6 L 66.7 48.6 L 66.7 32.1 L 13.1 32.1 L 13.1 28.1 L 66.7 28.1 L 66.7 13.0 L 78.7 15.0 L 81.7 17.0 L 78.7 18.8 L 78.7 28.1 L 123.2 28.1 L 123.2 13.0 Z " />
</g>
</svg>
