<svg xmlns="http://www.w3.org/2000/svg" xmlns:xlink="http://www.w3.org/1999/xlink" version="1.1" baseProfile="full" viewBox="0 0 200 200" width="200" height="200">
<g fill="black">
<path d="M 75.2 184.9 L 74.7 180.3 L 77.6 176.8 L 79.2 176.2 L 80.8 175.4 L 82.3 174.4 L 83.8 173.0 L 85.3 171.2 L 86.7 169.0 L 88.1 166.4 L 89.3 163.5 L 90.5 160.2 L 91.0 156.5 L 92.8 156.6 L 93.0 160.4 L 93.3 164.1 L 93.2 167.7 L 92.9 171.1 L 92.2 174.3 L 91.1 177.3 L 89.8 180.2 L 88.0 182.8 L 85.8 185.2 L 83.3 187.3 L 78.7 187.7 Z M 175.2 178.1 L 174.5 175.9 L 173.5 173.6 L 172.3 171.1 L 170.9 168.6 L 169.2 165.9 L 167.2 163.1 L 165.1 160.2 L 162.4 157.5 L 163.5 156.1 L 166.8 158.2 L 170.1 160.1 L 173.1 162.1 L 175.8 164.2 L 178.3 166.4 L 180.6 168.7 L 182.7 171.1 L 184.5 173.6 L 186.1 176.2 L 187.4 179.0 L 186.8 183.5 L 183.2 186.4 L 178.7 185.7 L 175.8 182.2 L 175.6 180.2 Z M 61.6 162.1 L 60.5 159.6 L 59.0 156.9 L 57.3 154.2 L 55.3 151.2 L 53.0 148.2 L 50.4 145.0 L 47.516343116760254 141.5197244644165 L 46.8 144.6 L 43.9 152.6 L 40.4 160.0 L 36.2 166.8 L 31.2 172.8 L 25.6 178.2 L 19.3 182.7 L 12.3 186.3 L 11.4 184.8 L 17.0 179.7 L 21.8 174.3 L 26.1 168.7 L 29.8 162.7 L 32.8 156.3 L 35.2 149.5 L 37.0 142.2 L 38.2 134.4 L 38.8 126.0 L 38.9 117.2 L 38.9 57.6 L 50.9 59.6 L 53.9 61.6 L 50.9 63.4 L 50.9 100.14642858505249 L 53.2 97.6 L 55.9 94.7 L 58.4 91.9 L 60.8 89.2 L 63.1 86.7 L 65.2 84.3 L 67.1 82.1 L 68.2561767578125 80.75112714767457 L 68.2 80.7 L 69.1 79.8 L 77.1 88.8 L 77.6 92.4 L 73.63500719070434 91.19634141921998 L 72.1 92.2 L 69.4 94.0 L 66.5 95.9 L 63.5 97.9 L 60.3 100.0 L 56.8 102.1 L 53.2 104.2 L 50.9 105.49743585586548 L 50.9 117.2 L 50.2 126.9 L 48.8 136.0 L 48.20609140396118 138.5538070678711 L 49.4 139.3 L 53.3 141.6 L 56.9 144.0 L 60.2 146.5 L 63.2 149.0 L 65.9 151.5 L 68.4 154.1 L 70.6 156.8 L 72.5 159.5 L 74.1 162.4 L 74.0 166.9 L 70.7 170.1 L 66.1 169.9 L 62.9 166.6 L 62.4 164.5 Z M 143.3 176.2 L 143.1 174.3 L 142.7 172.3 L 142.1 170.2 L 141.2 167.9 L 140.2 165.6 L 138.9 163.1 L 137.4 160.5 L 135.3 158.2 L 136.5 156.8 L 139.1 158.8 L 141.8 160.5 L 144.2 162.3 L 146.4 164.3 L 148.4 166.3 L 150.2 168.5 L 151.8 170.8 L 153.1 173.3 L 154.2 175.9 L 155.0 178.6 L 153.6 182.9 L 149.6 185.1 L 145.3 183.7 L 143.1 179.7 L 143.3 178.0 Z M 117.3 185.1 L 113.3 182.9 L 111.9 178.6 L 112.5 176.9 L 112.8 175.2 L 113.1 173.4 L 113.2 171.5 L 113.1 169.5 L 112.8 167.4 L 112.3 165.2 L 111.7 162.9 L 110.9 160.4 L 109.5 158.2 L 110.9 157.1 L 112.8 159.1 L 114.9 160.8 L 116.8 162.8 L 118.5 164.8 L 119.9 167.0 L 121.2 169.4 L 122.2 171.8 L 123.0 174.3 L 123.6 177.0 L 123.9 179.7 L 121.7 183.7 Z M 92.1 155.3 L 92.1 93.3708333015442 L 88.7 96.7 L 83.6 101.2 L 78.1 105.4 L 72.3 109.4 L 71.1 108.0 L 75.6 102.7 L 79.8 97.4 L 83.8 92.3 L 87.6 87.1 L 91.2 81.9 L 92.1 80.48181819915771 L 92.1 73.8 L 95.25 75.375 L 97.5 71.4 L 100.3 66.0 L 102.8 60.6 L 104.63518514633179 56.01203699111939 L 104.6 56.0 L 105.5 53.9 L 116.0 59.9 L 117.9 63.0 L 114.09783916473388 63.45888147354126 L 112.9 65.7 L 109.6 71.2 L 106.0 76.7 L 103.79090909957885 79.64545450210571 L 104.1 79.8 L 133.49666662216185 79.8 L 134.8 78.1 L 136.7 74.9 L 138.5 72.0 L 140.2 69.2 L 141.7 66.5 L 143.1 64.0 L 144.4 61.7 L 145.4 59.5 L 146.3 57.4 L 146.73456392288207 56.36791076660156 L 146.6 56.3 L 147.6 54.6 L 157.3 61.7 L 158.8 65.0 L 154.3 65.0 L 151.9 67.4 L 149.9 69.3 L 147.6 71.4 L 145.2 73.4 L 142.6 75.6 L 139.8 77.7 L 136.84090909957885 79.8 L 158.4 79.8 L 168.4 69.8 L 180.4 79.8 L 180.4 83.8 L 143.2 83.8 L 143.2 101.4 L 157.51818180084229 101.4 L 165.7 92.4 L 175.7 101.4 L 175.7 105.4 L 143.2 105.4 L 143.2 122.5 L 157.51818180084229 122.5 L 165.7 113.5 L 175.7 122.5 L 175.7 126.5 L 143.2 126.5 L 143.2 145.3 L 163.1 145.3 L 173.1 135.3 L 185.1 145.3 L 185.1 149.3 L 104.1 149.3 Z M 104.1 126.5 L 104.1 145.3 L 131.2 145.3 L 131.2 126.5 Z M 14.9 127.9 L 12.8 123.8 L 14.0 119.4 L 15.7 117.7 L 17.2 115.6 L 18.6 113.2 L 19.8 110.5 L 20.8 107.4 L 21.6 103.9 L 22.2 100.0 L 22.6 95.8 L 22.9 91.3 L 22.7 86.4 L 24.5 86.0 L 25.9 90.8 L 27.2 95.5 L 28.1 99.9 L 28.5 104.2 L 28.7 108.4 L 28.4 112.4 L 27.8 116.3 L 26.7 120.0 L 25.3 123.6 L 23.4 126.9 L 19.3 129.1 Z M 104.1 105.4 L 104.1 122.5 L 131.2 122.5 L 131.2 105.4 Z M 104.1 83.8 L 104.1 101.4 L 131.2 101.4 L 131.2 83.8 Z M 134.0 13.9 L 137.0 15.9 L 134.0 17.7 L 134.0 32.7 L 165.0 32.7 L 175.0 22.7 L 187.0 32.7 L 187.0 36.7 L 134.0 36.7 L 134.0 52.7 L 122.0 58.7 L 122.0 36.7 L 78.0 36.7 L 78.0 52.7 L 66.0 58.7 L 66.0 36.7 L 13.0 36.7 L 13.0 32.7 L 66.0 32.7 L 66.0 11.9 L 78.0 13.9 L 81.0 15.9 L 78.0 17.7 L 78.0 32.7 L 122.0 32.7 L 122.0 11.9 Z " />
</g>
</svg>
