<svg xmlns="http://www.w3.org/2000/svg" xmlns:xlink="http://www.w3.org/1999/xlink" version="1.1" baseProfile="full" viewBox="0 0 200 200" width="200" height="200">
<g fill="black">
<path d="M 146.1 175.6 L 158.1 175.6 L 159.3 175.5 L 160.2 175.4 L 160.8 175.2 L 161.1 175.0 L 161.3 174.9 L 161.5 174.7 L 161.7 174.3 L 161.9 173.7 L 162.0 172.8 L 162.1 171.6 L 162.1 149.9 L 120.5 149.9 L 120.5 181.0 L 108.5 187.0 L 108.5 109.2 L 120.5 115.2 L 162.1 115.2 L 168.1 110.2 L 179.1 119.2 L 174.1 123.2 L 174.1 171.6 L 173.9 174.2 L 173.5 176.7 L 172.7 179.1 L 171.5 181.3 L 169.8 183.3 L 167.8 185.0 L 165.5 186.2 L 163.1 187.0 L 160.6 187.5 L 158.1 187.6 L 158.1 181.6 L 146.1 178.6 Z M 31.6 163.1 L 33.0 161.7 L 35.7 158.4 L 38.0 154.9 L 39.9 151.2 L 41.3 147.1 L 42.4 142.7 L 43.1 137.9 L 43.4 132.7 L 43.33571424484253 129.1 L 31.6 129.1 Z M 88.5 135.7 L 90.5 135.7 L 88.5 152.7 L 91.5 154.7 L 93.5 157.7 L 91.5 160.7 L 88.5 162.7 L 73.8 162.7 L 71.4 162.3 L 69.1 161.7 L 66.9 160.6 L 64.9 159.1 L 63.3 157.2 L 62.0 155.0 L 61.1 152.7 L 60.5 150.3 L 60.3 147.7 L 60.3 129.1 L 55.115384578704834 129.1 L 54.7 133.6 L 53.6 139.7 L 52.0 145.3 L 49.9 150.5 L 47.2 155.2 L 44.0 159.3 L 40.4 162.9 L 36.2 165.8 L 31.6 168.0 L 31.6 174.5 L 75.4 174.5 L 85.4 164.5 L 97.4 174.5 L 97.4 178.5 L 31.6 178.5 L 31.6 181.5 L 19.6 187.5 L 19.6 129.1 L 11.6 129.1 L 11.6 125.1 L 30.0 125.1 L 30.0 70.2 L 13.0 70.2 L 13.0 66.2 L 30.0 66.2 L 30.0 49.9 L 42.0 51.9 L 45.0 53.9 L 42.0 55.7 L 42.0 66.2 L 68.5 66.2 L 68.5 49.9 L 80.5 51.9 L 83.5 53.9 L 80.5 55.7 L 80.5 66.2 L 84.6777777671814 66.2 L 90.9 59.2 L 98.9 66.2 L 98.9 70.2 L 80.5 70.2 L 80.5 125.1 L 86.1777777671814 125.1 L 92.4 118.1 L 100.4 125.1 L 100.4 129.1 L 72.3 129.1 L 72.3 149.9 L 72.4 150.6 L 72.6 151.0 L 72.7 151.3 L 72.9 151.6 L 73.3 151.9 L 74.0 152.3 L 75.0 152.5 L 76.3 152.7 L 83.5 152.7 Z M 120.5 119.2 L 120.5 145.9 L 134.9 145.9 L 134.9 119.2 Z M 146.9 119.2 L 146.9 145.9 L 162.1 145.9 L 162.1 119.2 Z M 42.0 109.5 L 42.0 125.1 L 68.5 125.1 L 68.5 109.5 Z M 42.0 89.8 L 42.0 105.5 L 68.5 105.5 L 68.5 89.8 Z M 95.5 99.5 L 134.9 99.5 L 134.9 86.3 L 105.4 86.3 L 105.4 82.3 L 134.9 82.3 L 134.9 69.0 L 101.3 69.0 L 101.3 65.0 L 134.9 65.0 L 134.9 48.7 L 146.9 50.7 L 149.9 52.7 L 146.9 54.5 L 146.9 65.0 L 163.9181818008423 65.0 L 172.1 56.0 L 182.1 65.0 L 182.1 69.0 L 146.9 69.0 L 146.9 82.3 L 159.01818180084229 82.3 L 167.2 73.3 L 177.2 82.3 L 177.2 86.3 L 146.9 86.3 L 146.9 99.5 L 173.6777777671814 99.5 L 179.9 92.5 L 187.9 99.5 L 187.9 103.5 L 95.5 103.5 Z M 42.0 70.2 L 42.0 85.8 L 68.5 85.8 L 68.5 70.2 Z M 134.0 13.7 L 137.0 15.7 L 134.0 17.5 L 134.0 28.3 L 165.0 28.3 L 175.0 18.3 L 187.0 28.3 L 187.0 32.3 L 134.0 32.3 L 134.0 44.2 L 122.0 50.2 L 122.0 32.3 L 78.0 32.3 L 78.0 44.2 L 66.0 50.2 L 66.0 32.3 L 13.0 32.3 L 13.0 28.3 L 66.0 28.3 L 66.0 11.7 L 78.0 13.7 L 81.0 15.7 L 78.0 17.5 L 78.0 28.3 L 122.0 28.3 L 122.0 11.7 Z " />
</g>
</svg>
