<svg xmlns="http://www.w3.org/2000/svg" xmlns:xlink="http://www.w3.org/1999/xlink" version="1.1" baseProfile="full" viewBox="0 0 200 200" width="200" height="200">
<g fill="black">
<path d="M 66.2 177.2 L 80.2 177.2 L 81.2 177.1 L 81.8 177.0 L 82.2 176.8 L 82.5 176.7 L 82.6 176.5 L 82.8 176.3 L 83.0 175.8 L 83.2 175.1 L 83.4 174.0 L 83.5 172.7 L 83.5 91.2 L 27.0 91.2 L 27.0 182.1 L 15.0 188.1 L 15.0 81.2 L 27.0 87.2 L 57.9307692527771 87.2 L 54.8 85.0 L 54.2 83.4 L 53.4 81.8 L 52.4 80.0 L 51.1 78.3 L 49.6 76.4 L 47.8 74.6 L 45.8 72.7 L 43.6 70.7 L 41.2 68.7 L 38.3 67.1 L 39.0 65.4 L 42.2 66.5 L 45.4 67.2 L 48.5 68.2 L 51.3 69.2 L 54.0 70.4 L 56.5 71.8 L 56.97829179763794 72.09893236160278 L 58.6 70.4 L 60.9 68.2 L 63.4 65.9 L 66.0 63.6 L 68.8 61.1 L 71.6 58.5 L 73.6 56.7 L 17.3 56.7 L 17.3 52.7 L 78.01999998092651 52.7 L 81.1 49.9 L 81.51379680633545 50.43850269317627 L 84.8 47.7 L 95.8 56.7 L 90.8 59.7 L 82.7296703338623 63.06263732910156 L 80.9 64.2 L 77.3 66.3 L 73.8 68.3 L 70.5 70.1 L 67.2 71.7 L 64.1 73.1 L 61.0 74.3 L 60.486725616455075 74.45398225784302 L 61.1 74.9 L 63.2 76.7 L 65.0 78.7 L 65.7 83.2 L 63.1 87.0 L 61.56666669845581 87.2 L 83.5 87.2 L 89.0 82.2 L 99.5 91.2 L 94.5 94.7 L 94.5 172.7 L 94.3 175.1 L 94.0 177.4 L 93.3 179.7 L 92.3 181.8 L 90.9 183.8 L 89.1 185.4 L 87.1 186.7 L 84.9 187.5 L 82.6 188.0 L 80.2 188.2 L 80.2 182.7 L 66.2 179.9 Z M 148.0 14.0 L 151.0 16.0 L 148.0 17.8 L 148.0 35.0 L 168.8181818008423 35.0 L 177.0 26.0 L 187.0 35.0 L 187.0 39.0 L 148.0 39.0 L 148.0 59.2 L 170.6 59.2 L 176.6 54.2 L 187.6 63.2 L 182.6 67.2 L 182.6 180.7 L 170.6 186.7 L 170.6 178.7 L 115.3 178.7 L 115.3 181.7 L 104.3 187.2 L 104.3 53.7 L 115.3 59.2 L 136.0 59.2 L 136.0 12.0 Z M 60.6 163.5 L 58.72702703475952 160.94594593048095 L 57.3 162.6 L 52.5 167.1 L 47.4 171.2 L 42.1 174.6 L 36.4 177.3 L 30.5 179.4 L 29.7 177.8 L 34.5 174.1 L 39.0 170.2 L 43.2 166.2 L 47.1 161.8 L 50.8 157.1 L 52.90869226455688 153.99898195266724 L 50.2 151.2 L 46.9 148.1 L 43.3 144.9 L 39.6 141.5 L 35.5 138.2 L 36.4 136.6 L 41.3 138.6 L 46.1 140.7 L 50.5 143.1 L 54.7 145.5 L 57.04052867889404 147.06035242080688 L 57.3 146.6 L 60.2 140.8 L 62.8 134.6 L 63.709090900421145 132.1 L 31.8 132.1 L 31.8 128.1 L 47.2 128.1 L 47.2 114.9 L 30.1 114.9 L 30.1 110.9 L 47.2 110.9 L 47.2 93.8 L 59.2 95.8 L 62.2 97.8 L 59.2 99.6 L 59.2 110.9 L 63.7777777671814 110.9 L 70.0 103.9 L 78.0 110.9 L 78.0 114.9 L 59.2 114.9 L 59.2 128.1 L 64.8 128.1 L 70.8 123.1 L 81.8 132.1 L 76.8 135.1 L 74.66823530197144 135.98823528289796 L 73.2 139.2 L 69.7 145.8 L 65.9 151.9 L 64.95090913772583 153.16545457839965 L 65.6 153.7 L 68.8 156.7 L 71.6 159.8 L 74.2 163.0 L 75.0 167.5 L 72.4 171.3 L 67.9 172.0 L 64.1 169.5 L 62.5 166.5 Z M 157.6 133.9 L 156.5 130.4 L 155.2 127.0 L 153.8 123.8 L 152.3 120.7 L 150.6 117.7 L 149.3 115.71578950881958 L 149.3 165.6 L 137.3 171.6 L 137.3 128.4758620262146 L 135.2 133.4 L 131.9 139.8 L 128.4 145.8 L 124.6 151.4 L 120.5 156.6 L 115.9 161.2 L 115.3 160.7285714149475 L 115.3 174.7 L 170.6 174.7 L 170.6 140.56000003814697 L 170.4 142.4 L 166.9 145.3 L 162.4 144.8 L 159.4 141.3 L 158.6 137.5 Z M 115.3 63.2 L 115.3 158.5 L 117.3 154.5 L 120.0 148.7 L 122.6 142.8 L 125.0 136.6 L 127.3 130.2 L 129.4 123.5 L 131.3 116.6 L 133.0 109.3 L 134.4 101.8 L 135.17164182662964 97.1 L 117.5 97.1 L 117.5 93.1 L 137.3 93.1 L 137.3 70.4 L 149.3 72.4 L 152.3 74.4 L 149.3 76.2 L 149.3 93.1 L 152.11818180084228 93.1 L 160.3 84.1 L 170.3 93.1 L 170.3 97.1 L 149.3 97.1 L 149.3 109.9125 L 152.0 111.6 L 155.0 113.9 L 157.8 116.6 L 160.4 119.5 L 162.9 122.7 L 165.2 126.2 L 167.3 129.8 L 169.2 133.7 L 170.6 137.0764705657959 L 170.6 63.2 Z M 78.2 14.3 L 81.2 16.3 L 78.2 18.1 L 78.2 27.9 L 81.1 27.9 L 91.1 17.9 L 103.1 27.9 L 103.1 31.9 L 78.2 31.9 L 78.2 42.9 L 66.2 48.9 L 66.2 31.9 L 48.8 31.9 L 48.8 42.9 L 36.8 48.9 L 36.8 31.9 L 11.8 31.9 L 11.8 27.9 L 36.8 27.9 L 36.8 12.3 L 48.8 14.3 L 51.8 16.3 L 48.8 18.1 L 48.8 27.9 L 66.2 27.9 L 66.2 12.3 Z " />
</g>
</svg>
