<svg xmlns="http://www.w3.org/2000/svg" xmlns:xlink="http://www.w3.org/1999/xlink" version="1.1" baseProfile="full" viewBox="0 0 200 200" width="200" height="200">
<g fill="black">
<path d="M 160.1 163.1 L 156.05078125 161.959375 L 152.0 165.2 L 152.0 187.6 L 140.0 193.6 L 140.0 187.6 L 61.0 187.6 L 49.0 193.6 L 49.0 160.7 L 46.3 161.5 L 38.0 163.7 L 29.5 165.5 L 20.9 167.0 L 12.1 168.0 L 11.8 166.3 L 20.0 163.3 L 28.1 160.3 L 36.1 157.4 L 43.9 154.3 L 49.0 152.21973686218263 L 49.0 151.2 L 50.12318840026855 151.76159420013428 L 51.5 151.2 L 58.9 147.9 L 66.2 144.4 L 73.3 140.8 L 74.03333330154419 140.4 L 22.0 140.4 L 22.0 136.4 L 94.0 136.4 L 94.0 129.92391300201416 L 92.6 130.0 L 83.1 130.4 L 73.5 130.8 L 63.6 131.1 L 53.4 131.3 L 43.0 131.2 L 42.9 129.5 L 53.1 127.5 L 63.1 125.8 L 72.9 124.3 L 82.4 122.9 L 91.8 121.5 L 101.0 120.3 L 109.9 119.1 L 118.6 117.9 L 127.1 116.8 L 134.40565586090088 115.83178052902221 L 134.4 115.8 L 134.4335452079773 115.82808437347413 L 135.4 115.7 L 135.49389963150026 116.71582288742066 L 147.3 126.6 L 147.8 129.6 L 143.06880531311035 126.99177732467652 L 136.5 127.6 L 128.2 128.1 L 119.6 128.6 L 110.8 129.1 L 106.440625 129.29375 L 109.0 131.0 L 106.0 132.8 L 106.0 136.4 L 159.0 136.4 L 169.0 126.4 L 181.0 136.4 L 181.0 140.4 L 120.66842107772827 140.4 L 125.3 142.0 L 131.0 144.0 L 136.8 145.8 L 142.9 147.5 L 149.2 149.0 L 155.7 150.3 L 162.5 151.5 L 169.6 152.6 L 176.9 153.4 L 186.8 154.9 L 175.0 166.5 L 167.4 164.9 Z M 61.0 174.8 L 61.0 183.6 L 140.0 183.6 L 140.0 174.8 Z M 61.0 161.2 L 61.0 170.8 L 140.0 170.8 L 140.0 161.2 Z M 92.8 143.6 L 85.5 147.2 L 77.9 150.5 L 70.2 153.6 L 62.4 156.5 L 60.703030300140384 157.0515151977539 L 61.0 157.2 L 94.0 157.2 L 94.0 143.00571432113648 Z M 106.0 140.4 L 106.0 153.0 L 97.6 157.2 L 140.0 157.2 L 140.70340423583986 156.61382980346679 L 139.9 156.3 L 133.8 153.6 L 128.1 150.6 L 122.7 147.3 L 117.7 143.7 L 114.15853662490845 140.4 Z M 35.0 81.1 L 82.0 81.1 L 88.0 76.1 L 96.12307691574097 82.74615383148193 L 100.1 81.3 L 103.9 79.3 L 107.0 77.2 L 109.6 75.2 L 111.6 73.2 L 112.9 71.2 L 113.8 69.4 L 114.2 67.7 L 114.2 66.1 L 114.0 64.4 L 114.0 47.4 L 126.0 53.4 L 150.0 53.4 L 156.0 48.4 L 167.0 57.4 L 162.0 61.4 L 162.0 66.8 L 161.8 68.1 L 161.8 69.8 L 161.9 70.4 L 162.0 70.8 L 162.2 71.2 L 162.7 71.7 L 163.4 72.2 L 164.5 72.6 L 166.0 72.8 L 174.0 72.8 L 178.0 63.8 L 180.0 63.8 L 178.0 72.8 L 180.4 74.4 L 182.0 76.8 L 180.4 79.2 L 178.0 80.8 L 166.73333330154418 80.8 L 177.0 89.2 L 172.0 92.2 L 168.90769233703614 93.4884614944458 L 168.1 94.7 L 163.5 99.0 L 157.8 102.6 L 151.2 105.5 L 149.06836156845094 106.1920904159546 L 153.5 107.3 L 161.0 108.7 L 169.4 109.7 L 178.5 110.4 L 189.3 111.3 L 177.4 123.6 L 167.7 122.1 L 158.7 120.3 L 150.5 118.0 L 143.1 115.2 L 136.5 111.9 L 133.96328563690184 110.23801469802856 L 125.1 111.7 L 114.2 112.9 L 102.2 113.6 L 89.0 113.7 L 88.9 111.9 L 101.8 109.8 L 113.4 107.6 L 123.8 105.3 L 126.53242502212524 104.52779293060303 L 125.8 103.9 L 121.9 99.2 L 119.1 94.0 L 117.70363636016846 89.2 L 107.0 89.2 L 107.0 85.2 L 160.0 85.2 L 160.35229358673095 84.90642204284669 L 160.4 84.8 L 160.45266904830933 84.82277584075928 L 165.24210529327394 80.83157892227173 L 163.6 80.9 L 161.3 80.7 L 159.0 80.2 L 156.9 79.2 L 154.9 77.9 L 153.2 76.1 L 151.9 74.1 L 150.9 71.8 L 150.3 69.4 L 150.0 66.8 L 150.0 57.4 L 126.0 57.4 L 126.0 64.4 L 125.2 68.1 L 123.8 71.5 L 121.8 74.5 L 119.3 77.0 L 116.3 79.1 L 113.0 80.8 L 109.4 82.2 L 105.3 83.2 L 100.9 83.9 L 98.05179996490479 84.32419996261596 L 99.0 85.1 L 94.0 89.1 L 94.0 101.7 L 82.0 107.7 L 82.0 101.7 L 34.68421049118042 101.7 L 34.4 103.5 L 33.4 107.2 L 31.9 110.7 L 30.1 113.9 L 28.0 116.9 L 25.5 119.6 L 22.6 122.1 L 19.5 124.3 L 16.0 126.2 L 12.4 128.1 L 11.5 126.6 L 14.3 124.0 L 16.6 121.1 L 18.6 118.3 L 20.2 115.6 L 21.4 112.9 L 22.3 110.2 L 22.9 107.6 L 23.2 105.0 L 23.2 102.4 L 23.0 99.7 L 23.0 76.1 L 20.0 76.1 L 20.0 72.1 L 53.0 72.1 L 53.0 63.6 L 13.0 63.6 L 13.0 59.6 L 53.0 59.6 L 53.0 49.5 L 65.0 51.5 L 68.0 53.5 L 65.0 55.3 L 65.0 59.6 L 93.77777776718139 59.6 L 100.0 52.6 L 108.0 59.6 L 108.0 63.6 L 65.0 63.6 L 65.0 72.1 L 84.77777776718139 72.1 L 91.0 65.1 L 99.0 72.1 L 99.0 76.1 L 25.0 76.1 Z M 120.42051286697388 89.2 L 122.6 91.7 L 126.3 95.2 L 130.5 98.3 L 135.2 101.1 L 136.27871198654174 101.57942752838134 L 140.9 100.0 L 147.4 97.0 L 152.7 93.9 L 156.5 90.8 L 157.84193544387819 89.2 Z M 35.0 85.1 L 35.0 97.7 L 53.0 97.7 L 53.0 85.1 Z M 65.0 85.1 L 65.0 97.7 L 82.0 97.7 L 82.0 85.1 Z M 134.0 14.1 L 137.0 16.1 L 134.0 17.9 L 134.0 27.3 L 165.0 27.3 L 175.0 17.3 L 187.0 27.3 L 187.0 31.3 L 134.0 31.3 L 134.0 42.0 L 122.0 48.0 L 122.0 31.3 L 78.0 31.3 L 78.0 42.0 L 66.0 48.0 L 66.0 31.3 L 13.0 31.3 L 13.0 27.3 L 66.0 27.3 L 66.0 12.1 L 78.0 14.1 L 81.0 16.1 L 78.0 17.9 L 78.0 27.3 L 122.0 27.3 L 122.0 12.1 Z " />
</g>
</svg>
