<svg xmlns="http://www.w3.org/2000/svg" xmlns:xlink="http://www.w3.org/1999/xlink" version="1.1" baseProfile="full" viewBox="0 0 200 200" width="200" height="200">
<g fill="black">
<path d="M 17.5 184.5 L 18.3 180.1 L 22.0 177.4 L 25.1 177.1 L 27.8 176.6 L 30.3 176.1 L 32.4 175.5 L 34.3 174.7 L 36.0 173.8 L 37.5 172.8 L 38.9 171.5 L 40.2 169.9 L 40.8 167.8 L 42.6 168.0 L 42.5 170.4 L 42.5 173.0 L 41.8 175.5 L 40.7 178.0 L 39.0 180.3 L 36.9 182.5 L 34.4 184.5 L 31.5 186.2 L 28.2 187.8 L 24.6 189.1 L 20.1 188.3 Z M 171.0 182.9 L 169.8 181.5 L 168.1 179.9 L 165.9 178.2 L 163.3 176.4 L 160.2 174.5 L 156.8 172.5 L 152.9 170.4 L 148.6 168.5 L 149.1 166.8 L 153.8 167.8 L 158.2 168.6 L 162.3 169.4 L 165.9 170.4 L 169.3 171.3 L 172.3 172.4 L 175.0 173.5 L 177.5 174.8 L 179.7 176.2 L 181.7 178.0 L 182.6 182.5 L 180.2 186.4 L 175.7 187.3 L 171.8 184.8 L 171.7 184.0 Z M 112.0 168.3 L 115.5 168.9 L 118.6 169.6 L 121.5 170.4 L 124.1 171.2 L 126.5 172.2 L 128.6 173.3 L 130.5 174.6 L 132.3 176.4 L 133.6 178.8 L 132.9 183.3 L 129.2 186.0 L 124.7 185.2 L 122.0 181.6 L 122.5463768005371 181.46811590194702 L 122.6 181.2 L 122.3 180.2 L 121.5 178.9 L 120.3 177.5 L 118.6 175.9 L 116.5 174.2 L 114.0 172.4 L 111.1 170.4 L 107.7 168.9 L 108.3 167.2 Z M 76.52965517044068 179.07034482955933 L 87.1 181.6 L 84.4 185.2 L 79.9 186.0 L 76.2 183.3 L 75.4 178.8 Z M 122.0 181.6 L 122.5 181.7 L 122.5463768005371 181.46811590194702 Z M 72.2 168.5 L 74.9 169.2 L 77.3 170.0 L 79.5 170.9 L 81.4 171.9 L 83.2 173.1 L 84.8 174.6 L 86.1 176.5 L 86.9 178.9 L 87.1 181.6 L 76.52965517044068 179.07034482955933 L 76.7 178.9 L 76.8 178.1 L 76.4 176.9 L 75.7 175.5 L 74.6 173.9 L 73.1 172.2 L 71.3 170.4 L 68.8 169.0 L 69.6 167.4 Z M 75.9 179.2 L 76.3 179.3 L 76.52965517044068 179.07034482955933 L 75.4 178.8 Z M 14.3 159.8 L 94.0 159.8 L 94.0 150.5 L 29.6 150.5 L 29.6 146.5 L 94.0 146.5 L 94.0 136.9 L 46.8 136.9 L 34.8 142.9 L 34.8 101.5 L 46.8 107.5 L 153.1 107.5 L 159.1 102.5 L 170.1 111.5 L 165.1 115.5 L 165.1 136.9 L 161.58571424484253 138.657142829895 L 170.3 146.5 L 170.3 150.5 L 106.0 150.5 L 106.0 159.8 L 167.4181818008423 159.8 L 175.6 150.8 L 185.6 159.8 L 185.6 163.8 L 14.3 163.8 Z M 106.0 136.9 L 106.0 146.5 L 152.11818180084228 146.5 L 157.3 140.8 L 153.1 142.9 L 153.1 136.9 Z M 46.8 111.5 L 46.8 132.9 L 94.0 132.9 L 94.0 111.5 Z M 133.17179489135742 111.5 L 141.9 118.9 L 143.1 122.3 L 138.05652170181276 121.77826089859009 L 136.0 122.9 L 133.7 124.0 L 131.1 125.1 L 128.3 126.2 L 125.3 127.3 L 121.9 128.4 L 118.3 129.4 L 114.6 130.7 L 113.8 129.1 L 117.2 127.1 L 120.1 124.8 L 122.7 122.7 L 125.1 120.7 L 127.1 118.8 L 128.8 117.1 L 130.2 115.5 L 131.3 114.0 L 132.0 112.7 L 132.00297031402587 112.6900990486145 L 131.7 112.5 L 132.41428575515747 111.5 L 106.0 111.5 L 106.0 132.9 L 153.1 132.9 L 153.1 111.5 Z M 71.6 126.4 L 70.9 125.2 L 69.9 123.9 L 68.5 122.5 L 66.8 121.1 L 64.7 119.5 L 62.4 117.9 L 59.8 116.2 L 56.8 115.0 L 57.3 113.2 L 60.6 114.0 L 63.7 114.4 L 66.7 114.9 L 69.4 115.5 L 71.9 116.1 L 74.3 116.9 L 76.5 117.8 L 78.5 118.8 L 80.3 120.1 L 82.1 121.7 L 82.7 126.2 L 80.1 130.0 L 75.6 130.7 L 71.8 128.0 L 71.9 127.4 Z M 66.1 77.8 L 134.8 77.8 L 140.8 72.8 L 151.8 81.8 L 146.8 85.8 L 146.8 98.4 L 134.8 104.4 L 134.8 98.4 L 66.1 98.4 L 54.1 104.4 L 54.1 71.8 Z M 66.1 81.8 L 66.1 94.4 L 134.8 94.4 L 134.8 81.8 Z M 15.0 89.7 L 14.8 85.1 L 17.9 81.7 L 19.8 81.1 L 21.6 80.2 L 23.3 79.1 L 25.0 77.6 L 26.5 75.7 L 27.9 73.3 L 29.2 70.5 L 30.3 67.3 L 31.3 63.6 L 31.6 59.5 L 33.4 59.4 L 33.9 63.6 L 34.14390239715576 65.6 L 62.21304349899292 65.6 L 60.3 64.5 L 59.7 63.0 L 58.8 61.4 L 57.6 59.8 L 56.2 58.1 L 54.6 56.3 L 52.8 54.6 L 50.7 52.8 L 48.4 51.0 L 45.9 49.1 L 43.0 47.6 L 43.6 45.9 L 46.8 46.8 L 50.0 47.4 L 53.1 48.2 L 56.0 49.1 L 58.7 50.1 L 61.3 51.3 L 63.7 52.6 L 65.9 54.0 L 68.1 55.6 L 70.0 57.4 L 71.1 61.9 L 68.82307691574097 65.6 L 94.5 65.6 L 94.5 42.0 L 106.5 44.0 L 109.5 46.0 L 106.5 47.8 L 106.5 65.6 L 126.79354839324951 65.6 L 129.3 63.5 L 132.5 60.3 L 135.5 57.4 L 138.2 54.8 L 140.6 52.4 L 142.7 50.2 L 144.5 48.3 L 145.9 46.5 L 147.0 45.1 L 147.2471962928772 44.72920560836792 L 147.1 44.6 L 148.0 43.6 L 156.1 52.5 L 156.7 56.1 L 152.05319147109986 54.85531911849976 L 150.4 55.8 L 147.9 57.1 L 145.2 58.6 L 142.1 60.2 L 134.9 63.8 L 131.01578950881958 65.6 L 169.3 65.6 L 170.0714285850525 64.95714282989502 L 170.6 63.9 L 170.97804346084595 64.20163040161133 L 175.3 60.6 L 186.3 69.6 L 181.3 72.6 L 175.3 75.1 L 174.5 75.7 L 172.4 77.2 L 170.1 78.8 L 167.6 80.5 L 165.0 82.2 L 162.2 84.0 L 159.1 85.7 L 156.2 87.9 L 155.0 86.5 L 157.4 83.9 L 159.4 81.0 L 161.4 78.4 L 163.1 75.9 L 164.8 73.5 L 166.3 71.3 L 167.35238094329833 69.6 L 34.45 69.6 L 34.5 71.5 L 34.2 75.2 L 33.5 78.7 L 32.3 82.0 L 30.7 85.1 L 28.5 88.0 L 26.0 90.5 L 23.0 92.6 L 18.4 92.7 Z M 134.0 13.8 L 137.0 15.8 L 134.0 17.6 L 134.0 26.4 L 165.0 26.4 L 175.0 16.4 L 187.0 26.4 L 187.0 30.4 L 134.0 30.4 L 134.0 40.4 L 122.0 46.4 L 122.0 30.4 L 78.0 30.4 L 78.0 40.4 L 66.0 46.4 L 66.0 30.4 L 13.0 30.4 L 13.0 26.4 L 66.0 26.4 L 66.0 11.8 L 78.0 13.8 L 81.0 15.8 L 78.0 17.6 L 78.0 26.4 L 122.0 26.4 L 122.0 11.8 Z " />
</g>
</svg>
