<svg xmlns="http://www.w3.org/2000/svg" xmlns:xlink="http://www.w3.org/1999/xlink" version="1.1" baseProfile="full" viewBox="0 0 200 200" width="200" height="200">
<g fill="black">
<path d="M 128.7 88.8 L 131.2 91.3 L 127.60275382995606 92.60808954238891 L 127.0 94.7 L 125.0 100.4 L 124.74285717010498 101.0 L 171.9 101.0 L 177.9 96.0 L 188.9 105.0 L 183.9 108.0 L 183.9 115.4 L 183.8 126.7 L 183.7 136.7 L 183.5 145.6 L 183.2 153.3 L 182.9 159.8 L 182.6 165.2 L 182.1 169.5 L 181.6 172.8 L 180.5 176.0 L 179.2 178.1 L 177.8 180.1 L 176.1 181.9 L 174.3 183.6 L 172.3 184.9 L 170.1 186.1 L 167.9 186.9 L 165.5 187.5 L 163.0 187.9 L 160.5 188.0 L 160.5 182.0 L 140.5 179.0 L 140.5 176.0 L 160.5 176.0 L 161.9 175.9 L 163.2 175.8 L 164.2 175.5 L 165.2 175.1 L 166.1 174.7 L 166.9 174.1 L 167.7 173.4 L 168.5 172.6 L 169.2 171.6 L 169.9 170.4 L 169.9 170.3 L 170.2 168.0 L 170.6 164.2 L 170.9 159.1 L 171.2 152.8 L 171.5 145.3 L 171.7 136.5 L 171.8 126.5 L 171.9 115.3 L 171.9 105.0 L 123.0285714149475 105.0 L 122.6 106.0 L 119.9 111.3 L 116.8 116.5 L 114.45606060028076 119.87803030014038 L 118.9 122.1 L 130.3 122.1 L 130.3 105.8 L 140.3 107.8 L 142.8 109.8 L 140.3 111.46666669845581 L 140.3 122.1 L 151.6 122.1 L 157.1 117.1 L 167.6 126.1 L 162.6 129.6 L 162.6 146.6 L 151.6 152.1 L 151.6 146.6 L 140.3 146.6 L 140.3 162.82241382598878 L 144.6 162.6 L 150.4 162.5 L 152.88235292434692 162.5 L 152.6 161.9 L 151.6 160.1 L 150.4 158.2 L 149.0 156.2 L 147.1 154.6 L 148.1 153.1 L 150.3 154.5 L 152.7 155.4 L 154.9 156.4 L 157.0 157.6 L 158.9 158.9 L 160.7 160.3 L 162.4 161.9 L 163.9 163.5 L 165.2 165.4 L 166.4 167.3 L 165.9 171.9 L 162.4 174.8 L 157.8 174.3 L 154.9 170.8 L 154.9 169.6 L 154.8 168.2 L 154.6 166.8 L 154.1 165.3 L 154.05172414779662 165.18275861740113 L 151.0 166.2 L 145.4 167.9 L 139.9 169.4 L 134.4 170.8 L 129.0 172.2 L 118.6 174.8 L 113.5 176.0 L 107.7816354751587 177.40041580200196 L 106.2 181.0 L 103.7 178.4 L 99.6 167.0 L 101.6 166.6 L 106.6 166.0 L 111.7 165.4 L 116.9 164.9 L 122.2 164.3 L 127.6 163.8 L 130.3 163.55892858505248 L 130.3 146.6 L 118.9 146.6 L 118.9 149.6 L 107.9 155.1 L 107.9 127.85609760284424 L 105.4 130.6 L 100.8 134.7 L 95.7 138.5 L 94.5 137.2 L 98.0 132.1 L 99.87549276351929 129.22815170288087 L 90.12536506652832 136.90745582580567 L 92.8 139.2 L 87.8 142.7 L 87.8 169.50224723815919 L 88.0 169.5 L 97.0 169.5 L 97.2 171.3 L 88.4 173.2 L 87.8 173.31724138259887 L 87.8 173.4 L 87.3764705657959 173.4 L 79.7 174.9 L 71.2 176.4 L 62.8 177.8 L 54.6 179.1 L 46.5 180.3 L 30.9 182.7 L 23.4 183.8 L 20.02791347503662 184.30125608444214 L 18.3 187.6 L 16.0 184.9 L 12.8 173.1 L 14.7 172.9 L 21.4 172.54266662597655 L 21.4 132.91463413238526 L 17.7 134.9 L 13.4 137.0 L 12.5 135.5 L 15.8 132.3 L 18.8 129.0 L 21.6 125.8 L 24.1 122.7 L 26.3 119.5 L 28.3 116.3 L 29.9 113.2 L 31.3 110.0 L 32.5 106.8 L 33.136688995361325 104.53621673583984 L 33.0 104.5 L 33.9 102.1 L 44.7 107.6 L 46.8 110.5 L 42.870873832702635 111.25825242996216 L 42.8 111.4 L 40.6 115.0 L 38.2 118.4 L 35.4 121.6 L 32.4 124.7 L 29.2 127.6 L 25.6 130.3 L 24.27441864013672 131.13720932006837 L 32.4 135.2 L 76.8 135.2 L 81.40952377319336 131.00952377319337 L 79.0 128.6 L 76.1 125.3 L 73.7 121.7 L 71.5 118.0 L 69.8 114.1 L 68.5 110.1 L 67.7 105.9 L 67.21428575515748 102.5 L 42.2 102.5 L 42.2 98.5 L 57.1777777671814 98.5 L 63.4 91.5 L 71.4 98.5 L 71.4 102.5 L 69.54285717010498 102.5 L 70.8 104.7 L 73.1 107.9 L 75.5 110.9 L 77.9 113.7 L 80.5 116.2 L 83.2 118.5 L 86.1 120.6 L 89.1 122.5 L 92.4 124.3 L 95.8 125.8 L 100.46807479858398 128.3207604408264 L 101.2 127.2 L 104.2 122.3 L 106.9 117.3 L 109.4 112.4 L 111.5 107.4 L 113.3 102.3 L 114.8 97.1 L 116.0 91.9 L 116.73274211883545 87.50354709625245 L 116.7 87.5 L 116.87142858505248 86.6714285850525 L 116.9 86.5 L 116.9066291809082 86.5012921333313 L 117.09310340881348 85.6 L 114.4 85.6 L 114.4 88.6 L 103.4 94.1 L 103.4 52.3 L 114.4 57.8 L 168.5 57.8 L 174.0 52.8 L 184.5 61.8 L 179.5 65.3 L 179.5 87.6 L 168.5 93.1 L 168.5 85.6 L 120.01428575515747 85.6 Z M 32.4 139.2 L 32.4 171.8333333015442 L 37.6 171.5 L 40.4 171.36000003814698 L 40.4 139.2 Z M 50.4 139.2 L 50.4 170.8037036895752 L 53.7 170.6 L 58.9 170.34939756393433 L 58.9 139.2 Z M 68.9 139.2 L 68.9 169.95647058486938 L 70.5 169.9 L 76.8 169.68023252487183 L 76.8 139.2 Z M 118.9 126.1 L 118.9 142.6 L 130.3 142.6 L 130.3 126.1 Z M 140.3 126.1 L 140.3 142.6 L 151.6 142.6 L 151.6 126.1 Z M 45.4 66.3 L 47.7 69.1 L 43.862025356292726 70.05949363708496 L 43.6 70.7 L 41.5 75.0 L 39.1 79.0 L 36.4 82.9 L 33.4 86.6 L 30.2 90.1 L 26.7 93.4 L 22.9 96.5 L 18.7 99.2 L 14.3 101.8 L 13.2 100.3 L 16.4 96.6 L 19.4 92.9 L 22.1 89.2 L 24.5 85.5 L 26.7 81.8 L 28.7 78.1 L 30.3 74.4 L 31.8 70.6 L 33.0 66.8 L 33.68800497055054 63.8186450958252 L 33.6 63.8 L 34.4 61.3 Z M 81.9 94.6 L 78.8 91.0 L 76.0 87.1 L 73.6 83.1 L 71.5 78.8 L 69.8 74.3 L 68.5 69.7 L 67.8 64.9 L 67.46400003433227 60.7 L 42.8 60.7 L 42.8 56.7 L 57.477777767181394 56.7 L 63.7 49.7 L 66.0 51.7125 L 66.0 33.3 L 13.0 33.3 L 13.0 29.3 L 66.0 29.3 L 66.0 12.1 L 78.0 14.1 L 81.0 16.1 L 78.0 17.9 L 78.0 29.3 L 122.0 29.3 L 122.0 12.1 L 134.0 14.1 L 137.0 16.1 L 134.0 17.9 L 134.0 29.3 L 165.0 29.3 L 175.0 19.3 L 187.0 29.3 L 187.0 33.3 L 134.0 33.3 L 134.0 45.8 L 122.0 51.8 L 122.0 33.3 L 78.0 33.3 L 78.0 45.8 L 66.06363639831542 51.768181800842285 L 71.7 56.7 L 71.7 60.7 L 69.76511631011962 60.7 L 71.3 63.7 L 73.6 67.7 L 75.9 71.4 L 78.4 74.8 L 81.0 78.0 L 83.7 80.9 L 86.6 83.5 L 89.7 85.9 L 92.9 88.1 L 96.3 90.0 L 100.2 92.5 L 89.2 101.1 L 85.4 98.0 Z M 73.2 83.9 L 73.2 87.9 L 37.6 87.9 L 37.6 83.9 L 58.977777767181394 83.9 L 65.2 76.9 Z M 114.4 61.8 L 114.4 81.6 L 125.6 81.6 L 125.6 61.8 Z M 135.6 61.8 L 135.6 81.6 L 147.3 81.6 L 147.3 61.8 Z M 157.3 61.8 L 157.3 81.6 L 168.5 81.6 L 168.5 61.8 Z " />
</g>
</svg>
