<svg xmlns="http://www.w3.org/2000/svg" xmlns:xlink="http://www.w3.org/1999/xlink" version="1.1" baseProfile="full" viewBox="0 0 200 200" width="200" height="200">
<g fill="black">
<path d="M 95.8 168.4 L 94.2 166.7 L 92.3 164.9 L 90.2 163.1 L 87.9 161.3 L 85.4 159.5 L 82.6 157.7 L 81.6 157.1 L 81.6 182.5 L 69.6 188.5 L 69.6 161.73999996185302 L 68.9 162.6 L 65.2 166.6 L 61.1 170.3 L 56.8 173.7 L 52.1 176.7 L 47.2 179.4 L 41.9 181.7 L 36.4 183.5 L 35.6 181.8 L 40.1 178.4 L 44.3 174.9 L 48.2 171.4 L 51.8 167.9 L 55.2 164.2 L 58.2 160.4 L 61.0 156.5 L 63.4 152.4 L 65.49767446517944 148.3 L 36.0 148.3 L 36.0 144.3 L 69.6 144.3 L 69.6 127.1 L 81.6 129.1 L 84.6 131.1 L 81.6 132.9 L 81.6 144.3 L 87.1 144.3 L 97.1 134.3 L 109.1 144.3 L 109.1 148.3 L 81.6 148.3 L 81.6 153.5666666984558 L 84.0 153.9 L 87.5 154.6 L 90.8 155.4 L 93.9 156.4 L 96.8 157.6 L 99.6 158.9 L 102.3 160.4 L 104.8 162.0 L 107.2 163.8 L 108.7 168.1 L 106.8 172.3 L 102.5 173.8 L 98.3 171.9 L 97.2 170.2 Z M 167.6 178.4 L 163.9 175.2 L 160.5 171.8 L 157.4 168.2 L 154.6 164.5 L 152.0 160.5 L 150.4 157.51818180084229 L 150.4 182.5 L 138.4 188.5 L 138.4 160.48461542129516 L 136.3 162.8 L 132.1 166.8 L 127.6 170.5 L 122.7 173.8 L 117.5 176.8 L 112.0 179.5 L 106.2 181.7 L 100.0 183.5 L 99.3 181.8 L 104.5 178.3 L 109.3 174.8 L 113.9 171.3 L 118.1 167.7 L 122.0 164.0 L 125.6 160.2 L 128.8 156.2 L 131.7 152.1 L 133.90930233001708 148.3 L 110.8 148.3 L 110.8 144.3 L 138.4 144.3 L 138.4 127.1 L 150.4 129.1 L 153.4 131.1 L 150.4 132.9 L 150.4 144.3 L 161.9 144.3 L 171.9 134.3 L 183.9 144.3 L 183.9 148.3 L 150.4 148.3 L 150.4 149.19333333969115 L 151.2 150.1 L 154.3 153.3 L 157.4 156.3 L 160.6 159.1 L 163.8 161.8 L 167.1 164.3 L 170.6 166.7 L 174.2 168.8 L 178.0 170.8 L 181.9 172.6 L 186.8 175.3 L 175.6 184.3 L 171.5 181.4 Z M 95.7 88.9 L 98.4 91.3 L 94.56780824661254 92.8328766822815 L 93.8 95.5 L 91.0 101.5 L 87.2 107.0 L 82.6 111.8 L 77.2 116.1 L 71.1 119.7 L 64.2 122.7 L 56.6 125.0 L 48.2 126.8 L 39.1 127.8 L 38.8 126.1 L 47.3 123.1 L 54.8 120.0 L 61.5 116.7 L 67.2 113.1 L 72.1 109.3 L 76.0 105.3 L 79.1 101.1 L 81.4 96.7 L 83.0 92.0 L 83.71973361968995 88.00148000717164 L 83.7 88.0 L 84.2 85.0 Z M 177.0 94.5 L 179.0 94.5 L 177.0 115.5 L 180.3 117.7 L 182.5 121.0 L 180.3 124.3 L 177.0 126.5 L 136.0 126.5 L 133.4 126.4 L 131.0 126.0 L 128.6 125.2 L 126.4 124.1 L 124.4 122.5 L 122.7 120.6 L 121.5 118.4 L 120.6 116.0 L 120.1 113.5 L 120.0 111.0 L 120.0 85.0 L 132.0 87.0 L 135.0 89.0 L 132.0 90.8 L 132.0 112.2 L 132.1 113.1 L 132.2 113.7 L 132.4 114.1 L 132.5 114.4 L 132.7 114.6 L 133.1 114.9 L 133.7 115.1 L 134.7 115.3 L 136.0 115.5 L 171.5 115.5 Z M 168.48249492645263 52.32293758392334 L 164.1 54.8 L 161.7 56.0 L 159.6 57.6 L 158.3 56.3 L 160.1 54.3 L 161.5 52.0 L 162.9 49.8 L 164.3 47.7 L 165.6 45.6 L 166.9 43.6 L 167.86000003814698 42.0 L 41.0 42.0 L 41.0 91.0 L 40.4 103.1 L 39.4 114.7 L 37.9 125.7 L 35.8 136.1 L 33.3 146.0 L 30.3 155.2 L 26.7 163.8 L 22.7 171.8 L 18.0 179.0 L 12.7 185.5 L 11.2 184.4 L 14.7 177.1 L 17.8 169.5 L 20.6 161.4 L 23.0 152.9 L 25.1 143.9 L 26.7 134.4 L 27.9 124.4 L 28.7 113.8 L 29.0 102.6 L 29.0 32.0 L 41.0 38.0 L 90.0 38.0 L 90.0 12.0 L 102.0 14.0 L 105.0 16.0 L 102.0 17.8 L 102.0 23.0 L 143.0 23.0 L 153.0 13.0 L 165.0 23.0 L 165.0 27.0 L 102.0 27.0 L 102.0 38.0 L 170.0 38.0 L 170.537931060791 37.551724147796634 L 171.4 36.0 L 171.88977394104003 36.42518835067749 L 176.0 33.0 L 187.0 42.0 L 182.0 45.0 L 175.34246578216553 47.77397260665894 L 174.9 48.1 L 172.9 49.4 L 171.66197185516359 50.225352096557614 L 170.0 71.0 L 173.6 73.4 L 176.0 77.0 L 173.6 80.6 L 170.0 83.0 L 100.0 83.0 L 97.4 82.8 L 94.9 82.4 L 92.5 81.6 L 90.2 80.3 L 88.2 78.7 L 86.6 76.7 L 85.3 74.4 L 84.5 72.0 L 84.1 69.5 L 84.0 67.0 L 84.0 61.3787036895752 L 45.1 63.9 L 44.8 60.0 L 84.0 57.45925922393799 L 84.0 43.0 L 96.0 45.0 L 99.0 47.0 L 96.0 48.8 L 96.0 56.68148145675659 L 130.83086919784546 54.42392511367798 L 140.2 43.8 L 152.8 53.0 L 153.1 56.9 L 96.0 60.6009259223938 L 96.0 68.2 L 96.2 69.1 L 96.5 70.0 L 96.9 70.4 L 97.8 70.7 L 98.7 70.9 L 100.0 71.0 L 164.0 71.0 Z " />
</g>
</svg>
