<svg xmlns="http://www.w3.org/2000/svg" xmlns:xlink="http://www.w3.org/1999/xlink" version="1.1" baseProfile="full" viewBox="0 0 200 200" width="200" height="200">
<g fill="black">
<path d="M 36.5 184.3 L 36.0 179.8 L 38.7 176.1 L 41.1 175.0 L 43.3 173.6 L 45.5 171.7 L 47.5 169.5 L 49.4 166.8 L 51.1 163.6 L 52.7 160.0 L 54.2 155.9 L 55.5 151.3 L 56.4 146.2 L 58.2 146.3 L 58.5 151.6 L 58.7 156.6 L 58.4 161.3 L 57.7 165.8 L 56.6 170.0 L 55.1 174.0 L 53.2 177.6 L 50.8 181.0 L 47.9 184.0 L 44.7 186.6 L 40.1 187.1 Z M 166.0 175.4 L 164.8 172.3 L 163.3 169.0 L 161.6 165.7 L 159.5 162.2 L 157.1 158.7 L 154.4 155.1 L 151.4 151.3 L 148.0 147.5 L 149.2 146.1 L 153.6 148.8 L 157.7 151.6 L 161.5 154.6 L 164.9 157.7 L 168.1 160.8 L 170.9 164.1 L 173.4 167.5 L 175.6 171.1 L 177.4 174.7 L 179.0 178.4 L 178.3 182.9 L 174.7 185.7 L 170.2 185.1 L 167.4 181.5 L 166.8 178.5 Z M 124.8 173.2 L 124.4 170.4 L 123.6 167.5 L 122.6 164.5 L 121.3 161.4 L 119.7 158.3 L 117.9 155.0 L 115.8 151.6 L 113.2 148.4 L 114.4 147.1 L 121.2 152.1 L 124.2 154.8 L 126.9 157.7 L 129.4 160.6 L 131.5 163.8 L 133.4 167.0 L 134.9 170.4 L 136.1 173.9 L 137.0 177.5 L 135.6 181.9 L 131.6 184.0 L 127.2 182.6 L 125.1 178.6 L 125.1 175.9 Z M 90.1 184.0 L 86.1 181.9 L 84.7 177.5 L 85.3 174.9 L 85.6 172.2 L 85.7 169.4 L 85.6 166.7 L 85.3 163.8 L 84.7 160.9 L 83.9 157.9 L 82.9 154.8 L 81.7 151.5 L 79.9 148.4 L 81.3 147.3 L 86.5 152.5 L 88.8 155.3 L 90.8 158.3 L 92.5 161.4 L 94.0 164.6 L 95.1 168.0 L 95.9 171.4 L 96.5 175.0 L 96.7 178.6 L 94.5 182.6 Z M 96.5 99.3 L 99.2 101.7 L 95.52193880081177 103.26658163070678 L 94.7 106.6 L 91.9 113.4 L 88.2 119.5 L 83.6 124.9 L 78.2 129.6 L 72.0 133.5 L 65.1 136.7 L 57.4 139.2 L 49.0 140.9 L 39.8 141.9 L 39.5 140.1 L 48.0 137.3 L 55.6 134.2 L 62.2 130.8 L 68.0 127.1 L 72.8 123.0 L 76.7 118.7 L 79.8 114.0 L 82.1 109.0 L 83.7 103.6 L 84.6 97.7 L 84.62853717803955 97.7038369178772 L 84.9 95.6 Z M 177.4 104.8 L 179.4 104.8 L 177.4 129.8 L 181.0 132.2 L 183.4 135.8 L 181.0 139.4 L 177.4 141.8 L 136.3 141.8 L 133.8 141.6 L 131.3 141.2 L 128.9 140.4 L 126.6 139.2 L 124.6 137.5 L 122.9 135.5 L 121.7 133.2 L 120.9 130.8 L 120.5 128.3 L 120.3 125.8 L 120.3 95.9 L 132.3 97.9 L 135.3 99.9 L 132.3 101.7 L 132.3 125.8 L 132.4 127.0 L 132.6 127.9 L 132.9 128.8 L 133.3 129.2 L 133.6 129.4 L 134.2 129.5 L 135.1 129.7 L 136.3 129.8 L 171.4 129.8 Z M 97.4 91.8 L 94.9 91.4 L 92.5 90.6 L 90.2 89.3 L 88.2 87.7 L 86.6 85.7 L 85.3 83.4 L 84.5 81.0 L 84.1 78.5 L 84.0 76.0 L 84.0 69.0185185432434 L 45.1 71.9 L 44.8 68.0 L 84.0 65.0962963104248 L 84.0 48.0 L 96.0 50.0 L 99.0 52.0 L 96.0 53.8 L 96.0 64.2074073791504 L 130.79508352279663 61.62999382019043 L 140.1 50.9 L 152.8 60.0 L 153.1 63.9 L 96.0 68.129629611969 L 96.0 77.2 L 96.2 78.1 L 96.5 79.0 L 96.9 79.4 L 97.8 79.7 L 98.7 79.9 L 100.0 80.0 L 164.0 80.0 L 169.4907801628113 57.12174940109253 L 168.9 57.6 L 166.6 59.3 L 164.3 60.9 L 161.8 62.6 L 159.6 64.6 L 158.3 63.3 L 160.0 61.0 L 161.4 58.3 L 162.7 55.8 L 164.1 53.4 L 165.4 51.0 L 166.6 48.8 L 167.9 46.5 L 168.1619047164917 46.0 L 41.0 46.0 L 41.0 102.0 L 40.4 113.5 L 39.4 124.3 L 37.8 134.5 L 35.8 144.0 L 33.3 152.8 L 30.2 161.0 L 26.7 168.4 L 22.5 175.0 L 17.9 180.7 L 12.6 185.6 L 11.3 184.3 L 14.8 178.5 L 17.9 172.3 L 20.7 165.6 L 23.1 158.4 L 25.1 150.6 L 26.7 142.1 L 27.9 133.1 L 28.7 123.4 L 29.0 113.0 L 29.0 36.0 L 41.0 42.0 L 90.0 42.0 L 90.0 12.0 L 102.0 14.0 L 105.0 16.0 L 102.0 17.8 L 102.0 25.0 L 143.0 25.0 L 153.0 15.0 L 165.0 25.0 L 165.0 29.0 L 102.0 29.0 L 102.0 42.0 L 170.0 42.0 L 170.4892307281494 41.59230766296387 L 171.2 40.3 L 171.637020778656 40.63581600189209 L 176.0 37.0 L 187.0 46.0 L 182.0 49.0 L 176.5690721511841 51.26288661956787 L 175.1 52.5 L 173.1 54.2 L 171.99226064682006 55.096741390228274 L 170.0 80.0 L 173.6 82.4 L 176.0 86.0 L 173.6 89.6 L 170.0 92.0 L 100.0 92.0 Z " />
</g>
</svg>
