<svg xmlns="http://www.w3.org/2000/svg" xmlns:xlink="http://www.w3.org/1999/xlink" version="1.1" baseProfile="full" viewBox="0 0 200 200" width="200" height="200">
<g fill="black">
<path d="M 178.4 157.8 L 177.0 159.9 L 175.4 161.8 L 173.5 163.4 L 171.4 164.7 L 169.1 165.7 L 166.7 166.4 L 164.2 166.8 L 161.7 167.0 L 161.7 161.0 L 151.7 158.0 L 151.7 155.0 L 161.7 155.0 L 163.0 154.9 L 164.1 154.7 L 165.0 154.5 L 165.8 154.1 L 166.4 153.7 L 167.5 152.6 L 168.0 151.9 L 168.5 150.9 L 169.0 149.6 L 169.5 147.7 L 170.0 145.5 L 170.4 142.8 L 170.8 139.9 L 171.2 136.5 L 171.4 132.9 L 171.7 128.9 L 171.8 124.6 L 171.9 119.9 L 171.95918369293213 117.0 L 142.2 117.0 L 142.2 182.0 L 130.2 188.0 L 130.2 130.18936166763305 L 128.4 133.1 L 123.3 140.3 L 118.0 147.2 L 112.2 153.7 L 106.1 159.8 L 99.7 165.5 L 92.9 170.8 L 85.7 175.5 L 78.1 179.7 L 77.1 178.2 L 83.4 172.5 L 89.5 166.7 L 95.2 160.7 L 100.6 154.6 L 105.8 148.2 L 110.6 141.6 L 115.0 134.7 L 119.2 127.5 L 123.0 120.1 L 124.39803924560547 117.0 L 102.21001968383788 117.0 L 100.7 129.6 L 88.1 134.1 L 95.6 71.3 L 105.74054050445557 78.0 L 130.2 78.0 L 130.2 48.0 L 92.3 48.0 L 92.3 44.0 L 143.9083333015442 44.0 L 145.2 40.9 L 146.2 37.3 L 147.4 33.9 L 148.5 30.6 L 149.6 27.4 L 150.7 24.3 L 151.7 21.4 L 153.5 15.8 L 154.06607675552368 14.16466703414917 L 153.9 14.1 L 154.9 12.1 L 165.2 18.5 L 167.0 21.6 L 162.77536344528198 21.96419277191162 L 161.9 23.2 L 160.2 25.7 L 158.4 28.3 L 156.5 31.0 L 154.4 33.7 L 152.3 36.5 L 150.0 39.4 L 147.6 42.3 L 146.33870964050294 44.0 L 166.7 44.0 L 172.7 39.0 L 183.7 48.0 L 178.7 52.0 L 178.7 88.0 L 166.7 94.0 L 166.7 82.0 L 142.2 82.0 L 142.2 113.0 L 172.0 113.0 L 178.0 108.0 L 189.0 117.0 L 184.0 120.0 L 183.9011531829834 120.04118614196777 L 183.9 120.1 L 183.8 124.9 L 183.7 129.4 L 183.4 133.7 L 183.1 137.6 L 182.7 141.3 L 182.3 144.6 L 181.8 147.7 L 181.1 150.6 L 180.4 153.2 L 179.5 155.6 Z M 70.2 158.3 L 69.7 154.3 L 68.9 150.4 L 68.76566562652587 149.8029582977295 L 66.6 151.6 L 61.7 155.1 L 56.6 158.5 L 51.4 161.7 L 46.0 164.7 L 40.6 167.6 L 35.0 170.5 L 29.3 173.2 L 23.6 175.8 L 21.501160621643066 176.68933868408203 L 20.6 180.4 L 17.7 178.3 L 11.7 167.6 L 13.6 167.0 L 19.5 165.1 L 25.3 163.2 L 31.1 161.2 L 41.9 157.22105264663696 L 41.9 112.0 L 29.2 112.0 L 29.2 124.0 L 17.2 130.0 L 17.2 47.0 L 29.2 53.0 L 41.9 53.0 L 41.9 13.0 L 53.9 15.0 L 56.9 17.0 L 53.9 18.8 L 53.9 53.0 L 66.5 53.0 L 72.5 48.0 L 83.5 57.0 L 78.5 61.0 L 78.5 112.0 L 66.5 118.0 L 66.5 112.0 L 53.9 112.0 L 53.9 152.48214282989503 L 59.2 150.4 L 64.7 148.3 L 68.13746395111085 147.0109510421753 L 68.0 146.4 L 66.7 142.5 L 65.3 138.5 L 63.6 134.5 L 61.8 130.4 L 59.7 126.3 L 61.1 125.2 L 64.5 128.4 L 67.8 131.8 L 70.7 135.5 L 73.3 139.4 L 75.6 143.4 L 77.5 147.5 L 79.2 151.8 L 80.6 156.3 L 81.7 160.9 L 82.5 165.5 L 81.0 169.9 L 77.0 171.9 L 72.6 170.4 L 70.6 166.4 L 70.5 162.3 Z M 106.40451869964599 82.0 L 102.68939094543457 113.0 L 130.2 113.0 L 130.2 82.0 Z M 29.2 57.0 L 29.2 108.0 L 41.9 108.0 L 41.9 57.0 Z M 53.9 57.0 L 53.9 108.0 L 66.5 108.0 L 66.5 57.0 Z M 142.2 48.0 L 142.2 78.0 L 166.7 78.0 L 166.7 48.0 Z M 113.7 33.1 L 113.3 30.9 L 112.7 28.7 L 111.9 26.4 L 110.9 24.0 L 109.8 21.6 L 108.5 19.2 L 107.0 16.6 L 105.0 14.3 L 106.2 12.9 L 108.7 14.8 L 111.4 16.5 L 113.8 18.3 L 116.1 20.3 L 118.2 22.4 L 120.1 24.6 L 121.8 27.0 L 123.3 29.5 L 124.6 32.1 L 125.7 34.8 L 124.8 39.3 L 121.1 41.9 L 116.6 41.0 L 114.0 37.2 L 113.9 35.2 Z " />
</g>
</svg>
