<svg xmlns="http://www.w3.org/2000/svg" xmlns:xlink="http://www.w3.org/1999/xlink" version="1.1" baseProfile="full" viewBox="0 0 200 200" width="200" height="200">
<g fill="black">
<path d="M 143.6 175.9 L 161.6 175.9 L 162.8 175.8 L 163.7 175.7 L 164.3 175.5 L 164.7 175.3 L 165.0 175.0 L 165.2 174.6 L 165.4 174.0 L 165.5 173.1 L 165.6 171.9 L 165.6 152.0 L 135.4704917907715 152.0 L 134.9 154.9 L 133.3 160.7 L 131.2 166.0 L 128.6 170.8 L 125.6 175.2 L 122.1 179.1 L 118.1 182.4 L 113.8 185.1 L 109.0 187.0 L 108.2 185.6 L 111.7 182.3 L 114.8 178.8 L 117.5 175.2 L 119.8 171.4 L 121.7 167.3 L 123.3 162.9 L 124.4 158.2 L 125.3 153.2 L 125.7 147.7 L 125.8 141.9 L 125.8 95.6 L 136.8 101.1 L 165.6 101.1 L 171.6 96.1 L 182.6 105.1 L 177.6 109.1 L 177.6 171.9 L 177.5 174.5 L 177.0 177.0 L 176.2 179.4 L 175.0 181.6 L 173.3 183.6 L 171.3 185.3 L 169.1 186.5 L 166.6 187.3 L 164.2 187.8 L 161.6 187.9 L 161.6 181.9 L 143.6 178.9 Z M 102.8 95.3 L 105.8 97.3 L 102.8 99.1 L 102.8 103.8 L 108.2 103.8 L 112.7 97.8 L 118.7 103.8 L 118.7 107.8 L 102.8 107.8 L 102.8 122.0 L 90.8 128.0 L 90.8 122.0 L 86.9 122.0 L 86.9 131.9 L 102.2 131.9 L 107.7 126.9 L 118.2 135.9 L 113.2 139.4 L 113.2 154.0 L 102.2 159.5 L 102.2 154.0 L 86.9 154.0 L 86.9 164.9 L 102.21818180084229 164.9 L 110.4 155.9 L 120.4 164.9 L 120.4 168.9 L 86.9 168.9 L 86.9 181.6 L 74.9 187.6 L 74.9 168.9 L 39.7 168.9 L 39.7 164.9 L 74.9 164.9 L 74.9 154.0 L 60.1 154.0 L 48.1 160.0 L 48.1 125.9 L 60.1 131.9 L 74.9 131.9 L 74.9 122.0 L 71.8 122.0 L 59.8 128.0 L 59.8 107.8 L 43.1 107.8 L 43.1 103.8 L 59.8 103.8 L 59.8 93.3 L 71.8 95.3 L 74.8 97.3 L 71.8 99.1 L 71.8 103.8 L 90.8 103.8 L 90.8 93.3 Z M 60.1 135.9 L 60.1 150.0 L 74.9 150.0 L 74.9 135.9 Z M 86.9 135.9 L 86.9 150.0 L 102.2 150.0 L 102.2 135.9 Z M 136.8 142.2 L 136.18484849929808 148.0 L 165.6 148.0 L 165.6 129.0 L 136.8 129.0 L 136.8 142.1 L 136.73452377319336 142.19821424484252 Z M 136.8 105.1 L 136.8 125.0 L 165.6 125.0 L 165.6 105.1 Z M 71.8 107.8 L 71.8 118.0 L 90.8 118.0 L 90.8 107.8 Z M 170.0 72.0 L 172.0 72.0 L 170.0 81.0 L 172.4 82.6 L 174.0 85.0 L 172.4 87.4 L 170.0 89.0 L 97.6 89.0 L 95.3 88.8 L 93.0 88.3 L 90.9 87.3 L 88.9 86.0 L 87.2 84.2 L 85.9 82.2 L 84.9 79.9 L 84.3 77.5 L 84.0 75.0 L 84.0 70.65833330154419 L 45.1 73.9 L 44.8 70.0 L 84.0 66.73333330154419 L 84.0 48.0 L 41.0 48.0 L 41.0 111.0 L 40.4 121.3 L 39.4 131.1 L 37.8 140.2 L 35.8 148.8 L 33.3 156.7 L 30.2 164.0 L 26.6 170.6 L 22.5 176.4 L 17.8 181.5 L 12.6 185.6 L 11.3 184.3 L 14.9 179.0 L 18.0 173.5 L 20.8 167.5 L 23.2 161.1 L 25.1 154.2 L 26.7 146.7 L 27.9 138.7 L 28.7 130.0 L 29.0 120.8 L 29.0 38.0 L 41.0 44.0 L 90.0 44.0 L 90.0 12.0 L 102.0 14.0 L 105.0 16.0 L 102.0 17.8 L 102.0 26.0 L 143.0 26.0 L 153.0 16.0 L 165.0 26.0 L 165.0 30.0 L 102.0 30.0 L 102.0 44.0 L 170.0 44.0 L 170.51219511032104 43.5731707572937 L 171.0 42.5 L 171.4356435775757 42.803630352020264 L 176.0 39.0 L 187.0 48.0 L 182.0 51.0 L 177.37142858505248 52.92857141494751 L 177.2 53.1 L 175.3 54.9 L 173.3 56.8 L 171.2 58.7 L 169.0 60.7 L 166.8 62.6 L 164.4 64.5 L 161.9 66.4 L 159.6 68.5 L 158.3 67.4 L 159.9 64.8 L 161.3 62.0 L 162.6 59.3 L 163.9 56.7 L 166.5 51.7 L 167.7 49.3 L 168.3782608985901 48.0 L 90.0 48.0 L 96.0 49.0 L 99.0 51.0 L 96.0 52.8 L 96.0 65.73333330154419 L 130.75938806533813 62.83671770095825 L 140.0 52.0 L 152.8 61.0 L 153.1 64.9 L 96.0 69.65833330154419 L 96.0 75.0 L 95.8 76.2 L 95.8 77.9 L 95.9 78.5 L 96.0 78.9 L 96.2 79.4 L 96.7 79.8 L 97.4 80.3 L 98.5 80.7 L 100.0 81.0 L 166.0 81.0 Z " />
</g>
</svg>
