<svg xmlns="http://www.w3.org/2000/svg" xmlns:xlink="http://www.w3.org/1999/xlink" version="1.1" baseProfile="full" viewBox="0 0 200 200" width="200" height="200">
<g fill="black">
<path d="M 167.5 179.8 L 164.9 177.0 L 161.8 174.1 L 158.73348903656006 171.5746379852295 L 149.9 173.2 L 137.1 175.1 L 124.0 176.8 L 110.7 178.3 L 97.0 179.7 L 83.1 180.9 L 69.0 182.1 L 54.6 183.2 L 39.9 184.1 L 29.059300327301024 184.75480737686158 L 27.1 187.9 L 25.0 185.0 L 22.5 173.1 L 24.5 173.0 L 39.4 172.8 L 54.1 172.4 L 68.5 172.1 L 82.6 171.7 L 96.5 171.2 L 97.0 171.18161764144898 L 97.0 151.4 L 54.5 151.4 L 54.5 154.4 L 42.5 160.4 L 42.5 119.8 L 54.5 125.8 L 97.0 125.8 L 97.0 113.3 L 109.0 115.3 L 112.0 117.3 L 109.0 119.1 L 109.0 125.8 L 151.4 125.8 L 157.4 120.8 L 168.4 129.8 L 163.4 133.8 L 163.4 151.4 L 151.4 157.4 L 151.4 151.4 L 109.0 151.4 L 109.0 170.7404411315918 L 110.1 170.7 L 123.5 170.2 L 136.7 169.8 L 149.6 169.4 L 155.78276138305665 169.3026336669922 L 154.6 168.4 L 150.3 165.6 L 145.7 162.8 L 140.7 159.8 L 135.3 156.8 L 135.9 155.1 L 142.0 156.4 L 147.8 158.0 L 153.2 159.8 L 158.2 161.9 L 162.9 164.2 L 167.3 166.6 L 171.3 169.3 L 175.0 172.2 L 178.3 175.2 L 181.3 178.5 L 182.3 183.0 L 179.9 186.9 L 175.5 187.9 L 171.6 185.5 L 169.7 182.7 Z M 54.5 129.8 L 54.5 147.4 L 97.0 147.4 L 97.0 129.8 Z M 109.0 129.8 L 109.0 147.4 L 151.4 147.4 L 151.4 129.8 Z M 102.3 39.0 L 104.4 41.9 L 100.52479009628296 42.634953594207765 L 100.2 43.3 L 97.7 47.4 L 96.23333330154419 49.6 L 155.8181818008423 49.6 L 164.0 40.6 L 174.0 49.6 L 174.0 53.6 L 127.3 53.6 L 127.3 73.4 L 126.81053981781005 74.13419027328491 L 127.3 74.2 L 127.16029415130615 74.7 L 164.1 74.7 L 174.1 64.7 L 186.1 74.7 L 186.1 78.7 L 127.96000003814697 78.7 L 129.4 80.3 L 133.2 84.1 L 137.4 87.6 L 142.0 90.9 L 147.1 94.0 L 152.7 96.8 L 159.0 99.4 L 165.8 101.8 L 173.2 103.9 L 181.3 105.9 L 189.8 108.0 L 178.0 118.6 L 169.5 115.9 L 161.7 112.9 L 154.4 109.5 L 147.9 105.8 L 142.0 101.8 L 136.8 97.5 L 132.3 92.8 L 128.7 87.8 L 125.9 82.6 L 125.4068468093872 80.97549552917481 L 125.4 81.0 L 122.3 87.4 L 118.1 93.2 L 112.9 98.4 L 106.6 103.0 L 99.4 107.1 L 91.2 110.7 L 82.1 113.8 L 71.9 116.4 L 60.8 118.3 L 60.4 116.6 L 70.8 112.7 L 80.2 108.8 L 88.5 104.7 L 95.6 100.5 L 101.6 96.1 L 106.5 91.6 L 110.2 87.0 L 112.9 82.3 L 114.175 78.7 L 61.4 78.7 L 61.4 74.7 L 115.05714282989501 74.7 L 115.3 73.2125 L 115.3 53.6 L 93.28421049118042 53.6 L 92.1 55.1 L 88.8 58.7 L 85.3 62.1 L 81.5 65.3 L 77.5 68.4 L 73.1 71.1 L 68.4 73.6 L 67.3 72.2 L 70.8 68.4 L 74.1 64.6 L 77.1 60.9 L 79.8 57.2 L 82.4 53.5 L 84.6 49.8 L 86.6 46.1 L 88.3 42.3 L 89.8 38.5 L 90.75275993347168 35.71500930786133 L 90.7 35.7 L 91.36521739959717 34.0 L 58.0 34.0 L 58.0 73.4 L 57.8884955406189 73.56725664138794 L 57.8 78.7 L 56.9 84.3 L 55.5 89.7 L 53.4 94.8 L 50.7 99.5 L 47.4 104.0 L 43.5 108.1 L 39.1 111.8 L 34.0 115.1 L 28.5 117.9 L 27.4 116.4 L 31.7 112.1 L 35.4 107.9 L 38.6 103.7 L 41.2 99.6 L 43.2 95.5 L 44.8 91.3 L 45.8 87.1 L 46.3 82.8 L 46.4 78.4 L 46.1592677116394 75.63157892227173 L 44.8 76.5 L 41.6 78.9 L 38.3 81.1 L 35.2 83.1 L 32.2 85.0 L 29.3 86.7 L 26.4 88.2 L 23.7 89.6 L 22.645132732391357 90.1274335861206 L 21.2 94.4 L 18.5 92.1 L 13.4 81.0 L 15.3 80.5 L 17.7 80.2 L 20.3 79.8 L 23.1 79.2 L 26.1 78.6 L 29.2 77.8 L 32.5 76.9 L 36.0 76.0 L 39.7 75.0 L 43.6 73.9 L 46.0 73.0384614944458 L 46.0 24.0 L 58.0 30.0 L 110.0 30.0 L 110.0 12.4 L 122.0 14.4 L 125.0 16.4 L 122.0 18.2 L 122.0 30.0 L 166.0 30.0 L 176.0 20.0 L 188.0 30.0 L 188.0 34.0 L 92.74642858505248 34.0 Z M 30.4 57.0 L 29.5 55.5 L 28.4 53.8 L 27.0 52.1 L 25.4 50.2 L 23.5 48.3 L 21.5 46.2 L 19.2 44.0 L 16.4 42.2 L 17.3 40.6 L 20.3 42.0 L 23.4 42.9 L 26.3 43.9 L 29.0 45.0 L 31.5 46.2 L 33.8 47.4 L 36.0 48.7 L 38.0 50.1 L 39.8 51.6 L 41.4 53.2 L 42.1 57.7 L 39.5 61.5 L 35.0 62.2 L 31.3 59.6 L 31.0 58.4 Z " />
</g>
</svg>
