<svg xmlns="http://www.w3.org/2000/svg" xmlns:xlink="http://www.w3.org/1999/xlink" version="1.1" baseProfile="full" viewBox="0 0 200 200" width="200" height="200">
<g fill="black">
<path d="M 150.2 175.0 L 166.2 175.0 L 167.4 174.9 L 168.3 174.7 L 169.2 174.4 L 169.6 174.0 L 169.8 173.7 L 169.9 173.1 L 170.1 172.2 L 170.2 171.0 L 170.2 111.0 L 140.4 111.0 L 140.4 142.8259259223938 L 140.6 142.8 L 145.9 142.1 L 151.4 141.5 L 152.29056940078735 141.4352313041687 L 151.8 139.8 L 150.5 135.9 L 149.1 132.0 L 145.9 124.2 L 144.1 120.3 L 145.5 119.2 L 148.7 122.3 L 151.7 125.5 L 154.5 129.0 L 157.0 132.7 L 159.3 136.5 L 161.4 140.5 L 163.3 144.6 L 165.1 148.9 L 166.6 153.3 L 167.9 157.8 L 167.0 162.3 L 163.2 164.9 L 158.8 163.9 L 156.2 160.2 L 155.6 156.0 L 154.9 151.8 L 154.0 147.8 L 153.2375 144.75 L 152.3 145.2 L 147.2 147.3 L 137.0 150.9 L 131.8 152.5 L 126.7 154.1 L 121.6 155.6 L 111.4 158.4 L 110.35235862731933 158.66704587936403 L 108.8 162.2 L 106.3 159.7 L 102.1 148.2 L 104.1 147.9 L 114.3 146.5 L 119.5 145.8 L 124.7 145.0 L 128.4 144.51132078170775 L 128.4 111.0 L 98.0 111.0 L 98.0 182.2 L 87.0 187.7 L 87.0 101.5 L 98.0 107.0 L 128.4 107.0 L 128.4 85.0 L 107.1 85.0 L 107.1 92.0 L 95.1 98.0 L 95.1 19.0 L 107.1 25.0 L 161.6 25.0 L 167.6 20.0 L 178.6 29.0 L 173.6 33.0 L 173.6 89.0 L 161.6 95.0 L 161.6 85.0 L 140.4 85.0 L 140.4 107.0 L 170.2 107.0 L 176.2 102.0 L 187.2 111.0 L 182.2 115.0 L 182.2 171.0 L 182.0 173.5 L 181.6 176.0 L 180.8 178.4 L 179.6 180.7 L 177.9 182.7 L 175.9 184.3 L 173.6 185.6 L 171.2 186.4 L 168.7 186.8 L 166.2 187.0 L 166.2 181.0 L 150.2 178.0 Z M 69.3 158.3 L 68.8 154.3 L 68.1 150.4 L 67.95330400466919 149.8132158279419 L 65.8 151.6 L 61.0 155.1 L 56.0 158.5 L 50.9 161.7 L 45.6 164.7 L 40.2 167.6 L 34.7 170.4 L 29.1 173.1 L 23.3 175.7 L 21.397728538513185 176.51994457244874 L 20.4 180.4 L 17.5 178.2 L 11.6 167.7 L 13.4 167.0 L 19.3 165.1 L 25.0 163.2 L 30.7 161.2 L 36.4 159.1 L 41.3 157.2625 L 41.3 112.0 L 29.0 112.0 L 29.0 124.0 L 17.0 130.0 L 17.0 47.0 L 29.0 53.0 L 41.3 53.0 L 41.3 13.0 L 53.3 15.0 L 56.3 17.0 L 53.3 18.8 L 53.3 53.0 L 66.2 53.0 L 71.7 48.0 L 82.2 57.0 L 77.2 60.5 L 77.2 112.0 L 66.2 117.5 L 66.2 112.0 L 53.3 112.0 L 53.3 152.4800000190735 L 58.5 150.4 L 67.26348543167114 147.05394191741942 L 67.1 146.4 L 65.9 142.5 L 64.5 138.5 L 62.9 134.5 L 61.1 130.4 L 59.0 126.3 L 60.4 125.2 L 63.8 128.4 L 67.1 131.9 L 69.9 135.5 L 72.5 139.4 L 74.7 143.4 L 76.7 147.6 L 78.4 151.9 L 79.8 156.3 L 80.9 160.9 L 81.7 165.6 L 80.1 169.9 L 76.1 171.9 L 71.8 170.4 L 69.7 166.4 L 69.6 162.3 Z M 29.0 57.0 L 29.0 108.0 L 41.3 108.0 L 41.3 57.0 Z M 53.3 57.0 L 53.3 108.0 L 66.2 108.0 L 66.2 57.0 Z M 107.1 57.0 L 107.1 81.0 L 128.4 81.0 L 128.4 57.0 Z M 140.4 57.0 L 140.4 81.0 L 161.6 81.0 L 161.6 57.0 Z M 107.1 29.0 L 107.1 53.0 L 128.4 53.0 L 128.4 29.0 Z M 140.4 29.0 L 140.4 53.0 L 161.6 53.0 L 161.6 29.0 Z " />
</g>
</svg>
