<svg xmlns="http://www.w3.org/2000/svg" xmlns:xlink="http://www.w3.org/1999/xlink" version="1.1" baseProfile="full" viewBox="0 0 200 200" width="200" height="200">
<g fill="black">
<path d="M 44.2 115.0 L 42.9 124.6 L 41.0 133.9 L 38.7 142.9 L 35.7 151.5 L 32.3 159.8 L 28.3 167.6 L 23.7 175.1 L 18.5 182.0 L 12.7 188.5 L 11.2 187.4 L 15.3 180.0 L 19.0 172.4 L 22.3 164.8 L 25.2 156.9 L 27.7 148.9 L 29.6 140.6 L 31.2 132.1 L 32.2 123.3 L 32.8 114.2 L 33.0 104.8 L 33.0 76.0 L 45.0 78.0 L 48.0 80.0 L 45.0 81.8 L 45.0 105.0 L 44.896045207977295 105.15593223571777 Z M 140.4 179.4 L 138.9 176.7 L 137.2 174.0 L 136.0584758758545 172.51601867675782 L 130.9 173.9 L 122.6 175.8 L 114.0 177.4 L 105.3 178.9 L 96.4 180.3 L 87.3 181.5 L 78.0 182.7 L 68.6 183.7 L 59.0 184.7 L 53.328943729400635 185.16771602630615 L 51.4 188.4 L 49.3 185.5 L 46.6 173.6 L 48.6 173.5 L 58.3 173.3 L 67.9 173.0 L 77.3 172.7 L 86.5 172.3 L 94.0 171.88791208267213 L 94.0 152.7 L 70.2 152.7 L 70.2 155.7 L 58.2 161.7 L 58.2 121.7 L 70.2 127.7 L 94.0 127.7 L 94.0 115.6 L 106.0 117.6 L 109.0 119.6 L 106.0 121.4 L 106.0 127.7 L 129.7 127.7 L 135.7 122.7 L 146.7 131.7 L 141.7 135.7 L 141.7 152.7 L 129.7 158.7 L 129.7 152.7 L 106.0 152.7 L 106.0 171.31477270126342 L 113.3 170.9 L 121.9 170.5 L 130.4 170.1 L 134.01918754577636 170.01382884979247 L 132.9 168.7 L 130.4 166.1 L 127.6 163.4 L 124.6 160.6 L 121.2 158.1 L 122.1 156.5 L 126.1 158.1 L 130.1 159.6 L 133.8 161.4 L 137.3 163.4 L 140.6 165.7 L 143.6 168.1 L 146.4 170.6 L 149.0 173.4 L 151.4 176.4 L 153.4 179.5 L 153.7 184.1 L 150.7 187.5 L 146.1 187.7 L 142.6 184.7 L 141.6 182.0 Z M 170.0 78.0 L 173.0 80.0 L 170.0 81.8 L 170.0 181.0 L 158.0 187.0 L 158.0 76.0 Z M 70.2 131.7 L 70.2 148.7 L 94.0 148.7 L 94.0 131.7 Z M 106.0 131.7 L 106.0 148.7 L 129.7 148.7 L 129.7 131.7 Z M 136.6302930831909 94.73714933395385 L 145.4 102.4 L 145.6 105.5 L 141.6248656272888 103.75335006713867 L 140.1 104.3 L 131.8 106.9 L 123.3 109.2 L 114.8 111.4 L 106.1 113.2 L 97.3 114.8 L 88.5 116.2 L 79.5 117.3 L 70.4 118.0 L 61.2 118.4 L 51.9 118.3 L 51.7 116.6 L 60.7 114.6 L 69.6 112.7 L 78.4 110.8 L 87.0 108.7 L 95.5 106.5 L 103.9 104.2 L 112.1 101.7 L 120.2 99.0 L 128.2 96.1 L 136.0 93.0 Z M 123.46687002182007 77.58657722473144 L 131.5 84.8 L 131.6 88.0 L 127.861044216156 86.39759035110474 L 127.4 86.6 L 120.6 89.1 L 113.6 91.4 L 106.6 93.4 L 99.5 95.3 L 92.2 96.8 L 84.9 98.1 L 77.6 99.2 L 70.1 99.9 L 62.5 100.3 L 54.9 100.2 L 54.7 98.4 L 62.0 96.5 L 69.2 94.6 L 76.3 92.7 L 83.3 90.7 L 90.1 88.6 L 96.8 86.3 L 103.5 83.9 L 110.0 81.3 L 116.3 78.5 L 121.70615768432617 76.01145124435425 L 121.7 76.0 L 121.71051750183105 76.0094443321228 L 122.6 75.6 Z M 172.0 71.1 L 170.3 69.2 L 169.454816532135 68.39707565307617 L 166.4 69.0 L 158.9 70.3 L 151.6 71.3 L 144.6 72.2 L 137.7 73.0 L 131.0 73.7 L 124.5 74.4 L 118.2 75.0 L 112.1 75.6 L 110.32428865432739 75.75048398971558 L 108.3 79.0 L 106.2 76.1 L 103.7 64.2 L 105.7 64.1 L 111.6 64.2 L 117.7 64.3 L 122.11278896331787 64.3700442314148 L 123.0 62.7 L 124.8 59.7 L 126.5 56.7 L 128.3 53.7 L 130.0 50.8 L 131.7 48.0 L 133.3 45.1 L 136.00655736923218 40.36352462768555 L 135.9 40.3 L 137.0 38.8 L 146.3 46.5 L 147.5 49.8 L 143.43022050857545 49.51932554244995 L 141.7 51.4 L 139.3 53.8 L 134.3 58.6 L 131.7 61.0 L 129.1 63.3 L 127.76086959838867 64.4 L 130.5 64.4 L 137.2 64.5 L 144.1 64.6 L 151.3 64.7 L 158.6 64.9 L 165.98023948669433 65.19520959854125 L 163.7 63.2 L 161.0 61.0 L 158.1 58.8 L 155.0 56.4 L 151.5 54.2 L 152.2 52.6 L 156.2 53.9 L 160.0 55.0 L 163.6 56.2 L 167.0 57.4 L 170.2 58.8 L 173.2 60.1 L 176.0 61.6 L 178.6 63.1 L 181.0 64.6 L 183.2 66.3 L 184.8 70.6 L 183.0 74.8 L 178.7 76.4 L 174.5 74.6 L 173.4 72.9 Z M 159.5 40.3 L 156.2 38.2 L 152.6 36.1 L 151.5123595237732 35.55617980957031 L 142.2 36.5 L 127.9 37.7 L 114.0 38.8 L 100.6 39.7 L 87.6 40.5 L 75.0 41.3 L 62.9 42.0 L 55.406428527832034 42.44833335876465 L 60.3 46.5 L 61.5 49.8 L 57.43022050857544 49.51932554244995 L 55.7 51.4 L 53.3 53.8 L 48.3 58.6 L 45.7 61.0 L 43.1 63.3 L 41.76086959838867 64.4 L 42.5 64.4 L 49.5 64.5 L 56.7 64.6 L 64.2 64.7 L 71.8 64.9 L 79.8 65.2 L 80.0028902053833 65.21502885818481 L 77.7 63.2 L 75.0 61.0 L 72.1 58.8 L 69.0 56.4 L 65.5 54.2 L 66.2 52.6 L 70.2 53.9 L 74.0 55.0 L 77.6 56.2 L 81.0 57.4 L 84.2 58.8 L 87.2 60.1 L 90.0 61.6 L 92.6 63.1 L 95.0 64.6 L 97.2 66.3 L 98.8 70.6 L 97.0 74.8 L 92.7 76.4 L 88.5 74.6 L 87.4 72.9 L 86.0 71.1 L 84.3 69.2 L 83.41538457870483 68.35961542129516 L 80.0 69.0 L 72.1 70.3 L 64.5 71.3 L 57.1 72.2 L 49.9 73.0 L 42.9 73.7 L 36.2 74.4 L 29.6 75.0 L 23.3 75.6 L 21.260916328430177 75.76713800430298 L 19.3 79.0 L 17.2 76.1 L 14.7 64.2 L 16.7 64.1 L 22.8 64.2 L 29.2 64.3 L 35.7 64.4 L 36.096875 64.4 L 37.0 62.7 L 38.8 59.7 L 40.5 56.7 L 42.3 53.7 L 44.0 50.8 L 45.7 48.0 L 47.3 45.1 L 48.59230766296387 42.8384614944458 L 39.9 43.3 L 33.21113204956055 43.671603775024415 L 31.2 46.9 L 29.1 43.9 L 26.8 32.0 L 28.8 31.9 L 39.6 31.9 L 50.9 32.0 L 64.41428575515747 32.0 L 66.7 30.4 L 70.5 27.7 L 74.1 25.2 L 77.5 22.7 L 80.8 20.4 L 83.8 18.1 L 86.7 16.0 L 89.3 13.9 L 90.97511405944825 12.49290418624878 L 90.9 12.4 L 90.98051357269287 12.488368606567382 L 91.8 11.8 L 95.81999998092651 17.8 L 99.1 21.4 L 99.2 24.9 L 95.49535465240479 23.350784683227538 L 95.4 23.4 L 92.2 25.0 L 88.8 26.6 L 85.2 28.2 L 81.5 29.8 L 77.5 31.4 L 76.01764707565307 32.0 L 87.3 32.0 L 100.4 32.1 L 113.8 32.2 L 127.7 32.4 L 142.1 32.7 L 145.938365650177 32.829674530029294 L 144.2 32.0 L 139.6 29.8 L 134.6 27.7 L 129.3 25.4 L 123.7 23.0 L 124.1 21.2 L 130.2 21.8 L 136.0 22.7 L 141.5 23.7 L 146.7 24.9 L 151.6 26.2 L 156.2 27.7 L 160.5 29.2 L 164.6 30.8 L 168.3 32.6 L 171.8 34.5 L 174.3 38.3 L 173.4 42.8 L 169.6 45.2 L 165.1 44.4 L 162.5 42.3 Z " />
</g>
</svg>
