<svg xmlns="http://www.w3.org/2000/svg" xmlns:xlink="http://www.w3.org/1999/xlink" version="1.1" baseProfile="full" viewBox="0 0 200 200" width="200" height="200">
<g fill="black">
<path d="M 163.6 179.2 L 156.4 174.9 L 150.1 169.8 L 144.5 163.8 L 142.85020532608033 161.4329031944275 L 141.1 165.1 L 136.0 172.7 L 130.1 179.0 L 123.4 183.8 L 116.0 187.1 L 108.0 188.8 L 107.5 187.1 L 114.4 183.6 L 120.3 179.4 L 125.4 174.3 L 129.8 168.3 L 133.5 161.3 L 136.6 153.1 L 136.98637914657593 151.60278091430663 L 136.1 149.9 L 133.2 141.9 L 131.3 133.3 L 130.4 124.1 L 132.2 123.8 L 135.3 132.2 L 138.7 139.8 L 139.44044389724732 141.10551958084108 L 140.7 133.4 L 141.7 121.7 L 141.97209300994874 110.0 L 128.3 110.0 L 117.3 115.5 L 117.3 64.5 L 128.3 70.0 L 142.0 70.0 L 142.0 50.0 L 113.2 50.0 L 113.2 46.0 L 142.0 46.0 L 142.0 13.0 L 154.0 15.0 L 157.0 17.0 L 154.0 18.8 L 154.0 46.0 L 161.4 46.0 L 171.4 36.0 L 183.4 46.0 L 183.4 50.0 L 154.0 50.0 L 154.0 70.0 L 166.6 70.0 L 172.6 65.0 L 183.6 74.0 L 178.6 78.0 L 178.6 116.0 L 166.6 122.0 L 166.6 110.0 L 153.83999996185304 110.0 L 153.0 122.6 L 151.3 135.0 L 148.7 146.2 L 146.64084510803224 152.31690139770507 L 146.7 152.4 L 151.4 157.5 L 156.6 161.9 L 162.3 165.5 L 168.6 168.5 L 175.4 170.8 L 182.9 172.5 L 191.9 174.4 L 180.2 185.4 L 171.5 182.7 Z M 118.3 19.2 L 120.7 21.8 L 117.2489803314209 22.929424571990968 L 115.2 30.2 L 112.1 40.9 L 108.8 51.5 L 105.3 61.8 L 101.7 71.8 L 100.6474048614502 74.44498271942139 L 104.8 75.2 L 107.5 77.2 L 104.8 78.92340421676636 L 104.8 183.3 L 93.8 188.8 L 93.8 91.4162790298462 L 89.6 100.5 L 85.1 109.5 L 80.3 118.1 L 78.7 117.4 L 81.6 108.0 L 84.6 98.5 L 87.7 88.9 L 90.7 79.1 L 93.6 69.2 L 96.4 59.0 L 99.1 48.7 L 101.7 38.1 L 104.2 27.4 L 106.6 16.4 L 106.61358880996704 16.403252029418944 L 107.0 14.6 Z M 68.5 158.3 L 68.0 154.3 L 67.3 150.3 L 67.17272729873658 149.80363636016847 L 65.1 151.6 L 60.4 155.1 L 55.4 158.5 L 50.3 161.6 L 45.1 164.7 L 39.8 167.6 L 34.3 170.4 L 28.8 173.1 L 23.1 175.7 L 21.228851509094238 176.52067918777465 L 20.3 180.4 L 17.4 178.2 L 11.4 167.7 L 13.3 167.0 L 24.7 163.2 L 30.4 161.2 L 35.9 159.2 L 40.8 157.23999996185302 L 40.8 112.0 L 28.7 112.0 L 28.7 124.0 L 16.7 130.0 L 16.7 47.0 L 28.7 53.0 L 40.8 53.0 L 40.8 13.0 L 52.8 15.0 L 55.8 17.0 L 52.8 18.8 L 52.8 53.0 L 64.8 53.0 L 70.8 48.0 L 81.8 57.0 L 76.8 61.0 L 76.8 112.0 L 64.8 118.0 L 64.8 112.0 L 52.8 112.0 L 52.8 152.4 L 57.8 150.4 L 63.2 148.3 L 66.4673035621643 147.05248403549194 L 66.3 146.4 L 65.1 142.4 L 63.7 138.5 L 62.1 134.5 L 60.4 130.4 L 58.3 126.3 L 59.7 125.2 L 63.1 128.5 L 66.3 131.9 L 69.2 135.5 L 71.7 139.4 L 73.9 143.4 L 75.9 147.6 L 77.5 151.9 L 78.9 156.3 L 80.0 160.9 L 80.8 165.6 L 79.3 169.9 L 75.2 171.9 L 70.9 170.4 L 68.8 166.4 L 68.8 162.3 Z M 28.7 57.0 L 28.7 108.0 L 40.8 108.0 L 40.8 57.0 Z M 52.8 57.0 L 52.8 108.0 L 64.8 108.0 L 64.8 57.0 Z M 128.3 74.0 L 128.3 106.0 L 142.0 106.0 L 142.0 74.0 Z M 154.0 74.0 L 154.0 106.0 L 166.6 106.0 L 166.6 74.0 Z " />
</g>
</svg>
