<svg xmlns="http://www.w3.org/2000/svg" xmlns:xlink="http://www.w3.org/1999/xlink" version="1.1" baseProfile="full" viewBox="0 0 200 200" width="200" height="200">
<g fill="black">
<path d="M 105.5 176.0 L 125.5 176.0 L 126.7 175.9 L 127.6 175.7 L 128.5 175.4 L 128.9 175.0 L 129.2 174.1 L 129.4 173.2 L 129.5 172.0 L 129.5 115.0 L 111.5 115.0 L 111.5 118.0 L 99.5 124.0 L 99.5 61.0 L 111.5 67.0 L 159.5 67.0 L 165.5 62.0 L 176.5 71.0 L 171.5 75.0 L 171.5 117.0 L 159.5 123.0 L 159.5 115.0 L 141.5 115.0 L 141.5 172.0 L 141.3 174.5 L 140.9 177.0 L 140.1 179.4 L 138.8 181.7 L 137.2 183.7 L 135.2 185.3 L 132.9 186.6 L 130.5 187.4 L 128.0 187.8 L 125.5 188.0 L 125.5 182.0 L 105.5 179.0 Z M 119.4 137.1 L 121.4 140.1 L 117.63547716140747 140.6943983078003 L 116.7 142.6 L 113.9 147.8 L 110.7 152.9 L 107.4 157.9 L 103.9 162.6 L 100.1 167.1 L 96.1 171.4 L 91.8 175.5 L 87.2 179.2 L 82.3 182.6 L 81.1 181.3 L 84.5 176.6 L 87.8 171.9 L 91.0 167.2 L 94.0 162.5 L 96.9 157.8 L 99.5 153.0 L 102.0 148.0 L 104.3 143.0 L 106.4 137.9 L 107.93742599487305 133.6113904953003 L 107.9 133.6 L 108.8 131.3 Z M 71.5 158.3 L 71.0 154.4 L 70.2 150.4 L 70.02727270126343 149.70909090042113 L 67.7 151.6 L 62.7 155.2 L 57.5 158.5 L 52.2 161.7 L 46.8 164.7 L 41.2 167.7 L 35.5 170.5 L 29.7 173.2 L 23.9 175.8 L 21.693907260894775 176.71920528411866 L 20.8 180.4 L 17.9 178.3 L 12.0 167.6 L 13.9 167.0 L 19.9 165.1 L 25.8 163.2 L 31.7 161.2 L 37.5 159.1 L 42.7 157.1842104911804 L 42.7 112.0 L 29.6 112.0 L 29.6 124.0 L 17.6 130.0 L 17.6 47.0 L 29.6 53.0 L 42.7 53.0 L 42.7 13.0 L 54.7 15.0 L 57.7 17.0 L 54.7 18.8 L 54.7 53.0 L 67.7 53.0 L 73.7 48.0 L 84.7 57.0 L 79.7 61.0 L 79.7 112.0 L 67.7 118.0 L 67.7 112.0 L 54.7 112.0 L 54.7 152.56071424484253 L 60.2 150.4 L 65.9 148.2 L 69.34758062362671 146.99032258987427 L 69.2 146.4 L 68.0 142.5 L 66.5 138.5 L 64.8 134.5 L 62.9 130.4 L 60.7 126.3 L 62.1 125.2 L 65.6 128.4 L 68.9 131.8 L 71.8 135.5 L 74.5 139.3 L 76.8 143.3 L 78.8 147.5 L 80.5 151.8 L 81.9 156.3 L 83.0 160.9 L 83.8 165.5 L 82.3 169.9 L 78.3 171.9 L 74.0 170.4 L 71.9 166.4 L 71.8 162.3 Z M 172.0 166.9 L 169.7 162.5 L 167.3 158.2 L 164.7 154.0 L 162.0 149.8 L 159.3 145.7 L 153.5 137.5 L 150.6 133.3 L 151.8 132.0 L 156.2 134.8 L 160.3 138.0 L 164.2 141.4 L 168.0 145.1 L 171.5 148.9 L 174.9 152.9 L 178.1 157.1 L 181.2 161.4 L 184.2 165.9 L 187.0 170.6 L 187.2 175.1 L 184.3 178.6 L 179.7 178.9 L 176.2 176.0 L 174.2 171.4 Z M 111.5 71.0 L 111.5 111.0 L 159.5 111.0 L 159.5 71.0 Z M 29.6 57.0 L 29.6 108.0 L 42.7 108.0 L 42.7 57.0 Z M 54.7 57.0 L 54.7 108.0 L 67.7 108.0 L 67.7 57.0 Z M 82.3 43.2 L 129.5 43.2 L 129.5 13.3 L 141.5 15.3 L 144.5 17.3 L 141.5 19.1 L 141.5 43.2 L 166.6 43.2 L 176.6 33.2 L 188.6 43.2 L 188.6 47.2 L 82.3 47.2 Z " />
</g>
</svg>
