<svg xmlns="http://www.w3.org/2000/svg" xmlns:xlink="http://www.w3.org/1999/xlink" version="1.1" baseProfile="full" viewBox="0 0 200 200" width="200" height="200">
<g fill="black">
<path d="M 167.4 177.9 L 164.8 174.8 L 161.7 171.8 L 158.89720849990846 169.24451360702514 L 149.9 170.9 L 137.1 173.0 L 124.0 174.7 L 110.7 176.3 L 97.1 177.8 L 83.2 179.1 L 69.0 180.4 L 54.6 181.5 L 39.9 182.5 L 29.090130424499513 183.15294513702392 L 27.1 186.4 L 25.0 183.4 L 22.5 171.5 L 24.5 171.4 L 39.4 171.1 L 54.1 170.8 L 68.4 170.3 L 82.6 169.9 L 96.5 169.3 L 97.0 169.28161764144897 L 97.0 147.3 L 54.5 147.3 L 54.5 150.3 L 42.5 156.3 L 42.5 113.9 L 54.5 119.9 L 97.0 119.9 L 97.0 106.3 L 109.0 108.3 L 112.0 110.3 L 109.0 112.1 L 109.0 119.9 L 151.4 119.9 L 157.4 114.9 L 168.4 123.9 L 163.4 127.9 L 163.4 147.3 L 151.4 153.3 L 151.4 147.3 L 109.0 147.3 L 109.0 168.8404411315918 L 110.1 168.8 L 123.5 168.2 L 136.6 167.6 L 149.6 167.2 L 156.0844931602478 166.99576396942138 L 154.4 165.7 L 150.2 162.7 L 145.6 159.7 L 140.6 156.5 L 135.2 153.3 L 135.9 151.6 L 142.1 153.1 L 147.9 154.8 L 153.3 156.9 L 158.4 159.2 L 163.1 161.8 L 167.5 164.5 L 171.5 167.4 L 175.2 170.6 L 178.6 173.9 L 181.5 177.5 L 182.4 182.0 L 179.8 185.8 L 175.3 186.6 L 171.5 184.1 L 169.7 181.0 Z M 54.5 123.9 L 54.5 143.3 L 97.0 143.3 L 97.0 123.9 Z M 109.0 123.9 L 109.0 143.3 L 151.4 143.3 L 151.4 123.9 Z M 28.6 112.9 L 16.6 118.9 L 16.6 16.5 L 28.6 22.5 L 81.4 22.5 L 91.4 12.5 L 103.4 22.5 L 103.4 26.5 L 65.4 26.5 L 65.4 45.5 L 84.8 45.5 L 90.8 40.5 L 101.8 49.5 L 96.8 53.5 L 96.8 79.8 L 84.8 85.8 L 84.8 75.8 L 65.4 75.8 L 65.4 96.9 L 88.01818180084229 96.9 L 96.2 87.9 L 106.2 96.9 L 106.2 100.9 L 28.6 100.9 Z M 109.5 81.9 L 115.2 80.8 L 120.1 79.87068967819214 L 120.1 28.8 L 132.1 30.8 L 135.1 32.8 L 132.1 34.6 L 132.1 77.4758620262146 L 132.5 77.4 L 138.3 76.2 L 144.1 75.1 L 150.0 74.0 L 155.8 72.9 L 161.4 72.06000003814697 L 161.4 11.9 L 173.4 13.9 L 176.4 15.9 L 173.4 17.7 L 173.4 107.0 L 161.4 113.0 L 161.4 76.31090908050537 L 157.3 78.1 L 151.7 80.3 L 146.1 82.4 L 140.5 84.4 L 129.3 88.2 L 123.6 90.1 L 118.0 91.8 L 116.34901723861694 92.33067302703857 L 115.0 96.0 L 112.4 93.6 L 107.5 82.4 Z M 28.6 75.8 L 28.6 96.9 L 53.4 96.9 L 53.4 75.8 Z M 28.6 71.8 L 84.8 71.8 L 84.8 49.5 L 28.6 49.5 Z M 28.6 26.5 L 28.6 45.5 L 53.4 45.5 L 53.4 26.5 Z " />
</g>
</svg>
