<svg xmlns="http://www.w3.org/2000/svg" xmlns:xlink="http://www.w3.org/1999/xlink" version="1.1" baseProfile="full" viewBox="0 0 200 200" width="200" height="200">
<g fill="black">
<path d="M 169.7 117.2 L 169.7 121.2 L 128.721875 121.2 L 126.3 127.4 L 123.2 133.5 L 119.8 139.4 L 117.99205293655396 141.9960265159607 L 119.6 142.8 L 156.6 142.8 L 162.6 137.8 L 173.6 146.8 L 168.6 150.8 L 168.6 179.6 L 156.6 185.6 L 156.6 175.6 L 119.6 175.6 L 119.6 182.6 L 107.6 188.6 L 107.6 154.3625 L 106.7 155.3 L 101.4 160.0 L 95.7 164.4 L 89.5 168.3 L 82.8 171.8 L 81.8 170.3 L 87.2 165.2 L 92.2 160.3 L 96.8 155.3 L 101.0 150.2 L 104.8 145.1 L 107.6 140.60303030014038 L 107.6 136.8 L 109.2956521987915 137.64782609939576 L 111.1 134.4 L 113.6 128.9 L 115.6 123.3 L 116.16341466903687 121.2 L 92.9 121.2 L 92.9 117.2 L 151.51818180084229 117.2 L 159.7 108.2 Z M 69.2 158.3 L 68.7 154.3 L 68.0 150.3 L 67.89854230880738 149.86034984588622 L 66.0 151.5 L 61.3 155.1 L 56.5 158.5 L 51.5 161.6 L 46.4 164.7 L 41.2 167.6 L 35.8 170.4 L 30.4 173.1 L 24.8 175.7 L 23.024663829803465 176.49256076812745 L 22.1 180.3 L 19.2 178.2 L 13.1 167.7 L 15.0 167.0 L 20.7 165.1 L 26.2 163.2 L 31.8 161.2 L 37.3 159.2 L 42.7 157.0 L 43.0 156.88333330154418 L 43.0 112.0 L 29.8 112.0 L 29.8 124.0 L 18.8 129.5 L 18.8 47.5 L 29.8 53.0 L 43.0 53.0 L 43.0 13.0 L 53.0 15.0 L 55.5 17.0 L 53.0 18.66666669845581 L 53.0 53.0 L 66.1 53.0 L 71.6 48.0 L 82.1 57.0 L 77.1 60.5 L 77.1 112.0 L 66.1 117.5 L 66.1 112.0 L 53.0 112.0 L 53.0 152.86603775024415 L 53.4 152.7 L 58.7 150.4 L 67.25529413223266 147.07294120788575 L 67.1 146.4 L 65.9 142.4 L 64.6 138.5 L 63.0 134.5 L 61.3 130.4 L 59.3 126.3 L 60.7 125.2 L 64.0 128.5 L 67.2 131.9 L 70.0 135.6 L 72.5 139.4 L 74.7 143.4 L 76.6 147.6 L 78.3 151.9 L 79.6 156.3 L 80.7 160.9 L 81.5 165.6 L 79.9 169.9 L 75.9 171.9 L 71.6 170.4 L 69.5 166.3 L 69.4 162.3 Z M 119.6 146.8 L 119.6 171.6 L 156.6 171.6 L 156.6 146.8 Z M 78.3 121.7 L 77.5 117.2 L 80.0 113.4 L 80.5 113.5 L 81.4 112.9 L 82.5 111.5 L 83.7 109.4 L 84.8 106.6 L 85.9 103.2 L 86.8 99.2 L 87.7 94.6 L 88.6 89.4 L 89.1 83.7 L 90.9 83.7 L 91.5 89.4 L 92.2 94.7 L 92.29183673858643 96.2 L 126.5 96.2 L 126.5 79.5 L 105.2 79.5 L 93.2 85.5 L 93.2 45.0 L 105.2 51.0 L 126.5 51.0 L 126.5 34.4 L 82.0 34.4 L 82.0 30.4 L 126.5 30.4 L 126.5 12.0 L 138.5 14.0 L 141.5 16.0 L 138.5 17.8 L 138.5 30.4 L 160.9 30.4 L 170.9 20.4 L 182.9 30.4 L 182.9 34.4 L 138.5 34.4 L 138.5 51.0 L 159.0 51.0 L 165.0 46.0 L 176.0 55.0 L 171.0 59.0 L 171.0 81.5 L 159.0 87.5 L 159.0 79.5 L 138.5 79.5 L 138.5 96.2 L 173.2 96.2 L 179.2 91.2 L 190.2 100.2 L 185.2 103.2 L 182.55421686172485 104.30240964889526 L 182.5 104.4 L 180.3 108.0 L 177.7 111.8 L 176.2 113.7 L 174.5 115.7 L 173.2 117.9 L 171.6 117.1 L 172.5 114.8 L 172.8 112.3 L 173.1 110.0 L 173.25864658355712 108.17556390762329 L 173.2 108.2 L 173.2 100.2 L 92.51333332061768 100.2 L 92.6 104.1 L 92.5 108.1 L 92.1 111.7 L 91.5 115.1 L 90.4 118.1 L 88.9 121.0 L 86.6 123.5 L 82.1 124.3 Z M 29.8 57.0 L 29.8 108.0 L 43.0 108.0 L 43.0 57.0 Z M 53.0 57.0 L 53.0 108.0 L 66.1 108.0 L 66.1 57.0 Z M 105.2 55.0 L 105.2 75.5 L 126.5 75.5 L 126.5 55.0 Z M 138.5 55.0 L 138.5 75.5 L 159.0 75.5 L 159.0 55.0 Z " />
</g>
</svg>
