<svg xmlns="http://www.w3.org/2000/svg" xmlns:xlink="http://www.w3.org/1999/xlink" version="1.1" baseProfile="full" viewBox="0 0 200 200" width="200" height="200">
<g fill="black">
<path d="M 164.0 184.3 L 158.5 181.4 L 153.4 178.2 L 148.7 174.5 L 144.4 170.5 L 140.5 166.1 L 137.1 161.3 L 134.3 156.1 L 132.4625 151.2 L 131.8 151.2 L 128.9 157.0 L 123.9 164.3 L 118.0 170.7 L 111.1 176.2 L 103.5 180.7 L 95.1 184.3 L 85.9 186.9 L 75.9 188.4 L 75.5 186.6 L 84.7 183.2 L 92.9 179.4 L 100.2 175.1 L 106.5 170.2 L 111.9 164.8 L 116.4 158.8 L 120.1 152.2 L 120.5027777671814 151.2 L 80.7 151.2 L 80.7 147.2 L 122.11388893127442 147.2 L 123.0 145.0 L 125.1 137.1 L 126.4 128.5 L 126.43271026611328 128.50467290878296 L 126.7 126.5 L 138.3 130.2 L 141.0 132.5 L 137.43385457992554 134.01891374588013 L 136.1 139.9 L 133.55730333328248 147.2 L 163.9 147.2 L 173.9 137.2 L 185.9 147.2 L 185.9 151.2 L 135.32380952835084 151.2 L 137.8 153.8 L 141.7 157.6 L 145.7 161.1 L 149.8 164.2 L 154.1 167.0 L 158.6 169.4 L 163.4 171.5 L 168.3 173.3 L 173.6 174.7 L 179.1 175.9 L 187.8 177.9 L 176.1 188.7 L 169.9 186.7 Z M 68.2 158.3 L 67.7 154.3 L 66.9 150.4 L 66.76566562652587 149.8029582977295 L 64.6 151.6 L 59.7 155.1 L 54.6 158.5 L 49.4 161.7 L 44.0 164.7 L 38.6 167.6 L 33.0 170.5 L 27.3 173.2 L 21.6 175.8 L 19.501160621643066 176.68933868408203 L 18.6 180.4 L 15.7 178.3 L 9.7 167.6 L 11.6 167.0 L 17.5 165.1 L 23.3 163.2 L 29.1 161.2 L 39.9 157.22105264663696 L 39.9 112.0 L 27.2 112.0 L 27.2 124.0 L 15.2 130.0 L 15.2 47.0 L 27.2 53.0 L 39.9 53.0 L 39.9 13.0 L 51.9 15.0 L 54.9 17.0 L 51.9 18.8 L 51.9 53.0 L 64.5 53.0 L 70.5 48.0 L 81.5 57.0 L 76.5 61.0 L 76.5 112.0 L 64.5 118.0 L 64.5 112.0 L 51.9 112.0 L 51.9 152.48214282989503 L 57.2 150.4 L 62.7 148.3 L 66.13746395111085 147.0109510421753 L 66.0 146.4 L 64.7 142.5 L 63.3 138.5 L 61.6 134.5 L 59.8 130.4 L 57.7 126.3 L 59.1 125.2 L 62.5 128.4 L 65.8 131.8 L 68.7 135.5 L 71.3 139.4 L 73.6 143.4 L 75.5 147.5 L 77.2 151.8 L 78.6 156.3 L 79.7 160.9 L 80.5 165.5 L 79.0 169.9 L 75.0 171.9 L 70.6 170.4 L 68.6 166.4 L 68.5 162.3 Z M 106.4 78.7 L 160.2 78.7 L 166.2 73.7 L 177.2 82.7 L 172.2 86.7 L 172.2 128.1 L 160.2 134.1 L 160.2 124.1 L 106.4 124.1 L 106.4 131.1 L 94.4 137.1 L 94.4 72.7 Z M 106.4 102.8 L 106.4 120.1 L 160.2 120.1 L 160.2 102.8 Z M 27.2 57.0 L 27.2 108.0 L 39.9 108.0 L 39.9 57.0 Z M 51.9 57.0 L 51.9 108.0 L 64.5 108.0 L 64.5 57.0 Z M 106.4 82.7 L 106.4 98.8 L 160.2 98.8 L 160.2 82.7 Z M 156.9 37.1 L 159.9 39.1 L 156.9 40.9 L 156.9 53.3 L 162.3 53.3 L 172.3 43.3 L 184.3 53.3 L 184.3 57.3 L 156.9 57.3 L 156.9 67.9 L 144.9 73.9 L 144.9 57.3 L 121.8 57.3 L 121.8 67.9 L 109.8 73.9 L 109.8 57.3 L 84.1 57.3 L 84.1 53.3 L 109.8 53.3 L 109.8 35.1 L 121.8 37.1 L 124.8 39.1 L 121.8 40.9 L 121.8 53.3 L 144.9 53.3 L 144.9 35.1 Z M 83.0 48.8 L 81.5 44.5 L 83.5 40.3 L 84.4 39.9 L 85.4 39.0 L 86.6 37.6 L 87.8 35.6 L 88.9 33.2 L 89.9 30.2 L 90.9 26.8 L 91.8 23.0 L 92.6 18.7 L 93.1 14.0 L 94.9 14.0 L 95.3 18.7 L 95.70444440841675 21.3 L 172.0 21.3 L 178.0 16.3 L 189.0 25.3 L 184.0 28.3 L 180.63013696670532 29.704109573364256 L 179.7 30.9 L 178.2 32.7 L 176.7 34.7 L 175.0 36.8 L 173.1 38.9 L 171.2 41.1 L 169.0 43.3 L 167.2 45.9 L 165.7 45.0 L 167.0 42.1 L 167.8 39.2 L 168.6 36.4 L 169.4 33.8 L 170.1 31.3 L 170.8 28.9 L 171.3 26.7 L 171.65 25.3 L 96.15365858078003 25.3 L 96.3 27.3 L 96.5 31.2 L 96.4 34.7 L 96.0 38.1 L 95.4 41.2 L 94.5 44.1 L 93.2 46.8 L 91.5 49.3 L 87.1 50.7 Z " />
</g>
</svg>
