<svg xmlns="http://www.w3.org/2000/svg" xmlns:xlink="http://www.w3.org/1999/xlink" version="1.1" baseProfile="full" viewBox="0 0 200 200" width="200" height="200">
<g fill="black">
<path d="M 157.1 132.9 L 148.3 129.0 L 140.2 124.6 L 135.80875844955443 121.71260824203492 L 133.0 123.5 L 123.5 128.5 L 113.4 132.9 L 102.6 136.8 L 101.18659219741821 137.19329605102538 L 109.0 141.1 L 156.6 141.1 L 162.6 136.1 L 173.6 145.1 L 168.6 149.1 L 168.6 179.7 L 156.6 185.7 L 156.6 175.7 L 109.0 175.7 L 109.0 182.7 L 97.0 188.7 L 97.0 138.35826082229613 L 91.1 140.0 L 78.9 142.5 L 78.4 140.8 L 89.9 136.4 L 100.7 131.8 L 110.7 126.9 L 120.0 121.8 L 128.4666877746582 116.32155494689941 L 126.4 114.7 L 120.8 109.1 L 116.2 103.1 L 112.6 96.7 L 112.00200290679932 95.09736766815186 L 112.0 95.1 L 108.3 99.5 L 104.2 103.7 L 99.9 107.6 L 95.2 111.4 L 90.1 114.8 L 84.7 117.8 L 83.6 116.4 L 87.7 111.9 L 91.5 107.4 L 95.2 103.1 L 98.5 98.7 L 101.6 94.3 L 104.4 89.8 L 106.9 85.3 L 109.1 80.7 L 111.1 76.1 L 112.7 71.4 L 112.74535942077637 71.4174147605896 L 113.3 70.0 L 123.9 75.7 L 126.0 78.7 L 122.0997784614563 79.37245197296143 L 121.4 80.8 L 119.16000003814698 84.8 L 159.1 84.8 L 159.3891191482544 84.55906734466552 L 160.1 83.5 L 160.4125 83.70625 L 165.1 79.8 L 176.1 88.8 L 171.1 91.8 L 167.70377359390258 93.21509437561035 L 164.1 97.9 L 157.4 105.1 L 149.9 111.8 L 144.91280527114867 115.55578861236572 L 145.0 115.6 L 152.7 118.9 L 161.2 121.8 L 170.4 124.5 L 180.3 126.8 L 188.9 128.9 L 177.2 139.7 L 166.8 136.5 Z M 70.2 158.3 L 69.7 154.3 L 68.9 150.4 L 68.76566562652587 149.8029582977295 L 66.6 151.6 L 61.7 155.1 L 56.6 158.5 L 51.4 161.7 L 46.0 164.7 L 40.6 167.6 L 35.0 170.5 L 29.3 173.2 L 23.6 175.8 L 21.501160621643066 176.68933868408203 L 20.6 180.4 L 17.7 178.3 L 11.7 167.6 L 13.6 167.0 L 19.5 165.1 L 25.3 163.2 L 31.1 161.2 L 41.9 157.22105264663696 L 41.9 112.0 L 29.2 112.0 L 29.2 124.0 L 17.2 130.0 L 17.2 47.0 L 29.2 53.0 L 41.9 53.0 L 41.9 13.0 L 53.9 15.0 L 56.9 17.0 L 53.9 18.8 L 53.9 53.0 L 66.5 53.0 L 72.5 48.0 L 83.5 57.0 L 78.5 61.0 L 78.5 112.0 L 66.5 118.0 L 66.5 112.0 L 53.9 112.0 L 53.9 152.48214282989503 L 59.2 150.4 L 64.7 148.3 L 68.13746395111085 147.0109510421753 L 68.0 146.4 L 66.7 142.5 L 65.3 138.5 L 63.6 134.5 L 61.8 130.4 L 59.7 126.3 L 61.1 125.2 L 64.5 128.4 L 67.8 131.8 L 70.7 135.5 L 73.3 139.4 L 75.6 143.4 L 77.5 147.5 L 79.2 151.8 L 80.6 156.3 L 81.7 160.9 L 82.5 165.5 L 81.0 169.9 L 77.0 171.9 L 72.6 170.4 L 70.6 166.4 L 70.5 162.3 Z M 109.0 145.1 L 109.0 171.7 L 156.6 171.7 L 156.6 145.1 Z M 116.62127656936646 88.8 L 115.5 90.5 L 114.18158168792725 92.23277835845947 L 116.1 94.5 L 120.7 99.3 L 125.9 103.9 L 131.6 108.1 L 135.85685749053954 110.7351975440979 L 136.3 110.4 L 143.3 104.2 L 149.6 97.7 L 155.2 90.8 L 156.54246578216552 88.8 Z M 29.2 57.0 L 29.2 108.0 L 41.9 108.0 L 41.9 57.0 Z M 53.9 57.0 L 53.9 108.0 L 66.5 108.0 L 66.5 57.0 Z M 103.2 81.5 L 91.2 87.5 L 91.2 13.3 L 103.2 19.3 L 163.3 19.3 L 169.3 14.3 L 180.3 23.3 L 175.3 27.3 L 175.3 71.5 L 163.3 77.5 L 163.3 69.5 L 103.2 69.5 Z M 103.2 46.4 L 103.2 65.5 L 127.3 65.5 L 127.3 46.4 Z M 139.3 46.4 L 139.3 65.5 L 163.3 65.5 L 163.3 46.4 Z M 103.2 23.3 L 103.2 42.4 L 127.3 42.4 L 127.3 23.3 Z M 139.3 23.3 L 139.3 42.4 L 163.3 42.4 L 163.3 23.3 Z " />
</g>
</svg>
