<svg xmlns="http://www.w3.org/2000/svg" xmlns:xlink="http://www.w3.org/1999/xlink" version="1.1" baseProfile="full" viewBox="0 0 200 200" width="200" height="200">
<g fill="black">
<path d="M 75.0 50.0 L 73.1 47.1 L 71.0 44.1 L 68.6 41.1 L 66.0 38.2 L 63.0 35.2 L 59.8 32.2 L 56.4 29.2 L 55.64706974029541 28.60558137893677 L 52.5 34.6 L 48.1 42.2 L 43.5 49.6 L 38.8 56.7 L 33.9 63.4 L 28.8 69.8 L 27.348837184906007 71.47441864013672 L 38.4 77.0 L 68.7 77.0 L 74.7 72.0 L 85.7 81.0 L 80.7 85.0 L 80.7 127.0 L 68.7 133.0 L 68.7 125.0 L 38.4 125.0 L 38.4 145.0 L 68.21818180084229 145.0 L 76.4 136.0 L 86.4 145.0 L 86.4 149.0 L 38.4 149.0 L 38.4 168.0 L 65.3 168.0 L 75.3 158.0 L 87.3 168.0 L 87.3 172.0 L 38.4 172.0 L 38.4 183.0 L 26.4 189.0 L 26.4 72.5692307472229 L 23.6 75.8 L 18.1 81.4 L 12.3 86.6 L 11.0 85.3 L 15.2 79.0 L 19.3 72.5 L 23.5 66.0 L 27.6 59.2 L 31.6 52.2 L 35.5 44.9 L 39.2 37.5 L 42.9 29.7 L 46.4 21.7 L 49.5138180732727 14.404769039154052 L 49.5 14.4 L 50.4 12.2 L 60.8 18.3 L 62.8 21.3 L 59.063486385345456 21.815381145477296 L 56.996981906890866 25.998792743682863 L 62.5 28.2 L 66.6 30.3 L 70.5 32.7 L 74.1 35.2 L 77.5 37.9 L 80.6 40.8 L 83.5 43.8 L 86.1 47.1 L 88.5 50.5 L 88.8 55.1 L 85.9 58.6 L 81.4 59.0 L 77.8 56.1 L 76.5 53.0 Z M 168.1 174.9 L 167.6 171.8 L 166.8 168.7 L 166.54760150909425 167.83062734603882 L 163.2 168.9 L 155.9 171.0 L 148.7 172.9 L 134.1 176.3 L 126.9 177.8 L 119.6 179.4 L 102.0646255493164 182.80965614318848 L 100.4 186.3 L 98.0 183.6 L 94.3 172.0 L 96.3 171.7 L 103.5 171.0 L 118.1 169.4 L 125.4 168.7 L 131.0 168.0945945739746 L 131.0 131.3 L 111.7 131.3 L 111.7 143.3 L 99.7 149.3 L 99.7 81.2 L 111.7 87.2 L 131.0 87.2 L 131.0 57.9 L 143.0 59.9 L 146.0 61.9 L 143.0 63.7 L 143.0 87.2 L 163.3 87.2 L 169.3 82.2 L 180.3 91.2 L 175.3 95.2 L 175.3 133.3 L 163.3 139.3 L 163.3 131.3 L 143.0 131.3 L 143.0 166.8293333053589 L 147.6 166.4 L 155.0 165.7 L 162.5 165.2 L 165.69342727661132 165.0319249153137 L 164.7 162.3 L 163.3 159.0 L 161.8 155.7 L 160.0 152.2 L 157.9 148.8 L 159.2 147.6 L 162.3 150.4 L 165.4 153.1 L 168.1 155.9 L 170.6 158.9 L 172.9 162.0 L 174.9 165.3 L 176.7 168.6 L 178.2 172.1 L 179.5 175.6 L 180.5 179.3 L 179.3 183.7 L 175.4 186.1 L 171.0 184.9 L 168.6 181.0 L 168.5 178.0 Z M 111.7 91.2 L 111.7 127.3 L 131.0 127.3 L 131.0 91.2 Z M 143.0 91.2 L 143.0 127.3 L 163.3 127.3 L 163.3 91.2 Z M 38.4 102.0 L 38.4 121.0 L 68.7 121.0 L 68.7 102.0 Z M 38.4 81.0 L 38.4 98.0 L 68.7 98.0 L 68.7 81.0 Z M 168.8 69.4 L 163.9 64.5 L 159.1 59.3 L 154.6 53.5 L 150.3 47.4 L 146.2 40.8 L 142.4 33.7 L 139.20371227264405 26.85081205368042 L 134.7 34.9 L 129.8 42.8 L 124.5 50.2 L 119.0 57.1 L 113.2 63.5 L 107.0 69.3 L 100.6 74.5 L 93.8 79.0 L 86.8 82.8 L 85.8 81.3 L 91.5 76.0 L 97.1 70.4 L 102.4 64.6 L 107.5 58.4 L 112.3 51.9 L 116.9 44.9 L 121.2 37.6 L 125.3 29.8 L 129.1 21.6 L 132.32424240112306 13.808080768585205 L 132.3 13.8 L 133.2 11.6 L 143.7 17.6 L 145.7 20.6 L 142.00427560806276 21.109755039215088 L 141.34679794311523 22.4705810546875 L 142.6 24.2 L 147.4 30.6 L 152.1 36.7 L 156.9 42.3 L 161.7 47.5 L 166.5 52.2 L 171.4 56.4 L 176.3 60.2 L 181.3 63.5 L 186.3 66.4 L 190.6 69.0 L 179.5 77.7 L 174.0 73.8 Z M 75.6 59.0 L 75.6 63.0 L 37.8 63.0 L 37.8 59.0 L 57.418181800842284 59.0 L 65.6 50.0 Z " />
</g>
</svg>
