<svg xmlns="http://www.w3.org/2000/svg" xmlns:xlink="http://www.w3.org/1999/xlink" version="1.1" baseProfile="full" viewBox="0 0 200 200" width="200" height="200">
<g fill="black">
<path d="M 144.7 183.0 L 130.1 180.9 L 117.2 177.5 L 106.2 172.9 L 97.0 167.0 L 93.0555555343628 163.0 L 92.2 163.0 L 92.2 162.13239440917968 L 89.9 159.8 L 84.9 151.4 L 84.47963619232178 149.89639081954957 L 83.2 157.3 L 81.7 164.7 L 79.9 171.6 L 77.9 177.8 L 75.5 183.4 L 72.8 188.3 L 71.1 187.6 L 71.9 182.3 L 72.7 176.5 L 73.5 170.3 L 74.2 163.5 L 74.8 156.1 L 75.3 148.2 L 75.8 139.7 L 76.0 130.7 L 76.2 121.0 L 76.2 110.8 L 76.23028011322022 110.80075702667236 L 76.3 108.5 L 88.2 111.1 L 91.2 113.2 L 87.97675237655639 114.96962614059449 L 87.6 121.5 L 86.8 131.3 L 85.91956520080566 139.4 L 86.4 141.1 L 90.2 148.7 L 92.2 151.17058820724486 L 92.2 86.0 L 104.2 88.0 L 107.2 90.0 L 104.2 91.8 L 104.2 121.0 L 107.6777777671814 121.0 L 113.9 114.0 L 121.9 121.0 L 121.9 125.0 L 104.2 125.0 L 104.2 161.47804880142212 L 110.1 164.5 L 120.1 167.7 L 131.9 170.0 L 145.6 171.2 L 161.1 171.3 L 178.4 170.4 L 189.5 169.7 L 179.3 183.5 L 161.1 183.8 Z M 59.2 158.1 L 58.9 154.1 L 58.375175666809085 150.6011709213257 L 57.5 151.5 L 53.6 155.0 L 49.5 158.3 L 45.3 161.5 L 36.5 167.5 L 31.9 170.3 L 27.3 173.0 L 22.6 175.6 L 21.50542631149292 176.14728679656983 L 20.8 180.0 L 17.8 178.0 L 11.1 167.9 L 13.0 167.1 L 22.6 163.3 L 27.4 161.3 L 32.1 159.3 L 36.7 157.2 L 36.8 157.15319147109986 L 36.8 112.0 L 27.0 112.0 L 27.0 124.0 L 16.0 129.5 L 16.0 47.5 L 27.0 53.0 L 36.8 53.0 L 36.8 13.0 L 46.8 15.0 L 49.3 17.0 L 46.8 18.66666669845581 L 46.8 53.0 L 56.6 53.0 L 62.1 48.0 L 72.6 57.0 L 67.6 60.5 L 67.6 112.0 L 56.6 117.5 L 56.6 112.0 L 46.8 112.0 L 46.8 152.40851068496704 L 50.7 150.5 L 55.3 148.3 L 57.78202075958252 147.21411590576173 L 57.6 146.2 L 56.7 142.2 L 55.6 138.3 L 53.0 130.3 L 51.4 126.3 L 52.9 125.3 L 55.8 128.6 L 58.6 132.1 L 61.1 135.8 L 63.3 139.6 L 65.3 143.6 L 67.0 147.8 L 68.5 152.1 L 69.7 156.5 L 70.7 161.0 L 71.4 165.6 L 69.8 169.9 L 65.7 171.9 L 61.4 170.4 L 59.4 166.3 L 59.4 162.2 Z M 166.7 152.2 L 162.1 143.1 L 160.61707315444946 138.7292682647705 L 159.3 140.9 L 153.2 148.8 L 146.5 155.7 L 139.2 161.5 L 131.3 166.2 L 130.3 164.7 L 136.7 158.6 L 142.6 152.0 L 148.0 144.8 L 152.8 136.9 L 157.2 128.2 L 157.3640930175781 127.79408559799194 L 155.2 118.3 L 152.8 102.4 L 151.0 84.0 L 149.7 63.3 L 149.47339057922363 54.5 L 135.6 54.5 L 135.6 130.6 L 135.9 130.3 L 139.0 127.3 L 142.2 124.1 L 145.6 121.0 L 149.0 117.8 L 150.5 118.9 L 148.2 123.0 L 146.0 127.1 L 143.8 131.0 L 141.5 134.8 L 139.2 138.5 L 136.8 142.0 L 135.6 143.82608699798584 L 135.6 145.2 L 134.6971428871155 145.2 L 134.5 145.5 L 132.2 148.9 L 130.18044481277465 151.83753471374513 L 131.3 155.7 L 127.7 155.3 L 117.3 149.0 L 118.6 147.5 L 121.3 144.8 L 123.6 142.58214282989502 L 123.6 44.5 L 135.6 50.5 L 149.37038621902465 50.5 L 149.1 40.0 L 149.1 15.19338846206665 L 149.0 15.2 L 149.1 11.9 L 161.1 14.4 L 164.0 16.4 L 161.1 18.08199996948242 L 161.1 39.8 L 161.38034934997557 50.5 L 165.9181818008423 50.5 L 174.1 41.5 L 184.1 50.5 L 184.1 54.5 L 161.48515281677246 54.5 L 161.7 62.7 L 162.9 83.1 L 164.7 100.9 L 165.2443265914917 104.49728851318359 L 167.0 97.6 L 169.2 85.8 L 170.9 73.1 L 170.93274631500245 73.10440282821655 L 171.2 71.1 L 182.8 74.7 L 185.5 77.1 L 182.09497203826905 78.5776535987854 L 180.4 87.9 L 177.4 100.2 L 173.8 111.7 L 169.6 122.3 L 168.79414710998535 123.89525985717773 L 169.9 128.7 L 173.2 138.6 L 176.8 145.6 L 177.18356161117555 146.07123289108276 L 181.7 126.5 L 183.7 126.5 L 181.8301149368286 150.80850572586058 L 183.5 151.8 L 187.0 154.8 L 187.4 159.3 L 184.4 162.8 L 179.9 163.2 L 172.5 159.0 Z M 27.0 57.0 L 27.0 108.0 L 36.8 108.0 L 36.8 57.0 Z M 46.8 57.0 L 46.8 108.0 L 56.6 108.0 L 56.6 57.0 Z M 73.3 82.0 L 92.2 82.0 L 92.2 50.0 L 75.2 50.0 L 75.2 46.0 L 92.2 46.0 L 92.2 12.0 L 104.2 14.0 L 107.2 16.0 L 104.2 17.8 L 104.2 46.0 L 107.0777777671814 46.0 L 113.3 39.0 L 121.3 46.0 L 121.3 50.0 L 104.2 50.0 L 104.2 82.0 L 108.3777777671814 82.0 L 114.6 75.0 L 122.6 82.0 L 122.6 86.0 L 73.3 86.0 Z M 172.0 30.7 L 171.7 29.2 L 171.3 27.7 L 170.7 26.2 L 170.0 24.6 L 169.0 22.9 L 167.9 21.2 L 166.7 19.4 L 164.9 18.1 L 165.9 16.6 L 167.9 17.6 L 170.1 18.3 L 172.2 19.2 L 174.2 20.3 L 176.1 21.5 L 177.9 22.9 L 179.5 24.4 L 181.0 26.1 L 182.4 28.0 L 183.6 30.0 L 183.1 34.6 L 179.6 37.5 L 175.1 37.0 L 172.1 33.6 L 172.1 32.2 Z " />
</g>
</svg>
