<svg xmlns="http://www.w3.org/2000/svg" xmlns:xlink="http://www.w3.org/1999/xlink" version="1.1" baseProfile="full" viewBox="0 0 200 200" width="200" height="200">
<g fill="black">
<path d="M 86.8 179.7 L 86.3 177.5 L 85.6 175.3 L 85.24841480255127 174.4405695915222 L 82.5 175.2 L 74.9 177.0 L 67.5 178.7 L 60.1 180.2 L 52.8 181.7 L 45.6 183.1 L 38.5 184.4 L 24.5 187.0 L 21.78404359817505 187.4792863845825 L 20.1 190.9 L 17.7 188.2 L 14.2 176.6 L 16.2 176.3 L 23.0 175.7 L 30.0 175.1 L 37.1 174.5 L 44.3 173.9 L 51.6 173.3 L 52.0 173.2675675392151 L 52.0 153.9 L 34.0 153.9 L 34.0 160.9 L 22.0 166.9 L 22.0 119.8 L 34.0 125.8 L 52.0 125.8 L 52.0 110.2 L 64.0 112.2 L 67.0 114.2 L 64.0 116.0 L 64.0 125.8 L 81.0 125.8 L 87.0 120.8 L 98.0 129.8 L 93.0 133.8 L 93.0 153.9 L 81.0 159.9 L 81.0 153.9 L 64.0 153.9 L 64.0 172.36666669845582 L 66.5 172.2 L 74.2 171.7 L 81.9 171.4 L 83.875 171.375 L 83.6 170.8 L 82.3 168.5 L 80.9 166.1 L 79.3 163.7 L 77.2 161.5 L 78.3 160.1 L 80.9 161.8 L 83.6 163.3 L 86.2 165.0 L 88.5 166.8 L 90.7 168.8 L 92.7 170.9 L 94.6 173.1 L 96.2 175.5 L 97.7 178.0 L 99.0 180.7 L 98.3 185.2 L 94.7 188.0 L 90.2 187.4 L 87.4 183.8 L 87.2 181.8 Z M 174.8 179.7 L 174.2 177.5 L 173.4 175.2 L 173.22212810516356 174.79089469909667 L 171.8 175.2 L 164.6 177.0 L 157.3 178.6 L 150.0 180.1 L 142.7 181.5 L 135.5 182.8 L 128.2 184.0 L 121.0 185.2 L 113.8 186.3 L 110.58476457595825 186.7404432296753 L 108.8 190.1 L 106.5 187.3 L 103.4 175.6 L 105.3 175.4 L 112.6 174.9 L 119.8 174.5 L 134.4 173.5 L 137.0 173.35753421783448 L 137.0 153.9 L 120.0 153.9 L 120.0 160.9 L 108.0 166.9 L 108.0 119.8 L 120.0 125.8 L 137.0 125.8 L 137.0 110.2 L 149.0 112.2 L 152.0 114.2 L 149.0 116.0 L 149.0 125.8 L 166.0 125.8 L 172.0 120.8 L 183.0 129.8 L 178.0 133.8 L 178.0 153.9 L 166.21875 159.790625 L 168.1 161.0 L 171.0 162.7 L 173.7 164.5 L 176.2 166.4 L 178.5 168.5 L 180.6 170.7 L 182.5 173.0 L 184.2 175.4 L 185.7 178.0 L 187.0 180.7 L 186.3 185.2 L 182.7 188.0 L 178.2 187.4 L 175.4 183.8 L 175.2 181.8 Z M 149.0 153.9 L 149.0 172.6 L 156.4 172.1 L 163.8 171.7 L 171.3 171.4 L 171.64768209457398 171.39536428451538 L 171.2 170.5 L 169.8 168.1 L 168.2 165.6 L 166.5 162.9 L 164.2 160.6 L 165.3 159.2 L 166.0 159.65 L 166.0 153.9 Z M 120.0 129.8 L 120.0 149.9 L 137.0 149.9 L 137.0 129.8 Z M 149.0 129.8 L 149.0 149.9 L 166.0 149.9 L 166.0 129.8 Z M 34.0 129.8 L 34.0 149.9 L 52.0 149.9 L 52.0 129.8 Z M 64.0 129.8 L 64.0 149.9 L 81.0 149.9 L 81.0 129.8 Z M 157.5 107.5 L 149.1 102.1 L 141.4 96.4 L 134.5 90.3 L 128.3 83.8 L 123.0 77.0 L 122.6875 76.5 L 78.98181819915771 76.5 L 77.4 78.5 L 67.4 88.5 L 55.9 97.6 L 43.1 105.6 L 28.9 112.6 L 13.3 118.5 L 12.6 116.8 L 27.2 109.2 L 40.3 101.1 L 52.0 92.3 L 62.2 83.0 L 67.85500001907349 76.5 L 15.0 76.5 L 15.0 72.5 L 71.24433965682984 72.5 L 78.2 62.4 L 81.96991147994996 55.3 L 34.0 55.3 L 34.0 51.3 L 84.09380531311035 51.3 L 84.2 51.1 L 88.8 39.1 L 90.05984249114991 34.1 L 27.0 34.1 L 27.0 30.1 L 91.06771650314332 30.1 L 92.0 26.4 L 93.88967390060425 12.973369598388672 L 94.1 10.8 L 105.8 14.2 L 108.6 16.5 L 105.07987308502197 18.09401969909668 L 103.1 28.8 L 102.7043478012085 30.1 L 151.0 30.1 L 161.0 20.1 L 173.0 30.1 L 173.0 34.1 L 101.48695650100709 34.1 L 98.9 42.6 L 95.05581398010254 51.3 L 147.8181818008423 51.3 L 156.0 42.3 L 166.0 51.3 L 166.0 55.3 L 115.14769229888915 55.3 L 118.6 60.4 L 123.4 66.5 L 128.6 72.4 L 128.70178575515746 72.5 L 163.0 72.5 L 173.0 62.5 L 185.0 72.5 L 185.0 76.5 L 132.77321424484253 76.5 L 134.3 78.0 L 140.6 83.2 L 147.5 88.2 L 155.0 92.8 L 163.2 97.2 L 172.0 101.3 L 181.4 105.0 L 187.9 107.7 L 176.5 117.3 L 166.6 112.6 Z M 93.28837213516235 55.3 L 93.2 55.5 L 86.1 67.5 L 82.14545450210571 72.5 L 120.1875 72.5 L 118.5 69.8 L 115.0 62.4 L 112.72435894012452 55.3 Z " />
</g>
</svg>
