<svg xmlns="http://www.w3.org/2000/svg" xmlns:xlink="http://www.w3.org/1999/xlink" version="1.1" baseProfile="full" viewBox="0 0 200 200" width="200" height="200">
<g fill="black">
<path d="M 93.4 35.0 L 127.0 35.0 L 127.0 12.0 L 139.0 14.0 L 142.0 16.0 L 139.0 17.8 L 139.0 35.0 L 163.9 35.0 L 173.9 25.0 L 185.9 35.0 L 185.9 39.0 L 93.4 39.0 L 93.4 102.0 L 92.9 113.6 L 92.1 124.6 L 91.0 135.0 L 89.5 144.8 L 87.7 153.9 L 85.5 162.4 L 82.9 170.2 L 79.9 177.4 L 76.4 183.8 L 72.5 189.4 L 71.0 188.5 L 73.2 182.3 L 75.3 175.6 L 77.1 168.5 L 78.7 160.8 L 80.0 152.5 L 81.1 143.6 L 81.8 134.1 L 82.3 124.0 L 82.5 113.3 L 82.4 102.0 L 82.4 29.5 Z M 116.8 176.4 L 124.8 176.4 L 125.5 176.3 L 125.9 176.2 L 126.3 176.0 L 126.4 175.9 L 126.9 174.9 L 127.1 174.0 L 127.2 172.9 L 127.3 171.4 L 127.3 155.0 L 110.6 155.0 L 110.6 181.6 L 98.6 187.6 L 98.6 107.0 L 110.6 113.0 L 127.3 113.0 L 132.3 108.0 L 142.3 117.0 L 137.3 120.0 L 137.3 171.4 L 137.2 173.7 L 136.9 175.9 L 136.4 178.0 L 135.6 180.0 L 134.4 181.9 L 132.9 183.5 L 131.1 184.8 L 129.1 185.7 L 126.9 186.2 L 124.8 186.4 L 124.8 181.4 L 116.8 178.9 Z M 183.5 157.8 L 185.5 157.8 L 183.5 174.8 L 186.5 176.8 L 188.5 179.8 L 186.5 182.8 L 183.5 184.8 L 159.0 184.8 L 156.6 184.6 L 154.2 184.2 L 151.9 183.4 L 149.8 182.3 L 148.0 180.8 L 146.4 178.9 L 145.3 176.8 L 144.6 174.6 L 144.1 172.2 L 144.0 169.8 L 144.0 97.4 L 154.0 102.4 L 171.2 102.4 L 171.2 83.7 L 155.0 83.7 L 143.0 89.7 L 143.0 44.3 L 155.0 46.3 L 158.0 48.3 L 155.0 50.1 L 155.0 61.1 L 170.2777777671814 61.1 L 176.5 54.1 L 184.5 61.1 L 184.5 65.1 L 155.0 65.1 L 155.0 79.7 L 171.2 79.7 L 177.2 74.7 L 188.2 83.7 L 183.2 87.7 L 183.2 106.4 L 171.2 112.4 L 171.2 106.4 L 154.0 106.4 L 154.0 121.1 L 165.0777777671814 121.1 L 171.3 114.1 L 179.3 121.1 L 179.3 125.1 L 154.0 125.1 L 154.0 138.1 L 165.0777777671814 138.1 L 171.3 131.1 L 179.3 138.1 L 179.3 142.1 L 154.0 142.1 L 154.0 155.1 L 165.0777777671814 155.1 L 171.3 148.1 L 179.3 155.1 L 179.3 159.1 L 154.0 159.1 L 154.0 169.8 L 154.1 171.1 L 154.3 172.1 L 154.5 172.9 L 154.8 173.4 L 155.0 173.7 L 155.4 174.0 L 155.9 174.3 L 156.6 174.5 L 157.7 174.7 L 159.0 174.8 L 178.5 174.8 Z M 62.7 158.2 L 62.3 154.2 L 61.708533954620364 150.25689277648925 L 60.4 151.5 L 56.3 155.1 L 51.9 158.4 L 47.4 161.6 L 42.8 164.6 L 38.1 167.5 L 33.3 170.3 L 28.4 173.0 L 23.4 175.6 L 22.069565200805663 176.25217390060425 L 21.3 180.1 L 18.3 178.1 L 11.8 167.8 L 13.7 167.0 L 18.8 165.2 L 23.9 163.3 L 28.9 161.3 L 33.9 159.2 L 38.8 157.1 L 38.9 157.05510206222533 L 38.9 112.0 L 28.0 112.0 L 28.0 124.0 L 17.0 129.5 L 17.0 47.5 L 28.0 53.0 L 38.9 53.0 L 38.9 13.0 L 48.9 15.0 L 51.4 17.0 L 48.9 18.66666669845581 L 48.9 53.0 L 60.4 53.0 L 65.4 48.0 L 75.4 57.0 L 70.4 60.0 L 70.4 112.0 L 60.4 117.0 L 60.4 112.0 L 48.9 112.0 L 48.9 152.5653060913086 L 58.4 148.3 L 61.09372692108154 147.16863470077516 L 60.9 146.2 L 59.9 142.3 L 58.7 138.3 L 57.3 134.4 L 55.9 130.3 L 54.1 126.3 L 55.6 125.3 L 58.7 128.6 L 61.6 132.0 L 64.2 135.7 L 66.5 139.5 L 68.6 143.6 L 70.4 147.7 L 71.9 152.0 L 73.1 156.4 L 74.1 161.0 L 74.9 165.6 L 73.3 169.9 L 69.2 171.9 L 64.9 170.4 L 62.9 166.3 L 62.9 162.2 Z M 110.6 136.4 L 110.6 151.0 L 127.3 151.0 L 127.3 136.4 Z M 110.6 117.0 L 110.6 132.4 L 127.3 132.4 L 127.3 117.0 Z M 28.0 57.0 L 28.0 108.0 L 38.9 108.0 L 38.9 57.0 Z M 48.9 57.0 L 48.9 108.0 L 60.4 108.0 L 60.4 57.0 Z M 136.8 72.8 L 139.3 75.4 L 135.0877836227417 76.75392665863038 L 134.7 77.6 L 132.3 82.6 L 131.0 85.2 L 129.6 87.7 L 128.1 90.3 L 124.7 95.5 L 124.48571424484253 95.9 L 131.7 95.9 L 136.2 89.9 L 142.2 95.9 L 142.2 99.9 L 95.2 99.9 L 95.2 95.9 L 121.95333337783813 95.9 L 122.3 94.6 L 122.7 91.5 L 123.0 88.5 L 123.4 85.7 L 123.8 82.8 L 124.2 80.1 L 124.8 74.9 L 125.0 72.4 L 125.1220456123352 70.93545265197754 L 124.9 70.9 L 125.6 68.2 Z M 104.9 83.9 L 104.8 81.9 L 104.6 79.8 L 104.2 75.8 L 103.6 71.8 L 102.8 70.1 L 104.3 69.1 L 105.5 70.7 L 107.2 72.1 L 108.7 73.7 L 110.1 75.5 L 111.4 77.3 L 112.6 79.3 L 113.8 81.4 L 114.8 83.6 L 115.8 85.9 L 116.8 88.3 L 115.7 92.7 L 111.9 95.2 L 107.5 94.2 L 105.0 90.4 L 105.0 86.0 Z M 96.2 62.7 L 112.7 62.7 L 112.7 44.3 L 124.7 46.3 L 127.7 48.3 L 124.7 50.1 L 124.7 62.7 L 126.9777777671814 62.7 L 133.2 55.7 L 141.2 62.7 L 141.2 66.7 L 96.2 66.7 Z " />
</g>
</svg>
