<svg xmlns="http://www.w3.org/2000/svg" xmlns:xlink="http://www.w3.org/1999/xlink" version="1.1" baseProfile="full" viewBox="0 0 200 200" width="200" height="200">
<g fill="black">
<path d="M 95.6 116.4 L 98.6 118.4 L 95.6 120.2 L 95.6 147.0 L 94.6 154.2 L 92.2 160.9 L 88.5 166.8 L 83.6 172.0 L 77.5 176.5 L 70.5 180.2 L 62.4 183.4 L 53.2 185.8 L 43.0 187.6 L 31.7 188.8 L 31.4 187.0 L 42.1 183.9 L 51.7 180.7 L 60.0 177.2 L 67.0 173.5 L 72.7 169.5 L 77.1 165.4 L 80.3 161.1 L 82.4 156.6 L 83.14164943695069 153.49855670928955 L 77.1 155.6 L 70.1 157.7 L 63.2 159.8 L 49.4 163.6 L 28.7 169.0 L 25.800414943695067 169.7248962402344 L 24.4 173.2 L 21.9 170.7 L 17.5 159.3 L 19.5 158.9 L 26.4 157.8 L 33.4 156.7 L 33.4 101.9 L 44.38709678649902 107.39354839324952 L 45.0 107.2 L 50.8 105.6 L 56.7 104.0 L 62.5 102.5 L 80.2 97.7 L 86.1 96.0 L 92.0 94.2 L 97.03174600601196 92.69047622680664 L 97.0 92.6 L 97.08823528289795 92.6735294342041 L 98.0 92.4 L 98.3406593322754 93.71721611022949 L 108.4 102.1 L 108.7 105.1 L 104.43550510406494 103.117910861969 L 101.0 104.0 L 94.8 105.3 L 88.5 106.4 L 82.3 107.5 L 76.2 108.4 L 70.0 109.3 L 63.9 110.0 L 57.8 110.5 L 51.7 110.9 L 45.6 111.0 L 45.4 110.99344263076782 L 45.4 154.82535209655762 L 47.5 154.5 L 54.5 153.4 L 61.6 152.3 L 68.7 151.3 L 75.9 150.3 L 83.1 149.5 L 83.55086469650269 149.45676641464235 L 83.6 147.0 L 83.6 114.4 Z M 149.3 161.7 L 162.5 161.7 L 163.4 161.5 L 164.0 161.3 L 164.6 161.0 L 164.7 160.8 L 164.9 160.5 L 165.1 159.9 L 165.2 159.0 L 165.3 157.7 L 165.3 108.0 L 126.2 108.0 L 126.2 184.2 L 114.2 190.2 L 114.2 98.0 L 126.2 104.0 L 165.3 104.0 L 171.3 99.0 L 182.3 108.0 L 177.3 112.0 L 177.3 157.7 L 177.2 160.3 L 176.7 162.8 L 175.9 165.2 L 174.7 167.5 L 173.0 169.5 L 171.0 171.1 L 168.8 172.3 L 166.4 173.2 L 163.9 173.6 L 161.3 173.7 L 161.3 167.7 L 149.3 164.7 Z M 12.0 86.9 L 36.0 86.9 L 36.0 25.1 L 48.0 31.1 L 82.63500003814697 31.1 L 83.3 30.4 L 85.0 28.1 L 88.2 23.7 L 89.7 21.5 L 92.7 17.3 L 95.5 13.1 L 96.24091215133667 11.9031418800354 L 96.1 11.8 L 96.73066663742065 11.111999988555908 L 96.8 11.0 L 96.81847105026245 11.016213417053223 L 97.2 10.6 L 105.8 18.9 L 106.7 22.4 L 102.4068702697754 21.64681930541992 L 101.6 22.3 L 99.4 23.9 L 92.5 28.4 L 90.0 29.8 L 87.5 31.1 L 152.0 31.1 L 158.0 26.1 L 169.0 35.1 L 164.0 39.1 L 164.0 86.9 L 166.0 86.9 L 176.0 76.9 L 188.0 86.9 L 188.0 90.9 L 12.0 90.9 Z M 48.0 35.1 L 48.0 86.9 L 75.0 86.9 L 75.0 35.1 Z M 87.0 35.1 L 87.0 86.9 L 113.0 86.9 L 113.0 35.1 Z M 125.0 35.1 L 125.0 86.9 L 152.0 86.9 L 152.0 35.1 Z " />
</g>
</svg>
