<svg xmlns="http://www.w3.org/2000/svg" xmlns:xlink="http://www.w3.org/1999/xlink" version="1.1" baseProfile="full" viewBox="0 0 200 200" width="200" height="200">
<g fill="black">
<path d="M 82.6 133.0 L 116.7 133.0 L 122.7 128.0 L 133.7 137.0 L 128.7 141.0 L 128.7 179.0 L 116.7 185.0 L 116.7 175.0 L 82.6 175.0 L 82.6 182.0 L 70.6 188.0 L 70.6 127.0 Z M 136.0 175.0 L 156.0 175.0 L 157.2 174.9 L 158.1 174.7 L 159.0 174.4 L 159.4 174.0 L 159.7 173.1 L 159.9 172.2 L 160.0 171.0 L 160.0 82.0 L 138.0 82.0 L 138.0 78.0 L 167.0 78.0 L 177.0 68.0 L 189.0 78.0 L 189.0 82.0 L 172.0 82.0 L 172.0 171.0 L 171.8 173.5 L 171.4 176.0 L 170.6 178.4 L 169.3 180.7 L 167.7 182.7 L 165.7 184.3 L 163.4 185.6 L 161.0 186.4 L 158.5 186.8 L 156.0 187.0 L 156.0 181.0 L 136.0 178.0 Z M 62.6 51.6 L 64.5 54.6 L 60.83214111328125 55.042672634124756 L 58.8 59.0 L 54.8 66.4 L 50.5 73.5 L 46.1 80.6 L 41.72105264663696 86.80350875854492 L 46.5 87.6 L 49.5 89.6 L 46.5 91.4 L 46.5 180.2 L 34.5 186.2 L 34.5 96.46603775024414 L 31.1 100.7 L 25.6 107.0 L 19.7 113.0 L 13.5 118.8 L 12.2 117.6 L 16.8 110.6 L 21.4 103.7 L 25.8 96.8 L 30.1 89.8 L 34.2 82.9 L 38.1 75.8 L 41.8 68.7 L 45.3 61.4 L 48.5 54.1 L 51.220028972625734 47.60702772140503 L 51.2 47.6 L 52.1 45.5 Z M 82.6 137.0 L 82.6 171.0 L 116.7 171.0 L 116.7 137.0 Z M 128.9 108.0 L 128.9 112.0 L 70.5 112.0 L 70.5 108.0 L 106.9 108.0 L 116.9 98.0 Z M 128.9 82.0 L 128.9 86.0 L 70.5 86.0 L 70.5 82.0 L 106.9 82.0 L 116.9 72.0 Z M 59.2 20.8 L 60.6 24.1 L 56.76882810592652 23.967890644073485 L 55.9 25.1 L 52.5 29.4 L 48.9 33.7 L 45.1 37.9 L 41.1 42.1 L 36.9 46.2 L 32.6 50.3 L 28.0 54.2 L 23.2 58.0 L 18.0 61.7 L 16.8 60.4 L 20.5 55.4 L 24.1 50.5 L 27.8 45.8 L 31.3 41.2 L 34.6 36.6 L 37.8 32.1 L 40.9 27.6 L 43.8 23.1 L 46.5 18.7 L 48.59680128097534 15.151567077636718 L 48.5 15.1 L 49.6 13.5 Z M 138.1 54.0 L 138.1 58.0 L 66.4 58.0 L 66.4 54.0 L 116.1 54.0 L 126.1 44.0 Z M 184.0 33.0 L 184.0 37.0 L 142.0 37.0 L 142.0 33.0 L 165.8181818008423 33.0 L 174.0 24.0 Z M 128.9 28.0 L 128.9 32.0 L 70.5 32.0 L 70.5 28.0 L 106.9 28.0 L 116.9 18.0 Z " />
</g>
</svg>
