<svg xmlns="http://www.w3.org/2000/svg" xmlns:xlink="http://www.w3.org/1999/xlink" version="1.1" baseProfile="full" viewBox="0 0 200 200" width="200" height="200">
<g fill="black">
<path d="M 89.32025318145752 125.5 L 89.1 131.3 L 88.5 138.8 L 87.6 145.8 L 86.3 152.4 L 84.7 158.4 L 82.8 163.9 L 80.6 168.9 L 78.0 173.2 L 75.0 177.0 L 71.6 179.9 L 70.2 178.8 L 71.8 174.9 L 73.2 170.8 L 74.5 166.5 L 75.6 161.7 L 76.5 156.5 L 77.1 150.9 L 77.6 144.8 L 77.8 138.2 L 77.7 131.1 L 77.47600002288819 125.5 L 70.9 125.5 L 70.9 121.5 L 94.1 121.5 L 94.1 99.0 L 85.1 99.0 L 85.1 106.0 L 75.1 111.0 L 75.1 56.0 L 85.1 58.0 L 87.6 60.0 L 85.1 61.66666669845581 L 85.1 95.0 L 94.1 95.0 L 94.1 59.6 L 103.1 64.1 L 149.5242798805237 64.1 L 149.41311473846434 50.593442630767825 L 141.4 54.6 L 141.4 34.6 L 116.5 34.6 L 116.5 48.6 L 104.5 54.6 L 104.5 34.6 L 71.5 34.6 L 71.5 30.6 L 104.5 30.6 L 104.5 11.8 L 116.5 13.8 L 119.5 15.8 L 116.5 17.6 L 116.5 30.6 L 141.4 30.6 L 141.4 11.8 L 153.4 13.8 L 156.4 15.8 L 153.4 17.6 L 153.4 30.6 L 164.4 30.6 L 174.4 20.6 L 186.4 30.6 L 186.4 34.6 L 153.4 34.6 L 153.4 47.4 L 161.4 49.0 L 163.81764707565307 50.61176471710205 L 163.7 50.2 L 163.2 48.7 L 162.6 47.3 L 161.8 45.7 L 160.9 44.1 L 159.9 42.4 L 158.3 41.2 L 159.3 39.7 L 161.1 40.8 L 163.1 41.4 L 165.0 42.1 L 166.8 43.0 L 168.5 44.0 L 171.7 46.4 L 173.1 47.8 L 174.4 49.3 L 175.7 51.0 L 175.542142868042 54.55178575515747 L 187.0 64.1 L 187.0 68.1 L 161.55916662216185 68.1 L 161.6 73.0 L 162.5 94.6 L 163.9 113.7 L 165.3067813873291 125.99082689285278 L 167.4 116.3 L 169.8 102.8 L 171.7 88.1 L 171.73274631500243 88.10440282821655 L 172.0 86.1 L 183.6 89.7 L 186.3 92.1 L 182.94036531448364 93.5309555053711 L 181.0 104.8 L 177.9 118.7 L 174.3 131.5 L 170.3 143.1 L 168.84301071166993 146.49964160919188 L 171.3 156.0 L 174.7 164.9 L 178.3 171.1 L 178.91875 171.71875 L 183.7 151.0 L 185.7 151.0 L 183.81206493377687 175.54315547943116 L 185.0 176.1 L 188.7 178.7 L 189.6 183.2 L 187.0 186.9 L 182.5 187.8 L 174.9 184.4 L 168.7 178.3 L 163.8 170.0 L 160.9785714149475 162.66428575515747 L 160.8 163.0 L 155.4 171.1 L 149.4 178.0 L 142.9 183.6 L 136.0 187.7 L 135.1 186.2 L 140.4 180.8 L 145.3 174.6 L 149.9 167.5 L 151.1962963104248 165.0 L 115.8 165.0 L 115.8 177.0 L 107.8 181.0 L 107.8 78.0 L 115.8 82.0 L 130.61818180084228 82.0 L 138.8 73.0 L 148.8 82.0 L 148.8 86.0 L 132.6 86.0 L 132.6 106.0 L 134.8 106.0 L 140.8 101.0 L 151.54206895828247 109.78896551132202 L 150.5 95.2 L 149.6 73.3 L 149.55720167160035 68.1 L 103.1 68.1 L 103.1 137.8 L 102.7 145.6 L 101.8 152.8 L 100.6 159.5 L 98.9 165.6 L 96.8 171.0 L 94.2 175.9 L 91.2 180.1 L 87.8 183.6 L 84.0 186.4 L 79.8 188.2 L 79.1 187.1 L 82.2 184.1 L 84.9 180.9 L 87.2 177.3 L 89.2 173.3 L 90.8 168.8 L 92.2 163.7 L 93.2 158.1 L 93.8 151.9 L 94.1 145.2 L 94.1 125.5 Z M 58.1 158.1 L 57.7 154.1 L 57.284662532806394 150.7773006439209 L 56.6 151.5 L 52.9 155.0 L 49.0 158.3 L 44.9 161.5 L 40.7 164.5 L 36.5 167.4 L 32.1 170.2 L 27.6 172.9 L 23.1 175.5 L 22.157046508789062 176.0124747276306 L 21.5 179.9 L 18.5 178.0 L 11.7 167.9 L 13.5 167.1 L 18.2 165.2 L 27.4 161.4 L 36.4 157.2 L 36.4 112.0 L 27.3 112.0 L 27.3 124.0 L 16.3 129.5 L 16.3 47.5 L 27.3 53.0 L 36.4 53.0 L 36.4 13.0 L 46.4 15.0 L 48.9 17.0 L 46.4 18.66666669845581 L 46.4 53.0 L 56.0 53.0 L 61.0 48.0 L 71.0 57.0 L 66.0 60.0 L 66.0 112.0 L 56.0 117.0 L 56.0 112.0 L 46.4 112.0 L 46.4 152.31111106872558 L 54.4 148.4 L 56.713028526306154 147.31730575561522 L 56.5 146.1 L 55.7 142.2 L 54.6 138.3 L 52.2 130.3 L 50.6 126.3 L 52.1 125.3 L 55.0 128.6 L 57.8 132.1 L 60.2 135.8 L 62.4 139.7 L 64.3 143.7 L 65.9 147.8 L 67.3 152.1 L 68.5 156.5 L 69.5 161.0 L 70.2 165.6 L 68.6 169.9 L 64.5 171.9 L 60.2 170.4 L 58.2 166.3 L 58.2 162.2 Z M 146.8 114.0 L 146.8 143.0 L 134.8 149.0 L 134.8 139.0 L 132.6 139.0 L 132.6 161.0 L 137.1777777671814 161.0 L 143.4 154.0 L 151.4 161.0 L 151.4 164.60714282989503 L 154.1 159.4 L 157.6471760749817 151.12325582504272 L 156.6 147.0 L 154.0 132.0 L 151.9 114.8 L 151.57027025222777 110.18378381729126 Z M 115.8 139.0 L 115.8 161.0 L 122.6 161.0 L 122.6 139.0 Z M 115.8 135.0 L 134.8 135.0 L 134.8 110.0 L 115.8 110.0 Z M 27.3 57.0 L 27.3 108.0 L 36.4 108.0 L 36.4 57.0 Z M 46.4 57.0 L 46.4 108.0 L 56.0 108.0 L 56.0 57.0 Z M 115.8 86.0 L 115.8 106.0 L 122.6 106.0 L 122.6 86.0 Z M 164.1 51.6 L 163.9975609779358 51.241463375091556 L 161.43150911331176 52.781094551086426 L 161.52583332061766 64.1 L 165.0 64.1 L 170.440425491333 58.65957450866699 L 167.7 58.6 L 164.5 55.4 L 164.5 54.2 Z " />
</g>
</svg>
