<svg xmlns="http://www.w3.org/2000/svg" xmlns:xlink="http://www.w3.org/1999/xlink" version="1.1" baseProfile="full" viewBox="0 0 200 200" width="200" height="200">
<g fill="black">
<path d="M 78.1 175.0 L 90.1 175.0 L 91.3 174.9 L 92.2 174.7 L 93.1 174.4 L 93.5 174.0 L 93.8 173.1 L 94.0 172.2 L 94.1 171.0 L 94.1 126.18857145309448 L 91.7 129.0 L 88.2 132.8 L 84.8 136.3 L 81.5 139.5 L 78.4 142.5 L 75.5 145.3 L 72.7 147.9 L 70.8 149.5185185432434 L 70.8 153.7 L 67.5 152.4 L 59.1 143.5 L 60.8 142.4 L 63.5 141.0 L 66.4 139.3 L 69.5 137.4 L 72.8 135.4 L 76.4 133.1 L 80.2 130.7 L 84.2 128.0 L 88.5 125.2 L 93.0 122.4 L 94.1 121.68958330154419 L 94.1 63.0 L 62.5 63.0 L 62.5 59.0 L 94.1 59.0 L 94.1 13.0 L 106.1 15.0 L 109.1 17.0 L 106.1 18.8 L 106.1 59.0 L 114.8 59.0 L 124.8 49.0 L 136.8 59.0 L 136.8 63.0 L 106.1 63.0 L 106.1 115.78260869979859 L 108.09657278060914 117.04131755828857 L 109.2 113.8 L 110.6 109.2 L 112.1 104.7 L 113.6 100.3 L 115.0 96.0 L 116.3 91.8 L 117.6 87.8 L 119.8 79.8 L 120.55316724777222 76.93796453475952 L 120.4 76.9 L 121.3 74.5 L 132.1 79.8 L 134.4 82.6 L 130.5514810562134 83.47773237228394 L 130.5 83.6 L 128.7 87.5 L 126.7 91.4 L 124.7 95.4 L 122.5 99.3 L 120.2 103.3 L 117.8 107.4 L 115.1 111.4 L 112.2 115.4 L 110.0390625 118.28125 L 113.6 120.6 L 117.5 123.5 L 121.1 126.4 L 124.4 129.3 L 127.5 132.1 L 130.2 135.0 L 132.7 137.9 L 134.9 140.8 L 136.8 143.7 L 136.9 148.3 L 133.9 151.7 L 129.3 151.8 L 125.9 148.8 L 125.0 146.3 L 123.8 143.6 L 122.3 140.8 L 120.5 137.8 L 118.4 134.6 L 116.0 131.3 L 113.3 127.8 L 110.3 124.1 L 107.1 120.2 L 106.1 119.08571424484253 L 106.1 171.0 L 105.9 173.5 L 105.5 176.0 L 104.7 178.4 L 103.4 180.7 L 101.8 182.7 L 99.8 184.3 L 97.5 185.6 L 95.1 186.4 L 92.6 186.8 L 90.1 187.0 L 90.1 181.0 L 78.1 178.0 Z M 142.0 175.0 L 156.0 175.0 L 157.2 174.9 L 158.1 174.7 L 159.0 174.4 L 159.4 174.0 L 159.7 173.1 L 159.9 172.2 L 160.0 171.0 L 160.0 82.0 L 138.0 82.0 L 138.0 78.0 L 167.0 78.0 L 177.0 68.0 L 189.0 78.0 L 189.0 82.0 L 172.0 82.0 L 172.0 171.0 L 171.8 173.5 L 171.4 176.0 L 170.6 178.4 L 169.3 180.7 L 167.7 182.7 L 165.7 184.3 L 163.4 185.6 L 161.0 186.4 L 158.5 186.8 L 156.0 187.0 L 156.0 181.0 L 142.0 178.0 Z M 62.6 51.6 L 64.5 54.6 L 60.83214111328125 55.042672634124756 L 58.8 59.0 L 54.8 66.4 L 50.5 73.5 L 46.1 80.6 L 41.72105264663696 86.80350875854492 L 46.5 87.6 L 49.5 89.6 L 46.5 91.4 L 46.5 180.2 L 34.5 186.2 L 34.5 96.46603775024414 L 31.1 100.7 L 25.6 107.0 L 19.7 113.0 L 13.5 118.8 L 12.2 117.6 L 16.8 110.6 L 21.4 103.7 L 25.8 96.8 L 30.1 89.8 L 34.2 82.9 L 38.1 75.8 L 41.8 68.7 L 45.3 61.4 L 48.5 54.1 L 51.220028972625734 47.60702772140503 L 51.2 47.6 L 52.1 45.5 Z M 77.9 101.1 L 77.1 98.1 L 76.2 95.2 L 75.1 92.4 L 73.9 89.8 L 72.6 87.2 L 71.2 84.8 L 69.7 82.3 L 67.8 80.3 L 68.8 78.8 L 71.4 80.3 L 74.2 81.8 L 76.8 83.7 L 79.3 85.9 L 81.6 88.3 L 83.7 91.1 L 85.7 94.1 L 87.6 97.3 L 89.3 100.8 L 90.8 104.5 L 90.2 109.0 L 86.7 111.8 L 82.1 111.2 L 79.3 107.7 L 78.7 104.3 Z M 59.2 20.8 L 60.6 24.1 L 56.76882810592652 23.967890644073485 L 55.9 25.1 L 52.5 29.4 L 48.9 33.7 L 45.1 37.9 L 41.1 42.1 L 36.9 46.2 L 32.6 50.3 L 28.0 54.2 L 23.2 58.0 L 18.0 61.7 L 16.8 60.4 L 20.5 55.4 L 24.1 50.5 L 27.8 45.8 L 31.3 41.2 L 34.6 36.6 L 37.8 32.1 L 40.9 27.6 L 43.8 23.1 L 46.5 18.7 L 48.59680128097534 15.151567077636718 L 48.5 15.1 L 49.6 13.5 Z M 120.1 37.1 L 118.7 32.3 L 117.8 30.0 L 116.8 27.6 L 115.6 25.3 L 114.3 22.9 L 112.9 20.4 L 111.1 18.3 L 112.2 16.9 L 114.6 18.6 L 117.2 20.1 L 119.6 21.8 L 121.9 23.8 L 124.0 25.8 L 126.0 28.0 L 127.8 30.4 L 129.5 32.9 L 131.0 35.5 L 132.4 38.3 L 132.0 42.8 L 128.5 45.8 L 124.0 45.4 L 121.0 41.9 L 120.6 39.5 Z M 184.0 33.0 L 184.0 37.0 L 142.0 37.0 L 142.0 33.0 L 165.8181818008423 33.0 L 174.0 24.0 Z " />
</g>
</svg>
