<svg xmlns="http://www.w3.org/2000/svg" xmlns:xlink="http://www.w3.org/1999/xlink" version="1.1" baseProfile="full" viewBox="0 0 200 200" width="200" height="200">
<g fill="black">
<path d="M 117.8 186.2 L 115.7 186.5 L 113.6 186.7 L 111.5 187.0 L 109.3 187.1 L 107.2 187.3 L 105.1 187.3 L 103.0 187.4 L 103.0 181.4 L 83.0 178.4 L 83.0 175.4 L 103.0 175.4 L 104.8 175.3 L 106.7 175.3 L 108.5 175.2 L 110.4 175.0 L 114.0 174.6 L 115.9 174.3 L 117.7 174.0 L 121.3 173.2 L 123.6 172.5 L 125.7 171.2 L 127.6 169.4 L 129.4 166.9 L 131.2 163.7 L 132.7 159.7 L 133.9 154.8 L 134.9 149.2 L 135.6 142.8 L 135.87777776718139 137.8 L 68.61377410888672 137.8 L 66.4 146.0 L 53.3 148.7 L 63.16666669845581 111.7 L 18.0 111.7 L 18.0 107.7 L 163.8181818008423 107.7 L 172.0 98.7 L 182.0 107.7 L 182.0 111.7 L 75.66005506515503 111.7 L 69.69366388320923 133.8 L 136.0 133.8 L 142.0 128.8 L 153.0 137.8 L 148.0 140.8 L 147.7068404197693 140.92214984893798 L 147.6 143.7 L 146.8 150.8 L 145.7 157.3 L 144.1 163.3 L 142.1 168.6 L 139.6 173.3 L 136.6 177.4 L 132.9 180.8 L 128.7 183.3 L 124.0 184.9 L 122.0 185.4 Z M 12.0 89.3 L 36.0 89.3 L 36.0 25.2 L 48.0 31.2 L 82.57619047164917 31.2 L 83.3 30.4 L 88.1 23.5 L 89.7 21.3 L 91.2 19.1 L 92.6 16.9 L 94.1 14.7 L 95.4 12.6 L 96.189497756958 11.263926982879639 L 96.1 11.2 L 96.64901962280274 10.486274528503419 L 96.7 10.4 L 96.70931177139282 10.407894706726074 L 97.1 9.9 L 105.9 18.2 L 106.9 21.6 L 102.59586372375489 20.932116794586182 L 101.7 21.7 L 99.5 23.4 L 94.9 26.6 L 92.5 28.2 L 90.1 29.6 L 87.6 31.1 L 87.375 31.2 L 152.0 31.2 L 158.0 26.2 L 169.0 35.2 L 164.0 39.2 L 164.0 89.3 L 166.0 89.3 L 176.0 79.3 L 188.0 89.3 L 188.0 93.3 L 12.0 93.3 Z M 48.0 35.2 L 48.0 89.3 L 75.0 89.3 L 75.0 35.2 Z M 87.0 35.2 L 87.0 89.3 L 113.0 89.3 L 113.0 35.2 Z M 125.0 35.2 L 125.0 89.3 L 152.0 89.3 L 152.0 35.2 Z " />
</g>
</svg>
