<svg xmlns="http://www.w3.org/2000/svg" xmlns:xlink="http://www.w3.org/1999/xlink" version="1.1" baseProfile="full" viewBox="0 0 200 200" width="200" height="200">
<g fill="black">
<path d="M 75.8 183.0 L 75.1 178.5 L 77.8 174.8 L 79.4 174.1 L 81.0 173.1 L 82.6 171.8 L 84.2 170.0 L 85.7 167.9 L 87.1 165.3 L 88.5 162.3 L 89.7 158.9 L 90.9 155.1 L 91.6 150.9 L 93.4 151.0 L 93.6 155.4 L 93.9 159.5 L 93.8 163.5 L 93.5 167.2 L 92.8 170.7 L 91.8 174.1 L 90.4 177.2 L 88.7 180.1 L 86.6 182.7 L 84.0 185.0 L 79.5 185.7 Z M 175.6 175.1 L 174.9 172.6 L 173.9 169.9 L 172.7 167.1 L 171.2 164.3 L 169.5 161.3 L 167.6 158.3 L 165.4 155.1 L 162.8 152.0 L 164.0 150.7 L 167.3 153.1 L 170.7 155.3 L 173.7 157.7 L 176.5 160.2 L 179.0 162.8 L 181.3 165.4 L 183.4 168.2 L 185.2 171.1 L 186.7 174.0 L 188.0 177.1 L 187.3 181.6 L 183.6 184.4 L 179.1 183.6 L 176.4 180.0 L 176.1 177.6 Z M 143.7 173.2 L 143.5 170.9 L 143.1 168.6 L 142.4 166.1 L 141.6 163.6 L 140.5 161.0 L 139.2 158.3 L 137.8 155.4 L 135.8 152.8 L 137.0 151.5 L 139.6 153.7 L 142.4 155.7 L 144.8 157.9 L 147.1 160.2 L 149.1 162.6 L 150.8 165.2 L 152.4 167.8 L 153.7 170.6 L 154.8 173.5 L 155.6 176.4 L 154.1 180.8 L 150.1 182.9 L 145.8 181.5 L 143.6 177.5 L 143.8 175.4 Z M 61.3 158.2 L 60.9 154.2 L 60.31711406707764 150.31409397125245 L 59.1 151.5 L 54.9 155.1 L 50.6 158.4 L 46.2 161.6 L 41.6 164.6 L 36.9 167.5 L 32.1 170.3 L 27.2 173.0 L 22.3 175.6 L 20.957566452026366 176.25805568695068 L 20.2 180.1 L 17.2 178.1 L 10.7 167.8 L 12.6 167.0 L 17.7 165.2 L 22.7 163.3 L 27.7 161.3 L 32.7 159.2 L 37.6 157.1 L 37.6 112.0 L 26.8 112.0 L 26.8 124.0 L 15.8 129.5 L 15.8 47.5 L 26.8 53.0 L 37.6 53.0 L 37.6 13.0 L 47.6 15.0 L 50.1 17.0 L 47.6 18.66666669845581 L 47.6 53.0 L 58.5 53.0 L 64.0 48.0 L 74.5 57.0 L 69.5 60.5 L 69.5 112.0 L 58.5 117.5 L 58.5 112.0 L 47.6 112.0 L 47.6 152.5625 L 52.1 150.5 L 57.0 148.3 L 59.69372692108154 147.16863470077516 L 59.5 146.2 L 58.5 142.3 L 57.3 138.3 L 56.0 134.4 L 54.5 130.3 L 52.8 126.3 L 54.2 125.3 L 57.3 128.6 L 60.2 132.0 L 62.8 135.7 L 65.1 139.6 L 67.2 143.6 L 68.9 147.7 L 70.4 152.0 L 71.7 156.4 L 72.7 161.0 L 73.4 165.6 L 71.9 169.9 L 67.8 171.9 L 63.5 170.4 L 61.5 166.3 L 61.5 162.2 Z M 117.9 182.9 L 113.9 180.8 L 112.4 176.4 L 112.9 174.4 L 113.3 172.3 L 113.5 170.1 L 113.6 167.8 L 113.5 165.5 L 113.2 163.1 L 112.7 160.6 L 112.1 158.0 L 111.3 155.3 L 109.9 152.8 L 111.4 151.7 L 113.3 154.0 L 115.5 156.1 L 117.4 158.4 L 119.1 160.8 L 120.5 163.3 L 121.8 165.9 L 122.8 168.7 L 123.6 171.5 L 124.1 174.5 L 124.4 177.5 L 122.2 181.5 Z M 72.7 128.1 L 74.7 127.6 L 76.9 126.9 L 79.2 126.0 L 81.6 125.1 L 87.0 122.7 L 89.9 121.3 L 93.0 119.8 L 94.4 119.1 L 94.4 91.0 L 73.3 91.0 L 73.3 87.0 L 94.4 87.0 L 94.4 58.0 L 105.4 60.0 L 108.2 62.0 L 105.4 63.75 L 105.4 142.2 L 94.4 147.7 L 94.4 124.29166669845581 L 93.1 125.7 L 90.8 128.0 L 88.5 130.2 L 86.2 132.3 L 84.1 134.2 L 81.9 135.9 L 81.519610786438 136.18982038497924 L 80.8 140.9 L 77.7 139.0 L 70.9 128.9 Z M 183.7 105.0 L 185.7 105.0 L 183.7 130.0 L 187.3 132.4 L 189.7 136.0 L 187.3 139.6 L 183.7 142.0 L 172.0 142.0 L 169.4 141.8 L 167.0 141.3 L 164.6 140.4 L 162.4 139.2 L 160.4 137.5 L 158.8 135.5 L 157.7 133.3 L 157.0 130.9 L 156.6 128.5 L 156.5 126.0 L 156.5 58.0 L 167.5 60.0 L 170.2 62.0 L 167.5 63.723404216766355 L 167.5 88.30909090042114 L 168.5 87.4 L 170.6 85.5 L 172.6 83.7 L 174.5 81.9 L 176.3 80.1 L 178.0 78.3 L 179.6 76.6 L 180.3952610015869 75.69870414733887 L 180.3 75.6 L 181.2 74.8 L 188.6 84.2 L 189.0 87.8 L 184.87008924484252 86.29821424484253 L 184.1 86.7 L 181.7 87.8 L 179.2 88.9 L 176.6 90.0 L 173.9 91.0 L 171.1 92.0 L 168.3 92.9 L 167.5 93.08666667938232 L 167.5 126.0 L 167.6 127.2 L 167.8 128.2 L 168.3 129.2 L 168.6 129.4 L 169.2 129.7 L 169.8 129.8 L 170.7 129.9 L 172.0 130.0 L 177.7 130.0 Z M 124.1 85.0 L 137.8 85.0 L 143.3 80.0 L 153.8 89.0 L 148.8 92.5 L 148.8 133.0 L 137.8 138.5 L 137.8 131.0 L 124.1 131.0 L 124.1 134.0 L 113.1 139.5 L 113.1 79.5 Z M 124.1 89.0 L 124.1 127.0 L 137.8 127.0 L 137.8 89.0 Z M 26.8 57.0 L 26.8 108.0 L 37.6 108.0 L 37.6 57.0 Z M 47.6 57.0 L 47.6 108.0 L 58.5 108.0 L 58.5 57.0 Z M 152.2 15.0 L 155.2 17.0 L 152.2 18.8 L 152.2 34.0 L 166.6 34.0 L 176.6 24.0 L 188.6 34.0 L 188.6 38.0 L 152.2 38.0 L 152.2 65.0 L 140.2 71.0 L 140.2 61.0 L 122.7 61.0 L 122.7 68.0 L 110.7 74.0 L 110.7 38.0 L 74.3 38.0 L 74.3 34.0 L 110.7 34.0 L 110.7 13.0 L 122.7 15.0 L 125.7 17.0 L 122.7 18.8 L 122.7 34.0 L 140.2 34.0 L 140.2 13.0 Z M 122.7 38.0 L 122.7 57.0 L 140.2 57.0 L 140.2 38.0 Z " />
</g>
</svg>
