<svg xmlns="http://www.w3.org/2000/svg" xmlns:xlink="http://www.w3.org/1999/xlink" version="1.1" baseProfile="full" viewBox="0 0 200 200" width="200" height="200">
<g fill="black">
<path d="M 173.1 177.4 L 171.8 173.5 L 170.3 169.8 L 169.98683853149413 169.07581415176392 L 166.4 170.5 L 159.4 172.8 L 152.2 174.9 L 144.8 176.8 L 137.3 178.5 L 129.6 180.1 L 121.8 181.5 L 113.8 182.8 L 105.7 184.0 L 101.55797948837281 184.55563688278198 L 99.7 187.9 L 97.5 185.1 L 94.4 173.3 L 96.4 173.2 L 104.6 172.7 L 112.6 172.2 L 120.5 171.6 L 128.3 170.9 L 134.0 170.30779218673706 L 134.0 140.8 L 115.7 140.8 L 115.7 147.8 L 103.7 153.8 L 103.7 101.4 L 115.7 107.4 L 134.0 107.4 L 134.0 90.0 L 146.0 92.0 L 149.0 94.0 L 146.0 95.8 L 146.0 107.4 L 164.2 107.4 L 170.2 102.4 L 181.2 111.4 L 176.2 115.4 L 176.2 140.8 L 164.2 146.8 L 164.2 140.8 L 146.0 140.8 L 146.0 168.99594593048096 L 150.9 168.4 L 158.3 167.6 L 165.5 166.8 L 168.8613832473755 166.47319889068604 L 168.7 166.1 L 166.8 162.6 L 164.8 159.1 L 162.6 155.6 L 160.3 152.1 L 157.7 148.7 L 158.9 147.3 L 162.6 149.7 L 166.2 152.3 L 169.5 155.2 L 172.7 158.4 L 175.5 161.8 L 178.2 165.4 L 180.7 169.3 L 182.9 173.3 L 184.9 177.6 L 186.7 182.0 L 186.1 186.6 L 182.6 189.5 L 178.1 188.9 L 175.1 185.4 L 174.2 181.3 Z M 85.4 135.0 L 84.7 132.6 L 83.7 130.1 L 83.08316326141357 128.86632652282714 L 78.6 130.0 L 70.1 131.9 L 62.0 133.4 L 60.4 133.70769233703612 L 60.4 183.0 L 48.4 189.0 L 48.4 135.91891889572145 L 46.8 136.2 L 39.6 137.3 L 32.8 138.4 L 26.4 139.3 L 20.3 140.1 L 18.658887577056884 140.32636032104492 L 16.7 143.7 L 14.5 140.9 L 11.7 129.0 L 13.7 128.9 L 19.4 128.8 L 25.5 128.6 L 31.9 128.4 L 38.7 128.1 L 44.703676509857175 127.76176471710205 L 45.5 126.7 L 49.5 121.4 L 53.3 116.3 L 57.0 111.5 L 60.4 106.9 L 63.6 102.5 L 66.6 98.2 L 69.2 94.1 L 71.7 90.2 L 73.33505840301514 87.31918287277222 L 73.3 87.3 L 74.3 85.7 L 83.9 93.1 L 85.3 96.4 L 81.41668901443481 96.26836233139038 L 81.0 96.8 L 77.9 100.5 L 74.5 104.4 L 70.8 108.4 L 66.9 112.4 L 62.7 116.6 L 58.2 120.8 L 53.4 125.1 L 50.49068660736084 127.44983005523682 L 53.3 127.3 L 61.2 126.9 L 69.5 126.5 L 78.1 126.2 L 81.65582818984986 126.16049079895019 L 80.9 124.8 L 79.0 122.0 L 77.0 119.1 L 74.7 116.1 L 71.8 113.3 L 72.9 111.8 L 76.4 114.0 L 79.8 116.0 L 83.0 118.1 L 85.9 120.4 L 88.5 122.8 L 90.9 125.3 L 93.0 127.9 L 94.9 130.7 L 96.5 133.6 L 97.8 136.6 L 97.0 141.1 L 93.4 143.9 L 88.9 143.1 L 86.1 139.5 L 85.9 137.3 Z M 45.3 150.6 L 47.1 153.7 L 43.17399816513061 153.9661696434021 L 42.9 154.4 L 40.3 158.2 L 37.6 161.9 L 34.8 165.5 L 31.7 169.1 L 28.5 172.6 L 25.2 176.0 L 21.6 179.4 L 17.7 182.5 L 13.7 185.6 L 12.4 184.3 L 15.1 180.2 L 17.7 176.0 L 20.3 172.1 L 22.7 168.1 L 25.0 164.2 L 27.2 160.4 L 29.3 156.5 L 31.2 152.7 L 33.0 148.9 L 34.20320510864258 146.04238786697388 L 34.1 146.0 L 35.1 144.1 Z M 77.1 165.8 L 76.1 163.5 L 75.0 161.1 L 73.5 158.7 L 71.9 156.1 L 69.9 153.5 L 67.8 150.8 L 65.4 147.9 L 62.5 145.3 L 63.6 143.8 L 67.0 145.7 L 70.5 147.5 L 73.6 149.4 L 76.6 151.5 L 79.3 153.6 L 81.8 155.9 L 84.0 158.2 L 86.1 160.7 L 87.9 163.3 L 89.5 166.1 L 89.2 170.6 L 85.9 173.8 L 81.3 173.5 L 78.2 170.2 L 77.7 168.1 Z M 115.7 111.4 L 115.7 136.8 L 134.0 136.8 L 134.0 111.4 Z M 146.0 111.4 L 146.0 136.8 L 164.2 136.8 L 164.2 111.4 Z M 57.2 90.2 L 58.5 93.6 L 54.02665405273437 93.29149341583252 L 51.9 95.3 L 50.0 97.0 L 46.0 100.4 L 43.9 102.2 L 41.6 103.9 L 39.6458646774292 105.25939846038818 L 40.9 106.2 L 43.0 108.0 L 44.9 109.9 L 46.7 112.0 L 48.1 114.2 L 49.3 116.5 L 48.7 121.1 L 45.0 123.9 L 40.5 123.2 L 37.7 119.6 L 37.7 118.2 L 37.5 116.7 L 37.1 115.0 L 36.3 113.1 L 35.3 111.1 L 34.0 108.9 L 32.4 106.6 L 30.5 104.2 L 28.5 101.6 L 25.9 99.3 L 26.9 97.8 L 30.0 99.6 L 33.1 101.1 L 35.9 102.7 L 37.5131817817688 103.75477275848388 L 38.6 101.4 L 39.8 98.9 L 42.2 94.1 L 43.3 91.8 L 44.4 89.6 L 45.5 87.5 L 46.5 85.4 L 47.00548849105835 84.22052688598633 L 46.8 84.1 L 46.87333335876465 84.0 L 13.1 84.0 L 13.1 80.0 L 48.4 80.0 L 48.4 62.0 L 19.3 62.0 L 19.3 58.0 L 48.4 58.0 L 48.4 40.0 L 15.4 40.0 L 15.4 36.0 L 48.4 36.0 L 48.4 13.0 L 60.4 15.0 L 63.4 17.0 L 60.4 18.8 L 60.4 36.0 L 71.4 36.0 L 81.4 26.0 L 93.4 36.0 L 93.4 40.0 L 60.4 40.0 L 60.4 58.0 L 71.31818180084228 58.0 L 79.5 49.0 L 89.5 58.0 L 89.5 62.0 L 60.4 62.0 L 60.4 80.0 L 73.8 80.0 L 83.8 70.0 L 95.8 80.0 L 95.8 84.0 L 49.61315793991089 84.0 Z M 158.3 93.3 L 149.9 87.9 L 142.2 81.6 L 138.6969696998596 77.89090909957886 L 138.2 78.4 L 129.4 85.9 L 120.0 92.5 L 110.0 98.0 L 99.4 102.5 L 88.2 105.8 L 87.7 104.1 L 97.9 99.0 L 107.4 93.3 L 116.3 87.1 L 124.5 80.1 L 132.2 72.5 L 133.11449089050294 71.40261096954346 L 129.3 66.4 L 124.0 57.5 L 119.5 47.9 L 115.9 37.4 L 113.5785714149475 27.0 L 96.0 27.0 L 96.0 23.0 L 161.0 23.0 L 167.0 18.0 L 178.0 27.0 L 173.0 30.0 L 170.75700931549073 30.93457946777344 L 167.0 39.2 L 160.8 50.3 L 153.9 60.6 L 146.4 70.0 L 145.5345146179199 70.88659477233887 L 148.9 73.8 L 156.0 78.7 L 163.7 82.8 L 171.9 86.1 L 180.7 88.6 L 188.9 90.8 L 177.2 101.3 L 167.4 97.8 Z M 109.4 70.5 L 109.1 69.1 L 108.7 67.5 L 108.1 65.9 L 107.3 64.1 L 106.4 62.2 L 105.2 60.2 L 104.0 58.1 L 102.2 56.3 L 103.3 54.9 L 105.4 56.4 L 107.7 57.6 L 109.9 58.8 L 111.9 60.1 L 113.7 61.4 L 115.4 62.8 L 117.0 64.3 L 118.4 65.9 L 119.7 67.5 L 120.8 69.4 L 120.3 73.9 L 116.8 76.8 L 112.3 76.3 L 109.3 72.8 L 109.4 71.7 Z M 181.9 58.5 L 183.7 61.7 L 179.05419158935547 62.014970016479495 L 178.9 62.2 L 175.5 65.8 L 173.6 67.6 L 171.6 69.4 L 169.5 71.1 L 167.2 72.9 L 164.8 74.6 L 162.6 76.6 L 161.3 75.3 L 163.0 73.0 L 164.2 70.4 L 165.4 67.9 L 166.6 65.5 L 167.6 63.3 L 168.5 61.1 L 170.1 56.9 L 170.7 55.0 L 170.88394165039062 54.17226276397705 L 170.7 54.1 L 171.06000003814697 53.380000019073485 L 171.1 53.2 L 171.14014873504638 53.21970262527466 L 171.7 52.1 Z M 115.69901962280274 27.0 L 119.8 35.9 L 124.8 45.3 L 130.2 53.8 L 135.9 61.3 L 138.88653573989868 64.4761570930481 L 139.2 64.1 L 145.6 54.9 L 151.5 45.0 L 156.7 34.3 L 159.6834782600403 27.0 Z M 135.9 46.5 L 135.6 44.5 L 135.2 42.4 L 134.2 38.4 L 133.6 36.3 L 132.2 32.1 L 130.9 30.3 L 132.3 29.1 L 133.9 30.7 L 135.9 32.0 L 137.7 33.5 L 139.5 35.2 L 141.1 36.9 L 142.6 38.8 L 144.1 40.8 L 145.5 42.9 L 146.7 45.1 L 147.9 47.4 L 147.3 52.0 L 143.8 54.8 L 139.2 54.3 L 136.4 50.7 L 136.2 48.6 Z " />
</g>
</svg>
