<svg xmlns="http://www.w3.org/2000/svg" xmlns:xlink="http://www.w3.org/1999/xlink" version="1.1" baseProfile="full" viewBox="0 0 200 200" width="200" height="200">
<g fill="black">
<path d="M 24.7 176.0 L 29.0 174.7 L 33.5 173.3 L 38.0 171.8 L 38.0 143.25322580337524 L 33.9 145.7 L 27.2 149.2 L 20.1 152.6 L 12.4 155.7 L 11.5 154.2 L 18.2 149.3 L 24.4 144.7 L 30.3 140.2 L 35.7 135.9 L 40.6 131.6 L 45.0 127.4 L 49.0 123.3 L 52.5 119.3 L 54.2692307472229 117.0 L 15.0 117.0 L 15.0 113.0 L 57.0 113.0 L 57.0 92.0 L 69.0 94.0 L 72.0 96.0 L 69.0 97.8 L 69.0 113.0 L 92.0 113.0 L 102.0 103.0 L 114.0 113.0 L 114.0 117.0 L 69.09411764144897 117.0 L 67.9 118.4 L 64.3 122.5 L 60.4 126.6 L 56.0 130.6 L 51.1 134.5 L 46.9316725730896 137.48861207962037 L 50.0 138.0 L 53.0 140.0 L 50.0 141.8 L 50.0 167.8 L 66.8 162.2 L 73.5 160.1 L 80.6 158.1 L 81.3 159.8 L 75.0 163.6 L 69.0 167.1 L 63.1 170.3 L 57.5 173.3 L 42.1 181.0 L 37.5 183.2 L 33.1 185.3 L 32.89228372573852 185.39625873565674 L 32.0 189.3 L 29.0 187.2 L 22.9 176.7 Z M 164.6 179.8 L 156.0 172.2 L 147.3 161.5 L 143.20246257781983 154.48975524902343 L 137.5 160.0 L 128.0 167.7 L 117.8 174.5 L 106.9 180.3 L 95.4 185.1 L 83.2 188.8 L 82.7 187.1 L 93.8 181.6 L 104.3 175.6 L 114.1 169.0 L 123.2 161.8 L 131.7 153.8 L 138.5214285850525 146.18126163482665 L 131.3 129.3 L 124.8 107.2 L 121.47727270126343 90.0 L 12.0 90.0 L 12.0 86.0 L 120.70454549789429 86.0 L 119.7 80.8 L 116.7 49.8 L 115.9222469329834 14.898331451416016 L 115.9 14.9 L 115.91267824172974 14.468938159942628 L 115.9 13.9 L 115.92940454483032 13.900244998931885 L 116.0 11.5 L 127.9 14.0 L 130.9 16.1 L 127.97570552825928 17.79609079360962 L 128.6 49.1 L 131.6 79.1 L 132.90909090042115 86.0 L 166.0 86.0 L 176.0 76.0 L 188.0 86.0 L 188.0 90.0 L 133.66798419952391 90.0 L 136.4 104.4 L 142.6 125.2 L 146.92861862182616 135.38139877319335 L 153.0 125.8 L 158.9 115.0 L 164.0 103.5 L 164.05793323516846 103.5250521659851 L 164.6 102.2 L 175.1 108.3 L 177.0 111.3 L 173.3205638885498 111.74406986236572 L 168.9 120.3 L 162.1 131.5 L 154.6 141.9 L 151.68130073547363 145.28141984939575 L 157.2 154.7 L 164.7 163.9 L 171.6 170.0 L 175.64604320526124 172.20047960281372 L 181.0 149.0 L 183.0 149.0 L 181.07446804046631 174.0319149017334 L 185.2 175.8 L 187.0 180.0 L 185.2 184.2 L 181.0 186.0 L 173.0 184.3 Z M 92.8 163.4 L 89.9 160.4 L 86.5 157.3 L 82.7 154.3 L 78.5 151.2 L 73.8 148.1 L 68.8 144.9 L 63.3 141.6 L 57.6 138.2 L 58.2 136.5 L 64.8 138.1 L 71.1 140.1 L 76.8 142.2 L 82.2 144.6 L 83.65583486557007 145.3136445045471 L 84.7 144.4 L 87.5 141.5 L 90.2 138.8 L 92.8 136.3 L 95.2 133.8 L 97.3 131.5 L 99.3 129.3 L 101.1 127.2 L 102.7 125.3 L 103.43989858627319 124.21860971450806 L 103.3 124.1 L 104.3 123.1 L 112.5 131.9 L 113.2 135.4 L 108.97706031799316 134.36278676986694 L 108.0 135.0 L 105.5 136.6 L 102.8 138.3 L 99.9 139.9 L 96.8 141.6 L 93.5 143.4 L 90.0 145.1 L 86.35277462005615 146.63567380905153 L 87.3 147.1 L 91.9 149.8 L 96.2 152.6 L 100.1 155.5 L 103.7 158.6 L 106.8 161.9 L 108.0 166.3 L 105.8 170.3 L 101.4 171.5 L 97.4 169.3 L 95.3 166.3 Z M 75.0 66.0 L 85.0 66.0 L 86.2 65.9 L 87.1 65.7 L 88.0 65.4 L 88.4 65.0 L 88.7 64.1 L 88.9 63.2 L 89.0 62.0 L 89.0 45.0 L 67.0 45.0 L 67.0 79.0 L 55.0 85.0 L 55.0 45.0 L 34.0 45.0 L 34.0 72.0 L 22.0 78.0 L 22.0 35.0 L 34.0 41.0 L 55.0 41.0 L 55.0 29.0 L 14.0 29.0 L 14.0 25.0 L 55.0 25.0 L 55.0 13.0 L 67.0 15.0 L 70.0 17.0 L 67.0 18.8 L 67.0 25.0 L 89.0 25.0 L 99.0 15.0 L 111.0 25.0 L 111.0 29.0 L 67.0 29.0 L 70.0 31.0 L 67.0 32.8 L 67.0 41.0 L 89.0 41.0 L 95.0 36.0 L 106.0 45.0 L 101.0 49.0 L 101.0 62.0 L 100.8 64.5 L 100.4 67.0 L 99.6 69.4 L 98.3 71.7 L 96.7 73.7 L 94.7 75.3 L 92.4 76.6 L 90.0 77.4 L 87.5 77.8 L 85.0 78.0 L 85.0 72.0 L 75.0 69.0 Z M 157.2 52.6 L 155.4 49.8 L 153.4 47.0 L 151.3 44.3 L 149.1 41.6 L 146.7 39.0 L 144.1 36.3 L 141.4 33.7 L 138.4 31.2 L 139.3 29.6 L 142.9 31.1 L 146.6 32.6 L 150.2 34.4 L 153.5 36.4 L 156.7 38.6 L 159.8 40.9 L 162.7 43.5 L 165.5 46.3 L 168.1 49.2 L 170.5 52.3 L 171.2 56.8 L 168.5 60.5 L 164.0 61.2 L 160.3 58.5 L 158.8 55.5 Z " />
</g>
</svg>
