<svg xmlns="http://www.w3.org/2000/svg" xmlns:xlink="http://www.w3.org/1999/xlink" version="1.1" baseProfile="full" viewBox="0 0 200 200" width="200" height="200">
<g fill="black">
<path d="M 157.2 171.4 L 149.6 162.5 L 142.9 152.8 L 137.0 142.1 L 132.0 130.6 L 127.9 118.2 L 124.6 104.9 L 122.3 90.7 L 121.93247861862183 86.10598287582397 L 119.9 89.4 L 113.8 98.3 L 107.5 106.5 L 101.0 114.0 L 94.75966739654541 120.42661123275757 L 98.2 121.0 L 101.2 123.0 L 98.2 124.8 L 98.2 165.52857141494752 L 99.0 165.3 L 106.2 163.3 L 113.6 161.3 L 121.1 159.3 L 128.9 157.4 L 136.8 155.6 L 137.4 157.3 L 130.1 161.0 L 122.9 164.3 L 115.8 167.5 L 108.7 170.5 L 94.9 176.1 L 88.2 178.7 L 81.7 181.3 L 75.2 183.8 L 72.764391040802 184.7278510093689 L 71.7 188.4 L 68.9 186.2 L 63.3 175.3 L 65.2 174.7 L 71.7 173.0 L 78.3 171.1 L 85.0 169.2 L 86.2 168.874285697937 L 86.2 128.02957744598388 L 80.3 132.6 L 73.0 137.3 L 65.5 141.3 L 57.8 144.3 L 57.0 142.7 L 63.6 138.0 L 70.0 132.9 L 76.2 127.5 L 82.3 121.5 L 88.2 115.1 L 93.9 108.0 L 99.5 100.4 L 104.9 92.3 L 110.1 83.5 L 112.4375 79.1 L 61.0 79.1 L 61.0 75.1 L 114.5 75.1 L 114.5 46.1 L 126.5 48.1 L 129.5 50.1 L 126.5 51.9 L 126.5 75.1 L 157.9 75.1 L 167.9 65.1 L 179.9 75.1 L 179.9 79.1 L 126.22758617401124 79.1 L 125.7 80.0 L 124.46811962127686 81.99649572372437 L 126.4 90.0 L 130.4 103.4 L 134.7 115.8 L 138.713286113739 125.03055801391602 L 139.9 123.7 L 143.1 120.1 L 146.2 116.7 L 149.2 113.3 L 152.1 110.1 L 154.9 106.9 L 157.6 103.8 L 162.4 97.8 L 164.00755825042725 95.6809458732605 L 163.9 95.6 L 165.0 94.5 L 173.6 102.9 L 174.5 106.4 L 170.5309386253357 105.64724702835083 L 167.6 108.2 L 164.5 110.8 L 161.1 113.5 L 157.7 116.1 L 154.0 118.7 L 150.2 121.3 L 146.2 123.9 L 142.0 126.3 L 139.8382833480835 127.55681200027466 L 145.3 137.7 L 151.4 147.1 L 158.2 155.5 L 165.5 163.0 L 173.4 169.5 L 182.0 175.2 L 186.0 177.7 L 174.9 186.3 L 165.6 179.4 Z M 12.7 122.0 L 15.4 121.2 L 18.3 120.3 L 21.4 119.2 L 24.6 117.9 L 27.9 116.5 L 31.3 114.9 L 34.9 113.2 L 38.6 111.4 L 41.900908660888675 109.79186496734619 L 42.0 98.0 L 42.0 31.0 L 54.0 37.0 L 104.0 37.0 L 104.0 12.0 L 116.0 14.0 L 119.0 16.0 L 116.0 17.8 L 116.0 37.0 L 164.0 37.0 L 174.0 27.0 L 186.0 37.0 L 186.0 41.0 L 54.0 41.0 L 54.0 98.0 L 53.3 110.5 L 52.0 122.3 L 49.9 133.4 L 47.2 143.7 L 43.7 153.2 L 39.5 161.9 L 34.6 169.8 L 28.9 176.7 L 22.6 182.7 L 15.5 187.7 L 14.4 186.2 L 19.9 180.0 L 24.7 173.4 L 29.0 166.3 L 32.7 158.6 L 35.7 150.2 L 38.2 141.2 L 40.0 131.5 L 41.3 121.0 L 41.6436749458313 114.64201288223266 L 41.2 115.1 L 38.1 118.0 L 35.1 120.7 L 32.0 123.2 L 29.0 125.6 L 26.0 127.7 L 23.0 129.7 L 21.009677410125732 130.89419355392457 L 20.1 135.2 L 17.1 133.1 L 10.8 122.8 Z M 24.3 76.9 L 23.6 73.9 L 22.7 70.9 L 21.7 68.1 L 20.5 65.4 L 19.2 62.7 L 17.8 60.1 L 16.2 57.5 L 14.2 55.3 L 15.3 53.8 L 18.0 55.5 L 20.8 57.2 L 23.5 59.2 L 26.0 61.5 L 28.3 64.1 L 30.4 67.0 L 32.3 70.1 L 34.1 73.4 L 35.7 76.9 L 37.1 80.6 L 36.3 85.1 L 32.6 87.9 L 28.1 87.1 L 25.4 83.4 L 24.9 80.1 Z " />
</g>
</svg>
