<svg xmlns="http://www.w3.org/2000/svg" xmlns:xlink="http://www.w3.org/1999/xlink" version="1.1" baseProfile="full" viewBox="0 0 200 200" width="200" height="200">
<g fill="black">
<path d="M 168.3 77.3 L 162.7 71.9 L 157.4 65.9 L 152.3 59.5 L 147.5 52.5 L 143.0 45.1 L 138.7 37.1 L 134.8 28.5 L 134.73121690750122 28.321164035797118 L 134.6 28.6 L 129.4 38.2 L 124.0 47.3 L 118.2 55.7 L 112.1 63.6 L 105.6 70.9 L 98.9 77.5 L 91.8 83.6 L 84.3 88.8 L 77.32379465103149 92.82473382949829 L 78.4 93.5 L 80.2 96.7 L 75.47054109573364 97.0206413269043 L 75.4 97.1 L 73.7 99.0 L 71.8 101.0 L 69.7 103.2 L 67.3 105.4 L 64.8 107.7 L 62.1 110.2 L 59.1 112.7 L 58.46842107772827 113.28947372436524 L 61.6 115.5 L 64.7 118.0 L 67.5 120.7 L 70.2 123.5 L 72.7 126.4 L 74.9 129.5 L 76.9 132.7 L 77.0 137.3 L 73.9 140.7 L 69.4 140.8 L 66.0 137.7 L 65.0 134.9 L 63.8 132.0 L 62.3 129.1 L 60.7 126.2 L 58.8 123.3 L 56.7 120.4 L 54.3 117.4 L 51.8 114.4 L 51.0 113.4518518447876 L 51.0 183.0 L 39.0 189.0 L 39.0 110.00882349014282 L 35.2 114.2 L 27.9 121.4 L 20.1 128.2 L 11.8 134.6 L 10.6 133.3 L 17.5 125.5 L 24.0 117.7 L 30.2 109.9 L 36.1 102.0 L 39.0 97.70370368957519 L 39.0 97.0 L 39.475 97.0 L 41.5 94.0 L 46.5 85.8 L 51.2 77.5 L 55.4 69.1 L 59.2 60.5 L 60.93863639831543 56.0 L 15.0 56.0 L 15.0 52.0 L 39.0 52.0 L 39.0 12.0 L 51.0 14.0 L 54.0 16.0 L 51.0 17.8 L 51.0 52.0 L 62.2 52.0 L 68.2 47.0 L 79.2 56.0 L 74.2 59.0 L 72.08137931823731 59.88275861740112 L 69.6 65.2 L 64.9 74.0 L 59.9 82.6 L 54.3 90.9 L 49.801249980926514 97.0 L 51.0 97.0 L 51.0 108.85263156890869 L 54.7 110.8 L 56.40459909439087 111.92016506195068 L 57.0 111.0 L 58.9 107.6 L 60.6 104.4 L 62.1 101.4 L 63.5 98.7 L 64.7 96.1 L 65.8 93.8 L 66.6 91.7 L 67.2 89.8 L 67.35934963226319 89.16260166168213 L 67.2 89.1 L 67.55 88.4 L 67.6 88.2 L 67.64014873504638 88.21970262527466 L 68.2 87.1 L 75.57714004516602 91.7287938117981 L 82.0 85.8 L 88.2 79.6 L 94.2 73.0 L 99.9 66.0 L 105.3 58.5 L 110.5 50.5 L 115.3 42.1 L 119.9 33.2 L 124.3 23.8 L 127.93228073120117 14.810105228424073 L 127.9 14.8 L 128.8 12.6 L 139.4 18.4 L 141.4 21.4 L 137.71947479248047 21.97111597061157 L 136.72227182388306 24.090172290802002 L 138.4 26.5 L 143.7 34.0 L 149.0 41.0 L 154.2 47.5 L 159.5 53.5 L 164.9 59.0 L 170.3 63.9 L 175.8 68.3 L 181.4 72.1 L 187.0 75.5 L 191.2 78.1 L 180.0 86.7 L 174.0 82.3 Z M 163.0 145.5 L 165.0 145.5 L 163.0 170.5 L 166.6 172.9 L 169.0 176.5 L 166.6 180.1 L 163.0 182.5 L 121.2 182.5 L 118.6 182.3 L 116.1 181.9 L 113.7 181.1 L 111.5 179.9 L 109.4 178.2 L 107.8 176.2 L 106.6 173.9 L 105.8 171.5 L 105.3 169.0 L 105.2 166.5 L 105.2 123.5 L 117.2 125.5 L 120.2 127.5 L 117.2 129.3 L 117.2 166.5 L 117.3 167.7 L 117.4 168.6 L 117.6 169.2 L 117.8 169.5 L 117.9 169.7 L 118.1 169.9 L 118.5 170.1 L 120.0 170.4 L 121.2 170.5 L 157.0 170.5 Z M 78.4 174.5 L 76.6 170.3 L 78.2 166.1 L 80.0 164.5 L 81.7 162.3 L 83.3 159.6 L 84.9 156.3 L 86.4 152.3 L 87.7 147.8 L 88.8 142.8 L 89.9 137.2 L 90.9 131.1 L 91.7 124.4 L 93.5 124.4 L 94.5 131.2 L 95.0 137.5 L 95.2 143.4 L 95.0 149.0 L 94.5 154.1 L 93.7 158.9 L 92.6 163.3 L 91.1 167.4 L 89.2 171.1 L 86.9 174.4 L 82.7 176.2 Z M 175.9 157.1 L 175.0 153.1 L 173.9 149.1 L 172.7 145.3 L 171.3 141.6 L 169.6 137.8 L 165.9 130.4 L 163.7 126.8 L 165.0 125.6 L 168.5 128.3 L 171.8 131.3 L 174.8 134.5 L 177.5 138.0 L 180.0 141.7 L 182.3 145.7 L 184.3 149.8 L 186.1 154.1 L 187.6 158.6 L 188.9 163.3 L 187.9 167.7 L 184.0 170.2 L 179.6 169.2 L 177.1 165.4 L 176.6 161.2 Z M 136.1 141.5 L 135.1 138.5 L 134.0 135.5 L 131.4 129.9 L 130.0 127.2 L 126.8 122.0 L 124.9 119.7 L 126.0 118.2 L 128.7 119.9 L 131.5 121.6 L 134.2 123.6 L 136.7 125.9 L 139.1 128.4 L 141.4 131.1 L 143.6 134.1 L 145.6 137.2 L 147.4 140.6 L 149.2 144.1 L 148.8 148.7 L 145.4 151.8 L 140.9 151.4 L 137.8 148.1 L 137.0 144.7 Z M 174.7 95.4 L 169.7 98.4 L 167.0557336807251 99.50177764892578 L 157.6 123.1 L 144.2 124.0 L 156.35032682418824 95.4 L 96.5 95.4 L 96.5 91.4 L 157.7 91.4 L 163.7 86.4 Z M 154.1 69.3 L 154.1 73.3 L 111.8 73.3 L 111.8 69.3 L 135.9181818008423 69.3 L 144.1 60.3 Z " />
</g>
</svg>
