<svg xmlns="http://www.w3.org/2000/svg" xmlns:xlink="http://www.w3.org/1999/xlink" version="1.1" baseProfile="full" viewBox="0 0 200 200" width="200" height="200">
<g fill="black">
<path d="M 22.7 176.0 L 26.9 174.7 L 31.4 173.2 L 36.0 171.5361701965332 L 36.0 138.09516124725343 L 32.1 140.8 L 25.4 144.9 L 18.2 148.9 L 10.4 152.7 L 9.5 151.2 L 16.1 145.8 L 22.3 140.6 L 28.1 135.5 L 33.5 130.6 L 38.4 125.8 L 42.8 121.0 L 46.8 116.4 L 50.3 111.8 L 52.83333330154419 108.0 L 13.0 108.0 L 13.0 104.0 L 55.0 104.0 L 55.0 80.0 L 67.0 82.0 L 70.0 84.0 L 67.0 85.8 L 67.0 104.0 L 90.0 104.0 L 100.0 94.0 L 112.0 104.0 L 112.0 108.0 L 66.91612901687623 108.0 L 66.1 109.1 L 62.6 113.8 L 58.6 118.5 L 54.2 123.1 L 49.3 127.7 L 44.0 132.1 L 43.75140190124512 132.29190034866332 L 48.0 133.0 L 51.0 135.0 L 48.0 136.8 L 48.0 166.95964908599854 L 52.3 165.3 L 58.3 162.9 L 64.7 160.3 L 71.4 157.8 L 78.5 155.2 L 79.4 156.7 L 73.2 161.1 L 67.1 165.1 L 61.3 168.8 L 55.6 172.1 L 50.3 175.2 L 45.1 178.0 L 40.2 180.7 L 35.6 183.1 L 31.2 185.2 L 30.905038166046143 185.3404580116272 L 30.0 189.3 L 27.0 187.2 L 20.9 176.7 Z M 126.12765960693359 17.723404216766358 L 127.2 49.0 L 129.80666666030885 72.0 L 166.0 72.0 L 176.0 62.0 L 188.0 72.0 L 188.0 76.0 L 130.26000003814698 76.0 L 130.6 79.0 L 135.7 104.3 L 142.2 125.2 L 145.87323417663575 133.6688455581665 L 146.9 132.2 L 153.6 120.9 L 159.6 108.7 L 164.62321853637695 96.60706653594971 L 164.6 96.6 L 165.5 94.3 L 176.1 100.1 L 178.2 103.1 L 174.4683765411377 103.67904500961303 L 169.9 113.7 L 162.9 126.3 L 155.2 137.8 L 150.5540410041809 143.7333933830261 L 157.1 154.7 L 164.6 163.9 L 171.5 170.0 L 175.64285717010497 172.21428575515748 L 181.0 149.0 L 183.0 149.0 L 181.07446804046631 174.0319149017334 L 185.2 175.8 L 187.0 180.0 L 185.2 184.2 L 181.0 186.0 L 173.0 184.3 L 164.6 179.8 L 156.0 172.3 L 147.2 161.5 L 142.27851829528808 153.27823066711426 L 137.9 157.9 L 128.2 166.3 L 117.9 173.7 L 107.0 180.0 L 95.4 185.0 L 83.2 188.8 L 82.7 187.1 L 93.8 181.5 L 104.3 175.3 L 114.1 168.3 L 123.3 160.6 L 131.8 152.0 L 137.67514562606812 144.93495149612426 L 130.9 129.3 L 124.1 107.3 L 118.7 80.9 L 118.14677419662476 76.0 L 12.0 76.0 L 12.0 72.0 L 56.0 72.0 L 56.0 57.0 L 29.0 57.0 L 29.0 53.0 L 56.0 53.0 L 56.0 37.0 L 19.0 37.0 L 19.0 33.0 L 56.0 33.0 L 56.0 12.0 L 68.0 14.0 L 71.0 16.0 L 68.0 17.8 L 68.0 33.0 L 84.0 33.0 L 94.0 23.0 L 106.0 33.0 L 106.0 37.0 L 68.0 37.0 L 68.0 53.0 L 77.81818180084228 53.0 L 86.0 44.0 L 96.0 53.0 L 96.0 57.0 L 68.0 57.0 L 68.0 72.0 L 117.69516124725342 72.0 L 115.2 49.9 L 114.03333330154419 14.997222232818604 L 114.0 15.0 L 114.0 11.6 L 126.0 14.0 L 129.0 16.0 Z M 90.6 161.2 L 87.7 157.8 L 84.3 154.4 L 80.5 150.8 L 76.2 147.3 L 71.6 143.7 L 66.6 140.0 L 61.2 136.2 L 55.5 132.2 L 56.2 130.6 L 63.0 132.8 L 69.2 135.4 L 75.1 138.1 L 80.5 141.0 L 81.22310752868653 141.43386449813843 L 82.6 140.1 L 85.4 136.9 L 88.1 133.9 L 90.6 131.1 L 93.0 128.4 L 95.2 125.9 L 97.2 123.6 L 99.0 121.4 L 100.6 119.3 L 101.41338024139404 118.19612674713134 L 101.3 118.1 L 102.3 117.1 L 110.5 125.9 L 111.2 129.4 L 107.0058346748352 128.36985416412352 L 106.1 129.0 L 103.6 130.7 L 100.9 132.5 L 98.0 134.3 L 95.0 136.3 L 91.7 138.3 L 88.1 140.3 L 84.3 142.3 L 83.50427350997924 142.80256414413452 L 85.5 144.0 L 90.2 147.2 L 94.5 150.5 L 98.4 153.9 L 102.0 157.4 L 105.1 161.1 L 106.1 165.5 L 103.7 169.4 L 99.2 170.3 L 95.3 167.9 L 93.2 164.6 Z M 157.2 43.6 L 155.4 40.8 L 153.4 38.0 L 151.3 35.3 L 149.1 32.6 L 146.7 30.0 L 144.1 27.3 L 141.4 24.7 L 138.4 22.2 L 139.3 20.6 L 142.9 22.1 L 146.6 23.6 L 150.2 25.4 L 153.5 27.4 L 156.7 29.6 L 159.8 31.9 L 162.7 34.5 L 165.5 37.3 L 168.1 40.2 L 170.5 43.3 L 171.2 47.8 L 168.5 51.5 L 164.0 52.2 L 160.3 49.5 L 158.8 46.5 Z " />
</g>
</svg>
