<svg xmlns="http://www.w3.org/2000/svg" xmlns:xlink="http://www.w3.org/1999/xlink" version="1.1" baseProfile="full" viewBox="0 0 200 200" width="200" height="200">
<g fill="black">
<path d="M 66.7 132.0 L 65.2 129.2 L 63.5 126.3 L 61.6 123.3 L 59.4 120.4 L 57.1 117.4 L 54.5 114.4 L 53.5 113.25714282989502 L 53.5 183.0 L 41.5 189.0 L 41.5 109.96086959838867 L 37.6 114.2 L 30.2 121.4 L 22.3 128.2 L 13.9 134.6 L 12.7 133.3 L 19.7 125.5 L 26.3 117.7 L 32.6 109.9 L 38.6 102.0 L 41.5 97.78181819915771 L 41.5 97.0 L 42.0375 97.0 L 44.1 94.0 L 49.2 85.8 L 53.9 77.5 L 58.2 69.1 L 62.0 60.5 L 63.78977270126343 56.0 L 17.1 56.0 L 17.1 52.0 L 41.5 52.0 L 41.5 12.0 L 53.5 14.0 L 56.5 16.0 L 53.5 17.8 L 53.5 52.0 L 65.1 52.0 L 71.1 47.0 L 82.1 56.0 L 77.1 59.0 L 74.85724134445191 59.93448276519776 L 72.4 65.2 L 67.7 74.0 L 62.5 82.6 L 57.0 90.9 L 52.348750019073485 97.0 L 53.5 97.0 L 53.5 108.8 L 57.4 110.8 L 59.155090141296384 111.9533450126648 L 59.8 111.0 L 61.6 107.6 L 63.4 104.4 L 65.0 101.4 L 66.4 98.7 L 67.6 96.1 L 68.7 93.8 L 69.5 91.7 L 70.2 89.8 L 70.36283521652221 89.10795021057129 L 70.1 89.0 L 71.1 87.1 L 81.3 93.6 L 83.1 96.7 L 78.37054109573364 97.0206413269043 L 78.3 97.1 L 76.6 99.0 L 74.6 101.1 L 72.5 103.2 L 70.2 105.4 L 67.6 107.7 L 64.8 110.2 L 61.8 112.7 L 61.16842107772827 113.28947372436524 L 64.3 115.5 L 67.4 118.0 L 70.3 120.7 L 73.0 123.5 L 75.5 126.4 L 77.8 129.5 L 79.8 132.7 L 79.9 137.3 L 76.9 140.7 L 72.3 140.8 L 68.9 137.8 L 67.9 134.9 Z M 124.3 127.3 L 123.4084210395813 135.0 L 147.5 135.0 L 147.5 100.5 L 159.5 102.5 L 162.5 104.5 L 159.5 106.3 L 159.5 135.0 L 165.4 135.0 L 175.4 125.0 L 187.4 135.0 L 187.4 139.0 L 159.5 139.0 L 159.5 181.3 L 147.5 187.3 L 147.5 139.0 L 122.82921352386475 139.0 L 121.7 145.7 L 119.8 153.8 L 117.4 161.2 L 114.5 167.8 L 111.1 173.6 L 107.2 178.6 L 102.8 182.7 L 97.9 185.8 L 92.8 187.8 L 91.9 186.2 L 95.7 182.8 L 99.0 178.9 L 101.9 174.7 L 104.5 169.9 L 106.7 164.4 L 108.5 158.3 L 110.0 151.5 L 111.2 143.9 L 111.61829271316529 139.0 L 83.1 139.0 L 83.1 135.0 L 111.93111114501953 135.0 L 112.3 126.7 L 112.3 100.5 L 124.3 102.5 L 127.3 104.5 L 124.3 106.3 L 124.3 127.0 L 124.10645160675048 127.29032258987426 Z M 83.3 94.0 L 129.0 94.0 L 129.0 63.0 L 95.9 63.0 L 95.9 59.0 L 129.0 59.0 L 129.0 30.0 L 90.9 30.0 L 90.9 26.0 L 157.1 26.0 L 167.1 16.0 L 179.1 26.0 L 179.1 30.0 L 141.0 30.0 L 141.0 59.0 L 152.0 59.0 L 162.0 49.0 L 174.0 59.0 L 174.0 63.0 L 141.0 63.0 L 141.0 94.0 L 164.6 94.0 L 174.6 84.0 L 186.6 94.0 L 186.6 98.0 L 83.3 98.0 Z " />
</g>
</svg>
