<svg xmlns="http://www.w3.org/2000/svg" xmlns:xlink="http://www.w3.org/1999/xlink" version="1.1" baseProfile="full" viewBox="0 0 200 200" width="200" height="200">
<g fill="black">
<path d="M 158.4 179.3 L 149.3 175.2 L 140.9 170.5 L 133.2 165.3 L 126.3 159.6 L 120.0 153.3 L 114.6 146.4 L 110.1 139.1 L 107.38741540908813 132.9773090362549 L 104.3 134.8 L 97.8 138.6 L 90.7 142.2 L 83.1 145.8 L 74.9 149.2 L 74.0 149.54772729873656 L 74.0 171.1086956977844 L 75.0 171.0 L 84.3 170.0 L 93.5 169.0 L 102.8 167.9 L 112.1 166.9 L 121.4 166.1 L 130.8 165.4 L 131.1 167.2 L 122.1 169.8 L 113.0 172.2 L 103.9 174.4 L 94.8 176.4 L 85.6 178.4 L 76.5 180.2 L 67.3 182.0 L 58.1 183.7 L 48.9 185.3 L 43.78284025192261 186.13431949615477 L 42.1 189.5 L 39.7 186.8 L 36.2 175.2 L 38.2 174.9 L 47.4 174.0 L 62.0 172.41304349899292 L 62.0 153.9957447052002 L 56.7 155.8 L 46.7 158.9 L 36.2 161.9 L 25.0 164.7 L 13.2 167.1 L 12.7 165.4 L 23.9 161.0 L 34.5 156.8 L 44.6 152.7 L 54.0 148.7 L 62.8 144.7 L 71.0 140.7 L 78.6 136.8 L 85.6 132.8 L 86.99655170440674 131.9 L 18.0 131.9 L 18.0 127.9 L 95.0 127.9 L 95.0 114.1 L 107.0 116.1 L 110.0 118.1 L 107.0 119.9 L 107.0 127.9 L 164.0 127.9 L 174.0 117.9 L 186.0 127.9 L 186.0 131.9 L 109.55 131.9 L 113.6 136.7 L 119.2 142.7 L 125.1 148.1 L 131.5 153.1 L 132.7842149734497 153.93753147125244 L 133.4 153.5 L 137.0 150.9 L 140.5 148.3 L 144.0 145.9 L 147.3 143.5 L 150.5 141.2 L 153.5 139.0 L 156.4 136.7 L 159.2 134.5 L 160.9620792388916 133.07678213119507 L 160.9 133.0 L 160.96704654693605 133.07277002334595 L 161.8 132.4 L 165.67264194488524 138.18006258010865 L 169.1 141.9 L 169.2 145.5 L 165.4425742149353 143.92871284484863 L 165.3 144.0 L 162.0 145.7 L 158.5 147.3 L 154.9 149.0 L 151.2 150.6 L 147.3 152.1 L 143.3 153.6 L 139.1 155.1 L 136.0025424003601 156.03644065856935 L 138.4 157.6 L 145.9 161.6 L 153.9 165.2 L 162.4 168.2 L 171.6 170.9 L 181.4 173.0 L 190.3 175.0 L 178.5 185.9 L 168.1 182.9 Z M 147.6 72.2 L 146.3 70.7 L 144.8 69.1 L 143.1 67.5 L 141.2 65.9 L 139.1 64.3 L 136.8 62.6 L 134.4 60.8 L 131.6 59.4 L 131.8 58.83333330154419 L 131.3 59.0 L 130.6 57.4 L 133.5 55.6 L 136.1 53.4 L 138.6 51.4 L 140.9 49.5 L 143.1 47.7 L 145.1 45.9 L 147.0 44.2 L 148.6 42.5 L 150.1 40.9 L 150.7932602882385 40.10008420944214 L 150.7 40.0 L 151.21428575515748 39.61428575515747 L 151.4 39.4 L 151.4374376296997 39.446921825408936 L 151.5 39.4 L 158.9 48.8 L 159.2 52.4 L 154.86713619232177 50.82441310882568 L 154.5 51.0 L 152.1 52.1 L 149.6 53.1 L 146.9 54.1 L 144.1 55.1 L 141.1 56.1 L 138.0 57.0 L 134.6 57.9 L 133.89090909957886 58.13636360168457 L 135.3 58.5 L 138.3 59.0 L 141.3 59.6 L 144.1 60.3 L 146.7 61.1 L 149.2 62.0 L 151.6 63.0 L 153.9 64.1 L 156.0 65.3 L 158.1 66.6 L 159.8 70.8 L 158.1 75.1 L 158.03257837295533 75.1266550064087 L 169.0 84.1 L 164.0 88.1 L 164.0 114.8 L 152.0 120.8 L 152.0 112.8 L 48.0 112.8 L 48.0 115.8 L 36.0 121.8 L 36.0 74.1 L 48.0 80.1 L 152.0 80.1 L 157.9097345352173 75.1752212524414 L 153.8 76.8 L 149.6 75.1 L 148.7 73.7 Z M 48.0 84.1 L 48.0 108.8 L 152.0 108.8 L 152.0 84.1 Z M 53.6 72.2 L 52.3 70.7 L 50.8 69.1 L 49.1 67.5 L 47.2 65.9 L 45.1 64.3 L 42.8 62.6 L 40.4 60.8 L 37.6 59.4 L 37.8 58.83333330154419 L 37.3 59.0 L 36.6 57.4 L 39.5 55.6 L 42.1 53.4 L 44.6 51.4 L 46.9 49.5 L 49.1 47.7 L 51.1 45.9 L 53.0 44.2 L 54.6 42.5 L 56.1 40.9 L 56.79326028823853 40.10008420944214 L 56.7 40.0 L 57.21428575515747 39.61428575515747 L 57.4 39.4 L 57.43743762969971 39.446921825408936 L 57.5 39.4 L 64.9 48.8 L 65.2 52.4 L 60.86713619232178 50.82441310882568 L 60.5 51.0 L 58.1 52.1 L 55.6 53.1 L 52.9 54.1 L 50.1 55.1 L 47.1 56.1 L 44.0 57.0 L 40.6 57.9 L 39.890909099578856 58.13636360168457 L 41.3 58.5 L 44.3 59.0 L 47.3 59.6 L 50.1 60.3 L 52.7 61.1 L 55.2 62.0 L 57.6 63.0 L 59.9 64.1 L 62.0 65.3 L 64.1 66.6 L 65.8 70.8 L 64.1 75.1 L 59.8 76.8 L 55.6 75.1 L 54.7 73.7 Z M 100.6 72.2 L 99.3 70.7 L 97.8 69.1 L 96.1 67.5 L 94.2 65.9 L 92.1 64.3 L 89.8 62.6 L 87.4 60.8 L 84.6 59.4 L 84.8 58.83333330154419 L 84.3 59.0 L 83.6 57.4 L 86.5 55.6 L 89.1 53.4 L 91.6 51.4 L 93.9 49.5 L 96.1 47.7 L 98.1 45.9 L 100.0 44.2 L 101.6 42.5 L 103.1 40.9 L 103.79326028823853 40.10008420944214 L 103.7 40.0 L 104.21428575515748 39.61428575515747 L 104.4 39.4 L 104.4374376296997 39.446921825408936 L 104.5 39.4 L 111.9 48.8 L 112.2 52.4 L 107.86713619232178 50.82441310882568 L 107.5 51.0 L 105.1 52.1 L 102.6 53.1 L 99.9 54.1 L 97.1 55.1 L 94.1 56.1 L 91.0 57.0 L 87.6 57.9 L 86.89090909957886 58.13636360168457 L 88.3 58.5 L 91.3 59.0 L 94.3 59.6 L 97.1 60.3 L 99.7 61.1 L 102.2 62.0 L 104.6 63.0 L 106.9 64.1 L 109.0 65.3 L 111.1 66.6 L 112.8 70.8 L 111.1 75.1 L 106.8 76.8 L 102.6 75.1 L 101.7 73.7 Z M 15.0 34.6 L 94.0 34.6 L 94.0 12.1 L 106.0 14.1 L 109.0 16.1 L 106.0 17.9 L 106.0 34.6 L 163.0 34.6 L 173.0 24.6 L 185.0 34.6 L 185.0 38.6 L 15.0 38.6 Z " />
</g>
</svg>
