<svg xmlns="http://www.w3.org/2000/svg" xmlns:xlink="http://www.w3.org/1999/xlink" version="1.1" baseProfile="full" viewBox="0 0 200 200" width="200" height="200">
<g fill="black">
<path d="M 170.0 108.1 L 168.1 109.4 L 166.0 110.6 L 163.9 111.6 L 161.7 112.4 L 159.5 113.1 L 157.1 113.5 L 154.8 113.8 L 152.4 113.9 L 152.4 107.9 L 132.4 104.9 L 132.4 101.9 L 152.4 101.9 L 153.9 101.8 L 155.3 101.7 L 156.7 101.4 L 159.3 100.6 L 160.5 100.0 L 161.7 99.3 L 162.8 98.5 L 164.0 97.6 L 165.1 96.5 L 165.7 95.6 L 166.7 93.5 L 167.8 90.3 L 168.7 86.1 L 169.6 81.0 L 170.3 74.9 L 170.8 67.9 L 171.3 60.1 L 171.5 51.3 L 171.57894735336305 43.8 L 146.81261262893676 43.8 L 146.2 52.3 L 144.4 62.6 L 141.5 72.2 L 137.6 80.9 L 132.6 88.8 L 126.7 95.8 L 119.8 101.8 L 112.0 106.9 L 103.2 110.9 L 100.13913040161133 111.85652170181274 L 107.0 113.0 L 110.0 115.0 L 107.0 116.8 L 107.0 125.3 L 164.0 125.3 L 174.0 115.3 L 186.0 125.3 L 186.0 129.3 L 109.40895519256591 129.3 L 113.6 134.5 L 119.2 140.7 L 125.2 146.4 L 131.6 151.6 L 132.79853897094728 152.41639614105225 L 133.4 152.0 L 137.0 149.2 L 140.5 146.6 L 143.9 144.1 L 147.2 141.7 L 150.4 139.3 L 153.4 137.0 L 156.3 134.7 L 159.1 132.4 L 160.93745136260986 130.84523344039917 L 160.9 130.8 L 160.93902435302735 130.84390239715577 L 161.7 130.2 L 166.54210529327392 137.1473684310913 L 168.9 139.8 L 169.0 143.4 L 165.33021669387819 141.83694410324097 L 162.0 143.6 L 158.6 145.3 L 155.0 147.0 L 151.3 148.7 L 147.4 150.3 L 143.4 151.9 L 139.2 153.4 L 135.82096242904663 154.4751482963562 L 138.5 156.3 L 145.9 160.5 L 153.9 164.2 L 162.5 167.4 L 171.7 170.2 L 181.4 172.4 L 190.2 174.5 L 178.5 185.3 L 168.1 182.2 L 158.3 178.5 L 149.2 174.2 L 140.8 169.4 L 133.1 164.0 L 126.2 158.0 L 120.0 151.5 L 114.6 144.4 L 110.1 136.8 L 107.39879627227783 130.4714656829834 L 104.4 132.3 L 97.9 136.2 L 90.8 140.0 L 83.1 143.7 L 74.9 147.3 L 74.0 147.64772729873658 L 74.0 170.41956520080566 L 75.0 170.3 L 84.3 169.2 L 93.5 168.1 L 102.8 167.0 L 121.4 165.0 L 130.8 164.3 L 131.1 166.0 L 122.1 168.8 L 113.0 171.2 L 103.9 173.5 L 94.8 175.6 L 85.6 177.6 L 76.5 179.5 L 67.3 181.3 L 48.9 184.7 L 43.77314453125 185.60142517089844 L 42.1 189.0 L 39.8 186.3 L 36.1 174.7 L 38.1 174.4 L 47.3 173.4 L 56.6 172.4 L 62.0 171.81304349899293 L 62.0 152.19892473220824 L 56.8 154.1 L 46.8 157.4 L 36.2 160.5 L 25.0 163.4 L 13.2 166.0 L 12.7 164.3 L 23.9 159.8 L 34.5 155.4 L 44.5 151.2 L 53.9 147.1 L 62.8 143.0 L 71.0 138.8 L 78.6 134.7 L 85.5 130.6 L 87.43030300140381 129.3 L 18.0 129.3 L 18.0 125.3 L 95.0 125.3 L 95.0 113.4625 L 93.6 113.9 L 93.0 112.2 L 95.0 111.1069766998291 L 95.0 111.0 L 95.15 111.025 L 101.6 107.5 L 109.0 102.4 L 115.5 96.8 L 121.0 90.7 L 125.6 84.1 L 129.2 76.9 L 132.0 69.0 L 133.9 60.5 L 134.9 51.2 L 134.97399997711182 43.8 L 107.5 43.8 L 107.5 39.8 L 135.0 39.8 L 135.0 14.3 L 147.0 16.3 L 150.0 18.3 L 147.0 20.1 L 147.0 39.8 L 171.6 39.8 L 177.6 34.8 L 188.6 43.8 L 183.6 46.8 L 183.54876174926758 46.82134923934937 L 183.5 51.6 L 183.2 60.5 L 182.8 68.7 L 182.2 76.1 L 181.5 82.6 L 180.5 88.4 L 179.3 93.5 L 177.9 97.9 L 176.1 101.7 L 173.6 104.9 L 171.9 106.6 Z M 16.8 101.1 L 25.3 100.7 L 33.9 100.3 L 42.8 99.8 L 51.9 99.4 L 56.5 99.15268821716309 L 56.5 90.8 L 24.0 90.8 L 24.0 86.8 L 56.5 86.8 L 56.5 74.7 L 35.5 74.7 L 23.5 80.7 L 23.5 37.5 L 35.5 43.5 L 56.5 43.5 L 56.5 35.9 L 16.3 35.9 L 16.3 31.9 L 56.5 31.9 L 56.5 26.06363639831543 L 50.9 26.5 L 43.0 26.9 L 34.7 27.3 L 26.2 27.6 L 17.5 27.6 L 17.2 25.8 L 25.8 23.8 L 34.1 22.0 L 42.2 20.4 L 50.0 18.9 L 57.5 17.5 L 64.8 16.1 L 71.8 14.8 L 78.6 13.5 L 85.1 12.2 L 90.3022801399231 11.109199333190919 L 90.3 11.1 L 90.309375 11.107711696624756 L 91.3 10.9 L 91.48795442581176 12.077188301086426 L 102.7 21.3 L 103.1 24.3 L 98.58136644363404 21.950310516357423 L 93.2 22.8 L 86.8 23.4 L 80.1 24.1 L 73.2 24.7 L 70.22687501907349 24.951249980926512 L 71.5 25.8 L 68.5 27.6 L 68.5 31.9 L 94.4777777671814 31.9 L 100.7 24.9 L 108.7 31.9 L 108.7 35.9 L 68.5 35.9 L 68.5 43.5 L 89.5 43.5 L 95.5 38.5 L 106.5 47.5 L 101.5 51.5 L 101.5 74.7 L 92.53571424484252 79.18214282989501 L 101.0 86.8 L 101.0 90.8 L 68.5 90.8 L 68.5 98.43894739151001 L 70.7 98.3 L 80.4 97.8 L 90.3 97.4 L 100.4 97.0 L 110.7 96.8 L 111.0 98.6 L 100.8 100.8 L 90.9 102.7 L 81.1 104.4 L 71.4 105.9 L 62.0 107.3 L 52.8 108.6 L 43.7 109.8 L 34.9 111.0 L 26.2 112.0 L 21.835135173797607 112.51351346969605 L 19.9 115.9 L 17.7 113.0 L 14.8 101.2 Z M 68.5 74.7 L 68.5 86.8 L 82.81818180084228 86.8 L 89.5 79.45 L 89.5 74.7 Z M 35.5 60.9 L 35.5 70.7 L 56.5 70.7 L 56.5 60.9 Z M 68.5 60.9 L 68.5 70.7 L 89.5 70.7 L 89.5 60.9 Z M 35.5 47.5 L 35.5 56.9 L 56.5 56.9 L 56.5 47.5 Z M 68.5 47.5 L 68.5 56.9 L 89.5 56.9 L 89.5 47.5 Z " />
</g>
</svg>
