<svg xmlns="http://www.w3.org/2000/svg" xmlns:xlink="http://www.w3.org/1999/xlink" version="1.1" baseProfile="full" viewBox="0 0 200 200" width="200" height="200">
<g fill="black">
<path d="M 66.9 132.1 L 65.3 129.2 L 63.6 126.3 L 61.6 123.4 L 59.3 120.4 L 56.9 117.4 L 54.2 114.4 L 52.9 113.01034479141235 L 52.9 183.0 L 40.9 189.0 L 40.9 109.6777777671814 L 36.5 114.2 L 28.9 121.4 L 20.8 128.2 L 12.2 134.6 L 11.0 133.3 L 18.2 125.5 L 25.1 117.7 L 31.7 109.9 L 37.8 101.9 L 40.9 97.54912281036377 L 40.9 97.0 L 41.29125003814697 97.0 L 43.5 93.9 L 48.8 85.8 L 53.7 77.4 L 58.1 69.0 L 62.1 60.4 L 63.9 56.0 L 15.5 56.0 L 15.5 52.0 L 40.9 52.0 L 40.9 12.0 L 52.9 14.0 L 55.9 16.0 L 52.9 17.8 L 52.9 52.0 L 65.2 52.0 L 71.2 47.0 L 82.2 56.0 L 77.2 59.0 L 75.03999996185303 59.9 L 72.4 65.3 L 67.6 74.1 L 62.3 82.7 L 56.5 90.9 L 51.83086423873901 97.0 L 52.9 97.0 L 52.9 108.70243902206421 L 53.1 108.8 L 57.0 110.8 L 58.93079509735107 111.94804029464721 L 59.6 111.0 L 61.6 107.5 L 63.4 104.3 L 65.0 101.4 L 66.5 98.6 L 67.8 96.1 L 68.9 93.7 L 69.8 91.6 L 70.5 89.7 L 70.7207857131958 88.99348583221436 L 70.5 88.9 L 71.5 87.0 L 81.6 93.6 L 83.3 96.8 L 78.65065460205078 97.04048337936402 L 78.5 97.2 L 76.7 99.1 L 74.8 101.1 L 72.6 103.2 L 70.2 105.5 L 67.6 107.8 L 64.7 110.2 L 61.6 112.7 L 61.02942581176758 113.23253583908081 L 64.1 115.4 L 67.3 117.9 L 70.3 120.6 L 73.1 123.4 L 75.7 126.4 L 78.0 129.4 L 80.1 132.6 L 80.3 137.2 L 77.3 140.7 L 72.7 140.8 L 69.2 137.8 L 68.2 135.0 Z M 123.6 163.1 L 124.1 166.7 L 120.37248640060425 165.50187063217163 L 119.3 166.3 L 114.8 169.3 L 110.0 172.2 L 104.9 175.0 L 99.6 177.6 L 94.0 180.0 L 88.1 182.3 L 81.9 184.4 L 75.5 186.3 L 68.7 187.8 L 68.1 186.1 L 74.1 182.7 L 79.8 179.5 L 85.3 176.4 L 90.5 173.3 L 95.5 170.2 L 100.1 167.0 L 104.4 163.8 L 108.5 160.6 L 112.2 157.4 L 114.92861843109131 154.82730264663695 L 114.9 154.8 L 115.9 153.9 Z M 171.1 179.0 L 168.1 176.1 L 164.7 173.2 L 161.0 170.3 L 156.9 167.4 L 152.5 164.5 L 147.7 161.5 L 142.7 158.4 L 137.3 155.2 L 138.0 153.5 L 144.2 154.9 L 150.0 156.7 L 155.5 158.6 L 160.6 160.8 L 165.4 163.1 L 170.0 165.6 L 174.2 168.1 L 178.1 170.9 L 181.7 173.7 L 185.1 176.7 L 186.5 181.0 L 184.6 185.2 L 180.3 186.7 L 176.1 184.7 L 173.8 181.9 Z M 102.1 73.3 L 167.2 73.3 L 173.2 68.3 L 184.2 77.3 L 179.2 81.3 L 179.2 147.6 L 167.2 153.6 L 167.2 147.6 L 102.1 147.6 L 102.1 154.6 L 90.1 160.6 L 90.1 67.3 Z M 102.1 123.2 L 102.1 143.6 L 167.2 143.6 L 167.2 123.2 Z M 102.1 100.2 L 102.1 119.2 L 167.2 119.2 L 167.2 100.2 Z M 102.1 77.3 L 102.1 96.2 L 167.2 96.2 L 167.2 77.3 Z M 108.7 23.2 L 160.6 23.2 L 166.6 18.2 L 177.6 27.2 L 172.6 31.2 L 172.6 55.7 L 160.6 61.7 L 160.6 53.7 L 108.7 53.7 L 108.7 56.7 L 96.7 62.7 L 96.7 17.2 Z M 108.7 27.2 L 108.7 49.7 L 160.6 49.7 L 160.6 27.2 Z " />
</g>
</svg>
