<svg xmlns="http://www.w3.org/2000/svg" xmlns:xlink="http://www.w3.org/1999/xlink" version="1.1" baseProfile="full" viewBox="0 0 200 200" width="200" height="200">
<g fill="black">
<path d="M 18.1 142.9 L 25.3 142.2 L 39.9 140.6 L 47.3 139.7 L 50.96608333587646 139.20458335876464 L 51.0 137.0 L 51.0 117.0 L 16.0 117.0 L 16.0 113.0 L 51.0 113.0 L 51.0 93.3764705657959 L 48.6 93.8 L 41.3 95.1 L 33.7 96.4 L 25.6 97.6 L 17.2 98.8 L 16.7 97.1 L 24.7 94.0 L 32.4 91.2 L 39.7 88.7 L 46.8 86.5 L 53.5 84.4 L 59.8 82.5 L 65.8 80.7 L 71.5 79.1 L 76.8 77.6 L 80.81602201461791 76.55583429336548 L 80.8 76.5 L 80.85572757720948 76.5455108642578 L 81.8 76.3 L 82.03807907104492 77.51109790802002 L 92.8 86.3 L 92.96999998092652 88.0 L 166.8181818008423 88.0 L 175.0 79.0 L 185.0 88.0 L 185.0 92.0 L 139.0 92.0 L 139.0 116.0 L 155.0 116.0 L 165.0 106.0 L 177.0 116.0 L 177.0 120.0 L 139.0 120.0 L 139.0 145.0 L 164.0 145.0 L 174.0 135.0 L 186.0 145.0 L 186.0 149.0 L 139.0 149.0 L 139.0 180.0 L 127.0 186.0 L 127.0 149.0 L 81.0 149.0 L 81.0 145.0 L 127.0 145.0 L 127.0 120.0 L 99.0 120.0 L 99.0 116.0 L 127.0 116.0 L 127.0 92.0 L 89.0 92.0 L 89.0 88.0 L 90.4277777671814 88.0 L 88.61448745727539 87.11785879135132 L 84.1 88.0 L 79.2 88.7 L 73.8 89.6 L 68.0 90.5 L 61.9 91.5 L 60.957251930236815 91.65954198837281 L 63.0 92.0 L 66.0 94.0 L 63.0 95.8 L 63.0 113.0 L 73.0 113.0 L 83.0 103.0 L 95.0 113.0 L 95.0 117.0 L 63.0 117.0 L 63.0 137.0 L 62.93728809356689 137.689830493927 L 77.3 135.8 L 84.9 134.9 L 92.7 134.1 L 93.2 135.8 L 85.8 138.6 L 78.4 141.0 L 71.0 143.2 L 63.6 145.2 L 62.10350322723389 145.58423566818237 L 60.7 151.9 L 58.4 158.6 L 55.3 164.6 L 51.3 170.0 L 46.7 174.7 L 41.3 178.6 L 35.2 181.8 L 28.5 184.2 L 21.2 185.8 L 20.7 184.1 L 27.1 180.7 L 32.6 177.2 L 37.3 173.4 L 41.3 169.3 L 44.6 164.9 L 47.1 160.2 L 49.0 155.1 L 50.3 149.5 L 50.40504913330078 148.44950914382935 L 41.6 150.5 L 34.3 152.0 L 23.818035793304443 154.01023969650268 L 22.1 157.5 L 19.7 154.8 L 16.2 143.1 Z M 183.0 22.8 L 183.0 26.8 L 130.0 26.8 L 130.0 41.5 L 159.0 41.5 L 165.0 36.5 L 176.0 45.5 L 171.0 49.5 L 171.0 72.0 L 159.0 78.0 L 159.0 45.5 L 130.0 45.5 L 130.0 69.7 L 118.0 75.7 L 118.0 65.7 L 83.0 65.7 L 71.0 71.7 L 71.0 45.5 L 41.0 45.5 L 41.0 72.0 L 29.0 78.0 L 29.0 35.5 L 41.0 41.5 L 71.0 41.5 L 71.0 26.8 L 19.0 26.8 L 19.0 22.8 L 161.0 22.8 L 171.0 12.8 Z M 83.0 45.5 L 83.0 61.7 L 118.0 61.7 L 118.0 45.5 Z M 83.0 26.8 L 83.0 41.5 L 118.0 41.5 L 118.0 26.8 Z " />
</g>
</svg>
