<svg xmlns="http://www.w3.org/2000/svg" xmlns:xlink="http://www.w3.org/1999/xlink" version="1.1" baseProfile="full" viewBox="0 0 200 200" width="200" height="200">
<g fill="black">
<path d="M 128.0 98.1 L 129.8 101.2 L 125.80792646408081 101.47064905166626 L 123.8 104.3 L 121.5 107.4 L 119.2 110.4 L 116.7 113.5 L 114.1 116.5 L 111.4 119.5 L 108.6 122.4 L 108.50366973876953 122.48990821838379 L 112.1 122.4 L 120.6 122.3 L 129.4 122.1 L 138.6 122.0 L 148.1 121.9 L 158.0 122.0 L 161.8293613433838 122.07435655593872 L 161.7 121.9 L 159.2 118.8 L 156.6 115.8 L 153.7 112.8 L 150.7 109.7 L 147.6 106.6 L 144.1 103.6 L 145.1 102.1 L 149.4 103.9 L 153.5 105.8 L 157.5 108.0 L 161.2 110.4 L 164.8 113.0 L 168.2 115.7 L 171.4 118.6 L 174.4 121.7 L 177.2 124.9 L 179.8 128.2 L 180.5 132.7 L 177.9 136.5 L 173.4 137.2 L 169.7 134.6 L 167.9 131.3 L 166.1 128.1 L 164.0 125.0 L 163.82890405654908 124.76939239501954 L 158.3 125.7 L 148.5 127.2 L 139.1 128.5 L 129.9 129.7 L 121.2 130.7 L 112.8 131.7 L 104.7 132.6 L 97.0 133.5 L 89.6 134.2 L 86.6737564086914 134.49262437820434 L 84.7 137.8 L 82.6 134.9 L 79.9 123.1 L 81.9 123.0 L 88.9 122.9 L 96.3 122.7 L 103.44580640792847 122.60838708877563 L 104.9 119.7 L 106.6 116.1 L 108.4 112.6 L 110.0 109.2 L 111.7 105.8 L 113.2 102.4 L 114.7 99.1 L 116.0 95.8 L 116.73125 94.0 L 75.04838705062866 94.0 L 76.5 96.5 L 71.81257858276368 96.98490562438965 L 71.8 97.0 L 70.2 98.9 L 68.3 100.9 L 66.3 103.1 L 61.7 107.7 L 59.0 110.1 L 56.1 112.6 L 55.52404651641846 113.21861667633057 L 58.6 115.6 L 61.6 118.1 L 64.3 120.8 L 66.9 123.6 L 69.2 126.5 L 71.4 129.6 L 73.3 132.8 L 73.3 137.4 L 70.2 140.7 L 65.6 140.7 L 62.3 137.6 L 61.3 134.7 L 60.2 131.9 L 58.9 129.0 L 57.3 126.1 L 55.6 123.2 L 53.6 120.3 L 51.5 117.3 L 49.1 114.3 L 48.7 113.8039999961853 L 48.7 183.0 L 36.7 189.0 L 36.7 110.6384614944458 L 33.7 114.1 L 26.7 121.3 L 19.3 128.2 L 11.4 134.6 L 10.1 133.3 L 16.6 125.5 L 22.7 117.8 L 28.6 110.0 L 34.1 102.1 L 36.7 98.02156858444214 L 36.7 97.0 L 37.35124998092651 97.0 L 39.2 94.1 L 43.9 85.9 L 48.3 77.6 L 52.3 69.2 L 55.9 60.6 L 57.572727298736574 56.0 L 14.3 56.0 L 14.3 52.0 L 36.7 52.0 L 36.7 12.0 L 48.7 14.0 L 51.7 16.0 L 48.7 17.8 L 48.7 52.0 L 58.7 52.0 L 64.7 47.0 L 75.7 56.0 L 70.7 59.0 L 68.62727270126342 59.86363639831543 L 66.3 65.1 L 61.9 73.9 L 57.1 82.5 L 51.9 90.8 L 47.48249998092651 97.0 L 48.7 97.0 L 48.7 109.06216220855713 L 52.1 110.9 L 53.53610105514527 111.87148017883301 L 54.1 111.0 L 55.8 107.6 L 57.3 104.5 L 58.8 101.5 L 60.1 98.8 L 61.2 96.2 L 62.1 93.9 L 62.9 91.8 L 63.5 89.9 L 63.616184043884275 89.28035163879395 L 63.4 89.2 L 63.78144330978394 88.39896907806397 L 63.8 88.3 L 63.82336549758911 88.31093244552612 L 64.4 87.1 L 73.3 92.54368934631347 L 73.3 90.0 L 124.5 90.0 L 124.5 70.2 L 83.2 70.2 L 83.2 66.2 L 124.5 66.2 L 124.5 49.5 L 136.5 51.5 L 139.5 53.5 L 136.5 55.3 L 136.5 66.2 L 155.7 66.2 L 165.7 56.2 L 177.7 66.2 L 177.7 70.2 L 136.5 70.2 L 136.5 90.0 L 165.6 90.0 L 175.6 80.0 L 187.6 90.0 L 187.6 94.0 L 121.72575759887695 94.0 Z M 73.3 181.1 L 89.0 181.1 L 89.0 138.4 L 100.0 143.9 L 160.9 143.9 L 166.4 138.9 L 176.9 147.9 L 171.9 151.4 L 171.9 181.1 L 177.1 181.1 L 181.6 175.1 L 187.6 181.1 L 187.6 185.1 L 73.3 185.1 Z M 100.0 147.9 L 100.0 181.1 L 113.5 181.1 L 113.5 147.9 Z M 123.5 147.9 L 123.5 181.1 L 137.4 181.1 L 137.4 147.9 Z M 147.4 147.9 L 147.4 181.1 L 160.9 181.1 L 160.9 147.9 Z M 155.1 15.4 L 158.1 17.4 L 155.1 19.2 L 155.1 30.9 L 166.3 30.9 L 176.3 20.9 L 188.3 30.9 L 188.3 34.9 L 155.1 34.9 L 155.1 47.7 L 143.1 53.7 L 143.1 34.9 L 117.8 34.9 L 117.8 47.7 L 105.8 53.7 L 105.8 34.9 L 72.6 34.9 L 72.6 30.9 L 105.8 30.9 L 105.8 13.4 L 117.8 15.4 L 120.8 17.4 L 117.8 19.2 L 117.8 30.9 L 143.1 30.9 L 143.1 13.4 Z " />
</g>
</svg>
