<svg xmlns="http://www.w3.org/2000/svg" xmlns:xlink="http://www.w3.org/1999/xlink" version="1.1" baseProfile="full" viewBox="0 0 200 200" width="200" height="200">
<g fill="black">
<path d="M 86.7 129.6 L 104.2 129.6 L 109.7 124.6 L 120.2 133.6 L 115.2 137.1 L 115.2 177.8 L 104.2 183.3 L 104.2 171.8 L 86.7 171.8 L 86.7 183.8 L 74.7 189.8 L 74.7 123.6 Z M 56.1 131.8 L 54.9 128.9 L 53.4 126.0 L 51.8 123.1 L 50.0 120.2 L 48.0 117.3 L 45.8 114.3 L 45.8 183.0 L 33.8 189.0 L 33.8 111.03548383712769 L 31.3 114.1 L 24.7 121.3 L 17.6 128.1 L 10.0 134.6 L 8.7 133.3 L 14.8 125.6 L 20.6 117.8 L 26.1 110.0 L 31.3 102.2 L 33.8 98.11836738586426 L 33.8 97.0 L 34.48500003814697 97.0 L 36.2 94.2 L 40.7 86.0 L 44.8 77.7 L 48.6 69.3 L 52.0 60.7 L 53.60227270126343 56.0 L 12.8 56.0 L 12.8 52.0 L 33.8 52.0 L 33.8 12.0 L 45.8 14.0 L 48.8 16.0 L 45.8 17.8 L 45.8 52.0 L 54.7 52.0 L 60.7 47.0 L 71.7 56.0 L 66.7 59.0 L 64.67752809524536 59.84269666671753 L 62.5 65.0 L 58.3 73.8 L 53.7 82.4 L 48.7 90.7 L 44.44750003814697 97.0 L 45.8 97.0 L 45.8 109.28571424484252 L 48.8 111.0 L 50.042780780792235 111.85441179275513 L 50.5 111.1 L 52.1 107.7 L 53.5 104.5 L 54.9 101.6 L 56.1 98.9 L 57.1 96.3 L 58.0 94.0 L 58.7 91.9 L 59.2 90.0 L 59.3169753074646 89.37613172531128 L 59.1 89.3 L 59.481443309783934 88.49896907806396 L 59.5 88.4 L 59.52357139587402 88.41049995422364 L 60.1 87.2 L 70.5 93.3 L 72.4 96.4 L 67.63696966171264 96.97484846115113 L 66.1 98.8 L 64.3 100.9 L 62.4 103.0 L 60.2 105.2 L 57.9 107.6 L 55.4 110.1 L 52.6 112.6 L 52.02404651641846 113.21861667633057 L 55.1 115.6 L 57.9 118.2 L 60.5 120.9 L 63.0 123.7 L 65.2 126.6 L 67.3 129.7 L 69.1 132.9 L 69.1 137.5 L 65.9 140.7 L 61.3 140.7 L 58.0 137.5 L 57.2 134.6 Z M 135.4 110.8 L 167.9 110.8 L 173.9 105.8 L 184.9 114.8 L 179.9 118.8 L 179.9 175.6 L 167.9 181.6 L 167.9 169.6 L 135.4 169.6 L 135.4 181.6 L 124.4 187.1 L 124.4 105.3 Z M 86.7 133.6 L 86.7 167.8 L 104.2 167.8 L 104.2 133.6 Z M 135.4 114.8 L 135.4 165.6 L 167.9 165.6 L 167.9 114.8 Z M 113.6 104.5 L 113.6 108.5 L 76.9 108.5 L 76.9 104.5 L 95.41818180084229 104.5 L 103.6 95.5 Z M 175.7 87.3 L 174.4 89.3 L 172.7 91.2 L 170.9 92.9 L 168.7 94.2 L 166.5 95.2 L 164.1 95.9 L 161.6 96.3 L 159.1 96.4 L 159.1 90.4 L 139.1 87.4 L 139.1 84.4 L 160.4 84.4 L 161.5 84.2 L 162.4 83.9 L 163.1 83.6 L 163.7 83.2 L 164.3 82.7 L 164.8 82.1 L 165.3 81.3 L 165.8 80.3 L 166.2 79.1 L 167.0 76.3 L 167.7 72.8 L 168.3 68.8 L 168.9 64.1 L 169.5 58.9 L 169.9 53.0 L 170.3 46.6 L 170.6 39.6 L 170.9 32.1 L 170.9740740776062 26.1 L 152.8689655303955 26.1 L 152.2 35.8 L 150.7 46.7 L 148.8 56.9 L 146.2 66.3 L 143.0 75.0 L 139.3 83.0 L 134.9 90.1 L 129.9 96.5 L 124.3 101.8 L 118.2 106.2 L 117.0 104.8 L 121.6 99.2 L 125.6 93.2 L 129.2 86.8 L 132.4 79.8 L 135.0 72.1 L 137.2 63.9 L 138.9 54.9 L 140.1 45.3 L 140.8 35.0 L 140.88165140151978 26.1 L 120.6 26.1 L 120.6 22.1 L 171.0 22.1 L 177.0 17.1 L 188.0 26.1 L 183.0 29.1 L 182.9399387359619 29.12502555847168 L 182.9 32.4 L 182.6 40.1 L 182.3 47.2 L 181.9 53.8 L 181.4 59.9 L 180.9 65.5 L 180.2 70.5 L 179.5 75.0 L 178.7 79.0 L 177.7 82.6 L 176.8 85.0 Z M 113.6 78.4 L 113.6 82.4 L 76.9 82.4 L 76.9 78.4 L 95.41818180084229 78.4 L 103.6 69.4 Z M 119.4 50.2 L 119.4 54.2 L 74.3 54.2 L 74.3 50.2 L 101.21818180084229 50.2 L 109.4 41.2 Z M 113.6 24.1 L 113.6 28.1 L 76.9 28.1 L 76.9 24.1 L 95.41818180084229 24.1 L 103.6 15.1 Z " />
</g>
</svg>
