<svg xmlns="http://www.w3.org/2000/svg" xmlns:xlink="http://www.w3.org/1999/xlink" version="1.1" baseProfile="full" viewBox="0 0 200 200" width="200" height="200">
<g fill="black">
<path d="M 158.4 180.0 L 149.4 176.0 L 141.0 171.5 L 133.3 166.5 L 126.3 160.9 L 120.1 154.7 L 114.7 148.1 L 110.2 141.0 L 107.53870964050293 135.1451612472534 L 104.2 137.0 L 97.7 140.6 L 90.6 144.1 L 83.0 147.5 L 74.8 150.9 L 74.0 151.19090909957885 L 74.0 171.7182795524597 L 75.1 171.6 L 84.3 170.7 L 93.6 169.7 L 102.8 168.7 L 112.1 167.8 L 121.4 167.0 L 130.8 166.3 L 131.1 168.1 L 122.1 170.7 L 113.0 173.1 L 103.9 175.2 L 94.7 177.2 L 85.6 179.0 L 76.4 180.8 L 67.3 182.6 L 48.9 185.8 L 43.754690933227536 186.63890905380248 L 42.1 190.0 L 39.7 187.3 L 36.2 175.6 L 38.2 175.4 L 56.6 173.6 L 62.0 173.01304349899291 L 62.0 155.4333333015442 L 56.7 157.2 L 46.7 160.2 L 36.2 163.1 L 25.0 165.7 L 13.2 168.1 L 12.7 166.3 L 23.9 162.1 L 34.5 158.0 L 44.6 154.0 L 54.0 150.1 L 62.9 146.2 L 71.1 142.3 L 78.7 138.5 L 85.7 134.6 L 86.69230766296387 134.0 L 18.0 134.0 L 18.0 130.0 L 95.0 130.0 L 95.0 116.7 L 107.0 118.7 L 110.0 120.7 L 107.0 122.5 L 107.0 130.0 L 167.8181818008423 130.0 L 176.0 121.0 L 186.0 130.0 L 186.0 134.0 L 109.61639347076417 134.0 L 113.6 138.5 L 119.1 144.3 L 125.1 149.5 L 131.5 154.3 L 132.876779460907 155.15799303054808 L 133.4 154.8 L 137.0 152.2 L 140.6 149.7 L 144.0 147.4 L 147.3 145.1 L 150.5 142.8 L 153.6 140.6 L 156.5 138.4 L 159.2 136.3 L 161.02206754684448 134.82833003997803 L 161.0 134.8 L 161.02455015182494 134.82632484436036 L 161.8 134.2 L 164.9829414367676 139.07086486816405 L 169.3 143.7 L 169.4 147.2 L 165.6666666984558 145.6666666984558 L 165.2 145.9 L 161.9 147.5 L 158.4 149.0 L 154.9 150.6 L 147.3 153.6 L 143.3 155.1 L 139.1 156.4 L 136.25160236358641 157.26114349365236 L 138.4 158.6 L 145.8 162.5 L 153.8 165.9 L 162.4 168.9 L 171.6 171.4 L 181.3 173.5 L 190.3 175.4 L 178.6 186.4 L 168.2 183.5 Z M 150.9 114.3 L 148.7 114.1 L 146.5 113.6 L 144.3 112.8 L 142.4 111.5 L 140.7 109.8 L 139.3 107.8 L 138.3 105.6 L 137.6 103.2 L 137.2 100.6 L 137.2 64.75833330154418 L 136.84230766296386 64.58942308425904 L 133.2 65.5 L 127.5 65.5 L 125.5 65.6 L 123.3 65.6 L 121.1 65.7 L 119.55 65.7 L 120.3 66.2 L 117.3 68.0 L 117.3 76.2 L 122.2 76.2 L 126.7 70.2 L 132.7 76.2 L 132.7 80.2 L 117.3 80.2 L 117.3 91.9 L 119.9777777671814 91.9 L 126.2 84.9 L 134.2 91.9 L 134.2 95.9 L 117.3 95.9 L 117.3 107.9 L 105.3 113.9 L 105.3 62.2 L 113.24025974273681 63.523376655578616 L 113.3 63.5 L 115.4 62.1 L 117.5 60.9 L 119.5 59.7 L 121.4 58.6 L 125.2 56.6 L 126.9 55.6 L 128.2222222328186 54.9 L 103.8 54.9 L 103.8 50.9 L 130.0333333015442 50.9 L 127.7 47.9 L 127.7 44.9 L 127.5 41.9 L 127.3 40.4 L 127.1 39.0 L 126.7 37.5 L 126.3 35.9 L 125.9 34.4 L 124.9 33.2 L 126.1 31.9 L 127.3 33.0 L 129.0 33.7 L 130.5 34.6 L 132.0 35.7 L 133.4 36.9 L 136.0 39.7 L 137.2 41.3 L 138.3 43.0 L 139.3 44.8 L 138.6 49.4 L 136.6714285850525 50.9 L 148.7199999809265 50.9 L 149.2 49.9 L 150.0 47.2 L 150.7 44.7 L 151.5 42.3 L 152.2 40.0 L 152.8 37.8 L 154.0 33.8 L 154.5 31.9 L 154.58888893127443 31.5 L 109.3 31.5 L 109.3 27.5 L 138.2 27.5 L 138.2 12.3 L 150.2 14.3 L 153.2 16.3 L 150.2 18.1 L 150.2 27.5 L 156.7 27.5 L 166.7 17.5 L 178.7 27.5 L 178.7 31.5 L 159.32307691574096 31.5 L 165.6 35.5 L 167.4 38.6 L 162.64102563858032 39.010256385803224 L 161.6 40.2 L 160.1 41.9 L 156.9 45.5 L 153.2 49.2 L 151.41052627563477 50.9 L 169.9777777671814 50.9 L 176.2 43.9 L 184.2 50.9 L 184.2 54.9 L 138.4 54.9 L 149.2 56.7 L 152.2 58.7 L 149.2 60.5 L 149.2 100.6 L 149.0 101.9 L 149.0 104.2 L 149.1 104.8 L 149.3 105.3 L 149.8 105.8 L 150.6 106.3 L 151.7 106.8 L 153.2 107.1 L 182.2 107.1 L 185.7 102.1 L 187.7 102.1 L 185.7 107.1 L 187.8 108.5 L 189.2 110.6 L 187.8 112.7 L 185.7 114.1 L 153.2 114.1 Z M 62.3 114.3 L 60.1 114.1 L 57.9 113.6 L 55.7 112.8 L 53.8 111.5 L 52.1 109.8 L 50.7 107.8 L 49.7 105.6 L 49.0 103.2 L 48.6 100.6 L 48.6 64.75833330154418 L 48.24230766296387 64.58942308425904 L 44.6 65.5 L 38.9 65.5 L 36.9 65.6 L 34.7 65.6 L 32.5 65.7 L 30.95 65.7 L 31.7 66.2 L 28.7 68.0 L 28.7 76.2 L 33.7 76.2 L 38.2 70.2 L 44.2 76.2 L 44.2 80.2 L 28.7 80.2 L 28.7 91.9 L 31.477777767181397 91.9 L 37.7 84.9 L 45.7 91.9 L 45.7 95.9 L 28.7 95.9 L 28.7 107.9 L 16.7 113.9 L 16.7 62.2 L 24.640259742736816 63.523376655578616 L 24.7 63.5 L 26.8 62.1 L 28.9 60.9 L 30.9 59.7 L 32.9 58.6 L 34.7 57.6 L 36.6 56.6 L 38.4 55.6 L 39.7222222328186 54.9 L 15.2 54.9 L 15.2 50.9 L 41.43333330154419 50.9 L 39.1 47.9 L 39.1 43.4 L 38.7 40.4 L 38.5 39.0 L 38.1 37.5 L 37.7 35.9 L 37.3 34.4 L 36.3 33.2 L 37.5 31.9 L 38.7 33.0 L 40.4 33.7 L 41.9 34.6 L 43.4 35.7 L 44.8 36.9 L 47.4 39.7 L 48.6 41.3 L 49.7 43.0 L 50.7 44.8 L 50.0 49.4 L 48.07142858505249 50.9 L 60.119999980926515 50.9 L 60.6 49.9 L 61.4 47.2 L 62.1 44.7 L 62.9 42.3 L 63.6 40.0 L 64.3 37.8 L 64.9 35.8 L 65.4 33.8 L 65.9 31.9 L 65.98888893127442 31.5 L 20.7 31.5 L 20.7 27.5 L 49.6 27.5 L 49.6 12.3 L 61.6 14.3 L 64.6 16.3 L 61.6 18.1 L 61.6 27.5 L 68.1 27.5 L 78.1 17.5 L 90.1 27.5 L 90.1 31.5 L 70.78461542129517 31.5 L 77.0 35.5 L 78.8 38.6 L 74.04102563858032 39.010256385803224 L 73.0 40.2 L 71.5 41.9 L 68.3 45.5 L 64.6 49.2 L 62.810526275634764 50.9 L 81.3777777671814 50.9 L 87.6 43.9 L 95.6 50.9 L 95.6 54.9 L 49.8 54.9 L 60.6 56.7 L 63.6 58.7 L 60.6 60.5 L 60.6 100.6 L 60.5 101.9 L 60.4 102.9 L 60.4 104.2 L 60.5 104.8 L 60.7 105.3 L 61.2 105.8 L 62.0 106.3 L 63.2 106.8 L 64.6 107.1 L 93.6 107.1 L 97.1 102.1 L 99.1 102.1 L 97.1 107.1 L 99.2 108.5 L 100.6 110.6 L 99.2 112.7 L 97.1 114.1 L 64.6 114.1 Z M 97.1 65.9 L 92.1 69.9 L 92.1 95.9 L 80.1 101.9 L 80.1 95.9 L 64.6 95.9 L 64.6 91.9 L 80.1 91.9 L 80.1 80.2 L 64.1 80.2 L 64.1 76.2 L 80.1 76.2 L 80.1 65.9 L 64.1 65.9 L 64.1 61.9 L 80.1 61.9 L 86.1 56.9 Z M 185.7 65.9 L 180.7 69.9 L 180.7 95.9 L 168.7 101.9 L 168.7 95.9 L 153.2 95.9 L 153.2 91.9 L 168.7 91.9 L 168.7 80.2 L 152.7 80.2 L 152.7 76.2 L 168.7 76.2 L 168.7 65.9 L 152.7 65.9 L 152.7 61.9 L 168.7 61.9 L 174.7 56.9 Z M 130.57264957427978 54.9 L 130.6509813308716 55.21602802276611 L 137.2 60.62608699798584 L 137.2 54.9 Z M 41.972649574279785 54.9 L 42.02800722122193 55.12333927154541 L 48.6 60.6 L 48.6 54.9 Z " />
</g>
</svg>
