<svg xmlns="http://www.w3.org/2000/svg" xmlns:xlink="http://www.w3.org/1999/xlink" version="1.1" baseProfile="full" viewBox="0 0 200 200" width="200" height="200">
<g fill="black">
<path d="M 158.3 184.7 L 149.5 181.5 L 141.5 177.7 L 134.1 173.1 L 130.33603525161743 170.03092107772827 L 123.0 174.5 L 113.7 179.1 L 103.8 182.9 L 93.4 185.9 L 82.4 188.0 L 70.9 189.2 L 70.6 187.4 L 81.5 184.3 L 91.8 180.7 L 101.4 176.8 L 110.3 172.3 L 118.6 167.3 L 123.57524747848511 163.6340281486511 L 121.9 161.9 L 117.0 155.2 L 113.1 147.9 L 111.66512241363526 143.70165452957153 L 108.4 147.2 L 104.0 151.4 L 99.3 155.3 L 94.3 158.9 L 88.9 162.2 L 83.3 165.0 L 77.3 167.4 L 76.4 165.8 L 81.3 161.8 L 85.8 157.8 L 90.2 153.8 L 94.2 149.7 L 98.0 145.5 L 101.4 141.1 L 104.6 136.6 L 107.5 132.0 L 110.1 127.2 L 112.4 122.2 L 112.40407466888428 122.20205631256104 L 112.9 121.1 L 123.1 127.6 L 124.9 130.7 L 121.02669868469238 131.03390531539918 L 119.9 132.9 L 118.28999996185303 135.2 L 149.5 135.2 L 149.8 134.95 L 150.5 133.9 L 150.81460676193237 134.10449438095094 L 155.5 130.2 L 166.5 139.2 L 161.5 142.2 L 158.0959183692932 143.61836738586425 L 154.3 148.7 L 147.4 156.3 L 139.8 163.1 L 137.95372753143312 164.49040269851685 L 139.1 165.2 L 145.9 168.5 L 153.3 171.2 L 161.3 173.2 L 169.9 174.7 L 179.2 175.6 L 189.8 176.5 L 178.0 188.7 L 167.8 187.0 Z M 59.1 131.8 L 57.9 128.9 L 56.4 126.0 L 54.8 123.1 L 53.0 120.2 L 51.0 117.3 L 48.8 114.3 L 48.8 183.0 L 36.8 189.0 L 36.8 111.03548383712769 L 34.3 114.1 L 27.7 121.3 L 20.6 128.1 L 13.0 134.6 L 11.7 133.3 L 17.8 125.6 L 23.6 117.8 L 29.1 110.0 L 34.3 102.2 L 36.8 98.11836738586426 L 36.8 97.0 L 37.48500003814697 97.0 L 39.2 94.2 L 43.7 86.0 L 47.8 77.7 L 51.6 69.3 L 55.0 60.7 L 56.60227270126343 56.0 L 15.8 56.0 L 15.8 52.0 L 36.8 52.0 L 36.8 12.0 L 48.8 14.0 L 51.8 16.0 L 48.8 17.8 L 48.8 52.0 L 57.7 52.0 L 63.7 47.0 L 74.7 56.0 L 69.7 59.0 L 67.67752809524536 59.84269666671753 L 65.5 65.0 L 61.3 73.8 L 56.7 82.4 L 51.7 90.7 L 47.44750003814697 97.0 L 48.8 97.0 L 48.8 109.28571424484252 L 51.8 111.0 L 53.042780780792235 111.85441179275513 L 53.5 111.1 L 55.1 107.7 L 56.5 104.5 L 57.9 101.6 L 59.1 98.9 L 60.1 96.3 L 61.0 94.0 L 61.7 91.9 L 62.2 90.0 L 62.3169753074646 89.37613172531128 L 62.1 89.3 L 62.481443309783934 88.49896907806396 L 62.5 88.4 L 62.52357139587402 88.41049995422364 L 63.1 87.2 L 73.5 93.3 L 75.4 96.4 L 70.63696966171264 96.97484846115113 L 69.1 98.8 L 67.3 100.9 L 65.4 103.0 L 63.2 105.2 L 60.9 107.6 L 58.4 110.1 L 55.6 112.6 L 55.02404651641846 113.21861667633057 L 58.1 115.6 L 60.9 118.2 L 63.5 120.9 L 66.0 123.7 L 68.2 126.6 L 70.3 129.7 L 72.1 132.9 L 72.1 137.5 L 68.9 140.7 L 64.3 140.7 L 61.0 137.5 L 60.2 134.6 Z M 115.3708333015442 139.2 L 113.57130765914917 141.47308502197265 L 116.7 145.8 L 121.7 151.7 L 127.1 156.8 L 129.57799911499023 158.7563150405884 L 133.2 155.6 L 139.5 148.9 L 145.3 141.7 L 146.9666666984558 139.2 Z M 118.5 120.0 L 116.1 119.7 L 113.8 119.1 L 111.6 118.0 L 109.6 116.5 L 107.9 114.6 L 106.6 112.4 L 105.8 110.1 L 105.2 107.6 L 105.0 105.1 L 105.0 80.2 L 117.0 82.2 L 120.0 84.2 L 117.0 86.0 L 117.0 105.1 L 116.9 106.3 L 117.0 107.3 L 117.1 107.9 L 117.2 108.4 L 117.6 109.0 L 118.0 109.3 L 118.6 109.6 L 119.6 109.9 L 121.0 110.1 L 147.4 110.1 L 152.4 93.1 L 154.4 93.1 L 152.4 110.1 L 155.4 112.1 L 157.4 115.1 L 155.4 118.1 L 152.4 120.1 L 121.0 120.1 Z M 84.1 114.4 L 82.8 110.0 L 84.8 105.9 L 86.0 105.3 L 87.2 104.4 L 88.4 103.0 L 89.7 101.2 L 90.9 98.9 L 92.0 96.3 L 93.0 93.2 L 94.0 89.7 L 94.9 85.8 L 95.3 81.5 L 97.1 81.5 L 97.5 85.8 L 98.1 89.9 L 98.4 93.8 L 98.4 97.4 L 98.2 100.8 L 97.7 104.1 L 97.0 107.1 L 95.9 110.0 L 94.5 112.6 L 92.6 115.1 L 88.2 116.4 Z M 161.8 102.6 L 161.3 100.2 L 160.7 97.8 L 159.9 95.4 L 158.9 92.9 L 157.8 90.5 L 156.5 88.0 L 155.1 85.4 L 153.1 83.2 L 154.3 81.8 L 156.8 83.6 L 159.5 85.3 L 161.9 87.1 L 164.2 89.2 L 165.27973852157592 90.3311547279358 L 166.1 88.8 L 167.0 86.0 L 168.0 83.2 L 168.8 80.7 L 169.7 78.3 L 170.4 76.0 L 171.0 73.8 L 171.3 72.8 L 90.01000003814697 72.8 L 90.2 74.7 L 90.3 78.4 L 90.1 81.9 L 89.7 85.2 L 89.0 88.3 L 88.0 91.1 L 86.5 93.8 L 84.6 96.2 L 80.2 97.5 L 76.2 95.3 L 75.0 90.9 L 77.1 86.9 L 78.1 86.5 L 79.2 85.7 L 80.3 84.4 L 81.5 82.5 L 82.7 80.2 L 83.8 77.4 L 84.8 74.2 L 85.7 70.5 L 86.6 66.4 L 87.0 61.9 L 88.8 61.8 L 89.2 66.4 L 89.53488368988037 68.8 L 171.8 68.8 L 177.8 63.8 L 188.8 72.8 L 183.8 75.8 L 180.01395349502565 77.37751941680908 L 179.2 78.3 L 177.7 80.1 L 174.3 83.9 L 172.4 85.9 L 170.3 88.0 L 168.1 90.1 L 166.6780104637146 91.8774868965149 L 168.2 93.8 L 170.0 96.4 L 171.5 99.1 L 172.9 101.9 L 174.1 104.9 L 173.2 109.4 L 169.5 112.0 L 165.0 111.2 L 162.3 107.4 L 162.1 105.0 Z M 130.0 92.8 L 129.4 90.9 L 128.0 87.3 L 127.1 85.4 L 126.1 83.6 L 124.9 81.8 L 123.7 79.9 L 122.1 78.5 L 123.1 77.0 L 125.1 78.1 L 127.3 78.9 L 129.5 80.0 L 131.5 81.2 L 133.5 82.6 L 135.4 84.2 L 137.2 85.9 L 138.9 87.8 L 140.5 89.9 L 142.0 92.0 L 141.9 96.6 L 138.8 99.9 L 134.2 99.9 L 130.9 96.7 L 130.5 94.7 Z M 169.6 38.2 L 171.9 40.9 L 167.93327236175537 41.9438756942749 L 166.5 44.9 L 164.9 48.1 L 163.1 51.1 L 161.2 54.0 L 159.3 56.7 L 157.2 59.3 L 155.0 61.7 L 152.6 63.9 L 150.3 66.1 L 148.9 65.0 L 150.3 62.3 L 151.4 59.4 L 153.4 53.6 L 155.2 47.6 L 156.8 41.4 L 157.81753339767457 35.80356607437134 L 157.8 35.8 L 157.85600004196166 35.592000007629395 L 158.0 34.8 L 158.06416721343993 34.81880760192871 L 158.5 33.2 Z M 100.0 55.4 L 99.7 53.5 L 99.2 51.4 L 98.6 49.4 L 97.8 47.3 L 97.0 45.1 L 95.9 42.9 L 94.8 40.6 L 93.2 38.7 L 94.4 37.4 L 96.5 39.0 L 98.8 40.4 L 100.9 42.0 L 102.9 43.7 L 104.8 45.5 L 106.5 47.4 L 108.1 49.5 L 109.6 51.7 L 110.9 54.0 L 112.0 56.4 L 111.3 60.9 L 107.6 63.7 L 103.1 62.9 L 100.3 59.3 L 100.3 57.4 Z M 126.5 48.7 L 126.3 46.9 L 125.9 45.1 L 125.6 43.3 L 124.6 39.7 L 124.1 37.8 L 123.1 36.3 L 124.4 35.1 L 125.8 36.5 L 127.5 37.6 L 129.2 38.8 L 130.8 40.2 L 132.3 41.7 L 133.7 43.4 L 135.0 45.1 L 136.2 46.9 L 137.4 48.8 L 138.5 50.9 L 137.8 55.4 L 134.3 58.2 L 129.7 57.6 L 126.9 54.0 L 126.7 50.4 Z M 167.49528131484985 14.481669712066651 L 176.5 22.2 L 176.7 25.3 L 172.6750084877014 23.49776496887207 L 170.9 24.1 L 162.9 26.5 L 154.7 28.5 L 146.4 30.2 L 138.1 31.7 L 129.6 32.8 L 121.0 33.6 L 112.3 34.0 L 103.4 34.1 L 94.5 33.7 L 85.5 32.9 L 85.5 31.1 L 94.4 29.9 L 103.1 28.7 L 111.6 27.5 L 120.0 26.0 L 128.2 24.4 L 136.3 22.5 L 144.2 20.5 L 151.9 18.2 L 159.5 15.6 L 166.9 12.8 Z " />
</g>
</svg>
