<svg xmlns="http://www.w3.org/2000/svg" xmlns:xlink="http://www.w3.org/1999/xlink" version="1.1" baseProfile="full" viewBox="0 0 200 200" width="200" height="200">
<g fill="black">
<path d="M 66.3 132.1 L 64.8 129.2 L 63.0 126.3 L 61.0 123.4 L 58.7 120.4 L 56.2 117.5 L 53.5 114.4 L 52.2 113.01034479141235 L 52.2 183.0 L 40.2 189.0 L 40.2 109.6125 L 35.7 114.3 L 28.1 121.4 L 19.9 128.2 L 11.2 134.6 L 10.1 133.3 L 17.3 125.5 L 24.3 117.7 L 30.9 109.8 L 37.0 101.9 L 40.2 97.48620691299439 L 40.2 97.0 L 40.55249996185303 97.0 L 42.8 93.9 L 48.1 85.7 L 53.0 77.4 L 57.5 69.0 L 61.5 60.4 L 63.35 56.0 L 14.6 56.0 L 14.6 52.0 L 40.2 52.0 L 40.2 12.0 L 52.2 14.0 L 55.2 16.0 L 52.2 17.8 L 52.2 52.0 L 64.7 52.0 L 70.7 47.0 L 81.7 56.0 L 76.7 59.0 L 74.41441860198975 59.95232553482056 L 71.8 65.3 L 66.9 74.1 L 61.6 82.7 L 55.8 91.0 L 51.15 97.0 L 52.2 97.0 L 52.2 108.6975609779358 L 52.4 108.8 L 56.3 110.8 L 58.30123176574707 111.98992156982422 L 59.0 111.0 L 61.0 107.5 L 62.8 104.3 L 64.5 101.4 L 66.0 98.6 L 67.3 96.1 L 68.4 93.7 L 69.3 91.6 L 70.0 89.7 L 70.17118072509766 88.97248191833496 L 70.0 88.9 L 70.34042549133301 88.25319147109985 L 70.4 88.0 L 70.4577709197998 88.03023529052734 L 71.0 87.0 L 81.1 93.6 L 82.8 96.8 L 78.14136543273926 97.04096384048462 L 78.0 97.2 L 76.2 99.1 L 74.2 101.1 L 72.0 103.2 L 69.6 105.5 L 67.0 107.8 L 64.1 110.2 L 61.0 112.7 L 60.37964038848877 113.26032485961915 L 63.5 115.4 L 66.7 117.9 L 69.7 120.6 L 72.5 123.4 L 75.1 126.4 L 77.4 129.4 L 79.5 132.6 L 79.7 137.2 L 76.7 140.7 L 72.2 140.9 L 68.7 137.9 L 67.6 135.0 Z M 167.8 182.2 L 165.5 180.1 L 162.8 177.9 L 159.7 175.8 L 156.2 173.7 L 152.3 171.5 L 148.0 169.3 L 143.4 167.0 L 138.3 164.9 L 138.8 163.1 L 144.3 163.9 L 149.6 164.8 L 154.4 165.9 L 159.0 167.1 L 163.3 168.5 L 167.2 170.1 L 170.9 171.9 L 174.2 173.8 L 177.3 175.9 L 180.1 178.3 L 181.5 182.6 L 179.6 186.8 L 175.2 188.2 L 171.1 186.2 L 169.6 184.2 Z M 123.6 168.9 L 124.2 172.4 L 120.2769061088562 171.20906076431274 L 117.2 173.2 L 113.6 175.2 L 109.7 177.2 L 105.5 179.2 L 100.9 181.1 L 96.1 182.9 L 90.9 184.7 L 85.4 186.3 L 79.5 187.8 L 78.8 186.2 L 84.0 183.0 L 88.8 180.0 L 93.3 177.2 L 97.5 174.5 L 101.4 171.9 L 105.0 169.4 L 108.2 166.9 L 111.0 164.5 L 113.5 162.2 L 114.96661195755004 160.66354932785035 L 114.9 160.6 L 115.8 159.8 Z M 182.0 87.2 L 181.0 89.5 L 179.7 91.6 L 178.2 93.6 L 176.3 95.3 L 174.2 96.6 L 171.9 97.7 L 169.88498296737671 98.28771333694458 L 173.2 101.0 L 168.2 105.0 L 168.2 155.8 L 156.2 161.8 L 156.2 155.8 L 106.7 155.8 L 94.7 161.8 L 94.7 107.10895519256592 L 93.8 107.7 L 86.4 111.2 L 78.3 113.8 L 77.6 112.1 L 84.7 107.8 L 90.8 103.2 L 94.7 99.73333330154419 L 94.7 91.0 L 100.21677856445312 93.75838928222656 L 100.7 93.2 L 104.4 87.6 L 107.3 81.6 L 109.6 75.2 L 110.51304349899291 71.0 L 96.01621618270875 71.0 L 95.4 74.8 L 82.6 78.9 L 88.7 41.1 L 98.34230766296386 48.0 L 111.9 48.0 L 111.9 33.0 L 82.9 33.0 L 82.9 29.0 L 111.9 29.0 L 111.9 13.0 L 123.9 15.0 L 126.9 17.0 L 123.9 18.8 L 123.9 29.0 L 136.5 29.0 L 136.5 13.0 L 148.5 15.0 L 151.5 17.0 L 148.5 18.8 L 148.5 29.0 L 163.6 29.0 L 169.6 24.0 L 180.6 33.0 L 175.6 37.0 L 175.6 52.0 L 163.6 58.0 L 163.6 52.0 L 148.5 52.0 L 148.5 67.0 L 172.8 67.0 L 178.8 62.0 L 189.8 71.0 L 184.8 74.0 L 184.27826089859008 74.21739130020141 L 184.1 76.0 L 183.9 77.7 L 183.7 79.3 L 183.5 80.7 L 183.3 81.9 L 183.2 83.0 L 182.8 84.8 Z M 106.7 137.5 L 106.7 151.8 L 156.2 151.8 L 156.2 137.5 Z M 106.7 119.3 L 106.7 133.5 L 156.2 133.5 L 156.2 119.3 Z M 106.7 101.0 L 106.7 115.3 L 156.2 115.3 L 156.2 101.0 Z M 164.5 93.88181819915772 L 164.5 93.0 L 162.79824562072753 92.48947372436524 Z M 122.25882349014282 67.0 L 136.5 67.0 L 136.5 52.0 L 123.9 52.0 L 123.9 53.0 L 123.2 62.0 Z M 123.9 33.0 L 123.9 48.0 L 136.5 48.0 L 136.5 33.0 Z M 148.5 33.0 L 148.5 48.0 L 163.6 48.0 L 163.6 33.0 Z M 171.3 80.9 L 171.5 80.1 L 171.6 79.0 L 171.8 77.8 L 172.0 76.3 L 172.2 74.6 L 172.4 72.7 L 172.5619047164917 71.0 L 148.5 71.0 L 148.5 90.0 L 136.5 96.0 L 136.5 71.0 L 121.44177217483521 71.0 L 119.1 78.4 L 115.7 85.7 L 111.5 92.3 L 107.43728809356689 97.0 L 156.2 97.0 L 161.9264705657959 92.22794113159179 L 154.5 90.0 L 154.5 87.0 L 164.5 87.0 L 165.8 86.9 L 166.9 86.7 L 167.7 86.5 L 168.4 86.2 L 168.9 85.8 L 169.9 84.8 L 170.4 84.0 L 170.8 83.0 L 171.2 81.8 L 171.2 81.5 Z M 99.0972972869873 52.0 L 96.66486482620239 67.0 L 111.24054050445557 67.0 L 111.9 60.9 L 111.9 52.0 Z " />
</g>
</svg>
