<svg xmlns="http://www.w3.org/2000/svg" xmlns:xlink="http://www.w3.org/1999/xlink" version="1.1" baseProfile="full" viewBox="0 0 200 200" width="200" height="200">
<g fill="black">
<path d="M 137.0 127.7 L 139.7 130.1 L 136.1628821372986 131.6065502166748 L 134.9 137.5 L 131.9 146.5 L 128.0 154.8 L 123.3 162.3 L 117.6 169.0 L 111.1 174.8 L 103.8 179.7 L 95.8 183.7 L 86.9 186.8 L 77.4 188.8 L 76.9 187.1 L 85.6 183.2 L 93.3 179.0 L 100.2 174.3 L 106.1 169.1 L 111.2 163.4 L 115.5 157.2 L 119.0 150.4 L 121.8 143.0 L 123.8 134.9 L 124.95026435852051 127.2020770072937 L 124.9 127.2 L 125.3 124.1 Z M 78.2 150.9 L 75.9 148.0 L 73.6 145.2 L 71.1 142.3 L 68.5 139.5 L 65.7 136.8 L 62.9 133.9 L 61.5 132.68064517974852 L 61.5 181.0 L 49.5 187.0 L 49.5 140.86750001907347 L 48.2 143.5 L 43.9 151.0 L 39.4 158.0 L 34.5 164.4 L 29.4 170.2 L 24.0 175.4 L 18.3 179.9 L 12.2 183.7 L 11.1 182.2 L 15.7 177.1 L 20.1 171.7 L 24.4 166.0 L 28.4 159.9 L 32.2 153.4 L 35.8 146.5 L 39.1 139.1 L 42.3 131.3 L 45.2 122.9 L 46.703409099578856 118.0 L 29.4 118.0 L 29.4 130.0 L 17.4 136.0 L 17.4 58.0 L 29.4 64.0 L 49.5 64.0 L 49.5 47.0 L 11.7 47.0 L 11.7 43.0 L 49.5 43.0 L 49.5 15.0 L 61.5 17.0 L 64.5 19.0 L 61.5 20.8 L 61.5 43.0 L 80.3 43.0 L 90.3 33.0 L 102.3 43.0 L 102.3 47.0 L 61.5 47.0 L 61.5 64.0 L 81.7 64.0 L 87.7 59.0 L 98.7 68.0 L 93.7 72.0 L 93.7 122.0 L 81.7 128.0 L 81.7 118.0 L 61.5 118.0 L 61.5 130.02820510864257 L 64.6 131.3 L 68.4 133.0 L 72.1 134.9 L 75.6 137.0 L 79.0 139.3 L 82.2 141.7 L 85.3 144.3 L 88.3 147.1 L 91.1 150.0 L 93.8 153.0 L 94.7 157.5 L 92.4 161.4 L 87.9 162.3 L 84.0 160.0 L 82.2 156.9 Z M 182.4 145.0 L 184.4 145.0 L 182.4 170.0 L 186.0 172.4 L 188.4 176.0 L 186.0 179.6 L 182.4 182.0 L 158.5 182.0 L 156.0 181.8 L 153.5 181.4 L 151.1 180.6 L 148.8 179.3 L 146.8 177.7 L 145.1 175.7 L 143.9 173.4 L 143.1 171.0 L 142.7 168.5 L 142.5 166.0 L 142.5 122.4 L 120.3 122.4 L 120.3 134.4 L 108.3 140.4 L 108.3 19.2 L 120.3 25.2 L 163.1 25.2 L 169.1 20.2 L 180.1 29.2 L 175.1 33.2 L 175.1 128.4 L 163.1 134.4 L 163.1 122.4 L 154.5 122.4 L 154.5 166.0 L 154.6 167.2 L 154.8 168.1 L 155.1 169.0 L 155.5 169.4 L 156.4 169.7 L 157.3 169.9 L 158.5 170.0 L 176.4 170.0 Z M 120.3 90.0 L 120.3 118.4 L 163.1 118.4 L 163.1 90.0 Z M 35.1 97.7 L 34.7 95.1 L 34.1 92.5 L 33.3 90.0 L 32.3 87.4 L 31.2 84.9 L 29.9 82.3 L 29.4 81.4 L 29.4 114.0 L 49.5 114.0 L 49.5 68.0 L 29.4 68.0 L 29.4 77.21538457870483 L 30.2 77.8 L 33.0 79.6 L 35.5 81.6 L 37.8 83.8 L 39.9 86.3 L 41.8 88.9 L 43.5 91.7 L 45.0 94.6 L 46.3 97.8 L 47.3 101.0 L 46.2 105.5 L 42.4 107.9 L 37.9 106.8 L 35.5 103.0 L 35.4 100.3 Z M 61.5 68.0 L 61.5 114.0 L 81.7 114.0 L 81.7 84.77796611785888 L 79.5808632850647 84.95755395889282 L 78.6 86.4 L 77.0 88.9 L 75.2 91.5 L 73.5 94.0 L 71.7 96.7 L 69.9 99.3 L 65.9 104.5 L 64.1 107.3 L 62.5 106.6 L 63.5 103.4 L 64.1 100.1 L 65.7 93.9 L 66.6 90.8 L 68.4 84.8 L 70.2 79.0 L 70.79830121994019 77.13861837387086 L 70.7 77.1 L 71.01000003814697 76.48000001907349 L 71.1 76.2 L 71.14014873504638 76.21970262527466 L 71.7 75.1 L 81.7 81.37450981140137 L 81.7 68.0 Z M 120.3 59.6 L 120.3 86.0 L 163.1 86.0 L 163.1 59.6 Z M 120.3 29.2 L 120.3 55.6 L 163.1 55.6 L 163.1 29.2 Z " />
</g>
</svg>
