<svg xmlns="http://www.w3.org/2000/svg" xmlns:xlink="http://www.w3.org/1999/xlink" version="1.1" baseProfile="full" viewBox="0 0 200 200" width="200" height="200">
<g fill="black">
<path d="M 140.0 176.0 L 160.0 176.0 L 161.2 175.9 L 162.1 175.7 L 163.0 175.4 L 163.4 175.0 L 163.7 174.1 L 163.9 173.2 L 164.0 172.0 L 164.0 66.0 L 106.728125 66.0 L 113.9 70.5 L 115.7 73.7 L 111.82226152420044 73.96289749145508 L 110.3 76.5 L 107.44388484954834 80.49856119155884 L 110.0 81.1 L 116.2 83.0 L 122.0 85.1 L 127.2 87.3 L 132.0 89.6 L 136.4 92.0 L 140.3 94.6 L 143.8 97.3 L 146.8 100.1 L 149.4 103.2 L 150.1 107.7 L 147.5 111.5 L 143.0 112.2 L 139.3 109.6 L 138.0 107.3 L 136.2 104.9 L 133.9 102.2 L 131.0 99.5 L 127.5 96.7 L 123.6 93.8 L 119.0 90.9 L 114.0 87.8 L 108.5 84.6 L 105.65172414779663 82.91034479141236 L 101.9 87.6 L 97.1 92.8 L 91.8 97.7 L 86.2 102.3 L 80.1 106.7 L 73.7 110.8 L 66.8 114.5 L 59.4 117.7 L 58.5 116.2 L 64.7 111.3 L 70.6 106.4 L 76.1 101.5 L 81.2 96.6 L 85.9 91.7 L 90.1 86.6 L 94.0 81.4 L 97.4 76.1 L 100.5 70.7 L 102.72181816101075 66.0 L 52.0 66.0 L 52.0 183.0 L 40.0 189.0 L 40.0 69.40465116500854 L 32.2 75.3 L 23.1 81.6 L 13.5 87.7 L 12.4 86.2 L 20.8 78.6 L 28.8 71.2 L 36.4 63.9 L 40.0 60.3 L 40.0 56.0 L 42.86666669845581 57.43333330154419 L 43.7 56.6 L 50.6 49.4 L 57.0 42.2 L 63.0 35.0 L 68.6 27.8 L 73.7 20.6 L 78.4 13.4 L 78.42304143905639 13.415437793731689 L 78.9 12.7 L 88.4 20.1 L 89.7 23.5 L 85.98320074081421 23.307751750946046 L 82.9 27.4 L 80.70281686782837 30.0 L 131.0 30.0 L 131.4455445289612 29.628712844848632 L 131.9 28.8 L 132.20883350372316 28.992638778686523 L 137.0 25.0 L 148.0 34.0 L 143.0 37.0 L 139.41967210769653 38.49180326461792 L 136.7 41.6 L 133.6 44.8 L 130.4 47.8 L 126.9 50.9 L 123.1 53.8 L 119.1 56.7 L 114.9 59.5 L 110.47692308425903 62.0 L 164.0 62.0 L 170.0 57.0 L 181.0 66.0 L 176.0 70.0 L 176.0 172.0 L 175.8 174.5 L 175.4 177.0 L 174.6 179.4 L 173.3 181.7 L 171.7 183.7 L 169.7 185.3 L 167.4 186.6 L 165.0 187.4 L 162.5 187.8 L 160.0 188.0 L 160.0 182.0 L 140.0 179.0 Z M 115.3 107.9 L 117.5 110.8 L 113.69552059173584 111.5215392112732 L 111.8 115.8 L 107.8 123.3 L 103.2 130.4 L 98.0 137.1 L 92.3 143.3 L 86.0 149.0 L 79.2 154.3 L 71.8 159.0 L 63.8 163.2 L 55.4 166.8 L 54.5 165.1 L 61.9 159.9 L 68.7 154.6 L 75.0 149.2 L 80.8 143.5 L 86.0 137.6 L 90.6 131.4 L 94.7 125.0 L 98.3 118.2 L 101.4 111.2 L 103.64016733169555 104.91029930114746 L 103.6 104.9 L 104.5 102.5 Z M 134.8 151.9 L 131.6 148.9 L 128.2 146.1 L 124.7 143.3 L 121.0 140.6 L 117.2 138.0 L 109.0 132.8 L 104.6 130.1 L 105.2 128.4 L 110.3 129.4 L 115.2 130.7 L 120.0 132.3 L 124.6 134.1 L 129.1 136.2 L 133.4 138.5 L 137.5 141.0 L 141.5 143.6 L 145.4 146.5 L 149.1 149.6 L 150.8 153.8 L 149.1 158.1 L 144.8 159.8 L 140.6 158.1 L 137.8 154.9 Z M 77.32253522872925 34.0 L 76.9 34.5 L 70.6 41.6 L 63.8 48.5 L 56.6 55.4 L 50.16525821685791 61.082629108428954 L 52.0 62.0 L 105.6 62.0 L 108.2 59.4 L 111.7 55.6 L 115.0 52.0 L 118.1 48.5 L 121.0 45.0 L 123.7 41.7 L 126.1 38.3 L 128.3 35.1 L 128.953125 34.0 Z " />
</g>
</svg>
