<svg xmlns="http://www.w3.org/2000/svg" xmlns:xlink="http://www.w3.org/1999/xlink" version="1.1" baseProfile="full" viewBox="0 0 200 200" width="200" height="200">
<g fill="black">
<path d="M 103.5 169.9 L 108.0 166.24375 L 108.0 125.33773584365845 L 105.9510145187378 126.34289855957032 L 105.2 131.6 L 103.6 140.3 L 101.6 148.4 L 99.4 156.0 L 96.8 163.1 L 93.9 169.6 L 90.7 175.6 L 87.1 180.9 L 83.1 185.6 L 78.7 189.5 L 77.3 188.4 L 80.0 183.4 L 82.5 178.2 L 84.8 172.6 L 86.9 166.7 L 88.8 160.3 L 90.4 153.5 L 91.8 146.2 L 93.0 138.4 L 93.9 130.2 L 94.43180027008057 122.4002628326416 L 94.4 122.4 L 94.7 119.2 L 106.5 122.5 L 108.0 123.67857141494751 L 108.0 116.0 L 93.8 116.0 L 93.8 119.0 L 84.8 123.5 L 84.8 20.5 L 93.8 25.0 L 115.6 25.0 L 121.1 20.0 L 131.6 29.0 L 126.6 32.5 L 126.6 116.0 L 120.0 119.3 L 120.0 156.2303030014038 L 123.1 153.6 L 130.1 148.0 L 133.7 145.2 L 137.4 142.3 L 138.7 143.6 L 136.2 147.5 L 133.7 151.3 L 131.0 155.0 L 128.4 158.6 L 125.6 162.1 L 122.9 165.6 L 120.1 168.9 L 117.4 172.2 L 114.6710482597351 175.31880197525024 L 115.4 179.3 L 111.8 178.6 L 102.1 171.3 Z M 24.476744174957275 26.538372135162355 L 24.9 26.4 L 30.0 24.9 L 35.0 23.5 L 39.9 22.1 L 44.7 20.6 L 49.4 19.1 L 54.0 17.6 L 58.5 16.0 L 62.9 14.3 L 66.32061195373535 12.947665023803712 L 66.3 12.9 L 66.34451446533203 12.938215255737305 L 67.2 12.6 L 67.71954307556152 14.118664360046386 L 76.9 22.0 L 77.1 25.1 L 73.10175323486328 23.309740257263183 L 71.1 24.0 L 66.4 25.2 L 61.5 26.3 L 56.6 27.3 L 51.6 28.2 L 46.5 28.9 L 41.4 29.5 L 36.1 30.0 L 30.8 30.2 L 25.4 30.2 L 25.4 44.0 L 66.3 44.0 L 71.3 39.0 L 81.3 48.0 L 76.3 51.0 L 76.3 79.0 L 66.3 84.0 L 66.3 75.0 L 25.4 75.0 L 25.4 87.0 L 25.0 100.1 L 24.4 112.5 L 23.7 124.3 L 22.8 135.4 L 21.7 145.7 L 20.5 155.4 L 19.1 164.4 L 17.5 172.7 L 15.5 180.3 L 13.3 187.1 L 11.5 186.8 L 11.8 179.7 L 12.2 172.0 L 12.6 163.7 L 12.9 154.8 L 13.2 145.2 L 13.5 134.9 L 13.6 123.9 L 13.7 112.2 L 13.6 99.9 L 13.401574802398681 87.00236225128174 L 13.4 87.0 L 13.4 21.0 Z M 49.8 175.5 L 59.8 175.5 L 60.8 175.4 L 61.5 175.3 L 62.1 175.0 L 62.2 174.8 L 62.4 174.6 L 62.6 174.1 L 62.8 173.4 L 63.0 172.3 L 63.1 171.0 L 63.1 151.0 L 37.5 151.0 L 37.5 182.0 L 25.5 188.0 L 25.5 90.0 L 37.5 96.0 L 63.1 96.0 L 68.6 91.0 L 79.1 100.0 L 74.1 103.5 L 74.1 171.0 L 74.0 173.4 L 73.6 175.7 L 72.9 178.0 L 71.9 180.1 L 70.5 182.1 L 68.8 183.7 L 66.7 185.0 L 64.5 185.8 L 62.2 186.3 L 59.8 186.5 L 59.8 181.0 L 49.8 178.2 Z M 183.3 145.0 L 185.3 145.0 L 183.3 170.0 L 186.9 172.4 L 189.3 176.0 L 186.9 179.6 L 183.3 182.0 L 171.5 182.0 L 169.0 181.8 L 166.5 181.4 L 164.1 180.6 L 161.8 179.3 L 159.8 177.7 L 158.1 175.7 L 156.9 173.4 L 156.1 171.0 L 155.7 168.5 L 155.5 166.0 L 155.5 132.2 L 154.8 137.0 L 152.8 145.9 L 150.2 154.1 L 147.0 161.6 L 143.3 168.3 L 138.9 174.2 L 133.9 179.3 L 128.4 183.5 L 122.4 186.6 L 115.9 188.8 L 115.2 187.1 L 120.5 183.4 L 125.1 179.2 L 129.2 174.7 L 132.8 169.7 L 135.9 164.1 L 138.5 157.9 L 140.7 151.1 L 142.3 143.6 L 143.5 135.3 L 144.21011238098146 127.4 L 144.2 127.4 L 144.5 124.3 L 155.5 127.21452989578248 L 155.5 122.4 L 145.0 122.4 L 134.0 127.9 L 134.0 19.7 L 145.0 25.2 L 168.8 25.2 L 174.8 20.2 L 185.8 29.2 L 180.8 33.2 L 180.8 128.4 L 168.8 134.4 L 168.8 122.4 L 167.5 122.4 L 167.5 166.0 L 167.6 167.2 L 167.7 168.1 L 167.9 168.7 L 168.1 169.0 L 168.5 169.4 L 169.4 169.7 L 170.3 169.9 L 171.5 170.0 L 177.3 170.0 Z M 37.5 125.0 L 37.5 147.0 L 63.1 147.0 L 63.1 125.0 Z M 37.5 100.0 L 37.5 121.0 L 63.1 121.0 L 63.1 100.0 Z M 145.0 90.0 L 145.0 118.4 L 168.8 118.4 L 168.8 90.0 Z M 93.8 85.0 L 93.8 112.0 L 115.6 112.0 L 115.6 85.0 Z M 145.0 59.6 L 145.0 86.0 L 168.8 86.0 L 168.8 59.6 Z M 93.8 57.0 L 93.8 81.0 L 115.6 81.0 L 115.6 57.0 Z M 25.4 48.0 L 25.4 71.0 L 66.3 71.0 L 66.3 48.0 Z M 145.0 29.2 L 145.0 55.6 L 168.8 55.6 L 168.8 29.2 Z M 93.8 29.0 L 93.8 53.0 L 115.6 53.0 L 115.6 29.0 Z " />
</g>
</svg>
