<svg xmlns="http://www.w3.org/2000/svg" xmlns:xlink="http://www.w3.org/1999/xlink" version="1.1" baseProfile="full" viewBox="0 0 200 200" width="200" height="200">
<g fill="black">
<path d="M 40.30540542602539 136.0 L 59.3 136.0 L 59.3 104.0 L 41.4 104.0 L 41.4 124.0 L 40.9 131.6 Z M 181.4 146.0 L 183.4 146.0 L 181.4 171.0 L 185.0 173.4 L 187.4 177.0 L 185.0 180.6 L 181.4 183.0 L 133.0 183.0 L 130.4 182.8 L 127.9 182.4 L 125.5 181.6 L 123.2 180.3 L 121.2 178.7 L 119.6 176.7 L 118.3 174.4 L 117.5 172.0 L 117.1 169.5 L 117.0 167.0 L 117.0 15.0 L 129.0 17.0 L 132.0 19.0 L 129.0 20.8 L 129.0 168.2 L 129.2 169.1 L 129.5 170.0 L 129.9 170.4 L 130.8 170.7 L 131.7 170.9 L 133.0 171.0 L 175.4 171.0 Z M 71.3 104.0 L 71.3 136.0 L 89.1 136.0 L 89.1 104.0 Z M 41.4 69.0 L 41.4 100.0 L 59.3 100.0 L 59.3 69.0 Z M 71.3 69.0 L 71.3 100.0 L 89.1 100.0 L 89.1 69.0 Z M 50.86000003814697 39.0 L 50.3 40.2 L 46.4 47.7 L 42.1 55.2 L 37.4 62.6 L 37.19497489929199 62.89748744964599 L 41.4 65.0 L 64.2324324607849 65.0 L 65.6 62.7 L 67.5 58.9 L 71.3 51.9 L 73.1 48.6 L 74.9 45.4 L 76.6 42.3 L 78.2 39.3 L 78.36551723480224 39.0 Z M 100.5 175.0 L 99.7 177.4 L 98.5 179.7 L 96.8 181.7 L 94.8 183.3 L 92.5 184.6 L 90.1 185.4 L 87.6 185.8 L 85.1 186.0 L 85.1 180.0 L 65.1 177.0 L 65.1 174.0 L 85.1 174.0 L 86.3 173.9 L 87.2 173.7 L 87.8 173.5 L 88.2 173.4 L 88.3 173.2 L 88.5 173.0 L 88.7 172.7 L 88.9 172.1 L 89.0 171.2 L 89.1 170.0 L 89.1 140.0 L 39.68873243331909 140.0 L 38.4 146.1 L 36.4 153.0 L 33.9 159.6 L 30.9 165.9 L 27.5 171.9 L 23.5 177.5 L 19.0 182.8 L 14.0 187.5 L 12.6 186.4 L 16.0 180.5 L 19.0 174.7 L 21.7 168.8 L 24.0 162.9 L 25.9 156.8 L 27.4 150.6 L 28.5 144.2 L 29.2 137.6 L 29.5 130.9 L 29.4 124.0 L 29.4 73.78035717010498 L 26.7 77.3 L 20.6 84.5 L 14.0 91.5 L 12.6 90.4 L 17.6 82.2 L 22.3 74.3 L 26.7 66.5 L 29.4 61.55 L 29.4 59.0 L 30.49285717010498 59.54642858505249 L 30.9 58.8 L 34.7 51.2 L 38.1 43.6 L 41.2 36.2 L 43.9 28.8 L 46.2 21.5 L 47.92465362548828 15.205014324188232 L 47.9 15.2 L 48.6 12.6 L 59.7 17.6 L 62.0 20.3 L 58.39802646636963 21.264814376831055 L 57.0 25.2 L 53.8 32.7 L 52.726666641235354 35.0 L 80.2 35.0 L 80.83225803375244 34.4731183052063 L 81.3 33.6 L 81.62006692886352 33.8166109085083 L 86.2 30.0 L 97.2 39.0 L 92.2 42.0 L 88.36648645401002 43.597297286987306 L 86.8 45.3 L 84.5 47.9 L 79.5 53.3 L 76.8 56.1 L 74.0 58.9 L 71.1 61.7 L 67.9 64.5 L 67.4 65.0 L 89.1 65.0 L 95.1 60.0 L 106.1 69.0 L 101.1 73.0 L 101.1 170.0 L 100.9 172.5 Z " />
</g>
</svg>
