<svg xmlns="http://www.w3.org/2000/svg" xmlns:xlink="http://www.w3.org/1999/xlink" version="1.1" baseProfile="full" viewBox="0 0 200 200" width="200" height="200">
<g fill="black">
<path d="M 54.0 153.0 L 146.0 153.0 L 152.0 148.0 L 163.0 157.0 L 158.0 161.0 L 158.0 179.0 L 146.0 185.0 L 146.0 177.0 L 54.0 177.0 L 54.0 180.0 L 42.0 186.0 L 42.0 147.0 Z M 54.0 157.0 L 54.0 173.0 L 146.0 173.0 L 146.0 157.0 Z M 155.0 138.0 L 155.0 142.0 L 45.0 142.0 L 45.0 138.0 L 140.7777777671814 138.0 L 147.0 131.0 Z M 155.0 122.0 L 155.0 126.0 L 45.0 126.0 L 45.0 122.0 L 140.7777777671814 122.0 L 147.0 115.0 Z M 188.0 105.0 L 188.0 109.0 L 12.0 109.0 L 12.0 105.0 L 169.8181818008423 105.0 L 178.0 96.0 Z M 160.0 91.0 L 160.0 95.0 L 40.0 95.0 L 40.0 91.0 L 141.8181818008423 91.0 L 150.0 82.0 Z M 83.6 75.5 L 79.9 73.2 L 75.8 71.0 L 72.88854532241821 69.64132118225098 L 72.4 70.0 L 63.3 75.1 L 53.1 79.4 L 41.6 83.0 L 29.0 85.8 L 15.1 87.8 L 14.8 86.1 L 28.0 82.2 L 40.0 77.9 L 50.5 73.4 L 59.7 68.4 L 63.36278257369995 65.91118621826172 L 61.1 65.1 L 55.4 63.3 L 49.3 61.5 L 47.4979681968689 61.00097579956055 L 44.6 67.7 L 31.3 68.5 L 46.10297727584839 34.0 L 17.0 34.0 L 17.0 30.0 L 47.81926441192627 30.0 L 55.8 11.4 L 66.1 18.0 L 68.0 21.0 L 64.49318838119507 21.714350509643555 L 60.908853149414064 30.0 L 87.0 30.0 L 93.0 25.0 L 104.0 34.0 L 99.0 37.0 L 97.55565032958984 37.6018123626709 L 96.3 41.9 L 92.3 50.1 L 86.9 57.5 L 81.35228090286255 63.13177547454834 L 84.2 64.1 L 88.9 66.1 L 93.2 68.4 L 97.3 71.0 L 99.5 75.0 L 98.3 79.4 L 94.3 81.6 L 89.9 80.4 L 87.0 77.9 Z M 126.0 26.9 L 165.0 26.9 L 171.0 21.9 L 182.0 30.9 L 177.0 34.9 L 177.0 75.3 L 165.0 81.3 L 165.0 69.3 L 126.0 69.3 L 126.0 76.3 L 114.0 82.3 L 114.0 20.9 Z M 126.0 30.9 L 126.0 65.3 L 165.0 65.3 L 165.0 30.9 Z M 59.17847080230713 34.0 L 48.8768232345581 57.81357612609863 L 49.8 57.8 L 56.3 58.1 L 62.5 58.7 L 68.4 59.7 L 70.74345378875732 60.21129903793335 L 73.9 57.4 L 79.1 51.3 L 82.9 44.9 L 85.5 38.2 L 86.375 34.0 Z " />
</g>
</svg>
