<svg xmlns="http://www.w3.org/2000/svg" xmlns:xlink="http://www.w3.org/1999/xlink" version="1.1" baseProfile="full" viewBox="0 0 200 200" width="200" height="200">
<g fill="black">
<path d="M 106.0 176.0 L 126.0 176.0 L 127.2 175.9 L 128.1 175.7 L 129.0 175.4 L 129.4 175.0 L 129.7 174.1 L 129.9 173.2 L 130.0 172.0 L 130.0 115.0 L 112.7 115.0 L 112.7 118.0 L 100.7 124.0 L 100.7 61.0 L 112.7 67.0 L 159.2 67.0 L 165.2 62.0 L 176.2 71.0 L 171.2 75.0 L 171.2 117.0 L 159.2 123.0 L 159.2 115.0 L 142.0 115.0 L 142.0 172.0 L 141.8 174.5 L 141.4 177.0 L 140.6 179.4 L 139.3 181.7 L 137.7 183.7 L 135.7 185.3 L 133.4 186.6 L 131.0 187.4 L 128.5 187.8 L 126.0 188.0 L 126.0 182.0 L 106.0 179.0 Z M 33.3452054977417 136.0 L 47.5 136.0 L 47.5 104.0 L 34.3 104.0 L 34.3 124.0 L 33.9 131.5 Z M 120.4 137.1 L 122.5 140.0 L 118.68718662261963 140.65738162994384 L 117.8 142.5 L 115.0 147.8 L 112.0 152.9 L 108.7 157.8 L 105.2 162.5 L 101.5 167.1 L 97.6 171.4 L 93.4 175.4 L 88.9 179.2 L 84.1 182.6 L 82.9 181.3 L 86.2 176.6 L 89.4 171.9 L 92.5 167.3 L 95.4 162.6 L 98.2 157.8 L 100.8 153.0 L 103.2 148.1 L 105.4 143.1 L 107.4 137.9 L 108.96403312683105 133.61948833465576 L 108.9 133.6 L 109.8 131.3 Z M 171.5 166.9 L 169.2 162.5 L 166.9 158.2 L 164.4 154.0 L 161.8 149.8 L 159.1 145.7 L 153.5 137.5 L 150.7 133.3 L 151.9 132.0 L 156.2 134.8 L 160.3 138.0 L 164.1 141.4 L 167.8 145.1 L 171.3 148.9 L 174.6 153.0 L 177.7 157.1 L 180.8 161.5 L 183.6 166.0 L 186.4 170.6 L 186.6 175.2 L 183.6 178.6 L 179.1 178.9 L 175.6 175.9 L 173.6 171.3 Z M 57.5 104.0 L 57.5 136.0 L 70.6 136.0 L 70.6 104.0 Z M 112.7 71.0 L 112.7 111.0 L 159.2 111.0 L 159.2 71.0 Z M 34.3 69.0 L 34.3 100.0 L 47.5 100.0 L 47.5 69.0 Z M 57.5 69.0 L 57.5 100.0 L 70.6 100.0 L 70.6 69.0 Z M 42.047999954223634 39.0 L 41.7 39.9 L 38.6 47.4 L 35.1 54.9 L 31.2 62.3 L 30.701058197021485 63.20052909851074 L 34.3 65.0 L 51.448648643493655 65.0 L 52.4 62.8 L 53.7 59.2 L 55.1 55.7 L 56.5 52.3 L 57.8 49.0 L 59.1 45.8 L 60.4 42.7 L 61.6 39.8 L 61.903448295593265 39.0 Z M 84.1 43.2 L 130.0 43.2 L 130.0 13.3 L 142.0 15.3 L 145.0 17.3 L 142.0 19.1 L 142.0 43.2 L 165.8 43.2 L 175.8 33.2 L 187.8 43.2 L 187.8 47.2 L 84.1 47.2 Z M 81.1 174.7 L 80.4 177.0 L 79.4 179.1 L 78.0 181.1 L 76.3 182.7 L 74.2 184.0 L 72.0 184.8 L 69.7 185.3 L 67.3 185.5 L 67.3 180.0 L 51.9 177.2 L 51.9 174.5 L 67.3 174.5 L 68.3 174.4 L 69.0 174.3 L 69.6 174.0 L 69.7 173.8 L 69.9 173.6 L 70.1 173.1 L 70.4 172.4 L 70.5 171.3 L 70.6 170.0 L 70.6 140.0 L 32.79718313217163 140.0 L 31.8 145.9 L 30.2 152.7 L 28.2 159.2 L 25.8 165.5 L 23.0 171.5 L 19.8 177.2 L 16.2 182.5 L 12.0 187.4 L 10.6 186.5 L 13.1 180.8 L 15.4 175.0 L 17.5 169.2 L 19.2 163.3 L 20.7 157.2 L 21.9 150.9 L 22.7 144.5 L 23.2 137.8 L 23.4 131.0 L 23.3 124.0 L 23.3 75.81304349899293 L 22.5 77.1 L 17.5 84.3 L 12.1 91.4 L 10.6 90.5 L 14.3 82.4 L 17.8 74.5 L 21.2 66.8 L 23.3 61.746875 L 23.3 59.5 L 24.0731183052063 59.886559104919435 L 24.4 59.1 L 27.3 51.5 L 29.9 44.0 L 32.3 36.6 L 34.3 29.2 L 36.1 21.9 L 37.6 14.6 L 37.61361255645752 14.603141403198242 L 38.0 12.8 L 49.3 17.3 L 51.8 19.9 L 48.190855503082275 21.08117456436157 L 47.1 24.8 L 44.6 32.4 L 43.59466667175293 35.0 L 63.1 35.0 L 63.61504421234131 34.570796489715576 L 63.8 34.1 L 64.0309633255005 34.22419729232788 L 69.1 30.0 L 80.1 39.0 L 75.1 42.0 L 71.82073736190796 43.36635942459107 L 70.7 44.9 L 68.7 47.5 L 66.7 50.2 L 64.6 52.9 L 62.3 55.7 L 60.0 58.6 L 57.5 61.5 L 54.9 64.3 L 54.312903213500974 65.0 L 70.6 65.0 L 76.1 60.0 L 86.6 69.0 L 81.6 72.5 L 81.6 170.0 L 81.5 172.4 Z " />
</g>
</svg>
