<svg xmlns="http://www.w3.org/2000/svg" xmlns:xlink="http://www.w3.org/1999/xlink" version="1.1" baseProfile="full" viewBox="0 0 200 200" width="200" height="200">
<g fill="black">
<path d="M 188.0 29.0 L 188.0 33.0 L 147.5 33.0 L 147.5 65.0 L 169.0 65.0 L 175.0 60.0 L 186.0 69.0 L 181.0 73.0 L 181.0 178.0 L 169.0 184.0 L 169.0 172.0 L 96.0 172.0 L 96.0 184.0 L 84.0 190.0 L 84.0 59.0 L 96.0 65.0 L 113.5 65.0 L 113.5 33.0 L 79.0 33.0 L 79.0 29.0 L 166.0 29.0 L 176.0 19.0 Z M 29.4 133.0 L 57.9 133.0 L 63.9 128.0 L 74.9 137.0 L 69.9 141.0 L 69.9 179.0 L 57.9 185.0 L 57.9 175.0 L 29.4 175.0 L 29.4 182.0 L 17.4 188.0 L 17.4 127.0 Z M 29.4 137.0 L 29.4 171.0 L 57.9 171.0 L 57.9 137.0 Z M 96.0 69.0 L 96.0 136.2675675392151 L 98.1 133.6 L 101.3 128.6 L 104.1 123.1 L 106.6 117.1 L 108.8 110.5 L 110.5 103.2 L 111.8 95.4 L 112.8 86.8 L 113.3 77.7 L 113.47575759887695 69.0 Z M 162.0 94.0 L 164.0 94.0 L 162.0 119.0 L 165.6 121.4 L 168.0 125.0 L 165.6 128.6 L 162.0 131.0 L 152.0 131.0 L 149.4 130.8 L 146.9 130.3 L 144.5 129.4 L 142.3 128.2 L 140.4 126.5 L 138.8 124.5 L 137.7 122.3 L 136.9 119.9 L 136.5 117.5 L 136.5 69.0 L 124.33883495330811 69.0 L 123.7 78.4 L 122.6 88.0 L 120.9 97.0 L 118.8 105.3 L 116.1 112.9 L 113.0 119.9 L 109.4 126.1 L 105.3 131.5 L 100.6 136.0 L 96.0 139.2470588684082 L 96.0 168.0 L 169.0 168.0 L 169.0 69.0 L 147.5 69.0 L 147.5 115.0 L 147.6 116.2 L 147.8 117.2 L 148.0 117.8 L 148.3 118.2 L 148.5 118.4 L 148.8 118.5 L 149.2 118.7 L 149.8 118.8 L 150.7 118.9 L 152.0 119.0 L 156.0 119.0 Z M 69.3 108.0 L 69.3 112.0 L 18.0 112.0 L 18.0 108.0 L 47.3 108.0 L 57.3 98.0 Z M 69.3 82.0 L 69.3 86.0 L 18.0 86.0 L 18.0 82.0 L 47.3 82.0 L 57.3 72.0 Z M 124.5 33.0 L 124.5 65.0 L 136.5 65.0 L 136.5 33.0 Z M 77.4 54.0 L 77.4 58.0 L 14.4 58.0 L 14.4 54.0 L 55.4 54.0 L 65.4 44.0 Z M 69.3 28.0 L 69.3 32.0 L 18.0 32.0 L 18.0 28.0 L 47.3 28.0 L 57.3 18.0 Z " />
</g>
</svg>
