<svg xmlns="http://www.w3.org/2000/svg" xmlns:xlink="http://www.w3.org/1999/xlink" version="1.1" baseProfile="full" viewBox="0 0 200 200" width="200" height="200">
<g fill="black">
<path d="M 112.7 155.9 L 119.0 158.9 L 125.4 161.6 L 132.0 164.1 L 138.8 166.2 L 145.7 168.1 L 152.8 169.6 L 160.2 170.9 L 167.8 171.8 L 175.6 172.4 L 186.2 173.4 L 174.3 185.5 L 166.0 184.2 L 157.9 182.4 L 150.2 180.3 L 142.7 177.9 L 135.5 175.0 L 128.7 171.7 L 122.2 168.1 L 116.1 164.0 L 110.4 159.4 L 105.91372547149658 155.0 L 96.85 155.0 L 95.5 156.9 L 88.7 163.5 L 80.5 169.3 L 71.1 174.1 L 60.3 178.1 L 48.2 181.2 L 34.8 183.5 L 20.1 184.8 L 19.8 183.1 L 34.1 179.8 L 46.8 176.0 L 58.0 171.9 L 67.7 167.3 L 75.9 162.1 L 82.5 156.6 L 83.88305082321168 155.0 L 14.0 155.0 L 14.0 151.0 L 87.34067792892456 151.0 L 87.6 150.7 L 91.4 144.3 L 93.8 137.6 L 94.49696969985962 133.0 L 37.5 133.0 L 37.5 136.0 L 26.5 141.5 L 26.5 94.0 L 37.5 96.0 L 40.2 98.0 L 37.5 99.72340421676635 L 37.5 129.0 L 148.0 129.0 L 154.0 124.0 L 165.0 133.0 L 160.0 137.0 L 160.0 151.0 L 164.0 151.0 L 174.0 141.0 L 186.0 151.0 L 186.0 155.0 L 110.84193544387817 155.0 Z M 106.5688172340393 133.0 L 104.7 140.9 L 100.9 149.3 L 99.69210529327393 151.0 L 148.0 151.0 L 148.0 133.0 Z M 55.6 90.6 L 143.8 90.6 L 149.8 85.6 L 160.8 94.6 L 155.8 98.6 L 155.8 119.2 L 143.8 125.2 L 143.8 119.2 L 55.6 119.2 L 44.6 124.7 L 44.6 85.1 Z M 55.6 94.6 L 55.6 115.2 L 143.8 115.2 L 143.8 94.6 Z M 156.0 74.2 L 156.0 78.2 L 44.0 78.2 L 44.0 74.2 L 137.8181818008423 74.2 L 146.0 65.2 Z M 156.0 57.7 L 156.0 61.7 L 44.0 61.7 L 44.0 57.7 L 137.8181818008423 57.7 L 146.0 48.7 Z M 185.0 40.6 L 185.0 44.6 L 15.0 44.6 L 15.0 40.6 L 166.8181818008423 40.6 L 175.0 31.6 Z M 157.0 22.8 L 157.0 26.8 L 43.0 26.8 L 43.0 22.8 L 135.0 22.8 L 145.0 12.8 Z " />
</g>
</svg>
