<svg xmlns="http://www.w3.org/2000/svg" xmlns:xlink="http://www.w3.org/1999/xlink" version="1.1" baseProfile="full" viewBox="0 0 200 200" width="200" height="200">
<g fill="black">
<path d="M 36.252702713012695 136.0 L 49.4 136.0 L 49.4 104.0 L 37.3 104.0 L 37.3 124.0 L 36.8 131.5 Z M 182.5 147.0 L 184.5 147.0 L 182.5 172.0 L 186.1 174.4 L 188.5 178.0 L 186.1 181.6 L 182.5 184.0 L 163.4 184.0 L 160.8 183.8 L 158.3 183.4 L 155.9 182.6 L 153.6 181.3 L 151.6 179.7 L 150.0 177.7 L 148.7 175.4 L 147.9 173.0 L 147.5 170.5 L 147.4 168.0 L 147.4 106.0 L 128.2404580116272 106.0 L 127.3 117.2 L 125.3 129.4 L 122.3 140.6 L 118.4 150.8 L 113.6 160.0 L 107.9 168.1 L 101.3 175.1 L 93.8 181.0 L 85.4 185.5 L 76.3 188.8 L 75.7 187.1 L 83.6 182.2 L 90.5 176.7 L 96.6 170.5 L 101.8 163.6 L 106.2 155.9 L 109.8 147.3 L 112.6 137.9 L 114.7 127.5 L 116.0 116.1 L 116.2504132270813 106.0 L 90.6 106.0 L 90.6 102.0 L 131.9 102.0 L 131.9 13.0 L 143.9 15.0 L 146.9 17.0 L 143.9 18.8 L 143.9 86.27307691574097 L 145.0 84.2 L 147.4 79.3 L 149.6 74.1 L 151.7 68.6 L 153.5 62.8 L 155.1 56.7 L 156.5 50.2 L 157.6 43.3 L 158.6 36.1 L 159.1220350265503 29.400550842285156 L 159.1 29.4 L 159.4 26.3 L 171.1 29.7 L 173.9 32.0 L 170.4627841949463 33.6213282585144 L 169.8 37.7 L 168.2 45.3 L 166.3 52.5 L 165.2878276824951 55.49250936508179 L 165.3 55.5 L 168.1 57.2 L 170.7 59.1 L 173.1 61.3 L 175.4 63.8 L 177.6 66.5 L 179.7 69.5 L 181.6 72.6 L 183.4 76.0 L 185.1 79.5 L 184.6 84.1 L 181.2 87.1 L 176.7 86.7 L 173.6 83.2 L 172.9 79.9 L 172.1 76.7 L 171.1 73.7 L 170.1 70.8 L 169.0 67.9 L 167.7 65.2 L 166.4 62.6 L 165.0 60.1 L 164.19901113510133 58.7116192817688 L 164.0 59.3 L 161.5 65.7 L 158.6 71.6 L 155.5 77.1 L 151.9 82.1 L 148.0 86.5 L 143.9 90.1119047164917 L 143.9 102.0 L 164.1 102.0 L 174.1 92.0 L 186.1 102.0 L 186.1 106.0 L 159.4 106.0 L 159.4 169.2 L 159.6 170.1 L 159.8 170.7 L 160.0 171.0 L 160.1 171.2 L 160.3 171.4 L 161.2 171.7 L 162.1 171.9 L 163.4 172.0 L 176.5 172.0 Z M 61.4 104.0 L 61.4 136.0 L 73.4 136.0 L 73.4 104.0 Z M 37.3 69.0 L 37.3 100.0 L 49.4 100.0 L 49.4 69.0 Z M 61.4 69.0 L 61.4 100.0 L 73.4 100.0 L 73.4 69.0 Z M 117.6 75.1 L 117.1 72.5 L 116.4 69.9 L 115.6 67.4 L 114.6 64.8 L 113.4 62.3 L 112.40169486999511 60.30338983535766 L 110.0 66.4 L 107.1 72.6 L 103.9 78.4 L 100.4 83.7 L 96.5 88.6 L 92.2 92.9 L 90.7 91.8 L 93.3 86.5 L 95.7 81.1 L 98.0 75.5 L 100.1 69.6 L 102.0 63.5 L 103.7 57.1 L 105.1 50.4 L 106.4 43.4 L 107.4 36.0 L 108.00787076950073 29.400260162353515 L 108.0 29.4 L 108.02758617401123 29.186206912994386 L 108.1 28.4 L 108.12860174179077 28.403336906433104 L 108.4 26.3 L 120.1 29.8 L 122.8 32.2 L 119.37098846435546 33.68806161880493 L 118.6 37.8 L 116.9 45.5 L 114.9 52.8 L 113.80797891616821 56.12354230880737 L 115.2 57.0 L 117.7 59.0 L 120.0 61.2 L 122.1 63.5 L 124.0 66.1 L 125.8 68.8 L 127.4 71.7 L 128.8 74.7 L 130.0 77.9 L 129.1 82.4 L 125.4 85.0 L 120.9 84.2 L 118.3 80.4 L 118.0 77.7 Z M 44.74799995422363 39.0 L 44.4 39.9 L 41.1 47.4 L 37.6 54.9 L 33.7 62.3 L 33.302105236053464 63.001052665710446 L 37.3 65.0 L 54.348648643493654 65.0 L 55.3 62.8 L 58.1 55.6 L 59.5 52.2 L 60.9 49.0 L 62.2 45.8 L 63.5 42.7 L 64.7 39.7 L 65.0 39.0 Z M 52.1 17.3 L 54.5 19.9 L 50.945971393585204 21.0631365776062 L 49.8 24.8 L 47.3 32.4 L 46.29466667175293 35.0 L 66.3 35.0 L 66.8150442123413 34.570796489715576 L 67.0 34.1 L 67.23010377883911 34.2249135017395 L 72.3 30.0 L 83.3 39.0 L 78.3 42.0 L 74.8769585609436 43.42626724243164 L 73.8 44.9 L 71.8 47.5 L 69.8 50.2 L 67.6 52.9 L 65.3 55.7 L 63.0 58.6 L 60.5 61.5 L 57.8 64.3 L 57.21290321350098 65.0 L 73.4 65.0 L 79.4 60.0 L 90.4 69.0 L 85.4 73.0 L 85.4 170.0 L 85.2 172.5 L 84.8 175.0 L 84.0 177.4 L 82.8 179.7 L 81.1 181.7 L 79.1 183.3 L 76.8 184.6 L 74.4 185.4 L 71.9 185.8 L 69.4 186.0 L 69.4 180.0 L 51.4 177.0 L 51.4 174.0 L 69.4 174.0 L 70.6 173.9 L 71.5 173.7 L 72.1 173.5 L 72.5 173.4 L 72.6 173.2 L 72.8 173.0 L 73.0 172.7 L 73.2 172.1 L 73.3 171.2 L 73.4 170.0 L 73.4 140.0 L 35.711428546905516 140.0 L 34.7 145.9 L 33.0 152.8 L 31.0 159.4 L 28.5 165.6 L 25.6 171.6 L 22.3 177.3 L 18.5 182.6 L 14.3 187.5 L 12.8 186.4 L 15.3 180.7 L 17.5 174.9 L 19.6 169.1 L 21.3 163.1 L 22.8 157.0 L 23.9 150.8 L 24.8 144.4 L 25.3 137.8 L 25.5 131.0 L 25.3 124.0 L 25.3 76.45652170181275 L 24.9 77.1 L 19.8 84.3 L 14.3 91.4 L 12.8 90.5 L 16.5 82.4 L 20.2 74.5 L 23.6 66.7 L 25.3 62.78484849929809 L 25.3 59.0 L 26.65027027130127 59.675135135650635 L 26.9 59.1 L 29.8 51.5 L 32.5 44.0 L 34.9 36.5 L 37.0 29.2 L 38.8 21.8 L 40.8 12.8 Z " />
</g>
</svg>
