<svg xmlns="http://www.w3.org/2000/svg" xmlns:xlink="http://www.w3.org/1999/xlink" version="1.1" baseProfile="full" viewBox="0 0 200 200" width="200" height="200">
<g fill="black">
<path d="M 92.3 157.7 L 98.8 157.1 L 106.1 156.4 L 107.2 156.28860759735107 L 107.2 77.5 L 91.5 77.5 L 91.5 73.5 L 167.01818180084229 73.5 L 175.2 64.5 L 185.2 73.5 L 185.2 77.5 L 167.2 77.5 L 167.2 150.05798320770265 L 175.4 149.3 L 188.0 148.3 L 188.3 150.1 L 176.0 153.1 L 167.2 155.05555553436278 L 167.2 182.7 L 155.2 188.7 L 155.2 157.68545455932616 L 153.3 158.1 L 142.8 160.2 L 133.1 162.2 L 123.9 163.9 L 115.5 165.6 L 107.6 167.1 L 100.4 168.4 L 97.97193765640259 168.84825763702392 L 96.3 172.3 L 93.9 169.6 L 90.3 158.0 Z M 34.652702713012694 136.0 L 48.0 136.0 L 48.0 104.0 L 35.7 104.0 L 35.7 124.0 L 35.2 131.5 Z M 119.2 130.8 L 119.2 155.05581398010253 L 122.6 154.7 L 131.8 153.8 L 141.7 152.7 L 152.2 151.6 L 155.2 151.28141593933105 L 155.2 130.8 Z M 60.0 104.0 L 60.0 136.0 L 72.3 136.0 L 72.3 104.0 Z M 119.2 104.5 L 119.2 126.8 L 155.2 126.8 L 155.2 104.5 Z M 119.2 77.5 L 119.2 100.5 L 155.2 100.5 L 155.2 77.5 Z M 35.7 69.0 L 35.7 100.0 L 48.0 100.0 L 48.0 69.0 Z M 60.0 69.0 L 60.0 100.0 L 72.3 100.0 L 72.3 69.0 Z M 117.0 20.8 L 159.1 20.8 L 165.1 15.8 L 176.1 24.8 L 171.1 28.8 L 171.1 59.2 L 159.1 65.2 L 159.1 57.2 L 117.0 57.2 L 117.0 60.2 L 105.0 66.2 L 105.0 14.8 Z M 43.147999954223636 39.0 L 42.8 39.9 L 39.5 47.4 L 35.9 54.9 L 32.0 62.4 L 31.66230363845825 62.98115186691284 L 35.7 65.0 L 52.98918914794922 65.0 L 54.0 62.8 L 55.3 59.1 L 56.8 55.6 L 58.2 52.2 L 59.6 48.9 L 61.0 45.8 L 62.3 42.7 L 63.5 39.7 L 63.78965520858765 39.0 Z M 117.0 24.8 L 117.0 53.2 L 159.1 53.2 L 159.1 24.8 Z M 83.7 175.0 L 82.9 177.4 L 81.6 179.7 L 80.0 181.7 L 78.0 183.3 L 75.7 184.6 L 73.3 185.4 L 70.8 185.8 L 68.3 186.0 L 68.3 180.0 L 50.3 177.0 L 50.3 174.0 L 68.3 174.0 L 69.5 173.9 L 70.4 173.7 L 71.3 173.4 L 71.7 173.0 L 72.0 172.1 L 72.2 171.2 L 72.3 170.0 L 72.3 140.0 L 34.0985915184021 140.0 L 33.0 146.0 L 31.3 152.8 L 29.2 159.4 L 26.7 165.7 L 23.8 171.7 L 20.5 177.3 L 16.7 182.6 L 12.4 187.5 L 10.9 186.4 L 13.4 180.7 L 15.7 174.9 L 17.8 169.1 L 19.6 163.1 L 21.1 157.0 L 22.2 150.8 L 23.1 144.4 L 23.6 137.8 L 23.8 131.0 L 23.7 124.0 L 23.7 76.14782609939576 L 23.1 77.1 L 18.0 84.3 L 12.4 91.4 L 10.9 90.5 L 14.7 82.4 L 18.4 74.5 L 21.9 66.7 L 23.7 62.55454549789429 L 23.7 59.0 L 24.968108081817626 59.63405408859253 L 25.2 59.1 L 28.2 51.5 L 30.9 44.0 L 33.3 36.5 L 35.5 29.1 L 37.3 21.8 L 38.9 14.5 L 38.92110004425049 14.50504961013794 L 39.3 12.8 L 50.6 17.3 L 53.0 19.9 L 49.462825298309326 21.057620811462403 L 48.3 24.9 L 45.7 32.4 L 44.69466667175293 35.0 L 65.1 35.0 L 65.55663719177247 34.61946907043457 L 65.8 34.0 L 66.09863481521606 34.16780433654785 L 71.1 30.0 L 82.1 39.0 L 77.1 42.0 L 73.73999996185303 43.4 L 72.6 44.9 L 70.6 47.5 L 68.5 50.2 L 66.3 53.0 L 64.0 55.8 L 61.6 58.6 L 59.1 61.5 L 56.4 64.4 L 55.880000019073485 65.0 L 72.3 65.0 L 78.3 60.0 L 89.3 69.0 L 84.3 73.0 L 84.3 170.0 L 84.1 172.5 Z " />
</g>
</svg>
