<svg xmlns="http://www.w3.org/2000/svg" xmlns:xlink="http://www.w3.org/1999/xlink" version="1.1" baseProfile="full" viewBox="0 0 200 200" width="200" height="200">
<g fill="black">
<path d="M 29.9 129.6 L 59.3 129.6 L 65.3 124.6 L 76.3 133.6 L 71.3 137.6 L 71.3 176.6 L 59.3 182.6 L 59.3 170.6 L 29.9 170.6 L 29.9 182.6 L 17.9 188.6 L 17.9 123.6 Z M 92.4 176.1 L 112.4 176.1 L 113.6 176.0 L 114.5 175.8 L 115.4 175.5 L 115.8 175.1 L 116.1 174.2 L 116.3 173.3 L 116.4 172.1 L 116.4 143.2 L 114.8 145.5 L 111.4 149.9 L 107.7 154.2 L 103.7 158.3 L 99.4 162.2 L 94.9 165.9 L 90.1 169.5 L 84.9 172.7 L 79.4 175.6 L 78.4 174.2 L 82.6 169.7 L 86.6 165.4 L 90.4 161.2 L 94.0 156.9 L 97.3 152.7 L 100.4 148.4 L 103.2 144.0 L 105.8 139.7 L 108.1 135.2 L 109.79916563034058 131.63984336853028 L 109.7 131.6 L 110.7 129.7 L 116.4 133.2764705657959 L 116.4 112.19473686218262 L 114.62177953720092 112.44431161880493 L 114.2 113.2 L 111.7 117.4 L 108.8 121.4 L 105.8 125.3 L 102.6 129.0 L 99.1 132.6 L 95.4 136.0 L 91.4 139.2 L 87.2 142.1 L 82.7 144.8 L 81.5 143.4 L 84.7 139.4 L 87.8 135.5 L 90.7 131.6 L 93.4 127.8 L 95.9 123.9 L 98.3 120.0 L 100.4 116.1 L 102.3 112.2 L 104.1 108.2 L 105.26286363601685 105.02150602340699 L 105.2 105.0 L 106.1 102.9 L 116.4 108.78571424484252 L 116.4 100.5 L 78.9 100.5 L 78.9 96.5 L 116.4 96.5 L 122.4 91.5 L 132.6 99.84545450210571 L 132.6 96.5 L 170.1 96.5 L 176.1 91.5 L 187.1 100.5 L 182.1 104.5 L 182.1 172.1 L 181.9 174.6 L 181.5 177.1 L 180.7 179.5 L 179.4 181.8 L 177.8 183.8 L 175.8 185.4 L 173.5 186.7 L 171.1 187.5 L 168.6 187.9 L 166.1 188.1 L 166.1 182.1 L 154.1 179.1 L 154.1 176.1 L 166.1 176.1 L 167.3 176.0 L 168.2 175.8 L 169.1 175.5 L 169.5 175.1 L 169.8 174.2 L 170.0 173.3 L 170.1 172.1 L 170.1 143.8125 L 168.9 145.5 L 165.3 149.9 L 161.6 154.2 L 157.5 158.3 L 153.2 162.2 L 148.7 165.9 L 143.8 169.5 L 138.6 172.7 L 133.1 175.6 L 132.1 174.2 L 136.3 169.7 L 140.3 165.4 L 144.2 161.1 L 147.8 156.9 L 151.2 152.6 L 154.4 148.3 L 157.3 144.0 L 159.9 139.6 L 162.4 135.1 L 164.5 130.6 L 164.55765342712402 130.63045845031738 L 165.1 129.6 L 170.1 132.9 L 170.1 112.19473686218262 L 168.32177953720094 112.44431161880493 L 167.9 113.2 L 165.4 117.4 L 162.6 121.4 L 159.6 125.2 L 156.4 129.0 L 153.0 132.5 L 149.4 135.9 L 145.5 139.1 L 141.4 142.1 L 137.0 144.8 L 135.8 143.4 L 138.9 139.4 L 141.9 135.5 L 144.7 131.6 L 147.3 127.8 L 149.8 123.9 L 152.1 120.1 L 154.1 116.1 L 156.0 112.2 L 157.8 108.2 L 158.96286363601683 105.02150602340699 L 158.9 105.0 L 159.8 102.9 L 170.1 108.78571424484252 L 170.1 100.5 L 133.4 100.5 L 128.4 104.5 L 128.4 172.1 L 128.2 174.6 L 127.8 177.1 L 127.0 179.5 L 125.8 181.8 L 124.1 183.8 L 122.1 185.4 L 119.8 186.7 L 117.4 187.5 L 114.9 187.9 L 112.4 188.1 L 112.4 182.1 L 92.4 179.1 Z M 29.9 133.6 L 29.9 166.6 L 59.3 166.6 L 59.3 133.6 Z M 70.8 105.2 L 70.8 109.2 L 18.4 109.2 L 18.4 105.2 L 48.8 105.2 L 58.8 95.2 Z M 101.2 22.5 L 162.7 22.5 L 168.7 17.5 L 179.7 26.5 L 174.7 30.5 L 174.7 81.4 L 162.7 87.4 L 162.7 79.4 L 101.2 79.4 L 101.2 82.4 L 89.2 88.4 L 89.2 16.5 Z M 70.8 79.9 L 70.8 83.9 L 18.4 83.9 L 18.4 79.9 L 48.8 79.9 L 58.8 69.9 Z M 101.2 53.0 L 101.2 75.4 L 162.7 75.4 L 162.7 53.0 Z M 79.1 52.6 L 79.1 56.6 L 14.7 56.6 L 14.7 52.6 L 57.1 52.6 L 67.1 42.6 Z M 101.2 26.5 L 101.2 49.0 L 162.7 49.0 L 162.7 26.5 Z M 70.8 27.2 L 70.8 31.2 L 18.4 31.2 L 18.4 27.2 L 48.8 27.2 L 58.8 17.2 Z " />
</g>
</svg>
