<svg xmlns="http://www.w3.org/2000/svg" xmlns:xlink="http://www.w3.org/1999/xlink" version="1.1" baseProfile="full" viewBox="0 0 200 200" width="200" height="200">
<g fill="black">
<path d="M 125.68206300735474 110.64676218032837 L 131.5 116.6 L 131.6 120.0 L 127.74413404464721 118.4044692993164 L 127.5 118.5 L 124.9 119.4 L 122.2 120.2 L 119.3 121.0 L 116.2 121.9 L 112.8 122.7 L 109.3 123.5 L 105.5 124.2 L 103.0 124.6375 L 103.0 145.0 L 116.1777777671814 145.0 L 122.4 138.0 L 130.4 145.0 L 130.4 149.0 L 103.0 149.0 L 103.0 173.0 L 116.1777777671814 173.0 L 122.4 166.0 L 130.4 173.0 L 130.4 177.0 L 103.0 177.0 L 103.0 184.0 L 91.0 190.0 L 91.0 118.0 L 103.0 120.0 L 103.63157892227173 120.42105264663697 L 104.0 120.2 L 107.3 118.3 L 110.3 116.5 L 113.2 114.8 L 115.8 113.1 L 118.1 111.6 L 120.3 110.1 L 122.1 108.6 L 122.96718053817749 107.89541578292847 L 122.9 107.8 L 122.9817102432251 107.88361043930054 L 123.7 107.3 Z M 160.59533214569092 113.92280073165894 L 160.2 121.5 L 159.91405096054078 124.04971237182617 L 161.0 130.1 L 162.7 137.5 L 164.8 144.4 L 167.4 150.9 L 170.3 156.9 L 173.7 162.6 L 177.6 167.8 L 181.9 172.7 L 186.6 177.2 L 188.2 178.7 L 177.4 186.7 L 172.4 180.9 L 168.0 174.7 L 164.2 168.1 L 161.1 161.2 L 158.6 154.0 L 156.8 146.5 L 156.5327935218811 144.7854250907898 L 154.8 151.5 L 151.7 159.9 L 148.0 167.5 L 143.6 174.3 L 138.6 180.1 L 133.0 185.0 L 126.8 188.7 L 125.8 187.2 L 130.4 182.2 L 134.5 176.7 L 138.1 170.8 L 141.1 164.2 L 143.7 157.0 L 145.8 149.1 L 147.3 140.4 L 148.4 131.0 L 148.9 120.9 L 148.8091672897339 110.99923601150513 L 148.8 111.0 L 148.8 107.6 L 160.8 110.0 L 163.8 112.0 Z M 26.8 133.0 L 50.8 133.0 L 56.8 128.0 L 67.8 137.0 L 62.8 141.0 L 62.8 179.0 L 50.8 185.0 L 50.8 175.0 L 26.8 175.0 L 26.8 182.0 L 14.8 188.0 L 14.8 127.0 Z M 88.8 47.0 L 118.2 47.0 L 118.2 12.0 L 130.2 14.0 L 133.2 16.0 L 130.2 17.8 L 130.2 27.0 L 153.01818180084229 27.0 L 161.2 18.0 L 171.2 27.0 L 171.2 31.0 L 130.2 31.0 L 130.2 47.0 L 172.6 47.0 L 173.1625 46.53125 L 173.2 46.4 L 173.27659578323363 46.436170196533205 L 178.6 42.0 L 189.6 51.0 L 184.6 54.0 L 181.07594938278197 55.46835441589356 L 179.8 57.2 L 175.0 63.2 L 171.4 67.2 L 169.5 69.2 L 167.9 71.4 L 166.3 70.5 L 167.4 68.0 L 168.0 65.3 L 168.7 62.7 L 170.1 57.7 L 170.8 55.3 L 171.9217391014099 51.0 L 88.8 51.0 L 88.8 111.0 L 88.3 121.2 L 87.5 130.9 L 86.3 140.0 L 84.8 148.5 L 83.0 156.3 L 80.8 163.6 L 78.2 170.1 L 75.2 176.0 L 71.7 181.2 L 67.8 185.5 L 66.4 184.4 L 68.4 179.3 L 70.3 173.9 L 72.0 168.0 L 73.5 161.5 L 74.7 154.6 L 75.7 147.0 L 76.4 138.9 L 76.8 130.2 L 76.9 120.9 L 76.8 111.0 L 76.8 41.0 Z M 26.8 137.0 L 26.8 171.0 L 50.8 171.0 L 50.8 137.0 Z M 61.6 108.0 L 61.6 112.0 L 16.0 112.0 L 16.0 108.0 L 43.418181800842284 108.0 L 51.6 99.0 Z M 127.6 101.8 L 125.1 101.4 L 122.7 100.6 L 120.4 99.3 L 118.4 97.7 L 116.8 95.7 L 115.5 93.4 L 114.7 91.0 L 114.3 88.5 L 114.2 86.0 L 114.2 76.90817441940308 L 89.8 79.9 L 89.3 76.0 L 114.2 72.94686651229858 L 114.2 53.0 L 126.2 55.0 L 129.2 57.0 L 126.2 58.8 L 126.2 71.4754768371582 L 140.9313857078552 69.66917610168457 L 149.6 58.5 L 162.7 67.0 L 163.2 70.9 L 126.2 75.4367847442627 L 126.2 87.2 L 126.4 88.1 L 126.7 89.0 L 127.1 89.4 L 128.0 89.7 L 128.9 89.9 L 130.2 90.0 L 168.6 90.0 L 174.6 65.0 L 176.6 65.0 L 174.6 90.0 L 178.2 92.4 L 180.6 96.0 L 178.2 99.6 L 174.6 102.0 L 130.2 102.0 Z M 61.6 82.0 L 61.6 86.0 L 16.0 86.0 L 16.0 82.0 L 43.418181800842284 82.0 L 51.6 73.0 Z M 68.8 54.0 L 68.8 58.0 L 12.8 58.0 L 12.8 54.0 L 46.8 54.0 L 56.8 44.0 Z M 61.6 28.0 L 61.6 32.0 L 16.0 32.0 L 16.0 28.0 L 43.418181800842284 28.0 L 51.6 19.0 Z " />
</g>
</svg>
