<svg xmlns="http://www.w3.org/2000/svg" xmlns:xlink="http://www.w3.org/1999/xlink" version="1.1" baseProfile="full" viewBox="0 0 200 200" width="200" height="200">
<g fill="black">
<path d="M 29.8 133.0 L 53.8 133.0 L 59.8 128.0 L 70.8 137.0 L 65.8 141.0 L 65.8 179.0 L 53.8 185.0 L 53.8 175.0 L 29.8 175.0 L 29.8 182.0 L 17.8 188.0 L 17.8 127.0 Z M 72.3 175.6 L 110.1 175.6 L 110.1 132.1 L 89.6 132.1 L 89.6 144.1 L 77.6 150.1 L 77.6 82.3 L 89.6 88.3 L 109.4 88.3 L 109.4 62.3 L 93.2 62.3 L 93.2 74.3 L 81.2 80.3 L 81.2 18.3 L 93.2 24.3 L 109.4 24.3 L 115.4 19.3 L 126.4 28.3 L 121.4 32.3 L 121.4 98.3 L 109.4 104.3 L 109.4 92.3 L 89.6 92.3 L 89.6 128.1 L 110.1 128.1 L 116.1 123.1 L 127.1 132.1 L 122.1 136.1 L 122.1 175.6 L 137.6 175.6 L 137.6 122.1 L 149.6 128.1 L 169.3 128.1 L 169.3 90.4 L 149.6 90.4 L 149.6 96.4 L 137.6 102.4 L 137.6 17.4 L 149.6 23.4 L 167.2 23.4 L 173.2 18.4 L 184.2 27.4 L 179.2 31.4 L 179.2 66.3 L 167.2 72.3 L 167.2 62.3 L 149.6 62.3 L 149.6 86.4 L 169.3 86.4 L 175.3 81.4 L 186.3 90.4 L 181.3 94.4 L 181.3 138.1 L 169.3 144.1 L 169.3 132.1 L 149.6 132.1 L 149.6 175.6 L 166.0 175.6 L 176.0 165.6 L 188.0 175.6 L 188.0 179.6 L 72.3 179.6 Z M 29.8 137.0 L 29.8 171.0 L 53.8 171.0 L 53.8 137.0 Z M 64.6 108.0 L 64.6 112.0 L 19.0 112.0 L 19.0 108.0 L 46.33636360168457 108.0 L 54.6 99.0 Z M 64.6 82.0 L 64.6 86.0 L 19.0 86.0 L 19.0 82.0 L 46.33636360168457 82.0 L 54.6 73.0 Z M 149.6 27.4 L 149.6 58.3 L 167.2 58.3 L 167.2 27.4 Z M 93.2 28.3 L 93.2 58.3 L 109.4 58.3 L 109.4 28.3 Z M 71.8 54.0 L 71.8 58.0 L 15.8 58.0 L 15.8 54.0 L 49.8 54.0 L 59.8 44.0 Z M 64.6 28.0 L 64.6 32.0 L 19.0 32.0 L 19.0 28.0 L 46.33636360168457 28.0 L 54.6 19.0 Z " />
</g>
</svg>
