<svg xmlns="http://www.w3.org/2000/svg" xmlns:xlink="http://www.w3.org/1999/xlink" version="1.1" baseProfile="full" viewBox="0 0 200 200" width="200" height="200">
<g fill="black">
<path d="M 30.7 133.0 L 61.4 133.0 L 67.4 128.0 L 78.4 137.0 L 73.4 141.0 L 73.4 179.0 L 61.4 185.0 L 61.4 175.0 L 30.7 175.0 L 30.7 182.0 L 18.7 188.0 L 18.7 127.0 Z M 151.4 183.6 L 149.4 184.8 L 147.3 185.9 L 145.2 186.9 L 143.0 187.6 L 140.7 188.2 L 138.4 188.6 L 136.1 188.9 L 133.7 189.0 L 133.7 183.0 L 113.7 180.0 L 113.7 177.0 L 133.7 177.0 L 135.2 176.9 L 138.2 176.5 L 139.5 176.1 L 140.9 175.7 L 142.1 175.1 L 143.4 174.5 L 144.6 173.7 L 145.8 172.8 L 147.0 171.8 L 148.2 170.5 L 149.4 168.9 L 150.6 166.9 L 151.7 164.5 L 152.8 161.6 L 153.7 158.4 L 154.6 154.7 L 155.3 150.7 L 156.0 146.2 L 156.2291666984558 144.0 L 117.63937673568725 144.0 L 115.1 152.3 L 101.8 154.5 L 112.68666667938233 119.0 L 87.3 119.0 L 87.3 115.0 L 161.6 115.0 L 171.6 105.0 L 183.6 115.0 L 183.6 119.0 L 125.28810195922851 119.0 L 118.86317281723022 140.0 L 156.5 140.0 L 162.5 135.0 L 173.5 144.0 L 168.5 147.0 L 167.9545454978943 147.22727270126342 L 167.9 147.7 L 167.2 152.6 L 166.3 157.2 L 165.3 161.5 L 164.1 165.4 L 162.8 169.1 L 161.2 172.4 L 159.4 175.5 L 157.4 178.2 L 155.1 180.6 L 153.3 182.2 Z M 30.7 137.0 L 30.7 171.0 L 61.4 171.0 L 61.4 137.0 Z M 73.1 108.0 L 73.1 112.0 L 19.0 112.0 L 19.0 108.0 L 51.1 108.0 L 61.1 98.0 Z M 168.5 96.2 L 163.1 90.9 L 158.1 85.3 L 153.5 79.4 L 149.3 73.1 L 145.6 66.4 L 142.3 59.4 L 139.5 52.0 L 137.61538457870483 45.0 L 134.31018514633178 45.0 L 132.2 50.3 L 127.2 60.5 L 121.4 70.1 L 115.0 79.1 L 107.8 87.4 L 100.0 94.9 L 91.4 101.7 L 82.1 107.7 L 81.0 106.2 L 88.9 98.8 L 96.2 91.1 L 102.8 83.1 L 108.0688172340393 75.63584232330322 L 104.8 75.2 L 101.9 71.7 L 101.8 69.9 L 101.5 68.1 L 101.1 66.1 L 100.5 64.1 L 99.8 62.0 L 97.8 57.4 L 96.5 55.1 L 95.2 52.5 L 93.3 50.3 L 94.5 49.0 L 96.9 50.9 L 99.4 52.5 L 101.7 54.2 L 103.9 56.0 L 105.9 57.8 L 107.7 59.8 L 109.4 61.8 L 110.9 63.9 L 112.3 66.1 L 113.08851175308227 67.61131420135499 L 114.2 65.8 L 118.9 56.4 L 122.9 46.5 L 123.39514560699463 45.0 L 86.5 45.0 L 86.5 41.0 L 124.71553401947021 41.0 L 126.3 36.2 L 129.1 25.3 L 131.01552724838257 14.901423358917237 L 131.0 14.9 L 131.14399995803834 14.203999996185303 L 131.2 13.9 L 131.20665159225464 13.901183795928954 L 131.6 12.0 L 143.0 16.0 L 145.6 18.5 L 142.0634644508362 19.875319385528563 L 140.1 28.0 L 136.5 39.5 L 135.9027777671814 41.0 L 162.5 41.0 L 172.5 31.0 L 184.5 41.0 L 184.5 45.0 L 140.04029846191406 45.0 L 143.3 50.2 L 147.5 56.6 L 151.7 62.6 L 156.1 68.2 L 160.8 73.5 L 160.97710847854614 73.68079814910888 L 162.2 70.7 L 163.7 67.2 L 165.1 64.0 L 166.4 61.1 L 167.6 58.4 L 168.7 56.0 L 169.6 53.9 L 170.4 52.0 L 170.66316776275636 51.254358005523684 L 170.4 51.1 L 171.5 49.6 L 180.8 57.2 L 182.1 60.6 L 177.57530117034912 60.28795185089111 L 176.5 61.3 L 174.8 63.1 L 172.8 65.2 L 170.6 67.6 L 168.2 70.2 L 165.7 73.0 L 163.02299890518188 75.76931142807007 L 165.6 78.4 L 170.7 82.9 L 176.0 87.1 L 181.5 90.9 L 187.3 94.3 L 191.5 96.9 L 180.4 105.6 L 174.2 101.1 Z M 159.0 90.0 L 159.0 94.0 L 112.0 94.0 L 112.0 90.0 L 140.8181818008423 90.0 L 149.0 81.0 Z M 73.1 82.0 L 73.1 86.0 L 19.0 86.0 L 19.0 82.0 L 51.1 82.0 L 61.1 72.0 Z M 81.7 54.0 L 81.7 58.0 L 15.2 58.0 L 15.2 54.0 L 59.7 54.0 L 69.7 44.0 Z M 73.1 28.0 L 73.1 32.0 L 19.0 32.0 L 19.0 28.0 L 51.1 28.0 L 61.1 18.0 Z " />
</g>
</svg>
