<svg xmlns="http://www.w3.org/2000/svg" xmlns:xlink="http://www.w3.org/1999/xlink" version="1.1" baseProfile="full" viewBox="0 0 200 200" width="200" height="200">
<g fill="black">
<path d="M 96.8 26.0 L 120.5 26.0 L 126.5 21.0 L 137.5 30.0 L 132.5 34.0 L 132.5 78.0 L 120.5 84.0 L 120.5 72.0 L 96.8 72.0 L 96.8 102.0 L 111.41818180084229 102.0 L 119.6 93.0 L 129.6 102.0 L 129.6 106.0 L 96.8 106.0 L 96.8 134.0 L 111.41818180084229 134.0 L 119.6 125.0 L 129.6 134.0 L 129.6 138.0 L 96.8 138.0 L 96.8 183.0 L 84.8 189.0 L 84.8 20.0 Z M 29.1 133.0 L 57.1 133.0 L 63.1 128.0 L 74.1 137.0 L 69.1 141.0 L 69.1 179.0 L 57.1 185.0 L 57.1 175.0 L 29.1 175.0 L 29.1 182.0 L 17.1 188.0 L 17.1 127.0 Z M 164.6 172.9 L 158.9 166.5 L 155.03109855651854 161.0061598777771 L 150.2 165.9 L 141.4 172.6 L 131.7 178.2 L 121.0 182.6 L 109.4 185.8 L 108.9 184.1 L 119.5 179.1 L 129.1 173.6 L 137.5 167.4 L 144.9 160.5 L 150.66000003814696 153.46000003814697 L 149.7 151.7 L 146.3 143.3 L 143.7 134.4 L 141.9 124.8 L 140.9 114.7 L 140.99065418243407 105.0 L 133.7 105.0 L 133.7 101.0 L 168.5 101.0 L 174.5 96.0 L 185.5 105.0 L 180.5 108.0 L 179.53729763031006 108.40112600326538 L 178.1 116.4 L 174.7 128.3 L 170.2 139.3 L 164.6 149.2 L 161.81677227020265 152.897123336792 L 162.3 153.6 L 167.2 159.3 L 172.6 164.2 L 178.4 168.5 L 184.8 172.2 L 189.6 174.9 L 178.4 183.7 L 171.1 178.7 Z M 29.1 137.0 L 29.1 171.0 L 57.1 171.0 L 57.1 137.0 Z M 143.04803924560548 105.0 L 145.1 114.1 L 147.6 123.6 L 150.6 132.2 L 154.0 140.1 L 156.47164554595946 144.5996624946594 L 156.6 144.4 L 161.0 135.2 L 164.4 125.1 L 166.9 114.1 L 168.13389825820923 105.0 Z M 68.5 108.0 L 68.5 112.0 L 17.8 112.0 L 17.8 108.0 L 46.5 108.0 L 56.5 98.0 Z M 68.5 82.0 L 68.5 86.0 L 17.8 86.0 L 17.8 82.0 L 46.5 82.0 L 56.5 72.0 Z M 185.5 30.0 L 180.5 34.0 L 180.5 78.0 L 168.5 84.0 L 168.5 72.0 L 139.8 72.0 L 139.8 68.0 L 168.5 68.0 L 168.5 30.0 L 141.8 30.0 L 141.8 26.0 L 168.5 26.0 L 174.5 21.0 Z M 96.8 30.0 L 96.8 68.0 L 120.5 68.0 L 120.5 30.0 Z M 76.5 54.0 L 76.5 58.0 L 14.2 58.0 L 14.2 54.0 L 54.5 54.0 L 64.5 44.0 Z M 68.5 28.0 L 68.5 32.0 L 17.8 32.0 L 17.8 28.0 L 46.5 28.0 L 56.5 18.0 Z " />
</g>
</svg>
