<svg xmlns="http://www.w3.org/2000/svg" xmlns:xlink="http://www.w3.org/1999/xlink" version="1.1" baseProfile="full" viewBox="0 0 200 200" width="200" height="200">
<g fill="black">
<path d="M 54.0 160.5 L 146.0 160.5 L 152.0 155.5 L 163.0 164.5 L 158.0 168.5 L 158.0 182.5 L 146.0 188.5 L 146.0 182.5 L 54.0 182.5 L 42.0 188.5 L 42.0 154.5 Z M 54.0 164.5 L 54.0 178.5 L 146.0 178.5 L 146.0 164.5 Z M 155.0 147.0 L 155.0 151.0 L 45.0 151.0 L 45.0 147.0 L 140.7777777671814 147.0 L 147.0 140.0 Z M 155.0 132.6 L 155.0 136.6 L 45.0 136.6 L 45.0 132.6 L 140.7777777671814 132.6 L 147.0 125.6 Z M 188.0 117.3 L 188.0 121.3 L 12.0 121.3 L 12.0 117.3 L 173.7777777671814 117.3 L 180.0 110.3 Z M 160.0 104.7 L 160.0 108.7 L 40.0 108.7 L 40.0 104.7 L 141.8181818008423 104.7 L 150.0 95.7 Z M 53.5 85.7 L 73.1 85.7 L 76.1 85.3 L 77.6 84.9 L 79.0 84.5 L 80.4 84.0 L 83.0 82.6 L 83.4 82.37142858505248 L 83.4 63.3 L 83.4615385055542 60.1 L 55.305555534362796 60.1 L 54.8 65.3 L 53.2 71.8 L 50.8 77.4 L 47.4 82.2 L 43.2 86.1 L 38.2 89.1 L 32.7 91.4 L 26.4 93.2 L 19.4 94.4 L 11.6 95.2 L 11.3 93.5 L 18.5 90.7 L 24.7 88.1 L 30.0 85.4 L 34.3 82.6 L 37.6 79.7 L 40.0 76.5 L 41.7 73.0 L 42.9 69.0 L 43.4 64.0 L 43.46610174179077 60.1 L 16.0 60.1 L 16.0 56.1 L 83.5 56.1 L 89.5 51.1 L 100.5 60.1 L 95.5 63.1 L 95.40306949615479 63.14038772583008 L 95.4 63.3 L 95.4 85.5 L 93.0 90.3 L 91.1 91.7 L 89.2 92.9 L 87.1 94.1 L 85.0 95.0 L 82.9 95.8 L 80.7 96.5 L 78.4 97.0 L 76.1 97.4 L 73.8 97.6 L 71.5 97.7 L 71.5 91.7 L 53.5 88.7 Z M 139.5 85.7 L 161.1 85.7 L 164.1 85.3 L 165.6 84.9 L 167.0 84.5 L 168.4 84.0 L 171.0 82.6 L 171.4 82.37142858505248 L 171.4 63.3 L 171.4615385055542 60.1 L 143.30555553436278 60.1 L 142.8 65.3 L 141.2 71.8 L 138.8 77.4 L 135.4 82.2 L 131.2 86.1 L 126.2 89.1 L 120.7 91.4 L 114.4 93.2 L 107.4 94.4 L 99.6 95.2 L 99.3 93.5 L 106.5 90.7 L 112.7 88.1 L 118.0 85.4 L 122.3 82.6 L 125.6 79.7 L 128.0 76.5 L 129.7 73.0 L 130.9 69.0 L 131.4 64.0 L 131.46610174179077 60.1 L 104.0 60.1 L 104.0 56.1 L 171.5 56.1 L 177.5 51.1 L 188.5 60.1 L 183.5 63.1 L 183.40306949615479 63.14038772583008 L 183.4 63.3 L 183.4 85.5 L 181.0 90.3 L 179.1 91.7 L 177.2 92.9 L 175.1 94.1 L 173.0 95.0 L 170.9 95.8 L 168.7 96.5 L 166.4 97.0 L 164.1 97.4 L 161.8 97.6 L 159.5 97.7 L 159.5 91.7 L 139.5 88.7 Z M 25.0 50.7 L 25.0 11.3 L 37.0 17.3 L 163.0 17.3 L 169.0 12.3 L 180.0 21.3 L 175.0 25.3 L 175.0 44.7 L 163.0 50.7 L 163.0 44.7 L 37.0 44.7 Z M 37.0 21.3 L 37.0 40.7 L 71.0 40.7 L 71.0 21.3 Z M 83.0 21.3 L 83.0 40.7 L 117.0 40.7 L 117.0 21.3 Z M 129.0 21.3 L 129.0 40.7 L 163.0 40.7 L 163.0 21.3 Z " />
</g>
</svg>
