<svg xmlns="http://www.w3.org/2000/svg" xmlns:xlink="http://www.w3.org/1999/xlink" version="1.1" baseProfile="full" viewBox="0 0 200 200" width="200" height="200">
<g fill="black">
<path d="M 157.1 179.1 L 148.3 174.2 L 140.0 168.6 L 132.3 162.3 L 125.90386648178101 155.72111978530884 L 124.9 157.4 L 117.7 165.9 L 109.0 173.0 L 99.0 178.9 L 87.7 183.6 L 75.0 186.9 L 61.0 188.8 L 60.8 187.1 L 74.0 183.2 L 85.7 178.6 L 95.8 173.2 L 104.4 167.0 L 111.5 160.0 L 117.2 152.3 L 119.38132705688477 147.88661737442015 L 118.9 147.3 L 113.1 138.7 L 108.1 129.4 L 103.9 119.2 L 105.6 118.4 L 111.7 127.2 L 117.9 135.3 L 122.4923490524292 140.45756130218507 L 124.5 134.1 L 126.1 123.5 L 126.46521739959717 113.0 L 98.4 113.0 L 98.4 125.0 L 86.4 131.0 L 86.4 48.0 L 98.4 54.0 L 126.5 54.0 L 126.5 32.0 L 77.2 32.0 L 77.2 28.0 L 165.8 28.0 L 175.8 18.0 L 187.8 28.0 L 187.8 32.0 L 138.5 32.0 L 138.5 54.0 L 165.6 54.0 L 171.6 49.0 L 182.6 58.0 L 177.6 62.0 L 177.6 119.0 L 165.6 125.0 L 165.6 113.0 L 138.41472864151 113.0 L 137.4 124.9 L 134.8 136.9 L 130.7 147.7 L 130.31607828140258 148.3420760154724 L 131.2 149.2 L 138.3 155.1 L 145.8 160.2 L 153.7 164.6 L 161.9 168.3 L 170.6 171.2 L 179.7 173.5 L 188.2 175.7 L 176.5 186.4 L 166.5 183.1 Z M 28.7 133.0 L 56.1 133.0 L 62.1 128.0 L 73.1 137.0 L 68.1 141.0 L 68.1 175.0 L 56.1 181.0 L 56.1 175.0 L 28.7 175.0 L 28.7 182.0 L 16.7 188.0 L 16.7 127.0 Z M 28.7 137.0 L 28.7 171.0 L 56.1 171.0 L 56.1 137.0 Z M 67.3 108.0 L 67.3 112.0 L 17.5 112.0 L 17.5 108.0 L 49.11818180084229 108.0 L 57.3 99.0 Z M 98.4 85.0 L 98.4 109.0 L 126.5 109.0 L 126.5 85.0 Z M 138.5 85.0 L 138.5 109.0 L 165.6 109.0 L 165.6 85.0 Z M 67.3 82.0 L 67.3 86.0 L 17.5 86.0 L 17.5 82.0 L 49.11818180084229 82.0 L 57.3 73.0 Z M 98.4 58.0 L 98.4 81.0 L 126.5 81.0 L 126.5 58.0 Z M 138.5 58.0 L 138.5 81.0 L 165.6 81.0 L 165.6 58.0 Z M 75.2 54.0 L 75.2 58.0 L 14.0 58.0 L 14.0 54.0 L 53.2 54.0 L 63.2 44.0 Z M 67.3 28.0 L 67.3 32.0 L 17.5 32.0 L 17.5 28.0 L 49.11818180084229 28.0 L 57.3 19.0 Z " />
</g>
</svg>
