<svg xmlns="http://www.w3.org/2000/svg" xmlns:xlink="http://www.w3.org/1999/xlink" version="1.1" baseProfile="full" viewBox="0 0 200 200" width="200" height="200">
<g fill="black">
<path d="M 132.8 112.4 L 169.5 112.4 L 175.5 107.4 L 186.5 116.4 L 181.5 120.4 L 181.5 177.5 L 169.5 183.5 L 169.5 171.5 L 132.8 171.5 L 132.8 183.5 L 120.8 189.5 L 120.8 106.4 Z M 112.00465116500854 35.60232553482056 L 114.9 34.8 L 123.0 32.8 L 130.6 30.9 L 138.0 29.0 L 145.0 27.1 L 151.7 25.2 L 158.1 23.4 L 169.8 19.5 L 174.22508611679078 17.861079216003418 L 174.2 17.8 L 174.25757579803468 17.8490460395813 L 175.2 17.5 L 175.69169960021972 19.070707035064697 L 185.0 27.0 L 185.2 30.1 L 181.13491773605347 28.246800708770753 L 178.8 29.0 L 173.0 30.4 L 166.9 31.8 L 160.5 33.1 L 153.8 34.3 L 146.8 35.4 L 139.4 36.4 L 131.8 37.3 L 123.8 38.1 L 115.5 38.6 L 112.8 38.66279067993164 L 112.8 73.0 L 166.4 73.0 L 176.4 63.0 L 188.4 73.0 L 188.4 77.0 L 112.8 77.0 L 112.8 102.0 L 112.2 113.5 L 111.1 124.4 L 109.6 134.8 L 107.5 144.5 L 104.8 153.6 L 101.7 162.0 L 98.0 169.8 L 93.7 176.9 L 88.9 183.1 L 83.4 188.5 L 82.1 187.4 L 85.8 181.0 L 89.1 174.2 L 92.0 167.1 L 94.5 159.5 L 96.7 151.3 L 98.4 142.6 L 99.6 133.3 L 100.4 123.5 L 100.8 113.0 L 100.8 30.0 Z M 72.5 85.5 L 70.6 82.1 L 68.6 78.6 L 66.4 75.0 L 64.0 71.3 L 61.4 67.5 L 58.6 63.6 L 55.91476449966431 59.80363254547119 L 53.5 65.5 L 49.3 74.3 L 44.9 82.8 L 40.2 91.0 L 35.3 98.7 L 31.685999965667726 103.84300003051757 L 42.0 109.0 L 69.6 109.0 L 75.6 104.0 L 86.6 113.0 L 81.6 117.0 L 81.6 169.0 L 69.6 175.0 L 69.6 167.0 L 42.0 167.0 L 42.0 179.0 L 30.0 185.0 L 30.0 106.22962961196899 L 24.7 113.1 L 18.9 119.6 L 12.7 125.5 L 11.3 124.4 L 15.9 117.2 L 20.3 110.0 L 24.6 102.5 L 28.8 94.8 L 32.8 86.9 L 36.6 78.7 L 40.2 70.2 L 43.6 61.4 L 46.7 52.4 L 49.41183013916016 43.902932262420656 L 49.4 43.9 L 50.2 41.5 L 61.1 46.8 L 63.3 49.7 L 59.673144245147704 50.46354856491089 L 57.4 56.3 L 57.304104518890384 56.52621488571167 L 58.1 57.1 L 62.2 60.2 L 66.0 63.4 L 69.5 66.6 L 72.8 69.9 L 75.9 73.2 L 78.8 76.5 L 81.4 79.8 L 83.9 83.2 L 86.1 86.5 L 86.4 91.1 L 83.5 94.6 L 79.0 95.0 L 75.4 92.1 L 74.1 88.8 Z M 132.8 116.4 L 132.8 167.5 L 169.5 167.5 L 169.5 116.4 Z M 42.0 113.0 L 42.0 163.0 L 69.6 163.0 L 69.6 113.0 Z M 47.2 20.5 L 49.6 23.2 L 45.86589403152466 24.266887378692626 L 45.5 25.3 L 43.6 30.2 L 41.4 35.2 L 36.3 45.4 L 33.3 50.7 L 30.1 56.1 L 26.7 61.5 L 22.8 66.9 L 18.6 72.4 L 17.0 71.5 L 19.5 65.1 L 21.9 59.0 L 24.3 53.1 L 26.5 47.4 L 28.5 42.0 L 30.3 36.7 L 32.0 31.6 L 33.4 26.6 L 34.7 21.9 L 35.479390907287595 18.314801692962646 L 35.4 18.3 L 36.1 15.7 Z M 76.5 41.5 L 75.2 38.6 L 73.6 35.6 L 71.8 32.7 L 69.9 29.8 L 67.8 26.9 L 65.5 24.0 L 63.0 21.0 L 60.2 18.3 L 61.2 16.8 L 68.4 20.6 L 71.7 22.7 L 74.9 25.1 L 77.8 27.6 L 80.6 30.3 L 83.2 33.2 L 85.6 36.2 L 87.8 39.5 L 89.8 42.8 L 89.8 47.4 L 86.6 50.7 L 82.1 50.7 L 78.8 47.6 L 77.7 44.5 Z " />
</g>
</svg>
