<svg xmlns="http://www.w3.org/2000/svg" xmlns:xlink="http://www.w3.org/1999/xlink" version="1.1" baseProfile="full" viewBox="0 0 200 200" width="200" height="200">
<g fill="black">
<path d="M 164.6 181.7 L 161.7 179.0 L 158.7 176.4 L 155.4 173.9 L 151.9 171.3 L 148.2 168.9 L 144.3 166.4 L 140.2 163.8 L 135.9 161.3 L 136.5 159.6 L 141.5 160.7 L 146.3 161.8 L 151.0 163.3 L 155.4 165.0 L 159.6 166.8 L 163.7 168.9 L 167.6 171.1 L 171.3 173.5 L 174.8 176.1 L 178.1 178.8 L 179.8 183.0 L 178.0 187.3 L 173.8 188.9 L 169.6 187.2 L 167.2 184.4 Z M 115.9 165.6 L 116.6 169.2 L 112.7566951751709 168.18860397338867 L 112.5 168.4 L 108.8 171.0 L 104.8 173.6 L 100.7 176.1 L 96.2 178.5 L 91.6 180.8 L 86.6 183.0 L 81.4 185.0 L 75.9 186.8 L 70.0 188.4 L 69.3 186.8 L 74.3 183.4 L 79.0 180.2 L 83.5 177.2 L 87.8 174.2 L 91.8 171.3 L 95.5 168.4 L 98.9 165.5 L 102.1 162.7 L 105.0 159.8 L 106.88305082321168 157.77209911346435 L 106.8 157.7 L 107.8 156.8 Z M 26.5 133.0 L 50.0 133.0 L 56.0 128.0 L 67.0 137.0 L 62.0 141.0 L 62.0 179.0 L 50.0 185.0 L 50.0 175.0 L 26.5 175.0 L 26.5 182.0 L 14.5 188.0 L 14.5 127.0 Z M 26.5 137.0 L 26.5 171.0 L 50.0 171.0 L 50.0 137.0 Z M 67.6 152.3 L 100.3 152.3 L 100.3 126.4 L 71.8 126.4 L 71.8 122.4 L 100.3 122.4 L 100.3 102.8 L 112.3 104.8 L 115.3 106.8 L 112.3 108.6 L 112.3 122.4 L 141.7 122.4 L 141.7 102.8 L 153.7 104.8 L 156.7 106.8 L 153.7 108.6 L 153.7 122.4 L 160.2 122.4 L 170.2 112.4 L 182.2 122.4 L 182.2 126.4 L 153.7 126.4 L 153.7 152.3 L 164.3 152.3 L 174.3 142.3 L 186.3 152.3 L 186.3 156.3 L 67.6 156.3 Z M 112.3 126.4 L 112.3 152.3 L 141.7 152.3 L 141.7 126.4 Z M 60.8 108.0 L 60.8 112.0 L 15.8 112.0 L 15.8 108.0 L 42.61818180084229 108.0 L 50.8 99.0 Z M 96.0 87.2 L 98.3 86.8 L 100.7 86.3 L 101.2 86.170370388031 L 101.2 61.3 L 96.75507249832154 61.3 L 95.7 66.9 L 94.0 73.4 L 92.1 79.5 L 89.9 85.3 L 87.3 90.7 L 84.4 95.7 L 81.2 100.2 L 77.6 104.3 L 73.6 107.9 L 69.3 110.8 L 68.1 109.5 L 70.8 105.4 L 73.3 101.1 L 75.6 96.7 L 77.7 92.1 L 79.5 87.3 L 81.1 82.2 L 82.5 76.7 L 83.6 71.0 L 84.4 65.0 L 84.72456140518189 61.3 L 69.4 61.3 L 69.4 57.3 L 93.1 57.3 L 93.1 39.1 L 82.75666666030884 39.1 L 81.0 42.2 L 79.1 45.1 L 77.1 47.9 L 74.9 50.6 L 72.9 53.4 L 71.3 52.5 L 72.4 49.3 L 73.2 46.0 L 74.8 39.6 L 75.5 36.4 L 76.2 33.3 L 76.8 30.1 L 77.8 23.9 L 78.0717791557312 21.72576684951782 L 77.9 21.7 L 78.6 19.0 L 89.9 23.5 L 92.3 26.2 L 88.35754299163818 27.39681730270386 L 87.3 30.0 L 85.9 33.1 L 84.93225803375245 35.1 L 93.1 35.1 L 93.1 13.8 L 105.1 15.8 L 108.1 17.8 L 105.1 19.6 L 105.1 35.1 L 107.8777777671814 35.1 L 114.1 28.1 L 122.1 35.1 L 122.1 39.1 L 105.1 39.1 L 105.1 57.3 L 107.91818180084229 57.3 L 116.1 48.3 L 126.1 57.3 L 126.1 61.3 L 113.2 61.3 L 113.2 82.53636360168457 L 115.5 81.7 L 119.0 80.5 L 122.6 79.3 L 126.3 77.6 L 127.2 79.2 L 124.0 81.6 L 121.1 84.2 L 118.1 86.6 L 115.3 88.7 L 113.2 90.2 L 113.2 91.0 L 112.08947372436523 91.0 L 109.9 92.6 L 107.3 94.3 L 104.8 95.9 L 104.041344165802 96.32484722137451 L 102.9 100.7 L 100.0 98.6 L 94.2 87.9 Z M 182.5119999885559 61.3 L 169.9 61.3 L 169.9 81.1 L 170.0 82.3 L 170.1 83.3 L 170.3 83.8 L 170.6 84.4 L 171.2 84.7 L 171.8 84.9 L 172.7 85.0 L 173.9 85.1 L 176.8 85.1 Z M 60.8 82.0 L 60.8 86.0 L 15.8 86.0 L 15.8 82.0 L 42.61818180084229 82.0 L 50.8 73.0 Z M 67.9 54.0 L 67.9 58.0 L 12.6 58.0 L 12.6 54.0 L 45.9 54.0 L 55.9 44.0 Z M 146.45754299163818 27.39681730270386 L 145.4 30.0 L 142.93225803375245 35.1 L 149.8 35.1 L 149.8 26.38214282989502 Z M 60.8 28.0 L 60.8 32.0 L 15.8 32.0 L 15.8 28.0 L 42.61818180084229 28.0 L 50.8 19.0 Z M 188.8 91.1 L 186.4 94.7 L 182.8 97.1 L 173.9 97.1 L 171.3 97.0 L 168.8 96.5 L 166.4 95.7 L 164.2 94.5 L 162.2 92.9 L 160.5 90.8 L 159.3 88.6 L 158.5 86.2 L 158.0 83.7 L 157.9 81.1 L 157.9 61.3 L 153.4481481552124 61.3 L 152.9 65.0 L 151.6 70.2 L 149.9 75.1 L 147.8 79.7 L 145.3 84.1 L 142.3 88.1 L 139.0 91.7 L 135.3 95.0 L 131.1 97.8 L 126.6 100.3 L 125.6 98.9 L 128.8 95.2 L 131.6 91.5 L 134.1 87.7 L 136.2 84.0 L 138.0 80.1 L 139.4 76.2 L 140.5 72.1 L 141.2 67.9 L 141.6 63.5 L 141.6 61.3 L 128.8 61.3 L 128.8 57.3 L 149.8 57.3 L 149.8 39.1 L 140.85333337783814 39.1 L 140.8 39.2 L 139.0 42.2 L 137.2 45.1 L 135.2 47.9 L 133.0 50.6 L 130.9 53.4 L 129.4 52.5 L 130.5 49.3 L 131.3 46.0 L 132.9 39.6 L 133.6 36.4 L 134.2 33.3 L 134.8 30.1 L 135.4 27.0 L 135.8 23.9 L 136.07360820770265 21.711134052276613 L 136.0 21.7 L 136.1448275566101 21.141379356384277 L 136.2 20.7 L 136.255797290802 20.713353157043457 L 136.7 19.0 L 147.9 23.5 L 149.8 25.552000045776367 L 149.8 13.8 L 161.8 15.8 L 164.8 17.8 L 161.8 19.6 L 161.8 35.1 L 164.5777777671814 35.1 L 170.8 28.1 L 178.8 35.1 L 178.8 39.1 L 161.8 39.1 L 161.8 57.3 L 167.3181818008423 57.3 L 175.5 48.3 L 185.5 57.3 L 185.5 61.3 L 184.7039999961853 61.3 L 182.8 85.1 L 186.4 87.5 Z " />
</g>
</svg>
