<svg xmlns="http://www.w3.org/2000/svg" xmlns:xlink="http://www.w3.org/1999/xlink" version="1.1" baseProfile="full" viewBox="0 0 200 200" width="200" height="200">
<g fill="black">
<path d="M 13.3 166.9 L 20.1 165.8 L 27.1 164.5 L 34.3 163.1 L 41.7 161.5 L 49.2 159.8 L 50.1317795753479 159.5821813583374 L 50.5 158.4 L 52.4 152.5 L 54.3 146.9 L 56.1 141.5 L 57.8 136.3 L 59.4 131.3 L 60.8 126.5 L 62.0 121.9 L 63.2 117.5 L 63.902668190002444 114.22088165283203 L 63.8 114.2 L 64.6 111.6 L 75.6 116.6 L 78.0 119.3 L 74.22578020095825 120.29321575164795 L 74.0 120.9 L 72.2 125.4 L 70.2 130.0 L 68.0 134.7 L 65.7 139.5 L 63.1 144.5 L 60.3 149.6 L 57.3 154.8 L 55.03627758026123 158.4356753349304 L 56.9 158.0 L 64.8 156.1 L 72.8 154.1 L 81.1 152.1 L 89.6 150.1 L 90.3 151.8 L 82.4 155.7 L 74.5 159.2 L 66.8 162.3 L 59.1 165.3 L 51.5 168.0 L 44.1 170.5 L 36.8 172.8 L 29.6 174.9 L 22.5 176.9 L 19.64985589981079 177.60220937728883 L 18.2 181.2 L 15.6 178.6 L 11.3 167.3 Z M 84.4 175.0 L 131.2 175.0 L 131.2 135.0 L 91.7 135.0 L 91.7 131.0 L 160.7 131.0 L 170.7 121.0 L 182.7 131.0 L 182.7 135.0 L 143.2 135.0 L 143.2 175.0 L 166.1 175.0 L 176.1 165.0 L 188.1 175.0 L 188.1 179.0 L 84.4 179.0 Z M 30.0 142.8 L 29.5 139.3 L 28.8 135.9 L 27.9 132.5 L 26.8 129.1 L 25.6 125.7 L 22.6 118.7 L 20.6 115.3 L 22.0 114.1 L 25.0 116.9 L 27.9 119.7 L 30.6 122.7 L 33.0 125.9 L 35.1 129.3 L 37.1 132.8 L 38.8 136.5 L 40.2 140.3 L 41.5 144.2 L 42.4 148.2 L 41.2 152.6 L 37.2 154.9 L 32.8 153.7 L 30.5 149.7 L 30.4 146.2 Z M 106.9 105.5 L 105.3 102.0 L 103.6 98.6 L 101.7 95.1 L 99.6 91.6 L 97.4 88.1 L 95.1 84.5 L 92.7 80.9 L 90.16666669845581 77.5222222328186 L 90.0 77.4 L 90.02864322662353 77.33819093704224 L 90.0 77.3 L 90.09306125640869 77.19918365478516 L 91.9 73.3 L 93.7 69.2 L 95.5 65.3 L 97.3 61.5 L 99.0 57.8 L 100.7 54.2 L 102.4 50.7 L 104.0 47.3 L 105.5 44.0 L 106.51451253890991 41.753579235076906 L 106.4 41.7 L 107.4 39.9 L 117.3 46.8 L 118.9 50.0 L 114.92980213165283 50.068451690673825 L 113.0 52.7 L 108.4 58.9 L 105.9 62.0 L 103.3 65.3 L 100.5 68.5 L 97.7 71.8 L 94.6 75.1 L 92.772141456604 77.10474805831909 L 98.6 81.2 L 102.0 84.1 L 105.2 87.1 L 108.2 90.3 L 111.1 93.6 L 113.7 97.0 L 116.2 100.5 L 118.4 104.1 L 120.5 107.8 L 120.6 112.4 L 117.4 115.7 L 112.9 115.7 L 109.5 112.6 L 108.3 109.1 Z M 137.8 105.5 L 136.3 102.0 L 134.5 98.6 L 132.6 95.1 L 130.6 91.6 L 128.4 88.1 L 123.6 80.9 L 121.0666666984558 77.5222222328186 L 120.9 77.4 L 120.92955665588379 77.33940887451172 L 120.9 77.3 L 121.00344829559326 77.18793106079102 L 122.9 73.3 L 124.6 69.2 L 126.4 65.3 L 128.2 61.5 L 130.0 57.8 L 131.7 54.2 L 133.3 50.7 L 134.9 47.3 L 136.4 44.0 L 137.41469449996947 41.75317649841308 L 137.3 41.7 L 138.4 39.9 L 148.3 46.8 L 149.9 50.0 L 145.93066358566284 50.067276859283446 L 144.0 52.7 L 141.7 55.8 L 139.3 58.9 L 136.8 62.0 L 134.2 65.3 L 131.5 68.5 L 128.6 71.8 L 125.5 75.1 L 123.68846521377563 77.08684463500977 L 125.9 78.6 L 129.6 81.2 L 133.0 84.1 L 136.2 87.1 L 139.2 90.3 L 142.0 93.6 L 144.6 97.0 L 147.1 100.5 L 149.4 104.1 L 151.5 107.8 L 151.5 112.4 L 148.4 115.7 L 143.8 115.7 L 140.5 112.6 L 139.2 109.1 Z M 170.0 104.4 L 168.1 101.0 L 166.1 97.7 L 163.9 94.3 L 161.6 91.0 L 159.2 87.6 L 156.6 84.2 L 153.9 80.7 L 151.22774868011476 77.56701574325561 L 151.0 77.4 L 151.0320020675659 77.33751974105834 L 151.0 77.3 L 151.12727270126342 77.15151519775391 L 153.1 73.3 L 155.0 69.1 L 157.0 65.2 L 158.9 61.4 L 160.7 57.7 L 164.2 50.7 L 165.8 47.3 L 167.3 44.0 L 168.39206085205078 41.743074321746825 L 168.3 41.7 L 169.3 39.9 L 179.2 46.8 L 180.8 50.0 L 176.82659158706664 50.06850700378418 L 174.8 52.8 L 172.5 55.8 L 170.1 58.9 L 167.5 62.1 L 164.8 65.3 L 161.9 68.6 L 158.9 71.9 L 155.7 75.1 L 153.93954153060912 76.97048711776733 L 156.1 78.3 L 159.9 80.7 L 163.5 83.3 L 166.9 86.1 L 170.1 89.1 L 173.2 92.1 L 176.1 95.3 L 178.8 98.6 L 181.4 102.0 L 183.8 105.4 L 184.2 110.0 L 181.4 113.6 L 176.8 114.0 L 173.2 111.2 L 171.7 107.8 Z M 32.1 56.0 L 66.0 56.0 L 72.0 51.0 L 83.0 60.0 L 78.0 64.0 L 78.0 101.0 L 66.0 107.0 L 66.0 101.0 L 32.1 101.0 L 20.1 107.0 L 20.1 50.0 Z M 32.1 60.0 L 32.1 97.0 L 66.0 97.0 L 66.0 60.0 Z M 85.5 30.0 L 85.5 34.0 L 13.5 34.0 L 13.5 30.0 L 63.5 30.0 L 73.5 20.0 Z M 187.2 26.0 L 187.2 30.0 L 87.1 30.0 L 87.1 26.0 L 165.2 26.0 L 175.2 16.0 Z " />
</g>
</svg>
