<svg xmlns="http://www.w3.org/2000/svg" xmlns:xlink="http://www.w3.org/1999/xlink" version="1.1" baseProfile="full" viewBox="0 0 200 200" width="200" height="200">
<g fill="black">
<path d="M 98.7 39.0 L 129.6 39.0 L 129.6 15.0 L 141.6 17.0 L 144.6 19.0 L 141.6 20.8 L 141.6 39.0 L 163.3 39.0 L 173.3 29.0 L 185.3 39.0 L 185.3 43.0 L 98.7 43.0 L 98.7 77.0 L 134.4 77.0 L 134.4 64.0 L 106.3 64.0 L 106.3 60.0 L 134.4 60.0 L 134.4 44.0 L 146.4 46.0 L 149.4 48.0 L 146.4 49.8 L 146.4 60.0 L 162.7 60.0 L 168.7 55.0 L 179.7 64.0 L 174.7 68.0 L 174.7 77.0 L 177.7 77.0 L 182.2 71.0 L 188.2 77.0 L 188.2 81.0 L 174.7 81.0 L 174.7 100.0 L 162.7 106.0 L 162.7 98.0 L 146.4 98.0 L 146.4 114.0 L 165.6 114.0 L 171.6 109.0 L 182.6 118.0 L 177.6 122.0 L 177.6 173.0 L 177.5 175.5 L 177.0 178.0 L 176.2 180.4 L 175.0 182.7 L 173.4 184.7 L 171.4 186.3 L 169.1 187.6 L 166.7 188.4 L 164.2 188.8 L 161.6 189.0 L 161.6 183.0 L 151.6 180.0 L 151.6 177.0 L 161.6 177.0 L 162.9 176.9 L 163.8 176.7 L 164.7 176.4 L 164.9 176.2 L 165.0 176.0 L 165.2 175.7 L 165.4 175.1 L 165.6 174.2 L 165.6 157.0 L 146.4 157.0 L 146.4 182.0 L 134.4 188.0 L 134.4 157.0 L 116.2 157.0 L 116.2 183.0 L 104.2 189.0 L 104.2 108.0 L 116.2 114.0 L 134.4 114.0 L 134.4 98.0 L 106.3 98.0 L 106.3 94.0 L 134.4 94.0 L 134.4 81.0 L 98.7 81.0 L 98.7 108.0 L 98.2 119.4 L 97.3 130.2 L 96.0 140.3 L 94.3 149.7 L 92.2 158.4 L 89.6 166.4 L 86.6 173.7 L 83.2 180.2 L 79.3 185.8 L 74.8 190.5 L 73.4 189.4 L 76.0 183.8 L 78.4 177.8 L 80.5 171.3 L 82.3 164.2 L 83.9 156.5 L 85.1 148.1 L 86.0 139.1 L 86.6 129.4 L 86.8 119.0 L 86.7 108.0 L 86.7 33.0 Z M 69.4 129.0 L 68.4 126.0 L 67.3 123.2 L 66.2 120.5 L 65.1 118.0 L 63.9 115.6 L 62.8 113.3 L 62.439429950714114 112.63895483016968 L 62.418136787414554 112.6746208190918 L 62.6 113.5 L 64.0 125.3 L 64.4 137.2 L 63.6 149.2 L 61.8 161.2 L 58.8 173.2 L 57.9 175.6 L 56.8 177.9 L 55.4 179.9 L 53.8 181.8 L 51.9 183.4 L 49.8 184.7 L 47.5 185.7 L 45.1 186.4 L 42.6 186.8 L 40.1 187.0 L 40.1 181.0 L 26.1 178.0 L 26.1 175.0 L 40.1 175.0 L 41.4 174.9 L 42.5 174.7 L 43.4 174.4 L 44.1 174.1 L 44.8 173.7 L 45.4 173.2 L 45.9 172.6 L 46.4 171.8 L 46.9 170.8 L 47.4 169.6 L 50.7 158.7 L 53.0 147.7 L 54.4 136.7 L 54.7 125.7 L 54.65747966766357 124.75604944229126 L 50.3 130.5 L 45.5 135.9 L 40.6 140.9 L 35.4 145.3 L 30.0 149.3 L 24.4 152.8 L 18.6 155.6 L 12.5 157.8 L 11.7 156.1 L 16.6 152.3 L 21.4 148.3 L 25.9 144.2 L 30.3 139.8 L 34.5 135.0 L 38.4 130.0 L 42.2 124.6 L 45.8 118.8 L 49.1 112.7 L 52.3 106.2 L 53.055475521087644 106.5883285522461 L 52.6 103.4 L 50.18445949554443 92.48175678253173 L 48.6 94.7 L 45.0 99.4 L 41.1 103.9 L 36.9 108.2 L 32.6 112.4 L 28.0 116.4 L 23.2 120.1 L 18.1 123.5 L 12.6 126.7 L 11.5 125.2 L 15.6 120.6 L 19.6 116.1 L 23.4 111.7 L 27.1 107.2 L 30.5 102.7 L 33.8 98.1 L 36.8 93.5 L 39.7 88.7 L 42.4 83.9 L 44.8 79.1 L 46.30248136520386 79.91563272476196 L 42.2 69.1 L 40.57648935317993 65.48539142608642 L 37.6 68.7 L 32.2 73.9 L 26.4 79.0 L 20.2 83.9 L 13.4 88.6 L 12.2 87.3 L 17.6 81.1 L 22.6 75.2 L 27.4 69.4 L 31.8 63.7 L 35.9 58.1 L 39.6 52.5 L 42.9 46.9 L 45.9 41.4 L 48.4 36.0 L 48.8 35.0 L 16.6 35.0 L 16.6 31.0 L 57.7 31.0 L 67.7 21.0 L 79.7 31.0 L 79.7 35.0 L 61.856521701812746 35.0 L 61.7 35.3 L 58.6 41.1 L 55.2 46.8 L 51.4 52.4 L 47.2 57.9 L 42.77890033721924 63.089986610412595 L 45.6 67.4 L 51.5 78.7 L 53.70350875854492 83.9333333015442 L 55.3 84.8 L 54.55714282989502 85.96071424484253 L 56.3 90.1 L 56.47236022949219 90.64037265777588 L 56.9 89.5 L 58.3 85.5 L 59.8 81.6 L 61.2 78.0 L 62.7 74.4 L 65.5 67.8 L 66.9 64.6 L 68.2 61.6 L 69.07914161682129 59.63883800506592 L 69.0 59.6 L 70.0 57.8 L 79.8 64.9 L 81.3 68.1 L 77.30860214233398 68.16881723403931 L 75.9 70.0 L 73.9 72.7 L 71.7 75.5 L 69.5 78.4 L 67.2 81.4 L 64.8 84.5 L 62.3 87.7 L 59.6 90.9 L 57.44585494995117 93.69241018295288 L 60.0 101.7 L 61.37654209136963 107.94738321304321 L 63.4 109.2 L 65.8 110.5 L 68.1 112.2 L 70.3 114.1 L 72.5 116.3 L 74.6 118.8 L 76.7 121.5 L 78.7 124.4 L 80.7 127.5 L 82.6 130.9 L 82.5 135.4 L 79.3 138.7 L 74.8 138.7 L 71.5 135.5 L 70.5 132.2 Z M 116.2 137.0 L 116.2 153.0 L 134.4 153.0 L 134.4 137.0 Z M 146.4 137.0 L 146.4 153.0 L 165.6 153.0 L 165.6 137.0 Z M 116.2 118.0 L 116.2 133.0 L 134.4 133.0 L 134.4 118.0 Z M 146.4 118.0 L 146.4 133.0 L 165.6 133.0 L 165.6 118.0 Z M 146.4 81.0 L 146.4 94.0 L 162.7 94.0 L 162.7 81.0 Z M 146.4 64.0 L 146.4 77.0 L 162.7 77.0 L 162.7 64.0 Z " />
</g>
</svg>
