<svg xmlns="http://www.w3.org/2000/svg" xmlns:xlink="http://www.w3.org/1999/xlink" version="1.1" baseProfile="full" viewBox="0 0 200 200" width="200" height="200">
<g fill="black">
<path d="M 74.2 177.2 L 72.9 179.4 L 71.4 181.3 L 69.7 183.1 L 67.7 184.6 L 65.6 185.8 L 63.3 186.8 L 60.9 187.4 L 58.5 187.8 L 56.0 188.0 L 56.0 182.0 L 40.0 179.0 L 40.0 176.0 L 56.0 176.0 L 57.3 175.9 L 58.5 175.7 L 60.3 175.1 L 61.0 174.7 L 61.7 174.1 L 62.2222222328186 173.5777777671814 L 63.6 170.2 L 67.0 161.3 L 69.6 152.4 L 71.3 143.3 L 71.31762046813965 143.0709337234497 L 70.1 144.2 L 64.3 149.0 L 58.2 153.6 L 51.6 157.9 L 44.7 162.0 L 37.5 165.7 L 29.8 169.1 L 21.8 172.2 L 13.3 174.8 L 12.6 173.1 L 20.2 168.7 L 27.4 164.4 L 34.2 160.0 L 40.7 155.5 L 46.8 151.0 L 52.5 146.3 L 57.8 141.5 L 62.7 136.5 L 67.2 131.4 L 71.3 126.2 L 71.919349193573 126.69947519302369 L 71.9 124.9 L 70.8 115.4 L 69.61086654663086 109.69215955734253 L 65.5 113.4 L 60.2 117.9 L 54.7 122.1 L 49.0 126.1 L 43.1 129.8 L 37.0 133.3 L 30.7 136.5 L 24.2 139.3 L 17.4 141.8 L 16.5 140.1 L 22.3 136.0 L 28.0 131.9 L 33.5 127.8 L 38.8 123.6 L 43.9 119.3 L 48.8 114.9 L 53.5 110.4 L 58.0 105.7 L 62.3 100.9 L 66.05135040283203 96.41667881011963 L 65.9 95.9 L 62.2 85.8 L 61.12635984420776 83.2948395729065 L 60.3 84.0 L 52.7 89.9 L 45.0 95.4 L 37.3 100.3 L 29.4 104.8 L 21.4 108.6 L 13.4 111.8 L 12.5 110.1 L 19.6 105.3 L 26.6 100.2 L 33.6 94.9 L 40.5 89.3 L 47.3 83.4 L 54.2 77.0 L 60.9 70.3 L 67.6 63.2 L 74.2 55.7 L 80.7 47.8 L 80.73906583786011 47.83312101364136 L 81.1 47.4 L 89.9 55.6 L 90.8 59.1 L 87.21327276229859 58.47074956893921 L 82.6 63.4 L 75.3 70.7 L 67.8 77.6 L 63.85349063873291 80.96768798828126 L 65.9 83.9 L 71.4 93.6 L 75.7 103.6 L 79.0 113.7 L 81.2 123.8 L 82.3 134.0 L 82.3 144.3 L 81.2 154.6 L 79.0 164.9 L 75.8 175.1 L 75.14944133758544 175.21480445861818 Z M 89.7 173.0 L 98.2 173.0 L 98.2 33.0 L 89.7 33.0 L 89.7 29.0 L 159.1 29.0 L 169.1 19.0 L 181.1 29.0 L 181.1 33.0 L 110.2 33.0 L 110.2 73.0 L 161.2 73.0 L 167.2 68.0 L 178.2 77.0 L 173.2 81.0 L 173.2 132.0 L 161.2 138.0 L 161.2 126.0 L 110.2 126.0 L 110.2 173.0 L 162.8 173.0 L 172.8 163.0 L 184.8 173.0 L 184.8 177.0 L 89.7 177.0 Z M 110.2 77.0 L 110.2 122.0 L 161.2 122.0 L 161.2 77.0 Z M 37.6 70.9 L 37.3 68.9 L 36.8 66.9 L 36.0 64.7 L 35.0 62.5 L 33.7 60.2 L 32.2 57.9 L 30.5 55.4 L 28.2 53.3 L 29.3 51.8 L 32.1 53.5 L 34.9 54.9 L 37.5 56.6 L 39.9 58.5 L 42.1 60.5 L 44.1 62.7 L 45.8 65.1 L 47.3 67.6 L 48.5 70.3 L 49.5 73.2 L 48.3 77.6 L 44.3 79.9 L 39.9 78.7 L 37.6 74.8 L 37.7 72.9 Z M 55.8 55.7 L 55.2 53.4 L 54.4 51.2 L 53.3 48.9 L 52.1 46.7 L 50.6 44.5 L 48.8 42.3 L 47.3824764251709 40.65865688323974 L 46.2 41.3 L 40.1 44.2 L 33.9 46.9 L 27.6 49.2 L 21.0 51.2 L 14.3 52.8 L 13.6 51.1 L 19.5 47.7 L 25.3 44.3 L 31.0 41.0 L 36.5 37.5 L 41.8 34.0 L 47.0 30.3 L 52.1 26.5 L 57.0 22.5 L 61.7 18.4 L 66.2 14.1 L 66.4 13.9 L 74.2 23.1 L 74.6 26.7 L 71.04873790740967 25.537768745422362 L 68.9 27.2 L 63.4 31.1 L 57.8 34.7 L 52.1 38.1 L 50.656834506988524 38.8827338218689 L 51.2 39.1 L 54.1 40.5 L 56.7 42.3 L 59.2 44.2 L 61.4 46.5 L 63.4 48.9 L 65.2 51.6 L 66.8 54.5 L 68.1 57.7 L 67.3 62.2 L 63.6 64.9 L 59.1 64.1 L 56.4 60.4 L 56.2 58.0 Z " />
</g>
</svg>
