<svg xmlns="http://www.w3.org/2000/svg" xmlns:xlink="http://www.w3.org/1999/xlink" version="1.1" baseProfile="full" viewBox="0 0 200 200" width="200" height="200">
<g fill="black">
<path d="M 162.4 182.7 L 158.1 180.5 L 153.2 178.3 L 147.6 176.1 L 141.4 173.9 L 134.6 171.7 L 127.3 169.5 L 119.3 167.2 L 110.8 164.8 L 111.1 163.0 L 120.0 163.5 L 128.3 164.3 L 136.1 165.3 L 143.3 166.6 L 150.0 168.0 L 156.2 169.5 L 161.8 171.2 L 167.0 173.0 L 171.6 175.0 L 175.8 177.2 L 178.3 181.1 L 177.4 185.6 L 173.6 188.0 L 169.1 187.2 L 166.1 185.0 Z M 79.682412815094 161.65676774978638 L 86.3 168.2 L 86.5 171.5 L 82.73711338043213 169.99484539031982 L 79.2 171.5 L 74.1 173.5 L 68.5 175.4 L 62.4 177.3 L 55.8 179.2 L 48.7 181.0 L 41.1 182.7 L 33.0 184.4 L 24.4 185.9 L 15.2 187.2 L 14.7 185.4 L 23.4 182.2 L 31.6 179.2 L 39.3 176.4 L 46.5 173.7 L 53.1 171.1 L 59.3 168.6 L 64.8 166.1 L 69.9 163.6 L 74.3 161.3 L 78.2 158.9 Z M 144.0 58.0 L 146.0 58.0 L 144.0 75.0 L 147.0 77.0 L 149.0 80.0 L 147.0 83.0 L 144.0 85.0 L 78.76415090560913 85.0 L 75.0 86.5 L 60.7 91.2 L 47.4 94.7 L 56.0 99.0 L 144.0 99.0 L 150.0 94.0 L 161.0 103.0 L 156.0 107.0 L 156.0 156.1 L 144.0 162.1 L 144.0 156.1 L 56.0 156.1 L 56.0 159.1 L 44.0 165.1 L 44.0 95.5055555343628 L 29.3 98.5 L 12.1 101.0 L 11.8 99.3 L 28.4 94.8 L 44.0 90.1 L 58.6 85.0 L 66.91592359542847 81.63694267272949 L 66.6 81.4 L 64.9 79.5 L 63.6 77.4 L 62.7 75.0 L 62.2 72.6 L 62.0 70.0 L 62.0 45.2 L 74.0 47.2 L 77.0 49.2 L 74.0 51.0 L 74.0 70.0 L 73.9 71.3 L 74.0 72.2 L 74.1 72.9 L 74.2 73.3 L 74.3 73.6 L 74.5 73.9 L 74.9 74.3 L 75.6 74.6 L 76.6 74.9 L 78.0 75.0 L 81.73389825820922 75.0 L 84.7 73.6 L 96.2 67.2 L 106.6 60.4 L 116.0 53.2 L 124.4 45.5 L 131.13604850769042 38.12675771713257 L 131.1 38.1 L 132.2 37.0 L 140.8 45.3 L 141.8 48.8 L 137.98992509841918 48.07739963531494 L 132.2 53.8 L 122.7 61.6 L 112.2 68.8 L 101.2307692527771 75.0 L 139.0 75.0 Z M 56.0 138.4 L 56.0 152.1 L 144.0 152.1 L 144.0 138.4 Z M 56.0 120.7 L 56.0 134.4 L 144.0 134.4 L 144.0 120.7 Z M 56.0 103.0 L 56.0 116.7 L 144.0 116.7 L 144.0 103.0 Z M 18.1 80.1 L 18.6 75.5 L 22.1 72.6 L 25.3 71.9 L 28.2 71.0 L 30.9 69.7 L 33.3 68.2 L 35.6 66.4 L 37.7 64.2 L 39.6 61.6 L 41.3 58.6 L 42.9 55.1 L 44.0 51.2 L 45.8 51.3 L 45.7 55.7 L 45.5 59.8 L 44.8 63.8 L 43.5 67.6 L 41.7 71.2 L 39.4 74.5 L 36.6 77.4 L 33.3 80.1 L 29.6 82.3 L 25.5 84.1 L 21.0 83.6 Z M 168.5 74.5 L 166.7 72.0 L 164.7 69.4 L 162.4 66.9 L 159.8 64.4 L 156.9 62.0 L 153.8 59.5 L 150.3 57.0 L 146.5 54.7 L 147.2 53.0 L 151.6 54.2 L 155.9 55.4 L 159.9 57.0 L 163.7 58.7 L 167.2 60.7 L 170.6 62.8 L 173.7 65.2 L 176.6 67.8 L 179.2 70.6 L 181.6 73.6 L 182.2 78.1 L 179.5 81.8 L 174.9 82.4 L 171.3 79.7 L 170.0 77.1 Z M 91.3 52.7 L 90.0 50.9 L 88.5 49.0 L 86.7 47.2 L 84.7 45.4 L 82.6 43.6 L 80.2 41.8 L 77.6 40.0 L 74.6 38.5 L 75.2 36.8 L 78.5 37.6 L 81.8 38.1 L 84.9 38.9 L 87.9 39.8 L 90.8 40.9 L 93.5 42.2 L 96.1 43.7 L 98.5 45.3 L 100.8 47.1 L 103.0 49.1 L 104.0 53.5 L 101.7 57.5 L 97.3 58.6 L 93.3 56.3 L 92.4 54.5 Z M 13.2 51.8 L 13.2 47.3 L 16.4 44.0 L 18.4 43.5 L 20.2 42.7 L 21.9 41.8 L 23.5 40.5 L 25.0 38.9 L 26.4 36.8 L 27.7 34.4 L 28.8 31.5 L 29.8 28.2 L 30.1 24.6 L 31.9 24.5 L 32.3 28.3 L 32.502702713012695 29.8 L 94.0 29.8 L 94.0 11.2 L 106.0 13.2 L 109.0 15.2 L 106.0 17.0 L 106.0 29.8 L 170.0 29.8 L 170.6 29.3 L 171.5 27.8 L 171.93297300338745 28.189189147949218 L 176.0 24.8 L 187.0 33.8 L 182.0 36.8 L 174.17931032180786 40.058620643615725 L 172.7 41.0 L 170.4 42.4 L 168.0 43.8 L 165.3 45.3 L 162.5 46.8 L 159.4 48.4 L 156.5 50.3 L 155.4 48.9 L 157.9 46.4 L 160.0 43.8 L 161.9 41.3 L 163.8 39.0 L 165.5 36.8 L 167.0 34.7 L 167.6631579399109 33.8 L 32.85142860412598 33.8 L 32.9 35.5 L 32.5 38.9 L 31.8 42.2 L 30.5 45.3 L 28.8 48.2 L 26.7 50.8 L 24.0 53.1 L 21.0 55.1 L 16.5 55.0 Z " />
</g>
</svg>
