<svg xmlns="http://www.w3.org/2000/svg" xmlns:xlink="http://www.w3.org/1999/xlink" version="1.1" baseProfile="full" viewBox="0 0 200 200" width="200" height="200">
<g fill="black">
<path d="M 162.5 183.5 L 158.2 181.4 L 153.2 179.3 L 147.7 177.1 L 141.5 175.0 L 134.7 172.9 L 127.3 170.8 L 119.3 168.6 L 110.8 166.2 L 111.1 164.4 L 120.0 164.8 L 128.3 165.5 L 136.1 166.5 L 143.3 167.7 L 150.0 169.0 L 156.1 170.4 L 161.8 172.0 L 166.9 173.7 L 171.5 175.6 L 175.7 177.7 L 178.2 181.5 L 177.5 186.0 L 173.7 188.6 L 169.2 187.8 L 166.2 185.7 Z M 79.59885997772217 162.80325736999512 L 86.6 169.5 L 86.7 172.8 L 82.9787368774414 171.24947366714477 L 79.1 172.9 L 74.0 174.7 L 68.4 176.5 L 62.3 178.3 L 55.8 180.1 L 48.7 181.8 L 41.1 183.4 L 33.0 185.0 L 24.3 186.4 L 15.2 187.6 L 14.7 185.8 L 23.4 182.7 L 31.6 179.8 L 39.3 177.1 L 46.5 174.5 L 53.2 172.0 L 59.3 169.5 L 64.9 167.1 L 69.9 164.8 L 74.4 162.5 L 77.44990720748902 160.77953958511353 L 77.4 160.7 L 77.47082109451294 160.76774196624757 L 78.3 160.3 Z M 56.0 103.1 L 144.0 103.1 L 150.0 98.1 L 161.0 107.1 L 156.0 111.1 L 156.0 157.9 L 144.0 163.9 L 144.0 157.9 L 56.0 157.9 L 56.0 160.9 L 44.0 166.9 L 44.0 97.1 Z M 56.0 141.0 L 56.0 153.9 L 144.0 153.9 L 144.0 141.0 Z M 56.0 124.0 L 56.0 137.0 L 144.0 137.0 L 144.0 124.0 Z M 56.0 107.1 L 56.0 120.0 L 144.0 120.0 L 144.0 107.1 Z M 74.9 88.9 L 74.6 87.2 L 74.0 85.4 L 73.4187352180481 84.10830039978028 L 69.9 85.8 L 64.6 88.0 L 59.1 90.1 L 53.4 92.0 L 47.7 93.8 L 41.8 95.5 L 35.9 97.1 L 29.9 98.7 L 23.7 100.2 L 21.566061878204344 100.6818570137024 L 20.0 104.3 L 17.5 101.6 L 13.4 90.2 L 15.4 89.8 L 27.8 88.2 L 33.9 87.3 L 39.9 86.4 L 44.6 85.68305082321167 L 44.6 65.2 L 30.5 65.2 L 30.5 72.2 L 18.5 78.2 L 18.5 26.6 L 30.5 32.6 L 44.6 32.6 L 44.6 12.2 L 56.6 14.2 L 59.6 16.2 L 56.6 18.0 L 56.6 32.6 L 70.7 32.6 L 76.7 27.6 L 87.7 36.6 L 82.7 40.6 L 82.7 65.2 L 70.7 71.2 L 70.7 65.2 L 56.6 65.2 L 56.6 83.83965520858764 L 57.5 83.7 L 63.2 82.8 L 68.9 82.1 L 72.08752937316895 81.76447057723999 L 71.8 81.3 L 70.3 79.1 L 68.4 76.8 L 66.3 74.4 L 63.5 72.2 L 64.5 70.7 L 67.6 72.3 L 70.8 73.7 L 73.6 75.2 L 76.3 76.8 L 78.7 78.6 L 80.8 80.5 L 82.7 82.6 L 84.4 84.9 L 85.7 87.4 L 86.7 90.0 L 85.5 94.4 L 81.6 96.8 L 77.2 95.6 L 74.8 91.7 L 75.0 90.4 Z M 172.9 96.5 L 167.0 93.9 L 160.6 90.0 L 154.1 84.3 L 147.8 76.8 L 142.3 67.1 L 137.9 55.1 L 137.4166666984558 52.7 L 110.0 52.7 L 110.0 83.64600000381469 L 113.9 83.1 L 119.0 82.2 L 129.6 80.6 L 135.1 79.9 L 140.7 79.2 L 141.2 81.0 L 136.1 83.5 L 131.0 85.8 L 126.0 87.8 L 120.9 89.6 L 115.9 91.3 L 111.0 92.9 L 106.2 94.4 L 101.4 95.7 L 96.7 97.0 L 96.10268697738647 97.15250549316406 L 94.5 100.8 L 92.0 98.2 L 87.9 86.7 L 89.9 86.4 L 94.5 85.8 L 98.0 85.35319147109985 L 98.0 19.9 L 109.20594062805176 25.50297031402588 L 110.3 25.2 L 116.7 23.5 L 123.0 22.0 L 129.3 20.6 L 135.5 19.1 L 147.7 16.1 L 153.8 14.5 L 164.71271562576294 11.540619468688964 L 164.7 11.5 L 164.73979415893555 11.533276176452636 L 165.6 11.3 L 165.87239112854004 12.480361557006836 L 176.3 21.2 L 176.6 24.2 L 172.286328125 22.103076171875 L 168.3 23.0 L 162.1 24.1 L 155.9 25.0 L 149.6 25.9 L 146.15790910720824 26.33709087371826 L 146.9 39.2 L 148.77007875442504 48.7 L 162.0 48.7 L 172.0 38.7 L 184.0 48.7 L 184.0 52.7 L 149.69306926727296 52.7 L 153.1 62.0 L 157.6 69.9 L 162.6 75.9 L 167.7 80.2 L 172.5 83.3 L 176.56422891616822 85.05500793457031 L 182.0 61.5 L 184.0 61.5 L 182.08158845901488 86.43935022354125 L 182.4 86.5 L 186.4 88.5 L 187.9 92.9 L 185.9 96.9 L 181.5 98.4 L 177.8 97.9 Z M 30.5 36.6 L 30.5 61.2 L 44.6 61.2 L 44.6 36.6 Z M 56.6 36.6 L 56.6 61.2 L 70.7 61.2 L 70.7 36.6 Z M 130.5 28.1 L 124.0 28.5 L 117.4 28.9 L 110.8 28.9 L 110.0 28.8761194229126 L 110.0 48.7 L 136.6111110687256 48.7 L 135.0 40.7 L 134.24263906478882 27.74912757873535 Z " />
</g>
</svg>
