<svg xmlns="http://www.w3.org/2000/svg" xmlns:xlink="http://www.w3.org/1999/xlink" version="1.1" baseProfile="full" viewBox="0 0 200 200" width="200" height="200">
<g fill="black">
<path d="M 121.1 113.7 L 123.8 116.1 L 120.37713603973388 117.58539381027222 L 118.7 126.6 L 115.3 138.3 L 111.1 149.0 L 105.9 158.5 L 99.8 166.8 L 92.9 173.9 L 85.1 179.7 L 76.5 184.1 L 67.1 187.2 L 57.1 188.8 L 56.8 187.1 L 65.9 183.6 L 74.1 179.4 L 81.3 174.3 L 87.6 168.4 L 93.1 161.6 L 97.9 153.8 L 101.8 145.0 L 105.1 135.2 L 107.5 124.2 L 109.2 112.2 L 109.22856760025024 112.20360097885131 L 109.5 110.1 Z M 42.3 148.9 L 44.4 151.7 L 40.62835817337036 152.49402980804444 L 40.3 153.2 L 38.1 157.5 L 35.8 161.7 L 33.2 165.8 L 30.4 169.9 L 27.3 173.8 L 24.0 177.7 L 20.5 181.5 L 16.6 185.1 L 12.5 188.5 L 11.2 187.4 L 13.8 182.8 L 16.3 178.3 L 18.8 174.0 L 21.1 169.7 L 23.2 165.5 L 25.1 161.3 L 26.8 157.2 L 28.4 153.1 L 29.7 149.0 L 30.60680627822876 145.90174522399903 L 30.6 145.9 L 30.660000038146972 145.7199999809265 L 30.9 144.9 L 30.929842948913574 144.91047124862672 L 31.4 143.5 Z M 62.3 167.4 L 61.4 164.6 L 60.3 161.8 L 59.1 159.1 L 57.8 156.3 L 56.3 153.5 L 54.6 150.8 L 52.9 147.9 L 50.7 145.3 L 51.9 143.9 L 54.8 145.9 L 57.8 147.8 L 60.5 150.0 L 63.1 152.3 L 65.5 154.7 L 67.7 157.4 L 69.8 160.1 L 71.7 163.0 L 73.5 166.0 L 75.1 169.2 L 74.7 173.7 L 71.3 176.8 L 66.8 176.4 L 63.7 173.0 L 63.1 170.2 Z M 168.4 143.9 L 168.37814960479736 143.5285432815552 L 166.5 144.5 L 163.6 145.9 L 160.8 147.2 L 158.2 148.5 L 155.6 149.7 L 153.2 150.9 L 150.9 152.1 L 150.68151264190675 152.20924367904664 L 149.5 156.5 L 146.7 154.3 L 141.5 144.538596534729 L 141.5 167.0 L 141.6 168.2 L 141.7 169.1 L 141.9 169.7 L 142.1 170.0 L 142.2 170.2 L 142.4 170.4 L 142.8 170.5 L 143.4 170.7 L 144.3 170.9 L 145.5 171.0 L 175.9 171.0 L 181.9 146.0 L 183.9 146.0 L 181.9 171.0 L 185.5 173.4 L 187.9 177.0 L 185.5 180.6 L 181.9 183.0 L 145.5 183.0 L 142.9 182.8 L 140.4 182.4 L 138.0 181.6 L 135.8 180.3 L 133.8 178.7 L 132.1 176.7 L 130.9 174.4 L 130.1 172.0 L 129.6 169.5 L 129.5 167.0 L 129.5 108.0 L 97.5 108.0 L 97.5 120.0 L 85.5 126.0 L 85.5 35.0 L 97.5 41.0 L 115.203125 41.0 L 116.0 39.3 L 117.1 36.0 L 118.3 32.9 L 119.4 29.9 L 120.5 27.0 L 122.5 21.6 L 123.4 19.0 L 124.2 16.5 L 124.61262140274047 15.14424409866333 L 124.5 15.1 L 124.8222222328186 14.455555534362793 L 124.9 14.2 L 124.94014873504639 14.219702625274659 L 125.5 13.1 L 135.7 19.5 L 137.5 22.6 L 133.1742474555969 22.9729097366333 L 132.5 23.9 L 130.8 26.1 L 129.0 28.5 L 127.1 30.8 L 125.1 33.2 L 120.7 38.2 L 118.2 40.7 L 117.95555553436279 41.0 L 164.0 41.0 L 170.0 36.0 L 181.0 45.0 L 176.0 49.0 L 176.0 108.0 L 164.0 114.0 L 164.0 108.0 L 135.5 108.0 L 141.5 109.0 L 144.5 111.0 L 141.5 112.8 L 141.5 143.41578950881959 L 142.9 142.9 L 145.3 142.6 L 147.9 142.2 L 149.05163040161133 142.06711959838867 L 149.5 139.9 L 150.3 137.1 L 151.0 134.3 L 151.6 131.6 L 152.3 129.0 L 153.5 123.8 L 154.294771194458 119.82614383697509 L 154.2 119.8 L 154.45 119.05 L 154.5 118.8 L 154.52965879440308 118.81102361679078 L 155.0 117.4 L 165.8 123.0 L 167.9 125.9 L 163.56161451339722 126.73723230361938 L 163.0 127.7 L 161.6 130.0 L 160.1 132.4 L 158.5 134.8 L 156.8 137.1 L 155.0 139.4 L 153.26056337356567 141.50563383102417 L 153.3 141.5 L 156.1 141.2 L 159.1 141.0 L 162.2 140.7 L 168.10248670578002 140.52113676071167 L 168.1 140.5 L 167.8 138.8 L 167.4 137.1 L 166.4 133.7 L 165.3 132.3 L 166.6 131.0 L 168.0 132.2 L 169.8 133.2 L 171.4 134.4 L 173.0 135.8 L 174.4 137.3 L 175.8 138.9 L 178.2 142.7 L 179.2 144.7 L 180.1 146.9 L 179.1 151.4 L 175.3 153.9 L 170.9 152.9 L 168.3 149.1 L 168.4 147.3 Z M 30.0 22.5 L 59.0 22.5 L 65.0 17.5 L 76.0 26.5 L 71.0 30.5 L 71.0 134.8 L 59.0 140.8 L 59.0 134.8 L 30.0 134.8 L 30.0 137.8 L 18.0 143.8 L 18.0 16.5 Z M 30.0 97.2 L 30.0 130.8 L 59.0 130.8 L 59.0 97.2 Z M 97.5 76.0 L 97.5 104.0 L 124.7 104.0 L 124.7 76.0 Z M 136.7 76.0 L 136.7 104.0 L 164.0 104.0 L 164.0 76.0 Z M 30.0 61.8 L 30.0 93.2 L 59.0 93.2 L 59.0 61.8 Z M 97.5 45.0 L 97.5 72.0 L 124.7 72.0 L 124.7 45.0 Z M 136.7 45.0 L 136.7 72.0 L 164.0 72.0 L 164.0 45.0 Z M 30.0 26.5 L 30.0 57.8 L 59.0 57.8 L 59.0 26.5 Z " />
</g>
</svg>
