<svg xmlns="http://www.w3.org/2000/svg" xmlns:xlink="http://www.w3.org/1999/xlink" version="1.1" baseProfile="full" viewBox="0 0 200 200" width="200" height="200">
<g fill="black">
<path d="M 150.4 175.0 L 166.4 175.0 L 167.6 174.9 L 168.5 174.7 L 169.1 174.5 L 169.5 174.4 L 169.6 174.2 L 169.8 174.0 L 170.0 173.7 L 170.2 173.1 L 170.3 172.2 L 170.4 171.0 L 170.4 121.0 L 137.09230766296386 121.0 L 135.5 124.6 L 133.0 129.8 L 130.4 135.0 L 127.5 140.3 L 124.3 145.7 L 121.32324123382568 150.20766334533693 L 125.9 149.4 L 130.9 148.5 L 141.1 146.9 L 146.1 146.1 L 151.2 145.5 L 152.04499998092652 145.43500003814697 L 151.8 144.7 L 150.7 141.6 L 149.4 138.4 L 147.9 135.1 L 146.4 131.6 L 144.4 128.3 L 145.8 127.2 L 148.6 129.9 L 151.5 132.6 L 154.1 135.3 L 156.5 138.2 L 158.7 141.1 L 160.7 144.1 L 162.5 147.2 L 164.1 150.3 L 165.4 153.5 L 166.6 156.8 L 165.7 161.3 L 162.0 163.9 L 157.5 163.0 L 154.9 159.2 L 154.6 156.5 L 154.2 153.6 L 153.5 150.7 L 153.05775194168092 148.80465116500855 L 152.3 149.2 L 147.5 151.3 L 142.8 153.2 L 133.0 156.8 L 123.2 160.0 L 118.2 161.6 L 112.21661128997803 163.39501657485962 L 110.8 167.1 L 108.2 164.6 L 103.6 153.3 L 105.5 152.9 L 115.7 151.1 L 116.98409786224366 150.89857292175293 L 117.5 149.4 L 119.5 143.4 L 121.5 137.6 L 123.4 132.1 L 125.2 126.6 L 126.8 121.3 L 126.8865385055542 121.0 L 100.6 121.0 L 100.6 182.0 L 88.6 188.0 L 88.6 111.0 L 100.6 117.0 L 128.04038457870485 117.0 L 128.3 116.1 L 129.6 111.1 L 130.8 106.2 L 131.58856563568116 102.41488494873047 L 131.5 102.4 L 132.0444444656372 100.3 L 108.4 100.3 L 108.4 103.3 L 96.4 109.3 L 96.4 48.1 L 108.4 50.1 L 111.4 52.1 L 108.4 53.9 L 108.4 96.3 L 163.1 96.3 L 163.1 48.1 L 175.1 50.1 L 178.1 52.1 L 175.1 53.9 L 175.1 102.3 L 163.1 108.3 L 163.1 100.3 L 133.6297872543335 100.3 L 143.4 104.4 L 145.8 107.1 L 142.10011949539185 108.2231780052185 L 141.7 109.4 L 139.8 114.4 L 138.76000003814698 117.0 L 170.4 117.0 L 176.4 112.0 L 187.4 121.0 L 182.4 125.0 L 182.4 171.0 L 182.3 173.5 L 181.8 176.0 L 181.0 178.4 L 179.8 180.7 L 178.1 182.7 L 176.1 184.3 L 173.9 185.6 L 171.4 186.4 L 169.0 186.8 L 166.4 187.0 L 166.4 181.0 L 150.4 178.0 Z M 71.0 179.3 L 69.5 181.3 L 67.8 183.0 L 65.9 184.6 L 63.7 185.8 L 61.5 186.8 L 59.1 187.4 L 56.6 187.8 L 54.1 188.0 L 54.1 182.0 L 38.1 179.0 L 38.1 176.0 L 54.1 176.0 L 55.4 175.9 L 56.6 175.7 L 58.4 175.1 L 59.1 174.7 L 59.7 174.1 L 60.4 173.5 L 61.0 172.7 L 61.6 171.7 L 62.1 170.5 L 65.5 161.5 L 67.9 152.5 L 69.5 143.4 L 69.53921394348144 142.88461713790895 L 68.3 144.1 L 62.7 149.0 L 56.7 153.6 L 50.4 157.9 L 43.7 161.9 L 36.7 165.7 L 29.3 169.1 L 21.5 172.2 L 13.3 174.8 L 12.6 173.1 L 19.8 168.7 L 26.8 164.4 L 33.3 160.0 L 39.6 155.6 L 45.4 151.0 L 50.9 146.3 L 56.0 141.5 L 60.7 136.6 L 65.0 131.5 L 69.0 126.2 L 70.04757080078124 127.03582773208618 L 70.0 124.8 L 69.0 115.3 L 67.81433343887329 109.54951696395874 L 63.8 113.4 L 58.7 117.8 L 53.4 122.0 L 47.9 126.0 L 42.2 129.8 L 36.3 133.3 L 30.2 136.5 L 23.8 139.3 L 17.2 141.7 L 16.4 140.2 L 21.9 136.0 L 27.3 131.9 L 32.6 127.8 L 37.7 123.6 L 42.6 119.4 L 47.3 115.0 L 51.9 110.5 L 56.2 105.8 L 60.4 101.0 L 64.28948783874512 96.11320753097534 L 64.2 95.8 L 60.6 85.7 L 59.54031705856323 83.25095491409301 L 58.8 83.9 L 51.5 89.9 L 44.0 95.3 L 36.5 100.3 L 28.9 104.8 L 21.2 108.6 L 13.3 111.7 L 12.5 110.2 L 19.3 105.3 L 26.0 100.2 L 32.7 95.0 L 39.4 89.4 L 46.0 83.4 L 52.5 77.1 L 59.0 70.4 L 65.4 63.3 L 71.8 55.8 L 78.1 47.9 L 78.1094464302063 47.90771961212158 L 78.5 47.4 L 87.4 55.5 L 88.4 59.0 L 84.73217124938965 58.43085412979126 L 80.3 63.3 L 73.2 70.6 L 66.1 77.5 L 62.03976945877075 81.05965414047242 L 64.0 84.0 L 69.2 93.8 L 73.257284450531 103.59685764312744 L 73.5 103.8 L 73.37108526229858 103.93160047531128 L 76.4 113.8 L 78.5 123.9 L 79.5 134.0 L 79.5 144.2 L 78.5 154.4 L 76.4 164.6 L 73.3 174.8 L 72.3 177.1 Z M 144.8 81.0 L 140.9 77.4 L 138.71968507766724 75.44330711364746 L 134.4 78.6 L 129.0 82.1 L 123.2 85.2 L 117.1 87.9 L 110.7 90.1 L 109.9 88.5 L 115.3 84.6 L 120.3 80.7 L 125.2 76.7 L 129.7 72.7 L 132.33142852783203 70.06857147216797 L 129.1 67.5 L 125.0 64.4 L 121.0 61.5 L 116.9 58.5 L 112.9 55.5 L 113.6 53.9 L 118.6 55.1 L 123.5 56.7 L 128.3 58.8 L 133.1 61.1 L 137.8 63.6 L 138.13003902435304 63.796618938446045 L 141.4 59.8 L 144.8 55.1 L 147.8 50.4 L 150.01113214492798 46.30531072616577 L 150.0 46.3 L 150.1203125 46.103125 L 150.5 45.4 L 150.53680696487427 45.42158870697021 L 151.1 44.5 L 160.9 51.5 L 162.5 54.8 L 158.55192308425904 54.8 L 157.2 56.7 L 153.3 61.7 L 149.0 66.4 L 146.27702703475953 68.94538774490357 L 147.1 69.5 L 151.7 72.7 L 156.2 76.2 L 160.7 79.9 L 162.5 84.1 L 160.9 88.4 L 156.7 90.2 L 152.4 88.6 L 148.6 84.7 Z M 36.5 70.9 L 36.2 68.9 L 35.7 66.8 L 35.0 64.7 L 34.1 62.5 L 32.9 60.2 L 31.5 57.8 L 29.9 55.4 L 27.7 53.3 L 28.7 51.8 L 31.4 53.5 L 34.2 55.0 L 36.7 56.7 L 39.1 58.5 L 41.2 60.6 L 43.1 62.8 L 44.8 65.1 L 46.3 67.7 L 47.5 70.4 L 48.4 73.2 L 47.2 77.6 L 43.2 79.9 L 38.8 78.7 L 36.5 74.7 L 36.6 72.8 Z M 54.0 55.6 L 53.5 53.3 L 52.7 51.1 L 51.8 48.9 L 50.6 46.7 L 49.2 44.5 L 47.5 42.3 L 46.08659791946411 40.66342916488647 L 45.1 41.2 L 39.3 44.2 L 33.2 46.8 L 27.1 49.2 L 20.7 51.2 L 14.2 52.8 L 13.6 51.1 L 19.2 47.7 L 24.8 44.4 L 30.2 41.0 L 35.5 37.6 L 40.7 34.0 L 45.7 30.3 L 50.5 26.5 L 55.2 22.6 L 59.7 18.4 L 64.1 14.2 L 64.3 14.0 L 72.2 23.1 L 72.7 26.6 L 69.1403326034546 25.499739170074463 L 67.1 27.1 L 61.8 31.0 L 56.4 34.6 L 50.8 38.1 L 49.37957611083984 38.87251119613647 L 50.0 39.1 L 52.7 40.6 L 55.3 42.3 L 57.7 44.3 L 59.8 46.5 L 61.8 49.0 L 63.6 51.7 L 65.1 54.6 L 66.4 57.7 L 65.5 62.2 L 61.8 64.9 L 57.3 64.1 L 54.7 60.4 L 54.4 58.0 Z M 85.2 37.0 L 126.2 37.0 L 126.2 13.0 L 138.2 15.0 L 141.2 17.0 L 138.2 18.8 L 138.2 37.0 L 164.7 37.0 L 174.7 27.0 L 186.7 37.0 L 186.7 41.0 L 85.2 41.0 Z " />
</g>
</svg>
