<svg xmlns="http://www.w3.org/2000/svg" xmlns:xlink="http://www.w3.org/1999/xlink" version="1.1" baseProfile="full" viewBox="0 0 200 200" width="200" height="200">
<g fill="black">
<path d="M 125.0 183.0 L 102.5 180.9 L 82.9 177.7 L 66.1 173.2 L 52.1 167.4 L 41.0 160.3 L 33.0 151.9 L 29.033196640014648 143.88199319839478 L 28.0 149.5 L 26.1 157.6 L 23.9 165.1 L 21.4 171.9 L 18.6 178.2 L 15.3 183.7 L 11.7 188.4 L 10.2 187.5 L 11.9 182.0 L 13.6 176.2 L 15.1 169.9 L 16.5 163.2 L 17.8 155.8 L 18.8 148.0 L 19.7 139.5 L 20.3 130.5 L 20.7 120.9 L 20.9 110.7 L 20.93026485443115 110.70126104354858 L 21.0 108.4 L 32.9 111.2 L 35.8 113.3 L 32.60346460342407 115.05496063232422 L 32.1 121.6 L 31.0 131.5 L 30.350776386260986 135.8126998901367 L 32.2 140.8 L 37.6 148.2 L 45.3 154.5 L 46.0 154.8567307472229 L 46.0 86.0 L 58.0 88.0 L 61.0 90.0 L 58.0 91.8 L 58.0 121.0 L 70.81818180084228 121.0 L 79.0 112.0 L 89.0 121.0 L 89.0 125.0 L 58.0 125.0 L 58.0 160.5725191116333 L 68.8 164.2 L 84.8 167.6 L 103.7 169.9 L 125.5 171.2 L 150.2 171.3 L 177.7 170.4 L 189.0 169.9 L 178.2 183.5 L 150.2 183.8 Z M 116.6 103.1 L 160.3 103.1 L 166.3 98.1 L 177.3 107.1 L 172.3 111.1 L 172.3 154.4 L 160.3 160.4 L 160.3 150.4 L 116.6 150.4 L 116.6 162.4 L 104.6 168.4 L 104.6 97.1 Z M 116.6 107.1 L 116.6 146.4 L 160.3 146.4 L 160.3 107.1 Z M 184.1 24.5 L 184.1 28.5 L 144.41176471710205 28.5 L 151.4 33.3 L 153.0 36.5 L 149.25661840438843 36.629082107543944 L 146.7 40.6 L 141.7 47.7 L 138.32784814834594 52.071308040618895 L 144.5 53.1 L 147.5 55.1 L 144.5 56.9 L 144.5 93.4 L 132.5 99.4 L 132.5 59.23333330154419 L 130.6 61.5 L 124.6 68.2 L 118.2 74.6 L 111.4 80.9 L 104.3 86.9 L 96.7 92.7 L 88.7 98.1 L 87.6 96.7 L 94.2 89.8 L 100.6 83.0 L 106.8 76.2 L 112.6 69.4 L 118.2 62.6 L 123.4 55.7 L 128.3 48.8 L 132.8 41.7 L 137.0 34.6 L 140.30416669845582 28.5 L 92.8 28.5 L 92.8 24.5 L 162.1 24.5 L 172.1 14.5 Z M 174.1 85.8 L 172.0 82.4 L 169.5 78.9 L 166.8 75.5 L 163.8 72.0 L 160.4 68.5 L 156.8 64.9 L 152.9 61.2 L 148.8 57.4 L 149.7 55.8 L 155.0 58.2 L 159.9 60.7 L 164.5 63.5 L 168.7 66.4 L 172.7 69.5 L 176.4 72.8 L 179.7 76.2 L 182.8 79.7 L 185.6 83.3 L 188.1 87.1 L 188.4 91.6 L 185.4 95.2 L 180.9 95.5 L 177.4 92.5 L 175.9 89.2 Z M 13.0 82.0 L 46.0 82.0 L 46.0 50.0 L 16.0 50.0 L 16.0 46.0 L 46.0 46.0 L 46.0 12.0 L 58.0 14.0 L 61.0 16.0 L 58.0 17.8 L 58.0 46.0 L 66.0 46.0 L 76.0 36.0 L 88.0 46.0 L 88.0 50.0 L 58.0 50.0 L 58.0 82.0 L 68.0 82.0 L 78.0 72.0 L 90.0 82.0 L 90.0 86.0 L 13.0 86.0 Z " />
</g>
</svg>
