<svg xmlns="http://www.w3.org/2000/svg" xmlns:xlink="http://www.w3.org/1999/xlink" version="1.1" baseProfile="full" viewBox="0 0 200 200" width="200" height="200">
<g fill="black">
<path d="M 125.7 183.0 L 103.6 180.9 L 84.2 177.7 L 67.6 173.2 L 53.8 167.4 L 42.8 160.3 L 34.9 151.9 L 30.3 142.3 L 30.265223598480226 142.00150270462035 L 28.8 149.5 L 26.8 157.6 L 24.5 165.1 L 21.9 172.0 L 18.9 178.2 L 15.5 183.7 L 11.7 188.4 L 10.2 187.5 L 12.1 182.0 L 14.0 176.2 L 15.7 169.9 L 17.2 163.1 L 18.5 155.8 L 19.7 147.9 L 20.6 139.5 L 21.3 130.5 L 21.7 120.9 L 21.9 110.7 L 21.93026485443115 110.70126104354858 L 22.0 108.4 L 33.9 111.2 L 36.8 113.3 L 33.60346460342407 115.05496063232422 L 33.1 121.6 L 31.9 131.5 L 31.568412494659423 133.7026883125305 L 34.2 140.8 L 39.5 148.2 L 47.1 154.5 L 49.0 155.49611654281617 L 49.0 86.0 L 61.0 88.0 L 64.0 90.0 L 61.0 91.8 L 61.0 121.0 L 75.81818180084228 121.0 L 84.0 112.0 L 94.0 121.0 L 94.0 125.0 L 61.0 125.0 L 61.0 161.1 L 70.3 164.2 L 86.1 167.6 L 104.8 169.9 L 126.2 171.2 L 150.5 171.3 L 177.7 170.4 L 189.0 169.9 L 178.2 183.5 L 150.6 183.8 Z M 172.8 139.3 L 169.1 134.3 L 165.5 128.7 L 162.1 122.6 L 158.7 116.0 L 155.6 108.8 L 152.6 101.1 L 149.8 92.7 L 148.8 88.99166669845582 L 148.8 157.8 L 136.8 163.8 L 136.8 97.6024390220642 L 134.8 101.7 L 130.4 109.7 L 125.6 117.4 L 120.5 124.6 L 115.1 131.5 L 109.3 138.0 L 103.2 144.1 L 96.6 149.6 L 89.7 154.6 L 88.5 153.2 L 94.0 146.9 L 99.2 140.4 L 104.3 133.8 L 109.0 127.0 L 113.5 119.9 L 117.6 112.6 L 121.5 105.0 L 125.1 97.1 L 128.3 88.9 L 129.8125 84.5 L 101.7 84.5 L 101.7 80.5 L 136.8 80.5 L 136.8 47.5 L 105.0 47.5 L 105.0 43.5 L 136.8 43.5 L 136.8 12.7 L 148.8 14.7 L 151.8 16.7 L 148.8 18.5 L 148.8 43.5 L 161.2 43.5 L 171.2 33.5 L 183.2 43.5 L 183.2 47.5 L 148.8 47.5 L 148.8 80.5 L 167.0 80.5 L 177.0 70.5 L 189.0 80.5 L 189.0 84.5 L 149.8875 84.5 L 153.6 91.1 L 157.9 98.6 L 162.0 105.5 L 166.0 111.9 L 170.0 117.7 L 173.9 122.9 L 177.8 127.5 L 181.6 131.5 L 185.3 134.8 L 189.0 137.6 L 191.6 139.7 L 180.7 147.9 L 176.7 143.9 Z M 14.0 82.0 L 49.0 82.0 L 49.0 50.0 L 17.0 50.0 L 17.0 46.0 L 49.0 46.0 L 49.0 12.0 L 61.0 14.0 L 64.0 16.0 L 61.0 17.8 L 61.0 46.0 L 71.0 46.0 L 81.0 36.0 L 93.0 46.0 L 93.0 50.0 L 61.0 50.0 L 61.0 82.0 L 73.0 82.0 L 83.0 72.0 L 95.0 82.0 L 95.0 86.0 L 14.0 86.0 Z " />
</g>
</svg>
