<svg xmlns="http://www.w3.org/2000/svg" xmlns:xlink="http://www.w3.org/1999/xlink" version="1.1" baseProfile="full" viewBox="0 0 200 200" width="200" height="200">
<g fill="black">
<path d="M 162.7 182.8 L 158.3 180.9 L 153.4 178.9 L 147.8 177.0 L 141.6 175.0 L 134.7 173.1 L 127.3 171.1 L 119.4 169.0 L 110.8 166.8 L 111.1 165.0 L 119.9 165.3 L 128.3 165.8 L 136.0 166.6 L 143.2 167.6 L 149.8 168.7 L 156.0 170.0 L 161.6 171.3 L 166.6 172.8 L 171.2 174.5 L 175.4 176.3 L 178.1 180.0 L 177.5 184.5 L 173.9 187.2 L 169.3 186.7 L 166.3 184.8 Z M 79.46965703964233 162.91385221481323 L 87.2 170.0 L 87.4 173.2 L 83.62557792663574 171.6423020362854 L 83.5 171.7 L 78.9 173.3 L 73.8 174.9 L 68.3 176.5 L 62.2 178.1 L 55.6 179.6 L 48.6 181.1 L 41.0 182.5 L 32.9 183.8 L 24.3 185.0 L 15.1 185.9 L 14.8 184.2 L 23.5 181.3 L 31.7 178.6 L 39.4 176.1 L 46.6 173.8 L 53.3 171.5 L 59.5 169.2 L 65.1 167.0 L 70.1 164.9 L 74.6 162.8 L 77.62684364318848 161.24777250289918 L 77.6 161.2 L 77.64304933547973 161.2394618988037 L 78.5 160.8 Z M 111.3 80.1 L 115.3 84.1 L 120.2 87.7 L 126.4 90.8 L 133.7 93.5 L 142.4 95.8 L 152.4 97.6 L 163.7 98.9 L 176.4 99.8 L 187.4 100.5 L 175.5 112.9 L 162.3 111.4 L 156.37159900665284 110.31312646865845 L 161.0 114.1 L 156.0 118.1 L 156.0 159.5 L 144.0 165.5 L 144.0 159.5 L 56.0 159.5 L 44.0 165.5 L 44.0 108.33943662643432 L 36.8 109.1 L 21.0 109.9 L 20.9 108.1 L 36.3 105.3 L 50.0 102.4 L 62.0 99.2 L 72.3 95.8 L 80.7 92.1 L 87.4 88.2 L 92.2 84.2 L 95.2 80.3 L 96.7 76.6 L 97.0 72.8 L 97.0 42.9 L 109.0 44.9 L 112.0 46.9 L 109.0 48.7 L 109.0 72.8 L 108.43480739593505 75.70670471191406 Z M 56.0 144.4 L 56.0 155.5 L 144.0 155.5 L 144.0 144.4 Z M 56.0 129.2 L 56.0 140.4 L 144.0 140.4 L 144.0 129.2 Z M 56.0 114.1 L 56.0 125.2 L 144.0 125.2 L 144.0 114.1 Z M 104.1 86.3 L 98.9 91.7 L 92.3 96.1 L 84.2 99.8 L 74.6 103.0 L 63.6 105.6 L 51.0 107.6 L 56.0 110.1 L 144.0 110.1 L 146.29325685501098 108.18895263671875 L 139.6 106.5 L 130.2 103.1 L 122.1 99.1 L 115.3 94.5 L 110.0 89.1 L 106.3 83.2 L 106.12970294952393 82.64653463363648 Z M 79.93649396896362 44.60606393814087 L 90.2 53.1 L 90.5 56.1 L 86.21862888336182 54.01877794265747 L 82.4 54.9 L 79.0 55.3 L 75.5 55.7 L 71.6 56.0 L 67.6 56.3 L 63.3 56.5 L 58.8 56.6 L 54.0 56.7 L 48.9 56.7 L 44.0 56.51509437561035 L 44.0 65.9 L 65.81818180084228 65.9 L 74.0 56.9 L 84.0 65.9 L 84.0 69.9 L 44.0 69.9 L 44.0 82.3 L 66.81818180084228 82.3 L 75.0 73.3 L 85.0 82.3 L 85.0 86.3 L 44.0 86.3 L 44.0 89.3 L 32.0 95.3 L 32.0 47.3 L 43.46666669845581 53.03333330154419 L 53.2 50.6 L 57.8 49.5 L 62.1 48.4 L 66.2 47.3 L 69.9 46.3 L 73.4 45.3 L 76.7 44.3 L 78.62346935272217 43.57040815353393 L 78.6 43.5 L 78.66571426391602 43.55438423156738 L 79.6 43.2 Z M 174.0 55.4 L 169.0 59.4 L 169.0 88.3 L 157.0 94.3 L 157.0 86.3 L 120.0 86.3 L 120.0 82.3 L 157.0 82.3 L 157.0 69.9 L 120.0 69.9 L 120.0 65.9 L 157.0 65.9 L 157.0 55.4 L 120.0 55.4 L 120.0 51.4 L 157.0 51.4 L 163.0 46.4 Z M 64.8 31.7 L 63.4 30.1 L 61.7 28.5 L 59.6 26.7 L 57.2 24.8 L 54.5 22.8 L 51.5 20.7 L 48.2 18.5 L 44.5 16.4 L 45.2 14.8 L 49.3 16.1 L 53.2 17.0 L 56.8 18.0 L 60.2 19.0 L 63.2 20.1 L 66.1 21.2 L 68.7 22.2 L 71.0 23.4 L 73.2 24.6 L 75.2 25.9 L 76.8 30.1 L 75.0 34.4 L 72.1125 35.5 L 113.12857141494752 35.5 L 115.3 33.9 L 118.8 30.9 L 122.2 28.2 L 125.5 25.5 L 128.6 22.9 L 131.5 20.5 L 134.2 18.0 L 136.8 15.7 L 139.2 13.4 L 140.64941177368163 11.95058822631836 L 140.6 11.9 L 141.5 11.1 L 149.0 20.5 L 149.3 24.1 L 145.4617021560669 22.704255294799804 L 143.1 24.2 L 139.9 26.0 L 136.5 27.8 L 132.9 29.7 L 129.2 31.5 L 125.3 33.2 L 121.2 35.0 L 119.825 35.5 L 169.8181818008423 35.5 L 178.0 26.5 L 188.0 35.5 L 188.0 39.5 L 12.0 39.5 L 12.0 35.5 L 69.63333330154418 35.5 L 66.6 34.2 L 65.9 33.0 Z " />
</g>
</svg>
