<svg xmlns="http://www.w3.org/2000/svg" xmlns:xlink="http://www.w3.org/1999/xlink" version="1.1" baseProfile="full" viewBox="0 0 200 200" width="200" height="200">
<g fill="black">
<path d="M 119.1 172.4 L 119.2 176.0 L 115.50572032928467 174.39682207107543 L 115.5 174.4 L 111.5 176.4 L 107.2 178.3 L 102.4 180.0 L 97.3 181.8 L 91.8 183.4 L 85.8 185.0 L 79.4 186.5 L 72.6 187.8 L 65.3 188.8 L 64.8 187.1 L 71.5 184.1 L 77.8 181.4 L 83.7 178.8 L 89.1 176.3 L 94.1 173.9 L 98.7 171.6 L 102.7 169.2 L 106.3 167.0 L 109.4 164.8 L 112.0 162.7 Z M 39.4 148.7 L 41.7 151.5 L 37.91935482025146 152.44516124725342 L 37.7 153.0 L 35.7 157.2 L 33.6 161.5 L 31.2 165.6 L 28.7 169.7 L 25.9 173.6 L 22.9 177.6 L 19.7 181.3 L 16.2 185.0 L 12.4 188.5 L 11.0 187.4 L 13.3 182.9 L 15.4 178.5 L 17.5 174.2 L 19.5 169.9 L 21.3 165.7 L 23.0 161.6 L 24.5 157.4 L 25.8 153.3 L 27.0 149.2 L 27.75321340560913 146.1118251800537 L 27.7 146.1 L 27.935897445678712 145.36282052993775 L 28.0 145.1 L 28.018164443969727 145.10573616027833 L 28.5 143.6 Z M 170.7 182.7 L 167.9 181.0 L 164.7 179.2 L 161.2 177.4 L 157.3 175.6 L 153.0 173.8 L 148.4 171.9 L 143.4 170.0 L 138.1 168.0 L 138.4 166.3 L 144.1 166.7 L 149.5 167.2 L 154.6 167.9 L 159.4 168.8 L 163.9 169.7 L 168.0 170.8 L 171.9 172.0 L 175.5 173.3 L 178.9 174.7 L 181.9 176.3 L 184.3 180.2 L 183.4 184.7 L 179.5 187.1 L 175.0 186.1 L 173.1 184.5 Z M 56.0 167.2 L 55.2 164.4 L 54.3 161.6 L 53.3 158.9 L 52.2 156.2 L 50.9 153.4 L 49.5 150.7 L 48.1 147.9 L 46.2 145.3 L 47.5 144.0 L 50.1 146.0 L 52.8 148.0 L 55.3 150.1 L 57.6 152.5 L 59.8 154.9 L 61.9 157.6 L 63.8 160.3 L 65.5 163.2 L 67.1 166.2 L 68.6 169.4 L 68.1 173.9 L 64.6 176.8 L 60.0 176.3 L 57.1 172.8 L 56.6 170.0 Z M 98.6 98.0 L 161.7 98.0 L 167.7 93.0 L 178.7 102.0 L 173.7 106.0 L 173.7 159.0 L 161.7 165.0 L 161.7 159.0 L 98.6 159.0 L 98.6 162.0 L 86.6 168.0 L 86.6 92.0 Z M 98.6 140.0 L 98.6 155.0 L 161.7 155.0 L 161.7 140.0 Z M 28.5 22.5 L 53.0 22.5 L 59.0 17.5 L 70.0 26.5 L 65.0 30.5 L 65.0 134.8 L 53.0 140.8 L 53.0 134.8 L 28.5 134.8 L 16.5 140.8 L 16.5 16.5 Z M 98.6 121.0 L 98.6 136.0 L 161.7 136.0 L 161.7 121.0 Z M 28.5 97.2 L 28.5 130.8 L 53.0 130.8 L 53.0 97.2 Z M 98.6 102.0 L 98.6 117.0 L 161.7 117.0 L 161.7 102.0 Z M 97.7 83.1 L 103.1 81.5 L 104.7 81.00344829559326 L 104.7 61.0 L 96.48947372436524 61.0 L 96.1 64.7 L 95.1 70.2 L 93.5 75.4 L 91.5 80.3 L 88.9 84.9 L 85.9 89.1 L 82.5 92.9 L 78.5 96.3 L 74.2 99.2 L 69.4 101.7 L 68.3 100.2 L 71.9 96.4 L 74.9 92.6 L 77.5 88.8 L 79.7 85.0 L 81.5 81.0 L 82.9 76.9 L 83.9 72.7 L 84.6 68.3 L 84.8 63.8 L 84.74166669845582 61.0 L 73.6 61.0 L 73.6 57.0 L 96.1 57.0 L 96.1 40.0 L 84.45714282989502 40.0 L 83.0 42.4 L 81.3 45.1 L 79.3 47.9 L 77.2 50.5 L 75.4 53.4 L 73.7 52.5 L 74.8 49.4 L 75.5 46.1 L 76.2 42.9 L 76.9 39.9 L 77.6 36.8 L 78.2 33.8 L 79.2 28.0 L 79.6 25.2 L 79.78944578170777 23.431839656829833 L 79.6 23.4 L 80.3 20.7 L 91.5 25.4 L 93.9 28.1 L 89.85438346862793 29.27690658569336 L 89.1 31.1 L 87.7 33.9 L 86.68620691299438 36.0 L 96.1 36.0 L 96.1 13.0 L 108.1 15.0 L 111.1 17.0 L 108.1 18.8 L 108.1 36.0 L 111.6777777671814 36.0 L 117.9 29.0 L 125.9 36.0 L 125.9 40.0 L 108.1 40.0 L 108.1 57.0 L 113.5777777671814 57.0 L 119.8 50.0 L 127.8 57.0 L 127.8 61.0 L 116.7 61.0 L 116.7 77.51818180084229 L 118.6 77.0 L 122.1 76.1 L 125.7 75.3 L 129.3 74.1 L 130.0 75.8 L 126.9 77.8 L 123.9 80.0 L 121.0 82.1 L 118.1 84.0 L 115.3 85.8 L 112.6 87.6 L 110.0 89.3 L 106.42924823760987 91.58528108596802 L 105.7 95.9 L 102.6 94.0 L 95.9 83.9 Z M 28.5 61.8 L 28.5 93.2 L 53.0 93.2 L 53.0 61.8 Z M 183.8 73.0 L 185.8 73.0 L 183.8 82.0 L 186.2 83.6 L 187.8 86.0 L 186.2 88.4 L 183.8 90.0 L 172.4 90.0 L 170.1 89.8 L 167.9 89.3 L 165.7 88.3 L 163.8 87.0 L 162.1 85.2 L 160.7 83.2 L 159.8 80.9 L 159.1 78.5 L 158.8 76.0 L 158.8 61.0 L 151.5037036895752 61.0 L 150.8 64.8 L 149.3 69.8 L 147.4 74.6 L 145.0 79.0 L 142.1 83.0 L 138.8 86.6 L 135.1 89.8 L 130.9 92.6 L 126.4 94.9 L 121.5 96.7 L 120.7 95.2 L 124.5 92.0 L 127.8 88.7 L 130.7 85.3 L 133.2 81.9 L 135.3 78.4 L 136.9 74.8 L 138.2 71.0 L 139.1 67.0 L 139.6 62.9 L 139.64871797561645 61.0 L 129.7 61.0 L 129.7 57.0 L 149.3 57.0 L 149.3 40.0 L 137.69393939971923 40.0 L 136.6 41.9 L 134.6 45.1 L 132.4 48.5 L 129.9 51.8 L 127.6 55.4 L 126.0 54.5 L 127.3 50.6 L 128.3 46.6 L 129.3 42.8 L 130.3 39.2 L 131.2 35.8 L 132.0 32.4 L 132.6 29.2 L 133.2 26.2 L 133.7 23.2 L 133.89121465682985 21.4153302192688 L 133.8 21.4 L 133.95826082229615 20.78956518173218 L 134.0 20.4 L 134.05556545257568 20.414247512817383 L 134.5 18.7 L 145.7 23.4 L 148.1 26.1 L 144.09021739959718 27.245652198791504 L 143.2 29.3 L 140.2 35.5 L 139.92580642700196 36.0 L 149.3 36.0 L 149.3 13.0 L 161.3 15.0 L 164.3 17.0 L 161.3 18.8 L 161.3 36.0 L 165.61818180084228 36.0 L 173.8 27.0 L 183.8 36.0 L 183.8 40.0 L 161.3 40.0 L 161.3 57.0 L 168.51818180084229 57.0 L 176.7 48.0 L 186.7 57.0 L 186.7 61.0 L 170.8 61.0 L 170.8 76.0 L 170.7 77.2 L 170.6 78.2 L 170.7 78.9 L 170.7 79.5 L 170.8 79.9 L 171.1 80.4 L 171.5 80.8 L 172.3 81.3 L 173.4 81.7 L 174.8 82.0 L 179.8 82.0 Z M 28.5 26.5 L 28.5 57.8 L 53.0 57.8 L 53.0 26.5 Z " />
</g>
</svg>
