<svg xmlns="http://www.w3.org/2000/svg" xmlns:xlink="http://www.w3.org/1999/xlink" version="1.1" baseProfile="full" viewBox="0 0 200 200" width="200" height="200">
<g fill="black">
<path d="M 125.7 183.0 L 103.6 180.9 L 84.2 177.7 L 67.6 173.2 L 53.8 167.4 L 42.8 160.3 L 34.9 151.9 L 30.3 142.3 L 30.265223598480226 142.00150270462035 L 28.8 149.5 L 26.8 157.6 L 24.5 165.1 L 21.9 172.0 L 18.9 178.2 L 15.5 183.7 L 11.7 188.4 L 10.2 187.5 L 12.1 182.0 L 14.0 176.2 L 15.7 169.9 L 17.2 163.1 L 18.5 155.8 L 19.7 147.9 L 20.6 139.5 L 21.3 130.5 L 21.7 120.9 L 21.9 110.7 L 21.93026485443115 110.70126104354858 L 22.0 108.4 L 33.9 111.2 L 36.8 113.3 L 33.60346460342407 115.05496063232422 L 33.1 121.6 L 31.9 131.5 L 31.568412494659423 133.7026883125305 L 34.2 140.8 L 39.5 148.2 L 47.1 154.5 L 49.0 155.49611654281617 L 49.0 86.0 L 61.0 88.0 L 64.0 90.0 L 61.0 91.8 L 61.0 121.0 L 75.81818180084228 121.0 L 84.0 112.0 L 94.0 121.0 L 94.0 125.0 L 61.0 125.0 L 61.0 161.1 L 70.3 164.2 L 86.1 167.6 L 104.8 169.9 L 126.2 171.2 L 150.5 171.3 L 177.7 170.4 L 189.0 169.9 L 178.2 183.5 L 150.6 183.8 Z M 167.7 156.8 L 165.8 158.3 L 163.9 159.6 L 161.8 160.8 L 159.6 161.7 L 157.3 162.4 L 154.9 162.9 L 152.5 163.2 L 150.1 163.3 L 150.1 157.3 L 130.1 154.3 L 130.1 151.3 L 151.6 151.3 L 152.9 151.1 L 154.2 150.8 L 155.4 150.4 L 156.5 150.0 L 157.6 149.4 L 158.6 148.7 L 159.7 147.9 L 160.6 146.9 L 161.6 145.8 L 162.8 144.0 L 164.0 141.3 L 165.3 137.9 L 166.6 133.6 L 167.7 128.6 L 168.8 122.8 L 169.7 116.3 L 170.5 109.1 L 171.3 101.1 L 171.73953485488892 94.8 L 112.68318891525269 94.8 L 111.6 107.3 L 99.1 112.2 L 104.8 46.6 L 116.6 49.6 L 119.4 51.9 L 116.306067943573 52.991975975036624 L 113.02980937957764 90.8 L 133.0 90.8 L 133.0 28.6 L 95.2 28.6 L 95.2 24.6 L 163.1 24.6 L 173.1 14.6 L 185.1 24.6 L 185.1 28.6 L 145.0 28.6 L 145.0 57.3 L 159.11818180084228 57.3 L 167.3 48.3 L 177.3 57.3 L 177.3 61.3 L 145.0 61.3 L 145.0 90.8 L 171.9 90.8 L 177.9 85.8 L 188.9 94.8 L 183.9 97.8 L 183.47803468704222 97.9758189201355 L 183.2 102.1 L 182.5 110.3 L 181.6 117.8 L 180.6 124.7 L 179.5 131.0 L 178.2 136.6 L 176.7 141.6 L 175.1 146.0 L 173.2 149.9 L 171.0 153.2 L 169.4 155.1 Z M 14.0 82.0 L 49.0 82.0 L 49.0 50.0 L 17.0 50.0 L 17.0 46.0 L 49.0 46.0 L 49.0 12.0 L 61.0 14.0 L 64.0 16.0 L 61.0 17.8 L 61.0 46.0 L 71.0 46.0 L 81.0 36.0 L 93.0 46.0 L 93.0 50.0 L 61.0 50.0 L 61.0 82.0 L 73.0 82.0 L 83.0 72.0 L 95.0 82.0 L 95.0 86.0 L 14.0 86.0 Z " />
</g>
</svg>
