<svg xmlns="http://www.w3.org/2000/svg" xmlns:xlink="http://www.w3.org/1999/xlink" version="1.1" baseProfile="full" viewBox="0 0 200 200" width="200" height="200">
<g fill="black">
<path d="M 38.2 148.6 L 40.5 151.3 L 36.73372039794922 152.3088249206543 L 36.5 152.9 L 34.7 157.1 L 32.7 161.3 L 30.5 165.5 L 28.1 169.5 L 25.5 173.5 L 22.7 177.4 L 19.6 181.3 L 16.3 184.9 L 12.8 188.5 L 11.3 187.4 L 13.4 183.0 L 15.3 178.6 L 17.2 174.3 L 19.0 170.0 L 20.6 165.8 L 22.1 161.7 L 23.5 157.6 L 24.7 153.4 L 25.8 149.4 L 26.498060989379884 146.21994457244872 L 26.4 146.2 L 27.1 143.6 Z M 52.0 164.2 L 51.2 161.5 L 50.3 158.8 L 49.3 156.1 L 48.2 153.3 L 47.0 150.6 L 45.7 147.8 L 44.0 145.3 L 45.3 144.1 L 47.7 146.1 L 50.3 148.1 L 52.6 150.2 L 54.9 152.6 L 56.9 155.1 L 58.9 157.7 L 60.7 160.4 L 62.3 163.3 L 63.8 166.3 L 65.2 169.5 L 64.6 174.0 L 61.0 176.8 L 56.5 176.2 L 53.6 172.7 L 53.2 169.8 Z M 140.2 125.8 L 140.2 169.6 L 167.4 169.6 L 167.4 125.8 Z M 28.1 22.5 L 50.8 22.5 L 55.8 17.5 L 65.8 26.5 L 60.8 29.5 L 60.8 134.8 L 50.8 139.8 L 50.8 134.8 L 28.1 134.8 L 16.1 140.8 L 16.1 16.5 Z M 28.1 97.2 L 28.1 130.8 L 50.8 130.8 L 50.8 97.2 Z M 167.3 103.8 L 161.4 97.7 L 156.2 91.1 L 155.72353219985962 90.35422430038452 L 149.6 98.2 L 142.6 105.6 L 135.2 112.1 L 129.2 116.3 L 140.2 121.8 L 167.4 121.8 L 173.4 116.8 L 184.4 125.8 L 179.4 129.8 L 179.4 177.6 L 167.4 183.6 L 167.4 173.6 L 140.2 173.6 L 140.2 180.6 L 128.2 186.6 L 128.2 117.0 L 127.2 117.7 L 118.7 122.3 L 117.8 120.8 L 118.14918031692505 120.5 L 101.9 120.5 L 101.9 156.51176471710204 L 104.6 155.4 L 109.8 153.2 L 115.2 151.0 L 120.6 148.9 L 121.5 150.5 L 117.1 154.3 L 112.5 157.9 L 107.8 161.2 L 102.9 164.3 L 98.1 167.2 L 93.1 170.1 L 88.2 172.8 L 83.2 175.3 L 78.1 177.8 L 76.8661542892456 178.35644016265869 L 76.0 182.2 L 73.0 180.1 L 66.9 169.6 L 68.8 168.9 L 73.4 167.36666669845582 L 73.4 100.5 L 83.4 102.5 L 85.9 104.5 L 83.4 106.16666669845581 L 83.4 163.8470588684082 L 84.1 163.6 L 90.9 160.9333333015442 L 90.9 79.3 L 83.9 79.3 L 83.9 86.3 L 72.9 91.8 L 72.9 21.6 L 83.9 27.1 L 106.6 27.1 L 112.6 22.1 L 123.6 31.1 L 118.6 35.1 L 118.6 79.3 L 106.6 85.3 L 106.6 79.3 L 101.9 79.3 L 101.9 116.5 L 105.6777777671814 116.5 L 111.9 109.5 L 119.9 116.5 L 119.9 118.99577465057374 L 124.9 114.7 L 131.5 108.1 L 137.8 101.1 L 143.6 93.5 L 148.9 85.3 L 150.69036636352538 82.14895524978638 L 147.6 76.2 L 144.3 68.0 L 141.6 59.3 L 139.99978790283203 51.93902435302734 L 139.6 53.0 L 136.8 59.8 L 133.7 66.2 L 130.4 72.4 L 126.7 78.3 L 122.6 83.8 L 121.1 82.9 L 123.3 76.6 L 125.5 70.2 L 127.6 63.7 L 129.6 57.1 L 131.5 50.4 L 133.3 43.5 L 134.8 36.4 L 136.2 29.1 L 137.4 21.7 L 138.35647058486938 15.004705905914307 L 138.3 15.0 L 138.8 12.1 L 150.3 16.0 L 153.0 18.4 L 149.4691011428833 19.812359523773193 L 148.6 23.8 L 146.7 31.5 L 145.92702703475953 34.1 L 169.0 34.1 L 175.0 29.1 L 186.0 38.1 L 181.0 41.1 L 179.4906023979187 41.72891569137573 L 176.9 49.7 L 172.4 60.8 L 167.4 71.3 L 162.0 81.0 L 161.63511447906495 81.54732828140259 L 164.2 84.7 L 169.4 90.1 L 175.0 94.9 L 181.0 99.1 L 187.3 102.8 L 191.9 105.4 L 180.7 114.2 L 173.7 109.3 Z M 28.1 61.8 L 28.1 93.2 L 50.8 93.2 L 50.8 61.8 Z M 83.9 31.1 L 83.9 75.3 L 106.6 75.3 L 106.6 31.1 Z M 144.73783779144287 38.1 L 144.5 38.9 L 142.36314611434938 45.589281749725345 L 143.6 49.0 L 147.1 57.3 L 150.9 65.1 L 155.0 72.3 L 155.52329349517822 73.0730471611023 L 158.4 67.0 L 162.4 56.8 L 166.1 46.0 L 168.2982608795166 38.1 Z M 28.1 26.5 L 28.1 57.8 L 50.8 57.8 L 50.8 26.5 Z " />
</g>
</svg>
