<svg xmlns="http://www.w3.org/2000/svg" xmlns:xlink="http://www.w3.org/1999/xlink" version="1.1" baseProfile="full" viewBox="0 0 200 200" width="200" height="200">
<g fill="black">
<path d="M 126.4 183.0 L 104.5 180.9 L 85.3 177.6 L 68.9 173.2 L 55.2 167.4 L 44.4 160.3 L 36.5 151.9 L 31.97593183517456 142.45846643447877 L 30.6 149.5 L 28.6 157.6 L 26.3 165.1 L 23.7 172.0 L 20.7 178.2 L 17.4 183.7 L 13.6 188.4 L 12.1 187.5 L 14.0 182.0 L 15.8 176.2 L 17.5 169.9 L 19.0 163.1 L 20.3 155.8 L 21.4 147.9 L 22.3 139.5 L 23.0 130.5 L 23.4 120.9 L 23.6 110.7 L 23.630264854431154 110.70126104354858 L 23.7 108.4 L 35.6 111.2 L 38.6 113.3 L 35.3018518447876 115.0759259223938 L 34.8 121.6 L 33.7 131.5 L 33.332922744750974 133.93844146728514 L 35.8 140.8 L 41.1 148.2 L 48.7 154.5 L 50.4 155.4089108467102 L 50.4 86.0 L 62.4 88.0 L 65.4 90.0 L 62.4 91.8 L 62.4 121.0 L 76.81818180084228 121.0 L 85.0 112.0 L 95.0 121.0 L 95.0 125.0 L 62.4 125.0 L 62.4 161.109375 L 71.6 164.2 L 87.3 167.6 L 105.7 169.9 L 127.0 171.2 L 151.0 171.3 L 177.9 170.4 L 189.2 169.9 L 178.4 183.5 L 151.1 183.8 Z M 134.6 130.5 L 135.7 133.9 L 131.88761539459227 133.50561542510985 L 130.9 134.6 L 127.2 138.6 L 119.2 146.2 L 114.9 149.8 L 110.5 153.3 L 105.9 156.6 L 101.2 159.7 L 96.1 162.6 L 90.9 165.2 L 89.9 163.8 L 93.9 159.6 L 101.7 151.6 L 105.4 147.6 L 109.0 143.7 L 112.5 139.7 L 115.9 135.6 L 119.1 131.5 L 122.1 127.4 L 124.43306856155395 124.02107315063476 L 124.4 124.0 L 124.79285717010498 123.5 L 125.0 123.2 L 125.01788539886475 123.21360034942627 L 125.5 122.6 Z M 173.7 152.8 L 171.4 149.2 L 168.9 145.7 L 166.2 142.3 L 163.3 139.0 L 160.3 135.7 L 157.0 132.5 L 153.5 129.3 L 149.9 126.1 L 150.7 124.5 L 155.4 126.3 L 159.9 128.3 L 164.2 130.7 L 168.2 133.4 L 172.0 136.4 L 175.7 139.6 L 179.1 143.0 L 182.3 146.7 L 185.4 150.5 L 188.2 154.6 L 188.6 159.2 L 185.8 162.8 L 181.3 163.3 L 177.7 160.5 L 175.8 156.6 Z M 95.5 115.9 L 111.7 115.9 L 111.7 12.0 L 123.7 18.0 L 160.3 18.0 L 166.3 13.0 L 177.3 22.0 L 172.3 26.0 L 172.3 115.9 L 174.1777777671814 115.9 L 180.4 108.9 L 188.4 115.9 L 188.4 119.9 L 95.5 119.9 Z M 123.7 86.4 L 123.7 115.9 L 160.3 115.9 L 160.3 86.4 Z M 15.8 82.0 L 50.4 82.0 L 50.4 50.0 L 18.8 50.0 L 18.8 46.0 L 50.4 46.0 L 50.4 12.0 L 62.4 14.0 L 65.4 16.0 L 62.4 17.8 L 62.4 46.0 L 72.0 46.0 L 82.0 36.0 L 94.0 46.0 L 94.0 50.0 L 62.4 50.0 L 62.4 82.0 L 74.0 82.0 L 84.0 72.0 L 96.0 82.0 L 96.0 86.0 L 15.8 86.0 Z M 123.7 54.2 L 123.7 82.4 L 160.3 82.4 L 160.3 54.2 Z M 123.7 22.0 L 123.7 50.2 L 160.3 50.2 L 160.3 22.0 Z " />
</g>
</svg>
