<svg xmlns="http://www.w3.org/2000/svg" xmlns:xlink="http://www.w3.org/1999/xlink" version="1.1" baseProfile="full" viewBox="0 0 200 200" width="200" height="200">
<g fill="black">
<path d="M 174.9 132.7 L 173.8 128.8 L 172.6 125.0 L 172.59539823532106 124.98654870986938 L 168.5 126.2 L 160.4 128.3 L 152.3 130.2 L 144.2 132.0 L 143.9 132.059259223938 L 143.9 183.0 L 131.9 189.0 L 131.9 134.429629611969 L 128.0 135.2 L 119.9 136.7 L 111.9 138.1 L 103.8 139.5 L 99.82984437942505 140.14515027999877 L 98.1 143.5 L 95.8 140.8 L 92.3 129.1 L 94.3 128.9 L 110.5 127.5 L 118.6 126.7 L 126.7 126.0 L 131.25298175811767 125.5558066368103 L 133.0 122.3 L 137.2 114.3 L 139.3 110.5 L 141.4 106.6 L 143.3 102.9 L 145.2 99.1 L 147.0 95.4 L 148.7 91.7 L 149.909094619751 88.90396862030029 L 149.9 88.9 L 149.96060609817505 88.78484849929809 L 150.3 88.0 L 150.35743036270142 88.03088235855103 L 150.9 87.0 L 160.9 93.7 L 162.6 96.8 L 158.731361579895 97.00010194778443 L 158.6 97.2 L 156.1 100.8 L 153.6 104.3 L 150.9 107.8 L 148.2 111.2 L 145.3 114.6 L 139.1 121.2 L 135.7 124.4 L 134.78399648666382 125.21131744384766 L 134.9 125.2 L 143.1 124.5 L 151.3 123.7 L 159.6 123.0 L 167.9 122.5 L 171.6831072807312 122.31985206604004 L 171.3 121.2 L 169.9 117.6 L 166.9 110.4 L 165.3 106.8 L 163.5 103.3 L 164.9 102.2 L 167.9 104.9 L 170.8 107.7 L 173.6 110.8 L 176.1 114.1 L 178.5 117.6 L 180.8 121.3 L 182.9 125.1 L 184.8 129.0 L 186.6 133.1 L 188.3 137.4 L 187.8 141.9 L 184.2 144.8 L 179.7 144.3 L 176.8 140.7 L 175.9 136.7 Z M 12.2 87.0 L 12.2 83.0 L 44.4 83.0 L 44.4 47.0 L 17.3 47.0 L 17.3 43.0 L 44.4 43.0 L 44.4 12.0 L 56.4 14.0 L 59.4 16.0 L 56.4 17.8 L 56.4 43.0 L 64.1 43.0 L 74.1 33.0 L 86.1 43.0 L 86.1 47.0 L 56.4 47.0 L 56.4 83.0 L 68.4 83.0 L 78.4 73.0 L 90.4 83.0 L 90.4 87.0 L 67.8 87.0 L 67.8 173.0 L 67.7 175.4 L 67.3 177.7 L 66.7 180.0 L 65.7 182.1 L 64.3 184.1 L 62.5 185.7 L 60.4 187.0 L 58.2 187.8 L 55.9 188.3 L 53.6 188.5 L 53.6 183.0 L 38.1 180.2 L 38.1 177.5 L 53.6 177.5 L 54.5 177.4 L 55.2 177.3 L 55.8 177.0 L 56.0 176.8 L 56.1 176.6 L 56.4 176.1 L 56.6 175.4 L 56.7 174.3 L 56.8 173.0 L 56.8 87.0 L 46.6 87.0 L 46.6 121.0 L 46.0 130.1 L 44.8 138.7 L 43.1 146.8 L 40.8 154.5 L 37.9 161.7 L 34.3 168.3 L 30.2 174.3 L 25.5 179.8 L 20.2 184.6 L 14.4 188.6 L 13.3 187.3 L 17.8 182.1 L 21.7 176.7 L 25.2 171.0 L 28.2 165.1 L 30.6 158.7 L 32.6 152.0 L 34.1 144.9 L 35.1 137.4 L 35.6 129.4 L 35.6 87.0 Z M 123.7 147.3 L 125.6 150.4 L 121.68472490310668 150.8725332260132 L 121.5 151.2 L 119.1 155.0 L 116.5 158.8 L 113.8 162.4 L 110.8 166.0 L 107.7 169.6 L 104.4 173.0 L 100.9 176.3 L 97.1 179.5 L 93.1 182.6 L 91.8 181.3 L 94.5 177.2 L 97.0 173.1 L 99.5 169.1 L 104.1 161.3 L 106.1 157.5 L 108.0 153.7 L 109.8 149.9 L 111.4 146.1 L 112.45243616104126 143.31856145858765 L 112.4 143.3 L 113.3 141.2 Z M 168.0 168.2 L 166.5 164.6 L 164.9 161.1 L 163.1 157.7 L 161.3 154.4 L 159.4 151.1 L 157.3 147.8 L 155.3 144.5 L 153.0 141.3 L 154.2 140.0 L 160.8 144.6 L 163.9 147.3 L 166.9 150.1 L 169.7 153.1 L 172.4 156.4 L 174.9 159.7 L 177.4 163.3 L 179.6 167.0 L 181.8 170.8 L 181.8 175.4 L 178.7 178.7 L 174.1 178.7 L 170.8 175.6 L 169.5 171.9 Z M 29.9 111.5 L 32.8 113.7 L 29.343478298187257 115.39565219879151 L 29.1 117.1 L 28.1 122.6 L 26.9 127.9 L 25.6 133.1 L 24.1 138.1 L 22.5 143.0 L 20.7 147.6 L 18.7 152.1 L 16.4 156.3 L 13.8 160.3 L 12.2 159.6 L 13.6 150.4 L 14.4 145.8 L 15.2 141.1 L 15.9 136.3 L 16.5 131.3 L 17.0 126.3 L 17.4 121.1 L 17.8 115.8 L 17.96294355392456 111.40052452087403 L 17.9 111.4 L 18.2 108.3 Z M 79.4 139.5 L 79.0 135.2 L 78.4 130.9 L 77.8 126.8 L 77.0 122.8 L 76.1 118.8 L 75.2 114.9 L 74.2 111.1 L 73.1 107.3 L 74.6 106.4 L 77.2 109.6 L 79.7 113.0 L 81.9 116.6 L 83.8 120.5 L 85.6 124.5 L 87.2 128.8 L 88.6 133.2 L 89.8 137.8 L 90.9 142.5 L 91.8 147.4 L 90.4 151.7 L 86.4 153.9 L 82.0 152.5 L 79.8 148.5 L 79.7 144.0 Z M 117.5 113.1 L 116.6 111.1 L 115.5 109.1 L 114.3 107.0 L 113.0 104.8 L 111.5 102.7 L 109.9 100.5 L 108.2 98.2 L 106.1 96.3 L 107.2 94.8 L 109.7 96.3 L 112.4 97.5 L 115.0 98.8 L 117.4 100.3 L 119.7 101.9 L 121.75573768615723 103.48852462768555 L 123.1 100.8 L 124.8 97.2 L 126.4 93.7 L 127.9 90.2 L 129.2 86.9 L 130.3 83.6 L 131.3 80.4 L 132.1 77.3 L 132.35161294937134 76.0 L 110.7 76.0 L 110.7 79.0 L 98.7 85.0 L 98.7 18.0 L 110.7 24.0 L 165.6 24.0 L 171.6 19.0 L 182.6 28.0 L 177.6 32.0 L 177.6 80.0 L 165.6 86.0 L 165.6 76.0 L 144.5 76.0 L 144.5 78.0 L 144.06363639831542 78.0 L 142.7 81.0 L 141.0 84.4 L 139.1 87.7 L 137.1 90.9 L 134.8 94.2 L 132.4 97.3 L 129.7 100.5 L 126.8 103.5 L 124.38410596847534 105.76490068435669 L 126.0 107.3 L 127.8 109.4 L 129.5 111.5 L 129.9 116.0 L 127.0 119.6 L 122.5 120.0 L 118.9 117.1 L 118.3 115.2 Z M 110.7 52.0 L 110.7 72.0 L 132.5 72.0 L 132.5 52.0 Z M 144.5 52.0 L 144.5 72.0 L 165.6 72.0 L 165.6 52.0 Z M 110.7 28.0 L 110.7 48.0 L 132.5 48.0 L 132.5 28.0 Z M 144.5 28.0 L 144.5 48.0 L 165.6 48.0 L 165.6 28.0 Z " />
</g>
</svg>
