<svg xmlns="http://www.w3.org/2000/svg" xmlns:xlink="http://www.w3.org/1999/xlink" version="1.1" baseProfile="full" viewBox="0 0 200 200" width="200" height="200">
<g fill="black">
<path d="M 14.3 168.9 L 20.4 167.41857147216797 L 20.4 101.0 L 32.4 103.0 L 35.4 105.0 L 32.4 106.8 L 32.4 164.3710144996643 L 42.1 161.7 L 44.9 160.84782609939575 L 44.9 80.0 L 32.4 80.0 L 32.4 83.0 L 20.4 89.0 L 20.4 22.0 L 32.4 28.0 L 66.9 28.0 L 72.9 23.0 L 83.9 32.0 L 78.9 36.0 L 78.9 80.0 L 66.9 86.0 L 66.9 80.0 L 56.9 80.0 L 56.9 117.0 L 68.3777777671814 117.0 L 74.6 110.0 L 82.6 117.0 L 82.6 121.0 L 56.9 121.0 L 56.9 157.31304349899293 L 62.9 155.4 L 69.8 153.3 L 76.8 151.2 L 83.9 149.1 L 84.6 150.8 L 78.3 154.6 L 71.9 158.2 L 65.3 161.5 L 58.6 164.7 L 51.9 167.6 L 45.1 170.4 L 38.3 173.1 L 31.4 175.7 L 21.480835723876954 179.1501441001892 L 20.3 182.8 L 17.6 180.5 L 12.4 169.4 Z M 154.5 124.0 L 164.5 124.0 L 165.8 123.9 L 166.7 123.7 L 167.6 123.4 L 167.8 123.2 L 167.9 123.0 L 168.1 122.7 L 168.3 122.1 L 168.5 121.2 L 168.5 61.04737949371338 L 143.0 69.60083856582642 L 143.0 147.0 L 131.0 153.0 L 131.0 73.6259958267212 L 109.5 80.83773584365845 L 109.5 168.2 L 109.7 169.1 L 109.9 169.7 L 110.1 170.0 L 110.2 170.2 L 110.4 170.4 L 111.3 170.7 L 112.2 170.9 L 113.5 171.0 L 175.6 171.0 L 181.6 146.0 L 183.6 146.0 L 181.6 171.0 L 185.2 173.4 L 187.6 177.0 L 185.2 180.6 L 181.6 183.0 L 113.5 183.0 L 110.9 182.8 L 108.4 182.4 L 106.0 181.6 L 103.8 180.3 L 101.7 178.7 L 100.1 176.7 L 98.9 174.4 L 98.1 172.0 L 97.6 169.5 L 97.5 167.0 L 97.5 84.86289310455322 L 79.8 90.8 L 78.5 87.1 L 97.5 80.7268343925476 L 97.5 37.0 L 109.5 39.0 L 112.5 41.0 L 109.5 42.8 L 109.5 76.70167713165283 L 131.0 69.48993711471557 L 131.0 14.0 L 143.0 16.0 L 146.0 18.0 L 143.0 19.8 L 143.0 65.4647798538208 L 168.5 56.911320781707765 L 168.5 55.0 L 174.5 50.0 L 185.5 59.0 L 180.5 63.0 L 180.5 120.0 L 180.4 122.5 L 180.0 125.0 L 179.1 127.4 L 177.9 129.7 L 176.3 131.7 L 174.3 133.3 L 172.0 134.6 L 169.6 135.4 L 167.1 135.8 L 164.5 136.0 L 164.5 130.0 L 154.5 127.0 Z M 32.4 32.0 L 32.4 76.0 L 66.9 76.0 L 66.9 32.0 Z " />
</g>
</svg>
