<svg xmlns="http://www.w3.org/2000/svg" xmlns:xlink="http://www.w3.org/1999/xlink" version="1.1" baseProfile="full" viewBox="0 0 200 200" width="200" height="200">
<g fill="black">
<path d="M 126.1 183.0 L 104.0 180.9 L 84.6 177.7 L 68.0 173.2 L 54.2 167.4 L 47.4450704574585 163.0 L 47.0 163.0 L 47.0 162.7100917816162 L 43.3 160.3 L 35.3 151.9 L 31.643589782714844 144.2692307472229 L 30.7 149.4 L 28.9 157.5 L 26.9 165.0 L 24.6 171.9 L 21.9 178.1 L 18.9 183.6 L 15.5 188.4 L 13.9 187.5 L 15.4 182.1 L 16.9 176.3 L 18.2 170.0 L 19.5 163.2 L 20.6 155.9 L 21.5 148.0 L 22.3 139.6 L 22.8 130.5 L 23.2 120.9 L 23.4 110.7 L 23.43026485443115 110.70126104354858 L 23.5 108.4 L 35.4 111.2 L 38.3 113.3 L 35.10346460342407 115.05496063232422 L 34.6 121.6 L 33.5 131.5 L 32.90269193649292 136.07936191558838 L 34.6 140.8 L 39.9 148.2 L 47.0 154.00909090042114 L 47.0 86.0 L 59.0 88.0 L 62.0 90.0 L 59.0 91.8 L 59.0 121.0 L 72.0777777671814 121.0 L 78.3 114.0 L 86.3 121.0 L 86.3 125.0 L 59.0 125.0 L 59.0 160.3 L 70.7 164.2 L 86.5 167.6 L 105.2 169.9 L 126.6 171.2 L 151.0 171.3 L 178.1 170.4 L 189.5 169.9 L 178.7 183.5 L 151.0 183.8 Z M 81.7 162.3 L 80.7 157.9 L 83.1 154.0 L 84.2 153.6 L 85.4 152.8 L 86.6 151.7 L 87.9 150.1 L 89.0 148.1 L 90.1 145.7 L 91.1 142.9 L 92.0 139.6 L 92.8 136.0 L 93.0 132.0 L 94.8 131.9 L 95.3 135.9 L 96.0 139.8 L 96.4 143.4 L 96.5 146.8 L 96.3 150.1 L 95.8 153.2 L 95.0 156.1 L 93.8 158.9 L 92.1 161.5 L 90.0 163.8 L 85.6 164.7 Z M 108.6 148.6 L 108.7 146.7 L 108.8 144.7 L 108.6 140.5 L 108.3 138.3 L 107.9 136.1 L 107.5 133.7 L 106.4 131.6 L 107.9 130.6 L 109.4 132.6 L 111.3 134.3 L 112.9 136.2 L 114.4 138.3 L 115.7 140.4 L 116.8 142.6 L 117.9 145.0 L 118.7 147.4 L 119.4 149.9 L 119.9 152.4 L 118.1 156.6 L 113.9 158.4 L 109.7 156.6 L 107.9 152.4 L 108.3 150.5 Z M 174.8 160.5 L 173.0 162.2 L 171.1 163.7 L 169.1 165.0 L 166.9 166.1 L 164.6 166.9 L 162.3 167.4 L 159.9 167.8 L 157.4 167.9 L 157.4 161.9 L 137.4 158.9 L 137.4 155.9 L 157.4 155.9 L 158.8 155.8 L 160.1 155.6 L 161.2 155.4 L 162.3 155.0 L 163.3 154.5 L 164.2 153.9 L 165.1 153.2 L 166.0 152.4 L 166.8 151.4 L 167.6 150.2 L 168.0 149.4 L 168.5 148.0 L 169.1 145.9 L 169.6 143.4 L 170.0 140.3 L 170.4 136.8 L 170.7 132.8 L 170.9 128.3 L 171.0 123.4 L 171.06296300888062 120.0 L 105.9 120.0 L 93.9 126.0 L 93.9 55.8 L 105.9 61.8 L 157.11818180084228 61.8 L 165.3 52.8 L 175.3 61.8 L 175.3 65.8 L 140.0 65.8 L 140.0 79.9 L 152.21818180084227 79.9 L 160.4 70.9 L 170.4 79.9 L 170.4 83.9 L 140.0 83.9 L 140.0 97.9 L 152.21818180084227 97.9 L 160.4 88.9 L 170.4 97.9 L 170.4 101.9 L 140.0 101.9 L 140.0 116.0 L 171.1 116.0 L 177.1 111.0 L 188.1 120.0 L 183.1 123.0 L 183.01004495620728 123.03748121261597 L 183.0 123.6 L 182.9 128.7 L 182.7 133.5 L 182.4 137.8 L 181.9 141.8 L 181.4 145.4 L 180.8 148.6 L 180.0 151.5 L 179.0 154.2 L 177.8 156.6 L 176.4 158.7 Z M 128.3 142.7 L 127.9 140.7 L 127.5 138.8 L 126.9 136.8 L 126.2 134.8 L 125.4 132.8 L 124.6 130.7 L 123.1 129.0 L 124.4 127.7 L 126.2 129.2 L 128.3 130.4 L 130.2 131.8 L 132.1 133.4 L 133.8 135.2 L 135.4 137.1 L 136.8 139.1 L 138.2 141.3 L 139.4 143.6 L 140.4 146.1 L 139.5 150.6 L 135.8 153.2 L 131.3 152.3 L 128.7 148.6 L 128.5 144.6 Z M 149.0 139.1 L 148.5 137.5 L 147.9 135.9 L 147.1 134.3 L 146.2 132.6 L 145.1 130.8 L 143.9 129.0 L 142.2 127.7 L 143.2 126.2 L 145.2 127.3 L 147.4 128.0 L 149.5 128.9 L 151.4 130.0 L 153.3 131.2 L 155.1 132.6 L 156.8 134.1 L 158.3 135.8 L 159.7 137.6 L 161.0 139.6 L 160.8 144.1 L 157.5 147.3 L 152.9 147.0 L 149.8 143.7 L 149.4 140.7 Z M 105.9 101.9 L 105.9 116.0 L 128.0 116.0 L 128.0 101.9 Z M 105.9 83.9 L 105.9 97.9 L 128.0 97.9 L 128.0 83.9 Z M 16.7 82.0 L 47.0 82.0 L 47.0 50.0 L 19.6 50.0 L 19.6 46.0 L 47.0 46.0 L 47.0 12.0 L 59.0 14.0 L 62.0 16.0 L 59.0 17.8 L 59.0 46.0 L 63.3 46.0 L 73.3 36.0 L 85.3 46.0 L 85.3 50.0 L 59.0 50.0 L 59.0 82.0 L 65.3 82.0 L 75.3 72.0 L 87.3 82.0 L 87.3 86.0 L 16.7 86.0 Z M 105.9 65.8 L 105.9 79.9 L 128.0 79.9 L 128.0 65.8 Z M 89.5 53.4 L 89.5 20.1 L 101.5 22.1 L 104.5 24.1 L 101.5 25.9 L 101.5 43.4 L 128.0 43.4 L 128.0 11.0 L 140.0 13.0 L 143.0 15.0 L 140.0 16.8 L 140.0 43.4 L 166.4 43.4 L 166.4 20.1 L 178.4 22.1 L 181.4 24.1 L 178.4 25.9 L 178.4 47.4 L 166.4 53.4 L 166.4 47.4 L 101.5 47.4 Z " />
</g>
</svg>
