<svg xmlns="http://www.w3.org/2000/svg" xmlns:xlink="http://www.w3.org/1999/xlink" version="1.1" baseProfile="full" viewBox="0 0 200 200" width="200" height="200">
<g fill="black">
<path d="M 73.0 176.9 L 78.3 175.5 L 79.0 175.30555553436278 L 79.0 119.0 L 89.0 121.0 L 91.5 123.0 L 89.0 124.66666669845581 L 89.0 172.5277777671814 L 89.1 172.5 L 94.7 170.9 L 95.0 170.81964282989503 L 95.0 87.0 L 105.0 89.0 L 107.5 91.0 L 105.0 92.66666669845581 L 105.0 129.0 L 112.77777776718139 129.0 L 119.0 122.0 L 127.0 129.0 L 127.0 133.0 L 105.0 133.0 L 105.0 168.057142829895 L 105.9 167.8 L 111.7 166.3 L 117.5 164.7 L 123.5 163.4 L 129.6 162.1 L 130.3 163.8 L 124.8 166.9 L 119.4 169.8 L 113.9 172.4 L 103.1 177.4 L 97.8 179.7 L 92.4 182.0 L 87.2 184.1 L 82.0 186.3 L 80.60922689437866 186.8349126815796 L 79.6 190.5 L 76.8 188.3 L 71.1 177.6 Z M 12.0 176.9 L 17.3 175.5 L 18.0 175.30555553436278 L 18.0 119.0 L 28.0 121.0 L 30.5 123.0 L 28.0 124.66666669845581 L 28.0 172.5277777671814 L 28.1 172.5 L 33.7 170.9 L 34.0 170.81964282989503 L 34.0 87.0 L 44.0 89.0 L 46.5 91.0 L 44.0 92.66666669845581 L 44.0 129.0 L 51.7777777671814 129.0 L 58.0 122.0 L 66.0 129.0 L 66.0 133.0 L 44.0 133.0 L 44.0 168.057142829895 L 44.9 167.8 L 50.7 166.3 L 56.5 164.7 L 62.5 163.4 L 68.6 162.1 L 69.3 163.8 L 63.8 166.9 L 58.4 169.8 L 52.9 172.4 L 42.1 177.4 L 36.8 179.7 L 31.4 182.0 L 26.2 184.1 L 21.0 186.3 L 19.60922689437866 186.8349126815796 L 18.6 190.5 L 15.8 188.3 L 10.1 177.6 Z M 126.6 183.5 L 135.1 183.5 L 135.1 121.1 L 145.1 123.1 L 147.6 125.1 L 145.1 126.76666669845581 L 145.1 183.5 L 152.9 183.5 L 152.9 86.3 L 162.9 88.3 L 165.4 90.3 L 162.9 91.96666669845581 L 162.9 129.9 L 168.87777776718139 129.9 L 175.1 122.9 L 183.1 129.9 L 183.1 133.9 L 162.9 133.9 L 162.9 183.5 L 167.4181818008423 183.5 L 175.6 174.5 L 185.6 183.5 L 185.6 187.5 L 126.6 187.5 Z M 55.8 96.3 L 53.3 91.4 L 51.0 86.4 L 49.1 81.2 L 47.4 75.9 L 46.1 70.5 L 45.1 64.9 L 44.5 59.2 L 44.5 54.2 L 40.364948463439944 54.2 L 38.5 60.9 L 35.5 70.0 L 32.4 78.5 L 29.0 86.4 L 25.3 93.6 L 21.3 100.2 L 17.0 106.0 L 12.3 111.1 L 10.9 110.0 L 13.8 104.0 L 16.6 97.6 L 19.3 90.8 L 21.9 83.5 L 24.4 75.7 L 26.6 67.3 L 28.8 58.4 L 29.63999996185303 54.2 L 12.0 54.2 L 12.0 50.2 L 30.439999961853026 50.2 L 30.7 48.9 L 32.4 38.8 L 33.67457628250122 30.27627115249634 L 30.2 30.7 L 25.9 31.0 L 17.2 31.0 L 17.0 29.2 L 21.1 27.9 L 25.0 26.4 L 28.8 24.9 L 32.4 23.4 L 35.9 21.9 L 39.3 20.3 L 42.5 18.7 L 45.6 16.9 L 48.5 15.1 L 50.43679485321045 13.854917621612548 L 50.4 13.8 L 50.44815540313721 13.84761438369751 L 51.3 13.3 L 52.9917236328125 16.362603187561035 L 59.3 22.6 L 59.4 25.9 L 55.63656806945801 24.369112396240233 L 53.5 25.2 L 49.9 26.5 L 46.1 27.7 L 42.3 28.7 L 41.904838752746585 28.779032230377197 L 45.8 30.1 L 48.5 32.5 L 45.02251310348511 33.916753959655765 L 43.6 40.9 L 41.433009719848634 50.2 L 46.9 50.2 L 56.9 40.2 L 68.9 50.2 L 68.9 54.2 L 46.82075471878052 54.2 L 48.6 58.3 L 50.8 63.4 L 53.0 68.2 L 55.2 72.9 L 57.6 77.5 L 60.2 81.8 L 62.9 86.0 L 65.7 89.9 L 68.7 93.7 L 71.9 97.4 L 72.2 97.8 L 61.6 105.6 L 58.5 101.0 Z M 175.8 96.3 L 173.3 91.4 L 171.0 86.4 L 169.1 81.2 L 167.4 75.9 L 166.1 70.5 L 165.1 64.9 L 164.5 59.2 L 164.5 54.2 L 160.36494846343993 54.2 L 158.5 60.9 L 155.5 70.0 L 152.4 78.5 L 149.0 86.4 L 145.3 93.6 L 141.3 100.2 L 137.0 106.0 L 132.3 111.1 L 130.9 110.0 L 133.8 104.0 L 136.6 97.6 L 139.3 90.8 L 141.9 83.5 L 144.4 75.7 L 146.6 67.3 L 148.8 58.4 L 149.63999996185302 54.2 L 132.0 54.2 L 132.0 50.2 L 150.43999996185303 50.2 L 150.7 48.9 L 152.4 38.8 L 153.67457628250122 30.27627115249634 L 150.2 30.7 L 145.9 31.0 L 137.2 31.0 L 137.0 29.2 L 141.1 27.9 L 145.0 26.4 L 148.8 24.9 L 152.4 23.4 L 155.9 21.9 L 159.3 20.3 L 162.5 18.7 L 165.6 16.9 L 168.5 15.1 L 170.43679485321044 13.854917621612548 L 170.4 13.8 L 170.4481554031372 13.84761438369751 L 171.3 13.3 L 172.9917236328125 16.362603187561035 L 179.3 22.6 L 179.4 25.9 L 175.636568069458 24.369112396240233 L 173.5 25.2 L 169.9 26.5 L 166.1 27.7 L 162.3 28.7 L 161.90483875274657 28.779032230377197 L 165.8 30.1 L 168.5 32.5 L 165.0225131034851 33.916753959655765 L 163.6 40.9 L 161.43300971984863 50.2 L 166.9 50.2 L 176.9 40.2 L 188.9 50.2 L 188.9 54.2 L 166.8207547187805 54.2 L 168.6 58.3 L 170.8 63.4 L 173.0 68.2 L 175.2 72.9 L 177.6 77.5 L 180.2 81.8 L 182.9 86.0 L 185.7 89.9 L 188.7 93.7 L 191.9 97.4 L 192.2 97.8 L 181.6 105.6 L 178.5 101.0 Z M 115.8 96.3 L 113.3 91.4 L 111.0 86.4 L 109.1 81.2 L 107.4 75.9 L 106.1 70.5 L 105.1 64.9 L 104.5 59.2 L 104.5 54.2 L 100.36494846343994 54.2 L 98.5 60.9 L 95.5 70.0 L 92.4 78.5 L 89.0 86.4 L 85.3 93.6 L 81.3 100.2 L 77.0 106.0 L 72.3 111.1 L 70.9 110.0 L 73.8 104.0 L 76.6 97.6 L 79.3 90.8 L 81.9 83.5 L 84.4 75.7 L 86.6 67.3 L 88.8 58.4 L 89.63999996185302 54.2 L 72.0 54.2 L 72.0 50.2 L 90.43999996185303 50.2 L 90.7 48.9 L 92.4 38.8 L 93.67457628250122 30.27627115249634 L 90.2 30.7 L 85.9 31.0 L 77.2 31.0 L 77.0 29.2 L 81.1 27.9 L 85.0 26.4 L 88.8 24.9 L 92.4 23.4 L 95.9 21.9 L 99.3 20.3 L 102.5 18.7 L 105.6 16.9 L 108.5 15.1 L 110.43679485321044 13.854917621612548 L 110.4 13.8 L 110.4481554031372 13.84761438369751 L 111.3 13.3 L 112.9917236328125 16.362603187561035 L 119.3 22.6 L 119.4 25.9 L 115.63656806945801 24.369112396240233 L 113.5 25.2 L 109.9 26.5 L 106.1 27.7 L 102.3 28.7 L 101.90483875274658 28.779032230377197 L 105.8 30.1 L 108.5 32.5 L 105.02251310348511 33.916753959655765 L 103.6 40.9 L 101.43300971984863 50.2 L 106.9 50.2 L 116.9 40.2 L 128.9 50.2 L 128.9 54.2 L 106.82075471878052 54.2 L 108.6 58.3 L 110.8 63.4 L 113.0 68.2 L 115.2 72.9 L 117.6 77.5 L 120.2 81.8 L 122.9 86.0 L 125.7 89.9 L 128.7 93.7 L 131.9 97.4 L 132.2 97.8 L 121.6 105.6 L 118.5 101.0 Z " />
</g>
</svg>
