<svg xmlns="http://www.w3.org/2000/svg" xmlns:xlink="http://www.w3.org/1999/xlink" version="1.1" baseProfile="full" viewBox="0 0 200 200" width="200" height="200">
<g fill="black">
<path d="M 125.7 183.0 L 103.6 180.9 L 84.2 177.7 L 67.6 173.2 L 53.8 167.4 L 42.8 160.3 L 34.9 151.9 L 30.3 142.3 L 30.265223598480226 142.00150270462035 L 28.8 149.5 L 26.8 157.6 L 24.5 165.1 L 21.9 172.0 L 18.9 178.2 L 15.5 183.7 L 11.7 188.4 L 10.2 187.5 L 12.1 182.0 L 14.0 176.2 L 15.7 169.9 L 17.2 163.1 L 18.5 155.8 L 19.7 147.9 L 20.6 139.5 L 21.3 130.5 L 21.7 120.9 L 21.9 110.7 L 21.93026485443115 110.70126104354858 L 22.0 108.4 L 33.9 111.2 L 36.8 113.3 L 33.60346460342407 115.05496063232422 L 33.1 121.6 L 31.9 131.5 L 31.568412494659423 133.7026883125305 L 34.2 140.8 L 39.5 148.2 L 47.1 154.5 L 49.0 155.49611654281617 L 49.0 86.0 L 61.0 88.0 L 64.0 90.0 L 61.0 91.8 L 61.0 121.0 L 75.81818180084228 121.0 L 84.0 112.0 L 94.0 121.0 L 94.0 125.0 L 61.0 125.0 L 61.0 161.1 L 70.3 164.2 L 86.1 167.6 L 104.8 169.9 L 126.2 171.2 L 150.5 171.3 L 177.7 170.4 L 189.0 169.9 L 178.2 183.5 L 150.6 183.8 Z M 171.7 105.0 L 171.1 101.2 L 170.4 97.5 L 169.98525524139404 95.96544427871704 L 166.1 97.4 L 159.5 99.5 L 152.6 101.5 L 145.5 103.3 L 144.7 103.5 L 144.7 163.7 L 132.7 169.7 L 132.7 106.36933336257934 L 130.8 106.8 L 123.2 108.5 L 115.4 110.1 L 107.4 111.6 L 103.34837265014649 112.39056138992309 L 101.7 115.9 L 99.2 113.2 L 95.5 101.6 L 97.5 101.3 L 105.7 100.4 L 113.7 99.5 L 121.6 98.6 L 128.09676694869995 97.75626401901245 L 128.9 96.2 L 132.2 90.1 L 138.6 78.3 L 141.7 72.4 L 144.8 66.6 L 147.7 60.8 L 150.5 55.1 L 153.2 49.3 L 155.8 43.6 L 155.83999996185304 43.619999980926515 L 156.4 42.5 L 166.6 49.0 L 168.3 52.2 L 164.56238765716552 52.45776634216308 L 163.3 54.6 L 159.9 60.2 L 156.4 65.8 L 152.8 71.3 L 149.0 76.9 L 145.0 82.3 L 140.9 87.8 L 136.6 93.1 L 133.04064321517944 97.20099802017212 L 136.8 96.8 L 144.2 95.9 L 151.4 95.0 L 158.4 94.3 L 165.4 93.7 L 169.2717703819275 93.41531105041504 L 168.2 90.2 L 166.9 86.6 L 165.4 83.1 L 163.7 79.5 L 161.6 76.0 L 163.0 74.8 L 166.2 77.5 L 169.3 80.4 L 172.0 83.6 L 174.5 87.0 L 176.8 90.6 L 178.8 94.5 L 180.5 98.5 L 182.0 102.8 L 183.2 107.2 L 184.1 111.7 L 182.8 116.1 L 178.8 118.3 L 174.4 117.0 L 172.2 113.0 L 172.0 109.0 Z M 125.5 123.8 L 127.5 126.8 L 123.7 127.4 L 123.4 128.0 L 121.0 132.2 L 118.5 136.3 L 115.7 140.4 L 112.7 144.4 L 109.5 148.4 L 106.1 152.4 L 102.4 156.3 L 98.3 160.1 L 94.0 163.7 L 92.6 162.5 L 95.4 157.7 L 98.1 153.0 L 100.8 148.5 L 103.3 144.2 L 105.6 139.8 L 107.7 135.6 L 109.7 131.4 L 111.5 127.3 L 113.0 123.3 L 114.07660655975342 120.22398118972778 L 114.0 120.2 L 114.9 118.0 Z M 167.4 145.1 L 165.6 141.3 L 163.8 137.6 L 161.9 134.0 L 160.0 130.5 L 157.9 127.2 L 155.9 123.9 L 153.8 120.7 L 151.6 117.6 L 152.8 116.2 L 156.1 118.4 L 159.4 120.7 L 162.6 123.3 L 165.6 126.2 L 168.5 129.3 L 171.3 132.7 L 174.0 136.2 L 176.7 140.0 L 179.2 144.0 L 181.6 148.1 L 181.8 152.7 L 178.7 156.1 L 174.2 156.3 L 170.8 153.2 L 169.1 149.1 Z M 119.4 76.2 L 118.2 73.2 L 116.9 70.5 L 115.5 67.9 L 113.9 65.5 L 112.2 63.2 L 110.2 61.0 L 108.1 58.9 L 105.6 57.3 L 106.3 55.6 L 109.4 56.5 L 112.6 57.5 L 115.6 58.9 L 118.5 60.7 L 119.28456373214722 61.31644296646118 L 120.2 59.6 L 121.5 56.5 L 122.9 53.4 L 124.3 50.4 L 125.6 47.3 L 128.2 41.3 L 129.5 38.2 L 130.7 35.2 L 130.94710426330568 34.5616473197937 L 130.2 34.7 L 121.9 36.1 L 113.5 37.4 L 104.8 38.4 L 96.0 39.2 L 95.7 37.5 L 104.1 34.7 L 112.3 32.1 L 120.5 29.7 L 128.5 27.3 L 136.3 25.0 L 144.0 22.7 L 151.6 20.4 L 159.0 18.1 L 166.2 15.7 L 172.30817584991456 13.721295166015626 L 172.3 13.7 L 172.32060947418213 13.717267322540284 L 173.3 13.4 L 173.72985763549804 14.897988891601562 L 183.4 23.0 L 183.7 26.0 L 179.51317739486694 24.086023998260497 L 176.6 24.9 L 169.3 26.7 L 161.8 28.4 L 154.1 30.1 L 146.3 31.7 L 138.3 33.2 L 136.35628271102905 33.559947681427005 L 142.6 37.6 L 144.3 40.7 L 140.2580310821533 40.978756523132326 L 138.6 43.3 L 136.5 46.1 L 134.4 48.8 L 132.2 51.5 L 129.9 54.1 L 127.5 56.6 L 125.1 59.0 L 122.5 61.3 L 121.04337148666382 62.698363304138184 L 121.3 62.9 L 123.9 65.4 L 126.4 68.3 L 128.6 71.4 L 130.7 74.9 L 132.6 78.6 L 132.3 83.2 L 129.0 86.3 L 124.4 86.0 L 121.3 82.7 L 120.4 79.3 Z M 14.0 82.0 L 49.0 82.0 L 49.0 50.0 L 17.0 50.0 L 17.0 46.0 L 49.0 46.0 L 49.0 12.0 L 61.0 14.0 L 64.0 16.0 L 61.0 17.8 L 61.0 46.0 L 71.0 46.0 L 81.0 36.0 L 93.0 46.0 L 93.0 50.0 L 61.0 50.0 L 61.0 82.0 L 73.0 82.0 L 83.0 72.0 L 95.0 82.0 L 95.0 86.0 L 14.0 86.0 Z " />
</g>
</svg>
