<svg xmlns="http://www.w3.org/2000/svg" xmlns:xlink="http://www.w3.org/1999/xlink" version="1.1" baseProfile="full" viewBox="0 0 200 200" width="200" height="200">
<g fill="black">
<path d="M 118.9 183.2 L 95.8 181.2 L 76.5 177.9 L 60.6 173.0 L 47.9 166.3 L 39.569411754608154 159.0 L 39.0 159.0 L 39.0 158.50103092193604 L 38.2 157.8 L 31.4 147.6 L 27.3934757232666 136.1527876853943 L 26.3 145.0 L 24.9 153.5 L 23.2 161.6 L 21.2 169.3 L 18.8 176.4 L 16.0 183.1 L 12.8 189.3 L 11.1 188.6 L 12.4 182.0 L 13.6 175.1 L 14.8 167.8 L 15.7 160.3 L 16.5 152.4 L 17.1 144.1 L 17.4 135.4 L 17.5 126.4 L 17.3 116.9 L 17.030511093139648 108.09669466018677 L 17.0 108.1 L 16.9 104.7 L 29.0 106.8 L 32.0 108.8 L 28.88318042755127 110.77186546325683 L 28.7 117.0 L 28.258035755157472 125.57410717010498 L 31.2 134.4 L 36.5 144.6 L 39.0 147.5710144996643 L 39.0 84.0 L 13.0 84.0 L 13.0 80.0 L 38.0 80.0 L 38.0 49.0 L 15.0 49.0 L 15.0 45.0 L 38.0 45.0 L 38.0 13.0 L 50.0 15.0 L 53.0 17.0 L 50.0 18.8 L 50.0 45.0 L 52.81818180084228 45.0 L 61.0 36.0 L 71.0 45.0 L 71.0 49.0 L 50.0 49.0 L 50.0 80.0 L 53.81818180084228 80.0 L 62.0 71.0 L 72.0 80.0 L 72.0 84.0 L 51.0 84.0 L 51.0 119.0 L 56.7777777671814 119.0 L 63.0 112.0 L 71.0 119.0 L 71.0 123.0 L 51.0 123.0 L 51.0 158.26516857147217 L 52.3 159.2 L 63.8 164.2 L 78.6 167.8 L 96.9 170.2 L 119.4 171.4 L 146.2 171.4 L 177.7 170.4 L 189.1 170.0 L 178.2 183.5 L 146.2 183.9 Z M 169.3 118.5 L 169.3 93.5 L 144.3 93.5 L 144.3 110.8 L 143.775 118.5 Z M 92.6 62.7 L 112.6 62.7 L 118.1 57.7 L 128.6 66.7 L 123.6 70.2 L 123.6 135.4 L 112.6 140.9 L 112.6 131.4 L 92.6 131.4 L 92.6 143.4 L 80.6 149.4 L 80.6 56.7 Z M 92.6 98.1 L 92.6 127.4 L 112.6 127.4 L 112.6 98.1 Z M 92.6 66.7 L 92.6 94.1 L 112.6 94.1 L 112.6 66.7 Z M 144.3 64.5 L 144.3 89.5 L 169.3 89.5 L 169.3 64.5 Z M 154.2 15.5 L 157.2 17.5 L 154.2 19.3 L 154.2 32.0 L 163.7 32.0 L 173.7 22.0 L 185.7 32.0 L 185.7 36.0 L 154.2 36.0 L 154.2 49.9 L 142.2 55.9 L 142.2 36.0 L 118.7 36.0 L 118.7 49.9 L 106.7 55.9 L 106.7 36.0 L 75.2 36.0 L 75.2 32.0 L 106.7 32.0 L 106.7 13.5 L 118.7 15.5 L 121.7 17.5 L 118.7 19.3 L 118.7 32.0 L 142.2 32.0 L 142.2 13.5 Z M 180.8 156.1 L 180.0 158.5 L 178.7 160.7 L 177.1 162.8 L 175.1 164.4 L 172.8 165.6 L 170.4 166.4 L 167.9 166.9 L 165.3 167.0 L 165.3 161.0 L 145.3 158.0 L 145.3 155.0 L 165.3 155.0 L 166.6 154.9 L 167.5 154.8 L 168.1 154.6 L 168.4 154.4 L 168.6 154.3 L 168.9 153.7 L 169.1 153.2 L 169.3 152.2 L 169.3 122.5 L 143.2048780441284 122.5 L 142.3 127.8 L 140.3 135.3 L 137.5 142.1 L 133.9 148.2 L 129.7 153.5 L 124.8 157.9 L 119.2 161.5 L 113.0 164.1 L 106.3 165.7 L 105.8 164.1 L 111.6 160.9 L 116.5 157.4 L 120.8 153.4 L 124.3 149.1 L 127.3 144.2 L 129.6 138.8 L 131.4 132.8 L 132.6 126.1 L 133.3 118.8 L 133.3 55.0 L 144.3 60.5 L 169.3 60.5 L 175.3 55.5 L 186.3 64.5 L 181.3 68.5 L 181.3 151.0 L 181.2 153.6 Z " />
</g>
</svg>
