<svg xmlns="http://www.w3.org/2000/svg" xmlns:xlink="http://www.w3.org/1999/xlink" version="1.1" baseProfile="full" viewBox="0 0 200 200" width="200" height="200">
<g fill="black">
<path d="M 124.0 176.0 L 144.0 176.0 L 145.2 175.9 L 146.1 175.7 L 147.0 175.4 L 147.4 175.0 L 147.7 174.1 L 147.9 173.2 L 148.0 172.0 L 148.0 137.0 L 100.88125 137.0 L 103.4 138.3 L 106.7 139.7 L 109.7 141.3 L 112.5 143.0 L 115.1 144.8 L 117.5 146.7 L 119.7 148.8 L 121.8 151.0 L 123.6 153.3 L 125.3 155.8 L 125.3 160.4 L 122.1 163.7 L 117.6 163.7 L 114.3 160.6 L 113.8 158.6 L 113.1 156.5 L 112.1 154.4 L 111.0 152.2 L 109.7 150.0 L 108.1 147.7 L 106.2 145.4 L 104.2 143.0 L 102.0 140.5 L 99.3 138.2 L 100.1 137.0 L 83.0 137.0 L 83.0 133.0 L 148.0 133.0 L 148.0 114.0 L 160.0 116.0 L 163.0 118.0 L 160.0 119.8 L 160.0 133.0 L 166.0 133.0 L 176.0 123.0 L 188.0 133.0 L 188.0 137.0 L 160.0 137.0 L 160.0 172.0 L 159.8 174.5 L 159.4 177.0 L 158.6 179.4 L 157.3 181.7 L 155.7 183.7 L 153.7 185.3 L 151.4 186.6 L 149.0 187.4 L 146.5 187.8 L 144.0 188.0 L 144.0 182.0 L 124.0 179.0 Z M 13.4 168.9 L 19.4 167.3545454978943 L 19.4 101.0 L 30.4 103.0 L 33.2 105.0 L 30.4 106.75 L 30.4 164.36000003814698 L 39.5 161.7 L 42.4 160.80769233703614 L 42.4 80.0 L 30.9 80.0 L 30.9 83.0 L 18.9 89.0 L 18.9 22.0 L 30.9 28.0 L 62.5 28.0 L 68.5 23.0 L 79.5 32.0 L 74.5 36.0 L 74.5 86.0 L 62.5 92.0 L 62.5 80.0 L 53.4 80.0 L 53.4 117.0 L 63.477777767181394 117.0 L 69.7 110.0 L 77.7 117.0 L 77.7 121.0 L 53.4 121.0 L 53.4 157.2953845977783 L 59.0 155.4 L 65.5 153.3 L 72.1 151.2 L 78.8 149.1 L 79.6 150.8 L 73.7 154.6 L 67.7 158.2 L 61.6 161.5 L 55.3 164.6 L 49.0 167.6 L 42.7 170.4 L 36.3 173.1 L 29.9 175.7 L 23.4 178.1 L 20.769942188262938 179.03063583374023 L 19.6 182.7 L 16.9 180.4 L 11.5 169.5 Z M 163.2 111.9 L 157.9 107.7 L 153.1 103.1 L 148.8 98.0 L 145.0 92.6 L 141.9 86.8 L 139.3 80.6 L 137.4 74.1 L 136.66086959838867 69.0 L 126.0 69.0 L 126.0 107.23333330154419 L 127.2 106.9 L 133.1 105.4 L 139.6 103.8 L 146.6 102.1 L 147.3 103.8 L 140.8 107.1 L 134.9 110.2 L 129.4 112.9 L 124.4 115.3 L 119.9 117.5 L 115.9 119.5 L 112.4 121.2 L 109.5 122.7 L 108.99525318145751 122.9624683380127 L 108.1 127.2 L 105.1 125.1 L 98.8 114.8 L 100.7 114.0 L 102.9 113.5 L 105.6 112.8 L 108.9 111.9 L 112.7 110.9 L 114.0 110.53720932006836 L 114.0 69.0 L 103.72602739334107 69.0 L 103.5 72.3 L 102.7 79.5 L 101.6 86.5 L 100.1 93.3 L 98.3 99.9 L 96.2 106.3 L 93.7 112.5 L 90.8 118.4 L 87.5 124.1 L 83.7 129.4 L 82.2 128.5 L 84.1 122.5 L 85.9 116.4 L 87.5 110.4 L 88.9 104.2 L 90.1 98.0 L 91.0 91.6 L 91.6 85.2 L 92.0 78.6 L 92.1 71.8 L 92.0 65.0 L 92.0 18.0 L 104.0 24.0 L 157.0 24.0 L 167.0 14.0 L 179.0 24.0 L 179.0 28.0 L 104.0 28.0 L 104.0 65.0 L 163.0 65.0 L 173.0 55.0 L 185.0 65.0 L 185.0 69.0 L 168.74390239715575 69.0 L 176.9 76.6 L 177.9 80.0 L 173.82412176132203 79.35644025802613 L 172.5 80.5 L 170.2 82.5 L 167.9 84.3 L 165.6 86.2 L 163.2 88.0 L 160.8 89.7 L 158.4 91.3 L 156.5044303894043 92.4373417854309 L 160.0 95.6 L 164.6 99.0 L 169.6 102.0 L 174.9 104.6 L 180.5 106.9 L 186.8 109.5 L 175.4 119.0 L 169.1 115.7 Z M 139.34745759963988 69.0 L 141.3 72.6 L 144.6 78.0 L 148.1 83.1 L 151.8 87.7 L 154.38823528289794 90.35294113159179 L 155.5 88.5 L 156.9 86.0 L 158.5 83.5 L 161.5 78.7 L 163.1 76.2 L 164.6 73.8 L 166.2 71.3 L 167.2123456954956 69.680246925354 L 167.1 69.6 L 167.6 69.0 Z M 30.9 32.0 L 30.9 76.0 L 62.5 76.0 L 62.5 32.0 Z M 173.0 45.0 L 173.0 49.0 L 109.0 49.0 L 109.0 45.0 L 154.8181818008423 45.0 L 163.0 36.0 Z " />
</g>
</svg>
