<svg xmlns="http://www.w3.org/2000/svg" xmlns:xlink="http://www.w3.org/1999/xlink" version="1.1" baseProfile="full" viewBox="0 0 200 200" width="200" height="200">
<g fill="black">
<path d="M 188.7 27.0 L 188.7 31.0 L 146.1 31.0 L 146.1 61.0 L 166.9 61.0 L 172.9 56.0 L 183.9 65.0 L 178.9 69.0 L 178.9 176.0 L 166.9 182.0 L 166.9 170.0 L 100.4 170.0 L 100.4 182.0 L 88.4 188.0 L 88.4 55.0 L 100.4 61.0 L 115.3 61.0 L 115.3 31.0 L 79.2 31.0 L 79.2 27.0 L 166.7 27.0 L 176.7 17.0 Z M 14.2 168.9 L 20.0 167.359375 L 20.0 101.0 L 31.0 103.0 L 33.7 105.0 L 31.0 106.72340421676635 L 31.0 164.29365081787108 L 33.3 163.6 L 39.7 161.7 L 42.5 160.825 L 42.5 80.0 L 31.5 80.0 L 31.5 83.0 L 19.5 89.0 L 19.5 22.0 L 31.5 28.0 L 62.2 28.0 L 68.2 23.0 L 79.2 32.0 L 74.2 36.0 L 74.2 86.0 L 62.2 92.0 L 62.2 80.0 L 53.5 80.0 L 53.5 117.0 L 62.977777767181394 117.0 L 69.2 110.0 L 77.2 117.0 L 77.2 121.0 L 53.5 121.0 L 53.5 157.2390625 L 58.8 155.5 L 65.2 153.3 L 71.7 151.2 L 78.3 149.1 L 79.1 150.8 L 73.3 154.6 L 67.4 158.2 L 61.4 161.5 L 55.3 164.6 L 49.2 167.6 L 43.0 170.4 L 36.7 173.1 L 30.4 175.6 L 24.0 178.1 L 21.52982454299927 178.98771934509278 L 20.4 182.7 L 17.6 180.4 L 12.3 169.5 Z M 100.4 145.0 L 100.4 166.0 L 166.9 166.0 L 166.9 145.0 Z M 161.7 91.5 L 163.7 91.5 L 161.7 112.5 L 165.0 114.7 L 166.9 117.55 L 166.9 65.0 L 146.1 65.0 L 146.1 109.2 L 146.3 110.2 L 146.5 110.9 L 146.7 111.3 L 146.9 111.6 L 147.2 111.8 L 147.6 112.0 L 148.3 112.2 L 149.3 112.4 L 150.6 112.5 L 156.2 112.5 Z M 100.4 65.0 L 100.4 127.5945945739746 L 102.3 125.9 L 105.4 122.1 L 108.1 117.7 L 110.4 112.5 L 112.3 106.5 L 113.7 99.6 L 114.8 91.9 L 115.4 83.2 L 115.6 73.6 L 115.3542857170105 65.0 Z M 31.5 32.0 L 31.5 76.0 L 62.2 76.0 L 62.2 32.0 Z M 126.3 31.0 L 126.3 61.0 L 135.1 61.0 L 135.1 31.0 Z M 148.0 123.3 L 145.6 122.9 L 143.3 122.1 L 141.1 120.9 L 139.2 119.3 L 137.6 117.4 L 136.4 115.2 L 135.6 112.9 L 135.2 110.5 L 135.1 108.0 L 135.1 65.0 L 126.16000003814698 65.0 L 126.0 73.8 L 125.2 83.9 L 123.9 93.1 L 122.1 101.5 L 119.7 108.9 L 116.7 115.4 L 113.2 120.9 L 109.1 125.4 L 104.4 128.7 L 100.4 130.26862745285035 L 100.4 141.0 L 166.9 141.0 L 166.9 118.45 L 165.0 121.3 L 161.7 123.5 L 150.6 123.5 Z " />
</g>
</svg>
