<svg xmlns="http://www.w3.org/2000/svg" xmlns:xlink="http://www.w3.org/1999/xlink" version="1.1" baseProfile="full" viewBox="0 0 200 200" width="200" height="200">
<g fill="black">
<path d="M 100.5 22.8 L 164.8 22.8 L 170.8 17.8 L 181.8 26.8 L 176.8 30.8 L 176.8 55.7 L 164.8 61.7 L 164.8 55.7 L 100.5 55.7 L 100.5 102.4 L 99.9 114.0 L 98.5 124.9 L 96.5 135.2 L 93.7 144.9 L 90.2 153.9 L 86.0 162.2 L 81.0 169.8 L 75.4 176.6 L 69.0 182.6 L 61.8 187.7 L 60.8 186.4 L 66.5 180.1 L 71.6 173.5 L 76.0 166.5 L 79.8 159.0 L 83.0 151.0 L 85.5 142.5 L 87.5 133.3 L 88.8 123.6 L 89.5 113.3 L 89.5 17.3 Z M 149.4 126.3 L 149.4 94.5 L 130.2 94.5 L 130.2 120.3 L 129.851162815094 126.3 Z M 14.8 168.9 L 21.0 167.32686567306519 L 21.0 101.0 L 32.0 103.0 L 34.8 105.0 L 32.0 106.75 L 32.0 164.42238807678223 L 34.9 163.6 L 41.5 161.7 L 44.6 160.77462682723998 L 44.6 80.0 L 32.5 80.0 L 32.5 83.0 L 20.5 89.0 L 20.5 22.0 L 32.5 28.0 L 65.7 28.0 L 71.2 23.0 L 81.7 32.0 L 76.7 35.5 L 76.7 86.0 L 65.7 91.5 L 65.7 80.0 L 55.6 80.0 L 55.6 117.0 L 66.4777777671814 117.0 L 72.7 110.0 L 80.7 117.0 L 80.7 121.0 L 55.6 121.0 L 55.6 157.36666669845582 L 61.5 155.4 L 68.2 153.3 L 75.0 151.2 L 81.9 149.1 L 82.6 150.8 L 76.6 154.6 L 70.4 158.2 L 64.0 161.5 L 57.7 164.6 L 51.2 167.6 L 44.7 170.4 L 38.1 173.1 L 31.5 175.7 L 24.8 178.1 L 22.10340051651001 179.02569828033447 L 20.9 182.8 L 18.1 180.4 L 12.9 169.5 Z M 32.5 32.0 L 32.5 76.0 L 65.7 76.0 L 65.7 32.0 Z M 100.5 26.8 L 100.5 51.7 L 164.8 51.7 L 164.8 26.8 Z M 121.5 83.0 L 120.8 80.7 L 120.0 78.4 L 119.0 75.9 L 117.8 73.4 L 116.4 70.9 L 114.9 68.2 L 113.3 65.5 L 111.1 63.0 L 112.4 61.6 L 115.1 63.7 L 117.9 65.5 L 120.5 67.4 L 122.9 69.5 L 125.2 71.6 L 127.2 73.9 L 129.1 76.2 L 130.9 78.7 L 132.4 81.2 L 133.8 83.8 L 133.3 88.4 L 130.91999998092652 90.5 L 145.8 90.5 L 146.6 88.5 L 147.8 84.9 L 149.0 81.5 L 150.3 78.2 L 151.5 75.1 L 152.7 72.1 L 153.9 69.2 L 155.1 66.4 L 156.3 63.8 L 157.00158004760743 62.20549983978272 L 156.8 62.1 L 157.9 60.5 L 167.5 67.7 L 169.0 71.0 L 164.85335369110106 70.85701217651368 L 164.0 71.9 L 162.1 74.1 L 160.2 76.5 L 158.1 79.0 L 156.0 81.6 L 153.8 84.2 L 151.5 87.0 L 149.0 89.8 L 148.50322580337524 90.5 L 158.0 90.5 L 168.0 80.5 L 180.0 90.5 L 180.0 94.5 L 161.4 94.5 L 161.4 126.3 L 166.51818180084229 126.3 L 174.7 117.3 L 184.7 126.3 L 184.7 130.3 L 161.4 130.3 L 161.4 180.0 L 149.4 186.0 L 149.4 130.3 L 129.509876537323 130.3 L 128.6 137.0 L 126.9 144.8 L 124.8 152.2 L 122.1 159.1 L 118.8 165.7 L 115.0 171.7 L 110.7 177.3 L 105.8 182.3 L 100.3 186.7 L 99.0 185.4 L 102.9 179.8 L 106.3 174.2 L 109.4 168.4 L 112.0 162.4 L 114.1 156.2 L 115.8 149.6 L 117.1 142.8 L 117.9 135.7 L 118.18800001144409 130.3 L 100.6 130.3 L 100.6 126.3 L 118.27594938278199 126.3 L 118.2 120.3 L 118.2 94.5 L 104.4 94.5 L 104.4 90.5 L 124.9470588684082 90.5 L 122.3 87.5 L 122.0 85.3 Z " />
</g>
</svg>
