<svg xmlns="http://www.w3.org/2000/svg" xmlns:xlink="http://www.w3.org/1999/xlink" version="1.1" baseProfile="full" viewBox="0 0 200 200" width="200" height="200">
<g fill="black">
<path d="M 181.8 30.1 L 181.8 34.1 L 98.5 34.1 L 98.5 169.0 L 165.5 169.0 L 175.5 159.0 L 187.5 169.0 L 187.5 173.0 L 98.5 173.0 L 98.5 180.0 L 86.5 186.0 L 86.5 24.1 L 98.5 30.1 L 159.8 30.1 L 169.8 20.1 Z M 14.2 168.9 L 20.0 167.359375 L 20.0 101.0 L 31.0 103.0 L 33.7 105.0 L 31.0 106.72340421676635 L 31.0 164.29365081787108 L 33.3 163.6 L 39.7 161.7 L 42.5 160.825 L 42.5 80.0 L 31.5 80.0 L 31.5 83.0 L 19.5 89.0 L 19.5 22.0 L 31.5 28.0 L 62.2 28.0 L 68.2 23.0 L 79.2 32.0 L 74.2 36.0 L 74.2 86.0 L 62.2 92.0 L 62.2 80.0 L 53.5 80.0 L 53.5 117.0 L 62.977777767181394 117.0 L 69.2 110.0 L 77.2 117.0 L 77.2 121.0 L 53.5 121.0 L 53.5 157.2390625 L 58.8 155.5 L 65.2 153.3 L 71.7 151.2 L 78.3 149.1 L 79.1 150.8 L 73.3 154.6 L 67.4 158.2 L 61.4 161.5 L 55.3 164.6 L 49.2 167.6 L 43.0 170.4 L 36.7 173.1 L 30.4 175.6 L 24.0 178.1 L 21.52982454299927 178.98771934509278 L 20.4 182.7 L 17.6 180.4 L 12.3 169.5 Z M 102.6 148.0 L 132.4 148.0 L 132.4 105.7 L 110.5 105.7 L 110.5 101.7 L 132.4 101.7 L 132.4 59.9 L 106.8 59.9 L 106.8 55.9 L 148.0 55.9 L 158.0 45.9 L 170.0 55.9 L 170.0 59.9 L 144.4 59.9 L 144.4 101.7 L 148.01818180084229 101.7 L 156.2 92.7 L 166.2 101.7 L 166.2 105.7 L 144.4 105.7 L 144.4 148.0 L 152.1 148.0 L 162.1 138.0 L 174.1 148.0 L 174.1 152.0 L 102.6 152.0 Z M 31.5 32.0 L 31.5 76.0 L 62.2 76.0 L 62.2 32.0 Z " />
</g>
</svg>
