<svg xmlns="http://www.w3.org/2000/svg" xmlns:xlink="http://www.w3.org/1999/xlink" version="1.1" baseProfile="full" viewBox="0 0 200 200" width="200" height="200">
<g fill="black">
<path d="M 140.3 183.5 L 128.3 189.5 L 128.3 102.375 L 125.6 105.6 L 121.8 109.5 L 117.8 113.2 L 116.4 112.0 L 121.2 102.6 L 123.6 97.8 L 125.9 92.9 L 128.1 87.9 L 128.3 87.41428575515747 L 128.3 83.5 L 129.63658533096313 84.16829271316529 L 130.2 82.8 L 132.2 77.5 L 134.1 72.1 L 135.8 66.5 L 137.233833694458 61.60809698104858 L 137.2 61.6 L 138.0 59.2 L 148.9 64.4 L 151.1 67.2 L 147.48727149963378 68.0239556312561 L 146.6 70.3 L 144.1 76.0 L 141.4 81.5 L 138.6 86.8 L 137.74615383148193 88.22307691574096 L 140.3 89.5 L 155.19090909957885 89.5 L 155.9 87.7 L 156.8 84.3 L 157.8 81.1 L 158.7 78.0 L 159.6 75.0 L 160.5 72.2 L 161.3 69.5 L 162.7 64.5 L 163.10378141403197 63.17328977584839 L 162.9 63.1 L 163.9 61.0 L 174.3 67.2 L 176.2 70.2 L 171.86114435195924 70.72365503311157 L 171.4 71.4 L 168.2 76.0 L 164.6 81.0 L 162.6 83.6 L 160.5 86.2 L 158.2 88.9 L 157.8 89.5 L 164.4 89.5 L 174.4 79.5 L 186.4 89.5 L 186.4 93.5 L 164.7 93.5 L 164.7 115.7 L 166.9181818008423 115.7 L 175.1 106.7 L 185.1 115.7 L 185.1 119.7 L 164.7 119.7 L 164.7 142.6 L 166.9181818008423 142.6 L 175.1 133.6 L 185.1 142.6 L 185.1 146.6 L 164.7 146.6 L 164.7 172.5 L 167.0 172.5 L 177.0 162.5 L 189.0 172.5 L 189.0 176.5 L 140.3 176.5 Z M 111.80956172943115 125.77968130111694 L 108.6 127.3 L 104.8 128.9 L 104.6 128.97692308425903 L 104.6 181.7 L 92.6 187.7 L 92.6 146.60961542129516 L 91.11698999404908 147.32260093688964 L 91.1 147.4 L 90.0 151.4 L 88.8 155.4 L 87.3 159.3 L 85.7 163.1 L 83.9 166.8 L 81.8 170.5 L 79.5 174.0 L 77.0 177.4 L 74.4 180.8 L 72.8 179.9 L 74.2 176.0 L 75.3 172.0 L 76.3 168.2 L 77.3 164.3 L 78.1 160.6 L 78.8 156.9 L 79.3 153.1 L 79.7 149.5 L 79.9 145.8 L 79.97294034957886 143.1012056350708 L 79.9 143.1 L 80.2 140.0 L 92.0 143.3 L 92.6 143.81111106872558 L 92.6 133.18999996185303 L 88.9 134.3 L 84.8 135.4 L 80.56008262634278 136.40950412750243 L 78.8 140.1 L 76.4 137.4 L 72.8 125.7 L 74.8 125.5 L 78.9 125.2 L 83.0 125.0 L 85.1213457107544 124.79303941726684 L 85.8 123.3 L 88.5 117.9 L 94.1 107.3 L 95.56611394882202 104.42207250595092 L 92.3 107.4 L 87.7 107.1 L 84.6 103.8 L 84.3 101.7 L 83.8 99.6 L 83.1 97.5 L 82.3 95.5 L 81.4 93.4 L 80.3 91.4 L 79.0 89.3 L 77.6 87.2 L 76.0 85.0 L 73.9 83.3 L 74.9 81.8 L 77.4 83.1 L 80.0 84.2 L 82.5 85.5 L 84.8 87.0 L 84.86311740875244 87.04665203094483 L 85.1 86.5 L 86.2 83.3 L 87.3 80.2 L 88.4 77.2 L 89.5 74.1 L 92.8 65.1 L 93.8 62.2 L 94.48897638320923 60.13307085037231 L 94.4 60.1 L 94.73333330154419 59.4 L 94.8 59.2 L 94.82336549758911 59.210932445526126 L 95.4 58.0 L 105.7 64.3 L 107.5 67.4 L 103.43693933486938 67.82031660079956 L 102.1 69.9 L 100.2 72.6 L 98.2 75.2 L 96.2 77.9 L 94.2 80.5 L 92.0 83.1 L 89.8 85.6 L 87.4 88.0 L 86.92231760025024 88.5686695098877 L 87.1 88.7 L 89.1 90.6 L 91.1 92.6 L 92.9 94.8 L 94.5 97.2 L 95.9 99.7 L 95.70669012069702 104.14612674713135 L 96.8 102.0 L 99.6 96.8 L 102.2 91.5 L 104.9 86.2 L 109.64800109863282 76.52138233184814 L 109.6 76.5 L 110.6 74.6 L 120.6 81.4 L 122.3 84.5 L 118.53263454437256 84.6948637008667 L 117.4 86.5 L 114.2 91.5 L 110.9 96.6 L 107.5 101.5 L 104.0 106.5 L 100.5 111.3 L 96.8 116.2 L 93.0 120.9 L 89.89275360107422 124.39565219879151 L 91.2 124.3 L 95.3 123.9 L 99.3 123.5 L 103.4 123.1 L 107.4 122.7 L 111.08263473510742 122.43053894042968 L 110.7 120.9 L 110.1 118.6 L 108.5 114.0 L 106.5 109.4 L 105.0 107.4 L 106.2 106.1 L 108.2 107.7 L 110.5 109.2 L 112.7 110.9 L 114.7 112.8 L 116.6 115.0 L 118.3 117.2 L 119.9 119.7 L 121.4 122.3 L 122.8 125.0 L 124.0 127.9 L 123.3 132.4 L 119.7 135.2 L 115.1 134.4 L 112.4 130.8 L 112.1 128.2 Z M 13.8 168.9 L 18.7 167.52456140518188 L 18.7 101.0 L 29.7 103.0 L 32.5 105.0 L 29.7 106.75 L 29.7 164.11052627563475 L 31.0 163.7 L 36.7 161.7 L 39.0 160.90689659118652 L 39.0 80.0 L 30.2 80.0 L 30.2 83.0 L 18.2 89.0 L 18.2 22.0 L 30.2 28.0 L 57.2 28.0 L 62.7 23.0 L 73.2 32.0 L 68.2 35.5 L 68.2 86.0 L 57.2 91.5 L 57.2 80.0 L 50.0 80.0 L 50.0 117.0 L 56.577777767181395 117.0 L 62.8 110.0 L 70.8 117.0 L 70.8 121.0 L 50.0 121.0 L 50.0 156.94827585220338 L 54.0 155.5 L 59.8 153.3 L 65.7 151.2 L 71.7 149.2 L 72.6 150.7 L 67.5 154.6 L 62.2 158.1 L 56.8 161.4 L 51.4 164.5 L 45.9 167.5 L 40.3 170.3 L 34.7 173.0 L 29.0 175.6 L 23.3 178.0 L 21.482608699798583 178.73333330154418 L 20.5 182.5 L 17.6 180.3 L 11.9 169.6 Z M 140.3 146.6 L 140.3 172.5 L 152.7 172.5 L 152.7 146.6 Z M 111.4 159.2 L 111.0 156.5 L 110.5 153.9 L 110.0 151.4 L 109.3 148.9 L 108.5 146.4 L 107.7 144.0 L 106.8 141.6 L 105.4 139.4 L 106.7 138.2 L 108.7 140.0 L 110.9 141.7 L 113.0 143.6 L 114.9 145.8 L 116.7 148.1 L 118.4 150.7 L 119.9 153.4 L 121.3 156.2 L 122.6 159.2 L 123.7 162.4 L 122.8 166.9 L 119.0 169.5 L 114.5 168.5 L 111.9 164.7 L 111.7 161.9 Z M 140.3 119.7 L 140.3 142.6 L 152.7 142.6 L 152.7 119.7 Z M 140.3 93.5 L 140.3 115.7 L 152.7 115.7 L 152.7 93.5 Z M 30.2 32.0 L 30.2 76.0 L 57.2 76.0 L 57.2 32.0 Z M 90.9 57.5 L 79.9 63.0 L 79.9 12.7 L 90.9 18.2 L 170.5 18.2 L 176.5 13.2 L 187.5 22.2 L 182.5 26.2 L 182.5 54.5 L 170.5 60.5 L 170.5 54.5 L 90.9 54.5 Z M 90.9 22.2 L 90.9 50.5 L 109.8 50.5 L 109.8 22.2 Z M 121.8 22.2 L 121.8 50.5 L 140.1 50.5 L 140.1 22.2 Z M 152.1 22.2 L 152.1 50.5 L 170.5 50.5 L 170.5 22.2 Z " />
</g>
</svg>
