<svg xmlns="http://www.w3.org/2000/svg" xmlns:xlink="http://www.w3.org/1999/xlink" version="1.1" baseProfile="full" viewBox="0 0 200 200" width="200" height="200">
<g fill="black">
<path d="M 115.4 183.8 L 112.9 183.3 L 110.5 182.5 L 108.2 181.3 L 106.2 179.7 L 104.6 177.6 L 103.3 175.4 L 102.5 173.0 L 102.1 170.5 L 102.0 167.9 L 102.0 128.0 L 114.0 130.0 L 117.0 132.0 L 114.0 133.8 L 114.0 169.1 L 114.2 170.1 L 114.4 170.6 L 114.7 171.2 L 114.9 171.3 L 115.2 171.5 L 115.8 171.7 L 116.7 171.8 L 118.0 171.9 L 154.3 171.9 L 160.3 146.9 L 162.3 146.9 L 160.3 171.9 L 163.9 174.3 L 166.3 177.9 L 163.9 181.5 L 160.3 183.9 L 118.0 183.9 Z M 13.9 168.9 L 19.5 167.4777777671814 L 19.5 101.0 L 30.5 103.0 L 33.3 105.0 L 30.5 106.75 L 30.5 164.26349210739136 L 32.7 163.6 L 38.9 161.7 L 41.6 160.842857170105 L 41.6 80.0 L 31.0 80.0 L 31.0 83.0 L 19.0 89.0 L 19.0 22.0 L 31.0 28.0 L 60.9 28.0 L 66.9 23.0 L 77.9 32.0 L 72.9 36.0 L 72.9 86.0 L 60.9 92.0 L 60.9 80.0 L 52.6 80.0 L 52.6 117.0 L 61.477777767181394 117.0 L 67.7 110.0 L 75.7 117.0 L 75.7 121.0 L 52.6 121.0 L 52.6 157.2 L 57.7 155.5 L 64.0 153.3 L 70.3 151.2 L 76.8 149.1 L 77.6 150.8 L 72.0 154.6 L 66.2 158.2 L 60.3 161.5 L 54.3 164.6 L 48.3 167.6 L 42.2 170.4 L 36.1 173.1 L 23.7 178.1 L 21.319251346588135 178.96916217803954 L 20.2 182.7 L 17.4 180.4 L 12.0 169.5 Z M 74.8 176.2 L 73.1 171.9 L 74.9 167.7 L 76.6 166.2 L 78.3 164.3 L 80.0 161.8 L 81.5 158.7 L 83.0 155.1 L 84.3 150.9 L 85.5 146.2 L 86.5 141.0 L 87.5 135.3 L 88.3 129.0 L 90.1 129.0 L 90.9 135.3 L 91.5 141.3 L 91.7 146.9 L 91.5 152.1 L 91.0 157.0 L 90.2 161.5 L 89.0 165.7 L 87.5 169.6 L 85.6 173.1 L 83.2 176.3 L 79.0 177.9 Z M 173.4 159.7 L 172.6 156.0 L 171.5 152.3 L 170.3 148.7 L 168.8 145.2 L 167.2 141.7 L 163.4 134.7 L 161.1 131.3 L 162.3 130.0 L 165.7 132.5 L 169.1 135.3 L 172.1 138.3 L 174.8 141.5 L 177.4 145.0 L 179.7 148.7 L 181.7 152.5 L 183.5 156.6 L 185.1 160.8 L 186.4 165.2 L 185.4 169.7 L 181.6 172.2 L 177.1 171.2 L 174.6 167.4 L 174.1 163.5 Z M 133.2 145.2 L 132.2 142.3 L 131.1 139.5 L 129.9 136.9 L 127.1 131.7 L 125.5 129.2 L 123.8 126.7 L 121.8 124.5 L 122.9 123.1 L 125.6 124.6 L 128.4 126.2 L 131.1 128.0 L 133.6 130.1 L 136.1 132.4 L 138.4 134.9 L 140.5 137.7 L 142.5 140.6 L 144.4 143.8 L 146.2 147.1 L 145.9 151.7 L 142.6 154.8 L 138.1 154.6 L 134.9 151.3 L 134.1 148.2 Z M 166.0 116.2 L 160.7 112.2 L 155.6 108.0 L 150.9 103.4 L 146.5 98.4 L 142.5 93.2 L 138.8 87.6 L 136.0 82.35 L 136.0 114.0 L 124.0 120.0 L 124.0 89.30909090042114 L 123.6 89.9 L 118.8 96.0 L 113.7 101.8 L 108.2 107.2 L 102.3 112.2 L 96.1 116.8 L 89.4 121.0 L 82.4 124.6 L 74.9 127.7 L 74.1 126.2 L 80.4 121.4 L 86.3 116.5 L 92.0 111.6 L 97.2 106.5 L 102.1 101.2 L 106.7 95.7 L 110.8 90.0 L 114.7 84.0 L 118.1 77.8 L 118.95263156890869 76.0 L 77.9 76.0 L 77.9 72.0 L 124.0 72.0 L 124.0 34.267741966247556 L 119.5 34.8 L 109.9 35.5 L 100.1 36.0 L 90.0 36.1 L 79.6 35.8 L 79.5 34.1 L 89.7 32.4 L 99.5 30.7 L 109.1 29.0 L 118.4 27.2 L 127.3 25.4 L 135.9 23.3 L 144.3 21.1 L 152.3 18.8 L 160.0 16.3 L 166.51040811538695 13.92458086013794 L 166.5 13.9 L 166.52319717407227 13.919914531707764 L 167.4 13.6 L 167.90088109970094 15.10264320373535 L 177.1 23.0 L 177.3 26.1 L 173.2735369682312 24.297106075286866 L 171.2 25.0 L 163.3 27.2 L 155.0 29.1 L 146.5 30.9 L 137.8 32.4 L 136.0 32.660000038146975 L 136.0 72.0 L 162.6 72.0 L 172.6 62.0 L 184.6 72.0 L 184.6 76.0 L 136.0693877220154 76.0 L 139.1 79.3 L 143.5 84.0 L 147.9 88.5 L 152.5 92.6 L 157.1 96.5 L 162.0 100.0 L 167.0 103.2 L 172.1 106.0 L 177.5 108.6 L 183.0 110.9 L 189.1 113.6 L 177.7 123.0 L 171.7 119.7 Z M 31.0 32.0 L 31.0 76.0 L 60.9 76.0 L 60.9 32.0 Z M 170.9 40.6 L 171.9 44.0 L 167.752090549469 43.35635890960693 L 167.6 43.5 L 165.6 45.6 L 163.3 48.0 L 160.8 50.7 L 158.0 53.8 L 154.9 57.2 L 151.6 61.0 L 147.9 65.0 L 144.1 69.5 L 142.6 68.4 L 145.3 63.3 L 147.7 58.3 L 150.1 53.9 L 152.2 49.8 L 154.2 46.1 L 156.1 42.7 L 157.7 39.8 L 159.2 37.1 L 160.5 34.8 L 161.17828006744384 33.72605657577515 L 161.0 33.6 L 162.1 32.4 Z M 103.9 60.2 L 103.1 58.1 L 102.1 55.9 L 100.8 53.6 L 99.3 51.3 L 97.6 48.8 L 95.6 46.3 L 93.4 43.6 L 90.8 41.3 L 91.8 39.8 L 95.0 41.6 L 98.2 43.1 L 101.2 44.9 L 103.9 46.7 L 106.5 48.6 L 108.8 50.7 L 111.0 52.9 L 112.9 55.1 L 114.6 57.6 L 116.1 60.1 L 115.8 64.7 L 112.5 67.8 L 107.9 67.5 L 104.8 64.2 L 104.5 62.2 Z " />
</g>
</svg>
