<svg xmlns="http://www.w3.org/2000/svg" xmlns:xlink="http://www.w3.org/1999/xlink" version="1.1" baseProfile="full" viewBox="0 0 200 200" width="200" height="200">
<g fill="black">
<path d="M 89.3 183.2 L 78.3 188.7 L 78.3 20.5 L 89.3 26.0 L 105.8 26.0 L 111.8 21.0 L 122.8 30.0 L 117.8 33.0 L 116.29006624221802 33.629139041900636 L 114.8 38.0 L 113.2 42.5 L 111.4 47.1 L 109.4 51.8 L 107.3 56.6 L 104.9 61.5 L 102.4 66.4 L 99.5 71.3 L 96.882159614563 75.39037561416626 L 100.8 79.7 L 104.2 84.3 L 107.1 89.1 L 109.5 94.0 L 111.5 99.1 L 113.0 104.3 L 114.1 109.6 L 114.7 115.0 L 114.9 120.4 L 114.6 125.9 L 114.1 128.5 L 113.3 130.9 L 112.2 133.1 L 110.8 135.2 L 109.0 137.0 L 106.9 138.5 L 104.7 139.6 L 102.3 140.4 L 99.8 140.8 L 97.2 141.0 L 97.2 135.0 L 89.3 132.0375 Z M 148.4358738899231 95.90647563934326 L 154.0 101.6 L 154.2 105.0 L 150.2831169128418 103.4467532157898 L 147.4 104.6 L 142.2 106.4 L 139.5 107.4 L 136.8 108.3 L 133.9 109.1 L 133.34761905670166 109.27142858505249 L 130.8 110.8 L 130.8 137.0 L 136.37777776718139 137.0 L 142.6 130.0 L 150.6 137.0 L 150.6 141.0 L 130.8 141.0 L 130.8 169.0 L 173.6 169.0 L 173.6 141.0 L 156.8 141.0 L 156.8 137.0 L 173.6 137.0 L 173.6 110.0 L 155.9 110.0 L 155.9 106.0 L 173.6 106.0 L 179.6 101.0 L 190.6 110.0 L 185.6 114.0 L 185.6 177.0 L 173.6 183.0 L 173.6 173.0 L 130.8 173.0 L 130.8 180.0 L 118.8 186.0 L 118.8 105.0 L 128.80563383102418 106.66760559082032 L 129.1 106.4 L 131.4 104.4 L 133.7 102.6 L 138.1 99.0 L 142.3 95.6 L 144.3 93.9 L 145.5 92.93999996185303 L 145.4 92.8 L 145.52066326141357 92.92346935272217 L 146.3 92.3 Z M 13.0 168.9 L 18.0 167.52068967819213 L 18.0 101.0 L 29.0 103.0 L 31.8 105.0 L 29.0 106.75 L 29.0 164.13448276519776 L 30.4 163.7 L 36.3 161.7 L 38.6 160.90689659118652 L 38.6 80.0 L 29.5 80.0 L 29.5 83.0 L 17.5 89.0 L 17.5 22.0 L 29.5 28.0 L 57.0 28.0 L 62.5 23.0 L 73.0 32.0 L 68.0 35.5 L 68.0 86.0 L 57.0 91.5 L 57.0 80.0 L 49.6 80.0 L 49.6 117.0 L 56.577777767181395 117.0 L 62.8 110.0 L 70.8 117.0 L 70.8 121.0 L 49.6 121.0 L 49.6 156.99491529464723 L 53.8 155.5 L 59.7 153.3 L 65.6 151.2 L 71.7 149.2 L 72.6 150.7 L 67.4 154.6 L 62.0 158.1 L 56.6 161.4 L 51.1 164.6 L 45.5 167.5 L 39.8 170.3 L 34.1 173.0 L 28.4 175.6 L 22.6 178.0 L 20.627380275726317 178.76898736953734 L 19.6 182.5 L 16.7 180.3 L 11.1 169.6 Z M 173.2 82.2 L 171.3 83.5 L 169.3 84.7 L 167.1 85.7 L 164.9 86.5 L 162.7 87.1 L 160.3 87.6 L 158.0 87.9 L 155.6 88.0 L 155.6 82.0 L 139.6 79.0 L 139.6 76.0 L 155.6 76.0 L 157.1 75.9 L 159.9 75.5 L 161.2 75.1 L 162.5 74.6 L 163.7 74.1 L 164.9 73.4 L 166.0 72.6 L 167.1 71.7 L 167.52307691574097 71.27692308425904 L 167.8 69.8 L 168.2 67.4 L 168.6 64.4 L 169.0 60.7 L 169.5 56.3 L 170.0 51.4 L 170.5 45.7 L 170.79838705062866 42.0 L 146.20769233703612 42.0 L 144.2 48.3 L 141.0 56.9 L 137.5 65.2 L 133.7 73.2 L 129.6 80.7 L 125.1 87.8 L 120.2 94.4 L 115.0 100.5 L 113.5 99.4 L 117.0 92.4 L 120.5 85.1 L 123.7 77.7 L 126.8 70.1 L 129.6 62.1 L 132.2 53.9 L 134.6 45.4 L 136.7 36.5 L 138.6 27.3 L 140.0310559272766 18.803105545043945 L 140.0 18.8 L 140.5 15.9 L 152.0 20.0 L 154.6 22.5 L 151.09959239959716 23.836519241333008 L 149.7 29.8 L 147.4319149017334 38.0 L 171.0 38.0 L 177.0 33.0 L 188.0 42.0 L 183.0 45.0 L 182.51901502609252 45.20041036605835 L 182.4 46.7 L 181.9 52.5 L 181.4 57.5 L 181.0 62.0 L 180.5 65.9 L 180.0 69.2 L 179.6 72.0 L 179.1 74.2 L 178.5 76.2 L 176.8 79.0 L 175.1 80.6 Z M 29.5 32.0 L 29.5 76.0 L 57.0 76.0 L 57.0 32.0 Z M 104.0 115.1 L 104.1 110.5 L 103.9 105.9 L 103.3 101.2 L 102.3 96.5 L 101.0 91.6 L 99.4 86.7 L 97.5 81.6 L 95.3 76.3 L 95.69622640609741 76.03584909439087 L 94.7 75.6 L 96.0 69.9 L 97.4 64.4 L 98.8 59.1 L 100.1 54.0 L 101.4 49.1 L 102.5 44.3 L 103.6 39.7 L 104.5 35.2 L 105.2 30.9 L 105.35 30.0 L 89.3 30.0 L 89.3 129.0 L 97.2 129.0 L 98.5 128.9 L 99.5 128.7 L 100.2 128.5 L 100.7 128.2 L 101.5 127.6 L 101.8 127.1 L 102.2 126.4 L 102.5 125.4 L 102.7 124.2 L 103.5 119.7 Z " />
</g>
</svg>
