<svg xmlns="http://www.w3.org/2000/svg" xmlns:xlink="http://www.w3.org/1999/xlink" version="1.1" baseProfile="full" viewBox="0 0 200 200" width="200" height="200">
<g fill="black">
<path d="M 72.4 136.6 L 72.2 135.7 L 71.7 134.5 L 71.0 133.3 L 70.2 132.0 L 69.1 130.6 L 67.9 129.1 L 66.6 127.5 L 66.44709768295289 127.40655965805054 L 61.5 131.4 L 52.8 137.9 L 48.64516124725342 140.7 L 81.7 140.7 L 87.7 135.7 L 98.7 144.7 L 93.7 148.7 L 93.7 177.4 L 81.7 183.4 L 81.7 177.4 L 45.0 177.4 L 45.0 184.4 L 33.0 190.4 L 33.0 150.59411764144897 L 23.7 155.7 L 13.1 161.0 L 12.2 159.4 L 21.7 152.5 L 30.9 145.6 L 33.0 143.97727270126342 L 33.0 134.7 L 40.26756753921509 138.33378381729125 L 48.1 131.9 L 56.1 124.9 L 12.6 124.9 L 12.6 120.9 L 46.6 120.9 L 46.6 105.7 L 22.4 105.7 L 22.4 101.7 L 46.6 101.7 L 46.6 86.3 L 58.6 88.3 L 61.6 90.3 L 58.6 92.1 L 58.6 101.7 L 60.71818180084229 101.7 L 68.9 92.7 L 78.73863458633423 101.55477113723755 L 83.4 95.9 L 88.82580642700195 88.88387098312378 L 89.6 87.8 L 98.7 95.7 L 99.8 99.1 L 96.13182754516602 98.65728950500488 L 92.1 103.3 L 85.1 110.6 L 77.7 117.8 L 74.15072460174561 120.9 L 84.11818180084228 120.9 L 92.3 111.9 L 102.3 120.9 L 102.3 124.9 L 69.5522388458252 124.9 L 68.2774582862854 125.92903966903687 L 69.7 126.2 L 71.7 126.7 L 73.6 127.2 L 75.3 127.8 L 76.9 128.4 L 78.5 129.1 L 79.9 129.9 L 81.3 130.9 L 82.6 132.0 L 83.2 136.5 L 80.4 140.2 L 75.9 140.7 L 72.2 138.0 L 72.4 137.4 Z M 182.8 148.4 L 184.8 148.4 L 182.8 173.4 L 186.4 175.8 L 188.8 179.4 L 186.4 183.0 L 182.8 185.4 L 159.9 185.4 L 157.3 185.3 L 154.8 184.8 L 152.4 184.0 L 150.2 182.8 L 148.1 181.1 L 146.5 179.1 L 145.3 176.9 L 144.5 174.4 L 144.0 172.0 L 143.9 169.4 L 143.9 150.0 L 129.86818180084228 150.0 L 138.6 153.4 L 141.1 156.0 L 137.14580154418945 157.36599578857422 L 136.4 159.4 L 133.3 164.8 L 129.3 169.7 L 124.5 173.9 L 119.0 177.5 L 112.7 180.6 L 105.8 183.1 L 98.1 185.0 L 89.7 186.4 L 80.6 187.1 L 80.3 185.3 L 88.9 182.7 L 96.6 179.9 L 103.4 177.0 L 109.4 173.8 L 114.4 170.4 L 118.5 166.9 L 121.7 163.1 L 122.36037731170654 162.06981134414673 L 110.5 168.0 L 110.5 87.3 L 122.5 93.3 L 163.9 93.3 L 169.9 88.3 L 180.9 97.3 L 175.9 101.3 L 175.9 156.0 L 163.9 162.0 L 163.9 150.0 L 155.9 150.0 L 155.9 169.4 L 156.0 170.6 L 156.1 171.5 L 156.3 172.1 L 156.5 172.5 L 156.8 172.8 L 157.2 173.0 L 157.7 173.2 L 158.7 173.3 L 159.9 173.4 L 176.8 173.4 Z M 45.0 161.1 L 45.0 173.4 L 81.7 173.4 L 81.7 161.1 Z M 122.5 150.0 L 122.5 161.85200004577638 L 124.2 159.2 L 125.9 155.1 L 126.9 150.8 L 126.91363639831543 150.8030303001404 L 127.08571424484253 150.0 Z M 45.0 144.7 L 45.0 157.1 L 81.7 157.1 L 81.7 144.7 Z M 122.5 131.7 L 122.5 146.0 L 163.9 146.0 L 163.9 131.7 Z M 122.5 114.5 L 122.5 127.7 L 163.9 127.7 L 163.9 114.5 Z M 58.6 105.7 L 58.6 120.9 L 60.325352096557616 120.9 L 63.6 117.8 L 70.6 110.6 L 75.09726028442383 105.7 Z M 122.5 97.3 L 122.5 110.5 L 163.9 110.5 L 163.9 97.3 Z M 135.7 83.8 L 117.8 82.8 L 101.9 81.4 L 88.1 79.4 L 76.5 76.9 L 67.0 73.8 L 59.7 70.0 L 54.7 65.5 L 54.43094139099121 64.8762731552124 L 53.8 65.6 L 49.7 69.2 L 45.2 72.5 L 40.1 75.4 L 34.5 78.1 L 28.3 80.5 L 21.5 82.4 L 14.2 84.0 L 13.7 82.3 L 20.2 78.9 L 26.1 75.6 L 31.4 72.3 L 36.0 69.0 L 40.1 65.7 L 43.4 62.4 L 46.2 59.0 L 48.3 55.7 L 49.9 52.3 L 50.9 49.0 L 50.91807231903076 49.006024074554446 L 51.4 47.5 L 62.3 52.8 L 64.6 55.6 L 60.51532535552978 56.53159246444702 L 60.1 57.4 L 57.2 61.7 L 56.96119403839111 61.97392454147339 L 57.6 62.5 L 62.5 64.8 L 69.3 66.9 L 78.3 68.7 L 89.4 70.2 L 94.0 70.54328355789184 L 94.0 41.2 L 54.0 41.2 L 42.0 47.2 L 42.0 11.6 L 54.0 17.6 L 146.0 17.6 L 152.0 12.6 L 163.0 21.6 L 158.0 25.6 L 158.0 41.2 L 146.0 47.2 L 146.0 41.2 L 106.0 41.2 L 106.0 54.8 L 148.0 54.8 L 158.0 44.8 L 170.0 54.8 L 170.0 58.8 L 106.0 58.8 L 106.0 71.3238709449768 L 118.3 71.8 L 135.9 72.0 L 155.8 71.7 L 177.8 71.0 L 189.3 70.6 L 178.1 84.1 L 155.9 84.2 Z M 54.0 21.6 L 54.0 37.2 L 146.0 37.2 L 146.0 21.6 Z " />
</g>
</svg>
