<svg xmlns="http://www.w3.org/2000/svg" xmlns:xlink="http://www.w3.org/1999/xlink" version="1.1" baseProfile="full" viewBox="0 0 200 200" width="200" height="200">
<g fill="black">
<path d="M 132.7 187.0 L 113.4 186.2 L 96.4 184.7 L 81.8 182.5 L 69.5 179.5 L 59.5 175.7 L 52.0 171.1 L 47.85593528747559 166.27935333251952 L 44.3 170.2 L 40.1 174.2 L 35.5 177.9 L 30.6 181.2 L 25.2 184.2 L 19.5 186.8 L 13.3 188.9 L 12.6 187.3 L 17.6 183.5 L 22.3 179.7 L 26.6 176.0 L 30.6 172.2 L 34.1 168.2 L 37.2 164.2 L 40.0 160.0 L 42.3 155.8 L 44.3 151.3 L 45.654018592834475 147.71583309173585 L 45.6 147.7 L 46.5 145.4 L 57.2 151.1 L 59.3 154.1 L 55.36037731170654 154.7792452812195 L 54.6 156.3 L 51.6 161.2 L 50.38431243896484 162.88050937652588 L 50.4 162.9 L 55.3 166.2 L 62.3 169.0 L 71.5 171.4 L 83.2 173.3 L 91.0 173.9638298034668 L 91.0 140.8 L 54.0 140.8 L 42.0 146.8 L 42.0 110.8 L 54.0 116.8 L 144.0 116.8 L 150.0 111.8 L 161.0 120.8 L 156.0 124.8 L 156.0 142.8 L 144.0 148.8 L 144.0 140.8 L 103.0 140.8 L 103.0 156.0 L 148.0 156.0 L 158.0 146.0 L 170.0 156.0 L 170.0 160.0 L 103.0 160.0 L 103.0 174.74181814193724 L 113.8 175.2 L 132.7 175.1 L 154.0 174.5 L 177.6 173.2 L 188.8 172.6 L 178.3 186.3 L 154.3 187.0 Z M 54.0 120.8 L 54.0 136.8 L 144.0 136.8 L 144.0 120.8 Z M 119.62798833847046 92.99854230880737 L 127.0 99.9 L 127.1 103.2 L 123.42849054336548 101.63509435653687 L 119.4 103.1 L 114.8 104.7 L 109.8 106.2 L 104.5 107.6 L 98.9 109.0 L 92.8 110.3 L 86.4 111.5 L 79.7 112.6 L 72.6 113.4 L 65.0 114.1 L 64.6 112.3 L 71.7 109.7 L 78.4 107.3 L 84.8 105.1 L 90.8 103.0 L 96.4 100.9 L 101.6 98.8 L 106.4 96.8 L 110.9 94.7 L 114.9 92.7 L 117.64478330612182 91.17512035369873 L 117.6 91.1 L 117.66703643798829 91.16275749206542 L 118.5 90.7 Z M 167.6 109.0 L 164.8 107.2 L 161.8 105.5 L 158.5 103.7 L 155.0 102.0 L 151.2 100.3 L 147.2 98.5 L 142.9 96.7 L 138.4 95.0 L 138.8 93.3 L 143.6 93.7 L 148.4 94.0 L 152.8 94.6 L 157.1 95.3 L 161.2 96.2 L 165.1 97.2 L 168.9 98.4 L 172.4 99.6 L 175.8 101.0 L 179.0 102.6 L 181.5 106.4 L 180.7 110.9 L 176.9 113.4 L 172.4 112.6 L 170.1 110.8 Z M 69.4 95.1 L 68.2 93.2 L 66.6 91.2 L 64.6 89.0 L 62.2 86.7 L 59.5 84.3 L 56.5 81.7 L 53.2 78.9 L 52.3546558380127 78.3364372253418 L 51.2 81.7 L 48.0 87.9 L 44.0 93.5 L 39.3 98.5 L 33.9 102.9 L 27.7 106.7 L 20.9 109.8 L 13.3 112.3 L 12.6 110.6 L 19.1 106.5 L 24.8 102.2 L 29.7 97.9 L 33.8 93.3 L 37.1 88.5 L 39.8 83.5 L 41.8 78.2 L 43.1 72.6 L 43.8 66.7 L 43.8 15.6 L 55.8 17.6 L 58.8 19.6 L 55.8 21.4 L 55.8 47.95588235855102 L 56.5 47.4 L 59.7 44.9 L 62.9 42.5 L 65.8 40.3 L 68.6 38.2 L 71.2 36.2 L 73.7 34.3 L 75.9 32.5 L 77.20597972869874 31.442778301239013 L 77.1 31.3 L 77.2231141090393 31.428907680511475 L 78.0 30.8 L 80.52164545059205 34.88266401290893 L 85.6 40.2 L 85.7 43.6 L 81.83795919418336 42.041632652282715 L 81.7 42.1 L 79.0 43.3 L 76.1 44.5 L 73.0 45.8 L 69.7 47.1 L 66.2 48.5 L 62.5 49.9 L 58.6 51.3 L 55.8 52.23333330154419 L 55.8 60.3 L 55.1 67.9 L 53.5 75.0 L 53.17541732788086 75.94552354812622 L 54.5 76.5 L 58.7 78.0 L 62.5 79.5 L 66.0 81.2 L 69.2 82.8 L 72.1 84.5 L 74.8 86.3 L 77.2 88.1 L 79.3 90.1 L 81.1 92.2 L 81.6 96.8 L 78.9 100.4 L 74.3 100.9 L 70.7 98.2 L 70.2 96.7 Z M 185.5 20.8 L 185.5 24.8 L 142.8380952835083 24.8 L 139.8 27.0 L 137.7 28.5 L 135.5 29.9 L 130.9 32.7 L 125.9 35.1 L 122.35454549789429 36.6 L 158.7 36.6 L 164.7 31.6 L 175.7 40.6 L 170.7 44.6 L 170.7 89.2 L 158.7 95.2 L 158.7 89.2 L 106.2 89.2 L 94.2 95.2 L 94.2 30.6 L 106.2 36.6 L 115.9235294342041 36.6 L 116.6 36.1 L 120.4 31.9 L 122.2 29.9 L 125.6 26.1 L 126.62631578445435 24.8 L 81.5 24.8 L 81.5 20.8 L 167.3181818008423 20.8 L 175.5 11.8 Z M 106.2 72.8 L 106.2 85.2 L 158.7 85.2 L 158.7 72.8 Z M 16.2 68.5 L 14.9 64.1 L 17.0 60.0 L 18.7 59.0 L 20.2 57.8 L 21.5 56.4 L 22.7 54.7 L 23.8 52.7 L 24.6 50.4 L 25.2 47.7 L 25.6 44.7 L 25.8 41.3 L 25.3 37.7 L 27.0 37.2 L 28.3 40.8 L 29.6 44.1 L 30.5 47.5 L 31.0 50.8 L 31.1 54.1 L 30.8 57.4 L 30.0 60.6 L 28.7 63.7 L 26.9 66.6 L 24.7 69.2 L 20.3 70.6 Z M 106.2 57.0 L 106.2 68.8 L 158.7 68.8 L 158.7 57.0 Z M 106.2 40.6 L 106.2 53.0 L 158.7 53.0 L 158.7 40.6 Z " />
</g>
</svg>
