<svg xmlns="http://www.w3.org/2000/svg" xmlns:xlink="http://www.w3.org/1999/xlink" version="1.1" baseProfile="full" viewBox="0 0 200 200" width="200" height="200">
<g fill="black">
<path d="M 182.0 147.0 L 184.0 147.0 L 182.0 172.0 L 185.6 174.4 L 188.0 178.0 L 185.6 181.6 L 182.0 184.0 L 155.0 184.0 L 152.4 183.8 L 149.9 183.4 L 147.5 182.6 L 145.2 181.3 L 143.2 179.7 L 141.6 177.7 L 140.3 175.4 L 139.5 173.0 L 139.1 170.5 L 139.0 168.0 L 139.0 134.0 L 108.0 134.0 L 108.0 147.0 L 107.56175708770752 147.65736436843872 L 107.9 147.7 L 106.4 154.3 L 104.1 160.4 L 101.1 166.0 L 97.3 171.0 L 93.0 175.5 L 87.9 179.2 L 82.3 182.4 L 76.2 184.9 L 69.4 186.7 L 62.2 187.8 L 61.7 186.1 L 68.2 183.1 L 74.0 180.0 L 79.0 176.7 L 83.3 173.2 L 87.0 169.5 L 89.9 165.4 L 92.3 161.1 L 94.1 156.5 L 95.3 151.5 L 96.0 146.2 L 96.0 124.0 L 108.0 130.0 L 139.0 130.0 L 145.0 125.0 L 156.0 134.0 L 151.0 138.0 L 151.0 169.2 L 151.2 170.1 L 151.5 171.0 L 151.9 171.4 L 152.8 171.7 L 153.7 171.9 L 155.0 172.0 L 176.0 172.0 Z M 13.0 168.9 L 18.0 167.52068967819213 L 18.0 101.0 L 29.0 103.0 L 31.8 105.0 L 29.0 106.75 L 29.0 164.13448276519776 L 30.4 163.7 L 36.3 161.7 L 38.6 160.90689659118652 L 38.6 80.0 L 29.5 80.0 L 29.5 83.0 L 17.5 89.0 L 17.5 22.0 L 29.5 28.0 L 56.5 28.0 L 62.5 23.0 L 73.5 32.0 L 68.5 36.0 L 68.5 86.0 L 56.5 92.0 L 56.5 80.0 L 49.6 80.0 L 49.6 117.0 L 56.577777767181395 117.0 L 62.8 110.0 L 70.8 117.0 L 70.8 121.0 L 49.6 121.0 L 49.6 156.99491529464723 L 53.8 155.5 L 59.7 153.3 L 65.6 151.2 L 71.7 149.2 L 72.6 150.7 L 67.4 154.6 L 62.0 158.1 L 56.6 161.4 L 51.1 164.6 L 45.5 167.5 L 39.8 170.3 L 34.1 173.0 L 28.4 175.6 L 22.6 178.0 L 20.627380275726317 178.76898736953734 L 19.6 182.5 L 16.7 180.3 L 11.1 169.6 Z M 105.0 119.4 L 104.1 114.9 L 106.5 111.1 L 107.5 110.8 L 108.6 110.2 L 109.7 109.3 L 110.8 107.9 L 111.9 106.1 L 112.9 103.8 L 113.8 101.1 L 114.6 98.1 L 115.3 94.6 L 115.4 90.8 L 117.2 90.7 L 117.7 94.5 L 118.5 98.1 L 119.0 101.6 L 119.2 104.8 L 119.1 107.9 L 118.7 110.8 L 118.0 113.6 L 116.9 116.2 L 115.4 118.7 L 113.4 120.9 L 108.9 121.8 Z M 174.6 121.5 L 172.8 123.1 L 170.8 124.5 L 168.7 125.6 L 166.5 126.6 L 164.2 127.3 L 161.9 127.8 L 159.5 128.1 L 157.0 128.3 L 157.0 122.3 L 137.0 119.3 L 137.0 116.3 L 157.0 116.3 L 158.5 116.2 L 159.8 116.0 L 161.1 115.7 L 162.3 115.4 L 163.4 114.9 L 164.4 114.3 L 165.4 113.6 L 166.4 112.8 L 167.3 111.8 L 168.3 110.7 L 168.5 110.3 L 168.9 109.2 L 169.4 107.4 L 169.9 105.0 L 170.3 102.1 L 170.7 98.7 L 171.0 94.7 L 171.2 90.3 L 171.3 85.4 L 171.3 82.0 L 123.8 82.0 L 111.8 88.0 L 111.8 15.5 L 123.8 21.5 L 160.1 21.5 L 170.1 11.5 L 182.1 21.5 L 182.1 25.5 L 151.6 25.5 L 151.6 40.3 L 160.71818180084227 40.3 L 168.9 31.3 L 178.9 40.3 L 178.9 44.3 L 151.6 44.3 L 151.6 59.2 L 160.71818180084227 59.2 L 168.9 50.2 L 178.9 59.2 L 178.9 63.2 L 151.6 63.2 L 151.6 78.0 L 171.3 78.0 L 177.3 73.0 L 188.3 82.0 L 183.3 85.0 L 183.3 85.6 L 183.2 90.7 L 182.9 95.5 L 182.6 99.7 L 182.2 103.6 L 181.7 107.1 L 181.1 110.2 L 180.3 113.0 L 179.3 115.5 L 177.8 117.9 L 176.3 119.8 Z M 86.3 122.0 L 82.3 119.7 L 81.0 115.3 L 81.6 112.2 L 81.9 109.2 L 81.9 106.1 L 81.6 103.0 L 81.1 99.9 L 80.2 96.7 L 78.9 93.4 L 77.87115383148193 91.1365385055542 L 77.4 90.8 L 77.60483465194702 90.55063610076904 L 77.4 90.1 L 75.5 86.6 L 73.1 83.3 L 74.3 82.0 L 77.7 84.7 L 80.41336402893066 86.98940095901489 L 82.1 84.6 L 84.8 80.7 L 87.6 76.3 L 90.6 71.4 L 93.7 66.0 L 97.1 60.2 L 100.6 53.9 L 104.5 47.1 L 108.7 40.0 L 110.4 40.7 L 108.0 48.7 L 105.5 56.1 L 103.0 63.0 L 100.6 69.4 L 98.1 75.2 L 95.8 80.7 L 93.5 85.6 L 91.4 90.1 L 89.2 94.1 L 87.99066572189331 96.33726835250854 L 88.4 97.0 L 90.1 100.6 L 91.4 104.4 L 92.3 108.4 L 92.8 112.5 L 92.9 116.7 L 90.7 120.7 Z M 140.4 103.1 L 140.4 101.7 L 140.2 100.3 L 139.9 98.7 L 139.5 97.1 L 138.8 95.4 L 138.0 93.7 L 137.1 91.8 L 135.5 90.4 L 136.6 89.0 L 138.4 90.2 L 140.5 91.1 L 142.4 92.2 L 144.2 93.5 L 145.9 94.9 L 147.4 96.4 L 148.8 98.1 L 150.0 100.0 L 151.1 102.0 L 151.9 104.2 L 150.7 108.6 L 146.8 110.9 L 142.4 109.7 L 140.0 105.8 L 140.3 104.5 Z M 129.3 115.5 L 125.4 113.2 L 124.2 108.8 L 124.7 107.4 L 125.2 105.9 L 125.6 104.4 L 125.9 102.8 L 126.1 101.1 L 126.2 99.4 L 126.1 97.5 L 125.9 95.6 L 125.7 93.6 L 124.7 91.7 L 126.3 90.7 L 127.5 92.5 L 129.2 94.0 L 130.6 95.7 L 131.9 97.5 L 133.0 99.4 L 134.0 101.4 L 134.8 103.5 L 135.4 105.7 L 135.8 108.0 L 136.1 110.3 L 133.7 114.2 Z M 154.7 99.0 L 154.4 97.8 L 154.0 96.5 L 153.4 95.1 L 152.7 93.7 L 151.8 92.3 L 150.7 90.9 L 149.4 89.3 L 147.7 88.4 L 148.5 86.7 L 150.4 87.5 L 152.5 87.8 L 154.5 88.4 L 156.5 89.1 L 158.3 90.0 L 160.1 91.1 L 161.7 92.3 L 163.3 93.8 L 164.7 95.4 L 166.0 97.2 L 165.8 101.7 L 162.5 104.9 L 158.0 104.7 L 154.8 101.4 L 154.8 100.2 Z M 123.8 63.2 L 123.8 78.0 L 139.6 78.0 L 139.6 63.2 Z M 29.5 32.0 L 29.5 76.0 L 56.5 76.0 L 56.5 32.0 Z M 123.8 44.3 L 123.8 59.2 L 139.6 59.2 L 139.6 44.3 Z M 88.5 38.7 L 87.9 37.2 L 87.1 35.7 L 86.1 34.0 L 85.0 32.4 L 83.7 30.8 L 82.2 29.0 L 80.6 27.3 L 78.5 26.0 L 79.2 24.4 L 81.6 25.3 L 84.1 25.9 L 86.5 26.6 L 90.9 28.6 L 92.9 29.8 L 94.9 31.2 L 96.7 32.7 L 98.4 34.4 L 99.9 36.3 L 100.2 40.8 L 97.3 44.3 L 92.7 44.6 L 89.2 41.7 L 88.9 40.2 Z M 123.8 25.5 L 123.8 40.3 L 139.6 40.3 L 139.6 25.5 Z " />
</g>
</svg>
