<svg xmlns="http://www.w3.org/2000/svg" xmlns:xlink="http://www.w3.org/1999/xlink" version="1.1" baseProfile="full" viewBox="0 0 200 200" width="200" height="200">
<g fill="black">
<path d="M 116.5 177.0 L 132.5 177.0 L 133.7 176.9 L 134.6 176.7 L 135.2 176.5 L 135.6 176.4 L 135.8 176.2 L 135.9 176.0 L 136.1 175.7 L 136.3 175.1 L 136.4 174.2 L 136.5 173.0 L 136.5 75.0 L 95.3 75.0 L 95.3 71.0 L 166.7 71.0 L 176.7 61.0 L 188.7 71.0 L 188.7 75.0 L 148.5 75.0 L 148.5 173.0 L 148.4 175.5 L 147.9 178.0 L 147.1 180.4 L 145.9 182.7 L 144.2 184.7 L 142.2 186.3 L 140.0 187.6 L 137.6 188.4 L 135.1 188.8 L 132.5 189.0 L 132.5 183.0 L 116.5 180.0 Z M 59.4 15.0 L 62.4 17.0 L 59.4 18.8 L 59.4 40.0 L 70.5 40.0 L 80.5 30.0 L 92.5 40.0 L 92.5 44.0 L 59.4 44.0 L 59.4 63.0 L 73.2 63.0 L 79.2 58.0 L 90.2 67.0 L 85.2 71.0 L 85.2 127.0 L 73.2 133.0 L 73.2 123.0 L 59.4 123.0 L 59.4 146.0 L 72.3 146.0 L 82.3 136.0 L 94.3 146.0 L 94.3 150.0 L 59.4 150.0 L 59.4 183.0 L 47.4 189.0 L 47.4 150.0 L 12.4 150.0 L 12.4 146.0 L 47.4 146.0 L 47.4 123.0 L 33.5 123.0 L 33.5 130.0 L 21.5 136.0 L 21.5 57.0 L 33.5 63.0 L 47.4 63.0 L 47.4 44.0 L 14.2 44.0 L 14.2 40.0 L 47.4 40.0 L 47.4 13.0 Z M 33.5 94.0 L 33.5 119.0 L 47.4 119.0 L 47.4 94.0 Z M 59.4 94.0 L 59.4 119.0 L 73.2 119.0 L 73.2 94.0 Z M 33.5 67.0 L 33.5 90.0 L 47.4 90.0 L 47.4 67.0 Z M 59.4 67.0 L 59.4 90.0 L 73.2 90.0 L 73.2 67.0 Z M 179.3 30.0 L 179.3 34.0 L 102.1 34.0 L 102.1 30.0 L 157.3 30.0 L 167.3 20.0 Z " />
</g>
</svg>
