<svg xmlns="http://www.w3.org/2000/svg" xmlns:xlink="http://www.w3.org/1999/xlink" version="1.1" baseProfile="full" viewBox="0 0 200 200" width="200" height="200">
<g fill="black">
<path d="M 56.3 15.0 L 59.3 17.0 L 56.3 18.8 L 56.3 40.0 L 65.9 40.0 L 75.9 30.0 L 87.9 40.0 L 87.9 44.0 L 56.3 44.0 L 56.3 63.0 L 69.0 63.0 L 75.0 58.0 L 86.0 67.0 L 81.0 71.0 L 81.0 127.0 L 69.0 133.0 L 69.0 123.0 L 56.3 123.0 L 56.3 146.0 L 67.6 146.0 L 77.6 136.0 L 89.6 146.0 L 89.6 150.0 L 56.3 150.0 L 56.3 183.0 L 44.3 189.0 L 44.3 150.0 L 10.9 150.0 L 10.9 146.0 L 44.3 146.0 L 44.3 123.0 L 31.5 123.0 L 31.5 130.0 L 19.5 136.0 L 19.5 57.0 L 31.5 63.0 L 44.3 63.0 L 44.3 44.0 L 12.6 44.0 L 12.6 40.0 L 44.3 40.0 L 44.3 13.0 Z M 181.2 161.2 L 179.7 163.2 L 178.0 165.0 L 176.1 166.5 L 174.0 167.8 L 171.7 168.8 L 169.3 169.4 L 166.8 169.8 L 164.3 170.0 L 164.3 164.0 L 156.3 161.0 L 156.3 158.0 L 164.3 158.0 L 165.6 157.9 L 166.8 157.7 L 167.7 157.4 L 168.5 157.1 L 169.2 156.7 L 169.9 156.2 L 170.5 155.5 L 171.0 154.7 L 171.6 153.7 L 172.1 152.5 L 172.4 151.6 L 172.7 150.0 L 173.0 147.7 L 173.2 144.8 L 173.4 141.4 L 173.5 137.4 L 173.6 132.8 L 173.6 127.8 L 173.56661739349366 125.9305760383606 L 173.4 126.0 L 173.4 118.0 L 155.6 118.0 L 155.6 183.5 L 145.6 188.5 L 145.6 118.0 L 131.8913043022156 118.0 L 131.8 119.5 L 130.4 130.4 L 128.3 140.5 L 125.3 149.9 L 121.7 158.5 L 117.2 166.3 L 112.0 173.3 L 106.0 179.4 L 99.3 184.5 L 91.9 188.7 L 91.0 187.2 L 97.1 181.8 L 102.5 176.0 L 107.2 169.7 L 111.2 162.8 L 114.5 155.4 L 117.2 147.3 L 119.3 138.5 L 120.7 129.0 L 121.4 118.9 L 121.40825691223145 118.0 L 107.47071294784546 118.0 L 106.3 130.4 L 93.8 135.3 L 99.8 71.4 L 110.39718313217163 78.0 L 121.5 78.0 L 121.5 48.0 L 94.9 48.0 L 94.9 44.0 L 121.5 44.0 L 121.5 13.0 L 132.5 15.0 L 135.2 17.0 L 132.5 18.723404216766358 L 132.5 44.0 L 145.6 44.0 L 145.6 13.0 L 155.6 15.0 L 158.1 17.0 L 155.6 18.66666669845581 L 155.6 44.0 L 167.1 44.0 L 172.6 39.0 L 183.1 48.0 L 178.1 51.5 L 178.1 88.0 L 167.1 93.5 L 167.1 82.0 L 155.6 82.0 L 155.6 114.0 L 173.4 114.0 L 179.4 109.0 L 190.4 118.0 L 185.48306713104247 120.950159740448 L 185.5 122.0 L 185.6 127.7 L 185.6 132.9 L 185.5 137.6 L 185.4 141.9 L 185.2 145.6 L 184.9 148.9 L 184.5 151.8 L 184.1 154.3 L 183.4 156.7 L 182.4 159.0 Z M 31.5 94.0 L 31.5 119.0 L 44.3 119.0 L 44.3 94.0 Z M 56.3 94.0 L 56.3 119.0 L 69.0 119.0 L 69.0 94.0 Z M 145.6 114.0 L 145.6 82.0 L 132.5 82.0 L 132.5 108.0 L 132.13478260040284 114.0 Z M 31.5 67.0 L 31.5 90.0 L 44.3 90.0 L 44.3 67.0 Z M 56.3 67.0 L 56.3 90.0 L 69.0 90.0 L 69.0 67.0 Z M 132.5 48.0 L 132.5 78.0 L 145.6 78.0 L 145.6 48.0 Z M 155.6 48.0 L 155.6 78.0 L 167.1 78.0 L 167.1 48.0 Z M 110.86955680847169 82.0 L 107.84836225509643 114.0 L 121.4449541091919 114.0 L 121.5 108.0 L 121.5 82.0 Z " />
</g>
</svg>
