<svg xmlns="http://www.w3.org/2000/svg" xmlns:xlink="http://www.w3.org/1999/xlink" version="1.1" baseProfile="full" viewBox="0 0 200 200" width="200" height="200">
<g fill="black">
<path d="M 58.5 15.0 L 61.5 17.0 L 58.5 18.8 L 58.5 40.0 L 69.0 40.0 L 79.0 30.0 L 91.0 40.0 L 91.0 44.0 L 58.5 44.0 L 58.5 63.0 L 71.8 63.0 L 77.8 58.0 L 88.8 67.0 L 83.8 71.0 L 83.8 127.0 L 71.8 133.0 L 71.8 123.0 L 58.5 123.0 L 58.5 146.0 L 70.7 146.0 L 80.7 136.0 L 92.7 146.0 L 92.7 150.0 L 58.5 150.0 L 58.5 183.0 L 46.5 189.0 L 46.5 150.0 L 12.2 150.0 L 12.2 146.0 L 46.5 146.0 L 46.5 123.0 L 33.1 123.0 L 33.1 130.0 L 21.1 136.0 L 21.1 57.0 L 33.1 63.0 L 46.5 63.0 L 46.5 44.0 L 14.0 44.0 L 14.0 40.0 L 46.5 40.0 L 46.5 13.0 Z M 171.1 180.9 L 169.3 182.5 L 167.4 184.0 L 165.3 185.2 L 163.1 186.2 L 160.8 187.0 L 158.5 187.5 L 156.1 187.8 L 153.6 188.0 L 153.6 182.0 L 133.6 179.0 L 133.6 176.0 L 153.6 176.0 L 155.0 175.9 L 156.4 175.7 L 157.6 175.4 L 158.7 175.1 L 159.7 174.6 L 160.7 174.0 L 161.6 173.3 L 162.6 172.5 L 163.5 171.5 L 164.3 170.3 L 166.1 166.4 L 167.8 159.5 L 169.1 150.1 L 170.0 138.7 L 170.5 125.5 L 170.8 110.9 L 170.9 95.1 L 170.9 78.3 L 170.8 60.8 L 170.75604858398438 52.976646423339844 L 170.7 53.0 L 170.7 45.0 L 116.55735292434693 45.0 L 116.3 45.5 L 112.5 52.2 L 108.4 58.7 L 104.0 65.2 L 99.2 71.5 L 94.1 77.6 L 88.6 83.5 L 87.1 82.4 L 91.0 75.4 L 94.8 68.5 L 98.4 61.8 L 101.8 55.0 L 105.0 48.2 L 107.9 41.4 L 110.6 34.7 L 113.0 27.8 L 115.2 21.0 L 116.90953102111817 15.102118015289307 L 116.9 15.1 L 117.6 12.6 L 128.6 17.7 L 130.9 20.5 L 127.24599514007568 21.39747486114502 L 126.0 24.8 L 123.0 31.8 L 119.8 38.7 L 118.61617650985718 41.0 L 170.7 41.0 L 176.7 36.0 L 187.7 45.0 L 182.72799549102783 47.983202648162845 L 182.8 60.8 L 182.9 78.2 L 182.9 95.1 L 182.8 111.0 L 182.5 125.8 L 182.0 139.4 L 181.0 151.4 L 179.6 161.7 L 177.5 170.2 L 174.2 177.1 L 172.7 179.1 Z M 117.0 77.8 L 140.5 77.8 L 146.5 72.8 L 157.5 81.8 L 152.5 85.8 L 152.5 151.1 L 140.5 157.1 L 140.5 145.1 L 117.0 145.1 L 117.0 157.1 L 105.0 163.1 L 105.0 71.8 Z M 117.0 112.5 L 117.0 141.1 L 140.5 141.1 L 140.5 112.5 Z M 33.1 94.0 L 33.1 119.0 L 46.5 119.0 L 46.5 94.0 Z M 58.5 94.0 L 58.5 119.0 L 71.8 119.0 L 71.8 94.0 Z M 117.0 81.8 L 117.0 108.5 L 140.5 108.5 L 140.5 81.8 Z M 33.1 67.0 L 33.1 90.0 L 46.5 90.0 L 46.5 67.0 Z M 58.5 67.0 L 58.5 90.0 L 71.8 90.0 L 71.8 67.0 Z " />
</g>
</svg>
