<svg xmlns="http://www.w3.org/2000/svg" xmlns:xlink="http://www.w3.org/1999/xlink" version="1.1" baseProfile="full" viewBox="0 0 200 200" width="200" height="200">
<g fill="black">
<path d="M 158.6 110.0 L 158.6 71.0 L 136.2 71.0 L 136.2 104.0 L 135.80655736923217 110.0 Z M 33.5 94.0 L 33.5 119.0 L 46.3 119.0 L 46.3 94.0 Z M 58.3 94.0 L 58.3 119.0 L 71.0 119.0 L 71.0 94.0 Z M 33.5 67.0 L 33.5 90.0 L 46.3 90.0 L 46.3 67.0 Z M 58.3 67.0 L 58.3 90.0 L 71.0 90.0 L 71.0 67.0 Z M 136.2 28.0 L 136.2 67.0 L 158.6 67.0 L 158.6 28.0 Z M 87.2 71.0 L 87.2 67.63999996185302 L 83.0 71.0 L 83.0 127.0 L 71.0 133.0 L 71.0 123.0 L 58.3 123.0 L 58.3 146.0 L 69.6 146.0 L 79.6 136.0 L 91.6 146.0 L 91.6 150.0 L 58.3 150.0 L 58.3 183.0 L 46.3 189.0 L 46.3 150.0 L 12.9 150.0 L 12.9 146.0 L 46.3 146.0 L 46.3 123.0 L 33.5 123.0 L 33.5 130.0 L 21.5 136.0 L 21.5 57.0 L 33.5 63.0 L 46.3 63.0 L 46.3 44.0 L 14.6 44.0 L 14.6 40.0 L 46.3 40.0 L 46.3 13.0 L 58.3 15.0 L 61.3 17.0 L 58.3 18.8 L 58.3 40.0 L 67.9 40.0 L 77.9 30.0 L 89.9 40.0 L 89.9 44.0 L 58.3 44.0 L 58.3 63.0 L 71.0 63.0 L 77.0 58.0 L 88.0 67.0 L 124.2 67.0 L 124.2 28.0 L 96.6 28.0 L 96.6 24.0 L 158.6 24.0 L 164.6 19.0 L 175.6 28.0 L 170.6 32.0 L 170.6 67.0 L 174.37777776718139 67.0 L 180.6 60.0 L 188.6 67.0 L 188.6 71.0 L 170.6 71.0 L 170.6 120.0 L 158.6 126.0 L 158.6 114.0 L 135.54426231384278 114.0 L 135.4 116.2 L 133.9 127.6 L 131.5 138.2 L 128.2 148.0 L 124.1 157.0 L 119.1 165.1 L 113.3 172.3 L 106.7 178.5 L 99.2 183.7 L 91.0 187.7 L 90.2 186.2 L 97.0 180.6 L 103.0 174.6 L 108.2 168.2 L 112.7 161.1 L 116.4 153.4 L 119.4 145.0 L 121.7 135.9 L 123.3 126.0 L 124.1 115.4 L 124.11228065490722 114.0 L 94.0 114.0 L 94.0 110.0 L 124.14736843109131 110.0 L 124.2 104.0 L 124.2 71.0 Z " />
</g>
</svg>
