<svg xmlns="http://www.w3.org/2000/svg" xmlns:xlink="http://www.w3.org/1999/xlink" version="1.1" baseProfile="full" viewBox="0 0 200 200" width="200" height="200">
<g fill="black">
<path d="M 53.0 15.0 L 55.5 17.0 L 53.0 18.66666669845581 L 53.0 40.0 L 61.2 40.0 L 71.2 30.0 L 83.2 40.0 L 83.2 44.0 L 53.0 44.0 L 53.0 63.0 L 65.7 63.0 L 71.2 58.0 L 81.7 67.0 L 76.7 70.5 L 76.7 127.0 L 65.7 132.5 L 65.7 123.0 L 53.0 123.0 L 53.0 146.0 L 62.8 146.0 L 72.8 136.0 L 84.8 146.0 L 84.8 150.0 L 53.0 150.0 L 53.0 183.5 L 43.0 188.5 L 43.0 150.0 L 11.2 150.0 L 11.2 146.0 L 43.0 146.0 L 43.0 123.0 L 30.3 123.0 L 30.3 130.0 L 19.3 135.5 L 19.3 57.5 L 30.3 63.0 L 43.0 63.0 L 43.0 44.0 L 12.8 44.0 L 12.8 40.0 L 43.0 40.0 L 43.0 13.0 Z M 83.2 185.3 L 82.3 180.8 L 84.7 176.9 L 86.2 176.2 L 87.7 175.1 L 89.2 173.6 L 90.7 171.7 L 92.2 169.3 L 93.6 166.5 L 94.9 163.2 L 96.1 159.5 L 97.2 155.4 L 97.9 150.9 L 99.7 151.0 L 100.0 155.6 L 100.3 160.1 L 100.3 164.2 L 100.0 168.1 L 99.5 171.8 L 98.6 175.3 L 97.4 178.5 L 95.9 181.5 L 94.0 184.3 L 91.6 186.7 L 87.1 187.7 Z M 175.4 176.6 L 174.7 173.8 L 173.8 170.9 L 172.7 168.0 L 171.4 165.0 L 169.9 161.9 L 168.1 158.7 L 166.2 155.3 L 163.9 152.1 L 165.2 150.8 L 168.3 153.4 L 171.5 155.9 L 174.4 158.5 L 177.0 161.2 L 179.4 164.0 L 181.5 166.9 L 183.5 169.9 L 185.1 173.0 L 186.6 176.1 L 187.8 179.4 L 186.9 183.8 L 183.2 186.5 L 178.7 185.6 L 176.1 181.9 L 175.8 179.2 Z M 145.9 174.6 L 145.7 172.1 L 145.3 169.6 L 144.7 167.0 L 144.0 164.3 L 143.0 161.5 L 141.9 158.7 L 140.6 155.7 L 138.8 152.9 L 140.2 151.7 L 142.6 154.1 L 145.2 156.3 L 147.6 158.7 L 149.7 161.2 L 151.6 163.8 L 153.3 166.5 L 154.7 169.4 L 156.0 172.3 L 157.0 175.4 L 157.7 178.5 L 156.2 182.8 L 152.2 184.9 L 147.9 183.5 L 145.7 179.4 L 145.9 177.0 Z M 122.4 184.9 L 118.3 182.8 L 116.8 178.5 L 117.3 176.2 L 117.7 173.8 L 117.9 171.4 L 118.0 168.9 L 117.9 166.4 L 117.7 163.8 L 117.3 161.2 L 116.1 155.6 L 114.9 152.9 L 116.4 151.9 L 118.3 154.3 L 120.3 156.7 L 122.2 159.1 L 123.7 161.7 L 125.1 164.4 L 126.3 167.3 L 127.3 170.2 L 128.0 173.2 L 128.5 176.2 L 128.8 179.4 L 126.7 183.5 Z M 123.61989526748657 135.63560209274291 L 121.0 136.8 L 117.2 138.2 L 113.4 139.5 L 109.4 140.8 L 105.3 142.1 L 101.1 143.3 L 96.8 144.5 L 92.4 145.6 L 92.0258581161499 145.6997712135315 L 90.4 149.4 L 87.9 146.8 L 83.9 135.3 L 85.8 134.9 L 90.4 134.5 L 94.9 134.1 L 94.96599998474122 134.0925000190735 L 98.0 130.3 L 101.5 125.8 L 104.8 121.4 L 107.46644477844238 117.57809591293335 L 105.7 118.1 L 101.7 116.0 L 100.7 114.2 L 99.6 112.5 L 98.4 110.7 L 97.1 109.0 L 95.6 107.2 L 94.0 105.4 L 92.4 103.7 L 90.6 101.9 L 88.6 100.0 L 86.4 98.6 L 87.2 97.0 L 89.7 97.9 L 92.4 98.5 L 95.0 99.3 L 96.72266006469727 99.89630546569825 L 97.8 98.4 L 99.1 95.8 L 100.4 93.3 L 101.6 90.9 L 102.7 88.5 L 103.8 86.2 L 104.8 84.0 L 105.7 81.9 L 106.5 79.9 L 106.8885220527649 78.78993711471557 L 106.7 78.7 L 107.7 77.0 L 117.6 83.9 L 119.1 87.2 L 114.65789470672607 87.2 L 114.3 87.6 L 112.5 89.4 L 110.6 91.2 L 106.6 94.8 L 104.4 96.6 L 102.1 98.4 L 99.6 100.1 L 98.83437929153442 100.76575717926025 L 100.0 101.3 L 102.3 102.5 L 104.6 103.8 L 106.8 105.2 L 108.9 106.7 L 110.9 108.3 L 111.66666669845581 110.89487180709838 L 113.2 108.3 L 115.6 104.0 L 117.7 99.6 L 119.20974760055542 96.10374240875244 L 119.2 96.1 L 119.28333330154419 95.9333333015442 L 119.6 95.2 L 119.64029846191406 95.21940298080445 L 120.2 94.1 L 130.4 100.4 L 132.3 103.6 L 128.32037105560303 103.94307146072387 L 127.7 105.0 L 124.8 109.5 L 121.6 113.9 L 118.1 118.2 L 114.4 122.4 L 110.5 126.4 L 106.3 130.3 L 102.77489681243897 133.27675380706788 L 103.6 133.2 L 107.8 132.9 L 112.0 132.5 L 120.0 132.1 L 122.46431589126587 132.03681240081787 L 122.1 131.1 L 121.4 129.2 L 120.5 127.3 L 118.7 123.3 L 117.2 121.7 L 118.4 120.4 L 120.2 121.7 L 122.3 122.8 L 124.3 124.0 L 126.2 125.3 L 128.0 126.8 L 129.7 128.4 L 131.4 130.1 L 132.9 131.9 L 134.4 133.8 L 135.8 135.8 L 135.8 140.4 L 132.6 143.7 L 128.1 143.6 L 124.8 140.5 L 124.4 138.6 Z M 180.9 96.5 L 182.5 99.8 L 178.7207547187805 99.8 L 177.4 101.8 L 173.7 106.8 L 170.1 111.7 L 166.4 116.4 L 162.7 120.9 L 159.0 125.1 L 155.2 129.2 L 152.04210529327392 132.35789470672609 L 157.2 132.1 L 161.3 132.0 L 165.5 131.8 L 169.8 131.7 L 174.2 131.8 L 174.84739627838135 131.7856134414673 L 174.5 130.7 L 172.5 125.7 L 171.3 123.1 L 170.0 120.4 L 168.2 117.9 L 169.5 116.7 L 171.9 118.7 L 174.4 120.6 L 176.7 122.6 L 178.9 124.7 L 180.9 126.9 L 182.8 129.2 L 184.5 131.6 L 186.1 134.0 L 187.5 136.6 L 188.8 139.2 L 188.2 143.7 L 184.7 146.6 L 180.1 146.1 L 177.2 142.5 L 176.9 140.2 L 176.5 137.9 L 176.0 135.6 L 175.70188674926757 134.57789754867554 L 170.6 136.4 L 166.5 137.8 L 162.4 139.0 L 158.4 140.1 L 154.5 141.2 L 150.6 142.1 L 146.8 143.1 L 143.51044778823854 143.8791045188904 L 141.7 147.5 L 139.3 144.8 L 135.8 133.1 L 137.8 132.9 L 141.5 132.8 L 145.29765138626098 132.6001235961914 L 147.2 129.5 L 150.1 125.1 L 155.7990206718445 116.06017408370971 L 152.2 116.7 L 148.4 114.2 L 147.9 112.7 L 147.2 111.1 L 146.3 109.5 L 145.2 107.8 L 144.0 106.1 L 142.6 104.3 L 141.0 102.5 L 139.2 100.6 L 137.3 98.6 L 134.9 97.0 L 135.8 95.4 L 138.4 96.6 L 141.2 97.3 L 143.8 98.2 L 145.795721244812 99.07811737060547 L 148.0 94.5 L 149.3 91.9 L 150.5 89.4 L 152.7 84.4 L 154.7 79.4 L 155.2396484375 77.9609375 L 155.1 77.9 L 156.1 76.0 L 166.1 82.7 L 167.8 85.9 L 163.54354839324952 86.04677419662475 L 162.6 87.2 L 160.7 89.5 L 158.7 91.6 L 154.5 95.8 L 152.2 97.8 L 149.9 99.7 L 148.78649425506592 100.50172414779664 L 150.8 101.6 L 152.9 102.9 L 154.9 104.4 L 156.7 105.9 L 158.4 107.5 L 158.98514289855956 110.791428565979 L 161.8 106.1 L 164.7 101.0 L 167.7 95.7 L 171.2 89.4 Z M 30.3 94.0 L 30.3 119.0 L 43.0 119.0 L 43.0 94.0 Z M 53.0 94.0 L 53.0 119.0 L 65.7 119.0 L 65.7 94.0 Z M 30.3 67.0 L 30.3 90.0 L 43.0 90.0 L 43.0 67.0 Z M 53.0 67.0 L 53.0 90.0 L 65.7 90.0 L 65.7 67.0 Z M 106.7 19.8 L 162.2 19.8 L 168.2 14.8 L 179.2 23.8 L 174.2 27.8 L 174.2 70.8 L 162.2 76.8 L 162.2 70.8 L 106.7 70.8 L 94.7 76.8 L 94.7 13.8 Z M 106.7 47.3 L 106.7 66.8 L 162.2 66.8 L 162.2 47.3 Z M 106.7 23.8 L 106.7 43.3 L 162.2 43.3 L 162.2 23.8 Z " />
</g>
</svg>
