<svg xmlns="http://www.w3.org/2000/svg" xmlns:xlink="http://www.w3.org/1999/xlink" version="1.1" baseProfile="full" viewBox="0 0 200 200" width="200" height="200">
<g fill="black">
<path d="M 167.1 52.5 L 169.5 55.2 L 165.71369724273683 56.26282186508179 L 165.7 56.3 L 164.2 60.3 L 162.6 64.3 L 160.9 68.5 L 159.1 72.7 L 157.2 77.1 L 155.2 81.5 L 153.0 86.0 L 150.6 90.6 L 149.2723403930664 93.0 L 166.0 93.0 L 176.0 83.0 L 188.0 93.0 L 188.0 97.0 L 143.0 97.0 L 143.0 131.0 L 160.0 131.0 L 170.0 121.0 L 182.0 131.0 L 182.0 135.0 L 143.0 135.0 L 143.0 183.0 L 131.0 189.0 L 131.0 135.0 L 92.0 135.0 L 92.0 131.0 L 131.0 131.0 L 131.0 97.0 L 86.0 97.0 L 86.0 93.0 L 146.57692308425902 93.0 L 147.2 89.4 L 148.2 84.4 L 149.2 79.5 L 150.2 74.7 L 152.2 65.7 L 153.1 61.4 L 154.0 57.3 L 154.8 53.2 L 155.32979040145875 50.32399482727051 L 155.2 50.3 L 155.9 47.7 Z M 58.6 15.0 L 61.6 17.0 L 58.6 18.8 L 58.6 40.0 L 68.4 40.0 L 78.4 30.0 L 90.4 40.0 L 90.4 44.0 L 58.6 44.0 L 58.6 63.0 L 71.5 63.0 L 77.5 58.0 L 88.5 67.0 L 83.5 71.0 L 83.5 127.0 L 71.5 133.0 L 71.5 123.0 L 58.6 123.0 L 58.6 146.0 L 70.1 146.0 L 80.1 136.0 L 92.1 146.0 L 92.1 150.0 L 58.6 150.0 L 58.6 183.0 L 46.6 189.0 L 46.6 150.0 L 13.0 150.0 L 13.0 146.0 L 46.6 146.0 L 46.6 123.0 L 33.6 123.0 L 33.6 130.0 L 21.6 136.0 L 21.6 57.0 L 33.6 63.0 L 46.6 63.0 L 46.6 44.0 L 14.7 44.0 L 14.7 40.0 L 46.6 40.0 L 46.6 13.0 Z M 33.6 94.0 L 33.6 119.0 L 46.6 119.0 L 46.6 94.0 Z M 58.6 94.0 L 58.6 119.0 L 71.5 119.0 L 71.5 94.0 Z M 115.5 77.9 L 115.0 74.1 L 114.4 70.4 L 113.7 66.7 L 112.9 63.1 L 112.1 59.6 L 110.3 52.6 L 109.1 49.3 L 110.6 48.3 L 113.0 51.2 L 115.3 54.1 L 117.5 57.3 L 119.4 60.6 L 121.2 64.1 L 122.9 67.8 L 124.4 71.7 L 125.7 75.7 L 127.0 79.8 L 128.0 84.1 L 126.9 88.5 L 123.0 90.9 L 118.6 89.8 L 116.2 85.9 L 115.9 81.9 Z M 33.6 67.0 L 33.6 90.0 L 46.6 90.0 L 46.6 67.0 Z M 58.6 67.0 L 58.6 90.0 L 71.5 90.0 L 71.5 67.0 Z M 93.8 41.0 L 131.0 41.0 L 131.0 13.0 L 143.0 15.0 L 146.0 17.0 L 143.0 18.8 L 143.0 41.0 L 158.2 41.0 L 168.2 31.0 L 180.2 41.0 L 180.2 45.0 L 93.8 45.0 Z " />
</g>
</svg>
