<svg xmlns="http://www.w3.org/2000/svg" xmlns:xlink="http://www.w3.org/1999/xlink" version="1.1" baseProfile="full" viewBox="0 0 200 200" width="200" height="200">
<g fill="black">
<path d="M 57.1 15.0 L 60.1 17.0 L 57.1 18.8 L 57.1 40.0 L 65.8 40.0 L 75.8 30.0 L 87.8 40.0 L 87.8 44.0 L 57.1 44.0 L 57.1 63.0 L 69.3 63.0 L 75.3 58.0 L 86.3 67.0 L 81.3 71.0 L 81.3 127.0 L 69.3 133.0 L 69.3 123.0 L 57.1 123.0 L 57.1 146.0 L 67.5 146.0 L 77.5 136.0 L 89.5 146.0 L 89.5 150.0 L 57.1 150.0 L 57.1 183.0 L 45.1 189.0 L 45.1 150.0 L 12.6 150.0 L 12.6 146.0 L 45.1 146.0 L 45.1 123.0 L 32.8 123.0 L 32.8 130.0 L 20.8 136.0 L 20.8 57.0 L 32.8 63.0 L 45.1 63.0 L 45.1 44.0 L 14.3 44.0 L 14.3 40.0 L 45.1 40.0 L 45.1 13.0 Z M 139.8 174.8 L 151.8 174.8 L 153.1 174.7 L 154.0 174.5 L 154.9 174.2 L 155.1 174.0 L 155.2 173.8 L 155.4 173.5 L 155.6 172.9 L 155.8 172.0 L 155.8 151.2 L 117.1 151.2 L 117.1 181.6 L 105.1 187.6 L 105.1 91.6 L 117.1 97.6 L 155.8 97.6 L 161.8 92.6 L 170.83217210769652 99.98995904922485 L 171.0 99.3 L 171.8 95.7 L 172.6 92.3 L 173.3 89.1 L 174.0 86.1 L 174.6 83.3 L 175.2 80.6 L 175.36000003814698 79.6 L 97.93090906143189 79.6 L 98.1 82.7 L 98.1 87.8 L 98.0 92.5 L 97.6 96.9 L 96.9 100.8 L 96.0 104.4 L 94.7 107.7 L 93.0 110.7 L 88.9 112.7 L 84.5 111.4 L 82.5 107.3 L 83.9 102.9 L 85.0 101.9 L 86.3 100.2 L 87.5 97.8 L 88.8 94.8 L 89.9 91.2 L 91.0 87.0 L 92.0 82.3 L 92.9 77.0 L 93.8 71.1 L 94.5 64.8 L 96.3 64.7 L 97.1 71.2 L 97.61333332061767 75.6 L 102.5 75.6 L 102.5 16.0 L 114.5 22.0 L 158.4 22.0 L 164.4 17.0 L 175.4 26.0 L 170.4 30.0 L 170.4 75.6 L 175.7 75.6 L 181.7 70.6 L 192.7 79.6 L 187.7 82.6 L 185.13318386077881 83.66950674057007 L 184.9 84.1 L 183.6 86.6 L 182.1 89.3 L 180.5 92.0 L 178.7 94.9 L 176.9 97.9 L 174.9 101.0 L 172.6 104.1 L 170.6 107.6 L 168.9 106.9 L 169.78979587554932 104.00816326141357 L 167.8 105.6 L 167.8 170.8 L 167.7 173.3 L 167.2 175.8 L 166.4 178.2 L 165.2 180.5 L 163.6 182.5 L 161.5 184.2 L 159.3 185.4 L 156.9 186.2 L 154.4 186.6 L 151.8 186.8 L 151.8 180.8 L 139.8 177.8 Z M 117.1 126.4 L 117.1 147.2 L 155.8 147.2 L 155.8 126.4 Z M 117.1 101.6 L 117.1 122.4 L 155.8 122.4 L 155.8 101.6 Z M 32.8 94.0 L 32.8 119.0 L 45.1 119.0 L 45.1 94.0 Z M 57.1 94.0 L 57.1 119.0 L 69.3 119.0 L 69.3 94.0 Z M 32.8 67.0 L 32.8 90.0 L 45.1 90.0 L 45.1 67.0 Z M 57.1 67.0 L 57.1 90.0 L 69.3 90.0 L 69.3 67.0 Z M 114.5 26.0 L 114.5 75.6 L 129.3 75.6 L 129.3 39.0 L 141.3 45.0 L 158.4 45.0 L 158.4 26.0 Z M 141.3 49.0 L 141.3 75.6 L 158.4 75.6 L 158.4 49.0 Z " />
</g>
</svg>
