<svg xmlns="http://www.w3.org/2000/svg" xmlns:xlink="http://www.w3.org/1999/xlink" version="1.1" baseProfile="full" viewBox="0 0 200 200" width="200" height="200">
<g fill="black">
<path d="M 151.1 178.9 L 141.9 174.8 L 133.3 169.9 L 125.6 164.4 L 123.86136360168457 162.83522729873658 L 117.8 165.0 L 109.4 167.8 L 100.9 170.4 L 92.4 172.8 L 83.8 175.1 L 75.3 177.3 L 58.1 181.5 L 49.6 183.4 L 45.0340292930603 184.40876092910767 L 43.5 187.9 L 41.0 185.3 L 36.9 173.8 L 38.9 173.4 L 47.5 172.2 L 56.1 170.9 L 62.0 170.01839084625243 L 62.0 127.2 L 40.97142858505249 127.2 L 40.4 132.8 L 38.8 142.0 L 36.8 150.6 L 34.3 158.5 L 31.2 165.7 L 27.6 172.2 L 23.5 178.0 L 18.8 183.0 L 13.6 187.0 L 12.3 185.7 L 15.9 180.5 L 19.0 175.0 L 21.8 169.2 L 24.2 162.8 L 26.1 155.9 L 27.7 148.5 L 28.9 140.4 L 29.7 131.8 L 30.0 122.5 L 30.0 79.4 L 42.0 85.4 L 154.8181818008423 85.4 L 163.0 76.4 L 173.0 85.4 L 173.0 89.4 L 42.0 89.4 L 42.0 103.8 L 143.8181818008423 103.8 L 152.0 94.8 L 162.0 103.8 L 162.0 107.8 L 42.0 107.8 L 42.0 112.6 L 41.4 123.0 L 41.37959184646606 123.2 L 156.0 123.2 L 166.0 113.2 L 178.0 123.2 L 178.0 127.2 L 102.22631578445434 127.2 L 106.4 133.3 L 111.9 140.1 L 117.8 146.4 L 124.2 151.9 L 125.59227962493897 152.9032603263855 L 127.3 151.6 L 130.9 148.6 L 134.4 145.9 L 137.9 143.3 L 141.2 140.8 L 144.4 138.4 L 147.4 136.0 L 150.4 133.8 L 153.2 131.6 L 155.063534450531 130.08156452178955 L 155.0 130.0 L 155.07065496444702 130.0757625579834 L 155.9 129.4 L 159.15 134.45 L 163.3 138.9 L 163.4 142.4 L 159.6666666984558 140.86666669845582 L 156.0 142.7 L 152.5 144.4 L 149.0 146.0 L 145.3 147.7 L 141.4 149.4 L 137.4 151.1 L 133.3 152.8 L 128.9 154.4 L 128.09265098571777 154.70499849319458 L 131.0 156.8 L 138.5 161.1 L 146.5 164.7 L 155.0 167.8 L 164.3 170.2 L 174.1 172.1 L 183.6 173.8 L 171.8 185.0 L 161.1 182.3 Z M 74.0 127.2 L 74.0 168.10344829559327 L 82.1 166.8 L 90.7 165.4 L 108.1 162.6 L 116.9 161.3 L 121.51463413238525 160.7231707572937 L 118.6 158.1 L 112.4 151.2 L 107.1 143.6 L 102.8 135.4 L 99.75955057144165 127.2 Z M 34.0 78.8 L 34.0 36.3 L 46.0 42.3 L 74.0 42.3 L 74.0 26.8 L 17.0 26.8 L 17.0 22.8 L 161.0 22.8 L 171.0 12.8 L 183.0 22.8 L 183.0 26.8 L 126.0 26.8 L 126.0 42.3 L 154.0 42.3 L 160.0 37.3 L 171.0 46.3 L 166.0 50.3 L 166.0 72.8 L 154.0 78.8 L 154.0 72.8 L 46.0 72.8 Z M 46.0 46.3 L 46.0 68.8 L 74.0 68.8 L 74.0 46.3 Z M 86.0 46.3 L 86.0 68.8 L 114.0 68.8 L 114.0 46.3 Z M 126.0 46.3 L 126.0 68.8 L 154.0 68.8 L 154.0 46.3 Z M 86.0 26.8 L 86.0 42.3 L 114.0 42.3 L 114.0 26.8 Z " />
</g>
</svg>
