<svg xmlns="http://www.w3.org/2000/svg" xmlns:xlink="http://www.w3.org/1999/xlink" version="1.1" baseProfile="full" viewBox="0 0 200 200" width="200" height="200">
<g fill="black">
<path d="M 130.1 183.7 L 111.8 182.6 L 96.7 180.8 L 84.5 178.1 L 74.7 174.6 L 66.9 170.3 L 60.8 165.3 L 56.2 159.6 L 54.044444465637206 155.8277777671814 L 54.03333330154419 155.8333333015442 L 48.2 161.5 L 44.6 164.6 L 41.1 167.6 L 37.5 170.5 L 33.9 173.3 L 30.3 176.0 L 26.8 178.7 L 23.3 181.2 L 23.219141960144043 181.2554455757141 L 23.0 185.2 L 19.8 183.6 L 12.0 174.3 L 13.7 173.3 L 17.5 171.4 L 21.3 169.6 L 25.1 167.6 L 29.0 165.6 L 33.0 163.6 L 37.0 161.5 L 43.7 158.15 L 43.7 109.0 L 13.9 109.0 L 13.9 105.0 L 43.7 105.0 L 49.7 100.0 L 60.7 109.0 L 55.7 113.0 L 55.7 153.6754716873169 L 59.3 156.8 L 64.6 160.8 L 70.5 164.1 L 77.6 166.8 L 86.7 169.0 L 98.1 170.6 L 112.5 171.6 L 130.3 171.9 L 151.9 171.5 L 177.8 170.4 L 189.1 169.9 L 178.3 183.5 L 152.1 184.0 Z M 95.7 153.4 L 115.7 153.4 L 116.9 153.3 L 117.8 153.1 L 118.4 152.9 L 118.8 152.8 L 118.9 152.6 L 119.1 152.4 L 119.3 152.1 L 119.5 151.5 L 119.6 150.6 L 119.7 149.4 L 119.7 124.94081630706788 L 115.4 128.1 L 110.5 131.4 L 105.5 134.5 L 100.5 137.5 L 95.4 140.4 L 85.2 145.8 L 80.0 148.4 L 74.9 151.0 L 73.50637712478638 151.68314847946166 L 72.7 155.5 L 69.8 153.5 L 63.3 143.1 L 65.2 142.3 L 70.5 140.5 L 75.8 138.6 L 81.1 136.6 L 86.5 134.7 L 91.8 132.6 L 97.2 130.6 L 102.7 128.6 L 108.1 126.6 L 113.7 124.7 L 119.4 122.9 L 119.7 123.4333333015442 L 119.7 83.3 L 131.7 85.3 L 134.7 87.3 L 131.7 89.1 L 131.7 118.73333330154419 L 134.1 119.3 L 140.9 121.2 L 144.02380952835082 122.27380952835082 L 145.2 120.6 L 147.7 116.9 L 150.1 113.3 L 152.6 109.8 L 154.9 106.3 L 157.2 102.9 L 159.4 99.6 L 161.5 96.2 L 163.5 92.9 L 164.97317504882812 90.542919921875 L 164.9 90.5 L 165.9 89.0 L 175.3 96.6 L 176.6 99.9 L 172.6736125946045 99.62921466827393 L 169.9 102.7 L 167.1 105.7 L 164.2 108.7 L 161.1 111.6 L 157.9 114.5 L 154.6 117.4 L 151.2 120.2 L 147.5 122.9 L 146.9564971923828 123.28192090988159 L 147.3 123.4 L 153.3 125.8 L 159.0 128.3 L 164.4 131.0 L 169.4 133.8 L 174.1 136.8 L 178.4 139.9 L 182.5 143.1 L 184.2 147.3 L 182.6 151.6 L 178.4 153.4 L 174.1 151.7 L 171.0 148.5 L 167.6 145.3 L 163.7 142.1 L 159.5 138.9 L 154.9 135.7 L 149.9 132.5 L 144.5 129.3 L 138.8 126.1 L 132.7 122.8 L 131.7 122.253125 L 131.7 149.4 L 131.5 151.9 L 131.1 154.4 L 130.3 156.8 L 129.1 159.1 L 127.4 161.1 L 125.4 162.7 L 123.1 164.0 L 120.7 164.8 L 118.2 165.2 L 115.7 165.4 L 115.7 159.4 L 95.7 156.4 Z M 92.5 112.7 L 90.9 110.5 L 89.2 108.2 L 87.1 105.9 L 84.9 103.6 L 82.4 101.2 L 79.8 98.9 L 76.9 96.4 L 73.6 94.2 L 74.4 92.6 L 78.2 93.9 L 81.9 95.1 L 85.5 96.6 L 88.8 98.1 L 91.9 99.8 L 94.9 101.7 L 97.7 103.7 L 100.3 105.8 L 102.7 108.1 L 104.9 110.5 L 105.7 115.0 L 103.3 118.8 L 98.8 119.6 L 94.9 117.2 L 93.8 115.0 Z M 169.8 33.3 L 164.8 37.3 L 164.8 52.6 L 167.37777776718139 52.6 L 173.6 45.6 L 181.6 52.6 L 181.6 56.6 L 164.8 56.6 L 164.8 81.3 L 152.8 87.3 L 152.8 81.3 L 78.4 81.3 L 78.4 77.3 L 152.8 77.3 L 152.8 56.6 L 65.0 56.6 L 65.0 52.6 L 152.8 52.6 L 152.8 33.3 L 79.7 33.3 L 79.7 29.3 L 152.8 29.3 L 158.8 24.3 Z M 38.1 77.2 L 35.9 74.7 L 33.5 72.1 L 31.0 69.7 L 28.3 67.3 L 25.6 65.0 L 22.7 62.6 L 19.7 60.3 L 16.4 58.2 L 17.1 56.5 L 21.0 57.6 L 24.8 58.6 L 28.5 60.0 L 32.1 61.5 L 35.6 63.3 L 38.9 65.2 L 42.2 67.3 L 45.3 69.6 L 48.3 72.1 L 51.3 74.7 L 52.7 79.1 L 50.7 83.2 L 46.3 84.6 L 42.2 82.6 L 40.2 79.9 Z M 45.7 39.3 L 43.6 36.8 L 41.3 34.3 L 38.9 31.8 L 36.3 29.4 L 33.5 26.9 L 30.6 24.4 L 27.3 22.2 L 28.1 20.6 L 31.9 21.9 L 35.7 23.1 L 39.4 24.6 L 42.8 26.3 L 46.2 28.1 L 49.4 30.2 L 52.4 32.4 L 55.3 34.7 L 58.1 37.3 L 60.7 40.0 L 61.7 44.4 L 59.5 48.4 L 55.0 49.4 L 51.1 47.1 L 47.7 41.9 Z " />
</g>
</svg>
