<svg xmlns="http://www.w3.org/2000/svg" xmlns:xlink="http://www.w3.org/1999/xlink" version="1.1" baseProfile="full" viewBox="0 0 200 200" width="200" height="200">
<g fill="black">
<path d="M 130.1 183.7 L 111.8 182.6 L 96.7 180.8 L 84.5 178.1 L 74.7 174.6 L 66.9 170.3 L 60.8 165.3 L 56.2 159.6 L 54.044444465637206 155.8277777671814 L 54.03333330154419 155.8333333015442 L 48.2 161.5 L 44.6 164.6 L 41.1 167.6 L 37.5 170.5 L 33.9 173.3 L 30.3 176.0 L 26.8 178.7 L 23.3 181.2 L 23.219141960144043 181.2554455757141 L 23.0 185.2 L 19.8 183.6 L 12.0 174.3 L 13.7 173.3 L 17.5 171.4 L 21.3 169.6 L 25.1 167.6 L 29.0 165.6 L 33.0 163.6 L 37.0 161.5 L 43.7 158.15 L 43.7 109.0 L 13.9 109.0 L 13.9 105.0 L 43.7 105.0 L 49.7 100.0 L 60.7 109.0 L 55.7 113.0 L 55.7 153.6754716873169 L 59.3 156.8 L 64.6 160.8 L 70.5 164.1 L 77.6 166.8 L 86.7 169.0 L 98.1 170.6 L 112.5 171.6 L 130.3 171.9 L 151.9 171.5 L 177.8 170.4 L 189.1 169.9 L 178.3 183.5 L 152.1 184.0 Z M 92.3 111.2 L 157.6 111.2 L 163.6 106.2 L 174.6 115.2 L 169.6 119.2 L 169.6 157.5 L 157.6 163.5 L 157.6 153.5 L 92.3 153.5 L 92.3 160.5 L 80.3 166.5 L 80.3 105.2 Z M 92.3 134.4 L 92.3 149.5 L 157.6 149.5 L 157.6 134.4 Z M 92.3 115.2 L 92.3 130.4 L 157.6 130.4 L 157.6 115.2 Z M 90.4 49.4 L 159.5 49.4 L 165.0 44.4 L 175.5 53.4 L 170.5 56.9 L 170.5 99.6 L 159.5 105.1 L 159.5 99.6 L 90.4 99.6 L 79.4 105.1 L 79.4 43.9 Z M 90.4 53.4 L 90.4 95.6 L 159.5 95.6 L 159.5 53.4 Z M 113.9 63.8 L 136.0 63.8 L 141.5 58.8 L 152.0 67.8 L 147.0 71.3 L 147.0 83.7 L 136.0 89.2 L 136.0 83.7 L 113.9 83.7 L 102.9 89.2 L 102.9 58.3 Z M 38.1 77.2 L 35.9 74.7 L 33.5 72.1 L 31.0 69.7 L 28.3 67.3 L 25.6 65.0 L 22.7 62.6 L 19.7 60.3 L 16.4 58.2 L 17.1 56.5 L 21.0 57.6 L 24.8 58.6 L 28.5 60.0 L 32.1 61.5 L 35.6 63.3 L 38.9 65.2 L 42.2 67.3 L 45.3 69.6 L 48.3 72.1 L 51.3 74.7 L 52.7 79.1 L 50.7 83.2 L 46.3 84.6 L 42.2 82.6 L 40.2 79.9 Z M 113.9 67.8 L 113.9 79.7 L 136.0 79.7 L 136.0 67.8 Z M 45.7 39.3 L 43.6 36.8 L 41.3 34.3 L 38.9 31.8 L 36.3 29.4 L 33.5 26.9 L 30.6 24.4 L 27.3 22.2 L 28.1 20.6 L 31.9 21.9 L 35.7 23.1 L 39.4 24.6 L 42.8 26.3 L 46.2 28.1 L 49.4 30.2 L 52.4 32.4 L 55.3 34.7 L 58.1 37.3 L 60.7 40.0 L 61.7 44.4 L 59.5 48.4 L 55.0 49.4 L 51.1 47.1 L 47.7 41.9 Z M 63.8 34.1 L 119.0 34.1 L 119.0 13.8 L 131.0 15.8 L 134.0 17.8 L 131.0 19.6 L 131.0 34.1 L 168.01818180084229 34.1 L 176.2 25.1 L 186.2 34.1 L 186.2 38.1 L 63.8 38.1 Z " />
</g>
</svg>
