<svg xmlns="http://www.w3.org/2000/svg" xmlns:xlink="http://www.w3.org/1999/xlink" version="1.1" baseProfile="full" viewBox="0 0 200 200" width="200" height="200">
<g fill="black">
<path d="M 130.1 183.7 L 111.8 182.6 L 96.7 180.8 L 84.5 178.1 L 74.7 174.6 L 66.9 170.3 L 60.8 165.3 L 56.2 159.6 L 54.044444465637206 155.8277777671814 L 54.03333330154419 155.8333333015442 L 48.2 161.5 L 44.6 164.6 L 41.1 167.6 L 37.5 170.5 L 33.9 173.3 L 30.3 176.0 L 26.8 178.7 L 23.3 181.2 L 23.219141960144043 181.2554455757141 L 23.0 185.2 L 19.8 183.6 L 12.0 174.3 L 13.7 173.3 L 17.5 171.4 L 21.3 169.6 L 25.1 167.6 L 29.0 165.6 L 33.0 163.6 L 37.0 161.5 L 43.7 158.15 L 43.7 109.0 L 13.9 109.0 L 13.9 105.0 L 43.7 105.0 L 49.7 100.0 L 60.7 109.0 L 55.7 113.0 L 55.7 153.6754716873169 L 59.3 156.8 L 64.6 160.8 L 70.5 164.1 L 77.6 166.8 L 86.7 169.0 L 98.1 170.6 L 112.5 171.6 L 130.3 171.9 L 151.9 171.5 L 177.8 170.4 L 189.1 169.9 L 178.3 183.5 L 152.1 184.0 Z M 135.8 161.0 L 123.8 167.0 L 123.8 67.24857139587402 L 121.5 70.6 L 117.7 75.4 L 113.7 79.8 L 112.2 78.8 L 116.8 68.0 L 119.2 62.5 L 121.4 56.8 L 123.6 50.9 L 123.8 50.32857141494751 L 123.8 46.5 L 124.940425491333 47.0702127456665 L 125.7 44.9 L 127.6 38.7 L 129.5 32.3 L 131.2 25.7 L 132.67168674468994 19.813253021240236 L 132.6 19.8 L 133.3 17.2 L 144.5 22.0 L 146.8 24.7 L 143.2239818572998 25.721719455718993 L 142.1 29.0 L 139.7 35.7 L 137.1 42.1 L 134.3 48.4 L 132.97823133468628 51.089115619659424 L 135.8 52.5 L 150.32307691574096 52.5 L 151.0 50.3 L 151.9 46.4 L 152.8 42.7 L 153.7 39.1 L 154.6 35.7 L 155.4 32.5 L 156.2 29.4 L 157.0 26.4 L 157.7 23.6 L 158.08810806274414 21.853513526916505 L 157.9 21.8 L 158.8 19.5 L 169.5 25.1 L 171.6 28.1 L 167.46454610824586 28.825518226623537 L 166.7 30.3 L 165.1 33.0 L 163.5 35.8 L 161.8 38.8 L 159.9 41.8 L 158.0 44.9 L 155.9 48.1 L 153.6 51.4 L 152.90857143402098 52.5 L 159.2 52.5 L 169.2 42.5 L 181.2 52.5 L 181.2 56.5 L 159.9 56.5 L 159.9 83.3 L 165.6777777671814 83.3 L 171.9 76.3 L 179.9 83.3 L 179.9 87.3 L 159.9 87.3 L 159.9 115.0 L 165.6777777671814 115.0 L 171.9 108.0 L 179.9 115.0 L 179.9 119.0 L 159.9 119.0 L 159.9 150.0 L 165.61818180084228 150.0 L 173.8 141.0 L 183.8 150.0 L 183.8 154.0 L 135.8 154.0 Z M 109.8 149.3 L 109.1 145.5 L 108.53485717773438 143.11384124755858 L 108.4 143.2 L 104.8 145.6 L 101.1 147.8 L 97.3 149.9 L 93.5 151.9 L 89.7 153.8 L 85.8 155.6 L 82.0 157.4 L 78.1 159.1 L 78.07045545578003 159.11255645751953 L 77.0 163.0 L 74.1 160.8 L 68.5 150.0 L 70.4 149.4 L 74.4 148.4 L 78.5 147.4 L 82.18155336380005 146.47961168289186 L 82.4 145.3 L 83.9 137.3 L 85.6 129.4 L 87.2 121.6 L 88.7 113.8 L 90.2 106.1 L 91.6 98.5 L 94.0 83.3 L 95.1 75.8 L 95.17015857696533 75.81308040618896 L 95.5 73.9 L 106.9 78.0 L 109.5 80.5 L 106.04312667846679 81.78032341003419 L 105.2 85.5 L 101.4 100.7 L 99.2 108.3 L 96.9 115.9 L 94.5 123.5 L 91.9 131.2 L 89.1 138.8 L 86.38667144775391 145.45203132629393 L 86.6 145.4 L 90.6 144.3 L 94.7 143.2 L 98.8 142.2 L 102.9 141.1 L 107.1 140.2 L 107.77422323226929 140.03947067260742 L 107.2 137.8 L 106.1 134.0 L 104.8 130.1 L 103.4 126.2 L 102.0 122.2 L 100.3 118.3 L 101.8 117.3 L 104.8 120.6 L 107.6 123.9 L 110.2 127.4 L 112.5 131.0 L 114.7 134.8 L 116.6 138.6 L 118.4 142.5 L 120.0 146.6 L 121.4 150.7 L 122.6 154.8 L 121.5 159.3 L 117.7 161.8 L 113.3 160.8 L 110.8 157.0 L 110.3 153.1 Z M 93.3 19.7 L 96.3 21.7 L 93.15039367675782 23.589763736724855 L 92.6 37.9 L 91.63720932006837 51.7 L 95.2 51.7 L 105.2 41.7 L 117.2 51.7 L 117.2 55.7 L 91.34037265777587 55.7 L 89.8 71.2 L 87.6 86.3 L 84.9 100.2 L 81.7 113.2 L 77.9 125.0 L 73.6 135.6 L 68.6 145.1 L 63.1 153.3 L 61.5 152.4 L 65.2 143.5 L 68.6 133.7 L 71.6 123.0 L 74.3 111.4 L 76.5 98.7 L 78.4 85.0 L 79.8 70.2 L 80.62594938278198 55.7 L 63.0 55.7 L 63.0 51.7 L 80.77988166809082 51.7 L 81.2 37.5 L 81.3 19.6 L 81.3 17.2 Z M 135.8 119.0 L 135.8 150.0 L 147.9 150.0 L 147.9 119.0 Z M 135.8 87.3 L 135.8 115.0 L 147.9 115.0 L 147.9 87.3 Z M 38.1 77.2 L 35.9 74.7 L 33.5 72.1 L 31.0 69.7 L 28.3 67.3 L 25.6 65.0 L 22.7 62.6 L 19.7 60.3 L 16.4 58.2 L 17.1 56.5 L 21.0 57.6 L 24.8 58.6 L 28.5 60.0 L 32.1 61.5 L 35.6 63.3 L 38.9 65.2 L 42.2 67.3 L 45.3 69.6 L 48.3 72.1 L 51.3 74.7 L 52.7 79.1 L 50.7 83.2 L 46.3 84.6 L 42.2 82.6 L 40.2 79.9 Z M 135.8 56.5 L 135.8 83.3 L 147.9 83.3 L 147.9 56.5 Z M 45.7 39.3 L 43.6 36.8 L 41.3 34.3 L 38.9 31.8 L 36.3 29.4 L 33.5 26.9 L 30.6 24.4 L 27.3 22.2 L 28.1 20.6 L 31.9 21.9 L 35.7 23.1 L 39.4 24.6 L 42.8 26.3 L 46.2 28.1 L 49.4 30.2 L 52.4 32.4 L 55.3 34.7 L 58.1 37.3 L 60.7 40.0 L 61.7 44.4 L 59.5 48.4 L 55.0 49.4 L 51.1 47.1 L 47.7 41.9 Z " />
</g>
</svg>
