<svg xmlns="http://www.w3.org/2000/svg" xmlns:xlink="http://www.w3.org/1999/xlink" version="1.1" baseProfile="full" viewBox="0 0 200 200" width="200" height="200">
<g fill="black">
<path d="M 163.3 153.3 L 157.1 148.4 L 151.74100637435913 142.8461338996887 L 147.2 147.6 L 140.2 153.2 L 132.6 157.9 L 124.5 161.3 L 116.0 163.6 L 115.4 161.9 L 122.9 157.9 L 129.8 153.3 L 136.1 148.1 L 141.7 142.3 L 146.73709268569945 135.9067668914795 L 142.9 129.0 L 139.7 121.1 L 137.3 112.5 L 135.7 103.3 L 135.0630000114441 94.2 L 128.5 94.2 L 128.5 90.2 L 164.3 90.2 L 170.3 85.2 L 181.3 94.2 L 176.3 97.2 L 174.8852843284607 97.7894648551941 L 172.9 104.8 L 169.0 115.2 L 164.5 124.7 L 159.3 133.3 L 158.21856288909913 134.74191617965698 L 159.1 135.7 L 164.1 139.8 L 169.5 143.2 L 175.3 145.9 L 181.7 147.9 L 189.4 150.3 L 177.8 160.6 L 170.2 157.4 Z M 92.0 152.7 L 103.5 152.7 L 104.2 152.6 L 104.7 152.5 L 104.9 152.4 L 105.0 152.3 L 105.2 152.2 L 105.4 151.8 L 105.6 151.2 L 105.8 150.3 L 106.0 149.1 L 106.0 89.58666667938232 L 103.7 90.2 L 97.5 91.7 L 91.2 93.1 L 84.99743404388428 94.35989618301392 L 84.9 97.9 L 84.2 108.1 L 83.2 117.7 L 81.8 126.5 L 80.0 134.7 L 77.8 142.1 L 75.2 148.9 L 72.2 154.8 L 68.7 160.0 L 66.92443256378174 161.86662216186522 L 70.8 164.1 L 78.0 166.8 L 87.1 169.0 L 98.6 170.6 L 113.0 171.6 L 130.9 171.9 L 152.6 171.5 L 178.7 170.4 L 190.0 169.9 L 179.2 183.5 L 152.9 184.0 L 130.7 183.7 L 112.3 182.6 L 97.2 180.8 L 85.0 178.1 L 75.1 174.6 L 67.2 170.3 L 61.1 165.3 L 56.4 159.6 L 54.27821521759033 155.8868766784668 L 52.0 158.1 L 48.4 161.5 L 44.9 164.6 L 41.3 167.7 L 37.7 170.6 L 26.9 178.7 L 23.323113918304443 181.18394861221313 L 23.1 185.2 L 19.8 183.6 L 12.1 174.3 L 13.8 173.3 L 17.6 171.4 L 21.4 169.6 L 29.2 165.6 L 33.2 163.6 L 37.2 161.5 L 44.0 158.1 L 44.0 109.0 L 14.0 109.0 L 14.0 105.0 L 44.0 105.0 L 50.0 100.0 L 61.0 109.0 L 56.0 113.0 L 56.0 153.70384616851806 L 59.5 156.8 L 64.44578008651733 160.37195224761962 L 65.4 158.1 L 67.3 152.6 L 69.0 146.7 L 70.5 140.2 L 71.6 133.0 L 72.6 125.2 L 73.2 116.7 L 73.5 107.6 L 73.5 97.7 L 73.4684754371643 96.59664087295532 L 71.8 96.9 L 69.15994491577149 97.33344192504883 L 67.4 100.8 L 65.1 98.0 L 61.6 86.4 L 63.6 86.1 L 70.3 85.6 L 73.2 85.33636360168457 L 73.2 30.7 L 85.2 36.7 L 86.45 36.7 L 86.9 35.8 L 87.5 33.3 L 88.2 30.8 L 89.4 26.0 L 89.9 23.7 L 90.4 21.5 L 90.7 19.2 L 91.0 17.1 L 91.15904159545899 15.933695220947266 L 91.0 15.9 L 91.29387750625611 14.944897937774659 L 91.3 14.9 L 91.30703363418579 14.902140712738037 L 91.8 13.3 L 102.8 18.4 L 105.0 21.2 L 100.59466667175293 22.301333332061766 L 99.0 25.0 L 97.6 27.1 L 94.4 31.3 L 92.7 33.3 L 90.9 35.2 L 89.32105264663696 36.7 L 106.0 36.7 L 111.0 31.7 L 121.0 40.7 L 116.0 43.7 L 116.0 81.61333332061767 L 120.7 81.3 L 124.47873849868775 81.17610692977905 L 125.5 79.4 L 127.4 75.5 L 129.1 71.6 L 130.4 67.6 L 131.4 63.7 L 132.2 59.7 L 132.6 55.6 L 132.7 51.4 L 132.5 47.2 L 132.5 18.8 L 144.5 24.8 L 158.1 24.8 L 164.1 19.8 L 175.1 28.8 L 170.1 32.8 L 170.1 64.7 L 170.2 65.7 L 170.3 66.4 L 170.4 66.8 L 170.5 67.1 L 170.7 67.4 L 171.1 67.7 L 171.8 68.1 L 172.8 68.3 L 174.1 68.5 L 177.0 68.5 L 182.0 51.5 L 184.0 51.5 L 182.0 68.5 L 185.0 70.5 L 187.0 73.5 L 185.0 76.5 L 182.0 78.5 L 171.7 78.5 L 169.3 78.1 L 166.9 77.5 L 164.7 76.4 L 162.7 74.9 L 161.1 73.0 L 159.8 70.8 L 158.9 68.5 L 158.4 66.1 L 158.1 63.5 L 158.1 28.8 L 144.5 28.8 L 144.5 47.2 L 144.0 52.3 L 143.1 57.2 L 141.8 62.0 L 140.1 66.5 L 138.0 70.9 L 135.5 75.0 L 132.7 78.8 L 129.5 82.4 L 125.8 85.6 L 121.9 88.6 L 120.6 87.3 L 122.34444446563721 84.6833333015442 L 121.5 85.0 L 116.0 86.80172414779663 L 116.0 147.7 L 115.9 150.0 L 115.7 152.2 L 115.1 154.3 L 114.3 156.3 L 113.2 158.2 L 111.7 159.8 L 109.8 161.1 L 107.8 162.0 L 105.7 162.5 L 103.5 162.7 L 103.5 157.7 L 92.0 155.2 Z M 98.7 100.0 L 101.2 102.0 L 98.7 103.66666669845581 L 98.7 133.1 L 88.7 138.1 L 88.7 98.0 Z M 137.1467391014099 94.2 L 139.7 102.3 L 142.9 110.7 L 146.4 118.3 L 150.2 124.9 L 151.9659273147583 127.28194847106934 L 155.5 120.3 L 159.0 111.3 L 162.0 101.5 L 163.6528302192688 94.2 Z M 38.3 77.2 L 36.1 74.7 L 33.7 72.2 L 31.2 69.7 L 28.5 67.3 L 25.7 65.0 L 22.8 62.6 L 19.8 60.3 L 16.5 58.2 L 17.2 56.5 L 21.1 57.6 L 24.9 58.6 L 28.6 60.0 L 32.2 61.5 L 35.7 63.3 L 39.1 65.2 L 42.4 67.3 L 45.5 69.6 L 48.6 72.1 L 51.5 74.7 L 52.9 79.1 L 50.9 83.2 L 46.6 84.6 L 42.5 82.6 L 40.5 79.9 Z M 85.2 40.7 L 85.2 84.33125 L 96.2 83.3 L 102.4 82.7 L 106.0 82.40967741012574 L 106.0 40.7 Z M 91.6 66.6 L 91.4 63.8 L 91.1 61.0 L 90.7 58.4 L 90.1 55.9 L 89.5 53.5 L 88.7 51.1 L 87.9 48.8 L 86.5 46.8 L 87.8 45.5 L 89.8 47.2 L 92.0 48.8 L 94.1 50.8 L 95.9 53.1 L 97.6 55.6 L 99.2 58.4 L 100.5 61.4 L 101.8 64.6 L 102.8 68.0 L 103.7 71.6 L 102.3 75.9 L 98.3 78.2 L 94.0 76.8 L 91.7 72.9 L 91.8 69.7 Z M 47.9 41.9 L 46.0 39.3 L 43.9 36.8 L 41.6 34.3 L 39.1 31.8 L 36.5 29.4 L 33.7 26.9 L 30.7 24.4 L 27.5 22.2 L 28.2 20.6 L 32.1 21.8 L 35.9 23.1 L 39.5 24.6 L 43.0 26.2 L 46.4 28.1 L 49.6 30.2 L 52.7 32.4 L 55.6 34.7 L 58.3 37.3 L 61.0 40.0 L 62.0 44.4 L 59.8 48.4 L 55.3 49.4 L 51.4 47.2 L 49.7 44.5 Z " />
</g>
</svg>
