<svg xmlns="http://www.w3.org/2000/svg" xmlns:xlink="http://www.w3.org/1999/xlink" version="1.1" baseProfile="full" viewBox="0 0 200 200" width="200" height="200">
<g fill="black">
<path d="M 130.1 183.7 L 111.8 182.6 L 96.7 180.8 L 84.5 178.1 L 74.7 174.6 L 66.9 170.3 L 60.8 165.3 L 56.2 159.6 L 54.044444465637206 155.8277777671814 L 54.03333330154419 155.8333333015442 L 48.2 161.5 L 44.6 164.6 L 41.1 167.6 L 37.5 170.5 L 33.9 173.3 L 30.3 176.0 L 26.8 178.7 L 23.3 181.2 L 23.219141960144043 181.2554455757141 L 23.0 185.2 L 19.8 183.6 L 12.0 174.3 L 13.7 173.3 L 17.5 171.4 L 21.3 169.6 L 25.1 167.6 L 29.0 165.6 L 33.0 163.6 L 37.0 161.5 L 43.7 158.15 L 43.7 109.0 L 13.9 109.0 L 13.9 105.0 L 43.7 105.0 L 49.7 100.0 L 60.7 109.0 L 55.7 113.0 L 55.7 153.6754716873169 L 59.3 156.8 L 64.6 160.8 L 70.5 164.1 L 71.61247282028198 164.52305307388306 L 74.6 163.0 L 79.5 160.4 L 84.1 157.9 L 88.4 155.5 L 92.3 153.2 L 95.9 150.9 L 99.2 148.6 L 102.2 146.3 L 104.8 144.1 L 106.36734371185302 142.6689471244812 L 106.3 142.6 L 107.2 141.9 L 114.7 151.2 L 115.1 154.8 L 111.2203966140747 153.45977334976197 L 108.0 155.3 L 104.2 157.2 L 100.2 158.9 L 95.9 160.6 L 91.3 162.2 L 86.5 163.7 L 81.3 165.1 L 76.10830125808715 166.23273429870605 L 77.6 166.8 L 86.7 169.0 L 98.1 170.6 L 112.5 171.6 L 130.3 171.9 L 151.9 171.5 L 177.8 170.4 L 189.1 169.9 L 178.3 183.5 L 152.1 184.0 Z M 160.3 163.2 L 157.7 161.2 L 154.8 159.2 L 151.6 157.2 L 148.0 155.1 L 144.2 153.1 L 140.0 150.9 L 135.5 148.7 L 130.7 146.5 L 131.2 144.8 L 136.5 145.6 L 141.5 146.4 L 146.2 147.4 L 150.7 148.6 L 154.9 149.8 L 158.8 151.2 L 162.5 152.7 L 165.9 154.2 L 169.1 155.9 L 172.1 157.8 L 174.2 161.8 L 172.9 166.2 L 168.9 168.3 L 164.5 167.0 L 162.6 165.1 Z M 96.2 120.5 L 96.2 136.2 L 150.7 136.2 L 150.7 120.5 Z M 96.2 102.1 L 96.2 116.5 L 150.7 116.5 L 150.7 102.1 Z M 96.2 83.6 L 96.2 98.1 L 150.7 98.1 L 150.7 83.6 Z M 38.1 77.2 L 35.9 74.7 L 33.5 72.1 L 31.0 69.7 L 28.3 67.3 L 25.6 65.0 L 22.7 62.6 L 19.7 60.3 L 16.4 58.2 L 17.1 56.5 L 21.0 57.6 L 24.8 58.6 L 28.5 60.0 L 32.1 61.5 L 35.6 63.3 L 38.9 65.2 L 42.2 67.3 L 45.3 69.6 L 48.3 72.1 L 51.3 74.7 L 52.7 79.1 L 50.7 83.2 L 46.3 84.6 L 42.2 82.6 L 40.2 79.9 Z M 163.1 75.5 L 157.7 71.9 L 152.5 67.9 L 147.5 63.6 L 142.8 58.9 L 138.4 53.8 L 134.2 48.3 L 130.5 42.4 L 130.0 41.43030300140381 L 130.0 72.3 L 118.0 78.3 L 118.0 47.594117641448975 L 115.7 50.3 L 110.4 55.9 L 104.8 61.0 L 99.0 65.7 L 92.9 70.0 L 86.5 73.8 L 85.55 74.275 L 96.2 79.6 L 150.7 79.6 L 156.7 74.6 L 167.7 83.6 L 162.7 87.6 L 162.7 140.2 L 150.7 146.2 L 150.7 140.2 L 96.2 140.2 L 84.2 146.2 L 84.2 74.95 L 79.9 77.1 L 73.0 79.8 L 65.8 82.0 L 65.1 80.3 L 71.3 76.4 L 77.2 72.4 L 82.9 68.3 L 88.3 63.9 L 93.5 59.2 L 98.4 54.3 L 103.1 49.0 L 107.5 43.5 L 111.6 37.6 L 112.15862064361572 36.7 L 69.6 36.7 L 69.6 32.7 L 118.0 32.7 L 118.0 14.6 L 130.0 16.6 L 133.0 18.6 L 130.0 20.4 L 130.0 32.7 L 156.4 32.7 L 166.4 22.7 L 178.4 32.7 L 178.4 36.7 L 130.50625 36.7 L 133.8 39.8 L 138.7 44.4 L 143.5 48.8 L 148.4 52.7 L 153.4 56.3 L 158.4 59.6 L 163.5 62.5 L 168.7 65.1 L 173.9 67.3 L 179.3 69.2 L 186.2 71.7 L 174.7 81.5 L 168.8 78.7 Z M 45.7 39.3 L 43.6 36.8 L 41.3 34.3 L 38.9 31.8 L 36.3 29.4 L 33.5 26.9 L 30.6 24.4 L 27.3 22.2 L 28.1 20.6 L 31.9 21.9 L 35.7 23.1 L 39.4 24.6 L 42.8 26.3 L 46.2 28.1 L 49.4 30.2 L 52.4 32.4 L 55.3 34.7 L 58.1 37.3 L 60.7 40.0 L 61.7 44.4 L 59.5 48.4 L 55.0 49.4 L 51.1 47.1 L 47.7 41.9 Z " />
</g>
</svg>
