<svg xmlns="http://www.w3.org/2000/svg" xmlns:xlink="http://www.w3.org/1999/xlink" version="1.1" baseProfile="full" viewBox="0 0 200 200" width="200" height="200">
<g fill="black">
<path d="M 54.0 175.9 L 74.0 175.9 L 75.2 175.8 L 76.1 175.7 L 76.7 175.5 L 77.0 175.3 L 77.2 175.1 L 77.4 175.0 L 77.5 174.6 L 77.7 174.0 L 77.9 173.1 L 78.0 171.9 L 78.0 120.6 L 90.0 122.6 L 93.0 124.6 L 90.0 126.4 L 90.0 171.9 L 89.8 174.4 L 89.4 176.9 L 88.6 179.3 L 87.3 181.6 L 85.7 183.6 L 83.7 185.3 L 81.4 186.5 L 79.0 187.3 L 76.5 187.7 L 74.0 187.9 L 74.0 181.9 L 54.0 178.9 Z M 17.3 174.8 L 16.8 170.2 L 19.6 166.6 L 24.1 164.3 L 28.0 161.9 L 31.5 159.6 L 34.4 157.3 L 36.9 154.9 L 38.9 152.5 L 40.6 150.0 L 41.9 147.3 L 42.9 144.4 L 43.2 141.2 L 45.0 140.9 L 45.9 144.4 L 46.4 148.0 L 46.1 151.8 L 45.1 155.6 L 43.4 159.4 L 41.0 163.1 L 38.0 166.8 L 34.4 170.3 L 30.2 173.7 L 25.5 177.0 L 21.0 177.5 Z M 169.9 166.6 L 167.6 163.8 L 164.9 160.8 L 161.8 157.8 L 158.2 154.7 L 154.3 151.5 L 150.1 148.3 L 145.4 144.8 L 140.5 141.3 L 141.2 139.7 L 147.1 141.7 L 152.6 143.8 L 157.7 146.1 L 162.4 148.6 L 166.8 151.1 L 170.8 153.8 L 174.5 156.6 L 177.8 159.5 L 180.8 162.5 L 183.4 165.7 L 184.1 170.2 L 181.6 174.0 L 177.1 174.7 L 173.3 172.1 L 171.8 169.4 Z M 126.0 165.1 L 124.5 162.1 L 122.8 159.2 L 120.7 156.2 L 118.4 153.3 L 115.8 150.3 L 113.0 147.3 L 109.9 144.3 L 106.4 141.3 L 107.3 139.8 L 111.6 141.7 L 115.7 143.6 L 119.6 145.8 L 123.2 148.1 L 126.5 150.7 L 129.6 153.5 L 132.4 156.4 L 135.0 159.6 L 137.3 162.9 L 139.3 166.3 L 139.3 170.9 L 136.1 174.2 L 131.5 174.2 L 128.3 171.0 L 127.3 168.0 Z M 130.8 121.1 L 112.5 120.3 L 97.5 119.0 L 85.4 117.2 L 75.6 114.9 L 67.9 112.1 L 61.7 108.8 L 56.9 104.9 L 54.318065547943114 101.91039171218873 L 51.6 103.6 L 48.0 106.0 L 44.3 108.2 L 40.6 110.3 L 36.9 112.3 L 29.7 116.1 L 26.0 117.9 L 22.816697788238525 119.44617538452148 L 21.8 123.4 L 18.9 121.2 L 13.0 110.6 L 14.9 109.9 L 18.6 109.0 L 22.3 108.0 L 26.2 106.9 L 30.0 105.9 L 33.9 104.8 L 37.9 103.7 L 42.0 102.7 L 44.0 102.16341466903687 L 44.0 73.3 L 14.0 73.3 L 14.0 69.3 L 44.0 69.3 L 50.0 64.3 L 61.0 73.3 L 56.0 77.3 L 56.0 99.88199996948242 L 59.3 101.4 L 64.4 103.5 L 70.3 105.3 L 77.5 106.8 L 86.7 108.0 L 98.4 108.8 L 112.9 109.3 L 130.9 109.3 L 152.7 108.9 L 178.8 108.1 L 190.3 107.8 L 179.1 121.3 L 152.8 121.5 Z M 102.5 26.9 L 102.0 25.5 L 101.4 24.1 L 100.7 22.6 L 99.8 21.0 L 98.8 19.4 L 97.6 17.7 L 96.4 15.9 L 94.7 14.5 L 95.6 13.0 L 97.6 14.1 L 99.8 14.8 L 101.8 15.6 L 103.8 16.5 L 105.7 17.5 L 107.4 18.5 L 109.1 19.7 L 110.7 20.9 L 112.2 22.3 L 113.6 23.7 L 114.0 28.3 L 112.28888893127441 30.5 L 135.88181819915772 30.5 L 136.5 29.7 L 137.9 27.3 L 139.2 25.0 L 140.6 22.7 L 142.1 20.6 L 144.9 16.4 L 146.3 14.4 L 147.6 12.5 L 148.41026544570923 11.40035400390625 L 148.3 11.3 L 149.2 10.4 L 157.2 19.4 L 157.8 22.9 L 153.4873562812805 21.744827556610108 L 153.4 21.8 L 151.4 23.1 L 149.4 24.5 L 147.3 25.8 L 142.9 28.6 L 140.6 30.0 L 139.74285717010497 30.5 L 167.3181818008423 30.5 L 175.5 21.5 L 185.5 30.5 L 185.5 34.5 L 131.08947372436523 34.5 L 129.1 36.3 L 127.4 37.8 L 121.7 42.0 L 119.7 43.3 L 117.6 44.5 L 113.9333333015442 46.5 L 155.2 46.5 L 161.2 41.5 L 172.2 50.5 L 167.2 54.5 L 167.2 100.8 L 155.2 106.8 L 155.2 100.8 L 94.4 100.8 L 82.4 106.8 L 82.4 40.5 L 94.4 46.5 L 109.0 46.5 L 109.4 46.1 L 110.7 44.0 L 113.3 40.0 L 115.7 36.2 L 116.68421049118042 34.5 L 65.7 34.5 L 65.7 30.5 L 104.28571424484252 30.5 L 103.0 29.5 L 102.8 28.2 Z M 94.4 83.1 L 94.4 96.8 L 155.2 96.8 L 155.2 83.1 Z M 94.4 66.0 L 94.4 79.1 L 155.2 79.1 L 155.2 66.0 Z M 94.4 50.5 L 94.4 62.0 L 155.2 62.0 L 155.2 50.5 Z M 39.0 54.8 L 36.8 53.1 L 34.4 51.3 L 31.8 49.6 L 29.1 48.0 L 26.2 46.3 L 23.2 44.6 L 20.1 42.8 L 16.7 41.4 L 17.1 39.7 L 20.8 40.2 L 24.5 40.5 L 28.1 41.1 L 31.5 41.8 L 34.9 42.6 L 38.1 43.5 L 41.2 44.6 L 44.2 45.8 L 47.2 47.1 L 50.0 48.5 L 52.4 52.4 L 51.4 56.9 L 47.5 59.3 L 43.0 58.3 L 41.1 56.6 Z M 48.6 32.8 L 46.7 31.1 L 44.5 29.4 L 42.2 27.7 L 39.7 25.9 L 37.0 24.2 L 34.1 22.5 L 31.0 20.6 L 27.7 19.1 L 28.2 17.4 L 31.8 18.1 L 35.5 18.5 L 39.0 19.1 L 42.3 19.9 L 45.5 20.8 L 48.6 21.8 L 51.5 22.9 L 54.3 24.1 L 59.5 26.9 L 61.6 31.0 L 60.3 35.4 L 56.2 37.5 L 51.8 36.2 L 50.3 34.5 Z " />
</g>
</svg>
