<svg xmlns="http://www.w3.org/2000/svg" xmlns:xlink="http://www.w3.org/1999/xlink" version="1.1" baseProfile="full" viewBox="0 0 200 200" width="200" height="200">
<g fill="black">
<path d="M 130.7 183.7 L 112.3 182.6 L 97.2 180.8 L 85.0 178.1 L 75.1 174.6 L 67.2 170.3 L 61.1 165.3 L 56.4 159.6 L 54.27821521759033 155.8868766784668 L 52.0 158.1 L 48.4 161.5 L 44.9 164.6 L 41.3 167.7 L 37.7 170.6 L 26.9 178.7 L 23.323113918304443 181.18394861221313 L 23.1 185.2 L 19.8 183.6 L 12.1 174.3 L 13.8 173.3 L 17.6 171.4 L 21.4 169.6 L 29.2 165.6 L 33.2 163.6 L 37.2 161.5 L 44.0 158.1 L 44.0 109.0 L 14.0 109.0 L 14.0 105.0 L 44.0 105.0 L 50.0 100.0 L 61.0 109.0 L 56.0 113.0 L 56.0 153.70384616851806 L 59.5 156.8 L 64.9 160.7 L 70.8 164.1 L 78.0 166.8 L 87.1 169.0 L 98.6 170.6 L 113.0 171.6 L 130.9 171.9 L 152.6 171.5 L 178.7 170.4 L 190.0 169.9 L 179.2 183.5 L 152.9 184.0 Z M 93.7 80.0 L 153.4 80.0 L 159.4 75.0 L 170.4 84.0 L 165.4 88.0 L 165.4 110.0 L 153.4 116.0 L 153.4 110.0 L 93.7 110.0 L 93.7 124.0 L 161.0 124.0 L 167.0 119.0 L 178.0 128.0 L 173.0 132.0 L 173.0 157.5 L 161.0 163.5 L 161.0 155.5 L 93.7 155.5 L 93.7 158.5 L 81.7 164.5 L 81.7 74.0 Z M 93.7 128.0 L 93.7 151.5 L 161.0 151.5 L 161.0 128.0 Z M 93.7 84.0 L 93.7 106.0 L 153.4 106.0 L 153.4 84.0 Z M 38.3 77.2 L 36.1 74.7 L 33.7 72.2 L 31.2 69.7 L 28.5 67.3 L 25.7 65.0 L 22.8 62.6 L 19.8 60.3 L 16.5 58.2 L 17.2 56.5 L 21.1 57.6 L 24.9 58.6 L 28.6 60.0 L 32.2 61.5 L 35.7 63.3 L 39.1 65.2 L 42.4 67.3 L 45.5 69.6 L 48.6 72.1 L 51.5 74.7 L 52.9 79.1 L 50.9 83.2 L 46.6 84.6 L 42.5 82.6 L 40.5 79.9 Z M 63.1 63.8 L 97.7 63.8 L 97.7 38.6 L 73.3 38.6 L 73.3 34.6 L 97.7 34.6 L 97.7 12.7 L 109.7 14.7 L 112.7 16.7 L 109.7 18.5 L 109.7 34.6 L 141.2 34.6 L 141.2 12.7 L 153.2 14.7 L 156.2 16.7 L 153.2 18.5 L 153.2 34.6 L 155.7 34.6 L 165.7 24.6 L 177.7 34.6 L 177.7 38.6 L 153.2 38.6 L 153.2 63.8 L 169.61818180084228 63.8 L 177.8 54.8 L 187.8 63.8 L 187.8 67.8 L 63.1 67.8 Z M 109.7 38.6 L 109.7 63.8 L 141.2 63.8 L 141.2 38.6 Z M 47.9 41.9 L 46.0 39.3 L 43.9 36.8 L 41.6 34.3 L 39.1 31.8 L 36.5 29.4 L 33.7 26.9 L 30.7 24.4 L 27.5 22.2 L 28.2 20.6 L 32.1 21.8 L 35.9 23.1 L 39.5 24.6 L 43.0 26.2 L 46.4 28.1 L 49.6 30.2 L 52.7 32.4 L 55.6 34.7 L 58.3 37.3 L 61.0 40.0 L 62.0 44.4 L 59.8 48.4 L 55.3 49.4 L 51.4 47.2 L 49.7 44.5 Z " />
</g>
</svg>
