<svg xmlns="http://www.w3.org/2000/svg" xmlns:xlink="http://www.w3.org/1999/xlink" version="1.1" baseProfile="full" viewBox="0 0 200 200" width="200" height="200">
<g fill="black">
<path d="M 130.1 183.7 L 111.8 182.6 L 96.7 180.8 L 84.5 178.1 L 74.7 174.6 L 66.9 170.3 L 60.8 165.3 L 56.2 159.6 L 54.044444465637206 155.8277777671814 L 54.03333330154419 155.8333333015442 L 48.2 161.5 L 44.6 164.6 L 41.1 167.6 L 37.5 170.5 L 33.9 173.3 L 30.3 176.0 L 26.8 178.7 L 23.3 181.2 L 23.219141960144043 181.2554455757141 L 23.0 185.2 L 19.8 183.6 L 12.0 174.3 L 13.7 173.3 L 17.5 171.4 L 21.3 169.6 L 25.1 167.6 L 29.0 165.6 L 33.0 163.6 L 37.0 161.5 L 43.7 158.15 L 43.7 109.0 L 13.9 109.0 L 13.9 105.0 L 43.7 105.0 L 49.7 100.0 L 60.7 109.0 L 55.7 113.0 L 55.7 153.6754716873169 L 59.3 156.8 L 63.82176370620728 160.21265182495117 L 70.2 156.7 L 76.6 152.9 L 82.7 149.0 L 88.4 145.0 L 93.8 140.8 L 98.7 136.4 L 103.3 131.8 L 107.4 127.0 L 111.04799995422363 122.2 L 67.1 122.2 L 67.1 118.2 L 117.7 118.2 L 117.7 101.3 L 93.8 101.3 L 93.8 104.3 L 81.8 110.3 L 81.8 66.3 L 63.8 66.3 L 63.8 62.3 L 81.8 62.3 L 81.8 45.8 L 93.8 47.8 L 96.8 49.8 L 93.8 51.6 L 93.8 62.3 L 115.6 62.3 L 115.6 45.1 L 127.6 47.1 L 130.6 49.1 L 127.6 50.9 L 127.6 62.3 L 149.5 62.3 L 149.5 45.1 L 161.5 47.1 L 164.5 49.1 L 161.5 50.9 L 161.5 62.3 L 166.9181818008423 62.3 L 175.1 53.3 L 185.1 62.3 L 185.1 66.3 L 161.5 66.3 L 161.5 83.8 L 149.5 89.8 L 149.5 83.8 L 127.6 83.8 L 115.6 89.8 L 115.6 66.3 L 93.8 66.3 L 93.8 97.3 L 158.4181818008423 97.3 L 166.6 88.3 L 176.6 97.3 L 176.6 101.3 L 118.3 101.3 L 129.7 103.2 L 132.7 105.2 L 129.7 107.0 L 129.7 118.2 L 158.4 118.2 L 168.4 108.2 L 180.4 118.2 L 180.4 122.2 L 131.0 122.2 L 133.5 124.0 L 138.3 127.6 L 143.2 131.0 L 148.2 134.3 L 153.3 137.4 L 158.6 140.4 L 164.1 143.1 L 169.7 145.7 L 175.5 148.1 L 181.5 150.2 L 188.0 152.9 L 176.6 162.5 L 170.3 159.5 L 164.4 156.2 L 158.7 152.8 L 153.2 149.1 L 148.0 145.1 L 143.1 141.0 L 138.6 136.5 L 134.3 131.9 L 130.5 126.9 L 129.7 125.6151515007019 L 129.7 162.1 L 117.7 168.1 L 117.7 131.75625 L 115.4 134.2 L 110.2 139.1 L 104.7 143.5 L 98.8 147.6 L 92.6 151.4 L 86.0 154.7 L 79.0 157.7 L 71.7 160.2 L 66.09621734619141 161.6368673324585 L 70.5 164.1 L 77.6 166.8 L 86.7 169.0 L 98.1 170.6 L 112.5 171.6 L 130.3 171.9 L 151.9 171.5 L 177.8 170.4 L 189.1 169.9 L 178.3 183.5 L 152.1 184.0 Z M 38.1 77.2 L 35.9 74.7 L 33.5 72.1 L 31.0 69.7 L 28.3 67.3 L 25.6 65.0 L 22.7 62.6 L 19.7 60.3 L 16.4 58.2 L 17.1 56.5 L 21.0 57.6 L 24.8 58.6 L 28.5 60.0 L 32.1 61.5 L 35.6 63.3 L 38.9 65.2 L 42.2 67.3 L 45.3 69.6 L 48.3 72.1 L 51.3 74.7 L 52.7 79.1 L 50.7 83.2 L 46.3 84.6 L 42.2 82.6 L 40.2 79.9 Z M 127.6 66.3 L 127.6 79.8 L 149.5 79.8 L 149.5 66.3 Z M 45.7 39.3 L 43.6 36.8 L 41.3 34.3 L 38.9 31.8 L 36.3 29.4 L 33.5 26.9 L 30.6 24.4 L 27.3 22.2 L 28.1 20.6 L 31.9 21.9 L 35.7 23.1 L 39.4 24.6 L 42.8 26.3 L 46.2 28.1 L 49.4 30.2 L 52.4 32.4 L 55.3 34.7 L 58.1 37.3 L 60.7 40.0 L 61.7 44.4 L 59.5 48.4 L 55.0 49.4 L 51.1 47.1 L 47.7 41.9 Z M 150.2 15.3 L 153.2 17.3 L 150.2 19.1 L 150.2 28.2 L 163.8 28.2 L 173.8 18.2 L 185.8 28.2 L 185.8 32.2 L 150.2 32.2 L 150.2 42.5 L 138.2 48.5 L 138.2 32.2 L 110.7 32.2 L 110.7 42.5 L 98.7 48.5 L 98.7 32.2 L 63.1 32.2 L 63.1 28.2 L 98.7 28.2 L 98.7 13.3 L 110.7 15.3 L 113.7 17.3 L 110.7 19.1 L 110.7 28.2 L 138.2 28.2 L 138.2 13.3 Z " />
</g>
</svg>
