<svg xmlns="http://www.w3.org/2000/svg" xmlns:xlink="http://www.w3.org/1999/xlink" version="1.1" baseProfile="full" viewBox="0 0 200 200" width="200" height="200">
<g fill="black">
<path d="M 81.7 20.0 L 84.7 22.0 L 81.7 23.8 L 81.7 64.0 L 84.3 64.0 L 88.8 58.0 L 94.8 64.0 L 94.8 68.0 L 81.7 68.0 L 81.7 177.0 L 69.7 183.0 L 69.7 171.0 L 38.2 171.0 L 38.2 183.0 L 26.2 189.0 L 26.2 68.0 L 13.2 68.0 L 13.2 64.0 L 26.2 64.0 L 26.2 18.0 L 38.2 20.0 L 41.2 22.0 L 38.2 23.8 L 38.2 64.0 L 69.7 64.0 L 69.7 18.0 Z M 182.2 143.2 L 184.2 143.2 L 182.2 168.2 L 185.8 170.6 L 188.2 174.2 L 185.8 177.8 L 182.2 180.2 L 114.1 180.2 L 111.5 180.1 L 109.0 179.6 L 106.6 178.8 L 104.3 177.6 L 102.3 175.9 L 100.7 173.9 L 99.4 171.7 L 98.6 169.2 L 98.2 166.8 L 98.1 164.2 L 98.1 75.5 L 110.1 81.5 L 165.1 81.5 L 171.1 76.5 L 182.1 85.5 L 177.1 89.5 L 177.1 132.5 L 165.1 138.5 L 165.1 126.5 L 110.1 126.5 L 110.1 165.4 L 110.3 166.3 L 110.5 166.9 L 110.7 167.3 L 111.0 167.6 L 111.3 167.8 L 111.9 168.0 L 112.8 168.1 L 114.1 168.2 L 176.2 168.2 Z M 38.2 116.0 L 38.2 167.0 L 69.7 167.0 L 69.7 116.0 Z M 110.1 85.5 L 110.1 122.5 L 131.9 122.5 L 131.9 85.5 Z M 143.9 85.5 L 143.9 122.5 L 165.1 122.5 L 165.1 85.5 Z M 38.2 68.0 L 38.2 112.0 L 69.7 112.0 L 69.7 68.0 Z M 117.3 24.0 L 159.3 24.0 L 165.3 19.0 L 176.3 28.0 L 171.3 32.0 L 171.3 67.0 L 159.3 73.0 L 159.3 67.0 L 117.3 67.0 L 105.3 73.0 L 105.3 18.0 Z M 117.3 28.0 L 117.3 63.0 L 159.3 63.0 L 159.3 28.0 Z " />
</g>
</svg>
