<svg xmlns="http://www.w3.org/2000/svg" xmlns:xlink="http://www.w3.org/1999/xlink" version="1.1" baseProfile="full" viewBox="0 0 200 200" width="200" height="200">
<g fill="black">
<path d="M 69.2 153.6 L 67.7 150.2 L 65.9 146.6 L 63.8 142.9 L 61.4 139.1 L 58.6 135.2 L 55.5 131.1 L 52.2 126.7 L 51.72109432220459 126.11467084884643 L 50.8 130.6 L 47.7 141.0 L 43.8 150.6 L 39.0 159.4 L 33.4 167.4 L 27.0 174.5 L 19.8 180.6 L 11.9 185.7 L 10.8 184.2 L 17.3 177.8 L 23.0 170.9 L 28.0 163.6 L 32.3 155.8 L 35.9 147.3 L 38.8 138.2 L 41.0 128.4 L 42.5 118.0 L 43.3 106.8 L 43.4 95.0 L 43.4 17.0 L 55.4 19.0 L 58.4 21.0 L 55.4 22.8 L 55.4 74.0484848022461 L 55.6 73.8 L 58.9 69.9 L 62.1 66.2 L 65.1 62.7 L 67.9 59.3 L 70.6 56.1 L 73.1 53.1 L 75.4 50.2 L 76.92917861938477 48.323280811309814 L 76.9 48.3 L 77.36428575515747 47.78928575515747 L 77.6 47.5 L 77.61460552215576 47.513933944702146 L 77.9 47.2 L 86.3 55.8 L 87.1 59.3 L 83.16818952560425 58.47225046157837 L 80.7 60.6 L 77.6 63.2 L 74.3 65.8 L 70.8 68.6 L 67.1 71.5 L 63.2 74.4 L 59.1 77.5 L 55.4 79.96666669845581 L 55.4 95.0 L 54.7 107.6 L 53.1 119.4 L 52.41629581451416 122.72934207916259 L 54.6 124.2 L 59.1 127.5 L 63.2 130.9 L 67.0 134.4 L 70.4 137.9 L 73.5 141.5 L 76.3 145.1 L 78.7 148.7 L 80.8 152.4 L 82.6 156.2 L 82.2 160.8 L 78.8 163.8 L 74.2 163.4 L 71.2 160.0 L 70.4 156.9 Z M 182.2 143.2 L 184.2 143.2 L 182.2 168.2 L 185.8 170.6 L 188.2 174.2 L 185.8 177.8 L 182.2 180.2 L 104.5 180.2 L 101.9 180.1 L 99.4 179.6 L 97.0 178.8 L 94.7 177.6 L 92.7 175.9 L 91.1 173.9 L 89.8 171.7 L 89.0 169.2 L 88.6 166.8 L 88.5 164.2 L 88.5 75.5 L 100.5 81.5 L 163.8 81.5 L 169.8 76.5 L 180.8 85.5 L 175.8 89.5 L 175.8 132.5 L 163.8 138.5 L 163.8 126.5 L 100.5 126.5 L 100.5 165.4 L 100.7 166.3 L 100.9 166.9 L 101.1 167.3 L 101.4 167.6 L 101.7 167.8 L 102.3 168.0 L 103.2 168.1 L 104.5 168.2 L 176.2 168.2 Z M 100.5 85.5 L 100.5 122.5 L 126.5 122.5 L 126.5 85.5 Z M 138.5 85.5 L 138.5 122.5 L 163.8 122.5 L 163.8 85.5 Z M 15.3 108.4 L 12.9 104.5 L 13.9 100.1 L 15.9 97.3 L 17.8 94.2 L 19.4 90.6 L 20.7 86.7 L 21.9 82.3 L 22.7 77.5 L 23.3 72.3 L 23.7 66.7 L 23.9 60.6 L 23.9 54.1 L 25.7 53.8 L 27.6 60.1 L 29.0 66.3 L 29.9 72.2 L 30.3 77.9 L 30.3 83.3 L 29.8 88.6 L 29.0 93.5 L 27.7 98.3 L 25.9 102.7 L 23.7 106.9 L 19.8 109.3 Z M 108.6 24.0 L 157.3 24.0 L 163.3 19.0 L 174.3 28.0 L 169.3 32.0 L 169.3 67.0 L 157.3 73.0 L 157.3 67.0 L 108.6 67.0 L 96.6 73.0 L 96.6 18.0 Z M 108.6 28.0 L 108.6 63.0 L 157.3 63.0 L 157.3 28.0 Z " />
</g>
</svg>
