<svg xmlns="http://www.w3.org/2000/svg" xmlns:xlink="http://www.w3.org/1999/xlink" version="1.1" baseProfile="full" viewBox="0 0 200 200" width="200" height="200">
<g fill="black">
<path d="M 178.8 153.3 L 177.3 155.3 L 175.6 157.0 L 173.7 158.6 L 171.6 159.8 L 169.3 160.8 L 166.9 161.4 L 164.4 161.8 L 161.9 162.0 L 161.9 156.0 L 151.9 153.0 L 151.9 150.0 L 161.9 150.0 L 163.2 149.9 L 164.4 149.7 L 165.4 149.4 L 166.2 149.1 L 166.9 148.7 L 167.6 148.1 L 168.2 147.5 L 168.8 146.7 L 169.4 145.7 L 169.9 144.5 L 171.3 140.6 L 172.4 135.6 L 173.0 129.9 L 172.9 123.6 L 171.9 116.9 L 169.9 110.2 L 166.8 103.5 L 162.2 97.0 L 156.0 90.7 L 148.28571424484252 84.27142858505249 L 147.0 83.5 L 149.7 76.9 L 152.5 70.5 L 155.2 64.3 L 157.8 58.4 L 160.3 52.6 L 162.5 46.9 L 164.6 41.5 L 166.5 36.1 L 168.3 31.0 L 168.59411764144897 30.0 L 134.9 30.0 L 134.9 183.0 L 122.9 189.0 L 122.9 20.0 L 134.9 26.0 L 169.5 26.0 L 175.5 21.0 L 186.5 30.0 L 181.5 33.0 L 179.43466138839722 33.86055774688721 L 178.9 35.1 L 176.4 40.3 L 173.8 45.5 L 170.9 50.9 L 167.9 56.3 L 164.6 61.9 L 161.0 67.5 L 157.2 73.1 L 153.0 78.8 L 149.726717376709 82.87341842651367 L 159.1 86.4 L 167.1 92.2 L 173.3 99.1 L 177.9 106.7 L 181.0 114.5 L 182.9 122.3 L 183.6 129.9 L 183.5 136.9 L 182.6 143.3 L 181.1 148.8 L 180.1 151.1 Z M 70.5 87.8 L 72.9 90.5 L 69.33287591934204 91.60256567001343 L 67.4 97.9 L 63.85744676589966 106.9 L 93.4 106.9 L 103.4 96.9 L 115.4 106.9 L 115.4 110.9 L 62.019999980926514 110.9 L 59.5 116.3 L 54.8 124.7 L 49.5 132.5 L 49.272549057006835 132.7862745285034 L 52.5 134.4 L 91.0 134.4 L 97.0 129.4 L 108.0 138.4 L 103.0 142.4 L 103.0 178.4 L 91.0 184.4 L 91.0 174.4 L 52.5 174.4 L 52.5 181.4 L 40.5 187.4 L 40.5 143.1 L 37.3 146.4 L 30.4 152.5 L 22.9 157.8 L 14.9 162.3 L 13.9 160.8 L 20.6 154.8 L 26.8 148.5 L 32.5 142.0 L 37.7 135.1 L 40.5 130.8416666984558 L 40.5 128.4 L 41.708247375488284 129.00412368774414 L 42.5 127.8 L 46.7 120.1 L 50.5 112.0 L 50.914117622375485 110.9 L 13.2 110.9 L 13.2 106.9 L 52.41999998092651 106.9 L 53.7 103.5 L 56.5 94.5 L 58.8 85.0 L 58.855797290802 85.01335315704345 L 59.3 83.3 Z M 52.5 138.4 L 52.5 170.4 L 91.0 170.4 L 91.0 138.4 Z M 90.8 78.8 L 84.8 74.4 L 78.2 70.0 L 75.56608505249024 68.38202362060547 L 69.7 73.4 L 60.5 79.5 L 50.6 84.7 L 39.9 88.9 L 28.5 92.0 L 16.3 94.1 L 16.0 92.3 L 27.4 88.4 L 38.0 83.9 L 47.6 78.8 L 56.4 73.2 L 64.3 66.8 L 67.46140203475952 63.683124732971194 L 63.6 61.6 L 55.5 57.4 L 47.0 53.4 L 37.9 49.3 L 28.4 45.1 L 29.0 43.4 L 39.2 45.7 L 48.9 48.4 L 58.1 51.4 L 66.8 54.7 L 73.29792909622192 57.47350635528564 L 77.6 52.2 L 83.0 43.8 L 87.7 34.7 L 89.9848484992981 28.9 L 25.8 28.9 L 25.8 24.9 L 91.2 24.9 L 97.2 19.9 L 108.2 28.9 L 103.2 31.9 L 101.0644850730896 32.78979787826538 L 97.9 39.7 L 92.2 49.5 L 85.5 58.4 L 82.37059412002563 61.696307468414304 L 82.8 61.9 L 90.1 65.9 L 97.0 70.1 L 103.4 74.5 L 109.3 79.1 L 111.2 83.3 L 109.8 87.6 L 105.6 89.5 L 101.3 88.0 L 96.3 83.4 Z " />
</g>
</svg>
