<svg xmlns="http://www.w3.org/2000/svg" xmlns:xlink="http://www.w3.org/1999/xlink" version="1.1" baseProfile="full" viewBox="0 0 200 200" width="200" height="200">
<g fill="black">
<path d="M 150.0 124.0 L 153.0 126.0 L 150.0 127.8 L 150.0 143.0 L 165.6 143.0 L 175.6 133.0 L 187.6 143.0 L 187.6 147.0 L 150.0 147.0 L 150.0 185.0 L 138.0 191.0 L 138.0 147.0 L 99.9 147.0 L 99.9 143.0 L 138.0 143.0 L 138.0 122.0 Z M 72.6 183.7 L 63.3 182.6 L 55.6 180.6 L 49.2 177.8 L 44.2 174.0 L 40.4 169.6 L 37.7 164.6 L 35.9 159.1 L 35.59774923324585 157.3167202949524 L 35.5 157.5 L 34.3 160.6 L 32.9 163.6 L 31.5 166.5 L 30.1 169.3 L 28.6 172.0 L 25.8 177.2 L 25.206432723999022 178.1497076034546 L 26.5 182.4 L 22.9 182.0 L 12.4 175.9 L 13.6 174.4 L 15.6 172.6 L 17.6 170.7 L 19.7 168.8 L 21.8 166.8 L 26.2 162.6 L 28.5 160.4 L 29.0 159.9416666984558 L 29.0 109.0 L 16.7 109.0 L 16.7 105.0 L 29.0 105.0 L 34.0 100.0 L 44.0 109.0 L 39.0 112.0 L 39.0 155.5 L 38.618461513519286 155.69076919555664 L 39.8 157.5 L 42.8 161.6 L 45.9 164.9 L 49.3 167.5 L 53.3 169.4 L 58.4 170.8 L 64.8 171.6 L 73.0 171.9 L 83.1 171.5 L 95.3 170.4 L 106.0 169.4 L 96.4 183.5 L 83.5 184.0 Z M 73.3 148.85 L 66.2 152.4 L 66.2 116.2 L 54.7 116.2 L 54.7 153.8 L 45.7 158.3 L 45.7 54.1 L 54.7 58.6 L 70.75 58.6 L 69.6 58.5 L 66.6 55.1 L 66.1 52.4 L 65.6 49.8 L 65.0 47.3 L 63.6 42.5 L 62.8 40.2 L 61.9 38.0 L 61.0 35.9 L 60.1 33.7 L 58.7 31.9 L 60.0 30.6 L 61.9 32.0 L 64.0 33.4 L 66.1 34.9 L 68.1 36.8 L 69.9 38.8 L 71.7 40.9 L 73.4 43.3 L 73.47066249847413 43.41041011810303 L 74.6 40.7 L 76.1 37.4 L 77.4 34.3 L 78.6 31.4 L 79.6 28.7 L 80.4 26.1 L 81.03636360168457 24.1 L 48.2 24.1 L 48.2 20.1 L 81.5 20.1 L 87.5 15.1 L 98.5 24.1 L 93.5 27.1 L 90.3043478012085 28.431521701812745 L 88.8 30.5 L 87.1 32.9 L 85.1 35.3 L 83.0 37.8 L 80.7 40.4 L 78.1 43.1 L 75.3 45.8 L 75.12146940231324 46.004979610443115 L 76.6 48.5 L 78.0 51.3 L 77.6 55.9 L 74.53999996185303 58.6 L 86.6 58.6 L 92.1 53.6 L 102.6 62.6 L 97.6 66.1 L 97.6 143.6 L 97.5 146.0 L 97.1 148.4 L 96.4 150.6 L 95.4 152.8 L 94.0 154.7 L 92.3 156.4 L 90.2 157.6 L 88.0 158.5 L 85.7 159.0 L 83.3 159.1 L 83.3 153.6 L 73.3 150.9 Z M 150.4 45.7 L 152.7 48.5 L 148.6157172203064 49.50315713882446 L 147.7 51.4 L 146.2 54.3 L 144.6 57.2 L 142.9 60.2 L 141.1 63.2 L 137.1 69.2 L 134.96272439956664 71.98775081634521 L 135.6 72.7 L 137.2 74.6 L 138.7 76.7 L 140.1 78.8 L 141.4 81.1 L 142.06267127990722 82.37011985778808 L 142.9 79.9 L 144.8 74.2 L 146.7 68.6 L 148.4 63.1 L 149.80201225280763 58.72902069091797 L 149.7 58.7 L 150.6 56.4 L 161.3 62.0 L 163.5 64.9 L 159.69840755462647 65.62099170684814 L 159.0 67.2 L 156.6 72.5 L 154.1 77.9 L 151.5 83.5 L 148.7 89.1 L 145.8 94.8 L 142.8 100.6 L 139.5 106.5 L 136.0 112.4 L 135.92088041305541 112.52284355163575 L 136.5 112.4 L 139.9 111.7 L 143.4 111.0 L 147.0 110.3 L 150.7 109.6 L 153.52311325073242 109.15424528121949 L 153.4 107.8 L 153.1 104.4 L 152.6 100.9 L 152.2 97.4 L 151.6 93.7 L 151.1 90.0 L 150.3 86.2 L 152.0 85.6 L 153.9 89.0 L 155.8 92.3 L 157.6 95.7 L 159.2 99.1 L 160.6 102.5 L 161.9 105.8 L 163.1 109.2 L 164.2 112.6 L 165.1 116.0 L 165.9 119.3 L 164.6 123.7 L 160.6 125.9 L 156.2 124.6 L 154.0 120.6 L 153.9 117.5 L 153.9 114.4 L 153.79884853363038 112.73100090026855 L 152.2 113.7 L 148.9 115.6 L 145.7 117.4 L 142.5 119.1 L 136.3 122.2 L 133.2 123.6 L 131.2910614967346 124.49083795547486 L 130.1 128.6 L 127.3 126.4 L 121.8 115.5 L 123.7 114.9 L 129.9 113.7 L 131.78549299240112 113.35718307495117 L 132.5 110.8 L 134.6 104.3 L 136.7 98.0 L 138.8 91.8 L 139.41549291610718 90.04144868850707 L 138.5 90.8 L 134.0 90.3 L 131.1 86.8 L 130.5 82.6 L 130.2 80.4 L 129.2 76.2 L 128.5 74.0 L 127.9 71.8 L 127.1 69.6 L 126.3 67.3 L 125.0 65.3 L 126.4 64.1 L 128.1 65.9 L 130.2 67.4 L 132.1 69.0 L 132.62727270126342 69.52727270126343 L 133.1 67.4 L 134.0 63.9 L 134.9 60.5 L 135.7 57.2 L 136.5 54.0 L 137.2 50.9 L 137.9 47.9 L 138.5 45.0 L 138.82287826538087 43.12730627059936 L 138.7 43.1 L 138.97663555145263 42.23551397323608 L 139.0 42.1 L 139.01816444396974 42.10573616027832 L 139.05200004577637 42.0 L 103.0 42.0 L 103.0 38.0 L 138.0 38.0 L 138.0 13.0 L 150.0 15.0 L 153.0 17.0 L 150.0 18.8 L 150.0 38.0 L 162.9 38.0 L 172.9 28.0 L 184.9 38.0 L 184.9 42.0 L 142.49215688705445 42.0 Z M 127.6 94.2 L 129.5 97.3 L 125.53089065551758 97.77903041839599 L 123.7 100.8 L 121.5 104.2 L 119.2 107.6 L 116.6 111.0 L 114.0 114.5 L 111.1 118.0 L 108.0 121.5 L 104.6 124.9 L 101.1 128.5 L 99.7 127.4 L 101.9 123.0 L 104.0 118.7 L 106.0 114.6 L 107.9 110.7 L 109.7 106.8 L 111.3 103.1 L 112.9 99.5 L 115.5 92.7 L 116.20763549804687 90.43556652069091 L 116.1 90.4 L 116.48000001907349 89.56400003433228 L 116.5 89.5 L 116.50762367248535 89.50322799682617 L 117.1 88.2 Z M 172.4 111.4 L 171.3 108.5 L 170.1 105.6 L 167.5 100.2 L 166.1 97.6 L 164.7 95.1 L 163.2 92.5 L 161.5 90.3 L 162.6 88.9 L 165.1 90.6 L 167.8 92.2 L 170.3 94.1 L 172.7 96.2 L 175.1 98.5 L 177.3 101.0 L 179.5 103.7 L 181.6 106.5 L 183.6 109.6 L 185.5 112.8 L 185.6 117.3 L 182.5 120.7 L 177.9 120.7 L 174.5 117.6 L 173.5 114.5 Z M 54.7 89.1 L 54.7 112.2 L 66.2 112.2 L 66.2 89.1 Z M 76.2 89.1 L 76.2 112.2 L 86.6 112.2 L 86.6 89.1 Z M 126.1 57.0 L 128.2 60.0 L 124.01051921844483 60.73499660491943 L 122.8 62.8 L 120.9 65.8 L 118.9 68.7 L 116.7 71.7 L 114.3 74.6 L 111.8 77.6 L 109.1 80.5 L 106.1 83.4 L 103.2 86.5 L 101.8 85.4 L 103.8 81.7 L 105.4 78.0 L 107.0 74.5 L 108.5 71.0 L 109.9 67.7 L 111.2 64.5 L 112.3 61.4 L 113.3 58.4 L 114.2 55.5 L 114.646653175354 53.713387393951415 L 114.6 53.7 L 114.77777776718139 53.18888893127441 L 114.9 52.7 L 114.94219179153443 52.71619863510132 L 115.4 51.4 Z M 54.7 62.6 L 54.7 85.1 L 66.2 85.1 L 66.2 62.6 Z M 76.2 62.6 L 76.2 85.1 L 86.6 85.1 L 86.6 62.6 Z M 171.7 75.8 L 170.9 73.5 L 170.0 71.2 L 169.1 68.8 L 168.0 66.5 L 166.8 64.2 L 164.2 59.4 L 162.5 57.3 L 163.7 56.0 L 166.0 57.6 L 168.4 59.1 L 170.8 60.8 L 173.0 62.6 L 175.1 64.5 L 177.1 66.6 L 179.0 68.7 L 180.8 71.0 L 182.5 73.4 L 184.0 75.9 L 184.0 80.4 L 180.8 83.7 L 176.3 83.7 L 173.0 80.5 L 172.4 78.2 Z M 25.4 75.4 L 24.6 73.1 L 23.8 70.7 L 23.0 68.5 L 22.1 66.3 L 21.2 64.2 L 19.2 60.0 L 17.8 58.3 L 19.0 56.9 L 20.9 58.3 L 23.0 59.5 L 25.1 60.9 L 27.2 62.5 L 31.0 66.3 L 32.8 68.5 L 34.5 70.8 L 36.2 73.3 L 37.8 75.9 L 37.8 80.4 L 34.6 83.7 L 30.1 83.7 L 26.8 80.5 L 26.1 77.9 Z M 30.0 40.2 L 29.4 37.7 L 28.0 33.1 L 27.1 30.8 L 26.3 28.6 L 25.3 26.4 L 24.4 24.2 L 23.0 22.3 L 24.3 21.0 L 26.2 22.5 L 28.3 23.9 L 30.4 25.5 L 32.4 27.3 L 34.3 29.2 L 36.1 31.3 L 37.8 33.6 L 39.4 35.9 L 41.0 38.5 L 42.4 41.1 L 42.1 45.7 L 38.8 48.8 L 34.2 48.5 L 31.1 45.2 L 30.6 42.6 Z M 85.0 147.9 L 85.4 147.8 L 85.6 147.6 L 85.8 147.5 L 85.9 147.2 L 86.1 146.8 L 86.4 146.0 L 86.5 145.0 L 86.6 143.6 L 86.6 116.2 L 76.2 116.2 L 76.2 147.4 L 74.8 148.1 L 84.3 148.1 Z " />
</g>
</svg>
