<svg xmlns="http://www.w3.org/2000/svg" xmlns:xlink="http://www.w3.org/1999/xlink" version="1.1" baseProfile="full" viewBox="0 0 200 200" width="200" height="200">
<g fill="black">
<path d="M 181.0 153.1 L 179.5 155.1 L 177.8 156.9 L 175.9 158.5 L 173.8 159.8 L 171.5 160.8 L 169.1 161.4 L 166.7 161.8 L 164.1 162.0 L 164.1 156.0 L 154.1 153.0 L 154.1 150.0 L 164.1 150.0 L 165.5 149.9 L 166.6 149.7 L 167.5 149.4 L 168.3 149.1 L 169.0 148.7 L 169.6 148.2 L 170.2 147.6 L 170.8 146.8 L 171.3 145.8 L 171.8 144.5 L 173.1 140.7 L 174.1 135.7 L 174.7 129.8 L 174.6 123.5 L 173.8 116.8 L 172.0 110.1 L 169.1 103.4 L 165.0 96.9 L 159.5 90.7 L 152.68233890533446 84.27756567001343 L 151.3 83.5 L 153.8 76.9 L 156.2 70.6 L 158.6 64.4 L 161.0 58.5 L 163.1 52.7 L 165.2 47.1 L 167.0 41.6 L 168.8 36.3 L 170.3 31.1 L 170.6079999923706 30.0 L 141.0 30.0 L 141.0 183.0 L 129.0 189.0 L 129.0 20.0 L 141.0 26.0 L 171.4 26.0 L 177.4 21.0 L 188.4 30.0 L 183.4 33.0 L 181.44733724594116 33.813609504699706 L 181.0 34.9 L 178.8 40.1 L 176.3 45.4 L 173.7 50.7 L 170.9 56.2 L 167.8 61.7 L 164.5 67.3 L 161.0 73.0 L 157.1 78.7 L 154.03284730911255 82.86256427764893 L 162.8 86.5 L 170.1 92.4 L 175.8 99.3 L 180.0 106.8 L 182.9 114.6 L 184.6 122.4 L 185.3 129.8 L 185.2 136.8 L 184.4 143.1 L 183.1 148.5 L 182.2 150.9 Z M 105.4 161.0 L 103.4 157.6 L 101.2 154.4 L 98.8 151.3 L 96.2 148.3 L 93.4 145.5 L 90.3 142.6 L 88.23630571365356 140.79426755905152 L 88.7 141.9 L 90.4 148.3 L 91.3 155.0 L 91.2 161.8 L 90.2 168.7 L 88.4 175.7 L 87.4 178.0 L 86.1 180.2 L 84.7 182.2 L 83.0 184.0 L 81.1 185.5 L 78.9 186.8 L 76.7 187.8 L 74.3 188.4 L 71.8 188.8 L 69.3 189.0 L 69.3 183.0 L 51.3 180.0 L 51.3 177.0 L 69.3 177.0 L 70.6 176.9 L 71.7 176.7 L 72.7 176.4 L 73.5 176.1 L 74.2 175.7 L 74.8 175.2 L 75.5 174.5 L 76.0 173.7 L 76.6 172.7 L 77.1 171.5 L 79.2 165.9 L 80.6 160.4 L 80.96159601211548 157.1456358909607 L 78.4 158.8 L 73.3 161.8 L 67.8 164.7 L 62.0 167.6 L 55.9 170.5 L 49.5 173.3 L 42.7 176.0 L 35.6 178.5 L 28.1 180.8 L 27.3 179.1 L 34.0 175.0 L 40.4 171.1 L 46.5 167.4 L 52.3 163.8 L 57.8 160.3 L 63.0 156.8 L 67.8 153.3 L 72.3 149.9 L 76.5 146.6 L 80.27945947647095 143.31783781051635 L 79.1 138.6 L 77.74056606292724 135.13962268829346 L 73.9 137.7 L 69.8 140.3 L 65.5 142.7 L 60.9 145.1 L 56.0 147.4 L 50.9 149.5 L 45.5 151.5 L 39.8 153.3 L 33.8 154.8 L 33.1 153.1 L 38.2 149.8 L 43.2 146.6 L 47.9 143.6 L 52.4 140.7 L 56.6 137.8 L 60.5 134.9 L 64.1 132.0 L 67.5 129.2 L 70.5 126.4 L 72.30816020965577 124.52726259231568 L 70.4 121.4 L 67.75845527648926 117.7378583908081 L 66.6 118.5 L 62.5 120.9 L 58.1 123.2 L 53.5 125.3 L 48.5 127.3 L 43.2 129.1 L 37.6 130.8 L 36.9 129.1 L 41.7 125.9 L 46.1 122.8 L 50.3 119.8 L 54.2 116.9 L 57.8 114.0 L 61.1 111.2 L 64.0 108.4 L 66.22857141494751 106.0 L 37.2 106.0 L 37.2 102.0 L 95.5 102.0 L 105.5 92.0 L 117.5 102.0 L 117.5 106.0 L 81.99473686218262 106.0 L 80.1 107.8 L 77.1 110.6 L 73.9 113.4 L 70.4 116.0 L 69.98405714035034 116.27364664077759 L 73.2 118.9 L 78.4 124.2 L 82.7 129.8 L 86.1 135.7 L 86.32024326324463 136.22519550323486 L 88.46496143341065 136.9234758377075 L 90.1 134.6 L 91.8 131.8 L 93.4 129.0 L 96.8 123.6 L 98.4 121.0 L 100.0 118.5 L 101.5 115.9 L 103.0 113.5 L 103.98559198379516 111.85734663009643 L 103.9 111.8 L 104.44545450210572 111.09090909957885 L 104.5 111.0 L 104.50953350067138 111.00760650634766 L 104.9 110.5 L 113.9 118.5 L 115.0 121.9 L 110.83515062332154 121.32553806304932 L 109.5 122.6 L 104.9 126.6 L 102.5 128.7 L 97.5 132.7 L 94.8 134.6 L 92.0 136.5 L 90.56084241867066 137.70889234542847 L 92.9 138.6 L 96.9 140.5 L 100.8 142.9 L 104.4 145.5 L 107.8 148.4 L 111.1 151.5 L 114.1 154.9 L 116.9 158.6 L 119.5 162.5 L 119.8 167.1 L 116.9 170.6 L 112.4 171.0 L 108.8 168.1 L 107.2 164.4 Z M 110.4 64.0 L 112.4 64.0 L 110.4 81.0 L 113.4 83.0 L 115.4 86.0 L 113.4 89.0 L 110.4 91.0 L 71.2 91.0 L 68.7 90.9 L 66.3 90.6 L 64.0 89.9 L 61.8 88.8 L 59.8 87.3 L 58.1 85.5 L 56.8 83.3 L 55.9 81.0 L 55.4 78.5 L 55.2 76.0 L 55.2 71.99022560119629 L 33.7 74.9 L 33.3 71.78000001907348 L 33.3 112.0 L 32.8 122.2 L 32.1 131.9 L 31.0 140.9 L 29.6 149.4 L 27.9 157.2 L 25.9 164.5 L 23.5 171.1 L 20.7 177.0 L 17.5 182.1 L 13.9 186.4 L 12.4 185.5 L 14.1 180.4 L 15.7 174.9 L 17.2 169.0 L 18.5 162.6 L 19.6 155.7 L 20.4 148.1 L 21.0 140.0 L 21.4 131.2 L 21.5 121.9 L 21.3 112.0 L 21.3 39.0 L 33.3 45.0 L 58.9 45.0 L 58.9 13.0 L 70.9 15.0 L 73.9 17.0 L 70.9 18.8 L 70.9 27.0 L 89.21818180084229 27.0 L 97.4 18.0 L 107.4 27.0 L 107.4 31.0 L 70.9 31.0 L 70.9 45.0 L 108.1 45.0 L 114.1 40.0 L 125.1 49.0 L 120.1 52.0 L 116.81058826446534 53.37058820724487 L 115.6 55.1 L 114.2 57.0 L 112.7 59.0 L 111.1 61.0 L 109.5 63.1 L 107.8 65.1 L 105.9 67.1 L 104.5 69.4 L 102.9 68.5 L 103.8 66.0 L 104.3 63.4 L 104.9 60.8 L 105.5 58.3 L 106.0 55.9 L 106.6 53.5 L 107.1 51.2 L 107.67391300201416 49.0 L 61.2 49.0 L 67.2 50.0 L 70.2 52.0 L 67.2 53.8 L 67.2 66.39849624633788 L 77.91826591491699 64.94790382385254 L 86.5 53.7 L 99.7 62.0 L 100.2 65.9 L 67.2 70.3661654472351 L 67.2 76.0 L 67.1 77.2 L 67.2 78.1 L 67.3 78.8 L 67.4 79.2 L 67.6 79.6 L 67.8 79.9 L 68.2 80.2 L 68.8 80.5 L 69.8 80.8 L 71.2 81.0 L 105.4 81.0 Z M 33.3 49.0 L 33.3 70.98646612167359 L 55.2 68.02255640029907 L 55.2 49.0 Z " />
</g>
</svg>
