<svg xmlns="http://www.w3.org/2000/svg" xmlns:xlink="http://www.w3.org/1999/xlink" version="1.1" baseProfile="full" viewBox="0 0 200 200" width="200" height="200">
<g fill="black">
<path d="M 67.0 119.0 L 70.0 121.0 L 67.0 122.8 L 67.0 132.0 L 74.8 132.0 L 84.8 122.0 L 96.8 132.0 L 96.8 136.0 L 67.0 136.0 L 67.0 159.0 L 79.2 159.0 L 89.2 149.0 L 101.2 159.0 L 101.2 163.0 L 67.0 163.0 L 67.0 184.0 L 55.0 190.0 L 55.0 163.0 L 29.87205238342285 163.0 L 28.9 167.2 L 15.9 170.3 L 23.0 139.6 L 34.2 144.3 L 36.7 146.9 L 33.380841159820555 147.83938455581665 L 30.79781656265259 159.0 L 55.0 159.0 L 55.0 136.0 L 26.0 136.0 L 26.0 132.0 L 55.0 132.0 L 55.0 117.0 Z M 182.4 143.2 L 184.4 143.2 L 182.4 168.2 L 186.0 170.6 L 188.4 174.2 L 186.0 177.8 L 182.4 180.2 L 120.4 180.2 L 117.9 180.1 L 115.4 179.6 L 113.0 178.8 L 110.7 177.6 L 108.7 175.9 L 107.1 173.9 L 105.8 171.7 L 105.0 169.2 L 104.6 166.8 L 104.4 164.2 L 104.4 75.5 L 116.4 81.5 L 166.2 81.5 L 172.2 76.5 L 183.2 85.5 L 178.2 89.5 L 178.2 132.5 L 166.2 138.5 L 166.2 126.5 L 116.4 126.5 L 116.4 164.2 L 116.5 165.4 L 116.7 166.3 L 116.9 166.9 L 117.0 167.3 L 117.2 167.4 L 117.4 167.6 L 117.7 167.8 L 118.3 168.0 L 119.2 168.1 L 120.4 168.2 L 176.4 168.2 Z M 39.8 80.0 L 75.1 80.0 L 81.1 75.0 L 92.1 84.0 L 87.1 88.0 L 87.1 114.0 L 75.1 120.0 L 75.1 110.0 L 39.8 110.0 L 39.8 117.0 L 27.8 123.0 L 27.8 74.0 Z M 116.4 85.5 L 116.4 122.5 L 135.6 122.5 L 135.6 85.5 Z M 147.6 85.5 L 147.6 122.5 L 166.2 122.5 L 166.2 85.5 Z M 39.8 84.0 L 39.8 106.0 L 75.1 106.0 L 75.1 84.0 Z M 123.1 24.0 L 160.9 24.0 L 166.9 19.0 L 177.9 28.0 L 172.9 32.0 L 172.9 67.0 L 160.9 73.0 L 160.9 67.0 L 123.1 67.0 L 111.1 73.0 L 111.1 18.0 Z M 13.7 62.0 L 38.54274950027466 62.0 L 42.65574388504028 38.0 L 20.7 38.0 L 20.7 34.0 L 43.341242980957034 34.0 L 47.3 10.9 L 58.8 15.0 L 61.4 17.4 L 58.209778785705566 18.442956924438477 L 55.54285717010498 34.0 L 71.6 34.0 L 77.6 29.0 L 88.6 38.0 L 83.6 42.0 L 83.6 62.0 L 86.9777777671814 62.0 L 93.2 55.0 L 101.2 62.0 L 101.2 66.0 L 13.7 66.0 Z M 123.1 28.0 L 123.1 63.0 L 160.9 63.0 L 160.9 28.0 Z M 54.85714282989502 38.0 L 50.74285717010498 62.0 L 71.6 62.0 L 71.6 38.0 Z " />
</g>
</svg>
