<svg xmlns="http://www.w3.org/2000/svg" xmlns:xlink="http://www.w3.org/1999/xlink" version="1.1" baseProfile="full" viewBox="0 0 200 200" width="200" height="200">
<g fill="black">
<path d="M 181.1 153.1 L 179.7 155.1 L 178.0 156.9 L 176.1 158.5 L 173.9 159.8 L 171.7 160.8 L 169.3 161.4 L 166.8 161.8 L 164.3 162.0 L 164.3 156.0 L 154.3 153.0 L 154.3 150.0 L 164.3 150.0 L 165.6 149.9 L 166.7 149.7 L 167.7 149.4 L 168.5 149.1 L 169.1 148.7 L 169.7 148.2 L 170.3 147.6 L 170.9 146.8 L 171.4 145.8 L 171.9 144.5 L 173.2 140.7 L 174.2 135.7 L 174.8 129.8 L 174.7 123.5 L 173.9 116.8 L 172.1 110.0 L 169.2 103.4 L 165.2 96.9 L 159.7 90.7 L 152.97943925857544 84.27593460083008 L 151.6 83.5 L 154.0 76.9 L 156.5 70.6 L 158.9 64.4 L 161.1 58.5 L 163.3 52.7 L 165.3 47.1 L 167.2 41.6 L 168.9 36.3 L 170.4 31.1 L 170.70799999237062 30.0 L 140.9 30.0 L 140.9 183.2 L 129.9 188.7 L 129.9 20.5 L 140.9 26.0 L 171.5 26.0 L 177.5 21.0 L 188.5 30.0 L 183.5 33.0 L 181.64140625 33.7744140625 L 181.2 34.9 L 178.9 40.1 L 176.5 45.4 L 173.9 50.7 L 171.1 56.2 L 168.0 61.7 L 164.8 67.3 L 161.2 73.0 L 157.4 78.7 L 154.3312581062317 82.86472110748291 L 163.0 86.5 L 170.3 92.4 L 176.0 99.3 L 180.2 106.8 L 183.0 114.6 L 184.7 122.4 L 185.4 129.8 L 185.3 136.8 L 184.5 143.1 L 183.3 148.5 L 182.3 150.9 Z M 13.2 177.5 L 19.59090909957886 177.5 L 19.0 177.0 L 21.8 172.1 L 24.5 167.4 L 27.1 162.9 L 29.6 158.5 L 31.8 154.2 L 33.8 150.0 L 35.6 145.9 L 37.2 141.8 L 38.6 137.8 L 39.423340034484866 134.80603618621825 L 39.4 134.8 L 39.54285717010498 134.37142858505248 L 39.7 133.8 L 39.729815292358396 133.8105541229248 L 40.0 133.0 L 15.9 133.0 L 15.9 129.0 L 107.77777776718139 129.0 L 114.0 122.0 L 122.0 129.0 L 122.0 133.0 L 99.1 133.0 L 108.7 137.8 L 110.9 140.7 L 107.01842107772828 141.5171745300293 L 106.8 142.0 L 104.6 146.3 L 102.2 150.5 L 101.91950206756592 150.9531120300293 L 103.6 151.7 L 105.5 152.7 L 107.3 153.8 L 109.0 155.1 L 110.7 156.5 L 112.4 158.0 L 114.0 159.6 L 115.5 161.3 L 116.0 165.9 L 113.98651685714722 168.48876399993895 L 124.8 177.5 L 124.8 181.5 L 13.2 181.5 Z M 48.4 166.9 L 47.8 165.2 L 47.1 163.6 L 46.2 161.8 L 45.2 160.0 L 44.0 158.2 L 42.7 156.3 L 41.741060161590575 154.82470798492432 L 39.0 158.7 L 35.8 162.7 L 32.4 166.7 L 28.7 170.7 L 24.7 174.5 L 21.03333330154419 177.5 L 63.0 177.5 L 63.0 133.0 L 41.4 133.0 L 51.0 137.8 L 53.2 140.7 L 49.318421077728274 141.5171745300293 L 49.1 142.0 L 46.9 146.2 L 44.5 150.4 L 43.105797100067136 152.65217390060425 L 45.1 153.4 L 47.3 154.4 L 49.4 155.6 L 51.4 156.8 L 53.3 158.2 L 55.1 159.6 L 56.8 161.1 L 58.4 162.7 L 59.9 164.4 L 60.2 168.9 L 57.3 172.4 L 52.8 172.8 L 49.2 169.9 L 48.9 168.4 Z M 75.0 133.0 L 75.0 177.5 L 76.82399997711181 177.5 L 79.4 172.9 L 82.2 168.1 L 84.8 163.4 L 87.2 158.9 L 89.4 154.5 L 91.4 150.2 L 93.2 146.0 L 94.8 141.8 L 96.2 137.8 L 97.09285717010498 134.82380952835084 L 97.0 134.8 L 97.675 133.0 Z M 103.9 163.6 L 103.3 161.9 L 101.9 158.5 L 100.3 155.3 L 99.80609760284423 154.36707315444946 L 99.6 154.7 L 96.7 158.9 L 93.5 163.0 L 90.1 167.2 L 86.4 171.3 L 82.4 175.2 L 79.8051281929016 177.5 L 102.8 177.5 L 110.5 169.8 L 108.7 170.0 L 105.0 167.2 L 104.5 165.4 Z M 28.4 92.4 L 39.3 92.4 L 43.8 87.4 L 53.3 96.4 L 48.3 98.9 L 48.3 117.0 L 39.3 121.5 L 39.3 117.0 L 28.4 117.0 L 17.4 122.5 L 17.4 86.9 Z M 125.0 96.4 L 120.0 99.4 L 120.0 117.0 L 110.0 122.0 L 110.0 117.0 L 98.6 117.0 L 89.6 121.5 L 89.6 87.9 L 98.6 92.4 L 110.0 92.4 L 115.0 87.4 Z M 88.9 96.4 L 83.9 98.9 L 83.9 117.0 L 74.9 121.5 L 74.9 117.0 L 63.0 117.0 L 54.0 121.5 L 54.0 87.9 L 63.0 92.4 L 74.9 92.4 L 79.4 87.4 Z M 98.6 96.4 L 98.6 113.0 L 110.0 113.0 L 110.0 96.4 Z M 63.0 96.4 L 63.0 113.0 L 74.9 113.0 L 74.9 96.4 Z M 28.4 96.4 L 28.4 113.0 L 39.3 113.0 L 39.3 96.4 Z M 13.8 68.8 L 12.2 64.5 L 14.0 60.3 L 15.0 59.8 L 16.2 58.8 L 17.4 57.3 L 18.6 55.3 L 19.8 52.9 L 20.9 50.1 L 21.9 46.9 L 22.9 43.3 L 23.8 39.2 L 24.3 34.8 L 26.1 34.8 L 26.5 39.3 L 26.813953495025636 42.0 L 63.0 42.0 L 63.0 28.2 L 25.2 28.2 L 25.2 24.2 L 96.31818180084228 24.2 L 104.5 15.2 L 114.5 24.2 L 114.5 28.2 L 75.0 28.2 L 75.0 42.0 L 109.5 42.0 L 115.5 37.0 L 126.5 46.0 L 121.5 49.0 L 117.88248176574707 50.50729923248291 L 117.2 51.5 L 116.0 53.2 L 114.7 55.0 L 113.3 56.9 L 111.8 58.9 L 110.1 60.9 L 108.8 63.3 L 107.2 62.6 L 108.1 60.0 L 108.4 57.4 L 108.7 55.0 L 109.0 52.7 L 109.3 50.6 L 109.5 48.6 L 109.5 46.0 L 75.0 46.0 L 75.0 80.2 L 63.0 86.2 L 63.0 46.0 L 27.184615421295167 46.0 L 27.3 47.5 L 27.3 51.2 L 27.2 54.7 L 26.8 58.0 L 26.1 61.0 L 25.2 63.9 L 23.9 66.6 L 22.3 69.0 L 18.0 70.6 Z M 113.6 74.9 L 113.6 78.9 L 79.2 78.9 L 79.2 74.9 L 99.3777777671814 74.9 L 105.6 67.9 Z M 58.7 74.9 L 58.7 78.9 L 24.3 78.9 L 24.3 74.9 L 44.477777767181394 74.9 L 50.7 67.9 Z M 58.7 59.7 L 58.7 63.7 L 29.9 63.7 L 29.9 59.7 L 44.477777767181394 59.7 L 50.7 52.7 Z M 107.1 59.7 L 107.1 63.7 L 79.2 63.7 L 79.2 59.7 L 92.8777777671814 59.7 L 99.1 52.7 Z " />
</g>
</svg>
