<svg xmlns="http://www.w3.org/2000/svg" xmlns:xlink="http://www.w3.org/1999/xlink" version="1.1" baseProfile="full" viewBox="0 0 200 200" width="200" height="200">
<g fill="black">
<path d="M 181.3 153.1 L 179.8 155.2 L 178.2 157.0 L 176.2 158.5 L 174.1 159.8 L 171.8 160.8 L 169.4 161.4 L 167.0 161.8 L 164.4 162.0 L 164.4 156.0 L 154.4 153.0 L 154.4 150.0 L 164.4 150.0 L 165.8 149.9 L 166.9 149.7 L 167.9 149.4 L 168.7 149.1 L 169.3 148.7 L 170.0 148.2 L 170.6 147.5 L 171.2 146.7 L 171.7 145.7 L 172.2 144.5 L 173.6 140.6 L 174.6 135.7 L 175.2 129.9 L 175.1 123.5 L 174.2 116.9 L 172.3 110.1 L 169.4 103.4 L 165.1 96.9 L 159.4 90.7 L 152.26605501174927 84.25963306427002 L 151.0 83.5 L 153.5 76.9 L 156.1 70.5 L 158.6 64.4 L 161.0 58.4 L 163.2 52.7 L 165.3 47.0 L 167.3 41.6 L 169.1 36.2 L 170.7 31.1 L 171.00196075439453 30.0 L 140.1 30.0 L 140.1 183.0 L 128.1 189.0 L 128.1 20.0 L 140.1 26.0 L 171.8 26.0 L 177.8 21.0 L 188.8 30.0 L 183.8 33.0 L 181.8970414161682 33.792899417877194 L 181.4 35.0 L 179.1 40.1 L 176.6 45.4 L 173.8 50.8 L 170.9 56.2 L 167.8 61.8 L 164.4 67.4 L 160.8 73.0 L 156.8 78.7 L 153.66062479019166 82.86149730682374 L 162.6 86.4 L 170.2 92.3 L 176.1 99.2 L 180.4 106.8 L 183.3 114.6 L 185.1 122.3 L 185.8 129.9 L 185.6 136.9 L 184.8 143.2 L 183.5 148.6 L 182.5 151.0 Z M 16.2 172.0 L 25.8 171.3 L 26.4 171.25714282989503 L 26.4 116.6 L 37.4 122.1 L 97.4 122.1 L 102.9 117.1 L 113.4 126.1 L 108.4 129.6 L 108.4 166.3637167930603 L 110.2 166.3 L 121.7 166.1 L 121.9 167.9 L 110.6 170.1 L 99.4 172.0 L 88.5 173.8 L 77.7 175.4 L 67.2 177.0 L 56.8 178.4 L 46.7 179.9 L 36.7 181.3 L 27.0 182.6 L 21.527959632873536 183.3488055229187 L 19.8 186.7 L 17.5 183.9 L 14.2 172.2 Z M 37.4 126.1 L 37.4 170.47399997711182 L 45.6 169.9 L 50.6 169.56019420623778 L 50.6 126.1 Z M 60.6 126.1 L 60.6 168.88365383148192 L 66.3 168.5 L 74.3 168.0471697807312 L 74.3 126.1 Z M 84.3 126.1 L 84.3 167.42477064132692 L 87.8 167.2 L 97.4 166.7675675392151 L 97.4 126.1 Z M 52.4 85.1 L 54.6 88.0 L 50.728388118743894 88.7471531867981 L 50.2 89.9 L 47.5 94.6 L 44.5 99.1 L 41.2 103.3 L 37.5 107.3 L 33.4 111.1 L 29.0 114.7 L 24.2 118.1 L 19.0 121.1 L 13.5 123.7 L 12.5 122.2 L 16.8 118.0 L 20.8 113.9 L 24.6 109.9 L 27.9 105.9 L 31.0 101.8 L 33.7 97.8 L 36.1 93.7 L 38.1 89.5 L 39.8 85.3 L 40.81979150772095 82.00528907775879 L 40.8 82.0 L 41.6 79.6 Z M 102.9 116.5 L 98.4 112.7 L 94.4 108.5 L 91.0 104.1 L 88.1 99.4 L 85.8 94.4 L 84.1 89.1 L 83.2 83.6 L 83.03157892227173 78.8 L 50.8 78.8 L 50.8 74.8 L 78.98000001907349 74.8 L 83.9 70.7 L 94.9 79.7 L 89.9 82.7 L 87.89473686218261 83.70263156890869 L 89.6 86.9 L 92.2 91.0 L 95.1 94.8 L 98.2 98.2 L 101.6 101.3 L 105.4 104.1 L 109.4 106.6 L 113.9 108.9 L 118.7 110.9 L 124.7 113.6 L 113.3 123.0 L 107.9 119.9 Z M 54.1 31.9 L 56.4 34.6 L 52.67253665924072 35.59842767715454 L 51.9 37.6 L 49.3 43.0 L 46.4 48.3 L 43.1 53.3 L 39.5 58.2 L 35.5 62.8 L 31.1 67.1 L 26.4 71.2 L 21.2 74.9 L 15.7 78.2 L 14.6 76.8 L 18.7 72.0 L 22.6 67.3 L 26.2 62.7 L 29.5 58.0 L 32.5 53.3 L 35.2 48.5 L 37.5 43.6 L 39.5 38.7 L 41.2 33.6 L 42.35003137588501 29.41059989929199 L 42.3 29.4 L 43.1 26.9 Z M 83.7 77.78333330154419 L 83.9 77.75 L 83.9 77.7 L 83.7 77.63333330154418 Z M 102.9 68.6 L 98.5 64.2 L 94.6 59.4 L 91.3 54.3 L 88.6 48.8 L 86.4 43.0 L 84.8 37.0 L 83.9 30.6 L 83.81212120056152 24.8 L 52.2 24.8 L 52.2 20.8 L 79.9 20.8 L 84.7 16.8 L 95.7 25.8 L 90.7 28.8 L 88.19701490402221 30.051492500305176 L 90.4 35.1 L 93.1 40.2 L 95.9 44.8 L 99.1 49.0 L 102.5 52.9 L 106.2 56.3 L 110.3 59.4 L 114.7 62.2 L 119.4 64.6 L 124.4 67.3 L 113.1 76.2 L 107.7 72.6 Z M 91.2 56.0 L 91.2 60.0 L 45.6 60.0 L 45.6 56.0 L 73.01818180084229 56.0 L 81.2 47.0 Z M 84.5 23.88333330154419 L 84.7 23.85 L 84.7 23.8 L 84.5 23.73333330154419 Z " />
</g>
</svg>
