<svg xmlns="http://www.w3.org/2000/svg" xmlns:xlink="http://www.w3.org/1999/xlink" version="1.1" baseProfile="full" viewBox="0 0 200 200" width="200" height="200">
<g fill="black">
<path d="M 39.2 133.5 L 90.1 133.5 L 96.1 128.5 L 107.1 137.5 L 102.1 141.5 L 102.1 180.4 L 90.1 186.4 L 90.1 176.4 L 39.2 176.4 L 39.2 183.4 L 27.2 189.4 L 27.2 127.5 Z M 180.0 153.3 L 178.5 155.3 L 176.8 157.0 L 174.8 158.6 L 172.7 159.8 L 170.4 160.8 L 168.0 161.4 L 165.6 161.8 L 163.0 162.0 L 163.0 156.0 L 153.0 153.0 L 153.0 150.0 L 163.0 150.0 L 164.4 149.9 L 165.5 149.7 L 166.5 149.4 L 167.3 149.1 L 168.0 148.7 L 168.7 148.1 L 169.3 147.5 L 169.9 146.7 L 170.5 145.7 L 171.0 144.5 L 172.4 140.6 L 173.5 135.6 L 174.1 129.9 L 174.0 123.6 L 173.0 116.9 L 171.1 110.2 L 167.9 103.5 L 163.4 97.0 L 157.2 90.7 L 149.6109510421753 84.29365997314453 L 148.2 83.5 L 151.0 76.9 L 153.7 70.5 L 156.4 64.3 L 159.0 58.4 L 161.4 52.6 L 163.7 46.9 L 165.8 41.5 L 167.7 36.1 L 169.4 31.0 L 169.69411764144897 30.0 L 136.3 30.0 L 136.3 183.0 L 124.3 189.0 L 124.3 20.0 L 136.3 26.0 L 170.6 26.0 L 176.6 21.0 L 187.6 30.0 L 182.6 33.0 L 180.5346613883972 33.86055774688721 L 180.0 35.1 L 177.6 40.2 L 175.0 45.5 L 172.1 50.9 L 169.0 56.3 L 165.8 61.9 L 162.2 67.5 L 158.4 73.1 L 154.3 78.8 L 151.02671737670897 82.87341842651367 L 160.4 86.4 L 168.3 92.3 L 174.5 99.2 L 179.0 106.7 L 182.1 114.5 L 184.0 122.3 L 184.7 129.9 L 184.6 136.9 L 183.7 143.3 L 182.2 148.8 L 181.2 151.1 Z M 39.2 137.5 L 39.2 172.4 L 90.1 172.4 L 90.1 137.5 Z M 20.0 108.0 L 59.0 108.0 L 59.0 72.0 L 35.0 72.0 L 35.0 68.0 L 73.0 68.0 L 83.0 58.0 L 95.0 68.0 L 95.0 72.0 L 71.0 72.0 L 71.0 108.0 L 88.0 108.0 L 98.0 98.0 L 110.0 108.0 L 110.0 112.0 L 20.0 112.0 Z M 12.4 70.2 L 10.7 65.9 L 12.4 61.7 L 13.5 61.0 L 14.7 59.7 L 15.9 57.9 L 17.1 55.4 L 18.3 52.4 L 19.3 48.9 L 20.3 44.8 L 21.2 40.3 L 22.1 35.3 L 22.7 29.8 L 24.5 29.8 L 25.1 35.3 L 25.503846168518066 38.8 L 59.0 38.8 L 59.0 11.4 L 71.0 13.4 L 74.0 15.4 L 71.0 17.2 L 71.0 38.8 L 104.6 38.8 L 110.6 33.8 L 121.6 42.8 L 116.6 45.8 L 113.6 47.05 L 112.3 49.0 L 110.8 51.3 L 109.2 53.6 L 107.4 56.0 L 105.5 58.6 L 103.5 61.2 L 101.3 63.9 L 99.3 66.9 L 97.8 66.0 L 99.1 62.7 L 99.9 59.4 L 100.8 56.2 L 101.6 53.2 L 102.3 50.4 L 103.0 47.8 L 103.6 45.3 L 104.2 42.9 L 104.21818180084229 42.8 L 25.89166669845581 42.8 L 26.1 45.3 L 26.2 49.8 L 26.0 53.9 L 25.6 57.7 L 25.0 61.2 L 24.0 64.4 L 22.7 67.4 L 20.9 70.2 L 16.7 71.9 Z " />
</g>
</svg>
