<svg xmlns="http://www.w3.org/2000/svg" xmlns:xlink="http://www.w3.org/1999/xlink" version="1.1" baseProfile="full" viewBox="0 0 200 200" width="200" height="200">
<g fill="black">
<path d="M 178.3 153.4 L 176.8 155.4 L 175.1 157.1 L 173.1 158.6 L 171.0 159.9 L 168.7 160.8 L 166.3 161.5 L 163.9 161.8 L 161.4 162.0 L 161.4 156.0 L 149.4 153.0 L 149.4 150.0 L 161.4 150.0 L 162.7 149.9 L 163.9 149.7 L 164.9 149.4 L 165.7 149.1 L 166.5 148.7 L 167.2 148.1 L 167.8 147.5 L 168.4 146.6 L 169.0 145.6 L 169.6 144.4 L 171.1 140.6 L 172.3 135.6 L 172.9 129.9 L 172.7 123.6 L 171.7 117.0 L 169.6 110.3 L 166.2 103.6 L 161.3 97.1 L 154.6 90.8 L 146.33999996185304 84.31000003814697 L 144.9 83.5 L 148.0 76.8 L 151.0 70.4 L 153.9 64.3 L 156.7 58.3 L 159.3 52.5 L 161.7 46.8 L 164.0 41.3 L 166.0 36.0 L 167.9 30.8 L 168.15600004196168 30.0 L 131.8 30.0 L 131.8 183.0 L 119.8 189.0 L 119.8 20.0 L 131.8 26.0 L 169.2 26.0 L 175.2 21.0 L 186.2 30.0 L 181.2 33.0 L 179.00487804412842 33.91463413238525 L 178.4 35.2 L 175.8 40.4 L 173.1 45.6 L 170.0 51.0 L 166.8 56.4 L 163.3 61.9 L 159.6 67.5 L 155.6 73.2 L 151.2 78.8 L 147.8414659500122 82.80165758132935 L 157.6 86.3 L 166.0 92.2 L 172.6 99.0 L 177.4 106.6 L 180.7 114.4 L 182.7 122.3 L 183.5 129.9 L 183.3 137.0 L 182.3 143.4 L 180.7 149.0 L 179.6 151.3 Z M 93.4 157.9 L 91.0 154.9 L 88.3 152.0 L 85.3 149.2 L 82.0 146.4 L 78.4 143.6 L 74.4 140.9 L 70.1 138.1 L 69.1 137.51304349899291 L 69.1 182.2 L 57.1 188.2 L 57.1 141.55 L 54.4 145.6 L 49.7 151.5 L 44.7 157.1 L 39.3 162.4 L 33.4 167.3 L 27.2 171.8 L 20.5 175.8 L 13.3 179.4 L 12.4 177.8 L 18.3 172.7 L 23.8 167.6 L 29.0 162.4 L 33.9 157.1 L 38.3 151.6 L 42.3 146.0 L 45.9 140.1 L 49.2 134.0 L 52.1 127.8 L 52.902325534820555 125.5 L 17.0 125.5 L 17.0 121.5 L 57.1 121.5 L 57.1 102.6 L 69.1 104.6 L 72.1 106.6 L 69.1 108.4 L 69.1 121.5 L 89.6 121.5 L 99.6 111.5 L 111.6 121.5 L 111.6 125.5 L 69.1 125.5 L 69.1 134.37924528121948 L 71.4 134.9 L 76.5 136.4 L 81.4 138.1 L 85.9 140.2 L 90.1 142.5 L 94.1 145.0 L 97.9 147.8 L 101.3 150.8 L 104.4 154.1 L 107.3 157.5 L 108.1 162.1 L 105.5 165.8 L 101.0 166.6 L 97.2 164.0 L 95.4 160.9 Z M 36.8 21.6 L 89.3 21.6 L 95.3 16.6 L 106.3 25.6 L 101.3 29.6 L 101.3 101.3 L 89.3 107.3 L 89.3 97.3 L 36.8 97.3 L 36.8 104.3 L 24.8 110.3 L 24.8 15.6 Z M 36.8 72.4 L 36.8 93.3 L 89.3 93.3 L 89.3 72.4 Z M 36.8 49.0 L 36.8 68.4 L 89.3 68.4 L 89.3 49.0 Z M 36.8 25.6 L 36.8 45.0 L 89.3 45.0 L 89.3 25.6 Z " />
</g>
</svg>
