<svg xmlns="http://www.w3.org/2000/svg" xmlns:xlink="http://www.w3.org/1999/xlink" version="1.1" baseProfile="full" viewBox="0 0 200 200" width="200" height="200">
<g fill="black">
<path d="M 180.3 153.4 L 178.8 155.4 L 177.1 157.1 L 175.1 158.6 L 173.0 159.9 L 170.7 160.8 L 168.3 161.5 L 165.9 161.8 L 163.4 162.0 L 163.4 156.0 L 151.4 153.0 L 151.4 150.0 L 163.4 150.0 L 164.7 149.9 L 165.9 149.7 L 166.9 149.4 L 167.7 149.1 L 168.5 148.7 L 169.2 148.1 L 169.8 147.5 L 170.4 146.6 L 171.0 145.6 L 171.6 144.4 L 173.1 140.6 L 174.3 135.6 L 174.9 129.9 L 174.7 123.6 L 173.7 117.0 L 171.6 110.3 L 168.2 103.6 L 163.3 97.1 L 156.6 90.8 L 148.33999996185304 84.31000003814697 L 146.9 83.5 L 150.0 76.8 L 153.0 70.4 L 155.9 64.3 L 158.7 58.3 L 161.3 52.5 L 163.7 46.8 L 166.0 41.3 L 168.0 36.0 L 169.9 30.8 L 170.15600004196168 30.0 L 133.3 30.0 L 133.3 183.2 L 122.3 188.7 L 122.3 20.5 L 133.3 26.0 L 171.2 26.0 L 177.2 21.0 L 188.2 30.0 L 183.2 33.0 L 181.00487804412842 33.91463413238525 L 180.4 35.2 L 177.8 40.4 L 175.1 45.6 L 172.0 51.0 L 168.8 56.4 L 165.3 61.9 L 161.6 67.5 L 157.6 73.2 L 153.2 78.8 L 149.8414659500122 82.80165758132935 L 159.6 86.3 L 168.0 92.2 L 174.6 99.0 L 179.4 106.6 L 182.7 114.4 L 184.7 122.3 L 185.5 129.9 L 185.3 137.0 L 184.3 143.4 L 182.7 149.0 L 181.6 151.3 Z M 74.8 156.0 L 74.3 154.3 L 73.7 152.7 L 72.1 149.3 L 71.1 147.6 L 70.55338611602784 146.75523309707643 L 70.2 147.1 L 65.9 150.8 L 61.2 154.1 L 56.3 157.1 L 51.1 159.7 L 45.5 161.8 L 44.7 160.2 L 49.0 156.5 L 53.2 152.8 L 57.1 149.0 L 60.7 145.2 L 64.1 141.2 L 67.2 137.1 L 70.0 132.9 L 72.6 128.4 L 74.58171424865722 124.68428573608398 L 74.3 125.0 L 68.0 130.8 L 61.4 136.0 L 54.5 140.6 L 47.2 144.4 L 39.5 147.4 L 31.5 149.7 L 30.9 148.0 L 37.9 144.0 L 44.5 139.7 L 50.8 135.1 L 56.6 130.1 L 62.2 124.7 L 63.393169689178464 123.34621133804322 L 62.7 123.3 L 59.5 120.0 L 59.4 118.5 L 59.2 117.0 L 58.9 115.5 L 58.5 114.0 L 58.0 112.6 L 56.6 109.6 L 55.7 108.1 L 55.31935482025146 107.5290322303772 L 52.5 110.2 L 48.5 113.5 L 44.3 116.6 L 39.8 119.2 L 35.1 121.5 L 34.1 120.0 L 37.5 116.2 L 40.8 112.5 L 44.0 108.8 L 47.0 105.0 L 49.8 101.2 L 52.4 97.2 L 54.8 93.2 L 57.0 89.0 L 59.0 84.6 L 60.427793407440184 81.10983839035035 L 60.4 81.1 L 61.3 78.9 L 71.7 85.1 L 73.6 88.1 L 69.78577041625977 88.5603380203247 L 69.1 89.8 L 68.53260869979859 90.7 L 84.1 90.7 L 84.61971826553345 90.26690139770508 L 84.7 90.1 L 84.77605638504028 90.13661975860596 L 90.1 85.7 L 101.1 94.7 L 96.1 97.7 L 93.53600521087647 98.76833114624023 L 90.8 103.6 L 85.6 111.4 L 80.1 118.5 L 79.5636583328247 119.10107259750366 L 87.9 124.2 L 89.8 127.3 L 85.94897956848145 127.6983814239502 L 85.0 129.4 L 84.38125 130.3 L 99.9 130.3 L 105.9 125.3 L 116.9 134.3 L 111.9 137.3 L 109.66583242416382 138.23090314865112 L 106.6 144.3 L 101.1 153.1 L 95.0 160.9 L 88.2 167.8 L 80.7 173.7 L 72.7 178.6 L 64.1 182.4 L 54.9 185.3 L 45.3 187.0 L 35.1 187.5 L 35.0 185.7 L 44.5 183.2 L 53.3 180.1 L 61.4 176.4 L 68.8 172.0 L 75.6 166.9 L 78.68074436187744 163.97076759338378 L 75.8 161.0 L 75.2 157.6 Z M 32.013274383544925 30.95663719177246 L 34.6 30.4 L 50.0 27.4 L 57.5 25.9 L 64.9 24.3 L 72.1 22.7 L 79.3 21.0 L 86.3 19.2 L 93.2 17.3 L 99.01722164154053 15.650340175628662 L 99.0 15.6 L 99.04944324493408 15.641202640533447 L 99.9 15.4 L 100.21318683624267 16.610988998413085 L 110.4 25.1 L 110.7 28.1 L 106.37775173187256 26.118969535827638 L 102.9 27.0 L 95.8 28.4 L 88.5 29.7 L 81.2 30.9 L 73.7 31.9 L 66.2 32.7 L 58.5 33.4 L 50.8 33.9 L 42.9 34.2 L 34.9 34.2 L 32.1 34.061728382110594 L 32.1 50.0 L 99.9 50.0 L 105.4 45.0 L 115.9 54.0 L 110.9 57.5 L 110.9 78.0 L 99.9 83.5 L 99.9 76.0 L 32.1 76.0 L 32.1 94.0 L 31.7 105.6 L 30.9 116.7 L 29.9 127.2 L 28.5 137.1 L 26.8 146.4 L 24.8 155.1 L 22.4 163.1 L 19.7 170.6 L 16.5 177.3 L 12.9 183.3 L 11.3 182.6 L 13.0 176.0 L 14.6 169.0 L 16.1 161.5 L 17.4 153.6 L 18.4 145.0 L 19.3 136.0 L 19.9 126.3 L 20.2 116.1 L 20.3 105.3 L 20.1 94.0 L 20.1 25.0 Z M 81.62173910140991 134.3 L 78.1 138.8 L 74.3 143.1 L 72.77204971313476 144.59068326950074 L 73.4 144.8 L 75.4 145.7 L 77.3 146.8 L 79.2 148.1 L 80.9 149.5 L 82.6 151.1 L 84.1 152.8 L 85.6 154.6 L 86.26460676193237 155.62247190475463 L 87.2 154.5 L 92.2 147.2 L 96.5 139.0 L 98.55955057144165 134.3 Z M 65.98372097015381 94.7 L 63.1 98.7 L 59.8 102.8 L 57.554010677337644 105.23850269317627 L 57.8 105.3 L 59.7 106.0 L 61.5 106.9 L 63.3 107.9 L 65.0 109.2 L 66.6 110.6 L 68.1 112.2 L 69.5 114.0 L 70.23584909439087 115.01886796951294 L 72.2 112.4 L 76.7 105.4 L 80.9 98.0 L 82.48734178543091 94.7 Z M 32.1 54.0 L 32.1 72.0 L 99.9 72.0 L 99.9 54.0 Z " />
</g>
</svg>
