<svg xmlns="http://www.w3.org/2000/svg" xmlns:xlink="http://www.w3.org/1999/xlink" version="1.1" baseProfile="full" viewBox="0 0 200 200" width="200" height="200">
<g fill="black">
<path d="M 107.8 114.0 L 136.3240740776062 114.0 L 134.59138383865357 95.28694515228271 L 134.5 95.3 L 134.3 92.0 L 146.4 93.6 L 149.5 95.5 L 146.74309558868407 97.33793630599976 L 148.27246379852295 114.0 L 159.5 114.0 L 160.8361701965332 112.6638298034668 L 157.9 112.6 L 154.6 109.4 L 154.4 107.6 L 154.0 105.8 L 153.7 104.0 L 153.2 102.2 L 152.8 100.3 L 151.6 96.7 L 150.4 92.9 L 149.3 91.3 L 150.6 90.1 L 152.0 91.5 L 153.9 92.6 L 155.6 93.8 L 157.2 95.1 L 158.8 96.5 L 161.8 99.7 L 163.2 101.3 L 165.8 104.9 L 165.73777780532836 107.76222219467164 L 169.5 104.0 L 181.5 114.0 L 181.5 118.0 L 149.00059175491333 118.0 L 151.5 131.2 L 155.1580614089966 143.45450563430785 L 158.4 136.8 L 161.51795778274536 129.40598592758178 L 161.5 129.4 L 162.4 127.2 L 172.9 133.2 L 174.9 136.3 L 171.14375133514403 136.75334033966064 L 168.6 141.9 L 163.9 149.9 L 160.18546342849731 155.39751415252687 L 164.8 162.8 L 169.4 168.2 L 173.7 171.8 L 175.43980579376222 172.79417476654052 L 180.7 150.0 L 182.7 150.0 L 180.7744680404663 175.0319149017334 L 184.9 176.8 L 186.7 181.0 L 184.9 185.2 L 180.7 187.0 L 176.8 186.4 L 172.2 184.7 L 166.8 181.6 L 161.0 176.8 L 155.1 169.9 L 152.36230878829957 165.43324060440062 L 148.1 170.0 L 142.2 175.4 L 136.0 179.9 L 129.5 183.8 L 122.8 186.7 L 115.8 188.8 L 115.1 187.1 L 121.0 183.3 L 126.6 179.2 L 132.0 174.8 L 137.0 169.8 L 141.8 164.3 L 146.3 158.3 L 147.54460382461548 156.38967790603638 L 144.2 148.8 L 139.8 134.0 L 136.88287296295167 118.0 L 107.8 118.0 L 107.8 135.0 L 107.2 142.9 L 106.2 150.3 L 104.6 157.3 L 102.6 163.8 L 100.1 169.8 L 97.0 175.3 L 93.4 180.1 L 89.4 184.4 L 84.8 187.9 L 79.7 190.7 L 78.7 189.2 L 82.2 185.1 L 85.3 180.9 L 88.0 176.4 L 90.3 171.7 L 92.2 166.6 L 93.7 161.1 L 94.8 155.2 L 95.5 148.9 L 95.9 142.2 L 95.8 135.0 L 95.8 108.0 Z M 86.8 29.0 L 86.8 33.0 L 60.4 33.0 L 60.4 61.0 L 71.0 61.0 L 76.5 56.0 L 87.0 65.0 L 82.0 68.5 L 82.0 168.0 L 71.0 173.5 L 71.0 168.0 L 26.6 168.0 L 26.6 180.0 L 14.6 186.0 L 14.6 55.0 L 26.6 61.0 L 34.5 61.0 L 34.5 33.0 L 10.3 33.0 L 10.3 29.0 L 64.8 29.0 L 74.8 19.0 Z M 123.1 155.2 L 122.2 152.4 L 121.1 149.5 L 119.7 146.6 L 118.1 143.7 L 116.3 140.7 L 114.2 137.6 L 111.9 134.3 L 109.2 131.3 L 110.4 129.9 L 113.9 132.2 L 117.3 134.4 L 120.5 136.9 L 123.4 139.4 L 126.1 142.1 L 128.5 145.0 L 130.7 147.9 L 132.6 151.0 L 134.3 154.2 L 135.8 157.5 L 135.1 162.0 L 131.5 164.8 L 127.0 164.2 L 124.2 160.6 L 123.7 157.9 Z M 26.6 143.0 L 26.6 164.0 L 71.0 164.0 L 71.0 143.0 Z M 71.0 65.0 L 60.4 65.0 L 60.4 107.0 L 60.5 108.3 L 60.8 109.4 L 61.2 110.2 L 61.5 110.6 L 61.9 110.9 L 62.3 111.1 L 62.48534479141235 111.1741379737854 L 67.9 90.5 L 69.9 90.5 L 67.9 111.5 L 71.0 113.5666666984558 Z M 26.6 65.0 L 26.6 127.1235294342041 L 27.7 124.6 L 29.2 120.3 L 30.6 115.4 L 31.8 109.9 L 32.8 103.8 L 33.6 97.0 L 34.2 89.5 L 34.5 81.3 L 34.6 72.5 L 34.52105264663696 65.0 Z M 108.9 95.5 L 97.9 101.0 L 97.9 49.5 L 108.9 55.0 L 165.7 55.0 L 171.2 50.0 L 181.7 59.0 L 176.7 62.5 L 176.7 90.5 L 165.7 96.0 L 165.7 88.5 L 108.9 88.5 Z M 108.9 59.0 L 108.9 84.5 L 121.0 84.5 L 121.0 59.0 Z M 131.0 59.0 L 131.0 84.5 L 143.6 84.5 L 143.6 59.0 Z M 153.6 59.0 L 153.6 84.5 L 165.7 84.5 L 165.7 59.0 Z M 44.5 33.0 L 44.5 61.0 L 51.4 61.0 L 51.4 33.0 Z M 158.8 14.3 L 161.8 16.3 L 158.8 18.1 L 158.8 30.0 L 162.9 30.0 L 172.9 20.0 L 184.9 30.0 L 184.9 34.0 L 158.8 34.0 L 158.8 47.0 L 146.8 53.0 L 146.8 34.0 L 128.4 34.0 L 128.4 47.0 L 116.4 53.0 L 116.4 34.0 L 90.3 34.0 L 90.3 30.0 L 116.4 30.0 L 116.4 12.3 L 128.4 14.3 L 131.4 16.3 L 128.4 18.1 L 128.4 30.0 L 146.8 30.0 L 146.8 12.3 Z M 63.4 122.2 L 61.0 121.7 L 58.7 120.8 L 56.6 119.6 L 54.8 118.0 L 53.4 116.1 L 52.3 113.9 L 51.7 111.7 L 51.4 109.4 L 51.4 65.0 L 44.41752576828003 65.0 L 44.1 72.7 L 43.5 81.9 L 42.5 90.3 L 41.3 98.1 L 39.8 105.1 L 37.9 111.5 L 35.8 117.2 L 33.3 122.1 L 30.4 126.2 L 27.2 129.4 L 26.6 128.95 L 26.6 139.0 L 71.0 139.0 L 71.0 120.4333333015442 L 67.9 122.5 L 65.9 122.5 Z " />
</g>
</svg>
