<svg xmlns="http://www.w3.org/2000/svg" xmlns:xlink="http://www.w3.org/1999/xlink" version="1.1" baseProfile="full" viewBox="0 0 200 200" width="200" height="200">
<g fill="black">
<path d="M 86.8 29.0 L 86.8 33.0 L 61.1 33.0 L 61.1 61.0 L 71.2 61.0 L 76.7 56.0 L 87.2 65.0 L 82.2 68.5 L 82.2 174.0 L 71.2 179.5 L 71.2 168.0 L 28.1 168.0 L 28.1 180.0 L 16.1 186.0 L 16.1 55.0 L 28.1 61.0 L 35.6 61.0 L 35.6 33.0 L 12.0 33.0 L 12.0 29.0 L 64.8 29.0 L 74.8 19.0 Z M 126.3 182.3 L 123.9 181.9 L 121.4 181.1 L 119.2 179.9 L 117.2 178.2 L 115.5 176.2 L 114.3 173.9 L 113.5 171.5 L 113.0 169.0 L 112.9 166.5 L 112.9 123.5 L 124.9 125.5 L 127.9 127.5 L 124.9 129.3 L 124.9 166.5 L 125.0 167.7 L 125.1 168.6 L 125.3 169.2 L 125.5 169.5 L 125.7 169.7 L 125.8 169.9 L 126.2 170.1 L 126.8 170.2 L 127.7 170.4 L 128.9 170.5 L 158.3 170.5 L 164.3 145.5 L 166.3 145.5 L 164.3 170.5 L 167.9 172.9 L 170.3 176.5 L 167.9 180.1 L 164.3 182.5 L 128.9 182.5 Z M 90.1 174.7 L 88.0 170.6 L 89.4 166.2 L 90.9 164.7 L 92.4 162.5 L 93.9 159.7 L 95.4 156.4 L 96.7 152.4 L 97.9 147.9 L 99.0 142.8 L 99.9 137.2 L 100.9 131.1 L 101.8 124.4 L 103.6 124.4 L 104.5 131.2 L 105.1 137.5 L 105.3 143.4 L 105.2 148.9 L 104.9 154.0 L 104.2 158.7 L 103.3 163.0 L 102.1 167.0 L 100.5 170.7 L 98.5 174.0 L 94.5 176.0 Z M 174.9 156.9 L 174.1 152.9 L 173.3 149.0 L 172.2 145.1 L 171.0 141.4 L 169.7 137.7 L 168.2 134.0 L 166.6 130.4 L 164.8 126.8 L 166.2 125.7 L 169.2 128.5 L 172.2 131.4 L 174.9 134.7 L 177.4 138.2 L 179.7 141.9 L 181.7 145.9 L 183.5 150.0 L 185.1 154.3 L 186.5 158.8 L 187.7 163.4 L 186.5 167.8 L 182.6 170.3 L 178.2 169.1 L 175.8 165.2 L 175.4 161.0 Z M 28.1 143.0 L 28.1 164.0 L 71.2 164.0 L 71.2 143.0 Z M 140.0 141.3 L 139.2 138.2 L 138.3 135.3 L 137.3 132.5 L 136.2 129.7 L 133.8 124.5 L 132.5 121.9 L 130.8 119.7 L 132.0 118.3 L 134.4 120.1 L 137.0 121.8 L 139.4 123.8 L 141.7 126.1 L 143.9 128.6 L 145.9 131.3 L 147.9 134.3 L 149.7 137.5 L 151.3 140.8 L 152.9 144.3 L 152.4 148.9 L 148.9 151.8 L 144.4 151.3 L 141.4 147.8 L 140.8 144.5 Z M 71.2 65.0 L 61.1 65.0 L 61.1 107.0 L 61.2 108.3 L 61.5 109.4 L 61.9 110.2 L 62.2 110.6 L 62.6 110.9 L 62.91578950881958 111.05789470672607 L 68.3 90.5 L 70.3 90.5 L 68.3 111.5 L 71.2 113.4333333015442 Z M 28.1 65.0 L 28.1 126.79375 L 29.0 124.6 L 30.5 120.3 L 31.8 115.4 L 33.0 109.9 L 34.0 103.8 L 34.7 97.0 L 35.3 89.5 L 35.6 81.3 L 35.7 72.5 L 35.62105264663696 65.0 Z M 175.8 95.4 L 170.8 98.4 L 168.4667353630066 99.37219362258911 L 160.3 122.8 L 147.0 124.3 L 157.662135887146 95.4 L 106.0 95.4 L 106.0 91.4 L 158.8 91.4 L 164.8 86.4 Z M 168.1 77.1 L 163.3 71.6 L 158.7 65.7 L 154.3 59.2 L 150.1 52.3 L 146.2 44.9 L 142.6 36.9 L 139.66241960525514 29.333504962921143 L 135.6 38.0 L 130.8 47.0 L 125.7 55.5 L 120.3 63.4 L 114.6 70.7 L 108.6 77.4 L 102.3 83.4 L 95.6 88.7 L 88.7 93.3 L 87.6 91.9 L 93.1 85.9 L 98.4 79.7 L 103.6 73.1 L 108.5 66.1 L 113.2 58.7 L 117.6 50.8 L 121.9 42.4 L 125.8 33.5 L 129.6 24.1 L 132.74575672149658 15.112123584747314 L 132.7 15.1 L 133.6 12.7 L 144.4 18.2 L 146.5 21.1 L 142.88320541381836 21.797977924346924 L 141.73173742294313 24.52936716079712 L 143.0 26.6 L 147.8 34.2 L 152.5 41.2 L 157.1 47.8 L 161.9 53.8 L 166.6 59.2 L 171.4 64.2 L 176.2 68.5 L 181.1 72.4 L 186.0 75.7 L 189.4 78.1 L 178.4 86.5 L 173.1 82.0 Z M 156.4 69.3 L 156.4 73.3 L 119.5 73.3 L 119.5 69.3 L 138.21818180084227 69.3 L 146.4 60.3 Z M 45.6 33.0 L 45.6 61.0 L 52.1 61.0 L 52.1 33.0 Z M 64.1 122.2 L 61.7 121.7 L 59.4 120.8 L 57.3 119.6 L 55.5 118.0 L 54.1 116.1 L 53.0 113.9 L 52.4 111.7 L 52.1 109.4 L 52.1 65.0 L 45.51752576828003 65.0 L 45.2 72.7 L 44.6 81.9 L 43.6 90.3 L 42.4 98.0 L 40.9 105.1 L 39.1 111.5 L 37.0 117.2 L 34.6 122.1 L 31.7 126.2 L 28.6 129.4 L 28.1 129.025 L 28.1 139.0 L 71.2 139.0 L 71.2 120.5666666984558 L 68.3 122.5 L 66.6 122.5 Z " />
</g>
</svg>
