<svg xmlns="http://www.w3.org/2000/svg" xmlns:xlink="http://www.w3.org/1999/xlink" version="1.1" baseProfile="full" viewBox="0 0 200 200" width="200" height="200">
<g fill="black">
<path d="M 95.4 29.0 L 95.4 33.0 L 66.2 33.0 L 66.2 61.0 L 78.7 61.0 L 84.2 56.0 L 94.7 65.0 L 89.7 68.5 L 89.7 168.0 L 78.7 173.5 L 78.7 168.0 L 29.4 168.0 L 29.4 180.0 L 17.4 186.0 L 17.4 55.0 L 29.4 61.0 L 39.0 61.0 L 39.0 33.0 L 12.2 33.0 L 12.2 29.0 L 73.4 29.0 L 83.4 19.0 Z M 91.9 172.7 L 104.4 172.7 L 104.4 109.7 L 115.4 115.2 L 165.5 115.2 L 171.0 110.2 L 181.5 119.2 L 176.5 122.7 L 176.5 172.7 L 178.5 172.7 L 183.0 166.7 L 189.0 172.7 L 189.0 176.7 L 91.9 176.7 Z M 115.4 119.2 L 115.4 172.7 L 125.3 172.7 L 125.3 119.2 Z M 135.3 119.2 L 135.3 172.7 L 145.6 172.7 L 145.6 119.2 Z M 155.6 119.2 L 155.6 172.7 L 165.5 172.7 L 165.5 119.2 Z M 29.4 143.0 L 29.4 164.0 L 78.7 164.0 L 78.7 143.0 Z M 78.7 114.6 L 78.7 65.0 L 66.2 65.0 L 66.2 107.0 L 66.4 108.3 L 66.7 109.4 L 67.0 110.2 L 67.4 110.6 L 67.8 110.9 L 68.2 111.1 L 68.7 111.3 L 69.32885246276855 111.38983602523804 L 74.8 90.5 L 76.8 90.5 L 74.8 111.5 L 78.1 113.7 Z M 99.8 84.2 L 134.5 84.2 L 134.5 50.8 L 93.0 50.8 L 93.0 46.8 L 134.5 46.8 L 134.5 16.0 L 146.5 18.0 L 149.5 20.0 L 146.5 21.8 L 146.5 46.8 L 165.9 46.8 L 175.9 36.8 L 187.9 46.8 L 187.9 50.8 L 146.5 50.8 L 146.5 84.2 L 159.1 84.2 L 169.1 74.2 L 181.1 84.2 L 181.1 88.2 L 99.8 88.2 Z M 49.0 33.0 L 49.0 61.0 L 57.2 61.0 L 57.2 33.0 Z M 69.2 122.2 L 66.8 121.7 L 64.6 120.8 L 62.5 119.6 L 60.7 118.0 L 59.2 116.1 L 58.2 113.9 L 57.6 111.7 L 57.3 109.4 L 57.2 107.0 L 57.2 65.0 L 48.91836738586426 65.0 L 48.6 72.8 L 47.9 81.9 L 46.9 90.3 L 45.5 98.1 L 43.9 105.2 L 42.0 111.6 L 39.7 117.3 L 37.0 122.2 L 33.9 126.3 L 30.5 129.4 L 29.4 128.5 L 31.3 124.5 L 33.0 120.2 L 34.5 115.3 L 35.9 109.8 L 37.0 103.7 L 37.9 96.9 L 38.5 89.5 L 38.9 81.3 L 39.1 72.5 L 39.02105264663696 65.0 L 29.4 65.0 L 29.4 139.0 L 78.7 139.0 L 78.7 119.4 L 78.1 120.3 L 74.8 122.5 L 71.7 122.5 Z " />
</g>
</svg>
