<svg xmlns="http://www.w3.org/2000/svg" xmlns:xlink="http://www.w3.org/1999/xlink" version="1.1" baseProfile="full" viewBox="0 0 200 200" width="200" height="200">
<g fill="black">
<path d="M 169.66071424484252 53.00357141494751 L 169.5 54.9 L 168.4 60.6 L 166.9 66.0 L 165.62934131622313 69.17664670944214 L 167.8 70.0 L 170.5 71.4 L 173.0 72.8 L 175.4 74.4 L 177.7 76.2 L 179.8 78.0 L 181.8 80.0 L 183.6 82.1 L 185.3 84.3 L 185.6 88.9 L 182.7 92.4 L 178.2 92.7 L 174.6 89.8 L 174.0 87.8 L 173.3 85.8 L 172.4 83.8 L 171.3 81.7 L 170.1 79.6 L 168.7 77.5 L 167.1 75.4 L 165.4 73.2 L 164.38399181365966 71.97009534835816 L 162.4 75.7 L 159.4 80.0 L 156.0 83.9 L 152.1 87.4 L 147.7 90.3 L 143.0 92.65 L 143.0 130.0371428489685 L 145.4 127.5 L 148.3 123.7 L 150.9 119.9 L 153.1 116.0 L 154.9 111.9 L 156.3 107.8 L 157.3 103.4 L 157.9 98.8 L 158.1 94.0 L 158.01996669769287 89.99833612442016 L 158.0 90.0 L 158.0 86.6 L 170.0 89.0 L 173.0 91.0 L 169.66071424484252 93.00357141494752 L 169.5 94.9 L 168.4 100.6 L 166.9 106.0 L 165.62934131622313 109.17664670944214 L 167.8 110.0 L 170.5 111.4 L 173.0 112.8 L 175.4 114.4 L 177.7 116.2 L 179.8 118.0 L 181.8 120.0 L 183.6 122.1 L 185.3 124.3 L 185.6 128.9 L 182.7 132.4 L 178.2 132.7 L 174.6 129.8 L 174.0 127.8 L 173.3 125.8 L 172.4 123.8 L 171.3 121.7 L 170.1 119.6 L 168.7 117.5 L 167.1 115.4 L 165.4 113.2 L 164.38399181365966 111.97009534835816 L 162.4 115.7 L 159.4 120.0 L 156.0 123.9 L 152.1 127.4 L 147.7 130.3 L 143.0 132.65 L 143.0 143.0 L 168.0 143.0 L 178.0 133.0 L 190.0 143.0 L 190.0 147.0 L 143.0 147.0 L 143.0 182.0 L 131.0 188.0 L 131.0 147.0 L 85.0 147.0 L 85.0 143.0 L 131.0 143.0 L 131.0 42.0 L 143.0 44.0 L 146.0 46.0 L 143.0 47.8 L 143.0 90.0371428489685 L 145.4 87.5 L 148.3 83.7 L 150.9 79.9 L 153.1 76.0 L 154.9 71.9 L 156.3 67.8 L 157.3 63.4 L 157.9 58.8 L 158.1 54.0 L 158.01996669769287 49.99833612442016 L 158.0 50.0 L 158.0 46.6 L 170.0 49.0 L 173.0 51.0 Z M 86.8 29.0 L 86.8 33.0 L 61.1 33.0 L 61.1 61.0 L 71.2 61.0 L 76.7 56.0 L 87.2 65.0 L 82.2 68.5 L 82.2 174.0 L 71.2 179.5 L 71.2 168.0 L 28.1 168.0 L 28.1 180.0 L 16.1 186.0 L 16.1 55.0 L 28.1 61.0 L 35.6 61.0 L 35.6 33.0 L 12.0 33.0 L 12.0 29.0 L 68.61818180084228 29.0 L 76.8 20.0 Z M 28.1 143.0 L 28.1 164.0 L 71.2 164.0 L 71.2 143.0 Z M 71.2 65.0 L 61.1 65.0 L 61.1 107.0 L 61.2 108.3 L 61.5 109.4 L 61.9 110.2 L 62.2 110.6 L 62.6 110.9 L 62.91578950881958 111.05789470672607 L 68.3 90.5 L 70.3 90.5 L 68.3 111.5 L 71.2 113.4333333015442 Z M 114.66071424484252 93.00357141494752 L 114.5 94.9 L 113.4 100.6 L 111.9 106.0 L 110.62934131622315 109.17664670944214 L 112.8 110.0 L 115.5 111.4 L 118.0 112.8 L 120.4 114.4 L 122.7 116.2 L 124.8 118.0 L 126.8 120.0 L 128.6 122.1 L 130.3 124.3 L 130.6 128.9 L 127.7 132.4 L 123.2 132.7 L 119.6 129.8 L 119.0 127.8 L 118.3 125.8 L 117.4 123.8 L 116.3 121.7 L 115.1 119.6 L 113.7 117.5 L 112.1 115.4 L 110.4 113.2 L 109.38399181365966 111.97009534835816 L 107.4 115.7 L 104.4 120.0 L 101.0 123.9 L 97.1 127.4 L 92.7 130.3 L 87.9 132.7 L 86.9 131.2 L 90.4 127.5 L 93.3 123.7 L 95.9 119.9 L 98.1 116.0 L 99.9 111.9 L 101.3 107.8 L 102.3 103.4 L 102.9 98.8 L 103.1 94.0 L 103.01996669769287 89.99833612442016 L 103.0 90.0 L 103.0 86.6 L 115.0 89.0 L 118.0 91.0 Z M 28.1 65.0 L 28.1 126.79375 L 29.0 124.6 L 30.5 120.3 L 31.8 115.4 L 33.0 109.9 L 34.0 103.8 L 34.7 97.0 L 35.3 89.5 L 35.6 81.3 L 35.7 72.5 L 35.62105264663696 65.0 Z M 114.66071424484252 53.00357141494751 L 114.5 54.9 L 113.4 60.6 L 111.9 66.0 L 110.62934131622315 69.17664670944214 L 112.8 70.0 L 115.5 71.4 L 118.0 72.8 L 120.4 74.4 L 122.7 76.2 L 124.8 78.0 L 126.8 80.0 L 128.6 82.1 L 130.3 84.3 L 130.6 88.9 L 127.7 92.4 L 123.2 92.7 L 119.6 89.8 L 119.0 87.8 L 118.3 85.8 L 117.4 83.8 L 116.3 81.7 L 115.1 79.6 L 113.7 77.5 L 112.1 75.4 L 110.4 73.2 L 109.38399181365966 71.97009534835816 L 107.4 75.7 L 104.4 80.0 L 101.0 83.9 L 97.1 87.4 L 92.7 90.3 L 87.9 92.7 L 86.9 91.2 L 90.4 87.5 L 93.3 83.7 L 95.9 79.9 L 98.1 76.0 L 99.9 71.9 L 101.3 67.8 L 102.3 63.4 L 102.9 58.8 L 103.1 54.0 L 103.01996669769287 49.99833612442016 L 103.0 50.0 L 103.0 46.6 L 115.0 49.0 L 118.0 51.0 Z M 45.6 33.0 L 45.6 61.0 L 52.1 61.0 L 52.1 33.0 Z M 84.2 37.3 L 130.5 37.3 L 130.5 12.9 L 142.5 14.9 L 145.5 16.9 L 142.5 18.7 L 142.5 37.3 L 170.51818180084229 37.3 L 178.7 28.3 L 188.7 37.3 L 188.7 41.3 L 84.2 41.3 Z M 64.1 122.2 L 61.7 121.7 L 59.4 120.8 L 57.3 119.6 L 55.5 118.0 L 54.1 116.1 L 53.0 113.9 L 52.4 111.7 L 52.1 109.4 L 52.1 65.0 L 45.51752576828003 65.0 L 45.2 72.7 L 44.6 81.9 L 43.6 90.3 L 42.4 98.0 L 40.9 105.1 L 39.1 111.5 L 37.0 117.2 L 34.6 122.1 L 31.7 126.2 L 28.6 129.4 L 28.1 129.025 L 28.1 139.0 L 71.2 139.0 L 71.2 120.5666666984558 L 68.3 122.5 L 66.6 122.5 Z " />
</g>
</svg>
