<svg xmlns="http://www.w3.org/2000/svg" xmlns:xlink="http://www.w3.org/1999/xlink" version="1.1" baseProfile="full" viewBox="0 0 200 200" width="200" height="200">
<g fill="black">
<path d="M 183.8 27.0 L 183.8 31.0 L 143.3 31.0 L 143.3 109.0 L 166.6 109.0 L 176.6 99.0 L 188.6 109.0 L 188.6 113.0 L 143.3 113.0 L 143.3 182.0 L 131.3 188.0 L 131.3 113.0 L 87.9 113.0 L 87.9 109.0 L 131.3 109.0 L 131.3 31.0 L 93.6 31.0 L 93.6 27.0 L 161.8 27.0 L 171.8 17.0 Z M 89.3 29.0 L 89.3 33.0 L 62.7 33.0 L 62.7 61.0 L 73.4 61.0 L 78.9 56.0 L 89.4 65.0 L 84.4 68.5 L 84.4 174.0 L 73.4 179.5 L 73.4 168.0 L 28.7 168.0 L 28.7 180.0 L 16.7 186.0 L 16.7 55.0 L 28.7 61.0 L 36.7 61.0 L 36.7 33.0 L 12.3 33.0 L 12.3 29.0 L 67.3 29.0 L 77.3 19.0 Z M 28.7 143.0 L 28.7 164.0 L 73.4 164.0 L 73.4 143.0 Z M 73.4 65.0 L 62.7 65.0 L 62.7 107.0 L 62.8 108.3 L 63.1 109.4 L 63.5 110.2 L 64.2 110.9 L 64.6 111.1 L 64.8758620262146 111.21034479141235 L 70.3 90.5 L 72.3 90.5 L 70.3 111.5 L 73.4 113.5666666984558 Z M 28.7 65.0 L 28.7 127.35294113159179 L 29.9 124.6 L 31.4 120.3 L 32.8 115.4 L 34.0 109.9 L 35.0 103.8 L 35.8 97.0 L 36.4 89.5 L 36.8 81.3 L 36.9 72.5 L 36.74210529327392 65.0 Z M 122.0 50.1 L 124.6 52.7 L 120.8910662651062 53.98126802444458 L 120.4 55.7 L 118.5 61.3 L 116.4 66.7 L 113.9 72.1 L 111.1 77.5 L 108.1 82.7 L 104.7 87.9 L 101.0 92.9 L 96.9 97.8 L 92.4 102.5 L 90.9 101.4 L 93.7 95.7 L 96.4 90.1 L 99.0 84.6 L 101.3 79.2 L 103.4 73.9 L 105.3 68.6 L 106.9 63.4 L 108.3 58.1 L 109.4 52.9 L 110.12638578414916 48.703104209899905 L 110.1 48.7 L 110.6 45.9 Z M 168.0 82.6 L 166.8 78.2 L 165.5 73.9 L 163.9 69.5 L 162.1 65.2 L 160.1 60.8 L 158.0 56.4 L 155.7 51.9 L 153.3 47.3 L 154.7 46.2 L 158.7 49.7 L 162.3 53.4 L 165.6 57.4 L 168.7 61.5 L 171.4 65.8 L 173.9 70.2 L 176.2 74.7 L 178.2 79.2 L 179.9 83.9 L 181.4 88.7 L 180.6 93.2 L 176.8 95.9 L 172.4 95.0 L 169.7 91.3 L 168.9 86.9 Z M 46.7 33.0 L 46.7 61.0 L 53.7 61.0 L 53.7 33.0 Z M 65.7 122.2 L 63.3 121.7 L 61.0 120.8 L 58.9 119.6 L 57.1 118.0 L 55.7 116.1 L 54.7 113.9 L 54.0 111.7 L 53.7 109.4 L 53.7 65.0 L 46.63814430236816 65.0 L 46.4 72.7 L 45.7 81.9 L 44.7 90.3 L 43.5 98.1 L 42.0 105.1 L 40.1 111.5 L 38.0 117.2 L 35.5 122.1 L 32.6 126.2 L 29.3 129.4 L 28.7 128.90909090042115 L 28.7 139.0 L 73.4 139.0 L 73.4 120.4333333015442 L 70.3 122.5 L 68.2 122.5 Z " />
</g>
</svg>
