<svg xmlns="http://www.w3.org/2000/svg" xmlns:xlink="http://www.w3.org/1999/xlink" version="1.1" baseProfile="full" viewBox="0 0 200 200" width="200" height="200">
<g fill="black">
<path d="M 146.0 81.0 L 149.0 83.0 L 146.0 84.8 L 146.0 93.0 L 156.8181818008423 93.0 L 165.0 84.0 L 175.0 93.0 L 175.0 97.0 L 146.0 97.0 L 146.0 108.0 L 165.7777777671814 108.0 L 172.0 101.0 L 180.0 108.0 L 180.0 112.0 L 146.0 112.0 L 146.0 127.0 L 134.0 133.0 L 134.0 127.0 L 106.0 127.0 L 106.0 137.0 L 170.7777777671814 137.0 L 177.0 130.0 L 185.0 137.0 L 185.0 141.0 L 106.0 141.0 L 106.0 184.0 L 94.0 190.0 L 94.0 141.0 L 15.0 141.0 L 15.0 137.0 L 94.0 137.0 L 94.0 127.0 L 66.0 127.0 L 54.0 133.0 L 54.0 112.0 L 20.0 112.0 L 20.0 108.0 L 54.0 108.0 L 54.0 97.0 L 25.0 97.0 L 25.0 93.0 L 54.0 93.0 L 54.0 79.0 L 66.0 81.0 L 69.0 83.0 L 66.0 84.8 L 66.0 93.0 L 94.0 93.0 L 94.0 79.0 L 106.0 81.0 L 109.0 83.0 L 106.0 84.8 L 106.0 93.0 L 134.0 93.0 L 134.0 79.0 Z M 153.5 145.2 L 156.5 147.2 L 153.5 149.0 L 153.5 161.0 L 162.0 161.0 L 172.0 151.0 L 184.0 161.0 L 184.0 165.0 L 153.5 165.0 L 153.5 183.2 L 141.5 189.2 L 141.5 165.0 L 110.9 165.0 L 110.9 161.0 L 141.5 161.0 L 141.5 143.2 Z M 56.0 145.2 L 59.0 147.2 L 56.0 149.0 L 56.0 161.0 L 62.4 161.0 L 72.4 151.0 L 84.4 161.0 L 84.4 165.0 L 56.0 165.0 L 56.0 183.2 L 44.0 189.2 L 44.0 165.0 L 15.6 165.0 L 15.6 161.0 L 44.0 161.0 L 44.0 143.2 Z M 66.0 112.0 L 66.0 123.0 L 94.0 123.0 L 94.0 112.0 Z M 106.0 112.0 L 106.0 123.0 L 134.0 123.0 L 134.0 112.0 Z M 66.0 97.0 L 66.0 108.0 L 94.0 108.0 L 94.0 97.0 Z M 106.0 97.0 L 106.0 108.0 L 134.0 108.0 L 134.0 97.0 Z M 157.0 75.8 L 149.2 73.4 L 141.7 70.8 L 134.6 68.1 L 127.9 65.1 L 121.6 61.8 L 115.6 58.4 L 110.2 54.6 L 106.11666669845582 51.1 L 106.0 51.1 L 106.0 68.0 L 94.0 74.0 L 94.0 56.813793087005614 L 92.8 57.6 L 86.5 61.1 L 79.8 64.3 L 72.5 67.3 L 64.7 70.1 L 56.5 72.6 L 47.7 74.9 L 38.4 76.9 L 28.5 78.5 L 18.1 79.7 L 17.8 77.9 L 27.7 74.8 L 37.0 71.7 L 45.8 68.6 L 54.0 65.4 L 61.7 62.2 L 68.8 58.8 L 75.3 55.4 L 81.2 51.8 L 82.18518514633179 51.1 L 18.0 51.1 L 18.0 47.1 L 68.8615385055542 47.1 L 66.3 45.3 L 65.7 43.7 L 64.9 42.0 L 63.8 40.2 L 62.5 38.3 L 60.9 36.4 L 59.1 34.4 L 57.1 32.3 L 54.8 30.1 L 52.3 27.8 L 51.20300035476684 27.043448543548585 L 44.7 26.9 L 31.0 26.3 L 30.9 24.6 L 44.6 23.2 L 58.1 21.9 L 71.4 20.7 L 84.5 19.4 L 97.4 18.2 L 110.2 16.9 L 122.7 15.5 L 135.1 14.0 L 147.3 12.5 L 158.3063325881958 11.032489013671874 L 158.3 11.0 L 158.33443603515624 11.028741836547852 L 159.3 10.9 L 159.41234798431395 11.928416442871093 L 171.0 21.6 L 171.5 24.6 L 166.87301588058472 22.07619047164917 L 160.6 22.8 L 148.5 23.8 L 142.92422409057616 24.204693412780763 L 149.4 31.4 L 150.0 34.9 L 145.87701578140258 33.79562921524048 L 144.4 34.8 L 141.8 36.5 L 139.2 38.1 L 136.4 39.8 L 133.6 41.3 L 130.7 42.8 L 127.6 44.3 L 124.5 45.6 L 121.6875 47.1 L 160.0 47.1 L 170.0 37.1 L 182.0 47.1 L 182.0 51.1 L 112.74545450210572 51.1 L 118.2 53.1 L 124.5 55.2 L 130.9 57.3 L 137.7 59.2 L 144.8 61.1 L 152.1 62.8 L 159.8 64.4 L 167.8 65.8 L 176.1 67.1 L 185.6 68.8 L 173.8 80.1 L 165.2 78.0 Z M 84.9 27.0 L 71.7 27.2 L 58.45 27.2 L 60.0 27.8 L 62.9 29.1 L 65.6 30.5 L 68.1 32.0 L 70.5 33.6 L 72.7 35.3 L 74.7 37.1 L 76.5 39.0 L 77.2 43.5 L 74.64210529327393 47.1 L 94.0 47.1 L 94.0 26.722137451171875 Z M 136.1 24.7 L 123.6 25.5 L 110.9 26.1 L 106.0 26.289922523498536 L 106.0 47.1 L 121.42666664123536 47.1 L 120.4 45.7 L 122.9 43.4 L 125.2 40.9 L 127.4 38.5 L 129.5 36.1 L 133.7 31.5 L 135.6 29.3 L 137.5 27.0 L 139.3 24.9 L 139.6759937286377 24.440452098846436 Z " />
</g>
</svg>
