<svg xmlns="http://www.w3.org/2000/svg" xmlns:xlink="http://www.w3.org/1999/xlink" version="1.1" baseProfile="full" viewBox="0 0 200 200" width="200" height="200">
<g fill="black">
<path d="M 73.8 181.0 L 124.5 181.0 L 124.5 166.5 L 84.6 166.5 L 84.6 162.5 L 124.5 162.5 L 124.5 149.0 L 99.3 149.0 L 87.3 155.0 L 87.3 102.0 L 99.3 108.0 L 161.6 108.0 L 167.6 103.0 L 178.6 112.0 L 173.6 116.0 L 173.6 149.0 L 161.6 155.0 L 161.6 149.0 L 136.5 149.0 L 136.5 162.5 L 158.21818180084227 162.5 L 166.4 153.5 L 176.4 162.5 L 176.4 166.5 L 136.5 166.5 L 136.5 181.0 L 165.2 181.0 L 175.2 171.0 L 187.2 181.0 L 187.2 185.0 L 73.8 185.0 Z M 14.7 168.9 L 20.7 168.2 L 26.8 167.5 L 33.1 166.7 L 37.0 166.2125 L 37.0 143.5 L 17.8 143.5 L 17.8 139.5 L 37.0 139.5 L 37.0 118.0 L 14.7 118.0 L 14.7 114.0 L 56.7 114.0 L 66.7 104.0 L 78.7 114.0 L 78.7 118.0 L 49.0 118.0 L 49.0 139.5 L 53.6 139.5 L 63.6 129.5 L 75.6 139.5 L 75.6 143.5 L 49.0 143.5 L 49.0 164.75882349014282 L 52.9 164.3 L 59.8 163.5 L 66.9 162.7 L 74.2 162.1 L 81.7 161.6 L 82.0 163.3 L 74.9 165.8 L 68.0 168.0 L 61.1 169.9 L 54.3 171.8 L 47.7 173.5 L 41.2 175.1 L 34.9 176.6 L 28.6 178.0 L 22.6 179.4 L 20.651660537719728 179.8221402168274 L 19.1 183.3 L 16.6 180.7 L 12.7 169.2 Z M 99.3 130.5 L 99.3 145.0 L 124.5 145.0 L 124.5 130.5 Z M 136.5 130.5 L 136.5 145.0 L 161.6 145.0 L 161.6 130.5 Z M 99.3 112.0 L 99.3 126.5 L 124.5 126.5 L 124.5 112.0 Z M 136.5 112.0 L 136.5 126.5 L 161.6 126.5 L 161.6 112.0 Z M 137.0 92.5 L 152.2 92.5 L 153.1 92.3 L 153.7 92.1 L 154.0 91.9 L 154.2 91.8 L 154.4 91.6 L 154.7 90.7 L 154.9 89.8 L 155.0 88.5 L 155.0 43.1 L 139.1 43.1 L 146.7 50.7 L 147.6 54.2 L 143.5487338066101 53.41817674636841 L 140.93690032958983 55.45867156982422 L 143.6 56.6 L 146.3 58.1 L 148.5 62.1 L 147.3 66.5 L 143.3 68.7 L 140.16935720443726 67.84618835449218 L 146.7 74.3 L 147.6 77.8 L 143.5941283226013 77.02693700790405 L 141.53149690628052 78.55727653503418 L 143.6 79.4 L 146.1 80.7 L 148.4 84.6 L 147.4 89.1 L 143.4 91.4 L 139.0 90.3 L 137.5 88.8 L 135.7 87.2 L 133.6 85.6 L 131.91020412445067 84.42448978424072 L 130.4 85.2 L 126.6 86.9 L 122.5 88.5 L 118.3 89.8 L 113.8 91.0 L 109.3 92.1 L 108.6 90.4 L 112.6 88.1 L 116.3 85.6 L 119.8 83.2 L 123.1 80.8 L 124.51700077056884 79.70296716690063 L 123.1 78.9 L 119.8 77.1 L 116.4 75.2 L 112.7 73.7 L 113.2 71.9 L 117.2 72.6 L 121.2 73.1 L 124.9 73.7 L 128.5 74.4 L 130.1983669281006 74.84956769943237 L 131.5 73.6 L 133.9 71.2 L 136.0 68.8 L 137.26180534362794 67.04749250411987 L 137.2 67.0 L 137.6615385055542 66.49230766296387 L 137.7581395149231 66.3581395149231 L 137.4 66.0 L 135.7 64.5 L 133.6 62.9 L 131.31221370697023 61.374809169769286 L 129.9 62.1 L 126.1 63.8 L 122.1 65.3 L 118.0 66.5 L 109.2 68.5 L 108.7 66.8 L 112.5 64.6 L 116.0 62.3 L 119.4 60.0 L 122.6 57.6 L 123.28441562652588 57.09220781326294 L 122.3 56.6 L 118.7 55.0 L 114.9 53.3 L 110.8 51.9 L 111.1 50.2 L 115.5 50.6 L 119.8 50.8 L 123.8 51.2 L 127.6 51.8 L 129.3001848220825 52.13059148788452 L 131.1 50.4 L 133.5 47.9 L 135.8 45.3 L 137.20472049713135 43.40362730026245 L 137.2 43.4 L 137.26666669845582 43.31999998092651 L 137.429629611969 43.1 L 106.0 43.1 L 106.0 95.5 L 94.0 101.5 L 94.0 43.1 L 79.1 43.1 L 86.7 50.7 L 87.6 54.2 L 83.64852685928345 53.43743505477905 L 80.89438199996948 55.44044942855835 L 83.6 56.6 L 86.3 58.1 L 88.5 62.1 L 87.3 66.5 L 83.3 68.7 L 80.16935720443726 67.84618835449218 L 86.7 74.3 L 87.6 77.8 L 83.62173128128052 77.0322639465332 L 81.49672899246215 78.60887851715088 L 81.7 78.7 L 84.4 80.2 L 86.9 81.9 L 88.7 86.1 L 87.1 90.3 L 82.9 92.2 L 78.7 90.6 L 77.4 89.0 L 75.8 87.3 L 73.9 85.6 L 72.07650327682495 84.1909342765808 L 69.8 85.3 L 65.8 87.0 L 61.5 88.6 L 57.0 89.9 L 52.2 91.0 L 47.2 92.1 L 46.7 90.4 L 51.0 88.0 L 55.1 85.5 L 58.9 83.1 L 62.5 80.7 L 64.62322273254395 79.17393369674683 L 63.5 78.5 L 60.2 76.7 L 56.6 74.8 L 52.7 73.2 L 53.1 71.4 L 57.4 72.1 L 61.5 72.6 L 65.4 73.3 L 69.1 74.1 L 70.4055248260498 74.48397789001464 L 71.4 73.6 L 73.8 71.1 L 76.0 68.7 L 77.24757928848267 67.03656091690064 L 77.2 67.0 L 77.62857141494752 66.5285714149475 L 77.75714282989502 66.35714282989503 L 77.4 66.0 L 75.7 64.5 L 73.6 62.9 L 71.2 61.3 L 69.6 62.1 L 65.7 63.8 L 61.6 65.3 L 57.3 66.6 L 52.8 67.5 L 48.2 68.5 L 47.7 66.7 L 51.7 64.6 L 55.4 62.2 L 59.0 59.9 L 62.3 57.6 L 63.084810161590575 56.992405033111574 L 62.3 56.6 L 58.7 55.0 L 54.9 53.3 L 50.8 51.9 L 51.1 50.2 L 55.5 50.6 L 59.8 50.8 L 63.8 51.2 L 67.6 51.8 L 69.09743585586548 52.091168117523196 L 71.0 50.4 L 73.5 47.9 L 75.8 45.3 L 77.20472049713135 43.40362730026245 L 77.2 43.4 L 77.26666669845581 43.31999998092651 L 77.42962961196899 43.1 L 45.0 43.1 L 45.0 97.0 L 33.0 103.0 L 33.0 43.631034469604494 L 31.7 43.9 L 25.7 45.0 L 19.5 45.9 L 13.2 46.4 L 12.7 44.7 L 18.6 42.2 L 24.3 39.9 L 29.8 37.7 L 33.0 36.3962963104248 L 33.0 33.1 L 36.595789432525635 34.89789476394653 L 40.3 33.3 L 45.3 31.0 L 50.1 28.8 L 54.7 26.5 L 58.02608699798584 24.8 L 14.0 24.8 L 14.0 20.8 L 164.0 20.8 L 174.0 10.8 L 186.0 20.8 L 186.0 24.8 L 106.0 24.8 L 106.0 39.1 L 155.0 39.1 L 157.65737266540526 36.88552274703979 L 152.4 35.1 L 146.6 33.3 L 140.4 31.5 L 133.8 29.5 L 126.8 27.3 L 127.1 25.5 L 134.5 25.7 L 141.4 26.2 L 148.0 26.9 L 154.1 27.7 L 159.8 28.7 L 165.2 29.7 L 170.2 30.9 L 174.8 32.1 L 179.0 33.5 L 182.9 34.9 L 185.9 38.4 L 185.6 42.9 L 182.2 45.9 L 177.6 45.7 L 174.6 43.9 L 171.0 42.2 L 170.7777777671814 42.1 L 172.0 43.1 L 167.0 47.1 L 167.0 88.5 L 166.8 91.1 L 166.4 93.6 L 165.6 96.0 L 164.3 98.3 L 162.7 100.3 L 160.7 101.9 L 158.4 103.1 L 156.0 104.0 L 153.5 104.4 L 151.0 104.5 L 151.0 98.5 L 137.0 95.5 Z M 65.14204549789429 24.8 L 71.8 31.1 L 71.9 34.3 L 68.21776180267334 32.79088592529297 L 63.9 34.5 L 59.0 36.4 L 53.9 38.1 L 50.782352924346924 39.1 L 94.0 39.1 L 94.0 24.8 Z " />
</g>
</svg>
