<svg xmlns="http://www.w3.org/2000/svg" xmlns:xlink="http://www.w3.org/1999/xlink" version="1.1" baseProfile="full" viewBox="0 0 200 200" width="200" height="200">
<g fill="black">
<path d="M 78.1 180.0 L 88.36363639831544 180.0 L 87.6 179.4 L 90.1 174.5 L 94.8 165.1 L 97.0 160.6 L 99.0 156.2 L 100.8 151.8 L 102.4 147.6 L 103.8 143.3 L 105.0 139.2 L 105.82992324829101 136.10664958953856 L 105.8 136.1 L 105.9962264060974 135.48679246902466 L 106.1 135.1 L 106.11816444396973 135.10573616027833 L 106.47200002670289 134.0 L 84.9 134.0 L 84.9 130.0 L 170.9777777671814 130.0 L 177.2 123.0 L 185.2 130.0 L 185.2 134.0 L 162.17818183898925 134.0 L 171.8 138.9 L 173.9 141.8 L 170.12894735336303 142.5939058303833 L 169.9 143.1 L 167.8 147.2 L 165.5 151.4 L 164.89617834091186 152.4818470954895 L 165.2 152.6 L 167.0 153.5 L 168.8 154.5 L 170.4 155.7 L 172.1 157.1 L 173.7 158.5 L 175.2 160.1 L 176.7 161.8 L 178.2 163.6 L 178.4 168.2 L 176.42234954833984 170.51862468719483 L 187.8 180.0 L 187.8 184.0 L 78.1 184.0 Z M 115.8 168.6 L 115.3 167.0 L 114.7 165.3 L 113.9 163.5 L 113.0 161.7 L 112.0 159.8 L 110.9 157.9 L 109.8 155.9 L 109.37766819000244 155.50251121520995 L 109.1 156.0 L 106.4 160.2 L 103.5 164.4 L 100.3 168.6 L 96.9 172.7 L 93.1 176.7 L 89.53947372436524 180.0 L 129.1 180.0 L 129.1 134.0 L 107.45490198135376 134.0 L 117.5 138.7 L 119.8 141.5 L 116.02661542892456 142.42679624557496 L 115.8 143.0 L 113.7 147.4 L 111.5 151.7 L 110.39624576568603 153.67755975723267 L 111.2 154.2 L 113.4 155.2 L 115.5 156.3 L 117.5 157.5 L 119.4 158.8 L 121.2 160.2 L 122.9 161.7 L 124.5 163.3 L 126.0 165.0 L 127.3 166.7 L 127.5 171.3 L 124.4 174.7 L 119.8 174.8 L 116.4 171.8 L 116.2 170.2 Z M 141.1 134.0 L 141.1 180.0 L 142.17692308425904 180.0 L 144.3 175.2 L 146.5 170.1 L 148.8 165.2 L 150.9 160.5 L 152.9 155.9 L 154.7 151.5 L 156.4 147.1 L 158.0 142.9 L 159.3 138.8 L 160.5 134.8 L 160.52973680496217 134.8107894897461 L 160.8 134.0 Z M 166.0 163.5 L 164.8 160.1 L 164.2 158.5 L 163.5 156.8 L 163.0516529083252 155.77520656585693 L 160.4 159.9 L 157.5 164.2 L 154.4 168.6 L 151.1 172.9 L 147.4 177.2 L 144.79534883499144 180.0 L 165.8 180.0 L 174.1093023300171 171.6906976699829 L 170.9 171.9 L 167.4 168.9 L 167.0 167.1 Z M 27.8 143.0 L 27.8 164.0 L 67.8 164.0 L 67.8 143.0 Z M 67.8 113.1 L 67.8 65.0 L 58.5 65.0 L 58.5 107.0 L 58.6 108.3 L 58.9 109.4 L 59.3 110.2 L 59.72830190658569 110.62830190658569 L 65.0 90.5 L 67.0 90.5 L 65.0 111.5 L 66.71428575515748 112.64285717010497 Z M 27.8 65.0 L 27.8 125.51428575515747 L 28.1 124.7 L 29.5 120.3 L 30.7 115.5 L 31.7 110.0 L 32.6 103.8 L 33.3 97.0 L 33.8 89.5 L 34.1 81.3 L 34.2 72.5 L 34.12105264663696 65.0 Z M 188.0 96.3 L 183.0 99.8 L 183.0 117.5 L 172.0 123.0 L 172.0 117.5 L 162.8 117.5 L 153.8 122.0 L 153.8 96.5 L 149.2 98.8 L 149.2 117.5 L 140.2 122.0 L 140.2 117.5 L 129.9 117.5 L 120.9 122.0 L 120.9 96.5 L 116.3 98.8 L 116.3 117.5 L 107.3 122.0 L 107.3 117.5 L 97.6 117.5 L 87.6 122.5 L 87.6 87.3 L 97.6 92.3 L 107.3 92.3 L 111.8 87.3 L 120.9 95.92105264663697 L 120.9 87.8 L 129.9 92.3 L 140.2 92.3 L 144.7 87.3 L 153.8 95.92105264663697 L 153.8 87.8 L 162.8 92.3 L 172.0 92.3 L 177.5 87.3 Z M 162.8 96.3 L 162.8 113.5 L 172.0 113.5 L 172.0 96.3 Z M 129.9 96.3 L 129.9 113.5 L 140.2 113.5 L 140.2 96.3 Z M 97.6 96.3 L 97.6 113.5 L 107.3 113.5 L 107.3 96.3 Z M 84.1 67.9 L 82.7906367301941 65.00561800003052 L 77.8 68.0 L 77.8 168.0 L 67.8 173.0 L 67.8 168.0 L 27.8 168.0 L 27.8 180.0 L 15.8 186.0 L 15.8 55.0 L 27.8 61.0 L 34.1 61.0 L 34.1 33.0 L 12.4 33.0 L 12.4 29.0 L 60.2 29.0 L 70.2 19.0 L 82.2 29.0 L 82.2 33.0 L 58.5 33.0 L 58.5 61.0 L 67.8 61.0 L 72.8 56.0 L 82.77991971969604 64.98192768096924 L 82.2 63.7 L 83.8 59.4 L 84.8 58.8 L 85.9 57.7 L 87.1 56.2 L 88.2 54.1 L 89.3 51.6 L 90.4 48.6 L 91.4 45.3 L 92.3 41.5 L 93.3 37.3 L 93.8 32.8 L 95.6 32.8 L 96.0 37.4 L 96.31818180084228 40.2 L 129.1 40.2 L 129.1 26.0 L 94.7 26.0 L 94.7 22.0 L 155.1 22.0 L 165.1 12.0 L 177.1 22.0 L 177.1 26.0 L 141.1 26.0 L 141.1 40.2 L 172.0 40.2 L 178.0 35.2 L 189.0 44.2 L 184.0 47.2 L 180.7887324333191 48.538028144836424 L 180.0 49.8 L 178.8 51.6 L 177.6 53.5 L 176.2 55.4 L 174.8 57.5 L 173.1 59.7 L 171.9 62.1 L 170.3 61.5 L 171.1 58.9 L 171.3 56.2 L 171.6 53.7 L 171.8 51.4 L 172.0 49.2 L 172.0 44.2 L 141.1 44.2 L 141.1 79.7 L 129.1 85.7 L 129.1 44.2 L 96.68000001907349 44.2 L 96.8 45.8 L 96.9 49.6 L 96.8 53.2 L 96.5 56.5 L 95.9 59.5 L 95.2 62.4 L 94.0 65.1 L 92.5 67.6 L 88.4 69.5 Z M 176.3 74.2 L 176.3 78.2 L 144.5 78.2 L 144.5 74.2 L 162.0777777671814 74.2 L 168.3 67.2 Z M 125.6 74.2 L 125.6 78.2 L 93.8 78.2 L 93.8 74.2 L 111.3777777671814 74.2 L 117.6 67.2 Z M 170.2 58.5 L 170.2 62.5 L 144.5 62.5 L 144.5 58.5 L 155.9777777671814 58.5 L 162.2 51.5 Z M 125.6 58.5 L 125.6 62.5 L 99.0 62.5 L 99.0 58.5 L 111.3777777671814 58.5 L 117.6 51.5 Z M 44.1 33.0 L 44.1 61.0 L 49.5 61.0 L 49.5 33.0 Z M 61.5 122.2 L 59.1 121.7 L 56.8 120.8 L 54.7 119.6 L 52.9 118.0 L 51.5 116.1 L 50.5 113.9 L 49.8 111.7 L 49.5 109.4 L 49.5 65.0 L 44.01752576828003 65.0 L 43.7 72.7 L 43.1 81.8 L 42.2 90.3 L 41.0 98.0 L 39.6 105.1 L 37.9 111.4 L 35.9 117.1 L 33.6 122.0 L 30.9 126.2 L 27.9 129.4 L 27.8 129.325 L 27.8 139.0 L 67.8 139.0 L 67.8 120.8 L 67.03999996185303 121.13999996185302 L 65.0 122.5 L 64.0 122.5 Z " />
</g>
</svg>
