<svg xmlns="http://www.w3.org/2000/svg" xmlns:xlink="http://www.w3.org/1999/xlink" version="1.1" baseProfile="full" viewBox="0 0 200 200" width="200" height="200">
<g fill="black">
<path d="M 156.4 66.0 L 156.4 70.0 L 139.6 70.0 L 139.6 97.0 L 158.2 97.0 L 168.2 87.0 L 180.2 97.0 L 180.2 101.0 L 139.6 101.0 L 139.6 129.7 L 157.3 129.7 L 163.3 124.7 L 174.3 133.7 L 169.3 137.7 L 169.3 179.2 L 157.3 185.2 L 157.3 175.2 L 109.0 175.2 L 109.0 182.2 L 97.0 188.2 L 97.0 123.7 L 109.0 129.7 L 127.6 129.7 L 127.6 101.0 L 86.1 101.0 L 86.1 97.0 L 127.6 97.0 L 127.6 70.0 L 109.9 70.0 L 109.9 66.0 L 138.21818180084227 66.0 L 146.4 57.0 Z M 16.2 170.9 L 29.2 168.3 L 35.7 166.8 L 42.3 165.4 L 45.7 164.563076877594 L 45.7 105.0 L 18.3 105.0 L 18.3 101.0 L 45.7 101.0 L 45.7 73.0 L 32.9 73.0 L 32.9 69.0 L 61.21818180084229 69.0 L 69.4 60.0 L 79.4 69.0 L 79.4 73.0 L 57.7 73.0 L 57.7 101.0 L 62.3 101.0 L 72.3 91.0 L 84.3 101.0 L 84.3 105.0 L 57.7 105.0 L 57.7 161.71641788482665 L 62.1 160.6 L 68.7 159.0 L 75.5 157.5 L 82.3 156.1 L 82.9 157.8 L 76.8 161.1 L 70.5 164.1 L 64.1 166.9 L 57.7 169.5 L 51.3 172.0 L 44.9 174.3 L 38.4 176.5 L 32.0 178.6 L 22.926530647277833 181.39183673858642 L 21.6 185.0 L 19.0 182.6 L 14.3 171.3 Z M 109.0 133.7 L 109.0 171.2 L 157.3 171.2 L 157.3 133.7 Z M 28.2 145.4 L 27.9 142.4 L 27.4 139.5 L 26.7 136.5 L 25.7 133.5 L 24.6 130.5 L 23.3 127.4 L 21.8 124.3 L 19.9 121.3 L 21.2 120.1 L 26.8 124.9 L 29.4 127.5 L 31.6 130.3 L 33.7 133.3 L 35.5 136.4 L 37.1 139.7 L 38.4 143.2 L 39.5 146.8 L 40.3 150.5 L 38.8 154.8 L 34.8 156.9 L 30.5 155.5 L 28.3 151.4 L 28.4 148.4 Z M 81.4 121.9 L 83.6 124.8 L 79.53494129180908 125.58448505401611 L 76.7 130.9 L 74.9 133.8 L 71.1 139.8 L 69.0 142.7 L 66.8 145.6 L 64.4 148.4 L 62.2 151.4 L 60.7 150.5 L 62.0 147.1 L 62.9 143.6 L 64.0 140.2 L 65.0 136.8 L 66.0 133.6 L 66.9 130.3 L 67.8 127.2 L 68.6 124.0 L 69.4 120.9 L 69.8847173690796 118.82263994216919 L 69.8 118.8 L 70.6 116.4 Z M 71.4 49.1 L 69.9 46.7 L 68.2 44.1 L 66.2 41.5 L 64.0 38.9 L 61.4 36.3 L 58.6 33.6 L 55.6 30.8 L 53.57496004104614 29.295684623718262 L 51.5 34.3 L 47.9 42.4 L 43.9 50.2 L 39.7 57.9 L 35.1 65.3 L 30.2 72.6 L 25.0 79.5 L 19.3 86.2 L 13.3 92.5 L 11.8 91.4 L 16.3 83.9 L 20.5 76.5 L 24.6 69.1 L 28.5 61.6 L 32.1 54.0 L 35.5 46.3 L 38.7 38.4 L 41.5 30.5 L 44.1 22.4 L 46.4 14.2 L 46.448024368286134 14.21419849395752 L 46.9 12.6 L 57.9 17.6 L 60.2 20.4 L 56.56844549179077 21.37273778915405 L 54.9 26.1 L 54.44436550140381 27.198883247375488 L 57.1 28.3 L 61.1 29.9 L 64.8 31.7 L 68.3 33.6 L 71.5 35.8 L 74.5 38.0 L 77.3 40.4 L 79.8 43.0 L 82.1 45.7 L 84.2 48.6 L 84.5 53.1 L 81.6 56.6 L 77.0 56.9 L 73.5 54.0 L 72.6 51.6 Z M 166.2 70.5 L 161.0 65.6 L 156.1 60.1 L 151.4 54.2 L 147.0 47.9 L 142.7 41.1 L 138.8 33.8 L 135.3668137550354 26.36142978668213 L 130.7 35.0 L 125.6 43.1 L 120.2 50.8 L 114.5 57.9 L 108.4 64.5 L 102.1 70.5 L 95.5 75.9 L 88.5 80.6 L 81.3 84.6 L 80.3 83.1 L 86.2 77.6 L 92.0 71.9 L 97.5 65.9 L 102.7 59.5 L 107.7 52.7 L 112.5 45.5 L 117.0 37.9 L 121.2 29.9 L 125.2 21.3 L 128.52269735336304 13.307565784454345 L 128.5 13.3 L 129.4 11.1 L 139.9 17.1 L 141.9 20.1 L 138.18175239562987 20.612861728668214 L 137.44659566879272 22.11584882736206 L 138.8 24.0 L 143.8 30.7 L 148.7 37.0 L 153.6 42.8 L 158.5 48.2 L 163.5 53.1 L 168.5 57.5 L 173.6 61.4 L 178.8 64.8 L 183.9 67.8 L 188.3 70.4 L 177.1 79.1 L 171.5 75.1 Z " />
</g>
</svg>
