<svg xmlns="http://www.w3.org/2000/svg" xmlns:xlink="http://www.w3.org/1999/xlink" version="1.1" baseProfile="full" viewBox="0 0 200 200" width="200" height="200">
<g fill="black">
<path d="M 187.5 110.5 L 187.5 114.5 L 120.62173910140991 114.5 L 118.0 121.2 L 114.9 127.7 L 111.5 133.6 L 109.54864864349365 136.42432432174684 L 113.5 138.4 L 164.6 138.4 L 170.6 133.4 L 181.6 142.4 L 176.6 146.4 L 176.6 179.0 L 164.6 185.0 L 164.6 175.0 L 113.5 175.0 L 113.5 182.0 L 101.5 188.0 L 101.5 146.05333337783813 L 99.1 148.4 L 94.2 152.3 L 89.1 155.5 L 83.6 158.0 L 77.8 159.9 L 77.1 158.2 L 81.7 154.7 L 86.0 151.1 L 90.0 147.3 L 93.6 143.1 L 97.0 138.7 L 100.0 133.9 L 102.7 128.7 L 105.2 123.1 L 107.3 117.2 L 108.04680852890014 114.5 L 77.5 114.5 L 77.5 110.5 L 165.5 110.5 L 175.5 100.5 Z M 15.6 170.9 L 21.4 169.6 L 27.3 168.3 L 33.2 166.9 L 41.8 164.71355934143065 L 41.8 105.0 L 17.7 105.0 L 17.7 101.0 L 41.8 101.0 L 41.8 73.0 L 30.9 73.0 L 30.9 69.0 L 54.61818180084229 69.0 L 62.8 60.0 L 72.8 69.0 L 72.8 73.0 L 53.8 73.0 L 53.8 101.0 L 59.018181800842285 101.0 L 67.2 92.0 L 77.2 101.0 L 77.2 105.0 L 53.8 105.0 L 53.8 161.55333337783813 L 63.0 159.1 L 69.1 157.5 L 75.4 156.1 L 76.1 157.8 L 70.5 161.1 L 64.9 164.1 L 59.2 166.9 L 53.5 169.4 L 47.7 171.9 L 36.1 176.5 L 30.3 178.6 L 24.5 180.6 L 22.649358463287353 181.20624465942382 L 21.4 184.9 L 18.7 182.5 L 13.7 171.4 Z M 113.5 142.4 L 113.5 171.0 L 164.6 171.0 L 164.6 142.4 Z M 26.1 145.3 L 25.9 142.3 L 25.4 139.3 L 24.8 136.4 L 24.1 133.4 L 23.1 130.4 L 22.0 127.3 L 20.8 124.2 L 19.1 121.3 L 20.5 120.1 L 23.0 122.6 L 25.6 125.0 L 28.0 127.6 L 30.1 130.4 L 32.0 133.4 L 33.7 136.6 L 35.1 139.9 L 36.3 143.3 L 37.3 146.8 L 38.1 150.5 L 36.6 154.8 L 32.6 156.9 L 28.2 155.5 L 26.1 151.4 L 26.2 148.3 Z M 75.2 121.7 L 77.5 124.6 L 73.4115182876587 125.53246068954468 L 72.4 127.7 L 69.2 133.7 L 67.5 136.7 L 65.6 139.6 L 63.7 142.6 L 61.7 145.5 L 59.5 148.4 L 57.4 151.4 L 55.8 150.5 L 56.9 147.1 L 57.7 143.7 L 58.6 140.3 L 59.5 137.0 L 60.3 133.7 L 61.9 127.3 L 62.6 124.2 L 63.2 121.1 L 63.614705848693845 119.0264705657959 L 63.5 119.0 L 64.3 116.5 Z M 80.5 84.6 L 84.3 83.8 L 88.5 82.9 L 93.0 82.0 L 97.9 81.0 L 101.2 80.36538457870483 L 101.2 62.1 L 81.9 62.1 L 81.9 58.1 L 101.2 58.1 L 101.2 37.1 L 79.9 37.1 L 79.9 33.1 L 101.2 33.1 L 101.2 13.8 L 113.2 15.8 L 116.2 17.8 L 113.2 19.6 L 113.2 33.1 L 115.71818180084229 33.1 L 123.9 24.1 L 133.9 33.1 L 133.9 37.1 L 113.2 37.1 L 113.2 58.1 L 116.3777777671814 58.1 L 122.6 51.1 L 130.6 58.1 L 130.6 62.1 L 113.2 62.1 L 113.2 78.04237289428711 L 114.5 77.8 L 120.7 76.8 L 127.3 75.8 L 134.3 74.9 L 134.7 76.7 L 128.3 79.4 L 122.1 81.9 L 116.2 84.2 L 113.2 85.27142858505249 L 113.2 101.5 L 101.2 107.5 L 101.2 89.6061224937439 L 100.4 89.9 L 95.7 91.6 L 91.5 93.2 L 87.81769542694092 94.58086423873901 L 86.6 98.4 L 83.9 96.1 L 78.5 85.1 Z M 176.6 90.9 L 175.1 92.8 L 173.3 94.6 L 171.4 96.1 L 169.3 97.3 L 167.0 98.2 L 164.6 98.9 L 162.1 99.3 L 159.6 99.4 L 159.6 93.4 L 145.6 90.4 L 145.6 87.4 L 159.6 87.4 L 161.0 87.3 L 162.1 87.1 L 163.1 86.9 L 164.0 86.5 L 164.7 86.1 L 166.1 84.9 L 166.7 84.1 L 167.3 83.1 L 167.9 81.8 L 168.5 79.9 L 169.2 77.1 L 169.9 73.5 L 170.4 69.1 L 170.9 64.0 L 171.3 58.1 L 171.6 51.6 L 171.9 44.3 L 172.0 36.4 L 172.07701148986817 29.7 L 161.15154638290406 29.7 L 160.5 37.6 L 159.3 46.8 L 157.6 55.4 L 155.5 63.3 L 153.0 70.7 L 150.0 77.4 L 146.5 83.4 L 142.5 88.7 L 138.1 93.2 L 133.2 96.8 L 131.9 95.5 L 135.2 90.7 L 138.1 85.7 L 140.7 80.3 L 143.0 74.4 L 144.9 68.0 L 146.5 61.0 L 147.8 53.5 L 148.6 45.5 L 149.2 36.8 L 149.2 29.7 L 137.1 29.7 L 137.1 25.7 L 172.1 25.7 L 178.1 20.7 L 189.1 29.7 L 184.1 32.7 L 184.04291152954102 32.7237868309021 L 184.0 36.5 L 183.9 44.6 L 183.6 52.1 L 183.3 58.8 L 182.9 65.0 L 182.4 70.4 L 181.7 75.3 L 181.0 79.5 L 180.1 83.2 L 179.0 86.4 L 177.9 88.7 Z M 65.0 48.9 L 63.8 46.4 L 62.3 43.9 L 60.6 41.4 L 58.6 38.8 L 56.4 36.2 L 53.9 33.5 L 51.3 30.8 L 49.90642204284668 29.631192684173584 L 48.2 34.2 L 44.9 42.2 L 41.3 50.1 L 37.4 57.7 L 33.2 65.2 L 28.8 72.4 L 24.0 79.4 L 18.8 86.1 L 13.2 92.5 L 11.8 91.4 L 19.4 76.6 L 23.0 69.2 L 26.5 61.7 L 29.7 54.1 L 32.7 46.4 L 35.5 38.6 L 38.1 30.6 L 40.4 22.6 L 42.24487133026123 15.308365821838379 L 42.2 15.3 L 42.9 12.7 L 54.0 17.5 L 56.4 20.2 L 52.801685428619386 21.228089904785158 L 51.3 25.9 L 50.72273483276367 27.445580863952635 L 52.8 28.4 L 56.5 30.0 L 59.9 31.8 L 63.1 33.8 L 66.1 35.9 L 68.8 38.2 L 71.4 40.6 L 73.7 43.2 L 75.8 45.9 L 77.7 48.7 L 77.8 53.3 L 74.8 56.7 L 70.2 56.8 L 66.8 53.7 L 66.0 51.3 Z " />
</g>
</svg>
