<svg xmlns="http://www.w3.org/2000/svg" xmlns:xlink="http://www.w3.org/1999/xlink" version="1.1" baseProfile="full" viewBox="0 0 200 200" width="200" height="200">
<g fill="black">
<path d="M 155.5 179.1 L 145.8 175.4 L 137.2 170.7 L 130.57349824905396 165.81731452941895 L 125.3 169.7 L 115.4 175.5 L 104.9 180.2 L 93.7 183.8 L 81.8 186.3 L 69.4 187.6 L 69.1 185.8 L 81.0 182.6 L 92.0 178.7 L 102.2 174.1 L 111.7 168.9 L 120.3 162.8 L 124.08378381729126 159.58378381729125 L 123.2 158.7 L 117.9 151.5 L 113.9 143.6 L 111.2 134.9 L 109.8 125.6 L 110.4 125.5 L 96.5 125.5 L 96.5 121.5 L 152.4 121.5 L 152.81965322494506 121.1502890586853 L 153.0 120.8 L 153.15104894638063 120.87412586212159 L 158.4 116.5 L 169.4 125.5 L 164.4 128.5 L 161.77576999664308 129.59342918395996 L 157.6 136.8 L 150.6 146.5 L 142.9 155.2 L 138.2760760307312 159.44313020706176 L 142.3 161.8 L 150.1 165.2 L 158.8 167.8 L 168.4 169.7 L 179.0 170.9 L 189.5 172.1 L 177.6 184.1 L 166.1 182.0 Z M 70.0 49.1 L 68.6 46.6 L 66.9 44.1 L 65.0 41.5 L 62.8 38.9 L 60.3 36.3 L 57.5 33.6 L 54.6 30.8 L 52.69484367370605 29.343115711212157 L 50.7 34.3 L 47.1 42.4 L 43.2 50.2 L 39.1 57.9 L 34.6 65.3 L 32.08194446563721 69.0 L 56.0 69.0 L 66.0 59.0 L 78.0 69.0 L 78.0 73.0 L 56.8 73.0 L 56.8 101.0 L 60.8 101.0 L 70.8 91.0 L 82.8 101.0 L 82.8 105.0 L 56.8 105.0 L 56.8 161.70923080444337 L 60.9 160.7 L 67.5 159.0 L 74.1 157.5 L 80.8 156.1 L 81.5 157.8 L 75.4 161.1 L 69.2 164.1 L 63.0 166.9 L 56.7 169.5 L 44.1 174.3 L 37.8 176.5 L 31.5 178.6 L 25.1 180.6 L 22.762522602081297 181.29393863677979 L 21.4 185.0 L 18.7 182.5 L 14.0 171.4 L 15.9 170.9 L 28.7 168.3 L 35.1 166.8 L 41.5 165.4 L 44.8 164.575 L 44.8 105.0 L 18.0 105.0 L 18.0 101.0 L 44.8 101.0 L 44.8 73.0 L 29.335714244842528 73.0 L 24.6 79.5 L 19.0 86.2 L 13.1 92.5 L 11.6 91.4 L 16.0 84.0 L 20.1 76.5 L 24.1 69.1 L 27.9 61.6 L 31.5 54.0 L 34.8 46.3 L 37.9 38.5 L 40.7 30.5 L 43.2 22.4 L 45.218459129333496 15.203754425048828 L 45.2 15.2 L 45.42068967819214 14.482758617401123 L 45.5 14.2 L 45.50705089569092 14.202084636688232 L 46.0 12.6 L 57.0 17.6 L 59.3 20.4 L 55.693548393249515 21.30161294937134 L 54.0 26.1 L 53.55066385269165 27.216532135009764 L 56.1 28.3 L 60.0 29.9 L 63.7 31.7 L 67.1 33.7 L 70.3 35.8 L 73.3 38.0 L 76.0 40.4 L 78.5 43.0 L 80.8 45.7 L 82.8 48.6 L 83.0 53.1 L 80.1 56.6 L 75.5 56.9 L 72.0 54.0 L 71.1 51.5 Z M 27.6 145.4 L 27.3 142.4 L 26.8 139.4 L 26.1 136.5 L 25.2 133.5 L 24.2 130.5 L 22.9 127.4 L 21.5 124.3 L 19.6 121.3 L 20.9 120.1 L 23.6 122.5 L 26.4 124.9 L 28.9 127.5 L 31.2 130.3 L 33.2 133.3 L 35.0 136.5 L 36.5 139.8 L 37.8 143.2 L 38.9 146.8 L 39.7 150.5 L 38.2 154.8 L 34.2 156.9 L 29.9 155.5 L 27.7 151.4 L 27.8 148.4 Z M 111.6843373298645 125.5 L 115.1 133.6 L 119.2 140.9 L 123.8 147.3 L 129.2 152.9 L 130.36693029403688 153.81824026107788 L 135.5 148.4 L 142.0 140.1 L 147.8 130.9 L 150.58019800186156 125.5 Z M 80.1 121.9 L 82.3 124.8 L 78.24296674728393 125.56943731307983 L 77.0 127.9 L 75.4 130.8 L 71.8 136.8 L 69.9 139.7 L 67.8 142.7 L 65.7 145.6 L 63.3 148.4 L 61.1 151.4 L 59.6 150.5 L 60.8 147.1 L 61.8 143.6 L 62.8 140.2 L 63.8 136.9 L 64.7 133.6 L 66.5 127.2 L 68.1 121.0 L 68.5646598815918 118.94222049713134 L 68.4 118.9 L 69.3 116.5 Z M 113.8 70.4 L 113.8 100.0 L 152.4 100.0 L 152.4 70.4 Z M 164.8588234901428 74.03294115066528 L 164.4 74.4 L 164.4 106.0 L 152.4 112.0 L 152.4 104.0 L 113.8 104.0 L 113.8 107.0 L 101.8 113.0 L 101.8 71.80847454071045 L 100.2 73.3 L 94.0 78.3 L 87.4 82.7 L 80.4 86.5 L 79.4 85.0 L 85.1 79.7 L 90.5 74.3 L 95.6 68.7 L 100.3 62.8 L 101.8 60.73333330154419 L 101.8 60.4 L 101.97751483917236 60.48875741958618 L 104.50708036422729 57.003578186035156 L 102.7 57.2 L 99.1 54.4 L 97.7 50.2 L 96.8 48.2 L 95.9 46.3 L 94.8 44.3 L 93.7 42.4 L 92.5 40.4 L 91.3 38.5 L 89.9 36.5 L 88.2 35.0 L 89.2 33.5 L 91.3 34.7 L 93.7 35.6 L 95.9 36.7 L 98.1 38.0 L 100.2 39.4 L 102.3 41.0 L 104.2 42.7 L 106.1 44.5 L 107.9 46.5 L 109.6 48.6 L 109.62116785049439 48.790510940551755 L 112.7 43.2 L 116.2 36.0 L 119.3 28.4 L 120.71374998092651 24.5 L 92.5 24.5 L 92.5 20.5 L 121.8 20.5 L 127.8 15.5 L 136.3752968788147 22.516152000427248 L 135.1 14.5 L 136.9 14.0 L 140.4 22.0 L 144.0 29.4 L 147.8 36.4 L 150.08057651519775 40.01554822921753 L 150.8 38.3 L 152.1 35.3 L 153.3 32.6 L 154.5 30.0 L 155.5 27.6 L 156.5 25.3 L 157.3 23.1 L 158.1 21.1 L 158.37279996871948 20.28159999847412 L 158.2 20.2 L 159.2 18.4 L 169.0 25.3 L 170.6 28.6 L 166.1 28.6 L 164.4 30.4 L 162.6 32.3 L 158.6 36.3 L 156.4 38.4 L 154.0 40.6 L 151.75311527252197 42.66713399887085 L 151.9 42.9 L 156.3 48.9 L 160.19555978775026 53.45863380432129 L 161.1 51.7 L 162.9 48.5 L 164.5 45.5 L 166.1 42.8 L 167.4 40.2 L 168.7 37.8 L 169.8 35.7 L 170.8 33.7 L 171.17319030761718 32.906970500946045 L 171.0 32.8 L 172.0 31.3 L 181.2 39.1 L 182.5 42.5 L 177.9652509689331 42.03088798522949 L 176.2 43.6 L 174.2 45.5 L 172.0 47.5 L 169.7 49.6 L 167.1 51.9 L 164.3 54.3 L 162.42985610961915 55.85845327377319 L 166.0 59.5 L 171.4 64.1 L 177.1 68.2 L 183.2 72.0 L 187.3 74.5 L 176.2 83.1 L 169.6 78.3 Z M 133.8 27.5 L 131.74782609939575 28.355072498321533 L 129.8 32.9 L 125.8 40.8 L 121.4 48.2 L 116.7 55.2 L 111.6 61.8 L 109.4 64.2 L 113.8 66.4 L 152.4 66.4 L 155.47138261795044 63.840514469146726 L 153.1 60.9 L 148.6 54.2 L 144.7 47.1 L 141.3 39.5 L 138.6 31.6 L 137.06673641204833 25.539958190917968 Z " />
</g>
</svg>
