<svg xmlns="http://www.w3.org/2000/svg" xmlns:xlink="http://www.w3.org/1999/xlink" version="1.1" baseProfile="full" viewBox="0 0 200 200" width="200" height="200">
<g fill="black">
<path d="M 134.7 146.9 L 133.6 144.9 L 132.1 142.9 L 130.4 140.7 L 128.4 138.4 L 126.1 136.1 L 123.5 133.6 L 120.7 130.9 L 117.4 128.5 L 118.3 127.0 L 122.0 128.7 L 125.8 130.1 L 129.2 131.6 L 132.4 133.2 L 135.3 134.9 L 138.0 136.6 L 140.5 138.4 L 142.7 140.3 L 144.8 142.4 L 146.6 144.5 L 146.69291744232177 145.56855096817017 L 151.6 138.0 L 156.7 128.2 L 161.0 117.6 L 163.44173917770385 109.8 L 128.75128202438356 109.8 L 128.7 109.9 L 124.1 117.4 L 119.1 124.5 L 113.6 131.2 L 107.7 137.5 L 101.3 143.3 L 94.3 148.6 L 86.9 153.4 L 85.8 152.0 L 91.8 145.8 L 97.5 139.5 L 102.8 133.1 L 107.7 126.5 L 112.1 119.7 L 116.1 112.6 L 119.7 105.4 L 122.9 97.8 L 125.7 90.1 L 126.86875 85.7 L 87.0 85.7 L 87.0 81.7 L 170.8181818008423 81.7 L 179.0 72.7 L 189.0 81.7 L 189.0 85.7 L 139.3918604850769 85.7 L 136.4 94.0 L 132.7 102.1 L 130.80256414413452 105.8 L 164.4 105.8 L 170.4 100.8 L 181.4 109.8 L 176.4 112.8 L 174.6072639465332 113.54697332382202 L 171.6 121.7 L 166.3 133.0 L 160.1 143.3 L 153.1 152.8 L 145.2 161.4 L 136.5 168.9 L 127.0 175.6 L 116.7 181.2 L 105.7 185.7 L 93.8 189.1 L 93.3 187.4 L 104.2 182.2 L 114.1 176.5 L 123.3 170.1 L 131.6 163.2 L 139.1 155.5 L 141.0873332977295 152.97066669464112 L 139.6 153.1 L 136.0 150.3 L 135.5 148.7 Z M 16.8 170.9 L 23.5 169.6 L 30.3 168.2 L 37.0 166.8 L 43.8 165.4 L 47.5 164.52941179275513 L 47.5 105.0 L 18.9 105.0 L 18.9 101.0 L 47.5 101.0 L 47.5 73.0 L 34.1 73.0 L 34.1 69.0 L 64.01818180084229 69.0 L 72.2 60.0 L 82.2 69.0 L 82.2 73.0 L 59.5 73.0 L 59.5 101.0 L 65.3 101.0 L 75.3 91.0 L 87.3 101.0 L 87.3 105.0 L 59.5 105.0 L 59.5 161.72941179275512 L 64.3 160.6 L 71.2 159.0 L 78.2 157.5 L 85.3 156.1 L 85.9 157.8 L 79.5 161.1 L 72.9 164.1 L 66.3 166.9 L 59.7 169.5 L 53.0 172.0 L 46.3 174.3 L 39.6 176.5 L 26.2 180.7 L 23.468010044097902 181.47474346160888 L 22.1 185.0 L 19.5 182.6 L 14.8 171.3 Z M 29.4 145.5 L 29.0 142.5 L 28.5 139.5 L 27.7 136.5 L 26.7 133.5 L 25.6 130.5 L 24.2 127.4 L 22.6 124.3 L 20.6 121.3 L 21.9 120.0 L 24.7 122.5 L 27.6 124.8 L 30.3 127.4 L 32.6 130.2 L 34.7 133.2 L 36.6 136.4 L 38.2 139.7 L 39.5 143.1 L 40.6 146.7 L 41.5 150.5 L 40.0 154.8 L 36.0 156.9 L 31.7 155.5 L 29.5 151.5 L 29.5 148.5 Z M 84.1 122.0 L 86.2 124.9 L 82.20688953399659 125.6706003189087 L 80.9 127.9 L 79.2 130.9 L 77.4 133.9 L 75.5 136.9 L 73.5 139.8 L 71.4 142.7 L 69.1 145.6 L 66.7 148.5 L 64.4 151.4 L 62.9 150.5 L 64.2 147.1 L 65.3 143.5 L 66.4 140.1 L 67.4 136.8 L 68.5 133.5 L 69.5 130.3 L 70.4 127.1 L 71.3 124.0 L 72.65626945495606 118.74445600509644 L 72.5 118.7 L 73.4 116.4 Z M 74.1 49.2 L 72.6 46.7 L 70.8 44.2 L 68.7 41.6 L 66.4 39.0 L 63.7 36.3 L 60.8 33.6 L 57.6 30.8 L 55.31421241760254 29.149153423309325 L 53.1 34.4 L 49.4 42.4 L 45.3 50.3 L 40.9 58.0 L 36.2 65.4 L 31.1 72.6 L 25.7 79.6 L 19.9 86.2 L 13.6 92.5 L 12.2 91.4 L 16.9 83.9 L 21.3 76.5 L 25.6 69.0 L 29.6 61.5 L 33.4 53.9 L 36.9 46.2 L 40.2 38.4 L 43.2 30.4 L 45.9 22.3 L 48.006873798370364 15.101514530181884 L 48.0 15.1 L 48.08571424484253 14.83214282989502 L 48.3 14.1 L 48.31817893981933 14.10569076538086 L 48.8 12.6 L 59.8 17.7 L 62.0 20.5 L 58.38947372436523 21.402631568908692 L 56.6 26.1 L 56.15746145248413 27.149448680877686 L 59.0 28.3 L 63.1 29.8 L 67.0 31.6 L 70.6 33.6 L 73.9 35.7 L 77.0 37.9 L 79.9 40.4 L 82.5 42.9 L 84.9 45.6 L 87.0 48.5 L 87.3 53.0 L 84.5 56.6 L 79.9 57.0 L 76.4 54.1 L 75.4 51.7 Z M 102.6 68.2 L 90.6 74.2 L 90.6 15.5 L 102.6 21.5 L 173.4 21.5 L 179.4 16.5 L 190.4 25.5 L 185.4 29.5 L 185.4 65.2 L 173.4 71.2 L 173.4 61.2 L 102.6 61.2 Z M 102.6 25.5 L 102.6 57.2 L 118.2 57.2 L 118.2 25.5 Z M 130.2 25.5 L 130.2 57.2 L 145.8 57.2 L 145.8 25.5 Z M 157.8 25.5 L 157.8 57.2 L 173.4 57.2 L 173.4 25.5 Z " />
</g>
</svg>
