<svg xmlns="http://www.w3.org/2000/svg" xmlns:xlink="http://www.w3.org/1999/xlink" version="1.1" baseProfile="full" viewBox="0 0 200 200" width="200" height="200">
<g fill="black">
<path d="M 123.0 177.0 L 143.0 177.0 L 144.2 176.9 L 145.1 176.7 L 146.0 176.4 L 146.4 176.0 L 146.7 175.1 L 146.9 174.2 L 147.0 173.0 L 147.0 67.0 L 159.0 69.0 L 162.0 71.0 L 159.0 72.8 L 159.0 173.0 L 158.8 175.5 L 158.4 178.0 L 157.6 180.4 L 156.4 182.7 L 154.7 184.7 L 152.7 186.3 L 150.4 187.6 L 148.0 188.4 L 145.5 188.8 L 143.0 189.0 L 143.0 183.0 L 123.0 180.0 Z M 59.6 48.6 L 58.6 46.2 L 57.3 43.7 L 55.9 41.2 L 54.2 38.6 L 52.3 36.1 L 50.2 33.4 L 47.9 30.7 L 47.193396186828615 30.071907711029052 L 45.9 34.0 L 42.9 42.1 L 39.7 49.9 L 36.2 57.6 L 32.4 65.0 L 30.153424644470213 69.0 L 49.018181800842285 69.0 L 57.2 60.0 L 67.2 69.0 L 67.2 73.0 L 50.9 73.0 L 50.9 101.0 L 52.918181800842284 101.0 L 61.1 92.0 L 71.1 101.0 L 71.1 105.0 L 50.9 105.0 L 50.9 161.2925926208496 L 58.3 159.1 L 63.8 157.6 L 69.4 156.1 L 70.2 157.8 L 65.3 161.0 L 60.4 164.0 L 55.3 166.8 L 50.3 169.4 L 45.2 171.8 L 40.0 174.2 L 34.9 176.4 L 29.8 178.5 L 24.6 180.5 L 23.33791160583496 180.96114768981934 L 22.2 184.7 L 19.4 182.4 L 14.1 171.5 L 16.0 170.9 L 26.4 168.3 L 31.6 166.9 L 38.9 164.83396224975587 L 38.9 105.0 L 18.1 105.0 L 18.1 101.0 L 38.9 101.0 L 38.9 73.0 L 29.8 73.0 L 29.8 69.6292682647705 L 28.3 72.3 L 24.0 79.3 L 19.3 86.0 L 14.2 92.4 L 12.7 91.5 L 19.3 76.7 L 22.5 69.4 L 25.5 61.9 L 28.3 54.3 L 31.0 46.6 L 33.4 38.8 L 35.6 30.8 L 37.7 22.7 L 39.5 14.5 L 39.52110004425049 14.50504961013794 L 39.9 12.8 L 51.2 17.3 L 53.6 20.0 L 50.04390926361084 21.079527568817138 L 48.6 25.8 L 47.97042655944824 27.7120379447937 L 49.5 28.5 L 52.9 30.2 L 56.0 32.0 L 58.9 34.0 L 61.6 36.1 L 64.1 38.4 L 66.5 40.8 L 68.6 43.4 L 70.5 46.1 L 72.2 48.9 L 72.2 53.5 L 69.0 56.7 L 64.4 56.7 L 61.1 53.4 L 60.5 51.0 Z M 105.7 179.0 L 104.3 181.1 L 102.6 182.9 L 100.7 184.5 L 98.6 185.8 L 96.3 186.8 L 93.9 187.4 L 91.4 187.8 L 88.9 188.0 L 88.9 182.0 L 68.9 179.0 L 68.9 176.0 L 88.9 176.0 L 90.2 175.9 L 91.3 175.7 L 92.3 175.4 L 93.1 175.1 L 93.7 174.7 L 94.3 174.2 L 94.9 173.6 L 95.5 172.8 L 96.0 171.8 L 96.5 170.5 L 97.5 167.1 L 98.5 163.0 L 99.4 158.2 L 100.2 152.8 L 100.9 146.7 L 101.5 140.0 L 102.0 132.7 L 102.4 124.7 L 102.6 116.1 L 102.7543478012085 109.0 L 85.56945457458497 109.0 L 84.6 121.4 L 72.1 126.4 L 72.26352243423462 124.33591518402099 L 68.45559997558594 125.3380000114441 L 66.0 130.6 L 64.5 133.5 L 62.9 136.5 L 61.2 139.5 L 59.4 142.5 L 57.5 145.4 L 55.5 148.3 L 53.6 151.3 L 51.9 150.6 L 52.9 147.2 L 53.5 143.8 L 54.2 140.4 L 55.6 133.8 L 56.3 130.6 L 57.5 124.4 L 58.0 121.3 L 58.34508199691773 119.22950820922851 L 58.2 119.2 L 59.0 116.6 L 70.0 121.6 L 72.27730312347413 124.16196603775025 L 77.4 59.5 L 88.23333330154419 66.0 L 102.2 66.0 L 102.2 29.0 L 74.1 29.0 L 74.1 25.0 L 102.2 25.0 L 108.2 20.0 L 119.2 29.0 L 114.2 33.0 L 114.2 74.0 L 102.2 80.0 L 102.2 70.0 L 88.61854543685914 70.0 L 85.88218183517456 105.0 L 102.8 105.0 L 108.8 100.0 L 119.8 109.0 L 114.8 112.0 L 114.69266548156739 112.04472274780274 L 114.6 116.4 L 114.3 125.2 L 113.9 133.4 L 113.4 140.9 L 112.8 147.9 L 112.1 154.4 L 111.2 160.2 L 110.2 165.5 L 109.1 170.2 L 107.8 174.4 L 106.9 176.8 Z M 142.2 103.9 L 144.8 106.4 L 141.30513277053834 107.75911502838134 L 140.6 110.8 L 138.9 117.5 L 136.9 124.2 L 134.7 130.7 L 132.3 137.0 L 129.6 143.3 L 126.7 149.3 L 123.6 155.2 L 120.1 160.9 L 116.2 166.4 L 114.6 165.5 L 116.7 159.3 L 120.7 146.9 L 122.5 140.6 L 124.2 134.4 L 125.8 128.0 L 127.2 121.6 L 128.4 115.2 L 129.5 108.6 L 130.3 102.0 L 130.3649386405945 102.01036834716797 L 130.7 100.0 Z M 175.8 145.4 L 174.6 139.4 L 173.3 133.5 L 171.9 127.8 L 170.3 122.3 L 168.7 116.9 L 167.0 111.6 L 165.2 106.4 L 163.5 101.3 L 165.1 100.4 L 168.6 104.7 L 171.8 109.3 L 174.7 114.3 L 177.4 119.5 L 179.9 125.0 L 182.2 130.8 L 184.3 136.7 L 186.2 142.9 L 188.0 149.3 L 189.5 156.0 L 188.5 160.4 L 184.7 162.9 L 180.2 161.9 L 177.7 158.0 L 176.8 151.6 Z M 25.0 145.2 L 24.9 142.2 L 24.5 139.2 L 24.0 136.2 L 23.4 133.2 L 22.6 130.3 L 21.7 127.3 L 20.7 124.2 L 19.2 121.3 L 20.7 120.2 L 23.0 122.7 L 25.4 125.1 L 27.6 127.8 L 29.5 130.6 L 31.3 133.6 L 32.8 136.7 L 34.1 140.0 L 35.3 143.4 L 36.2 146.9 L 36.9 150.6 L 35.4 154.9 L 31.3 156.9 L 27.0 155.4 L 25.0 151.3 L 25.1 148.3 Z M 148.5 19.0 L 151.1 21.5 L 147.66998119354247 22.833896160125732 L 146.4 28.7 L 144.0 37.9 L 141.5 46.8 L 138.8 55.2 L 138.52345676422118 56.0 L 175.6 56.0 L 176.1563636779785 55.53636360168457 L 176.2 55.4 L 176.27685079574584 55.435957717895505 L 181.6 51.0 L 192.6 60.0 L 187.6 63.0 L 184.63283586502075 64.23631839752197 L 184.2 64.9 L 182.6 67.3 L 180.9 70.0 L 179.1 72.8 L 177.2 75.8 L 175.2 78.9 L 173.0 82.2 L 170.6 85.6 L 168.4 89.3 L 166.8 88.6 L 168.1 84.5 L 169.0 80.4 L 170.0 76.6 L 171.0 73.0 L 172.0 69.6 L 173.0 66.4 L 173.8 63.4 L 174.7 60.5 L 174.83461542129515 60.0 L 137.14074077606202 60.0 L 136.0 63.3 L 132.9 70.8 L 129.6 78.0 L 126.1 84.7 L 122.2 90.8 L 118.1 96.4 L 116.5 95.5 L 118.9 89.1 L 121.2 82.4 L 123.5 75.5 L 125.7 68.3 L 127.9 60.6 L 129.9 52.7 L 131.8 44.3 L 133.6 35.5 L 135.2 26.4 L 136.541504573822 17.903804588317872 L 136.5 17.9 L 137.0 15.0 Z " />
</g>
</svg>
