<svg xmlns="http://www.w3.org/2000/svg" xmlns:xlink="http://www.w3.org/1999/xlink" version="1.1" baseProfile="full" viewBox="0 0 200 200" width="200" height="200">
<g fill="black">
<path d="M 16.5 170.9 L 28.9 168.3 L 35.2 166.9 L 41.4 165.4 L 44.5 164.61269845962525 L 44.5 105.0 L 18.6 105.0 L 18.6 101.0 L 44.5 101.0 L 44.5 73.0 L 32.6 73.0 L 32.6 69.0 L 58.918181800842284 69.0 L 67.1 60.0 L 77.1 69.0 L 77.1 73.0 L 56.5 73.0 L 56.5 101.0 L 59.7 101.0 L 69.7 91.0 L 81.7 101.0 L 81.7 105.0 L 56.5 105.0 L 56.5 161.675 L 66.8 159.1 L 73.3 157.5 L 79.8 156.1 L 80.5 157.8 L 74.6 161.1 L 68.6 164.1 L 62.5 166.9 L 56.4 169.5 L 44.2 174.3 L 38.0 176.5 L 31.8 178.6 L 25.6 180.6 L 23.41680850982666 181.26904258728027 L 22.1 185.0 L 19.4 182.5 L 14.6 171.4 Z M 78.0 180.0 L 116.0 180.0 L 116.0 135.0 L 98.0 135.0 L 98.0 147.0 L 86.0 153.0 L 86.0 84.0 L 98.0 90.0 L 115.0 90.0 L 115.0 63.0 L 101.0 63.0 L 101.0 75.0 L 89.0 81.0 L 89.0 18.0 L 101.0 24.0 L 115.0 24.0 L 121.0 19.0 L 132.0 28.0 L 127.0 32.0 L 127.0 100.0 L 115.0 106.0 L 115.0 94.0 L 98.0 94.0 L 98.0 131.0 L 116.0 131.0 L 122.0 126.0 L 133.0 135.0 L 128.0 139.0 L 128.0 180.0 L 141.0 180.0 L 141.0 125.0 L 153.0 131.0 L 170.0 131.0 L 170.0 92.0 L 153.0 92.0 L 153.0 98.0 L 141.0 104.0 L 141.0 17.0 L 153.0 23.0 L 168.0 23.0 L 174.0 18.0 L 185.0 27.0 L 180.0 31.0 L 180.0 67.0 L 168.0 73.0 L 168.0 63.0 L 153.0 63.0 L 153.0 88.0 L 170.0 88.0 L 176.0 83.0 L 187.0 92.0 L 182.0 96.0 L 182.0 141.0 L 170.0 147.0 L 170.0 135.0 L 153.0 135.0 L 153.0 180.0 L 166.0 180.0 L 176.0 170.0 L 188.0 180.0 L 188.0 184.0 L 78.0 184.0 Z M 27.9 145.4 L 27.6 142.4 L 27.1 139.4 L 26.4 136.4 L 25.6 133.4 L 24.5 130.4 L 23.3 127.4 L 21.9 124.2 L 20.1 121.3 L 21.4 120.1 L 24.1 122.5 L 26.9 124.9 L 29.3 127.5 L 31.5 130.4 L 33.5 133.4 L 35.3 136.5 L 36.8 139.8 L 38.1 143.2 L 39.1 146.8 L 39.9 150.5 L 38.4 154.8 L 34.4 156.9 L 30.1 155.5 L 27.9 151.4 L 28.0 148.4 Z M 79.3 121.8 L 81.5 124.7 L 77.42058820724488 125.55882349014283 L 76.3 127.8 L 74.7 130.8 L 73.0 133.8 L 71.2 136.8 L 69.3 139.7 L 67.3 142.7 L 65.1 145.6 L 62.8 148.4 L 60.7 151.4 L 59.1 150.5 L 60.3 147.1 L 61.2 143.6 L 62.2 140.2 L 63.1 136.9 L 64.1 133.6 L 64.9 130.4 L 65.8 127.2 L 66.5 124.1 L 67.3 121.0 L 67.71433229446411 118.92833871841431 L 67.6 118.9 L 68.4 116.5 Z M 69.2 49.0 L 67.8 46.6 L 66.2 44.0 L 64.3 41.5 L 62.2 38.9 L 59.8 36.3 L 54.3 30.8 L 52.54220180511474 29.41506814956665 L 50.6 34.3 L 47.1 42.3 L 43.3 50.2 L 39.2 57.8 L 34.8 65.3 L 30.1 72.5 L 25.1 79.5 L 19.7 86.2 L 13.8 92.5 L 12.4 91.4 L 20.6 76.6 L 24.5 69.1 L 28.2 61.6 L 31.6 54.0 L 34.9 46.3 L 37.8 38.5 L 40.6 30.5 L 43.0 22.5 L 45.021670246124266 15.204407501220704 L 45.0 15.2 L 45.7 12.6 L 56.8 17.6 L 59.1 20.3 L 55.53851022720337 21.253970527648924 L 53.9 26.0 L 53.35836124420166 27.36230354309082 L 55.8 28.4 L 59.6 29.9 L 63.2 31.7 L 66.5 33.7 L 69.7 35.8 L 72.6 38.1 L 75.3 40.5 L 77.7 43.1 L 79.9 45.8 L 81.9 48.6 L 82.1 53.2 L 79.1 56.6 L 74.6 56.9 L 71.1 53.9 L 70.3 51.5 Z M 153.0 27.0 L 153.0 59.0 L 168.0 59.0 L 168.0 27.0 Z M 101.0 28.0 L 101.0 59.0 L 115.0 59.0 L 115.0 28.0 Z " />
</g>
</svg>
