<svg xmlns="http://www.w3.org/2000/svg" xmlns:xlink="http://www.w3.org/1999/xlink" version="1.1" baseProfile="full" viewBox="0 0 200 200" width="200" height="200">
<g fill="black">
<path d="M 14.2 173.9 L 22.1 173.2 L 30.2 172.5 L 38.5 171.7 L 46.9 171.0 L 49.0 170.78275861740113 L 49.0 148.4 L 20.0 148.4 L 20.0 144.4 L 49.0 144.4 L 49.0 121.2 L 18.0 121.2 L 18.0 117.2 L 77.81818180084228 117.2 L 86.0 108.2 L 96.0 117.2 L 96.0 121.2 L 61.0 121.2 L 61.0 144.4 L 70.0 144.4 L 80.0 134.4 L 92.0 144.4 L 92.0 148.4 L 61.0 148.4 L 61.0 169.60909090042114 L 64.4 169.3 L 73.5 168.4 L 82.7 167.6 L 92.1 166.8 L 101.8 166.3 L 102.1 168.0 L 92.7 170.6 L 83.5 172.9 L 74.5 174.9 L 65.6 176.8 L 56.8 178.5 L 48.2 180.2 L 39.8 181.7 L 31.6 183.1 L 23.5 184.5 L 19.739316272735596 185.12678060531616 L 18.0 188.5 L 15.7 185.8 L 12.2 174.1 Z M 163.0 165.2 L 162.7 163.8 L 162.1 162.3 L 161.4 160.7 L 160.4 159.0 L 159.3 157.4 L 157.9 155.6 L 156.4 153.8 L 154.4 152.4 L 155.3 150.8 L 157.5 151.9 L 160.0 152.6 L 162.3 153.4 L 166.5 155.6 L 168.4 157.0 L 170.2 158.5 L 171.8 160.1 L 173.3 161.9 L 174.6 163.9 L 174.32790699005128 168.07209300994873 L 176.0 166.4 L 188.0 176.4 L 188.0 180.4 L 98.0 180.4 L 98.0 176.4 L 136.0 176.4 L 136.0 148.4 L 108.0 148.4 L 108.0 144.4 L 136.0 144.4 L 136.0 121.2 L 104.0 121.2 L 104.0 117.2 L 163.8181818008423 117.2 L 172.0 108.2 L 182.0 117.2 L 182.0 121.2 L 148.0 121.2 L 148.0 144.4 L 158.0 144.4 L 168.0 134.4 L 180.0 144.4 L 180.0 148.4 L 148.0 148.4 L 148.0 176.4 L 166.0 176.4 L 170.81224489212036 171.58775510787964 L 166.4 171.3 L 163.3 167.9 L 163.2 166.6 Z M 79.4 162.6 L 79.1 161.6 L 78.4 160.4 L 77.5 159.2 L 76.2 157.8 L 74.8 156.4 L 73.0 154.9 L 71.0 153.4 L 68.6 152.3 L 69.2 150.6 L 71.8 151.4 L 74.4 151.7 L 76.8 152.0 L 79.1 152.5 L 81.2 153.1 L 83.2 153.8 L 85.1 154.7 L 86.9 155.7 L 88.5 157.0 L 90.0 158.6 L 90.2 163.1 L 87.3 166.6 L 82.7 166.9 L 79.2 164.0 L 79.4 163.4 Z M 158.5 55.1 L 150.0 51.9 L 141.8 48.4 L 138.92312135696412 47.052601146697995 L 142.7 50.2 L 142.7 54.2 L 107.0 54.2 L 107.0 67.2 L 147.71818180084227 67.2 L 155.9 58.2 L 165.9 67.2 L 165.9 71.2 L 107.0 71.2 L 107.0 98.6 L 161.3181818008423 98.6 L 169.5 89.6 L 179.5 98.6 L 179.5 102.6 L 22.4 102.6 L 22.4 98.6 L 95.0 98.6 L 95.0 71.2 L 36.0 71.2 L 36.0 67.2 L 95.0 67.2 L 95.0 54.2 L 59.2 54.2 L 59.2 50.2 L 120.7 50.2 L 128.89829063415527 42.001709365844725 L 126.3 40.6 L 119.0 36.1 L 112.0 31.3 L 105.4 26.1 L 104.94604654312134 25.668372058868407 L 102.96218452453613 25.030702114105225 L 99.0 28.1 L 91.4 33.3 L 83.4 38.2 L 74.9 42.6 L 66.0 46.8 L 56.7 50.5 L 46.9 53.9 L 36.7 56.8 L 26.0 59.3 L 14.8 61.3 L 14.4 59.5 L 24.9 55.7 L 35.0 51.8 L 44.6 47.7 L 53.7 43.5 L 62.3 39.1 L 70.4 34.5 L 78.1 29.6 L 85.3 24.5 L 92.0 19.2 L 97.41215810775756 14.311599159240723 L 97.4 14.3 L 98.3 13.4 L 104.9226414680481 21.211320781707762 L 115.1 26.3 L 122.5 29.8 L 130.0 33.1 L 137.7 36.1 L 145.6 38.9 L 153.7 41.5 L 161.9 43.8 L 170.4 45.8 L 179.0 47.6 L 187.9 49.6 L 176.1 60.5 L 167.2 57.9 Z M 150.2 81.8 L 151.0 85.3 L 146.78251123428345 84.33811655044556 L 145.5 85.3 L 143.0 87.0 L 140.4 88.7 L 137.6 90.4 L 134.7 92.0 L 131.7 93.6 L 128.5 95.2 L 125.1 96.6 L 121.8 98.3 L 120.8 96.8 L 123.6 94.4 L 126.0 91.7 L 128.4 89.2 L 130.7 86.8 L 132.8 84.4 L 134.8 82.1 L 136.7 79.9 L 138.4 77.7 L 140.0 75.6 L 140.88189735412598 74.36534366607665 L 140.8 74.3 L 141.4 73.63999996185302 L 141.5 73.5 L 141.51460552215576 73.51393394470215 L 141.8 73.2 Z M 63.3 91.6 L 62.5 90.0 L 61.4 88.3 L 60.0 86.5 L 58.3 84.6 L 54.3 80.6 L 51.9 78.4 L 49.1 76.6 L 49.9 75.0 L 53.0 76.3 L 56.2 77.3 L 59.2 78.3 L 62.0 79.5 L 64.5 80.7 L 66.9 82.0 L 69.1 83.4 L 71.1 84.9 L 73.0 86.5 L 74.6 88.4 L 75.1 92.9 L 72.4 96.5 L 67.8 97.0 L 64.2 94.3 L 63.9 93.0 Z " />
</g>
</svg>
