<svg xmlns="http://www.w3.org/2000/svg" xmlns:xlink="http://www.w3.org/1999/xlink" version="1.1" baseProfile="full" viewBox="0 0 200 200" width="200" height="200">
<g fill="black">
<path d="M 150.025 48.575 L 150.4 51.1 L 152.2 60.5 L 154.4 69.1 L 157.0 77.0 L 160.2 84.1 L 163.9 90.5 L 168.1 96.2 L 172.7 101.2 L 177.9 105.6 L 183.6 109.4 L 187.4 111.9 L 176.3 120.5 L 169.8 115.2 L 164.1 109.3 L 159.2 102.7 L 155.0 95.6 L 151.7 87.8 L 149.1 79.5 L 147.3 70.7 L 146.8507278442383 66.47684164047241 L 143.4 77.5 L 138.7 87.9 L 133.0 97.3 L 126.2 105.6 L 118.4 112.7 L 109.6 118.7 L 104.11518325805665 121.35759162902832 L 114.6 126.6 L 162.3 126.6 L 168.3 121.6 L 179.3 130.6 L 174.3 134.6 L 174.3 178.3 L 162.3 184.3 L 162.3 174.3 L 114.6 174.3 L 114.6 181.3 L 102.6 187.3 L 102.6 122.09175262451171 L 99.9 123.4 L 89.3 126.8 L 88.6 125.1 L 98.2 120.0 L 106.7 114.2 L 114.1 107.8 L 120.5 100.6 L 125.9 92.6 L 130.4 83.9 L 133.9 74.2 L 136.5 63.6 L 138.2 52.1 L 138.7842975616455 42.0 L 130.8134614944458 42.0 L 130.2 43.1 L 126.9 48.2 L 123.3 53.1 L 119.2 57.8 L 114.6 62.3 L 109.6 66.6 L 108.3 65.3 L 111.7 59.9 L 114.9 54.6 L 117.8 49.5 L 120.4 44.4 L 122.6 39.3 L 124.6 34.2 L 126.1 29.2 L 127.4 24.2 L 128.3 19.1 L 128.77944393157958 15.104634189605713 L 128.7 15.1 L 129.2 12.1 L 140.7 15.8 L 143.4 18.2 L 139.79592208862306 19.764033794403076 L 139.4 21.5 L 137.7 27.1 L 135.6 32.6 L 133.1 37.9 L 133.0442307472229 38.0 L 170.0 38.0 L 170.47058820724487 37.60784311294556 L 170.5 37.5 L 170.5649582862854 37.529201412200926 L 176.0 33.0 L 187.0 42.0 L 182.0 45.0 L 178.67391300201416 46.38586959838867 L 178.3 46.9 L 176.5 49.2 L 174.6 51.4 L 172.6 53.7 L 170.5 56.1 L 168.2 58.4 L 165.8 60.7 L 163.1 63.0 L 160.7 65.5 L 159.2 64.4 L 161.1 61.4 L 162.4 58.3 L 163.8 55.3 L 165.1 52.4 L 166.3 49.7 L 167.3 47.0 L 168.3 44.5 L 169.1 42.0 L 150.7119402885437 42.0 Z M 15.2 170.9 L 27.4 168.3 L 33.5 166.9 L 39.7 165.4 L 42.6 164.68688526153565 L 42.6 105.0 L 17.3 105.0 L 17.3 101.0 L 42.6 101.0 L 42.6 73.0 L 31.0 73.0 L 31.0 69.0 L 56.418181800842284 69.0 L 64.6 60.0 L 74.6 69.0 L 74.6 73.0 L 54.6 73.0 L 54.6 101.0 L 57.2 101.0 L 67.2 91.0 L 79.2 101.0 L 79.2 105.0 L 54.6 105.0 L 54.6 161.63968257904054 L 58.3 160.7 L 64.5 159.1 L 70.9 157.5 L 77.4 156.1 L 78.0 157.8 L 72.2 161.1 L 66.4 164.1 L 60.4 166.9 L 54.5 169.5 L 48.4 171.9 L 42.4 174.3 L 36.4 176.5 L 30.3 178.6 L 24.2 180.6 L 22.133022212982176 181.25454292297363 L 20.9 184.9 L 18.2 182.5 L 13.3 171.4 Z M 114.6 130.6 L 114.6 170.3 L 162.3 170.3 L 162.3 130.6 Z M 26.3 145.4 L 26.0 142.4 L 25.5 139.4 L 24.9 136.4 L 24.1 133.4 L 23.1 130.4 L 21.9 127.4 L 20.6 124.2 L 18.8 121.3 L 20.1 120.1 L 22.7 122.5 L 25.4 124.9 L 27.9 127.6 L 30.0 130.4 L 32.0 133.4 L 33.7 136.5 L 35.2 139.8 L 36.5 143.3 L 37.5 146.8 L 38.3 150.5 L 36.8 154.8 L 32.8 156.9 L 28.5 155.5 L 26.3 151.4 L 26.4 148.4 Z M 76.9 121.8 L 79.1 124.7 L 75.12399997711182 125.55200004577637 L 74.0 127.8 L 72.4 130.8 L 70.7 133.8 L 68.9 136.7 L 67.1 139.7 L 65.1 142.6 L 63.0 145.5 L 60.7 148.4 L 58.6 151.4 L 57.0 150.5 L 58.2 147.1 L 59.1 143.6 L 60.0 140.2 L 61.8 133.6 L 62.7 130.4 L 63.5 127.3 L 64.2 124.1 L 64.9 121.0 L 65.379612159729 118.94451923370362 L 65.2 118.9 L 66.1 116.5 Z M 81.2 91.1 L 85.0 89.5 L 88.9 87.7 L 92.9 85.8 L 97.0 83.8 L 101.1 81.6 L 105.3 79.3 L 109.6 76.9 L 114.1 74.4 L 118.6 71.8 L 123.4 69.3 L 124.5 70.6 L 120.9 74.7 L 117.2 78.5 L 113.4 82.1 L 109.6 85.4 L 105.7 88.6 L 101.9 91.6 L 98.0 94.4 L 94.2 97.0 L 90.4 99.5 L 90.21041669845582 99.61666669845582 L 89.7 103.7 L 86.5 101.9 L 79.4 92.0 Z M 66.8 49.0 L 65.5 46.5 L 63.9 44.0 L 62.1 41.4 L 60.0 38.9 L 57.6 36.2 L 55.1 33.6 L 52.3 30.8 L 50.63787450790405 29.4904465675354 L 48.8 34.2 L 45.4 42.3 L 41.7 50.1 L 37.6 57.8 L 33.3 65.3 L 28.7 72.5 L 23.7 79.5 L 18.4 86.1 L 12.6 92.5 L 11.2 91.4 L 19.2 76.6 L 23.0 69.2 L 26.6 61.7 L 30.0 54.1 L 33.2 46.4 L 36.1 38.5 L 38.7 30.6 L 41.2 22.5 L 43.3 14.3 L 43.33929777145386 14.311179542541504 L 43.8 12.6 L 54.9 17.6 L 57.2 20.3 L 53.63851022720337 21.253970527648924 L 52.0 26.0 L 51.461250686645506 27.380545139312744 L 53.8 28.4 L 57.6 30.0 L 61.1 31.8 L 64.4 33.7 L 67.5 35.9 L 70.3 38.1 L 73.0 40.5 L 75.4 43.1 L 77.6 45.8 L 79.5 48.7 L 79.7 53.2 L 76.7 56.7 L 72.1 56.8 L 68.7 53.8 L 67.8 51.4 Z M 118.0 40.0 L 118.0 44.0 L 81.0 44.0 L 81.0 40.0 L 99.81818180084228 40.0 L 108.0 31.0 Z " />
</g>
</svg>
