<svg xmlns="http://www.w3.org/2000/svg" xmlns:xlink="http://www.w3.org/1999/xlink" version="1.1" baseProfile="full" viewBox="0 0 200 200" width="200" height="200">
<g fill="black">
<path d="M 145.23049640655518 101.96170215606689 L 144.5 112.7 L 143.71852598190307 117.49540882110595 L 145.7 127.7 L 148.2 137.1 L 151.06693353652955 144.62570056915283 L 152.4 142.5 L 156.0 137.1 L 159.3 132.1 L 162.3 127.4 L 165.0 123.1 L 167.4 119.2 L 169.4 115.7 L 171.0 112.5 L 172.3 109.6 L 172.85447473526 108.12140073776246 L 172.8 108.1 L 173.05 107.6 L 173.2 107.2 L 173.24014873504638 107.21970262527466 L 173.8 106.1 L 184.0 112.5 L 185.8 115.6 L 181.65136337280273 115.95764112472534 L 180.1 118.1 L 177.7 121.2 L 174.9 124.6 L 171.7 128.2 L 168.2 132.0 L 164.3 136.1 L 160.0 140.4 L 155.3 144.9 L 152.38029079437257 147.43408727645874 L 155.1 152.8 L 159.4 159.2 L 164.3 164.6 L 169.7 169.2 L 175.8 172.9 L 182.5 175.9 L 188.9 178.5 L 177.4 188.0 L 169.4 183.7 L 162.3 178.4 L 156.2 172.1 L 151.0 165.0 L 146.8 157.1 L 143.5 148.3 L 141.2 138.9 L 140.41609020233153 132.68902254104614 L 138.7 138.6 L 133.8 149.7 L 127.6 159.6 L 120.2 168.1 L 111.5 175.3 L 101.6 180.9 L 90.6 185.1 L 78.5 187.8 L 78.0 186.1 L 89.2 181.6 L 99.0 176.2 L 107.5 170.0 L 114.7 162.9 L 120.7 154.8 L 125.5 145.7 L 129.2 135.5 L 131.7 124.2 L 133.2 111.7 L 133.5 98.0 L 133.5 95.6 L 145.5 98.0 L 148.5 100.0 Z M 18.0 170.9 L 24.8 169.6 L 31.6 168.2 L 45.4 165.4 L 49.1 164.52941179275513 L 49.1 105.0 L 20.1 105.0 L 20.1 101.0 L 49.1 101.0 L 49.1 73.0 L 35.4 73.0 L 35.4 69.0 L 66.01818180084229 69.0 L 74.2 60.0 L 84.2 69.0 L 84.2 73.0 L 61.1 73.0 L 61.1 101.0 L 67.3 101.0 L 77.3 91.0 L 89.3 101.0 L 89.3 105.0 L 61.1 105.0 L 61.1 161.75942029953003 L 66.1 160.6 L 73.1 159.0 L 80.1 157.5 L 87.3 156.1 L 87.9 157.8 L 81.4 161.1 L 74.8 164.1 L 68.1 166.9 L 61.4 169.5 L 54.6 172.0 L 47.8 174.3 L 41.1 176.5 L 34.3 178.7 L 27.5 180.7 L 24.626772594451904 181.49117860794067 L 23.3 185.1 L 20.6 182.6 L 16.0 171.3 Z M 30.8 145.5 L 30.4 142.5 L 29.8 139.5 L 29.1 136.5 L 28.1 133.5 L 26.9 130.5 L 25.5 127.4 L 23.9 124.3 L 21.8 121.3 L 23.1 120.0 L 28.9 124.8 L 31.5 127.4 L 33.9 130.2 L 36.1 133.2 L 37.9 136.4 L 39.6 139.7 L 40.9 143.1 L 42.0 146.7 L 42.9 150.4 L 41.4 154.8 L 37.4 156.9 L 33.1 155.5 L 30.9 151.5 L 30.9 148.5 Z M 95.0 152.1 L 93.4 147.8 L 95.1 143.6 L 97.5 141.5 L 99.7 139.2 L 101.8 136.5 L 103.8 133.6 L 105.6 130.3 L 107.2 126.7 L 108.7 122.8 L 110.1 118.5 L 111.4 113.9 L 112.4 108.9 L 114.2 109.0 L 114.6 114.2 L 114.9 119.2 L 114.7 124.0 L 114.1 128.6 L 113.2 133.0 L 111.9 137.3 L 110.3 141.3 L 108.4 145.2 L 106.1 148.8 L 103.5 152.1 L 99.2 153.8 Z M 86.0 122.0 L 88.1 124.9 L 84.12160205841064 125.66776103973389 L 82.8 128.0 L 81.1 130.9 L 79.3 133.9 L 77.3 136.9 L 75.3 139.8 L 73.2 142.8 L 70.9 145.6 L 68.4 148.5 L 66.1 151.4 L 64.6 150.5 L 66.0 147.1 L 67.0 143.5 L 68.2 140.1 L 69.3 136.8 L 70.3 133.5 L 72.3 127.1 L 73.2 123.9 L 74.0 120.8 L 74.54871797561646 118.74230766296387 L 74.4 118.7 L 75.3 116.4 Z M 109.7 24.9 L 166.5 24.9 L 172.5 19.9 L 183.5 28.9 L 178.5 32.9 L 178.5 93.4 L 166.5 99.4 L 166.5 91.4 L 109.7 91.4 L 97.7 97.4 L 97.7 18.9 Z M 76.1 49.3 L 74.5 46.8 L 72.7 44.2 L 70.6 41.6 L 68.1 39.0 L 65.4 36.4 L 62.5 33.7 L 59.2 30.8 L 56.93485240936279 29.16406011581421 L 54.7 34.4 L 50.9 42.5 L 46.7 50.3 L 42.3 58.0 L 37.5 65.4 L 32.4 72.6 L 26.9 79.6 L 21.1 86.2 L 14.8 92.5 L 13.4 91.4 L 18.1 83.9 L 22.6 76.5 L 26.9 69.0 L 31.0 61.5 L 34.8 53.9 L 38.4 46.2 L 41.7 38.3 L 44.7 30.4 L 47.5 22.3 L 49.63428907394409 15.007845783233643 L 49.6 15.0 L 50.4 12.5 L 61.4 17.7 L 63.6 20.5 L 60.00779218673706 21.398051929473876 L 58.2 26.2 L 57.794030570983885 27.151128387451173 L 60.7 28.3 L 64.8 29.8 L 68.7 31.6 L 72.3 33.6 L 75.7 35.7 L 78.9 37.9 L 81.7 40.3 L 84.4 42.9 L 86.8 45.6 L 88.9 48.5 L 89.3 53.0 L 86.4 56.6 L 81.9 57.0 L 78.3 54.1 L 77.3 51.7 Z M 109.7 60.2 L 109.7 87.4 L 166.5 87.4 L 166.5 60.2 Z M 109.7 28.9 L 109.7 56.2 L 166.5 56.2 L 166.5 28.9 Z " />
</g>
</svg>
