<svg xmlns="http://www.w3.org/2000/svg" xmlns:xlink="http://www.w3.org/1999/xlink" version="1.1" baseProfile="full" viewBox="0 0 200 200" width="200" height="200">
<g fill="black">
<path d="M 58.9 176.0 L 72.9 176.0 L 74.1 175.9 L 75.0 175.7 L 75.9 175.4 L 76.3 175.0 L 76.6 174.1 L 76.8 173.2 L 76.9 172.0 L 76.9 71.0 L 28.5 71.0 L 28.5 183.0 L 16.5 189.0 L 16.5 61.0 L 28.5 67.0 L 46.5 67.0 L 46.5 43.0 L 13.5 43.0 L 13.5 39.0 L 46.5 39.0 L 46.5 15.0 L 58.5 17.0 L 61.5 19.0 L 58.5 20.8 L 58.5 39.0 L 69.9 39.0 L 79.9 29.0 L 91.9 39.0 L 91.9 43.0 L 58.5 43.0 L 58.5 67.0 L 76.9 67.0 L 82.9 62.0 L 93.9 71.0 L 88.9 75.0 L 88.9 172.0 L 88.7 174.5 L 88.3 177.0 L 87.5 179.4 L 86.2 181.7 L 84.6 183.7 L 82.6 185.3 L 80.3 186.6 L 77.9 187.4 L 75.4 187.8 L 72.9 188.0 L 72.9 182.0 L 58.9 179.0 Z M 70.9 77.3 L 73.3 79.9 L 69.46957693099975 81.15359296798707 L 68.6 83.4 L 67.3 86.5 L 66.0 89.8 L 64.6 93.0 L 63.1 96.3 L 61.5 99.7 L 59.8 103.2 L 57.9 106.6 L 57.23888893127442 108.0 L 62.9 108.0 L 67.4 102.0 L 73.4 108.0 L 73.4 112.0 L 58.5 112.0 L 58.5 136.0 L 61.477777767181394 136.0 L 67.7 129.0 L 75.7 136.0 L 75.7 140.0 L 58.5 140.0 L 58.5 178.0 L 46.5 184.0 L 46.5 140.0 L 30.1 140.0 L 30.1 136.0 L 46.5 136.0 L 46.5 112.0 L 32.5 112.0 L 32.5 108.0 L 54.70512819290161 108.0 L 55.1 105.8 L 55.5 101.8 L 56.0 98.1 L 56.6 94.4 L 57.6 87.4 L 58.0 84.0 L 58.5 80.8 L 58.8 77.6 L 59.06960916519165 75.51052913665771 L 59.0 75.5 L 59.1692307472229 74.7384614944458 L 59.2 74.5 L 59.22110004425049 74.50504961013795 L 59.6 72.8 Z M 95.6 179.7 L 133.7 179.7 L 133.7 122.1 L 103.2 122.1 L 103.2 118.1 L 133.7 118.1 L 133.7 88.8 L 116.3 88.8 L 116.3 84.8 L 144.9181818008423 84.8 L 153.1 75.8 L 163.1 84.8 L 163.1 88.8 L 145.7 88.8 L 145.7 118.1 L 154.2 118.1 L 164.2 108.1 L 176.2 118.1 L 176.2 122.1 L 145.7 122.1 L 145.7 179.7 L 161.8 179.7 L 171.8 169.7 L 183.8 179.7 L 183.8 183.7 L 95.6 183.7 Z M 170.8 137.8 L 173.2 140.5 L 169.4457142829895 141.57265310287477 L 169.4 141.7 L 167.9 145.5 L 166.3 149.4 L 164.6 153.2 L 162.8 157.1 L 160.9 160.9 L 158.9 164.7 L 156.7 168.5 L 154.4 172.3 L 152.0 176.0 L 150.3 175.3 L 151.4 171.0 L 152.3 166.7 L 153.2 162.6 L 154.2 158.4 L 155.2 154.4 L 157.0 146.4 L 157.8 142.4 L 158.5 138.5 L 159.0862424850464 135.71534824371338 L 159.0 135.7 L 159.7 133.0 Z M 115.9 160.0 L 115.5 156.8 L 115.0 153.5 L 114.4 150.2 L 113.7 146.9 L 112.1 140.3 L 111.2 136.9 L 110.0 133.6 L 111.6 132.7 L 113.8 135.5 L 116.1 138.4 L 118.1 141.3 L 120.0 144.4 L 121.8 147.6 L 124.8 154.2 L 126.1 157.6 L 127.3 161.1 L 128.3 164.7 L 127.2 169.1 L 123.3 171.6 L 118.9 170.5 L 116.4 166.6 L 116.2 163.3 Z M 40.0 96.2 L 39.9 93.7 L 39.7 91.2 L 39.4 88.6 L 39.0 85.9 L 38.6 83.1 L 38.0 80.2 L 37.5 77.2 L 36.4 74.2 L 38.0 73.4 L 39.7 76.1 L 41.7 78.6 L 43.5 81.1 L 45.1 83.7 L 46.5 86.2 L 47.8 88.8 L 49.0 91.4 L 50.1 94.0 L 51.9 99.2 L 50.6 103.6 L 46.7 105.9 L 42.3 104.7 L 39.9 100.7 L 40.0 98.5 Z M 168.7 85.4 L 164.0 79.5 L 159.6 73.1 L 155.4 66.1 L 151.4 58.6 L 147.6 50.6 L 144.1 42.0 L 141.3841649055481 34.191973972320554 L 137.7 42.9 L 133.0 52.8 L 128.0 62.1 L 122.7 70.7 L 117.2 78.7 L 111.3 86.0 L 105.2 92.6 L 98.7 98.5 L 91.9 103.6 L 90.7 102.2 L 96.0 95.8 L 101.1 89.1 L 106.1 82.0 L 110.9 74.4 L 115.4 66.4 L 119.8 57.7 L 123.9 48.6 L 127.7 38.9 L 131.4 28.6 L 134.8 17.7 L 134.8181182861328 17.705880451202393 L 135.3 16.2 L 146.2 21.4 L 148.5 24.2 L 144.85904388427736 25.030393505096434 L 143.44778375625611 28.85112190246582 L 144.7 31.1 L 149.4 39.5 L 154.0 47.2 L 158.6 54.4 L 163.2 61.0 L 167.9 67.1 L 172.6 72.5 L 177.3 77.3 L 182.0 81.6 L 186.8 85.2 L 189.5 87.3 L 178.7 95.6 L 173.5 90.7 Z " />
</g>
</svg>
