<svg xmlns="http://www.w3.org/2000/svg" xmlns:xlink="http://www.w3.org/1999/xlink" version="1.1" baseProfile="full" viewBox="0 0 200 200" width="200" height="200">
<g fill="black">
<path d="M 132.3 32.8 L 132.3 28.8 L 148.7 28.8 L 148.7 11.7 L 160.7 13.7 L 163.7 15.7 L 160.7 17.5 L 160.7 28.8 L 164.21818180084227 28.8 L 172.4 19.8 L 182.4 28.8 L 182.4 32.8 L 160.7 32.8 L 160.7 33.5 L 160.1 41.0 L 158.8 48.0 L 158.59538459777832 48.7 L 164.4 48.7 L 174.4 38.7 L 186.4 48.7 L 186.4 52.7 L 158.1199999809265 52.7 L 159.5 54.8 L 162.0 58.0 L 164.5 61.0 L 167.1 63.7 L 169.7 66.3 L 172.4 68.6 L 175.2 70.7 L 178.2 72.6 L 181.2 74.3 L 184.4 75.8 L 188.9 78.4 L 177.8 87.2 L 174.3 84.5 L 171.0 81.7 L 168.1 78.6 L 165.4 75.3 L 163.0 71.9 L 160.8 68.2 L 159.0 64.4 L 157.5 60.4 L 156.4 56.2 L 156.3216911315918 55.8345588684082 L 154.3 60.5 L 151.1 65.8 L 147.2 70.6 L 142.7 74.6 L 137.7 78.0 L 136.28526315689086 78.65684213638306 L 138.0 79.8 L 135.0 81.6 L 135.0 92.0 L 164.21818180084227 92.0 L 172.4 83.0 L 182.4 92.0 L 182.4 96.0 L 135.0 96.0 L 135.0 106.6 L 157.9 106.6 L 163.9 101.6 L 174.9 110.6 L 169.9 114.6 L 169.9 148.1 L 157.9 154.1 L 157.9 148.1 L 135.0 148.1 L 135.0 161.2 L 163.7 161.2 L 173.7 151.2 L 185.7 161.2 L 185.7 165.2 L 135.0 165.2 L 135.0 183.1 L 123.0 189.1 L 123.0 165.2 L 72.2 165.2 L 72.2 161.2 L 123.0 161.2 L 123.0 148.1 L 100.0 148.1 L 88.0 154.1 L 88.0 100.6 L 100.0 106.6 L 123.0 106.6 L 123.0 96.0 L 75.5 96.0 L 75.5 92.0 L 123.0 92.0 L 123.0 77.74666662216187 L 118.8 78.4 L 115.0 75.8 L 114.3 73.9 L 113.3 72.0 L 112.3 70.2 L 111.0 68.3 L 109.6 66.4 L 108.0 64.6 L 106.3 62.7 L 104.4 60.8 L 102.3 58.9 L 101.895183467865 58.657110118865965 L 100.7 61.8 L 97.4 68.4 L 93.5 74.5 L 88.9 80.1 L 83.7 85.1 L 77.9 89.4 L 71.4 93.1 L 70.4 91.6 L 75.4 86.5 L 79.9 81.4 L 83.8 76.0 L 87.1 70.5 L 89.8 64.7 L 92.0 58.6 L 93.475 52.7 L 75.77391300201415 52.7 L 75.8 53.3 L 72.7 56.7 L 68.2 56.8 L 64.8 53.8 L 64.0 51.4 L 62.9 48.9 L 61.7 46.5 L 60.2 43.9 L 58.4 41.4 L 56.4 38.8 L 54.1 36.2 L 51.6 33.5 L 48.9 30.8 L 47.46418132781982 29.595765018463133 L 45.8 34.2 L 42.4 42.2 L 38.7 50.1 L 34.8 57.8 L 30.6 65.2 L 26.1 72.5 L 21.2 79.4 L 16.0 86.1 L 10.4 92.5 L 8.9 91.4 L 16.7 76.6 L 20.4 69.2 L 23.9 61.7 L 27.2 54.1 L 30.2 46.4 L 33.0 38.6 L 35.6 30.6 L 38.0 22.5 L 39.84191780090332 15.307749557495118 L 39.8 15.3 L 40.5 12.7 L 51.7 17.5 L 54.0 20.2 L 50.414150905609134 21.224528312683105 L 48.8 25.9 L 48.25878820419312 27.397352600097655 L 50.5 28.4 L 54.2 30.0 L 57.6 31.8 L 60.8 33.8 L 63.9 35.9 L 66.7 38.2 L 69.2 40.6 L 71.6 43.1 L 73.7 45.8 L 75.6 48.7 L 94.16617650985718 48.7 L 94.7 45.4 L 95.3 38.3 L 95.22666664123535 32.8 L 75.5 32.8 L 75.5 28.8 L 95.2 28.8 L 95.2 11.7 L 107.2 13.7 L 110.2 15.7 L 107.2 17.5 L 107.2 28.8 L 112.77777776718139 28.8 L 119.0 21.8 L 127.0 28.8 L 127.0 32.8 L 107.05714282989501 32.8 L 106.6 39.2 L 105.3 47.2 L 104.91999998092652 48.7 L 110.11818180084228 48.7 L 118.3 39.7 L 128.3 48.7 L 128.3 52.7 L 103.90666666030884 52.7 L 103.4 54.7 L 102.7276083946228 56.46814079284668 L 103.4 56.7 L 106.3 57.4 L 109.1 58.3 L 111.7 59.4 L 114.3 60.7 L 116.7 62.1 L 119.0 63.7 L 121.2 65.4 L 123.3 67.4 L 125.2 69.4 L 125.9 74.0 L 124.46370964050293 76.04395160675048 L 130.47906980514526 77.04651165008545 L 134.5 73.6 L 138.2 69.8 L 141.3 65.8 L 143.8 61.4 L 145.8 56.7 L 146.9764705657959 52.7 L 130.9 52.7 L 130.9 48.7 L 147.82727270126344 48.7 L 148.3 46.1 L 148.7 40.0 L 148.7 32.8 Z M 12.8 170.9 L 18.7 169.6 L 24.7 168.3 L 30.6 166.9 L 39.4 164.7 L 39.4 105.0 L 14.9 105.0 L 14.9 101.0 L 39.4 101.0 L 39.4 73.0 L 28.3 73.0 L 28.3 69.0 L 52.518181800842285 69.0 L 60.7 60.0 L 70.7 69.0 L 70.7 73.0 L 51.4 73.0 L 51.4 101.0 L 57.018181800842285 101.0 L 65.2 92.0 L 75.2 101.0 L 75.2 105.0 L 51.4 105.0 L 51.4 161.58000001907348 L 54.7 160.7 L 67.1 157.5 L 73.4 156.1 L 74.0 157.8 L 68.4 161.1 L 62.7 164.1 L 57.0 166.9 L 51.1 169.5 L 45.3 171.9 L 39.4 174.2 L 33.6 176.5 L 27.7 178.6 L 21.8 180.6 L 19.793377494812013 181.23543043136596 L 18.5 184.9 L 15.8 182.5 L 10.9 171.4 Z M 23.5 145.3 L 23.3 142.3 L 22.8 139.3 L 22.2 136.4 L 21.4 133.4 L 20.4 130.4 L 19.3 127.3 L 18.0 124.2 L 16.3 121.3 L 17.7 120.1 L 20.2 122.6 L 22.9 125.0 L 25.3 127.6 L 27.4 130.4 L 29.3 133.4 L 31.0 136.6 L 32.5 139.9 L 33.7 143.3 L 34.7 146.8 L 35.5 150.5 L 34.0 154.8 L 30.0 156.9 L 25.7 155.5 L 23.5 151.4 L 23.6 148.4 Z M 73.1 121.8 L 75.4 124.6 L 71.32242794036866 125.52997255325317 L 70.2 127.7 L 68.7 130.7 L 65.3 136.7 L 63.4 139.7 L 61.5 142.6 L 59.4 145.5 L 57.2 148.4 L 55.1 151.4 L 53.5 150.5 L 54.7 147.1 L 55.5 143.7 L 57.3 136.9 L 58.1 133.7 L 59.0 130.5 L 59.7 127.3 L 61.1 121.1 L 61.5017391204834 119.02434778213501 L 61.4 119.0 L 61.66938772201538 118.15816326141358 L 61.7 118.0 L 61.71807231903076 118.00602407455445 L 62.2 116.5 Z M 100.0 129.0 L 100.0 144.1 L 123.0 144.1 L 123.0 129.0 Z M 135.0 129.0 L 135.0 144.1 L 157.9 144.1 L 157.9 129.0 Z M 100.0 110.6 L 100.0 125.0 L 123.0 125.0 L 123.0 110.6 Z M 135.0 110.6 L 135.0 125.0 L 157.9 125.0 L 157.9 110.6 Z " />
</g>
</svg>
