<svg xmlns="http://www.w3.org/2000/svg" xmlns:xlink="http://www.w3.org/1999/xlink" version="1.1" baseProfile="full" viewBox="0 0 200 200" width="200" height="200">
<g fill="black">
<path d="M 39.1 174.5 L 56.4 174.5 L 57.3 174.3 L 57.9 174.1 L 58.2 173.9 L 58.4 173.8 L 58.5 173.6 L 58.7 173.3 L 58.9 172.7 L 59.1 171.8 L 59.1 145.4 L 34.9 145.4 L 34.9 149.4 L 34.83442621231079 149.4983606338501 L 34.9 149.5 L 34.2 155.1 L 33.2 160.3 L 31.8 165.1 L 30.1 169.5 L 27.9 173.5 L 25.5 176.9 L 22.7 179.9 L 19.5 182.3 L 16.1 184.0 L 12.6 185.3 L 11.8 183.7 L 14.4 181.4 L 16.4 178.8 L 18.1 176.1 L 19.6 173.2 L 20.7 170.0 L 21.7 166.6 L 22.3 162.8 L 22.8 158.6 L 23.0 154.1 L 22.904210567474365 149.40631580352783 L 22.9 149.4 L 22.9 93.8 L 34.9 99.8 L 59.1 99.8 L 65.1 94.8 L 76.1 103.8 L 71.1 107.8 L 71.1 170.5 L 71.0 173.1 L 70.5 175.6 L 69.7 178.0 L 68.5 180.3 L 66.9 182.3 L 64.9 183.9 L 62.6 185.1 L 60.2 186.0 L 57.7 186.4 L 55.1 186.5 L 55.1 180.5 L 39.1 177.5 Z M 80.6 177.1 L 126.5 177.1 L 126.5 156.3 L 93.1 156.3 L 93.1 152.3 L 153.61818180084228 152.3 L 161.8 143.3 L 171.8 152.3 L 171.8 156.3 L 138.5 156.3 L 138.5 177.1 L 162.3 177.1 L 172.3 167.1 L 184.3 177.1 L 184.3 181.1 L 80.6 181.1 Z M 125.8 118.2 L 128.7 120.5 L 124.87906980514526 122.30232553482055 L 124.7 123.1 L 122.6 127.7 L 119.8 131.9 L 116.3 135.7 L 112.2 139.1 L 107.4 142.1 L 102.1 144.8 L 96.1 147.2 L 89.4 149.1 L 82.1 150.7 L 81.5 149.0 L 88.0 145.6 L 93.8 142.3 L 98.9 139.1 L 103.2 135.9 L 106.7 132.6 L 109.5 129.4 L 111.5 126.3 L 112.9 123.2 L 113.7 120.2 L 113.83546476364135 118.10029554367065 L 113.8 118.1 L 114.1 115.0 Z M 178.1 125.5 L 180.1 125.5 L 178.1 134.5 L 180.5 136.1 L 182.1 138.5 L 180.5 140.9 L 178.1 142.5 L 151.3 142.5 L 149.0 142.3 L 146.8 141.8 L 144.6 140.9 L 142.7 139.5 L 141.0 137.7 L 139.6 135.7 L 138.7 133.4 L 138.0 131.0 L 137.7 128.5 L 137.7 115.2 L 149.7 117.2 L 152.7 119.2 L 149.7 121.0 L 149.7 128.5 L 149.6 129.7 L 149.5 130.7 L 149.6 131.4 L 149.6 132.0 L 149.7 132.4 L 150.0 132.9 L 150.4 133.3 L 151.2 133.8 L 152.3 134.2 L 153.7 134.5 L 174.1 134.5 Z M 34.9 124.1 L 34.9 141.4 L 59.1 141.4 L 59.1 124.1 Z M 80.1 128.3 L 79.7 123.7 L 82.5 120.2 L 83.3 120.2 L 84.1 120.1 L 85.0 119.6 L 86.1 118.8 L 87.1 117.7 L 88.1 116.1 L 89.0 114.3 L 89.9 112.0 L 90.8 109.5 L 90.9 106.6 L 92.7 106.6 L 92.9 109.5 L 93.0285714149475 110.1 L 127.4 110.1 L 127.4 95.7 L 139.4 97.7 L 142.4 99.7 L 139.4 101.5 L 139.4 110.1 L 173.2 110.1 L 174.1473684310913 109.31052627563477 L 174.3 108.7 L 174.61794023513795 108.91838312149048 L 179.2 105.1 L 190.2 114.1 L 185.2 117.1 L 177.2199999809265 120.425 L 177.1 120.5 L 175.4 121.6 L 173.6 122.7 L 171.7 123.9 L 169.6 125.0 L 167.8 126.6 L 166.5 125.4 L 168.0 123.6 L 169.0 121.4 L 170.0 119.5 L 170.9 117.6 L 171.7 115.8 L 172.4 114.2 L 172.44666662216187 114.1 L 93.76666669845581 114.1 L 93.9 115.0 L 94.0 117.5 L 93.9 120.0 L 93.5 122.4 L 92.7 124.7 L 91.6 126.9 L 90.1 128.9 L 88.2 130.7 L 83.7 131.1 Z M 34.9 103.8 L 34.9 120.1 L 59.1 120.1 L 59.1 103.8 Z M 150.0 73.0 L 150.6 76.5 L 146.4420000076294 75.38625001907349 L 145.3 76.1 L 142.8 77.7 L 140.2 79.2 L 137.5 80.6 L 134.6 82.1 L 131.6 83.5 L 128.4 84.8 L 125.1 86.0 L 121.8 87.6 L 120.9 86.0 L 123.7 83.8 L 126.1 81.3 L 128.5 79.0 L 130.8 76.7 L 132.9 74.5 L 135.0 72.4 L 136.8 70.3 L 138.6 68.3 L 140.2 66.3 L 141.0123456954956 65.19753084182739 L 140.9 65.1 L 141.9 64.1 Z M 63.4 81.7 L 62.6 80.3 L 61.5 78.7 L 60.1 77.0 L 58.4 75.3 L 56.5 73.5 L 54.4 71.5 L 52.0 69.5 L 49.1 67.8 L 49.9 66.2 L 53.0 67.4 L 56.2 68.1 L 59.1 69.0 L 61.8 70.0 L 64.3 71.0 L 66.7 72.1 L 68.9 73.4 L 70.9 74.7 L 72.7 76.1 L 74.4 77.8 L 75.1 82.3 L 72.5 86.1 L 67.9 86.7 L 64.2 84.1 L 64.0 83.0 Z M 158.6 48.6 L 150.2 45.7 L 142.0 42.5 L 141.18864860534669 42.140540504455565 L 142.7 43.4 L 142.7 47.4 L 107.0 47.4 L 107.0 58.9 L 147.71818180084227 58.9 L 155.9 49.9 L 165.9 58.9 L 165.9 62.9 L 107.0 62.9 L 107.0 87.6 L 165.2777777671814 87.6 L 171.5 80.6 L 179.5 87.6 L 179.5 91.6 L 22.4 91.6 L 22.4 87.6 L 95.0 87.6 L 95.0 62.9 L 36.0 62.9 L 36.0 58.9 L 95.0 58.9 L 95.0 47.4 L 59.2 47.4 L 59.2 43.4 L 120.7 43.4 L 128.1 36.0 L 126.5 35.2 L 119.1 31.1 L 112.1 26.6 L 106.17419357299805 22.29032258987427 L 106.2 22.6 L 102.60071601867676 21.291169452667237 L 98.7 24.0 L 91.2 28.7 L 83.2 33.1 L 74.7 37.1 L 65.8 40.9 L 56.5 44.2 L 46.8 47.3 L 36.6 49.9 L 25.9 52.1 L 14.8 53.8 L 14.4 52.0 L 25.0 48.4 L 35.0 44.8 L 44.6 41.0 L 53.8 37.2 L 62.4 33.1 L 70.6 28.8 L 78.3 24.3 L 85.4 19.7 L 92.1 14.8 L 98.0615385055542 9.896153831481934 L 98.4 9.6 L 103.97726078033448 16.5901668548584 L 107.7 18.2 L 115.0 21.5 L 122.4 24.6 L 129.9 27.6 L 137.6 30.3 L 145.5 32.8 L 153.5 35.1 L 161.8 37.2 L 170.2 39.0 L 178.9 40.6 L 188.0 42.5 L 176.2 53.6 L 167.3 51.2 Z " />
</g>
</svg>
