<svg xmlns="http://www.w3.org/2000/svg" xmlns:xlink="http://www.w3.org/1999/xlink" version="1.1" baseProfile="full" viewBox="0 0 200 200" width="200" height="200">
<g fill="black">
<path d="M 126.4 95.0 L 126.4 91.0 L 140.2 91.0 L 140.2 47.1 L 136.3 49.0 L 132.2 50.9 L 129.9 51.88571424484253 L 129.9 55.2 L 102.6 55.2 L 102.6 81.6 L 113.8 81.6 L 119.3 76.6 L 129.8 85.6 L 124.8 89.1 L 124.8 151.0 L 124.7 153.5 L 124.3 155.8 L 123.6 158.1 L 122.6 160.2 L 121.2 162.2 L 119.5 163.8 L 117.4 165.1 L 115.2 165.9 L 112.9 166.4 L 110.5 166.5 L 110.5 161.0 L 102.6 158.33374996185302 L 102.6 183.1 L 92.6 188.1 L 92.6 85.6 L 81.3 85.6 L 81.3 160.3 L 70.3 165.8 L 70.3 76.1 L 81.3 81.6 L 92.6 81.6 L 92.6 55.2 L 65.7 55.2 L 64.1 56.8 L 59.5 56.6 L 56.3 53.3 L 55.7 50.9 L 55.0 48.5 L 54.0 46.0 L 52.9 43.6 L 51.5 41.1 L 50.0 38.6 L 48.3 36.0 L 46.4 33.4 L 44.3 30.7 L 43.851234149932864 30.26918478012085 L 42.7 33.9 L 39.9 42.0 L 36.8 49.8 L 33.5 57.5 L 30.0 65.0 L 27.83333330154419 69.0 L 48.1777777671814 69.0 L 54.4 62.0 L 62.4 69.0 L 62.4 73.0 L 47.5 73.0 L 47.5 101.0 L 51.8777777671814 101.0 L 58.1 94.0 L 66.1 101.0 L 66.1 105.0 L 47.5 105.0 L 47.5 161.20784311294557 L 48.8 160.8 L 53.9 159.1 L 59.1 157.6 L 64.4 156.1 L 65.2 157.8 L 60.7 161.0 L 56.1 164.0 L 51.4 166.8 L 46.7 169.4 L 41.9 171.8 L 32.3 176.4 L 27.5 178.5 L 22.6 180.5 L 21.683219623565673 180.86289224624633 L 20.6 184.6 L 17.8 182.4 L 12.3 171.5 L 14.2 170.9 L 19.0 169.7 L 28.8 166.9 L 33.8 165.5 L 35.5 164.94489793777467 L 35.5 105.0 L 16.3 105.0 L 16.3 101.0 L 35.5 101.0 L 35.5 73.0 L 27.3 73.0 L 27.3 69.98461542129516 L 26.1 72.2 L 22.0 79.2 L 17.6 86.0 L 12.7 92.4 L 11.2 91.5 L 14.2 84.2 L 20.2 69.4 L 23.0 62.0 L 25.6 54.4 L 28.1 46.7 L 30.3 38.9 L 32.4 30.9 L 34.3 22.8 L 36.0 14.6 L 36.01361255645752 14.603141403198242 L 36.4 12.8 L 47.7 17.3 L 50.2 19.9 L 46.62921352386475 21.04775276184082 L 45.3 25.7 L 44.61674423217774 27.854883766174318 L 45.9 28.6 L 49.1 30.2 L 52.1 32.1 L 54.8 34.1 L 57.4 36.2 L 59.8 38.5 L 62.0 40.9 L 64.0 43.5 L 65.9 46.2 L 67.5 49.0 L 67.4043478012085 51.2 L 103.05384616851806 51.2 L 103.5 48.3 L 104.0 44.4 L 104.7 40.5 L 105.3 36.7 L 106.7 29.1 L 107.3 25.3 L 108.0 21.6 L 108.6 17.8 L 109.03677644729615 15.106544971466064 L 109.0 15.1 L 109.10103092193603 14.710309314727784 L 109.2 14.1 L 109.25541954040527 14.114810371398926 L 109.7 12.4 L 120.8 17.2 L 123.2 19.9 L 119.43125 20.976785755157472 L 116.7 28.0 L 115.2 31.6 L 112.0 38.8 L 110.3 42.3 L 108.4 45.9 L 106.4 49.3 L 105.42285718917847 51.2 L 107.9 51.2 L 117.9 41.2 L 128.46000003814697 50.0 L 130.5 48.2 L 136.7 42.2 L 139.6 39.4 L 142.4 36.5 L 145.1 33.7 L 147.6 30.9 L 149.9 28.2 L 152.1 25.4 L 153.54912281036377 23.53684206008911 L 153.5 23.5 L 154.5 22.3 L 162.9 30.504651165008546 L 162.9 18.0 L 173.9 20.0 L 176.6 22.0 L 173.9 23.723404216766358 L 173.9 91.0 L 177.9 91.0 L 182.4 85.0 L 188.4 91.0 L 188.4 95.0 L 173.9 95.0 L 173.9 124.0875 L 175.3 125.4 L 178.2 128.6 L 180.8 132.1 L 183.2 135.7 L 185.2 139.6 L 186.9 143.6 L 186.3 148.2 L 182.8 151.0 L 178.2 150.5 L 175.3 146.9 L 174.6 143.5 L 173.9 141.18999996185303 L 173.9 179.2 L 162.9 184.7 L 162.9 122.20370368957519 L 161.8 120.9 L 158.9 117.7 L 155.6 114.6 L 156.5 113.1 L 160.8 115.1 L 162.9 116.25500001907349 L 162.9 95.0 L 151.2 95.0 L 151.2 101.0 L 150.7 111.7 L 149.9 122.0 L 148.6 131.7 L 146.9 141.0 L 144.8 149.8 L 142.3 158.1 L 139.3 165.8 L 135.9 173.0 L 131.9 179.5 L 127.5 185.4 L 126.1 184.5 L 128.9 177.9 L 131.4 171.0 L 133.6 163.8 L 135.6 156.2 L 137.2 148.1 L 138.5 139.6 L 139.4 130.6 L 140.0 121.2 L 140.3 111.3 L 140.2 101.0 L 140.2 95.0 Z M 22.5 145.2 L 22.3 142.1 L 22.1 139.1 L 21.6 136.1 L 21.1 133.2 L 20.4 130.2 L 19.6 127.2 L 18.7 124.2 L 17.3 121.3 L 18.8 120.3 L 21.0 122.7 L 23.3 125.2 L 25.4 127.8 L 27.2 130.7 L 28.9 133.7 L 30.4 136.8 L 31.7 140.1 L 32.7 143.5 L 33.6 147.0 L 34.4 150.6 L 32.8 154.9 L 28.7 156.9 L 24.4 155.4 L 22.4 151.3 L 22.5 148.2 Z M 65.4 121.5 L 67.8 124.2 L 63.83967390060425 125.33152170181275 L 62.9 127.5 L 60.1 133.5 L 58.6 136.5 L 57.0 139.4 L 55.3 142.4 L 53.4 145.4 L 51.5 148.3 L 49.7 151.3 L 48.0 150.6 L 48.9 147.2 L 49.4 143.8 L 50.1 140.5 L 51.3 133.9 L 51.9 130.7 L 53.4 121.4 L 53.7454794883728 119.32712326049804 L 53.6 119.3 L 54.3 116.7 Z M 157.3 35.7 L 154.2 38.1 L 150.9 40.5 L 147.5 42.8 L 144.19702968597412 44.726732635498045 L 151.2 46.0 L 154.0 48.0 L 151.2 49.75 L 151.2 91.0 L 162.9 91.0 L 162.9 33.98771934509277 L 160.02136754989624 33.432193756103516 Z M 83.1 38.9 L 82.7 35.8 L 82.3 32.9 L 81.8 30.1 L 81.1 27.3 L 80.4 24.6 L 79.6 21.9 L 78.8 19.3 L 77.6 16.9 L 79.0 15.8 L 81.0 17.8 L 83.2 19.8 L 85.2 22.0 L 87.1 24.5 L 88.8 27.2 L 90.4 30.1 L 91.8 33.2 L 93.2 36.4 L 94.3 39.8 L 95.4 43.3 L 94.3 47.7 L 90.4 50.2 L 86.0 49.1 L 83.5 45.2 L 83.4 42.0 Z M 112.2 155.4 L 112.8 155.1 L 113.0 154.9 L 113.1 154.7 L 113.3 154.2 L 113.6 153.5 L 113.7 152.4 L 113.8 151.0 L 113.8 85.6 L 102.6 85.6 L 102.6 155.5 L 111.5 155.5 Z " />
</g>
</svg>
