<svg xmlns="http://www.w3.org/2000/svg" xmlns:xlink="http://www.w3.org/1999/xlink" version="1.1" baseProfile="full" viewBox="0 0 200 200" width="200" height="200">
<g fill="black">
<path d="M 120.3 186.1 L 117.8 185.6 L 115.4 184.8 L 113.2 183.6 L 111.1 181.9 L 109.5 179.9 L 108.3 177.7 L 107.5 175.2 L 107.0 172.8 L 106.9 170.2 L 106.9 141.5 L 118.9 143.5 L 121.9 145.5 L 118.9 147.3 L 118.9 171.4 L 119.1 172.3 L 119.3 172.9 L 119.5 173.3 L 119.8 173.6 L 120.1 173.8 L 120.7 174.0 L 121.6 174.1 L 122.9 174.2 L 155.9 174.2 L 161.9 149.2 L 163.9 149.2 L 161.9 174.2 L 165.5 176.6 L 167.9 180.2 L 165.5 183.8 L 161.9 186.2 L 122.9 186.2 Z M 15.6 170.9 L 21.4 169.6 L 27.3 168.3 L 33.2 166.9 L 41.8 164.71355934143065 L 41.8 105.0 L 17.7 105.0 L 17.7 101.0 L 41.8 101.0 L 41.8 73.0 L 30.9 73.0 L 30.9 69.0 L 54.61818180084229 69.0 L 62.8 60.0 L 72.8 69.0 L 72.8 73.0 L 53.8 73.0 L 53.8 101.0 L 59.018181800842285 101.0 L 67.2 92.0 L 77.2 101.0 L 77.2 105.0 L 53.8 105.0 L 53.8 161.55333337783813 L 63.0 159.1 L 69.1 157.5 L 75.4 156.1 L 76.1 157.8 L 70.5 161.1 L 64.9 164.1 L 59.2 166.9 L 53.5 169.4 L 47.7 171.9 L 36.1 176.5 L 30.3 178.6 L 24.5 180.6 L 22.649358463287353 181.20624465942382 L 21.4 184.9 L 18.7 182.5 L 13.7 171.4 Z M 81.5 179.1 L 80.3 174.7 L 82.5 170.7 L 83.9 169.8 L 85.4 168.6 L 86.8 167.0 L 88.3 164.9 L 89.6 162.3 L 90.9 159.2 L 92.0 155.8 L 93.0 151.8 L 94.0 147.5 L 94.5 142.7 L 96.3 142.7 L 96.8 147.5 L 97.4 152.1 L 97.6 156.5 L 97.5 160.5 L 97.1 164.4 L 96.4 168.0 L 95.4 171.4 L 94.0 174.5 L 92.2 177.4 L 89.9 180.1 L 85.5 181.3 Z M 173.9 166.4 L 173.2 163.7 L 172.3 160.9 L 171.2 158.2 L 170.0 155.5 L 168.5 152.7 L 166.8 150.0 L 165.0 147.1 L 162.7 144.5 L 163.8 143.1 L 166.8 145.1 L 169.9 147.0 L 172.7 149.1 L 175.3 151.5 L 177.7 154.0 L 179.9 156.8 L 181.8 159.6 L 183.6 162.7 L 185.1 165.9 L 186.4 169.3 L 185.6 173.8 L 181.9 176.5 L 177.4 175.6 L 174.7 171.9 L 174.4 169.2 Z M 136.3 155.5 L 135.5 153.3 L 133.5 149.1 L 132.3 147.1 L 130.9 145.1 L 129.5 143.0 L 127.9 140.9 L 126.0 139.3 L 126.9 137.8 L 129.3 139.0 L 131.9 140.0 L 134.4 141.2 L 136.7 142.6 L 139.0 144.3 L 141.2 146.1 L 143.2 148.1 L 145.1 150.2 L 146.9 152.5 L 148.6 155.0 L 148.7 159.6 L 145.6 162.9 L 141.0 163.0 L 137.6 159.9 L 137.0 157.7 Z M 26.1 145.3 L 25.9 142.3 L 25.4 139.3 L 24.8 136.4 L 24.1 133.4 L 23.1 130.4 L 22.0 127.3 L 20.8 124.2 L 19.1 121.3 L 20.5 120.1 L 23.0 122.6 L 25.6 125.0 L 28.0 127.6 L 30.1 130.4 L 32.0 133.4 L 33.7 136.6 L 35.1 139.9 L 36.3 143.3 L 37.3 146.8 L 38.1 150.5 L 36.6 154.8 L 32.6 156.9 L 28.2 155.5 L 26.1 151.4 L 26.2 148.3 Z M 75.2 121.7 L 77.5 124.6 L 73.4115182876587 125.53246068954468 L 72.4 127.7 L 69.2 133.7 L 67.5 136.7 L 65.6 139.6 L 63.7 142.6 L 61.7 145.5 L 59.5 148.4 L 57.4 151.4 L 55.8 150.5 L 56.9 147.1 L 57.7 143.7 L 58.6 140.3 L 59.5 137.0 L 60.3 133.7 L 61.9 127.3 L 62.6 124.2 L 63.2 121.1 L 63.614705848693845 119.0264705657959 L 63.5 119.0 L 64.3 116.5 Z M 93.8 138.3 L 93.8 97.1 L 104.8 102.6 L 127.5 102.6 L 127.5 92.0 L 82.6 92.0 L 82.6 88.0 L 127.5 88.0 L 127.5 77.0 L 97.2 77.0 L 97.2 73.0 L 127.5 73.0 L 127.5 61.246153831481934 L 125.0 61.4 L 118.4 61.6 L 111.5 61.6 L 104.4 61.4 L 97.2 60.8 L 97.1 59.1 L 104.2 57.6 L 111.0 56.3 L 117.7 55.1 L 124.1 53.8 L 127.5 53.15238094329834 L 127.5 39.0 L 139.5 41.0 L 142.5 43.0 L 139.5 44.8 L 139.5 50.551724147796634 L 142.2 49.9 L 147.7 48.5 L 153.1 47.0 L 157.23594665527344 45.70244808197022 L 157.2 45.6 L 157.29914531707763 45.6826210975647 L 158.2 45.4 L 158.5406593322754 46.717216110229494 L 166.7734513282776 53.57787609100342 L 168.0 51.3 L 169.0 48.7 L 169.9 46.1 L 171.5 41.5 L 172.2 39.4 L 172.8 37.4 L 172.93888893127442 36.9 L 93.86666669845582 36.9 L 94.0 38.5 L 94.1 42.0 L 94.0 45.2 L 93.6 48.2 L 92.9 51.1 L 91.9 53.8 L 90.5 56.3 L 88.6 58.6 L 84.2 59.7 L 80.2 57.4 L 79.1 53.0 L 81.4 49.0 L 82.3 48.7 L 83.3 48.1 L 84.4 47.0 L 85.6 45.4 L 86.7 43.4 L 87.8 40.9 L 88.7 38.0 L 89.6 34.7 L 90.5 30.9 L 90.8 26.8 L 92.6 26.8 L 93.0 31.0 L 93.34102563858032 32.9 L 127.5 32.9 L 127.5 12.4 L 139.5 14.4 L 142.5 16.4 L 139.5 18.2 L 139.5 32.9 L 173.4 32.9 L 174.0942856788635 32.32142858505249 L 174.1 32.3 L 174.112543964386 32.30621337890625 L 179.4 27.9 L 190.4 36.9 L 185.4 39.9 L 181.23589744567872 41.63504276275635 L 179.3 43.7 L 177.7 45.4 L 176.0 47.1 L 174.1 48.9 L 172.1 50.8 L 169.9 52.6 L 168.20263156890869 54.768859672546384 L 168.6 55.1 L 168.9 58.1 L 164.63550510406495 56.117910861968994 L 161.2 57.0 L 155.6 58.0 L 149.9 59.0 L 143.9 59.8 L 139.5 60.23278684616089 L 139.5 73.0 L 151.61818180084228 73.0 L 159.8 64.0 L 169.8 73.0 L 169.8 77.0 L 139.5 77.0 L 139.5 88.0 L 166.11818180084228 88.0 L 174.3 79.0 L 184.3 88.0 L 184.3 92.0 L 139.5 92.0 L 139.5 97.0 L 128.3 102.6 L 160.8 102.6 L 166.3 97.6 L 176.8 106.6 L 171.8 110.1 L 171.8 132.8 L 160.8 138.3 L 160.8 132.8 L 104.8 132.8 Z M 104.8 106.6 L 104.8 128.8 L 116.5 128.8 L 116.5 106.6 Z M 126.5 106.6 L 126.5 128.8 L 139.2 128.8 L 139.2 106.6 Z M 149.2 106.6 L 149.2 128.8 L 160.8 128.8 L 160.8 106.6 Z M 65.0 48.9 L 63.8 46.4 L 62.3 43.9 L 60.6 41.4 L 58.6 38.8 L 56.4 36.2 L 53.9 33.5 L 51.3 30.8 L 49.90642204284668 29.631192684173584 L 48.2 34.2 L 44.9 42.2 L 41.3 50.1 L 37.4 57.7 L 33.2 65.2 L 28.8 72.4 L 24.0 79.4 L 18.8 86.1 L 13.2 92.5 L 11.8 91.4 L 19.4 76.6 L 23.0 69.2 L 26.5 61.7 L 29.7 54.1 L 32.7 46.4 L 35.5 38.6 L 38.1 30.6 L 40.4 22.6 L 42.24487133026123 15.308365821838379 L 42.2 15.3 L 42.9 12.7 L 54.0 17.5 L 56.4 20.2 L 52.801685428619386 21.228089904785158 L 51.3 25.9 L 50.72273483276367 27.445580863952635 L 52.8 28.4 L 56.5 30.0 L 59.9 31.8 L 63.1 33.8 L 66.1 35.9 L 68.8 38.2 L 71.4 40.6 L 73.7 43.2 L 75.8 45.9 L 77.7 48.7 L 77.8 53.3 L 74.8 56.7 L 70.2 56.8 L 66.8 53.7 L 66.0 51.3 Z " />
</g>
</svg>
