<svg xmlns="http://www.w3.org/2000/svg" xmlns:xlink="http://www.w3.org/1999/xlink" version="1.1" baseProfile="full" viewBox="0 0 200 200" width="200" height="200">
<g fill="black">
<path d="M 16.7 170.9 L 28.5 168.3 L 34.4 166.9 L 40.4 165.4 L 43.1 164.71355934143065 L 43.1 105.0 L 18.8 105.0 L 18.8 101.0 L 43.1 101.0 L 43.1 73.0 L 32.1 73.0 L 32.1 69.0 L 56.11818180084229 69.0 L 64.3 60.0 L 74.3 69.0 L 74.3 73.0 L 55.1 73.0 L 55.1 101.0 L 60.518181800842285 101.0 L 68.7 92.0 L 78.7 101.0 L 78.7 105.0 L 55.1 105.0 L 55.1 161.55333337783813 L 58.3 160.7 L 64.4 159.1 L 70.6 157.5 L 76.9 156.1 L 77.5 157.8 L 72.0 161.1 L 66.3 164.1 L 60.6 166.9 L 54.8 169.5 L 49.0 171.9 L 37.4 176.5 L 31.5 178.6 L 25.6 180.6 L 23.749358463287354 181.20624465942382 L 22.5 184.9 L 19.8 182.5 L 14.8 171.4 Z M 92.5 166.3 L 96.2 165.2 L 99.8 164.2 L 107.2 162.2 L 110.8 161.2 L 114.5 160.2 L 121.9 158.4 L 125.7 157.7 L 129.4 156.8 L 130.1 158.5 L 126.9 160.5 L 123.7 162.7 L 120.4 164.7 L 110.5 170.4 L 103.7 174.0 L 100.76400003433227 175.46800003051757 L 99.9 179.5 L 96.9 177.5 L 90.7 167.0 Z M 27.3 145.3 L 27.1 142.3 L 26.6 139.3 L 26.0 136.4 L 25.2 133.4 L 24.3 130.4 L 23.2 127.3 L 21.9 124.2 L 20.2 121.3 L 21.6 120.1 L 24.1 122.6 L 26.8 125.0 L 29.1 127.6 L 31.2 130.4 L 33.2 133.4 L 34.8 136.6 L 36.3 139.9 L 37.5 143.3 L 38.5 146.8 L 39.3 150.5 L 37.8 154.8 L 33.8 156.9 L 29.5 155.5 L 27.3 151.4 L 27.4 148.3 Z M 109.5 151.4 L 108.6 150.0 L 107.5 148.6 L 106.3 147.0 L 104.9 145.4 L 103.4 143.8 L 101.8 142.0 L 100.1 140.2 L 98.0 138.8 L 98.8 137.2 L 101.2 138.3 L 103.7 138.9 L 106.1 139.6 L 108.3 140.3 L 110.5 141.1 L 112.5 142.0 L 114.4 142.9 L 118.0 144.7 L 119.6 145.8 L 121.2 150.0 L 119.4 154.2 L 115.1 155.8 L 110.9 154.0 L 110.3 152.8 Z M 76.7 121.7 L 78.9 124.6 L 74.89306926727295 125.51386137008667 L 73.8 127.7 L 70.6 133.7 L 68.9 136.7 L 67.0 139.7 L 65.1 142.6 L 63.1 145.5 L 60.8 148.4 L 58.8 151.4 L 57.2 150.5 L 58.3 147.1 L 59.1 143.7 L 60.0 140.3 L 60.9 137.0 L 61.7 133.7 L 63.3 127.3 L 64.7 121.1 L 65.11470584869384 119.0264705657959 L 65.0 119.0 L 65.8 116.5 Z M 121.175 102.0 L 117.825 115.4 L 144.65 115.4 L 147.9129870414734 102.0 Z M 66.5 48.9 L 65.2 46.4 L 63.7 43.9 L 62.0 41.4 L 60.0 38.8 L 57.7 36.2 L 55.3 33.5 L 52.6 30.8 L 51.20642204284668 29.631192684173584 L 49.5 34.2 L 46.1 42.2 L 42.5 50.1 L 38.6 57.8 L 34.4 65.2 L 29.9 72.4 L 25.1 79.4 L 19.9 86.1 L 14.3 92.5 L 12.8 91.4 L 16.7 84.0 L 20.5 76.6 L 24.2 69.2 L 27.7 61.7 L 30.9 54.1 L 34.0 46.4 L 36.8 38.6 L 39.4 30.6 L 41.7 22.5 L 43.54190177917481 15.307812213897705 L 43.5 15.3 L 44.2 12.7 L 55.3 17.5 L 57.7 20.2 L 54.10168542861938 21.228089904785158 L 52.6 25.9 L 52.022734832763675 27.445580863952635 L 54.1 28.4 L 57.8 30.0 L 61.2 31.8 L 64.5 33.8 L 67.5 35.9 L 70.2 38.2 L 72.8 40.6 L 75.2 43.1 L 77.3 45.9 L 79.2 48.7 L 79.3 53.3 L 76.2 56.7 L 71.7 56.8 L 68.3 53.7 L 67.5 51.3 Z M 173.2 67.5 L 175.2 67.5 L 173.2 80.5 L 175.9 82.3 L 177.7 85.0 L 175.9 87.7 L 173.2 89.5 L 130.8 89.5 L 128.4 89.2 L 126.2 88.6 L 124.0 87.6 L 122.0 86.2 L 120.3 84.3 L 119.0 82.2 L 118.1 79.9 L 117.5 77.5 L 117.2 75.0 L 117.2 70.98000001907349 L 95.3 73.9 L 94.8 70.0 L 117.2 67.01333332061768 L 117.2 48.0 L 94.8 48.0 L 94.8 111.0 L 94.4 121.2 L 93.77319583892822 128.8 L 141.3870129585266 128.8 L 143.67597398757934 119.4 L 116.825 119.4 L 116.5 120.7 L 103.4 123.7 L 112.4 87.5 L 123.6 92.3 L 126.0 95.0 L 122.69552240371704 95.91791048049927 L 122.175 98.0 L 148.6 98.0 L 154.6 93.0 L 165.6 102.0 L 160.6 105.0 L 158.66805896759033 105.80497541427613 L 153.72953023910523 128.8 L 165.51818180084229 128.8 L 173.7 119.8 L 183.7 128.8 L 183.7 132.8 L 142.6 132.8 L 142.6 154.21000003814697 L 146.2 154.3 L 147.26363639831544 154.43636360168458 L 147.3 154.4 L 150.7 150.0 L 155.8 143.7 L 157.4 141.6 L 160.6 137.6 L 161.55 136.3333333015442 L 161.4 136.2 L 162.3 135.3 L 170.4 144.2 L 171.0 147.8 L 166.81390724182128 146.6039734840393 L 165.9 147.2 L 163.7 148.7 L 161.3 150.1 L 158.9 151.4 L 156.5 152.8 L 154.0 154.1 L 151.76241130828856 155.17404251098634 L 154.1 155.7 L 157.9 156.8 L 161.8 158.3 L 165.6 160.0 L 169.4 162.0 L 173.1 164.3 L 176.7 166.9 L 178.7 171.0 L 177.3 175.3 L 173.2 177.3 L 168.8 175.9 L 166.1 173.2 L 163.3 170.6 L 160.5 168.3 L 157.5 166.1 L 154.5 164.0 L 151.5 162.1 L 148.3 160.4 L 145.0 158.7 L 142.6 157.57058820724487 L 142.6 172.3 L 142.4 174.9 L 142.0 177.4 L 141.2 179.8 L 140.0 182.0 L 138.3 184.1 L 136.3 185.7 L 134.0 186.9 L 131.6 187.7 L 129.1 188.2 L 126.6 188.3 L 126.6 182.3 L 106.6 179.3 L 106.6 176.3 L 126.6 176.3 L 127.8 176.2 L 128.7 176.1 L 129.3 175.9 L 129.6 175.7 L 129.8 175.6 L 130.0 175.4 L 130.2 175.0 L 130.5 173.5 L 130.6 172.3 L 130.6 132.8 L 93.37032966613769 132.8 L 92.5 140.0 L 91.1 148.4 L 89.4 156.3 L 87.3 163.5 L 84.9 170.1 L 82.1 176.0 L 78.9 181.1 L 75.2 185.4 L 73.7 184.5 L 75.5 179.4 L 77.1 173.9 L 78.7 168.0 L 80.0 161.6 L 81.1 154.6 L 81.9 147.1 L 82.5 138.9 L 82.9 130.2 L 83.0 120.9 L 82.8 111.0 L 82.8 38.0 L 94.8 44.0 L 121.0 44.0 L 121.0 12.0 L 133.0 14.0 L 136.0 16.0 L 133.0 17.8 L 133.0 26.0 L 151.9181818008423 26.0 L 160.1 17.0 L 170.1 26.0 L 170.1 30.0 L 133.0 30.0 L 133.0 44.0 L 171.0 44.0 L 171.47663555145263 43.6028037071228 L 171.5 43.5 L 171.5649582862854 43.529201412200926 L 177.0 39.0 L 188.0 48.0 L 183.0 51.0 L 179.6582278251648 52.39240503311157 L 178.4 54.1 L 175.4 58.1 L 172.2 62.1 L 170.5 64.1 L 168.6 66.1 L 167.1 68.4 L 165.5 67.5 L 166.5 65.0 L 167.0 62.4 L 167.6 59.8 L 168.8 54.8 L 169.4 52.5 L 169.9 50.2 L 170.47391300201417 48.0 L 123.2 48.0 L 129.2 49.0 L 132.2 51.0 L 129.2 52.8 L 129.2 65.41333332061768 L 140.47042331695556 63.91061019897461 L 149.1 52.6 L 162.3 61.0 L 162.8 64.9 L 129.2 69.38000001907349 L 129.2 75.0 L 129.1 76.2 L 129.1 77.2 L 129.2 77.9 L 129.3 78.4 L 129.4 78.7 L 129.6 79.1 L 130.0 79.5 L 130.8 79.9 L 131.8 80.2 L 133.2 80.5 L 168.7 80.5 Z " />
</g>
</svg>
