<svg xmlns="http://www.w3.org/2000/svg" xmlns:xlink="http://www.w3.org/1999/xlink" version="1.1" baseProfile="full" viewBox="0 0 200 200" width="200" height="200">
<g fill="black">
<path d="M 93.2 26.0 L 160.9 26.0 L 166.9 21.0 L 177.9 30.0 L 172.9 33.0 L 172.831928730011 33.02836303710937 L 172.4 64.3 L 172.8 94.2 L 173.9 118.4 L 175.6 137.5 L 177.8 152.0 L 180.1 162.4 L 181.01162786483764 164.982945728302 L 184.7 149.0 L 186.7 149.0 L 184.84838705062867 173.0709677696228 L 185.7 174.0 L 185.5 174.0 L 189.5 176.4 L 190.7 180.8 L 188.3 184.7 L 183.9 185.9 L 179.1 184.0 L 175.0 180.0 L 171.6 174.1 L 168.6 165.7 L 166.0 154.2 L 163.7 138.9 L 163.01742057800294 131.4295475959778 L 161.04404430389405 132.61357336044313 L 161.1 134.6 L 161.1 141.0 L 161.2 146.9 L 161.1 152.1 L 161.0 156.8 L 160.8 160.9 L 160.5 164.4 L 160.2 167.4 L 159.7 170.0 L 159.0 172.4 L 158.0 174.7 L 156.7 176.9 L 155.2 178.8 L 153.5 180.6 L 151.6 182.1 L 149.4 183.4 L 147.2 184.3 L 144.8 185.0 L 142.3 185.4 L 139.8 185.5 L 139.8 179.5 L 119.8 176.5 L 119.8 173.5 L 139.8 173.5 L 141.1 173.4 L 142.3 173.3 L 143.3 173.0 L 144.1 172.6 L 144.8 172.2 L 145.5 171.7 L 146.1 171.0 L 146.7 170.2 L 147.3 169.2 L 147.9 168.0 L 148.0 167.4 L 148.3 165.7 L 148.6 163.3 L 148.8 160.2 L 149.0 156.3 L 149.1 151.9 L 149.2 146.8 L 149.1 141.1 L 149.1 137.61666669845582 L 148.9 137.7 L 148.9 129.7 L 112.0 129.7 L 101.0 135.2 L 101.0 48.8 L 112.0 54.3 L 118.95714282989502 54.3 L 119.1 53.8 L 119.5 49.2 L 119.8 47.0 L 120.0 44.8 L 120.9 38.2 L 121.36532068252563 34.94275531768799 L 121.2 34.9 L 122.0 32.5 L 132.8 37.9 L 135.0 40.8 L 130.46549520492553 41.754632568359376 L 128.1 45.5 L 126.8 47.4 L 125.5 49.2 L 124.2 51.1 L 122.7 52.9 L 121.46470584869385 54.3 L 138.6 54.3 L 144.6 49.3 L 155.6 58.3 L 150.6 62.3 L 150.6 95.7 L 138.6 101.7 L 138.6 95.7 L 112.0 95.7 L 112.0 108.7 L 143.61818180084228 108.7 L 151.8 99.7 L 161.4170392036438 108.35533533096313 L 160.8 94.5 L 160.4 64.2 L 160.77790050506593 30.0 L 93.2 30.0 L 93.2 94.0 L 92.8 107.8 L 91.9 120.7 L 90.7 132.6 L 89.2 143.6 L 87.2 153.6 L 84.9 162.7 L 82.2 170.8 L 79.0 177.8 L 75.3 183.7 L 71.2 188.4 L 69.9 187.5 L 72.3 182.0 L 74.5 175.9 L 76.4 168.9 L 78.2 161.0 L 79.6 152.3 L 80.7 142.5 L 81.6 131.8 L 82.1 120.2 L 82.3 107.5 L 82.2 94.0 L 82.2 20.5 Z M 15.8 170.9 L 21.7 169.6 L 27.7 168.3 L 33.6 166.9 L 42.4 164.7 L 42.4 105.0 L 17.9 105.0 L 17.9 101.0 L 42.4 101.0 L 42.4 73.0 L 31.3 73.0 L 31.3 69.0 L 55.518181800842285 69.0 L 63.7 60.0 L 73.7 69.0 L 73.7 73.0 L 54.4 73.0 L 54.4 101.0 L 60.018181800842285 101.0 L 68.2 92.0 L 78.2 101.0 L 78.2 105.0 L 54.4 105.0 L 54.4 161.58000001907348 L 57.7 160.7 L 70.1 157.5 L 76.4 156.1 L 77.0 157.8 L 71.4 161.1 L 65.7 164.1 L 60.0 166.9 L 54.1 169.5 L 48.3 171.9 L 42.4 174.2 L 36.6 176.5 L 30.7 178.6 L 24.8 180.6 L 22.793377494812013 181.23543043136596 L 21.5 184.9 L 18.8 182.5 L 13.9 171.4 Z M 90.6 176.0 L 88.2 172.2 L 89.0 167.7 L 90.2 166.5 L 91.4 164.8 L 92.6 162.6 L 93.6 160.1 L 94.7 157.1 L 95.6 153.7 L 96.4 149.9 L 97.2 145.8 L 97.9 141.2 L 98.3 136.3 L 100.1 136.3 L 100.8 141.2 L 101.6 145.8 L 102.1 150.2 L 102.4 154.4 L 102.4 158.2 L 102.2 161.9 L 101.8 165.3 L 101.1 168.6 L 100.2 171.6 L 98.9 174.5 L 95.1 176.9 Z M 121.0 158.5 L 121.0 156.1 L 120.9 153.8 L 120.8 151.6 L 120.6 149.5 L 120.3 147.5 L 120.0 145.4 L 119.7 143.4 L 118.8 141.7 L 120.2 140.7 L 121.6 142.2 L 123.3 143.6 L 124.9 145.3 L 126.3 147.2 L 127.7 149.3 L 128.9 151.6 L 130.0 154.0 L 131.0 156.7 L 131.9 159.4 L 132.7 162.3 L 131.3 166.7 L 127.3 168.9 L 123.0 167.5 L 120.8 163.5 L 120.9 160.9 Z M 110.8 174.0 L 106.9 171.6 L 105.6 167.2 L 106.3 164.9 L 106.9 162.5 L 107.4 160.1 L 108.2 155.1 L 108.6 149.9 L 108.7 147.2 L 108.9 144.4 L 108.4 141.6 L 110.2 141.1 L 111.3 143.7 L 112.6 146.3 L 113.8 149.0 L 114.8 151.7 L 115.6 154.5 L 116.3 157.3 L 116.8 160.1 L 117.2 163.0 L 117.4 165.9 L 117.5 168.8 L 115.2 172.7 Z M 134.4 153.5 L 134.3 151.6 L 134.1 149.8 L 133.5 146.2 L 133.1 144.4 L 132.6 142.6 L 132.0 140.7 L 130.9 139.2 L 132.2 138.0 L 133.7 139.3 L 135.5 140.4 L 137.2 141.7 L 138.8 143.2 L 140.3 144.9 L 141.7 146.6 L 144.1 150.6 L 145.2 152.8 L 146.1 155.0 L 145.1 159.5 L 141.3 162.0 L 136.9 161.1 L 134.3 157.3 L 134.4 155.4 Z M 26.5 145.3 L 26.3 142.3 L 25.8 139.3 L 25.2 136.4 L 24.4 133.4 L 23.4 130.4 L 22.3 127.3 L 21.0 124.2 L 19.3 121.3 L 20.7 120.1 L 23.2 122.6 L 25.9 125.0 L 28.3 127.6 L 30.4 130.4 L 32.3 133.4 L 34.0 136.6 L 35.5 139.9 L 36.7 143.3 L 37.7 146.8 L 38.5 150.5 L 37.0 154.8 L 33.0 156.9 L 28.7 155.5 L 26.5 151.4 L 26.6 148.4 Z M 76.1 121.8 L 78.4 124.6 L 74.32242794036866 125.52997255325317 L 73.2 127.7 L 71.7 130.7 L 68.3 136.7 L 66.4 139.7 L 64.5 142.6 L 62.4 145.5 L 60.2 148.4 L 58.1 151.4 L 56.5 150.5 L 57.7 147.1 L 58.5 143.7 L 60.3 136.9 L 61.1 133.7 L 62.0 130.5 L 62.7 127.3 L 64.1 121.1 L 64.50173912048339 119.02434778213501 L 64.4 119.0 L 64.66938772201539 118.15816326141358 L 64.7 118.0 L 64.71807231903077 118.00602407455445 L 65.2 116.5 Z M 112.0 112.7 L 112.0 125.7 L 148.9 125.7 L 154.9 120.7 L 162.61371574401855 127.01122198104858 L 161.9 119.2 L 161.61052627563475 112.7 Z M 65.9 48.9 L 64.7 46.5 L 63.2 43.9 L 61.4 41.4 L 59.4 38.8 L 57.1 36.2 L 54.6 33.5 L 51.9 30.8 L 50.46418132781982 29.595765018463133 L 48.8 34.2 L 45.4 42.2 L 41.7 50.1 L 37.8 57.8 L 33.6 65.2 L 29.1 72.5 L 24.2 79.4 L 19.0 86.1 L 13.4 92.5 L 11.9 91.4 L 19.7 76.6 L 23.4 69.2 L 26.9 61.7 L 30.2 54.1 L 33.2 46.4 L 36.0 38.6 L 38.6 30.6 L 41.0 22.5 L 42.84191780090332 15.307749557495118 L 42.8 15.3 L 43.5 12.7 L 54.7 17.5 L 57.0 20.2 L 53.414150905609134 21.224528312683105 L 51.8 25.9 L 51.25878820419312 27.397352600097655 L 53.5 28.4 L 57.2 30.0 L 60.6 31.8 L 63.8 33.8 L 66.9 35.9 L 69.7 38.2 L 72.2 40.6 L 74.6 43.1 L 76.7 45.8 L 78.6 48.7 L 78.8 53.3 L 75.7 56.7 L 71.2 56.8 L 67.8 53.8 L 67.0 51.4 Z M 112.0 77.0 L 112.0 91.7 L 138.6 91.7 L 138.6 77.0 Z M 112.0 58.3 L 112.0 73.0 L 138.6 73.0 L 138.6 58.3 Z " />
</g>
</svg>
