<svg xmlns="http://www.w3.org/2000/svg" xmlns:xlink="http://www.w3.org/1999/xlink" version="1.1" baseProfile="full" viewBox="0 0 200 200" width="200" height="200">
<g fill="black">
<path d="M 149.3 176.0 L 169.3 176.0 L 170.5 175.9 L 171.4 175.7 L 172.0 175.5 L 172.4 175.4 L 172.6 175.2 L 172.7 175.0 L 172.9 174.7 L 173.1 174.1 L 173.2 173.2 L 173.3 172.0 L 173.3 14.0 L 185.3 16.0 L 188.3 18.0 L 185.3 19.8 L 185.3 172.0 L 185.2 174.5 L 184.7 177.0 L 183.9 179.4 L 182.7 181.7 L 181.0 183.7 L 179.0 185.3 L 176.8 186.6 L 174.4 187.4 L 171.9 187.8 L 169.3 188.0 L 169.3 182.0 L 149.3 179.0 Z M 98.9 175.5 L 93.9 181.3 L 88.5 186.5 L 87.1 185.4 L 90.9 179.0 L 94.4 172.5 L 97.8 165.8 L 101.0 158.8 L 103.9 151.5 L 106.5 143.9 L 108.8 135.9 L 110.9 127.6 L 112.7 118.9 L 113.67088603973389 113.0 L 109.89125003814698 113.0 L 107.1 120.7 L 103.9 128.3 L 100.4 135.6 L 96.7 142.6 L 92.7 149.3 L 88.4 155.6 L 83.9 161.5 L 79.0 167.0 L 76.04618558883666 169.84020614624023 L 76.0 170.1 L 74.82790699005128 171.01162786483764 L 73.8 172.0 L 68.3 176.6 L 67.0 175.3 L 69.0883752822876 172.32406530380248 L 67.8 172.1 L 65.1 168.4 L 64.6 165.0 L 63.9 161.4 L 63.1 157.8 L 62.523822689056395 155.72576179504395 L 60.4 157.1 L 55.3 160.1 L 50.3 162.8 L 45.2 165.4 L 40.3 167.8 L 35.4 170.1 L 30.5 172.3 L 25.8 174.4 L 21.1 176.4 L 20.34287233352661 176.71272659301758 L 19.3 180.5 L 16.5 178.3 L 10.8 167.6 L 12.7 166.9 L 17.4 165.7 L 22.2 164.3 L 25.7182767868042 163.29477806091307 L 25.9 162.0 L 26.7 156.5 L 27.7 151.1 L 28.7 145.8 L 29.7 140.6 L 31.5 130.4 L 32.4 125.4 L 33.31428575515747 119.0 L 14.4 119.0 L 14.4 115.0 L 22.2 115.0 L 22.2 26.0 L 34.2 32.0 L 52.71818180084229 32.0 L 60.9 23.0 L 70.9 32.0 L 70.9 36.0 L 34.2 36.0 L 34.2 59.0 L 46.918181800842284 59.0 L 55.1 50.0 L 65.1 59.0 L 65.1 63.0 L 34.2 63.0 L 34.2 85.0 L 46.918181800842284 85.0 L 55.1 76.0 L 65.1 85.0 L 65.1 89.0 L 34.2 89.0 L 34.2 115.0 L 52.51666669845581 115.0 L 62.6 105.0 L 74.6 115.0 L 74.6 119.0 L 45.38333330154419 119.0 L 44.3 123.0 L 41.3 132.8 L 37.9 142.8 L 36.0 147.9 L 34.0 152.9 L 31.9 158.0 L 29.972628688812257 162.0956639289856 L 32.1 161.5 L 37.2 159.9 L 42.4 158.3 L 47.8 156.7 L 53.3 155.1 L 58.9 153.6 L 61.73324537277222 152.87968339920045 L 61.1 150.6 L 59.9 146.8 L 58.6 143.1 L 57.2 139.2 L 55.7 135.2 L 54.0 131.3 L 55.5 130.3 L 61.3 136.9 L 63.8 140.3 L 66.2 143.8 L 68.4 147.3 L 70.4 150.9 L 72.2 154.5 L 73.9 158.2 L 75.4 161.9 L 75.5939338684082 162.41253957748413 L 78.5 157.7 L 82.0 151.5 L 85.3 145.1 L 88.4 138.5 L 91.2 131.6 L 93.9 124.4 L 96.3 116.9 L 97.3576271057129 113.0 L 92.9333333015442 113.0 L 92.6 113.6 L 89.4 118.6 L 85.9 123.2 L 82.3 127.3 L 78.5 131.0 L 74.4 134.1 L 70.1 136.6 L 68.9 135.3 L 71.7 131.4 L 74.5 127.4 L 77.1 123.3 L 79.7 118.9 L 82.1 114.3 L 84.4 109.3 L 86.5 104.0 L 88.5 98.4 L 90.4 92.5 L 91.85393600463867 87.11188421249389 L 91.8 87.1 L 91.83199996948242 87.0 L 90.7 87.0 L 78.7 93.0 L 78.7 15.0 L 90.7 21.0 L 122.0 21.0 L 128.0 16.0 L 139.0 25.0 L 134.0 29.0 L 134.0 91.0 L 122.0 97.0 L 122.0 87.0 L 97.7764705657959 87.0 L 103.6 89.7 L 105.9 92.4 L 102.18558559417724 93.37747745513916 L 101.1 96.2 L 98.5 102.4 L 95.6 108.2 L 95.15555553436279 109.0 L 126.9 109.0 L 132.9 104.0 L 143.9 113.0 L 138.9 116.0 L 138.83111362457277 116.02870264053345 L 138.8 118.3 L 138.5 125.3 L 138.2 131.9 L 137.9 138.3 L 137.4 144.2 L 136.9 149.9 L 136.3 155.2 L 135.6 160.3 L 134.9 165.0 L 134.1 169.3 L 133.4 171.8 L 132.5 174.2 L 131.3 176.4 L 129.8 178.4 L 128.0 180.1 L 125.9 181.6 L 123.7 182.7 L 121.3 183.4 L 118.8 183.8 L 116.2 184.0 L 116.2 178.0 L 98.96163606643677 175.4142454147339 Z M 160.2 31.0 L 163.2 33.0 L 160.2 34.8 L 160.2 149.0 L 148.2 155.0 L 148.2 29.0 Z M 90.7 56.0 L 90.7 83.0 L 122.0 83.0 L 122.0 56.0 Z M 90.7 25.0 L 90.7 52.0 L 122.0 52.0 L 122.0 25.0 Z M 123.8 158.5 L 124.4 153.8 L 125.0 148.7 L 125.5 143.3 L 125.9 137.5 L 126.2 131.3 L 126.5 124.8 L 126.8 118.0 L 126.87042255401612 113.0 L 125.7659574508667 113.0 L 123.8 121.4 L 121.3 130.4 L 118.4 139.0 L 115.2 147.1 L 111.7 154.9 L 107.8 162.2 L 103.5 169.1 L 101.415625 172.0 L 116.2 172.0 L 117.5 171.9 L 118.5 171.7 L 119.3 171.5 L 119.9 171.2 L 120.4 170.9 L 121.2 169.9 L 121.6 169.2 L 122.0 168.2 L 122.3 167.0 L 123.1 162.9 Z " />
</g>
</svg>
