<svg xmlns="http://www.w3.org/2000/svg" xmlns:xlink="http://www.w3.org/1999/xlink" version="1.1" baseProfile="full" viewBox="0 0 200 200" width="200" height="200">
<g fill="black">
<path d="M 159.3 177.9 L 153.3 174.1 L 147.1 170.5 L 140.7 167.2 L 137.59823665618896 165.74311113357544 L 129.2 171.7 L 119.4 176.9 L 108.5 181.1 L 96.4 184.4 L 83.1 186.6 L 68.6 187.8 L 68.4 186.1 L 82.4 182.9 L 94.9 179.2 L 106.2 175.0 L 116.0 170.1 L 124.4 164.7 L 128.09603157043458 161.57659301757812 L 127.2 161.2 L 120.1 158.4 L 112.9 155.7 L 111.42196855545043 155.16790866851807 L 107.0 163.2 L 93.6 162.7 L 110.52803735733032 132.0 L 77.0 132.0 L 77.0 128.0 L 112.73364486694337 128.0 L 123.1 109.2 L 132.6 116.7 L 134.3 119.9 L 130.52453861236572 120.46988096237183 L 126.37892475128174 128.0 L 165.2 128.0 L 175.2 118.0 L 187.2 128.0 L 187.2 132.0 L 158.93599996566772 132.0 L 155.9 141.2 L 151.2 150.3 L 145.1 158.4 L 144.06151485443115 159.42425937652587 L 151.1 162.2 L 158.0 165.2 L 164.8 168.6 L 171.3 172.3 L 177.7 176.3 L 180.1 180.3 L 179.1 184.7 L 175.1 187.1 L 170.7 186.1 L 165.1 181.8 Z M 62.7 48.8 L 61.5 46.3 L 60.1 43.8 L 58.5 41.3 L 56.6 38.8 L 54.5 36.2 L 52.1 33.5 L 49.6 30.7 L 48.443328094482425 29.73610677719116 L 46.9 34.1 L 43.6 42.2 L 40.2 50.0 L 36.4 57.7 L 32.3 65.2 L 30.030555534362794 69.0 L 52.21818180084229 69.0 L 60.4 60.0 L 70.4 69.0 L 70.4 73.0 L 52.3 73.0 L 52.3 101.0 L 56.518181800842285 101.0 L 64.7 92.0 L 74.7 101.0 L 74.7 105.0 L 52.3 105.0 L 52.3 161.47241382598878 L 60.9 159.1 L 66.8 157.6 L 72.9 156.1 L 73.6 157.8 L 68.3 161.1 L 62.9 164.1 L 57.4 166.8 L 51.9 169.4 L 46.3 171.9 L 40.7 174.2 L 29.5 178.6 L 23.9 180.6 L 22.228804492950438 181.16701278686523 L 21.0 184.8 L 18.3 182.5 L 13.2 171.4 L 15.1 170.9 L 20.7 169.6 L 26.4 168.3 L 32.1 166.9 L 40.3 164.74210529327394 L 40.3 105.0 L 17.2 105.0 L 17.2 101.0 L 40.3 101.0 L 40.3 73.0 L 29.9 73.0 L 29.9 69.21860466003417 L 28.0 72.4 L 23.4 79.4 L 18.3 86.1 L 12.9 92.5 L 11.4 91.4 L 15.1 84.0 L 18.7 76.7 L 22.2 69.3 L 25.6 61.8 L 28.7 54.2 L 31.6 46.5 L 34.2 38.7 L 36.7 30.7 L 38.9 22.6 L 40.9 14.4 L 40.95553560256958 14.414362621307372 L 41.4 12.7 L 52.5 17.4 L 54.9 20.1 L 51.29469890594483 21.194466400146485 L 49.8 25.9 L 49.22901554107666 27.51450777053833 L 51.2 28.5 L 54.7 30.1 L 58.0 31.9 L 61.1 33.8 L 64.0 36.0 L 66.7 38.2 L 69.2 40.7 L 71.5 43.2 L 73.5 45.9 L 75.4 48.8 L 75.4 53.3 L 72.3 56.7 L 67.8 56.8 L 64.4 53.6 L 63.7 51.2 Z M 24.9 142.3 L 24.5 139.3 L 24.0 136.3 L 23.2 133.3 L 22.3 130.3 L 21.3 127.3 L 20.1 124.2 L 18.5 121.3 L 19.9 120.2 L 24.9 125.0 L 27.2 127.7 L 29.3 130.5 L 31.1 133.5 L 32.8 136.6 L 34.2 139.9 L 35.4 143.3 L 36.4 146.9 L 37.1 150.5 L 35.6 154.8 L 31.6 156.9 L 27.2 155.4 L 25.2 151.4 L 25.2 145.3 Z M 124.17677421569825 132.0 L 113.19056215286255 151.95542421340943 L 113.7 152.0 L 121.6 153.2 L 129.2 154.9 L 133.72577819824218 156.16721792221068 L 137.3 152.1 L 141.9 144.9 L 145.2 137.1 L 146.56478872299195 132.0 Z M 73.0 121.7 L 75.3 124.5 L 71.22642011642456 125.50052843093872 L 70.2 127.7 L 68.7 130.7 L 67.1 133.7 L 65.4 136.6 L 61.8 142.6 L 59.8 145.5 L 57.6 148.4 L 55.6 151.3 L 54.0 150.6 L 55.0 147.2 L 55.8 143.7 L 56.6 140.3 L 58.2 133.7 L 59.0 130.5 L 59.7 127.4 L 60.3 124.2 L 61.0 121.2 L 61.33394927978516 119.12951421737671 L 61.2 119.1 L 61.47967481613159 118.22601623535157 L 61.5 118.1 L 61.518178939819336 118.10569076538086 L 62.0 116.6 Z M 103.0 96.6 L 104.7 99.8 L 100.37157402038574 100.02388410568237 L 99.4 101.2 L 97.3 103.4 L 95.1 105.5 L 92.8 107.6 L 90.2 109.7 L 87.6 111.7 L 84.7 113.7 L 81.6 115.5 L 78.6 117.6 L 77.5 116.3 L 79.8 113.6 L 81.8 110.7 L 83.7 107.9 L 85.4 105.3 L 87.0 102.7 L 88.4 100.2 L 89.6 97.8 L 90.7 95.5 L 91.7 93.2 L 92.10003633499146 91.94274282455444 L 92.0 91.9 L 92.28735628128052 91.35402297973633 L 92.4 91.0 L 92.45765342712403 91.03045845031738 L 93.0 90.0 Z M 158.3 95.5 L 160.1 98.6 L 155.72652273178102 98.97702388763427 L 154.6 100.4 L 152.5 102.7 L 150.3 105.0 L 147.9 107.1 L 145.3 109.2 L 142.6 111.2 L 139.8 113.0 L 136.7 114.7 L 133.7 116.7 L 132.6 115.2 L 135.0 112.7 L 137.0 110.0 L 138.8 107.3 L 140.5 104.7 L 142.1 102.2 L 143.5 99.7 L 144.7 97.3 L 145.8 94.9 L 146.7 92.5 L 147.16465606689454 91.16411390304566 L 147.0 91.1 L 148.0 89.1 Z M 171.2 105.5 L 170.6 103.5 L 169.9 101.4 L 168.1 97.2 L 167.0 95.0 L 165.9 92.7 L 164.7 90.3 L 163.0 88.3 L 164.2 87.0 L 166.3 88.7 L 168.7 90.1 L 170.9 91.6 L 173.0 93.3 L 175.0 95.0 L 176.9 96.9 L 178.6 98.7 L 180.3 100.7 L 181.8 102.8 L 183.2 104.9 L 183.1 109.5 L 179.9 112.7 L 175.3 112.6 L 172.1 109.4 L 171.7 107.5 Z M 113.4 98.5 L 112.6 96.6 L 111.8 94.8 L 111.0 92.8 L 110.1 90.9 L 109.2 88.9 L 107.8 87.3 L 109.1 86.0 L 110.8 87.3 L 112.8 88.4 L 114.7 89.6 L 116.6 90.9 L 118.4 92.3 L 121.8 95.3 L 125.0 98.7 L 126.5 100.5 L 126.8 105.0 L 124.0 108.6 L 119.4 109.0 L 115.9 106.1 L 114.1 100.4 Z M 148.6 21.7 L 170.3 21.7 L 176.3 16.7 L 187.3 25.7 L 182.3 29.7 L 182.3 79.5 L 170.3 85.5 L 170.3 79.5 L 148.6 79.5 L 137.6 85.0 L 137.6 16.2 Z M 94.2 21.7 L 116.5 21.7 L 122.0 16.7 L 132.5 25.7 L 127.5 29.2 L 127.5 79.5 L 116.5 85.0 L 116.5 79.5 L 94.2 79.5 L 82.2 85.5 L 82.2 15.7 Z M 148.6 60.8 L 148.6 75.5 L 170.3 75.5 L 170.3 60.8 Z M 94.2 60.8 L 94.2 75.5 L 116.5 75.5 L 116.5 60.8 Z M 148.6 43.2 L 148.6 56.8 L 170.3 56.8 L 170.3 43.2 Z M 94.2 43.2 L 94.2 56.8 L 116.5 56.8 L 116.5 43.2 Z M 148.6 25.7 L 148.6 39.2 L 170.3 39.2 L 170.3 25.7 Z M 94.2 25.7 L 94.2 39.2 L 116.5 39.2 L 116.5 25.7 Z " />
</g>
</svg>
