<svg xmlns="http://www.w3.org/2000/svg" xmlns:xlink="http://www.w3.org/1999/xlink" version="1.1" baseProfile="full" viewBox="0 0 200 200" width="200" height="200">
<g fill="black">
<path d="M 150.4 162.7 L 151.0 166.2 L 146.82675161361695 165.0821656227112 L 145.6 165.9 L 143.0 167.4 L 140.3 168.9 L 137.5 170.4 L 134.6 171.9 L 131.5 173.3 L 128.2 174.7 L 124.8 175.9 L 121.4 177.4 L 120.5 175.9 L 123.4 173.6 L 125.9 171.1 L 128.4 168.7 L 130.8 166.4 L 135.1 162.1 L 137.1 160.0 L 138.9 157.9 L 140.6 155.9 L 141.48659791946412 154.77697591781617 L 141.4 154.7 L 142.3 153.8 Z M 61.4 171.5 L 60.6 170.1 L 59.4 168.5 L 57.9 166.8 L 56.2 165.0 L 54.2 163.2 L 51.9 161.2 L 49.4 159.1 L 46.5 157.5 L 47.2 155.8 L 50.5 157.0 L 53.7 157.8 L 56.7 158.7 L 59.5 159.7 L 62.1 160.7 L 64.5 161.9 L 66.8 163.1 L 68.8 164.4 L 70.7 165.9 L 72.4 167.6 L 73.1 172.1 L 70.6 175.9 L 66.0 176.6 L 62.3 174.0 L 62.0 172.9 Z M 159.5 138.0 L 150.8 135.0 L 142.3 131.8 L 141.0123077392578 131.24358978271485 L 143.0 132.9 L 143.0 136.9 L 106.0 136.9 L 106.0 148.5 L 148.8181818008423 148.5 L 157.0 139.5 L 167.0 148.5 L 167.0 152.5 L 106.0 152.5 L 106.0 177.5 L 159.0 177.5 L 169.0 167.5 L 181.0 177.5 L 181.0 181.5 L 19.0 181.5 L 19.0 177.5 L 94.0 177.5 L 94.0 152.5 L 33.0 152.5 L 33.0 148.5 L 94.0 148.5 L 94.0 136.9 L 57.0 136.9 L 57.0 132.9 L 121.0 132.9 L 128.39316234588622 125.50683765411377 L 126.3 124.5 L 118.8 120.3 L 111.5 115.8 L 105.16101694107056 111.23220338821412 L 105.2 111.7 L 101.67406635284424 110.35373439788819 L 97.6 113.2 L 89.8 117.9 L 81.5 122.3 L 72.8 126.4 L 63.7 130.2 L 54.1 133.6 L 44.1 136.7 L 33.6 139.3 L 22.6 141.6 L 11.1 143.3 L 10.8 141.5 L 21.6 137.9 L 32.0 134.2 L 42.0 130.4 L 51.4 126.5 L 60.3 122.4 L 68.7 118.1 L 76.7 113.6 L 84.1 108.8 L 91.0 103.9 L 97.2 98.8625 L 97.5 98.6 L 103.01989583969116 105.68635282516479 L 106.8 107.4 L 114.3 110.7 L 121.9 113.8 L 129.7 116.8 L 137.6 119.6 L 145.7 122.2 L 154.1 124.5 L 162.6 126.6 L 171.3 128.5 L 180.3 130.1 L 189.4 131.9 L 177.6 143.0 L 168.4 140.6 Z M 74.2 14.1 L 77.2 16.1 L 74.2 17.9 L 74.2 25.0 L 78.5 25.0 L 83.0 19.0 L 89.0 25.0 L 89.0 29.0 L 74.2 29.0 L 74.2 42.9 L 62.2 48.9 L 62.2 42.9 L 57.8 42.9 L 57.8 54.4 L 70.3 54.4 L 76.3 49.4 L 87.3 58.4 L 82.3 62.4 L 82.3 78.5 L 77.4875 80.90625 L 89.0 90.5 L 89.0 94.5 L 57.8 94.5 L 57.8 109.8 L 45.8 115.8 L 45.8 94.5 L 13.8 94.5 L 13.8 90.5 L 45.8 90.5 L 45.8 78.5 L 32.4 78.5 L 20.4 84.5 L 20.4 48.4 L 32.4 54.4 L 45.8 54.4 L 45.8 42.9 L 40.6 42.9 L 28.6 48.9 L 28.6 29.0 L 14.7 29.0 L 14.7 25.0 L 28.6 25.0 L 28.6 12.1 L 40.6 14.1 L 43.6 16.1 L 40.6 17.9 L 40.6 25.0 L 62.2 25.0 L 62.2 12.1 Z M 175.4 110.3 L 173.6 111.8 L 171.6 113.2 L 169.6 114.4 L 167.4 115.4 L 165.1 116.1 L 162.7 116.7 L 160.3 117.0 L 157.9 117.1 L 157.9 111.1 L 137.9 108.1 L 137.9 105.1 L 157.9 105.1 L 160.7 104.9 L 161.9 104.6 L 163.1 104.2 L 164.1 103.7 L 165.2 103.1 L 166.1 102.4 L 167.1 101.6 L 168.0 100.6 L 168.9 99.5 L 169.5 98.4 L 170.3 95.7 L 171.1 91.5 L 171.7 86.1 L 172.1 79.5 L 172.4 71.7 L 172.5 62.7 L 172.3 52.6 L 172.0 41.4 L 171.8600790977478 38.508300399780275 L 171.4 38.7 L 171.4 30.7 L 147.7555555343628 30.7 L 156.2 38.3 L 156.2 42.3 L 108.3 42.3 L 108.3 38.3 L 138.01818180084229 38.3 L 144.92727270126343 30.7 L 112.25652170181274 30.7 L 109.7 34.9 L 106.7 39.2 L 103.5 43.3 L 100.0 47.2 L 99.58918914794921 47.6 L 159.5 47.6 L 164.0 41.6 L 170.0 47.6 L 170.0 51.6 L 95.3303030014038 51.6 L 92.1 54.2 L 87.6 57.2 L 86.4 55.9 L 89.3 51.6 L 92.1 47.4 L 94.8 43.2 L 97.3 39.0 L 99.5 34.7 L 101.6 30.4 L 103.4 26.0 L 105.0 21.5 L 106.4 17.0 L 107.5 12.3 L 107.56416721343994 12.318807601928711 L 108.0 10.7 L 119.1 15.7 L 121.4 18.5 L 117.6109320640564 19.497123146057127 L 117.1 20.8 L 114.9 25.6 L 114.3382978439331 26.7 L 171.4 26.7 L 177.4 21.7 L 188.4 30.7 L 183.64727840423583 33.551632976531984 L 184.0 40.9 L 184.3 52.4 L 184.5 62.7 L 184.4 71.9 L 184.1 80.1 L 183.6 87.2 L 182.9 93.3 L 182.0 98.5 L 180.6 102.8 L 178.6 106.6 L 177.1 108.5 Z M 116.4 80.7 L 144.8 80.7 L 150.8 75.7 L 161.8 84.7 L 156.8 88.7 L 156.8 98.0 L 144.8 104.0 L 144.8 98.0 L 116.4 98.0 L 104.4 104.0 L 104.4 74.7 Z M 116.4 84.7 L 116.4 94.0 L 144.8 94.0 L 144.8 84.7 Z M 57.8 78.5 L 57.8 90.5 L 67.0 90.5 L 75.7 81.8 L 70.3 84.5 L 70.3 78.5 Z M 32.4 58.4 L 32.4 74.5 L 45.8 74.5 L 45.8 58.4 Z M 57.8 58.4 L 57.8 74.5 L 70.3 74.5 L 70.3 58.4 Z M 157.2 69.7 L 157.2 73.7 L 105.1 73.7 L 105.1 69.7 L 146.7 69.7 L 151.2 63.7 Z M 157.2 59.2 L 157.2 63.2 L 105.1 63.2 L 105.1 59.2 L 146.7 59.2 L 151.2 53.2 Z M 40.6 29.0 L 40.6 38.9 L 62.2 38.9 L 62.2 29.0 Z " />
</g>
</svg>
