<svg xmlns="http://www.w3.org/2000/svg" xmlns:xlink="http://www.w3.org/1999/xlink" version="1.1" baseProfile="full" viewBox="0 0 200 200" width="200" height="200">
<g fill="black">
<path d="M 173.9 176.4 L 172.4 178.3 L 170.6 180.1 L 168.7 181.6 L 166.6 182.8 L 164.3 183.8 L 161.9 184.4 L 159.4 184.8 L 156.9 185.0 L 156.9 179.0 L 136.9 176.0 L 136.9 173.0 L 156.9 173.0 L 158.3 172.9 L 159.4 172.7 L 160.4 172.4 L 161.3 172.1 L 162.0 171.7 L 162.7 171.1 L 163.3 170.5 L 163.9 169.7 L 164.6 168.7 L 165.1 167.4 L 166.3 163.9 L 167.4 158.7 L 168.5 151.9 L 169.5 143.7 L 170.3 133.9 L 171.0 122.8 L 171.6 110.2 L 172.1 96.2 L 172.5 80.7 L 172.675 66.0 L 159.50217390060425 66.0 L 158.7 82.4 L 157.2 99.5 L 154.9 115.3 L 152.0 129.9 L 148.2 143.1 L 143.7 155.1 L 138.5 165.7 L 132.4 174.9 L 125.6 182.6 L 118.0 188.6 L 116.9 187.3 L 122.7 180.1 L 128.0 171.9 L 132.6 162.7 L 136.6 152.3 L 140.1 140.8 L 142.9 127.9 L 145.0 113.9 L 146.5 98.5 L 147.4 81.8 L 147.5765362739563 66.0 L 130.8 66.0 L 130.8 62.0 L 147.6 62.0 L 147.6 17.0 L 159.6 19.0 L 162.6 21.0 L 159.6 22.8 L 159.6 62.0 L 172.7 62.0 L 178.7 57.0 L 189.7 66.0 L 184.7 69.0 L 184.64088668823243 69.02463054656982 L 184.5 81.0 L 184.1 96.5 L 183.6 110.7 L 183.0 123.4 L 182.3 134.8 L 181.4 144.9 L 180.4 153.5 L 179.2 160.9 L 177.9 167.0 L 176.2 171.9 L 175.2 174.2 Z M 75.5 161.8 L 74.5 158.2 L 73.41167211532593 155.18616905212403 L 69.7 157.1 L 63.4 160.1 L 57.1 162.9 L 50.8 165.5 L 44.6 167.9 L 38.6 170.3 L 32.6 172.5 L 26.7 174.6 L 20.9 176.6 L 19.119889545440675 177.1933701515198 L 17.9 180.8 L 15.2 178.5 L 10.1 167.4 L 12.0 166.9 L 17.8 165.6 L 23.7 164.3 L 27.795940971374513 163.34428043365477 L 28.1 161.9 L 29.3 156.3 L 30.7 150.9 L 32.0 145.6 L 33.3 140.4 L 34.5 135.2 L 35.7 130.2 L 36.8 125.2 L 37.9 120.3 L 38.13636360168457 119.0 L 13.5 119.0 L 13.5 115.0 L 24.4 115.0 L 24.4 26.0 L 36.4 32.0 L 60.9 32.0 L 70.9 22.0 L 82.9 32.0 L 82.9 36.0 L 36.4 36.0 L 36.4 59.0 L 57.61818180084229 59.0 L 65.8 50.0 L 75.8 59.0 L 75.8 63.0 L 36.4 63.0 L 36.4 85.0 L 57.61818180084229 85.0 L 65.8 76.0 L 75.8 85.0 L 75.8 89.0 L 36.4 89.0 L 36.4 115.0 L 65.4 115.0 L 75.4 105.0 L 87.4 115.0 L 87.4 119.0 L 50.33333330154419 119.0 L 48.9 123.3 L 47.2 128.2 L 43.4 138.0 L 41.4 143.0 L 39.2 148.1 L 36.9 153.1 L 34.4 158.2 L 32.15042734146118 162.29743585586547 L 35.8 161.4 L 42.1 159.8 L 48.5 158.3 L 55.0 156.6 L 61.6 155.0 L 68.5 153.5 L 72.48241205215454 152.70351762771605 L 71.8 150.9 L 70.2 147.1 L 68.4 143.3 L 66.6 139.4 L 64.6 135.3 L 62.4 131.3 L 63.8 130.2 L 67.2 133.4 L 70.5 136.6 L 73.5 140.0 L 76.3 143.5 L 78.9 147.0 L 81.2 150.6 L 83.4 154.2 L 85.4 157.9 L 87.1 161.6 L 88.7 165.4 L 88.2 169.9 L 84.7 172.8 L 80.1 172.3 L 77.2 168.8 L 76.5 165.3 Z M 126.6 136.2 L 126.2 132.7 L 126.13207550048828 132.29245281219482 L 122.6 134.5 L 118.6 136.8 L 114.5 139.1 L 110.3 141.2 L 106.2 143.3 L 93.6 149.3 L 93.23087501525879 149.46698513031006 L 92.3 153.3 L 89.4 151.2 L 83.4 140.6 L 85.3 139.9 L 89.7 138.6 L 92.6162670135498 137.78615808486938 L 93.7 134.5 L 96.8 125.4 L 99.9 116.6 L 103.0 108.1 L 106.0 99.8 L 106.83183393478393 97.39362335205078 L 106.1 98.0 L 101.5 97.5 L 98.6 94.0 L 98.2 91.6 L 97.6 89.0 L 96.9 86.4 L 95.9 83.7 L 94.8 80.9 L 93.5 78.0 L 92.0 75.0 L 90.4 71.9 L 88.6 68.7 L 86.4 65.6 L 87.7 64.3 L 90.7 66.9 L 93.7 69.2 L 95.75177450180054 71.09979124069214 L 96.5 68.0 L 97.9 62.5 L 99.4 57.2 L 100.9 52.2 L 102.3 47.3 L 103.6 42.6 L 104.8 38.1 L 105.9 33.7 L 106.9 29.5 L 107.64748487472534 26.510060405731203 L 107.6 26.5 L 108.3 23.9 L 119.4 29.0 L 121.7 31.7 L 117.92235298156739 32.694117641448976 L 117.8 33.0 L 116.1 37.1 L 114.3 41.4 L 112.3 45.8 L 110.2 50.3 L 108.0 54.9 L 105.5 59.7 L 102.9 64.6 L 100.0 69.5 L 97.75695238113403 73.00476188659668 L 99.0 74.2 L 101.3 76.8 L 103.5 79.4 L 105.4 82.1 L 107.2 84.9 L 108.7 87.7 L 109.57518243789673 89.51287803649902 L 111.6 83.8 L 114.2 76.1 L 116.8 68.7 L 118.86530961990357 62.41801643371582 L 118.8 62.4 L 119.7 60.0 L 130.4 65.6 L 132.5 68.5 L 128.87941884994507 69.19870862960815 L 127.4 72.7 L 124.2 80.0 L 120.9 87.5 L 117.5 95.2 L 113.8 103.0 L 110.0 111.0 L 106.0 119.2 L 101.7 127.6 L 97.2 136.0 L 96.888592338562 136.54655227661132 L 98.4 136.1 L 102.9 134.8 L 111.7 132.2 L 120.7 129.8 L 125.2 128.8 L 125.5244812965393 128.7224066734314 L 124.9 125.6 L 124.0 122.1 L 123.1 118.5 L 122.0 114.9 L 120.8 111.2 L 119.3 107.6 L 120.8 106.6 L 126.0 112.8 L 128.3 116.0 L 130.5 119.4 L 132.4 122.9 L 134.1 126.5 L 135.6 130.2 L 136.9 134.0 L 138.0 137.9 L 138.9 141.9 L 137.6 146.3 L 133.7 148.6 L 129.3 147.3 L 127.0 143.3 L 126.9 139.7 Z " />
</g>
</svg>
