<svg xmlns="http://www.w3.org/2000/svg" xmlns:xlink="http://www.w3.org/1999/xlink" version="1.1" baseProfile="full" viewBox="0 0 200 200" width="200" height="200">
<g fill="black">
<path d="M 81.6 186.0 L 80.5 181.6 L 82.8 177.6 L 84.4 176.7 L 86.0 175.4 L 87.6 173.7 L 89.2 171.5 L 90.7 168.8 L 92.1 165.6 L 93.4 162.0 L 94.6 157.9 L 95.8 153.4 L 96.5 148.4 L 98.3 148.5 L 98.7 153.6 L 99.0 158.4 L 99.0 163.0 L 98.7 167.2 L 98.1 171.2 L 97.2 174.9 L 96.0 178.4 L 94.4 181.6 L 92.4 184.6 L 90.0 187.2 L 85.6 188.3 Z M 175.9 176.4 L 175.2 173.4 L 174.2 170.2 L 173.1 167.0 L 171.7 163.7 L 170.1 160.3 L 168.3 156.8 L 166.4 153.2 L 164.0 149.7 L 165.4 148.4 L 168.7 151.3 L 171.9 154.0 L 174.9 157.0 L 177.5 160.0 L 180.0 163.1 L 182.2 166.4 L 184.1 169.7 L 185.8 173.1 L 187.3 176.5 L 188.5 180.1 L 187.6 184.6 L 183.8 187.1 L 179.3 186.2 L 176.8 182.4 L 176.4 179.5 Z M 145.7 174.4 L 145.5 171.6 L 145.1 168.8 L 144.4 165.9 L 143.6 163.0 L 142.6 159.9 L 141.5 156.8 L 140.2 153.6 L 138.4 150.5 L 139.8 149.4 L 142.4 152.0 L 145.0 154.5 L 147.4 157.2 L 149.6 160.0 L 151.5 162.9 L 153.2 165.9 L 154.7 169.1 L 155.9 172.3 L 156.9 175.6 L 157.6 179.0 L 156.1 183.4 L 152.1 185.4 L 147.8 183.9 L 145.7 179.9 L 145.8 177.2 Z M 76.8 73.0 L 76.8 77.0 L 52.4 77.0 L 52.4 111.0 L 58.7 111.0 L 68.7 101.0 L 80.7 111.0 L 80.7 115.0 L 52.4 115.0 L 52.4 157.3 L 57.9 152.8 L 61.4 150.0 L 65.1 147.1 L 68.9 144.2 L 72.9 141.3 L 77.0 138.3 L 78.2 139.6 L 75.3 143.7 L 72.4 147.7 L 69.5 151.5 L 66.6 155.1 L 63.7 158.6 L 61.0 162.0 L 58.3 165.2 L 55.6 168.3 L 53.1 171.3 L 50.6 174.2 L 50.401183414459226 173.99881658554077 L 44.4 180.0 L 34.4 170.0 L 40.4 164.0 L 40.4 115.0 L 13.7 115.0 L 13.7 111.0 L 40.4 111.0 L 40.4 77.0 L 28.5 77.0 L 28.5 73.0 L 58.61818180084229 73.0 L 66.8 64.0 Z M 121.6 185.4 L 117.5 183.4 L 116.0 179.0 L 116.5 176.4 L 116.9 173.6 L 117.1 170.9 L 117.1 168.1 L 117.0 165.3 L 116.7 162.5 L 116.3 159.6 L 115.7 156.6 L 115.1 153.5 L 113.9 150.5 L 115.4 149.6 L 117.4 152.3 L 119.5 154.9 L 121.4 157.6 L 123.0 160.5 L 124.4 163.5 L 125.6 166.6 L 126.5 169.8 L 127.2 173.1 L 127.7 176.4 L 128.0 179.9 L 125.9 183.9 Z M 169.3 37.3 L 181.3 47.3 L 181.3 51.3 L 146.4 51.3 L 146.4 76.3 L 154.8 76.3 L 164.8 66.3 L 176.8 76.3 L 176.8 80.3 L 146.4 80.3 L 146.4 104.6 L 154.8 104.6 L 164.8 94.6 L 176.8 104.6 L 176.8 108.6 L 146.4 108.6 L 146.4 135.2 L 163.8 135.2 L 173.8 125.2 L 185.8 135.2 L 185.8 139.2 L 109.2 139.2 L 97.2 145.2 L 97.2 64.70869569778442 L 94.8 68.1 L 89.9 74.4 L 84.6 80.3 L 79.0 85.9 L 77.6 84.8 L 81.6 78.0 L 85.5 71.3 L 89.3 64.5 L 92.9 57.7 L 96.2 50.8 L 97.2 48.541935443878174 L 97.2 47.3 L 97.75 47.3 L 99.3 43.8 L 102.2 36.7 L 104.8 29.5 L 107.2 22.2 L 109.13379697799682 15.607510471343994 L 109.1 15.6 L 109.8 13.1 L 120.8 18.2 L 123.1 21.0 L 119.45639228820801 21.894921207427977 L 118.0 25.9 L 114.8 33.4 L 111.4 40.8 L 108.0126760482788 47.3 L 159.3 47.3 Z M 109.2 108.6 L 109.2 135.2 L 134.4 135.2 L 134.4 108.6 Z M 109.2 80.3 L 109.2 104.6 L 134.4 104.6 L 134.4 80.3 Z M 50.4 17.5 L 52.8 20.2 L 49.21719036102295 21.223659896850585 L 47.7 26.0 L 44.7 34.4 L 41.6 42.6 L 41.43000001907349 43.0 L 61.81818180084228 43.0 L 70.0 34.0 L 80.0 43.0 L 80.0 47.0 L 39.730000019073486 47.0 L 38.2 50.6 L 34.7 58.3 L 30.8 65.9 L 26.8 73.2 L 22.5 80.3 L 17.9 87.0 L 12.9 93.4 L 11.3 92.5 L 14.6 85.1 L 17.8 77.7 L 20.9 70.3 L 23.9 62.7 L 26.8 55.0 L 29.6 47.2 L 32.1 39.2 L 34.5 31.1 L 36.7 22.8 L 38.57168674468994 15.313253021240234 L 38.5 15.3 L 39.2 12.7 Z M 109.2 51.3 L 109.2 76.3 L 134.4 76.3 L 134.4 51.3 Z M 140.2 35.1 L 139.8 33.1 L 139.2 31.0 L 138.3 28.9 L 137.3 26.6 L 135.9 24.2 L 134.4 21.7 L 132.6 19.1 L 130.3 16.8 L 131.5 15.4 L 134.2 17.3 L 137.1 18.9 L 139.8 20.6 L 142.2 22.5 L 144.4 24.5 L 146.4 26.7 L 148.2 29.0 L 149.8 31.4 L 151.1 33.9 L 152.1 36.6 L 151.1 41.1 L 147.3 43.6 L 142.8 42.6 L 140.3 38.7 L 140.3 37.0 Z " />
</g>
</svg>
