<svg xmlns="http://www.w3.org/2000/svg" xmlns:xlink="http://www.w3.org/1999/xlink" version="1.1" baseProfile="full" viewBox="0 0 200 200" width="200" height="200">
<g fill="black">
<path d="M 145.3 175.7 L 160.6 175.7 L 161.5 175.5 L 162.0 175.3 L 162.6 175.0 L 162.7 174.8 L 162.9 174.5 L 163.1 173.9 L 163.2 173.0 L 163.3 171.7 L 163.3 155.9 L 111.6 155.9 L 111.6 182.1 L 99.6 188.1 L 99.6 101.9 L 111.6 107.9 L 163.3 107.9 L 169.3 102.9 L 180.3 111.9 L 175.3 115.9 L 175.3 171.7 L 175.2 174.3 L 174.7 176.8 L 173.9 179.2 L 172.7 181.5 L 171.1 183.5 L 169.0 185.1 L 166.8 186.4 L 164.4 187.2 L 161.9 187.6 L 159.3 187.7 L 159.3 181.7 L 145.3 178.7 Z M 77.3 161.8 L 76.2 158.2 L 75.09882354736328 155.15058822631835 L 71.2 157.1 L 64.7 160.1 L 58.2 162.9 L 51.8 165.5 L 45.5 167.9 L 39.3 170.3 L 33.2 172.5 L 27.2 174.6 L 21.2 176.6 L 19.329032230377198 177.21290321350097 L 18.1 180.9 L 15.4 178.5 L 10.4 167.4 L 12.3 166.9 L 18.2 165.6 L 24.2 164.3 L 28.409123420715332 163.28166370391847 L 28.7 161.9 L 30.0 156.3 L 31.4 150.9 L 32.8 145.6 L 34.1 140.3 L 35.4 135.2 L 36.6 130.1 L 37.8 125.1 L 38.8 120.2 L 39.025 119.0 L 13.8 119.0 L 13.8 115.0 L 25.1 115.0 L 25.1 26.0 L 37.1 32.0 L 62.8 32.0 L 72.8 22.0 L 84.8 32.0 L 84.8 36.0 L 37.1 36.0 L 37.1 59.0 L 59.31818180084228 59.0 L 67.5 50.0 L 77.5 59.0 L 77.5 63.0 L 37.1 63.0 L 37.1 85.0 L 59.31818180084228 85.0 L 67.5 76.0 L 77.5 85.0 L 77.5 89.0 L 37.1 89.0 L 37.1 115.0 L 67.3 115.0 L 77.3 105.0 L 89.3 115.0 L 89.3 119.0 L 51.23333330154419 119.0 L 49.8 123.3 L 46.2 133.1 L 44.2 138.1 L 42.1 143.1 L 39.9 148.1 L 37.6 153.1 L 35.0 158.2 L 32.76808662414551 162.26527080535888 L 36.6 161.4 L 43.0 159.8 L 49.5 158.3 L 56.2 156.6 L 63.0 155.0 L 70.0 153.5 L 74.12860126495362 152.69721641540528 L 73.4 150.9 L 71.8 147.1 L 70.0 143.3 L 68.1 139.4 L 66.0 135.4 L 63.8 131.3 L 65.2 130.2 L 72.0 136.6 L 75.1 140.0 L 77.9 143.4 L 80.5 146.9 L 82.9 150.5 L 85.1 154.2 L 87.1 157.8 L 88.9 161.6 L 90.5 165.3 L 90.0 169.9 L 86.5 172.8 L 82.0 172.3 L 79.1 168.8 L 78.3 165.3 Z M 111.6 133.9 L 111.6 151.9 L 163.3 151.9 L 163.3 133.9 Z M 111.6 111.9 L 111.6 129.9 L 163.3 129.9 L 163.3 111.9 Z M 98.8 86.9 L 136.9 86.9 L 136.9 62.3 L 114.9222222328186 62.3 L 110.2 69.1 L 104.5 75.7 L 98.3 81.7 L 91.4 87.0 L 83.8 91.5 L 82.8 90.0 L 88.9 84.1 L 94.5 77.9 L 99.5 71.5 L 103.9 64.8 L 107.7 57.8 L 111.0 50.3 L 113.7 42.5 L 114.69878044128419 38.6 L 88.1 38.6 L 88.1 34.6 L 115.7231707572937 34.6 L 115.8 34.3 L 117.4 25.6 L 118.37297296524048 16.745945930480957 L 118.6 14.4 L 130.3 17.8 L 133.1 20.1 L 129.62831172943115 21.672085285186768 L 128.6 27.6 L 126.81276597976685 34.6 L 162.1 34.6 L 172.1 24.6 L 184.1 34.6 L 184.1 38.6 L 125.65454549789429 38.6 L 123.2 45.8 L 119.5 54.1 L 117.18461542129516 58.3 L 153.8 58.3 L 163.8 48.3 L 175.8 58.3 L 175.8 62.3 L 148.9 62.3 L 148.9 86.9 L 165.1 86.9 L 175.1 76.9 L 187.1 86.9 L 187.1 90.9 L 98.8 90.9 Z " />
</g>
</svg>
