<svg xmlns="http://www.w3.org/2000/svg" xmlns:xlink="http://www.w3.org/1999/xlink" version="1.1" baseProfile="full" viewBox="0 0 200 200" width="200" height="200">
<g fill="black">
<path d="M 160.9 157.5 L 152.9 154.7 L 150.869451713562 153.88250656127929 L 158.0 160.3 L 158.0 164.3 L 133.9285714149475 164.3 L 141.8 171.9 L 142.8 175.3 L 138.15205478668213 174.4986301422119 L 136.5 175.6 L 134.5 176.9 L 132.5 178.1 L 130.4 179.2 L 128.3 180.4 L 126.41818180084229 181.3 L 159.0 181.3 L 169.0 171.3 L 181.0 181.3 L 181.0 185.3 L 22.0 185.3 L 22.0 181.3 L 70.29230766296386 181.3 L 68.3 179.9 L 68.2 178.9 L 67.9 177.8 L 67.5 176.7 L 66.9 175.4 L 66.1 174.0 L 65.1 172.6 L 64.0 171.2 L 62.7 169.6 L 61.3 168.0 L 59.4 166.8 L 60.3 165.2 L 62.3 166.1 L 64.5 166.6 L 66.6 167.1 L 68.6 167.8 L 70.5 168.5 L 72.3 169.3 L 73.9 170.2 L 75.5 171.2 L 77.1 172.3 L 78.5 173.5 L 79.2 178.0 L 76.85526313781739 181.3 L 95.0 181.3 L 95.0 164.3 L 45.0 164.3 L 45.0 160.3 L 95.0 160.3 L 95.0 150.7 L 73.0 150.7 L 73.0 146.91304349899292 L 70.2 148.1 L 60.3 151.7 L 49.8 155.0 L 38.6 158.1 L 26.7 160.9 L 14.2 163.2 L 13.7 161.5 L 25.7 157.2 L 37.0 153.0 L 47.6 148.8 L 57.6 144.6 L 66.8 140.3 L 75.3 135.9 L 83.2 131.4 L 90.3 126.8 L 96.7 122.1 L 101.83333330154419 117.7 L 101.0 117.7 L 101.0 113.7 L 111.7 113.7 L 111.7 79.5 L 103.5 79.5 L 103.5 75.5 L 138.5 75.5 L 138.5 67.1 L 150.5 69.1 L 153.5 71.1 L 150.5 72.9 L 150.5 75.5 L 174.9 75.5 L 179.4 69.5 L 185.4 75.5 L 185.4 79.5 L 172.3 79.5 L 182.2 87.6 L 177.2 91.6 L 177.2 108.2 L 166.2 113.7 L 173.6777777671814 113.7 L 179.9 106.7 L 187.9 113.7 L 187.9 117.7 L 150.5 117.7 L 150.5 125.3 L 138.5 131.3 L 138.5 117.7 L 102.90322580337525 117.7 L 110.0 126.5 L 110.07615127563477 127.18536186218262 L 112.4 128.2 L 126.6 134.2 L 133.8 137.0 L 141.2 139.6 L 148.7 142.0 L 156.3 144.2 L 164.1 146.2 L 172.1 147.9 L 180.3 149.4 L 189.4 151.3 L 177.6 162.4 L 169.2 160.1 Z M 107.0 164.3 L 107.0 181.3 L 121.7 181.3 L 122.2 180.8 L 123.6 178.6 L 125.0 176.6 L 126.3 174.7 L 127.5 172.7 L 129.9 169.1 L 130.9 167.3 L 131.9 165.6 L 132.3160454750061 164.8603636741638 L 132.1 164.7 L 132.4333333015442 164.3 Z M 134.0 146.7 L 134.0 150.7 L 107.0 150.7 L 107.0 160.3 L 139.8181818008423 160.3 L 147.0501296043396 152.3448574066162 L 145.2 151.6 L 137.7 148.3 L 133.2996515274048 146.06968641281128 Z M 103.3 131.3 L 96.0 135.9 L 88.0 140.2 L 79.4 144.2 L 73.50256414413452 146.7 L 115.81818180084228 146.7 L 122.04923601150513 139.84584045410156 L 116.6 136.4 L 110.2 131.8 L 106.89884986877442 128.89051179885865 L 106.73989267349243 128.8355993270874 Z M 106.0 12.6 L 109.0 14.6 L 106.0 16.4 L 106.0 19.1 L 162.6777777671814 19.1 L 168.9 12.1 L 176.9 19.1 L 176.9 23.1 L 151.5222222328186 23.1 L 161.3 31.1 L 156.3 35.1 L 156.3 51.8 L 145.5 57.2 L 171.2 57.2 L 175.7 51.2 L 181.7 57.2 L 181.7 61.2 L 106.0 61.2 L 106.0 68.8 L 95.13333330154418 74.23333330154419 L 96.4 75.5 L 96.4 79.5 L 83.3 79.5 L 93.2 87.6 L 88.2 91.6 L 88.2 108.2 L 77.2 113.7 L 84.6777777671814 113.7 L 90.9 106.7 L 98.9 113.7 L 98.9 117.7 L 61.5 117.7 L 61.5 125.3 L 49.5 131.3 L 49.5 117.7 L 12.0 117.7 L 12.0 113.7 L 22.7 113.7 L 22.7 79.5 L 14.5 79.5 L 14.5 75.5 L 49.5 75.5 L 49.5 67.1 L 61.5 69.1 L 64.5 71.1 L 61.5 72.9 L 61.5 75.5 L 85.9 75.5 L 90.4 69.5 L 94.0 73.1 L 94.0 61.2 L 18.3 61.2 L 18.3 57.2 L 43.6 57.2 L 43.6 23.1 L 23.0 23.1 L 23.0 19.1 L 94.0 19.1 L 94.0 10.6 Z M 123.7 108.2 L 112.7 113.7 L 138.5 113.7 L 138.5 108.2 Z M 150.5 108.2 L 150.5 113.7 L 165.2 113.7 L 165.2 108.2 Z M 34.7 108.2 L 23.7 113.7 L 49.5 113.7 L 49.5 108.2 Z M 61.5 108.2 L 61.5 113.7 L 76.2 113.7 L 76.2 108.2 Z M 123.7 97.7 L 123.7 104.2 L 138.5 104.2 L 138.5 97.7 Z M 150.5 97.7 L 150.5 104.2 L 165.2 104.2 L 165.2 97.7 Z M 34.7 97.7 L 34.7 104.2 L 49.5 104.2 L 49.5 97.7 Z M 61.5 97.7 L 61.5 104.2 L 76.2 104.2 L 76.2 97.7 Z M 123.7 87.6 L 123.7 93.7 L 138.5 93.7 L 138.5 87.6 Z M 150.5 87.6 L 150.5 93.7 L 165.2 93.7 L 165.2 87.6 Z M 34.7 87.6 L 34.7 93.7 L 49.5 93.7 L 49.5 87.6 Z M 61.5 87.6 L 61.5 93.7 L 76.2 93.7 L 76.2 87.6 Z M 115.5 79.5 L 123.7 83.6 L 138.5 83.6 L 138.5 79.5 Z M 150.5 79.5 L 150.5 83.6 L 165.2 83.6 L 170.1199999809265 79.5 Z M 26.5 79.5 L 34.7 83.6 L 49.5 83.6 L 49.5 79.5 Z M 61.5 79.5 L 61.5 83.6 L 76.2 83.6 L 81.11999998092651 79.5 Z M 55.6 51.8 L 44.8 57.2 L 94.0 57.2 L 94.0 51.8 Z M 106.0 51.8 L 106.0 57.2 L 144.3 57.2 L 144.3 51.8 Z M 55.6 41.3 L 55.6 47.8 L 94.0 47.8 L 94.0 41.3 Z M 106.0 41.3 L 106.0 47.8 L 144.3 47.8 L 144.3 41.3 Z M 55.6 31.1 L 55.6 37.3 L 94.0 37.3 L 94.0 31.1 Z M 106.0 31.1 L 106.0 37.3 L 144.3 37.3 L 144.3 31.1 Z M 47.6 23.1 L 55.6 27.1 L 94.0 27.1 L 94.0 23.1 Z M 106.0 23.1 L 106.0 27.1 L 144.3 27.1 L 149.1 23.1 Z " />
</g>
</svg>
