<svg xmlns="http://www.w3.org/2000/svg" xmlns:xlink="http://www.w3.org/1999/xlink" version="1.1" baseProfile="full" viewBox="0 0 200 200" width="200" height="200">
<g fill="black">
<path d="M 101.8 185.6 L 89.8 191.6 L 89.8 138.8 L 87.5 141.1 L 83.5 144.8 L 79.2 148.4 L 74.6 151.8 L 73.3 150.5 L 76.5 145.8 L 79.5 141.3 L 82.4 137.0 L 85.2 132.7 L 87.8 128.5 L 89.8 125.08333330154419 L 89.8 123.8 L 90.46268653869629 123.91044778823853 L 92.4 120.3 L 94.4 116.3 L 96.1 112.4 L 97.7 108.4 L 97.72379913330079 108.41113538742066 L 98.2 107.3 L 108.6 113.5 L 110.5 116.5 L 106.5659728050232 116.97479639053344 L 106.2 117.6 L 103.7 121.6 L 100.9 125.6 L 100.86666669845582 125.6444444656372 L 101.8 125.8 L 103.15 126.7 L 128.23333330154418 126.7 L 128.3 126.6 L 128.9 124.7 L 129.6 122.8 L 130.3 121.0 L 131.0 119.1 L 131.7 117.3 L 132.4 115.4 L 133.2 113.6 L 134.0 111.7 L 134.36928215026856 110.69766273498536 L 134.2 110.6 L 134.65882349014282 109.91176471710205 L 134.7 109.8 L 134.72286376953124 109.81570434570312 L 135.2 109.1 L 144.6 116.6 L 145.9 120.0 L 141.2917808532715 119.68219175338746 L 139.9 120.9 L 136.7 123.5 L 135.1 124.7 L 132.00909090042114 126.7 L 157.5 126.7 L 167.5 116.7 L 179.5 126.7 L 179.5 130.7 L 138.5 130.7 L 138.5 143.7 L 153.61818180084228 143.7 L 161.8 134.7 L 171.8 143.7 L 171.8 147.7 L 138.5 147.7 L 138.5 161.5 L 153.61818180084228 161.5 L 161.8 152.5 L 171.8 161.5 L 171.8 165.5 L 138.5 165.5 L 138.5 178.6 L 163.9 178.6 L 173.9 168.6 L 185.9 178.6 L 185.9 182.6 L 101.8 182.6 Z M 15.6 170.9 L 21.4 169.6 L 27.3 168.3 L 33.2 166.9 L 41.8 164.71355934143065 L 41.8 105.0 L 17.7 105.0 L 17.7 101.0 L 41.8 101.0 L 41.8 73.0 L 30.9 73.0 L 30.9 69.0 L 54.61818180084229 69.0 L 62.8 60.0 L 72.8 69.0 L 72.8 73.0 L 53.8 73.0 L 53.8 101.0 L 59.018181800842285 101.0 L 67.2 92.0 L 77.2 101.0 L 77.2 105.0 L 53.8 105.0 L 53.8 161.55333337783813 L 63.0 159.1 L 69.1 157.5 L 75.4 156.1 L 76.1 157.8 L 70.5 161.1 L 64.9 164.1 L 59.2 166.9 L 53.5 169.4 L 47.7 171.9 L 36.1 176.5 L 30.3 178.6 L 24.5 180.6 L 22.649358463287353 181.20624465942382 L 21.4 184.9 L 18.7 182.5 L 13.7 171.4 Z M 101.8 165.5 L 101.8 178.6 L 126.5 178.6 L 126.5 165.5 Z M 101.8 147.7 L 101.8 161.5 L 126.5 161.5 L 126.5 147.7 Z M 26.1 145.3 L 25.9 142.3 L 25.4 139.3 L 24.8 136.4 L 24.1 133.4 L 23.1 130.4 L 22.0 127.3 L 20.8 124.2 L 19.1 121.3 L 20.5 120.1 L 23.0 122.6 L 25.6 125.0 L 28.0 127.6 L 30.1 130.4 L 32.0 133.4 L 33.7 136.6 L 35.1 139.9 L 36.3 143.3 L 37.3 146.8 L 38.1 150.5 L 36.6 154.8 L 32.6 156.9 L 28.2 155.5 L 26.1 151.4 L 26.2 148.3 Z M 75.2 121.7 L 77.5 124.6 L 73.4115182876587 125.53246068954468 L 72.4 127.7 L 69.2 133.7 L 67.5 136.7 L 65.6 139.6 L 63.7 142.6 L 61.7 145.5 L 59.5 148.4 L 57.4 151.4 L 55.8 150.5 L 56.9 147.1 L 57.7 143.7 L 58.6 140.3 L 59.5 137.0 L 60.3 133.7 L 61.9 127.3 L 62.6 124.2 L 63.2 121.1 L 63.614705848693845 119.0264705657959 L 63.5 119.0 L 64.3 116.5 Z M 101.8 130.7 L 101.8 143.7 L 126.5 143.7 L 126.5 130.7 Z M 186.8 63.2 L 181.8 67.2 L 181.8 107.8 L 169.8 113.8 L 169.8 89.75588235855102 L 167.1 91.9 L 163.6 94.5 L 159.8 96.9 L 155.7 99.1 L 151.4 101.3 L 146.8 103.2 L 142.0 105.0 L 136.8 106.5 L 131.5 107.9 L 130.8 106.3 L 135.4 103.4 L 139.8 100.5 L 143.8 97.7 L 147.7 94.9 L 151.2 92.2 L 154.4 89.5 L 157.4 86.7 L 160.0 84.0 L 162.4 81.3 L 163.86455907821656 79.34725456237793 L 163.8 79.3 L 164.8 78.1 L 169.8 82.87011489868163 L 169.8 73.35862064361572 L 165.87799224853515 72.95289573669433 L 163.8 74.8 L 160.9 77.0 L 157.9 79.2 L 154.6 81.2 L 151.1 83.0 L 147.5 84.8 L 143.6 86.4 L 139.4 87.8 L 135.2 89.3 L 134.4 87.7 L 138.0 85.2 L 141.3 82.5 L 144.4 79.9 L 147.2 77.4 L 149.9 74.9 L 152.2 72.4 L 154.4 69.9 L 156.3 67.5 L 157.9 65.1 L 158.85553541183472 63.63484573364258 L 158.8 63.6 L 159.08571424484253 63.2 L 135.4 63.2 L 130.4 67.2 L 130.4 107.8 L 118.4 113.8 L 118.4 89.8875 L 116.1 91.9 L 112.6 94.4 L 108.8 96.8 L 104.8 99.1 L 100.6 101.2 L 96.0 103.2 L 91.2 105.0 L 86.1 106.5 L 80.7 107.9 L 80.1 106.3 L 84.7 103.4 L 89.0 100.5 L 93.0 97.7 L 96.8 95.0 L 100.3 92.2 L 103.4 89.5 L 106.3 86.8 L 108.8 84.1 L 111.1 81.4 L 112.43879499435425 79.42703895568847 L 112.4 79.4 L 112.8848484992981 78.76969699859619 L 113.0 78.6 L 113.00939865112305 78.60778169631958 L 113.4 78.1 L 118.4 82.7067416191101 L 118.4 73.38965520858764 L 115.0052903175354 72.92141933441162 L 112.8 74.8 L 109.9 77.1 L 106.8 79.2 L 103.6 81.2 L 100.1 83.0 L 96.5 84.8 L 92.6 86.4 L 88.6 87.8 L 84.5 89.3 L 83.7 87.7 L 87.2 85.2 L 90.3 82.5 L 93.4 79.9 L 96.2 77.4 L 98.8 74.9 L 101.2 72.4 L 103.4 69.9 L 105.4 67.5 L 107.1 65.0 L 108.14608297348022 63.430875587463376 L 108.1 63.4 L 108.25384616851807 63.2 L 80.4 63.2 L 80.4 59.2 L 118.4 59.2 L 124.4 54.2 L 131.1 59.68181819915772 L 131.1 59.2 L 169.8 59.2 L 175.8 54.2 Z M 65.0 48.9 L 63.8 46.4 L 62.3 43.9 L 60.6 41.4 L 58.6 38.8 L 56.4 36.2 L 53.9 33.5 L 51.3 30.8 L 49.90642204284668 29.631192684173584 L 48.2 34.2 L 44.9 42.2 L 41.3 50.1 L 37.4 57.7 L 33.2 65.2 L 28.8 72.4 L 24.0 79.4 L 18.8 86.1 L 13.2 92.5 L 11.8 91.4 L 19.4 76.6 L 23.0 69.2 L 26.5 61.7 L 29.7 54.1 L 32.7 46.4 L 35.5 38.6 L 38.1 30.6 L 40.4 22.6 L 42.24487133026123 15.308365821838379 L 42.2 15.3 L 42.9 12.7 L 54.0 17.5 L 56.4 20.2 L 52.801685428619386 21.228089904785158 L 51.3 25.9 L 50.72273483276367 27.445580863952635 L 52.8 28.4 L 56.5 30.0 L 59.9 31.8 L 63.1 33.8 L 66.1 35.9 L 68.8 38.2 L 71.4 40.6 L 73.7 43.2 L 75.8 45.9 L 77.7 48.7 L 77.8 53.3 L 74.8 56.7 L 70.2 56.8 L 66.8 53.7 L 66.0 51.3 Z M 160.9794871330261 63.2 L 169.0 70.0 L 169.8 72.26666669845581 L 169.8 63.2 Z M 110.3375 63.2 L 118.1 70.1 L 118.4 71.02727270126343 L 118.4 63.2 Z M 155.4 13.8 L 158.4 15.8 L 155.4 17.6 L 155.4 30.6 L 166.4 30.6 L 176.4 20.6 L 188.4 30.6 L 188.4 34.6 L 155.4 34.6 L 155.4 48.6 L 143.4 54.6 L 143.4 34.6 L 118.5 34.6 L 118.5 48.6 L 106.5 54.6 L 106.5 34.6 L 73.5 34.6 L 73.5 30.6 L 106.5 30.6 L 106.5 11.8 L 118.5 13.8 L 121.5 15.8 L 118.5 17.6 L 118.5 30.6 L 143.4 30.6 L 143.4 11.8 Z " />
</g>
</svg>
