<svg xmlns="http://www.w3.org/2000/svg" xmlns:xlink="http://www.w3.org/1999/xlink" version="1.1" baseProfile="full" viewBox="0 0 200 200" width="200" height="200">
<g fill="black">
<path d="M 87.4 73.0 L 87.4 77.0 L 58.7 77.0 L 58.7 111.0 L 69.8 111.0 L 79.8 101.0 L 91.8 111.0 L 91.8 115.0 L 58.7 115.0 L 58.7 158.12285718917846 L 59.0 157.9 L 62.6 155.3 L 66.4 152.5 L 70.3 149.7 L 74.4 146.9 L 78.6 144.0 L 83.1 141.1 L 87.7 138.3 L 88.9 139.6 L 85.4 143.9 L 82.0 147.9 L 78.6 151.7 L 75.2 155.4 L 71.9 158.9 L 65.5 165.5 L 62.4 168.6 L 59.5 171.6 L 56.6 174.5 L 56.41538457870483 174.28461542129517 L 50.7 180.0 L 40.7 170.0 L 46.7 164.0 L 46.7 115.0 L 15.3 115.0 L 15.3 111.0 L 46.7 111.0 L 46.7 77.0 L 32.2 77.0 L 32.2 73.0 L 65.4 73.0 L 75.4 63.0 Z M 110.5 155.8 L 108.7 160.5 L 108.4 163.7 L 108.8 165.7 L 110.1 167.3 L 112.9 169.0 L 117.6 170.6 L 124.3 171.6 L 132.8 172.0 L 176.3 172.0 L 182.3 147.0 L 184.3 147.0 L 182.3 172.0 L 185.9 174.4 L 188.3 178.0 L 185.9 181.6 L 182.3 184.0 L 132.8 184.0 L 123.2 183.5 L 114.9 182.3 L 107.9 179.9 L 102.1 176.2 L 98.0 170.9 L 96.4 164.4 L 97.1 157.6 L 99.7 150.6 L 103.9 143.4 L 109.6 135.6 L 145.2991415977478 91.0 L 103.7 91.0 L 103.7 87.0 L 148.6 87.0 L 154.6 82.0 L 165.6 91.0 L 160.6 94.0 L 156.46144828796386 95.72439651489258 L 118.9 143.1 L 113.9 150.0 Z M 132.3 17.5 L 134.7 20.3 L 131.04615383148194 21.2615385055542 L 129.3 26.5 L 126.1 35.2 L 122.6 43.7 L 118.8 51.8 L 118.69873418807984 52.0 L 162.2 52.0 L 172.2 42.0 L 184.2 52.0 L 184.2 56.0 L 116.67341775894165 56.0 L 114.8 59.7 L 110.6 67.4 L 106.1 74.7 L 101.3 81.7 L 96.1 88.3 L 90.5 94.5 L 89.1 93.4 L 92.9 86.2 L 96.7 78.9 L 100.3 71.5 L 103.8 63.9 L 107.2 56.1 L 110.3 48.2 L 113.2 40.0 L 115.9 31.7 L 118.5 23.1 L 120.56163291931152 15.212013149261475 L 120.5 15.2 L 121.2 12.6 Z M 56.4 17.6 L 58.6 20.4 L 55.04771318435669 21.35150537490845 L 53.3 26.2 L 50.0 34.6 L 46.4 42.8 L 46.307499980926515 43.0 L 69.0 43.0 L 79.0 33.0 L 91.0 43.0 L 91.0 47.0 L 44.457499980926514 47.0 L 42.7 50.8 L 38.6 58.5 L 34.4 66.1 L 29.8 73.4 L 25.0 80.4 L 19.8 87.1 L 14.3 93.5 L 12.8 92.4 L 20.4 77.6 L 24.1 70.1 L 27.6 62.5 L 31.0 54.8 L 34.2 47.0 L 37.1 39.0 L 39.9 30.9 L 42.5 22.6 L 44.6404109954834 15.108561611175537 L 44.6 15.1 L 45.3 12.6 Z " />
</g>
</svg>
