<svg xmlns="http://www.w3.org/2000/svg" xmlns:xlink="http://www.w3.org/1999/xlink" version="1.1" baseProfile="full" viewBox="0 0 200 200" width="200" height="200">
<g fill="black">
<path d="M 153.9 175.8 L 167.9 175.8 L 169.1 175.7 L 170.0 175.5 L 170.6 175.4 L 171.0 175.2 L 171.1 175.0 L 171.3 174.8 L 171.5 174.5 L 171.7 173.9 L 171.8 173.0 L 171.9 171.8 L 171.9 138.7 L 156.7 138.7 L 156.7 145.7 L 146.7 150.7 L 146.7 101.0 L 156.7 106.0 L 171.9 106.0 L 177.9 101.0 L 188.9 110.0 L 183.9 114.0 L 183.9 171.8 L 183.7 174.3 L 183.3 176.8 L 182.5 179.2 L 181.3 181.5 L 179.6 183.5 L 177.6 185.2 L 175.3 186.4 L 172.9 187.2 L 170.4 187.6 L 167.9 187.8 L 167.9 181.8 L 153.9 178.8 Z M 65.3 176.3 L 79.3 176.3 L 80.2 176.2 L 80.9 176.1 L 81.5 175.8 L 81.9 175.4 L 82.1 174.9 L 82.3 174.2 L 82.5 173.1 L 82.5 138.7 L 67.1 138.7 L 67.1 145.7 L 57.1 150.7 L 57.1 101.0 L 67.1 106.0 L 82.5 106.0 L 88.0 101.0 L 98.5 110.0 L 93.5 113.5 L 93.5 171.8 L 93.4 174.2 L 93.1 176.5 L 92.4 178.8 L 91.4 180.9 L 90.0 182.9 L 88.2 184.5 L 86.2 185.8 L 83.9 186.7 L 81.6 187.1 L 79.3 187.3 L 79.3 181.8 L 65.3 179.0 Z M 25.9 106.0 L 40.8 106.0 L 45.8 101.0 L 55.8 110.0 L 50.8 113.0 L 50.8 142.7 L 40.8 147.7 L 40.8 138.7 L 25.9 138.7 L 25.9 180.7 L 13.9 186.7 L 13.9 100.0 Z M 114.5 106.0 L 130.2 106.0 L 135.2 101.0 L 145.2 110.0 L 140.2 113.0 L 140.2 142.7 L 130.2 147.7 L 130.2 138.7 L 114.5 138.7 L 114.5 181.0 L 103.5 186.5 L 103.5 100.5 Z M 156.7 124.1 L 156.7 134.7 L 171.9 134.7 L 171.9 124.1 Z M 114.5 124.1 L 114.5 134.7 L 130.2 134.7 L 130.2 124.1 Z M 67.1 124.1 L 67.1 134.7 L 82.5 134.7 L 82.5 124.1 Z M 25.9 124.1 L 25.9 134.7 L 40.8 134.7 L 40.8 124.1 Z M 156.7 110.0 L 156.7 120.1 L 171.9 120.1 L 171.9 110.0 Z M 114.5 110.0 L 114.5 120.1 L 130.2 120.1 L 130.2 110.0 Z M 67.1 110.0 L 67.1 120.1 L 82.5 120.1 L 82.5 110.0 Z M 25.9 110.0 L 25.9 120.1 L 40.8 120.1 L 40.8 110.0 Z M 123.2 85.2 L 143.2 85.2 L 144.4 85.1 L 145.3 85.0 L 145.9 84.8 L 146.3 84.6 L 146.6 84.3 L 146.8 83.9 L 147.0 83.3 L 147.1 82.4 L 147.2 81.2 L 147.2 49.9 L 118.7 49.9 L 118.7 56.9 L 106.7 62.9 L 106.7 12.5 L 118.7 18.5 L 147.2 18.5 L 153.2 13.5 L 164.2 22.5 L 159.2 26.5 L 159.2 81.2 L 159.1 83.7 L 158.6 86.2 L 157.8 88.6 L 156.6 90.9 L 154.9 92.9 L 152.9 94.6 L 150.7 95.8 L 148.3 96.6 L 145.8 97.0 L 143.2 97.2 L 143.2 91.2 L 123.2 88.2 Z M 52.7 18.5 L 81.2 18.5 L 87.2 13.5 L 98.2 22.5 L 93.2 26.5 L 93.2 53.9 L 81.2 59.9 L 81.2 49.9 L 52.7 49.9 L 52.7 90.0 L 40.7 96.0 L 40.7 12.5 Z M 118.7 36.0 L 118.7 45.9 L 147.2 45.9 L 147.2 36.0 Z M 52.7 36.0 L 52.7 45.9 L 81.2 45.9 L 81.2 36.0 Z M 118.7 22.5 L 118.7 32.0 L 147.2 32.0 L 147.2 22.5 Z M 52.7 22.5 L 52.7 32.0 L 81.2 32.0 L 81.2 22.5 Z " />
</g>
</svg>
