<svg xmlns="http://www.w3.org/2000/svg" xmlns:xlink="http://www.w3.org/1999/xlink" version="1.1" baseProfile="full" viewBox="0 0 200 200" width="200" height="200">
<g fill="black">
<path d="M 34.5 25.0 L 77.0 25.0 L 83.0 20.0 L 94.0 29.0 L 89.0 33.0 L 89.0 65.0 L 77.0 71.0 L 77.0 65.0 L 34.5 65.0 L 34.5 183.2 L 23.5 188.7 L 23.5 19.5 Z M 151.0 175.0 L 161.0 175.0 L 162.2 174.9 L 163.1 174.7 L 164.0 174.4 L 164.4 174.0 L 164.7 173.1 L 164.9 172.2 L 165.0 171.0 L 165.0 65.0 L 123.0 65.0 L 123.0 68.0 L 111.0 74.0 L 111.0 19.0 L 123.0 25.0 L 165.0 25.0 L 171.0 20.0 L 182.0 29.0 L 177.0 33.0 L 177.0 171.0 L 176.8 173.5 L 176.4 176.0 L 175.6 178.4 L 174.3 180.7 L 172.7 182.7 L 170.7 184.3 L 168.4 185.6 L 166.0 186.4 L 163.5 186.8 L 161.0 187.0 L 161.0 181.0 L 151.0 178.0 Z M 44.9 174.4 L 64.0 174.4 L 64.0 158.9 L 58.2 158.9 L 58.2 161.9 L 48.2 166.9 L 48.2 128.9 L 58.2 133.9 L 65.0 133.9 L 65.0 122.3 L 45.7 122.3 L 45.7 118.3 L 89.91818180084229 118.3 L 92.98301887512207 114.92867927551269 L 91.2 115.0 L 91.2 109.0 L 83.90318946838379 107.4363977432251 L 81.6 109.6 L 77.9 112.2 L 73.9 114.1 L 69.6 115.5 L 68.9 113.9 L 72.1 111.3 L 74.8 108.4 L 77.1 105.4 L 77.2 105.23999996185303 L 77.2 104.7555555343628 L 74.7 106.7 L 70.2 106.1 L 67.4 102.5 L 67.4 101.10740737915039 L 66.0 102.3 L 63.4 104.3 L 60.9 106.3 L 58.4 108.1 L 53.8 111.3 L 51.7 112.8 L 51.54117650985718 112.90588235855103 L 50.7 117.5 L 47.6 115.5 L 41.0 105.3 L 42.9 104.5 L 45.0 104.0 L 46.6 103.58260869979858 L 46.6 73.7 L 55.68679246902466 78.24339618682862 L 56.4 77.7 L 58.4 76.3 L 60.3 74.9 L 62.1 73.6 L 63.7 72.3 L 65.2 71.1 L 66.6 69.9 L 67.8 68.7 L 68.09868650436401 68.3714448928833 L 67.9 68.1 L 68.12952070236206 68.33752727508545 L 68.8 67.6 L 71.14548244476319 71.45869703292847 L 76.5 77.0 L 76.6 80.4 L 72.3692307472229 78.61862344741822 L 71.3 78.9 L 69.2 79.4 L 67.1 79.8 L 64.9 80.3 L 62.6 80.6 L 60.2 80.9 L 57.7 81.2 L 57.6 81.2074073791504 L 57.6 100.49642858505248 L 57.9 100.4 L 60.9 99.5 L 64.1 98.6 L 67.02513961791992 97.82569828033448 L 66.8 96.7 L 66.3 95.1 L 65.7 93.5 L 64.9 91.8 L 64.0 90.0 L 62.9 88.1 L 61.4 86.7 L 62.4 85.3 L 64.3 86.5 L 66.4 87.3 L 68.4 88.4 L 70.3 89.5 L 72.0 90.8 L 73.7 92.3 L 75.2 93.8 L 76.6 95.5 L 77.8 97.4 L 78.9 99.3 L 78.41739130020142 103.0 L 78.6 103.0 L 79.1 102.2 L 80.7 98.8 L 82.0 95.0 L 83.0 91.0 L 83.8 86.6 L 84.2 81.8 L 84.2 78.9 L 77.8 78.9 L 77.8 74.9 L 99.5 74.9 L 105.5 69.9 L 116.5 78.9 L 115.36363639831544 79.58181819915771 L 123.92162160873413 83.86081085205078 L 126.5 82.5 L 130.0 80.7 L 133.2 79.0 L 136.1 77.4 L 138.8 75.9 L 141.3 74.4 L 143.4 72.9 L 145.3 71.5 L 146.16612644195556 70.79627227783203 L 146.1 70.7 L 146.1822371482849 70.7831823348999 L 146.9 70.2 L 148.71369428634642 73.343736743927 L 154.8 79.5 L 154.9 82.9 L 151.0333333015442 81.3 L 150.5 81.5 L 147.9 82.3 L 145.1 83.1 L 142.0 83.9 L 138.8 84.6 L 135.4 85.3 L 131.7 86.0 L 127.8 86.6 L 124.6 86.91219511032105 L 124.6 112.8 L 140.51818180084229 112.8 L 148.7 103.8 L 158.7 112.8 L 158.7 116.8 L 146.4 116.8 L 146.4 179.2 L 135.4 184.7 L 135.4 116.8 L 124.6 116.8 L 124.6 130.1 L 124.2 137.9 L 123.4 145.3 L 122.2 152.1 L 120.7 158.5 L 118.8 164.3 L 116.5 169.6 L 113.8 174.4 L 110.7 178.5 L 107.2 181.9 L 103.4 184.6 L 102.3 183.4 L 104.6 179.7 L 105.3 178.4 L 44.9 178.4 Z M 73.0 122.3 L 73.0 137.8 L 65.0 141.8 L 65.0 137.9 L 58.2 137.9 L 58.2 154.9 L 64.0 154.9 L 69.0 149.9 L 79.0 158.9 L 74.0 161.9 L 74.0 174.4 L 79.8 174.4 L 79.8 149.9 L 89.8 154.9 L 95.2 154.9 L 95.2 137.9 L 88.6 137.9 L 80.8 141.8 L 80.8 122.3 Z M 93.7 102.8 L 94.7 102.5 L 95.6 102.2 L 97.0 101.2 L 97.6 100.5 L 98.3 99.7 L 98.9 98.7 L 99.3 97.9 L 99.3 97.6 L 99.4 96.5 L 99.5 94.9 L 99.6 92.9 L 99.6 86.85833330154419 L 99.5 86.9 L 99.5 78.9 L 96.04499998092652 78.9 L 95.4 83.2 L 94.1 88.7 L 92.5 93.8 L 90.3 98.5 L 87.8 102.7 L 87.57105264663696 103.0 L 92.5 103.0 Z M 123.0 46.0 L 123.0 61.0 L 165.0 61.0 L 165.0 46.0 Z M 34.5 46.0 L 34.5 61.0 L 77.0 61.0 L 77.0 46.0 Z M 123.0 29.0 L 123.0 42.0 L 165.0 42.0 L 165.0 29.0 Z M 34.5 29.0 L 34.5 42.0 L 77.0 42.0 L 77.0 29.0 Z M 108.2 106.5 L 106.7 108.4 L 104.9 110.2 L 103.0 111.7 L 101.60943393707275 112.45849056243897 L 108.1 118.3 L 108.1 122.3 L 88.8 122.3 L 88.8 133.9 L 95.2 133.9 L 100.2 128.9 L 110.2 137.9 L 105.2 140.9 L 105.2 160.9 L 95.2 165.9 L 95.2 158.9 L 89.8 158.9 L 89.8 174.4 L 94.6777777671814 174.4 L 100.9 167.4 L 107.73636360168457 173.38181819915772 L 108.5 171.6 L 110.0 167.0 L 111.3 162.1 L 112.4 156.6 L 113.1 150.7 L 113.6 144.3 L 113.8 137.5 L 113.6 130.1 L 113.6 80.63999996185302 L 111.53005466461181 81.88196725845337 L 111.6 84.4 L 111.6 93.1 L 111.5 95.3 L 111.4 97.2 L 111.3 98.8 L 111.1 100.3 L 110.6 102.1 L 109.5 104.3 Z " />
</g>
</svg>
