<svg xmlns="http://www.w3.org/2000/svg" xmlns:xlink="http://www.w3.org/1999/xlink" version="1.1" baseProfile="full" viewBox="0 0 200 200" width="200" height="200">
<g fill="black">
<path d="M 35.7 24.8 L 77.1 24.8 L 83.1 19.8 L 94.1 28.8 L 89.1 32.8 L 89.1 77.6 L 77.1 83.6 L 77.1 77.6 L 35.7 77.6 L 35.7 182.0 L 23.7 188.0 L 23.7 18.8 Z M 140.2 175.0 L 161.5 175.0 L 162.4 174.8 L 163.0 174.6 L 163.3 174.4 L 163.5 174.3 L 163.6 174.1 L 163.8 173.8 L 164.0 173.2 L 164.2 172.3 L 164.2 77.6 L 122.8 77.6 L 122.8 80.6 L 110.8 86.6 L 110.8 18.8 L 122.8 24.8 L 164.2 24.8 L 170.2 19.8 L 181.2 28.8 L 176.2 32.8 L 176.2 171.0 L 176.1 173.6 L 175.7 176.1 L 174.9 178.5 L 173.6 180.8 L 172.0 182.8 L 170.0 184.4 L 167.7 185.7 L 165.3 186.5 L 162.8 186.9 L 160.2 187.0 L 160.2 181.0 L 140.2 178.0 Z M 115.9 157.3 L 131.9 157.3 L 133.1 157.2 L 134.0 157.1 L 134.6 156.9 L 134.9 156.7 L 135.1 156.6 L 135.3 156.4 L 135.4 156.0 L 135.6 155.4 L 135.8 154.5 L 135.9 153.3 L 135.9 99.3 L 79.2 99.3 L 79.2 97.83333330154419 L 76.3 101.7 L 72.7 106.3 L 68.8 110.9 L 65.4979866027832 114.44966440200805 L 69.4 115.1 L 72.4 117.1 L 69.4 118.9 L 69.4 161.8 L 57.4 167.8 L 57.4 122.48181819915771 L 56.2 123.6 L 51.6 127.5 L 46.7 131.1 L 41.6 134.5 L 40.4 133.2 L 44.1 128.4 L 47.8 123.7 L 51.4 119.1 L 54.9 114.5 L 58.2 109.8 L 61.4 105.2 L 64.5 100.4 L 67.5 95.7 L 70.3 90.8 L 72.41788082122802 86.80860929489135 L 72.4 86.8 L 73.4 85.0 L 83.2 92.0 L 84.8 95.3 L 142.1777777671814 95.3 L 148.4 88.3 L 156.4 95.3 L 156.4 99.3 L 147.9 99.3 L 147.9 153.3 L 147.7 155.9 L 147.3 158.4 L 146.5 160.8 L 145.2 163.0 L 143.6 165.0 L 141.6 166.7 L 139.3 167.9 L 136.9 168.7 L 134.4 169.2 L 131.9 169.3 L 131.9 163.3 L 115.9 160.3 Z M 94.4 111.3 L 111.4 111.3 L 117.4 106.3 L 128.4 115.3 L 123.4 119.3 L 123.4 145.6 L 111.4 151.6 L 111.4 141.6 L 94.4 141.6 L 94.4 148.6 L 82.4 154.6 L 82.4 105.3 Z M 94.4 115.3 L 94.4 137.6 L 111.4 137.6 L 111.4 115.3 Z M 122.8 52.7 L 122.8 73.6 L 164.2 73.6 L 164.2 52.7 Z M 35.7 52.7 L 35.7 73.6 L 77.1 73.6 L 77.1 52.7 Z M 122.8 28.8 L 122.8 48.7 L 164.2 48.7 L 164.2 28.8 Z M 35.7 28.8 L 35.7 48.7 L 77.1 48.7 L 77.1 28.8 Z " />
</g>
</svg>
