<svg xmlns="http://www.w3.org/2000/svg" xmlns:xlink="http://www.w3.org/1999/xlink" version="1.1" baseProfile="full" viewBox="0 0 200 200" width="200" height="200">
<g fill="black">
<path d="M 35.0 24.0 L 77.0 24.0 L 83.0 19.0 L 94.0 28.0 L 89.0 32.0 L 89.0 73.0 L 77.0 79.0 L 77.0 71.0 L 35.0 71.0 L 35.0 183.0 L 23.0 189.0 L 23.0 18.0 Z M 141.0 176.0 L 161.0 176.0 L 162.2 175.9 L 163.1 175.7 L 164.0 175.4 L 164.4 175.0 L 164.7 174.1 L 164.9 173.2 L 165.0 172.0 L 165.0 71.0 L 123.0 71.0 L 111.0 77.0 L 111.0 18.0 L 123.0 24.0 L 165.0 24.0 L 171.0 19.0 L 182.0 28.0 L 177.0 32.0 L 177.0 172.0 L 176.8 174.5 L 176.4 177.0 L 175.6 179.4 L 174.3 181.7 L 172.7 183.7 L 170.7 185.3 L 168.4 186.6 L 166.0 187.4 L 163.5 187.8 L 161.0 188.0 L 161.0 182.0 L 141.0 179.0 Z M 140.8607843399048 140.93137254714966 L 138.4 142.9 L 138.4 176.2 L 126.4 182.2 L 126.4 172.2 L 70.5 172.2 L 70.5 179.2 L 58.5 185.2 L 58.5 139.0764705657959 L 54.9 140.4 L 47.7 142.6 L 40.0 144.4 L 39.4 142.7 L 46.3 139.1 L 52.7 135.5 L 58.5 132.17213115692138 L 58.5 128.9 L 61.44803152084351 130.37401571273804 L 64.5 128.5 L 69.7 125.0 L 74.6 121.4 L 79.0 117.7 L 83.1 113.9 L 84.66216220855713 112.2 L 41.1 112.2 L 41.1 108.2 L 71.70303030014038 108.2 L 70.2 106.6 L 70.0 104.0 L 69.7 102.7 L 69.2 101.3 L 68.6 99.9 L 67.8 98.5 L 66.9 97.1 L 65.7 95.6 L 64.4 94.0 L 62.6 93.0 L 62.97630062103271 92.13988437652588 L 58.5 92.0 L 48.5 91.5 L 48.5 89.8 L 58.2 88.3 L 67.7 86.9 L 76.9 85.6 L 85.8 84.4 L 94.4 83.2 L 102.7 81.9 L 110.7 80.6 L 118.4 79.2 L 125.8 77.8 L 131.9027630805969 76.51068382263183 L 131.9 76.5 L 131.91092948913575 76.50895853042603 L 132.9 76.3 L 133.10070991516113 77.48418846130372 L 144.1 86.5 L 144.5 89.5 L 139.98977851867676 87.2148211479187 L 134.9 88.1 L 127.6 89.0 L 127.28597631454468 89.03262586593628 L 135.2 95.5 L 136.5 98.9 L 131.87681159973144 98.50144929885865 L 130.3 99.8 L 128.5 101.3 L 126.6 102.8 L 124.6 104.3 L 122.6 105.9 L 120.4 107.4 L 119.11999998092651 108.2 L 133.8 108.2 L 143.8 98.2 L 155.8 108.2 L 155.8 112.2 L 107.10740737915039 112.2 L 108.5 113.0 L 113.0 115.7 L 117.7 118.3 L 122.4 120.8 L 127.2 123.1 L 132.3 125.3 L 137.5 127.2 L 142.9 129.0 L 148.5 130.6 L 154.3 132.0 L 162.3 134.3 L 150.6 144.7 L 144.5 142.5 Z M 70.5 155.3 L 70.5 168.2 L 92.5 168.2 L 92.5 155.3 Z M 104.5 155.3 L 104.5 168.2 L 126.4 168.2 L 126.4 155.3 Z M 70.5 138.9 L 70.5 151.3 L 92.5 151.3 L 92.5 138.9 Z M 104.5 138.9 L 104.5 151.3 L 126.4 151.3 L 126.4 138.9 Z M 104.5 127.9 L 92.5 133.9 L 92.5 120.01739130020141 L 90.1 122.0 L 85.2 125.6 L 79.9 129.0 L 74.2 132.2 L 69.61239671707153 134.45619831085205 L 70.5 134.9 L 126.4 134.9 L 127.29862384796142 134.15114679336548 L 122.7 131.3 L 117.9 127.9 L 113.5 124.2 L 109.4 120.3 L 105.7 116.1 L 104.5 114.31935482025146 Z M 86.5 92.0 L 77.4 92.2 L 68.1 92.3 L 66.0471697807312 92.23584909439087 L 67.5 92.5 L 69.6 93.1 L 71.6 93.9 L 73.5 94.8 L 75.4 96.0 L 77.1 97.3 L 78.7 98.8 L 80.1 100.5 L 81.4 102.4 L 81.2 107.0 L 79.92258062362671 108.2 L 92.5 108.2 L 92.5 91.7241379737854 Z M 119.9 89.8 L 112.0 90.5 L 104.5 91.04216871261596 L 104.5 108.2 L 115.71818180084229 108.2 L 116.3 107.4 L 117.5 104.9 L 119.9 100.3 L 121.0 98.2 L 122.0 96.1 L 122.9 94.1 L 123.8 92.2 L 124.6 90.3 L 124.97517728805542 89.50274820327759 L 124.8 89.4 L 124.88659791946411 89.28191194534301 Z M 123.0 49.0 L 123.0 67.0 L 165.0 67.0 L 165.0 49.0 Z M 35.0 49.0 L 35.0 67.0 L 77.0 67.0 L 77.0 49.0 Z M 123.0 28.0 L 123.0 45.0 L 165.0 45.0 L 165.0 28.0 Z M 35.0 28.0 L 35.0 45.0 L 77.0 45.0 L 77.0 28.0 Z " />
</g>
</svg>
