<svg xmlns="http://www.w3.org/2000/svg" xmlns:xlink="http://www.w3.org/1999/xlink" version="1.1" baseProfile="full" viewBox="0 0 200 200" width="200" height="200">
<g fill="black">
<path d="M 35.0 24.0 L 77.0 24.0 L 83.0 19.0 L 94.0 28.0 L 89.0 32.0 L 89.0 71.0 L 77.0 77.0 L 77.0 71.0 L 35.0 71.0 L 35.0 183.0 L 23.0 189.0 L 23.0 18.0 Z M 141.0 176.0 L 161.0 176.0 L 162.2 175.9 L 163.1 175.7 L 164.0 175.4 L 164.4 175.0 L 164.7 174.1 L 164.9 173.2 L 165.0 172.0 L 165.0 71.0 L 123.0 71.0 L 123.0 74.0 L 111.0 80.0 L 111.0 18.0 L 123.0 24.0 L 165.0 24.0 L 171.0 19.0 L 182.0 28.0 L 177.0 32.0 L 177.0 172.0 L 176.8 174.5 L 176.4 177.0 L 175.6 179.4 L 174.3 181.7 L 172.7 183.7 L 170.7 185.3 L 168.4 186.6 L 166.0 187.4 L 163.5 187.8 L 161.0 188.0 L 161.0 182.0 L 141.0 179.0 Z M 143.6 170.7 L 141.7 172.1 L 139.6 173.3 L 137.5 174.3 L 135.3 175.1 L 133.0 175.8 L 130.7 176.2 L 128.3 176.5 L 125.9 176.6 L 125.9 170.6 L 105.9 167.6 L 105.9 164.6 L 125.9 164.6 L 128.9 164.4 L 130.3 164.1 L 131.5 163.7 L 132.8 163.3 L 134.0 162.7 L 135.2 162.0 L 136.3 161.2 L 137.4 160.3 L 137.95 159.75 L 138.1 159.0 L 138.3 157.3 L 138.4 155.2 L 138.5 152.5 L 138.5 149.4 L 138.4311212539673 146.9203660964966 L 138.0 147.1 L 138.0 139.1 L 73.8 139.1 L 61.8 145.1 L 61.8 84.0 L 73.8 90.0 L 88.42666664123536 90.0 L 88.6 89.8 L 89.3 87.9 L 91.7 82.5 L 93.3 79.1 L 94.0 77.4 L 94.8 75.8 L 95.09398641586304 75.12803106307983 L 94.9 75.0 L 95.9 73.6 L 104.9 81.6 L 106.0 85.0 L 101.15120000839234 84.41479997634887 L 95.5 88.3 L 93.7 89.3 L 92.51000003814697 90.0 L 121.8 90.0 L 127.8 85.0 L 138.8 94.0 L 133.8 98.0 L 133.8 113.2 L 121.8 119.2 L 121.8 112.7 L 73.8 112.7 L 73.8 122.4 L 140.5777777671814 122.4 L 146.8 115.4 L 154.8 122.4 L 154.8 126.4 L 73.8 126.4 L 73.8 135.1 L 138.0 135.1 L 144.0 130.1 L 155.0 139.1 L 150.3145540237427 141.91126756668092 L 150.4 145.5 L 150.5 149.3 L 150.5 152.7 L 150.4 155.7 L 150.2 158.4 L 149.9 160.8 L 149.5 163.0 L 148.8 165.1 L 147.2 167.5 L 145.4 169.2 Z M 42.9 168.3 L 42.3 163.8 L 45.0 160.1 L 46.5 159.5 L 48.0 158.8 L 49.3 157.9 L 50.6 156.7 L 51.8 155.3 L 52.9 153.5 L 53.9 151.4 L 54.8 148.9 L 55.5 146.2 L 55.5 143.1 L 57.3 142.9 L 57.8 146.1 L 58.6 149.1 L 59.0 152.1 L 59.0 155.0 L 58.7 157.9 L 58.0 160.7 L 56.9 163.4 L 55.4 165.9 L 53.4 168.2 L 51.1 170.3 L 46.6 171.0 Z M 93.4 155.3 L 92.9 153.9 L 92.3 152.4 L 91.6 150.9 L 90.6 149.3 L 89.4 147.7 L 87.8 146.6 L 88.6 145.0 L 90.5 145.9 L 92.6 146.5 L 94.6 147.2 L 96.5 148.2 L 98.3 149.3 L 100.0 150.5 L 101.5 152.0 L 102.9 153.7 L 104.2 155.5 L 105.3 157.5 L 104.5 162.0 L 100.9 164.7 L 96.4 164.0 L 93.6 160.3 L 93.8 157.9 Z M 74.3 168.0 L 70.8 165.0 L 70.4 160.4 L 71.1 159.6 L 71.7 158.7 L 72.2 157.7 L 72.7 156.5 L 73.0 155.2 L 73.1 153.7 L 73.1 152.1 L 73.0 150.3 L 72.7 148.4 L 71.7 146.6 L 73.1 145.6 L 74.4 147.3 L 76.0 148.7 L 77.5 150.2 L 78.8 151.9 L 79.8 153.6 L 80.7 155.5 L 81.4 157.5 L 81.8 159.6 L 81.9 161.8 L 81.8 164.1 L 78.8 167.5 Z M 115.0 155.4 L 114.7 154.2 L 114.3 153.0 L 113.6 151.7 L 112.6 150.4 L 111.5 149.0 L 110.2 147.5 L 108.7 145.9 L 106.8 144.9 L 107.5 143.2 L 109.6 144.0 L 111.9 144.4 L 114.0 144.9 L 116.0 145.5 L 118.0 146.2 L 119.8 147.1 L 121.5 148.1 L 123.1 149.3 L 124.6 150.6 L 125.9 152.2 L 126.1 156.7 L 123.0 160.1 L 118.4 160.2 L 115.0 157.2 L 115.1 156.3 Z M 73.8 94.0 L 73.8 108.7 L 121.8 108.7 L 121.8 94.0 Z M 123.0 49.0 L 123.0 67.0 L 165.0 67.0 L 165.0 49.0 Z M 35.0 49.0 L 35.0 67.0 L 77.0 67.0 L 77.0 49.0 Z M 123.0 28.0 L 123.0 45.0 L 165.0 45.0 L 165.0 28.0 Z M 35.0 28.0 L 35.0 45.0 L 77.0 45.0 L 77.0 28.0 Z " />
</g>
</svg>
