<svg xmlns="http://www.w3.org/2000/svg" xmlns:xlink="http://www.w3.org/1999/xlink" version="1.1" baseProfile="full" viewBox="0 0 200 200" width="200" height="200">
<g fill="black">
<path d="M 167.8 175.1 L 166.45163269042968 172.47817468643188 L 160.9 174.1 L 152.5 176.3 L 144.5 178.3 L 137.0 180.1 L 129.9 181.7 L 123.2 183.1 L 117.0 184.4 L 111.3 185.6 L 106.0 186.6 L 105.27613639831543 186.74772729873658 L 103.5 190.3 L 101.1 187.6 L 97.7 175.9 L 99.7 175.7 L 104.5 175.4 L 109.8 175.0 L 115.6 174.5 L 116.76823148727416 174.38694534301757 L 116.8 174.3 L 118.9 169.1 L 121.0 164.0 L 127.3 148.4 L 129.3 143.1 L 131.3 137.7 L 133.2 132.2 L 134.70497331619262 127.60147037506104 L 134.7 127.6 L 134.73333330154418 127.51481485366821 L 135.0 126.7 L 135.04535942077638 126.7174147605896 L 135.6 125.3 L 146.2 131.0 L 148.3 134.0 L 144.53622179031373 134.66031198501588 L 143.7 136.5 L 141.2 141.9 L 138.5 147.1 L 135.7 152.3 L 132.9 157.4 L 129.9 162.3 L 126.8 167.1 L 123.6 171.8 L 121.93932418823242 173.88770666122437 L 128.6 173.3 L 135.8 172.6 L 143.4 171.8 L 151.6 171.0 L 160.3 170.3 L 165.12170352935792 169.98208551406861 L 164.1 168.1 L 162.0 164.6 L 159.7 161.0 L 157.4 157.3 L 154.9 153.5 L 152.1 149.7 L 153.4 148.4 L 157.2 151.2 L 160.9 154.0 L 164.4 157.0 L 167.6 160.1 L 170.6 163.3 L 173.5 166.6 L 176.1 170.0 L 178.6 173.5 L 180.9 177.0 L 183.0 180.7 L 183.0 185.2 L 179.9 188.6 L 175.3 188.6 L 172.0 185.5 L 170.8 182.1 Z M 71.4 131.3 L 70.1 133.5 L 68.6 135.5 L 66.7 137.2 L 64.7 138.6 L 62.4 139.7 L 60.0 140.4 L 57.5 140.8 L 55.0 141.0 L 54.94987468719482 134.98496236801148 L 45.0 132.0 L 45.0 129.0 L 54.9 129.0 L 56.2 128.9 L 57.3 128.7 L 58.1 128.5 L 58.8 128.2 L 59.3 127.8 L 59.7 127.4 L 60.2 126.8 L 60.6 126.1 L 61.0 125.1 L 61.3 123.9 L 62.4 119.6 L 62.9 115.2 L 62.9 110.8 L 62.3 106.4 L 61.2 101.7 L 59.6 97.0 L 57.3 92.1 L 54.4 87.1 L 51.0 81.8 L 47.0 76.3 L 47.2 76.1 L 46.2 75.5 L 48.8 69.6 L 51.4 64.0 L 53.9 58.6 L 56.3 53.5 L 58.4 48.5 L 60.4 43.7 L 62.2 39.0 L 63.8 34.5 L 65.1 30.2 L 65.15853662490845 30.0 L 35.0 30.0 L 35.0 183.0 L 23.0 189.0 L 23.0 20.0 L 35.0 26.0 L 66.0 26.0 L 72.0 21.0 L 83.0 30.0 L 78.0 33.0 L 75.93972606658936 33.85844745635986 L 75.8 34.2 L 73.7 38.6 L 71.3 43.2 L 68.8 47.7 L 66.0 52.4 L 62.9 57.1 L 59.6 61.9 L 56.0 66.8 L 52.0 71.6 L 48.68843908309937 75.29662618637084 L 53.8 79.2 L 58.7 83.8 L 62.8 88.5 L 66.3 93.5 L 69.1 98.6 L 71.3 104.0 L 72.8 109.4 L 73.6 115.0 L 73.7 120.8 L 73.0 126.5 L 72.3 129.0 Z M 125.9 90.8 L 128.5 93.3 L 125.02898607254028 94.5855607032776 L 123.3 102.1 L 120.1 113.1 L 160.6 113.1 L 170.6 103.1 L 182.6 113.1 L 182.6 117.1 L 118.66603775024414 117.1 L 116.3 123.7 L 112.1 134.0 L 107.2 143.9 L 101.9 153.4 L 96.0 162.5 L 89.5 171.2 L 82.4 179.4 L 74.7 187.0 L 73.4 185.8 L 79.5 177.0 L 85.1 168.1 L 90.4 159.0 L 95.2 149.8 L 99.6 140.2 L 103.5 130.5 L 106.8 120.4 L 107.7611650466919 117.1 L 77.3 117.1 L 77.3 113.1 L 108.92621355056762 113.1 L 109.8 110.1 L 112.2 99.5 L 113.92524795532226 89.60252475738525 L 113.9 89.6 L 114.06310682296753 88.81165046691895 L 114.1 88.6 L 114.10664043426513 88.60123805999756 L 114.5 86.7 Z M 162.3 87.6 L 154.5 83.3 L 146.9 78.3 L 139.8 72.6 L 132.94448232650757 66.34061431884766 L 131.2 68.0 L 122.5 75.0 L 113.5 81.2 L 104.1 86.5 L 94.3 90.9 L 84.1 94.4 L 73.7 96.8 L 73.1 95.1 L 82.8 90.8 L 92.0 86.0 L 100.8 80.8 L 109.2 74.9 L 117.2 68.4 L 124.8 61.2 L 126.47715129852295 59.38308601379394 L 126.4 59.3 L 120.3 51.7 L 114.7 43.4 L 111.73405456542969 38.10782289505005 L 110.6 39.6 L 106.5 44.3 L 102.2 48.8 L 97.7 53.0 L 92.9 56.9 L 87.8 60.5 L 82.4 63.7 L 81.3 62.2 L 85.3 57.6 L 89.2 53.0 L 92.9 48.5 L 96.5 43.8 L 99.9 39.0 L 103.0 34.2 L 106.0 29.2 L 108.8 24.0 L 111.3 18.7 L 113.3 14.2 L 114.2 12.1 L 124.6 18.4 L 126.4 21.5 L 122.60418844223022 21.892670154571533 L 121.4 24.0 L 119.51111106872558 27.0 L 150.6 27.0 L 150.9301037788391 26.7249135017395 L 151.5 25.8 L 151.81013517379762 25.991554069519044 L 156.6 22.0 L 167.6 31.0 L 162.6 34.0 L 159.4830626487732 35.29872388839722 L 154.7 42.2 L 147.3 51.6 L 139.4 60.2 L 139.0691764831543 60.51468572616577 L 145.5 65.2 L 152.6 69.7 L 159.8 73.6 L 167.2 76.9 L 174.7 79.5 L 182.4 81.6 L 190.6 83.8 L 178.9 94.3 L 170.5 91.3 Z M 116.89230766296387 31.0 L 114.4 34.6 L 113.44819049835205 35.85238094329834 L 118.0 40.8 L 124.8 47.8 L 131.37115383148193 54.08125 L 132.0 53.4 L 138.9 44.9 L 145.4 35.7 L 148.29595956802368 31.0 Z " />
</g>
</svg>
