<svg xmlns="http://www.w3.org/2000/svg" xmlns:xlink="http://www.w3.org/1999/xlink" version="1.1" baseProfile="full" viewBox="0 0 200 200" width="200" height="200">
<g fill="black">
<path d="M 69.7 131.3 L 68.5 133.5 L 67.0 135.5 L 65.1 137.2 L 63.0 138.6 L 60.8 139.7 L 58.4 140.4 L 55.9 140.8 L 53.3 141.0 L 53.3 135.0 L 43.3 132.0 L 43.3 129.0 L 53.3 129.0 L 54.6 128.9 L 55.7 128.7 L 56.5 128.5 L 57.1 128.2 L 58.1 127.4 L 58.5 126.9 L 58.9 126.1 L 59.3 125.1 L 59.6 123.9 L 60.7 119.6 L 61.2 115.2 L 61.2 110.8 L 60.7 106.3 L 59.6 101.7 L 58.0 97.0 L 55.8 92.1 L 53.0 87.0 L 49.7 81.8 L 45.9 76.3 L 46.05445547103882 76.1326732635498 L 45.0 75.5 L 47.6 69.6 L 50.1 64.0 L 52.5 58.7 L 54.8 53.5 L 56.9 48.5 L 58.8 43.7 L 60.5 39.1 L 62.0 34.6 L 63.3 30.3 L 63.37857141494751 30.0 L 34.2 30.0 L 34.2 183.0 L 22.2 189.0 L 22.2 20.0 L 34.2 26.0 L 64.2 26.0 L 70.2 21.0 L 81.2 30.0 L 76.2 33.0 L 74.14919166564941 33.85450344085693 L 74.0 34.2 L 72.0 38.6 L 69.7 43.1 L 67.2 47.7 L 64.4 52.4 L 61.4 57.1 L 58.2 61.9 L 54.7 66.8 L 50.8 71.6 L 47.481805896759035 75.30403060913086 L 52.5 79.3 L 57.3 83.8 L 61.3 88.6 L 64.7 93.5 L 67.5 98.7 L 69.7 104.0 L 71.1 109.4 L 71.9 115.0 L 72.0 120.7 L 71.4 126.5 L 70.7 129.0 Z M 166.4 167.5 L 160.9 162.2 L 155.9 156.6 L 151.2 150.7 L 147.0 144.6 L 143.1 138.1 L 139.7 131.5 L 136.8 124.5 L 136.0 121.96086959838867 L 136.0 183.0 L 124.0 189.0 L 124.0 131.16363639831542 L 122.4 134.0 L 117.4 141.4 L 111.8 148.4 L 105.6 155.1 L 98.7 161.3 L 91.3 167.1 L 83.3 172.5 L 74.7 177.4 L 65.4 181.7 L 64.5 180.2 L 72.6 174.2 L 80.2 168.2 L 87.2 162.1 L 93.6 155.8 L 99.3 149.3 L 104.5 142.7 L 109.1 135.8 L 113.1 128.7 L 116.5 121.4 L 117.6962963104248 118.0 L 76.0 118.0 L 76.0 114.0 L 124.0 114.0 L 124.0 90.0 L 98.0 90.0 L 98.0 97.0 L 86.0 103.0 L 86.0 21.0 L 98.0 27.0 L 162.0 27.0 L 168.0 22.0 L 179.0 31.0 L 174.0 35.0 L 174.0 94.0 L 162.0 100.0 L 162.0 90.0 L 136.0 90.0 L 136.0 114.0 L 165.0 114.0 L 175.0 104.0 L 187.0 114.0 L 187.0 118.0 L 137.25737705230713 118.0 L 140.5 122.6 L 144.8 128.5 L 149.1 134.1 L 153.6 139.5 L 158.4 144.7 L 163.3 149.5 L 168.5 154.2 L 174.0 158.5 L 179.7 162.6 L 185.7 166.5 L 189.3 168.9 L 178.2 177.4 L 172.1 172.6 Z M 98.0 61.0 L 98.0 86.0 L 124.0 86.0 L 124.0 61.0 Z M 136.0 61.0 L 136.0 86.0 L 162.0 86.0 L 162.0 61.0 Z M 98.0 31.0 L 98.0 57.0 L 124.0 57.0 L 124.0 31.0 Z M 136.0 31.0 L 136.0 57.0 L 162.0 57.0 L 162.0 31.0 Z " />
</g>
</svg>
