<svg xmlns="http://www.w3.org/2000/svg" xmlns:xlink="http://www.w3.org/1999/xlink" version="1.1" baseProfile="full" viewBox="0 0 200 200" width="200" height="200">
<g fill="black">
<path d="M 54.9 131.0 L 53.8 133.2 L 52.3 135.3 L 50.5 137.1 L 48.4 138.5 L 46.2 139.6 L 43.7 140.4 L 41.3 140.8 L 38.7 141.0 L 38.7 135.0 L 30.7 132.0 L 30.7 129.0 L 38.7 129.0 L 40.0 128.9 L 41.0 128.7 L 41.8 128.5 L 42.8 127.9 L 43.1 127.5 L 43.5 127.0 L 43.9 126.3 L 44.2 125.3 L 44.5 124.1 L 45.3 119.6 L 45.8 115.1 L 45.9 110.6 L 45.6 106.0 L 44.8 101.4 L 43.7 96.6 L 42.1 91.8 L 40.1 86.8 L 37.8 81.7 L 35.1 76.3 L 35.40132446289063 76.06324501037598 L 34.4 75.5 L 36.1 69.8 L 37.8 64.3 L 39.5 59.0 L 41.2 53.9 L 42.7 48.9 L 44.1 44.1 L 45.3 39.5 L 46.4 35.0 L 47.3 30.7 L 47.43333330154419 30.0 L 27.7 30.0 L 27.7 183.0 L 15.7 189.0 L 15.7 20.0 L 27.7 26.0 L 48.0 26.0 L 54.0 21.0 L 65.0 30.0 L 60.0 33.0 L 58.33642387390137 33.693156719207764 L 58.3 33.8 L 56.6 38.2 L 54.8 42.7 L 52.8 47.3 L 50.6 52.0 L 48.2 56.8 L 45.6 61.6 L 42.7 66.5 L 39.5 71.4 L 36.70188932418823 75.39730091094971 L 40.9 79.5 L 44.8 84.1 L 48.0 88.9 L 50.7 93.9 L 53.0 99.0 L 54.7 104.2 L 55.9 109.6 L 56.6 115.0 L 56.7 120.5 L 56.3 126.1 L 55.7 128.6 Z M 143.3 182.7 L 128.0 179.8 L 114.9 174.9 L 103.7 168.1 L 94.4 159.4 L 91.77341775894165 155.72278480529786 L 90.6 158.2 L 85.3 166.8 L 79.3 174.4 L 72.7 181.1 L 65.3 186.6 L 64.2 185.3 L 69.9 178.5 L 75.1 171.2 L 79.7 163.3 L 83.7 154.8 L 86.38922853469849 147.80800580978394 L 81.1 136.5 L 76.6 122.3 L 73.2 106.1 L 75.0 105.7 L 80.5 121.0 L 86.5 134.1 L 89.24807214736938 138.70830554962157 L 90.1 135.8 L 92.4 125.2 L 94.2 113.8 L 95.3 101.6 L 95.7930233001709 91.0 L 83.64211435317993 91.0 L 83.1 92.7 L 69.8 94.7 L 89.23772649765014 36.0 L 65.5 36.0 L 65.5 32.0 L 90.3 32.0 L 96.3 27.0 L 107.3 36.0 L 102.3 39.0 L 99.90639572143554 39.99733514785767 L 84.91767768859863 87.0 L 95.9 87.0 L 101.9 82.0 L 112.9 91.0 L 107.9 94.0 L 107.35307693481445 94.22788457870483 L 106.6 102.7 L 104.8 115.4 L 102.2 127.3 L 99.0 138.4 L 95.432541847229 147.82174854278566 L 100.5 153.7 L 109.0 160.5 L 119.0 165.6 L 130.7 169.0 L 144.5 171.0 L 160.8 171.4 L 179.8 170.4 L 190.7 169.6 L 180.7 183.5 L 160.8 184.0 Z M 106.6 150.1 L 117.2 150.1 L 117.2 90.8 L 129.2 92.8 L 132.2 94.8 L 129.2 96.6 L 129.2 150.1 L 141.5 150.1 L 141.5 63.2 L 109.0 63.2 L 109.0 59.2 L 141.5 59.2 L 141.5 33.694117641448976 L 140.9 33.8 L 133.9 34.9 L 126.6 35.7 L 119.2 36.3 L 111.5 36.5 L 111.2 34.8 L 118.5 32.5 L 125.6 30.4 L 132.5 28.4 L 139.1 26.4 L 145.6 24.4 L 151.8 22.3 L 157.7 20.2 L 163.5 18.0 L 169.0 15.8 L 173.30615558624268 13.812543582916259 L 173.3 13.8 L 173.3114577293396 13.81009645462036 L 174.2 13.4 L 174.9168740272522 15.224770164489746 L 183.4 22.7 L 183.6 25.9 L 179.63295850753784 24.191120624542236 L 178.6 24.6 L 172.9 26.5 L 166.9 28.2 L 160.7 29.8 L 154.3 31.3 L 153.5 31.457575798034668 L 153.5 59.2 L 163.9 59.2 L 173.9 49.2 L 185.9 59.2 L 185.9 63.2 L 153.5 63.2 L 153.5 102.5 L 163.1777777671814 102.5 L 169.4 95.5 L 177.4 102.5 L 177.4 106.5 L 153.5 106.5 L 153.5 150.1 L 166.3 150.1 L 176.3 140.1 L 188.3 150.1 L 188.3 154.1 L 106.6 154.1 Z " />
</g>
</svg>
