<svg xmlns="http://www.w3.org/2000/svg" xmlns:xlink="http://www.w3.org/1999/xlink" version="1.1" baseProfile="full" viewBox="0 0 200 200" width="200" height="200">
<g fill="black">
<path d="M 36.3 117.0 L 74.7 117.0 L 80.7 112.0 L 91.7 121.0 L 86.7 125.0 L 86.7 176.6 L 74.7 182.6 L 74.7 170.6 L 36.3 170.6 L 36.3 182.6 L 24.3 188.6 L 24.3 111.0 Z M 119.9 181.0 L 107.9 187.0 L 107.9 67.93636360168458 L 106.0 70.7 L 101.5 76.7 L 96.6 82.3 L 91.4 87.5 L 91.24123706817628 87.37525777816772 L 91.9 88.4 L 94.2 92.8 L 94.2 97.4 L 91.0 100.7 L 86.4 100.6 L 83.1 97.4 L 81.7 93.4 L 80.0 89.5 L 78.1 85.8 L 76.0 82.2 L 73.6 78.7 L 71.0 75.3 L 68.1 72.0 L 65.0 68.8 L 61.6 65.6 L 61.5 65.51388893127441 L 61.5 107.2 L 49.5 113.2 L 49.5 70.0 L 48.3 72.3 L 44.4 79.0 L 40.2 85.4 L 35.6 91.5 L 30.7 97.4 L 25.4 102.9 L 19.8 108.1 L 13.7 112.8 L 12.5 111.5 L 17.0 105.5 L 21.3 99.4 L 25.5 93.4 L 29.4 87.2 L 33.0 80.9 L 36.3 74.4 L 39.3 67.8 L 42.1 61.1 L 44.6 54.2 L 45.932394409179686 49.9 L 16.1 49.9 L 16.1 45.9 L 49.5 45.9 L 49.5 15.3 L 61.5 17.3 L 64.5 19.3 L 61.5 21.1 L 61.5 45.9 L 72.9 45.9 L 82.9 35.9 L 94.9 45.9 L 94.9 49.9 L 61.5 49.9 L 61.5 61.9340425491333 L 63.5 62.7 L 67.9 64.7 L 72.1 67.2 L 76.0 70.0 L 79.7 73.1 L 83.1 76.6 L 86.3 80.2 L 89.2 84.2 L 90.28476819992065 85.88741722106934 L 93.5 80.1 L 97.0 73.7 L 100.4 67.3 L 103.8 60.6 L 106.9 53.7 L 107.9 51.44193544387817 L 107.9 50.0 L 108.42280702590942 50.261403465270995 L 110.0 46.7 L 112.8 39.4 L 115.5 31.9 L 118.1 24.1 L 120.13870391845703 17.00885601043701 L 120.1 17.0 L 120.9 14.5 L 131.9 19.7 L 134.1 22.5 L 130.50792455673218 23.382264137268066 L 128.8 27.9 L 125.5 35.7 L 122.1 43.3 L 118.4 50.6 L 116.37374305725098 54.236871528625485 L 119.9 56.0 L 142.32173910140992 56.0 L 143.4 52.9 L 144.9 48.3 L 146.4 44.0 L 147.9 39.9 L 149.4 35.9 L 150.7 32.1 L 152.0 28.4 L 153.3 24.9 L 154.4 21.6 L 155.18079385757446 19.328599643707275 L 155.1 19.3 L 156.0 17.2 L 166.4 23.3 L 168.3 26.4 L 164.34069766998292 26.886230087280275 L 162.8 29.4 L 160.9 32.7 L 158.8 36.0 L 156.6 39.5 L 154.3 43.1 L 151.8 46.7 L 149.2 50.5 L 146.3 54.4 L 145.13999996185302 56.0 L 162.6 56.0 L 172.6 46.0 L 184.6 56.0 L 184.6 60.0 L 153.0 60.0 L 153.0 92.0 L 160.8 92.0 L 170.8 82.0 L 182.8 92.0 L 182.8 96.0 L 153.0 96.0 L 153.0 129.0 L 160.8 129.0 L 170.8 119.0 L 182.8 129.0 L 182.8 133.0 L 153.0 133.0 L 153.0 170.0 L 166.2 170.0 L 176.2 160.0 L 188.2 170.0 L 188.2 174.0 L 119.9 174.0 Z M 119.9 133.0 L 119.9 170.0 L 141.0 170.0 L 141.0 133.0 Z M 36.3 121.0 L 36.3 166.6 L 74.7 166.6 L 74.7 121.0 Z M 119.9 96.0 L 119.9 129.0 L 141.0 129.0 L 141.0 96.0 Z M 119.9 60.0 L 119.9 92.0 L 141.0 92.0 L 141.0 60.0 Z " />
</g>
</svg>
