<svg xmlns="http://www.w3.org/2000/svg" xmlns:xlink="http://www.w3.org/1999/xlink" version="1.1" baseProfile="full" viewBox="0 0 200 200" width="200" height="200">
<g fill="black">
<path d="M 67.2 33.0 L 65.34770641326904 33.77178897857666 L 65.3 33.9 L 63.5 38.4 L 61.4 42.9 L 59.2 47.5 L 56.7 52.2 L 54.1 56.9 L 51.2 61.7 L 48.0 66.6 L 44.5 71.5 L 41.50237922668457 75.36535320281982 L 46.1 79.4 L 50.3 84.0 L 53.9 88.7 L 57.0 93.7 L 59.4 98.8 L 61.3 104.1 L 62.7 109.5 L 63.4 115.0 L 63.5 120.6 L 63.0 126.3 L 62.4 128.8 L 61.5 131.1 L 60.3 133.3 L 58.8 135.4 L 57.0 137.1 L 54.9 138.6 L 52.6 139.7 L 50.2 140.4 L 47.8 140.8 L 45.2 141.0 L 45.2 135.0 L 35.2 132.0 L 35.2 129.0 L 45.2 129.0 L 46.5 128.9 L 47.5 128.7 L 48.3 128.5 L 48.9 128.2 L 49.4 127.9 L 49.8 127.5 L 50.2 126.9 L 50.5 126.2 L 50.9 125.2 L 51.2 124.0 L 52.2 119.6 L 52.6 115.2 L 52.7 110.7 L 52.3 106.2 L 51.4 101.5 L 50.0 96.8 L 48.2 91.9 L 45.8 86.9 L 43.1 81.7 L 39.9 76.3 L 40.13559865951538 76.08252429962158 L 39.1 75.5 L 41.2 69.7 L 43.3 64.2 L 45.3 58.8 L 47.2 53.7 L 49.0 48.7 L 50.6 43.9 L 52.1 39.3 L 53.3 34.8 L 54.4 30.5 L 54.51904764175415 30.0 L 30.6 30.0 L 30.6 183.0 L 18.6 189.0 L 18.6 20.0 L 30.6 26.0 L 55.2 26.0 L 61.2 21.0 L 71.1 29.1 L 71.1 29.0 L 83.1 35.0 L 120.8 35.0 L 120.8 12.0 L 132.8 14.0 L 135.8 16.0 L 132.8 17.8 L 132.8 35.0 L 166.8181818008423 35.0 L 175.0 26.0 L 185.0 35.0 L 185.0 39.0 L 83.1 39.0 L 83.1 102.0 L 82.6 113.6 L 81.7 124.7 L 80.5 135.1 L 78.8 144.9 L 76.8 154.0 L 74.4 162.6 L 71.5 170.4 L 68.2 177.5 L 64.4 183.9 L 60.1 189.4 L 58.6 188.5 L 61.0 182.2 L 63.3 175.5 L 65.3 168.3 L 67.0 160.6 L 68.5 152.4 L 69.7 143.5 L 70.5 134.0 L 71.0 123.9 L 71.2 113.3 L 71.1 102.0 L 71.1 30.660000038146972 Z M 162.5 181.8 L 160.5 179.9 L 158.2 178.0 L 155.4 176.1 L 152.3 174.1 L 148.9 172.1 L 145.0 170.1 L 140.9 168.0 L 136.3 166.1 L 136.8 164.3 L 141.7 165.1 L 146.5 165.8 L 150.9 166.7 L 155.0 167.7 L 158.9 169.0 L 162.5 170.3 L 165.8 171.8 L 168.9 173.5 L 171.7 175.4 L 174.3 177.5 L 175.7 181.8 L 173.8 185.9 L 169.4 187.4 L 165.3 185.4 L 164.1 183.7 Z M 123.2 170.1 L 123.7 173.7 L 119.74054899215699 172.4041796684265 L 117.3 173.9 L 114.0 175.7 L 110.4 177.4 L 106.5 179.2 L 102.4 180.8 L 98.0 182.4 L 93.3 184.0 L 88.2 185.4 L 83.0 186.8 L 82.3 185.1 L 86.9 182.4 L 91.3 179.6 L 95.3 177.0 L 99.1 174.5 L 102.6 172.1 L 105.8 169.7 L 108.6 167.5 L 111.2 165.3 L 113.3 163.2 L 114.5681941986084 161.86505880355836 L 114.5 161.8 L 115.4 161.0 Z M 108.1 141.5 L 108.1 154.0 L 151.9 154.0 L 151.9 141.5 Z M 108.1 125.0 L 108.1 137.5 L 151.9 137.5 L 151.9 125.0 Z M 108.1 108.5 L 108.1 121.0 L 151.9 121.0 L 151.9 108.5 Z M 167.52827987670898 109.59737606048584 L 163.9 112.5 L 163.9 158.0 L 151.9 164.0 L 151.9 158.0 L 108.1 158.0 L 96.1 164.0 L 96.1 108.62535209655762 L 95.3 109.2 L 87.5 113.7 L 86.5 112.2 L 92.9 106.3 L 96.1 102.93448276519776 L 96.1 98.5 L 98.93636360168458 99.91818180084229 L 103.9 94.0 L 108.5 87.5 L 111.14705886840821 83.0 L 92.7 83.0 L 92.7 79.0 L 113.32571430206299 79.0 L 115.9 73.7 L 118.05675678253174 68.0 L 84.9 68.0 L 84.9 64.0 L 119.36578950881957 64.0 L 120.9 58.7 L 121.82839508056641 54.0 L 92.7 54.0 L 92.7 50.0 L 122.5785714149475 50.0 L 123.46867599487305 43.20283784866333 L 123.4 43.2 L 123.8 40.1 L 135.5 43.7 L 138.2 46.0 L 134.74378938674926 47.56507654190064 L 134.2673913002014 50.0 L 157.7 50.0 L 163.7 45.0 L 174.7 54.0 L 169.7 58.0 L 169.7 64.0 L 171.4777777671814 64.0 L 177.7 57.0 L 185.7 64.0 L 185.7 68.0 L 169.7 68.0 L 169.7 85.0 L 157.7 91.0 L 157.7 83.0 L 141.4 83.0 L 144.8 85.6 L 148.3 88.1 L 152.0 90.3 L 156.0 92.5 L 160.3 94.4 L 165.0 96.2 L 170.0 97.8 L 175.3 99.3 L 181.0 100.6 L 189.4 102.8 L 177.7 113.3 L 171.5 111.2 Z M 120.99452056884766 83.0 L 119.7 85.1 L 114.6 92.0 L 108.8 98.3 L 104.14222221374511 102.52111110687255 L 108.1 104.5 L 151.9 104.5 L 154.2777777671814 102.5185185432434 L 151.1 100.4 L 147.1 97.0 L 143.5 93.5 L 140.5 89.7 L 138.1 85.6 L 137.13255815505983 83.0 Z M 128.7325301170349 68.0 L 128.0 69.9 L 124.2 77.8 L 123.46027393341065 79.0 L 157.7 79.0 L 157.7 68.0 Z M 133.3839080810547 54.0 L 131.2 61.6 L 130.27469882965087 64.0 L 157.7 64.0 L 157.7 54.0 Z " />
</g>
</svg>
