<svg xmlns="http://www.w3.org/2000/svg" xmlns:xlink="http://www.w3.org/1999/xlink" version="1.1" baseProfile="full" viewBox="0 0 200 200" width="200" height="200">
<g fill="black">
<path d="M 118.6 181.0 L 106.6 187.0 L 106.6 67.55 L 104.4 70.7 L 99.7 76.8 L 94.7 82.4 L 89.3 87.5 L 87.9 86.4 L 91.6 80.1 L 95.2 73.7 L 98.8 67.2 L 102.2 60.6 L 105.5 53.7 L 106.6 51.18064517974854 L 106.6 50.0 L 107.02312135696411 50.21156072616577 L 108.6 46.6 L 111.6 39.3 L 114.4 31.8 L 117.0 24.0 L 119.4 16.0 L 119.41807231903076 16.006024074554443 L 119.9 14.5 L 130.8 19.8 L 133.0 22.6 L 129.40938787460328 23.433535003662108 L 127.7 27.9 L 124.3 35.8 L 120.8 43.4 L 117.0 50.7 L 115.0 54.2 L 118.6 56.0 L 141.74255323410034 56.0 L 142.9 52.8 L 144.4 48.3 L 146.0 44.0 L 147.6 39.8 L 149.1 35.8 L 150.5 32.0 L 151.9 28.4 L 153.2 24.9 L 154.3 21.5 L 155.07144660949706 19.32592315673828 L 155.0 19.3 L 155.3164556503296 18.635443019866944 L 155.4 18.4 L 155.42344923019408 18.410756587982178 L 156.0 17.2 L 166.3 23.4 L 168.2 26.4 L 164.3124324798584 26.869189167022704 L 162.7 29.5 L 160.7 32.7 L 158.6 36.0 L 156.3 39.5 L 153.9 43.1 L 151.4 46.8 L 148.7 50.6 L 145.8 54.4 L 144.6 56.0 L 163.2 56.0 L 173.2 46.0 L 185.2 56.0 L 185.2 60.0 L 152.6 60.0 L 152.6 92.0 L 161.4 92.0 L 171.4 82.0 L 183.4 92.0 L 183.4 96.0 L 152.6 96.0 L 152.6 129.0 L 161.4 129.0 L 171.4 119.0 L 183.4 129.0 L 183.4 133.0 L 152.6 133.0 L 152.6 170.0 L 166.9 170.0 L 176.9 160.0 L 188.9 170.0 L 188.9 174.0 L 118.6 174.0 Z M 14.9 160.9 L 21.4 159.5 L 26.2 158.44117650985717 L 26.2 69.0 L 38.2 71.0 L 41.2 73.0 L 38.2 74.8 L 38.2 155.45394735336305 L 43.1 154.1 L 51.2 151.9 L 51.8 151.72142858505248 L 51.8 38.0 L 15.3 38.0 L 15.3 34.0 L 73.0 34.0 L 83.0 24.0 L 95.0 34.0 L 95.0 38.0 L 63.8 38.0 L 63.8 88.0 L 72.77777776718139 88.0 L 79.0 81.0 L 87.0 88.0 L 87.0 92.0 L 63.8 92.0 L 63.8 148.15909090042115 L 68.4 146.8 L 77.6 144.0 L 87.2 141.1 L 97.3 138.1 L 98.0 139.8 L 88.6 144.6 L 79.5 149.0 L 70.6 152.9 L 62.1 156.6 L 53.9 159.9 L 46.0 163.0 L 38.5 165.8 L 31.2 168.3 L 24.3 170.5 L 21.772868633270264 171.26579742431642 L 20.4 175.0 L 17.7 172.5 L 12.9 161.4 Z M 118.6 133.0 L 118.6 170.0 L 140.6 170.0 L 140.6 133.0 Z M 118.6 96.0 L 118.6 129.0 L 140.6 129.0 L 140.6 96.0 Z M 118.6 60.0 L 118.6 92.0 L 140.6 92.0 L 140.6 60.0 Z " />
</g>
</svg>
