<svg xmlns="http://www.w3.org/2000/svg" xmlns:xlink="http://www.w3.org/1999/xlink" version="1.1" baseProfile="full" viewBox="0 0 200 200" width="200" height="200">
<g fill="black">
<path d="M 58.2 131.1 L 57.0 133.3 L 55.5 135.3 L 53.7 137.1 L 51.7 138.6 L 49.4 139.7 L 47.0 140.4 L 44.5 140.8 L 42.0 141.0 L 42.0 135.0 L 34.0 132.0 L 34.0 129.0 L 42.0 129.0 L 43.2 128.9 L 44.2 128.7 L 45.0 128.5 L 45.6 128.2 L 46.1 127.9 L 46.4 127.5 L 46.8 127.0 L 47.2 126.3 L 47.6 125.3 L 47.8 124.0 L 48.7 119.6 L 49.2 115.2 L 49.3 110.7 L 48.9 106.1 L 48.1 101.5 L 46.9 96.7 L 45.1 91.9 L 43.0 86.9 L 40.4 81.7 L 37.5 76.3 L 37.76078433990479 76.0764705657959 L 36.8 75.5 L 38.7 69.7 L 40.5 64.2 L 42.4 58.9 L 44.2 53.8 L 45.8 48.8 L 47.3 44.0 L 48.7 39.4 L 49.9 34.9 L 50.9 30.6 L 51.02857141494751 30.0 L 29.2 30.0 L 29.2 183.0 L 17.2 189.0 L 17.2 20.0 L 29.2 26.0 L 51.6 26.0 L 57.6 21.0 L 68.6 30.0 L 63.6 33.0 L 61.82040815353393 33.741496562957764 L 61.8 33.8 L 60.1 38.3 L 58.1 42.8 L 56.0 47.4 L 53.7 52.1 L 51.1 56.8 L 48.4 61.7 L 45.4 66.6 L 42.0 71.5 L 39.12158679962158 75.31195259094238 L 43.5 79.5 L 47.5 84.0 L 51.0 88.8 L 53.9 93.8 L 56.2 98.9 L 58.0 104.2 L 59.3 109.5 L 60.0 115.0 L 60.1 120.6 L 59.7 126.2 L 59.1 128.7 Z M 100.9 183.5 L 90.9 188.5 L 90.9 116.0 L 80.8 116.0 L 80.8 167.2 L 69.8 172.7 L 69.8 108.18974361419677 L 67.3 109.6 L 62.8 108.6 L 60.5 104.6 L 61.6 100.2 L 62.2 100.0 L 63.0 99.1 L 63.9 97.6 L 64.8 95.7 L 65.7 93.2 L 66.5 90.3 L 67.3 87.0 L 68.1 83.3 L 68.9 79.1 L 69.3 74.6 L 71.1 74.6 L 71.5 79.1 L 71.9069766998291 81.6 L 100.5 81.6 L 100.9 79.5 L 101.5 75.4 L 102.1 71.4 L 102.8 67.5 L 103.4 63.8 L 104.1 60.1 L 104.7 56.5 L 105.3 53.0 L 105.9 49.7 L 106.25917758941651 47.329427814483644 L 106.1 47.3 L 106.8 44.7 L 118.0 49.5 L 120.3 52.2 L 116.4570707321167 53.29797983169556 L 115.4 55.9 L 114.0 59.3 L 111.0 66.1 L 109.4 69.6 L 107.7 73.2 L 105.8 76.8 L 103.2054054260254 81.6 L 118.1 81.6 L 124.1 76.6 L 133.7 84.45454549789429 L 133.7 81.5 L 144.7 87.0 L 169.9 87.0 L 169.9 32.0 L 133.9 32.0 L 133.9 28.0 L 169.9 28.0 L 175.9 23.0 L 186.9 32.0 L 181.9 36.0 L 181.9 97.0 L 169.9 103.0 L 169.9 91.0 L 144.7 91.0 L 144.7 163.0 L 144.8 164.2 L 145.0 165.2 L 145.5 166.2 L 145.7 166.4 L 146.0 166.5 L 146.4 166.7 L 147.0 166.8 L 147.9 166.9 L 149.2 167.0 L 176.9 167.0 L 182.9 142.0 L 184.9 142.0 L 182.9 167.0 L 186.5 169.4 L 188.9 173.0 L 186.5 176.6 L 182.9 179.0 L 149.2 179.0 L 146.6 178.8 L 144.1 178.3 L 141.8 177.4 L 139.5 176.2 L 137.6 174.5 L 136.0 172.5 L 134.9 170.3 L 134.1 167.9 L 133.7 165.5 L 133.7 86.43999996185303 L 130.1 88.6 L 127.20062112808228 89.80807456970214 L 125.8 92.1 L 124.6 94.1 L 123.3 96.1 L 121.9 98.2 L 120.4 100.4 L 118.8 102.6 L 117.5 105.2 L 115.8 104.5 L 116.6 101.8 L 116.9 99.1 L 117.2 96.5 L 117.4 94.0 L 117.7 91.7 L 117.9 89.5 L 118.1 87.4 L 118.1 85.6 L 72.48205127716065 85.6 L 72.7 87.3 L 73.0 90.9 L 73.2 94.2 L 73.2 97.2 L 73.1 100.0 L 72.8 102.5 L 72.2 105.0 L 71.2689655303955 107.23448276519775 L 80.8 112.0 L 90.9 112.0 L 90.9 90.0 L 100.9 92.0 L 103.4 94.0 L 100.9 95.66666669845581 L 100.9 112.0 L 111.4 112.0 L 116.4 107.0 L 126.4 116.0 L 121.4 119.0 L 121.4 157.0 L 121.3 159.3 L 121.1 161.5 L 120.5 163.6 L 119.7 165.6 L 118.6 167.5 L 117.1 169.1 L 115.2 170.4 L 113.2 171.3 L 111.1 171.8 L 108.9 172.0 L 108.9 167.0 L 100.9 164.5 Z M 79.2 66.1 L 78.8 63.1 L 78.4 60.2 L 77.9 57.4 L 77.4 54.7 L 76.9 52.1 L 76.5 49.5 L 75.6 47.3 L 77.1 46.3 L 78.7 48.3 L 80.6 50.3 L 82.4 52.5 L 84.0 55.0 L 85.6 57.7 L 87.0 60.6 L 88.4 63.6 L 89.7 66.9 L 90.9 70.3 L 92.0 73.9 L 91.0 78.3 L 87.3 80.9 L 82.8 79.9 L 80.2 76.1 L 79.6 69.3 Z M 66.1 40.0 L 89.9 40.0 L 89.9 12.0 L 101.9 14.0 L 104.9 16.0 L 101.9 17.8 L 101.9 40.0 L 107.41818180084229 40.0 L 115.6 31.0 L 125.6 40.0 L 125.6 44.0 L 66.1 44.0 Z M 108.9 162.0 L 109.6 161.9 L 110.1 161.8 L 110.3 161.7 L 110.4 161.6 L 110.6 161.5 L 110.8 161.1 L 111.0 160.5 L 111.2 159.6 L 111.4 158.4 L 111.4 116.0 L 100.9 116.0 L 100.9 162.0 Z " />
</g>
</svg>
