<svg xmlns="http://www.w3.org/2000/svg" xmlns:xlink="http://www.w3.org/1999/xlink" version="1.1" baseProfile="full" viewBox="0 0 200 200" width="200" height="200">
<g fill="black">
<path d="M 112.8 176.0 L 128.8 176.0 L 130.1 175.9 L 131.0 175.7 L 131.9 175.4 L 132.1 175.2 L 132.2 175.0 L 132.4 174.7 L 132.6 174.1 L 132.8 173.2 L 132.8 143.6 L 131.2 145.6 L 127.9 149.5 L 124.5 153.1 L 121.0 156.6 L 117.6 159.9 L 114.1 163.0 L 110.7 166.1 L 107.2 169.0 L 103.8 171.8 L 103.7 171.8764705657959 L 103.7 175.8 L 100.4 174.4 L 94.00839414596558 167.54635038375855 L 93.5 168.2 L 89.0 168.7 L 85.4 166.0 L 83.9 162.9 L 82.2 159.9 L 80.2 157.0 L 78.0 154.2 L 75.5 151.4 L 72.7 148.7 L 69.7 146.0 L 66.3 143.3 L 62.7 140.6 L 62.7 184.3 L 50.7 190.3 L 50.7 146.29189186096193 L 49.8 147.8 L 45.8 153.8 L 41.3 159.3 L 36.5 164.6 L 31.4 169.5 L 25.9 174.0 L 19.9 178.0 L 13.6 181.5 L 12.5 180.0 L 17.5 175.0 L 22.3 170.0 L 26.7 164.9 L 30.8 159.6 L 34.5 154.2 L 38.0 148.7 L 41.1 142.9 L 43.9 136.9 L 46.3 130.7 L 47.077777767181395 128.2 L 16.6 128.2 L 16.6 124.2 L 50.7 124.2 L 50.7 105.5 L 62.7 107.5 L 65.7 109.5 L 62.7 111.3 L 62.7 124.2 L 76.7 124.2 L 86.7 114.2 L 98.7 124.2 L 98.7 128.2 L 62.7 128.2 L 62.7 137.3043478012085 L 64.1 137.7 L 68.6 139.1 L 72.9 140.9 L 76.9 142.9 L 80.6 145.2 L 84.2 147.7 L 87.5 150.4 L 90.5 153.4 L 93.3 156.6 L 95.8 160.1 L 96.1337209701538 163.10348834991456 L 97.4 162.4 L 104.8 158.0 L 108.6 155.7 L 112.5 153.3 L 116.4 150.8 L 120.4 148.2 L 124.6 145.6 L 128.8 142.9 L 132.8 140.53636360168457 L 132.8 100.0 L 105.4 100.0 L 105.4 96.0 L 132.8 96.0 L 132.8 71.0 L 100.4 71.0 L 100.4 67.0 L 132.8 67.0 L 132.8 42.0 L 105.4 42.0 L 105.4 38.0 L 132.8 38.0 L 132.8 14.0 L 144.8 16.0 L 147.8 18.0 L 144.8 19.8 L 144.8 38.0 L 162.1 38.0 L 168.1 33.0 L 179.1 42.0 L 174.1 46.0 L 174.1 67.0 L 178.4 67.0 L 182.9 61.0 L 188.9 67.0 L 188.9 71.0 L 174.1 71.0 L 174.1 100.0 L 162.1 106.0 L 162.1 100.0 L 144.8 100.0 L 144.8 121.2 L 148.0 127.6 L 151.8 134.3 L 155.69504375457763 140.2399416923523 L 157.0 138.5 L 158.8 135.5 L 160.7 132.5 L 162.6 129.6 L 164.5 126.6 L 166.3 123.7 L 168.2 120.7 L 169.9 117.6 L 171.7 114.5 L 172.9232973098755 112.2692813873291 L 172.8 112.2 L 173.9 110.7 L 183.3 118.1 L 184.7 121.5 L 180.63113985061645 121.289541721344 L 178.3 123.8 L 175.8 126.5 L 173.2 129.2 L 170.5 131.7 L 167.8 134.1 L 165.0 136.4 L 162.1 138.6 L 159.0 140.5 L 157.0 142.0 L 160.0 146.0 L 164.5 151.0 L 169.3 155.5 L 174.4 159.6 L 179.8 163.1 L 185.4 166.2 L 190.3 168.8 L 179.1 177.7 L 172.8 173.5 L 166.9 168.7 L 161.6 163.4 L 156.8 157.7 L 152.4 151.4 L 148.6 144.7 L 145.3 137.5 L 144.8 136.14285717010497 L 144.8 172.0 L 144.7 174.5 L 144.3 177.0 L 143.4 179.4 L 142.2 181.7 L 140.6 183.7 L 138.6 185.3 L 136.3 186.6 L 133.9 187.4 L 131.4 187.8 L 128.8 188.0 L 128.8 182.0 L 112.8 179.0 Z M 114.2 128.6 L 113.3 126.3 L 112.2 124.0 L 110.8 121.7 L 109.2 119.4 L 107.3 117.1 L 105.2 114.7 L 102.8 112.3 L 100.0 110.2 L 100.9 108.6 L 104.2 110.1 L 107.5 111.3 L 110.6 112.8 L 113.6 114.6 L 116.3 116.5 L 118.8 118.6 L 121.1 121.0 L 123.2 123.5 L 125.1 126.2 L 126.7 129.1 L 126.5 133.6 L 123.2 136.8 L 118.6 136.5 L 115.5 133.2 L 115.0 130.9 Z M 40.7 67.6 L 73.4 67.6 L 79.4 62.6 L 90.4 71.6 L 85.4 75.6 L 85.4 107.9 L 73.4 113.9 L 73.4 103.9 L 40.7 103.9 L 40.7 110.9 L 28.7 116.9 L 28.7 61.6 Z M 40.7 71.6 L 40.7 99.9 L 73.4 99.9 L 73.4 71.6 Z M 144.8 71.0 L 144.8 96.0 L 162.1 96.0 L 162.1 71.0 Z M 144.8 42.0 L 144.8 67.0 L 162.1 67.0 L 162.1 42.0 Z M 82.9 53.2 L 81.7 50.2 L 81.3758807182312 49.45203256607056 L 77.9 50.4 L 70.4 52.2 L 63.2 53.7 L 56.4 55.1 L 49.9 56.3 L 43.7 57.5 L 37.9 58.5 L 32.4 59.5 L 27.2 60.3 L 26.479360580444336 60.41765537261963 L 24.6 63.9 L 22.3 61.1 L 19.2 49.3 L 21.2 49.2 L 26.1 49.0 L 31.2 48.8 L 34.89233322143555 48.60219640731812 L 36.4 44.7 L 38.2 40.5 L 39.8 36.4 L 41.4 32.4 L 42.9 28.6 L 44.3 24.8 L 45.6 21.1 L 46.8 17.6 L 47.60638542175293 15.034228324890137 L 47.5 15.0 L 48.4 12.8 L 59.0 18.7 L 61.0 21.7 L 57.11716623306275 22.244959163665772 L 53.2 29.1 L 51.0 32.6 L 48.6 36.2 L 46.1 39.9 L 43.5 43.5 L 40.7 47.2 L 39.694433784484865 48.400191974639895 L 42.6 48.3 L 48.9 47.9 L 55.5 47.6 L 62.4 47.2 L 69.7 46.8 L 77.3 46.6 L 80.07195434570312 46.56577835083008 L 78.9 44.3 L 77.3 41.3 L 75.5 38.3 L 73.6 35.2 L 71.5 32.1 L 69.1 29.1 L 70.3 27.8 L 73.5 30.0 L 76.8 32.1 L 79.8 34.5 L 82.6 37.0 L 85.3 39.7 L 87.7 42.4 L 90.0 45.3 L 92.2 48.3 L 94.1 51.5 L 95.9 54.7 L 95.8 59.3 L 92.6 62.5 L 88.0 62.4 L 84.8 59.1 L 83.9 56.2 Z " />
</g>
</svg>
