<svg xmlns="http://www.w3.org/2000/svg" xmlns:xlink="http://www.w3.org/1999/xlink" version="1.1" baseProfile="full" viewBox="0 0 200 200" width="200" height="200">
<g fill="black">
<path d="M 60.2 119.0 L 63.2 121.0 L 60.2 122.8 L 60.2 136.0 L 74.6 136.0 L 84.6 126.0 L 96.6 136.0 L 96.6 140.0 L 60.2 140.0 L 60.2 183.8 L 48.2 189.8 L 48.2 140.0 L 11.8 140.0 L 11.8 136.0 L 48.2 136.0 L 48.2 117.0 Z M 118.1 181.0 L 106.1 187.0 L 106.1 67.48000001907349 L 103.8 70.7 L 99.1 76.8 L 94.1 82.4 L 88.7 87.5 L 87.3 86.4 L 91.0 80.1 L 94.7 73.7 L 98.3 67.2 L 101.7 60.6 L 105.0 53.7 L 106.1 51.259375 L 106.1 50.0 L 106.56321840286255 50.231609153747556 L 108.2 46.6 L 111.1 39.3 L 113.9 31.8 L 116.6 24.0 L 119.0 16.0 L 119.01807231903076 16.006024074554443 L 119.5 14.5 L 130.4 19.8 L 132.6 22.6 L 129.01551971435546 23.41751308441162 L 127.3 27.9 L 123.9 35.8 L 120.3 43.4 L 116.5 50.7 L 114.5 54.2 L 118.1 56.0 L 141.44255323410033 56.0 L 142.6 52.8 L 144.2 48.3 L 145.8 44.0 L 147.3 39.8 L 148.8 35.8 L 150.3 32.0 L 151.6 28.4 L 152.9 24.9 L 154.1 21.5 L 154.88035802841188 19.22986755371094 L 154.8 19.2 L 155.08999996185304 18.619999980926515 L 155.2 18.3 L 155.24052047729492 18.318959140777586 L 155.8 17.2 L 166.1 23.4 L 168.0 26.5 L 163.98408546447754 26.915439414978028 L 162.4 29.5 L 160.4 32.7 L 158.3 36.1 L 156.0 39.5 L 153.7 43.1 L 151.1 46.8 L 148.4 50.6 L 145.5 54.4 L 144.3 56.0 L 163.2 56.0 L 173.2 46.0 L 185.2 56.0 L 185.2 60.0 L 152.3 60.0 L 152.3 92.0 L 161.3 92.0 L 171.3 82.0 L 183.3 92.0 L 183.3 96.0 L 152.3 96.0 L 152.3 129.0 L 161.3 129.0 L 171.3 119.0 L 183.3 129.0 L 183.3 133.0 L 152.3 133.0 L 152.3 170.0 L 166.9 170.0 L 176.9 160.0 L 188.9 170.0 L 188.9 174.0 L 118.1 174.0 Z M 118.1 133.0 L 118.1 170.0 L 140.3 170.0 L 140.3 133.0 Z M 118.1 96.0 L 118.1 129.0 L 140.3 129.0 L 140.3 96.0 Z M 43.0 93.2 L 42.0 90.5 L 40.9 87.9 L 39.8 85.4 L 37.2 80.4 L 36.54071779251099 79.26980199813843 L 35.2 83.7 L 32.7 90.9 L 29.9 97.9 L 26.9 104.6 L 23.6 110.9 L 19.8 116.9 L 15.7 122.4 L 14.2 121.5 L 16.4 115.2 L 18.7 108.7 L 20.8 102.2 L 22.8 95.4 L 24.6 88.4 L 26.3 81.3 L 27.7 73.9 L 29.0 66.2 L 30.0 58.3 L 30.788482666015625 51.20365629196167 L 30.7 51.2 L 31.1 48.1 L 42.8 51.7 L 45.5 54.1 L 42.108619403839114 55.57173118591309 L 41.3 60.1 L 39.5 68.2 L 37.886576080322264 74.57302465438843 L 38.8 75.1 L 41.3 76.9 L 43.6 78.8 L 45.9 81.0 L 48.1 83.2 L 52.1 88.2 L 54.0 90.9 L 55.7 93.8 L 55.8 98.4 L 52.7 101.7 L 48.1 101.7 L 44.7 98.6 L 43.9 95.9 Z M 79.3 102.4 L 78.3 99.5 L 77.2 96.6 L 76.0 93.8 L 74.7 90.9 L 71.7 85.1 L 70.38276395797729 82.77546586990357 L 68.0 88.6 L 65.1 95.0 L 62.0 101.1 L 58.6 106.9 L 54.8 112.4 L 50.7 117.4 L 49.2 116.5 L 53.8 104.5 L 56.0 98.4 L 58.1 92.2 L 60.0 85.8 L 61.8 79.2 L 63.5 72.4 L 64.9 65.4 L 66.2 58.3 L 67.23728361129761 51.90341768264771 L 67.2 51.9 L 67.7 49.0 L 79.2 53.0 L 81.8 55.5 L 78.29053125381469 56.839978981018064 L 77.4 60.6 L 75.4 68.0 L 73.1 75.1 L 71.49219512939453 79.72243900299073 L 72.1 80.2 L 74.9 82.3 L 77.6 84.6 L 80.1 87.0 L 82.5 89.6 L 84.7 92.3 L 86.8 95.1 L 88.7 98.0 L 90.5 101.0 L 92.1 104.1 L 91.8 108.7 L 88.5 111.8 L 83.9 111.5 L 80.8 108.2 L 80.1 105.3 Z M 118.1 60.0 L 118.1 92.0 L 140.3 92.0 L 140.3 60.0 Z M 14.4 41.2 L 48.0 41.2 L 48.0 14.1 L 60.0 16.1 L 63.0 18.1 L 60.0 19.9 L 60.0 41.2 L 71.5 41.2 L 81.5 31.2 L 93.5 41.2 L 93.5 45.2 L 14.4 45.2 Z " />
</g>
</svg>
