<svg xmlns="http://www.w3.org/2000/svg" xmlns:xlink="http://www.w3.org/1999/xlink" version="1.1" baseProfile="full" viewBox="0 0 200 200" width="200" height="200">
<g fill="black">
<path d="M 86.6 96.2 L 86.6 100.2 L 59.4 100.2 L 59.4 131.5 L 73.3 131.5 L 83.3 121.5 L 95.3 131.5 L 95.3 135.5 L 59.4 135.5 L 59.4 182.4 L 47.4 188.4 L 47.4 135.5 L 13.2 135.5 L 13.2 131.5 L 47.4 131.5 L 47.4 100.2 L 19.8 100.2 L 19.8 96.2 L 64.6 96.2 L 74.6 86.2 Z M 115.7 181.0 L 103.7 187.0 L 103.7 67.18260869979858 L 101.1 70.8 L 96.3 76.8 L 91.2 82.4 L 85.7 87.5 L 84.3 86.4 L 88.2 80.1 L 91.9 73.7 L 95.6 67.2 L 99.2 60.5 L 102.6 53.7 L 103.7 51.259375 L 103.7 50.0 L 104.16321840286255 50.231609153747556 L 105.8 46.6 L 108.9 39.3 L 111.8 31.7 L 114.5 24.0 L 116.71740207672119 16.904313373565675 L 116.7 16.9 L 117.5 14.5 L 128.4 19.8 L 130.6 22.7 L 126.92124824523925 23.474474048614503 L 125.1 28.0 L 121.7 35.8 L 118.0 43.4 L 114.1 50.7 L 112.06132593154908 54.18066301345825 L 115.7 56.0 L 139.8744680404663 56.0 L 141.1 52.8 L 142.7 48.3 L 144.4 43.9 L 146.0 39.8 L 147.6 35.8 L 149.1 32.0 L 150.5 28.3 L 151.8 24.8 L 153.1 21.5 L 153.8802767753601 19.230103778839112 L 153.8 19.2 L 154.7 17.1 L 165.0 23.4 L 166.9 26.5 L 162.88408546447755 26.915439414978028 L 161.3 29.5 L 159.2 32.8 L 157.0 36.1 L 154.7 39.6 L 152.3 43.1 L 149.7 46.8 L 147.0 50.6 L 143.9 54.4 L 142.7 56.0 L 162.8 56.0 L 172.8 46.0 L 184.8 56.0 L 184.8 60.0 L 150.9 60.0 L 150.9 92.0 L 160.9 92.0 L 170.9 82.0 L 182.9 92.0 L 182.9 96.0 L 150.9 96.0 L 150.9 129.0 L 160.9 129.0 L 170.9 119.0 L 182.9 129.0 L 182.9 133.0 L 150.9 133.0 L 150.9 170.0 L 166.6 170.0 L 176.6 160.0 L 188.6 170.0 L 188.6 174.0 L 115.7 174.0 Z M 115.7 133.0 L 115.7 170.0 L 138.9 170.0 L 138.9 133.0 Z M 115.7 96.0 L 115.7 129.0 L 138.9 129.0 L 138.9 96.0 Z M 115.7 60.0 L 115.7 92.0 L 138.9 92.0 L 138.9 60.0 Z M 73.7 73.8 L 72.5 71.0 L 71.2 68.2 L 71.03322257995606 67.85453252792358 L 69.0 68.5 L 62.8 70.3 L 56.8 71.8 L 50.9 73.3 L 45.2 74.6 L 39.7 75.9 L 34.4 77.1 L 29.2 78.3 L 24.3 79.4 L 23.525806427001953 79.57741937637329 L 21.9 83.1 L 19.5 80.5 L 15.6 69.0 L 17.6 68.6 L 22.5 68.2 L 27.6 67.7 L 29.579767608642577 67.50963773727418 L 31.6 61.0 L 33.6 55.4 L 35.5 49.8 L 37.4 44.3 L 39.3 38.7 L 42.9 27.7 L 44.6 22.2 L 45.935427570343016 17.609467697143554 L 45.9 17.6 L 46.7 15.2 L 57.5 20.7 L 59.7 23.5 L 56.04584217071533 24.26929636001587 L 55.3 26.1 L 52.9 31.5 L 47.9 42.3 L 45.2 47.6 L 42.4 52.9 L 39.5 58.1 L 36.5 63.3 L 34.05 67.08636360168457 L 38.3 66.7 L 43.9 66.3 L 49.7 65.8 L 55.7 65.3 L 62.0 65.0 L 68.4 64.7 L 69.48000001907349 64.7 L 68.2 62.3 L 66.6 59.2 L 64.8 56.1 L 63.0 52.7 L 60.8 49.5 L 62.1 48.3 L 65.1 50.9 L 68.1 53.3 L 71.0 55.7 L 73.6 58.2 L 76.1 60.8 L 78.5 63.3 L 80.7 65.9 L 82.7 68.5 L 84.6 71.1 L 86.4 73.7 L 86.7 78.3 L 83.7 81.8 L 79.1 82.0 L 75.6 79.0 L 74.7 76.4 Z " />
</g>
</svg>
