<svg xmlns="http://www.w3.org/2000/svg" xmlns:xlink="http://www.w3.org/1999/xlink" version="1.1" baseProfile="full" viewBox="0 0 200 200" width="200" height="200">
<g fill="black">
<path d="M 108.0 148.7 L 128.0 148.7 L 129.3 148.6 L 130.2 148.4 L 131.1 148.1 L 131.3 147.9 L 131.4 147.7 L 131.6 147.4 L 131.8 146.8 L 132.0 145.9 L 132.0 118.1472222328186 L 126.7 123.3 L 123.1 126.5 L 115.9 132.5 L 112.4 135.3 L 109.0 138.0 L 102.31068449020385 143.11535892486572 L 102.2 147.1 L 98.9 145.6 L 90.9 136.5 L 92.6 135.4 L 96.2 133.6 L 99.8 131.7 L 107.4 127.7 L 111.4 125.6 L 115.4 123.4 L 119.6 121.3 L 123.9 119.1 L 128.3 117.0 L 132.0 115.23043479919434 L 132.0 79.3 L 103.0 79.3 L 103.0 75.3 L 132.0 75.3 L 132.0 55.5 L 91.5 55.5 L 91.5 51.5 L 132.0 51.5 L 132.0 33.4 L 104.1 33.4 L 104.1 29.4 L 132.0 29.4 L 132.0 11.7 L 144.0 13.7 L 147.0 15.7 L 144.0 17.5 L 144.0 29.4 L 161.4 29.4 L 167.4 24.4 L 178.4 33.4 L 173.4 37.4 L 173.4 51.5 L 176.4 51.5 L 180.9 45.5 L 186.9 51.5 L 186.9 55.5 L 173.4 55.5 L 173.4 79.3 L 161.4 85.3 L 161.4 79.3 L 144.0 79.3 L 144.0 113.9615385055542 L 148.0 115.5 L 152.9 117.5 L 157.5 119.7 L 161.8 122.0 L 165.9 124.3 L 169.7 126.8 L 173.2 129.4 L 176.5 132.0 L 179.5 134.7 L 182.3 137.5 L 183.5 142.0 L 181.3 146.0 L 178.95306119918823 146.5867346763611 L 177.0 171.0 L 180.6 173.4 L 183.0 177.0 L 180.6 180.6 L 177.0 183.0 L 75.0 183.0 L 72.4 182.8 L 69.9 182.4 L 67.5 181.6 L 65.2 180.3 L 63.2 178.7 L 61.6 176.7 L 60.3 174.4 L 59.5 172.0 L 59.1 169.5 L 59.0 167.0 L 59.0 110.0 L 56.813422775268556 110.0 L 54.8 120.0 L 51.3 133.6 L 47.2 145.8 L 42.5 156.7 L 37.2 166.2 L 31.2 174.3 L 24.6 180.8 L 17.5 185.7 L 16.4 184.2 L 21.9 178.2 L 26.9 171.1 L 31.5 163.0 L 35.6 153.7 L 39.2 143.1 L 42.3 131.2 L 45.0 118.0 L 46.21379308700561 110.0 L 35.0 110.0 L 35.0 122.0 L 23.0 128.0 L 23.0 67.76666669845581 L 20.4 70.8 L 15.7 75.5 L 14.2 74.4 L 17.3 68.6 L 20.1 63.0 L 22.8 57.5 L 25.3 52.0 L 27.6 46.6 L 29.6 41.2 L 31.3 35.8 L 32.7 30.5 L 33.9 25.1 L 34.714498901367186 20.701705741882325 L 34.7 20.7 L 34.80909090042114 20.190909099578857 L 34.9 19.7 L 34.91368417739868 19.70280704498291 L 35.3 17.9 L 46.6 22.1 L 49.2 24.7 L 45.53333330154419 25.96666669845581 L 45.0 27.9 L 43.0 33.7 L 41.64464282989502 37.0 L 61.0 37.0 L 67.0 32.0 L 78.0 41.0 L 73.0 44.0 L 71.27200002670288 44.71999998092652 L 70.2 47.4 L 68.8 50.7 L 67.2 54.0 L 65.6 57.1 L 63.8 60.1 L 61.9 62.9 L 59.9 65.5 L 57.7 68.0 L 56.86666669845581 69.0 L 77.0 69.0 L 83.0 64.0 L 94.0 73.0 L 89.0 77.0 L 89.0 116.0 L 77.0 122.0 L 77.0 110.0 L 71.0 110.0 L 71.0 168.2 L 71.2 169.1 L 71.5 170.0 L 71.9 170.4 L 72.8 170.7 L 73.7 170.9 L 75.0 171.0 L 171.0 171.0 L 176.75512371063232 147.02031803131104 L 172.9 144.9 L 171.0 142.2 L 168.9 139.5 L 166.5 136.7 L 163.9 133.8 L 160.9 130.9 L 157.6 127.9 L 154.1 124.9 L 150.3 121.7 L 146.3 118.4 L 144.0 116.675 L 144.0 144.7 L 143.9 147.2 L 143.4 149.7 L 142.6 152.1 L 141.4 154.4 L 139.8 156.4 L 137.8 158.0 L 135.5 159.3 L 133.1 160.1 L 130.6 160.5 L 128.0 160.7 L 128.0 154.7 L 108.0 151.7 Z M 177.5 96.5 L 178.3 100.0 L 174.09242906570435 99.18801259994507 L 173.1 100.0 L 170.8 101.7 L 165.8 105.3 L 163.1 107.1 L 160.3 108.9 L 157.4 110.8 L 154.3 112.5 L 151.3 114.5 L 150.1 113.2 L 152.5 110.5 L 154.6 107.6 L 156.6 104.9 L 158.6 102.3 L 160.5 99.8 L 162.3 97.4 L 164.0 95.0 L 167.2 90.6 L 168.01332206726073 89.2861720085144 L 167.9 89.2 L 168.42238807678223 88.62537317276 L 168.5 88.5 L 168.52011175155639 88.5178771018982 L 168.9 88.1 Z M 110.7 106.1 L 109.7 103.9 L 107.3 99.5 L 105.9 97.3 L 104.3 95.2 L 102.7 92.9 L 100.9 90.7 L 98.7 88.8 L 99.7 87.3 L 102.3 88.7 L 105.1 89.8 L 107.8 91.2 L 110.3 92.7 L 112.7 94.4 L 115.0 96.2 L 117.2 98.2 L 119.3 100.4 L 121.2 102.6 L 123.0 105.0 L 123.3 109.6 L 120.4 113.1 L 115.9 113.4 L 112.3 110.5 L 111.6 108.3 Z M 35.0 73.0 L 35.0 106.0 L 46.82068967819214 106.0 L 47.2 103.5 L 48.8 87.7 L 49.76826343536377 73.0 Z M 61.72613639831543 73.0 L 60.1 88.9 L 57.8 105.1 L 57.61879196166992 106.0 L 77.0 106.0 L 77.0 73.0 Z M 144.0 55.5 L 144.0 75.3 L 161.4 75.3 L 161.4 55.5 Z M 39.89636363983154 41.0 L 38.1 44.8 L 35.2 50.3 L 32.0 55.6 L 28.5 60.8 L 25.761702156066896 64.38085107803344 L 35.0 69.0 L 54.38965520858765 69.0 L 55.3 66.6 L 56.1 63.6 L 56.9 60.5 L 58.3 54.3 L 59.0 51.1 L 59.6 47.9 L 60.2 44.5 L 60.7 41.1 L 60.711428546905516 41.0 Z M 144.0 33.4 L 144.0 51.5 L 161.4 51.5 L 161.4 33.4 Z " />
</g>
</svg>
