<svg xmlns="http://www.w3.org/2000/svg" xmlns:xlink="http://www.w3.org/1999/xlink" version="1.1" baseProfile="full" viewBox="0 0 200 200" width="200" height="200">
<g fill="black">
<path d="M 106.9 153.5 L 112.0 156.7 L 117.7 159.7 L 124.1 162.5 L 131.3 165.0 L 139.3 167.4 L 148.2 169.5 L 157.9 171.4 L 168.4 173.0 L 179.8 174.4 L 189.9 175.8 L 178.1 187.5 L 166.3 185.4 L 155.4 183.0 L 145.4 180.2 L 136.2 177.1 L 127.9 173.7 L 120.5 170.0 L 114.0 165.9 L 108.5 161.4 L 104.0 156.5 L 101.44816522598266 152.21950302124023 L 99.8 155.8 L 95.5 161.3 L 89.8 166.0 L 82.9 170.1 L 74.9 173.6 L 65.6 176.6 L 55.2 179.2 L 43.4 181.3 L 30.4 182.9 L 16.1 183.8 L 15.8 182.1 L 29.8 179.1 L 42.3 176.0 L 53.5 172.8 L 63.2 169.4 L 71.5 165.8 L 78.3 162.0 L 83.7 158.0 L 87.5 154.1 L 88.79230766296386 152.0 L 18.0 152.0 L 18.0 148.0 L 90.65263156890869 148.0 L 91.0 146.98461542129516 L 91.0 123.0 L 46.0 123.0 L 46.0 119.0 L 143.0 119.0 L 149.0 114.0 L 160.0 123.0 L 155.0 127.0 L 155.0 148.0 L 162.0 148.0 L 172.0 138.0 L 184.0 148.0 L 184.0 152.0 L 104.80909090042114 152.0 Z M 143.0 123.0 L 103.0 123.0 L 103.0 148.0 L 143.0 148.0 Z M 58.0 105.7 L 46.0 111.7 L 46.0 46.3875 L 43.2 48.4 L 36.4 52.8 L 29.2 57.0 L 21.5 61.0 L 13.4 64.5 L 12.5 63.0 L 19.6 57.7 L 26.3 52.6 L 32.6 47.5 L 38.5 42.4 L 44.1 37.3 L 49.2 32.2 L 53.9 27.1 L 58.1 21.9 L 62.0 16.6 L 65.4 11.4 L 65.9 10.6 L 75.4 18.1 L 76.7 21.4 L 72.91655626296998 21.20430459976196 L 71.0 23.6 L 66.3 28.9 L 61.1 34.0 L 58.86000003814697 36.0 L 104.79354839324951 36.0 L 107.0 34.1 L 110.2 31.0 L 118.6 22.6 L 121.0 20.1 L 123.1 17.8 L 124.9 15.6 L 126.6 13.5 L 127.29873237609863 12.478775787353516 L 127.2 12.4 L 127.81702127456666 11.721276569366456 L 127.9 11.6 L 127.91460552215577 11.613933944702149 L 128.2 11.3 L 136.6 19.9 L 137.4 23.4 L 133.20843095779418 22.444028091430663 L 132.0 23.3 L 129.4 25.1 L 126.5 26.9 L 123.5 28.8 L 120.1 30.7 L 116.6 32.7 L 112.8 34.6 L 109.93000001907349 36.0 L 152.0 36.0 L 162.0 26.0 L 174.0 36.0 L 174.0 40.0 L 116.0 40.0 L 116.0 56.7 L 148.8181818008423 56.7 L 157.0 47.7 L 167.0 56.7 L 167.0 60.7 L 116.0 60.7 L 116.0 76.9 L 148.8181818008423 76.9 L 157.0 67.9 L 167.0 76.9 L 167.0 80.9 L 116.0 80.9 L 116.0 98.7 L 162.8181818008423 98.7 L 171.0 89.7 L 181.0 98.7 L 181.0 102.7 L 58.0 102.7 Z M 58.0 80.9 L 58.0 98.7 L 104.0 98.7 L 104.0 80.9 Z M 58.0 60.7 L 58.0 76.9 L 104.0 76.9 L 104.0 60.7 Z M 58.0 40.0 L 58.0 56.7 L 104.0 56.7 L 104.0 40.0 Z " />
</g>
</svg>
