<svg xmlns="http://www.w3.org/2000/svg" xmlns:xlink="http://www.w3.org/1999/xlink" version="1.1" baseProfile="full" viewBox="0 0 200 200" width="200" height="200">
<g fill="black">
<path d="M 119.0 181.5 L 107.0 187.5 L 107.0 66.64545450210571 L 104.9 69.7 L 100.2 75.9 L 95.2 81.6 L 89.9 86.8 L 88.5 85.7 L 92.2 79.3 L 95.8 72.9 L 99.3 66.3 L 102.7 59.5 L 106.0 52.6 L 107.0 50.27741937637329 L 107.0 48.8 L 107.52342853546142 49.061714267730714 L 109.1 45.4 L 112.0 38.0 L 114.8 30.3 L 117.4 22.5 L 119.50685415267944 15.301581764221192 L 119.5 15.3 L 119.58571424484253 15.032142829895019 L 119.8 14.3 L 119.81811828613282 14.305880451202393 L 120.3 12.8 L 131.2 18.0 L 133.5 20.8 L 129.84267559051514 21.634126663208008 L 128.1 26.3 L 124.8 34.3 L 121.2 42.0 L 117.5 49.4 L 115.45604391098023 53.02802200317383 L 119.0 54.8 L 142.07872343063354 54.8 L 143.2 51.7 L 144.7 47.0 L 146.3 42.7 L 147.8 38.5 L 149.3 34.4 L 150.7 30.6 L 152.1 26.9 L 153.4 23.3 L 154.5 19.9 L 155.2808708190918 17.628375720977782 L 155.2 17.6 L 155.52584266662598 16.91573038101196 L 155.6 16.7 L 155.62357139587402 16.710499954223632 L 156.2 15.5 L 166.6 21.6 L 168.5 24.7 L 164.50444440841676 25.182222175598145 L 162.9 27.8 L 160.9 31.1 L 158.8 34.5 L 156.6 38.1 L 154.2 41.7 L 151.7 45.4 L 149.0 49.3 L 146.1 53.2 L 144.9 54.8 L 163.3 54.8 L 173.3 44.8 L 185.3 54.8 L 185.3 58.8 L 152.9 58.8 L 152.9 91.4 L 161.5 91.4 L 171.5 81.4 L 183.5 91.4 L 183.5 95.4 L 152.9 95.4 L 152.9 128.9 L 161.5 128.9 L 171.5 118.9 L 183.5 128.9 L 183.5 132.9 L 152.9 132.9 L 152.9 170.5 L 167.0 170.5 L 177.0 160.5 L 189.0 170.5 L 189.0 174.5 L 119.0 174.5 Z M 70.0 145.5 L 66.0 136.5 L 61.8 127.6 L 59.37198448181152 122.74396886825562 L 56.4 130.2 L 50.3 143.0 L 43.8 154.5 L 36.8 164.6 L 29.3 173.2 L 21.3 180.3 L 12.9 185.7 L 11.9 184.2 L 18.7 177.5 L 25.2 169.7 L 31.4 160.8 L 37.2 150.7 L 42.7 139.4 L 47.8 126.7 L 52.5 112.7 L 52.99105014801025 110.99248466491699 L 52.6 110.3 L 47.6 101.9 L 42.4 93.6 L 37.0 85.5 L 31.5 77.3 L 32.9 76.1 L 40.0 83.1 L 46.7 90.4 L 53.0 98.2 L 55.652755928039554 101.73700790405273 L 56.9 97.4 L 61.0 80.7 L 64.6 62.7 L 64.61368913650513 62.70278425216675 L 65.0 60.9 L 76.4 65.1 L 78.9 67.7 L 75.49177589416504 68.87738647460938 L 72.0 83.4 L 67.3 100.3 L 63.26377954483032 112.40866146087646 L 64.7 114.5 L 70.0 123.1 L 75.0 132.0 L 79.8 141.1 L 84.2 150.4 L 88.3 160.0 L 88.1 164.6 L 84.8 167.8 L 80.2 167.5 L 77.1 164.2 L 73.7 154.8 Z M 119.0 132.9 L 119.0 170.5 L 140.9 170.5 L 140.9 132.9 Z M 119.0 95.4 L 119.0 128.9 L 140.9 128.9 L 140.9 95.4 Z M 119.0 58.8 L 119.0 91.4 L 140.9 91.4 L 140.9 58.8 Z M 47.4 30.7 L 49.6 33.5 L 45.95305166244507 34.411737060546876 L 45.1 36.6 L 42.6 42.3 L 39.9 47.9 L 37.0 53.5 L 33.9 58.9 L 30.6 64.1 L 27.1 69.3 L 23.3 74.2 L 19.3 79.0 L 14.9 83.5 L 13.4 82.4 L 16.1 76.8 L 18.8 71.3 L 21.5 65.9 L 24.0 60.5 L 26.4 55.0 L 28.6 49.5 L 30.7 44.0 L 32.6 38.4 L 34.4 32.8 L 35.65957088470459 28.0136305809021 L 35.6 28.0 L 36.4 25.5 Z M 79.8 57.8 L 77.5 52.1 L 75.2 46.8 L 72.9 41.8 L 70.4 37.2 L 68.0 32.9 L 65.4 28.9 L 62.9 25.0 L 60.4 21.3 L 61.6 19.9 L 65.6 22.3 L 69.5 25.3 L 73.2 28.9 L 76.7 33.0 L 80.1 37.5 L 83.4 42.4 L 86.5 47.7 L 89.6 53.4 L 92.5 59.6 L 95.3 66.1 L 95.0 70.6 L 91.7 73.8 L 87.2 73.5 L 84.0 70.2 L 81.9 63.8 Z " />
</g>
</svg>
