<svg xmlns="http://www.w3.org/2000/svg" xmlns:xlink="http://www.w3.org/1999/xlink" version="1.1" baseProfile="full" viewBox="0 0 200 200" width="200" height="200">
<g fill="black">
<path d="M 95.6 143.4 L 157.1 143.4 L 163.1 138.4 L 174.1 147.4 L 169.1 151.4 L 169.1 181.2 L 157.1 187.2 L 157.1 179.2 L 95.6 179.2 L 95.6 182.2 L 83.6 188.2 L 83.6 137.4 Z M 95.6 147.4 L 95.6 175.2 L 157.1 175.2 L 157.1 147.4 Z M 169.1 129.4 L 166.7 126.5 L 166.10895519256593 125.8651741027832 L 158.7 127.1 L 147.1 128.7 L 136.1 130.2 L 125.5 131.5 L 115.4 132.7 L 105.8 133.8 L 96.7 134.8 L 88.1 135.7 L 79.9 136.5 L 76.3537844657898 136.87328586578369 L 74.4 140.2 L 72.3 137.3 L 69.62881507873536 125.52699966430664 L 67.5 128.5 L 62.3 135.9 L 57.5 142.4 L 53.2 148.3 L 49.6 153.4 L 46.5 157.9 L 44.1 161.6 L 42.2 164.6 L 41.517721557617186 166.02658224105835 L 43.3 168.7 L 44.9 172.8 L 45.7 177.2 L 45.8 182.0 L 43.4 185.9 L 39.0 187.1 L 35.1 184.8 L 33.9 180.3 L 34.5 177.4 L 34.6 174.7 L 34.3 172.3 L 33.6 169.9 L 32.3 167.6 L 30.4 165.3 L 27.7 163.1 L 24.2 160.9 L 20.1 158.8 L 15.1 157.2 L 15.4 155.4 L 20.8 156.0 L 25.8 156.7 L 30.3 158.0 L 32.85 159.14750003814697 L 33.5 158.4 L 36.1 155.5 L 39.2 152.1 L 43.0 148.1 L 47.4 143.4 L 52.5 138.2 L 58.2 132.4 L 64.7 126.0 L 71.9 119.2 L 73.3 120.4 L 69.7241997718811 125.39379005432129 L 71.6 125.3 L 79.2 125.2 L 87.4 125.0 L 91.73762931823731 124.8486873626709 L 95.0 120.4 L 98.3 116.1 L 101.4 112.0 L 104.3 108.0 L 107.0 104.2 L 109.5 100.5 L 111.8 96.8 L 113.8 93.3 L 115.7 89.9 L 115.72133502960205 89.91373043060302 L 116.2 89.1 L 125.8 96.4 L 127.3 99.7 L 123.30844354629517 99.56236009597778 L 123.2 99.7 L 120.4 103.2 L 117.4 106.6 L 114.1 110.1 L 110.7 113.6 L 107.0 117.1 L 103.0 120.6 L 98.8 124.1 L 98.0653060913086 124.65510206222534 L 105.2 124.5 L 114.8 124.2 L 125.0 123.9 L 135.6 123.6 L 146.7 123.4 L 158.4 123.3 L 163.67931032180786 123.3 L 160.9 120.7 L 157.6 117.8 L 153.9 114.8 L 149.8 111.8 L 145.5 108.7 L 140.9 105.6 L 141.6 104.0 L 147.1 105.6 L 152.2 107.4 L 157.1 109.4 L 161.6 111.7 L 165.8 114.0 L 169.8 116.6 L 173.5 119.2 L 176.8 122.1 L 179.9 125.1 L 182.7 128.2 L 183.7 132.7 L 181.3 136.6 L 176.8 137.5 L 172.9 135.1 L 171.2 132.2 Z M 34.9 131.0 L 33.5 129.8 L 31.7 128.5 L 29.6 127.1 L 24.2 124.4 L 21.0 123.0 L 17.4 121.4 L 13.5 120.3 L 13.8 118.5 L 17.9 118.9 L 21.9 119.0 L 25.5 119.2 L 28.9 119.6 L 32.0 120.0 L 34.9 120.6 L 37.6 121.3 L 40.1 122.1 L 42.4 123.1 L 44.6 124.4 L 46.4 128.6 L 44.8 132.9 L 40.6 134.7 L 36.3 133.1 L 35.8 132.1 Z M 49.2 105.8 L 47.8 104.5 L 46.0 103.2 L 43.9 101.8 L 41.5 100.5 L 38.8 99.1 L 35.8 97.6 L 32.5 96.1 L 28.9 95.0 L 29.2 93.3 L 33.0 93.7 L 36.7 93.7 L 40.2 94.0 L 43.4 94.3 L 46.4 94.8 L 49.3 95.4 L 51.9 96.1 L 54.4 96.9 L 56.7 97.8 L 58.9 99.0 L 60.9 103.1 L 59.5 107.5 L 55.4 109.5 L 51.0 108.1 L 50.3 107.0 Z M 13.5 71.0 L 12.6 66.5 L 15.1 62.7 L 17.0 61.6 L 18.8 60.2 L 20.6 58.4 L 22.3 56.1 L 23.8 53.4 L 25.2 50.1 L 26.5 46.4 L 27.6 42.2 L 28.5 37.5 L 29.1 32.4 L 30.9 32.4 L 31.5 37.6 L 31.855102062225342 40.5 L 94.0 40.5 L 94.0 25.1 L 34.0 25.1 L 34.0 21.1 L 148.0 21.1 L 158.0 11.1 L 170.0 21.1 L 170.0 25.1 L 106.0 25.1 L 106.0 40.5 L 173.0 40.5 L 173.55384616851808 40.0384614944458 L 173.7 39.6 L 173.9285223007202 39.72623138427734 L 179.0 35.5 L 190.0 44.5 L 185.0 47.5 L 181.25628738403321 49.05988025665283 L 180.9 49.5 L 179.2 51.5 L 177.4 53.5 L 173.6 57.3 L 171.7 59.1 L 167.5 62.5 L 165.7 64.3 L 164.2 63.2 L 165.6 61.0 L 166.5 58.5 L 167.5 56.1 L 168.4 53.7 L 169.4 51.3 L 170.3 49.0 L 171.2 46.6 L 171.93043479919433 44.5 L 106.0 44.5 L 106.0 87.6 L 94.0 93.6 L 94.0 44.5 L 32.14255323410034 44.5 L 32.2 47.2 L 32.0 51.6 L 31.3 55.8 L 30.3 59.7 L 28.9 63.4 L 27.0 66.8 L 24.6 69.9 L 21.8 72.6 L 17.3 73.5 Z M 168.0 79.4 L 168.0 83.4 L 116.0 83.4 L 116.0 79.4 L 146.0 79.4 L 156.0 69.4 Z M 84.0 79.4 L 84.0 83.4 L 32.0 83.4 L 32.0 79.4 L 62.0 79.4 L 72.0 69.4 Z M 161.0 60.9 L 161.0 64.9 L 116.0 64.9 L 116.0 60.9 L 142.8181818008423 60.9 L 151.0 51.9 Z M 84.0 60.9 L 84.0 64.9 L 37.0 64.9 L 37.0 60.9 L 65.81818180084228 60.9 L 74.0 51.9 Z " />
</g>
</svg>
