<svg xmlns="http://www.w3.org/2000/svg" xmlns:xlink="http://www.w3.org/1999/xlink" version="1.1" baseProfile="full" viewBox="0 0 200 200" width="200" height="200">
<g fill="black">
<path d="M 65.0 156.0 L 84.2 156.0 L 94.2 146.0 L 106.2 156.0 L 106.2 160.0 L 65.0 160.0 L 65.0 184.3 L 55.0 189.3 L 55.0 160.0 L 13.8 160.0 L 13.8 156.0 L 55.0 156.0 L 55.0 131.2 L 18.7 131.2 L 18.7 127.2 L 32.5 127.2 L 32.5 98.4 L 13.2 98.4 L 13.2 94.4 L 32.5 94.4 L 32.5 65.6 L 21.5 65.6 L 21.5 61.6 L 76.5 61.6 L 86.5 51.6 L 98.5 61.6 L 98.5 65.6 L 87.5 65.6 L 87.5 94.4 L 92.4777777671814 94.4 L 98.7 87.4 L 106.7 94.4 L 106.7 98.4 L 87.5 98.4 L 87.5 127.2 L 90.7 127.2 L 95.2 121.2 L 101.2 127.2 L 101.2 131.2 L 65.0 131.2 Z M 126.5 181.0 L 114.5 187.0 L 114.5 69.31999998092651 L 113.7 70.6 L 109.4 76.6 L 104.9 82.3 L 100.1 87.5 L 98.6 86.4 L 104.9 73.8 L 107.9 67.4 L 110.9 60.7 L 113.8 53.9 L 114.5 52.059259223937985 L 114.5 50.0 L 115.15798816680908 50.32899408340454 L 116.5 46.8 L 119.1 39.5 L 121.5 32.0 L 123.8 24.2 L 125.6355993270874 17.20724058151245 L 125.6 17.2 L 125.85531911849975 16.370212745666503 L 125.9 16.2 L 125.90705089569092 16.202084636688234 L 126.4 14.6 L 137.4 19.6 L 139.7 22.3 L 136.13673467636107 23.254446029663086 L 134.6 27.7 L 131.6 35.6 L 128.4 43.2 L 125.0 50.5 L 123.05681819915772 54.27840909957886 L 126.5 56.0 L 146.27659578323363 56.0 L 147.2 52.9 L 148.5 48.4 L 149.8 44.1 L 151.1 40.0 L 152.4 36.0 L 153.6 32.2 L 154.8 28.6 L 155.9 25.1 L 156.9 21.8 L 157.53499002456664 19.54225778579712 L 157.4 19.5 L 158.3 17.3 L 168.9 23.1 L 170.9 26.1 L 166.97037706375122 26.720466804504394 L 165.6 29.3 L 163.7 32.5 L 161.8 35.9 L 159.8 39.3 L 157.6 42.9 L 155.3 46.6 L 152.8 50.4 L 150.1 54.3 L 148.95249996185302 56.0 L 162.9 56.0 L 172.9 46.0 L 184.9 56.0 L 184.9 60.0 L 156.7 60.0 L 156.7 92.0 L 161.3 92.0 L 171.3 82.0 L 183.3 92.0 L 183.3 96.0 L 156.7 96.0 L 156.7 129.0 L 161.3 129.0 L 171.3 119.0 L 183.3 129.0 L 183.3 133.0 L 156.7 133.0 L 156.7 170.0 L 166.2 170.0 L 176.2 160.0 L 188.2 170.0 L 188.2 174.0 L 126.5 174.0 Z M 126.5 133.0 L 126.5 170.0 L 144.7 170.0 L 144.7 133.0 Z M 126.5 96.0 L 126.5 129.0 L 144.7 129.0 L 144.7 96.0 Z M 43.5 98.4 L 43.5 127.2 L 55.0 127.2 L 55.0 98.4 Z M 65.0 98.4 L 65.0 127.2 L 76.5 127.2 L 76.5 98.4 Z M 43.5 65.6 L 43.5 94.4 L 55.0 94.4 L 55.0 65.6 Z M 65.0 65.6 L 65.0 94.4 L 76.5 94.4 L 76.5 65.6 Z M 126.5 60.0 L 126.5 92.0 L 144.7 92.0 L 144.7 60.0 Z M 81.4 14.4 L 84.4 16.4 L 81.4 18.2 L 81.4 32.3 L 85.8 32.3 L 95.8 22.3 L 107.8 32.3 L 107.8 36.3 L 81.4 36.3 L 81.4 51.5 L 69.4 57.5 L 69.4 36.3 L 50.6 36.3 L 50.6 51.5 L 38.6 57.5 L 38.6 36.3 L 12.1 36.3 L 12.1 32.3 L 38.6 32.3 L 38.6 12.4 L 50.6 14.4 L 53.6 16.4 L 50.6 18.2 L 50.6 32.3 L 69.4 32.3 L 69.4 12.4 Z " />
</g>
</svg>
