<svg xmlns="http://www.w3.org/2000/svg" xmlns:xlink="http://www.w3.org/1999/xlink" version="1.1" baseProfile="full" viewBox="0 0 200 200" width="200" height="200">
<g fill="black">
<path d="M 52.9 182.1 L 40.9 188.1 L 40.9 111.81999998092651 L 38.8 115.3 L 34.9 120.8 L 30.8 126.0 L 29.525203227996826 125.28292684555053 L 28.5 133.8 L 26.8 144.0 L 24.9 153.6 L 22.6 162.6 L 20.0 170.8 L 16.9 178.4 L 13.3 185.3 L 11.7 184.6 L 13.3 177.3 L 14.8 169.5 L 16.2 161.1 L 17.4 152.3 L 18.4 142.9 L 19.2 132.9 L 19.8 122.3 L 20.1 111.1 L 20.2 99.3 L 20.0 87.0 L 20.0 17.0 L 32.0 23.0 L 89.1 23.0 L 95.1 18.0 L 106.1 27.0 L 101.1 31.0 L 101.1 56.0 L 89.1 62.0 L 89.1 56.0 L 32.0 56.0 L 32.0 87.0 L 31.6 99.6 L 30.8 111.6 L 29.8 123.0 L 29.703919410705566 123.79820833206176 L 31.6 118.9 L 34.0 112.8 L 36.3 106.7 L 38.6 100.5 L 40.7 94.2 L 40.9 93.56000003814697 L 40.9 84.4 L 43.30810813903808 85.60405406951904 L 44.5 81.3 L 46.1 74.7 L 47.6 68.0 L 49.0 61.1 L 49.01361255645752 61.103141403198244 L 49.4 59.3 L 60.7 63.8 L 63.2 66.4 L 59.62921352386475 67.54775276184083 L 58.7 70.8 L 56.4 77.7 L 54.0 84.4 L 51.81666669845581 89.85833330154419 L 52.9 90.4 L 69.0777777671814 90.4 L 69.8 88.4 L 70.7 84.9 L 71.6 81.5 L 72.4 78.2 L 73.2 75.1 L 73.9 72.2 L 74.5 69.4 L 75.0 66.8 L 75.5 64.4 L 75.67013387680053 63.0389289855957 L 75.5 63.0 L 75.78717947006226 62.10256414413452 L 75.8 62.0 L 75.81813306808472 62.005834102630615 L 76.3 60.5 L 87.3 65.7 L 89.5 68.5 L 85.3117597579956 69.45521268844604 L 84.8 70.4 L 83.4 72.9 L 81.8 75.5 L 80.2 78.2 L 78.4 80.9 L 76.5 83.7 L 74.5 86.7 L 72.2 89.6 L 71.675 90.4 L 81.41818180084229 90.4 L 89.6 81.4 L 99.6 90.4 L 99.6 94.4 L 77.9 94.4 L 77.9 117.1 L 82.27777776718139 117.1 L 88.5 110.1 L 96.5 117.1 L 96.5 121.1 L 77.9 121.1 L 77.9 143.0 L 82.27777776718139 143.0 L 88.5 136.0 L 96.5 143.0 L 96.5 147.0 L 77.9 147.0 L 77.9 171.1 L 80.6 171.1 L 90.6 161.1 L 102.6 171.1 L 102.6 175.1 L 52.9 175.1 Z M 166.3 176.3 L 161.0 170.1 L 156.4 163.6 L 152.7 156.7 L 149.8 149.5 L 147.8 141.9 L 147.05482864379883 137.11848392486573 L 146.9 137.9 L 143.7 147.6 L 139.2 156.4 L 133.6 164.3 L 126.9 171.1 L 119.1 176.9 L 110.3 181.7 L 100.5 185.3 L 89.7 187.8 L 89.2 186.1 L 99.1 181.8 L 107.8 176.9 L 115.3 171.6 L 121.6 165.7 L 126.9 159.1 L 131.1 152.0 L 134.3 144.1 L 136.4 135.5 L 137.6 126.1 L 137.9 116.0 L 137.9 93.0 L 149.9 95.0 L 152.9 97.0 L 149.9 98.8 L 149.9 116.0 L 149.52377967834474 120.72365455627441 L 150.5 125.8 L 152.4 133.1 L 153.19422426223755 135.4481412887573 L 153.4 135.2 L 156.4 131.3 L 159.5 127.6 L 162.3 124.1 L 165.1 120.7 L 167.6 117.6 L 170.0 114.6 L 172.3 111.8 L 174.3 109.1 L 175.5580807685852 107.44463052749634 L 175.5 107.4 L 176.5 106.2 L 185.0 114.7 L 185.8 118.3 L 181.83256702423097 117.46475095748902 L 179.9 119.1 L 177.0 121.5 L 174.0 124.0 L 170.7 126.5 L 167.3 129.2 L 163.6 132.0 L 159.8 134.8 L 155.6 137.6 L 154.242418384552 138.54714994430543 L 154.7 139.9 L 157.5 146.3 L 160.9 152.2 L 164.8 157.8 L 169.4 162.9 L 174.5 167.8 L 180.2 172.3 L 186.6 176.4 L 190.4 178.9 L 179.3 187.5 L 172.4 182.1 Z M 52.9 147.0 L 52.9 171.1 L 65.9 171.1 L 65.9 147.0 Z M 110.1 143.9 L 108.8 139.5 L 110.8 135.4 L 112.2 134.6 L 113.6 133.4 L 114.9 131.8 L 116.2 129.7 L 117.3 127.2 L 118.3 124.2 L 119.1 120.8 L 119.7 117.0 L 120.2 112.7 L 120.1 108.1 L 121.9 107.8 L 122.9 112.5 L 124.0 116.8 L 124.6 121.0 L 124.9 125.0 L 124.9 128.7 L 124.5 132.3 L 123.7 135.7 L 122.4 138.9 L 120.7 141.9 L 118.6 144.6 L 114.2 145.9 Z M 52.9 121.1 L 52.9 143.0 L 65.9 143.0 L 65.9 121.1 Z M 52.9 94.4 L 52.9 117.1 L 65.9 117.1 L 65.9 94.4 Z M 139.1 58.9 L 138.3 57.4 L 137.3 55.7 L 136.0 54.0 L 134.6 52.2 L 133.0 50.4 L 131.1 48.4 L 129.2 46.3 L 129.19134950637817 46.29411764144898 L 129.1 46.4 L 124.5 51.2 L 119.6 55.7 L 117.51186437606812 57.42672748565674 L 119.7 58.1 L 122.2 59.1 L 126.8 61.5 L 128.9 62.8 L 132.9 65.8 L 134.7 67.5 L 136.4 69.3 L 137.1 73.8 L 134.5 77.5 L 130.0 78.3 L 126.3 75.7 L 125.6 74.0 L 124.9 72.2 L 124.0 70.5 L 123.0 68.7 L 121.8 66.9 L 120.5 65.0 L 119.1 63.2 L 117.6 61.2 L 115.9 59.2 L 115.62282419204712 58.98881845474243 L 114.4 60.0 L 108.9 63.8 L 103.0 67.3 L 101.9 65.8 L 106.4 60.9 L 110.8 56.0 L 114.9 51.2 L 118.8 46.2 L 122.5 41.1 L 125.9 35.9 L 129.1 30.5 L 132.0 25.1 L 134.6 19.4 L 136.62408876419067 14.508452224731446 L 136.6 14.5 L 136.81052627563477 14.057894706726074 L 137.0 13.6 L 137.02357139587403 13.610499954223632 L 137.6 12.4 L 148.0 18.5 L 149.9 21.5 L 146.15469341278077 21.95994997024536 L 144.8 24.5 L 141.3 30.4 L 140.74727268218993 31.2 L 167.9 31.2 L 173.9 26.2 L 184.9 35.2 L 179.9 38.2 L 177.58401136398317 39.16499528884888 L 173.9 46.6 L 168.0 56.8 L 161.4 66.3 L 154.4 74.9 L 146.8 82.8 L 138.7 89.8 L 130.1 95.9 L 121.0 101.1 L 111.4 105.4 L 101.4 108.6 L 100.7 106.9 L 109.8 102.0 L 118.3 96.5 L 126.3 90.6 L 133.8 84.0 L 140.7 76.8 L 147.2 69.0 L 153.2 60.5 L 158.7 51.3 L 163.8 41.5 L 166.53396224975586 35.2 L 137.98363637924194 35.2 L 137.5 35.9 L 133.5 41.3 L 130.782559967041 44.44975996017456 L 133.2 45.2 L 135.8 46.2 L 138.3 47.2 L 140.6 48.4 L 142.8 49.5 L 144.9 50.8 L 146.8 52.1 L 150.2 55.1 L 150.9 59.6 L 148.4 63.4 L 143.9 64.2 L 140.1 61.6 L 139.7 60.3 Z M 32.0 27.0 L 32.0 52.0 L 89.1 52.0 L 89.1 27.0 Z " />
</g>
</svg>
