<svg xmlns="http://www.w3.org/2000/svg" xmlns:xlink="http://www.w3.org/1999/xlink" version="1.1" baseProfile="full" viewBox="0 0 200 200" width="200" height="200">
<g fill="black">
<path d="M 57.0 142.4 L 125.0 142.4 L 131.0 137.4 L 142.0 146.4 L 137.0 150.4 L 137.0 183.2 L 125.0 189.2 L 125.0 146.4 L 56.9 146.4 L 55.8 152.9 L 53.8 158.9 L 51.1 164.5 L 47.5 169.6 L 43.3 174.1 L 38.4 178.0 L 32.8 181.5 L 26.6 184.3 L 19.7 186.5 L 12.2 188.1 L 11.7 186.4 L 18.3 183.0 L 24.1 179.5 L 29.2 175.9 L 33.5 172.2 L 37.1 168.2 L 40.0 164.2 L 42.1 159.9 L 43.7 155.4 L 44.6 150.7 L 45.0 145.6 L 45.0 92.8 L 57.0 94.8 L 60.0 96.8 L 57.0 98.6 L 57.0 120.9 L 110.0 120.9 L 110.0 92.8 L 122.0 94.8 L 125.0 96.8 L 122.0 98.6 L 122.0 120.9 L 166.0 120.9 L 176.0 110.9 L 188.0 120.9 L 188.0 124.9 L 57.0 124.9 Z M 13.4 69.1 L 12.6 64.6 L 15.1 60.8 L 17.1 59.8 L 18.9 58.4 L 20.6 56.7 L 22.3 54.5 L 23.9 51.9 L 25.3 48.7 L 26.5 45.1 L 27.6 41.1 L 28.6 36.5 L 29.1 31.6 L 30.9 31.5 L 31.5 36.6 L 31.85 39.4 L 94.0 39.4 L 94.0 24.5 L 34.0 24.5 L 34.0 20.5 L 148.0 20.5 L 158.0 10.5 L 170.0 20.5 L 170.0 24.5 L 106.0 24.5 L 106.0 39.4 L 173.0 39.4 L 173.4959183692932 38.98673467636108 L 173.7 38.4 L 173.99863481521606 38.56780433654785 L 179.0 34.4 L 190.0 43.4 L 185.0 46.4 L 181.15225811004638 48.003225803375244 L 180.9 48.3 L 175.5 54.0 L 173.6 55.8 L 171.7 57.5 L 169.6 59.2 L 167.5 60.8 L 165.7 62.6 L 164.2 61.5 L 165.6 59.3 L 166.5 56.9 L 167.5 54.5 L 168.4 52.2 L 169.4 49.9 L 171.94347829818724 43.4 L 106.0 43.4 L 106.0 85.2 L 94.0 91.2 L 94.0 43.4 L 32.143478298187254 43.4 L 32.2 46.0 L 31.9 50.3 L 31.3 54.4 L 30.3 58.2 L 28.8 61.8 L 26.9 65.1 L 24.6 68.2 L 21.8 70.8 L 17.3 71.6 Z M 84.0 77.2 L 84.0 81.2 L 32.0 81.2 L 32.0 77.2 L 62.0 77.2 L 72.0 67.2 Z M 168.0 77.2 L 168.0 81.2 L 116.0 81.2 L 116.0 77.2 L 146.0 77.2 L 156.0 67.2 Z M 161.0 59.2 L 161.0 63.2 L 116.0 63.2 L 116.0 59.2 L 142.8181818008423 59.2 L 151.0 50.2 Z M 84.0 59.2 L 84.0 63.2 L 37.0 63.2 L 37.0 59.2 L 65.81818180084228 59.2 L 74.0 50.2 Z " />
</g>
</svg>
