<svg xmlns="http://www.w3.org/2000/svg" xmlns:xlink="http://www.w3.org/1999/xlink" version="1.1" baseProfile="full" viewBox="0 0 200 200" width="200" height="200">
<g fill="black">
<path d="M 78.5 118.0 L 78.5 101.0 L 41.6 101.0 L 41.6 114.0 L 41.31764707565308 118.0 Z M 124.2 181.0 L 112.2 187.0 L 112.2 68.7268292427063 L 111.0 70.6 L 106.6 76.7 L 102.0 82.3 L 97.0 87.5 L 95.6 86.4 L 98.9 80.1 L 102.1 73.8 L 105.3 67.3 L 108.4 60.7 L 111.3 53.8 L 112.2 51.55 L 112.2 50.0 L 112.71666669845581 50.25833330154419 L 114.1 46.8 L 116.8 39.5 L 119.3 32.0 L 121.7 24.2 L 123.64960956573486 17.110510540008544 L 123.6 17.1 L 124.4 14.6 L 135.4 19.6 L 137.7 22.4 L 134.09676666259764 23.285004711151124 L 132.5 27.8 L 129.4 35.6 L 126.1 43.2 L 122.6 50.5 L 120.67727270126343 54.23863639831543 L 124.2 56.0 L 144.68913040161132 56.0 L 145.7 52.9 L 147.1 48.4 L 148.5 44.1 L 149.8 39.9 L 151.1 36.0 L 152.4 32.2 L 153.6 28.5 L 155.8 21.7 L 156.47944250106812 19.525784015655518 L 156.4 19.5 L 156.77058820724488 18.594117641448975 L 156.8 18.5 L 156.80773830413818 18.50330638885498 L 157.3 17.3 L 167.8 23.2 L 169.8 26.2 L 165.8865779876709 26.739782333374023 L 164.4 29.3 L 162.5 32.5 L 160.6 35.9 L 158.5 39.4 L 156.2 43.0 L 153.9 46.7 L 151.4 50.5 L 148.6 54.3 L 147.43902435302735 56.0 L 162.5 56.0 L 172.5 46.0 L 184.5 56.0 L 184.5 60.0 L 155.2 60.0 L 155.2 92.0 L 160.8 92.0 L 170.8 82.0 L 182.8 92.0 L 182.8 96.0 L 155.2 96.0 L 155.2 129.0 L 160.8 129.0 L 170.8 119.0 L 182.8 129.0 L 182.8 133.0 L 155.2 133.0 L 155.2 170.0 L 165.9 170.0 L 175.9 160.0 L 187.9 170.0 L 187.9 174.0 L 124.2 174.0 Z M 45.9 144.8 L 45.9 171.1 L 79.8 171.1 L 79.8 144.8 Z M 124.2 133.0 L 124.2 170.0 L 143.2 170.0 L 143.2 133.0 Z M 124.2 96.0 L 124.2 129.0 L 143.2 129.0 L 143.2 96.0 Z M 41.6 80.0 L 41.6 97.0 L 78.5 97.0 L 78.5 80.0 Z M 124.2 60.0 L 124.2 92.0 L 143.2 92.0 L 143.2 60.0 Z M 84.0 50.8 L 81.7 47.8 L 79.0 44.8 L 76.0 41.7 L 72.6 38.6 L 68.8 35.4 L 64.7 32.1 L 60.3 28.7 L 59.97780303955078 28.460066032409667 L 56.9 34.3 L 52.7 41.5 L 48.1 48.3 L 43.2 54.7 L 37.9 60.7 L 32.3 66.4 L 26.4 71.7 L 20.0 76.4 L 13.3 80.7 L 12.2 79.2 L 17.5 73.6 L 22.6 67.8 L 27.5 62.0 L 32.0 55.9 L 36.3 49.7 L 40.3 43.2 L 44.0 36.5 L 47.4 29.5 L 50.4 22.2 L 53.2 14.7 L 53.258926677703855 14.72262363433838 L 53.8 13.4 L 64.4 19.0 L 66.5 22.0 L 62.73728094100952 22.648744678497316 L 61.48994827270508 25.38594675064087 L 62.1 25.6 L 67.4 27.7 L 72.3 30.0 L 76.9 32.5 L 81.2 35.2 L 85.1 37.9 L 88.7 40.8 L 92.0 43.8 L 95.0 46.9 L 97.7 50.2 L 98.4 54.7 L 95.8 58.5 L 91.3 59.2 L 87.6 56.6 L 86.0 53.8 Z M 82.8 58.0 L 82.8 62.0 L 40.4 62.0 L 40.4 58.0 L 64.61818180084228 58.0 L 72.8 49.0 Z M 41.6 76.0 L 78.5 76.0 L 84.5 71.0 L 95.5 80.0 L 90.5 84.0 L 90.5 124.0 L 78.5 130.0 L 78.5 122.0 L 41.035294151306154 122.0 L 41.0 122.5 L 40.0 130.6 L 38.635294151306155 137.16764707565306 L 45.9 140.8 L 79.8 140.8 L 85.8 135.8 L 96.8 144.8 L 91.8 148.8 L 91.8 179.1 L 79.8 185.1 L 79.8 175.1 L 45.9 175.1 L 45.9 182.1 L 33.9 188.1 L 33.9 152.1384614944458 L 33.8 152.4 L 30.8 158.7 L 27.2 164.6 L 23.1 169.9 L 18.5 174.6 L 13.4 178.6 L 12.1 177.3 L 15.6 172.1 L 18.7 166.8 L 21.5 161.3 L 23.9 155.6 L 25.8 149.5 L 27.4 143.1 L 28.6 136.4 L 29.3 129.3 L 29.6 121.8 L 29.6 70.0 Z " />
</g>
</svg>
