<svg xmlns="http://www.w3.org/2000/svg" xmlns:xlink="http://www.w3.org/1999/xlink" version="1.1" baseProfile="full" viewBox="0 0 200 200" width="200" height="200">
<g fill="black">
<path d="M 159.2 181.1 L 152.9 178.4 L 147.0 175.5 L 141.6 172.3 L 136.8 169.0 L 132.5 165.4 L 128.9 161.5 L 126.0 157.53666667938234 L 126.0 182.3 L 114.0 188.3 L 114.0 153.7 L 86.0 153.7 L 86.0 182.3 L 74.0 188.3 L 74.0 163.14615383148194 L 71.2 165.3 L 65.6 169.0 L 59.7 172.4 L 53.4 175.5 L 46.9 178.2 L 40.0 180.7 L 32.7 182.7 L 25.1 184.4 L 17.2 185.6 L 16.7 183.8 L 24.0 180.7 L 30.9 177.7 L 37.5 174.6 L 43.7 171.3 L 49.5 168.0 L 54.9 164.4 L 59.9 160.7 L 64.5 156.9 L 67.86000003814698 153.7 L 41.0 153.7 L 41.0 149.7 L 71.6714285850525 149.7 L 72.6 148.7 L 73.64819278717042 149.7 L 74.0 149.7 L 74.0 138.3 L 16.0 138.3 L 16.0 134.3 L 74.0 134.3 L 74.0 121.8 L 41.0 121.8 L 41.0 117.8 L 74.0 117.8 L 74.0 108.2 L 31.0 108.2 L 31.0 104.2 L 74.0 104.2 L 74.0 95.86666669845582 L 69.4 96.2 L 61.8 96.6 L 53.5 97.0 L 44.6 97.1 L 35.0 97.1 L 34.9 95.3 L 44.2 93.4 L 52.9 91.6 L 61.0 90.1 L 68.4 88.7 L 75.1 87.3 L 81.2 86.0 L 86.5 84.8 L 91.2 83.5 L 95.2 82.4 L 97.42446603775025 81.56582527160644 L 97.4 81.5 L 97.46176471710206 81.55183820724487 L 98.4 81.2 L 98.80897436141967 82.68253202438355 L 108.6 90.9 L 108.79628381729125 92.86283779144287 L 114.9 91.6 L 123.0 90.1 L 130.4 88.7 L 137.1 87.3 L 143.2 86.0 L 148.5 84.8 L 153.2 83.5 L 157.2 82.4 L 159.42446603775025 81.56582527160644 L 159.4 81.5 L 159.46176471710206 81.55183820724487 L 160.4 81.2 L 160.80897436141967 82.68253202438355 L 170.6 90.9 L 170.9 93.9 L 166.67058820724486 91.96655464172363 L 163.6 92.8 L 159.7 93.5 L 155.3 94.1 L 150.3 94.7 L 144.6 95.2 L 138.3 95.7 L 131.4 96.2 L 123.8 96.6 L 122.71401872634888 96.65233640670776 L 126.0 97.2 L 129.0 99.2 L 126.0 101.0 L 126.0 104.2 L 160.8181818008423 104.2 L 169.0 95.2 L 179.0 104.2 L 179.0 108.2 L 126.0 108.2 L 126.0 117.8 L 145.0 117.8 L 151.0 112.8 L 162.0 121.8 L 157.0 125.8 L 157.0 134.3 L 167.8181818008423 134.3 L 176.0 125.3 L 186.0 134.3 L 186.0 138.3 L 157.0 138.3 L 157.0 155.7 L 145.0 161.7 L 145.0 153.7 L 127.76666669845581 153.7 L 129.0 154.6 L 132.8 157.1 L 136.9 159.6 L 141.3 161.9 L 146.0 164.1 L 151.2 166.2 L 156.9 168.1 L 163.0 169.9 L 169.5 171.5 L 176.5 173.0 L 185.2 175.0 L 173.4 185.8 L 166.1 183.5 Z M 86.0 138.3 L 86.0 149.7 L 114.0 149.7 L 114.0 138.3 Z M 126.0 138.3 L 126.0 149.7 L 145.0 149.7 L 145.0 138.3 Z M 86.0 121.8 L 86.0 134.3 L 114.0 134.3 L 114.0 121.8 Z M 126.0 121.8 L 126.0 134.3 L 145.0 134.3 L 145.0 121.8 Z M 86.0 108.2 L 86.0 117.8 L 114.0 117.8 L 114.0 108.2 Z M 101.6 92.8 L 97.7 93.5 L 93.3 94.1 L 88.3 94.7 L 84.04137935638428 95.0735631942749 L 86.0 95.4 L 89.0 97.4 L 86.0 99.2 L 86.0 104.2 L 114.0 104.2 L 114.0 97.01685390472412 L 106.6 97.1 L 97.0 97.1 L 96.9 95.3 L 106.2 93.4 L 107.30578632354737 93.17121658325195 L 104.67058820724488 91.96655464172363 Z M 13.4 64.6 L 12.8 60.1 L 15.4 56.4 L 17.3 55.5 L 19.1 54.4 L 20.8 52.9 L 22.5 51.1 L 24.0 48.8 L 25.4 46.0 L 26.6 42.8 L 27.7 39.2 L 28.7 35.2 L 29.1 30.7 L 30.9 30.6 L 31.4 35.2 L 31.7 37.4 L 94.0 37.4 L 94.0 24.3 L 34.0 24.3 L 34.0 20.3 L 151.8181818008423 20.3 L 160.0 11.3 L 170.0 20.3 L 170.0 24.3 L 106.0 24.3 L 106.0 37.4 L 173.0 37.4 L 173.55813951492308 36.93488368988037 L 173.8 36.3 L 174.09988803863524 36.48342666625977 L 179.0 32.4 L 190.0 41.4 L 185.0 44.4 L 180.7129771232605 46.18625955581665 L 180.7 46.2 L 179.0 47.9 L 177.2 49.6 L 175.4 51.2 L 173.5 52.8 L 171.6 54.3 L 169.5 55.8 L 167.4 57.1 L 165.6 58.8 L 164.3 57.6 L 165.6 55.6 L 166.6 53.3 L 167.6 51.1 L 168.6 49.0 L 169.5 46.8 L 171.81428575515747 41.4 L 106.0 41.4 L 106.0 73.9 L 94.0 79.9 L 94.0 41.4 L 32.04390239715576 41.4 L 32.1 43.7 L 31.9 47.7 L 31.2 51.4 L 30.2 55.0 L 28.7 58.3 L 26.8 61.4 L 24.4 64.2 L 21.6 66.7 L 17.1 67.3 Z M 168.0 71.7 L 168.0 75.7 L 116.0 75.7 L 116.0 71.7 L 149.8181818008423 71.7 L 158.0 62.7 Z M 84.0 71.7 L 84.0 75.7 L 32.0 75.7 L 32.0 71.7 L 65.81818180084228 71.7 L 74.0 62.7 Z M 161.0 55.4 L 161.0 59.4 L 116.0 59.4 L 116.0 55.4 L 142.8181818008423 55.4 L 151.0 46.4 Z M 84.0 55.4 L 84.0 59.4 L 37.0 59.4 L 37.0 55.4 L 65.81818180084228 55.4 L 74.0 46.4 Z " />
</g>
</svg>
