<svg xmlns="http://www.w3.org/2000/svg" xmlns:xlink="http://www.w3.org/1999/xlink" version="1.1" baseProfile="full" viewBox="0 0 200 200" width="200" height="200">
<g fill="black">
<path d="M 14.0 180.0 L 94.0 180.0 L 94.0 156.8 L 43.0 156.8 L 43.0 152.8 L 94.0 152.8 L 94.0 135.0 L 37.0 135.0 L 37.0 131.0 L 148.7777777671814 131.0 L 155.0 124.0 L 163.0 131.0 L 163.0 135.0 L 106.0 135.0 L 106.0 152.8 L 138.8181818008423 152.8 L 147.0 143.8 L 157.0 152.8 L 157.0 156.8 L 106.0 156.8 L 106.0 180.0 L 164.0 180.0 L 174.0 170.0 L 186.0 180.0 L 186.0 184.0 L 14.0 184.0 Z M 139.7 175.7 L 138.3 174.2 L 136.7 172.7 L 134.9 171.1 L 132.8 169.4 L 130.6 167.7 L 128.2 165.9 L 125.5 164.0 L 122.6 162.5 L 123.2 160.8 L 126.5 161.8 L 129.7 162.3 L 132.8 163.0 L 135.7 163.8 L 138.4 164.6 L 141.0 165.4 L 143.4 166.4 L 145.7 167.4 L 147.8 168.5 L 149.8 169.6 L 151.7 173.8 L 150.2 178.1 L 146.0 180.0 L 141.7 178.5 L 140.8 177.1 Z M 35.5 89.7 L 55.9 89.7 L 61.4 84.7 L 71.9 93.7 L 66.9 97.2 L 66.9 116.6 L 55.9 122.1 L 55.9 114.6 L 35.5 114.6 L 35.5 117.6 L 23.5 123.6 L 23.5 83.7 Z M 144.0 89.7 L 164.5 89.7 L 170.5 84.7 L 181.5 93.7 L 176.5 97.7 L 176.5 116.6 L 164.5 122.6 L 164.5 114.6 L 144.0 114.6 L 144.0 117.6 L 133.0 123.1 L 133.0 84.2 Z M 89.5 89.7 L 110.4 89.7 L 115.9 84.7 L 126.4 93.7 L 121.4 97.2 L 121.4 116.6 L 110.4 122.1 L 110.4 114.6 L 89.5 114.6 L 89.5 117.6 L 78.5 123.1 L 78.5 84.2 Z M 144.0 93.7 L 144.0 110.6 L 164.5 110.6 L 164.5 93.7 Z M 89.5 93.7 L 89.5 110.6 L 110.4 110.6 L 110.4 93.7 Z M 35.5 93.7 L 35.5 110.6 L 55.9 110.6 L 55.9 93.7 Z M 13.4 64.7 L 12.8 60.2 L 15.4 56.5 L 17.3 55.6 L 19.1 54.5 L 20.8 53.0 L 22.5 51.1 L 24.0 48.8 L 25.4 46.1 L 26.6 42.9 L 27.7 39.3 L 28.7 35.2 L 29.1 30.7 L 30.9 30.7 L 31.4 35.2 L 31.71363639831543 37.5 L 94.0 37.5 L 94.0 24.3 L 34.0 24.3 L 34.0 20.3 L 151.8181818008423 20.3 L 160.0 11.3 L 170.0 20.3 L 170.0 24.3 L 106.0 24.3 L 106.0 37.5 L 173.0 37.5 L 173.50232553482056 37.08139533996582 L 173.8 36.3 L 174.1690929412842 36.525755882263184 L 179.0 32.5 L 190.0 41.5 L 185.0 44.5 L 180.54285717010498 46.35714282989502 L 179.0 47.9 L 175.4 51.3 L 173.5 52.8 L 171.6 54.4 L 167.4 57.2 L 165.6 58.8 L 164.3 57.6 L 165.6 55.7 L 166.6 53.4 L 168.6 49.0 L 170.4 44.8 L 171.3 42.6 L 171.7714285850525 41.5 L 106.0 41.5 L 106.0 78.9 L 94.0 84.9 L 94.0 41.5 L 32.04523811340332 41.5 L 32.1 43.8 L 31.9 47.7 L 31.2 51.5 L 30.2 55.1 L 28.7 58.4 L 26.8 61.5 L 24.4 64.3 L 21.6 66.8 L 17.1 67.4 Z M 84.0 71.8 L 84.0 75.8 L 32.0 75.8 L 32.0 71.8 L 65.81818180084228 71.8 L 74.0 62.8 Z M 168.0 71.8 L 168.0 75.8 L 116.0 75.8 L 116.0 71.8 L 149.8181818008423 71.8 L 158.0 62.8 Z M 161.0 55.4 L 161.0 59.4 L 116.0 59.4 L 116.0 55.4 L 142.8181818008423 55.4 L 151.0 46.4 Z M 84.0 55.4 L 84.0 59.4 L 37.0 59.4 L 37.0 55.4 L 65.81818180084228 55.4 L 74.0 46.4 Z " />
</g>
</svg>
