<svg xmlns="http://www.w3.org/2000/svg" xmlns:xlink="http://www.w3.org/1999/xlink" version="1.1" baseProfile="full" viewBox="0 0 200 200" width="200" height="200">
<g fill="black">
<path d="M 37.4 188.3 L 33.5 185.9 L 32.4 181.5 L 32.9 179.2 L 33.1 177.2 L 32.9 175.3 L 32.3 173.4 L 31.2 171.5 L 29.3 169.4 L 26.7 167.4 L 23.4 165.5 L 19.4 163.5 L 14.6 162.2 L 14.9 160.4 L 20.0 160.9 L 24.8 161.4 L 29.0 162.4 L 31.428301906585695 163.2716980934143 L 32.2 162.5 L 34.6 160.0 L 37.7 157.1 L 41.3 153.6 L 45.5 149.7 L 50.3 145.2 L 55.8 140.3 L 62.0 134.9 L 69.0 129.1 L 70.2 130.4 L 64.8 137.6 L 59.7 144.0 L 55.1 149.7 L 51.1 154.8 L 47.6 159.3 L 44.6 163.2 L 42.3 166.5 L 40.6 169.1 L 40.27576122283936 169.68952493667604 L 41.6 171.4 L 43.3 175.0 L 44.1 179.0 L 44.2 183.3 L 41.8 187.2 Z M 143.8 168.4 L 157.0 168.4 L 157.9 168.2 L 158.5 168.0 L 158.9 167.8 L 159.2 167.5 L 159.4 167.2 L 159.6 166.6 L 159.7 165.7 L 159.8 164.4 L 159.8 152.2 L 118.5 152.2 L 118.5 182.4 L 106.5 188.4 L 106.5 152.2 L 67.3 152.2 L 67.3 148.2 L 159.8 148.2 L 165.8 143.2 L 176.8 152.2 L 171.8 156.2 L 171.8 164.4 L 171.6 167.0 L 171.2 169.5 L 170.4 171.9 L 169.2 174.2 L 167.5 176.2 L 165.5 177.8 L 163.2 179.0 L 160.8 179.8 L 158.3 180.3 L 155.8 180.4 L 155.8 174.4 L 143.8 171.4 Z M 164.2 142.3 L 157.6 138.7 L 153.7 136.34761905670166 L 153.7 140.3 L 91.4 140.3 L 91.4 136.3 L 131.7 136.3 L 140.68571424484253 127.31428575515747 L 139.9 126.7 L 134.8 122.3 L 130.1 117.6 L 127.21381578445434 114.15065793991089 L 123.60565776824951 113.52856168746948 L 122.1 115.0 L 117.2 119.2 L 111.9 123.3 L 106.2 127.2 L 100.1 130.9 L 93.5 134.5 L 86.5 137.9 L 79.0 141.1 L 71.1 144.1 L 62.6 146.8 L 61.9 145.1 L 69.5 140.6 L 76.6 136.3 L 83.4 132.1 L 89.6 128.0 L 95.5 123.8 L 100.8 119.6 L 105.6 115.5 L 110.0 111.3 L 113.9 107.1 L 116.77274656295776 103.65270414352418 L 116.7 103.6 L 117.7 102.4 L 122.80276346206665 107.21283369064331 L 123.9 106.2 L 128.9 109.7 L 134.0 113.2 L 139.2 116.6 L 144.6 119.9 L 150.3 123.0 L 156.3 126.0 L 162.5 128.8 L 169.1 131.5 L 175.9 134.0 L 183.1 136.4 L 190.2 138.9 L 178.6 148.8 L 171.3 145.7 Z M 33.5 140.1 L 32.2 139.0 L 30.5 137.8 L 28.5 136.6 L 26.0 135.3 L 23.3 134.1 L 20.2 132.7 L 16.9 131.3 L 13.1 130.3 L 13.4 128.6 L 17.3 128.9 L 21.0 128.8 L 24.5 128.9 L 27.7 129.1 L 30.7 129.4 L 33.4 129.8 L 35.9 130.3 L 38.3 130.9 L 40.5 131.7 L 42.6 132.8 L 44.6 136.9 L 43.2 141.2 L 39.1 143.2 L 34.7 141.9 L 34.3 141.1 Z M 47.2 118.3 L 45.8 117.1 L 44.1 115.9 L 42.1 114.7 L 39.9 113.5 L 37.3 112.2 L 34.4 110.9 L 31.3 109.5 L 27.8 108.5 L 28.1 106.7 L 31.7 107.1 L 35.2 107.0 L 38.5 107.1 L 41.6 107.3 L 44.4 107.7 L 47.1 108.1 L 49.6 108.6 L 51.9 109.2 L 54.1 109.9 L 56.2 110.8 L 58.4 114.9 L 57.2 119.3 L 53.2 121.5 L 48.8 120.3 L 48.2 119.4 Z M 35.5 77.4 L 55.9 77.4 L 61.4 72.4 L 71.9 81.4 L 66.9 84.9 L 66.9 98.7 L 55.9 104.2 L 55.9 98.7 L 35.5 98.7 L 23.5 104.7 L 23.5 71.4 Z M 144.0 77.4 L 164.5 77.4 L 170.5 72.4 L 181.5 81.4 L 176.5 85.4 L 176.5 98.7 L 164.5 104.7 L 164.5 98.7 L 144.0 98.7 L 133.0 104.2 L 133.0 71.9 Z M 89.5 77.4 L 110.4 77.4 L 115.9 72.4 L 126.4 81.4 L 121.4 84.9 L 121.4 98.7 L 110.4 104.2 L 110.4 98.7 L 89.5 98.7 L 78.5 104.2 L 78.5 71.9 Z M 144.0 81.4 L 144.0 94.7 L 164.5 94.7 L 164.5 81.4 Z M 89.5 81.4 L 89.5 94.7 L 110.4 94.7 L 110.4 81.4 Z M 35.5 81.4 L 35.5 94.7 L 55.9 94.7 L 55.9 81.4 Z M 13.3 57.2 L 13.0 52.6 L 16.0 49.1 L 17.9 48.5 L 19.6 47.7 L 21.2 46.7 L 22.8 45.3 L 24.2 43.6 L 25.6 41.6 L 26.8 39.1 L 27.8 36.2 L 28.8 32.9 L 29.1 29.3 L 30.9 29.2 L 31.3 33.0 L 31.51666669845581 34.3 L 94.0 34.3 L 94.0 24.2 L 34.0 24.2 L 34.0 20.2 L 151.8181818008423 20.2 L 160.0 11.2 L 170.0 20.2 L 170.0 24.2 L 106.0 24.2 L 106.0 34.3 L 173.0 34.3 L 173.64838705062866 33.75967741012573 L 174.1 32.8 L 174.4726674079895 33.07277717590332 L 179.0 29.3 L 190.0 38.3 L 185.0 41.3 L 179.13012046813964 43.745783138275144 L 178.7 44.1 L 175.1 46.7 L 173.3 47.9 L 171.3 49.0 L 169.4 50.1 L 167.3 51.1 L 165.6 52.5 L 164.3 51.2 L 165.8 49.5 L 166.8 47.5 L 169.8 41.8 L 171.55 38.3 L 106.0 38.3 L 106.0 68.3 L 94.0 74.3 L 94.0 38.3 L 31.948571395874023 38.3 L 32.0 40.1 L 31.7 43.5 L 31.1 46.7 L 30.0 49.8 L 28.5 52.7 L 26.5 55.4 L 24.1 57.8 L 21.3 59.9 L 16.7 60.1 Z M 168.0 62.6 L 168.0 66.6 L 116.0 66.6 L 116.0 62.6 L 153.7777777671814 62.6 L 160.0 55.6 Z M 84.0 62.6 L 84.0 66.6 L 32.0 66.6 L 32.0 62.6 L 69.77777776718139 62.6 L 76.0 55.6 Z M 84.0 49.1 L 84.0 53.1 L 37.0 53.1 L 37.0 49.1 L 65.81818180084228 49.1 L 74.0 40.1 Z M 161.0 49.1 L 161.0 53.1 L 116.0 53.1 L 116.0 49.1 L 142.8181818008423 49.1 L 151.0 40.1 Z " />
</g>
</svg>
