<svg xmlns="http://www.w3.org/2000/svg" xmlns:xlink="http://www.w3.org/1999/xlink" version="1.1" baseProfile="full" viewBox="0 0 200 200" width="200" height="200">
<g fill="black">
<path d="M 66.2 177.9 L 80.2 177.9 L 81.2 177.8 L 81.8 177.7 L 82.2 177.5 L 82.5 177.4 L 82.6 177.2 L 82.8 177.0 L 83.0 176.5 L 83.2 175.8 L 83.4 174.7 L 83.5 173.4 L 83.5 66.8 L 61.0 66.8 L 61.0 179.9 L 49.0 185.9 L 49.0 66.8 L 27.0 66.8 L 27.0 183.5 L 15.0 189.5 L 15.0 56.8 L 27.0 62.8 L 49.0 62.8 L 49.0 33.5 L 13.0 33.5 L 13.0 29.5 L 75.0 29.5 L 85.0 19.5 L 97.0 29.5 L 97.0 33.5 L 61.0 33.5 L 61.0 62.8 L 83.5 62.8 L 89.0 57.8 L 99.5 66.8 L 94.5 70.3 L 94.5 173.4 L 94.3 175.8 L 94.0 178.1 L 93.3 180.4 L 92.3 182.5 L 90.9 184.5 L 89.1 186.1 L 87.1 187.4 L 84.9 188.2 L 82.6 188.7 L 80.2 188.9 L 80.2 183.4 L 66.2 180.6 Z M 142.0 165.8 L 142.8 169.3 L 138.94158124923706 168.4877013206482 L 138.7 168.7 L 135.2 171.5 L 131.6 174.1 L 127.9 176.6 L 124.0 179.0 L 120.0 181.1 L 115.9 183.1 L 111.6 184.9 L 107.2 186.4 L 102.6 187.8 L 101.9 186.1 L 105.6 183.4 L 109.2 180.6 L 112.7 177.8 L 116.1 175.1 L 119.3 172.3 L 122.3 169.5 L 125.3 166.6 L 128.1 163.7 L 130.7 160.7 L 132.58278007507323 158.36535272598266 L 132.5 158.3 L 133.6 157.2 Z M 172.0 178.9 L 170.3 176.6 L 168.3 174.3 L 166.2 172.1 L 163.8 170.0 L 161.2 167.9 L 158.3 165.8 L 155.3 163.8 L 151.9 162.1 L 152.4 160.4 L 156.2 161.1 L 160.1 161.8 L 163.7 162.9 L 167.2 164.2 L 170.6 165.7 L 173.8 167.5 L 176.8 169.6 L 179.7 171.8 L 182.4 174.4 L 184.9 177.1 L 185.7 181.6 L 183.2 185.4 L 178.8 186.3 L 174.9 183.8 L 173.6 181.3 Z M 114.0 70.0 L 116.2 72.0 L 114.0 73.57142858505249 L 114.0 149.0 L 166.3 149.0 L 176.3 139.0 L 188.3 149.0 L 188.3 153.0 L 114.0 153.0 L 114.0 160.0 L 105.0 164.5 L 105.0 68.0 Z M 35.9 147.1 L 35.5 144.4 L 34.9 141.8 L 34.2 139.3 L 33.4 136.8 L 32.5 134.2 L 31.4 131.7 L 30.2 129.1 L 28.5 126.9 L 29.7 125.6 L 34.5 129.2 L 36.8 131.2 L 39.0 133.4 L 40.9 135.8 L 42.7 138.4 L 44.3 141.1 L 45.8 144.0 L 47.1 147.1 L 48.2 150.3 L 47.2 154.8 L 43.4 157.3 L 38.9 156.3 L 36.4 152.5 L 36.2 149.7 Z M 69.9 147.1 L 69.5 144.4 L 68.9 141.8 L 68.2 139.3 L 67.4 136.8 L 66.5 134.2 L 65.4 131.7 L 64.2 129.1 L 62.5 126.9 L 63.7 125.6 L 68.5 129.2 L 70.8 131.2 L 73.0 133.4 L 74.9 135.8 L 76.7 138.4 L 78.3 141.1 L 79.8 144.0 L 81.1 147.1 L 82.2 150.3 L 81.2 154.8 L 77.4 157.3 L 72.9 156.3 L 70.4 152.5 L 70.2 149.7 Z M 180.9 76.9 L 175.9 80.9 L 175.9 136.2 L 163.9 142.2 L 163.9 136.2 L 131.8 136.2 L 121.8 141.2 L 121.8 67.9 L 131.8 72.9 L 163.9 72.9 L 169.9 67.9 Z M 131.8 115.6 L 131.8 132.2 L 163.9 132.2 L 163.9 115.6 Z M 69.9 105.1 L 69.5 102.4 L 68.9 99.8 L 68.2 97.3 L 67.4 94.8 L 66.5 92.2 L 65.4 89.7 L 64.2 87.1 L 62.5 84.9 L 63.7 83.6 L 68.5 87.2 L 70.8 89.2 L 73.0 91.4 L 74.9 93.8 L 76.7 96.4 L 78.3 99.1 L 79.8 102.0 L 81.1 105.1 L 82.2 108.3 L 81.2 112.8 L 77.4 115.3 L 72.9 114.3 L 70.4 110.5 L 70.2 107.7 Z M 35.9 105.1 L 35.5 102.4 L 34.9 99.8 L 34.2 97.3 L 33.4 94.8 L 32.5 92.2 L 31.4 89.7 L 30.2 87.1 L 28.5 84.9 L 29.7 83.6 L 34.5 87.2 L 36.8 89.2 L 39.0 91.4 L 40.9 93.8 L 42.7 96.4 L 44.3 99.1 L 45.8 102.0 L 47.1 105.1 L 48.2 108.3 L 47.2 112.8 L 43.4 115.3 L 38.9 114.3 L 36.4 110.5 L 36.2 107.7 Z M 131.8 96.2 L 131.8 111.6 L 163.9 111.6 L 163.9 96.2 Z M 131.8 76.9 L 131.8 92.2 L 163.9 92.2 L 163.9 76.9 Z M 124.2 58.9 L 121.8 58.6 L 119.5 57.9 L 117.3 56.8 L 115.3 55.3 L 113.6 53.5 L 112.3 51.3 L 111.4 49.0 L 110.9 46.5 L 110.7 44.0 L 110.7 14.0 L 122.7 16.0 L 125.7 18.0 L 122.7 19.8 L 122.7 33.86379308700562 L 128.4 31.8 L 134.0 29.9 L 139.3 28.1 L 144.4 26.2 L 149.2 24.4 L 153.8 22.5 L 158.1 20.6 L 162.1 18.8 L 165.02134828567506 17.33932580947876 L 165.0 17.3 L 165.03553113937377 17.332234477996828 L 165.9 16.9 L 166.79210901260376 18.925830841064453 L 174.7 26.1 L 174.9 29.3 L 171.0210331916809 27.66356086730957 L 170.7 27.8 L 166.3 29.3 L 161.8 30.7 L 157.0 32.0 L 151.9 33.3 L 146.7 34.4 L 141.2 35.4 L 135.5 36.3 L 129.5 37.1 L 123.3 37.6 L 122.7 37.618461513519286 L 122.7 44.0 L 122.6 45.2 L 122.7 46.1 L 122.8 46.8 L 122.9 47.2 L 123.1 47.6 L 123.3 47.9 L 123.7 48.2 L 124.3 48.5 L 125.3 48.8 L 126.7 49.0 L 174.5 49.0 L 179.5 32.0 L 181.5 32.0 L 179.5 49.0 L 182.5 51.0 L 184.5 54.0 L 182.5 57.0 L 179.5 59.0 L 126.7 59.0 Z " />
</g>
</svg>
