<svg xmlns="http://www.w3.org/2000/svg" xmlns:xlink="http://www.w3.org/1999/xlink" version="1.1" baseProfile="full" viewBox="0 0 200 200" width="200" height="200">
<g fill="black">
<path d="M 168.0 88.1 L 171.0 90.1 L 168.0 91.9 L 168.0 138.5 L 156.0 144.5 L 156.0 138.5 L 123.0 138.5 L 123.0 148.1 L 166.8181818008423 148.1 L 175.0 139.1 L 185.0 148.1 L 185.0 152.1 L 164.0 152.1 L 164.0 180.9 L 152.0 186.9 L 152.0 152.1 L 123.0 152.1 L 123.0 182.2 L 111.0 188.2 L 111.0 128.5 L 123.0 134.5 L 156.0 134.5 L 156.0 86.1 Z M 48.9 162.9 L 48.0 166.7 L 46.4 170.2 L 44.3 173.4 L 41.6 176.2 L 38.6 178.7 L 35.1 180.8 L 31.2 182.7 L 27.0 184.2 L 22.2 185.4 L 17.2 186.7 L 16.7 185.0 L 21.2 182.8 L 25.0 180.2 L 28.4 177.7 L 31.1 175.3 L 33.3 172.9 L 35.0 170.5 L 36.1 168.3 L 36.8 166.1 L 37.0 164.1 L 37.0 152.1 L 16.0 152.1 L 16.0 148.1 L 77.0 148.1 L 77.0 138.5 L 43.0 138.5 L 31.0 144.5 L 31.0 86.1 L 43.0 88.1 L 46.0 90.1 L 43.0 91.9 L 43.0 134.5 L 77.0 134.5 L 83.0 129.5 L 94.0 138.5 L 89.0 142.5 L 89.0 182.2 L 77.0 188.2 L 77.0 152.1 L 49.0 152.1 L 49.0 162.5 L 48.74133329391479 162.8880000114441 Z M 73.1 78.7 L 124.8 78.7 L 130.8 73.7 L 141.8 82.7 L 136.8 86.7 L 136.8 125.3 L 124.8 131.3 L 124.8 125.3 L 73.1 125.3 L 61.1 131.3 L 61.1 72.7 Z M 73.1 110.5 L 73.1 121.3 L 124.8 121.3 L 124.8 110.5 Z M 73.1 96.6 L 73.1 106.5 L 124.8 106.5 L 124.8 96.6 Z M 73.1 82.7 L 73.1 92.6 L 124.8 92.6 L 124.8 82.7 Z M 13.3 57.6 L 12.9 53.0 L 15.8 49.5 L 17.7 48.8 L 19.5 47.9 L 21.1 46.8 L 22.7 45.3 L 24.2 43.4 L 25.5 41.2 L 26.7 38.5 L 27.8 35.5 L 28.8 32.0 L 29.1 28.1 L 30.9 28.0 L 31.3 32.0 L 31.546153831481934 33.6 L 94.0 33.6 L 94.0 22.7 L 34.0 22.7 L 34.0 18.7 L 151.8181818008423 18.7 L 160.0 9.7 L 170.0 18.7 L 170.0 22.7 L 106.0 22.7 L 106.0 33.6 L 173.0 33.6 L 173.6 33.1 L 174.0 32.2 L 174.37029705047607 32.45808582305908 L 179.0 28.6 L 190.0 37.6 L 185.0 40.6 L 179.57831325531006 42.859036159515384 L 178.8 43.5 L 175.2 46.3 L 171.4 48.9 L 169.4 50.1 L 167.3 51.2 L 165.6 52.6 L 164.3 51.3 L 165.7 49.6 L 166.7 47.5 L 168.7 43.5 L 169.7 41.6 L 171.59473686218263 37.6 L 106.0 37.6 L 106.0 69.5 L 94.0 75.5 L 94.0 37.6 L 31.947222232818604 37.6 L 32.0 39.5 L 31.8 43.0 L 31.1 46.4 L 30.0 49.6 L 28.5 52.6 L 26.6 55.4 L 24.2 58.0 L 21.4 60.1 L 16.8 60.5 Z M 168.0 63.4 L 168.0 67.4 L 116.0 67.4 L 116.0 63.4 L 153.7777777671814 63.4 L 160.0 56.4 Z M 84.0 63.4 L 84.0 67.4 L 32.0 67.4 L 32.0 63.4 L 69.77777776718139 63.4 L 76.0 56.4 Z M 161.0 49.2 L 161.0 53.2 L 116.0 53.2 L 116.0 49.2 L 142.8181818008423 49.2 L 151.0 40.2 Z M 84.0 49.2 L 84.0 53.2 L 37.0 53.2 L 37.0 49.2 L 65.81818180084228 49.2 L 74.0 40.2 Z " />
</g>
</svg>
