<svg xmlns="http://www.w3.org/2000/svg" xmlns:xlink="http://www.w3.org/1999/xlink" version="1.1" baseProfile="full" viewBox="0 0 200 200" width="200" height="200">
<g fill="black">
<path d="M 106.0 102.0 L 109.0 104.0 L 106.0 105.8 L 106.0 121.0 L 164.0 121.0 L 174.0 111.0 L 186.0 121.0 L 186.0 125.0 L 106.0 125.0 L 106.0 145.5 L 146.0 145.5 L 152.0 140.5 L 163.0 149.5 L 158.0 153.5 L 158.0 181.5 L 146.0 187.5 L 146.0 179.5 L 54.0 179.5 L 54.0 182.5 L 42.0 188.5 L 42.0 139.5 L 54.0 145.5 L 94.0 145.5 L 94.0 125.0 L 14.0 125.0 L 14.0 121.0 L 94.0 121.0 L 94.0 100.0 Z M 54.0 175.5 L 146.0 175.5 L 146.0 149.5 L 54.0 149.5 Z M 19.6 80.9 L 26.4 79.6 L 39.6 77.2 L 52.2 75.0 L 58.3 74.0 L 64.3 73.0 L 70.2 72.2 L 75.0753623008728 71.61159420013428 L 75.4 70.8 L 77.0 64.4 L 77.9 57.4 L 77.9054054260254 57.0 L 30.0 57.0 L 30.0 53.0 L 77.95945949554444 53.0 L 78.0 50.0 L 78.0 34.0 L 24.0 34.0 L 24.0 30.0 L 78.0 30.0 L 78.0 13.0 L 90.0 15.0 L 93.0 17.0 L 90.0 18.8 L 90.0 50.0 L 89.2 58.7 L 87.5 66.9 L 84.8 74.4 L 81.1 81.3 L 76.6 87.5 L 71.1 93.0 L 64.8 97.7 L 57.8 101.6 L 49.9 104.6 L 41.2 106.8 L 40.7 105.1 L 48.4 101.1 L 55.1 96.9 L 60.9 92.4 L 65.8 87.6 L 69.8 82.4 L 73.0 76.8 L 73.00530977249146 76.78672561645507 L 71.5 77.4 L 65.9 79.4 L 60.1 81.4 L 54.2 83.3 L 48.1 85.1 L 41.9 87.0 L 35.5 88.9 L 28.9 90.7 L 26.23565912246704 91.4670072555542 L 24.9 95.1 L 22.3 92.6 L 17.6 81.3 Z M 128.0 15.0 L 131.0 17.0 L 128.0 18.8 L 128.0 30.0 L 156.0 30.0 L 166.0 20.0 L 178.0 30.0 L 178.0 34.0 L 128.0 34.0 L 128.0 53.0 L 154.8181818008423 53.0 L 163.0 44.0 L 173.0 53.0 L 173.0 57.0 L 128.0 57.0 L 128.0 78.0 L 160.0 78.0 L 170.0 68.0 L 182.0 78.0 L 182.0 82.0 L 128.0 82.0 L 128.0 97.0 L 116.0 103.0 L 116.0 13.0 Z " />
</g>
</svg>
