<svg xmlns="http://www.w3.org/2000/svg" xmlns:xlink="http://www.w3.org/1999/xlink" version="1.1" baseProfile="full" viewBox="0 0 200 200" width="200" height="200">
<g fill="black">
<path d="M 21.2 175.3 L 35.2 175.3 L 36.5 175.2 L 37.4 175.1 L 38.0 174.9 L 38.3 174.7 L 38.5 174.6 L 38.8 174.0 L 39.0 173.5 L 39.2 172.5 L 39.2 147.0 L 36.8 147.9 L 31.1 149.9 L 25.4 151.8 L 23.537141227722167 152.44236507415772 L 22.3 156.1 L 19.6 153.8 L 14.5 142.8 L 16.4 142.2 L 22.3 140.9 L 28.1 139.6 L 34.0 138.2 L 39.2 137.03448276519777 L 39.2 112.8 L 16.4 112.8 L 16.4 108.8 L 39.2 108.8 L 39.2 87.4 L 51.2 89.4 L 54.2 91.4 L 51.2 93.2 L 51.2 108.8 L 56.61818180084229 108.8 L 64.8 99.8 L 74.8 108.8 L 74.8 112.8 L 51.2 112.8 L 51.2 134.3448275566101 L 51.4 134.3 L 57.1 133.1 L 62.9 131.9 L 68.7 130.9 L 74.5 130.1 L 75.1 131.8 L 69.8 134.5 L 64.5 137.0 L 59.1 139.3 L 53.6 141.6 L 51.2 142.5 L 51.2 171.3 L 51.1 173.9 L 50.7 176.4 L 49.8 178.8 L 48.6 181.0 L 47.0 183.1 L 45.0 184.7 L 42.7 185.9 L 40.3 186.7 L 37.8 187.2 L 35.2 187.3 L 35.2 181.3 L 21.2 178.3 Z M 183.0 176.0 L 183.0 180.0 L 69.7 180.0 L 69.7 176.0 L 161.0 176.0 L 171.0 166.0 Z M 100.3 161.9 L 116.3 161.9 L 117.6 161.8 L 118.5 161.6 L 119.1 161.5 L 119.4 161.3 L 119.6 161.1 L 119.7 160.9 L 119.9 160.6 L 120.1 160.0 L 120.3 159.1 L 120.3 111.4 L 127.70769233703614 112.63461542129517 L 129.9 111.1 L 133.6 108.4 L 137.2 105.8 L 140.7 103.3 L 144.0 101.0 L 147.1 98.7 L 149.1173913002014 97.1 L 79.8 97.1 L 79.8 93.1 L 154.28571424484252 93.1 L 155.4 92.2 L 157.8 90.1 L 158.1640256881714 90.62997856140137 L 161.2 88.1 L 172.2 97.1 L 167.2 100.1 L 155.2 105.1 L 155.2 104.7515151977539 L 155.1 104.8 L 151.6 106.4 L 147.9 107.9 L 144.0 109.5 L 140.0 111.1 L 135.8 112.6 L 132.59545450210572 113.59696969985961 L 135.3 115.4 L 133.3689655303955 116.55862064361573 L 136.1 120.2 L 140.4 125.5 L 145.0 130.5 L 146.6470588684082 132.04621849060058 L 148.2 130.9 L 152.1 127.7 L 155.9 124.8 L 159.5 122.1 L 162.9 119.5 L 166.0 117.0 L 169.0 114.6 L 171.7 112.4 L 174.2 110.2 L 175.7469751358032 108.85480422973633 L 175.7 108.8 L 176.5 108.2 L 183.5 117.9 L 183.7 121.5 L 179.933354473114 119.8956880569458 L 177.6 121.1 L 174.3 122.8 L 170.8 124.6 L 167.1 126.4 L 163.2 128.2 L 159.0 130.1 L 154.5 131.9 L 149.8 133.7 L 148.81538457870482 134.08178968429564 L 149.9 135.1 L 155.1 139.4 L 160.7 143.4 L 166.8 147.0 L 173.2 150.3 L 180.2 153.4 L 187.5 156.1 L 194.3 158.7 L 182.8 168.4 L 175.0 164.8 L 167.6 160.7 L 160.9 156.3 L 154.6 151.6 L 149.0 146.4 L 143.9 140.9 L 139.4 135.1 L 135.6 128.9 L 132.5 122.3 L 132.3 121.67272729873658 L 132.3 157.9 L 132.2 160.4 L 131.7 162.9 L 130.9 165.3 L 129.7 167.6 L 128.1 169.6 L 126.1 171.3 L 123.8 172.5 L 121.4 173.3 L 118.9 173.7 L 116.3 173.9 L 116.3 167.9 L 100.3 164.9 Z M 118.4 122.3 L 113.4 125.3 L 111.2514084815979 126.1952465057373 L 110.3 128.2 L 107.1 133.8 L 103.3 139.1 L 99.1 144.2 L 94.4 149.1 L 89.2 153.6 L 83.5 157.9 L 77.4 161.9 L 70.7 165.5 L 63.6 168.7 L 62.7 167.1 L 68.7 162.3 L 74.3 157.5 L 79.4 152.8 L 84.0 148.1 L 88.2 143.3 L 91.8 138.4 L 95.0 133.5 L 97.7 128.5 L 100.0 123.4 L 100.3807692527771 122.3 L 67.5 122.3 L 67.5 118.3 L 101.4 118.3 L 107.4 113.3 Z M 13.4 68.7 L 12.7 64.2 L 15.3 60.4 L 17.2 59.5 L 19.0 58.2 L 20.7 56.6 L 22.4 54.6 L 23.9 52.2 L 25.3 49.2 L 26.6 45.9 L 27.6 42.0 L 28.6 37.8 L 29.1 33.1 L 30.9 33.0 L 31.5 37.8 L 31.771739101409914 40.3 L 94.0 40.3 L 94.0 26.3 L 34.0 26.3 L 34.0 22.3 L 148.0 22.3 L 158.0 12.3 L 170.0 22.3 L 170.0 26.3 L 106.0 26.3 L 106.0 40.3 L 173.0 40.3 L 173.61395349502564 39.788372135162355 L 173.8 39.3 L 174.03542852401733 39.437142848968506 L 179.0 35.3 L 190.0 44.3 L 185.0 47.3 L 180.87132863998414 49.02027969360351 L 180.8 49.1 L 179.1 50.9 L 177.3 52.7 L 175.4 54.5 L 173.6 56.1 L 171.6 57.8 L 169.6 59.3 L 167.4 60.8 L 165.6 62.5 L 164.3 61.4 L 165.6 59.3 L 166.6 57.0 L 167.5 54.7 L 168.5 52.4 L 169.5 50.2 L 171.3 45.8 L 171.84545450210572 44.3 L 106.0 44.3 L 106.0 83.7 L 94.0 89.7 L 94.0 44.3 L 32.08837213516235 44.3 L 32.2 46.7 L 31.9 50.9 L 31.3 54.8 L 30.2 58.4 L 28.8 61.9 L 26.9 65.1 L 24.5 68.0 L 21.7 70.6 L 17.2 71.3 Z M 168.0 76.2 L 168.0 80.2 L 116.0 80.2 L 116.0 76.2 L 149.8181818008423 76.2 L 158.0 67.2 Z M 84.0 76.2 L 84.0 80.2 L 32.0 80.2 L 32.0 76.2 L 65.81818180084228 76.2 L 74.0 67.2 Z M 84.0 59.1 L 84.0 63.1 L 37.0 63.1 L 37.0 59.1 L 65.81818180084228 59.1 L 74.0 50.1 Z M 161.0 59.1 L 161.0 63.1 L 116.0 63.1 L 116.0 59.1 L 142.8181818008423 59.1 L 151.0 50.1 Z " />
</g>
</svg>
