<svg xmlns="http://www.w3.org/2000/svg" xmlns:xlink="http://www.w3.org/1999/xlink" version="1.1" baseProfile="full" viewBox="0 0 200 200" width="200" height="200">
<g fill="black">
<path d="M 72.6 16.0 L 75.6 18.0 L 72.6 19.8 L 72.6 38.0 L 76.4 38.0 L 80.9 32.0 L 86.9 38.0 L 86.9 42.0 L 72.6 42.0 L 72.6 68.0 L 60.6 74.0 L 60.6 64.0 L 55.9 64.0 L 55.9 86.5 L 70.4 86.5 L 76.4 81.5 L 87.4 90.5 L 82.4 94.5 L 82.4 126.4 L 70.4 132.4 L 70.4 122.4 L 55.9 122.4 L 55.9 143.0 L 65.8 143.0 L 75.8 133.0 L 87.8 143.0 L 87.8 147.0 L 55.9 147.0 L 55.9 182.0 L 43.9 188.0 L 43.9 147.0 L 11.1 147.0 L 11.1 143.0 L 43.9 143.0 L 43.9 122.4 L 30.3 122.4 L 30.3 129.4 L 18.3 135.4 L 18.3 80.5 L 30.3 86.5 L 43.9 86.5 L 43.9 64.0 L 38.3 64.0 L 38.3 71.0 L 26.3 77.0 L 26.3 42.0 L 12.9 42.0 L 12.9 38.0 L 26.3 38.0 L 26.3 14.0 L 38.3 16.0 L 41.3 18.0 L 38.3 19.8 L 38.3 38.0 L 60.6 38.0 L 60.6 14.0 Z M 114.4 185.0 L 111.9 184.5 L 109.5 183.7 L 107.2 182.5 L 105.2 180.9 L 103.6 178.9 L 102.3 176.6 L 101.5 174.2 L 101.1 171.7 L 101.0 169.1 L 101.0 124.6 L 113.0 130.6 L 156.1 130.6 L 156.1 101.8 L 99.8 101.8 L 99.8 97.8 L 156.1 97.8 L 162.1 92.8 L 173.1 101.8 L 168.1 105.8 L 168.1 140.6 L 156.1 146.6 L 156.1 134.6 L 113.0 134.6 L 113.0 170.4 L 113.2 171.3 L 113.5 172.2 L 113.7 172.4 L 113.9 172.5 L 114.2 172.7 L 114.8 172.9 L 115.7 173.1 L 165.6 173.1 L 171.6 148.1 L 173.6 148.1 L 171.6 173.1 L 175.2 175.5 L 177.6 179.1 L 175.2 182.7 L 171.6 185.1 L 117.0 185.1 Z M 30.3 90.5 L 30.3 118.4 L 43.9 118.4 L 43.9 90.5 Z M 55.9 90.5 L 55.9 118.4 L 70.4 118.4 L 70.4 90.5 Z M 168.8 96.2 L 164.7 90.8 L 160.8 85.1 L 157.1 79.2 L 153.6 72.9 L 150.4 66.4 L 147.4 59.7 L 144.8 52.6 L 142.80533332824706 45.8 L 133.08235292434694 45.8 L 132.3 47.9 L 127.8 57.8 L 122.7 67.3 L 116.9 76.5 L 110.6 85.2 L 103.6 93.4 L 95.9 101.2 L 87.5 108.4 L 86.2 107.1 L 93.1 98.6 L 99.4 90.0 L 105.2 81.4 L 107.87490959167481 76.90817060470582 L 105.8 78.8 L 101.2 78.4 L 98.2 75.0 L 97.8 72.7 L 97.3 70.5 L 96.7 68.2 L 95.3 63.6 L 94.4 61.4 L 93.4 59.1 L 92.3 56.8 L 91.2 54.4 L 89.6 52.3 L 90.9 51.0 L 93.0 52.7 L 95.3 54.2 L 97.5 55.9 L 99.6 57.7 L 101.5 59.7 L 103.4 61.8 L 105.1 64.0 L 106.7 66.3 L 108.2 68.7 L 109.5 71.2 L 109.27634563446045 74.55481586456298 L 110.5 72.5 L 115.2 63.4 L 119.3 54.0 L 122.28958330154418 45.8 L 89.1 45.8 L 89.1 41.8 L 123.58787879943847 41.8 L 125.8 34.5 L 128.2 24.4 L 129.91873683929444 14.901717567443848 L 129.9 14.9 L 130.4 12.0 L 141.9 16.0 L 144.5 18.5 L 140.98609561920165 19.86651830673218 L 139.3 27.0 L 136.1 37.7 L 134.57254905700682 41.8 L 161.2 41.8 L 171.2 31.8 L 183.2 41.8 L 183.2 45.8 L 145.23333330154418 45.8 L 148.5 50.7 L 152.6 56.9 L 156.6 62.8 L 160.7 68.5 L 164.8 73.9 L 166.1012448310852 75.48008298873901 L 166.2 75.3 L 167.4 72.0 L 168.6 68.9 L 169.8 66.0 L 171.0 63.2 L 172.0 60.5 L 173.0 58.0 L 173.8 55.6 L 174.6 53.3 L 174.9889447212219 52.077602291107176 L 174.8 52.0 L 175.8 50.0 L 186.0 56.6 L 187.7 59.7 L 183.3817518234253 59.997810173034665 L 182.9 60.6 L 181.2 62.7 L 177.4 67.1 L 175.4 69.5 L 173.2 71.8 L 170.9 74.3 L 168.3 76.7 L 167.7037036895752 77.4259259223938 L 169.0 79.0 L 173.2 83.8 L 177.6 88.3 L 182.0 92.5 L 188.3 98.1 L 177.6 106.2 L 173.1 101.3 Z M 38.3 42.0 L 38.3 60.0 L 60.6 60.0 L 60.6 42.0 Z " />
</g>
</svg>
