<svg xmlns="http://www.w3.org/2000/svg" xmlns:xlink="http://www.w3.org/1999/xlink" version="1.1" baseProfile="full" viewBox="0 0 200 200" width="200" height="200">
<g fill="black">
<path d="M 72.0 15.1 L 75.0 17.1 L 72.0 18.9 L 72.0 37.4 L 75.1 37.4 L 79.6 31.4 L 85.6 37.4 L 85.6 41.4 L 72.0 41.4 L 72.0 67.6 L 60.0 73.6 L 60.0 63.6 L 56.0 63.6 L 56.0 86.4 L 69.5 86.4 L 75.5 81.4 L 86.5 90.4 L 81.5 94.4 L 81.5 126.6 L 69.5 132.6 L 69.5 122.6 L 56.0 122.6 L 56.0 143.4 L 64.5 143.4 L 74.5 133.4 L 86.5 143.4 L 86.5 147.4 L 56.0 147.4 L 56.0 182.8 L 44.0 188.8 L 44.0 147.4 L 12.6 147.4 L 12.6 143.4 L 44.0 143.4 L 44.0 122.6 L 31.4 122.6 L 31.4 129.6 L 19.4 135.6 L 19.4 80.4 L 31.4 86.4 L 44.0 86.4 L 44.0 63.6 L 39.1 63.6 L 39.1 70.6 L 27.1 76.6 L 27.1 41.4 L 14.4 41.4 L 14.4 37.4 L 27.1 37.4 L 27.1 13.1 L 39.1 15.1 L 42.1 17.1 L 39.1 18.9 L 39.1 37.4 L 60.0 37.4 L 60.0 13.1 Z M 158.0 110.0 L 158.0 71.0 L 134.0 71.0 L 134.0 104.0 L 133.60655736923218 110.0 Z M 31.4 90.4 L 31.4 118.6 L 44.0 118.6 L 44.0 90.4 Z M 56.0 90.4 L 56.0 118.6 L 69.5 118.6 L 69.5 90.4 Z M 134.0 28.0 L 134.0 67.0 L 158.0 67.0 L 158.0 28.0 Z M 39.1 41.4 L 39.1 59.6 L 60.0 59.6 L 60.0 41.4 Z M 83.0 71.0 L 83.0 67.0 L 122.0 67.0 L 122.0 28.0 L 92.9 28.0 L 92.9 24.0 L 158.0 24.0 L 164.0 19.0 L 175.0 28.0 L 170.0 32.0 L 170.0 67.0 L 174.9777777671814 67.0 L 181.2 60.0 L 189.2 67.0 L 189.2 71.0 L 170.0 71.0 L 170.0 120.0 L 158.0 126.0 L 158.0 114.0 L 133.34426231384276 114.0 L 133.2 116.2 L 131.6 127.6 L 129.1 138.3 L 125.7 148.1 L 121.4 157.1 L 116.2 165.2 L 110.2 172.4 L 103.2 178.6 L 95.5 183.7 L 87.0 187.7 L 86.1 186.2 L 93.3 180.6 L 99.7 174.6 L 105.2 168.1 L 109.9 161.0 L 113.8 153.3 L 117.0 144.9 L 119.4 135.8 L 121.0 126.0 L 121.9 115.3 L 121.9115044593811 114.0 L 90.2 114.0 L 90.2 110.0 L 121.94690265655518 110.0 L 122.0 104.0 L 122.0 71.0 Z " />
</g>
</svg>
