<svg xmlns="http://www.w3.org/2000/svg" xmlns:xlink="http://www.w3.org/1999/xlink" version="1.1" baseProfile="full" viewBox="0 0 200 200" width="200" height="200">
<g fill="black">
<path d="M 129.3 71.8 L 160.8 71.8 L 166.8 66.8 L 177.8 75.8 L 172.8 79.8 L 172.8 115.8 L 160.8 121.8 L 160.8 111.8 L 129.3 111.8 L 129.3 132.8 L 165.4 132.8 L 171.4 127.8 L 182.4 136.8 L 177.4 140.8 L 177.4 178.9 L 165.4 184.9 L 165.4 174.9 L 129.3 174.9 L 129.3 181.9 L 117.3 187.9 L 117.3 65.8 Z M 29.8 179.0 L 18.8 184.5 L 18.8 58.5 L 29.8 64.0 L 45.413888931274414 64.0 L 45.9 61.5 L 48.3 50.4 L 49.1 46.6 L 49.9 42.7 L 50.7 38.7 L 51.5 34.6 L 51.59230766296387 34.0 L 13.6 34.0 L 13.6 30.0 L 80.4 30.0 L 90.4 20.0 L 102.4 30.0 L 102.4 34.0 L 63.58571424484253 34.0 L 62.3 37.6 L 60.8 41.6 L 59.2 45.5 L 57.6 49.3 L 55.9 53.0 L 54.1 56.6 L 52.2 60.0 L 50.2 63.2 L 49.63225803375244 64.0 L 86.2 64.0 L 91.7 59.0 L 102.2 68.0 L 97.2 71.5 L 97.2 173.0 L 86.2 178.5 L 86.2 167.0 L 29.8 167.0 Z M 129.3 136.8 L 129.3 170.9 L 165.4 170.9 L 165.4 136.8 Z M 29.8 68.0 L 29.8 163.0 L 41.2 163.0 L 41.2 68.0 Z M 51.2 133.0 L 51.2 163.0 L 64.8 163.0 L 64.8 133.0 Z M 74.8 68.0 L 74.8 163.0 L 86.2 163.0 L 86.2 68.0 Z M 51.2 99.0 L 51.2 129.0 L 64.8 129.0 L 64.8 99.0 Z M 129.3 75.8 L 129.3 107.8 L 160.8 107.8 L 160.8 75.8 Z M 51.2 68.0 L 51.2 95.0 L 64.8 95.0 L 64.8 68.0 Z M 119.2 49.8 L 119.1 53.3 L 118.7 56.7 L 117.9 59.9 L 116.8 63.0 L 115.4 65.9 L 113.6 68.7 L 109.4 70.5 L 105.1 69.0 L 103.3 64.8 L 104.9 60.5 L 106.4 59.3 L 107.8 57.8 L 109.2 56.1 L 110.5 54.0 L 111.7 51.6 L 112.7 48.9 L 113.6 45.8 L 114.4 42.5 L 115.1 38.8 L 115.2 34.8 L 117.0 34.6 L 117.7 38.7 L 118.6 42.5 L 118.68648653030395 43.3 L 138.7 43.3 L 138.7 14.6 L 150.7 16.6 L 153.7 18.6 L 150.7 20.4 L 150.7 43.3 L 171.5 43.3 L 177.5 38.3 L 188.5 47.3 L 183.5 50.3 L 180.025 51.74791669845581 L 179.0 53.2 L 177.7 54.9 L 176.4 56.8 L 174.9 58.8 L 173.3 60.9 L 171.5 63.0 L 170.1 65.5 L 168.5 64.7 L 169.4 62.1 L 169.9 59.3 L 170.3 56.8 L 170.7 54.4 L 171.0 52.2 L 171.3 50.1 L 171.5 48.2 L 171.5 47.3 L 119.06111106872558 47.3 Z " />
</g>
</svg>
