<svg xmlns="http://www.w3.org/2000/svg" xmlns:xlink="http://www.w3.org/1999/xlink" version="1.1" baseProfile="full" viewBox="0 0 200 200" width="200" height="200">
<g fill="black">
<path d="M 107.9 48.2 L 107.2 45.7 L 106.3 43.3 L 105.2 40.8 L 104.0 38.4 L 102.6 35.8 L 101.1 33.3 L 99.72481393814087 31.11588087081909 L 99.0 33.7 L 96.5 41.8 L 93.9 49.6 L 91.0 57.3 L 87.8 64.8 L 85.90136985778808 69.0 L 100.8777777671814 69.0 L 107.1 62.0 L 115.1 69.0 L 115.1 73.0 L 103.1 73.0 L 103.1 101.0 L 107.7 101.0 L 112.2 95.0 L 118.2 101.0 L 118.2 105.0 L 103.1 105.0 L 103.1 148.24285717010497 L 103.3 147.3 L 103.7 143.9 L 104.5 137.3 L 105.0 134.1 L 105.4 130.9 L 106.6 121.6 L 106.7985915184021 119.6140845298767 L 106.7 119.6 L 106.8875 118.725 L 106.9 118.6 L 106.91361255645752 118.60314140319824 L 107.3 116.8 L 118.6 121.3 L 121.0 123.9 L 117.1569037437439 125.15774059295654 L 116.3 127.3 L 112.4 136.3 L 109.4 142.3 L 107.7 145.3 L 105.9 148.2 L 104.3 151.3 L 103.1 150.80588235855103 L 103.1 160.9 L 107.6 159.3 L 112.1 157.8 L 116.7 156.2 L 116.71833744049073 156.23056230545043 L 119.2 150.7 L 122.6 142.6 L 126.0 134.0 L 129.1 124.9 L 132.1 115.3 L 134.9 105.2 L 137.6 94.5 L 140.0 83.2 L 142.2 71.3 L 143.68141593933106 62.0 L 118.2 62.0 L 118.2 58.0 L 147.1 58.0 L 147.1 14.0 L 159.1 16.0 L 162.1 18.0 L 159.1 19.8 L 159.1 58.0 L 165.9 58.0 L 175.9 48.0 L 187.9 58.0 L 187.9 62.0 L 159.1 62.0 L 159.1 66.85882349014283 L 160.5 71.1 L 167.0 90.6 L 170.3 99.7 L 173.8 108.4 L 177.3 116.7 L 181.0 124.6 L 184.8 132.0 L 188.7 139.0 L 192.7 145.6 L 183.0 155.1 L 181.4 152.3 L 177.6 144.9 L 174.1 137.1 L 170.8 128.9 L 167.8 120.4 L 165.0 111.5 L 162.4 102.2 L 160.1 92.5 L 159.1 87.5 L 159.1 140.0 L 162.1 140.0 L 166.6 134.0 L 172.6 140.0 L 172.6 144.0 L 159.1 144.0 L 159.1 183.0 L 147.1 189.0 L 147.1 144.0 L 133.5 144.0 L 133.5 140.0 L 147.1 140.0 L 147.1 97.63529415130616 L 143.9 107.8 L 140.2 118.1 L 136.2 127.7 L 132.0 136.7 L 127.5 145.0 L 122.5 152.6 L 117.3 159.4 L 116.26955499649048 158.82037467956542 L 113.8 160.9 L 109.9 163.8 L 106.0 166.6 L 102.0 169.2 L 98.0 171.6 L 93.9 174.0 L 89.8 176.2 L 85.7 178.3 L 81.6 180.3 L 81.34244213104247 180.41935606002806 L 80.4 184.3 L 77.5 182.2 L 71.5 171.7 L 73.3 171.0 L 85.9 167.1 L 90.1 165.6 L 91.1 165.251162815094 L 91.1 152.75 L 90.3 154.9 L 86.2 156.9 L 81.9 155.4 L 79.9 151.3 L 80.1 148.1 L 80.1 142.0 L 79.9 139.0 L 79.6 136.0 L 79.2 133.0 L 78.7 130.1 L 78.1 127.1 L 77.4 124.1 L 76.3 121.3 L 77.9 120.3 L 79.8 122.8 L 81.9 125.3 L 83.8 128.0 L 85.4 130.9 L 86.9 133.8 L 88.3 137.0 L 89.4 140.2 L 90.4 143.6 L 91.1 146.6625 L 91.1 105.0 L 75.5 105.0 L 75.5 101.0 L 91.1 101.0 L 91.1 73.0 L 85.0 73.0 L 85.0 70.99393939971924 L 84.5 72.1 L 80.9 79.1 L 76.9 85.9 L 72.6 92.4 L 71.0 91.5 L 73.5 84.3 L 76.0 77.0 L 78.4 69.6 L 80.7 62.2 L 82.9 54.6 L 85.0 46.9 L 86.9 39.1 L 88.6 31.1 L 90.2 23.0 L 91.42873678207397 15.803113174438476 L 91.4 15.8 L 91.56744184494019 14.99069766998291 L 91.6 14.8 L 91.6066291809082 14.801292133331298 L 92.0 12.9 L 103.4 17.1 L 105.9 19.6 L 102.4625 20.85 L 101.3 25.5 L 100.52808218002319 28.25205478668213 L 101.2 28.7 L 104.0 30.4 L 106.6 32.3 L 109.1 34.3 L 111.4 36.5 L 113.5 38.8 L 115.5 41.2 L 117.3 43.7 L 118.9 46.4 L 120.3 49.2 L 119.9 53.8 L 116.5 56.8 L 112.0 56.4 L 108.9 53.0 L 108.5 50.6 Z M 7.2 158.0 L 15.6 158.0 L 15.6 126.0 L 27.6 132.0 L 42.0 132.0 L 42.0 109.5 L 28.3 109.5 L 28.3 116.5 L 16.3 122.5 L 16.3 70.4 L 28.3 76.4 L 51.6 76.4 L 57.6 71.4 L 68.6 80.4 L 63.6 84.4 L 63.6 109.5 L 56.82857141494751 112.88571424484253 L 57.0 113.0 L 54.0 114.8 L 54.0 132.0 L 55.9 132.0 L 60.4 126.0 L 66.4 132.0 L 66.4 136.0 L 54.0 136.0 L 54.0 158.0 L 59.3777777671814 158.0 L 65.6 151.0 L 73.6 158.0 L 73.6 162.0 L 54.0 162.0 L 54.0 181.0 L 42.0 187.0 L 42.0 162.0 L 7.2 162.0 Z M 27.6 136.0 L 27.6 158.0 L 42.0 158.0 L 42.0 136.0 Z M 45.0 109.5 L 51.6 110.6 L 51.6 109.5 Z M 28.3 80.4 L 28.3 105.5 L 51.6 105.5 L 51.6 80.4 Z M 8.8 60.0 L 26.002669429779054 60.0 L 28.466735076904296 36.0 L 16.0 36.0 L 16.0 32.0 L 28.877412700653075 32.0 L 30.9 12.3 L 42.6 15.6 L 45.4 17.8 L 42.26721687316895 18.88442497253418 L 40.93832597732544 32.0 L 50.8 32.0 L 56.8 27.0 L 67.8 36.0 L 62.8 40.0 L 62.8 59.33333330154419 L 66.8 54.0 L 72.8 60.0 L 72.8 64.0 L 8.8 64.0 Z M 40.53303966522217 36.0 L 38.101321601867674 60.0 L 50.8 60.0 L 50.8 36.0 Z " />
</g>
</svg>
