<svg xmlns="http://www.w3.org/2000/svg" xmlns:xlink="http://www.w3.org/1999/xlink" version="1.1" baseProfile="full" viewBox="0 0 200 200" width="200" height="200">
<g fill="black">
<path d="M 168.1 76.8 L 166.9 73.2 L 166.2 71.4 L 165.4 69.7 L 164.5 68.0 L 163.54715843200682 66.38016929626465 L 162.6 68.5 L 160.4 72.9 L 157.9 76.9 L 155.1 80.5 L 152.1 83.7 L 148.8 86.4 L 145.3 88.6 L 144.1 87.3 L 146.2 84.0 L 148.1 80.6 L 149.9 77.1 L 151.4 73.4 L 152.9 69.5 L 154.1 65.3 L 155.2 60.9 L 156.1 56.3 L 156.8 51.3 L 157.2840542793274 47.104862689971924 L 157.2 47.1 L 157.7 44.1 L 169.3 47.8 L 171.9 50.2 L 168.40690670013427 51.7158706665039 L 168.0 53.5 L 166.4 58.8 L 164.93010663986206 63.12321577072144 L 165.8 63.4 L 167.9 64.4 L 169.8 65.5 L 171.7 66.8 L 173.6 68.3 L 175.3 70.0 L 177.0 71.8 L 178.5 73.8 L 179.9 75.9 L 179.9 80.4 L 177.7011173248291 82.66759777069092 L 188.9 92.0 L 188.9 96.0 L 87.2 96.0 L 87.2 93.61999998092651 L 86.8 93.9 L 86.8 126.6 L 75.8 132.1 L 75.8 122.6 L 59.1 122.6 L 59.1 143.4 L 71.5 143.4 L 81.5 133.4 L 93.5 143.4 L 93.5 147.4 L 59.1 147.4 L 59.1 182.8 L 47.1 188.8 L 47.1 147.4 L 11.8 147.4 L 11.8 143.4 L 47.1 143.4 L 47.1 122.6 L 31.9 122.6 L 31.9 129.6 L 19.9 135.6 L 19.9 80.4 L 31.9 86.4 L 47.1 86.4 L 47.1 63.6 L 40.4 63.6 L 40.4 70.6 L 28.4 76.6 L 28.4 41.4 L 13.7 41.4 L 13.7 37.4 L 28.4 37.4 L 28.4 13.1 L 40.4 15.1 L 43.4 17.1 L 40.4 18.9 L 40.4 37.4 L 64.9 37.4 L 64.9 13.1 L 76.9 15.1 L 79.9 17.1 L 76.9 18.9 L 76.9 37.4 L 82.0 37.4 L 86.5 31.4 L 92.5 37.4 L 92.5 41.4 L 76.9 41.4 L 76.9 67.6 L 64.9 73.6 L 64.9 63.6 L 59.1 63.6 L 59.1 86.4 L 75.8 86.4 L 81.3 81.4 L 91.8 90.4 L 89.51428575515747 92.0 L 131.5 92.0 L 131.5 40.0 L 96.3 40.0 L 96.3 36.0 L 131.5 36.0 L 131.5 16.0 L 143.5 18.0 L 146.5 20.0 L 143.5 21.8 L 143.5 36.0 L 156.0 36.0 L 166.0 26.0 L 178.0 36.0 L 178.0 40.0 L 143.5 40.0 L 143.5 92.0 L 166.9 92.0 L 175.2 83.7 L 172.2 83.7 L 168.9 80.5 L 168.5 78.6 Z M 181.1 112.6 L 176.1 115.6 L 176.1 179.3 L 166.1 184.3 L 166.1 175.3 L 106.5 175.3 L 106.5 182.3 L 97.5 186.8 L 97.5 104.1 L 106.5 108.6 L 166.1 108.6 L 171.1 103.6 Z M 106.5 112.6 L 106.5 171.3 L 166.1 171.3 L 166.1 112.6 Z M 164.3 130.5 L 159.3 133.5 L 159.3 157.4 L 149.3 162.4 L 149.3 155.4 L 123.8 155.4 L 123.8 158.4 L 113.8 163.4 L 113.8 121.5 L 123.8 126.5 L 149.3 126.5 L 154.3 121.5 Z M 123.8 130.5 L 123.8 151.4 L 149.3 151.4 L 149.3 130.5 Z M 31.9 90.4 L 31.9 118.6 L 47.1 118.6 L 47.1 90.4 Z M 59.1 90.4 L 59.1 118.6 L 75.8 118.6 L 75.8 90.4 Z M 116.4 74.9 L 115.8 73.2 L 115.1 71.4 L 114.3 69.7 L 113.4 68.0 L 112.33503980636597 66.3541524887085 L 111.5 68.4 L 109.2 72.9 L 106.6 77.1 L 103.8 80.9 L 100.8 84.3 L 97.4 87.2 L 93.9 89.6 L 92.7 88.3 L 94.7 84.8 L 96.6 81.2 L 98.4 77.5 L 100.0 73.6 L 101.5 69.5 L 102.9 65.1 L 104.0 60.5 L 105.0 55.6 L 105.9 50.4 L 106.4696928024292 46.00522699356079 L 106.4 46.0 L 106.9 43.0 L 118.4 46.9 L 121.1 49.3 L 117.47022905349732 50.75190839767456 L 117.0 52.7 L 115.4 58.3 L 113.636883354187 63.1253719329834 L 114.5 63.4 L 116.7 64.3 L 118.7 65.5 L 120.6 66.8 L 122.5 68.3 L 124.2 70.0 L 125.8 71.9 L 127.3 73.9 L 128.7 76.0 L 128.5 80.6 L 125.2 83.8 L 120.6 83.5 L 117.5 80.2 L 116.9 76.6 Z M 40.4 41.4 L 40.4 59.6 L 64.9 59.6 L 64.9 41.4 Z " />
</g>
</svg>
