<svg xmlns="http://www.w3.org/2000/svg" xmlns:xlink="http://www.w3.org/1999/xlink" version="1.1" baseProfile="full" viewBox="0 0 200 200" width="200" height="200">
<g fill="black">
<path d="M 135.1 162.0 L 135.7 165.5 L 131.9729097366333 164.50167226791382 L 131.1 165.2 L 126.8 168.3 L 122.2 171.3 L 117.2 174.2 L 112.0 177.0 L 106.4 179.7 L 100.5 182.3 L 94.2 184.7 L 87.6 186.9 L 80.6 188.8 L 79.9 187.1 L 86.1 183.4 L 91.9 179.8 L 97.5 176.4 L 102.7 173.1 L 107.6 169.7 L 112.1 166.4 L 116.3 163.1 L 120.2 159.8 L 123.7 156.6 L 126.12311925888062 154.02055044174193 L 126.1 154.0 L 126.37450981140137 153.7529411315918 L 126.8 153.3 L 126.83593072891236 153.33766231536865 L 127.1 153.1 Z M 75.3 169.0 L 72.8 165.8 L 70.0 162.7 L 67.1 159.7 L 63.9 156.8 L 60.5 154.1 L 56.9 151.4 L 53.1 148.7 L 52.28638134002686 148.18404664993287 L 49.0 156.4 L 43.7 165.6 L 37.3 173.4 L 30.0 179.8 L 21.7 184.6 L 12.6 187.8 L 12.0 186.1 L 19.8 181.3 L 26.5 175.6 L 32.3 169.1 L 37.2 161.6 L 41.2 153.0 L 44.3 143.2 L 46.6 132.3 L 48.0 120.2 L 48.5 106.8 L 48.1 92.2 L 48.16960906982422 92.19709959030152 L 48.1 89.9 L 60.1 91.7 L 63.2 93.6 L 60.048596668243405 95.65805931091309 L 59.9 107.1 L 58.7 121.3 L 56.5 134.2 L 53.35840444564819 145.3383843421936 L 54.5 145.6 L 59.2 146.9 L 63.7 148.7 L 68.0 150.8 L 72.1 153.2 L 76.0 155.8 L 79.7 158.7 L 83.3 161.9 L 86.6 165.4 L 89.7 169.1 L 90.5 173.6 L 88.1 177.4 L 83.6 178.3 L 79.8 175.8 L 77.6 172.3 Z M 171.3 176.3 L 168.9 173.5 L 166.3 170.7 L 163.5 168.0 L 160.4 165.3 L 157.2 162.8 L 153.8 160.2 L 150.2 157.6 L 146.3 155.2 L 147.0 153.5 L 151.5 154.6 L 156.0 155.9 L 160.2 157.5 L 164.3 159.3 L 168.2 161.4 L 171.9 163.7 L 175.5 166.2 L 178.9 168.9 L 182.1 171.8 L 185.1 174.9 L 186.2 179.3 L 184.0 183.3 L 179.6 184.5 L 175.6 182.3 L 173.6 179.3 Z M 188.7 26.0 L 188.7 30.0 L 149.5692307472229 30.0 L 149.2 30.6 L 147.3 33.6 L 143.1 39.2 L 140.9 42.0 L 138.7 44.6 L 136.3 47.2 L 133.8 49.6 L 131.2 52.0 L 128.65454549789428 54.0 L 164.0 54.0 L 170.0 49.0 L 181.0 58.0 L 176.0 62.0 L 176.0 144.0 L 164.0 150.0 L 164.0 144.0 L 118.1 144.0 L 118.1 151.0 L 106.1 157.0 L 106.1 48.0 L 118.1 54.0 L 125.33999996185302 54.0 L 126.3 52.4 L 127.8 49.3 L 130.8 43.3 L 133.6 37.3 L 136.2 31.3 L 136.7199999809265 30.0 L 95.2 30.0 L 95.2 26.0 L 166.7 26.0 L 176.7 16.0 Z M 18.2 145.4 L 15.7 141.6 L 16.6 137.1 L 18.5 134.8 L 20.2 132.3 L 21.7 129.8 L 23.1 127.3 L 24.2 124.6 L 25.1 121.8 L 25.9 118.8 L 26.5 115.8 L 26.9 112.5 L 26.8 109.1 L 28.6 108.7 L 29.6 112.1 L 30.7 115.5 L 31.4 119.0 L 31.8 122.5 L 31.7 126.1 L 31.4 129.6 L 30.7 133.2 L 29.6 136.8 L 28.3 140.3 L 26.6 143.8 L 22.7 146.3 Z M 118.1 115.0 L 118.1 140.0 L 164.0 140.0 L 164.0 115.0 Z M 91.4 107.4 L 93.2 110.5 L 89.2282608985901 110.91086959838867 L 87.1 114.2 L 84.7 117.4 L 82.2 120.6 L 79.6 123.7 L 76.8 126.7 L 73.9 129.6 L 70.8 132.4 L 67.5 135.0 L 64.3 137.6 L 62.9 136.3 L 65.2 132.9 L 67.3 129.4 L 69.3 125.9 L 71.2 122.5 L 73.0 119.1 L 74.8 115.8 L 76.4 112.4 L 77.9 109.0 L 79.3 105.7 L 80.23648586273194 103.25072927474976 L 80.1 103.2 L 81.1 101.1 Z M 118.1 87.0 L 118.1 111.0 L 164.0 111.0 L 164.0 87.0 Z M 30.0 23.2 L 74.4 23.2 L 80.4 18.2 L 91.4 27.2 L 86.4 31.2 L 86.4 85.7 L 74.4 91.7 L 74.4 83.7 L 30.0 83.7 L 30.0 90.7 L 18.0 96.7 L 18.0 17.2 Z M 118.1 58.0 L 118.1 83.0 L 164.0 83.0 L 164.0 58.0 Z M 30.0 54.6 L 30.0 79.7 L 74.4 79.7 L 74.4 54.6 Z M 30.0 27.2 L 30.0 50.6 L 74.4 50.6 L 74.4 27.2 Z " />
</g>
</svg>
