<svg xmlns="http://www.w3.org/2000/svg" xmlns:xlink="http://www.w3.org/1999/xlink" version="1.1" baseProfile="full" viewBox="0 0 200 200" width="200" height="200">
<g fill="black">
<path d="M 137.1 161.9 L 137.9 165.4 L 134.062903213501 164.45755519866944 L 133.3 165.1 L 129.1 168.2 L 124.7 171.3 L 119.9 174.2 L 114.9 177.0 L 109.5 179.7 L 103.8 182.2 L 97.8 184.7 L 91.5 186.8 L 84.7 188.8 L 84.0 187.1 L 89.9 183.4 L 95.4 179.9 L 100.7 176.4 L 105.7 173.1 L 110.4 169.8 L 114.7 166.5 L 118.7 163.2 L 122.4 159.9 L 125.7 156.7 L 128.03576641082765 154.13065690994262 L 128.0 154.1 L 128.9 153.1 Z M 28.9 182.1 L 16.9 188.1 L 16.9 115.0 L 28.9 117.0 L 31.9 119.0 L 28.9 120.8 L 28.9 166.1 L 48.0 166.1 L 48.0 95.5 L 60.0 97.5 L 63.0 99.5 L 60.0 101.3 L 60.0 166.1 L 79.0 166.1 L 79.0 115.0 L 91.0 117.0 L 94.0 119.0 L 91.0 120.8 L 91.0 170.1 L 79.0 176.1 L 79.0 170.1 L 28.9 170.1 Z M 171.3 176.2 L 169.0 173.4 L 166.5 170.6 L 163.9 167.9 L 161.0 165.3 L 158.0 162.7 L 154.7 160.2 L 151.3 157.6 L 147.6 155.2 L 148.3 153.5 L 152.7 154.7 L 156.9 156.0 L 161.0 157.6 L 165.0 159.4 L 168.7 161.5 L 172.3 163.8 L 175.7 166.3 L 179.0 169.0 L 182.1 171.9 L 185.0 175.0 L 186.0 179.4 L 183.7 183.4 L 179.3 184.4 L 175.3 182.1 L 173.4 179.1 Z M 188.2 26.0 L 188.2 30.0 L 151.0 30.0 L 150.7 30.5 L 148.8 33.5 L 144.8 39.1 L 142.7 41.9 L 140.5 44.5 L 138.2 47.1 L 135.8 49.6 L 133.2 52.0 L 130.83636360168458 54.0 L 164.3 54.0 L 170.3 49.0 L 181.3 58.0 L 176.3 62.0 L 176.3 144.0 L 164.3 150.0 L 164.3 144.0 L 120.8 144.0 L 120.8 147.0 L 108.8 153.0 L 108.8 48.0 L 120.8 54.0 L 127.52068967819214 54.0 L 128.4 52.5 L 129.8 49.4 L 132.6 43.4 L 136.5 34.4 L 137.7 31.4 L 138.21333332061766 30.0 L 98.7 30.0 L 98.7 26.0 L 166.2 26.0 L 176.2 16.0 Z M 120.8 115.0 L 120.8 140.0 L 164.3 140.0 L 164.3 115.0 Z M 120.8 87.0 L 120.8 111.0 L 164.3 111.0 L 164.3 87.0 Z M 95.7 29.8 L 90.7 33.8 L 90.7 93.6 L 78.7 99.6 L 78.7 87.6 L 17.1 87.6 L 17.1 83.6 L 78.7 83.6 L 78.7 57.0 L 20.7 57.0 L 20.7 53.0 L 78.7 53.0 L 78.7 29.8 L 18.1 29.8 L 18.1 25.8 L 78.7 25.8 L 84.7 20.8 Z M 120.8 58.0 L 120.8 83.0 L 164.3 83.0 L 164.3 58.0 Z " />
</g>
</svg>
