<svg xmlns="http://www.w3.org/2000/svg" xmlns:xlink="http://www.w3.org/1999/xlink" version="1.1" baseProfile="full" viewBox="0 0 200 200" width="200" height="200">
<g fill="black">
<path d="M 34.1 107.0 L 65.2 107.0 L 71.2 102.0 L 82.2 111.0 L 77.2 115.0 L 77.2 180.0 L 65.2 186.0 L 65.2 176.0 L 34.1 176.0 L 34.1 183.0 L 22.1 189.0 L 22.1 101.0 Z M 160.4 180.1 L 158.8 182.0 L 157.0 183.6 L 155.0 185.0 L 152.8 186.1 L 150.5 187.0 L 148.2 187.6 L 145.7 188.0 L 143.2 188.1 L 143.2 182.1 L 123.2 179.1 L 123.2 176.1 L 143.2 176.1 L 144.6 176.0 L 145.8 175.9 L 146.9 175.6 L 148.7 174.8 L 149.5 174.2 L 150.3 173.5 L 151.0 172.7 L 151.7 171.7 L 152.4 170.5 L 152.9 169.1 L 153.6 166.3 L 154.4 162.2 L 154.6716980934143 160.4 L 112.85511922836304 160.4 L 111.3 173.0 L 98.6 177.5 L 104.15186071395874 132.6 L 90.5 132.6 L 90.5 128.6 L 104.64645862579346 128.6 L 108.9 94.2 L 118.90533332824707 100.9 L 159.2 100.9 L 165.2 95.9 L 176.2 104.9 L 171.2 107.9 L 170.95584411621093 108.0017315864563 L 170.6 115.0 L 169.9 125.7 L 169.72244901657103 128.6 L 173.1777777671814 128.6 L 179.4 121.6 L 187.4 128.6 L 187.4 132.6 L 169.47755098342896 132.6 L 169.3 135.5 L 168.6 144.1 L 167.9 151.8 L 167.35074625015258 156.4 L 172.9 156.4 L 177.4 150.4 L 183.4 156.4 L 183.4 160.4 L 166.8285714149475 160.4 L 166.3 164.1 L 165.4 168.8 L 164.4 172.7 L 163.1 175.9 L 161.9 178.1 Z M 34.1 142.0 L 34.1 172.0 L 65.2 172.0 L 65.2 142.0 Z M 116.28625526428223 132.6 L 113.34880781173706 156.4 L 155.2546875 156.4 L 155.9 150.5 L 156.6 143.1 L 157.3 134.6 L 157.44583330154418 132.6 Z M 135.5 146.4 L 134.6 144.8 L 133.6 143.3 L 132.5 141.8 L 131.2 140.3 L 129.7 138.9 L 128.0 137.5 L 126.0 136.7 L 126.5 134.9 L 128.7 135.4 L 131.1 135.5 L 133.5 135.9 L 135.8 136.6 L 138.1 137.6 L 140.3 138.8 L 142.4 140.2 L 144.4 141.9 L 146.2 143.8 L 148.0 146.0 L 148.4 150.5 L 145.5 154.1 L 140.9 154.5 L 137.4 151.6 L 136.2 148.0 Z M 34.1 111.0 L 34.1 138.0 L 65.2 138.0 L 65.2 111.0 Z M 119.70504913330078 104.9 L 116.77994394302368 128.6 L 157.7375 128.6 L 158.0 125.0 L 158.6 114.3 L 159.08205127716064 104.9 Z M 137.6 120.7 L 137.0 119.2 L 136.2 117.7 L 135.4 116.3 L 134.3 114.9 L 133.1 113.5 L 131.8 112.1 L 130.2 110.7 L 128.3 110.0 L 128.7 108.2 L 130.9 108.7 L 133.2 108.8 L 135.4 109.2 L 137.6 109.8 L 139.8 110.6 L 141.8 111.7 L 143.8 113.0 L 145.7 114.6 L 147.5 116.3 L 149.1 118.2 L 149.5 122.8 L 146.6 126.4 L 142.1 126.7 L 138.5 123.8 L 138.1 122.2 Z M 90.5 86.7 L 133.2 86.7 L 133.2 63.1 L 103.5 63.1 L 103.5 59.1 L 133.2 59.1 L 133.2 37.9 L 113.77826089859009 37.9 L 111.8 41.4 L 108.9 45.7 L 105.7 49.8 L 102.2 53.5 L 98.5 57.0 L 94.3 60.1 L 89.9 62.7 L 88.7 61.4 L 91.8 57.4 L 94.6 53.4 L 97.2 49.5 L 99.5 45.5 L 101.7 41.3 L 103.6 37.1 L 105.2 32.8 L 106.7 28.3 L 107.8 23.7 L 108.58903875350953 19.91261386871338 L 108.5 19.9 L 109.2 17.1 L 120.5 21.6 L 122.9 24.3 L 119.16823616027833 25.521304512023924 L 118.7 26.9 L 116.7 32.0 L 115.78958330154418 33.9 L 133.2 33.9 L 133.2 12.6 L 145.2 14.6 L 148.2 16.6 L 145.2 18.4 L 145.2 33.9 L 160.3 33.9 L 170.3 23.9 L 182.3 33.9 L 182.3 37.9 L 145.2 37.9 L 145.2 59.1 L 154.1 59.1 L 164.1 49.1 L 176.1 59.1 L 176.1 63.1 L 145.2 63.1 L 145.2 86.7 L 169.8181818008423 86.7 L 178.0 77.7 L 188.0 86.7 L 188.0 90.7 L 90.5 90.7 Z M 74.6 48.2 L 77.1 50.7 L 73.19073724746704 52.05047254562378 L 72.3 54.5 L 70.9 57.9 L 69.4 61.6 L 67.6 65.5 L 65.7 69.6 L 63.5 74.0 L 61.1 78.6 L 58.4 83.3 L 56.88800001144409 86.0 L 64.2 86.0 L 74.2 76.0 L 86.2 86.0 L 86.2 90.0 L 13.2 90.0 L 13.2 86.0 L 54.30727272033691 86.0 L 55.3 82.1 L 56.5 76.8 L 57.7 71.8 L 58.9 67.2 L 59.9 62.9 L 60.7 58.8 L 61.5 55.1 L 62.1 51.7 L 62.5 48.5 L 62.69162998199463 46.71145372390747 L 62.6 46.7 L 62.78571424484253 45.83333330154419 L 62.8 45.7 L 62.813665294647215 45.702895164489746 L 63.2 43.9 Z M 32.6 70.2 L 32.3 66.7 L 31.9 63.3 L 31.5 60.1 L 31.0 56.9 L 30.3 53.9 L 29.7 50.9 L 29.0 48.0 L 27.9 45.3 L 29.4 44.3 L 31.4 46.6 L 33.6 49.0 L 35.5 51.7 L 37.3 54.6 L 38.9 57.7 L 40.4 61.1 L 41.7 64.6 L 42.8 68.4 L 43.8 72.3 L 44.7 76.4 L 43.4 80.7 L 39.4 82.9 L 35.0 81.6 L 32.8 77.6 L 32.7 73.8 Z M 16.3 38.0 L 44.1 38.0 L 44.1 13.0 L 56.1 15.0 L 59.1 17.0 L 56.1 18.8 L 56.1 38.0 L 61.0 38.0 L 71.0 28.0 L 83.0 38.0 L 83.0 42.0 L 16.3 42.0 Z " />
</g>
</svg>
