<svg xmlns="http://www.w3.org/2000/svg" xmlns:xlink="http://www.w3.org/1999/xlink" version="1.1" baseProfile="full" viewBox="0 0 200 200" width="200" height="200">
<g fill="black">
<path d="M 92.4 26.0 L 159.4 26.0 L 165.4 21.0 L 176.4 30.0 L 171.4 33.0 L 171.2451434135437 33.06452360153198 L 170.9 64.3 L 171.2 94.2 L 172.3 118.4 L 174.0 137.5 L 176.1 152.0 L 178.5 162.4 L 179.27733602523804 164.69821071624756 L 182.9 149.0 L 184.9 149.0 L 183.04893617630006 173.0638298034668 L 183.9 174.0 L 183.7 174.0 L 187.6 176.4 L 188.8 180.8 L 186.5 184.7 L 182.1 185.9 L 177.2 184.0 L 173.2 180.0 L 169.8 174.0 L 166.9 165.7 L 164.3 154.2 L 162.1 138.9 L 160.4 119.2 L 159.2 94.5 L 159.11917400360107 86.33657817840576 L 154.6 89.5 L 154.6 123.0 L 143.6 128.5 L 143.6 123.0 L 131.4 123.0 L 131.4 157.10793647766113 L 136.6 156.2 L 143.2 155.1 L 145.96951723098755 154.6986207008362 L 145.9 154.5 L 144.3 150.6 L 142.5 146.6 L 140.7 142.5 L 138.8 138.4 L 136.7 134.3 L 138.1 133.2 L 141.5 136.4 L 144.8 139.8 L 147.8 143.3 L 150.6 147.0 L 153.2 150.8 L 155.6 154.7 L 157.8 158.8 L 159.8 162.9 L 161.6 167.2 L 163.2 171.5 L 162.6 176.0 L 159.0 178.8 L 154.5 178.2 L 151.6 174.6 L 150.8 170.6 L 149.8 166.5 L 148.6 162.5 L 147.3 158.5 L 146.94976396560668 157.49932565689087 L 144.3 158.7 L 138.1 161.3 L 132.1 163.6 L 126.3 165.8 L 120.7 167.7 L 115.3 169.6 L 110.2 171.3 L 105.3 172.8 L 100.6 174.3 L 100.1209189414978 174.438401222229 L 98.7 178.1 L 96.1 175.6 L 91.6 164.3 L 93.5 163.9 L 98.0 163.2 L 102.8 162.4 L 107.8 161.5 L 113.0 160.6 L 118.5 159.5 L 121.4 159.0 L 121.4 123.0 L 108.1 123.0 L 108.1 135.0 L 99.1 139.5 L 99.1 77.5 L 108.1 82.0 L 121.4 82.0 L 121.4 61.225 L 116.8 61.8 L 110.8 62.4 L 104.5 62.8 L 97.9 62.8 L 97.6 61.1 L 103.9 59.0 L 109.8 57.2 L 115.4 55.4 L 120.6 53.7 L 125.5 52.0 L 130.0 50.2 L 134.1 48.5 L 137.8 46.7 L 141.2 44.9 L 143.22695779800415 43.64188823699951 L 143.2 43.6 L 143.23667306900023 43.63585805892944 L 144.1 43.1 L 145.60806589126588 45.954553318023684 L 152.2 52.4 L 152.4 55.7 L 148.6554973602295 54.139790534973145 L 145.9 55.3 L 141.8 56.7 L 137.4 58.0 L 132.7 59.1 L 131.4 59.38599996566772 L 131.4 82.0 L 143.6 82.0 L 149.1 77.0 L 159.11169757843018 85.58145503997802 L 158.9 64.2 L 159.27790050506593 30.0 L 92.4 30.0 L 92.4 94.0 L 91.9 107.8 L 91.1 120.7 L 90.0 132.6 L 88.5 143.6 L 86.6 153.6 L 84.3 162.6 L 81.7 170.7 L 78.6 177.7 L 75.0 183.6 L 71.1 188.4 L 69.8 187.5 L 72.3 182.1 L 74.5 176.0 L 76.5 169.0 L 78.2 161.1 L 79.6 152.3 L 80.8 142.6 L 81.7 131.9 L 82.2 120.2 L 82.4 107.5 L 82.4 21.0 Z M 64.1 48.9 L 62.9 46.4 L 61.4 43.9 L 59.7 41.4 L 57.8 38.8 L 55.6 36.2 L 53.2 33.5 L 50.6 30.8 L 49.31481485366821 29.686172866821288 L 47.7 34.1 L 44.4 42.2 L 40.8 50.1 L 37.0 57.7 L 32.9 65.2 L 30.577777767181395 69.0 L 53.61818180084229 69.0 L 61.8 60.0 L 71.8 69.0 L 71.8 73.0 L 53.2 73.0 L 53.2 101.0 L 58.018181800842285 101.0 L 66.2 92.0 L 76.2 101.0 L 76.2 105.0 L 53.2 105.0 L 53.2 161.51355934143066 L 56.2 160.7 L 68.2 157.5 L 74.4 156.1 L 75.1 157.8 L 69.6 161.1 L 64.1 164.1 L 58.5 166.8 L 52.8 169.4 L 47.2 171.9 L 41.5 174.2 L 35.7 176.5 L 30.0 178.6 L 24.3 180.6 L 22.429032230377196 181.21290321350097 L 21.2 184.9 L 18.5 182.5 L 13.5 171.4 L 15.4 170.9 L 21.2 169.6 L 26.9 168.3 L 32.7 166.9 L 38.6 165.4 L 41.2 164.72758617401124 L 41.2 105.0 L 17.5 105.0 L 17.5 101.0 L 41.2 101.0 L 41.2 73.0 L 30.5 73.0 L 30.5 69.12727270126342 L 28.5 72.4 L 23.7 79.4 L 18.6 86.1 L 13.1 92.5 L 11.6 91.4 L 15.4 84.0 L 19.1 76.6 L 22.7 69.2 L 26.1 61.7 L 29.3 54.2 L 32.3 46.5 L 35.0 38.6 L 37.5 30.7 L 39.8 22.6 L 41.8 14.4 L 41.839468002319336 14.41054744720459 L 42.3 12.7 L 53.4 17.5 L 55.8 20.2 L 52.201685428619385 21.228089904785158 L 50.7 25.9 L 50.126343154907225 27.467995357513427 L 52.1 28.4 L 55.8 30.0 L 59.1 31.8 L 62.3 33.8 L 65.2 35.9 L 68.0 38.2 L 70.5 40.6 L 72.8 43.2 L 74.9 45.9 L 76.8 48.7 L 76.9 53.3 L 73.8 56.7 L 69.2 56.8 L 65.8 53.7 L 65.1 51.3 Z M 25.7 145.3 L 25.5 142.3 L 25.1 139.3 L 24.5 136.3 L 23.7 133.4 L 22.8 130.4 L 21.7 127.3 L 20.5 124.2 L 18.8 121.3 L 20.2 120.1 L 22.7 122.6 L 25.3 125.0 L 27.7 127.6 L 29.8 130.5 L 31.6 133.5 L 33.3 136.6 L 34.7 139.9 L 36.0 143.3 L 36.9 146.9 L 37.7 150.5 L 36.2 154.8 L 32.2 156.9 L 27.8 155.5 L 25.7 151.4 L 25.8 148.3 Z M 74.3 121.7 L 76.6 124.5 L 72.61000003814698 125.48000001907349 L 70.0 130.7 L 66.6 136.7 L 64.8 139.6 L 62.9 142.6 L 60.9 145.5 L 58.7 148.4 L 56.7 151.4 L 55.1 150.5 L 56.2 147.2 L 57.0 143.7 L 57.8 140.3 L 58.7 137.0 L 59.5 133.7 L 60.2 130.5 L 61.0 127.3 L 61.7 124.2 L 62.3 121.1 L 62.714705848693846 119.0264705657959 L 62.6 119.0 L 63.4 116.5 Z M 108.1 86.0 L 108.1 119.0 L 121.4 119.0 L 121.4 86.0 Z M 131.4 86.0 L 131.4 119.0 L 143.6 119.0 L 143.6 86.0 Z " />
</g>
</svg>
