<svg xmlns="http://www.w3.org/2000/svg" xmlns:xlink="http://www.w3.org/1999/xlink" version="1.1" baseProfile="full" viewBox="0 0 200 200" width="200" height="200">
<g fill="black">
<path d="M 140.3 161.8 L 141.1 165.3 L 137.26968088150025 164.4936170578003 L 136.7 165.0 L 132.7 168.2 L 128.5 171.2 L 124.1 174.1 L 119.3 176.9 L 114.2 179.6 L 108.9 182.2 L 103.2 184.6 L 97.2 186.8 L 90.8 188.8 L 90.1 187.1 L 95.5 183.4 L 100.7 179.9 L 105.6 176.5 L 110.2 173.2 L 114.6 169.8 L 118.6 166.6 L 122.3 163.3 L 125.7 160.0 L 128.8 156.8 L 130.95152702331544 154.34111194610597 L 130.9 154.3 L 131.9 153.2 Z M 65.0 174.0 L 77.0 174.0 L 78.2 173.9 L 79.1 173.7 L 80.0 173.4 L 80.4 173.0 L 80.7 172.1 L 80.9 171.2 L 81.0 170.0 L 81.0 147.0 L 37.0 147.0 L 37.0 183.0 L 25.0 189.0 L 25.0 147.0 L 11.9 147.0 L 11.9 143.0 L 25.0 143.0 L 25.0 117.0 L 14.2 117.0 L 14.2 113.0 L 25.0 113.0 L 25.0 78.0 L 37.0 84.0 L 53.0 84.0 L 53.0 66.0 L 65.0 68.0 L 68.0 70.0 L 65.0 71.8 L 65.0 84.0 L 81.0 84.0 L 87.0 79.0 L 98.0 88.0 L 93.0 92.0 L 93.0 113.0 L 94.4 113.0 L 98.9 107.0 L 104.9 113.0 L 104.9 117.0 L 93.0 117.0 L 93.0 143.0 L 97.2 143.0 L 101.7 137.0 L 107.7 143.0 L 107.7 147.0 L 93.0 147.0 L 93.0 170.0 L 92.8 172.5 L 92.4 175.0 L 91.6 177.4 L 90.3 179.7 L 88.7 181.7 L 86.7 183.3 L 84.4 184.6 L 82.0 185.4 L 79.5 185.8 L 77.0 186.0 L 77.0 180.0 L 65.0 177.0 Z M 171.6 176.0 L 169.5 173.2 L 167.3 170.5 L 164.8 167.8 L 162.2 165.2 L 159.4 162.6 L 156.4 160.1 L 153.2 157.5 L 149.8 155.2 L 150.5 153.5 L 158.7 156.1 L 162.5 157.7 L 166.2 159.5 L 169.8 161.6 L 173.2 163.9 L 176.4 166.4 L 179.5 169.1 L 182.4 172.0 L 185.2 175.1 L 186.1 179.5 L 183.7 183.4 L 179.2 184.3 L 175.4 181.9 L 173.6 178.9 Z M 187.9 26.0 L 187.9 30.0 L 153.23333330154418 30.0 L 153.0 30.4 L 149.4 36.2 L 145.4 41.8 L 143.3 44.4 L 141.1 47.0 L 138.8 49.5 L 136.4 51.9 L 133.9181818008423 54.0 L 165.1 54.0 L 171.1 49.0 L 182.1 58.0 L 177.1 62.0 L 177.1 144.0 L 165.1 150.0 L 165.1 144.0 L 125.0 144.0 L 125.0 147.0 L 113.0 153.0 L 113.0 48.0 L 125.0 54.0 L 130.77241382598876 54.0 L 131.6 52.5 L 132.9 49.4 L 135.5 43.4 L 136.7 40.5 L 137.9 37.5 L 140.1 31.5 L 140.6 30.0 L 103.9 30.0 L 103.9 26.0 L 165.9 26.0 L 175.9 16.0 Z M 37.0 117.0 L 37.0 143.0 L 53.0 143.0 L 53.0 117.0 Z M 65.0 117.0 L 65.0 143.0 L 81.0 143.0 L 81.0 117.0 Z M 125.0 115.0 L 125.0 140.0 L 165.1 140.0 L 165.1 115.0 Z M 37.0 88.0 L 37.0 113.0 L 53.0 113.0 L 53.0 88.0 Z M 65.0 88.0 L 65.0 113.0 L 81.0 113.0 L 81.0 88.0 Z M 125.0 87.0 L 125.0 111.0 L 165.1 111.0 L 165.1 87.0 Z M 125.0 58.0 L 125.0 83.0 L 165.1 83.0 L 165.1 58.0 Z M 86.97884616851806 16.773317337036133 L 96.9 25.1 L 97.2 28.1 L 92.9942307472229 26.145205879211424 L 89.8 27.0 L 72.4 30.6 L 66.5 31.6 L 54.5 33.6 L 48.5 34.4 L 42.4 35.1 L 37.38980512619018 35.50404796600342 L 36.3 39.5 L 34.8 43.9 L 33.2 48.2 L 31.3 52.6 L 29.2 56.8 L 26.9 61.1 L 24.3 65.3 L 21.4 69.4 L 18.3 73.4 L 16.7 72.5 L 18.3 67.8 L 19.8 63.1 L 21.1 58.6 L 22.4 54.2 L 23.5 49.8 L 24.5 45.6 L 25.2 41.4 L 25.8 37.3 L 26.3 33.2 L 26.524613761901854 30.205149364471435 L 26.4 30.2 L 26.8 27.1 L 38.5 30.7 L 38.63416147232056 30.819254684448243 L 41.3 29.9 L 47.1 28.0 L 52.8 26.2 L 58.6 24.4 L 64.3 22.6 L 81.1 17.2 L 86.6 15.4 Z M 89.0 57.2 L 86.8 51.8 L 85.5 49.2 L 84.2 46.5 L 82.9 43.9 L 79.9 38.7 L 78.1 36.3 L 79.3 35.0 L 81.8 36.8 L 84.5 38.5 L 87.0 40.4 L 89.4 42.5 L 91.7 44.7 L 93.9 47.1 L 96.0 49.6 L 98.1 52.2 L 100.0 54.9 L 101.8 57.7 L 101.9 62.3 L 98.8 65.7 L 94.3 65.8 L 90.9 62.7 L 90.0 59.9 Z M 55.7 52.3 L 55.1 50.1 L 54.3 47.9 L 53.6 45.7 L 52.7 43.5 L 51.8 41.4 L 50.9 39.1 L 49.5 37.3 L 50.8 36.0 L 52.6 37.6 L 54.8 38.9 L 56.8 40.4 L 58.7 42.1 L 60.6 44.0 L 62.3 45.9 L 64.0 48.0 L 65.6 50.3 L 67.1 52.6 L 68.6 55.0 L 68.3 59.6 L 65.0 62.8 L 60.5 62.5 L 57.3 59.2 L 56.9 56.9 Z " />
</g>
</svg>
