<svg xmlns="http://www.w3.org/2000/svg" xmlns:xlink="http://www.w3.org/1999/xlink" version="1.1" baseProfile="full" viewBox="0 0 200 200" width="200" height="200">
<g fill="black">
<path d="M 157.5 161.0 L 158.9 164.3 L 154.9536082267761 164.23195877075196 L 154.9 164.3 L 152.0 167.5 L 149.0 170.5 L 145.8 173.5 L 142.3 176.3 L 138.7 179.1 L 134.8 181.7 L 130.7 184.2 L 126.4 186.5 L 121.9 188.7 L 120.8 187.2 L 124.4 183.8 L 127.7 180.3 L 130.9 177.0 L 133.8 173.7 L 136.6 170.5 L 139.2 167.3 L 141.6 164.1 L 143.7 160.9 L 145.7 157.7 L 146.8953610420227 155.4499086380005 L 146.8 155.4 L 147.33625001907347 154.6199999809265 L 147.4 154.5 L 147.41299867630005 154.5083655357361 L 147.9 153.8 Z M 25.0 28.0 L 49.2 28.0 L 59.2 18.0 L 71.2 28.0 L 71.2 32.0 L 52.66896553039551 32.0 L 52.2 33.7 L 51.3 36.7 L 50.5 39.7 L 49.5 42.6 L 48.6 45.5 L 47.6 48.5 L 45.4 54.3 L 44.1 57.2 L 43.85172414779663 58.0 L 57.0 58.0 L 62.0 53.0 L 72.0 62.0 L 67.0 65.0 L 67.0 116.0 L 57.0 121.0 L 57.0 116.0 L 52.7 116.0 L 52.7 171.0 L 52.6 173.5 L 52.1 176.0 L 51.3 178.4 L 50.1 180.7 L 48.5 182.7 L 46.4 184.3 L 44.2 185.6 L 41.8 186.4 L 39.3 186.8 L 36.7 187.0 L 36.7 181.0 L 22.7 178.0 L 22.7 175.0 L 36.7 175.0 L 37.9 174.9 L 38.9 174.7 L 39.4 174.5 L 39.8 174.4 L 40.0 174.2 L 40.1 174.0 L 40.3 173.7 L 40.5 173.1 L 40.6 172.2 L 40.7 171.0 L 40.7 141.5529411315918 L 39.5 144.8 L 37.7 149.4 L 33.7 158.0 L 31.5 162.0 L 29.1 166.0 L 26.6 169.7 L 23.8 173.1 L 21.0 176.4 L 19.4 175.5 L 20.8 171.4 L 22.1 167.4 L 23.4 163.3 L 26.0 154.9 L 27.2 150.6 L 28.3 146.2 L 29.3 141.8 L 30.3 137.2 L 30.929039573669435 133.50439252853394 L 30.9 133.5 L 31.027272701263428 132.92727270126343 L 31.1 132.5 L 31.12110004425049 132.50504961013795 L 31.5 130.8 L 40.7 134.4637167930603 L 40.7 116.0 L 36.3 116.0 L 27.3 120.5 L 27.3 53.5 L 36.3 58.0 L 41.458064556121826 58.0 L 41.5 56.7 L 41.3 53.6 L 41.1 47.4 L 41.1 32.0 L 25.0 32.0 L 25.0 91.0 L 24.7 103.3 L 24.2 115.1 L 23.6 126.2 L 22.7 136.8 L 21.7 146.7 L 20.4 156.1 L 19.0 164.8 L 17.3 172.9 L 15.3 180.3 L 13.0 187.1 L 11.7 186.8 L 12.5 179.8 L 13.3 172.2 L 14.1 164.1 L 14.8 155.4 L 15.3 146.2 L 15.7 136.3 L 16.0 125.9 L 16.2 114.8 L 16.2 103.2 L 16.0 91.0 L 16.0 23.5 Z M 61.6 163.4 L 61.0 160.0 L 60.4 156.5 L 58.6 149.1 L 57.6 145.3 L 56.4 141.4 L 55.3 137.3 L 53.9 133.3 L 55.5 132.4 L 58.0 135.9 L 60.6 139.4 L 63.0 142.9 L 65.1 146.5 L 67.0 150.0 L 68.8 153.6 L 70.3 157.2 L 71.8 160.7 L 72.51018514633179 162.8305555343628 L 73.1 155.5 L 73.7 146.2 L 74.1 136.4 L 74.5 125.9 L 74.6 114.8 L 74.7 103.2 L 74.5 91.0 L 74.5 24.0 L 82.5 28.0 L 107.2 28.0 L 117.2 18.0 L 129.2 28.0 L 129.2 32.0 L 110.66896553039551 32.0 L 110.2 33.7 L 109.3 36.7 L 108.5 39.7 L 107.5 42.6 L 106.6 45.5 L 105.6 48.5 L 103.4 54.3 L 102.1 57.2 L 101.85172414779663 58.0 L 114.5 58.0 L 120.0 53.0 L 130.5 62.0 L 125.5 65.5 L 125.5 116.0 L 114.5 121.5 L 114.5 116.0 L 110.7 116.0 L 110.7 171.0 L 110.6 173.5 L 110.1 176.0 L 109.3 178.4 L 108.1 180.7 L 106.5 182.7 L 104.4 184.3 L 102.2 185.6 L 99.8 186.4 L 97.3 186.8 L 94.7 187.0 L 94.7 181.0 L 82.7 178.0 L 82.7 175.0 L 94.7 175.0 L 95.9 174.9 L 96.9 174.7 L 97.4 174.5 L 97.8 174.4 L 98.0 174.2 L 98.1 174.0 L 98.3 173.7 L 98.5 173.1 L 98.6 172.2 L 98.7 171.0 L 98.7 141.5529411315918 L 97.5 144.8 L 95.7 149.4 L 91.7 158.0 L 89.5 162.0 L 87.1 166.0 L 84.6 169.7 L 81.8 173.1 L 79.0 176.4 L 77.4 175.5 L 78.8 171.4 L 80.1 167.4 L 81.4 163.3 L 84.0 154.9 L 85.2 150.6 L 86.3 146.2 L 87.3 141.8 L 88.3 137.2 L 88.92903957366943 133.50439252853394 L 88.9 133.5 L 89.02727270126343 132.92727270126343 L 89.1 132.5 L 89.12110004425048 132.50504961013795 L 89.5 130.8 L 98.7 134.4637167930603 L 98.7 116.0 L 94.3 116.0 L 85.3 120.5 L 85.3 53.5 L 94.3 58.0 L 99.45806455612183 58.0 L 99.5 56.7 L 99.3 53.6 L 99.1 47.4 L 99.1 32.0 L 82.5 32.0 L 82.5 91.0 L 82.2 103.3 L 81.8 115.1 L 81.1 126.2 L 80.3 136.7 L 79.3 146.7 L 78.1 156.0 L 76.7 164.7 L 75.1 172.8 L 73.2 180.3 L 71.0 187.1 L 69.8 186.8 L 70.7 179.8 L 71.36022644042968 173.61037731170654 L 69.4 174.9 L 64.9 173.9 L 62.4 170.1 L 62.1 166.8 Z M 175.1 175.1 L 173.9 172.4 L 172.5 169.7 L 171.1 167.1 L 169.5 164.6 L 166.1 159.8 L 164.2 157.3 L 161.9 155.3 L 162.9 153.7 L 165.8 155.2 L 168.7 156.5 L 171.6 158.2 L 174.3 160.1 L 176.9 162.2 L 179.4 164.5 L 181.8 167.0 L 184.0 169.7 L 186.1 172.6 L 188.1 175.7 L 188.3 180.2 L 185.3 183.7 L 180.8 183.8 L 177.3 180.8 L 176.3 177.9 Z M 119.6 163.4 L 119.0 160.0 L 118.4 156.5 L 116.6 149.1 L 115.6 145.3 L 114.4 141.4 L 113.3 137.3 L 111.9 133.3 L 113.5 132.4 L 116.0 135.9 L 118.6 139.4 L 121.0 142.9 L 123.1 146.5 L 125.0 150.0 L 126.8 153.6 L 128.3 157.2 L 129.8 160.7 L 132.2 167.9 L 131.2 172.4 L 127.4 174.9 L 122.9 173.9 L 120.4 170.1 L 120.1 166.8 Z M 188.1 26.0 L 188.1 30.0 L 166.06000003814697 30.0 L 164.8 32.7 L 163.4 35.6 L 160.4 41.2 L 158.8 43.9 L 155.4 49.1 L 153.5 51.6 L 151.5 53.9 L 151.42799997329712 54.0 L 170.6 54.0 L 176.6 49.0 L 187.6 58.0 L 182.6 62.0 L 182.6 144.0 L 170.6 150.0 L 170.6 144.0 L 146.4 144.0 L 135.4 149.5 L 135.4 48.5 L 146.4 54.0 L 148.682142829895 54.0 L 149.1 52.7 L 149.7 49.8 L 150.4 46.8 L 151.8 41.0 L 152.4 38.1 L 153.0 35.1 L 153.6 32.2 L 154.03999996185303 30.0 L 130.6 30.0 L 130.6 26.0 L 166.1 26.0 L 176.1 16.0 Z M 146.4 115.0 L 146.4 140.0 L 170.6 140.0 L 170.6 115.0 Z M 94.3 89.0 L 94.3 112.0 L 114.5 112.0 L 114.5 89.0 Z M 36.3 89.0 L 36.3 112.0 L 57.0 112.0 L 57.0 89.0 Z M 146.4 87.0 L 146.4 111.0 L 170.6 111.0 L 170.6 87.0 Z M 94.3 62.0 L 94.3 85.0 L 114.5 85.0 L 114.5 62.0 Z M 36.3 62.0 L 36.3 85.0 L 57.0 85.0 L 57.0 62.0 Z M 146.4 58.0 L 146.4 83.0 L 170.6 83.0 L 170.6 58.0 Z " />
</g>
</svg>
