<svg xmlns="http://www.w3.org/2000/svg" xmlns:xlink="http://www.w3.org/1999/xlink" version="1.1" baseProfile="full" viewBox="0 0 200 200" width="200" height="200">
<g fill="black">
<path d="M 28.0 21.0 L 79.0 21.0 L 85.0 16.0 L 96.0 25.0 L 91.0 28.0 L 90.86560544967651 28.05599775314331 L 90.6 67.1 L 91.1 101.8 L 93.0 128.0 L 96.6 146.6 L 97.32293615341186 148.19313707351685 L 98.7 146.1 L 100.9 142.1 L 102.7 137.8 L 104.1 132.7 L 105.3 126.8 L 106.1 119.7 L 106.6 111.3 L 106.8 101.4 L 106.71724138259887 91.8 L 96.0 91.8 L 96.0 87.8 L 126.7 87.8 L 132.7 82.8 L 140.0 88.77272729873657 L 140.0 87.8 L 170.7 87.8 L 176.7 82.8 L 187.7 91.8 L 182.7 94.8 L 182.7 107.5 L 182.6 114.9 L 182.6 121.4 L 182.5 126.9 L 182.5 131.5 L 182.4 135.2 L 182.3 138.0 L 182.2 140.0 L 181.7 142.4 L 180.8 144.7 L 179.6 146.9 L 178.1 148.9 L 176.4 150.7 L 174.5 152.3 L 172.4 153.6 L 170.1 154.6 L 167.7 155.2 L 165.2 155.6 L 162.7 155.8 L 162.7 149.8 L 148.57162160873412 147.68074321746826 L 146.8 149.6 L 142.7 152.7 L 138.3 155.2 L 137.1 153.7 L 140.2 149.9 L 142.7 146.1 L 142.7 143.8 L 143.96499996185304 143.8 L 144.9 142.1 L 146.7 137.8 L 148.1 132.7 L 149.3 126.8 L 150.1 119.7 L 150.6 111.3 L 150.8 101.4 L 150.71724138259887 91.8 L 143.7 91.8 L 138.7 94.8 L 138.7 107.5 L 138.6 114.9 L 138.6 121.4 L 138.5 126.9 L 138.5 131.5 L 138.4 135.2 L 138.3 138.0 L 138.2 140.0 L 137.7 142.4 L 136.8 144.7 L 135.6 146.9 L 134.1 148.9 L 132.4 150.7 L 130.5 152.3 L 128.4 153.6 L 126.1 154.6 L 123.7 155.2 L 121.2 155.6 L 118.7 155.8 L 118.7 149.8 L 105.27155961990357 146.92247705459596 L 102.8 149.6 L 99.19740581512451 152.32391271591186 L 102.0 158.5 L 109.3 165.5 L 120.1 169.6 L 135.5 171.6 L 156.1 172.0 L 176.2307692527771 172.0 L 182.0 147.0 L 184.0 147.0 L 182.07446804046631 172.0319149017334 L 186.2 173.8 L 188.0 178.0 L 186.2 182.2 L 182.0 184.0 L 156.1 184.0 L 134.8 183.6 L 117.4 181.3 L 103.1 175.7 L 92.1 165.4 L 85.1 150.1 L 81.1 129.5 L 79.2 102.3 L 78.8217098236084 80.10697412490845 L 74.0 83.0 L 74.0 124.0 L 64.0 129.0 L 64.0 124.0 L 58.0 124.0 L 58.0 158.74615383148193 L 62.4 157.9 L 67.9 157.0 L 70.36973295211791 156.61676559448242 L 69.2 153.4 L 67.8 150.0 L 66.3 146.5 L 64.8 142.8 L 62.8 139.3 L 64.3 138.2 L 70.1 144.0 L 72.7 146.9 L 75.2 150.0 L 77.4 153.1 L 79.5 156.3 L 81.4 159.5 L 83.1 162.8 L 84.6 166.1 L 86.0 169.5 L 85.3 174.0 L 81.7 176.9 L 77.2 176.2 L 74.4 172.6 L 73.9 169.5 L 73.2 166.4 L 72.5 163.2 L 71.5 160.0 L 71.25714282989502 159.2714285850525 L 69.0 160.4 L 64.0 162.8 L 59.1 165.0 L 54.4 167.0 L 49.9 168.9 L 45.6 170.6 L 41.5 172.2 L 37.7 173.7 L 34.4840166091919 175.00377702713013 L 33.2 178.8 L 30.5 176.5 L 25.4 165.4 L 27.3 164.9 L 30.9 164.2 L 34.7 163.5 L 38.7 162.7 L 43.0 161.8 L 47.5 160.9 L 50.0 160.3680850982666 L 50.0 124.0 L 43.0 124.0 L 43.0 136.0 L 35.0 140.0 L 35.0 72.0 L 43.0 76.0 L 50.0 76.0 L 50.0 53.12142858505249 L 45.9 54.0 L 41.5 54.7 L 36.9 55.2 L 32.2 55.8 L 31.7 54.1 L 36.0 52.2 L 40.1 50.2 L 44.0 48.3 L 47.7 46.4 L 51.3 44.6 L 54.6 42.7 L 57.8 40.9 L 60.7 39.0 L 63.5 37.2 L 65.18597002029419 35.91866283416748 L 65.1 35.8 L 65.20251359939576 35.90608968734741 L 66.0 35.3 L 68.28508977890014 39.09619760513306 L 73.7 44.7 L 73.9 48.1 L 70.13104696273804 46.54043321609497 L 68.9 47.1 L 65.4 48.5 L 61.9 49.8 L 58.1 51.0 L 58.0 51.02820510864258 L 58.0 76.0 L 64.0 76.0 L 69.0 71.0 L 78.81708021163941 79.83537216186524 L 78.6 67.1 L 78.88639459609985 25.0 L 28.0 25.0 L 28.0 94.0 L 27.6 107.6 L 26.9 120.3 L 26.0 132.1 L 24.7 143.0 L 23.2 152.9 L 21.4 162.0 L 19.2 170.1 L 16.8 177.2 L 13.9 183.3 L 10.6 188.3 L 9.3 187.6 L 11.0 182.1 L 12.5 175.8 L 13.9 168.8 L 15.2 160.8 L 16.2 152.0 L 17.0 142.2 L 17.6 131.5 L 18.0 119.9 L 18.1 107.4 L 18.0 94.0 L 18.0 16.0 Z M 162.61666669845582 91.8 L 162.2 101.8 L 161.3 112.1 L 160.1 121.0 L 158.4 128.7 L 156.2 135.3 L 153.6 140.9 L 151.6666666984558 143.8 L 162.7 143.8 L 164.0 143.7 L 165.2 143.5 L 166.1 143.2 L 166.9 142.9 L 167.6 142.5 L 168.2 142.0 L 168.8 141.3 L 169.4 140.5 L 169.9 139.5 L 170.2174603462219 138.7380952835083 L 170.3 137.5 L 170.4 134.9 L 170.5 131.3 L 170.5 126.8 L 170.6 121.3 L 170.6 114.8 L 170.7 107.5 L 170.7 91.8 Z M 118.61666669845582 91.8 L 118.2 101.8 L 117.3 112.1 L 116.1 121.0 L 114.4 128.7 L 112.2 135.3 L 109.6 140.9 L 107.66666669845581 143.8 L 118.7 143.8 L 120.0 143.7 L 121.2 143.5 L 122.1 143.2 L 122.9 142.9 L 123.6 142.5 L 124.2 142.0 L 124.8 141.3 L 125.4 140.5 L 125.9 139.5 L 126.21746034622193 138.7380952835083 L 126.3 137.5 L 126.4 134.9 L 126.5 131.3 L 126.5 126.8 L 126.6 121.3 L 126.6 114.8 L 126.7 107.5 L 126.7 91.8 Z M 43.0 80.0 L 43.0 120.0 L 50.0 120.0 L 50.0 80.0 Z M 58.0 80.0 L 58.0 120.0 L 64.0 120.0 L 64.0 80.0 Z M 166.6 74.1 L 164.8 75.8 L 162.9 77.3 L 160.9 78.5 L 158.7 79.6 L 156.4 80.3 L 154.1 80.9 L 151.6 81.2 L 149.2 81.3 L 149.2 75.3 L 129.2 72.3 L 129.2 69.3 L 150.6 69.3 L 151.9 69.1 L 153.1 68.8 L 154.2 68.4 L 155.2 68.0 L 156.1 67.4 L 157.0 66.7 L 157.9 65.8 L 158.8 64.8 L 158.9766233444214 64.55714282989501 L 159.0 64.3 L 159.1 62.1 L 159.2 59.1 L 159.3 55.1 L 159.4 50.3 L 159.5 44.7 L 159.5 31.0 L 159.5756097793579 24.8 L 139.4878504753113 24.8 L 139.0 33.5 L 137.7 42.7 L 135.9 50.8 L 133.3 57.8 L 130.0 63.7 L 125.9 68.7 L 121.2 72.7 L 115.9 75.9 L 110.0 78.4 L 103.5 80.3 L 102.8 78.6 L 108.3 75.0 L 113.0 71.4 L 116.9 67.7 L 120.1 63.8 L 122.6 59.4 L 124.6 54.4 L 126.1 48.4 L 127.1 41.2 L 127.6 32.8 L 127.6 24.8 L 106.8 24.8 L 106.8 20.8 L 159.6 20.8 L 165.6 15.8 L 176.6 24.8 L 171.6 27.8 L 171.53871297836304 27.825536251068115 L 171.5 31.0 L 171.5 44.8 L 171.4 50.5 L 171.3 55.4 L 171.2 59.4 L 171.1 62.7 L 170.9 65.2 L 170.7 67.2 L 169.7 70.3 L 168.2 72.3 Z M 90.8932011604309 23.99943342208862 L 90.9 24.0 L 90.9 23.0 Z " />
</g>
</svg>
