<svg xmlns="http://www.w3.org/2000/svg" xmlns:xlink="http://www.w3.org/1999/xlink" version="1.1" baseProfile="full" viewBox="0 0 200 200" width="200" height="200">
<g fill="black">
<path d="M 65.0 49.6 L 63.5 46.7 L 61.8 43.7 L 60.0 40.8 L 57.8 37.9 L 55.5 35.0 L 53.0 32.1 L 50.21616039276123 29.117314720153807 L 47.9 34.2 L 44.2 41.9 L 40.3 49.3 L 36.3 56.4 L 32.1 63.2 L 27.8 69.6 L 25.998795223236083 71.94939756393433 L 36.1 77.0 L 59.6 77.0 L 65.6 72.0 L 76.6 81.0 L 71.6 85.0 L 71.6 127.0 L 59.6 133.0 L 59.6 125.0 L 36.1 125.0 L 36.1 145.0 L 57.21818180084229 145.0 L 65.4 136.0 L 75.4 145.0 L 75.4 149.0 L 36.1 149.0 L 36.1 168.0 L 58.018181800842285 168.0 L 66.2 159.0 L 76.2 168.0 L 76.2 172.0 L 36.1 172.0 L 36.1 183.0 L 24.1 189.0 L 24.1 74.42608699798583 L 23.2 75.6 L 18.5 81.3 L 13.5 86.5 L 12.0 85.4 L 15.4 79.1 L 18.7 72.7 L 22.1 66.2 L 25.5 59.4 L 28.7 52.5 L 31.9 45.3 L 35.0 37.8 L 38.0 30.1 L 41.0 22.1 L 43.45731658935547 14.815811443328858 L 43.4 14.8 L 44.3 12.4 L 55.0 18.0 L 57.2 20.9 L 53.47956647872925 21.60559949874878 L 51.5 26.3 L 51.46288661956787 26.381443309783936 L 51.9 26.6 L 55.8 28.5 L 59.3 30.6 L 62.7 33.0 L 65.8 35.5 L 68.7 38.2 L 71.4 41.1 L 73.9 44.2 L 76.2 47.4 L 78.2 50.8 L 78.2 55.4 L 75.1 58.7 L 70.6 58.7 L 67.2 55.6 L 66.2 52.6 Z M 172.6 172.9 L 171.1 174.8 L 169.3 176.6 L 167.4 178.1 L 165.2 179.3 L 163.0 180.2 L 160.6 180.9 L 158.1 181.2 L 155.6 181.4 L 155.6 175.4 L 141.6 172.4 L 141.6 169.4 L 155.6 169.4 L 156.9 169.3 L 158.1 169.1 L 159.1 168.9 L 160.0 168.5 L 160.7 168.1 L 162.1 166.9 L 162.7 166.1 L 163.3 165.1 L 163.9 163.8 L 165.0 160.5 L 166.1 155.4 L 167.2 148.8 L 168.1 140.7 L 168.9 131.2 L 169.5 120.3 L 170.0 108.0 L 170.4 94.3 L 170.6 79.2 L 170.6 64.7 L 156.7010989189148 64.7 L 156.2 79.9 L 154.8 96.8 L 152.6 112.4 L 149.7 126.8 L 146.0 139.8 L 141.6 151.5 L 136.4 161.8 L 130.4 170.8 L 123.6 178.2 L 116.0 183.9 L 114.9 182.5 L 120.7 175.6 L 126.0 167.7 L 130.6 158.8 L 134.5 148.7 L 137.9 137.4 L 140.6 124.9 L 142.7 111.0 L 144.1 95.9 L 144.8 79.4 L 144.8 64.7 L 128.0 64.7 L 128.0 60.7 L 144.8 60.7 L 144.8 16.6 L 156.8 18.6 L 159.8 20.6 L 156.8 22.4 L 156.8 60.7 L 170.6 60.7 L 176.6 55.7 L 187.6 64.7 L 182.6 67.7 L 182.6 79.3 L 182.3 94.5 L 182.0 108.4 L 181.5 120.9 L 180.8 132.1 L 180.0 141.9 L 179.1 150.4 L 177.9 157.6 L 176.6 163.6 L 175.0 168.5 L 173.9 170.7 Z M 115.3 109.8 L 114.2 107.7 L 112.9 105.5 L 111.6 103.4 L 110.1 101.3 L 108.9 99.725 L 108.9 176.4 L 96.9 182.4 L 96.9 113.03448276519775 L 95.2 117.9 L 92.1 125.8 L 88.8 133.3 L 85.1 140.5 L 81.0 147.3 L 76.6 153.7 L 75.0 152.8 L 80.2 138.4 L 82.7 130.9 L 85.0 123.3 L 87.1 115.3 L 89.1 107.2 L 90.9 98.8 L 92.4 90.1 L 93.8 81.1 L 94.48571424484253 74.7 L 75.8 74.7 L 75.8 70.7 L 96.9 70.7 L 96.9 38.944444465637204 L 95.7 39.3 L 90.0 40.9 L 83.9 42.3 L 77.4 43.5 L 76.8 41.8 L 82.7 38.7 L 88.2 35.9 L 93.3 33.3 L 96.9 31.35 L 96.9 30.9 L 97.7307692527771 30.9 L 98.1 30.7 L 102.4 28.3 L 106.4 25.9 L 110.0 23.6 L 113.1 21.4 L 115.8 19.2 L 117.34923582077026 17.85283842086792 L 117.3 17.8 L 118.1 17.1 L 125.5 26.6 L 125.8 30.2 L 122.01016101837158 28.752970600128172 L 118.7 30.5 L 114.8 32.4 L 110.6 34.2 L 108.9 34.82826089859009 L 108.9 70.7 L 113.77777776718139 70.7 L 120.0 63.7 L 128.0 70.7 L 128.0 74.7 L 108.9 74.7 L 108.9 95.31428575515747 L 110.9 96.1 L 113.5 97.3 L 116.0 98.8 L 118.3 100.4 L 120.6 102.2 L 122.8 104.2 L 124.8 106.3 L 126.8 108.5 L 128.6 111.0 L 128.9 115.5 L 126.0 119.0 L 121.4 119.3 L 117.9 116.4 L 116.3 112.0 Z M 36.1 102.0 L 36.1 121.0 L 59.6 121.0 L 59.6 102.0 Z M 36.1 81.0 L 36.1 98.0 L 59.6 98.0 L 59.6 81.0 Z M 66.4 59.0 L 66.4 63.0 L 34.7 63.0 L 34.7 59.0 L 52.1777777671814 59.0 L 58.4 52.0 Z " />
</g>
</svg>
