<svg xmlns="http://www.w3.org/2000/svg" xmlns:xlink="http://www.w3.org/1999/xlink" version="1.1" baseProfile="full" viewBox="0 0 200 200" width="200" height="200">
<g fill="black">
<path d="M 161.6 177.5 L 154.5 171.2 L 148.1 164.0 L 145.67985610961915 160.62014389038086 L 139.8 166.5 L 130.7 173.9 L 120.8 180.3 L 110.2 185.6 L 98.8 189.8 L 98.2 188.1 L 108.5 182.2 L 117.9 175.8 L 126.6 168.8 L 134.4 161.1 L 140.87698459625244 153.43708868026732 L 137.1 146.9 L 132.6 137.0 L 128.8 126.3 L 125.7 114.7 L 124.23788433074951 106.3260648727417 L 123.3 110.4 L 119.5 123.5 L 115.2 135.6 L 110.3 146.9 L 104.7 157.3 L 98.6 166.7 L 91.8 175.1 L 84.4 182.4 L 76.4 188.6 L 75.3 187.3 L 81.7 179.8 L 87.6 171.8 L 93.1 163.1 L 98.0 153.7 L 102.5 143.5 L 106.5 132.5 L 109.9 120.7 L 112.8 108.0 L 115.3 94.5 L 117.2 80.2 L 117.21145992279052 80.20144453048707 L 118.16511631011963 72.0 L 92.6 72.0 L 92.6 68.0 L 118.63023252487183 68.0 L 121.92889251708985 39.631524085998535 L 113.6 40.6 L 104.8 41.4 L 95.7 41.8 L 95.4 40.1 L 104.2 37.6 L 112.7 35.3 L 120.9 33.1 L 128.9 30.9 L 136.7 28.7 L 144.1 26.4 L 151.4 24.0 L 158.3 21.6 L 165.0 19.2 L 170.40241661071778 17.00526828765869 L 170.4 17.0 L 170.40494699478148 17.004240322113038 L 171.4 16.6 L 172.03883848190307 18.404718685150147 L 180.9 26.0 L 181.1 29.1 L 177.02813806533814 27.33755226135254 L 175.4 27.9 L 168.5 30.0 L 161.4 31.9 L 154.1 33.7 L 146.5 35.4 L 138.6 36.9 L 130.6 38.3 L 127.46540880203247 38.78511533737183 L 133.9 40.6 L 136.6 43.0 L 133.50039014816284 44.0133339881897 L 130.69219512939452 68.0 L 165.1 68.0 L 175.1 58.0 L 187.1 68.0 L 187.1 72.0 L 130.22390241622924 72.0 L 129.1 81.6 L 123.15 80.95 L 129.1 81.7 L 126.5 96.5 L 125.92446041107178 99.0 L 165.4 99.0 L 171.4 94.0 L 182.4 103.0 L 177.4 106.0 L 175.82488889694213 106.65629625320435 L 173.0 115.4 L 168.0 127.4 L 162.2 138.6 L 155.5 148.8 L 152.1343921661377 153.07523164749145 L 155.8 157.3 L 162.0 163.0 L 168.5 167.9 L 175.4 171.8 L 182.7 174.8 L 189.3 177.4 L 177.8 187.1 L 169.4 182.8 Z M 74.7 50.0 L 72.9 47.0 L 70.9 44.0 L 68.6 41.1 L 66.1 38.1 L 63.2 35.2 L 60.1 32.2 L 56.8 29.1 L 56.20607376098633 28.63449020385742 L 53.2 34.5 L 48.9 42.2 L 44.4 49.6 L 39.8 56.6 L 35.1 63.4 L 30.1 69.8 L 28.608771896362306 71.55438594818115 L 39.5 77.0 L 68.6 77.0 L 74.6 72.0 L 85.6 81.0 L 80.6 85.0 L 80.6 127.0 L 68.6 133.0 L 68.6 125.0 L 39.5 125.0 L 39.5 145.0 L 67.81818180084228 145.0 L 76.0 136.0 L 86.0 145.0 L 86.0 149.0 L 39.5 149.0 L 39.5 168.0 L 64.8 168.0 L 74.8 158.0 L 86.8 168.0 L 86.8 172.0 L 39.5 172.0 L 39.5 183.0 L 27.5 189.0 L 27.5 72.85882349014283 L 25.0 75.8 L 19.6 81.4 L 14.0 86.5 L 12.6 85.4 L 16.7 79.0 L 20.7 72.6 L 24.7 66.0 L 28.7 59.2 L 32.6 52.2 L 36.3 45.0 L 40.0 37.5 L 43.5 29.8 L 47.0 21.8 L 49.937234020233156 14.412411308288574 L 49.9 14.4 L 50.8 12.3 L 61.3 18.2 L 63.3 21.2 L 59.60885629653931 21.70912322998047 L 57.53434343338013 26.013737392425536 L 58.5 26.4 L 62.8 28.3 L 66.8 30.4 L 70.6 32.7 L 74.2 35.2 L 77.5 37.9 L 80.5 40.8 L 83.3 43.9 L 85.9 47.1 L 88.2 50.6 L 88.5 55.1 L 85.6 58.6 L 81.0 58.9 L 77.5 56.0 L 76.2 53.0 Z M 125.7 103.0 L 129.7 113.4 L 134.3 124.2 L 139.2 134.0 L 144.4 142.7 L 146.42999296188356 145.57889909744262 L 147.8 143.6 L 153.4 133.8 L 158.2 123.1 L 162.3 111.7 L 164.6532787322998 103.0 Z M 39.5 102.0 L 39.5 121.0 L 68.6 121.0 L 68.6 102.0 Z M 39.5 81.0 L 39.5 98.0 L 68.6 98.0 L 68.6 81.0 Z M 75.5 59.0 L 75.5 63.0 L 38.7 63.0 L 38.7 59.0 L 57.31818180084228 59.0 L 65.5 50.0 Z " />
</g>
</svg>
