<svg xmlns="http://www.w3.org/2000/svg" xmlns:xlink="http://www.w3.org/1999/xlink" version="1.1" baseProfile="full" viewBox="0 0 200 200" width="200" height="200">
<g fill="black">
<path d="M 155.8 129.9 L 154.3 128.7 L 152.5 127.6 L 148.3 125.5 L 146.0 124.4 L 143.4 123.4 L 140.7 122.3 L 138.1868420600891 121.79736843109131 L 138.4 122.2 L 140.9 125.1 L 144.3 127.8 L 148.7 130.2 L 154.2 132.3 L 160.6 134.1 L 168.1 135.7 L 170.05555553436278 136.0259259223938 L 175.6 112.0 L 177.6 112.0 L 175.67974681854247 136.9632911682129 L 176.5 137.1 L 180.4 139.4 L 181.5 143.9 L 179.2 147.8 L 174.7 148.9 L 165.9 147.5 L 162.69932470321655 146.82825336456298 L 168.4 152.0 L 168.5 155.2 L 164.72734336853028 153.64303064346313 L 164.6 153.7 L 162.4 154.2 L 160.1 154.7 L 157.6 155.2 L 154.9 155.7 L 152.1 156.1 L 149.1 156.6 L 145.9 157.0 L 146.1 157.0 L 149.2 157.2 L 152.1 157.5 L 154.9 157.9 L 157.5 158.4 L 160.0 159.0 L 162.4 159.7 L 164.7 160.6 L 167.2 164.3 L 166.5 168.9 L 162.7 171.4 L 158.2 170.7 L 157.0 169.5 L 155.6 168.3 L 153.9 167.1 L 152.0 165.9 L 149.9 164.6 L 144.9 162.1 L 142.1 160.8 L 139.0 159.5 L 136.4428235054016 158.80258827209474 L 137.0 160.3 L 139.2 163.8 L 142.1 166.8 L 146.2 169.4 L 151.5 171.7 L 158.2 173.5 L 166.3 174.9 L 169.96009321212767 175.2395962715149 L 175.6 150.8 L 177.6 150.8 L 175.67921257019043 175.77023620605468 L 176.0 175.8 L 180.1 177.9 L 181.6 182.2 L 179.5 186.3 L 175.2 187.8 L 164.8 186.8 L 155.6 185.2 L 147.6 183.0 L 140.6 180.0 L 134.6 176.2 L 129.8 171.3 L 126.2 165.6 L 123.8 159.2 L 122.87993459701538 154.17502727508545 L 122.1 154.5 L 122.1 146.5 L 99.2 146.5 L 99.2 182.7 L 87.2 188.7 L 87.2 146.5 L 61.09710140228272 146.5 L 60.6 151.4 L 58.9 157.9 L 56.4 163.9 L 53.0 169.2 L 48.7 173.9 L 43.7 177.9 L 38.0 181.1 L 31.6 183.7 L 24.5 185.5 L 16.7 186.6 L 16.3 184.8 L 23.3 181.9 L 29.4 178.8 L 34.7 175.5 L 39.0 171.9 L 42.5 168.1 L 45.3 164.0 L 47.3 159.7 L 48.6 155.1 L 49.3 150.0 L 49.3 146.5 L 16.5 146.5 L 16.5 142.5 L 49.3 142.5 L 49.3 129.83728809356688 L 44.8 130.6 L 38.6 131.4 L 32.1 132.1 L 25.5 132.5 L 18.6 132.7 L 18.3 131.0 L 24.8 128.8 L 31.1 126.8 L 37.2 124.9 L 43.1 123.1 L 48.8 121.4 L 54.2 119.6 L 59.5 117.8 L 64.5 116.0 L 69.2 114.2 L 72.83436870574951 112.77785568237304 L 72.8 112.7 L 72.87352752685547 112.76253271102905 L 73.8 112.4 L 74.35508155822754 114.02254600524903 L 83.5 121.8 L 83.7 124.9 L 79.6682580947876 123.1212903022766 L 77.7 123.8 L 72.7 125.1 L 67.5 126.3 L 62.1 127.5 L 61.3 127.65714282989502 L 61.3 142.5 L 87.2 142.5 L 87.2 114.4 L 99.2 116.4 L 102.2 118.4 L 99.2 120.2 L 99.2 142.5 L 122.1 142.5 L 128.1 137.5 L 139.1 146.5 L 134.3314814567566 149.3611110687256 L 134.4 150.8 L 135.4 156.0 L 135.52307691574097 156.3307692527771 L 138.1 155.3 L 141.3 153.5 L 144.3 151.9 L 147.1 150.4 L 149.7 149.0 L 152.1 147.6 L 154.3 146.3 L 155.98960247039795 145.2862385749817 L 150.4 143.7 L 143.7 141.1 L 137.8 137.8 L 132.7 133.8 L 128.5 128.9 L 125.4 123.2 L 124.24344825744629 119.0235631942749 L 123.1 119.5 L 123.1 111.5 L 22.4 111.5 L 22.4 107.5 L 123.1 107.5 L 129.1 102.5 L 140.1 111.5 L 135.47453184127806 114.27528085708619 L 135.5 114.6 L 136.6 118.8 L 137.03790016174315 119.62714471817017 L 140.4 118.3 L 143.9 116.6 L 147.2 115.0 L 150.3 113.4 L 153.1 112.0 L 155.7 110.6 L 158.0 109.2 L 160.0 108.0 L 161.0340425491333 107.25319147109985 L 159.3 107.6 L 156.7 107.7 L 156.7 101.7 L 136.7 98.7 L 136.7 95.7 L 156.7 95.7 L 158.0 95.6 L 158.9 95.5 L 159.5 95.3 L 159.8 95.1 L 160.0 95.0 L 160.3 94.4 L 160.5 93.9 L 160.7 92.9 L 160.7 69.2 L 38.2 69.2 L 38.2 99.7 L 26.2 105.7 L 26.2 59.2 L 38.2 65.2 L 160.7 65.2 L 166.7 60.2 L 177.7 69.2 L 172.7 73.2 L 172.7 91.7 L 172.6 94.3 L 172.1 96.8 L 171.3 99.2 L 170.1 101.4 L 168.5 103.5 L 166.5 105.1 L 164.2 106.3 L 163.73199996948242 106.45600004196167 L 164.50900173187256 107.995614528656 L 171.7 114.8 L 171.8 118.1 L 167.91052074432372 116.50595111846924 L 166.4 116.9 L 164.0 117.5 L 161.4 118.1 L 158.5 118.7 L 155.5 119.2 L 153.5806122779846 119.49081630706787 L 155.0 119.6 L 157.5 120.0 L 159.9 120.4 L 162.2 121.0 L 164.4 121.8 L 167.1 125.4 L 166.6 130.0 L 162.9 132.7 L 158.3 132.1 L 157.2 131.0 Z M 75.2 76.5 L 122.7 76.5 L 128.7 71.5 L 139.7 80.5 L 134.7 84.5 L 134.7 97.5 L 122.7 103.5 L 122.7 97.5 L 75.2 97.5 L 63.2 103.5 L 63.2 70.5 Z M 75.2 80.5 L 75.2 93.5 L 122.7 93.5 L 122.7 80.5 Z M 65.5 37.9 L 132.5 37.9 L 138.5 32.9 L 149.5 41.9 L 144.5 45.9 L 144.5 57.4 L 132.5 63.4 L 132.5 57.4 L 65.5 57.4 L 53.5 63.4 L 53.5 31.9 Z M 65.5 41.9 L 65.5 53.4 L 132.5 53.4 L 132.5 41.9 Z M 15.6 26.6 L 93.5 26.6 L 93.5 12.6 L 105.5 14.6 L 108.5 16.6 L 105.5 18.4 L 105.5 26.6 L 165.11818180084228 26.6 L 173.3 17.6 L 183.3 26.6 L 183.3 30.6 L 15.6 30.6 Z " />
</g>
</svg>
