<svg xmlns="http://www.w3.org/2000/svg" xmlns:xlink="http://www.w3.org/1999/xlink" version="1.1" baseProfile="full" viewBox="0 0 200 200" width="200" height="200">
<g fill="black">
<path d="M 164.6 178.9 L 158.5 172.9 L 152.9 165.8 L 149.7742094039917 160.77421894073487 L 142.7 168.9 L 134.6 176.2 L 125.8 182.1 L 116.4 186.7 L 106.4 189.8 L 105.9 188.1 L 114.7 183.3 L 122.8 177.7 L 130.2 171.2 L 137.0 163.8 L 143.2 155.5 L 145.13009710311889 152.2601942062378 L 143.2 148.4 L 139.0 138.0 L 135.3 126.6 L 132.1 113.9 L 129.66956520080566 101.0 L 120.0 101.0 L 120.0 97.0 L 143.4 97.0 L 143.4 56.0 L 115.2 56.0 L 115.2 52.0 L 143.4 52.0 L 143.4 18.0 L 155.4 20.0 L 158.4 22.0 L 155.4 23.8 L 155.4 52.0 L 162.8 52.0 L 172.8 42.0 L 184.8 52.0 L 184.8 56.0 L 155.4 56.0 L 155.4 97.0 L 165.0 97.0 L 171.0 92.0 L 182.0 101.0 L 177.0 104.0 L 175.6144814491272 104.57729940414428 L 172.9 114.6 L 168.2 127.8 L 162.9 139.8 L 156.8 150.7 L 155.61810293197632 152.41110467910767 L 155.8 152.7 L 161.0 159.6 L 166.4 165.2 L 171.8 169.5 L 177.2 172.7 L 182.7 174.7 L 190.0 177.2 L 178.4 187.2 L 171.2 183.7 Z M 72.7 50.0 L 70.9 47.0 L 68.9 44.0 L 66.6 41.1 L 64.1 38.1 L 61.2 35.2 L 58.1 32.2 L 54.8 29.1 L 54.20607376098633 28.63449020385742 L 51.2 34.5 L 46.9 42.2 L 42.4 49.6 L 37.8 56.6 L 33.1 63.4 L 28.1 69.8 L 26.608771896362306 71.55438594818115 L 37.5 77.0 L 66.6 77.0 L 72.6 72.0 L 83.6 81.0 L 78.6 85.0 L 78.6 127.0 L 66.6 133.0 L 66.6 125.0 L 37.5 125.0 L 37.5 145.0 L 65.81818180084228 145.0 L 74.0 136.0 L 84.0 145.0 L 84.0 149.0 L 37.5 149.0 L 37.5 168.0 L 62.8 168.0 L 72.8 158.0 L 84.8 168.0 L 84.8 172.0 L 37.5 172.0 L 37.5 183.0 L 25.5 189.0 L 25.5 72.85882349014283 L 23.0 75.8 L 17.6 81.4 L 12.0 86.5 L 10.6 85.4 L 14.7 79.0 L 18.7 72.6 L 22.7 66.0 L 26.7 59.2 L 30.6 52.2 L 34.3 45.0 L 38.0 37.5 L 41.5 29.8 L 45.0 21.8 L 47.937234020233156 14.412411308288574 L 47.9 14.4 L 48.8 12.3 L 59.3 18.2 L 61.3 21.2 L 57.60885629653931 21.70912322998047 L 55.53434343338013 26.013737392425536 L 56.5 26.4 L 60.8 28.3 L 64.8 30.4 L 68.6 32.7 L 72.2 35.2 L 75.5 37.9 L 78.5 40.8 L 81.3 43.9 L 83.9 47.1 L 86.2 50.6 L 86.5 55.1 L 83.6 58.6 L 79.0 58.9 L 75.5 56.0 L 74.2 53.0 Z M 119.7 20.9 L 122.2 23.5 L 118.69974660873413 24.62508144378662 L 116.8 31.7 L 113.7 42.3 L 110.4 52.7 L 107.1 62.9 L 103.5 72.8 L 102.52218599319458 75.33703098297119 L 107.1 76.1 L 110.1 78.1 L 107.1 79.9 L 107.1 182.3 L 95.1 188.3 L 95.1 93.67560977935791 L 91.8 101.0 L 87.4 109.9 L 82.7 118.4 L 81.1 117.7 L 83.9 108.4 L 86.8 99.1 L 89.8 89.6 L 92.6 80.0 L 95.5 70.2 L 98.2 60.2 L 100.8 50.0 L 103.3 39.6 L 105.7 29.0 L 108.0 18.2 L 108.01361255645752 18.20314140319824 L 108.4 16.4 Z M 136.1 112.7 L 140.9 124.6 L 145.7 135.2 L 150.07437181472778 143.423819065094 L 153.8 135.6 L 158.1 124.1 L 161.9 111.4 L 164.3291971206665 101.0 L 131.7800000190735 101.0 Z M 37.5 102.0 L 37.5 121.0 L 66.6 121.0 L 66.6 102.0 Z M 37.5 81.0 L 37.5 98.0 L 66.6 98.0 L 66.6 81.0 Z M 73.5 59.0 L 73.5 63.0 L 36.7 63.0 L 36.7 59.0 L 55.31818180084228 59.0 L 63.5 50.0 Z " />
</g>
</svg>
