<svg xmlns="http://www.w3.org/2000/svg" xmlns:xlink="http://www.w3.org/1999/xlink" version="1.1" baseProfile="full" viewBox="0 0 200 200" width="200" height="200">
<g fill="black">
<path d="M 28.0 21.0 L 79.0 21.0 L 85.0 16.0 L 96.0 25.0 L 91.0 28.0 L 90.86560544967651 28.05599775314331 L 90.6 67.1 L 91.1 101.8 L 93.0 128.0 L 96.25237617492675 144.8039433479309 L 101.2 139.0 L 106.4 133.1 L 111.3 127.3 L 116.0 121.7 L 120.4 116.0 L 124.5 110.5 L 128.4 104.9 L 129.27138872146605 103.56871166229249 L 126.0 105.1 L 121.5 107.1 L 117.5 108.9 L 113.8 110.5 L 110.4 111.9 L 107.4 113.2 L 104.8 114.3 L 104.74338464736938 114.32707691192627 L 103.2 118.7 L 100.5 116.2 L 95.6 105.1 L 97.6 104.6 L 99.6 104.5 L 102.0 104.2 L 102.8 104.08571424484253 L 102.8 30.0 L 114.8 36.0 L 116.9925926208496 36.0 L 117.4 34.9 L 117.8 32.1 L 118.3 29.5 L 118.7 27.0 L 119.1 24.7 L 119.5 22.5 L 119.8 20.5 L 120.1 18.6 L 120.3 16.8 L 120.33961868286133 16.166101741790772 L 120.1 16.1 L 120.39714288711548 15.245714282989502 L 120.4 15.2 L 120.41158180236816 15.204202270507812 L 120.9 13.8 L 131.7 19.3 L 133.8 22.2 L 129.01935482025146 23.12258062362671 L 127.2 25.7 L 124.4 29.5 L 122.9 31.6 L 121.2 33.7 L 119.4 35.9 L 119.34399995803832 36.0 L 129.6 36.0 L 135.6 31.0 L 146.6 40.0 L 141.6 44.0 L 141.6 89.5 L 148.6 94.5 L 150.2 97.8 L 146.36071424484254 97.8 L 144.8 100.1 L 141.6 104.41999998092652 L 141.6 144.1 L 141.4 146.6 L 141.03199996948243 148.9 L 162.0 148.9 L 162.9 148.7 L 163.5 148.5 L 163.8 148.3 L 164.0 148.2 L 164.2 148.0 L 164.5 147.1 L 164.7 146.2 L 164.8 144.9 L 164.8 64.2 L 144.0 64.2 L 144.0 60.2 L 164.8 60.2 L 164.8 15.3 L 176.8 17.3 L 179.8 19.3 L 176.8 21.1 L 176.8 60.2 L 177.1 60.2 L 181.6 54.2 L 187.6 60.2 L 187.6 64.2 L 176.8 64.2 L 176.8 144.9 L 176.6 147.5 L 176.2 150.0 L 175.4 152.4 L 174.1 154.6 L 172.5 156.7 L 170.5 158.3 L 168.2 159.5 L 165.8 160.3 L 163.3 160.8 L 160.8 160.9 L 160.8 154.9 L 140.8 151.9 L 140.8 149.7 L 140.2 151.5 L 139.0 153.8 L 137.3 155.8 L 135.3 157.5 L 133.0 158.7 L 130.6 159.5 L 128.1 159.9 L 125.6 160.1 L 125.6 154.1 L 109.6 151.1 L 109.6 148.1 L 125.6 148.1 L 126.8 148.0 L 127.7 147.9 L 128.3 147.7 L 128.6 147.5 L 128.8 147.3 L 129.0 147.2 L 129.2 146.8 L 129.3 146.2 L 129.5 145.3 L 129.6 144.1 L 129.6 118.57142858505249 L 126.8 121.6 L 121.5 126.8 L 116.0 131.9 L 110.1 136.9 L 103.8 141.8 L 97.1 146.4 L 96.40152091979981 145.57452468872071 L 96.6 146.6 L 102.0 158.5 L 109.3 165.5 L 120.1 169.6 L 135.5 171.6 L 156.1 172.0 L 176.2307692527771 172.0 L 182.0 147.0 L 184.0 147.0 L 182.07446804046631 172.0319149017334 L 186.2 173.8 L 188.0 178.0 L 186.2 182.2 L 182.0 184.0 L 156.1 184.0 L 134.8 183.6 L 117.4 181.3 L 103.1 175.7 L 92.1 165.4 L 85.1 150.1 L 81.1 129.5 L 79.2 102.3 L 78.8217098236084 80.10697412490845 L 74.0 83.0 L 74.0 124.0 L 64.0 129.0 L 64.0 124.0 L 58.0 124.0 L 58.0 158.74615383148193 L 62.4 157.9 L 67.9 157.0 L 70.36973295211791 156.61676559448242 L 69.2 153.4 L 67.8 150.0 L 66.3 146.5 L 64.8 142.8 L 62.8 139.3 L 64.3 138.2 L 70.1 144.0 L 72.7 146.9 L 75.2 150.0 L 77.4 153.1 L 79.5 156.3 L 81.4 159.5 L 83.1 162.8 L 84.6 166.1 L 86.0 169.5 L 85.3 174.0 L 81.7 176.9 L 77.2 176.2 L 74.4 172.6 L 73.9 169.5 L 73.2 166.4 L 72.5 163.2 L 71.5 160.0 L 71.25714282989502 159.2714285850525 L 69.0 160.4 L 64.0 162.8 L 59.1 165.0 L 54.4 167.0 L 49.9 168.9 L 45.6 170.6 L 41.5 172.2 L 37.7 173.7 L 34.4840166091919 175.00377702713013 L 33.2 178.8 L 30.5 176.5 L 25.4 165.4 L 27.3 164.9 L 30.9 164.2 L 34.7 163.5 L 38.7 162.7 L 43.0 161.8 L 47.5 160.9 L 50.0 160.3680850982666 L 50.0 124.0 L 43.0 124.0 L 43.0 136.0 L 35.0 140.0 L 35.0 72.0 L 43.0 76.0 L 50.0 76.0 L 50.0 53.12142858505249 L 45.9 54.0 L 41.5 54.7 L 36.9 55.2 L 32.2 55.8 L 31.7 54.1 L 36.0 52.2 L 40.1 50.2 L 44.0 48.3 L 47.7 46.4 L 51.3 44.6 L 54.6 42.7 L 57.8 40.9 L 60.7 39.0 L 63.5 37.2 L 65.18597002029419 35.91866283416748 L 65.1 35.8 L 65.20251359939576 35.90608968734741 L 66.0 35.3 L 68.28508977890014 39.09619760513306 L 73.7 44.7 L 73.9 48.1 L 70.13104696273804 46.54043321609497 L 68.9 47.1 L 65.4 48.5 L 61.9 49.8 L 58.1 51.0 L 58.0 51.02820510864258 L 58.0 76.0 L 64.0 76.0 L 69.0 71.0 L 78.81708021163941 79.83537216186524 L 78.6 67.1 L 78.88639459609985 25.0 L 28.0 25.0 L 28.0 94.0 L 27.6 107.6 L 26.9 120.3 L 26.0 132.1 L 24.7 143.0 L 23.2 152.9 L 21.4 162.0 L 19.2 170.1 L 16.8 177.2 L 13.9 183.3 L 10.6 188.3 L 9.3 187.6 L 11.0 182.1 L 12.5 175.8 L 13.9 168.8 L 15.2 160.8 L 16.2 152.0 L 17.0 142.2 L 17.6 131.5 L 18.0 119.9 L 18.1 107.4 L 18.0 94.0 L 18.0 16.0 Z M 43.0 80.0 L 43.0 120.0 L 50.0 120.0 L 50.0 80.0 Z M 58.0 80.0 L 58.0 120.0 L 64.0 120.0 L 64.0 80.0 Z M 151.5 103.0 L 151.3 100.3 L 150.9 97.5 L 150.3 94.7 L 149.5 91.8 L 148.6 88.8 L 147.5 85.7 L 146.3 82.5 L 144.6 79.4 L 146.1 78.3 L 148.5 81.0 L 151.1 83.5 L 153.4 86.1 L 155.5 88.9 L 157.3 91.7 L 159.0 94.7 L 160.4 97.7 L 161.7 100.8 L 162.7 103.9 L 163.5 107.2 L 162.0 111.5 L 158.0 113.7 L 153.7 112.2 L 151.5 108.2 L 151.6 105.6 Z M 114.8 81.8 L 114.8 102.30769233703613 L 115.5 102.2 L 119.9 101.5 L 124.6 100.7 L 129.6 100.02692308425904 L 129.6 81.8 Z M 114.8 60.9 L 114.8 77.8 L 129.6 77.8 L 129.6 60.9 Z M 114.8 40.0 L 114.8 56.9 L 129.6 56.9 L 129.6 40.0 Z M 90.8932011604309 23.99943342208862 L 90.9 24.0 L 90.9 23.0 Z " />
</g>
</svg>
