<svg xmlns="http://www.w3.org/2000/svg" xmlns:xlink="http://www.w3.org/1999/xlink" version="1.1" baseProfile="full" viewBox="0 0 200 200" width="200" height="200">
<g fill="black">
<path d="M 75.0 50.0 L 73.1 47.1 L 71.0 44.1 L 68.6 41.1 L 66.0 38.2 L 63.0 35.2 L 59.8 32.2 L 56.4 29.2 L 55.64706974029541 28.60558137893677 L 52.5 34.6 L 48.1 42.2 L 43.5 49.6 L 38.8 56.7 L 33.9 63.4 L 28.8 69.8 L 27.348837184906007 71.47441864013672 L 38.4 77.0 L 68.7 77.0 L 74.7 72.0 L 85.7 81.0 L 80.7 85.0 L 80.7 127.0 L 68.7 133.0 L 68.7 125.0 L 38.4 125.0 L 38.4 145.0 L 68.21818180084229 145.0 L 76.4 136.0 L 86.4 145.0 L 86.4 149.0 L 38.4 149.0 L 38.4 168.0 L 65.3 168.0 L 75.3 158.0 L 87.3 168.0 L 87.3 172.0 L 38.4 172.0 L 38.4 183.0 L 26.4 189.0 L 26.4 72.5692307472229 L 23.6 75.8 L 18.1 81.4 L 12.3 86.6 L 11.0 85.3 L 15.2 79.0 L 19.3 72.5 L 23.5 66.0 L 27.6 59.2 L 31.6 52.2 L 35.5 44.9 L 39.2 37.5 L 42.9 29.7 L 46.4 21.7 L 49.5138180732727 14.404769039154052 L 49.5 14.4 L 50.4 12.2 L 60.8 18.3 L 62.8 21.3 L 59.063486385345456 21.815381145477296 L 56.996981906890866 25.998792743682863 L 62.5 28.2 L 66.6 30.3 L 70.5 32.7 L 74.1 35.2 L 77.5 37.9 L 80.6 40.8 L 83.5 43.8 L 86.1 47.1 L 88.5 50.5 L 88.8 55.1 L 85.9 58.6 L 81.4 59.0 L 77.8 56.1 L 76.5 53.0 Z M 174.3 169.7 L 172.7 164.3 L 172.3514542579651 163.23499898910524 L 169.5 164.3 L 161.0 167.2 L 152.6 169.8 L 144.0 172.2 L 135.5 174.6 L 126.9 176.8 L 118.4 179.0 L 109.8 181.1 L 101.2 183.0 L 96.52596683502198 184.07449035644532 L 95.0 187.6 L 92.5 185.0 L 88.4 173.5 L 90.4 173.2 L 99.0 171.9 L 109.51255073547364 170.2083251953125 L 112.6 165.1 L 118.4 155.8 L 124.3 146.1 L 130.2 136.0 L 136.2 125.5 L 142.3 114.6 L 148.3 103.3 L 154.4 91.5 L 160.5 79.4 L 166.25068769454955 67.62036561965942 L 166.2 67.6 L 167.2 65.7 L 177.4 72.1 L 179.2 75.3 L 175.52360973358154 75.5492467880249 L 170.6 84.6 L 163.9 96.7 L 157.1 108.2 L 150.3 119.3 L 143.5 129.9 L 136.6 140.1 L 129.7 149.7 L 122.8 158.8 L 115.7 167.4 L 113.76404094696045 169.52417736053468 L 116.4 169.1 L 125.0 167.7 L 133.7 166.3 L 142.4 164.8 L 151.1 163.4 L 159.8 161.9 L 168.6 160.6 L 171.37554588317872 160.2530568122864 L 170.9 158.8 L 168.9 153.3 L 166.7 147.8 L 164.3 142.2 L 161.7 136.5 L 159.0 130.7 L 156.3 124.8 L 157.8 123.8 L 162.2 128.7 L 166.3 133.7 L 170.0 139.0 L 173.5 144.3 L 176.6 149.7 L 179.5 155.2 L 182.1 160.7 L 184.5 166.3 L 186.6 171.9 L 188.5 177.6 L 187.7 182.1 L 184.1 184.9 L 179.6 184.1 L 176.8 180.5 L 175.7 175.1 Z M 38.4 102.0 L 38.4 121.0 L 68.7 121.0 L 68.7 102.0 Z M 120.5 108.9 L 117.8 104.8 L 114.8 100.7 L 111.6 96.7 L 108.2 92.7 L 104.6 88.8 L 100.8 85.0 L 96.9 81.0 L 92.7 77.0 L 93.7 75.5 L 99.0 77.9 L 104.1 80.7 L 108.9 83.8 L 113.36989526748657 87.17725419998169 L 113.6 86.7 L 116.4 81.1 L 122.2 70.1 L 125.0 64.6 L 130.6 53.4 L 133.2 47.7 L 135.9 42.0 L 138.0820942878723 37.132251262664795 L 138.0 37.1 L 139.0 35.1 L 149.2 41.5 L 151.0 44.6 L 147.2795931816101 44.92072477340698 L 146.0 47.2 L 142.7 52.8 L 135.9 63.6 L 132.3 68.9 L 128.6 74.1 L 124.8 79.2 L 120.9 84.1 L 116.7 88.8 L 116.11591815948486 89.41063108444214 L 117.7 90.7 L 121.8 94.5 L 125.6 98.5 L 129.2 102.6 L 132.6 107.0 L 135.8 111.5 L 136.3 116.1 L 133.6 119.7 L 129.1 120.3 L 125.4 117.6 L 123.1 113.2 Z M 38.4 81.0 L 38.4 98.0 L 68.7 98.0 L 68.7 81.0 Z M 75.6 59.0 L 75.6 63.0 L 37.8 63.0 L 37.8 59.0 L 57.418181800842284 59.0 L 65.6 50.0 Z M 186.9 30.0 L 186.9 34.0 L 95.8 34.0 L 95.8 30.0 L 164.9 30.0 L 174.9 20.0 Z " />
</g>
</svg>
