<svg xmlns="http://www.w3.org/2000/svg" xmlns:xlink="http://www.w3.org/1999/xlink" version="1.1" baseProfile="full" viewBox="0 0 200 200" width="200" height="200">
<g fill="black">
<path d="M 159.9 119.5 L 150.6 116.7 L 141.6 113.6 L 133.1 110.2 L 125.0 106.6 L 119.48122863769531 103.73310575485229 L 126.0 109.6 L 126.0 113.6 L 72.0 113.6 L 72.0 109.6 L 107.81818180084228 109.6 L 115.25265741348267 101.42207689285279 L 110.0 98.4 L 103.4 93.7 L 100.74485216140747 91.48012228012085 L 100.6 91.6 L 93.9 96.3 L 86.5 100.7 L 78.4 105.0 L 69.4 109.2 L 59.6 113.3 L 55.682608699798585 114.74130430221558 L 67.0 120.4 L 128.0 120.4 L 134.0 115.4 L 145.0 124.4 L 140.0 128.4 L 140.0 149.6 L 128.0 155.6 L 128.0 149.6 L 93.10270271301269 149.6 L 96.0 151.2 L 102.9 154.8 L 110.1 158.2 L 117.6 161.3 L 122.67216491699219 163.07525777816772 L 122.6 162.9 L 126.7 160.5 L 130.6 158.0 L 134.4 155.7 L 138.2 153.5 L 141.9 151.4 L 145.4 149.3 L 148.8 147.3 L 152.2 145.4 L 155.4 143.5 L 157.6529739379883 142.1918215751648 L 157.6 142.1 L 157.6808144569397 142.1756561279297 L 158.5 141.7 L 159.55169486999512 143.92711868286133 L 167.0 150.9 L 167.2 154.1 L 163.40376415252686 152.5692597389221 L 160.2 153.7 L 156.6 155.0 L 152.9 156.3 L 149.0 157.5 L 145.1 158.8 L 141.0 160.0 L 136.8 161.3 L 132.4 162.4 L 127.9 163.5 L 125.5151291847229 164.07029523849488 L 125.6 164.1 L 133.9 166.6 L 142.7 168.7 L 152.0 170.6 L 161.7 172.2 L 171.8 173.4 L 181.9 174.8 L 170.1 186.5 L 159.5 184.5 L 149.4 182.1 L 139.8 179.4 L 130.8 176.3 L 122.2 172.8 L 114.2 168.9 L 108.840052318573 165.8269633293152 L 109.1 167.3 L 102.8 169.6 L 96.1 171.7 L 89.2 173.7 L 82.0 175.6 L 74.5 177.5 L 66.8 179.5 L 58.7 181.4 L 50.4 183.4 L 41.9 185.4 L 37.0875 186.49375 L 35.6 190.0 L 33.1 187.4 L 28.8 176.1 L 30.8 175.7 L 39.7 174.2 L 48.4 172.9 L 55.0 171.87857141494752 L 55.0 114.99245281219483 L 49.0 117.2 L 37.6 121.0 L 25.3 124.5 L 12.2 127.7 L 11.7 126.0 L 24.1 120.9 L 35.8 115.9 L 46.6 111.1 L 56.5 106.4 L 65.7 101.6 L 73.9 96.9 L 81.3 92.2 L 87.8 87.5 L 93.4 82.8 L 97.3449296951294 78.93900489807129 L 97.3 78.9 L 98.3 78.0 L 106.4 86.8 L 107.1 90.4 L 104.77685585021973 89.78864631652831 L 105.5 90.1 L 112.8 93.1 L 120.3 96.1 L 128.1 98.8 L 136.2 101.4 L 144.7 103.8 L 153.5 106.0 L 162.7 108.0 L 172.2 109.8 L 182.1 111.4 L 191.6 113.0 L 179.8 124.3 L 169.7 122.1 Z M 67.0 149.6 L 67.0 170.0962025642395 L 72.9 169.2 L 80.5 168.2 L 87.9 167.2 L 95.1 166.4 L 102.1 165.9 L 108.4699613571167 165.61477785110475 L 106.7 164.6 L 99.8 159.8 L 93.6 154.6 L 88.77543859481811 149.6 Z M 67.0 136.1 L 67.0 145.6 L 128.0 145.6 L 128.0 136.1 Z M 67.0 124.4 L 67.0 132.1 L 128.0 132.1 L 128.0 124.4 Z M 156.4 80.9 L 147.3 76.8 L 138.9 72.1 L 131.2 66.9 L 124.3 61.1 L 118.0 54.8 L 112.6 48.0 L 108.1 40.6 L 105.39845399856567 34.50222473144531 L 102.5 36.3 L 96.1 40.2 L 89.2 44.0 L 81.7 47.7 L 73.6 51.3 L 72.0 51.96206893920898 L 72.0 71.89473686218261 L 72.9 71.8 L 82.3 70.8 L 91.7 69.7 L 110.7 67.7 L 120.2 66.9 L 129.8 66.2 L 130.1 67.9 L 120.9 70.6 L 111.6 73.0 L 102.3 75.2 L 93.0 77.2 L 83.6 79.2 L 74.2 81.0 L 64.9 82.8 L 40.798837184906006 86.90232553482056 L 39.1 90.3 L 36.7 87.6 L 33.2 76.0 L 35.2 75.7 L 44.6 74.8 L 60.0 73.1617021560669 L 60.0 56.69139785766602 L 55.6 58.3 L 45.7 61.6 L 35.2 64.7 L 24.0 67.6 L 12.2 70.2 L 11.7 68.5 L 22.9 64.0 L 33.4 59.6 L 43.4 55.4 L 52.8 51.2 L 61.5 47.1 L 69.6 43.0 L 77.0 38.8 L 83.8 34.7 L 85.73030300140381 33.4 L 18.0 33.4 L 18.0 29.4 L 95.0 29.4 L 95.0 12.6 L 107.0 14.6 L 110.0 16.6 L 107.0 18.4 L 107.0 29.4 L 164.0 29.4 L 174.0 19.4 L 186.0 29.4 L 186.0 33.4 L 107.52923078536988 33.4 L 111.6 38.3 L 117.2 44.2 L 123.1 49.7 L 129.5 54.6 L 129.8817021369934 54.84893617630005 L 130.6 54.4 L 134.5 51.8 L 138.4 49.4 L 142.1 47.1 L 149.3 42.7 L 152.7 40.6 L 156.0 38.5 L 159.1 36.4 L 161.38391857147218 34.926504135131836 L 161.3 34.8 L 161.41055898666383 34.90931673049927 L 162.2 34.4 L 163.77000703811646 37.242254161834715 L 170.2 43.6 L 170.4 47.0 L 166.68000001907347 45.45 L 160.8 47.9 L 157.1 49.4 L 153.2 50.8 L 149.2 52.2 L 145.1 53.6 L 140.9 55.0 L 136.5 56.3 L 133.28536586761476 57.06871690750122 L 136.4 59.1 L 143.9 63.2 L 151.9 66.7 L 160.4 69.8 L 169.6 72.4 L 179.4 74.6 L 188.3 76.5 L 176.5 87.4 L 166.1 84.4 Z " />
</g>
</svg>
