<svg xmlns="http://www.w3.org/2000/svg" xmlns:xlink="http://www.w3.org/1999/xlink" version="1.1" baseProfile="full" viewBox="0 0 200 200" width="200" height="200">
<g fill="black">
<path d="M 68.0 49.8 L 66.4 46.8 L 64.6 43.8 L 62.6 40.9 L 60.3 38.0 L 57.8 35.1 L 55.0 32.1 L 52.1 29.1 L 51.88817319869995 28.91932420730591 L 49.3 34.3 L 45.3 42.0 L 41.2 49.4 L 37.0 56.5 L 32.6 63.2 L 28.0 69.7 L 26.3676646232605 71.78383235931396 L 36.8 77.0 L 62.4 77.0 L 68.4 72.0 L 79.4 81.0 L 74.4 85.0 L 74.4 127.0 L 62.4 133.0 L 62.4 125.0 L 36.8 125.0 L 36.8 145.0 L 60.61818180084229 145.0 L 68.8 136.0 L 78.8 145.0 L 78.8 149.0 L 36.8 149.0 L 36.8 168.0 L 61.418181800842284 168.0 L 69.6 159.0 L 79.6 168.0 L 79.6 172.0 L 36.8 172.0 L 36.8 183.0 L 24.8 189.0 L 24.8 73.78510637283325 L 23.3 75.7 L 18.3 81.3 L 13.1 86.5 L 11.6 85.4 L 15.2 79.1 L 18.9 72.7 L 22.5 66.1 L 26.1 59.4 L 29.5 52.4 L 33.0 45.2 L 36.3 37.7 L 39.5 29.9 L 42.6 22.0 L 45.26735343933105 14.620322132110596 L 45.2 14.6 L 46.1 12.3 L 56.8 18.1 L 58.8 21.0 L 55.22786054611206 21.626691150665284 L 53.17729167938232 26.22661590576172 L 53.8 26.5 L 57.8 28.4 L 61.5 30.5 L 65.0 32.9 L 68.3 35.4 L 71.4 38.1 L 74.2 41.0 L 76.8 44.1 L 79.2 47.3 L 81.3 50.7 L 81.5 55.3 L 78.4 58.7 L 73.8 58.8 L 70.4 55.7 L 69.3 52.7 Z M 154.8 175.2 L 168.1 175.2 L 169.0 175.0 L 169.6 174.8 L 169.9 174.6 L 170.1 174.5 L 170.2 174.3 L 170.4 174.0 L 170.6 173.4 L 170.8 172.5 L 170.8 134.44242420196534 L 168.0 138.6 L 164.4 143.5 L 160.6 148.3 L 156.4 153.1 L 152.0 157.7 L 147.3 162.3 L 142.3 166.7 L 136.9 171.0 L 131.2 175.0 L 130.7561643600464 174.51917810440062 L 130.4 176.3 L 129.6 178.7 L 128.4 180.9 L 126.8 183.0 L 124.8 184.6 L 122.5 185.8 L 120.1 186.6 L 117.6 187.1 L 115.0 187.2 L 115.0 181.2 L 97.0 178.2 L 97.0 175.2 L 116.3 175.2 L 117.2 175.0 L 117.8 174.8 L 118.1 174.6 L 118.3 174.5 L 118.4 174.3 L 118.6 174.0 L 118.8 173.4 L 119.0 172.5 L 119.0 138.0 L 117.5 140.5 L 113.9 146.0 L 109.9 151.3 L 105.6 156.5 L 101.0 161.5 L 95.9 166.4 L 90.5 171.2 L 84.7 175.7 L 78.4 179.9 L 77.3 178.6 L 82.1 172.9 L 86.7 167.4 L 91.1 162.0 L 95.2 156.6 L 98.9 151.3 L 102.3 146.0 L 105.4 140.6 L 108.1 135.3 L 110.5 130.0 L 112.23848953247071 125.61238355636597 L 112.2 125.6 L 112.53823528289794 124.85588235855103 L 112.6 124.7 L 112.60764989852905 124.7031702041626 L 113.2 123.4 L 119.0 126.65904760360718 L 119.0 107.24137935638427 L 115.68279466629028 107.47015209197998 L 115.4 107.9 L 112.8 111.6 L 109.9 115.3 L 106.9 118.8 L 103.6 122.3 L 100.1 125.6 L 96.5 128.8 L 92.6 131.9 L 88.4 134.8 L 84.0 137.6 L 82.8 136.2 L 86.0 132.2 L 89.0 128.3 L 91.9 124.5 L 94.6 120.7 L 97.2 117.0 L 99.6 113.3 L 101.8 109.6 L 103.8 105.9 L 105.6 102.3 L 106.80916786193848 99.50379934310914 L 106.8 99.5 L 106.88000001907349 99.33999996185302 L 107.2 98.6 L 107.23977699279786 98.62044610977173 L 107.8 97.5 L 117.9 104.1 L 119.0 106.10588235855103 L 119.0 97.5 L 84.3 97.5 L 84.3 93.5 L 119.0 93.5 L 125.0 88.5 L 136.0 97.5 L 131.0 101.5 L 131.0 171.2 L 130.95061149597169 172.4841015815735 L 134.3 168.2 L 138.5 163.0 L 142.5 157.8 L 146.3 152.8 L 149.8 147.8 L 153.1 142.8 L 156.1 137.9 L 158.9 133.0 L 161.4 128.1 L 163.6 123.3 L 163.6399253845215 123.32014923095703 L 164.2 122.2 L 170.8 126.44752473831177 L 170.8 97.5 L 136.1 97.5 L 136.1 93.5 L 170.8 93.5 L 176.8 88.5 L 187.8 97.5 L 182.8 101.5 L 182.8 171.2 L 182.7 173.8 L 182.2 176.3 L 181.4 178.7 L 180.2 180.9 L 178.6 183.0 L 176.6 184.6 L 174.3 185.8 L 171.9 186.6 L 169.4 187.1 L 166.8 187.2 L 166.8 181.2 L 154.8 178.2 Z M 166.1 103.9 L 168.0 107.0 L 163.98996725082398 107.41483097076416 L 161.7 110.8 L 159.3 114.2 L 156.6 117.6 L 153.7 121.0 L 150.6 124.4 L 147.3 127.8 L 143.7 131.1 L 139.9 134.3 L 135.9 137.5 L 134.5 136.3 L 137.4 132.0 L 140.0 127.9 L 142.5 123.9 L 144.8 120.0 L 147.0 116.3 L 149.0 112.6 L 150.9 109.0 L 152.5 105.5 L 154.0 102.1 L 154.86406803131104 99.72381286621093 L 154.8 99.7 L 155.10769233703613 99.05384616851806 L 155.2 98.8 L 155.2233654975891 98.81093244552612 L 155.8 97.6 Z M 36.8 102.0 L 36.8 121.0 L 62.4 121.0 L 62.4 102.0 Z M 36.8 81.0 L 36.8 98.0 L 62.4 98.0 L 62.4 81.0 Z M 107.1 23.6 L 165.1 23.6 L 171.1 18.6 L 182.1 27.6 L 177.1 31.6 L 177.1 79.7 L 165.1 85.7 L 165.1 27.6 L 107.1 27.6 L 107.1 79.7 L 95.1 85.7 L 95.1 17.6 Z M 158.7 66.9 L 158.7 70.9 L 113.6 70.9 L 113.6 66.9 L 140.51818180084229 66.9 L 148.7 57.9 Z M 69.2 59.0 L 69.2 63.0 L 35.6 63.0 L 35.6 59.0 L 54.977777767181394 59.0 L 61.2 52.0 Z M 158.7 45.3 L 158.7 49.3 L 113.6 49.3 L 113.6 45.3 L 140.51818180084229 45.3 L 148.7 36.3 Z " />
</g>
</svg>
