<svg xmlns="http://www.w3.org/2000/svg" xmlns:xlink="http://www.w3.org/1999/xlink" version="1.1" baseProfile="full" viewBox="0 0 200 200" width="200" height="200">
<g fill="black">
<path d="M 63.5 49.6 L 62.1 46.6 L 60.4 43.7 L 58.5 40.8 L 56.5 37.9 L 54.1 35.0 L 51.6 32.1 L 48.96333332061768 29.170370388031007 L 46.7 34.2 L 42.9 41.9 L 39.1 49.3 L 35.1 56.4 L 30.9 63.1 L 26.6 69.6 L 24.854545497894286 71.92727270126343 L 35.0 77.0 L 58.2 77.0 L 64.2 72.0 L 75.2 81.0 L 70.2 85.0 L 70.2 127.0 L 58.2 133.0 L 58.2 125.0 L 35.0 125.0 L 35.0 145.0 L 55.81818180084228 145.0 L 64.0 136.0 L 74.0 145.0 L 74.0 149.0 L 35.0 149.0 L 35.0 168.0 L 56.518181800842285 168.0 L 64.7 159.0 L 74.7 168.0 L 74.7 172.0 L 35.0 172.0 L 35.0 183.0 L 23.0 189.0 L 23.0 74.4 L 22.1 75.6 L 17.4 81.3 L 12.4 86.5 L 11.0 85.4 L 14.3 79.1 L 17.6 72.7 L 21.0 66.2 L 24.3 59.5 L 27.5 52.5 L 30.7 45.3 L 33.8 37.8 L 36.8 30.1 L 39.7 22.1 L 42.15731658935547 14.815811443328858 L 42.1 14.8 L 43.0 12.4 L 53.7 18.0 L 55.9 20.9 L 52.20716571807861 21.600365161895752 L 50.3 26.2 L 50.208163261413574 26.404081630706788 L 54.4 28.5 L 58.0 30.6 L 61.3 33.0 L 64.4 35.5 L 67.3 38.2 L 70.0 41.1 L 72.5 44.2 L 74.7 47.4 L 76.8 50.8 L 76.8 55.4 L 73.6 58.7 L 69.1 58.7 L 65.8 55.6 L 64.7 52.6 Z M 169.4 181.5 L 167.1 179.3 L 164.3 177.1 L 161.2 174.9 L 157.6 172.7 L 153.6 170.5 L 149.3 168.3 L 144.6 165.9 L 139.4 163.7 L 139.9 161.9 L 145.5 162.8 L 150.9 163.7 L 155.8 164.8 L 160.5 166.2 L 164.8 167.7 L 168.8 169.3 L 172.5 171.2 L 176.0 173.2 L 179.1 175.4 L 181.9 177.9 L 183.3 182.2 L 181.3 186.3 L 176.9 187.7 L 172.8 185.7 L 171.3 183.6 Z M 124.5 167.6 L 125.1 171.2 L 121.13963966369629 170.0684684753418 L 118.0 172.1 L 114.3 174.2 L 110.3 176.3 L 106.1 178.4 L 101.4 180.4 L 96.5 182.3 L 91.3 184.2 L 85.6 185.9 L 79.7 187.5 L 79.0 185.8 L 84.2 182.6 L 89.1 179.5 L 93.7 176.6 L 98.0 173.8 L 101.9 171.1 L 105.5 168.5 L 108.8 166.0 L 111.7 163.5 L 114.2 161.1 L 115.7161849975586 159.51489753723143 L 115.7 159.5 L 116.6 158.6 Z M 107.2 93.5 L 157.7 93.5 L 163.7 88.5 L 174.7 97.5 L 169.7 101.5 L 169.7 154.2 L 157.7 160.2 L 157.7 154.2 L 107.2 154.2 L 107.2 157.2 L 95.2 163.2 L 95.2 87.5 Z M 107.2 135.3 L 107.2 150.2 L 157.7 150.2 L 157.7 135.3 Z M 107.2 116.4 L 107.2 131.3 L 157.7 131.3 L 157.7 116.4 Z M 35.0 102.0 L 35.0 121.0 L 58.2 121.0 L 58.2 102.0 Z M 107.2 97.5 L 107.2 112.4 L 157.7 112.4 L 157.7 97.5 Z M 116.3 75.9 L 115.1 73.9 L 113.8 71.9 L 112.4 69.9 L 110.8 67.9 L 109.0 65.9 L 107.1 63.8 L 106.99723625183105 63.72851219177246 L 106.0 66.8 L 102.9 74.1 L 99.2 80.8 L 94.8 87.0 L 89.9 92.6 L 84.2 97.5 L 78.0 101.7 L 76.9 100.2 L 81.6 94.8 L 85.7 89.1 L 89.4 83.3 L 92.5 77.2 L 95.1 70.8 L 97.2 64.0 L 98.67887325286866 57.0 L 78.1 57.0 L 78.1 53.0 L 99.21315793991089 53.0 L 99.7 49.3 L 100.2 41.3 L 100.2 35.0 L 81.8 35.0 L 81.8 31.0 L 100.2 31.0 L 100.2 12.0 L 112.2 14.0 L 115.2 16.0 L 112.2 17.8 L 112.2 31.0 L 116.3777777671814 31.0 L 122.6 24.0 L 130.6 31.0 L 130.6 35.0 L 112.06813182830811 35.0 L 111.6 42.1 L 110.4 50.8 L 109.89638557434083 53.0 L 117.5777777671814 53.0 L 123.8 46.0 L 131.8 53.0 L 131.8 57.0 L 108.98072290420532 57.0 L 108.5 59.1 L 107.7310959815979 61.468224334716794 L 108.3 61.7 L 111.2 62.6 L 113.9 63.7 L 116.5 65.0 L 118.9 66.5 L 121.3 68.1 L 123.5 70.0 L 125.6 72.0 L 127.6 74.1 L 129.4 76.5 L 129.8 81.0 L 127.0 84.6 L 122.4 85.0 L 118.9 82.1 L 117.3 77.9 Z M 35.0 81.0 L 35.0 98.0 L 58.2 98.0 L 58.2 81.0 Z M 171.8 88.4 L 169.0 85.0 L 166.5 81.5 L 164.2 77.7 L 162.3 73.8 L 160.6 69.7 L 159.2 65.4 L 158.35595026016236 61.085968017578125 L 156.8 65.3 L 153.7 71.2 L 150.0 76.4 L 145.8 80.9 L 140.9 84.7 L 135.6 87.7 L 129.7 89.8 L 128.9 88.1 L 133.5 84.5 L 137.5 80.6 L 140.9 76.5 L 143.8 72.1 L 146.2 67.2 L 148.1 62.0 L 149.3280701637268 57.0 L 134.3 57.0 L 134.3 53.0 L 149.97142858505248 53.0 L 150.4 50.0 L 150.9 43.3 L 150.8 36.0 L 150.8 35.0 L 135.6 35.0 L 135.6 31.0 L 150.8 31.0 L 150.8 12.0 L 162.8 14.0 L 165.8 16.0 L 162.8 17.8 L 162.8 31.0 L 164.9181818008423 31.0 L 173.1 22.0 L 183.1 31.0 L 183.1 35.0 L 162.8 35.0 L 162.8 36.0 L 162.2 44.1 L 161.0 51.7 L 160.6704225540161 53.0 L 168.61818180084228 53.0 L 176.8 44.0 L 186.8 53.0 L 186.8 57.0 L 160.0050000190735 57.0 L 161.5 59.6 L 164.0 63.2 L 166.4 66.6 L 168.9 69.7 L 171.5 72.6 L 174.1 75.3 L 176.8 77.7 L 179.6 79.8 L 182.5 81.8 L 185.5 83.5 L 189.2 85.9 L 178.1 94.4 L 174.8 91.5 Z M 65.0 59.0 L 65.0 63.0 L 33.5 63.0 L 33.5 59.0 L 50.7777777671814 59.0 L 57.0 52.0 Z " />
</g>
</svg>
