<svg xmlns="http://www.w3.org/2000/svg" xmlns:xlink="http://www.w3.org/1999/xlink" version="1.1" baseProfile="full" viewBox="0 0 200 200" width="200" height="200">
<g fill="black">
<path d="M 67.6 49.7 L 66.1 46.7 L 64.4 43.8 L 62.4 40.9 L 60.1 38.0 L 57.7 35.0 L 55.0 32.1 L 52.1 29.1 L 51.962592887878415 28.97547483444214 L 49.5 34.3 L 45.6 42.0 L 41.6 49.4 L 37.4 56.5 L 33.1 63.2 L 28.6 69.6 L 26.875739669799806 71.8378698348999 L 37.2 77.0 L 62.1 77.0 L 68.1 72.0 L 79.1 81.0 L 74.1 85.0 L 74.1 127.0 L 62.1 133.0 L 62.1 125.0 L 37.2 125.0 L 37.2 145.0 L 60.11818180084229 145.0 L 68.3 136.0 L 78.3 145.0 L 78.3 149.0 L 37.2 149.0 L 37.2 168.0 L 60.918181800842284 168.0 L 69.1 159.0 L 79.1 168.0 L 79.1 172.0 L 37.2 172.0 L 37.2 183.0 L 25.2 189.0 L 25.2 74.01276597976684 L 23.9 75.7 L 19.0 81.3 L 13.9 86.5 L 12.4 85.4 L 16.0 79.1 L 19.5 72.7 L 23.0 66.1 L 26.5 59.4 L 29.9 52.4 L 33.3 45.2 L 36.5 37.7 L 39.7 30.0 L 42.7 22.0 L 45.334959506988525 14.709945392608642 L 45.3 14.7 L 46.2 12.4 L 56.9 18.0 L 58.9 21.0 L 55.27950010299683 21.63517541885376 L 53.2 26.3 L 53.19431209564209 26.312298202514647 L 53.8 26.6 L 57.8 28.4 L 61.5 30.5 L 64.9 32.9 L 68.2 35.4 L 71.2 38.1 L 74.0 41.0 L 76.5 44.1 L 78.9 47.3 L 81.0 50.7 L 81.1 55.3 L 78.0 58.7 L 73.4 58.8 L 70.0 55.7 L 68.9 52.7 Z M 91.5 70.8 L 86.2 75.5 L 80.6 79.6 L 79.3 78.3 L 83.4 72.9 L 87.4 67.4 L 91.1 61.7 L 94.0 57.0277777671814 L 94.0 57.0 L 94.01315793991088 57.00657892227173 L 94.7 55.9 L 98.0 49.8 L 101.0 43.4 L 103.9 36.8 L 106.5 29.9 L 108.8 22.7 L 110.64531202316284 16.10959997177124 L 110.6 16.1 L 111.4 13.6 L 122.4 18.6 L 124.7 21.4 L 121.06901407241821 22.307746505737306 L 119.6 26.4 L 116.4 33.9 L 115.87323942184449 35.0 L 141.0 35.0 L 147.0 30.0 L 158.0 39.0 L 153.0 42.0 L 150.70684928894042 42.95547943115234 L 149.6 45.1 L 147.9 48.2 L 146.1 51.1 L 144.1 54.0 L 142.1 56.7 L 139.9 59.3 L 137.5 61.8 L 136.1956521987915 63.0 L 166.0 63.0 L 176.0 53.0 L 188.0 63.0 L 188.0 67.0 L 106.0 67.0 L 106.0 111.0 L 105.3 121.1 L 104.1 130.7 L 102.3 139.8 L 99.8 148.4 L 96.7 156.5 L 92.9 164.0 L 88.5 170.9 L 83.5 177.2 L 77.9 182.8 L 71.6 187.6 L 70.3 186.3 L 75.1 180.2 L 79.2 174.0 L 82.9 167.5 L 86.1 160.6 L 88.7 153.4 L 90.8 145.8 L 92.4 137.8 L 93.5 129.3 L 94.0 120.4 L 94.0 68.1979591369629 Z M 147.9 125.4 L 147.66091957092286 127.0 L 160.0 127.0 L 170.0 117.0 L 182.0 127.0 L 182.0 131.0 L 147.06321840286256 131.0 L 146.78088750839234 132.8894453048706 L 147.7 135.0 L 150.5 140.8 L 153.5 146.2 L 156.7 151.2 L 160.3 155.7 L 164.2 159.9 L 168.4 163.7 L 172.9 167.2 L 177.8 170.4 L 183.1 173.2 L 188.0 175.8 L 176.8 184.7 L 170.9 180.8 L 165.6 176.4 L 160.7 171.7 L 156.4 166.6 L 152.7 161.2 L 149.5 155.4 L 147.0 149.3 L 145.0 142.8 L 144.71939020156861 141.35378046035765 L 144.5 142.2 L 141.6 149.9 L 137.9 157.0 L 133.4 163.6 L 128.2 169.6 L 122.3 174.9 L 115.7 179.6 L 108.4 183.5 L 100.3 186.8 L 99.6 185.1 L 106.4 180.3 L 112.5 175.3 L 117.9 170.1 L 122.5 164.6 L 126.5 158.8 L 129.7 152.7 L 132.2 146.2 L 134.1 139.4 L 135.4 132.2 L 135.49350652694702 131.0 L 106.0 131.0 L 106.0 127.0 L 135.8051947593689 127.0 L 136.0 124.5 L 136.0 97.0 L 126.03999996185303 97.0 L 124.2 101.6 L 121.9 106.4 L 119.5 111.0 L 116.9 115.4 L 114.0 119.6 L 110.7 123.4 L 109.2 122.5 L 112.0 113.1 L 113.5 108.4 L 114.9 103.7 L 117.3 93.9 L 118.4 88.8 L 119.3 83.6 L 120.2 78.3 L 120.76954402923585 73.90637483596802 L 120.7 73.9 L 121.2 71.0 L 132.7 75.0 L 135.3 77.4 L 131.75538463592528 78.77846155166625 L 131.3 80.6 L 129.8 86.1 L 128.1 91.4 L 127.51538457870484 93.0 L 152.0 93.0 L 162.0 83.0 L 174.0 93.0 L 174.0 97.0 L 148.0 97.0 L 148.0 125.0 L 147.7413332939148 125.38800001144409 Z M 37.2 102.0 L 37.2 121.0 L 62.1 121.0 L 62.1 102.0 Z M 37.2 81.0 L 37.2 98.0 L 62.1 98.0 L 62.1 81.0 Z M 113.9577465057373 39.0 L 113.0 41.0 L 109.3 47.7 L 105.3 54.1 L 101.0 60.1 L 100.76708860397339 60.38354434967041 L 106.0 63.0 L 132.5241379737854 63.0 L 132.8 62.5 L 134.0 59.4 L 137.3 50.4 L 139.1 44.4 L 139.9 41.3 L 140.4366666793823 39.0 Z M 68.9 59.0 L 68.9 63.0 L 35.9 63.0 L 35.9 59.0 L 54.6777777671814 59.0 L 60.9 52.0 Z " />
</g>
</svg>
