<svg xmlns="http://www.w3.org/2000/svg" xmlns:xlink="http://www.w3.org/1999/xlink" version="1.1" baseProfile="full" viewBox="0 0 200 200" width="200" height="200">
<g fill="black">
<path d="M 65.7 49.7 L 64.2 46.7 L 62.5 43.8 L 60.6 40.9 L 58.4 37.9 L 56.0 35.0 L 53.3 32.1 L 50.5 29.1 L 50.43305807113647 29.03933391571045 L 48.0 34.3 L 44.1 42.0 L 40.1 49.4 L 36.0 56.4 L 31.7 63.2 L 27.3 69.6 L 25.60238094329834 71.85119047164918 L 35.9 77.0 L 60.3 77.0 L 66.3 72.0 L 77.3 81.0 L 72.3 85.0 L 72.3 127.0 L 60.3 133.0 L 60.3 125.0 L 35.9 125.0 L 35.9 145.0 L 58.21818180084229 145.0 L 66.4 136.0 L 76.4 145.0 L 76.4 149.0 L 35.9 149.0 L 35.9 168.0 L 58.918181800842284 168.0 L 67.1 159.0 L 77.1 168.0 L 77.1 172.0 L 35.9 172.0 L 35.9 183.0 L 23.9 189.0 L 23.9 74.10869569778443 L 22.7 75.7 L 17.8 81.3 L 12.7 86.5 L 11.3 85.4 L 14.8 79.1 L 18.2 72.7 L 21.7 66.2 L 25.2 59.4 L 28.5 52.4 L 31.8 45.2 L 35.0 37.7 L 38.1 30.0 L 41.1 22.0 L 44.0 13.8 L 44.04554920196533 13.816929817199707 L 44.6 12.4 L 55.3 18.0 L 57.4 20.9 L 53.741195106506346 21.593911266326906 L 51.7 26.3 L 51.67630023956299 26.35124263763428 L 52.2 26.6 L 56.1 28.4 L 59.8 30.6 L 63.2 32.9 L 66.4 35.4 L 69.4 38.2 L 72.1 41.1 L 74.7 44.1 L 77.0 47.4 L 79.0 50.8 L 79.1 55.3 L 76.0 58.7 L 71.5 58.8 L 68.1 55.7 L 67.0 52.7 Z M 140.0 129.0 L 143.0 131.0 L 140.0 132.8 L 140.0 148.7 L 165.9 148.7 L 175.9 138.7 L 187.9 148.7 L 187.9 152.7 L 140.0 152.7 L 140.0 182.6 L 128.0 188.6 L 128.0 152.7 L 80.0 152.7 L 80.0 148.7 L 128.0 148.7 L 128.0 127.0 Z M 167.5 132.7 L 165.0 130.5 L 162.4 128.3 L 159.5 126.2 L 156.4 124.1 L 153.2 122.0 L 149.7 119.8 L 146.0 117.6 L 142.1 115.6 L 142.6 113.9 L 147.0 114.8 L 151.4 115.6 L 155.5 116.6 L 159.5 117.8 L 163.3 119.2 L 166.9 120.7 L 170.4 122.4 L 173.7 124.2 L 176.8 126.1 L 179.8 128.2 L 181.7 132.3 L 180.2 136.7 L 176.1 138.6 L 171.7 137.1 L 169.7 134.9 Z M 124.1 120.0 L 124.6 123.6 L 120.76525182724 122.3449914932251 L 117.6 124.3 L 114.1 126.3 L 110.3 128.2 L 106.3 130.0 L 102.0 131.7 L 97.6 133.3 L 92.9 134.7 L 87.9 136.0 L 82.8 137.2 L 82.1 135.5 L 86.7 132.9 L 90.9 130.3 L 95.0 127.7 L 98.8 125.3 L 102.3 122.8 L 105.6 120.4 L 108.7 118.1 L 111.4 115.7 L 114.0 113.3 L 115.51582546234131 111.71527338027954 L 115.5 111.7 L 80.6 111.7 L 80.6 107.7 L 109.3 107.7 L 109.3 85.0 L 84.3 85.0 L 84.3 81.0 L 109.3 81.0 L 109.3 61.8 L 121.3 63.8 L 124.3 65.8 L 121.3 67.6 L 121.3 81.0 L 146.6 81.0 L 146.6 61.8 L 158.6 63.8 L 161.6 65.8 L 158.6 67.6 L 158.6 81.0 L 161.6 81.0 L 171.6 71.0 L 183.6 81.0 L 183.6 85.0 L 158.6 85.0 L 158.6 107.7 L 165.3 107.7 L 175.3 97.7 L 187.3 107.7 L 187.3 111.7 L 117.07692308425904 111.7 Z M 35.9 102.0 L 35.9 121.0 L 60.3 121.0 L 60.3 102.0 Z M 121.3 85.0 L 121.3 107.7 L 146.6 107.7 L 146.6 85.0 Z M 35.9 81.0 L 35.9 98.0 L 60.3 98.0 L 60.3 81.0 Z M 67.1 59.0 L 67.1 63.0 L 34.5 63.0 L 34.5 59.0 L 52.8 59.0 L 59.1 52.0 Z M 81.7 56.7 L 128.0 56.7 L 128.0 34.3 L 89.6 34.3 L 89.6 30.3 L 128.0 30.3 L 128.0 12.1 L 140.0 14.1 L 143.0 16.1 L 140.0 17.9 L 140.0 30.3 L 156.2834711074829 30.3 L 166.3 20.2 L 178.3 30.3 L 178.3 34.3 L 140.0 34.3 L 140.0 56.7 L 164.2 56.7 L 174.2 46.7 L 186.2 56.7 L 186.2 60.7 L 81.7 60.7 Z " />
</g>
</svg>
