<svg xmlns="http://www.w3.org/2000/svg" xmlns:xlink="http://www.w3.org/1999/xlink" version="1.1" baseProfile="full" viewBox="0 0 200 200" width="200" height="200">
<g fill="black">
<path d="M 72.5 49.9 L 70.8 46.9 L 68.8 44.0 L 66.6 41.0 L 64.1 38.1 L 61.4 35.1 L 58.4 32.2 L 55.2 29.1 L 54.77575759887695 28.748484802246093 L 51.9 34.5 L 47.7 42.1 L 43.4 49.5 L 38.9 56.6 L 34.2 63.3 L 29.4 69.7 L 27.830232524871825 71.61511631011963 L 38.6 77.0 L 66.5 77.0 L 72.5 72.0 L 83.5 81.0 L 78.5 85.0 L 78.5 127.0 L 66.5 133.0 L 66.5 125.0 L 38.6 125.0 L 38.6 145.0 L 65.41818180084229 145.0 L 73.6 136.0 L 83.6 145.0 L 83.6 149.0 L 38.6 149.0 L 38.6 168.0 L 62.4 168.0 L 72.4 158.0 L 84.4 168.0 L 84.4 172.0 L 38.6 172.0 L 38.6 183.0 L 26.6 189.0 L 26.6 73.11599998474121 L 24.4 75.8 L 19.2 81.4 L 13.7 86.5 L 12.3 85.4 L 20.1 72.6 L 24.0 66.0 L 27.8 59.3 L 31.6 52.3 L 35.2 45.0 L 38.7 37.6 L 42.2 29.8 L 45.5 21.8 L 48.34333896636963 14.513943862915038 L 48.3 14.5 L 48.64482755661011 13.741379356384277 L 48.7 13.6 L 48.707649898529056 13.603170204162598 L 49.3 12.3 L 59.8 18.2 L 61.8 21.2 L 58.15406484603882 21.702887630462648 L 56.06436433792114 26.150199031829835 L 56.9 26.5 L 61.1 28.3 L 65.1 30.4 L 68.8 32.8 L 72.2 35.3 L 75.4 38.0 L 78.4 40.9 L 81.2 44.0 L 83.7 47.2 L 85.9 50.6 L 86.1 55.2 L 83.2 58.6 L 78.6 58.9 L 75.1 55.9 L 73.9 52.9 Z M 86.1 185.0 L 85.0 180.6 L 87.4 176.7 L 88.8 175.9 L 90.3 174.8 L 91.8 173.3 L 93.3 171.3 L 94.8 168.8 L 96.2 165.9 L 97.4 162.6 L 98.6 158.8 L 99.8 154.6 L 100.5 150.0 L 102.3 150.1 L 102.5 154.8 L 102.9 159.3 L 102.9 163.6 L 102.7 167.5 L 102.1 171.3 L 101.3 174.8 L 100.1 178.0 L 98.6 181.1 L 96.7 183.9 L 94.4 186.4 L 90.0 187.4 Z M 176.6 176.1 L 175.9 173.3 L 175.1 170.3 L 174.0 167.4 L 172.7 164.3 L 171.2 161.1 L 169.5 157.9 L 167.7 154.5 L 165.4 151.2 L 166.7 150.0 L 169.8 152.6 L 172.9 155.1 L 175.8 157.8 L 178.4 160.6 L 180.7 163.5 L 182.9 166.4 L 184.8 169.5 L 186.4 172.6 L 187.9 175.8 L 189.1 179.1 L 188.2 183.6 L 184.4 186.2 L 179.9 185.3 L 177.3 181.6 L 177.1 178.9 Z M 147.6 174.1 L 147.4 171.6 L 147.0 169.0 L 146.5 166.3 L 145.7 163.6 L 144.8 160.8 L 143.7 157.9 L 142.5 154.9 L 140.7 152.0 L 142.1 150.9 L 144.5 153.3 L 147.1 155.6 L 149.4 158.0 L 151.5 160.6 L 153.4 163.3 L 155.1 166.1 L 156.5 169.0 L 157.7 172.0 L 158.7 175.0 L 159.4 178.2 L 157.9 182.5 L 153.9 184.6 L 149.6 183.1 L 147.5 179.1 L 147.6 176.6 Z M 124.5 184.6 L 120.5 182.5 L 119.0 178.2 L 119.5 175.8 L 119.9 173.4 L 120.1 170.9 L 120.2 168.3 L 120.1 165.8 L 119.9 163.1 L 119.5 160.4 L 119.0 157.6 L 118.3 154.7 L 117.1 152.0 L 118.7 151.1 L 120.5 153.5 L 122.6 155.9 L 124.4 158.4 L 126.0 161.1 L 127.4 163.9 L 128.5 166.7 L 129.4 169.7 L 130.2 172.8 L 130.7 175.9 L 131.0 179.1 L 128.9 183.1 Z M 171.9 142.2 L 166.0 138.0 L 159.6 131.7 L 153.2 122.9 L 147.2 111.2 L 141.9 96.4 L 137.7 77.9 L 137.2660714149475 74.3 L 110.0 74.3 L 110.0 128.2199999809265 L 113.4 127.2 L 118.5 125.6 L 123.8 124.0 L 129.2 122.3 L 134.8 120.6 L 140.6 118.9 L 141.3 120.6 L 136.4 124.0 L 131.4 127.2 L 126.4 130.0 L 121.4 132.7 L 116.5 135.1 L 111.6 137.4 L 106.8 139.6 L 102.0 141.6 L 97.2 143.4 L 96.52807140350342 143.6483214378357 L 95.3 147.5 L 92.6 145.1 L 87.3 134.2 L 89.3 133.6 L 93.9 132.6 L 98.0 131.55319147109986 L 98.0 27.6 L 108.74579439163207 32.97289724349976 L 110.1 32.5 L 116.5 30.3 L 122.7 28.3 L 135.1 24.1 L 141.2 22.0 L 147.2 19.8 L 153.2 17.5 L 159.1 15.2 L 164.9 12.7 L 165.55306015014648 14.45704288482666 L 174.3 22.1 L 174.5 25.2 L 170.557204914093 23.467559719085692 L 169.1 24.0 L 162.9 25.9 L 156.6 27.7 L 150.2 29.4 L 146.05805759429933 30.37076778411865 L 146.9 54.6 L 148.89014081954957 70.3 L 162.0 70.3 L 172.0 60.3 L 184.0 70.3 L 184.0 74.3 L 149.39718313217162 74.3 L 149.6 75.9 L 153.5 93.0 L 158.2 106.5 L 163.4 116.6 L 168.7 123.9 L 173.6 128.8 L 176.83990755081177 131.06040058135986 L 182.0 108.7 L 184.0 108.7 L 182.08743715286255 133.5633165359497 L 182.6 133.7 L 186.6 135.9 L 187.9 140.3 L 185.7 144.3 L 181.3 145.6 L 177.1 144.6 Z M 38.6 102.0 L 38.6 121.0 L 66.5 121.0 L 66.5 102.0 Z M 38.6 81.0 L 38.6 98.0 L 66.5 98.0 L 66.5 81.0 Z M 130.8 33.6 L 124.2 34.7 L 117.6 35.6 L 110.9 36.2 L 110.0 36.239705848693845 L 110.0 70.3 L 136.78392858505248 70.3 L 135.0 55.5 L 134.15777778625488 32.928444480896 Z M 73.4 59.0 L 73.4 63.0 L 37.7 63.0 L 37.7 59.0 L 59.1777777671814 59.0 L 65.4 52.0 Z " />
</g>
</svg>
