<svg xmlns="http://www.w3.org/2000/svg" xmlns:xlink="http://www.w3.org/1999/xlink" version="1.1" baseProfile="full" viewBox="0 0 200 200" width="200" height="200">
<g fill="black">
<path d="M 69.3 49.8 L 67.7 46.8 L 65.9 43.9 L 63.8 40.9 L 61.4 38.0 L 58.9 35.1 L 56.0 32.1 L 53.0 29.1 L 52.70599842071533 28.84923400878906 L 50.0 34.4 L 46.0 42.1 L 41.9 49.4 L 37.5 56.5 L 33.1 63.3 L 28.4 69.7 L 26.77142858505249 71.73571424484253 L 37.3 77.0 L 63.6 77.0 L 69.6 72.0 L 80.6 81.0 L 75.6 85.0 L 75.6 127.0 L 63.6 133.0 L 63.6 125.0 L 37.3 125.0 L 37.3 145.0 L 62.018181800842285 145.0 L 70.2 136.0 L 80.2 145.0 L 80.2 149.0 L 37.3 149.0 L 37.3 168.0 L 62.81818180084228 168.0 L 71.0 159.0 L 74.14285717010497 161.8285714149475 L 73.8 161.1 L 86.4 152.7 L 92.6 148.4 L 98.6 144.0 L 101.5 141.77666664123535 L 101.5 141.0 L 102.51304349899291 141.0 L 104.6 139.4 L 110.5 134.6 L 116.2 129.6 L 121.8 124.4 L 127.3 119.0 L 129.2285714149475 117.0 L 109.2 117.0 L 109.2 124.0 L 97.2 130.0 L 97.2 81.0 L 109.2 87.0 L 160.6 87.0 L 166.6 82.0 L 177.6 91.0 L 172.6 95.0 L 172.6 117.0 L 160.6 123.0 L 160.6 117.0 L 136.53409090042115 117.0 L 141.1 121.9 L 141.8 125.4 L 140.08502025604247 124.97125501632691 L 140.9 126.7 L 144.3 133.2 L 147.9 139.3 L 151.8 145.1 L 152.27405529022218 145.6732762336731 L 153.3 145.0 L 156.2 142.6 L 159.2 140.4 L 165.0 136.0 L 167.8 133.7 L 173.2 129.3 L 177.65288066864014 125.36091318130494 L 177.6 125.3 L 178.4 124.7 L 185.5 134.4 L 185.6 138.0 L 181.9243432998657 136.40490369796754 L 179.0 138.0 L 172.4 141.2 L 168.9 142.7 L 165.5 144.2 L 161.9 145.5 L 158.3 146.7 L 154.6 147.7 L 154.0782645225525 147.85511054992676 L 156.1 150.3 L 160.8 155.2 L 165.9 159.8 L 171.5 163.9 L 177.4 167.7 L 183.8 171.2 L 188.6 173.8 L 177.4 182.7 L 170.5 178.2 L 164.2 173.3 L 158.5 167.9 L 153.3 162.2 L 148.7 156.0 L 144.8 149.5 L 141.5 142.7 L 138.8 135.5 L 136.9 128.0 L 136.63636360168456 125.91727275848389 L 135.1 127.3 L 128.9 132.5 L 122.5 137.4 L 116.1 142.0 L 113.5 143.69393939971923 L 113.5 167.4471697807312 L 115.7 166.7 L 121.2 164.8 L 126.8 162.9 L 132.6 160.9 L 138.6 159.0 L 144.7 157.1 L 145.5 158.8 L 140.2 162.4 L 134.9 165.8 L 129.5 168.9 L 124.3 171.8 L 119.1 174.5 L 114.0 177.1 L 108.9 179.6 L 104.0 181.9 L 99.1 184.1 L 98.25230140686035 184.4787589073181 L 97.3 188.4 L 94.4 186.2 L 88.4 175.7 L 90.3 175.0 L 95.1 173.5 L 100.1 171.9 L 101.5 171.4607843399048 L 101.5 151.1073529243469 L 96.0 154.1 L 89.0 157.4 L 81.9 160.3 L 75.05071668624878 162.6456449508667 L 81.0 168.0 L 81.0 172.0 L 37.3 172.0 L 37.3 183.0 L 25.3 189.0 L 25.3 73.575 L 23.6 75.7 L 18.6 81.4 L 13.2 86.5 L 11.8 85.4 L 15.5 79.1 L 22.9 66.1 L 26.6 59.3 L 30.2 52.3 L 33.6 45.1 L 37.0 37.6 L 40.3 29.9 L 43.5 21.9 L 46.5 13.7 L 46.5452220916748 13.717765808105469 L 47.1 12.3 L 57.7 18.1 L 59.7 21.1 L 56.06363639831543 21.674162673950196 L 53.992949676513675 26.1969783782959 L 54.7 26.5 L 58.8 28.4 L 62.6 30.5 L 66.1 32.8 L 69.5 35.4 L 72.6 38.1 L 75.5 41.0 L 78.1 44.0 L 80.5 47.3 L 82.7 50.7 L 82.9 55.2 L 79.8 58.7 L 75.3 58.8 L 71.9 55.8 L 70.7 52.8 Z M 37.3 102.0 L 37.3 121.0 L 63.6 121.0 L 63.6 102.0 Z M 109.2 91.0 L 109.2 113.0 L 160.6 113.0 L 160.6 91.0 Z M 37.3 81.0 L 37.3 98.0 L 63.6 98.0 L 63.6 81.0 Z M 187.1 71.0 L 187.1 75.0 L 83.9 75.0 L 83.9 71.0 L 168.9181818008423 71.0 L 177.1 62.0 Z M 70.4 59.0 L 70.4 63.0 L 36.2 63.0 L 36.2 59.0 L 56.1777777671814 59.0 L 62.4 52.0 Z M 103.3 57.0 L 92.3 62.5 L 92.3 14.5 L 103.3 20.0 L 164.9 20.0 L 170.9 15.0 L 181.9 24.0 L 176.9 28.0 L 176.9 56.0 L 164.9 62.0 L 164.9 54.0 L 103.3 54.0 Z M 103.3 24.0 L 103.3 50.0 L 116.0 50.0 L 116.0 24.0 Z M 127.0 24.0 L 127.0 50.0 L 140.2 50.0 L 140.2 24.0 Z M 152.2 24.0 L 152.2 50.0 L 164.9 50.0 L 164.9 24.0 Z " />
</g>
</svg>
