<svg xmlns="http://www.w3.org/2000/svg" xmlns:xlink="http://www.w3.org/1999/xlink" version="1.1" baseProfile="full" viewBox="0 0 200 200" width="200" height="200">
<g fill="black">
<path d="M 12.5 112.0 L 12.5 108.0 L 54.6 108.0 L 54.6 74.0 L 32.4 74.0 L 32.4 86.0 L 20.4 92.0 L 20.4 23.0 L 32.4 25.0 L 35.4 27.0 L 32.4 28.8 L 32.4 70.0 L 54.6 70.0 L 54.6 12.0 L 66.6 14.0 L 69.6 16.0 L 66.6 17.8 L 66.6 182.0 L 54.6 188.0 L 54.6 112.0 L 37.0 112.0 L 37.0 126.0 L 36.5 133.7 L 35.6 141.2 L 34.2 148.3 L 32.4 155.2 L 30.2 161.7 L 27.6 167.9 L 24.5 173.7 L 20.9 179.1 L 16.9 184.1 L 12.3 188.5 L 10.9 187.4 L 13.7 181.9 L 16.3 176.4 L 18.5 170.9 L 20.5 165.1 L 22.1 159.2 L 23.4 153.0 L 24.3 146.6 L 24.9 140.0 L 25.1 133.1 L 25.0 126.0 L 25.0 112.0 Z M 74.9 176.7 L 73.8 172.3 L 76.1 168.3 L 77.9 167.2 L 79.7 165.6 L 81.4 163.4 L 83.1 160.8 L 84.5 157.5 L 85.8 153.7 L 86.9 149.3 L 87.8 144.4 L 88.6 139.0 L 89.0 133.0 L 90.8 132.9 L 91.8 138.9 L 92.6 144.5 L 92.9 149.9 L 92.8 154.8 L 92.4 159.5 L 91.5 163.8 L 90.2 167.9 L 88.4 171.6 L 86.1 175.0 L 83.3 178.0 L 78.8 179.0 Z M 170.3 181.0 L 168.5 182.6 L 166.5 184.0 L 164.5 185.2 L 162.3 186.2 L 160.0 187.0 L 157.7 187.5 L 155.2 187.8 L 152.8 188.0 L 152.8 182.0 L 132.8 179.0 L 132.8 176.0 L 152.8 176.0 L 154.2 175.9 L 155.5 175.7 L 156.8 175.4 L 157.9 175.1 L 159.0 174.6 L 160.0 174.0 L 160.9 173.3 L 161.8 172.5 L 162.8 171.5 L 163.6 170.3 L 164.9 168.2 L 166.2 165.3 L 167.4 161.6 L 168.5 157.3 L 169.4 152.2 L 170.2 146.5 L 170.8 140.1 L 171.2 133.0 L 171.5 125.3 L 171.57590360641478 119.0 L 98.1 119.0 L 86.1 125.0 L 86.1 22.0 L 98.1 28.0 L 162.4 28.0 L 172.4 18.0 L 184.4 28.0 L 184.4 32.0 L 138.0 32.0 L 138.0 57.0 L 157.9 57.0 L 167.9 47.0 L 179.9 57.0 L 179.9 61.0 L 138.0 61.0 L 138.0 86.0 L 157.9 86.0 L 167.9 76.0 L 179.9 86.0 L 179.9 90.0 L 138.0 90.0 L 138.0 115.0 L 171.6 115.0 L 177.6 110.0 L 188.6 119.0 L 183.6 122.0 L 183.5415774345398 122.02434272766114 L 183.5 125.6 L 183.2 133.6 L 182.8 141.0 L 182.1 147.8 L 181.3 154.1 L 180.2 159.8 L 178.9 164.9 L 177.4 169.5 L 175.6 173.6 L 173.4 177.2 L 171.9 179.2 Z M 108.8 169.9 L 104.9 167.6 L 103.6 163.3 L 104.2 160.5 L 104.7 157.7 L 105.0 154.9 L 105.2 152.1 L 105.1 149.2 L 104.9 146.4 L 104.5 143.4 L 104.0 140.4 L 103.3 137.3 L 102.1 134.3 L 103.6 133.3 L 107.8 138.7 L 109.6 141.5 L 111.2 144.5 L 112.6 147.6 L 113.7 150.8 L 114.5 154.1 L 115.1 157.6 L 115.4 161.1 L 115.5 164.7 L 113.2 168.6 Z M 126.6 152.6 L 126.2 150.1 L 125.6 147.5 L 124.8 145.0 L 123.8 142.5 L 122.6 139.9 L 121.2 137.3 L 119.5 134.7 L 117.4 132.3 L 118.5 130.9 L 121.3 132.7 L 124.2 134.5 L 126.8 136.5 L 129.2 138.8 L 131.4 141.2 L 133.3 143.9 L 135.0 146.7 L 136.5 149.7 L 137.7 152.9 L 138.7 156.2 L 137.4 160.6 L 133.5 162.9 L 129.1 161.7 L 126.8 157.7 L 126.8 155.1 Z M 147.0 145.6 L 146.2 143.4 L 145.2 141.3 L 144.1 139.2 L 142.7 137.1 L 141.1 135.0 L 139.3 132.9 L 137.3 130.8 L 134.8 129.2 L 135.6 127.6 L 138.5 128.7 L 141.5 129.6 L 144.3 130.8 L 147.0 132.3 L 149.5 134.0 L 151.9 136.0 L 154.1 138.2 L 156.0 140.6 L 157.8 143.3 L 159.4 146.1 L 159.1 150.7 L 155.8 153.8 L 151.2 153.5 L 148.1 150.1 L 147.7 147.8 Z M 98.1 90.0 L 98.1 115.0 L 126.0 115.0 L 126.0 90.0 Z M 98.1 61.0 L 98.1 86.0 L 126.0 86.0 L 126.0 61.0 Z M 98.1 32.0 L 98.1 57.0 L 126.0 57.0 L 126.0 32.0 Z " />
</g>
</svg>
