<svg xmlns="http://www.w3.org/2000/svg" xmlns:xlink="http://www.w3.org/1999/xlink" version="1.1" baseProfile="full" viewBox="0 0 200 200" width="200" height="200">
<g fill="black">
<path d="M 117.7 133.1 L 116.8 141.4 L 115.1 149.1 L 112.7 156.4 L 109.4 163.0 L 105.4 169.1 L 100.6 174.5 L 95.2 179.2 L 89.0 183.2 L 82.1 186.4 L 74.6 188.8 L 73.9 187.1 L 80.3 183.0 L 86.0 178.7 L 90.8 174.2 L 95.0 169.4 L 98.4 164.3 L 101.1 158.9 L 103.2 153.0 L 104.7 146.8 L 105.5 140.0 L 105.7 132.8 L 105.7 100.0 L 117.7 102.0 L 120.7 104.0 L 117.7 105.8 L 117.7 133.0 L 117.63442621231079 133.0983606338501 Z M 182.2 146.0 L 184.2 146.0 L 182.2 171.0 L 185.8 173.4 L 188.2 177.0 L 185.8 180.6 L 182.2 183.0 L 172.2 183.0 L 169.6 182.8 L 167.1 182.4 L 164.7 181.6 L 162.4 180.3 L 160.4 178.7 L 158.8 176.7 L 157.5 174.4 L 156.7 172.0 L 156.3 169.5 L 156.2 167.0 L 156.2 100.0 L 168.2 102.0 L 171.2 104.0 L 168.2 105.8 L 168.2 168.2 L 168.4 169.1 L 168.7 170.0 L 169.1 170.4 L 170.0 170.7 L 170.9 170.9 L 172.2 171.0 L 176.2 171.0 Z M 142.9 102.0 L 145.9 104.0 L 142.9 105.8 L 142.9 177.0 L 130.9 183.0 L 130.9 100.0 Z M 73.0 181.3 L 71.3 183.0 L 69.4 184.6 L 67.4 186.0 L 65.2 187.1 L 63.0 187.9 L 60.6 188.5 L 58.1 188.8 L 55.7 189.0 L 55.7 183.0 L 39.7 180.0 L 39.7 177.0 L 55.7 177.0 L 57.1 176.9 L 58.3 176.7 L 59.4 176.4 L 60.4 176.1 L 61.4 175.6 L 62.2 175.0 L 63.0 174.3 L 63.8 173.5 L 64.6 172.5 L 65.4 171.3 L 67.0 167.9 L 68.5 163.9 L 69.9 159.3 L 71.0 154.1 L 72.0 148.2 L 72.7 141.8 L 73.1 134.8 L 73.4 127.1 L 73.4 119.91666669845581 L 73.2 120.0 L 73.2 112.0 L 31.2 112.0 L 19.2 118.0 L 19.2 20.0 L 31.2 26.0 L 64.4 26.0 L 74.4 16.0 L 86.4 26.0 L 86.4 30.0 L 60.0 30.0 L 60.0 54.0 L 63.5 54.0 L 73.5 44.0 L 85.5 54.0 L 85.5 58.0 L 60.0 58.0 L 60.0 81.0 L 63.5 81.0 L 73.5 71.0 L 85.5 81.0 L 85.5 85.0 L 60.0 85.0 L 60.0 108.0 L 73.2 108.0 L 79.2 103.0 L 90.2 112.0 L 85.27327585220337 114.95603446960449 L 85.4 118.8 L 85.4 127.3 L 85.1 135.4 L 84.6 142.8 L 83.9 149.8 L 82.8 156.3 L 81.5 162.2 L 79.9 167.7 L 78.0 172.7 L 75.8 177.2 L 74.5 179.3 Z M 13.2 174.1 L 11.4 169.9 L 13.0 165.6 L 14.4 164.4 L 15.9 162.5 L 17.3 160.0 L 18.6 156.8 L 19.8 153.0 L 20.8 148.6 L 21.7 143.6 L 22.4 138.0 L 23.0 131.8 L 23.4 125.0 L 25.2 124.9 L 26.5 131.6 L 27.4 137.9 L 27.9 143.8 L 28.1 149.3 L 28.0 154.3 L 27.5 158.9 L 26.7 163.2 L 25.5 167.2 L 23.8 170.8 L 21.6 174.0 L 17.4 175.7 Z M 37.3 166.9 L 33.4 164.5 L 32.3 160.0 L 33.0 157.6 L 33.5 155.0 L 34.0 152.3 L 34.2 149.3 L 34.3 146.2 L 34.3 143.0 L 34.2 139.5 L 33.9 135.9 L 33.5 132.1 L 32.7 128.2 L 34.4 127.6 L 36.2 131.2 L 38.1 134.7 L 39.6 138.2 L 40.9 141.7 L 42.0 145.2 L 42.9 148.6 L 43.5 152.0 L 44.0 155.3 L 44.2 158.6 L 44.1 161.9 L 41.7 165.8 Z M 47.2 147.3 L 47.1 144.7 L 46.5 139.5 L 45.9 136.7 L 45.3 134.0 L 44.4 131.1 L 43.5 128.1 L 42.1 125.3 L 43.6 124.2 L 45.7 126.7 L 48.0 129.1 L 50.0 131.5 L 51.9 134.1 L 53.5 136.8 L 55.0 139.6 L 56.3 142.5 L 57.3 145.5 L 58.2 148.5 L 58.9 151.6 L 57.3 155.9 L 53.2 157.9 L 48.9 156.4 L 46.9 152.3 L 47.1 149.8 Z M 58.7 136.2 L 58.3 134.1 L 57.7 132.0 L 57.0 129.9 L 56.1 127.8 L 55.0 125.6 L 53.8 123.4 L 52.5 121.2 L 50.6 119.3 L 51.7 117.8 L 54.0 119.4 L 56.5 120.7 L 58.9 122.2 L 61.1 123.9 L 63.1 125.8 L 65.0 127.9 L 66.7 130.1 L 68.2 132.5 L 69.6 135.0 L 70.8 137.6 L 70.0 142.1 L 66.4 144.9 L 61.8 144.1 L 59.1 140.4 L 59.0 138.3 Z M 31.2 85.0 L 31.2 108.0 L 48.0 108.0 L 48.0 85.0 Z M 109.6 90.8 L 107.1 90.4 L 104.7 89.6 L 102.4 88.3 L 100.4 86.7 L 98.7 84.7 L 97.5 82.4 L 96.7 80.0 L 96.3 77.5 L 96.1 75.0 L 96.1 37.0 L 108.1 43.0 L 130.9 43.0 L 130.9 13.0 L 142.9 15.0 L 145.9 17.0 L 142.9 18.8 L 142.9 43.0 L 161.0 43.0 L 171.0 33.0 L 183.0 43.0 L 183.0 47.0 L 108.1 47.0 L 108.1 75.0 L 108.2 76.2 L 108.3 77.1 L 108.5 77.7 L 108.7 78.0 L 108.9 78.2 L 109.0 78.4 L 109.4 78.5 L 110.0 78.7 L 110.9 78.9 L 112.1 79.0 L 174.3 79.0 L 177.9 81.4 L 180.3 85.0 L 177.9 88.6 L 174.3 91.0 L 112.1 91.0 Z M 31.2 58.0 L 31.2 81.0 L 48.0 81.0 L 48.0 58.0 Z M 31.2 30.0 L 31.2 54.0 L 48.0 54.0 L 48.0 30.0 Z " />
</g>
</svg>
