<svg xmlns="http://www.w3.org/2000/svg" xmlns:xlink="http://www.w3.org/1999/xlink" version="1.1" baseProfile="full" viewBox="0 0 200 200" width="200" height="200">
<g fill="black">
<path d="M 25.3 184.0 L 13.3 190.0 L 13.3 23.0 L 25.3 29.0 L 67.9 29.0 L 77.9 19.0 L 89.9 29.0 L 89.9 33.0 L 57.5 33.0 L 57.5 72.0 L 72.8 72.0 L 78.8 67.0 L 89.8 76.0 L 84.8 80.0 L 84.8 131.0 L 72.8 137.0 L 72.8 125.0 L 57.5 125.0 L 57.5 168.0 L 70.3 168.0 L 80.3 158.0 L 92.3 168.0 L 92.3 172.0 L 25.3 172.0 Z M 165.9 61.6 L 164.9 59.1 L 163.7 56.7 L 162.4 54.3 L 159.4 49.5 L 157.7 47.1 L 155.9 44.6 L 153.8 42.4 L 154.38421049118043 41.582105255126955 L 154.1 41.8 L 152.8 40.5 L 155.1 37.6 L 157.0 34.5 L 158.9 31.6 L 160.6 28.7 L 162.3 26.0 L 163.8 23.3 L 165.2 20.7 L 166.5 18.2 L 167.7 15.8 L 168.30344829559326 14.35172414779663 L 168.2 14.3 L 168.62857141494752 13.571428585052491 L 168.7 13.4 L 168.72162952423096 13.413229751586915 L 169.2 12.6 L 179.0 19.7 L 180.5 23.0 L 176.1627721786499 22.92648763656616 L 175.0 24.2 L 172.9 26.4 L 170.6 28.7 L 168.2 30.9 L 165.7 33.1 L 163.0 35.3 L 160.1 37.4 L 157.1 39.5 L 154.99373292922974 41.11480474472046 L 157.5 42.6 L 160.4 44.0 L 163.1 45.7 L 165.7 47.5 L 168.1 49.4 L 170.5 51.5 L 174.7 56.1 L 176.7 58.6 L 178.5 61.2 L 178.7 65.8 L 176.875 67.92916669845582 L 188.6 77.7 L 188.6 81.7 L 142.21818180084227 81.7 L 142.1 81.9 L 140.8 84.0 L 139.3 86.2 L 137.9 88.2 L 136.3 90.3 L 133.1 94.3 L 131.3 96.3 L 129.5 98.2 L 127.9444444656372 99.6 L 161.6 99.6 L 167.6 94.6 L 178.6 103.6 L 173.6 107.6 L 173.6 179.2 L 161.6 185.2 L 161.6 175.2 L 115.9 175.2 L 115.9 182.2 L 103.9 188.2 L 103.9 93.6 L 115.9 99.6 L 125.11739130020142 99.6 L 125.5 98.8 L 126.1 96.2 L 126.8 93.7 L 128.2 88.9 L 128.8 86.6 L 129.4 84.2 L 130.0 81.9 L 130.03636360168457 81.7 L 88.3 81.7 L 88.3 77.7 L 166.6 77.7 L 174.96818180084227 69.33181819915771 L 171.1 69.5 L 167.6 66.5 L 166.8 64.0 Z M 115.9 149.4 L 115.9 171.2 L 161.6 171.2 L 161.6 149.4 Z M 25.3 125.0 L 25.3 168.0 L 45.5 168.0 L 45.5 125.0 Z M 115.9 126.2 L 115.9 145.4 L 161.6 145.4 L 161.6 126.2 Z M 115.9 103.6 L 115.9 122.2 L 161.6 122.2 L 161.6 103.6 Z M 25.3 121.0 L 72.8 121.0 L 72.8 76.0 L 25.3 76.0 Z M 25.3 33.0 L 25.3 72.0 L 45.5 72.0 L 45.5 33.0 Z M 109.1 61.6 L 108.1 59.1 L 106.9 56.7 L 105.6 54.3 L 104.2 51.9 L 102.6 49.5 L 100.9 47.1 L 99.1 44.6 L 97.0 42.4 L 97.58421049118041 41.582105255126955 L 97.3 41.8 L 96.1 40.5 L 98.3 37.6 L 100.2 34.5 L 102.1 31.6 L 103.9 28.7 L 105.5 26.0 L 107.0 23.3 L 108.5 20.7 L 109.7 18.2 L 110.9 15.8 L 111.50344829559326 14.35172414779663 L 111.4 14.3 L 111.75106382369995 13.757446765899658 L 111.9 13.4 L 111.95900163650512 13.436088371276856 L 112.5 12.6 L 122.2 19.7 L 123.7 23.0 L 119.40782861709594 22.925997066497803 L 118.3 24.2 L 113.8 28.7 L 111.4 30.9 L 108.9 33.1 L 106.2 35.3 L 103.3 37.4 L 100.3 39.5 L 98.19679718017578 41.11245555877686 L 100.8 42.6 L 103.6 44.0 L 106.3 45.7 L 108.9 47.5 L 111.4 49.4 L 113.7 51.5 L 115.9 53.8 L 117.9 56.1 L 119.9 58.6 L 121.7 61.2 L 121.9 65.8 L 118.9 69.3 L 114.3 69.5 L 110.9 66.5 L 110.1 64.0 Z M 137.5 61.6 L 136.5 59.1 L 135.3 56.7 L 134.0 54.3 L 131.0 49.5 L 129.3 47.1 L 127.5 44.6 L 125.4 42.4 L 125.98421049118042 41.582105255126955 L 125.7 41.8 L 124.5 40.5 L 126.7 37.6 L 128.6 34.5 L 130.5 31.6 L 132.3 28.7 L 133.9 26.0 L 135.4 23.3 L 136.9 20.7 L 138.1 18.2 L 139.3 15.8 L 139.90344829559325 14.35172414779663 L 139.8 14.3 L 140.2285714149475 13.571428585052491 L 140.3 13.4 L 140.32162952423096 13.413229751586915 L 140.8 12.6 L 150.6 19.7 L 152.1 23.0 L 147.76391143798827 22.925239849090577 L 146.6 24.2 L 144.5 26.4 L 142.2 28.7 L 139.8 30.9 L 137.3 33.1 L 134.6 35.3 L 131.7 37.4 L 128.7 39.5 L 126.59679718017578 41.11245555877686 L 129.2 42.6 L 132.0 44.0 L 134.7 45.7 L 137.3 47.5 L 139.7 49.4 L 142.1 51.5 L 144.3 53.8 L 146.3 56.1 L 148.3 58.6 L 150.1 61.2 L 150.3 65.8 L 147.3 69.3 L 142.7 69.5 L 139.3 66.5 L 138.4 64.0 Z " />
</g>
</svg>
