<svg xmlns="http://www.w3.org/2000/svg" xmlns:xlink="http://www.w3.org/1999/xlink" version="1.1" baseProfile="full" viewBox="0 0 200 200" width="200" height="200">
<g fill="black">
<path d="M 43.0 148.0 L 43.0 155.0 L 31.0 161.0 L 31.0 110.0 L 43.0 116.0 L 161.0 116.0 L 167.0 111.0 L 178.0 120.0 L 173.0 124.0 L 173.0 152.0 L 161.0 158.0 L 161.0 148.0 L 131.0 148.0 L 131.0 183.0 L 119.0 189.0 L 119.0 148.0 L 87.0 148.0 L 87.0 150.0 L 86.0 156.6 L 83.9 162.8 L 80.5 168.3 L 76.1 173.2 L 70.7 177.4 L 64.4 180.9 L 57.2 183.8 L 49.1 186.1 L 40.1 187.8 L 30.1 188.8 L 29.8 187.1 L 39.2 184.1 L 47.5 181.0 L 54.7 177.7 L 60.7 174.2 L 65.7 170.5 L 69.5 166.7 L 72.2 162.8 L 73.9 158.7 L 74.8 154.5 L 75.0 150.0 L 75.0 148.0 Z M 43.0 120.0 L 43.0 144.0 L 75.0 144.0 L 75.0 120.0 Z M 87.0 120.0 L 87.0 144.0 L 119.0 144.0 L 119.0 120.0 Z M 131.0 120.0 L 131.0 144.0 L 161.0 144.0 L 161.0 120.0 Z M 15.1 106.0 L 15.4 101.4 L 18.7 98.3 L 21.1 97.7 L 23.3 96.9 L 25.2 96.0 L 26.9 94.9 L 28.4 93.5 L 29.9 91.7 L 31.1 89.6 L 32.2 87.0 L 33.0 84.1 L 33.2 80.7 L 35.0 80.5 L 35.5 84.1 L 36.1 87.4 L 36.2 90.8 L 35.8 94.0 L 34.9 97.2 L 33.5 100.2 L 31.5 103.0 L 29.1 105.5 L 26.1 107.7 L 22.8 109.6 L 18.3 109.3 Z M 162.7 107.1 L 160.6 108.2 L 158.6 109.2 L 156.4 110.1 L 154.2 110.8 L 151.9 111.4 L 149.7 111.7 L 147.3 112.0 L 145.0 112.1 L 145.0 106.1 L 125.0 103.1 L 125.0 100.1 L 145.0 100.1 L 146.5 100.0 L 148.1 99.8 L 149.5 99.6 L 151.0 99.3 L 152.3 98.8 L 153.7 98.3 L 156.3 96.9 L 157.6 96.0 L 158.8 95.1 L 159.7 94.2 L 160.6 93.0 L 161.5 91.4 L 162.3 89.4 L 163.1 87.0 L 163.7 84.1 L 164.3 80.8 L 164.6 77.2 L 164.9 73.1 L 164.9545454978943 70.7 L 50.0 70.7 L 38.0 76.7 L 38.0 14.5 L 50.0 20.5 L 149.8181818008423 20.5 L 158.0 11.5 L 168.0 20.5 L 168.0 24.5 L 106.0 24.5 L 106.0 35.9 L 141.8181818008423 35.9 L 150.0 26.9 L 160.0 35.9 L 160.0 39.9 L 106.0 39.9 L 106.0 51.3 L 141.8181818008423 51.3 L 150.0 42.3 L 160.0 51.3 L 160.0 55.3 L 106.0 55.3 L 106.0 66.7 L 165.0 66.7 L 171.0 61.7 L 182.0 70.7 L 177.0 73.7 L 176.88379888534547 73.74841709136963 L 176.6 78.1 L 176.2 82.4 L 175.5 86.4 L 174.7 90.1 L 173.6 93.5 L 172.3 96.6 L 170.7 99.5 L 168.8 102.1 L 166.5 104.3 L 164.6 105.8 Z M 61.6 93.7 L 61.5 92.2 L 61.1 90.5 L 60.5 88.6 L 59.6 86.6 L 58.5 84.5 L 57.1 82.3 L 55.2 80.4 L 56.3 79.0 L 58.6 80.6 L 61.1 81.9 L 63.3 83.3 L 65.4 84.9 L 67.2 86.6 L 68.8 88.5 L 70.3 90.5 L 71.4 92.7 L 72.4 95.1 L 73.0 97.6 L 71.2 101.8 L 67.0 103.6 L 62.8 101.8 L 61.0 97.6 L 61.6 95.2 Z M 94.6 92.6 L 93.9 91.0 L 93.1 89.2 L 91.9 87.4 L 90.6 85.6 L 88.9 83.7 L 87.1 81.8 L 85.0 79.7 L 82.5 78.1 L 83.2 76.5 L 86.1 77.7 L 89.1 78.5 L 91.8 79.5 L 94.4 80.6 L 96.8 82.0 L 99.1 83.4 L 101.2 85.1 L 103.1 86.9 L 104.8 88.9 L 106.3 91.1 L 106.3 95.7 L 103.1 98.9 L 98.5 98.9 L 95.3 95.7 L 95.0 94.2 Z M 129.2 89.6 L 128.2 88.1 L 126.9 86.6 L 125.4 85.0 L 123.6 83.4 L 121.5 81.8 L 119.2 80.1 L 116.6 78.3 L 113.6 77.0 L 114.2 75.3 L 117.4 76.0 L 120.6 76.5 L 123.6 77.1 L 126.5 77.8 L 129.1 78.7 L 131.6 79.7 L 134.0 80.8 L 136.2 82.1 L 138.2 83.6 L 140.1 85.3 L 141.1 89.8 L 138.7 93.6 L 134.2 94.6 L 130.3 92.2 L 129.9 91.0 Z M 50.0 55.3 L 50.0 66.7 L 94.0 66.7 L 94.0 55.3 Z M 50.0 39.9 L 50.0 51.3 L 94.0 51.3 L 94.0 39.9 Z M 50.0 24.5 L 50.0 35.9 L 94.0 35.9 L 94.0 24.5 Z " />
</g>
</svg>
