<svg xmlns="http://www.w3.org/2000/svg" xmlns:xlink="http://www.w3.org/1999/xlink" version="1.1" baseProfile="full" viewBox="0 0 200 200" width="200" height="200">
<g fill="black">
<path d="M 128.1 119.7 L 147.1 119.7 L 153.1 114.7 L 164.1 123.7 L 159.1 127.7 L 159.1 171.1 L 159.2 172.3 L 159.3 173.2 L 159.5 173.8 L 159.7 174.1 L 159.8 174.3 L 160.0 174.5 L 160.4 174.7 L 161.9 175.0 L 163.1 175.1 L 174.6 175.1 L 180.6 150.1 L 182.6 150.1 L 180.6 175.1 L 184.2 177.5 L 186.6 181.1 L 184.2 184.7 L 180.6 187.1 L 163.1 187.1 L 160.5 186.9 L 158.0 186.5 L 155.6 185.7 L 153.4 184.5 L 151.3 182.8 L 149.7 180.8 L 148.5 178.5 L 147.7 176.1 L 147.2 173.6 L 147.1 171.1 L 147.1 123.7 L 128.1 123.7 L 128.1 139.0 L 127.4 145.9 L 125.9 152.5 L 123.5 158.7 L 120.4 164.4 L 116.5 169.6 L 111.8 174.3 L 106.5 178.4 L 100.5 182.0 L 93.7 185.0 L 86.4 187.3 L 85.7 185.6 L 92.0 181.6 L 97.6 177.5 L 102.4 173.3 L 106.4 168.9 L 109.7 164.5 L 112.3 159.8 L 114.2 155.0 L 115.5 149.9 L 116.1 144.6 L 116.1 113.7 Z M 73.0 181.3 L 71.3 183.0 L 69.4 184.6 L 67.4 186.0 L 65.2 187.1 L 63.0 187.9 L 60.6 188.5 L 58.1 188.8 L 55.7 189.0 L 55.7 183.0 L 39.7 180.0 L 39.7 177.0 L 55.7 177.0 L 57.1 176.9 L 58.3 176.7 L 59.4 176.4 L 60.4 176.1 L 61.4 175.6 L 62.2 175.0 L 63.0 174.3 L 63.8 173.5 L 64.6 172.5 L 65.4 171.3 L 67.0 167.9 L 68.5 163.9 L 69.9 159.3 L 71.0 154.1 L 72.0 148.2 L 72.7 141.8 L 73.1 134.8 L 73.4 127.1 L 73.4 119.91666669845581 L 73.2 120.0 L 73.2 112.0 L 31.2 112.0 L 19.2 118.0 L 19.2 20.0 L 31.2 26.0 L 64.4 26.0 L 74.4 16.0 L 86.4 26.0 L 86.4 30.0 L 60.0 30.0 L 60.0 54.0 L 63.5 54.0 L 73.5 44.0 L 85.5 54.0 L 85.5 58.0 L 60.0 58.0 L 60.0 81.0 L 63.5 81.0 L 73.5 71.0 L 85.5 81.0 L 85.5 85.0 L 60.0 85.0 L 60.0 108.0 L 73.2 108.0 L 79.2 103.0 L 90.2 112.0 L 85.27327585220337 114.95603446960449 L 85.4 118.8 L 85.4 127.3 L 85.1 135.4 L 84.6 142.8 L 83.9 149.8 L 82.8 156.3 L 81.5 162.2 L 79.9 167.7 L 78.0 172.7 L 75.8 177.2 L 74.5 179.3 Z M 13.2 174.1 L 11.4 169.9 L 13.0 165.6 L 14.4 164.4 L 15.9 162.5 L 17.3 160.0 L 18.6 156.8 L 19.8 153.0 L 20.8 148.6 L 21.7 143.6 L 22.4 138.0 L 23.0 131.8 L 23.4 125.0 L 25.2 124.9 L 26.5 131.6 L 27.4 137.9 L 27.9 143.8 L 28.1 149.3 L 28.0 154.3 L 27.5 158.9 L 26.7 163.2 L 25.5 167.2 L 23.8 170.8 L 21.6 174.0 L 17.4 175.7 Z M 37.3 166.9 L 33.4 164.5 L 32.3 160.0 L 33.0 157.6 L 33.5 155.0 L 34.0 152.3 L 34.2 149.3 L 34.3 146.2 L 34.3 143.0 L 34.2 139.5 L 33.9 135.9 L 33.5 132.1 L 32.7 128.2 L 34.4 127.6 L 36.2 131.2 L 38.1 134.7 L 39.6 138.2 L 40.9 141.7 L 42.0 145.2 L 42.9 148.6 L 43.5 152.0 L 44.0 155.3 L 44.2 158.6 L 44.1 161.9 L 41.7 165.8 Z M 47.2 147.3 L 47.1 144.7 L 46.5 139.5 L 45.9 136.7 L 45.3 134.0 L 44.4 131.1 L 43.5 128.1 L 42.1 125.3 L 43.6 124.2 L 45.7 126.7 L 48.0 129.1 L 50.0 131.5 L 51.9 134.1 L 53.5 136.8 L 55.0 139.6 L 56.3 142.5 L 57.3 145.5 L 58.2 148.5 L 58.9 151.6 L 57.3 155.9 L 53.2 157.9 L 48.9 156.4 L 46.9 152.3 L 47.1 149.8 Z M 58.7 136.2 L 58.3 134.1 L 57.7 132.0 L 57.0 129.9 L 56.1 127.8 L 55.0 125.6 L 53.8 123.4 L 52.5 121.2 L 50.6 119.3 L 51.7 117.8 L 54.0 119.4 L 56.5 120.7 L 58.9 122.2 L 61.1 123.9 L 63.1 125.8 L 65.0 127.9 L 66.7 130.1 L 68.2 132.5 L 69.6 135.0 L 70.8 137.6 L 70.0 142.1 L 66.4 144.9 L 61.8 144.1 L 59.1 140.4 L 59.0 138.3 Z M 94.3 120.8 L 93.2 116.4 L 95.5 112.4 L 96.0 112.5 L 96.8 112.2 L 97.7 111.4 L 98.7 110.2 L 99.7 108.6 L 100.7 106.5 L 101.6 104.1 L 102.4 101.3 L 103.2 98.2 L 103.4 94.8 L 105.2 94.7 L 105.5 98.2 L 105.77575759887695 99.5 L 171.9 99.5 L 172.46756753921508 99.02702703475953 L 172.5 98.8 L 172.65104894638063 98.87412586212159 L 177.9 94.5 L 188.9 103.5 L 183.9 106.5 L 179.0162790298462 108.53488368988037 L 178.3 109.2 L 176.9 110.6 L 175.3 112.0 L 173.7 113.5 L 171.9 115.0 L 170.0 116.6 L 168.5 118.5 L 167.0 117.5 L 168.2 115.4 L 168.9 113.0 L 169.6 110.8 L 170.8 106.8 L 171.3 105.0 L 171.6529411315918 103.5 L 106.45806455612183 103.5 L 106.6 104.6 L 106.8 107.5 L 106.8 110.2 L 106.6 112.8 L 106.2 115.3 L 105.5 117.6 L 104.3 119.9 L 102.7 122.0 L 98.3 123.1 Z M 31.2 85.0 L 31.2 108.0 L 48.0 108.0 L 48.0 85.0 Z M 184.34210529327393 58.84736843109131 L 186.7 61.5 L 186.8 65.1 L 183.38617925643922 63.64596519470215 L 178.4 66.7 L 170.1 71.1 L 161.5 75.2 L 152.6 78.8 L 143.5 82.0 L 134.0 84.7 L 124.3 87.0 L 114.2 88.8 L 103.9 90.1 L 93.3 90.7 L 93.0 89.0 L 103.2 86.4 L 113.1 83.6 L 122.6 80.7 L 131.7 77.5 L 140.5 74.0 L 149.0 70.2 L 157.1 66.1 L 164.9 61.7 L 172.4 57.0 L 179.5 51.9 Z M 31.2 58.0 L 31.2 81.0 L 48.0 81.0 L 48.0 58.0 Z M 172.9028694152832 36.623278331756595 L 177.6 41.6 L 177.7 45.1 L 174.1315001487732 43.63436613082886 L 169.4 46.3 L 162.1 49.9 L 154.7 53.3 L 147.1 56.3 L 139.3 59.0 L 131.4 61.4 L 123.3 63.4 L 115.1 65.0 L 106.7 66.2 L 98.1 66.9 L 97.8 65.2 L 113.7 59.9 L 121.4 57.1 L 129.0 54.2 L 136.3 51.1 L 143.4 47.7 L 150.4 44.2 L 157.1 40.4 L 163.7 36.4 L 169.24597177505493 32.760455989837645 L 169.2 32.7 L 169.252818775177 32.7559627532959 L 170.1 32.2 Z M 31.2 30.0 L 31.2 54.0 L 48.0 54.0 L 48.0 30.0 Z M 164.4097493171692 17.318662929534913 L 169.3 22.5 L 169.4 25.9 L 165.8109892845154 24.451802730560303 L 161.7 26.7 L 155.2 29.9 L 148.5 32.8 L 141.6 35.5 L 134.7 37.8 L 127.5 39.9 L 120.3 41.7 L 112.8 43.2 L 105.2 44.2 L 97.5 44.8 L 97.2 43.1 L 104.4 40.5 L 111.5 38.0 L 118.4 35.4 L 125.1 32.8 L 131.6 29.9 L 138.0 26.9 L 144.2 23.7 L 150.2 20.4 L 156.0 16.8 L 161.7 13.0 Z " />
</g>
</svg>
