<svg xmlns="http://www.w3.org/2000/svg" xmlns:xlink="http://www.w3.org/1999/xlink" version="1.1" baseProfile="full" viewBox="0 0 200 200" width="200" height="200">
<g fill="black">
<path d="M 188.2 26.0 L 188.2 30.0 L 145.675 30.0 L 144.3 33.3 L 142.7 36.7 L 139.3 43.5 L 137.5 46.7 L 135.7 49.8 L 133.7 52.9 L 131.7 55.8 L 129.5 58.6 L 129.2 59.0 L 164.9 59.0 L 170.9 54.0 L 181.9 63.0 L 176.9 67.0 L 176.9 176.0 L 164.9 182.0 L 164.9 170.0 L 113.0 170.0 L 113.0 182.0 L 101.0 188.0 L 101.0 53.0 L 113.0 59.0 L 126.315625 59.0 L 126.9 57.3 L 128.5 50.5 L 130.3 43.7 L 131.1 40.3 L 132.0 36.8 L 133.5542857170105 30.0 L 89.7 30.0 L 89.7 26.0 L 166.2 26.0 L 176.2 16.0 Z M 73.0 180.6 L 71.3 182.3 L 69.4 183.9 L 67.4 185.2 L 65.2 186.3 L 63.0 187.2 L 60.6 187.7 L 58.1 188.1 L 55.7 188.2 L 55.7 182.2 L 39.7 179.2 L 39.7 176.2 L 55.7 176.2 L 57.1 176.1 L 58.3 176.0 L 59.4 175.7 L 60.5 175.3 L 62.3 174.3 L 63.1 173.6 L 63.9 172.7 L 64.7 171.7 L 65.4 170.5 L 67.1 167.3 L 68.6 163.4 L 69.9 158.8 L 71.1 153.7 L 72.0 148.0 L 72.7 141.6 L 73.1 134.7 L 73.4 127.2 L 73.4 120.21666669845581 L 73.2 120.3 L 73.2 112.3 L 31.2 112.3 L 19.2 118.3 L 19.2 21.5 L 31.2 27.5 L 64.4 27.5 L 74.4 17.5 L 86.4 27.5 L 86.4 31.5 L 60.0 31.5 L 60.0 55.1 L 63.5 55.1 L 73.5 45.1 L 85.5 55.1 L 85.5 59.1 L 60.0 59.1 L 60.0 81.7 L 63.5 81.7 L 73.5 71.7 L 85.5 81.7 L 85.5 85.7 L 60.0 85.7 L 60.0 108.3 L 73.2 108.3 L 79.2 103.3 L 90.2 112.3 L 85.27378854751586 115.25572690963745 L 85.4 119.0 L 85.4 127.4 L 85.1 135.3 L 84.6 142.7 L 83.9 149.6 L 82.8 155.9 L 81.5 161.8 L 80.0 167.2 L 78.1 172.1 L 75.8 176.5 L 74.5 178.6 Z M 13.1 173.5 L 11.4 169.3 L 13.1 165.0 L 14.5 163.8 L 15.9 162.0 L 17.3 159.6 L 18.7 156.5 L 19.8 152.7 L 20.8 148.4 L 21.7 143.4 L 22.4 137.9 L 23.0 131.8 L 23.4 125.2 L 25.2 125.0 L 26.4 131.7 L 27.4 137.9 L 27.9 143.7 L 28.1 149.0 L 28.0 154.0 L 27.5 158.6 L 26.7 162.8 L 25.5 166.7 L 23.8 170.3 L 21.6 173.5 L 17.4 175.2 Z M 113.0 115.0 L 113.0 166.0 L 164.9 166.0 L 164.9 115.0 Z M 37.3 166.5 L 33.4 164.0 L 32.3 159.6 L 33.0 157.2 L 33.6 154.7 L 34.0 152.0 L 34.2 149.1 L 34.4 146.0 L 34.3 142.8 L 34.2 139.4 L 33.9 135.9 L 33.6 132.1 L 32.7 128.3 L 34.4 127.7 L 36.2 131.3 L 38.0 134.7 L 39.6 138.1 L 40.9 141.6 L 42.0 145.0 L 42.9 148.3 L 43.5 151.7 L 44.0 155.0 L 44.2 158.2 L 44.2 161.5 L 41.7 165.3 Z M 47.2 147.1 L 47.1 144.6 L 46.9 142.0 L 46.5 139.4 L 45.3 134.0 L 44.5 131.1 L 43.5 128.2 L 42.1 125.4 L 43.6 124.4 L 45.7 126.8 L 48.0 129.1 L 50.0 131.5 L 51.9 134.1 L 53.5 136.7 L 55.0 139.5 L 56.3 142.3 L 57.3 145.2 L 58.2 148.2 L 58.9 151.3 L 57.3 155.6 L 53.2 157.6 L 48.9 156.0 L 46.9 152.0 L 47.1 149.5 Z M 58.7 136.2 L 58.3 134.2 L 57.7 132.1 L 57.0 130.0 L 56.1 127.9 L 55.1 125.8 L 52.5 121.4 L 50.6 119.5 L 51.7 118.1 L 54.0 119.6 L 56.5 120.8 L 58.9 122.3 L 61.1 124.0 L 63.1 125.9 L 65.0 127.9 L 66.7 130.1 L 68.2 132.4 L 69.6 134.9 L 70.8 137.5 L 70.0 142.0 L 66.4 144.7 L 61.9 144.0 L 59.1 140.3 L 59.0 138.3 Z M 113.0 63.0 L 113.0 111.0 L 164.9 111.0 L 164.9 63.0 Z M 31.2 85.7 L 31.2 108.3 L 48.0 108.3 L 48.0 85.7 Z M 31.2 59.1 L 31.2 81.7 L 48.0 81.7 L 48.0 59.1 Z M 31.2 31.5 L 31.2 55.1 L 48.0 55.1 L 48.0 31.5 Z " />
</g>
</svg>
