<svg xmlns="http://www.w3.org/2000/svg" xmlns:xlink="http://www.w3.org/1999/xlink" version="1.1" baseProfile="full" viewBox="0 0 200 200" width="200" height="200">
<g fill="black">
<path d="M 114.8 132.5 L 158.4 132.5 L 164.4 127.5 L 175.4 136.5 L 170.4 140.5 L 170.4 179.4 L 158.4 185.4 L 158.4 175.4 L 114.8 175.4 L 114.8 182.4 L 102.8 188.4 L 102.8 126.5 Z M 166.9 108.1 L 161.9 103.9 L 157.2 99.3 L 152.6 94.5 L 148.4 89.3 L 144.4 83.8 L 140.6 78.0 L 137.3 71.9 L 137.25322580337524 71.79354839324951 L 134.8 76.7 L 130.5 84.3 L 125.6 91.4 L 120.2 98.3 L 114.3 104.8 L 107.8 110.9 L 100.9 116.6 L 93.4 121.9 L 87.6 125.33703699111939 L 87.6 127.3 L 87.3 135.4 L 86.8 142.9 L 86.0 149.9 L 84.9 156.3 L 83.6 162.3 L 82.0 167.8 L 80.0 172.8 L 77.7 177.3 L 76.3 179.4 L 74.8 181.4 L 73.1 183.1 L 71.3 184.7 L 69.2 186.0 L 67.1 187.1 L 64.8 187.9 L 62.4 188.5 L 60.0 188.8 L 57.5 189.0 L 57.5 183.0 L 41.5 180.0 L 41.5 177.0 L 57.5 177.0 L 58.9 176.9 L 60.1 176.7 L 61.3 176.4 L 62.3 176.1 L 63.2 175.6 L 64.1 175.0 L 65.0 174.3 L 65.8 173.5 L 66.6 172.5 L 67.3 171.3 L 69.0 167.9 L 70.6 163.9 L 72.0 159.3 L 73.2 154.1 L 74.1 148.2 L 74.8 141.8 L 75.3 134.8 L 75.6 127.1 L 75.6 119.91666669845581 L 75.4 120.0 L 75.4 112.0 L 31.9 112.0 L 19.9 118.0 L 19.9 20.0 L 31.9 26.0 L 66.8 26.0 L 76.8 16.0 L 88.8 26.0 L 88.8 30.0 L 61.5 30.0 L 61.5 54.0 L 65.8 54.0 L 75.8 44.0 L 87.8 54.0 L 87.8 58.0 L 61.5 58.0 L 61.5 81.0 L 65.8 81.0 L 75.8 71.0 L 87.8 81.0 L 87.8 85.0 L 61.5 85.0 L 61.5 108.0 L 75.4 108.0 L 81.4 103.0 L 92.4 112.0 L 87.47327585220337 114.95603446960449 L 87.6 118.8 L 87.6 122.05 L 91.0 118.9 L 97.3 112.6 L 103.2 106.3 L 108.6 99.8 L 113.5 93.1 L 117.9 86.3 L 121.8 79.3 L 125.2 72.1 L 128.1 64.6 L 130.6 57.0 L 130.61807231903077 57.006024074554446 L 131.1 55.5 L 142.0 60.8 L 144.2 63.6 L 140.51704874038697 64.43997135162354 L 139.15290603637695 67.78832159042358 L 140.7 69.5 L 145.4 74.5 L 149.9 79.2 L 154.5 83.7 L 159.2 87.8 L 164.0 91.7 L 168.8 95.3 L 173.8 98.5 L 178.8 101.5 L 184.0 104.2 L 188.7 106.8 L 177.5 115.7 L 172.1 112.1 Z M 13.6 174.1 L 11.9 169.8 L 13.6 165.6 L 15.0 164.4 L 16.5 162.5 L 17.9 160.0 L 19.3 156.8 L 20.5 153.0 L 21.5 148.6 L 22.3 143.6 L 23.0 138.0 L 23.7 131.8 L 24.1 125.0 L 25.9 124.9 L 27.2 131.6 L 28.1 137.9 L 28.6 143.8 L 28.8 149.3 L 28.6 154.3 L 28.1 159.0 L 27.3 163.3 L 26.0 167.2 L 24.3 170.8 L 22.0 174.1 L 17.8 175.8 Z M 114.8 136.5 L 114.8 171.4 L 158.4 171.4 L 158.4 136.5 Z M 38.3 166.9 L 34.5 164.5 L 33.4 160.0 L 34.1 157.6 L 34.6 155.0 L 35.0 152.3 L 35.3 149.3 L 35.4 146.2 L 35.4 143.0 L 35.2 139.5 L 34.9 135.9 L 34.5 132.1 L 33.7 128.2 L 35.4 127.6 L 37.2 131.2 L 39.1 134.7 L 40.6 138.2 L 42.0 141.7 L 43.1 145.1 L 43.9 148.6 L 44.6 152.0 L 45.0 155.3 L 45.2 158.7 L 45.2 162.0 L 42.8 165.8 Z M 48.6 147.3 L 48.5 144.8 L 48.3 142.2 L 47.9 139.5 L 47.3 136.8 L 46.6 134.0 L 45.7 131.1 L 44.8 128.1 L 43.3 125.3 L 44.7 124.2 L 46.9 126.7 L 49.3 129.0 L 51.4 131.5 L 53.2 134.1 L 54.9 136.8 L 56.4 139.6 L 57.7 142.5 L 58.8 145.5 L 59.7 148.5 L 60.4 151.6 L 58.8 155.9 L 54.7 157.9 L 50.4 156.4 L 48.4 152.3 L 48.6 149.8 Z M 60.5 136.3 L 60.0 134.2 L 59.4 132.1 L 58.7 130.0 L 57.7 127.8 L 56.6 125.7 L 55.4 123.5 L 53.9 121.2 L 52.0 119.3 L 53.1 117.8 L 55.5 119.4 L 58.1 120.7 L 60.4 122.2 L 62.7 123.9 L 64.7 125.8 L 66.7 127.8 L 68.4 130.0 L 70.0 132.4 L 71.4 134.9 L 72.6 137.6 L 71.8 142.1 L 68.2 144.9 L 63.7 144.1 L 60.9 140.5 L 60.8 138.4 Z M 161.6 110.0 L 161.6 114.0 L 113.6 114.0 L 113.6 110.0 L 143.4181818008423 110.0 L 151.6 101.0 Z M 31.9 85.0 L 31.9 108.0 L 49.5 108.0 L 49.5 85.0 Z M 31.9 58.0 L 31.9 81.0 L 49.5 81.0 L 49.5 58.0 Z M 159.9 15.0 L 162.9 17.0 L 159.9 18.8 L 159.9 36.0 L 164.5 36.0 L 174.5 26.0 L 186.5 36.0 L 186.5 40.0 L 159.9 40.0 L 159.9 59.0 L 147.9 65.0 L 147.9 40.0 L 122.4 40.0 L 122.4 59.0 L 110.4 65.0 L 110.4 40.0 L 90.5 40.0 L 90.5 36.0 L 110.4 36.0 L 110.4 13.0 L 122.4 15.0 L 125.4 17.0 L 122.4 18.8 L 122.4 36.0 L 147.9 36.0 L 147.9 13.0 Z M 31.9 30.0 L 31.9 54.0 L 49.5 54.0 L 49.5 30.0 Z " />
</g>
</svg>
