<svg xmlns="http://www.w3.org/2000/svg" xmlns:xlink="http://www.w3.org/1999/xlink" version="1.1" baseProfile="full" viewBox="0 0 200 200" width="200" height="200">
<g fill="black">
<path d="M 162.2 183.3 L 154.4 180.5 L 147.2 177.1 L 140.83486061096193 173.3387812614441 L 133.7 177.2 L 124.6 181.0 L 114.7 184.2 L 104.2 186.6 L 93.0 188.1 L 81.1 188.8 L 80.8 187.1 L 92.3 184.4 L 102.9 181.3 L 112.7 177.9 L 121.6 174.1 L 129.7 169.7 L 133.13234767913818 167.44311389923095 L 129.3 163.9 L 124.7 158.5 L 120.9 152.7 L 119.80814065933228 150.20432157516478 L 117.7 151.9 L 112.9 155.3 L 107.8 158.4 L 102.4 161.3 L 96.7 163.7 L 90.7 165.8 L 89.9 164.1 L 94.8 160.4 L 99.6 156.7 L 104.0 153.0 L 108.2 149.3 L 112.2 145.5 L 115.8 141.6 L 119.2 137.6 L 122.3 133.4 L 124.51395349502563 130.0 L 117.6 130.0 L 105.6 136.0 L 105.6 75.0 L 99.6 78.0 L 99.6 53.58400001525879 L 96.2 56.1 L 90.9 59.6 L 90.2 58.84166669845581 L 90.2 59.1 L 63.0 59.1 L 63.0 81.7 L 68.2 81.7 L 78.2 71.7 L 90.2 81.7 L 90.2 85.7 L 63.0 85.7 L 63.0 108.3 L 77.6 108.3 L 83.6 103.3 L 94.6 112.3 L 89.6751633644104 115.25490198135375 L 89.8 119.0 L 89.8 127.4 L 89.5 135.3 L 89.0 142.7 L 88.2 149.6 L 87.1 156.0 L 85.7 161.9 L 84.0 167.4 L 82.0 172.3 L 79.6 176.8 L 78.2 178.8 L 76.7 180.7 L 75.0 182.5 L 73.1 184.0 L 71.0 185.3 L 68.9 186.4 L 66.6 187.2 L 64.2 187.8 L 61.8 188.1 L 59.3 188.2 L 59.3 182.2 L 43.3 179.2 L 43.3 176.2 L 59.3 176.2 L 60.7 176.1 L 62.0 176.0 L 63.1 175.7 L 64.2 175.3 L 65.2 174.8 L 66.1 174.3 L 66.9 173.6 L 67.8 172.7 L 68.6 171.7 L 69.4 170.5 L 71.1 167.2 L 72.7 163.3 L 74.1 158.8 L 75.3 153.7 L 76.3 147.9 L 77.0 141.6 L 77.5 134.7 L 77.8 127.2 L 77.8 120.21666669845581 L 77.6 120.3 L 77.6 112.3 L 32.6 112.3 L 20.6 118.3 L 20.6 21.5 L 32.6 27.5 L 69.2 27.5 L 79.2 17.5 L 91.2 27.5 L 91.2 31.5 L 63.0 31.5 L 63.0 55.1 L 68.2 55.1 L 78.2 45.1 L 90.2 55.1 L 90.2 57.67179489135742 L 93.6 53.4 L 97.4 48.6 L 99.6 45.708571434020996 L 99.6 41.0 L 102.16097564697266 42.280487823486325 L 104.2 39.5 L 107.3 35.1 L 110.0 30.7 L 112.5 26.3 L 114.8 22.0 L 116.7 17.7 L 118.0388032913208 14.313615226745606 L 118.0 14.3 L 118.26027393341064 13.753424644470215 L 118.4 13.4 L 118.42357139587402 13.410499954223633 L 119.0 12.2 L 129.4 18.3 L 131.3 21.3 L 127.48346843719483 21.826418113708495 L 126.9 22.9 L 124.29090909957885 27.0 L 147.2 27.0 L 147.81875 26.484375 L 147.9 26.2 L 148.06023254394532 26.283139514923096 L 153.2 22.0 L 164.2 31.0 L 159.2 34.0 L 155.44055948257446 35.56643352508545 L 153.8 37.4 L 152.1 39.2 L 150.3 41.0 L 148.4 42.8 L 146.4 44.5 L 144.4 46.1 L 143.1625 47.0 L 171.9 47.0 L 177.9 42.0 L 188.9 51.0 L 183.9 55.0 L 183.9 75.0 L 176.91379308700562 78.49310340881348 L 181.2 82.0 L 176.2 86.0 L 176.2 130.0 L 164.2 136.0 L 164.2 130.0 L 138.7161290168762 130.0 L 137.9 131.1 L 134.4 135.8 L 130.6 140.2 L 128.84390239715577 142.0 L 167.3181818008423 142.0 L 175.5 133.0 L 185.5 142.0 L 185.5 146.0 L 169.3 146.0 L 168.6 147.0 L 163.1 154.5 L 156.9 161.3 L 150.0444444656372 167.17619047164916 L 151.5 167.8 L 158.2 170.1 L 165.4 171.9 L 173.1 173.4 L 181.3 174.4 L 191.4 175.8 L 179.5 187.5 L 170.6 185.7 Z M 13.9 173.4 L 12.3 169.2 L 14.1 165.0 L 15.6 163.8 L 17.1 162.0 L 18.6 159.5 L 19.9 156.4 L 21.1 152.7 L 22.2 148.3 L 23.1 143.4 L 23.8 137.9 L 24.4 131.8 L 24.8 125.2 L 26.6 125.0 L 27.8 131.7 L 28.8 137.9 L 29.3 143.7 L 29.5 149.1 L 29.3 154.1 L 28.8 158.7 L 27.9 162.9 L 26.5 166.9 L 24.8 170.4 L 22.4 173.6 L 18.1 175.2 Z M 124.72564105987549 146.0 L 122.34365482330323 148.1604061126709 L 124.3 150.2 L 129.0 154.5 L 134.1 158.5 L 139.4 162.0 L 140.09864416122437 162.37341327667235 L 143.5 159.6 L 149.2 153.8 L 154.1 147.6 L 155.0777777671814 146.0 Z M 39.3 166.4 L 35.5 164.0 L 34.4 159.5 L 35.1 157.2 L 35.7 154.7 L 36.1 152.0 L 36.4 149.1 L 36.5 146.1 L 36.4 142.9 L 36.2 139.5 L 35.9 135.9 L 35.5 132.1 L 34.6 128.3 L 36.3 127.7 L 38.1 131.2 L 40.0 134.7 L 41.6 138.1 L 43.0 141.5 L 44.1 144.9 L 45.0 148.3 L 45.7 151.6 L 46.1 155.0 L 46.3 158.3 L 46.3 161.5 L 43.8 165.4 Z M 50.1 147.1 L 50.0 144.6 L 49.7 142.1 L 49.3 139.5 L 48.7 136.8 L 47.9 134.0 L 47.0 131.2 L 46.0 128.2 L 44.5 125.4 L 45.9 124.3 L 48.1 126.8 L 50.5 129.0 L 52.7 131.5 L 54.6 134.0 L 56.3 136.7 L 57.8 139.4 L 59.1 142.3 L 60.2 145.2 L 61.1 148.2 L 61.8 151.3 L 60.3 155.6 L 56.2 157.6 L 51.9 156.1 L 49.8 152.0 L 50.0 149.6 Z M 62.3 136.3 L 61.8 134.3 L 61.2 132.2 L 60.4 130.1 L 59.4 128.0 L 58.3 125.8 L 56.9 123.7 L 55.4 121.4 L 53.4 119.5 L 54.5 118.0 L 56.9 119.5 L 59.5 120.8 L 62.0 122.3 L 64.3 123.9 L 66.4 125.8 L 68.3 127.8 L 70.1 130.0 L 71.7 132.3 L 73.1 134.8 L 74.4 137.4 L 73.7 141.9 L 70.0 144.7 L 65.5 144.0 L 62.7 140.4 L 62.6 138.4 Z M 117.6 113.0 L 117.6 126.0 L 164.2 126.0 L 164.2 113.0 Z M 117.6 98.0 L 117.6 109.0 L 164.2 109.0 L 164.2 98.0 Z M 32.6 85.7 L 32.6 108.3 L 51.0 108.3 L 51.0 85.7 Z M 117.6 82.0 L 117.6 94.0 L 164.2 94.0 L 164.2 82.0 Z M 32.6 59.1 L 32.6 81.7 L 51.0 81.7 L 51.0 59.1 Z M 152.6 70.9 L 151.8 69.7 L 150.8 68.4 L 149.6 67.1 L 148.3 65.7 L 146.8 64.3 L 145.1 62.8 L 143.3 61.2 L 141.83015184402467 60.531887245178225 L 141.7 60.7 L 139.0 63.6 L 136.0 66.2 L 132.8 68.6 L 129.2 70.7 L 125.4 72.6 L 121.3 74.2 L 117.0 75.8 L 116.3 74.1 L 119.9 71.6 L 123.0 68.8 L 125.8 66.1 L 128.3 63.4 L 130.4 60.7 L 132.2 58.0 L 133.7 55.3 L 134.9 52.6 L 135.4333333015442 51.0 L 111.6 51.0 L 111.6 72.0 L 108.6 73.5 L 117.6 78.0 L 164.2 78.0 L 170.2 73.0 L 171.9 74.39090909957886 L 171.9 51.0 L 147.79714288711548 51.0 L 146.1 54.3 L 144.1 57.6 L 143.05384616851808 58.951282024383545 L 144.1 59.3 L 146.6 59.5 L 148.9 59.9 L 151.1 60.4 L 153.2 60.9 L 155.2 61.5 L 157.1 62.1 L 158.9 62.9 L 160.6 63.7 L 162.2 64.6 L 163.8 68.9 L 162.1 73.1 L 157.8 74.7 L 153.6 73.0 L 153.2 72.0 Z M 32.6 31.5 L 32.6 55.1 L 51.0 55.1 L 51.0 31.5 Z M 121.49318180084228 31.0 L 121.0 31.7 L 117.6 36.1 L 113.9 40.3 L 110.0 44.4 L 108.76160001754761 45.58079996109009 L 111.6 47.0 L 139.8545454978943 47.0 L 140.4 46.2 L 141.3 43.8 L 142.3 41.4 L 143.3 39.1 L 145.1 34.7 L 145.9 32.5 L 146.4 31.0 Z " />
</g>
</svg>
