<svg xmlns="http://www.w3.org/2000/svg" xmlns:xlink="http://www.w3.org/1999/xlink" version="1.1" baseProfile="full" viewBox="0 0 200 200" width="200" height="200">
<g fill="black">
<path d="M 177.7 179.5 L 176.4 181.6 L 174.8 183.5 L 173.0 185.2 L 170.9 186.6 L 168.6 187.6 L 166.2 188.3 L 163.7 188.7 L 161.2 188.9 L 161.2 182.9 L 147.2 179.9 L 147.2 176.9 L 161.2 176.9 L 162.5 176.8 L 163.5 176.6 L 164.4 176.4 L 165.1 176.1 L 165.7 175.7 L 166.2 175.2 L 166.7 174.6 L 167.1 173.9 L 167.6 172.9 L 168.0 171.6 L 168.9 167.2 L 169.7 160.7 L 170.4 152.2 L 171.0 141.8 L 171.19899835586548 135.68080129623414 L 166.3 139.6 L 166.3 160.7 L 154.3 166.7 L 154.3 158.7 L 140.6 158.7 L 140.6 161.7 L 128.6 167.7 L 128.6 125.6 L 140.6 131.6 L 154.3 131.6 L 160.3 126.6 L 171.20417566299437 135.52159824371338 L 171.4 129.5 L 171.7 115.4 L 171.8 99.4 L 171.8 81.5 L 171.7675127029419 78.3 L 125.8625 78.3 L 123.8 82.7 L 120.77959861755372 88.19163875579834 L 122.9 90.1 L 117.9 93.1 L 117.9 128.8 L 107.9 133.8 L 107.9 124.8 L 101.3 124.8 L 101.3 148.7 L 106.77777776718139 148.7 L 113.0 141.7 L 121.0 148.7 L 121.0 152.7 L 101.3 152.7 L 101.3 183.9 L 93.3 187.9 L 93.3 152.7 L 73.1 152.7 L 73.1 148.7 L 93.3 148.7 L 93.3 124.8 L 86.2 124.8 L 86.2 131.8 L 76.2 136.8 L 76.2 81.1 L 86.2 86.1 L 93.3 86.1 L 93.3 63.3 L 91.9 63.3 L 91.9 70.3 L 80.9 75.8 L 80.9 39.1 L 73.7 39.1 L 73.7 35.1 L 80.9 35.1 L 80.9 12.0 L 91.9 14.0 L 94.6 16.0 L 91.9 17.723404216766358 L 91.9 35.1 L 102.2 35.1 L 102.2 12.0 L 113.2 14.0 L 116.0 16.0 L 113.2 17.75 L 113.2 31.5 L 115.0 29.1 L 121.0 35.1 L 121.0 39.1 L 113.2 39.1 L 113.2 67.3 L 102.2 72.8 L 102.2 63.3 L 101.3 63.3 L 101.3 86.1 L 107.9 86.1 L 112.9 81.1 L 119.1814070701599 86.75326633453369 L 120.3 81.4 L 121.7 74.6 L 123.2 67.7 L 124.6 60.6 L 125.9 53.3 L 127.0 45.8 L 128.1 38.0 L 129.1 30.0 L 129.9 21.8 L 130.51642608642578 14.402886581420898 L 130.4 14.4 L 130.8 11.3 L 142.5 14.7 L 145.3 17.0 L 141.92103157043456 18.530098915100098 L 141.2 23.3 L 139.7 31.6 L 138.31481485366822 38.2 L 171.3 38.2 L 177.3 33.2 L 188.3 42.2 L 183.37129802703856 45.15722122192383 L 183.6 61.7 L 183.8 81.5 L 183.8 99.4 L 183.7 115.6 L 183.4 129.9 L 183.0 142.3 L 182.4 153.0 L 181.6 161.9 L 180.7 169.1 L 179.6 174.8 L 178.8 177.2 Z M 61.3 180.5 L 59.7 182.4 L 58.0 184.2 L 56.0 185.7 L 53.9 186.9 L 51.6 187.8 L 49.2 188.5 L 46.7 188.8 L 44.2 189.0 L 44.2 183.0 L 30.2 180.0 L 30.2 177.0 L 44.2 177.0 L 45.6 176.9 L 46.8 176.7 L 47.8 176.4 L 48.6 176.1 L 49.4 175.6 L 50.1 175.1 L 50.8 174.4 L 51.4 173.6 L 52.0 172.6 L 52.6 171.4 L 53.9 168.1 L 55.0 164.1 L 56.0 159.4 L 56.8 154.2 L 57.5 148.3 L 57.92631120681763 142.84321632385254 L 54.8 144.9 L 50.3 143.9 L 47.8 140.1 L 47.8 137.9 L 47.7 135.8 L 47.5 133.7 L 47.2 131.6 L 46.8 129.5 L 46.3 127.5 L 45.7 125.4 L 44.9 123.3 L 44.1 121.1 L 42.8 119.3 L 44.1 118.0 L 45.9 119.6 L 47.9 121.0 L 49.9 122.6 L 51.6 124.3 L 53.3 126.2 L 54.8 128.3 L 56.2 130.5 L 57.5 132.9 L 58.39680728912354 134.8566704750061 L 58.4 134.8 L 58.5 127.2 L 58.5 119.95833330154419 L 58.4 120.0 L 58.4 112.0 L 29.4 112.0 L 18.4 117.5 L 18.4 20.5 L 29.4 26.0 L 51.61818180084229 26.0 L 59.8 17.0 L 69.8 26.0 L 69.8 30.0 L 51.0 30.0 L 51.0 54.0 L 54.8777777671814 54.0 L 61.1 47.0 L 69.1 54.0 L 69.1 58.0 L 51.0 58.0 L 51.0 81.0 L 54.8777777671814 81.0 L 61.1 74.0 L 69.1 81.0 L 69.1 85.0 L 51.0 85.0 L 51.0 108.0 L 58.4 108.0 L 64.4 103.0 L 75.4 112.0 L 70.41535091400146 114.99078950881957 L 70.5 118.8 L 70.5 127.3 L 70.4 135.2 L 70.0 142.6 L 69.4 149.5 L 68.7 155.8 L 67.8 161.6 L 66.6 166.9 L 65.3 171.8 L 63.7 176.1 L 62.6 178.4 Z M 14.7 174.4 L 12.3 170.4 L 13.4 166.0 L 14.4 164.8 L 15.6 162.9 L 16.8 160.3 L 17.9 157.0 L 18.9 153.1 L 19.7 148.6 L 20.5 143.6 L 21.1 137.9 L 21.8 131.8 L 22.3 125.0 L 24.1 124.9 L 25.3 131.6 L 26.2 137.9 L 26.7 143.7 L 27.0 149.1 L 27.1 154.1 L 26.8 158.6 L 26.4 162.7 L 25.6 166.5 L 24.6 169.9 L 23.0 173.1 L 19.1 175.4 Z M 32.9 166.9 L 29.0 164.6 L 27.7 160.3 L 28.3 157.7 L 28.8 155.1 L 29.3 152.2 L 29.6 149.2 L 29.8 146.1 L 29.9 142.8 L 29.9 135.8 L 29.8 132.0 L 29.3 128.2 L 31.1 127.7 L 32.5 131.3 L 34.1 134.9 L 35.4 138.4 L 36.5 141.9 L 37.5 145.3 L 38.2 148.7 L 38.740540504455566 151.6729729652405 L 38.9 149.6 L 39.1 147.1 L 39.1 144.5 L 39.0 141.8 L 38.9 139.2 L 38.6 136.5 L 37.8 130.9 L 37.3 128.0 L 36.3 125.3 L 37.9 124.4 L 39.6 126.9 L 41.5 129.3 L 43.2 131.8 L 44.8 134.5 L 46.1 137.2 L 47.3 139.9 L 48.4 142.8 L 49.3 145.7 L 50.7 151.7 L 49.0 156.0 L 44.9 157.9 L 40.6 156.3 L 38.89360189437866 152.6177724838257 L 39.3 155.3 L 39.5 158.5 L 39.6 161.7 L 37.3 165.6 Z M 140.6 135.6 L 140.6 154.7 L 154.3 154.7 L 154.3 135.6 Z M 86.2 90.1 L 86.2 120.8 L 93.3 120.8 L 93.3 90.1 Z M 101.3 90.1 L 101.3 120.8 L 107.9 120.8 L 107.9 90.1 Z M 164.4 112.5 L 164.4 116.5 L 131.2 116.5 L 131.2 112.5 L 150.1777777671814 112.5 L 156.4 105.5 Z M 29.4 85.0 L 29.4 108.0 L 40.0 108.0 L 40.0 85.0 Z M 164.4 94.4 L 164.4 98.4 L 131.2 98.4 L 131.2 94.4 L 150.1777777671814 94.4 L 156.4 87.4 Z M 29.4 58.0 L 29.4 81.0 L 40.0 81.0 L 40.0 58.0 Z M 137.43037977218628 42.2 L 136.2 47.6 L 134.1 55.2 L 131.9 62.5 L 129.5 69.5 L 127.59411764144897 74.3 L 154.3181818008423 74.3 L 162.5 65.3 L 171.71977462768555 73.59779710769654 L 171.6 61.8 L 171.43734102249147 50.14277458190918 L 171.3 50.2 L 171.3 42.2 Z M 163.7 58.3 L 163.7 62.3 L 133.2 62.3 L 133.2 58.3 L 149.4777777671814 58.3 L 155.7 51.3 Z M 91.9 39.1 L 91.9 59.3 L 102.2 59.3 L 102.2 39.1 Z M 29.4 30.0 L 29.4 54.0 L 40.0 54.0 L 40.0 30.0 Z " />
</g>
</svg>
