<svg xmlns="http://www.w3.org/2000/svg" xmlns:xlink="http://www.w3.org/1999/xlink" version="1.1" baseProfile="full" viewBox="0 0 200 200" width="200" height="200">
<g fill="black">
<path d="M 167.25 52.95 L 167.0 56.9 L 166.0 64.4 L 164.5 71.6 L 162.9348090171814 77.11935768127441 L 165.5 78.8 L 168.2 80.9 L 170.8 83.2 L 173.2 85.6 L 175.5 88.2 L 177.6 90.9 L 179.6 93.8 L 181.4 96.8 L 183.0 99.9 L 182.8 104.5 L 179.5 107.6 L 174.9 107.4 L 171.8 104.1 L 171.1 101.2 L 170.2 98.3 L 169.2 95.5 L 168.1 92.7 L 166.9 90.0 L 165.5 87.2 L 164.0 84.4 L 162.4 81.7 L 161.7361629486084 80.5675721168518 L 160.2 84.6 L 157.3 90.4 L 154.0 95.8 L 150.2 100.7 L 145.8 104.9 L 141.0 108.5 L 141.0 181.0 L 168.0 181.0 L 178.0 171.0 L 190.0 181.0 L 190.0 185.0 L 86.0 185.0 L 86.0 181.0 L 129.0 181.0 L 129.0 105.32058820724487 L 126.5 107.6 L 122.0 107.4 L 118.8 104.0 L 118.2 101.1 L 117.4 98.3 L 116.4 95.5 L 115.3 92.7 L 114.1 89.9 L 112.8 87.2 L 111.4 84.4 L 109.8 81.6 L 109.21218662261963 80.63183670043945 L 107.8 84.5 L 105.0 90.4 L 101.7 95.8 L 98.0 100.6 L 93.7 104.9 L 88.9 108.5 L 87.7 107.2 L 90.8 102.4 L 93.5 97.6 L 96.0 92.5 L 98.1 87.3 L 99.8 81.7 L 101.2 75.9 L 102.2 69.7 L 102.8 63.2 L 103.1 56.3 L 103.0136830329895 49.9988597869873 L 103.0 50.0 L 103.0 46.6 L 115.0 49.0 L 118.0 51.0 L 114.69761276245117 52.981432342529295 L 114.4 56.9 L 113.5 64.4 L 112.0 71.5 L 110.39522571563721 77.1589409828186 L 112.9 78.8 L 115.6 80.9 L 118.1 83.2 L 120.5 85.6 L 122.7 88.2 L 124.8 91.0 L 126.7 93.8 L 128.5 96.8 L 129.0 97.8 L 129.0 39.9 L 126.8 40.4 L 117.8 42.1 L 108.7 43.7 L 99.5 44.9 L 90.1 45.8 L 89.8 44.1 L 98.7 41.2 L 107.5 38.5 L 116.2 35.8 L 124.8 33.0 L 133.3 30.2 L 141.7 27.3 L 149.9 24.3 L 158.0 21.2 L 166.0 18.0 L 173.8 14.7 L 174.50852422714235 16.503516292572023 L 183.1 24.0 L 183.3 27.1 L 179.38674793243408 25.439832401275634 L 178.2 25.9 L 169.9 28.7 L 161.5 31.4 L 153.0 33.9 L 144.4 36.2 L 141.05454549789428 37.03636360168457 L 144.0 39.0 L 141.0 40.8 L 141.0 105.34193544387817 L 142.9 102.4 L 145.8 97.5 L 148.3 92.5 L 150.4 87.2 L 152.2 81.7 L 153.6 75.8 L 154.7 69.7 L 155.3 63.2 L 155.6 56.3 L 155.5136830329895 49.9988597869873 L 155.5 50.0 L 155.5 46.6 L 167.5 49.0 L 170.5 51.0 Z M 71.1 180.5 L 69.5 182.3 L 67.6 183.8 L 65.6 185.2 L 63.4 186.3 L 61.1 187.2 L 58.8 187.7 L 56.3 188.1 L 53.8 188.2 L 53.8 182.2 L 37.8 179.2 L 37.8 176.2 L 53.8 176.2 L 55.2 176.1 L 56.5 176.0 L 57.6 175.7 L 58.6 175.3 L 60.4 174.3 L 61.2 173.6 L 62.0 172.7 L 62.7 171.7 L 63.5 170.5 L 65.1 167.3 L 66.5 163.4 L 67.8 158.8 L 68.9 153.7 L 69.8 148.0 L 70.5 141.6 L 70.9 134.7 L 71.2 127.2 L 71.2 120.21666669845581 L 71.0 120.3 L 71.0 112.3 L 30.5 112.3 L 18.5 118.3 L 18.5 21.5 L 30.5 27.5 L 62.0 27.5 L 72.0 17.5 L 84.0 27.5 L 84.0 31.5 L 58.5 31.5 L 58.5 55.1 L 61.1 55.1 L 71.1 45.1 L 83.1 55.1 L 83.1 59.1 L 58.5 59.1 L 58.5 81.7 L 61.1 81.7 L 71.1 71.7 L 83.1 81.7 L 83.1 85.7 L 58.5 85.7 L 58.5 108.3 L 71.0 108.3 L 77.0 103.3 L 88.0 112.3 L 83.07378854751587 115.25572690963745 L 83.2 119.0 L 83.2 127.4 L 82.9 135.3 L 82.4 142.7 L 81.7 149.5 L 80.7 155.9 L 79.5 161.7 L 77.9 167.1 L 76.1 172.0 L 73.9 176.4 L 72.6 178.5 Z M 12.7 173.5 L 11.0 169.3 L 12.6 165.0 L 13.9 163.9 L 15.3 162.1 L 16.7 159.6 L 18.0 156.5 L 19.2 152.7 L 20.2 148.4 L 21.0 143.4 L 21.7 137.9 L 22.3 131.8 L 22.8 125.2 L 24.5 125.0 L 25.8 131.7 L 26.7 137.9 L 27.2 143.6 L 27.4 149.0 L 27.3 154.0 L 26.9 158.5 L 26.1 162.8 L 25.0 166.6 L 23.4 170.2 L 21.2 173.4 L 17.0 175.1 Z M 170.34666662216188 112.95200004577637 L 170.1 116.8 L 169.0 124.2 L 167.5 131.3 L 165.87648515701295 136.40247526168824 L 168.8 138.1 L 171.7 140.2 L 174.4 142.4 L 177.0 144.8 L 179.5 147.3 L 181.7 150.0 L 183.8 152.8 L 185.8 155.8 L 187.5 158.9 L 187.5 163.4 L 184.2 166.7 L 179.7 166.6 L 176.4 163.4 L 175.6 160.6 L 174.7 157.8 L 173.6 155.0 L 172.3 152.2 L 170.9 149.5 L 169.3 146.7 L 167.6 144.0 L 165.8 141.2 L 164.67601623535157 139.62642278671265 L 162.8 144.1 L 159.7 149.9 L 156.1 155.2 L 152.0 159.9 L 147.3 164.1 L 142.2 167.6 L 141.0 166.2 L 144.6 161.5 L 147.8 156.6 L 150.6 151.6 L 153.0 146.4 L 154.9 141.0 L 156.5 135.2 L 157.6 129.2 L 158.4 122.8 L 158.7 116.1 L 158.61406803131104 109.99882764816284 L 158.6 110.0 L 158.6 106.6 L 170.6 109.0 L 173.6 111.0 Z M 112.74666662216187 112.95200004577637 L 112.5 116.8 L 111.5 124.2 L 110.0 131.2 L 108.39745759963989 136.48838987350464 L 111.1 138.2 L 113.8 140.3 L 116.4 142.5 L 118.9 144.9 L 121.2 147.4 L 123.4 150.1 L 125.4 152.9 L 127.2 155.9 L 128.9 159.0 L 128.7 163.5 L 125.4 166.7 L 120.9 166.5 L 117.7 163.2 L 116.1 157.6 L 115.1 154.9 L 113.9 152.1 L 112.7 149.4 L 111.2 146.6 L 109.7 143.9 L 108.0 141.2 L 107.1894040107727 139.89403972625732 L 105.6 144.0 L 102.7 149.8 L 99.3 155.1 L 95.4 159.9 L 90.9 164.1 L 86.0 167.6 L 84.8 166.3 L 88.1 161.5 L 91.0 156.7 L 93.6 151.7 L 95.8 146.5 L 97.6 141.1 L 99.1 135.3 L 100.2 129.3 L 100.8 122.8 L 101.1 116.1 L 101.01406803131104 109.99882764816284 L 101.0 110.0 L 101.0 106.6 L 113.0 109.0 L 116.0 111.0 Z M 36.2 166.5 L 32.4 164.0 L 31.2 159.6 L 31.9 157.2 L 32.5 154.7 L 32.9 152.0 L 33.2 149.1 L 33.3 146.0 L 33.3 142.8 L 33.2 139.4 L 32.9 135.9 L 32.6 132.1 L 31.8 128.3 L 33.5 127.7 L 35.2 131.3 L 37.0 134.7 L 38.6 138.2 L 39.9 141.6 L 40.9 145.0 L 41.8 148.3 L 42.4 151.7 L 42.9 155.0 L 43.1 158.2 L 43.1 161.5 L 40.7 165.3 Z M 45.7 147.1 L 45.6 144.5 L 45.4 142.0 L 45.1 139.4 L 44.6 136.7 L 43.2 131.1 L 42.3 128.2 L 40.9 125.4 L 42.4 124.4 L 44.5 126.8 L 46.7 129.1 L 48.7 131.6 L 50.5 134.1 L 52.2 136.8 L 53.6 139.5 L 54.8 142.4 L 55.9 145.3 L 56.7 148.3 L 57.4 151.3 L 55.8 155.6 L 51.7 157.6 L 47.4 156.0 L 45.4 151.9 L 45.6 149.5 Z M 56.9 136.2 L 56.5 134.1 L 56.0 132.1 L 55.3 130.0 L 54.5 127.9 L 53.5 125.8 L 52.3 123.6 L 51.0 121.4 L 49.2 119.5 L 50.3 118.1 L 52.6 119.6 L 55.0 120.9 L 57.3 122.4 L 59.4 124.1 L 61.4 125.9 L 63.3 127.9 L 65.0 130.1 L 66.5 132.4 L 67.8 134.9 L 69.0 137.5 L 68.2 142.0 L 64.5 144.7 L 60.0 144.0 L 57.3 140.3 L 57.2 138.2 Z M 30.5 85.7 L 30.5 108.3 L 46.5 108.3 L 46.5 85.7 Z M 30.5 59.1 L 30.5 81.7 L 46.5 81.7 L 46.5 59.1 Z M 30.5 31.5 L 30.5 55.1 L 46.5 55.1 L 46.5 31.5 Z " />
</g>
</svg>
