<svg xmlns="http://www.w3.org/2000/svg" xmlns:xlink="http://www.w3.org/1999/xlink" version="1.1" baseProfile="full" viewBox="0 0 200 200" width="200" height="200">
<g fill="black">
<path d="M 50.9 175.7 L 60.9 175.7 L 62.1 175.6 L 63.0 175.4 L 63.6 175.2 L 64.0 175.1 L 64.1 174.9 L 64.3 174.7 L 64.5 174.4 L 64.7 173.8 L 64.8 172.9 L 64.9 171.7 L 64.9 152.0 L 36.5 152.0 L 36.5 182.5 L 24.5 188.5 L 24.5 92.1 L 36.5 98.1 L 64.9 98.1 L 70.9 93.1 L 75.05890407562256 96.50273971557617 L 75.7 94.9 L 76.1 92.2 L 76.6 89.7 L 77.0 87.3 L 77.8 82.9 L 78.1 80.9 L 78.2 80.0 L 78.2 79.7 L 23.18378381729126 79.7 L 23.4 81.3 L 23.6 84.7 L 23.7 87.9 L 23.7 90.9 L 23.4 93.6 L 22.9 96.2 L 22.1 98.6 L 20.8 100.9 L 16.6 102.8 L 12.3 101.3 L 10.5 97.1 L 12.0 92.8 L 12.6 92.7 L 13.5 92.0 L 14.4 90.7 L 15.4 88.9 L 16.3 86.7 L 17.2 84.0 L 18.1 80.9 L 18.9 77.4 L 19.7 73.6 L 20.0 69.3 L 21.8 69.3 L 22.2 73.6 L 22.567500019073485 75.7 L 24.8 75.7 L 24.8 16.6 L 35.8 22.1 L 65.5 22.1 L 71.0 17.1 L 81.5 26.1 L 76.5 29.6 L 76.5 75.7 L 78.2 75.7 L 84.2 70.7 L 95.2 79.7 L 90.2 82.7 L 86.81818180084228 84.10909090042114 L 86.6 84.4 L 85.4 86.2 L 84.1 88.0 L 82.7 89.8 L 79.5 93.8 L 77.7 95.8 L 76.5692307472229 97.7384614944458 L 81.9 102.1 L 76.9 106.1 L 76.9 171.7 L 76.7 174.2 L 76.3 176.7 L 75.5 179.1 L 74.3 181.4 L 72.6 183.4 L 70.6 185.1 L 68.3 186.3 L 65.9 187.1 L 63.4 187.5 L 60.9 187.7 L 60.9 181.7 L 50.9 178.7 Z M 86.3 176.1 L 131.5 176.1 L 131.5 154.6 L 97.0 154.6 L 97.0 150.6 L 131.5 150.6 L 131.5 130.4 L 112.9 130.4 L 112.9 137.4 L 100.9 143.4 L 100.9 75.8 L 112.9 81.8 L 162.0 81.8 L 168.0 76.8 L 179.0 85.8 L 174.0 89.8 L 174.0 134.4 L 162.0 140.4 L 162.0 130.4 L 143.5 130.4 L 143.5 150.6 L 155.9 150.6 L 165.9 140.6 L 177.9 150.6 L 177.9 154.6 L 143.5 154.6 L 143.5 176.1 L 166.6 176.1 L 176.6 166.1 L 188.6 176.1 L 188.6 180.1 L 86.3 180.1 Z M 36.5 127.0 L 36.5 148.0 L 64.9 148.0 L 64.9 127.0 Z M 112.9 107.4 L 112.9 126.4 L 131.5 126.4 L 131.5 107.4 Z M 143.5 107.4 L 143.5 126.4 L 162.0 126.4 L 162.0 107.4 Z M 36.5 102.1 L 36.5 123.0 L 64.9 123.0 L 64.9 102.1 Z M 112.9 85.8 L 112.9 103.4 L 131.5 103.4 L 131.5 85.8 Z M 143.5 85.8 L 143.5 103.4 L 162.0 103.4 L 162.0 85.8 Z M 35.8 26.1 L 35.8 75.7 L 46.1 75.7 L 46.1 40.2 L 56.1 45.2 L 65.5 45.2 L 65.5 26.1 Z M 56.1 49.2 L 56.1 75.7 L 65.5 75.7 L 65.5 49.2 Z M 93.9 36.5 L 131.5 36.5 L 131.5 13.2 L 143.5 15.2 L 146.5 17.2 L 143.5 19.0 L 143.5 36.5 L 159.0 36.5 L 169.0 26.5 L 181.0 36.5 L 181.0 40.5 L 155.8704917907715 40.5 L 166.1 46.5 L 168.1 49.5 L 163.47115383148193 50.1384614944458 L 162.0 52.1 L 160.4 54.2 L 158.6 56.4 L 156.7 58.7 L 154.6 61.2 L 152.4 63.8 L 149.9 66.5 L 149.51666669845582 67.0 L 169.3181818008423 67.0 L 177.5 58.0 L 187.5 67.0 L 187.5 71.0 L 87.4 71.0 L 87.4 67.0 L 146.8529411315918 67.0 L 147.7 65.2 L 148.9 61.7 L 150.0 58.5 L 151.1 55.5 L 152.0 52.7 L 152.9 50.1 L 153.6 47.7 L 154.2 45.5 L 154.7 43.5 L 154.88586959838867 42.66358699798584 L 154.7 42.6 L 155.09130430221558 41.73913040161133 L 155.1 41.7 L 155.10758619308473 41.703310298919675 L 155.65454549789428 40.5 L 93.9 40.5 Z M 116.5 58.5 L 116.2 56.6 L 115.2 52.8 L 114.6 50.8 L 113.8 48.8 L 112.9 46.8 L 112.0 44.7 L 110.5 42.9 L 111.7 41.6 L 113.6 43.1 L 115.7 44.3 L 117.7 45.7 L 119.6 47.2 L 121.4 48.9 L 123.0 50.7 L 124.5 52.6 L 125.9 54.7 L 127.2 56.8 L 128.3 59.1 L 127.7 63.6 L 124.1 66.4 L 119.6 65.8 L 116.7 62.2 L 116.7 60.3 Z " />
</g>
</svg>
