<svg xmlns="http://www.w3.org/2000/svg" xmlns:xlink="http://www.w3.org/1999/xlink" version="1.1" baseProfile="full" viewBox="0 0 200 200" width="200" height="200">
<g fill="black">
<path d="M 61.8 176.5 L 75.8 176.5 L 76.8 176.4 L 77.5 176.3 L 78.1 176.0 L 78.3 175.8 L 78.4 175.6 L 78.7 175.1 L 78.9 174.4 L 79.0 173.3 L 79.1 172.0 L 79.1 108.0 L 27.5 108.0 L 27.5 183.2 L 16.5 188.7 L 16.5 98.5 L 27.5 104.0 L 79.1 104.0 L 84.6 99.0 L 95.1 108.0 L 90.1 111.5 L 90.1 172.0 L 90.0 174.4 L 89.6 176.7 L 89.0 179.0 L 87.9 181.1 L 86.5 183.1 L 84.8 184.7 L 82.7 186.0 L 80.5 186.8 L 78.2 187.3 L 75.8 187.5 L 75.8 182.0 L 61.8 179.2 Z M 93.0 176.0 L 112.6 176.0 L 112.6 105.0 L 124.6 107.0 L 127.6 109.0 L 124.6 110.8 L 124.6 176.0 L 138.2 176.0 L 138.2 76.0 L 100.3 76.0 L 100.3 72.0 L 138.2 72.0 L 138.2 40.518987369537356 L 136.2 41.0 L 128.1 42.5 L 119.7 43.7 L 111.1 44.5 L 102.3 44.8 L 102.0 43.1 L 110.5 40.8 L 118.7 38.5 L 126.6 36.1 L 134.2 33.6 L 141.6 31.0 L 148.7 28.2 L 155.5 25.3 L 162.0 22.1 L 168.3 18.7 L 173.412043094635 15.717974853515624 L 173.4 15.7 L 173.41578950881959 15.71578950881958 L 174.3 15.2 L 176.02765960693358 18.327659606933594 L 182.2 24.5 L 182.3 27.9 L 178.7224299430847 26.3579439163208 L 173.4 28.9 L 166.4 31.9 L 159.2 34.6 L 151.8 37.0 L 150.2 37.43636360168457 L 150.2 72.0 L 166.1 72.0 L 176.1 62.0 L 188.1 72.0 L 188.1 76.0 L 150.2 76.0 L 150.2 121.0 L 164.7777777671814 121.0 L 171.0 114.0 L 179.0 121.0 L 179.0 125.0 L 150.2 125.0 L 150.2 176.0 L 168.0 176.0 L 178.0 166.0 L 190.0 176.0 L 190.0 180.0 L 93.0 180.0 Z M 45.9 124.0 L 59.8 124.0 L 65.3 119.0 L 75.8 128.0 L 70.8 131.5 L 70.8 160.0 L 59.8 165.5 L 59.8 156.0 L 45.9 156.0 L 45.9 163.0 L 34.9 168.5 L 34.9 118.5 Z M 45.9 128.0 L 45.9 152.0 L 59.8 152.0 L 59.8 128.0 Z M 38.2 57.0 L 68.5 57.0 L 74.5 52.0 L 85.5 61.0 L 80.5 65.0 L 80.5 89.0 L 68.5 95.0 L 68.5 87.0 L 38.2 87.0 L 38.2 90.0 L 26.2 96.0 L 26.2 51.0 Z M 38.2 61.0 L 38.2 83.0 L 68.5 83.0 L 68.5 61.0 Z M 12.8 38.0 L 47.3 38.0 L 47.3 14.0 L 59.3 16.0 L 62.3 18.0 L 59.3 19.8 L 59.3 38.0 L 72.7 38.0 L 82.7 28.0 L 94.7 38.0 L 94.7 42.0 L 12.8 42.0 Z " />
</g>
</svg>
