<svg xmlns="http://www.w3.org/2000/svg" xmlns:xlink="http://www.w3.org/1999/xlink" version="1.1" baseProfile="full" viewBox="0 0 200 200" width="200" height="200">
<g fill="black">
<path d="M 129.2 113.7 L 131.9 116.0 L 128.47822160720824 117.54948453903198 L 126.8 126.5 L 123.7 138.2 L 119.7 148.9 L 114.8 158.4 L 109.1 166.7 L 102.5 173.8 L 95.1 179.6 L 86.9 184.1 L 78.1 187.2 L 68.6 188.8 L 68.2 187.1 L 76.8 183.6 L 84.4 179.4 L 91.1 174.4 L 97.1 168.5 L 102.2 161.7 L 106.6 153.9 L 110.4 145.1 L 113.4 135.3 L 115.7 124.3 L 117.2 112.2 L 117.23278684616089 112.20409832000732 L 117.5 110.2 Z M 46.5 175.7 L 56.5 175.7 L 57.7 175.6 L 58.6 175.4 L 59.2 175.2 L 59.6 175.1 L 59.8 174.9 L 59.9 174.7 L 60.1 174.4 L 60.3 173.8 L 60.4 172.9 L 60.5 171.7 L 60.5 152.0 L 32.9 152.0 L 32.9 182.5 L 20.9 188.5 L 20.9 92.1 L 32.9 98.1 L 60.5 98.1 L 66.5 93.1 L 70.58356161117554 96.44109592437744 L 71.2 94.9 L 71.6 92.2 L 72.0 89.7 L 72.4 87.3 L 72.8 85.1 L 73.2 83.0 L 73.4 81.0 L 73.6 79.73333330154419 L 73.6 79.7 L 19.82702703475952 79.7 L 20.0 81.3 L 20.3 84.7 L 20.4 87.9 L 20.3 90.8 L 20.1 93.5 L 19.6 96.1 L 18.8 98.5 L 17.6 100.9 L 13.4 102.8 L 9.1 101.3 L 7.2 97.1 L 8.7 92.8 L 9.3 92.7 L 10.2 92.0 L 11.1 90.7 L 12.0 88.9 L 13.0 86.7 L 13.9 84.0 L 14.7 80.9 L 15.5 77.4 L 16.3 73.6 L 16.7 69.3 L 18.5 69.3 L 18.9 73.6 L 19.267500019073488 75.7 L 21.3 75.7 L 21.3 16.6 L 32.3 22.1 L 61.2 22.1 L 66.7 17.1 L 77.2 26.1 L 72.2 29.6 L 72.2 75.7 L 73.6 75.7 L 79.6 70.7 L 90.6 79.7 L 85.6 82.7 L 82.2 84.11666669845582 L 80.8 86.1 L 79.5 87.9 L 78.1 89.8 L 76.6 91.8 L 75.0 93.8 L 73.2 95.8 L 72.10153846740722 97.68307695388793 L 77.5 102.1 L 72.5 106.1 L 72.5 171.7 L 72.4 174.2 L 71.9 176.7 L 71.1 179.1 L 69.9 181.4 L 68.2 183.4 L 66.2 185.1 L 64.0 186.3 L 61.6 187.1 L 59.1 187.5 L 56.5 187.7 L 56.5 181.7 L 46.5 178.7 Z M 186.0 146.0 L 188.0 146.0 L 186.0 171.0 L 189.6 173.4 L 192.0 177.0 L 189.6 180.6 L 186.0 183.0 L 152.4 183.0 L 149.8 182.8 L 147.3 182.4 L 144.9 181.6 L 142.6 180.3 L 140.6 178.7 L 139.0 176.7 L 137.7 174.4 L 136.9 172.0 L 136.5 169.5 L 136.4 167.0 L 136.4 108.0 L 106.9 108.0 L 106.9 120.0 L 94.9 126.0 L 94.9 35.0 L 106.9 41.0 L 123.15625 41.0 L 123.9 39.3 L 125.0 36.1 L 126.0 33.0 L 127.0 30.0 L 128.0 27.1 L 129.8 21.7 L 130.6 19.1 L 131.72405185699463 15.24610776901245 L 131.6 15.2 L 131.93000001907347 14.539999961853027 L 132.0 14.3 L 132.04052047729493 14.318959140777588 L 132.6 13.2 L 142.9 19.4 L 144.8 22.5 L 140.48178749084474 22.9467116355896 L 139.9 23.8 L 138.2 26.0 L 136.5 28.4 L 134.7 30.7 L 132.7 33.2 L 130.7 35.6 L 128.5 38.1 L 126.2 40.6 L 125.9 41.0 L 168.8 41.0 L 174.8 36.0 L 185.8 45.0 L 180.8 49.0 L 180.8 108.0 L 168.8 114.0 L 168.8 108.0 L 142.4 108.0 L 148.4 109.0 L 151.4 111.0 L 148.4 112.8 L 148.4 143.22105264663696 L 149.1 143.0 L 151.4 142.6 L 153.8 142.2 L 155.05407609939576 142.05529890060424 L 155.5 139.9 L 156.1 137.1 L 157.3 131.7 L 158.5 126.5 L 159.0 123.9 L 159.4 121.4 L 159.69024391174315 119.94878044128419 L 159.5 119.9 L 160.4 117.5 L 171.2 122.9 L 173.4 125.7 L 169.14381189346312 126.59603958129883 L 168.6 127.6 L 167.2 130.0 L 165.7 132.3 L 164.2 134.7 L 162.6 137.0 L 160.9 139.4 L 159.19523811340332 141.57830686569213 L 161.7 141.3 L 164.5 141.0 L 167.4 140.8 L 170.5 140.6 L 172.80752296447753 140.527889919281 L 172.8 140.4 L 172.5 138.8 L 172.2 137.1 L 171.8 135.4 L 171.4 133.6 L 170.4 132.3 L 171.7 131.0 L 173.0 132.3 L 174.7 133.3 L 176.3 134.5 L 177.8 135.8 L 179.2 137.4 L 180.5 139.0 L 181.7 140.8 L 182.8 142.8 L 183.8 144.8 L 184.7 147.0 L 183.7 151.4 L 179.8 153.9 L 175.4 152.8 L 172.9 149.0 L 173.0 147.2 L 173.1 145.5 L 172.9910569190979 143.64796743392944 L 171.5 144.5 L 168.9 145.9 L 166.3 147.2 L 163.8 148.4 L 161.4 149.7 L 159.2 150.9 L 157.13632078170775 151.9809748649597 L 156.0 156.4 L 153.1 154.3 L 148.4 145.77627115249635 L 148.4 168.2 L 148.6 169.1 L 148.9 170.0 L 149.3 170.4 L 150.2 170.7 L 151.1 170.9 L 152.4 171.0 L 180.0 171.0 Z M 32.9 127.0 L 32.9 148.0 L 60.5 148.0 L 60.5 127.0 Z M 32.9 102.1 L 32.9 123.0 L 60.5 123.0 L 60.5 102.1 Z M 106.9 76.0 L 106.9 104.0 L 131.9 104.0 L 131.9 76.0 Z M 143.9 76.0 L 143.9 104.0 L 168.8 104.0 L 168.8 76.0 Z M 32.3 26.1 L 32.3 75.7 L 42.1 75.7 L 42.1 40.2 L 52.1 45.2 L 61.2 45.2 L 61.2 26.1 Z M 52.1 49.2 L 52.1 75.7 L 61.2 75.7 L 61.2 49.2 Z M 106.9 45.0 L 106.9 72.0 L 131.9 72.0 L 131.9 45.0 Z M 143.9 45.0 L 143.9 72.0 L 168.8 72.0 L 168.8 45.0 Z " />
</g>
</svg>
