<svg xmlns="http://www.w3.org/2000/svg" xmlns:xlink="http://www.w3.org/1999/xlink" version="1.1" baseProfile="full" viewBox="0 0 200 200" width="200" height="200">
<g fill="black">
<path d="M 111.6 182.0 L 99.6 188.0 L 99.6 131.72250003814696 L 96.3 135.6 L 92.1 140.2 L 87.6 144.5 L 82.7 148.6 L 81.4 147.3 L 84.7 142.1 L 87.9 136.9 L 91.0 131.8 L 94.0 126.6 L 96.8 121.5 L 99.4 116.2 L 101.9 111.0 L 104.1 105.6 L 106.1 100.2 L 107.67575101852417 95.72154989242554 L 107.6 95.7 L 108.5 93.4 L 119.2 99.0 L 121.3 101.9 L 117.54681062698364 102.62429971694947 L 116.6 104.7 L 113.8 110.2 L 111.13333330154418 115.0 L 134.86666669845582 115.0 L 135.0 114.7 L 135.4 112.7 L 136.4 108.7 L 137.0 106.6 L 137.5 104.6 L 138.2 102.5 L 138.8 100.3 L 139.4 98.2 L 139.78779697418213 96.98120946884156 L 139.6 96.9 L 140.6 95.0 L 150.7 101.7 L 152.4 104.8 L 147.92372369766235 105.0315315246582 L 147.7 105.3 L 146.2 107.0 L 141.7 111.8 L 140.1 113.2 L 138.6 114.6 L 138.07692308425902 115.0 L 163.8181818008423 115.0 L 172.0 106.0 L 182.0 115.0 L 182.0 119.0 L 145.2 119.0 L 145.2 135.0 L 157.11818180084228 135.0 L 165.3 126.0 L 175.3 135.0 L 175.3 139.0 L 145.2 139.0 L 145.2 155.0 L 157.11818180084228 155.0 L 165.3 146.0 L 175.3 155.0 L 175.3 159.0 L 145.2 159.0 L 145.2 175.0 L 165.9 175.0 L 175.9 165.0 L 187.9 175.0 L 187.9 179.0 L 111.6 179.0 Z M 48.3 174.8 L 58.3 174.8 L 59.5 174.7 L 60.4 174.5 L 61.0 174.3 L 61.4 174.2 L 61.5 174.0 L 61.7 173.8 L 61.9 173.5 L 62.1 172.9 L 62.2 172.0 L 62.3 170.8 L 62.3 151.2 L 36.6 151.2 L 36.6 181.6 L 24.6 187.6 L 24.6 91.6 L 36.6 97.6 L 62.3 97.6 L 68.3 92.6 L 72.2144413948059 95.80272483825684 L 72.7 94.4 L 73.0 91.8 L 73.4 89.3 L 73.8 86.9 L 74.1 84.7 L 74.4 82.6 L 74.7 80.6 L 74.7 79.3 L 23.98378381729126 79.3 L 24.2 80.9 L 24.5 84.3 L 24.6 87.4 L 24.6 90.3 L 24.4 93.0 L 24.0 95.5 L 23.3 97.9 L 22.1 100.2 L 18.0 102.2 L 13.6 100.8 L 11.6 96.7 L 13.0 92.4 L 13.6 92.3 L 14.4 91.6 L 15.3 90.3 L 16.3 88.5 L 17.2 86.3 L 18.0 83.6 L 18.9 80.5 L 19.7 77.1 L 20.5 73.2 L 20.8 69.0 L 22.6 68.9 L 23.0 73.2 L 23.367500019073486 75.3 L 25.0 75.3 L 25.0 16.5 L 36.0 22.0 L 62.9 22.0 L 68.4 17.0 L 78.9 26.0 L 73.9 29.5 L 73.9 75.3 L 74.7 75.3 L 80.7 70.3 L 91.2 78.89090909957886 L 91.2 53.6 L 103.2 59.6 L 121.9 59.6 L 127.4 54.6 L 137.9 63.6 L 132.9 67.1 L 132.9 91.8 L 121.9 97.3 L 121.9 87.8 L 103.2 87.8 L 103.2 94.8 L 91.2 100.8 L 91.2 79.6 L 86.7 82.3 L 83.47664232254029 83.64306573867798 L 83.3 83.9 L 82.1 85.6 L 80.8 87.4 L 79.5 89.3 L 76.5 93.3 L 74.7 95.3 L 73.74803152084351 97.0574803352356 L 79.3 101.6 L 74.3 105.6 L 74.3 170.8 L 74.2 173.3 L 73.7 175.8 L 72.9 178.2 L 71.7 180.5 L 70.0 182.5 L 68.0 184.2 L 65.8 185.4 L 63.3 186.2 L 60.9 186.6 L 58.3 186.8 L 58.3 180.8 L 48.3 177.8 Z M 111.6 159.0 L 111.6 175.0 L 133.2 175.0 L 133.2 159.0 Z M 111.6 139.0 L 111.6 155.0 L 133.2 155.0 L 133.2 139.0 Z M 36.6 126.4 L 36.6 147.2 L 62.3 147.2 L 62.3 126.4 Z M 111.6 119.0 L 111.6 135.0 L 133.2 135.0 L 133.2 119.0 Z M 36.6 101.6 L 36.6 122.4 L 62.3 122.4 L 62.3 101.6 Z M 151.4 59.6 L 170.0 59.6 L 176.0 54.6 L 187.0 63.6 L 182.0 67.6 L 182.0 91.8 L 170.0 97.8 L 170.0 87.8 L 151.4 87.8 L 140.4 93.3 L 140.4 54.1 Z M 151.4 63.6 L 151.4 83.8 L 170.0 83.8 L 170.0 63.6 Z M 103.2 63.6 L 103.2 83.8 L 121.9 83.8 L 121.9 63.6 Z M 36.0 26.0 L 36.0 75.3 L 44.8 75.3 L 44.8 40.0 L 54.8 45.0 L 62.9 45.0 L 62.9 26.0 Z M 54.8 49.0 L 54.8 75.3 L 62.9 75.3 L 62.9 49.0 Z M 159.1 15.1 L 162.1 17.1 L 159.1 18.9 L 159.1 32.4 L 165.8 32.4 L 175.8 22.4 L 187.8 32.4 L 187.8 36.4 L 159.1 36.4 L 159.1 50.9 L 147.1 56.9 L 147.1 36.4 L 126.2 36.4 L 126.2 50.9 L 114.2 56.9 L 114.2 36.4 L 85.5 36.4 L 85.5 32.4 L 114.2 32.4 L 114.2 13.1 L 126.2 15.1 L 129.2 17.1 L 126.2 18.9 L 126.2 32.4 L 147.1 32.4 L 147.1 13.1 Z " />
</g>
</svg>
