<svg xmlns="http://www.w3.org/2000/svg" xmlns:xlink="http://www.w3.org/1999/xlink" version="1.1" baseProfile="full" viewBox="0 0 200 200" width="200" height="200">
<g fill="black">
<path d="M 122.0 175.5 L 142.0 175.5 L 143.2 175.4 L 144.1 175.2 L 144.7 175.1 L 145.0 174.9 L 145.4 174.5 L 145.7 173.6 L 145.9 172.7 L 146.0 171.5 L 146.0 155.1 L 54.0 155.1 L 54.0 181.9 L 42.0 187.9 L 42.0 100.4 L 54.0 106.4 L 146.0 106.4 L 152.0 101.4 L 163.0 110.4 L 158.0 114.4 L 158.0 171.5 L 157.8 174.0 L 157.4 176.5 L 156.6 178.9 L 155.3 181.2 L 153.7 183.2 L 151.7 184.9 L 149.4 186.1 L 147.0 186.9 L 144.5 187.3 L 142.0 187.5 L 142.0 181.5 L 122.0 178.5 Z M 54.0 132.7 L 54.0 151.1 L 146.0 151.1 L 146.0 132.7 Z M 54.0 110.4 L 54.0 128.7 L 146.0 128.7 L 146.0 110.4 Z M 91.0 91.6 L 89.6 89.2 L 88.1 86.9 L 86.4 84.5 L 85.54736843109131 83.41052627563477 L 79.8 85.6 L 71.9 88.4 L 64.3 90.9 L 57.1 93.1 L 50.3 95.0 L 44.0 96.8 L 38.1 98.3 L 32.5 99.7 L 27.4 100.8 L 26.84716205596924 100.91762504577636 L 25.0 104.5 L 22.7 101.8 L 19.2 90.1 L 21.2 89.9 L 25.7 89.6 L 30.7 89.1 L 35.08296041488647 88.62185888290405 L 36.0 86.1 L 37.1 83.0 L 38.2 80.1 L 39.2 77.3 L 40.0 74.7 L 40.8 72.2 L 41.43913040161133 70.1 L 12.0 70.1 L 12.0 66.1 L 32.0 66.1 L 32.0 15.0 L 44.0 21.0 L 90.81818180084228 21.0 L 99.0 12.0 L 109.0 21.0 L 109.0 25.0 L 44.0 25.0 L 44.0 36.4 L 88.77777776718139 36.4 L 95.0 29.4 L 103.0 36.4 L 103.0 40.4 L 44.0 40.4 L 44.0 50.8 L 88.77777776718139 50.8 L 95.0 43.8 L 103.0 50.8 L 103.0 54.8 L 44.0 54.8 L 44.0 66.1 L 93.81818180084228 66.1 L 102.0 57.1 L 112.0 66.1 L 112.0 70.1 L 53.682608699798585 70.1 L 53.5 70.4 L 52.2 72.4 L 50.8 74.4 L 49.2 76.5 L 47.5 78.7 L 45.7 81.0 L 43.8 83.3 L 41.7 85.8 L 39.54748373031616 88.04610385894776 L 42.1 87.7 L 48.6 86.7 L 55.4 85.7 L 62.8 84.5 L 70.6 83.2 L 78.9 81.9 L 83.76254415512085 81.2369257926941 L 82.6 79.9 L 80.4 77.6 L 78.1 75.2 L 75.4 73.2 L 76.3 71.6 L 79.5 73.0 L 82.7 74.1 L 85.8 75.5 L 88.8 77.2 L 91.6 78.9 L 94.3 80.9 L 96.9 83.0 L 99.3 85.3 L 101.5 87.7 L 103.6 90.3 L 104.2 94.9 L 101.5 98.5 L 96.9 99.1 L 93.3 96.4 L 92.2 94.0 Z M 187.9 72.5 L 188.2 76.1 L 184.55566158294678 74.70852537155152 L 182.6 76.0 L 176.8 79.2 L 170.4 82.3 L 163.5 85.1 L 156.1 87.8 L 148.0 90.3 L 139.4 92.6 L 130.3 94.6 L 120.5 96.4 L 110.1 97.8 L 109.8 96.0 L 119.6 92.7 L 128.8 89.5 L 137.5 86.3 L 145.5 83.1 L 153.0 79.9 L 159.7 76.6 L 165.9 73.3 L 171.4 69.9 L 176.2 66.5 L 180.20909090042113 63.254545497894284 L 180.5 63.0 Z M 178.8 47.5 L 179.1 51.1 L 175.52250003814697 49.70874996185303 L 174.2 50.6 L 169.1 53.5 L 163.6 56.4 L 157.8 59.1 L 151.6 61.8 L 144.9 64.3 L 137.9 66.7 L 130.5 69.0 L 122.6 71.0 L 114.2 72.8 L 113.7 71.1 L 121.3 67.4 L 128.6 64.0 L 135.4 60.6 L 141.9 57.4 L 147.9 54.1 L 153.5 50.9 L 158.7 47.7 L 163.4 44.4 L 167.7 41.2 L 170.7276686668396 38.73005981445313 L 170.7 38.7 L 171.5 38.0 Z M 172.9 21.6 L 173.3 25.2 L 169.54705886840821 23.83529415130615 L 168.7 24.4 L 164.1 27.3 L 159.1 30.1 L 153.8 32.9 L 148.1 35.7 L 141.9 38.5 L 135.4 41.2 L 128.5 43.9 L 121.1 46.4 L 113.3 48.8 L 112.6 47.1 L 119.6 43.0 L 126.2 39.1 L 132.5 35.4 L 138.4 31.8 L 144.0 28.3 L 149.1 24.9 L 153.8 21.6 L 158.1 18.4 L 162.0 15.3 L 164.61500635147095 12.915729522705078 L 164.6 12.9 L 164.81951217651368 12.729268264770507 L 165.4 12.2 L 165.43829317092894 12.247994136810302 L 165.5 12.2 Z " />
</g>
</svg>
