<svg xmlns="http://www.w3.org/2000/svg" xmlns:xlink="http://www.w3.org/1999/xlink" version="1.1" baseProfile="full" viewBox="0 0 200 200" width="200" height="200">
<g fill="black">
<path d="M 105.5 178.6 L 121.5 178.6 L 122.8 178.5 L 123.7 178.4 L 124.3 178.2 L 124.6 178.0 L 124.8 177.9 L 125.1 177.3 L 125.3 176.7 L 125.5 175.8 L 125.5 145.8 L 86.4 145.8 L 86.4 141.8 L 160.1 141.8 L 170.1 131.8 L 182.1 141.8 L 182.1 145.8 L 137.5 145.8 L 137.5 174.6 L 137.4 177.2 L 136.9 179.7 L 136.1 182.1 L 134.9 184.3 L 133.3 186.3 L 131.3 188.0 L 129.0 189.2 L 126.6 190.0 L 124.1 190.5 L 121.5 190.6 L 121.5 184.6 L 105.5 181.6 Z M 67.1 142.3 L 65.7 140.8 L 64.1 139.4 L 62.3 137.9 L 60.3 136.4 L 58.1 134.9 L 55.7 133.3 L 53.8 132.1307692527771 L 53.8 183.9 L 41.8 189.9 L 41.8 135.875 L 40.0 138.8 L 36.4 143.9 L 32.6 148.8 L 28.5 153.4 L 24.0 157.8 L 19.1 161.9 L 13.8 165.7 L 12.6 164.4 L 16.4 159.3 L 19.9 154.3 L 23.3 149.3 L 26.4 144.3 L 29.3 139.3 L 31.9 134.3 L 34.2 129.1 L 36.2 123.9 L 38.0 118.6 L 38.4 117.0 L 13.2 117.0 L 13.2 113.0 L 41.8 113.0 L 41.8 87.6 L 53.8 89.6 L 56.8 91.6 L 53.8 93.4 L 53.8 113.0 L 57.8 113.0 L 67.8 103.0 L 79.8 113.0 L 79.8 117.0 L 53.8 117.0 L 53.8 129.38125 L 53.9 129.4 L 57.0 129.6 L 60.0 130.1 L 62.8 130.6 L 65.5 131.2 L 68.1 132.0 L 70.6 132.9 L 72.9 133.8 L 75.2 134.9 L 77.3 136.2 L 79.2 140.3 L 77.7 144.6 L 73.5 146.5 L 69.2 145.1 L 68.3 143.7 Z M 111.0 160.3 L 112.1 163.7 L 108.17224855422974 163.22596101760865 L 105.1 166.1 L 101.9 168.9 L 98.4 171.6 L 94.7 174.2 L 90.9 176.7 L 86.7 179.1 L 82.4 181.3 L 77.7 183.4 L 72.9 185.4 L 71.9 183.8 L 75.9 180.5 L 79.6 177.2 L 83.1 174.0 L 86.4 170.9 L 89.5 167.8 L 92.4 164.8 L 95.0 161.8 L 97.4 158.9 L 99.5 155.9 L 100.8535177230835 153.83410444259644 L 100.8 153.8 L 101.25660381317138 153.21886796951293 L 101.4 153.0 L 101.41788539886474 153.01360034942627 L 101.9 152.4 Z M 171.0 176.9 L 169.1 174.4 L 166.9 171.9 L 164.6 169.4 L 162.1 166.9 L 159.4 164.3 L 156.5 161.7 L 153.6 159.0 L 150.3 156.5 L 151.1 155.0 L 155.0 156.5 L 158.9 157.9 L 162.6 159.5 L 166.1 161.3 L 169.5 163.2 L 175.7 167.4 L 178.6 169.7 L 181.3 172.0 L 183.8 174.5 L 185.0 178.9 L 182.8 182.9 L 178.4 184.1 L 174.4 181.9 L 172.8 179.4 Z M 167.0 122.8 L 167.0 126.8 L 100.4 126.8 L 100.4 122.8 L 148.8181818008423 122.8 L 157.0 113.8 Z M 84.5 123.1 L 82.3 119.1 L 83.5 114.7 L 84.8 113.7 L 85.9 112.7 L 86.9 111.5 L 87.7 110.3 L 88.5 108.9 L 89.1 107.3 L 89.5 105.5 L 89.8 103.5 L 89.9 101.3 L 89.2 99.1 L 90.8 98.3 L 91.9 100.5 L 92.96666669845581 102.1 L 125.5 102.1 L 125.5 87.0 L 137.5 89.0 L 140.5 91.0 L 137.5 92.8 L 137.5 102.1 L 172.8 102.1 L 178.8 97.1 L 189.8 106.1 L 184.8 109.1 L 180.9049180030823 110.72295083999634 L 180.4 111.3 L 178.8 112.9 L 177.2 114.4 L 173.6 117.2 L 171.6 118.6 L 169.5 119.8 L 167.6 121.4 L 166.4 120.1 L 167.9 118.3 L 168.9 116.1 L 169.8 114.1 L 170.6 112.1 L 171.3 110.2 L 171.9 108.4 L 172.4 106.6 L 172.525 106.1 L 94.7956521987915 106.1 L 95.1 107.1 L 95.6 109.5 L 95.8 112.0 L 95.6 114.5 L 95.0 117.1 L 94.2 119.6 L 92.9 122.1 L 88.9 124.3 Z M 91.2 79.3 L 89.8 77.2 L 88.3 75.2 L 86.7 73.1 L 85.52896900177002 71.8673357963562 L 79.8 73.8 L 71.8 76.4 L 64.2 78.6 L 57.0 80.5 L 50.2 82.3 L 43.9 83.8 L 37.9 85.2 L 32.4 86.4 L 27.3 87.4 L 26.75389156341553 87.50457391738891 L 24.9 91.1 L 22.6 88.3 L 19.3 76.6 L 21.3 76.4 L 25.8 76.1 L 30.8 75.8 L 35.428301906585695 75.37924528121948 L 36.1 73.7 L 37.3 71.0 L 38.4 68.4 L 39.3 66.0 L 40.2 63.7 L 41.0 61.5 L 41.3 60.5 L 12.0 60.5 L 12.0 56.5 L 32.0 56.5 L 32.0 11.8 L 44.0 17.8 L 90.81818180084228 17.8 L 99.0 8.8 L 109.0 17.8 L 109.0 21.8 L 44.0 21.8 L 44.0 31.0 L 88.77777776718139 31.0 L 95.0 24.0 L 103.0 31.0 L 103.0 35.0 L 44.0 35.0 L 44.0 43.3 L 88.77777776718139 43.3 L 95.0 36.3 L 103.0 43.3 L 103.0 47.3 L 44.0 47.3 L 44.0 56.5 L 93.81818180084228 56.5 L 102.0 47.5 L 112.0 56.5 L 112.0 60.5 L 53.7384614944458 60.5 L 53.3 61.1 L 52.0 62.8 L 50.6 64.5 L 47.4 68.1 L 45.6 70.0 L 43.6 72.0 L 41.5 74.0 L 40.53595504760742 74.87640447616577 L 42.3 74.7 L 48.7 73.9 L 55.5 73.1 L 62.9 72.1 L 70.7 71.1 L 79.0 70.1 L 83.41735696792603 69.64822483062744 L 82.8 69.0 L 80.6 67.0 L 78.2 64.8 L 75.5 63.1 L 76.2 61.4 L 79.4 62.5 L 82.6 63.4 L 85.6 64.5 L 88.6 65.8 L 91.3 67.2 L 94.0 68.8 L 96.5 70.5 L 98.9 72.4 L 101.1 74.4 L 103.2 76.6 L 104.1 81.1 L 101.6 84.9 L 97.2 85.8 L 93.3 83.4 L 92.3 81.3 Z M 185.01848344802858 59.58720378875732 L 188.0 62.9 L 188.1 66.4 L 184.5317012786865 64.88016910552979 L 182.2 66.2 L 176.5 68.9 L 170.1 71.5 L 163.3 73.9 L 155.8 76.1 L 147.9 78.2 L 139.3 80.0 L 130.2 81.7 L 120.4 83.1 L 110.1 84.2 L 109.8 82.4 L 119.7 79.4 L 128.9 76.5 L 137.6 73.7 L 145.7 70.9 L 153.1 68.1 L 160.0 65.2 L 166.1 62.3 L 171.7 59.3 L 176.5 56.3 L 180.7 53.3 Z M 175.5560131072998 37.405989742279054 L 179.1 41.3 L 179.3 44.9 L 175.62479305267334 43.39054002761841 L 173.8 44.4 L 168.8 46.8 L 163.3 49.2 L 157.5 51.5 L 151.3 53.7 L 144.8 55.8 L 137.8 57.8 L 130.3 59.7 L 122.5 61.3 L 114.2 62.7 L 113.7 61.0 L 121.4 57.7 L 128.7 54.6 L 135.6 51.6 L 142.1 48.7 L 148.1 45.9 L 153.8 43.0 L 158.9 40.2 L 163.7 37.4 L 168.0 34.6 L 171.8 31.8 Z M 170.54210529327392 16.547368431091307 L 172.9 19.2 L 173.0 22.8 L 169.41969366073607 21.275054740905762 L 168.3 21.9 L 163.8 24.3 L 158.8 26.7 L 153.5 29.0 L 147.8 31.4 L 141.7 33.7 L 135.3 35.9 L 128.4 38.1 L 121.0 40.2 L 113.3 42.0 L 112.6 40.4 L 119.7 36.6 L 126.4 33.2 L 132.7 29.9 L 138.6 26.7 L 144.2 23.7 L 149.3 20.7 L 154.0 17.8 L 158.4 15.0 L 162.2 12.3 L 164.90866146087646 10.210461235046386 L 164.9 10.2 L 164.90903959274291 10.210169506072997 L 165.7 9.6 Z " />
</g>
</svg>
