<svg xmlns="http://www.w3.org/2000/svg" xmlns:xlink="http://www.w3.org/1999/xlink" version="1.1" baseProfile="full" viewBox="0 0 200 200" width="200" height="200">
<g fill="black">
<path d="M 46.0 116.5 L 98.97099237442016 116.5 L 98.4 113.1 L 97.93514938354492 99.89824256896972 L 97.9 99.9 L 97.91628665924073 99.36254072189331 L 97.9 98.9 L 97.93027248382569 98.90100908279419 L 98.0 96.6 L 109.9 99.3 L 112.9 101.4 L 110.01691646575928 102.98286933898926 L 110.3 111.9 L 111.06000003814697 116.5 L 163.0 116.5 L 173.0 106.5 L 185.0 116.5 L 185.0 120.5 L 111.72086954116821 120.5 L 112.2 123.4 L 115.6 133.6 L 120.5 142.7 L 126.8 150.7 L 130.09695711135865 153.66308803558348 L 136.5 149.1 L 144.1 142.5 L 150.8 135.4 L 156.5 128.0 L 156.5181393623352 128.01327724456786 L 157.0 127.4 L 166.2 135.1 L 167.4 138.5 L 163.51783571243286 138.16533069610597 L 159.2 143.1 L 151.3 150.5 L 142.4 157.2 L 138.01567993164062 159.92901554107667 L 144.2 163.9 L 155.4 169.1 L 168.3 173.2 L 176.5422903060913 174.95007534027098 L 182.0 151.3 L 184.0 151.3 L 182.09015035629272 176.12804565429687 L 182.9 176.3 L 186.8 178.8 L 187.9 183.2 L 185.4 187.1 L 181.0 188.2 L 165.2 184.8 L 151.1 180.3 L 138.5 174.5 L 127.4 167.4 L 126.38065853118897 166.46834383010864 L 122.0 168.7 L 110.4 173.4 L 97.9 177.6 L 84.6 181.0 L 70.3 183.7 L 55.1 185.7 L 54.8 183.9 L 69.5 180.0 L 83.1 175.8 L 95.8 171.3 L 107.5 166.4 L 118.2 161.1 L 119.5889331817627 160.26085290908813 L 118.1 158.9 L 110.4 149.2 L 104.6 138.3 L 100.6 126.2 L 99.64274806976319 120.5 L 46.0 120.5 L 46.0 143.5 L 45.3 149.4 L 44.1 155.0 L 42.3 160.3 L 39.8 165.2 L 36.8 169.8 L 33.2 173.9 L 29.0 177.7 L 24.3 181.0 L 19.1 183.8 L 13.4 186.1 L 12.5 184.5 L 17.0 180.7 L 21.0 176.8 L 24.4 173.0 L 27.3 169.1 L 29.6 165.2 L 31.5 161.1 L 32.8 157.0 L 33.6 152.7 L 34.0 148.2 L 34.0 110.5 Z M 146.8 112.6 L 145.3 111.3 L 143.5 109.9 L 141.4 108.4 L 139.1 106.9 L 136.4 105.4 L 133.5 103.8 L 130.3 102.1 L 126.7 100.8 L 127.1 99.0 L 130.9 99.7 L 134.6 99.9 L 138.1 100.4 L 141.3 100.9 L 144.3 101.5 L 147.1 102.2 L 149.7 102.9 L 152.2 103.8 L 154.4 104.8 L 156.6 105.9 L 158.6 110.0 L 157.2 114.3 L 153.1 116.4 L 148.8 115.0 L 148.0 113.9 Z M 89.7 84.8 L 88.2 82.5 L 86.5 80.3 L 85.55477390289306 79.14472360610962 L 79.8 81.2 L 71.8 83.9 L 64.3 86.3 L 57.1 88.4 L 50.3 90.3 L 43.9 92.0 L 38.0 93.5 L 32.5 94.8 L 27.4 95.9 L 26.796680164337157 96.01552934646607 L 25.0 99.5 L 22.7 96.8 L 19.2 85.1 L 21.2 84.9 L 25.8 84.6 L 30.8 84.2 L 35.169565200805664 83.71449279785156 L 36.0 81.5 L 37.2 78.6 L 38.2 75.8 L 39.2 73.1 L 40.1 70.6 L 40.9 68.3 L 41.36363639831543 66.6 L 12.0 66.6 L 12.0 62.6 L 32.0 62.6 L 32.0 13.8 L 44.0 19.8 L 90.81818180084228 19.8 L 99.0 10.8 L 109.0 19.8 L 109.0 23.8 L 44.0 23.8 L 44.0 34.4 L 88.77777776718139 34.4 L 95.0 27.4 L 103.0 34.4 L 103.0 38.4 L 44.0 38.4 L 44.0 48.0 L 88.77777776718139 48.0 L 95.0 41.0 L 103.0 48.0 L 103.0 52.0 L 44.0 52.0 L 44.0 62.6 L 93.81818180084228 62.6 L 102.0 53.6 L 112.0 62.6 L 112.0 66.6 L 53.68333330154419 66.6 L 53.4 67.0 L 52.1 68.8 L 50.7 70.8 L 49.2 72.7 L 47.5 74.8 L 45.7 76.9 L 43.7 79.1 L 41.6 81.4 L 39.97740859985352 83.09634552001953 L 42.2 82.8 L 48.6 82.0 L 55.5 81.0 L 62.8 79.9 L 70.6 78.7 L 78.9 77.6 L 83.65588235855103 76.9514705657959 L 82.7 75.9 L 80.5 73.7 L 78.1 71.4 L 75.4 69.5 L 76.3 67.9 L 79.4 69.1 L 82.7 70.2 L 85.8 71.5 L 88.7 72.9 L 91.5 74.6 L 94.2 76.4 L 96.7 78.4 L 99.1 80.5 L 101.4 82.8 L 103.5 85.2 L 104.2 89.8 L 101.5 93.5 L 97.0 94.2 L 93.3 91.6 L 91.1 87.0 Z M 187.8 69.0 L 188.0 72.6 L 184.3179274559021 71.16808290481568 L 182.5 72.3 L 176.7 75.4 L 170.3 78.3 L 163.4 81.0 L 156.0 83.5 L 148.0 85.8 L 139.4 87.9 L 130.2 89.9 L 120.5 91.5 L 110.1 92.7 L 109.8 91.0 L 119.6 87.8 L 128.9 84.7 L 137.5 81.6 L 145.6 78.6 L 153.0 75.5 L 159.8 72.4 L 166.0 69.2 L 171.5 66.0 L 176.3 62.7 L 179.7051184654236 60.10562400817871 L 179.7 60.1 L 180.6 59.4 Z M 178.7 45.4 L 178.9 49.0 L 175.26538457870484 47.5192307472229 L 174.0 48.3 L 169.0 51.1 L 163.5 53.7 L 157.7 56.3 L 151.5 58.8 L 144.9 61.2 L 137.9 63.4 L 130.4 65.5 L 122.5 67.4 L 114.2 69.1 L 113.7 67.3 L 121.3 63.8 L 128.6 60.5 L 135.5 57.3 L 142.0 54.2 L 148.0 51.1 L 153.6 48.0 L 158.8 44.9 L 163.5 41.8 L 167.8 38.8 L 170.86777629852295 36.37807140350342 L 170.8 36.3 L 171.6 35.7 Z M 172.8 20.8 L 173.0 24.4 L 169.4498740196228 22.953652381896973 L 168.6 23.5 L 164.0 26.2 L 159.0 28.8 L 153.7 31.5 L 148.0 34.1 L 141.9 36.7 L 135.4 39.3 L 128.5 41.8 L 121.1 44.1 L 113.3 46.3 L 112.6 44.6 L 119.6 40.6 L 126.3 36.9 L 132.6 33.3 L 138.5 29.9 L 144.0 26.6 L 149.2 23.4 L 153.9 20.2 L 158.2 17.2 L 162.1 14.2 L 164.74219532012938 11.946362781524659 L 164.7 11.9 L 165.6 11.2 Z " />
</g>
</svg>
