<svg xmlns="http://www.w3.org/2000/svg" xmlns:xlink="http://www.w3.org/1999/xlink" version="1.1" baseProfile="full" viewBox="0 0 200 200" width="200" height="200">
<g fill="black">
<path d="M 67.6 183.8 L 65.1 183.4 L 62.7 182.6 L 60.4 181.3 L 58.4 179.7 L 56.8 177.7 L 55.6 175.4 L 54.7 173.0 L 54.3 170.5 L 54.2 168.0 L 54.2 104.0 L 43.890909099578856 104.0 L 48.8 104.9 L 51.9 106.8 L 48.67522039413452 108.79936332702637 L 48.4 117.4 L 47.2 129.1 L 45.3 140.1 L 42.6 150.2 L 39.2 159.5 L 35.0 167.9 L 30.0 175.4 L 24.3 181.9 L 17.8 187.4 L 10.7 191.7 L 9.7 190.2 L 15.3 184.5 L 20.2 178.4 L 24.5 171.7 L 28.2 164.4 L 31.2 156.4 L 33.6 147.7 L 35.4 138.2 L 36.5 128.0 L 37.0 116.9 L 36.8 105.0 L 36.86967935562134 104.99941930770873 L 36.83939390182495 104.0 L 30.5 104.0 L 30.5 116.0 L 18.5 122.0 L 18.5 32.0 L 30.5 38.0 L 41.01538457870483 38.0 L 41.8 36.8 L 43.1 34.0 L 45.5 28.8 L 46.5 26.3 L 47.5 24.0 L 48.3 21.7 L 49.1 19.5 L 49.7 17.4 L 49.97061557769776 16.263414669036866 L 49.8 16.2 L 50.15454549789429 15.490909099578857 L 50.2 15.3 L 50.24052047729492 15.318959140777588 L 50.8 14.2 L 61.1 20.4 L 63.0 23.5 L 58.50784311294556 23.964705848693846 L 58.1 24.5 L 56.4 26.5 L 54.6 28.5 L 52.7 30.5 L 50.7 32.5 L 48.5 34.5 L 46.2 36.5 L 44.11666669845581 38.0 L 82.7 38.0 L 88.7 33.0 L 99.7 42.0 L 94.7 46.0 L 94.7 104.0 L 82.7 110.0 L 82.7 104.0 L 60.2 104.0 L 66.2 105.0 L 69.2 107.0 L 66.2 108.8 L 66.2 153.74615383148193 L 67.7 153.4 L 70.4 152.8 L 72.15159816741944 152.4872145652771 L 72.7 148.1 L 73.5 143.5 L 74.2 138.9 L 75.0 134.4 L 75.7 129.9 L 76.5 125.5 L 77.2 121.1 L 77.9 116.8 L 78.44877052307129 113.50737705230713 L 78.4 113.5 L 79.0 110.8 L 90.3 115.3 L 92.7 117.9 L 89.03333330154419 119.1 L 88.9 119.5 L 87.6 123.7 L 86.1 128.0 L 84.6 132.2 L 83.0 136.5 L 81.3 140.9 L 79.5 145.2 L 77.6 149.5 L 76.61026086807252 151.57373914718627 L 78.9 151.1 L 81.9 150.5 L 85.0 149.9 L 88.1 149.4 L 91.3 148.9 L 91.52362203598022 148.84409446716307 L 91.0 146.6 L 90.3 143.7 L 88.7 137.9 L 87.8 135.0 L 86.5 132.3 L 88.0 131.2 L 90.1 133.5 L 92.3 135.8 L 94.4 138.2 L 96.3 140.9 L 98.1 143.7 L 99.8 146.7 L 101.3 149.8 L 102.8 153.0 L 104.1 156.3 L 105.2 159.8 L 104.89881420135498 161.30592889785765 L 105.8 160.8 L 110.7 157.2 L 114.9 153.0 L 118.5 148.3 L 121.6 143.0 L 124.0 137.0 L 126.0 130.2 L 127.3 122.6 L 128.1 114.2 L 128.2555555343628 107.2 L 109.1 107.2 L 109.1 103.2 L 162.0 103.2 L 168.0 98.2 L 179.0 107.2 L 174.0 110.2 L 174.0 121.9 L 173.8 129.1 L 173.6 135.4 L 173.3 141.0 L 172.9 145.7 L 172.4 149.7 L 171.7 153.0 L 170.6 156.0 L 168.3 159.1 L 166.4 160.6 L 164.5 161.9 L 162.5 163.1 L 160.4 164.1 L 158.3 165.0 L 156.0 165.7 L 153.8 166.2 L 151.5 166.6 L 149.2 166.9 L 146.8 167.0 L 146.8 161.0 L 126.8 158.0 L 126.8 155.0 L 146.8 155.0 L 148.4 154.9 L 151.4 154.5 L 152.8 154.2 L 154.2 153.7 L 155.5 153.2 L 158.1 151.8 L 159.4 150.9 L 159.95384616851806 150.4384614944458 L 160.1 150.0 L 160.5 147.7 L 161.0 144.4 L 161.3 140.1 L 161.6 134.9 L 161.8 128.8 L 162.0 121.8 L 162.0 107.2 L 140.2289999961853 107.2 L 139.5 115.3 L 137.9 124.5 L 135.6 132.9 L 132.6 140.5 L 128.9 147.2 L 124.5 153.0 L 119.4 157.8 L 113.7 161.6 L 107.4 164.3 L 102.82504177093506 165.30918197631837 L 100.5 166.9 L 96.1 166.0 L 93.5 162.2 L 93.2 159.0 L 92.8 155.8 L 92.3 152.7 L 92.07714281082153 151.54857139587403 L 89.6 153.2 L 86.9 154.9 L 84.3 156.6 L 81.7 158.1 L 79.1 159.7 L 74.1 162.5 L 73.28901100158691 162.97307691574096 L 72.3 167.3 L 69.3 165.2 L 66.2 159.8639344215393 L 66.2 169.2 L 66.4 170.1 L 66.6 170.7 L 66.8 171.0 L 66.9 171.2 L 67.1 171.4 L 68.0 171.7 L 68.9 171.9 L 70.2 172.0 L 177.6 172.0 L 183.6 147.0 L 185.6 147.0 L 183.6 172.0 L 187.2 174.4 L 189.6 178.0 L 187.2 181.6 L 183.6 184.0 L 70.2 184.0 Z M 172.3 59.8 L 173.9 63.1 L 170.05217390060426 63.1 L 167.6 66.7 L 162.4 72.9 L 156.7 78.6 L 150.6 83.7 L 144.0 88.2 L 137.1 92.0 L 129.7 95.3 L 121.9 97.9 L 113.7 99.7 L 105.1 100.8 L 104.7 99.1 L 112.6 96.1 L 120.0 92.8 L 126.9 89.3 L 133.3 85.4 L 139.2 81.2 L 144.6 76.5 L 149.6 71.5 L 154.1 66.0 L 158.3 60.1 L 161.9 53.8 L 161.9369668006897 53.82132701873779 L 162.5 52.9 Z M 30.5 75.0 L 30.5 100.0 L 50.1 100.0 L 50.1 75.0 Z M 62.1 75.0 L 62.1 100.0 L 82.7 100.0 L 82.7 75.0 Z M 120.5 62.0 L 132.5 62.0 L 133.7 61.9 L 134.6 61.7 L 135.5 61.4 L 135.9 61.0 L 136.2 60.1 L 136.4 59.2 L 136.5 58.0 L 136.5 12.5 L 148.5 14.5 L 151.5 16.5 L 148.5 18.3 L 148.5 58.0 L 148.3 60.5 L 147.9 63.0 L 147.1 65.4 L 145.8 67.7 L 144.2 69.7 L 142.2 71.3 L 139.9 72.6 L 137.5 73.4 L 135.0 73.8 L 132.5 74.0 L 132.5 68.0 L 120.5 65.0 Z M 30.5 42.0 L 30.5 71.0 L 50.1 71.0 L 50.1 42.0 Z M 62.1 42.0 L 62.1 71.0 L 82.7 71.0 L 82.7 42.0 Z M 129.5 32.4 L 131.9 35.1 L 128.08892698287963 36.25693283081055 L 128.0 36.5 L 126.2 40.5 L 124.1 44.4 L 121.8 48.2 L 119.3 51.8 L 116.5 55.3 L 113.4 58.6 L 110.1 61.8 L 106.5 64.7 L 102.7 67.6 L 101.4 66.3 L 104.1 62.5 L 106.4 58.7 L 108.6 54.9 L 110.5 51.3 L 112.3 47.6 L 113.9 44.0 L 115.2 40.3 L 116.3 36.7 L 117.2 33.1 L 117.70739603042603 30.41804971694946 L 117.6 30.4 L 118.3 27.7 Z M 170.9 49.7 L 169.5 47.1 L 168.0 44.5 L 166.3 42.0 L 164.4 39.5 L 162.3 36.9 L 160.1 34.3 L 157.8 31.6 L 155.1 29.2 L 156.1 27.7 L 159.4 29.4 L 162.8 30.9 L 165.9 32.7 L 168.9 34.6 L 171.8 36.6 L 174.5 38.8 L 177.0 41.1 L 179.4 43.6 L 181.6 46.2 L 183.7 48.9 L 184.2 53.4 L 181.4 57.1 L 176.9 57.6 L 173.3 54.8 L 172.2 52.2 Z " />
</g>
</svg>
