<svg xmlns="http://www.w3.org/2000/svg" xmlns:xlink="http://www.w3.org/1999/xlink" version="1.1" baseProfile="full" viewBox="0 0 200 200" width="200" height="200">
<g fill="black">
<path d="M 126.6 113.6 L 129.3 116.0 L 125.89737472534179 117.54081144332886 L 124.3 126.5 L 121.2 138.2 L 117.3 148.8 L 112.5 158.3 L 106.8 166.7 L 100.4 173.8 L 93.1 179.6 L 85.1 184.1 L 76.4 187.2 L 67.0 188.8 L 66.7 187.1 L 75.1 183.6 L 82.5 179.4 L 89.1 174.4 L 94.9 168.5 L 99.9 161.7 L 104.3 154.0 L 107.9 145.2 L 110.9 135.3 L 113.1 124.3 L 114.7 112.2 L 114.9 110.2 Z M 68.8 177.1 L 67.4 179.1 L 65.7 180.9 L 63.7 182.5 L 61.6 183.8 L 59.3 184.8 L 57.0 185.4 L 54.5 185.8 L 52.0 186.0 L 52.0 180.0 L 36.0 177.0 L 36.0 174.0 L 52.0 174.0 L 53.3 173.9 L 54.4 173.7 L 55.4 173.4 L 56.2 173.1 L 56.8 172.7 L 57.5 172.2 L 58.0 171.6 L 58.6 170.8 L 59.2 169.7 L 59.7 168.5 L 60.7 164.9 L 61.8 160.1 L 62.7 154.3 L 63.4 147.5 L 64.1 139.7 L 64.5 130.9 L 64.9 121.1 L 65.0 110.4 L 65.1 98.7 L 65.07848262786865 95.96729888916016 L 65.0 96.0 L 65.0 88.0 L 47.654676246643064 88.0 L 47.4 93.9 L 46.2 107.1 L 44.5 119.7 L 42.2 131.5 L 39.3 142.7 L 35.8 153.2 L 31.8 163.0 L 27.1 172.0 L 21.7 180.2 L 15.7 187.5 L 14.2 186.4 L 18.5 178.2 L 22.3 169.6 L 25.7 160.6 L 28.6 150.9 L 31.1 140.7 L 33.1 129.8 L 34.5 118.3 L 35.5 106.2 L 36.0 93.4 L 36.0 53.0 L 48.0 55.0 L 51.0 57.0 L 48.0 58.8 L 48.0 80.0 L 47.82733812332153 84.0 L 65.0 84.0 L 71.0 79.0 L 82.0 88.0 L 77.0 91.0 L 76.9798189163208 91.00840883255005 L 77.1 98.7 L 77.0 110.5 L 76.9 121.4 L 76.5 131.4 L 76.0 140.5 L 75.4 148.6 L 74.6 155.9 L 73.6 162.3 L 72.4 167.8 L 71.0 172.6 L 70.0 174.9 Z M 146.9 182.8 L 144.4 182.4 L 142.0 181.6 L 139.7 180.3 L 137.7 178.7 L 136.1 176.7 L 134.8 174.4 L 134.0 172.0 L 133.6 169.5 L 133.5 167.0 L 133.5 108.0 L 104.8 108.0 L 104.8 120.0 L 92.8 126.0 L 92.8 35.0 L 104.8 41.0 L 120.609375 41.0 L 121.3 39.3 L 122.3 36.1 L 123.3 33.0 L 124.3 30.0 L 125.3 27.1 L 126.2 24.4 L 127.0 21.7 L 127.8 19.2 L 128.5 16.7 L 128.91354818344115 15.341198921203613 L 128.8 15.3 L 129.7 13.2 L 140.1 19.4 L 142.0 22.4 L 137.62647314071654 22.927839469909667 L 137.1 23.7 L 135.5 26.0 L 133.8 28.3 L 132.0 30.7 L 130.1 33.1 L 128.1 35.6 L 125.9 38.1 L 123.6 40.6 L 123.3 41.0 L 165.4 41.0 L 171.4 36.0 L 182.4 45.0 L 177.4 49.0 L 177.4 108.0 L 165.4 114.0 L 165.4 108.0 L 139.5 108.0 L 145.5 109.0 L 148.5 111.0 L 145.5 112.8 L 145.5 143.19444446563722 L 146.0 143.0 L 148.3 142.6 L 150.7 142.3 L 151.8412268638611 142.11740369796752 L 152.3 139.9 L 152.9 137.1 L 154.1 131.7 L 154.6 129.1 L 155.2 126.5 L 155.7 123.9 L 156.1 121.4 L 156.3440492630005 119.9357045173645 L 156.2 119.9 L 157.0 117.5 L 167.9 122.8 L 170.1 125.7 L 165.84381189346314 126.59603958129883 L 165.3 127.6 L 163.9 129.9 L 162.5 132.3 L 161.0 134.7 L 159.4 137.0 L 157.7 139.3 L 155.91904764175416 141.57566137313842 L 158.4 141.3 L 161.2 141.0 L 164.1 140.8 L 167.1 140.6 L 169.31176471710205 140.6 L 169.3 140.4 L 169.1 138.7 L 168.8 137.1 L 168.4 135.4 L 168.0 133.6 L 167.0 132.3 L 168.3 131.1 L 169.6 132.3 L 171.3 133.3 L 172.8 134.5 L 174.3 135.9 L 175.7 137.4 L 177.0 139.1 L 178.2 140.9 L 179.3 142.8 L 180.3 144.8 L 181.2 147.0 L 180.1 151.4 L 176.3 153.9 L 171.8 152.8 L 169.3 149.0 L 169.5 147.2 L 169.5 143.8 L 169.49263162612914 143.6747368812561 L 168.1 144.5 L 165.5 145.8 L 163.0 147.2 L 160.6 148.4 L 158.2 149.7 L 156.0 150.9 L 154.15307817459106 151.91580696105956 L 153.0 156.4 L 150.1 154.2 L 145.5 146.01355934143066 L 145.5 168.2 L 145.7 169.1 L 146.0 170.0 L 146.4 170.4 L 147.3 170.7 L 148.2 170.9 L 149.5 171.0 L 176.4 171.0 L 182.4 146.0 L 184.4 146.0 L 182.4 171.0 L 186.0 173.4 L 188.4 177.0 L 186.0 180.6 L 182.4 183.0 L 149.5 183.0 Z M 104.8 76.0 L 104.8 104.0 L 129.1 104.0 L 129.1 76.0 Z M 141.1 76.0 L 141.1 104.0 L 165.4 104.0 L 165.4 76.0 Z M 104.8 45.0 L 104.8 72.0 L 129.1 72.0 L 129.1 45.0 Z M 141.1 45.0 L 141.1 72.0 L 165.4 72.0 L 165.4 45.0 Z M 15.0 49.0 L 43.0 49.0 L 43.0 16.0 L 55.0 18.0 L 58.0 20.0 L 55.0 21.8 L 55.0 49.0 L 67.0 49.0 L 77.0 39.0 L 89.0 49.0 L 89.0 53.0 L 15.0 53.0 Z " />
</g>
</svg>
