<svg xmlns="http://www.w3.org/2000/svg" xmlns:xlink="http://www.w3.org/1999/xlink" version="1.1" baseProfile="full" viewBox="0 0 200 200" width="200" height="200">
<g fill="black">
<path d="M 49.8 114.7 L 52.5 117.1 L 49.090855026245116 118.57944030761719 L 48.1 124.0 L 45.9 132.8 L 43.3 141.3 L 40.3 149.4 L 36.8 157.1 L 32.9 164.4 L 28.6 171.2 L 23.7 177.6 L 18.4 183.4 L 12.6 188.6 L 11.3 187.3 L 15.5 181.0 L 19.3 174.5 L 22.9 167.8 L 26.1 160.9 L 29.0 153.8 L 31.5 146.3 L 33.7 138.5 L 35.4 130.4 L 36.8 122.0 L 37.77461462020874 114.20308322906494 L 37.7 114.2 L 38.1 111.1 Z M 182.0 148.0 L 184.0 148.0 L 182.0 173.0 L 185.6 175.4 L 188.0 179.0 L 185.6 182.6 L 182.0 185.0 L 70.0 185.0 L 67.4 184.8 L 64.9 184.4 L 62.5 183.6 L 60.2 182.3 L 58.2 180.7 L 56.6 178.7 L 55.3 176.4 L 54.5 174.0 L 54.1 171.5 L 54.0 169.0 L 54.0 104.4 L 31.6 104.4 L 31.6 116.4 L 19.6 122.4 L 19.6 33.3 L 31.6 39.3 L 45.121875 39.3 L 45.8 36.2 L 46.5 33.1 L 47.2 30.1 L 48.6 24.3 L 49.8 18.9 L 50.758805179595946 14.745177364349365 L 50.6 14.7 L 51.5 12.4 L 62.2 18.0 L 64.3 21.0 L 60.01948881149292 21.73801918029785 L 58.0 25.2 L 53.2 32.7 L 51.4 35.3 L 49.5 37.9 L 48.423076915740964 39.3 L 83.8 39.3 L 89.3 34.3 L 99.8 43.3 L 94.8 46.8 L 94.8 104.4 L 83.8 109.9 L 83.8 104.4 L 56.4 104.4 L 66.0 106.0 L 69.0 108.0 L 66.0 109.8 L 66.0 151.48421049118042 L 66.9 151.2 L 68.1 151.3 L 69.6 151.2 L 71.6 151.1 L 73.35121240615845 150.87158098220826 L 73.6 149.6 L 74.3 145.1 L 75.1 140.7 L 75.8 136.5 L 76.6 132.5 L 77.3 128.6 L 78.0 124.8 L 78.7 121.1 L 79.3 117.6 L 79.64925231933594 115.225084400177 L 79.5 115.2 L 80.2 112.5 L 91.4 117.2 L 93.8 119.9 L 90.00645160675049 120.98387098312378 L 87.4 127.5 L 85.9 131.1 L 84.3 134.9 L 82.6 138.7 L 80.8 142.6 L 78.8 146.6 L 76.6521821975708 150.5051233291626 L 76.7 150.5 L 79.9 150.1 L 83.6 149.6 L 87.6 149.0 L 92.2 148.4 L 93.67326736450195 148.09306926727294 L 93.5 147.4 L 92.7 144.8 L 91.8 142.1 L 90.8 139.2 L 89.7 136.1 L 88.1 133.2 L 89.6 132.2 L 91.8 134.8 L 94.2 137.1 L 96.3 139.4 L 98.3 141.7 L 100.1 144.0 L 101.8 146.3 L 103.2 148.6 L 104.6 150.8 L 105.7 153.1 L 106.7 155.4 L 105.8 159.9 L 102.1 162.5 L 97.6 161.6 L 95.0 157.9 L 95.0 156.1 L 94.8 154.2 L 94.5 152.0 L 94.20701103210449 150.38856086730956 L 92.9 150.9 L 88.8 153.0 L 85.1 154.7 L 81.8 156.3 L 78.9 157.8 L 76.5 159.0 L 74.86962728500366 159.8540047645569 L 73.5 164.9 L 70.7 162.6 L 66.0 153.69473686218262 L 66.0 170.2 L 66.2 171.1 L 66.5 172.0 L 66.9 172.4 L 67.8 172.7 L 68.7 172.9 L 70.0 173.0 L 176.0 173.0 Z M 159.7 114.8 L 162.7 116.8 L 159.7 118.6 L 159.7 161.4 L 147.7 167.4 L 147.7 112.8 Z M 133.1 114.8 L 136.1 116.8 L 133.1 118.6 L 133.1 125.6 L 132.5 132.0 L 131.4 137.9 L 129.6 143.4 L 127.3 148.4 L 124.4 152.9 L 121.0 156.8 L 117.1 160.1 L 112.7 162.7 L 107.9 164.5 L 102.7 165.8 L 102.1 164.1 L 106.3 161.4 L 109.9 158.4 L 112.9 155.3 L 115.4 152.0 L 117.4 148.5 L 119.0 144.6 L 120.1 140.5 L 120.9 135.9 L 121.2 131.0 L 121.1 125.6 L 121.1 112.8 Z M 165.3 118.1 L 161.2 114.8 L 157.2 111.3 L 153.4 107.4 L 149.9 103.3 L 146.5 98.9 L 143.4 94.1 L 141.3084921836853 90.36516466140748 L 137.6 95.5 L 133.4 100.5 L 129.0 105.2 L 124.4 109.6 L 119.5 113.5 L 114.4 117.1 L 109.1 120.3 L 103.4 122.9 L 97.6 125.0 L 96.8 123.4 L 101.5 119.7 L 106.0 115.8 L 110.4 111.9 L 114.5 107.8 L 118.4 103.6 L 122.1 99.1 L 125.5 94.3 L 128.8 89.3 L 131.8 84.1 L 132.59090909957885 82.6 L 116.5 82.6 L 116.5 94.6 L 105.5 100.1 L 105.5 21.7 L 116.5 27.2 L 162.0 27.2 L 168.0 22.2 L 179.0 31.2 L 174.0 35.2 L 174.0 86.6 L 162.0 92.6 L 162.0 82.6 L 142.5529411315918 82.6 L 145.2 84.4 L 146.9 87.6 L 145.088618183136 87.66140279769897 L 148.0 90.5 L 151.9 94.1 L 155.8 97.5 L 159.7 100.5 L 163.6 103.4 L 167.6 105.9 L 171.6 108.1 L 175.7 110.1 L 179.8 111.8 L 185.5 114.5 L 174.2 123.8 L 169.7 121.1 Z M 31.6 73.4 L 31.6 100.4 L 51.5 100.4 L 51.5 73.4 Z M 63.5 73.4 L 63.5 100.4 L 83.8 100.4 L 83.8 73.4 Z M 116.5 56.9 L 116.5 78.6 L 133.5 78.6 L 133.5 56.9 Z M 145.5 56.9 L 145.5 78.6 L 162.0 78.6 L 162.0 56.9 Z M 31.6 69.4 L 51.5 69.4 L 51.5 43.3 L 31.6 43.3 Z M 63.5 43.3 L 63.5 69.4 L 83.8 69.4 L 83.8 43.3 Z M 116.5 31.2 L 116.5 52.9 L 133.5 52.9 L 133.5 31.2 Z M 145.5 31.2 L 145.5 52.9 L 162.0 52.9 L 162.0 31.2 Z " />
</g>
</svg>
