<svg xmlns="http://www.w3.org/2000/svg" xmlns:xlink="http://www.w3.org/1999/xlink" version="1.1" baseProfile="full" viewBox="0 0 200 200" width="200" height="200">
<g fill="black">
<path d="M 67.6 183.8 L 65.1 183.4 L 62.7 182.6 L 60.4 181.3 L 58.4 179.7 L 56.8 177.7 L 55.6 175.4 L 54.7 173.0 L 54.3 170.5 L 54.2 168.0 L 54.2 104.0 L 43.890909099578856 104.0 L 48.8 104.9 L 51.9 106.8 L 48.67522039413452 108.79936332702637 L 48.4 117.4 L 47.2 129.1 L 45.3 140.1 L 42.6 150.2 L 39.2 159.5 L 35.0 167.9 L 30.0 175.4 L 24.3 181.9 L 17.8 187.4 L 10.7 191.7 L 9.7 190.2 L 15.3 184.5 L 20.2 178.4 L 24.5 171.7 L 28.2 164.4 L 31.2 156.4 L 33.6 147.7 L 35.4 138.2 L 36.5 128.0 L 37.0 116.9 L 36.8 105.0 L 36.86967935562134 104.99941930770873 L 36.83939390182495 104.0 L 30.5 104.0 L 30.5 116.0 L 18.5 122.0 L 18.5 32.0 L 30.5 38.0 L 41.01538457870483 38.0 L 41.8 36.8 L 43.1 34.0 L 45.5 28.8 L 46.5 26.3 L 47.5 24.0 L 48.3 21.7 L 49.1 19.5 L 49.7 17.4 L 49.97061557769776 16.263414669036866 L 49.8 16.2 L 50.15454549789429 15.490909099578857 L 50.2 15.3 L 50.24052047729492 15.318959140777588 L 50.8 14.2 L 61.1 20.4 L 63.0 23.5 L 58.50784311294556 23.964705848693846 L 58.1 24.5 L 56.4 26.5 L 54.6 28.5 L 52.7 30.5 L 50.7 32.5 L 48.5 34.5 L 46.2 36.5 L 44.11666669845581 38.0 L 82.7 38.0 L 88.7 33.0 L 98.5 41.018181800842285 L 98.5 39.4 L 132.0 39.4 L 132.0 14.3 L 143.0 16.3 L 145.7 18.3 L 143.0 20.02340421676636 L 143.0 39.4 L 155.4 39.4 L 165.4 29.4 L 177.4 39.4 L 177.4 43.4 L 143.0 43.4 L 143.0 61.9 L 155.7 61.9 L 161.7 56.9 L 172.7 65.9 L 167.7 69.9 L 167.7 108.8 L 155.7 114.8 L 155.7 102.8 L 143.0 102.8 L 143.0 106.3 L 144.4 109.1 L 147.7 115.3 L 151.0 121.1 L 154.4 126.5 L 157.8 131.3 L 161.4 135.7 L 165.1 139.5 L 168.8 142.9 L 172.7 145.9 L 176.7 148.3 L 180.5 150.8 L 169.4 159.4 L 164.9 155.6 L 160.7 151.5 L 156.8 146.8 L 153.2 141.8 L 150.0 136.4 L 147.1 130.5 L 144.5 124.2 L 143.0 119.7 L 143.0 163.7 L 132.0 169.2 L 132.0 125.38000001907349 L 131.3 126.9 L 127.4 134.0 L 123.4 140.5 L 119.1 146.4 L 114.6 151.7 L 109.9 156.4 L 105.1320930480957 160.13953485488892 L 104.3 164.3 L 100.5 166.9 L 96.1 166.0 L 93.5 162.2 L 93.2 159.0 L 92.8 155.8 L 92.3 152.7 L 92.07714281082153 151.54857139587403 L 89.6 153.2 L 86.9 154.9 L 84.3 156.6 L 81.7 158.1 L 79.1 159.7 L 74.1 162.5 L 73.28901100158691 162.97307691574096 L 72.3 167.3 L 69.3 165.2 L 66.2 159.8639344215393 L 66.2 169.2 L 66.4 170.1 L 66.6 170.7 L 66.8 171.0 L 66.9 171.2 L 67.1 171.4 L 68.0 171.7 L 68.9 171.9 L 70.2 172.0 L 177.6 172.0 L 183.6 147.0 L 185.6 147.0 L 183.6 172.0 L 187.2 174.4 L 189.6 178.0 L 187.2 181.6 L 183.6 184.0 L 70.2 184.0 Z M 94.7 46.0 L 94.7 104.0 L 82.7 110.0 L 82.7 104.0 L 60.2 104.0 L 66.2 105.0 L 69.2 107.0 L 66.2 108.8 L 66.2 153.74615383148193 L 67.7 153.4 L 70.4 152.8 L 72.15159816741944 152.4872145652771 L 72.7 148.1 L 73.5 143.5 L 74.2 138.9 L 75.0 134.4 L 75.7 129.9 L 76.5 125.5 L 77.2 121.1 L 77.9 116.8 L 78.44877052307129 113.50737705230713 L 78.4 113.5 L 79.0 110.8 L 90.3 115.3 L 92.7 117.9 L 89.03333330154419 119.1 L 88.9 119.5 L 87.6 123.7 L 86.1 128.0 L 84.6 132.2 L 83.0 136.5 L 81.3 140.9 L 79.5 145.2 L 77.6 149.5 L 76.61026086807252 151.57373914718627 L 78.9 151.1 L 81.9 150.5 L 85.0 149.9 L 88.1 149.4 L 91.3 148.9 L 91.52362203598022 148.84409446716307 L 91.0 146.6 L 90.3 143.7 L 88.7 137.9 L 87.8 135.0 L 86.5 132.3 L 88.0 131.2 L 90.1 133.5 L 92.3 135.8 L 94.4 138.2 L 96.3 140.9 L 98.1 143.7 L 99.8 146.7 L 101.3 149.8 L 102.8 153.0 L 103.79631433486938 155.52910566329956 L 105.9 152.8 L 109.5 147.7 L 112.9 142.1 L 116.1 136.2 L 119.2 129.7 L 122.1 122.8 L 124.8 115.4 L 127.4 107.5 L 128.66268653869628 102.8 L 119.2 102.8 L 119.2 114.8 L 108.2 120.3 L 108.2 56.4 L 119.2 61.9 L 132.0 61.9 L 132.0 43.4 L 98.5 43.4 L 98.5 42.96000003814697 Z M 30.5 75.0 L 30.5 100.0 L 50.1 100.0 L 50.1 75.0 Z M 62.1 75.0 L 62.1 100.0 L 82.7 100.0 L 82.7 75.0 Z M 119.2 65.9 L 119.2 98.8 L 132.0 98.8 L 132.0 65.9 Z M 143.0 65.9 L 143.0 98.8 L 155.7 98.8 L 155.7 65.9 Z M 30.5 42.0 L 30.5 71.0 L 50.1 71.0 L 50.1 42.0 Z M 62.1 42.0 L 62.1 71.0 L 82.7 71.0 L 82.7 42.0 Z " />
</g>
</svg>
