<svg xmlns="http://www.w3.org/2000/svg" xmlns:xlink="http://www.w3.org/1999/xlink" version="1.1" baseProfile="full" viewBox="0 0 200 200" width="200" height="200">
<g fill="black">
<path d="M 168.0 18.0 L 171.0 20.0 L 168.0 21.8 L 168.0 181.0 L 156.0 187.0 L 156.0 16.0 Z M 67.0 76.0 L 100.0 76.0 L 100.0 52.0 L 69.0 52.0 L 69.0 48.0 L 100.0 48.0 L 100.0 27.0 L 67.0 27.0 L 67.0 23.0 L 124.0 23.0 L 134.0 13.0 L 146.0 23.0 L 146.0 27.0 L 112.0 27.0 L 112.0 48.0 L 122.0 48.0 L 132.0 38.0 L 144.0 48.0 L 144.0 52.0 L 112.0 52.0 L 112.0 76.0 L 124.0 76.0 L 134.0 66.0 L 146.0 76.0 L 146.0 80.0 L 67.0 80.0 Z " />
</g>
</svg>
