<svg xmlns="http://www.w3.org/2000/svg" xmlns:xlink="http://www.w3.org/1999/xlink" version="1.1" baseProfile="full" viewBox="0 0 200 200" width="200" height="200">
<g fill="black">
<path d="M 49.8 114.7 L 52.5 117.1 L 49.090855026245116 118.57944030761719 L 48.1 124.0 L 45.9 132.8 L 43.3 141.3 L 40.3 149.4 L 36.8 157.1 L 32.9 164.4 L 28.6 171.2 L 23.7 177.6 L 18.4 183.4 L 12.6 188.6 L 11.3 187.3 L 15.5 181.0 L 19.3 174.5 L 22.9 167.8 L 26.1 160.9 L 29.0 153.8 L 31.5 146.3 L 33.7 138.5 L 35.4 130.4 L 36.8 122.0 L 37.77461462020874 114.20308322906494 L 37.7 114.2 L 38.1 111.1 Z M 94.8 154.2 L 94.5 152.0 L 94.20701103210449 150.38856086730956 L 92.9 150.9 L 88.8 153.0 L 85.1 154.7 L 81.8 156.3 L 78.9 157.8 L 76.5 159.0 L 74.86962728500366 159.8540047645569 L 73.5 164.9 L 70.7 162.6 L 66.0 153.69473686218262 L 66.0 170.2 L 66.2 171.1 L 66.5 172.0 L 66.9 172.4 L 67.8 172.7 L 68.7 172.9 L 70.0 173.0 L 176.0 173.0 L 182.0 148.0 L 184.0 148.0 L 182.0 173.0 L 185.6 175.4 L 188.0 179.0 L 185.6 182.6 L 182.0 185.0 L 70.0 185.0 L 67.4 184.8 L 64.9 184.4 L 62.5 183.6 L 60.2 182.3 L 58.2 180.7 L 56.6 178.7 L 55.3 176.4 L 54.5 174.0 L 54.1 171.5 L 54.0 169.0 L 54.0 104.4 L 31.6 104.4 L 31.6 116.4 L 19.6 122.4 L 19.6 33.3 L 31.6 39.3 L 45.121875 39.3 L 45.8 36.2 L 46.5 33.1 L 47.2 30.1 L 48.6 24.3 L 49.8 18.9 L 50.758805179595946 14.745177364349365 L 50.6 14.7 L 51.5 12.4 L 62.2 18.0 L 64.3 21.0 L 60.01948881149292 21.73801918029785 L 58.0 25.2 L 53.2 32.7 L 51.4 35.3 L 49.5 37.9 L 48.423076915740964 39.3 L 83.8 39.3 L 89.3 34.3 L 99.8 43.3 L 94.8 46.8 L 94.8 104.4 L 83.8 109.9 L 83.8 104.4 L 56.4 104.4 L 66.0 106.0 L 69.0 108.0 L 66.0 109.8 L 66.0 151.48421049118042 L 66.9 151.2 L 68.1 151.3 L 69.6 151.2 L 71.6 151.1 L 73.35121240615845 150.87158098220826 L 73.6 149.6 L 74.3 145.1 L 75.1 140.7 L 75.8 136.5 L 76.6 132.5 L 77.3 128.6 L 78.0 124.8 L 78.7 121.1 L 79.3 117.6 L 79.64925231933594 115.225084400177 L 79.5 115.2 L 80.2 112.5 L 91.4 117.2 L 93.8 119.9 L 90.00645160675049 120.98387098312378 L 87.4 127.5 L 85.9 131.1 L 84.3 134.9 L 82.6 138.7 L 80.8 142.6 L 78.8 146.6 L 76.6521821975708 150.5051233291626 L 76.7 150.5 L 79.9 150.1 L 83.6 149.6 L 87.6 149.0 L 92.2 148.4 L 93.67326736450195 148.09306926727294 L 93.5 147.4 L 92.7 144.8 L 91.8 142.1 L 90.8 139.2 L 89.7 136.1 L 88.1 133.2 L 89.6 132.2 L 91.8 134.8 L 94.2 137.1 L 96.3 139.4 L 98.3 141.7 L 100.1 144.0 L 101.8 146.3 L 103.2 148.6 L 104.6 150.8 L 105.7 153.1 L 106.7 155.4 L 105.8 159.9 L 102.1 162.5 L 97.6 161.6 L 95.0 157.9 L 95.0 156.1 Z M 144.3 148.7 L 141.9 148.3 L 139.5 147.5 L 137.3 146.3 L 135.4 144.7 L 133.8 142.8 L 132.6 140.6 L 131.9 138.3 L 131.4 135.9 L 131.3 133.4 L 131.3 118.5 L 118.0 118.5 L 118.0 130.5 L 108.0 135.5 L 108.0 75.4967212677002 L 106.5 76.8 L 100.0 81.6 L 98.8 80.3 L 103.8 74.1 L 108.0 68.675 L 108.0 68.4 L 108.15348834991455 68.47674417495728 L 108.6 67.9 L 113.1 61.6 L 117.2 55.2 L 121.0 48.6 L 124.5 41.7 L 125.474285697937 39.5 L 102.1 39.5 L 102.1 35.5 L 127.2457142829895 35.5 L 127.6 34.7 L 130.4 27.5 L 132.8 20.0 L 134.8 12.3 L 134.86430549621582 12.31829376220703 L 135.3 10.7 L 146.4 15.6 L 148.7 18.3 L 145.06110019683837 19.33968563079834 L 143.5 23.7 L 140.3 31.5 L 138.3800000190735 35.5 L 160.4 35.5 L 170.4 25.5 L 182.4 35.5 L 182.4 39.5 L 148.75625 39.5 L 151.3 42.8 L 154.9 47.3 L 158.4 51.5 L 161.9 55.4 L 165.5 58.9 L 169.2 62.2 L 173.0 65.1 L 176.8 67.7 L 180.8 70.0 L 184.8 72.0 L 189.7 74.7 L 178.5 83.6 L 174.0 80.5 L 171.18738737106324 78.29009008407593 L 167.3 81.4 L 167.3 122.5 L 155.3 128.5 L 155.3 118.5 L 142.3 118.5 L 142.3 133.4 L 142.4 134.7 L 142.5 135.6 L 142.7 136.3 L 143.0 136.7 L 143.2 137.0 L 143.4 137.2 L 143.9 137.4 L 144.5 137.6 L 145.5 137.8 L 146.8 137.9 L 174.1 137.9 L 179.6 116.9 L 181.6 116.9 L 179.6 137.9 L 182.9 140.1 L 185.1 143.4 L 182.9 146.7 L 179.6 148.9 L 146.8 148.9 Z M 118.0 98.0 L 118.0 114.5 L 131.3 114.5 L 131.3 98.0 Z M 142.3 98.0 L 142.3 114.5 L 155.3 114.5 L 155.3 98.0 Z M 31.6 73.4 L 31.6 100.4 L 51.5 100.4 L 51.5 73.4 Z M 63.5 73.4 L 63.5 100.4 L 83.8 100.4 L 83.8 73.4 Z M 118.0 77.4 L 118.0 94.0 L 131.3 94.0 L 131.3 77.4 Z M 142.3 77.4 L 142.3 94.0 L 155.3 94.0 L 155.3 77.4 Z M 136.41830987930297 39.5 L 132.7 46.1 L 128.3 53.0 L 123.5 59.5 L 118.2 65.7 L 113.12093019485474 70.96046514511109 L 118.0 73.4 L 131.3 73.4 L 131.3 52.3 L 142.3 54.3 L 145.0 56.3 L 142.3 58.02340421676636 L 142.3 73.4 L 155.3 73.4 L 161.24532709121704 68.44556074142456 L 158.6 65.1 L 155.4 60.5 L 152.4 55.6 L 149.8 50.3 L 147.6 44.7 L 146.10169486999513 39.5 Z M 31.6 69.4 L 51.5 69.4 L 51.5 43.3 L 31.6 43.3 Z M 63.5 43.3 L 63.5 69.4 L 83.8 69.4 L 83.8 43.3 Z " />
</g>
</svg>
