<svg xmlns="http://www.w3.org/2000/svg" xmlns:xlink="http://www.w3.org/1999/xlink" version="1.1" baseProfile="full" viewBox="0 0 200 200" width="200" height="200">
<g fill="black">
<path d="M 34.0 21.0 L 37.0 23.0 L 34.0 24.8 L 34.0 183.0 L 22.0 189.0 L 22.0 19.0 Z M 143.0 177.0 L 163.0 177.0 L 164.2 176.9 L 165.1 176.7 L 166.0 176.4 L 166.4 176.0 L 166.7 175.1 L 166.9 174.2 L 167.0 173.0 L 167.0 18.0 L 179.0 20.0 L 182.0 22.0 L 179.0 23.8 L 179.0 173.0 L 178.8 175.5 L 178.4 178.0 L 177.6 180.4 L 176.3 182.7 L 174.7 184.7 L 172.7 186.3 L 170.4 187.6 L 168.0 188.4 L 165.5 188.8 L 163.0 189.0 L 163.0 183.0 L 143.0 180.0 Z M 77.0 159.7 L 76.3 158.0 L 75.5 156.3 L 74.4 154.5 L 73.1 152.7 L 71.7 150.8 L 70.1 148.8 L 68.3 146.8 L 66.1 145.1 L 67.0 143.6 L 69.5 144.8 L 72.2 145.7 L 74.8 146.7 L 77.2 147.9 L 79.4 149.2 L 81.5 150.6 L 83.5 152.1 L 85.4 153.8 L 87.1 155.6 L 88.6 157.5 L 88.8 162.1 L 85.9 165.5 L 84.36666669845582 165.6 L 108.8 165.6 L 109.9 164.2 L 111.6 161.2 L 113.4 158.4 L 115.0 155.7 L 116.5 153.1 L 117.9 150.7 L 119.2 148.3 L 120.4 146.0 L 121.5 143.9 L 122.02664470672607 142.67116231918334 L 121.9 142.6 L 122.33999996185302 141.93999996185303 L 122.4 141.8 L 122.42304143905639 141.8154377937317 L 122.9 141.1 L 127.2 144.4494736671448 L 127.2 139.1 L 72.7 139.1 L 60.7 145.1 L 60.7 105.5 L 72.7 111.5 L 127.2 111.5 L 133.2 106.5 L 144.2 115.5 L 139.2 119.5 L 139.2 139.1 L 127.70864200592041 144.84567899703978 L 132.4 148.5 L 133.8 151.8 L 129.36050043106079 151.57426271438598 L 128.7 152.2 L 126.7 154.1 L 124.6 156.1 L 122.3 158.0 L 119.9 160.0 L 117.4 162.0 L 114.6 164.0 L 112.28000001907348 165.6 L 137.5 165.6 L 147.5 155.6 L 159.5 165.6 L 159.5 169.6 L 40.5 169.6 L 40.5 165.6 L 81.0666666984558 165.6 L 77.8 162.8 L 77.5 161.3 Z M 72.7 115.5 L 72.7 135.1 L 127.2 135.1 L 127.2 115.5 Z M 154.6 98.2 L 154.6 102.2 L 45.4 102.2 L 45.4 98.2 L 140.37777776718139 98.2 L 146.6 91.2 Z M 38.0 78.0 L 60.0 78.0 L 60.0 55.0 L 41.0 55.0 L 41.0 51.0 L 60.0 51.0 L 60.0 30.0 L 38.0 30.0 L 38.0 26.0 L 75.0 26.0 L 85.0 16.0 L 97.0 26.0 L 97.0 30.0 L 72.0 30.0 L 72.0 51.0 L 76.81818180084228 51.0 L 85.0 42.0 L 95.0 51.0 L 95.0 55.0 L 72.0 55.0 L 72.0 78.0 L 78.81818180084228 78.0 L 87.0 69.0 L 97.0 78.0 L 97.0 82.0 L 38.0 82.0 Z M 104.0 78.0 L 125.0 78.0 L 125.0 54.0 L 105.0 54.0 L 105.0 50.0 L 125.0 50.0 L 125.0 29.0 L 105.0 29.0 L 105.0 25.0 L 142.0 25.0 L 152.0 15.0 L 164.0 25.0 L 164.0 29.0 L 137.0 29.0 L 137.0 50.0 L 142.8181818008423 50.0 L 151.0 41.0 L 161.0 50.0 L 161.0 54.0 L 137.0 54.0 L 137.0 78.0 L 145.8181818008423 78.0 L 154.0 69.0 L 164.0 78.0 L 164.0 82.0 L 104.0 82.0 Z " />
</g>
</svg>
