<svg xmlns="http://www.w3.org/2000/svg" xmlns:xlink="http://www.w3.org/1999/xlink" version="1.1" baseProfile="full" viewBox="0 0 200 200" width="200" height="200">
<g fill="black">
<path d="M 161.4 169.6 L 154.8 159.6 L 149.3 148.6 L 144.8 136.6 L 141.4 123.7 L 138.9 109.9 L 137.73847646713256 97.62103729248047 L 137.6 98.7 L 133.8 115.8 L 128.6 131.4 L 122.0 145.3 L 114.0 157.6 L 104.5 168.2 L 93.8 177.0 L 81.7 184.0 L 68.3 189.0 L 67.7 187.3 L 79.8 180.7 L 90.5 172.8 L 99.8 163.7 L 107.8 153.2 L 114.5 141.4 L 119.9 128.1 L 124.1 113.4 L 127.0 97.1 L 128.7 79.2 L 129.0 59.8 L 129.0 17.7 L 141.0 19.7 L 144.0 21.7 L 141.0 23.5 L 141.0 59.8 L 140.53894357681276 69.11333932876587 L 141.4 79.2 L 143.4 94.5 L 143.51344146728516 95.11520185470582 L 146.2 92.2 L 150.6 87.4 L 154.9 82.9 L 158.8 78.7 L 162.4 74.8 L 165.7 71.1 L 168.6 67.7 L 171.2 64.4 L 173.5 61.5 L 174.87240858078002 59.549735164642335 L 174.8 59.5 L 175.8 58.2 L 184.7 66.3 L 185.8 69.8 L 181.81230773925782 69.18122014999389 L 179.1 71.8 L 175.8 74.7 L 172.2 77.8 L 168.2 81.0 L 163.9 84.3 L 159.2 87.8 L 154.1 91.4 L 148.6 95.1 L 144.02534847259523 97.891312789917 L 146.0 108.6 L 149.4 121.6 L 153.6 133.5 L 158.5 144.2 L 164.2 153.8 L 170.6 162.3 L 177.8 169.7 L 185.7 176.1 L 188.6 178.3 L 177.7 186.6 L 169.0 178.6 Z M 13.7 186.7 L 11.2 182.8 L 12.1 178.4 L 13.7 176.4 L 15.3 174.2 L 16.8 171.5 L 18.2 168.5 L 19.5 165.1 L 20.7 161.4 L 21.8 157.3 L 22.8 152.9 L 23.8 148.2 L 24.6 143.1 L 26.4 143.1 L 27.0 148.3 L 27.5 153.3 L 27.7 158.0 L 27.6 162.5 L 27.3 166.8 L 26.7 170.9 L 26.0 174.8 L 24.9 178.4 L 23.6 181.9 L 22.0 185.1 L 18.2 187.6 Z M 57.5 167.1 L 57.2 164.6 L 56.7 162.0 L 56.0 159.4 L 55.2 156.8 L 54.2 154.2 L 53.0 151.6 L 51.7 148.8 L 49.9 146.4 L 51.2 145.1 L 53.6 147.1 L 56.2 149.0 L 58.6 151.2 L 60.7 153.5 L 62.7 156.0 L 64.5 158.6 L 66.1 161.4 L 67.5 164.3 L 68.7 167.4 L 69.6 170.6 L 68.4 175.0 L 64.5 177.4 L 60.1 176.2 L 57.7 172.3 L 57.7 169.7 Z M 42.0 181.3 L 38.0 179.1 L 36.6 174.7 L 37.2 172.6 L 37.6 170.3 L 37.9 167.8 L 38.1 165.2 L 38.1 162.4 L 38.0 159.5 L 37.7 156.4 L 37.3 153.1 L 36.9 149.7 L 36.0 146.3 L 37.6 145.6 L 39.4 148.8 L 41.3 151.8 L 42.9 154.8 L 44.3 157.9 L 45.5 160.9 L 46.6 164.0 L 47.4 167.0 L 48.0 170.0 L 48.4 173.0 L 48.6 176.0 L 46.3 180.0 Z M 76.5 160.3 L 75.6 157.9 L 74.5 155.5 L 73.3 153.2 L 72.0 150.9 L 70.5 148.7 L 69.0 146.3 L 66.9 144.4 L 68.0 142.9 L 70.5 144.4 L 73.2 145.7 L 75.8 147.2 L 78.2 149.0 L 80.5 151.0 L 82.6 153.2 L 84.7 155.6 L 86.5 158.1 L 88.2 160.8 L 89.8 163.7 L 89.5 168.3 L 86.1 171.4 L 81.5 171.1 L 78.5 167.7 L 77.3 162.7 Z M 21.2 137.4 L 21.2 66.55945949554443 L 20.8 67.1 L 16.9 71.7 L 12.8 76.0 L 11.3 74.9 L 13.8 69.6 L 18.8 58.8 L 21.3 53.3 L 23.7 47.6 L 26.0 41.7 L 28.3 35.7 L 30.5 29.5 L 32.6 23.2 L 34.6 16.6 L 34.629894161224364 16.610317420959472 L 35.1 15.2 L 45.9 20.5 L 48.1 23.4 L 44.455304336547854 24.16730432510376 L 43.3 27.1 L 40.5 33.5 L 40.11290321350098 34.3 L 60.6 34.3 L 66.6 29.3 L 77.6 38.3 L 72.6 41.3 L 69.94363632202149 42.40681819915771 L 69.5 43.1 L 67.7 45.7 L 65.7 48.4 L 63.4 51.1 L 60.8 54.0 L 58.0 56.9 L 54.9 59.9 L 51.5 62.9 L 49.69696969985962 64.6 L 69.9 64.6 L 75.9 59.6 L 86.9 68.6 L 81.9 72.6 L 81.9 131.4 L 69.9 137.4 L 69.9 131.4 L 33.2 131.4 Z M 33.2 100.0 L 33.2 127.4 L 45.5 127.4 L 45.5 100.0 Z M 57.5 100.0 L 57.5 127.4 L 69.9 127.4 L 69.9 100.0 Z M 93.3 107.0 L 91.6 102.8 L 93.2 98.6 L 95.3 96.5 L 97.3 94.0 L 99.0 91.0 L 100.5 87.5 L 101.7 83.4 L 102.7 78.8 L 103.3 73.6 L 103.7 68.0 L 103.9 61.8 L 103.8 55.1 L 105.6 54.8 L 107.5 61.3 L 109.0 67.6 L 109.8 73.6 L 110.2 79.3 L 110.0 84.6 L 109.4 89.7 L 108.4 94.5 L 106.7 99.0 L 104.6 103.1 L 101.8 106.9 L 97.6 108.7 Z M 33.2 68.6 L 33.2 96.0 L 45.5 96.0 L 45.5 68.6 Z M 57.5 68.6 L 57.5 96.0 L 69.9 96.0 L 69.9 68.6 Z M 38.177419376373294 38.3 L 37.5 39.7 L 34.5 45.6 L 31.3 51.4 L 28.0 56.8 L 25.418439674377442 60.70921983718872 L 33.2 64.6 L 46.9375 64.6 L 49.3 61.1 L 51.4 57.1 L 53.5 53.5 L 55.3 50.0 L 56.9 46.8 L 58.2 43.9 L 59.3 41.1 L 60.1 38.6 L 60.168181800842284 38.3 Z " />
</g>
</svg>
