<svg xmlns="http://www.w3.org/2000/svg" xmlns:xlink="http://www.w3.org/1999/xlink" version="1.1" baseProfile="full" viewBox="0 0 200 200" width="200" height="200">
<g fill="black">
<path d="M 180.1 148.9 L 180.5 152.5 L 176.92073593139648 151.3286045074463 L 172.9 154.4 L 165.3 159.7 L 157.4 164.5 L 149.1 169.1 L 140.6 173.2 L 131.7 177.0 L 122.4 180.4 L 112.9 183.5 L 102.9 186.0 L 92.7 188.0 L 92.2 186.2 L 101.8 182.4 L 111.1 178.4 L 120.0 174.3 L 128.5 170.1 L 136.7 165.7 L 144.5 161.0 L 152.0 156.1 L 159.1 150.9 L 165.8 145.5 L 172.2 139.8 L 172.23811168670653 139.84390077590942 L 172.4 139.7 Z M 14.5 188.5 L 12.0 184.6 L 12.8 180.1 L 14.4 178.1 L 15.9 175.8 L 17.4 173.1 L 18.8 170.0 L 20.1 166.5 L 21.2 162.7 L 22.3 158.5 L 23.4 154.0 L 24.4 149.2 L 25.2 144.0 L 27.0 144.0 L 27.6 149.3 L 28.1 154.3 L 28.3 159.2 L 28.2 163.8 L 27.9 168.1 L 27.4 172.3 L 26.6 176.2 L 25.6 179.9 L 24.4 183.5 L 22.8 186.8 L 19.0 189.3 Z M 57.4 168.5 L 57.1 165.8 L 56.6 163.2 L 55.9 160.6 L 55.1 157.9 L 54.1 155.3 L 53.0 152.6 L 51.8 149.8 L 50.0 147.3 L 51.3 146.0 L 53.7 148.1 L 56.3 150.1 L 58.6 152.3 L 60.8 154.7 L 62.7 157.2 L 64.5 159.9 L 66.0 162.8 L 67.4 165.8 L 68.6 168.9 L 69.5 172.2 L 68.3 176.6 L 64.4 178.9 L 60.0 177.7 L 57.6 173.8 L 57.6 171.1 Z M 42.2 182.9 L 38.2 180.7 L 36.9 176.4 L 37.4 174.1 L 37.9 171.7 L 38.2 169.2 L 38.3 166.5 L 38.4 163.6 L 38.2 160.6 L 38.0 157.5 L 37.7 154.2 L 37.2 150.7 L 36.3 147.2 L 38.0 146.5 L 39.7 149.8 L 41.6 152.9 L 43.2 156.0 L 44.7 159.1 L 45.8 162.2 L 46.8 165.3 L 47.6 168.4 L 48.2 171.5 L 48.6 174.5 L 48.8 177.6 L 46.6 181.6 Z M 76.8 163.9 L 76.0 161.4 L 75.1 159.0 L 74.1 156.6 L 73.0 154.2 L 71.7 151.9 L 70.3 149.6 L 68.7 147.3 L 66.8 145.3 L 67.8 143.8 L 70.3 145.3 L 73.0 146.7 L 75.5 148.3 L 77.9 150.1 L 80.2 152.2 L 82.3 154.4 L 84.3 156.9 L 86.1 159.5 L 87.8 162.2 L 89.3 165.2 L 89.0 169.7 L 85.6 172.8 L 81.0 172.4 L 78.0 169.0 L 77.4 166.4 Z M 165.8 121.5 L 166.6 125.0 L 162.8453125 124.14366779327392 L 160.1 126.6 L 154.2 131.4 L 148.0 135.8 L 141.6 139.9 L 134.9 143.7 L 128.0 147.0 L 120.8 150.0 L 113.4 152.6 L 105.7 154.6 L 97.8 156.2 L 97.3 154.5 L 104.5 151.1 L 111.4 147.6 L 118.0 144.0 L 124.4 140.3 L 130.6 136.4 L 136.4 132.2 L 142.0 127.8 L 147.3 123.1 L 152.4 118.3 L 156.53052043914795 113.82526960372925 L 156.5 113.8 L 157.5 112.8 Z M 22.2 137.5 L 22.2 65.33513517379761 L 21.5 66.3 L 17.7 71.1 L 13.6 75.5 L 12.1 74.4 L 16.9 63.6 L 19.4 58.1 L 21.8 52.4 L 24.2 46.6 L 26.5 40.6 L 28.7 34.5 L 30.9 28.2 L 32.9 21.7 L 34.60139303207397 16.000333404541017 L 34.6 16.0 L 34.6222222328186 15.930555534362792 L 34.9 15.0 L 34.91807231903076 15.006024074554443 L 35.4 13.5 L 46.3 18.8 L 48.5 21.6 L 44.834775066375734 22.435928535461425 L 43.6 25.5 L 40.9 32.0 L 40.43968257904053 33.0 L 60.5 33.0 L 66.5 28.0 L 77.5 37.0 L 72.5 40.0 L 69.78607597351075 41.13080167770386 L 69.4 41.8 L 67.6 44.5 L 65.6 47.2 L 63.4 50.0 L 60.9 52.9 L 58.1 55.9 L 55.0 59.0 L 51.6 62.1 L 49.7 64.0 L 70.1 64.0 L 75.6 59.0 L 86.1 68.0 L 81.1 71.5 L 81.1 132.0 L 70.1 137.5 L 70.1 132.0 L 33.2 132.0 Z M 33.2 100.0 L 33.2 128.0 L 46.6 128.0 L 46.6 100.0 Z M 56.6 100.0 L 56.6 128.0 L 70.1 128.0 L 70.1 100.0 Z M 151.2 97.3 L 152.1 100.8 L 148.30132036209108 100.06692152023315 L 146.8 101.5 L 142.2 105.5 L 137.5 109.2 L 132.7 112.7 L 127.7 115.9 L 122.6 118.9 L 117.3 121.6 L 111.8 124.0 L 106.2 125.9 L 100.5 127.5 L 99.8 125.8 L 104.6 122.5 L 109.3 119.2 L 113.9 115.9 L 118.4 112.6 L 122.8 109.0 L 127.0 105.4 L 131.0 101.6 L 134.9 97.6 L 138.7 93.5 L 141.70699968338013 90.00537872314453 L 141.7 90.0 L 141.91739130020142 89.76086959838867 L 142.4 89.2 L 142.41484813690187 89.21366701126098 L 142.7 88.9 Z M 168.8 100.3 L 163.8 96.4 L 159.1 92.1 L 154.5 87.4 L 150.2 82.4 L 146.1 77.0 L 142.3 71.3 L 139.13178758621217 65.52267141342163 L 138.9 65.9 L 134.3 72.6 L 129.3 78.9 L 124.1 84.7 L 118.7 90.2 L 112.9 95.1 L 106.9 99.7 L 100.5 103.7 L 93.9 107.1 L 87.0 109.9 L 86.1 108.4 L 91.9 103.9 L 97.4 99.3 L 102.7 94.5 L 107.8 89.5 L 112.6 84.3 L 117.1 78.7 L 121.3 72.8 L 125.3 66.6 L 129.1 60.1 L 132.1356569290161 54.11541919708252 L 132.1 54.1 L 133.1 52.2 L 143.2 58.9 L 144.9 62.0 L 141.79187479019166 62.16076507568359 L 142.3 62.7 L 147.0 67.7 L 151.6 72.3 L 156.3 76.7 L 160.9 80.6 L 165.7 84.3 L 170.4 87.5 L 175.2 90.4 L 180.1 93.0 L 185.1 95.2 L 190.7 97.9 L 179.4 107.1 L 174.0 103.9 Z M 33.2 68.0 L 33.2 96.0 L 46.6 96.0 L 46.6 68.0 Z M 56.6 68.0 L 56.6 96.0 L 70.1 96.0 L 70.1 68.0 Z M 124.5 30.1 L 126.9 32.9 L 123.0434042930603 33.91489362716675 L 122.4 35.6 L 119.9 41.0 L 117.1 46.1 L 113.9 51.0 L 110.4 55.7 L 106.5 60.1 L 102.3 64.3 L 97.7 68.3 L 92.8 71.9 L 87.4 75.1 L 86.3 73.7 L 90.3 69.0 L 94.0 64.5 L 97.4 60.0 L 100.6 55.4 L 103.4 50.8 L 106.0 46.2 L 108.2 41.5 L 110.1 36.6 L 111.7 31.8 L 112.76268510818481 27.712749481201172 L 112.7 27.7 L 113.5 25.1 Z M 171.0 65.8 L 166.8 61.5 L 163.1 56.9 L 159.9 51.9 L 157.3 46.6 L 155.2 40.9 L 153.7 35.0 L 152.9 28.9 L 152.8138461112976 23.3 L 122.5 23.3 L 122.5 19.3 L 148.9 19.3 L 153.7 15.3 L 164.7 24.3 L 159.7 27.3 L 157.19538459777831 28.55230770111084 L 159.3 33.2 L 161.9 38.1 L 164.6 42.6 L 167.7 46.7 L 171.0 50.4 L 174.6 53.7 L 178.4 56.7 L 182.6 59.4 L 187.2 61.7 L 192.1 64.4 L 180.9 73.3 L 175.7 69.8 Z M 38.598412704467776 37.0 L 38.0 38.3 L 35.0 44.4 L 31.9 50.3 L 28.6 55.9 L 25.782857131958007 60.291428565979004 L 33.2 64.0 L 47.05365858078003 64.0 L 49.4 60.3 L 51.5 56.3 L 53.5 52.6 L 55.2 49.1 L 56.8 45.9 L 58.1 42.8 L 59.1 40.0 L 59.9 37.5 L 60.008695697784425 37.0 Z " />
</g>
</svg>
