<svg xmlns="http://www.w3.org/2000/svg" xmlns:xlink="http://www.w3.org/1999/xlink" version="1.1" baseProfile="full" viewBox="0 0 200 200" width="200" height="200">
<g fill="black">
<path d="M 176.4 177.0 L 174.9 179.0 L 173.2 180.8 L 171.3 182.3 L 169.1 183.6 L 166.9 184.6 L 164.5 185.2 L 162.0 185.6 L 159.5 185.8 L 159.5 179.8 L 139.5 176.8 L 139.5 173.8 L 159.5 173.8 L 160.8 173.7 L 162.0 173.5 L 162.9 173.2 L 163.7 172.9 L 164.4 172.5 L 165.1 172.0 L 165.7 171.3 L 166.3 170.5 L 166.9 169.5 L 167.4 168.3 L 168.5 164.7 L 169.5 159.4 L 170.5 152.5 L 171.3 144.2 L 172.1 134.4 L 172.7 123.1 L 173.2 110.4 L 173.5 96.2 L 173.7 80.6 L 173.78823528289794 65.6 L 160.98770055770873 65.6 L 160.4 81.3 L 159.1 98.8 L 157.1 114.9 L 154.5 129.7 L 151.1 143.2 L 147.1 155.3 L 142.3 166.1 L 136.7 175.5 L 130.5 183.3 L 123.5 189.5 L 122.2 188.2 L 127.5 181.0 L 132.1 172.7 L 136.3 163.4 L 139.9 152.9 L 142.9 141.1 L 145.3 128.0 L 147.2 113.6 L 148.4 97.9 L 149.1 80.9 L 149.1 65.6 L 132.4 65.6 L 132.4 61.6 L 149.1 61.6 L 149.1 16.1 L 161.1 18.1 L 164.1 20.1 L 161.1 21.9 L 161.1 61.6 L 173.8 61.6 L 179.8 56.6 L 190.8 65.6 L 185.8 68.6 L 185.77068881988527 68.6122130393982 L 185.7 80.7 L 185.5 96.4 L 185.1 110.7 L 184.7 123.6 L 184.1 135.1 L 183.3 145.2 L 182.4 154.0 L 181.3 161.4 L 180.1 167.5 L 178.6 172.5 L 177.6 174.8 Z M 91.9 118.0 L 115.5 118.0 L 121.5 113.0 L 132.5 122.0 L 127.5 126.0 L 127.5 172.0 L 115.5 178.0 L 115.5 172.0 L 91.9 172.0 L 91.9 184.0 L 80.9 189.5 L 80.9 112.5 Z M 13.1 182.6 L 10.1 179.2 L 10.3 174.6 L 11.5 172.8 L 12.7 170.7 L 13.9 168.2 L 14.9 165.5 L 16.0 162.4 L 17.0 159.1 L 17.9 155.5 L 18.8 151.6 L 19.7 147.4 L 20.3 143.0 L 22.1 143.0 L 22.6 147.5 L 23.2 151.8 L 23.5 155.9 L 23.7 159.9 L 23.7 163.6 L 23.5 167.2 L 23.2 170.6 L 22.7 173.9 L 22.0 176.9 L 21.1 179.9 L 17.7 182.9 Z M 45.9 160.1 L 45.6 157.6 L 45.2 155.0 L 44.7 152.5 L 44.1 149.9 L 43.4 147.4 L 42.7 144.7 L 41.4 142.3 L 42.9 141.2 L 44.8 143.4 L 46.8 145.4 L 48.8 147.5 L 50.5 149.8 L 52.1 152.3 L 53.6 154.8 L 54.9 157.5 L 56.1 160.3 L 57.2 163.1 L 58.1 166.1 L 57.0 170.5 L 53.1 172.9 L 48.7 171.8 L 46.3 167.9 L 46.1 162.7 Z M 35.5 176.9 L 31.4 174.9 L 29.8 170.6 L 30.3 168.5 L 30.7 166.3 L 30.9 163.9 L 31.0 161.4 L 31.0 158.7 L 30.9 155.9 L 30.7 152.9 L 30.4 149.8 L 30.1 146.5 L 29.2 143.2 L 30.9 142.5 L 32.5 145.6 L 34.3 148.5 L 35.9 151.4 L 37.2 154.3 L 38.4 157.2 L 39.4 160.0 L 40.3 162.9 L 41.0 165.7 L 41.5 168.5 L 41.8 171.3 L 39.8 175.4 Z M 91.9 122.0 L 91.9 168.0 L 115.5 168.0 L 115.5 122.0 Z M 62.9 159.6 L 62.0 157.1 L 61.1 154.7 L 60.1 152.3 L 59.1 150.0 L 58.0 147.7 L 56.9 145.5 L 55.9 143.2 L 54.4 141.3 L 55.7 140.0 L 57.7 141.5 L 59.9 142.9 L 62.1 144.4 L 64.2 146.2 L 66.2 148.1 L 68.2 150.1 L 70.1 152.3 L 71.9 154.6 L 73.7 157.1 L 75.5 159.7 L 75.7 164.2 L 72.6 167.7 L 68.1 167.8 L 64.6 164.8 L 63.8 162.2 Z M 18.0 137.8 L 18.0 72.37368421554565 L 15.1 76.8 L 10.9 82.4 L 9.4 81.5 L 11.8 75.0 L 14.1 68.6 L 16.4 62.3 L 18.6 55.9 L 20.6 49.5 L 22.4 43.0 L 24.0 36.6 L 25.5 30.0 L 26.8 23.4 L 27.732737255096435 17.803576374053954 L 27.7 17.8 L 28.2 14.9 L 39.6 19.1 L 42.2 21.6 L 38.66758317947388 22.88451519012451 L 37.9 26.0 L 35.9 32.7 L 35.47313432693481 34.0 L 50.9 34.0 L 56.9 29.0 L 67.9 38.0 L 62.9 41.0 L 60.5 42.0 L 59.6 43.8 L 58.1 46.7 L 54.7 52.5 L 52.9 55.3 L 51.0 58.1 L 49.0 60.9 L 46.9 63.6 L 46.69642858505249 63.9 L 62.8 63.9 L 67.8 58.9 L 77.8 67.9 L 72.8 70.9 L 72.8 132.3 L 62.8 137.3 L 62.8 132.3 L 29.0 132.3 Z M 29.0 99.6 L 29.0 128.3 L 40.7 128.3 L 40.7 99.6 Z M 50.7 99.6 L 50.7 128.3 L 62.8 128.3 L 62.8 99.6 Z M 29.0 67.9 L 29.0 95.6 L 40.7 95.6 L 40.7 67.9 Z M 50.7 67.9 L 50.7 95.6 L 62.8 95.6 L 62.8 67.9 Z M 78.0 90.0 L 97.3 90.0 L 97.3 52.0 L 75.4 52.0 L 75.4 48.0 L 97.3 48.0 L 97.3 16.0 L 109.3 18.0 L 112.3 20.0 L 109.3 21.8 L 109.3 48.0 L 114.41818180084229 48.0 L 122.6 39.0 L 132.6 48.0 L 132.6 52.0 L 109.3 52.0 L 109.3 90.0 L 112.41818180084229 90.0 L 120.6 81.0 L 130.6 90.0 L 130.6 94.0 L 78.0 94.0 Z M 34.15970153808594 38.0 L 33.7 39.4 L 31.2 46.0 L 28.5 52.4 L 25.6 58.7 L 24.16410255432129 61.48205127716064 L 29.0 63.9 L 43.85 63.9 L 44.4 62.3 L 45.2 59.0 L 47.6 49.4 L 49.2 43.2 L 49.9 40.1 L 50.38999996185303 38.0 Z " />
</g>
</svg>
