<svg xmlns="http://www.w3.org/2000/svg" xmlns:xlink="http://www.w3.org/1999/xlink" version="1.1" baseProfile="full" viewBox="0 0 200 200" width="200" height="200">
<g fill="black">
<path d="M 14.3 188.4 L 11.9 184.5 L 12.9 180.0 L 14.5 178.1 L 16.1 175.7 L 17.7 173.0 L 19.1 169.9 L 20.5 166.5 L 21.7 162.7 L 22.8 158.5 L 23.9 154.0 L 24.9 149.2 L 25.7 144.0 L 27.5 144.0 L 28.1 149.3 L 28.6 154.3 L 28.8 159.2 L 28.7 163.8 L 28.3 168.2 L 27.7 172.4 L 26.8 176.3 L 25.7 180.1 L 24.3 183.6 L 22.7 187.0 L 18.8 189.3 Z M 60.4 168.5 L 60.0 165.9 L 59.5 163.3 L 58.7 160.6 L 57.8 158.0 L 56.7 155.3 L 55.5 152.6 L 54.1 149.8 L 52.2 147.3 L 53.5 146.0 L 56.0 148.1 L 58.7 150.0 L 61.2 152.2 L 63.4 154.6 L 65.4 157.1 L 67.3 159.8 L 68.9 162.7 L 70.4 165.7 L 71.6 168.8 L 72.6 172.1 L 71.4 176.5 L 67.5 178.9 L 63.1 177.7 L 60.7 173.9 L 60.6 171.2 Z M 43.9 182.9 L 39.9 180.7 L 38.6 176.3 L 39.1 174.1 L 39.5 171.7 L 39.8 169.2 L 40.0 166.5 L 40.0 163.7 L 39.8 160.7 L 39.5 157.5 L 39.1 154.2 L 38.6 150.7 L 37.6 147.2 L 39.3 146.5 L 41.1 149.8 L 43.1 152.8 L 44.7 156.0 L 46.2 159.1 L 47.4 162.2 L 48.5 165.3 L 49.3 168.4 L 49.9 171.5 L 50.3 174.5 L 50.5 177.6 L 48.2 181.6 Z M 87.4 173.0 L 130.2 173.0 L 130.2 86.0 L 94.2 86.0 L 94.2 82.0 L 130.2 82.0 L 130.2 16.0 L 142.2 18.0 L 145.2 20.0 L 142.2 21.8 L 142.2 82.0 L 159.5 82.0 L 169.5 72.0 L 181.5 82.0 L 181.5 86.0 L 142.2 86.0 L 142.2 173.0 L 162.9 173.0 L 172.9 163.0 L 184.9 173.0 L 184.9 177.0 L 87.4 177.0 Z M 81.1 164.0 L 80.2 161.5 L 79.3 159.1 L 78.1 156.7 L 76.8 154.3 L 75.4 152.0 L 73.9 149.6 L 72.2 147.3 L 70.0 145.3 L 71.0 143.8 L 73.7 145.2 L 76.5 146.6 L 79.2 148.2 L 81.7 150.0 L 84.1 152.1 L 86.3 154.3 L 88.4 156.7 L 90.3 159.4 L 92.1 162.1 L 93.7 165.1 L 93.4 169.6 L 90.1 172.8 L 85.5 172.5 L 82.4 169.2 L 81.8 166.6 Z M 22.4 138.0 L 22.4 65.32631578445435 L 21.6 66.4 L 17.5 71.1 L 13.2 75.5 L 11.8 74.4 L 14.4 69.0 L 17.1 63.5 L 19.7 58.0 L 22.4 52.3 L 24.9 46.5 L 27.4 40.5 L 29.8 34.4 L 32.1 28.1 L 34.3 21.6 L 36.11653709411621 15.80438165664673 L 36.1 15.8 L 36.28113203048706 15.279245281219483 L 36.4 14.9 L 36.4116247177124 14.90407886505127 L 36.9 13.5 L 47.8 18.9 L 49.9 21.8 L 46.29752206802368 22.495215034484865 L 45.0 25.6 L 42.0 32.1 L 41.57142858505249 33.0 L 63.7 33.0 L 69.7 28.0 L 80.7 37.0 L 75.7 40.0 L 73.05172414779663 41.10344829559326 L 72.5 42.0 L 70.6 44.6 L 68.5 47.3 L 66.1 50.1 L 63.5 53.0 L 60.6 56.0 L 57.4 59.1 L 53.8 62.2 L 51.78181819915771 64.0 L 73.4 64.0 L 79.4 59.0 L 90.4 68.0 L 85.4 72.0 L 85.4 132.0 L 73.4 138.0 L 73.4 132.0 L 34.4 132.0 Z M 34.4 100.0 L 34.4 128.0 L 47.9 128.0 L 47.9 100.0 Z M 59.9 100.0 L 59.9 128.0 L 73.4 128.0 L 73.4 100.0 Z M 34.4 68.0 L 34.4 96.0 L 47.9 96.0 L 47.9 68.0 Z M 59.9 68.0 L 59.9 96.0 L 73.4 96.0 L 73.4 68.0 Z M 39.66666669845581 37.0 L 39.0 38.4 L 35.8 44.5 L 32.5 50.4 L 29.0 56.0 L 26.31267604827881 59.956338024139406 L 34.4 64.0 L 49.0731707572937 64.0 L 51.6 60.3 L 53.9 56.3 L 56.0 52.5 L 58.0 49.0 L 59.6 45.8 L 61.0 42.7 L 62.2 39.9 L 63.1 37.4 L 63.2043478012085 37.0 Z " />
</g>
</svg>
