<svg xmlns="http://www.w3.org/2000/svg" xmlns:xlink="http://www.w3.org/1999/xlink" version="1.1" baseProfile="full" viewBox="0 0 200 200" width="200" height="200">
<g fill="black">
<path d="M 41.9 114.1 L 44.9 116.1 L 41.632619285583495 117.95792236328126 L 41.2 124.2 L 40.1 133.7 L 38.5 142.5 L 36.5 150.7 L 34.0 158.2 L 31.1 165.1 L 27.7 171.2 L 23.8 176.6 L 19.4 181.1 L 14.6 184.6 L 13.3 183.3 L 16.5 178.6 L 19.3 173.6 L 21.8 168.1 L 24.0 162.2 L 25.9 155.7 L 27.4 148.6 L 28.6 140.8 L 29.4 132.5 L 29.9 123.5 L 29.9 113.8 L 29.930280113220213 113.80075702667236 L 30.0 111.5 Z M 184.0 147.0 L 186.0 147.0 L 184.0 172.0 L 187.6 174.4 L 190.0 178.0 L 187.6 181.6 L 184.0 184.0 L 61.0 184.0 L 58.4 183.8 L 55.9 183.4 L 53.5 182.6 L 51.2 181.3 L 49.2 179.7 L 47.6 177.7 L 46.3 175.4 L 45.5 173.0 L 45.1 170.5 L 45.0 168.0 L 45.0 103.0 L 28.5 103.0 L 28.5 115.0 L 17.5 120.5 L 17.5 38.5 L 28.5 44.0 L 34.5 44.0 L 35.0 42.0 L 35.7 38.4 L 36.4 35.0 L 37.2 31.5 L 38.0 28.2 L 39.6 21.8 L 41.2 15.6 L 41.739972305297854 13.64260025024414 L 41.6 13.6 L 42.5 11.3 L 53.1 17.1 L 55.2 20.1 L 51.09832105636597 20.73646745681763 L 50.1 22.6 L 46.9 28.2 L 45.2 31.1 L 41.6 37.1 L 39.7 40.1 L 37.6 43.1 L 37.09375 44.0 L 63.5 44.0 L 69.0 39.0 L 79.5 48.0 L 74.5 51.5 L 74.5 103.0 L 63.5 108.5 L 63.5 103.0 L 51.0 103.0 L 57.0 104.0 L 60.0 106.0 L 57.0 107.8 L 57.0 143.43703699111938 L 61.05209579467773 142.8367265701294 L 62.1 136.2 L 62.7 132.5 L 63.4 128.8 L 63.9 125.1 L 64.5 121.5 L 65.5 114.3 L 65.78766117095947 111.71104974746704 L 65.7 111.7 L 65.88461542129517 110.8384614944458 L 65.9 110.7 L 65.91366024017334 110.70291881561279 L 66.3 108.9 L 77.6 113.2 L 80.1 115.7 L 76.3328766822815 117.00136985778809 L 75.2 120.4 L 73.9 124.0 L 73.56769227981567 124.77538461685181 L 74.3 124.2 L 76.2 126.1 L 78.4 127.9 L 80.3 129.9 L 82.2 132.1 L 83.9 134.4 L 85.4 136.8 L 86.9 139.4 L 88.2 142.2 L 89.3 145.0 L 89.3159574508667 145.0478723526001 L 90.1 140.7 L 91.1 134.3 L 91.8 127.5 L 92.3 120.2 L 92.6 112.6 L 92.7 104.6 L 92.5 96.2 L 92.5 42.6 L 104.5 48.6 L 138.54210529327392 48.6 L 138.1 36.6 L 137.8152091026306 17.898732566833495 L 137.8 17.9 L 137.8 14.5 L 149.8 16.9 L 152.8 18.9 L 149.85822267532347 20.66506643295288 L 150.1 36.3 L 150.56042776107788 48.6 L 153.2 48.6 L 160.6546875 41.1453125 L 157.7 38.0 L 157.4 36.0 L 157.1 34.1 L 156.7 32.3 L 155.7 28.9 L 154.3 25.7 L 153.5 24.1 L 152.6 22.5 L 151.3 21.4 L 152.2 19.9 L 153.8 20.8 L 155.8 21.3 L 157.7 22.2 L 159.6 23.3 L 161.4 24.6 L 163.1 26.1 L 164.7 27.8 L 166.2 29.7 L 167.6 31.7 L 169.0 33.9 L 168.7 38.5 L 166.05811967849732 40.98176641464234 L 175.2 48.6 L 175.2 52.6 L 150.71016044616698 52.6 L 150.8 55.0 L 152.1 72.8 L 153.9 89.5 L 155.2999358177185 98.4829213142395 L 156.2 94.1 L 158.0 82.2 L 159.2895191192627 70.50221948623657 L 159.2 70.5 L 159.6 67.4 L 171.3 70.8 L 174.0 73.2 L 170.67892789840698 74.70388174057007 L 169.2 84.0 L 166.7 96.3 L 163.7 107.8 L 160.1 118.6 L 159.6898154258728 119.61520671844482 L 163.2 130.7 L 167.5 140.6 L 170.04982538223265 144.45075674057006 L 174.1 126.9 L 176.1 126.9 L 174.33127632141114 149.89340810775758 L 177.5 153.0 L 179.9 156.9 L 179.0 161.4 L 175.1 163.7 L 170.6 162.8 L 163.1 155.6 L 156.9 146.2 L 152.36948356628417 135.96103286743164 L 151.6 137.5 L 146.5 145.7 L 141.0 153.0 L 134.9 159.3 L 128.2 164.5 L 127.0 163.1 L 132.0 156.7 L 136.7 149.8 L 140.9 142.3 L 144.8 134.2 L 148.2 125.3 L 148.5531449317932 124.20638990402222 L 147.8 121.8 L 144.5 107.2 L 142.0 91.1 L 140.1 73.9 L 138.8 55.6 L 138.68947372436523 52.6 L 104.5 52.6 L 104.5 96.2 L 104.0 105.0 L 103.3 113.3 L 102.3 121.3 L 101.0 128.8 L 99.4 135.9 L 97.5 142.5 L 95.3 148.7 L 92.7 154.5 L 89.7 159.7 L 86.3 164.2 L 84.7 163.4 L 86.2 158.1 L 87.41661806106568 153.63906707763672 L 85.5 154.9 L 81.0 153.9 L 78.5 150.0 L 78.4 147.4 L 78.0958990097046 143.59873819351196 L 76.4 144.8 L 71.6 147.8 L 69.1 149.2 L 61.6 153.1 L 60.65373029708862 153.55420942306517 L 59.3 157.8 L 57.0 155.7555555343628 L 57.0 169.2 L 57.2 170.1 L 57.5 171.0 L 57.9 171.4 L 58.8 171.7 L 59.7 171.9 L 61.0 172.0 L 178.0 172.0 Z M 116.9 94.2 L 126.5 94.2 L 132.0 89.2 L 142.5 98.2 L 137.5 101.7 L 137.5 132.6 L 126.5 138.1 L 126.5 128.6 L 116.9 128.6 L 116.9 140.6 L 105.9 146.1 L 105.9 88.7 Z M 72.4 127.5 L 70.9 131.1 L 69.3 134.6 L 67.6 138.1 L 65.8 141.5 L 65.29677419662475 142.31474657058715 L 66.8 142.1 L 69.5 141.7 L 72.3 141.3 L 75.1 141.0 L 77.74576272964478 140.81101694107056 L 77.6 139.9 L 77.1 137.4 L 76.5 135.0 L 75.8 132.5 L 75.0 130.1 L 74.2 127.5 L 73.1566879272461 125.73439493179322 Z M 116.9 98.2 L 116.9 124.6 L 126.5 124.6 L 126.5 98.2 Z M 28.5 76.0 L 28.5 99.0 L 41.0 99.0 L 41.0 76.0 Z M 51.0 76.0 L 51.0 99.0 L 63.5 99.0 L 63.5 76.0 Z M 139.0 72.2 L 139.0 76.2 L 105.0 76.2 L 105.0 72.2 L 124.77777776718139 72.2 L 131.0 65.2 Z M 28.5 48.0 L 28.5 72.0 L 41.0 72.0 L 41.0 48.0 Z M 51.0 48.0 L 51.0 72.0 L 63.5 72.0 L 63.5 48.0 Z " />
</g>
</svg>
