<svg xmlns="http://www.w3.org/2000/svg" xmlns:xlink="http://www.w3.org/1999/xlink" version="1.1" baseProfile="full" viewBox="0 0 200 200" width="200" height="200">
<g fill="black">
<path d="M 182.6 23.2 L 182.6 27.2 L 102.3 27.2 L 102.3 168.6 L 166.0 168.6 L 176.0 158.6 L 188.0 168.6 L 188.0 172.6 L 102.3 172.6 L 102.3 179.6 L 91.3 185.1 L 91.3 17.7 L 102.3 23.2 L 160.6 23.2 L 170.6 13.2 Z M 14.7 182.6 L 11.8 179.0 L 12.3 174.5 L 13.6 172.6 L 14.8 170.5 L 16.1 168.1 L 17.2 165.4 L 18.3 162.4 L 19.3 159.0 L 20.3 155.4 L 21.2 151.6 L 22.2 147.4 L 22.8 143.0 L 24.6 143.0 L 25.1 147.5 L 25.7 151.8 L 26.0 156.0 L 26.1 159.9 L 26.0 163.7 L 25.7 167.3 L 25.3 170.8 L 24.7 174.1 L 23.8 177.2 L 22.8 180.2 L 19.2 183.0 Z M 52.2 162.8 L 51.9 160.3 L 51.5 157.7 L 50.9 155.2 L 50.3 152.6 L 49.6 150.0 L 48.7 147.4 L 47.8 144.7 L 46.4 142.3 L 47.8 141.2 L 49.9 143.3 L 52.1 145.2 L 54.2 147.4 L 56.1 149.7 L 57.8 152.1 L 59.4 154.7 L 60.8 157.4 L 62.1 160.1 L 63.3 163.0 L 64.3 166.0 L 63.2 170.4 L 59.3 172.9 L 54.9 171.8 L 52.4 168.0 L 52.4 165.4 Z M 39.7 176.9 L 35.6 174.9 L 34.1 170.6 L 34.5 168.5 L 34.9 166.3 L 35.1 164.0 L 35.2 161.4 L 35.1 158.8 L 35.0 155.9 L 34.7 153.0 L 34.2 149.8 L 33.8 146.5 L 32.8 143.2 L 34.4 142.5 L 36.2 145.6 L 38.1 148.4 L 39.8 151.3 L 41.2 154.2 L 42.5 157.1 L 43.6 160.0 L 44.5 162.8 L 45.2 165.7 L 45.7 168.5 L 46.0 171.3 L 44.0 175.4 Z M 68.8 154.9 L 66.4 150.1 L 65.1 147.8 L 63.9 145.5 L 62.6 143.2 L 60.9 141.3 L 62.1 139.9 L 64.3 141.4 L 66.7 142.7 L 69.1 144.3 L 71.3 146.0 L 73.5 147.9 L 75.7 149.9 L 77.7 152.1 L 79.8 154.4 L 81.7 156.9 L 83.6 159.5 L 84.0 164.0 L 81.2 167.6 L 76.6 168.0 L 73.0 165.1 L 71.0 159.9 Z M 149.1 71.3 L 151.6 73.8 L 148.1224570274353 75.08797883987427 L 146.7 80.6 L 143.9954545021057 89.1 L 159.1 89.1 L 169.1 79.1 L 181.1 89.1 L 181.1 93.1 L 142.49047622680663 93.1 L 140.7 97.8 L 137.0 105.6 L 133.0 113.0 L 132.801104927063 113.30055246353149 L 135.6 114.7 L 161.4 114.7 L 167.4 109.7 L 178.4 118.7 L 173.4 122.7 L 173.4 154.4 L 161.4 160.4 L 161.4 152.4 L 135.6 152.4 L 135.6 155.4 L 123.6 161.4 L 123.6 126.0 L 118.3 131.7 L 112.5 136.7 L 106.2 141.0 L 105.1 139.6 L 109.8 134.0 L 114.2 128.2 L 118.3 122.1 L 122.1 115.7 L 123.6 112.74411764144898 L 123.6 108.7 L 125.2369047164917 109.51845235824585 L 125.5 109.0 L 128.6 101.8 L 131.3 94.2 L 131.63417720794678 93.1 L 104.8 93.1 L 104.8 89.1 L 132.8493670463562 89.1 L 133.7 86.3 L 135.7 77.8 L 137.13560829162597 69.9041543006897 L 137.1 69.9 L 137.7 67.1 Z M 135.6 118.7 L 135.6 148.4 L 161.4 148.4 L 161.4 118.7 Z M 20.3 138.3 L 20.3 71.80731706619262 L 16.7 76.9 L 12.1 82.4 L 10.6 81.5 L 13.4 74.9 L 18.8 62.1 L 20.3 58.1 L 20.3 57.9 L 20.363157939910888 57.931578922271726 L 21.2 55.7 L 23.5 49.3 L 25.6 42.9 L 27.5 36.4 L 29.2 29.9 L 30.6 23.3 L 31.722140884399415 17.602976894378664 L 31.7 17.6 L 32.3 14.8 L 43.6 19.2 L 46.1 21.8 L 42.54598140716553 23.027751922607422 L 41.7 26.1 L 39.5 32.9 L 39.08955221176147 34.0 L 57.6 34.0 L 63.6 29.0 L 74.6 38.0 L 69.6 41.0 L 67.0285714149475 42.07142858505249 L 66.0 44.0 L 64.3 46.9 L 62.5 49.8 L 60.7 52.6 L 56.7 58.2 L 54.6 61.0 L 52.3 63.6 L 52.06428575515747 63.9 L 70.3 63.9 L 75.8 58.9 L 86.3 67.9 L 81.3 71.4 L 81.3 132.3 L 70.3 137.8 L 70.3 132.3 L 32.3 132.3 Z M 32.3 99.6 L 32.3 128.3 L 45.0 128.3 L 45.0 99.6 Z M 57.0 99.6 L 57.0 128.3 L 70.3 128.3 L 70.3 99.6 Z M 32.3 67.9 L 32.3 95.6 L 45.0 95.6 L 45.0 67.9 Z M 57.0 67.9 L 57.0 95.6 L 70.3 95.6 L 70.3 67.9 Z M 131.2 38.2 L 134.2 40.2 L 131.2 42.0 L 131.2 50.66666669845581 L 133.8 47.2 L 139.8 53.2 L 139.8 57.2 L 131.2 57.2 L 131.2 69.5 L 119.2 75.5 L 119.2 57.2 L 103.9 57.2 L 103.9 53.2 L 119.2 53.2 L 119.2 36.2 Z M 166.7 38.2 L 169.7 40.2 L 166.7 42.0 L 166.7 53.2 L 171.5 53.2 L 176.0 47.2 L 182.0 53.2 L 182.0 57.2 L 166.7 57.2 L 166.7 69.5 L 154.7 75.5 L 154.7 57.2 L 146.1 57.2 L 146.1 53.2 L 154.7 53.2 L 154.7 36.2 Z M 37.59701490402222 38.0 L 37.0 39.6 L 34.3 46.1 L 31.4 52.6 L 28.1 58.9 L 26.823270416259767 61.16163520812988 L 32.3 63.9 L 49.2 63.9 L 49.8 62.3 L 50.7 58.9 L 53.7 49.3 L 54.6 46.1 L 56.4 39.9 L 56.90666666030884 38.0 Z " />
</g>
</svg>
