<svg xmlns="http://www.w3.org/2000/svg" xmlns:xlink="http://www.w3.org/1999/xlink" version="1.1" baseProfile="full" viewBox="0 0 200 200" width="200" height="200">
<g fill="black">
<path d="M 103.5 177.0 L 123.5 177.0 L 124.7 176.9 L 125.6 176.7 L 126.5 176.4 L 126.9 176.0 L 127.2 175.1 L 127.4 174.2 L 127.5 173.0 L 127.5 109.0 L 139.5 111.0 L 142.5 113.0 L 139.5 114.8 L 139.5 142.9631579399109 L 140.5 141.7 L 142.5 139.3 L 150.5 130.1 L 152.6 127.8 L 154.6 125.4 L 155.9859775543213 123.88202457427978 L 155.9 123.8 L 156.9 122.9 L 164.6 132.1 L 165.1 135.7 L 161.17916955947877 134.41681909561157 L 159.3 135.6 L 156.7 137.3 L 154.0 139.0 L 151.3 140.6 L 148.6 142.1 L 145.8 143.6 L 143.1 144.9 L 140.2 146.2 L 139.5 146.60384616851806 L 139.5 150.77551021575928 L 140.8 151.2 L 145.6 153.0 L 150.2 155.2 L 154.7 157.6 L 159.0 160.1 L 163.3 162.9 L 167.4 165.8 L 175.4 172.2 L 179.2 175.6 L 180.8 179.9 L 179.0 184.1 L 174.7 185.7 L 170.5 183.9 L 167.4 180.3 L 164.2 176.8 L 160.9 173.4 L 157.5 170.1 L 154.0 166.9 L 150.4 163.7 L 146.7 160.6 L 142.9 157.5 L 139.5 154.79743585586547 L 139.5 173.0 L 139.3 175.5 L 138.9 178.0 L 138.1 180.4 L 136.8 182.7 L 135.2 184.7 L 133.2 186.3 L 130.9 187.6 L 128.5 188.4 L 126.0 188.8 L 123.5 189.0 L 123.5 183.0 L 103.5 180.0 Z M 13.9 188.5 L 11.3 184.7 L 12.0 180.2 L 13.6 178.2 L 15.0 175.9 L 16.5 173.1 L 17.8 170.0 L 19.0 166.5 L 20.2 162.7 L 21.3 158.5 L 22.3 154.0 L 23.3 149.2 L 24.0 144.0 L 25.8 144.0 L 26.4 149.3 L 27.0 154.3 L 27.2 159.1 L 27.2 163.7 L 26.9 168.1 L 26.4 172.2 L 25.7 176.1 L 24.8 179.8 L 23.6 183.3 L 22.2 186.6 L 18.4 189.2 Z M 87.5 170.2 L 90.9 168.8 L 94.4 167.3 L 97.8 165.8 L 101.4 164.3 L 105.0 162.6 L 108.6 161.0 L 116.2 157.6 L 120.1 156.0 L 124.0 154.2 L 125.0 155.7 L 121.8 158.6 L 118.7 161.6 L 115.5 164.4 L 112.3 167.0 L 105.9 172.0 L 102.7 174.3 L 96.65572519302368 178.4554388999939 L 96.2 182.5 L 93.1 180.8 L 85.8 171.1 Z M 54.5 168.4 L 54.2 165.7 L 53.8 163.1 L 53.2 160.5 L 52.4 157.9 L 51.5 155.2 L 50.5 152.5 L 49.4 149.8 L 47.7 147.3 L 49.0 146.1 L 51.3 148.2 L 53.8 150.1 L 56.1 152.4 L 58.1 154.7 L 60.0 157.3 L 61.7 160.0 L 63.2 162.9 L 64.5 165.8 L 65.7 169.0 L 66.6 172.2 L 65.4 176.6 L 61.4 178.9 L 57.0 177.7 L 54.7 173.8 L 54.7 171.1 Z M 40.3 182.9 L 36.3 180.7 L 35.0 176.4 L 35.5 174.1 L 35.9 171.7 L 36.2 169.2 L 36.4 166.5 L 36.5 163.6 L 36.4 160.6 L 36.2 157.5 L 35.9 154.2 L 35.5 150.7 L 34.7 147.2 L 36.3 146.6 L 38.0 149.8 L 39.9 152.9 L 41.4 156.0 L 42.8 159.2 L 44.0 162.3 L 44.9 165.3 L 45.7 168.4 L 46.3 171.5 L 46.7 174.5 L 46.9 177.6 L 44.7 181.6 Z M 73.0 163.8 L 72.3 161.3 L 70.5 156.5 L 69.4 154.2 L 68.2 151.9 L 66.9 149.6 L 65.5 147.2 L 63.6 145.3 L 64.7 143.8 L 67.1 145.3 L 69.7 146.7 L 72.2 148.3 L 74.5 150.2 L 76.6 152.3 L 78.7 154.5 L 80.6 156.9 L 82.4 159.6 L 84.0 162.3 L 85.5 165.3 L 85.0 169.8 L 81.6 172.8 L 77.0 172.4 L 74.0 168.9 L 73.6 166.3 Z M 166.4 82.1 L 161.6 77.8 L 157.0 73.2 L 152.6 68.2 L 148.5 62.7 L 144.6 56.9 L 141.0 50.7 L 139.5 47.65454549789429 L 139.5 79.5 L 133.2888889312744 82.6055555343628 L 139.4 86.7 L 141.1 89.9 L 137.30634441375733 90.0308156967163 L 136.67926445007325 91.02844285964966 L 140.5 94.6 L 145.0 98.8 L 149.5 102.7 L 154.1 106.4 L 158.8 109.8 L 163.7 112.9 L 168.7 115.8 L 173.9 118.4 L 179.2 120.8 L 184.8 122.8 L 191.2 125.5 L 179.7 135.1 L 173.8 132.1 L 168.2 128.8 L 162.8 125.1 L 157.7 121.2 L 153.0 117.0 L 148.5 112.5 L 144.4 107.7 L 140.6 102.6 L 137.2 97.1 L 135.35461502075196 93.13583974838257 L 135.0 93.7 L 130.3 100.2 L 125.3 106.4 L 119.9 112.1 L 114.3 117.4 L 108.3 122.3 L 104.4271954536438 125.04844188690186 L 106.5 126.2 L 109.3 127.4 L 112.0 128.7 L 114.4 130.1 L 116.8 131.6 L 118.9 133.2 L 121.0 134.9 L 122.9 136.7 L 124.6 138.6 L 126.2 140.6 L 126.4 145.2 L 123.5 148.6 L 118.9 148.9 L 115.4 145.9 L 115.0 144.2 L 114.4 142.5 L 113.6 140.6 L 112.7 138.7 L 111.5 136.8 L 110.2 134.7 L 108.7 132.6 L 107.0 130.5 L 105.1 128.2 L 102.9 126.3 L 103.05704698562622 126.02080535888672 L 102.1 126.7 L 95.6 130.7 L 88.7 134.0 L 81.5 136.8 L 80.7 135.1 L 86.8 130.7 L 92.6 126.2 L 98.1 121.5 L 103.4 116.6 L 108.3 111.4 L 113.0 105.9 L 117.4 100.1 L 121.5 94.1 L 125.3 87.7 L 127.5 83.6055555343628 L 127.5 57.76666669845581 L 125.5 60.6 L 120.5 66.9 L 115.1 72.8 L 109.4 78.3 L 103.3 83.2 L 97.0 87.7 L 90.3 91.6 L 83.3 94.8 L 82.4 93.3 L 88.2 88.4 L 93.7 83.5 L 99.0 78.3 L 104.0 72.9 L 108.7 67.2 L 113.1 61.2 L 117.3 54.9 L 121.1 48.3 L 124.7 41.3 L 126.39459457397462 37.5 L 87.6 37.5 L 87.6 33.5 L 127.5 33.5 L 127.5 11.4 L 139.5 13.4 L 142.5 15.4 L 139.5 17.2 L 139.5 33.5 L 158.5 33.5 L 168.5 23.5 L 180.5 33.5 L 180.5 37.5 L 139.5 37.5 L 139.5 39.5875 L 141.3 41.8 L 145.9 47.4 L 150.4 52.6 L 154.9 57.4 L 159.4 61.8 L 164.0 65.8 L 168.7 69.3 L 173.4 72.5 L 178.1 75.3 L 182.9 77.6 L 188.0 80.3 L 176.8 89.3 L 171.5 85.9 Z M 21.0 137.5 L 21.0 66.0 L 20.8 66.3 L 17.1 71.0 L 13.1 75.4 L 11.6 74.5 L 13.8 69.1 L 18.4 58.1 L 20.7 52.5 L 23.0 46.7 L 25.1 40.7 L 27.2 34.6 L 29.2 28.3 L 31.2 21.8 L 32.72959156036377 16.106520175933838 L 32.7 16.1 L 32.89534883499145 15.489534854888916 L 33.0 15.1 L 33.018178939819336 15.10569076538086 L 33.5 13.6 L 44.5 18.7 L 46.7 21.5 L 43.12139921188354 22.394650173187255 L 42.0 25.4 L 39.3 32.0 L 38.87142858505249 33.0 L 57.4 33.0 L 63.4 28.0 L 74.4 37.0 L 69.4 40.0 L 66.91074380874633 41.03719005584717 L 66.5 41.8 L 64.8 44.4 L 62.8 47.1 L 60.7 50.0 L 58.2 52.9 L 55.6 55.9 L 52.6 59.0 L 49.4 62.1 L 47.5 64.0 L 66.5 64.0 L 72.0 59.0 L 82.5 68.0 L 77.5 71.5 L 77.5 132.0 L 66.5 137.5 L 66.5 132.0 L 32.0 132.0 Z M 32.0 100.0 L 32.0 128.0 L 44.3 128.0 L 44.3 100.0 Z M 54.3 100.0 L 54.3 128.0 L 66.5 128.0 L 66.5 100.0 Z M 32.0 68.0 L 32.0 96.0 L 44.3 96.0 L 44.3 68.0 Z M 54.3 68.0 L 54.3 96.0 L 66.5 96.0 L 66.5 68.0 Z M 37.15714282989502 37.0 L 36.6 38.3 L 33.7 44.3 L 30.7 50.2 L 27.5 55.8 L 24.71489362716675 60.35744676589966 L 32.0 64.0 L 44.85 64.0 L 47.1 60.4 L 49.0 56.4 L 50.9 52.7 L 52.5 49.2 L 54.0 45.9 L 55.2 42.9 L 56.1 40.1 L 56.9 37.6 L 57.03043479919434 37.0 Z " />
</g>
</svg>
