<svg xmlns="http://www.w3.org/2000/svg" xmlns:xlink="http://www.w3.org/1999/xlink" version="1.1" baseProfile="full" viewBox="0 0 200 200" width="200" height="200">
<g fill="black">
<path d="M 77.0 172.5 L 74.7 169.7 L 72.3 166.9 L 69.8 164.1 L 67.1 161.3 L 64.3 158.5 L 61.3 155.8 L 58.3 152.9 L 57.51192665100098 152.25521268844605 L 55.2 158.0 L 50.9 165.4 L 45.6 172.0 L 39.5 177.6 L 32.4 182.4 L 24.5 186.1 L 15.9 188.8 L 15.2 187.1 L 22.8 182.7 L 29.4 177.9 L 35.1 172.8 L 39.8 167.1 L 43.6 161.0 L 46.6 154.3 L 48.8 147.0 L 49.33164558410645 144.0 L 15.6 144.0 L 15.6 140.0 L 50.04050636291504 140.0 L 50.2 139.1 L 50.8 130.5 L 50.5 121.2 L 50.56960906982422 121.19709959030152 L 50.5 118.9 L 62.5 120.7 L 65.6 122.6 L 62.38461999893188 124.69983997344971 L 62.2 131.1 L 60.91546392440796 140.0 L 74.5 140.0 L 84.5 130.0 L 96.5 140.0 L 96.5 144.0 L 59.982222175598146 144.0 L 58.52915086746216 149.68593158721924 L 59.9 150.2 L 63.9 151.9 L 67.7 153.7 L 71.4 155.7 L 74.9 157.9 L 78.3 160.2 L 81.5 162.7 L 84.7 165.3 L 87.6 168.0 L 90.5 170.9 L 91.7 175.3 L 89.6 179.3 L 85.2 180.5 L 81.1 178.4 L 79.2 175.4 Z M 108.5 176.0 L 128.5 176.0 L 129.7 175.9 L 130.6 175.7 L 131.5 175.4 L 131.9 175.0 L 132.1 174.7 L 132.2 174.1 L 132.4 173.2 L 132.5 172.0 L 132.5 143.4181818008423 L 130.7 145.6 L 127.4 149.5 L 124.0 153.1 L 120.5 156.6 L 117.1 159.9 L 110.1 166.1 L 106.6 169.0 L 103.2 171.8 L 103.05545310974121 171.90737771987915 L 103.0 175.9 L 99.7 174.4 L 91.5 165.5 L 93.2 164.4 L 96.8 162.4 L 100.5 160.2 L 104.3 158.0 L 108.1 155.7 L 112.0 153.3 L 115.9 150.8 L 124.1 145.6 L 128.4 142.9 L 132.5 140.47727270126342 L 132.5 100.0 L 104.9 100.0 L 104.9 96.0 L 132.5 96.0 L 132.5 71.0 L 99.8 71.0 L 99.8 67.0 L 132.5 67.0 L 132.5 42.0 L 104.9 42.0 L 104.9 38.0 L 132.5 38.0 L 132.5 14.0 L 144.5 16.0 L 147.5 18.0 L 144.5 19.8 L 144.5 38.0 L 161.9 38.0 L 167.9 33.0 L 178.9 42.0 L 173.9 46.0 L 173.9 67.0 L 178.4 67.0 L 182.9 61.0 L 188.9 67.0 L 188.9 71.0 L 173.9 71.0 L 173.9 100.0 L 161.9 106.0 L 161.9 100.0 L 144.5 100.0 L 144.5 121.37297296524048 L 147.7 127.6 L 151.5 134.3 L 155.39504375457764 140.2399416923523 L 156.7 138.5 L 160.5 132.5 L 162.4 129.6 L 164.3 126.6 L 166.2 123.7 L 168.0 120.6 L 169.8 117.6 L 171.6 114.5 L 172.8228070259094 112.27017545700073 L 172.7 112.2 L 173.8 110.7 L 183.2 118.2 L 184.5 121.5 L 180.44102411270143 121.29005298614501 L 178.2 123.8 L 173.0 129.2 L 170.3 131.7 L 167.6 134.1 L 164.7 136.4 L 161.8 138.6 L 158.8 140.5 L 156.7285714149475 142.0 L 159.8 146.0 L 164.3 151.0 L 169.1 155.5 L 174.2 159.6 L 179.6 163.1 L 185.3 166.2 L 190.2 168.8 L 179.0 177.7 L 172.6 173.5 L 166.8 168.7 L 161.4 163.5 L 156.5 157.7 L 152.2 151.4 L 148.3 144.7 L 145.0 137.5 L 144.5 136.14285717010497 L 144.5 172.0 L 144.3 174.5 L 143.9 177.0 L 143.1 179.4 L 141.9 181.7 L 140.2 183.7 L 138.2 185.3 L 135.9 186.6 L 133.5 187.4 L 131.0 187.8 L 128.5 188.0 L 128.5 182.0 L 108.5 179.0 Z M 113.8 128.6 L 112.8 126.3 L 111.7 124.0 L 110.3 121.7 L 108.6 119.4 L 106.7 117.1 L 104.6 114.7 L 102.3 112.3 L 99.4 110.2 L 100.3 108.6 L 103.6 110.1 L 107.0 111.3 L 110.1 112.8 L 113.0 114.6 L 115.8 116.5 L 118.3 118.6 L 120.6 120.9 L 122.7 123.5 L 124.6 126.2 L 126.3 129.1 L 126.0 133.6 L 122.7 136.8 L 118.1 136.5 L 115.0 133.2 L 114.5 130.9 Z M 37.2 122.0 L 25.2 128.0 L 25.2 59.32558135986328 L 22.9 62.0 L 18.3 66.9 L 13.3 71.5 L 11.9 70.4 L 15.3 64.6 L 18.6 58.9 L 21.8 53.3 L 24.8 47.8 L 27.7 42.3 L 30.3 36.8 L 32.7 31.3 L 35.0 25.8 L 37.0 20.3 L 38.50499000549316 15.70141954421997 L 38.5 15.7 L 38.59230766296387 15.434615421295167 L 38.8 14.8 L 38.81155023574829 14.804293060302735 L 39.3 13.4 L 50.1 19.0 L 52.2 21.9 L 48.414384078979495 22.630557441711424 L 47.5 24.6 L 44.84736843109131 30.0 L 64.2 30.0 L 64.65 29.625 L 64.9 29.0 L 65.19863481521607 29.167804336547853 L 70.2 25.0 L 81.2 34.0 L 76.2 37.0 L 72.52538862228394 38.53108806610108 L 71.6 39.7 L 69.5 42.1 L 67.3 44.5 L 65.0 47.0 L 62.5 49.4 L 59.9 51.9 L 57.2 54.4 L 54.2 56.9 L 54.0884614944458 57.0 L 75.9 57.0 L 81.9 52.0 L 92.9 61.0 L 87.9 65.0 L 87.9 119.0 L 75.9 125.0 L 75.9 115.0 L 37.2 115.0 Z M 37.2 87.0 L 37.2 111.0 L 50.5 111.0 L 50.5 87.0 Z M 62.5 87.0 L 62.5 111.0 L 75.9 111.0 L 75.9 87.0 Z M 144.5 71.0 L 144.5 96.0 L 161.9 96.0 L 161.9 71.0 Z M 37.2 61.0 L 37.2 83.0 L 50.5 83.0 L 50.5 61.0 Z M 62.5 61.0 L 62.5 83.0 L 75.9 83.0 L 75.9 61.0 Z M 144.5 42.0 L 144.5 67.0 L 161.9 67.0 L 161.9 42.0 Z M 42.68181819915772 34.0 L 41.7 35.8 L 38.5 41.2 L 35.0 46.6 L 31.2 51.9 L 30.016901397705077 53.40845069885254 L 37.2 57.0 L 50.84848480224609 57.0 L 52.0 55.1 L 53.8 51.7 L 55.5 48.5 L 57.2 45.4 L 58.7 42.4 L 60.2 39.6 L 61.5 36.8 L 62.8 34.1 L 62.84230766296387 34.0 Z " />
</g>
</svg>
