<svg xmlns="http://www.w3.org/2000/svg" xmlns:xlink="http://www.w3.org/1999/xlink" version="1.1" baseProfile="full" viewBox="0 0 200 200" width="200" height="200">
<g fill="black">
<path d="M 113.6 17.4 L 116.0 20.0 L 112.54837799072266 21.04781379699707 L 110.4 28.5 L 107.1 39.3 L 103.6 50.0 L 100.0 60.4 L 96.2 70.6 L 95.13084115982056 73.2461682319641 L 98.9 74.0 L 101.4 76.0 L 98.9 77.66666669845581 L 98.9 183.5 L 88.9 188.5 L 88.9 88.2268292427063 L 88.1 90.1 L 83.7 99.5 L 79.0 108.6 L 74.0 117.3 L 72.3 116.6 L 75.5 107.1 L 78.7 97.5 L 81.9 87.8 L 85.1 77.9 L 88.2 67.8 L 91.2 57.6 L 94.0 47.1 L 96.8 36.4 L 99.4 25.6 L 101.9 14.5 L 101.92106208801269 14.505220508575439 L 102.3 12.8 Z M 155.4 119.2 L 154.93398056030273 124.0 L 163.9 124.0 L 173.9 114.0 L 185.9 124.0 L 185.9 128.0 L 154.54563102722167 128.0 L 154.47296133041382 128.74849786758423 L 154.7 129.4 L 157.0 135.6 L 159.5 141.5 L 162.3 147.0 L 165.4 152.2 L 168.9 157.1 L 172.7 161.7 L 176.8 166.0 L 181.3 170.0 L 186.1 173.8 L 188.7 175.9 L 177.8 184.1 L 172.7 179.2 L 168.0 174.0 L 163.9 168.5 L 160.3 162.7 L 157.2 156.7 L 154.7 150.4 L 152.7 143.9 L 152.06137886047364 140.843741607666 L 150.0 147.9 L 146.7 156.1 L 142.6 163.5 L 137.8 170.2 L 132.2 176.0 L 126.0 180.9 L 119.0 184.8 L 111.5 187.8 L 110.7 186.1 L 117.0 181.6 L 122.6 176.7 L 127.5 171.4 L 131.7 165.7 L 135.2 159.4 L 138.1 152.5 L 140.4 145.0 L 142.0 136.9 L 143.1 128.2 L 143.1084210395813 128.0 L 117.6 128.0 L 117.6 124.0 L 143.27684211730957 124.0 L 143.5 118.7 L 143.5 90.0 L 136.52452831268312 90.0 L 136.3 90.7 L 134.5 95.7 L 132.4 100.4 L 130.2 104.7 L 127.9 108.7 L 125.2 112.3 L 122.3 115.4 L 120.7 114.5 L 121.8 110.5 L 123.0 106.5 L 124.2 102.3 L 125.3 97.8 L 126.3 93.2 L 127.3 88.3 L 128.2 83.2 L 129.0 77.7 L 129.8 72.1 L 130.29942007064818 67.10579948425293 L 130.2 67.1 L 130.7 64.1 L 142.2 67.8 L 144.9 70.2 L 141.44531564712526 71.69920263290405 L 141.0 74.0 L 139.6 79.8 L 138.0 85.4 L 137.80754718780517 86.0 L 160.51818180084229 86.0 L 168.7 77.0 L 178.7 86.0 L 178.7 90.0 L 155.5 90.0 L 155.5 119.0 L 155.36757497787477 119.19863758087158 Z M 14.5 188.6 L 11.7 185.0 L 12.1 180.4 L 13.5 178.4 L 14.8 176.0 L 16.1 173.3 L 17.3 170.1 L 18.5 166.6 L 19.5 162.8 L 20.5 158.6 L 21.5 154.0 L 22.5 149.2 L 23.2 144.0 L 25.0 144.0 L 25.6 149.2 L 26.2 154.3 L 26.5 159.1 L 26.5 163.7 L 26.4 168.0 L 26.0 172.1 L 25.5 175.9 L 24.8 179.5 L 23.8 183.0 L 22.6 186.2 L 19.0 189.0 Z M 49.3 168.2 L 49.1 165.6 L 48.7 162.9 L 48.3 160.3 L 47.7 157.7 L 47.0 155.1 L 46.2 152.4 L 45.3 149.8 L 43.9 147.3 L 45.3 146.2 L 47.4 148.3 L 49.6 150.3 L 51.7 152.5 L 53.6 154.9 L 55.3 157.5 L 56.8 160.2 L 58.2 163.0 L 59.4 166.0 L 60.4 169.1 L 61.3 172.3 L 59.9 176.7 L 56.0 178.9 L 51.6 177.6 L 49.3 173.6 L 49.4 170.9 Z M 37.6 182.9 L 33.5 180.8 L 32.1 176.4 L 32.6 174.1 L 33.1 171.7 L 33.4 169.1 L 33.6 166.4 L 33.7 163.5 L 33.7 160.5 L 33.6 157.4 L 33.4 154.1 L 33.2 150.7 L 32.5 147.2 L 34.2 146.6 L 35.7 149.9 L 37.4 153.0 L 38.9 156.1 L 40.1 159.3 L 41.2 162.3 L 42.1 165.4 L 42.9 168.5 L 43.4 171.5 L 43.8 174.5 L 44.1 177.5 L 41.9 181.5 Z M 65.3 163.5 L 64.8 161.1 L 63.4 156.3 L 62.6 154.0 L 61.6 151.7 L 60.6 149.5 L 59.4 147.2 L 57.9 145.3 L 59.0 143.9 L 61.2 145.5 L 63.5 146.9 L 65.7 148.5 L 67.8 150.4 L 69.8 152.5 L 71.6 154.7 L 73.3 157.2 L 74.9 159.8 L 76.4 162.5 L 77.7 165.4 L 77.1 170.0 L 73.6 172.8 L 69.0 172.2 L 66.2 168.7 L 65.8 166.1 Z M 115.5 59.0 L 118.0 61.0 L 115.5 62.66666669845581 L 115.5 160.5 L 105.5 165.5 L 105.5 57.0 Z M 20.0 137.5 L 20.0 67.37058820724488 L 17.5 70.9 L 14.0 75.4 L 12.4 74.5 L 14.2 69.2 L 16.1 63.8 L 18.0 58.3 L 19.9 52.7 L 21.8 46.9 L 23.7 40.9 L 25.5 34.8 L 27.2 28.5 L 28.8 22.0 L 30.158606624603273 16.31083478927612 L 30.1 16.3 L 30.373333358764647 15.411666679382325 L 30.4 15.3 L 30.40709047317505 15.30195598602295 L 30.9 13.7 L 42.0 18.5 L 44.3 21.2 L 40.7222222328186 22.222222232818602 L 39.7 25.2 L 37.4 31.8 L 36.94285717010498 33.0 L 51.7 33.0 L 57.7 28.0 L 68.7 37.0 L 63.7 40.0 L 61.36315793991089 40.97368421554565 L 61.1 41.5 L 59.5 44.2 L 57.8 46.9 L 55.8 49.8 L 53.6 52.7 L 51.2 55.7 L 48.6 58.8 L 45.6 62.0 L 43.94285717010498 64.0 L 59.7 64.0 L 65.2 59.0 L 75.7 68.0 L 70.7 71.5 L 70.7 132.0 L 59.7 137.5 L 59.7 132.0 L 31.0 132.0 Z M 31.0 100.0 L 31.0 128.0 L 40.4 128.0 L 40.4 100.0 Z M 50.4 100.0 L 50.4 128.0 L 59.7 128.0 L 59.7 100.0 Z M 31.0 68.0 L 31.0 96.0 L 40.4 96.0 L 40.4 68.0 Z M 50.4 68.0 L 50.4 96.0 L 59.7 96.0 L 59.7 68.0 Z M 35.41904764175415 37.0 L 35.0 38.1 L 32.4 44.1 L 29.7 50.0 L 26.9 55.6 L 24.211678791046143 60.60583944320679 L 31.0 64.0 L 41.41538457870483 64.0 L 43.3 60.5 L 44.9 56.5 L 46.4 52.8 L 47.8 49.4 L 49.0 46.1 L 49.9 43.1 L 50.7 40.4 L 51.3 37.8 L 51.43913040161133 37.0 Z M 120.2 56.0 L 157.1 56.0 L 157.1 27.0 L 125.4 27.0 L 125.4 23.0 L 157.1 23.0 L 163.1 18.0 L 174.1 27.0 L 169.1 31.0 L 169.1 56.0 L 170.9777777671814 56.0 L 177.2 49.0 L 185.2 56.0 L 185.2 60.0 L 120.2 60.0 Z " />
</g>
</svg>
