<svg xmlns="http://www.w3.org/2000/svg" xmlns:xlink="http://www.w3.org/1999/xlink" version="1.1" baseProfile="full" viewBox="0 0 200 200" width="200" height="200">
<g fill="black">
<path d="M 13.9 188.6 L 11.1 184.9 L 11.7 180.4 L 13.1 178.4 L 14.5 176.0 L 15.8 173.2 L 17.1 170.1 L 18.2 166.6 L 19.3 162.7 L 20.4 158.6 L 21.3 154.0 L 22.3 149.2 L 23.1 144.0 L 24.9 144.0 L 25.5 149.2 L 26.0 154.3 L 26.3 159.1 L 26.3 163.7 L 26.1 168.0 L 25.8 172.1 L 25.2 176.0 L 24.4 179.6 L 23.4 183.1 L 22.1 186.3 L 18.4 189.1 Z M 188.3 30.0 L 183.3 33.5 L 183.3 178.0 L 172.3 183.5 L 172.3 174.0 L 93.2 174.0 L 93.2 181.0 L 83.2 186.0 L 83.2 21.0 L 93.2 26.0 L 172.3 26.0 L 177.8 21.0 Z M 50.5 168.3 L 50.2 165.6 L 49.9 163.0 L 49.4 160.4 L 48.7 157.8 L 48.0 155.1 L 47.1 152.5 L 46.1 149.8 L 44.7 147.3 L 46.0 146.1 L 48.2 148.2 L 50.5 150.2 L 52.6 152.5 L 54.5 154.9 L 56.3 157.4 L 57.9 160.1 L 59.3 163.0 L 60.5 165.9 L 61.6 169.0 L 62.5 172.3 L 61.2 176.6 L 57.2 178.9 L 52.8 177.6 L 50.5 173.7 L 50.6 171.0 Z M 38.0 182.9 L 34.0 180.8 L 32.6 176.4 L 33.1 174.1 L 33.5 171.7 L 33.8 169.1 L 34.0 166.4 L 34.1 163.6 L 34.1 160.6 L 34.0 157.4 L 33.7 154.1 L 33.5 150.7 L 32.8 147.2 L 34.4 146.6 L 36.0 149.9 L 37.8 153.0 L 39.3 156.1 L 40.5 159.2 L 41.6 162.3 L 42.6 165.4 L 43.3 168.5 L 43.9 171.5 L 44.3 174.5 L 44.5 177.5 L 42.3 181.5 Z M 67.2 163.6 L 66.6 161.1 L 65.9 158.7 L 65.1 156.4 L 64.2 154.1 L 63.2 151.8 L 62.1 149.5 L 60.9 147.2 L 59.2 145.3 L 60.3 143.9 L 62.6 145.4 L 65.0 146.8 L 67.3 148.5 L 69.4 150.3 L 71.4 152.4 L 73.3 154.7 L 75.1 157.1 L 76.8 159.7 L 78.3 162.5 L 79.6 165.4 L 79.1 169.9 L 75.6 172.8 L 71.0 172.3 L 68.1 168.8 L 67.7 166.1 Z M 93.2 30.0 L 93.2 170.0 L 172.3 170.0 L 172.3 30.0 Z M 94.1 133.5 L 94.1 129.5 L 143.3 129.5 L 143.3 116.3 L 155.3 118.3 L 158.3 120.3 L 155.3 122.1 L 155.3 129.5 L 157.1777777671814 129.5 L 163.4 122.5 L 171.4 129.5 L 171.4 133.5 L 155.3 133.5 L 155.3 151.5 L 155.1 154.0 L 154.7 156.5 L 153.9 158.9 L 152.7 161.2 L 151.0 163.2 L 149.0 164.9 L 146.7 166.1 L 144.3 166.9 L 141.8 167.3 L 139.3 167.5 L 139.3 161.5 L 126.01044778823852 158.6522388458252 L 125.3 159.3 L 120.7 159.0 L 117.7 155.6 L 117.5 153.8 L 116.9 150.2 L 116.6 148.5 L 116.2 146.8 L 115.2 143.4 L 114.0 140.0 L 112.9 138.7 L 114.1 137.3 L 115.5 138.5 L 117.3 139.4 L 119.0 140.4 L 120.7 141.6 L 122.2 143.0 L 123.7 144.5 L 125.1 146.1 L 126.5 147.9 L 127.8 149.7 L 129.0 151.7 L 128.74666662216185 155.5 L 139.3 155.5 L 140.5 155.4 L 141.4 155.2 L 142.0 155.1 L 142.3 154.9 L 142.7 154.5 L 142.9 154.2 L 143.0 153.6 L 143.2 152.7 L 143.3 151.5 L 143.3 133.5 Z M 19.9 137.5 L 19.9 67.02285718917847 L 17.0 71.0 L 13.3 75.4 L 11.8 74.5 L 13.7 69.1 L 15.7 63.7 L 17.7 58.2 L 19.8 52.6 L 21.8 46.8 L 23.7 40.9 L 25.6 34.7 L 27.4 28.4 L 29.1 21.9 L 30.564787673950196 16.21317720413208 L 30.5 16.2 L 31.3 13.6 L 42.3 18.6 L 44.7 21.3 L 41.04274606704712 22.262435245513917 L 40.0 25.3 L 37.6 31.8 L 37.10476188659668 33.0 L 53.0 33.0 L 59.0 28.0 L 70.0 37.0 L 65.0 40.0 L 62.62975206375122 40.98760328292847 L 62.3 41.6 L 60.7 44.3 L 58.9 47.0 L 56.9 49.8 L 54.6 52.7 L 52.1 55.8 L 49.4 58.9 L 46.3 62.0 L 44.58571424484253 64.0 L 61.9 64.0 L 66.9 59.0 L 76.9 68.0 L 71.9 71.0 L 71.9 132.0 L 61.9 137.0 L 61.9 132.0 L 30.9 132.0 Z M 30.9 100.0 L 30.9 128.0 L 41.1 128.0 L 41.1 100.0 Z M 51.1 100.0 L 51.1 128.0 L 61.9 128.0 L 61.9 100.0 Z M 156.6 115.2 L 155.7 113.1 L 154.81993675231934 111.24208860397339 L 152.7 111.9 L 146.9 113.5 L 135.3 116.1 L 129.5 117.3 L 123.7 118.4 L 118.0 119.5 L 112.2 120.6 L 104.85940322875976 121.88782396316529 L 103.1 125.3 L 100.8 122.6 L 97.4 110.9 L 99.4 110.7 L 105.1 110.3 L 116.7 109.5 L 122.6 109.2 L 127.0 108.97241382598877 L 127.0 95.3 L 114.0 95.3 L 114.0 98.3 L 103.0 103.8 L 103.0 55.9 L 114.0 61.4 L 127.0 61.4 L 127.0 51.9 L 94.4 51.9 L 94.4 47.9 L 127.0 47.9 L 127.0 33.9 L 139.0 35.9 L 142.0 37.9 L 139.0 39.7 L 139.0 47.9 L 153.3181818008423 47.9 L 161.5 38.9 L 171.5 47.9 L 171.5 51.9 L 139.0 51.9 L 139.0 61.4 L 152.4 61.4 L 157.9 56.4 L 168.4 65.4 L 163.4 68.9 L 163.4 95.3 L 152.4 100.8 L 152.4 95.3 L 139.0 95.3 L 139.0 108.36101694107056 L 140.2 108.3 L 146.2 108.2 L 152.2 108.2 L 153.26779661178588 108.23559322357178 L 152.9 107.5 L 151.9 105.7 L 150.9 104.0 L 149.8 102.3 L 148.4 101.1 L 149.3 99.5 L 151.1 100.4 L 153.2 101.1 L 155.2 102.0 L 157.3 103.1 L 159.3 104.4 L 161.2 105.9 L 163.1 107.6 L 165.0 109.5 L 166.9 111.5 L 168.7 113.6 L 169.2 118.2 L 166.4 121.8 L 161.9 122.3 L 158.2 119.6 L 157.4 117.3 Z M 30.9 68.0 L 30.9 96.0 L 41.1 96.0 L 41.1 68.0 Z M 51.1 68.0 L 51.1 96.0 L 61.9 96.0 L 61.9 68.0 Z M 114.0 80.3 L 114.0 91.3 L 127.0 91.3 L 127.0 80.3 Z M 139.0 80.3 L 139.0 91.3 L 152.4 91.3 L 152.4 80.3 Z M 114.0 65.4 L 114.0 76.3 L 127.0 76.3 L 127.0 65.4 Z M 139.0 65.4 L 139.0 76.3 L 152.4 76.3 L 152.4 65.4 Z M 35.45396823883057 37.0 L 35.0 38.1 L 32.4 44.2 L 29.6 50.1 L 26.7 55.7 L 24.004347801208496 60.552173900604245 L 30.9 64.0 L 42.019999980926514 64.0 L 44.0 60.4 L 45.7 56.5 L 47.4 52.8 L 48.8 49.3 L 50.1 46.1 L 51.1 43.1 L 52.0 40.3 L 52.6 37.7 L 52.72727270126343 37.0 Z " />
</g>
</svg>
