<svg xmlns="http://www.w3.org/2000/svg" xmlns:xlink="http://www.w3.org/1999/xlink" version="1.1" baseProfile="full" viewBox="0 0 200 200" width="200" height="200">
<g fill="black">
<path d="M 181.4 147.0 L 183.4 147.0 L 181.4 172.0 L 185.0 174.4 L 187.4 178.0 L 185.0 181.6 L 181.4 184.0 L 144.5 184.0 L 141.9 183.8 L 139.4 183.4 L 137.0 182.6 L 134.7 181.3 L 132.7 179.7 L 131.1 177.7 L 129.8 175.4 L 129.0 173.0 L 128.6 170.5 L 128.5 168.0 L 128.5 124.87203578948974 L 96.8 130.9 L 96.0 127.0 L 128.5 120.81991052627563 L 128.5 90.29666242599487 L 99.4 95.9 L 98.7 92.0 L 128.5 86.26187419891357 L 128.5 50.61499996185303 L 125.4 51.7 L 117.1 54.3 L 108.4 56.7 L 99.3 58.8 L 98.8 57.1 L 107.1 53.1 L 115.2 49.3 L 122.9 45.6 L 130.4 41.9 L 137.6 38.2 L 144.4 34.5 L 150.9 30.8 L 157.1 27.1 L 162.9 23.3 L 167.62646579742432 20.03444185256958 L 167.6 20.0 L 167.62948179244995 20.03235807418823 L 168.4 19.5 L 171.52553195953368 24.30851068496704 L 175.8 29.0 L 176.0 32.4 L 172.41320247650145 30.926850986480712 L 168.8 33.0 L 162.3 36.4 L 155.6 39.7 L 148.5 42.9 L 141.1 45.9 L 137.1451361656189 47.44085607528687 L 140.5 48.0 L 143.5 50.0 L 140.5 51.8 L 140.5 83.95121955871582 L 154.9737427711487 81.16423435211182 L 162.9 69.4 L 176.6 77.0 L 177.3 80.9 L 140.5 87.98600769042969 L 140.5 118.53803129196167 L 163.76789417266846 114.1134877204895 L 171.8 102.4 L 185.4 110.0 L 186.2 113.9 L 140.5 122.59015655517578 L 140.5 169.2 L 140.7 170.1 L 140.9 170.7 L 141.1 171.0 L 141.2 171.2 L 141.4 171.4 L 142.3 171.7 L 143.2 171.9 L 144.5 172.0 L 175.4 172.0 Z M 80.5 182.1 L 78.7 183.7 L 76.8 185.1 L 74.7 186.3 L 72.5 187.3 L 70.2 188.0 L 67.9 188.5 L 65.4 188.8 L 63.0 189.0 L 63.0 183.0 L 45.0 180.0 L 45.0 177.0 L 63.0 177.0 L 64.4 176.9 L 65.8 176.7 L 68.2 176.1 L 69.2 175.6 L 70.3 175.0 L 71.2 174.3 L 72.2 173.5 L 73.1 172.5 L 74.0 171.3 L 75.4 169.2 L 76.7 166.3 L 77.9 162.9 L 79.1 158.8 L 80.0 154.1 L 80.8 148.8 L 81.5 143.0 L 81.9 136.5 L 82.2 129.5 L 82.27333335876465 124.0 L 32.3 124.0 L 20.3 130.0 L 20.3 30.0 L 32.3 36.0 L 44.175 36.0 L 44.8 35.0 L 45.8 32.3 L 46.9 29.7 L 48.0 27.2 L 49.0 24.6 L 50.0 22.1 L 51.8 17.1 L 52.7 14.7 L 53.18832483291626 13.173984813690186 L 53.0 13.1 L 54.0 11.1 L 64.2 17.5 L 66.0 20.6 L 61.73706970214844 20.967494010925293 L 60.9 22.1 L 59.1 24.4 L 57.2 26.6 L 55.3 28.7 L 53.3 30.8 L 51.2 32.8 L 49.0 34.7 L 47.33888893127441 36.0 L 73.4 36.0 L 79.4 31.0 L 90.4 40.0 L 85.4 44.0 L 85.4 86.0 L 73.4 92.0 L 73.4 84.0 L 32.3 84.0 L 32.3 100.0 L 78.11818180084228 100.0 L 86.3 91.0 L 96.3 100.0 L 96.3 104.0 L 32.3 104.0 L 32.3 120.0 L 82.3 120.0 L 88.3 115.0 L 99.3 124.0 L 94.3 127.0 L 94.2355531692505 127.02685289382934 L 94.2 129.8 L 93.9 137.2 L 93.4 144.0 L 92.7 150.4 L 91.8 156.2 L 90.7 161.6 L 89.4 166.5 L 87.8 170.9 L 85.9 174.9 L 83.7 178.4 L 82.2 180.3 Z M 13.9 177.2 L 11.9 173.1 L 13.3 168.7 L 14.7 167.5 L 16.0 165.8 L 17.4 163.7 L 18.6 161.1 L 19.7 158.0 L 20.7 154.4 L 21.5 150.5 L 22.2 146.1 L 22.8 141.2 L 23.1 136.0 L 24.9 135.9 L 25.8 141.1 L 26.7 146.0 L 27.3 150.7 L 27.5 155.1 L 27.5 159.3 L 27.1 163.2 L 26.5 166.9 L 25.5 170.4 L 24.1 173.6 L 22.3 176.6 L 18.2 178.6 Z M 37.6 171.9 L 34.0 169.1 L 33.3 164.6 L 34.0 163.1 L 34.6 161.4 L 35.1 159.4 L 35.5 157.2 L 35.7 154.7 L 35.8 152.0 L 35.8 149.1 L 35.7 146.0 L 35.4 142.6 L 34.6 139.2 L 36.3 138.6 L 37.8 141.9 L 39.5 144.9 L 40.9 147.9 L 42.2 150.8 L 43.1 153.7 L 43.9 156.5 L 44.5 159.3 L 44.9 162.1 L 45.0 164.8 L 44.9 167.5 L 42.2 171.1 Z M 50.8 153.1 L 50.7 151.0 L 50.4 148.8 L 50.1 146.7 L 49.6 144.6 L 48.9 142.5 L 48.1 140.3 L 47.2 138.1 L 45.7 136.3 L 47.0 135.0 L 48.9 136.5 L 51.1 138.0 L 53.1 139.6 L 55.0 141.5 L 56.7 143.5 L 58.2 145.8 L 59.6 148.2 L 60.7 150.8 L 61.7 153.5 L 62.6 156.4 L 61.2 160.7 L 57.2 162.9 L 52.8 161.6 L 50.6 157.6 L 50.8 155.3 Z M 65.2 144.6 L 64.9 142.9 L 64.4 141.4 L 63.7 139.8 L 62.9 138.2 L 61.9 136.6 L 60.7 135.0 L 59.3 133.3 L 57.4 132.2 L 58.2 130.5 L 60.3 131.4 L 62.6 131.9 L 64.9 132.7 L 67.0 133.7 L 69.0 134.9 L 70.9 136.4 L 72.7 138.1 L 74.3 139.9 L 75.7 142.0 L 77.0 144.3 L 76.5 148.9 L 73.1 151.8 L 68.5 151.3 L 65.6 147.9 L 65.4 146.2 Z M 32.3 62.0 L 32.3 80.0 L 73.4 80.0 L 73.4 62.0 Z M 32.3 40.0 L 32.3 58.0 L 73.4 58.0 L 73.4 40.0 Z " />
</g>
</svg>
