<svg xmlns="http://www.w3.org/2000/svg" xmlns:xlink="http://www.w3.org/1999/xlink" version="1.1" baseProfile="full" viewBox="0 0 200 200" width="200" height="200">
<g fill="black">
<path d="M 172.4 144.3 L 174.4 144.3 L 172.4 169.3 L 176.0 171.7 L 178.4 175.3 L 176.0 178.9 L 172.4 181.3 L 142.9 181.3 L 140.4 181.2 L 137.9 180.7 L 135.5 179.9 L 133.2 178.7 L 131.2 177.1 L 129.5 175.0 L 128.3 172.8 L 127.5 170.4 L 127.1 167.9 L 126.9 165.3 L 126.9 61.0 L 138.9 63.0 L 141.9 65.0 L 138.9 66.8 L 138.9 165.3 L 139.0 166.5 L 139.2 167.5 L 139.4 168.0 L 139.5 168.4 L 139.7 168.6 L 139.9 168.7 L 140.2 168.9 L 140.8 169.1 L 141.7 169.2 L 142.9 169.3 L 166.4 169.3 Z M 80.0 182.1 L 78.1 183.7 L 76.2 185.1 L 74.1 186.3 L 71.9 187.3 L 69.6 188.0 L 67.3 188.5 L 64.9 188.8 L 62.4 189.0 L 62.4 183.0 L 44.4 180.0 L 44.4 177.0 L 62.4 177.0 L 63.9 176.9 L 65.2 176.7 L 66.5 176.4 L 67.6 176.1 L 68.7 175.6 L 69.7 175.0 L 70.7 174.3 L 71.7 173.5 L 72.6 172.5 L 73.5 171.3 L 74.9 169.2 L 76.2 166.3 L 77.4 162.9 L 78.6 158.8 L 79.5 154.1 L 80.3 148.8 L 81.0 143.0 L 81.4 136.5 L 81.7 129.5 L 81.77333335876465 124.0 L 31.4 124.0 L 19.4 130.0 L 19.4 30.0 L 31.4 36.0 L 43.41666669845581 36.0 L 44.0 35.0 L 45.1 32.3 L 46.2 29.7 L 47.3 27.2 L 48.3 24.6 L 50.3 19.6 L 51.2 17.1 L 52.0 14.7 L 52.49949235916138 13.13908634185791 L 52.4 13.1 L 52.711111068725586 12.477777767181397 L 52.8 12.2 L 52.840148735046384 12.219702625274659 L 53.4 11.1 L 63.6 17.5 L 65.4 20.6 L 61.070696926116945 20.973215770721435 L 60.2 22.1 L 58.4 24.4 L 56.5 26.6 L 54.6 28.7 L 52.6 30.8 L 50.5 32.8 L 48.3 34.7 L 46.638888931274415 36.0 L 72.9 36.0 L 78.9 31.0 L 89.9 40.0 L 84.9 44.0 L 84.9 86.0 L 72.9 92.0 L 72.9 84.0 L 31.4 84.0 L 31.4 100.0 L 77.71818180084229 100.0 L 85.9 91.0 L 95.9 100.0 L 95.9 104.0 L 31.4 104.0 L 31.4 120.0 L 81.8 120.0 L 87.8 115.0 L 98.8 124.0 L 93.8 127.0 L 93.7355531692505 127.02685289382934 L 93.7 129.8 L 93.4 137.2 L 92.9 144.0 L 92.2 150.4 L 91.3 156.2 L 90.2 161.6 L 88.9 166.5 L 87.3 170.9 L 85.4 174.9 L 83.2 178.4 L 81.6 180.4 Z M 12.9 177.2 L 11.0 173.1 L 12.4 168.7 L 13.8 167.5 L 15.1 165.8 L 16.5 163.7 L 17.7 161.1 L 18.8 158.0 L 19.8 154.4 L 20.6 150.5 L 21.3 146.1 L 22.0 141.2 L 22.2 136.0 L 24.0 135.9 L 25.0 141.1 L 25.9 146.0 L 26.4 150.7 L 26.7 155.1 L 26.6 159.3 L 26.3 163.2 L 25.6 166.9 L 24.6 170.4 L 23.2 173.6 L 21.4 176.7 L 17.3 178.6 Z M 36.9 171.9 L 33.2 169.1 L 32.5 164.6 L 33.2 163.1 L 33.8 161.4 L 34.3 159.4 L 34.7 157.2 L 35.0 154.7 L 35.1 152.0 L 35.0 149.1 L 34.9 146.0 L 34.6 142.6 L 33.8 139.2 L 35.5 138.6 L 37.0 141.8 L 38.7 144.9 L 40.2 147.9 L 41.4 150.8 L 42.4 153.7 L 43.2 156.5 L 43.8 159.3 L 44.1 162.1 L 44.3 164.8 L 44.1 167.5 L 41.4 171.1 Z M 50.1 153.1 L 50.0 151.0 L 49.8 148.8 L 49.4 146.7 L 48.9 144.6 L 48.2 142.5 L 47.4 140.3 L 46.5 138.1 L 45.0 136.3 L 46.2 135.0 L 48.2 136.5 L 50.4 137.9 L 52.4 139.6 L 54.3 141.5 L 56.0 143.5 L 57.5 145.8 L 58.9 148.2 L 60.1 150.8 L 61.1 153.5 L 61.9 156.4 L 60.5 160.7 L 56.5 162.9 L 52.2 161.6 L 49.9 157.6 L 50.1 155.3 Z M 64.3 143.0 L 63.8 141.4 L 63.1 139.8 L 62.3 138.2 L 61.2 136.6 L 60.0 135.0 L 58.6 133.3 L 56.8 132.2 L 57.5 130.5 L 59.7 131.4 L 62.0 131.9 L 64.2 132.6 L 66.4 133.7 L 68.4 134.9 L 70.3 136.4 L 72.1 138.0 L 73.7 139.9 L 75.2 142.0 L 76.4 144.3 L 76.0 148.8 L 72.5 151.8 L 68.0 151.3 L 65.0 147.9 L 64.9 146.2 Z M 100.5 146.2 L 98.3 142.2 L 99.4 137.7 L 101.5 135.2 L 103.5 132.0 L 105.4 128.3 L 107.2 123.9 L 108.7 119.0 L 110.1 113.5 L 111.3 107.4 L 112.4 100.7 L 113.4 93.5 L 114.3 85.7 L 116.1 85.7 L 117.2 93.5 L 117.7 101.0 L 117.9 108.0 L 117.6 114.5 L 117.0 120.6 L 116.1 126.3 L 114.9 131.6 L 113.3 136.5 L 111.3 141.0 L 108.9 145.1 L 104.9 147.3 Z M 178.4 121.3 L 177.8 116.0 L 176.9 110.9 L 175.9 105.9 L 174.6 101.0 L 173.2 96.2 L 171.6 91.5 L 168.2 82.1 L 169.7 81.1 L 173.2 84.9 L 176.4 89.0 L 179.2 93.5 L 181.7 98.3 L 184.0 103.3 L 185.9 108.5 L 187.6 114.0 L 189.0 119.6 L 190.1 125.5 L 191.0 131.5 L 189.5 135.8 L 185.5 137.9 L 181.2 136.4 L 179.1 132.4 L 178.8 126.8 Z M 31.4 62.0 L 31.4 80.0 L 72.9 80.0 L 72.9 62.0 Z M 31.4 40.0 L 31.4 58.0 L 72.9 58.0 L 72.9 40.0 Z M 151.9 44.5 L 150.1 41.2 L 148.2 38.1 L 146.2 35.2 L 144.0 32.5 L 141.7 30.1 L 139.2 27.8 L 136.6 25.6 L 133.6 23.8 L 134.2 22.1 L 137.8 22.8 L 141.4 23.8 L 145.0 25.3 L 148.4 27.2 L 151.7 29.6 L 154.9 32.3 L 157.9 35.4 L 160.8 38.9 L 163.5 42.7 L 166.0 46.9 L 166.2 51.5 L 163.2 54.9 L 158.6 55.1 L 155.2 52.1 L 153.6 48.2 Z " />
</g>
</svg>
