<svg xmlns="http://www.w3.org/2000/svg" xmlns:xlink="http://www.w3.org/1999/xlink" version="1.1" baseProfile="full" viewBox="0 0 200 200" width="200" height="200">
<g fill="black">
<path d="M 100.8 182.9 L 88.8 188.9 L 88.8 110.7 L 100.8 116.7 L 165.1 116.7 L 171.1 111.7 L 182.1 120.7 L 177.1 124.7 L 177.1 179.9 L 165.1 185.9 L 165.1 175.9 L 100.8 175.9 Z M 13.4 188.5 L 10.7 184.8 L 11.3 180.3 L 12.8 178.3 L 14.3 175.9 L 15.6 173.2 L 16.9 170.0 L 18.1 166.6 L 19.3 162.7 L 20.3 158.5 L 21.3 154.0 L 22.3 149.2 L 23.1 144.0 L 24.9 144.0 L 25.5 149.3 L 26.0 154.3 L 26.3 159.1 L 26.3 163.7 L 26.0 168.1 L 25.6 172.2 L 25.0 176.1 L 24.1 179.7 L 23.0 183.2 L 21.6 186.5 L 17.9 189.1 Z M 52.0 168.3 L 51.7 165.7 L 51.3 163.1 L 50.8 160.4 L 50.1 157.8 L 49.3 155.2 L 48.3 152.5 L 47.2 149.8 L 45.7 147.3 L 47.0 146.1 L 49.3 148.2 L 51.7 150.2 L 53.8 152.4 L 55.8 154.8 L 57.7 157.4 L 59.3 160.1 L 60.8 162.9 L 62.0 165.9 L 63.1 169.0 L 64.0 172.2 L 62.8 176.6 L 58.8 178.9 L 54.4 177.7 L 52.1 173.7 L 52.1 171.0 Z M 38.7 182.9 L 34.7 180.8 L 33.3 176.4 L 33.8 174.1 L 34.2 171.7 L 34.5 169.1 L 34.7 166.4 L 34.8 163.6 L 34.7 160.6 L 34.6 157.4 L 34.3 154.1 L 34.0 150.7 L 33.2 147.2 L 34.9 146.6 L 36.5 149.8 L 38.3 152.9 L 39.8 156.1 L 41.2 159.2 L 42.3 162.3 L 43.2 165.4 L 44.0 168.4 L 44.6 171.5 L 45.0 174.5 L 45.2 177.5 L 43.0 181.5 Z M 69.6 163.7 L 68.9 161.2 L 68.2 158.8 L 67.3 156.4 L 66.3 154.1 L 65.2 151.8 L 64.0 149.5 L 62.7 147.2 L 60.9 145.3 L 62.0 143.9 L 64.3 145.4 L 66.9 146.8 L 69.2 148.4 L 71.4 150.3 L 73.5 152.3 L 75.5 154.6 L 77.4 157.0 L 79.1 159.6 L 80.6 162.4 L 82.0 165.3 L 81.6 169.9 L 78.1 172.8 L 73.5 172.3 L 70.6 168.9 L 70.1 166.2 Z M 100.8 147.9 L 100.8 171.9 L 127.0 171.9 L 127.0 147.9 Z M 139.0 147.9 L 139.0 171.9 L 165.1 171.9 L 165.1 147.9 Z M 100.8 120.7 L 100.8 143.9 L 127.0 143.9 L 127.0 120.7 Z M 139.0 120.7 L 139.0 143.9 L 165.1 143.9 L 165.1 120.7 Z M 20.0 137.5 L 20.0 66.33333330154419 L 16.5 71.0 L 12.7 75.4 L 11.2 74.5 L 15.4 63.7 L 17.6 58.2 L 19.7 52.5 L 21.9 46.7 L 23.9 40.8 L 25.9 34.7 L 27.8 28.4 L 29.7 21.9 L 31.167987060546874 16.114404010772706 L 31.1 16.1 L 31.9 13.6 L 42.9 18.6 L 45.2 21.4 L 41.59354839324951 22.30161294937134 L 40.5 25.4 L 38.0 31.9 L 37.52857141494751 33.0 L 54.7 33.0 L 60.7 28.0 L 71.7 37.0 L 66.7 40.0 L 64.27024793624878 41.01239671707153 L 63.9 41.7 L 62.2 44.3 L 60.4 47.1 L 58.3 49.9 L 55.9 52.8 L 53.4 55.8 L 50.5 58.9 L 47.3 62.1 L 45.56764707565308 64.0 L 63.5 64.0 L 69.0 59.0 L 79.5 68.0 L 74.5 71.5 L 74.5 132.0 L 63.5 137.5 L 63.5 132.0 L 31.0 132.0 Z M 31.0 100.0 L 31.0 128.0 L 42.2 128.0 L 42.2 100.0 Z M 52.2 100.0 L 52.2 128.0 L 63.5 128.0 L 63.5 100.0 Z M 80.5 80.9 L 78.6 76.8 L 80.1 72.5 L 81.2 71.6 L 82.5 70.0 L 83.7 67.9 L 85.0 65.0 L 86.1 61.7 L 87.2 57.7 L 88.2 53.2 L 89.1 48.2 L 90.0 42.7 L 90.7 36.6 L 92.5 36.6 L 93.2 42.7 L 93.63157892227173 46.8 L 127.0 46.8 L 127.0 12.4 L 139.0 14.4 L 142.0 16.4 L 139.0 18.2 L 139.0 46.8 L 148.33658533096315 46.8 L 149.8 43.8 L 151.4 39.7 L 152.9 36.0 L 154.3 32.5 L 155.5 29.4 L 156.5 26.6 L 157.4 24.1 L 158.1 21.8 L 158.6 19.9 L 158.70579471588135 19.371026515960693 L 158.5 19.3 L 159.4 17.1 L 169.8 23.2 L 171.8 26.3 L 167.09952602386474 26.86729860305786 L 165.8 28.6 L 164.1 30.8 L 162.1 33.2 L 160.0 35.9 L 157.6 38.8 L 155.0 41.9 L 152.1 45.2 L 150.88918914794922 46.8 L 172.6 46.8 L 178.6 41.8 L 189.6 50.8 L 184.6 53.8 L 181.894117641449 54.92745094299316 L 181.8 55.1 L 180.4 57.5 L 178.9 60.0 L 177.3 62.6 L 175.5 65.3 L 173.6 68.2 L 171.6 71.1 L 169.4 74.1 L 167.4 77.4 L 165.7 76.6 L 167.0 72.9 L 167.02702703475953 72.77837839126587 L 163.0 76.0 L 163.0 101.0 L 151.0 107.0 L 151.0 99.0 L 115.0 99.0 L 115.0 102.0 L 103.0 108.0 L 103.0 62.0 L 115.0 68.0 L 151.0 68.0 L 157.0 63.0 L 167.32307691574096 71.44615383148194 L 167.8 69.3 L 168.7 65.9 L 169.5 62.7 L 170.2 59.6 L 170.9 56.7 L 171.5 54.0 L 172.1 51.5 L 172.2166666984558 50.8 L 93.98113203048706 50.8 L 94.2 53.7 L 94.2 58.6 L 94.1 63.0 L 93.7 67.2 L 93.0 71.0 L 92.1 74.4 L 90.8 77.6 L 89.0 80.5 L 84.9 82.4 Z M 31.0 68.0 L 31.0 96.0 L 42.2 96.0 L 42.2 68.0 Z M 52.2 68.0 L 52.2 96.0 L 63.5 96.0 L 63.5 68.0 Z M 115.0 72.0 L 115.0 95.0 L 151.0 95.0 L 151.0 72.0 Z M 35.81428575515747 37.0 L 35.3 38.2 L 32.5 44.3 L 29.6 50.1 L 26.6 55.7 L 23.879136657714845 60.43956832885742 L 31.0 64.0 L 42.93000001907349 64.0 L 45.0 60.4 L 46.9 56.4 L 48.6 52.7 L 50.2 49.2 L 51.5 46.0 L 52.6 43.0 L 53.5 40.2 L 54.2 37.7 L 54.35217390060425 37.0 Z M 105.2 37.0 L 104.6 34.7 L 104.0 32.5 L 103.3 30.3 L 101.5 25.9 L 99.3 21.5 L 97.7 19.6 L 98.9 18.2 L 101.0 19.8 L 103.3 21.1 L 105.5 22.7 L 107.5 24.4 L 109.5 26.3 L 111.3 28.4 L 113.0 30.6 L 114.6 32.9 L 116.1 35.4 L 117.4 38.1 L 116.9 42.6 L 113.4 45.6 L 108.9 45.1 L 105.9 41.6 L 105.6 39.3 Z " />
</g>
</svg>
