<svg xmlns="http://www.w3.org/2000/svg" xmlns:xlink="http://www.w3.org/1999/xlink" version="1.1" baseProfile="full" viewBox="0 0 200 200" width="200" height="200">
<g fill="black">
<path d="M 171.3 181.3 L 169.4 182.8 L 167.5 184.2 L 165.4 185.3 L 163.2 186.3 L 160.9 187.0 L 158.6 187.5 L 156.1 187.9 L 153.7 188.0 L 153.7 182.0 L 133.7 179.0 L 133.7 176.0 L 153.7 176.0 L 155.2 175.9 L 156.5 175.7 L 157.8 175.4 L 158.9 175.1 L 160.0 174.6 L 161.1 174.0 L 162.1 173.3 L 163.1 172.5 L 164.0 171.5 L 165.0 170.4 L 165.9 168.9 L 166.8 166.7 L 167.8 163.6 L 168.6 159.8 L 169.3 155.2 L 169.9 149.9 L 170.2 144.0 L 170.5 137.3 L 170.5 131.9583333015442 L 170.4 132.0 L 170.4 124.0 L 108.0 124.0 L 96.0 130.0 L 96.0 30.0 L 108.0 36.0 L 125.3875 36.0 L 125.8 35.1 L 126.4 32.5 L 127.8 27.5 L 128.4 25.0 L 129.1 22.6 L 129.7 20.1 L 130.2 17.7 L 130.8 15.2 L 131.1006103515625 13.757070159912109 L 130.9 13.7 L 131.8 11.4 L 142.5 17.0 L 144.6 19.9 L 140.28928260803224 20.73189287185669 L 139.7 21.7 L 138.2 23.9 L 136.7 26.2 L 135.1 28.3 L 131.7 32.5 L 129.8 34.5 L 128.3 36.0 L 158.7 36.0 L 164.7 31.0 L 175.7 40.0 L 170.7 44.0 L 170.7 86.0 L 158.7 92.0 L 158.7 84.0 L 108.0 84.0 L 108.0 100.0 L 168.01818180084229 100.0 L 176.2 91.0 L 186.2 100.0 L 186.2 104.0 L 108.0 104.0 L 108.0 120.0 L 170.4 120.0 L 176.4 115.0 L 187.4 124.0 L 182.46295394897462 126.96222763061523 L 182.5 130.0 L 182.5 137.6 L 182.2 144.6 L 181.8 150.9 L 181.2 156.7 L 180.4 161.9 L 179.4 166.6 L 178.1 170.7 L 176.5 174.4 L 174.5 177.6 L 173.0 179.5 Z M 86.9 173.9 L 85.6 169.6 L 87.6 165.4 L 89.2 164.4 L 90.7 162.9 L 92.2 161.1 L 93.6 158.8 L 94.8 156.1 L 95.9 152.9 L 96.8 149.3 L 97.5 145.3 L 98.1 140.9 L 98.2 136.0 L 100.0 135.8 L 101.0 140.7 L 101.9 145.3 L 102.5 149.7 L 102.6 153.8 L 102.4 157.8 L 101.9 161.6 L 100.9 165.2 L 99.5 168.5 L 97.7 171.7 L 95.4 174.5 L 91.0 175.9 Z M 115.7 169.8 L 112.3 166.8 L 111.9 162.2 L 112.6 161.1 L 113.2 159.7 L 113.8 158.0 L 114.1 156.1 L 114.3 153.9 L 114.3 151.4 L 114.2 148.7 L 113.9 145.7 L 113.4 142.5 L 112.3 139.2 L 114.0 138.5 L 115.6 141.5 L 117.5 144.3 L 119.1 147.1 L 120.5 149.9 L 121.6 152.6 L 122.5 155.3 L 123.1 157.9 L 123.5 160.6 L 123.5 163.3 L 123.3 166.0 L 120.3 169.4 Z M 39.4 163.1 L 36.9 162.7 L 34.5 161.9 L 32.2 160.7 L 30.2 159.0 L 28.5 157.0 L 27.3 154.7 L 26.5 152.3 L 26.1 149.8 L 25.9 147.3 L 25.9 99.97088603973388 L 21.3 102.3 L 13.3 105.6 L 12.4 104.0 L 19.4 99.1 L 25.9 94.12941179275512 L 25.9 22.0 L 37.9 24.0 L 40.9 26.0 L 37.9 27.8 L 37.9 83.52380952835082 L 39.1 82.4 L 45.3 76.0 L 51.3 69.2 L 57.1 61.9 L 62.7 54.2 L 68.1 46.0 L 72.72399997711182 38.11199998855591 L 72.7 38.1 L 73.03000001907348 37.589999961853025 L 73.2 37.3 L 73.21270036697388 37.307644844055176 L 73.8 36.4 L 83.5 43.5 L 85.0 46.7 L 81.31818180084228 46.7 L 77.5 52.3 L 71.3 60.6 L 64.9 68.3 L 58.2 75.5 L 51.3 82.1 L 44.1 88.1 L 37.9 92.6863013267517 L 37.9 147.3 L 38.0 148.5 L 38.1 149.4 L 38.3 150.0 L 38.5 150.3 L 38.7 150.5 L 38.8 150.7 L 39.2 150.9 L 39.8 151.0 L 40.7 151.2 L 41.9 151.3 L 77.5 151.3 L 83.5 126.3 L 85.5 126.3 L 83.5 151.3 L 87.1 153.7 L 89.5 157.3 L 87.1 160.9 L 83.5 163.3 L 41.9 163.3 Z M 132.8 153.2 L 132.9 151.4 L 132.8 149.6 L 132.5 147.8 L 132.0 145.9 L 131.4 144.0 L 130.5 142.0 L 129.4 139.9 L 127.7 138.3 L 128.8 136.8 L 130.9 138.2 L 133.2 139.4 L 135.3 140.8 L 137.2 142.5 L 138.9 144.4 L 140.5 146.6 L 141.8 148.9 L 142.8 151.4 L 143.6 154.1 L 144.2 157.0 L 142.4 161.2 L 138.2 163.0 L 134.0 161.2 L 132.2 157.0 L 132.6 155.1 Z M 151.7 146.7 L 151.5 145.4 L 151.2 144.1 L 150.5 142.6 L 149.6 141.1 L 148.4 139.6 L 146.9 137.9 L 145.1 136.3 L 142.8 135.1 L 143.4 133.4 L 145.9 134.3 L 148.6 134.7 L 151.0 135.4 L 153.3 136.3 L 155.5 137.5 L 157.5 138.8 L 159.3 140.5 L 160.9 142.4 L 162.2 144.6 L 163.2 147.0 L 162.1 151.5 L 158.3 153.9 L 153.9 152.8 L 151.4 149.0 L 151.6 147.8 Z M 108.0 62.0 L 108.0 80.0 L 158.7 80.0 L 158.7 62.0 Z M 108.0 40.0 L 108.0 58.0 L 158.7 58.0 L 158.7 40.0 Z " />
</g>
</svg>
