<svg xmlns="http://www.w3.org/2000/svg" xmlns:xlink="http://www.w3.org/1999/xlink" version="1.1" baseProfile="full" viewBox="0 0 200 200" width="200" height="200">
<g fill="black">
<path d="M 14.3 112.0 L 14.3 108.0 L 61.4 108.0 L 61.4 74.0 L 35.6 74.0 L 35.6 86.0 L 23.6 92.0 L 23.6 23.0 L 35.6 25.0 L 38.6 27.0 L 35.6 28.8 L 35.6 70.0 L 61.4 70.0 L 61.4 12.0 L 73.4 14.0 L 76.4 16.0 L 73.4 17.8 L 73.4 182.0 L 61.4 188.0 L 61.4 112.0 L 40.7 112.0 L 40.7 126.0 L 40.2 133.7 L 39.2 141.2 L 37.7 148.4 L 35.8 155.3 L 33.4 161.8 L 30.5 168.0 L 27.1 173.8 L 23.3 179.2 L 18.9 184.2 L 14.0 188.5 L 12.6 187.4 L 15.9 181.9 L 18.8 176.3 L 21.3 170.7 L 23.5 165.0 L 25.4 159.1 L 26.8 152.9 L 27.9 146.6 L 28.5 139.9 L 28.8 133.1 L 28.7 126.0 L 28.7 112.0 Z M 170.7 181.5 L 168.8 183.0 L 166.8 184.3 L 164.8 185.4 L 162.6 186.4 L 160.3 187.1 L 157.9 187.6 L 155.5 187.9 L 153.1 188.0 L 153.1 182.0 L 135.1 179.0 L 135.1 176.0 L 153.1 176.0 L 154.6 175.9 L 156.0 175.7 L 157.3 175.4 L 158.5 175.1 L 159.6 174.6 L 160.7 174.0 L 161.8 173.3 L 162.8 172.5 L 163.8 171.5 L 164.8 170.4 L 165.8 168.9 L 166.8 166.6 L 167.8 163.6 L 168.7 159.7 L 169.5 155.2 L 170.1 149.9 L 170.5 144.0 L 170.8 137.3 L 170.87301950454713 131.969575214386 L 170.8 132.0 L 170.8 124.0 L 103.0 124.0 L 91.0 130.0 L 91.0 30.0 L 103.0 36.0 L 122.13043479919433 36.0 L 122.6 35.1 L 123.3 32.5 L 124.1 29.9 L 124.9 27.4 L 125.6 24.9 L 126.3 22.5 L 127.0 20.0 L 127.6 17.5 L 128.2 15.1 L 128.54910860061645 13.645380878448487 L 128.4 13.6 L 129.3 11.3 L 139.9 17.1 L 142.0 20.1 L 137.67055883407593 20.77180986404419 L 137.0 21.8 L 135.5 24.0 L 133.8 26.3 L 132.2 28.4 L 128.6 32.6 L 126.7 34.5 L 125.04210529327392 36.0 L 158.2 36.0 L 164.2 31.0 L 175.2 40.0 L 170.2 44.0 L 170.2 86.0 L 158.2 92.0 L 158.2 84.0 L 103.0 84.0 L 103.0 100.0 L 169.11818180084228 100.0 L 177.3 91.0 L 187.3 100.0 L 187.3 104.0 L 103.0 104.0 L 103.0 120.0 L 170.8 120.0 L 176.8 115.0 L 187.8 124.0 L 182.82644233703613 126.98413457870484 L 182.9 130.0 L 182.8 137.6 L 182.5 144.6 L 182.1 151.0 L 181.4 156.8 L 180.5 162.1 L 179.4 166.8 L 178.0 171.0 L 176.3 174.7 L 174.1 178.0 L 172.5 179.8 Z M 81.0 173.8 L 79.7 169.4 L 81.9 165.4 L 83.6 164.3 L 85.3 162.8 L 86.8 161.0 L 88.3 158.7 L 89.6 156.1 L 90.7 152.9 L 91.6 149.3 L 92.3 145.3 L 92.9 140.9 L 93.0 136.1 L 94.8 135.8 L 95.8 140.7 L 96.8 145.3 L 97.3 149.7 L 97.4 153.9 L 97.2 157.9 L 96.5 161.7 L 95.4 165.3 L 93.9 168.7 L 91.9 171.9 L 89.4 174.7 L 85.0 176.0 Z M 111.7 169.8 L 108.3 166.7 L 108.0 162.1 L 108.8 161.1 L 109.4 159.7 L 109.9 158.1 L 110.3 156.1 L 110.5 153.9 L 110.4 151.4 L 110.2 148.7 L 109.8 145.7 L 109.3 142.5 L 108.1 139.2 L 109.7 138.4 L 111.5 141.5 L 113.5 144.3 L 115.2 147.1 L 116.6 149.8 L 117.8 152.5 L 118.7 155.2 L 119.3 157.9 L 119.6 160.6 L 119.7 163.4 L 119.4 166.1 L 116.3 169.5 Z M 130.4 153.3 L 130.4 151.5 L 130.3 149.7 L 129.9 147.8 L 129.4 146.0 L 128.6 144.0 L 127.6 142.0 L 126.4 139.9 L 124.6 138.3 L 125.6 136.8 L 127.8 138.2 L 130.2 139.3 L 132.5 140.8 L 134.5 142.4 L 136.3 144.3 L 137.9 146.5 L 139.3 148.8 L 140.4 151.4 L 141.2 154.1 L 141.8 157.0 L 140.0 161.2 L 135.8 163.0 L 131.6 161.2 L 129.8 157.0 L 130.2 155.1 Z M 150.6 146.8 L 150.4 145.5 L 150.0 144.2 L 149.3 142.7 L 148.2 141.2 L 146.8 139.6 L 145.2 138.0 L 143.2 136.3 L 140.7 135.1 L 141.2 133.4 L 144.0 134.2 L 146.8 134.7 L 149.4 135.3 L 151.8 136.2 L 154.1 137.4 L 156.2 138.7 L 158.1 140.4 L 159.7 142.3 L 161.1 144.5 L 162.2 147.0 L 161.1 151.4 L 157.3 153.9 L 152.9 152.9 L 150.4 149.0 L 150.6 147.9 Z M 103.0 62.0 L 103.0 80.0 L 158.2 80.0 L 158.2 62.0 Z M 103.0 40.0 L 103.0 58.0 L 158.2 58.0 L 158.2 40.0 Z " />
</g>
</svg>
