<svg xmlns="http://www.w3.org/2000/svg" xmlns:xlink="http://www.w3.org/1999/xlink" version="1.1" baseProfile="full" viewBox="0 0 200 200" width="200" height="200">
<g fill="black">
<path d="M 164.5 182.0 L 162.6 183.4 L 160.5 184.6 L 158.4 185.6 L 156.2 186.4 L 153.9 187.0 L 151.6 187.5 L 149.2 187.8 L 146.8 187.9 L 146.8 181.9 L 126.8 178.9 L 126.8 175.9 L 146.8 175.9 L 148.4 175.8 L 151.2 175.4 L 152.5 175.0 L 154.9 174.0 L 156.1 173.3 L 157.2 172.5 L 158.4 171.6 L 159.5 170.5 L 161.8 167.2 L 164.2 161.9 L 166.5 154.6 L 168.4 145.4 L 169.9 134.4 L 171.1 121.6 L 171.8 106.9 L 172.1 90.5 L 172.1 72.3 L 171.8436800956726 62.09846668243408 L 171.6 62.2 L 171.6 54.2 L 120.07260274887085 54.2 L 118.4 57.5 L 114.5 64.6 L 110.4 71.4 L 106.0 77.9 L 101.2 84.1 L 96.2 89.9 L 94.7 88.9 L 98.1 82.0 L 101.4 75.2 L 107.8 61.2 L 113.6 46.6 L 116.2 39.0 L 118.7 31.3 L 121.0 23.4 L 122.83878097534179 16.3075590133667 L 122.8 16.3 L 123.05882349014283 15.458823490142823 L 123.1 15.3 L 123.10706825256348 15.302028274536132 L 123.6 13.7 L 134.6 18.6 L 137.0 21.4 L 133.32957553863525 22.36590118408203 L 131.8 26.9 L 128.8 34.9 L 125.6 42.6 L 122.1 50.2 L 171.6 50.2 L 177.6 45.2 L 188.6 54.2 L 183.7268292427063 57.12390241622925 L 184.1 72.2 L 184.1 90.6 L 183.8 107.3 L 183.0 122.4 L 181.8 135.8 L 180.2 147.5 L 178.1 157.6 L 175.5 166.1 L 172.2 173.2 L 168.1 178.8 L 166.4 180.5 Z M 82.3 182.2 L 80.4 183.8 L 78.5 185.1 L 76.4 186.3 L 74.2 187.3 L 71.9 188.0 L 69.6 188.5 L 67.2 188.8 L 64.7 189.0 L 64.7 183.0 L 46.7 180.0 L 46.7 177.0 L 64.7 177.0 L 66.2 176.9 L 67.5 176.7 L 68.8 176.4 L 69.9 176.1 L 71.0 175.6 L 72.1 175.0 L 73.1 174.3 L 74.0 173.5 L 75.0 172.5 L 75.9 171.3 L 77.3 169.2 L 78.7 166.3 L 79.9 162.9 L 81.1 158.8 L 82.1 154.1 L 82.9 148.8 L 83.6 143.0 L 84.0 136.5 L 84.3 129.5 L 84.37333335876465 124.0 L 32.9 124.0 L 20.9 130.0 L 20.9 30.0 L 32.9 36.0 L 45.175 36.0 L 45.8 35.0 L 46.9 32.3 L 48.1 29.7 L 49.2 27.1 L 50.2 24.6 L 51.3 22.1 L 52.3 19.6 L 54.1 14.6 L 54.58737373352051 13.076957035064698 L 54.4 13.0 L 55.4 11.1 L 65.6 17.6 L 67.4 20.7 L 63.08894157409668 20.997314357757567 L 62.2 22.2 L 60.3 24.4 L 58.5 26.6 L 54.5 30.8 L 52.4 32.8 L 50.1 34.7 L 48.43888893127441 36.0 L 75.3 36.0 L 81.3 31.0 L 92.3 40.0 L 87.3 44.0 L 87.3 86.0 L 75.3 92.0 L 75.3 84.0 L 32.9 84.0 L 32.9 100.0 L 80.51818180084229 100.0 L 88.7 91.0 L 98.7 100.0 L 98.7 104.0 L 32.9 104.0 L 32.9 120.0 L 84.4 120.0 L 90.4 115.0 L 101.4 124.0 L 96.4 127.0 L 96.33555316925049 127.02685289382934 L 96.3 129.8 L 96.0 137.2 L 95.5 144.1 L 94.8 150.4 L 93.9 156.3 L 92.7 161.6 L 91.4 166.6 L 89.7 171.0 L 87.8 175.0 L 85.5 178.5 L 84.0 180.4 Z M 14.2 177.2 L 12.2 173.0 L 13.7 168.7 L 15.1 167.5 L 16.5 165.8 L 17.8 163.7 L 19.1 161.0 L 20.2 158.0 L 21.2 154.4 L 22.0 150.5 L 22.7 146.1 L 23.4 141.3 L 23.6 136.0 L 25.4 135.9 L 26.4 141.1 L 27.3 146.0 L 27.8 150.7 L 28.1 155.1 L 28.0 159.3 L 27.6 163.2 L 26.9 166.9 L 25.9 170.4 L 24.5 173.7 L 22.6 176.7 L 18.5 178.6 Z M 38.5 171.9 L 34.9 169.1 L 34.2 164.6 L 34.9 163.1 L 35.5 161.4 L 36.0 159.4 L 36.4 157.2 L 36.6 154.7 L 36.7 152.0 L 36.7 149.1 L 36.5 146.0 L 36.3 142.6 L 35.4 139.2 L 37.1 138.6 L 38.6 141.8 L 40.4 144.9 L 41.8 147.9 L 43.0 150.8 L 44.1 153.7 L 44.9 156.5 L 45.4 159.3 L 45.8 162.1 L 45.9 164.8 L 45.8 167.5 L 43.0 171.1 Z M 52.1 153.1 L 52.0 151.0 L 51.7 148.9 L 51.3 146.7 L 50.8 144.6 L 50.1 142.5 L 49.3 140.4 L 48.3 138.1 L 46.8 136.3 L 48.0 135.0 L 50.0 136.5 L 52.2 137.9 L 54.3 139.6 L 56.2 141.4 L 57.9 143.5 L 59.5 145.7 L 60.8 148.2 L 62.0 150.7 L 63.1 153.5 L 63.9 156.4 L 62.5 160.7 L 58.5 162.9 L 54.2 161.6 L 51.9 157.6 L 52.1 155.3 Z M 66.9 144.6 L 66.5 143.0 L 66.0 141.4 L 65.3 139.8 L 64.4 138.2 L 63.4 136.6 L 62.1 135.0 L 60.7 133.3 L 58.8 132.2 L 59.5 130.5 L 61.7 131.4 L 64.1 131.9 L 66.3 132.6 L 68.5 133.6 L 70.5 134.9 L 72.5 136.3 L 74.3 138.0 L 75.9 139.9 L 77.4 142.0 L 78.7 144.3 L 78.3 148.8 L 74.8 151.8 L 70.3 151.4 L 67.3 147.9 L 67.1 146.2 Z M 102.8 137.7 L 107.7 136.0 L 112.9 134.3 L 118.1 132.4 L 123.6 130.4 L 129.2 128.4 L 134.9 126.3 L 140.9 124.1 L 147.0 121.9 L 153.3 119.8 L 159.9 117.7 L 160.7 119.4 L 155.0 123.2 L 149.3 126.8 L 143.6 130.1 L 138.1 133.2 L 132.6 136.1 L 127.3 138.9 L 122.1 141.6 L 117.0 144.2 L 112.1 146.6 L 110.9992980003357 147.11665601730346 L 110.2 150.9 L 107.2 148.9 L 100.9 138.5 Z M 156.0 90.4 L 156.0 94.4 L 111.0 94.4 L 111.0 90.4 L 137.8181818008423 90.4 L 146.0 81.4 Z M 32.9 62.0 L 32.9 80.0 L 75.3 80.0 L 75.3 62.0 Z M 32.9 40.0 L 32.9 58.0 L 75.3 58.0 L 75.3 40.0 Z " />
</g>
</svg>
