<svg xmlns="http://www.w3.org/2000/svg" xmlns:xlink="http://www.w3.org/1999/xlink" version="1.1" baseProfile="full" viewBox="0 0 200 200" width="200" height="200">
<g fill="black">
<path d="M 19.8 162.7 L 26.2 161.4 L 26.4 161.3529411315918 L 26.4 56.0 L 38.4 58.0 L 41.4 60.0 L 38.4 61.8 L 38.4 158.50704221725465 L 40.1 158.1 L 47.6 156.1 L 51.6 155.05 L 51.6 14.0 L 63.6 16.0 L 66.6 18.0 L 63.6 19.8 L 63.6 79.0 L 73.8777777671814 79.0 L 80.1 72.0 L 88.1 79.0 L 88.1 83.0 L 63.6 83.0 L 63.6 151.68674697875977 L 63.9 151.6 L 72.6 149.2 L 81.7 146.7 L 91.2 144.1 L 91.9 145.8 L 83.0 150.2 L 74.4 154.2 L 66.0 157.8 L 58.0 161.1 L 50.3 164.2 L 42.9 166.9 L 35.8 169.5 L 29.0 171.7 L 22.6 173.8 L 20.43234338760376 174.42931966781617 L 19.1 178.0 L 16.4 175.6 L 11.8 164.3 Z M 172.2 181.4 L 170.3 182.9 L 168.3 184.2 L 166.2 185.4 L 164.1 186.3 L 161.8 187.0 L 159.4 187.6 L 157.0 187.9 L 154.6 188.0 L 154.6 182.0 L 134.6 179.0 L 134.6 176.0 L 154.6 176.0 L 156.1 175.9 L 157.4 175.7 L 158.7 175.4 L 159.9 175.1 L 161.0 174.6 L 162.1 174.0 L 163.1 173.3 L 164.1 172.5 L 165.1 171.5 L 166.0 170.4 L 167.0 168.9 L 168.0 166.7 L 168.9 163.6 L 169.8 159.8 L 170.5 155.2 L 171.1 149.9 L 171.5 144.0 L 171.8 137.3 L 171.8 131.9583333015442 L 171.7 132.0 L 171.7 124.0 L 107.0 124.0 L 95.0 130.0 L 95.0 30.0 L 107.0 36.0 L 125.0875 36.0 L 125.5 35.1 L 126.2 32.5 L 126.9 30.0 L 127.7 27.5 L 128.4 25.0 L 129.0 22.5 L 129.7 20.1 L 130.3 17.6 L 130.8 15.2 L 131.17147483825684 13.65218801498413 L 131.0 13.6 L 131.9 11.4 L 142.5 17.1 L 144.6 20.0 L 140.27267293930055 20.75918016433716 L 139.7 21.7 L 138.2 24.0 L 135.0 28.4 L 133.3 30.5 L 131.5 32.5 L 129.6 34.5 L 128.02105264663697 36.0 L 159.6 36.0 L 165.6 31.0 L 176.6 40.0 L 171.6 44.0 L 171.6 86.0 L 159.6 92.0 L 159.6 84.0 L 107.0 84.0 L 107.0 100.0 L 169.61818180084228 100.0 L 177.8 91.0 L 187.8 100.0 L 187.8 104.0 L 107.0 104.0 L 107.0 120.0 L 171.7 120.0 L 177.7 115.0 L 188.7 124.0 L 183.7629539489746 126.96222763061523 L 183.8 130.0 L 183.8 137.6 L 183.5 144.6 L 183.1 151.0 L 182.4 156.8 L 181.6 162.0 L 180.5 166.7 L 179.2 170.9 L 177.6 174.6 L 175.5 177.8 L 173.9 179.7 Z M 85.5 173.9 L 84.2 169.5 L 86.3 165.4 L 87.9 164.3 L 89.5 162.9 L 91.1 161.0 L 92.5 158.8 L 93.7 156.1 L 94.8 152.9 L 95.7 149.3 L 96.4 145.3 L 97.0 140.9 L 97.1 136.0 L 98.9 135.8 L 99.9 140.7 L 100.9 145.3 L 101.4 149.7 L 101.5 153.9 L 101.3 157.8 L 100.7 161.6 L 99.7 165.2 L 98.3 168.6 L 96.4 171.8 L 94.0 174.6 L 89.6 175.9 Z M 115.1 169.8 L 111.7 166.7 L 111.4 162.2 L 112.1 161.1 L 112.7 159.7 L 113.3 158.0 L 113.6 156.1 L 113.8 153.9 L 113.8 151.4 L 113.6 148.7 L 113.3 145.7 L 112.8 142.5 L 111.7 139.2 L 113.3 138.5 L 115.0 141.5 L 117.0 144.3 L 118.6 147.1 L 120.0 149.8 L 121.1 152.6 L 122.0 155.2 L 122.6 157.9 L 123.0 160.6 L 123.0 163.3 L 122.7 166.0 L 119.7 169.4 Z M 132.9 153.3 L 132.9 151.5 L 132.8 149.6 L 132.5 147.8 L 132.0 145.9 L 131.3 144.0 L 130.4 142.0 L 129.2 139.9 L 127.5 138.3 L 128.5 136.8 L 130.7 138.2 L 133.1 139.4 L 135.2 140.8 L 137.2 142.5 L 139.0 144.4 L 140.5 146.5 L 141.8 148.9 L 142.9 151.4 L 143.8 154.1 L 144.3 157.0 L 142.5 161.2 L 138.3 163.0 L 134.1 161.2 L 132.3 157.0 L 132.7 155.1 Z M 152.3 146.7 L 152.2 145.5 L 151.8 144.1 L 151.1 142.7 L 150.2 141.2 L 148.9 139.6 L 147.3 138.0 L 145.4 136.3 L 143.0 135.1 L 143.6 133.4 L 146.3 134.3 L 148.9 134.7 L 151.5 135.4 L 153.8 136.3 L 156.0 137.4 L 158.1 138.8 L 159.9 140.4 L 161.5 142.4 L 162.9 144.6 L 163.9 147.0 L 162.9 151.4 L 159.0 153.9 L 154.6 152.8 L 152.1 149.0 L 152.3 147.9 Z M 107.0 62.0 L 107.0 80.0 L 159.6 80.0 L 159.6 62.0 Z M 107.0 40.0 L 107.0 58.0 L 159.6 58.0 L 159.6 40.0 Z " />
</g>
</svg>
