<svg xmlns="http://www.w3.org/2000/svg" xmlns:xlink="http://www.w3.org/1999/xlink" version="1.1" baseProfile="full" viewBox="0 0 200 200" width="200" height="200">
<g fill="black">
<path d="M 128.3 169.0 L 128.7 172.6 L 124.98869562149048 171.31791305541992 L 124.3 171.8 L 119.9 174.4 L 115.3 176.9 L 110.5 179.2 L 105.3 181.3 L 99.8 183.3 L 94.1 185.0 L 88.1 186.6 L 81.7 187.8 L 75.0 188.8 L 74.6 187.0 L 80.6 184.2 L 86.3 181.5 L 91.8 178.9 L 96.9 176.3 L 101.7 173.7 L 106.1 171.0 L 110.2 168.3 L 114.0 165.5 L 117.5 162.7 L 119.825 160.525 L 119.8 160.5 L 120.7 159.7 Z M 171.7 181.1 L 169.8 179.0 L 167.5 176.8 L 164.7 174.5 L 161.5 172.1 L 157.9 169.7 L 153.9 167.2 L 149.5 164.5 L 144.7 161.9 L 145.3 160.3 L 150.7 161.6 L 155.8 162.9 L 160.5 164.3 L 164.8 165.9 L 168.8 167.6 L 172.4 169.4 L 175.8 171.3 L 178.8 173.3 L 181.5 175.5 L 184.0 177.9 L 185.0 182.4 L 182.6 186.3 L 178.2 187.3 L 174.2 185.0 L 173.2 183.1 Z M 13.8 188.5 L 11.1 184.8 L 11.8 180.2 L 13.3 178.2 L 14.8 175.9 L 16.2 173.1 L 17.5 170.0 L 18.8 166.5 L 19.9 162.7 L 21.0 158.5 L 22.0 154.0 L 23.0 149.2 L 23.8 144.0 L 25.5 144.0 L 26.2 149.3 L 26.7 154.3 L 26.9 159.1 L 26.9 163.7 L 26.7 168.1 L 26.2 172.2 L 25.5 176.1 L 24.6 179.8 L 23.4 183.3 L 22.0 186.6 L 18.3 189.2 Z M 53.8 168.4 L 53.5 165.7 L 53.1 163.1 L 52.5 160.5 L 51.8 157.8 L 50.9 155.2 L 49.9 152.5 L 48.7 149.8 L 47.1 147.3 L 48.5 146.1 L 50.8 148.2 L 53.2 150.2 L 55.4 152.4 L 57.5 154.8 L 59.3 157.3 L 61.0 160.0 L 62.5 162.9 L 63.8 165.9 L 64.9 169.0 L 65.9 172.2 L 64.6 176.6 L 60.7 178.9 L 56.3 177.7 L 54.0 173.7 L 54.0 171.0 Z M 39.9 182.9 L 35.9 180.7 L 34.5 176.4 L 35.0 174.1 L 35.4 171.7 L 35.8 169.2 L 35.9 166.5 L 36.0 163.6 L 35.9 160.6 L 35.7 157.5 L 35.4 154.2 L 35.1 150.7 L 34.2 147.2 L 35.9 146.6 L 37.6 149.8 L 39.4 152.9 L 41.0 156.1 L 42.3 159.2 L 43.5 162.3 L 44.4 165.4 L 45.2 168.4 L 45.8 171.5 L 46.2 174.5 L 46.4 177.5 L 44.2 181.5 Z M 72.0 163.8 L 71.3 161.3 L 70.5 158.9 L 69.6 156.5 L 67.4 151.9 L 66.1 149.6 L 64.7 147.2 L 62.9 145.3 L 64.0 143.9 L 66.3 145.4 L 68.9 146.7 L 71.3 148.4 L 73.6 150.2 L 75.8 152.3 L 77.8 154.5 L 79.7 157.0 L 81.4 159.6 L 83.0 162.3 L 84.5 165.3 L 84.0 169.8 L 80.6 172.8 L 76.0 172.4 L 73.0 168.9 L 72.6 166.3 Z M 95.2 40.9 L 95.3 44.7 L 95.1 48.3 L 94.6 51.7 L 93.9 55.0 L 92.8 58.0 L 91.4 60.9 L 89.5 63.5 L 85.2 65.1 L 81.0 63.3 L 79.4 59.1 L 81.2 54.9 L 82.5 54.0 L 83.8 52.8 L 85.2 51.1 L 86.4 49.0 L 87.6 46.5 L 88.7 43.6 L 89.7 40.3 L 90.6 36.6 L 91.4 32.6 L 91.8 28.1 L 93.6 28.0 L 94.2 32.6 L 94.55714282989501 35.1 L 128.7 35.1 L 128.7 11.0 L 140.7 13.0 L 143.7 15.0 L 140.7 16.8 L 140.7 35.1 L 174.9 35.1 L 175.96415090560913 34.21320753097534 L 175.9 33.7 L 176.27029705047607 33.95808582305908 L 180.9 30.1 L 191.9 39.1 L 186.9 42.1 L 174.9 47.1 L 174.9 46.88421049118042 L 174.7 47.0 L 172.7 48.1 L 171.32727270126344 49.47272729873657 L 174.6 52.2 L 174.6 56.2 L 138.6 56.2 L 138.6 78.69058818817139 L 142.4 76.5 L 150.5 71.4 L 158.4 65.9 L 165.10990562438965 60.711006259918214 L 165.1 60.7 L 165.275 60.58333330154419 L 165.9 60.1 L 165.93364057540893 60.144239616394046 L 166.0 60.1 L 173.2 69.7 L 173.4 73.3 L 169.9241379737854 71.88390808105468 L 164.8 75.3 L 156.1 80.5 L 147.2 85.3 L 138.0 89.7 L 128.5 93.7 L 118.8 97.2 L 114.60645160675048 98.5 L 163.3 98.5 L 169.3 93.5 L 180.3 102.5 L 175.3 106.5 L 175.3 155.7 L 163.3 161.7 L 163.3 155.7 L 107.1 155.7 L 107.1 158.7 L 95.1 164.7 L 95.1 103.54150943756103 L 87.9 104.9 L 77.1 106.4 L 76.7 104.6 L 87.0 101.2 L 97.0 97.7 L 106.7 94.1 L 116.1 90.1 L 125.1 85.9 L 126.6 85.13295450210572 L 126.6 56.2 L 99.0 56.2 L 99.0 52.2 L 152.6 52.2 L 162.6 42.2 L 169.9377049446106 48.31475410461426 L 171.2 46.8 L 172.2 44.7 L 173.1 42.7 L 173.8 41.0 L 174.5 39.4 L 174.6199999809265 39.1 L 95.02439022064209 39.1 Z M 107.1 138.6 L 107.1 151.7 L 163.3 151.7 L 163.3 138.6 Z M 20.7 137.5 L 20.7 66.15 L 20.6 66.3 L 16.9 71.0 L 13.0 75.4 L 11.5 74.5 L 13.7 69.1 L 15.9 63.6 L 18.2 58.1 L 20.4 52.5 L 22.6 46.7 L 24.8 40.7 L 26.8 34.6 L 28.8 28.3 L 30.7 21.8 L 32.31544466018677 16.103432178497314 L 32.3 16.1 L 32.44426231384277 15.64918031692505 L 32.6 15.1 L 32.618164443969725 15.10573616027832 L 33.1 13.6 L 44.0 18.7 L 46.3 21.5 L 42.61775732040405 22.404410457611085 L 41.5 25.4 L 38.9 31.9 L 38.42857141494751 33.0 L 56.6 33.0 L 62.6 28.0 L 73.6 37.0 L 68.6 40.0 L 66.07341775894164 41.05274257659912 L 65.7 41.7 L 64.0 44.4 L 62.1 47.1 L 60.0 49.9 L 57.6 52.9 L 54.9 55.9 L 52.0 59.0 L 48.8 62.1 L 46.95588235855102 64.0 L 65.7 64.0 L 71.2 59.0 L 81.7 68.0 L 76.7 71.5 L 76.7 132.0 L 65.7 137.5 L 65.7 132.0 L 31.7 132.0 Z M 107.1 120.5 L 107.1 134.6 L 163.3 134.6 L 163.3 120.5 Z M 31.7 100.0 L 31.7 128.0 L 43.7 128.0 L 43.7 100.0 Z M 53.7 100.0 L 53.7 128.0 L 65.7 128.0 L 65.7 100.0 Z M 107.1 102.5 L 107.1 116.5 L 163.3 116.5 L 163.3 102.5 Z M 31.7 68.0 L 31.7 96.0 L 43.7 96.0 L 43.7 68.0 Z M 53.7 68.0 L 53.7 96.0 L 65.7 96.0 L 65.7 68.0 Z M 120.6 68.0 L 121.5 71.5 L 117.6336968421936 70.75387134552003 L 114.5 73.3 L 111.1 76.0 L 107.4 78.6 L 103.5 81.3 L 99.3 84.0 L 94.8 86.6 L 90.0 89.2 L 84.9 91.7 L 79.5 94.2 L 78.5 92.7 L 82.9 88.7 L 87.1 85.0 L 91.1 81.4 L 94.8 78.0 L 98.3 74.8 L 101.5 71.6 L 104.5 68.5 L 107.1 65.6 L 109.5 62.7 L 111.02988510131836 60.82241382598877 L 111.0 60.8 L 112.0 59.6 Z M 36.71428575515747 37.0 L 36.2 38.2 L 33.4 44.3 L 30.4 50.2 L 27.3 55.8 L 24.491489315032958 60.395744705200194 L 31.7 64.0 L 44.339999961853025 64.0 L 46.5 60.4 L 48.4 56.4 L 50.2 52.7 L 51.9 49.2 L 53.3 46.0 L 54.4 42.9 L 55.4 40.1 L 56.1 37.6 L 56.230434799194335 37.0 Z " />
</g>
</svg>
