<svg xmlns="http://www.w3.org/2000/svg" xmlns:xlink="http://www.w3.org/1999/xlink" version="1.1" baseProfile="full" viewBox="0 0 200 200" width="200" height="200">
<g fill="black">
<path d="M 9.5 144.4 L 12.9 142.6 L 16.2 140.8 L 19.6 138.9 L 22.9 137.0 L 26.3 135.1 L 29.6 133.2 L 36.4 129.2 L 39.5 127.51714286804199 L 39.5 76.0 L 15.0 76.0 L 15.0 72.0 L 39.5 72.0 L 39.5 18.0 L 50.5 20.0 L 53.2 22.0 L 50.5 23.723404216766358 L 50.5 181.2 L 39.5 186.7 L 39.5 132.6760000228882 L 39.4 132.8 L 36.7 135.8 L 33.9 138.7 L 31.1 141.5 L 28.2 144.2 L 25.2 146.9 L 22.2 149.5 L 19.458178520202637 151.7111463546753 L 19.4 155.9 L 16.0 154.4 L 7.9 145.5 Z M 174.2 181.0 L 172.4 182.6 L 170.4 184.0 L 168.4 185.2 L 166.2 186.2 L 163.9 187.0 L 161.5 187.5 L 159.1 187.8 L 156.7 188.0 L 156.7 182.0 L 136.7 179.0 L 136.7 176.0 L 156.7 176.0 L 158.1 175.9 L 159.4 175.7 L 161.8 175.1 L 162.8 174.6 L 163.8 174.0 L 164.8 173.3 L 165.7 172.5 L 166.6 171.5 L 167.5 170.3 L 168.2 168.9 L 169.1 166.7 L 170.0 163.6 L 170.7 159.8 L 171.3 155.2 L 171.8 149.9 L 172.2 144.0 L 172.4 137.4 L 172.47338619232178 131.9694224357605 L 172.4 132.0 L 172.4 124.0 L 116.0 124.0 L 104.0 130.0 L 104.0 30.0 L 116.0 36.0 L 131.3869565010071 36.0 L 131.7 35.2 L 132.3 32.6 L 132.8 30.1 L 133.4 27.6 L 133.9 25.2 L 134.5 22.7 L 135.0 20.3 L 135.5 17.8 L 135.9 15.4 L 136.19024391174315 13.94878044128418 L 136.0 13.9 L 136.9 11.5 L 147.7 16.9 L 149.9 19.7 L 145.60649347305298 20.603896141052246 L 145.1 21.5 L 143.7 23.8 L 140.7 28.2 L 137.5 32.4 L 135.7 34.4 L 134.1 36.0 L 161.6 36.0 L 167.6 31.0 L 178.6 40.0 L 173.6 44.0 L 173.6 86.0 L 161.6 92.0 L 161.6 84.0 L 116.0 84.0 L 116.0 100.0 L 169.21818180084227 100.0 L 177.4 91.0 L 187.4 100.0 L 187.4 104.0 L 116.0 104.0 L 116.0 120.0 L 172.4 120.0 L 178.4 115.0 L 189.4 124.0 L 184.42644233703612 126.98413457870484 L 184.5 130.0 L 184.4 137.6 L 184.2 144.5 L 183.8 150.9 L 183.3 156.6 L 182.6 161.7 L 181.6 166.3 L 180.5 170.4 L 179.1 174.0 L 177.3 177.2 L 175.8 179.2 Z M 55.5 163.4 L 59.0 161.5 L 61.5 160.14864864349366 L 61.5 19.0 L 72.5 21.0 L 75.2 23.0 L 72.5 24.723404216766358 L 72.5 77.0222222328186 L 74.6 74.3 L 77.2 71.0 L 79.8 67.9 L 82.3 65.0 L 84.7 62.3 L 87.0 59.7 L 89.2 57.3 L 90.67865171432496 55.68052434921265 L 90.6 55.6 L 91.125 55.19166669845581 L 91.3 55.0 L 91.3281639099121 55.03365030288696 L 91.5 54.9 L 99.0 64.2 L 99.4 67.8 L 95.53814020156861 66.46590299606324 L 93.9 67.6 L 91.2 69.5 L 88.3 71.6 L 85.2 73.8 L 82.0 76.1 L 78.7 78.6 L 75.1 81.1 L 72.5 82.92702703475952 L 72.5 154.45714282989502 L 74.9 153.2 L 79.4 151.0 L 84.1 148.8 L 88.9 146.5 L 94.1 144.3 L 99.5 142.2 L 100.4 143.7 L 96.0 147.5 L 91.7 151.0 L 87.4 154.3 L 83.3 157.4 L 79.4 160.4 L 75.6 163.2 L 71.9 166.0 L 68.5 168.6 L 65.45546579360962 170.90646533966066 L 65.4 174.9 L 62.0 173.4 L 53.9 164.5 Z M 96.1 174.0 L 94.5 169.7 L 96.3 165.5 L 97.8 164.5 L 99.2 163.0 L 100.6 161.2 L 101.9 158.9 L 103.1 156.2 L 104.1 153.0 L 105.0 149.4 L 105.7 145.3 L 106.3 140.9 L 106.5 136.0 L 108.2 135.9 L 109.2 140.7 L 110.1 145.3 L 110.7 149.6 L 110.9 153.8 L 110.7 157.7 L 110.3 161.4 L 109.5 165.0 L 108.3 168.3 L 106.6 171.4 L 104.5 174.3 L 100.3 175.8 Z M 122.6 169.8 L 119.1 166.9 L 118.6 162.4 L 119.3 161.2 L 119.9 159.7 L 120.4 158.0 L 120.8 156.0 L 121.0 153.8 L 121.1 151.3 L 121.0 148.6 L 120.7 145.6 L 120.4 142.4 L 119.4 139.2 L 121.1 138.5 L 122.6 141.6 L 124.4 144.4 L 126.0 147.2 L 127.3 149.9 L 128.3 152.6 L 129.2 155.3 L 129.8 157.9 L 130.1 160.6 L 130.3 163.2 L 130.1 165.8 L 127.1 169.3 Z M 137.9 153.2 L 137.9 149.5 L 137.7 147.6 L 137.3 145.8 L 136.8 143.9 L 136.0 141.9 L 135.1 139.9 L 133.6 138.3 L 134.7 136.9 L 136.6 138.3 L 138.8 139.5 L 140.8 140.9 L 142.6 142.6 L 144.2 144.6 L 145.7 146.7 L 146.9 149.0 L 147.9 151.5 L 148.7 154.2 L 149.3 157.0 L 147.5 161.2 L 143.3 163.0 L 139.1 161.2 L 137.3 157.0 L 137.6 155.0 Z M 155.2 146.5 L 155.1 145.3 L 154.8 143.9 L 154.3 142.5 L 153.5 141.0 L 152.5 139.5 L 151.1 137.9 L 149.6 136.3 L 147.4 135.2 L 148.1 133.5 L 150.5 134.3 L 152.9 134.8 L 155.2 135.5 L 157.4 136.4 L 159.5 137.6 L 161.3 139.0 L 163.0 140.7 L 164.5 142.6 L 165.8 144.7 L 166.7 147.1 L 165.6 151.5 L 161.7 153.9 L 157.3 152.8 L 154.9 148.9 L 155.1 147.7 Z M 116.0 62.0 L 116.0 80.0 L 161.6 80.0 L 161.6 62.0 Z M 116.0 40.0 L 116.0 58.0 L 161.6 58.0 L 161.6 40.0 Z " />
</g>
</svg>
