<svg xmlns="http://www.w3.org/2000/svg" xmlns:xlink="http://www.w3.org/1999/xlink" version="1.1" baseProfile="full" viewBox="0 0 200 200" width="200" height="200">
<g fill="black">
<path d="M 125.0 121.1 L 124.1 131.9 L 122.3 142.0 L 119.5 151.3 L 115.9 159.7 L 111.4 167.2 L 106.0 173.8 L 99.8 179.4 L 92.7 184.0 L 84.9 187.5 L 76.4 189.8 L 75.8 188.1 L 83.3 184.0 L 89.8 179.5 L 95.4 174.5 L 100.2 168.9 L 104.2 162.7 L 107.5 155.8 L 110.0 148.2 L 111.7 139.9 L 112.8 130.8 L 113.0 120.8 L 113.0 80.0 L 125.0 82.0 L 128.0 84.0 L 125.0 85.8 L 125.0 121.0 L 124.9344262123108 121.09836063385009 Z M 163.1 82.0 L 166.1 84.0 L 163.1 85.8 L 163.1 183.0 L 151.1 189.0 L 151.1 80.0 Z M 77.6 182.1 L 75.8 183.7 L 73.9 185.1 L 71.8 186.3 L 69.6 187.2 L 67.3 188.0 L 65.0 188.5 L 62.6 188.8 L 60.1 189.0 L 60.1 183.0 L 44.1 180.0 L 44.1 177.0 L 60.1 177.0 L 61.6 176.9 L 62.9 176.7 L 65.3 176.1 L 66.3 175.6 L 67.4 175.0 L 68.3 174.3 L 69.3 173.5 L 70.2 172.5 L 71.1 171.3 L 72.4 169.2 L 73.7 166.3 L 74.9 162.9 L 76.0 158.8 L 77.0 154.1 L 77.8 148.9 L 78.4 143.0 L 78.9 136.5 L 79.1 129.5 L 79.17333335876465 124.0 L 30.0 124.0 L 18.0 130.0 L 18.0 30.0 L 30.0 36.0 L 41.61666669845581 36.0 L 42.2 35.0 L 43.3 32.3 L 44.3 29.7 L 45.4 27.2 L 46.4 24.7 L 47.3 22.2 L 48.3 19.7 L 49.2 17.2 L 50.48851118087769 13.17340259552002 L 50.3 13.1 L 51.3 11.1 L 61.6 17.5 L 63.4 20.6 L 59.03026418685913 20.97670135498047 L 58.2 22.1 L 56.4 24.4 L 54.6 26.5 L 52.7 28.7 L 50.7 30.8 L 48.7 32.8 L 46.5 34.7 L 44.83888893127441 36.0 L 70.5 36.0 L 76.5 31.0 L 87.5 40.0 L 82.5 44.0 L 82.5 84.0 L 70.5 90.0 L 70.5 84.0 L 30.0 84.0 L 30.0 100.0 L 75.01818180084229 100.0 L 83.2 91.0 L 93.2 100.0 L 93.2 104.0 L 30.0 104.0 L 30.0 120.0 L 79.2 120.0 L 85.2 115.0 L 96.2 124.0 L 91.2 127.0 L 91.13555316925049 127.02685289382934 L 91.1 129.8 L 90.8 137.2 L 90.4 144.0 L 89.7 150.4 L 88.8 156.2 L 87.7 161.6 L 86.4 166.4 L 84.9 170.8 L 83.0 174.8 L 80.8 178.3 L 79.3 180.3 Z M 11.7 177.2 L 9.7 173.1 L 11.1 168.8 L 12.4 167.5 L 13.8 165.9 L 15.1 163.7 L 16.3 161.1 L 17.4 158.0 L 18.4 154.4 L 19.2 150.5 L 19.9 146.1 L 20.6 141.2 L 20.8 136.0 L 22.6 135.9 L 23.6 141.1 L 24.5 146.0 L 25.0 150.7 L 25.3 155.1 L 25.2 159.3 L 24.9 163.2 L 24.3 166.9 L 23.3 170.3 L 21.9 173.6 L 20.2 176.6 L 16.1 178.6 Z M 35.2 171.9 L 31.6 169.1 L 30.8 164.6 L 31.5 163.1 L 32.1 161.4 L 32.7 159.4 L 33.0 157.2 L 33.3 154.7 L 33.4 152.0 L 33.4 149.1 L 33.2 146.0 L 33.0 142.6 L 32.2 139.2 L 33.9 138.6 L 35.4 141.9 L 37.1 144.9 L 38.5 147.9 L 39.7 150.8 L 40.7 153.7 L 41.5 156.5 L 42.1 159.3 L 42.4 162.1 L 42.6 164.8 L 42.5 167.5 L 39.7 171.1 Z M 48.1 153.1 L 48.0 150.9 L 47.8 148.8 L 47.4 146.7 L 46.9 144.6 L 46.3 142.5 L 45.5 140.3 L 44.6 138.1 L 43.2 136.3 L 44.4 135.0 L 46.4 136.6 L 48.5 138.0 L 50.5 139.6 L 52.4 141.5 L 54.1 143.6 L 55.6 145.8 L 56.9 148.2 L 58.1 150.8 L 59.1 153.5 L 59.9 156.4 L 58.5 160.7 L 54.5 162.9 L 50.2 161.6 L 47.9 157.6 L 48.1 155.3 Z M 62.4 144.5 L 62.0 142.9 L 61.5 141.3 L 60.9 139.7 L 60.1 138.2 L 59.1 136.6 L 57.9 134.9 L 56.6 133.3 L 54.8 132.2 L 55.5 130.5 L 57.6 131.4 L 59.9 131.9 L 62.1 132.7 L 64.2 133.7 L 66.2 134.9 L 68.1 136.4 L 69.9 138.1 L 71.5 140.0 L 72.9 142.1 L 74.2 144.3 L 73.7 148.9 L 70.2 151.8 L 65.7 151.3 L 62.7 147.8 L 62.6 146.2 Z M 168.2 78.2 L 163.0 72.7 L 158.2 66.8 L 153.7 60.5 L 149.5 54.0 L 145.7 47.1 L 142.3 39.8 L 139.4 32.2 L 139.1992063522339 31.501587295532225 L 135.7 38.5 L 131.0 46.6 L 125.9 54.3 L 120.4 61.5 L 114.4 68.2 L 108.1 74.4 L 101.3 80.1 L 94.1 85.2 L 86.4 89.7 L 85.4 88.2 L 91.7 82.3 L 97.7 76.2 L 103.4 69.9 L 108.7 63.3 L 113.6 56.4 L 118.1 49.2 L 122.3 41.6 L 126.1 33.7 L 129.5 25.5 L 132.5 16.9 L 132.53310546875 16.91171875 L 133.1 15.4 L 143.8 20.9 L 146.0 23.8 L 142.24146337509154 24.59127082824707 L 141.14773626327514 27.18167734146118 L 143.2 30.4 L 147.5 37.0 L 151.9 43.3 L 156.4 49.2 L 161.1 54.8 L 165.9 60.1 L 171.0 65.0 L 176.2 69.5 L 181.6 73.7 L 187.2 77.6 L 190.5 79.9 L 179.5 88.3 L 173.7 83.4 Z M 30.0 62.0 L 30.0 80.0 L 70.5 80.0 L 70.5 62.0 Z M 30.0 40.0 L 30.0 58.0 L 70.5 58.0 L 70.5 40.0 Z " />
</g>
</svg>
