<svg xmlns="http://www.w3.org/2000/svg" xmlns:xlink="http://www.w3.org/1999/xlink" version="1.1" baseProfile="full" viewBox="0 0 200 200" width="200" height="200">
<g fill="black">
<path d="M 20.6 185.8 L 19.4 181.4 L 21.7 177.4 L 23.5 176.4 L 25.2 175.1 L 26.8 173.7 L 28.3 171.9 L 29.8 169.9 L 31.1 167.5 L 32.4 164.8 L 33.5 161.9 L 34.6 158.6 L 35.1 155.0 L 36.9 155.0 L 37.1 158.7 L 37.6 162.4 L 37.6 165.9 L 37.4 169.3 L 36.8 172.6 L 35.9 175.8 L 34.7 178.8 L 33.1 181.7 L 31.2 184.4 L 29.0 186.9 L 24.6 188.0 Z M 66.5 173.8 L 66.6 172.1 L 66.5 170.2 L 66.3 168.1 L 65.8 166.0 L 65.2 163.7 L 64.4 161.2 L 63.4 158.7 L 61.9 156.3 L 63.3 155.1 L 65.3 157.3 L 67.5 159.1 L 69.5 161.0 L 71.3 163.1 L 73.0 165.2 L 74.4 167.4 L 75.6 169.6 L 76.6 172.0 L 77.4 174.4 L 78.0 177.0 L 76.2 181.2 L 72.0 183.0 L 67.8 181.2 L 66.0 177.0 L 66.3 175.5 Z M 97.6 172.1 L 97.0 170.3 L 96.2 168.5 L 95.3 166.5 L 94.3 164.5 L 93.0 162.5 L 91.7 160.4 L 90.2 158.1 L 88.2 156.3 L 89.3 154.8 L 91.6 156.3 L 94.2 157.5 L 96.6 158.8 L 98.8 160.3 L 100.9 161.8 L 102.9 163.4 L 104.7 165.1 L 106.4 166.9 L 107.9 168.9 L 109.3 170.9 L 109.3 175.4 L 106.1 178.7 L 101.5 178.7 L 98.3 175.5 L 98.0 173.8 Z M 170.0 180.5 L 168.4 182.4 L 166.7 184.2 L 164.7 185.6 L 162.6 186.9 L 160.3 187.8 L 157.9 188.5 L 155.5 188.8 L 153.0 189.0 L 153.0 183.0 L 133.0 180.0 L 133.0 177.0 L 153.0 177.0 L 154.3 176.9 L 155.5 176.7 L 156.5 176.4 L 157.3 176.1 L 158.1 175.6 L 158.8 175.1 L 159.5 174.5 L 160.1 173.6 L 160.7 172.6 L 161.3 171.4 L 162.5 168.0 L 163.0 166.1 L 163.4 164.2 L 164.0 160.0 L 164.0 152.0 L 57.0 152.0 L 57.0 164.0 L 45.0 170.0 L 45.0 92.0 L 57.0 98.0 L 93.39473686218261 98.0 L 93.9 97.4 L 95.0 95.2 L 96.1 93.1 L 97.2 91.1 L 99.0 87.5 L 99.7 85.8 L 100.4 84.2 L 101.0 82.7 L 101.15911664962769 82.25447340011597 L 100.9 82.1 L 102.0 80.6 L 111.3 88.3 L 112.5 91.6 L 107.45952377319335 91.25238094329833 L 106.9 91.7 L 105.2 92.8 L 103.5 94.0 L 101.7 95.3 L 97.7 97.7 L 97.15 98.0 L 142.0 98.0 L 148.0 93.0 L 159.0 102.0 L 154.0 106.0 L 154.0 128.0 L 142.0 134.0 L 142.0 128.0 L 57.0 128.0 L 57.0 136.0 L 173.7777777671814 136.0 L 180.0 129.0 L 188.0 136.0 L 188.0 140.0 L 57.0 140.0 L 57.0 148.0 L 164.0 148.0 L 170.0 143.0 L 181.0 152.0 L 176.1 154.93999996185303 L 176.1 158.2 L 175.9 161.0 L 175.6 163.7 L 175.2 166.3 L 174.7 168.9 L 173.3 173.7 L 172.4 176.1 L 171.3 178.3 Z M 129.4 168.3 L 128.7 166.8 L 127.9 165.3 L 126.8 163.7 L 125.6 162.2 L 124.2 160.6 L 122.6 159.0 L 120.8 157.3 L 118.6 156.1 L 119.2 154.5 L 121.7 155.3 L 124.2 155.7 L 126.7 156.3 L 129.1 157.1 L 131.3 158.0 L 133.4 159.2 L 135.5 160.5 L 137.4 161.9 L 139.2 163.6 L 140.8 165.4 L 141.2 170.0 L 138.4 173.6 L 133.8 174.0 L 130.2 171.2 L 129.9 169.8 Z M 57.0 115.0 L 57.0 124.0 L 142.0 124.0 L 142.0 115.0 Z M 57.0 102.0 L 57.0 111.0 L 142.0 111.0 L 142.0 102.0 Z M 143.2 81.4 L 130.9 77.7 L 119.8 73.6 L 112.59551420211793 70.28593654632569 L 111.6 70.7 L 99.1 74.8 L 85.1 78.3 L 69.9 81.2 L 53.2 83.5 L 35.2 85.0 L 35.0 83.2 L 52.6 79.7 L 68.8 76.0 L 83.5 72.0 L 96.7 67.6 L 103.00159711837769 65.01472940444947 L 101.1 63.9 L 93.5 58.4 L 87.3 52.3 L 82.5 45.8 L 79.53000001907348 39.5 L 54.35757579803467 39.5 L 53.7 45.7 L 52.3 51.9 L 50.3 57.8 L 47.5 63.1 L 44.0 68.0 L 39.9 72.4 L 35.2 76.2 L 29.9 79.5 L 24.0 82.1 L 17.5 84.1 L 16.8 82.5 L 22.2 78.8 L 26.9 75.0 L 31.0 71.2 L 34.3 67.2 L 37.1 63.1 L 39.3 58.8 L 40.8 54.3 L 41.9 49.6 L 42.4 44.5 L 42.4 12.1 L 54.4 18.1 L 148.3 18.1 L 158.3 8.1 L 170.3 18.1 L 170.3 22.1 L 54.4 22.1 L 54.4 35.5 L 143.5 35.5 L 143.82484073638915 35.22929935455322 L 144.4 34.4 L 144.64121618270875 34.54898653030396 L 149.5 30.5 L 160.5 39.5 L 155.5 42.5 L 152.00320405960082 43.956998348236084 L 148.7 48.1 L 141.4 54.7 L 132.8 60.7 L 125.49959955215454 64.60829515457154 L 134.1 67.1 L 146.0 69.9 L 159.0 72.3 L 173.1 74.3 L 183.1 75.8 L 171.2 87.4 L 156.6 84.6 Z M 82.2134614944458 39.5 L 85.7 43.2 L 91.3 48.0 L 97.8 52.5 L 105.2 56.7 L 113.37530860900878 60.31234569549561 L 118.6 57.7 L 127.3 52.3 L 134.5 46.6 L 140.1 40.6 L 140.86290321350097 39.5 Z " />
</g>
</svg>
