<svg xmlns="http://www.w3.org/2000/svg" xmlns:xlink="http://www.w3.org/1999/xlink" version="1.1" baseProfile="full" viewBox="0 0 200 200" width="200" height="200">
<g fill="black">
<path d="M 83.5 148.8 L 83.0 146.7 L 82.4 144.5 L 81.0 140.1 L 80.1 137.9 L 79.3 135.6 L 78.3 133.3 L 77.0 131.3 L 78.3 130.1 L 80.1 131.8 L 81.0 132.41363639831542 L 81.0 127.0 L 73.0 127.0 L 73.0 166.39714288711548 L 74.1 165.8 L 77.7 163.9 L 81.3 162.1 L 84.9 160.4 L 88.7 158.9 L 92.5 157.2 L 93.4 158.7 L 90.4 161.5 L 87.5 164.3 L 84.6 167.0 L 81.6 169.7 L 73.0 177.41034479141234 L 73.0 178.0 L 72.34230766296386 178.0 L 70.0 180.1 L 67.51648759841919 182.31742172241212 L 67.8 186.4 L 64.3 185.2 L 55.6 176.7 L 57.2 175.6 L 60.5 173.5 L 61.0 173.1969696998596 L 61.0 127.0 L 51.10810813903809 127.0 L 56.8 128.8 L 59.5 131.1 L 55.9954966545105 132.59265880584718 L 54.7 138.7 L 52.1 147.9 L 48.8 156.3 L 44.9 163.9 L 40.4 170.6 L 35.3 176.4 L 29.6 181.3 L 23.3 185.2 L 16.5 188.1 L 9.2 189.8 L 8.7 188.1 L 14.9 184.6 L 20.4 180.7 L 25.3 176.3 L 29.6 171.4 L 33.4 165.8 L 36.7 159.5 L 39.5 152.6 L 41.8 144.9 L 43.6 136.4 L 44.75973205566406 128.10345554351807 L 44.7 128.1 L 44.84666662216186 127.0 L 39.0 127.0 L 39.0 139.0 L 27.0 145.0 L 27.0 100.37441864013672 L 26.1 101.4 L 21.8 105.7 L 17.3 109.5 L 12.6 112.6 L 11.3 111.3 L 14.5 106.8 L 17.7 102.2 L 21.0 97.3 L 24.1 92.2 L 27.0 87.215625 L 27.0 86.0 L 27.522972965240477 86.26148653030396 L 30.3 80.8 L 33.4 74.6 L 36.3 68.0 L 38.41621618270874 62.89189186096191 L 36.8 63.7 L 36.8 41.7 L 11.0 41.7 L 11.0 37.7 L 36.8 37.7 L 36.8 16.9 L 48.8 18.9 L 51.8 20.9 L 48.8 22.7 L 48.8 37.7 L 67.1 37.7 L 67.1 16.9 L 79.1 18.9 L 82.1 20.9 L 79.1 22.7 L 79.1 37.7 L 82.9 37.7 L 92.9 27.7 L 104.9 37.7 L 104.9 41.7 L 79.1 41.7 L 79.1 57.7 L 67.1 63.7 L 67.1 41.7 L 48.8 41.7 L 48.8 55.7838095664978 L 53.1 58.2 L 55.1 61.1 L 51.456264400482176 61.675326633453366 L 49.6 65.6 L 48.36571426391602 68.0 L 63.0 68.0 L 69.0 63.0 L 80.0 72.0 L 75.0 75.0 L 72.01333332061768 76.2444444656372 L 71.2 77.6 L 69.8 79.7 L 68.4 81.9 L 65.2 86.5 L 63.4 89.0 L 61.4 91.5 L 61.11428575515747 92.0 L 81.0 92.0 L 87.0 87.0 L 98.0 96.0 L 93.0 100.0 L 93.0 127.0 L 81.49615383148193 132.75192308425903 L 82.3 133.3 L 84.3 134.9 L 86.2 136.7 L 88.0 138.5 L 89.7 140.5 L 91.3 142.5 L 92.8 144.6 L 94.3 146.8 L 95.6 149.1 L 95.3 153.7 L 92.0 156.8 L 87.4 156.5 L 84.3 153.1 L 83.9 151.0 Z M 94.5 178.1 L 92.7 173.9 L 94.3 169.7 L 95.6 168.6 L 96.9 167.2 L 98.2 165.3 L 99.5 162.9 L 100.6 160.1 L 101.7 156.9 L 102.6 153.3 L 103.4 149.3 L 104.2 144.8 L 104.5 140.0 L 106.3 139.9 L 107.0 144.8 L 107.8 149.3 L 108.2 153.7 L 108.4 157.8 L 108.3 161.7 L 107.9 165.3 L 107.2 168.8 L 106.2 172.0 L 104.8 175.1 L 103.0 177.9 L 98.8 179.7 Z M 173.9 180.6 L 172.2 182.3 L 170.3 183.8 L 168.3 185.1 L 166.1 186.1 L 163.8 186.9 L 161.5 187.5 L 159.0 187.8 L 156.5 188.0 L 156.5 182.0 L 136.5 179.0 L 136.5 176.0 L 156.5 176.0 L 158.0 175.9 L 159.2 175.7 L 160.4 175.4 L 161.5 175.1 L 162.4 174.6 L 163.3 174.0 L 164.2 173.3 L 165.1 172.5 L 165.9 171.5 L 166.7 170.3 L 167.3 169.0 L 168.1 166.7 L 168.8 163.6 L 169.5 159.8 L 170.0 155.2 L 170.5 150.0 L 170.8 144.0 L 170.9 137.4 L 170.97338619232178 131.9694224357605 L 170.9 132.0 L 170.9 124.0 L 122.5 124.0 L 110.5 130.0 L 110.5 30.0 L 122.5 36.0 L 135.28695650100707 36.0 L 135.6 35.2 L 135.9 32.7 L 136.3 30.2 L 136.8 27.8 L 137.2 25.3 L 137.6 22.9 L 138.0 20.4 L 138.4 18.0 L 138.88247423171998 14.140206146240235 L 138.7 14.1 L 139.5 11.6 L 150.5 16.7 L 152.8 19.5 L 148.4863516807556 20.559492588043213 L 148.1 21.3 L 146.8 23.6 L 145.4 25.9 L 144.0 28.1 L 142.6 30.2 L 141.1 32.3 L 137.95500001907348 36.0 L 161.3 36.0 L 167.3 31.0 L 178.3 40.0 L 173.3 44.0 L 173.3 86.0 L 161.3 92.0 L 161.3 84.0 L 122.5 84.0 L 122.5 100.0 L 166.61818180084228 100.0 L 174.8 91.0 L 184.8 100.0 L 184.8 104.0 L 122.5 104.0 L 122.5 120.0 L 170.9 120.0 L 176.9 115.0 L 187.9 124.0 L 182.96295394897462 126.96222763061523 L 183.0 130.0 L 182.9 137.5 L 182.7 144.4 L 182.4 150.7 L 182.0 156.4 L 181.4 161.5 L 180.6 166.0 L 179.6 170.0 L 178.5 173.5 L 176.9 176.6 L 175.5 178.7 Z M 119.5 172.8 L 116.1 169.8 L 115.7 165.2 L 116.5 164.0 L 117.2 162.5 L 117.8 160.8 L 118.3 158.8 L 118.6 156.6 L 118.9 154.1 L 119.0 151.4 L 119.0 145.4 L 118.3 142.2 L 120.0 141.6 L 121.3 144.7 L 122.8 147.6 L 124.1 150.4 L 125.2 153.2 L 126.0 155.9 L 126.7 158.6 L 127.1 161.2 L 127.3 163.8 L 127.3 166.4 L 127.1 169.0 L 124.0 172.4 Z M 135.8 156.2 L 135.7 154.1 L 135.5 152.0 L 135.2 150.0 L 134.7 148.0 L 134.1 146.0 L 133.3 144.0 L 132.4 141.9 L 130.9 140.3 L 132.1 138.9 L 134.0 140.3 L 136.2 141.5 L 138.2 143.0 L 140.0 144.8 L 141.7 146.7 L 143.2 148.9 L 144.6 151.3 L 145.8 153.8 L 146.7 156.5 L 147.6 159.4 L 146.2 163.7 L 142.2 165.9 L 137.8 164.6 L 135.6 160.6 L 135.8 158.3 Z M 154.3 148.4 L 153.9 146.9 L 153.4 145.2 L 152.6 143.6 L 151.6 141.9 L 150.4 140.1 L 148.8 138.4 L 147.1 136.5 L 144.8 135.2 L 145.6 133.5 L 148.1 134.5 L 150.8 135.2 L 153.3 136.1 L 155.7 137.2 L 157.9 138.6 L 159.9 140.1 L 161.8 141.9 L 163.4 143.9 L 164.9 146.2 L 166.1 148.6 L 165.3 153.1 L 161.7 155.9 L 157.2 155.1 L 154.4 151.5 L 154.4 150.0 Z M 39.0 96.0 L 39.0 123.0 L 53.0 123.0 L 53.0 96.0 Z M 65.0 96.0 L 65.0 123.0 L 81.0 123.0 L 81.0 96.0 Z M 46.0 72.6 L 42.2 79.3 L 38.4 85.4 L 35.1692307472229 90.08461542129517 L 39.0 92.0 L 58.66774196624756 92.0 L 59.2 90.5 L 59.8 87.4 L 60.4 84.4 L 61.0 81.7 L 61.5 79.0 L 62.0 76.5 L 62.4 74.2 L 62.8 72.0 L 46.308571434021 72.0 Z M 122.5 62.0 L 122.5 80.0 L 161.3 80.0 L 161.3 62.0 Z M 122.5 40.0 L 122.5 58.0 L 161.3 58.0 L 161.3 40.0 Z " />
</g>
</svg>
