<svg xmlns="http://www.w3.org/2000/svg" xmlns:xlink="http://www.w3.org/1999/xlink" version="1.1" baseProfile="full" viewBox="0 0 200 200" width="200" height="200">
<g fill="black">
<path d="M 24.4 186.7 L 23.3 182.3 L 25.6 178.3 L 27.2 177.4 L 28.8 176.4 L 30.3 175.0 L 31.8 173.5 L 33.2 171.6 L 34.5 169.4 L 35.7 166.9 L 36.8 164.2 L 37.8 161.1 L 38.3 157.7 L 40.1 157.7 L 40.3 161.2 L 40.7 164.7 L 40.8 168.0 L 40.6 171.2 L 40.1 174.3 L 39.3 177.3 L 38.2 180.2 L 36.7 182.9 L 34.9 185.5 L 32.8 187.9 L 28.4 189.0 Z M 68.0 175.3 L 68.1 173.7 L 68.0 172.0 L 67.8 170.1 L 67.4 168.1 L 66.9 165.9 L 66.2 163.6 L 65.3 161.2 L 63.8 159.0 L 65.2 157.8 L 67.1 159.8 L 69.2 161.5 L 71.1 163.3 L 72.9 165.2 L 74.4 167.1 L 75.8 169.2 L 77.0 171.3 L 78.0 173.5 L 78.8 175.8 L 79.4 178.2 L 77.6 182.3 L 73.4 184.2 L 69.2 182.3 L 67.4 178.2 L 67.7 176.8 Z M 97.4 173.9 L 96.9 172.2 L 96.3 170.5 L 95.5 168.6 L 94.5 166.8 L 93.4 164.8 L 92.1 162.8 L 90.7 160.7 L 88.8 159.0 L 89.9 157.5 L 92.1 158.9 L 94.5 160.0 L 96.8 161.2 L 98.9 162.5 L 100.9 163.9 L 102.8 165.4 L 104.6 167.0 L 106.2 168.6 L 107.7 170.4 L 109.1 172.3 L 109.0 176.9 L 105.9 180.2 L 101.3 180.1 L 98.0 177.0 L 97.8 175.4 Z M 127.7 170.3 L 127.1 168.9 L 126.4 167.5 L 125.4 166.0 L 124.3 164.6 L 123.0 163.0 L 121.4 161.5 L 119.8 159.9 L 117.7 158.8 L 118.3 157.2 L 120.6 157.9 L 123.1 158.3 L 125.4 158.8 L 127.7 159.5 L 129.8 160.3 L 131.8 161.4 L 133.8 162.6 L 135.6 163.9 L 137.3 165.5 L 138.9 167.2 L 139.4 171.7 L 136.5 175.3 L 132.0 175.8 L 128.4 173.0 L 128.1 171.7 Z M 59.4 120.2 L 59.4 128.4 L 139.6 128.4 L 139.6 120.2 Z M 59.4 108.0 L 59.4 116.2 L 139.6 116.2 L 139.6 108.0 Z M 118.3 16.3 L 145.3 16.3 L 151.3 11.3 L 162.3 20.3 L 157.3 24.3 L 157.3 35.8 L 157.1 37.1 L 157.1 38.8 L 157.3 39.8 L 157.5 40.2 L 158.0 40.7 L 158.7 41.1 L 159.8 41.5 L 161.3 41.8 L 173.9 41.8 L 177.9 32.8 L 179.9 32.8 L 177.9 41.8 L 180.3 43.4 L 181.9 45.8 L 180.3 48.2 L 177.9 49.8 L 161.41111106872557 49.8 L 171.8 58.3 L 166.8 61.3 L 163.01129035949708 62.87862901687622 L 160.6 65.8 L 154.6 71.5 L 147.8 76.5 L 144.88326387405397 78.20458602905273 L 147.4 78.9 L 156.0 80.6 L 165.4 82.0 L 175.7 82.9 L 186.2 84.0 L 174.3 96.1 L 163.5 94.3 L 153.5 92.2 L 144.4 89.5 L 136.2 86.4 L 132.31100444793702 84.48213920593261 L 131.6 84.8 L 122.4 88.1 L 112.3 90.8 L 101.4 92.9 L 89.8 94.4 L 79.24696369171143 94.99097003936768 L 79.5 95.2 L 80.8 98.6 L 75.63450212478638 98.15469846725463 L 75.3 98.4 L 73.7 99.4 L 72.1 100.5 L 70.3 101.7 L 68.5 102.8 L 66.5 103.9 L 66.30909090042114 104.0 L 139.6 104.0 L 145.6 99.0 L 156.6 108.0 L 151.6 112.0 L 151.6 132.4 L 139.6 138.4 L 139.6 132.4 L 59.4 132.4 L 59.4 139.7 L 169.37777776718139 139.7 L 175.6 132.7 L 183.6 139.7 L 183.6 143.7 L 59.4 143.7 L 59.4 151.0 L 160.5 151.0 L 166.5 146.0 L 177.5 155.0 L 172.6 157.93999996185303 L 172.6 160.7 L 172.2 165.7 L 171.8 168.2 L 171.4 170.5 L 170.8 172.8 L 170.1 175.0 L 169.2 177.1 L 168.1 179.4 L 166.8 181.5 L 165.3 183.5 L 163.5 185.2 L 161.6 186.7 L 159.5 187.9 L 157.2 188.8 L 154.8 189.5 L 152.3 189.8 L 149.8 190.0 L 149.8 184.0 L 129.8 181.0 L 129.8 178.0 L 149.8 178.0 L 151.2 177.9 L 152.3 177.7 L 153.3 177.5 L 154.2 177.1 L 155.0 176.7 L 155.7 176.1 L 156.3 175.5 L 157.0 174.6 L 157.6 173.6 L 158.2 172.4 L 158.7 171.0 L 159.2 169.5 L 159.7 167.8 L 160.0 166.1 L 160.3 164.2 L 160.5 162.3 L 160.5 155.0 L 59.4 155.0 L 59.4 167.0 L 47.4 173.0 L 47.4 98.0 L 59.4 104.0 L 62.455555534362794 104.0 L 62.9 103.5 L 63.9 101.4 L 64.9 99.4 L 65.9 97.6 L 66.7 95.8 L 67.5 94.1 L 68.2 92.5 L 68.9 91.0 L 69.4 89.5 L 69.49855070114135 89.1797101020813 L 69.2 89.0 L 69.78160915374755 88.25977010726929 L 69.8 88.2 L 69.8182331085205 88.21315793991089 L 70.3 87.6 L 77.25079851150512 93.34196395874024 L 89.1 90.6 L 100.3 87.7 L 110.5 84.5 L 119.8 81.0 L 123.50461387634277 79.25927782058716 L 122.5 78.6 L 117.1 74.0 L 112.8 68.9 L 109.8 63.4 L 108.33050851821899 58.3 L 97.1 58.3 L 97.1 54.3 L 154.8 54.3 L 154.82158269882203 54.2820143699646 L 155.7 53.0 L 156.0724021911621 53.23966484069824 L 160.14210529327391 49.84824562072754 L 158.9 49.9 L 156.6 49.7 L 154.3 49.1 L 152.2 48.2 L 150.2 46.8 L 148.5 45.1 L 147.2 43.0 L 146.2 40.8 L 145.6 38.3 L 145.3 35.8 L 145.3 20.3 L 118.3 20.3 L 118.3 30.1 L 117.6 34.0 L 116.1 37.6 L 114.0 40.8 L 111.4 43.7 L 108.3 46.2 L 104.7 48.4 L 100.8 50.4 L 96.3 52.2 L 92.97647056579589 53.197058868408206 L 94.3 54.3 L 94.3 58.3 L 65.18571424484253 58.3 L 65.1 58.4 L 65.1 63.02702703475952 L 67.8 63.1 L 71.3 63.3 L 74.7 63.7 L 78.0 64.2 L 81.1 64.8 L 84.0 65.4 L 86.8 66.2 L 89.5 67.1 L 92.0 68.1 L 94.6 71.8 L 94.0 76.3 L 90.2 79.0 L 85.7 78.3 L 84.1 76.9 L 82.3 75.6 L 80.3 74.2 L 78.0 72.8 L 75.5 71.4 L 72.8 70.0 L 69.9 68.6 L 66.8 67.1 L 65.1 66.32727270126342 L 65.1 90.3 L 53.1 96.3 L 53.1 70.55 L 52.7 70.9 L 48.4 74.1 L 43.8 77.1 L 38.9 79.9 L 33.8 82.4 L 28.4 84.6 L 22.7 86.5 L 16.7 88.0 L 16.0 86.3 L 21.1 83.0 L 26.0 79.8 L 30.5 76.7 L 34.8 73.5 L 38.8 70.3 L 42.5 66.9 L 45.9 63.5 L 49.0 60.0 L 50.275 58.3 L 20.2 58.3 L 20.2 54.3 L 53.1 54.3 L 53.1 40.597297286987306 L 48.7 42.5 L 41.0 45.3 L 33.1 47.8 L 25.0 49.8 L 16.6 51.4 L 16.1 49.7 L 23.8 46.2 L 31.3 42.8 L 38.5 39.3 L 45.5 35.6 L 52.2 31.8 L 53.2086501121521 31.16377458572388 L 51.0 30.2 L 45.1 27.8 L 38.9 25.3 L 32.4 22.7 L 25.6 19.8 L 26.1 18.1 L 33.4 19.0 L 40.4 20.2 L 47.1 21.5 L 53.4 23.0 L 59.4 24.6 L 62.09129934310913 25.40266819000244 L 64.9 23.5 L 70.8 19.1 L 76.5 14.4 L 81.25275478363037 10.252141284942628 L 81.2 10.2 L 82.1 9.5 L 89.8 18.7 L 90.2 22.3 L 86.62834482192993 21.066155433654785 L 83.5 23.4 L 77.0 27.8 L 74.27683744430541 29.507057094573973 L 75.6 30.0 L 80.4 31.9 L 85.0 33.9 L 87.8 37.5 L 87.4 42.0 L 83.8 44.8 L 82.79253730773925 44.710447788238525 L 90.27694368362427 50.94745311737061 L 94.3 48.2 L 97.8 45.5 L 100.7 42.9 L 103.0 40.4 L 104.7 38.0 L 105.8 35.8 L 106.4 33.7 L 106.5 31.9 L 106.3 30.1 L 106.3 10.3 Z M 110.92727270126343 58.3 L 113.3 61.2 L 117.3 65.0 L 121.8 68.5 L 127.0 71.6 L 132.9216028213501 74.36341466903687 L 135.5 72.9 L 141.9 68.3 L 147.4 63.5 L 152.0 58.4 L 152.0685185432434 58.3 Z M 71.2 39.7 L 63.34794521331787 35.77397260665894 L 63.3 35.8 L 56.1 39.3 L 53.262405967712404 40.5270676612854 L 65.1 42.5 L 68.1 44.5 L 65.1 46.3 L 65.1 54.3 L 72.3 54.3 L 81.96326532363892 44.63673467636109 L 79.3 44.4 L 75.4 42.1 Z " />
</g>
</svg>
