<svg xmlns="http://www.w3.org/2000/svg" xmlns:xlink="http://www.w3.org/1999/xlink" version="1.1" baseProfile="full" viewBox="0 0 200 200" width="200" height="200">
<g fill="black">
<path d="M 172.1 180.9 L 170.3 182.5 L 168.3 184.0 L 166.3 185.2 L 164.1 186.2 L 161.8 187.0 L 159.5 187.5 L 157.0 187.8 L 154.6 188.0 L 154.6 182.0 L 134.6 179.0 L 134.6 176.0 L 154.6 176.0 L 156.0 175.9 L 157.3 175.7 L 158.5 175.4 L 159.6 175.1 L 160.7 174.6 L 161.7 174.0 L 162.6 173.3 L 163.5 172.5 L 164.4 171.5 L 165.2 170.3 L 166.0 168.9 L 166.8 166.7 L 167.6 163.6 L 168.4 159.8 L 169.0 155.2 L 169.5 150.0 L 169.8 144.0 L 170.0 137.4 L 170.07338619232178 131.9694224357605 L 170.0 132.0 L 170.0 124.0 L 115.5 124.0 L 103.5 130.0 L 103.5 30.0 L 115.5 36.0 L 130.28695650100707 36.0 L 130.6 35.2 L 131.1 32.6 L 131.6 30.1 L 132.1 27.7 L 132.7 25.2 L 133.2 22.7 L 133.7 20.3 L 134.1 17.9 L 134.5 15.4 L 134.74404926300048 13.935704517364503 L 134.6 13.9 L 135.4 11.5 L 146.3 16.8 L 148.5 19.7 L 144.20649347305297 20.603896141052246 L 142.4 23.8 L 139.4 28.2 L 137.9 30.3 L 136.3 32.4 L 134.6 34.4 L 133.0 36.0 L 159.5 36.0 L 165.5 31.0 L 176.5 40.0 L 171.5 44.0 L 171.5 86.0 L 159.5 92.0 L 159.5 84.0 L 115.5 84.0 L 115.5 100.0 L 166.51818180084229 100.0 L 174.7 91.0 L 184.7 100.0 L 184.7 104.0 L 115.5 104.0 L 115.5 120.0 L 170.0 120.0 L 176.0 115.0 L 187.0 124.0 L 182.0 127.0 L 181.96359958648682 127.01516685485839 L 182.0 130.0 L 182.0 137.6 L 181.8 144.5 L 181.4 150.8 L 180.9 156.5 L 180.2 161.7 L 179.4 166.3 L 178.3 170.3 L 176.9 173.9 L 175.2 177.1 L 173.7 179.0 Z M 95.9 174.0 L 95.49796953201295 172.94467000961305 L 94.8 175.8 L 90.9 178.2 L 86.5 177.0 L 84.1 173.2 L 84.2 171.8 L 84.0 170.3 L 83.6 168.5 L 82.8 166.6 L 81.81984729766846 164.8847328186035 L 77.4 166.8 L 71.1 169.1 L 64.7 171.2 L 58.2 173.1 L 51.5 175.0 L 44.8 176.8 L 37.9 178.5 L 30.8 180.1 L 23.7 181.6 L 20.50669460296631 182.26527194976808 L 18.9 185.8 L 16.5 183.1 L 12.6 171.6 L 14.6 171.3 L 29.0 169.5 L 43.0 167.7 L 49.1 166.8029411315918 L 49.1 145.4 L 31.0 145.4 L 31.0 152.4 L 19.0 158.4 L 19.0 105.7 L 31.0 111.7 L 49.1 111.7 L 49.1 90.5 L 61.1 92.5 L 64.1 94.5 L 61.1 96.3 L 61.1 111.7 L 79.3 111.7 L 85.3 106.7 L 96.3 115.7 L 91.3 119.7 L 91.3 145.4 L 79.3 151.4 L 79.3 145.4 L 61.1 145.4 L 61.1 165.09552240371704 L 63.3 164.8 L 69.9 163.9 L 76.4 163.1 L 80.39766540527344 162.7365758895874 L 80.1 162.3 L 78.2 160.0 L 75.9 157.5 L 73.3 155.0 L 70.1 152.7 L 71.0 151.1 L 74.6 152.8 L 78.2 154.2 L 81.4 155.8 L 84.4 157.5 L 87.0 159.3 L 89.5 161.3 L 91.6 163.5 L 93.4 165.9 L 94.87540979385376 168.45737705230712 L 96.1 165.6 L 97.5 164.5 L 98.9 163.1 L 100.3 161.2 L 101.5 158.9 L 102.7 156.2 L 103.7 153.0 L 104.6 149.4 L 105.3 145.3 L 105.9 140.9 L 106.0 136.0 L 107.8 135.9 L 108.7 140.7 L 109.7 145.3 L 110.2 149.6 L 110.4 153.8 L 110.3 157.7 L 109.9 161.4 L 109.1 164.9 L 108.0 168.2 L 106.4 171.3 L 104.4 174.2 L 100.1 175.8 Z M 129.2 165.8 L 126.3 169.3 L 121.7 169.8 L 118.2 166.9 L 117.7 162.4 Z M 121.8 141.6 L 123.6 144.4 L 125.1 147.2 L 126.4 149.9 L 127.4 152.6 L 128.2 155.3 L 128.9 157.9 L 129.2 160.5 L 129.3 163.1 L 129.2 165.7 L 117.7 162.4 L 118.4 161.2 L 119.0 159.8 L 119.5 158.0 L 119.9 156.0 L 120.1 153.8 L 120.2 151.3 L 120.1 148.6 L 119.9 145.6 L 119.6 142.4 L 118.6 139.2 L 120.3 138.5 Z M 136.4 153.1 L 136.5 151.3 L 136.5 149.5 L 136.3 147.6 L 136.0 145.8 L 135.5 143.9 L 133.9 139.9 L 132.4 138.3 L 133.5 136.9 L 135.4 138.3 L 137.6 139.5 L 139.5 141.0 L 141.3 142.7 L 142.9 144.6 L 144.3 146.7 L 145.5 149.0 L 146.5 151.5 L 147.3 154.2 L 147.8 157.0 L 146.0 161.2 L 141.8 163.0 L 137.6 161.2 L 135.8 157.0 L 136.2 155.0 Z M 153.3 146.5 L 153.2 145.2 L 152.9 143.9 L 152.5 142.5 L 151.7 141.0 L 150.7 139.5 L 149.5 137.9 L 147.9 136.3 L 145.9 135.2 L 146.6 133.5 L 148.9 134.3 L 151.3 134.8 L 153.6 135.5 L 155.7 136.5 L 157.7 137.6 L 159.5 139.0 L 161.2 140.7 L 162.7 142.6 L 163.9 144.8 L 164.8 147.1 L 163.7 151.5 L 159.8 153.9 L 155.3 152.7 L 153.0 148.8 L 153.2 147.7 Z M 31.0 115.7 L 31.0 141.4 L 49.1 141.4 L 49.1 115.7 Z M 61.1 115.7 L 61.1 141.4 L 79.3 141.4 L 79.3 115.7 Z M 48.3 90.0 L 45.9 89.7 L 43.5 88.9 L 41.3 87.8 L 39.3 86.2 L 37.6 84.2 L 36.4 82.0 L 35.56385498046875 79.86318483352662 L 33.5 81.2 L 24.0 86.4 L 14.0 91.1 L 13.2 89.6 L 22.1 83.2 L 30.4 76.8 L 34.8 73.17974681854248 L 34.8 30.8 L 46.8 32.8 L 49.8 34.8 L 46.8 36.6 L 46.8 62.38208951950073 L 52.3 56.8 L 58.5 49.7 L 64.2 42.4 L 69.3 34.8 L 73.8 27.0 L 77.8 19.0 L 77.80407466888428 19.002056312561034 L 78.3 17.9 L 88.5 24.4 L 90.3 27.5 L 86.50060510635376 27.827534008026124 L 83.6 32.8 L 78.1 40.9 L 72.1 48.5 L 65.4 55.9 L 58.3 62.8 L 50.6 69.3 L 46.8 72.13855419158935 L 46.8 75.9 L 47.0 76.8 L 47.1 77.4 L 47.3 77.8 L 47.4 78.1 L 47.6 78.3 L 48.6 78.8 L 49.5 79.0 L 50.8 79.1 L 74.2 79.1 L 79.7 58.1 L 81.7 58.1 L 79.7 79.1 L 83.0 81.3 L 85.2 84.6 L 83.0 87.9 L 79.7 90.1 L 50.8 90.1 Z M 115.5 62.0 L 115.5 80.0 L 159.5 80.0 L 159.5 62.0 Z M 14.6 72.4 L 12.6 68.3 L 13.9 63.9 L 15.2 63.0 L 16.4 62.0 L 17.5 60.7 L 18.5 59.1 L 19.5 57.4 L 20.4 55.3 L 21.2 53.1 L 21.9 50.5 L 22.6 47.8 L 22.6 44.8 L 24.3 44.6 L 24.9 47.6 L 25.7 50.5 L 26.3 53.4 L 26.6 56.2 L 26.7 58.9 L 26.5 61.6 L 26.1 64.3 L 25.4 66.8 L 24.3 69.4 L 23.0 71.8 L 18.9 73.8 Z M 83.6 62.1 L 83.5 60.4 L 83.2 58.7 L 82.6 56.8 L 81.9 54.8 L 80.8 52.6 L 79.6 50.4 L 78.1 48.0 L 76.1 45.9 L 77.2 44.5 L 79.6 46.3 L 82.3 47.7 L 84.6 49.3 L 86.8 51.0 L 88.8 52.8 L 90.5 54.7 L 92.1 56.8 L 93.4 59.1 L 94.4 61.5 L 95.2 64.0 L 93.7 68.3 L 89.7 70.5 L 85.4 69.0 L 83.2 64.9 L 83.5 63.6 Z M 115.5 40.0 L 115.5 58.0 L 159.5 58.0 L 159.5 40.0 Z M 54.1 30.4 L 52.7 29.0 L 50.9 27.6 L 48.9 26.2 L 46.5 24.7 L 43.8 23.2 L 40.8 21.7 L 37.5 20.1 L 33.8 18.8 L 34.2 17.1 L 38.1 17.6 L 41.8 17.8 L 45.3 18.1 L 48.6 18.6 L 51.7 19.2 L 54.5 19.9 L 57.2 20.7 L 59.7 21.7 L 62.0 22.8 L 64.2 24.1 L 66.0 28.3 L 64.4 32.6 L 60.2 34.4 L 55.9 32.8 L 55.2 31.6 Z " />
</g>
</svg>
