<svg xmlns="http://www.w3.org/2000/svg" xmlns:xlink="http://www.w3.org/1999/xlink" version="1.1" baseProfile="full" viewBox="0 0 200 200" width="200" height="200">
<g fill="black">
<path d="M 175.7 180.5 L 173.9 182.2 L 172.1 183.7 L 170.0 185.0 L 167.8 186.1 L 165.6 186.9 L 163.2 187.5 L 160.8 187.8 L 158.3 188.0 L 158.3 182.0 L 138.3 179.0 L 138.3 176.0 L 158.3 176.0 L 159.7 175.9 L 161.0 175.7 L 163.2 175.1 L 164.1 174.6 L 165.0 174.0 L 165.9 173.3 L 166.7 172.5 L 167.5 171.5 L 168.3 170.3 L 168.9 169.0 L 169.7 166.7 L 170.4 163.6 L 171.0 159.8 L 171.5 155.2 L 171.9 150.0 L 172.2 144.0 L 172.4 137.4 L 172.4 124.0 L 125.5 124.0 L 113.5 130.0 L 113.5 30.0 L 125.5 36.0 L 137.73333330154418 36.0 L 138.0 35.2 L 138.8 30.2 L 139.2 27.8 L 139.6 25.3 L 140.0 22.9 L 140.3 20.5 L 140.7 18.1 L 141.0 15.6 L 141.17066116333007 14.234710788726806 L 141.0 14.2 L 141.29473686218262 13.242105293273926 L 141.3 13.2 L 141.3070508956909 13.202084636688232 L 141.8 11.6 L 152.8 16.6 L 155.1 19.4 L 150.83500003814697 20.466250038146974 L 149.2 23.6 L 147.8 25.8 L 146.5 28.0 L 145.0 30.2 L 143.5 32.3 L 141.9 34.3 L 140.37894735336303 36.0 L 163.1 36.0 L 169.1 31.0 L 180.1 40.0 L 175.1 44.0 L 175.1 86.0 L 163.1 92.0 L 163.1 84.0 L 125.5 84.0 L 125.5 100.0 L 167.9181818008423 100.0 L 176.1 91.0 L 186.1 100.0 L 186.1 104.0 L 125.5 104.0 L 125.5 120.0 L 172.4 120.0 L 178.4 115.0 L 189.4 124.0 L 184.4 127.0 L 184.36359958648683 127.01516685485839 L 184.4 130.0 L 184.4 137.5 L 184.2 144.4 L 183.9 150.7 L 183.5 156.4 L 182.9 161.4 L 182.2 165.9 L 181.2 169.9 L 180.1 173.4 L 178.6 176.5 L 177.2 178.6 Z M 107.3 174.2 L 105.5 170.0 L 107.0 165.7 L 108.3 164.7 L 109.5 163.2 L 110.8 161.4 L 112.0 159.0 L 113.0 156.2 L 114.0 153.0 L 114.8 149.4 L 115.5 145.3 L 116.1 140.9 L 116.3 136.0 L 118.1 135.9 L 119.0 140.7 L 119.9 145.3 L 120.5 149.6 L 120.7 153.7 L 120.7 157.6 L 120.4 161.2 L 119.8 164.6 L 118.9 167.9 L 117.6 171.0 L 115.8 173.8 L 111.7 175.7 Z M 48.9 156.2 L 48.9 172.2 L 62.9 172.2 L 62.9 156.2 Z M 130.3 169.9 L 126.7 167.1 L 126.0 162.5 L 126.7 161.3 L 127.3 159.8 L 127.8 158.0 L 128.2 156.0 L 128.5 153.7 L 128.6 151.2 L 128.6 148.5 L 128.5 145.6 L 128.3 142.4 L 127.5 139.2 L 129.2 138.6 L 130.6 141.7 L 132.2 144.5 L 133.6 147.3 L 134.8 150.0 L 135.8 152.7 L 136.6 155.3 L 137.2 157.9 L 137.6 160.5 L 137.7 163.0 L 137.6 165.5 L 134.8 169.2 Z M 142.8 153.0 L 142.9 151.2 L 142.9 149.3 L 142.8 147.5 L 142.6 145.6 L 142.2 143.8 L 141.7 141.9 L 141.0 139.9 L 139.7 138.3 L 140.9 137.0 L 142.6 138.4 L 144.6 139.6 L 146.4 141.1 L 148.0 142.8 L 149.5 144.8 L 150.8 146.9 L 151.9 149.2 L 152.9 151.6 L 153.6 154.2 L 154.1 157.0 L 152.3 161.2 L 148.1 163.0 L 143.9 161.2 L 142.1 157.0 L 142.5 155.0 Z M 157.5 143.7 L 157.1 142.3 L 156.6 140.9 L 155.8 139.4 L 154.8 137.8 L 153.5 136.2 L 151.8 135.2 L 152.5 133.6 L 154.5 134.4 L 156.7 134.9 L 158.8 135.6 L 160.8 136.6 L 162.6 137.8 L 164.3 139.3 L 165.9 140.9 L 167.2 142.8 L 168.3 144.9 L 169.2 147.2 L 167.9 151.6 L 164.0 153.9 L 159.6 152.7 L 157.3 148.7 L 157.7 146.3 Z M 48.9 135.3 L 48.9 152.2 L 62.9 152.2 L 62.9 135.3 Z M 48.9 115.2 L 48.9 131.3 L 62.9 131.3 L 62.9 115.2 Z M 95.80498867034912 62.68095235824585 L 94.8 64.0 L 93.1 66.0 L 91.8 68.3 L 90.2 67.6 L 91.0 65.1 L 91.3 62.5 L 91.7 59.9 L 92.2 57.5 L 92.6 55.0 L 93.4 50.4 L 93.8 48.2 L 93.82727270126342 48.0 L 54.1 48.0 L 60.1 49.0 L 63.1 51.0 L 60.1 52.8 L 60.1 65.26643600463868 L 65.71114749908448 64.39272785186768 L 74.1 52.9 L 87.5 61.0 L 88.1 64.9 L 60.1 69.25986156463622 L 60.1 76.2 L 60.2 77.1 L 60.4 77.7 L 60.5 78.1 L 60.7 78.4 L 61.2 78.9 L 61.9 79.1 L 62.8 79.3 L 64.1 79.5 L 91.4 79.5 Z M 125.5 62.0 L 125.5 80.0 L 163.1 80.0 L 163.1 62.0 Z M 30.2 48.0 L 30.2 69.9221453666687 L 48.1 67.13494806289673 L 48.1 48.0 Z M 125.5 40.0 L 125.5 58.0 L 163.1 58.0 L 163.1 40.0 Z M 29.1 130.8 L 28.56875 136.1125 L 29.3 134.0 L 31.1 128.9 L 34.7 119.1 L 36.4 114.3 L 37.9 109.5 L 37.9 107.7 L 38.4086238861084 107.79247703552247 L 39.3 104.8 L 40.6 100.1 L 41.7 95.4 L 42.58116397857666 91.71513223648071 L 42.5 91.7 L 43.2 89.1 L 54.3 93.9 L 56.7 96.7 L 52.95285654067993 97.70369911193848 L 52.6 98.7 L 50.8 103.5 L 48.7 108.3 L 48.11176471710205 109.55668449401855 L 48.9 109.7 L 51.0 111.2 L 65.56470584869385 111.2 L 65.6 111.1 L 65.7 109.1 L 66.0 107.1 L 66.2 105.1 L 66.5 103.1 L 66.9 101.1 L 67.2 99.1 L 67.6 97.0 L 67.9 94.9 L 68.12127656936646 93.73829784393311 L 68.0 93.7 L 68.24059410095215 93.11188116073609 L 68.3 92.8 L 68.35848264694214 92.82370920181275 L 68.9 91.5 L 79.4 97.3 L 81.5 100.3 L 76.88906602859497 101.01548976898194 L 75.7 102.7 L 73.1 106.1 L 71.8 107.6 L 70.4 109.2 L 69.0 110.7 L 68.4615385055542 111.2 L 83.31818180084228 111.2 L 91.5 102.2 L 101.5 111.2 L 101.5 115.2 L 74.9 115.2 L 74.9 131.3 L 78.01818180084229 131.3 L 86.2 122.3 L 96.2 131.3 L 96.2 135.3 L 74.9 135.3 L 74.9 152.2 L 78.01818180084229 152.2 L 86.2 143.2 L 96.2 152.2 L 96.2 156.2 L 74.9 156.2 L 74.9 172.2 L 84.0 172.2 L 94.0 162.2 L 106.0 172.2 L 106.0 176.2 L 48.9 176.2 L 48.9 183.2 L 37.9 188.7 L 37.9 128.29655170440674 L 35.9 131.4 L 32.6 135.8 L 29.0 140.1 L 28.21698112487793 139.63018865585326 L 28.2 139.8 L 26.9 148.3 L 25.4 156.1 L 23.6 163.3 L 21.5 169.9 L 19.1 175.8 L 16.3 181.0 L 13.1 185.4 L 11.6 184.5 L 13.1 179.5 L 14.5 174.1 L 15.7 168.2 L 16.8 161.8 L 17.8 154.8 L 18.5 147.2 L 19.0 139.1 L 19.3 130.3 L 19.3 120.9 L 19.2 111.0 L 19.2 38.5 L 30.2 44.0 L 51.3 44.0 L 51.3 12.0 L 63.3 14.0 L 66.3 16.0 L 63.3 17.8 L 63.3 26.0 L 76.01818180084229 26.0 L 84.2 17.0 L 94.2 26.0 L 94.2 30.0 L 63.3 30.0 L 63.3 44.0 L 94.1 44.0 L 100.1 39.0 L 111.1 48.0 L 106.1 51.0 L 103.0622857093811 52.26571426391602 L 102.0 53.9 L 100.7 55.8 L 99.4 57.9 L 98.89272727966309 58.57636365890503 L 96.9 79.5 L 100.2 81.7 L 102.4 85.0 L 100.2 88.3 L 96.9 90.5 L 64.1 90.5 L 61.6 90.4 L 59.1 90.0 L 56.8 89.2 L 54.5 88.1 L 52.5 86.5 L 50.9 84.6 L 49.6 82.4 L 48.8 80.0 L 48.3 77.5 L 48.1 75.0 L 48.1 71.12837371826171 L 30.3 73.9 L 30.2 73.25 L 30.2 111.0 L 29.8 121.2 Z " />
</g>
</svg>
