<svg xmlns="http://www.w3.org/2000/svg" xmlns:xlink="http://www.w3.org/1999/xlink" version="1.1" baseProfile="full" viewBox="0 0 200 200" width="200" height="200">
<g fill="black">
<path d="M 123.3 187.1 L 120.8 186.6 L 118.4 185.8 L 116.1 184.6 L 114.1 182.9 L 112.5 180.9 L 111.3 178.7 L 110.4 176.3 L 110.0 173.8 L 109.9 171.2 L 109.9 114.76862745285034 L 108.0645486831665 115.7763261795044 L 107.5 122.3 L 106.3 132.2 L 104.6 141.5 L 102.5 150.2 L 100.0 158.4 L 97.0 166.1 L 93.6 173.1 L 89.8 179.5 L 85.4 185.1 L 80.6 190.0 L 79.2 188.9 L 82.3 183.0 L 85.1 176.9 L 87.6 170.4 L 89.9 163.5 L 91.8 156.1 L 93.4 148.2 L 94.7 139.8 L 95.6 130.9 L 96.2 121.5 L 96.4 111.5 L 96.43027248382569 111.50100908279418 L 96.4848484992981 109.7 L 84.8 109.7 L 84.8 105.7 L 115.41818180084229 105.7 L 123.6 96.7 L 133.6 105.7 L 133.6 109.7 L 121.9 109.7 L 121.9 172.4 L 122.1 173.3 L 122.3 173.9 L 122.6 174.5 L 122.8 174.6 L 123.1 174.8 L 123.7 175.0 L 124.6 175.1 L 125.9 175.2 L 174.5 175.2 L 178.00066223144532 160.6139072418213 L 169.4 167.2 L 164.2 162.9 L 159.6 157.9 L 155.5 152.4 L 153.20408163070678 148.57346935272216 L 152.5 149.7 L 147.4 156.0 L 141.7 161.3 L 135.4 165.5 L 128.6 168.5 L 127.8 167.0 L 133.2 162.4 L 138.0 157.4 L 142.3 151.9 L 146.1 145.7 L 148.87255783081054 139.81881675720214 L 146.5 132.8 L 144.6 125.3 L 143.3 117.3 L 142.6 108.8 L 142.61355934143066 107.579660987854 L 140.0 111.5 L 136.8 115.4 L 135.3 114.5 L 137.9 105.1 L 139.3 100.3 L 140.6 95.5 L 141.8 90.5 L 143.0 85.4 L 144.0 80.1 L 144.9 74.7 L 145.7 69.1 L 146.4 63.4 L 146.46493864059448 63.41036834716797 L 146.8 61.4 L 158.3 65.3 L 160.9 67.7 L 157.39131345748902 69.12946491241455 L 156.9 71.2 L 155.4 77.0 L 153.7 82.6 L 151.9 87.9 L 150.78461542129517 90.8 L 162.1777777671814 90.8 L 168.4 83.8 L 176.4 90.8 L 176.4 94.8 L 170.59130430221558 94.8 L 169.2 104.8 L 167.1 115.5 L 164.3 125.3 L 161.0 134.3 L 159.0082884788513 138.38300867080687 L 160.7 141.1 L 164.3 145.8 L 168.2 149.9 L 172.3 153.3 L 176.8 156.3 L 178.73479890823364 157.55500469207763 L 180.5 150.2 L 182.5 150.2 L 180.5 175.2 L 184.1 177.6 L 186.5 181.2 L 184.1 184.8 L 180.5 187.2 L 125.9 187.2 Z M 68.9 181.4 L 67.1 183.1 L 65.3 184.7 L 63.2 186.0 L 61.1 187.1 L 58.8 187.9 L 56.4 188.5 L 54.0 188.8 L 51.5 189.0 L 51.5 183.0 L 35.5 180.0 L 35.5 177.0 L 51.5 177.0 L 52.9 176.9 L 54.2 176.7 L 55.3 176.4 L 56.3 176.1 L 57.3 175.6 L 58.2 175.0 L 59.0 174.3 L 59.8 173.5 L 60.6 172.5 L 61.4 171.3 L 62.4 169.2 L 63.5 166.4 L 64.5 163.0 L 65.3 158.9 L 66.1 154.2 L 66.7 148.9 L 67.2 143.1 L 67.6 136.6 L 67.8 129.6 L 67.87368421554565 124.0 L 29.8 124.0 L 17.8 130.0 L 17.8 30.0 L 29.8 36.0 L 38.05 36.0 L 38.5 35.1 L 39.2 32.5 L 39.9 30.0 L 40.7 27.5 L 42.1 22.5 L 42.7 20.0 L 43.4 17.6 L 44.0 15.1 L 44.29982967376709 13.660817718505859 L 44.1 13.6 L 45.0 11.3 L 55.6 17.1 L 57.7 20.1 L 53.37055883407593 20.77180986404419 L 52.7 21.8 L 51.2 24.0 L 48.0 28.4 L 46.2 30.5 L 42.6 34.5 L 40.942105293273926 36.0 L 60.7 36.0 L 66.7 31.0 L 77.7 40.0 L 72.7 44.0 L 72.7 86.0 L 60.7 92.0 L 60.7 84.0 L 29.8 84.0 L 29.8 100.0 L 62.21818180084229 100.0 L 70.4 91.0 L 80.4 100.0 L 80.4 104.0 L 29.8 104.0 L 29.8 120.0 L 67.9 120.0 L 73.9 115.0 L 84.9 124.0 L 79.9 127.0 L 79.83555316925049 127.02685289382934 L 79.8 129.8 L 79.6 137.1 L 79.2 143.9 L 78.7 150.1 L 78.0 155.9 L 77.1 161.1 L 76.1 165.9 L 74.9 170.1 L 73.5 174.0 L 71.7 177.4 L 70.4 179.5 Z M 13.6 177.4 L 11.2 173.5 L 12.2 169.0 L 13.3 167.8 L 14.5 166.1 L 15.7 163.9 L 16.8 161.2 L 17.7 158.1 L 18.6 154.5 L 19.4 150.5 L 20.1 146.1 L 20.7 141.2 L 21.0 136.0 L 22.8 135.9 L 23.7 141.1 L 24.6 146.0 L 25.2 150.7 L 25.5 155.0 L 25.6 159.1 L 25.4 162.9 L 25.0 166.5 L 24.3 169.9 L 23.3 173.0 L 22.0 176.0 L 18.1 178.3 Z M 33.0 171.9 L 29.2 169.3 L 28.3 164.8 L 28.9 163.2 L 29.5 161.4 L 30.0 159.4 L 30.4 157.1 L 30.7 154.6 L 30.9 151.9 L 31.0 149.0 L 31.0 145.9 L 30.9 142.6 L 30.4 139.2 L 32.1 138.7 L 33.4 141.9 L 34.9 145.0 L 36.2 148.0 L 37.2 150.9 L 38.1 153.8 L 38.9 156.6 L 39.4 159.3 L 39.8 162.0 L 40.0 164.6 L 40.0 167.2 L 37.4 171.0 Z M 42.6 152.9 L 42.6 150.7 L 42.5 148.6 L 42.3 146.5 L 42.0 144.4 L 41.6 142.3 L 41.1 140.2 L 40.5 138.1 L 39.4 136.3 L 40.7 135.1 L 42.3 136.7 L 44.3 138.2 L 46.0 139.9 L 47.6 141.8 L 49.1 143.8 L 50.4 146.1 L 51.6 148.5 L 52.6 151.0 L 53.5 153.7 L 54.2 156.5 L 52.8 160.8 L 48.7 162.9 L 44.4 161.5 L 42.3 157.4 L 42.5 155.1 Z M 54.2 144.1 L 54.0 142.5 L 53.7 141.0 L 53.3 139.4 L 52.8 137.9 L 52.1 136.4 L 51.3 134.9 L 50.4 133.3 L 48.9 132.2 L 49.8 130.6 L 51.5 131.5 L 53.5 132.1 L 55.5 132.9 L 57.3 134.0 L 59.0 135.2 L 60.7 136.7 L 62.2 138.4 L 63.6 140.3 L 64.8 142.4 L 65.9 144.6 L 65.2 149.1 L 61.6 151.9 L 57.1 151.1 L 54.3 147.5 L 54.3 145.8 Z M 149.18599996566772 94.8 L 147.8 98.1 L 145.4 102.8 L 145.33256254196166 102.91671876907348 L 146.7 108.2 L 149.0 116.1 L 151.5 123.3 L 153.30262365341187 127.54904136657714 L 154.7 122.6 L 156.6 113.3 L 158.0 103.2 L 158.6872727394104 94.8 Z M 98.70370368957519 109.7 L 108.4 111.9 L 109.9 112.98620691299439 L 109.9 109.7 Z M 29.8 62.0 L 29.8 80.0 L 60.7 80.0 L 60.7 62.0 Z M 128.7 72.7 L 128.7 76.7 L 88.4 76.7 L 88.4 72.7 L 110.51818180084229 72.7 L 118.7 63.7 Z M 79.6 70.9 L 77.9 66.7 L 79.6 62.4 L 80.7 61.7 L 81.9 60.4 L 83.1 58.5 L 84.4 56.0 L 85.5 53.0 L 86.6 49.4 L 87.6 45.3 L 88.5 40.7 L 89.4 35.7 L 90.0 30.1 L 91.8 30.1 L 92.4 35.7 L 92.88461542129517 39.3 L 127.0 39.3 L 127.0 11.6 L 139.0 13.6 L 142.0 15.6 L 139.0 17.4 L 139.0 39.3 L 173.3 39.3 L 179.3 34.3 L 190.3 43.3 L 185.3 46.3 L 182.30618553161622 47.54742269515991 L 181.0 49.6 L 179.5 51.8 L 177.8 54.2 L 176.1 56.7 L 174.2 59.2 L 172.1 61.9 L 169.9 64.6 L 167.9 67.6 L 166.3 66.8 L 167.6 63.4 L 168.5 60.0 L 169.4 56.9 L 170.2 53.8 L 171.0 51.0 L 171.7 48.3 L 172.4 45.8 L 172.9 43.4 L 172.9181818008423 43.3 L 93.24693880081176 43.3 L 93.4 45.8 L 93.5 50.3 L 93.3 54.5 L 92.9 58.3 L 92.2 61.9 L 91.2 65.1 L 89.9 68.2 L 88.1 70.9 L 83.8 72.6 Z M 29.8 40.0 L 29.8 58.0 L 60.7 58.0 L 60.7 40.0 Z " />
</g>
</svg>
