<svg xmlns="http://www.w3.org/2000/svg" xmlns:xlink="http://www.w3.org/1999/xlink" version="1.1" baseProfile="full" viewBox="0 0 200 200" width="200" height="200">
<g fill="black">
<path d="M 20.5 185.3 L 19.6 180.8 L 22.0 176.9 L 23.8 176.1 L 25.4 175.1 L 27.0 173.8 L 28.5 172.4 L 29.9 170.6 L 31.2 168.6 L 32.4 166.3 L 33.6 163.7 L 34.6 160.8 L 35.1 157.6 L 36.9 157.6 L 37.1 160.9 L 37.5 164.2 L 37.6 167.4 L 37.3 170.6 L 36.7 173.6 L 35.8 176.5 L 34.6 179.3 L 33.0 182.0 L 31.1 184.5 L 28.8 186.8 L 24.4 187.7 Z M 66.6 174.5 L 66.7 173.0 L 66.6 171.3 L 66.4 169.5 L 66.0 167.6 L 65.3 165.5 L 64.5 163.3 L 63.6 160.9 L 62.0 158.8 L 63.3 157.6 L 65.2 159.5 L 67.5 161.0 L 69.4 162.7 L 71.2 164.5 L 72.9 166.3 L 74.3 168.2 L 75.5 170.3 L 76.6 172.4 L 77.4 174.6 L 78.0 177.0 L 76.2 181.2 L 72.0 183.0 L 67.8 181.2 L 66.0 177.0 L 66.3 175.8 Z M 97.6 173.2 L 97.1 171.6 L 96.4 169.9 L 95.5 168.2 L 94.4 166.4 L 93.2 164.5 L 91.8 162.5 L 90.3 160.4 L 88.3 158.8 L 89.3 157.3 L 91.6 158.6 L 94.1 159.6 L 96.4 160.7 L 98.6 161.9 L 100.7 163.2 L 102.7 164.6 L 104.5 166.0 L 106.2 167.6 L 107.7 169.3 L 109.1 171.1 L 109.3 175.7 L 106.2 179.1 L 101.6 179.2 L 98.2 176.1 L 98.0 174.7 Z M 170.1 180.4 L 168.5 182.3 L 166.7 184.0 L 164.7 185.4 L 162.6 186.6 L 160.3 187.5 L 157.9 188.2 L 155.5 188.5 L 153.0 188.7 L 153.0 182.7 L 133.0 179.7 L 133.0 176.7 L 153.0 176.7 L 154.3 176.6 L 155.5 176.4 L 156.6 176.1 L 157.5 175.8 L 158.3 175.3 L 159.0 174.8 L 159.8 174.1 L 160.4 173.3 L 161.1 172.3 L 161.8 171.0 L 162.3 169.8 L 162.8 168.4 L 163.2 166.9 L 163.5 165.3 L 163.8 163.6 L 164.0 161.8 L 164.0 155.0 L 57.0 155.0 L 57.0 167.0 L 45.0 173.0 L 45.0 100.0 L 57.0 106.0 L 60.6 106.0 L 61.0 105.6 L 62.1 103.5 L 64.3 99.7 L 66.1 96.3 L 66.9 94.8 L 67.6 93.3 L 68.2 91.9 L 68.29336738586426 91.5965560913086 L 68.0 91.4 L 68.55604391098022 90.74285717010498 L 68.6 90.6 L 68.64592084884643 90.63663902282715 L 69.1 90.1 L 78.0 98.1 L 79.1 101.5 L 74.01956520080566 100.78695650100708 L 73.7 101.0 L 72.1 102.0 L 68.5 104.0 L 66.6 105.1 L 64.8 106.0 L 142.0 106.0 L 148.0 101.0 L 159.0 110.0 L 154.0 114.0 L 154.0 133.4 L 142.0 139.4 L 142.0 133.4 L 57.0 133.4 L 57.0 140.2 L 173.7777777671814 140.2 L 180.0 133.2 L 188.0 140.2 L 188.0 144.2 L 57.0 144.2 L 57.0 151.0 L 164.0 151.0 L 170.0 146.0 L 181.0 155.0 L 176.19672126770018 157.88196725845336 L 176.0 162.8 L 175.7 165.2 L 175.3 167.5 L 174.8 169.8 L 174.2 172.0 L 173.5 174.1 L 172.6 176.1 L 171.4 178.4 Z M 129.5 169.9 L 128.9 168.5 L 128.0 167.1 L 127.0 165.7 L 125.7 164.2 L 124.3 162.7 L 122.7 161.2 L 120.8 159.7 L 118.6 158.6 L 119.2 156.9 L 121.6 157.6 L 124.2 157.9 L 126.6 158.4 L 128.9 159.0 L 131.1 159.8 L 133.2 160.7 L 135.2 161.8 L 137.1 163.1 L 138.9 164.5 L 140.5 166.2 L 141.2 170.7 L 138.5 174.4 L 134.0 175.1 L 130.3 172.4 L 130.0 171.2 Z M 57.0 121.7 L 57.0 129.4 L 142.0 129.4 L 142.0 121.7 Z M 57.0 110.0 L 57.0 117.7 L 142.0 117.7 L 142.0 110.0 Z M 62.6 21.2 L 63.9 24.6 L 60.124528312683104 24.339622688293456 L 58.5 26.4 L 54.3 31.4 L 49.8 36.2 L 45.1 41.0 L 41.28113203048706 44.58018865585327 L 45.6 45.3 L 48.6 47.3 L 45.6 49.1 L 45.6 94.4 L 33.6 100.4 L 33.6 51.26792449951172 L 29.9 54.2 L 24.4 58.3 L 18.6 62.1 L 12.5 65.7 L 11.4 64.2 L 16.2 59.2 L 20.9 54.3 L 25.5 49.4 L 29.9 44.5 L 34.2 39.6 L 38.3 34.7 L 42.2 29.7 L 45.9 24.7 L 49.4 19.6 L 52.255853939056394 15.232223415374756 L 52.2 15.2 L 53.2 13.7 Z M 71.4 36.3 L 74.4 38.3 L 71.4 40.1 L 71.4 80.7 L 59.4 86.7 L 59.4 34.3 Z M 108.4 71.4 L 108.4 78.7 L 153.5 78.7 L 153.5 71.4 Z M 108.4 60.0 L 108.4 67.4 L 153.5 67.4 L 153.5 60.0 Z M 165.5 64.0 L 165.5 85.1 L 165.4 87.7 L 164.9 90.2 L 164.1 92.6 L 162.9 94.9 L 161.2 96.9 L 159.2 98.5 L 157.0 99.8 L 154.6 100.6 L 152.1 101.0 L 149.5 101.1 L 149.5 95.1 L 137.5 92.1 L 137.5 89.1 L 150.7 89.1 L 151.6 88.9 L 152.2 88.7 L 152.8 88.4 L 152.9 88.2 L 153.1 87.9 L 153.3 87.3 L 153.4 86.4 L 153.5 85.1 L 153.5 82.7 L 108.4 82.7 L 108.4 93.9 L 96.4 99.9 L 96.4 58.38367347717285 L 87.8 59.7 L 77.4 60.6 L 77.1 58.8 L 87.0 56.0 L 96.3 53.0 L 96.4 52.96551723480225 L 96.4 50.0 L 99.91020412445069 51.75510206222534 L 105.0 50.0 L 113.1 46.9 L 120.6 43.5 L 121.89037036895752 42.85481481552124 L 121.8 42.8 L 116.5 38.8 L 111.9 34.4 L 109.81860466003418 31.486046504974365 L 107.4 33.3 L 103.5 35.8 L 99.4 38.1 L 95.0 40.3 L 90.3 42.2 L 85.3 43.9 L 80.1 45.4 L 79.3 43.8 L 83.8 40.8 L 88.0 37.8 L 91.8 34.9 L 95.4 32.1 L 98.6 29.2 L 101.5 26.3 L 104.2 23.4 L 106.5 20.5 L 108.5 17.6 L 109.65470104217529 15.630215835571288 L 109.6 15.6 L 110.09148931503296 14.885106372833253 L 110.2 14.7 L 110.21279621124268 14.70866003036499 L 110.7 14.0 L 120.1 21.4 L 121.5 24.7 L 117.5125 24.5625 L 117.4 24.7 L 115.85 26.2 L 157.8 26.2 L 167.8 16.2 L 179.8 26.2 L 179.8 30.2 L 160.6 30.2 L 157.6 32.6 L 151.9 37.1 L 145.6 41.2 L 143.09182014465333 42.58511419296265 L 145.2 43.2 L 153.0 45.0 L 161.4 46.5 L 170.4 47.9 L 180.0 49.0 L 190.1 50.3 L 178.3 62.1 L 169.87575759887696 60.499393939971924 Z M 123.9 51.4 L 115.6 54.0 L 108.24477615356446 55.92238807678223 L 108.4 56.0 L 151.2875 56.0 L 150.2 55.7 L 142.1 52.9 L 134.7 49.9 L 131.54460430145264 48.322302150726316 Z M 113.025 30.2 L 114.6 31.1 L 119.7 33.9 L 125.3 36.5 L 130.20389032363892 38.429399490356445 L 133.9 36.2 L 139.7 32.3 L 142.20975608825682 30.2 Z " />
</g>
</svg>
