<svg xmlns="http://www.w3.org/2000/svg" xmlns:xlink="http://www.w3.org/1999/xlink" version="1.1" baseProfile="full" viewBox="0 0 200 200" width="200" height="200">
<g fill="black">
<path d="M 12.7 173.9 L 15.9 173.4 L 18.9 172.88571424484252 L 18.9 108.2 L 30.9 110.2 L 33.9 112.2 L 30.9 114.0 L 30.9 134.8 L 40.6777777671814 134.8 L 46.9 127.8 L 54.9 134.8 L 54.9 138.8 L 30.9 138.8 L 30.9 170.71162786483765 L 31.5 170.6 L 36.0 169.7 L 40.9 168.7 L 46.0 167.7 L 51.5 166.8 L 57.2 165.8 L 57.7 167.5 L 52.5 170.1 L 47.6 172.5 L 42.8 174.7 L 38.2 176.7 L 33.9 178.5 L 29.8 180.2 L 25.9 181.7 L 22.2 183.1 L 19.80640001296997 184.01520004272462 L 18.4 188.0 L 15.7 185.6 L 10.8 174.4 Z M 97.1 147.6 L 99.1 147.6 L 97.1 172.6 L 100.7 175.0 L 103.1 178.6 L 100.7 182.2 L 97.1 184.6 L 74.6 184.6 L 72.0 184.5 L 69.5 184.0 L 67.1 183.2 L 64.9 182.0 L 62.8 180.4 L 61.2 178.3 L 60.0 176.1 L 59.2 173.7 L 58.7 171.2 L 58.6 168.6 L 58.6 108.2 L 70.6 110.2 L 73.6 112.2 L 70.6 114.0 L 70.6 138.82666664123536 L 73.5 136.7 L 76.4 134.6 L 79.2 132.5 L 81.9 130.5 L 84.5 128.6 L 87.0 126.7 L 89.3 124.8 L 90.79594554901124 123.62925996780396 L 90.7 123.5 L 90.81093006134033 123.61753301620483 L 91.6 123.0 L 94.1978723526001 127.20607900619507 L 99.1 132.4 L 99.3 135.9 L 95.41592922210694 134.26460180282592 L 95.1 134.4 L 92.2 135.7 L 89.2 137.0 L 86.1 138.2 L 82.9 139.4 L 79.5 140.6 L 76.0 141.7 L 72.4 142.8 L 70.6 143.23783779144287 L 70.6 169.8 L 70.8 170.8 L 71.0 171.3 L 71.3 171.9 L 71.5 172.0 L 71.8 172.2 L 72.4 172.4 L 73.3 172.5 L 74.6 172.6 L 91.1 172.6 Z M 174.8 180.6 L 173.0 182.3 L 171.1 183.8 L 169.1 185.1 L 166.9 186.1 L 164.6 186.9 L 162.3 187.5 L 159.8 187.8 L 157.4 188.0 L 157.4 182.0 L 137.4 179.0 L 137.4 176.0 L 157.4 176.0 L 158.8 175.9 L 160.1 175.7 L 162.3 175.1 L 163.3 174.6 L 164.2 174.0 L 165.1 173.3 L 165.9 172.5 L 166.7 171.5 L 167.5 170.3 L 168.2 169.0 L 169.0 166.7 L 169.7 163.6 L 170.4 159.8 L 170.9 155.2 L 171.3 150.0 L 171.6 144.0 L 171.8 137.4 L 171.8 124.0 L 123.0 124.0 L 111.0 130.0 L 111.0 30.0 L 123.0 36.0 L 135.8869565010071 36.0 L 136.2 35.2 L 137.0 30.2 L 137.4 27.8 L 137.9 25.3 L 138.3 22.9 L 138.7 20.4 L 139.0 18.0 L 139.4 15.6 L 139.5753632545471 14.138639354705811 L 139.4 14.1 L 139.6880000114441 13.2 L 139.7 13.1 L 139.71817893981932 13.10569076538086 L 140.2 11.6 L 151.2 16.7 L 153.5 19.5 L 149.15050592422486 20.568296813964842 L 148.7 21.4 L 147.5 23.6 L 146.1 25.9 L 144.7 28.1 L 141.7 32.3 L 140.1 34.3 L 138.56999998092653 36.0 L 162.2 36.0 L 168.2 31.0 L 179.2 40.0 L 174.2 44.0 L 174.2 86.0 L 162.2 92.0 L 162.2 84.0 L 123.0 84.0 L 123.0 100.0 L 167.61818180084228 100.0 L 175.8 91.0 L 185.8 100.0 L 185.8 104.0 L 123.0 104.0 L 123.0 120.0 L 171.8 120.0 L 177.8 115.0 L 188.8 124.0 L 183.8 127.0 L 183.7635995864868 127.01516685485839 L 183.8 130.0 L 183.8 137.5 L 183.6 144.5 L 183.3 150.7 L 182.8 156.4 L 182.2 161.5 L 181.5 166.0 L 180.5 170.0 L 179.3 173.5 L 177.7 176.6 L 176.3 178.7 Z M 104.5 174.1 L 102.7 169.9 L 104.3 165.6 L 105.6 164.6 L 106.9 163.2 L 108.2 161.3 L 109.4 159.0 L 110.5 156.2 L 111.4 153.0 L 112.2 149.4 L 112.9 145.3 L 113.6 140.9 L 113.7 136.0 L 115.5 135.9 L 116.4 140.7 L 117.3 145.3 L 117.9 149.6 L 118.1 153.7 L 118.1 157.6 L 117.8 161.2 L 117.1 164.7 L 116.2 168.0 L 114.8 171.1 L 113.0 173.9 L 108.8 175.7 Z M 128.2 169.8 L 124.6 167.0 L 123.9 162.5 L 124.6 161.3 L 125.2 159.8 L 125.7 158.0 L 126.1 156.0 L 126.4 153.7 L 126.5 151.2 L 126.5 148.5 L 126.3 145.6 L 126.1 142.4 L 125.3 139.2 L 126.9 138.6 L 128.4 141.6 L 130.1 144.5 L 131.5 147.3 L 132.7 150.0 L 133.7 152.7 L 134.5 155.3 L 135.1 157.9 L 135.5 160.5 L 135.6 163.0 L 135.5 165.6 L 132.7 169.2 Z M 141.2 153.1 L 141.3 151.2 L 141.3 149.3 L 141.2 147.5 L 140.9 145.7 L 140.5 143.8 L 139.9 141.9 L 139.2 139.9 L 137.9 138.3 L 139.1 137.0 L 140.8 138.4 L 142.8 139.6 L 144.7 141.1 L 146.4 142.8 L 147.9 144.7 L 149.2 146.8 L 150.3 149.1 L 151.3 151.6 L 152.0 154.2 L 152.6 157.0 L 150.7 161.2 L 146.6 163.0 L 142.4 161.2 L 140.6 157.0 L 140.9 155.0 Z M 156.6 146.3 L 156.5 145.0 L 156.3 143.7 L 156.0 142.3 L 155.4 140.9 L 154.5 139.4 L 153.5 137.9 L 152.1 136.2 L 150.3 135.2 L 151.0 133.5 L 153.1 134.4 L 155.4 134.9 L 157.5 135.6 L 159.5 136.6 L 161.4 137.8 L 163.1 139.2 L 164.7 140.9 L 166.1 142.8 L 167.2 144.9 L 168.1 147.2 L 166.9 151.6 L 162.9 153.9 L 158.5 152.7 L 156.2 148.8 L 156.4 147.5 Z M 62.2 20.1 L 63.7 23.4 L 59.1 23.4 L 52.1 30.4 L 50.1 32.3 L 47.9 34.2 L 45.83000001907349 36.0 L 84.1 36.0 L 90.1 31.0 L 101.1 40.0 L 96.1 44.0 L 96.1 106.1 L 84.1 112.1 L 84.1 102.1 L 28.8 102.1 L 16.8 108.1 L 16.8 30.0 L 28.8 36.0 L 43.03333330154419 36.0 L 43.7 34.8 L 44.7 32.0 L 45.8 29.3 L 46.9 26.8 L 47.9 24.4 L 48.8 22.0 L 49.7 19.8 L 50.5 17.7 L 51.3 15.7 L 51.6 14.8 L 51.4 14.7 L 51.88125 13.95625 L 51.9 13.9 L 51.91270036697388 13.907644844055175 L 52.5 13.0 Z M 66.5 83.7 L 63.4 79.9 L 61.29554424285889 77.4667230606079 L 59.0 79.9 L 53.5 84.5 L 47.7 88.6 L 41.4 92.0 L 34.7 94.8 L 28.8 96.48571424484253 L 28.8 98.1 L 84.1 98.1 L 84.1 40.0 L 28.8 40.0 L 28.8 94.05166664123536 L 33.1 91.4 L 38.6 87.4 L 43.8 83.3 L 48.5 78.8 L 52.8 74.1 L 55.096875 71.0375 L 52.9 68.9 L 48.8 65.3 L 44.6 61.7 L 40.2 58.1 L 35.6 54.3 L 36.4 52.8 L 42.1 54.8 L 47.5 57.2 L 52.6 59.9 L 57.5 62.9 L 59.61230983734131 64.32351312637329 L 60.2 63.4 L 63.3 57.4 L 66.1 51.1 L 68.1430344581604 45.311402320861816 L 68.1 45.3 L 69.0 42.9 L 79.8 48.4 L 81.9 51.3 L 78.1630331993103 52.02116899490356 L 76.5 55.7 L 72.8 62.6 L 68.6 68.9 L 67.50448446273803 70.25748672485352 L 70.6 72.9 L 74.5 76.6 L 78.2 80.5 L 81.6 84.5 L 82.6 89.0 L 80.2 92.9 L 75.8 93.8 L 71.9 91.5 L 69.3 87.5 Z M 123.0 62.0 L 123.0 80.0 L 162.2 80.0 L 162.2 62.0 Z M 123.0 40.0 L 123.0 58.0 L 162.2 58.0 L 162.2 40.0 Z " />
</g>
</svg>
