<svg xmlns="http://www.w3.org/2000/svg" xmlns:xlink="http://www.w3.org/1999/xlink" version="1.1" baseProfile="full" viewBox="0 0 200 200" width="200" height="200">
<g fill="black">
<path d="M 31.2 175.0 L 47.2 175.0 L 48.4 174.9 L 49.3 174.7 L 50.2 174.4 L 50.6 174.0 L 50.9 173.1 L 51.1 172.2 L 51.2 171.0 L 51.2 133.0 L 37.5 133.0 L 25.5 139.0 L 25.5 97.0 L 37.5 103.0 L 76.8 103.0 L 82.8 98.0 L 93.8 107.0 L 88.8 111.0 L 88.8 133.0 L 76.8 139.0 L 76.8 133.0 L 63.2 133.0 L 63.2 171.0 L 63.0 173.5 L 62.6 176.0 L 61.8 178.4 L 60.5 180.7 L 58.9 182.7 L 56.9 184.3 L 54.6 185.6 L 52.2 186.4 L 49.7 186.8 L 47.2 187.0 L 47.2 181.0 L 31.2 178.0 Z M 174.4 180.8 L 172.6 182.5 L 170.7 183.9 L 168.7 185.2 L 166.5 186.2 L 164.2 187.0 L 161.8 187.5 L 159.4 187.8 L 156.9 188.0 L 156.9 182.0 L 136.9 179.0 L 136.9 176.0 L 156.9 176.0 L 158.4 175.9 L 159.7 175.7 L 160.9 175.4 L 162.0 175.1 L 163.0 174.6 L 164.0 174.0 L 164.9 173.3 L 165.8 172.5 L 166.7 171.5 L 167.5 170.3 L 168.3 168.9 L 169.1 166.7 L 169.9 163.6 L 170.6 159.8 L 171.2 155.2 L 171.7 150.0 L 172.0 144.0 L 172.2 137.4 L 172.27338619232177 131.9694224357605 L 172.2 132.0 L 172.2 124.0 L 118.5 124.0 L 106.5 130.0 L 106.5 30.0 L 118.5 36.0 L 132.98695650100709 36.0 L 133.3 35.2 L 133.8 32.6 L 134.3 30.1 L 134.9 27.7 L 135.4 25.2 L 135.9 22.8 L 136.3 20.3 L 136.8 17.9 L 137.2 15.4 L 137.42821922302247 14.03068494796753 L 137.3 14.0 L 137.5782608985901 13.130434799194337 L 137.6 13.0 L 137.61807231903077 13.006024074554443 L 138.1 11.5 L 149.0 16.8 L 151.2 19.6 L 146.92250442504883 20.57556915283203 L 146.4 21.5 L 145.0 23.7 L 143.6 26.0 L 142.1 28.2 L 140.6 30.3 L 139.0 32.4 L 137.3 34.4 L 135.78421049118043 36.0 L 161.8 36.0 L 167.8 31.0 L 178.8 40.0 L 173.8 44.0 L 173.8 86.0 L 161.8 92.0 L 161.8 84.0 L 118.5 84.0 L 118.5 100.0 L 168.61818180084228 100.0 L 176.8 91.0 L 186.8 100.0 L 186.8 104.0 L 118.5 104.0 L 118.5 120.0 L 172.2 120.0 L 178.2 115.0 L 189.2 124.0 L 184.2629539489746 126.96222763061523 L 184.3 130.0 L 184.2 137.6 L 184.0 144.5 L 183.7 150.8 L 183.2 156.5 L 182.5 161.7 L 181.6 166.2 L 180.6 170.3 L 179.2 173.8 L 177.5 177.0 L 176.0 179.0 Z M 99.1 174.0 L 97.4 169.8 L 99.2 165.6 L 100.6 164.5 L 102.0 163.1 L 103.3 161.2 L 104.6 158.9 L 105.7 156.2 L 106.7 153.0 L 107.6 149.4 L 108.3 145.3 L 108.9 140.9 L 109.1 136.0 L 110.8 135.9 L 111.8 140.7 L 112.7 145.3 L 113.2 149.6 L 113.5 153.8 L 113.4 157.7 L 113.0 161.4 L 112.2 164.9 L 111.1 168.2 L 109.5 171.3 L 107.5 174.1 L 103.3 175.8 Z M 46.2 149.3 L 47.4 152.7 L 43.32353315353394 152.34858045578002 L 41.0 154.5 L 38.1 157.0 L 35.1 159.5 L 31.9 161.9 L 28.5 164.2 L 24.9 166.4 L 21.1 168.6 L 17.1 170.6 L 13.0 172.7 L 12.0 171.2 L 15.3 168.1 L 18.3 164.9 L 21.2 161.8 L 24.0 158.9 L 26.5 155.9 L 28.9 153.1 L 31.1 150.3 L 33.1 147.5 L 34.9 144.8 L 35.978242015838624 143.04785671234131 L 35.9 143.0 L 37.0 141.5 Z M 85.2 160.9 L 83.6 158.7 L 81.9 156.5 L 79.9 154.2 L 77.8 151.9 L 75.4 149.5 L 72.9 147.1 L 70.2 144.5 L 67.1 142.2 L 68.0 140.6 L 71.6 142.2 L 75.2 143.5 L 78.5 145.0 L 81.7 146.5 L 84.7 148.2 L 87.6 150.0 L 90.3 151.9 L 92.8 153.8 L 95.1 155.8 L 97.3 158.0 L 98.3 162.4 L 96.0 166.4 L 91.5 167.4 L 87.6 165.1 L 86.5 163.0 Z M 124.6 169.8 L 121.1 166.9 L 120.5 162.4 L 121.2 161.2 L 121.8 159.8 L 122.3 158.0 L 122.7 156.0 L 122.9 153.8 L 123.0 151.3 L 122.9 148.6 L 122.7 145.6 L 122.4 142.4 L 121.5 139.2 L 123.2 138.5 L 124.7 141.6 L 126.5 144.4 L 127.9 147.2 L 129.2 150.0 L 130.3 152.6 L 131.1 155.3 L 131.7 157.9 L 132.1 160.5 L 132.2 163.1 L 132.0 165.7 L 129.1 169.3 Z M 139.1 153.1 L 139.2 151.3 L 139.1 149.4 L 139.0 147.6 L 138.6 145.7 L 138.1 143.9 L 137.4 141.9 L 136.6 139.9 L 135.1 138.3 L 136.3 136.9 L 138.2 138.3 L 140.3 139.5 L 142.2 141.0 L 144.0 142.7 L 145.6 144.6 L 147.0 146.7 L 148.2 149.1 L 149.1 151.5 L 149.9 154.2 L 150.5 157.0 L 148.7 161.2 L 144.5 163.0 L 140.3 161.2 L 138.5 157.0 L 138.8 155.0 Z M 155.7 146.4 L 155.6 145.2 L 155.4 143.9 L 154.9 142.5 L 154.2 141.0 L 153.2 139.5 L 152.0 137.9 L 150.5 136.3 L 148.5 135.2 L 149.2 133.5 L 151.4 134.3 L 153.8 134.8 L 156.1 135.5 L 158.2 136.5 L 160.2 137.6 L 162.0 139.1 L 163.7 140.7 L 165.1 142.7 L 166.3 144.8 L 167.3 147.1 L 166.1 151.5 L 162.2 153.9 L 157.8 152.7 L 155.4 148.8 L 155.6 147.6 Z M 37.5 107.0 L 37.5 129.0 L 76.8 129.0 L 76.8 107.0 Z M 35.6 23.0 L 78.7 23.0 L 84.7 18.0 L 95.7 27.0 L 90.7 31.0 L 90.7 69.0 L 78.7 75.0 L 78.7 67.0 L 63.2 67.0 L 63.2 86.0 L 81.71818180084229 86.0 L 89.9 77.0 L 99.9 86.0 L 99.9 90.0 L 14.4 90.0 L 14.4 86.0 L 51.2 86.0 L 51.2 67.0 L 35.6 67.0 L 35.6 70.0 L 23.6 76.0 L 23.6 17.0 Z M 118.5 62.0 L 118.5 80.0 L 161.8 80.0 L 161.8 62.0 Z M 35.6 47.0 L 35.6 63.0 L 78.7 63.0 L 78.7 47.0 Z M 118.5 40.0 L 118.5 58.0 L 161.8 58.0 L 161.8 40.0 Z M 35.6 27.0 L 35.6 43.0 L 78.7 43.0 L 78.7 27.0 Z " />
</g>
</svg>
