<svg xmlns="http://www.w3.org/2000/svg" xmlns:xlink="http://www.w3.org/1999/xlink" version="1.1" baseProfile="full" viewBox="0 0 200 200" width="200" height="200">
<g fill="black">
<path d="M 87.7 169.3 L 87.7 176.8 L 149.9 176.8 L 149.9 169.3 Z M 96.00681819915772 157.8 L 88.8 159.9 L 87.7 160.18518514633178 L 87.7 165.3 L 149.9 165.3 L 149.9 157.8 Z M 117.8 150.8 L 108.92765960693359 153.8 L 138.2 153.8 L 137.8 153.0 L 137.1 152.2 L 136.2 151.3 L 135.1 150.4 L 133.8 149.4 L 132.3 148.4 L 130.6 147.3 L 128.7 146.8 L 128.73660593032838 146.58036460876465 Z M 105.3 132.0 L 105.3 141.6 L 117.53636360168457 141.6 L 126.7 137.4 L 137.30363636016847 132.0 Z M 60.7 101.7 L 60.7 113.2 L 86.5 113.2 L 86.5 101.7 Z M 98.5 101.7 L 98.5 113.2 L 124.4 113.2 L 124.4 101.7 Z M 136.4 101.7 L 136.4 113.2 L 162.2 113.2 L 162.2 101.7 Z M 130.6 92.6 L 128.4 92.5 L 126.2 92.0 L 124.1 91.1 L 122.1 89.9 L 120.4 88.2 L 119.0 86.2 L 118.0 83.9 L 117.3 81.5 L 117.0 79.0 L 117.0 58.5 L 60.2 58.5 L 68.0 59.8 L 71.0 61.8 L 68.0 63.6 L 68.0 69.6 L 89.81818180084228 69.6 L 98.0 60.6 L 108.0 69.6 L 108.0 73.6 L 68.0 73.6 L 68.0 83.57142858505249 L 74.6 83.1 L 81.8 82.5 L 89.3 81.9 L 96.9 81.4 L 104.7 80.9 L 112.8 80.6 L 113.1 82.3 L 105.3 84.6 L 97.7 86.7 L 90.3 88.4 L 82.9 90.0 L 75.8 91.5 L 68.8 92.8 L 62.0 94.1 L 55.60112361907959 95.1505618095398 L 60.7 97.7 L 162.2 97.7 L 168.2 92.7 L 179.2 101.7 L 174.2 105.7 L 174.2 117.2 L 166.99242420196532 120.80378789901734 L 169.9 124.4 L 170.2 128.0 L 166.6028272628784 126.69193716049195 L 161.7 130.1 L 152.5 135.6 L 142.1 140.9 L 140.47600002288817 141.6 L 170.7777777671814 141.6 L 177.0 134.6 L 185.0 141.6 L 185.0 145.6 L 145.6 145.6 L 145.9 145.7 L 147.9 149.8 L 146.71818180084227 153.8 L 149.9 153.8 L 155.9 148.8 L 166.9 157.8 L 161.9 161.8 L 161.9 182.8 L 149.9 188.8 L 149.9 180.8 L 87.7 180.8 L 87.7 183.8 L 75.7 189.8 L 75.7 163.2962963104248 L 72.6 164.1 L 55.1 168.0 L 36.4 171.6 L 36.0 169.9 L 54.1 164.4 L 71.1 159.0 L 75.7 157.42784814834596 L 75.7 147.8 L 87.13107566833496 153.51553783416747 L 101.4 148.3 L 108.05 145.6 L 37.9 145.6 L 37.9 141.6 L 93.3 141.6 L 93.3 132.0 L 56.1 132.0 L 56.1 128.0 L 93.3 128.0 L 93.3 117.6 L 105.3 119.6 L 108.3 121.6 L 105.3 123.4 L 105.3 128.0 L 130.0777777671814 128.0 L 136.3 121.0 L 144.22596588134766 127.9352201461792 L 147.0 126.3 L 155.3 120.7 L 159.6125 117.2 L 60.7 117.2 L 48.7 123.2 L 48.7 96.21428575515748 L 46.629483985900876 96.51007375717163 L 44.8 99.9 L 42.5 97.1 L 39.4 85.4 L 41.4 85.2 L 47.6 84.9 L 54.1 84.5 L 56.0 84.38656721115112 L 56.0 58.5 L 38.0 58.5 L 38.0 91.0 L 37.4 102.7 L 36.5 114.0 L 35.1 124.9 L 33.3 135.2 L 31.1 145.1 L 28.4 154.4 L 25.3 163.3 L 21.6 171.6 L 17.5 179.3 L 12.7 186.4 L 11.2 185.5 L 14.0 177.7 L 16.7 169.6 L 19.0 161.3 L 21.1 152.5 L 22.8 143.3 L 24.2 133.7 L 25.2 123.7 L 25.8 113.2 L 26.1 102.3 L 26.0 91.0 L 26.0 21.0 L 38.0 27.0 L 98.0 27.0 L 98.0 12.0 L 110.0 14.0 L 113.0 16.0 L 110.0 17.8 L 110.0 27.0 L 165.8181818008423 27.0 L 174.0 18.0 L 184.0 27.0 L 184.0 31.0 L 129.4 31.0 L 130.0 31.1 L 133.0 33.1 L 130.0 34.9 L 130.0 40.2 L 160.0 40.2 L 166.0 35.2 L 177.0 44.2 L 172.0 48.2 L 172.0 58.5 L 164.39090909957886 62.30454549789429 L 164.6916335105896 63.25683927536011 L 174.0 71.1 L 174.2 74.2 L 170.05664596557617 72.37204971313477 L 167.8 73.1 L 164.8 73.7 L 161.4 74.2 L 157.7 74.7 L 153.8 75.2 L 149.5 75.6 L 144.8 75.9 L 139.9 76.2 L 134.6 76.3 L 129.0 76.3 L 129.0 79.0 L 128.8 80.3 L 128.7 81.3 L 128.7 82.6 L 128.8 83.1 L 129.0 83.7 L 129.5 84.2 L 130.3 84.7 L 131.5 85.2 L 133.0 85.5 L 176.5 85.5 L 180.0 80.5 L 182.0 80.5 L 180.0 85.5 L 182.1 86.9 L 183.5 89.0 L 182.1 91.1 L 180.0 92.5 L 133.0 92.5 Z M 129.0 59.8 L 132.0 61.8 L 129.0 63.6 L 129.0 72.87924528121948 L 133.9 71.4 L 138.9 70.0 L 143.6 68.7 L 148.0 67.5 L 151.9 66.3 L 155.6 65.1 L 158.8 63.9 L 160.0 63.44482755661011 L 160.0 58.5 L 121.2 58.5 Z M 38.0 44.2 L 38.0 54.5 L 74.0 54.5 L 74.0 44.2 Z M 86.0 44.2 L 86.0 54.5 L 118.0 54.5 L 118.0 44.2 Z M 130.0 44.2 L 130.0 54.5 L 160.0 54.5 L 160.0 44.2 Z M 38.0 31.0 L 38.0 40.2 L 74.0 40.2 L 74.0 31.0 Z M 86.0 31.1 L 89.0 33.1 L 86.0 34.9 L 86.0 40.2 L 118.0 40.2 L 118.0 31.0 L 85.4 31.0 Z " />
</g>
</svg>
