<svg xmlns="http://www.w3.org/2000/svg" xmlns:xlink="http://www.w3.org/1999/xlink" version="1.1" baseProfile="full" viewBox="0 0 200 200" width="200" height="200">
<g fill="black">
<path d="M 20.5 186.9 L 19.5 182.4 L 21.9 178.5 L 23.7 177.6 L 25.3 176.6 L 26.9 175.3 L 28.4 173.8 L 29.9 171.9 L 31.2 169.8 L 32.4 167.4 L 33.5 164.7 L 34.6 161.7 L 35.1 158.4 L 36.9 158.4 L 37.1 161.9 L 37.5 165.3 L 37.6 168.6 L 37.3 171.8 L 36.8 174.9 L 35.9 177.8 L 34.6 180.7 L 33.0 183.4 L 31.1 186.0 L 28.9 188.3 L 24.4 189.3 Z M 66.6 175.8 L 66.7 174.2 L 66.6 172.5 L 66.4 170.7 L 65.9 168.7 L 65.3 166.5 L 64.5 164.3 L 63.5 161.8 L 62.0 159.7 L 63.3 158.5 L 65.3 160.4 L 67.5 162.1 L 69.5 163.8 L 71.3 165.6 L 72.9 167.5 L 74.3 169.5 L 75.5 171.6 L 76.6 173.8 L 77.4 176.1 L 78.0 178.5 L 76.2 182.7 L 72.0 184.5 L 67.8 182.7 L 66.0 178.5 L 66.3 177.2 Z M 97.6 174.4 L 97.1 172.8 L 96.3 171.1 L 95.4 169.3 L 94.4 167.4 L 93.1 165.5 L 91.8 163.5 L 90.3 161.4 L 88.3 159.6 L 89.3 158.2 L 91.6 159.5 L 94.1 160.6 L 96.5 161.7 L 98.7 163.0 L 100.8 164.3 L 102.7 165.8 L 104.5 167.3 L 106.2 169.0 L 107.8 170.7 L 109.2 172.6 L 109.3 177.1 L 106.2 180.5 L 101.6 180.6 L 98.2 177.5 L 98.0 176.0 Z M 170.0 181.9 L 168.5 183.8 L 166.7 185.5 L 164.7 187.0 L 162.6 188.2 L 160.3 189.1 L 157.9 189.7 L 155.5 190.1 L 153.0 190.2 L 153.0 184.2 L 133.0 181.2 L 133.0 178.2 L 154.3 178.2 L 155.5 178.0 L 156.5 177.7 L 157.4 177.4 L 159.0 176.4 L 159.7 175.7 L 160.4 174.9 L 161.0 173.9 L 162.2 171.3 L 162.7 169.8 L 163.1 168.2 L 163.5 166.5 L 163.8 164.7 L 164.0 162.8 L 164.0 155.7 L 57.0 155.7 L 57.0 167.7 L 45.0 173.7 L 45.0 99.5 L 57.0 105.5 L 93.52777776718139 105.5 L 94.0 105.0 L 95.1 102.9 L 97.3 99.1 L 98.2 97.3 L 99.1 95.6 L 99.9 94.0 L 100.5 92.5 L 101.1 91.1 L 101.23431015014648 90.75079364776612 L 101.0 90.6 L 102.0 89.2 L 111.1 97.1 L 112.2 100.5 L 107.15013332366944 99.8905333518982 L 106.7 100.2 L 105.1 101.2 L 103.4 102.3 L 101.6 103.3 L 99.7 104.4 L 97.6 105.5 L 142.0 105.5 L 148.0 100.5 L 159.0 109.5 L 154.0 113.5 L 154.0 133.5 L 142.0 139.5 L 142.0 133.5 L 57.0 133.5 L 57.0 140.6 L 173.7777777671814 140.6 L 180.0 133.6 L 188.0 140.6 L 188.0 144.6 L 57.0 144.6 L 57.0 151.7 L 164.0 151.7 L 170.0 146.7 L 181.0 155.7 L 176.1956521987915 158.58260869979858 L 176.2 158.7 L 176.1 161.3 L 176.0 163.8 L 175.7 166.3 L 175.3 168.7 L 174.8 171.1 L 174.2 173.3 L 173.4 175.5 L 172.6 177.6 L 171.4 179.9 Z M 129.5 171.0 L 128.8 169.6 L 128.0 168.2 L 127.0 166.7 L 125.7 165.2 L 124.3 163.7 L 122.6 162.2 L 120.8 160.6 L 118.6 159.5 L 119.2 157.8 L 121.6 158.5 L 124.2 158.8 L 126.6 159.4 L 128.9 160.0 L 131.2 160.9 L 133.3 161.8 L 135.3 163.0 L 137.2 164.3 L 139.0 165.8 L 140.6 167.5 L 141.2 172.0 L 138.5 175.7 L 133.9 176.3 L 130.3 173.6 L 130.0 172.3 Z M 57.0 121.5 L 57.0 129.5 L 142.0 129.5 L 142.0 121.5 Z M 57.0 109.5 L 57.0 117.5 L 142.0 117.5 L 142.0 109.5 Z M 19.0 96.2 L 19.9 91.7 L 23.6 89.1 L 26.5 88.7 L 29.2 88.3 L 31.6 87.7 L 33.6 87.1 L 35.5 86.3 L 37.2 85.4 L 38.7 84.3 L 40.1 83.0 L 41.4 81.3 L 42.0 79.2 L 43.8 79.4 L 43.7 81.8 L 43.6 84.4 L 43.0 87.0 L 41.9 89.5 L 40.3 91.8 L 38.3 94.0 L 35.8 96.0 L 32.9 97.8 L 29.7 99.4 L 26.2 100.8 L 21.7 99.9 Z M 169.5 94.4 L 168.3 93.0 L 166.7 91.4 L 164.5 89.7 L 162.0 87.9 L 159.0 86.0 L 155.6 83.9 L 151.9 81.8 L 147.6 79.9 L 148.2 78.2 L 152.8 79.3 L 157.1 80.0 L 161.1 80.9 L 164.7 81.9 L 168.0 82.9 L 171.0 84.0 L 173.7 85.1 L 176.1 86.4 L 178.3 87.9 L 180.3 89.7 L 181.1 94.2 L 178.6 98.1 L 174.1 98.9 L 170.3 96.4 L 170.1 95.6 Z M 76.75901641845704 90.72131147384644 L 87.5 93.2 L 84.8 96.9 L 80.3 97.7 L 76.6 95.0 L 75.8 90.5 Z M 111.8 79.7 L 115.2 80.4 L 118.3 81.1 L 121.2 81.9 L 123.7 82.8 L 126.1 83.8 L 128.2 84.9 L 130.1 86.3 L 131.8 88.1 L 133.1 90.5 L 132.3 95.0 L 128.6 97.7 L 124.1 96.9 L 121.4 93.2 L 121.95084743499756 93.07288131713867 L 122.1 92.7 L 121.8 91.7 L 121.0 90.4 L 119.8 89.0 L 118.2 87.4 L 116.1 85.7 L 113.7 83.8 L 110.9 81.9 L 107.6 80.3 L 108.2 78.6 Z M 121.4 93.2 L 121.9 93.2 L 121.95084743499756 93.07288131713867 Z M 72.8 80.0 L 75.4 80.7 L 77.8 81.5 L 79.9 82.4 L 81.9 83.5 L 83.6 84.7 L 85.2 86.3 L 86.5 88.2 L 87.3 90.6 L 87.5 93.2 L 76.75901641845704 90.72131147384644 L 77.0 90.4 L 77.1 89.5 L 76.8 88.4 L 76.1 86.9 L 75.0 85.4 L 73.6 83.6 L 71.8 81.8 L 69.4 80.4 L 70.2 78.8 Z M 76.2 90.8 L 76.7 90.8 L 76.75901641845704 90.72131147384644 L 75.8 90.5 Z M 14.8 65.2 L 18.0 65.0 L 21.3 64.7 L 24.8 64.4 L 28.5 64.1 L 32.4 63.7 L 36.4 63.4 L 40.7 63.0 L 45.2 62.6 L 49.0 62.43829784393311 L 49.0 49.0 L 16.0 49.0 L 16.0 45.0 L 49.0 45.0 L 49.0 32.2 L 61.0 34.2 L 64.0 36.2 L 61.0 38.0 L 61.0 73.2 L 49.0 79.2 L 49.0 66.11818180084228 L 46.2 67.2 L 42.0 68.8 L 37.9 70.2 L 34.0 71.6 L 30.3 72.8 L 26.7 74.0 L 23.3 75.0 L 21.204740619659425 75.72024536132812 L 19.5 79.6 L 17.0 77.0 L 12.9 65.6 Z M 180.6638298034668 49.034042549133304 L 180.4 49.1 L 177.6 49.4 L 174.6 49.7 L 171.4 50.0 L 168.2 50.2 L 164.7 50.4 L 161.1 50.6 L 157.3 50.7 L 153.4 50.8 L 151.0 50.741463375091556 L 151.0 61.5 L 151.2 62.4 L 151.4 63.0 L 151.5 63.4 L 151.7 63.5 L 151.9 63.7 L 152.2 63.9 L 152.8 64.1 L 153.7 64.2 L 155.0 64.3 L 177.0 64.3 Z M 127.0 12.9 L 130.0 14.9 L 127.0 16.7 L 127.0 20.8 L 167.8181818008423 20.8 L 176.0 11.8 L 186.0 20.8 L 186.0 24.8 L 127.0 24.8 L 127.0 37.1 L 115.0 43.1 L 115.0 37.1 L 85.0 37.1 L 76.1 41.55 L 87.0 47.0 L 113.0 47.0 L 119.0 42.0 L 130.0 51.0 L 125.0 55.0 L 125.0 68.8 L 113.0 74.8 L 113.0 68.8 L 87.0 68.8 L 75.0 74.8 L 75.0 42.1 L 73.0 43.1 L 73.0 24.8 L 14.0 24.8 L 14.0 20.8 L 73.0 20.8 L 73.0 10.9 L 85.0 12.9 L 88.0 14.9 L 85.0 16.7 L 85.0 20.8 L 115.0 20.8 L 115.0 10.9 Z M 87.0 51.0 L 87.0 64.8 L 113.0 64.8 L 113.0 51.0 Z M 85.0 24.8 L 85.0 33.1 L 115.0 33.1 L 115.0 24.8 Z M 189.0 70.3 L 186.6 73.9 L 183.0 76.3 L 155.0 76.3 L 152.4 76.2 L 149.9 75.7 L 147.5 74.9 L 145.2 73.7 L 143.2 72.0 L 141.6 70.0 L 140.3 67.8 L 139.5 65.3 L 139.1 62.9 L 139.0 60.3 L 139.0 32.2 L 151.0 34.2 L 154.0 36.2 L 151.0 38.0 L 151.0 47.03157892227173 L 152.6 46.4 L 156.3 45.1 L 159.8 43.9 L 163.2 42.8 L 166.4 41.6 L 169.4 40.6 L 172.3 39.5 L 175.0 38.5 L 176.6470588684082 37.84117650985718 L 176.6 37.7 L 176.7297297477722 37.80810813903808 L 177.5 37.5 L 177.8 38.7 L 182.25333337783815 42.41111106872559 L 183.0 39.3 L 185.0 39.3 L 184.5949999809265 44.3625 L 188.0 47.2 L 188.4 50.3 L 184.27580299377442 48.352462482452395 L 183.0 64.3 L 186.6 66.7 Z " />
</g>
</svg>
