<svg xmlns="http://www.w3.org/2000/svg" xmlns:xlink="http://www.w3.org/1999/xlink" version="1.1" baseProfile="full" viewBox="0 0 200 200" width="200" height="200">
<g fill="black">
<path d="M 156.0 17.9 L 159.0 19.9 L 156.0 21.7 L 156.0 128.202330493927 L 164.95821285247803 126.50368633270264 L 172.9 114.8 L 186.6 122.4 L 187.3 126.3 L 156.0 132.23506355285645 L 156.0 185.0 L 144.0 191.0 L 144.0 134.5104872703552 L 92.9 144.2 L 92.2 140.3 L 144.0 130.47775421142578 L 144.0 15.9 Z M 84.2 105.9 L 82.3 103.5 L 80.1 101.1 L 77.5 98.7 L 74.7 96.3 L 71.6 94.0 L 68.3 91.7 L 66.0 90.20810813903809 L 66.0 109.0 L 54.0 115.0 L 54.0 112.60714282989503 L 52.27592191696167 113.13052368164062 L 51.4 115.8 L 49.30322580337524 121.0 L 74.0 121.0 L 80.0 116.0 L 91.0 125.0 L 86.0 128.0 L 83.91656446456909 128.86809816360474 L 81.4 134.8 L 76.4 143.9 L 72.6897141456604 149.20954694747925 L 75.0 150.9 L 78.9 154.0 L 82.7 157.3 L 86.4 160.7 L 87.9 165.0 L 86.0 169.2 L 81.6 170.7 L 77.5 168.7 L 74.6 165.2 L 71.6 161.7 L 68.4 158.4 L 66.7276596069336 156.7276596069336 L 64.1 159.8 L 56.8 166.6 L 48.8 172.6 L 40.2 177.7 L 30.9 182.0 L 20.9 185.4 L 10.2 187.8 L 9.7 186.1 L 19.5 181.8 L 28.6 177.2 L 36.8 172.1 L 44.3 166.5 L 51.1 160.3 L 57.1 153.6 L 59.63628730773926 150.15447759628296 L 58.0 148.7 L 54.3 145.6 L 50.5 142.5 L 46.5 139.4 L 42.4 136.2 L 43.2 134.6 L 48.3 136.1 L 53.1 138.0 L 57.8 140.2 L 62.3 142.5 L 64.09071941375733 143.55815238952636 L 67.1 138.5 L 71.0 130.1 L 72.84945058822632 125.0 L 47.45 125.0 L 46.0 128.0 L 42.7 133.8 L 39.0 139.4 L 34.9 144.8 L 30.5 149.9 L 25.6 154.8 L 20.3 159.4 L 14.6 163.6 L 13.3 162.3 L 17.6 156.8 L 21.6 151.3 L 25.3 145.9 L 28.7 140.5 L 31.8 135.0 L 34.5 129.4 L 36.8 123.8 L 38.9 118.1 L 40.5 112.3 L 41.67953214645386 107.41336679458618 L 41.6 107.4 L 42.3 104.7 L 53.5 109.4 L 54.0 109.91999998092652 L 54.0 87.87272729873658 L 53.2 88.8 L 48.5 93.8 L 43.5 98.7 L 38.1 103.3 L 32.3 107.8 L 26.1 112.1 L 19.5 116.0 L 12.4 119.7 L 11.5 118.2 L 17.3 113.0 L 22.8 107.8 L 28.0 102.8 L 32.9 97.8 L 37.4 92.7 L 41.6 87.7 L 45.4 82.6 L 48.9 77.4 L 52.0 72.3 L 54.0 68.3740740776062 L 54.0 42.0 L 14.0 42.0 L 14.0 38.0 L 54.0 38.0 L 54.0 12.0 L 66.0 14.0 L 69.0 16.0 L 66.0 17.8 L 66.0 38.0 L 79.0 38.0 L 89.0 28.0 L 101.0 38.0 L 101.0 42.0 L 66.0 42.0 L 66.0 86.5666666984558 L 70.2 87.5 L 74.3 88.8 L 78.3 90.4 L 82.0 92.1 L 85.5 94.1 L 88.8 96.3 L 91.8 98.7 L 94.6 101.3 L 97.2 104.1 L 98.1 108.6 L 95.6 112.4 L 91.2 113.3 L 87.3 110.9 L 85.9 108.4 Z M 114.7 105.7 L 113.1 103.0 L 111.4 100.4 L 109.6 97.7 L 107.6 95.0 L 105.5 92.2 L 103.3 89.4 L 100.9 86.5 L 99.14994096755981 84.81475801467896 L 96.9 86.8 L 92.3 86.4 L 89.3 83.0 L 89.2 81.5 L 88.9 79.9 L 88.5 78.2 L 87.9 76.5 L 87.2 74.7 L 86.2 72.9 L 85.1 71.0 L 83.7 69.0 L 82.3 66.9 L 81.88400001525879 66.56719999313354 L 80.1 69.6 L 77.8 73.0 L 75.3 76.3 L 69.7 82.5 L 68.2 81.4 L 70.0 77.7 L 71.4 74.0 L 72.6 70.3 L 73.8 66.7 L 74.7 63.2 L 75.5 59.8 L 76.1 56.4 L 76.6 53.0 L 76.8 49.6 L 76.86964416503906 47.30174112319946 L 76.8 47.3 L 77.1 44.2 L 88.8 47.6 L 91.6 49.9 L 87.8415428161621 51.60194282531738 L 86.8 55.2 L 85.5 59.0 L 83.9 62.6 L 82.85932207107544 64.68135595321655 L 83.6 65.1 L 86.1 66.1 L 88.4 67.3 L 90.6 68.6 L 92.7 70.0 L 94.6 71.6 L 96.4 73.3 L 98.0 75.1 L 99.4 77.1 L 100.7 79.2 L 100.36975612640381 82.9978048324585 L 102.7 84.3 L 106.1 86.1 L 109.3 88.0 L 112.3 90.1 L 115.2 92.3 L 118.0 94.6 L 120.6 97.0 L 125.4 102.0 L 127.5 104.7 L 128.2 109.2 L 125.6 113.0 L 121.0 113.6 L 117.3 111.0 L 116.1 108.4 Z M 37.5 72.2 L 37.4 71.1 L 37.1 69.9 L 36.6 68.6 L 36.0 67.1 L 35.2 65.7 L 34.779812240600585 65.02769956588745 L 32.9 69.3 L 30.5 74.0 L 27.8 78.4 L 24.7 82.5 L 21.4 86.3 L 17.6 89.7 L 13.6 92.6 L 12.3 91.3 L 14.8 87.2 L 17.1 83.1 L 19.2 79.0 L 21.1 74.8 L 22.8 70.4 L 24.3 65.9 L 25.5 61.2 L 26.5 56.4 L 27.3 51.4 L 27.786227703094482 47.10498838424682 L 27.7 47.1 L 28.1 44.1 L 39.8 47.8 L 42.5 50.2 L 38.919985675811766 51.65852432250976 L 38.5 53.5 L 36.9 59.0 L 36.126044273376465 61.278869819641116 L 36.2 61.3 L 38.1 62.0 L 40.0 62.8 L 41.7 63.7 L 43.3 64.7 L 44.9 65.9 L 46.3 67.1 L 47.6 68.6 L 48.7 70.2 L 48.3 74.8 L 44.9 77.8 L 40.3 77.4 L 37.3 74.0 L 37.5 73.2 Z M 121.2 61.9 L 119.6 59.3 L 118.0 56.6 L 116.1 53.9 L 114.1 51.2 L 112.0 48.5 L 109.8 45.7 L 107.4 42.8 L 104.7 40.1 L 105.8 38.6 L 109.2 40.5 L 112.6 42.3 L 115.8 44.3 L 118.8 46.3 L 121.7 48.5 L 124.5 50.8 L 127.1 53.2 L 129.6 55.7 L 131.9 58.3 L 134.1 60.9 L 134.7 65.5 L 132.1 69.2 L 127.6 69.8 L 123.8 67.2 L 122.6 64.6 Z " />
</g>
</svg>
