<svg xmlns="http://www.w3.org/2000/svg" xmlns:xlink="http://www.w3.org/1999/xlink" version="1.1" baseProfile="full" viewBox="0 0 200 200" width="200" height="200">
<g fill="black">
<path d="M 51.7 92.0 L 54.2 94.6 L 50.61199998855591 95.92888889312744 L 49.9 98.5 L 47.6 104.9 L 46.7 107.0 L 72.0 107.0 L 78.0 102.0 L 89.0 111.0 L 84.0 114.0 L 82.1777777671814 114.75925922393799 L 79.5 121.9 L 74.7 132.3 L 69.2 142.1 L 63.0 151.1 L 60.67712669372558 153.93527183532714 L 61.1 154.3 L 71.4 160.1 L 84.7 164.9 L 101.3 168.6 L 122.0 171.1 L 147.0 172.3 L 176.9 172.4 L 188.7 172.2 L 177.0 185.5 L 146.6 184.9 L 120.8 182.8 L 99.3 179.4 L 81.6 174.7 L 67.3 168.5 L 56.0 160.9 L 55.366730499267575 160.24437980651857 L 48.7 167.0 L 40.6 173.7 L 31.8 179.6 L 22.4 184.7 L 12.3 188.8 L 11.6 187.1 L 20.5 181.4 L 28.7 175.2 L 36.4 168.7 L 43.3 161.6 L 49.5301025390625 154.20175323486328 L 47.5 152.1 L 41.5 142.0 L 37.6 131.1 L 36.530540466308594 125.52021102905273 L 34.0 129.1 L 29.4 134.8 L 24.3 140.3 L 18.7 145.6 L 12.6 150.6 L 11.3 149.3 L 15.9 143.0 L 20.2 136.9 L 24.1 130.9 L 27.6 125.0 L 30.7 119.1 L 33.4 113.2 L 35.6 107.4 L 37.5 101.5 L 38.9 95.7 L 39.730000019073486 90.80299997329712 L 39.7 90.8 L 40.01034479141235 89.0 L 13.0 89.0 L 13.0 85.0 L 48.0 85.0 L 48.0 65.0 L 21.0 65.0 L 21.0 61.0 L 48.0 61.0 L 48.0 41.0 L 17.0 41.0 L 17.0 37.0 L 48.0 37.0 L 48.0 12.0 L 60.0 14.0 L 63.0 16.0 L 60.0 17.8 L 60.0 37.0 L 69.0 37.0 L 79.0 27.0 L 91.0 37.0 L 91.0 41.0 L 60.0 41.0 L 60.0 61.0 L 70.81818180084228 61.0 L 79.0 52.0 L 89.0 61.0 L 89.0 65.0 L 60.0 65.0 L 60.0 85.0 L 76.81818180084228 85.0 L 85.0 76.0 L 95.0 85.0 L 95.0 89.0 L 43.28536586761474 89.0 Z M 108.3 150.7 L 128.3 150.7 L 129.5 150.6 L 130.4 150.4 L 131.3 150.1 L 131.7 149.7 L 132.0 148.8 L 132.2 147.9 L 132.3 146.7 L 132.3 98.3 L 100.0 98.3 L 100.0 94.3 L 159.0 94.3 L 169.0 84.3 L 181.0 94.3 L 181.0 98.3 L 144.3 98.3 L 144.3 146.7 L 144.1 149.2 L 143.7 151.7 L 142.9 154.1 L 141.7 156.4 L 140.0 158.4 L 138.0 160.0 L 135.7 161.3 L 133.3 162.1 L 130.8 162.5 L 128.3 162.7 L 128.3 156.7 L 108.3 153.7 Z M 122.4 117.5 L 124.4 120.5 L 120.50738258361817 120.96979866027831 L 120.0 121.9 L 117.4 126.3 L 114.6 130.6 L 111.6 134.8 L 108.4 138.9 L 105.0 142.9 L 101.4 146.8 L 97.5 150.5 L 93.3 154.0 L 88.9 157.3 L 87.6 156.0 L 90.5 151.4 L 96.3 142.6 L 98.9 138.3 L 101.5 134.1 L 103.8 129.8 L 106.0 125.5 L 108.0 121.3 L 109.8 117.0 L 111.05776329040528 113.61976108551025 L 111.0 113.6 L 111.35897436141968 112.81025638580323 L 111.4 112.7 L 111.40758619308471 112.70331029891967 L 112.0 111.4 Z M 170.5 143.0 L 168.8 139.3 L 167.0 135.7 L 165.1 132.2 L 163.1 128.6 L 160.9 125.1 L 158.7 121.7 L 156.4 118.1 L 153.8 114.6 L 155.1 113.3 L 158.7 115.8 L 162.2 118.4 L 165.5 121.2 L 168.7 124.2 L 171.7 127.4 L 174.5 130.8 L 177.2 134.2 L 179.7 137.9 L 182.1 141.6 L 184.3 145.5 L 184.4 150.1 L 181.4 153.4 L 176.8 153.5 L 173.4 150.4 L 172.0 146.7 Z M 44.98571424484253 111.0 L 44.9 111.2 L 41.7 117.3 L 38.6039999961853 122.46000003814697 L 41.5 129.7 L 46.7 139.2 L 53.1 147.4 L 53.84259033203125 148.04048414230346 L 55.4 145.8 L 60.5 137.1 L 65.0 127.7 L 68.9 117.8 L 71.01698112487793 111.0 Z M 168.3 66.3 L 168.3 70.3 L 111.9 70.3 L 111.9 66.3 L 146.3 66.3 L 156.3 56.3 Z M 98.8 65.0 L 95.7 61.7 L 95.8 57.1 L 97.1 54.9 L 98.3 52.7 L 99.3 50.3 L 100.2 47.7 L 100.9 45.1 L 101.5 42.3 L 102.0 39.3 L 102.3 36.2 L 102.5 32.9 L 102.1 29.5 L 103.9 29.0 L 105.1 32.4 L 106.4 35.6 L 106.43030300140381 35.7 L 132.3 35.7 L 132.3 12.9 L 144.3 14.9 L 147.3 16.9 L 144.3 18.7 L 144.3 35.7 L 172.3 35.7 L 178.3 30.7 L 189.3 39.7 L 184.3 42.7 L 182.136909866333 43.60128755569458 L 182.0 43.9 L 180.7 46.4 L 177.9 51.2 L 176.3 53.5 L 174.6 55.8 L 172.8 58.1 L 170.8 60.3 L 169.1 62.7 L 167.5 61.9 L 168.6 59.2 L 169.2 56.3 L 169.9 53.6 L 170.5 50.9 L 171.0 48.4 L 171.4 45.8 L 171.8 43.4 L 172.1 41.0 L 172.2083333015442 39.7 L 107.56969699859619 39.7 L 108.1 42.2 L 108.5 45.5 L 108.7 48.8 L 108.6 52.2 L 108.3 55.5 L 107.6 58.8 L 106.7 62.0 L 103.4 65.1 Z " />
</g>
</svg>
