<svg xmlns="http://www.w3.org/2000/svg" xmlns:xlink="http://www.w3.org/1999/xlink" version="1.1" baseProfile="full" viewBox="0 0 200 200" width="200" height="200">
<g fill="black">
<path d="M 164.5 182.4 L 159.0 178.0 L 154.3 172.6 L 150.5 166.3 L 147.5 159.4 L 145.2 151.6 L 144.83999996185304 149.43999996185303 L 144.5 150.8 L 141.1 159.7 L 136.9 167.6 L 131.8 174.3 L 125.8 179.9 L 119.1 184.2 L 111.7 187.2 L 103.7 188.8 L 103.2 187.1 L 110.2 183.7 L 116.3 179.7 L 121.4 175.0 L 125.8 169.6 L 129.5 163.3 L 132.5 156.2 L 134.8 148.1 L 136.4 139.1 L 137.3 129.0 L 137.4 117.9 L 137.4 115.5 L 149.4 118.0 L 152.4 120.0 L 149.13380031585694 121.95971975326538 L 148.6 129.9 L 147.80020685195922 135.34859066009523 L 149.6 142.0 L 152.2 149.5 L 152.85290803909302 150.98592872619628 L 153.2 150.5 L 154.8 147.4 L 158.0 141.6 L 159.5 138.8 L 161.0 136.1 L 162.3 133.4 L 164.9 128.2 L 165.62110738754274 126.56111965179443 L 165.5 126.5 L 166.5 124.8 L 176.2 131.9 L 177.7 135.2 L 173.4782608985901 135.2 L 170.1 138.9 L 167.9 141.2 L 165.6 143.5 L 163.2 145.7 L 160.7 148.0 L 158.0 150.2 L 155.2 152.3 L 153.91229076385497 153.39693756103514 L 155.1 156.1 L 158.5 161.6 L 162.2 166.1 L 166.2 169.6 L 170.6 172.3 L 175.3 174.3 L 180.6 175.5 L 189.5 177.5 L 177.7 188.4 L 170.8 185.9 Z M 52.3 158.9 L 53.7 162.3 L 49.710810852050784 162.02488346099852 L 49.4 162.4 L 46.3 165.8 L 42.9 169.0 L 39.3 172.1 L 35.5 175.1 L 31.4 178.0 L 27.1 180.7 L 22.6 183.2 L 17.8 185.5 L 12.7 187.7 L 11.7 186.1 L 15.8 182.5 L 19.6 179.0 L 23.3 175.6 L 26.7 172.2 L 29.9 168.9 L 32.9 165.6 L 35.6 162.2 L 38.1 158.9 L 40.4 155.5 L 41.88589878082276 153.04826698303222 L 41.8 153.0 L 42.9 151.5 Z M 83.0 177.4 L 81.8 175.0 L 80.4 172.4 L 78.5 169.7 L 76.3 167.0 L 73.7 164.1 L 70.7 161.1 L 67.4 158.0 L 63.6 155.0 L 64.5 153.4 L 69.0 155.5 L 73.3 157.4 L 77.2 159.5 L 80.8 161.8 L 84.1 164.2 L 87.0 166.7 L 89.7 169.3 L 92.0 172.1 L 94.0 175.1 L 95.6 178.2 L 95.1 182.7 L 91.7 185.7 L 87.1 185.3 L 84.1 181.8 L 83.7 179.7 Z M 31.5 156.7 L 19.5 162.7 L 19.5 86.4 L 31.5 92.4 L 50.1 92.4 L 50.1 75.3 L 12.2 75.3 L 12.2 71.3 L 87.91818180084229 71.3 L 96.1 62.3 L 106.1 71.3 L 106.1 75.3 L 62.1 75.3 L 62.1 92.4 L 80.7 92.4 L 86.7 87.4 L 97.7 96.4 L 92.7 100.4 L 92.7 144.7 L 80.7 150.7 L 80.7 144.7 L 31.5 144.7 Z M 111.7 160.0 L 110.0 155.8 L 111.8 151.6 L 113.2 150.6 L 114.6 149.4 L 116.0 147.7 L 117.4 145.7 L 118.8 143.3 L 120.1 140.5 L 121.4 137.4 L 122.6 133.9 L 123.8 130.1 L 124.6 125.9 L 126.4 126.0 L 126.5 130.3 L 126.8 134.5 L 126.8 138.4 L 126.5 142.1 L 126.1 145.6 L 125.4 148.9 L 124.5 152.0 L 123.3 154.9 L 121.9 157.7 L 120.1 160.2 L 115.9 161.8 Z M 31.5 120.5 L 31.5 140.7 L 50.1 140.7 L 50.1 120.5 Z M 62.1 120.5 L 62.1 140.7 L 80.7 140.7 L 80.7 120.5 Z M 31.5 96.4 L 31.5 116.5 L 50.1 116.5 L 50.1 96.4 Z M 62.1 96.4 L 62.1 116.5 L 80.7 116.5 L 80.7 96.4 Z M 124.4 99.3 L 137.7 99.3 L 138.6 99.1 L 139.2 98.9 L 139.5 98.7 L 139.7 98.6 L 139.8 98.4 L 140.0 98.1 L 140.2 97.5 L 140.4 96.6 L 140.4 57.6 L 106.1 57.6 L 106.1 53.6 L 140.4 53.6 L 140.4 27.1 L 114.8 27.1 L 114.8 23.1 L 155.2 23.1 L 165.2 13.1 L 177.2 23.1 L 177.2 27.1 L 152.4 27.1 L 152.4 53.6 L 164.8 53.6 L 174.8 43.6 L 186.8 53.6 L 186.8 57.6 L 152.4 57.6 L 152.4 95.3 L 152.3 97.9 L 151.9 100.4 L 151.0 102.8 L 149.8 105.0 L 148.2 107.1 L 146.2 108.7 L 143.9 109.9 L 141.5 110.7 L 139.0 111.2 L 136.4 111.3 L 136.4 105.3 L 124.4 102.3 Z M 79.4 14.0 L 82.4 16.0 L 79.4 17.8 L 79.4 33.1 L 83.81818180084228 33.1 L 92.0 24.1 L 102.0 33.1 L 102.0 37.1 L 79.4 37.1 L 79.4 59.2 L 67.4 65.2 L 67.4 59.2 L 44.7 59.2 L 32.7 65.2 L 32.7 37.1 L 14.3 37.1 L 14.3 33.1 L 32.7 33.1 L 32.7 12.0 L 44.7 14.0 L 47.7 16.0 L 44.7 17.8 L 44.7 33.1 L 67.4 33.1 L 67.4 12.0 Z M 44.7 37.1 L 44.7 55.2 L 67.4 55.2 L 67.4 37.1 Z " />
</g>
</svg>
