<svg xmlns="http://www.w3.org/2000/svg" xmlns:xlink="http://www.w3.org/1999/xlink" version="1.1" baseProfile="full" viewBox="0 0 200 200" width="200" height="200">
<g fill="black">
<path d="M 72.0 177.3 L 92.0 177.3 L 93.2 177.2 L 94.1 177.0 L 95.0 176.7 L 95.4 176.3 L 95.7 175.4 L 95.9 174.5 L 96.0 173.3 L 96.0 132.2 L 108.0 134.2 L 111.0 136.2 L 108.0 138.0 L 108.0 173.3 L 107.8 175.8 L 107.4 178.3 L 106.6 180.7 L 105.3 183.0 L 103.7 185.0 L 101.7 186.6 L 99.4 187.9 L 97.0 188.7 L 94.5 189.1 L 92.0 189.3 L 92.0 183.3 L 72.0 180.3 Z M 25.7 174.6 L 31.5 173.6 L 37.5 172.5 L 43.7 171.4 L 50.0 170.2 L 56.4 169.0 L 62.9 167.7 L 69.6 166.5 L 76.5 165.2 L 83.5 164.0 L 90.7 162.9 L 91.2 164.6 L 84.5 167.6 L 77.9 170.3 L 71.4 172.8 L 64.9 175.1 L 58.5 177.2 L 52.2 179.3 L 46.1 181.2 L 40.0 183.0 L 34.0 184.7 L 32.19815559387207 185.19706048965455 L 30.8 188.8 L 28.2 186.3 L 23.7 175.0 Z M 159.9 129.0 L 152.0 126.3 L 144.5 123.4 L 137.4 120.3 L 130.7 116.9 L 124.4 113.3 L 118.5 109.5 L 113.1 105.3 L 109.03043479919434 101.4 L 108.0 101.4 L 108.0 119.2 L 106.94769229888917 119.72615385055542 L 107.74097938537598 120.55721645355224 L 108.5 120.9 L 114.9 123.6 L 121.6 126.3 L 128.6 128.9 L 136.0 131.2 L 143.8 133.4 L 152.0 135.5 L 160.6 137.3 L 169.6 138.9 L 179.1 140.3 L 188.7 142.0 L 176.8 153.4 L 167.1 151.2 L 157.8 148.8 L 151.2835913658142 146.80064735412597 L 151.9829414367676 147.87086486816406 L 156.3 152.5 L 156.4 156.0 L 152.41449756622313 154.36309719085693 L 147.6 156.4 L 144.9 157.5 L 142.1 158.6 L 139.3 159.6 L 136.4 160.5 L 133.4 161.4 L 132.87333335876465 161.53591394424438 L 136.7 162.4 L 142.7 164.0 L 148.6 165.8 L 154.4 167.7 L 160.1 169.9 L 165.7 172.1 L 171.1 174.6 L 174.0 178.2 L 173.6 182.7 L 170.0 185.6 L 165.5 185.2 L 160.6 182.3 L 155.7 179.6 L 145.3 174.4 L 139.9 172.0 L 134.3 169.6 L 128.6 167.3 L 122.8 165.0 L 116.8 162.7 L 110.7 160.3 L 111.1 158.5 L 117.7 159.0 L 124.2 159.9 L 128.06728076934814 160.57523946762086 L 129.1 159.9 L 131.5 157.8 L 133.8 155.8 L 138.4 152.0 L 140.6 150.2 L 142.7 148.3 L 144.8 146.5 L 146.41138610839843 145.1955445289612 L 140.7 143.2 L 132.8 140.0 L 125.4 136.6 L 118.5 132.8 L 112.1 128.8 L 106.50268821716308 124.55376348495483 L 106.14967594146728 124.4051266670227 L 99.2 128.3 L 90.1 132.9 L 80.8 137.2 L 71.4 141.2 L 61.8 144.7 L 61.35994815826416 144.8451717376709 L 66.2 146.1 L 68.7 147.0 L 71.1 147.9 L 73.4 149.0 L 77.8 151.4 L 79.7 155.6 L 78.2 159.9 L 74.0 161.8 L 69.7 160.3 L 68.6 158.8 L 67.3 157.3 L 65.9 155.7 L 64.3 154.2 L 62.6 152.6 L 60.7 151.0 L 58.7 149.4 L 56.5 147.8 L 55.28513298034668 146.84923448562623 L 52.1 147.9 L 42.3 150.7 L 32.4 153.1 L 22.3 154.9 L 12.1 156.2 L 11.8 154.4 L 21.4 151.2 L 30.9 147.9 L 40.3 144.5 L 49.6 140.8 L 58.7 136.9 L 67.6 132.7 L 76.4 128.2 L 85.1 123.4 L 93.6 118.4 L 96.0 116.83855419158935 L 96.0 107.63529415130616 L 94.6 108.5 L 87.4 112.5 L 79.7 116.1 L 71.7 119.6 L 63.3 122.7 L 54.5 125.5 L 45.2 128.1 L 35.6 130.3 L 25.6 132.1 L 15.1 133.4 L 14.8 131.7 L 24.7 128.4 L 34.2 125.1 L 43.3 121.8 L 51.9 118.4 L 60.1 114.8 L 67.9 111.1 L 75.2 107.2 L 82.1 103.1 L 84.62702703475952 101.4 L 19.0 101.4 L 19.0 97.4 L 96.0 97.4 L 96.0 88.68620691299438 L 87.1 89.3 L 75.3 90.0 L 63.2 90.6 L 50.8 91.0 L 38.0 91.2 L 37.9 89.4 L 50.4 87.2 L 62.7 85.3 L 74.7 83.5 L 86.4 81.8 L 97.7 80.1 L 108.8 78.5 L 119.6 76.9 L 130.1 75.3 L 140.3 73.7 L 150.2 72.1 L 150.34426078796386 73.24446926116943 L 161.8 82.7 L 162.2 85.7 L 157.63318386077881 83.23632287979126 L 151.7 84.0 L 141.7 85.0 L 131.4 85.9 L 120.8 86.8 L 109.9 87.7 L 108.0 87.83571424484253 L 108.0 97.4 L 162.0 97.4 L 172.0 87.4 L 184.0 97.4 L 184.0 101.4 L 114.37692308425903 101.4 L 115.3 101.8 L 121.4 104.3 L 127.6 106.9 L 134.1 109.3 L 140.9 111.6 L 147.9 113.8 L 155.3 115.8 L 163.0 117.7 L 171.0 119.4 L 179.3 120.9 L 188.4 122.8 L 176.6 133.8 L 168.0 131.5 Z M 83.5 65.0 L 79.7 63.2 L 75.3 61.4 L 71.45629777908326 60.01626720428467 L 66.9 62.9 L 58.2 67.2 L 48.5 70.7 L 37.9 73.6 L 26.5 75.6 L 14.1 76.8 L 13.8 75.1 L 25.7 71.9 L 36.5 68.4 L 46.2 64.6 L 54.9 60.3 L 60.81791114807129 56.71810636520386 L 58.6 56.1 L 51.9 54.4 L 44.6 52.5 L 43.157708740234376 52.14867267608643 L 38.6 60.1 L 25.3 59.4 L 41.67885837554932 30.6 L 15.0 30.6 L 15.0 26.6 L 43.9536997795105 26.6 L 52.2 12.1 L 61.7 19.8 L 63.3 23.0 L 59.547062397003174 23.555990791320802 L 57.80223321914673 26.6 L 85.0 26.6 L 91.0 21.6 L 102.0 30.6 L 97.0 33.6 L 94.63187246322632 34.586719799041745 L 92.7 38.5 L 87.7 45.7 L 81.7 52.2 L 80.5749397277832 53.129397583007815 L 83.0 53.7 L 87.6 55.1 L 91.8 56.7 L 95.6 58.5 L 98.2 62.2 L 97.5 66.8 L 93.7 69.3 L 89.2 68.6 L 86.7 66.8 Z M 159.9 69.5 L 151.8 66.1 L 144.4 62.0 L 141.53787364959717 60.034958076477054 L 133.7 64.0 L 124.7 67.6 L 115.1 70.3 L 104.8 72.2 L 94.1 73.2 L 93.8 71.5 L 104.0 68.5 L 113.5 65.2 L 122.2 61.5 L 130.3 57.3 L 134.50848426818848 54.62704372406006 L 131.6 52.1 L 126.3 46.3 L 121.8 40.0 L 118.2 33.1 L 115.87733335494995 26.4 L 103.0 26.4 L 103.0 22.4 L 164.0 22.4 L 164.23947372436524 22.200438594818117 L 164.7 21.4 L 164.99863481521606 21.56780433654785 L 170.0 17.4 L 181.0 26.4 L 176.0 29.4 L 172.93411417007445 30.67745237350464 L 169.9 35.2 L 164.0 42.4 L 157.3 48.9 L 151.15284147262574 53.85187768936157 L 156.2 55.9 L 163.6 58.3 L 171.5 60.2 L 180.1 61.6 L 189.7 63.3 L 177.8 74.7 L 168.6 72.4 Z M 55.5094292640686 30.6 L 45.07717123031616 48.8 L 45.1 48.8 L 52.7 49.1 L 59.7 49.6 L 66.3 50.4 L 68.73719673156738 50.80619945526123 L 69.0 50.6 L 74.6 45.2 L 79.1 39.3 L 82.7 33.1 L 83.6848484992981 30.6 Z M 118.35 26.4 L 121.8 30.9 L 126.5 36.4 L 131.6 41.4 L 137.1 45.8 L 142.11588201522827 49.172748279571536 L 144.4 47.4 L 150.4 41.7 L 155.8 35.5 L 160.5 28.7 L 161.82328767776488 26.4 Z " />
</g>
</svg>
