<svg xmlns="http://www.w3.org/2000/svg" xmlns:xlink="http://www.w3.org/1999/xlink" version="1.1" baseProfile="full" viewBox="0 0 200 200" width="200" height="200">
<g fill="black">
<path d="M 168.1 175.2 L 164.0 171.4 L 160.1 167.3 L 156.4 162.8 L 153.0 158.0 L 149.8 152.9 L 146.8 147.4 L 145.0 143.31538457870482 L 145.0 183.0 L 133.0 189.0 L 133.0 147.63953485488892 L 131.9 149.2 L 127.3 154.8 L 122.4 160.1 L 117.2 165.0 L 111.7 169.5 L 105.8 173.5 L 99.7 177.1 L 93.3 180.2 L 86.5 182.8 L 85.7 181.1 L 91.4 176.9 L 96.7 172.7 L 101.9 168.3 L 106.7 163.7 L 111.2 158.9 L 115.5 153.9 L 119.4 148.6 L 123.0 143.1 L 126.4 137.3 L 127.03030300140381 136.0 L 93.6 136.0 L 93.6 132.0 L 133.0 132.0 L 133.0 113.0 L 144.2 114.86666669845582 L 144.2 65.1 L 155.2 70.6 L 171.0 70.6 L 177.0 65.6 L 188.0 74.6 L 183.0 78.6 L 183.0 108.3 L 171.0 114.3 L 171.0 104.3 L 155.2 104.3 L 155.2 111.3 L 146.2 115.8 L 148.0 117.0 L 145.0 118.8 L 145.0 132.0 L 164.0 132.0 L 174.0 122.0 L 186.0 132.0 L 186.0 136.0 L 145.0 136.0 L 145.0 136.0666666984558 L 147.8 139.4 L 151.7 144.2 L 155.6 148.6 L 159.5 152.8 L 163.4 156.5 L 167.3 160.0 L 171.2 163.0 L 175.2 165.7 L 179.2 168.1 L 183.3 170.2 L 188.2 172.8 L 177.0 181.7 L 172.4 178.6 Z M 77.2 105.7 L 75.6 103.3 L 73.6 100.9 L 71.4 98.5 L 69.0 96.2 L 66.3 93.9 L 63.3 91.6 L 62.0 90.625 L 62.0 109.0 L 50.0 115.0 L 50.0 112.96071424484253 L 49.58287839889526 113.09478912353515 L 48.8 115.6 L 46.88387098312378 121.0 L 68.0 121.0 L 74.0 116.0 L 85.0 125.0 L 80.0 128.0 L 78.0858006477356 128.79758310317993 L 75.8 134.6 L 71.3 143.7 L 67.78537111282348 149.30988845825195 L 70.0 151.0 L 73.5 154.1 L 77.0 157.4 L 80.3 160.8 L 81.6 165.2 L 79.4 169.3 L 75.0 170.5 L 71.0 168.4 L 68.5 164.9 L 65.8 161.5 L 63.0 158.1 L 62.11908597946167 157.12795696258544 L 60.2 159.6 L 53.6 166.4 L 46.3 172.4 L 38.5 177.6 L 30.0 182.0 L 20.9 185.4 L 11.2 187.8 L 10.7 186.1 L 19.4 181.9 L 27.5 177.2 L 34.8 172.2 L 41.5 166.6 L 47.5 160.5 L 52.9 153.8 L 55.38823528289795 149.98823528289796 L 53.9 148.5 L 50.7 145.5 L 47.3 142.4 L 43.8 139.3 L 40.2 136.2 L 41.1 134.6 L 45.6 136.3 L 50.0 138.2 L 54.3 140.3 L 58.4 142.7 L 59.34637813568115 143.31514577865602 L 61.8 138.7 L 65.3 130.3 L 66.98901100158692 125.0 L 45.160000038146975 125.0 L 43.9 127.8 L 40.9 133.6 L 37.6 139.2 L 33.9 144.6 L 29.8 149.8 L 25.4 154.7 L 20.5 159.3 L 15.2 163.6 L 13.9 162.3 L 17.6 156.8 L 21.1 151.4 L 24.4 146.0 L 27.4 140.6 L 30.1 135.1 L 32.5 129.6 L 34.6 124.0 L 36.4 118.3 L 37.9 112.5 L 39.1 106.6 L 39.11363639831543 106.60303030014038 L 39.5 104.8 L 50.0 108.88849554061889 L 50.0 89.19302330017089 L 46.2 93.7 L 41.6 98.5 L 36.6 103.2 L 31.4 107.7 L 25.7 112.0 L 19.7 116.0 L 13.3 119.7 L 12.2 118.2 L 17.3 113.0 L 22.2 107.9 L 26.9 102.9 L 31.2 97.9 L 35.2 92.9 L 38.9 87.8 L 42.3 82.8 L 45.4 77.6 L 48.1 72.5 L 50.0 68.54799995422363 L 50.0 42.0 L 14.6 42.0 L 14.6 38.0 L 50.0 38.0 L 50.0 12.0 L 62.0 14.0 L 65.0 16.0 L 62.0 17.8 L 62.0 38.0 L 70.9 38.0 L 80.9 28.0 L 92.9 38.0 L 92.9 42.0 L 62.0 42.0 L 62.0 86.775 L 65.3 87.6 L 69.1 88.9 L 72.7 90.5 L 76.1 92.3 L 79.3 94.3 L 82.3 96.4 L 85.1 98.8 L 87.7 101.4 L 90.1 104.2 L 90.8 108.8 L 88.1 112.5 L 83.6 113.2 L 79.9 110.6 L 78.7 108.1 Z M 107.3 70.6 L 124.1 70.6 L 129.6 65.6 L 140.1 74.6 L 135.1 78.1 L 135.1 104.3 L 124.1 109.8 L 124.1 104.3 L 107.3 104.3 L 107.3 111.3 L 95.3 117.3 L 95.3 64.6 Z M 155.2 74.6 L 155.2 100.3 L 171.0 100.3 L 171.0 74.6 Z M 107.3 74.6 L 107.3 100.3 L 124.1 100.3 L 124.1 74.6 Z M 35.2 72.0 L 35.2 70.9 L 35.0 69.7 L 34.6 68.4 L 34.1 67.0 L 33.455555534362794 65.71111106872559 L 32.1 69.1 L 29.9 73.8 L 27.4 78.3 L 24.6 82.4 L 21.5 86.2 L 18.1 89.6 L 14.3 92.6 L 13.0 91.3 L 15.1 87.3 L 17.1 83.2 L 19.0 79.1 L 20.6 74.9 L 22.1 70.6 L 23.4 66.1 L 24.5 61.4 L 25.3 56.5 L 26.0 51.5 L 26.405250072479248 47.20434913635254 L 26.3 47.2 L 26.7 44.1 L 38.4 47.7 L 41.1 50.0 L 37.5802414894104 51.59385290145874 L 37.2 53.4 L 35.8 58.9 L 34.96208534240723 61.4630331993103 L 36.6 62.1 L 38.3 62.9 L 39.9 63.8 L 42.9 66.0 L 44.2 67.3 L 45.4 68.8 L 46.4 70.4 L 45.9 74.9 L 42.4 77.8 L 37.9 77.3 L 34.9 73.8 L 35.1 72.9 Z M 81.5 79.7 L 81.2 78.0 L 80.7 76.3 L 80.1 74.6 L 79.3 72.8 L 78.3 70.9 L 77.2 68.9 L 76.0 66.9 L 75.87280511856079 66.78693790435791 L 74.4 69.5 L 72.3 72.9 L 70.0 76.2 L 64.8 82.4 L 63.3 81.5 L 64.8 77.8 L 66.0 74.1 L 67.1 70.4 L 68.9 63.4 L 69.5 59.9 L 70.0 56.5 L 70.4 53.1 L 70.6 49.7 L 70.6 47.40083332061768 L 70.5 47.4 L 70.8 44.2 L 82.5 47.5 L 85.3 49.8 L 81.65937871932984 51.5502986907959 L 80.7 55.1 L 79.4 58.8 L 78.0 62.5 L 76.86258993148803 64.84172658920288 L 77.4 65.2 L 79.7 66.2 L 81.9 67.4 L 83.9 68.7 L 85.8 70.2 L 87.6 71.8 L 89.2 73.5 L 90.7 75.3 L 92.0 77.3 L 93.2 79.4 L 92.7 83.9 L 89.2 86.8 L 84.7 86.3 L 81.7 82.8 L 81.7 81.3 Z M 124.0 22.4 L 153.9 22.4 L 159.9 17.4 L 170.9 26.4 L 165.9 30.4 L 165.9 57.5 L 153.9 63.5 L 153.9 55.5 L 124.0 55.5 L 124.0 58.5 L 112.0 64.5 L 112.0 16.4 Z M 124.0 26.4 L 124.0 51.5 L 153.9 51.5 L 153.9 26.4 Z " />
</g>
</svg>
