<svg xmlns="http://www.w3.org/2000/svg" xmlns:xlink="http://www.w3.org/1999/xlink" version="1.1" baseProfile="full" viewBox="0 0 200 200" width="200" height="200">
<g fill="black">
<path d="M 31.1 176.0 L 45.1 176.0 L 46.3 175.9 L 47.2 175.7 L 48.1 175.4 L 48.5 175.0 L 48.7 174.7 L 48.8 174.1 L 49.0 173.2 L 49.1 172.0 L 49.1 154.72702703475952 L 44.2 158.7 L 40.7 161.5 L 37.1 164.1 L 33.6 166.6 L 30.2 169.0 L 26.9 171.3 L 23.7 173.6 L 21.001437187194824 175.37093181610106 L 20.6 179.5 L 17.4 177.8 L 10.0 168.1 L 11.7 167.2 L 15.1 165.8 L 18.6 164.3 L 22.2 162.8 L 25.8 161.2 L 29.7 159.5 L 33.6 157.9 L 37.6 156.2 L 41.8 154.5 L 46.2 152.9 L 49.1 151.80444440841674 L 49.1 106.0 L 61.1 108.0 L 64.1 110.0 L 61.1 111.8 L 61.1 146.43000001907347 L 62.9 144.0 L 65.0 141.4 L 68.8 136.4 L 70.5 134.0 L 73.7 129.4 L 75.1 127.1 L 75.8876675605774 125.82761392593383 L 75.7 125.7 L 76.8 124.4 L 85.7 132.5 L 86.8 135.9 L 82.5430359840393 135.31283254623412 L 81.4 136.3 L 76.6 140.1 L 74.1 141.9 L 71.4 143.7 L 68.6 145.5 L 65.7 147.2 L 62.6 148.8 L 62.197826099395755 149.0547101020813 L 63.6 149.6 L 67.0 151.2 L 70.3 153.0 L 73.5 155.0 L 79.3 159.4 L 82.0 161.9 L 84.5 164.4 L 86.9 167.1 L 87.8 171.6 L 85.3 175.4 L 80.8 176.3 L 77.0 173.8 L 75.6 171.2 L 74.0 168.6 L 72.2 166.0 L 70.3 163.4 L 68.3 160.9 L 66.1 158.3 L 63.7 155.8 L 61.1 153.2 L 61.1 172.0 L 60.9 174.5 L 60.5 177.0 L 59.7 179.4 L 58.5 181.7 L 56.8 183.7 L 54.8 185.3 L 52.5 186.6 L 50.1 187.4 L 47.6 187.8 L 45.1 188.0 L 45.1 182.0 L 31.1 179.0 Z M 180.6 144.0 L 182.6 144.0 L 180.6 169.0 L 184.2 171.4 L 186.6 175.0 L 184.2 178.6 L 180.6 181.0 L 118.6 181.0 L 116.0 180.8 L 113.5 180.4 L 111.1 179.6 L 108.8 178.3 L 106.8 176.7 L 105.2 174.7 L 103.9 172.4 L 103.1 170.0 L 102.7 167.5 L 102.6 165.0 L 102.6 73.559574508667 L 98.3 78.5 L 93.54545450210571 83.25454549789428 L 93.6 83.5 L 91.3 87.4 L 86.8 88.4 L 82.9 86.0 L 80.9 82.8 L 78.8 79.7 L 76.5 76.7 L 74.1 73.8 L 71.5 71.1 L 68.8 68.4 L 66.0 65.7 L 63.0 63.2 L 61.1 61.60645160675049 L 61.1 84.0 L 59.5246808052063 84.78765954971314 L 60.9 85.7 L 62.6 88.9 L 58.819913387298584 89.0281385421753 L 56.9 92.1 L 55.48794174194336 94.15084648132324 L 56.3 94.3 L 61.2 95.5 L 65.8 97.1 L 70.3 99.0 L 74.5 101.3 L 78.6 103.9 L 82.4 106.7 L 86.1 109.9 L 89.5 113.3 L 92.7 117.0 L 93.7 121.5 L 91.3 125.4 L 86.8 126.3 L 82.9 123.9 L 80.7 120.5 L 78.3 117.1 L 75.6 113.9 L 72.8 110.9 L 69.7 108.0 L 66.4 105.3 L 62.9 102.6 L 59.1 100.1 L 55.1 97.5 L 53.714431285858154 96.72665929794312 L 52.7 98.2 L 48.2 104.1 L 43.4 109.7 L 38.4 115.0 L 33.2 120.0 L 28.377287101745605 124.04763402938843 L 30.3 124.8 L 32.6 125.8 L 34.7 127.1 L 36.8 128.5 L 38.7 130.1 L 40.6 131.8 L 42.3 133.6 L 44.0 135.6 L 45.5 137.7 L 45.6 142.3 L 42.5 145.7 L 37.9 145.8 L 34.6 142.7 L 33.6 138.9 L 32.9 137.0 L 32.2 135.2 L 31.3 133.3 L 30.3 131.4 L 29.2 129.6 L 28.0 127.7 L 26.6 125.7 L 26.452904796600343 125.57021017074585 L 21.8 129.1 L 15.7 133.1 L 9.3 136.7 L 8.2 135.2 L 13.4 130.1 L 18.4 125.1 L 23.1 120.0 L 27.7 114.7 L 32.1 109.4 L 36.2 103.8 L 40.1 98.1 L 43.7 92.3 L 47.1 86.2 L 49.1 82.325 L 49.1 63.09459457397461 L 48.5 64.1 L 44.6 70.0 L 40.5 75.5 L 36.2 80.6 L 31.7 85.3 L 27.0 89.6 L 22.0 93.5 L 16.7 96.9 L 11.3 99.7 L 10.2 98.2 L 14.4 93.9 L 18.4 89.5 L 22.3 85.0 L 26.0 80.3 L 29.6 75.3 L 32.9 70.1 L 36.1 64.6 L 39.2 58.9 L 42.0 52.8 L 42.75789470672608 51.0 L 13.7 51.0 L 13.7 47.0 L 49.1 47.0 L 49.1 32.25522384643555 L 44.1 33.3 L 37.3 34.7 L 30.3 35.9 L 23.2 37.0 L 15.9 37.8 L 15.4 36.1 L 22.2 33.3 L 28.9 30.7 L 35.5 28.3 L 42.1 26.0 L 48.5 23.7 L 54.8 21.4 L 61.0 19.2 L 73.0 14.8 L 77.91509637832641 12.935653114318848 L 77.9 12.9 L 77.93364782333374 12.928616333007813 L 78.8 12.6 L 79.2956521987915 14.08695650100708 L 88.6 22.0 L 88.9 25.1 L 84.81111106872558 23.262963008880615 L 82.6 24.0 L 76.5 25.6 L 63.9 28.8 L 61.1 29.489230728149415 L 61.1 47.0 L 76.4 47.0 L 86.4 37.0 L 98.4 47.0 L 98.4 51.0 L 61.1 51.0 L 61.1 57.70487804412842 L 61.4 57.8 L 65.4 59.1 L 69.3 60.7 L 73.0 62.7 L 76.6 64.8 L 80.1 67.2 L 83.4 69.9 L 86.6 72.7 L 89.7 75.7 L 92.6 79.0 L 92.91214952468872 80.40467290878296 L 95.2 76.3 L 98.4 70.2 L 101.6 63.9 L 104.5 57.5 L 107.2 50.9 L 109.8 44.1 L 112.1 37.1 L 114.2 29.8 L 116.0 22.3 L 117.50125675201416 15.50019006729126 L 117.5 15.5 L 118.1 12.8 L 129.4 17.3 L 131.8 19.9 L 128.27379035949707 21.054032230377196 L 127.0 25.3 L 124.4 33.0 L 121.5 40.5 L 119.53521127700806 45.0 L 168.2 45.0 L 174.2 40.0 L 185.2 49.0 L 180.2 52.0 L 180.01466856002807 52.077221393585205 L 179.9 58.9 L 179.7 69.9 L 179.3 80.2 L 178.8 89.7 L 178.3 98.4 L 177.7 106.4 L 177.0 113.5 L 176.2 120.0 L 175.3 125.6 L 174.3 130.6 L 173.6 133.0 L 172.6 135.4 L 171.3 137.5 L 169.8 139.5 L 167.9 141.2 L 165.9 142.6 L 163.6 143.7 L 161.2 144.4 L 158.7 144.8 L 156.2 145.0 L 156.2 139.0 L 136.2 136.0 L 136.2 133.0 L 156.2 133.0 L 157.4 132.9 L 158.5 132.7 L 159.3 132.5 L 160.0 132.2 L 160.5 131.8 L 160.9 131.4 L 161.4 130.8 L 161.8 130.1 L 162.2 129.1 L 162.6 127.9 L 163.5 123.5 L 164.3 118.3 L 165.0 112.2 L 165.7 105.3 L 166.3 97.6 L 166.9 89.1 L 167.3 79.7 L 167.7 69.6 L 167.9 58.6 L 168.14615383148194 49.0 L 117.68985509872437 49.0 L 114.9 54.5 L 111.2 61.0 L 107.3 67.2 L 105.08322982788086 70.24161491394042 L 114.6 75.0 L 138.6 75.0 L 144.6 70.0 L 155.6 79.0 L 150.6 83.0 L 150.6 121.0 L 138.6 127.0 L 138.6 115.0 L 114.6 115.0 L 114.6 166.2 L 114.8 167.1 L 115.1 168.0 L 115.5 168.4 L 116.4 168.7 L 117.3 168.9 L 118.6 169.0 L 174.6 169.0 Z M 114.6 79.0 L 114.6 111.0 L 138.6 111.0 L 138.6 79.0 Z " />
</g>
</svg>
