<svg xmlns="http://www.w3.org/2000/svg" xmlns:xlink="http://www.w3.org/1999/xlink" version="1.1" baseProfile="full" viewBox="0 0 200 200" width="200" height="200">
<g fill="black">
<path d="M 10.2 190.0 L 10.2 185.4 L 13.4 182.1 L 15.8 181.4 L 18.0 180.6 L 20.1 179.7 L 22.0 178.6 L 23.7 177.4 L 25.3 175.9 L 26.7 174.3 L 28.1 172.3 L 29.4 170.1 L 30.0 167.5 L 31.8 167.6 L 31.7 170.5 L 31.9 173.4 L 31.5 176.3 L 30.7 179.1 L 29.6 181.8 L 28.0 184.4 L 26.0 186.9 L 23.7 189.2 L 21.0 191.3 L 18.1 193.2 L 13.5 193.2 Z M 67.8 176.0 L 67.3 174.3 L 66.6 172.5 L 65.8 170.7 L 64.9 168.8 L 63.8 166.8 L 62.2 165.3 L 63.3 163.8 L 65.2 165.2 L 67.4 166.2 L 69.4 167.4 L 71.4 168.7 L 73.1 170.1 L 74.8 171.7 L 76.3 173.4 L 77.7 175.2 L 78.9 177.1 L 80.0 179.2 L 79.3 183.7 L 75.7 186.5 L 71.2 185.8 L 68.4 182.1 L 68.4 179.2 Z M 48.9 189.0 L 45.6 185.9 L 45.3 181.3 L 46.0 180.5 L 46.6 179.6 L 47.1 178.5 L 47.5 177.2 L 47.7 175.7 L 47.7 174.1 L 47.4 172.2 L 47.0 170.1 L 46.3 167.9 L 44.9 165.9 L 46.3 164.8 L 48.0 166.6 L 50.0 168.2 L 51.7 169.9 L 53.3 171.7 L 54.5 173.7 L 55.6 175.8 L 56.3 178.0 L 56.8 180.4 L 56.9 182.9 L 56.6 185.4 L 53.5 188.7 Z M 159.2 169.3 L 150.8 160.6 L 143.3 150.9 L 141.94915075302123 148.66265592575073 L 136.0 156.8 L 126.1 167.3 L 115.1 176.1 L 102.9 183.3 L 89.8 188.8 L 89.1 187.1 L 94.14232063293457 184.09155654907227 L 93.3 184.0 L 90.3 180.6 L 90.2 179.1 L 89.9 177.5 L 89.4 175.8 L 88.7 174.1 L 87.8 172.2 L 86.6 170.4 L 85.2 168.4 L 83.6 166.4 L 81.7 164.3 L 79.4 162.6 L 80.3 161.0 L 83.0 162.3 L 85.8 163.3 L 88.4 164.4 L 90.8 165.7 L 93.1 167.2 L 95.2 168.8 L 97.1 170.6 L 98.9 172.5 L 100.4 174.6 L 101.7 176.9 L 101.46046514511109 179.65465116500854 L 111.8 171.9 L 121.4 162.6 L 130.0 152.2 L 137.25320634841918 140.8849980354309 L 136.9 140.3 L 131.4 128.8 L 127.0 116.4 L 123.6 103.2 L 121.2 89.1 L 120.58539686203002 80.71904764175414 L 116.9 86.6 L 111.8 93.8 L 106.3 100.5 L 104.9 99.4 L 108.6 91.8 L 112.2 84.0 L 115.7 76.1 L 119.0 68.0 L 122.0 59.6 L 124.8 51.0 L 127.4 42.1 L 129.7 32.9 L 131.7 23.5 L 133.33229064941406 14.703767204284668 L 133.3 14.7 L 133.9 11.9 L 145.3 16.1 L 147.8 18.7 L 144.35223884582518 19.89104480743408 L 142.8 26.1 L 140.0 35.7 L 137.0 45.1 L 133.6 54.1 L 130.66551723480225 61.0 L 166.9 61.0 L 176.9 51.0 L 188.9 61.0 L 188.9 65.0 L 170.87894735336303 65.0 L 168.1 82.6 L 164.0 100.3 L 158.7 116.6 L 152.3 131.5 L 147.75284910202026 139.51734504699706 L 151.6 144.8 L 158.9 153.1 L 166.9 160.4 L 175.7 166.7 L 185.2 172.1 L 190.2 174.8 L 179.0 183.8 L 168.6 177.0 Z M 14.0 154.1 L 51.0 154.1 L 51.0 141.7 L 20.0 141.7 L 20.0 137.7 L 51.0 137.7 L 51.0 122.7 L 30.0 122.7 L 18.0 128.7 L 18.0 76.0 L 30.0 82.0 L 84.0 82.0 L 90.0 77.0 L 101.0 86.0 L 96.0 90.0 L 96.0 122.7 L 84.0 128.7 L 84.0 122.7 L 63.0 122.7 L 63.0 137.7 L 80.81818180084228 137.7 L 89.0 128.7 L 99.0 137.7 L 99.0 141.7 L 63.0 141.7 L 63.0 154.1 L 80.0 154.1 L 90.0 144.1 L 102.0 154.1 L 102.0 158.1 L 14.0 158.1 Z M 128.8397590637207 65.0 L 125.9 71.1 L 122.67415971755982 77.10156335830689 L 125.3 88.3 L 129.3 101.7 L 133.8 114.0 L 139.0 125.3 L 142.2176552772522 130.91726264953613 L 143.9 127.5 L 149.3 113.3 L 153.6 97.7 L 156.9 80.7 L 158.7627119064331 65.0 Z M 30.0 86.0 L 30.0 118.7 L 51.0 118.7 L 51.0 86.0 Z M 81.69446964263916 99.67805986404419 L 81.2 100.2 L 79.3 102.1 L 77.3 104.0 L 75.2 105.8 L 72.9 107.6 L 70.5 109.4 L 67.9 111.2 L 65.2 112.8 L 63.0 114.49230766296387 L 63.0 118.7 L 84.0 118.7 L 84.0 99.63898305892944 Z M 36.6 107.7 L 36.1 105.8 L 35.6 104.0 L 34.9 102.1 L 34.2 100.3 L 33.4 98.4 L 32.5 96.6 L 31.6 94.7 L 30.2 93.2 L 31.3 91.8 L 33.1 93.0 L 35.1 94.0 L 37.1 95.1 L 39.0 96.4 L 40.8 97.9 L 42.5 99.5 L 44.2 101.3 L 45.7 103.1 L 47.1 105.1 L 48.5 107.2 L 48.3 111.8 L 45.0 115.0 L 40.5 114.8 L 37.3 111.5 L 37.0 109.6 Z M 63.0 86.0 L 63.0 111.47619047164918 L 63.4 111.0 L 65.1 108.3 L 68.1 103.3 L 69.5 101.0 L 70.7 98.7 L 71.8 96.5 L 72.7 94.4 L 73.6 92.4 L 73.90191535949707 91.39361534118652 L 73.7 91.3 L 74.15178575515748 90.56071424484253 L 74.2 90.4 L 74.23705883026123 90.42117643356323 L 74.8 89.5 L 84.0 95.91212120056153 L 84.0 86.0 Z M 114.3 70.2 L 114.3 74.2 L 7.6 74.2 L 7.6 70.2 L 96.11818180084228 70.2 L 104.3 61.2 Z M 28.5 57.3 L 16.5 63.3 L 16.5 22.1 L 28.5 24.1 L 31.5 26.1 L 28.5 27.9 L 28.5 50.3 L 53.5 50.3 L 53.5 11.2 L 65.5 13.2 L 68.5 15.2 L 65.5 17.0 L 65.5 50.3 L 90.4 50.3 L 90.4 22.1 L 102.4 24.1 L 105.4 26.1 L 102.4 27.9 L 102.4 56.3 L 90.4 62.3 L 90.4 54.3 L 28.5 54.3 Z " />
</g>
</svg>
