<svg xmlns="http://www.w3.org/2000/svg" xmlns:xlink="http://www.w3.org/1999/xlink" version="1.1" baseProfile="full" viewBox="0 0 200 200" width="200" height="200">
<g fill="black">
<path d="M 129.9 168.2 L 130.3 171.8 L 126.66602973937988 170.54462842941285 L 125.9 171.1 L 121.7 173.8 L 117.5 176.4 L 113.2 178.8 L 108.8 181.0 L 104.2 183.0 L 99.6 184.9 L 94.9 186.5 L 90.0 187.8 L 85.1 188.8 L 84.4 187.1 L 88.6 184.4 L 92.7 181.7 L 100.7 176.5 L 104.5 173.7 L 108.2 171.0 L 111.9 168.1 L 115.4 165.2 L 118.9 162.1 L 121.4265625 159.7265625 L 121.4 159.7 L 122.3 158.9 Z M 172.9 180.5 L 170.0 177.7 L 166.8 175.1 L 163.4 172.6 L 159.7 170.2 L 155.8 168.0 L 151.6 166.0 L 147.2 163.9 L 142.5 162.0 L 142.8 160.3 L 148.0 160.5 L 153.1 161.1 L 158.0 162.2 L 162.8 163.6 L 167.3 165.3 L 171.7 167.4 L 175.9 169.7 L 179.8 172.4 L 183.6 175.4 L 187.1 178.8 L 188.5 183.1 L 186.5 187.2 L 182.2 188.6 L 178.1 186.6 L 175.6 183.5 Z M 12.6 184.8 L 11.5 180.3 L 13.8 176.4 L 15.9 175.1 L 17.8 173.6 L 19.7 171.8 L 21.5 169.7 L 23.2 167.3 L 24.7 164.5 L 26.2 161.4 L 27.5 157.9 L 28.8 154.1 L 29.5 149.9 L 31.3 150.0 L 31.6 154.4 L 31.8 158.6 L 31.7 162.6 L 31.2 166.5 L 30.3 170.2 L 29.2 173.8 L 27.7 177.2 L 25.8 180.3 L 23.6 183.3 L 21.0 185.9 L 16.6 187.0 Z M 61.8 167.3 L 61.2 161.9 L 60.8 159.3 L 60.2 156.6 L 59.6 154.0 L 58.9 151.4 L 58.2 148.7 L 57.0 146.3 L 58.4 145.2 L 60.3 147.4 L 62.4 149.4 L 64.4 151.6 L 66.1 154.0 L 67.8 156.6 L 69.3 159.2 L 70.6 162.0 L 71.8 164.9 L 72.9 168.0 L 73.8 171.1 L 72.6 175.5 L 68.7 177.9 L 64.3 176.7 L 61.9 172.8 L 61.9 170.0 Z M 46.2 181.9 L 42.5 179.3 L 41.5 174.8 L 42.3 172.5 L 43.0 170.0 L 43.5 167.5 L 43.8 165.0 L 44.0 162.3 L 44.0 159.5 L 43.8 156.6 L 43.5 153.5 L 43.1 150.4 L 42.1 147.2 L 43.8 146.5 L 45.5 149.4 L 47.4 152.2 L 49.0 155.1 L 50.4 158.1 L 51.5 161.1 L 52.3 164.2 L 52.9 167.4 L 53.3 170.6 L 53.4 173.9 L 53.3 177.2 L 50.7 181.0 Z M 80.2 164.3 L 79.7 161.5 L 79.1 158.7 L 78.3 155.9 L 77.4 153.2 L 76.3 150.4 L 75.0 147.7 L 73.6 144.8 L 71.8 142.3 L 73.1 141.0 L 75.6 143.1 L 78.3 145.1 L 80.7 147.3 L 83.0 149.7 L 85.1 152.4 L 87.0 155.2 L 88.6 158.1 L 90.2 161.3 L 91.5 164.5 L 92.6 167.9 L 91.6 172.4 L 87.8 174.9 L 83.3 173.9 L 80.8 170.1 L 80.6 167.1 Z M 143.6 15.0 L 146.6 17.0 L 143.6 18.8 L 143.6 36.0 L 168.9181818008423 36.0 L 177.1 27.0 L 187.1 36.0 L 187.1 40.0 L 143.6 40.0 L 143.6 62.0 L 166.2 62.0 L 172.2 57.0 L 183.2 66.0 L 178.2 70.0 L 178.2 150.0 L 166.2 156.0 L 166.2 150.0 L 112.2 150.0 L 112.2 153.0 L 100.2 159.0 L 100.2 56.0 L 112.2 62.0 L 131.6 62.0 L 131.6 13.0 Z M 13.5 134.9 L 20.4 133.4 L 27.5 132.0 L 34.9 130.7 L 42.6 129.4 L 46.8 128.76202535629272 L 46.8 109.0 L 21.0 109.0 L 21.0 105.0 L 46.8 105.0 L 46.8 81.0 L 30.5 81.0 L 30.5 88.0 L 18.5 94.0 L 18.5 15.0 L 30.5 21.0 L 75.2 21.0 L 81.2 16.0 L 92.2 25.0 L 87.2 29.0 L 87.2 85.0 L 75.2 91.0 L 75.2 81.0 L 58.8 81.0 L 58.8 105.0 L 67.0 105.0 L 77.0 95.0 L 89.0 105.0 L 89.0 109.0 L 58.8 109.0 L 58.8 127.1 L 67.3 126.1 L 76.2 125.2 L 85.4 124.5 L 94.8 124.1 L 95.1 125.8 L 86.0 128.2 L 77.1 130.5 L 68.5 132.5 L 60.2 134.6 L 52.2 136.5 L 44.5 138.5 L 37.1 140.5 L 29.9 142.5 L 23.1 144.5 L 20.6069766998291 145.27906980514527 L 19.4 148.9 L 16.7 146.5 L 11.6 135.4 Z M 112.2 122.0 L 112.2 146.0 L 166.2 146.0 L 166.2 122.0 Z M 112.2 93.0 L 112.2 118.0 L 166.2 118.0 L 166.2 93.0 Z M 112.2 89.0 L 166.2 89.0 L 166.2 66.0 L 112.2 66.0 Z M 34.0 54.8 L 33.5 51.9 L 33.0 49.1 L 32.4 46.3 L 31.8 43.7 L 31.1 41.1 L 30.5 38.6 L 30.5 77.0 L 46.8 77.0 L 46.8 62.288888931274414 L 46.0 66.2 L 42.3 68.9 L 37.8 68.0 L 35.2 64.3 L 34.8 61.0 Z M 75.0 44.9 L 73.3 48.0 L 71.5 51.0 L 69.6 54.1 L 67.6 57.2 L 65.4 60.3 L 63.0 63.3 L 60.4 66.3 L 58.8 68.28400001525878 L 58.8 77.0 L 75.2 77.0 L 75.2 44.5125 Z M 58.8 25.0 L 58.8 62.025 L 59.1 61.1 L 61.5 54.1 L 63.5 47.5 L 64.5 44.3 L 65.3 41.1 L 66.0 38.1 L 66.41470584869384 36.0264705657959 L 66.3 36.0 L 67.1 33.5 L 75.2 37.3642201423645 L 75.2 25.0 Z M 30.5 25.0 L 30.5 35.49333333969116 L 30.9 35.2 L 32.7 37.2 L 34.7 39.1 L 36.6 41.3 L 38.3 43.7 L 40.0 46.3 L 41.6 49.0 L 43.0 52.0 L 44.4 55.1 L 45.7 58.3 L 46.8 61.50833330154419 L 46.8 25.0 Z " />
</g>
</svg>
