<svg xmlns="http://www.w3.org/2000/svg" xmlns:xlink="http://www.w3.org/1999/xlink" version="1.1" baseProfile="full" viewBox="0 0 200 200" width="200" height="200">
<g fill="black">
<path d="M 167.1 168.7 L 162.0 160.0 L 158.44656629562377 152.4983066558838 L 156.5 156.6 L 150.1 167.0 L 143.0 176.0 L 135.0 183.2 L 126.4 188.8 L 125.4 187.3 L 126.03582086563111 186.68208951950072 L 119.4 190.0 L 119.4 152.4380952835083 L 117.2 153.8 L 113.0 156.2 L 108.9 158.4 L 104.8 160.4 L 100.9 162.3 L 97.0 164.1 L 93.3 165.8 L 89.97550745010376 167.2376184463501 L 88.8 171.1 L 86.0 168.8 L 80.7 157.9 L 82.6 157.3 L 86.2 156.6 L 89.9 155.7 L 90.0 155.67692308425904 L 90.0 64.6 L 82.8 64.6 L 82.8 60.6 L 105.0 60.6 L 105.0 31.7 L 86.4 31.7 L 86.4 27.7 L 116.6 27.7 L 126.6 17.7 L 138.6 27.7 L 138.6 31.7 L 117.0 31.7 L 117.0 60.6 L 120.8 60.6 L 130.8 50.6 L 142.8 60.6 L 142.8 64.6 L 131.4 64.6 L 131.4 181.46901407241822 L 132.5 180.4 L 138.8 172.5 L 144.6 163.5 L 149.7 153.3 L 154.2 141.8 L 154.2406660079956 141.6654893875122 L 153.7 140.2 L 150.5 129.0 L 148.0 116.9 L 146.1 103.9 L 145.0 90.0 L 144.90778589248657 85.48150854110717 L 144.1 87.4 L 140.7 94.6 L 136.8 101.3 L 135.2 100.6 L 137.1 93.2 L 139.1 85.6 L 141.0 77.8 L 142.9 69.8 L 144.6 61.6 L 146.2 53.0 L 147.7 44.2 L 149.0 35.1 L 150.2 25.7 L 151.10570402145385 17.005241489410402 L 151.0 17.0 L 151.4 14.0 L 163.1 17.6 L 165.8 19.9 L 162.4368366241455 21.422941875457763 L 161.4 27.4 L 159.6 36.9 L 157.5 46.1 L 155.3 55.0 L 153.17790699005127 62.3 L 169.8181818008423 62.3 L 178.0 53.3 L 188.0 62.3 L 188.0 66.3 L 179.02978725433348 66.3 L 177.2 83.5 L 174.5 100.9 L 171.2 116.9 L 167.0 131.5 L 163.86765298843383 140.00208473205566 L 166.8 146.2 L 171.5 154.5 L 176.7 161.7 L 182.2 167.9 L 188.1 173.2 L 190.3 175.1 L 179.5 183.2 L 173.0 176.4 Z M 12.9 184.9 L 11.5 180.6 L 13.4 176.5 L 15.2 175.3 L 16.9 173.8 L 18.5 172.0 L 20.1 169.9 L 21.6 167.4 L 23.0 164.6 L 24.3 161.4 L 25.5 157.9 L 26.7 154.1 L 27.4 149.9 L 29.2 150.0 L 29.4 154.3 L 29.8 158.5 L 29.7 162.5 L 29.4 166.3 L 28.9 170.0 L 28.0 173.4 L 26.8 176.7 L 25.3 179.9 L 23.5 182.8 L 21.4 185.5 L 17.1 186.9 Z M 53.7 161.7 L 53.1 156.5 L 52.7 153.9 L 51.7 148.7 L 50.7 146.3 L 52.2 145.3 L 53.9 147.5 L 55.8 149.5 L 57.5 151.8 L 59.1 154.2 L 60.6 156.7 L 61.9 159.4 L 63.1 162.2 L 64.2 165.1 L 65.2 168.1 L 66.0 171.2 L 64.7 175.6 L 60.8 177.9 L 56.4 176.6 L 54.1 172.7 L 54.1 167.1 Z M 41.7 181.9 L 37.8 179.4 L 36.8 175.0 L 37.5 172.6 L 38.1 170.1 L 38.6 167.5 L 39.0 164.9 L 39.2 162.2 L 39.3 159.4 L 39.2 156.5 L 39.1 153.5 L 38.8 150.3 L 38.1 147.2 L 39.7 146.5 L 41.3 149.4 L 43.0 152.3 L 44.5 155.2 L 45.7 158.2 L 46.7 161.2 L 47.5 164.3 L 48.1 167.4 L 48.5 170.6 L 48.6 173.8 L 48.6 177.0 L 46.1 180.8 Z M 69.8 164.1 L 69.4 161.2 L 68.9 158.4 L 68.3 155.7 L 67.6 153.0 L 66.8 150.3 L 65.8 147.5 L 64.8 144.8 L 63.3 142.3 L 64.7 141.1 L 66.9 143.2 L 69.3 145.2 L 71.4 147.5 L 73.4 150.0 L 75.3 152.6 L 76.9 155.4 L 78.4 158.4 L 79.8 161.5 L 81.0 164.7 L 82.0 168.1 L 80.8 172.5 L 76.9 174.9 L 72.5 173.8 L 70.1 169.9 L 70.0 166.9 Z M 102.0 124.4 L 102.0 152.6744186401367 L 106.2 151.6 L 110.7 150.4 L 115.3 149.2 L 119.4 148.175 L 119.4 124.4 Z M 13.6 134.9 L 19.4 133.5 L 25.5 132.1 L 31.8 130.7 L 38.3 129.4 L 41.3 128.87058820724488 L 41.3 109.0 L 20.3 109.0 L 20.3 105.0 L 41.3 105.0 L 41.3 81.0 L 29.2 81.0 L 29.2 88.0 L 17.2 94.0 L 17.2 15.0 L 29.2 21.0 L 65.4 21.0 L 71.4 16.0 L 82.4 25.0 L 77.4 29.0 L 77.4 85.0 L 65.4 91.0 L 65.4 81.0 L 53.3 81.0 L 53.3 105.0 L 56.0 105.0 L 66.0 95.0 L 78.0 105.0 L 78.0 109.0 L 53.3 109.0 L 53.3 126.9472222328186 L 59.4 126.1 L 67.0 125.2 L 74.8 124.5 L 82.9 124.1 L 83.2 125.8 L 75.5 128.2 L 68.0 130.5 L 60.8 132.5 L 53.8 134.5 L 47.0 136.5 L 40.5 138.5 L 34.3 140.4 L 28.3 142.4 L 22.6 144.4 L 21.05111246109009 144.9736620903015 L 20.0 148.6 L 17.2 146.4 L 11.7 135.5 Z M 151.95421686172486 66.3 L 150.2 71.9 L 147.3325842857361 79.71123600006104 L 149.1 89.5 L 151.9 102.9 L 155.0 115.3 L 158.5 126.6 L 158.57416801452638 126.79587955474854 L 161.3 114.7 L 164.0 99.1 L 165.9 82.2 L 167.0295082092285 66.3 Z M 102.0 94.5 L 102.0 120.4 L 119.4 120.4 L 119.4 94.5 Z M 102.0 64.6 L 102.0 90.5 L 119.4 90.5 L 119.4 64.6 Z M 30.9 57.6 L 30.6 54.6 L 30.2 51.7 L 29.8 48.9 L 29.4 46.2 L 29.2 44.9 L 29.2 77.0 L 41.3 77.0 L 41.3 66.92631578445435 L 38.3 68.9 L 33.9 67.9 L 31.4 64.1 L 31.1 60.8 Z M 63.9 50.8 L 62.2 53.9 L 58.4 60.1 L 56.2 63.2 L 53.9 66.2 L 53.3 67.07272729873657 L 53.3 77.0 L 65.4 77.0 L 65.4 47.89375 Z M 53.3 25.0 L 53.3 57.41111106872559 L 54.1 54.3 L 55.7 47.7 L 56.4 44.5 L 57.6 38.3 L 57.86504964828491 36.312127876281735 L 57.8 36.3 L 57.93207550048828 35.809433937072754 L 58.0 35.3 L 58.06444444656372 35.31777782440186 L 58.5 33.7 L 65.4 36.68378381729126 L 65.4 25.0 Z M 29.2 25.0 L 29.2 35.7 L 30.4 37.3 L 32.2 39.3 L 33.9 41.5 L 35.5 43.9 L 37.0 46.5 L 38.4 49.2 L 39.7 52.2 L 40.9 55.3 L 41.3 56.36666669845581 L 41.3 25.0 Z " />
</g>
</svg>
