<svg xmlns="http://www.w3.org/2000/svg" xmlns:xlink="http://www.w3.org/1999/xlink" version="1.1" baseProfile="full" viewBox="0 0 200 200" width="200" height="200">
<g fill="black">
<path d="M 110.0 92.0 L 90.0 92.0 L 90.0 172.4 L 89.9 173.6 L 90.0 174.5 L 90.1 175.2 L 90.3 176.0 L 90.5 176.3 L 90.9 176.6 L 91.6 176.9 L 92.6 177.2 L 94.0 177.4 L 110.0 177.4 Z M 122.0 144.8 L 122.0 157.0 L 160.0 157.0 L 160.0 144.8 Z M 40.0 144.8 L 40.0 157.0 L 78.0 157.0 L 78.0 144.8 Z M 122.0 129.2 L 122.0 140.8 L 160.0 140.8 L 160.0 129.2 Z M 40.0 129.2 L 40.0 140.8 L 78.0 140.8 L 78.0 129.2 Z M 122.0 92.0 L 122.0 107.8 L 153.0 107.8 L 153.0 92.0 Z M 47.0 92.0 L 47.0 107.8 L 78.0 107.8 L 78.0 92.0 Z M 158.3 81.5 L 156.2 82.1 L 154.0 82.6 L 151.9 83.1 L 149.7 83.5 L 147.6 83.7 L 143.2 84.1 L 141.0 84.1 L 141.0 78.1 L 121.0 75.1 L 121.0 72.1 L 142.7 72.1 L 144.5 72.0 L 147.9 71.6 L 149.7 71.3 L 151.4 70.9 L 153.0 70.5 L 156.4 69.5 L 158.0 68.9 L 160.1 67.8 L 161.9 66.2 L 163.7 64.0 L 165.3 61.0 L 166.8 57.2 L 168.1 52.6 L 169.0 47.1 L 169.7 40.9 L 170.0 33.9 L 170.0 28.1 L 59.3222222328186 28.1 L 57.0 30.0 L 52.0 33.6 L 46.7 37.0 L 41.0 40.2 L 34.8 43.4 L 28.1 46.3 L 21.0 49.1 L 13.3 51.6 L 12.6 49.9 L 19.3 45.7 L 25.6 41.6 L 31.5 37.7 L 36.9 33.8 L 41.9 30.0 L 46.4 26.2 L 50.4 22.4 L 53.9 18.7 L 57.0 15.1 L 59.02605495452881 12.216767978668212 L 59.0 12.2 L 60.0 10.8 L 69.1 18.7 L 70.3 22.1 L 66.33970947265625 21.690314769744873 L 65.5 22.6 L 63.88157892227173 24.1 L 170.0 24.1 L 176.0 19.1 L 187.0 28.1 L 182.0 31.1 L 181.96283712387086 31.115484523773194 L 182.0 34.2 L 181.6 41.8 L 180.9 48.8 L 179.8 55.1 L 178.2 60.9 L 176.2 66.1 L 173.7 70.6 L 170.5 74.6 L 166.8 77.7 L 162.5 80.0 L 160.4 80.8 Z M 69.8 37.3 L 118.1 37.3 L 124.1 32.3 L 135.1 41.3 L 130.1 45.3 L 130.1 64.7 L 118.1 70.7 L 118.1 62.7 L 69.8 62.7 L 69.8 65.7 L 57.8 71.7 L 57.8 31.3 Z M 69.8 41.3 L 69.8 58.7 L 118.1 58.7 L 118.1 41.3 Z M 178.0 160.4 L 180.0 160.4 L 178.0 177.4 L 181.0 179.4 L 183.0 182.4 L 181.0 185.4 L 178.0 187.4 L 94.0 187.4 L 91.5 187.3 L 89.1 187.0 L 86.8 186.3 L 84.6 185.2 L 82.6 183.7 L 80.9 181.9 L 79.6 179.7 L 78.7 177.4 L 78.2 174.9 L 78.0 172.4 L 78.0 161.0 L 40.0 161.0 L 40.0 173.0 L 28.0 179.0 L 28.0 119.2 L 40.0 125.2 L 78.0 125.2 L 78.0 111.8 L 47.0 111.8 L 35.0 117.8 L 35.0 82.0 L 47.0 88.0 L 153.0 88.0 L 159.0 83.0 L 170.0 92.0 L 165.0 96.0 L 165.0 111.8 L 153.0 117.8 L 153.0 111.8 L 122.0 111.8 L 122.0 125.2 L 160.0 125.2 L 166.0 120.2 L 177.0 129.2 L 172.0 133.2 L 172.0 163.0 L 160.0 169.0 L 160.0 161.0 L 122.0 161.0 L 122.0 177.4 L 173.0 177.4 Z " />
</g>
</svg>
