<svg xmlns="http://www.w3.org/2000/svg" xmlns:xlink="http://www.w3.org/1999/xlink" version="1.1" baseProfile="full" viewBox="0 0 200 200" width="200" height="200">
<g fill="black">
<path d="M 88.9 182.2 L 87.3 181.0 L 85.5 179.6 L 83.4 178.3 L 81.1 176.8 L 78.5 175.3 L 75.7 173.7 L 72.6 172.0 L 69.2 170.7 L 69.7 169.0 L 73.3 169.7 L 76.9 169.9 L 80.1 170.3 L 83.2 170.8 L 86.1 171.3 L 88.8 171.9 L 91.3 172.5 L 93.6 173.1 L 95.8 173.8 L 97.9 174.6 L 100.3 178.4 L 99.5 182.9 L 97.83701429367065 183.99406957626343 L 102.4 182.1 L 107.4 180.0 L 112.1 177.9 L 116.4 176.0 L 120.5 174.0 L 124.3 172.1 L 127.7 170.2 L 130.8 168.3 L 132.66192970275878 166.98975315093995 L 132.6 166.9 L 132.67774229049684 166.97862577438354 L 133.5 166.4 L 135.40923080444335 169.74115381240844 L 141.4 175.8 L 141.5 179.1 L 137.87076025009156 177.59824562072754 L 136.0 178.4 L 132.2 179.9 L 128.1 181.3 L 123.8 182.6 L 119.2 183.8 L 114.4 185.0 L 109.2 186.1 L 103.8 187.1 L 98.0 187.8 L 91.9 188.5 L 91.5 186.7 L 94.90454549789429 185.24090909957886 L 91.2 184.5 L 90.2 183.4 Z M 97.5 126.0 L 92.5 130.0 L 92.5 158.3 L 81.3 163.9 L 94.3777777671814 163.9 L 100.6 156.9 L 108.6 163.9 L 108.6 167.9 L 51.8777777671814 167.9 L 52.372202682495114 168.92688245773314 L 59.9 175.9 L 60.1 179.2 L 56.22912149429321 177.60249462127686 L 52.8 178.9 L 49.0 180.2 L 45.0 181.4 L 41.0 182.7 L 36.8 183.8 L 32.5 184.9 L 28.1 186.0 L 23.5 186.9 L 18.8 187.7 L 13.9 188.4 L 13.4 186.7 L 17.7 184.5 L 21.9 182.3 L 26.0 180.2 L 30.0 178.2 L 33.9 176.2 L 37.6 174.3 L 41.2 172.3 L 44.7 170.5 L 48.1 168.6 L 49.27894735336304 167.9 L 27.1 167.9 L 15.1 173.9 L 15.1 123.0 L 27.1 125.0 L 30.1 127.0 L 27.1 128.8 L 27.1 163.9 L 39.3 163.9 L 39.3 118.5 L 36.3 118.5 L 34.0 118.6 L 31.8 118.5 L 29.6 118.0 L 27.4 117.1 L 25.5 115.8 L 23.8 114.2 L 22.4 112.1 L 21.4 109.9 L 20.7 107.5 L 20.3 105.0 L 20.3 93.8 L 32.3 95.8 L 35.3 97.8 L 32.3 99.6 L 32.3 103.47666664123535 L 38.2 102.1 L 55.6 98.5 L 61.3 97.3 L 66.9 96.1 L 72.4 94.9 L 77.9 93.6 L 82.31053895950318 92.53820362091065 L 82.3 92.5 L 82.33847379684448 92.5314785003662 L 83.3 92.3 L 83.52399997711181 93.50145454406739 L 94.4 102.4 L 94.8 105.4 L 90.34796743392944 103.17398376464844 L 85.5 104.1 L 79.9 104.8 L 74.2 105.4 L 68.4 106.0 L 62.6 106.5 L 56.7 106.9 L 50.8 107.2 L 44.8 107.4 L 38.7 107.5 L 32.6 107.3 L 32.1 107.26774196624756 L 32.1 108.6 L 32.2 109.1 L 32.4 109.6 L 32.9 110.2 L 33.7 110.7 L 34.8 111.2 L 36.3 111.5 L 95.6 111.5 L 99.1 106.5 L 101.1 106.5 L 99.1 111.5 L 101.2 112.9 L 102.6 115.0 L 101.2 117.1 L 99.1 118.5 L 88.33333330154419 118.5 Z M 172.8 183.6 L 170.7 181.9 L 168.5 180.3 L 166.0 178.7 L 163.4 177.0 L 160.5 175.4 L 157.4 173.8 L 154.1 172.0 L 150.6 170.7 L 151.0 168.9 L 154.8 169.4 L 158.6 169.7 L 162.2 170.2 L 165.4 170.74857139587402 L 165.4 165.2 L 125.9 165.2 L 113.9 171.2 L 113.9 109.6 L 125.9 115.6 L 132.4625 115.6 L 132.8 115.3 L 134.3 113.3 L 135.7 111.4 L 138.3 107.8 L 139.5 106.0 L 140.23333330154418 104.8 L 105.0 104.8 L 105.0 100.8 L 169.8181818008423 100.8 L 178.0 91.8 L 188.0 100.8 L 188.0 104.8 L 155.02631578445434 104.8 L 152.8 106.6 L 150.9 108.1 L 149.1 109.4 L 147.1 110.7 L 145.2 112.0 L 143.1 113.2 L 141.0 114.3 L 138.8 115.4 L 138.2888889312744 115.6 L 165.4 115.6 L 171.4 110.6 L 182.4 119.6 L 177.4 123.6 L 177.4 165.2 L 166.03673467636108 170.88163261413575 L 169.0 171.6 L 172.2 172.5 L 175.2 173.5 L 178.1 174.6 L 180.8 175.9 L 183.4 177.3 L 185.7 181.3 L 184.6 185.7 L 180.6 187.9 L 176.1 186.8 L 174.6 185.2 Z M 51.3 158.3 L 40.1 163.9 L 80.5 163.9 L 80.5 158.3 Z M 125.9 149.8 L 125.9 161.2 L 165.4 161.2 L 165.4 149.8 Z M 51.3 147.7 L 51.3 154.3 L 80.5 154.3 L 80.5 147.7 Z M 125.9 135.0 L 125.9 145.8 L 165.4 145.8 L 165.4 135.0 Z M 51.3 136.6 L 51.3 143.7 L 80.5 143.7 L 80.5 136.6 Z M 51.3 126.0 L 51.3 132.6 L 80.5 132.6 L 80.5 126.0 Z M 125.9 119.6 L 125.9 131.0 L 165.4 131.0 L 165.4 119.6 Z M 44.3 118.5 L 51.3 122.0 L 80.5 122.0 L 84.7 118.5 Z M 19.0 88.8 L 19.9 84.3 L 23.7 81.7 L 26.7 81.4 L 29.3 81.1 L 31.7 80.6 L 33.8 80.0 L 35.7 79.4 L 37.3 78.6 L 38.8 77.7 L 40.1 76.6 L 41.4 75.1 L 42.0 73.3 L 43.8 73.4 L 43.6 75.7 L 43.6 78.1 L 43.0 80.5 L 41.8 82.9 L 40.2 85.1 L 38.1 87.2 L 35.6 89.0 L 32.8 90.7 L 29.6 92.2 L 26.1 93.4 L 21.6 92.5 Z M 169.6 87.5 L 168.4 86.2 L 166.8 84.7 L 164.6 83.1 L 162.1 81.4 L 159.1 79.6 L 155.7 77.7 L 151.9 75.7 L 147.7 73.9 L 148.2 72.2 L 152.7 73.1 L 157.1 73.8 L 161.0 74.5 L 164.6 75.3 L 167.9 76.2 L 170.8 77.1 L 173.5 78.1 L 175.9 79.2 L 178.1 80.6 L 180.0 82.2 L 181.1 86.7 L 178.7 90.6 L 174.3 91.6 L 170.3 89.3 L 170.3 88.6 Z M 77.25011873245239 83.3491686820984 L 87.5 86.0 L 84.7 89.6 L 80.2 90.3 L 76.6 87.6 L 75.9 83.0 Z M 111.7 73.6 L 115.1 74.1 L 118.2 74.7 L 121.0 75.4 L 123.6 76.1 L 125.9 76.9 L 127.9 77.9 L 129.9 79.1 L 131.6 80.7 L 133.0 83.0 L 132.3 87.6 L 128.7 90.3 L 124.2 89.6 L 121.4 86.0 L 122.17753620147705 85.79891300201416 L 122.0 85.0 L 121.2 83.8 L 119.9 82.4 L 118.3 80.9 L 116.2 79.3 L 113.8 77.6 L 111.0 75.7 L 107.6 74.3 L 108.2 72.6 Z M 121.4 86.0 L 122.0 86.3 L 122.2 85.9 L 122.17753620147705 85.79891300201416 Z M 72.8 73.8 L 75.4 74.4 L 77.7 75.1 L 79.8 75.8 L 81.8 76.7 L 83.5 77.8 L 85.1 79.2 L 86.4 81.0 L 87.3 83.3 L 87.5 86.0 L 77.25011873245239 83.3491686820984 L 77.3 83.0 L 77.0 81.9 L 76.2 80.5 L 75.1 79.0 L 73.7 77.4 L 71.9 75.6 L 69.5 74.4 L 70.2 72.7 Z M 76.3 83.7 L 76.8 84.0 L 77.2 83.7 L 77.25011873245239 83.3491686820984 L 75.9 83.0 Z M 16.0 65.6 L 94.0 65.6 L 94.0 57.3 L 31.0 57.3 L 31.0 53.3 L 94.0 53.3 L 94.0 44.6 L 48.0 44.6 L 36.0 50.6 L 36.0 10.9 L 48.0 16.9 L 152.0 16.9 L 158.0 11.9 L 169.0 20.9 L 164.0 24.9 L 164.0 44.6 L 152.0 50.6 L 152.0 44.6 L 106.0 44.6 L 106.0 53.3 L 154.7777777671814 53.3 L 161.0 46.3 L 169.0 53.3 L 169.0 57.3 L 106.0 57.3 L 106.0 65.6 L 165.8181818008423 65.6 L 174.0 56.6 L 184.0 65.6 L 184.0 69.6 L 16.0 69.6 Z M 48.0 20.9 L 48.0 40.6 L 94.0 40.6 L 94.0 20.9 Z M 132.98999996185302 20.9 L 141.0 28.1 L 142.2 31.5 L 136.90242042541504 30.860636901855468 L 135.3 31.7 L 133.0 32.7 L 130.5 33.7 L 127.7 34.7 L 124.7 35.7 L 121.5 36.6 L 117.9 37.5 L 114.3 38.8 L 113.6 37.1 L 116.9 35.3 L 119.7 33.1 L 122.3 31.0 L 124.6 29.2 L 126.6 27.4 L 128.3 25.7 L 129.7 24.2 L 130.7 22.8 L 131.3309266090393 21.71841154098511 L 131.0 21.5 L 131.47142858505248 20.9 L 106.0 20.9 L 106.0 40.6 L 152.0 40.6 L 152.0 20.9 Z M 72.1 34.9 L 71.5 33.8 L 70.5 32.6 L 69.1 31.3 L 67.5 29.9 L 65.5 28.4 L 63.2 26.9 L 60.6 25.2 L 57.7 24.1 L 58.2 22.4 L 61.3 23.1 L 64.4 23.4 L 67.3 23.8 L 70.0 24.3 L 72.4 24.8 L 74.7 25.5 L 76.8 26.3 L 78.8 27.2 L 80.6 28.3 L 82.3 29.8 L 83.1 34.3 L 80.6 38.1 L 76.1 38.9 L 72.3 36.4 L 72.4 35.8 Z " />
</g>
</svg>
