<svg xmlns="http://www.w3.org/2000/svg" xmlns:xlink="http://www.w3.org/1999/xlink" version="1.1" baseProfile="full" viewBox="0 0 200 200" width="200" height="200">
<g fill="black">
<path d="M 169.3 169.5 L 165.0 164.8 L 161.0 159.8 L 157.2 154.6 L 153.6 149.1 L 150.2 143.3 L 147.1 137.3 L 145.5 133.5666666984558 L 145.5 182.0 L 133.5 188.0 L 133.5 138.3782608985901 L 132.1 140.6 L 127.2 147.5 L 121.9 154.0 L 116.3 160.0 L 110.4 165.6 L 104.2 170.7 L 97.6 175.3 L 90.7 179.3 L 83.4 182.7 L 82.5 181.2 L 88.6 176.2 L 94.3 171.1 L 99.9 165.8 L 105.1 160.2 L 110.0 154.4 L 114.6 148.2 L 119.0 141.8 L 123.0 135.0 L 126.7 127.9 L 128.0020408630371 125.0 L 92.7 125.0 L 92.7 121.0 L 133.5 121.0 L 133.5 98.0 L 145.5 100.0 L 148.5 102.0 L 145.5 103.8 L 145.5 121.0 L 165.3 121.0 L 175.3 111.0 L 187.3 121.0 L 187.3 125.0 L 145.5 125.0 L 145.5 125.70232553482056 L 148.0 128.9 L 152.1 134.2 L 156.2 139.3 L 160.3 144.2 L 164.5 148.7 L 168.7 153.1 L 173.0 157.1 L 177.4 160.9 L 181.9 164.5 L 186.4 167.7 L 189.3 169.9 L 178.4 178.2 L 173.7 174.0 Z M 11.0 184.8 L 9.8 180.4 L 12.0 176.4 L 13.9 175.2 L 15.8 173.7 L 17.6 171.9 L 19.3 169.8 L 20.9 167.3 L 22.4 164.5 L 23.8 161.4 L 25.1 157.9 L 26.3 154.1 L 27.1 149.9 L 28.9 150.0 L 29.1 154.3 L 29.4 158.6 L 29.3 162.6 L 28.9 166.5 L 28.1 170.2 L 27.1 173.7 L 25.7 177.0 L 24.0 180.2 L 21.9 183.1 L 19.4 185.8 L 15.0 187.0 Z M 57.4 167.2 L 57.2 164.5 L 56.9 161.9 L 56.5 159.2 L 56.1 156.6 L 54.9 151.4 L 54.2 148.7 L 53.1 146.3 L 54.6 145.3 L 56.4 147.4 L 58.4 149.4 L 60.3 151.7 L 62.0 154.1 L 63.6 156.6 L 65.0 159.3 L 66.3 162.1 L 67.5 165.0 L 68.5 168.0 L 69.4 171.2 L 68.2 175.6 L 64.3 177.9 L 59.9 176.7 L 57.5 172.8 L 57.5 170.0 Z M 43.0 181.9 L 39.2 179.3 L 38.2 174.9 L 39.0 172.5 L 39.6 170.1 L 40.1 167.5 L 40.4 164.9 L 40.6 162.2 L 40.7 159.4 L 40.5 156.5 L 40.3 153.5 L 39.9 150.3 L 39.0 147.2 L 40.7 146.5 L 42.4 149.4 L 44.2 152.2 L 45.7 155.1 L 47.0 158.1 L 48.1 161.1 L 49.0 164.3 L 49.6 167.4 L 49.9 170.6 L 50.1 173.9 L 50.0 177.1 L 47.4 180.9 Z M 74.9 164.2 L 74.5 161.4 L 73.9 158.6 L 73.2 155.8 L 72.3 153.1 L 71.3 150.4 L 68.9 144.8 L 67.2 142.3 L 68.5 141.1 L 70.9 143.1 L 73.5 145.1 L 75.8 147.4 L 78.0 149.8 L 80.0 152.5 L 81.8 155.3 L 83.4 158.2 L 84.9 161.3 L 86.1 164.6 L 87.2 168.0 L 86.2 172.4 L 82.3 174.9 L 77.9 173.8 L 75.4 170.0 L 75.2 167.1 Z M 11.9 134.9 L 18.4 133.4 L 25.1 132.0 L 32.1 130.7 L 39.4 129.4 L 43.2 128.8 L 43.2 109.0 L 19.1 109.0 L 19.1 105.0 L 43.2 105.0 L 43.2 81.0 L 28.3 81.0 L 28.3 88.0 L 16.3 94.0 L 16.3 15.0 L 28.3 21.0 L 70.1 21.0 L 76.1 16.0 L 87.1 25.0 L 82.1 29.0 L 82.1 85.0 L 70.1 91.0 L 70.1 81.0 L 55.2 81.0 L 55.2 105.0 L 61.5 105.0 L 71.5 95.0 L 83.5 105.0 L 83.5 109.0 L 55.2 109.0 L 55.2 127.050617313385 L 62.9 126.1 L 71.3 125.2 L 80.0 124.5 L 89.0 124.1 L 89.3 125.8 L 80.6 128.2 L 72.2 130.5 L 64.1 132.5 L 56.3 134.6 L 48.7 136.5 L 41.4 138.5 L 34.4 140.5 L 27.7 142.5 L 21.3 144.5 L 19.038405418395996 145.22954664230346 L 17.9 148.8 L 15.1 146.5 L 9.9 135.4 Z M 133.8 50.3 L 132.1 55.1 L 130.3 59.8 L 128.4 64.6 L 126.5 69.3 L 124.5 73.9 L 122.3 78.6 L 120.1 83.2 L 117.80816898345947 87.5926760673523 L 118.9 87.4 L 125.9 86.1 L 132.8 84.8 L 139.8 83.4 L 154.0 80.6 L 161.2 79.3 L 162.45316305160523 79.09400062561035 L 160.6 74.9 L 156.4 66.5 L 154.3 62.4 L 152.1 58.3 L 153.5 57.1 L 157.2 60.1 L 160.7 63.4 L 164.0 67.1 L 167.0 71.0 L 169.9 75.1 L 172.7 79.5 L 175.3 84.1 L 177.8 89.0 L 180.1 94.0 L 182.3 99.2 L 181.9 103.7 L 178.5 106.8 L 173.9 106.4 L 170.9 103.0 L 169.4 97.9 L 167.8 93.0 L 166.2 88.3 L 164.4 83.7 L 163.7742230415344 82.21789674758911 L 162.3 82.9 L 155.5 85.8 L 148.7 88.3 L 141.8 90.7 L 135.0 93.0 L 128.1 95.2 L 121.2 97.2 L 114.4 99.1 L 107.5 100.9 L 104.75643157958984 101.58589210510254 L 103.3 105.2 L 100.7 102.6 L 96.4 91.3 L 98.4 90.9 L 105.2 89.8 L 112.1 88.6 L 113.81814947128296 88.29679718017579 L 114.1 86.5 L 115.0 81.5 L 116.1 76.5 L 117.3 71.6 L 118.4 66.6 L 119.5 61.7 L 120.7 56.9 L 121.8 52.0 L 122.9 47.2 L 123.1625 46.0 L 92.7 46.0 L 92.7 42.0 L 133.5 42.0 L 133.5 12.0 L 145.5 14.0 L 148.5 16.0 L 145.5 17.8 L 145.5 42.0 L 165.3 42.0 L 175.3 32.0 L 187.3 42.0 L 187.3 46.0 L 135.35531911849975 46.0 Z M 31.1 54.7 L 30.7 51.8 L 30.2 49.0 L 29.7 46.3 L 28.5 41.1 L 28.3 40.060000038146974 L 28.3 77.0 L 43.2 77.0 L 43.2 65.3 L 43.0 66.3 L 39.2 68.9 L 34.7 68.0 L 32.1 64.2 L 31.9 60.9 Z M 68.9 47.9 L 67.2 51.0 L 65.3 54.0 L 63.4 57.1 L 59.0 63.3 L 56.5 66.3 L 55.2 67.97916669845581 L 55.2 77.0 L 70.1 77.0 L 70.1 45.575 Z M 55.2 25.0 L 55.2 60.61666669845581 L 56.2 57.7 L 57.2 54.2 L 58.2 50.8 L 59.1 47.6 L 60.0 44.3 L 61.4 38.1 L 61.73952703475952 36.130743217468265 L 61.6 36.1 L 62.4 33.6 L 70.1 37.16999998092651 L 70.1 25.0 Z M 28.3 25.0 L 28.3 35.43333330154419 L 28.5 35.3 L 30.2 37.2 L 32.2 39.2 L 34.0 41.4 L 35.7 43.8 L 37.3 46.3 L 38.8 49.1 L 40.2 52.0 L 41.5 55.1 L 42.7 58.4 L 43.2 59.81666669845581 L 43.2 25.0 Z " />
</g>
</svg>
