<svg xmlns="http://www.w3.org/2000/svg" xmlns:xlink="http://www.w3.org/1999/xlink" version="1.1" baseProfile="full" viewBox="0 0 200 200" width="200" height="200">
<g fill="black">
<path d="M 89.2 174.0 L 89.4 174.6 L 89.5 175.0 L 89.7 175.3 L 89.9 175.5 L 90.2 175.7 L 90.9 176.0 L 91.8 176.2 L 93.1 176.3 L 108.8 176.3 L 108.8 87.6 L 89.1 87.6 L 89.1 173.1 Z M 120.8 142.6 L 120.8 155.5 L 158.3 155.5 L 158.3 142.6 Z M 39.6 142.6 L 39.6 155.5 L 77.1 155.5 L 77.1 142.6 Z M 120.8 126.3 L 120.8 138.6 L 158.3 138.6 L 158.3 126.3 Z M 39.6 126.3 L 39.6 138.6 L 77.1 138.6 L 77.1 126.3 Z M 120.8 87.6 L 120.8 104.2 L 151.4 104.2 L 151.4 87.6 Z M 46.5 87.6 L 46.5 104.2 L 77.1 104.2 L 77.1 87.6 Z M 93.80078954696656 14.65286226272583 L 103.7 22.8 L 104.0 25.9 L 99.73396224975586 23.917193698883057 L 96.6 24.8 L 91.7 25.7 L 86.7 26.7 L 81.5 27.5 L 76.1 28.3 L 70.6 29.1 L 64.8 29.8 L 58.9 30.4 L 52.9 30.9 L 46.6 31.2 L 46.0 31.2 L 46.0 46.5 L 75.0 46.5 L 85.0 36.5 L 97.0 46.5 L 97.0 50.5 L 46.0 50.5 L 46.0 67.5 L 154.0 67.5 L 154.0 50.5 L 109.0 50.5 L 109.0 46.5 L 154.0 46.5 L 154.0 29.4 L 110.0 29.4 L 110.0 25.4 L 154.0 25.4 L 160.0 20.4 L 171.0 29.4 L 166.0 33.4 L 166.0 71.5 L 154.0 77.5 L 154.0 71.5 L 46.0 71.5 L 34.0 77.5 L 34.0 22.3 L 44.873267364501956 27.736633682250975 L 45.9 27.4 L 51.9 25.6 L 57.7 23.9 L 63.4 22.4 L 68.9 20.8 L 74.1 19.3 L 79.2 17.7 L 84.1 16.2 L 88.9 14.7 L 92.41102361679077 13.529658794403076 L 92.4 13.5 L 92.42882652282715 13.523724460601807 L 93.4 13.2 Z M 176.2 155.3 L 178.2 155.3 L 176.2 176.3 L 179.5 178.5 L 181.7 181.8 L 179.5 185.1 L 176.2 187.3 L 93.1 187.3 L 90.6 187.2 L 88.2 186.9 L 85.8 186.1 L 83.5 185.0 L 81.5 183.4 L 79.9 181.4 L 78.6 179.2 L 77.8 176.9 L 77.3 174.4 L 77.1 171.8 L 77.1 159.5 L 39.6 159.5 L 39.6 171.5 L 27.6 177.5 L 27.6 116.3 L 39.6 122.3 L 77.1 122.3 L 77.1 108.2 L 46.5 108.2 L 34.5 114.2 L 34.5 77.6 L 46.5 83.6 L 151.4 83.6 L 157.4 78.6 L 168.4 87.6 L 163.4 91.6 L 163.4 108.2 L 151.4 114.2 L 151.4 108.2 L 120.8 108.2 L 120.8 122.3 L 158.3 122.3 L 164.3 117.3 L 175.3 126.3 L 170.3 130.3 L 170.3 163.5 L 158.3 169.5 L 158.3 159.5 L 120.8 159.5 L 120.8 176.3 L 170.7 176.3 Z " />
</g>
</svg>
