<svg xmlns="http://www.w3.org/2000/svg" xmlns:xlink="http://www.w3.org/1999/xlink" version="1.1" baseProfile="full" viewBox="0 0 200 200" width="200" height="200">
<g fill="black">
<path d="M 12.6 184.8 L 11.5 180.3 L 13.8 176.4 L 15.9 175.1 L 17.8 173.6 L 19.7 171.8 L 21.5 169.7 L 23.2 167.3 L 24.7 164.5 L 26.2 161.4 L 27.5 157.9 L 28.8 154.1 L 29.5 149.9 L 31.3 150.0 L 31.6 154.4 L 31.8 158.6 L 31.7 162.6 L 31.2 166.5 L 30.3 170.2 L 29.2 173.8 L 27.7 177.2 L 25.8 180.3 L 23.6 183.3 L 21.0 185.9 L 16.6 187.0 Z M 182.1 145.0 L 184.1 145.0 L 182.1 170.0 L 185.7 172.4 L 188.1 176.0 L 185.7 179.6 L 182.1 182.0 L 166.5 182.0 L 164.0 181.8 L 161.5 181.4 L 159.1 180.6 L 156.8 179.3 L 154.8 177.7 L 153.1 175.7 L 151.9 173.4 L 151.1 171.0 L 150.7 168.5 L 150.5 166.0 L 150.5 86.0 L 124.6 86.0 L 124.6 113.0 L 123.7 123.6 L 122.0 133.5 L 119.4 142.8 L 116.0 151.5 L 111.8 159.5 L 106.7 166.7 L 100.9 173.3 L 94.2 179.0 L 86.8 183.8 L 78.6 187.7 L 77.7 186.2 L 84.6 180.7 L 90.7 174.9 L 96.0 168.8 L 100.5 162.4 L 104.3 155.4 L 107.4 148.0 L 109.8 140.1 L 111.4 131.6 L 112.4 122.5 L 112.6 112.9 L 112.6 76.0 L 124.6 82.0 L 150.5 82.0 L 156.5 77.0 L 167.5 86.0 L 162.5 90.0 L 162.5 166.0 L 162.6 167.2 L 162.7 168.1 L 162.9 168.7 L 163.1 169.0 L 163.5 169.4 L 164.4 169.7 L 165.3 169.9 L 166.5 170.0 L 176.1 170.0 Z M 61.8 167.3 L 61.2 161.9 L 60.8 159.3 L 60.2 156.6 L 59.6 154.0 L 58.9 151.4 L 58.2 148.7 L 57.0 146.3 L 58.4 145.2 L 60.3 147.4 L 62.4 149.4 L 64.4 151.6 L 66.1 154.0 L 67.8 156.6 L 69.3 159.2 L 70.6 162.0 L 71.8 164.9 L 72.9 168.0 L 73.8 171.1 L 72.6 175.5 L 68.7 177.9 L 64.3 176.7 L 61.9 172.8 L 61.9 170.0 Z M 46.2 181.9 L 42.5 179.3 L 41.5 174.8 L 42.3 172.5 L 43.0 170.0 L 43.5 167.5 L 43.8 165.0 L 44.0 162.3 L 44.0 159.5 L 43.8 156.6 L 43.5 153.5 L 43.1 150.4 L 42.1 147.2 L 43.8 146.5 L 45.5 149.4 L 47.4 152.2 L 49.0 155.1 L 50.4 158.1 L 51.5 161.1 L 52.3 164.2 L 52.9 167.4 L 53.3 170.6 L 53.4 173.9 L 53.3 177.2 L 50.7 181.0 Z M 80.2 164.3 L 79.7 161.5 L 79.1 158.7 L 78.3 155.9 L 77.4 153.2 L 76.3 150.4 L 75.0 147.7 L 73.6 144.8 L 71.8 142.3 L 73.1 141.0 L 75.6 143.1 L 78.3 145.1 L 80.7 147.3 L 83.0 149.7 L 85.1 152.4 L 87.0 155.2 L 88.6 158.1 L 90.2 161.3 L 91.5 164.5 L 92.6 167.9 L 91.6 172.4 L 87.8 174.9 L 83.3 173.9 L 80.8 170.1 L 80.6 167.1 Z M 13.5 134.9 L 20.4 133.4 L 27.5 132.0 L 34.9 130.7 L 42.6 129.4 L 46.8 128.76202535629272 L 46.8 109.0 L 21.0 109.0 L 21.0 105.0 L 46.8 105.0 L 46.8 81.0 L 30.5 81.0 L 30.5 88.0 L 18.5 94.0 L 18.5 15.0 L 30.5 21.0 L 75.2 21.0 L 81.2 16.0 L 92.2 25.0 L 87.2 29.0 L 87.2 85.0 L 75.2 91.0 L 75.2 81.0 L 58.8 81.0 L 58.8 105.0 L 67.0 105.0 L 77.0 95.0 L 89.0 105.0 L 89.0 109.0 L 58.8 109.0 L 58.8 127.1 L 67.3 126.1 L 76.2 125.2 L 85.4 124.5 L 94.8 124.1 L 95.1 125.8 L 86.0 128.2 L 77.1 130.5 L 68.5 132.5 L 60.2 134.6 L 52.2 136.5 L 44.5 138.5 L 37.1 140.5 L 29.9 142.5 L 23.1 144.5 L 20.6069766998291 145.27906980514527 L 19.4 148.9 L 16.7 146.5 L 11.6 135.4 Z M 34.0 54.8 L 33.5 51.9 L 33.0 49.1 L 32.4 46.3 L 31.8 43.7 L 31.1 41.1 L 30.5 38.6 L 30.5 77.0 L 46.8 77.0 L 46.8 62.288888931274414 L 46.0 66.2 L 42.3 68.9 L 37.8 68.0 L 35.2 64.3 L 34.8 61.0 Z M 75.0 44.9 L 73.3 48.0 L 71.5 51.0 L 69.6 54.1 L 67.6 57.2 L 65.4 60.3 L 63.0 63.3 L 60.4 66.3 L 58.8 68.28400001525878 L 58.8 77.0 L 75.2 77.0 L 75.2 44.5125 Z M 58.8 25.0 L 58.8 62.025 L 59.1 61.1 L 61.5 54.1 L 63.5 47.5 L 64.5 44.3 L 65.3 41.1 L 66.0 38.1 L 66.41470584869384 36.0264705657959 L 66.3 36.0 L 67.1 33.5 L 75.2 37.3642201423645 L 75.2 25.0 Z M 30.5 25.0 L 30.5 35.49333333969116 L 30.9 35.2 L 32.7 37.2 L 34.7 39.1 L 36.6 41.3 L 38.3 43.7 L 40.0 46.3 L 41.6 49.0 L 43.0 52.0 L 44.4 55.1 L 45.7 58.3 L 46.8 61.50833330154419 L 46.8 25.0 Z M 95.5 49.0 L 131.6 49.0 L 131.6 14.0 L 143.6 16.0 L 146.6 18.0 L 143.6 19.8 L 143.6 49.0 L 163.4 49.0 L 173.4 39.0 L 185.4 49.0 L 185.4 53.0 L 95.5 53.0 Z " />
</g>
</svg>
