<svg xmlns="http://www.w3.org/2000/svg" xmlns:xlink="http://www.w3.org/1999/xlink" version="1.1" baseProfile="full" viewBox="0 0 200 200" width="200" height="200">
<g fill="black">
<path d="M 90.0 180.7 L 87.2 175.0 L 85.0 168.1 L 83.3 159.7 L 82.0 149.8 L 81.0 138.5 L 80.3 125.5 L 80.20476188659669 118.59523811340333 L 78.1 120.7 L 73.5 120.6 L 70.2 117.4 L 70.0 115.6 L 69.2 112.0 L 68.0 108.2 L 67.3 106.2 L 66.6 104.3 L 64.8 100.1 L 63.600775146484374 98.43953485488892 L 63.0 98.8 L 63.0 122.12857141494752 L 64.2 121.1 L 65.8 122.7 L 67.8 124.1 L 69.7 125.7 L 71.4 127.5 L 73.2 129.4 L 74.8 131.5 L 76.5 133.7 L 78.0 136.0 L 81.0 141.0 L 80.7 145.6 L 77.4 148.8 L 72.9 148.5 L 69.7 145.2 L 69.2 142.6 L 68.6 140.1 L 67.4 135.3 L 66.0 130.7 L 64.6 126.3 L 64.0 124.1 L 63.0 122.6 L 63.0 163.1125 L 64.5 162.4 L 68.6 160.5 L 72.8 158.6 L 77.0 156.9 L 81.3 155.2 L 82.3 156.7 L 78.8 159.8 L 75.4 162.8 L 68.4 168.6 L 57.9 176.7 L 50.91134519577027 181.89157209396362 L 50.8 185.9 L 47.5 184.5 L 39.4 175.4 L 41.1 174.3 L 48.7 170.3 L 51.0 169.12051286697388 L 51.0 145.6 L 47.7 148.8 L 43.2 148.5 L 40.0 145.2 L 39.5 142.6 L 38.9 140.1 L 37.7 135.3 L 36.3 130.7 L 34.9 126.3 L 34.3 124.1 L 33.1 122.3 L 34.5 121.1 L 36.1 122.7 L 38.1 124.1 L 40.0 125.7 L 41.7 127.5 L 43.5 129.4 L 45.1 131.5 L 46.8 133.7 L 48.3 136.0 L 51.0 140.5 L 51.0 117.5 L 47.8 120.7 L 43.2 120.6 L 40.0 117.4 L 39.4 113.8 L 37.9 108.1 L 37.2 106.2 L 35.8 102.2 L 35.0 100.1 L 34.00232553482056 98.71860466003417 L 32.2 99.8 L 32.2 164.0777777671814 L 33.5 163.5 L 41.1 160.3 L 45.0 158.8 L 48.9 157.2 L 49.9 158.7 L 43.5 164.3 L 40.4 167.0 L 34.0 172.0 L 27.6 176.8 L 24.4 179.1 L 21.68365612030029 181.11535186767577 L 21.4 185.2 L 18.2 183.6 L 10.4 174.3 L 12.2 173.3 L 15.6 171.7 L 19.1 170.0 L 21.2875 169.0 L 20.2 169.0 L 20.2 94.0 L 32.2 96.0 L 34.553125 97.56875 L 35.1 97.1 L 36.7 98.6 L 38.7 99.9 L 42.3 102.7 L 43.9 104.2 L 45.5 105.9 L 47.1 107.5 L 48.5 109.3 L 51.0 112.7615385055542 L 51.0 93.0 L 63.0 95.0 L 66.0 97.0 L 65.26717557907105 97.43969469070434 L 66.5 98.6 L 68.5 99.8 L 70.5 101.2 L 72.3 102.6 L 75.7 105.8 L 78.7 109.2 L 80.1 111.0 L 80.1 92.5 L 92.1 95.0 L 95.1 97.1 L 92.1 98.80588235855103 L 92.1 110.9 L 92.3 125.1 L 92.9 137.7 L 93.9 148.5 L 95.1 157.7 L 96.7 165.1 L 97.12390747070313 166.49640102386473 L 100.7 151.0 L 102.7 151.0 L 100.8461929321289 175.0994923591614 L 101.5 175.8 L 101.8 176.1 L 105.6 178.6 L 106.6 183.1 L 104.0 186.9 L 99.6 187.8 L 94.0 185.2 Z M 153.6 161.0 L 161.6 161.0 L 162.9 160.9 L 163.8 160.7 L 164.7 160.4 L 164.9 160.2 L 165.0 160.0 L 165.2 159.7 L 165.4 159.1 L 165.6 158.2 L 165.6 116.0 L 150.5 116.0 L 150.5 183.0 L 138.5 189.0 L 138.5 116.0 L 123.3 116.0 L 123.3 167.0 L 111.3 173.0 L 111.3 106.0 L 123.3 112.0 L 138.5 112.0 L 138.5 90.0 L 150.5 92.0 L 153.5 94.0 L 150.5 95.8 L 150.5 112.0 L 165.6 112.0 L 171.6 107.0 L 182.6 116.0 L 177.6 120.0 L 177.6 157.0 L 177.5 159.5 L 177.1 162.0 L 176.2 164.4 L 175.0 166.7 L 173.4 168.7 L 171.4 170.3 L 169.1 171.6 L 166.7 172.4 L 164.2 172.8 L 161.6 173.0 L 161.6 167.0 L 153.6 164.0 Z M 101.1 108.3 L 99.4 104.1 L 101.1 99.8 L 101.8 99.6 L 102.7 98.8 L 103.7 97.4 L 104.8 95.5 L 105.8 93.1 L 106.7 90.2 L 107.6 86.9 L 108.5 83.2 L 109.3 79.1 L 109.7 74.6 L 111.5 74.6 L 112.0 79.1 L 112.348837184906 81.6 L 150.97142858505248 81.6 L 151.6 79.4 L 152.6 75.2 L 153.7 71.1 L 154.7 67.2 L 155.8 63.4 L 156.8 59.7 L 157.8 56.1 L 158.7 52.6 L 159.5 49.2 L 160.1441304206848 46.838188362121585 L 160.0 46.8 L 160.9 44.4 L 171.7 49.9 L 173.8 52.8 L 169.87087383270264 53.55825242996216 L 168.5 56.3 L 166.8 59.6 L 163.2 66.4 L 161.2 69.9 L 159.1 73.5 L 156.9 77.0 L 154.4 80.6 L 153.77837839126587 81.6 L 175.7 81.6 L 181.7 76.6 L 192.7 85.6 L 187.7 88.6 L 184.37692308425903 89.98461542129516 L 183.9 90.7 L 182.6 92.5 L 181.1 94.4 L 179.6 96.4 L 178.0 98.5 L 176.2 100.6 L 174.3 102.8 L 172.7 105.3 L 171.1 104.4 L 172.2 101.7 L 172.8 98.9 L 173.4 96.2 L 174.0 93.7 L 174.5 91.3 L 175.0 89.1 L 175.4 87.0 L 175.61000003814698 85.6 L 112.81999998092651 85.6 L 113.0 87.4 L 113.2 91.0 L 113.3 94.4 L 113.1 97.6 L 112.7 100.5 L 112.1 103.2 L 111.1 105.8 L 109.6 108.2 L 105.4 110.0 Z M 58.4 24.2 L 58.7 27.8 L 54.89026012420654 26.483908081054686 L 52.0 28.2 L 48.8 30.0 L 42.2 33.2 L 38.8 34.6 L 35.4 35.9 L 31.9 37.0 L 30.6 37.29714288711548 L 30.6 58.0 L 39.477777767181394 58.0 L 45.7 51.0 L 53.7 58.0 L 53.7 62.0 L 30.6 62.0 L 30.6 83.0 L 83.4 83.0 L 83.4 62.0 L 63.4 62.0 L 63.4 58.0 L 83.4 58.0 L 83.4 39.0 L 61.3 39.0 L 61.3 35.0 L 83.4 35.0 L 89.4 30.0 L 100.4 39.0 L 95.4 43.0 L 95.4 87.0 L 83.4 93.0 L 83.4 87.0 L 30.6 87.0 L 18.6 93.0 L 18.6 30.0 L 27.88450708389282 34.6422534942627 L 29.9 33.0 L 32.7 30.8 L 35.4 28.7 L 38.1 26.5 L 43.3 22.1 L 45.8 19.7 L 48.3 17.4 L 50.04941177368164 15.650588226318359 L 50.0 15.6 L 50.45 15.25 L 50.7 15.0 L 50.72816390991211 15.033650302886963 L 50.9 14.9 Z M 124.7 69.7 L 124.1 66.5 L 123.4 63.5 L 122.6 60.5 L 121.0 54.9 L 120.1 52.3 L 119.2 49.6 L 118.0 47.3 L 119.4 46.1 L 121.4 48.1 L 123.6 50.0 L 125.7 52.2 L 127.7 54.7 L 129.6 57.3 L 131.4 60.2 L 133.0 63.3 L 134.6 66.5 L 136.1 70.0 L 137.5 73.6 L 136.7 78.1 L 133.1 80.9 L 128.6 80.1 L 125.8 76.5 L 125.3 73.0 Z M 105.2 40.0 L 138.5 40.0 L 138.5 12.0 L 150.5 14.0 L 153.5 16.0 L 150.5 17.8 L 150.5 40.0 L 161.7 40.0 L 171.7 30.0 L 183.7 40.0 L 183.7 44.0 L 105.2 44.0 Z " />
</g>
</svg>
