<svg xmlns="http://www.w3.org/2000/svg" xmlns:xlink="http://www.w3.org/1999/xlink" version="1.1" baseProfile="full" viewBox="0 0 200 200" width="200" height="200">
<g fill="black">
<path d="M 174.1 149.5 L 176.1 149.5 L 174.1 174.5 L 177.7 176.9 L 180.1 180.5 L 177.7 184.1 L 174.1 186.5 L 132.2 186.5 L 129.6 186.4 L 127.1 185.9 L 124.7 185.1 L 122.4 183.9 L 120.4 182.3 L 118.8 180.2 L 117.6 178.0 L 116.7 175.6 L 116.3 173.1 L 116.2 170.5 L 116.2 148.2 L 77.1 149.9 L 76.9 145.9 L 116.2 144.19299116134644 L 116.2 124.53863639831543 L 110.9 124.9 L 101.5 125.5 L 91.7 125.9 L 81.3 126.2 L 81.0 124.4 L 91.2 122.2 L 100.9 120.2 L 110.0 118.4 L 118.6 116.7 L 126.8 115.1 L 134.3 113.6 L 141.4 112.1 L 147.9 110.6 L 153.9 109.2 L 158.40883140563966 108.03104372024536 L 158.4 108.0 L 158.43035154342653 108.0254644393921 L 159.3 107.8 L 159.5342224121094 108.95159330368043 L 170.2 117.9 L 170.6 120.8 L 166.25905513763428 118.68818893432618 L 161.7 119.6 L 156.0 120.4 L 149.8 121.2 L 143.0 122.0 L 135.8 122.8 L 128.2 123.48205127716065 L 128.2 143.6717670440674 L 156.2759017944336 142.45228071212767 L 165.8 132.1 L 178.2 141.5 L 178.3 145.5 L 128.2 147.67826089859008 L 128.2 171.7 L 128.4 172.7 L 128.6 173.2 L 128.9 173.8 L 129.1 173.9 L 129.4 174.1 L 130.0 174.3 L 130.9 174.4 L 132.2 174.5 L 168.1 174.5 Z M 37.5 121.1 L 59.5 121.1 L 65.5 116.1 L 76.5 125.1 L 71.5 129.1 L 71.5 169.4 L 59.5 175.4 L 59.5 163.4 L 37.5 163.4 L 37.5 175.4 L 25.5 181.4 L 25.5 115.1 Z M 37.5 125.1 L 37.5 159.4 L 59.5 159.4 L 59.5 125.1 Z M 15.4 99.1 L 32.2 98.1 L 39.94117650985718 97.5470588684082 L 38.3 95.8 L 38.2 94.4 L 38.0 92.9 L 37.7 91.4 L 37.3 89.8 L 36.8 88.2 L 36.1 86.5 L 35.4 84.7 L 34.5 82.9 L 33.6 81.0 L 32.1 79.4 L 33.3 78.1 L 35.0 79.4 L 37.1 80.4 L 39.0 81.4 L 40.8 82.6 L 42.5 83.9 L 44.1 85.2 L 45.6 86.7 L 47.0 88.2 L 48.3 89.8 L 49.5 91.5 L 49.3 96.1 L 48.43325300216675 96.94048194885254 L 57.4 96.3 L 61.87091579437256 95.98440589904786 L 62.7 94.8 L 63.6 92.5 L 64.6 90.3 L 65.5 88.2 L 66.5 86.2 L 67.4 84.2 L 68.3 82.4 L 69.9 78.8 L 70.22844076156616 78.04927816390992 L 70.0 77.9 L 70.5384614944458 77.2 L 34.0 77.2 L 22.0 83.2 L 22.0 49.9 L 34.0 55.9 L 78.0 55.9 L 84.0 50.9 L 95.0 59.9 L 90.0 63.9 L 90.0 77.2 L 78.38232927322387 83.00883531570435 L 80.1 84.5 L 81.2 87.9 L 76.51980199813843 87.33514852523804 L 75.5 88.1 L 72.1 90.7 L 70.3 92.1 L 68.4 93.4 L 66.5 94.8 L 65.06118421554565 95.75921049118043 L 65.9 95.7 L 74.3 95.0 L 82.8 94.4 L 99.8 93.6 L 100.1 95.4 L 91.8 97.7 L 83.5 99.8 L 75.2 101.6 L 66.8 103.2 L 58.5 104.7 L 50.1 106.2 L 33.3 108.8 L 20.5502140045166 110.46961479187011 L 18.7 113.8 L 16.5 111.0 L 13.4 99.2 Z M 158.6 106.0 L 150.4 102.2 L 142.8 97.8 L 137.99058408737181 94.29599695205688 L 129.0 98.6 L 118.8 102.4 L 108.0 105.5 L 96.4 107.6 L 84.1 108.9 L 83.8 107.1 L 95.6 103.9 L 106.4 100.3 L 116.5 96.3 L 125.7 91.8 L 131.16593074798584 88.50727062225342 L 129.5 87.0 L 123.9 80.7 L 118.9 73.8 L 114.8 66.3 L 111.87654323577881 58.9 L 102.0 58.9 L 102.0 54.9 L 133.0 54.9 L 133.0 35.7 L 100.0 35.7 L 100.0 31.7 L 133.0 31.7 L 133.0 12.5 L 145.0 14.5 L 148.0 16.5 L 145.0 18.3 L 145.0 31.7 L 167.8181818008423 31.7 L 176.0 22.7 L 186.0 31.7 L 186.0 35.7 L 145.0 35.7 L 145.0 54.9 L 163.0 54.9 L 163.34576272964478 54.61186437606811 L 163.7 54.0 L 163.9285223007202 54.12623138427735 L 169.0 49.9 L 180.0 58.9 L 175.0 61.9 L 171.91620111465454 63.18491621017456 L 168.6 68.1 L 162.2 75.7 L 155.0 82.6 L 147.25713081359862 88.57867116928101 L 148.0 89.0 L 155.1 92.2 L 162.6 94.9 L 170.6 97.1 L 179.2 98.6 L 188.5 100.4 L 176.7 111.6 L 167.4 109.1 Z M 118.3 64.1 L 123.6 70.3 L 129.2 75.8 L 135.0 80.8 L 138.67849225997924 83.36910572052003 L 141.5 81.3 L 148.2 75.2 L 154.2 68.7 L 159.3 61.6 L 160.86315793991088 58.9 L 114.34179105758668 58.9 Z M 71.6911392211914 77.2 L 78.0 82.67692308425903 L 78.0 77.2 Z M 34.0 59.9 L 34.0 73.2 L 78.0 73.2 L 78.0 59.9 Z M 18.0 41.4 L 50.0 41.4 L 50.0 29.0 L 13.0 29.0 L 13.0 25.0 L 50.0 25.0 L 50.0 12.5 L 62.0 14.5 L 65.0 16.5 L 62.0 18.3 L 62.0 25.0 L 86.77777776718139 25.0 L 93.0 18.0 L 101.0 25.0 L 101.0 29.0 L 62.0 29.0 L 62.0 41.4 L 77.81818180084228 41.4 L 86.0 32.4 L 96.0 41.4 L 96.0 45.4 L 18.0 45.4 Z " />
</g>
</svg>
