<svg xmlns="http://www.w3.org/2000/svg" xmlns:xlink="http://www.w3.org/1999/xlink" version="1.1" baseProfile="full" viewBox="0 0 200 200" width="200" height="200">
<g fill="black">
<path d="M 17.0 182.1 L 94.0 182.1 L 94.0 161.3 L 37.0 161.3 L 37.0 157.3 L 144.8181818008423 157.3 L 153.0 148.3 L 163.0 157.3 L 163.0 161.3 L 106.0 161.3 L 106.0 182.1 L 161.0 182.1 L 171.0 172.1 L 183.0 182.1 L 183.0 186.1 L 17.0 186.1 Z M 85.8 123.5 L 88.4 125.9 L 84.33484535217285 127.66412372589112 L 83.9 128.9 L 80.8 133.7 L 76.5 137.8 L 71.3 141.4 L 65.1 144.6 L 58.0 147.5 L 49.9 150.1 L 40.7 152.3 L 30.4 154.2 L 19.1 155.7 L 18.8 154.0 L 29.6 150.5 L 39.2 147.2 L 47.7 143.9 L 55.0 140.5 L 61.2 137.1 L 66.1 133.7 L 69.7 130.4 L 72.2 127.2 L 73.5 124.4 L 73.74574670791625 122.80264654159546 L 73.7 122.8 L 74.2 119.8 Z M 173.0 130.5 L 175.0 130.5 L 173.0 139.5 L 175.4 141.1 L 177.0 143.5 L 175.4 145.9 L 173.0 147.5 L 125.6 147.5 L 123.3 147.3 L 121.0 146.8 L 118.9 145.9 L 116.9 144.5 L 115.2 142.7 L 113.9 140.7 L 112.9 138.4 L 112.3 136.0 L 112.0 133.5 L 112.0 120.2 L 124.0 122.2 L 127.0 124.2 L 124.0 126.0 L 124.0 133.5 L 123.8 134.7 L 123.8 136.4 L 123.9 137.0 L 124.0 137.4 L 124.2 137.9 L 124.7 138.3 L 125.4 138.8 L 126.5 139.2 L 128.0 139.5 L 169.0 139.5 Z M 17.5 132.8 L 17.9 128.3 L 21.3 125.2 L 23.2 124.9 L 25.0 124.5 L 26.5 123.9 L 28.0 123.1 L 29.3 122.1 L 30.6 120.7 L 31.8 119.0 L 32.9 116.9 L 33.8 114.5 L 34.0 111.6 L 35.8 111.5 L 36.1 114.5 L 36.20344829559326 115.1 L 95.5 115.1 L 95.5 100.7 L 107.5 102.7 L 110.5 104.7 L 107.5 106.5 L 107.5 115.1 L 168.8 115.1 L 169.6470588684082 114.39411764144897 L 170.0 113.9 L 170.8 112.6 L 171.2255319595337 113.07872343063354 L 174.8 110.1 L 185.8 119.1 L 180.8 122.1 L 168.8 127.1 L 168.8 126.37391300201416 L 166.9 127.2 L 164.3 128.2 L 161.6 129.3 L 158.8 130.3 L 156.0 131.8 L 155.0 130.2 L 157.5 128.3 L 159.5 126.1 L 161.5 124.0 L 163.3 122.0 L 164.9 120.2 L 165.87058820724488 119.1 L 36.65862064361572 119.1 L 36.7 120.3 L 36.4 123.1 L 35.6 125.8 L 34.3 128.4 L 32.6 130.9 L 30.5 133.1 L 28.0 135.0 L 25.2 136.6 L 20.6 136.2 Z M 15.4 96.4 L 23.8 96.0 L 32.2 95.5 L 39.9 94.95 L 38.3 93.3 L 38.2 91.9 L 38.0 90.5 L 37.7 89.0 L 37.3 87.4 L 36.8 85.8 L 36.2 84.2 L 35.4 82.4 L 34.5 80.6 L 33.6 78.7 L 32.1 77.2 L 33.3 75.9 L 35.0 77.2 L 37.1 78.1 L 39.0 79.1 L 40.8 80.3 L 42.5 81.5 L 44.1 82.8 L 45.6 84.2 L 47.0 85.7 L 48.3 87.3 L 49.5 89.0 L 49.3 93.6 L 48.44066591262818 94.43329372406006 L 49.0 94.4 L 57.4 93.8 L 61.90998754501343 93.42858924865723 L 62.7 92.3 L 63.6 90.0 L 65.6 85.8 L 66.5 83.8 L 68.3 80.0 L 69.1 78.2 L 69.9 76.5 L 70.19398641586304 75.82803106307983 L 70.0 75.7 L 70.4714285850525 75.1 L 34.0 75.1 L 22.0 81.1 L 22.0 48.0 L 34.0 54.0 L 78.0 54.0 L 84.0 49.0 L 95.0 58.0 L 90.0 62.0 L 90.0 75.1 L 78.42730922698975 80.88634538650513 L 80.0 82.3 L 81.2 85.7 L 76.35580520629883 85.11535577774048 L 75.5 85.8 L 72.1 88.4 L 70.3 89.7 L 68.4 91.0 L 66.5 92.4 L 65.28778705596923 93.15041751861573 L 65.9 93.1 L 74.3 92.5 L 82.8 91.9 L 91.3 91.5 L 99.8 91.2 L 100.1 92.9 L 91.8 95.2 L 83.5 97.2 L 75.2 99.0 L 66.8 100.7 L 58.5 102.2 L 50.1 103.6 L 41.7 104.9 L 24.9 107.3 L 20.5502140045166 107.86961479187012 L 18.7 111.2 L 16.5 108.4 L 13.4 96.6 Z M 158.6 103.5 L 150.4 99.7 L 142.8 95.4 L 135.9 90.4 L 135.36976747512819 89.93604650497437 L 132.0 91.3 L 122.8 94.3 L 112.9 96.7 L 102.2 98.6 L 101.7 96.9 L 111.8 93.1 L 121.0 89.3 L 129.3 85.3 L 129.77479486465455 85.04044551849366 L 129.5 84.8 L 123.9 78.5 L 118.9 71.7 L 114.8 64.3 L 111.88000001907349 57.0 L 102.0 57.0 L 102.0 53.0 L 133.0 53.0 L 133.0 34.2 L 100.0 34.2 L 100.0 30.2 L 133.0 30.2 L 133.0 11.3 L 145.0 13.3 L 148.0 15.3 L 145.0 17.1 L 145.0 30.2 L 167.8181818008423 30.2 L 176.0 21.2 L 186.0 30.2 L 186.0 34.2 L 145.0 34.2 L 145.0 53.0 L 163.0 53.0 L 169.0 48.0 L 180.0 57.0 L 175.0 60.0 L 172.2625 61.140625 L 170.8 63.7 L 166.3 69.5 L 161.0 74.8 L 154.9 79.6 L 148.0 84.0 L 145.61953210830688 85.22155590057373 L 147.9 86.5 L 155.0 89.7 L 162.6 92.3 L 170.6 94.4 L 179.2 96.0 L 188.6 97.8 L 176.7 109.0 L 167.4 106.5 Z M 71.98999996185303 75.1 L 78.0 80.50224723815919 L 78.0 75.1 Z M 118.3 62.1 L 123.6 68.1 L 129.1 73.6 L 135.0 78.5 L 137.8905881881714 80.47294120788574 L 143.4 76.8 L 149.1 72.3 L 154.0 67.6 L 157.9 62.8 L 161.1 57.7 L 161.42941179275513 57.0 L 114.35909090042114 57.0 Z M 34.0 58.0 L 34.0 71.1 L 78.0 71.1 L 78.0 58.0 Z M 18.0 39.7 L 50.0 39.7 L 50.0 27.6 L 13.0 27.6 L 13.0 23.6 L 50.0 23.6 L 50.0 11.3 L 62.0 13.3 L 65.0 15.3 L 62.0 17.1 L 62.0 23.6 L 86.77777776718139 23.6 L 93.0 16.6 L 101.0 23.6 L 101.0 27.6 L 62.0 27.6 L 62.0 39.7 L 77.81818180084228 39.7 L 86.0 30.7 L 96.0 39.7 L 96.0 43.7 L 18.0 43.7 Z " />
</g>
</svg>
