<svg xmlns="http://www.w3.org/2000/svg" xmlns:xlink="http://www.w3.org/1999/xlink" version="1.1" baseProfile="full" viewBox="0 0 200 200" width="200" height="200">
<g fill="black">
<path d="M 49.0 91.0 L 52.0 93.0 L 49.0 94.8 L 49.0 98.0 L 150.5 98.0 L 150.5 89.0 L 161.5 91.0 L 164.2 93.0 L 161.5 94.72340421676635 L 161.5 183.2 L 150.5 188.7 L 150.5 118.0 L 49.0 118.0 L 49.0 128.0 L 48.4 136.8 L 47.3 145.1 L 45.6 152.9 L 43.4 160.0 L 40.6 166.6 L 37.3 172.5 L 33.4 177.7 L 28.9 182.3 L 23.9 185.9 L 18.4 188.7 L 17.5 187.2 L 21.5 183.0 L 25.0 178.6 L 28.0 173.9 L 30.6 168.8 L 32.8 163.3 L 34.5 157.3 L 35.8 150.8 L 36.6 143.7 L 37.0 136.1 L 37.0 89.0 Z M 113.1 176.9 L 127.1 176.9 L 128.1 176.8 L 128.8 176.7 L 129.6 176.3 L 129.7 176.0 L 130.0 175.5 L 130.2 174.8 L 130.3 173.7 L 130.4 172.4 L 130.4 134.0 L 104.38421049118043 134.0 L 104.3 134.3 L 102.21487607955933 138.817768573761 L 103.1 139.0 L 106.5 139.3 L 109.7 139.7 L 112.7 140.2 L 115.5 140.8 L 118.2 141.4 L 120.6 142.1 L 123.0 142.9 L 125.2 143.8 L 127.3 144.8 L 129.5 148.8 L 128.3 153.2 L 124.3 155.4 L 119.9 154.2 L 119.0 153.1 L 117.8 151.8 L 116.3 150.4 L 114.6 149.1 L 112.6 147.6 L 110.4 146.2 L 107.9 144.6 L 105.3 143.1 L 102.4 141.4 L 100.95739088058471 140.81394004821777 L 98.6 144.1 L 94.7 148.0 L 90.1 151.4 L 84.9 154.0 L 79.1 156.1 L 72.8 157.4 L 68.2 157.86666669845582 L 68.2 173.56470584869385 L 71.1 172.2 L 75.6 169.7 L 79.8 167.3 L 83.6 164.7 L 87.0 162.2 L 90.0 159.5 L 92.6 156.9 L 94.8 154.1 L 96.6 151.3 L 97.58074073791504 149.33851852416993 L 97.5 149.3 L 97.93999996185303 148.6199999809265 L 98.0 148.5 L 98.01285009384155 148.507413482666 L 98.6 147.6 L 108.4 154.5 L 110.0 157.7 L 105.8765851020813 157.77109336853027 L 105.7 158.0 L 103.15151519775391 160.71838388442993 L 105.6 160.8 L 108.5 161.1 L 111.2 161.5 L 113.9 162.0 L 116.4 162.6 L 118.8 163.3 L 121.1 164.0 L 123.4 164.9 L 125.5 165.9 L 127.7 169.9 L 126.6 174.4 L 122.6 176.6 L 118.2 175.4 L 117.1 174.2 L 115.9 172.8 L 114.4 171.5 L 112.8 170.1 L 111.0 168.8 L 109.0 167.4 L 106.8 166.0 L 104.5 164.5 L 102.0 163.0 L 101.0059027671814 162.6449652671814 L 99.3 164.1 L 95.5 166.7 L 91.5 169.1 L 87.1 171.1 L 82.5 172.9 L 77.5 174.3 L 72.1 175.4 L 68.2 176.02678575515748 L 68.2 180.5 L 56.2 186.5 L 56.2 124.0 L 68.2 130.0 L 94.25714282989502 130.0 L 94.7 126.9 L 94.8 122.3 L 94.8 120.0 L 106.8 122.5 L 109.7 124.6 L 106.18978128433227 126.63592681884765 L 105.9 128.6 L 105.50701751708985 130.0 L 130.4 130.0 L 135.9 125.0 L 146.4 134.0 L 141.4 137.5 L 141.4 172.4 L 141.3 174.8 L 140.9 177.2 L 140.3 179.4 L 139.2 181.6 L 137.8 183.5 L 136.1 185.2 L 134.0 186.4 L 131.8 187.3 L 129.5 187.7 L 127.1 187.9 L 127.1 182.4 L 113.1 179.6 Z M 68.2 134.0 L 68.2 155.21129035949707 L 71.7 153.8 L 77.1 151.1 L 81.8 148.3 L 85.6 145.3 L 88.7 142.0 L 91.1 138.6 L 92.9 135.0 L 93.20769233703614 134.0 Z M 49.0 102.0 L 49.0 114.0 L 150.5 114.0 L 150.5 102.0 Z M 167.7 85.9 L 164.2 82.4 L 161.1 78.6 L 158.4 74.5 L 158.11636362075805 73.91983470916747 L 156.4 74.7 L 151.9 76.7 L 147.5 78.4 L 143.0 80.0 L 134.0 83.0 L 129.6 84.4 L 125.1 85.7 L 120.7 87.0 L 120.28695650100708 87.11014490127563 L 118.8 90.8 L 116.2 88.2 L 111.9 76.8 L 113.9 76.4 L 118.4 75.9 L 125.3 74.98000001907349 L 125.3 46.72068967819214 L 122.79408779144288 46.33184118270874 L 121.8 47.1 L 119.5 48.9 L 117.2 50.6 L 114.8 52.3 L 112.3 54.0 L 109.7 55.6 L 107.35454549789429 56.90303030014038 L 109.0 58.0 L 106.0 59.8 L 106.0 85.6 L 94.0 91.6 L 94.0 56.788888931274414 L 90.0 57.5 L 86.2 55.0 L 85.6 53.3 L 84.9 51.7 L 84.1 49.9 L 83.1 48.2 L 82.1 46.4 L 80.9 44.6 L 78.3 40.8 L 76.9 38.8 L 75.0 37.2 L 75.86666669845582 35.9 L 18.4 35.9 L 18.4 31.9 L 94.0 31.9 L 94.0 12.4 L 106.0 14.4 L 109.0 16.4 L 106.0 18.2 L 106.0 31.9 L 159.5 31.9 L 169.5 21.9 L 181.5 31.9 L 181.5 35.9 L 117.94390239715577 35.9 L 126.1 43.5 L 126.36666669845582 44.43333330154419 L 135.94675321578978 49.22337665557861 L 139.8 47.7 L 144.0 46.2 L 148.1 44.8 L 152.1 43.4 L 156.0 42.1 L 159.7 40.8 L 166.9 38.4 L 169.33872337341307 37.51319150924682 L 169.3 37.4 L 169.40632915496826 37.48860759735108 L 170.2 37.2 L 170.51318683624268 38.41098899841309 L 180.7 46.9 L 181.0 49.9 L 176.71660566329956 47.90912656784057 L 173.2 48.8 L 169.5 49.3 L 165.8 49.9 L 158.0 50.9 L 154.6449213027954 51.2273247718811 L 155.8 53.8 L 158.2 58.3 L 160.6 62.4 L 163.1 66.0 L 165.8 69.2 L 168.6 72.0 L 171.6 74.4 L 174.7 76.5 L 178.0 78.2 L 181.5 79.6 L 187.4 82.3 L 176.0 91.6 L 171.7 88.9 Z M 70.9 82.4 L 69.2 84.2 L 67.4 85.7 L 65.3 87.1 L 63.2 88.2 L 60.9 89.0 L 58.5 89.6 L 56.1 89.9 L 53.6 90.0 L 53.6 84.0 L 37.6 81.0 L 37.6 78.0 L 55.0 78.0 L 56.3 77.8 L 57.4 77.5 L 58.4 77.1 L 59.3 76.7 L 60.2 76.1 L 61.0 75.4 L 61.9 74.6 L 62.6 73.6 L 63.325 72.5125 L 63.5 71.9 L 63.7 70.6 L 64.0 68.8 L 64.2 66.5 L 64.3 63.8 L 64.5 60.7 L 64.6 57.1 L 64.6 53.2 L 64.65348834991455 50.9 L 51.20508470535278 50.9 L 50.9 54.5 L 49.6 60.1 L 47.4 65.2 L 44.5 70.0 L 40.8 74.2 L 36.4 78.0 L 31.4 81.2 L 25.7 84.0 L 19.4 86.2 L 12.4 87.9 L 11.8 86.3 L 17.8 82.8 L 23.1 79.3 L 27.6 75.8 L 31.4 72.3 L 34.4 68.6 L 36.6 64.9 L 38.2 61.2 L 39.2 57.3 L 39.6 53.3 L 39.48571424484253 50.9 L 21.2 50.9 L 21.2 46.9 L 64.7 46.9 L 70.7 41.9 L 81.7 50.9 L 76.7 53.9 L 76.6 53.94166669845581 L 76.6 57.4 L 76.5 61.1 L 76.3 64.4 L 76.1 67.4 L 75.9 70.1 L 75.6 72.4 L 75.2 74.5 L 74.7 76.4 L 73.8 78.4 L 72.4 80.5 Z M 149.6 51.8 L 145.3 52.1 L 140.8 52.4 L 137.3 52.552173900604245 L 137.3 73.31063833236695 L 141.3 72.8 L 145.9 72.2 L 150.7 71.7 L 156.78327398300172 71.19306049346923 L 156.2 70.0 L 154.4 65.3 L 153.0 60.2 L 152.2 54.9 L 151.95897855758668 51.52570018768311 Z M 78.2 36.9 L 80.6 37.8 L 82.9 38.8 L 87.1 41.2 L 89.1 42.5 L 91.0 43.8 L 94.6 46.8 L 96.2 48.4 L 97.0 52.9 L 96.05138339996338 54.34189720153809 L 103.23448276519775 55.539080429077146 L 104.3 54.0 L 107.9 49.2 L 109.5 46.9 L 111.2 44.6 L 112.7 42.4 L 114.2 40.1 L 115.6 38.0 L 116.43105020523072 36.593607330322264 L 116.3 36.5 L 116.8 35.9 L 76.36666669845582 35.9 Z " />
</g>
</svg>
