<svg xmlns="http://www.w3.org/2000/svg" xmlns:xlink="http://www.w3.org/1999/xlink" version="1.1" baseProfile="full" viewBox="0 0 200 200" width="200" height="200">
<g fill="black">
<path d="M 50.0 176.5 L 68.0 176.5 L 69.2 176.4 L 70.1 176.3 L 70.7 176.1 L 71.0 175.9 L 71.2 175.8 L 71.4 175.6 L 71.5 175.2 L 71.7 174.7 L 71.9 173.7 L 72.0 172.5 L 72.0 150.2 L 42.0 150.2 L 42.0 146.2 L 72.0 146.2 L 72.0 118.1 L 84.0 120.1 L 87.0 122.1 L 84.0 123.9 L 84.0 131.6 L 95.81818180084228 131.6 L 104.0 122.6 L 114.0 131.6 L 114.0 135.6 L 84.0 135.6 L 84.0 146.2 L 101.81818180084228 146.2 L 110.0 137.2 L 120.0 146.2 L 120.0 150.2 L 77.4 150.2 L 84.0 151.3 L 87.0 153.3 L 84.0 155.1 L 84.0 172.5 L 83.8 175.1 L 83.4 177.6 L 82.6 180.0 L 81.3 182.2 L 79.7 184.3 L 77.7 185.9 L 75.4 187.1 L 73.0 187.9 L 70.5 188.4 L 68.0 188.5 L 68.0 182.5 L 50.0 179.5 Z M 38.0 112.9 L 115.54024391174316 112.9 L 113.1 99.1 L 113.17850465774536 99.08878507614136 L 112.9 97.0 L 125.0 97.4 L 128.3 98.9 L 125.6311559677124 101.04667892456055 L 127.68269233703613 112.9 L 157.0 112.9 L 167.0 102.9 L 179.0 112.9 L 179.0 116.9 L 128.6820143699646 116.9 L 131.2 126.9 L 135.3 139.0 L 140.1 149.3 L 144.56652574539186 156.41335582733154 L 145.8 155.0 L 149.9 149.2 L 153.2 143.2 L 155.9 136.9 L 157.9 130.3 L 157.90705089569093 130.30208463668822 L 158.4 128.7 L 169.4 133.7 L 171.7 136.4 L 167.9362585067749 137.40814504623413 L 166.4 141.3 L 162.6 148.4 L 158.1 155.0 L 152.8 161.1 L 150.38911418914796 163.35016012191772 L 151.6 164.7 L 158.1 169.9 L 165.3 173.5 L 173.2 175.8 L 176.33476390838624 176.04935626983644 L 182.0 151.5 L 184.0 151.5 L 182.07446804046631 176.5319149017334 L 186.2 178.3 L 188.0 182.5 L 186.2 186.7 L 182.0 188.5 L 171.1 187.6 L 160.9 184.7 L 151.6 180.0 L 143.3 173.4 L 141.17177200317383 170.9841735839844 L 140.1 171.8 L 132.6 176.4 L 124.6 180.4 L 115.8 183.7 L 106.3 186.5 L 105.6 184.8 L 114.2 180.3 L 122.0 175.6 L 129.1 170.8 L 135.4 165.8 L 136.0569905281067 165.17820539474488 L 135.9 165.0 L 129.6 155.0 L 124.2 143.4 L 119.6 130.2 L 116.34285717010498 116.9 L 38.0 116.9 L 38.0 144.6 L 37.4 150.8 L 36.5 156.7 L 35.1 162.2 L 33.3 167.4 L 31.0 172.1 L 28.3 176.4 L 25.2 180.3 L 21.7 183.6 L 17.7 186.3 L 13.5 188.5 L 12.4 187.0 L 15.4 183.6 L 17.9 180.1 L 20.1 176.5 L 21.9 172.7 L 23.4 168.7 L 24.5 164.5 L 25.4 160.0 L 25.9 155.2 L 26.1 150.0 L 26.0 144.6 L 26.0 106.9 Z M 60.8 162.3 L 62.5 165.4 L 58.00525398254395 165.70998249053955 L 57.2 166.6 L 55.1 168.6 L 52.9 170.5 L 50.5 172.4 L 48.0 174.1 L 45.3 175.7 L 42.5 177.2 L 39.4 178.5 L 36.5 180.1 L 35.4 178.6 L 37.9 176.5 L 40.0 174.0 L 41.9 171.6 L 43.6 169.3 L 45.2 167.1 L 46.5 164.9 L 47.7 162.8 L 48.7 160.7 L 49.5 158.7 L 49.86112203598022 157.6682228088379 L 49.7 157.6 L 50.7 155.7 Z M 105.1 172.9 L 104.6 171.6 L 103.7 170.1 L 102.6 168.4 L 101.1 166.6 L 99.4 164.7 L 97.4 162.7 L 95.2 160.6 L 92.4 158.8 L 93.3 157.2 L 96.3 158.6 L 99.4 159.5 L 102.2 160.5 L 104.8 161.6 L 107.2 162.7 L 109.4 163.9 L 111.4 165.2 L 113.2 166.7 L 114.9 168.3 L 116.3 170.1 L 116.3 174.7 L 113.1 178.0 L 108.6 178.0 L 105.3 174.8 L 105.3 174.0 Z M 149.4 108.1 L 148.5 107.2 L 147.2 106.2 L 145.7 105.1 L 143.8 103.9 L 141.7 102.6 L 139.4 101.3 L 136.7 99.8 L 133.7 98.9 L 134.1 97.1 L 137.3 97.7 L 140.3 97.7 L 143.1 97.9 L 145.7 98.0 L 148.0 98.2 L 150.2 98.4 L 152.1 98.7 L 153.9 99.0 L 155.6 99.4 L 157.3 100.0 L 159.5 104.0 L 158.3 108.4 L 154.3 110.6 L 149.9 109.5 L 149.9 108.9 Z M 15.5 86.5 L 23.9 86.2 L 32.3 85.7 L 39.125 85.375 L 38.3 84.6 L 38.1 82.2 L 37.8 80.9 L 37.4 79.5 L 36.9 78.0 L 36.3 76.5 L 35.5 74.9 L 34.7 73.2 L 33.7 71.4 L 32.2 70.1 L 33.3 68.7 L 35.0 69.8 L 37.0 70.6 L 38.8 71.4 L 40.6 72.4 L 42.3 73.4 L 43.9 74.5 L 45.4 75.7 L 46.8 77.0 L 48.1 78.4 L 49.3 79.8 L 49.3 84.4 L 48.90061254501343 84.8118682861328 L 62.21844663619995 84.01914005279541 L 62.7 83.4 L 63.7 81.3 L 66.6 75.5 L 67.6 73.7 L 68.4 72.0 L 69.3 70.4 L 70.0 68.8 L 70.26666669845581 68.3 L 34.0 68.3 L 22.0 74.3 L 22.0 43.0 L 34.0 49.0 L 78.0 49.0 L 84.0 44.0 L 95.0 53.0 L 90.0 57.0 L 90.0 68.3 L 78.57142858505249 74.01428575515747 L 79.8 75.2 L 80.7 78.7 L 75.93061227798462 77.77959184646606 L 75.3 78.2 L 73.6 79.2 L 71.9 80.3 L 70.2 81.5 L 66.4 83.7 L 66.26279067993164 83.77840528488159 L 74.3 83.3 L 91.3 82.5 L 99.8 82.4 L 100.1 84.1 L 91.8 86.3 L 83.5 88.2 L 75.2 89.8 L 66.8 91.4 L 58.4 92.8 L 50.0 94.1 L 41.6 95.3 L 24.8 97.5 L 20.528611850738525 98.00849857330323 L 18.7 101.3 L 16.4 98.5 L 13.5 86.7 Z M 158.8 94.1 L 150.6 90.8 L 143.1 86.8 L 137.96600284576417 83.49957323074341 L 128.8 87.4 L 118.7 90.6 L 107.9 93.2 L 96.3 95.0 L 84.1 96.0 L 83.8 94.3 L 95.6 91.3 L 106.5 88.0 L 116.6 84.4 L 125.8 80.4 L 130.53350086212157 77.8641960144043 L 129.7 77.2 L 124.0 71.6 L 119.1 65.4 L 114.9 58.7 L 112.00684928894043 52.1 L 102.0 52.1 L 102.0 48.1 L 133.0 48.1 L 133.0 31.7 L 100.0 31.7 L 100.0 27.7 L 133.0 27.7 L 133.0 10.9 L 145.0 12.9 L 148.0 14.9 L 145.0 16.7 L 145.0 27.7 L 167.8181818008423 27.7 L 176.0 18.7 L 186.0 27.7 L 186.0 31.7 L 145.0 31.7 L 145.0 48.1 L 163.0 48.1 L 163.24725275039674 47.893956089019774 L 163.9 46.9 L 164.2067491531372 47.094375705718996 L 169.0 43.1 L 180.0 52.1 L 175.0 55.1 L 171.55 56.5375 L 168.4 60.7 L 162.0 67.4 L 154.8 73.4 L 148.134912109375 77.87151460647583 L 154.8 80.5 L 162.4 82.9 L 170.5 84.7 L 179.0 86.1 L 188.7 87.7 L 176.9 99.1 L 167.6 96.9 Z M 72.65060243606567 68.3 L 78.0 73.46279067993164 L 78.0 68.3 Z M 118.3 56.3 L 123.5 61.6 L 129.0 66.4 L 134.9 70.6 L 138.75538301467896 72.96297674179077 L 141.8 71.0 L 148.5 65.6 L 154.4 59.8 L 159.5 53.6 L 160.4850746154785 52.1 L 114.60689659118653 52.1 Z M 34.0 53.0 L 34.0 64.3 L 78.0 64.3 L 78.0 53.0 Z M 18.0 36.2 L 50.0 36.2 L 50.0 25.8 L 13.0 25.8 L 13.0 21.8 L 50.0 21.8 L 50.0 10.9 L 62.0 12.9 L 65.0 14.9 L 62.0 16.7 L 62.0 21.8 L 86.77777776718139 21.8 L 93.0 14.8 L 101.0 21.8 L 101.0 25.8 L 62.0 25.8 L 62.0 36.2 L 81.77777776718139 36.2 L 88.0 29.2 L 96.0 36.2 L 96.0 40.2 L 18.0 40.2 Z " />
</g>
</svg>
