<svg xmlns="http://www.w3.org/2000/svg" xmlns:xlink="http://www.w3.org/1999/xlink" version="1.1" baseProfile="full" viewBox="0 0 200 200" width="200" height="200">
<g fill="black">
<path d="M 170.0 176.7 L 165.3 167.4 L 162.35832386016847 158.27326107025146 L 157.5 166.2 L 151.3 174.8 L 144.4 182.6 L 136.9 189.6 L 135.6 188.3 L 141.4 180.2 L 146.76904764175416 172.0 L 108.1 172.0 L 108.1 184.0 L 97.1 189.5 L 97.1 113.48529415130615 L 96.4 114.7 L 92.7 120.6 L 88.7 126.5 L 84.3 132.4 L 82.7 131.5 L 85.3 124.7 L 88.0 118.1 L 90.5 111.7 L 92.9 105.5 L 95.2 99.5 L 97.1 94.1619047164917 L 97.1 91.5 L 97.86296300888061 91.88148145675659 L 99.2 87.8 L 100.9 82.1 L 102.5 76.6 L 103.55649309158325 72.21149015426636 L 103.5 72.2 L 103.7723403930664 71.31489362716675 L 103.8 71.2 L 103.80705089569092 71.20208463668823 L 104.3 69.6 L 115.3 74.6 L 117.7 77.4 L 113.94658489227295 78.32189140319824 L 113.3 80.1 L 111.1 85.7 L 108.6 91.4 L 106.359574508667 96.1297872543335 L 108.1 97.0 L 117.1 97.0 L 117.7 95.8 L 118.6 93.0 L 120.4 87.6 L 121.2 84.9 L 122.1 82.3 L 122.8 79.6 L 123.5 77.0 L 124.2 74.3 L 124.58625001907349 72.62624998092652 L 124.5 72.6 L 124.725 72.025 L 124.8 71.7 L 124.8452220916748 71.71776580810547 L 125.4 70.3 L 136.0 76.1 L 138.1 79.0 L 133.84609718322753 79.73343152999878 L 133.0 81.2 L 131.4 83.6 L 129.7 86.1 L 127.9 88.4 L 126.0 90.8 L 124.1 93.0 L 122.0 95.2 L 120.01999998092651 97.0 L 131.71818180084227 97.0 L 139.9 88.0 L 149.9 97.0 L 149.9 101.0 L 129.0 101.0 L 129.0 120.0 L 134.7777777671814 120.0 L 141.0 113.0 L 149.0 120.0 L 149.0 124.0 L 129.0 124.0 L 129.0 144.0 L 134.7777777671814 144.0 L 141.0 137.0 L 149.0 144.0 L 149.0 148.0 L 129.0 148.0 L 129.0 168.0 L 131.71818180084227 168.0 L 139.9 159.0 L 149.32537317276 167.48283586502075 L 151.9 162.9 L 156.4 153.5 L 159.3363953590393 146.3380599975586 L 157.9 140.1 L 154.9 121.8 L 152.2 100.2 L 150.0 75.5 L 149.56049823760986 69.0 L 87.1 69.0 L 87.1 65.0 L 113.9 65.0 L 113.9 45.0 L 89.8 45.0 L 89.8 41.0 L 113.9 41.0 L 113.9 16.0 L 125.9 18.0 L 128.9 20.0 L 125.9 21.8 L 125.9 41.0 L 130.8181818008423 41.0 L 139.0 32.0 L 147.76285905838012 39.88657312393188 L 146.74462146759032 17.194422340393068 L 146.7 17.2 L 146.6 13.9 L 158.7 15.7 L 161.7 17.6 L 158.87044744491578 19.48636837005615 L 160.1 46.8 L 161.2826714515686 65.0 L 167.9 65.0 L 177.9 55.0 L 189.9 65.0 L 189.9 69.0 L 161.54259929656982 69.0 L 161.9 74.5 L 164.2 99.0 L 166.7 120.1 L 167.1243640899658 122.6037483215332 L 167.3 122.0 L 170.0 110.3 L 172.1 98.0 L 173.76004619598388 86.10300226211548 L 173.7 86.1 L 174.1 83.1 L 185.7 86.7 L 188.5 89.1 L 184.99773759841918 90.59170436859131 L 183.3 100.0 L 180.4 112.7 L 176.9 124.7 L 172.9 136.1 L 170.5452709197998 141.57730455398558 L 172.9 152.1 L 176.5 163.0 L 179.7775330543518 169.46402349472046 L 184.5 149.0 L 186.5 149.0 L 184.57446804046631 174.0319149017334 L 188.7 175.8 L 190.5 180.0 L 188.7 184.2 L 184.5 186.0 L 176.1 183.2 Z M 72.0 180.2 L 69.8 174.6 L 68.1 167.8 L 66.7 159.5 L 66.48104267120361 157.54928913116456 L 64.6 159.5 L 62.0 162.5 L 59.4 165.4 L 56.7 168.2 L 53.0 171.9 L 53.0 172.0 L 52.9 172.0 L 43.81012659072876 181.08987340927123 L 44.2 185.1 L 40.7 184.0 L 31.7 175.9 L 33.2 174.6 L 36.3 172.6 L 39.5 170.6 L 41.0 169.63225803375244 L 41.0 159.2199999809265 L 39.0 161.3 L 36.6 164.0 L 31.8 169.2 L 29.4 171.7 L 27.0 174.1 L 24.5 176.4 L 20.521368980407715 180.2128547668457 L 20.7 184.5 L 17.3 183.2 L 8.6 174.7 L 10.3 173.5 L 15.9 170.3 L 18.25625 169.0 L 16.4 169.0 L 16.4 94.0 L 28.4 96.0 L 31.4 98.0 L 30.761344528198244 98.38319330215454 L 31.1 98.8 L 32.8 100.1 L 34.4 101.5 L 35.9 103.0 L 37.4 104.6 L 38.7 106.2 L 40.1 107.9 L 41.0 109.175 L 41.0 93.0 L 53.0 95.0 L 56.0 97.0 L 54.18032789230347 98.09180326461792 L 54.8 98.8 L 56.6 100.1 L 58.3 101.5 L 59.8 102.9 L 61.3 104.5 L 62.7 106.1 L 64.1 107.8 L 64.11969232559204 107.82953844070434 L 64.2 94.9 L 64.2 92.5 L 76.2 95.0 L 79.1 97.0 L 76.17638893127442 98.7541666984558 L 76.1 110.9 L 76.4 125.1 L 76.8 137.7 L 77.6 148.7 L 78.6 157.9 L 79.25826768875122 162.01417322158812 L 81.8 151.0 L 83.8 151.0 L 82.08577585220337 173.28491382598878 L 82.7 174.8 L 83.7 176.3 L 83.2 176.1 L 86.8 178.8 L 87.6 183.4 L 84.9 187.0 L 80.4 187.8 L 75.2 184.8 Z M 108.1 148.0 L 108.1 168.0 L 118.0 168.0 L 118.0 148.0 Z M 31.5 139.7 L 30.7 134.9 L 30.3 132.7 L 29.9 130.4 L 28.7 124.1 L 28.4 123.5 L 28.4 163.43870964050294 L 30.8 162.2 L 37.2 159.0 L 40.4 157.2 L 41.0 158.01818180084229 L 41.0 147.63999996185302 L 39.6 148.8 L 35.1 148.3 L 32.2 144.8 L 31.8 142.2 Z M 55.1 139.7 L 54.8 137.3 L 54.4 134.9 L 54.0 132.7 L 53.5 130.4 L 53.0 127.775 L 53.0 162.36470584869386 L 59.2 158.9 L 62.7 157.1 L 66.2 155.2 L 66.22048196792602 155.22792987823487 L 65.6 149.7 L 65.43468017578125 147.0312650680542 L 63.3 148.8 L 58.7 148.3 L 55.8 144.8 L 55.5 142.2 Z M 108.1 124.0 L 108.1 144.0 L 118.0 144.0 L 118.0 124.0 Z M 55.7 111.6 L 55.4 109.7 L 55.0 107.9 L 54.6 106.0 L 54.1 104.0 L 53.6 102.1 L 53.1 100.0 L 53.0 99.84545450210571 L 53.0 121.3 L 54.3 122.9 L 56.0 124.3 L 57.6 126.0 L 59.2 127.8 L 60.7 129.7 L 62.1 131.8 L 63.5 134.0 L 64.8 136.3 L 64.82010307312012 136.33865976333618 L 64.4 125.5 L 64.29374504089355 120.36434259414673 L 63.8 120.8 L 59.2 120.4 L 56.2 116.9 L 56.1 115.2 Z M 31.6 111.5 L 31.3 109.7 L 31.0 107.8 L 30.2 104.0 L 29.7 102.0 L 29.3 100.0 L 28.978260898590086 99.45304346084595 L 28.4 99.8 L 28.4 121.9 L 29.3 121.3 L 30.7 122.9 L 32.4 124.3 L 34.0 126.0 L 35.5 127.8 L 37.0 129.7 L 38.4 131.8 L 39.8 134.0 L 41.0 136.12307691574097 L 41.0 119.6529411315918 L 39.7 120.8 L 35.2 120.4 L 32.1 116.9 L 32.0 115.1 Z M 108.1 101.0 L 108.1 120.0 L 118.0 120.0 L 118.0 101.0 Z M 49.3 23.8 L 50.0 27.4 L 45.992232990264895 26.398058223724366 L 44.0 27.8 L 41.3 29.6 L 38.6 31.3 L 35.9 32.9 L 33.1 34.3 L 30.2 35.6 L 27.3 36.7 L 27.2 36.731034469604495 L 27.2 58.0 L 30.177777767181396 58.0 L 36.4 51.0 L 44.4 58.0 L 44.4 62.0 L 27.2 62.0 L 27.2 83.0 L 66.8 83.0 L 66.8 62.0 L 52.1 62.0 L 52.1 58.0 L 66.8 58.0 L 66.8 39.0 L 50.4 39.0 L 50.4 35.0 L 66.8 35.0 L 72.8 30.0 L 83.8 39.0 L 78.8 43.0 L 78.8 87.0 L 66.8 93.0 L 66.8 87.0 L 27.2 87.0 L 15.2 93.0 L 15.2 30.0 L 23.969230747222902 34.384615421295166 L 25.1 33.2 L 27.2 31.1 L 31.2 26.9 L 33.2 24.7 L 35.1 22.5 L 38.9 17.9 L 40.1085000038147 16.28866662979126 L 40.0 16.2 L 41.0 15.2 Z M 125.9 45.0 L 125.9 65.0 L 149.29003562927247 65.0 L 148.1 47.4 L 147.99230766296387 45.0 Z M 172.1 40.1 L 171.7 38.2 L 171.2 36.2 L 170.5 34.2 L 169.7 32.1 L 168.7 29.9 L 167.6 27.7 L 166.3 25.3 L 164.6 23.3 L 165.8 22.0 L 168.0 23.7 L 170.4 25.1 L 172.6 26.7 L 174.7 28.3 L 176.6 30.1 L 178.4 32.0 L 180.0 34.0 L 181.5 36.0 L 182.8 38.2 L 184.0 40.4 L 183.4 45.0 L 179.8 47.8 L 175.3 47.2 L 172.4 43.7 L 172.3 41.9 Z " />
</g>
</svg>
