<svg xmlns="http://www.w3.org/2000/svg" xmlns:xlink="http://www.w3.org/1999/xlink" version="1.1" baseProfile="full" viewBox="0 0 200 200" width="200" height="200">
<g fill="black">
<path d="M 64.3 103.4 L 64.0 101.8 L 63.7 100.3 L 63.2 98.8 L 62.7 97.2 L 62.31666669845581 96.05 L 62.0 96.8 L 59.9 100.9 L 57.6 104.6 L 55.0 107.8 L 52.1 110.4 L 49.1 112.6 L 47.8 111.3 L 49.4 108.3 L 50.8 105.1 L 50.990078353881835 104.60287208557129 L 48.5 106.8 L 43.9 106.4 L 40.9 103.0 L 40.9 101.4 L 40.8 99.9 L 40.6 98.4 L 40.5 96.9 L 40.1 93.9 L 39.911940288543704 92.95970153808594 L 39.2 94.7 L 37.3 98.9 L 35.1 102.7 L 32.7 106.3 L 30.0 109.5 L 27.1 112.5 L 25.6 111.4 L 27.1 107.8 L 28.3 104.0 L 29.4 100.2 L 30.5 96.2 L 31.4 92.2 L 32.2 88.0 L 32.9 83.6 L 33.5 79.0 L 33.9 74.3 L 34.05994052886963 70.30148611068725 L 34.0 70.3 L 34.3 67.2 L 46.1 70.6 L 48.8 72.8 L 45.35876121520996 74.45444173812866 L 45.1 75.8 L 43.9 80.9 L 42.6 85.7 L 41.60740737915039 88.5537036895752 L 42.3 88.9 L 43.7 89.8 L 45.1 90.8 L 47.7 93.2 L 50.1 96.0 L 52.3 99.2 L 52.07748918533325 101.75887441635132 L 52.1 101.7 L 53.2 98.0 L 54.2 94.1 L 55.1 89.8 L 55.8 85.3 L 56.4 80.3 L 56.9 75.0 L 57.064266777038576 70.4005311012268 L 57.0 70.4 L 57.3 67.2 L 69.1 70.5 L 71.9 72.7 L 68.45136985778808 74.39178085327148 L 68.1 76.5 L 66.9 82.1 L 65.5 87.4 L 64.10962133407592 91.65803480148315 L 67.4 93.4 L 70.4 95.8 L 71.9 97.2 L 73.3 98.6 L 74.6 100.2 L 75.6 101.61666669845582 L 75.6 69.0 L 87.6 71.0 L 90.6 73.0 L 87.6 74.8 L 87.6 178.0 L 75.6 184.0 L 75.6 172.0 L 25.0 172.0 L 25.0 184.0 L 13.0 190.0 L 13.0 69.0 L 25.0 71.0 L 28.0 73.0 L 25.0 74.8 L 25.0 115.0 L 75.6 115.0 L 75.6 106.60625 L 72.6 109.7 L 68.1 109.7 L 64.8 106.5 L 64.6 104.9 Z M 168.75627946853638 19.46687593460083 L 175.9 26.3 L 176.0 29.6 L 172.31955308914183 28.09162015914917 L 166.0 30.8 L 158.7 33.6 L 151.2 36.2 L 144.4 38.231168842315675 L 144.4 76.0 L 164.4 76.0 L 174.4 66.0 L 186.4 76.0 L 186.4 80.0 L 144.4 80.0 L 144.4 117.0 L 162.8 117.0 L 168.8 112.0 L 179.8 121.0 L 174.8 125.0 L 174.8 177.0 L 162.8 183.0 L 162.8 171.0 L 114.0 171.0 L 114.0 183.0 L 102.0 189.0 L 102.0 111.0 L 114.0 117.0 L 132.4 117.0 L 132.4 80.0 L 90.4 80.0 L 90.4 76.0 L 132.4 76.0 L 132.4 41.318292713165285 L 127.3 42.5 L 118.9 44.1 L 110.2 45.4 L 101.3 46.3 L 92.1 46.8 L 91.8 45.1 L 100.6 42.6 L 109.1 40.1 L 117.4 37.7 L 125.4 35.2 L 133.1 32.5 L 140.5 29.7 L 147.7 26.8 L 154.6 23.7 L 161.2 20.4 L 167.5 17.0 Z M 39.7 151.8 L 39.5 148.8 L 39.3 147.3 L 39.27204608917236 146.85273771286012 L 38.5 148.6 L 36.4 152.6 L 34.2 156.3 L 31.7 159.7 L 29.0 162.7 L 26.2 165.5 L 25.0 164.6199999809265 L 25.0 168.0 L 75.6 168.0 L 75.6 159.51935482025146 L 72.7 162.7 L 68.2 162.8 L 64.8 159.7 L 64.6 158.3 L 64.3 156.8 L 64.0 155.4 L 63.7 153.8 L 63.2 152.3 L 62.7 150.7 L 62.24782609939575 149.49420289993287 L 62.0 150.1 L 59.9 154.1 L 57.5 157.7 L 54.9 160.8 L 52.1 163.4 L 49.1 165.6 L 47.8 164.3 L 49.5 161.3 L 50.8 158.1 L 52.1 154.8 L 53.2 151.2 L 54.3 147.3 L 55.1 143.2 L 55.9 138.7 L 56.4 133.9 L 56.9 128.8 L 57.062943649291995 124.4005202293396 L 57.0 124.4 L 57.3 121.2 L 69.1 124.5 L 71.9 126.8 L 68.42046737670898 128.44128894805908 L 68.1 130.3 L 66.9 135.8 L 65.5 140.9 L 64.03965520858765 145.023326587677 L 65.7 146.0 L 67.3 147.0 L 68.9 148.1 L 70.4 149.3 L 71.8 150.5 L 75.6 154.59230766296386 L 75.6 119.0 L 25.0 119.0 L 25.0 163.7 L 26.2 160.9 L 27.4 157.3 L 28.6 153.6 L 29.8 149.8 L 30.8 145.8 L 31.7 141.7 L 32.5 137.3 L 33.1 132.8 L 33.7 128.1 L 34.0199070930481 124.10116128921509 L 34.0 124.1 L 34.05 123.725 L 34.1 123.1 L 34.13271026611328 123.10467290878296 L 34.4 121.1 L 46.0 124.8 L 48.7 127.1 L 45.117061614990234 128.62606630325317 L 44.8 130.0 L 43.5 135.0 L 42.0 139.8 L 41.22894058227539 141.96860466003417 L 41.9 142.4 L 43.2 143.4 L 44.5 144.5 L 45.7 145.6 L 46.9 146.8 L 50.2 150.7 L 51.2 152.1 L 51.0 156.6 L 47.7 159.8 L 43.1 159.5 L 40.0 156.2 L 39.8 153.2 Z M 114.0 167.0 L 162.8 167.0 L 162.8 121.0 L 114.0 121.0 Z M 11.7 60.0 L 20.4 60.0 L 20.4 28.0 L 32.4 30.0 L 35.4 32.0 L 32.4 33.8 L 32.4 60.0 L 45.2 60.0 L 45.2 13.0 L 57.2 15.0 L 60.2 17.0 L 57.2 18.8 L 57.2 36.0 L 71.9777777671814 36.0 L 78.2 29.0 L 86.2 36.0 L 86.2 40.0 L 57.2 40.0 L 57.2 60.0 L 73.51818180084229 60.0 L 81.7 51.0 L 91.7 60.0 L 91.7 64.0 L 11.7 64.0 Z " />
</g>
</svg>
