<svg xmlns="http://www.w3.org/2000/svg" xmlns:xlink="http://www.w3.org/1999/xlink" version="1.1" baseProfile="full" viewBox="0 0 200 200" width="200" height="200">
<g fill="black">
<path d="M 168.1 181.5 L 165.4 179.0 L 162.3 176.4 L 159.41442260742187 174.1933819770813 L 150.5 175.3 L 136.1 176.9 L 121.9 178.3 L 107.7 179.5 L 93.7 180.8 L 79.8 181.9 L 66.0 183.1 L 52.3 184.2 L 38.7 185.3 L 29.346979904174805 186.06778526306152 L 27.5 189.3 L 25.3 186.4 L 22.6 174.5 L 24.6 174.4 L 38.1 173.9 L 51.7 173.5 L 65.4 173.1 L 93.2 172.3 L 95.0 172.2617021560669 L 95.0 152.2 L 54.0 152.2 L 54.0 159.2 L 42.0 165.2 L 42.0 117.9 L 54.0 123.9 L 95.0 123.9 L 95.0 109.3 L 107.0 111.3 L 110.0 113.3 L 107.0 115.1 L 107.0 123.9 L 150.0 123.9 L 156.0 118.9 L 167.0 127.9 L 162.0 131.9 L 162.0 152.2 L 150.0 158.2 L 150.0 152.2 L 107.0 152.2 L 107.0 172.0063829421997 L 107.3 172.0 L 121.5 171.7 L 135.8 171.5 L 150.3 171.5 L 155.5685520172119 171.60825796127318 L 155.1 171.3 L 150.9 168.6 L 146.5 165.9 L 141.7 163.1 L 136.6 160.2 L 137.2 158.5 L 143.0 159.8 L 148.5 161.2 L 153.6 162.9 L 158.5 164.7 L 163.0 166.6 L 167.2 168.7 L 171.1 170.8 L 174.8 173.1 L 178.1 175.5 L 181.2 178.0 L 182.8 182.3 L 181.0 186.5 L 176.7 188.1 L 172.5 186.3 L 170.5 183.9 Z M 54.0 127.9 L 54.0 148.2 L 95.0 148.2 L 95.0 127.9 Z M 107.0 127.9 L 107.0 148.2 L 150.0 148.2 L 150.0 127.9 Z M 15.4 105.7 L 23.8 105.2 L 40.49506902694702 104.00749502182006 L 38.3 101.6 L 38.2 100.1 L 38.0 98.5 L 37.7 96.8 L 36.7 93.4 L 36.0 91.6 L 35.3 89.7 L 34.4 87.8 L 33.5 85.8 L 32.1 84.1 L 33.3 82.8 L 35.1 84.2 L 37.1 85.3 L 39.0 86.5 L 40.9 87.8 L 42.6 89.3 L 44.2 90.8 L 45.7 92.3 L 47.1 94.0 L 48.4 95.8 L 49.6 97.6 L 49.3 102.2 L 48.002366828918454 103.38313608169555 L 61.61440000534058 102.24879999160767 L 62.6 100.7 L 63.6 98.3 L 64.5 96.0 L 65.5 93.8 L 67.3 89.6 L 68.2 87.6 L 69.0 85.7 L 69.8 83.9 L 70.10257863998413 83.12194051742554 L 69.9 83.0 L 70.43225803375245 82.27419357299804 L 70.5 82.1 L 70.53904294967651 82.12857780456542 L 70.85333337783814 81.7 L 34.0 81.7 L 22.0 87.7 L 22.0 53.1 L 34.0 59.1 L 78.0 59.1 L 84.0 54.1 L 95.0 63.1 L 90.0 67.1 L 90.0 81.7 L 78.2552845954895 87.57235774993896 L 80.2 89.2 L 81.5 92.6 L 76.75336322784423 92.19080715179443 L 75.6 93.2 L 72.2 96.0 L 70.4 97.5 L 68.5 99.1 L 66.5 100.6 L 64.53207550048828 102.00566034317016 L 65.8 101.9 L 74.3 101.2 L 82.7 100.5 L 91.2 99.9 L 99.8 99.5 L 100.1 101.3 L 91.9 103.7 L 83.6 105.8 L 75.2 107.7 L 66.9 109.4 L 58.5 111.0 L 50.1 112.5 L 33.3 115.3 L 24.9 116.5 L 20.60093536376953 117.06297273635865 L 18.8 120.4 L 16.5 117.6 L 13.4 105.9 Z M 158.5 112.3 L 150.3 108.2 L 142.7 103.5 L 135.7 98.1 L 135.39832401275635 97.80790100097656 L 132.1 99.3 L 122.9 102.6 L 112.9 105.3 L 102.2 107.5 L 101.7 105.7 L 111.8 101.7 L 120.9 97.6 L 129.3 93.3 L 130.19376888275147 92.76856985092164 L 129.4 92.0 L 123.8 85.3 L 118.9 77.9 L 114.7 70.0 L 111.84942531585693 62.0 L 102.0 62.0 L 102.0 58.0 L 133.0 58.0 L 133.0 37.2 L 100.0 37.2 L 100.0 33.2 L 133.0 33.2 L 133.0 12.4 L 145.0 14.4 L 148.0 16.4 L 145.0 18.2 L 145.0 33.2 L 167.8181818008423 33.2 L 176.0 24.2 L 186.0 33.2 L 186.0 37.2 L 145.0 37.2 L 145.0 58.0 L 163.0 58.0 L 169.0 53.0 L 180.0 62.0 L 175.0 65.0 L 172.52452831268312 66.0314465522766 L 170.9 69.1 L 166.4 75.3 L 161.1 81.1 L 155.0 86.4 L 148.1 91.2 L 145.04327163696288 92.9294647216797 L 148.1 94.8 L 155.2 98.3 L 162.7 101.2 L 170.8 103.6 L 179.3 105.3 L 188.4 107.2 L 176.6 118.2 L 167.3 115.6 Z M 118.4 67.9 L 123.7 74.5 L 129.2 80.6 L 135.1 86.0 L 137.8702127456665 88.0666666984558 L 143.3 84.2 L 149.0 79.3 L 153.8 74.2 L 157.8 68.9 L 161.0 63.5 L 161.63157892227173 62.0 L 114.25405406951904 62.0 Z M 71.23896102905273 81.7 L 78.0 87.35869569778443 L 78.0 81.7 Z M 34.0 63.1 L 34.0 77.7 L 78.0 77.7 L 78.0 63.1 Z M 18.0 43.5 L 50.0 43.5 L 50.0 29.9 L 13.0 29.9 L 13.0 25.9 L 50.0 25.9 L 50.0 12.4 L 62.0 14.4 L 65.0 16.4 L 62.0 18.2 L 62.0 25.9 L 86.77777776718139 25.9 L 93.0 18.9 L 101.0 25.9 L 101.0 29.9 L 62.0 29.9 L 62.0 43.5 L 77.81818180084228 43.5 L 86.0 34.5 L 96.0 43.5 L 96.0 47.5 L 18.0 47.5 Z " />
</g>
</svg>
