<svg xmlns="http://www.w3.org/2000/svg" xmlns:xlink="http://www.w3.org/1999/xlink" version="1.1" baseProfile="full" viewBox="0 0 200 200" width="200" height="200">
<g fill="black">
<path d="M 66.8 174.0 L 122.9 174.0 L 122.9 104.0 L 84.5 104.0 L 84.5 100.0 L 122.9 100.0 L 122.9 36.0 L 76.7 36.0 L 76.7 32.0 L 161.3 32.0 L 171.3 22.0 L 183.3 32.0 L 183.3 36.0 L 134.9 36.0 L 134.9 100.0 L 158.0 100.0 L 168.0 90.0 L 180.0 100.0 L 180.0 104.0 L 134.9 104.0 L 134.9 174.0 L 164.6 174.0 L 174.6 164.0 L 186.6 174.0 L 186.6 178.0 L 66.8 178.0 Z M 30.3 33.4 L 59.3 33.4 L 65.3 28.4 L 76.3 37.4 L 71.3 41.4 L 71.3 153.9 L 59.3 159.9 L 59.3 149.9 L 30.3 149.9 L 30.3 161.9 L 18.3 167.9 L 18.3 27.4 Z M 30.3 110.8 L 30.3 145.9 L 59.3 145.9 L 59.3 110.8 Z M 30.3 74.1 L 30.3 106.8 L 59.3 106.8 L 59.3 74.1 Z M 30.3 37.4 L 30.3 70.1 L 59.3 70.1 L 59.3 37.4 Z " />
</g>
</svg>
