<svg xmlns="http://www.w3.org/2000/svg" xmlns:xlink="http://www.w3.org/1999/xlink" version="1.1" baseProfile="full" viewBox="0 0 200 200" width="200" height="200">
<g fill="black">
<path d="M 35.0 176.0 L 23.0 182.0 L 23.0 32.0 L 35.0 38.0 L 165.0 38.0 L 171.0 33.0 L 182.0 42.0 L 177.0 46.0 L 177.0 158.3333333015442 L 181.0 155.0 L 192.0 164.0 L 187.0 167.0 L 184.03283586502076 168.23631839752198 L 183.6 168.9 L 182.0 171.1 L 180.4 173.4 L 178.8 175.6 L 177.1 177.8 L 175.3 180.0 L 173.4 182.1 L 171.4 184.2 L 169.7 186.4 L 168.2 185.5 L 169.3 182.9 L 169.9 180.2 L 170.7 177.5 L 172.8 169.7 L 173.5 167.2 L 174.2 164.6 L 174.34399995803832 164.0 L 35.0 164.0 Z M 35.0 42.0 L 35.0 160.0 L 165.0 160.0 L 165.0 42.0 L 120.0 42.0 L 120.0 109.2 L 120.2 110.1 L 120.5 111.0 L 120.9 111.4 L 121.8 111.7 L 122.7 111.9 L 124.0 112.0 L 147.0 112.0 L 153.0 87.0 L 155.0 87.0 L 153.0 112.0 L 156.6 114.4 L 159.0 118.0 L 156.6 121.6 L 153.0 124.0 L 124.0 124.0 L 121.4 123.8 L 118.9 123.4 L 116.5 122.6 L 114.2 121.3 L 112.2 119.7 L 110.6 117.7 L 109.3 115.4 L 108.5 113.0 L 108.1 110.5 L 108.0 108.0 L 108.0 42.0 L 83.0 42.0 L 83.0 63.0 L 82.2 73.2 L 80.6 82.8 L 78.1 91.9 L 74.7 100.3 L 70.4 108.0 L 65.2 115.1 L 59.2 121.5 L 52.4 127.1 L 44.8 131.8 L 36.4 135.7 L 35.5 134.2 L 42.7 128.7 L 49.0 123.0 L 54.5 117.0 L 59.1 110.6 L 63.0 103.9 L 66.1 96.7 L 68.4 89.0 L 70.0 80.9 L 70.9 72.2 L 71.0 63.0 L 71.0 42.0 Z " />
</g>
</svg>
