<svg xmlns="http://www.w3.org/2000/svg" xmlns:xlink="http://www.w3.org/1999/xlink" version="1.1" baseProfile="full" viewBox="0 0 200 200" width="200" height="200">
<g fill="black">
<path d="M 57.3 153.1 L 56.2 149.7 L 54.8 146.2 L 53.2 142.5 L 51.4 138.8 L 49.3 134.9 L 47.0 130.8 L 45.16050939559936 127.70965576171875 L 44.7 130.4 L 42.1 140.7 L 38.9 150.3 L 35.0 159.1 L 30.4 167.1 L 25.2 174.3 L 19.3 180.5 L 12.7 185.6 L 11.5 184.3 L 16.4 177.9 L 20.8 171.2 L 24.7 163.9 L 28.1 156.1 L 30.9 147.6 L 33.1 138.5 L 34.8 128.6 L 35.9 118.1 L 36.5 106.9 L 36.5 17.0 L 48.5 19.0 L 51.5 21.0 L 48.5 22.8 L 48.5 71.825 L 49.5 70.2 L 51.9 66.6 L 54.2 63.1 L 56.4 59.8 L 58.4 56.6 L 60.3 53.6 L 62.1 50.8 L 63.191160106658934 48.95866737365723 L 63.1 48.9 L 64.1 47.5 L 73.2 55.4 L 74.4 58.8 L 70.40667486190796 58.318046951293944 L 68.6 60.2 L 66.0 62.8 L 63.3 65.4 L 60.4 68.2 L 57.4 71.1 L 54.1 74.1 L 50.7 77.2 L 48.5 78.99473686218262 L 48.5 95.0 L 47.9 107.5 L 46.6 119.3 L 45.88454704284668 123.47975130081177 L 47.0 124.4 L 50.8 127.8 L 54.2 131.2 L 57.3 134.7 L 60.2 138.3 L 62.7 141.9 L 65.0 145.5 L 67.1 149.1 L 68.8 152.8 L 70.3 156.5 L 69.6 161.0 L 66.0 163.8 L 61.5 163.2 L 58.7 159.6 L 58.1 156.4 Z M 126.6 181.2 L 124.2 180.6 L 122.0 179.7 L 119.9 178.4 L 118.2 176.8 L 116.8 174.9 L 115.9 172.8 L 115.3 170.6 L 115.0 168.3 L 115.1 166.0 L 115.1 153.0 L 106.2 153.0 L 106.2 175.0 L 96.2 180.0 L 96.2 169.0 L 76.8 169.0 L 76.8 165.0 L 96.2 165.0 L 96.2 153.0 L 72.2 153.0 L 72.2 149.0 L 96.2 149.0 L 96.2 137.0 L 76.8 137.0 L 76.8 133.0 L 96.2 133.0 L 101.2 128.0 L 111.2 137.0 L 106.2 140.0 L 106.2 149.0 L 115.1 149.0 L 115.1 104.0 L 106.2 104.0 L 106.2 120.0 L 96.2 125.0 L 96.2 120.0 L 76.8 120.0 L 76.8 116.0 L 96.2 116.0 L 96.2 104.0 L 72.2 104.0 L 72.2 100.0 L 96.2 100.0 L 96.2 90.0 L 76.8 90.0 L 76.8 86.0 L 96.2 86.0 L 101.2 81.0 L 111.2 90.0 L 106.2 93.0 L 106.2 100.0 L 115.1 100.0 L 115.1 77.0 L 96.7 77.0 L 84.7 83.0 L 84.7 57.142222213745114 L 82.8 59.0 L 77.9 63.0 L 72.8 66.6 L 71.6 65.3 L 75.2 60.3 L 78.8 55.4 L 82.3 50.4 L 84.7 46.76363639831543 L 84.7 43.0 L 86.50902252197265 43.904511260986325 L 88.7 40.3 L 91.7 35.0 L 94.5 29.6 L 97.2 24.1 L 99.6 18.4 L 101.5435435295105 13.414388275146484 L 101.5 13.4 L 101.7710280418396 12.830841159820556 L 101.9 12.5 L 101.9237771987915 12.51006784439087 L 102.5 11.3 L 113.0 17.2 L 114.9 20.2 L 111.18026485443116 20.722068119049073 L 109.9 23.2 L 109.45862064361572 24.0 L 134.8 24.0 L 140.8 19.0 L 151.8 28.0 L 146.8 31.0 L 143.73023252487184 32.27906980514526 L 142.9 33.5 L 141.1 35.9 L 137.3 40.7 L 135.3 42.9 L 133.1 45.2 L 130.9 47.3 L 128.86000003814698 49.0 L 161.2 49.0 L 167.2 44.0 L 178.2 53.0 L 173.2 57.0 L 173.2 81.0 L 161.2 87.0 L 161.2 77.0 L 143.0 77.0 L 143.0 100.0 L 167.8 100.0 L 173.8 95.0 L 184.8 104.0 L 179.8 108.0 L 179.8 157.0 L 167.8 163.0 L 167.8 153.0 L 143.0 153.0 L 143.0 159.2 L 132.0 164.7 L 132.0 153.0 L 123.1 153.0 L 123.1 166.0 L 123.3 167.4 L 123.6 168.5 L 124.0 169.3 L 124.5 169.8 L 124.9 170.1 L 125.4 170.3 L 125.9 170.4 L 126.7 170.5 L 178.2 170.5 L 183.7 149.5 L 185.7 149.5 L 183.7 170.5 L 187.0 172.7 L 189.2 176.0 L 187.0 179.3 L 183.7 181.5 L 129.1 181.5 Z M 123.1 104.0 L 123.1 149.0 L 132.0 149.0 L 132.0 104.0 Z M 152.7 137.6 L 150.0 140.4 L 147.1 143.1 L 144.2 145.5 L 143.0 144.557142829895 L 143.0 149.0 L 167.8 149.0 L 167.8 115.41052627563477 L 166.83119773864746 115.61448469161988 L 166.6 116.1 L 164.6 120.1 L 162.4 124.0 L 161.28177709579467 125.82981929779052 L 161.5 126.1 L 163.5 128.8 L 165.5 131.7 L 167.4 134.7 L 167.6 139.2 L 164.6 142.7 L 160.0 142.8 L 156.6 139.8 L 154.83144874572753 134.97667846679687 Z M 143.0 104.0 L 143.0 144.0333333015442 L 144.6 141.1 L 146.1 137.7 L 147.7 134.3 L 149.3 130.8 L 150.8 127.2 L 151.23495149612427 126.08155336380005 L 150.9 125.3 L 149.6 122.6 L 148.3 120.0 L 147.1 117.3 L 145.8 114.7 L 144.2 112.3 L 145.5 111.0 L 147.8 112.9 L 150.3 114.6 L 152.7 116.6 L 154.20293102264404 118.0375862121582 L 154.9 116.0 L 156.1 112.0 L 157.02675561904908 108.83358478546143 L 156.9 108.8 L 157.8 106.4 L 167.8 111.4925926208496 L 167.8 104.0 Z M 15.2 108.6 L 12.4 104.9 L 12.9 100.4 L 14.6 97.6 L 16.1 94.4 L 17.5 90.8 L 18.7 86.8 L 19.7 82.4 L 20.4 77.5 L 21.0 72.3 L 21.4 66.6 L 21.7 60.6 L 22.0 54.1 L 23.7 53.8 L 25.5 60.2 L 26.7 66.3 L 27.5 72.2 L 28.0 77.8 L 28.1 83.2 L 27.8 88.3 L 27.3 93.2 L 26.3 97.8 L 25.0 102.2 L 23.3 106.3 L 19.7 109.0 Z M 123.1 53.0 L 123.1 100.0 L 132.0 100.0 L 132.0 53.0 Z M 143.0 53.0 L 143.0 73.0 L 161.2 73.0 L 161.2 53.0 Z M 96.7 53.0 L 96.7 73.0 L 115.1 73.0 L 115.1 53.0 Z M 107.25172414779664 28.0 L 106.7 29.0 L 103.2 34.6 L 99.6 40.0 L 95.7 45.1 L 93.69424457550049 47.497122287750244 L 96.7 49.0 L 125.70769233703614 49.0 L 126.4 47.8 L 127.5 44.9 L 128.7 42.2 L 129.8 39.4 L 130.8 36.7 L 131.9 34.1 L 133.7 28.7 L 133.94230766296386 28.0 Z " />
</g>
</svg>
