<svg xmlns="http://www.w3.org/2000/svg" xmlns:xlink="http://www.w3.org/1999/xlink" version="1.1" baseProfile="full" viewBox="0 0 200 200" width="200" height="200">
<g fill="black">
<path d="M 43.4 70.5 L 46.2 72.8 L 42.7176215171814 74.44263134002685 L 42.5 75.7 L 41.4 80.8 L 40.1 85.6 L 39.129629611968994 88.78835983276367 L 39.5 89.0 L 40.9 89.9 L 42.2 90.9 L 43.4 92.1 L 45.8 94.7 L 46.9 96.2 L 47.9 97.7 L 48.537735843658446 98.78415098190308 L 48.7 98.2 L 49.5 94.2 L 50.3 90.0 L 50.9 85.4 L 51.4 80.4 L 51.7 75.1 L 51.9 69.5 L 51.962208366394044 69.50466566085815 L 52.1 67.3 L 63.9 70.4 L 66.7 72.7 L 63.31056995391846 74.32953367233276 L 63.0 76.4 L 61.9 82.0 L 60.6 87.3 L 59.21379308700561 91.82827587127686 L 60.5 92.6 L 62.1 93.6 L 63.5 94.7 L 66.3 97.3 L 67.6 98.8 L 68.4 99.86666669845582 L 68.4 69.0 L 80.4 71.0 L 83.4 73.0 L 80.4 74.8 L 80.4 178.0 L 68.4 184.0 L 68.4 172.0 L 24.6 172.0 L 24.6 184.0 L 12.6 190.0 L 12.6 69.0 L 24.6 71.0 L 27.6 73.0 L 24.6 74.8 L 24.6 110.9 L 25.6 107.9 L 26.6 104.1 L 27.5 100.3 L 28.4 96.4 L 29.2 92.3 L 29.9 88.1 L 30.5 83.7 L 30.9 79.1 L 31.2 74.3 L 31.359163761138916 70.40048894882202 L 31.3 70.4 L 31.6 67.2 Z M 134.0 175.4 L 154.0 175.4 L 155.2 175.3 L 156.1 175.1 L 156.7 174.9 L 157.1 174.8 L 157.3 174.6 L 157.4 174.4 L 157.6 174.1 L 157.8 173.5 L 157.9 172.6 L 158.0 171.4 L 158.0 147.4 L 114.7 147.4 L 114.7 143.4 L 158.0 143.4 L 158.0 130.8 L 169.4 132.7 L 169.4 118.6 L 156.4 118.6 L 156.4 128.8 L 144.4 134.8 L 144.4 118.6 L 131.5 118.6 L 131.5 132.0 L 119.5 138.0 L 119.5 75.8 L 131.5 81.8 L 144.4 81.8 L 144.4 70.6 L 114.7 70.6 L 114.7 66.6 L 144.4 66.6 L 144.4 46.8 L 146.5 47.15 L 146.5 34.5 L 125.4 34.5 L 125.4 42.9 L 113.4 48.9 L 113.4 34.5 L 84.6 34.5 L 84.6 30.5 L 113.4 30.5 L 113.4 12.3 L 125.4 14.3 L 128.4 16.3 L 125.4 18.1 L 125.4 30.5 L 146.5 30.5 L 146.5 12.3 L 158.5 14.3 L 161.5 16.3 L 158.5 18.1 L 158.5 30.5 L 165.3 30.5 L 175.3 20.5 L 187.3 30.5 L 187.3 34.5 L 158.5 34.5 L 158.5 42.9 L 149.125 47.5875 L 156.4 48.8 L 159.4 50.8 L 156.4 52.6 L 156.4 66.6 L 168.61818180084228 66.6 L 173.23058824539186 61.52635297775269 L 168.9 62.2 L 165.2 59.6 L 165.1 58.6 L 164.9 57.5 L 164.6 56.4 L 164.1 55.3 L 163.6 54.1 L 162.9 52.9 L 162.1 51.6 L 161.2 50.3 L 160.2 49.0 L 158.8 48.2 L 159.6 46.6 L 161.1 47.2 L 162.9 47.4 L 164.7 47.7 L 166.4 48.2 L 168.0 48.7 L 169.6 49.4 L 171.1 50.2 L 172.6 51.1 L 174.0 52.1 L 175.4 53.2 L 176.1 57.7 L 173.92048196792604 60.76746988296509 L 176.8 57.6 L 186.8 66.6 L 186.8 70.6 L 156.4 70.6 L 156.4 81.8 L 169.4 81.8 L 175.4 76.8 L 186.4 85.8 L 181.4 89.8 L 181.4 128.0 L 170.7714285850525 133.31428575515747 L 173.0 134.8 L 170.0 136.6 L 170.0 143.4 L 173.37777776718139 143.4 L 179.6 136.4 L 187.6 143.4 L 187.6 147.4 L 170.0 147.4 L 170.0 171.4 L 169.9 173.9 L 169.4 176.4 L 168.6 178.8 L 167.4 181.1 L 165.7 183.1 L 163.7 184.7 L 161.5 186.0 L 159.1 186.8 L 156.6 187.2 L 154.0 187.4 L 154.0 181.4 L 134.0 178.4 Z M 98.5 185.1 L 94.4 183.1 L 92.8 178.8 L 93.3 173.3 L 93.5 168.2 L 93.5 163.6 L 93.1 159.5 L 92.6 155.8 L 92.14811820983887 154.19330921173096 L 90.5 153.9 L 91.310169506073 151.469491481781 L 90.7 149.7 L 89.3 147.1 L 87.7 144.6 L 85.4 142.6 L 86.2 141.0 L 89.5 142.1 L 92.7 143.8 L 93.76243658065796 144.7486041069031 L 94.2 143.6 L 96.1 138.4 L 98.3 132.3 L 101.0 125.3 L 104.0 117.4 L 107.5 108.6 L 111.4 98.9 L 115.9 88.3 L 117.6 88.8 L 115.0 100.0 L 112.6 110.2 L 110.3 119.4 L 108.2 127.6 L 106.5 134.8 L 105.0 141.0 L 103.8 146.3 L 103.0 150.6 L 102.5 153.9 L 102.3 156.0 L 101.12425270080567 155.79075679779052 L 101.8 157.5 L 103.1 162.3 L 104.0 167.5 L 104.6 173.3 L 104.8 179.5 L 102.8 183.6 Z M 133.8 167.2 L 133.2 165.5 L 132.5 163.7 L 131.6 161.8 L 130.5 160.0 L 129.3 158.0 L 127.9 156.0 L 126.4 153.9 L 124.4 152.3 L 125.4 150.7 L 127.7 152.1 L 130.3 153.1 L 132.6 154.2 L 134.9 155.5 L 137.0 156.9 L 139.0 158.5 L 140.8 160.1 L 142.5 161.9 L 144.1 163.8 L 145.5 165.9 L 145.5 170.4 L 142.3 173.7 L 137.7 173.7 L 134.5 170.5 L 134.2 168.9 Z M 58.4 156.6 L 58.2 155.1 L 57.6 152.1 L 57.2 150.6 L 57.119827556610105 150.27931032180786 L 55.4 153.9 L 53.3 157.5 L 50.9 160.7 L 48.3 163.4 L 45.5 165.5 L 44.2 164.4 L 45.6 161.4 L 46.7 158.2 L 46.950608253479004 157.37299270629882 L 44.2 159.8 L 39.6 159.4 L 36.6 156.0 L 36.6 151.6 L 36.5 150.1 L 36.5 148.6 L 36.47441082000732 148.21616163253785 L 36.4 148.4 L 34.6 152.4 L 32.5 156.2 L 30.2 159.6 L 27.7 162.7 L 25.1 165.4 L 24.6 165.1 L 24.6 168.0 L 68.4 168.0 L 68.4 160.8 L 66.5 162.7 L 61.9 162.7 L 58.7 159.5 L 58.6 158.0 Z M 24.6 119.0 L 24.6 161.5833333015442 L 24.8 161.0 L 26.8 153.8 L 27.8 149.9 L 28.6 146.0 L 29.4 141.8 L 30.1 137.5 L 30.6 132.9 L 31.1 128.2 L 31.33990020751953 124.20166254043579 L 31.3 124.2 L 31.37476634979248 123.62056074142455 L 31.4 123.2 L 31.428567600250243 123.20360097885131 L 31.7 121.1 L 43.3 124.7 L 46.1 127.0 L 42.55467290878296 128.57570095062255 L 42.3 129.9 L 41.0 134.9 L 39.7 139.6 L 38.79002695083618 142.21617250442506 L 39.2 142.5 L 40.5 143.5 L 41.7 144.6 L 45.0 148.2 L 46.0 149.5 L 47.0 150.9 L 48.0 152.2 L 47.79493675231934 154.5582278251648 L 48.7 151.3 L 49.6 147.5 L 50.3 143.3 L 50.9 138.8 L 51.4 134.0 L 51.7 128.9 L 51.86298227310181 124.49947948455811 L 51.8 124.5 L 52.1 121.3 L 63.9 124.4 L 66.7 126.7 L 63.27757005691528 128.41121492385864 L 63.0 130.2 L 61.9 135.7 L 60.6 140.8 L 59.21206893920898 145.24137935638427 L 62.0 147.1 L 63.5 148.3 L 64.9 149.5 L 66.2 150.7 L 67.4 152.0 L 68.4 153.1666666984558 L 68.4 119.0 Z M 58.4 103.1 L 58.0 100.1 L 57.6 98.6 L 57.3 97.1 L 57.26428575515747 96.99285717010498 L 55.5 100.8 L 53.3 104.4 L 51.0 107.7 L 48.3 110.4 L 45.5 112.5 L 44.2 111.4 L 45.5 108.4 L 46.640932655334474 105.35751295089722 L 44.9 106.8 L 40.4 106.3 L 37.4 102.8 L 37.4 98.2 L 37.2 95.2 L 37.110256385803225 94.57179489135743 L 37.1 94.6 L 35.3 98.7 L 33.3 102.6 L 31.1 106.2 L 28.6 109.4 L 26.0 112.4 L 24.6 111.6125 L 24.6 115.0 L 68.4 115.0 L 68.4 107.86060609817505 L 66.4 109.8 L 61.9 109.5 L 58.7 106.2 L 58.6 104.7 Z M 131.5 101.8 L 131.5 114.6 L 144.4 114.6 L 144.4 101.8 Z M 156.4 101.8 L 156.4 114.6 L 169.4 114.6 L 169.4 101.8 Z M 93.4 101.2 L 92.9 99.8 L 92.4 98.3 L 91.6 96.8 L 90.6 95.2 L 89.5 93.6 L 88.1 91.9 L 86.6 90.2 L 84.6 89.0 L 85.3 87.4 L 87.6 88.3 L 90.0 88.8 L 92.3 89.6 L 94.5 90.5 L 96.5 91.6 L 98.5 92.8 L 100.3 94.2 L 102.0 95.8 L 103.5 97.6 L 104.9 99.6 L 104.7 104.1 L 101.5 107.3 L 96.9 107.2 L 93.7 104.0 L 93.6 102.6 Z M 131.5 85.8 L 131.5 97.8 L 144.4 97.8 L 144.4 85.8 Z M 156.4 85.8 L 156.4 97.8 L 169.4 97.8 L 169.4 85.8 Z M 101.2 64.5 L 100.7 63.0 L 100.1 61.5 L 99.4 59.9 L 98.5 58.4 L 97.4 56.7 L 96.1 55.1 L 94.8 53.4 L 92.9 52.2 L 93.7 50.6 L 95.8 51.5 L 98.1 52.1 L 100.3 52.8 L 102.4 53.7 L 104.4 54.8 L 106.3 56.1 L 108.1 57.5 L 109.7 59.0 L 111.3 60.7 L 112.7 62.6 L 112.7 67.2 L 109.6 70.5 L 105.0 70.5 L 101.7 67.4 L 101.5 65.9 Z M 12.1 60.0 L 19.7 60.0 L 19.7 28.0 L 30.7 30.0 L 33.4 32.0 L 30.7 33.723404216766355 L 30.7 60.0 L 41.8 60.0 L 41.8 13.0 L 52.8 15.0 L 55.6 17.0 L 52.8 18.75 L 52.8 36.0 L 64.27777776718139 36.0 L 70.5 29.0 L 78.5 36.0 L 78.5 40.0 L 52.8 40.0 L 52.8 60.0 L 61.4 60.0 L 71.4 50.0 L 83.4 60.0 L 83.4 64.0 L 12.1 64.0 Z " />
</g>
</svg>
