<svg xmlns="http://www.w3.org/2000/svg" xmlns:xlink="http://www.w3.org/1999/xlink" version="1.1" baseProfile="full" viewBox="0 0 200 200" width="200" height="200">
<g fill="black">
<path d="M 59.0 30.0 L 144.0 30.0 L 150.0 25.0 L 161.0 34.0 L 156.0 38.0 L 156.0 95.0 L 144.0 101.0 L 144.0 89.0 L 106.64621849060059 89.0 L 111.1 99.6 L 116.5 110.6 L 122.4 120.7 L 128.9 129.9 L 136.0 138.1 L 143.8 145.5 L 152.1 152.1 L 161.2 157.8 L 170.9 162.7 L 179.35848560333253 166.0345952987671 L 183.0 163.0 L 194.0 172.0 L 189.0 175.0 L 183.7241379737854 177.19827585220338 L 183.5 177.4 L 181.6 179.2 L 179.6 181.0 L 177.7 182.9 L 175.8 184.9 L 173.8 187.1 L 171.7 189.3 L 169.6 191.6 L 167.8 194.4 L 166.1 193.5 L 167.3 190.4 L 168.2 187.3 L 169.2 184.3 L 170.3 181.4 L 171.5 178.7 L 172.23314418792725 177.11152095794677 L 165.4 174.0 L 155.0 167.9 L 145.4 160.9 L 136.8 153.0 L 129.0 144.2 L 122.1 134.7 L 116.2 124.3 L 111.2 113.0 L 107.2 101.0 L 104.48125 89.0 L 59.0 89.0 L 59.0 92.0 L 58.3 104.4 L 56.8 116.2 L 54.6 127.5 L 51.7 138.0 L 47.9 148.0 L 43.4 157.2 L 38.1 165.8 L 32.0 173.6 L 25.2 180.5 L 17.5 186.6 L 16.4 185.3 L 22.4 178.0 L 27.8 170.3 L 32.5 162.3 L 36.6 153.9 L 40.0 144.9 L 42.7 135.5 L 44.8 125.4 L 46.2 114.9 L 46.9 103.7 L 47.0 92.0 L 47.0 24.0 Z M 59.0 34.0 L 59.0 85.0 L 144.0 85.0 L 144.0 34.0 Z " />
</g>
</svg>
