<svg xmlns="http://www.w3.org/2000/svg" xmlns:xlink="http://www.w3.org/1999/xlink" version="1.1" baseProfile="full" viewBox="0 0 200 200" width="200" height="200">
<g fill="black">
<path d="M 138.0 168.2 L 150.0 168.2 L 151.2 168.1 L 152.1 167.9 L 153.0 167.6 L 153.4 167.2 L 153.7 166.3 L 153.9 165.4 L 154.0 164.2 L 154.0 140.5 L 107.0 140.5 L 107.0 182.2 L 95.0 188.2 L 95.0 140.5 L 48.0 140.5 L 48.0 175.4 L 36.0 181.4 L 36.0 130.5 L 48.0 136.5 L 95.0 136.5 L 95.0 122.2 L 107.0 124.2 L 110.0 126.2 L 107.0 128.0 L 107.0 136.5 L 154.0 136.5 L 160.0 131.5 L 171.0 140.5 L 166.0 144.5 L 166.0 164.2 L 165.8 166.7 L 165.4 169.2 L 164.6 171.6 L 163.3 173.9 L 161.7 175.9 L 159.7 177.5 L 157.4 178.8 L 155.0 179.6 L 152.5 180.0 L 150.0 180.2 L 150.0 174.2 L 138.0 171.2 Z M 77.1 115.2 L 77.7 115.0 L 78.0 114.8 L 78.2 114.7 L 78.4 114.5 L 78.7 113.6 L 78.9 112.7 L 79.0 111.4 L 79.0 101.0 L 38.0 101.0 L 38.0 121.0 L 26.0 127.0 L 26.0 61.0 L 38.0 67.0 L 79.0 67.0 L 85.0 62.0 L 96.0 71.0 L 91.0 75.0 L 91.0 111.4 L 90.8 114.0 L 90.4 116.5 L 89.6 118.9 L 88.3 121.2 L 86.7 123.2 L 84.7 124.8 L 82.4 126.0 L 80.0 126.9 L 77.5 127.3 L 74.9 127.4 L 74.95010395050049 121.38752593994141 L 63.0 118.4 L 63.0 115.4 L 76.2 115.4 Z M 124.6 123.8 L 122.4 123.6 L 120.2 123.2 L 118.1 122.3 L 116.1 121.0 L 114.4 119.3 L 113.0 117.3 L 112.0 115.1 L 111.3 112.7 L 111.0 110.2 L 111.0 52.6 L 123.0 58.6 L 165.0 58.6 L 165.0 44.7 L 123.0 44.7 L 111.0 50.7 L 111.0 12.9 L 123.0 14.9 L 126.0 16.9 L 123.0 18.7 L 123.0 26.0 L 166.8181818008423 26.0 L 175.0 17.0 L 185.0 26.0 L 185.0 30.0 L 123.0 30.0 L 123.0 40.7 L 165.0 40.7 L 171.0 35.7 L 182.0 44.7 L 177.0 48.7 L 177.0 62.6 L 167.87272729873658 67.16363639831543 L 175.0 73.4 L 175.0 77.4 L 123.0 77.4 L 123.0 86.8 L 160.7777777671814 86.8 L 167.0 79.8 L 175.0 86.8 L 175.0 90.8 L 123.0 90.8 L 123.0 100.2 L 160.7777777671814 100.2 L 167.0 93.2 L 175.0 100.2 L 175.0 104.2 L 123.0 104.2 L 123.0 110.2 L 122.8 111.4 L 122.7 112.4 L 122.7 113.8 L 122.8 114.3 L 123.0 114.8 L 123.5 115.3 L 124.3 115.9 L 125.5 116.3 L 127.0 116.7 L 179.5 116.7 L 183.0 111.7 L 185.0 111.7 L 183.0 116.7 L 185.1 118.1 L 186.5 120.2 L 185.1 122.3 L 183.0 123.7 L 127.0 123.7 Z M 38.0 86.3 L 38.0 97.0 L 79.0 97.0 L 79.0 86.3 Z M 38.0 71.0 L 38.0 82.3 L 79.0 82.3 L 79.0 71.0 Z M 123.0 62.6 L 123.0 73.4 L 160.7777777671814 73.4 L 165.08000001907348 68.56000003814697 L 165.0 68.6 L 165.0 62.6 Z M 37.6 47.5 L 37.1 45.9 L 36.5 44.2 L 35.7 42.5 L 34.8 40.8 L 33.7 39.0 L 32.5 37.1 L 31.1 35.2 L 29.3 33.8 L 30.3 32.3 L 32.4 33.4 L 34.7 34.3 L 36.9 35.2 L 39.0 36.4 L 41.0 37.6 L 42.9 39.0 L 44.7 40.6 L 46.3 42.2 L 47.9 44.0 L 49.3 45.9 L 49.3 50.5 L 46.390909099578856 53.5 L 66.36400003433228 53.5 L 67.2 52.4 L 68.6 49.7 L 70.1 47.1 L 71.4 44.6 L 72.6 42.2 L 73.8 39.9 L 74.8 37.7 L 75.8 35.6 L 76.6 33.5 L 76.97433776855469 32.48394041061401 L 76.8 32.4 L 77.4470588684082 31.3 L 16.0 31.3 L 16.0 27.3 L 53.0 27.3 L 53.0 12.9 L 65.0 14.9 L 68.0 16.9 L 65.0 18.7 L 65.0 27.3 L 80.0 27.3 L 90.0 17.3 L 102.0 27.3 L 102.0 31.3 L 78.65217390060425 31.3 L 87.6 37.6 L 89.2 40.9 L 84.6777777671814 40.9 L 84.3 41.3 L 82.5 43.2 L 78.5 46.8 L 76.3 48.7 L 74.0 50.5 L 71.6 52.3 L 69.86666669845582 53.5 L 85.81818180084228 53.5 L 94.0 44.5 L 104.0 53.5 L 104.0 57.5 L 14.0 57.5 L 14.0 53.5 L 41.28064517974853 53.5 L 38.3 50.7 L 38.0 49.1 Z " />
</g>
</svg>
