<svg xmlns="http://www.w3.org/2000/svg" xmlns:xlink="http://www.w3.org/1999/xlink" version="1.1" baseProfile="full" viewBox="0 0 200 200" width="200" height="200">
<g fill="black">
<path d="M 61.1 176.0 L 71.1 176.0 L 72.3 175.9 L 73.2 175.7 L 74.1 175.4 L 74.5 175.0 L 74.7 174.7 L 74.9 174.1 L 75.0 173.2 L 75.1 172.0 L 75.1 157.0 L 52.6 157.0 L 52.6 182.2 L 40.6 188.2 L 40.6 111.715625 L 38.9 114.0 L 35.5 118.0 L 31.8 121.8 L 28.32232141494751 124.59910717010499 L 27.3 133.8 L 25.7 144.0 L 23.8 153.6 L 21.7 162.5 L 19.2 170.8 L 16.2 178.4 L 12.9 185.3 L 11.2 184.6 L 12.6 177.3 L 14.0 169.5 L 15.2 161.2 L 16.4 152.3 L 17.3 142.9 L 18.0 132.9 L 18.5 122.3 L 18.8 111.1 L 18.8 99.3 L 18.6 87.0 L 18.6 17.0 L 30.6 23.0 L 83.3 23.0 L 89.3 18.0 L 100.3 27.0 L 95.3 31.0 L 95.3 56.0 L 83.3 62.0 L 83.3 56.0 L 30.6 56.0 L 30.6 87.0 L 30.2 99.6 L 29.5 111.6 L 28.819060802459717 119.36270713806152 L 31.1 114.9 L 33.4 110.5 L 35.4 106.0 L 37.3 101.5 L 39.0 96.9 L 40.4 92.1 L 41.7 87.3 L 42.7 82.4 L 43.42305088043213 78.30271186828614 L 43.4 78.3 L 43.53333330154419 77.6777777671814 L 43.6 77.3 L 43.61368417739868 77.30280704498291 L 44.0 75.5 L 55.3 79.7 L 57.9 82.3 L 54.24671535491943 83.56204376220703 L 53.8 85.2 L 51.9 90.5 L 49.9 95.6 L 47.5 100.5 L 44.9 105.2 L 44.211864376068114 106.30593223571778 L 52.6 110.5 L 75.1 110.5 L 80.17657432556152 106.26952142715454 L 79.8 105.5 L 77.8 100.7 L 76.1 95.5 L 74.7 90.1 L 73.8 84.5 L 73.2 78.6 L 73.2 73.3 L 52.1 73.3 L 52.1 69.3 L 62.977777767181394 69.3 L 69.2 62.3 L 77.2 69.3 L 77.2 73.3 L 75.49285717010498 73.3 L 77.3 77.7 L 79.5 83.0 L 81.6 87.9 L 83.9 92.5 L 86.2 96.7 L 88.7 100.6 L 91.3 104.1 L 94.1 107.3 L 96.9 110.2 L 99.9 112.8 L 101.7 114.4 L 90.9 122.4 L 87.6 118.6 L 87.37414331436158 118.28068532943726 L 87.1 118.5 L 87.1 172.0 L 86.9 174.5 L 86.5 177.0 L 85.7 179.4 L 84.5 181.7 L 82.8 183.7 L 80.8 185.4 L 78.5 186.6 L 76.1 187.4 L 73.6 187.8 L 71.1 188.0 L 71.1 182.0 L 61.1 179.0 Z M 133.9 101.4 L 133.8 100.0 L 133.6 98.6 L 133.3 97.1 L 132.9 95.6 L 132.09604320526122 93.02733812332153 L 130.2 97.0 L 128.0 101.2 L 125.5 105.1 L 122.7 108.7 L 119.6 112.0 L 116.4 115.0 L 115.1 113.97857141494751 L 115.1 116.9 L 171.8 116.9 L 171.8 109.1 L 168.8 112.1 L 164.2 112.0 L 161.0 108.7 L 160.8 107.1 L 160.2 103.7 L 159.7 102.0 L 159.2 100.2 L 158.6 98.5 L 158.0 96.7 L 157.68471851348878 95.99061660766601 L 155.9 99.9 L 153.5 104.0 L 150.9 107.7 L 148.0 110.8 L 144.8 113.3 L 141.5 115.1 L 140.4 113.7 L 142.3 110.8 L 144.0 107.7 L 145.5 104.4 L 146.9 100.8 L 148.2 96.8 L 149.3 92.5 L 150.2 87.8 L 151.0 82.7 L 151.6 77.2 L 151.93214931488038 72.30079708099365 L 151.9 72.3 L 151.970370388031 71.73703699111938 L 152.0 71.3 L 152.02466602325438 71.30267219543457 L 152.3 69.1 L 164.0 72.6 L 166.7 74.9 L 163.26568336486815 76.45516223907471 L 162.8 78.9 L 161.4 84.8 L 159.8 90.2 L 159.13107051849366 92.09530029296874 L 159.9 92.5 L 161.7 93.6 L 163.5 94.8 L 166.7 97.6 L 168.2 99.2 L 169.6 100.8 L 170.9 102.5 L 171.8 103.74615383148193 L 171.8 74.2 L 183.8 76.2 L 186.8 78.2 L 183.8 80.0 L 183.8 178.9 L 171.8 184.9 L 171.8 174.9 L 115.1 174.9 L 115.1 181.9 L 103.1 187.9 L 103.1 74.2 L 115.1 76.2 L 118.1 78.2 L 115.1 80.0 L 115.1 113.6833333015442 L 116.8 110.0 L 118.4 106.1 L 119.9 102.1 L 121.3 98.1 L 122.5 94.0 L 123.6 89.7 L 124.5 85.3 L 125.3 80.7 L 125.8 76.0 L 126.19746599197387 72.10483303070069 L 126.1 72.1 L 126.5 69.1 L 138.2 72.7 L 140.9 75.1 L 137.31044082641603 76.62888631820678 L 137.0 78.0 L 135.7 83.0 L 134.1 87.9 L 133.43888893127442 89.62623453140259 L 134.4 90.0 L 136.1 91.0 L 137.7 92.0 L 139.2 93.2 L 140.6 94.5 L 142.0 96.0 L 143.2 97.5 L 144.4 99.2 L 145.4 101.0 L 144.8 105.5 L 141.2 108.4 L 136.7 107.8 L 133.8 104.2 L 133.9 102.8 Z M 161.0 159.2 L 160.7 157.5 L 160.3 155.9 L 159.8 154.2 L 159.2 152.5 L 158.26185569763183 150.22164945602418 L 156.4 154.3 L 154.0 158.4 L 151.4 162.1 L 148.5 165.2 L 145.3 167.7 L 142.0 169.5 L 140.9 168.1 L 142.8 165.2 L 144.5 162.1 L 146.0 158.8 L 147.4 155.2 L 148.7 151.2 L 149.8 146.9 L 150.7 142.2 L 151.5 137.1 L 152.1 131.6 L 152.43214931488038 126.70079708099365 L 152.4 126.7 L 152.470370388031 126.13703699111939 L 152.5 125.7 L 152.52466602325438 125.70267219543457 L 152.8 123.5 L 164.5 127.0 L 167.2 129.3 L 163.76568336486815 130.8551622390747 L 163.3 133.3 L 161.9 139.2 L 160.3 144.6 L 159.70954904556274 146.27294425964357 L 160.4 146.6 L 162.2 147.6 L 163.9 148.8 L 165.6 150.1 L 167.2 151.5 L 168.7 153.0 L 170.1 154.6 L 171.4 156.3 L 171.8 156.85384616851806 L 171.8 120.9 L 115.1 120.9 L 115.1 170.9 L 171.8 170.9 L 171.8 163.321875 L 169.3 165.9 L 164.7 165.7 L 161.5 162.5 L 161.3 160.8 Z M 134.4 155.8 L 134.3 154.4 L 134.1 153.0 L 133.8 151.5 L 133.4 150.0 L 132.53938846588136 147.24604320526123 L 130.7 151.1 L 128.5 155.2 L 126.0 159.2 L 123.2 162.9 L 120.2 166.3 L 116.9 169.4 L 115.5 168.3 L 117.3 164.3 L 118.9 160.3 L 120.4 156.3 L 121.8 152.2 L 123.0 148.1 L 124.1 143.8 L 125.0 139.4 L 125.8 134.9 L 126.4 130.3 L 126.7161865234375 126.50576133728028 L 126.6 126.5 L 127.0 123.5 L 138.7 127.1 L 141.4 129.5 L 137.79146919250488 131.0369668006897 L 137.5 132.3 L 136.2 137.3 L 134.6 142.1 L 133.85849056243896 143.99496850967407 L 134.9 144.4 L 136.6 145.4 L 138.2 146.4 L 139.7 147.6 L 141.1 148.9 L 142.5 150.4 L 143.7 151.9 L 144.9 153.6 L 145.9 155.4 L 145.3 159.9 L 141.7 162.8 L 137.2 162.2 L 134.3 158.6 L 134.4 157.2 Z M 52.6 135.7 L 52.6 153.0 L 75.1 153.0 L 75.1 135.7 Z M 52.6 114.5 L 52.6 131.7 L 75.1 131.7 L 75.1 114.5 Z M 99.0 61.7 L 114.7 61.7 L 114.7 23.8 L 125.7 25.8 L 128.5 27.8 L 125.7 29.55 L 125.7 61.7 L 138.0 61.7 L 138.0 12.5 L 149.0 14.5 L 151.7 16.5 L 149.0 18.223404216766358 L 149.0 35.0 L 162.61818180084228 35.0 L 170.8 26.0 L 180.8 35.0 L 180.8 39.0 L 149.0 39.0 L 149.0 61.7 L 165.9 61.7 L 175.9 51.7 L 187.9 61.7 L 187.9 65.7 L 99.0 65.7 Z M 30.6 27.0 L 30.6 52.0 L 83.3 52.0 L 83.3 27.0 Z " />
</g>
</svg>
