<svg xmlns="http://www.w3.org/2000/svg" xmlns:xlink="http://www.w3.org/1999/xlink" version="1.1" baseProfile="full" viewBox="0 0 200 200" width="200" height="200">
<g fill="black">
<path d="M 70.5 18.0 L 72.6 20.9 L 69.01118364334107 21.592578601837157 L 65.9 29.1 L 61.1 40.0 L 56.1 50.6 L 50.9 61.0 L 45.4 71.1 L 44.30552997589111 73.00092163085938 L 50.3 74.0 L 53.3 76.0 L 50.3 77.8 L 50.3 183.0 L 38.3 189.0 L 38.3 83.27796611785888 L 33.8 90.6 L 27.5 99.9 L 20.9 108.9 L 14.0 117.5 L 12.5 116.4 L 17.8 106.8 L 22.9 97.1 L 28.1 87.3 L 33.0 77.4 L 37.9 67.3 L 42.5 57.0 L 47.0 46.5 L 51.2 35.8 L 55.3 24.9 L 59.2 13.8 L 59.22965879440308 13.811023616790772 L 59.7 12.4 Z M 128.3 176.1 L 149.5 176.1 L 150.4 175.9 L 151.0 175.7 L 151.3 175.5 L 151.5 175.4 L 151.7 175.2 L 151.9 174.9 L 152.0 174.3 L 152.2 173.4 L 152.3 172.1 L 152.3 108.9 L 68.7 108.9 L 68.7 104.9 L 165.4 104.9 L 175.4 94.9 L 187.4 104.9 L 187.4 108.9 L 164.3 108.9 L 164.3 172.1 L 164.1 174.7 L 163.7 177.2 L 162.9 179.6 L 161.7 181.8 L 160.0 183.9 L 158.0 185.5 L 155.7 186.7 L 153.3 187.5 L 150.8 188.0 L 148.3 188.1 L 148.3 182.1 L 128.3 179.1 Z M 93.7 124.7 L 119.8 124.7 L 125.8 119.7 L 136.8 128.7 L 131.8 132.7 L 131.8 160.4 L 119.8 166.4 L 119.8 156.4 L 93.7 156.4 L 93.7 163.4 L 81.7 169.4 L 81.7 118.7 Z M 93.7 128.7 L 93.7 152.4 L 119.8 152.4 L 119.8 128.7 Z M 150.2 93.1 L 148.1 90.7 L 145.4 88.3 L 142.2 85.9 L 138.3 83.5 L 133.9 81.0 L 129.0 78.5 L 123.6 75.9 L 121.39834709167481 74.9826446533203 L 119.2 78.5 L 113.8 84.7 L 107.5 90.1 L 100.4 94.5 L 92.5 98.0 L 83.8 100.4 L 74.5 101.8 L 74.1 100.1 L 82.7 96.8 L 90.3 93.1 L 96.9 88.9 L 102.7 84.2 L 107.5 79.0 L 111.5 73.3 L 114.7 66.9 L 115.60434780120849 64.3 L 85.5 64.3 L 85.5 60.3 L 116.9956521987915 60.3 L 117.1 60.0 L 118.8 52.3 L 119.60240535736084 44.900039768218996 L 119.6 44.9 L 119.9 41.8 L 131.7 45.1 L 134.5 47.4 L 130.99234275817872 49.054555320739745 L 130.0 54.6 L 128.23103446960448 60.3 L 143.0 60.3 L 153.0 50.3 L 162.6148148536682 58.31234569549561 L 163.8 56.1 L 164.9 53.2 L 165.9 50.4 L 166.9 47.9 L 167.8 45.4 L 168.6 43.1 L 169.3 41.0 L 169.6 40.0 L 83.35749998092652 40.0 L 83.5 41.9 L 83.5 45.7 L 83.3 49.2 L 82.8 52.6 L 82.1 55.7 L 80.9 58.6 L 79.4 61.3 L 77.3 63.7 L 72.9 64.8 L 68.9 62.5 L 67.8 58.1 L 70.1 54.1 L 71.1 53.7 L 72.2 52.9 L 73.5 51.6 L 74.7 49.7 L 75.9 47.4 L 77.0 44.6 L 78.0 41.3 L 79.0 37.7 L 79.9 33.5 L 80.3 29.0 L 82.1 29.0 L 82.5 33.6 L 82.89069766998291 36.0 L 120.4 36.0 L 120.4 13.3 L 132.4 15.3 L 135.4 17.3 L 132.4 19.1 L 132.4 36.0 L 170.1 36.0 L 170.7951219558716 35.420731735229495 L 170.8 35.4 L 170.8126328468323 35.406139278411864 L 176.1 31.0 L 187.1 40.0 L 182.1 43.0 L 178.29534883499144 44.58527135848999 L 177.4 45.6 L 175.8 47.4 L 174.1 49.3 L 168.1 55.3 L 165.8 57.4 L 164.08800001144408 59.53999996185303 L 165.0 60.3 L 165.0 64.3 L 126.85 64.3 L 123.7 71.3 L 123.03564014434815 72.36297578811646 L 124.6 72.6 L 130.7 73.7 L 136.3 75.2 L 141.4 76.8 L 146.1 78.6 L 150.4 80.7 L 154.2 83.0 L 157.6 85.5 L 160.6 88.3 L 163.1 91.4 L 163.6 96.0 L 160.9 99.6 L 156.3 100.1 L 152.7 97.3 L 151.7 95.3 Z " />
</g>
</svg>
