<svg xmlns="http://www.w3.org/2000/svg" xmlns:xlink="http://www.w3.org/1999/xlink" version="1.1" baseProfile="full" viewBox="0 0 200 200" width="200" height="200">
<g fill="black">
<path d="M 61.0 14.0 L 64.0 16.0 L 61.0 17.8 L 61.0 33.0 L 78.81818180084228 33.0 L 87.0 24.0 L 97.0 33.0 L 97.0 37.0 L 61.0 37.0 L 61.0 57.0 L 78.5 57.0 L 84.5 52.0 L 95.5 61.0 L 90.5 65.0 L 90.5 118.0 L 78.5 124.0 L 78.5 114.0 L 61.0 114.0 L 61.0 145.0 L 81.81818180084228 145.0 L 90.0 136.0 L 94.4444444656372 140.0 L 134.2 140.0 L 134.2 110.0 L 112.72083330154419 110.0 L 110.5 114.1 L 107.8 118.9 L 104.8 123.5 L 101.5 128.0 L 98.0 132.4 L 96.4 131.5 L 98.2 126.2 L 101.8 116.0 L 103.6 111.0 L 105.2 106.1 L 106.8 101.1 L 108.2 96.2 L 109.5 91.2 L 110.7 86.3 L 111.59405565261841 82.31738843917847 L 111.5 82.3 L 112.2 79.7 L 123.4 84.5 L 125.8 87.2 L 122.04140129089356 88.27388534545898 L 121.6 89.5 L 119.7 94.5 L 117.7 99.5 L 115.5 104.4 L 114.71632652282715 106.0 L 134.2 106.0 L 134.2 76.0 L 146.2 78.0 L 149.2 80.0 L 146.2 81.8 L 146.2 106.0 L 154.3 106.0 L 164.3 96.0 L 176.3 106.0 L 176.3 110.0 L 146.2 110.0 L 146.2 140.0 L 168.4181818008423 140.0 L 176.6 131.0 L 186.6 140.0 L 186.6 144.0 L 146.2 144.0 L 146.2 182.0 L 134.2 188.0 L 134.2 144.0 L 98.88888893127441 144.0 L 100.0 145.0 L 100.0 149.0 L 61.0 149.0 L 61.0 182.0 L 49.0 188.0 L 49.0 149.0 L 12.5 149.0 L 12.5 145.0 L 49.0 145.0 L 49.0 114.0 L 33.5 114.0 L 33.5 126.0 L 21.5 132.0 L 21.5 51.0 L 33.5 57.0 L 49.0 57.0 L 49.0 12.0 Z M 33.5 88.0 L 33.5 110.0 L 78.5 110.0 L 78.5 88.0 Z M 33.5 84.0 L 78.5 84.0 L 78.5 61.0 L 33.5 61.0 Z M 169.1 62.1 L 167.3 57.6 L 166.92909383773804 56.741059398651124 L 164.3 57.8 L 157.2 60.3 L 150.1 62.5 L 143.1 64.5 L 136.2 66.3 L 129.3 67.9 L 122.6 69.4 L 116.0 70.7 L 109.4 71.8 L 107.14127941131592 72.1882176399231 L 105.3 75.6 L 103.0 72.9 L 99.8 61.1 L 101.8 60.9 L 108.1 60.5 L 114.5 60.1 L 119.79245281219482 59.61886796951294 L 120.2 57.4 L 121.3 52.6 L 122.4 47.9 L 123.5 43.1 L 125.7 33.7 L 126.7 28.9 L 127.7 24.2 L 128.6 19.5 L 129.309397315979 15.71654748916626 L 129.2 15.7 L 129.9 13.0 L 141.1 17.5 L 143.6 20.2 L 139.90579528808593 21.321455001831055 L 139.6 22.3 L 138.0 27.0 L 136.3 31.7 L 134.5 36.4 L 132.6 41.0 L 130.6 45.6 L 128.5 50.1 L 126.2 54.5 L 123.7 58.8 L 123.42875289916992 59.221939945220946 L 127.8 58.7 L 134.6 57.9 L 141.6 57.0 L 148.7 56.1 L 156.0 55.0 L 163.4 54.1 L 165.67386903762818 53.834223079681394 L 165.4 53.2 L 163.4 49.0 L 161.3 44.9 L 159.1 40.9 L 156.8 37.1 L 154.5 33.2 L 152.1 29.5 L 153.4 28.2 L 157.2 30.8 L 160.8 33.7 L 164.2 37.1 L 167.5 40.7 L 170.5 44.5 L 173.5 48.7 L 176.2 53.0 L 178.8 57.6 L 181.3 62.5 L 183.6 67.5 L 183.4 72.0 L 180.1 75.2 L 175.5 75.0 L 172.4 71.7 L 170.8 66.8 Z " />
</g>
</svg>
