<svg xmlns="http://www.w3.org/2000/svg" xmlns:xlink="http://www.w3.org/1999/xlink" version="1.1" baseProfile="full" viewBox="0 0 200 200" width="200" height="200">
<g fill="black">
<path d="M 85.9 142.0 L 87.4 145.2 L 83.5861538887024 145.2 L 81.2 148.5 L 76.2 154.7 L 70.8 160.5 L 65.1 165.9 L 59.0 170.9 L 52.7 175.4 L 46.0 179.5 L 39.0 183.2 L 31.6 186.3 L 23.9 188.8 L 23.2 187.1 L 29.9 182.9 L 36.3 178.5 L 42.3 174.1 L 48.1 169.4 L 53.5 164.4 L 58.6 159.2 L 63.3 153.8 L 67.8 148.0 L 71.9 142.0 L 75.7 135.6 L 75.72148275375366 135.6134793281555 L 76.2 134.8 Z M 74.5 121.9 L 76.1 125.2 L 72.2241379737854 125.2 L 70.5 127.7 L 66.4 133.1 L 62.1 138.2 L 57.6 143.0 L 53.0 147.6 L 48.3 151.8 L 43.4 155.6 L 38.3 159.1 L 33.0 162.2 L 27.6 164.7 L 26.6 163.2 L 30.8 159.1 L 39.0 150.7 L 43.0 146.3 L 46.8 141.8 L 50.6 137.0 L 54.2 132.0 L 57.7 126.8 L 61.1 121.3 L 63.83326425552368 116.5167875289917 L 63.8 116.5 L 64.8 114.8 Z M 107.4 67.0 L 107.4 148.0 L 108.6 144.5 L 110.8 137.0 L 112.7 129.0 L 114.4 120.5 L 115.9 111.4 L 117.0 101.8 L 117.8 91.5 L 118.3 80.6 L 118.5 69.1 L 118.4826446533203 67.0 Z M 64.1 104.9 L 65.6 108.1 L 61.7670823097229 108.16608476638794 L 61.1 109.1 L 57.9 113.3 L 54.6 117.3 L 51.0 121.3 L 47.2 125.2 L 43.3 129.0 L 39.1 132.6 L 34.7 136.2 L 30.0 139.5 L 25.0 142.6 L 23.9 141.3 L 27.4 136.7 L 31.0 132.3 L 34.4 128.1 L 37.7 123.8 L 40.8 119.6 L 43.7 115.5 L 46.5 111.3 L 49.1 107.1 L 51.5 102.9 L 53.305629920959475 99.60276279449462 L 53.3 99.6 L 54.3 97.8 Z M 72.7 52.1 L 71.8 49.1 L 71.19545164108277 47.34680986404419 L 69.8 48.0 L 65.0 49.9 L 60.1 51.7 L 55.1 53.3 L 50.1 54.8 L 46.51505880355835 55.834117603302005 L 57.0 60.6 L 59.3 63.4 L 55.745070457458496 64.2887324333191 L 53.7 70.3 L 51.07826089859009 77.0 L 68.1 77.0 L 78.1 67.0 L 90.1 77.0 L 90.1 81.0 L 61.02758617401123 81.0 L 62.3 81.9 L 66.3 84.9 L 70.1 88.0 L 73.5 91.2 L 76.8 94.4 L 79.8 97.8 L 82.6 101.2 L 85.2 104.6 L 87.6 108.1 L 89.8 111.6 L 90.0 116.2 L 87.0 119.7 L 82.4 119.9 L 79.0 116.8 L 77.7 113.5 L 76.1 110.1 L 74.4 106.6 L 72.4 103.0 L 70.3 99.5 L 68.0 95.8 L 65.4 92.1 L 62.8 88.3 L 60.0 84.3 L 57.442500019073485 81.0 L 49.46206893920898 81.0 L 46.4 88.2 L 42.4 96.4 L 38.2 104.1 L 33.8 111.3 L 29.2 118.0 L 24.3 124.2 L 19.2 129.7 L 13.7 134.6 L 12.4 133.3 L 16.2 127.3 L 20.0 121.1 L 23.7 114.5 L 27.2 107.6 L 30.7 100.3 L 33.9 92.5 L 37.1 84.4 L 38.27241382598877 81.0 L 14.0 81.0 L 14.0 77.0 L 39.65172414779663 77.0 L 40.1 75.7 L 42.9 66.7 L 45.5 57.2 L 45.5641263961792 57.218959140777585 L 45.888291931152345 56.014915752410886 L 44.9 56.3 L 39.8 57.7 L 34.5 59.1 L 27.921506023406984 60.71359281539917 L 26.4 64.3 L 23.9 61.7 L 19.8 50.2 L 20.756521701812744 50.05652170181274 L 23.3 48.1 L 25.7 45.6 L 28.1 42.7 L 30.6 39.3 L 33.0 35.5 L 35.4 31.3 L 37.7 27.0 L 39.9 22.4 L 42.0 17.8 L 43.60742702484131 14.102917766571045 L 43.6 14.1 L 43.85714282989502 13.52857141494751 L 44.0 13.2 L 44.00409555435181 13.202009868621825 L 44.5 12.1 L 54.8 18.5 L 56.6 21.6 L 52.74036359786987 21.932727241516112 L 52.1 23.0 L 49.2 27.6 L 46.2 32.1 L 43.0 36.4 L 39.6 40.4 L 36.1 44.0 L 32.5 47.1 L 29.924577903747558 48.84015007019043 L 37.8 47.8 L 43.1 47.2 L 48.3 46.5 L 53.5 45.9 L 58.7 45.2 L 63.8 44.7 L 69.0 44.3 L 70.02393817901611 44.25984554290771 L 69.6 43.2 L 68.3 40.1 L 66.8 37.0 L 65.1 33.8 L 63.4 30.5 L 61.2 27.3 L 62.5 26.1 L 65.5 28.6 L 68.6 31.1 L 71.4 33.6 L 73.9 36.4 L 76.3 39.2 L 78.5 42.0 L 80.5 45.0 L 82.3 48.1 L 83.9 51.2 L 85.4 54.4 L 84.8 58.9 L 81.3 61.8 L 76.8 61.3 L 73.8 57.8 L 73.3 54.9 Z M 157.3 119.7 L 157.1 115.8 L 156.7 112.1 L 156.1 108.4 L 155.2 104.9 L 154.1 101.4 L 153.52648868560792 99.77505130767823 L 153.4 100.7 L 151.2 111.7 L 148.5 121.8 L 145.2 131.0 L 141.4 139.4 L 136.9 146.8 L 131.8 153.3 L 126.2 158.6 L 124.9 157.3 L 128.8 151.0 L 132.3 144.2 L 135.4 136.7 L 138.1 128.5 L 139.20132532119752 124.0446385383606 L 135.1 125.9 L 130.9 124.3 L 129.0 120.1 L 129.2 116.9 L 129.2 113.7 L 129.1 110.7 L 128.8 107.7 L 128.3 104.7 L 127.7 101.8 L 126.9 98.9 L 126.84356956481933 98.73635168075562 L 126.2 103.0 L 124.2 113.0 L 121.8 122.3 L 119.0 130.9 L 115.8 138.8 L 112.1 146.0 L 107.8 152.4 L 107.4 152.175 L 107.4 183.0 L 95.4 189.0 L 95.4 57.0 L 107.4 63.0 L 118.4495867729187 63.0 L 118.4 57.0 L 118.4 34.0 L 90.2 34.0 L 90.2 30.0 L 165.7 30.0 L 175.7 20.0 L 187.7 30.0 L 187.7 34.0 L 156.7 34.0 L 156.7 63.0 L 144.7 63.0 L 144.7 34.0 L 130.4 34.0 L 130.4 57.0 L 130.15806455612181 63.0 L 169.4 63.0 L 175.4 58.0 L 186.4 67.0 L 181.4 71.0 L 181.4 172.0 L 181.2 174.5 L 180.8 177.0 L 180.0 179.4 L 178.7 181.7 L 177.1 183.7 L 175.1 185.3 L 172.8 186.6 L 170.4 187.4 L 167.9 187.8 L 165.4 188.0 L 165.4 182.0 L 151.4 179.0 L 151.4 176.0 L 165.4 176.0 L 166.6 175.9 L 167.5 175.7 L 168.4 175.4 L 168.8 175.0 L 169.1 174.1 L 169.3 173.2 L 169.4 172.0 L 169.4 67.0 L 156.52089548110962 67.0 L 156.1 76.4 L 155.0 89.0 L 154.42473316192627 93.20663890838622 L 156.8 95.5 L 159.4 98.6 L 161.7 102.1 L 163.6 105.8 L 165.3 109.8 L 166.7 114.0 L 167.7 118.5 L 168.5 123.1 L 169.0 128.0 L 167.2 132.2 L 163.0 134.0 L 158.8 132.2 L 157.0 128.0 L 157.3 123.8 Z M 129.99677419662476 67.0 L 129.9 69.4 L 129.1 81.2 L 127.82768630981445 92.16147146224975 L 129.5 93.7 L 131.8 96.3 L 133.8 99.1 L 135.6 102.1 L 137.1 105.3 L 138.4 108.7 L 139.5 112.2 L 140.3 115.9 L 140.61121492385865 117.92289724349976 L 142.1 109.9 L 143.5 99.4 L 144.4 88.1 L 144.8 75.9 L 144.73100776672362 67.0 Z " />
</g>
</svg>
