<svg xmlns="http://www.w3.org/2000/svg" xmlns:xlink="http://www.w3.org/1999/xlink" version="1.1" baseProfile="full" viewBox="0 0 200 200" width="200" height="200">
<g fill="black">
<path d="M 100.4 182.9 L 88.4 188.9 L 88.4 131.7 L 100.4 133.7 L 103.4 135.7 L 100.4 137.5 L 100.4 171.9 L 123.5 171.9 L 123.5 122.2 L 78.0 122.2 L 78.0 118.2 L 123.5 118.2 L 123.5 84.8 L 103.54909086227417 84.8 L 103.5 84.9 L 100.5 90.2 L 97.3 95.4 L 93.9 100.3 L 90.1 105.0 L 86.1 109.4 L 81.8 113.5 L 80.3 112.3 L 83.0 107.1 L 85.7 102.0 L 88.2 96.9 L 90.7 91.7 L 92.9 86.4 L 95.0 81.1 L 96.9 75.6 L 98.7 70.1 L 100.2 64.4 L 101.6 58.6 L 101.66444444656372 58.617777824401855 L 102.1 57.0 L 113.2 61.8 L 115.6 64.5 L 111.89056415557862 65.54124517440796 L 111.1 67.8 L 108.8 73.7 L 106.2 79.4 L 105.5127272605896 80.8 L 149.2 80.8 L 159.2 70.8 L 171.2 80.8 L 171.2 84.8 L 135.5 84.8 L 135.5 118.2 L 158.9 118.2 L 168.9 108.2 L 180.9 118.2 L 180.9 122.2 L 135.5 122.2 L 135.5 171.9 L 158.5 171.9 L 158.5 131.7 L 170.5 133.7 L 173.5 135.7 L 170.5 137.5 L 170.5 179.9 L 158.5 185.9 L 158.5 175.9 L 100.4 175.9 Z M 19.2 164.9 L 24.6 163.4 L 30.2 161.8 L 36.0 160.1 L 41.9 158.2 L 44.5 157.34754095077514 L 44.5 107.1 L 22.7 107.1 L 22.7 103.1 L 44.5 103.1 L 44.5 60.3 L 56.5 62.3 L 59.5 64.3 L 56.5 66.1 L 56.5 103.1 L 58.518181800842285 103.1 L 66.7 94.1 L 76.7 103.1 L 76.7 107.1 L 56.5 107.1 L 56.5 153.42153844833373 L 60.7 152.0 L 67.3 149.8 L 74.1 147.6 L 81.2 145.4 L 82.0 147.0 L 75.7 151.0 L 69.4 154.7 L 63.2 158.0 L 57.1 161.2 L 51.1 164.1 L 45.3 166.9 L 39.5 169.5 L 33.8 171.9 L 28.3 174.2 L 26.7744101524353 174.7932848930359 L 25.7 178.5 L 22.9 176.3 L 17.3 165.5 Z M 16.2 73.7 L 15.4 69.2 L 18.0 65.4 L 20.0 64.4 L 21.9 62.9 L 23.7 61.0 L 25.5 58.5 L 27.1 55.4 L 28.6 51.8 L 29.8 47.7 L 31.0 43.0 L 32.0 37.8 L 32.6 32.1 L 34.4 32.1 L 35.2 37.9 L 35.53636360168457 41.6 L 95.5 41.6 L 95.5 13.0 L 107.5 15.0 L 110.5 17.0 L 107.5 18.8 L 107.5 41.6 L 170.3 41.6 L 170.91395349502562 41.08837213516235 L 171.1 40.6 L 171.33476295471192 40.737697505950926 L 176.3 36.6 L 187.3 45.6 L 182.3 48.6 L 178.5444444656372 50.16481485366821 L 178.0 50.8 L 176.0 53.0 L 173.9 55.3 L 171.5 57.6 L 169.1 60.1 L 166.4 62.7 L 163.5 65.3 L 160.4 68.0 L 157.3 71.0 L 155.9 69.8 L 158.2 66.3 L 160.1 62.6 L 162.0 59.3 L 163.7 56.1 L 165.3 53.1 L 166.8 50.2 L 168.1 47.6 L 169.06000003814697 45.6 L 35.74313726425171 45.6 L 35.8 48.5 L 35.5 53.4 L 34.8 57.9 L 33.6 62.1 L 32.1 66.0 L 30.1 69.6 L 27.5 72.8 L 24.5 75.5 L 20.0 76.3 Z " />
</g>
</svg>
