<svg xmlns="http://www.w3.org/2000/svg" xmlns:xlink="http://www.w3.org/1999/xlink" version="1.1" baseProfile="full" viewBox="0 0 200 200" width="200" height="200">
<g fill="black">
<path d="M 138.9 105.2 L 141.8 107.3 L 138.56424055099487 109.07649536132813 L 137.8 117.9 L 135.9 129.7 L 133.3 140.6 L 130.0 150.6 L 125.9 159.7 L 121.0 167.9 L 115.5 175.0 L 109.2 181.1 L 102.2 186.0 L 94.5 189.7 L 93.6 188.2 L 99.9 183.0 L 105.4 177.3 L 110.3 171.0 L 114.5 163.9 L 118.2 156.2 L 121.2 147.6 L 123.5 138.2 L 125.3 127.9 L 126.4 116.8 L 126.9 104.7 L 126.93026485443116 104.70126104354858 L 127.0 102.4 Z M 76.9 175.2 L 73.3 170.5 L 69.5 166.2 L 65.4 162.2 L 64.30189723968506 161.27659540176393 L 61.7 165.0 L 54.9 172.1 L 47.0 177.9 L 38.1 182.5 L 28.2 185.8 L 17.4 187.8 L 17.0 186.1 L 26.9 182.3 L 35.7 177.8 L 43.2 172.6 L 49.6 166.6 L 55.0 159.9 L 57.34959287643433 155.80187292098998 L 56.4 155.1 L 51.5 151.9 L 46.3 148.9 L 43.81934595108032 147.63712158203126 L 41.6 156.5 L 28.5 159.4 L 39.64833087921143 115.0 L 13.1 115.0 L 13.1 111.0 L 40.65268507003784 111.0 L 45.8 90.5 L 56.9 95.4 L 59.3 98.1 L 56.00601167678833 98.97011013031006 L 52.99361705780029 111.0 L 78.8 111.0 L 88.8 101.0 L 100.8 111.0 L 100.8 115.0 L 78.62399997711182 115.0 L 77.7 125.5 L 75.4 136.9 L 72.0 147.4 L 68.65560169219971 154.31175661087036 L 70.6 155.5 L 75.8 159.4 L 80.7 163.7 L 85.3 168.4 L 89.6 173.6 L 93.7 179.3 L 94.3 183.8 L 91.7 187.5 L 87.1 188.2 L 83.4 185.5 L 80.3 180.2 Z M 182.4 148.0 L 184.4 148.0 L 182.4 173.0 L 186.0 175.4 L 188.4 179.0 L 186.0 182.6 L 182.4 185.0 L 162.4 185.0 L 159.8 184.8 L 157.3 184.4 L 154.9 183.6 L 152.7 182.3 L 150.7 180.7 L 149.0 178.7 L 147.8 176.4 L 147.0 174.0 L 146.5 171.5 L 146.4 169.0 L 146.4 100.0 L 100.6 100.0 L 100.6 96.0 L 136.7 96.0 L 136.7 17.0 L 148.7 19.0 L 151.7 21.0 L 148.7 22.8 L 148.7 96.0 L 165.2 96.0 L 175.2 86.0 L 187.2 96.0 L 187.2 100.0 L 158.4 100.0 L 158.4 169.0 L 158.5 170.2 L 158.6 171.1 L 158.8 171.7 L 159.0 172.0 L 159.1 172.2 L 159.3 172.4 L 159.7 172.5 L 160.3 172.7 L 161.2 172.9 L 162.4 173.0 L 176.4 173.0 Z M 51.991980361938474 115.0 L 44.50265350341797 144.90835771560668 L 47.6 145.4 L 53.7 147.1 L 59.6 149.4 L 60.3241379737854 149.76206893920897 L 62.6 143.9 L 65.0 134.6 L 66.4 124.2 L 66.64642858505249 115.0 Z M 99.7 79.7 L 97.3 83.3 L 93.7 85.7 L 32.3 85.7 L 29.7 85.6 L 27.2 85.1 L 24.8 84.3 L 22.5 83.1 L 20.5 81.5 L 18.9 79.4 L 17.7 77.2 L 16.8 74.8 L 16.4 72.3 L 16.3 69.7 L 16.3 30.5 L 28.3 36.5 L 51.0 36.5 L 51.0 12.5 L 63.0 14.5 L 66.0 16.5 L 63.0 18.3 L 63.0 36.5 L 76.8 36.5 L 86.8 26.5 L 98.8 36.5 L 98.8 40.5 L 28.3 40.5 L 28.3 70.9 L 28.5 71.9 L 28.7 72.4 L 29.0 73.0 L 29.2 73.1 L 29.5 73.3 L 30.1 73.5 L 31.0 73.6 L 32.3 73.7 L 93.7 73.7 L 97.3 76.1 Z M 178.8 37.8 L 181.1 40.6 L 177.31748733520507 41.46267833709717 L 177.1 42.0 L 175.2 46.4 L 173.2 50.8 L 171.1 55.4 L 168.8 60.0 L 166.4 64.7 L 163.9 69.6 L 161.1 74.4 L 158.1 79.4 L 154.8 84.3 L 153.2 83.6 L 154.7 77.8 L 156.2 72.3 L 157.8 67.0 L 159.4 61.9 L 160.9 56.9 L 162.4 52.0 L 163.8 47.3 L 165.1 42.7 L 166.3 38.3 L 167.14163703918456 35.00996437072754 L 167.1 35.0 L 167.3202898979187 34.31159420013428 L 167.4 34.0 L 167.41807231903076 34.006024074554446 L 167.9 32.5 Z M 118.3 68.2 L 117.5 63.8 L 116.6 59.5 L 115.5 55.5 L 114.2 51.6 L 112.9 47.8 L 111.3 44.2 L 109.7 40.7 L 107.9 37.3 L 109.2 36.1 L 112.4 38.6 L 115.4 41.5 L 118.2 44.8 L 120.7 48.4 L 123.0 52.3 L 125.1 56.6 L 127.0 61.1 L 128.6 65.8 L 130.0 70.9 L 131.2 76.1 L 130.0 80.6 L 126.1 82.9 L 121.7 81.7 L 119.3 77.8 L 118.9 72.9 Z " />
</g>
</svg>
