<svg xmlns="http://www.w3.org/2000/svg" xmlns:xlink="http://www.w3.org/1999/xlink" version="1.1" baseProfile="full" viewBox="0 0 200 200" width="200" height="200">
<g fill="black">
<path d="M 153.0 115.0 L 148.0 118.0 L 145.3434097290039 119.10691261291504 L 119.6 186.3 L 106.3 187.6 L 134.7171582221985 115.0 L 46.0 115.0 L 46.0 111.0 L 136.0 111.0 L 142.0 106.0 Z M 161.7 99.1 L 154.3 93.6 L 147.1 87.9 L 140.3 81.8 L 133.7 75.4 L 127.5 68.8 L 121.7 61.8 L 116.3 54.4 L 111.9307692527771 47.3 L 90.36730766296387 47.3 L 88.4 50.4 L 80.7 60.3 L 72.0 69.9 L 62.3 79.0 L 51.5 87.6 L 39.6 95.8 L 26.6 103.5 L 12.6 110.5 L 11.7 109.0 L 24.6 100.2 L 36.5 91.4 L 47.3 82.5 L 57.1 73.4 L 65.8 64.1 L 73.4 54.6 L 78.36701030731201 47.3 L 16.2 47.3 L 16.2 43.3 L 80.88000001907349 43.3 L 85.5 34.9 L 90.0 24.7 L 93.4 14.3 L 93.41817893981934 14.30569076538086 L 93.9 12.8 L 104.9 17.9 L 107.2 20.7 L 103.43689317703247 21.624271869659424 L 100.5 29.1 L 95.0 40.0 L 92.9057692527771 43.3 L 160.7 43.3 L 170.7 33.3 L 182.7 43.3 L 182.7 47.3 L 114.88709678649903 47.3 L 119.5 51.7 L 126.0 57.8 L 132.6 63.6 L 139.4 69.3 L 146.2 74.7 L 153.3 79.8 L 160.6 84.6 L 168.1 89.2 L 175.8 93.4 L 183.7 97.5 L 188.8 100.2 L 177.6 109.1 L 169.5 104.3 Z " />
</g>
</svg>
