<svg xmlns="http://www.w3.org/2000/svg" xmlns:xlink="http://www.w3.org/1999/xlink" version="1.1" baseProfile="full" viewBox="0 0 200 200" width="200" height="200">
<g fill="black">
<path d="M 181.9 146.0 L 183.9 146.0 L 181.9 171.0 L 185.5 173.4 L 187.9 177.0 L 185.5 180.6 L 181.9 183.0 L 154.3 183.0 L 151.7 182.8 L 149.2 182.4 L 146.8 181.6 L 144.5 180.3 L 142.5 178.7 L 140.9 176.7 L 139.6 174.4 L 138.8 172.0 L 138.4 169.5 L 138.3 167.0 L 138.3 154.3713493347168 L 126.9 156.9 L 126.0 153.0 L 138.3 150.27171907424926 L 138.3 135.29553756713867 L 127.6 137.9 L 126.7 134.0 L 138.3 131.1764705657959 L 138.3 115.9 L 133.9 117.1 L 128.1 118.5 L 122.0 119.8 L 121.3 118.1 L 126.7 115.0 L 131.9 112.2 L 136.9 109.5 L 141.7 107.0 L 146.1 104.7 L 150.4 102.4 L 154.3 100.2 L 158.0 98.1 L 161.4 96.1 L 163.72836875915527 94.64476947784424 L 163.7 94.6 L 163.73899478912352 94.63812828063965 L 164.6 94.1 L 166.05340423583985 96.90110635757446 L 172.7 103.4 L 172.9 106.7 L 169.1 105.11666669845582 L 166.5 106.2 L 162.6 107.8 L 158.5 109.3 L 154.1 110.9 L 150.3 112.22173910140991 L 150.3 128.2555781364441 L 154.56193895339965 127.21818933486938 L 162.0 115.1 L 176.0 122.0 L 176.9 125.9 L 150.3 132.37464504241944 L 150.3 147.60998153686523 L 158.59964866638182 145.7690242767334 L 166.3 133.8 L 180.1 141.0 L 181.0 144.9 L 150.3 151.70961179733277 L 150.3 168.2 L 150.5 169.1 L 150.7 169.7 L 150.9 170.0 L 151.0 170.2 L 151.2 170.4 L 152.1 170.7 L 153.0 170.9 L 154.3 171.0 L 175.9 171.0 Z M 94.2 182.8 L 91.7 182.4 L 89.3 181.6 L 87.0 180.3 L 85.0 178.7 L 83.3 176.7 L 82.1 174.4 L 81.3 172.0 L 80.9 169.5 L 80.7 167.0 L 80.7 154.81240873336793 L 66.6 157.9 L 65.7 154.0 L 80.7 150.71532850265504 L 80.7 133.8408284187317 L 66.6 136.9 L 65.7 133.0 L 80.7 129.74556217193603 L 80.7 115.24339618682862 L 77.8 115.9 L 72.3 116.9 L 66.4 117.8 L 65.9 116.1 L 71.1 113.4 L 76.1 110.9 L 81.0 108.6 L 85.7 106.4 L 90.2 104.3 L 94.5 102.3 L 98.5 100.4 L 102.4 98.5 L 106.0 96.6 L 108.54778871536254 95.28970861434937 L 108.5 95.2 L 108.5803442955017 95.27296581268311 L 109.5 94.8 L 110.39998502731324 96.92549667358398 L 118.3 104.1 L 118.5 107.3 L 114.68096504211425 105.6888445854187 L 114.2 105.9 L 110.4 107.1 L 106.4 108.4 L 102.1 109.7 L 97.7 111.0 L 93.1 112.3 L 92.7 112.3979591369629 L 92.7 127.14201183319092 L 94.91514368057251 126.66140871047973 L 102.6 114.8 L 116.4 122.0 L 117.3 125.9 L 92.7 131.23727807998657 L 92.7 148.08759126663207 L 99.04526767730712 146.69811658859254 L 106.7 134.8 L 120.5 142.0 L 121.4 145.9 L 92.7 152.18467149734497 L 92.7 167.0 L 92.8 168.2 L 92.9 169.1 L 93.1 169.7 L 93.3 170.0 L 93.5 170.2 L 93.6 170.4 L 94.0 170.5 L 94.6 170.7 L 95.5 170.9 L 96.7 171.0 L 117.0 171.0 L 123.0 146.0 L 125.0 146.0 L 123.0 171.0 L 126.6 173.4 L 129.0 177.0 L 126.6 180.6 L 123.0 183.0 L 96.7 183.0 Z M 14.1 147.4 L 18.5 146.0 L 23.1 144.4 L 28.0 142.6 L 33.2 140.7 L 36.0 139.559259223938 L 36.0 73.1 L 15.4 73.1 L 15.4 69.1 L 36.0 69.1 L 36.0 21.0 L 48.0 23.0 L 51.0 25.0 L 48.0 26.8 L 48.0 69.1 L 51.918181800842284 69.1 L 60.1 60.1 L 70.1 69.1 L 70.1 73.1 L 48.0 73.1 L 48.0 134.76000003814698 L 50.4 133.8 L 56.7 131.3 L 63.4 128.7 L 70.4 126.1 L 71.3 127.6 L 65.1 132.0 L 59.2 136.0 L 53.4 139.7 L 47.7 143.1 L 42.3 146.2 L 37.1 149.1 L 32.1 151.8 L 27.3 154.2 L 22.8 156.5 L 22.28046646118164 156.7479591369629 L 21.4 160.6 L 18.4 158.6 L 12.3 148.1 Z M 177.68686389923096 59.304733753204346 L 124.9 63.48311347961426 L 124.9 74.0 L 125.0 75.2 L 125.1 76.1 L 125.3 76.7 L 125.5 77.0 L 125.7 77.2 L 125.8 77.4 L 126.2 77.5 L 126.8 77.7 L 127.7 77.9 L 128.9 78.0 L 173.2 78.0 Z M 185.2 84.0 L 182.8 87.6 L 179.2 90.0 L 128.9 90.0 L 126.4 89.8 L 123.9 89.4 L 121.5 88.6 L 119.2 87.3 L 117.2 85.7 L 115.5 83.7 L 114.3 81.4 L 113.5 79.0 L 113.1 76.5 L 112.9 74.0 L 112.9 64.43298149108887 L 69.1 67.9 L 68.8 64.0 L 112.9 60.50923480987549 L 112.9 46.79249496459961 L 74.6 49.9 L 74.2 46.0 L 112.9 42.86322193145752 L 112.9 31.422352981567382 L 112.3 31.5 L 103.6 32.3 L 94.6 33.1 L 85.3 33.6 L 75.9 33.8 L 75.6 32.1 L 84.8 29.8 L 93.8 27.8 L 102.5 25.9 L 111.0 24.0 L 119.3 22.1 L 127.3 20.2 L 135.1 18.3 L 142.6 16.3 L 149.9 14.4 L 155.92671232223512 12.678082180023193 L 155.9 12.6 L 155.97709493637086 12.663687133789063 L 156.9 12.4 L 157.2232876777649 13.69315071105957 L 167.4 22.1 L 167.7 25.1 L 163.39802951812743 23.100492572784425 L 159.8 24.0 L 152.5 25.5 L 144.9 26.8 L 137.1 28.1 L 129.1 29.3 L 124.9 29.856626510620117 L 124.9 41.890577507019046 L 150.9054133415222 39.78274259567261 L 160.1 29.0 L 172.9 38.0 L 173.2 41.9 L 124.9 45.818864059448245 L 124.9 59.55936679840088 L 160.45214405059815 56.74521284103393 L 169.7 45.9 L 179.68681316375734 53.0 L 181.2 53.0 L 181.11856889724731 54.01788883209228 L 182.5 55.0 L 182.8 58.9 L 180.7147954940796 59.065055751800536 L 179.2 78.0 L 182.8 80.4 Z " />
</g>
</svg>
