<svg xmlns="http://www.w3.org/2000/svg" xmlns:xlink="http://www.w3.org/1999/xlink" version="1.1" baseProfile="full" viewBox="0 0 200 200" width="200" height="200">
<g fill="black">
<path d="M 52.2 175.2 L 70.2 175.2 L 71.4 175.1 L 72.3 175.0 L 72.9 174.8 L 73.3 174.6 L 73.6 174.3 L 73.8 173.9 L 74.0 173.3 L 74.1 172.4 L 74.2 171.2 L 74.2 147.56235294342042 L 70.6 150.4 L 61.9 156.8 L 53.0 162.8 L 43.8 168.5 L 34.4 173.7 L 24.6 178.5 L 14.5 182.8 L 13.7 181.2 L 22.7 175.2 L 31.6 169.2 L 40.2 163.0 L 48.6 156.6 L 56.8 150.1 L 64.7 143.3 L 66.20263090133668 141.91445722579957 L 64.1 142.5 L 56.7 144.5 L 49.7 146.3 L 43.1 147.9 L 37.0 149.4 L 31.4 150.8 L 26.3 152.1 L 21.6 153.2 L 21.453409099578856 153.23839282989502 L 19.9 156.9 L 17.4 154.3 L 13.2 142.9 L 15.2 142.5 L 19.5 142.0 L 24.4 141.5 L 29.4 140.92307691574098 L 29.4 66.9 L 41.4 72.9 L 44.059259223937985 72.9 L 45.2 71.5 L 47.1 68.6 L 48.9 65.9 L 50.6 63.3 L 52.2 60.9 L 53.7 58.5 L 55.0 56.3 L 56.3 54.2 L 57.3 52.2 L 57.833670711517335 51.18602571487427 L 57.7 51.1 L 58.7 49.7 L 67.8 57.6 L 69.0 61.0 L 64.5939679145813 60.468237495422365 L 64.2 60.8 L 62.2 62.5 L 60.0 64.2 L 57.7 66.0 L 55.3 67.8 L 52.7 69.6 L 50.0 71.5 L 47.66666669845581 72.9 L 74.2 72.9 L 80.2 67.9 L 91.2 76.9 L 86.2 80.9 L 86.2 122.1444444656372 L 87.0 121.3 L 93.34225578308106 114.23291501998901 L 93.3 114.2 L 94.3 113.1 L 97.42692308425903 116.22692308425903 L 100.9 111.1 L 104.9 104.9 L 108.7 98.7 L 112.3 92.3 L 115.6 85.7 L 118.6 79.0 L 121.3 72.1 L 123.8 65.0 L 126.0 57.7 L 127.9 50.2 L 127.96444444656372 50.21777782440186 L 128.4 48.6 L 139.5 53.4 L 141.9 56.2 L 138.19309577941894 57.17550115585327 L 136.8 61.2 L 133.9 68.8 L 130.6 76.1 L 126.9 83.1 L 124.57164182662964 87.1 L 165.1 87.1 L 175.1 77.1 L 187.1 87.1 L 187.1 91.1 L 167.16533336639404 91.1 L 164.2 105.0 L 159.7 119.0 L 154.0 131.8 L 147.0 143.5 L 142.9657753944397 148.6657753944397 L 146.0 151.7 L 153.8 158.0 L 162.4 163.6 L 171.8 168.4 L 182.1 172.6 L 188.8 175.3 L 177.3 184.9 L 166.2 179.7 L 156.1 173.6 L 147.0 166.7 L 138.8 159.0 L 136.5162293434143 156.25947523117065 L 129.4 163.3 L 118.8 171.3 L 107.1 178.0 L 94.2 183.4 L 80.3 187.4 L 79.7 185.7 L 92.8 179.9 L 104.5 173.4 L 115.0 166.0 L 124.3 157.7 L 131.2641185760498 149.77831516265869 L 125.8 141.4 L 120.9 131.6 L 117.0 121.0 L 114.4 109.8 L 113.64418601989746 102.93953485488892 L 109.2 108.2 L 103.8 113.6 L 98.96666669845581 117.76666669845581 L 102.8 121.6 L 103.7 125.1 L 100.09462366104125 124.34097337722778 L 95.2 129.3 L 87.2 136.7 L 86.2 137.5641975402832 L 86.2 171.2 L 86.1 173.8 L 85.6 176.3 L 84.8 178.7 L 83.6 180.9 L 81.9 182.9 L 79.9 184.6 L 77.7 185.8 L 75.2 186.6 L 72.8 187.1 L 70.2 187.2 L 70.2 181.2 L 52.2 178.2 Z M 122.13999996185302 91.1 L 118.7 96.3 L 115.72530813217163 100.244700050354 L 118.5 108.8 L 122.6 119.0 L 127.3 128.4 L 132.8 136.9 L 136.82968053817748 141.9695981025696 L 139.2 138.5 L 145.0 127.5 L 149.6 115.4 L 153.1 102.4 L 155.00985918045043 91.1 Z M 41.4 119.6 L 41.4 139.5225806236267 L 41.6 139.5 L 48.3 138.8 L 55.5 138.0 L 63.2 137.3 L 71.4 136.6 L 72.00429992675781 136.56486625671386 L 72.4 136.2 L 74.2 134.42432432174684 L 74.2 119.6 Z M 41.4 97.1 L 41.4 115.6 L 74.2 115.6 L 74.2 97.1 Z M 41.4 76.9 L 41.4 93.1 L 74.2 93.1 L 74.2 76.9 Z M 13.3 66.0 L 12.9 61.4 L 15.7 57.8 L 17.7 57.0 L 19.6 55.8 L 21.4 54.3 L 23.1 52.3 L 24.7 49.8 L 26.2 46.9 L 27.5 43.4 L 28.6 39.4 L 29.6 35.0 L 30.1 30.1 L 31.9 30.0 L 32.5 35.0 L 32.80208330154419 37.9 L 94.0 37.9 L 94.0 13.2 L 106.0 15.2 L 109.0 17.2 L 106.0 19.0 L 106.0 37.9 L 170.0 37.9 L 170.6324324607849 37.37297296524048 L 171.0 36.5 L 171.37275743484497 36.75603542327881 L 176.0 32.9 L 187.0 41.9 L 182.0 44.9 L 177.17931032180786 46.90862064361572 L 175.3 48.6 L 173.2 50.5 L 170.8 52.5 L 168.3 54.6 L 165.6 56.7 L 162.8 58.9 L 159.6 61.2 L 156.6 63.7 L 155.3 62.5 L 157.7 59.3 L 159.7 56.1 L 161.6 53.1 L 163.4 50.2 L 165.1 47.6 L 166.6 45.0 L 167.9 42.7 L 168.31739130020142 41.9 L 33.046666622161865 41.9 L 33.1 44.3 L 32.8 48.6 L 32.0 52.6 L 30.9 56.3 L 29.2 59.9 L 27.1 63.1 L 24.5 65.9 L 21.5 68.4 L 16.9 68.8 Z " />
</g>
</svg>
