<svg xmlns="http://www.w3.org/2000/svg" xmlns:xlink="http://www.w3.org/1999/xlink" version="1.1" baseProfile="full" viewBox="0 0 200 200" width="200" height="200">
<g fill="black">
<path d="M 138.0 176.4 L 158.0 176.4 L 159.2 176.3 L 160.1 176.2 L 160.7 176.0 L 161.0 175.8 L 161.2 175.6 L 161.4 175.5 L 161.5 175.1 L 161.7 174.5 L 161.9 173.6 L 162.0 172.4 L 162.0 150.5 L 129.0 150.5 L 129.0 176.3 L 117.0 182.3 L 117.0 150.5 L 85.0 150.5 L 85.0 176.3 L 73.0 182.3 L 73.0 150.5 L 40.0 150.5 L 40.0 180.7 L 28.0 186.7 L 28.0 110.4 L 40.0 116.4 L 162.0 116.4 L 168.0 111.4 L 179.0 120.4 L 174.0 124.4 L 174.0 172.4 L 173.8 174.9 L 173.4 177.4 L 172.6 179.8 L 171.3 182.1 L 169.7 184.1 L 167.7 185.8 L 165.4 187.0 L 163.0 187.8 L 160.5 188.2 L 158.0 188.4 L 158.0 182.4 L 138.0 179.4 Z M 40.0 120.4 L 40.0 146.5 L 73.0 146.5 L 73.0 120.4 Z M 85.0 120.4 L 85.0 146.5 L 117.0 146.5 L 117.0 120.4 Z M 129.0 120.4 L 129.0 146.5 L 162.0 146.5 L 162.0 120.4 Z M 51.6 70.5 L 81.2 70.5 L 87.2 65.5 L 98.2 74.5 L 93.2 78.5 L 93.2 102.0 L 81.2 108.0 L 81.2 102.0 L 51.6 102.0 L 39.6 108.0 L 39.6 64.5 Z M 118.8 70.5 L 148.4 70.5 L 154.4 65.5 L 165.4 74.5 L 160.4 78.5 L 160.4 102.0 L 148.4 108.0 L 148.4 102.0 L 118.8 102.0 L 106.8 108.0 L 106.8 64.5 Z M 118.8 74.5 L 118.8 98.0 L 148.4 98.0 L 148.4 74.5 Z M 51.6 74.5 L 51.6 98.0 L 81.2 98.0 L 81.2 74.5 Z M 162.8 67.6 L 155.3 64.2 L 148.1 60.5 L 141.2 56.7 L 134.6 52.7 L 128.3 48.4 L 122.4 43.9 L 116.9 39.1 L 112.57307691574097 34.6 L 90.95806455612183 34.6 L 87.5 37.8 L 79.9 43.7 L 71.2 49.3 L 61.5 54.6 L 50.8 59.6 L 39.1 64.3 L 26.3 68.6 L 12.4 72.4 L 11.9 70.7 L 25.0 65.0 L 37.0 59.3 L 48.0 53.7 L 57.8 48.0 L 66.6 42.2 L 74.2 36.4 L 76.15 34.6 L 16.2 34.6 L 16.2 30.6 L 80.48333330154419 30.6 L 80.7 30.4 L 86.1 24.5 L 90.4 18.5 L 93.20407190322877 13.40168743133545 L 93.2 13.4 L 94.2 11.4 L 104.3 18.0 L 106.1 21.1 L 102.13118553161621 21.37371129989624 L 99.8 25.0 L 95.0484848022461 30.6 L 160.7 30.6 L 170.7 20.6 L 182.7 30.6 L 182.7 34.6 L 117.134375 34.6 L 125.6 38.9 L 132.0 42.2 L 138.6 45.3 L 145.4 48.4 L 152.4 51.3 L 159.6 54.0 L 167.1 56.6 L 174.7 59.1 L 182.7 61.4 L 190.3 63.8 L 178.6 73.9 L 170.6 70.9 Z " />
</g>
</svg>
