<svg xmlns="http://www.w3.org/2000/svg" xmlns:xlink="http://www.w3.org/1999/xlink" version="1.1" baseProfile="full" viewBox="0 0 200 200" width="200" height="200">
<g fill="black">
<path d="M 106.8 80.0 L 156.1 80.0 L 162.1 75.0 L 173.1 84.0 L 168.1 88.0 L 168.1 114.0 L 156.1 120.0 L 156.1 110.0 L 142.0 110.0 L 142.0 132.0 L 160.5 132.0 L 170.5 122.0 L 182.5 132.0 L 182.5 136.0 L 142.0 136.0 L 142.0 159.0 L 166.2 159.0 L 176.2 149.0 L 188.2 159.0 L 188.2 163.0 L 142.0 163.0 L 142.0 184.0 L 130.0 190.0 L 130.0 163.0 L 96.29039297103881 163.0 L 95.3 167.2 L 82.2 170.3 L 89.5 139.6 L 100.7 144.3 L 103.2 147.0 L 99.85496006011962 147.88359546661377 L 97.23362445831299 159.0 L 130.0 159.0 L 130.0 136.0 L 90.6 136.0 L 90.6 132.0 L 130.0 132.0 L 130.0 110.0 L 106.8 110.0 L 106.8 117.0 L 94.8 123.0 L 94.8 74.0 Z M 56.4 179.8 L 54.8 181.6 L 53.0 183.3 L 51.0 184.8 L 48.9 185.9 L 46.6 186.8 L 44.2 187.5 L 41.8 187.8 L 39.3 188.0 L 39.3 182.0 L 25.2 179.0 L 25.2 176.0 L 39.3 176.0 L 40.6 175.9 L 41.8 175.7 L 42.9 175.4 L 43.8 175.1 L 45.4 174.1 L 46.1 173.4 L 46.8 172.6 L 47.5 171.6 L 48.1 170.3 L 49.5 166.9 L 50.8 162.9 L 52.1 158.1 L 53.2 152.7 L 54.2 146.6 L 55.0 139.9 L 55.7 132.6 L 56.2 124.6 L 56.6 116.0 L 56.82826089859009 109.0 L 28.66612024307251 109.0 L 27.3 121.5 L 14.8 126.2 L 22.1 59.3 L 32.37945203781128 66.0 L 56.0 66.0 L 56.0 29.0 L 15.3 29.0 L 15.3 25.0 L 56.0 25.0 L 62.0 20.0 L 73.0 29.0 L 68.0 33.0 L 68.0 76.0 L 56.0 82.0 L 56.0 70.0 L 32.928415298461914 70.0 L 29.103278732299806 105.0 L 56.9 105.0 L 62.9 100.0 L 73.9 109.0 L 68.9 112.0 L 68.69391775131226 112.08586759567261 L 68.6 116.5 L 68.2 125.3 L 67.6 133.5 L 66.9 141.2 L 66.0 148.3 L 65.0 154.8 L 63.8 160.8 L 62.4 166.2 L 60.8 171.1 L 58.9 175.5 L 57.8 177.7 Z M 106.8 84.0 L 106.8 106.0 L 156.1 106.0 L 156.1 84.0 Z M 74.7 62.0 L 108.74277677536011 62.0 L 114.05609760284423 38.0 L 83.8 38.0 L 83.8 34.0 L 114.94165105819702 34.0 L 120.1 10.7 L 131.4 15.2 L 133.9 17.8 L 130.60440835952758 18.794895553588866 L 127.23934421539306 34.0 L 151.6 34.0 L 157.6 29.0 L 168.6 38.0 L 163.6 42.0 L 163.6 62.0 L 170.01818180084229 62.0 L 178.2 53.0 L 188.2 62.0 L 188.2 66.0 L 74.7 66.0 Z M 126.35409832000732 38.0 L 121.04262294769288 62.0 L 151.6 62.0 L 151.6 38.0 Z " />
</g>
</svg>
