<svg xmlns="http://www.w3.org/2000/svg" xmlns:xlink="http://www.w3.org/1999/xlink" version="1.1" baseProfile="full" viewBox="0 0 200 200" width="200" height="200">
<g fill="black">
<path d="M 133.8 165.7 L 145.8 165.7 L 147.0 165.6 L 148.0 165.5 L 148.5 165.3 L 149.1 165.0 L 149.4 164.4 L 149.6 163.8 L 149.7 162.9 L 149.8 161.7 L 149.8 132.8 L 106.0 132.8 L 106.0 182.3 L 94.0 188.3 L 94.0 132.8 L 50.1 132.8 L 50.1 170.9 L 38.1 176.9 L 38.1 122.8 L 50.1 128.8 L 94.0 128.8 L 94.0 113.2 L 15.7 113.2 L 15.7 109.2 L 94.0 109.2 L 94.0 90.6 L 106.0 92.6 L 109.0 94.6 L 106.0 96.4 L 106.0 109.2 L 162.2 109.2 L 172.2 99.2 L 184.2 109.2 L 184.2 113.2 L 102.4 113.2 L 106.0 113.8 L 109.0 115.8 L 106.0 117.6 L 106.0 128.8 L 149.8 128.8 L 155.8 123.8 L 166.8 132.8 L 161.8 136.8 L 161.8 161.7 L 161.7 164.3 L 161.2 166.8 L 160.4 169.2 L 159.2 171.4 L 157.6 173.4 L 155.5 175.1 L 153.3 176.3 L 150.9 177.1 L 148.4 177.6 L 145.8 177.7 L 145.8 171.7 L 133.8 168.7 Z M 124.0 86.0 L 137.2 86.0 L 138.1 85.8 L 138.7 85.6 L 139.0 85.4 L 139.2 85.3 L 139.4 85.1 L 139.7 84.2 L 139.9 83.3 L 140.0 82.0 L 140.0 49.2 L 81.0 49.2 L 81.0 45.2 L 166.0 45.2 L 176.0 35.2 L 188.0 45.2 L 188.0 49.2 L 152.0 49.2 L 152.0 82.0 L 151.8 84.6 L 151.4 87.1 L 150.6 89.5 L 149.3 91.8 L 147.7 93.8 L 145.7 95.4 L 143.4 96.6 L 141.0 97.5 L 138.5 97.9 L 136.0 98.0 L 136.0 92.0 L 124.0 89.0 Z M 78.9333333015442 35.3 L 81.6 38.3 L 81.8 41.8 L 78.22789278030396 40.30620965957642 L 75.8 41.7 L 70.1 44.8 L 64.1 47.8 L 57.8 50.7 L 57.45263156890869 50.842105293273924 L 59.6 51.2 L 62.6 53.2 L 59.6 55.0 L 59.6 90.4 L 47.6 96.4 L 47.6 54.788571453094484 L 44.2 56.1 L 36.9 58.7 L 29.3 61.1 L 21.3 63.3 L 12.9 65.2 L 12.3 63.5 L 20.0 59.7 L 27.4 56.1 L 41.2 49.2 L 47.6 45.8 L 53.6 42.4 L 59.4 39.0 L 64.7 35.5 L 69.7 32.1 L 74.4 28.7 Z M 72.01878299713135 16.17739896774292 L 79.6 23.2 L 79.8 26.4 L 76.1300353050232 24.88541145324707 L 76.1 24.9 L 71.5 26.6 L 66.8 28.2 L 61.7 29.9 L 56.5 31.5 L 51.0 33.1 L 45.3 34.6 L 39.2 36.1 L 33.0 37.5 L 26.4 38.7 L 19.6 39.7 L 19.1 37.9 L 25.3 35.0 L 31.4 32.4 L 37.2 29.9 L 42.8 27.5 L 48.1 25.1 L 53.2 22.8 L 58.1 20.6 L 62.6 18.3 L 66.9 16.1 L 70.12695417404174 14.447169780731201 L 70.1 14.4 L 70.1423879623413 14.439264678955078 L 71.0 14.0 Z M 177.0 21.4 L 177.0 25.4 L 91.0 25.4 L 91.0 21.4 L 155.0 21.4 L 165.0 11.4 Z " />
</g>
</svg>
