<svg xmlns="http://www.w3.org/2000/svg" xmlns:xlink="http://www.w3.org/1999/xlink" version="1.1" baseProfile="full" viewBox="0 0 200 200" width="200" height="200">
<g fill="black">
<path d="M 48.4 16.0 L 51.4 18.0 L 48.4 19.8 L 48.4 183.0 L 36.4 189.0 L 36.4 14.0 Z M 152.4 182.8 L 150.5 184.2 L 148.5 185.5 L 146.4 186.5 L 144.2 187.4 L 141.9 188.1 L 139.6 188.6 L 137.2 188.9 L 134.8 189.0 L 134.8 183.0 L 114.8 180.0 L 114.8 177.0 L 134.8 177.0 L 136.2 176.9 L 137.7 176.7 L 139.0 176.5 L 140.2 176.1 L 141.4 175.6 L 142.6 175.0 L 143.7 174.3 L 144.7 173.5 L 145.8 172.6 L 146.8 171.5 L 147.7 170.3 L 148.8 168.4 L 149.8 165.9 L 150.9 162.8 L 152.0 159.1 L 153.0 154.8 L 153.9 150.0 L 154.8 144.6 L 155.6 138.8 L 156.00923080444335 135.0 L 108.41848735809326 135.0 L 105.6 147.9 L 92.6 151.2 L 99.28586750030517 120.70215826034546 L 94.0 125.1 L 80.8 134.7 L 66.9 143.6 L 65.8 142.1 L 78.5 131.7 L 90.5 121.0 L 101.56108989715577 110.32364358901978 L 105.6 91.9 L 113.20760889053345 98.04460716247559 L 123.2 86.5 L 128.28467741012574 80.0 L 74.6833333015442 80.0 L 74.9 80.5 L 74.2 85.0 L 70.6 87.9 L 66.0 87.2 L 63.2 83.6 L 62.9 81.0 L 62.4 78.3 L 61.7 75.5 L 60.8 72.7 L 59.8 69.8 L 58.6 66.9 L 57.2 63.8 L 55.7 60.7 L 54.1 57.4 L 52.0 54.3 L 53.4 53.1 L 56.2 55.7 L 59.1 58.1 L 61.8 60.6 L 64.2 63.3 L 66.5 66.0 L 68.5 68.8 L 70.4 71.6 L 72.1 74.5 L 72.85 76.0 L 115.0 76.0 L 115.0 45.3 L 80.4 45.3 L 80.4 41.3 L 115.0 41.3 L 115.0 13.1 L 127.0 15.1 L 130.0 17.1 L 127.0 18.9 L 127.0 41.3 L 131.9 41.3 L 141.9 31.3 L 153.9 41.3 L 153.9 41.94102563858032 L 158.3 34.1 L 165.5 19.8 L 165.5583333015442 19.82916669845581 L 166.1 18.8 L 176.3 25.2 L 178.1 28.3 L 174.39277296066285 28.61417179107666 L 168.2 39.7 L 159.5 53.7 L 150.2 67.1 L 143.246875 76.0 L 165.5 76.0 L 175.5 66.0 L 187.5 76.0 L 187.5 80.0 L 140.11311473846436 80.0 L 129.6 92.1 L 118.4 103.7 L 114.83000001907348 107.0 L 151.5 107.0 L 161.5 97.0 L 173.5 107.0 L 173.5 111.0 L 113.66218490600586 111.0 L 109.29243698120118 131.0 L 156.3 131.0 L 162.3 126.0 L 173.3 135.0 L 168.3 138.0 L 167.70713338851928 138.2470277786255 L 167.5 140.2 L 166.6 146.4 L 165.7 152.1 L 164.7 157.3 L 163.6 162.1 L 162.4 166.4 L 161.0 170.2 L 159.5 173.6 L 157.8 176.7 L 155.9 179.4 L 154.2 181.1 Z M 14.1 101.4 L 11.6 97.6 L 12.5 93.1 L 13.9 91.5 L 15.4 89.4 L 16.8 86.8 L 18.3 83.8 L 19.7 80.3 L 21.1 76.5 L 22.5 72.2 L 23.9 67.5 L 25.3 62.4 L 26.6 56.9 L 28.4 57.0 L 28.5 62.8 L 28.6 68.2 L 28.4 73.2 L 28.0 77.9 L 27.5 82.3 L 26.8 86.4 L 26.0 90.2 L 25.0 93.7 L 23.8 96.9 L 22.4 99.9 L 18.6 102.3 Z M 127.0 45.3 L 127.0 76.0 L 131.41370964050293 76.0 L 132.9 74.1 L 142.0 61.3 L 150.5 48.0 L 152.01510791778566 45.3 Z " />
</g>
</svg>
