<svg xmlns="http://www.w3.org/2000/svg" xmlns:xlink="http://www.w3.org/1999/xlink" version="1.1" baseProfile="full" viewBox="0 0 200 200" width="200" height="200">
<g fill="black">
<path d="M 74.4 186.6 L 71.9 186.2 L 69.5 185.4 L 67.2 184.1 L 65.2 182.5 L 63.6 180.5 L 62.3 178.2 L 61.5 175.8 L 61.1 173.3 L 61.0 170.8 L 61.0 126.2 L 73.0 128.2 L 76.0 130.2 L 73.0 132.0 L 73.0 172.0 L 73.2 172.9 L 73.5 173.8 L 73.9 174.2 L 74.8 174.5 L 75.7 174.7 L 77.0 174.8 L 141.0 174.8 L 147.0 149.8 L 149.0 149.8 L 147.0 174.8 L 150.6 177.2 L 153.0 180.8 L 150.6 184.4 L 147.0 186.8 L 77.0 186.8 Z M 14.3 173.4 L 13.9 168.8 L 16.7 165.2 L 19.9 163.6 L 22.8 161.7 L 25.3 159.4 L 27.6 156.8 L 29.6 153.7 L 31.3 150.1 L 32.7 146.0 L 33.9 141.4 L 34.7 136.3 L 35.2 130.6 L 36.9 130.5 L 38.1 136.2 L 38.8 141.7 L 38.8 147.0 L 38.3 152.0 L 37.2 156.8 L 35.4 161.3 L 33.1 165.5 L 30.1 169.4 L 26.6 172.8 L 22.5 175.8 L 17.9 176.2 Z M 171.2 159.5 L 169.6 156.2 L 167.7 152.9 L 165.4 149.6 L 162.7 146.2 L 159.7 142.8 L 156.3 139.4 L 152.5 135.9 L 148.4 132.4 L 149.3 130.9 L 154.4 133.0 L 159.2 135.4 L 163.6 138.0 L 167.7 140.9 L 171.5 144.0 L 174.8 147.3 L 177.9 150.7 L 180.5 154.4 L 182.8 158.4 L 184.7 162.4 L 184.3 167.0 L 180.9 170.0 L 176.3 169.6 L 173.3 166.1 L 172.4 162.8 Z M 108.5 135.8 L 106.3 133.2 L 103.8 130.7 L 101.0 128.2 L 98.0 125.7 L 94.8 123.3 L 91.3 121.0 L 87.6 118.5 L 83.6 116.3 L 84.2 114.6 L 88.8 115.6 L 93.3 116.7 L 97.5 118.0 L 101.6 119.7 L 105.4 121.5 L 109.1 123.6 L 112.6 125.8 L 115.9 128.3 L 119.0 131.0 L 121.9 133.9 L 123.0 138.3 L 120.8 142.3 L 116.4 143.5 L 112.4 141.2 L 110.6 138.5 Z M 126.3 112.5 L 147.5 112.5 L 148.4 112.3 L 149.0 112.1 L 149.6 111.8 L 149.7 111.6 L 149.9 111.3 L 150.1 110.7 L 150.2 109.8 L 150.3 108.5 L 150.3 47.5 L 93.4 47.5 L 93.4 43.5 L 150.3 43.5 L 150.3 10.8 L 162.3 12.8 L 165.3 14.8 L 162.3 16.6 L 162.3 43.5 L 169.61818180084228 43.5 L 177.8 34.5 L 187.8 43.5 L 187.8 47.5 L 162.3 47.5 L 162.3 108.5 L 162.2 111.1 L 161.7 113.6 L 160.9 116.0 L 159.7 118.2 L 158.0 120.3 L 156.0 121.9 L 153.8 123.1 L 151.4 123.9 L 148.9 124.4 L 146.3 124.5 L 146.3 118.5 L 126.3 115.5 Z M 73.1 90.6 L 67.2 85.7 L 63.76960916519165 83.0128604888916 L 58.9 88.9 L 51.3 96.5 L 42.9 103.5 L 33.6 109.9 L 23.4 115.6 L 12.3 120.6 L 11.5 119.0 L 21.4 112.3 L 30.5 105.5 L 38.7 98.5 L 46.0 91.1 L 52.4 83.5 L 56.45089817047119 77.6077844619751 L 54.9 76.5 L 48.4 72.1 L 41.7 68.0 L 34.8 64.0 L 27.7 60.1 L 20.5 56.2 L 21.1 54.5 L 29.2 56.6 L 37.0 59.1 L 44.7 62.1 L 52.1 65.5 L 59.3 69.2 L 60.8790020942688 70.12484407424927 L 62.5 67.2 L 66.4 58.6 L 69.3 49.6 L 71.5 40.1 L 71.51366024017334 40.102918815612796 L 71.83571424484253 38.6 L 12.9 38.6 L 12.9 34.6 L 49.7 34.6 L 49.7 12.1 L 61.7 14.1 L 64.7 16.1 L 61.7 17.9 L 61.7 34.6 L 82.21818180084229 34.6 L 90.4 25.6 L 100.4 34.6 L 100.4 38.6 L 72.68837213516235 38.6 L 83.2 42.6 L 85.7 45.2 L 82.09029130935669 46.44699029922485 L 80.2 53.0 L 76.2 62.8 L 71.4 72.1 L 69.33788394927979 75.19317407608033 L 73.2 77.6 L 79.8 82.2 L 86.2 87.2 L 92.4 92.4 L 94.3 96.6 L 92.7 100.9 L 88.5 102.7 L 84.2 101.1 L 78.7 95.8 Z M 120.4 80.4 L 119.0 78.1 L 117.2 75.7 L 115.0 73.3 L 112.3 70.7 L 109.3 68.1 L 105.9 65.5 L 102.2 62.7 L 98.0 60.1 L 98.7 58.4 L 103.5 60.0 L 108.1 61.5 L 112.3 63.2 L 116.2 65.0 L 119.8 67.0 L 123.1 69.2 L 126.1 71.5 L 128.7 74.0 L 131.1 76.7 L 133.1 79.6 L 133.2 84.2 L 130.2 87.6 L 125.6 87.7 L 122.2 84.7 L 121.5 82.6 Z " />
</g>
</svg>
