<svg xmlns="http://www.w3.org/2000/svg" xmlns:xlink="http://www.w3.org/1999/xlink" version="1.1" baseProfile="full" viewBox="0 0 200 200" width="200" height="200">
<g fill="black">
<path d="M 144.7 179.9 L 136.9 176.4 L 128.6 173.1 L 119.8 170.0 L 112.55046091079711 167.7634400367737 L 104.0 172.2 L 91.5 176.7 L 77.1 180.4 L 60.7 183.3 L 42.3 185.2 L 21.9 186.3 L 21.8 184.5 L 41.9 181.5 L 59.8 178.0 L 75.5 174.1 L 89.1 169.6 L 100.4 164.5 L 100.42803735733033 164.48286600112914 L 90.0 162.0 L 79.0 159.6 L 69.3754487991333 157.5913980484009 L 63.3 166.2 L 50.0 164.2 L 69.92644624710083 136.0 L 13.9 136.0 L 13.9 132.0 L 72.75289258956909 132.0 L 84.2 115.8 L 92.8 124.4 L 94.1 127.8 L 90.18811054229737 128.10091457366943 L 87.43636360168458 132.0 L 163.0 132.0 L 171.02772274017335 123.97227725982665 L 164.7 122.0 L 157.2 119.3 L 149.8 116.3 L 142.7 113.0 L 135.7 109.5 L 128.9 105.6 L 122.3 101.4 L 116.0 96.9 L 109.9 91.9 L 106.0 88.20526313781738 L 106.0 116.5 L 94.0 122.5 L 94.0 92.78644065856933 L 92.1 94.3 L 85.7 98.8 L 78.9 103.0 L 71.6 106.8 L 63.8 110.4 L 55.6 113.8 L 47.0 116.8 L 37.9 119.4 L 28.3 121.7 L 18.2 123.5 L 17.7 121.8 L 27.2 118.1 L 36.1 114.4 L 44.6 110.6 L 52.6 106.8 L 60.1 102.8 L 67.0 98.7 L 73.5 94.5 L 79.5 90.1 L 82.9043478012085 87.2 L 20.0 87.2 L 20.0 83.2 L 94.0 83.2 L 94.0 49.9 L 106.0 51.9 L 109.0 53.9 L 106.0 55.7 L 106.0 83.2 L 121.5692307472229 83.2 L 121.4 83.0 L 124.1 79.7 L 126.5 76.4 L 128.9 73.2 L 131.2 70.1 L 133.4 67.1 L 135.5 64.1 L 137.4 61.2 L 139.2 58.4 L 140.9 55.6 L 141.99344606399535 53.75480976104736 L 141.9 53.7 L 143.0 52.2 L 152.3 59.8 L 153.5 63.2 L 149.40248756408693 62.9174129486084 L 147.4 65.0 L 144.8 67.5 L 142.1 70.0 L 139.2 72.5 L 136.2 74.9 L 133.0 77.4 L 129.7 79.7 L 126.1 81.9 L 124.15 83.2 L 158.0 83.2 L 168.0 73.2 L 180.0 83.2 L 180.0 87.2 L 109.56176471710205 87.2 L 119.1 91.9 L 125.9 95.1 L 132.7 98.2 L 139.6 101.0 L 146.6 103.6 L 153.7 105.9 L 160.9 108.1 L 168.1 109.9 L 175.5 111.5 L 184.1 113.7 L 174.05916872024537 122.88264055252075 L 185.0 132.0 L 185.0 136.0 L 135.94948453903197 136.0 L 134.3 144.0 L 129.9 152.7 L 123.2 160.3 L 121.3798659324646 161.6545184135437 L 122.1 161.8 L 131.5 164.3 L 140.5 167.0 L 149.0 170.1 L 157.0 173.5 L 164.6 177.3 L 167.3 181.0 L 166.7 185.5 L 163.0 188.2 L 158.5 187.6 L 151.9 183.7 Z M 84.61339712142944 136.0 L 70.84672899246216 155.50666875839232 L 79.5 155.8 L 90.9 156.7 L 101.8 158.0 L 108.99782018661499 159.24577655792237 L 109.4 159.0 L 116.2 153.1 L 120.8 146.9 L 123.4 140.5 L 123.95384616851807 136.0 Z M 61.4 74.8 L 60.2 72.5 L 58.9 70.1 L 57.5 67.7 L 55.9 65.3 L 54.2 62.8 L 52.4 60.3 L 50.5 57.7 L 48.2 55.3 L 49.3 53.9 L 52.1 55.7 L 55.1 57.2 L 57.9 58.9 L 60.6 60.7 L 63.1 62.6 L 65.5 64.6 L 67.7 66.7 L 69.8 68.8 L 71.8 71.1 L 73.7 73.4 L 74.2 77.9 L 71.4 81.6 L 66.9 82.1 L 63.3 79.3 L 62.4 77.1 Z M 43.9 49.8 L 31.9 55.8 L 31.9 22.2 L 43.9 24.2 L 46.9 26.2 L 43.9 28.0 L 43.9 42.8 L 94.0 42.8 L 94.0 14.0 L 106.0 16.0 L 109.0 18.0 L 106.0 19.8 L 106.0 42.8 L 156.0 42.8 L 156.0 22.2 L 168.0 24.2 L 171.0 26.2 L 168.0 28.0 L 168.0 48.8 L 156.0 54.8 L 156.0 46.8 L 43.9 46.8 Z " />
</g>
</svg>
