<svg xmlns="http://www.w3.org/2000/svg" xmlns:xlink="http://www.w3.org/1999/xlink" version="1.1" baseProfile="full" viewBox="0 0 200 200" width="200" height="200">
<g fill="black">
<path d="M 160.0 169.0 L 152.6 160.3 L 146.1 150.7 L 145.47229785919188 149.51184949874877 L 140.8 156.7 L 132.0 167.1 L 122.2 176.0 L 111.5 183.2 L 99.8 188.8 L 99.0 187.1 L 109.4 180.1 L 118.7 172.0 L 127.1 162.8 L 134.6 152.4 L 140.95493230819702 140.96112184524537 L 140.5 140.1 L 135.8 128.6 L 132.0 116.3 L 129.0 103.1 L 127.1 89.0 L 126.69675741195678 81.43920097351074 L 123.9 86.5 L 119.3 93.7 L 114.4 100.4 L 112.8 99.5 L 116.0 91.9 L 119.1 84.2 L 122.1 76.3 L 124.9 68.2 L 127.5 59.8 L 129.9 51.2 L 132.1 42.3 L 134.1 33.1 L 135.9 23.6 L 137.4 13.9 L 137.47027559280394 13.912401580810547 L 137.8 12.0 L 149.3 16.0 L 151.9 18.5 L 148.4095727920532 19.83270854949951 L 147.0 25.9 L 144.6 35.6 L 141.8 44.9 L 138.8 53.9 L 136.1068965911865 61.0 L 164.9 61.0 L 174.9 51.0 L 186.9 61.0 L 186.9 65.0 L 171.69473686218262 65.0 L 169.3 82.5 L 165.7 100.2 L 161.0 116.4 L 155.3 131.3 L 151.17677726745606 139.54644546508788 L 154.7 145.1 L 161.2 153.4 L 168.3 160.6 L 176.0 166.9 L 184.4 172.3 L 188.6 174.9 L 177.5 183.6 L 168.3 176.8 Z M 68.4 58.6 L 70.1 61.7 L 66.43296594619751 61.95289888381958 L 64.0 66.1 L 59.4 73.4 L 54.6 80.5 L 49.5 87.4 L 44.2 94.0 L 42.496774196624756 95.91612901687623 L 49.0 97.0 L 52.0 99.0 L 49.0 100.8 L 49.0 182.0 L 37.0 188.0 L 37.0 101.98275861740112 L 32.8 106.4 L 26.7 112.2 L 20.3 117.6 L 13.5 122.6 L 12.3 121.3 L 17.6 114.9 L 22.8 108.5 L 27.9 102.1 L 32.7 95.5 L 37.4 88.9 L 41.9 82.0 L 46.2 75.1 L 50.2 67.9 L 54.0 60.6 L 57.24656505584717 54.01912488937378 L 57.2 54.0 L 58.2 52.0 Z M 83.5 41.7 L 99.7 41.7 L 105.7 36.7 L 116.7 45.7 L 111.7 49.7 L 111.7 140.2 L 99.7 146.2 L 99.7 134.2 L 83.5 134.2 L 83.5 146.2 L 71.5 152.2 L 71.5 35.7 Z M 83.5 45.7 L 83.5 130.2 L 99.7 130.2 L 99.7 45.7 Z M 134.4590361595154 65.0 L 131.9 70.9 L 128.8519148826599 77.31702127456666 L 131.2 88.3 L 134.8 101.8 L 138.9 114.1 L 143.5 125.5 L 145.75767107009887 129.8875494003296 L 146.7 127.7 L 151.4 113.5 L 155.2 97.8 L 158.1 80.8 L 159.73152170181274 65.0 Z M 61.9 20.6 L 63.6 23.8 L 59.895877075195315 23.991592597961425 L 58.0 27.2 L 53.9 33.5 L 49.7 39.5 L 45.4 45.4 L 40.8 51.0 L 36.2 56.3 L 31.3 61.4 L 26.3 66.2 L 21.0 70.6 L 15.4 74.6 L 14.2 73.3 L 18.3 67.9 L 26.3 57.1 L 30.2 51.6 L 34.0 45.9 L 37.7 40.1 L 41.3 34.1 L 44.8 27.9 L 48.1 21.6 L 50.85279731750488 15.922355651855469 L 50.8 15.9 L 51.8 14.0 Z " />
</g>
</svg>
