<svg xmlns="http://www.w3.org/2000/svg" xmlns:xlink="http://www.w3.org/1999/xlink" version="1.1" baseProfile="full" viewBox="0 0 200 200" width="200" height="200">
<g fill="black">
<path d="M 79.2 138.1 L 78.14642858505249 144.0 L 123.7 144.0 L 123.7 114.8 L 135.7 116.8 L 138.7 118.8 L 135.7 120.6 L 135.7 144.0 L 162.1 144.0 L 172.1 134.0 L 184.1 144.0 L 184.1 148.0 L 135.7 148.0 L 135.7 183.3 L 123.7 189.3 L 123.7 148.0 L 77.25769233703613 148.0 L 75.4 154.3 L 72.4 161.4 L 68.6 167.8 L 64.1 173.5 L 58.9 178.4 L 53.1 182.5 L 46.6 185.8 L 39.5 188.1 L 31.9 189.5 L 31.4 187.8 L 38.1 184.6 L 44.1 181.0 L 49.3 177.1 L 53.8 172.9 L 57.6 168.1 L 60.7 163.0 L 63.2 157.3 L 65.2 151.1 L 65.79264707565308 148.0 L 16.8 148.0 L 16.8 144.0 L 66.52837839126587 144.0 L 67.2 136.9 L 67.2 114.8 L 79.2 116.8 L 82.2 118.8 L 79.2 120.6 L 79.2 137.5 L 78.825 138.0625 Z M 71.4 105.1 L 91.4 105.1 L 92.7 105.0 L 93.6 104.8 L 94.5 104.5 L 94.9 104.1 L 95.2 103.2 L 95.4 102.3 L 95.4 72.3225806236267 L 92.5 74.1 L 83.4 79.3 L 74.6 84.2 L 66.1 88.8 L 57.9 93.1 L 50.1 97.2 L 42.6 101.0 L 28.6 108.0 L 25.893793773651122 109.31081867218018 L 25.2 113.1 L 22.2 111.1 L 15.6 100.9 L 17.4 100.1 L 24.1 97.5 L 31.1 94.8 L 38.5 91.8 L 46.2 88.7 L 54.4 85.4 L 62.9 81.9 L 71.8 78.3 L 81.1 74.5 L 90.8 70.7 L 95.4 68.95825242996216 L 95.4 43.4 L 20.9 43.4 L 20.9 39.4 L 95.4 39.4 L 95.4 13.1 L 107.4 15.1 L 110.4 17.1 L 107.4 18.9 L 107.4 39.4 L 160.0 39.4 L 170.0 29.4 L 182.0 39.4 L 182.0 43.4 L 107.4 43.4 L 107.4 60.732098770141604 L 110.9 63.8 L 118.7 70.4 L 123.19072399139404 73.84094438552856 L 125.8 71.7 L 129.5 68.5 L 133.0 65.5 L 136.5 62.6 L 139.8 59.9 L 142.9 57.2 L 145.8 54.6 L 148.6 52.1 L 151.2 49.7 L 152.934867477417 48.03741874694824 L 152.9 48.0 L 153.7 47.3 L 161.1 56.8 L 161.4 60.4 L 157.67597169876097 58.95176677703857 L 154.9 60.6 L 151.6 62.6 L 148.0 64.6 L 144.3 66.6 L 140.4 68.6 L 136.3 70.6 L 132.0 72.6 L 127.5 74.5 L 125.28240203857422 75.44365873336793 L 126.4 76.3 L 133.9 81.5 L 141.4 86.1 L 148.9 89.9 L 156.2 93.1 L 163.6 95.6 L 170.8 97.3 L 178.1 98.5 L 187.9 100.0 L 176.0 111.5 L 167.8 109.5 L 159.7 106.7 L 151.8 103.2 L 144.0 98.9 L 136.4 94.0 L 129.0 88.3 L 121.7 81.8 L 114.6 74.7 L 107.9 66.7 L 107.4 66.02307691574097 L 107.4 101.1 L 107.3 103.6 L 106.9 106.1 L 106.1 108.5 L 104.8 110.8 L 103.2 112.8 L 101.2 114.4 L 98.9 115.7 L 96.5 116.5 L 94.0 116.9 L 91.4 117.1 L 91.4 111.1 L 71.4 108.1 Z M 61.2 68.7 L 59.3 66.7 L 57.1 64.7 L 54.6 62.7 L 51.7 60.7 L 48.6 58.7 L 45.2 56.7 L 41.5 54.5 L 37.5 52.6 L 38.0 50.9 L 42.4 51.8 L 46.8 52.5 L 50.8 53.5 L 54.7 54.6 L 58.3 55.9 L 61.6 57.3 L 64.8 58.8 L 67.8 60.5 L 70.5 62.4 L 73.0 64.4 L 74.5 68.7 L 72.6 72.9 L 68.3 74.4 L 64.1 72.4 L 62.8 70.6 Z M 141.4 32.1 L 139.8 30.6 L 137.9 29.2 L 135.8 27.7 L 133.5 26.3 L 131.0 25.0 L 128.3 23.6 L 125.4 22.2 L 122.2 21.2 L 122.5 19.4 L 125.9 19.7 L 129.2 19.7 L 132.5 19.9 L 135.6 20.2 L 138.6 20.8 L 141.4 21.4 L 144.2 22.3 L 146.8 23.3 L 149.3 24.4 L 151.7 25.7 L 153.8 29.8 L 152.5 34.2 L 148.4 36.3 L 144.1 35.0 L 142.8 33.5 Z " />
</g>
</svg>
