<svg xmlns="http://www.w3.org/2000/svg" xmlns:xlink="http://www.w3.org/1999/xlink" version="1.1" baseProfile="full" viewBox="0 0 200 200" width="200" height="200">
<g fill="black">
<path d="M 167.4307927131653 137.40701217651366 L 169.5 139.1 L 164.5 143.1 L 164.5 181.1 L 152.5 187.1 L 152.5 177.1 L 114.2 177.1 L 114.2 184.1 L 102.2 190.1 L 102.2 134.6683168411255 L 97.0 137.5 L 86.4 142.2 L 75.2 146.1 L 74.5 144.5 L 84.7 138.8 L 94.3 132.9 L 103.4 126.5 L 112.0 119.8 L 120.0 112.5 L 127.4 104.8 L 128.28543434143066 103.7349123954773 L 126.7 101.4 L 122.0 92.6 L 118.2 83.1 L 116.74716625213622 78.11193752288818 L 113.5 82.5 L 109.6 87.3 L 105.4 92.0 L 101.0 96.4 L 96.4 100.5 L 91.4 104.4 L 86.2 108.0 L 85.0 106.6 L 88.8 101.7 L 92.5 96.8 L 96.1 92.0 L 99.5 87.2 L 102.8 82.3 L 105.9 77.3 L 108.7 72.2 L 111.4 67.1 L 113.9 61.8 L 115.7942343711853 57.43502511978149 L 115.7 57.4 L 116.7 55.3 L 127.0 61.6 L 128.9 64.6 L 125.11442956924438 65.05687923431397 L 124.0 67.1 L 122.50566034317016 69.5 L 151.2 69.5 L 151.68668727874757 69.09442720413207 L 151.9 68.7 L 152.05802755355836 68.78497705459594 L 157.2 64.5 L 168.2 73.5 L 163.2 76.5 L 160.4842809677124 77.63154964447021 L 156.2 84.5 L 149.4 94.1 L 142.0 103.0 L 139.81109523773193 105.27202768325806 L 144.8 110.1 L 151.5 115.4 L 158.7 119.9 L 166.2 123.7 L 174.3 126.8 L 182.8 129.2 L 191.1 131.5 L 179.4 142.0 L 169.9 138.6 Z M 114.2 139.1 L 114.2 173.1 L 152.5 173.1 L 152.5 139.1 Z M 25.6 161.0 L 14.6 166.5 L 14.6 50.0 L 25.6 52.0 L 28.4 54.0 L 25.6 55.75 L 25.6 145.0 L 37.7 145.0 L 37.7 20.0 L 48.7 22.0 L 51.5 24.0 L 48.7 25.75 L 48.7 145.0 L 62.0 145.0 L 62.0 50.0 L 74.0 52.0 L 77.0 54.0 L 74.0 55.8 L 74.0 155.0 L 62.0 161.0 L 62.0 149.0 L 25.6 149.0 Z M 125.6 118.8 L 116.6 125.8 L 107.4904109954834 131.7452054977417 L 114.2 135.1 L 152.5 135.1 L 156.64591550827026 131.6450704574585 L 152.8 129.3 L 145.2 123.4 L 138.3 116.8 L 133.82557878494262 111.44536485671998 Z M 119.94509801864623 73.5 L 118.66992740631103 75.35810575485229 L 122.0 81.3 L 127.2 89.7 L 132.7 97.3 L 133.177463722229 97.85029726028442 L 134.3 96.5 L 140.7 87.8 L 146.6 78.5 L 149.30408163070678 73.5 Z M 97.7 57.4 L 85.7 63.4 L 85.7 21.8 L 97.7 23.8 L 100.7 25.8 L 97.7 27.6 L 97.7 46.4 L 125.5 46.4 L 125.5 12.6 L 137.5 14.6 L 140.5 16.6 L 137.5 18.4 L 137.5 46.4 L 164.6 46.4 L 164.6 21.8 L 176.6 23.8 L 179.6 25.8 L 176.6 27.6 L 176.6 54.4 L 164.6 60.4 L 164.6 50.4 L 97.7 50.4 Z " />
</g>
</svg>
