<svg xmlns="http://www.w3.org/2000/svg" xmlns:xlink="http://www.w3.org/1999/xlink" version="1.1" baseProfile="full" viewBox="0 0 200 200" width="200" height="200">
<g fill="black">
<path d="M 157.6 149.0 L 159.6 149.0 L 157.6 174.0 L 161.2 176.4 L 163.6 180.0 L 161.2 183.6 L 157.6 186.0 L 68.4 186.0 L 65.8 185.9 L 63.3 185.5 L 60.9 184.7 L 58.6 183.4 L 56.6 181.8 L 55.0 179.8 L 53.7 177.5 L 52.9 175.1 L 52.5 172.6 L 52.4 170.0 L 52.4 136.5 L 64.4 142.5 L 136.4 142.5 L 136.4 119.6 L 52.0 119.6 L 52.0 115.6 L 136.4 115.6 L 142.4 110.6 L 153.4 119.6 L 148.4 123.6 L 148.4 150.5 L 136.4 156.5 L 136.4 146.5 L 64.4 146.5 L 64.4 171.3 L 64.6 172.2 L 64.9 173.1 L 65.1 173.3 L 65.3 173.4 L 65.6 173.6 L 66.2 173.8 L 67.1 174.0 L 151.6 174.0 Z M 157.2 119.7 L 148.8 113.7 L 141.2 107.3 L 134.3 100.5 L 128.2 93.3 L 122.9 85.7 L 122.72911396026612 85.4 L 78.91774196624756 85.4 L 77.6 87.3 L 67.5 98.6 L 56.1 108.9 L 43.2 118.0 L 29.0 125.9 L 13.3 132.7 L 12.6 131.1 L 27.1 122.6 L 40.2 113.6 L 51.8 103.9 L 62.0 93.4 L 68.28571424484252 85.4 L 15.0 85.4 L 15.0 81.4 L 71.29075632095336 81.4 L 78.1 70.3 L 82.21023626327515 61.6 L 34.0 61.6 L 34.0 57.6 L 84.1 57.6 L 88.7 44.0 L 90.1208333015442 37.8 L 27.0 37.8 L 27.0 33.8 L 91.0375 33.8 L 92.0 29.6 L 93.8744966506958 14.505369091033936 L 94.1 12.1 L 105.8 15.4 L 108.6 17.7 L 105.14377641677856 19.36164598464966 L 103.1 31.7 L 102.54090909957885 33.8 L 151.0 33.8 L 161.0 23.8 L 173.0 33.8 L 173.0 37.8 L 101.47597398757935 37.8 L 99.0 47.1 L 94.84375 57.6 L 147.8181818008423 57.6 L 156.0 48.6 L 166.0 57.6 L 166.0 61.6 L 114.95866670608521 61.6 L 118.7 67.7 L 123.5 74.7 L 128.6235294342041 81.4 L 163.0 81.4 L 173.0 71.4 L 185.0 81.4 L 185.0 85.4 L 132.29047622680665 85.4 L 134.5 87.8 L 140.8 93.8 L 147.7 99.4 L 155.3 104.7 L 163.4 109.7 L 172.2 114.3 L 181.7 118.6 L 187.6 121.3 L 176.2 130.6 L 166.4 125.3 Z M 93.24701490402222 61.6 L 86.2 74.9 L 81.69193544387818 81.4 L 120.4506329536438 81.4 L 118.4 77.8 L 114.9 69.5 L 112.72068967819214 61.6 Z " />
</g>
</svg>
