<svg xmlns="http://www.w3.org/2000/svg" xmlns:xlink="http://www.w3.org/1999/xlink" version="1.1" baseProfile="full" viewBox="0 0 200 200" width="200" height="200">
<g fill="black">
<path d="M 22.7 177.0 L 38.0 177.0 L 38.9 176.8 L 39.8 176.5 L 40.2 176.1 L 40.5 175.2 L 40.7 174.3 L 40.8 173.0 L 40.8 118.16290321350098 L 38.1 119.6 L 32.0 122.9 L 25.8 126.2 L 23.133015441894532 127.55465879440308 L 22.5 131.3 L 19.5 129.4 L 12.7 119.3 L 14.5 118.5 L 21.0 115.8 L 33.8 110.6 L 40.2 107.9 L 40.8 107.65625 L 40.8 59.7 L 15.4 59.7 L 15.4 55.7 L 40.8 55.7 L 40.8 16.9 L 52.8 18.9 L 55.8 20.9 L 52.8 22.7 L 52.8 55.7 L 56.9 55.7 L 66.9 45.7 L 78.9 55.7 L 78.9 57.2069766998291 L 82.4 53.3 L 86.3 48.52250003814697 L 86.3 48.0 L 86.59361705780029 48.146808528900145 L 90.3 43.3 L 93.9 37.9 L 97.3 32.2 L 100.4 26.2 L 103.3 20.0 L 105.62289972305298 14.407834148406982 L 105.6 14.4 L 105.9035714149475 13.73214282989502 L 106.0 13.5 L 106.00758619308472 13.503310298919677 L 106.6 12.2 L 117.0 18.3 L 119.0 21.3 L 115.22114086151123 21.75606918334961 L 113.5 25.1 L 110.6671875 30.0 L 140.8 30.0 L 141.41395349502562 29.488372135162354 L 142.0 28.4 L 142.38331499099732 28.680570793151855 L 146.8 25.0 L 157.8 34.0 L 152.8 37.0 L 148.43018865585327 38.82075471878052 L 147.4 39.9 L 145.1 42.1 L 142.8 44.2 L 140.5 46.4 L 138.1 48.5 L 135.6 50.5 L 133.0 52.5 L 130.86842107772827 54.0 L 162.6 54.0 L 168.6 49.0 L 179.6 58.0 L 174.6 62.0 L 174.6 86.0 L 162.6 92.0 L 162.6 86.0 L 137.5036036491394 86.0 L 141.3 95.8 L 145.4 106.2 L 149.5 115.9 L 152.0569209098816 121.25169486999512 L 153.6 119.4 L 156.1 116.6 L 158.5 113.8 L 161.0 111.1 L 163.4 108.5 L 165.8 105.8 L 168.1 103.3 L 170.3 100.7 L 171.84640884399414 98.94271726608277 L 171.8 98.9 L 172.20384616851806 98.5365385055542 L 172.5 98.2 L 172.53523931503295 98.23828468322753 L 172.8 98.0 L 180.6 107.0 L 181.2 110.6 L 177.32878789901733 109.49393939971924 L 172.1 113.1 L 166.1 117.1 L 162.9 119.1 L 159.7 121.0 L 156.4 122.9 L 153.54576959609986 124.36788988113403 L 153.8 124.9 L 158.1 133.1 L 162.6 140.6 L 167.2 147.4 L 172.0 153.3 L 176.8 158.6 L 181.8 163.1 L 183.7 164.8 L 172.9 172.8 L 167.6 167.0 L 162.6 160.6 L 158.0 153.4 L 153.7 145.7 L 149.8 137.3 L 146.1 128.2 L 142.8 118.5 L 139.8 108.1 L 137.3 97.0 L 135.451260471344 86.0 L 135.31612901687623 86.0 L 134.5 87.1 L 130.2 92.8 L 125.5 98.2 L 120.3 103.2 L 119.2217791557312 104.10797548294067 L 124.4 110.2 L 130.2 118.0 L 135.0 125.8 L 138.9 133.4 L 141.8 140.8 L 143.7 148.1 L 144.7 155.2 L 144.7 162.2 L 143.5 169.0 L 141.3 175.6 L 140.1 177.8 L 138.7 179.8 L 137.1 181.7 L 135.3 183.4 L 133.3 184.8 L 131.2 186.0 L 128.9 186.8 L 126.5 187.5 L 124.1 187.8 L 121.6 188.0 L 121.6 182.0 L 105.6 179.0 L 105.6 176.0 L 121.6 176.0 L 122.9 175.9 L 124.1 175.7 L 125.2 175.4 L 126.1 175.1 L 127.0 174.6 L 127.7 174.1 L 128.5 173.4 L 129.2 172.6 L 129.9 171.5 L 130.5 170.3 L 132.6 165.8 L 134.0 160.8 L 134.7 155.4 L 134.52377738952637 150.11332206726075 L 133.8 150.6 L 127.6 154.2 L 121.2 157.8 L 114.4 161.1 L 107.2 164.3 L 99.8 167.3 L 92.0 170.0 L 83.8 172.6 L 75.3 174.9 L 66.4 176.8 L 65.9 175.1 L 74.1 171.3 L 81.9 167.6 L 89.5 164.0 L 96.7 160.3 L 103.5 156.6 L 110.0 152.9 L 116.1 149.1 L 121.9 145.2 L 127.3 141.2 L 132.12374105453492 137.34100723266602 L 131.8 136.1 L 129.1 128.6 L 128.27179145812988 126.7306149482727 L 126.3 128.3 L 121.1 131.9 L 115.5 135.4 L 109.7 138.7 L 103.6 141.7 L 97.2 144.5 L 90.5 147.0 L 83.5 149.3 L 76.2 151.3 L 68.6 152.8 L 68.1 151.1 L 74.9 147.7 L 81.5 144.3 L 87.9 141.0 L 93.9 137.7 L 99.5 134.2 L 104.9 130.7 L 110.0 127.1 L 114.7 123.3 L 119.1 119.5 L 122.99291334152221 115.60708665847778 L 121.3 112.3 L 117.4861044883728 105.56959619522095 L 114.6 108.0 L 108.5 112.3 L 101.9 116.4 L 94.8 120.1 L 87.3 123.5 L 79.3 126.4 L 70.8 128.8 L 70.2 127.1 L 77.8 122.9 L 84.9 118.7 L 91.6 114.4 L 97.7 110.1 L 103.4 105.6 L 108.6 100.9 L 113.2 96.1 L 117.4 91.2 L 121.1 86.0 L 98.3 86.0 L 98.3 93.0 L 86.3 99.0 L 86.3 58.5528302192688 L 81.6 62.1 L 75.9 65.7 L 69.9 68.7 L 68.9 67.2 L 73.6 62.7 L 76.53478260040283 59.7 L 52.8 59.7 L 52.8 102.64285717010497 L 52.9 102.6 L 59.2 100.0 L 65.6 97.4 L 72.0 95.0 L 78.4 92.7 L 79.3 94.3 L 73.7 98.3 L 68.0 102.2 L 62.2 105.9 L 56.3 109.4 L 52.8 111.4416666984558 L 52.8 173.0 L 52.6 175.6 L 52.2 178.1 L 51.4 180.5 L 50.1 182.8 L 48.5 184.8 L 46.5 186.4 L 44.2 187.7 L 41.8 188.5 L 39.3 188.9 L 36.8 189.0 L 36.8 183.0 L 22.7 180.0 Z M 98.3 58.0 L 98.3 82.0 L 124.5 82.0 L 124.5 58.0 Z M 136.5 58.0 L 136.5 82.0 L 162.6 82.0 L 162.6 58.0 Z M 108.11967210769653 34.0 L 105.7 37.6 L 101.4 43.3 L 96.9 48.6 L 93.76666669845581 51.73333330154419 L 98.3 54.0 L 127.4 54.0 L 128.3 52.7 L 129.9 49.8 L 131.5 47.0 L 133.0 44.2 L 134.6 41.5 L 136.1 38.9 L 137.6 36.2 L 138.8692307472229 34.0 Z " />
</g>
</svg>
