<svg xmlns="http://www.w3.org/2000/svg" xmlns:xlink="http://www.w3.org/1999/xlink" version="1.1" baseProfile="full" viewBox="0 0 200 200" width="200" height="200">
<g fill="black">
<path d="M 25.2 176.0 L 39.2 176.0 L 40.4 175.9 L 41.3 175.7 L 42.2 175.4 L 42.6 175.0 L 42.9 174.1 L 43.1 173.2 L 43.2 172.0 L 43.2 120.0 L 12.4 120.0 L 12.4 116.0 L 43.2 116.0 L 43.2 76.0 L 15.6 76.0 L 15.6 72.0 L 43.2 72.0 L 43.2 33.94166669845581 L 39.3 34.7 L 31.7 35.9 L 23.6 37.0 L 14.9 37.8 L 14.6 36.1 L 22.7 33.3 L 30.4 30.7 L 37.7 28.3 L 44.4 26.0 L 50.7 23.7 L 56.5 21.5 L 61.7 19.4 L 66.5 17.2 L 70.7 15.1 L 73.50485038757324 13.508057880401612 L 73.5 13.5 L 73.507093334198 13.506784915924072 L 74.4 13.0 L 75.65864944458008 15.564795112609863 L 82.7 22.3 L 82.9 25.5 L 79.2120262145996 23.98853530883789 L 75.3 25.5 L 70.4 27.2 L 65.1 28.8 L 59.4 30.4 L 55.2 31.4 L 55.2 72.0 L 60.8 72.0 L 70.8 62.0 L 82.8 72.0 L 82.8 76.0 L 55.2 76.0 L 55.2 116.0 L 64.0 116.0 L 74.0 106.0 L 86.0 116.0 L 86.0 120.0 L 55.2 120.0 L 55.2 172.0 L 55.0 174.5 L 54.6 177.0 L 53.8 179.4 L 52.5 181.7 L 50.9 183.7 L 48.9 185.3 L 46.6 186.6 L 44.2 187.4 L 41.7 187.8 L 39.2 188.0 L 39.2 182.0 L 25.2 179.0 Z M 164.1 145.0 L 166.1 145.0 L 164.1 170.0 L 167.7 172.4 L 170.1 176.0 L 167.7 179.6 L 164.1 182.0 L 126.4 182.0 L 123.9 181.8 L 121.4 181.4 L 119.0 180.6 L 116.7 179.3 L 114.7 177.7 L 113.0 175.7 L 111.8 173.4 L 111.0 171.0 L 110.6 168.5 L 110.4 166.0 L 110.4 119.0 L 122.4 121.0 L 125.4 123.0 L 122.4 124.8 L 122.4 166.0 L 122.5 167.2 L 122.6 168.1 L 122.8 168.7 L 123.0 169.0 L 123.2 169.2 L 123.3 169.4 L 123.7 169.5 L 124.3 169.7 L 125.2 169.9 L 126.4 170.0 L 158.1 170.0 Z M 82.6 173.2 L 80.7 169.0 L 82.2 164.7 L 84.2 162.8 L 86.0 160.4 L 87.7 157.6 L 89.2 154.4 L 90.5 150.6 L 91.6 146.4 L 92.5 141.8 L 93.2 136.6 L 93.8 131.1 L 94.1 125.0 L 95.9 124.8 L 97.2 130.9 L 98.2 136.6 L 98.7 142.1 L 98.8 147.2 L 98.6 152.2 L 97.9 156.8 L 96.9 161.2 L 95.4 165.4 L 93.5 169.2 L 91.1 172.8 L 86.9 174.7 Z M 175.6 149.3 L 174.6 145.4 L 173.4 141.5 L 171.9 137.6 L 170.1 133.7 L 168.1 129.7 L 165.8 125.6 L 163.4 121.5 L 160.7 117.3 L 162.0 116.1 L 166.0 119.2 L 169.8 122.5 L 173.2 126.1 L 176.3 129.8 L 179.1 133.7 L 181.6 137.7 L 183.8 141.8 L 185.8 146.0 L 187.4 150.4 L 188.7 154.9 L 187.7 159.3 L 183.9 161.9 L 179.5 160.9 L 176.9 157.1 L 176.4 153.2 Z M 140.5 126.7 L 139.1 124.1 L 137.3 121.5 L 135.2 118.8 L 132.9 116.1 L 130.2 113.4 L 127.2 110.7 L 124.0 107.8 L 120.3 105.2 L 121.1 103.6 L 125.4 105.3 L 129.6 106.9 L 133.5 108.7 L 137.2 110.7 L 140.5 113.0 L 143.7 115.4 L 146.5 117.9 L 149.1 120.7 L 151.5 123.6 L 153.5 126.7 L 153.6 131.3 L 150.6 134.7 L 146.0 134.8 L 142.6 131.8 L 141.7 129.2 Z M 104.3 107.0 L 92.3 113.0 L 92.3 17.0 L 104.3 23.0 L 166.0 23.0 L 172.0 18.0 L 183.0 27.0 L 178.0 31.0 L 178.0 99.0 L 166.0 105.0 L 166.0 95.0 L 104.3 95.0 Z M 104.3 61.0 L 104.3 91.0 L 128.6 91.0 L 128.6 61.0 Z M 140.6 61.0 L 140.6 91.0 L 166.0 91.0 L 166.0 61.0 Z M 104.3 27.0 L 104.3 57.0 L 128.6 57.0 L 128.6 27.0 Z M 140.6 27.0 L 140.6 57.0 L 166.0 57.0 L 166.0 27.0 Z " />
</g>
</svg>
