<svg xmlns="http://www.w3.org/2000/svg" xmlns:xlink="http://www.w3.org/1999/xlink" version="1.1" baseProfile="full" viewBox="0 0 200 200" width="200" height="200">
<g fill="black">
<path d="M 139.2 179.3 L 123.6 174.0 L 109.4 168.1 L 99.49600734710694 162.99325380325317 L 85.7 169.3 L 70.1 174.8 L 53.0 179.6 L 34.4 183.5 L 14.1 186.5 L 13.8 184.7 L 33.5 179.8 L 51.6 174.4 L 68.0 168.6 L 82.7 162.3 L 91.10672674179077 157.9026351928711 L 85.3 154.1 L 75.6 146.1 L 67.5 137.4 L 61.1 128.1 L 56.91499996185303 118.8 L 17.0 118.8 L 17.0 114.8 L 94.0 114.8 L 94.0 64.4 L 41.0 64.4 L 41.0 71.4 L 29.0 77.4 L 29.0 24.5 L 41.0 30.5 L 94.0 30.5 L 94.0 11.6 L 106.0 13.6 L 109.0 15.6 L 106.0 17.4 L 106.0 30.5 L 159.0 30.5 L 165.0 25.5 L 176.0 34.5 L 171.0 38.5 L 171.0 68.4 L 159.0 74.4 L 159.0 64.4 L 106.0 64.4 L 106.0 89.4 L 94.9 94.95 L 106.0 96.8 L 109.0 98.8 L 106.0 100.6 L 106.0 114.8 L 161.0 114.8 L 171.0 104.8 L 183.0 114.8 L 183.0 118.8 L 146.68000001907347 118.8 L 146.4 119.3 L 140.3 129.7 L 132.5 139.3 L 123.1 148.0 L 112.2 155.9 L 109.94027643203735 157.16544523239136 L 113.4 158.7 L 127.2 163.6 L 142.4 168.0 L 159.0 171.7 L 177.1 174.9 L 186.7 176.5 L 174.8 187.9 L 156.3 183.9 Z M 64.5 125.7 L 71.8 133.4 L 80.3 140.6 L 90.0 147.2 L 100.05671844482421 152.68548278808595 L 107.0 148.2 L 116.6 140.4 L 124.5 132.1 L 130.8 123.5 L 133.11492538452148 118.8 L 59.325 118.8 Z M 41.0 34.5 L 41.0 60.4 L 94.0 60.4 L 94.0 34.5 Z M 106.0 34.5 L 106.0 60.4 L 159.0 60.4 L 159.0 34.5 Z " />
</g>
</svg>
