<svg xmlns="http://www.w3.org/2000/svg" xmlns:xlink="http://www.w3.org/1999/xlink" version="1.1" baseProfile="full" viewBox="0 0 200 200" width="200" height="200">
<g fill="black">
<path d="M 160.4 173.8 L 152.1 169.9 L 144.2 165.6 L 136.6 161.1 L 129.4 156.3 L 122.6 151.3 L 116.2 145.9 L 110.4 140.1 L 106.0 134.9528302192688 L 106.0 181.8 L 94.0 187.8 L 94.0 141.07258062362672 L 92.3 142.8 L 85.6 148.7 L 78.4 154.3 L 70.6 159.4 L 62.4 164.2 L 53.6 168.5 L 44.3 172.4 L 34.5 175.9 L 24.1 178.9 L 13.2 181.3 L 12.7 179.6 L 22.9 175.3 L 32.5 170.9 L 41.6 166.4 L 50.1 161.8 L 58.0 156.9 L 65.4 151.7 L 72.3 146.3 L 78.5 140.7 L 84.2 134.8 L 84.36363639831544 134.6 L 18.0 134.6 L 18.0 130.6 L 94.0 130.6 L 94.0 110.6 L 106.0 112.6 L 109.0 114.6 L 106.0 116.4 L 106.0 130.6 L 160.0 130.6 L 170.0 120.6 L 182.0 130.6 L 182.0 134.6 L 109.4162790298462 134.6 L 113.0 136.9 L 119.8 141.2 L 126.7 145.3 L 133.8 149.2 L 141.2 153.0 L 148.8 156.5 L 156.6 159.8 L 164.8 162.9 L 173.2 165.7 L 182.0 168.4 L 189.5 170.8 L 177.9 180.9 L 169.0 177.5 Z M 52.6 52.1 L 147.3 52.1 L 153.3 47.1 L 164.3 56.1 L 159.3 60.1 L 159.3 110.6 L 147.3 116.6 L 147.3 106.6 L 52.6 106.6 L 52.6 113.6 L 40.6 119.6 L 40.6 46.1 Z M 52.6 56.1 L 52.6 102.6 L 147.3 102.6 L 147.3 56.1 Z M 83.9 67.9 L 116.0 67.9 L 122.0 62.9 L 133.0 71.9 L 128.0 75.9 L 128.0 89.3 L 116.0 95.3 L 116.0 89.3 L 83.9 89.3 L 71.9 95.3 L 71.9 61.9 Z M 83.9 71.9 L 83.9 85.3 L 116.0 85.3 L 116.0 71.9 Z M 18.4 35.3 L 94.0 35.3 L 94.0 13.0 L 106.0 15.0 L 109.0 17.0 L 106.0 18.8 L 106.0 35.3 L 163.4181818008423 35.3 L 171.6 26.3 L 181.6 35.3 L 181.6 39.3 L 18.4 39.3 Z " />
</g>
</svg>
