<svg xmlns="http://www.w3.org/2000/svg" xmlns:xlink="http://www.w3.org/1999/xlink" version="1.1" baseProfile="full" viewBox="0 0 200 200" width="200" height="200">
<g fill="black">
<path d="M 129.8 183.1 L 108.8 181.3 L 90.4 178.3 L 74.5 174.2 L 61.0 168.9 L 50.2 162.4 L 42.2 154.6 L 37.1 145.7 L 36.865210151672365 144.51369333267212 L 35.3 150.7 L 32.7 158.5 L 29.7 165.6 L 26.2 172.2 L 22.2 178.1 L 17.6 183.2 L 12.6 187.6 L 11.3 186.3 L 14.6 180.9 L 17.6 175.2 L 20.3 169.2 L 22.7 162.8 L 24.6 155.9 L 26.3 148.5 L 27.5 140.7 L 28.4 132.3 L 28.8 123.3 L 28.9 113.8 L 28.930280113220213 113.80075702667236 L 29.0 111.5 L 40.9 114.1 L 43.9 116.1 L 40.62699136734009 117.96112260818481 L 40.2 124.0 L 39.0 133.5 L 38.146985912323 138.24489097595216 L 40.8 143.9 L 46.5 150.6 L 53.0 155.4333333015442 L 53.0 101.0 L 15.0 101.0 L 15.0 97.0 L 77.0 97.0 L 87.0 87.0 L 99.0 97.0 L 99.0 101.0 L 65.0 101.0 L 65.0 129.0 L 76.81818180084228 129.0 L 85.0 120.0 L 95.0 129.0 L 95.0 133.0 L 65.0 133.0 L 65.0 161.39047622680664 L 77.0 165.2 L 92.2 168.2 L 110.0 170.3 L 130.3 171.3 L 153.2 171.4 L 178.7 170.4 L 190.0 169.9 L 179.2 183.5 L 153.3 183.9 Z M 120.5 88.4 L 166.4 88.4 L 172.4 83.4 L 183.4 92.4 L 178.4 96.4 L 178.4 155.7 L 166.4 161.7 L 166.4 151.7 L 120.5 151.7 L 120.5 158.7 L 108.5 164.7 L 108.5 82.4 Z M 120.5 121.2 L 120.5 147.7 L 166.4 147.7 L 166.4 121.2 Z M 120.5 92.4 L 120.5 117.2 L 166.4 117.2 L 166.4 92.4 Z M 36.5 23.5 L 77.4 23.5 L 83.4 18.5 L 94.4 27.5 L 89.4 31.5 L 89.4 80.4 L 77.4 86.4 L 77.4 76.4 L 36.5 76.4 L 36.5 83.4 L 24.5 89.4 L 24.5 17.5 Z M 180.2 48.5 L 182.2 48.5 L 180.2 65.5 L 183.2 67.5 L 185.2 70.5 L 183.2 73.5 L 180.2 75.5 L 116.5 75.5 L 114.1 75.1 L 111.8 74.5 L 109.6 73.4 L 107.6 71.9 L 105.9 70.0 L 104.6 67.8 L 103.8 65.5 L 103.2 63.0 L 103.0 60.5 L 103.0 13.1 L 115.0 15.1 L 118.0 17.1 L 115.0 18.9 L 115.0 40.431884098052976 L 115.8 40.2 L 122.5 38.3 L 129.0 36.4 L 135.3 34.6 L 141.4 32.7 L 147.2 30.8 L 152.7 28.8 L 158.1 26.8 L 163.2 24.7 L 167.10500783920287 22.910204696655274 L 167.1 22.9 L 167.10933170318603 22.908222961425782 L 168.0 22.5 L 168.7168740272522 24.324770164489745 L 177.2 31.8 L 177.4 35.0 L 173.40138568878174 33.30361814498902 L 172.4 33.7 L 167.0 35.4 L 161.4 37.0 L 155.6 38.4 L 149.6 39.8 L 143.4 40.9 L 137.0 42.0 L 130.3 42.9 L 123.5 43.5 L 116.4 43.9 L 115.0 43.919178104400636 L 115.0 60.5 L 114.9 61.7 L 115.0 62.7 L 115.1 63.3 L 115.2 63.8 L 115.6 64.4 L 116.0 64.7 L 116.6 65.1 L 117.6 65.3 L 119.0 65.5 L 175.2 65.5 Z M 36.5 51.2 L 36.5 72.4 L 77.4 72.4 L 77.4 51.2 Z M 36.5 27.5 L 36.5 47.2 L 77.4 47.2 L 77.4 27.5 Z " />
</g>
</svg>
