<svg xmlns="http://www.w3.org/2000/svg" xmlns:xlink="http://www.w3.org/1999/xlink" version="1.1" baseProfile="full" viewBox="0 0 200 200" width="200" height="200">
<g fill="black">
<path d="M 160.0 171.5 L 151.7 166.9 L 143.8 161.9 L 136.3 156.6 L 129.1 151.0 L 122.3 145.0 L 116.0 138.8 L 110.2 132.1 L 106.0 126.28461542129517 L 106.0 182.8 L 94.0 188.8 L 94.0 132.98032789230348 L 92.7 134.6 L 86.0 141.7 L 78.7 148.4 L 70.9 154.6 L 62.6 160.3 L 53.8 165.6 L 44.5 170.4 L 34.6 174.7 L 24.2 178.4 L 13.2 181.5 L 12.7 179.8 L 22.8 174.9 L 32.3 169.8 L 41.4 164.6 L 49.8 159.2 L 57.8 153.4 L 65.1 147.3 L 71.9 141.0 L 78.2 134.3 L 83.9 127.4 L 85.13157892227173 125.6 L 18.0 125.6 L 18.0 121.6 L 94.0 121.6 L 94.0 97.5 L 106.0 99.5 L 109.0 101.5 L 106.0 103.3 L 106.0 121.6 L 160.0 121.6 L 170.0 111.6 L 182.0 121.6 L 182.0 125.6 L 108.69259262084961 125.6 L 113.1 129.1 L 120.0 134.4 L 126.9 139.4 L 134.1 144.3 L 141.5 148.8 L 149.1 153.1 L 157.0 157.2 L 165.1 160.9 L 173.6 164.4 L 182.3 167.6 L 189.1 170.2 L 177.6 179.9 L 168.6 175.9 Z M 15.4 89.9 L 23.0 89.0 L 30.7 88.0 L 38.6 87.1 L 44.9 86.2444444656372 L 44.9 57.8 L 19.3 57.8 L 19.3 53.8 L 44.9 53.8 L 44.9 27.2 L 15.4 27.2 L 15.4 23.2 L 73.6 23.2 L 83.6 13.2 L 95.6 23.2 L 95.6 27.2 L 56.9 27.2 L 56.9 53.8 L 69.6 53.8 L 79.6 43.8 L 91.6 53.8 L 91.6 57.8 L 56.9 57.8 L 56.9 84.75119047164917 L 63.4 83.9 L 72.1 82.8 L 81.0 81.8 L 90.0 80.9 L 99.3 80.1 L 99.7 81.8 L 90.8 84.6 L 82.0 87.1 L 73.3 89.3 L 64.8 91.4 L 56.5 93.3 L 48.3 95.2 L 40.3 97.0 L 32.4 98.6 L 24.8 100.2 L 21.289999961853027 100.90200004577636 L 19.7 104.4 L 17.3 101.7 L 13.4 90.2 Z M 178.9 83.8 L 176.9 85.1 L 174.9 86.3 L 172.7 87.2 L 170.5 88.0 L 168.3 88.6 L 166.0 89.0 L 163.6 89.3 L 161.2 89.4 L 161.2 83.4 L 149.2 80.4 L 149.2 77.4 L 161.2 77.4 L 164.2 77.2 L 167.0 76.6 L 168.2 76.1 L 169.5 75.5 L 170.7 74.9 L 171.9 74.1 L 173.1 73.2 L 174.2 72.1 L 174.5 72.1 L 174.9 71.6 L 175.2 70.4 L 175.0 68.7 L 173.9 66.3 L 171.3 63.3 L 166.9 59.9 L 160.5 56.4 L 151.7 52.8 L 140.48359756469728 48.730331897735596 L 140.1 48.9 L 139.1 47.3 L 143.4 43.6 L 147.5 40.0 L 151.4 36.7 L 155.0 33.5 L 158.5 30.4 L 161.6 27.4 L 164.5 24.5 L 166.1714285850525 22.7 L 121.0 22.7 L 121.0 95.1 L 109.0 101.1 L 109.0 12.7 L 121.0 18.7 L 169.80769233703614 18.7 L 171.5 16.5 L 171.98488750457764 16.962593746185302 L 175.9 13.7 L 186.9 22.7 L 181.9 25.7 L 176.13458642959594 28.102255630493165 L 174.2 29.6 L 170.9 32.1 L 167.3 34.5 L 163.4 37.0 L 159.3 39.4 L 155.0 41.8 L 150.3 44.3 L 145.3 46.6 L 144.06505918502808 47.146223831176755 L 153.0 47.8 L 162.8 50.2 L 170.6 53.1 L 176.6 56.6 L 181.1 60.4 L 184.1 64.7 L 185.7 69.2 L 185.8 73.5 L 184.7 77.5 L 182.6 80.8 L 180.8 82.4 Z " />
</g>
</svg>
