<svg xmlns="http://www.w3.org/2000/svg" xmlns:xlink="http://www.w3.org/1999/xlink" version="1.1" baseProfile="full" viewBox="0 0 200 200" width="200" height="200">
<g fill="black">
<path d="M 126.2 175.2 L 144.2 175.2 L 145.4 175.1 L 146.3 175.0 L 146.9 174.8 L 147.3 174.6 L 147.6 174.3 L 147.8 173.9 L 148.0 173.4 L 148.1 172.4 L 148.2 171.2 L 148.2 152.5 L 69.7 152.5 L 69.7 181.9 L 57.7 187.9 L 57.7 107.33298969268799 L 51.2 113.9 L 40.2 122.8 L 27.9 130.7 L 14.4 137.6 L 13.5 136.0 L 25.9 127.5 L 36.9 118.6 L 46.6 109.2 L 55.0 99.3 L 57.7 95.26901407241822 L 57.7 94.2 L 58.23639574050903 94.46819791793823 L 62.1 88.7 L 67.78738737106323 78.0 L 35.0 78.0 L 35.0 74.0 L 69.40338983535767 74.0 L 72.6 65.8 L 75.9 53.4 L 75.98333330154419 52.9 L 15.0 52.9 L 15.0 48.9 L 76.65 48.9 L 78.1 40.2 L 78.78235292434692 28.6 L 37.0 28.6 L 37.0 24.6 L 149.0 24.6 L 155.0 19.6 L 166.0 28.6 L 161.0 32.6 L 161.0 48.9 L 170.8181818008423 48.9 L 179.0 39.9 L 189.0 48.9 L 189.0 52.9 L 161.0 52.9 L 161.0 82.0 L 149.0 88.0 L 149.0 78.0 L 77.98719997406006 78.0 L 76.3 81.7 L 69.3 93.3 L 65.54799995422363 98.12399997711182 L 69.7 100.2 L 148.2 100.2 L 154.2 95.2 L 165.2 104.2 L 160.2 108.2 L 160.2 171.2 L 160.1 173.8 L 159.6 176.3 L 158.8 178.7 L 157.6 180.9 L 155.9 183.0 L 153.9 184.6 L 151.7 185.8 L 149.2 186.6 L 146.8 187.1 L 144.2 187.2 L 144.2 181.2 L 126.2 178.2 Z M 69.7 128.3 L 69.7 148.5 L 148.2 148.5 L 148.2 128.3 Z M 69.7 104.2 L 69.7 124.3 L 148.2 124.3 L 148.2 104.2 Z M 87.01702127456664 52.9 L 86.4 55.9 L 82.0 69.2 L 79.81120004653931 74.0 L 149.0 74.0 L 149.0 52.9 Z M 90.71744966506958 28.6 L 89.3 41.8 L 87.83971633911133 48.9 L 149.0 48.9 L 149.0 28.6 Z " />
</g>
</svg>
