<svg xmlns="http://www.w3.org/2000/svg" xmlns:xlink="http://www.w3.org/1999/xlink" version="1.1" baseProfile="full" viewBox="0 0 200 200" width="200" height="200">
<g fill="black">
<path d="M 40.9 120.1 L 40.1 117.5 L 39.1 114.9 L 37.9 112.5 L 36.5 110.1 L 34.8 107.8 L 32.9 105.5 L 30.8 103.1 L 30.5973051071167 102.95187683105469 L 29.9 104.3 L 24.9 112.3 L 19.4 119.8 L 13.4 126.5 L 11.9 125.4 L 16.2 117.7 L 20.2 109.7 L 24.0 101.3 L 27.5 92.6 L 30.6 83.5 L 33.3 73.9 L 35.8 63.9 L 37.8 53.5 L 39.6 42.6 L 40.573584938049315 34.0 L 12.6 34.0 L 12.6 30.0 L 61.6 30.0 L 71.6 20.0 L 83.6 30.0 L 83.6 34.0 L 52.577777767181395 34.0 L 50.8 44.4 L 48.4 55.7 L 45.5 66.4 L 44.66699028015137 69.0 L 65.1 69.0 L 71.1 64.0 L 82.1 73.0 L 77.1 76.0 L 76.40376482009887 76.29009799957275 L 74.6 88.7 L 71.3 104.7 L 67.1 119.5 L 62.1 133.3 L 56.1 145.8 L 49.3 157.2 L 41.5 167.3 L 32.9 176.2 L 23.4 183.7 L 13.1 189.7 L 12.2 188.2 L 21.1 180.7 L 29.1 172.4 L 36.4 163.3 L 42.8 153.2 L 48.5 142.1 L 53.4 129.9 L 57.5 116.7 L 60.8 102.4 L 63.4 86.9 L 64.83212118148803 73.0 L 43.38543691635132 73.0 L 42.2 76.7 L 38.5 86.4 L 34.4 95.6 L 31.737294292449953 100.74789762496948 L 32.1 100.9 L 35.3 102.1 L 38.4 103.6 L 41.2 105.5 L 43.8 107.7 L 46.2 110.1 L 48.4 112.9 L 50.4 115.8 L 52.1 119.1 L 53.6 122.5 L 52.9 127.0 L 49.3 129.9 L 44.8 129.2 L 42.0 125.6 L 41.5 122.8 Z M 122.1 166.3 L 122.4 169.9 L 118.75152835845947 168.5069472312927 L 117.7 169.2 L 113.1 172.0 L 108.3 174.6 L 103.4 177.1 L 98.2 179.4 L 92.8 181.5 L 87.1 183.5 L 81.3 185.2 L 75.2 186.7 L 68.9 187.8 L 68.4 186.1 L 74.0 183.1 L 79.4 180.2 L 84.6 177.4 L 89.5 174.7 L 94.3 171.8 L 98.8 169.0 L 103.1 166.0 L 107.2 163.0 L 111.0 160.0 L 113.90143604278565 157.5015411376953 L 113.9 157.5 L 114.7 156.8 Z M 170.0 180.0 L 166.9 177.5 L 163.6 175.1 L 160.0 172.7 L 156.1 170.5 L 152.0 168.3 L 147.6 166.2 L 143.0 164.1 L 138.1 162.0 L 138.5 160.3 L 143.9 160.7 L 149.1 161.4 L 154.1 162.4 L 158.9 163.7 L 163.6 165.3 L 168.0 167.0 L 172.2 169.1 L 176.2 171.3 L 180.1 173.8 L 183.7 176.5 L 185.5 180.7 L 184.0 185.0 L 179.8 186.8 L 175.5 185.3 L 172.9 182.6 Z M 96.4 70.0 L 99.1 72.0 L 96.4 73.72340421676635 L 96.4 149.0 L 165.8 149.0 L 175.8 139.0 L 187.8 149.0 L 187.8 153.0 L 96.4 153.0 L 96.4 160.0 L 85.4 165.5 L 85.4 68.0 Z M 119.9 72.9 L 161.3 72.9 L 167.3 67.9 L 178.3 76.9 L 173.3 80.9 L 173.3 136.2 L 161.3 142.2 L 161.3 136.2 L 119.9 136.2 L 108.9 141.7 L 108.9 67.4 Z M 119.9 115.6 L 119.9 132.2 L 161.3 132.2 L 161.3 115.6 Z M 119.9 96.2 L 119.9 111.6 L 161.3 111.6 L 161.3 96.2 Z M 119.9 76.9 L 119.9 92.2 L 161.3 92.2 L 161.3 76.9 Z M 176.7 32.0 L 178.7 32.0 L 176.7 49.0 L 179.7 51.0 L 181.7 54.0 L 179.7 57.0 L 176.7 59.0 L 110.0 59.0 L 107.5 58.9 L 105.1 58.6 L 102.8 57.9 L 100.6 56.8 L 98.6 55.3 L 96.9 53.5 L 95.6 51.3 L 94.7 49.0 L 94.2 46.5 L 94.0 44.0 L 94.0 14.0 L 106.0 16.0 L 109.0 18.0 L 106.0 19.8 L 106.0 34.305263137817384 L 107.4 33.9 L 114.6 31.8 L 121.6 29.9 L 128.3 28.0 L 134.6 26.1 L 140.7 24.3 L 146.4 22.4 L 151.8 20.5 L 156.9 18.6 L 161.6 16.6 L 162.21688070297242 18.300183486938476 L 171.2 26.0 L 171.4 29.1 L 167.32813806533812 27.33755226135254 L 165.7 27.9 L 160.4 29.4 L 154.9 30.8 L 149.0 32.1 L 142.9 33.3 L 136.5 34.4 L 129.8 35.4 L 122.9 36.3 L 115.6 37.1 L 108.0 37.6 L 106.0 37.6506329536438 L 106.0 44.0 L 105.9 45.2 L 106.0 46.1 L 106.1 46.8 L 106.3 47.6 L 106.9 48.2 L 107.6 48.5 L 108.6 48.8 L 110.0 49.0 L 171.7 49.0 Z " />
</g>
</svg>
