<svg xmlns="http://www.w3.org/2000/svg" xmlns:xlink="http://www.w3.org/1999/xlink" version="1.1" baseProfile="full" viewBox="0 0 200 200" width="200" height="200">
<g fill="black">
<path d="M 184.8 87.6 L 186.5 90.8 L 182.80062379837037 90.99134702682495 L 176.9 101.0 L 168.3 113.7 L 159.0 125.7 L 149.0 136.8 L 138.3 147.2 L 126.9 156.8 L 114.8 165.6 L 102.0 173.6 L 88.5 180.7 L 74.3 186.8 L 73.6 185.1 L 86.7 177.3 L 99.1 169.1 L 110.9 160.3 L 122.0 151.0 L 132.4 141.1 L 142.1 130.6 L 151.1 119.4 L 159.5 107.6 L 167.2 95.2 L 173.75913858413696 82.92504062652588 L 173.7 82.9 L 174.7 81.0 Z M 41.7 186.9 L 37.7 184.8 L 36.3 180.5 L 36.9 173.5 L 36.9 167.1 L 36.3 161.4 L 35.2 156.2 L 33.5 151.6 L 31.2 147.4 L 28.3 143.6 L 24.7 140.2 L 20.3 137.0 L 15.1 134.1 L 15.6 132.4 L 21.8 133.5 L 27.5 135.7 L 32.6 138.7 L 35.2307692527771 141.0384614944458 L 35.4 140.7 L 38.2 135.3 L 41.6 128.9 L 45.8 121.3 L 50.6 112.6 L 56.2 102.7 L 62.5 91.8 L 69.7 79.7 L 77.7 66.5 L 79.3 67.4 L 73.0 81.4 L 67.3 94.2 L 62.0 105.7 L 57.4 116.0 L 53.4 125.1 L 50.0 132.9 L 47.3 139.5 L 45.3 144.9 L 43.9 149.0 L 43.3 151.7 L 43.18478660583496 151.6649351119995 L 43.9 153.0 L 46.1 159.2 L 47.6 166.0 L 48.3 173.5 L 48.2 181.5 L 46.1 185.5 Z M 115.9 120.1 L 113.9 116.7 L 111.7 113.3 L 109.3 110.0 L 106.7 106.6 L 103.9 103.3 L 100.9 100.0 L 97.7 96.6 L 94.3 93.3 L 95.3 91.8 L 99.7 93.9 L 104.0 96.1 L 108.0 98.7 L 111.7 101.4 L 115.3 104.4 L 118.6 107.5 L 121.8 110.8 L 124.7 114.2 L 127.4 117.8 L 129.9 121.5 L 130.2 126.1 L 127.3 129.6 L 122.8 130.0 L 119.2 127.1 L 117.7 123.6 Z M 142.3 90.4 L 140.5 87.4 L 138.4 84.4 L 136.0 81.3 L 133.3 78.2 L 130.5 75.1 L 127.3 71.9 L 124.0 68.5 L 120.5126124382019 65.38962736129761 L 116.6 69.9 L 109.0 77.9 L 101.0 85.6 L 92.7 93.1 L 83.8 100.1 L 74.5 106.6 L 73.4 105.3 L 81.3 97.2 L 89.0 89.2 L 96.3 81.1 L 103.4 72.8 L 110.1 64.4 L 116.4 55.9 L 122.4 47.2 L 128.0 38.3 L 133.3 29.2 L 137.71675758361818 20.907312393188477 L 137.7 20.9 L 138.7 19.0 L 148.7 25.7 L 150.4 28.9 L 146.7179775238037 29.026966285705566 L 143.1 35.1 L 137.0 44.2 L 130.6 53.0 L 123.8 61.6 L 121.77631130218506 63.932863330841066 L 125.8 65.9 L 130.2 68.0 L 134.3 70.4 L 138.1 72.9 L 141.6 75.5 L 144.9 78.3 L 148.0 81.1 L 150.8 84.1 L 153.4 87.2 L 155.7 90.4 L 156.2 95.0 L 153.4 98.6 L 148.9 99.0 L 145.2 96.2 L 143.9 93.3 Z M 36.7 83.7 L 35.1 81.7 L 33.1 79.6 L 30.7 77.5 L 28.0 75.4 L 24.9 73.3 L 21.4 71.2 L 17.6 69.0 L 13.3 67.1 L 13.8 65.4 L 18.5 66.2 L 23.0 67.0 L 27.2 68.1 L 31.1 69.3 L 34.7 70.8 L 38.1 72.4 L 41.2 74.3 L 44.1 76.3 L 46.7 78.6 L 49.0 81.2 L 49.7 85.7 L 47.2 89.5 L 42.7 90.2 L 38.9 87.6 L 38.0 85.7 Z M 52.4 37.8 L 50.7 35.7 L 48.7 33.6 L 46.4 31.5 L 43.8 29.4 L 40.9 27.3 L 37.6 25.2 L 34.1 23.0 L 30.2 21.1 L 30.8 19.4 L 35.1 20.3 L 39.3 21.1 L 43.3 22.1 L 47.0 23.4 L 50.5 24.9 L 53.8 26.5 L 56.9 28.3 L 59.8 30.4 L 62.4 32.6 L 64.8 35.1 L 65.7 39.5 L 63.3 43.4 L 58.8 44.3 L 54.9 41.9 L 53.8 39.9 Z " />
</g>
</svg>
