<svg xmlns="http://www.w3.org/2000/svg" xmlns:xlink="http://www.w3.org/1999/xlink" version="1.1" baseProfile="full" viewBox="0 0 200 200" width="200" height="200">
<g fill="black">
<path d="M 56.0 110.1 L 56.0 110.7069766998291 L 62.8 109.6 L 75.1 107.6 L 86.8 105.9 L 97.7 104.2 L 108.0 102.6 L 117.5 101.0 L 126.4 99.4 L 134.6 97.9 L 142.1 96.3 L 147.90535373687743 95.01940727233887 L 147.9 95.0 L 147.91966333389283 95.01625070571899 L 148.9 94.8 L 149.1262294769287 96.01341285705567 L 160.0 105.0 L 160.3 108.0 L 155.80743799209594 105.75371904373169 L 151.1 106.6 L 144.0 107.6 L 136.2 108.5 L 127.8 109.3 L 118.7 110.2 L 109.0 111.0 L 98.5 111.7 L 87.4 112.4 L 75.6 113.0 L 63.2 113.4 L 56.0 113.45454549789429 L 56.0 130.6 L 163.0 130.6 L 173.0 120.6 L 185.0 130.6 L 185.0 134.6 L 127.0 134.6 L 127.0 182.6 L 115.0 188.6 L 115.0 134.6 L 56.0 134.6 L 56.0 137.3 L 55.2 144.5 L 53.7 151.2 L 51.3 157.5 L 48.1 163.3 L 44.0 168.5 L 39.3 173.2 L 33.8 177.2 L 27.6 180.6 L 20.8 183.3 L 13.3 185.4 L 12.6 183.7 L 19.2 179.9 L 24.9 176.0 L 29.8 171.9 L 34.0 167.7 L 37.4 163.3 L 40.0 158.7 L 42.0 153.8 L 43.3 148.6 L 43.9 143.2 L 44.0 137.3 L 44.0 104.1 Z M 70.0 84.5 L 90.0 84.5 L 91.2 84.4 L 92.1 84.3 L 92.7 84.1 L 93.0 83.9 L 93.2 83.7 L 93.4 83.6 L 93.5 83.2 L 93.7 82.6 L 93.9 81.7 L 94.0 80.5 L 94.0 11.0 L 106.0 13.0 L 109.0 15.0 L 106.0 16.8 L 106.0 18.593333339691164 L 108.8 26.9 L 112.6 34.8 L 117.2 42.0 L 122.31412353515626 47.93603620529175 L 124.9 46.6 L 130.7 43.8 L 136.2 41.2 L 141.3 38.8 L 146.2 36.5 L 150.7 34.3 L 154.9 32.1 L 158.8 30.1 L 162.4 28.2 L 164.62269506454467 26.837703037261964 L 164.6 26.8 L 164.63354892730712 26.831050682067872 L 165.5 26.3 L 166.69850206375122 28.7422306060791 L 174.0 35.5 L 174.1 38.8 L 170.3590781211853 37.26683530807495 L 167.1 38.5 L 163.1 39.9 L 158.8 41.4 L 154.2 42.9 L 149.2 44.4 L 144.0 45.9 L 138.4 47.4 L 132.4 48.9 L 126.1 50.2 L 124.93508958816528 50.408640670776364 L 129.4 54.4 L 137.1 59.7 L 145.9 64.4 L 155.8 68.6 L 166.9 72.2 L 179.2 75.1 L 188.0 77.2 L 176.2 88.0 L 163.2 84.1 L 151.4 79.5 L 140.8 74.2 L 131.4 68.2 L 123.3 61.5 L 116.6 54.0 L 111.2 45.9 L 107.2 37.2 L 106.0 32.6 L 106.0 80.5 L 105.8 83.1 L 105.4 85.5 L 104.6 88.0 L 103.3 90.2 L 101.7 92.2 L 99.7 93.9 L 97.4 95.1 L 95.0 95.9 L 92.5 96.4 L 90.0 96.5 L 90.0 90.5 L 70.0 87.5 Z M 85.0 39.9 L 80.0 42.9 L 78.09515419006348 43.69368572235108 L 77.1 46.2 L 73.6 52.5 L 69.2 58.3 L 64.0 63.6 L 58.0 68.4 L 51.2 72.7 L 43.7 76.5 L 35.5 79.9 L 26.5 82.6 L 16.7 84.8 L 16.2 83.0 L 25.2 79.0 L 33.3 74.9 L 40.6 70.7 L 47.1 66.4 L 52.7 61.8 L 57.4 57.0 L 61.3 52.1 L 64.3 47.0 L 66.7 41.8 L 67.21818180084229 39.9 L 21.2 39.9 L 21.2 35.9 L 68.0 35.9 L 74.0 30.9 Z " />
</g>
</svg>
