<svg xmlns="http://www.w3.org/2000/svg" xmlns:xlink="http://www.w3.org/1999/xlink" version="1.1" baseProfile="full" viewBox="0 0 200 200" width="200" height="200">
<g fill="black">
<path d="M 86.3 77.7 L 170.61818180084228 77.7 L 178.8 68.7 L 188.8 77.7 L 188.8 81.7 L 86.3 81.7 L 86.3 121.9 L 85.9 131.5 L 85.1 140.4 L 83.9 148.7 L 82.4 156.4 L 80.6 163.4 L 78.4 169.8 L 75.8 175.6 L 72.8 180.6 L 69.3 184.9 L 65.5 188.2 L 64.2 187.0 L 66.2 182.7 L 68.0 178.1 L 69.7 173.1 L 71.1 167.6 L 72.3 161.5 L 73.3 154.8 L 73.9 147.5 L 74.4 139.6 L 74.5 131.1 L 74.3 121.9 L 74.3 71.7 Z M 179.3 100.2 L 179.3 104.2 L 143.5 104.2 L 143.5 134.3 L 166.3 134.3 L 176.3 124.3 L 188.3 134.3 L 188.3 138.3 L 143.5 138.3 L 143.5 181.9 L 131.5 187.9 L 131.5 138.3 L 86.8 138.3 L 86.8 134.3 L 131.5 134.3 L 131.5 104.2 L 95.7 104.2 L 95.7 100.2 L 157.3 100.2 L 167.3 90.2 Z M 36.5 186.9 L 32.4 184.8 L 30.9 180.5 L 31.5 173.5 L 31.6 167.0 L 31.1 161.2 L 30.2 156.0 L 28.8 151.3 L 27.62821054458618 148.6309239387512 L 27.1 148.5 L 27.322626399993897 147.93487138748168 L 27.0 147.2 L 24.7 143.5 L 21.8 140.1 L 18.3 137.0 L 14.1 134.1 L 14.7 132.4 L 20.1 133.6 L 25.0 135.8 L 29.4 138.9 L 30.56471757888794 140.09458208084106 L 32.6 135.6 L 35.6 129.2 L 39.2 121.6 L 43.3 112.8 L 48.1 102.9 L 53.5 91.9 L 59.7 79.8 L 66.6 66.6 L 68.3 67.3 L 63.2 81.3 L 58.4 94.1 L 54.1 105.5 L 50.3 115.8 L 47.0 124.8 L 44.2 132.7 L 42.0 139.3 L 40.3 144.6 L 39.2 148.7 L 38.8 151.4 L 38.17597255706787 151.24532651901245 L 39.1 153.2 L 41.0 159.4 L 42.3 166.1 L 42.9 173.5 L 42.9 181.4 L 40.8 185.4 Z M 31.3 83.3 L 30.1 81.3 L 28.5 79.3 L 26.7 77.2 L 24.5 75.2 L 22.0 73.1 L 19.2 71.0 L 16.1 68.9 L 12.6 67.1 L 13.2 65.4 L 17.1 66.4 L 21.0 67.2 L 24.6 68.3 L 27.9 69.5 L 31.1 71.0 L 34.1 72.7 L 36.8 74.5 L 39.3 76.6 L 41.6 78.9 L 43.6 81.5 L 44.0 86.0 L 41.1 89.6 L 36.6 90.0 L 33.0 87.1 L 32.3 85.2 Z M 90.1 63.1 L 78.1 69.1 L 78.1 24.7 L 90.1 26.7 L 93.1 28.7 L 90.1 30.5 L 90.1 56.1 L 122.2 56.1 L 122.2 12.6 L 134.2 14.6 L 137.2 16.6 L 134.2 18.4 L 134.2 56.1 L 166.4 56.1 L 166.4 24.7 L 178.4 26.7 L 181.4 28.7 L 178.4 30.5 L 178.4 62.1 L 166.4 68.1 L 166.4 60.1 L 90.1 60.1 Z M 44.6 37.4 L 43.3 35.3 L 41.7 33.3 L 39.9 31.2 L 37.8 29.2 L 35.5 27.1 L 32.9 25.0 L 30.1 22.9 L 26.8 21.1 L 27.5 19.5 L 31.1 20.5 L 34.7 21.3 L 38.2 22.3 L 41.4 23.6 L 44.4 25.1 L 47.3 26.7 L 50.0 28.6 L 52.5 30.6 L 54.8 32.9 L 56.8 35.3 L 57.4 39.9 L 54.7 43.5 L 50.2 44.1 L 46.5 41.4 L 45.7 39.4 Z " />
</g>
</svg>
