<svg xmlns="http://www.w3.org/2000/svg" xmlns:xlink="http://www.w3.org/1999/xlink" version="1.1" baseProfile="full" viewBox="0 0 200 200" width="200" height="200">
<g fill="black">
<path d="M 54.8 104.4 L 53.8 102.2 L 52.6 100.0 L 49.8 95.6 L 48.2 93.4 L 46.6 91.4235294342041 L 46.6 183.0 L 34.6 189.0 L 34.6 101.7241379737854 L 32.4 108.4 L 29.2 117.0 L 25.7 125.3 L 21.8 133.3 L 17.6 141.0 L 13.0 148.4 L 11.4 147.5 L 14.2 139.4 L 16.9 131.3 L 19.5 123.0 L 22.0 114.6 L 24.3 106.0 L 26.3 97.2 L 28.2 88.2 L 29.9 79.0 L 31.3 69.7 L 32.07011489868164 63.0 L 12.2 63.0 L 12.2 59.0 L 34.6 59.0 L 34.6 14.0 L 46.6 16.0 L 49.6 18.0 L 46.6 19.8 L 46.6 59.0 L 48.71818180084229 59.0 L 56.9 50.0 L 66.9 59.0 L 66.9 63.0 L 46.6 63.0 L 46.6 87.20689659118652 L 48.9 88.0 L 51.6 89.4 L 54.2 90.9 L 56.6 92.6 L 59.0 94.4 L 61.2 96.5 L 63.4 98.7 L 65.4 101.0 L 67.2 103.5 L 67.6 108.1 L 64.7 111.6 L 60.1 112.0 L 56.6 109.1 L 55.8 106.7 Z M 86.5 58.4 L 111.9 58.4 L 117.4 53.4 L 127.9 62.4 L 122.9 65.9 L 122.9 96.1 L 111.9 101.6 L 111.9 96.1 L 86.5 96.1 L 86.5 183.0 L 74.5 189.0 L 74.5 52.4 Z M 155.5 176.8 L 168.7 176.8 L 169.6 176.6 L 170.2 176.4 L 170.5 176.2 L 170.7 176.1 L 170.9 175.9 L 171.2 175.0 L 171.4 174.1 L 171.5 172.8 L 171.5 96.1 L 146.1 96.1 L 135.9 101.2 L 137.3 102.2 L 134.5 103.95 L 134.5 110.2 L 150.2777777671814 110.2 L 156.5 103.2 L 164.5 110.2 L 164.5 114.2 L 134.5 114.2 L 134.5 121.7 L 147.2 121.7 L 152.7 116.7 L 163.2 125.7 L 158.2 129.2 L 158.2 150.6 L 147.2 156.1 L 147.2 150.6 L 134.5 150.6 L 134.5 152.6666666984558 L 134.6 152.7 L 137.6 153.5 L 140.6 154.4 L 143.5 155.5 L 148.9 158.1 L 151.5 159.6 L 153.9 161.2 L 156.3 163.0 L 158.6 164.8 L 160.0 169.1 L 158.1 173.3 L 153.7 174.7 L 149.6 172.7 L 148.3 170.8 L 146.9 168.8 L 145.4 166.8 L 143.7 164.9 L 141.9 162.9 L 140.0 161.0 L 137.9 159.0 L 135.7 157.0 L 134.5 155.95652170181273 L 134.5 181.2 L 123.5 186.7 L 123.5 163.00588235855102 L 122.7 163.9 L 119.0 167.5 L 115.1 170.7 L 111.1 173.7 L 106.9 176.3 L 102.4 178.5 L 97.8 180.4 L 93.0 181.8 L 92.2 180.2 L 96.0 177.2 L 99.6 174.1 L 103.1 171.1 L 106.4 167.9 L 109.4 164.6 L 112.3 161.1 L 115.0 157.5 L 117.6 153.7 L 119.38249998092651 150.6 L 110.9 150.6 L 110.9 153.6 L 98.9 159.6 L 98.9 115.7 L 110.9 121.7 L 123.5 121.7 L 123.5 114.2 L 95.1 114.2 L 95.1 110.2 L 123.5 110.2 L 123.5 98.2 L 134.5 100.2 L 135.1 100.62857141494752 L 135.1 52.9 L 146.1 58.4 L 171.5 58.4 L 177.5 53.4 L 188.5 62.4 L 183.5 66.4 L 183.5 172.8 L 183.3 175.4 L 182.9 177.9 L 182.1 180.3 L 180.8 182.5 L 179.2 184.6 L 177.2 186.2 L 174.9 187.4 L 172.5 188.2 L 170.0 188.7 L 167.5 188.8 L 167.5 182.8 L 155.5 179.8 Z M 114.9 140.3 L 114.6 139.1 L 114.2 137.8 L 113.7 136.4 L 112.3 133.4 L 111.5 131.7 L 110.9 131.14615383148194 L 110.9 146.6 L 123.5 146.6 L 123.5 145.84666662216188 L 123.1 146.3 L 118.5 146.5 L 115.1 143.5 L 115.1 141.5 Z M 146.3 136.9 L 143.1 139.7 L 139.7 142.3 L 137.8 143.6 L 135.9 144.7 L 134.5 146.0125 L 134.5 146.6 L 147.2 146.6 L 147.2 136.06000003814697 Z M 134.5 125.7 L 134.5 142.5125 L 135.0 141.2 L 135.8 139.3 L 136.6 137.3 L 137.3 135.5 L 138.0 133.6 L 139.2 130.0 L 139.93294115066527 127.5079999923706 L 139.7 127.4 L 140.6444444656372 125.7 Z M 110.9 125.7 L 110.9 129.60909090042114 L 111.3 129.1 L 112.8 130.2 L 114.6 130.8 L 116.3 131.6 L 117.9 132.3 L 120.9 134.1 L 122.3 135.0 L 123.5 135.92307691574098 L 123.5 125.7 Z M 140.84492750167846 125.7 L 147.2 130.08500003814697 L 147.2 125.7 Z M 146.1 78.8 L 146.1 92.1 L 171.5 92.1 L 171.5 78.8 Z M 86.5 78.8 L 86.5 92.1 L 111.9 92.1 L 111.9 78.8 Z M 146.1 62.4 L 146.1 74.8 L 171.5 74.8 L 171.5 62.4 Z M 86.5 62.4 L 86.5 74.8 L 111.9 74.8 L 111.9 62.4 Z M 103.2 45.6 L 102.6 44.0 L 101.8 42.3 L 100.7 40.5 L 99.5 38.7 L 98.0 36.9 L 96.3 34.9 L 94.4 32.9 L 93.05 32.0 L 90.79523811340331 32.0 L 89.0 34.9 L 86.1 39.0 L 82.9 42.8 L 79.3 46.4 L 75.5 49.8 L 71.4 52.9 L 66.9 55.8 L 65.8 54.4 L 68.9 50.3 L 71.8 46.3 L 74.4 42.3 L 76.9 38.4 L 79.1 34.4 L 81.0 30.4 L 82.7 26.4 L 84.1 22.3 L 85.3 18.2 L 85.98244800567628 15.01524248123169 L 85.9 15.0 L 86.6 12.4 L 97.8 17.2 L 100.2 19.9 L 96.34402732849121 21.001706504821776 L 96.0 21.9 L 94.0 26.4 L 93.1069766998291 28.0 L 114.01818180084229 28.0 L 122.2 19.0 L 132.2 28.0 L 132.2 32.0 L 98.81999998092651 32.0 L 100.9 32.8 L 103.4 33.9 L 105.7 35.2 L 107.8 36.6 L 109.8 38.1 L 111.6 39.8 L 113.3 41.7 L 114.8 43.7 L 114.8 48.3 L 111.6 51.6 L 107.1 51.6 L 103.8 48.5 L 103.6 47.1 Z M 158.5 45.6 L 157.9 44.0 L 157.1 42.3 L 156.0 40.5 L 154.8 38.7 L 153.3 36.9 L 151.6 34.9 L 149.7 32.9 L 148.35 32.0 L 145.69499998092653 32.0 L 144.2 34.3 L 141.2 38.0 L 138.0 41.6 L 134.5 44.8 L 130.7 47.9 L 126.6 50.5 L 122.2 53.0 L 121.1 51.5 L 124.3 47.9 L 127.2 44.2 L 129.9 40.6 L 132.3 37.0 L 134.5 33.3 L 136.4 29.6 L 138.0 25.8 L 139.4 22.0 L 140.6 18.0 L 141.27200479507445 15.013311862945557 L 141.2 15.0 L 141.47906980514526 14.093023300170898 L 141.5 14.0 L 141.50709047317505 14.00195598602295 L 142.0 12.4 L 153.1 17.2 L 155.4 19.9 L 151.62097902297972 20.979720306396484 L 151.3 21.8 L 149.2 26.1 L 148.11428575515748 28.0 L 170.01818180084229 28.0 L 178.2 19.0 L 188.2 28.0 L 188.2 32.0 L 154.1199999809265 32.0 L 156.2 32.8 L 158.7 33.9 L 161.0 35.2 L 163.1 36.6 L 165.1 38.1 L 166.9 39.8 L 168.6 41.7 L 170.1 43.7 L 170.1 48.3 L 166.9 51.6 L 162.4 51.6 L 159.1 48.5 L 158.9 47.1 Z " />
</g>
</svg>
