<svg xmlns="http://www.w3.org/2000/svg" xmlns:xlink="http://www.w3.org/1999/xlink" version="1.1" baseProfile="full" viewBox="0 0 200 200" width="200" height="200">
<g fill="black">
<path d="M 163.5 176.8 L 157.6 170.5 L 155.9653558731079 168.29951753616334 L 153.9 171.1 L 147.4 177.7 L 140.4 182.9 L 132.8 186.5 L 124.9 188.6 L 124.4 186.8 L 131.1 183.1 L 137.2 178.5 L 142.8 173.0 L 147.9 166.5 L 151.0442307472229 161.11987180709838 L 147.9 155.6 L 144.1 146.9 L 140.9 137.4 L 138.4 127.1 L 136.7 116.0 L 135.96050424575805 105.0 L 128.9 105.0 L 123.9 108.0 L 122.71112699508667 108.49536380767822 L 120.4 117.4 L 116.5 129.6 L 112.1 140.7 L 107.3 150.8 L 105.65 153.55 L 107.4 156.0 L 112.0 161.3 L 116.8 165.6 L 121.7 169.0 L 126.8 171.6 L 132.4 174.3 L 121.1 183.4 L 114.7 179.4 L 108.9 174.4 L 103.7 168.5 L 99.69952621459962 162.7971969604492 L 96.1 167.7 L 89.8 174.5 L 83.0 180.2 L 75.7 184.5 L 68.0 187.5 L 67.3 185.8 L 73.7 181.3 L 79.5 176.0 L 85.0 170.0 L 90.0 163.2 L 94.7 155.4 L 95.0314814567566 154.71335983276367 L 94.8 154.3 L 91.1 145.9 L 87.9 136.8 L 85.2 126.8 L 83.1 115.9 L 81.79572649002075 105.0 L 72.4 105.0 L 72.4 101.0 L 111.9 101.0 L 117.9 96.0 L 128.6 104.75454549789428 L 128.6 101.0 L 168.2 101.0 L 174.2 96.0 L 185.2 105.0 L 180.2 108.0 L 179.18951358795167 108.42103605270385 L 177.2 118.3 L 173.7 131.3 L 169.7 143.2 L 165.0 153.8 L 162.08242979049683 159.01796207427978 L 165.8 163.1 L 171.2 167.8 L 176.9 171.6 L 183.0 174.6 L 188.8 177.3 L 177.4 186.5 L 170.1 182.1 Z M 43.4 186.3 L 39.4 184.2 L 38.0 179.8 L 38.6 173.1 L 38.6 166.9 L 38.0 161.4 L 36.8 156.4 L 35.1 151.9 L 32.8 147.9 L 29.8 144.2 L 26.1 140.8 L 21.7 137.6 L 16.3 134.8 L 16.8 133.0 L 23.1 134.1 L 28.9 136.2 L 34.1 139.1 L 36.84781656265259 141.48144102096558 L 37.1 141.0 L 39.9 135.8 L 43.4 129.6 L 47.6 122.2 L 52.5 113.7 L 58.2 104.1 L 64.6 93.4 L 71.9 81.6 L 80.0 68.8 L 81.6 69.7 L 75.2 83.5 L 69.3 95.9 L 64.0 107.2 L 59.2 117.2 L 55.1 126.1 L 51.7 133.7 L 48.9 140.2 L 46.9 145.4 L 45.5 149.4 L 44.90743360519409 151.96778764724732 L 45.5 153.0 L 47.8 159.1 L 49.3 165.8 L 50.0 173.1 L 49.9 180.9 L 47.8 184.9 Z M 138.00176992416382 105.0 L 140.8 115.2 L 144.1 125.6 L 147.7 135.0 L 151.7 143.5 L 156.0 151.0 L 156.04895124435424 151.06769857406616 L 156.6 149.9 L 160.2 139.8 L 163.4 128.5 L 166.1 115.9 L 167.83768119812012 105.0 Z M 83.9 105.0 L 87.2 114.9 L 90.9 125.0 L 94.7 134.2 L 98.7 142.4 L 99.8354139328003 144.37345762252806 L 102.8 137.0 L 106.3 126.3 L 109.4 114.5 L 111.34488191604615 105.0 Z M 38.4 85.8 L 36.7 83.8 L 34.7 81.7 L 32.3 79.7 L 29.5 77.6 L 26.3 75.5 L 22.7 73.5 L 18.9 71.3 L 14.5 69.4 L 15.0 67.7 L 19.8 68.5 L 24.3 69.3 L 28.5 70.3 L 32.5 71.5 L 36.2 72.9 L 39.6 74.5 L 42.8 76.2 L 45.7 78.2 L 48.3 80.5 L 50.6 83.0 L 51.5 87.5 L 49.0 91.3 L 44.5 92.1 L 40.6 89.6 L 39.7 87.7 Z M 152.7 83.5 L 143.7 79.0 L 135.3 73.6 L 129.428724193573 68.65576772689819 L 120.8 74.6 L 111.0 79.8 L 100.5 84.1 L 89.2 87.3 L 77.2 89.4 L 76.8 87.6 L 88.1 83.7 L 98.4 79.1 L 107.9 74.0 L 116.5 68.3 L 123.42884731292725 62.61479196548462 L 120.9 59.9 L 114.8 51.8 L 109.6 42.8 L 105.2 32.9 L 102.26666669845581 23.3 L 86.5 23.3 L 86.5 19.3 L 150.8 19.3 L 156.8 14.3 L 167.8 23.3 L 162.8 26.3 L 160.72727270126342 27.16363639831543 L 157.6 34.2 L 151.9 44.1 L 145.4 53.1 L 138.0 61.2 L 136.84472208023072 62.21439037322998 L 141.0 65.1 L 148.7 69.2 L 156.9 72.5 L 165.7 74.9 L 174.9 76.6 L 184.7 78.1 L 172.8 89.6 L 162.4 87.0 Z M 104.53125 23.3 L 109.0 31.1 L 114.6 39.7 L 120.6 47.5 L 127.0 54.3 L 129.56212911605834 56.485345458984376 L 131.2 54.8 L 137.4 47.0 L 142.7 38.5 L 147.3 29.3 L 149.58000001907348 23.3 Z M 54.4 41.0 L 52.7 38.9 L 50.6 36.9 L 48.3 34.8 L 45.6 32.7 L 42.6 30.7 L 39.3 28.6 L 35.7 26.4 L 31.7 24.6 L 32.2 22.9 L 36.6 23.7 L 40.9 24.5 L 44.9 25.5 L 48.7 26.7 L 52.3 28.1 L 55.6 29.7 L 58.7 31.4 L 61.6 33.4 L 64.3 35.6 L 66.7 38.0 L 67.7 42.4 L 65.4 46.3 L 60.9 47.4 L 57.0 45.0 L 55.8 43.0 Z " />
</g>
</svg>
