<svg xmlns="http://www.w3.org/2000/svg" xmlns:xlink="http://www.w3.org/1999/xlink" version="1.1" baseProfile="full" viewBox="0 0 200 200" width="200" height="200">
<g fill="black">
<path d="M 134.3 176.0 L 154.3 176.0 L 155.6 175.9 L 156.5 175.7 L 157.4 175.4 L 157.8 175.0 L 158.1 174.1 L 158.3 173.2 L 158.3 69.0 L 116.4 69.0 L 116.4 65.0 L 158.3 65.0 L 158.3 13.0 L 170.3 15.0 L 173.3 17.0 L 170.3 18.8 L 170.3 65.0 L 173.6777777671814 65.0 L 179.9 58.0 L 187.9 65.0 L 187.9 69.0 L 170.3 69.0 L 170.3 172.0 L 170.2 174.5 L 169.8 177.0 L 169.0 179.4 L 167.7 181.7 L 166.1 183.7 L 164.1 185.3 L 161.8 186.6 L 159.4 187.4 L 156.9 187.8 L 154.3 188.0 L 154.3 182.0 L 134.3 179.0 Z M 33.6 186.9 L 29.5 184.9 L 28.0 180.6 L 28.5 173.5 L 28.6 167.0 L 28.2 161.1 L 27.4 155.9 L 26.2 151.2 L 25.25319585800171 148.77381439208983 L 24.5 148.6 L 24.830588245391844 147.690882396698 L 24.6 147.1 L 22.5 143.4 L 20.0 140.0 L 16.9 137.0 L 13.2 134.1 L 13.8 132.5 L 18.8 133.7 L 23.4 135.9 L 27.5 139.1 L 27.995246791839598 139.66599636077882 L 29.6 135.8 L 32.3 129.3 L 35.6 121.7 L 39.5 112.9 L 43.9 103.0 L 48.9 92.0 L 54.6 79.9 L 61.0 66.6 L 62.7 67.3 L 58.1 81.3 L 53.9 94.0 L 50.0 105.4 L 46.5 115.7 L 43.6 124.7 L 41.1 132.5 L 39.1 139.1 L 37.6 144.5 L 36.6 148.6 L 36.2 151.3 L 35.43238096237182 151.12285718917846 L 36.4 153.3 L 38.1 159.4 L 39.3 166.2 L 39.9 173.5 L 40.0 181.3 L 37.9 185.4 Z M 78.1 36.0 L 99.7 36.0 L 105.7 31.0 L 116.7 40.0 L 111.7 44.0 L 111.7 158.0 L 99.7 164.0 L 99.7 152.0 L 78.1 152.0 L 78.1 164.0 L 66.1 170.0 L 66.1 30.0 Z M 78.1 96.0 L 78.1 148.0 L 99.7 148.0 L 99.7 96.0 Z M 135.4 119.7 L 134.2 115.8 L 132.8 112.0 L 131.2 108.3 L 129.3 104.5 L 127.2 100.8 L 124.8 97.0 L 122.3 93.1 L 119.4 89.3 L 120.6 88.0 L 124.7 90.7 L 128.5 93.7 L 132.0 96.9 L 135.2 100.4 L 138.2 104.0 L 140.8 107.8 L 143.2 111.8 L 145.4 115.9 L 147.2 120.2 L 148.8 124.6 L 148.0 129.1 L 144.3 131.9 L 139.8 131.1 L 137.1 127.4 L 136.4 123.5 Z M 78.1 40.0 L 78.1 92.0 L 99.7 92.0 L 99.7 40.0 Z M 28.4 83.1 L 27.3 81.1 L 26.0 79.1 L 24.3 77.1 L 22.4 75.1 L 20.2 73.0 L 17.7 71.0 L 15.0 68.9 L 11.8 67.1 L 12.4 65.5 L 16.0 66.5 L 19.6 67.3 L 22.9 68.4 L 26.0 69.7 L 29.0 71.1 L 31.7 72.8 L 34.3 74.7 L 36.6 76.8 L 38.7 79.1 L 40.6 81.6 L 40.8 86.2 L 37.8 89.6 L 33.3 89.9 L 29.8 86.9 L 29.2 85.0 Z M 40.5 37.1 L 39.4 35.1 L 38.0 33.1 L 36.4 31.1 L 34.6 29.0 L 32.5 27.0 L 30.2 25.0 L 27.7 22.9 L 24.8 21.2 L 25.5 19.5 L 28.8 20.5 L 32.1 21.4 L 35.3 22.4 L 38.3 23.7 L 41.2 25.2 L 43.8 26.9 L 46.3 28.7 L 48.6 30.8 L 50.8 33.0 L 52.7 35.5 L 53.1 40.0 L 50.3 43.6 L 45.7 44.0 L 42.1 41.2 L 41.4 39.1 Z " />
</g>
</svg>
