<svg xmlns="http://www.w3.org/2000/svg" xmlns:xlink="http://www.w3.org/1999/xlink" version="1.1" baseProfile="full" viewBox="0 0 200 200" width="200" height="200">
<g fill="black">
<path d="M 106.2 185.9 L 103.7 185.5 L 101.3 184.7 L 99.1 183.5 L 97.0 181.8 L 95.4 179.8 L 94.2 177.5 L 93.4 175.1 L 92.9 172.6 L 92.8 170.1 L 92.8 146.7 L 104.8 148.7 L 107.8 150.7 L 104.8 152.5 L 104.8 170.1 L 104.9 171.3 L 105.0 172.2 L 105.2 172.8 L 105.4 173.2 L 105.7 173.5 L 106.1 173.7 L 106.6 173.9 L 107.6 174.0 L 108.8 174.1 L 152.7 174.1 L 158.7 149.1 L 160.18125 149.1 L 160.8 148.0 L 164.3 149.6 L 167.8 151.1 L 171.1 152.8 L 174.1 154.6 L 176.9 156.7 L 179.4 158.9 L 181.7 161.3 L 183.8 163.9 L 185.6 166.7 L 187.2 169.7 L 186.8 174.2 L 183.3 177.2 L 178.8 176.8 L 175.8 173.4 L 175.4 171.2 L 174.7 168.9 L 173.8 166.6 L 172.7 164.3 L 171.3 161.9 L 169.6 159.5 L 167.6 157.0 L 165.4 154.5 L 162.9 151.9 L 160.61608037948608 150.14899501800537 L 158.7 174.1 L 162.3 176.5 L 164.7 180.1 L 162.3 183.7 L 158.7 186.1 L 108.8 186.1 Z M 60.7 179.0 L 60.2 174.5 L 63.0 170.8 L 64.8 170.1 L 66.6 169.1 L 68.2 167.9 L 69.8 166.2 L 71.3 164.2 L 72.7 161.8 L 74.0 159.0 L 75.1 155.7 L 76.1 152.1 L 76.5 148.0 L 78.3 148.0 L 78.7 152.2 L 79.2 156.2 L 79.3 160.0 L 79.0 163.6 L 78.4 167.1 L 77.3 170.4 L 75.8 173.5 L 73.9 176.4 L 71.6 179.0 L 68.8 181.3 L 64.3 181.8 Z M 33.6 186.9 L 29.5 184.9 L 28.0 180.6 L 28.5 173.5 L 28.6 167.0 L 28.2 161.1 L 27.4 155.9 L 26.2 151.2 L 25.25319585800171 148.77381439208983 L 24.5 148.6 L 24.830588245391844 147.690882396698 L 24.6 147.1 L 22.5 143.4 L 20.0 140.0 L 16.9 137.0 L 13.2 134.1 L 13.8 132.5 L 18.8 133.7 L 23.4 135.9 L 27.5 139.1 L 27.995246791839598 139.66599636077882 L 29.6 135.8 L 32.3 129.3 L 35.6 121.7 L 39.5 112.9 L 43.9 103.0 L 48.9 92.0 L 54.6 79.9 L 61.0 66.6 L 62.7 67.3 L 58.1 81.3 L 53.9 94.0 L 50.0 105.4 L 46.5 115.7 L 43.6 124.7 L 41.1 132.5 L 39.1 139.1 L 37.6 144.5 L 36.6 148.6 L 36.2 151.3 L 35.43238096237182 151.12285718917846 L 36.4 153.3 L 38.1 159.4 L 39.3 166.2 L 39.9 173.5 L 40.0 181.3 L 37.9 185.4 Z M 128.8 159.8 L 127.7 157.9 L 126.4 156.0 L 125.0 154.2 L 123.4 152.3 L 119.6 148.5 L 117.4 146.6 L 114.9 145.1 L 115.6 143.4 L 118.5 144.4 L 121.5 145.1 L 124.3 146.0 L 127.0 147.1 L 129.6 148.3 L 132.1 149.8 L 134.4 151.4 L 136.7 153.1 L 138.8 155.1 L 140.7 157.2 L 141.5 161.7 L 138.9 165.4 L 134.4 166.2 L 130.6 163.6 L 129.8 161.7 Z M 168.6 142.2 L 166.7 139.7 L 164.5 137.2 L 162.49407110214233 135.11383399963378 L 153.8 136.6 L 142.5 138.2 L 131.7 139.5 L 121.3 140.7 L 111.3 141.8 L 101.8 142.7 L 92.7 143.5 L 84.1 144.2 L 75.9 144.8 L 72.23393173217774 145.03500442504884 L 70.2 148.3 L 68.1 145.3 L 65.8 133.4 L 67.8 133.3 L 75.5 133.4 L 83.7 133.5 L 92.3 133.5 L 101.3 133.4 L 110.8 133.3 L 118.0 133.22799997329713 L 118.0 117.4 L 89.3 117.4 L 89.3 120.4 L 77.3 126.4 L 77.3 70.6 L 89.3 76.6 L 118.0 76.6 L 118.0 66.2 L 61.8 66.2 L 61.8 62.2 L 118.0 62.2 L 118.0 46.4 L 130.0 48.4 L 133.0 50.4 L 130.0 52.2 L 130.0 62.2 L 167.9181818008423 62.2 L 176.1 53.2 L 186.1 62.2 L 186.1 66.2 L 130.0 66.2 L 130.0 76.6 L 158.7 76.6 L 164.7 71.6 L 175.7 80.6 L 170.7 84.6 L 170.7 117.4 L 158.7 123.4 L 158.7 117.4 L 130.0 117.4 L 130.0 133.02307691574097 L 131.2 133.0 L 142.1 132.8 L 153.5 132.8 L 159.90513696670533 132.8542808532715 L 159.0 132.1 L 155.7 129.4 L 152.1 126.8 L 148.1 124.0 L 143.8 121.4 L 144.5 119.7 L 149.5 121.1 L 154.2 122.6 L 158.7 124.3 L 162.8 126.1 L 166.7 128.2 L 170.2 130.3 L 173.5 132.7 L 176.5 135.2 L 179.2 138.0 L 181.6 140.9 L 182.2 145.4 L 179.5 149.1 L 175.0 149.7 L 171.3 147.1 L 170.1 144.7 Z M 89.3 99.0 L 89.3 113.4 L 118.0 113.4 L 118.0 99.0 Z M 130.0 99.0 L 130.0 113.4 L 158.7 113.4 L 158.7 99.0 Z M 89.3 80.6 L 89.3 95.0 L 118.0 95.0 L 118.0 80.6 Z M 130.0 80.6 L 130.0 95.0 L 158.7 95.0 L 158.7 80.6 Z M 28.4 83.1 L 27.3 81.1 L 26.0 79.1 L 24.3 77.1 L 22.4 75.1 L 20.2 73.0 L 17.7 71.0 L 15.0 68.9 L 11.8 67.1 L 12.4 65.5 L 16.0 66.5 L 19.6 67.3 L 22.9 68.4 L 26.0 69.7 L 29.0 71.1 L 31.7 72.8 L 34.3 74.7 L 36.6 76.8 L 38.7 79.1 L 40.6 81.6 L 40.8 86.2 L 37.8 89.6 L 33.3 89.9 L 29.8 86.9 L 29.2 85.0 Z M 150.7 14.7 L 153.7 16.7 L 150.7 18.5 L 150.7 29.3 L 166.3 29.3 L 176.3 19.3 L 188.3 29.3 L 188.3 33.3 L 150.7 33.3 L 150.7 45.2 L 138.7 51.2 L 138.7 33.3 L 109.2 33.3 L 109.2 45.2 L 97.2 51.2 L 97.2 33.3 L 59.6 33.3 L 59.6 29.3 L 97.2 29.3 L 97.2 12.7 L 109.2 14.7 L 112.2 16.7 L 109.2 18.5 L 109.2 29.3 L 138.7 29.3 L 138.7 12.7 Z M 40.5 37.1 L 39.4 35.1 L 38.0 33.1 L 36.4 31.1 L 34.6 29.0 L 32.5 27.0 L 30.2 25.0 L 27.7 22.9 L 24.8 21.2 L 25.5 19.5 L 28.8 20.5 L 32.1 21.4 L 35.3 22.4 L 38.3 23.7 L 41.2 25.2 L 43.8 26.9 L 46.3 28.7 L 48.6 30.8 L 50.8 33.0 L 52.7 35.5 L 53.1 40.0 L 50.3 43.6 L 45.7 44.0 L 42.1 41.2 L 41.4 39.1 Z " />
</g>
</svg>
