<svg xmlns="http://www.w3.org/2000/svg" xmlns:xlink="http://www.w3.org/1999/xlink" version="1.1" baseProfile="full" viewBox="0 0 200 200" width="200" height="200">
<g fill="black">
<path d="M 13.7 126.0 L 19.4 124.0 L 25.3 121.8 L 31.4 119.6 L 37.7 117.3 L 44.2 114.9 L 45.5 114.46029415130616 L 45.5 66.0 L 29.5 66.0 L 28.3 70.2 L 26.0 77.6 L 23.3 84.7 L 20.4 91.6 L 17.1 98.1 L 13.5 104.3 L 11.9 103.6 L 13.6 96.7 L 15.4 89.8 L 17.1 82.8 L 18.6 75.6 L 20.1 68.2 L 21.4 60.6 L 22.5 52.9 L 23.4 44.9 L 24.2 36.8 L 24.728554439544677 29.400237941741942 L 24.7 29.4 L 25.0 26.2 L 36.7 29.5 L 39.5 31.8 L 36.159182739257815 33.37585716247558 L 35.5 38.1 L 34.0 46.5 L 32.4 54.6 L 30.62025318145752 62.0 L 45.5 62.0 L 45.5 13.0 L 57.5 15.0 L 60.5 17.0 L 57.5 18.8 L 57.5 62.0 L 60.8 62.0 L 70.8 52.0 L 82.8 62.0 L 82.8 66.0 L 57.5 66.0 L 57.5 110.31126756668091 L 58.1 110.1 L 65.4 107.7 L 72.9 105.4 L 80.8 103.1 L 81.5 104.8 L 74.4 108.9 L 67.4 112.6 L 60.6 116.2 L 57.5 117.75 L 57.5 183.0 L 45.5 189.0 L 45.5 123.8 L 41.3 125.8 L 29.5 131.7 L 23.8 134.4 L 22.155555534362794 135.2222222328186 L 21.4 139.0 L 18.4 137.1 L 11.9 126.8 Z M 146.9 182.8 L 144.4 182.4 L 142.0 181.6 L 139.7 180.3 L 137.7 178.7 L 136.1 176.7 L 134.9 174.4 L 134.0 172.0 L 133.6 169.5 L 133.5 167.0 L 133.5 152.16590909957887 L 129.4 155.8 L 120.1 163.0 L 110.2 169.7 L 99.6 175.7 L 98.7 174.2 L 107.9 166.6 L 116.7 158.9 L 125.0 150.9 L 132.8 142.7 L 133.5 141.87361106872558 L 133.5 64.0 L 123.30533332824707 64.0 L 123.3 64.1 L 121.0 85.0 L 117.5 104.5 L 112.8 122.4 L 106.9 138.7 L 99.8 153.5 L 91.4 166.6 L 81.8 178.0 L 70.9 187.6 L 69.8 186.3 L 78.9 175.6 L 86.9 163.7 L 93.9 150.5 L 99.8 136.0 L 104.7 120.0 L 108.4 102.6 L 111.1 83.8 L 112.55588235855103 64.0 L 84.8 64.0 L 84.8 60.0 L 112.6776255607605 60.0 L 113.1 41.5 L 112.42993049621582 19.196258640289308 L 112.4 19.2 L 112.3 15.9 L 124.4 17.7 L 127.5 19.6 L 124.41637573242187 21.613795471191406 L 124.5 41.6 L 123.51866664886475 60.0 L 163.6 60.0 L 173.6 50.0 L 185.6 60.0 L 185.6 64.0 L 145.5 64.0 L 145.5 126.89402980804444 L 146.7 125.3 L 152.9 116.1 L 158.5 106.6 L 163.6 96.7 L 167.70589275360106 87.3020676612854 L 167.7 87.3 L 167.78235292434692 87.12705879211425 L 168.1 86.4 L 168.12357139587402 86.41049995422364 L 168.7 85.2 L 179.1 91.3 L 181.0 94.3 L 177.31259622573853 94.80860738754272 L 173.7 101.9 L 167.7 112.0 L 161.2 121.7 L 154.1 130.9 L 146.4 139.7 L 145.5 140.61097564697266 L 145.5 168.2 L 145.7 169.1 L 145.9 169.7 L 146.1 170.0 L 146.2 170.2 L 146.4 170.4 L 147.3 170.7 L 148.2 170.9 L 149.5 171.0 L 176.7 171.0 L 182.7 146.0 L 184.7 146.0 L 182.7 171.0 L 186.3 173.4 L 188.7 177.0 L 186.3 180.6 L 182.7 183.0 L 149.5 183.0 Z M 145.1 39.6 L 143.8 37.0 L 142.4 34.3 L 140.8 31.7 L 139.1 29.1 L 137.3 26.4 L 135.3 23.7 L 133.0 21.3 L 134.1 19.8 L 137.1 21.6 L 140.1 23.3 L 143.0 25.2 L 145.8 27.3 L 148.3 29.5 L 150.8 31.9 L 153.1 34.4 L 155.2 37.0 L 157.2 39.8 L 159.1 42.7 L 159.2 47.3 L 156.1 50.7 L 151.5 50.8 L 148.1 47.7 L 147.3 45.0 Z " />
</g>
</svg>
