<svg xmlns="http://www.w3.org/2000/svg" xmlns:xlink="http://www.w3.org/1999/xlink" version="1.1" baseProfile="full" viewBox="0 0 200 200" width="200" height="200">
<g fill="black">
<path d="M 19.2 185.3 L 19.1 180.8 L 22.2 177.4 L 25.0 176.3 L 27.7 175.0 L 30.1 173.3 L 32.3 171.3 L 34.4 168.9 L 36.3 166.1 L 38.1 162.9 L 39.6 159.2 L 41.1 155.0 L 42.0 150.4 L 43.8 150.5 L 44.0 155.4 L 44.1 160.1 L 43.6 164.5 L 42.7 168.8 L 41.3 172.8 L 39.4 176.5 L 37.1 180.0 L 34.2 183.2 L 30.9 185.9 L 27.2 188.3 L 22.6 188.4 Z M 168.7 177.8 L 167.3 174.9 L 165.6 171.9 L 163.5 168.7 L 161.0 165.5 L 158.1 162.2 L 154.9 158.8 L 151.3 155.2 L 147.3 151.6 L 148.3 150.1 L 153.2 152.5 L 157.8 155.0 L 162.0 157.6 L 165.9 160.4 L 169.4 163.2 L 172.6 166.2 L 175.4 169.3 L 177.9 172.5 L 180.0 175.9 L 181.7 179.4 L 181.3 183.9 L 177.9 186.9 L 173.3 186.6 L 170.3 183.1 L 169.7 180.5 Z M 121.4 175.5 L 120.8 173.0 L 119.9 170.4 L 118.7 167.6 L 117.1 164.8 L 115.2 161.8 L 112.9 158.7 L 110.3 155.5 L 107.2 152.4 L 108.3 151.0 L 112.1 153.3 L 115.8 155.5 L 119.2 157.9 L 122.3 160.4 L 125.0 163.1 L 127.4 165.9 L 129.5 168.9 L 131.2 172.0 L 132.6 175.3 L 133.6 178.8 L 132.3 183.2 L 128.3 185.4 L 123.9 184.1 L 121.6 180.2 L 121.6 177.9 Z M 80.6 185.4 L 76.6 183.2 L 75.3 178.8 L 75.9 176.5 L 76.2 174.3 L 76.3 171.9 L 76.1 169.4 L 75.7 166.9 L 75.0 164.2 L 74.0 161.4 L 72.7 158.4 L 71.2 155.3 L 69.0 152.4 L 70.3 151.2 L 73.2 153.6 L 76.0 155.9 L 78.6 158.4 L 80.8 161.1 L 82.7 163.9 L 84.3 166.9 L 85.6 170.0 L 86.5 173.3 L 87.1 176.7 L 87.3 180.2 L 85.0 184.1 Z M 81.3 137.9 L 85.3 137.1 L 89.6 136.2 L 94.0 135.2638298034668 L 94.0 80.6 L 106.0 82.6 L 109.0 84.6 L 106.0 86.4 L 106.0 102.0 L 117.77777776718139 102.0 L 124.0 95.0 L 132.0 102.0 L 132.0 106.0 L 106.0 106.0 L 106.0 132.6785714149475 L 110.1 131.8 L 115.9 130.6 L 122.2 129.3 L 128.7 128.2 L 135.7 127.1 L 136.2 128.8 L 129.9 131.8 L 123.7 134.5 L 117.8 136.9 L 112.2 139.1 L 106.9 141.2 L 101.8 143.1 L 97.1 144.8 L 92.6 146.5 L 88.54631824493408 147.94774351119995 L 87.3 151.8 L 84.5 149.5 L 79.4 138.4 Z M 182.0 109.8 L 184.0 109.8 L 182.0 134.8 L 185.6 137.2 L 188.0 140.8 L 185.6 144.4 L 182.0 146.8 L 154.0 146.8 L 151.4 146.6 L 148.9 146.2 L 146.5 145.4 L 144.2 144.1 L 142.2 142.5 L 140.6 140.5 L 139.3 138.2 L 138.5 135.8 L 138.1 133.3 L 138.0 130.8 L 138.0 80.6 L 150.0 82.6 L 153.0 84.6 L 150.0 86.4 L 150.0 105.171875 L 150.1 105.1 L 153.3 103.0 L 156.4 100.9 L 159.6 98.9 L 162.6 96.9 L 168.6 93.1 L 171.5 91.3 L 173.53870344161987 89.96429767608643 L 173.5 89.9 L 173.5556279182434 89.95320930480958 L 174.4 89.4 L 175.65864944458008 91.96479511260986 L 182.7 98.7 L 182.9 101.9 L 179.20496082305908 100.38563966751099 L 176.5 101.4 L 173.2 102.5 L 166.4 104.9 L 162.9 106.0 L 155.7 108.2 L 152.0 109.2 L 150.0 109.6615385055542 L 150.0 132.0 L 150.2 132.9 L 150.5 133.8 L 150.9 134.2 L 151.8 134.5 L 152.7 134.7 L 154.0 134.8 L 176.0 134.8 Z M 68.5 123.7 L 67.9 120.4 L 67.52405061721802 118.93797464370728 L 66.4 119.5 L 61.0 122.0 L 55.5 124.3 L 50.0 126.5 L 44.4 128.6 L 38.9 130.6 L 33.3 132.6 L 27.6 134.5 L 22.0 136.4 L 20.2375 136.9875 L 19.0 140.7 L 16.3 138.3 L 11.3 127.2 L 13.2 126.7 L 19.0 125.4 L 22.59694652557373 124.64274806976319 L 24.1 121.5 L 28.4 112.6 L 32.8 104.0 L 37.0 95.6 L 41.1 87.5 L 45.0 79.6 L 48.8 71.9 L 52.4 64.4 L 55.8 57.2 L 59.0 50.1 L 59.05833330154419 50.12916669845581 L 59.6 49.1 L 69.8 55.5 L 71.5 58.7 L 67.84898595809936 58.95179405212402 L 65.9 62.4 L 61.8 69.5 L 57.6 76.7 L 53.1 84.1 L 48.5 91.6 L 43.6 99.4 L 38.4 107.3 L 33.0 115.3 L 27.3 123.4 L 27.106056022644044 123.66071157455444 L 30.5 122.9 L 36.3 121.7 L 42.1 120.4 L 47.9 119.2 L 53.6 118.0 L 59.5 116.9 L 65.3 115.9 L 66.61862468719482 115.72120342254638 L 65.9 113.5 L 64.6 110.0 L 63.1 106.5 L 61.4 103.0 L 59.6 99.3 L 57.4 95.7 L 58.8 94.5 L 65.2 100.3 L 68.1 103.4 L 70.7 106.6 L 73.0 110.0 L 75.1 113.5 L 77.0 117.1 L 78.6 120.8 L 80.0 124.7 L 81.1 128.6 L 80.0 133.0 L 76.2 135.5 L 71.7 134.4 L 69.3 130.5 L 69.0 127.1 Z M 30.4 78.3 L 29.3 75.7 L 27.9 73.0 L 26.2 70.3 L 24.3 67.4 L 22.1 64.4 L 19.7 61.3 L 17.1 58.0 L 14.0 54.9 L 15.1 53.5 L 18.9 55.8 L 22.6 58.0 L 26.1 60.3 L 26.42823534011841 60.55411767959595 L 27.8 57.0 L 29.9 51.6 L 32.1 46.4 L 34.2 41.4 L 36.2 36.6 L 38.1 32.0 L 39.8 27.6 L 41.4 23.4 L 42.8 19.3 L 43.79055118560791 16.32834644317627 L 43.7 16.3 L 44.6 14.1 L 55.2 19.9 L 57.3 22.9 L 53.44720230102539 23.497847938537596 L 53.3 23.8 L 51.1 27.8 L 48.9 31.9 L 46.4 36.2 L 43.7 40.5 L 40.9 45.0 L 37.9 49.5 L 34.6 54.2 L 31.0 58.9 L 28.37609691619873 62.06213960647583 L 29.2 62.7 L 32.1 65.2 L 34.8 67.7 L 37.2 70.3 L 39.4 72.9 L 41.3 75.7 L 43.0 78.5 L 42.9 83.1 L 39.7 86.3 L 35.2 86.2 L 31.9 83.0 L 31.3 80.7 Z M 107.5 19.8 L 160.5 19.8 L 166.5 14.8 L 177.5 23.8 L 172.5 27.8 L 172.5 74.8 L 160.5 80.8 L 160.5 70.8 L 107.5 70.8 L 95.5 76.8 L 95.5 13.8 Z M 107.5 47.3 L 107.5 66.8 L 160.5 66.8 L 160.5 47.3 Z M 107.5 23.8 L 107.5 43.3 L 160.5 43.3 L 160.5 23.8 Z " />
</g>
</svg>
