<svg xmlns="http://www.w3.org/2000/svg" xmlns:xlink="http://www.w3.org/1999/xlink" version="1.1" baseProfile="full" viewBox="0 0 200 200" width="200" height="200">
<g fill="black">
<path d="M 163.9 127.7 L 166.2 130.5 L 162.38766231536866 131.43636360168458 L 162.2 131.9 L 160.4 136.3 L 158.5 140.8 L 156.4 145.3 L 154.2 150.0 L 151.9 154.7 L 149.4 159.5 L 146.7 164.4 L 143.7 169.4 L 141.94897956848143 172.0 L 166.8 172.0 L 176.8 162.0 L 188.8 172.0 L 188.8 176.0 L 74.1 176.0 L 74.1 172.0 L 139.1137930870056 172.0 L 140.2 167.8 L 141.7 162.3 L 143.3 157.0 L 144.8 151.9 L 146.3 146.9 L 147.7 142.1 L 149.0 137.4 L 150.3 132.8 L 151.4 128.4 L 152.1641544342041 125.1141357421875 L 152.1 125.1 L 152.34680852890014 124.32872343063354 L 152.4 124.1 L 152.41817893981934 124.10569076538086 L 152.9 122.6 Z M 13.4 153.9 L 19.3 152.3 L 25.4 150.5 L 31.6 148.6 L 36.2 147.234375 L 36.2 95.0 L 17.5 95.0 L 17.5 91.0 L 36.2 91.0 L 36.2 44.0 L 14.4 44.0 L 14.4 40.0 L 55.2 40.0 L 65.2 30.0 L 77.2 40.0 L 77.2 44.0 L 48.2 44.0 L 48.2 91.0 L 52.1 91.0 L 62.1 81.0 L 74.1 91.0 L 74.1 95.0 L 48.2 95.0 L 48.2 143.54029846191406 L 51.2 142.6 L 58.1 140.4 L 65.2 138.2 L 72.4 136.1 L 79.9 134.1 L 80.6 135.8 L 73.9 139.7 L 67.2 143.2 L 60.5 146.5 L 54.0 149.6 L 47.5 152.6 L 41.2 155.4 L 35.0 158.1 L 29.0 160.6 L 23.0 163.0 L 21.135540008544922 163.73935480117797 L 20.1 167.5 L 17.2 165.3 L 11.5 154.6 Z M 108.7 154.4 L 107.8 150.6 L 106.8 146.8 L 105.7 143.1 L 103.1 135.9 L 101.6 132.3 L 100.1 128.8 L 98.3 125.3 L 99.7 124.2 L 102.6 126.9 L 105.6 129.8 L 108.2 132.9 L 110.7 136.2 L 113.0 139.7 L 115.1 143.4 L 117.0 147.2 L 118.8 151.3 L 120.4 155.4 L 121.8 159.7 L 121.0 164.2 L 117.3 166.9 L 112.8 166.0 L 110.1 162.3 L 109.5 158.3 Z M 105.3 58.1 L 157.6 58.1 L 163.6 53.1 L 174.6 62.1 L 169.6 66.1 L 169.6 111.8 L 157.6 117.8 L 157.6 111.8 L 105.3 111.8 L 93.3 117.8 L 93.3 52.1 Z M 105.3 62.1 L 105.3 107.8 L 157.6 107.8 L 157.6 62.1 Z M 184.1 30.0 L 184.1 34.0 L 78.8 34.0 L 78.8 30.0 L 162.1 30.0 L 172.1 20.0 Z " />
</g>
</svg>
