<svg xmlns="http://www.w3.org/2000/svg" xmlns:xlink="http://www.w3.org/1999/xlink" version="1.1" baseProfile="full" viewBox="0 0 200 200" width="200" height="200">
<g fill="black">
<path d="M 167.6 117.0 L 167.6 76.0 L 143.5 76.0 L 143.5 104.0 L 142.8157895088196 117.0 Z M 13.3 153.1 L 19.1 151.5 L 25.1 149.7 L 31.3 147.9 L 35.8 146.47142858505248 L 35.8 94.5 L 17.3 94.5 L 17.3 90.5 L 35.8 90.5 L 35.8 43.7 L 14.2 43.7 L 14.2 39.7 L 54.5 39.7 L 64.5 29.7 L 76.5 39.7 L 76.5 43.7 L 47.8 43.7 L 47.8 90.5 L 51.4 90.5 L 61.4 80.5 L 73.4 90.5 L 73.4 94.5 L 47.8 94.5 L 47.8 142.72272729873657 L 50.7 141.8 L 57.5 139.7 L 64.5 137.5 L 71.7 135.5 L 79.2 133.4 L 79.9 135.1 L 73.2 139.0 L 66.5 142.5 L 59.9 145.8 L 53.5 148.9 L 47.1 151.8 L 40.8 154.6 L 34.7 157.3 L 28.7 159.8 L 22.8 162.2 L 20.931521701812745 162.95394735336305 L 19.9 166.7 L 17.1 164.5 L 11.4 153.8 Z M 93.0 30.0 L 112.4 30.0 L 117.9 25.0 L 128.4 34.0 L 123.4 37.5 L 123.4 140.2 L 112.4 145.7 L 112.4 134.2 L 93.0 134.2 L 81.0 140.2 L 81.0 24.0 Z M 93.0 84.1 L 93.0 130.2 L 112.4 130.2 L 112.4 84.1 Z M 93.0 34.0 L 93.0 80.1 L 112.4 80.1 L 112.4 34.0 Z M 143.5 31.0 L 143.5 72.0 L 167.6 72.0 L 167.6 31.0 Z M 179.0 177.0 L 178.2 179.4 L 177.0 181.7 L 175.3 183.7 L 173.3 185.3 L 171.0 186.6 L 168.6 187.4 L 166.1 187.8 L 163.6 188.0 L 163.6 182.0 L 143.6 179.0 L 143.6 176.0 L 163.6 176.0 L 164.8 175.9 L 165.7 175.7 L 166.6 175.4 L 167.0 175.0 L 167.2 174.7 L 167.4 174.1 L 167.5 173.2 L 167.6 172.0 L 167.6 121.0 L 142.43902435302735 121.0 L 141.6 129.6 L 139.6 140.9 L 137.0 151.1 L 133.6 160.3 L 129.6 168.4 L 124.8 175.4 L 119.3 181.2 L 113.2 185.6 L 106.4 188.7 L 105.7 187.2 L 111.1 182.8 L 115.8 177.8 L 119.9 171.9 L 123.4 165.2 L 126.3 157.6 L 128.7 148.9 L 130.6 139.2 L 131.8 128.5 L 132.4 116.8 L 132.5 104.0 L 132.5 21.5 L 143.5 27.0 L 167.6 27.0 L 173.6 22.0 L 184.6 31.0 L 179.6 35.0 L 179.6 172.0 L 179.4 174.5 Z " />
</g>
</svg>
