<svg xmlns="http://www.w3.org/2000/svg" xmlns:xlink="http://www.w3.org/1999/xlink" version="1.1" baseProfile="full" viewBox="0 0 200 200" width="200" height="200">
<g fill="black">
<path d="M 27.8 34.4 L 50.9 34.4 L 56.9 29.4 L 67.9 38.4 L 62.9 42.4 L 62.9 77.53255815505982 L 65.6 73.2 L 69.7 66.8 L 73.4 60.8 L 76.8 55.3 L 79.8 50.3 L 82.4 45.6 L 84.5 41.4 L 86.2 37.6 L 87.4 34.2 L 87.91330270767212 32.403440380096434 L 87.9 32.4 L 88.0 32.1 L 88.2 31.4 L 88.2298152923584 31.410554122924804 L 88.7 30.0 L 99.5 35.4 L 101.7 38.3 L 97.63897762298583 39.083706092834475 L 95.7 42.5 L 93.2 46.4 L 90.2 50.6 L 86.8 55.0 L 83.0 59.7 L 78.7 64.8 L 73.9 70.1 L 68.6 75.6 L 62.9 81.10677967071533 L 62.9 109.93308820724488 L 73.0 105.7 L 85.6 100.1 L 88.8 98.60847454071045 L 88.8 89.1 L 98.5834101676941 93.99170503616332 L 108.1 89.1 L 117.9 83.6 L 126.7 78.1 L 134.5 72.5 L 141.3 67.0 L 147.0 61.4 L 151.1011199951172 56.700800037384035 L 151.1 56.7 L 151.137931060791 56.65862064361572 L 151.8 55.9 L 151.81866664886473 55.91599998474121 L 152.2 55.5 L 160.9 63.7 L 161.9 67.2 L 158.03096141815186 66.5212212562561 L 154.9 69.6 L 148.0 75.3 L 140.2 80.7 L 131.6 86.0 L 122.0 91.0 L 113.13061227798462 95.1 L 158.3 95.1 L 164.3 90.1 L 175.3 99.1 L 170.3 103.1 L 170.3 178.6 L 158.3 184.6 L 158.3 174.6 L 100.8 174.6 L 100.8 181.6 L 88.8 187.6 L 88.8 104.66451616287232 L 87.6 105.1 L 74.3 109.2 L 62.9 112.2875 L 62.9 156.9 L 50.9 162.9 L 50.9 150.9 L 27.8 150.9 L 27.8 162.9 L 15.8 168.9 L 15.8 28.4 Z M 100.8 148.3 L 100.8 170.6 L 158.3 170.6 L 158.3 148.3 Z M 27.8 111.8 L 27.8 146.9 L 50.9 146.9 L 50.9 111.8 Z M 100.8 124.3 L 100.8 144.3 L 158.3 144.3 L 158.3 124.3 Z M 103.6382978439331 99.1 L 100.8 100.27017545700073 L 100.8 120.3 L 158.3 120.3 L 158.3 99.1 Z M 27.8 75.1 L 27.8 107.8 L 50.9 107.8 L 50.9 75.1 Z M 98.5 62.9 L 112.5 62.9 L 113.7 62.8 L 114.6 62.7 L 115.2 62.5 L 115.5 62.3 L 115.7 62.2 L 115.9 62.0 L 116.0 61.6 L 116.2 61.0 L 116.4 60.1 L 116.5 58.9 L 116.5 12.7 L 128.5 14.7 L 131.5 16.7 L 128.5 18.5 L 128.5 58.9 L 128.3 61.5 L 127.9 64.0 L 127.1 66.4 L 125.8 68.6 L 124.2 70.6 L 122.2 72.3 L 119.9 73.5 L 117.5 74.3 L 115.0 74.8 L 112.5 74.9 L 112.5 68.9 L 98.5 65.9 Z M 27.8 38.4 L 27.8 71.1 L 50.9 71.1 L 50.9 38.4 Z M 171.0 59.0 L 168.9 55.7 L 166.7 52.2 L 164.3 48.7 L 161.7 45.2 L 159.0 41.5 L 156.1 37.7 L 153.2 33.8 L 150.1 29.9 L 151.3 28.5 L 155.5 31.3 L 159.6 34.2 L 163.4 37.2 L 167.1 40.2 L 170.5 43.3 L 173.7 46.4 L 176.7 49.6 L 179.6 52.8 L 182.3 56.0 L 184.8 59.2 L 185.5 63.7 L 182.9 67.5 L 178.4 68.2 L 174.6 65.6 L 172.9 62.4 Z " />
</g>
</svg>
