<svg xmlns="http://www.w3.org/2000/svg" xmlns:xlink="http://www.w3.org/1999/xlink" version="1.1" baseProfile="full" viewBox="0 0 200 200" width="200" height="200">
<g fill="black">
<path d="M 97.5 26.0 L 158.6 26.0 L 168.6 16.0 L 180.6 26.0 L 180.6 30.0 L 97.5 30.0 L 97.5 92.0 L 156.6 92.0 L 166.6 82.0 L 178.6 92.0 L 178.6 96.0 L 136.7651785850525 96.0 L 139.2 106.1 L 142.1 116.7 L 145.3 126.5 L 148.08990335464478 133.4370569229126 L 150.5 130.1 L 153.1 126.7 L 155.7 123.4 L 158.2 120.3 L 160.6 117.3 L 163.0 114.4 L 165.2 111.6 L 167.4 108.9 L 168.86511631011962 107.15581398010254 L 168.8 107.1 L 169.8 106.1 L 177.9 114.9 L 178.6 118.5 L 174.6932583808899 117.47191009521484 L 172.6 119.1 L 169.7 121.3 L 166.8 123.6 L 163.7 126.0 L 160.5 128.4 L 157.2 130.9 L 153.7 133.4 L 150.1 135.9 L 149.35773754119873 136.44165096282958 L 153.1 144.2 L 157.7 152.0 L 162.7 159.2 L 168.2 165.7 L 174.2 171.6 L 180.6 176.8 L 183.2 178.9 L 172.4 187.1 L 165.5 180.5 L 159.2 173.3 L 153.7 165.5 L 148.8 157.1 L 144.6 148.2 L 141.1 138.7 L 138.4 128.6 L 136.3 118.0 L 135.0 106.8 L 134.72542371749878 96.0 L 121.5 96.0 L 121.5 164.55555553436278 L 123.0 164.0 L 128.5 162.1 L 134.0 160.3 L 139.7 158.6 L 145.4 157.1 L 146.1 158.8 L 141.2 162.1 L 136.2 165.2 L 131.2 168.1 L 126.1 170.9 L 121.1 173.7 L 110.9 179.1 L 105.9 181.8 L 100.9 184.4 L 99.54369897842408 185.0914475440979 L 98.9 188.9 L 95.8 187.0 L 89.1 176.9 L 90.9 176.1 L 96.2 174.0 L 106.8 170.0 L 110.5 168.629629611969 L 110.5 96.0 L 97.5 96.0 L 97.5 100.0 L 96.9 111.8 L 95.9 123.1 L 94.4 133.7 L 92.3 143.6 L 89.7 152.9 L 86.6 161.5 L 82.9 169.4 L 78.6 176.6 L 73.8 182.9 L 68.4 188.4 L 67.3 187.5 L 71.2 181.1 L 74.8 174.4 L 77.9 167.1 L 80.6 159.4 L 82.9 151.0 L 84.7 142.0 L 86.1 132.5 L 87.0 122.3 L 87.5 111.4 L 87.5 21.0 Z M 84.1 36.0 L 84.1 40.0 L 57.310999965667726 40.0 L 54.8 49.3 L 51.7 59.2 L 48.2 68.9 L 44.3 78.5 L 41.395744705200194 85.0 L 63.8 85.0 L 69.3 80.0 L 79.8 89.0 L 74.8 92.5 L 74.8 159.0 L 63.8 164.5 L 63.8 157.0 L 42.9 157.0 L 42.9 169.0 L 30.9 175.0 L 30.9 105.12745094299316 L 30.4 106.0 L 25.0 114.8 L 19.1 123.3 L 12.6 131.4 L 11.2 130.5 L 15.8 121.3 L 20.3 112.1 L 24.6 103.0 L 28.6 93.8 L 30.9 88.01891889572144 L 30.9 88.0 L 30.907526874542235 88.0 L 32.3 84.5 L 35.6 75.2 L 38.7 65.7 L 41.4 56.1 L 43.8 46.4 L 45.09523811340332 40.0 L 16.5 40.0 L 16.5 36.0 L 62.1 36.0 L 72.1 26.0 Z M 42.9 89.0 L 42.9 153.0 L 63.8 153.0 L 63.8 89.0 Z M 168.3 58.0 L 168.3 62.0 L 106.8 62.0 L 106.8 58.0 L 146.3 58.0 L 156.3 48.0 Z " />
</g>
</svg>
