<svg xmlns="http://www.w3.org/2000/svg" xmlns:xlink="http://www.w3.org/1999/xlink" version="1.1" baseProfile="full" viewBox="0 0 200 200" width="200" height="200">
<g fill="black">
<path d="M 106.0 176.2 L 126.0 176.2 L 127.2 176.1 L 128.1 176.0 L 128.7 175.8 L 129.0 175.6 L 129.2 175.5 L 129.4 175.3 L 129.5 174.9 L 129.7 174.3 L 129.9 173.4 L 130.0 172.2 L 130.0 111.2 L 142.0 113.2 L 145.0 115.2 L 142.0 117.0 L 142.0 172.2 L 141.8 174.8 L 141.4 177.3 L 140.6 179.7 L 139.3 181.9 L 137.7 183.9 L 135.7 185.6 L 133.4 186.8 L 131.0 187.6 L 128.5 188.1 L 126.0 188.2 L 126.0 182.2 L 106.0 179.2 Z M 122.4 130.1 L 124.6 133.0 L 120.7664963722229 133.79313869476317 L 120.1 135.3 L 117.4 140.5 L 114.5 145.4 L 111.2 150.3 L 107.6 155.0 L 103.7 159.6 L 99.5 164.0 L 95.0 168.3 L 90.0 172.3 L 84.7 176.0 L 83.5 174.7 L 87.4 169.6 L 91.0 164.6 L 94.5 159.8 L 97.7 155.0 L 100.7 150.2 L 103.3 145.4 L 105.7 140.6 L 107.7 135.8 L 109.5 131.0 L 110.71735906600952 127.10445108413697 L 110.7 127.1 L 110.8125 126.8 L 111.0 126.2 L 111.03323612213134 126.21137027740478 L 111.6 124.7 Z M 88.0 36.0 L 88.0 40.0 L 58.619999980926515 40.0 L 55.8 49.4 L 52.5 59.3 L 48.7 69.1 L 44.6 78.6 L 41.536170196533206 85.0 L 66.0 85.0 L 72.0 80.0 L 83.0 89.0 L 78.0 93.0 L 78.0 163.0 L 66.0 169.0 L 66.0 157.0 L 43.0 157.0 L 43.0 169.0 L 31.0 175.0 L 31.0 103.9574073791504 L 29.7 106.1 L 23.9 114.9 L 17.5 123.3 L 10.7 131.5 L 9.2 130.4 L 14.4 121.2 L 19.3 112.1 L 24.0 102.9 L 28.3 93.7 L 32.3 84.4 L 36.0 75.0 L 39.3 65.6 L 42.3 56.0 L 44.9 46.3 L 46.266265106201175 40.0 L 15.0 40.0 L 15.0 36.0 L 66.0 36.0 L 76.0 26.0 Z M 173.8 161.5 L 172.1 157.6 L 170.1 153.8 L 167.7 149.8 L 165.1 145.8 L 162.2 141.7 L 159.0 137.5 L 155.6 133.1 L 152.0 128.5 L 153.2 127.2 L 158.2 130.4 L 162.8 133.7 L 167.0 137.3 L 170.9 141.0 L 174.5 144.7 L 177.7 148.6 L 180.7 152.5 L 183.3 156.6 L 185.6 160.7 L 187.6 164.9 L 187.3 169.4 L 183.9 172.5 L 179.4 172.2 L 176.3 168.9 L 175.2 165.2 Z M 43.0 89.0 L 43.0 153.0 L 66.0 153.0 L 66.0 89.0 Z M 143.1 18.8 L 144.7 22.0 L 140.15168743133546 22.15683832168579 L 138.5 24.1 L 136.5 26.3 L 134.4 28.7 L 132.1 31.3 L 129.5 34.2 L 126.7 37.2 L 123.5 40.4 L 122.58333330154419 41.5 L 163.7 41.5 L 169.7 36.5 L 180.7 45.5 L 175.7 49.5 L 175.7 114.1 L 163.7 120.1 L 163.7 110.1 L 108.2 110.1 L 108.2 122.1 L 96.2 128.1 L 96.2 35.5 L 108.2 41.5 L 119.78536586761474 41.5 L 121.3 38.8 L 123.1 34.8 L 124.9 31.0 L 126.5 27.6 L 128.0 24.5 L 129.3 21.6 L 130.4 19.0 L 131.3 16.7 L 132.0 14.7 L 132.20825519561768 13.991932487487793 L 132.0 13.9 L 132.4782608985901 13.07391300201416 L 132.5 13.0 L 132.51598796844482 13.008748149871826 L 133.1 12.0 Z M 108.2 76.9 L 108.2 106.1 L 163.7 106.1 L 163.7 76.9 Z M 108.2 45.5 L 108.2 72.9 L 163.7 72.9 L 163.7 45.5 Z " />
</g>
</svg>
