<svg xmlns="http://www.w3.org/2000/svg" xmlns:xlink="http://www.w3.org/1999/xlink" version="1.1" baseProfile="full" viewBox="0 0 200 200" width="200" height="200">
<g fill="black">
<path d="M 102.0 106.0 L 156.0 106.0 L 162.0 101.0 L 173.0 110.0 L 168.0 114.0 L 168.0 179.0 L 156.0 185.0 L 156.0 175.0 L 102.0 175.0 L 102.0 182.0 L 90.0 188.0 L 90.0 100.0 Z M 102.0 141.0 L 102.0 171.0 L 156.0 171.0 L 156.0 141.0 Z M 30.5 34.4 L 58.3 34.4 L 64.3 29.4 L 75.3 38.4 L 70.3 42.4 L 70.3 156.9 L 58.3 162.9 L 58.3 150.9 L 30.5 150.9 L 30.5 162.9 L 18.5 168.9 L 18.5 28.4 Z M 30.5 111.8 L 30.5 146.9 L 58.3 146.9 L 58.3 111.8 Z M 102.0 110.0 L 102.0 137.0 L 156.0 137.0 L 156.0 110.0 Z M 30.5 75.1 L 30.5 107.8 L 58.3 107.8 L 58.3 75.1 Z M 163.3 47.8 L 165.5 50.6 L 161.5374698638916 51.50373497009277 L 160.2 54.1 L 158.3 57.5 L 156.2 61.2 L 153.8 65.1 L 151.2 69.1 L 148.3 73.4 L 145.1 77.9 L 141.6 82.6 L 139.65 85.0 L 162.0 85.0 L 172.0 75.0 L 184.0 85.0 L 184.0 89.0 L 74.0 89.0 L 74.0 85.0 L 136.80526313781738 85.0 L 138.5 80.8 L 140.7 75.4 L 142.8 70.4 L 144.7 65.7 L 146.4 61.3 L 148.0 57.2 L 149.3 53.5 L 150.4 50.0 L 151.3 46.8 L 151.68153314590455 45.01951217651367 L 151.6 45.0 L 151.85945949554443 44.18918914794922 L 151.9 44.0 L 151.91807231903076 44.006024074554446 L 152.4 42.5 Z M 105.7 69.7 L 105.0 66.2 L 104.2 62.9 L 103.2 59.6 L 102.1 56.4 L 100.8 53.3 L 99.4 50.2 L 97.9 47.2 L 96.0 44.3 L 97.3 43.0 L 100.1 45.2 L 103.0 47.5 L 105.6 50.1 L 108.1 53.0 L 110.3 56.2 L 112.3 59.5 L 114.1 63.1 L 115.7 66.9 L 117.1 70.8 L 118.3 75.0 L 117.3 79.4 L 113.5 81.9 L 109.0 80.9 L 106.5 77.0 L 106.2 73.3 Z M 30.5 38.4 L 30.5 71.1 L 58.3 71.1 L 58.3 38.4 Z M 78.0 37.0 L 123.0 37.0 L 123.0 12.0 L 135.0 14.0 L 138.0 16.0 L 135.0 17.8 L 135.0 37.0 L 157.0 37.0 L 167.0 27.0 L 179.0 37.0 L 179.0 41.0 L 78.0 41.0 Z " />
</g>
</svg>
