<svg xmlns="http://www.w3.org/2000/svg" xmlns:xlink="http://www.w3.org/1999/xlink" version="1.1" baseProfile="full" viewBox="0 0 200 200" width="200" height="200">
<g fill="black">
<path d="M 151.0 181.0 L 138.9 173.2 L 128.87780704498292 163.2723560333252 L 126.9 164.2 L 114.9 169.0 L 102.1 173.5 L 88.7 177.5 L 74.5 181.0 L 59.7 184.0 L 44.0 186.4 L 43.7 184.7 L 58.8 180.3 L 73.1 175.9 L 86.7 171.2 L 99.6 166.3 L 111.6 161.2 L 122.9 155.8 L 123.31105766296386 155.5729395866394 L 119.2 149.7 L 111.4 134.2 L 109.16846542358398 127.82418708801269 L 61.0 131.5 L 60.6 127.6 L 107.82954511642455 123.9987003326416 L 105.1 116.2 L 102.28141050338745 104.98090848922729 L 64.6 107.5 L 64.3 103.6 L 101.31283655166627 101.12560424804687 L 100.0 95.9 L 97.78113422393798 82.58680515289306 L 60.9 85.1 L 60.7 81.2 L 97.13583869934082 78.71503229141236 L 96.2 73.1 L 93.70272216796874 48.799565410614015 L 93.7 48.8 L 93.67123289108277 48.49315071105957 L 93.6 47.8 L 93.60620632171631 47.799534511566165 L 93.4 45.6 L 105.6 46.9 L 108.7 48.7 L 105.97342672348023 50.57451915740967 L 108.1 71.5 L 109.1465991973877 77.89588413238525 L 156.0394832611084 74.69773349761962 L 165.4 64.0 L 178.0 73.2 L 178.3 77.1 L 109.78040437698364 81.76913766860962 L 111.7 93.5 L 113.43036489486694 100.31551876068116 L 150.04931621551515 97.86745519638062 L 159.3 87.2 L 172.0 96.4 L 172.3 100.3 L 114.40900192260742 104.17015027999878 L 116.6 112.8 L 120.22257165908813 123.05371971130371 L 164.52816648483275 119.67537412643432 L 173.8 108.9 L 186.5 118.0 L 186.8 121.9 L 121.57350177764893 126.8775387763977 L 122.5 129.5 L 129.5 143.5 L 133.83602991104127 149.73304290771483 L 143.2 144.0 L 152.1 137.7 L 160.16774196624755 131.20645160675048 L 160.4 131.0 L 167.9 140.4 L 168.2 144.0 L 164.67074956893921 142.71663618087769 L 158.7 147.0 L 148.8 153.1 L 140.28831720352173 157.75733585357665 L 146.5 163.9 L 156.4 170.3 L 167.5 174.5 L 173.84132680892944 175.48758373260497 L 179.4 151.4 L 181.4 151.4 L 179.47956390380858 176.36566982269287 L 179.7 176.4 L 183.8 178.4 L 185.4 182.7 L 183.3 186.8 L 179.0 188.3 L 164.4 186.1 Z M 12.7 122.0 L 15.4 121.2 L 18.3 120.3 L 21.4 119.2 L 24.6 117.9 L 27.9 116.5 L 31.3 114.9 L 34.9 113.2 L 38.6 111.4 L 41.900908660888675 109.79186496734619 L 42.0 98.0 L 42.0 31.0 L 54.0 37.0 L 104.0 37.0 L 104.0 12.0 L 116.0 14.0 L 119.0 16.0 L 116.0 17.8 L 116.0 37.0 L 164.0 37.0 L 174.0 27.0 L 186.0 37.0 L 186.0 41.0 L 54.0 41.0 L 54.0 98.0 L 53.3 110.5 L 52.0 122.3 L 49.9 133.4 L 47.2 143.7 L 43.7 153.2 L 39.5 161.9 L 34.6 169.8 L 28.9 176.7 L 22.6 182.7 L 15.5 187.7 L 14.4 186.2 L 19.9 180.0 L 24.7 173.4 L 29.0 166.3 L 32.7 158.6 L 35.7 150.2 L 38.2 141.2 L 40.0 131.5 L 41.3 121.0 L 41.6436749458313 114.64201288223266 L 41.2 115.1 L 38.1 118.0 L 35.1 120.7 L 32.0 123.2 L 29.0 125.6 L 26.0 127.7 L 23.0 129.7 L 21.009677410125732 130.89419355392457 L 20.1 135.2 L 17.1 133.1 L 10.8 122.8 Z M 24.3 76.9 L 23.6 73.9 L 22.7 70.9 L 21.7 68.1 L 20.5 65.4 L 19.2 62.7 L 17.8 60.1 L 16.2 57.5 L 14.2 55.3 L 15.3 53.8 L 18.0 55.5 L 20.8 57.2 L 23.5 59.2 L 26.0 61.5 L 28.3 64.1 L 30.4 67.0 L 32.3 70.1 L 34.1 73.4 L 35.7 76.9 L 37.1 80.6 L 36.3 85.1 L 32.6 87.9 L 28.1 87.1 L 25.4 83.4 L 24.9 80.1 Z M 143.6 63.3 L 141.8 61.5 L 139.7 59.7 L 137.4 57.9 L 134.9 56.1 L 132.0 54.3 L 129.0 52.5 L 125.7 50.6 L 122.0 49.1 L 122.5 47.3 L 126.5 48.0 L 130.4 48.5 L 134.1 49.2 L 137.6 50.0 L 140.9 51.1 L 144.1 52.2 L 147.0 53.5 L 149.9 55.0 L 152.5 56.6 L 155.0 58.4 L 156.6 62.7 L 154.9 66.9 L 150.6 68.5 L 146.4 66.8 L 145.1 65.0 Z " />
</g>
</svg>
