<svg xmlns="http://www.w3.org/2000/svg" xmlns:xlink="http://www.w3.org/1999/xlink" version="1.1" baseProfile="full" viewBox="0 0 200 200" width="200" height="200">
<g fill="black">
<path d="M 141.5 173.5 L 141.6 174.1 L 141.8 174.5 L 142.0 174.6 L 142.2 174.8 L 142.5 175.0 L 143.1 175.2 L 144.0 175.3 L 145.2 175.4 L 174.3 175.4 L 180.3 150.4 L 182.3 150.4 L 180.3 175.4 L 183.9 177.8 L 186.3 181.4 L 183.9 185.0 L 180.3 187.4 L 145.2 187.4 L 142.7 187.3 L 140.2 186.8 L 137.8 186.0 L 135.5 184.8 L 133.5 183.1 L 131.8 181.1 L 130.6 178.9 L 129.8 176.4 L 129.4 174.0 L 129.24563055038453 171.9931968688965 L 121.6 173.5 L 108.3 175.8 L 95.5 177.8 L 83.1 179.7 L 71.2 181.4 L 59.9 183.0 L 49.0 184.5 L 38.5 185.9 L 28.6 187.2 L 23.216687774658205 187.8299620628357 L 21.4 191.1 L 19.2 188.3 L 16.1 176.5 L 18.1 176.4 L 27.6 175.8 L 37.5 175.2 L 47.48381967544556 174.53441200256347 L 61.08119659423828 109.6 L 17.6 109.6 L 17.6 105.6 L 160.3 105.6 L 170.3 95.6 L 182.3 105.6 L 182.3 109.6 L 73.28119659423828 109.6 L 69.99358978271485 125.3 L 129.2 125.3 L 135.2 120.3 L 146.2 129.3 L 141.2 133.3 L 141.2 171.4 L 141.3 172.6 Z M 69.15598287582398 129.3 L 59.85146694183349 173.73381099700927 L 70.4 173.0 L 82.3 172.2 L 94.7 171.3 L 107.7 170.4 L 121.1 169.7 L 129.2 169.35285711288452 L 129.2 129.3 Z M 97.8 157.3 L 96.2 155.4 L 94.4 153.4 L 92.2 151.4 L 89.9 149.3 L 87.3 147.3 L 84.5 145.1 L 81.4 142.9 L 78.0 141.0 L 78.7 139.3 L 82.5 140.4 L 86.3 141.3 L 89.8 142.4 L 93.2 143.6 L 96.4 144.9 L 99.4 146.4 L 102.2 147.9 L 104.8 149.6 L 107.3 151.5 L 109.5 153.4 L 110.8 157.8 L 108.7 161.9 L 104.3 163.1 L 100.3 161.0 L 99.2 159.2 Z M 78.6 57.9 L 76.7 56.5 L 74.4 55.1 L 71.7 53.6 L 68.6 52.0 L 65.2 50.4 L 61.5 48.7 L 57.4 46.9 L 55.27117214202881 46.14308338165283 L 52.6 48.5 L 48.8 51.2 L 44.6 53.7 L 39.9 55.9 L 34.9 57.8 L 29.3 59.4 L 23.4 60.7 L 22.8 59.0 L 28.1 56.2 L 32.7 53.3 L 36.9 50.4 L 40.6 47.6 L 43.8 44.8 L 46.4 41.9 L 48.5 39.1 L 50.2 36.3 L 51.3 33.6 L 51.83105278015137 31.80769681930542 L 51.8 31.8 L 51.948642539978025 31.35407238006592 L 44.0 31.3 L 29.0 30.8 L 28.9 29.0 L 43.8 27.5 L 58.5 26.0 L 73.0 24.6 L 87.2 23.2 L 101.3 21.7 L 115.2 20.1 L 128.9 18.5 L 142.5 16.7 L 155.8 14.8 L 168.9 12.8 L 169.05507879257203 13.953398323059082 L 180.5 23.4 L 180.9 26.4 L 176.34119501113892 23.940644645690917 L 170.5 24.7 L 157.2 26.1 L 143.6 27.4 L 129.9 28.4 L 116.1 29.4 L 108.5 29.831205654144288 L 108.5 91.5 L 96.5 97.5 L 96.5 30.432394409179686 L 87.8 30.8 L 73.3 31.2 L 58.7 31.4 L 56.68501691818237 31.38629264831543 L 63.5 34.7 L 65.7 37.6 L 61.56656579971313 38.470196628570555 L 61.5 38.6 L 59.0 42.2 L 57.27938671112061 44.09267463684082 L 58.0 44.2 L 62.6 44.5 L 66.8 45.0 L 70.7 45.6 L 74.2 46.3 L 77.5 47.0 L 80.5 47.8 L 83.3 48.6 L 85.8 49.5 L 88.1 50.5 L 90.5 54.5 L 89.5 58.9 L 85.6 61.3 L 81.1 60.3 L 80.1 59.2 Z M 79.5 88.4 L 77.9 87.1 L 75.6 85.6 L 72.9 84.0 L 69.7 82.3 L 65.9 80.5 L 61.7 78.5 L 57.0 76.4 L 54.92668809890747 75.60257234573365 L 52.6 77.8 L 48.4 80.8 L 43.7 83.6 L 38.5 86.1 L 32.7 88.4 L 26.3 90.3 L 19.4 91.8 L 18.8 90.1 L 24.9 86.8 L 30.4 83.6 L 35.3 80.4 L 39.6 77.3 L 43.2 74.2 L 46.2 71.1 L 48.5 68.0 L 50.2 65.0 L 51.4 62.2 L 52.0 59.3 L 52.064583969116214 59.31725950241089 L 52.5 57.7 L 63.6 62.4 L 66.0 65.1 L 61.98025999069214 66.26937894821167 L 61.8 66.7 L 59.3 70.7 L 56.99317693710327 73.45330486297607 L 57.8 73.6 L 63.0 74.3 L 67.7 75.1 L 71.9 75.9 L 75.7 76.7 L 79.0 77.5 L 82.0 78.4 L 84.6 79.3 L 86.9 80.2 L 89.1 81.5 L 90.9 85.8 L 89.2 90.0 L 85.0 91.8 L 80.7 90.1 L 80.5 89.4 Z M 172.0 88.3 L 170.4 86.9 L 168.3 85.4 L 165.7 83.8 L 162.7 82.1 L 159.3 80.3 L 155.5 78.4 L 151.4 76.3 L 148.65195779800416 75.18908929824829 L 145.3 78.1 L 141.0 81.2 L 136.2 84.0 L 131.0 86.4 L 125.3 88.6 L 119.1 90.4 L 112.3 91.8 L 111.7 90.1 L 117.7 86.9 L 123.0 83.8 L 127.9 80.7 L 132.2 77.6 L 135.8 74.4 L 139.0 71.3 L 141.5 68.2 L 143.5 65.0 L 145.0 61.9 L 146.0 58.8 L 146.0298152923584 58.810554122924806 L 146.5 57.4 L 157.3 62.8 L 159.5 65.7 L 155.3716049194336 66.56913576126098 L 155.1 67.1 L 152.4 71.1 L 150.47752294540405 73.2555046081543 L 152.2 73.6 L 156.8 74.3 L 161.1 75.0 L 165.0 75.8 L 168.6 76.6 L 171.8 77.5 L 174.7 78.4 L 177.3 79.3 L 179.6 80.3 L 181.7 81.5 L 183.6 85.6 L 182.2 89.9 L 178.0 91.8 L 173.7 90.4 L 173.2 89.5 Z M 172.2 58.0 L 170.5 56.8 L 168.3 55.4 L 165.6 53.9 L 162.5 52.4 L 158.9 50.7 L 155.0 48.9 L 150.6 47.0 L 148.1875129699707 46.14557752609253 L 146.3 47.7 L 142.4 50.3 L 138.1 52.8 L 133.3 55.0 L 128.1 57.0 L 122.5 58.8 L 116.3 60.4 L 115.7 58.7 L 121.1 55.6 L 125.9 52.5 L 130.3 49.5 L 134.1 46.6 L 137.4 43.8 L 140.2 41.0 L 142.4 38.2 L 144.1 35.6 L 145.3 33.1 L 145.73462686538696 31.609850788116454 L 145.7 31.6 L 145.93225803375245 30.93225803375244 L 146.0 30.7 L 146.0115502357483 30.704293060302735 L 146.5 29.3 L 157.3 34.9 L 159.4 37.8 L 155.11458206176758 38.6127516746521 L 152.7 41.8 L 150.4149917602539 44.16117515563965 L 151.3 44.3 L 156.1 44.8 L 160.5 45.3 L 164.5 45.9 L 168.1 46.6 L 171.4 47.3 L 174.3 48.0 L 176.9 48.7 L 179.2 49.6 L 181.4 50.6 L 183.5 54.7 L 182.3 59.1 L 178.2 61.2 L 173.8 59.9 L 173.3 59.1 Z " />
</g>
</svg>
