<svg xmlns="http://www.w3.org/2000/svg" xmlns:xlink="http://www.w3.org/1999/xlink" version="1.1" baseProfile="full" viewBox="0 0 200 200" width="200" height="200">
<g fill="black">
<path d="M 78.2 170.1 L 78.4 170.7 L 78.6 171.1 L 78.9 171.4 L 79.8 171.7 L 80.7 171.9 L 82.0 172.0 L 174.0 172.0 L 180.0 147.0 L 182.0 147.0 L 180.0 172.0 L 183.6 174.4 L 186.0 178.0 L 183.6 181.6 L 180.0 184.0 L 82.0 184.0 L 79.4 183.8 L 76.9 183.4 L 74.5 182.6 L 72.2 181.3 L 70.2 179.7 L 68.6 177.6 L 67.4 175.4 L 66.6 173.0 L 66.2 170.5 L 66.0 167.9 L 66.02922945022583 164.62305240631105 L 63.2 166.2 L 57.3 169.4 L 51.6 172.2 L 46.1 174.7 L 40.9 177.1 L 35.9 179.3 L 31.2 181.3 L 26.8 183.2 L 22.6 184.9 L 22.5509202003479 184.9184048652649 L 21.4 188.7 L 18.6 186.4 L 13.3 175.5 L 15.2 174.9 L 19.1 174.0 L 23.4 173.0 L 25.017737007141115 172.57798166275023 L 31.851388931274414 32.0 L 15.0 32.0 L 15.0 28.0 L 67.0 28.0 L 77.0 18.0 L 89.0 28.0 L 89.0 32.0 L 43.951388931274415 32.0 L 42.3472222328186 65.0 L 67.0 65.0 L 73.0 60.0 L 84.0 69.0 L 79.0 72.0 L 78.0 72.41666669845581 L 78.0 168.0 L 78.1 169.2 Z M 42.1527777671814 69.0 L 37.27734775543213 169.29456024169923 L 38.0 169.1 L 43.5 167.6 L 49.3 166.0 L 55.4 164.4 L 61.8 162.7 L 66.05531339645385 161.69874982833863 L 66.88216056823731 69.0 Z M 159.2 156.7 L 157.4 154.4 L 155.4 152.1 L 153.1 149.8 L 150.7 147.5 L 148.0 145.3 L 145.1 143.1 L 141.9 140.8 L 138.5 138.9 L 139.1 137.2 L 143.1 138.2 L 147.0 139.1 L 150.7 140.4 L 154.2 141.8 L 157.6 143.4 L 160.8 145.2 L 163.9 147.2 L 166.7 149.4 L 169.4 151.8 L 171.9 154.4 L 173.0 158.8 L 170.7 162.8 L 166.2 163.8 L 162.3 161.5 L 160.9 159.1 Z M 124.4 143.5 L 125.1 147.0 L 121.17978391647338 146.03713989257812 L 121.1 146.1 L 117.8 148.6 L 110.6 153.2 L 106.8 155.3 L 102.9 157.3 L 98.8 159.1 L 94.5 160.8 L 90.1 162.3 L 85.6 163.7 L 84.8 162.1 L 88.6 159.4 L 92.2 156.6 L 95.7 153.9 L 99.0 151.2 L 102.2 148.5 L 105.3 145.9 L 108.2 143.2 L 111.0 140.4 L 113.6 137.7 L 115.35733575820923 135.64977493286133 L 115.3 135.6 L 115.7375 135.20625 L 116.0 134.9 L 116.03638610839843 134.9372525215149 L 116.3 134.7 Z M 49.7 122.1 L 49.1 118.8 L 48.4 115.7 L 47.5 112.6 L 46.5 109.6 L 45.4 106.7 L 42.8 100.9 L 41.0 98.3 L 42.3 97.0 L 44.9 99.1 L 47.6 101.2 L 50.1 103.6 L 52.4 106.3 L 54.5 109.2 L 56.4 112.3 L 58.2 115.7 L 59.7 119.2 L 61.1 123.0 L 62.3 126.9 L 61.3 131.4 L 57.5 133.9 L 53.0 132.9 L 50.5 129.1 L 50.2 125.5 Z M 84.1 125.6 L 101.5 125.6 L 101.5 20.5 L 113.5 26.5 L 149.4 26.5 L 155.4 21.5 L 166.4 30.5 L 161.4 34.5 L 161.4 125.6 L 164.5777777671814 125.6 L 170.8 118.6 L 178.8 125.6 L 178.8 129.6 L 84.1 129.6 Z M 113.5 106.1 L 113.5 125.6 L 149.4 125.6 L 149.4 106.1 Z M 113.5 80.9 L 113.5 102.1 L 149.4 102.1 L 149.4 80.9 Z M 113.5 55.7 L 113.5 76.9 L 149.4 76.9 L 149.4 55.7 Z M 113.5 30.5 L 113.5 51.7 L 149.4 51.7 L 149.4 30.5 Z " />
</g>
</svg>
