<svg xmlns="http://www.w3.org/2000/svg" xmlns:xlink="http://www.w3.org/1999/xlink" version="1.1" baseProfile="full" viewBox="0 0 200 200" width="200" height="200">
<g fill="black">
<path d="M 119.8 183.0 L 107.8 189.0 L 107.8 54.0 L 119.8 60.0 L 140.0 60.0 L 140.0 14.0 L 152.0 16.0 L 155.0 18.0 L 152.0 19.8 L 152.0 60.0 L 172.1 60.0 L 178.1 55.0 L 189.1 64.0 L 184.1 68.0 L 184.1 177.0 L 172.1 183.0 L 172.1 171.0 L 119.8 171.0 Z M 57.6 134.6 L 59.8 137.5 L 56.035180759429934 138.37397594451903 L 55.9 138.7 L 54.1 142.8 L 52.2 146.8 L 50.3 150.9 L 46.1 158.9 L 43.8 162.9 L 41.4 166.8 L 39.940625 168.9890625 L 41.9 168.9 L 48.8 168.6 L 56.0 168.2 L 63.4 167.9 L 71.2 167.6 L 79.2 167.4 L 83.31578950881958 167.4 L 82.6 165.7 L 78.8 158.3 L 76.7 154.6 L 74.5 151.0 L 72.2 147.3 L 69.7 143.6 L 71.0 142.3 L 74.7 145.0 L 78.2 147.8 L 81.5 150.8 L 84.6 154.1 L 87.6 157.5 L 90.3 161.1 L 92.9 164.9 L 95.3 168.8 L 97.6 172.8 L 99.6 176.9 L 99.5 181.5 L 96.2 184.7 L 91.6 184.5 L 88.4 181.3 L 87.2 177.3 L 85.8 173.4 L 84.38212127685547 169.94392070770263 L 79.7 171.1 L 71.8 172.9 L 64.2 174.4 L 56.8 175.8 L 49.7 177.0 L 42.9 178.1 L 36.3 179.2 L 30.0 180.2 L 24.0 181.1 L 22.317622661590576 181.3320520401001 L 20.5 184.7 L 18.2 181.9 L 15.1 170.2 L 17.1 170.0 L 22.9 169.8 L 28.9 169.5 L 35.3 169.2 L 35.603765678405765 169.1861925125122 L 36.8 164.8 L 38.1 160.4 L 39.4 156.1 L 40.6 151.8 L 43.0 143.4 L 44.1 139.2 L 45.2 135.1 L 45.97619895935058 131.91758432388306 L 45.9 131.9 L 46.21999998092652 130.9 L 11.4 130.9 L 11.4 126.9 L 51.0 126.9 L 51.0 98.6 L 18.3 98.6 L 18.3 94.6 L 51.0 94.6 L 51.0 72.1 L 63.0 74.1 L 66.0 76.1 L 63.0 77.9 L 63.0 94.6 L 73.6 94.6 L 83.6 84.6 L 95.6 94.6 L 95.6 98.6 L 63.0 98.6 L 63.0 126.9 L 80.5 126.9 L 90.5 116.9 L 102.5 126.9 L 102.5 130.9 L 49.8442307472229 130.9 Z M 119.8 115.0 L 119.8 167.0 L 140.0 167.0 L 140.0 115.0 Z M 152.0 115.0 L 152.0 167.0 L 172.1 167.0 L 172.1 115.0 Z M 119.8 64.0 L 119.8 111.0 L 140.0 111.0 L 140.0 64.0 Z M 152.0 64.0 L 152.0 111.0 L 172.1 111.0 L 172.1 64.0 Z M 26.4 76.2 L 14.4 82.2 L 14.4 16.7 L 26.4 22.7 L 87.5 22.7 L 93.5 17.7 L 104.5 26.7 L 99.5 30.7 L 99.5 70.2 L 87.5 76.2 L 87.5 64.2 L 26.4 64.2 Z M 26.4 26.7 L 26.4 60.2 L 38.8 60.2 L 38.8 26.7 Z M 50.8 26.7 L 50.8 60.2 L 63.1 60.2 L 63.1 26.7 Z M 75.1 26.7 L 75.1 60.2 L 87.5 60.2 L 87.5 26.7 Z " />
</g>
</svg>
