<svg xmlns="http://www.w3.org/2000/svg" xmlns:xlink="http://www.w3.org/1999/xlink" version="1.1" baseProfile="full" viewBox="0 0 200 200" width="200" height="200">
<g fill="black">
<path d="M 73.5 117.2 L 71.8 114.9 L 69.9 112.5 L 67.9 110.3 L 65.6 108.0 L 63.2 105.7 L 60.5 103.5 L 58.1 101.5285714149475 L 58.1 183.0 L 46.1 189.0 L 46.1 107.108571434021 L 43.2 114.4 L 39.3 122.9 L 35.1 131.0 L 30.5 138.8 L 25.5 146.2 L 20.1 153.1 L 14.2 159.5 L 12.8 158.4 L 17.0 150.9 L 21.0 143.3 L 24.8 135.6 L 28.3 127.7 L 31.6 119.5 L 34.5 111.1 L 37.2 102.4 L 39.5 93.5 L 41.6 84.3 L 42.66265058517456 78.0 L 13.5 78.0 L 13.5 74.0 L 46.1 74.0 L 46.1 40.41891889572143 L 41.1 41.5 L 33.2 43.2 L 24.7 44.6 L 15.6 45.8 L 15.2 44.1 L 23.8 40.9 L 31.8 38.0 L 39.3 35.2 L 46.3 32.6 L 52.7 30.1 L 58.6 27.6 L 63.9 25.1 L 68.6 22.8 L 72.7 20.5 L 75.41208534240722 18.717772483825684 L 75.4 18.7 L 75.41541032791137 18.715587520599364 L 76.2 18.2 L 77.9727626800537 21.302334594726563 L 84.1 27.5 L 84.3 30.9 L 80.59522275924682 29.392971992492676 L 77.8 30.6 L 72.9 32.6 L 67.6 34.5 L 61.8 36.3 L 58.1 37.340625 L 58.1 74.0 L 65.8 74.0 L 75.8 64.0 L 87.8 74.0 L 87.8 78.0 L 58.1 78.0 L 58.1 98.40810813903809 L 59.0 98.7 L 62.6 99.7 L 66.1 101.0 L 69.4 102.5 L 72.6 104.1 L 75.6 106.0 L 78.5 108.0 L 81.2 110.2 L 83.7 112.5 L 86.1 115.0 L 87.1 119.5 L 84.7 123.4 L 80.2 124.4 L 76.3 122.0 L 75.0 119.6 Z M 182.2 148.0 L 184.2 148.0 L 182.2 173.0 L 185.8 175.4 L 188.2 179.0 L 185.8 182.6 L 182.2 185.0 L 153.8 185.0 L 151.2 184.8 L 148.7 184.4 L 146.3 183.6 L 144.1 182.3 L 142.1 180.7 L 140.4 178.7 L 139.2 176.4 L 138.4 174.0 L 137.9 171.5 L 137.8 169.0 L 137.8 117.0 L 130.742342376709 117.0 L 128.4 127.0 L 124.8 137.3 L 120.3 146.8 L 114.8 155.5 L 108.4 163.2 L 101.0 170.1 L 92.9 176.0 L 83.8 181.0 L 74.0 184.9 L 63.3 187.8 L 62.8 186.1 L 72.5 181.4 L 81.2 176.3 L 89.1 170.7 L 95.9 164.5 L 101.9 157.7 L 107.0 150.3 L 111.3 142.3 L 114.7 133.5 L 117.4 124.1 L 118.64835166931152 117.0 L 108.4 117.0 L 108.4 129.0 L 96.4 135.0 L 96.4 63.0 L 108.4 69.0 L 128.9 69.0 L 128.9 43.0 L 87.7 43.0 L 87.7 39.0 L 128.9 39.0 L 128.9 15.0 L 140.9 17.0 L 143.9 19.0 L 140.9 20.8 L 140.9 39.0 L 165.1 39.0 L 175.1 29.0 L 187.1 39.0 L 187.1 43.0 L 140.9 43.0 L 140.9 69.0 L 161.4 69.0 L 167.4 64.0 L 178.4 73.0 L 173.4 77.0 L 173.4 123.0 L 161.4 129.0 L 161.4 117.0 L 149.8 117.0 L 149.8 169.0 L 149.9 170.2 L 150.0 171.1 L 150.2 171.7 L 150.4 172.0 L 150.5 172.2 L 150.7 172.4 L 151.1 172.5 L 151.7 172.7 L 152.6 172.9 L 153.8 173.0 L 176.2 173.0 Z M 108.4 113.0 L 161.4 113.0 L 161.4 73.0 L 108.4 73.0 Z " />
</g>
</svg>
