<svg xmlns="http://www.w3.org/2000/svg" xmlns:xlink="http://www.w3.org/1999/xlink" version="1.1" baseProfile="full" viewBox="0 0 200 200" width="200" height="200">
<g fill="black">
<path d="M 179.8 28.7 L 179.8 32.7 L 101.0 32.7 L 101.0 171.2 L 163.2 171.2 L 173.2 161.2 L 185.2 171.2 L 185.2 175.2 L 101.0 175.2 L 101.0 182.2 L 90.0 187.7 L 90.0 23.2 L 101.0 28.7 L 157.8 28.7 L 167.8 18.7 Z M 68.7 127.3 L 66.8 124.2 L 64.8 121.1 L 62.6 117.9 L 60.2 114.7 L 57.6 111.5 L 54.9 108.1 L 54.8 107.97857141494751 L 54.8 181.0 L 42.8 187.0 L 42.8 116.7375 L 39.8 124.8 L 36.2 133.1 L 32.3 140.9 L 27.9 148.3 L 23.2 155.2 L 18.0 161.7 L 12.4 167.5 L 11.0 166.4 L 14.9 159.5 L 18.6 152.4 L 22.2 145.2 L 25.4 137.6 L 28.4 129.8 L 31.1 121.7 L 33.4 113.3 L 35.5 104.5 L 37.3 95.4 L 38.29047622680664 89.0 L 12.5 89.0 L 12.5 85.0 L 42.8 85.0 L 42.8 14.0 L 54.8 16.0 L 57.8 18.0 L 54.8 19.8 L 54.8 85.0 L 62.3 85.0 L 72.3 75.0 L 84.3 85.0 L 84.3 89.0 L 54.8 89.0 L 54.8 102.5692307472229 L 58.1 104.6 L 61.8 107.1 L 65.2 109.8 L 68.5 112.5 L 71.6 115.3 L 74.5 118.2 L 77.2 121.2 L 79.8 124.2 L 82.1 127.3 L 82.7 131.8 L 80.0 135.5 L 75.5 136.1 L 71.8 133.4 L 70.3 130.4 Z M 150.6 133.7 L 158.6 133.7 L 159.8 133.6 L 160.7 133.4 L 161.3 133.2 L 161.7 133.1 L 161.8 132.9 L 162.0 132.7 L 162.2 132.4 L 162.4 131.8 L 162.5 130.9 L 162.6 129.7 L 162.6 68.0 L 148.2 68.0 L 148.2 160.7 L 136.2 166.7 L 136.2 68.0 L 121.4 68.0 L 121.4 139.8 L 110.4 145.3 L 110.4 58.5 L 121.4 64.0 L 136.2 64.0 L 136.2 41.0 L 148.2 43.0 L 151.2 45.0 L 148.2 46.8 L 148.2 64.0 L 162.6 64.0 L 168.6 59.0 L 179.6 68.0 L 174.6 72.0 L 174.6 129.7 L 174.4 132.2 L 174.0 134.7 L 173.2 137.1 L 172.0 139.4 L 170.3 141.4 L 168.3 143.0 L 166.0 144.3 L 163.6 145.1 L 161.1 145.5 L 158.6 145.7 L 158.6 139.7 L 150.6 136.7 Z M 82.2 32.9 L 84.4 35.7 L 80.48892307281494 36.52338457107544 L 78.7 40.3 L 76.8 44.2 L 74.8 48.2 L 72.6 52.3 L 70.2 56.6 L 67.6 60.9 L 64.9 65.3 L 61.9 69.8 L 58.7 74.3 L 57.1 73.6 L 58.7 68.2 L 60.2 63.1 L 61.9 58.2 L 63.4 53.5 L 64.9 49.0 L 66.3 44.7 L 67.6 40.5 L 68.8 36.5 L 69.9 32.6 L 70.62132205963135 29.93110818862915 L 70.5 29.9 L 71.4 27.5 Z M 26.1 62.7 L 25.5 59.2 L 24.8 55.6 L 24.0 51.8 L 23.0 47.9 L 21.9 43.7 L 20.7 39.4 L 19.4 34.9 L 17.9 30.2 L 19.5 29.4 L 22.3 33.5 L 25.0 37.5 L 27.4 41.4 L 29.6 45.3 L 31.5 49.1 L 33.3 52.8 L 34.9 56.4 L 36.3 60.0 L 37.5 63.5 L 38.5 67.0 L 37.5 71.4 L 33.6 73.9 L 29.2 72.9 L 26.7 69.0 L 26.5 65.9 Z " />
</g>
</svg>
