<svg xmlns="http://www.w3.org/2000/svg" xmlns:xlink="http://www.w3.org/1999/xlink" version="1.1" baseProfile="full" viewBox="0 0 200 200" width="200" height="200">
<g fill="black">
<path d="M 167.5 132.5 L 162.6 127.8 L 157.7 122.5 L 152.9 116.8 L 148.1 110.6 L 143.3 103.9 L 138.6 96.6 L 134.1 88.8 L 133.57329034805298 87.7824927330017 L 133.3 88.3 L 128.2 97.0 L 122.6 105.3 L 116.7 113.2 L 110.4 120.8 L 104.48638496398925 127.24319248199463 L 112.0 131.0 L 152.0 131.0 L 158.0 126.0 L 169.0 135.0 L 164.0 139.0 L 164.0 180.0 L 152.0 186.0 L 152.0 176.0 L 112.0 176.0 L 112.0 183.0 L 100.0 189.0 L 100.0 131.5944444656372 L 96.5 134.9 L 89.0 141.3 L 81.0 147.3 L 78.23393058776855 149.05726766586304 L 79.4 152.4 L 80.8 156.8 L 79.8 161.3 L 76.0 163.9 L 71.6 162.9 L 69.0 159.2 L 68.4 155.0 L 67.8 151.0 L 67.0 147.1 L 66.0 143.4 L 65.0 139.8 L 63.8 136.4 L 62.5 133.0 L 61.1 129.7 L 59.6 126.4 L 57.8 123.3 L 59.2 122.1 L 62.0 124.5 L 64.9 127.0 L 67.5 129.9 L 70.0 133.1 L 72.2 136.5 L 74.3 140.1 L 76.2 144.0 L 76.94926538467408 145.80705194473268 L 78.5 144.3 L 85.4 137.4 L 91.9 130.3 L 98.0 123.0 L 103.8 115.5 L 109.2 107.8 L 114.2 99.8 L 118.9 91.6 L 123.2 83.1 L 126.775 75.125 L 127.6 73.2 L 138.0 79.4 L 139.9 82.4 L 136.17854337692262 82.84914131164551 L 135.5080181121826 84.11885938644409 L 137.5 86.4 L 143.4 93.1 L 149.0 99.4 L 154.5 105.2 L 159.8 110.5 L 165.0 115.3 L 170.0 119.6 L 175.0 123.4 L 179.8 126.6 L 184.4 129.4 L 188.6 131.9 L 177.5 140.5 L 172.5 136.8 Z M 68.2 105.0 L 67.92658224105836 103.93670883178712 L 67.2 104.3 L 62.1 106.6 L 56.8 108.6 L 54.7 109.31320753097535 L 54.7 183.0 L 42.7 189.0 L 42.7 113.02727270126343 L 35.1 115.1 L 29.5 116.4 L 23.8 117.6 L 22.1521559715271 117.94093322753906 L 20.4 121.5 L 18.0 118.8 L 14.4 107.1 L 16.4 106.9 L 22.1 106.4 L 30.21419687271118 105.53062171936035 L 35.8 94.8 L 39.7 87.6 L 43.7 80.4 L 47.6 73.2 L 55.2 58.8 L 58.9 51.6 L 62.6 44.3 L 65.74621849060058 37.9201681137085 L 65.7 37.9 L 66.7 36.0 L 76.7 42.7 L 78.5 45.8 L 74.80125427246094 45.988071823120116 L 72.6 49.8 L 68.3 56.8 L 63.9 63.8 L 59.4 70.8 L 54.8 77.6 L 50.1 84.4 L 45.3 91.1 L 40.3 97.7 L 35.1 104.2 L 34.35830907821655 105.0653060913086 L 44.3 103.8 L 49.8 103.0 L 55.2 102.2 L 60.7 101.4 L 66.2 100.7 L 67.03782386779785 100.60860099792481 L 66.3 98.1 L 65.1 94.8 L 63.8 91.6 L 62.4 88.4 L 59.2 82.2 L 57.2 79.3 L 58.5 78.0 L 61.4 80.2 L 64.4 82.5 L 67.1 85.1 L 69.7 87.9 L 72.0 91.0 L 74.2 94.3 L 76.3 97.9 L 78.1 101.6 L 79.8 105.5 L 81.3 109.6 L 80.5 114.1 L 76.9 116.9 L 72.4 116.1 L 69.6 112.5 L 69.0 108.7 Z M 37.6 128.5 L 40.4 130.8 L 36.89396619796753 132.45378952026368 L 36.6 134.1 L 35.4 139.7 L 33.9 145.1 L 32.1 150.5 L 30.1 155.8 L 27.8 160.9 L 25.3 166.0 L 22.4 171.0 L 19.2 175.8 L 15.6 180.4 L 14.0 179.5 L 17.6 168.7 L 19.2 163.5 L 20.7 158.3 L 22.0 153.1 L 23.2 148.0 L 24.1 142.8 L 24.8 137.7 L 25.3 132.5 L 25.623047351837158 128.30038414001464 L 25.6 128.3 L 25.9 125.2 Z M 112.0 135.0 L 112.0 172.0 L 152.0 172.0 L 152.0 135.0 Z M 119.0 62.3 L 120.9 65.4 L 117.00756664276123 65.86977643966675 L 116.6 66.6 L 114.0 70.9 L 111.2 75.2 L 108.1 79.4 L 104.8 83.6 L 101.3 87.7 L 97.6 91.8 L 93.6 95.9 L 89.3 99.8 L 84.6 103.6 L 83.3 102.3 L 86.4 97.3 L 89.5 92.5 L 92.4 87.8 L 95.2 83.3 L 97.8 78.8 L 100.3 74.4 L 104.6 65.8 L 106.4 61.5 L 107.72339544296264 58.30828161239624 L 107.7 58.3 L 108.6 56.2 Z M 160.3 83.9 L 158.6 80.5 L 156.8 77.2 L 154.8 74.0 L 152.6 70.8 L 150.2 67.7 L 147.7 64.5 L 145.1 61.3 L 142.2 58.3 L 143.3 56.8 L 147.1 58.8 L 150.9 61.0 L 154.4 63.4 L 157.7 66.0 L 160.9 68.8 L 163.9 71.8 L 166.7 75.0 L 169.3 78.4 L 171.8 82.0 L 174.1 85.7 L 174.3 90.2 L 171.2 93.7 L 166.7 93.8 L 163.2 90.8 L 161.9 87.3 Z M 30.3 68.9 L 29.1 65.9 L 27.8 63.0 L 26.2 60.1 L 24.4 57.2 L 22.4 54.4 L 20.3 51.6 L 17.9 48.8 L 15.2 46.2 L 16.1 44.7 L 19.6 46.5 L 23.1 48.2 L 26.4 50.3 L 29.4 52.6 L 29.834215259552003 52.989296436309814 L 30.5 51.2 L 32.2 47.0 L 35.6 38.8 L 37.4 34.7 L 40.8 26.5 L 42.4 22.5 L 45.24260129928589 15.215834140777588 L 45.2 15.2 L 45.470270252227785 14.632432460784912 L 45.6 14.3 L 45.62336549758911 14.310932445526124 L 46.2 13.1 L 56.5 19.4 L 58.3 22.5 L 54.436064052581784 22.89971752166748 L 49.6 31.1 L 44.6 38.7 L 42.0 42.4 L 39.3 46.0 L 36.5 49.6 L 33.5 53.0 L 31.85658483505249 54.80245532989502 L 32.3 55.2 L 34.9 58.0 L 37.4 61.0 L 39.6 64.1 L 41.7 67.5 L 43.5 71.1 L 43.2 75.7 L 39.8 78.8 L 35.2 78.5 L 32.1 75.1 L 31.3 72.0 Z M 81.0 67.5 L 79.4 63.3 L 81.1 59.1 L 82.1 58.5 L 83.2 57.4 L 84.3 55.8 L 85.5 53.6 L 86.6 50.8 L 87.7 47.5 L 88.6 43.8 L 89.5 39.6 L 90.4 35.0 L 90.9 29.9 L 92.7 29.8 L 93.2 35.0 L 93.6375 38.0 L 125.5 38.0 L 125.5 12.6 L 137.5 14.6 L 140.5 16.6 L 137.5 18.4 L 137.5 38.0 L 169.2 38.0 L 175.2 33.0 L 186.2 42.0 L 181.2 45.0 L 177.9952940940857 46.33529415130615 L 176.9 47.9 L 175.5 50.0 L 173.9 52.1 L 172.2 54.4 L 170.4 56.7 L 168.4 59.1 L 166.3 61.6 L 164.4 64.4 L 162.9 63.5 L 164.1 60.4 L 164.9 57.3 L 165.7 54.3 L 166.5 51.5 L 167.2 48.9 L 167.8 46.4 L 168.4 44.0 L 168.8545454978943 42.0 L 94.09555559158325 42.0 L 94.3 44.3 L 94.4 48.4 L 94.3 52.3 L 93.9 55.8 L 93.3 59.1 L 92.5 62.2 L 91.2 65.0 L 89.5 67.6 L 85.2 69.3 Z " />
</g>
</svg>
