<svg xmlns="http://www.w3.org/2000/svg" xmlns:xlink="http://www.w3.org/1999/xlink" version="1.1" baseProfile="full" viewBox="0 0 200 200" width="200" height="200">
<g fill="black">
<path d="M 42.0 17.0 L 45.0 19.0 L 42.0 20.8 L 42.0 104.0 L 41.4 115.1 L 40.4 125.7 L 38.8 135.8 L 36.8 145.2 L 34.3 154.1 L 31.2 162.3 L 27.7 170.0 L 23.6 176.9 L 18.9 183.1 L 13.6 188.5 L 12.3 187.4 L 15.7 181.0 L 18.9 174.3 L 21.7 167.3 L 24.1 159.8 L 26.1 151.8 L 27.7 143.3 L 28.9 134.3 L 29.7 124.7 L 30.0 114.6 L 30.0 15.0 Z M 176.0 17.0 L 179.0 19.0 L 176.0 20.8 L 176.0 182.0 L 164.0 188.0 L 164.0 15.0 Z M 134.6 142.3 L 131.9 137.9 L 129.0 133.7 L 125.9 129.6 L 122.6 125.5 L 119.0 121.4 L 115.3 117.4 L 111.4 113.4 L 108.0 110.0 L 108.0 177.0 L 96.0 183.0 L 96.0 111.01304349899291 L 94.0 115.1 L 89.0 124.0 L 83.4 132.5 L 77.4 140.5 L 70.8 148.0 L 63.8 155.0 L 56.2 161.5 L 48.1 167.4 L 39.5 172.7 L 38.4 171.2 L 45.7 164.5 L 52.6 157.6 L 59.0 150.5 L 65.0 143.1 L 70.5 135.4 L 75.6 127.4 L 80.2 119.1 L 84.4 110.4 L 88.0 101.4 L 89.82432432174683 96.0 L 49.0 96.0 L 49.0 92.0 L 96.0 92.0 L 96.0 19.0 L 108.0 21.0 L 111.0 23.0 L 108.0 24.8 L 108.0 92.0 L 135.0 92.0 L 145.0 82.0 L 157.0 92.0 L 157.0 96.0 L 108.0 96.0 L 108.0 108.25 L 108.3 107.8 L 113.6 110.3 L 118.7 113.3 L 123.4 116.5 L 127.9 120.1 L 132.2 123.8 L 136.2 127.7 L 139.9 131.9 L 143.5 136.2 L 146.8 140.8 L 149.8 145.5 L 150.2 150.0 L 147.4 153.6 L 142.8 154.0 L 139.2 151.2 L 137.0 146.7 Z M 150.1 34.2 L 152.1 37.2 L 148.43891353607177 37.713836669921875 L 147.5 39.7 L 144.7 45.1 L 139.1 55.7 L 136.2 60.8 L 133.2 65.8 L 130.0 70.7 L 126.8 75.5 L 123.4 80.0 L 119.7 84.4 L 118.2 83.5 L 120.1 78.2 L 122.1 72.9 L 124.2 67.7 L 126.4 62.4 L 128.5 57.1 L 130.7 51.7 L 132.8 46.3 L 134.9 40.8 L 137.0 35.2 L 138.67047357559204 30.522674083709717 L 138.6 30.5 L 138.9666666984558 29.69333333969116 L 139.0 29.6 L 139.00764989852905 29.6031702041626 L 139.6 28.3 Z M 70.8 68.8 L 69.2 64.0 L 67.3 59.2 L 65.2 54.5 L 63.0 49.9 L 60.5 45.3 L 57.8 40.7 L 52.0 31.3 L 53.3 30.1 L 57.8 33.5 L 62.0 37.4 L 65.8 41.5 L 69.3 45.8 L 72.6 50.3 L 75.6 55.0 L 78.3 59.9 L 80.8 64.9 L 83.0 70.1 L 84.9 75.5 L 84.3 80.0 L 80.7 82.8 L 76.2 82.2 L 73.4 78.7 L 72.2 73.7 Z " />
</g>
</svg>
