<svg xmlns="http://www.w3.org/2000/svg" xmlns:xlink="http://www.w3.org/1999/xlink" version="1.1" baseProfile="full" viewBox="0 0 200 200" width="200" height="200">
<g fill="black">
<path d="M 21.6 163.8 L 33.0 163.4 L 45.4 163.0 L 51.0 162.79411764144896 L 51.0 108.3 L 20.0 108.3 L 20.0 104.3 L 158.0 104.3 L 168.0 94.3 L 180.0 104.3 L 180.0 108.3 L 145.0 108.3 L 145.0 159.36039600372314 L 163.6 158.9 L 184.9 158.5 L 185.0 160.2 L 163.8 162.7 L 145.0 164.6641791343689 L 145.0 182.6 L 133.0 188.6 L 133.0 165.8699999809265 L 124.7 166.7 L 106.8 168.3 L 90.0 169.9 L 74.2 171.3 L 59.6 172.6 L 46.1 173.7 L 33.6 174.8 L 26.362583255767824 175.44047937393188 L 24.5 178.7 L 22.3 175.8 L 19.6 163.9 Z M 63.0 146.7 L 63.0 162.3639455795288 L 73.7 162.0 L 89.4 161.4 L 106.3 160.8 L 124.3 160.1 L 133.0 159.78115186691284 L 133.0 146.7 Z M 63.0 127.8 L 63.0 142.7 L 133.0 142.7 L 133.0 127.8 Z M 63.0 108.3 L 63.0 123.8 L 133.0 123.8 L 133.0 108.3 Z M 77.2 64.2 L 75.4 62.9 L 73.4 61.6 L 71.1 60.3 L 68.6 58.9 L 65.9 57.6 L 62.9 56.2 L 59.8 54.7 L 59.5 54.605714321136475 L 59.5 90.4 L 47.5 96.4 L 47.5 57.54117650985718 L 46.9 58.3 L 43.2 62.4 L 39.1 66.3 L 34.7 69.9 L 30.0 73.3 L 24.9 76.5 L 19.4 79.2 L 13.5 81.7 L 12.6 80.1 L 17.3 76.1 L 21.7 72.1 L 25.8 68.2 L 29.6 64.3 L 33.0 60.4 L 36.1 56.4 L 38.8 52.4 L 41.2 48.3 L 43.10476188659668 44.3 L 13.1 44.3 L 13.1 40.3 L 47.5 40.3 L 47.5 27.705263137817383 L 41.5 28.1 L 33.3 28.5 L 24.5 28.7 L 15.2 28.8 L 15.0 27.0 L 24.1 25.0 L 32.6 23.2 L 40.6 21.6 L 48.0 20.1 L 54.9 18.6 L 61.2 17.2 L 66.8 15.9 L 71.9 14.6 L 76.4 13.3 L 79.42380952835083 12.369597053527832 L 79.4 12.3 L 79.46741571426392 12.356179809570312 L 80.3 12.1 L 80.61318683624268 13.310988998413086 L 90.8 21.8 L 91.1 24.8 L 86.77775173187256 22.818969535827637 L 83.3 23.7 L 78.9 24.4 L 74.0 25.1 L 68.6 25.8 L 62.6 26.4 L 59.5 26.686153888702393 L 59.5 40.3 L 68.9 40.3 L 78.9 30.3 L 90.9 40.3 L 90.9 44.3 L 59.5 44.3 L 59.5 52.111111068725585 L 60.3 52.2 L 63.9 52.2 L 67.2 52.4 L 70.4 52.7 L 73.5 53.1 L 76.3 53.6 L 79.1 54.2 L 81.7 54.9 L 84.1 55.7 L 86.4 56.5 L 89.0 60.3 L 88.3 64.8 L 84.6 67.4 L 80.1 66.7 L 78.8 65.5 Z M 141.2233009338379 18.466019439697266 L 140.6 27.4 L 140.08067226409912 30.804481792449952 L 140.2 31.6 L 142.3 40.6 L 144.9 48.8 L 146.29368934631347 51.84077672958374 L 146.7 51.5 L 149.5 48.7 L 152.4 46.1 L 155.1 43.5 L 157.8 41.0 L 160.4 38.5 L 165.3 33.6 L 167.6 31.1 L 169.1312949180603 29.429496383666994 L 169.1 29.4 L 170.0 28.5 L 177.8 37.6 L 178.3 41.2 L 174.45034523010253 40.01010675430298 L 172.0 41.7 L 168.9 43.6 L 162.5 47.4 L 159.1 49.2 L 155.6 50.9 L 152.0 52.5 L 148.3 54.0 L 147.44779415130614 54.358823490142825 L 148.2 56.0 L 152.1 62.4 L 156.6 67.9 L 161.7 72.7 L 167.5 76.7 L 174.1 80.1 L 181.4 82.8 L 188.5 85.3 L 176.9 95.2 L 168.5 91.3 L 160.9 86.5 L 154.3 80.9 L 148.7 74.4 L 144.1 67.3 L 140.6 59.4 L 138.0 50.9 L 137.12119455337523 45.50999298095703 L 135.9 50.1 L 131.9 59.9 L 126.8 68.6 L 120.7 76.2 L 113.6 82.5 L 105.6 87.6 L 96.6 91.3 L 86.8 93.7 L 86.3 92.0 L 95.1 87.8 L 102.8 83.0 L 109.4 77.5 L 115.0 71.2 L 119.6 64.1 L 123.4 56.1 L 126.2 47.2 L 128.2 37.3 L 129.3 26.4 L 129.5 14.5 L 129.5 12.1 L 141.5 14.5 L 144.5 16.5 Z M 92.5 61.0 L 92.2 56.4 L 95.1 52.9 L 97.1 52.1 L 98.9 51.2 L 100.6 49.9 L 102.2 48.3 L 103.7 46.4 L 105.1 44.0 L 106.4 41.2 L 107.4 37.9 L 108.4 34.3 L 108.7 30.2 L 110.5 30.1 L 111.0 34.3 L 111.6 38.3 L 111.7 42.1 L 111.4 45.8 L 110.7 49.3 L 109.6 52.6 L 108.1 55.8 L 106.0 58.7 L 103.5 61.3 L 100.6 63.5 L 96.1 63.9 Z " />
</g>
</svg>
