<svg xmlns="http://www.w3.org/2000/svg" xmlns:xlink="http://www.w3.org/1999/xlink" version="1.1" baseProfile="full" viewBox="0 0 200 200" width="200" height="200">
<g fill="black">
<path d="M 86.3 23.4 L 166.6 23.4 L 176.6 13.4 L 188.6 23.4 L 188.6 27.4 L 86.3 27.4 L 86.3 89.3 L 85.8 103.6 L 85.0 116.9 L 84.0 129.3 L 82.5 140.8 L 80.7 151.3 L 78.6 160.9 L 76.1 169.5 L 73.2 177.2 L 69.9 183.7 L 66.1 189.2 L 64.6 188.4 L 66.7 182.3 L 68.6 175.6 L 70.3 168.0 L 71.8 159.5 L 73.1 150.1 L 74.1 139.8 L 74.8 128.6 L 75.2 116.4 L 75.4 103.3 L 75.3 89.3 L 75.3 17.9 Z M 56.43211679458618 104.39270076751708 L 52.6 106.4 L 48.3 108.4 L 47.2 108.875 L 47.2 183.0 L 35.2 189.0 L 35.2 131.05 L 32.453398036956784 132.42330093383788 L 32.2 134.0 L 31.1 139.5 L 29.8 144.9 L 28.3 150.3 L 26.6 155.5 L 24.6 160.7 L 22.4 165.8 L 19.9 170.8 L 17.1 175.7 L 14.0 180.3 L 12.3 179.6 L 13.6 174.2 L 14.9 168.9 L 16.2 163.7 L 17.4 158.5 L 18.4 153.3 L 19.3 148.2 L 20.0 143.0 L 20.5 137.8 L 20.9 132.7 L 21.062264156341552 128.4 L 21.0 128.4 L 21.3 125.3 L 33.1 128.4 L 35.2 130.125 L 35.2 113.39565219879151 L 34.9 113.5 L 30.3 115.0 L 25.7 116.3 L 21.0 117.6 L 20.359090900421144 117.75 L 18.7 121.4 L 16.3 118.7 L 12.4 107.2 L 14.3 106.9 L 19.0 106.4 L 23.6 105.9 L 25.63561553955078 105.63448495864868 L 27.0 102.2 L 33.2 87.8 L 36.4 80.7 L 39.5 73.5 L 42.6 66.4 L 45.7 59.2 L 48.7 51.9 L 51.7 44.7 L 54.2372706413269 38.313077449798584 L 54.2 38.3 L 54.45619831085205 37.761983489990236 L 54.6 37.4 L 54.62357139587402 37.41049995422363 L 55.2 36.2 L 65.6 42.3 L 67.5 45.3 L 63.869976139068605 45.80947704315186 L 62.1 49.4 L 58.5 56.5 L 54.8 63.5 L 51.0 70.4 L 47.1 77.3 L 43.1 84.2 L 39.0 90.9 L 34.8 97.5 L 30.3 104.0 L 29.48940725326538 105.10378589630128 L 32.8 104.6 L 37.3 103.9 L 41.9 103.1 L 46.4 102.3 L 51.0 101.5 L 55.79876546859741 100.76975307464599 L 55.1 97.8 L 54.2 94.5 L 53.2 91.3 L 52.1 88.2 L 51.0 85.2 L 49.8 82.1 L 48.2 79.3 L 49.6 78.1 L 52.1 80.4 L 54.7 82.7 L 57.1 85.3 L 59.3 88.2 L 61.3 91.3 L 63.2 94.6 L 65.0 98.1 L 66.6 101.8 L 68.0 105.7 L 69.3 109.8 L 68.4 114.3 L 64.6 116.9 L 60.2 116.0 L 57.6 112.2 L 57.1 108.4 Z M 108.5 145.0 L 108.5 176.7 L 120.0 176.7 L 120.0 145.0 Z M 130.0 145.0 L 130.0 176.7 L 141.9 176.7 L 141.9 145.0 Z M 151.9 145.0 L 151.9 176.7 L 163.4 176.7 L 163.4 145.0 Z M 56.2 150.8 L 55.6 146.9 L 54.9 143.2 L 54.1 139.6 L 53.2 136.1 L 51.2 129.5 L 50.1 126.3 L 48.7 123.3 L 50.1 122.2 L 52.6 124.6 L 55.1 127.2 L 57.4 130.1 L 59.5 133.3 L 61.5 136.7 L 63.3 140.4 L 64.9 144.2 L 66.4 148.3 L 67.7 152.6 L 68.9 157.0 L 67.8 161.5 L 63.9 163.9 L 59.5 162.8 L 57.0 159.0 L 56.7 154.8 Z M 108.5 141.0 L 163.4 141.0 L 168.9 136.0 L 179.4 145.0 L 174.4 148.5 L 174.4 176.7 L 177.9 176.7 L 182.4 170.7 L 188.4 176.7 L 188.4 180.7 L 83.5 180.7 L 83.5 176.7 L 97.5 176.7 L 97.5 136.05217390060426 L 94.1 136.2 L 90.7 133.2 L 90.5 128.6 L 93.4 125.2 L 94.6 125.0 L 95.8 124.7 L 97.0 124.1 L 98.2 123.3 L 99.4 122.2 L 100.6 120.7 L 101.8 119.0 L 102.9 116.9 L 103.9 114.5 L 104.3 111.7 L 106.1 111.8 L 106.1 114.7 L 106.5 117.5 L 106.6 120.2 L 106.4 122.8 L 105.9 125.3 L 105.1 127.8 L 104.0 130.1 L 102.6 132.3 L 100.8 134.2 L 98.7 136.0 L 98.51599998474121 136.0079999923706 Z M 174.2 128.2 L 173.8 126.6 L 173.1 124.9 L 172.3 123.1 L 171.2 121.1 L 169.8 119.0 L 168.3 116.9 L 166.6 114.5 L 164.3 112.6 L 165.3 111.1 L 168.0 112.7 L 170.7 113.9 L 173.2 115.3 L 175.6 116.7 L 177.7 118.2 L 179.7 119.8 L 181.5 121.5 L 183.2 123.3 L 184.6 125.2 L 185.8 127.3 L 185.3 131.8 L 181.8 134.8 L 177.3 134.3 L 174.3 130.8 L 174.4 129.6 Z M 147.5 126.5 L 147.5 125.3 L 147.3 123.8 L 146.9 122.3 L 146.3 120.6 L 145.5 118.8 L 144.6 116.8 L 143.4 114.8 L 141.6 113.1 L 142.7 111.7 L 144.8 113.2 L 147.1 114.3 L 149.1 115.5 L 151.0 116.8 L 152.8 118.2 L 154.4 119.7 L 155.8 121.4 L 157.1 123.2 L 158.1 125.2 L 158.9 127.3 L 157.6 131.6 L 153.6 133.9 L 149.2 132.5 L 147.0 128.5 L 147.3 127.6 Z M 126.4 133.9 L 122.4 131.6 L 121.1 127.3 L 121.6 126.4 L 122.0 125.4 L 122.3 124.3 L 122.5 123.0 L 122.6 121.6 L 122.5 120.1 L 122.2 118.4 L 121.8 116.6 L 121.2 114.7 L 120.0 113.1 L 121.3 111.9 L 122.8 113.4 L 124.6 114.6 L 126.3 115.9 L 127.7 117.3 L 129.1 118.9 L 130.3 120.6 L 131.3 122.4 L 132.1 124.3 L 132.7 126.4 L 133.0 128.5 L 130.8 132.5 Z M 90.0 102.4 L 131.5 102.4 L 131.5 89.9 L 98.5 89.9 L 98.5 85.9 L 131.5 85.9 L 131.5 73.0 L 110.2 73.0 L 99.2 78.5 L 99.2 31.8 L 110.2 37.3 L 164.2 37.3 L 170.2 32.3 L 181.2 41.3 L 176.2 45.3 L 176.2 73.0 L 167.11428575515748 77.54285717010498 L 176.4 85.9 L 176.4 89.9 L 143.5 89.9 L 143.5 102.4 L 166.71818180084227 102.4 L 174.9 93.4 L 184.9 102.4 L 184.9 106.4 L 90.0 106.4 Z M 143.5 73.0 L 143.5 85.9 L 158.21818180084227 85.9 L 164.73333330154418 78.73333330154419 L 164.2 79.0 L 164.2 73.0 Z M 25.1 68.5 L 24.2 65.5 L 23.1 62.6 L 21.9 59.8 L 20.5 57.0 L 19.0 54.2 L 17.4 51.5 L 15.6 48.7 L 13.4 46.3 L 14.5 44.9 L 17.4 46.7 L 20.4 48.5 L 23.2 50.6 L 25.525533390045165 52.58100996017456 L 25.9 51.4 L 27.1 47.2 L 28.4 43.1 L 29.8 39.1 L 31.1 35.0 L 32.5 30.9 L 33.8 26.9 L 35.1 22.8 L 36.4 18.8 L 37.32550230026245 15.637867069244384 L 37.2 15.6 L 38.1 13.3 L 48.8 19.1 L 50.9 22.0 L 47.06505794525147 22.661196899414062 L 46.9 23.0 L 44.9 26.9 L 42.8 30.8 L 38.6 38.4 L 34.0 45.8 L 31.5 49.4 L 28.9 52.9 L 27.534241199493408 54.67042798995972 L 28.3 55.5 L 30.6 58.3 L 32.7 61.3 L 34.7 64.5 L 36.4 67.8 L 37.9 71.4 L 37.4 75.9 L 33.9 78.8 L 29.3 78.3 L 26.4 74.8 L 25.8 71.6 Z M 110.2 41.3 L 110.2 69.0 L 131.5 69.0 L 131.5 41.3 Z M 143.5 41.3 L 143.5 69.0 L 164.2 69.0 L 164.2 51.66428575515747 L 160.91428575515747 52.36836738586426 L 159.9 53.6 L 158.3 55.3 L 156.6 56.9 L 154.7 58.5 L 152.7 60.2 L 150.5 61.8 L 148.2 63.4 L 146.0 65.3 L 144.7 64.1 L 146.5 61.8 L 147.7 59.3 L 148.8 57.0 L 149.8 54.8 L 150.6 52.7 L 151.3 50.8 L 151.8 49.0 L 152.2 47.4 L 152.3 45.9 L 152.3 45.67179489135742 L 152.0 45.6 L 152.3 44.6625 L 152.3 44.6 L 152.31807231903076 44.60602407455444 L 152.8 43.1 L 163.7 48.4 L 164.2 49.05909090042114 L 164.2 41.3 Z M 119.1 58.0 L 119.0 56.7 L 118.7 55.3 L 118.3 53.9 L 117.7 52.3 L 117.0 50.7 L 116.1 49.1 L 115.0 47.3 L 113.5 46.0 L 114.5 44.5 L 116.3 45.6 L 118.4 46.4 L 120.3 47.3 L 122.1 48.3 L 123.8 49.4 L 125.4 50.7 L 126.9 52.1 L 128.3 53.6 L 129.5 55.3 L 130.6 57.1 L 130.0 61.6 L 126.4 64.5 L 121.9 63.9 L 119.0 60.3 L 119.1 59.2 Z " />
</g>
</svg>
