<svg xmlns="http://www.w3.org/2000/svg" xmlns:xlink="http://www.w3.org/1999/xlink" version="1.1" baseProfile="full" viewBox="0 0 200 200" width="200" height="200">
<g fill="black">
<path d="M 160.5 181.4 L 158.5 182.6 L 156.5 183.7 L 154.3 184.6 L 152.1 185.4 L 149.9 185.9 L 147.6 186.3 L 145.2 186.6 L 142.8 186.7 L 142.8 180.7 L 122.8 177.7 L 122.8 174.7 L 142.8 174.7 L 144.4 174.6 L 145.9 174.5 L 148.7 173.9 L 150.0 173.4 L 152.6 172.2 L 153.9 171.4 L 155.1 170.5 L 156.3 169.5 L 158.2 167.4 L 160.2 164.4 L 162.1 160.4 L 163.9 155.5 L 165.5 149.7 L 167.0 143.0 L 168.1 135.4 L 169.1 127.0 L 169.8 117.7 L 170.1910891532898 109.8 L 148.99279108047486 109.8 L 147.1 122.6 L 134.3 126.6 L 143.57512693405153 69.5 L 117.39887638092041 69.5 L 116.6 85.3 L 114.7 101.8 L 111.6 117.1 L 107.5 131.2 L 102.2 144.0 L 95.8 155.6 L 88.3 165.8 L 79.7 174.6 L 70.0 181.9 L 59.3 187.7 L 58.4 186.1 L 67.7 178.9 L 75.9 170.8 L 83.1 161.8 L 89.2 151.7 L 94.4 140.6 L 98.6 128.4 L 101.8 114.9 L 104.0 100.3 L 105.3 84.5 L 105.47647056579589 69.5 L 85.2 69.5 L 85.2 65.5 L 144.0 65.5 L 150.0 60.5 L 161.0 69.5 L 156.0 72.5 L 154.41057119369506 73.16226196289062 L 149.58428831100463 105.8 L 170.3 105.8 L 176.3 100.8 L 187.3 109.8 L 182.3 112.8 L 182.06680164337158 112.89716596603394 L 181.8 118.5 L 181.1 128.2 L 180.0 137.0 L 178.8 145.2 L 177.2 152.5 L 175.4 159.1 L 173.2 165.0 L 170.7 170.2 L 167.7 174.7 L 164.3 178.5 L 162.5 180.0 Z M 65.4 158.0 L 61.8 154.8 L 59.2805139541626 152.89502277374268 L 52.9 161.0 L 44.6 169.3 L 35.4 176.4 L 25.3 182.3 L 14.3 186.9 L 13.6 185.3 L 23.3 179.0 L 32.1 172.1 L 40.0 164.5 L 47.0 156.2 L 52.3186713218689 148.17839736938475 L 48.3 145.8 L 43.0 142.9 L 37.3 140.2 L 31.2 137.4 L 31.06688117980957 137.34060850143433 L 30.1 139.9 L 26.5 148.8 L 15.4 144.3 L 18.9 135.5 L 22.2 126.7 L 25.4 117.8 L 28.5 108.9 L 31.4 99.9 L 34.2 90.8 L 34.28571424484253 90.5 L 14.0 90.5 L 14.0 86.5 L 35.42857141494751 86.5 L 36.8 81.7 L 39.3 72.5 L 41.7 63.3 L 43.9 54.0 L 43.91361255645752 54.00314140319824 L 44.3 52.2 L 55.6 56.7 L 58.1 59.3 L 54.69612369537354 60.394103050231934 L 53.3 66.1 L 50.9 75.6 L 48.4 84.9 L 47.935483837127684 86.5 L 71.0 86.5 L 77.0 81.5 L 88.0 90.5 L 83.0 93.5 L 82.0523154258728 93.89486856460572 L 80.3 103.6 L 76.7 117.1 L 72.2 129.6 L 66.7 141.1 L 64.43217000961303 144.82065858840943 L 67.5 146.6 L 72.2 149.6 L 76.5 153.0 L 80.4 156.6 L 81.9 160.9 L 79.9 165.1 L 75.6 166.5 L 71.5 164.6 L 68.6 161.2 Z M 46.774193572998044 90.5 L 45.7 94.2 L 42.9 103.5 L 39.9 112.7 L 36.8 121.8 L 33.5 130.9 L 32.43181676864624 133.72754383087158 L 39.0 135.1 L 45.4 136.8 L 51.5 138.9 L 56.35476226806641 140.8589391708374 L 58.4 137.0 L 62.8 126.0 L 66.4 114.2 L 69.1 101.4 L 70.61167879104615 90.5 Z M 134.0 14.2 L 137.0 16.2 L 134.0 18.0 L 134.0 33.7 L 165.0 33.7 L 175.0 23.7 L 187.0 33.7 L 187.0 37.7 L 134.0 37.7 L 134.0 54.3 L 122.0 60.3 L 122.0 37.7 L 78.0 37.7 L 78.0 54.3 L 66.0 60.3 L 66.0 37.7 L 13.0 37.7 L 13.0 33.7 L 66.0 33.7 L 66.0 12.2 L 78.0 14.2 L 81.0 16.2 L 78.0 18.0 L 78.0 33.7 L 122.0 33.7 L 122.0 12.2 Z " />
</g>
</svg>
