<svg xmlns="http://www.w3.org/2000/svg" xmlns:xlink="http://www.w3.org/1999/xlink" version="1.1" baseProfile="full" viewBox="0 0 200 200" width="200" height="200">
<g fill="black">
<path d="M 139.7 105.0 L 142.7 107.0 L 139.7 108.8 L 139.7 124.0 L 138.8 134.1 L 136.6 143.6 L 133.1 152.3 L 128.3 160.3 L 122.4 167.3 L 115.3 173.4 L 107.0 178.7 L 97.8 183.0 L 87.4 186.4 L 76.0 188.8 L 75.5 187.1 L 86.1 182.8 L 95.5 178.2 L 103.6 173.1 L 110.4 167.6 L 116.1 161.6 L 120.5 155.2 L 123.9 148.2 L 126.2 140.8 L 127.5 132.7 L 127.7 124.0 L 127.7 103.0 Z M 74.8 23.1 L 76.8 26.1 L 72.93446855545044 26.69982385635376 L 71.5 29.4 L 69.6 32.8 L 67.6 36.5 L 65.5 40.3 L 63.3 44.3 L 60.9 48.6 L 58.3 53.0 L 55.5 57.5 L 53.9375 60.0 L 60.6 60.0 L 70.6 50.0 L 82.6 60.0 L 82.6 64.0 L 53.6 64.0 L 53.6 93.0 L 58.2 93.0 L 68.2 83.0 L 80.2 93.0 L 80.2 97.0 L 53.445588207244874 97.0 L 52.9 107.6 L 51.5 120.4 L 50.094958019256595 128.0 L 61.5 128.0 L 71.5 118.0 L 83.5 128.0 L 83.5 132.0 L 49.35546216964722 132.0 L 49.3 132.3 L 46.3 143.4 L 42.6 153.5 L 38.1 162.6 L 32.8 170.8 L 26.7 177.9 L 19.8 183.9 L 12.2 188.7 L 11.2 187.2 L 17.3 181.1 L 22.6 174.5 L 27.3 167.2 L 31.3 159.2 L 34.7 150.4 L 37.4 140.9 L 39.09523811340332 132.0 L 13.4 132.0 L 13.4 128.0 L 39.7 128.0 L 40.8 119.2 L 41.5 107.0 L 41.576923084259036 97.0 L 18.3 97.0 L 18.3 93.0 L 41.6 93.0 L 41.6 64.0 L 14.2 64.0 L 14.2 60.0 L 51.24444446563721 60.0 L 52.3 56.2 L 53.7 51.0 L 55.2 46.1 L 56.6 41.5 L 58.0 37.1 L 59.3 32.9 L 60.5 29.0 L 61.6 25.3 L 62.7 21.8 L 63.40816831588745 19.533861351013183 L 63.3 19.5 L 64.2 17.3 Z M 169.4 179.7 L 167.2 177.0 L 164.5 174.2 L 161.4 171.3 L 157.8 168.3 L 153.8 165.2 L 149.4 162.1 L 144.6 158.7 L 139.4 155.2 L 140.2 153.6 L 146.2 155.5 L 151.8 157.5 L 157.0 159.8 L 161.8 162.1 L 166.2 164.5 L 170.2 167.1 L 173.9 169.7 L 177.2 172.4 L 180.1 175.2 L 182.7 178.2 L 183.4 182.7 L 180.9 186.5 L 176.4 187.2 L 172.6 184.7 L 171.2 182.3 Z M 104.2 90.0 L 161.2 90.0 L 167.2 85.0 L 178.2 94.0 L 173.2 98.0 L 173.2 154.4 L 161.2 160.4 L 161.2 94.0 L 104.2 94.0 L 104.2 156.1 L 92.2 162.1 L 92.2 84.0 Z M 158.9 43.0 L 161.6 45.0 L 158.9 46.723404216766355 L 158.9 63.0 L 165.5 63.0 L 175.5 53.0 L 187.5 63.0 L 187.5 67.0 L 158.9 67.0 L 158.9 81.2 L 147.9 86.7 L 147.9 67.0 L 117.5 67.0 L 117.5 81.2 L 106.5 86.7 L 106.5 67.0 L 84.0 67.0 L 84.0 63.0 L 106.5 63.0 L 106.5 41.0 L 117.5 43.0 L 120.2 45.0 L 117.5 46.723404216766355 L 117.5 63.0 L 147.9 63.0 L 147.9 41.0 Z M 137.7 14.0 L 140.2 16.0 L 137.7 17.66666669845581 L 137.7 31.0 L 158.3 31.0 L 168.3 21.0 L 180.3 31.0 L 180.3 35.0 L 137.7 35.0 L 137.7 49.5 L 127.7 54.5 L 127.7 35.0 L 86.1 35.0 L 86.1 31.0 L 127.7 31.0 L 127.7 12.0 Z M 29.3 43.1 L 28.8 40.3 L 28.2 37.4 L 27.5 34.5 L 26.6 31.7 L 25.6 28.8 L 24.4 26.0 L 23.2 23.0 L 21.5 20.3 L 22.8 19.1 L 25.3 21.4 L 27.9 23.5 L 30.2 25.9 L 32.4 28.5 L 34.4 31.3 L 36.2 34.1 L 37.8 37.2 L 39.2 40.3 L 40.5 43.6 L 41.6 47.0 L 40.5 51.4 L 36.7 53.9 L 32.2 52.8 L 29.8 49.0 L 29.6 46.1 Z " />
</g>
</svg>
