<svg xmlns="http://www.w3.org/2000/svg" xmlns:xlink="http://www.w3.org/1999/xlink" version="1.1" baseProfile="full" viewBox="0 0 200 200" width="200" height="200">
<g fill="black">
<path d="M 31.5 22.0 L 56.8 22.0 L 62.8 17.0 L 73.8 26.0 L 68.8 30.0 L 68.8 171.0 L 68.6 173.5 L 68.2 176.0 L 67.4 178.4 L 66.2 180.7 L 64.5 182.7 L 62.5 184.3 L 60.2 185.6 L 57.8 186.4 L 55.3 186.8 L 52.8 187.0 L 52.8 181.0 L 36.8 178.0 L 36.8 175.0 L 52.8 175.0 L 54.0 174.9 L 54.9 174.7 L 55.5 174.5 L 55.9 174.4 L 56.0 174.2 L 56.2 174.0 L 56.4 173.7 L 56.6 173.1 L 56.7 172.2 L 56.8 171.0 L 56.8 114.0 L 31.5 114.0 L 31.5 118.0 L 31.1 128.7 L 30.3 138.7 L 29.2 147.9 L 27.7 156.3 L 26.0 163.8 L 23.8 170.6 L 21.3 176.5 L 18.4 181.6 L 15.0 185.6 L 11.3 188.6 L 10.0 187.3 L 11.9 183.5 L 13.6 179.1 L 15.2 174.2 L 16.5 168.5 L 17.7 162.1 L 18.6 154.8 L 19.2 146.8 L 19.6 138.0 L 19.7 128.4 L 19.5 118.0 L 19.5 16.0 Z M 158.2 178.4 L 149.3 174.8 L 141.1 170.4 L 133.7 165.2 L 133.07228260040284 164.64836959838868 L 124.6 170.7 L 114.2 176.5 L 103.0 181.2 L 91.3 184.7 L 78.9 186.9 L 65.9 187.8 L 65.7 186.1 L 78.2 183.2 L 89.8 179.5 L 100.6 175.1 L 110.6 169.8 L 119.8 163.7 L 126.26734943389893 158.43587837219238 L 121.4 152.8 L 116.6 145.6 L 112.7 137.7 L 111.59853973388672 134.23243989944459 L 109.9 136.8 L 105.3 142.9 L 100.3 148.7 L 95.0 154.1 L 89.3 159.1 L 83.2 163.6 L 76.7 167.7 L 75.6 166.2 L 80.7 160.8 L 85.5 155.3 L 90.1 149.7 L 94.4 143.9 L 98.4 138.0 L 102.1 131.8 L 105.4 125.4 L 108.5 118.8 L 111.2 111.9 L 113.3717791557312 105.81901836395264 L 113.3 105.8 L 114.2 103.4 L 125.0 108.9 L 127.1 111.8 L 123.37935037612915 112.58329467773437 L 121.7 116.4 L 119.87464790344238 120.0 L 154.9 120.0 L 155.20837984085082 119.74301671981812 L 155.5 119.2 L 155.7226589202881 119.31445083618163 L 160.9 115.0 L 171.9 124.0 L 166.9 127.0 L 164.14280157089235 128.14883270263672 L 159.4 136.1 L 151.8 146.4 L 143.5 155.6 L 140.39953985214234 158.35975017547608 L 146.0 161.4 L 153.5 164.6 L 161.7 167.1 L 170.6 169.1 L 180.1 170.4 L 190.2 171.8 L 178.3 183.5 L 167.9 181.3 Z M 117.81323528289795 124.0 L 114.2 130.3 L 113.52035837173462 131.32736520767213 L 116.4 135.8 L 121.4 142.3 L 126.8 148.1 L 132.17600374221803 152.82717571258544 L 136.2 148.7 L 143.3 139.8 L 149.7 130.0 L 152.9222222328186 124.0 Z M 31.5 69.0 L 31.5 110.0 L 56.8 110.0 L 56.8 69.0 Z M 151.2 108.9 L 148.8 108.6 L 146.5 107.9 L 144.3 106.8 L 142.3 105.3 L 140.6 103.5 L 139.4 101.3 L 138.5 99.0 L 137.9 96.5 L 137.7 94.0 L 137.7 75.0 L 120.42941179275513 75.0 L 126.2 77.7 L 128.5 80.5 L 124.6501009941101 81.44558925628662 L 123.8 83.5 L 120.9 89.1 L 117.6 94.4 L 113.8 99.4 L 109.7 104.2 L 105.1 108.6 L 100.0 112.7 L 94.6 116.5 L 88.7 119.8 L 82.3 122.7 L 81.4 121.2 L 86.5 116.7 L 91.3 112.2 L 95.7 107.8 L 99.6 103.3 L 103.2 98.7 L 106.3 94.0 L 109.0 89.2 L 111.3 84.3 L 113.2 79.3 L 114.52154693603515 75.00497236251832 L 114.5 75.0 L 102.8 75.0 L 102.8 87.0 L 90.8 93.0 L 90.8 16.0 L 102.8 22.0 L 162.9 22.0 L 168.9 17.0 L 179.9 26.0 L 174.9 30.0 L 174.9 81.0 L 162.9 87.0 L 162.9 75.0 L 149.7 75.0 L 149.7 96.1 L 149.8 96.8 L 150.0 97.2 L 150.1 97.6 L 150.3 97.9 L 150.7 98.2 L 151.4 98.5 L 152.4 98.8 L 153.7 99.0 L 177.6 99.0 L 182.6 82.0 L 184.6 82.0 L 182.6 99.0 L 185.6 101.0 L 187.6 104.0 L 185.6 107.0 L 182.6 109.0 L 153.7 109.0 Z M 102.8 49.0 L 102.8 71.0 L 125.1 71.0 L 125.1 49.0 Z M 137.1 49.0 L 137.1 71.0 L 162.9 71.0 L 162.9 49.0 Z M 31.5 26.0 L 31.5 65.0 L 56.8 65.0 L 56.8 26.0 Z M 102.8 26.0 L 102.8 45.0 L 125.1 45.0 L 125.1 26.0 Z M 137.1 26.0 L 137.1 45.0 L 162.9 45.0 L 162.9 26.0 Z " />
</g>
</svg>
