<svg xmlns="http://www.w3.org/2000/svg" xmlns:xlink="http://www.w3.org/1999/xlink" version="1.1" baseProfile="full" viewBox="0 0 200 200" width="200" height="200">
<g fill="black">
<path d="M 91.1 66.7 L 93.9 68.7 L 91.1 70.45 L 91.1 182.9 L 80.1 188.4 L 80.1 64.7 Z M 153.1 176.9 L 168.6 176.9 L 169.5 176.8 L 170.2 176.7 L 170.8 176.4 L 171.0 176.2 L 171.1 176.0 L 171.4 175.5 L 171.6 174.8 L 171.7 173.7 L 171.8 172.4 L 171.8 62.9 L 117.0 62.9 L 117.0 58.9 L 171.8 58.9 L 177.3 53.9 L 187.8 62.9 L 182.8 66.4 L 182.8 172.4 L 182.7 174.8 L 182.3 177.1 L 181.7 179.4 L 180.7 181.5 L 179.3 183.5 L 177.5 185.1 L 175.4 186.4 L 173.2 187.3 L 170.9 187.7 L 168.6 187.9 L 168.6 182.4 L 153.1 179.6 Z M 55.2 99.0 L 55.2 44.0 L 34.2 44.0 L 34.2 98.0 L 34.16062994003296 99.0 Z M 151.4 155.7 L 147.8 150.9 L 145.8 148.5 L 143.7 146.2 L 141.5 143.9 L 139.1 141.6 L 138.1 140.6 L 138.1 172.5 L 126.1 178.5 L 126.1 148.46216220855712 L 125.3 149.5 L 121.5 154.0 L 117.4 158.1 L 113.1 161.8 L 108.6 165.2 L 103.8 168.2 L 98.9 170.6 L 93.7 172.6 L 92.8 171.0 L 96.8 167.4 L 100.6 163.9 L 104.3 160.2 L 107.8 156.4 L 111.1 152.3 L 114.3 148.1 L 117.2 143.7 L 119.9 139.0 L 122.5 134.0 L 122.71999998092652 133.5 L 111.8 133.5 L 111.8 140.5 L 100.8 146.0 L 100.8 93.0 L 111.8 98.5 L 126.1 98.5 L 126.1 88.3 L 95.9 88.3 L 95.9 84.3 L 126.1 84.3 L 126.1 69.2 L 138.1 71.2 L 141.1 73.2 L 138.1 75.0 L 138.1 84.3 L 151.9181818008423 84.3 L 160.1 75.3 L 170.1 84.3 L 170.1 88.3 L 138.1 88.3 L 138.1 98.5 L 151.9 98.5 L 157.4 93.5 L 167.9 102.5 L 162.9 106.0 L 162.9 133.5 L 151.9 139.0 L 151.9 133.5 L 138.1 133.5 L 138.1 136.8 L 141.4 138.0 L 144.6 139.4 L 147.7 140.9 L 150.7 142.6 L 153.6 144.5 L 156.4 146.5 L 159.0 148.7 L 161.6 151.0 L 164.0 153.4 L 165.1 157.8 L 162.8 161.8 L 158.4 162.9 L 154.4 160.6 L 153.0 158.1 Z M 42.0 137.9 L 41.7 134.4 L 41.3 131.1 L 40.8 127.9 L 40.2 124.9 L 39.4 122.1 L 38.6 119.4 L 37.7 116.7 L 36.4 114.3 L 37.8 113.1 L 40.0 115.0 L 42.3 117.1 L 44.4 119.5 L 46.3 122.3 L 48.1 125.4 L 49.6 128.7 L 51.0 132.2 L 52.2 136.1 L 53.3 140.1 L 54.1 144.4 L 52.7 148.8 L 48.7 150.9 L 44.4 149.5 L 42.2 145.5 L 42.1 141.6 Z M 117.5 122.1 L 117.2 120.6 L 116.8 119.1 L 116.3 117.5 L 115.7 115.8 L 114.1 112.2 L 113.3 110.2 L 111.9 108.7 L 113.1 107.4 L 114.8 108.8 L 116.7 109.7 L 118.6 110.8 L 122.0 113.2 L 125.0 115.8 L 126.1 116.9 L 126.1 102.5 L 111.8 102.5 L 111.8 129.5 L 126.1 129.5 L 126.1 127.584375 L 125.6 128.1 L 121.0 128.0 L 117.7 124.8 L 117.6 123.5 Z M 150.6 116.1 L 147.2 119.7 L 145.4 121.5 L 143.5 123.3 L 141.6 124.9 L 139.5 126.5 L 138.1 127.98235292434693 L 138.1 129.5 L 151.9 129.5 L 151.9 114.45333337783813 Z M 138.1 102.5 L 138.1 123.76666669845581 L 138.5 122.7 L 139.3 120.4 L 140.2 118.1 L 141.0 115.8 L 141.7 113.6 L 142.5 111.4 L 143.1 109.3 L 143.8 107.1 L 144.07015972137452 105.96532917022705 L 143.9 105.9 L 144.2545454978943 105.19090909957886 L 144.3 105.0 L 144.34029846191407 105.01940298080444 L 144.9 103.9 L 151.9 108.2235294342041 L 151.9 102.5 Z M 41.2 77.9 L 40.9 74.4 L 40.5 71.1 L 40.0 67.9 L 39.4 64.9 L 38.7 62.1 L 37.9 59.4 L 37.0 56.7 L 35.7 54.3 L 37.0 53.1 L 39.2 55.0 L 41.6 57.1 L 43.7 59.5 L 45.6 62.3 L 47.3 65.4 L 48.9 68.7 L 50.3 72.2 L 51.5 76.1 L 52.5 80.1 L 53.4 84.4 L 52.0 88.8 L 48.0 90.9 L 43.6 89.5 L 41.4 85.5 L 41.4 81.6 Z M 100.1 63.1 L 99.4 61.0 L 98.5 58.8 L 97.4 56.7 L 96.0 54.5 L 94.3 52.3 L 92.4 50.1 L 90.1 47.8 L 87.4 45.9 L 88.2 44.3 L 91.4 45.6 L 94.6 46.7 L 97.6 48.1 L 100.4 49.8 L 103.0 51.7 L 105.4 53.8 L 107.5 56.2 L 109.4 58.8 L 111.0 61.6 L 112.3 64.6 L 111.6 69.1 L 107.9 71.9 L 103.4 71.1 L 100.7 67.5 L 100.5 65.3 Z M 155.8 13.5 L 158.8 15.5 L 155.8 17.3 L 155.8 29.6 L 166.4 29.6 L 176.4 19.6 L 188.4 29.6 L 188.4 33.6 L 155.8 33.6 L 155.8 47.0 L 143.8 53.0 L 143.8 33.6 L 119.1 33.6 L 119.1 47.0 L 107.1 53.0 L 107.1 33.6 L 74.5 33.6 L 74.5 29.6 L 107.1 29.6 L 107.1 11.5 L 119.1 13.5 L 122.1 15.5 L 119.1 17.3 L 119.1 29.6 L 143.8 29.6 L 143.8 11.5 Z M 66.6 176.0 L 65.8 178.4 L 64.6 180.7 L 62.9 182.7 L 60.9 184.3 L 58.7 185.6 L 56.3 186.4 L 53.8 186.8 L 51.2 187.0 L 51.2 181.0 L 35.2 178.0 L 35.2 175.0 L 51.2 175.0 L 52.4 174.9 L 53.3 174.7 L 53.9 174.5 L 54.3 174.4 L 54.5 174.2 L 54.6 174.0 L 54.8 173.7 L 55.0 173.1 L 55.1 172.2 L 55.2 171.0 L 55.2 103.0 L 34.003149604797365 103.0 L 33.7 110.7 L 32.9 122.7 L 31.7 133.8 L 30.2 144.2 L 28.2 153.7 L 25.9 162.4 L 23.3 170.3 L 20.1 177.3 L 16.5 183.4 L 12.5 188.4 L 10.9 187.5 L 13.1 181.7 L 15.1 175.4 L 17.0 168.4 L 18.6 160.7 L 19.9 152.2 L 21.0 142.9 L 21.7 132.9 L 22.2 122.0 L 22.3 110.4 L 22.240322589874268 103.0 L 11.7 103.0 L 11.7 99.0 L 22.208064556121826 99.0 L 22.2 98.0 L 22.2 34.0 L 34.2 40.0 L 35.48928575515747 40.0 L 36.0 38.7 L 36.7 35.8 L 38.1 30.2 L 39.3 24.8 L 39.8 22.1 L 40.6 16.9 L 40.78783292770386 15.334725379943848 L 40.6 15.3 L 41.3 12.7 L 52.5 17.5 L 54.9 20.2 L 50.64166669845581 21.41666669845581 L 48.7 25.3 L 47.2 27.9 L 45.7 30.4 L 44.0 32.9 L 42.2 35.3 L 40.3 37.7 L 38.3 40.0 L 55.2 40.0 L 61.2 35.0 L 72.2 44.0 L 67.2 48.0 L 67.2 171.0 L 67.1 173.5 Z " />
</g>
</svg>
