<svg xmlns="http://www.w3.org/2000/svg" xmlns:xlink="http://www.w3.org/1999/xlink" version="1.1" baseProfile="full" viewBox="0 0 200 200" width="200" height="200">
<g fill="black">
<path d="M 158.9 179.2 L 157.0 180.5 L 154.9 181.7 L 152.8 182.7 L 150.6 183.5 L 148.3 184.1 L 146.0 184.6 L 143.6 184.9 L 141.2 185.0 L 141.2 179.0 L 121.2 176.0 L 121.2 173.0 L 141.2 173.0 L 142.8 172.9 L 145.6 172.5 L 146.9 172.1 L 148.2 171.6 L 149.4 171.1 L 150.5 170.4 L 151.7 169.6 L 152.8 168.7 L 153.9 167.6 L 154.7 166.6 L 155.7 165.0 L 156.6 162.7 L 157.6 159.9 L 158.4 156.4 L 159.2 152.4 L 159.8 147.8 L 160.4 142.6 L 160.8 136.9 L 160.98870964050292 133.0 L 123.0319149017334 133.0 L 119.1 141.8 L 114.2 150.6 L 108.3 158.7 L 101.7 166.2 L 94.2 173.0 L 85.9 179.0 L 76.8 184.3 L 66.9 188.8 L 66.1 187.1 L 74.8 181.1 L 82.7 174.7 L 89.8 168.1 L 96.0 161.1 L 101.5 153.7 L 106.1 145.9 L 110.0 137.6 L 113.1 128.9 L 115.5 119.7 L 116.50114946365356 113.0 L 76.7 113.0 L 76.7 109.0 L 163.1 109.0 L 173.1 99.0 L 185.1 109.0 L 185.1 113.0 L 128.64857139587403 113.0 L 126.5 122.4 L 124.38800001144409 129.0 L 161.1 129.0 L 167.1 124.0 L 178.1 133.0 L 173.1 136.0 L 172.76852588653566 136.13811416625975 L 172.7 137.6 L 172.3 143.7 L 171.7 149.2 L 171.0 154.3 L 170.1 158.9 L 169.1 163.1 L 167.9 166.9 L 166.4 170.3 L 164.7 173.4 L 162.5 176.0 L 160.8 177.7 Z M 15.2 166.0 L 21.3 163.8 L 27.5 161.4 L 33.9 159.1 L 40.4 156.7 L 47.0 154.2 L 53.8 151.7 L 60.8 149.2 L 67.9 146.8 L 75.2 144.4 L 82.7 142.1 L 83.4 143.8 L 76.7 147.9 L 70.1 151.7 L 63.4 155.3 L 56.9 158.7 L 50.4 162.0 L 44.1 165.2 L 37.9 168.3 L 31.7 171.3 L 25.7 174.2 L 23.608997917175294 175.22778072357178 L 22.9 179.1 L 19.8 177.1 L 13.3 166.8 Z M 17.43312301635742 124.23690853118896 L 17.5 123.1 L 20.8 121.2 L 24.6 117.5 L 29.1 111.8 L 34.0 104.6 L 39.2 96.1 L 44.6 86.8 L 46.83326616287231 82.67056455612183 L 44.9 83.3 L 36.5 85.7 L 32.4 86.8 L 24.4 88.8 L 20.861078643798827 89.70741577148438 L 19.1 93.4 L 16.7 90.7 L 13.0 79.2 L 14.11673469543457 79.02367343902588 L 16.6 77.4 L 19.5 74.1 L 22.7 69.1 L 26.3 62.8 L 29.8 55.6 L 33.4 47.7 L 36.7 39.7 L 39.8 31.9 L 42.5 24.7 L 44.454093551635744 19.517403984069823 L 44.4 19.5 L 45.3 17.3 L 55.9 23.2 L 57.9 26.2 L 54.20357141494751 26.70985221862793 L 53.0 29.2 L 49.7 36.2 L 45.9 43.9 L 41.7 51.8 L 37.3 59.6 L 32.8 66.8 L 28.1 73.0 L 23.3 77.8 L 22.262405967712404 78.42687969207763 L 22.8 78.4 L 26.9 78.1 L 31.0 77.9 L 35.2 77.6 L 39.5 77.4 L 43.9 77.2 L 48.3 77.1 L 49.845918369293216 77.1 L 55.2 67.2 L 60.3 57.6 L 64.68242807388306 49.64007968902588 L 64.6 49.6 L 65.7 47.9 L 75.5 54.9 L 77.0 58.1 L 73.44224939346313 58.16134052276611 L 70.2 63.3 L 64.5 72.5 L 58.6 82.1 L 52.5 91.6 L 46.3 100.7 L 40.2 109.0 L 34.1 116.0 L 28.3 121.4 L 27.38344430923462 121.91455755233764 L 29.6 121.4 L 40.8 119.0 L 46.5 117.8 L 52.2 116.7 L 58.0 115.6 L 63.9 114.6 L 69.8 113.7 L 75.8 113.1 L 76.3 114.8 L 70.8 117.4 L 65.3 119.7 L 59.8 121.9 L 54.3 124.0 L 48.8 126.0 L 43.3 127.9 L 27.1 133.6 L 25.798160076141357 134.04213428497314 L 24.6 137.8 L 21.8 135.4 L 16.6 124.5 Z M 131.1 99.5 L 130.2 97.7 L 129.1 95.7 L 127.7 93.7 L 126.0 91.5 L 124.1 89.3 L 121.9 86.9 L 119.5 84.4 L 116.6 82.2 L 117.5 80.7 L 120.8 82.3 L 124.2 83.6 L 127.3 85.0 L 130.1 86.5 L 132.8 88.1 L 135.2 89.8 L 137.4 91.6 L 139.5 93.5 L 141.3 95.5 L 143.0 97.7 L 143.1 102.2 L 140.1 105.7 L 135.5 105.8 L 132.1 102.8 L 131.7 101.2 Z M 74.1 100.5 L 73.4 96.0 L 76.1 92.3 L 77.9 91.4 L 79.6 90.2 L 81.4 88.6 L 83.0 86.5 L 84.6 84.0 L 86.1 80.9 L 87.4 77.4 L 88.6 73.4 L 89.8 68.9 L 90.4 64.0 L 92.2 64.0 L 92.7 69.0 L 93.1 73.8 L 93.1 74.0 L 138.75625 74.0 L 139.6 72.2 L 141.0 68.8 L 142.3 65.6 L 143.7 62.4 L 147.6 53.4 L 148.8 50.5 L 150.8308952331543 45.76124458312988 L 150.7 45.7 L 151.7 43.9 L 161.6 50.8 L 163.2 54.0 L 159.11446542739867 54.0704402923584 L 157.8 55.8 L 155.8 58.3 L 151.6 63.5 L 149.3 66.1 L 147.0 68.6 L 144.6 71.2 L 142.0 73.7 L 141.73214282989503 74.0 L 171.2 74.0 L 171.78235292434692 73.51470584869385 L 172.1 72.8 L 172.4101351737976 72.99155406951904 L 177.2 69.0 L 188.2 78.0 L 183.2 81.0 L 179.5138461112976 82.53589744567871 L 178.2 84.1 L 176.0 86.6 L 173.7 89.1 L 168.8 94.0 L 166.1 96.4 L 163.3 98.8 L 160.4 101.1 L 157.6 103.5 L 156.2 102.4 L 158.3 99.2 L 160.0 96.0 L 163.4 89.8 L 165.1 86.9 L 168.1 81.1 L 169.65 78.0 L 93.1 78.0 L 93.1 78.4 L 92.7 82.6 L 92.0 86.6 L 90.9 90.4 L 89.4 93.9 L 87.5 97.1 L 85.2 100.0 L 82.3 102.5 L 77.8 103.2 Z M 108.7 62.9 L 108.4 61.2 L 107.9 59.3 L 107.1 57.3 L 106.1 55.2 L 104.9 53.0 L 103.4 50.8 L 101.8 48.3 L 99.5 46.3 L 100.6 44.8 L 103.2 46.5 L 106.0 47.9 L 108.5 49.4 L 110.9 51.1 L 113.0 52.9 L 114.9 54.8 L 116.7 56.9 L 118.2 59.1 L 119.5 61.5 L 120.5 64.0 L 119.4 68.4 L 115.6 70.9 L 111.1 69.9 L 108.6 66.0 L 108.7 64.5 Z M 182.9 39.0 L 182.9 43.0 L 82.3 43.0 L 82.3 39.0 L 160.9 39.0 L 170.9 29.0 Z M 128.9 30.6 L 128.1 28.9 L 127.1 27.1 L 125.8 25.2 L 124.3 23.2 L 122.5 21.2 L 118.3 17.0 L 115.6 15.2 L 116.4 13.6 L 119.4 14.9 L 122.5 15.8 L 125.4 16.9 L 128.2 18.2 L 130.7 19.6 L 133.0 21.1 L 135.2 22.8 L 137.3 24.6 L 139.1 26.5 L 140.7 28.7 L 140.9 33.2 L 137.8 36.7 L 133.3 36.8 L 129.8 33.8 L 129.5 32.2 Z " />
</g>
</svg>
