<svg xmlns="http://www.w3.org/2000/svg" xmlns:xlink="http://www.w3.org/1999/xlink" version="1.1" baseProfile="full" viewBox="0 0 200 200" width="200" height="200">
<g fill="black">
<path d="M 107.4 73.7 L 107.4 77.7 L 76.0 77.7 L 76.0 97.7 L 89.6 97.7 L 95.1 92.7 L 105.6 101.7 L 100.6 105.2 L 100.6 181.1 L 89.6 186.6 L 89.6 179.1 L 34.5 179.1 L 34.5 182.1 L 22.5 188.1 L 22.5 91.7 L 34.5 97.7 L 45.5 97.7 L 45.5 77.7 L 16.2 77.7 L 16.2 73.7 L 85.4 73.7 L 95.4 63.7 Z M 179.6 148.0 L 181.6 148.0 L 179.6 173.0 L 183.2 175.4 L 185.6 179.0 L 183.2 182.6 L 179.6 185.0 L 128.3 185.0 L 125.7 184.8 L 123.2 184.3 L 120.9 183.4 L 118.7 182.2 L 116.7 180.5 L 115.1 178.5 L 114.0 176.3 L 113.2 173.9 L 112.9 171.5 L 112.8 169.0 L 112.8 109.3 L 123.8 114.8 L 163.8 114.8 L 163.8 75.2 L 110.9 75.2 L 110.9 71.2 L 163.8 71.2 L 169.8 66.2 L 180.8 75.2 L 175.8 79.2 L 175.8 124.8 L 163.8 130.8 L 163.8 118.8 L 123.8 118.8 L 123.8 169.0 L 123.9 170.3 L 124.1 171.2 L 124.6 172.2 L 124.8 172.4 L 125.1 172.5 L 125.5 172.7 L 126.1 172.8 L 127.0 173.0 L 173.6 173.0 Z M 34.5 160.3 L 34.5 175.1 L 89.6 175.1 L 89.6 160.3 Z M 89.6 140.0 L 89.6 101.7 L 76.0 101.7 L 76.0 131.6 L 76.1 132.6 L 76.3 133.3 L 76.5 133.8 L 76.7 134.1 L 77.0 134.4 L 77.4 134.7 L 78.1 135.0 L 79.2 135.2 L 79.81548671722412 135.24734516143798 L 84.8 118.3 L 86.8 118.3 L 84.8 135.3 L 87.8 137.3 Z M 56.5 77.7 L 56.5 97.7 L 65.0 97.7 L 65.0 77.7 Z M 37.0 59.0 L 25.0 65.0 L 25.0 14.8 L 37.0 20.8 L 163.0 20.8 L 169.0 15.8 L 180.0 24.8 L 175.0 28.8 L 175.0 54.0 L 163.0 60.0 L 163.0 52.0 L 37.0 52.0 Z M 37.0 24.8 L 37.0 48.0 L 71.0 48.0 L 71.0 24.8 Z M 83.0 24.8 L 83.0 48.0 L 117.0 48.0 L 117.0 24.8 Z M 129.0 24.8 L 129.0 48.0 L 163.0 48.0 L 163.0 24.8 Z M 78.0 145.2 L 75.7 144.9 L 73.4 144.1 L 71.2 143.0 L 69.3 141.5 L 67.7 139.6 L 66.5 137.5 L 65.7 135.2 L 65.2 132.8 L 65.0 130.3 L 65.0 101.7 L 56.39333333969116 101.7 L 56.1 107.2 L 55.3 114.2 L 54.2 120.7 L 52.7 126.6 L 50.9 132.1 L 48.7 137.0 L 46.2 141.3 L 43.2 144.9 L 39.9 147.9 L 36.2 150.0 L 35.2 148.7 L 37.3 145.5 L 39.2 142.1 L 40.9 138.4 L 42.3 134.3 L 43.5 129.8 L 44.4 124.8 L 45.1 119.3 L 45.5 113.3 L 45.7 106.8 L 45.55633802413941 101.7 L 34.5 101.7 L 34.5 156.3 L 89.6 156.3 L 89.6 140.6 L 87.8 143.3 L 84.8 145.3 L 80.5 145.3 Z " />
</g>
</svg>
