<svg xmlns="http://www.w3.org/2000/svg" xmlns:xlink="http://www.w3.org/1999/xlink" version="1.1" baseProfile="full" viewBox="0 0 200 200" width="200" height="200">
<g fill="black">
<path d="M 164.7 181.4 L 158.4 177.7 L 152.6 173.4 L 147.3 168.7 L 142.5 163.5 L 138.3 157.9 L 134.7 151.8 L 131.8 145.2 L 129.93999996185303 139.0 L 126.5 139.0 L 126.0 140.7 L 121.3 151.3 L 115.5 160.4 L 108.5 168.2 L 100.6 174.6 L 91.7 179.7 L 82.0 183.6 L 71.6 186.3 L 60.4 187.8 L 60.0 186.1 L 70.6 182.6 L 80.1 178.6 L 88.6 173.9 L 96.0 168.5 L 102.4 162.2 L 107.9 155.0 L 112.3 146.8 L 115.17368421554565 139.0 L 72.0 139.0 L 72.0 135.0 L 116.33738317489625 135.0 L 118.3 126.6 L 119.48032789230346 117.0 L 99.5 117.0 L 99.5 120.0 L 87.5 126.0 L 87.5 61.0 L 99.5 67.0 L 155.3 67.0 L 161.3 62.0 L 172.3 71.0 L 167.3 75.0 L 167.3 119.0 L 155.3 125.0 L 155.3 117.0 L 131.45187969207763 117.0 L 129.5 128.8 L 127.6764705657959 135.0 L 164.0 135.0 L 174.0 125.0 L 186.0 135.0 L 186.0 139.0 L 132.3862069129944 139.0 L 135.5 143.3 L 139.6 148.5 L 144.0 153.4 L 148.5 157.7 L 153.4 161.6 L 158.5 165.1 L 164.0 168.1 L 169.7 170.7 L 175.9 172.8 L 182.4 174.6 L 190.5 176.9 L 178.8 187.3 L 171.5 184.6 Z M 15.0 165.1 L 20.7 162.8 L 26.6 160.5 L 32.5 158.1 L 44.9 153.3 L 51.3 150.8 L 57.8 148.3 L 64.5 145.8 L 71.4 143.4 L 78.5 141.1 L 79.2 142.8 L 73.0 146.8 L 66.8 150.6 L 60.6 154.2 L 54.5 157.6 L 48.5 160.9 L 42.6 164.1 L 36.7 167.2 L 31.0 170.2 L 25.4 173.2 L 23.585015296936035 174.12399225234986 L 23.0 177.9 L 19.9 176.0 L 13.1 165.9 Z M 17.336908531188964 123.17255516052246 L 17.4 122.1 L 20.4 120.2 L 23.9 116.5 L 28.0 110.9 L 32.6 103.7 L 37.4 95.2 L 42.4 85.9 L 44.545962715148924 81.6939130783081 L 43.1 82.2 L 35.3 84.6 L 27.7 86.8 L 24.0 87.8 L 21.013872814178466 88.62947978973389 L 19.3 92.4 L 16.8 89.7 L 13.0 78.2 L 14.35393705368042 77.98622045516967 L 16.5 76.4 L 19.1 73.1 L 22.1 68.2 L 25.3 61.9 L 28.7 54.7 L 32.0 46.8 L 35.1 38.8 L 38.0 31.0 L 40.5 23.9 L 42.28626823425293 18.626255607604982 L 42.2 18.6 L 43.1 16.4 L 53.7 22.1 L 55.8 25.0 L 52.13899450302124 25.64228162765503 L 51.1 28.0 L 47.9 35.1 L 44.3 42.8 L 40.4 50.7 L 36.3 58.5 L 32.0 65.7 L 27.5 71.9 L 23.0 76.7 L 21.892927265167238 77.42200393676758 L 22.3 77.4 L 26.1 77.2 L 30.0 76.9 L 33.9 76.7 L 42.1 76.3 L 46.3 76.2 L 47.34897956848145 76.2 L 52.4 66.3 L 57.2 56.8 L 61.6 47.9 L 61.65708742141724 47.93153400421143 L 62.2 46.9 L 72.1 53.7 L 73.8 56.9 L 70.18464508056641 57.02255439758301 L 67.2 62.2 L 61.8 71.4 L 56.3 81.0 L 50.5 90.5 L 44.7 99.6 L 38.9 107.9 L 33.2 115.0 L 27.6 120.4 L 26.870270252227783 120.83243246078491 L 28.6 120.4 L 33.8 119.2 L 39.1 118.0 L 44.5 116.8 L 49.8 115.7 L 55.3 114.6 L 60.8 113.6 L 66.4 112.7 L 72.0 112.1 L 72.5 113.8 L 67.4 116.4 L 62.3 118.7 L 57.2 120.9 L 52.0 122.9 L 41.8 126.9 L 36.7 128.8 L 26.7 132.6 L 25.6306640625 132.9849609375 L 24.5 136.7 L 21.7 134.4 L 16.3 123.5 Z M 99.5 92.0 L 99.5 113.0 L 155.3 113.0 L 155.3 92.0 Z M 99.5 71.0 L 99.5 88.0 L 155.3 88.0 L 155.3 71.0 Z M 151.1 14.0 L 154.1 16.0 L 151.1 17.8 L 151.1 34.0 L 162.9 34.0 L 172.9 24.0 L 184.9 34.0 L 184.9 38.0 L 151.1 38.0 L 151.1 54.0 L 139.1 60.0 L 139.1 38.0 L 115.7 38.0 L 115.7 54.0 L 103.7 60.0 L 103.7 38.0 L 72.0 38.0 L 72.0 34.0 L 103.7 34.0 L 103.7 12.0 L 115.7 14.0 L 118.7 16.0 L 115.7 17.8 L 115.7 34.0 L 139.1 34.0 L 139.1 12.0 Z " />
</g>
</svg>
