<svg xmlns="http://www.w3.org/2000/svg" xmlns:xlink="http://www.w3.org/1999/xlink" version="1.1" baseProfile="full" viewBox="0 0 200 200" width="200" height="200">
<g fill="black">
<path d="M 88.5 144.0 L 90.5 144.0 L 88.5 169.0 L 92.1 171.4 L 94.5 175.0 L 92.1 178.6 L 88.5 181.0 L 50.5 181.0 L 47.9 180.8 L 45.4 180.4 L 43.0 179.6 L 40.7 178.3 L 38.7 176.7 L 37.1 174.7 L 35.8 172.4 L 35.0 170.0 L 34.6 167.5 L 34.5 165.0 L 34.5 129.1615385055542 L 32.6 131.5 L 22.9 141.9 L 12.6 151.6 L 11.3 150.3 L 20.0 139.4 L 28.4 128.2 L 34.5 119.27875003814697 L 34.5 104.0 L 43.32718200683594 105.47119703292847 L 44.0 104.4 L 51.2 91.8 L 55.24885492324829 84.0 L 13.5 84.0 L 13.5 80.0 L 45.0 80.0 L 45.0 47.0 L 22.0 47.0 L 22.0 43.0 L 45.0 43.0 L 45.0 13.0 L 57.0 15.0 L 60.0 17.0 L 57.0 18.8 L 57.0 43.0 L 60.2777777671814 43.0 L 66.5 36.0 L 73.56265211105347 42.17982063293457 L 75.8 36.2 L 80.9 21.0 L 81.4 19.5 L 92.3 24.8 L 94.5 27.7 L 90.92427616119384 28.45278396606445 L 86.5 40.2 L 80.2 55.1 L 73.5 69.3 L 67.79854011535645 80.0 L 80.31818180084228 80.0 L 88.5 71.0 L 95.1 76.93999996185303 L 95.1 76.0 L 130.8 76.0 L 130.8 45.0 L 104.3 45.0 L 104.3 41.0 L 130.8 41.0 L 130.8 12.0 L 142.8 14.0 L 145.8 16.0 L 142.8 17.8 L 142.8 41.0 L 148.4777777671814 41.0 L 154.7 34.0 L 162.3709677696228 40.712096786499025 L 164.1 37.2 L 170.2 23.4 L 170.20768957138063 23.403425407409667 L 170.7 22.2 L 181.2 28.3 L 183.1 31.3 L 179.46167774200438 31.801837539672853 L 174.3 42.2 L 167.1 55.4 L 159.4 67.8 L 153.74482755661012 76.0 L 170.4181818008423 76.0 L 178.6 67.0 L 188.6 76.0 L 188.6 80.0 L 150.93761463165282 80.0 L 143.0 90.3 L 134.2 100.3 L 125.20326089859009 109.2 L 164.5 109.2 L 170.5 104.2 L 181.5 113.2 L 176.5 117.2 L 176.5 178.8 L 164.5 184.8 L 164.5 174.8 L 124.1 174.8 L 124.1 181.8 L 112.1 187.8 L 112.1 120.2445544242859 L 105.2 125.3 L 94.7 131.7 L 93.7 130.2 L 102.9 122.3 L 111.7 113.9 L 112.1 113.48139533996581 L 112.1 103.2 L 118.74812030792236 106.52406015396119 L 120.3 104.9 L 128.5 95.3 L 136.3 85.1 L 139.80917434692384 80.0 L 98.5 80.0 L 98.5 84.0 L 65.61221370697021 84.0 L 58.5 96.1 L 50.4 108.5 L 46.5 113.78965520858765 L 46.5 134.37619047164918 L 48.5 132.9 L 52.6 129.8 L 56.6 126.7 L 64.2 120.1 L 67.8 116.7 L 71.3 113.1 L 74.6 109.4 L 77.25464258193969 106.34313888549805 L 77.2 106.3 L 78.2 105.2 L 86.7 113.8 L 87.5 117.3 L 83.76604862213135 116.51390495300294 L 82.7 117.5 L 78.5 121.0 L 74.3 124.3 L 69.9 127.4 L 65.4 130.3 L 60.8 133.0 L 56.0 135.4 L 51.1 137.6 L 46.5 139.2235294342041 L 46.5 166.2 L 46.7 167.1 L 47.0 168.0 L 47.4 168.4 L 48.3 168.7 L 49.2 168.9 L 50.5 169.0 L 82.5 169.0 Z M 124.1 144.0 L 124.1 170.8 L 164.5 170.8 L 164.5 144.0 Z M 124.1 113.2 L 124.1 140.0 L 164.5 140.0 L 164.5 113.2 Z M 154.1 95.8 L 153.6 94.1 L 152.9 92.4 L 152.2 90.6 L 151.4 89.0 L 150.5 87.3 L 149.5 85.5 L 148.0 84.3 L 149.0 82.7 L 150.8 83.8 L 152.9 84.5 L 154.8 85.4 L 156.8 86.6 L 158.6 87.9 L 160.3 89.4 L 162.0 91.1 L 163.6 92.9 L 165.0 94.9 L 166.4 97.0 L 166.2 101.6 L 162.9 104.7 L 158.4 104.6 L 155.2 101.3 L 154.9 99.4 Z M 57.0 47.0 L 57.0 80.0 L 57.32519083023071 80.0 L 58.0 78.7 L 64.4 65.1 L 70.3 50.9 L 71.75918369293213 47.0 Z M 142.8 45.0 L 142.8 75.65333337783814 L 143.8 74.2 L 150.9 62.5 L 157.7 50.2 L 160.26000003814698 45.0 Z " />
</g>
</svg>
