<svg xmlns="http://www.w3.org/2000/svg" xmlns:xlink="http://www.w3.org/1999/xlink" version="1.1" baseProfile="full" viewBox="0 0 200 200" width="200" height="200">
<g fill="black">
<path d="M 37.5 61.7 L 159.4 61.7 L 165.4 56.7 L 176.4 65.7 L 171.4 69.7 L 171.4 174.8 L 159.4 180.8 L 159.4 168.8 L 37.5 168.8 L 37.5 180.8 L 25.5 186.8 L 25.5 55.7 Z M 37.5 65.7 L 37.5 164.8 L 159.4 164.8 L 159.4 65.7 Z M 125.0 73.9 L 128.0 75.9 L 125.0 77.7 L 125.0 94.1 L 129.0 94.1 L 139.0 84.1 L 151.0 94.1 L 151.0 98.1 L 125.0 98.1 L 125.0 123.8 L 134.0 123.8 L 144.0 113.8 L 156.0 123.8 L 156.0 127.8 L 125.0 127.8 L 125.0 154.0 L 113.0 160.0 L 113.0 127.8 L 82.86000003814698 127.8 L 82.3 129.9 L 80.2 135.5 L 77.5 140.7 L 74.2 145.4 L 70.4 149.6 L 66.1 153.3 L 61.3 156.4 L 56.0 158.8 L 50.3 160.7 L 49.6 159.0 L 54.2 155.6 L 58.2 152.0 L 61.7 148.4 L 64.7 144.6 L 67.2 140.6 L 69.2 136.4 L 70.8 131.9 L 71.84680852890014 127.8 L 42.0 127.8 L 42.0 123.8 L 72.46666669845581 123.8 L 72.7 122.1 L 73.0 116.7 L 73.0 98.1 L 43.0 98.1 L 43.0 94.1 L 73.0 94.1 L 73.0 71.9 L 85.0 73.9 L 88.0 75.9 L 85.0 77.7 L 85.0 94.1 L 113.0 94.1 L 113.0 71.9 Z M 84.9 117.5 L 83.915625 123.8 L 113.0 123.8 L 113.0 98.1 L 85.0 98.1 L 85.0 117.1 L 84.74048261642456 117.48927612304688 Z M 134.0 13.4 L 137.0 15.4 L 134.0 17.2 L 134.0 31.3 L 165.0 31.3 L 175.0 21.3 L 187.0 31.3 L 187.0 35.3 L 134.0 35.3 L 134.0 50.5 L 122.0 56.5 L 122.0 35.3 L 78.0 35.3 L 78.0 50.5 L 66.0 56.5 L 66.0 35.3 L 13.0 35.3 L 13.0 31.3 L 66.0 31.3 L 66.0 11.4 L 78.0 13.4 L 81.0 15.4 L 78.0 17.2 L 78.0 31.3 L 122.0 31.3 L 122.0 11.4 Z " />
</g>
</svg>
