<svg xmlns="http://www.w3.org/2000/svg" xmlns:xlink="http://www.w3.org/1999/xlink" version="1.1" baseProfile="full" viewBox="0 0 200 200" width="200" height="200">
<g fill="black">
<path d="M 79.7 67.4 L 82.1 70.0 L 78.79971294403076 70.91674642562866 L 77.5496000289917 75.8 L 155.7777777671814 75.8 L 162.0 68.8 L 170.0 75.8 L 170.0 79.8 L 76.52559995651245 79.8 L 74.68240003585815 87.0 L 167.6 87.0 L 173.6 82.0 L 184.6 91.0 L 179.6 94.0 L 179.42938385009765 94.07109003067016 L 179.3 96.4 L 179.0 99.8 L 178.5 102.9 L 177.9 105.8 L 177.2 108.5 L 176.2 111.0 L 175.0 113.4 L 173.6 115.5 L 171.8 117.5 L 170.0 119.0 L 168.1 120.4 L 166.1 121.6 L 164.0 122.7 L 161.9 123.6 L 159.7 124.4 L 155.1 125.4 L 152.7 125.6 L 150.4 125.7 L 150.4 119.7 L 130.4 116.7 L 130.4 113.7 L 150.4 113.7 L 153.4 113.5 L 156.2 112.9 L 157.6 112.4 L 158.9 111.9 L 160.1 111.2 L 161.4 110.4 L 162.6 109.5 L 163.8 108.5 L 164.2 108.1 L 164.7 107.3 L 165.2 106.3 L 165.8 104.8 L 166.3 103.0 L 166.7 100.8 L 167.1 98.4 L 167.3 95.5 L 167.5 92.4 L 167.54117650985717 91.0 L 73.65839996337891 91.0 L 73.3 92.4 L 60.2 95.3 L 68.09635257720947 64.0 L 37.0 64.0 L 37.0 91.0 L 36.892562007904054 91.16115703582764 L 36.3 104.0 L 35.3 116.3 L 33.9 127.9 L 32.2 138.8 L 30.1 149.0 L 27.7 158.4 L 24.9 167.1 L 21.6 175.1 L 17.9 182.2 L 13.7 188.4 L 12.2 187.5 L 14.5 180.6 L 16.6 173.2 L 18.6 165.3 L 20.3 156.7 L 21.8 147.4 L 23.0 137.5 L 23.9 126.9 L 24.6 115.6 L 24.9 103.6 L 25.0 90.9 L 25.0 22.0 L 37.0 28.0 L 99.0 28.0 L 99.0 12.0 L 111.0 14.0 L 114.0 16.0 L 111.0 17.8 L 111.0 28.0 L 169.8181818008423 28.0 L 178.0 19.0 L 188.0 28.0 L 188.0 32.0 L 134.0 32.0 L 134.0 44.0 L 164.0 44.0 L 170.0 39.0 L 181.0 48.0 L 176.0 52.0 L 176.0 64.0 L 164.0 70.0 L 164.0 64.0 L 72.0840000152588 64.0 Z M 169.7 179.7 L 167.3 177.1 L 164.5 174.5 L 161.58429231643677 172.0545678138733 L 153.6 173.5 L 141.7 175.4 L 129.6 177.0 L 117.1 178.4 L 104.5 179.7 L 91.6 180.9 L 78.4 182.0 L 65.1 183.0 L 51.4 183.9 L 41.59965524673462 184.46813592910766 L 39.7 187.6 L 37.6 184.7 L 35.1 172.8 L 37.1 172.7 L 51.0 172.5 L 64.6 172.2 L 77.9 171.9 L 91.1 171.6 L 103.9 171.2 L 104.0 171.19685039520263 L 104.0 153.7 L 65.4 153.7 L 65.4 156.7 L 53.4 162.7 L 53.4 124.0 L 65.4 130.0 L 104.0 130.0 L 104.0 118.7 L 116.0 120.7 L 119.0 122.7 L 116.0 124.5 L 116.0 130.0 L 154.6 130.0 L 160.6 125.0 L 171.6 134.0 L 166.6 138.0 L 166.6 153.7 L 154.6 159.7 L 154.6 153.7 L 116.0 153.7 L 116.0 170.81889762878419 L 116.6 170.8 L 129.1 170.4 L 141.3 170.0 L 153.3 169.8 L 158.45544929504393 169.71261949539183 L 157.9 169.3 L 154.0 166.6 L 149.7 164.0 L 145.1 161.3 L 140.0 158.6 L 140.6 156.9 L 146.3 158.1 L 151.7 159.4 L 156.7 161.0 L 161.4 162.9 L 165.7 164.9 L 169.8 167.1 L 173.6 169.4 L 177.0 172.0 L 180.1 174.7 L 183.0 177.7 L 184.0 182.1 L 181.6 186.1 L 177.2 187.1 L 173.3 184.8 L 171.6 182.2 Z M 65.4 134.0 L 65.4 149.7 L 104.0 149.7 L 104.0 134.0 Z M 116.0 134.0 L 116.0 149.7 L 154.6 149.7 L 154.6 134.0 Z M 41.4 119.3 L 41.5 114.8 L 44.8 111.6 L 46.9 111.1 L 48.7 110.5 L 50.4 109.7 L 52.0 108.8 L 53.4 107.6 L 54.8 106.1 L 56.0 104.3 L 57.1 102.2 L 58.1 99.7 L 58.3 96.9 L 60.1 96.8 L 60.4 99.8 L 60.9 102.8 L 60.9 105.7 L 60.5 108.6 L 59.7 111.4 L 58.4 114.1 L 56.7 116.6 L 54.6 118.9 L 52.1 120.9 L 49.2 122.7 L 44.6 122.6 Z M 108.2 109.1 L 108.0 107.9 L 107.6 106.6 L 106.9 105.1 L 105.9 103.6 L 104.7 101.9 L 103.2 100.2 L 101.5 98.4 L 99.3 97.1 L 100.0 95.4 L 102.5 96.5 L 105.1 97.1 L 107.5 97.9 L 109.7 98.8 L 111.8 99.9 L 113.7 101.1 L 115.5 102.6 L 117.1 104.2 L 118.5 106.1 L 119.7 108.1 L 119.0 112.6 L 115.3 115.4 L 110.8 114.7 L 108.0 111.1 L 108.2 110.2 Z M 83.0 118.5 L 79.4 115.7 L 78.8 111.2 L 79.3 110.7 L 79.9 110.0 L 80.3 109.1 L 80.5 108.0 L 80.7 106.6 L 80.6 105.1 L 80.3 103.4 L 79.7 101.5 L 79.0 99.5 L 77.7 97.7 L 79.0 96.5 L 80.6 98.1 L 82.6 99.4 L 84.3 100.9 L 85.9 102.4 L 87.2 104.0 L 88.4 105.8 L 89.3 107.7 L 90.0 109.8 L 90.3 112.0 L 90.4 114.3 L 87.5 117.9 Z M 137.1 106.6 L 136.4 105.3 L 135.4 104.0 L 134.1 102.6 L 132.6 101.1 L 130.9 99.7 L 128.9 98.1 L 126.7 96.5 L 124.1 95.4 L 124.6 93.7 L 127.4 94.4 L 130.2 94.7 L 132.9 95.1 L 135.4 95.7 L 137.8 96.3 L 140.0 97.1 L 142.1 98.1 L 144.1 99.2 L 146.0 100.4 L 147.7 101.9 L 148.6 106.4 L 146.2 110.3 L 141.7 111.2 L 137.9 108.8 L 137.6 107.7 Z M 37.0 48.0 L 37.0 60.0 L 74.0 60.0 L 74.0 48.0 Z M 86.0 48.0 L 86.0 60.0 L 122.0 60.0 L 122.0 48.0 Z M 134.0 48.0 L 134.0 60.0 L 164.0 60.0 L 164.0 48.0 Z M 37.0 32.0 L 37.0 44.0 L 74.0 44.0 L 74.0 32.0 Z M 86.0 44.0 L 122.0 44.0 L 122.0 32.0 L 86.0 32.0 Z " />
</g>
</svg>
