<svg xmlns="http://www.w3.org/2000/svg" xmlns:xlink="http://www.w3.org/1999/xlink" version="1.1" baseProfile="full" viewBox="0 0 200 200" width="200" height="200">
<g fill="black">
<path d="M 152.6 175.5 L 141.7 167.7 L 132.0 158.8 L 130.52101907730102 157.11464967727662 L 123.0 163.8 L 111.0 171.9 L 97.9 178.5 L 83.6 183.5 L 68.2 186.9 L 67.7 185.2 L 82.3 179.9 L 95.6 173.6 L 107.5 166.3 L 118.2 157.9 L 125.09506387710572 150.93158435821533 L 123.4 149.0 L 116.0 138.1 L 109.9 126.2 L 105.0 113.5 L 101.4 99.7 L 99.33561639785766 86.0 L 83.0 86.0 L 83.0 82.0 L 126.0 82.0 L 126.0 55.6 L 138.0 57.6 L 141.0 59.6 L 138.0 61.4 L 138.0 82.0 L 164.0 82.0 L 174.0 72.0 L 186.0 82.0 L 186.0 86.0 L 168.56144580841064 86.0 L 164.4 101.7 L 158.7 116.8 L 151.7 130.7 L 143.4 143.1 L 137.47220315933228 149.9540150642395 L 139.0 151.5 L 148.4 158.9 L 158.7 165.3 L 169.9 170.8 L 182.1 175.4 L 189.4 177.9 L 177.8 187.9 L 164.7 182.2 Z M 14.8 159.3 L 27.4 156.9 L 34.0 155.6 L 38.6 154.70746269226075 L 38.6 117.8 L 18.5 117.8 L 18.5 113.8 L 38.6 113.8 L 38.6 80.0 L 15.2 80.0 L 15.2 76.0 L 59.7 76.0 L 69.7 66.0 L 81.7 76.0 L 81.7 80.0 L 50.6 80.0 L 50.6 113.8 L 56.4 113.8 L 66.4 103.8 L 78.4 113.8 L 78.4 117.8 L 50.6 117.8 L 50.6 152.26619720458984 L 54.7 151.4 L 61.9 150.0 L 69.3 148.5 L 76.9 147.2 L 84.7 146.0 L 85.2 147.7 L 77.9 150.9 L 70.7 153.7 L 63.6 156.3 L 56.6 158.8 L 49.8 161.1 L 43.1 163.3 L 36.5 165.3 L 30.0 167.3 L 23.7 169.2 L 21.528017616271974 169.8409128189087 L 20.2 173.4 L 17.6 171.0 L 12.9 159.7 Z M 105.4 98.6 L 110.5 111.4 L 116.3 123.0 L 123.0 133.5 L 130.6 143.0 L 131.2411329269409 143.64876546859742 L 135.8 137.7 L 142.9 125.8 L 148.8 112.7 L 153.5 98.4 L 156.3416666984558 86.0 L 101.38260869979858 86.0 Z M 134.0 13.4 L 137.0 15.4 L 134.0 17.2 L 134.0 31.3 L 165.0 31.3 L 175.0 21.3 L 187.0 31.3 L 187.0 35.3 L 134.0 35.3 L 134.0 50.5 L 122.0 56.5 L 122.0 35.3 L 78.0 35.3 L 78.0 50.5 L 66.0 56.5 L 66.0 35.3 L 13.0 35.3 L 13.0 31.3 L 66.0 31.3 L 66.0 11.4 L 78.0 13.4 L 81.0 15.4 L 78.0 17.2 L 78.0 31.3 L 122.0 31.3 L 122.0 11.4 Z " />
</g>
</svg>
