<svg xmlns="http://www.w3.org/2000/svg" xmlns:xlink="http://www.w3.org/1999/xlink" version="1.1" baseProfile="full" viewBox="0 0 200 200" width="200" height="200">
<g fill="black">
<path d="M 64.5 132.1 L 63.0 129.2 L 61.3 126.3 L 59.4 123.4 L 57.2 120.4 L 54.8 117.4 L 52.2 114.4 L 51.1 113.18620691299438 L 51.1 183.0 L 39.1 189.0 L 39.1 109.80714282989501 L 35.0 114.2 L 27.5 121.4 L 19.5 128.2 L 11.0 134.6 L 9.8 133.3 L 16.9 125.5 L 23.6 117.7 L 30.0 109.9 L 36.0 102.0 L 39.1 97.5160714149475 L 39.1 97.0 L 39.456790161132815 97.0 L 41.6 93.9 L 46.8 85.8 L 51.6 77.5 L 55.9 69.0 L 59.9 60.4 L 61.67011489868164 56.0 L 14.3 56.0 L 14.3 52.0 L 39.1 52.0 L 39.1 12.0 L 51.1 14.0 L 54.1 16.0 L 51.1 17.8 L 51.1 52.0 L 62.9 52.0 L 68.9 47.0 L 79.9 56.0 L 74.9 59.0 L 72.75450401306152 59.893956661224365 L 70.2 65.3 L 65.4 74.1 L 60.2 82.6 L 54.6 90.9 L 50.006172847747806 97.0 L 51.1 97.0 L 51.1 108.8 L 55.0 110.8 L 56.864508628845215 111.93942193984985 L 57.5 111.0 L 59.4 107.5 L 61.2 104.4 L 62.8 101.4 L 64.2 98.6 L 65.5 96.1 L 66.6 93.8 L 67.4 91.6 L 68.1 89.7 L 68.258571434021 89.06571426391602 L 68.1 89.0 L 68.45 88.3 L 68.5 88.1 L 68.53977699279785 88.12044610977173 L 69.1 87.0 L 79.2 93.6 L 81.0 96.7 L 76.35591297149658 97.0148533821106 L 76.2 97.2 L 74.4 99.1 L 72.5 101.1 L 70.3 103.2 L 68.0 105.4 L 65.4 107.8 L 62.6 110.2 L 59.5 112.7 L 58.92942581176758 113.23253583908081 L 62.0 115.4 L 65.2 118.0 L 68.1 120.6 L 70.9 123.5 L 73.4 126.4 L 75.7 129.5 L 77.7 132.7 L 77.9 137.2 L 74.8 140.7 L 70.3 140.8 L 66.9 137.8 L 65.8 134.9 Z M 102.15882349014282 128.0 L 129.0 128.0 L 129.0 98.5 L 102.9 98.5 L 102.9 118.2 L 102.3 127.0 Z M 141.0 98.5 L 141.0 128.0 L 167.1 128.0 L 167.1 98.5 Z M 102.9 67.0 L 102.9 94.5 L 129.0 94.5 L 129.0 67.0 Z M 141.0 67.0 L 141.0 94.5 L 167.1 94.5 L 167.1 67.0 Z M 110.5 41.3 L 106.4 48.5 L 102.0 55.5 L 98.37868852615357 60.73934421539307 L 102.9 63.0 L 131.87105264663697 63.0 L 132.9 60.7 L 134.4 57.0 L 135.9 53.5 L 137.3 50.1 L 138.7 46.9 L 139.9 43.9 L 141.1 41.1 L 142.3 38.4 L 111.95 38.4 Z M 178.5 175.3 L 177.7 177.7 L 176.5 179.9 L 174.9 181.9 L 172.8 183.6 L 170.6 184.8 L 168.2 185.6 L 165.7 186.1 L 163.1 186.2 L 163.1 180.2 L 143.1 177.2 L 143.1 174.2 L 163.1 174.2 L 164.3 174.1 L 165.3 174.0 L 165.8 173.8 L 166.4 173.5 L 166.7 172.9 L 166.9 172.3 L 167.0 171.4 L 167.1 170.2 L 167.1 132.0 L 101.59411764144897 132.0 L 101.1 135.5 L 99.4 143.5 L 97.1 151.2 L 94.1 158.4 L 90.6 165.1 L 86.6 171.4 L 81.9 177.1 L 76.6 182.3 L 70.7 186.8 L 69.5 185.5 L 73.8 179.7 L 77.6 173.9 L 81.0 167.9 L 83.9 161.7 L 86.2 155.3 L 88.2 148.5 L 89.6 141.4 L 90.5 134.0 L 90.9 126.3 L 90.9 70.659259223938 L 86.9 75.4 L 81.1 81.5 L 74.9 87.2 L 73.6 86.0 L 78.2 79.1 L 82.6 72.1 L 86.9 65.2 L 90.9 58.3 L 90.9 57.0 L 91.44888887405395 57.27444448471069 L 94.7 51.2 L 98.2 44.1 L 101.4 36.9 L 104.4 29.6 L 107.0 22.2 L 109.4 14.7 L 109.41802654266357 14.706167030334473 L 109.9 13.2 L 120.8 18.6 L 123.0 21.4 L 119.33632717132568 22.235574531555176 L 117.7 26.3 L 114.2 33.9 L 113.95 34.4 L 143.4 34.4 L 144.01818180084229 33.884848499298094 L 144.2 33.4 L 144.43636360168458 33.53636360168457 L 149.4 29.4 L 160.4 38.4 L 155.4 41.4 L 151.88275861740112 42.86551723480225 L 151.2 43.7 L 149.4 46.0 L 147.4 48.4 L 145.3 51.0 L 143.0 53.6 L 140.6 56.4 L 138.1 59.3 L 135.3 62.2 L 134.65 63.0 L 167.1 63.0 L 173.1 58.0 L 184.1 67.0 L 179.1 71.0 L 179.1 170.2 L 179.0 172.8 Z " />
</g>
</svg>
