<svg xmlns="http://www.w3.org/2000/svg" xmlns:xlink="http://www.w3.org/1999/xlink" version="1.1" baseProfile="full" viewBox="0 0 200 200" width="200" height="200">
<g fill="black">
<path d="M 107.3 132.5 L 156.7 132.5 L 162.7 127.5 L 173.7 136.5 L 168.7 140.5 L 168.7 179.4 L 156.7 185.4 L 156.7 175.4 L 107.3 175.4 L 107.3 182.4 L 95.3 188.4 L 95.3 126.5 Z M 71.5 158.3 L 71.0 154.4 L 70.2 150.4 L 70.02727270126343 149.70909090042113 L 67.7 151.6 L 62.7 155.2 L 57.5 158.5 L 52.2 161.7 L 46.8 164.7 L 41.2 167.7 L 35.5 170.5 L 29.7 173.2 L 23.9 175.8 L 21.693907260894775 176.71920528411866 L 20.8 180.4 L 17.9 178.3 L 12.0 167.6 L 13.9 167.0 L 19.9 165.1 L 25.8 163.2 L 31.7 161.2 L 37.5 159.1 L 42.7 157.1842104911804 L 42.7 112.0 L 29.6 112.0 L 29.6 124.0 L 17.6 130.0 L 17.6 47.0 L 29.6 53.0 L 42.7 53.0 L 42.7 13.0 L 54.7 15.0 L 57.7 17.0 L 54.7 18.8 L 54.7 53.0 L 67.7 53.0 L 73.7 48.0 L 84.7 57.0 L 79.7 61.0 L 79.7 112.0 L 67.7 118.0 L 67.7 112.0 L 54.7 112.0 L 54.7 152.56071424484253 L 60.2 150.4 L 65.9 148.2 L 69.34758062362671 146.99032258987427 L 69.2 146.4 L 68.0 142.5 L 66.5 138.5 L 64.8 134.5 L 62.9 130.4 L 60.7 126.3 L 62.1 125.2 L 65.6 128.4 L 68.9 131.8 L 71.8 135.5 L 74.5 139.3 L 76.8 143.3 L 78.8 147.5 L 80.5 151.8 L 81.9 156.3 L 83.0 160.9 L 83.8 165.5 L 82.3 169.9 L 78.3 171.9 L 74.0 170.4 L 71.9 166.4 L 71.8 162.3 Z M 107.3 136.5 L 107.3 171.4 L 156.7 171.4 L 156.7 136.5 Z M 166.0 108.3 L 160.5 104.1 L 155.2 99.5 L 150.2 94.6 L 145.4 89.4 L 141.0 83.9 L 136.8 78.1 L 133.0 71.9 L 132.6111110687256 71.1222222328186 L 129.5 76.9 L 124.7 84.4 L 119.3 91.6 L 113.4 98.4 L 106.9 104.9 L 99.9 111.0 L 92.3 116.7 L 84.1 122.0 L 75.2 126.7 L 74.3 125.2 L 81.8 118.9 L 88.9 112.5 L 95.5 106.1 L 101.5 99.6 L 106.9 92.9 L 111.8 86.1 L 116.2 79.1 L 120.0 71.9 L 123.3 64.5 L 126.0 56.8 L 126.02973680496216 56.81078948974609 L 126.5 55.4 L 137.3 60.9 L 139.4 63.8 L 135.68330974578856 64.58246107101441 L 134.4016948699951 67.50169486999512 L 141.3 74.4 L 146.3 79.1 L 151.3 83.5 L 156.4 87.7 L 161.7 91.5 L 167.0 95.1 L 172.4 98.4 L 178.0 101.4 L 183.7 104.1 L 189.1 106.8 L 177.8 115.8 L 171.8 112.2 Z M 159.6 110.0 L 159.6 114.0 L 106.6 114.0 L 106.6 110.0 L 137.6 110.0 L 147.6 100.0 Z M 29.6 57.0 L 29.6 108.0 L 42.7 108.0 L 42.7 57.0 Z M 54.7 57.0 L 54.7 108.0 L 67.7 108.0 L 67.7 57.0 Z M 157.1 15.0 L 160.1 17.0 L 157.1 18.8 L 157.1 36.0 L 165.1 36.0 L 175.1 26.0 L 187.1 36.0 L 187.1 40.0 L 157.1 40.0 L 157.1 59.0 L 145.1 65.0 L 145.1 40.0 L 115.7 40.0 L 115.7 59.0 L 103.7 65.0 L 103.7 40.0 L 81.1 40.0 L 81.1 36.0 L 103.7 36.0 L 103.7 13.0 L 115.7 15.0 L 118.7 17.0 L 115.7 18.8 L 115.7 36.0 L 145.1 36.0 L 145.1 13.0 Z " />
</g>
</svg>
