<svg xmlns="http://www.w3.org/2000/svg" xmlns:xlink="http://www.w3.org/1999/xlink" version="1.1" baseProfile="full" viewBox="0 0 200 200" width="200" height="200">
<g fill="black">
<path d="M 145.0 67.0 L 148.0 69.0 L 145.0 70.8 L 145.0 183.0 L 133.0 189.0 L 133.0 65.0 Z M 48.6 149.2 L 50.6 152.2 L 46.70277900695801 152.7469783782959 L 46.3 153.5 L 43.8 157.8 L 41.0 162.0 L 37.9 166.1 L 34.6 170.2 L 31.0 174.1 L 27.1 178.0 L 23.0 181.7 L 18.4 185.3 L 13.6 188.6 L 12.4 187.3 L 15.8 182.6 L 19.0 178.1 L 22.1 173.7 L 25.0 169.4 L 27.7 165.2 L 30.2 161.0 L 32.4 156.8 L 34.4 152.7 L 36.1 148.6 L 37.230522060394286 145.50990629196167 L 37.2 145.5 L 37.523076915740965 144.71025638580323 L 37.6 144.5 L 37.60773830413818 144.50330638885498 L 38.1 143.3 Z M 75.6 167.8 L 74.4 165.0 L 73.0 162.2 L 71.4 159.4 L 69.6 156.6 L 67.6 153.8 L 65.5 150.9 L 63.1 148.0 L 60.4 145.3 L 61.5 143.8 L 64.9 145.7 L 68.4 147.6 L 71.6 149.7 L 74.6 152.0 L 77.4 154.4 L 80.0 157.0 L 82.5 159.8 L 84.7 162.7 L 86.8 165.7 L 88.6 168.9 L 88.5 173.5 L 85.3 176.7 L 80.8 176.7 L 77.5 173.5 L 76.7 170.6 Z M 33.8 22.5 L 71.7 22.5 L 77.7 17.5 L 88.7 26.5 L 83.7 30.5 L 83.7 134.8 L 71.7 140.8 L 71.7 134.8 L 33.8 134.8 L 33.8 141.8 L 21.8 147.8 L 21.8 16.5 Z M 33.8 97.2 L 33.8 130.8 L 71.7 130.8 L 71.7 97.2 Z M 33.8 61.8 L 33.8 93.2 L 71.7 93.2 L 71.7 61.8 Z M 129.6 16.3 L 132.1 18.9 L 128.55656938552858 20.038959884643553 L 127.2 24.9 L 124.5 33.2 L 121.5 41.2 L 120.75194807052613 43.0 L 170.6 43.0 L 173.0 40.4 L 173.47013816833496 40.941551494598386 L 177.0 38.0 L 188.0 47.0 L 183.0 50.0 L 175.26000003814698 53.225 L 171.3 55.7 L 168.0 57.6 L 164.7 59.4 L 161.3 61.1 L 157.9 62.7 L 154.5 64.2 L 150.9 65.4 L 147.4 66.7 L 146.5 65.2 L 149.4 62.8 L 154.8 57.8 L 160.2 53.0 L 166.43999996185303 47.0 L 119.08961038589477 47.0 L 118.3 48.9 L 114.8 56.4 L 111.0 63.5 L 106.9 70.3 L 102.6 76.8 L 97.8 82.9 L 92.7 88.5 L 91.2 87.4 L 94.6 80.8 L 98.0 74.0 L 101.2 67.2 L 104.2 60.2 L 107.0 53.0 L 109.6 45.6 L 112.0 37.9 L 114.2 30.1 L 116.1 21.9 L 117.9 13.6 L 117.91361255645752 13.603141403198242 L 118.3 11.8 Z M 33.8 26.5 L 33.8 57.8 L 71.7 57.8 L 71.7 26.5 Z " />
</g>
</svg>
