<svg xmlns="http://www.w3.org/2000/svg" xmlns:xlink="http://www.w3.org/1999/xlink" version="1.1" baseProfile="full" viewBox="0 0 200 200" width="200" height="200">
<g fill="black">
<path d="M 27.8 130.6 L 53.6 130.6 L 59.6 125.6 L 70.6 134.6 L 65.6 138.6 L 65.6 177.0 L 53.6 183.0 L 53.6 171.0 L 27.8 171.0 L 27.8 183.0 L 15.8 189.0 L 15.8 124.6 Z M 164.0 63.6 L 165.0 67.1 L 161.15598459243773 66.49305019378662 L 158.2 69.5 L 151.6 75.2 L 144.2 80.7 L 135.8 85.9 L 126.6 91.0 L 118.2326530456543 95.1 L 160.9 95.1 L 166.9 90.1 L 177.9 99.1 L 172.9 103.1 L 172.9 178.6 L 160.9 184.6 L 160.9 174.6 L 106.5 174.6 L 106.5 181.6 L 94.5 187.6 L 94.5 104.79747896194458 L 93.7 105.1 L 81.0 109.2 L 67.2 113.1 L 66.7 111.4 L 79.6 105.7 L 91.7 100.1 L 94.5 98.725 L 94.5 89.1 L 104.15094337463378 93.9254716873169 L 113.1 89.1 L 122.4 83.6 L 130.8 78.1 L 138.2 72.6 L 144.7 67.0 L 150.1 61.5 L 154.01970329284669 56.81339826583862 L 154.0 56.8 L 155.1 55.5 Z M 106.5 148.3 L 106.5 170.6 L 160.9 170.6 L 160.9 148.3 Z M 27.8 134.6 L 27.8 167.0 L 53.6 167.0 L 53.6 134.6 Z M 106.5 124.3 L 106.5 144.3 L 160.9 144.3 L 160.9 124.3 Z M 109.11063833236695 99.1 L 106.5 100.21545457839966 L 106.5 120.3 L 160.9 120.3 L 160.9 99.1 Z M 64.6 106.6 L 64.6 110.6 L 16.8 110.6 L 16.8 106.6 L 46.418181800842284 106.6 L 54.6 97.6 Z M 64.6 81.6 L 64.6 85.6 L 16.8 85.6 L 16.8 81.6 L 46.418181800842284 81.6 L 54.6 72.6 Z M 105.3 35.3 L 107.5 38.1 L 103.59397325515747 38.99084825515747 L 101.7 42.4 L 99.2 46.3 L 96.4 50.5 L 93.1 54.9 L 89.4 59.7 L 85.3 64.7 L 80.7 70.0 L 75.6 75.5 L 69.9 81.3 L 68.5 80.2 L 72.6 73.2 L 76.4 66.8 L 80.0 60.9 L 83.2 55.4 L 86.0 50.3 L 88.4 45.7 L 90.4 41.5 L 92.0 37.7 L 93.2 34.3 L 93.64717741012574 32.51129035949707 L 93.6 32.5 L 93.8285714149475 31.78571424484253 L 93.9 31.5 L 93.91807231903076 31.506024074554443 L 94.4 30.0 Z M 97.0 62.9 L 117.0 62.9 L 118.2 62.8 L 119.1 62.7 L 119.7 62.5 L 120.0 62.3 L 120.2 62.2 L 120.4 62.0 L 120.5 61.6 L 120.7 61.0 L 120.9 60.1 L 121.0 58.9 L 121.0 12.7 L 133.0 14.7 L 136.0 16.7 L 133.0 18.5 L 133.0 58.9 L 132.8 61.5 L 132.4 64.0 L 131.6 66.4 L 130.3 68.6 L 128.7 70.6 L 126.7 72.3 L 124.4 73.5 L 122.0 74.3 L 119.5 74.8 L 117.0 74.9 L 117.0 68.9 L 97.0 65.9 Z M 173.1 58.9 L 171.1 55.6 L 169.0 52.1 L 166.7 48.6 L 164.3 45.1 L 161.7 41.4 L 159.0 37.7 L 156.3 33.8 L 153.3 29.9 L 154.5 28.5 L 158.6 31.4 L 162.6 34.3 L 166.3 37.3 L 169.7 40.3 L 173.0 43.4 L 176.1 46.5 L 179.0 49.7 L 181.8 52.9 L 184.4 56.1 L 186.8 59.3 L 187.4 63.8 L 184.7 67.5 L 180.2 68.2 L 176.5 65.5 L 174.9 62.2 Z M 72.2 54.7 L 72.2 58.7 L 13.4 58.7 L 13.4 54.7 L 50.2 54.7 L 60.2 44.7 Z M 64.6 29.8 L 64.6 33.8 L 16.8 33.8 L 16.8 29.8 L 46.418181800842284 29.8 L 54.6 20.8 Z " />
</g>
</svg>
