<svg xmlns="http://www.w3.org/2000/svg" xmlns:xlink="http://www.w3.org/1999/xlink" version="1.1" baseProfile="full" viewBox="0 0 200 200" width="200" height="200">
<g fill="black">
<path d="M 151.9 171.4 L 141.1 161.0 L 131.4 149.2 L 130.52072763442993 147.82875375747682 L 123.4 156.4 L 111.4 167.5 L 98.2 176.7 L 83.7 183.8 L 68.2 188.8 L 67.7 187.1 L 82.1 180.4 L 95.3 172.2 L 107.1 162.5 L 117.8 151.3 L 125.77936353683472 140.43448362350463 L 123.0 136.1 L 115.8 121.7 L 109.7 106.0 L 104.9 89.0 L 101.3 70.7 L 99.2964285850525 52.0 L 83.0 52.0 L 83.0 48.0 L 126.0 48.0 L 126.0 12.0 L 138.0 14.0 L 141.0 16.0 L 138.0 17.8 L 138.0 48.0 L 164.0 48.0 L 174.0 38.0 L 186.0 48.0 L 186.0 52.0 L 168.66108598709107 52.0 L 164.5 72.9 L 158.8 93.2 L 151.9 111.7 L 143.7 128.5 L 136.81309928894044 139.3015601158142 L 139.5 143.0 L 149.0 153.3 L 159.3 162.2 L 170.6 169.7 L 182.8 176.0 L 188.5 178.7 L 177.1 187.9 L 164.0 180.4 Z M 30.7 133.0 L 61.4 133.0 L 67.4 128.0 L 78.4 137.0 L 73.4 141.0 L 73.4 175.0 L 61.4 181.0 L 61.4 175.0 L 30.7 175.0 L 30.7 182.0 L 18.7 188.0 L 18.7 127.0 Z M 30.7 137.0 L 30.7 171.0 L 61.4 171.0 L 61.4 137.0 Z M 105.4 69.8 L 110.6 87.4 L 116.5 103.5 L 123.3 118.1 L 131.0 131.3 L 131.19516191482543 131.56863470077514 L 135.5 124.1 L 142.6 107.9 L 148.6 90.1 L 153.4 70.4 L 156.4666666984558 52.0 L 101.27789478302002 52.0 Z M 73.1 108.0 L 73.1 112.0 L 19.0 112.0 L 19.0 108.0 L 51.1 108.0 L 61.1 98.0 Z M 73.1 82.0 L 73.1 86.0 L 19.0 86.0 L 19.0 82.0 L 51.1 82.0 L 61.1 72.0 Z M 81.7 54.0 L 81.7 58.0 L 15.2 58.0 L 15.2 54.0 L 59.7 54.0 L 69.7 44.0 Z M 73.1 28.0 L 73.1 32.0 L 19.0 32.0 L 19.0 28.0 L 51.1 28.0 L 61.1 18.0 Z " />
</g>
</svg>
