<svg xmlns="http://www.w3.org/2000/svg" xmlns:xlink="http://www.w3.org/1999/xlink" version="1.1" baseProfile="full" viewBox="0 0 200 200" width="200" height="200">
<g fill="black">
<path d="M 14.3 145.9 L 19.7 144.5 L 25.4 142.9 L 31.4 141.3 L 37.8 139.7 L 44.4 138.1 L 45.6 137.8043478012085 L 45.6 106.0 L 31.9 106.0 L 23.9 114.0 L 13.9 104.0 L 20.888271713256835 98.17644023895264 L 29.99050102233887 50.0 L 11.8 50.0 L 11.8 46.0 L 30.746242141723634 46.0 L 37.0 12.9 L 48.5 17.0 L 51.0 19.6 L 47.8254900932312 20.55834264755249 L 43.00283765792847 46.0 L 58.8 46.0 L 68.8 36.0 L 80.8 46.0 L 80.8 50.0 L 42.2446084022522 50.0 L 32.38762769699097 102.0 L 45.6 102.0 L 45.6 67.0 L 57.6 69.0 L 60.6 71.0 L 57.6 72.8 L 57.6 102.0 L 59.7 102.0 L 69.7 92.0 L 81.7 102.0 L 81.7 106.0 L 57.6 106.0 L 57.6 134.9125 L 58.5 134.7 L 66.1 133.0 L 74.0 131.5 L 82.3 130.1 L 82.8 131.8 L 75.1 135.1 L 67.7 138.2 L 60.5 141.0 L 57.6 142.07714281082153 L 57.6 183.0 L 45.6 189.0 L 45.6 146.69523811340332 L 40.6 148.6 L 34.5 150.9 L 28.8 153.1 L 23.3 155.3 L 22.00181818008423 155.80909090042115 L 21.0 159.5 L 18.2 157.3 L 12.4 146.6 Z M 166.6 171.5 L 161.8 167.2 L 157.2 162.8 L 152.9 158.1 L 148.8 153.2 L 145.0 148.1 L 141.5 142.7 L 139.0 138.10322580337524 L 139.0 182.2 L 127.0 188.2 L 127.0 145.42826089859008 L 122.5 151.2 L 117.5 156.8 L 112.3 161.9 L 106.7 166.7 L 100.8 171.1 L 94.6 175.0 L 88.1 178.5 L 81.2 181.3 L 80.3 179.8 L 86.1 175.2 L 91.5 170.7 L 96.7 166.0 L 101.6 161.1 L 106.2 156.0 L 110.5 150.7 L 114.5 145.2 L 118.1 139.4 L 121.5 133.3 L 122.2555555343628 131.7 L 83.8 131.7 L 83.8 127.7 L 127.0 127.7 L 127.0 114.9 L 139.0 116.9 L 142.0 118.9 L 139.0 120.7 L 139.0 127.7 L 160.2 127.7 L 170.2 117.7 L 182.2 127.7 L 182.2 131.7 L 139.0 131.7 L 139.0 131.86086959838866 L 141.8 134.6 L 146.2 139.1 L 150.5 143.4 L 154.9 147.5 L 159.5 151.4 L 164.1 155.2 L 168.8 158.7 L 173.7 162.0 L 178.7 165.1 L 183.8 168.0 L 188.0 170.6 L 176.9 179.2 L 171.7 175.5 Z M 109.4 101.0 L 125.4 101.0 L 126.6 100.9 L 127.5 100.7 L 128.4 100.4 L 128.8 100.0 L 129.1 99.1 L 129.3 98.2 L 129.4 97.0 L 129.4 68.66097564697266 L 128.8 69.7 L 124.5 76.5 L 120.0 82.9 L 115.2 89.0 L 110.3 94.6 L 105.1 99.9 L 99.7 104.8 L 94.0 109.3 L 88.1 113.3 L 81.9 116.7 L 80.8 115.2 L 85.7 110.3 L 90.4 105.3 L 95.0 100.2 L 99.5 94.8 L 103.7 89.3 L 107.8 83.4 L 111.7 77.3 L 115.4 70.9 L 118.9 64.2 L 119.94761905670165 62.0 L 82.0 62.0 L 82.0 58.0 L 172.0 58.0 L 172.4285714149475 57.64285717010498 L 172.9 56.7 L 173.27240219116212 56.93966484069824 L 178.0 53.0 L 189.0 62.0 L 184.0 65.0 L 180.1420560836792 66.60747661590577 L 178.6 68.5 L 176.4 71.1 L 174.0 73.6 L 171.7 76.2 L 164.2 83.7 L 161.4 86.0 L 158.9 88.5 L 157.4 87.4 L 159.2 84.3 L 160.6 81.0 L 163.8 74.8 L 165.3 71.7 L 166.9 68.7 L 168.4 65.6 L 169.9 62.6 L 170.21034479141235 62.0 L 141.4 62.0 L 141.4 97.0 L 141.2 99.5 L 140.8 102.0 L 140.0 104.4 L 138.7 106.7 L 137.1 108.7 L 135.1 110.3 L 132.8 111.6 L 130.4 112.4 L 127.9 112.8 L 125.4 113.0 L 125.4 107.0 L 109.4 104.0 Z M 131.2 49.3 L 130.5 47.4 L 129.7 45.5 L 128.8 43.5 L 127.8 41.5 L 126.6 39.5 L 125.4 37.3 L 124.1 35.1 L 122.3 33.3 L 123.5 31.9 L 125.6 33.4 L 128.0 34.6 L 130.3 35.9 L 132.4 37.3 L 134.4 38.9 L 136.3 40.4 L 138.1 42.1 L 138.50333337783815 42.50333337783813 L 140.8 39.5 L 143.4 36.3 L 145.8 33.3 L 148.1 30.4 L 150.2 27.6 L 152.2 25.0 L 152.96000003814697 24.0 L 98.2 24.0 L 98.2 20.0 L 155.8 20.0 L 156.08571424484253 19.7619047164917 L 157.3 17.9 L 157.78754024505616 18.343716430664063 L 161.8 15.0 L 172.8 24.0 L 167.8 27.0 L 162.1199999809265 29.36666669845581 L 161.6 29.8 L 159.1 31.8 L 156.4 33.9 L 153.5 36.0 L 150.5 38.2 L 147.3 40.5 L 143.9 42.8 L 140.69381046295166 44.79303674697876 L 141.5 45.7 L 143.0 47.6 L 143.2 52.1 L 140.3 55.6 L 135.7 55.9 L 132.2 53.0 L 131.8 51.1 Z " />
</g>
</svg>
