<svg xmlns="http://www.w3.org/2000/svg" xmlns:xlink="http://www.w3.org/1999/xlink" version="1.1" baseProfile="full" viewBox="0 0 200 200" width="200" height="200">
<g fill="black">
<path d="M 103.1 27.0 L 174.4 27.0 L 180.4 22.0 L 191.4 31.0 L 186.4 35.0 L 186.4 176.0 L 174.4 182.0 L 174.4 170.0 L 103.1 170.0 L 103.1 182.0 L 92.1 187.5 L 92.1 21.5 Z M 86.3 29.0 L 86.3 33.0 L 60.0 33.0 L 60.0 61.0 L 71.0 61.0 L 76.0 56.0 L 86.0 65.0 L 81.0 68.0 L 81.0 174.0 L 71.0 179.0 L 71.0 168.0 L 26.5 168.0 L 26.5 180.0 L 14.5 186.0 L 14.5 55.0 L 26.5 61.0 L 34.3 61.0 L 34.3 33.0 L 10.2 33.0 L 10.2 29.0 L 64.3 29.0 L 74.3 19.0 Z M 103.1 31.0 L 103.1 166.0 L 174.4 166.0 L 174.4 31.0 Z M 26.5 143.0 L 26.5 164.0 L 71.0 164.0 L 71.0 143.0 Z M 154.7 132.0 L 153.2 127.6 L 151.5 123.1 L 149.7 118.7 L 147.8 114.3 L 145.7 109.8 L 143.6 105.4 L 141.7894293785095 101.52020578384399 L 140.3 110.3 L 137.6 120.6 L 134.2 129.9 L 130.0 138.3 L 125.1 145.7 L 119.4 151.9 L 112.9 157.0 L 105.8 160.7 L 104.9 159.2 L 110.5 154.0 L 115.4 148.3 L 119.7 142.0 L 123.3 134.9 L 126.3 127.0 L 128.7 118.2 L 130.4 108.5 L 131.5 98.0 L 132.0 86.5 L 131.83064517974853 76.0 L 109.0 76.0 L 109.0 72.0 L 131.8 72.0 L 131.8 39.0 L 143.8 41.0 L 146.8 43.0 L 143.8 44.8 L 143.8 72.0 L 149.4 72.0 L 159.4 62.0 L 171.4 72.0 L 171.4 76.0 L 143.63282442092896 76.0 L 143.3 86.9 L 142.41843175888062 96.67739305496215 L 144.6 98.8 L 148.1 102.5 L 151.3 106.4 L 154.3 110.5 L 157.1 114.7 L 159.8 119.0 L 162.3 123.4 L 164.6 127.9 L 166.8 132.5 L 168.8 137.2 L 168.5 141.7 L 165.1 144.8 L 160.6 144.5 L 157.5 141.1 L 156.2 136.5 Z M 71.0 114.0 L 71.0 65.0 L 60.0 65.0 L 60.0 107.0 L 60.2 108.3 L 60.5 109.4 L 60.8 110.2 L 61.2 110.6 L 61.6 110.9 L 62.0 111.1 L 62.094827556610106 111.13793106079102 L 67.5 90.5 L 69.5 90.5 L 67.5 111.5 L 70.8 113.7 Z M 26.5 65.0 L 26.5 127.0375 L 27.5 124.6 L 29.0 120.3 L 30.4 115.4 L 31.6 109.9 L 32.6 103.8 L 33.4 97.0 L 34.0 89.5 L 34.3 81.3 L 34.4 72.5 L 34.321052646636964 65.0 Z M 44.3 33.0 L 44.3 61.0 L 51.0 61.0 L 51.0 33.0 Z M 63.0 122.2 L 60.6 121.7 L 58.4 120.8 L 56.3 119.6 L 54.5 118.0 L 53.0 116.1 L 52.0 113.9 L 51.4 111.7 L 51.1 109.4 L 51.0 107.0 L 51.0 65.0 L 44.21752576828003 65.0 L 43.9 72.7 L 43.2 81.9 L 42.3 90.3 L 41.1 98.1 L 39.5 105.1 L 37.7 111.5 L 35.6 117.2 L 33.1 122.1 L 30.3 126.2 L 27.0 129.4 L 26.5 128.99090909957886 L 26.5 139.0 L 71.0 139.0 L 71.0 120.0 L 70.8 120.3 L 67.5 122.5 L 65.5 122.5 Z " />
</g>
</svg>
