<svg xmlns="http://www.w3.org/2000/svg" xmlns:xlink="http://www.w3.org/1999/xlink" version="1.1" baseProfile="full" viewBox="0 0 200 200" width="200" height="200">
<g fill="black">
<path d="M 130.7 183.7 L 112.3 182.6 L 97.2 180.8 L 85.0 178.1 L 75.1 174.6 L 67.2 170.3 L 61.1 165.3 L 56.4 159.6 L 54.27821521759033 155.8868766784668 L 52.0 158.1 L 48.4 161.5 L 44.9 164.6 L 41.3 167.7 L 37.7 170.6 L 26.9 178.7 L 23.323113918304443 181.18394861221313 L 23.1 185.2 L 19.8 183.6 L 12.1 174.3 L 13.8 173.3 L 17.6 171.4 L 21.4 169.6 L 29.2 165.6 L 33.2 163.6 L 37.2 161.5 L 44.0 158.1 L 44.0 109.0 L 14.0 109.0 L 14.0 105.0 L 44.0 105.0 L 50.0 100.0 L 61.0 109.0 L 56.0 113.0 L 56.0 153.70384616851806 L 59.5 156.8 L 60.08954038619995 157.2257791519165 L 63.8 149.9 L 67.3 141.4 L 70.4 131.9 L 73.1 121.3 L 75.3 109.7 L 77.2 96.9 L 78.5 83.0 L 79.4 68.0 L 79.7234567642212 54.9 L 63.7 54.9 L 63.7 50.9 L 79.8 50.9 L 79.8 15.1 L 91.8 17.1 L 94.8 19.1 L 91.8 20.9 L 91.8 34.5 L 91.24406776428222 50.9 L 102.9 50.9 L 108.9 45.9 L 119.9 54.9 L 114.9 57.9 L 114.9 67.6 L 114.8 81.2 L 114.5 93.5 L 114.1 104.6 L 113.6 114.4 L 113.0 123.1 L 112.2 130.5 L 111.2 136.8 L 110.1 142.0 L 108.6 146.3 L 107.5 148.5 L 106.2 150.7 L 104.7 152.6 L 102.9 154.3 L 101.0 155.8 L 98.8 157.0 L 96.6 157.9 L 94.2 158.6 L 91.7 159.0 L 89.2 159.1 L 89.2 153.1 L 77.2 150.1 L 77.2 147.1 L 89.2 147.1 L 90.5 147.0 L 91.7 146.8 L 92.7 146.6 L 93.6 146.2 L 94.4 145.8 L 95.1 145.2 L 95.7 144.6 L 96.4 143.8 L 97.0 142.7 L 97.6 141.5 L 98.5 138.9 L 99.4 134.7 L 100.3 129.0 L 101.0 122.0 L 101.6 113.7 L 102.1 104.1 L 102.5 93.2 L 102.8 81.0 L 102.9 67.6 L 102.9 54.9 L 91.01999998092651 54.9 L 90.1 68.7 L 88.5 84.0 L 86.4 98.3 L 83.7 111.3 L 80.4 123.3 L 76.6 134.0 L 72.1 143.6 L 67.1 151.8 L 61.6233588218689 158.33353691101075 L 64.9 160.7 L 70.8 164.1 L 78.0 166.8 L 87.1 169.0 L 98.6 170.6 L 113.0 171.6 L 130.9 171.9 L 152.6 171.5 L 178.7 170.4 L 190.0 169.9 L 179.2 183.5 L 152.9 184.0 Z M 121.9 150.6 L 141.9 150.6 L 143.1 150.5 L 144.1 150.4 L 144.6 150.2 L 145.0 150.0 L 145.3 149.7 L 145.5 149.3 L 145.7 148.7 L 145.8 147.8 L 145.9 146.6 L 145.9 86.68148145675659 L 142.5909631729126 88.02960758209228 L 142.0 90.9 L 140.4 97.5 L 138.7 104.0 L 136.8 110.3 L 134.7 116.6 L 132.5 122.6 L 130.1 128.5 L 127.5 134.3 L 124.6 139.8 L 121.4 145.1 L 119.7 144.4 L 121.0 138.4 L 122.4 132.5 L 123.8 126.5 L 125.2 120.4 L 126.5 114.3 L 127.7 108.1 L 128.9 101.8 L 129.9 95.4 L 130.8 88.9 L 131.47815628051757 83.30521039962768 L 131.4 83.3 L 131.9 80.3 L 143.4 84.1 L 145.9 86.41481485366822 L 145.9 56.7 L 157.9 58.7 L 160.9 60.7 L 157.9 62.5 L 157.9 146.6 L 157.8 149.1 L 157.3 151.6 L 156.5 154.0 L 155.3 156.3 L 153.7 158.3 L 151.6 160.0 L 149.4 161.2 L 147.0 162.0 L 144.5 162.4 L 141.9 162.6 L 141.9 156.6 L 121.9 153.6 Z M 170.0 124.4 L 168.2 113.8 L 167.2 108.5 L 163.6 92.6 L 162.4 87.2 L 161.3 81.8 L 163.0 81.1 L 166.0 85.8 L 168.7 90.7 L 171.1 95.8 L 173.3 100.9 L 175.3 106.1 L 177.2 111.4 L 178.9 116.7 L 180.5 122.2 L 181.9 127.7 L 183.2 133.2 L 182.2 137.6 L 178.3 140.1 L 173.9 139.0 L 171.4 135.2 L 170.8 129.8 Z M 144.9 16.5 L 147.6 19.0 L 144.11612901687622 20.419354820251463 L 143.3 24.5 L 141.5 32.2 L 139.5 39.8 L 138.28108110427857 43.9 L 171.5 43.9 L 177.5 38.9 L 188.5 47.9 L 183.5 50.9 L 181.0402714729309 51.92488689422608 L 180.0 54.1 L 178.8 56.6 L 177.4 59.3 L 176.0 62.1 L 174.5 65.0 L 172.9 68.1 L 171.1 71.4 L 169.6 74.9 L 167.8 74.4 L 168.6 70.6 L 168.9 66.9 L 169.4 63.4 L 169.8 60.1 L 170.2 57.0 L 170.6 54.1 L 170.9 51.4 L 171.2 48.8 L 171.3125 47.9 L 137.06986303329467 47.9 L 134.9 54.5 L 132.3 61.6 L 129.4 68.4 L 126.3 75.1 L 122.9 81.5 L 119.1 87.7 L 117.5 86.9 L 119.4 80.1 L 123.2 66.3 L 125.0 59.3 L 126.7 52.1 L 128.3 44.9 L 129.7 37.6 L 131.0 30.1 L 132.1 22.5 L 132.97118644714357 15.704745769500732 L 132.9 15.7 L 133.4 12.7 Z M 38.3 77.2 L 36.1 74.7 L 33.7 72.2 L 31.2 69.7 L 28.5 67.3 L 25.7 65.0 L 22.8 62.6 L 19.8 60.3 L 16.5 58.2 L 17.2 56.5 L 21.1 57.6 L 24.9 58.6 L 28.6 60.0 L 32.2 61.5 L 35.7 63.3 L 39.1 65.2 L 42.4 67.3 L 45.5 69.6 L 48.6 72.1 L 51.5 74.7 L 52.9 79.1 L 50.9 83.2 L 46.6 84.6 L 42.5 82.6 L 40.5 79.9 Z M 47.9 41.9 L 46.0 39.3 L 43.9 36.8 L 41.6 34.3 L 39.1 31.8 L 36.5 29.4 L 33.7 26.9 L 30.7 24.4 L 27.5 22.2 L 28.2 20.6 L 32.1 21.8 L 35.9 23.1 L 39.5 24.6 L 43.0 26.2 L 46.4 28.1 L 49.6 30.2 L 52.7 32.4 L 55.6 34.7 L 58.3 37.3 L 61.0 40.0 L 62.0 44.4 L 59.8 48.4 L 55.3 49.4 L 51.4 47.2 L 49.7 44.5 Z " />
</g>
</svg>
