<svg xmlns="http://www.w3.org/2000/svg" xmlns:xlink="http://www.w3.org/1999/xlink" version="1.1" baseProfile="full" viewBox="0 0 200 200" width="200" height="200">
<g fill="black">
<path d="M 49.0 121.0 L 69.0 121.0 L 75.0 116.0 L 86.0 125.0 L 81.0 129.0 L 81.0 156.7777777671814 L 83.3 155.5 L 87.9 153.0 L 92.6 150.5 L 97.4 148.0 L 102.3 145.6 L 107.4 143.2 L 108.5 144.7 L 104.5 148.7 L 100.4 152.4 L 96.2 156.0 L 88.0 162.6 L 83.9 165.8 L 75.9 171.8 L 71.9 174.7 L 71.36310577392578 175.08546257019043 L 71.2 179.0 L 68.0 177.5 L 59.9 168.4 L 61.6 167.3 L 65.8 165.1 L 69.0 163.38837213516234 L 69.0 125.0 L 49.0 125.0 L 49.0 138.0 L 48.3 144.9 L 47.1 151.6 L 45.1 157.9 L 42.6 163.8 L 39.4 169.3 L 35.6 174.4 L 31.2 179.0 L 26.2 183.1 L 20.6 186.7 L 14.4 189.7 L 13.5 188.2 L 18.3 183.7 L 22.6 179.2 L 26.3 174.6 L 29.4 169.9 L 32.0 165.1 L 34.0 160.1 L 35.5 154.9 L 36.5 149.5 L 37.0 143.9 L 37.0 115.0 Z M 138.0 161.8 L 138.8 165.4 L 135.00791997909545 164.46861190795897 L 134.3 165.1 L 130.2 168.2 L 125.9 171.2 L 121.3 174.1 L 116.3 176.9 L 111.1 179.6 L 105.6 182.2 L 99.7 184.6 L 93.5 186.8 L 87.0 188.8 L 86.2 187.1 L 91.9 183.4 L 97.3 179.9 L 102.4 176.5 L 107.2 173.1 L 111.7 169.8 L 115.9 166.5 L 119.8 163.2 L 123.3 160.0 L 126.6 156.7 L 128.75101881027223 154.2416928291321 L 128.7 154.2 L 129.7 153.2 Z M 170.9 176.1 L 168.7 173.3 L 166.3 170.5 L 163.8 167.9 L 161.0 165.2 L 158.0 162.7 L 154.9 160.1 L 151.6 157.5 L 148.1 155.2 L 148.8 153.5 L 153.0 154.7 L 157.2 156.0 L 161.2 157.6 L 165.0 159.5 L 168.7 161.5 L 172.2 163.8 L 175.5 166.3 L 178.7 169.0 L 181.7 171.9 L 184.5 175.0 L 185.5 179.5 L 183.2 183.4 L 178.7 184.4 L 174.8 182.0 L 172.9 179.0 Z M 187.5 26.0 L 187.5 30.0 L 151.5 30.0 L 151.2 30.5 L 149.4 33.4 L 147.4 36.3 L 145.4 39.1 L 143.4 41.8 L 141.2 44.5 L 138.9 47.1 L 136.6 49.6 L 134.1 51.9 L 131.72608699798585 54.0 L 164.1 54.0 L 170.1 49.0 L 181.1 58.0 L 176.1 62.0 L 176.1 144.0 L 164.1 150.0 L 164.1 144.0 L 122.2 144.0 L 110.2 150.0 L 110.2 48.0 L 122.2 54.0 L 128.42068967819213 54.0 L 129.3 52.5 L 130.6 49.4 L 132.0 46.4 L 135.9 37.4 L 137.1 34.4 L 138.2 31.5 L 138.73225803375243 30.0 L 100.5 30.0 L 100.5 26.0 L 165.5 26.0 L 175.5 16.0 Z M 122.2 115.0 L 122.2 140.0 L 164.1 140.0 L 164.1 115.0 Z M 122.2 87.0 L 122.2 111.0 L 164.1 111.0 L 164.1 87.0 Z M 16.4 110.5 L 13.7 106.9 L 14.3 102.3 L 16.0 100.0 L 17.5 97.5 L 18.9 95.0 L 20.1 92.3 L 21.1 89.5 L 21.9 86.5 L 22.5 83.4 L 23.0 80.2 L 23.4 76.7 L 23.3 73.1 L 25.0 72.7 L 26.2 76.3 L 27.3 79.8 L 27.566666698455812 81.0 L 88.0 81.0 L 88.48000001907349 80.6 L 88.5 80.5 L 88.5649582862854 80.52920141220093 L 94.0 76.0 L 105.0 85.0 L 100.0 88.0 L 96.34820146560669 89.52158269882202 L 95.6 90.5 L 94.2 92.3 L 91.2 95.9 L 89.6 97.7 L 87.9 99.5 L 87.52631578445434 99.87368421554565 L 91.0 103.0 L 91.0 107.0 L 31.0 107.0 L 31.0 103.0 L 72.81818180084228 103.0 L 81.0 94.0 L 84.69824562072753 97.32842102050782 L 85.1 95.4 L 85.7 93.1 L 86.2 90.8 L 86.7 88.6 L 87.2 86.5 L 87.5 85.0 L 28.322222232818604 85.0 L 28.6 87.0 L 28.7 90.6 L 28.5 94.2 L 28.0 97.8 L 27.2 101.4 L 26.1 104.9 L 24.6 108.4 L 21.0 111.1 Z M 122.2 58.0 L 122.2 83.0 L 164.1 83.0 L 164.1 58.0 Z M 25.0 63.0 L 51.0 63.0 L 51.0 42.0 L 15.0 42.0 L 15.0 38.0 L 51.0 38.0 L 51.0 14.0 L 63.0 16.0 L 66.0 18.0 L 63.0 19.8 L 63.0 38.0 L 79.0 38.0 L 89.0 28.0 L 101.0 38.0 L 101.0 42.0 L 63.0 42.0 L 63.0 63.0 L 77.81818180084228 63.0 L 86.0 54.0 L 96.0 63.0 L 96.0 67.0 L 25.0 67.0 Z " />
</g>
</svg>
