<svg xmlns="http://www.w3.org/2000/svg" xmlns:xlink="http://www.w3.org/1999/xlink" version="1.1" baseProfile="full" viewBox="0 0 200 200" width="200" height="200">
<g fill="black">
<path d="M 129.4 18.7 L 131.4 21.7 L 126.92580642700196 22.406451606750487 L 126.8 22.6 L 125.4 24.7 L 123.9 26.8 L 122.3 28.9 L 120.6 31.1 L 118.8 33.3 L 116.9 35.6 L 115.16086959838867 37.6 L 162.6 37.6 L 168.6 32.6 L 179.6 41.6 L 174.6 45.6 L 174.6 103.5 L 162.6 109.5 L 162.6 101.5 L 98.8 101.5 L 86.975 107.4125 L 97.7 109.2 L 100.7 111.2 L 97.7 113.0 L 97.7 135.3 L 112.31818180084228 135.3 L 120.5 126.3 L 130.5 135.3 L 130.5 139.3 L 97.7 139.3 L 97.7 168.7324324607849 L 103.6 166.5 L 107.4 165.1 L 115.2 162.3 L 119.2 161.0 L 123.4 159.7 L 127.5 158.3 L 128.4 159.9 L 124.8 162.5 L 121.4 165.2 L 117.9 167.7 L 114.4 170.0 L 111.0 172.3 L 107.6 174.5 L 104.2 176.6 L 97.6 180.8 L 94.3 182.7 L 89.7 187.3 L 79.7 177.3 L 85.7 171.3 L 85.7 107.2 L 86.8 107.38333330154418 L 86.8 31.6 L 98.8 37.6 L 112.32758617401123 37.6 L 112.7 36.7 L 113.4 33.8 L 114.2 30.9 L 114.9 28.2 L 115.6 25.6 L 116.3 23.2 L 116.8 20.8 L 117.4 18.5 L 117.9 16.3 L 118.11570930480957 15.167526340484619 L 117.9 15.1 L 118.8 12.9 Z M 181.7 143.6 L 183.7 143.6 L 181.7 168.6 L 185.3 171.0 L 187.7 174.6 L 185.3 178.2 L 181.7 180.6 L 150.5 180.6 L 147.9 180.5 L 145.4 180.0 L 143.0 179.2 L 140.7 178.0 L 138.7 176.4 L 137.1 174.3 L 135.8 172.1 L 135.0 169.7 L 134.6 167.2 L 134.5 164.6 L 134.5 107.2 L 146.5 109.2 L 149.5 111.2 L 146.5 113.0 L 146.5 139.58000001907348 L 147.2 139.0 L 150.6 136.2 L 153.9 133.4 L 157.0 130.7 L 160.0 128.0 L 162.9 125.3 L 165.6 122.7 L 168.2 120.0 L 169.99259262084962 117.98333330154419 L 169.9 117.9 L 170.8 117.0 L 178.9 126.0 L 179.5 129.5 L 175.61745510101318 128.46003265380858 L 172.4 130.8 L 168.9 133.1 L 165.4 135.3 L 161.6 137.4 L 157.8 139.4 L 153.8 141.3 L 149.6 143.1 L 146.5 144.25348834991456 L 146.5 165.8 L 146.7 166.8 L 146.9 167.3 L 147.0 167.7 L 147.2 167.9 L 147.4 168.0 L 147.7 168.2 L 148.3 168.4 L 149.2 168.5 L 150.5 168.6 L 175.7 168.6 Z M 75.9 73.0 L 75.9 77.0 L 52.3 77.0 L 52.3 111.0 L 57.7 111.0 L 67.7 101.0 L 79.7 111.0 L 79.7 115.0 L 52.3 115.0 L 52.3 157.0625 L 54.1 155.6 L 57.4 152.8 L 60.8 150.0 L 64.4 147.1 L 68.1 144.2 L 72.0 141.3 L 76.0 138.3 L 77.3 139.6 L 74.4 143.7 L 71.6 147.7 L 68.8 151.5 L 66.0 155.1 L 63.3 158.6 L 57.9 165.2 L 55.4 168.3 L 52.9 171.3 L 50.5 174.2 L 50.3 174.0 L 44.3 180.0 L 34.3 170.0 L 40.3 164.0 L 40.3 115.0 L 14.4 115.0 L 14.4 111.0 L 40.3 111.0 L 40.3 77.0 L 28.8 77.0 L 28.8 73.0 L 57.71818180084229 73.0 L 65.9 64.0 Z M 98.8 41.6 L 98.8 97.5 L 162.6 97.5 L 162.6 41.6 Z M 139.2 83.8 L 135.7 79.9 L 133.3300455093384 77.33254928588867 L 133.0 77.6 L 127.0 81.9 L 120.8 85.9 L 114.3 89.5 L 107.6 92.7 L 100.6 95.3 L 99.8 93.7 L 105.7 89.4 L 111.4 85.0 L 117.0 80.5 L 122.3 75.9 L 127.25608520507812 71.32515211105347 L 124.1 68.4 L 119.9 64.7 L 115.5 61.0 L 110.9 57.2 L 106.3 53.3 L 107.1 51.7 L 112.9 53.9 L 118.4 56.5 L 123.7 59.3 L 128.7 62.4 L 133.18642644882203 65.3299111366272 L 137.1 61.0 L 141.7 55.6 L 146.0 50.0 L 150.1 44.2 L 150.5 43.6 L 159.7 51.4 L 160.9 54.8 L 157.1548933982849 54.41257514953613 L 154.8 57.2 L 149.7 62.8 L 144.3 68.0 L 140.79757871627808 71.12033901214599 L 142.7 72.6 L 146.9 76.4 L 151.0 80.3 L 154.8 84.3 L 156.1 88.7 L 154.0 92.8 L 149.6 94.0 L 145.6 91.9 L 142.5 87.9 Z M 50.3 17.4 L 52.7 20.1 L 49.11019048690796 21.189763641357423 L 47.6 26.0 L 44.8 34.4 L 41.7 42.6 L 41.53291139602661 43.0 L 60.81818180084228 43.0 L 69.0 34.0 L 79.0 43.0 L 79.0 47.0 L 39.862025356292726 47.0 L 38.4 50.5 L 34.9 58.3 L 31.2 65.9 L 27.3 73.2 L 23.0 80.2 L 18.5 87.0 L 13.6 93.4 L 12.1 92.5 L 18.3 77.7 L 21.3 70.3 L 24.3 62.8 L 27.1 55.1 L 29.7 47.3 L 32.2 39.3 L 34.5 31.2 L 36.7 22.9 L 38.4622444152832 15.410461235046387 L 38.4 15.4 L 39.1 12.7 Z " />
</g>
</svg>
