<svg xmlns="http://www.w3.org/2000/svg" xmlns:xlink="http://www.w3.org/1999/xlink" version="1.1" baseProfile="full" viewBox="0 0 200 200" width="200" height="200">
<g fill="black">
<path d="M 168.9 98.3 L 178.9 107.3 L 178.9 111.3 L 142.5 111.3 L 142.5 127.5 L 158.71818180084227 127.5 L 166.9 118.5 L 176.9 127.5 L 176.9 131.5 L 142.5 131.5 L 142.5 148.3 L 158.71818180084227 148.3 L 166.9 139.3 L 176.9 148.3 L 176.9 152.3 L 142.5 152.3 L 142.5 171.4 L 160.9 171.4 L 170.9 161.4 L 182.9 171.4 L 182.9 175.4 L 105.2 175.4 L 105.2 182.4 L 93.2 188.4 L 93.2 117.4375 L 91.0 119.5 L 85.9 124.0 L 80.4 128.5 L 74.6 133.0 L 73.3 131.7 L 77.7 125.9 L 82.0 120.3 L 86.1 115.1 L 90.1 110.0 L 93.8 105.0 L 97.3 100.3 L 100.5 95.6 L 103.5 91.1 L 106.3 86.8 L 108.24869832992553 83.52618684768677 L 108.2 83.5 L 108.6790322303772 82.80322580337524 L 108.8 82.6 L 108.81289768218994 82.60851249694824 L 109.3 81.9 L 118.8 89.2 L 120.2 92.6 L 116.35835275650024 92.40466203689576 L 115.6 93.4 L 112.1 97.6 L 108.4 101.8 L 104.5 106.2 L 103.425 107.3 L 160.71818180084227 107.3 Z M 71.1 73.0 L 71.1 77.0 L 49.4 77.0 L 49.4 111.0 L 52.7 111.0 L 62.7 101.0 L 74.7 111.0 L 74.7 115.0 L 49.4 115.0 L 49.4 156.6 L 50.4 155.7 L 53.6 153.0 L 56.8 150.1 L 60.2 147.2 L 63.7 144.3 L 67.4 141.4 L 71.2 138.3 L 72.5 139.6 L 69.8 143.6 L 67.2 147.6 L 64.7 151.4 L 62.1 155.0 L 59.5 158.4 L 57.1 161.8 L 54.7 165.0 L 52.3 168.1 L 50.0 171.1 L 49.34503812789917 171.96335878372193 L 49.4 172.0 L 49.05714282989502 172.342857170105 L 47.8 174.0 L 47.59171600341797 173.80828399658202 L 41.4 180.0 L 31.4 170.0 L 37.4 164.0 L 37.4 115.0 L 13.6 115.0 L 13.6 111.0 L 37.4 111.0 L 37.4 77.0 L 27.1 77.0 L 27.1 73.0 L 52.918181800842284 73.0 L 61.1 64.0 Z M 105.2 152.3 L 105.2 171.4 L 130.5 171.4 L 130.5 152.3 Z M 105.2 131.5 L 105.2 148.3 L 130.5 148.3 L 130.5 131.5 Z M 105.2 111.3 L 105.2 127.5 L 130.5 127.5 L 130.5 111.3 Z M 140.3 101.4 L 139.9 100.3 L 139.2 98.9 L 138.1 97.4 L 136.7 95.7 L 135.0 93.9 L 133.0 91.9 L 130.7 89.8 L 127.9 88.0 L 128.7 86.4 L 131.8 87.8 L 134.8 88.7 L 137.6 89.7 L 140.1 90.6 L 142.4 91.6 L 144.5 92.6 L 146.4 93.7 L 148.2 94.9 L 149.8 96.3 L 151.1 98.1 L 151.0 102.7 L 147.7 105.9 L 143.1 105.7 L 139.9 102.4 L 140.3 102.1 Z M 47.6 17.3 L 50.0 20.0 L 46.500696849823 21.081602764129638 L 45.1 25.9 L 42.4 34.3 L 39.5 42.5 L 39.3037974357605 43.0 L 55.81818180084228 43.0 L 64.0 34.0 L 74.0 43.0 L 74.0 47.0 L 37.73417720794678 47.0 L 36.4 50.4 L 33.1 58.2 L 29.6 65.8 L 25.9 73.1 L 21.9 80.2 L 17.6 86.9 L 13.0 93.4 L 11.4 92.5 L 14.2 85.2 L 17.1 77.8 L 19.9 70.4 L 22.6 62.8 L 25.2 55.2 L 27.6 47.4 L 30.0 39.4 L 32.1 31.3 L 34.1 23.0 L 35.9 14.5 L 35.955797290802 14.513353157043458 L 36.4 12.8 Z M 136.2 82.4 L 124.2 88.4 L 124.2 44.7 L 90.5 44.7 L 90.7 46.7 L 90.8 50.5 L 90.7 54.0 L 90.4 57.3 L 89.9 60.4 L 89.0 63.3 L 87.8 66.1 L 86.2 68.6 L 82.0 70.3 L 77.7 68.6 L 76.0 64.4 L 77.7 60.1 L 78.7 59.6 L 79.8 58.5 L 81.0 57.0 L 82.1 55.0 L 83.2 52.5 L 84.3 49.6 L 85.2 46.2 L 86.1 42.5 L 87.0 38.3 L 87.4 33.8 L 89.2 33.8 L 89.6 38.4 L 89.97441864013672 40.7 L 124.2 40.7 L 124.2 27.4 L 90.6 27.4 L 90.6 23.4 L 154.01818180084229 23.4 L 162.2 14.4 L 172.2 23.4 L 172.2 27.4 L 136.2 27.4 L 136.2 40.7 L 171.6 40.7 L 177.6 35.7 L 188.6 44.7 L 183.6 47.7 L 180.4 49.03333330154419 L 179.6 50.3 L 178.3 52.0 L 177.0 53.8 L 175.6 55.5 L 174.2 57.1 L 172.7 58.7 L 171.1 60.3 L 170.0 62.0 L 168.4 61.1 L 169.2 59.2 L 169.4 57.1 L 169.7 55.0 L 170.1 52.9 L 170.4 50.9 L 171.0 46.7 L 171.4 44.7 L 136.2 44.7 Z M 171.0 79.2 L 139.8 79.2 L 139.8 75.2 L 171.0 75.2 Z M 120.6 79.2 L 89.4 79.2 L 89.4 75.2 L 120.6 75.2 Z M 166.8 62.7 L 139.8 62.7 L 139.8 58.7 L 166.8 58.7 Z M 120.6 62.7 L 92.4 62.7 L 92.4 58.7 L 120.6 58.7 Z " />
</g>
</svg>
