<svg xmlns="http://www.w3.org/2000/svg" xmlns:xlink="http://www.w3.org/1999/xlink" version="1.1" baseProfile="full" viewBox="0 0 200 200" width="200" height="200">
<g fill="black">
<path d="M 117.66581192016602 113.0 L 138.0 113.0 L 138.0 73.0 L 118.2 73.0 L 118.2 100.0 L 117.7 112.5 Z M 80.4 111.5 L 78.6 123.2 L 80.4 124.4 Z M 77.0 146.1 L 77.0 150.1 L 60.0 150.1 L 60.0 177.3 L 48.0 183.3 L 48.0 150.1 L 30.9 150.1 L 30.9 146.1 L 58.81818180084228 146.1 L 67.0 137.1 Z M 28.5 103.9 L 28.5 136.32727270126344 L 28.7 136.1 L 30.6 133.2 L 32.4 130.3 L 34.1 127.2 L 35.6 123.9 L 37.0 120.4 L 38.3 116.6 L 39.5 112.6 L 40.5 108.3 L 41.219344234466554 104.70327873229981 L 41.2 104.7 L 41.2875 104.3625 L 41.380000019073485 103.9 Z M 150.0 73.0 L 150.0 113.0 L 170.9 113.0 L 170.9 73.0 Z M 46.38723402023315 103.9 L 53.0 106.7 L 55.0 108.95 L 55.0 103.9 Z M 38.6 46.5 L 70.3 46.5 L 76.3 41.5 L 87.3 50.5 L 82.3 54.5 L 82.3 84.1 L 70.3 90.1 L 70.3 82.1 L 38.6 82.1 L 38.6 85.1 L 26.6 91.1 L 26.6 40.5 Z M 38.6 50.5 L 38.6 78.1 L 70.3 78.1 L 70.3 50.5 Z M 118.2 30.0 L 118.2 69.0 L 138.0 69.0 L 138.0 30.0 Z M 150.0 30.0 L 150.0 69.0 L 170.9 69.0 L 170.9 30.0 Z M 92.7 25.3 L 92.7 29.3 L 17.1 29.3 L 17.1 25.3 L 70.7 25.3 L 80.7 15.3 Z M 78.6 110.2 L 80.4 110.2 L 80.4 103.9 L 67.0 103.9 L 67.0 117.7 L 66.9 118.9 L 66.9 119.9 L 67.0 120.6 L 67.1 121.1 L 67.2 121.5 L 67.4 121.8 L 67.8 122.2 L 68.5 122.6 L 69.6 123.0 L 71.0 123.2 L 74.1 123.2 Z M 91.8 174.0 L 91.0 176.4 L 89.8 178.7 L 88.1 180.7 L 86.1 182.4 L 83.8 183.6 L 81.4 184.4 L 78.9 184.8 L 76.4 185.0 L 76.4 179.0 L 66.4 176.0 L 66.4 173.0 L 76.4 173.0 L 77.6 172.9 L 78.5 172.7 L 79.1 172.5 L 79.5 172.4 L 79.6 172.2 L 79.8 172.0 L 80.0 171.7 L 80.2 171.1 L 80.3 170.2 L 80.4 169.0 L 80.4 131.0 L 78.6 132.2 L 68.5 132.2 L 66.2 131.9 L 63.9 131.3 L 61.7 130.3 L 59.7 128.9 L 58.1 127.1 L 56.8 125.0 L 55.8 122.7 L 55.2 120.2 L 55.0 117.7 L 55.0 109.52363634109497 L 51.66246881484985 110.55523691177368 L 51.3 111.6 L 49.4 116.2 L 47.3 120.5 L 45.0 124.4 L 42.5 128.0 L 39.8 131.2 L 37.0 134.1 L 34.0 136.5 L 30.7 138.5 L 28.5 139.6 L 28.5 178.0 L 16.5 184.0 L 16.5 93.9 L 28.5 99.9 L 80.4 99.9 L 86.4 94.9 L 97.4 103.9 L 92.4 107.9 L 92.4 169.0 L 92.2 171.5 Z M 182.3 174.0 L 181.5 176.4 L 180.3 178.7 L 178.6 180.7 L 176.6 182.3 L 174.3 183.6 L 171.9 184.4 L 169.4 184.8 L 166.9 185.0 L 166.9 179.0 L 148.9 176.0 L 148.9 173.0 L 166.9 173.0 L 168.1 172.9 L 169.0 172.7 L 169.9 172.4 L 170.3 172.0 L 170.5 171.7 L 170.6 171.1 L 170.8 170.2 L 170.9 169.0 L 170.9 117.0 L 150.0 117.0 L 150.0 170.0 L 138.0 176.0 L 138.0 117.0 L 117.39230766296387 117.0 L 116.9 124.2 L 115.7 135.1 L 114.1 145.1 L 112.1 154.3 L 109.8 162.6 L 107.0 170.0 L 103.8 176.6 L 100.1 182.1 L 96.0 186.5 L 94.5 185.4 L 96.8 180.2 L 98.9 174.4 L 100.8 167.9 L 102.4 160.7 L 103.8 152.6 L 104.9 143.8 L 105.7 134.1 L 106.2 123.5 L 106.4 112.2 L 106.2 100.0 L 106.2 20.0 L 118.2 26.0 L 170.9 26.0 L 176.9 21.0 L 187.9 30.0 L 182.9 34.0 L 182.9 169.0 L 182.7 171.5 Z " />
</g>
</svg>
