<svg xmlns="http://www.w3.org/2000/svg" xmlns:xlink="http://www.w3.org/1999/xlink" version="1.1" baseProfile="full" viewBox="0 0 200 200" width="200" height="200">
<g fill="black">
<path d="M 74.2 181.8 L 72.5 183.5 L 70.5 184.9 L 68.5 186.2 L 66.3 187.2 L 64.0 188.0 L 61.7 188.5 L 59.2 188.8 L 56.8 189.0 L 56.8 183.0 L 40.8 180.0 L 40.8 177.0 L 56.8 177.0 L 58.2 176.9 L 59.5 176.7 L 60.7 176.4 L 61.8 176.1 L 62.8 175.6 L 63.8 175.0 L 64.7 174.3 L 65.6 173.5 L 66.5 172.5 L 67.4 171.3 L 68.6 169.2 L 69.8 166.4 L 71.0 162.9 L 72.0 158.8 L 72.9 154.2 L 73.6 148.9 L 74.2 143.0 L 74.6 136.6 L 74.8 129.5 L 74.87333335876465 124.0 L 29.6 124.0 L 17.6 130.0 L 17.6 30.0 L 29.6 36.0 L 39.95833330154419 36.0 L 40.5 35.0 L 41.5 32.4 L 42.4 29.8 L 43.4 27.3 L 44.3 24.8 L 45.1 22.3 L 46.0 19.8 L 46.8 17.3 L 47.5 14.8 L 47.92434148788452 13.345114994049073 L 47.8 13.3 L 48.154838752746585 12.554838752746582 L 48.2 12.4 L 48.22344923019409 12.410756587982178 L 48.8 11.2 L 59.1 17.4 L 61.0 20.4 L 56.69893007278442 20.91909465789795 L 55.9 22.0 L 54.3 24.2 L 50.7 28.6 L 48.8 30.7 L 46.8 32.7 L 44.8 34.6 L 43.178947353363036 36.0 L 66.7 36.0 L 72.7 31.0 L 83.7 40.0 L 78.7 44.0 L 78.7 86.0 L 66.7 92.0 L 66.7 84.0 L 29.6 84.0 L 29.6 100.0 L 70.21818180084229 100.0 L 78.4 91.0 L 88.4 100.0 L 88.4 104.0 L 29.6 104.0 L 29.6 120.0 L 74.9 120.0 L 80.9 115.0 L 91.9 124.0 L 86.9 127.0 L 86.83555316925049 127.02685289382934 L 86.8 129.8 L 86.6 137.2 L 86.1 144.0 L 85.5 150.3 L 84.7 156.1 L 83.7 161.4 L 82.5 166.2 L 81.1 170.6 L 79.3 174.5 L 77.3 178.0 L 75.9 180.0 Z M 12.0 177.3 L 9.8 173.2 L 11.1 168.8 L 12.4 167.6 L 13.7 165.9 L 14.9 163.8 L 16.1 161.1 L 17.2 158.0 L 18.1 154.5 L 18.9 150.5 L 19.6 146.1 L 20.2 141.2 L 20.5 136.0 L 22.3 135.9 L 23.2 141.1 L 24.1 146.0 L 24.7 150.7 L 25.0 155.1 L 25.0 159.2 L 24.7 163.1 L 24.1 166.7 L 23.3 170.2 L 22.0 173.4 L 20.4 176.4 L 16.4 178.5 Z M 168.5 180.2 L 166.8 182.0 L 165.0 183.6 L 162.9 184.9 L 160.8 186.0 L 158.5 186.9 L 156.1 187.5 L 153.7 187.8 L 151.2 188.0 L 151.2 182.0 L 131.2 179.0 L 131.2 176.0 L 151.2 176.0 L 152.6 175.9 L 153.8 175.7 L 154.9 175.4 L 155.9 175.1 L 156.8 174.6 L 157.7 174.0 L 158.5 173.3 L 159.3 172.5 L 160.0 171.5 L 160.7 170.3 L 162.3 166.6 L 164.0 160.8 L 165.5 153.2 L 166.8 143.8 L 168.0 132.7 L 168.9 119.9 L 169.6 105.5 L 170.2 89.3 L 170.5 71.5 L 170.58974361419678 54.0 L 112.15735292434692 54.0 L 108.6 59.9 L 104.1 66.5 L 99.2 72.8 L 94.0 78.8 L 88.4 84.5 L 87.0 83.4 L 94.8 69.8 L 98.5 63.0 L 102.0 56.1 L 105.2 49.2 L 108.2 42.3 L 110.9 35.2 L 113.4 28.0 L 115.6 20.7 L 117.2655258178711 14.213215255737305 L 117.2 14.2 L 118.0 11.6 L 129.1 16.6 L 131.4 19.3 L 127.79802646636963 20.264814376831055 L 126.4 24.2 L 123.4 31.7 L 120.2 39.0 L 116.6 46.2 L 114.45217390060425 50.0 L 170.6 50.0 L 176.6 45.0 L 187.6 54.0 L 182.6 57.0 L 182.57443542480468 57.01065187454223 L 182.5 71.6 L 182.2 89.6 L 181.6 105.9 L 180.9 120.7 L 179.9 133.8 L 178.7 145.3 L 177.3 155.2 L 175.6 163.6 L 173.7 170.5 L 171.3 176.1 L 170.0 178.2 Z M 34.1 171.9 L 30.4 169.2 L 29.6 164.7 L 30.3 163.2 L 30.9 161.4 L 31.4 159.4 L 31.7 157.1 L 32.0 154.7 L 32.1 152.0 L 32.2 149.1 L 32.1 145.9 L 31.9 142.6 L 31.2 139.2 L 32.9 138.6 L 34.3 141.9 L 35.9 144.9 L 37.3 147.9 L 38.5 150.9 L 39.4 153.7 L 40.2 156.6 L 40.8 159.3 L 41.1 162.0 L 41.3 164.7 L 41.2 167.4 L 38.6 171.1 Z M 45.8 150.9 L 45.6 148.7 L 45.3 146.6 L 44.9 144.5 L 44.3 142.4 L 43.6 140.3 L 42.8 138.1 L 41.5 136.3 L 42.8 135.0 L 44.6 136.6 L 46.7 138.0 L 48.6 139.7 L 50.4 141.6 L 52.0 143.6 L 53.4 145.9 L 54.7 148.3 L 55.8 150.9 L 56.8 153.6 L 57.6 156.4 L 56.2 160.8 L 52.1 162.9 L 47.8 161.5 L 45.6 157.5 L 45.8 155.2 Z M 146.6 142.2 L 145.4 138.6 L 144.16813869476317 135.18869171142578 L 142.6 135.8 L 136.8 137.8 L 131.1 139.7 L 125.6 141.4 L 120.2 143.0 L 115.0 144.5 L 110.0 146.0 L 105.1 147.4 L 100.4 148.7 L 99.9209189414978 148.838401222229 L 98.5 152.5 L 95.9 150.0 L 91.4 138.7 L 93.4 138.3 L 98.0 137.6 L 102.9 136.9 L 104.62696437835693 136.65822496414185 L 105.1 134.5 L 106.8 127.3 L 108.6 120.2 L 110.4 113.0 L 112.2 105.9 L 113.9 98.8 L 115.7 91.7 L 117.3 84.7 L 120.293466091156 71.4164939880371 L 120.2 71.4 L 120.9 68.8 L 132.1 73.5 L 134.5 76.1 L 130.9435420036316 77.17963905334473 L 129.9 80.5 L 127.7 87.6 L 125.3 94.6 L 122.8 101.5 L 120.3 108.5 L 117.6 115.4 L 114.8 122.3 L 111.8 129.1 L 108.6 135.8 L 108.43645572662354 136.11746835708618 L 113.1 135.4 L 118.4 134.7 L 124.0 134.0 L 129.7 133.2 L 135.7 132.6 L 141.8 132.1 L 143.05355367660522 132.0216528892517 L 142.8 131.3 L 141.3 127.5 L 139.7 123.7 L 138.0 119.7 L 136.4 115.6 L 134.5 111.5 L 136.0 110.5 L 139.1 113.9 L 142.1 117.2 L 144.9 120.6 L 147.5 124.1 L 149.9 127.6 L 152.2 131.0 L 154.3 134.6 L 156.3 138.1 L 158.1 141.6 L 159.8 145.1 L 159.6 149.7 L 156.2 152.8 L 151.7 152.5 L 148.5 149.2 L 147.6 145.7 Z M 59.2 144.4 L 58.9 142.8 L 58.5 141.2 L 57.9 139.6 L 57.2 138.1 L 56.3 136.5 L 55.3 134.9 L 54.1 133.3 L 52.4 132.2 L 53.2 130.6 L 55.1 131.4 L 57.3 131.9 L 59.4 132.7 L 61.5 133.8 L 63.4 135.0 L 65.2 136.5 L 66.8 138.2 L 68.4 140.1 L 69.7 142.2 L 71.0 144.4 L 70.4 148.9 L 66.8 151.8 L 62.3 151.3 L 59.4 147.7 L 59.4 146.0 Z M 29.6 62.0 L 29.6 80.0 L 66.7 80.0 L 66.7 62.0 Z M 29.6 40.0 L 29.6 58.0 L 66.7 58.0 L 66.7 40.0 Z " />
</g>
</svg>
