<svg xmlns="http://www.w3.org/2000/svg" xmlns:xlink="http://www.w3.org/1999/xlink" version="1.1" baseProfile="full" viewBox="0 0 200 200" width="200" height="200">
<g fill="black">
<path d="M 177.4 159.9 L 176.1 162.0 L 174.4 163.8 L 172.5 165.4 L 170.4 166.7 L 168.1 167.7 L 165.7 168.4 L 163.2 168.8 L 160.7 169.0 L 160.7 163.0 L 152.7 160.0 L 152.7 157.0 L 160.7 157.0 L 162.0 156.9 L 163.1 156.7 L 164.0 156.4 L 164.8 156.1 L 165.4 155.7 L 166.0 155.2 L 166.6 154.6 L 167.1 153.8 L 167.6 152.8 L 168.1 151.6 L 168.5 149.9 L 169.0 147.7 L 169.5 145.1 L 169.9 142.1 L 170.3 138.7 L 170.7 134.9 L 171.0 130.7 L 171.3 126.1 L 171.5 121.1 L 171.61698112487792 118.0 L 152.1 118.0 L 152.1 182.5 L 142.1 187.5 L 142.1 118.0 L 129.3024793624878 118.0 L 127.6 128.3 L 124.6 139.5 L 120.7 149.7 L 115.9 158.9 L 110.1 167.0 L 103.4 174.0 L 95.9 179.8 L 87.5 184.4 L 78.3 187.7 L 77.6 186.2 L 85.8 181.3 L 92.9 175.9 L 99.2 169.7 L 104.6 162.8 L 109.1 155.0 L 112.9 146.4 L 115.8 137.0 L 117.9 126.5 L 118.87787609100342 118.0 L 105.8 118.0 L 97.8 126.0 L 87.8 116.0 L 94.40892524719239 110.49256229400635 L 99.2 71.3 L 109.34054050445556 78.0 L 119.7 78.0 L 119.7 48.0 L 91.1 48.0 L 91.1 44.0 L 119.7 44.0 L 119.7 13.0 L 130.7 15.0 L 133.5 17.0 L 130.7 18.75 L 130.7 44.0 L 142.1 44.0 L 142.1 13.0 L 152.1 15.0 L 154.6 17.0 L 152.1 18.66666669845581 L 152.1 44.0 L 165.2 44.0 L 170.7 39.0 L 181.2 48.0 L 176.2 51.5 L 176.2 88.0 L 165.2 93.5 L 165.2 82.0 L 152.1 82.0 L 152.1 114.0 L 171.7 114.0 L 177.7 109.0 L 188.7 118.0 L 183.7 121.0 L 183.51907691955566 121.0753846168518 L 183.5 121.6 L 183.3 126.7 L 183.0 131.5 L 182.6 135.9 L 182.2 139.9 L 181.8 143.7 L 181.3 147.0 L 180.8 150.1 L 180.2 152.8 L 179.5 155.3 L 178.6 157.7 Z M 16.6 166.9 L 22.9 165.6 L 29.4 164.3 L 36.1 162.9 L 43.0 161.5 L 50.2 160.0 L 57.5 158.6 L 65.1 157.1 L 72.9 155.6 L 80.9 154.3 L 89.2 153.1 L 89.7 154.8 L 81.9 157.9 L 74.3 160.8 L 66.8 163.4 L 59.4 165.9 L 52.3 168.2 L 45.4 170.5 L 38.6 172.6 L 32.0 174.7 L 25.7 176.6 L 23.477234077453613 177.28117017745973 L 22.2 180.9 L 19.5 178.5 L 14.6 167.4 Z M 33.4 144.0 L 22.4 149.5 L 22.4 69.7470588684082 L 17.7 75.0 L 12.3 80.5 L 10.9 79.4 L 14.7 72.8 L 18.4 66.3 L 22.0 59.8 L 25.4 53.3 L 28.6 46.9 L 31.7 40.4 L 34.5 33.8 L 37.2 27.2 L 39.6 20.5 L 41.8 13.8 L 41.866017532348636 13.823953247070312 L 42.4 12.4 L 53.1 17.9 L 55.3 20.8 L 51.555555534362796 21.574712657928465 L 50.2 24.8 L 47.0 31.5 L 43.6 38.1 L 43.101538467407224 39.0 L 61.7 39.0 L 62.3495867729187 38.45867767333984 L 62.5 38.1 L 62.66955013275147 38.19204149246216 L 67.7 34.0 L 78.7 43.0 L 73.7 46.0 L 70.46610174179077 47.347457599639895 L 69.0 49.4 L 67.0 52.1 L 64.9 54.7 L 62.9 57.2 L 60.8 59.6 L 58.7 61.9 L 56.5 64.2 L 54.52857141494751 66.0 L 69.5 66.0 L 75.0 61.0 L 85.5 70.0 L 80.5 73.5 L 80.5 136.0 L 69.5 141.5 L 69.5 132.0 L 33.4 132.0 Z M 33.4 100.0 L 33.4 128.0 L 46.4 128.0 L 46.4 100.0 Z M 56.4 100.0 L 56.4 128.0 L 69.5 128.0 L 69.5 100.0 Z M 110.00052633285523 82.0 L 106.12684211730956 114.0 L 119.24838705062866 114.0 L 119.7 102.8 L 119.7 82.0 Z M 130.7 103.1 L 129.78473281860352 114.0 L 142.1 114.0 L 142.1 82.0 L 130.7 82.0 L 130.7 103.0 L 130.63452377319337 103.09821424484252 Z M 33.4 70.0 L 33.4 96.0 L 46.4 96.0 L 46.4 70.0 Z M 56.4 70.0 L 56.4 96.0 L 69.5 96.0 L 69.5 70.0 Z M 130.7 48.0 L 130.7 78.0 L 142.1 78.0 L 142.1 48.0 Z M 152.1 48.0 L 152.1 78.0 L 165.2 78.0 L 165.2 48.0 Z M 40.886153888702395 43.0 L 40.0 44.6 L 36.1 51.0 L 31.9 57.3 L 27.68554220199585 63.142771053314206 L 33.4 66.0 L 51.346153831481935 66.0 L 51.9 64.8 L 52.9 61.9 L 55.1 56.1 L 57.5 50.3 L 58.7 47.3 L 60.0 44.3 L 60.503225803375244 43.0 Z " />
</g>
</svg>
