<svg xmlns="http://www.w3.org/2000/svg" xmlns:xlink="http://www.w3.org/1999/xlink" version="1.1" baseProfile="full" viewBox="0 0 200 200" width="200" height="200">
<g fill="black">
<path d="M 32.0 176.0 L 48.0 176.0 L 49.2 175.9 L 50.1 175.7 L 51.0 175.4 L 51.4 175.0 L 51.7 174.1 L 51.9 173.2 L 52.0 172.0 L 52.0 119.0 L 13.8 119.0 L 13.8 115.0 L 52.0 115.0 L 52.0 41.91999998092651 L 48.7 42.8 L 40.9 44.7 L 32.9 46.4 L 24.6 47.7 L 16.0 48.8 L 15.6 47.1 L 23.7 44.1 L 31.5 41.2 L 39.1 38.4 L 46.4 35.6 L 53.5 32.8 L 60.3 29.9 L 66.9 27.0 L 73.2 24.1 L 79.3 21.1 L 84.23663568496704 18.461453342437743 L 84.2 18.4 L 84.25472640991211 18.451784133911133 L 85.1 18.0 L 86.2466914176941 20.336654281616212 L 93.5 27.2 L 93.7 30.5 L 90.017094039917 28.955555534362794 L 84.0 31.4 L 77.4 34.0 L 70.6 36.4 L 64.0 38.538028144836424 L 64.0 115.0 L 80.2 115.0 L 90.2 105.0 L 102.2 115.0 L 102.2 119.0 L 64.0 119.0 L 64.0 172.0 L 63.8 174.5 L 63.4 177.0 L 62.6 179.4 L 61.3 181.7 L 59.7 183.7 L 57.7 185.3 L 55.4 186.6 L 53.0 187.4 L 50.5 187.8 L 48.0 188.0 L 48.0 182.0 L 32.0 179.0 Z M 173.1 180.9 L 171.3 182.5 L 169.3 184.0 L 167.3 185.2 L 165.1 186.2 L 162.8 187.0 L 160.5 187.5 L 158.0 187.8 L 155.6 188.0 L 155.6 182.0 L 135.6 179.0 L 135.6 176.0 L 155.6 176.0 L 157.0 175.9 L 158.3 175.7 L 159.5 175.4 L 160.6 175.1 L 161.7 174.6 L 162.7 174.0 L 163.6 173.3 L 164.5 172.5 L 165.4 171.5 L 166.2 170.3 L 167.0 168.9 L 167.8 166.7 L 168.6 163.6 L 169.4 159.8 L 170.0 155.2 L 170.5 150.0 L 170.8 144.0 L 171.0 137.4 L 171.07338619232178 131.9694224357605 L 171.0 132.0 L 171.0 124.0 L 116.5 124.0 L 104.5 130.0 L 104.5 30.0 L 116.5 36.0 L 131.28695650100707 36.0 L 131.6 35.2 L 132.1 32.6 L 132.6 30.1 L 133.1 27.7 L 133.7 25.2 L 134.2 22.7 L 134.7 20.3 L 135.1 17.9 L 135.5 15.4 L 135.74404926300048 13.935704517364503 L 135.6 13.9 L 136.4 11.5 L 147.3 16.8 L 149.5 19.7 L 145.20649347305297 20.603896141052246 L 143.4 23.8 L 140.4 28.2 L 138.9 30.3 L 137.3 32.4 L 135.6 34.4 L 134.0 36.0 L 160.5 36.0 L 166.5 31.0 L 177.5 40.0 L 172.5 44.0 L 172.5 86.0 L 160.5 92.0 L 160.5 84.0 L 116.5 84.0 L 116.5 100.0 L 167.51818180084229 100.0 L 175.7 91.0 L 185.7 100.0 L 185.7 104.0 L 116.5 104.0 L 116.5 120.0 L 171.0 120.0 L 177.0 115.0 L 188.0 124.0 L 183.0 127.0 L 182.96359958648682 127.01516685485839 L 183.0 130.0 L 183.0 137.6 L 182.8 144.5 L 182.4 150.8 L 181.9 156.5 L 181.2 161.7 L 180.4 166.3 L 179.3 170.3 L 177.9 173.9 L 176.2 177.1 L 174.7 179.0 Z M 96.9 174.0 L 95.3 169.8 L 97.1 165.6 L 98.5 164.5 L 99.9 163.1 L 101.3 161.2 L 102.5 158.9 L 103.7 156.2 L 104.7 153.0 L 105.6 149.4 L 106.3 145.3 L 106.9 140.9 L 107.0 136.0 L 108.8 135.9 L 109.7 140.7 L 110.7 145.3 L 111.2 149.6 L 111.4 153.8 L 111.3 157.7 L 110.9 161.4 L 110.1 164.9 L 109.0 168.2 L 107.4 171.3 L 105.4 174.2 L 101.1 175.8 Z M 130.2 165.8 L 127.3 169.3 L 122.7 169.8 L 119.2 166.9 L 118.7 162.4 Z M 122.8 141.6 L 124.6 144.4 L 126.1 147.2 L 127.4 149.9 L 128.4 152.6 L 129.2 155.3 L 129.9 157.9 L 130.2 160.5 L 130.3 163.1 L 130.2 165.7 L 118.7 162.4 L 119.4 161.2 L 120.0 159.8 L 120.5 158.0 L 120.9 156.0 L 121.1 153.8 L 121.2 151.3 L 121.1 148.6 L 120.9 145.6 L 120.6 142.4 L 119.6 139.2 L 121.3 138.5 Z M 137.4 153.1 L 137.5 151.3 L 137.5 149.5 L 137.3 147.6 L 137.0 145.8 L 136.5 143.9 L 134.9 139.9 L 133.4 138.3 L 134.5 136.9 L 136.4 138.3 L 138.6 139.5 L 140.5 141.0 L 142.3 142.7 L 143.9 144.6 L 145.3 146.7 L 146.5 149.0 L 147.5 151.5 L 148.3 154.2 L 148.8 157.0 L 147.0 161.2 L 142.8 163.0 L 138.6 161.2 L 136.8 157.0 L 137.2 155.0 Z M 154.3 146.5 L 154.2 145.2 L 153.9 143.9 L 153.5 142.5 L 152.7 141.0 L 151.7 139.5 L 150.5 137.9 L 148.9 136.3 L 146.9 135.2 L 147.6 133.5 L 149.9 134.3 L 152.3 134.8 L 154.6 135.5 L 156.7 136.5 L 158.7 137.6 L 160.5 139.0 L 162.2 140.7 L 163.7 142.6 L 164.9 144.8 L 165.8 147.1 L 164.7 151.5 L 160.8 153.9 L 156.3 152.7 L 154.0 148.8 L 154.2 147.7 Z M 91.7 55.2 L 94.2 57.8 L 90.52199649810791 59.07058305740357 L 90.3 59.8 L 88.9 64.6 L 87.3 69.4 L 85.7 74.3 L 84.0 79.3 L 82.1 84.4 L 80.1 89.5 L 77.9 94.7 L 75.5 100.0 L 72.8 105.2 L 71.1 104.7 L 71.9 98.8 L 72.8 93.2 L 73.8 87.7 L 74.8 82.3 L 75.8 77.1 L 76.7 72.0 L 77.6 67.0 L 78.5 62.1 L 79.2 57.3 L 79.84022665023804 53.61869688034058 L 79.7 53.6 L 80.3 50.8 Z M 33.0 90.2 L 32.5 86.1 L 31.9 82.0 L 31.2 77.9 L 30.4 73.8 L 29.4 69.7 L 28.3 65.6 L 27.2 61.4 L 25.9 57.3 L 27.5 56.4 L 30.2 59.9 L 32.8 63.6 L 35.1 67.4 L 37.2 71.4 L 39.0 75.5 L 40.7 79.7 L 42.1 83.9 L 43.4 88.3 L 44.5 92.8 L 45.4 97.3 L 44.1 101.7 L 40.1 103.9 L 35.7 102.6 L 33.5 98.6 L 33.3 94.4 Z M 116.5 62.0 L 116.5 80.0 L 160.5 80.0 L 160.5 62.0 Z M 116.5 40.0 L 116.5 58.0 L 160.5 58.0 L 160.5 40.0 Z " />
</g>
</svg>
