<svg xmlns="http://www.w3.org/2000/svg" xmlns:xlink="http://www.w3.org/1999/xlink" version="1.1" baseProfile="full" viewBox="0 0 200 200" width="200" height="200">
<g fill="black">
<path d="M 21.3 181.2 L 21.0 176.6 L 23.9 173.1 L 25.5 172.6 L 27.0 172.0 L 28.5 171.2 L 30.0 170.1 L 31.4 168.8 L 32.7 167.2 L 34.0 165.3 L 35.3 163.1 L 36.5 160.6 L 37.0 157.7 L 38.8 157.8 L 38.8 160.9 L 39.0 163.9 L 38.9 166.8 L 38.5 169.6 L 37.8 172.3 L 36.8 174.9 L 35.4 177.4 L 33.7 179.7 L 31.7 181.9 L 29.4 183.7 L 24.8 184.1 Z M 97.2 170.6 L 97.1 169.3 L 96.9 167.9 L 96.4 166.2 L 95.7 164.4 L 94.7 162.4 L 93.5 160.3 L 92.1 158.1 L 90.2 156.2 L 91.3 154.8 L 93.6 156.4 L 96.1 157.7 L 98.3 159.0 L 100.4 160.5 L 102.2 162.0 L 103.9 163.6 L 105.4 165.3 L 106.8 167.2 L 107.8 169.2 L 108.6 171.4 L 107.2 175.8 L 103.2 178.0 L 98.9 176.6 L 96.7 172.6 L 97.0 171.7 Z M 172.8 180.8 L 171.4 182.8 L 169.7 184.6 L 167.7 186.2 L 165.6 187.5 L 163.3 188.4 L 161.0 189.1 L 158.5 189.5 L 156.0 189.6 L 156.0 183.6 L 136.0 180.6 L 136.0 177.6 L 157.3 177.6 L 158.4 177.4 L 159.4 177.1 L 160.2 176.8 L 160.9 176.4 L 161.5 175.9 L 162.1 175.2 L 162.7 174.4 L 163.8 172.2 L 164.1 171.2 L 164.4 169.9 L 164.7 168.3 L 164.9 166.4 L 165.1 164.3 L 165.2 162.0 L 165.2 159.9166666984558 L 165.0 160.0 L 165.0 152.0 L 53.0 152.0 L 41.0 158.0 L 41.0 98.8 L 53.0 104.8 L 146.8181818008423 104.8 L 155.0 95.8 L 165.0 104.8 L 165.0 108.8 L 108.0 108.8 L 108.0 119.2 L 146.7777777671814 119.2 L 153.0 112.2 L 161.0 119.2 L 161.0 123.2 L 108.0 123.2 L 108.0 133.6 L 146.7777777671814 133.6 L 153.0 126.6 L 161.0 133.6 L 161.0 137.6 L 108.0 137.6 L 108.0 148.0 L 165.0 148.0 L 171.0 143.0 L 182.0 152.0 L 177.15476188659667 154.907142829895 L 177.2 156.4 L 177.2 162.4 L 177.1 165.1 L 176.8 167.7 L 176.2 172.3 L 175.7 174.3 L 175.0 176.3 L 174.0 178.7 Z M 129.0 169.4 L 128.5 167.8 L 127.9 166.2 L 127.0 164.4 L 126.0 162.6 L 124.7 160.8 L 123.2 158.8 L 121.5 156.8 L 119.4 155.2 L 120.3 153.6 L 122.8 154.9 L 125.4 155.8 L 127.9 156.9 L 130.1 158.1 L 132.3 159.4 L 134.3 160.9 L 136.1 162.5 L 137.8 164.3 L 139.3 166.2 L 140.6 168.3 L 140.3 172.8 L 136.9 175.9 L 132.4 175.6 L 129.3 172.2 L 129.2 170.8 Z M 68.7 180.9 L 64.7 178.7 L 63.3 174.3 L 63.7 173.5 L 64.1 172.5 L 64.4 171.3 L 64.5 170.0 L 64.5 168.5 L 64.2 166.8 L 63.8 165.0 L 63.2 163.0 L 62.4 160.9 L 61.0 159.1 L 62.3 157.8 L 64.0 159.5 L 66.0 160.9 L 67.8 162.3 L 69.5 163.9 L 70.9 165.5 L 72.2 167.2 L 73.3 169.1 L 74.2 171.1 L 74.8 173.2 L 75.2 175.4 L 73.0 179.5 Z M 53.0 137.6 L 53.0 148.0 L 96.0 148.0 L 96.0 137.6 Z M 53.0 123.2 L 53.0 133.6 L 96.0 133.6 L 96.0 123.2 Z M 53.0 108.8 L 53.0 119.2 L 96.0 119.2 L 96.0 108.8 Z M 114.8 67.6 L 114.8 86.4 L 159.5 86.4 L 159.5 67.6 Z M 176.5 67.6 L 171.5 71.6 L 171.5 90.4 L 159.5 96.4 L 159.5 90.4 L 114.8 90.4 L 102.8 96.4 L 102.8 62.710091781616214 L 97.4 63.8 L 85.9 65.4 L 85.83333330154419 65.1 L 60.1 65.1 L 60.1 79.62837839126587 L 60.4 79.6 L 67.7 78.8 L 74.9 78.1 L 82.3 77.5 L 89.6 77.1 L 89.9 78.8 L 83.0 81.2 L 75.9 83.4 L 68.8 85.3 L 54.4 88.7 L 47.1 90.3 L 39.8 91.8 L 32.4 93.2 L 21.711111068725586 95.0777777671814 L 20.0 98.5 L 17.6 95.8 L 14.1 84.1 L 16.1 83.9 L 22.0 83.34189186096191 L 22.0 53.9 L 34.0 55.9 L 37.0 57.9 L 34.0 59.7 L 34.0 82.21232872009277 L 38.3 81.8 L 45.7 81.1 L 48.1 80.83698625564575 L 48.1 45.4 L 34.0 45.4 L 22.0 51.4 L 22.0 12.3 L 34.0 18.4 L 71.6 18.4 L 77.6 13.4 L 88.6 22.4 L 83.6 26.4 L 83.6 47.4 L 71.6 53.4 L 71.6 45.4 L 60.1 45.4 L 60.1 61.1 L 73.77777776718139 61.1 L 80.0 54.1 L 88.0 61.1 L 88.0 62.80454549789429 L 96.5 60.1 L 102.8 57.89805822372436 L 102.8 57.6 L 103.15085716247559 57.77542858123779 L 106.8 56.5 L 116.3 52.7 L 125.2 48.7 L 131.31366262435913 45.529952716827395 L 126.1 41.3 L 121.6 36.7 L 118.1 31.7 L 117.59473686218261 30.60526313781738 L 117.2 31.0 L 113.6 34.2 L 109.7 37.2 L 105.6 40.0 L 101.2 42.6 L 96.4 44.9 L 91.4 47.0 L 90.4 45.5 L 94.5 42.0 L 98.2 38.5 L 101.7 35.1 L 104.8 31.7 L 107.7 28.3 L 110.4 24.9 L 112.7 21.6 L 114.7 18.2 L 116.5 14.8 L 117.52531642913819 12.309945774078368 L 117.5 12.3 L 117.66666669845581 11.96666669845581 L 117.9 11.4 L 117.94014873504639 11.419702625274658 L 118.5 10.3 L 128.7 16.7 L 130.5 19.8 L 126.42967777252197 20.15088987350464 L 126.2 20.5 L 125.32432432174683 21.7 L 161.6716980934143 21.7 L 163.2 19.9 L 163.57917566299437 20.217353534698486 L 167.8 16.7 L 178.8 25.7 L 173.8 28.7 L 169.51428575515746 30.48571424484253 L 166.6 33.4 L 160.2 38.7 L 153.1 43.6 L 151.23134889602662 44.692068862915036 L 155.7 46.1 L 163.8 48.2 L 172.6 50.1 L 182.0 51.8 L 191.4 53.6 L 179.5 64.8 L 170.16820430755615 62.41943988800049 Z M 137.1 52.1 L 128.1 55.7 L 118.5 58.9 L 109.93461542129516 61.167307662963864 L 114.8 63.6 L 159.5 63.6 L 163.32852516174316 60.40956239700317 L 160.6 59.6 L 152.2 56.6 L 144.5 53.2 L 139.85078287124634 50.774321460723876 Z M 34.0 22.4 L 34.0 41.4 L 71.6 41.4 L 71.6 22.4 Z M 122.21428575515748 25.7 L 120.5 27.7 L 120.14210529327393 28.057894706726074 L 121.3 29.1 L 125.6 32.4 L 130.4 35.5 L 135.8 38.5 L 140.08950805664062 40.46299524307251 L 140.7 40.1 L 147.4 35.4 L 153.4 30.4 L 158.19038457870482 25.7 Z " />
</g>
</svg>
