<svg xmlns="http://www.w3.org/2000/svg" xmlns:xlink="http://www.w3.org/1999/xlink" version="1.1" baseProfile="full" viewBox="0 0 200 200" width="200" height="200">
<g fill="black">
<path d="M 166.5 162.1 L 161.5 156.2 L 156.7 149.9 L 152.2 143.2 L 147.9 136.1 L 143.9 128.8 L 140.2 121.0 L 137.3 114.00588235855102 L 137.3 183.0 L 125.3 189.0 L 125.3 122.13061227798462 L 124.5 123.6 L 119.0 132.1 L 112.9 140.3 L 106.3 147.9 L 99.2 155.1 L 91.5 161.9 L 83.3 168.1 L 74.5 173.7 L 65.1 178.7 L 64.2 177.2 L 72.3 170.6 L 79.9 163.9 L 87.1 157.0 L 93.7 149.9 L 99.9 142.5 L 105.4 134.7 L 110.5 126.7 L 115.1 118.4 L 119.1 109.7 L 120.9238805770874 105.0 L 79.0 105.0 L 79.0 101.0 L 125.3 101.0 L 125.3 48.0 L 87.2 48.0 L 87.2 44.0 L 125.3 44.0 L 125.3 13.0 L 137.3 15.0 L 140.3 17.0 L 137.3 18.8 L 137.3 44.0 L 157.5 44.0 L 167.5 34.0 L 179.5 44.0 L 179.5 48.0 L 137.3 48.0 L 137.3 101.0 L 164.6 101.0 L 174.6 91.0 L 186.6 101.0 L 186.6 105.0 L 137.3 105.0 L 137.3 106.1020408630371 L 140.5 111.0 L 145.3 118.1 L 150.1 125.0 L 154.9 131.5 L 159.8 137.7 L 164.7 143.5 L 169.8 148.9 L 175.0 153.9 L 180.3 158.6 L 185.7 162.9 L 188.1 164.9 L 177.3 173.0 L 171.8 167.8 Z M 65.0 147.6 L 61.8 143.4 L 58.2 139.5 L 56.970185375213624 138.33325271606446 L 56.0 140.5 L 49.1 152.7 L 41.3 163.7 L 32.8 173.5 L 23.3 181.8 L 13.1 188.7 L 12.1 187.2 L 20.8 179.0 L 28.8 169.9 L 36.0 159.9 L 42.5 148.9 L 48.3 136.9 L 50.071155643463136 132.25957221984862 L 50.0 132.2 L 45.4 128.8 L 40.4 125.5 L 35.4668155670166 122.52147350311279 L 33.5 133.1 L 20.6 136.8 L 34.291131019592285 63.0 L 17.7 63.0 L 17.7 59.0 L 35.033197689056394 59.0 L 43.4 13.9 L 54.9 18.0 L 57.5 20.5 L 54.252934265136716 21.48024625778198 L 47.27706346511841 59.0 L 66.1 59.0 L 72.1 54.0 L 83.1 63.0 L 78.1 66.0 L 77.37244091033935 66.30314960479737 L 75.3 79.7 L 71.7 96.6 L 67.3 112.4 L 62.0 127.1 L 60.722799110412595 129.95241537094117 L 64.4 132.6 L 69.0 136.5 L 73.3 140.7 L 77.2 145.3 L 80.8 150.3 L 81.4 154.8 L 78.7 158.5 L 74.2 159.1 L 70.5 156.5 L 67.9 151.9 Z M 46.53336229324341 63.0 L 36.17187156677246 118.72932615280152 L 36.5 118.8 L 42.7 120.7 L 48.6 123.1 L 52.795164585113525 125.12266864776612 L 53.3 123.8 L 57.6 109.6 L 61.2 94.3 L 64.1 77.9 L 65.79318180084229 63.0 Z M 173.4 60.1 L 175.4 63.1 L 171.53719005584716 63.70991735458374 L 169.6 67.1 L 167.5 70.7 L 165.2 74.3 L 162.7 77.9 L 160.0 81.6 L 157.2 85.3 L 154.2 89.0 L 150.9 92.7 L 147.4 96.5 L 145.9 95.4 L 148.0 90.9 L 150.0 86.4 L 151.9 82.1 L 153.8 78.0 L 155.5 73.9 L 157.1 70.1 L 158.6 66.3 L 160.0 62.6 L 161.2 59.1 L 161.9323944091797 56.60985918045044 L 161.9 56.6 L 162.04210529327392 56.23684206008911 L 162.2 55.7 L 162.2452220916748 55.71776580810547 L 162.8 54.3 Z M 102.6 81.6 L 101.6 78.2 L 100.5 74.9 L 99.2 71.7 L 97.7 68.5 L 96.2 65.4 L 92.6 59.2 L 90.4 56.3 L 91.6 55.0 L 94.7 57.1 L 97.8 59.3 L 100.7 61.9 L 103.4 64.6 L 105.9 67.6 L 108.3 70.8 L 110.4 74.2 L 112.4 77.8 L 114.2 81.5 L 115.7 85.4 L 115.1 90.0 L 111.6 92.8 L 107.1 92.2 L 104.2 88.7 L 103.5 85.1 Z " />
</g>
</svg>
