<svg xmlns="http://www.w3.org/2000/svg" xmlns:xlink="http://www.w3.org/1999/xlink" version="1.1" baseProfile="full" viewBox="0 0 200 200" width="200" height="200">
<g fill="black">
<path d="M 137.9 137.6 L 142.7 143.5 L 147.5 148.9 L 152.4 153.8 L 152.73773336410522 154.09137773513794 L 153.7 152.9 L 155.8 150.4 L 157.9 148.0 L 159.8 145.7 L 161.7 143.5 L 163.5 141.4 L 165.2 139.3 L 166.8 137.3 L 167.6857536315918 136.178045463562 L 167.6 136.1 L 168.5 135.2 L 176.5 144.2 L 177.0 147.8 L 172.8557270050049 146.5419171333313 L 169.7 148.6 L 167.2 150.1 L 162.0 153.1 L 159.2 154.6 L 156.2 156.1 L 155.46401176452636 156.44346113204955 L 157.5 158.2 L 162.7 162.2 L 168.0 165.7 L 173.5 168.7 L 179.2 171.2 L 185.1 173.4 L 192.0 176.0 L 180.4 185.7 L 173.9 182.6 L 167.7 178.9 L 161.8 174.8 L 156.2 170.1 L 151.0 165.0 L 146.2 159.4 L 141.8 153.3 L 137.8 146.8 L 134.3 139.8 L 131.70526313781738 133.0 L 130.19444446563722 133.0 L 128.3 135.2 L 124.2 139.8 L 119.7 144.1 L 114.8 148.1 L 110.8 150.91481485366822 L 110.8 171.2285714149475 L 122.2 169.6 L 128.6 168.7 L 135.0 167.9 L 141.5 167.2 L 148.1 166.7 L 148.5 168.4 L 142.4 170.9 L 136.2 173.1 L 130.0 175.1 L 123.8 177.0 L 117.7 178.8 L 111.5 180.5 L 105.3 182.1 L 99.2 183.7 L 93.0 185.3 L 90.8916895866394 185.78387451171875 L 89.4 189.3 L 86.9 186.7 L 82.7 175.3 L 84.7 175.0 L 98.8 172.95322580337523 L 98.8 157.9290322303772 L 97.5 158.6 L 90.9 161.6 L 83.9 164.3 L 76.4 166.5 L 68.5 168.4 L 67.9 166.7 L 75.0 163.0 L 81.7 159.4 L 87.9 155.7 L 93.7 152.1 L 99.0 148.3 L 103.9 144.4 L 108.3 140.5 L 112.2 136.4 L 115.01951217651367 133.0 L 69.6 133.0 L 69.6 129.0 L 105.0 129.0 L 105.0 115.3 L 82.0 115.3 L 82.0 111.3 L 105.0 111.3 L 105.0 97.5 L 75.8 97.5 L 75.8 93.5 L 105.0 93.5 L 105.0 78.8 L 117.0 80.8 L 120.0 82.8 L 117.0 84.6 L 117.0 93.5 L 140.9 93.5 L 140.9 78.8 L 152.9 80.8 L 155.9 82.8 L 152.9 84.6 L 152.9 93.5 L 163.9181818008423 93.5 L 172.1 84.5 L 182.1 93.5 L 182.1 97.5 L 152.9 97.5 L 152.9 111.3 L 157.71818180084227 111.3 L 165.9 102.3 L 175.9 111.3 L 175.9 115.3 L 152.9 115.3 L 152.9 129.0 L 174.0777777671814 129.0 L 180.3 122.0 L 188.3 129.0 L 188.3 133.0 L 134.3222222328186 133.0 Z M 27.4 133.0 L 52.5 133.0 L 58.5 128.0 L 69.5 137.0 L 64.5 141.0 L 64.5 179.0 L 52.5 185.0 L 52.5 175.0 L 27.4 175.0 L 27.4 182.0 L 15.4 188.0 L 15.4 127.0 Z M 27.4 137.0 L 27.4 171.0 L 52.5 171.0 L 52.5 137.0 Z M 117.0 115.3 L 117.0 129.0 L 140.9 129.0 L 140.9 115.3 Z M 63.5 108.0 L 63.5 112.0 L 16.5 112.0 L 16.5 108.0 L 45.31818180084228 108.0 L 53.5 99.0 Z M 117.0 97.5 L 117.0 111.3 L 140.9 111.3 L 140.9 97.5 Z M 63.5 82.0 L 63.5 86.0 L 16.5 86.0 L 16.5 82.0 L 45.31818180084228 82.0 L 53.5 73.0 Z M 96.3 79.0 L 84.3 85.0 L 84.3 42.0 L 96.3 48.0 L 161.6 48.0 L 167.6 43.0 L 178.6 52.0 L 173.6 56.0 L 173.6 78.0 L 161.6 84.0 L 161.6 76.0 L 96.3 76.0 Z M 96.3 52.0 L 96.3 72.0 L 123.0 72.0 L 123.0 52.0 Z M 135.0 52.0 L 135.0 72.0 L 161.6 72.0 L 161.6 52.0 Z M 70.9 54.0 L 70.9 58.0 L 13.2 58.0 L 13.2 54.0 L 48.9 54.0 L 58.9 44.0 Z M 70.3 33.3 L 123.0 33.3 L 123.0 11.7 L 135.0 13.7 L 138.0 15.7 L 135.0 17.5 L 135.0 33.3 L 165.6 33.3 L 175.6 23.3 L 187.6 33.3 L 187.6 37.3 L 70.3 37.3 Z M 63.5 28.0 L 63.5 32.0 L 16.5 32.0 L 16.5 28.0 L 45.31818180084228 28.0 L 53.5 19.0 Z " />
</g>
</svg>
