<svg xmlns="http://www.w3.org/2000/svg" xmlns:xlink="http://www.w3.org/1999/xlink" version="1.1" baseProfile="full" viewBox="0 0 200 200" width="200" height="200">
<g fill="black">
<path d="M 94.8 118.1 L 90.4 114.4 L 85.3 110.7 L 79.3 107.0 L 73.00964164733887 103.47358703613281 L 67.8 109.1 L 60.0 116.7 L 51.8 123.8 L 45.023502349853516 129.06175117492677 L 51.1 132.1 L 86.1 132.1 L 92.1 127.1 L 103.1 136.1 L 98.1 140.1 L 98.1 177.8 L 86.1 183.8 L 86.1 171.8 L 51.1 171.8 L 51.1 183.8 L 39.1 189.8 L 39.1 133.24666662216185 L 34.3 136.5 L 24.9 141.9 L 15.0 146.7 L 14.1 145.2 L 22.8 138.7 L 31.1 132.1 L 39.1 125.3 L 46.8 118.2 L 54.1 110.7 L 60.9 102.9 L 64.03409833908081 99.00612020492554 L 57.2 95.8 L 48.4 92.0 L 39.79027280807495 88.46548042297363 L 38.7 89.4 L 33.5 93.3 L 27.9 96.8 L 21.8 99.7 L 20.8 98.2 L 25.6 93.7 L 30.1 89.2 L 34.2 84.7 L 37.9 80.1 L 41.2 75.4 L 44.2 70.5 L 46.8 65.4 L 49.0 60.2 L 50.9 54.8 L 52.13048219680786 50.20619974136353 L 52.1 50.2 L 52.34827585220337 49.393103408813474 L 52.4 49.2 L 52.407050895690915 49.202084636688234 L 52.9 47.6 L 63.9 52.6 L 66.3 55.3 L 62.530385684967044 56.29200372695923 L 61.6 58.8 L 58.8 64.7 L 56.34285717010498 69.0 L 84.0 69.0 L 84.3125 68.73958330154419 L 84.8 67.9 L 85.10397272109985 68.08002271652222 L 90.0 64.0 L 101.0 73.0 L 96.0 76.0 L 92.97108430862427 77.26204814910889 L 88.9 83.5 L 82.3 92.5 L 78.30602836608887 97.34982271194458 L 83.2 99.4 L 90.0 102.7 L 96.1 106.1 L 101.6 109.8 L 106.5 113.7 L 110.7 117.8 L 112.0 122.2 L 109.8 126.3 L 105.5 127.5 L 101.4 125.4 L 98.5 121.8 Z M 180.9 153.4 L 179.4 155.3 L 177.6 157.1 L 175.7 158.6 L 173.6 159.8 L 171.3 160.8 L 168.9 161.4 L 166.4 161.8 L 163.9 162.0 L 163.9 156.0 L 153.9 153.0 L 153.9 150.0 L 163.9 150.0 L 165.3 149.9 L 166.4 149.7 L 167.4 149.4 L 168.3 149.1 L 169.0 148.7 L 169.7 148.1 L 170.3 147.5 L 170.9 146.7 L 171.5 145.7 L 172.1 144.4 L 173.5 140.6 L 174.7 135.6 L 175.3 129.9 L 175.2 123.6 L 174.1 117.0 L 172.1 110.2 L 168.7 103.6 L 164.0 97.0 L 157.5 90.8 L 149.42893085479736 84.30377359390259 L 148.0 83.5 L 151.0 76.8 L 153.9 70.4 L 156.7 64.3 L 159.4 58.3 L 162.0 52.5 L 164.4 46.9 L 166.6 41.4 L 168.6 36.1 L 170.4 30.9 L 170.6880000114441 30.0 L 135.3 30.0 L 135.3 183.0 L 123.3 189.0 L 123.3 20.0 L 135.3 26.0 L 171.6 26.0 L 177.6 21.0 L 188.6 30.0 L 183.6 33.0 L 181.4707317352295 33.887195110321045 L 180.9 35.1 L 178.4 40.3 L 175.7 45.6 L 172.7 51.0 L 169.5 56.4 L 166.1 61.9 L 162.5 67.5 L 158.5 73.1 L 154.2 78.8 L 150.91584787368774 82.79809827804566 L 160.5 86.3 L 168.8 92.2 L 175.2 99.1 L 180.0 106.6 L 183.2 114.5 L 185.1 122.3 L 185.9 129.9 L 185.7 137.0 L 184.8 143.4 L 183.2 148.9 L 182.2 151.2 Z M 51.1 136.1 L 51.1 167.8 L 86.1 167.8 L 86.1 136.1 Z M 53.76603775024414 73.0 L 52.0 75.6 L 48.0 80.5 L 43.6 85.2 L 41.678723430633546 86.84680852890014 L 49.6 88.4 L 59.0 90.8 L 67.7 93.5 L 68.22294216156006 93.68077011108399 L 73.6 86.1 L 79.4 77.2 L 81.83870964050293 73.0 Z M 32.3 47.0 L 32.4 50.7 L 32.1 54.4 L 31.4 58.1 L 30.3 61.8 L 28.7 65.5 L 26.8 69.1 L 22.9 71.4 L 18.4 70.4 L 16.1 66.4 L 17.1 62.0 L 19.1 59.7 L 20.9 57.3 L 22.4 54.8 L 23.7 52.2 L 24.8 49.5 L 25.6 46.6 L 26.2 43.5 L 26.6 40.3 L 26.8 36.8 L 26.4 33.2 L 28.1 32.7 L 30.9 39.7 L 30.975 40.0 L 62.6 40.0 L 62.6 14.0 L 74.6 16.0 L 77.6 18.0 L 74.6 19.8 L 74.6 40.0 L 100.8 40.0 L 106.8 35.0 L 117.8 44.0 L 112.8 47.0 L 110.64705886840821 47.8970588684082 L 109.5 50.0 L 108.2 52.2 L 105.4 56.4 L 103.8 58.5 L 102.0 60.4 L 100.1 62.3 L 98.6 64.4 L 97.1 63.5 L 98.1 61.2 L 98.7 58.7 L 99.2 56.2 L 99.6 53.9 L 100.1 51.6 L 100.4 49.3 L 100.8 44.9 L 100.8 44.0 L 31.894594573974608 44.0 Z " />
</g>
</svg>
