<svg xmlns="http://www.w3.org/2000/svg" xmlns:xlink="http://www.w3.org/1999/xlink" version="1.1" baseProfile="full" viewBox="0 0 200 200" width="200" height="200">
<g fill="black">
<path d="M 165.1 138.6 L 168.1 140.6 L 165.1 142.4 L 165.1 181.7 L 153.1 187.7 L 153.1 179.7 L 46.8 179.7 L 38.8 187.7 L 28.8 177.7 L 34.8 171.7 L 34.8 136.6 L 46.8 138.6 L 49.8 140.6 L 46.8 142.4 L 46.8 175.7 L 153.1 175.7 L 153.1 136.6 Z M 129.2 165.5 L 126.2 163.2 L 122.8 160.9 L 118.9 158.6 L 114.5 156.2 L 109.7 153.7 L 104.4 151.1 L 99.72307691574096 148.88461542129517 L 98.3 150.5 L 93.9 154.4 L 88.9 158.0 L 83.3 161.3 L 77.0 164.4 L 70.1 167.3 L 62.5 169.8 L 54.3 171.9 L 53.6 170.2 L 61.1 166.3 L 67.8 162.4 L 73.9 158.7 L 79.2 154.9 L 83.8 151.2 L 87.7 147.5 L 90.8 143.8 L 93.2 140.2 L 94.9 136.7 L 95.60552434921264 134.30121726989745 L 95.6 134.3 L 95.67272729873658 134.07272729873657 L 95.9 133.3 L 95.91817893981934 133.30569076538086 L 96.4 131.8 L 107.4 136.9 L 109.6 139.8 L 105.61182842254638 140.7095829963684 L 105.1 141.8 L 102.64336013793945 145.36609020233155 L 106.2 146.1 L 112.0 147.6 L 117.4 149.2 L 122.4 150.9 L 127.0 152.7 L 131.3 154.6 L 135.1 156.6 L 138.6 158.7 L 141.8 160.9 L 143.7 165.1 L 142.2 169.4 L 138.0 171.2 L 133.7 169.7 L 131.7 167.7 Z M 12.0 125.5 L 48.0 125.5 L 48.0 99.3 L 60.0 101.3 L 63.0 103.3 L 60.0 105.1 L 60.0 125.5 L 94.0 125.5 L 94.0 91.3 L 106.0 93.3 L 109.0 95.3 L 106.0 97.1 L 106.0 106.8 L 152.0 106.8 L 162.0 96.8 L 174.0 106.8 L 174.0 110.8 L 106.0 110.8 L 106.0 125.5 L 166.0 125.5 L 176.0 115.5 L 188.0 125.5 L 188.0 129.5 L 12.0 129.5 Z M 62.5 14.6 L 65.5 16.6 L 62.5 18.4 L 62.5 27.4 L 74.0 27.4 L 84.0 17.4 L 96.0 27.4 L 96.0 31.4 L 62.5 31.4 L 62.5 46.8 L 75.71818180084229 46.8 L 83.9 37.8 L 93.9 46.8 L 93.9 50.8 L 62.5 50.8 L 62.5 67.0 L 79.4 67.0 L 89.4 57.0 L 101.4 67.0 L 101.4 71.0 L 62.5 71.0 L 62.5 85.8 L 50.5 91.8 L 50.5 71.0 L 12.6 71.0 L 12.6 67.0 L 50.5 67.0 L 50.5 50.8 L 19.5 50.8 L 19.5 46.8 L 50.5 46.8 L 50.5 31.4 L 17.4 31.4 L 17.4 27.4 L 50.5 27.4 L 50.5 12.6 Z M 176.3 80.6 L 174.5 82.2 L 172.5 83.5 L 170.4 84.7 L 168.2 85.6 L 166.0 86.4 L 163.6 86.9 L 161.2 87.2 L 158.7 87.3 L 158.7 81.3 L 138.7 78.3 L 138.7 75.3 L 158.7 75.3 L 160.2 75.2 L 161.6 75.1 L 162.8 74.8 L 164.0 74.4 L 165.1 73.9 L 166.2 73.3 L 167.2 72.6 L 168.2 71.8 L 169.2 70.8 L 169.57674417495727 70.33953485488891 L 169.7 69.6 L 170.0 67.2 L 170.2 63.8 L 170.5 59.4 L 170.6 54.1 L 170.8 47.9 L 170.9 40.8 L 171.0 32.8 L 171.0 25.9 L 141.67931032180786 25.9 L 141.1 35.5 L 139.6 45.7 L 137.3 54.5 L 134.1 62.2 L 129.9 68.6 L 124.9 74.0 L 119.1 78.3 L 112.5 81.8 L 105.1 84.5 L 97.0 86.6 L 96.3 85.0 L 103.6 81.0 L 109.9 77.1 L 115.2 73.0 L 119.5 68.7 L 123.0 63.8 L 125.7 58.3 L 127.7 51.7 L 129.0 43.9 L 129.7 34.7 L 129.78148145675658 25.9 L 101.3 25.9 L 101.3 21.9 L 171.0 21.9 L 177.0 16.9 L 188.0 25.9 L 183.0 28.9 L 183.0 32.8 L 182.9 40.9 L 182.8 48.1 L 182.6 54.4 L 182.4 59.9 L 182.2 64.5 L 181.9 68.3 L 181.6 71.4 L 181.1 73.9 L 179.6 77.0 L 178.0 78.9 Z " />
</g>
</svg>
