<svg xmlns="http://www.w3.org/2000/svg" xmlns:xlink="http://www.w3.org/1999/xlink" version="1.1" baseProfile="full" viewBox="0 0 200 200" width="200" height="200">
<g fill="black">
<path d="M 160.3 173.2 L 152.0 169.1 L 144.1 164.6 L 136.5 159.9 L 129.3 154.8 L 122.5 149.4 L 116.1 143.6 L 110.3 137.5 L 106.0 132.06415090560913 L 106.0 181.7 L 94.0 187.7 L 94.0 138.3548387527466 L 92.5 140.0 L 85.8 146.5 L 78.5 152.4 L 70.7 157.9 L 62.4 163.0 L 53.6 167.6 L 44.3 171.8 L 34.5 175.4 L 24.1 178.5 L 13.2 181.0 L 12.7 179.2 L 22.9 174.9 L 32.5 170.4 L 41.5 165.8 L 50.0 160.9 L 58.0 155.8 L 65.3 150.4 L 72.1 144.7 L 78.4 138.7 L 84.1 132.4 L 84.78275861740113 131.5 L 18.0 131.5 L 18.0 127.5 L 94.0 127.5 L 94.0 106.2 L 61.0 106.2 L 61.0 113.2 L 49.0 119.2 L 49.0 77.5 L 15.0 77.5 L 15.0 73.5 L 49.0 73.5 L 49.0 53.8 L 61.0 55.8 L 64.0 57.8 L 61.0 59.6 L 61.0 73.5 L 94.0 73.5 L 94.0 51.5 L 106.0 53.5 L 109.0 55.5 L 106.0 57.3 L 106.0 73.5 L 139.0 73.5 L 139.0 53.8 L 151.0 55.8 L 154.0 57.8 L 151.0 59.6 L 151.0 73.5 L 163.0 73.5 L 173.0 63.5 L 185.0 73.5 L 185.0 77.5 L 151.0 77.5 L 151.0 110.2 L 139.0 116.2 L 139.0 106.2 L 106.0 106.2 L 106.0 127.5 L 160.0 127.5 L 170.0 117.5 L 182.0 127.5 L 182.0 131.5 L 108.99166669845582 131.5 L 113.1 134.4 L 119.9 139.0 L 126.8 143.5 L 133.9 147.8 L 141.3 151.8 L 148.9 155.6 L 156.7 159.1 L 164.9 162.4 L 173.3 165.4 L 182.0 168.1 L 189.5 170.6 L 177.9 180.6 L 168.9 177.1 Z M 61.0 77.5 L 61.0 102.2 L 94.0 102.2 L 94.0 77.5 Z M 106.0 77.5 L 106.0 102.2 L 139.0 102.2 L 139.0 77.5 Z M 134.0 13.4 L 137.0 15.4 L 134.0 17.2 L 134.0 31.2 L 165.0 31.2 L 175.0 21.2 L 187.0 31.2 L 187.0 35.2 L 134.0 35.2 L 134.0 50.2 L 122.0 56.2 L 122.0 35.2 L 78.0 35.2 L 78.0 50.2 L 66.0 56.2 L 66.0 35.2 L 13.0 35.2 L 13.0 31.2 L 66.0 31.2 L 66.0 11.4 L 78.0 13.4 L 81.0 15.4 L 78.0 17.2 L 78.0 31.2 L 122.0 31.2 L 122.0 11.4 Z " />
</g>
</svg>
