<svg xmlns="http://www.w3.org/2000/svg" xmlns:xlink="http://www.w3.org/1999/xlink" version="1.1" baseProfile="full" viewBox="0 0 200 200" width="200" height="200">
<g fill="black">
<path d="M 106.6 176.0 L 126.6 176.0 L 127.8 175.9 L 128.7 175.7 L 129.6 175.4 L 130.0 175.0 L 130.3 174.1 L 130.5 173.2 L 130.6 172.0 L 130.6 91.0 L 85.3 91.0 L 85.3 87.0 L 130.6 87.0 L 130.6 34.0 L 96.3 34.0 L 96.3 30.0 L 153.6 30.0 L 163.6 20.0 L 175.6 30.0 L 175.6 34.0 L 142.6 34.0 L 142.6 87.0 L 165.8 87.0 L 175.8 77.0 L 187.8 87.0 L 187.8 91.0 L 142.6 91.0 L 142.6 172.0 L 142.4 174.5 L 142.0 177.0 L 141.2 179.4 L 140.0 181.7 L 138.3 183.7 L 136.3 185.3 L 134.0 186.6 L 131.6 187.4 L 129.1 187.8 L 126.6 188.0 L 126.6 182.0 L 106.6 179.0 Z M 62.0 17.4 L 63.8 20.5 L 59.72742347717285 20.921300983428956 L 58.3 23.1 L 56.2 26.0 L 54.0 28.9 L 51.7 31.8 L 49.2 34.7 L 46.6 37.6 L 43.7 40.6 L 40.7 43.5 L 40.2 44.0 L 68.0 44.0 L 74.0 39.0 L 85.0 48.0 L 80.0 52.0 L 80.0 92.0 L 68.0 98.0 L 68.0 86.0 L 31.0 86.0 L 31.0 113.0 L 71.0 113.0 L 77.0 108.0 L 88.0 117.0 L 83.0 121.0 L 83.0 166.0 L 71.0 172.0 L 71.0 160.0 L 31.0 160.0 L 31.0 172.0 L 19.0 178.0 L 19.0 38.0 L 31.0 44.0 L 36.99459457397461 44.0 L 38.3 41.7 L 40.1 38.0 L 41.8 34.4 L 43.4 30.9 L 45.0 27.6 L 46.5 24.3 L 47.8 21.2 L 49.0 18.1 L 50.1 15.2 L 50.779469871520995 13.22953748703003 L 50.7 13.2 L 51.08360652923584 12.347540950775146 L 51.1 12.3 L 51.10413036346436 12.301932525634765 L 51.6 11.2 Z M 31.0 117.0 L 31.0 156.0 L 71.0 156.0 L 71.0 117.0 Z M 31.0 48.0 L 31.0 82.0 L 68.0 82.0 L 68.0 48.0 Z " />
</g>
</svg>
