<svg xmlns="http://www.w3.org/2000/svg" xmlns:xlink="http://www.w3.org/1999/xlink" version="1.1" baseProfile="full" viewBox="0 0 200 200" width="200" height="200">
<g fill="black">
<path d="M 168.1 161.8 L 163.8 155.9 L 159.7 149.6 L 155.8 142.9 L 152.2 135.9 L 148.8 128.6 L 145.6 120.9 L 144.3 117.13928575515747 L 144.3 183.0 L 132.3 189.0 L 132.3 124.87959184646607 L 128.3 131.9 L 123.0 140.0 L 117.3 147.7 L 111.0 155.0 L 104.3 161.7 L 97.0 168.0 L 89.3 173.6 L 81.0 178.7 L 79.9 177.2 L 80.14705886840821 176.97058820724487 L 78.5 177.3 L 74.7 174.8 L 70.6 168.6 L 66.2 162.8 L 61.5 157.4 L 56.6 152.3 L 51.3 147.6 L 49.879627513885495 146.45862922668456 L 49.8 146.7 L 45.8 155.7 L 41.0 164.0 L 35.3 171.5 L 28.9 178.1 L 21.6 183.9 L 13.6 188.7 L 12.6 187.2 L 19.2 181.0 L 25.0 174.4 L 30.1 167.5 L 34.5 160.1 L 38.1 152.2 L 41.0 143.7 L 41.7983814239502 140.43389396667482 L 39.7 139.0 L 33.4 135.2 L 26.8 131.6 L 19.9 128.1 L 20.4 126.4 L 28.2 128.0 L 35.7 130.3 L 42.9 133.3 L 43.38115940093994 133.54057970046998 L 44.7 125.1 L 45.5 114.8 L 45.51666669845581 113.0 L 28.7 113.0 L 16.7 119.0 L 16.7 60.0 L 28.7 66.0 L 45.6 66.0 L 45.6 44.0 L 13.1 44.0 L 13.1 40.0 L 45.6 40.0 L 45.6 14.0 L 57.6 16.0 L 60.6 18.0 L 57.6 19.8 L 57.6 40.0 L 68.1 40.0 L 78.1 30.0 L 90.1 40.0 L 90.1 44.0 L 57.6 44.0 L 57.6 66.0 L 73.6 66.0 L 79.6 61.0 L 90.6 70.0 L 85.6 74.0 L 85.6 119.0 L 73.6 125.0 L 73.6 113.0 L 57.05689659118652 113.0 L 56.9 115.6 L 55.3 126.7 L 53.0 137.0 L 52.532621669769284 138.41674041748047 L 56.3 140.7 L 62.6 145.3 L 68.6 150.3 L 74.3 155.7 L 79.6 161.7 L 84.6 168.1 L 85.39879522323608 172.09397592544556 L 86.9 170.7 L 93.4 164.0 L 99.5 157.2 L 105.2 150.1 L 110.4 142.7 L 115.2 135.0 L 119.6 127.0 L 123.5 118.7 L 126.9 110.0 L 128.61428575515748 105.0 L 92.9 105.0 L 92.9 101.0 L 132.3 101.0 L 132.3 48.0 L 100.1 48.0 L 100.1 44.0 L 132.3 44.0 L 132.3 13.0 L 144.3 15.0 L 147.3 17.0 L 144.3 18.8 L 144.3 44.0 L 158.2 44.0 L 168.2 34.0 L 180.2 44.0 L 180.2 48.0 L 144.3 48.0 L 144.3 101.0 L 164.4 101.0 L 174.4 91.0 L 186.4 101.0 L 186.4 105.0 L 144.3 105.0 L 144.3 107.04666662216187 L 146.7 111.1 L 150.9 118.3 L 155.2 125.2 L 159.4 131.8 L 163.7 137.9 L 168.1 143.7 L 172.6 149.2 L 177.1 154.2 L 181.8 158.9 L 186.5 163.2 L 188.1 164.7 L 177.4 172.7 L 172.6 167.5 Z M 73.6 109.0 L 73.6 70.0 L 57.6 70.0 L 57.6 104.0 L 57.29827585220337 109.0 Z M 175.7 59.9 L 177.9 62.7 L 173.98823528289796 63.5235294342041 L 172.3 66.9 L 170.4 70.4 L 168.4 74.0 L 166.2 77.7 L 163.8 81.4 L 161.3 85.1 L 158.5 88.9 L 155.5 92.6 L 152.4 96.4 L 150.9 95.5 L 152.7 91.0 L 154.3 86.5 L 155.9 82.3 L 157.4 78.2 L 158.8 74.2 L 160.2 70.3 L 161.4 66.5 L 162.5 62.9 L 163.5 59.4 L 164.13402061462403 56.93436422348022 L 164.0 56.9 L 164.9 54.5 Z M 112.7 81.4 L 111.9 78.0 L 111.0 74.7 L 108.8 68.3 L 107.5 65.2 L 106.1 62.2 L 104.6 59.1 L 102.8 56.3 L 104.1 55.0 L 106.8 57.3 L 109.6 59.5 L 112.2 62.1 L 114.6 64.8 L 116.9 67.8 L 118.9 71.0 L 120.9 74.4 L 122.6 78.0 L 124.2 81.7 L 125.6 85.6 L 124.9 90.1 L 121.2 92.9 L 116.7 92.1 L 114.0 88.4 L 113.4 84.9 Z M 28.7 70.0 L 28.7 109.0 L 45.553703689575194 109.0 L 45.6 104.0 L 45.6 70.0 Z " />
</g>
</svg>
