<svg xmlns="http://www.w3.org/2000/svg" xmlns:xlink="http://www.w3.org/1999/xlink" version="1.1" baseProfile="full" viewBox="0 0 200 200" width="200" height="200">
<g fill="black">
<path d="M 51.0 166.2 L 55.3 164.2 L 55.5 164.11162786483766 L 55.5 95.5 L 43.0 95.5 L 50.5 97.0 L 53.5 99.0 L 50.27980136871338 100.93211917877197 L 49.8 109.5 L 48.5 121.3 L 46.6 132.5 L 43.9 142.9 L 40.6 152.6 L 36.6 161.5 L 31.9 169.6 L 26.5 176.9 L 20.4 183.3 L 13.6 188.6 L 12.4 187.3 L 17.6 180.7 L 22.1 173.8 L 26.2 166.4 L 29.7 158.4 L 32.6 149.8 L 34.9 140.6 L 36.7 130.7 L 37.9 120.2 L 38.5 108.9 L 38.5 95.5 L 33.9 95.5 L 33.9 107.5 L 21.9 113.5 L 21.9 23.4 L 33.9 29.4 L 70.3 29.4 L 76.3 24.4 L 87.3 33.4 L 82.3 37.4 L 82.3 101.5 L 70.3 107.5 L 70.3 95.5 L 67.5 95.5 L 67.5 158.68536586761473 L 67.9 158.5 L 72.0 156.8 L 76.0 155.0 L 79.9 153.4 L 83.8 151.9 L 87.8 150.5 L 91.6 149.2 L 92.5 150.7 L 89.5 153.4 L 86.3 156.2 L 83.0 158.8 L 79.6 161.3 L 76.0 163.9 L 72.3 166.5 L 68.6 169.0 L 67.5 169.73333330154418 L 67.5 170.0 L 67.1 170.0 L 64.7 171.6 L 60.7 174.2 L 60.22527475357056 174.49670333862304 L 59.9 178.4 L 56.7 176.7 L 49.2 167.2 Z M 82.0 175.5 L 127.0 175.5 L 127.0 148.9 L 96.0 148.9 L 96.0 144.9 L 127.0 144.9 L 127.0 118.3 L 90.0 118.3 L 90.0 114.3 L 157.0 114.3 L 167.0 104.3 L 179.0 114.3 L 179.0 118.3 L 139.0 118.3 L 139.0 144.9 L 151.0 144.9 L 161.0 134.9 L 173.0 144.9 L 173.0 148.9 L 139.0 148.9 L 139.0 175.5 L 165.0 175.5 L 175.0 165.5 L 187.0 175.5 L 187.0 179.5 L 82.0 179.5 Z M 138.0 18.6 L 139.9 21.7 L 135.4666666984558 22.24444446563721 L 135.2 22.6 L 133.8 24.6 L 132.2 26.6 L 130.6 28.7 L 129.0 30.7 L 125.4 34.9 L 123.5 36.8 L 158.0 36.8 L 164.0 31.8 L 175.0 40.8 L 170.0 44.8 L 170.0 97.8 L 158.0 103.8 L 158.0 95.8 L 110.0 95.8 L 110.0 98.8 L 98.0 104.8 L 98.0 30.8 L 110.0 36.8 L 120.83461542129517 36.8 L 121.3 35.7 L 121.9 33.0 L 122.7 30.4 L 123.4 27.8 L 124.1 25.3 L 124.7 22.9 L 125.4 20.5 L 126.0 18.2 L 126.5 16.0 L 126.84125003814697 14.748750019073487 L 126.7 14.7 L 127.6 12.5 Z M 110.0 68.3 L 110.0 91.8 L 158.0 91.8 L 158.0 68.3 Z M 33.9 33.4 L 33.9 91.5 L 70.3 91.5 L 70.3 33.4 Z M 110.0 40.8 L 110.0 64.3 L 158.0 64.3 L 158.0 40.8 Z " />
</g>
</svg>
