<svg xmlns="http://www.w3.org/2000/svg" xmlns:xlink="http://www.w3.org/1999/xlink" version="1.1" baseProfile="full" viewBox="0 0 200 200" width="200" height="200">
<g fill="black">
<path d="M 58.5 19.0 L 61.5 21.0 L 58.5 22.8 L 58.5 85.0 L 75.0 85.0 L 75.0 31.0 L 87.0 33.0 L 90.0 35.0 L 87.0 36.8 L 87.0 91.0 L 75.0 97.0 L 75.0 89.0 L 58.5 89.0 L 58.5 166.0 L 79.2 166.0 L 79.2 109.0 L 91.2 111.0 L 94.2 113.0 L 91.2 114.8 L 91.2 176.0 L 79.2 182.0 L 79.2 170.0 L 25.7 170.0 L 25.7 182.0 L 13.7 188.0 L 13.7 109.0 L 25.7 111.0 L 28.7 113.0 L 25.7 114.8 L 25.7 166.0 L 46.5 166.0 L 46.5 89.0 L 30.0 89.0 L 30.0 92.0 L 18.0 98.0 L 18.0 31.0 L 30.0 33.0 L 33.0 35.0 L 30.0 36.8 L 30.0 85.0 L 46.5 85.0 L 46.5 17.0 Z M 118.3 66.2 L 165.7 66.2 L 171.7 61.2 L 182.7 70.2 L 177.7 74.2 L 177.7 124.6 L 165.7 130.6 L 165.7 120.6 L 148.0 120.6 L 148.0 141.8 L 167.3 141.8 L 177.3 131.8 L 189.3 141.8 L 189.3 145.8 L 148.0 145.8 L 148.0 181.8 L 136.0 187.8 L 136.0 145.8 L 94.7 145.8 L 94.7 141.8 L 136.0 141.8 L 136.0 120.6 L 118.3 120.6 L 118.3 127.6 L 106.3 133.6 L 106.3 60.2 Z M 118.3 95.4 L 118.3 116.6 L 165.7 116.6 L 165.7 95.4 Z M 118.3 70.2 L 118.3 91.4 L 165.7 91.4 L 165.7 70.2 Z M 163.4 14.9 L 166.4 16.9 L 163.4 18.7 L 163.4 33.9 L 167.8 33.9 L 177.8 23.9 L 189.8 33.9 L 189.8 37.9 L 163.4 37.9 L 163.4 54.0 L 151.4 60.0 L 151.4 37.9 L 132.6 37.9 L 132.6 54.0 L 120.6 60.0 L 120.6 37.9 L 94.1 37.9 L 94.1 33.9 L 120.6 33.9 L 120.6 12.9 L 132.6 14.9 L 135.6 16.9 L 132.6 18.7 L 132.6 33.9 L 151.4 33.9 L 151.4 12.9 Z " />
</g>
</svg>
