<svg xmlns="http://www.w3.org/2000/svg" xmlns:xlink="http://www.w3.org/1999/xlink" version="1.1" baseProfile="full" viewBox="0 0 200 200" width="200" height="200">
<g fill="black">
<path d="M 157.0 167.7 L 147.4 156.1 L 139.0215521812439 143.33748064041137 L 134.0 149.8 L 121.2 162.7 L 107.0 173.7 L 91.4 182.8 L 74.5 189.8 L 73.8 188.1 L 89.6 179.4 L 103.8 169.4 L 116.7 157.9 L 128.2 144.9 L 134.90811338424683 135.26954021453858 L 131.5 128.5 L 125.3 112.6 L 120.2 95.3 L 116.2 76.6 L 113.5 56.5 L 112.26046514511108 36.0 L 95.4 36.0 L 95.4 32.0 L 169.0 32.0 L 175.0 27.0 L 186.0 36.0 L 181.0 39.0 L 180.06160917282105 39.39099617004395 L 176.7 58.2 L 171.1 80.0 L 164.0 100.1 L 155.4 118.4 L 145.79489364624024 134.50553188323974 L 147.6 137.6 L 156.1 149.3 L 165.5 159.4 L 175.6 168.1 L 186.7 175.3 L 191.0 177.9 L 179.9 186.6 L 167.9 177.9 Z M 13.6 159.9 L 23.4 158.0 L 29.0 156.89166669845582 L 29.0 23.0 L 41.0 29.0 L 75.0 29.0 L 81.0 24.0 L 92.0 33.0 L 87.0 37.0 L 87.0 144.6079545021057 L 87.5 144.5 L 96.1 142.7 L 104.7 141.1 L 105.2 142.8 L 97.2 146.3 L 89.0 149.6 L 80.5 152.7 L 71.9 155.7 L 63.0 158.5 L 54.0 161.3 L 44.8 163.9 L 35.5 166.6 L 25.9 169.1 L 20.16690034866333 170.57760305404662 L 18.8 174.1 L 16.2 171.6 L 11.7 160.3 Z M 41.0 115.0 L 41.0 154.48297872543336 L 42.4 154.2 L 51.7 152.2 L 60.9 150.3 L 69.9 148.3 L 75.0 147.19886360168456 L 75.0 115.0 Z M 114.19380950927734 36.0 L 117.7 55.9 L 122.0 75.4 L 127.1 93.3 L 133.1 109.6 L 139.9 124.4 L 140.76706371307372 125.88639488220215 L 147.1 114.3 L 154.6 96.5 L 160.8 77.1 L 165.6 56.0 L 168.58245611190796 36.0 Z M 41.0 74.0 L 41.0 111.0 L 75.0 111.0 L 75.0 74.0 Z M 41.0 33.0 L 41.0 70.0 L 75.0 70.0 L 75.0 33.0 Z " />
</g>
</svg>
