<svg xmlns="http://www.w3.org/2000/svg" xmlns:xlink="http://www.w3.org/1999/xlink" version="1.1" baseProfile="full" viewBox="0 0 200 200" width="200" height="200">
<g fill="black">
<path d="M 145.5 100.0 L 148.5 102.0 L 145.5 103.8 L 145.5 122.0 L 144.6 132.5 L 142.4 142.2 L 138.9 151.2 L 134.2 159.3 L 128.3 166.5 L 121.2 172.7 L 113.1 178.0 L 103.8 182.3 L 93.5 185.6 L 82.2 187.8 L 81.8 186.1 L 92.3 182.0 L 101.6 177.4 L 109.6 172.4 L 116.4 166.9 L 121.9 160.9 L 126.4 154.3 L 129.7 147.2 L 132.0 139.5 L 133.3 131.1 L 133.5 122.0 L 133.5 98.0 Z M 89.43974361419677 33.76987180709839 L 94.4 32.6 L 104.5 30.4 L 114.2 28.2 L 123.5 26.0 L 132.3 23.9 L 140.7 21.7 L 148.7 19.5 L 156.2 17.2 L 163.3 14.9 L 169.9 12.5 L 170.42834644317628 14.187773418426513 L 179.7 22.0 L 179.9 25.1 L 175.83491773605346 23.246800708770753 L 173.5 24.0 L 166.4 25.8 L 159.0 27.6 L 151.0 29.2 L 142.7 30.8 L 134.0 32.2 L 124.9 33.5 L 115.3 34.7 L 105.3 35.7 L 94.9 36.4 L 89.9 36.583486270904544 L 89.9 61.0 L 133.61158800125122 61.0 L 135.6 38.4 L 147.3 41.5 L 150.2 43.7 L 147.01922197341918 44.801038551330564 L 145.64137935638428 61.0 L 165.3 61.0 L 175.3 51.0 L 187.3 61.0 L 187.3 65.0 L 145.30114946365356 65.0 L 143.77011489868164 83.0 L 163.7 83.0 L 169.7 78.0 L 180.7 87.0 L 175.7 91.0 L 175.7 152.0 L 163.7 158.0 L 163.7 87.0 L 114.3 87.0 L 114.3 154.0 L 102.3 160.0 L 102.3 77.0 L 114.3 83.0 L 131.6759656906128 83.0 L 133.25965662002562 65.0 L 89.9 65.0 L 89.9 88.0 L 89.4 101.8 L 88.3 114.7 L 86.6 126.9 L 84.4 138.3 L 81.7 148.8 L 78.4 158.4 L 74.5 167.2 L 70.1 175.0 L 65.0 181.8 L 59.3 187.5 L 57.9 186.4 L 61.8 179.7 L 65.3 172.4 L 68.5 164.6 L 71.2 156.0 L 73.5 146.6 L 75.3 136.5 L 76.7 125.6 L 77.6 113.9 L 78.0 101.3 L 77.9 88.0 L 77.9 28.0 Z M 171.8 179.1 L 169.7 176.3 L 167.1 173.4 L 164.1 170.5 L 160.7 167.4 L 156.9 164.3 L 152.6 161.1 L 148.0 157.7 L 142.9 154.2 L 143.7 152.6 L 149.6 154.5 L 155.1 156.6 L 160.2 158.9 L 164.9 161.3 L 169.2 163.9 L 173.1 166.5 L 176.7 169.3 L 179.9 172.1 L 182.7 175.2 L 185.1 178.4 L 185.7 182.9 L 182.9 186.6 L 178.4 187.1 L 174.7 184.3 L 173.5 181.8 Z M 28.2 42.0 L 51.3 42.0 L 57.3 37.0 L 68.3 46.0 L 63.3 50.0 L 63.3 140.0 L 51.3 146.0 L 51.3 134.0 L 28.2 134.0 L 28.2 146.0 L 16.2 152.0 L 16.2 36.0 Z M 28.2 46.0 L 28.2 130.0 L 51.3 130.0 L 51.3 46.0 Z " />
</g>
</svg>
