<svg xmlns="http://www.w3.org/2000/svg" xmlns:xlink="http://www.w3.org/1999/xlink" version="1.1" baseProfile="full" viewBox="0 0 200 200" width="200" height="200">
<g fill="black">
<path d="M 147.8 176.0 L 167.8 176.0 L 169.0 175.9 L 170.0 175.7 L 170.5 175.5 L 170.9 175.4 L 171.1 175.2 L 171.2 175.0 L 171.4 174.7 L 171.6 174.1 L 171.7 173.2 L 171.8 172.0 L 171.8 32.0 L 92.9 32.0 L 92.9 28.0 L 171.8 28.0 L 177.8 23.0 L 188.8 32.0 L 183.8 36.0 L 183.8 172.0 L 183.7 174.5 L 183.2 177.0 L 182.4 179.4 L 181.2 181.7 L 179.6 183.7 L 177.5 185.3 L 175.3 186.6 L 172.9 187.4 L 170.4 187.8 L 167.8 188.0 L 167.8 182.0 L 147.8 179.0 Z M 33.0 111.6 L 75.1 111.6 L 81.1 106.6 L 92.1 115.6 L 87.1 119.6 L 87.1 177.3 L 75.1 183.3 L 75.1 173.3 L 33.0 173.3 L 33.0 180.3 L 21.0 186.3 L 21.0 105.6 Z M 33.0 115.6 L 33.0 169.3 L 75.1 169.3 L 75.1 115.6 Z M 165.0 93.0 L 165.0 97.0 L 102.0 97.0 L 102.0 93.0 L 143.0 93.0 L 153.0 83.0 Z M 83.7 80.6 L 82.5358943939209 77.17235584259033 L 78.1 78.6 L 69.7 81.0 L 61.7 83.1 L 53.9 85.1 L 46.6 86.8 L 39.6 88.5 L 32.9 90.0 L 26.6 91.4 L 20.6 92.6 L 19.128467178344728 92.8890510559082 L 17.4 96.4 L 15.0 93.7 L 11.4 82.2 L 13.3 81.9 L 18.9 81.4 L 24.9 80.8 L 26.970863819122314 80.5734992980957 L 27.7 77.9 L 29.9 70.4 L 32.0 63.1 L 34.1 56.0 L 36.1 49.0 L 38.0 42.2 L 39.8 35.6 L 41.4 29.0 L 42.9 22.7 L 44.074977493286134 17.412601280212403 L 44.0 17.4 L 44.7 14.7 L 55.9 19.4 L 58.3 22.1 L 54.69548301696777 23.19422836303711 L 53.9 25.7 L 51.7 32.1 L 49.4 38.6 L 46.9 45.2 L 44.2 51.8 L 41.3 58.6 L 38.2 65.5 L 34.9 72.4 L 31.2 79.3 L 30.705714321136476 80.16499996185303 L 31.3 80.1 L 38.0 79.3 L 45.1 78.5 L 52.6 77.6 L 60.4 76.7 L 68.7 75.7 L 77.4 74.8 L 81.58257265090943 74.47468881607055 L 79.9 70.1 L 77.7 64.9 L 75.3 59.9 L 72.8 55.0 L 70.1 50.1 L 67.3 45.2 L 64.4 40.3 L 65.7 39.1 L 70.2 42.8 L 74.4 46.9 L 78.2 51.3 L 81.8 56.0 L 85.2 60.9 L 88.2 66.0 L 91.1 71.3 L 93.7 76.8 L 96.1 82.5 L 98.2 88.4 L 97.6 93.0 L 94.0 95.8 L 89.5 95.3 L 86.6 91.7 L 85.2 86.1 Z " />
</g>
</svg>
