<svg xmlns="http://www.w3.org/2000/svg" xmlns:xlink="http://www.w3.org/1999/xlink" version="1.1" baseProfile="full" viewBox="0 0 200 200" width="200" height="200">
<g fill="black">
<path d="M 157.0 167.6 L 148.1 155.9 L 140.95978956222535 143.75236930847169 L 136.7 149.7 L 124.9 162.6 L 111.7 173.7 L 97.3 182.7 L 81.7 189.8 L 81.0 188.1 L 95.4 179.5 L 108.4 169.4 L 120.2 158.0 L 130.7 145.0 L 136.8990704536438 135.33478260040283 L 133.6 128.3 L 128.0 112.5 L 123.3 95.2 L 119.8 76.5 L 117.4 56.5 L 116.25581398010254 36.0 L 100.9 36.0 L 100.9 32.0 L 168.0 32.0 L 174.0 27.0 L 185.0 36.0 L 180.0 39.0 L 179.22985076904297 39.320895481109616 L 176.1 58.1 L 170.9 79.9 L 164.3 100.0 L 156.5 118.3 L 147.5233681678772 134.49696617126466 L 149.3 137.8 L 157.1 149.5 L 165.8 159.6 L 175.1 168.3 L 185.3 175.4 L 189.1 177.9 L 178.0 186.5 L 167.0 177.8 Z M 83.7 145.8 L 85.7 145.8 L 83.7 170.8 L 87.3 173.2 L 89.7 176.8 L 87.3 180.4 L 83.7 182.8 L 51.6 182.8 L 49.0 182.7 L 46.5 182.3 L 44.1 181.4 L 41.8 180.2 L 39.8 178.6 L 38.2 176.6 L 37.0 174.3 L 36.2 171.9 L 35.7 169.4 L 35.6 166.8 L 35.6 116.9 L 47.6 118.9 L 50.6 120.9 L 47.6 122.7 L 47.6 168.1 L 47.8 169.0 L 48.0 169.6 L 48.2 169.9 L 48.3 170.1 L 48.5 170.2 L 48.8 170.4 L 49.4 170.6 L 50.3 170.8 L 77.7 170.8 Z M 13.3 169.4 L 11.3 165.3 L 12.7 160.9 L 14.3 159.4 L 15.8 157.3 L 17.3 154.7 L 18.7 151.5 L 20.0 147.8 L 21.1 143.6 L 22.1 138.8 L 23.0 133.6 L 23.8 127.8 L 24.4 121.6 L 26.2 121.5 L 27.2 127.8 L 28.0 133.7 L 28.3 139.3 L 28.4 144.5 L 28.1 149.3 L 27.5 153.9 L 26.6 158.1 L 25.4 162.0 L 23.8 165.6 L 21.7 168.9 L 17.6 170.8 Z M 93.9 152.1 L 93.2 148.4 L 92.4 144.7 L 91.4 141.1 L 90.3 137.6 L 89.0 134.1 L 87.5 130.6 L 86.0 127.0 L 84.2 123.6 L 85.6 122.5 L 88.5 125.2 L 91.4 128.0 L 94.1 131.1 L 96.5 134.4 L 98.7 137.9 L 100.7 141.6 L 102.5 145.5 L 104.0 149.5 L 105.4 153.7 L 106.5 158.0 L 105.4 162.4 L 101.5 164.8 L 97.1 163.7 L 94.7 159.8 L 94.3 155.9 Z M 59.8 122.7 L 58.8 120.1 L 57.7 117.5 L 55.1 112.7 L 53.7 110.3 L 52.2 108.0 L 50.3 106.0 L 51.3 104.5 L 53.8 106.0 L 56.5 107.4 L 59.1 109.0 L 61.5 111.0 L 63.8 113.1 L 66.0 115.5 L 68.1 118.1 L 70.0 120.9 L 71.8 123.9 L 73.5 127.1 L 73.3 131.6 L 70.0 134.8 L 65.4 134.5 L 62.3 131.2 L 60.7 125.4 Z M 118.1833333015442 36.0 L 121.5 55.9 L 125.6 75.4 L 130.3 93.4 L 135.9 109.8 L 142.2 124.6 L 142.5803282737732 125.30708923339844 L 148.0 114.4 L 154.9 96.6 L 160.5 77.2 L 164.9 56.1 L 167.62096071243286 36.0 Z M 21.0 91.2 L 53.0 91.2 L 53.0 52.8 L 14.7 52.8 L 14.7 48.8 L 53.0 48.8 L 53.0 13.8 L 65.0 15.8 L 68.0 17.8 L 65.0 19.6 L 65.0 48.8 L 81.2 48.8 L 91.2 38.8 L 103.2 48.8 L 103.2 52.8 L 65.0 52.8 L 65.0 91.2 L 74.9 91.2 L 84.9 81.2 L 96.9 91.2 L 96.9 95.2 L 21.0 95.2 Z " />
</g>
</svg>
