<svg xmlns="http://www.w3.org/2000/svg" xmlns:xlink="http://www.w3.org/1999/xlink" version="1.1" baseProfile="full" viewBox="0 0 200 200" width="200" height="200">
<g fill="black">
<path d="M 110.3 176.0 L 130.3 176.0 L 131.6 175.9 L 132.5 175.7 L 133.4 175.4 L 133.6 175.2 L 133.7 175.0 L 133.9 174.7 L 134.1 174.1 L 134.3 173.2 L 134.3 113.0 L 103.6 113.0 L 103.6 109.0 L 159.5 109.0 L 169.5 99.0 L 181.5 109.0 L 181.5 113.0 L 146.3 113.0 L 146.3 172.0 L 146.2 174.5 L 145.7 177.0 L 144.9 179.4 L 143.7 181.7 L 142.1 183.7 L 140.1 185.3 L 137.8 186.6 L 135.4 187.4 L 132.9 187.8 L 130.3 188.0 L 130.3 182.0 L 110.3 179.0 Z M 125.5 134.9 L 127.7 137.8 L 123.92539739608765 138.52843208312987 L 123.2 140.2 L 120.7 145.3 L 118.0 150.4 L 115.1 155.4 L 112.0 160.3 L 108.7 165.0 L 105.2 169.7 L 101.4 174.2 L 97.3 178.5 L 92.9 182.5 L 91.5 181.4 L 94.3 176.2 L 97.0 171.1 L 99.7 166.1 L 102.2 161.1 L 104.6 156.1 L 106.9 151.1 L 108.9 146.1 L 110.9 141.0 L 112.6 136.0 L 113.91628198623657 131.80435123443604 L 113.9 131.8 L 114.7 129.4 Z M 75.0 186.9 L 70.9 184.9 L 69.3 180.7 L 69.8 173.5 L 69.9 166.9 L 69.7 160.9 L 69.2 155.6 L 68.4 150.9 L 67.93803234100342 149.13612337112426 L 66.6 148.9 L 67.29306926727295 146.68217821121215 L 65.9 143.1 L 64.2 139.8 L 62.1 136.9 L 59.7 134.2 L 60.5 132.6 L 64.4 133.9 L 68.1 136.2 L 70.05352115631104 138.15352115631103 L 70.7 136.1 L 72.9 129.7 L 75.4 122.0 L 78.4 113.2 L 81.9 103.3 L 85.8 92.2 L 90.3 80.0 L 95.4 66.7 L 97.1 67.2 L 93.9 81.1 L 90.9 93.8 L 88.2 105.2 L 85.7 115.4 L 83.6 124.4 L 81.8 132.2 L 80.4 138.7 L 79.4 144.1 L 78.7 148.2 L 78.5 151.0 L 77.33125 150.79375 L 78.3 153.7 L 79.7 159.7 L 80.6 166.3 L 81.2 173.5 L 81.3 181.2 L 79.3 185.4 Z M 171.0 165.3 L 167.6 156.7 L 165.7 152.5 L 163.8 148.4 L 159.6 140.4 L 157.4 136.3 L 155.2 132.3 L 156.5 131.1 L 160.2 134.1 L 163.7 137.3 L 167.0 140.8 L 170.0 144.5 L 172.9 148.3 L 175.7 152.4 L 178.3 156.6 L 180.7 160.9 L 183.0 165.4 L 185.2 170.1 L 184.9 174.6 L 181.6 177.8 L 177.1 177.5 L 173.9 174.2 L 172.5 169.7 Z M 26.0 42.0 L 42.5 42.0 L 48.5 37.0 L 59.5 46.0 L 54.5 50.0 L 54.5 140.0 L 42.5 146.0 L 42.5 134.0 L 26.0 134.0 L 26.0 146.0 L 14.0 152.0 L 14.0 36.0 Z M 26.0 46.0 L 26.0 130.0 L 42.5 130.0 L 42.5 46.0 Z M 69.7 82.4 L 69.0 80.5 L 68.2 78.6 L 67.2 76.7 L 65.9 74.7 L 64.5 72.8 L 62.8 70.8 L 60.9 68.8 L 58.6 67.2 L 59.4 65.6 L 62.1 66.7 L 64.9 67.6 L 67.6 68.7 L 70.1 70.0 L 72.5 71.5 L 74.7 73.3 L 76.7 75.2 L 78.6 77.3 L 80.3 79.6 L 81.8 82.1 L 81.5 86.6 L 78.2 89.8 L 73.7 89.5 L 70.5 86.2 L 70.2 84.3 Z M 169.2 76.0 L 169.2 80.0 L 115.0 80.0 L 115.0 76.0 L 147.2 76.0 L 157.2 66.0 Z M 102.5 73.8 L 99.2 70.6 L 99.0 66.1 L 100.3 63.2 L 101.5 60.3 L 102.5 57.3 L 103.4 54.1 L 104.1 50.8 L 104.7 47.4 L 105.1 43.8 L 105.4 40.0 L 105.7 36.1 L 105.5 32.1 L 107.3 31.7 L 108.6 35.7 L 109.9 39.5 L 110.02820510864258 40.0 L 134.3 40.0 L 134.3 13.0 L 146.3 15.0 L 149.3 17.0 L 146.3 18.8 L 146.3 40.0 L 172.8 40.0 L 178.8 35.0 L 189.8 44.0 L 184.8 47.0 L 182.99795217514037 47.75085325241089 L 182.6 48.8 L 181.4 51.7 L 180.1 54.6 L 178.7 57.4 L 177.2 60.2 L 173.8 65.8 L 171.8 68.5 L 170.0 71.3 L 168.4 70.6 L 169.3 67.4 L 169.9 64.2 L 170.5 61.1 L 171.0 58.0 L 171.5 55.0 L 172.3 49.2 L 172.6 46.3 L 172.770370388031 44.0 L 111.00769233703613 44.0 L 111.6 47.3 L 112.0 51.2 L 112.1 55.0 L 112.0 58.9 L 111.7 62.7 L 111.1 66.5 L 110.2 70.2 L 107.1 73.5 Z M 78.8 36.5 L 78.1 34.5 L 77.2 32.6 L 76.2 30.6 L 75.1 28.7 L 73.7 26.8 L 72.2 24.8 L 70.5 22.8 L 68.4 21.2 L 69.2 19.6 L 71.7 20.8 L 74.4 21.7 L 76.9 22.8 L 79.3 24.1 L 81.6 25.6 L 83.8 27.3 L 85.8 29.2 L 87.6 31.3 L 89.3 33.5 L 90.9 35.9 L 90.8 40.5 L 87.6 43.7 L 83.0 43.6 L 79.8 40.4 L 79.3 38.4 Z " />
</g>
</svg>
