<svg xmlns="http://www.w3.org/2000/svg" xmlns:xlink="http://www.w3.org/1999/xlink" version="1.1" baseProfile="full" viewBox="0 0 200 200" width="200" height="200">
<g fill="black">
<path d="M 130.3 181.9 L 114.5 177.9 L 103.4 172.5 L 96.1 166.9 L 91.8 162.3 L 90.0 160.1 L 89.7 159.6 L 85.8 161.8 L 81.89735097885132 165.5927152633667 L 81.2 166.6 L 79.4 169.3 L 77.6 172.1 L 75.9 175.1 L 74.41342411041259 177.66021404266357 L 76.0 181.4 L 72.4 181.4 L 61.3 176.5 L 62.4 174.8 L 64.9 171.7 L 67.5 168.9 L 70.2 166.2 L 72.8 163.7 L 75.5 161.4 L 78.3 159.3 L 81.0 157.4 L 83.9 155.8 L 84.0 155.75517244338988 L 84.0 91.0 L 64.8 91.0 L 64.8 87.0 L 84.0 87.0 L 90.0 82.0 L 101.0 91.0 L 96.0 95.0 L 96.0 155.32608699798584 L 97.6 156.3 L 102.1 159.8 L 102.267777633667 159.9022395133972 L 107.7 153.3 L 113.5 144.5 L 118.6 134.8 L 123.0 124.0 L 126.7 112.2 L 129.7 99.3 L 131.9 85.2 L 133.5 70.0 L 134.14390239715576 56.8 L 106.4 56.8 L 106.4 52.8 L 134.3045714378357 52.8 L 134.4 36.1 L 134.4 16.4 L 146.4 18.4 L 149.4 20.4 L 146.4 22.2 L 146.4 36.1 L 145.7505555152893 52.8 L 169.9 52.8 L 175.9 47.8 L 186.9 56.8 L 181.9 59.8 L 181.9 69.9 L 181.7 83.7 L 181.2 96.3 L 180.6 107.7 L 179.7 117.9 L 178.6 126.9 L 177.3 134.7 L 175.7 141.4 L 173.8 147.0 L 171.4 151.7 L 170.0 153.7 L 168.4 155.6 L 166.6 157.2 L 164.7 158.7 L 162.7 160.0 L 160.5 161.0 L 158.2 161.8 L 155.9 162.4 L 153.4 162.7 L 151.0 162.8 L 151.0 156.8 L 131.0 153.8 L 131.0 150.8 L 151.0 150.8 L 152.4 150.7 L 153.7 150.6 L 154.9 150.3 L 155.9 149.9 L 156.9 149.4 L 157.9 148.8 L 158.8 148.1 L 159.7 147.3 L 160.5 146.3 L 161.4 145.1 L 162.7 142.4 L 164.2 138.1 L 165.6 132.3 L 166.8 125.2 L 167.8 116.7 L 168.6 106.9 L 169.2 95.8 L 169.7 83.4 L 169.9 69.8 L 169.9 56.8 L 145.46035499572753 56.8 L 144.2 71.0 L 141.9 86.7 L 138.7 101.3 L 134.8 114.7 L 130.0 126.9 L 124.4 137.8 L 117.9 147.5 L 110.5 155.8 L 104.20635070800782 161.08355741500856 L 108.5 163.7 L 118.0 167.4 L 132.0 170.2 L 151.9 171.2 L 178.9 169.4 L 189.4 168.3 L 180.2 182.5 L 151.9 183.7 Z M 28.4 42.0 L 50.4 42.0 L 56.4 37.0 L 67.4 46.0 L 62.4 50.0 L 62.4 140.0 L 50.4 146.0 L 50.4 134.0 L 28.4 134.0 L 28.4 146.0 L 16.4 152.0 L 16.4 36.0 Z M 28.4 46.0 L 28.4 130.0 L 50.4 130.0 L 50.4 46.0 Z M 85.5 49.3 L 84.2 46.4 L 82.9 43.4 L 81.3 40.5 L 79.7 37.7 L 77.8 34.8 L 75.8 31.9 L 73.7 29.0 L 71.3 26.3 L 72.4 24.9 L 75.6 26.8 L 78.9 28.7 L 81.9 30.9 L 84.8 33.2 L 87.5 35.8 L 90.1 38.5 L 92.5 41.4 L 94.7 44.4 L 96.7 47.6 L 98.6 50.9 L 98.5 55.5 L 95.3 58.7 L 90.7 58.6 L 87.5 55.4 L 86.5 52.4 Z " />
</g>
</svg>
