<svg xmlns="http://www.w3.org/2000/svg" xmlns:xlink="http://www.w3.org/1999/xlink" version="1.1" baseProfile="full" viewBox="0 0 200 200" width="200" height="200">
<g fill="black">
<path d="M 75.4 133.0 L 92.0 133.0 L 98.0 128.0 L 109.0 137.0 L 104.0 141.0 L 104.0 179.0 L 92.0 185.0 L 92.0 175.0 L 75.4 175.0 L 75.4 182.0 L 63.4 188.0 L 63.4 127.0 Z M 117.9 175.1 L 139.2 175.1 L 140.1 174.9 L 140.7 174.7 L 141.0 174.5 L 141.2 174.4 L 141.3 174.2 L 141.5 173.9 L 141.7 173.3 L 141.9 172.4 L 141.9 143.9 L 107.8 143.9 L 107.8 139.9 L 141.9 139.9 L 141.9 126.2 L 150.3 127.6 L 151.0 126.8 L 153.3 123.5 L 155.5 120.4 L 157.6 117.5 L 159.5 114.8 L 161.2 112.3 L 162.6 109.9 L 163.05217390060426 109.1 L 119.9 109.1 L 119.9 105.1 L 164.8 105.1 L 165.5217391014099 104.49855070114135 L 165.9 103.7 L 166.21648111343384 103.91959915161132 L 170.8 100.1 L 181.8 109.1 L 176.8 112.1 L 172.1875 114.021875 L 172.0 114.2 L 169.9 116.1 L 167.6 118.0 L 165.1 120.1 L 162.4 122.2 L 159.5 124.3 L 156.3 126.5 L 153.8093023300171 128.18488368988037 L 153.9 128.2 L 156.9 130.2 L 153.9 132.0 L 153.9 139.9 L 166.1 139.9 L 176.1 129.9 L 188.1 139.9 L 188.1 143.9 L 153.9 143.9 L 153.9 171.1 L 153.8 173.7 L 153.3 176.2 L 152.5 178.6 L 151.3 180.9 L 149.7 182.9 L 147.7 184.5 L 145.4 185.7 L 143.0 186.6 L 140.5 187.0 L 137.9 187.1 L 137.9 181.1 L 117.9 178.1 Z M 75.4 137.0 L 75.4 171.0 L 92.0 171.0 L 92.0 137.0 Z M 24.6 42.0 L 42.0 42.0 L 48.0 37.0 L 59.0 46.0 L 54.0 50.0 L 54.0 140.0 L 42.0 146.0 L 42.0 134.0 L 24.6 134.0 L 24.6 146.0 L 12.6 152.0 L 12.6 36.0 Z M 24.6 46.0 L 24.6 130.0 L 42.0 130.0 L 42.0 46.0 Z M 101.8 108.0 L 101.8 112.0 L 65.6 112.0 L 65.6 108.0 L 83.61818180084228 108.0 L 91.8 99.0 Z M 134.3 55.9 L 162.4 55.9 L 168.4 50.9 L 179.4 59.9 L 174.4 63.9 L 174.4 90.0 L 162.4 96.0 L 162.4 88.0 L 134.3 88.0 L 134.3 91.0 L 122.3 97.0 L 122.3 49.9 Z M 101.8 82.0 L 101.8 86.0 L 65.6 86.0 L 65.6 82.0 L 83.61818180084228 82.0 L 91.8 73.0 Z M 134.3 59.9 L 134.3 84.0 L 162.4 84.0 L 162.4 59.9 Z M 107.5 54.0 L 107.5 58.0 L 63.1 58.0 L 63.1 54.0 L 89.31818180084228 54.0 L 97.5 45.0 Z M 110.4 37.0 L 141.9 37.0 L 141.9 13.0 L 153.9 15.0 L 156.9 17.0 L 153.9 18.8 L 153.9 37.0 L 165.9 37.0 L 175.9 27.0 L 187.9 37.0 L 187.9 41.0 L 110.4 41.0 Z M 101.8 28.0 L 101.8 32.0 L 65.6 32.0 L 65.6 28.0 L 83.61818180084228 28.0 L 91.8 19.0 Z " />
</g>
</svg>
