<svg xmlns="http://www.w3.org/2000/svg" xmlns:xlink="http://www.w3.org/1999/xlink" version="1.1" baseProfile="full" viewBox="0 0 200 200" width="200" height="200">
<g fill="black">
<path d="M 172.0 147.0 L 174.0 147.0 L 172.0 172.0 L 175.6 174.4 L 178.0 178.0 L 175.6 181.6 L 172.0 184.0 L 112.0 184.0 L 109.4 183.8 L 106.9 183.4 L 104.5 182.6 L 102.2 181.3 L 100.2 179.7 L 98.6 177.7 L 97.3 175.4 L 96.5 173.0 L 96.1 170.5 L 96.0 168.0 L 96.0 85.0 L 108.0 87.0 L 111.0 89.0 L 108.0 90.8 L 108.0 127.17183094024658 L 108.8 126.8 L 115.7 123.6 L 122.3 120.4 L 128.7 117.0 L 134.8 113.6 L 140.7 110.0 L 146.2 106.2 L 151.5 102.3 L 156.5 98.2 L 161.3 94.0 L 161.33031091690063 94.03575134277344 L 161.5 93.9 L 169.1 103.2 L 169.5 106.8 L 165.88746614456176 105.55203371047973 L 163.5 107.3 L 157.6 111.1 L 151.6 114.7 L 145.2 118.1 L 138.7 121.1 L 131.9 123.9 L 124.9 126.5 L 117.6 128.7 L 110.0 130.4 L 108.0 130.7589743614197 L 108.0 169.2 L 108.2 170.1 L 108.5 171.0 L 108.9 171.4 L 109.8 171.7 L 110.7 171.9 L 112.0 172.0 L 166.0 172.0 Z M 13.3 150.9 L 18.8 149.4 L 24.6 147.7 L 30.7 145.8 L 37.2 143.7 L 41.5 142.24558820724488 L 41.5 72.0 L 14.2 72.0 L 14.2 68.0 L 41.5 68.0 L 41.5 17.0 L 53.5 19.0 L 56.5 21.0 L 53.5 22.8 L 53.5 68.0 L 60.6 68.0 L 70.6 58.0 L 82.6 68.0 L 82.6 72.0 L 53.5 72.0 L 53.5 138.15675678253174 L 58.5 136.4 L 66.4 133.7 L 74.6 130.9 L 83.2 128.1 L 83.9 129.8 L 76.1 134.4 L 68.5 138.6 L 61.1 142.4 L 54.0 146.0 L 47.1 149.3 L 40.6 152.4 L 34.3 155.2 L 28.2 157.8 L 22.5 160.2 L 20.88046646118164 160.81836738586426 L 19.8 164.6 L 17.0 162.3 L 11.4 151.6 Z M 166.7 79.6 L 161.3 74.1 L 156.1 68.2 L 151.0 62.0 L 146.2 55.3 L 141.6 48.2 L 137.2 40.7 L 133.2 32.7 L 131.94001903533936 29.676045608520507 L 127.0 38.2 L 121.6 46.8 L 115.8 55.2 L 109.8 63.4 L 103.5 71.3 L 96.8 79.1 L 89.8 86.6 L 82.4 93.7 L 74.6 100.6 L 73.3 99.3 L 79.6 91.2 L 85.7 83.1 L 91.7 75.0 L 97.4 66.8 L 102.9 58.5 L 108.1 50.1 L 113.0 41.6 L 117.6 32.9 L 122.0 24.2 L 126.1 15.3 L 126.12332611083984 15.311015129089355 L 126.7 14.1 L 136.9 20.4 L 138.8 23.5 L 135.03917274475097 23.889051055908205 L 133.63220338821412 26.527118682861328 L 136.8 30.6 L 142.2 37.4 L 147.5 44.0 L 152.8 50.1 L 158.1 55.9 L 163.5 61.2 L 169.0 66.2 L 174.5 70.7 L 180.1 74.8 L 185.7 78.5 L 189.2 80.9 L 178.2 89.4 L 172.4 84.7 Z " />
</g>
</svg>
