<svg xmlns="http://www.w3.org/2000/svg" xmlns:xlink="http://www.w3.org/1999/xlink" version="1.1" baseProfile="full" viewBox="0 0 200 200" width="200" height="200">
<g fill="black">
<path d="M 26.7 108.5 L 26.8 112.7 L 26.8 116.6 L 26.5 120.3 L 25.9 123.8 L 25.1 127.1 L 24.0 130.2 L 22.6 133.1 L 18.6 135.4 L 14.2 134.4 L 11.9 130.4 L 12.9 126.0 L 14.2 124.7 L 15.5 123.0 L 16.8 120.8 L 17.9 118.2 L 19.0 115.2 L 20.1 111.8 L 21.0 108.1 L 21.8 103.9 L 22.6 99.4 L 23.1 94.5 L 24.9 94.4 L 25.6 99.4 L 26.0 102.0285714149475 L 26.0 101.4 L 28.0 101.4 L 28.0 28.3 L 37.56716413497925 33.08358211517334 L 39.3 31.8 L 41.9 30.0 L 46.7 26.6 L 48.9 25.1 L 50.9 23.6 L 52.8 22.1 L 54.6 20.7 L 55.40032377243042 20.049736976623535 L 55.3 19.9 L 55.428382110595706 20.026939582824706 L 56.2 19.4 L 57.8917236328125 22.462603187561037 L 64.2 28.7 L 64.3 32.0 L 60.39383630752563 30.4110520362854 L 59.8 30.6 L 57.5 31.3 L 55.1 32.0 L 52.5 32.7 L 49.8 33.4 L 47.0 34.2 L 44.0 34.9 L 40.9 35.5 L 40.0 35.66363639831543 L 40.0 54.1 L 49.7777777671814 54.1 L 56.0 47.1 L 64.0 54.1 L 64.0 58.1 L 40.0 58.1 L 40.0 76.1 L 49.7777777671814 76.1 L 56.0 69.1 L 64.0 76.1 L 64.0 80.1 L 40.0 80.1 L 40.0 101.4 L 160.0 101.4 L 160.0 80.1 L 143.31999998092653 80.1 L 142.8 84.0 L 139.2 86.8 L 134.7 86.2 L 131.9 82.6 L 131.4 79.7 L 130.7 76.7 L 129.8 73.7 L 128.7 70.8 L 127.4 67.8 L 126.0 64.7 L 124.3 61.7 L 124.0 61.16666669845581 L 124.0 93.0 L 112.0 99.0 L 112.0 70.97692308425903 L 111.7 71.6 L 109.0 76.6 L 106.0 81.3 L 102.8 85.6 L 99.2 89.3 L 95.4 92.5 L 94.1 91.4 L 96.2 87.1 L 98.2 82.7 L 100.2 78.1 L 101.79539413452149 74.06953058242797 L 98.5 76.8 L 93.9 76.3 L 91.0 72.8 L 90.7 70.3 L 90.2 68.0 L 89.8 65.7 L 89.2 63.5 L 88.9 62.55714282989502 L 88.9 93.0 L 76.9 99.0 L 76.9 70.95200004577637 L 76.6 71.6 L 73.8 76.6 L 70.8 81.3 L 67.6 85.6 L 64.1 89.3 L 60.3 92.5 L 58.9 91.4 L 61.0 87.1 L 63.1 82.7 L 65.1 78.1 L 67.0 73.3 L 68.8 68.3 L 70.4 63.0 L 71.9 57.4 L 73.3 51.5 L 74.5 45.3 L 74.99811325073242 42.0 L 61.5 42.0 L 61.5 38.0 L 76.9 38.0 L 76.9 13.0 L 88.9 15.0 L 91.9 17.0 L 88.9 18.8 L 88.9 38.0 L 89.5 38.0 L 94.0 32.0 L 100.0 38.0 L 100.0 42.0 L 88.9 42.0 L 88.9 52.56666669845581 L 90.9 53.9 L 92.9 55.6 L 94.8 57.5 L 96.5 59.5 L 98.2 61.7 L 99.7 64.1 L 101.2 66.7 L 102.5 69.4 L 102.05365858078002 73.41707315444947 L 102.1 73.3 L 103.9 68.3 L 105.5 63.0 L 107.1 57.4 L 108.4 51.5 L 109.6 45.3 L 110.09811325073242 42.0 L 100.9 42.0 L 100.9 38.0 L 112.0 38.0 L 112.0 13.0 L 124.0 15.0 L 127.0 17.0 L 124.0 18.8 L 124.0 38.0 L 128.9 38.0 L 133.4 32.0 L 139.4 38.0 L 139.4 42.0 L 124.0 42.0 L 124.0 54.30625 L 125.8 55.6 L 128.7 58.1 L 131.5 60.7 L 134.0 63.5 L 136.3 66.5 L 138.4 69.5 L 140.3 72.7 L 142.0 76.0 L 142.03999996185303 76.1 L 160.0 76.1 L 160.0 58.1 L 136.0 58.1 L 136.0 54.1 L 160.0 54.1 L 160.0 32.8 L 136.0 32.8 L 136.0 28.8 L 160.0 28.8 L 166.0 23.8 L 177.0 32.8 L 172.0 36.8 L 172.0 101.4 L 172.46987953186036 101.00843372344971 L 172.5 100.9 L 172.5649582862854 100.92920141220092 L 178.0 96.4 L 189.0 105.4 L 184.0 108.4 L 180.46976747512818 109.87093019485474 L 179.0 111.8 L 177.2 114.1 L 175.3 116.6 L 173.1 119.2 L 170.8 122.0 L 168.2 124.9 L 165.4 127.9 L 165.24246349334717 128.09837923049926 L 166.1 128.8 L 161.1 132.8 L 161.1 182.1 L 149.1 188.1 L 149.1 180.1 L 50.9 180.1 L 50.9 183.1 L 38.9 189.1 L 38.9 118.8 L 50.9 124.8 L 149.1 124.8 L 155.1 119.8 L 163.1452127456665 126.38244676589966 L 164.6 122.6 L 166.1 119.1 L 167.4 115.8 L 168.6 112.7 L 169.7 109.9 L 170.6 107.2 L 171.22608699798585 105.4 L 26.424444484710694 105.4 Z M 50.9 128.8 L 50.9 176.1 L 149.1 176.1 L 149.1 128.8 Z " />
</g>
</svg>
