<svg xmlns="http://www.w3.org/2000/svg" xmlns:xlink="http://www.w3.org/1999/xlink" version="1.1" baseProfile="full" viewBox="0 0 200 200" width="200" height="200">
<g fill="black">
<path d="M 176.2 108.1 L 174.4 105.1 L 172.5 102.1 L 170.4 99.2 L 168.2 96.4 L 165.8 93.5 L 163.3 90.7 L 161.5 88.83333330154419 L 161.5 183.0 L 149.5 189.0 L 149.5 56.18000001907349 L 144.8 59.0 L 144.23571100234986 59.235120391845705 L 142.5 73.8 L 139.5 91.8 L 135.9 108.6 L 131.7 124.0 L 126.8 138.1 L 121.2 150.9 L 115.0 162.3 L 108.1 172.3 L 100.5 180.8 L 92.3 187.6 L 91.1 186.3 L 97.7 178.2 L 103.7 169.2 L 109.3 159.1 L 114.3 147.8 L 118.8 135.3 L 122.7 121.5 L 124.69008264541625 112.66169176101684 L 123.4 113.8 L 118.8 113.4 L 115.8 110.0 L 115.2 107.1 L 114.5 104.3 L 113.7 101.5 L 112.7 98.7 L 111.6 96.0 L 110.4 93.2 L 109.1 90.5 L 106.92858991622924 86.44670114517211 L 105.1 91.6 L 101.5 100.5 L 97.5 109.1 L 93.1 117.3 L 91.5 116.6 L 92.14864864349366 114.29081077575684 L 89.3 116.0 L 89.02915363311767 116.1128526687622 L 89.0 116.9 L 88.8 119.4 L 88.6 121.7 L 88.5 123.8 L 88.3 125.6 L 88.1 127.3 L 87.9 128.8 L 87.8 130.1 L 87.6 131.2 L 87.0 133.7 L 86.1 136.1 L 84.9 138.3 L 83.4 140.3 L 81.6 142.1 L 79.5 143.6 L 77.3 144.7 L 74.9 145.4 L 72.4 145.8 L 69.8 146.0 L 69.8 140.0 L 51.8 137.0 L 51.8 134.62580642700195 L 50.778256225585935 138.41614637374877 L 53.9 140.2 L 58.0 142.5 L 61.8 145.0 L 65.4 147.7 L 68.8 150.4 L 72.0 153.2 L 74.9 156.1 L 77.7 159.1 L 80.3 162.2 L 82.6 165.3 L 83.2 169.9 L 80.5 173.5 L 75.9 174.1 L 72.3 171.4 L 70.8 168.4 L 69.2 165.3 L 67.3 162.3 L 65.2 159.1 L 62.9 156.0 L 60.5 152.8 L 57.8 149.5 L 54.9 146.2 L 51.9 142.7 L 50.118313026428225 140.8643225669861 L 49.3 143.9 L 45.3 154.3 L 40.4 163.5 L 34.7 171.4 L 28.2 178.0 L 20.9 183.1 L 12.8 186.8 L 12.1 185.1 L 18.7 180.0 L 24.4 174.2 L 29.5 167.5 L 33.8 159.8 L 37.4 151.1 L 40.3 141.3 L 42.6 130.5 L 44.1 118.4 L 44.429770946502686 113.0 L 28.752032566070557 113.0 L 28.0 120.5 L 15.5 125.3 L 20.4 76.4 L 30.75833330154419 83.0 L 45.0 83.0 L 45.0 63.0 L 18.6 63.0 L 18.6 59.0 L 45.0 59.0 L 45.0 41.0 L 14.2 41.0 L 14.2 37.0 L 45.0 37.0 L 45.0 14.0 L 57.0 16.0 L 60.0 18.0 L 57.0 19.8 L 57.0 37.0 L 67.5 37.0 L 77.5 27.0 L 89.5 37.0 L 89.5 41.0 L 57.0 41.0 L 57.0 59.0 L 70.3 59.0 L 76.3 54.0 L 87.3 63.0 L 82.3 67.0 L 82.3 91.0 L 70.3 97.0 L 70.3 87.0 L 57.0 87.0 L 57.0 91.0 L 56.2 105.9 L 55.86304349899292 109.0 L 77.3 109.0 L 83.3 104.0 L 92.84551496505738 111.80996675491333 L 94.0 107.7 L 96.4 98.7 L 98.8 89.6 L 101.1 80.2 L 103.2 70.6 L 105.2 60.8 L 107.0 50.8 L 108.5 40.5 L 109.9 30.0 L 111.1 19.2 L 111.12856760025025 19.20360097885132 L 111.4 17.1 L 123.0 20.7 L 125.8 23.1 L 122.3680781364441 24.561744499206544 L 121.2 31.7 L 119.1 42.4 L 116.97692308425903 52.0 L 132.8 52.0 L 138.8 47.0 L 149.5 55.754545497894284 L 149.5 18.0 L 161.5 20.0 L 164.5 22.0 L 161.5 23.8 L 161.5 85.03243246078492 L 166.0 87.1 L 169.5 89.1 L 172.9 91.3 L 176.1 93.7 L 179.1 96.2 L 182.0 99.0 L 184.7 102.0 L 187.3 105.1 L 189.8 108.4 L 190.3 112.9 L 187.6 116.5 L 183.0 117.1 L 179.4 114.3 L 177.9 111.2 Z M 116.00792083740234 56.0 L 114.3 62.9 L 111.5 72.7 L 108.4 82.3 L 108.14130020141602 83.02906312942505 L 110.8 84.9 L 113.4 87.1 L 115.8 89.4 L 118.1 91.9 L 120.2 94.5 L 122.2 97.2 L 124.0 100.1 L 125.7 103.1 L 126.41355266571045 104.57467555999756 L 128.9 90.1 L 131.2 72.4 L 132.66736841201782 56.0 Z M 57.0 63.0 L 57.0 83.0 L 70.3 83.0 L 70.3 63.0 Z M 76.0 127.3 L 76.2 126.0 L 76.3 124.5 L 76.5 122.7 L 76.7 120.7 L 76.8 118.5 L 77.0 116.1 L 77.2 113.5 L 77.21724138259887 113.0 L 55.42826089859009 113.0 L 54.7 119.7 L 52.4 132.4 L 51.968695640563965 134.0 L 69.8 134.0 L 71.1 133.9 L 72.1 133.7 L 72.9 133.5 L 73.5 133.2 L 74.0 132.9 L 74.4 132.5 L 74.7 132.0 L 75.1 131.2 L 75.5 130.3 L 75.8 129.0 L 75.9 128.3 Z M 31.35907859802246 87.0 L 29.153116512298585 109.0 L 44.67404584884643 109.0 L 44.9 105.3 L 45.0 91.0 L 45.0 87.0 Z " />
</g>
</svg>
