<svg xmlns="http://www.w3.org/2000/svg" xmlns:xlink="http://www.w3.org/1999/xlink" version="1.1" baseProfile="full" viewBox="0 0 200 200" width="200" height="200">
<g fill="black">
<path d="M 69.4 22.0 L 82.9 22.0 L 88.4 17.0 L 98.9 26.0 L 93.9 29.5 L 93.9 171.0 L 93.8 173.4 L 93.4 175.7 L 92.8 178.0 L 91.8 180.1 L 90.4 182.1 L 88.6 183.7 L 86.5 185.0 L 84.3 185.8 L 82.0 186.3 L 79.7 186.5 L 79.7 181.0 L 64.3 178.2 L 64.3 175.5 L 79.7 175.5 L 80.6 175.4 L 81.3 175.3 L 81.9 175.0 L 82.3 174.6 L 82.5 174.1 L 82.7 173.4 L 82.9 172.3 L 82.9 114.0 L 69.4 114.0 L 69.4 118.0 L 69.1 128.7 L 68.5 138.6 L 67.6 147.7 L 66.6 156.0 L 65.3 163.5 L 63.8 170.2 L 62.1 176.1 L 60.0 181.1 L 57.6 185.3 L 54.8 188.4 L 53.4 187.5 L 54.4 183.8 L 55.3 179.6 L 56.2 174.6 L 57.0 168.9 L 57.6 162.4 L 58.1 155.1 L 58.5 147.0 L 58.6 138.1 L 58.6 128.4 L 58.4 118.0 L 58.4 16.5 Z M 138.3 178.9 L 137.2 177.1 L 136.0 175.3 L 134.6 173.5 L 133.1 171.6 L 131.4 169.6 L 129.6 167.6 L 127.3 165.9 L 128.2 164.4 L 130.8 165.6 L 133.5 166.4 L 136.1 167.4 L 140.9 169.8 L 143.1 171.2 L 145.2 172.6 L 147.1 174.2 L 148.9 175.9 L 150.7 177.7 L 151.3 182.2 L 148.6 186.0 L 144.1 186.6 L 140.4 183.9 L 139.9 182.3 Z M 122.4 169.2 L 123.9 172.4 L 119.4 172.4 L 118.5 173.3 L 116.3 175.2 L 114.0 177.1 L 111.6 178.8 L 109.0 180.5 L 106.3 182.0 L 103.4 183.5 L 100.4 184.7 L 97.4 186.3 L 96.4 184.8 L 98.9 182.7 L 101.0 180.2 L 102.9 177.9 L 104.7 175.6 L 106.4 173.4 L 107.9 171.2 L 109.2 169.1 L 110.3 167.0 L 111.3 164.9 L 111.71666669845581 163.85833330154418 L 111.6 163.8 L 112.0375 163.05625 L 112.1 162.9 L 112.12162952423095 162.91322975158693 L 112.6 162.1 Z M 172.2 178.9 L 167.5 172.0 L 162.8 162.3 L 158.3 149.2 L 154.3 132.4 L 150.8 111.2 L 150.13214282989503 104.2542857170105 L 146.2 107.4 L 146.2 159.5 L 134.2 165.5 L 134.2 159.5 L 112.6 159.5 L 101.6 165.0 L 101.6 93.9 L 112.6 99.4 L 134.2 99.4 L 140.2 94.4 L 149.95180263519288 102.37874765396118 L 148.3 85.2 L 146.90447282791138 54.0 L 97.0 54.0 L 97.0 50.0 L 146.9 50.0 L 146.9 16.8 L 146.93028011322022 16.800757026672365 L 147.0 14.5 L 158.9 17.1 L 161.9 19.1 L 158.9 20.805882358551024 L 158.9 50.0 L 168.4181818008423 50.0 L 175.0375 42.71875 L 171.3 42.8 L 168.0 39.6 L 167.7 38.1 L 167.4 36.5 L 167.0 35.0 L 166.5 33.3 L 165.8 31.7 L 165.1 30.0 L 164.3 28.3 L 162.3 24.7 L 160.8 23.3 L 161.9 21.8 L 163.7 23.0 L 167.7 24.8 L 169.6 25.9 L 171.4 27.1 L 173.1 28.5 L 174.7 29.9 L 176.2 31.4 L 177.6 33.0 L 178.9 34.8 L 179.0 39.3 L 177.06688203811646 41.42019386291504 L 186.6 50.0 L 186.6 54.0 L 158.91368074417113 54.0 L 160.3 84.4 L 162.7 109.7 L 166.0 130.0 L 169.8 145.9 L 173.9 157.7 L 177.9 166.0 L 179.08009872436523 167.71957235336305 L 183.4 149.0 L 185.4 149.0 L 183.54159784317017 173.15922861099244 L 184.0 173.6 L 184.8 174.1 L 188.5 176.9 L 189.2 181.4 L 186.4 185.0 L 181.9 185.8 L 177.0 183.4 Z M 112.6 140.0 L 112.6 155.5 L 134.2 155.5 L 134.2 140.0 Z M 25.5 42.0 L 38.7 42.0 L 43.7 37.0 L 53.7 46.0 L 48.7 49.0 L 48.7 140.0 L 38.7 145.0 L 38.7 134.0 L 25.5 134.0 L 25.5 146.0 L 14.5 151.5 L 14.5 36.5 Z M 112.6 121.7 L 112.6 136.0 L 134.2 136.0 L 134.2 121.7 Z M 25.5 46.0 L 25.5 130.0 L 38.7 130.0 L 38.7 46.0 Z M 112.6 103.4 L 112.6 117.7 L 134.2 117.7 L 134.2 103.4 Z M 69.4 69.0 L 69.4 110.0 L 82.9 110.0 L 82.9 69.0 Z M 148.1 82.0 L 148.1 86.0 L 100.3 86.0 L 100.3 82.0 L 129.9181818008423 82.0 L 138.1 73.0 Z M 139.9 66.0 L 139.9 70.0 L 107.3 70.0 L 107.3 66.0 L 125.6777777671814 66.0 L 131.9 59.0 Z M 69.4 26.0 L 69.4 65.0 L 82.9 65.0 L 82.9 26.0 Z " />
</g>
</svg>
