<svg xmlns="http://www.w3.org/2000/svg" xmlns:xlink="http://www.w3.org/1999/xlink" version="1.1" baseProfile="full" viewBox="0 0 200 200" width="200" height="200">
<g fill="black">
<path d="M 44.2 97.7 L 156.7 97.7 L 162.7 92.7 L 173.7 101.7 L 168.7 105.7 L 168.7 179.6 L 156.7 185.6 L 156.7 175.6 L 44.2 175.6 L 44.2 182.6 L 32.2 188.6 L 32.2 91.7 Z M 44.2 101.7 L 44.2 171.6 L 156.7 171.6 L 156.7 101.7 Z M 80.3 118.4 L 119.6 118.4 L 125.6 113.4 L 136.6 122.4 L 131.6 126.4 L 131.6 154.6 L 119.6 160.6 L 119.6 152.6 L 80.3 152.6 L 80.3 155.6 L 68.3 161.6 L 68.3 112.4 Z M 80.3 122.4 L 80.3 148.6 L 119.6 148.6 L 119.6 122.4 Z M 15.0 78.4 L 94.0 78.4 L 94.0 49.8 L 106.0 51.8 L 109.0 53.8 L 106.0 55.6 L 106.0 78.4 L 163.0 78.4 L 173.0 68.4 L 185.0 78.4 L 185.0 82.4 L 15.0 82.4 Z M 13.4 71.5 L 12.7 67.0 L 15.3 63.3 L 17.3 62.2 L 19.3 60.8 L 21.1 58.9 L 22.9 56.5 L 24.5 53.5 L 26.0 50.0 L 27.3 45.9 L 28.4 41.4 L 29.5 36.3 L 30.1 30.6 L 31.9 30.6 L 32.6 36.3 L 32.93333330154419 39.9 L 94.0 39.9 L 94.0 11.8 L 106.0 13.8 L 109.0 15.8 L 106.0 17.6 L 106.0 39.9 L 170.0 39.9 L 170.55813951492308 39.43488368988037 L 170.8 38.8 L 171.09988803863524 38.98342666625977 L 176.0 34.9 L 187.0 43.9 L 182.0 46.9 L 177.97197456359862 48.57834396362305 L 177.5 49.1 L 175.5 51.2 L 173.4 53.5 L 171.0 55.8 L 168.5 58.2 L 165.8 60.8 L 162.9 63.3 L 159.7 66.0 L 156.6 68.9 L 155.3 67.7 L 157.6 64.2 L 159.6 60.6 L 161.5 57.3 L 163.2 54.1 L 164.9 51.1 L 166.4 48.3 L 167.7 45.7 L 168.56400003433228 43.9 L 33.143137264251706 43.9 L 33.2 46.8 L 32.9 51.6 L 32.2 56.0 L 31.0 60.2 L 29.4 64.1 L 27.3 67.6 L 24.7 70.8 L 21.7 73.5 L 17.1 74.2 Z " />
</g>
</svg>
