<svg xmlns="http://www.w3.org/2000/svg" xmlns:xlink="http://www.w3.org/1999/xlink" version="1.1" baseProfile="full" viewBox="0 0 200 200" width="200" height="200">
<g fill="black">
<path d="M 115.9 177.0 L 135.9 177.0 L 137.2 176.9 L 138.1 176.7 L 139.0 176.4 L 139.2 176.2 L 139.3 176.0 L 139.5 175.7 L 139.7 175.1 L 139.9 174.2 L 139.9 107.0 L 106.7 107.0 L 106.7 103.0 L 139.9 103.0 L 139.9 63.0 L 150.15396823883057 64.70899467468261 L 152.9 59.4 L 155.7 54.0 L 158.4 49.0 L 160.7 44.2 L 162.9 39.9 L 164.7 35.8 L 166.3 32.1 L 167.1029411315918 30.0 L 113.0 30.0 L 113.0 26.0 L 168.2 26.0 L 174.2 21.0 L 185.2 30.0 L 180.2 33.0 L 177.55625 34.1015625 L 175.9 37.0 L 170.9 44.5 L 168.0 48.7 L 164.8 53.0 L 161.2 57.6 L 157.3 62.4 L 153.91101694107056 66.34067792892456 L 154.9 67.0 L 151.9 68.8 L 151.9 103.0 L 166.3 103.0 L 176.3 93.0 L 188.3 103.0 L 188.3 107.0 L 151.9 107.0 L 151.9 173.0 L 151.8 175.5 L 151.3 178.0 L 150.5 180.4 L 149.3 182.7 L 147.7 184.7 L 145.7 186.3 L 143.4 187.6 L 141.0 188.4 L 138.5 188.8 L 135.9 189.0 L 135.9 183.0 L 115.9 180.0 Z M 79.7 164.5 L 75.9 161.6 L 71.5 158.9 L 67.70792150497437 156.81048736572265 L 66.0 159.3 L 59.2 166.7 L 51.6 172.9 L 43.2 177.9 L 34.0 181.7 L 24.1 184.1 L 13.5 185.2 L 13.2 183.4 L 23.1 180.4 L 32.0 176.7 L 39.9 172.2 L 47.0 166.9 L 53.2 160.8 L 58.5 153.8 L 59.0158073425293 152.91415691375732 L 55.0 151.4 L 48.4 149.1 L 41.2 146.9 L 39.11407632827759 146.28491992950438 L 36.6 153.4 L 23.3 155.1 L 35.88723402023315 119.4 L 12.5 119.4 L 12.5 115.4 L 37.29756841659546 115.4 L 46.5 89.3 L 57.2 95.1 L 59.3 98.0 L 55.90903825759888 98.75354709625245 L 50.02710123062134 115.4 L 85.0 115.4 L 95.0 105.4 L 107.0 115.4 L 107.0 119.4 L 83.75593223571778 119.4 L 80.8 130.3 L 76.8 141.0 L 72.55750560760498 149.39840717315673 L 75.6 150.5 L 81.0 153.0 L 86.0 155.8 L 90.5 159.0 L 94.5 162.6 L 96.0 166.9 L 94.1 171.0 L 89.8 172.5 L 85.6 170.6 L 82.9 167.5 Z M 48.61372213363647 119.4 L 40.25960998535156 143.0429485321045 L 41.8 143.1 L 49.5 143.9 L 56.7 145.0 L 62.835928726196286 146.35351371765137 L 63.1 145.9 L 66.9 137.0 L 69.9 127.2 L 71.49183673858643 119.4 Z M 39.0 73.2 L 38.7 70.2 L 38.2 67.1 L 37.5 64.0 L 36.8 60.8 L 35.9 57.7 L 33.9 51.1 L 32.4 47.9 L 33.9 46.9 L 36.2 49.7 L 38.7 52.3 L 40.9 55.1 L 42.9 58.1 L 44.8 61.1 L 46.4 64.3 L 47.9 67.5 L 49.2 70.9 L 50.3 74.3 L 51.2 77.7 L 50.0 82.1 L 46.2625 84.4 L 66.40909090042115 84.4 L 67.3 81.6 L 68.6 77.3 L 69.9 73.1 L 71.2 69.0 L 72.5 65.0 L 73.8 61.2 L 75.0 57.3 L 76.1 53.6 L 77.2 50.0 L 77.9463381767273 47.31318244934082 L 77.9 47.3 L 78.07234039306641 46.859574508666995 L 78.2 46.4 L 78.24554920196533 46.41692981719971 L 78.8 45.0 L 89.5 50.6 L 91.5 53.6 L 87.60578508377075 54.2831955909729 L 85.9 57.6 L 84.0 61.2 L 82.0 64.8 L 79.9 68.4 L 77.7 72.0 L 75.4 75.7 L 72.9 79.4 L 69.25135135650635 84.4 L 85.0 84.4 L 95.0 74.4 L 107.0 84.4 L 107.0 88.4 L 13.3 88.4 L 13.3 84.4 L 45.73333330154419 84.4 L 41.7 83.3 L 39.4 79.4 L 39.3 76.3 Z M 19.5 39.8 L 53.7 39.8 L 53.7 13.6 L 65.7 15.6 L 68.7 17.6 L 65.7 19.4 L 65.7 39.8 L 79.7 39.8 L 89.7 29.8 L 101.7 39.8 L 101.7 43.8 L 19.5 43.8 Z " />
</g>
</svg>
