<svg xmlns="http://www.w3.org/2000/svg" xmlns:xlink="http://www.w3.org/1999/xlink" version="1.1" baseProfile="full" viewBox="0 0 200 200" width="200" height="200">
<g fill="black">
<path d="M 165.0 158.6 L 159.7 151.5 L 154.7 144.1 L 150.2 136.4 L 145.9 128.4 L 142.1 120.1 L 138.6 111.5 L 136.7 105.8 L 136.7 183.0 L 124.7 189.0 L 124.7 116.06470584869385 L 120.8 123.1 L 115.5 131.9 L 109.8 140.3 L 103.8 148.2 L 97.6 155.6 L 91.0 162.5 L 84.0 168.9 L 76.7 174.6 L 75.4 173.3 L 81.3 166.2 L 86.9 159.0 L 92.4 151.5 L 97.7 143.7 L 102.7 135.6 L 107.5 127.2 L 112.0 118.4 L 116.2 109.2 L 120.3 99.7 L 122.37272729873658 94.0 L 77.1 94.0 L 77.1 90.0 L 124.7 90.0 L 124.7 13.0 L 136.7 15.0 L 139.7 17.0 L 136.7 18.8 L 136.7 90.0 L 165.4 90.0 L 175.4 80.0 L 187.4 90.0 L 187.4 94.0 L 136.7 94.0 L 136.7 95.73555555343628 L 139.5 100.9 L 144.0 109.0 L 148.5 116.8 L 153.2 124.3 L 158.0 131.4 L 163.1 138.2 L 168.4 144.7 L 173.9 150.9 L 179.6 156.7 L 185.6 162.2 L 187.3 163.7 L 176.5 171.7 L 170.6 165.3 Z M 65.3 151.3 L 61.6 146.8 L 57.6 142.4 L 56.9671233177185 141.81027393341066 L 50.7 153.3 L 43.1 164.0 L 34.7 173.1 L 25.4 180.8 L 15.4 186.7 L 14.4 185.2 L 23.0 177.8 L 30.8 169.5 L 37.8 160.1 L 44.1 149.5 L 49.6 137.7 L 50.32054042816162 135.73352518081666 L 48.6 134.2 L 43.6 130.4 L 38.2 126.6 L 32.6 122.9 L 29.763333797454834 121.12107372283936 L 28.7 125.1 L 25.3 136.6 L 13.8 133.3 L 17.1 121.9 L 20.3 110.4 L 23.3 98.9 L 26.1 87.3 L 28.9 75.6 L 31.5 63.8 L 31.881355953216552 62.0 L 13.0 62.0 L 13.0 58.0 L 32.728813552856444 58.0 L 34.0 52.0 L 36.3 40.1 L 38.5 28.0 L 40.6 16.0 L 40.623617839813235 16.003770923614503 L 40.9 14.0 L 52.5 17.9 L 55.1 20.4 L 51.85791006088257 21.660812759399413 L 50.4 30.2 L 48.1 42.3 L 45.7 54.4 L 44.95 58.0 L 65.9 58.0 L 71.9 53.0 L 82.9 62.0 L 77.9 65.0 L 77.2932583808899 65.25280895233155 L 75.5 79.3 L 72.2 96.8 L 68.1 112.9 L 63.2 127.7 L 60.76662435531616 133.267893409729 L 63.8 135.5 L 68.8 139.7 L 73.4 144.2 L 77.8 149.0 L 81.8 154.1 L 82.6 158.6 L 80.2 162.4 L 75.7 163.3 L 71.8 160.8 L 68.7 155.9 Z M 44.11666669845581 62.0 L 43.2 66.4 L 40.6 78.3 L 37.8 90.1 L 34.9 101.9 L 30.491558456420897 118.39610385894775 L 34.3 119.5 L 40.8 121.9 L 47.0 124.8 L 52.9 128.0 L 53.1057370185852 128.1322594642639 L 54.4 124.6 L 58.4 110.3 L 61.7 94.7 L 64.2 77.7 L 65.74426231384277 62.0 Z M 177.8 31.2 L 179.8 34.2 L 176.04074077606202 34.718518543243405 L 175.4 36.0 L 172.9 40.8 L 170.3 45.7 L 167.6 50.6 L 164.8 55.5 L 161.9 60.5 L 158.8 65.5 L 155.5 70.5 L 152.0 75.5 L 148.2 80.4 L 146.7 79.5 L 148.7 73.7 L 150.8 68.0 L 152.9 62.5 L 155.1 57.1 L 157.2 51.8 L 159.2 46.6 L 161.2 41.5 L 163.1 36.4 L 165.0 31.5 L 166.35408372879027 27.51740083694458 L 166.3 27.5 L 166.5380952835083 26.97619047164917 L 166.7 26.5 L 166.74574174880982 26.519368171691895 L 167.3 25.3 Z M 100.2 64.2 L 99.1 59.6 L 97.8 55.1 L 96.3 50.6 L 94.7 46.2 L 93.0 41.8 L 89.4 32.8 L 87.4 28.3 L 88.9 27.3 L 92.5 30.8 L 95.7 34.7 L 98.7 38.7 L 101.5 42.9 L 104.0 47.2 L 106.3 51.7 L 108.5 56.3 L 110.4 60.9 L 112.2 65.8 L 113.8 70.7 L 113.0 75.2 L 109.3 77.9 L 104.8 77.1 L 102.1 73.4 L 101.2 68.7 Z " />
</g>
</svg>
