<svg xmlns="http://www.w3.org/2000/svg" xmlns:xlink="http://www.w3.org/1999/xlink" version="1.1" baseProfile="full" viewBox="0 0 200 200" width="200" height="200">
<g fill="black">
<path d="M 139.8 183.6 L 124.7 180.4 L 111.2 176.5 L 100.09855852127075 172.2796173095703 L 93.2 174.9 L 79.5 179.1 L 65.0 182.5 L 49.8 185.1 L 33.8 186.8 L 17.0 187.6 L 16.9 185.8 L 33.3 183.0 L 48.8 179.8 L 63.5 176.1 L 77.3 171.8 L 89.63230333328247 167.21123600006104 L 88.6 166.7 L 79.7 160.9 L 72.4 154.4 L 67.0 147.3 L 63.90909090042114 140.3 L 42.0 140.3 L 42.0 136.3 L 139.22307691574096 136.3 L 141.9 133.9 L 142.32540197372435 134.36216506958007 L 146.0 131.3 L 157.0 140.3 L 152.0 143.3 L 146.4875789642334 145.5968420982361 L 140.3 150.7 L 129.7 157.9 L 118.3 164.3 L 113.65583639144897 166.46981410980226 L 114.1 166.6 L 127.1 169.6 L 141.7 172.0 L 157.8 173.9 L 175.5 175.3 L 186.3 176.1 L 174.4 188.4 L 156.4 186.3 Z M 66.49661016464233 140.3 L 70.3 144.7 L 76.4 150.1 L 83.7 154.9 L 92.4 159.3 L 100.47066745758056 162.4163963317871 L 102.3 161.6 L 113.4 155.5 L 123.8 148.9 L 133.2 141.7 L 134.7615385055542 140.3 Z M 93.0 118.1 L 113.0 118.1 L 114.2 118.0 L 115.1 117.9 L 115.7 117.7 L 116.0 117.5 L 116.2 117.4 L 116.4 117.2 L 116.5 116.8 L 116.7 116.3 L 116.9 115.3 L 117.0 114.1 L 117.0 83.6 L 91.7906976699829 83.6 L 91.1 90.2 L 89.1 98.2 L 85.9 105.6 L 81.6 112.4 L 76.3 118.4 L 70.0 123.6 L 62.7 128.2 L 54.5 132.0 L 45.3 135.0 L 35.2 137.2 L 34.7 135.5 L 44.0 131.4 L 52.1 127.1 L 59.2 122.6 L 65.2 117.7 L 70.1 112.6 L 73.9 107.1 L 76.8 101.4 L 78.8 95.2 L 79.8 88.7 L 79.94366197586059 83.6 L 16.0 83.6 L 16.0 79.6 L 94.0 79.6 L 94.0 59.0 L 106.0 61.0 L 109.0 63.0 L 106.0 64.8 L 106.0 79.6 L 162.0 79.6 L 172.0 69.6 L 184.0 79.6 L 184.0 83.6 L 129.0 83.6 L 129.0 114.1 L 128.8 116.7 L 128.4 119.2 L 127.6 121.6 L 126.3 123.8 L 124.7 125.9 L 122.7 127.5 L 120.4 128.7 L 118.0 129.5 L 115.5 130.0 L 113.0 130.1 L 113.0 124.1 L 93.0 121.1 Z M 57.1 96.4 L 59.0 99.5 L 55.10756664276123 99.96977643966675 L 54.7 100.7 L 51.9 104.7 L 48.7 108.6 L 45.1 112.2 L 41.2 115.5 L 37.0 118.7 L 32.4 121.6 L 27.4 124.2 L 22.1 126.5 L 16.4 128.5 L 15.5 126.9 L 20.2 123.3 L 24.6 119.8 L 28.6 116.3 L 32.2 112.9 L 35.5 109.4 L 38.3 105.9 L 40.8 102.4 L 42.9 98.9 L 44.6 95.3 L 45.64430646896362 92.61464042663575 L 45.6 92.6 L 45.946153831481936 91.8384614944458 L 46.0 91.7 L 46.00762367248535 91.70322799682617 L 46.6 90.4 Z M 165.9 118.0 L 163.4 114.8 L 160.6 111.7 L 157.7 108.7 L 154.5 105.7 L 151.0 102.7 L 147.4 99.7 L 143.5 96.7 L 139.5 93.7 L 140.2 92.1 L 145.2 93.6 L 149.9 95.4 L 154.4 97.4 L 158.7 99.7 L 162.8 102.2 L 166.7 104.9 L 170.3 107.8 L 173.8 110.8 L 177.0 114.0 L 180.1 117.4 L 181.1 121.9 L 178.7 125.8 L 174.2 126.8 L 170.3 124.5 L 168.2 121.2 Z M 44.0 58.3 L 32.0 64.3 L 32.0 21.7 L 44.0 23.7 L 47.0 25.7 L 44.0 27.5 L 44.0 47.3 L 94.0 47.3 L 94.0 12.1 L 106.0 14.1 L 109.0 16.1 L 106.0 17.9 L 106.0 47.3 L 155.0 47.3 L 155.0 21.7 L 167.0 23.7 L 170.0 25.7 L 167.0 27.5 L 167.0 55.3 L 155.0 61.3 L 155.0 51.3 L 44.0 51.3 Z " />
</g>
</svg>
