<svg xmlns="http://www.w3.org/2000/svg" xmlns:xlink="http://www.w3.org/1999/xlink" version="1.1" baseProfile="full" viewBox="0 0 200 200" width="200" height="200">
<g fill="black">
<path d="M 31.0 177.0 L 47.0 177.0 L 48.2 176.9 L 49.1 176.7 L 50.0 176.4 L 50.4 176.0 L 50.7 175.1 L 50.9 174.2 L 51.0 173.0 L 51.0 111.0 L 16.1 111.0 L 16.1 107.0 L 51.0 107.0 L 51.0 76.0 L 32.3 76.0 L 32.3 72.0 L 66.3 72.0 L 76.3 62.0 L 88.3 72.0 L 88.3 76.0 L 63.0 76.0 L 63.0 107.0 L 71.1 107.0 L 81.1 97.0 L 93.1 107.0 L 93.1 111.0 L 63.0 111.0 L 63.0 173.0 L 62.8 175.5 L 62.4 178.0 L 61.6 180.4 L 60.3 182.7 L 58.7 184.7 L 56.7 186.3 L 54.4 187.6 L 52.0 188.4 L 49.5 188.8 L 47.0 189.0 L 47.0 183.0 L 31.0 180.0 Z M 116.7 110.5 L 115.7 124.0 L 114.1 136.4 L 111.6 147.5 L 108.5 157.5 L 104.6 166.3 L 99.8 173.8 L 94.4 180.0 L 88.2 184.7 L 81.4 187.8 L 80.5 186.1 L 85.9 181.7 L 90.4 176.4 L 94.3 170.3 L 97.7 163.1 L 100.4 154.9 L 102.6 145.5 L 104.1 134.9 L 105.0 123.2 L 105.3 110.2 L 105.0 96.1 L 105.0655647277832 96.09834709167481 L 105.0 96.0 L 105.0 18.0 L 117.0 20.0 L 120.0 22.0 L 117.0 23.8 L 117.0 96.0 L 116.89513893127442 96.15729169845581 Z M 182.0 20.0 L 185.0 22.0 L 182.0 23.8 L 182.0 177.0 L 170.0 183.0 L 170.0 18.0 Z M 42.6 127.4 L 45.0 130.0 L 41.391917610168456 131.0953106880188 L 40.9 132.6 L 39.0 137.7 L 37.0 142.6 L 34.8 147.3 L 32.5 151.9 L 30.0 156.3 L 27.3 160.4 L 24.4 164.4 L 21.2 168.1 L 17.8 171.5 L 16.3 170.4 L 18.1 166.1 L 19.8 161.7 L 21.5 157.4 L 23.2 153.0 L 24.8 148.5 L 26.2 143.9 L 27.6 139.2 L 28.8 134.4 L 29.9 129.5 L 30.9 124.5 L 30.955681133270264 124.51380128860474 L 31.4 122.8 Z M 79.6 150.4 L 78.4 146.4 L 77.1 142.6 L 75.7 138.8 L 74.2 135.2 L 72.6 131.6 L 70.9 128.1 L 69.3 124.6 L 67.4 121.3 L 68.7 120.1 L 71.8 122.6 L 74.8 125.3 L 77.6 128.3 L 80.3 131.6 L 82.8 135.0 L 85.1 138.7 L 87.4 142.6 L 89.4 146.6 L 91.4 150.9 L 93.2 155.3 L 92.7 159.9 L 89.2 162.8 L 84.6 162.3 L 81.7 158.8 L 80.7 154.6 Z M 149.0 29.0 L 152.0 31.0 L 149.0 32.8 L 149.0 153.0 L 137.0 159.0 L 137.0 27.0 Z M 78.3 51.6 L 75.9 48.2 L 73.1 44.9 L 70.2 41.6 L 67.0 38.3 L 63.5 35.1 L 59.8 31.8 L 56.939999961853026 29.380000019073485 L 54.0 35.4 L 49.7 43.6 L 45.1 51.7 L 40.4 59.5 L 35.4 67.1 L 30.2 74.4 L 24.8 81.5 L 19.1 88.2 L 13.0 94.5 L 11.6 93.4 L 20.4 78.4 L 24.7 70.9 L 28.9 63.2 L 33.0 55.3 L 36.9 47.3 L 40.7 39.2 L 44.3 30.9 L 47.7 22.3 L 50.61854839324951 14.605645179748535 L 50.6 14.6 L 51.5 12.3 L 62.1 18.1 L 64.2 21.1 L 60.497635746002196 21.67450475692749 L 58.64586772918701 25.805371856689455 L 62.6 27.5 L 67.2 29.9 L 71.5 32.5 L 75.7 35.3 L 79.6 38.3 L 83.2 41.5 L 86.6 44.9 L 89.8 48.5 L 92.7 52.2 L 93.4 56.7 L 90.9 60.5 L 86.3 61.2 L 82.6 58.6 L 80.6 55.1 Z " />
</g>
</svg>
