<svg xmlns="http://www.w3.org/2000/svg" xmlns:xlink="http://www.w3.org/1999/xlink" version="1.1" baseProfile="full" viewBox="0 0 200 200" width="200" height="200">
<g fill="black">
<path d="M 136.0 166.9 L 151.2 166.9 L 152.1 166.7 L 152.7 166.5 L 153.0 166.3 L 153.2 166.2 L 153.4 166.0 L 153.7 165.1 L 153.9 164.2 L 154.0 162.9 L 154.0 134.4 L 106.0 134.4 L 106.0 182.5 L 94.0 188.5 L 94.0 134.4 L 48.0 134.4 L 48.0 174.8 L 36.0 180.8 L 36.0 124.4 L 48.0 130.4 L 94.0 130.4 L 94.0 114.0 L 106.0 116.0 L 109.0 118.0 L 106.0 119.8 L 106.0 130.4 L 154.0 130.4 L 160.0 125.4 L 171.0 134.4 L 166.0 138.4 L 166.0 162.9 L 165.8 165.5 L 165.4 168.0 L 164.6 170.4 L 163.3 172.7 L 161.7 174.7 L 159.7 176.3 L 157.4 177.5 L 155.0 178.4 L 152.5 178.8 L 150.0 178.9 L 150.0 172.9 L 136.0 169.9 Z M 171.3 109.6 L 165.3 106.7 L 158.8 102.1 L 152.2 95.7 L 145.9 87.2 L 140.4 76.3 L 136.0 62.8 L 135.4306748390198 59.6 L 107.5 59.6 L 107.5 96.52352943420411 L 111.6 95.8 L 116.7 94.8 L 122.0 93.7 L 127.5 92.6 L 133.0 91.7 L 138.8 90.8 L 139.4 92.5 L 134.2 95.3 L 129.1 97.8 L 124.0 100.0 L 118.9 102.0 L 113.8 103.9 L 108.8 105.7 L 103.9 107.4 L 99.0 108.9 L 94.2 110.3 L 93.60536098480225 110.46447458267212 L 92.1 114.2 L 89.5 111.6 L 85.2 100.3 L 87.1 99.9 L 91.8 99.2 L 95.5 98.58333330154419 L 95.5 26.9 L 106.66536312103271 28.76089382171631 L 107.9 28.4 L 114.4 26.6 L 120.8 24.9 L 127.2 23.3 L 133.5 21.7 L 145.9 18.3 L 152.0 16.6 L 158.0 14.8 L 163.0052631378174 13.214999961853028 L 163.0 13.2 L 163.0146041870117 13.212042045593261 L 164.0 12.9 L 164.36565885543823 14.326069641113282 L 174.4 22.6 L 174.7 25.7 L 170.37234592437744 23.68855514526367 L 167.0 24.6 L 160.8 25.8 L 154.4 27.0 L 148.0 28.1 L 145.9341772079468 28.42278480529785 L 147.1 29.2 L 144.28446598052977 30.889320373535156 L 145.0 45.2 L 146.83945579528807 55.6 L 160.7 55.6 L 170.7 45.6 L 182.7 55.6 L 182.7 59.6 L 147.54693880081177 59.6 L 147.6 59.9 L 151.5 71.7 L 156.1 80.9 L 161.2 87.8 L 166.4 92.9 L 171.4 96.3 L 175.3310344696045 98.26551723480225 L 180.7 75.0 L 182.7 75.0 L 180.782071685791 99.93306770324708 L 181.1 100.0 L 185.2 102.1 L 186.7 106.4 L 184.5 110.5 L 180.2 111.9 L 176.3 111.3 Z M 74.6 66.2 L 73.8537974357605 64.62468357086182 L 72.0 65.2 L 66.1 66.8 L 60.1 68.2 L 57.4 68.73114757537842 L 57.4 106.3 L 45.4 112.3 L 45.4 70.99682540893555 L 41.6 71.6 L 35.4 72.6 L 29.0 73.4 L 22.6 74.3 L 20.21007022857666 74.55737705230713 L 18.3 77.9 L 16.1 75.0 L 13.3 63.2 L 15.3 63.0 L 21.7 62.9 L 32.73701581954956 62.55509328842163 L 33.1 62.2 L 37.8 57.8 L 42.4 53.5 L 47.0 49.3 L 51.5 45.2 L 60.3 37.0 L 64.6 32.8 L 68.8 28.7 L 72.15204677581787 25.347953224182127 L 72.1 25.3 L 73.1 24.4 L 81.0 33.5 L 81.5 37.1 L 77.8993166923523 36.0069354057312 L 76.3 37.3 L 71.6 41.0 L 66.8 44.6 L 56.8 51.8 L 51.7 55.3 L 46.4 58.8 L 41.0 62.1 L 40.634917163848876 62.30209941864014 L 40.7 62.3 L 47.0 62.1 L 53.2 61.9 L 65.4 61.5 L 71.5 61.5 L 71.92058563232422 61.50700979232788 L 71.3 60.6 L 69.8 58.7 L 68.1 56.8 L 64.0 52.7 L 61.4 51.1 L 62.2 49.5 L 65.1 50.6 L 68.1 51.4 L 71.0 52.4 L 73.7 53.7 L 76.2 55.0 L 78.6 56.5 L 80.8 58.2 L 82.8 60.1 L 84.7 62.1 L 86.4 64.3 L 86.7 68.8 L 83.8 72.3 L 79.2 72.6 L 75.7 69.7 L 75.2 67.9 Z M 37.9 79.0 L 40.4 81.6 L 36.364084529876706 82.9942253112793 L 35.2 85.4 L 33.4 88.5 L 31.3 91.4 L 29.0 94.2 L 26.5 96.9 L 23.6 99.5 L 20.5 101.9 L 17.1 104.2 L 13.7 106.6 L 12.5 105.3 L 15.2 102.2 L 17.4 98.9 L 19.4 95.8 L 21.1 92.8 L 22.6 89.9 L 23.8 87.0 L 24.7 84.3 L 25.5 81.6 L 25.9 79.1 L 26.026732635498046 77.51584157943725 L 25.9 77.5 L 26.5 74.7 Z M 74.0 91.2 L 73.2 89.2 L 72.3 87.3 L 71.2 85.3 L 69.8 83.3 L 68.3 81.2 L 66.5 79.2 L 64.6 77.0 L 62.2 75.3 L 63.0 73.7 L 65.8 75.0 L 68.7 75.9 L 71.5 77.1 L 74.0 78.5 L 76.4 80.1 L 78.7 81.8 L 80.8 83.7 L 82.7 85.8 L 84.5 88.0 L 86.1 90.5 L 86.0 95.0 L 82.8 98.3 L 78.2 98.2 L 74.9 95.0 L 74.5 93.1 Z M 128.5 30.8 L 121.9 31.4 L 115.2 31.9 L 108.5 32.1 L 107.5 32.7 L 107.5 55.6 L 134.71901836395264 55.6 L 133.1 46.5 L 132.26289596557618 30.343891429901124 Z M 32.0 46.8 L 30.7 45.1 L 29.2 43.4 L 27.3 41.7 L 25.2 39.9 L 22.8 38.1 L 20.1 36.3 L 17.1 34.4 L 13.8 32.9 L 14.3 31.1 L 18.0 32.0 L 21.6 32.5 L 25.0 33.3 L 28.2 34.2 L 31.1 35.2 L 31.7 34.6 L 33.8 31.9 L 35.9 29.3 L 40.1 24.3 L 42.1 21.9 L 47.8 14.7 L 48.92981958389282 13.104960536956787 L 48.8 13.0 L 49.8 12.0 L 58.2 20.6 L 58.9 24.2 L 54.89050941467285 23.21521282196045 L 53.2 24.5 L 50.6 26.4 L 47.9 28.3 L 45.2 30.1 L 42.3 31.9 L 39.5 33.6 L 36.5 35.2 L 33.96014852523804 36.42896041870117 L 36.6 37.7 L 39.0 39.2 L 41.2 40.9 L 43.3 42.8 L 44.3 47.3 L 42.0 51.2 L 37.5 52.2 L 33.6 49.8 L 32.9 48.4 Z " />
</g>
</svg>
