<svg xmlns="http://www.w3.org/2000/svg" xmlns:xlink="http://www.w3.org/1999/xlink" version="1.1" baseProfile="full" viewBox="0 0 200 200" width="200" height="200">
<g fill="black">
<path d="M 75.5 176.9 L 125.0 176.9 L 125.0 162.5 L 87.4 162.5 L 87.4 158.5 L 125.0 158.5 L 125.0 141.1 L 100.7 141.1 L 100.7 144.1 L 88.7 150.1 L 88.7 92.1 L 100.7 98.1 L 125.0 98.1 L 125.0 85.3 L 76.8 85.3 L 76.8 81.3 L 125.0 81.3 L 125.0 70.8061728477478 L 120.0 71.3 L 111.7 72.0 L 103.2 72.5 L 94.5 72.7 L 85.5 72.7 L 85.3 70.9 L 94.1 68.9 L 102.6 67.1 L 110.9 65.5 L 118.9 63.8 L 126.7 62.1 L 134.3 60.4 L 141.6 58.7 L 148.7 56.9 L 155.6 55.1 L 161.2273684501648 53.480000019073486 L 161.2 53.4 L 161.2782772064209 53.46534442901611 L 162.2 53.2 L 162.52692308425904 54.50769233703613 L 172.7 63.0 L 173.0 66.0 L 168.70911445617676 63.945209693908694 L 165.1 64.8 L 158.1 66.2 L 150.9 67.4 L 143.5 68.5 L 137.0 69.44078950881958 L 137.0 81.3 L 162.4 81.3 L 172.4 71.3 L 184.4 81.3 L 184.4 85.3 L 137.0 85.3 L 137.0 98.1 L 161.3 98.1 L 167.3 93.1 L 178.3 102.1 L 173.3 106.1 L 173.3 143.1 L 161.3 149.1 L 161.3 141.1 L 137.0 141.1 L 137.0 158.5 L 159.01818180084229 158.5 L 167.2 149.5 L 177.2 158.5 L 177.2 162.5 L 137.0 162.5 L 137.0 176.9 L 163.7 176.9 L 173.7 166.9 L 185.7 176.9 L 185.7 180.9 L 75.5 180.9 Z M 49.2 183.0 L 37.2 189.0 L 37.2 54.0 L 25.2 54.0 L 25.2 147.0 L 13.2 153.0 L 13.2 44.0 L 25.2 50.0 L 37.2 50.0 L 37.2 13.0 L 49.2 15.0 L 52.2 17.0 L 49.2 18.8 L 49.2 50.0 L 61.2 50.0 L 67.2 45.0 L 78.2 54.0 L 73.2 58.0 L 73.2 136.0 L 73.0 138.5 L 72.6 141.0 L 71.8 143.4 L 70.5 145.7 L 68.9 147.7 L 66.9 149.3 L 64.6 150.6 L 62.2 151.4 L 59.7 151.8 L 57.2 152.0 L 57.2 146.0 L 49.2 143.0 Z M 100.7 122.0 L 100.7 137.1 L 125.0 137.1 L 125.0 122.0 Z M 137.0 122.0 L 137.0 137.1 L 161.3 137.1 L 161.3 122.0 Z M 100.7 102.1 L 100.7 118.0 L 125.0 118.0 L 125.0 102.1 Z M 137.0 102.1 L 137.0 118.0 L 161.3 118.0 L 161.3 102.1 Z M 155.4 15.5 L 158.4 17.5 L 155.4 19.3 L 155.4 31.6 L 166.4 31.6 L 176.4 21.6 L 188.4 31.6 L 188.4 35.6 L 155.4 35.6 L 155.4 49.0 L 143.4 55.0 L 143.4 35.6 L 118.5 35.6 L 118.5 49.0 L 106.5 55.0 L 106.5 35.6 L 73.5 35.6 L 73.5 31.6 L 106.5 31.6 L 106.5 13.5 L 118.5 15.5 L 121.5 17.5 L 118.5 19.3 L 118.5 31.6 L 143.4 31.6 L 143.4 13.5 Z M 57.2 140.0 L 58.4 139.9 L 59.3 139.7 L 60.2 139.4 L 60.6 139.0 L 60.9 138.1 L 61.1 137.2 L 61.2 136.0 L 61.2 54.0 L 49.2 54.0 L 49.2 140.0 Z " />
</g>
</svg>
