<svg xmlns="http://www.w3.org/2000/svg" xmlns:xlink="http://www.w3.org/1999/xlink" version="1.1" baseProfile="full" viewBox="0 0 200 200" width="200" height="200">
<g fill="black">
<path d="M 157.0 186.4 L 148.2 184.2 L 139.9 181.5 L 132.2 178.4 L 125.2 174.9 L 118.7 171.0 L 113.0 166.6 L 108.0 161.7 L 104.5185185432434 157.0 L 97.80123453140259 157.0 L 96.1 159.6 L 89.1 166.6 L 80.4 172.5 L 70.2 177.4 L 58.3 181.5 L 44.9 184.6 L 29.8 186.7 L 13.0 187.9 L 12.9 186.1 L 29.2 183.0 L 43.7 179.3 L 56.3 175.2 L 67.1 170.5 L 76.0 165.3 L 82.9 159.6 L 85.11639347076417 157.0 L 17.0 157.0 L 17.0 153.0 L 88.3734375 153.0 L 91.6 147.1 L 93.5 140.2 L 93.61842107772827 138.4 L 32.0 138.4 L 32.0 134.4 L 93.88157892227173 134.4 L 94.0 132.6 L 94.0 119.4 L 106.0 121.4 L 109.0 123.4 L 106.0 125.2 L 106.0 132.6 L 105.76363639831543 134.4 L 149.8181818008423 134.4 L 158.0 125.4 L 168.0 134.4 L 168.0 138.4 L 105.23838386535644 138.4 L 104.7 142.5 L 101.4 151.5 L 100.41851854324341 153.0 L 161.0 153.0 L 171.0 143.0 L 183.0 153.0 L 183.0 157.0 L 108.31764707565307 157.0 L 110.7 158.5 L 116.4 161.7 L 122.3 164.7 L 128.7 167.3 L 135.5 169.7 L 142.9 171.7 L 150.7 173.4 L 159.1 174.8 L 168.1 175.9 L 177.5 176.6 L 188.2 177.5 L 176.4 189.7 L 166.4 188.3 Z M 48.6 120.0 L 36.6 126.0 L 36.6 83.0 L 48.6 89.0 L 152.3 89.0 L 158.3 84.0 L 169.3 93.0 L 164.3 97.0 L 164.3 119.0 L 152.3 125.0 L 152.3 117.0 L 48.6 117.0 Z M 48.6 93.0 L 48.6 113.0 L 74.9 113.0 L 74.9 93.0 Z M 86.9 93.0 L 86.9 113.0 L 114.0 113.0 L 114.0 93.0 Z M 126.0 93.0 L 126.0 113.0 L 152.3 113.0 L 152.3 93.0 Z M 17.4 76.5 L 94.5 76.5 L 94.5 62.2 L 45.4 62.2 L 45.4 58.2 L 94.5 58.2 L 94.5 43.8 L 39.6 43.8 L 39.6 39.8 L 143.11818180084228 39.8 L 151.3 30.8 L 161.3 39.8 L 161.3 43.8 L 106.5 43.8 L 106.5 58.2 L 137.3181818008423 58.2 L 145.5 49.2 L 155.5 58.2 L 155.5 62.2 L 106.5 62.2 L 106.5 76.5 L 165.3181818008423 76.5 L 173.5 67.5 L 183.5 76.5 L 183.5 80.5 L 17.4 80.5 Z M 15.0 43.3 L 15.3 38.8 L 18.6 35.7 L 20.6 35.3 L 22.4 34.8 L 24.0 34.1 L 25.5 33.2 L 27.0 32.0 L 28.3 30.5 L 29.5 28.7 L 30.6 26.4 L 31.6 23.7 L 31.8 20.7 L 33.6 20.6 L 33.9 23.8 L 34.0290322303772 24.6 L 95.0 24.6 L 95.0 9.2 L 107.0 11.2 L 110.0 13.2 L 107.0 15.0 L 107.0 24.6 L 170.2 24.6 L 171.1 23.85 L 171.1 23.5 L 171.342857170105 23.64761905670166 L 176.2 19.6 L 187.2 28.6 L 182.2 31.6 L 172.620339012146 35.59152545928955 L 171.9 36.1 L 169.9 37.4 L 167.8 38.7 L 166.0 40.6 L 164.6 39.4 L 166.2 37.4 L 167.2 35.1 L 168.2 33.0 L 169.0 31.1 L 169.7 29.4 L 170.0 28.6 L 34.45666666030884 28.6 L 34.5 29.9 L 34.1 32.9 L 33.3 35.7 L 32.0 38.5 L 30.3 41.0 L 28.1 43.3 L 25.5 45.3 L 22.6 47.0 L 18.0 46.7 Z " />
</g>
</svg>
