<svg xmlns="http://www.w3.org/2000/svg" xmlns:xlink="http://www.w3.org/1999/xlink" version="1.1" baseProfile="full" viewBox="0 0 200 200" width="200" height="200">
<g fill="black">
<path d="M 78.9 142.4 L 77.91315793991089 147.4 L 124.0 147.4 L 124.0 121.3 L 136.0 123.3 L 139.0 125.3 L 136.0 127.1 L 136.0 147.4 L 163.0 147.4 L 173.0 137.4 L 185.0 147.4 L 185.0 151.4 L 136.0 151.4 L 136.0 182.5 L 124.0 188.5 L 124.0 151.4 L 76.94647884368896 151.4 L 75.1 157.1 L 72.0 163.6 L 68.1 169.4 L 63.6 174.5 L 58.3 178.9 L 52.4 182.5 L 45.9 185.3 L 38.8 187.3 L 31.2 188.5 L 30.7 186.7 L 37.6 183.7 L 43.7 180.5 L 48.9 176.9 L 53.5 173.0 L 57.3 168.8 L 60.5 164.1 L 63.0 159.1 L 64.9 153.6 L 65.37666664123535 151.4 L 16.0 151.4 L 16.0 147.4 L 66.22461538314819 147.4 L 67.0 141.1 L 67.0 121.3 L 79.0 123.3 L 82.0 125.3 L 79.0 127.1 L 79.0 141.7 L 78.55822458267212 142.36266317367554 Z M 168.6 103.0 L 164.4 98.5 L 160.5 93.9 L 156.8 89.1 L 153.5 84.0 L 150.5 78.8 L 148.0 73.60769233703613 L 148.0 114.5 L 136.0 120.5 L 136.0 79.5 L 135.0 80.9 L 130.7 86.2 L 126.2 91.2 L 121.5 95.9 L 116.5 100.2 L 111.2 104.3 L 105.7 107.8 L 99.8 111.0 L 98.8 109.5 L 103.3 104.9 L 107.7 100.2 L 111.9 95.5 L 115.9 90.7 L 119.7 85.7 L 123.3 80.6 L 126.7 75.2 L 129.9 69.7 L 132.8 63.9 L 133.39090909957886 62.6 L 99.8 62.6 L 99.8 58.6 L 136.0 58.6 L 136.0 12.4 L 148.0 14.4 L 151.0 16.4 L 148.0 18.2 L 148.0 58.6 L 162.1 58.6 L 172.1 48.6 L 184.1 58.6 L 184.1 62.6 L 148.0 62.6 L 148.0 64.14864864349366 L 149.3 65.8 L 152.9 70.4 L 156.5 74.8 L 160.2 79.1 L 164.0 83.1 L 168.0 87.0 L 172.1 90.7 L 176.4 94.2 L 180.9 97.5 L 185.5 100.7 L 188.7 103.0 L 177.7 111.3 L 173.0 107.3 Z M 93.21814947128296 87.75771045684814 L 64.9 91.37637443542481 L 64.9 104.2 L 65.1 105.2 L 65.3 105.7 L 65.6 106.3 L 65.8 106.4 L 66.1 106.6 L 66.7 106.8 L 67.6 106.9 L 68.9 107.0 L 88.6 107.0 Z M 30.8 18.2 L 84.1 18.2 L 90.1 13.2 L 101.1 22.2 L 96.1 26.2 L 96.1 39.9 L 84.54029302597046 45.679853439331055 L 88.2 49.0 L 88.4 52.2 L 84.5974575996399 50.57033901214599 L 84.3 50.7 L 79.9 52.3 L 75.2 53.8 L 70.5 55.1 L 65.5 56.4 L 64.9 56.53199996948242 L 64.9 69.21475124359131 L 68.7907865524292 68.6675051689148 L 77.4 57.3 L 90.6 65.6 L 91.2 69.5 L 64.9 73.19280824661254 L 64.9 87.31248140335083 L 74.52057409286499 86.08310642242432 L 83.2 74.9 L 94.55633764266967 82.18192644119263 L 94.6 82.0 L 96.6 82.0 L 96.41951217651368 84.25609760284424 L 96.8 87.3 L 96.16955499649048 87.38056201934815 L 94.6 107.0 L 98.2 109.4 L 100.6 113.0 L 98.2 116.6 L 94.6 119.0 L 68.9 119.0 L 66.3 118.9 L 63.8 118.4 L 61.4 117.6 L 59.2 116.4 L 57.1 114.7 L 55.5 112.7 L 54.3 110.5 L 53.5 108.1 L 53.0 105.6 L 52.9 103.0 L 52.9 92.90980682373046 L 29.5 95.9 L 29.0 91.9 L 52.9 88.8459137916565 L 52.9 74.87773971557617 L 32.8 77.7 L 32.3 73.8 L 52.9 70.90257291793823 L 52.9 58.89056606292725 L 49.9 59.4 L 44.3 60.1 L 38.6 60.6 L 32.7 60.7 L 32.4 59.0 L 37.8 56.8 L 43.1 54.9 L 48.3 53.0 L 53.3 51.2 L 58.1 49.4 L 62.7 47.5 L 67.2 45.7 L 71.4 43.7 L 75.5 41.8 L 78.54328355789184 40.278358173370364 L 78.5 40.2 L 78.57106227874756 40.26446886062622 L 79.3 39.9 L 30.8 39.9 L 30.8 58.0 L 30.4 65.8 L 29.7 73.3 L 28.7 80.4 L 27.4 87.1 L 25.8 93.4 L 23.9 99.3 L 21.7 104.8 L 19.2 109.8 L 16.2 114.3 L 12.9 118.3 L 11.3 117.3 L 12.8 112.6 L 14.2 107.7 L 15.5 102.7 L 16.6 97.3 L 17.5 91.6 L 18.2 85.6 L 18.7 79.2 L 19.0 72.5 L 19.0 65.5 L 18.8 58.0 L 18.8 12.2 Z M 177.7 25.5 L 179.4 28.7 L 175.31295337677003 28.981865310668944 L 173.8 31.1 L 171.7 33.9 L 169.5 36.8 L 167.2 39.6 L 164.8 42.5 L 162.3 45.3 L 159.6 48.2 L 156.7 50.9 L 154.0 53.9 L 152.5 52.8 L 154.3 49.3 L 155.9 45.6 L 157.5 42.1 L 159.0 38.8 L 160.6 35.5 L 162.0 32.2 L 163.4 29.1 L 164.7 26.0 L 165.9 23.0 L 166.66076641082765 20.92518243789673 L 166.6 20.9 L 166.8307692527771 20.4615385055542 L 167.0 20.0 L 167.057994556427 20.02981033325195 L 167.6 19.0 Z M 118.1 43.6 L 117.4 41.0 L 116.5 38.3 L 115.6 35.7 L 113.4 30.3 L 110.8 24.7 L 109.1 22.0 L 110.5 20.8 L 112.8 23.0 L 115.4 25.0 L 117.8 27.2 L 120.0 29.5 L 122.1 31.8 L 124.1 34.3 L 125.9 36.9 L 127.6 39.5 L 129.1 42.2 L 130.5 45.0 L 130.1 49.5 L 126.7 52.6 L 122.2 52.2 L 119.1 48.8 L 118.7 46.2 Z M 79.54403667449951 39.9 L 80.45863914489746 41.976909732818605 L 84.1 45.2804123878479 L 84.1 39.9 Z M 30.8 22.2 L 30.8 35.9 L 84.1 35.9 L 84.1 22.2 Z " />
</g>
</svg>
