<svg xmlns="http://www.w3.org/2000/svg" xmlns:xlink="http://www.w3.org/1999/xlink" version="1.1" baseProfile="full" viewBox="0 0 200 200" width="200" height="200">
<g fill="black">
<path d="M 78.6 58.9 L 80.1 62.2 L 76.34210529327393 62.2 L 73.4 66.5 L 67.9 73.8 L 62.1 80.9 L 56.0 87.7 L 49.7 94.3 L 48.109459495544435 95.81824321746826 L 55.2 97.0 L 58.2 99.0 L 55.2 100.8 L 55.2 182.0 L 43.2 188.0 L 43.2 100.50454549789428 L 43.1 100.6 L 36.1 106.6 L 28.9 112.4 L 21.3 117.7 L 13.3 122.7 L 12.3 121.2 L 18.9 114.8 L 25.4 108.3 L 31.6 101.8 L 37.7 95.3 L 43.4 88.5 L 49.0 81.7 L 54.2 74.7 L 59.2 67.5 L 63.9 60.2 L 67.91535148620605 53.50774745941162 L 67.9 53.5 L 68.9 51.8 Z M 73.7 176.7 L 72.7 172.3 L 75.0 168.3 L 76.9 167.2 L 78.7 165.6 L 80.4 163.4 L 82.0 160.8 L 83.5 157.5 L 84.8 153.7 L 85.9 149.3 L 86.8 144.4 L 87.5 139.0 L 88.0 133.0 L 89.8 132.9 L 90.8 138.9 L 91.6 144.5 L 91.9 149.9 L 91.8 154.8 L 91.3 159.5 L 90.4 163.9 L 89.1 167.9 L 87.3 171.7 L 85.0 175.0 L 82.1 178.0 L 77.7 179.0 Z M 169.9 181.0 L 168.1 182.6 L 166.2 184.0 L 164.1 185.2 L 161.9 186.2 L 159.6 187.0 L 157.3 187.5 L 154.9 187.8 L 152.4 188.0 L 152.4 182.0 L 132.4 179.0 L 132.4 176.0 L 152.4 176.0 L 153.8 175.9 L 155.2 175.7 L 156.4 175.4 L 157.5 175.1 L 158.6 174.6 L 159.6 174.0 L 160.6 173.3 L 161.5 172.5 L 162.4 171.5 L 163.3 170.3 L 164.6 168.2 L 165.9 165.3 L 167.1 161.6 L 168.2 157.3 L 169.1 152.2 L 169.9 146.5 L 170.5 140.1 L 171.0 133.0 L 171.3 125.3 L 171.3759036064148 119.0 L 97.1 119.0 L 85.1 125.0 L 85.1 22.0 L 97.1 28.0 L 162.3 28.0 L 172.3 18.0 L 184.3 28.0 L 184.3 32.0 L 137.4 32.0 L 137.4 57.0 L 157.7 57.0 L 167.7 47.0 L 179.7 57.0 L 179.7 61.0 L 137.4 61.0 L 137.4 86.0 L 157.7 86.0 L 167.7 76.0 L 179.7 86.0 L 179.7 90.0 L 137.4 90.0 L 137.4 115.0 L 171.4 115.0 L 177.4 110.0 L 188.4 119.0 L 183.4 122.0 L 183.3415774345398 122.02434272766114 L 183.3 125.6 L 183.0 133.6 L 182.5 141.0 L 181.8 147.9 L 181.0 154.1 L 179.9 159.8 L 178.6 165.0 L 177.1 169.6 L 175.3 173.7 L 173.1 177.3 L 171.6 179.2 Z M 108.0 169.9 L 104.0 167.6 L 102.8 163.3 L 103.4 160.5 L 103.9 157.7 L 104.2 154.9 L 104.3 152.1 L 104.3 149.3 L 104.1 146.4 L 103.7 143.4 L 103.1 140.4 L 102.4 137.3 L 101.2 134.3 L 102.7 133.3 L 106.9 138.7 L 108.8 141.5 L 110.4 144.5 L 111.7 147.6 L 112.8 150.8 L 113.7 154.1 L 114.2 157.6 L 114.6 161.1 L 114.7 164.7 L 112.4 168.6 Z M 125.9 152.6 L 125.6 150.1 L 125.0 147.6 L 124.2 145.0 L 123.1 142.5 L 121.9 139.9 L 120.5 137.3 L 118.8 134.7 L 116.6 132.3 L 117.7 130.9 L 120.5 132.7 L 123.4 134.5 L 126.1 136.5 L 128.5 138.7 L 130.7 141.2 L 132.7 143.8 L 134.4 146.7 L 135.9 149.7 L 137.1 152.9 L 138.1 156.2 L 136.8 160.6 L 132.9 162.9 L 128.5 161.7 L 126.2 157.7 L 126.1 155.2 Z M 146.6 145.6 L 145.8 143.4 L 144.8 141.3 L 143.6 139.2 L 142.2 137.1 L 140.5 135.0 L 138.7 132.9 L 136.7 130.8 L 134.2 129.2 L 134.9 127.6 L 137.9 128.7 L 140.9 129.6 L 143.7 130.8 L 146.4 132.3 L 149.0 134.0 L 151.4 136.0 L 153.6 138.2 L 155.6 140.6 L 157.4 143.3 L 159.0 146.1 L 158.7 150.7 L 155.4 153.8 L 150.8 153.5 L 147.7 150.2 L 147.2 147.9 Z M 97.1 90.0 L 97.1 115.0 L 125.4 115.0 L 125.4 90.0 Z M 97.1 61.0 L 97.1 86.0 L 125.4 86.0 L 125.4 61.0 Z M 70.8 21.0 L 72.2 24.3 L 68.46046628952027 24.23552532196045 L 66.1 27.5 L 61.3 33.8 L 56.2 39.9 L 51.0 45.7 L 45.7 51.3 L 40.1 56.6 L 34.3 61.6 L 28.4 66.3 L 22.2 70.7 L 15.7 74.7 L 14.6 73.2 L 19.7 67.8 L 24.8 62.3 L 29.8 56.9 L 34.6 51.3 L 39.4 45.6 L 43.9 39.7 L 48.3 33.7 L 52.6 27.5 L 56.7 21.1 L 60.181457328796384 15.442631912231445 L 60.1 15.4 L 61.2 13.8 Z M 97.1 32.0 L 97.1 57.0 L 125.4 57.0 L 125.4 32.0 Z " />
</g>
</svg>
