<svg xmlns="http://www.w3.org/2000/svg" xmlns:xlink="http://www.w3.org/1999/xlink" version="1.1" baseProfile="full" viewBox="0 0 200 200" width="200" height="200">
<g fill="black">
<path d="M 127.3917236328125 23.262603187561034 L 133.7 29.5 L 133.9 32.8 L 130.20567684173585 31.322270774841307 L 126.3 33.2 L 120.9 35.5 L 115.3 37.8 L 109.6 39.9 L 103.7 42.0 L 101.78285713195801 42.59714288711548 L 110.2 44.0 L 113.2 46.0 L 110.2 47.8 L 110.2 92.0 L 114.3 92.0 L 124.3 82.0 L 136.3 92.0 L 136.3 96.0 L 110.2 96.0 L 110.2 111.0 L 109.4 122.0 L 108.1 132.3 L 106.3 141.9 L 103.8 150.9 L 100.8 159.1 L 97.2 166.7 L 93.0 173.5 L 88.2 179.5 L 82.9 184.5 L 76.9 188.6 L 75.8 187.3 L 80.1 181.9 L 84.0 176.2 L 87.4 170.1 L 90.3 163.5 L 92.8 156.3 L 94.9 148.5 L 96.4 140.0 L 97.5 131.0 L 98.1 121.2 L 98.2 110.9 L 98.2 96.0 L 70.5 96.0 L 70.5 92.0 L 98.2 92.0 L 98.2 43.713114738464355 L 97.6 43.9 L 91.4 45.7 L 85.0 47.3 L 78.4 48.7 L 71.6 49.8 L 71.0 48.1 L 77.2 45.1 L 83.3 42.3 L 89.2 39.5 L 94.9 36.8 L 100.5 34.1 L 105.9 31.4 L 111.1 28.7 L 116.2 25.9 L 121.0 23.1 L 124.8262230873108 20.739138984680174 L 124.8 20.7 L 124.83444986343383 20.73406286239624 L 125.7 20.2 Z M 149.0 176.0 L 169.0 176.0 L 170.3 175.9 L 171.2 175.7 L 172.1 175.4 L 172.3 175.2 L 172.4 175.0 L 172.6 174.7 L 172.8 174.1 L 173.0 173.2 L 173.0 14.0 L 185.0 16.0 L 188.0 18.0 L 185.0 19.8 L 185.0 172.0 L 184.9 174.5 L 184.4 177.0 L 183.6 179.4 L 182.4 181.7 L 180.8 183.7 L 178.8 185.3 L 176.5 186.6 L 174.1 187.4 L 171.6 187.8 L 169.0 188.0 L 169.0 182.0 L 149.0 179.0 Z M 71.4 58.7 L 73.1 61.9 L 69.38563480377198 62.02808151245117 L 66.8 66.3 L 61.9 73.6 L 56.8 80.7 L 51.3 87.5 L 45.7 94.1 L 44.025858116149905 95.88764305114746 L 50.7 97.0 L 53.7 99.0 L 50.7 100.8 L 50.7 182.0 L 38.7 188.0 L 38.7 101.48225803375244 L 33.6 106.5 L 27.1 112.3 L 20.3 117.6 L 13.1 122.6 L 12.0 121.3 L 17.7 114.8 L 23.3 108.4 L 28.8 102.0 L 34.0 95.4 L 39.1 88.7 L 43.9 81.9 L 48.5 74.9 L 52.9 67.8 L 57.0 60.5 L 60.46820192337036 53.830380821228026 L 60.4 53.8 L 61.4 52.0 Z M 155.1 31.0 L 158.1 33.0 L 155.1 34.8 L 155.1 149.0 L 143.1 155.0 L 143.1 29.0 Z M 64.5 20.8 L 66.2 24.0 L 62.441354751586914 24.063705825805663 L 60.4 27.3 L 56.0 33.6 L 51.6 39.6 L 46.9 45.5 L 42.1 51.1 L 37.1 56.4 L 32.0 61.5 L 26.6 66.2 L 21.0 70.6 L 15.2 74.6 L 14.0 73.3 L 22.8 62.5 L 31.4 51.5 L 35.5 45.8 L 39.5 39.9 L 43.3 33.9 L 47.0 27.7 L 50.6 21.4 L 53.65529880523682 15.725873756408692 L 53.6 15.7 L 54.6 13.9 Z " />
</g>
</svg>
