<svg xmlns="http://www.w3.org/2000/svg" xmlns:xlink="http://www.w3.org/1999/xlink" version="1.1" baseProfile="full" viewBox="0 0 200 200" width="200" height="200">
<g fill="black">
<path d="M 92.8 31.0 L 166.5 31.0 L 176.5 21.0 L 188.5 31.0 L 188.5 35.0 L 92.8 35.0 L 92.8 103.0 L 92.2 114.5 L 90.9 125.5 L 89.0 135.7 L 86.4 145.4 L 83.2 154.3 L 79.3 162.5 L 74.7 170.0 L 69.5 176.8 L 63.6 182.6 L 57.0 187.6 L 55.9 186.3 L 61.0 180.2 L 65.6 173.8 L 69.6 166.9 L 73.0 159.5 L 75.9 151.6 L 78.2 143.1 L 80.0 134.0 L 81.1 124.3 L 81.7 113.9 L 81.8 103.0 L 81.8 25.5 Z M 21.0 175.0 L 35.0 175.0 L 36.2 174.9 L 37.1 174.7 L 38.0 174.4 L 38.4 174.0 L 38.7 173.1 L 38.9 172.2 L 39.0 171.0 L 39.0 115.90517244338989 L 36.9 117.1 L 31.0 120.5 L 22.691028213500978 124.93145160675049 L 22.1 128.8 L 19.0 126.9 L 12.1 117.0 L 13.9 116.1 L 20.1 113.5 L 26.2 110.8 L 32.4 108.2 L 39.0 105.27868852615356 L 39.0 57.0 L 14.9 57.0 L 14.9 53.0 L 39.0 53.0 L 39.0 14.0 L 51.0 16.0 L 54.0 18.0 L 51.0 19.8 L 51.0 53.0 L 53.8 53.0 L 63.8 43.0 L 75.8 53.0 L 75.8 57.0 L 51.0 57.0 L 51.0 100.0672131538391 L 56.8 97.5 L 62.9 94.9 L 69.1 92.5 L 75.3 90.2 L 76.2 91.7 L 70.9 95.8 L 65.5 99.7 L 59.9 103.3 L 54.2 106.9 L 51.0 108.86491231918335 L 51.0 171.0 L 50.8 173.5 L 50.4 176.0 L 49.6 178.4 L 48.3 180.7 L 46.7 182.7 L 44.7 184.3 L 42.4 185.6 L 40.0 186.4 L 37.5 186.8 L 35.0 187.0 L 35.0 181.0 L 21.0 178.0 Z M 86.8 178.9 L 104.7 178.9 L 104.7 90.0 L 115.7 92.0 L 118.4 94.0 L 115.7 95.72340421676635 L 115.7 178.9 L 134.9 178.9 L 134.9 40.7 L 146.9 42.7 L 149.9 44.7 L 146.9 46.5 L 146.9 102.8 L 166.4181818008423 102.8 L 174.6 93.8 L 184.6 102.8 L 184.6 106.8 L 146.9 106.8 L 146.9 178.9 L 166.9 178.9 L 176.9 168.9 L 188.9 178.9 L 188.9 182.9 L 86.8 182.9 Z " />
</g>
</svg>
