<svg xmlns="http://www.w3.org/2000/svg" xmlns:xlink="http://www.w3.org/1999/xlink" version="1.1" baseProfile="full" viewBox="0 0 200 200" width="200" height="200">
<g fill="black">
<path d="M 39.0 27.0 L 39.0 27.46560001373291 L 45.4 26.8 L 58.1 25.6 L 71.1 24.4 L 84.2 23.1 L 97.6 21.7 L 111.3 20.3 L 125.2 18.7 L 139.3 17.0 L 153.6 15.1 L 167.2076150894165 13.235943126678468 L 167.2 13.2 L 167.23832330703735 13.23173656463623 L 168.2 13.1 L 168.33062601089478 14.13629970550537 L 180.0 23.8 L 180.4 26.8 L 175.79759998321532 24.289599990844728 L 169.7 25.0 L 154.9 26.4 L 140.4 27.6 L 126.1 28.7 L 112.1 29.5 L 98.3 30.2 L 84.7 30.7 L 71.4 30.9 L 58.3 30.9 L 45.5 30.6 L 39.0 30.18400001525879 L 39.0 46.0 L 160.0 46.0 L 166.0 41.0 L 177.0 50.0 L 172.0 54.0 L 172.0 81.0 L 160.0 87.0 L 160.0 77.0 L 39.0 77.0 L 39.0 108.0 L 38.4 119.8 L 37.5 130.7 L 36.0 140.9 L 34.2 150.3 L 31.8 158.8 L 29.0 166.5 L 25.6 173.3 L 21.8 179.1 L 17.4 183.9 L 12.6 187.6 L 11.3 186.3 L 14.5 181.5 L 17.2 176.3 L 19.7 170.5 L 21.8 163.9 L 23.6 156.6 L 25.0 148.5 L 26.1 139.6 L 26.8 129.9 L 27.1 119.3 L 27.0 108.0 L 27.0 21.0 Z M 39.6 177.7 L 104.0 177.7 L 104.0 156.1 L 53.6 156.1 L 53.6 152.1 L 104.0 152.1 L 104.0 131.2 L 116.0 133.2 L 119.0 135.2 L 116.0 137.0 L 116.0 152.1 L 145.2 152.1 L 155.2 142.1 L 167.2 152.1 L 167.2 156.1 L 116.0 156.1 L 116.0 177.7 L 159.2 177.7 L 169.2 167.7 L 181.2 177.7 L 181.2 181.7 L 39.6 181.7 Z M 42.2 127.1 L 104.0 127.1 L 104.0 106.1 L 53.6 106.1 L 53.6 102.1 L 104.0 102.1 L 104.0 81.2 L 116.0 83.2 L 119.0 85.2 L 116.0 87.0 L 116.0 102.1 L 145.2 102.1 L 155.2 92.1 L 167.2 102.1 L 167.2 106.1 L 116.0 106.1 L 116.0 127.1 L 156.6 127.1 L 166.6 117.1 L 178.6 127.1 L 178.6 131.1 L 42.2 131.1 Z M 39.0 50.0 L 39.0 73.0 L 160.0 73.0 L 160.0 50.0 Z " />
</g>
</svg>
