<svg xmlns="http://www.w3.org/2000/svg" xmlns:xlink="http://www.w3.org/1999/xlink" version="1.1" baseProfile="full" viewBox="0 0 200 200" width="200" height="200">
<g fill="black">
<path d="M 155.1 178.2 L 146.0 172.6 L 137.97322149276732 166.2373097419739 L 132.8 169.8 L 121.0 176.0 L 107.9 181.2 L 93.6 185.3 L 78.1 188.3 L 77.8 186.5 L 92.6 181.7 L 106.0 176.2 L 118.0 170.2 L 128.7 163.4 L 132.30656099319458 160.53026323318483 L 130.6 158.8 L 124.5 150.7 L 119.4 141.8 L 115.5 132.2 L 112.7 121.8 L 111.4009009361267 111.5 L 97.0 111.5 L 97.0 107.5 L 165.0 107.5 L 171.0 102.5 L 182.0 111.5 L 177.0 114.5 L 175.40126581192015 115.1661392211914 L 172.8 123.1 L 167.5 134.5 L 160.8 144.8 L 152.8 154.2 L 146.50999269485473 159.75394258499145 L 151.9 163.3 L 160.3 167.6 L 169.5 171.1 L 179.6 173.9 L 188.0 176.1 L 176.3 186.6 L 165.2 182.9 Z M 32.0 176.3 L 46.0 176.3 L 47.2 176.2 L 48.1 176.1 L 48.7 175.9 L 49.0 175.7 L 49.2 175.6 L 49.4 175.4 L 49.5 175.0 L 49.7 174.4 L 49.9 173.5 L 50.0 172.3 L 50.0 154.1714285850525 L 46.1 155.1 L 38.1 156.9 L 30.6 158.5 L 23.5 160.1 L 20.883963680267335 160.61527986526488 L 19.3 164.1 L 16.9 161.4 L 13.0 149.9 L 15.0 149.6 L 21.7 148.8 L 28.8 148.0 L 36.3 147.0 L 44.4 145.9 L 50.0 145.17529411315917 L 50.0 126.0 L 56.67024393081665 127.1117073059082 L 58.5 125.4 L 61.3 122.5 L 64.1 119.7 L 69.5 114.7 L 72.1 112.4 L 73.21428575515748 111.5 L 19.0 111.5 L 19.0 107.5 L 78.03999996185303 107.5 L 79.6 106.2 L 81.9 104.4 L 82.17096424102783 104.85752983093262 L 85.0 102.5 L 96.0 111.5 L 91.0 114.5 L 79.0 119.5 L 79.0 118.73448276519775 L 77.0 119.7 L 73.9 121.2 L 70.7 122.8 L 67.3 124.4 L 63.8 126.1 L 60.28633089065552 127.71438846588134 L 62.0 128.0 L 65.0 130.0 L 62.0 131.8 L 62.0 143.4863158226013 L 71.4 142.2 L 81.3 140.9 L 91.8 139.6 L 102.8 138.4 L 103.1 140.1 L 92.6 143.3 L 82.4 146.1 L 72.6 148.7 L 63.3 151.0 L 62.0 151.31022729873658 L 62.0 172.3 L 61.8 174.9 L 61.4 177.4 L 60.6 179.8 L 59.3 182.0 L 57.7 184.0 L 55.7 185.7 L 53.4 186.9 L 51.0 187.7 L 48.5 188.2 L 46.0 188.3 L 46.0 182.3 L 32.0 179.3 Z M 113.431067943573 111.5 L 116.7 120.6 L 121.0 129.9 L 125.8 138.3 L 131.2 145.8 L 137.4 152.4 L 139.64165849685668 154.31678047180176 L 145.9 147.9 L 152.6 139.0 L 158.0 129.5 L 162.2 119.2 L 164.2300000190735 111.5 Z M 136.30837488174438 19.074975109100343 L 137.2 34.8 L 138.38212423324586 40.74875431060791 L 163.84398212432862 39.81170625686646 L 168.75261764526368 34.51891670227051 L 165.0 33.0 L 164.3 31.8 L 163.4 30.5 L 160.7 27.8 L 158.9 26.3 L 156.9 24.9 L 154.7 23.4 L 152.2 21.8 L 149.5 20.1 L 146.4 18.9 L 146.9 17.2 L 150.2 17.9 L 153.4 18.1 L 156.5 18.5 L 159.3 19.0 L 162.1 19.7 L 164.6 20.4 L 167.0 21.2 L 169.3 22.1 L 171.4 23.2 L 173.4 24.5 L 175.1 28.7 L 174.5025146484375 30.176140308380127 L 185.9 39.0 L 186.0 43.0 L 139.1719511985779 44.723367309570314 L 140.3 50.4 L 144.8 62.5 L 148.53813343048097 68.68491172790527 L 154.5 63.3 L 160.1 57.2 L 164.4555555343628 51.422222232818605 L 165.4 50.1 L 174.6 57.9 L 175.8 61.3 L 171.94661169052125 60.90137367248535 L 168.5 64.8 L 161.8 71.2 L 154.77776165008544 76.6090214729309 L 156.2 78.2 L 162.3 82.8 L 168.2 85.8 L 173.5 87.6 L 174.88637933731079 87.82568969726563 L 180.5 63.5 L 182.5 63.5 L 180.57446804046631 88.5319149017334 L 184.7 90.3 L 186.5 94.5 L 184.7 98.7 L 180.5 100.5 L 176.4 100.3 L 170.6 99.2 L 163.7 96.9 L 156.0 93.0 L 148.1 87.1 L 144.46233949661254 83.02582025527954 L 137.9 86.5 L 128.7 90.4 L 119.0 93.7 L 108.6 96.3 L 97.7 98.1 L 86.2 99.3 L 86.0 97.5 L 96.9 94.4 L 107.2 91.1 L 116.8 87.5 L 125.7 83.4 L 133.9 79.0 L 138.8823805809021 75.81127643585205 L 134.0 67.6 L 128.8 53.6 L 127.0940752029419 45.16785764694214 L 107.2 45.9 L 107.1 41.9 L 126.29006834030152 41.19376649856567 L 125.3 36.3 L 124.15714282989502 16.39523811340332 L 124.1 16.4 L 124.1 13.0 L 136.1 15.4 L 139.1 17.4 Z M 84.5 67.1 L 84.5 46.7 L 38.3 46.7 L 38.3 64.2 L 38.01000003814697 67.1 Z M 37.86091957092285 26.880459785461426 L 38.2 26.8 L 44.0 25.4 L 49.7 24.0 L 55.2 22.6 L 60.6 21.1 L 65.8 19.6 L 70.9 17.9 L 75.9 16.1 L 80.7 14.2 L 84.43607530593872 12.575619411468505 L 84.4 12.5 L 84.46932039260864 12.561165046691894 L 85.3 12.2 L 85.93526611328124 13.854646587371827 L 94.6 21.5 L 94.8 24.6 L 90.85094194412231 22.924642086029053 L 89.6 23.4 L 84.4 25.0 L 79.0 26.4 L 73.6 27.6 L 68.0 28.6 L 62.3 29.5 L 56.5 30.1 L 50.7 30.5 L 44.7 30.7 L 38.6 30.5 L 38.3 30.475806427001952 L 38.3 42.7 L 84.5 42.7 L 90.5 37.7 L 101.5 46.7 L 96.5 50.7 L 96.5 75.1 L 84.5 81.1 L 84.5 71.1 L 37.40416669845581 71.1 L 36.8 74.0 L 35.4 78.5 L 33.6 82.6 L 31.4 86.5 L 28.8 90.0 L 25.8 93.1 L 22.4 95.8 L 18.7 98.1 L 14.8 100.0 L 13.8 98.5 L 16.8 95.6 L 19.2 92.5 L 21.2 89.3 L 22.9 86.1 L 24.3 82.8 L 25.3 79.4 L 26.0 75.9 L 26.4 72.2 L 26.5 68.3 L 26.3 64.2 L 26.3 21.1 Z " />
</g>
</svg>
