<svg xmlns="http://www.w3.org/2000/svg" xmlns:xlink="http://www.w3.org/1999/xlink" version="1.1" baseProfile="full" viewBox="0 0 200 200" width="200" height="200">
<g fill="black">
<path d="M 159.2 169.3 L 150.8 160.6 L 143.3 150.9 L 141.94915075302123 148.66265592575073 L 136.0 156.8 L 126.1 167.3 L 115.1 176.1 L 102.9 183.3 L 89.8 188.8 L 89.1 187.1 L 101.0 180.0 L 111.8 171.9 L 121.4 162.6 L 130.0 152.2 L 137.25320634841918 140.8849980354309 L 136.9 140.3 L 131.4 128.8 L 127.0 116.4 L 123.6 103.2 L 121.2 89.1 L 120.58539686203002 80.71904764175414 L 116.9 86.6 L 111.8 93.8 L 106.3 100.5 L 104.9 99.4 L 108.6 91.8 L 112.2 84.0 L 115.7 76.1 L 119.0 68.0 L 122.0 59.6 L 124.8 51.0 L 127.4 42.1 L 129.7 32.9 L 131.7 23.5 L 133.33229064941406 14.703767204284668 L 133.3 14.7 L 133.9 11.9 L 145.3 16.1 L 147.8 18.7 L 144.35223884582518 19.89104480743408 L 142.8 26.1 L 140.0 35.7 L 137.0 45.1 L 133.6 54.1 L 130.66551723480225 61.0 L 166.9 61.0 L 176.9 51.0 L 188.9 61.0 L 188.9 65.0 L 170.87894735336303 65.0 L 168.1 82.6 L 164.0 100.3 L 158.7 116.6 L 152.3 131.5 L 147.75284910202026 139.51734504699706 L 151.6 144.8 L 158.9 153.1 L 166.9 160.4 L 175.7 166.7 L 185.2 172.1 L 190.2 174.8 L 179.0 183.8 L 168.6 177.0 Z M 82.7 176.0 L 80.5 174.0 L 78.0 171.8 L 75.0 169.6 L 71.7 167.3 L 68.1 164.9 L 64.1 162.3 L 59.8 159.6 L 58.48947916030884 158.85927085876466 L 55.4 163.9 L 50.6 169.4 L 44.9 174.2 L 38.4 178.4 L 31.1 181.9 L 23.0 184.7 L 14.0 186.7 L 13.5 185.0 L 21.6 181.2 L 28.7 177.1 L 34.9 172.9 L 40.0 168.4 L 44.3 163.7 L 47.6 158.8 L 50.0 153.5 L 51.7 148.0 L 52.6 142.1 L 52.6 102.3 L 64.6 104.3 L 67.6 106.3 L 64.6 108.1 L 64.6 135.7 L 63.8 143.5 L 62.0 150.9 L 59.75775775909424 156.34544544219972 L 61.1 156.7 L 66.0 158.1 L 70.7 159.5 L 74.9 161.0 L 78.9 162.6 L 82.6 164.2 L 86.0 165.9 L 89.1 167.6 L 91.9 169.4 L 94.4 171.2 L 96.1 175.5 L 94.4 179.7 L 90.2 181.4 L 86.0 179.7 L 84.5 177.9 Z M 36.9 90.8 L 80.4 90.8 L 86.4 85.8 L 97.4 94.8 L 92.4 98.8 L 92.4 151.2 L 80.4 157.2 L 80.4 94.8 L 36.9 94.8 L 36.9 152.8 L 24.9 158.8 L 24.9 84.8 Z M 128.8397590637207 65.0 L 125.9 71.1 L 122.67415971755982 77.10156335830689 L 125.3 88.3 L 129.3 101.7 L 133.8 114.0 L 139.0 125.3 L 142.2176552772522 130.91726264953613 L 143.9 127.5 L 149.3 113.3 L 153.6 97.7 L 156.9 80.7 L 158.7627119064331 65.0 Z M 14.8 85.5 L 12.9 81.3 L 14.4 77.0 L 15.3 76.4 L 16.4 75.2 L 17.5 73.3 L 18.6 70.9 L 19.7 68.0 L 20.7 64.5 L 21.6 60.6 L 22.5 56.1 L 23.4 51.2 L 23.9 45.9 L 25.7 45.8 L 26.3 51.2 L 26.76666669845581 54.6 L 55.4 54.6 L 55.4 13.5 L 67.4 15.5 L 70.4 17.5 L 67.4 19.3 L 67.4 33.4 L 80.31818180084228 33.4 L 88.5 24.4 L 98.5 33.4 L 98.5 37.4 L 67.4 37.4 L 67.4 54.6 L 95.6 54.6 L 101.6 49.6 L 112.6 58.6 L 107.6 61.6 L 104.76363639831543 62.78181819915771 L 103.7 64.5 L 102.3 66.7 L 100.9 69.0 L 99.2 71.4 L 97.5 73.9 L 95.7 76.5 L 93.6 79.1 L 91.9 82.1 L 90.2 81.3 L 91.4 78.1 L 92.0 74.8 L 92.7 71.8 L 93.4 68.9 L 94.0 66.1 L 94.5 63.5 L 95.0 61.1 L 95.4 58.8 L 95.42857141494751 58.6 L 27.146808528900145 58.6 L 27.3 61.0 L 27.5 65.3 L 27.4 69.3 L 27.2 73.0 L 26.7 76.3 L 25.9 79.4 L 24.8 82.3 L 23.3 85.0 L 19.1 86.9 Z M 86.3 75.2 L 86.3 79.2 L 32.2 79.2 L 32.2 75.2 L 68.11818180084228 75.2 L 76.3 66.2 Z " />
</g>
</svg>
