<svg xmlns="http://www.w3.org/2000/svg" xmlns:xlink="http://www.w3.org/1999/xlink" version="1.1" baseProfile="full" viewBox="0 0 200 200" width="200" height="200">
<g fill="black">
<path d="M 122.4 176.0 L 142.4 176.0 L 143.6 175.9 L 144.5 175.8 L 145.1 175.6 L 145.5 175.4 L 145.8 175.1 L 146.0 174.7 L 146.2 174.1 L 146.3 173.2 L 146.4 172.0 L 146.4 139.8 L 105.7964285850525 139.8 L 99.8 149.0 L 91.7 159.2 L 82.6 168.4 L 72.5 176.5 L 71.3 175.1 L 79.8 165.7 L 87.5 155.8 L 94.4 145.3 L 97.37297296524048 139.8 L 76.6 139.8 L 76.6 135.8 L 99.53513517379761 135.8 L 100.4 134.2 L 105.6 122.4 L 106.83199996948242 118.9 L 73.9 118.9 L 73.9 114.9 L 108.23999996185303 114.9 L 110.0 109.9 L 113.15530300140381 98.0 L 88.6 98.0 L 88.6 94.0 L 114.0207142829895 94.0 L 116.2 82.7 L 117.02721090316773 76.3 L 81.9 76.3 L 81.9 72.3 L 117.54421768188476 72.3 L 118.1 68.0 L 119.03555974960327 53.498824501037596 L 119.0 53.5 L 119.2 50.2 L 131.1 53.1 L 133.9 55.3 L 130.69084968566895 56.99896192550659 L 129.4 69.3 L 128.89350652694702 72.3 L 155.0 72.3 L 165.0 62.3 L 177.0 72.3 L 177.0 76.3 L 128.21818180084227 76.3 L 126.8 84.7 L 124.49103450775146 94.0 L 151.51818180084229 94.0 L 159.7 85.0 L 169.7 94.0 L 169.7 98.0 L 123.49793100357056 98.0 L 123.2 99.2 L 118.8 112.9 L 117.96279067993164 114.9 L 164.8181818008423 114.9 L 173.0 105.9 L 183.0 114.9 L 183.0 118.9 L 116.28837213516235 118.9 L 113.4 125.8 L 108.15 135.8 L 146.4 135.8 L 146.4 119.0 L 158.4 121.0 L 161.4 123.0 L 158.4 124.8 L 158.4 135.8 L 162.11818180084228 135.8 L 170.3 126.8 L 180.3 135.8 L 180.3 139.8 L 158.4 139.8 L 158.4 172.0 L 158.3 174.6 L 157.8 177.1 L 157.0 179.5 L 155.8 181.7 L 154.1 183.7 L 152.1 185.4 L 149.9 186.6 L 147.4 187.4 L 145.0 187.9 L 142.4 188.0 L 142.4 182.0 L 122.4 179.0 Z M 19.5 175.0 L 31.5 175.0 L 32.7 174.9 L 33.6 174.7 L 34.5 174.4 L 34.9 174.0 L 35.2 173.1 L 35.4 172.2 L 35.5 171.0 L 35.5 116.49230766296387 L 29.5 120.3 L 24.2 123.6 L 22.475139236450197 124.64142541885376 L 22.1 128.5 L 18.9 126.8 L 11.5 117.1 L 13.3 116.2 L 18.8 113.6 L 29.8 108.2 L 35.3 105.6 L 35.5 105.50181818008423 L 35.5 57.0 L 14.6 57.0 L 14.6 53.0 L 35.5 53.0 L 35.5 14.0 L 47.5 16.0 L 50.5 18.0 L 47.5 19.8 L 47.5 53.0 L 50.81818180084228 53.0 L 59.0 44.0 L 69.0 53.0 L 69.0 57.0 L 47.5 57.0 L 47.5 99.6222222328186 L 51.7 97.6 L 57.2 95.0 L 62.8 92.5 L 68.5 90.2 L 69.4 91.7 L 64.8 95.8 L 60.0 99.6 L 55.1 103.2 L 50.1 106.8 L 47.5 108.58431367874145 L 47.5 171.0 L 47.3 173.5 L 46.9 176.0 L 46.1 178.4 L 44.8 180.7 L 43.2 182.7 L 41.2 184.3 L 38.9 185.6 L 36.5 186.4 L 34.0 186.8 L 31.5 187.0 L 31.5 181.0 L 19.5 178.0 Z M 118.4 162.9 L 117.6 160.8 L 116.6 158.7 L 114.2 154.5 L 112.8 152.4 L 109.6 148.0 L 107.5 146.1 L 108.5 144.6 L 111.0 146.0 L 113.7 147.2 L 116.2 148.5 L 118.7 150.0 L 121.0 151.7 L 123.1 153.5 L 125.2 155.4 L 127.1 157.5 L 128.9 159.7 L 130.6 162.0 L 130.8 166.6 L 127.7 170.0 L 123.2 170.2 L 119.7 167.1 L 119.1 165.0 Z M 105.2 49.3 L 104.6 47.5 L 103.8 45.5 L 102.9 43.5 L 101.7 41.5 L 100.3 39.4 L 98.8 37.3 L 97.1 35.0 L 95.7555555343628 33.9 L 94.0 33.9 L 92.5 36.9 L 89.8 41.6 L 86.7 46.1 L 83.3 50.4 L 79.7 54.5 L 75.6 58.3 L 71.3 61.8 L 69.9 60.5 L 72.7 55.9 L 75.4 51.3 L 77.9 46.8 L 80.2 42.2 L 82.3 37.6 L 84.1 33.0 L 85.7 28.3 L 87.1 23.5 L 88.2 18.6 L 88.91952743530274 14.602625560760497 L 88.9 14.6 L 89.025 14.016666698455811 L 89.1 13.6 L 89.11363639831544 13.60303030014038 L 89.5 11.8 L 100.8 16.2 L 103.3 18.8 L 99.67844896316528 19.985234928131103 L 99.2 21.6 L 97.3 26.9 L 95.91999998092652 29.9 L 114.91818180084229 29.9 L 123.1 20.9 L 133.1 29.9 L 133.1 33.9 L 100.46363639831543 33.9 L 101.2 34.2 L 103.8 35.6 L 106.2 37.1 L 108.4 38.7 L 110.5 40.5 L 112.4 42.4 L 114.2 44.5 L 115.8 46.7 L 117.2 49.0 L 116.9 53.6 L 113.5 56.7 L 108.9 56.3 L 105.8 53.0 L 105.6 51.2 Z M 157.7 49.3 L 157.1 47.5 L 156.4 45.5 L 155.4 43.5 L 154.2 41.5 L 152.9 39.4 L 151.3 37.3 L 149.6 35.0 L 148.2555555343628 33.9 L 145.1138889312744 33.9 L 143.9 35.8 L 141.2 39.1 L 138.4 42.3 L 135.3 45.3 L 131.9 47.9 L 128.4 50.5 L 127.2 49.2 L 129.6 45.8 L 131.7 42.2 L 133.6 38.8 L 135.3 35.3 L 136.9 31.8 L 138.2 28.3 L 139.4 24.7 L 140.3 21.1 L 141.1 17.4 L 141.5391752243042 14.618556690216064 L 141.4 14.6 L 142.1 11.8 L 153.4 16.2 L 155.9 18.8 L 152.12108840942383 20.036734676361085 L 152.0 20.4 L 150.3 24.5 L 148.4 28.4 L 147.53157892227173 29.9 L 168.11818180084228 29.9 L 176.3 20.9 L 186.3 29.9 L 186.3 33.9 L 153.03636360168457 33.9 L 153.8 34.2 L 156.3 35.6 L 158.7 37.1 L 161.0 38.7 L 163.0 40.5 L 165.0 42.4 L 166.7 44.5 L 168.3 46.7 L 169.7 49.0 L 169.4 53.6 L 166.0 56.7 L 161.5 56.3 L 158.4 53.0 L 158.1 51.2 Z " />
</g>
</svg>
