<svg xmlns="http://www.w3.org/2000/svg" xmlns:xlink="http://www.w3.org/1999/xlink" version="1.1" baseProfile="full" viewBox="0 0 200 200" width="200" height="200">
<g fill="black">
<path d="M 97.5 175.5 L 117.5 175.5 L 118.7 175.4 L 119.6 175.3 L 120.2 175.1 L 120.5 174.9 L 120.7 174.7 L 120.9 174.6 L 121.0 174.2 L 121.2 173.6 L 121.4 172.7 L 121.5 171.5 L 121.5 130.4 L 76.2 130.4 L 76.2 126.4 L 156.8 126.4 L 166.8 116.4 L 178.8 126.4 L 178.8 130.4 L 133.5 130.4 L 133.5 171.5 L 133.3 174.0 L 132.9 176.5 L 132.1 178.9 L 130.8 181.2 L 129.2 183.2 L 127.2 184.9 L 124.9 186.1 L 122.5 186.9 L 120.0 187.3 L 117.5 187.5 L 117.5 181.5 L 97.5 178.5 Z M 18.6 175.0 L 32.6 175.0 L 33.8 174.9 L 34.7 174.7 L 35.6 174.4 L 36.0 174.0 L 36.3 173.1 L 36.5 172.2 L 36.6 171.0 L 36.6 116.23454542160034 L 35.2 117.1 L 29.7 120.4 L 24.1 123.6 L 22.02823152542114 124.79944486618042 L 21.6 128.6 L 18.4 126.9 L 11.2 117.0 L 13.0 116.1 L 18.9 113.5 L 24.7 110.9 L 36.3 105.5 L 36.6 105.36551723480224 L 36.6 57.0 L 14.2 57.0 L 14.2 53.0 L 36.6 53.0 L 36.6 14.0 L 48.6 16.0 L 51.6 18.0 L 48.6 19.8 L 48.6 53.0 L 53.418181800842284 53.0 L 61.6 44.0 L 71.6 53.0 L 71.6 57.0 L 48.6 57.0 L 48.6 99.84137935638428 L 59.4 95.0 L 65.2 92.5 L 71.1 90.2 L 72.0 91.7 L 67.1 95.8 L 62.0 99.6 L 56.8 103.3 L 51.5 106.8 L 48.6 108.67962961196899 L 48.6 171.0 L 48.4 173.5 L 48.0 176.0 L 47.2 178.4 L 45.9 180.7 L 44.3 182.7 L 42.3 184.3 L 40.0 185.6 L 37.6 186.4 L 35.1 186.8 L 32.6 187.0 L 32.6 181.0 L 18.6 178.0 Z M 108.1 145.6 L 110.0 148.7 L 106.09790573120117 149.10366487503052 L 105.7 149.8 L 103.0 153.8 L 100.0 157.8 L 96.8 161.7 L 93.4 165.6 L 89.7 169.3 L 85.7 173.0 L 81.5 176.6 L 76.9 179.9 L 72.0 183.1 L 70.8 181.7 L 74.3 177.2 L 77.7 172.8 L 80.9 168.6 L 83.9 164.4 L 86.7 160.3 L 89.3 156.3 L 91.7 152.3 L 93.8 148.3 L 95.7 144.3 L 96.92658224105836 141.31020565032958 L 96.9 141.3 L 97.07142858505249 140.95714282989502 L 97.3 140.4 L 97.34029846191406 140.41940298080445 L 97.9 139.3 Z M 165.6 169.5 L 163.7 166.0 L 161.6 162.6 L 159.2 159.2 L 156.7 155.9 L 153.8 152.5 L 150.8 149.2 L 147.5 145.8 L 144.0 142.5 L 145.0 141.0 L 149.5 143.1 L 153.9 145.3 L 157.9 147.9 L 161.7 150.7 L 165.3 153.7 L 168.6 156.9 L 171.7 160.3 L 174.6 163.9 L 177.2 167.7 L 179.6 171.7 L 179.7 176.2 L 176.6 179.6 L 172.1 179.8 L 168.7 176.7 L 167.2 173.1 Z M 167.3 96.5 L 162.3 91.1 L 157.6 85.4 L 153.1 79.5 L 150.8260760307312 76.16843690872193 L 150.4 76.4 L 145.5 78.9 L 140.3 81.3 L 134.7 83.7 L 133.7 82.2 L 138.4 78.3 L 142.7 74.6 L 146.9 71.1 L 147.3038007736206 70.76867628097534 L 144.8 66.7 L 141.1 59.8 L 137.8 52.7 L 135.25789470672606 45.8 L 122.44854364395141 45.8 L 121.4 48.2 L 116.1 58.1 L 110.1 67.6 L 109.33018865585328 68.63018865585327 L 111.2 70.5 L 114.1 73.8 L 116.8 77.3 L 117.5 81.8 L 114.8 85.5 L 110.3 86.2 L 106.6 83.5 L 104.9 80.2 L 103.0 77.1 L 102.98045110702515 77.07067670822144 L 95.8 85.4 L 87.6 93.6 L 78.6 101.3 L 68.8 108.4 L 67.6 107.0 L 76.0 98.5 L 83.7 89.9 L 90.8 81.1 L 97.2 72.2 L 98.22884769439698 70.55745363235474 L 96.4 68.5 L 93.8 65.8 L 91.0 63.3 L 88.1 60.8 L 84.9 58.3 L 81.5 56.2 L 82.1 54.5 L 86.2 55.5 L 90.3 56.7 L 94.2 58.3 L 97.9 60.2 L 101.5 62.3 L 102.80161542892456 63.25707015991211 L 102.9 63.1 L 107.9 53.7 L 111.43854169845581 45.8 L 70.9 45.8 L 70.9 41.8 L 113.06836738586426 41.8 L 115.9 34.3 L 118.8 24.1 L 121.0 13.7 L 121.01366529464721 13.702895164489746 L 121.4 11.9 L 132.8 16.2 L 135.3 18.8 L 131.71860466003417 20.03720932006836 L 129.7 27.2 L 125.9 37.9 L 124.19611654281616 41.8 L 161.3 41.8 L 171.3 31.8 L 183.3 41.8 L 183.3 45.8 L 137.74285717010497 45.8 L 141.4 50.6 L 146.1 56.7 L 150.8 62.6 L 153.38209037780763 65.67653322219849 L 154.4 64.8 L 157.7 61.8 L 160.7 59.0 L 163.3 56.3 L 165.7 53.8 L 167.06836519241332 52.157961750030516 L 167.0 52.1 L 168.0 51.1 L 176.2 59.9 L 176.9 63.5 L 172.93752183914185 62.45724258422852 L 170.2 64.4 L 166.9 66.7 L 163.2 69.1 L 159.2 71.5 L 158.6915789604187 71.79052629470826 L 160.3 73.6 L 165.2 78.6 L 170.2 83.4 L 175.3 87.9 L 180.6 92.2 L 186.0 96.1 L 188.8 98.3 L 177.9 106.5 L 172.5 101.7 Z M 155.8 99.0 L 155.8 103.0 L 99.1 103.0 L 99.1 99.0 L 133.8 99.0 L 143.8 89.0 Z " />
</g>
</svg>
