<svg xmlns="http://www.w3.org/2000/svg" xmlns:xlink="http://www.w3.org/1999/xlink" version="1.1" baseProfile="full" viewBox="0 0 200 200" width="200" height="200">
<g fill="black">
<path d="M 30.8 175.1 L 46.1 175.1 L 47.0 174.9 L 47.6 174.7 L 47.9 174.5 L 48.1 174.4 L 48.2 174.2 L 48.4 173.9 L 48.6 173.3 L 48.8 172.4 L 48.8 119.8 L 12.0 119.8 L 12.0 115.8 L 48.8 115.8 L 48.8 76.2 L 15.8 76.2 L 15.8 72.2 L 48.8 72.2 L 48.8 34.50722894668579 L 43.1 35.4 L 34.3 36.6 L 24.9 37.7 L 15.0 38.5 L 14.7 36.7 L 24.2 33.9 L 33.3 31.4 L 41.8 29.0 L 49.7 26.7 L 57.0 24.4 L 63.8 22.2 L 70.0 20.0 L 75.6 17.9 L 80.6 15.7 L 84.11237249374389 14.023640346527099 L 84.1 14.0 L 84.12146787643432 14.019299411773682 L 85.0 13.6 L 85.82660884857178 15.552203941345216 L 94.0 22.9 L 94.1 26.1 L 90.24284477233887 24.472762680053712 L 89.7 24.7 L 84.6 26.4 L 79.0 28.0 L 72.9 29.6 L 66.3 31.2 L 60.8 32.26944446563721 L 60.8 72.2 L 71.9 72.2 L 81.9 62.2 L 93.9 72.2 L 93.9 76.2 L 60.8 76.2 L 60.8 115.8 L 79.41818180084229 115.8 L 87.6 106.8 L 96.5 114.81000003814697 L 96.5 111.4 L 130.5 111.4 L 130.5 55.2 L 142.5 57.2 L 145.5 59.2 L 142.5 61.0 L 142.5 111.4 L 159.51818180084229 111.4 L 167.7 102.4 L 177.7 111.4 L 177.7 115.4 L 142.5 115.4 L 142.5 178.0 L 166.1 178.0 L 176.1 168.0 L 188.1 178.0 L 188.1 182.0 L 85.4 182.0 L 85.4 178.0 L 130.5 178.0 L 130.5 115.4 L 97.15555553436279 115.4 L 97.6 115.8 L 97.6 119.8 L 60.8 119.8 L 60.8 171.1 L 60.7 173.7 L 60.2 176.2 L 59.4 178.6 L 58.2 180.9 L 56.6 182.9 L 54.5 184.5 L 52.3 185.7 L 49.9 186.6 L 47.4 187.0 L 44.8 187.1 L 44.8 181.1 L 30.8 178.1 Z M 91.6 50.1 L 130.5 50.1 L 130.5 13.6 L 142.5 15.6 L 145.5 17.6 L 142.5 19.4 L 142.5 50.1 L 160.0 50.1 L 170.0 40.1 L 182.0 50.1 L 182.0 54.1 L 91.6 54.1 Z " />
</g>
</svg>
