<svg xmlns="http://www.w3.org/2000/svg" xmlns:xlink="http://www.w3.org/1999/xlink" version="1.1" baseProfile="full" viewBox="0 0 200 200" width="200" height="200">
<g fill="black">
<path d="M 148.5 155.0 L 159.8 155.0 L 160.7 154.8 L 161.6 154.5 L 162.0 154.1 L 162.3 153.2 L 162.5 152.3 L 162.5 85.6 L 136.5 85.6 L 136.5 182.6 L 124.5 188.6 L 124.5 85.6 L 98.4 85.6 L 98.4 160.1 L 86.4 166.1 L 86.4 75.6 L 98.4 81.6 L 124.5 81.6 L 124.5 55.2 L 81.0 55.2 L 81.0 57.0 L 53.6 57.0 L 53.6 100.30454549789428 L 54.1 100.1 L 60.7 97.5 L 67.2 94.9 L 73.9 92.4 L 80.6 90.1 L 81.4 91.8 L 75.6 95.8 L 69.6 99.7 L 63.5 103.4 L 57.4 106.9 L 53.6 109.01111106872558 L 53.6 171.0 L 53.4 173.5 L 53.0 176.0 L 52.2 178.4 L 50.9 180.7 L 49.3 182.7 L 47.3 184.3 L 45.0 185.6 L 42.6 186.4 L 40.1 186.8 L 37.6 187.0 L 37.6 181.0 L 23.6 178.0 L 23.6 175.0 L 37.6 175.0 L 38.8 174.9 L 39.7 174.7 L 40.6 174.4 L 41.0 174.0 L 41.3 173.1 L 41.5 172.2 L 41.6 171.0 L 41.6 115.55 L 32.0 120.5 L 25.5 123.8 L 22.640983200073244 125.2075159072876 L 22.0 129.0 L 19.0 127.0 L 12.3 116.9 L 14.1 116.1 L 20.9 113.4 L 27.6 110.8 L 34.2 108.1 L 40.9 105.4 L 41.6 105.12424240112304 L 41.6 57.0 L 14.9 57.0 L 14.9 53.0 L 41.6 53.0 L 41.6 14.0 L 53.6 16.0 L 56.6 18.0 L 53.6 19.8 L 53.6 53.0 L 62.81818180084228 53.0 L 71.0 44.0 L 79.0 51.2 L 140.81999998092653 51.2 L 142.1 48.0 L 143.6 43.9 L 145.2 39.9 L 146.8 36.0 L 148.3 32.1 L 149.9 28.3 L 151.4 24.4 L 152.9 20.6 L 154.3 16.8 L 155.35228176116942 14.018969535827637 L 155.3 14.0 L 156.2 11.9 L 166.6 18.1 L 168.5 21.1 L 164.57357034683227 21.573879432678222 L 162.4 25.3 L 160.2 28.9 L 157.9 32.4 L 155.5 36.0 L 153.0 39.5 L 150.5 42.9 L 147.8 46.3 L 144.9 49.7 L 143.5818181991577 51.2 L 169.01818180084229 51.2 L 177.2 42.2 L 187.2 51.2 L 187.2 55.2 L 136.5 55.2 L 136.5 81.6 L 162.5 81.6 L 168.5 76.6 L 179.5 85.6 L 174.5 89.6 L 174.5 151.0 L 174.4 153.6 L 174.0 156.1 L 173.2 158.5 L 171.9 160.8 L 170.3 162.8 L 168.3 164.4 L 166.0 165.7 L 163.6 166.5 L 161.1 166.9 L 158.5 167.0 L 158.5 161.0 L 148.5 158.0 Z M 109.2 39.7 L 108.2 36.7 L 107.0 33.8 L 105.7 30.9 L 104.2 28.0 L 102.4 25.2 L 100.5 22.3 L 98.4 19.5 L 95.8 16.9 L 96.9 15.4 L 100.2 17.3 L 103.5 19.1 L 106.5 21.3 L 109.4 23.7 L 112.1 26.4 L 114.5 29.2 L 116.7 32.3 L 118.7 35.6 L 120.5 39.1 L 122.1 42.7 L 121.5 47.2 L 117.9 50.1 L 113.4 49.5 L 110.5 46.0 L 109.9 42.8 Z " />
</g>
</svg>
