<svg xmlns="http://www.w3.org/2000/svg" xmlns:xlink="http://www.w3.org/1999/xlink" version="1.1" baseProfile="full" viewBox="0 0 200 200" width="200" height="200">
<g fill="black">
<path d="M 157.8 169.3 L 149.3 160.6 L 141.7 150.9 L 140.28827648162843 148.59780473709105 L 134.2 156.9 L 124.2 167.3 L 113.0 176.1 L 100.8 183.3 L 87.5 188.8 L 86.8 187.1 L 98.9 180.0 L 109.8 171.9 L 119.5 162.6 L 128.2 152.2 L 135.55444736480712 140.87802181243896 L 135.2 140.3 L 129.7 128.8 L 125.2 116.5 L 121.7 103.2 L 119.3 89.1 L 118.67621097564697 80.59378643035889 L 114.9 86.7 L 109.8 93.8 L 104.2 100.5 L 102.7 99.4 L 106.6 91.8 L 110.2 84.0 L 113.7 76.1 L 117.1 68.0 L 120.1 59.6 L 123.0 51.0 L 125.6 42.1 L 127.9 32.9 L 130.0 23.5 L 131.61598405838012 14.7018648147583 L 131.6 14.7 L 131.71428575515748 14.16666669845581 L 131.8 13.7 L 131.81368913650513 13.702784252166747 L 132.2 11.9 L 143.6 16.1 L 146.1 18.7 L 142.6522388458252 19.89104480743408 L 141.1 26.1 L 138.3 35.8 L 135.2 45.1 L 131.7 54.1 L 128.76551723480225 61.0 L 165.8 61.0 L 175.8 51.0 L 187.8 61.0 L 187.8 65.0 L 169.47894735336303 65.0 L 166.7 82.6 L 162.5 100.3 L 157.2 116.6 L 150.7 131.5 L 146.07530193328859 139.54817581176758 L 149.9 144.8 L 157.3 153.1 L 165.5 160.3 L 174.4 166.7 L 184.0 172.1 L 189.0 174.8 L 177.8 183.8 L 167.3 177.0 Z M 65.5 173.0 L 77.5 173.0 L 78.8 172.9 L 79.7 172.7 L 80.6 172.4 L 80.8 172.2 L 80.9 172.0 L 81.1 171.7 L 81.3 171.1 L 81.5 170.2 L 81.5 152.0 L 47.9 152.0 L 47.9 181.0 L 35.9 187.0 L 35.9 113.57142858505249 L 35.5 114.2 L 30.3 121.5 L 24.8 128.4 L 18.9 134.8 L 12.7 140.5 L 11.4 139.4 L 16.0 132.4 L 20.4 125.2 L 24.8 117.9 L 29.0 110.3 L 33.0 102.4 L 35.9 96.14210529327393 L 35.9 94.0 L 36.705940628051756 94.40297031402588 L 36.8 94.2 L 40.4 85.7 L 43.34157304763794 78.0 L 12.7 78.0 L 12.7 74.0 L 44.77391300201416 74.0 L 47.0 67.6 L 49.9 58.0 L 49.91807231903076 58.006024074554446 L 50.4 56.5 L 61.3 61.8 L 63.6 64.6 L 59.91103410720825 65.44134311676025 L 57.6 71.5 L 56.55161294937134 74.0 L 84.3 74.0 L 94.3 64.0 L 106.3 74.0 L 106.3 78.0 L 54.874193572998045 78.0 L 53.7 80.8 L 49.5 89.8 L 45.1 98.3 L 44.96635074615479 98.5331753730774 L 47.9 100.0 L 81.5 100.0 L 87.5 95.0 L 98.5 104.0 L 93.5 108.0 L 93.5 169.0 L 93.4 171.5 L 93.0 174.0 L 92.1 176.4 L 90.9 178.7 L 89.3 180.7 L 87.3 182.3 L 85.0 183.6 L 82.6 184.4 L 80.1 184.8 L 77.5 185.0 L 77.5 179.0 L 65.5 176.0 Z M 47.9 127.0 L 47.9 148.0 L 81.5 148.0 L 81.5 127.0 Z M 126.9397590637207 65.0 L 124.0 71.1 L 120.75173625946044 77.00593404769897 L 123.4 88.3 L 127.4 101.7 L 132.0 114.0 L 137.2 125.3 L 140.53632287979127 131.02735424041748 L 142.3 127.5 L 147.7 113.3 L 152.1 97.6 L 155.5 80.7 L 157.3627119064331 65.0 Z M 47.9 104.0 L 47.9 123.0 L 81.5 123.0 L 81.5 104.0 Z M 75.7 53.7 L 71.5 49.5 L 66.9 45.3 L 63.82125053405762 42.590700435638425 L 63.5 42.8 L 56.4 47.2 L 48.6 51.5 L 40.3 55.7 L 31.4 59.8 L 21.8 63.8 L 21.0 62.1 L 29.6 56.5 L 37.7 51.1 L 45.2 45.9 L 52.2 40.9 L 57.15199422836304 37.031254577636716 L 56.5 36.5 L 50.7 31.9 L 44.5 27.3 L 38.0 22.4 L 31.2 17.2 L 32.1 15.7 L 40.0 19.1 L 47.4 22.7 L 54.3 26.4 L 60.8 30.3 L 63.42362937927246 31.908030891418456 L 64.4 31.1 L 69.6 26.4 L 74.2 21.8 L 78.3 17.3 L 81.05363531112671 13.736472034454346 L 81.0 13.7 L 82.1 12.4 L 91.0 20.5 L 92.0 24.0 L 88.22266397476196 23.403578567504884 L 86.6 25.1 L 81.6 29.6 L 76.1 34.0 L 71.68899078369141 37.30825691223144 L 72.7 38.0 L 78.0 41.9 L 83.0 45.8 L 87.5 49.7 L 91.7 53.7 L 93.2 58.0 L 91.3 62.2 L 87.0 63.7 L 82.8 61.7 L 79.5 57.8 Z " />
</g>
</svg>
