<svg xmlns="http://www.w3.org/2000/svg" xmlns:xlink="http://www.w3.org/1999/xlink" version="1.1" baseProfile="full" viewBox="0 0 200 200" width="200" height="200">
<g fill="black">
<path d="M 122.0 176.2 L 142.0 176.2 L 143.2 176.1 L 144.1 176.0 L 144.7 175.8 L 145.0 175.6 L 145.2 175.4 L 145.4 175.3 L 145.5 174.9 L 145.7 174.3 L 145.9 173.4 L 146.0 172.2 L 146.0 158.9 L 54.0 158.9 L 54.0 182.2 L 42.0 188.2 L 42.0 109.2 L 54.0 115.2 L 146.0 115.2 L 152.0 110.2 L 163.0 119.2 L 158.0 123.2 L 158.0 172.2 L 157.8 174.7 L 157.4 177.2 L 156.6 179.6 L 155.3 181.9 L 153.7 183.9 L 151.7 185.6 L 149.4 186.8 L 147.0 187.6 L 144.5 188.0 L 142.0 188.2 L 142.0 182.2 L 122.0 179.2 Z M 54.0 139.0 L 54.0 154.9 L 146.0 154.9 L 146.0 139.0 Z M 54.0 119.2 L 54.0 135.0 L 146.0 135.0 L 146.0 119.2 Z M 155.3 105.1 L 145.0 101.4 L 135.4 97.2 L 126.4 92.4 L 123.00349273681641 90.19022417068481 L 116.7 93.2 L 104.4 97.9 L 91.1 102.1 L 76.7 105.7 L 61.2 108.6 L 60.7 106.8 L 75.7 102.0 L 89.4 97.0 L 102.0 91.8 L 113.4 86.3 L 115.58684978485107 85.0564971923828 L 110.6 81.2 L 103.8 74.7 L 97.8 67.7 L 94.11685142517089 61.987361431121826 L 90.1 65.0 L 84.9 68.5 L 79.4 71.8 L 73.5 74.9 L 72.4 73.4 L 77.1 68.8 L 81.5 64.3 L 85.8 60.0 L 89.8 55.8 L 93.6 51.7 L 97.1 47.5 L 100.3 43.5 L 103.3 39.4 L 106.0 35.4 L 107.90571584701539 32.303211784362794 L 107.9 32.3 L 108.0875 32.0 L 76.17528085708618 32.0 L 82.3 38.9 L 82.9 42.5 L 79.25238094329833 41.45782308578491 L 76.7 43.6 L 70.9 48.1 L 64.7 52.5 L 58.3 56.8 L 54.45 59.19166669845581 L 58.7 59.9 L 61.7 61.9 L 58.7 63.7 L 58.7 104.7 L 46.7 110.7 L 46.7 63.75714282989502 L 44.7 64.9 L 37.5 68.7 L 30.0 72.3 L 22.2 75.7 L 14.1 78.7 L 13.2 77.1 L 20.4 72.3 L 27.4 67.6 L 34.2 63.0 L 40.7 58.4 L 46.9 53.8 L 52.9 49.2 L 58.6 44.5 L 64.1 39.8 L 69.3 35.0 L 72.3 32.0 L 15.0 32.0 L 15.0 28.0 L 94.0 28.0 L 94.0 12.2 L 106.0 14.2 L 109.0 16.2 L 106.0 18.0 L 106.0 28.0 L 163.0 28.0 L 173.0 18.0 L 185.0 28.0 L 185.0 32.0 L 110.54666662216187 32.0 L 118.4 38.2 L 119.8 41.5 L 115.84347295761108 41.298820686340335 L 115.1 42.2 L 111.6 46.2 L 109.89230766296387 48.0 L 156.0 48.0 L 156.21793718338012 47.818385696411134 L 156.7 47.0 L 156.99863481521606 47.16780433654785 L 162.0 43.0 L 173.0 52.0 L 168.0 55.0 L 164.83699426651 56.31791906356811 L 161.6 61.0 L 154.8 68.6 L 146.9 75.6 L 137.9 82.0 L 132.8283652305603 84.96263809204102 L 139.5 87.8 L 148.8 91.0 L 158.6 93.8 L 169.0 96.1 L 180.1 97.9 L 189.7 99.5 L 177.8 110.9 L 166.3 108.3 Z M 105.90256414413452 52.0 L 103.8 54.0 L 99.5 57.7 L 95.99736232757569 60.517339038848874 L 100.9 64.9 L 107.7 70.3 L 114.9 75.4 L 122.6 80.0 L 123.6 80.5 L 132.6 74.4 L 140.4 68.0 L 147.0 61.2 L 152.4 54.3 L 153.7547945022583 52.0 Z M 121.6 66.5 L 121.3 65.6 L 120.7 64.6 L 119.8 63.5 L 118.7 62.2 L 117.3 60.9 L 115.7 59.6 L 113.9 58.1 L 111.6 57.2 L 112.2 55.5 L 114.6 56.2 L 117.0 56.3 L 119.2 56.6 L 121.3 56.9 L 123.3 57.3 L 125.1 57.8 L 126.8 58.4 L 128.5 59.1 L 130.0 60.1 L 131.5 61.3 L 132.2 65.8 L 129.5 69.6 L 125.0 70.2 L 121.3 67.5 L 121.6 67.2 Z " />
</g>
</svg>
