<svg xmlns="http://www.w3.org/2000/svg" xmlns:xlink="http://www.w3.org/1999/xlink" version="1.1" baseProfile="full" viewBox="0 0 200 200" width="200" height="200">
<g fill="black">
<path d="M 169.8 161.0 L 166.1 155.2 L 162.6 148.8 L 159.3 141.9 L 156.0 134.2 L 152.9 126.0 L 150.0 117.1 L 147.3 107.5 L 146.5 103.91739130020142 L 146.5 184.0 L 134.5 190.0 L 134.5 113.34146337509155 L 132.7 117.6 L 128.4 126.9 L 123.7 135.8 L 118.7 144.3 L 113.3 152.3 L 107.6 159.9 L 101.5 167.1 L 95.0 173.6 L 88.0 179.6 L 86.7 178.3 L 92.1 171.1 L 97.3 163.7 L 102.2 156.1 L 106.9 148.3 L 111.3 140.1 L 115.4 131.6 L 119.2 122.8 L 122.8 113.6 L 126.0 104.1 L 127.80740737915039 98.0 L 99.8 98.0 L 99.8 94.0 L 134.5 94.0 L 134.5 55.0 L 103.2 55.0 L 103.2 51.0 L 134.5 51.0 L 134.5 15.0 L 146.5 17.0 L 149.5 19.0 L 146.5 20.8 L 146.5 51.0 L 158.4 51.0 L 168.4 41.0 L 180.4 51.0 L 180.4 55.0 L 146.5 55.0 L 146.5 94.0 L 164.2 94.0 L 174.2 84.0 L 186.2 94.0 L 186.2 98.0 L 147.36315793991088 98.0 L 151.2 106.1 L 155.5 114.9 L 159.6 123.1 L 163.6 130.7 L 167.5 137.5 L 171.5 143.7 L 175.3 149.1 L 179.2 153.9 L 182.9 157.9 L 186.5 161.1 L 188.2 162.8 L 177.5 170.8 L 173.5 166.2 Z M 78.4 139.4 L 76.2 135.5 L 73.8 131.6 L 71.2 127.6 L 68.4 123.6 L 65.4 119.4 L 62.2 115.2 L 61.3 114.02727270126343 L 61.3 183.0 L 49.3 189.0 L 49.3 125.4 L 48.4 127.8 L 44.4 137.0 L 40.1 145.5 L 35.4 153.6 L 30.4 161.1 L 25.0 167.9 L 19.2 174.1 L 13.0 179.6 L 11.7 178.3 L 16.3 171.7 L 20.7 164.8 L 24.8 157.5 L 28.8 149.9 L 32.4 141.9 L 35.8 133.3 L 38.9 124.4 L 41.8 114.9 L 44.3 105.0 L 45.7777777671814 98.0 L 13.3 98.0 L 13.3 94.0 L 49.3 94.0 L 49.3 55.0 L 19.1 55.0 L 19.1 51.0 L 49.3 51.0 L 49.3 15.0 L 61.3 17.0 L 64.3 19.0 L 61.3 20.8 L 61.3 51.0 L 67.7 51.0 L 77.7 41.0 L 89.7 51.0 L 89.7 55.0 L 61.3 55.0 L 61.3 94.0 L 74.4 94.0 L 84.4 84.0 L 96.4 94.0 L 96.4 98.0 L 61.3 98.0 L 61.3 107.97083330154419 L 61.5 108.1 L 66.0 111.5 L 70.2 115.0 L 74.1 118.6 L 77.8 122.3 L 81.2 126.0 L 84.5 129.8 L 87.4 133.7 L 90.2 137.6 L 92.7 141.5 L 93.0 146.1 L 90.2 149.6 L 85.6 150.0 L 82.1 147.1 L 80.3 143.3 Z " />
</g>
</svg>
