<svg xmlns="http://www.w3.org/2000/svg" xmlns:xlink="http://www.w3.org/1999/xlink" version="1.1" baseProfile="full" viewBox="0 0 200 200" width="200" height="200">
<g fill="black">
<path d="M 160.2 172.8 L 151.9 168.4 L 144.0 163.8 L 136.4 158.8 L 129.2 153.6 L 122.5 148.0 L 116.1 142.1 L 110.3 135.8 L 106.0 130.36415090560914 L 106.0 182.7 L 94.0 188.7 L 94.0 136.70645160675048 L 92.5 138.4 L 85.8 145.0 L 78.6 151.2 L 70.8 156.9 L 62.5 162.3 L 53.7 167.1 L 44.4 171.6 L 34.5 175.5 L 24.2 178.9 L 13.2 181.7 L 12.7 180.0 L 22.8 175.4 L 32.4 170.6 L 41.4 165.7 L 49.9 160.6 L 57.9 155.2 L 65.2 149.5 L 72.1 143.6 L 78.3 137.4 L 84.0 130.9 L 84.8625 129.7 L 18.0 129.7 L 18.0 125.7 L 94.0 125.7 L 94.0 103.4 L 106.0 105.4 L 109.0 107.4 L 106.0 109.2 L 106.0 125.7 L 160.0 125.7 L 170.0 115.7 L 182.0 125.7 L 182.0 129.7 L 108.93673467636108 129.7 L 119.9 137.6 L 126.8 142.2 L 134.0 146.7 L 141.3 150.9 L 149.0 154.9 L 156.8 158.6 L 165.0 162.0 L 173.4 165.2 L 182.2 168.2 L 189.3 170.7 L 177.7 180.6 L 168.8 176.9 Z M 106.1 21.7 L 107.2 25.1 L 102.34752473831176 24.514356422424317 L 101.3 25.3 L 99.5 26.6 L 97.7 27.8 L 95.8 29.1 L 93.8 30.3 L 91.7 31.5 L 91.33333330154419 31.7 L 147.0 31.7 L 153.0 26.7 L 164.0 35.7 L 159.0 39.7 L 159.0 59.4 L 147.0 65.4 L 147.0 59.4 L 55.0 59.4 L 55.0 71.8 L 152.0 71.8 L 158.0 66.8 L 169.0 75.8 L 164.0 79.8 L 164.0 105.1 L 152.0 111.1 L 152.0 101.1 L 55.0 101.1 L 55.0 108.1 L 43.0 114.1 L 43.0 25.7 L 55.0 31.7 L 87.39473686218261 31.7 L 87.9 31.1 L 89.1 28.9 L 92.4 22.9 L 93.4 21.1 L 94.3 19.3 L 95.9 15.9 L 96.19441766738892 15.227045249938964 L 96.0 15.1 L 97.0 13.7 Z M 55.0 75.8 L 55.0 97.1 L 152.0 97.1 L 152.0 75.8 Z M 55.0 35.7 L 55.0 55.4 L 147.0 55.4 L 147.0 35.7 Z " />
</g>
</svg>
