<svg xmlns="http://www.w3.org/2000/svg" xmlns:xlink="http://www.w3.org/1999/xlink" version="1.1" baseProfile="full" viewBox="0 0 200 200" width="200" height="200">
<g fill="black">
<path d="M 62.7 103.8 L 61.4 101.5 L 59.9 99.2 L 58.3 96.9 L 56.5 94.7 L 54.5 92.5 L 52.4 90.3 L 51.4 89.3 L 51.4 182.8 L 39.4 188.8 L 39.4 96.27333335876465 L 38.6 98.7 L 35.3 107.7 L 31.6 116.3 L 27.7 124.7 L 23.3 132.8 L 18.6 140.5 L 13.4 147.9 L 11.8 147.0 L 15.2 138.8 L 18.5 130.5 L 21.6 122.1 L 24.6 113.6 L 27.3 104.9 L 29.7 96.0 L 31.9 87.0 L 33.9 77.7 L 35.6 68.2 L 36.520930194854735 61.6 L 12.6 61.6 L 12.6 57.6 L 39.4 57.6 L 39.4 12.1 L 51.4 14.1 L 54.4 16.1 L 51.4 17.9 L 51.4 57.6 L 53.8 57.6 L 63.8 47.6 L 75.8 57.6 L 75.8 61.6 L 51.4 61.6 L 51.4 85.66129035949707 L 51.5 85.7 L 54.7 86.8 L 57.7 88.1 L 60.6 89.6 L 63.4 91.3 L 66.0 93.2 L 68.6 95.3 L 70.9 97.5 L 73.2 99.9 L 75.3 102.4 L 75.9 106.9 L 73.2 110.6 L 68.7 111.2 L 65.0 108.5 L 63.9 106.1 Z M 111.3 182.8 L 108.8 182.4 L 106.4 181.6 L 104.2 180.3 L 102.1 178.7 L 100.5 176.7 L 99.3 174.4 L 98.5 172.0 L 98.0 169.5 L 97.9 167.0 L 97.9 128.0 L 109.9 130.0 L 112.9 132.0 L 109.9 133.8 L 109.9 167.0 L 110.0 168.2 L 110.1 169.1 L 110.3 169.7 L 110.5 170.0 L 110.6 170.2 L 110.8 170.4 L 111.2 170.5 L 111.7 170.7 L 112.7 170.9 L 113.9 171.0 L 159.6 171.0 L 165.6 146.0 L 167.6 146.0 L 165.6 171.0 L 169.2 173.4 L 171.6 177.0 L 169.2 180.6 L 165.6 183.0 L 113.9 183.0 Z M 62.2 174.6 L 61.4 170.1 L 64.0 166.3 L 66.5 164.8 L 68.9 162.8 L 71.2 160.5 L 73.3 157.6 L 75.2 154.2 L 76.8 150.2 L 78.3 145.7 L 79.6 140.7 L 80.6 135.1 L 81.5 129.0 L 83.3 128.9 L 84.1 135.2 L 84.6 141.1 L 84.5 146.7 L 83.9 152.0 L 82.9 156.9 L 81.5 161.6 L 79.5 165.9 L 77.0 169.8 L 74.0 173.3 L 70.5 176.4 L 66.0 177.1 Z M 175.0 159.2 L 174.3 155.4 L 173.5 151.8 L 172.6 148.3 L 171.5 144.8 L 170.2 141.3 L 168.8 138.0 L 167.4 134.6 L 165.6 131.3 L 167.0 130.1 L 169.8 132.7 L 172.7 135.4 L 175.3 138.4 L 177.7 141.6 L 179.8 145.0 L 181.8 148.7 L 183.6 152.5 L 185.2 156.5 L 186.5 160.7 L 187.7 165.0 L 186.6 169.5 L 182.8 171.9 L 178.3 170.8 L 175.9 167.0 L 175.5 163.0 Z M 135.1 145.7 L 133.8 142.8 L 130.8 137.4 L 129.1 134.8 L 127.3 132.3 L 125.4 129.9 L 123.3 127.4 L 120.9 125.2 L 121.9 123.7 L 124.9 125.1 L 128.0 126.5 L 131.0 128.2 L 133.9 130.2 L 136.6 132.4 L 139.2 134.8 L 141.7 137.5 L 144.0 140.4 L 146.2 143.4 L 148.2 146.7 L 148.4 151.3 L 145.3 154.7 L 140.8 154.8 L 137.4 151.8 L 136.3 148.7 Z M 93.2 24.0 L 168.5 24.0 L 174.5 19.0 L 185.5 28.0 L 180.5 32.0 L 180.5 117.0 L 168.5 123.0 L 168.5 117.0 L 93.2 117.0 L 81.2 123.0 L 81.2 18.0 Z M 93.2 28.0 L 93.2 113.0 L 168.5 113.0 L 168.5 28.0 Z M 151.3 93.1 L 149.7 90.4 L 147.9 87.5 L 145.9 84.7 L 143.7 81.7 L 141.4 78.7 L 139.0 75.6 L 136.4 72.4 L 135.74633274078369 71.70125226974487 L 133.8 79.0 L 130.9 85.8 L 127.1 92.0 L 122.4 97.4 L 117.0 102.0 L 110.8 105.9 L 103.9 108.8 L 96.3 110.8 L 95.8 109.1 L 102.3 105.3 L 107.9 101.3 L 112.7 97.0 L 116.7 92.4 L 119.9 87.4 L 122.4 82.0 L 124.2 76.1 L 125.2 69.7 L 125.6 62.8 L 125.37105264663697 57.0 L 100.0 57.0 L 100.0 53.0 L 125.3 53.0 L 125.3 32.0 L 137.3 34.0 L 140.3 36.0 L 137.3 37.8 L 137.3 53.0 L 145.6 53.0 L 155.6 43.0 L 167.6 53.0 L 167.6 57.0 L 137.21976747512818 57.0 L 137.0 63.3 L 136.18859910964966 68.84457244873047 L 138.3 70.1 L 142.0 72.2 L 145.4 74.5 L 148.6 76.8 L 151.7 79.3 L 154.5 81.8 L 157.2 84.3 L 159.7 86.9 L 162.1 89.5 L 164.3 92.3 L 164.9 96.8 L 162.3 100.5 L 157.8 101.2 L 154.0 98.5 L 152.8 95.9 Z " />
</g>
</svg>
