<svg xmlns="http://www.w3.org/2000/svg" xmlns:xlink="http://www.w3.org/1999/xlink" version="1.1" baseProfile="full" viewBox="0 0 200 200" width="200" height="200">
<g fill="black">
<path d="M 95.2 146.6 L 96.5 149.9 L 92.62665348052978 149.63287267684936 L 92.4 149.9 L 86.2 156.7 L 82.9 160.0 L 79.4 163.3 L 75.8 166.5 L 72.0 169.7 L 68.1 172.8 L 67.86972179412842 172.96448440551757 L 71.9 172.9 L 85.0 172.7 L 98.6 172.4 L 112.6 172.2 L 127.2 172.0 L 142.3 172.0 L 152.12465543746947 172.12595710754394 L 148.8 169.3 L 144.5 166.0 L 139.9 162.7 L 135.1 159.3 L 129.9 155.9 L 124.5 152.3 L 125.2 150.6 L 131.6 152.5 L 137.5 154.6 L 143.2 157.0 L 148.5 159.6 L 153.6 162.3 L 158.3 165.3 L 162.8 168.3 L 167.0 171.5 L 170.9 174.9 L 174.5 178.4 L 175.9 182.8 L 173.9 186.9 L 169.5 188.2 L 165.4 186.2 L 162.7 182.8 L 159.7 179.4 L 156.4 176.0 L 154.56802892684937 174.3206932067871 L 142.5 175.8 L 127.5 177.4 L 113.0 178.8 L 98.9 180.0 L 85.4 181.1 L 72.4 182.2 L 59.8 183.1 L 47.8 184.0 L 36.2 184.8 L 29.29194507598877 185.3024040222168 L 27.3 188.5 L 25.2 185.6 L 22.7 173.7 L 24.7 173.6 L 35.8 173.5 L 47.3 173.3 L 59.4 173.1 L 61.50102701187134 173.06638355255126 L 64.5 169.1 L 67.5 165.2 L 70.4 161.4 L 73.2 157.7 L 75.9 154.0 L 78.5 150.3 L 83.3 143.1 L 84.117142868042 141.8 L 14.0 141.8 L 14.0 137.8 L 94.0 137.8 L 94.0 114.4 L 27.0 114.4 L 27.0 110.4 L 94.0 110.4 L 94.0 91.5 L 106.0 93.5 L 109.0 95.5 L 106.0 97.3 L 106.0 110.4 L 151.0 110.4 L 161.0 100.4 L 173.0 110.4 L 173.0 114.4 L 106.0 114.4 L 106.0 137.8 L 164.0 137.8 L 174.0 127.8 L 186.0 137.8 L 186.0 141.8 L 89.46493511199951 141.8 Z M 84.6 70.0 L 82.9 67.5 L 81.0 65.1 L 78.9 62.7 L 76.5 60.3 L 73.9 58.0 L 71.0 55.6 L 69.0 54.0 L 69.0 93.9 L 57.0 99.9 L 57.0 57.51904764175415 L 54.1 61.8 L 49.6 67.7 L 44.7 73.1 L 39.4 78.2 L 33.7 82.8 L 27.7 86.9 L 21.2 90.5 L 14.4 93.6 L 13.5 92.0 L 19.1 87.4 L 24.4 82.7 L 29.4 77.8 L 34.0 72.8 L 38.2 67.6 L 42.2 62.1 L 45.7 56.3 L 48.9 50.3 L 51.8 44.1 L 52.655813980102536 41.8 L 18.0 41.8 L 18.0 37.8 L 57.0 37.8 L 57.0 12.2 L 69.0 14.2 L 72.0 16.2 L 69.0 18.0 L 69.0 37.8 L 77.0 37.8 L 87.0 27.8 L 99.0 37.8 L 99.0 41.8 L 69.0 41.8 L 69.0 50.54499998092651 L 69.2 50.6 L 73.1 51.7 L 76.8 53.1 L 80.4 54.7 L 83.7 56.5 L 86.9 58.6 L 89.8 60.8 L 92.6 63.2 L 95.1 65.9 L 97.5 68.7 L 98.2 73.3 L 95.5 77.0 L 91.0 77.6 L 87.3 75.0 L 86.0 72.5 Z M 166.3 84.2 L 161.7 79.8 L 157.5 75.0 L 153.5 70.1 L 149.9 64.8 L 146.6 59.3 L 143.8 53.5 L 143.0 51.46666669845581 L 143.0 93.9 L 131.0 99.9 L 131.0 56.86571426391602 L 129.9 58.5 L 126.2 63.3 L 122.3 67.9 L 118.0 72.2 L 113.6 76.1 L 108.8 79.6 L 103.8 82.7 L 98.5 85.4 L 97.4 83.9 L 101.5 79.7 L 105.3 75.6 L 109.0 71.4 L 112.4 67.1 L 115.6 62.6 L 118.6 57.9 L 121.4 53.1 L 124.0 48.1 L 126.3 42.9 L 126.69032258987427 41.8 L 101.0 41.8 L 101.0 37.8 L 131.0 37.8 L 131.0 12.2 L 143.0 14.2 L 146.0 16.2 L 143.0 18.0 L 143.0 37.8 L 160.0 37.8 L 170.0 27.8 L 182.0 37.8 L 182.0 41.8 L 143.0 41.8 L 143.0 42.7 L 145.1 45.5 L 148.8 50.5 L 152.6 55.2 L 156.5 59.7 L 160.6 64.0 L 164.8 67.9 L 169.2 71.6 L 173.8 75.0 L 178.5 78.2 L 183.5 81.1 L 187.5 83.6 L 176.4 92.3 L 171.2 88.4 Z " />
</g>
</svg>
