<svg xmlns="http://www.w3.org/2000/svg" xmlns:xlink="http://www.w3.org/1999/xlink" version="1.1" baseProfile="full" viewBox="0 0 200 200" width="200" height="200">
<g fill="black">
<path d="M 33.5 22.0 L 60.3 22.0 L 66.3 17.0 L 77.3 26.0 L 72.3 30.0 L 72.3 171.0 L 72.1 173.5 L 71.7 176.0 L 70.9 178.4 L 69.7 180.7 L 68.0 182.7 L 66.0 184.3 L 63.7 185.6 L 61.3 186.4 L 58.8 186.8 L 56.3 187.0 L 56.3 181.0 L 40.3 178.0 L 40.3 175.0 L 56.3 175.0 L 57.5 174.9 L 58.4 174.7 L 59.3 174.4 L 59.7 174.0 L 59.9 173.7 L 60.1 173.1 L 60.2 172.2 L 60.3 171.0 L 60.3 114.0 L 33.5 114.0 L 33.5 118.0 L 33.1 128.7 L 32.3 138.7 L 31.1 147.9 L 29.6 156.3 L 27.8 163.9 L 25.6 170.6 L 23.0 176.6 L 20.0 181.6 L 16.5 185.7 L 12.7 188.6 L 11.4 187.3 L 13.4 183.4 L 15.2 179.1 L 16.9 174.1 L 18.3 168.5 L 19.5 162.0 L 20.5 154.8 L 21.1 146.8 L 21.6 138.0 L 21.7 128.4 L 21.5 118.0 L 21.5 16.0 Z M 171.5 164.1 L 169.5 157.3 L 168.11791200637816 153.02809162139891 L 164.1 154.5 L 154.3 157.9 L 144.7 161.1 L 135.4 164.0 L 126.3 166.8 L 117.6 169.4 L 109.1 171.9 L 101.0 174.2 L 93.1 176.5 L 89.50333337783813 177.50706663131714 L 88.2 181.0 L 85.6 178.6 L 80.9 167.3 L 82.8 166.9 L 90.5 165.4 L 98.5 163.8 L 102.41657733917236 162.98802661895752 L 104.3 155.7 L 106.7 147.0 L 109.1 138.4 L 111.4 130.0 L 113.7 121.7 L 115.8 113.5 L 117.7 105.4 L 119.5 97.3 L 121.2 89.4 L 122.09375 85.0 L 80.6 85.0 L 80.6 81.0 L 165.4 81.0 L 175.4 71.0 L 187.4 81.0 L 187.4 85.0 L 134.30506324768066 85.0 L 132.3 92.2 L 129.9 100.1 L 127.4 108.1 L 124.7 116.1 L 121.8 124.2 L 118.6 132.4 L 115.3 140.6 L 111.8 148.8 L 107.9 157.1 L 105.10460538864136 162.43075256347657 L 106.7 162.1 L 115.3 160.4 L 124.3 158.5 L 133.5 156.6 L 143.0 154.7 L 152.9 152.7 L 163.2 150.9 L 167.19749279022216 150.22118043899536 L 164.8 143.7 L 162.0 136.8 L 159.0 129.8 L 155.8 122.8 L 152.4 115.6 L 148.9 108.3 L 150.4 107.3 L 155.6 113.6 L 160.4 120.1 L 164.8 126.7 L 168.8 133.4 L 172.5 140.2 L 175.9 147.0 L 178.9 153.8 L 181.7 160.7 L 184.1 167.7 L 186.3 174.6 L 185.5 179.1 L 181.8 181.9 L 177.3 181.1 L 174.6 177.4 L 173.2 170.8 Z M 33.5 69.0 L 33.5 110.0 L 60.3 110.0 L 60.3 69.0 Z M 33.5 26.0 L 33.5 65.0 L 60.3 65.0 L 60.3 26.0 Z M 178.5 30.0 L 178.5 34.0 L 89.5 34.0 L 89.5 30.0 L 156.5 30.0 L 166.5 20.0 Z " />
</g>
</svg>
