<svg xmlns="http://www.w3.org/2000/svg" xmlns:xlink="http://www.w3.org/1999/xlink" version="1.1" baseProfile="full" viewBox="0 0 200 200" width="200" height="200">
<g fill="black">
<path d="M 57.7 103.6 L 56.5 101.3 L 55.2 99.0 L 53.8 96.8 L 52.2 94.6 L 50.5 92.4 L 48.7 90.2 L 48.4 89.85500001907349 L 48.4 182.8 L 36.4 188.8 L 36.4 99.46129035949707 L 33.6 107.5 L 30.3 116.2 L 26.6 124.6 L 22.6 132.7 L 18.2 140.5 L 13.4 147.8 L 11.8 147.0 L 14.8 138.8 L 17.7 130.6 L 20.5 122.2 L 23.1 113.7 L 25.5 105.0 L 27.7 96.1 L 29.7 87.1 L 31.5 77.8 L 33.0 68.3 L 33.847126483917236 61.6 L 12.6 61.6 L 12.6 57.6 L 36.4 57.6 L 36.4 12.1 L 48.4 14.1 L 51.4 16.1 L 48.4 17.9 L 48.4 57.6 L 51.81818180084228 57.6 L 60.0 48.6 L 70.0 57.6 L 70.0 61.6 L 48.4 61.6 L 48.4 85.91379308700562 L 51.0 86.9 L 53.8 88.2 L 56.5 89.7 L 59.1 91.5 L 61.6 93.4 L 63.9 95.4 L 66.1 97.6 L 68.2 100.0 L 70.1 102.5 L 70.5 107.1 L 67.7 110.7 L 63.2 111.1 L 59.6 108.3 L 58.7 105.9 Z M 161.9 168.8 L 155.4 160.0 L 149.7038101196289 150.40641708374022 L 146.2 156.5 L 138.4 167.0 L 129.6 175.9 L 120.0 183.2 L 109.6 188.7 L 108.7 187.2 L 117.7 180.1 L 125.9 172.1 L 133.2 162.9 L 139.7 152.5 L 145.3777979850769 140.94518308639528 L 144.9 139.9 L 140.8 128.5 L 137.5 116.2 L 135.0 103.0 L 133.4 89.0 L 133.13333330154418 82.33333330154419 L 131.1 86.4 L 127.0 93.6 L 122.5 100.4 L 120.9 99.5 L 123.6 92.0 L 126.2 84.3 L 128.7 76.4 L 131.2 68.3 L 133.4 59.9 L 135.5 51.3 L 137.4 42.4 L 139.2 33.2 L 140.7 23.8 L 142.0 14.0 L 142.0326385498047 14.00521116256714 L 142.3 12.0 L 153.9 15.9 L 156.5 18.3 L 153.1384835243225 19.669506740570068 L 151.9 25.8 L 149.7 35.4 L 147.2 44.8 L 144.5 53.8 L 141.98837213516236 61.0 L 168.21818180084227 61.0 L 176.4 52.0 L 186.4 61.0 L 186.4 65.0 L 173.69789476394652 65.0 L 171.5 82.4 L 168.3 100.0 L 164.1 116.3 L 159.1 131.1 L 155.3193660736084 139.54341583251954 L 158.6 145.3 L 164.4 153.6 L 170.7 160.9 L 177.5 167.2 L 184.9 172.5 L 188.3 174.9 L 177.3 183.4 L 169.2 176.6 Z M 101.9 155.3 L 98.7 149.2 L 98.03954992294311 148.01919536590577 L 96.2 150.9 L 90.9 158.5 L 85.4 165.5 L 79.7 171.8 L 73.9 177.4 L 67.9 182.1 L 66.7 180.8 L 71.1 174.8 L 75.6 168.4 L 80.1 161.6 L 84.5 154.3 L 89.0 146.5 L 92.85080766677856 139.14845819473265 L 91.9 137.6 L 88.3 131.9 L 84.5 126.4 L 80.6 120.9 L 76.7 115.5 L 72.6 110.0 L 73.9 108.7 L 79.4 112.9 L 84.6 117.4 L 89.6 122.2 L 94.3 127.3 L 97.02602310180664 130.510649394989 L 97.7 129.1 L 102.0 119.5 L 106.3 109.4 L 110.14457368850708 99.51395349502563 L 110.1 99.5 L 111.0 97.3 L 121.6 103.1 L 123.6 106.1 L 119.97952756881713 106.67165355682373 L 116.7 113.9 L 111.8 124.1 L 106.7 133.6 L 103.61846103668213 138.93343276977538 L 107.2 144.0 L 111.2 150.0 L 115.0 156.1 L 118.6 162.5 L 118.8 167.1 L 115.8 170.5 L 111.2 170.8 L 107.8 167.8 L 104.9 161.5 Z M 140.50952377319337 65.0 L 138.3 70.8 L 135.36239995956421 77.7119999885559 L 137.5 88.4 L 140.7 101.8 L 144.4 114.3 L 148.6 125.7 L 149.9851035118103 128.73543958663942 L 150.3 127.9 L 154.4 113.6 L 157.7 97.9 L 160.2 80.9 L 161.6212290763855 65.0 Z M 100.9 76.4 L 97.9 70.2 L 96.8448410987854 68.15775699615479 L 92.8 73.5 L 87.4 80.1 L 81.7 86.2 L 75.7 91.7 L 69.4 96.6 L 68.2 95.3 L 72.9 89.2 L 77.6 82.8 L 82.2 76.1 L 86.6 69.2 L 90.9 61.9 L 92.19891700744628 59.54957885742188 L 91.5 58.3 L 88.2 52.6 L 84.6 47.0 L 77.4 36.0 L 73.7 30.5 L 75.0 29.3 L 80.2 33.5 L 85.2 38.1 L 89.9 43.0 L 94.3 48.2 L 96.64073209762573 51.13952398300171 L 99.0 46.3 L 102.9 37.9 L 106.5 29.2 L 109.70777025222779 21.002364826202392 L 109.7 21.0 L 110.6 18.7 L 121.2 24.5 L 123.2 27.5 L 119.58756856918335 28.070383930206297 L 117.0 33.8 L 112.5 42.6 L 107.9 51.0 L 103.1 59.0 L 102.79873418807983 59.45189876556397 L 106.6 65.3 L 110.4 71.4 L 114.0 77.8 L 117.4 84.4 L 117.4 88.9 L 114.3 92.3 L 109.8 92.4 L 106.4 89.3 L 103.7 82.7 Z " />
</g>
</svg>
