<svg xmlns="http://www.w3.org/2000/svg" xmlns:xlink="http://www.w3.org/1999/xlink" version="1.1" baseProfile="full" viewBox="0 0 200 200" width="200" height="200">
<g fill="black">
<path d="M 68.8 176.0 L 88.8 176.0 L 90.0 175.9 L 90.9 175.7 L 91.8 175.4 L 92.2 175.0 L 92.5 174.1 L 92.7 173.2 L 92.8 172.0 L 92.8 69.0 L 61.0 69.0 L 61.0 65.0 L 92.8 65.0 L 92.8 13.0 L 104.8 15.0 L 107.8 17.0 L 104.8 18.8 L 104.8 65.0 L 107.1 65.0 L 111.6 59.0 L 117.6 65.0 L 117.6 69.0 L 104.8 69.0 L 104.8 172.0 L 104.6 174.5 L 104.2 177.0 L 103.4 179.4 L 102.2 181.7 L 100.5 183.7 L 98.5 185.3 L 96.2 186.6 L 93.8 187.4 L 91.3 187.8 L 88.8 188.0 L 88.8 182.0 L 68.8 179.0 Z M 177.6 174.2 L 176.3 176.4 L 174.8 178.4 L 173.0 180.2 L 170.9 181.6 L 168.6 182.7 L 166.2 183.4 L 163.7 183.8 L 161.2 184.0 L 161.2 178.0 L 147.2 175.0 L 147.2 172.0 L 161.2 172.0 L 162.5 171.9 L 163.5 171.7 L 164.3 171.5 L 164.9 171.2 L 165.9 170.4 L 166.3 169.9 L 166.7 169.1 L 167.1 168.2 L 167.4 166.9 L 168.2 162.9 L 168.9 158.5 L 169.6 153.8 L 170.2 148.7 L 170.7 143.2 L 171.1 137.4 L 171.5 131.3 L 171.8 124.8 L 172.1 118.0 L 172.1694444656372 113.0 L 170.4797872543335 113.0 L 168.4 121.5 L 165.7 130.4 L 162.7 139.0 L 159.4 147.2 L 155.7 154.9 L 151.6 162.3 L 147.2 169.1 L 142.4 175.5 L 137.2 181.3 L 131.5 186.5 L 130.2 185.4 L 134.2 179.0 L 138.0 172.5 L 141.6 165.8 L 144.9 158.8 L 148.0 151.5 L 150.7 143.8 L 153.2 135.9 L 155.4 127.5 L 157.3 118.9 L 158.27088603973388 113.0 L 153.82250003814698 113.0 L 150.8 120.8 L 147.5 128.4 L 143.9 135.7 L 140.0 142.7 L 135.8 149.4 L 131.3 155.6 L 126.6 161.6 L 121.5 167.1 L 116.1 172.1 L 110.4 176.6 L 109.1 175.3 L 113.3 169.5 L 117.4 163.6 L 121.3 157.6 L 125.0 151.5 L 128.5 145.0 L 131.8 138.4 L 134.8 131.5 L 137.6 124.3 L 140.1 116.8 L 141.21379308700563 113.0 L 136.1148148536682 113.0 L 135.7 113.7 L 132.3 118.7 L 128.7 123.3 L 125.0 127.4 L 121.0 131.1 L 116.7 134.2 L 112.2 136.7 L 111.1 135.2 L 114.1 131.4 L 117.0 127.4 L 119.9 123.3 L 122.6 118.9 L 125.1 114.2 L 127.5 109.2 L 129.8 103.9 L 131.9 98.3 L 133.9 92.4 L 135.44022731781007 87.00920457839966 L 135.4 87.0 L 133.7 87.0 L 121.7 93.0 L 121.7 15.0 L 133.7 21.0 L 167.1 21.0 L 173.1 16.0 L 184.1 25.0 L 179.1 29.0 L 179.1 91.0 L 167.1 97.0 L 167.1 87.0 L 141.4884614944458 87.0 L 147.2 89.7 L 149.4 92.6 L 145.7276285171509 93.43755836486817 L 144.6 96.3 L 141.8 102.5 L 138.9 108.3 L 138.4851851463318 109.0 L 172.2 109.0 L 178.2 104.0 L 189.2 113.0 L 184.2 116.0 L 184.13249139785768 116.0281286239624 L 184.1 118.4 L 183.8 125.3 L 183.5 132.0 L 183.1 138.3 L 182.6 144.3 L 182.1 149.9 L 181.5 155.3 L 180.8 160.3 L 180.0 165.0 L 179.1 169.4 L 178.5 171.9 Z M 46.1 134.0 L 43.6078200340271 128.42924480438234 L 42.4 132.2 L 37.7 144.3 L 32.4 155.7 L 26.6 166.2 L 20.0 175.8 L 12.8 184.5 L 11.4 183.4 L 16.8 173.8 L 21.8 163.6 L 26.5 152.9 L 30.6 141.6 L 34.3 129.7 L 37.5 117.0 L 37.68075313568115 116.14142255783081 L 35.7 112.4 L 32.1 106.0 L 28.4 99.9 L 24.6 94.1 L 20.8 88.6 L 17.0 83.3 L 18.2 82.0 L 23.6 86.0 L 28.7 90.7 L 33.6 95.9 L 38.4 101.7 L 40.199184036254884 104.17887582778931 L 40.3 103.7 L 42.5 89.7 L 44.2 74.9 L 45.41559534072876 60.49987001419068 L 45.4 60.5 L 45.6 57.3 L 57.4 60.4 L 60.2 62.7 L 56.92976589202881 64.3351170539856 L 55.5 76.3 L 53.1 91.4 L 50.1 105.7 L 47.633656883239745 115.08580560684204 L 51.7 121.8 L 55.8 129.4 L 59.8 137.5 L 63.7 145.9 L 63.6 150.5 L 60.4 153.7 L 55.8 153.6 L 52.6 150.4 L 49.4 142.0 Z M 74.8 119.2 L 74.0 115.4 L 73.0 111.6 L 71.8 107.9 L 70.5 104.2 L 69.0 100.5 L 67.3 96.8 L 65.5 93.0 L 63.4 89.3 L 64.8 88.1 L 68.1 91.0 L 71.2 94.0 L 74.1 97.3 L 76.8 100.8 L 79.2 104.4 L 81.3 108.2 L 83.3 112.2 L 85.0 116.3 L 86.5 120.6 L 87.7 124.9 L 86.7 129.4 L 82.8 131.9 L 78.4 130.9 L 75.9 127.0 L 75.4 123.1 Z M 133.7 56.0 L 133.7 83.0 L 167.1 83.0 L 167.1 56.0 Z M 12.7 51.0 L 32.4 51.0 L 32.4 15.0 L 44.4 17.0 L 47.4 19.0 L 44.4 20.8 L 44.4 51.0 L 47.018181800842285 51.0 L 55.2 42.0 L 65.2 51.0 L 65.2 55.0 L 12.7 55.0 Z M 133.7 25.0 L 133.7 52.0 L 167.1 52.0 L 167.1 25.0 Z " />
</g>
</svg>
