<svg xmlns="http://www.w3.org/2000/svg" xmlns:xlink="http://www.w3.org/1999/xlink" version="1.1" baseProfile="full" viewBox="0 0 200 200" width="200" height="200">
<g fill="black">
<path d="M 62.0 99.3 L 60.2 97.0 L 58.3 94.8 L 56.2 92.5 L 53.9 90.3 L 52.5 88.95833330154419 L 52.5 182.8 L 40.5 188.8 L 40.5 94.94193544387818 L 39.2 98.8 L 35.7 107.7 L 31.9 116.4 L 27.7 124.8 L 23.2 132.8 L 18.3 140.6 L 12.9 147.9 L 11.4 147.0 L 15.0 138.7 L 18.4 130.4 L 21.8 122.0 L 24.9 113.5 L 27.7 104.8 L 30.3 96.0 L 32.6 86.9 L 34.7 77.6 L 36.5 68.2 L 37.49767446517944 61.6 L 12.1 61.6 L 12.1 57.6 L 40.5 57.6 L 40.5 12.1 L 52.5 14.1 L 55.5 16.1 L 52.5 17.9 L 52.5 57.6 L 56.4 57.6 L 66.4 47.6 L 78.4 57.6 L 78.4 61.6 L 52.5 61.6 L 52.5 85.58181819915771 L 52.8 85.7 L 56.1 86.7 L 59.3 88.0 L 62.3 89.6 L 65.2 91.3 L 68.0 93.1 L 70.6 95.2 L 73.0 97.4 L 75.4 99.8 L 77.6 102.3 L 78.2 106.8 L 75.6 110.6 L 71.1 111.3 L 67.4 108.7 L 65.0 103.9 Z M 103.9 175.8 L 119.9 175.8 L 121.2 175.7 L 122.1 175.5 L 122.7 175.4 L 123.0 175.2 L 123.2 175.0 L 123.3 174.8 L 123.5 174.5 L 123.7 173.9 L 123.9 173.0 L 123.9 131.3 L 105.3 131.3 L 93.3 137.3 L 93.3 92.9 L 105.3 98.9 L 154.5 98.9 L 160.5 93.9 L 171.5 102.9 L 166.5 106.9 L 166.5 131.3 L 154.5 137.3 L 154.5 131.3 L 135.9 131.3 L 135.9 171.8 L 135.8 174.3 L 135.3 176.8 L 134.5 179.2 L 133.3 181.5 L 131.7 183.5 L 129.6 185.2 L 127.4 186.4 L 125.0 187.2 L 122.5 187.6 L 119.9 187.8 L 119.9 181.8 L 103.9 178.8 Z M 107.4 147.0 L 109.2 150.1 L 105.29414415359497 150.3693694114685 L 104.9 151.0 L 102.1 154.8 L 99.1 158.5 L 95.8 162.1 L 92.3 165.6 L 88.5 168.9 L 84.5 172.1 L 80.1 175.1 L 75.5 177.9 L 70.6 180.5 L 69.5 179.0 L 73.2 175.1 L 76.8 171.2 L 80.1 167.4 L 83.2 163.7 L 86.1 160.0 L 88.7 156.3 L 91.1 152.6 L 93.2 149.0 L 95.1 145.3 L 96.30919828414918 142.503729057312 L 96.3 142.5 L 96.57692308425904 141.88461542129517 L 96.7 141.6 L 96.70407466888427 141.60205631256105 L 97.2 140.5 Z M 168.1 165.8 L 165.9 162.7 L 163.7 159.8 L 161.4 157.0 L 158.9 154.3 L 156.3 151.7 L 153.6 149.3 L 150.8 146.8 L 147.7 144.6 L 148.4 143.0 L 152.2 144.1 L 156.0 145.3 L 159.6 146.9 L 163.2 148.8 L 166.6 151.0 L 169.9 153.5 L 173.1 156.2 L 176.2 159.2 L 179.2 162.4 L 182.0 165.9 L 182.8 170.4 L 180.3 174.2 L 175.8 175.0 L 172.0 172.4 L 170.1 169.0 Z M 105.3 102.9 L 105.3 127.3 L 154.5 127.3 L 154.5 102.9 Z M 74.1 81.8 L 123.9 81.8 L 123.9 63.3 L 102.5 63.3 L 102.5 66.3 L 90.5 72.3 L 90.5 13.5 L 102.5 19.5 L 157.3 19.5 L 163.3 14.5 L 174.3 23.5 L 169.3 27.5 L 169.3 65.3 L 157.3 71.3 L 157.3 63.3 L 135.9 63.3 L 135.9 81.8 L 169.61818180084228 81.8 L 177.8 72.8 L 187.8 81.8 L 187.8 85.8 L 74.1 85.8 Z M 102.5 42.8 L 102.5 59.3 L 157.3 59.3 L 157.3 42.8 Z M 102.5 23.5 L 102.5 38.8 L 157.3 38.8 L 157.3 23.5 Z " />
</g>
</svg>
