<svg xmlns="http://www.w3.org/2000/svg" xmlns:xlink="http://www.w3.org/1999/xlink" version="1.1" baseProfile="full" viewBox="0 0 200 200" width="200" height="200">
<g fill="black">
<path d="M 110.3 176.0 L 130.3 176.0 L 131.6 175.9 L 132.5 175.7 L 133.4 175.4 L 133.6 175.2 L 133.7 175.0 L 133.9 174.7 L 134.1 174.1 L 134.3 173.2 L 134.3 144.0 L 91.3 144.0 L 91.3 140.0 L 166.5 140.0 L 176.5 130.0 L 188.5 140.0 L 188.5 144.0 L 146.3 144.0 L 146.3 172.0 L 146.2 174.5 L 145.7 177.0 L 144.9 179.4 L 143.7 181.7 L 142.1 183.7 L 140.1 185.3 L 137.8 186.6 L 135.4 187.4 L 132.9 187.8 L 130.3 188.0 L 130.3 182.0 L 110.3 179.0 Z M 122.6 157.4 L 123.7 160.8 L 119.84830589294434 160.3351403236389 L 119.6 160.6 L 116.4 163.6 L 113.1 166.5 L 109.6 169.2 L 106.0 171.8 L 102.3 174.2 L 98.4 176.4 L 94.3 178.4 L 90.0 180.1 L 85.6 181.7 L 84.8 180.2 L 88.3 177.3 L 91.6 174.3 L 94.8 171.4 L 97.9 168.5 L 100.8 165.5 L 103.6 162.5 L 106.2 159.5 L 108.6 156.4 L 110.9 153.3 L 112.53466320037842 150.92230806350707 L 112.5 150.9 L 113.5 149.5 Z M 172.8 173.5 L 171.5 171.1 L 169.9 168.7 L 168.2 166.2 L 166.1 163.7 L 163.9 161.1 L 161.4 158.5 L 158.7 155.7 L 155.6 153.2 L 156.5 151.7 L 160.2 153.4 L 163.9 155.0 L 167.3 156.7 L 170.5 158.6 L 173.5 160.6 L 176.3 162.7 L 178.9 165.0 L 181.2 167.4 L 183.4 169.9 L 185.4 172.5 L 185.7 177.1 L 182.8 180.6 L 178.3 181.0 L 174.7 178.1 L 173.9 175.8 Z M 68.7 179.8 L 67.1 181.7 L 65.3 183.3 L 63.3 184.8 L 61.2 185.9 L 58.9 186.8 L 56.5 187.5 L 54.1 187.8 L 51.6 188.0 L 51.6 182.0 L 35.6 179.0 L 35.6 176.0 L 51.6 176.0 L 52.9 175.9 L 54.1 175.7 L 55.2 175.4 L 56.1 175.1 L 57.7 174.1 L 58.4 173.4 L 59.1 172.6 L 59.8 171.5 L 60.5 170.3 L 61.2 168.0 L 62.1 162.5 L 63.1 154.4 L 63.55849056243896 149.0 L 30.458345890045166 149.0 L 29.7 161.3 L 17.4 166.5 L 22.09875774383545 90.0 L 11.6 90.0 L 11.6 86.0 L 22.344444465637206 86.0 L 26.3 21.6 L 37.380597019195555 28.0 L 68.5 28.0 L 74.5 23.0 L 85.5 32.0 L 80.5 35.0 L 80.38121213912964 35.049494934082034 L 79.9 55.1 L 79.2 77.8 L 78.91724138259887 86.0 L 81.8 86.0 L 86.3 80.0 L 92.3 86.0 L 92.3 90.0 L 78.77931032180786 90.0 L 78.5 98.1 L 77.7 116.0 L 76.9 131.6 L 76.0 144.8 L 75.9814814567566 145.0 L 78.9 145.0 L 83.4 139.0 L 89.4 145.0 L 89.4 149.0 L 75.61111106872559 149.0 L 75.0 155.6 L 74.0 164.2 L 72.8 170.7 L 71.3 175.5 L 70.1 177.7 Z M 34.095939826965335 90.0 L 30.70496244430542 145.0 L 63.89811325073242 145.0 L 64.0 143.8 L 64.9 130.8 L 65.8 115.4 L 66.5 97.6 L 66.76336631774902 90.0 Z M 48.0 122.9 L 47.4 119.5 L 46.8 116.4 L 46.0 113.5 L 45.2 110.8 L 44.2 108.2 L 43.2 105.7 L 42.1 103.3 L 40.6 101.3 L 41.8 99.9 L 44.1 101.4 L 46.5 103.1 L 48.8 105.1 L 50.9 107.5 L 52.9 110.2 L 54.8 113.2 L 56.5 116.5 L 58.0 120.0 L 59.4 123.8 L 60.7 127.9 L 59.7 132.4 L 55.9 134.9 L 51.4 133.9 L 48.9 130.1 L 48.5 126.4 Z M 174.5 121.0 L 174.5 125.0 L 105.3 125.0 L 105.3 121.0 L 156.3181818008423 121.0 L 164.5 112.0 Z M 115.2 52.1 L 166.3 52.1 L 171.8 47.1 L 182.3 56.1 L 177.3 59.6 L 177.3 106.6 L 166.3 112.1 L 166.3 106.6 L 115.2 106.6 L 104.2 112.1 L 104.2 46.6 Z M 115.2 56.1 L 115.2 102.6 L 166.3 102.6 L 166.3 56.1 Z M 133.4 67.9 L 148.1 67.9 L 153.6 62.9 L 164.1 71.9 L 159.1 75.4 L 159.1 89.3 L 148.1 94.8 L 148.1 89.3 L 133.4 89.3 L 122.4 94.8 L 122.4 62.4 Z M 37.67187967300415 32.0 L 34.342556381225585 86.0 L 66.90198020935058 86.0 L 67.2 77.4 L 67.9 54.8 L 68.44720001220703 32.0 Z M 133.4 71.9 L 133.4 85.3 L 148.1 85.3 L 148.1 71.9 Z M 50.4 64.4 L 50.0 61.4 L 49.5 58.6 L 48.9 55.9 L 48.3 53.4 L 47.5 50.9 L 46.7 48.6 L 45.8 46.2 L 44.4 44.3 L 45.6 43.0 L 47.7 44.5 L 49.9 46.1 L 52.1 48.1 L 54.0 50.3 L 55.8 52.8 L 57.5 55.6 L 59.0 58.6 L 60.4 61.9 L 61.6 65.4 L 62.7 69.0 L 61.6 73.5 L 57.7 75.9 L 53.3 74.8 L 50.8 70.9 L 50.6 67.6 Z M 93.3 35.3 L 134.8 35.3 L 134.8 13.0 L 146.8 15.0 L 149.8 17.0 L 146.8 18.8 L 146.8 35.3 L 170.01818180084229 35.3 L 178.2 26.3 L 188.2 35.3 L 188.2 39.3 L 93.3 39.3 Z " />
</g>
</svg>
