<svg xmlns="http://www.w3.org/2000/svg" xmlns:xlink="http://www.w3.org/1999/xlink" version="1.1" baseProfile="full" viewBox="0 0 200 200" width="200" height="200">
<g fill="black">
<path d="M 81.1 173.6 L 100.4 173.6 L 100.4 63.3 L 112.4 69.3 L 155.9 69.3 L 161.9 64.3 L 165.18409090042115 66.98698348999024 L 165.4 66.3 L 166.2 62.8 L 166.9 59.5 L 167.7 56.4 L 168.3 53.5 L 168.9 50.7 L 169.5 48.1 L 169.9 45.6 L 169.98695650100709 45.1 L 97.38823528289795 45.1 L 97.6 47.8 L 97.7 52.5 L 97.6 56.8 L 97.2 60.7 L 96.7 64.3 L 95.8 67.7 L 94.7 70.8 L 93.0 73.6 L 88.9 75.5 L 84.6 74.1 L 82.6 70.0 L 84.0 65.6 L 85.1 64.9 L 86.2 63.4 L 87.4 61.4 L 88.6 58.7 L 89.7 55.4 L 90.7 51.7 L 91.7 47.4 L 92.6 42.5 L 93.5 37.2 L 94.1 31.4 L 95.9 31.4 L 96.6 37.3 L 97.0222222328186 41.1 L 127.7 41.1 L 127.7 12.1 L 139.7 14.1 L 142.7 16.1 L 139.7 17.9 L 139.7 41.1 L 170.3 41.1 L 176.3 36.1 L 187.3 45.1 L 182.3 48.1 L 179.58151655197145 49.23270139694214 L 178.3 51.5 L 176.9 53.9 L 175.3 56.4 L 173.7 59.0 L 171.9 61.7 L 169.9 64.5 L 167.8 67.4 L 167.094921875 68.550390625 L 172.9 73.3 L 167.9 77.3 L 167.9 173.6 L 173.0777777671814 173.6 L 179.3 166.6 L 187.3 173.6 L 187.3 177.6 L 81.1 177.6 Z M 13.2 160.9 L 19.3 159.5 L 23.7 158.48461542129516 L 23.7 69.0 L 35.7 71.0 L 38.7 73.0 L 35.7 74.8 L 35.7 155.33698625564574 L 40.0 154.1 L 47.6 151.9 L 48.0 151.775 L 48.0 38.0 L 13.7 38.0 L 13.7 34.0 L 67.3 34.0 L 77.3 24.0 L 89.3 34.0 L 89.3 38.0 L 60.0 38.0 L 60.0 88.0 L 67.5777777671814 88.0 L 73.8 81.0 L 81.8 88.0 L 81.8 92.0 L 60.0 92.0 L 60.0 148.02168674468993 L 63.9 146.8 L 72.7 144.0 L 81.9 141.1 L 91.5 138.1 L 92.2 139.8 L 83.3 144.6 L 74.7 148.9 L 66.3 152.9 L 58.2 156.5 L 50.5 159.9 L 43.0 162.9 L 35.8 165.7 L 29.0 168.2 L 22.4 170.5 L 20.141853046417236 171.22843446731568 L 18.9 174.9 L 16.2 172.5 L 11.2 161.4 Z M 112.4 141.9 L 112.4 173.6 L 155.9 173.6 L 155.9 141.9 Z M 112.4 107.6 L 112.4 137.9 L 155.9 137.9 L 155.9 107.6 Z M 112.4 73.3 L 112.4 103.6 L 155.9 103.6 L 155.9 73.3 Z " />
</g>
</svg>
