<svg xmlns="http://www.w3.org/2000/svg" xmlns:xlink="http://www.w3.org/1999/xlink" version="1.1" baseProfile="full" viewBox="0 0 200 200" width="200" height="200">
<g fill="black">
<path d="M 158.0 176.1 L 149.7 170.5 L 142.2 163.9 L 141.14989080429078 162.6883355140686 L 133.4 169.8 L 124.1 176.5 L 114.1 181.9 L 103.3 186.0 L 91.8 188.8 L 91.3 187.1 L 101.9 182.5 L 111.5 177.1 L 120.4 171.1 L 128.4 164.1 L 135.6 156.4 L 135.65290813446046 156.3280779838562 L 130.2 148.0 L 125.7 138.8 L 122.1 128.7 L 119.6 117.8 L 118.30769233703613 107.0 L 109.1 107.0 L 109.1 103.0 L 160.1 103.0 L 166.1 98.0 L 177.1 107.0 L 172.1 110.0 L 170.54937906265258 110.64609203338622 L 167.6 119.7 L 162.4 131.9 L 156.4 143.0 L 149.5 153.1 L 147.8009017944336 155.0897334098816 L 149.2 156.4 L 156.1 161.5 L 163.6 165.7 L 171.8 169.1 L 180.7 171.6 L 189.0 173.8 L 177.3 184.3 L 167.2 180.7 Z M 31.4 176.0 L 45.4 176.0 L 46.6 175.9 L 47.6 175.7 L 48.1 175.5 L 48.5 175.4 L 48.7 175.2 L 48.8 175.0 L 49.0 174.7 L 49.2 174.1 L 49.3 173.2 L 49.4 172.0 L 49.4 130.0 L 15.9 130.0 L 15.9 126.0 L 76.7 126.0 L 86.7 116.0 L 98.7 126.0 L 98.7 130.0 L 61.4 130.0 L 61.4 172.0 L 61.3 174.5 L 60.8 177.0 L 60.0 179.4 L 58.8 181.7 L 57.2 183.7 L 55.1 185.3 L 52.9 186.6 L 50.5 187.4 L 48.0 187.8 L 45.4 188.0 L 45.4 182.0 L 31.4 179.0 Z M 40.2 142.7 L 42.4 145.5 L 38.565853691101076 146.45853662490845 L 38.2 147.3 L 36.1 151.8 L 33.8 156.0 L 31.4 160.0 L 28.8 163.8 L 25.9 167.3 L 22.9 170.6 L 19.7 173.6 L 16.3 176.2 L 12.8 178.6 L 11.6 177.3 L 13.9 173.9 L 16.0 170.4 L 18.0 166.9 L 20.0 163.3 L 21.8 159.6 L 23.4 155.8 L 24.9 151.8 L 26.3 147.7 L 27.6 143.5 L 28.447389602661133 140.11044178009033 L 28.4 140.1 L 28.62857141494751 139.38571424484252 L 28.7 139.1 L 28.718178939819335 139.10569076538087 L 29.2 137.6 Z M 80.8 162.0 L 80.0 159.5 L 79.1 157.0 L 77.9 154.4 L 76.5 151.7 L 74.9 148.9 L 73.1 146.0 L 71.2 143.1 L 68.7 140.3 L 69.9 138.9 L 73.0 141.1 L 76.1 143.1 L 79.0 145.3 L 81.7 147.5 L 84.1 149.9 L 86.4 152.4 L 88.4 155.0 L 90.2 157.7 L 91.8 160.5 L 93.2 163.4 L 92.7 167.9 L 89.2 170.8 L 84.6 170.3 L 81.7 166.8 L 81.3 164.4 Z M 120.39633026123047 107.0 L 123.6 116.7 L 127.6 126.7 L 132.2 135.6 L 137.2 143.5 L 141.34501533508302 148.5903697013855 L 142.0 147.7 L 147.7 138.1 L 152.6 127.5 L 156.8 116.0 L 159.3 107.0 Z M 13.1 107.7 L 11.4 103.4 L 13.0 99.2 L 13.7 98.9 L 14.7 98.2 L 15.7 96.8 L 16.7 95.0 L 17.7 92.6 L 18.7 89.8 L 19.5 86.6 L 20.4 82.9 L 21.2 78.9 L 21.6 74.4 L 23.4 74.4 L 23.8 78.9 L 24.2 81.3 L 86.7 81.3 L 92.7 76.3 L 103.7 85.3 L 98.7 88.3 L 95.22086334228516 89.74964027404785 L 94.8 90.3 L 93.5 92.1 L 92.1 94.0 L 90.6 95.9 L 89.0 97.9 L 87.2 100.0 L 85.3 102.2 L 84.97600002288819 102.71840000152588 L 86.4 104.0 L 86.4 108.0 L 27.2 108.0 L 27.2 104.0 L 68.21818180084229 104.0 L 76.4 95.0 L 83.26720867156982 101.18048782348633 L 83.3 101.1 L 83.8 98.3 L 84.4 95.7 L 85.0 93.2 L 85.5 90.9 L 85.9 88.7 L 86.3 86.6 L 86.50526313781738 85.3 L 24.72564105987549 85.3 L 24.9 87.0 L 25.1 90.6 L 25.2 94.0 L 25.0 97.0 L 24.6 99.9 L 24.0 102.6 L 23.0 105.2 L 21.6 107.6 L 17.4 109.3 Z M 128.8 26.0 L 151.7 26.0 L 157.7 21.0 L 168.7 30.0 L 163.7 34.0 L 163.7 75.1 L 163.8 75.8 L 164.0 76.2 L 164.1 76.6 L 164.3 76.9 L 164.7 77.2 L 165.4 77.5 L 166.4 77.8 L 167.7 78.0 L 177.0 78.0 L 182.0 61.0 L 184.0 61.0 L 182.0 78.0 L 185.0 80.0 L 187.0 83.0 L 185.0 86.0 L 182.0 88.0 L 167.7 88.0 L 165.2 87.9 L 162.8 87.6 L 160.5 86.9 L 158.3 85.8 L 156.3 84.3 L 154.7 82.5 L 153.4 80.3 L 152.5 78.0 L 151.9 75.5 L 151.7 73.0 L 151.7 30.0 L 128.8 30.0 L 128.8 52.0 L 128.2 58.0 L 127.1 63.8 L 125.5 69.4 L 123.3 74.7 L 120.7 79.8 L 117.5 84.6 L 113.9 89.2 L 109.7 93.4 L 105.0 97.2 L 99.8 100.6 L 98.6 99.3 L 102.3 94.5 L 105.6 89.9 L 108.6 85.3 L 111.0 80.7 L 113.1 76.1 L 114.6 71.4 L 115.8 66.7 L 116.5 61.9 L 116.8 57.0 L 116.8 20.0 Z M 23.5 60.0 L 49.4 60.0 L 49.4 40.0 L 14.1 40.0 L 14.1 36.0 L 49.4 36.0 L 49.4 13.0 L 61.4 15.0 L 64.4 17.0 L 61.4 18.8 L 61.4 36.0 L 77.6 36.0 L 87.6 26.0 L 99.6 36.0 L 99.6 40.0 L 61.4 40.0 L 61.4 60.0 L 72.91818180084229 60.0 L 81.1 51.0 L 91.1 60.0 L 91.1 64.0 L 23.5 64.0 Z " />
</g>
</svg>
