<svg xmlns="http://www.w3.org/2000/svg" xmlns:xlink="http://www.w3.org/1999/xlink" version="1.1" baseProfile="full" viewBox="0 0 200 200" width="200" height="200">
<g fill="black">
<path d="M 71.0 176.0 L 91.0 176.0 L 92.2 175.9 L 93.1 175.7 L 94.0 175.4 L 94.4 175.0 L 94.7 174.1 L 94.9 173.2 L 95.0 172.0 L 95.0 95.0 L 107.0 97.0 L 110.0 99.0 L 107.0 100.8 L 107.0 112.56428575515747 L 110.3 119.4 L 115.0 127.4 L 120.2 134.7 L 122.94608297348023 137.77188940048217 L 123.0 137.7 L 125.6 134.2 L 128.3 130.7 L 131.0 127.3 L 133.6 124.0 L 141.7 114.1 L 144.3 110.8 L 146.27962884902954 108.36353368759156 L 146.2 108.3 L 146.45578317642213 108.01863842010498 L 145.1 106.7 L 138.6 99.3 L 132.7 91.4 L 128.54939756393432 84.9 L 75.95327873229981 84.9 L 73.6 88.2 L 63.7 99.4 L 52.8 109.7 L 40.8 118.8 L 27.6 126.9 L 13.4 133.8 L 12.5 132.2 L 25.6 123.7 L 37.5 114.5 L 48.4 104.8 L 58.1 94.3 L 65.46756753921508 84.9 L 14.0 84.9 L 14.0 80.9 L 68.2375 80.9 L 74.3 71.2 L 80.8 58.5 L 81.51470584869385 56.7 L 47.0 56.7 L 47.0 52.7 L 83.10294113159179 52.7 L 86.2 44.9 L 90.6 30.6 L 93.77926826477051 15.956097602844238 L 94.2 13.6 L 105.6 17.7 L 108.2 20.3 L 104.59812030792236 21.60977439880371 L 101.5 33.7 L 96.2 48.7 L 94.38439712524413 52.7 L 131.0 52.7 L 141.0 42.7 L 153.0 52.7 L 153.0 56.7 L 119.0 56.7 L 123.0 63.7 L 128.1 71.6 L 133.5 79.2 L 134.8887324333191 80.9 L 164.0 80.9 L 174.0 70.9 L 186.0 80.9 L 186.0 84.9 L 138.15633802413942 84.9 L 139.3 86.3 L 145.5 93.0 L 152.2 99.4 L 159.5 105.3 L 167.2 110.9 L 175.4 116.0 L 184.1 120.8 L 189.0 123.5 L 177.8 132.4 L 168.7 126.6 L 160.2 120.4 L 155.8325842857361 116.70449438095093 L 156.5 119.3 L 152.62759141921998 118.48475608825683 L 152.5 118.6 L 149.3 121.5 L 146.0 124.3 L 142.8 127.0 L 139.4 129.8 L 136.0 132.5 L 129.0 137.7 L 125.3 140.2 L 125.18395538330078 140.2752721786499 L 126.1 141.3 L 132.6 147.2 L 139.9 152.5 L 147.9 157.2 L 156.7 161.3 L 166.3 164.7 L 176.7 167.6 L 184.9 169.8 L 173.2 180.3 L 162.1 176.5 L 151.8 172.0 L 142.4 166.8 L 133.9 160.8 L 126.4 154.2 L 119.8 146.8 L 114.3 138.8 L 109.8 130.2 L 107.0 122.39393939971924 L 107.0 172.0 L 106.8 174.5 L 106.4 177.0 L 105.6 179.4 L 104.3 181.7 L 102.7 183.7 L 100.7 185.3 L 98.4 186.6 L 96.0 187.4 L 93.5 187.8 L 91.0 188.0 L 91.0 182.0 L 71.0 179.0 Z M 88.0 124.0 L 83.0 127.0 L 81.5493670463562 127.6044303894043 L 80.7 130.5 L 77.4 137.7 L 73.2 144.3 L 68.0 150.5 L 61.8 156.1 L 54.7 161.3 L 46.7 165.9 L 37.8 170.1 L 28.0 173.7 L 17.2 176.8 L 16.7 175.1 L 26.5 170.2 L 35.4 165.3 L 43.3 160.3 L 50.2 155.1 L 56.1 149.8 L 61.0 144.3 L 64.9 138.7 L 67.8 132.9 L 69.9 127.0 L 70.44098358154297 124.0 L 39.0 124.0 L 39.0 120.0 L 71.0 120.0 L 77.0 115.0 Z M 92.56879434585571 56.7 L 89.8 62.8 L 82.3 76.0 L 78.80573768615723 80.9 L 126.24883718490601 80.9 L 122.9 74.5 L 119.2 65.4 L 116.70106382369995 56.7 Z M 74.3 24.4 L 75.6 27.7 L 71.79119720458985 27.50299291610718 L 70.5 29.1 L 66.5 33.7 L 62.2 38.0 L 57.7 42.2 L 52.9 46.2 L 48.0 50.0 L 42.7 53.6 L 37.3 57.0 L 31.5 60.1 L 25.4 62.8 L 24.5 61.2 L 29.4 56.9 L 34.1 52.7 L 38.7 48.5 L 43.0 44.3 L 47.2 40.0 L 51.1 35.7 L 54.8 31.3 L 58.2 26.8 L 61.5 22.2 L 64.4 17.6 L 64.42286376953125 17.615704345703126 L 64.9 16.9 Z M 157.7 47.7 L 155.0 44.0 L 152.1 40.4 L 149.0 36.9 L 145.5 33.4 L 141.8 30.0 L 137.9 26.6 L 133.8 23.1 L 129.4 19.6 L 130.3 18.0 L 135.7 19.9 L 140.8 22.1 L 145.7 24.7 L 150.3 27.5 L 154.6 30.6 L 158.7 33.8 L 162.5 37.3 L 166.1 41.0 L 169.4 44.9 L 172.5 49.0 L 173.2 53.6 L 170.5 57.3 L 166.0 58.0 L 162.3 55.3 L 160.1 51.5 Z " />
</g>
</svg>
