<svg xmlns="http://www.w3.org/2000/svg" xmlns:xlink="http://www.w3.org/1999/xlink" version="1.1" baseProfile="full" viewBox="0 0 200 200" width="200" height="200">
<g fill="black">
<path d="M 70.0 176.3 L 91.2 176.3 L 92.1 176.1 L 92.7 175.9 L 93.0 175.7 L 93.2 175.6 L 93.4 175.4 L 93.7 174.5 L 93.9 173.6 L 94.0 172.3 L 94.0 139.4 L 53.0 139.4 L 41.0 145.4 L 41.0 98.9 L 53.0 104.9 L 88.51875 104.9 L 88.8 104.6 L 89.7 102.6 L 90.6 100.7 L 91.4 98.9 L 92.8 95.7 L 93.4 94.2 L 94.2 91.6 L 94.22002906799317 91.47982587814332 L 93.9 91.3 L 94.37727270126342 90.53636360168457 L 94.4 90.4 L 94.44385967254638 90.42982454299927 L 94.9 89.7 L 104.4 97.2 L 105.7 100.5 L 100.14550266265869 100.21269845962524 L 99.0 100.9 L 97.5 101.9 L 95.8 102.9 L 94.1 104.0 L 92.38999996185302 104.9 L 146.0 104.9 L 152.0 99.9 L 163.0 108.9 L 158.0 112.9 L 158.0 139.4 L 146.0 145.4 L 146.0 139.4 L 106.0 139.4 L 106.0 140.1666666984558 L 110.0 144.0 L 115.0 148.3 L 120.6 152.3 L 126.8 156.1 L 128.62318840026856 157.03840579986573 L 128.9 156.9 L 134.1 154.4 L 139.1 152.2 L 144.0 150.0 L 148.8 147.9 L 153.5 145.9 L 158.1 143.9 L 162.5 141.9 L 166.7 139.9 L 169.90682611465454 138.41390981674195 L 169.9 138.4 L 169.912779712677 138.411150932312 L 170.8 138.0 L 171.50852422714235 139.80351629257203 L 180.1 147.3 L 180.3 150.5 L 176.33753271102904 148.75891590118408 L 175.2 149.2 L 166.2 152.0 L 156.6 154.6 L 151.6 155.9 L 146.4 157.2 L 141.1 158.4 L 135.7 159.5 L 134.04157562255858 159.79095163345337 L 141.0 162.8 L 149.3 165.7 L 158.2 168.3 L 167.9 170.6 L 178.3 172.6 L 187.4 174.5 L 175.6 185.6 L 164.8 182.8 L 154.7 179.6 L 145.4 176.0 L 136.9 172.1 L 129.1 167.8 L 122.2 163.1 L 116.1 158.0 L 110.9 152.5 L 106.7 146.6 L 106.0 145.1300000190735 L 106.0 172.3 L 105.8 174.9 L 105.4 177.4 L 104.6 179.8 L 103.3 182.0 L 101.7 184.1 L 99.7 185.7 L 97.4 186.9 L 95.0 187.7 L 92.5 188.2 L 90.0 188.3 L 90.0 182.3 L 70.0 179.3 Z M 84.0 152.8 L 79.0 155.8 L 75.0880000114441 157.43000001907347 L 74.1 158.6 L 69.7 162.7 L 64.6 166.4 L 58.9 169.8 L 52.7 173.0 L 45.8 175.8 L 38.3 178.3 L 30.3 180.5 L 21.5 182.3 L 12.2 183.7 L 11.7 182.0 L 20.5 178.7 L 28.6 175.4 L 36.0 172.2 L 42.7 168.9 L 48.7 165.5 L 54.0 162.0 L 58.6 158.4 L 62.4 154.8 L 64.07567567825318 152.8 L 17.0 152.8 L 17.0 148.8 L 67.0 148.8 L 67.12371129989624 148.69690723419188 L 68.0 147.4 L 68.37525081634521 147.65395765304567 L 73.0 143.8 Z M 53.0 123.9 L 53.0 135.4 L 146.0 135.4 L 146.0 123.9 Z M 53.0 108.9 L 53.0 119.9 L 146.0 119.9 L 146.0 108.9 Z M 20.8 85.4 L 26.9 85.3 L 33.5 85.2 L 36.1 85.12571430206299 L 36.1 56.1 L 44.0 57.41666669845581 L 44.0 42.32857141494751 L 38.7 44.6 L 32.0 47.2 L 24.8 49.4 L 17.3 51.2 L 16.6 49.5 L 23.4 45.9 L 29.8 42.3 L 35.7 38.8 L 41.2 35.3 L 44.0 33.323529434204104 L 44.0 29.5 L 47.107692337036134 31.053846168518067 L 50.8 28.1 L 54.9 24.4 L 58.6 20.6 L 61.8 16.9 L 64.01753778457642 13.811286640167236 L 64.0 13.8 L 65.0 12.4 L 74.1 20.3 L 74.41764707565308 21.2 L 119.0 21.2 L 119.3 20.95 L 119.9 20.2 L 120.9 18.8 L 121.32540197372437 19.262165069580078 L 125.0 16.2 L 136.0 25.2 L 131.0 28.2 L 119.0 33.2 L 119.0 32.525925922393796 L 117.1 33.3 L 114.1 34.3 L 111.0 35.3 L 110.2444444656372 35.5 L 153.0 35.5 L 159.0 30.5 L 170.0 39.5 L 165.0 43.5 L 165.0 55.1 L 153.0 61.1 L 153.0 55.1 L 56.0 55.1 L 48.91428575515747 58.64285717010498 L 51.1 60.1 L 48.1 61.9 L 48.1 68.5 L 79.91818180084229 68.5 L 88.1 59.5 L 98.1 68.5 L 98.1 72.5 L 48.1 72.5 L 48.1 84.79750003814698 L 56.0 84.6 L 64.4 84.4 L 73.3 84.2 L 82.6 84.0 L 92.5 84.0 L 102.8 84.1 L 102.9 85.9 L 92.8 87.8 L 83.1 89.4 L 73.8 90.7 L 65.0 91.9 L 56.6 93.1 L 48.7 94.1 L 41.3 95.0 L 34.3 95.9 L 27.7 96.7 L 25.727819538116456 96.92631578445435 L 23.8 100.3 L 21.6 97.4 L 18.8 85.5 Z M 177.0 73.3 L 179.0 73.3 L 177.0 86.3 L 179.7 88.1 L 181.5 90.8 L 179.7 93.5 L 177.0 95.3 L 123.7 95.3 L 121.4 95.1 L 119.1 94.4 L 116.9 93.4 L 114.9 92.0 L 113.3 90.2 L 111.9 88.1 L 111.0 85.8 L 110.4 83.3 L 110.2 80.8 L 110.2 56.1 L 122.2 58.1 L 125.2 60.1 L 122.2 61.9 L 122.2 71.48307695388795 L 122.5 71.4 L 128.7 69.8 L 134.8 68.4 L 140.7 67.1 L 146.4 65.9 L 152.0 64.7 L 157.3 63.6 L 162.4 62.4 L 167.4 61.3 L 171.22553339004517 60.503013896942136 L 171.2 60.4 L 171.30440740585328 60.486581802368164 L 172.2 60.3 L 172.3726861000061 61.37247133255005 L 183.5 70.6 L 183.9 73.6 L 179.34569292068483 71.26292133331299 L 174.1 72.1 L 169.2 72.6 L 164.1 73.1 L 158.8 73.5 L 153.3 73.9 L 147.6 74.3 L 141.7 74.6 L 135.7 74.9 L 129.4 75.1 L 122.9 75.1 L 122.2 75.08939390182495 L 122.2 80.8 L 122.1 82.1 L 122.1 83.0 L 122.2 83.7 L 122.2 84.2 L 122.6 85.0 L 123.0 85.4 L 123.7 85.7 L 124.8 86.1 L 126.2 86.3 L 172.5 86.3 Z M 56.0 39.5 L 56.0 51.1 L 153.0 51.1 L 153.0 39.5 Z M 69.43999996185303 25.2 L 66.0 28.4 L 61.4 32.1 L 56.4457142829895 35.5 L 101.61666669845582 35.5 L 102.9 34.8 L 105.8 32.6 L 108.6 30.5 L 111.1 28.6 L 113.3 26.7 L 115.1529411315918 25.2 Z " />
</g>
</svg>
