<svg xmlns="http://www.w3.org/2000/svg" xmlns:xlink="http://www.w3.org/1999/xlink" version="1.1" baseProfile="full" viewBox="0 0 200 200" width="200" height="200">
<g fill="black">
<path d="M 19.3 183.4 L 18.9 178.8 L 21.7 175.2 L 24.5 173.8 L 27.2 172.1 L 29.7 169.9 L 32.0 167.2 L 34.1 164.1 L 36.1 160.5 L 37.9 156.4 L 39.4 151.7 L 40.9 146.6 L 42.0 140.9 L 43.8 141.0 L 44.2 146.9 L 44.3 152.5 L 43.9 157.8 L 42.9 162.9 L 41.6 167.6 L 39.7 171.9 L 37.4 176.0 L 34.6 179.7 L 31.2 182.9 L 27.5 185.8 L 22.9 186.2 Z M 168.5 173.7 L 167.1 170.1 L 165.3 166.4 L 163.1 162.7 L 160.6 158.8 L 157.7 154.9 L 154.5 150.8 L 151.0 146.6 L 147.2 142.3 L 148.3 140.9 L 153.4 143.9 L 158.1 147.1 L 162.3 150.5 L 166.2 154.0 L 169.8 157.6 L 172.9 161.4 L 175.8 165.2 L 178.2 169.2 L 180.3 173.3 L 181.9 177.5 L 181.3 182.0 L 177.7 184.8 L 173.2 184.2 L 170.4 180.6 L 169.6 177.2 Z M 121.2 171.3 L 120.6 168.0 L 119.6 164.8 L 118.4 161.4 L 116.7 157.9 L 114.8 154.4 L 112.6 150.8 L 110.1 147.0 L 107.1 143.3 L 108.3 141.9 L 112.3 144.8 L 116.1 147.6 L 119.5 150.7 L 122.6 154.0 L 125.3 157.4 L 127.7 160.9 L 129.7 164.6 L 131.4 168.4 L 132.7 172.3 L 133.6 176.4 L 132.2 180.7 L 128.2 182.9 L 123.9 181.5 L 121.7 177.5 L 121.6 174.4 Z M 80.7 182.9 L 76.7 180.7 L 75.3 176.4 L 75.8 173.3 L 76.1 170.2 L 76.1 167.1 L 75.9 163.9 L 75.5 160.7 L 74.7 157.4 L 73.7 154.0 L 72.4 150.5 L 70.9 146.8 L 68.9 143.3 L 70.3 142.1 L 73.3 145.1 L 76.2 148.1 L 78.8 151.3 L 81.0 154.6 L 82.9 158.1 L 84.5 161.8 L 85.7 165.6 L 86.5 169.4 L 87.1 173.4 L 87.2 177.5 L 85.0 181.5 Z M 163.4 132.1 L 158.1 127.1 L 153.5 121.7 L 149.5 116.0 L 146.2 109.9 L 143.5 103.5 L 141.6 96.9 L 140.4 89.9 L 140.3454860687256 87.9375 L 140.1 89.2 L 136.9 99.1 L 132.4 108.1 L 126.7 116.3 L 120.0 123.5 L 112.1 129.7 L 103.2 134.8 L 93.2 139.0 L 82.3 142.0 L 81.7 140.3 L 91.7 135.5 L 100.5 130.2 L 108.1 124.4 L 114.6 118.1 L 119.9 111.2 L 124.2 103.7 L 127.4 95.6 L 129.7 86.8 L 130.1 83.6 L 97.2 83.6 L 97.2 79.6 L 130.6 79.6 L 130.9 77.2 L 131.1 66.9 L 131.1 49.8 L 112.4069766998291 49.8 L 110.9 52.2 L 107.9 56.3 L 104.6 60.1 L 100.9 63.6 L 96.9 66.8 L 95.6 65.5 L 98.1 61.3 L 100.4 57.0 L 102.5 52.9 L 104.4 48.7 L 106.0 44.4 L 107.3 40.2 L 108.4 35.9 L 109.2 31.4 L 109.8 27.0 L 110.03472642898559 23.40086097717285 L 110.0 23.4 L 110.0703296661377 22.85494508743286 L 110.1 22.4 L 110.12863206863403 22.40310182571411 L 110.4 20.3 L 122.1 23.7 L 124.8 26.0 L 121.26025800704956 27.669689655303955 L 121.0 28.9 L 119.6 33.9 L 117.9 38.8 L 115.9 43.5 L 114.69772729873657 45.8 L 131.1 45.8 L 131.1 12.2 L 143.1 14.2 L 146.1 16.2 L 143.1 18.0 L 143.1 45.8 L 158.8 45.8 L 168.8 35.8 L 180.8 45.8 L 180.8 49.8 L 143.1 49.8 L 143.1 66.9 L 142.2 78.4 L 141.9666666984558 79.6 L 163.6 79.6 L 173.6 69.6 L 185.6 79.6 L 185.6 83.6 L 142.3800000190735 83.6 L 144.5 88.9 L 147.1 94.9 L 150.1 100.5 L 153.4 105.7 L 157.1 110.5 L 161.2 115.0 L 165.7 119.1 L 170.7 122.9 L 176.1 126.3 L 182.1 129.5 L 187.0 132.1 L 175.7 141.0 L 169.3 136.8 Z M 55.7 16.3 L 57.8 19.3 L 54.057162570953366 19.956638145446778 L 52.6 23.2 L 51.664179134368894 25.1 L 69.0 25.1 L 75.0 20.1 L 86.0 29.1 L 81.0 32.1 L 78.7246753692627 33.04805192947388 L 78.7 33.1 L 76.6 37.0 L 74.3 40.8 L 71.7 44.5 L 69.0 48.1 L 66.1 51.6 L 62.9 54.9 L 59.5 58.1 L 55.9 61.1 L 55.62857141494751 61.3 L 74.0 61.3 L 80.0 56.3 L 91.0 65.3 L 86.0 69.3 L 86.0 91.8 L 87.0 91.8 L 91.5 85.8 L 97.5 91.8 L 97.5 95.8 L 86.0 95.8 L 86.0 129.1 L 74.0 135.1 L 74.0 129.1 L 26.5 129.1 L 26.5 125.1 L 74.0 125.1 L 74.0 95.8 L 17.5 95.8 L 17.5 91.8 L 74.0 91.8 L 74.0 65.3 L 30.0 65.3 L 30.0 61.3 L 51.73333330154419 61.3 L 53.4 58.8 L 55.8 54.9 L 58.1 51.1 L 60.2 47.4 L 62.1 43.7 L 63.9 40.0 L 65.5 36.2 L 67.0 32.5 L 68.10270271301269 29.1 L 49.694029808044434 29.1 L 49.3 29.9 L 45.8 36.4 L 42.1 42.7 L 38.1 48.7 L 33.9 54.5 L 29.5 60.0 L 24.9 65.3 L 19.9 70.2 L 14.6 74.8 L 13.3 73.6 L 17.0 67.8 L 24.2 56.2 L 27.6 50.3 L 30.9 44.3 L 33.9 38.2 L 36.8 31.9 L 39.6 25.4 L 42.1 18.8 L 44.170434379577635 13.020037364959716 L 44.1 13.0 L 45.0 10.7 Z " />
</g>
</svg>
