<svg xmlns="http://www.w3.org/2000/svg" xmlns:xlink="http://www.w3.org/1999/xlink" version="1.1" baseProfile="full" viewBox="0 0 200 200" width="200" height="200">
<g fill="black">
<path d="M 159.2 67.0 L 162.2 69.0 L 159.2 70.8 L 159.2 183.0 L 147.2 189.0 L 147.2 65.0 Z M 40.3 125.2 L 40.283695697784424 125.3 L 98.51513948440552 125.3 L 100.78486051559449 104.2 L 41.9 104.2 L 41.9 105.6 L 41.3 115.6 Z M 34.0 183.4 L 31.9 179.3 L 33.1 174.9 L 34.5 173.6 L 35.9 171.8 L 37.2 169.4 L 38.5 166.6 L 39.7 163.3 L 40.8 159.5 L 41.8 155.3 L 42.8 150.6 L 43.7 145.5 L 44.3 139.9 L 46.1 139.8 L 46.8 145.5 L 47.5 150.8 L 47.8 155.8 L 47.8 160.4 L 47.6 164.8 L 47.1 168.9 L 46.4 172.7 L 45.4 176.2 L 44.1 179.5 L 42.4 182.5 L 38.4 184.6 Z M 75.5 162.3 L 75.1 159.4 L 74.6 156.6 L 74.0 153.8 L 73.3 151.0 L 72.4 148.3 L 71.5 145.5 L 70.5 142.8 L 69.1 140.2 L 70.4 139.1 L 72.6 141.2 L 75.0 143.3 L 77.1 145.6 L 79.1 148.1 L 80.9 150.7 L 82.6 153.5 L 84.1 156.5 L 85.5 159.6 L 86.7 162.8 L 87.8 166.2 L 86.8 170.6 L 82.9 173.1 L 78.5 172.1 L 76.0 168.2 L 75.8 165.2 Z M 61.6 178.6 L 57.5 176.5 L 56.0 172.1 L 56.6 169.6 L 56.9 166.9 L 57.2 164.1 L 57.3 161.2 L 57.2 158.2 L 57.0 155.1 L 56.7 151.8 L 56.2 148.5 L 55.7 145.0 L 54.7 141.5 L 56.4 140.8 L 58.3 144.0 L 60.3 147.0 L 62.0 150.2 L 63.5 153.4 L 64.7 156.6 L 65.8 159.9 L 66.7 163.1 L 67.3 166.4 L 67.8 169.7 L 68.0 173.0 L 65.9 177.1 Z M 94.3 155.2 L 93.8 152.9 L 93.1 150.6 L 92.3 148.3 L 90.3 143.9 L 89.1 141.7 L 87.8 139.4 L 86.0 137.5 L 87.1 136.1 L 89.4 137.6 L 91.9 138.9 L 94.2 140.5 L 96.4 142.3 L 98.5 144.2 L 100.4 146.4 L 102.2 148.8 L 103.8 151.3 L 105.3 154.0 L 106.7 156.8 L 106.1 161.3 L 102.5 164.2 L 98.0 163.6 L 95.1 160.1 L 94.8 157.6 Z M 41.9 78.3 L 41.9 100.2 L 85.20849418640137 100.2 L 87.49150581359864 78.3 Z M 148.7 15.9 L 151.3 18.3 L 147.89828329086305 19.68588457107544 L 146.9 24.4 L 145.0 32.7 L 142.9 40.7 L 142.19230766296386 43.0 L 173.2 43.0 L 173.63999996185302 42.63333330154419 L 174.5 41.2 L 174.93934783935546 41.55054349899292 L 179.2 38.0 L 190.2 47.0 L 185.2 50.0 L 180.29090909957887 52.04545450210571 L 179.2 53.0 L 174.4 57.0 L 172.0 58.8 L 169.5 60.6 L 164.3 63.8 L 161.7 65.1 L 159.2 66.6 L 158.1 65.3 L 160.0 63.1 L 161.6 60.7 L 163.3 58.3 L 164.9 55.9 L 166.6 53.6 L 168.2 51.1 L 169.8 48.7 L 170.8880000114441 47.0 L 140.9615385055542 47.0 L 140.5 48.5 L 138.0 55.9 L 135.3 63.1 L 132.3 69.9 L 129.1 76.4 L 125.6 82.6 L 121.8 88.4 L 120.2 87.5 L 122.2 81.0 L 124.2 74.4 L 126.2 67.6 L 128.1 60.7 L 129.9 53.5 L 131.5 46.1 L 133.1 38.4 L 134.5 30.5 L 135.7 22.4 L 136.8 14.0 L 136.8326385498047 14.00521116256714 L 137.1 12.0 Z M 109.1 64.1 L 107.2 60.4 L 105.2 56.8 L 103.1 53.2 L 98.3 46.4 L 95.7 43.0 L 92.9 39.6 L 90.0 36.3 L 91.1 34.8 L 95.1 37.0 L 99.0 39.4 L 102.7 42.0 L 106.1 45.0 L 109.4 48.1 L 112.5 51.4 L 115.5 55.0 L 118.2 58.7 L 120.8 62.6 L 123.2 66.7 L 123.3 71.3 L 120.3 74.7 L 115.7 74.8 L 112.3 71.7 L 110.8 67.9 Z M 65.5 56.7 L 64.9 54.2 L 64.2 51.7 L 62.4 46.7 L 61.3 44.2 L 60.1 41.6 L 58.5 39.3 L 59.8 38.0 L 62.0 39.9 L 64.5 41.7 L 66.7 43.7 L 68.8 45.8 L 70.8 48.1 L 72.6 50.6 L 74.2 53.1 L 75.7 55.9 L 77.1 58.7 L 78.3 61.7 L 77.5 66.2 L 73.8 68.9 L 69.3 68.1 L 66.6 64.4 L 66.0 59.2 Z M 41.85433788299561 33.91141548156738 L 44.7 33.2 L 52.2 31.4 L 59.5 29.7 L 66.6 28.0 L 73.5 26.1 L 80.3 24.2 L 86.8 22.2 L 93.2 20.1 L 99.4 17.9 L 104.52938623428345 15.96596908569336 L 104.5 15.9 L 104.5623607635498 15.953536128997802 L 105.5 15.6 L 106.06818132400512 17.246268844604494 L 115.1 25.0 L 115.3 28.1 L 111.24585990905761 26.284713363647462 L 109.4 26.9 L 102.8 28.8 L 96.2 30.4 L 89.3 31.9 L 82.4 33.3 L 75.2 34.4 L 68.0 35.4 L 60.5 36.2 L 52.9 36.7 L 45.2 37.0 L 43.001615810394284 36.944344711303714 L 41.7 41.5 L 39.7 47.6 L 37.5 53.6 L 35.0 59.3 L 32.2 64.9 L 30.221739101409913 68.46086959838867 L 41.9 74.3 L 87.7 74.3 L 93.7 69.3 L 104.7 78.3 L 99.7 81.3 L 98.4925594329834 81.80310020446777 L 97.23654623031616 100.2 L 101.0 100.2 L 107.0 95.2 L 118.0 104.2 L 113.0 107.2 L 111.78204488754272 107.70748128890992 L 110.54107885360717 125.3 L 114.3 125.3 L 120.3 120.3 L 131.3 129.3 L 126.3 132.3 L 126.3 133.7 L 126.2 139.7 L 125.9 145.3 L 125.7 150.6 L 125.3 155.4 L 124.8 159.9 L 124.2 164.0 L 123.6 167.7 L 122.8 171.1 L 121.9 174.1 L 121.0 176.5 L 119.8 178.7 L 118.4 180.8 L 116.7 182.6 L 114.8 184.2 L 112.7 185.5 L 110.4 186.5 L 108.0 187.2 L 105.5 187.6 L 103.0 187.7 L 103.0 181.7 L 83.0 178.7 L 83.0 175.7 L 103.0 175.7 L 104.3 175.6 L 105.5 175.5 L 106.4 175.2 L 107.1 174.9 L 107.8 174.5 L 108.4 174.0 L 109.0 173.4 L 109.5 172.6 L 110.0 171.6 L 110.5 170.3 L 111.2 168.1 L 111.8 165.3 L 112.4 162.1 L 112.9 158.4 L 113.3 154.3 L 113.7 149.8 L 114.0 144.8 L 114.2 139.4 L 114.3 133.6 L 114.3 129.3 L 39.631521701812744 129.3 L 38.8 134.4 L 36.8 143.2 L 34.3 151.6 L 31.3 159.5 L 27.8 167.0 L 23.8 174.0 L 19.2 180.5 L 14.0 186.3 L 12.5 185.3 L 15.9 178.5 L 19.0 171.5 L 21.8 164.4 L 24.2 157.0 L 26.1 149.3 L 27.7 141.2 L 28.9 132.9 L 29.6 124.1 L 30.0 115.0 L 29.9 105.6 L 29.9 69.03999996185303 L 29.2 70.3 L 25.9 75.5 L 22.3 80.5 L 18.3 85.1 L 14.0 89.5 L 12.5 88.4 L 15.2 83.0 L 17.7 77.7 L 20.1 72.3 L 22.4 66.9 L 24.4 61.5 L 26.3 56.0 L 28.0 50.3 L 29.4 44.6 L 30.7 38.7 L 31.7 32.8 L 32.9 26.9 Z " />
</g>
</svg>
