<svg xmlns="http://www.w3.org/2000/svg" xmlns:xlink="http://www.w3.org/1999/xlink" version="1.1" baseProfile="full" viewBox="0 0 200 200" width="200" height="200">
<g fill="black">
<path d="M 32.5 176.0 L 48.5 176.0 L 49.7 175.9 L 50.6 175.7 L 51.5 175.4 L 51.9 175.0 L 52.2 174.1 L 52.4 173.2 L 52.5 172.0 L 52.5 133.0 L 21.7 133.0 L 21.7 129.0 L 52.5 129.0 L 52.5 104.0 L 12.1 104.0 L 12.1 100.0 L 52.5 100.0 L 52.5 76.0 L 25.39111108779907 76.0 L 23.4 79.2 L 20.3 83.4 L 18.7 82.5 L 19.9 77.6 L 21.2 72.7 L 22.5 67.6 L 23.8 62.4 L 25.0 57.0 L 26.0 51.5 L 27.0 45.7 L 27.8 39.7 L 28.6 33.5 L 29.114218044281007 28.10071086883545 L 29.1 28.1 L 29.15 27.725 L 29.2 27.2 L 29.21966943740845 27.202479362487793 L 29.5 25.1 L 41.1 28.7 L 41.19719495773315 28.78639554977417 L 45.8 26.9 L 51.8 24.7 L 57.6 22.6 L 63.2 20.7 L 68.6 18.8 L 73.8 17.1 L 78.8 15.4 L 83.6 13.9 L 87.23969879150391 12.71314172744751 L 87.2 12.6 L 87.30943393707275 12.690401935577393 L 88.2 12.4 L 88.53746423721313 13.704861736297607 L 98.7 22.1 L 99.0 25.1 L 94.67775173187256 23.118969535827638 L 91.2 24.0 L 86.4 24.9 L 81.5 25.8 L 76.3 26.8 L 71.0 27.8 L 65.4 28.9 L 59.5 29.9 L 53.5 31.0 L 47.2 32.1 L 40.6 33.0 L 40.24479923248291 33.041788291931155 L 39.8 35.3 L 38.4 41.7 L 36.8 47.8 L 35.0 53.7 L 33.1 59.4 L 31.0 64.8 L 28.7 69.9 L 27.60625 72.0 L 82.4 72.0 L 88.4 67.0 L 99.4 76.0 L 94.4 80.0 L 94.4 100.0 L 97.1 100.0 L 101.6 94.0 L 107.6 100.0 L 107.6 104.0 L 94.4 104.0 L 94.4 139.0 L 82.4 145.0 L 82.4 133.0 L 64.5 133.0 L 64.5 172.0 L 64.3 174.5 L 63.9 177.0 L 63.1 179.4 L 61.8 181.7 L 60.2 183.7 L 58.2 185.3 L 55.9 186.6 L 53.5 187.4 L 51.0 187.8 L 48.5 188.0 L 48.5 182.0 L 32.5 179.0 Z M 122.4 175.0 L 140.4 175.0 L 141.6 174.9 L 142.5 174.7 L 143.1 174.5 L 143.5 174.4 L 143.6 174.2 L 143.8 174.0 L 144.0 173.7 L 144.2 173.1 L 144.3 172.2 L 144.4 171.0 L 144.4 40.0 L 99.2 40.0 L 99.2 36.0 L 165.4 36.0 L 175.4 26.0 L 187.4 36.0 L 187.4 40.0 L 156.4 40.0 L 156.4 171.0 L 156.3 173.5 L 155.8 176.0 L 155.0 178.4 L 153.8 180.7 L 152.1 182.7 L 150.1 184.3 L 147.9 185.6 L 145.4 186.4 L 143.0 186.8 L 140.4 187.0 L 140.4 181.0 L 122.4 178.0 Z M 64.5 104.0 L 64.5 129.0 L 82.4 129.0 L 82.4 104.0 Z M 64.5 76.0 L 64.5 100.0 L 82.4 100.0 L 82.4 76.0 Z M 56.1 55.2 L 56.0 52.5 L 55.8 49.8 L 55.4 47.3 L 54.9 44.8 L 54.1 42.3 L 53.3 39.9 L 52.2 37.4 L 50.7 35.3 L 51.9 34.0 L 54.1 35.7 L 56.5 37.5 L 58.7 39.5 L 60.6 41.9 L 62.4 44.5 L 63.9 47.3 L 65.2 50.4 L 66.3 53.7 L 67.1 57.1 L 67.8 60.8 L 66.1 65.0 L 61.9 66.9 L 57.7 65.3 L 55.8 61.1 L 56.0 58.1 Z M 85.8 53.3 L 85.0 50.7 L 84.1 48.2 L 82.9 45.6 L 81.6 43.1 L 80.0 40.6 L 78.3 38.1 L 76.4 35.5 L 74.0 33.3 L 75.0 31.8 L 78.0 33.4 L 81.1 35.0 L 83.9 36.8 L 86.6 38.8 L 89.1 41.1 L 91.3 43.6 L 93.4 46.3 L 95.3 49.1 L 97.0 52.2 L 98.4 55.4 L 97.8 60.0 L 94.3 62.8 L 89.8 62.2 L 86.9 58.7 L 86.4 56.0 Z " />
</g>
</svg>
