<svg xmlns="http://www.w3.org/2000/svg" xmlns:xlink="http://www.w3.org/1999/xlink" version="1.1" baseProfile="full" viewBox="0 0 200 200" width="200" height="200">
<g fill="black">
<path d="M 70.0 176.8 L 90.0 176.8 L 91.2 176.7 L 92.1 176.5 L 92.7 176.4 L 93.0 176.2 L 93.4 175.8 L 93.7 174.9 L 93.9 174.0 L 94.0 172.8 L 94.0 141.9 L 53.0 141.9 L 41.0 147.9 L 41.0 102.9 L 53.0 108.9 L 88.51875 108.9 L 88.8 108.6 L 89.7 106.7 L 91.5 103.1 L 92.2 101.5 L 92.9 100.0 L 93.4 98.6 L 93.9 97.3 L 94.2 96.0 L 94.22842102050781 95.89578943252563 L 93.9 95.7 L 94.48481016159057 94.95569620132446 L 94.5 94.9 L 94.5183006286621 94.91307191848755 L 95.0 94.3 L 104.3 101.9 L 105.5 105.3 L 99.87487440109253 104.81507539749146 L 97.4 106.3 L 95.8 107.2 L 92.73999996185303 108.9 L 146.0 108.9 L 152.0 103.9 L 163.0 112.9 L 158.0 116.9 L 158.0 141.9 L 146.0 147.9 L 146.0 141.9 L 106.0 141.9 L 106.0 142.440425491333 L 110.0 146.1 L 115.0 150.2 L 120.5 154.0 L 126.7 157.6 L 128.62835817337037 158.5358208656311 L 128.9 158.4 L 134.1 156.0 L 139.2 153.9 L 144.1 151.8 L 148.9 149.8 L 153.6 147.8 L 158.1 145.9 L 162.5 144.0 L 166.8 142.1 L 170.03692226409913 140.67891216278076 L 170.0 140.6 L 170.072456741333 140.66331167221068 L 170.9 140.3 L 171.50595664978027 141.9158844947815 L 180.3 149.6 L 180.5 152.7 L 176.557204914093 150.9675597190857 L 175.1 151.5 L 170.7 152.8 L 166.1 154.1 L 161.4 155.4 L 156.5 156.6 L 151.5 157.8 L 146.4 159.0 L 141.1 160.1 L 135.7 161.2 L 134.66037731170655 161.36415090560914 L 141.0 163.9 L 149.2 166.6 L 158.1 169.1 L 167.8 171.3 L 178.2 173.2 L 187.5 175.0 L 175.7 186.2 L 164.9 183.5 L 154.8 180.5 L 145.5 177.0 L 136.9 173.3 L 129.2 169.1 L 122.3 164.6 L 116.2 159.8 L 111.0 154.5 L 106.8 148.8 L 106.0 147.25161294937135 L 106.0 172.8 L 105.8 175.3 L 105.4 177.8 L 104.6 180.2 L 103.3 182.5 L 101.7 184.5 L 99.7 186.2 L 97.4 187.4 L 95.0 188.2 L 92.5 188.6 L 90.0 188.8 L 90.0 182.8 L 70.0 179.8 Z M 84.0 154.7 L 79.0 157.7 L 74.89906539916993 159.40872278213502 L 74.0 160.4 L 69.6 164.3 L 64.5 167.9 L 58.9 171.1 L 52.6 174.1 L 45.8 176.7 L 38.3 179.1 L 30.2 181.2 L 21.5 182.9 L 12.1 184.2 L 11.8 182.4 L 20.5 179.2 L 28.6 176.1 L 36.1 172.9 L 42.8 169.8 L 48.8 166.5 L 54.1 163.1 L 58.7 159.7 L 62.5 156.2 L 63.82857141494751 154.7 L 17.0 154.7 L 17.0 150.7 L 66.9714285850525 150.7 L 68.0 149.2 L 68.43564357757569 149.50363035202025 L 73.0 145.7 Z M 53.0 127.1 L 53.0 137.9 L 146.0 137.9 L 146.0 127.1 Z M 53.0 112.9 L 53.0 123.1 L 146.0 123.1 L 146.0 112.9 Z M 174.9 63.7 L 174.5 62.1 L 173.9 60.4 L 173.0892110824585 58.688334465026855 L 168.1 59.9 L 161.0 61.5 L 153.6 62.8 L 146.0 64.0 L 145.1 64.12692308425903 L 145.1 92.1 L 133.1 98.1 L 133.1 65.81012659072876 L 130.3 66.2 L 122.1 67.2 L 115.17223463058471 68.03467054367066 L 123.5 75.7 L 124.6 79.2 L 120.28664264678955 78.53068590164185 L 118.7 79.8 L 116.0 81.7 L 113.1 83.6 L 110.0 85.5 L 106.7 87.3 L 103.1 89.0 L 99.4 90.7 L 95.3 92.3 L 91.2 94.0 L 90.4 92.4 L 93.9 89.8 L 97.0 86.9 L 100.0 84.3 L 102.7 81.7 L 105.2 79.2 L 107.5 76.8 L 109.6 74.5 L 111.4 72.3 L 113.0 70.1 L 113.77296104431153 68.85137052536011 L 113.7 68.8 L 114.10740737915039 68.31111106872558 L 114.20650959014893 68.15102291107178 L 113.8 68.2 L 105.3 69.2 L 100.64349594116212 69.68170728683472 L 98.8 73.0 L 96.6 70.1 L 94.289830493927 60.7 L 81.43013696670532 60.7 L 81.3 62.6 L 80.7 69.0 L 80.2 74.5 L 79.71739130020141 78.2 L 81.7 78.2 L 86.2 72.2 L 92.2 78.2 L 92.2 82.2 L 79.18108110427856 82.2 L 79.1 82.8 L 78.6 85.8 L 77.9 88.3 L 75.4 91.8 L 73.4 93.2 L 71.4 94.4 L 69.4 95.5 L 67.3 96.4 L 65.1 97.2 L 62.9 97.8 L 60.7 98.3 L 58.4 98.7 L 56.1 98.9 L 53.8 99.0 L 53.8 93.0 L 37.8 90.0 L 37.8 87.0 L 53.8 87.0 L 55.4 86.9 L 56.9 86.8 L 58.5 86.6 L 59.9 86.2 L 61.4 85.8 L 62.8 85.3 L 64.2 84.7 L 65.5 83.9 L 66.81063833236695 83.15106382369996 L 67.01739130020141 82.2 L 31.808904075622557 82.2 L 29.6 95.1 L 16.7 98.9 L 23.284330463409425 60.7 L 12.8 60.7 L 12.8 56.7 L 23.97378921508789 56.7 L 27.82117042541504 34.37882957458496 L 25.9 36.3 L 22.8 38.9 L 19.5 41.4 L 15.9 43.6 L 12.4 45.7 L 11.3 44.3 L 13.9 41.3 L 16.3 38.1 L 18.5 34.9 L 20.5 31.8 L 22.4 28.7 L 24.0 25.5 L 25.5 22.3 L 26.8 19.0 L 27.9 15.8 L 28.598166465759277 13.426234149932862 L 28.5 13.4 L 29.4 11.0 L 40.1 16.5 L 42.3 19.4 L 38.32217655181885 20.15441474914551 L 38.3 20.2 L 36.2 23.8 L 35.921212100982665 24.2 L 73.51818180084229 24.2 L 81.7 15.2 L 91.7 24.2 L 91.7 28.2 L 33.06666669845581 28.2 L 31.4 30.4 L 31.28075189590454 30.537594032287597 L 38.11499996185303 35.6 L 71.0 35.6 L 77.0 30.6 L 88.0 39.6 L 83.0 42.6 L 82.68813562393188 42.729943466186526 L 82.4 47.1 L 81.8 55.3 L 81.70410957336426 56.7 L 84.6 56.7 L 89.1 50.7 L 95.1 56.7 L 95.1 58.230000019073486 L 95.7 58.2 L 104.4 57.8 L 113.0 57.5 L 121.3 57.2 L 129.5 56.9 L 129.94607486724854 56.88884811401367 L 133.0 54.0 L 136.6 50.6 L 140.1 47.2 L 143.5 44.0 L 146.8 40.8 L 150.0 37.7 L 153.0 34.5 L 155.9 31.5 L 158.03778486251832 29.133166694641112 L 158.0 29.1 L 158.9 28.2 L 167.0 37.0 L 167.6 40.6 L 163.84870071411132 39.59518766403198 L 163.6 39.8 L 160.1 42.5 L 156.5 45.2 L 152.7 47.9 L 144.7 53.1 L 140.4 55.7 L 138.64758625030518 56.65586204528809 L 145.3 56.4 L 153.0 56.2 L 160.4 56.1 L 167.7 56.2 L 171.58085107803345 56.30780143737793 L 170.3 54.6 L 168.6 52.5 L 166.6 50.3 L 164.0 48.5 L 164.9 46.9 L 167.8 48.3 L 170.8 49.3 L 173.5 50.6 L 176.1 52.0 L 178.4 53.5 L 180.5 55.3 L 182.5 57.2 L 184.2 59.3 L 185.6 61.7 L 186.7 64.2 L 185.8 68.7 L 182.1 71.3 L 177.6 70.4 L 175.0 66.7 L 175.0 65.3 Z M 169.0 83.9 L 167.1 81.8 L 165.1 79.8 L 163.0 77.8 L 158.4 73.8 L 156.0 71.7 L 153.3 70.1 L 154.0 68.4 L 157.1 69.4 L 160.3 70.1 L 163.4 71.1 L 166.4 72.3 L 169.3 73.5 L 172.2 74.9 L 177.6 78.1 L 180.2 79.9 L 182.6 81.8 L 184.3 86.1 L 182.5 90.3 L 178.2 91.9 L 174.0 90.1 L 170.8 85.9 Z M 35.4904109954834 60.7 L 32.493835639953616 78.2 L 67.62727270126342 78.2 L 67.7 77.6 L 68.2 73.2 L 68.8 67.9 L 69.3 61.6 L 69.3625 60.7 Z M 50.4 72.2 L 49.9 71.1 L 49.3 70.0 L 48.4 68.8 L 47.4 67.6 L 46.1 66.3 L 44.7 65.0 L 42.9 64.3 L 43.4 62.5 L 45.4 63.1 L 47.5 63.1 L 49.5 63.3 L 51.4 63.7 L 53.2 64.2 L 55.0 64.8 L 56.7 65.7 L 58.4 66.7 L 59.9 67.9 L 61.3 69.3 L 61.7 73.9 L 58.8 77.4 L 54.2 77.8 L 50.7 74.9 L 50.7 73.2 Z M 39.103424644470216 39.6 L 36.17534246444702 56.7 L 69.6402777671814 56.7 L 69.8 54.4 L 70.4 46.3 L 70.84175825119019 39.6 Z M 53.0 51.8 L 52.9 50.9 L 52.7 50.0 L 52.2 48.9 L 51.6 47.8 L 50.7 46.7 L 49.6 45.5 L 48.4 44.2 L 46.8 43.5 L 47.3 41.8 L 49.1 42.4 L 51.0 42.4 L 52.8 42.6 L 54.6 42.9 L 56.3 43.3 L 57.9 43.9 L 59.4 44.6 L 60.9 45.6 L 62.3 46.7 L 63.6 48.1 L 63.7 52.7 L 60.6 56.0 L 56.0 56.1 L 52.6 53.0 L 52.9 52.4 Z M 119.6 49.9 L 118.5 48.4 L 117.2 46.9 L 115.6 45.4 L 113.8 43.9 L 111.7 42.5 L 109.5 41.0 L 107.0 39.6 L 104.1 38.6 L 104.4 36.9 L 107.5 37.3 L 110.6 37.3 L 113.5 37.7 L 116.4 38.2 L 119.1 38.9 L 119.70779218673707 39.13376626968384 L 120.0 38.9 L 121.6 36.9 L 123.3 34.9 L 124.9 33.1 L 126.4 31.3 L 127.9 29.4 L 128.76690044403077 28.347335243225096 L 120.8 28.8 L 111.9 29.1 L 102.9 29.3 L 93.6 29.2 L 93.4 27.5 L 102.5 25.5 L 111.4 23.8 L 120.1 22.3 L 128.7 20.8 L 137.2 19.3 L 153.6 16.5 L 161.5 15.2 L 169.3 13.8 L 176.9 12.4 L 177.06456995010376 13.55198974609375 L 188.5 22.9 L 188.9 25.9 L 184.3224522590637 23.490764331817626 L 178.6 24.3 L 170.8 25.1 L 162.9 25.8 L 154.8 26.5 L 146.6 27.2 L 138.47852296829222 27.78010549545288 L 141.5 31.1 L 142.1 34.6 L 137.69835386276245 33.42098770141602 L 137.4 33.6 L 135.3 34.8 L 133.1 36.0 L 130.9 37.1 L 128.6 38.1 L 126.2 39.1 L 123.8 40.0 L 122.71578950881958 40.34694738388062 L 124.2 41.0 L 126.5 42.4 L 128.7 44.0 L 130.8 45.8 L 131.8 50.3 L 129.5 54.2 L 125.1 55.3 L 121.1 53.0 L 120.4 51.5 Z " />
</g>
</svg>
