<svg xmlns="http://www.w3.org/2000/svg" xmlns:xlink="http://www.w3.org/1999/xlink" version="1.1" baseProfile="full" viewBox="0 0 200 200" width="200" height="200">
<g fill="black">
<path d="M 97.0 175.4 L 118.2 175.4 L 119.1 175.2 L 119.7 175.0 L 120.1 174.8 L 120.4 174.5 L 120.6 174.2 L 120.8 173.6 L 120.9 172.7 L 121.0 171.4 L 121.0 143.3 L 62.7 143.3 L 62.7 139.3 L 166.2 139.3 L 176.2 129.3 L 188.2 139.3 L 188.2 143.3 L 133.0 143.3 L 133.0 171.4 L 132.8 174.0 L 132.4 176.5 L 131.6 178.9 L 130.4 181.2 L 128.7 183.2 L 126.7 184.8 L 124.4 186.1 L 122.0 186.9 L 119.5 187.3 L 117.0 187.4 L 117.0 181.4 L 97.0 178.4 Z M 36.9 186.9 L 32.9 184.8 L 31.4 180.5 L 32.0 173.5 L 32.0 167.1 L 31.6 161.3 L 30.6 156.1 L 29.1 151.4 L 27.58959150314331 148.4511073112488 L 27.4 148.4 L 27.471044063568115 148.21965742111206 L 27.0 147.3 L 24.5 143.5 L 21.3 140.1 L 17.5 137.0 L 12.9 134.1 L 13.4 132.4 L 19.1 133.6 L 24.4 135.7 L 29.1 138.9 L 30.823093986511232 140.53904066085815 L 33.2 135.5 L 36.4 129.1 L 40.1 121.5 L 44.6 112.7 L 49.7 102.9 L 55.4 91.9 L 62.0 79.7 L 69.4 66.6 L 71.0 67.3 L 65.4 81.4 L 60.3 94.1 L 55.6 105.6 L 51.5 115.9 L 47.9 124.9 L 44.9 132.8 L 42.5 139.4 L 40.7 144.8 L 39.5 148.8 L 38.9 151.5 L 38.53542242050171 151.4017225265503 L 39.4 153.1 L 41.4 159.3 L 42.7 166.1 L 43.4 173.5 L 43.4 181.4 L 41.3 185.5 Z M 62.2 119.0 L 77.7 119.0 L 77.7 79.1 L 89.7 85.1 L 111.94193544387818 85.1 L 112.6 83.9 L 113.7 80.7 L 114.8 77.7 L 115.9 74.9 L 116.8 72.2 L 117.7 69.7 L 118.4 67.3 L 118.96666669845581 65.6 L 83.4 65.6 L 83.4 61.6 L 148.61818180084228 61.6 L 156.8 52.6 L 166.8 61.6 L 166.8 65.6 L 131.26666669845582 65.6 L 131.0 66.0 L 129.7 67.8 L 128.3 69.7 L 126.8 71.7 L 125.1 73.8 L 123.3 75.9 L 121.4 78.2 L 119.3 80.5 L 117.1 82.9 L 114.9 85.1 L 161.2 85.1 L 167.2 80.1 L 178.2 89.1 L 173.2 93.1 L 173.2 119.0 L 178.2 119.0 L 182.7 113.0 L 188.7 119.0 L 188.7 123.0 L 62.2 123.0 Z M 89.7 89.1 L 89.7 119.0 L 105.8 119.0 L 105.8 89.1 Z M 117.8 89.1 L 117.8 119.0 L 133.1 119.0 L 133.1 89.1 Z M 145.1 89.1 L 145.1 119.0 L 161.2 119.0 L 161.2 89.1 Z M 31.8 83.5 L 30.4 81.4 L 28.7 79.4 L 26.7 77.3 L 24.3 75.3 L 21.5 73.2 L 18.5 71.1 L 15.1 68.9 L 11.3 67.1 L 11.8 65.4 L 16.1 66.3 L 20.1 67.1 L 24.0 68.2 L 27.6 69.5 L 30.9 70.9 L 34.0 72.6 L 36.9 74.4 L 39.6 76.5 L 42.0 78.8 L 44.1 81.4 L 44.6 85.9 L 41.9 89.6 L 37.4 90.1 L 33.7 87.3 L 32.9 85.4 Z M 58.7 63.8 L 57.8 59.3 L 60.2 55.4 L 61.6 54.8 L 62.9 53.8 L 64.4 52.4 L 65.8 50.4 L 67.1 47.9 L 68.3 45.0 L 69.4 41.5 L 70.4 37.6 L 71.3 33.2 L 71.8 28.4 L 73.6 28.4 L 74.1 33.3 L 74.45217390060425 36.0 L 119.5 36.0 L 119.5 11.9 L 131.5 13.9 L 134.5 15.9 L 131.5 17.7 L 131.5 36.0 L 177.6 36.0 L 178.22168674468995 35.481927680969235 L 178.3 35.2 L 178.45802755355834 35.28497705459595 L 183.6 31.0 L 194.6 40.0 L 189.6 43.0 L 185.55882349014283 44.68382349014282 L 184.3 46.1 L 182.5 48.0 L 180.6 50.0 L 178.5 52.1 L 176.3 54.2 L 173.9 56.4 L 171.4 58.6 L 169.0 61.2 L 167.6 60.1 L 169.4 57.1 L 170.7 54.0 L 172.0 51.1 L 173.2 48.4 L 174.4 45.8 L 175.4 43.4 L 176.3 41.1 L 176.71904764175414 40.0 L 74.84651165008545 40.0 L 75.0 42.2 L 74.9 46.2 L 74.5 50.0 L 73.8 53.6 L 72.8 56.9 L 71.3 60.0 L 69.4 62.8 L 67.1 65.3 L 62.6 66.2 Z M 46.1 37.5 L 44.6 35.5 L 42.9 33.4 L 40.9 31.3 L 38.6 29.2 L 36.0 27.2 L 33.2 25.1 L 30.1 22.9 L 26.6 21.1 L 27.1 19.4 L 31.1 20.4 L 34.9 21.2 L 38.6 22.3 L 42.0 23.5 L 45.2 25.0 L 48.3 26.6 L 51.1 28.5 L 53.7 30.5 L 56.2 32.8 L 58.4 35.2 L 59.1 39.7 L 56.5 43.5 L 52.0 44.2 L 48.2 41.6 L 47.3 39.6 Z " />
</g>
</svg>
