<svg xmlns="http://www.w3.org/2000/svg" xmlns:xlink="http://www.w3.org/1999/xlink" version="1.1" baseProfile="full" viewBox="0 0 200 200" width="200" height="200">
<g fill="black">
<path d="M 12.7 122.0 L 15.4 121.2 L 18.3 120.3 L 21.4 119.2 L 24.6 117.9 L 27.9 116.5 L 31.3 114.9 L 34.9 113.2 L 38.6 111.4 L 41.900908660888675 109.79186496734619 L 42.0 98.0 L 42.0 31.0 L 54.0 37.0 L 104.0 37.0 L 104.0 12.0 L 116.0 14.0 L 119.0 16.0 L 116.0 17.8 L 116.0 37.0 L 164.0 37.0 L 174.0 27.0 L 186.0 37.0 L 186.0 41.0 L 54.0 41.0 L 54.0 98.0 L 53.3 110.5 L 52.0 122.3 L 49.9 133.4 L 47.2 143.7 L 43.7 153.2 L 39.5 161.9 L 34.6 169.8 L 28.9 176.7 L 22.6 182.7 L 15.5 187.7 L 14.4 186.2 L 19.9 180.0 L 24.7 173.4 L 29.0 166.3 L 32.7 158.6 L 35.7 150.2 L 38.2 141.2 L 40.0 131.5 L 41.3 121.0 L 41.6436749458313 114.64201288223266 L 41.2 115.1 L 38.1 118.0 L 35.1 120.7 L 32.0 123.2 L 29.0 125.6 L 26.0 127.7 L 23.0 129.7 L 21.009677410125732 130.89419355392457 L 20.1 135.2 L 17.1 133.1 L 10.8 122.8 Z M 77.6 127.4 L 122.65338344573975 127.4 L 121.3 120.2 L 119.90185451507568 106.68459339141846 L 119.8 106.7 L 119.6 103.4 L 131.7 104.9 L 134.9 106.7 L 132.08454933166504 108.63562231063842 L 133.1 118.5 L 134.7778688430786 127.4 L 162.7 127.4 L 172.7 117.4 L 184.7 127.4 L 184.7 131.4 L 135.61333332061767 131.4 L 138.6 141.2 L 142.6 150.2 L 147.02023048400878 157.25355930328368 L 148.7 156.0 L 155.0 150.7 L 160.9 145.0 L 166.5 138.9 L 166.56890382766724 138.96420583724975 L 166.9 138.6 L 175.3 147.1 L 176.2 150.6 L 172.42108182907106 149.8044383049011 L 168.7 153.3 L 161.8 159.0 L 154.5 164.2 L 153.84813203811646 164.59455165863037 L 159.0 168.5 L 166.1 171.9 L 174.2 174.1 L 177.4639669418335 174.42280988693238 L 183.1 150.0 L 185.1 150.0 L 183.17785234451293 174.98791942596435 L 183.3 175.0 L 187.4 177.0 L 189.1 181.2 L 187.2 185.3 L 182.9 187.0 L 172.0 185.9 L 161.9 183.1 L 152.8 178.7 L 144.7 172.6 L 143.07365827560426 170.83425760269165 L 139.0 173.0 L 130.8 176.6 L 122.2 179.6 L 113.4 182.1 L 104.2 183.9 L 94.7 185.0 L 94.4 183.2 L 103.2 180.2 L 111.7 177.0 L 119.9 173.5 L 127.6 169.7 L 135.0 165.5 L 137.1524708747864 164.11626873016357 L 132.0 155.8 L 127.3 145.3 L 123.8 133.5 L 123.40526313781739 131.4 L 77.6 131.4 L 77.6 140.0 L 77.0 146.3 L 76.1 152.3 L 74.6 158.0 L 72.7 163.4 L 70.3 168.3 L 67.5 172.9 L 64.2 177.0 L 60.4 180.7 L 56.2 183.8 L 51.6 186.3 L 50.5 184.9 L 53.7 181.0 L 56.5 177.1 L 58.9 173.2 L 60.9 169.1 L 62.6 164.9 L 63.9 160.4 L 64.8 155.7 L 65.4 150.7 L 65.7 145.5 L 65.6 140.0 L 65.6 121.4 Z M 150.4 123.4 L 149.3 122.3 L 148.0 121.2 L 146.4 120.0 L 144.6 118.7 L 142.5 117.5 L 140.1 116.1 L 137.6 114.7 L 134.7 113.7 L 135.1 112.0 L 138.1 112.5 L 141.1 112.5 L 143.9 112.7 L 146.5 112.9 L 149.0 113.2 L 151.3 113.5 L 153.4 114.0 L 155.4 114.5 L 157.3 115.2 L 159.2 116.0 L 161.3 120.0 L 160.0 124.4 L 155.9 126.5 L 151.5 125.2 L 151.1 124.4 Z M 140.9 101.8 L 139.0 99.2 L 136.9 96.5 L 134.7 94.0 L 132.3 91.4 L 129.8 88.8 L 127.2 86.3 L 126.33239440917968 85.46338024139405 L 126.8 87.1 L 122.86875 86.42219829559326 L 120.1 89.0 L 117.1 91.6 L 114.0 94.2 L 110.9 96.7 L 104.3 101.7 L 100.8 104.1 L 97.2 106.3 L 93.5 108.6 L 92.4 107.3 L 95.1 104.0 L 97.6 100.6 L 100.2 97.4 L 105.2 91.0 L 107.6 87.9 L 110.0 84.9 L 112.3 81.8 L 114.44666662216187 79.0 L 87.0 79.0 L 87.0 114.0 L 75.0 120.0 L 75.0 78.59615383148193 L 71.7 80.5 L 66.2 83.3 L 60.4 85.7 L 59.5 84.2 L 64.2 80.1 L 68.6 76.2 L 72.8 72.3 L 75.0 70.15500001907348 L 75.0 69.0 L 75.78305082321167 69.39152545928955 L 76.8 68.4 L 80.4 64.6 L 83.8 60.7 L 86.8 56.8 L 89.6 52.8 L 92.1 48.8 L 93.847247505188 45.62318630218506 L 93.8 45.6 L 94.8 43.9 L 104.6 50.9 L 106.2 54.1 L 102.24469270706177 54.16703910827637 L 101.5 55.2 L 100.83658533096313 56.0 L 135.0 56.0 L 135.55652170181276 55.53623189926147 L 136.0 54.6 L 136.37525081634521 54.853957653045654 L 141.0 51.0 L 152.0 60.0 L 147.0 63.0 L 142.18125 65.0078125 L 140.4 66.7 L 138.3 68.5 L 136.1 70.4 L 133.7 72.4 L 131.1 74.3 L 130.1550000190735 75.0 L 161.0 75.0 L 167.0 70.0 L 178.0 79.0 L 173.0 83.0 L 173.0 105.0 L 161.0 111.0 L 161.0 79.0 L 124.54782609939575 79.0 L 123.3067307472229 80.01947116851807 L 125.9 81.1 L 129.6 82.5 L 133.1 84.2 L 136.5 86.0 L 139.8 88.0 L 142.9 90.1 L 145.8 92.4 L 148.7 94.8 L 151.4 97.3 L 154.0 100.0 L 155.0 104.4 L 152.7 108.4 L 148.3 109.4 L 144.3 107.2 L 142.7 104.5 Z M 24.3 76.9 L 23.6 73.9 L 22.7 70.9 L 21.7 68.1 L 20.5 65.4 L 19.2 62.7 L 17.8 60.1 L 16.2 57.5 L 14.2 55.3 L 15.3 53.8 L 18.0 55.5 L 20.8 57.2 L 23.5 59.2 L 26.0 61.5 L 28.3 64.1 L 30.4 67.0 L 32.3 70.1 L 34.1 73.4 L 35.7 76.9 L 37.1 80.6 L 36.3 85.1 L 32.6 87.9 L 28.1 87.1 L 25.4 83.4 L 24.9 80.1 Z M 120.97831325531006 79.0 L 121.45 79.45 L 121.3 79.3 L 121.5464285850525 79.0 Z M 97.45249996185302 60.0 L 94.4 63.3 L 90.5 67.1 L 86.2 70.8 L 83.1734513282776 73.08672561645508 L 87.0 75.0 L 124.5 75.0 L 125.4 73.5 L 127.1 70.7 L 128.8 68.0 L 130.3 65.5 L 131.7 63.1 L 133.0 60.8 L 133.4 60.0 Z " />
</g>
</svg>
