<svg xmlns="http://www.w3.org/2000/svg" xmlns:xlink="http://www.w3.org/1999/xlink" version="1.1" baseProfile="full" viewBox="0 0 200 200" width="200" height="200">
<g fill="black">
<path d="M 40.0 79.4 L 166.0 79.4 L 169.88333330154418 75.51666669845581 L 162.6 73.6 L 153.9 70.8 L 146.0 67.7 L 139.0 64.2 L 136.3447995185852 62.55630445480347 L 132.9 64.4 L 125.1 67.7 L 116.5 70.4 L 107.1 72.4 L 96.9 73.8 L 96.5 72.0 L 106.1 68.8 L 114.7 65.3 L 122.5 61.6 L 129.3 57.8 L 129.39696588516236 57.730973434448245 L 127.3 56.1 L 122.9 51.4 L 119.4 46.4 L 117.0 41.1 L 116.43928575515747 38.29642858505249 L 116.1 38.5 L 111.9 40.6 L 107.4 42.5 L 102.7 44.2 L 101.8 42.7 L 105.7 39.7 L 109.3 36.6 L 112.6 33.5 L 115.6 30.6 L 118.4 27.6 L 120.9 24.6 L 123.1 21.6 L 125.0 18.6 L 126.7 15.6 L 127.66623182296753 13.52950325012207 L 127.6 13.5 L 128.0125 12.7875 L 128.1 12.6 L 128.11595134735109 12.608811283111573 L 128.7 11.6 L 138.6 18.4 L 140.3 21.6 L 136.244126701355 21.73748722076416 L 136.2 21.8 L 133.5 25.0 L 130.5 28.1 L 129.35714282989503 29.1 L 157.7 29.1 L 167.7 19.1 L 179.7 29.1 L 179.7 33.1 L 163.17014923095704 33.1 L 160.4 39.5 L 156.6 45.7 L 151.9 51.2 L 146.41576223373414 56.09664087295532 L 150.0 57.4 L 157.4 59.6 L 165.6 61.5 L 174.6 63.1 L 183.9 64.9 L 177.6820919036865 70.80174322128296 L 188.0 79.4 L 188.0 83.4 L 40.0 83.4 L 40.0 123.0 L 39.4 132.5 L 38.4 141.4 L 36.9 149.6 L 34.9 157.3 L 32.5 164.3 L 29.5 170.7 L 26.0 176.3 L 22.0 181.2 L 17.5 185.3 L 12.5 188.4 L 11.4 187.0 L 14.8 182.6 L 17.7 178.0 L 20.3 173.0 L 22.6 167.5 L 24.4 161.6 L 25.9 155.0 L 27.0 147.9 L 27.7 140.2 L 28.0 131.9 L 28.0 73.4 Z M 167.9 140.8 L 167.9 144.8 L 119.5 144.8 L 119.5 157.7 L 144.61818180084228 157.7 L 152.8 148.7 L 162.8 157.7 L 162.8 161.7 L 119.5 161.7 L 119.5 178.7 L 148.68000001907347 178.7 L 148.2 177.9 L 147.4 176.7 L 146.3 175.5 L 145.0 174.3 L 143.6 173.0 L 141.9 171.6 L 140.0 170.2 L 137.9 168.7 L 135.7 167.0 L 133.1 165.9 L 133.7 164.2 L 136.5 164.9 L 139.3 165.2 L 141.9 165.5 L 144.3 166.0 L 146.7 166.4 L 148.9 166.9 L 152.9 168.1 L 154.7 168.8 L 156.5 169.6 L 158.6 173.7 L 157.3 178.0 L 155.9333333015442 178.7 L 165.8 178.7 L 175.8 168.7 L 187.8 178.7 L 187.8 182.7 L 39.1 182.7 L 39.1 178.7 L 107.5 178.7 L 107.5 161.7 L 64.1 161.7 L 64.1 157.7 L 107.5 157.7 L 107.5 144.8 L 59.0 144.8 L 59.0 140.8 L 145.9 140.8 L 149.6875817298889 137.01241827011108 L 148.6 136.8 L 136.6 133.8 L 125.4 130.2 L 115.1 126.0 L 114.39368419647217 125.64684209823608 L 113.2 126.1 L 101.4 129.6 L 88.5 132.5 L 74.5 134.8 L 59.5 136.3 L 43.5 137.2 L 43.3 135.4 L 59.0 132.6 L 73.6 129.5 L 87.0 126.1 L 99.2 122.3 L 104.2548614501953 120.41591529846191 L 97.2 116.1 L 89.7 110.2 L 83.2 103.8 L 78.65915489196777 97.6 L 56.4 97.6 L 56.4 93.6 L 146.14406776428223 93.6 L 147.7 91.8 L 148.13420190811158 92.15483169555664 L 152.4 88.6 L 163.4 97.6 L 158.4 100.6 L 153.942857170105 102.45714282989502 L 150.3 106.1 L 142.6 112.0 L 133.8 117.3 L 127.78680362701417 120.18387985229492 L 128.5 120.4 L 139.3 123.0 L 150.8 125.2 L 163.2 126.9 L 176.4 128.1 L 187.0 129.1 L 175.1 141.2 L 167.03835372924806 140.08196144104005 Z M 82.0057692527771 97.6 L 86.0 100.7 L 93.2 105.5 L 101.0 109.9 L 109.4 113.8 L 114.97475624084473 115.9814263343811 L 120.1 113.6 L 128.8 108.7 L 136.3 103.4 L 142.6 97.7 L 142.68644065856932 97.6 Z M 85.3 58.9 L 83.3 57.3 L 81.1 55.7 L 78.5 54.0 L 75.8 52.2 L 72.7 50.4 L 69.5 48.4 L 67.5 47.2 L 67.5 70.1 L 55.5 76.1 L 55.5 52.6027027130127 L 53.6 54.4 L 49.6 57.8 L 45.3 60.8 L 40.7 63.6 L 35.9 66.1 L 30.7 68.3 L 25.3 70.1 L 19.5 71.4 L 18.8 69.8 L 23.7 66.6 L 28.2 63.5 L 32.5 60.4 L 36.4 57.3 L 40.1 54.1 L 43.4 50.8 L 46.4 47.5 L 49.1 44.0 L 50.50555553436279 41.8 L 20.1 41.8 L 20.1 37.8 L 55.5 37.8 L 55.5 26.8 L 25.8 26.8 L 25.8 22.8 L 55.5 22.8 L 55.5 12.6 L 67.5 14.6 L 70.5 16.6 L 67.5 18.4 L 67.5 22.8 L 73.3 22.8 L 83.3 12.8 L 95.3 22.8 L 95.3 26.8 L 67.5 26.8 L 67.5 37.8 L 79.9 37.8 L 89.9 27.8 L 101.9 37.8 L 101.9 41.8 L 67.5 41.8 L 67.5 43.802439022064206 L 71.0 44.4 L 74.8 45.2 L 78.4 46.1 L 81.7 47.0 L 84.9 47.9 L 87.8 48.9 L 90.5 49.9 L 93.1 51.0 L 95.4 52.1 L 97.8 56.0 L 96.8 60.4 L 92.9 62.8 L 88.4 61.8 L 87.0 60.4 Z M 124.44814815521241 33.1 L 123.8 33.6 L 120.1 36.1 L 118.94067792892456 36.79559326171875 L 120.7 39.2 L 124.1 42.9 L 128.0 46.3 L 132.4 49.4 L 137.00021657943725 52.01580944061279 L 140.2 49.2 L 144.3 44.6 L 147.6 39.7 L 150.1 34.7 L 150.60370368957518 33.1 Z " />
</g>
</svg>
