<svg xmlns="http://www.w3.org/2000/svg" xmlns:xlink="http://www.w3.org/1999/xlink" version="1.1" baseProfile="full" viewBox="0 0 200 200" width="200" height="200">
<g fill="black">
<path d="M 134.1 184.3 L 115.7 182.2 L 99.4 179.0 L 85.3 174.7 L 73.3 169.3 L 63.5 162.8 L 56.1 155.2 L 51.74590167999268 147.30819673538207 L 49.6 151.6 L 45.3 158.6 L 40.3 165.3 L 34.7 171.6 L 28.3 177.6 L 21.3 183.3 L 13.5 188.5 L 12.4 187.1 L 18.8 180.4 L 24.5 173.9 L 29.7 167.4 L 34.2 160.8 L 38.0 154.2 L 41.3 147.5 L 43.9 140.7 L 45.8 133.9 L 47.1 126.9 L 47.87714281082153 120.00285711288453 L 48.1 117.7 L 59.8 121.1 L 62.6 123.4 L 59.06894330978393 124.99896907806396 L 58.3 129.1 L 56.1 136.9 L 53.96688404083252 142.4166790962219 L 55.1 144.6 L 60.6 151.3 L 67.8 157.0 L 77.0 161.9 L 88.2 165.9 L 94.0 167.24179105758668 L 94.0 102.5 L 23.0 102.5 L 23.0 98.5 L 165.32631578445435 98.5 L 166.8 97.1 L 168.7 95.4 L 169.0537886619568 95.9551760673523 L 172.0 93.5 L 183.0 102.5 L 178.0 105.5 L 166.0 110.5 L 166.0 109.85 L 162.7 111.5 L 159.8 113.0 L 156.7 114.6 L 153.4 116.3 L 149.9 118.1 L 146.5 120.2 L 145.4 118.8 L 148.2 115.9 L 150.8 113.0 L 153.3 110.2 L 160.5 103.0 L 161.02380952835082 102.5 L 106.0 102.5 L 106.0 135.2 L 147.0 135.2 L 157.0 125.2 L 169.0 135.2 L 169.0 139.2 L 106.0 139.2 L 106.0 169.65290327072142 L 117.1 171.3 L 134.8 172.6 L 154.7 172.9 L 176.7 172.3 L 188.2 171.9 L 177.2 185.5 L 154.6 185.4 Z M 169.6 81.6 L 166.5 78.6 L 163.3 75.6 L 159.8 72.8 L 156.2 70.0 L 152.4 67.2 L 148.4 64.5 L 144.3 61.7 L 141.19444446563722 59.75 L 138.5 64.6 L 133.0 71.9 L 126.6 78.1 L 119.3 83.3 L 111.1 87.5 L 102.1 90.5 L 101.5 88.8 L 109.3 84.1 L 116.2 79.0 L 122.1 73.3 L 127.1 67.1 L 131.2 60.3 L 134.5 52.9 L 136.9 44.7 L 138.5 35.9 L 139.3 26.2 L 139.20951471328735 16.69904851913452 L 139.2 16.7 L 139.2 13.4 L 151.2 15.5 L 154.2 17.5 L 150.98777780532836 19.532222175598143 L 150.6 26.9 L 149.1 37.6 L 146.6 47.5 L 143.0 56.5 L 142.32947978973388 57.70693645477295 L 145.7 58.5 L 150.7 59.9 L 155.4 61.6 L 160.0 63.6 L 164.4 65.8 L 168.6 68.2 L 172.7 70.8 L 176.6 73.5 L 180.4 76.5 L 184.0 79.6 L 185.6 83.9 L 183.8 88.1 L 179.5 89.7 L 175.3 87.9 L 172.6 84.7 Z M 82.4 81.6 L 79.3 78.6 L 76.1 75.6 L 72.6 72.8 L 69.0 70.0 L 65.2 67.2 L 61.2 64.5 L 57.1 61.7 L 53.97608289718628 59.78305082321167 L 51.3 64.6 L 45.8 71.9 L 39.4 78.1 L 32.1 83.3 L 23.9 87.5 L 14.9 90.5 L 14.2 88.8 L 22.1 84.1 L 29.0 79.0 L 34.9 73.3 L 39.9 67.1 L 44.0 60.3 L 47.3 52.9 L 49.7 44.7 L 51.3 35.9 L 52.1 26.2 L 52.00951471328735 16.69904851913452 L 52.0 16.7 L 51.9 13.4 L 64.0 15.5 L 67.0 17.5 L 63.78777780532837 19.532222175598143 L 63.4 26.9 L 61.9 37.6 L 59.3 47.5 L 55.8 56.5 L 55.129479789733885 57.70693645477295 L 58.5 58.5 L 63.4 59.9 L 68.2 61.6 L 72.8 63.6 L 77.2 65.8 L 81.4 68.2 L 85.5 70.8 L 89.4 73.5 L 93.2 76.5 L 96.7 79.6 L 98.3 83.9 L 96.6 88.1 L 92.3 89.7 L 88.1 87.9 L 85.3 84.7 Z M 21.1 58.2 L 19.0 54.2 L 20.3 49.8 L 22.1 48.1 L 23.7 46.4 L 25.1 44.7 L 26.3 42.9 L 27.4 41.0 L 28.3 39.0 L 29.0 36.8 L 29.6 34.5 L 30.1 32.0 L 29.8 29.4 L 31.6 29.0 L 32.4 31.6 L 33.5 34.2 L 34.2 37.0 L 34.6 39.8 L 34.6 42.7 L 34.3 45.6 L 33.6 48.6 L 32.6 51.5 L 31.2 54.5 L 29.6 57.4 L 25.5 59.5 Z M 108.4 58.2 L 106.2 54.2 L 107.5 49.8 L 109.3 48.1 L 110.9 46.4 L 112.3 44.7 L 113.5 42.9 L 114.6 41.0 L 115.5 39.0 L 116.3 36.8 L 116.9 34.5 L 117.3 32.0 L 117.1 29.4 L 118.8 29.0 L 119.7 31.6 L 120.7 34.2 L 121.4 37.0 L 121.8 39.8 L 121.8 42.7 L 121.5 45.6 L 120.8 48.6 L 119.8 51.5 L 118.5 54.5 L 116.8 57.4 L 112.8 59.5 Z M 182.1 29.3 L 183.7 32.5 L 179.53568925857545 32.571798419952394 L 178.0 34.4 L 173.2 39.2 L 170.6 41.5 L 167.8 43.7 L 164.9 45.8 L 161.8 47.9 L 158.5 49.8 L 155.3 51.9 L 154.1 50.5 L 156.7 47.7 L 158.9 44.7 L 161.0 41.8 L 163.0 39.0 L 164.8 36.3 L 166.5 33.6 L 168.0 31.0 L 169.4 28.3 L 170.7 25.8 L 171.42212715148926 24.15880193710327 L 171.3 24.1 L 172.3 22.3 Z M 94.9 29.3 L 96.5 32.5 L 92.30840339660645 32.572268867492674 L 90.7 34.4 L 88.4 36.8 L 86.0 39.2 L 83.4 41.5 L 80.6 43.7 L 77.7 45.8 L 74.6 47.9 L 71.3 49.8 L 68.1 51.9 L 66.9 50.5 L 69.5 47.7 L 71.7 44.7 L 73.8 41.8 L 75.7 39.0 L 77.6 36.3 L 79.3 33.6 L 80.8 31.0 L 82.2 28.3 L 83.5 25.8 L 84.22212715148926 24.15880193710327 L 84.1 24.1 L 85.1 22.3 Z " />
</g>
</svg>
