<svg xmlns="http://www.w3.org/2000/svg" xmlns:xlink="http://www.w3.org/1999/xlink" version="1.1" baseProfile="full" viewBox="0 0 200 200" width="200" height="200">
<g fill="black">
<path d="M 172.9 174.8 L 172.1 171.4 L 171.0 167.8 L 169.7 164.2 L 168.1 160.6 L 166.3 156.8 L 164.4 153.0 L 162.2 149.0 L 159.7 145.1 L 161.1 143.9 L 164.7 147.0 L 168.2 150.1 L 171.3 153.4 L 174.2 156.9 L 176.8 160.4 L 179.1 164.0 L 181.2 167.7 L 183.0 171.5 L 184.5 175.4 L 185.8 179.4 L 184.8 183.8 L 181.0 186.4 L 176.6 185.4 L 174.0 181.6 L 173.6 178.3 Z M 70.9 185.3 L 69.8 180.9 L 72.0 176.9 L 73.8 175.7 L 75.6 174.2 L 77.3 172.1 L 79.0 169.6 L 80.6 166.5 L 82.1 162.9 L 83.5 158.9 L 84.8 154.3 L 86.0 149.3 L 86.9 143.7 L 88.7 143.8 L 89.1 149.5 L 89.4 154.8 L 89.4 159.9 L 89.0 164.6 L 88.3 169.0 L 87.2 173.1 L 85.9 176.9 L 84.1 180.4 L 82.0 183.5 L 79.4 186.4 L 74.9 187.5 Z M 140.3 172.7 L 140.0 169.5 L 139.5 166.3 L 138.7 163.1 L 137.8 159.8 L 136.7 156.4 L 135.4 153.0 L 133.9 149.5 L 132.0 146.0 L 133.4 144.9 L 139.1 150.6 L 141.7 153.6 L 144.0 156.8 L 146.0 160.1 L 147.8 163.5 L 149.3 167.0 L 150.6 170.6 L 151.6 174.3 L 152.4 178.1 L 150.9 182.4 L 146.8 184.5 L 142.5 183.0 L 140.4 178.9 L 140.5 175.8 Z M 113.9 184.5 L 109.8 182.4 L 108.3 178.1 L 108.8 175.0 L 109.2 171.9 L 109.3 168.8 L 109.3 165.7 L 109.1 162.5 L 108.8 159.3 L 108.2 156.1 L 107.6 152.8 L 106.8 149.3 L 105.5 146.0 L 107.1 145.1 L 109.3 148.0 L 111.6 151.0 L 113.5 154.1 L 115.2 157.3 L 116.7 160.7 L 117.9 164.1 L 118.8 167.7 L 119.6 171.4 L 120.0 175.1 L 120.3 178.9 L 118.2 183.0 Z M 57.4 180.0 L 55.8 181.9 L 54.0 183.5 L 52.0 184.9 L 49.8 186.0 L 47.5 186.9 L 45.2 187.5 L 42.7 187.8 L 40.2 188.0 L 40.2 182.0 L 26.2 179.0 L 26.2 176.0 L 40.2 176.0 L 41.6 175.9 L 42.8 175.7 L 43.9 175.4 L 44.9 175.1 L 45.8 174.6 L 46.6 174.0 L 47.3 173.4 L 48.1 172.5 L 48.8 171.5 L 49.5 170.3 L 52.1 163.8 L 54.5 153.2 L 56.1 139.5 L 56.7 123.5 L 55.8 106.0 L 55.326611804962155 102.77394733428955 L 51.9 109.1 L 47.7 115.9 L 43.2 122.5 L 38.3 128.8 L 33.1 134.8 L 27.5 140.5 L 21.5 145.8 L 15.1 150.6 L 13.8 149.3 L 18.8 143.1 L 23.5 136.9 L 28.0 130.7 L 32.2 124.4 L 36.1 117.9 L 39.7 111.3 L 43.0 104.5 L 46.0 97.5 L 48.7 90.3 L 51.1 83.0 L 52.02323322296142 83.3158429145813 L 48.4 68.9 L 46.34929580688477 63.59746475219727 L 42.2 68.3 L 35.8 74.6 L 29.2 80.4 L 22.2 85.4 L 15.0 89.7 L 13.9 88.2 L 19.8 82.4 L 25.5 76.4 L 31.1 70.1 L 36.4 63.4 L 41.4 56.4 L 42.7604362487793 54.31769952774048 L 41.4 50.8 L 31.8 33.6 L 19.7 17.3 L 20.9 16.0 L 36.1 30.4 L 47.233883476257326 47.296156597137454 L 50.9 41.0 L 55.2 32.6 L 59.4 23.8 L 62.91981134414673 15.406603813171387 L 62.9 15.4 L 63.8 13.2 L 74.3 19.2 L 76.3 22.3 L 72.54192237854004 22.753561115264894 L 69.6 28.7 L 64.7 37.7 L 59.5 46.1 L 54.0 54.1 L 51.695569133758546 57.04013595581055 L 55.9 66.4 L 61.6 85.7 L 61.7734395980835 86.65143985748291 L 62.5 86.9 L 62.02646226882935 88.03945016860962 L 65.1 104.9 L 66.7 123.2 L 66.7 140.1 L 65.5 154.8 L 63.2 166.8 L 60.2 175.9 L 58.9 178.0 Z M 171.4 29.9 L 183.4 39.9 L 183.4 43.9 L 165.1 43.9 L 165.1 87.4 L 169.51818180084229 87.4 L 177.7 78.4 L 187.7 87.4 L 187.7 91.4 L 165.1 91.4 L 165.1 133.5 L 168.11818180084228 133.5 L 176.3 124.5 L 186.3 133.5 L 186.3 137.5 L 69.6 137.5 L 69.6 133.5 L 87.2 133.5 L 87.2 91.4 L 67.5 91.4 L 67.5 87.4 L 87.2 87.4 L 87.2 53.2 L 83.0 59.0 L 78.4 64.7 L 73.5 70.3 L 68.2 75.8 L 66.8 74.7 L 70.4 68.0 L 74.0 61.6 L 77.5 55.4 L 80.8 49.2 L 83.9 43.2 L 86.8 37.3 L 89.4 31.4 L 91.9 25.7 L 94.1 20.0 L 95.7708683013916 15.321568584442138 L 95.7 15.3 L 96.6 13.1 L 107.2 18.8 L 109.3 21.8 L 105.49960823059082 22.389715957641602 L 104.5 24.5 L 101.6 30.3 L 98.4 36.0 L 96.00526313781738 39.9 L 161.4 39.9 Z M 98.2 91.4 L 98.2 133.5 L 110.0 133.5 L 110.0 91.4 Z M 120.0 91.4 L 120.0 133.5 L 132.3 133.5 L 132.3 91.4 Z M 142.3 91.4 L 142.3 133.5 L 154.1 133.5 L 154.1 91.4 Z M 98.2 43.9 L 98.2 87.4 L 110.0 87.4 L 110.0 43.9 Z M 120.0 43.9 L 120.0 87.4 L 132.3 87.4 L 132.3 43.9 Z M 142.3 43.9 L 142.3 87.4 L 154.1 87.4 L 154.1 43.9 Z " />
</g>
</svg>
