<svg xmlns="http://www.w3.org/2000/svg" xmlns:xlink="http://www.w3.org/1999/xlink" version="1.1" baseProfile="full" viewBox="0 0 200 200" width="200" height="200">
<g fill="black">
<path d="M 161.7 182.8 L 154.8 179.7 L 148.4 176.3 L 142.4 172.5 L 137.0 168.3 L 132.0 163.7 L 127.5 158.7 L 123.6 153.4 L 121.4689956665039 149.2090247154236 L 118.6 153.3 L 112.2 160.3 L 105.0 166.5 L 96.8 171.9 L 87.8 176.6 L 77.8 180.6 L 67.0 183.7 L 55.4 185.9 L 54.9 184.2 L 65.9 180.1 L 75.8 175.6 L 84.7 170.8 L 92.6 165.6 L 99.6 160.0 L 105.5 153.9 L 109.81818180084228 148.2 L 58.9 148.2 L 58.9 144.2 L 112.34202899932862 144.2 L 114.6 140.4 L 117.8 132.9 L 119.08101263046265 128.5 L 90.88323698043823 128.5 L 87.1 134.0 L 73.8 132.2 L 102.2 90.9 L 110.9 99.4 L 112.3 102.7 L 108.37537908554077 103.07024726867675 L 93.63468208312989 124.5 L 119.9 124.5 L 125.9 119.5 L 136.9 128.5 L 131.9 131.5 L 130.15856828689576 132.2255965232849 L 128.3 137.2 L 124.71666669845581 144.2 L 159.0 144.2 L 169.0 134.2 L 181.0 144.2 L 181.0 148.2 L 123.99024391174316 148.2 L 126.8 150.6 L 131.6 154.5 L 136.6 158.2 L 141.8 161.5 L 147.3 164.5 L 153.0 167.2 L 159.1 169.6 L 165.6 171.6 L 172.3 173.4 L 179.5 174.9 L 188.4 176.9 L 176.6 187.8 L 168.9 185.5 Z M 12.7 122.0 L 15.4 121.2 L 18.3 120.3 L 21.4 119.2 L 24.6 117.9 L 27.9 116.5 L 31.3 114.9 L 34.9 113.2 L 38.6 111.4 L 41.900908660888675 109.79186496734619 L 42.0 98.0 L 42.0 31.0 L 54.0 37.0 L 104.0 37.0 L 104.0 12.0 L 116.0 14.0 L 119.0 16.0 L 116.0 17.8 L 116.0 37.0 L 164.0 37.0 L 174.0 27.0 L 186.0 37.0 L 186.0 41.0 L 54.0 41.0 L 54.0 98.0 L 53.3 110.5 L 52.0 122.3 L 49.9 133.4 L 47.2 143.7 L 43.7 153.2 L 39.5 161.9 L 34.6 169.8 L 28.9 176.7 L 22.6 182.7 L 15.5 187.7 L 14.4 186.2 L 19.9 180.0 L 24.7 173.4 L 29.0 166.3 L 32.7 158.6 L 35.7 150.2 L 38.2 141.2 L 40.0 131.5 L 41.3 121.0 L 41.6436749458313 114.64201288223266 L 41.2 115.1 L 38.1 118.0 L 35.1 120.7 L 32.0 123.2 L 29.0 125.6 L 26.0 127.7 L 23.0 129.7 L 21.009677410125732 130.89419355392457 L 20.1 135.2 L 17.1 133.1 L 10.8 122.8 Z M 164.22631578445436 46.905263137817386 L 174.3 55.3 L 174.6 58.3 L 170.31660566329955 56.30912656784058 L 166.8 57.2 L 158.6 58.9 L 150.2 60.5 L 141.7 61.9 L 133.0 63.2 L 124.2 64.4 L 115.3 65.4 L 106.3 66.2 L 97.1 66.9 L 90.79006519317628 67.10138092041015 L 91.3 67.7 L 87.54694833755494 68.70528173446655 L 87.0 70.1 L 84.9 75.1 L 82.5 79.9 L 80.0 84.5 L 77.2 88.9 L 74.2 93.0 L 71.0 97.0 L 67.6 100.6 L 63.8 104.0 L 59.8 107.0 L 58.5 105.7 L 61.0 101.5 L 63.4 97.4 L 65.7 93.2 L 67.8 89.0 L 69.8 84.7 L 71.7 80.3 L 73.4 75.9 L 74.9 71.2 L 76.2 66.5 L 77.4 61.7 L 77.43929777145385 61.7111795425415 L 77.9 60.0 L 86.20058650970459 63.73900289535523 L 87.3 63.5 L 96.4 61.6 L 105.3 59.7 L 114.1 57.9 L 122.8 56.0 L 131.3 54.1 L 139.7 52.1 L 147.9 50.0 L 162.92345161437987 45.8685507774353 L 162.9 45.8 L 162.9676692008972 45.856390953063965 L 163.9 45.6 Z M 166.7 92.3 L 165.3 89.3 L 163.6 86.3 L 161.8 83.1 L 159.7 79.9 L 157.3 76.6 L 154.8 73.2 L 152.1 69.6 L 149.0 66.1 L 150.2 64.7 L 154.2 67.3 L 158.0 69.8 L 161.6 72.5 L 164.9 75.3 L 168.0 78.1 L 170.8 81.0 L 173.4 84.0 L 175.7 87.0 L 177.9 90.1 L 179.7 93.2 L 179.8 97.8 L 176.6 101.1 L 172.0 101.1 L 168.7 98.0 L 167.8 95.2 Z M 118.2 90.5 L 117.7 88.2 L 117.0 85.8 L 116.2 83.4 L 115.2 80.9 L 114.1 78.4 L 112.8 75.9 L 111.3 73.2 L 109.4 70.9 L 110.7 69.6 L 113.1 71.5 L 115.8 73.2 L 118.2 75.1 L 120.5 77.2 L 122.6 79.4 L 124.5 81.8 L 126.3 84.3 L 127.8 86.9 L 129.2 89.6 L 130.4 92.4 L 129.6 96.9 L 126.0 99.7 L 121.5 98.9 L 118.7 95.2 L 118.5 92.9 Z M 24.3 76.9 L 23.6 73.9 L 22.7 70.9 L 21.7 68.1 L 20.5 65.4 L 19.2 62.7 L 17.8 60.1 L 16.2 57.5 L 14.2 55.3 L 15.3 53.8 L 18.0 55.5 L 20.8 57.2 L 23.5 59.2 L 26.0 61.5 L 28.3 64.1 L 30.4 67.0 L 32.3 70.1 L 34.1 73.4 L 35.7 76.9 L 37.1 80.6 L 36.3 85.1 L 32.6 87.9 L 28.1 87.1 L 25.4 83.4 L 24.9 80.1 Z " />
</g>
</svg>
