<svg xmlns="http://www.w3.org/2000/svg" xmlns:xlink="http://www.w3.org/1999/xlink" version="1.1" baseProfile="full" viewBox="0 0 200 200" width="200" height="200">
<g fill="black">
<path d="M 14.5 126.1 L 19.4 124.1 L 24.5 121.9 L 29.8 119.7 L 35.3 117.4 L 40.9 115.0 L 41.6 114.71525421142579 L 41.6 66.0 L 29.258441543579103 66.0 L 28.3 70.1 L 26.2 77.5 L 23.8 84.6 L 21.2 91.5 L 18.3 98.0 L 15.0 104.3 L 13.3 103.6 L 14.7 96.8 L 16.1 89.9 L 17.5 82.9 L 18.8 75.7 L 19.9 68.3 L 21.0 60.8 L 21.9 53.0 L 22.7 45.0 L 23.3 36.9 L 23.7 28.5 L 23.76220836639404 28.504665660858155 L 23.9 26.3 L 35.7 29.4 L 38.5 31.7 L 35.194409942626955 33.35279502868652 L 34.6 38.0 L 33.3 46.4 L 31.8 54.5 L 30.186075973510743 62.0 L 41.6 62.0 L 41.6 13.0 L 53.6 15.0 L 56.6 17.0 L 53.6 18.8 L 53.6 62.0 L 56.31818180084228 62.0 L 64.5 53.0 L 74.5 62.0 L 74.5 66.0 L 53.6 66.0 L 53.6 109.9333333015442 L 59.2 107.8 L 65.8 105.4 L 72.7 103.1 L 73.5 104.8 L 67.5 108.8 L 61.6 112.6 L 55.8 116.1 L 53.6 117.39642858505249 L 53.6 183.0 L 41.6 189.0 L 41.6 124.41320753097534 L 39.4 125.7 L 34.2 128.7 L 29.3 131.5 L 24.5 134.2 L 23.488269805908203 134.79384164810182 L 23.0 138.7 L 19.9 136.9 L 12.7 127.0 Z M 136.1 176.0 L 156.1 176.0 L 157.3 175.9 L 158.2 175.7 L 159.1 175.4 L 159.5 175.0 L 159.8 174.1 L 160.0 173.2 L 160.1 172.0 L 160.1 115.0 L 114.7 115.0 L 114.7 111.0 L 160.1 111.0 L 160.1 86.0 L 172.1 88.0 L 175.1 90.0 L 172.1 91.8 L 172.1 111.0 L 176.4 111.0 L 180.9 105.0 L 186.9 111.0 L 186.9 115.0 L 172.1 115.0 L 172.1 172.0 L 171.9 174.5 L 171.5 177.0 L 170.7 179.4 L 169.4 181.7 L 167.8 183.7 L 165.8 185.3 L 163.5 186.6 L 161.1 187.4 L 158.6 187.8 L 156.1 188.0 L 156.1 182.0 L 136.1 179.0 Z M 87.8 35.1 L 101.5 35.1 L 107.5 30.1 L 118.5 39.1 L 113.5 43.1 L 113.5 157.7 L 101.5 163.7 L 101.5 151.7 L 87.8 151.7 L 87.8 163.7 L 75.8 169.7 L 75.8 29.1 Z M 133.3 150.9 L 132.2 147.9 L 130.9 145.0 L 129.6 142.2 L 128.1 139.5 L 126.5 136.8 L 124.8 134.2 L 123.0 131.6 L 120.8 129.3 L 121.9 127.8 L 127.7 131.0 L 130.5 133.0 L 133.2 135.2 L 135.8 137.6 L 138.2 140.3 L 140.5 143.1 L 142.6 146.2 L 144.6 149.5 L 146.5 153.0 L 146.3 157.5 L 143.1 160.7 L 138.5 160.6 L 135.3 157.3 L 134.4 154.1 Z M 87.8 95.4 L 87.8 147.7 L 101.5 147.7 L 101.5 95.4 Z M 87.8 39.1 L 87.8 91.4 L 101.5 91.4 L 101.5 39.1 Z M 114.1 78.0 L 143.8 78.0 L 143.8 47.0 L 118.0 47.0 L 118.0 43.0 L 143.8 43.0 L 143.8 13.0 L 155.8 15.0 L 158.8 17.0 L 155.8 18.8 L 155.8 43.0 L 159.7 43.0 L 169.7 33.0 L 181.7 43.0 L 181.7 47.0 L 155.8 47.0 L 155.8 78.0 L 166.2 78.0 L 176.2 68.0 L 188.2 78.0 L 188.2 82.0 L 114.1 82.0 Z " />
</g>
</svg>
