<svg xmlns="http://www.w3.org/2000/svg" xmlns:xlink="http://www.w3.org/1999/xlink" version="1.1" baseProfile="full" viewBox="0 0 200 200" width="200" height="200">
<g fill="black">
<path d="M 14.0 179.2 L 40.0 179.2 L 40.0 143.060493850708 L 32.9 144.2 L 24.3 145.3 L 15.1 146.2 L 14.8 144.4 L 23.5 141.6 L 31.7 138.9 L 39.4 136.5 L 46.6 134.1 L 53.3 131.9 L 59.5 129.6 L 65.1 127.5 L 70.1 125.4 L 74.6 123.3 L 77.72148151397705 121.73925924301147 L 77.7 121.7 L 77.73529415130615 121.73235292434693 L 78.6 121.3 L 79.5222791671753 123.37042255401612 L 87.3 130.5 L 87.5 133.8 L 83.7375 132.1875 L 83.5 132.3 L 78.9 133.9 L 73.8 135.5 L 68.2 137.0 L 62.2 138.5 L 55.6 140.0 L 48.6 141.5 L 42.023076915740965 142.7115385055542 L 52.0 147.7 L 148.0 147.7 L 154.0 142.7 L 165.0 151.7 L 160.0 155.7 L 160.0 179.2 L 164.0 179.2 L 174.0 169.2 L 186.0 179.2 L 186.0 183.2 L 14.0 183.2 Z M 52.0 151.7 L 52.0 179.2 L 76.0 179.2 L 76.0 151.7 Z M 88.0 151.7 L 88.0 179.2 L 112.0 179.2 L 112.0 151.7 Z M 124.0 151.7 L 124.0 179.2 L 148.0 179.2 L 148.0 151.7 Z M 162.7 143.2 L 158.3 141.3 L 153.4 139.3 L 147.8 137.4 L 141.6 135.5 L 134.8 133.6 L 127.4 131.7 L 119.4 129.6 L 110.8 127.4 L 111.1 125.6 L 119.9 125.9 L 128.2 126.4 L 136.0 127.2 L 143.2 128.1 L 149.8 129.2 L 155.9 130.4 L 161.5 131.7 L 166.6 133.2 L 171.2 134.8 L 175.3 136.6 L 178.1 140.2 L 177.6 144.8 L 173.9 147.5 L 169.4 147.0 L 166.4 145.1 Z M 56.0 71.6 L 144.0 71.6 L 150.0 66.6 L 161.0 75.6 L 156.0 79.6 L 156.0 120.3 L 144.0 126.3 L 144.0 120.3 L 56.0 120.3 L 44.0 126.3 L 44.0 65.6 Z M 56.0 105.4 L 56.0 116.3 L 144.0 116.3 L 144.0 105.4 Z M 56.0 90.5 L 56.0 101.4 L 144.0 101.4 L 144.0 90.5 Z M 56.0 75.6 L 56.0 86.5 L 144.0 86.5 L 144.0 75.6 Z M 15.0 60.2 L 94.0 60.2 L 94.0 50.6 L 56.0 50.6 L 44.0 56.6 L 44.0 19.3 L 56.0 25.3 L 94.0 25.3 L 94.0 11.8 L 106.0 13.8 L 109.0 15.8 L 106.0 17.6 L 106.0 25.3 L 144.0 25.3 L 150.0 20.3 L 161.0 29.3 L 156.0 33.3 L 156.0 50.6 L 144.0 56.6 L 144.0 50.6 L 106.0 50.6 L 106.0 60.2 L 170.7777777671814 60.2 L 177.0 53.2 L 185.0 60.2 L 185.0 64.2 L 15.0 64.2 Z M 56.0 29.3 L 56.0 46.6 L 94.0 46.6 L 94.0 29.3 Z M 106.0 29.3 L 106.0 46.6 L 144.0 46.6 L 144.0 29.3 Z " />
</g>
</svg>
