<svg xmlns="http://www.w3.org/2000/svg" xmlns:xlink="http://www.w3.org/1999/xlink" version="1.1" baseProfile="full" viewBox="0 0 200 200" width="200" height="200">
<g fill="black">
<path d="M 14.0 173.6 L 40.0 173.6 L 40.0 128.3 L 52.0 134.3 L 148.0 134.3 L 154.0 129.3 L 165.0 138.3 L 160.0 142.3 L 160.0 173.6 L 164.0 173.6 L 174.0 163.6 L 186.0 173.6 L 186.0 177.6 L 14.0 177.6 Z M 52.0 138.3 L 52.0 173.6 L 76.0 173.6 L 76.0 138.3 Z M 88.0 138.3 L 88.0 173.6 L 112.0 173.6 L 112.0 138.3 Z M 124.0 138.3 L 124.0 173.6 L 148.0 173.6 L 148.0 138.3 Z M 182.6 91.8 L 184.6 91.8 L 182.6 108.8 L 185.6 110.8 L 187.6 113.8 L 185.6 116.8 L 182.6 118.8 L 113.6 118.8 L 111.2 118.5 L 108.9 117.8 L 106.7 116.7 L 104.7 115.2 L 103.0 113.3 L 101.7 111.2 L 100.8 108.8 L 100.3 106.4 L 100.1 103.8 L 100.1 42.9 L 112.1 44.9 L 115.1 46.9 L 112.1 48.7 L 112.1 75.01323528289795 L 112.6 74.8 L 119.3 72.2 L 126.0 69.7 L 138.8 65.1 L 145.0 62.9 L 151.1 60.7 L 157.1 58.5 L 162.9 56.4 L 167.63047590255738 54.57420225143433 L 167.6 54.5 L 167.66944885253906 54.55916013717651 L 168.6 54.2 L 169.09169960021973 55.770707035064696 L 178.4 63.7 L 178.6 66.8 L 174.53491773605347 64.94680070877075 L 172.2 65.7 L 166.3 67.2 L 160.2 68.8 L 154.0 70.3 L 147.7 71.8 L 141.2 73.3 L 134.5 74.7 L 127.7 76.1 L 120.8 77.4 L 113.6 78.5 L 112.1 78.68493146896363 L 112.1 103.8 L 112.0 105.1 L 112.1 106.0 L 112.2 106.7 L 112.3 107.1 L 112.4 107.4 L 112.6 107.7 L 113.0 108.1 L 113.7 108.4 L 114.7 108.7 L 116.1 108.8 L 177.6 108.8 Z M 39.7 121.6 L 35.7 119.3 L 34.4 114.9 L 35.0 111.3 L 35.2 108.1 L 34.9 105.2 L 34.1 102.5 L 32.9 99.9 L 31.0 97.4 L 28.5 95.0 L 25.3 92.7 L 21.4 90.4 L 16.7 88.7 L 17.0 86.9 L 22.2 87.6 L 27.1 88.5 L 31.5 90.0 L 33.66114645004272 91.16369428634644 L 34.0 90.7 L 36.5 87.5 L 39.5 83.7 L 43.2 79.2 L 47.5 74.0 L 52.3 68.2 L 57.9 61.7 L 64.2 54.6 L 71.2 46.9 L 72.7 48.0 L 67.2 56.9 L 62.2 64.9 L 57.6 72.1 L 50.1 84.1 L 47.2 89.0 L 44.8 93.1 L 43.1 96.4 L 42.085393238067624 98.70592441558838 L 44.0 102.1 L 45.5 106.5 L 46.3 111.2 L 46.3 116.3 L 44.0 120.3 Z M 35.3 59.2 L 34.1 57.9 L 32.4 56.6 L 30.4 55.2 L 28.0 53.7 L 25.3 52.2 L 22.2 50.7 L 18.9 49.1 L 15.1 47.9 L 15.5 46.2 L 19.5 46.7 L 23.3 46.8 L 26.8 47.1 L 30.1 47.6 L 33.2 48.2 L 36.0 48.9 L 38.7 49.7 L 41.1 50.7 L 43.4 51.9 L 45.5 53.4 L 47.0 57.7 L 45.2 61.8 L 40.9 63.3 L 36.7 61.5 L 36.2 60.4 Z M 75.9 51.4 L 75.2 46.9 L 77.8 43.1 L 78.7 43.0 L 79.7 42.6 L 80.8 41.8 L 81.9 40.7 L 83.0 39.1 L 84.1 37.1 L 85.0 34.7 L 85.9 31.9 L 86.8 28.8 L 87.0 25.3 L 88.8 25.2 L 89.2 28.8 L 89.42941179275513 30.1 L 125.6 30.1 L 125.6 12.6 L 137.6 14.6 L 140.6 16.6 L 137.6 18.4 L 137.6 30.1 L 173.6 30.1 L 174.36875 29.459375 L 174.5 29.0 L 174.74385566711425 29.146786880493163 L 179.6 25.1 L 190.6 34.1 L 185.6 37.1 L 180.08947372436523 39.39605264663696 L 179.1 40.2 L 175.7 43.0 L 173.8 44.4 L 171.7 45.9 L 169.5 47.4 L 167.7 49.3 L 166.3 48.2 L 167.8 46.0 L 168.9 43.6 L 169.9 41.3 L 170.8 39.2 L 171.7 37.2 L 172.4 35.3 L 172.86666669845582 34.1 L 89.98387098312378 34.1 L 90.1 35.3 L 90.2 38.3 L 90.0 41.2 L 89.6 43.9 L 88.8 46.5 L 87.7 49.0 L 86.1 51.3 L 84.1 53.3 L 79.6 54.0 Z M 49.1 31.4 L 47.8 30.0 L 46.1 28.6 L 44.1 27.2 L 41.9 25.7 L 39.3 24.2 L 36.5 22.7 L 33.4 21.1 L 29.9 20.0 L 30.3 18.2 L 34.0 18.7 L 37.6 18.9 L 40.9 19.2 L 44.1 19.7 L 47.0 20.3 L 49.8 21.0 L 52.4 21.8 L 54.8 22.8 L 57.1 23.9 L 59.3 25.3 L 61.0 29.5 L 59.3 33.8 L 55.1 35.5 L 50.8 33.8 L 50.1 32.6 Z " />
</g>
</svg>
