<svg xmlns="http://www.w3.org/2000/svg" xmlns:xlink="http://www.w3.org/1999/xlink" version="1.1" baseProfile="full" viewBox="0 0 200 200" width="200" height="200">
<g fill="black">
<path d="M 14.0 173.6 L 40.0 173.6 L 40.0 126.6 L 52.0 132.6 L 148.0 132.6 L 154.0 127.6 L 165.0 136.6 L 160.0 140.6 L 160.0 173.6 L 164.0 173.6 L 174.0 163.6 L 186.0 173.6 L 186.0 177.6 L 14.0 177.6 Z M 52.0 136.6 L 52.0 173.6 L 76.0 173.6 L 76.0 136.6 Z M 88.0 136.6 L 88.0 173.6 L 112.0 173.6 L 112.0 136.6 Z M 124.0 136.6 L 124.0 173.6 L 148.0 173.6 L 148.0 136.6 Z M 120.9 110.3 L 122.5 109.6714285850525 L 122.5 77.8 L 122.0 82.3 L 120.6 89.8 L 118.7 96.9 L 116.4 103.5 L 113.6 109.5 L 110.4 115.0 L 106.6 119.9 L 102.4 124.1 L 97.7 127.5 L 96.5 126.2 L 99.5 121.6 L 102.2 116.8 L 104.6 111.8 L 106.6 106.5 L 108.3 100.8 L 109.7 94.7 L 110.7 88.1 L 111.3 81.1 L 111.43448276519776 77.78275861740113 L 100.8 83.1 L 100.8 13.2 L 112.8 19.2 L 132.0 19.2 L 138.0 14.2 L 149.0 23.2 L 144.0 27.2 L 144.0 65.1 L 134.5 69.85 L 134.5 104.9740740776062 L 134.7 104.9 L 137.4 104.0 L 140.1 103.0 L 142.7 102.2 L 145.4 101.5 L 147.8 100.4 L 148.7 102.0 L 146.7 103.6 L 144.8 105.7 L 142.8 107.6 L 140.7 109.5 L 136.3 113.3 L 134.5 114.78695650100708 L 134.5 115.4 L 133.7444444656372 115.4 L 131.7 117.0 L 130.29791793823242 118.10998163223266 L 130.0 122.4 L 126.8 120.8 L 119.1 111.3 Z M 85.0 92.7 L 84.2 90.0 L 82.4 84.6 L 81.4 82.0 L 81.0 80.91999998092652 L 81.0 121.2 L 69.0 127.2 L 69.0 90.36000003814698 L 67.8 93.0 L 65.0 98.2 L 62.1 103.0 L 58.9 107.4 L 55.5 111.5 L 51.7 115.0 L 50.3 113.9 L 52.3 109.4 L 54.3 104.7 L 56.3 99.9 L 58.1 95.0 L 59.9 89.8 L 61.5 84.3 L 63.1 78.6 L 64.4 72.7 L 65.7 66.5 L 66.19811325073242 63.2 L 53.3 63.2 L 53.3 59.2 L 69.0 59.2 L 69.0 52.0384614944458 L 66.3 53.7 L 61.8 52.5 L 59.5 48.6 L 59.5 46.3 L 59.3 41.5 L 59.1 39.0 L 58.8 36.5 L 58.4 34.0 L 57.4 28.8 L 56.9 26.0 L 55.9 23.5 L 57.4 22.6 L 59.1 24.9 L 61.0 27.0 L 62.7 29.3 L 64.3 31.6 L 65.8 34.0 L 68.4 39.0 L 69.0 40.418181800842284 L 69.0 12.1 L 81.0 14.1 L 84.0 16.1 L 81.0 17.9 L 81.0 59.2 L 86.1 59.2 L 90.6 53.2 L 96.6 59.2 L 96.6 63.2 L 81.0 63.2 L 81.0 72.84545450210571 L 82.8 74.4 L 84.9 76.4 L 87.0 78.6 L 88.9 80.9 L 90.8 83.3 L 92.6 85.8 L 94.4 88.4 L 96.0 91.0 L 97.6 93.8 L 97.5 98.4 L 94.3 101.6 L 89.7 101.5 L 86.5 98.3 L 85.8 95.5 Z M 179.1 120.1 L 177.6 122.1 L 175.9 123.9 L 174.0 125.4 L 171.9 126.7 L 169.6 127.6 L 167.2 128.3 L 164.7 128.7 L 162.2 128.8 L 162.2 122.8 L 144.2 119.8 L 144.2 116.8 L 162.2 116.8 L 163.5 116.7 L 164.7 116.6 L 165.7 116.3 L 166.5 115.9 L 167.2 115.5 L 167.8 115.0 L 168.4 114.4 L 169.0 113.6 L 169.6 112.5 L 170.2 111.3 L 170.3 110.9 L 170.8 107.4 L 171.1 104.6 L 171.4 101.3 L 171.6 97.4 L 171.9 92.9 L 172.1 87.8 L 172.3 82.2 L 172.43114757537842 78.2 L 159.2206718444824 78.2 L 158.8 85.6 L 146.5 90.9 L 149.3 40.2 L 160.4761194229126 46.6 L 171.2 46.6 L 171.2 23.6 L 152.2 23.6 L 152.2 19.6 L 171.2 19.6 L 177.2 14.6 L 188.2 23.6 L 183.2 27.6 L 183.2 54.6 L 171.2 60.6 L 171.2 50.6 L 160.7896640777588 50.6 L 159.44806203842163 74.2 L 172.5 74.2 L 178.5 69.2 L 189.5 78.2 L 184.5 81.2 L 184.34305181503296 81.26539506912232 L 184.3 82.6 L 184.1 88.3 L 183.9 93.5 L 183.6 98.1 L 183.3 102.2 L 183.1 105.7 L 182.7 108.8 L 182.4 111.4 L 182.0 113.6 L 181.4 115.6 L 180.4 117.9 Z M 46.1 120.1 L 44.6 122.1 L 42.9 123.9 L 41.0 125.4 L 38.9 126.7 L 36.6 127.6 L 34.2 128.3 L 31.7 128.7 L 29.2 128.8 L 29.2 122.8 L 17.2 119.8 L 17.2 116.8 L 29.2 116.8 L 30.5 116.7 L 31.7 116.6 L 32.7 116.3 L 33.5 115.9 L 34.2 115.5 L 34.8 115.0 L 35.4 114.4 L 36.0 113.6 L 36.6 112.5 L 37.2 111.3 L 37.3 110.9 L 37.8 107.4 L 38.1 104.6 L 38.4 101.3 L 38.6 97.4 L 38.9 92.9 L 39.1 87.8 L 39.3 82.2 L 39.43114757537842 78.2 L 26.22067184448242 78.2 L 25.8 85.6 L 13.5 90.9 L 16.3 40.2 L 27.476119422912596 46.6 L 38.2 46.6 L 38.2 23.6 L 19.2 23.6 L 19.2 19.6 L 38.2 19.6 L 44.2 14.6 L 55.2 23.6 L 50.2 27.6 L 50.2 50.6 L 38.2 56.6 L 38.2 50.6 L 27.78966407775879 50.6 L 26.448062038421632 74.2 L 39.5 74.2 L 45.5 69.2 L 56.5 78.2 L 51.5 81.2 L 51.34305181503296 81.26539506912232 L 51.3 82.6 L 51.1 88.3 L 50.9 93.5 L 50.6 98.1 L 50.3 102.2 L 50.1 105.7 L 49.7 108.8 L 49.4 111.4 L 49.0 113.6 L 48.4 115.6 L 47.4 117.9 Z M 120.0 65.1 L 122.5 65.6 L 122.5 65.1 Z M 112.8 23.2 L 112.8 61.1 L 132.0 61.1 L 132.0 23.2 Z M 97.6 24.6 L 100.1 27.2 L 96.13615531921387 28.403310012817382 L 93.7 34.4 L 92.2 37.5 L 90.8 40.5 L 89.3 43.4 L 87.7 46.1 L 86.0 48.8 L 84.2 51.2 L 82.6 53.7 L 81.0 53.0 L 81.7 50.2 L 82.0 47.2 L 83.0 41.2 L 83.5 38.1 L 84.5 31.7 L 85.5 25.1 L 85.86360349655152 22.627496337890626 L 85.7 22.6 L 86.4 19.9 Z " />
</g>
</svg>
