<svg xmlns="http://www.w3.org/2000/svg" xmlns:xlink="http://www.w3.org/1999/xlink" version="1.1" baseProfile="full" viewBox="0 0 200 200" width="200" height="200">
<g fill="black">
<path d="M 132.3 23.2 L 127.3 27.2 L 127.3 71.0 L 115.3 77.0 L 115.3 50.265517234802246 L 114.67036647796631 50.222094249725345 L 114.6 50.3 L 111.6 53.2 L 108.3 56.0 L 104.8 58.6 L 101.0 61.1 L 97.0 63.4 L 92.7 65.5 L 88.1 67.5 L 83.3 69.2 L 78.2 70.8 L 77.8 70.0 L 48.5 70.0 L 48.5 183.5 L 38.5 188.5 L 38.5 70.0 L 12.7 70.0 L 12.7 66.0 L 56.0 66.0 L 66.0 56.0 L 78.0 66.0 L 78.0 68.79090909957885 L 81.8 66.2 L 85.7 63.2 L 89.5 60.3 L 92.9 57.4 L 96.1 54.6 L 99.0 51.7 L 101.5 48.9 L 103.8 46.0 L 105.8 43.2 L 106.99774618148804 41.15678586959839 L 106.9 41.1 L 108.0 39.6 L 115.3 45.5021276473999 L 115.3 23.2 L 105.46800003051757 23.2 L 113.9 30.0 L 115.2 33.4 L 111.05288829803467 33.113992309570314 L 108.8 35.2 L 105.9 37.7 L 102.8 40.0 L 99.5 42.1 L 95.9 44.2 L 92.2 46.1 L 88.2 47.8 L 84.0 49.4 L 79.6 51.0 L 78.8 49.4 L 82.5 46.7 L 85.8 43.9 L 89.0 41.2 L 91.9 38.5 L 94.5 35.9 L 96.9 33.3 L 99.1 30.7 L 101.0 28.2 L 102.7 25.7 L 103.61488370895385 24.066279029846193 L 103.5 24.0 L 104.08666667938232 23.2 L 77.8 23.2 L 77.8 19.2 L 115.3 19.2 L 121.3 14.2 Z M 166.2 182.4 L 163.8 180.4 L 161.1 178.4 L 158.1 176.4 L 154.8 174.4 L 151.3 172.4 L 147.6 170.4 L 143.6 168.3 L 139.3 166.4 L 139.7 164.7 L 144.5 165.4 L 149.1 166.0 L 153.4 166.9 L 157.5 168.0 L 161.5 169.2 L 165.2 170.5 L 168.7 172.1 L 172.1 173.7 L 175.2 175.5 L 178.2 177.4 L 180.2 181.6 L 178.7 185.9 L 174.6 187.9 L 170.3 186.5 L 168.4 184.4 Z M 116.79569587707519 166.1275824546814 L 121.3 170.9 L 121.4 174.3 L 117.7378134727478 172.7958876609802 L 116.4 173.5 L 112.4 175.4 L 108.3 177.2 L 104.0 179.0 L 99.5 180.7 L 94.9 182.2 L 90.1 183.7 L 85.2 185.0 L 80.0 186.1 L 74.7 187.1 L 74.1 185.4 L 78.8 182.7 L 83.3 180.2 L 87.7 177.8 L 92.0 175.4 L 96.0 173.1 L 99.9 170.8 L 103.7 168.4 L 107.2 166.1 L 110.6 163.8 L 112.93656091690063 162.04757928848267 L 112.9 162.0 L 112.94144735336303 162.04391450881957 L 113.8 161.4 Z M 30.2 88.0 L 33.0 90.0 L 30.2 91.75 L 30.2 120.0 L 29.8 128.2 L 29.1 135.9 L 28.2 142.9 L 27.0 149.4 L 25.5 155.3 L 23.7 160.5 L 21.6 165.2 L 19.2 169.1 L 16.4 172.3 L 13.3 174.5 L 12.1 173.4 L 13.6 170.2 L 14.8 166.8 L 16.0 162.9 L 17.0 158.6 L 17.9 153.6 L 18.6 148.1 L 19.0 142.0 L 19.3 135.2 L 19.4 127.9 L 19.2 120.0 L 19.2 86.0 Z M 73.7 157.0 L 107.7 157.0 L 107.7 142.0 L 82.7 142.0 L 82.7 138.0 L 107.7 138.0 L 107.7 123.1 L 119.7 125.1 L 122.7 127.1 L 119.7 128.9 L 119.7 138.0 L 142.2 138.0 L 142.2 123.1 L 154.2 125.1 L 157.2 127.1 L 154.2 128.9 L 154.2 138.0 L 161.11818180084228 138.0 L 169.3 129.0 L 179.3 138.0 L 179.3 142.0 L 154.2 142.0 L 154.2 157.0 L 166.2 157.0 L 176.2 147.0 L 188.2 157.0 L 188.2 161.0 L 73.7 161.0 Z M 69.2 88.0 L 72.0 90.0 L 69.2 91.75 L 69.2 155.2 L 58.2 160.7 L 58.2 86.0 Z M 119.7 142.0 L 119.7 157.0 L 142.2 157.0 L 142.2 142.0 Z M 99.7 124.5 L 87.7 130.5 L 87.7 74.1 L 99.7 80.1 L 162.2 80.1 L 168.2 75.1 L 179.2 84.1 L 174.2 88.1 L 174.2 123.5 L 162.2 129.5 L 162.2 121.5 L 99.7 121.5 Z M 99.7 102.8 L 99.7 117.5 L 125.0 117.5 L 125.0 102.8 Z M 137.0 102.8 L 137.0 117.5 L 162.2 117.5 L 162.2 102.8 Z M 99.7 84.1 L 99.7 98.8 L 125.0 98.8 L 125.0 84.1 Z M 137.0 84.1 L 137.0 98.8 L 162.2 98.8 L 162.2 84.1 Z M 188.2 23.2 L 183.2 27.2 L 183.2 71.0 L 171.2 77.0 L 171.2 50.3 L 168.1 53.2 L 164.8 56.0 L 161.2 58.6 L 157.4 61.1 L 153.3 63.4 L 148.9 65.6 L 144.3 67.5 L 139.3 69.2 L 134.1 70.8 L 133.3 69.2 L 137.8 66.2 L 141.9 63.2 L 145.7 60.3 L 149.3 57.4 L 152.5 54.5 L 155.4 51.7 L 158.1 48.8 L 160.4 46.0 L 162.4 43.1 L 163.58427448272704 41.14943027496338 L 163.5 41.1 L 164.6 39.6 L 171.2 44.99354839324951 L 171.2 33.19322032928467 L 167.14426231384277 33.05573768615723 L 165.1 35.1 L 162.4 37.5 L 159.4 39.8 L 156.3 42.0 L 153.0 44.1 L 149.4 46.0 L 145.7 47.8 L 141.7 49.3 L 137.6 51.0 L 136.7 49.4 L 140.2 46.8 L 143.2 44.0 L 146.1 41.3 L 148.8 38.6 L 151.2 36.0 L 153.4 33.4 L 155.4 30.9 L 157.1 28.3 L 158.6 25.8 L 159.4031554222107 24.25547037124634 L 159.3 24.2 L 159.84179105758668 23.4119402885437 L 159.9 23.3 L 159.91289768218994 23.308512496948243 L 159.9875 23.2 L 133.7 23.2 L 133.7 19.2 L 171.2 19.2 L 177.2 14.2 Z M 69.7 30.0 L 69.7 34.0 L 20.2 34.0 L 20.2 30.0 L 51.518181800842285 30.0 L 59.7 21.0 Z M 161.18082189559937 23.2 L 169.9 29.9 L 171.2 32.76000003814697 L 171.2 23.2 Z " />
</g>
</svg>
