<svg xmlns="http://www.w3.org/2000/svg" xmlns:xlink="http://www.w3.org/1999/xlink" version="1.1" baseProfile="full" viewBox="0 0 200 200" width="200" height="200">
<g fill="black">
<path d="M 105.5 17.5 L 107.8 20.2 L 104.33663368225098 21.189533233642578 L 102.0 28.6 L 98.3 39.5 L 94.5 50.1 L 90.5 60.5 L 86.3 70.7 L 85.20467290878295 73.16448602676391 L 89.8 74.0 L 92.5 76.0 L 89.8 77.72340421676635 L 89.8 183.2 L 78.8 188.7 L 78.8 87.13695650100708 L 77.3 90.3 L 72.5 99.6 L 67.4 108.7 L 61.9 117.4 L 60.3 116.5 L 63.9 107.0 L 67.6 97.4 L 71.3 87.7 L 74.9 77.8 L 78.4 67.7 L 81.7 57.4 L 85.0 46.9 L 88.1 36.3 L 91.1 25.4 L 93.64562025070191 15.308434009552002 L 93.6 15.3 L 94.3 12.7 Z M 152.2 119.2 L 151.64077672958373 124.0 L 164.8 124.0 L 174.8 114.0 L 186.8 124.0 L 186.8 128.0 L 151.29090909957887 128.0 L 151.8 129.4 L 154.3 135.5 L 157.0 141.4 L 160.1 146.9 L 163.5 152.0 L 167.2 156.9 L 171.4 161.5 L 176.0 165.8 L 180.9 169.8 L 186.3 173.6 L 189.5 175.9 L 178.6 184.3 L 172.9 179.4 L 167.7 174.2 L 163.0 168.7 L 159.0 162.9 L 155.5 156.9 L 152.6 150.6 L 150.3 144.0 L 149.04519777297975 138.98079099655152 L 149.0 139.2 L 146.2 148.1 L 142.5 156.3 L 138.0 163.7 L 132.7 170.3 L 126.6 176.1 L 119.7 181.0 L 112.1 184.9 L 103.8 187.8 L 103.1 186.1 L 110.2 181.6 L 116.6 176.6 L 122.1 171.3 L 126.8 165.5 L 130.8 159.2 L 134.1 152.3 L 136.7 144.9 L 138.6 136.8 L 139.7 128.1 L 139.70531911849974 128.0 L 110.7 128.0 L 110.7 124.0 L 139.9180850982666 124.0 L 140.2 118.7 L 140.2 90.0 L 131.28679246902465 90.0 L 131.0 90.8 L 129.0 95.8 L 126.8 100.5 L 124.4 104.8 L 121.8 108.8 L 118.9 112.4 L 115.8 115.5 L 114.3 114.4 L 115.6 110.4 L 117.0 106.4 L 118.4 102.1 L 119.7 97.7 L 120.9 93.1 L 122.1 88.2 L 123.1 83.0 L 124.1 77.6 L 124.9 71.9 L 125.6 66.0 L 125.63263854980468 66.00521116256714 L 125.9 64.0 L 137.5 67.9 L 140.1 70.3 L 136.63973684310912 71.70973682403564 L 136.1 74.1 L 134.5 79.9 L 132.9 85.5 L 132.7207547187805 86.0 L 156.8 86.0 L 166.8 76.0 L 178.8 86.0 L 178.8 90.0 L 152.2 90.0 L 152.2 119.0 L 152.07027025222777 119.19459457397461 Z M 25.9 33.4 L 47.6 33.4 L 53.6 28.4 L 64.6 37.4 L 59.6 41.4 L 59.6 155.9 L 47.6 161.9 L 47.6 149.9 L 25.9 149.9 L 25.9 161.9 L 13.9 167.9 L 13.9 27.4 Z M 108.2 59.0 L 111.0 61.0 L 108.2 62.75 L 108.2 160.2 L 97.2 165.7 L 97.2 57.0 Z M 25.9 110.8 L 25.9 145.9 L 47.6 145.9 L 47.6 110.8 Z M 25.9 74.1 L 25.9 106.8 L 47.6 106.8 L 47.6 74.1 Z M 25.9 37.4 L 25.9 70.1 L 47.6 70.1 L 47.6 37.4 Z M 113.6 56.0 L 155.4 56.0 L 155.4 27.0 L 119.4 27.0 L 119.4 23.0 L 155.4 23.0 L 161.4 18.0 L 172.4 27.0 L 167.4 31.0 L 167.4 56.0 L 171.87777776718139 56.0 L 178.1 49.0 L 186.1 56.0 L 186.1 60.0 L 113.6 60.0 Z " />
</g>
</svg>
