<svg xmlns="http://www.w3.org/2000/svg" xmlns:xlink="http://www.w3.org/1999/xlink" version="1.1" baseProfile="full" viewBox="0 0 200 200" width="200" height="200">
<g fill="black">
<path d="M 172.2 147.0 L 174.2 147.0 L 172.2 172.0 L 175.8 174.4 L 178.2 178.0 L 175.8 181.6 L 172.2 184.0 L 112.9 184.0 L 110.4 183.8 L 107.9 183.4 L 105.5 182.6 L 103.2 181.3 L 101.2 179.7 L 99.5 177.7 L 98.3 175.4 L 97.5 173.0 L 97.1 170.5 L 96.9 168.0 L 96.9 85.0 L 108.9 87.0 L 111.9 89.0 L 108.9 90.8 L 108.9 127.17714281082154 L 109.7 126.8 L 116.5 123.6 L 123.1 120.4 L 129.4 117.1 L 135.4 113.6 L 141.2 110.0 L 146.7 106.2 L 152.0 102.3 L 156.9 98.3 L 161.6 94.0 L 161.63760328292847 94.04435262680053 L 161.8 93.9 L 169.4 103.2 L 169.9 106.7 L 166.2700548171997 105.53323192596436 L 163.9 107.3 L 158.1 111.1 L 152.1 114.7 L 145.8 118.1 L 139.3 121.1 L 132.6 123.9 L 125.6 126.5 L 118.4 128.7 L 110.9 130.4 L 108.9 130.76363639831544 L 108.9 168.0 L 109.0 169.2 L 109.2 170.1 L 109.3 170.7 L 109.5 171.0 L 109.9 171.4 L 110.8 171.7 L 111.7 171.9 L 112.9 172.0 L 166.2 172.0 Z M 30.3 33.4 L 59.3 33.4 L 65.3 28.4 L 76.3 37.4 L 71.3 41.4 L 71.3 155.9 L 59.3 161.9 L 59.3 149.9 L 30.3 149.9 L 30.3 161.9 L 18.3 167.9 L 18.3 27.4 Z M 30.3 110.8 L 30.3 145.9 L 59.3 145.9 L 59.3 110.8 Z M 30.3 74.1 L 30.3 106.8 L 59.3 106.8 L 59.3 74.1 Z M 167.0 79.6 L 161.6 74.1 L 156.4 68.2 L 151.5 61.9 L 146.7 55.3 L 142.1 48.2 L 137.8 40.7 L 133.9 32.7 L 132.66183576583862 29.810950088500977 L 127.8 38.2 L 122.4 46.8 L 116.7 55.2 L 110.8 63.3 L 104.5 71.3 L 97.9 79.1 L 90.9 86.6 L 83.6 93.7 L 75.9 100.6 L 74.6 99.3 L 80.8 91.2 L 86.8 83.1 L 92.7 75.0 L 98.4 66.8 L 103.8 58.5 L 108.9 50.1 L 113.8 41.6 L 118.4 33.0 L 122.7 24.2 L 126.59499998092652 15.744999980926513 L 127.3 14.1 L 137.6 20.4 L 139.5 23.5 L 135.78015394210814 23.884811687469483 L 134.3550036430359 26.61382293701172 L 137.4 30.6 L 142.8 37.5 L 148.0 44.0 L 153.3 50.1 L 158.6 55.9 L 163.9 61.2 L 169.3 66.2 L 174.8 70.7 L 180.3 74.8 L 185.9 78.5 L 189.4 80.9 L 178.4 89.4 L 172.6 84.7 Z M 30.3 37.4 L 30.3 70.1 L 59.3 70.1 L 59.3 37.4 Z " />
</g>
</svg>
