<svg xmlns="http://www.w3.org/2000/svg" xmlns:xlink="http://www.w3.org/1999/xlink" version="1.1" baseProfile="full" viewBox="0 0 200 200" width="200" height="200">
<g fill="black">
<path d="M 106.8 114.3 L 160.4 114.3 L 166.4 109.3 L 177.4 118.3 L 172.4 122.3 L 172.4 180.0 L 160.4 186.0 L 160.4 176.0 L 106.8 176.0 L 106.8 183.0 L 94.8 189.0 L 94.8 108.3 Z M 82.0 66.0 L 82.0 70.0 L 50.2 70.0 L 50.2 183.5 L 40.2 188.5 L 40.2 70.0 L 12.4 70.0 L 12.4 66.0 L 60.0 66.0 L 70.0 56.0 Z M 30.7 88.0 L 33.4 90.0 L 30.7 91.72340421676635 L 30.7 120.0 L 30.2 128.2 L 29.5 135.9 L 28.6 143.0 L 27.3 149.5 L 25.7 155.3 L 23.9 160.6 L 21.6 165.2 L 19.1 169.2 L 16.2 172.3 L 12.9 174.6 L 11.8 173.3 L 13.4 170.2 L 14.8 166.7 L 16.1 162.9 L 17.2 158.5 L 18.2 153.6 L 18.9 148.0 L 19.4 141.9 L 19.7 135.2 L 19.8 127.9 L 19.7 120.0 L 19.7 86.0 Z M 106.8 147.2 L 106.8 172.0 L 160.4 172.0 L 160.4 147.2 Z M 72.3 88.0 L 75.0 90.0 L 72.3 91.72340421676635 L 72.3 155.2 L 61.3 160.7 L 61.3 86.0 Z M 106.8 118.3 L 106.8 143.2 L 160.4 143.2 L 160.4 118.3 Z M 170.2 75.7 L 170.00523252487181 74.92093019485473 L 166.4 76.4 L 162.5 77.8 L 155.1 80.2 L 148.1 82.2 L 144.8 83.1 L 142.6719298362732 83.61589584350585 L 140.7 87.5 L 138.4 84.7 L 135.0 73.0 L 137.0 72.8 L 140.1 72.8 L 143.3 72.7 L 144.2728045463562 72.67138814926147 L 144.3 72.2 L 144.8 67.2 L 145.4 62.2 L 146.2 57.2 L 146.9 52.2 L 147.7 47.2 L 148.4 42.3 L 150.0 32.3 L 150.55614032745362 28.407017517089844 L 150.5 28.4 L 150.6714285850525 27.6 L 150.7 27.4 L 150.71366529464723 27.402895164489745 L 150.75714282989503 27.2 L 108.54186048507691 27.2 L 115.7 29.9 L 118.2 32.5 L 114.6020173072815 33.742939472198486 L 114.3 34.8 L 112.9 39.6 L 111.4 44.5 L 109.9 49.3 L 108.4 54.2 L 105.0 63.8 L 103.2 68.5 L 101.48853988647461 72.5219313621521 L 102.3 72.5 L 106.1 72.3 L 110.0 72.2 L 114.1 72.0 L 118.3 71.9 L 122.43178081512451 71.80609588623047 L 121.8 69.2 L 119.8 62.6 L 117.4 55.8 L 116.2 52.3 L 114.7 48.8 L 116.2 47.8 L 118.7 50.7 L 121.3 53.6 L 123.7 56.5 L 125.9 59.5 L 127.9 62.6 L 129.8 65.8 L 131.6 69.0 L 133.3 72.2 L 134.8 75.5 L 136.2 78.8 L 135.6 83.4 L 132.0 86.2 L 127.5 85.6 L 124.6 82.1 L 124.1 78.9 L 123.4 75.7 L 123.18611106872558 74.84444446563721 L 119.2 76.4 L 115.1 77.8 L 111.2 79.1 L 107.4 80.2 L 103.7 81.3 L 100.1 82.2 L 96.6 83.1 L 94.179660987854 83.74067792892455 L 92.3 87.5 L 89.9 84.7 L 86.6 73.0 L 88.6 72.8 L 91.8 72.8 L 95.1 72.7 L 97.47506875991822 72.63214092254638 L 97.5 72.2 L 98.0 67.2 L 100.1 52.2 L 100.9 47.2 L 101.7 42.3 L 102.4 37.3 L 103.2 32.3 L 103.75614032745361 28.407017517089844 L 103.7 28.4 L 103.87142858505248 27.6 L 103.9 27.4 L 103.91366529464722 27.402895164489745 L 103.95714282989502 27.2 L 86.0 27.2 L 86.0 23.2 L 160.0 23.2 L 170.0 13.2 L 182.0 23.2 L 182.0 27.2 L 155.3418604850769 27.2 L 162.5 29.9 L 165.0 32.5 L 161.40201730728148 33.742939472198486 L 161.1 34.8 L 159.7 39.6 L 158.2 44.5 L 156.7 49.3 L 155.2 54.2 L 151.8 63.8 L 150.0 68.5 L 148.27446155548097 72.55501537322998 L 150.2 72.5 L 153.8 72.4 L 157.6 72.2 L 161.5 72.1 L 165.5 71.9 L 169.2545454978943 71.9 L 168.6 69.2 L 167.6 65.9 L 166.5 62.6 L 165.4 59.2 L 164.2 55.8 L 163.0 52.3 L 161.5 48.8 L 163.0 47.8 L 165.5 50.7 L 168.1 53.6 L 170.4 56.5 L 172.6 59.5 L 174.7 62.6 L 176.6 65.8 L 178.4 69.0 L 180.0 72.2 L 181.6 75.5 L 183.0 78.8 L 182.4 83.4 L 178.8 86.2 L 178.59130430221558 86.17217388153077 L 188.4 95.0 L 188.4 99.0 L 79.6 99.0 L 79.6 95.0 L 170.21818180084227 95.0 L 178.28108110427857 86.13081083297729 L 174.3 85.6 L 171.4 82.1 L 170.9 78.9 Z M 73.2 30.0 L 73.2 34.0 L 20.4 34.0 L 20.4 30.0 L 51.2 30.0 L 61.2 20.0 Z " />
</g>
</svg>
