<svg xmlns="http://www.w3.org/2000/svg" xmlns:xlink="http://www.w3.org/1999/xlink" version="1.1" baseProfile="full" viewBox="0 0 200 200" width="200" height="200">
<g fill="black">
<path d="M 123.2 17.6 L 125.5 20.4 L 121.97834396362305 21.26496810913086 L 119.5 28.7 L 115.6 39.6 L 111.5 50.2 L 107.2 60.6 L 102.7 70.8 L 101.621875 73.1203125 L 106.9 74.0 L 109.9 76.0 L 106.9 77.8 L 106.9 183.0 L 94.9 189.0 L 94.9 86.96938772201538 L 93.2 90.3 L 88.1 99.7 L 82.6 108.7 L 76.8 117.4 L 75.2 116.5 L 79.2 107.0 L 87.2 87.6 L 91.1 77.7 L 94.9 67.6 L 98.5 57.3 L 102.0 46.8 L 105.4 36.2 L 108.6 25.3 L 111.41960697174072 15.203987884521485 L 111.4 15.2 L 112.1 12.6 Z M 65.2 127.2 L 63.5 124.1 L 61.6 121.0 L 59.6 117.8 L 57.4 114.6 L 55.0 111.4 L 52.9 108.62799997329712 L 52.9 181.0 L 40.9 187.0 L 40.9 118.68000001907349 L 38.8 124.7 L 35.4 133.0 L 31.6 140.8 L 27.5 148.2 L 23.0 155.2 L 18.1 161.6 L 12.7 167.5 L 11.3 166.4 L 14.9 159.5 L 18.4 152.5 L 21.7 145.2 L 24.7 137.7 L 27.4 129.9 L 29.9 121.8 L 32.2 113.4 L 34.1 104.6 L 35.7 95.5 L 36.617647075653075 89.0 L 12.8 89.0 L 12.8 85.0 L 40.9 85.0 L 40.9 14.0 L 52.9 16.0 L 55.9 18.0 L 52.9 19.8 L 52.9 85.0 L 58.2 85.0 L 68.2 75.0 L 80.2 85.0 L 80.2 89.0 L 52.9 89.0 L 52.9 102.86842107772827 L 55.8 104.7 L 59.2 107.2 L 62.5 109.9 L 65.6 112.6 L 68.6 115.4 L 71.3 118.3 L 73.9 121.3 L 76.3 124.3 L 78.6 127.4 L 79.1 131.9 L 76.3 135.6 L 71.7 136.0 L 68.1 133.3 L 66.7 130.2 Z M 182.3 141.0 L 184.3 141.0 L 182.3 166.0 L 185.9 168.4 L 188.3 172.0 L 185.9 175.6 L 182.3 178.0 L 144.2 178.0 L 141.6 177.8 L 139.1 177.4 L 136.7 176.6 L 134.5 175.3 L 132.5 173.7 L 130.8 171.7 L 129.6 169.4 L 128.8 167.0 L 128.3 164.5 L 128.2 162.0 L 128.2 103.04666662216187 L 122.0 104.7 L 114.4 105.8 L 114.0 104.1 L 120.8 101.1 L 127.4 97.8 L 128.2 97.35692310333252 L 128.2 18.0 L 140.2 20.0 L 143.2 22.0 L 140.2 23.8 L 140.2 90.1640625 L 140.3 90.1 L 146.5 85.6 L 152.6 80.7 L 158.6 75.2 L 164.4 69.3 L 170.2 62.9 L 175.8 55.9 L 175.8094464302063 55.90771961212158 L 176.2 55.4 L 185.1 63.5 L 186.1 67.0 L 182.38525295257568 66.42357378005981 L 178.6 70.5 L 172.0 76.9 L 165.2 82.8 L 158.3 88.0 L 151.3 92.6 L 144.1 96.7 L 140.2 98.4875 L 140.2 162.0 L 140.3 163.2 L 140.4 164.1 L 140.6 164.7 L 140.8 165.0 L 140.9 165.2 L 141.1 165.4 L 141.5 165.5 L 142.1 165.7 L 143.0 165.9 L 144.2 166.0 L 176.3 166.0 Z M 78.6 32.8 L 80.9 35.6 L 77.06678667068482 36.47424163818359 L 75.4 40.2 L 73.5 44.1 L 71.6 48.1 L 69.5 52.3 L 67.2 56.5 L 64.8 60.8 L 62.2 65.3 L 59.3 69.8 L 56.2 74.3 L 54.6 73.6 L 56.1 68.3 L 57.5 63.2 L 59.0 58.3 L 60.4 53.6 L 61.8 49.1 L 63.0 44.8 L 64.2 40.6 L 65.3 36.6 L 66.3 32.7 L 66.95363454818725 30.012835597991945 L 66.9 30.0 L 67.13661975860596 29.260563373565674 L 67.2 29.0 L 67.21807231903077 29.006024074554443 L 67.7 27.5 Z M 25.2 62.6 L 24.7 59.1 L 24.1 55.5 L 23.3 51.7 L 22.4 47.8 L 21.4 43.7 L 20.3 39.4 L 19.2 34.9 L 17.8 30.2 L 19.5 29.5 L 22.1 33.6 L 24.7 37.5 L 27.0 41.5 L 29.1 45.3 L 30.9 49.1 L 32.6 52.9 L 34.1 56.5 L 35.5 60.1 L 36.6 63.6 L 37.6 67.0 L 36.5 71.5 L 32.7 73.9 L 28.2 72.8 L 25.8 69.0 L 25.6 65.8 Z " />
</g>
</svg>
