<svg xmlns="http://www.w3.org/2000/svg" xmlns:xlink="http://www.w3.org/1999/xlink" version="1.1" baseProfile="full" viewBox="0 0 200 200" width="200" height="200">
<g fill="black">
<path d="M 159.9 182.8 L 151.9 179.5 L 144.4 175.7 L 138.9225393295288 172.28650999069214 L 130.8 176.3 L 121.5 179.9 L 111.5 182.9 L 100.8 185.3 L 89.4 187.1 L 89.1 185.3 L 99.9 181.7 L 109.8 177.8 L 119.0 173.8 L 127.4 169.5 L 131.5637999534607 166.9250184059143 L 131.0 166.5 L 125.2 161.1 L 119.9 155.2 L 115.3 148.6 L 111.96478872299194 142.2 L 111.0642105102539 142.2 L 108.1 148.6 L 102.8 157.2 L 96.8 165.1 L 90.0 172.1 L 82.5 178.3 L 74.1 183.5 L 65.1 187.7 L 64.2 186.1 L 72.0 180.3 L 79.1 174.1 L 85.3 167.5 L 90.8 160.4 L 95.6 152.7 L 99.7 144.5 L 103.1 135.7 L 105.7 126.2 L 105.71980199813842 126.1 L 71.8 126.1 L 71.8 122.1 L 106.51188116073608 122.1 L 107.7 116.1 L 108.58431367874145 107.9 L 88.2 107.9 L 88.2 103.9 L 156.4 103.9 L 166.4 93.9 L 178.4 103.9 L 178.4 107.9 L 120.57068967819214 107.9 L 118.9 118.1 L 117.87247705459595 122.1 L 170.51818180084229 122.1 L 178.7 113.1 L 188.7 122.1 L 188.7 126.1 L 116.84495410919189 126.1 L 116.1 129.0 L 112.82079210281373 138.2 L 160.1 138.2 L 160.51290321350098 137.85591402053834 L 160.9 137.2 L 161.13636360168456 137.33636360168458 L 166.1 133.2 L 177.1 142.2 L 172.1 145.2 L 168.9466552734375 146.513893699646 L 166.4 150.1 L 160.8 156.4 L 154.3 162.2 L 148.57164697647096 166.3954134941101 L 149.0 166.6 L 156.0 169.3 L 163.4 171.5 L 171.3 173.3 L 179.5 174.6 L 189.2 176.2 L 177.3 187.6 L 168.4 185.5 Z M 22.4 175.1 L 36.4 175.1 L 37.6 175.0 L 38.5 174.9 L 39.1 174.7 L 39.4 174.5 L 39.6 174.3 L 39.8 174.2 L 39.9 173.8 L 40.1 173.2 L 40.3 172.3 L 40.4 171.1 L 40.4 134.61612901687622 L 37.1 136.0 L 24.5 141.0 L 21.956910610198975 141.95365858078003 L 20.9 145.6 L 18.1 143.4 L 12.4 132.6 L 14.3 132.0 L 20.9 130.2 L 27.4 128.3 L 33.8 126.5 L 40.2 124.6 L 40.4 124.54375 L 40.4 91.1 L 14.5 91.1 L 14.5 87.1 L 40.4 87.1 L 40.4 58.9 L 52.4 60.9 L 55.4 62.9 L 52.4 64.7 L 52.4 87.1 L 56.9 87.1 L 66.9 77.1 L 78.9 87.1 L 78.9 91.1 L 52.4 91.1 L 52.4 121.16875 L 59.4 119.2 L 65.8 117.5 L 72.1 115.9 L 78.6 114.5 L 79.2 116.2 L 73.5 119.5 L 67.6 122.5 L 61.7 125.4 L 52.4 129.51639347076417 L 52.4 171.1 L 52.2 173.6 L 51.8 176.1 L 51.0 178.5 L 49.7 180.8 L 48.1 182.8 L 46.1 184.5 L 43.8 185.7 L 41.4 186.5 L 38.9 186.9 L 36.4 187.1 L 36.4 181.1 L 22.4 178.1 Z M 114.8 142.2 L 118.6 146.0 L 124.2 151.1 L 129.9 155.7 L 136.0 159.8 L 139.27659578323363 161.6723403930664 L 141.7 159.9 L 147.7 154.7 L 152.9 149.1 L 157.3 143.3 L 157.94918031692504 142.2 Z M 170.57801733016967 60.376892471313475 L 181.7 69.6 L 182.1 72.6 L 177.58136644363404 70.25031051635742 L 172.2 71.1 L 165.6 71.8 L 158.8 72.5 L 151.7 73.1 L 144.3 73.8 L 136.7 74.4 L 128.8 74.9 L 120.6 75.4 L 112.2 75.9 L 104.14242801666259 76.08523149490357 L 105.4 77.5 L 101.63423728942871 78.57593221664429 L 101.3 79.5 L 99.2 84.0 L 96.9 88.3 L 94.3 92.4 L 91.4 96.4 L 88.2 100.1 L 84.7 103.6 L 80.9 106.8 L 76.8 109.8 L 72.4 112.4 L 71.3 111.0 L 74.4 107.2 L 77.2 103.3 L 79.9 99.5 L 82.3 95.6 L 84.4 91.8 L 86.3 87.9 L 88.0 84.0 L 89.4 80.0 L 90.5 75.9 L 91.18259105682372 72.7145749092102 L 91.1 72.7 L 91.8 70.1 L 99.15105075836182 73.18481588363647 L 103.0 72.3 L 111.6 70.5 L 119.8 68.9 L 127.9 67.4 L 135.6 66.0 L 143.1 64.5 L 150.3 63.2 L 157.3 61.8 L 163.9 60.5 L 170.4 59.2 Z M 129.3 93.5 L 128.7 91.7 L 127.9 89.9 L 126.9 88.0 L 125.5 86.0 L 123.9 84.0 L 122.1 81.9 L 120.0 79.7 L 117.4 78.0 L 118.2 76.4 L 121.2 77.7 L 124.2 78.7 L 127.0 79.9 L 129.7 81.3 L 132.1 82.8 L 134.4 84.5 L 136.4 86.4 L 138.2 88.5 L 139.9 90.8 L 141.2 93.2 L 140.8 97.8 L 137.3 100.7 L 132.7 100.3 L 129.8 96.8 L 129.6 95.2 Z M 171.6 94.5 L 170.0 92.4 L 168.1 90.3 L 166.0 88.1 L 163.6 85.9 L 160.9 83.6 L 158.0 81.2 L 154.8 78.7 L 151.3 76.5 L 152.0 74.8 L 156.1 76.2 L 160.0 77.4 L 163.7 78.8 L 167.2 80.2 L 170.4 81.8 L 173.5 83.5 L 176.3 85.2 L 178.9 87.1 L 181.3 89.0 L 183.5 91.1 L 184.6 95.6 L 182.3 99.5 L 177.8 100.6 L 173.9 98.3 L 172.8 96.4 Z M 66.7 52.6 L 65.5 50.5 L 64.0 48.4 L 62.2 46.2 L 60.1 44.0 L 57.6 41.7 L 54.9 39.3 L 51.9 36.9 L 49.63333330154419 35.5 L 45.11176471710205 35.5 L 42.5 39.2 L 38.5 44.2 L 34.1 48.8 L 29.4 53.3 L 24.2 57.5 L 18.6 61.3 L 12.5 64.8 L 11.4 63.4 L 16.1 58.4 L 20.6 53.5 L 24.7 48.7 L 28.4 43.9 L 31.7 39.0 L 34.7 34.1 L 37.3 29.2 L 39.6 24.1 L 41.4 19.1 L 42.610848903656006 14.902390480041504 L 42.6 14.9 L 42.717073154449466 14.534146308898926 L 42.9 13.9 L 42.918178939819335 13.905690765380859 L 43.4 12.4 L 54.4 17.5 L 56.6 20.3 L 52.85384616851807 21.2365385055542 L 52.0 23.3 L 49.2 28.8 L 47.62075471878052 31.5 L 84.0 31.5 L 94.0 21.5 L 106.0 31.5 L 106.0 35.5 L 56.65454549789429 35.5 L 57.0 35.6 L 60.6 37.0 L 63.9 38.5 L 67.0 40.2 L 69.9 42.1 L 72.5 44.0 L 74.9 46.2 L 77.1 48.6 L 79.0 51.1 L 79.2 55.6 L 76.3 59.1 L 71.7 59.4 L 68.2 56.5 L 67.6 54.6 Z M 145.7 52.6 L 144.5 50.5 L 143.0 48.4 L 141.2 46.2 L 139.1 44.0 L 136.6 41.7 L 133.9 39.3 L 130.9 36.9 L 128.63333330154418 35.5 L 123.60408163070679 35.5 L 121.4 38.5 L 117.4 43.1 L 113.0 47.4 L 108.3 51.4 L 103.1 55.1 L 97.5 58.5 L 91.4 61.4 L 90.5 59.9 L 95.2 55.4 L 99.7 51.0 L 103.8 46.6 L 107.5 42.2 L 110.8 37.7 L 113.8 33.1 L 116.4 28.5 L 118.6 23.7 L 120.4 18.8 L 121.62283134460449 14.80541763305664 L 121.6 14.8 L 122.4 12.3 L 133.4 17.6 L 135.6 20.4 L 131.83166666030883 21.259444427490234 L 131.0 23.2 L 128.2 28.5 L 126.31764707565307 31.5 L 164.0 31.5 L 174.0 21.5 L 186.0 31.5 L 186.0 35.5 L 135.65454549789428 35.5 L 136.0 35.6 L 139.6 37.0 L 142.9 38.5 L 146.0 40.2 L 148.9 42.1 L 151.5 44.0 L 153.9 46.2 L 156.1 48.6 L 158.0 51.1 L 158.2 55.6 L 155.3 59.1 L 150.7 59.4 L 147.2 56.5 L 146.6 54.6 Z " />
</g>
</svg>
