<svg xmlns="http://www.w3.org/2000/svg" xmlns:xlink="http://www.w3.org/1999/xlink" version="1.1" baseProfile="full" viewBox="0 0 200 200" width="200" height="200">
<g fill="black">
<path d="M 99.4 26.0 L 166.6 26.0 L 176.6 16.0 L 188.6 26.0 L 188.6 30.0 L 99.4 30.0 L 99.4 91.0 L 98.9 105.0 L 98.2 118.1 L 97.2 130.3 L 95.9 141.6 L 94.3 152.0 L 92.4 161.4 L 90.2 169.9 L 87.6 177.4 L 84.5 183.9 L 81.1 189.3 L 79.6 188.6 L 81.3 182.6 L 82.8 176.0 L 84.3 168.5 L 85.6 160.2 L 86.6 150.9 L 87.5 140.8 L 88.1 129.7 L 88.4 117.7 L 88.5 104.8 L 88.4 91.0 L 88.4 20.5 Z M 114.4 175.6 L 132.4 175.6 L 133.7 175.5 L 134.6 175.3 L 135.2 175.2 L 135.5 175.0 L 135.9 174.6 L 136.2 173.7 L 136.4 172.8 L 136.4 148.3 L 98.6 148.3 L 98.6 144.3 L 136.4 144.3 L 136.4 129.0 L 145.3333333015442 130.4888889312744 L 146.9 128.4 L 148.8 126.1 L 150.7 123.9 L 154.3 119.5 L 156.01428575515746 117.5 L 114.2 117.5 L 114.2 113.5 L 159.1 113.5 L 159.29565219879152 113.33695650100708 L 159.4 113.2 L 161.0 111.2 L 161.3808964729309 111.59925289154053 L 165.1 108.5 L 176.1 117.5 L 171.1 120.5 L 163.9 123.5 L 162.3 124.5 L 157.3 127.5 L 154.8 128.9 L 152.1 130.3 L 149.4 131.6 L 149.33913040161133 131.62608699798585 L 151.4 133.0 L 148.4 134.8 L 148.4 144.3 L 164.8 144.3 L 174.8 134.3 L 186.8 144.3 L 186.8 148.3 L 148.4 148.3 L 148.4 171.6 L 148.3 174.1 L 147.9 176.6 L 147.1 179.0 L 145.8 181.3 L 144.2 183.3 L 142.2 185.0 L 139.9 186.2 L 137.5 187.0 L 135.0 187.4 L 132.4 187.6 L 132.4 181.6 L 114.4 178.6 Z M 67.9 127.3 L 66.1 124.2 L 64.1 121.0 L 62.0 117.9 L 59.7 114.7 L 57.2 111.4 L 54.6 108.1 L 54.6 181.0 L 42.6 187.0 L 42.6 117.8125 L 40.0 124.8 L 36.5 133.0 L 32.6 140.9 L 28.4 148.3 L 23.7 155.2 L 18.6 161.6 L 13.1 167.5 L 11.7 166.4 L 15.5 159.5 L 19.1 152.4 L 22.6 145.2 L 25.7 137.7 L 28.6 129.9 L 31.2 121.7 L 33.5 113.3 L 35.5 104.5 L 37.3 95.4 L 38.21428575515747 89.0 L 13.2 89.0 L 13.2 85.0 L 42.6 85.0 L 42.6 14.0 L 54.6 16.0 L 57.6 18.0 L 54.6 19.8 L 54.6 85.0 L 61.3 85.0 L 71.3 75.0 L 83.3 85.0 L 83.3 89.0 L 54.6 89.0 L 54.6 102.71282052993774 L 57.8 104.6 L 61.3 107.2 L 64.7 109.8 L 67.9 112.5 L 71.0 115.3 L 73.8 118.2 L 76.5 121.2 L 79.0 124.2 L 81.3 127.3 L 81.9 131.9 L 79.1 135.5 L 74.6 136.1 L 70.9 133.4 L 69.5 130.3 Z M 120.7 48.7 L 163.7 48.7 L 169.7 43.7 L 180.7 52.7 L 175.7 56.7 L 175.7 98.7 L 163.7 104.7 L 163.7 98.7 L 120.7 98.7 L 109.7 104.2 L 109.7 43.2 Z M 120.7 75.7 L 120.7 94.7 L 163.7 94.7 L 163.7 75.7 Z M 81.4 32.8 L 83.6 35.7 L 79.68960247039794 36.52324161529541 L 78.0 40.3 L 76.1 44.2 L 74.1 48.2 L 71.9 52.3 L 69.6 56.5 L 67.1 60.9 L 64.4 65.3 L 61.5 69.8 L 58.3 74.3 L 56.7 73.6 L 58.2 68.3 L 59.8 63.2 L 61.3 58.3 L 62.8 53.6 L 64.2 49.1 L 65.6 44.7 L 66.9 40.5 L 68.0 36.5 L 69.1 32.7 L 69.7764705657959 29.918954277038573 L 69.7 29.9 L 70.5 27.5 Z M 26.3 62.6 L 25.8 59.2 L 25.1 55.6 L 24.3 51.8 L 23.4 47.8 L 22.3 43.7 L 21.1 39.4 L 19.9 34.9 L 18.5 30.2 L 20.1 29.5 L 25.5 37.5 L 27.8 41.4 L 30.0 45.3 L 31.9 49.1 L 33.6 52.8 L 35.2 56.5 L 36.5 60.0 L 37.7 63.6 L 38.8 67.0 L 37.7 71.4 L 33.8 73.9 L 29.4 72.8 L 26.9 69.0 L 26.7 65.9 Z M 120.7 52.7 L 120.7 71.7 L 163.7 71.7 L 163.7 52.7 Z " />
</g>
</svg>
