<svg xmlns="http://www.w3.org/2000/svg" xmlns:xlink="http://www.w3.org/1999/xlink" version="1.1" baseProfile="full" viewBox="0 0 200 200" width="200" height="200">
<g fill="black">
<path d="M 62.8 104.9 L 62.62276239395142 104.12458562850952 L 62.3 104.3 L 57.5 106.6 L 52.6 108.6 L 50.9 109.22448978424072 L 50.9 183.0 L 38.9 189.0 L 38.9 113.16078433990478 L 37.5 113.6 L 32.3 115.0 L 27.0 116.4 L 21.7 117.6 L 20.492815685272216 117.85054769515992 L 18.8 121.4 L 16.4 118.7 L 12.7 107.2 L 14.6 106.9 L 19.9 106.4 L 25.2 105.8 L 27.47410669326782 105.5376030921936 L 29.1 102.1 L 47.1 66.1 L 54.1 51.7 L 57.5 44.4 L 60.8 37.2 L 60.840148735046384 37.21970262527466 L 61.4 36.1 L 71.6 42.5 L 73.4 45.7 L 69.65410776138306 45.95395879745483 L 63.6 56.7 L 59.5 63.7 L 50.9 77.5 L 46.5 84.3 L 41.9 91.0 L 37.2 97.7 L 32.3 104.1 L 31.518813610076904 105.0464373588562 L 35.5 104.5 L 40.7 103.8 L 56.0 101.4 L 61.2 100.7 L 61.79648733139038 100.63117456436157 L 61.1 98.0 L 60.0 94.7 L 58.8 91.5 L 57.5 88.3 L 56.1 85.2 L 54.7 82.2 L 52.8 79.3 L 54.1 78.0 L 56.9 80.2 L 59.7 82.5 L 62.3 85.2 L 64.8 88.0 L 67.0 91.1 L 69.1 94.4 L 71.0 98.0 L 72.8 101.7 L 74.4 105.6 L 75.8 109.7 L 75.0 114.2 L 71.3 116.9 L 66.8 116.1 L 64.1 112.4 L 63.5 108.6 Z M 161.5 177.5 L 153.9 172.3 L 147.4 165.9 L 141.9 158.4 L 137.5 150.0 L 134.2 140.6 L 131.98486280441284 130.58372755050658 L 129.5 139.5 L 125.0 150.4 L 119.2 160.0 L 112.2 168.2 L 104.2 175.0 L 95.0 180.2 L 84.9 184.0 L 73.8 186.1 L 73.4 184.4 L 83.6 180.4 L 92.4 175.5 L 100.1 169.8 L 106.6 163.0 L 112.1 155.3 L 116.5 146.5 L 120.0 136.5 L 122.4 125.3 L 123.8 112.9 L 124.1 99.2 L 124.1 96.8 L 136.1 99.3 L 139.1 101.4 L 135.826105594635 103.29885873794555 L 135.1 113.9 L 134.56538858413697 117.15626945495606 L 134.8 118.3 L 137.6 128.9 L 141.0 138.2 L 142.61548948287964 141.4713662147522 L 144.2 139.3 L 146.8 135.6 L 149.3 132.0 L 151.8 128.6 L 154.2 125.2 L 156.5 121.9 L 158.7 118.6 L 162.7 112.2 L 164.02640409469603 109.91563739776612 L 164.0 109.9 L 164.275 109.4875 L 164.5 109.1 L 164.52268514633178 109.1159722328186 L 165.0 108.4 L 174.3 116.0 L 175.6 119.4 L 171.67932958602904 119.12960891723633 L 169.1 121.9 L 166.3 124.8 L 160.3 130.6 L 157.1 133.4 L 153.7 136.2 L 150.2 138.9 L 146.5 141.6 L 143.6440019607544 143.55410394668579 L 145.0 146.3 L 149.6 153.1 L 154.8 158.9 L 160.6 163.5 L 167.0 167.1 L 174.0 169.7 L 181.9 171.4 L 191.2 173.2 L 179.4 184.4 L 170.0 181.6 Z M 34.9 128.5 L 37.7 130.8 L 34.27036094665527 132.41775426864623 L 34.0 134.1 L 32.8 139.6 L 31.4 145.0 L 29.7 150.4 L 27.8 155.7 L 25.6 160.9 L 23.2 166.0 L 20.5 170.9 L 17.4 175.8 L 14.0 180.4 L 12.4 179.5 L 14.0 174.1 L 15.6 168.8 L 17.1 163.6 L 18.5 158.4 L 19.7 153.2 L 20.7 148.1 L 21.5 142.9 L 22.2 137.7 L 22.7 132.6 L 22.942287349700926 128.40035238265992 L 22.9 128.4 L 23.2 125.2 Z M 62.4 150.9 L 61.7 147.0 L 60.8 143.3 L 59.9 139.7 L 58.8 136.3 L 57.6 132.9 L 56.4 129.6 L 55.0 126.4 L 53.4 123.3 L 54.8 122.1 L 57.5 124.5 L 60.2 127.1 L 62.7 130.0 L 65.1 133.2 L 67.2 136.6 L 69.2 140.2 L 70.9 144.1 L 72.6 148.2 L 74.0 152.4 L 75.3 156.9 L 74.3 161.4 L 70.5 163.9 L 66.0 162.9 L 63.5 159.1 L 63.0 154.9 Z M 85.9 150.4 L 84.6 146.1 L 86.7 142.0 L 88.8 140.5 L 90.8 138.6 L 92.8 136.4 L 94.7 133.7 L 96.5 130.6 L 98.2 127.1 L 99.8 123.2 L 101.3 118.9 L 102.7 114.2 L 103.9 109.0 L 105.7 109.1 L 105.9 114.5 L 105.9 119.7 L 105.6 124.5 L 105.0 129.1 L 104.0 133.5 L 102.7 137.5 L 101.2 141.4 L 99.3 144.9 L 97.0 148.2 L 94.4 151.2 L 90.0 152.5 Z M 117.3 69.0 L 116.4 66.6 L 115.4 64.3 L 114.2 62.0 L 112.9 59.8 L 111.4 57.6 L 110.8 56.7375 L 110.8 93.9 L 98.8 99.9 L 98.8 64.7875 L 97.6 67.0 L 94.2 72.5 L 90.5 77.6 L 86.6 82.3 L 82.3 86.6 L 77.7 90.3 L 72.8 93.5 L 71.7 92.1 L 75.1 87.6 L 78.3 83.0 L 81.3 78.3 L 84.2 73.4 L 86.9 68.2 L 89.3 62.8 L 91.6 57.1 L 93.6 51.1 L 95.4 44.8 L 96.11999998092651 41.8 L 74.9 41.8 L 74.9 37.8 L 98.8 37.8 L 98.8 12.2 L 110.8 14.2 L 113.8 16.2 L 110.8 18.0 L 110.8 37.8 L 114.5777777671814 37.8 L 120.8 30.8 L 128.8 37.8 L 128.8 41.8 L 110.8 41.8 L 110.8 51.55714282989502 L 112.3 52.2 L 115.0 53.6 L 117.5 55.3 L 119.9 57.2 L 122.2 59.2 L 124.4 61.5 L 126.3 64.0 L 128.2 66.6 L 129.9 69.4 L 129.8 74.0 L 126.6 77.2 L 122.0 77.1 L 118.8 73.9 L 118.1 71.4 Z M 171.5 83.4 L 168.6 78.9 L 165.8 74.3 L 163.4 69.3 L 161.2 64.2 L 160.1 61.230000019073486 L 160.1 93.9 L 148.1 99.9 L 148.1 63.42142858505249 L 145.8 67.2 L 142.9 71.6 L 139.7 75.6 L 136.3 79.2 L 132.7 82.5 L 128.8 85.3 L 127.5 84.0 L 132.1 76.0 L 134.3 71.9 L 136.4 67.7 L 138.3 63.3 L 140.2 58.7 L 141.9 53.9 L 143.5 48.8 L 145.0 43.6 L 145.37894735336303 41.8 L 130.1 41.8 L 130.1 37.8 L 148.1 37.8 L 148.1 12.2 L 160.1 14.2 L 163.1 16.2 L 160.1 18.0 L 160.1 37.8 L 165.8181818008423 37.8 L 174.0 28.8 L 184.0 37.8 L 184.0 41.8 L 160.1 41.8 L 160.1 45.619999980926515 L 160.2 45.8 L 163.0 50.9 L 165.8 55.8 L 168.6 60.4 L 171.5 64.7 L 174.4 68.7 L 177.5 72.4 L 180.6 75.9 L 183.9 79.0 L 187.2 81.9 L 188.9 83.5 L 178.1 91.5 L 174.7 87.5 Z M 27.3 68.8 L 26.3 65.8 L 25.0 62.8 L 23.6 60.0 L 22.0 57.1 L 20.2 54.4 L 18.2 51.6 L 16.0 48.8 L 13.5 46.3 L 14.5 44.8 L 17.8 46.6 L 21.1 48.3 L 24.2 50.4 L 27.1 52.7 L 27.24881887435913 52.84330711364746 L 29.3 47.1 L 30.8 43.0 L 35.6 30.7 L 37.1 26.7 L 38.7 22.6 L 40.2 18.5 L 41.252413749694824 15.417931079864502 L 41.2 15.4 L 41.43529415130615 14.882352924346923 L 41.6 14.4 L 41.64536085128784 14.42020616531372 L 42.2 13.2 L 52.6 19.3 L 54.5 22.3 L 50.697226238250735 22.833722591400146 L 50.5 23.2 L 48.3 27.1 L 46.0 31.0 L 43.7 34.8 L 41.3 38.6 L 38.9 42.3 L 36.3 45.9 L 33.6 49.5 L 30.7 53.0 L 29.217045497894286 54.73863639831543 L 29.8 55.3 L 32.3 58.1 L 34.6 61.1 L 36.8 64.3 L 38.7 67.7 L 40.4 71.2 L 40.0 75.8 L 36.6 78.8 L 32.0 78.4 L 29.0 75.0 L 28.2 71.8 Z " />
</g>
</svg>
