<svg xmlns="http://www.w3.org/2000/svg" xmlns:xlink="http://www.w3.org/1999/xlink" version="1.1" baseProfile="full" viewBox="0 0 200 200" width="200" height="200">
<g fill="black">
<path d="M 153.3 176.5 L 143.8 171.9 L 134.8 166.5 L 126.6 160.6 L 119.0 153.9 L 112.2 146.7 L 106.1 138.8 L 101.08445949554444 130.50506753921508 L 98.63286905288696 129.5516713142395 L 94.5 132.4 L 86.8 137.2 L 78.9 141.6 L 70.7 145.7 L 68.42156858444214 146.70359477996826 L 72.0 147.3 L 75.0 149.3 L 72.0 151.1 L 72.0 169.9 L 70.8202898979187 170.48985509872438 L 73.9 170.2 L 82.7 169.4 L 92.1 168.6 L 101.9 167.8 L 112.1 167.2 L 122.8 166.7 L 123.1 168.5 L 112.6 171.0 L 102.6 173.2 L 93.0 175.1 L 83.8 176.9 L 75.0 178.6 L 66.7 180.2 L 58.8 181.6 L 51.4 183.0 L 44.3 184.3 L 41.87653064727783 184.7846939086914 L 40.2 188.3 L 37.8 185.6 L 34.1 173.9 L 36.1 173.7 L 42.8 173.1 L 49.9 172.4 L 57.4 171.7 L 60.0 171.47250003814696 L 60.0 150.27241382598876 L 53.6 152.7 L 44.6 155.6 L 35.4 158.1 L 25.9 160.1 L 16.2 161.6 L 15.7 159.9 L 24.9 156.5 L 33.8 153.0 L 42.4 149.4 L 50.7 145.7 L 58.7 141.7 L 66.4 137.4 L 73.9 132.9 L 81.0 128.2 L 87.9 123.2 L 89.76792449951172 121.7 L 61.0 121.7 L 61.0 128.7 L 49.0 134.7 L 49.0 83.6 L 61.0 89.6 L 139.0 89.6 L 145.0 84.6 L 156.0 93.6 L 151.0 97.6 L 151.0 121.7 L 139.0 127.7 L 139.0 121.7 L 99.47179489135742 121.7 L 104.4 127.9 L 110.7 135.1 L 117.4 141.7 L 124.5 147.6 L 124.66245698928833 147.71542997360228 L 126.0 147.0 L 130.1 144.8 L 134.1 142.7 L 138.0 140.6 L 141.7 138.7 L 145.3 136.7 L 148.8 134.8 L 152.2 132.9 L 155.4 131.1 L 157.57356910705568 129.72340621948243 L 157.5 129.6 L 157.60762424468993 129.70183801651 L 158.4 129.2 L 159.5466914176941 131.53665428161622 L 166.8 138.4 L 167.0 141.7 L 163.22320051193236 140.1770969390869 L 160.2 141.3 L 156.5 142.6 L 152.7 143.8 L 148.8 145.0 L 144.7 146.2 L 140.5 147.3 L 136.2 148.4 L 131.7 149.3 L 127.82167835235596 149.96013984680175 L 132.1 153.0 L 140.1 157.8 L 148.6 162.0 L 157.7 165.6 L 167.3 168.6 L 177.5 171.1 L 186.2 173.1 L 174.4 183.9 L 163.6 180.5 Z M 61.0 93.6 L 61.0 117.7 L 139.0 117.7 L 139.0 93.6 Z M 18.0 75.2 L 92.0 75.2 L 92.0 54.1 L 104.0 56.1 L 107.0 58.1 L 104.0 59.9 L 104.0 75.2 L 161.0 75.2 L 171.0 65.2 L 183.0 75.2 L 183.0 79.2 L 18.0 79.2 Z M 67.7 50.9 L 66.5 48.9 L 65.0 46.8 L 63.2 44.7 L 61.1 42.5 L 58.7 40.3 L 56.0 38.0 L 53.0 35.6 L 50.83333330154419 34.3 L 46.064000034332274 34.3 L 43.4 38.0 L 39.5 42.7 L 35.1 47.3 L 30.3 51.6 L 25.2 55.6 L 19.5 59.4 L 13.5 62.7 L 12.4 61.3 L 17.2 56.4 L 21.6 51.6 L 25.7 46.9 L 29.4 42.2 L 32.8 37.5 L 35.8 32.8 L 38.4 27.9 L 40.6 23.1 L 42.4 18.2 L 43.62799043655396 14.106698608398437 L 43.6 14.1 L 44.4 11.6 L 55.3 16.9 L 57.6 19.7 L 53.79343242645264 20.568164539337157 L 53.0 22.5 L 50.2 27.8 L 48.6615385055542 30.3 L 85.0 30.3 L 95.0 20.3 L 107.0 30.3 L 107.0 34.3 L 58.0 34.3 L 61.5 35.6 L 64.8 37.1 L 67.9 38.7 L 70.8 40.4 L 73.4 42.3 L 75.8 44.4 L 78.0 46.7 L 79.9 49.1 L 80.2 53.7 L 77.3 57.2 L 72.8 57.6 L 69.2 54.7 L 68.6 52.8 Z M 146.7 50.9 L 145.5 48.9 L 144.0 46.8 L 142.2 44.7 L 140.1 42.5 L 137.7 40.3 L 135.0 38.0 L 132.0 35.6 L 129.8333333015442 34.3 L 123.48333330154419 34.3 L 121.1 36.9 L 117.4 40.3 L 113.4 43.4 L 109.1 46.3 L 104.4 48.9 L 99.4 51.3 L 98.5 49.8 L 102.3 46.1 L 105.9 42.4 L 109.1 38.8 L 112.1 35.2 L 114.7 31.6 L 117.0 27.9 L 118.9 24.3 L 120.6 20.6 L 121.9 16.9 L 122.65330877304078 14.112757682800293 L 122.6 14.1 L 123.4 11.7 L 134.3 16.9 L 136.6 19.7 L 132.70756301879882 20.58774881362915 L 132.4 21.3 L 130.1 25.5 L 127.4 29.5 L 126.76842107772828 30.3 L 165.0 30.3 L 175.0 20.3 L 187.0 30.3 L 187.0 34.3 L 137.0 34.3 L 140.5 35.6 L 143.8 37.1 L 146.9 38.7 L 149.8 40.4 L 152.4 42.3 L 154.8 44.4 L 157.0 46.7 L 158.9 49.1 L 159.2 53.7 L 156.3 57.2 L 151.8 57.6 L 148.2 54.7 L 147.6 52.8 Z " />
</g>
</svg>
