<svg xmlns="http://www.w3.org/2000/svg" xmlns:xlink="http://www.w3.org/1999/xlink" version="1.1" baseProfile="full" viewBox="0 0 200 200" width="200" height="200">
<g fill="black">
<path d="M 158.9 78.0 L 160.9 78.0 L 158.9 103.0 L 162.5 105.4 L 164.9 109.0 L 162.5 112.6 L 158.9 115.0 L 124.1 115.0 L 121.5 114.9 L 121.19087133407592 114.8381742477417 L 120.0 116.0 L 111.3 123.0 L 101.9 129.2 L 91.9985221862793 134.24975366592406 L 103.1 136.1 L 106.1 138.1 L 103.1 139.9 L 103.1 172.2 L 127.0 172.2 L 127.0 119.5 L 139.0 121.5 L 142.0 123.5 L 139.0 125.3 L 139.0 172.2 L 162.8 172.2 L 162.8 134.1 L 174.8 136.1 L 177.8 138.1 L 174.8 139.9 L 174.8 180.2 L 162.8 186.2 L 162.8 176.2 L 103.1 176.2 L 103.1 183.2 L 91.1 189.2 L 91.1 134.6199999809265 L 81.4 138.5 L 80.7 136.8 L 90.1 131.0 L 98.9 124.7 L 107.1 117.9 L 113.4939528465271 111.7551622390747 L 112.3 110.8 L 110.7 108.7 L 109.5 106.5 L 108.6 104.1 L 108.2 101.6 L 108.1 99.0 L 108.1 59.9 L 120.1 61.9 L 123.1 63.9 L 120.1 65.7 L 120.1 100.3 L 120.3 101.2 L 120.5 101.8 L 120.7 102.1 L 120.8 102.3 L 121.0 102.4 L 121.3 102.6 L 121.62866239547729 102.70955410003663 L 121.9 102.4 L 128.4 93.7 L 134.3 84.3 L 139.7 74.2 L 144.5 63.4 L 148.8 51.8 L 148.81158180236815 51.804202270507815 L 149.3 50.4 L 160.1 55.9 L 162.2 58.8 L 158.53701343536378 59.506892108917235 L 154.9 67.9 L 149.2 79.2 L 142.8 89.6 L 135.8 99.2 L 132.51818180084229 103.0 L 152.9 103.0 Z M 66.2 127.8 L 64.5 124.7 L 62.6 121.6 L 60.6 118.4 L 58.4 115.2 L 56.0 111.9 L 53.9 109.12799997329712 L 53.9 181.9 L 41.9 187.9 L 41.9 119.31000003814697 L 39.8 125.4 L 36.4 133.6 L 32.6 141.5 L 28.5 149.0 L 24.0 155.9 L 19.1 162.4 L 13.7 168.3 L 12.3 167.2 L 15.9 160.3 L 19.4 153.3 L 22.7 146.0 L 25.7 138.4 L 28.4 130.6 L 30.9 122.4 L 33.1 113.9 L 35.1 105.1 L 36.7 96.0 L 37.620930194854736 89.4 L 13.8 89.4 L 13.8 85.4 L 41.9 85.4 L 41.9 14.0 L 53.9 16.0 L 56.9 18.0 L 53.9 19.8 L 53.9 85.4 L 59.2 85.4 L 69.2 75.4 L 81.2 85.4 L 81.2 89.4 L 53.9 89.4 L 53.9 103.36842107772827 L 56.8 105.2 L 60.3 107.8 L 63.5 110.4 L 66.6 113.2 L 69.6 116.0 L 72.3 118.9 L 74.9 121.9 L 77.3 125.0 L 79.6 128.1 L 80.1 132.6 L 77.3 136.2 L 72.7 136.7 L 69.1 133.9 L 67.7 130.9 Z M 83.9 109.6 L 82.9 105.1 L 85.3 101.2 L 86.8 100.5 L 88.3 99.2 L 90.0 97.3 L 91.6 94.8 L 93.1 91.6 L 94.6 87.9 L 96.0 83.7 L 97.3 78.9 L 98.6 73.5 L 99.6 67.6 L 101.4 67.7 L 101.7 73.7 L 102.0 79.4 L 101.9 84.6 L 101.5 89.5 L 100.8 94.0 L 99.9 98.1 L 98.6 101.8 L 96.9 105.3 L 94.8 108.4 L 92.3 111.0 L 87.8 112.0 Z M 170.9 98.6 L 170.0 94.9 L 169.0 91.4 L 167.8 88.0 L 166.5 84.7 L 165.1 81.6 L 162.1 75.4 L 160.2 72.6 L 161.4 71.3 L 164.3 73.4 L 167.2 75.6 L 169.9 78.2 L 172.4 81.1 L 174.8 84.3 L 177.0 87.7 L 179.0 91.3 L 180.9 95.2 L 182.6 99.2 L 184.1 103.5 L 183.3 108.0 L 179.7 110.8 L 175.2 110.0 L 172.4 106.4 L 171.7 102.4 Z M 125.4 67.2 L 124.8 64.7 L 124.1 62.3 L 123.3 60.1 L 122.4 57.8 L 121.5 55.7 L 120.5 53.5 L 119.4 51.4 L 117.8 49.7 L 119.0 48.3 L 121.0 49.6 L 123.3 50.8 L 125.5 52.4 L 127.6 54.1 L 129.6 56.1 L 131.4 58.3 L 133.2 60.7 L 134.8 63.2 L 136.4 66.0 L 137.8 68.9 L 137.3 73.4 L 133.8 76.4 L 129.3 75.9 L 126.3 72.4 L 125.9 69.8 Z M 79.6 32.9 L 81.9 35.7 L 78.11489028930664 36.56327066421509 L 78.1 36.6 L 76.4 40.4 L 74.5 44.3 L 72.6 48.4 L 70.5 52.5 L 68.2 56.8 L 65.8 61.1 L 63.2 65.6 L 60.3 70.1 L 57.2 74.7 L 55.6 73.9 L 57.1 68.6 L 58.5 63.5 L 60.0 58.6 L 61.4 53.9 L 62.8 49.4 L 64.0 45.0 L 65.2 40.8 L 66.3 36.8 L 67.3 32.9 L 67.97662086486817 30.118336582183836 L 67.9 30.1 L 68.7 27.7 Z M 26.2 62.9 L 25.7 59.4 L 25.1 55.8 L 24.3 52.0 L 23.4 48.0 L 22.4 43.9 L 21.3 39.6 L 20.2 35.0 L 18.8 30.4 L 20.5 29.6 L 23.1 33.7 L 25.7 37.7 L 28.0 41.7 L 30.1 45.6 L 31.9 49.4 L 33.6 53.1 L 35.1 56.8 L 36.5 60.4 L 37.6 63.9 L 38.6 67.4 L 37.5 71.8 L 33.7 74.3 L 29.2 73.2 L 26.8 69.3 L 26.6 66.2 Z M 81.3 69.4 L 79.6 65.1 L 81.3 60.9 L 82.3 60.2 L 83.4 59.0 L 84.7 57.2 L 85.9 54.8 L 87.0 51.8 L 88.1 48.4 L 89.0 44.4 L 89.9 40.0 L 90.8 35.0 L 91.4 29.6 L 93.2 29.6 L 93.8 35.1 L 94.1960000038147 38.4 L 127.0 38.4 L 127.0 11.5 L 139.0 13.5 L 142.0 15.5 L 139.0 17.3 L 139.0 38.4 L 171.8 38.4 L 177.8 33.4 L 188.8 42.4 L 183.8 45.4 L 180.80962562561035 46.64598932266235 L 179.6 48.6 L 178.1 50.8 L 176.5 53.1 L 174.7 55.5 L 172.9 58.0 L 170.9 60.5 L 168.7 63.2 L 166.8 66.1 L 165.2 65.3 L 166.5 62.0 L 167.3 58.7 L 168.1 55.6 L 168.9 52.7 L 169.7 49.9 L 170.3 47.3 L 170.9 44.8 L 171.4 42.5 L 171.4181818008423 42.4 L 94.59166669845581 42.4 L 94.8 44.9 L 94.9 49.3 L 94.7 53.3 L 94.3 57.1 L 93.7 60.5 L 92.8 63.7 L 91.5 66.7 L 89.8 69.4 L 85.5 71.1 Z " />
</g>
</svg>
