<svg xmlns="http://www.w3.org/2000/svg" xmlns:xlink="http://www.w3.org/1999/xlink" version="1.1" baseProfile="full" viewBox="0 0 200 200" width="200" height="200">
<g fill="black">
<path d="M 63.4 187.4 L 61.0 187.0 L 58.6 186.2 L 56.4 185.1 L 54.4 183.5 L 52.7 181.6 L 51.5 179.4 L 50.6 177.0 L 50.1 174.5 L 50.0 172.0 L 50.0 155.0 L 35.0 155.0 L 35.0 167.0 L 23.0 173.0 L 23.0 109.0 L 35.0 115.0 L 79.0 115.0 L 85.0 110.0 L 96.0 119.0 L 91.0 123.0 L 91.0 159.0 L 79.0 165.0 L 79.0 155.0 L 62.0 155.0 L 62.0 173.2 L 62.1 174.1 L 62.2 174.7 L 62.4 175.1 L 62.5 175.4 L 62.7 175.6 L 63.1 175.9 L 63.7 176.1 L 64.7 176.3 L 66.0 176.5 L 175.5 176.5 L 181.0 155.5 L 183.0 155.5 L 181.0 176.5 L 184.3 178.7 L 186.5 182.0 L 184.3 185.3 L 181.0 187.5 L 66.0 187.5 Z M 163.0 98.4 L 161.0 94.8 L 158.8 91.3 L 156.3 87.9 L 153.7 84.5 L 150.9 81.2 L 147.9 77.8 L 147.1 76.92258062362671 L 147.1 163.0 L 135.1 169.0 L 135.1 35.8 L 104.7 35.8 L 104.7 31.8 L 164.2 31.8 L 174.2 21.8 L 186.2 31.8 L 186.2 35.8 L 147.1 35.8 L 147.1 71.76046514511108 L 151.1 73.9 L 155.1 76.5 L 158.9 79.3 L 162.4 82.4 L 165.8 85.6 L 168.9 89.0 L 171.8 92.5 L 174.6 96.3 L 177.1 100.2 L 177.4 104.7 L 174.5 108.2 L 169.9 108.6 L 166.4 105.6 L 164.8 102.0 Z M 35.0 137.0 L 35.0 151.0 L 50.0 151.0 L 50.0 137.0 Z M 62.0 137.0 L 62.0 151.0 L 79.0 151.0 L 79.0 137.0 Z M 35.0 119.0 L 35.0 133.0 L 50.0 133.0 L 50.0 119.0 Z M 62.0 119.0 L 62.0 133.0 L 79.0 133.0 L 79.0 119.0 Z M 36.3 92.8 L 35.9 91.0 L 35.4 89.2 L 34.7 87.4 L 33.8 85.6 L 32.6 83.7 L 31.2 81.7 L 29.5 79.7 L 27.4 78.2 L 28.3 76.6 L 30.8 77.8 L 33.4 78.7 L 35.9 79.8 L 38.2 81.2 L 40.3 82.8 L 42.3 84.6 L 44.1 86.6 L 45.7 88.8 L 47.1 91.2 L 48.2 93.8 L 47.3 98.2 L 44.83333330154419 100.0 L 64.05 100.0 L 64.9 98.6 L 66.1 95.7 L 67.3 92.9 L 68.4 90.2 L 70.4 85.2 L 71.2 82.9 L 71.9 80.6 L 72.6 78.4 L 72.8607723236084 77.35691061019898 L 72.7 77.3 L 73.25714282989502 76.0 L 17.0 76.0 L 17.0 72.0 L 49.0 72.0 L 49.0 57.0 L 61.0 59.0 L 64.0 61.0 L 61.0 62.8 L 61.0 72.0 L 76.0 72.0 L 86.0 62.0 L 98.0 72.0 L 98.0 76.0 L 74.9639344215393 76.0 L 84.0 81.3 L 85.9 84.4 L 81.3618320465088 84.94770994186402 L 81.0 85.4 L 79.4 87.5 L 75.8 91.7 L 73.8 93.8 L 69.4 98.0 L 67.01904764175416 100.0 L 85.81818180084228 100.0 L 94.0 91.0 L 104.0 100.0 L 104.0 104.0 L 13.0 104.0 L 13.0 100.0 L 39.1 100.0 L 36.5 96.3 L 36.4 94.5 Z M 37.3 48.0 L 37.0 46.3 L 36.6 44.5 L 36.0 42.7 L 35.3 40.9 L 34.4 38.9 L 33.3 37.0 L 32.0 34.9 L 30.9875 34.0 L 30.779591846466065 34.0 L 29.8 36.4 L 27.6 41.0 L 25.1 45.6 L 22.4 49.9 L 19.5 54.0 L 16.3 57.9 L 12.7 61.5 L 11.2 60.4 L 13.1 55.9 L 14.9 51.4 L 16.6 46.9 L 18.2 42.4 L 19.7 37.8 L 21.1 33.2 L 22.3 28.5 L 23.3 23.7 L 24.2 18.8 L 24.759171581268312 14.805917167663575 L 24.7 14.8 L 25.2 11.9 L 36.7 16.0 L 39.3 18.5 L 35.67390308380127 19.884509754180907 L 35.3 21.3 L 33.7 26.5 L 32.369999980926515 30.0 L 45.7777777671814 30.0 L 52.0 23.0 L 60.0 30.0 L 60.0 34.0 L 35.31999998092651 34.0 L 35.8 34.2 L 38.0 35.5 L 40.0 36.9 L 41.9 38.5 L 43.7 40.2 L 45.3 42.1 L 46.8 44.2 L 48.0 46.4 L 49.1 48.7 L 48.3 53.2 L 44.6 55.9 L 40.1 55.1 L 37.4 51.4 L 37.4 49.7 Z M 77.3 48.0 L 77.0 46.3 L 76.6 44.5 L 76.0 42.7 L 75.3 40.9 L 74.4 38.9 L 73.3 37.0 L 72.0 34.9 L 70.9875 34.0 L 69.34285717010498 34.0 L 68.8 35.0 L 66.7 38.3 L 64.4 41.4 L 62.0 44.3 L 59.3 47.0 L 56.7 49.5 L 55.2 48.4 L 56.9 45.2 L 58.1 41.9 L 59.4 38.6 L 60.5 35.3 L 61.5 31.9 L 62.4 28.4 L 63.2 24.9 L 63.9 21.3 L 64.4 17.6 L 64.76745948791503 14.807308101654053 L 64.7 14.8 L 65.2 11.9 L 76.7 16.1 L 79.2 18.6 L 75.46919136047363 19.981781005859375 L 75.4 20.2 L 74.0 24.1 L 72.4 27.9 L 71.40833330154419 30.0 L 85.77777776718139 30.0 L 92.0 23.0 L 100.0 30.0 L 100.0 34.0 L 75.31999998092651 34.0 L 75.8 34.2 L 78.0 35.5 L 80.0 36.9 L 81.9 38.5 L 83.7 40.2 L 85.3 42.1 L 86.8 44.2 L 88.0 46.4 L 89.1 48.7 L 88.3 53.2 L 84.6 55.9 L 80.1 55.1 L 77.4 51.4 L 77.4 49.7 Z " />
</g>
</svg>
