<svg xmlns="http://www.w3.org/2000/svg" xmlns:xlink="http://www.w3.org/1999/xlink" version="1.1" baseProfile="full" viewBox="0 0 200 200" width="200" height="200">
<g fill="black">
<path d="M 104.4 134.2 L 158.5 134.2 L 164.5 129.2 L 175.5 138.2 L 170.5 142.2 L 170.5 178.1 L 158.5 184.1 L 158.5 174.1 L 104.4 174.1 L 104.4 181.1 L 92.4 187.1 L 92.4 128.2 Z M 14.3 166.1 L 20.1 163.8 L 26.1 161.5 L 32.2 159.1 L 38.4 156.7 L 44.8 154.2 L 51.3 151.8 L 57.9 149.3 L 64.7 146.8 L 71.7 144.4 L 78.9 142.1 L 79.7 143.8 L 73.3 147.8 L 66.9 151.6 L 60.6 155.2 L 54.4 158.7 L 48.3 162.0 L 42.2 165.2 L 36.3 168.3 L 30.5 171.3 L 24.8 174.2 L 22.83636360168457 175.1818181991577 L 22.2 179.0 L 19.2 177.0 L 12.5 166.9 Z M 104.4 138.2 L 104.4 170.1 L 158.5 170.1 L 158.5 138.2 Z M 16.6359281539917 124.18922157287598 L 16.7 123.1 L 19.8 121.2 L 23.4 117.5 L 27.6 111.9 L 32.3 104.7 L 37.2 96.2 L 42.3 86.9 L 44.52071113586426 82.63275108337402 L 42.9 83.2 L 38.9 84.5 L 34.9 85.6 L 31.0 86.7 L 27.2 87.8 L 23.4 88.8 L 20.19747896194458 89.66554622650146 L 18.5 93.4 L 16.1 90.7 L 12.2 79.2 L 13.543283557891845 78.99850749969482 L 15.8 77.4 L 18.4 74.1 L 21.5 69.2 L 24.9 62.9 L 28.3 55.6 L 31.6 47.8 L 34.8 39.8 L 37.7 32.0 L 40.3 24.8 L 42.4 18.7 L 42.44522209167481 18.71776580810547 L 43.0 17.3 L 53.6 23.1 L 55.6 26.0 L 52.01171426773071 26.629523849487306 L 50.9 29.1 L 47.7 36.1 L 44.0 43.8 L 40.0 51.7 L 35.8 59.5 L 31.4 66.7 L 26.9 72.9 L 22.4 77.8 L 21.402182579040527 78.41567459106446 L 21.7 78.4 L 25.6 78.2 L 29.5 77.9 L 33.5 77.7 L 37.6 77.5 L 41.8 77.3 L 46.1 77.2 L 47.34795913696289 77.2 L 47.4 77.1 L 52.4 67.3 L 57.3 57.7 L 61.46573963165283 49.73075895309448 L 61.4 49.7 L 62.4 47.9 L 72.3 54.8 L 73.9 58.0 L 70.35889673233032 58.06105346679688 L 67.3 63.2 L 61.9 72.4 L 56.2 82.0 L 50.3 91.5 L 44.4 100.7 L 38.5 108.9 L 32.7 116.0 L 27.1 121.4 L 26.3711519241333 121.82405710220337 L 28.1 121.4 L 44.3 117.8 L 55.3 115.6 L 60.9 114.6 L 66.6 113.7 L 72.3 113.1 L 72.8 114.8 L 67.6 117.4 L 62.4 119.7 L 57.1 121.9 L 41.5 127.9 L 36.3 129.8 L 26.1 133.6 L 24.921203422546387 134.01604585647584 L 23.8 137.7 L 21.0 135.4 L 15.6 124.5 Z M 137.5 50.0 L 140.5 52.0 L 137.5 53.8 L 137.5 67.0 L 158.11818180084228 67.0 L 166.3 58.0 L 176.3 67.0 L 176.3 71.0 L 137.5 71.0 L 137.5 88.0 L 154.4181818008423 88.0 L 162.6 79.0 L 172.6 88.0 L 172.6 92.0 L 137.5 92.0 L 137.5 111.0 L 166.51818180084229 111.0 L 174.7 102.0 L 184.7 111.0 L 184.7 115.0 L 137.5 115.0 L 137.5 126.0 L 125.5 132.0 L 125.5 115.0 L 77.2 115.0 L 77.2 111.0 L 125.5 111.0 L 125.5 92.0 L 90.3 92.0 L 90.3 88.0 L 125.5 88.0 L 125.5 71.0 L 86.6 71.0 L 86.6 67.0 L 125.5 67.0 L 125.5 48.0 Z M 75.9 63.9 L 74.5 59.5 L 76.6 55.4 L 78.4 54.2 L 80.2 52.8 L 81.8 51.0 L 83.4 48.9 L 84.9 46.5 L 86.3 43.6 L 87.5 40.5 L 88.7 37.0 L 89.8 33.1 L 90.3 29.0 L 92.1 29.0 L 92.5 33.3 L 93.0 37.5 L 93.0 40.0 L 171.3 40.0 L 172.21578950881957 39.23684206008911 L 172.4 38.5 L 172.77942476272582 38.767146015167235 L 177.3 35.0 L 188.3 44.0 L 183.3 47.0 L 176.26774196624757 49.930107498168944 L 174.8 51.3 L 173.1 52.8 L 171.3 54.4 L 169.3 56.2 L 167.7 58.4 L 166.2 57.5 L 167.5 55.1 L 168.3 52.5 L 169.0 50.2 L 169.7 48.0 L 170.3 46.0 L 170.8 44.2 L 170.8588234901428 44.0 L 92.86842107772827 44.0 L 92.8 45.3 L 92.2 49.0 L 91.3 52.5 L 90.1 55.8 L 88.5 59.0 L 86.6 61.9 L 84.3 64.6 L 79.9 65.9 Z M 129.4 30.1 L 128.5 28.2 L 127.4 26.2 L 126.0 24.1 L 124.4 22.0 L 122.5 19.8 L 117.9 15.2 L 115.1 13.2 L 115.9 11.6 L 119.2 13.1 L 122.5 14.2 L 125.6 15.5 L 128.4 17.0 L 131.1 18.6 L 133.6 20.4 L 135.8 22.2 L 137.9 24.3 L 139.8 26.5 L 141.4 28.8 L 141.4 33.4 L 138.2 36.7 L 133.7 36.7 L 130.4 33.6 L 130.0 31.9 Z " />
</g>
</svg>
