<svg xmlns="http://www.w3.org/2000/svg" xmlns:xlink="http://www.w3.org/1999/xlink" version="1.1" baseProfile="full" viewBox="0 0 200 200" width="200" height="200">
<g fill="black">
<path d="M 165.9 184.6 L 163.9 185.9 L 161.8 187.0 L 159.7 187.9 L 157.5 188.6 L 155.2 189.2 L 152.9 189.6 L 150.5 189.9 L 148.2 190.0 L 148.2 184.0 L 128.2 181.0 L 128.2 178.0 L 148.2 178.0 L 149.7 177.9 L 151.2 177.7 L 152.6 177.5 L 154.0 177.1 L 155.3 176.7 L 157.9 175.5 L 159.1 174.7 L 160.3 173.8 L 161.5 172.8 L 163.0 170.9 L 164.8 167.1 L 166.6 161.5 L 168.1 154.2 L 169.4 145.3 L 170.5 134.8 L 171.2 122.7 L 171.26204376220704 121.0 L 94.9 121.0 L 86.9 129.0 L 76.9 119.0 L 82.9 113.0 L 82.9 62.0 L 94.9 64.0 L 97.9 66.0 L 94.9 67.8 L 94.9 117.0 L 124.2 117.0 L 124.2 36.0 L 80.5 36.0 L 80.5 32.0 L 165.6 32.0 L 175.6 22.0 L 187.6 32.0 L 187.6 36.0 L 136.2 36.0 L 136.2 75.0 L 171.8 75.0 L 177.8 70.0 L 188.8 79.0 L 183.8 82.0 L 183.7605495452881 82.01643772125244 L 183.9 93.8 L 183.7 109.3 L 183.2 123.2 L 182.5 135.7 L 181.4 146.7 L 179.9 156.3 L 178.2 164.6 L 176.0 171.5 L 173.3 177.1 L 169.6 181.7 L 167.8 183.2 Z M 15.7 166.0 L 22.0 163.8 L 28.4 161.4 L 34.9 159.1 L 41.6 156.7 L 48.5 154.2 L 55.5 151.7 L 62.6 149.2 L 69.9 146.7 L 77.4 144.4 L 85.1 142.1 L 85.8 143.8 L 78.9 147.9 L 72.0 151.7 L 65.2 155.3 L 51.8 162.0 L 45.3 165.2 L 38.8 168.3 L 32.5 171.3 L 26.3 174.3 L 24.05 175.35 L 23.3 179.1 L 20.3 177.1 L 13.8 166.8 Z M 17.93490562438965 124.20660381317138 L 18.0 123.1 L 21.5 121.2 L 25.4 117.4 L 30.0 111.8 L 35.1 104.6 L 40.5 96.1 L 46.0 86.8 L 48.36956520080567 82.57786560058594 L 46.1 83.3 L 37.5 85.7 L 29.1 87.9 L 25.1 88.9 L 21.242288303375243 89.7468147277832 L 19.5 93.4 L 17.1 90.7 L 13.4 79.2 L 14.504247093200684 79.03436288833618 L 17.1 77.4 L 20.1 74.0 L 23.5 69.1 L 27.1 62.8 L 30.8 55.5 L 34.5 47.7 L 37.9 39.7 L 41.1 31.9 L 43.9 24.7 L 45.858908081054686 19.419465255737304 L 45.8 19.4 L 46.099270057678225 18.771532821655274 L 46.2 18.5 L 46.2237771987915 18.510067844390868 L 46.8 17.3 L 57.3 23.2 L 59.3 26.2 L 55.60357141494751 26.70985221862793 L 54.4 29.2 L 50.9 36.2 L 47.0 43.9 L 42.8 51.8 L 38.3 59.6 L 33.6 66.8 L 28.8 73.0 L 23.9 77.8 L 22.807254314422607 78.43379249572754 L 23.5 78.4 L 27.6 78.1 L 31.9 77.9 L 36.2 77.6 L 40.6 77.4 L 45.1 77.2 L 49.7 77.1 L 51.4438775062561 77.1 L 51.5 77.0 L 57.0 67.1 L 62.2 57.5 L 66.73532514572143 49.517827701568606 L 66.7 49.5 L 67.7 47.8 L 77.4 54.9 L 79.0 58.2 L 75.2785714149475 58.2 L 72.0 63.3 L 66.2 72.6 L 60.1 82.1 L 53.9 91.7 L 47.5 100.8 L 41.2 109.1 L 35.0 116.1 L 29.0 121.4 L 28.074468040466307 121.91063833236694 L 30.5 121.4 L 47.9 117.8 L 53.8 116.6 L 59.7 115.6 L 65.7 114.5 L 71.8 113.7 L 78.0 113.1 L 78.5 114.8 L 72.8 117.4 L 67.1 119.7 L 61.5 121.9 L 55.8 124.0 L 50.1 126.0 L 44.5 127.9 L 38.9 129.9 L 33.4 131.8 L 27.8 133.6 L 26.23808660507202 134.1395700454712 L 25.0 137.8 L 22.3 135.5 L 17.2 124.4 Z M 136.2 79.0 L 136.2 117.0 L 171.40802917480468 117.0 L 171.7 109.0 L 171.9 93.8 L 171.8593765258789 86.97525978088379 L 171.8 87.0 L 171.8 79.0 Z " />
</g>
</svg>
