<svg xmlns="http://www.w3.org/2000/svg" xmlns:xlink="http://www.w3.org/1999/xlink" version="1.1" baseProfile="full" viewBox="0 0 200 200" width="200" height="200">
<g fill="black">
<path d="M 37.1 139.0 L 75.8 139.0 L 81.8 134.0 L 92.8 143.0 L 87.8 147.0 L 87.8 180.0 L 75.8 186.0 L 75.8 176.0 L 37.1 176.0 L 37.1 183.0 L 25.1 189.0 L 25.1 133.0 Z M 153.3 175.6 L 167.3 175.6 L 168.6 175.5 L 169.5 175.4 L 170.1 175.2 L 170.4 175.0 L 170.6 174.9 L 170.9 174.3 L 171.1 173.8 L 171.3 172.8 L 171.3 146.3 L 117.6 146.3 L 117.6 183.1 L 105.6 189.1 L 105.6 77.6 L 117.6 83.6 L 171.3 83.6 L 177.3 78.6 L 188.3 87.6 L 183.3 91.6 L 183.3 171.6 L 183.2 174.2 L 182.8 176.7 L 182.0 179.1 L 180.7 181.3 L 179.1 183.4 L 177.1 185.0 L 174.8 186.2 L 172.4 187.0 L 169.9 187.5 L 167.3 187.6 L 167.3 181.6 L 153.3 178.6 Z M 37.1 143.0 L 37.1 172.0 L 75.8 172.0 L 75.8 143.0 Z M 117.6 116.9 L 117.6 142.3 L 171.3 142.3 L 171.3 116.9 Z M 13.0 119.0 L 35.28421049118042 119.0 L 33.3 116.1 L 33.3 114.0 L 33.2 111.9 L 33.0 110.0 L 32.7 108.0 L 32.3 106.1 L 31.8 104.3 L 31.2 102.4 L 30.5 100.6 L 29.7 98.7 L 28.4 97.3 L 29.5 95.9 L 31.2 97.1 L 33.3 98.1 L 35.2 99.4 L 37.0 100.9 L 38.6 102.6 L 40.2 104.5 L 41.6 106.6 L 42.9 108.9 L 44.1 111.3 L 45.1 113.9 L 44.1 118.3 L 43.076923084259036 119.0 L 50.5 119.0 L 50.5 91.0 L 15.9 91.0 L 15.9 87.0 L 50.5 87.0 L 50.5 69.0 L 26.0 69.0 L 26.0 65.0 L 50.5 65.0 L 50.5 47.0 L 18.0 47.0 L 18.0 43.0 L 64.225 43.0 L 65.1 40.9 L 66.1 37.3 L 67.3 33.9 L 68.4 30.6 L 69.4 27.4 L 70.4 24.4 L 71.3 21.5 L 72.2 18.7 L 73.0 16.0 L 73.51098833084106 14.339287948608398 L 73.4 14.3 L 74.3 12.2 L 84.7 18.3 L 86.6 21.4 L 82.3885350227356 21.91719741821289 L 81.6 23.1 L 79.9 25.6 L 78.2 28.3 L 76.3 30.9 L 74.3 33.7 L 72.2 36.5 L 69.9 39.4 L 67.5 42.3 L 66.98064517974854 43.0 L 72.9 43.0 L 82.9 33.0 L 94.9 43.0 L 94.9 47.0 L 62.5 47.0 L 62.5 65.0 L 68.71818180084229 65.0 L 76.9 56.0 L 86.9 65.0 L 86.9 69.0 L 62.5 69.0 L 62.5 87.0 L 75.1 87.0 L 85.1 77.0 L 97.1 87.0 L 97.1 91.0 L 62.5 91.0 L 62.5 119.0 L 69.60454549789429 119.0 L 70.3 117.3 L 70.8 114.9 L 71.4 112.5 L 72.0 110.0 L 72.6 107.6 L 73.2 105.1 L 74.6 99.9 L 75.2 97.3 L 75.65383472442628 95.54949464797974 L 75.5 95.5 L 76.4 93.3 L 87.0 99.2 L 89.0 102.2 L 84.7917293548584 102.78045110702514 L 84.0 104.1 L 82.4 106.4 L 80.9 108.6 L 79.3 110.8 L 77.6 112.9 L 76.0 114.9 L 74.3 116.8 L 72.4 118.5 L 72.03157892227173 119.0 L 78.0 119.0 L 88.0 109.0 L 100.0 119.0 L 100.0 123.0 L 13.0 123.0 Z M 117.6 87.6 L 117.6 112.9 L 171.3 112.9 L 171.3 87.6 Z M 122.1 23.4 L 166.8 23.4 L 172.8 18.4 L 183.8 27.4 L 178.8 31.4 L 178.8 65.5 L 166.8 71.5 L 166.8 61.5 L 122.1 61.5 L 122.1 68.5 L 110.1 74.5 L 110.1 17.4 Z M 122.1 27.4 L 122.1 57.5 L 166.8 57.5 L 166.8 27.4 Z M 36.3 33.7 L 36.1 31.7 L 35.7 29.6 L 35.2 27.4 L 34.5 25.2 L 33.6 23.0 L 32.6 20.7 L 31.5 18.3 L 29.8 16.3 L 31.0 15.0 L 33.2 16.7 L 35.5 18.2 L 37.7 19.9 L 39.8 21.8 L 41.6 23.8 L 43.3 26.0 L 44.8 28.3 L 46.1 30.8 L 47.3 33.4 L 48.2 36.1 L 47.0 40.5 L 43.1 42.9 L 38.7 41.7 L 36.3 37.8 L 36.4 35.8 Z " />
</g>
</svg>
