<svg xmlns="http://www.w3.org/2000/svg" xmlns:xlink="http://www.w3.org/1999/xlink" version="1.1" baseProfile="full" viewBox="0 0 200 200" width="200" height="200">
<g fill="black">
<path d="M 12.2 149.9 L 17.3 148.8 L 22.6 147.6 L 24.5 147.15090913772582 L 24.5 30.0 L 11.9 30.0 L 11.9 26.0 L 74.4 26.0 L 84.4 16.0 L 96.4 26.0 L 96.4 30.0 L 77.9 30.0 L 77.9 183.0 L 65.9 189.0 L 65.9 140.4016393661499 L 60.0 143.4 L 54.0 146.3 L 48.1 148.9 L 42.3 151.4 L 36.6 153.7 L 31.1 155.9 L 25.7 157.9 L 20.4 159.8 L 19.2375 160.1875 L 18.0 163.9 L 15.3 161.5 L 10.3 150.4 Z M 112.0 129.3 L 164.4 129.3 L 170.4 124.3 L 181.4 133.3 L 176.4 137.3 L 176.4 176.2 L 164.4 182.2 L 164.4 170.2 L 112.0 170.2 L 112.0 182.2 L 100.0 188.2 L 100.0 123.3 Z M 112.0 133.3 L 112.0 166.2 L 164.4 166.2 L 164.4 133.3 Z M 36.5 106.0 L 36.5 144.1758620262146 L 39.5 143.4 L 45.5 141.8 L 51.7 140.1 L 58.1 138.4 L 64.7 136.7 L 65.9 136.4217391014099 L 65.9 106.0 Z M 173.0 103.6 L 173.0 107.6 L 104.3 107.6 L 104.3 103.6 L 151.0 103.6 L 161.0 93.6 Z M 36.5 68.0 L 36.5 102.0 L 65.9 102.0 L 65.9 68.0 Z M 173.0 77.0 L 173.0 81.0 L 104.3 81.0 L 104.3 77.0 L 151.0 77.0 L 161.0 67.0 Z M 36.5 30.0 L 36.5 64.0 L 65.9 64.0 L 65.9 30.0 Z M 187.8 51.4 L 187.8 55.4 L 92.1 55.4 L 92.1 51.4 L 169.61818180084228 51.4 L 177.8 42.4 Z M 173.0 26.8 L 173.0 30.8 L 103.4 30.8 L 103.4 26.8 L 150.9834711074829 26.8 L 161.0 16.7 Z " />
</g>
</svg>
