<svg xmlns="http://www.w3.org/2000/svg" xmlns:xlink="http://www.w3.org/1999/xlink" version="1.1" baseProfile="full" viewBox="0 0 200 200" width="200" height="200">
<g fill="black">
<path d="M 13.7 149.9 L 18.2 148.8 L 22.9 147.6 L 24.2 147.2479166984558 L 24.2 30.0 L 13.7 30.0 L 13.7 26.0 L 66.7 26.0 L 76.7 16.0 L 88.7 26.0 L 88.7 30.0 L 73.0 30.0 L 73.0 183.0 L 61.0 189.0 L 61.0 140.74339618682862 L 56.6 143.4 L 51.3 146.2 L 46.1 148.9 L 41.0 151.3 L 36.0 153.6 L 31.1 155.8 L 26.3 157.8 L 21.7 159.7 L 21.04355697631836 159.94259853363036 L 19.9 163.7 L 17.1 161.4 L 11.8 150.5 Z M 153.8 183.8 L 151.8 185.0 L 149.7 186.0 L 147.5 186.9 L 145.3 187.7 L 143.1 188.2 L 140.8 188.6 L 138.4 188.9 L 136.1 189.0 L 136.1 183.0 L 120.1 180.0 L 120.1 177.0 L 136.1 177.0 L 137.6 176.9 L 140.6 176.5 L 142.0 176.1 L 143.3 175.7 L 145.9 174.5 L 147.2 173.7 L 149.6 171.9 L 150.9 170.6 L 152.2 168.8 L 153.5 166.3 L 154.9 163.3 L 156.2 159.7 L 157.5 155.5 L 158.6 150.7 L 159.7 145.4 L 160.7 139.6 L 161.20625 136.0 L 110.82790699005128 136.0 L 107.8 144.4 L 94.5 146.0 L 106.6833333015442 112.0 L 81.6 112.0 L 81.6 108.0 L 162.3181818008423 108.0 L 170.5 99.0 L 180.5 108.0 L 180.5 112.0 L 119.47906980514526 112.0 L 112.26976747512818 132.0 L 161.6 132.0 L 167.6 127.0 L 178.6 136.0 L 173.6 139.0 L 172.88221340179444 139.2990777015686 L 172.6 141.4 L 171.5 147.6 L 170.3 153.4 L 169.0 158.6 L 167.6 163.4 L 166.0 167.8 L 164.3 171.7 L 162.3 175.2 L 160.1 178.3 L 157.5 180.9 L 155.7 182.4 Z M 36.2 106.0 L 36.2 143.89038457870484 L 37.9 143.4 L 43.3 141.8 L 48.8 140.1 L 54.5 138.4 L 60.4 136.7 L 61.0 136.54516124725342 L 61.0 106.0 Z M 36.2 68.0 L 36.2 102.0 L 61.0 102.0 L 61.0 68.0 Z M 167.9 84.9 L 163.4 80.4 L 159.2 75.6 L 155.3 70.7 L 151.7 65.7 L 148.5 60.4 L 145.6 54.9 L 143.2 49.2 L 141.63999996185302 44.0 L 129.13636360168456 44.0 L 127.5 47.6 L 122.3 56.9 L 116.4 65.6 L 109.9 73.6 L 102.6 81.0 L 94.7 87.7 L 86.0 93.6 L 76.6 98.7 L 75.7 97.2 L 83.7 90.6 L 91.1 83.6 L 97.9 76.4 L 104.0 68.8 L 109.4 60.8 L 114.2 52.3 L 118.11685390472412 44.0 L 81.6 44.0 L 81.6 40.0 L 119.6659574508667 40.0 L 121.9 34.0 L 124.8 24.1 L 127.1 13.7 L 127.11366024017335 13.702918815612794 L 127.5 11.9 L 138.8 16.2 L 141.3 18.7 L 137.78722629547119 19.913503646850586 L 135.8 27.2 L 132.0 37.7 L 130.9545454978943 40.0 L 167.1 40.0 L 177.1 30.0 L 189.1 40.0 L 189.1 44.0 L 144.26666669845582 44.0 L 146.8 47.2 L 154.4 56.2 L 158.3 60.5 L 162.3 64.6 L 166.5 68.5 L 170.9 72.3 L 175.5 75.9 L 180.3 79.3 L 185.3 82.5 L 188.7 84.9 L 177.7 93.4 L 172.7 89.2 Z M 160.0 84.0 L 160.0 88.0 L 104.1 88.0 L 104.1 84.0 L 138.0 84.0 L 148.0 74.0 Z M 36.2 30.0 L 36.2 64.0 L 61.0 64.0 L 61.0 30.0 Z " />
</g>
</svg>
