<svg xmlns="http://www.w3.org/2000/svg" xmlns:xlink="http://www.w3.org/1999/xlink" version="1.1" baseProfile="full" viewBox="0 0 200 200" width="200" height="200">
<g fill="black">
<path d="M 158.7 181.4 L 150.7 177.6 L 143.4 173.5 L 136.9 169.1 L 131.1 164.3 L 126.1 159.2 L 122.0 153.9 L 118.9 148.2 L 117.16666669845581 143.0 L 116.18461542129516 143.0 L 113.8 149.2 L 109.2 156.3 L 103.0 162.7 L 95.5 168.3 L 86.5 173.2 L 76.2 177.6 L 64.4 181.3 L 51.2 184.4 L 36.5 186.9 L 36.1 185.1 L 50.2 180.8 L 62.7 176.2 L 73.6 171.5 L 82.9 166.5 L 90.6 161.3 L 96.7 155.9 L 101.1 150.4 L 104.0 144.7 L 104.47719297409057 143.0 L 39.0 143.0 L 39.0 139.0 L 105.6 139.0 L 106.0 133.0 L 106.0 117.5 L 47.9 117.5 L 47.9 113.5 L 106.0 113.5 L 106.0 94.9 L 118.0 96.9 L 121.0 98.9 L 118.0 100.7 L 118.0 113.5 L 154.0 113.5 L 164.0 103.5 L 176.0 113.5 L 176.0 117.5 L 118.0 117.5 L 118.0 133.0 L 117.14285717010497 139.0 L 162.9 139.0 L 172.9 129.0 L 184.9 139.0 L 184.9 143.0 L 119.82954549789429 143.0 L 122.4 145.9 L 126.6 150.1 L 131.1 154.0 L 136.3 157.8 L 142.0 161.3 L 148.3 164.5 L 155.3 167.6 L 163.0 170.4 L 171.4 173.0 L 180.5 175.4 L 188.6 177.7 L 176.9 188.1 L 167.5 184.9 Z M 168.23302755355834 61.36238536834717 L 166.8 62.6 L 164.4 64.5 L 161.9 66.4 L 159.6 68.5 L 158.3 67.4 L 159.9 64.8 L 161.3 62.0 L 162.6 59.3 L 163.9 56.7 L 166.5 51.7 L 167.7 49.3 L 168.3782608985901 48.0 L 90.0 48.0 L 96.0 49.0 L 99.0 51.0 L 96.0 52.8 L 96.0 65.73333330154419 L 130.75938806533813 62.83671770095825 L 140.0 52.0 L 152.8 61.0 L 153.1 64.9 L 96.0 69.65833330154419 L 96.0 76.2 L 96.2 77.1 L 96.5 78.0 L 96.9 78.4 L 97.8 78.7 L 98.7 78.9 L 100.0 79.0 L 164.0 79.0 Z M 39.4 131.1 L 37.8 140.2 L 35.8 148.8 L 33.3 156.7 L 30.2 164.0 L 26.6 170.6 L 22.5 176.4 L 17.8 181.5 L 12.6 185.6 L 11.3 184.3 L 14.9 179.0 L 18.0 173.5 L 20.8 167.5 L 23.2 161.1 L 25.1 154.2 L 26.7 146.7 L 27.9 138.7 L 28.7 130.0 L 29.0 120.8 L 29.0 38.0 L 41.0 44.0 L 90.0 44.0 L 90.0 12.0 L 102.0 14.0 L 105.0 16.0 L 102.0 17.8 L 102.0 26.0 L 143.0 26.0 L 153.0 16.0 L 165.0 26.0 L 165.0 30.0 L 102.0 30.0 L 102.0 44.0 L 170.0 44.0 L 170.51219511032104 43.5731707572937 L 171.0 42.5 L 171.4356435775757 42.803630352020264 L 176.0 39.0 L 187.0 48.0 L 182.0 51.0 L 177.37142858505248 52.92857141494751 L 177.2 53.1 L 175.3 54.9 L 173.3 56.8 L 171.65708417892455 58.28644762039185 L 170.0 79.0 L 173.6 81.4 L 176.0 85.0 L 173.6 88.6 L 170.0 91.0 L 100.0 91.0 L 97.4 90.8 L 94.9 90.4 L 92.5 89.6 L 90.2 88.3 L 88.2 86.7 L 86.6 84.7 L 85.3 82.4 L 84.5 80.0 L 84.1 77.5 L 84.0 75.0 L 84.0 70.65833330154419 L 45.1 73.9 L 44.8 70.0 L 84.0 66.73333330154419 L 84.0 48.0 L 41.0 48.0 L 41.0 111.0 L 40.4 121.3 Z " />
</g>
</svg>
