<svg xmlns="http://www.w3.org/2000/svg" xmlns:xlink="http://www.w3.org/1999/xlink" version="1.1" baseProfile="full" viewBox="0 0 200 200" width="200" height="200">
<g fill="black">
<path d="M 40.7 155.6 L 70.2 155.6 L 76.2 150.6 L 87.2 159.6 L 82.2 163.6 L 82.2 178.7 L 70.2 184.7 L 70.2 178.7 L 40.7 178.7 L 40.7 181.7 L 28.7 187.7 L 28.7 149.6 Z M 169.3 149.4 L 171.3 149.4 L 169.3 174.4 L 172.9 176.8 L 175.3 180.4 L 172.9 184.0 L 169.3 186.4 L 148.2 186.4 L 145.6 186.2 L 143.1 185.8 L 140.7 185.0 L 138.4 183.7 L 136.4 182.1 L 134.8 180.1 L 133.6 177.8 L 132.7 175.4 L 132.3 172.9 L 132.2 170.4 L 132.2 139.3 L 121.87058820724488 139.3 L 126.0 140.5 L 128.8 142.8 L 125.17771825790405 144.50862350463868 L 124.4 148.3 L 121.9 155.6 L 118.6 162.2 L 114.4 168.1 L 109.4 173.3 L 103.6 177.8 L 97.1 181.6 L 90.0 184.5 L 82.1 186.7 L 73.6 188.1 L 73.2 186.3 L 80.9 183.1 L 87.8 179.6 L 93.8 175.9 L 99.0 171.8 L 103.3 167.4 L 106.9 162.6 L 109.7 157.4 L 111.8 151.9 L 113.3 145.8 L 113.98939390182495 139.3 L 109.7 139.3 L 109.7 151.3 L 97.7 157.3 L 97.7 96.8 L 109.7 102.8 L 152.7 102.8 L 158.7 97.8 L 165.41293630599975 103.29240245819092 L 166.3 101.4 L 167.6 98.5 L 168.8 95.8 L 169.9 93.3 L 170.8 91.0 L 171.08000001907348 90.3 L 26.271052646636964 90.3 L 26.6 92.8 L 26.7 96.4 L 26.7 99.8 L 26.4 103.0 L 25.9 106.1 L 25.0 109.0 L 23.9 111.8 L 22.4 114.4 L 18.3 116.4 L 14.0 115.0 L 12.0 110.9 L 13.4 106.5 L 14.6 105.6 L 15.8 104.4 L 17.0 102.7 L 18.1 100.7 L 19.2 98.3 L 20.2 95.5 L 21.1 92.3 L 22.0 88.9 L 22.8 85.0 L 23.1 80.9 L 24.9 80.8 L 25.4 85.0 L 26.0 88.42857141494751 L 26.0 86.3 L 172.0 86.3 L 172.60845069885255 85.79295778274536 L 172.7 85.5 L 172.85853662490845 85.58455286026 L 178.0 81.3 L 189.0 90.3 L 184.0 93.3 L 179.69411764144897 95.09411764144897 L 178.8 96.1 L 177.0 98.0 L 175.1 100.1 L 172.9 102.2 L 168.93000001907347 106.16999998092652 L 169.7 106.8 L 164.7 110.8 L 164.7 145.3 L 152.7 151.3 L 152.7 139.3 L 144.2 139.3 L 144.2 171.6 L 144.4 172.5 L 144.6 173.1 L 144.8 173.4 L 144.9 173.6 L 145.1 173.8 L 146.0 174.1 L 146.9 174.3 L 148.2 174.4 L 163.3 174.4 Z M 40.7 159.6 L 40.7 174.7 L 70.2 174.7 L 70.2 159.6 Z M 81.7 143.0 L 81.7 147.0 L 29.1 147.0 L 29.1 143.0 L 67.4777777671814 143.0 L 73.7 136.0 Z M 109.7 106.8 L 109.7 135.3 L 152.7 135.3 L 152.7 106.8 Z M 81.7 129.9 L 81.7 133.9 L 29.1 133.9 L 29.1 129.9 L 67.4777777671814 129.9 L 73.7 122.9 Z M 90.0 115.7 L 90.0 119.7 L 25.5 119.7 L 25.5 115.7 L 75.77777776718139 115.7 L 82.0 108.7 Z M 81.7 102.6 L 81.7 106.6 L 29.1 106.6 L 29.1 102.6 L 67.4777777671814 102.6 L 73.7 95.6 Z M 57.71339864730835 17.110418796539307 L 67.4 25.3 L 67.7 28.3 L 63.53261432647705 26.45444345474243 L 60.7 27.3 L 58.6 27.4 L 56.4 27.6 L 54.1 27.8 L 51.5 28.1 L 48.7 28.4 L 45.8 28.7 L 42.7 29.0 L 39.3 29.2 L 37.99886360168457 29.311526012420654 L 38.78105907440185 47.6 L 48.7777777671814 47.6 L 55.0 40.6 L 63.0 47.6 L 63.0 51.6 L 38.95213851928711 51.6 L 39.84175148010254 72.4 L 48.7777777671814 72.4 L 55.0 65.4 L 63.0 72.4 L 63.0 76.4 L 39.46818180084229 76.4 L 28.3 82.7 L 25.6 21.5 L 36.35763959884643 26.310326671600343 L 38.2 25.3 L 44.0 22.4 L 46.7 21.1 L 49.2 19.9 L 51.5 18.8 L 53.6 17.7 L 55.5 16.7 L 56.4628246307373 16.165097427368163 L 56.4 16.0 L 56.54275417327881 16.12069215774536 L 57.3 15.7 Z M 128.5 59.7 L 127.8 57.6 L 126.9 55.5 L 125.8 53.3 L 124.5 51.1 L 122.9 48.9 L 122.6 48.49411764144897 L 122.6 76.5 L 110.6 82.5 L 110.6 56.24799995422363 L 110.5 56.4 L 107.8 60.0 L 104.9 63.2 L 101.8 66.1 L 98.5 68.5 L 95.1 70.7 L 94.0 69.4 L 96.2 66.2 L 100.0 59.6 L 101.07564764022827 57.50846290588379 L 98.3 60.2 L 93.8 60.0 L 90.6 56.7 L 90.4 55.1 L 90.1 53.5 L 89.8 52.0 L 89.4 50.4 L 89.3 50.13333330154419 L 89.3 76.5 L 77.3 82.5 L 77.3 56.075 L 77.1 56.4 L 74.4 60.0 L 71.6 63.2 L 68.5 66.1 L 65.2 68.5 L 61.8 70.7 L 60.7 69.4 L 62.9 66.2 L 66.7 59.6 L 68.4 56.1 L 69.9 52.5 L 71.4 48.7 L 72.7 44.7 L 73.8 40.5 L 74.8 36.1 L 75.025 34.9 L 63.1 34.9 L 63.1 30.9 L 77.3 30.9 L 77.3 13.8 L 89.3 15.8 L 92.3 17.8 L 89.3 19.6 L 89.3 30.5 L 93.5 24.9 L 99.5 30.9 L 99.5 34.9 L 89.3 34.9 L 89.3 41.51052627563477 L 90.7 42.1 L 92.5 43.1 L 94.3 44.3 L 96.0 45.6 L 97.6 47.1 L 99.1 48.8 L 100.5 50.5 L 101.8 52.5 L 101.62486486434936 56.44054050445557 L 101.8 56.1 L 103.4 52.5 L 104.9 48.7 L 106.2 44.7 L 107.4 40.5 L 108.5 36.1 L 108.6875 34.9 L 100.4 34.9 L 100.4 30.9 L 110.6 30.9 L 110.6 13.8 L 122.6 15.8 L 125.6 17.8 L 122.6 19.6 L 122.6 30.9 L 126.4 30.9 L 130.9 24.9 L 136.9 30.9 L 136.9 34.9 L 122.6 34.9 L 122.6 43.006896591186525 L 123.7 43.5 L 126.5 45.0 L 129.0 46.7 L 131.4 48.5 L 133.6 50.4 L 135.7 52.5 L 137.5 54.8 L 139.2 57.2 L 140.6 59.7 L 140.3 64.3 L 136.9 67.3 L 132.4 67.0 L 129.3 63.6 L 129.0 61.7 Z M 179.0 26.9 L 174.0 29.9 L 172.80560188293458 30.397665882110594 L 170.8 76.8 L 158.5 82.0 L 158.83345012664796 76.4 L 136.0 76.4 L 136.0 72.4 L 159.0716287612915 72.4 L 160.31015758514405 51.6 L 136.0 51.6 L 136.0 47.6 L 160.5483362197876 47.6 L 161.7809106826782 26.9 L 140.0 26.9 L 140.0 22.9 L 162.0 22.9 L 168.0 17.9 Z " />
</g>
</svg>
