<svg xmlns="http://www.w3.org/2000/svg" xmlns:xlink="http://www.w3.org/1999/xlink" version="1.1" baseProfile="full" viewBox="0 0 200 200" width="200" height="200">
<g fill="black">
<path d="M 93.1 178.6 L 113.1 178.6 L 114.3 178.5 L 115.2 178.4 L 115.8 178.2 L 116.2 178.0 L 116.5 177.7 L 116.7 177.3 L 116.9 176.7 L 117.0 175.8 L 117.1 174.6 L 117.1 116.4 L 129.1 118.4 L 132.1 120.4 L 129.1 122.2 L 129.1 174.6 L 128.9 177.2 L 128.5 179.7 L 127.7 182.1 L 126.5 184.3 L 124.8 186.3 L 122.8 188.0 L 120.5 189.2 L 118.1 190.0 L 115.6 190.5 L 113.1 190.6 L 113.1 184.6 L 93.1 181.6 Z M 32.5 58.6 L 60.8 58.6 L 66.0 54.26666669845581 L 66.0 34.6 L 13.0 34.6 L 13.0 30.6 L 66.0 30.6 L 66.0 11.8 L 78.0 13.8 L 81.0 15.8 L 78.0 17.6 L 78.0 30.6 L 122.0 30.6 L 122.0 11.8 L 134.0 13.8 L 137.0 15.8 L 134.0 17.6 L 134.0 30.6 L 165.0 30.6 L 175.0 20.6 L 187.0 30.6 L 187.0 34.6 L 134.0 34.6 L 134.0 48.6 L 122.0 54.6 L 122.0 34.6 L 78.0 34.6 L 78.0 48.6 L 67.2551724433899 53.97241382598877 L 77.8 62.6 L 72.8 66.6 L 72.8 172.2 L 72.6 174.8 L 72.2 177.3 L 71.4 179.7 L 70.2 182.0 L 68.5 184.0 L 66.5 185.6 L 64.2 186.8 L 61.8 187.6 L 59.3 188.1 L 56.8 188.2 L 56.8 182.2 L 40.8 179.2 L 40.8 176.2 L 58.0 176.2 L 58.9 176.0 L 59.5 175.8 L 59.8 175.6 L 60.0 175.5 L 60.2 175.3 L 60.4 175.0 L 60.5 174.4 L 60.7 173.5 L 60.8 172.2 L 60.8 130.8 L 32.5 130.8 L 32.5 133.4 L 32.0 141.8 L 31.2 149.7 L 30.0 156.9 L 28.5 163.5 L 26.6 169.5 L 24.2 174.8 L 21.5 179.4 L 18.4 183.3 L 14.8 186.3 L 10.9 188.4 L 9.9 186.9 L 12.1 183.7 L 14.0 180.2 L 15.7 176.3 L 17.2 172.0 L 18.4 167.1 L 19.4 161.6 L 20.1 155.5 L 20.5 148.7 L 20.7 141.4 L 20.5 133.4 L 20.5 52.6 Z M 85.6 177.3 L 83.6 173.1 L 85.1 168.8 L 87.5 166.3 L 89.8 163.8 L 91.8 161.2 L 93.6 158.4 L 95.2 155.6 L 96.6 152.6 L 97.8 149.5 L 98.8 146.2 L 99.7 142.7 L 100.1 139.0 L 101.9 138.9 L 103.3 146.5 L 103.5 150.4 L 103.2 154.3 L 102.6 158.1 L 101.7 161.9 L 100.3 165.7 L 98.6 169.5 L 96.5 173.1 L 94.1 176.7 L 90.0 178.7 Z M 143.9 164.4 L 143.3 161.1 L 142.5 157.9 L 141.6 154.7 L 140.6 151.6 L 139.5 148.5 L 138.2 145.4 L 136.9 142.2 L 135.2 139.3 L 136.6 138.1 L 139.2 140.5 L 141.9 142.9 L 144.3 145.5 L 146.6 148.3 L 150.6 154.5 L 152.3 157.9 L 153.9 161.4 L 155.3 165.0 L 156.6 168.8 L 155.7 173.3 L 152.0 175.9 L 147.5 175.0 L 144.9 171.2 L 144.5 167.8 Z M 168.1 165.7 L 167.1 162.6 L 165.8 159.4 L 164.3 156.2 L 162.7 153.0 L 160.9 149.6 L 158.9 146.2 L 156.7 142.7 L 154.2 139.3 L 155.5 138.0 L 158.9 140.7 L 162.3 143.2 L 165.4 146.0 L 168.3 148.9 L 171.0 151.9 L 173.4 155.0 L 175.7 158.2 L 177.7 161.4 L 179.5 164.8 L 181.1 168.3 L 180.7 172.8 L 177.2 175.8 L 172.7 175.4 L 169.7 171.9 L 169.0 168.8 Z M 168.2 135.8 L 163.3 130.6 L 158.8 125.1 L 154.7 119.3 L 151.1 113.2 L 148.775 108.4 L 118.18494625091553 108.4 L 116.8 110.7 L 110.4 119.4 L 103.3 127.2 L 95.5 134.2 L 86.9 140.3 L 77.6 145.5 L 76.7 144.0 L 84.6 137.3 L 91.8 130.2 L 98.4 122.8 L 104.3 114.8 L 108.29058818817138 108.4 L 77.8 108.4 L 77.8 104.4 L 110.53956041336059 104.4 L 114.1 97.2 L 118.0 87.5 L 118.25631065368653 86.7 L 98.6 86.7 L 98.6 82.7 L 119.53786411285401 82.7 L 121.3 77.2 L 123.9 66.3 L 125.74285717010498 55.70357141494751 L 125.7 55.7 L 126.2 52.8 L 137.7 56.7 L 140.4 59.1 L 136.8550359725952 60.5179856300354 L 135.0 68.9 L 131.6 80.4 L 130.7055555343628 82.7 L 143.3 82.7 L 153.3 72.7 L 165.3 82.7 L 165.3 86.7 L 144.5222222328186 86.7 L 147.3 91.7 L 150.8 97.7 L 154.4 103.4 L 155.11698112487792 104.4 L 164.1 104.4 L 174.1 94.4 L 186.1 104.4 L 186.1 108.4 L 157.98490562438965 108.4 L 158.2 108.7 L 162.2 113.8 L 166.6 118.5 L 171.1 122.9 L 176.0 127.0 L 181.2 130.8 L 186.7 134.4 L 190.3 136.8 L 179.3 145.3 L 173.5 140.7 Z M 32.5 95.9 L 32.5 126.8 L 60.8 126.8 L 60.8 95.9 Z M 129.15 86.7 L 127.4 91.2 L 122.4 101.4 L 120.5935483932495 104.4 L 147.05454549789428 104.4 L 145.4 100.2 L 143.4 93.2 L 142.2263889312744 86.7 Z M 32.5 62.6 L 32.5 91.9 L 60.8 91.9 L 60.8 62.6 Z M 117.8 62.1 L 119.4 65.3 L 115.37125749588013 65.36946105957031 L 115.2 65.6 L 112.5 69.1 L 109.7 72.4 L 106.7 75.6 L 103.5 78.6 L 100.2 81.4 L 96.7 84.1 L 93.1 86.6 L 89.2 88.9 L 85.2 91.0 L 84.2 89.6 L 87.1 86.3 L 89.9 83.0 L 92.5 79.7 L 95.1 76.5 L 97.5 73.2 L 99.7 69.9 L 101.8 66.5 L 103.8 63.1 L 105.6 59.6 L 106.85130376815796 57.02378625869751 L 106.8 57.0 L 107.10632915496826 56.49873418807984 L 107.3 56.1 L 107.33705883026123 56.121176433563235 L 107.9 55.2 Z M 166.4 79.2 L 165.0 76.5 L 163.5 73.8 L 161.7 71.1 L 159.9 68.5 L 157.8 65.9 L 155.6 63.2 L 153.3 60.6 L 150.6 58.1 L 151.5 56.6 L 154.9 58.3 L 158.3 59.8 L 161.5 61.6 L 164.5 63.7 L 167.4 65.9 L 170.1 68.2 L 172.7 70.8 L 175.1 73.5 L 177.3 76.3 L 179.4 79.3 L 179.7 83.9 L 176.8 87.4 L 172.2 87.7 L 168.7 84.8 L 167.6 82.0 Z " />
</g>
</svg>
