<svg xmlns="http://www.w3.org/2000/svg" xmlns:xlink="http://www.w3.org/1999/xlink" version="1.1" baseProfile="full" viewBox="0 0 200 200" width="200" height="200">
<g fill="black">
<path d="M 60.7 175.5 L 74.7 175.5 L 75.7 175.4 L 76.3 175.3 L 76.7 175.1 L 77.0 175.0 L 77.1 174.8 L 77.3 174.6 L 77.5 174.1 L 77.7 173.4 L 77.9 172.3 L 78.0 171.0 L 78.0 90.0 L 25.6 90.0 L 25.6 183.0 L 13.6 189.0 L 13.6 80.0 L 25.6 86.0 L 26.2 86.0 L 26.2 19.5 L 37.2 25.0 L 65.8 25.0 L 71.3 20.0 L 81.8 29.0 L 76.8 32.5 L 76.8 86.0 L 78.0 86.0 L 83.5 81.0 L 94.0 90.0 L 89.0 93.5 L 89.0 171.0 L 88.8 173.4 L 88.5 175.7 L 87.8 178.0 L 86.8 180.1 L 85.4 182.1 L 83.6 183.7 L 81.6 185.0 L 79.4 185.8 L 77.1 186.3 L 74.7 186.5 L 74.7 181.0 L 60.7 178.2 Z M 137.8 116.0 L 140.6 118.0 L 137.8 119.75 L 137.8 129.0 L 137.2 137.4 L 136.1 145.3 L 134.4 152.5 L 132.2 159.1 L 129.3 165.1 L 125.9 170.4 L 121.8 175.0 L 117.3 178.8 L 112.2 181.7 L 106.6 183.7 L 105.9 182.2 L 110.3 178.8 L 114.0 175.1 L 117.3 171.1 L 120.0 166.7 L 122.3 161.8 L 124.1 156.4 L 125.5 150.4 L 126.4 143.8 L 126.8 136.7 L 126.8 114.0 Z M 181.3 141.0 L 183.3 141.0 L 181.3 166.0 L 184.9 168.4 L 187.3 172.0 L 184.9 175.6 L 181.3 178.0 L 163.2 178.0 L 160.7 177.8 L 158.2 177.3 L 155.8 176.4 L 153.6 175.2 L 151.6 173.5 L 150.1 171.5 L 148.9 169.3 L 148.2 166.9 L 147.8 164.5 L 147.7 162.0 L 147.7 114.0 L 158.7 116.0 L 161.5 118.0 L 158.7 119.75 L 158.7 162.0 L 158.8 163.2 L 159.0 164.2 L 159.3 164.8 L 159.6 165.2 L 159.8 165.4 L 160.4 165.7 L 161.0 165.8 L 162.0 165.9 L 163.2 166.0 L 175.3 166.0 Z M 175.7 70.0 L 177.7 70.0 L 175.7 95.0 L 179.2 97.4 L 181.7 101.0 L 179.2 104.6 L 175.7 107.0 L 144.9 107.0 L 142.3 106.8 L 139.8 106.4 L 137.4 105.6 L 135.1 104.3 L 133.1 102.7 L 131.5 100.7 L 130.2 98.4 L 129.4 96.0 L 129.0 93.5 L 128.9 91.0 L 128.9 80.88181819915772 L 112.3 83.9 L 112.3 116.0 L 111.9 125.4 L 111.2 134.3 L 110.3 142.7 L 109.1 150.6 L 107.7 157.9 L 106.0 164.6 L 104.0 170.7 L 101.6 176.3 L 98.9 181.2 L 95.8 185.4 L 94.3 184.5 L 95.7 179.8 L 97.0 174.6 L 98.2 169.1 L 99.2 163.1 L 100.0 156.5 L 100.7 149.5 L 101.2 141.9 L 101.4 133.8 L 101.5 125.1 L 101.3 116.0 L 101.3 43.5 L 112.3 49.0 L 131.9 49.0 L 131.9 12.0 L 143.9 14.0 L 146.9 16.0 L 143.9 17.8 L 143.9 28.0 L 158.87777776718139 28.0 L 165.1 21.0 L 173.1 28.0 L 173.1 32.0 L 143.9 32.0 L 143.9 49.0 L 172.7 49.0 L 178.7 44.0 L 189.7 53.0 L 184.7 56.0 L 182.11176471710206 57.07843141555786 L 180.9 59.3 L 179.6 61.5 L 178.2 63.7 L 176.9 66.0 L 175.4 68.2 L 172.2 72.8 L 170.9 75.3 L 169.2 74.6 L 169.9 71.9 L 170.2 69.1 L 170.5 66.4 L 171.3 61.2 L 171.6 58.7 L 172.0 56.2 L 172.4 53.8 L 172.5 53.0 L 112.3 53.0 L 112.3 79.85480947494507 L 128.9 76.84210529327393 L 128.9 55.0 L 140.9 57.0 L 143.9 59.0 L 140.9 60.8 L 140.9 74.66424684524536 L 144.97093257904052 73.92542057037353 L 153.0 62.3 L 166.6 70.0 L 167.3 73.9 L 140.9 78.7 L 140.9 92.2 L 141.1 93.1 L 141.4 94.0 L 141.8 94.4 L 142.7 94.7 L 143.6 94.9 L 144.9 95.0 L 169.7 95.0 Z M 37.2 29.0 L 37.2 86.0 L 47.4 86.0 L 47.4 50.0 L 57.4 55.0 L 65.8 55.0 L 65.8 29.0 Z M 57.4 59.0 L 57.4 86.0 L 65.8 86.0 L 65.8 59.0 Z " />
</g>
</svg>
