<svg xmlns="http://www.w3.org/2000/svg" xmlns:xlink="http://www.w3.org/1999/xlink" version="1.1" baseProfile="full" viewBox="0 0 200 200" width="200" height="200">
<g fill="black">
<path d="M 36.0 66.7 L 39.0 68.7 L 36.0 70.5 L 36.0 182.6 L 24.0 188.6 L 24.0 64.7 Z M 140.0 176.4 L 160.0 176.4 L 161.2 176.3 L 162.1 176.1 L 162.7 176.0 L 163.0 175.8 L 163.4 175.4 L 163.7 174.5 L 163.9 173.6 L 164.0 172.4 L 164.0 62.9 L 78.0 62.9 L 78.0 58.9 L 164.0 58.9 L 170.0 53.9 L 181.0 62.9 L 176.0 66.9 L 176.0 172.4 L 175.8 174.9 L 175.4 177.4 L 174.6 179.8 L 173.3 182.1 L 171.7 184.1 L 169.7 185.8 L 167.4 187.0 L 165.0 187.8 L 162.5 188.2 L 160.0 188.4 L 160.0 182.4 L 140.0 179.4 Z M 133.4 156.8 L 130.3 154.2 L 127.1 151.7 L 123.7 149.3 L 120.0 146.8 L 116.2 144.4 L 112.2 142.0 L 108.0 139.5 L 107.0 138.9186046600342 L 107.0 172.5 L 95.0 178.5 L 95.0 143.76400003433227 L 93.2 145.6 L 87.8 150.3 L 82.1 154.7 L 76.2 158.7 L 69.9 162.3 L 63.4 165.6 L 56.5 168.4 L 49.4 170.8 L 41.9 172.6 L 41.3 170.9 L 47.9 167.3 L 54.2 163.6 L 60.2 159.8 L 65.9 155.9 L 71.2 151.8 L 76.3 147.4 L 81.0 142.9 L 85.5 138.1 L 89.27200002670288 133.5 L 67.6 133.5 L 67.6 140.5 L 55.6 146.5 L 55.6 92.5 L 67.6 98.5 L 95.0 98.5 L 95.0 88.3 L 45.8 88.3 L 45.8 84.3 L 95.0 84.3 L 95.0 69.2 L 107.0 71.2 L 110.0 73.2 L 107.0 75.0 L 107.0 84.3 L 140.71818180084227 84.3 L 148.9 75.3 L 158.9 84.3 L 158.9 88.3 L 107.0 88.3 L 107.0 98.5 L 133.6 98.5 L 139.6 93.5 L 150.6 102.5 L 145.6 106.5 L 145.6 133.5 L 133.6 139.5 L 133.6 133.5 L 107.0 133.5 L 107.0 135.83999996185304 L 109.3 136.3 L 114.1 137.4 L 118.8 138.8 L 123.3 140.3 L 127.6 142.1 L 131.8 143.9 L 135.8 146.0 L 139.6 148.1 L 143.3 150.4 L 146.8 152.9 L 148.8 157.0 L 147.4 161.4 L 143.3 163.4 L 138.9 162.0 L 136.3 159.4 Z M 67.6 102.5 L 67.6 129.5 L 95.0 129.5 L 95.0 102.5 Z M 107.0 102.5 L 107.0 129.5 L 133.6 129.5 L 133.6 114.45862064361572 L 129.64055376052858 114.04902276992797 L 128.7 114.9 L 126.5 116.8 L 124.3 118.6 L 122.0 120.4 L 119.6 122.1 L 117.1 123.7 L 114.4 125.3 L 111.7 126.8 L 109.1 128.5 L 108.0 127.1 L 110.0 124.9 L 111.7 122.3 L 113.4 119.9 L 115.0 117.5 L 118.0 112.9 L 119.4 110.6 L 120.7 108.4 L 122.0 106.1 L 122.63704481124878 104.88382349014282 L 122.5 104.8 L 123.6 103.3 L 132.8 111.1 L 133.6 113.36666669845582 L 133.6 102.5 Z M 81.5 123.1 L 80.8 121.5 L 79.8 119.8 L 78.7 118.1 L 77.4 116.3 L 75.9 114.4 L 74.3 112.4 L 72.5 110.3 L 70.3 108.6 L 71.2 107.1 L 73.8 108.4 L 76.4 109.3 L 78.9 110.4 L 81.3 111.5 L 83.5 112.6 L 85.6 113.9 L 87.6 115.2 L 89.4 116.6 L 91.1 118.0 L 92.7 119.6 L 93.4 124.1 L 90.8 127.9 L 86.3 128.6 L 82.5 126.0 L 82.1 124.6 Z M 54.9 64.1 L 53.7 61.9 L 52.0 59.6 L 49.9 57.3 L 47.3 55.0 L 44.3 52.7 L 40.9 50.4 L 37.0 48.0 L 32.6 45.8 L 33.2 44.1 L 38.0 45.2 L 42.7 46.3 L 46.9 47.6 L 50.9 49.2 L 54.5 51.0 L 57.8 53.1 L 60.8 55.4 L 63.4 58.0 L 65.7 60.9 L 67.5 64.1 L 67.3 68.6 L 64.0 71.8 L 59.4 71.6 L 56.3 68.2 L 55.8 66.2 Z M 134.0 13.5 L 137.0 15.5 L 134.0 17.3 L 134.0 29.6 L 165.0 29.6 L 175.0 19.6 L 187.0 29.6 L 187.0 33.6 L 134.0 33.6 L 134.0 47.0 L 122.0 53.0 L 122.0 33.6 L 78.0 33.6 L 78.0 47.0 L 66.0 53.0 L 66.0 33.6 L 13.0 33.6 L 13.0 29.6 L 66.0 29.6 L 66.0 11.5 L 78.0 13.5 L 81.0 15.5 L 78.0 17.3 L 78.0 29.6 L 122.0 29.6 L 122.0 11.5 Z " />
</g>
</svg>
