<svg xmlns="http://www.w3.org/2000/svg" xmlns:xlink="http://www.w3.org/1999/xlink" version="1.1" baseProfile="full" viewBox="0 0 200 200" width="200" height="200">
<g fill="black">
<path d="M 181.0 150.3 L 183.0 150.3 L 181.0 175.3 L 184.6 177.7 L 187.0 181.3 L 184.6 184.9 L 181.0 187.3 L 128.0 187.3 L 125.4 187.1 L 122.9 186.7 L 120.5 185.9 L 118.2 184.7 L 116.2 183.0 L 114.6 181.0 L 113.3 178.7 L 112.5 176.3 L 112.1 173.8 L 112.0 171.3 L 112.0 149.8 L 105.59333333969116 149.8 L 101.4 157.2 L 94.5 165.0 L 85.9 171.6 L 75.7 177.1 L 63.9 181.4 L 50.5 184.7 L 35.6 186.8 L 19.0 187.8 L 18.9 186.1 L 35.0 183.1 L 49.3 179.5 L 61.7 175.2 L 72.3 170.3 L 81.0 164.6 L 87.9 158.4 L 93.0 151.6 L 93.85135135650634 149.8 L 61.0 149.8 L 61.0 152.8 L 49.0 158.8 L 49.0 126.70684928894043 L 42.4 129.6 L 35.0 132.6 L 27.3 135.3 L 19.3 137.8 L 18.6 136.1 L 25.7 131.9 L 32.6 127.7 L 39.5 123.7 L 46.2 119.6 L 52.7 115.6 L 59.0 111.5 L 65.2 107.3 L 71.2 103.1 L 77.0 98.8 L 81.73882913589478 95.16125621795655 L 68.7 96.7 L 51.3 98.1 L 32.4 99.0 L 12.0 99.3 L 11.9 97.5 L 32.1 95.2 L 50.7 92.8 L 67.9 90.2 L 83.5 87.3 L 97.6 84.2 L 110.2 80.8 L 121.2 77.1 L 130.6 73.1 L 138.4 69.0 L 144.6 64.6 L 151.7 74.2 L 151.9 77.8 L 148.216219997406 76.29920072555542 L 143.9 78.9 L 134.8 83.0 L 124.4 86.6 L 112.6 89.8 L 99.4 92.5 L 84.8 94.8 L 82.97705411911011 95.01513023376465 L 89.7 104.2 L 89.8 107.8 L 86.37259740829468 106.31263656616211 L 83.4 108.2 L 81.75897436141967 109.2 L 126.35882349014283 109.2 L 127.7 108.0 L 129.4 106.3 L 129.80917825698853 106.8590181350708 L 133.0 104.2 L 144.0 113.2 L 139.0 116.2 L 127.0 121.2 L 127.0 120.42857141494751 L 125.9 120.9 L 122.9 122.1 L 119.7 123.3 L 116.3 124.5 L 114.39090909957886 125.1 L 153.0 125.1 L 159.0 120.1 L 170.0 129.1 L 165.0 133.1 L 165.0 151.8 L 153.0 157.8 L 153.0 149.8 L 124.0 149.8 L 124.0 172.5 L 124.2 173.4 L 124.5 174.3 L 124.9 174.7 L 125.2 174.9 L 125.8 175.1 L 126.7 175.2 L 128.0 175.3 L 175.0 175.3 Z M 61.0 129.1 L 61.0 145.8 L 95.74324321746826 145.8 L 96.5 144.2 L 98.5 136.1 L 98.88888893127441 129.1 Z M 110.76363639831543 129.1 L 109.7 138.1 L 107.26039600372314 145.8 L 153.0 145.8 L 153.0 129.1 Z M 75.11842107772827 113.2 L 70.5 115.9 L 63.7 119.5 L 56.8 123.0 L 61.0 125.1 L 106.48571424484253 125.1 L 107.9 124.2 L 110.9 121.8 L 113.7 119.6 L 116.5 117.5 L 119.0 115.4 L 121.5 113.5 L 121.84736843109131 113.2 Z M 70.0 71.9 L 91.2 71.9 L 92.1 71.7 L 93.0 71.4 L 93.4 71.0 L 93.7 70.1 L 93.9 69.2 L 94.0 67.9 L 94.0 42.2 L 106.0 44.2 L 109.0 46.2 L 106.0 48.0 L 106.0 67.9 L 105.8 70.5 L 105.4 73.0 L 104.6 75.4 L 103.3 77.7 L 101.7 79.7 L 99.7 81.3 L 97.4 82.6 L 95.0 83.4 L 92.5 83.8 L 90.0 83.9 L 90.0 77.9 L 70.0 74.9 Z M 59.8 59.9 L 60.7 63.4 L 56.70433006286621 62.62890577316284 L 53.9 64.8 L 50.4 67.2 L 46.5 69.5 L 42.3 71.8 L 37.7 74.1 L 32.8 76.4 L 27.4 78.6 L 21.6 80.7 L 15.3 82.7 L 14.6 81.1 L 19.9 77.5 L 24.9 74.0 L 29.6 70.8 L 33.9 67.7 L 37.8 64.8 L 41.2 62.0 L 44.3 59.3 L 46.9 56.7 L 49.1 54.2 L 50.20110187530518 52.77504463195801 L 50.1 52.7 L 51.2 51.5 Z M 168.7 71.9 L 166.1 69.8 L 163.0 67.6 L 159.4 65.5 L 155.5 63.2 L 151.1 60.9 L 146.3 58.6 L 141.2 56.0 L 135.7 53.5 L 136.2 51.7 L 142.2 52.7 L 148.0 53.8 L 153.3 55.1 L 158.3 56.5 L 162.9 58.0 L 167.1 59.5 L 171.0 61.2 L 174.6 63.0 L 177.9 64.9 L 180.8 66.9 L 182.7 71.1 L 181.2 75.4 L 177.0 77.3 L 172.7 75.8 L 170.9 73.9 Z M 134.0 14.5 L 137.0 16.5 L 134.0 18.3 L 134.0 28.5 L 165.0 28.5 L 175.0 18.5 L 187.0 28.5 L 187.0 32.5 L 134.0 32.5 L 134.0 43.9 L 122.0 49.9 L 122.0 32.5 L 78.0 32.5 L 78.0 43.9 L 66.0 49.9 L 66.0 32.5 L 13.0 32.5 L 13.0 28.5 L 66.0 28.5 L 66.0 12.5 L 78.0 14.5 L 81.0 16.5 L 78.0 18.3 L 78.0 28.5 L 122.0 28.5 L 122.0 12.5 Z " />
</g>
</svg>
