<svg xmlns="http://www.w3.org/2000/svg" xmlns:xlink="http://www.w3.org/1999/xlink" version="1.1" baseProfile="full" viewBox="0 0 200 200" width="200" height="200">
<g fill="black">
<path d="M 43.8 175.5 L 60.2 175.5 L 60.8 175.4 L 61.2 175.2 L 61.5 175.1 L 61.6 174.9 L 61.8 174.7 L 62.0 174.2 L 62.2 173.5 L 62.4 172.4 L 62.4 100.75882349014282 L 59.6 101.5 L 52.7 103.1 L 45.6 104.7 L 38.5 106.2 L 38.113999366760254 106.27402753829956 L 38.0 111.1 L 37.2 123.0 L 36.1 134.1 L 34.6 144.5 L 32.6 154.0 L 30.2 162.7 L 27.4 170.5 L 24.1 177.5 L 20.3 183.6 L 16.0 188.5 L 14.6 187.5 L 17.0 181.7 L 19.2 175.4 L 21.2 168.5 L 22.9 160.8 L 24.3 152.4 L 25.4 143.2 L 26.1 133.2 L 26.5 122.5 L 26.6 110.9 L 26.539967441558836 108.41865434646607 L 23.8 108.9 L 20.32590627670288 109.49425287246704 L 18.6 113.0 L 16.2 110.2 L 12.7 98.6 L 14.7 98.3 L 22.2 97.7 L 26.3 97.31216220855713 L 26.3 33.7 L 38.3 39.7 L 40.34285717010498 39.7 L 40.9 38.5 L 42.5 32.7 L 43.3 30.0 L 44.0 27.2 L 44.6 24.5 L 45.2 21.9 L 46.2 16.7 L 46.38742551803589 15.138120460510255 L 46.2 15.1 L 47.0 12.5 L 58.0 17.5 L 60.4 20.3 L 56.19696969985962 21.40606060028076 L 55.5 22.8 L 54.0 25.3 L 52.5 27.9 L 50.8 30.4 L 49.1 32.8 L 47.2 35.2 L 45.2 37.6 L 43.19545450210571 39.7 L 62.4 39.7 L 67.9 34.7 L 78.4 43.7 L 73.4 47.2 L 73.4 92.48358211517333 L 78.8 92.0 L 85.6 91.6 L 85.9 93.4 L 79.6 95.7 L 73.4 97.70307693481445 L 73.4 171.0 L 73.3 173.5 L 73.0 175.8 L 72.3 178.1 L 71.3 180.2 L 69.9 182.2 L 68.1 183.8 L 66.1 185.1 L 63.9 185.9 L 61.5 186.4 L 59.2 186.5 L 59.2 181.0 L 43.8 178.3 Z M 81.5 178.0 L 127.0 178.0 L 127.0 132.0 L 93.9 132.0 L 93.9 128.0 L 150.0 128.0 L 160.0 118.0 L 172.0 128.0 L 172.0 132.0 L 139.0 132.0 L 139.0 178.0 L 162.4 178.0 L 172.4 168.0 L 184.4 178.0 L 184.4 182.0 L 81.5 182.0 Z M 54.0 113.4 L 56.8 115.4 L 54.0 117.15 L 54.0 152.4 L 43.0 157.9 L 43.0 111.4 Z M 126.5 55.2 L 129.4 57.3 L 125.99835309982299 59.16757087707519 L 125.4 63.9 L 123.6 72.2 L 121.1 80.1 L 117.8 87.6 L 113.8 94.6 L 109.1 101.1 L 103.7 107.1 L 97.6 112.6 L 90.8 117.5 L 83.2 121.7 L 82.2 120.2 L 88.4 114.5 L 93.9 108.7 L 98.8 102.8 L 102.9 96.7 L 106.5 90.3 L 109.3 83.8 L 111.6 77.0 L 113.2 69.9 L 114.2 62.4 L 114.5 54.7 L 114.53026485443115 54.701261043548584 L 114.6 52.4 Z M 178.2 67.0 L 180.2 67.0 L 178.2 92.0 L 181.8 94.4 L 184.2 98.0 L 181.8 101.6 L 178.2 104.0 L 154.1 104.0 L 151.5 103.8 L 149.1 103.4 L 146.6 102.6 L 144.4 101.3 L 142.4 99.7 L 140.7 97.7 L 139.5 95.4 L 138.7 93.0 L 138.2 90.5 L 138.1 88.0 L 138.1 52.0 L 150.1 54.0 L 153.1 56.0 L 150.1 57.8 L 150.1 88.0 L 150.2 89.2 L 150.3 90.1 L 150.5 90.7 L 150.7 91.0 L 150.9 91.2 L 151.0 91.4 L 151.4 91.5 L 152.0 91.7 L 152.9 91.9 L 154.1 92.0 L 172.2 92.0 Z M 38.3 43.7 L 38.3 96.07361106872558 L 44.2 95.5 L 51.3 94.7 L 58.3 94.0 L 62.4 93.5246376991272 L 62.4 43.7 Z M 46.8 74.6 L 46.4 71.1 L 46.0 67.8 L 45.4 64.7 L 44.7 61.7 L 43.9 58.9 L 42.9 56.1 L 41.9 53.4 L 40.4 51.0 L 41.7 49.8 L 44.1 51.7 L 46.5 53.7 L 48.7 56.1 L 50.8 58.9 L 52.6 61.9 L 54.3 65.2 L 55.7 68.8 L 57.0 72.6 L 58.1 76.7 L 59.0 80.9 L 57.7 85.3 L 53.7 87.5 L 49.3 86.1 L 47.1 82.1 L 47.0 78.3 Z M 81.6 76.8 L 79.7 72.6 L 81.2 68.3 L 82.3 67.4 L 83.5 65.9 L 84.8 63.7 L 86.0 60.9 L 87.2 57.5 L 88.3 53.6 L 90.2 44.1 L 91.1 38.6 L 91.7 32.6 L 93.5 32.5 L 94.2 38.6 L 94.70350875854493 42.7 L 127.9 42.7 L 127.9 12.6 L 139.9 14.6 L 142.9 16.6 L 139.9 18.4 L 139.9 42.7 L 173.4 42.7 L 179.4 37.7 L 190.4 46.7 L 185.4 49.7 L 182.69411764144897 50.82745094299317 L 182.6 51.0 L 181.2 53.4 L 179.7 55.9 L 178.1 58.5 L 176.3 61.2 L 174.5 64.0 L 172.4 66.9 L 170.2 69.9 L 168.2 73.2 L 166.6 72.4 L 167.8 68.8 L 168.6 65.2 L 169.5 61.8 L 170.3 58.5 L 171.1 55.5 L 171.7 52.6 L 172.4 49.9 L 172.9 47.3 L 173.0043478012085 46.7 L 95.03584909439087 46.7 L 95.2 49.6 L 95.3 54.4 L 95.1 58.9 L 94.7 63.0 L 94.1 66.8 L 93.1 70.3 L 91.8 73.4 L 90.1 76.4 L 85.9 78.3 Z " />
</g>
</svg>
