<svg xmlns="http://www.w3.org/2000/svg" xmlns:xlink="http://www.w3.org/1999/xlink" version="1.1" baseProfile="full" viewBox="0 0 200 200" width="200" height="200">
<g fill="black">
<path d="M 188.5 27.6 L 183.5 31.1 L 183.5 177.2 L 172.5 182.7 L 172.5 171.2 L 95.5 171.2 L 95.5 183.2 L 85.5 188.2 L 85.5 18.6 L 95.5 23.6 L 172.5 23.6 L 178.0 18.6 Z M 68.5 158.3 L 68.0 154.3 L 67.3 150.3 L 67.17272729873658 149.80363636016847 L 65.1 151.6 L 60.4 155.1 L 55.4 158.5 L 50.3 161.6 L 45.1 164.7 L 39.8 167.6 L 34.3 170.4 L 28.8 173.1 L 23.1 175.7 L 21.228851509094238 176.52067918777465 L 20.3 180.4 L 17.4 178.2 L 11.4 167.7 L 13.3 167.0 L 24.7 163.2 L 30.4 161.2 L 35.9 159.2 L 40.8 157.23999996185302 L 40.8 112.0 L 28.7 112.0 L 28.7 124.0 L 16.7 130.0 L 16.7 47.0 L 28.7 53.0 L 40.8 53.0 L 40.8 13.0 L 52.8 15.0 L 55.8 17.0 L 52.8 18.8 L 52.8 53.0 L 65.3 53.0 L 70.8 48.0 L 81.3 57.0 L 76.3 60.5 L 76.3 112.0 L 65.3 117.5 L 65.3 112.0 L 52.8 112.0 L 52.8 152.4 L 57.8 150.4 L 63.2 148.3 L 66.4673035621643 147.05248403549194 L 66.3 146.4 L 65.1 142.4 L 63.7 138.5 L 62.1 134.5 L 60.4 130.4 L 58.3 126.3 L 59.7 125.2 L 63.1 128.5 L 66.3 131.9 L 69.2 135.5 L 71.7 139.4 L 73.9 143.4 L 75.9 147.6 L 77.5 151.9 L 78.9 156.3 L 80.0 160.9 L 80.8 165.6 L 79.3 169.9 L 75.2 171.9 L 70.9 170.4 L 68.8 166.4 L 68.8 162.3 Z M 95.5 27.6 L 95.5 167.2 L 172.5 167.2 L 172.5 27.6 Z M 143.1 125.4 L 152.0 125.4 L 152.7 125.2 L 153.1 125.1 L 153.3 125.0 L 153.7 124.6 L 153.9 124.1 L 154.1 123.4 L 154.3 122.3 L 154.3 63.6 L 140.9 63.6 L 140.9 150.6 L 128.9 156.6 L 128.9 63.6 L 115.4 63.6 L 115.4 130.9 L 104.4 136.4 L 104.4 54.1 L 115.4 59.6 L 128.9 59.6 L 128.9 37.9 L 140.9 39.9 L 143.9 41.9 L 140.9 43.7 L 140.9 59.6 L 154.3 59.6 L 159.8 54.6 L 170.3 63.6 L 165.3 67.1 L 165.3 120.9 L 165.2 123.4 L 164.9 125.7 L 164.2 128.0 L 163.2 130.1 L 161.8 132.0 L 160.0 133.7 L 158.0 135.0 L 155.7 135.8 L 153.4 136.3 L 151.1 136.4 L 151.1 130.9 L 143.1 128.2 Z M 28.7 57.0 L 28.7 108.0 L 40.8 108.0 L 40.8 57.0 Z M 52.8 57.0 L 52.8 108.0 L 65.3 108.0 L 65.3 57.0 Z " />
</g>
</svg>
