<svg xmlns="http://www.w3.org/2000/svg" xmlns:xlink="http://www.w3.org/1999/xlink" version="1.1" baseProfile="full" viewBox="0 0 200 200" width="200" height="200">
<g fill="black">
<path d="M 138.0 104.0 L 141.0 106.0 L 138.0 107.8 L 138.0 125.2 L 152.2 125.2 L 162.2 115.2 L 174.2 125.2 L 174.2 129.2 L 138.0 129.2 L 138.0 152.5 L 166.3 152.5 L 176.3 142.5 L 188.3 152.5 L 188.3 156.5 L 138.0 156.5 L 138.0 182.8 L 126.0 188.8 L 126.0 156.5 L 76.9 156.5 L 76.9 152.5 L 126.0 152.5 L 126.0 129.2 L 98.90952377319336 129.2 L 98.7 129.6 L 96.2 133.7 L 93.5 137.6 L 90.4 141.3 L 87.0 144.8 L 83.4 148.0 L 82.0 146.8 L 84.2 142.7 L 86.2 138.5 L 88.1 134.4 L 89.7 130.4 L 91.2 126.3 L 92.4 122.2 L 93.4 118.0 L 94.2 113.8 L 94.8 109.5 L 95.1064814567566 106.2053240776062 L 95.0 106.2 L 95.4 103.1 L 107.0 106.8 L 109.8 109.1 L 106.09561853408813 110.74639177322388 L 105.9 111.6 L 104.5 116.4 L 102.9 120.9 L 100.98888893127442 125.2 L 126.0 125.2 L 126.0 102.0 Z M 29.4 133.0 L 57.9 133.0 L 63.9 128.0 L 74.9 137.0 L 69.9 141.0 L 69.9 179.0 L 57.9 185.0 L 57.9 175.0 L 29.4 175.0 L 29.4 182.0 L 17.4 188.0 L 17.4 127.0 Z M 29.4 137.0 L 29.4 171.0 L 57.9 171.0 L 57.9 137.0 Z M 69.3 108.0 L 69.3 112.0 L 18.0 112.0 L 18.0 108.0 L 47.3 108.0 L 57.3 98.0 Z M 163.2 18.4 L 165.0 21.5 L 160.61559324264528 21.95355930328369 L 160.0 22.8 L 158.3 25.0 L 156.5 27.2 L 154.6 29.4 L 150.4 33.8 L 148.2 36.0 L 145.81904764175414 38.0 L 159.9 38.0 L 169.9 28.0 L 181.9 38.0 L 181.9 42.0 L 138.0 42.0 L 138.0 60.0 L 158.61818180084228 60.0 L 166.8 51.0 L 176.8 60.0 L 176.8 64.0 L 138.0 64.0 L 138.0 81.0 L 164.4 81.0 L 174.4 71.0 L 186.4 81.0 L 186.4 85.0 L 138.0 85.0 L 138.0 94.0 L 126.0 100.0 L 126.0 85.0 L 77.6 85.0 L 77.6 81.0 L 126.0 81.0 L 126.0 64.0 L 87.2 64.0 L 87.2 60.0 L 126.0 60.0 L 126.0 42.0 L 82.0 42.0 L 82.0 38.0 L 142.9 38.0 L 143.7 36.6 L 144.8 33.7 L 146.0 30.8 L 148.2 25.4 L 149.2 22.9 L 150.1 20.4 L 150.9 17.9 L 151.7 15.6 L 152.05061378479004 14.255980396270752 L 151.9 14.2 L 152.26538457870484 13.432692337036134 L 152.3 13.3 L 152.32336549758912 13.310932445526124 L 152.9 12.1 Z M 69.3 82.0 L 69.3 86.0 L 18.0 86.0 L 18.0 82.0 L 47.3 82.0 L 57.3 72.0 Z M 77.4 54.0 L 77.4 58.0 L 14.4 58.0 L 14.4 54.0 L 55.4 54.0 L 65.4 44.0 Z M 110.2 28.4 L 109.6 26.5 L 108.9 24.5 L 108.1 22.5 L 106.1 18.3 L 104.9 16.1 L 103.3 14.3 L 104.5 12.9 L 106.5 14.5 L 108.8 15.7 L 111.0 17.1 L 113.0 18.7 L 114.9 20.3 L 116.7 22.1 L 118.3 23.9 L 119.9 25.9 L 121.3 28.0 L 122.6 30.2 L 122.2 34.7 L 118.8 37.8 L 114.3 37.5 L 111.2 34.1 L 111.0 32.2 Z M 69.3 28.0 L 69.3 32.0 L 18.0 32.0 L 18.0 28.0 L 47.3 28.0 L 57.3 18.0 Z " />
</g>
</svg>
