<svg xmlns="http://www.w3.org/2000/svg" xmlns:xlink="http://www.w3.org/1999/xlink" version="1.1" baseProfile="full" viewBox="0 0 200 200" width="200" height="200">
<g fill="black">
<path d="M 29.4 133.0 L 57.9 133.0 L 63.9 128.0 L 74.9 137.0 L 69.9 141.0 L 69.9 179.0 L 57.9 185.0 L 57.9 175.0 L 29.4 175.0 L 29.4 182.0 L 17.4 188.0 L 17.4 127.0 Z M 103.6 80.2 L 161.3 80.2 L 167.3 75.2 L 178.3 84.2 L 173.3 88.2 L 173.3 136.9 L 161.3 142.9 L 161.3 132.9 L 138.5 132.9 L 138.5 153.6 L 165.9 153.6 L 175.9 143.6 L 187.9 153.6 L 187.9 157.6 L 138.5 157.6 L 138.5 181.9 L 126.5 187.9 L 126.5 157.6 L 77.0 157.6 L 77.0 153.6 L 126.5 153.6 L 126.5 132.9 L 103.6 132.9 L 103.6 139.9 L 91.6 145.9 L 91.6 74.2 Z M 29.4 137.0 L 29.4 171.0 L 57.9 171.0 L 57.9 137.0 Z M 103.6 107.6 L 103.6 128.9 L 161.3 128.9 L 161.3 107.6 Z M 69.3 108.0 L 69.3 112.0 L 18.0 112.0 L 18.0 108.0 L 47.3 108.0 L 57.3 98.0 Z M 103.6 84.2 L 103.6 103.6 L 161.3 103.6 L 161.3 84.2 Z M 69.3 82.0 L 69.3 86.0 L 18.0 86.0 L 18.0 82.0 L 47.3 82.0 L 57.3 72.0 Z M 77.0 62.8 L 107.1 62.8 L 107.1 38.0 L 86.0 38.0 L 86.0 34.0 L 107.1 34.0 L 107.1 12.5 L 119.1 14.5 L 122.1 16.5 L 119.1 18.3 L 119.1 34.0 L 145.8 34.0 L 145.8 12.5 L 157.8 14.5 L 160.8 16.5 L 157.8 18.3 L 157.8 34.0 L 160.71818180084227 34.0 L 168.9 25.0 L 178.9 34.0 L 178.9 38.0 L 157.8 38.0 L 157.8 62.8 L 169.71818180084227 62.8 L 177.9 53.8 L 187.9 62.8 L 187.9 66.8 L 77.0 66.8 Z M 119.1 38.0 L 119.1 62.8 L 145.8 62.8 L 145.8 38.0 Z M 77.4 54.0 L 77.4 58.0 L 14.4 58.0 L 14.4 54.0 L 55.4 54.0 L 65.4 44.0 Z M 69.3 28.0 L 69.3 32.0 L 18.0 32.0 L 18.0 28.0 L 47.3 28.0 L 57.3 18.0 Z " />
</g>
</svg>
