<svg xmlns="http://www.w3.org/2000/svg" xmlns:xlink="http://www.w3.org/1999/xlink" version="1.1" baseProfile="full" viewBox="0 0 200 200" width="200" height="200">
<g fill="black">
<path d="M 183.1 149.0 L 185.1 149.0 L 183.1 174.0 L 186.7 176.4 L 189.1 180.0 L 186.7 183.6 L 183.1 186.0 L 152.2 186.0 L 149.6 185.8 L 147.1 185.4 L 144.7 184.6 L 142.4 183.3 L 140.4 181.7 L 138.8 179.7 L 137.5 177.4 L 136.7 175.0 L 136.3 172.5 L 136.2 170.0 L 136.2 135.0 L 129.9826086997986 135.0 L 126.5 143.9 L 122.1 152.4 L 117.0 160.0 L 111.1 166.8 L 104.5 172.7 L 97.2 177.6 L 89.2 181.7 L 80.5 184.7 L 71.3 186.8 L 61.4 187.8 L 61.2 186.1 L 70.3 183.1 L 78.7 179.7 L 86.2 175.8 L 93.0 171.3 L 99.0 166.2 L 104.2 160.5 L 108.8 154.2 L 112.7 147.3 L 115.9 139.6 L 117.29393939971924 135.0 L 106.2 135.0 L 106.2 147.0 L 94.2 153.0 L 94.2 86.0 L 106.2 92.0 L 156.1 92.0 L 162.1 87.0 L 173.1 96.0 L 168.1 100.0 L 168.1 141.0 L 156.1 147.0 L 156.1 135.0 L 148.2 135.0 L 148.2 171.2 L 148.4 172.1 L 148.7 173.0 L 149.1 173.4 L 150.0 173.7 L 150.9 173.9 L 152.2 174.0 L 177.1 174.0 Z M 15.4 168.9 L 21.4 167.3545454978943 L 21.4 101.0 L 32.4 103.0 L 35.2 105.0 L 32.4 106.75 L 32.4 164.36000003814698 L 41.5 161.7 L 44.4 160.80769233703614 L 44.4 80.0 L 32.9 80.0 L 32.9 83.0 L 20.9 89.0 L 20.9 22.0 L 32.9 28.0 L 64.5 28.0 L 70.5 23.0 L 81.5 32.0 L 76.5 36.0 L 76.5 86.0 L 64.5 92.0 L 64.5 80.0 L 55.4 80.0 L 55.4 117.0 L 65.4777777671814 117.0 L 71.7 110.0 L 79.7 117.0 L 79.7 121.0 L 55.4 121.0 L 55.4 157.2953845977783 L 61.0 155.4 L 67.5 153.3 L 74.1 151.2 L 80.8 149.1 L 81.6 150.8 L 75.7 154.6 L 69.7 158.2 L 63.6 161.5 L 57.3 164.6 L 51.0 167.6 L 44.7 170.4 L 38.3 173.1 L 31.9 175.7 L 25.4 178.1 L 22.769942188262938 179.03063583374023 L 21.6 182.7 L 18.9 180.4 L 13.5 169.5 Z M 106.2 116.0 L 106.2 131.0 L 156.1 131.0 L 156.1 116.0 Z M 106.2 96.0 L 106.2 112.0 L 156.1 112.0 L 156.1 96.0 Z M 162.0 48.1 L 164.1 51.1 L 159.89032258987427 51.753225803375244 L 159.0 53.2 L 157.3 55.8 L 155.4 58.6 L 153.4 61.5 L 151.2 64.5 L 148.9 67.6 L 146.3 70.7 L 143.5 74.0 L 142.70588235855104 75.0 L 165.3 75.0 L 175.3 65.0 L 187.3 75.0 L 187.3 79.0 L 83.4 79.0 L 83.4 75.0 L 139.975 75.0 L 141.1 72.5 L 142.5 68.5 L 143.9 64.8 L 145.2 61.2 L 146.5 57.9 L 147.6 54.7 L 148.6 51.6 L 149.5 48.8 L 150.3 46.1 L 150.64910860061644 44.645380878448485 L 150.5 44.6 L 151.4 42.3 Z M 32.9 32.0 L 32.9 76.0 L 64.5 76.0 L 64.5 32.0 Z M 111.6 63.5 L 111.4 60.7 L 111.1 57.9 L 110.7 55.3 L 110.1 52.7 L 109.5 50.3 L 108.7 47.8 L 107.8 45.4 L 106.5 43.3 L 107.8 42.1 L 109.8 43.8 L 112.0 45.6 L 114.1 47.6 L 115.9 49.9 L 117.6 52.5 L 119.2 55.3 L 120.5 58.2 L 121.7 61.4 L 122.8 64.8 L 123.7 68.3 L 122.3 72.7 L 118.3 74.9 L 113.9 73.6 L 111.7 69.6 L 111.7 66.5 Z M 88.6 37.0 L 124.6 37.0 L 124.6 12.0 L 136.6 14.0 L 139.6 16.0 L 136.6 17.8 L 136.6 37.0 L 159.0 37.0 L 169.0 27.0 L 181.0 37.0 L 181.0 41.0 L 88.6 41.0 Z " />
</g>
</svg>
