<svg xmlns="http://www.w3.org/2000/svg" xmlns:xlink="http://www.w3.org/1999/xlink" version="1.1" baseProfile="full" viewBox="0 0 200 200" width="200" height="200">
<g fill="black">
<path d="M 133.79569892883302 112.92258062362671 L 133.5 118.6 L 132.6 128.6 L 130.8 138.8 L 127.6 148.9 L 122.6 158.5 L 115.4 167.3 L 105.7 175.0 L 93.3 181.3 L 77.9 186.0 L 59.1 188.8 L 58.8 187.1 L 76.9 182.3 L 91.1 176.4 L 102.0 169.6 L 109.8 162.2 L 115.3 154.1 L 118.9 145.7 L 121.0 136.8 L 122.0 127.6 L 122.2 118.3 L 122.02146692276001 109.99821109771729 L 122.0 110.0 L 122.0 106.6 L 134.0 109.0 L 137.0 111.0 Z M 167.5 179.6 L 165.3 176.9 L 162.5 174.1 L 159.2 171.1 L 155.3 168.1 L 150.8 164.9 L 145.9 161.5 L 140.4 158.0 L 134.5 154.2 L 135.2 152.5 L 142.0 154.6 L 148.3 156.8 L 154.0 159.2 L 159.2 161.6 L 164.0 164.2 L 168.2 166.8 L 172.0 169.5 L 175.4 172.3 L 178.3 175.2 L 180.7 178.4 L 181.2 182.9 L 178.4 186.6 L 173.9 187.1 L 170.2 184.3 L 169.2 182.0 Z M 55.1 78.0 L 50.1 82.0 L 50.1 157.4264705657959 L 52.4 155.6 L 56.1 152.7 L 60.0 149.6 L 64.1 146.4 L 68.4 143.1 L 73.1 139.7 L 78.0 136.3 L 79.3 137.6 L 75.6 142.4 L 72.0 146.9 L 68.5 151.1 L 65.1 155.0 L 61.9 158.7 L 58.8 162.2 L 55.9 165.5 L 53.2 168.6 L 50.6 171.6 L 48.3 174.3 L 48.055882358551024 174.04411764144896 L 42.1 180.0 L 32.1 170.0 L 38.1 164.0 L 38.1 78.0 L 11.5 78.0 L 11.5 74.0 L 38.1 74.0 L 44.1 69.0 Z M 97.4 94.6 L 155.5 94.6 L 161.5 89.6 L 172.5 98.6 L 167.5 102.6 L 167.5 151.4 L 155.5 157.4 L 155.5 98.6 L 97.4 98.6 L 97.4 152.9 L 85.4 158.9 L 85.4 88.6 Z M 103.04054050445556 23.0 L 158.0 23.0 L 164.0 18.0 L 175.0 27.0 L 170.0 30.0 L 168.7218276977539 30.53257179260254 L 167.5884476661682 49.0 L 173.7777777671814 49.0 L 180.0 42.0 L 188.0 49.0 L 188.0 53.0 L 167.3429602622986 53.0 L 165.6 81.4 L 153.2 86.5 L 153.7731707572937 79.0 L 98.0 79.0 L 90.0 87.0 L 80.0 77.0 L 86.52697257995605 71.56085615158081 L 88.66752653121948 53.0 L 69.0 53.0 L 69.0 49.0 L 89.12883157730103 49.0 L 92.9 16.3 Z M 100.72968463897705 53.0 L 98.19907236099243 75.0 L 120.09230766296386 75.0 L 122.20769233703614 53.0 Z M 134.30769233703614 53.0 L 132.19230766296386 75.0 L 154.07886180877685 75.0 L 155.76016263961793 53.0 Z M 44.2 42.0 L 43.0 39.1 L 41.6 36.3 L 39.9 33.4 L 37.8 30.5 L 35.5 27.6 L 32.9 24.8 L 30.0 21.8 L 26.6 19.1 L 27.5 17.5 L 31.6 19.3 L 35.6 21.1 L 39.2 23.2 L 42.6 25.6 L 45.8 28.2 L 48.7 31.0 L 51.2 34.0 L 53.6 37.2 L 55.6 40.7 L 57.3 44.3 L 56.8 48.8 L 53.3 51.8 L 48.8 51.3 L 45.8 47.9 L 45.1 44.9 Z M 103.72040815353394 27.0 L 101.18979587554932 49.0 L 122.59230766296386 49.0 L 124.70769233703614 27.0 Z M 136.80769233703614 27.0 L 134.69230766296386 49.0 L 156.06585369110107 49.0 L 157.7471544265747 27.0 Z " />
</g>
</svg>
