<svg xmlns="http://www.w3.org/2000/svg" xmlns:xlink="http://www.w3.org/1999/xlink" version="1.1" baseProfile="full" viewBox="0 0 200 200" width="200" height="200">
<g fill="black">
<path d="M 42.8 176.0 L 58.8 176.0 L 60.1 175.9 L 61.0 175.7 L 61.9 175.4 L 62.1 175.2 L 62.2 175.0 L 62.4 174.7 L 62.6 174.1 L 62.8 173.2 L 62.8 128.6 L 59.3 134.8 L 55.4 140.9 L 51.2 146.8 L 46.8 152.5 L 42.0 158.1 L 36.9 163.5 L 31.5 168.7 L 25.8 173.6 L 19.6 178.3 L 13.1 182.6 L 11.9 181.3 L 17.1 175.5 L 22.0 169.8 L 26.7 164.1 L 31.2 158.5 L 35.4 152.8 L 39.3 147.0 L 42.9 141.2 L 46.2 135.3 L 49.2 129.4 L 49.81764707565308 128.0 L 16.0 128.0 L 16.0 124.0 L 26.8 124.0 L 26.8 37.0 L 38.8 43.0 L 43.917241382598874 43.0 L 44.4 41.6 L 45.0 38.5 L 45.7 35.5 L 46.4 32.6 L 47.0 29.7 L 47.6 26.9 L 48.2 24.2 L 48.7 21.4 L 49.2 18.7 L 49.44136190414429 17.131147575378417 L 49.3 17.1 L 49.58148145675659 16.220370388031007 L 49.6 16.1 L 49.61817893981934 16.10569076538086 L 50.1 14.6 L 61.1 19.7 L 63.3 22.5 L 59.14245719909668 23.521150875091553 L 55.6 30.1 L 54.0 32.6 L 52.3 35.2 L 50.6 37.7 L 48.7 40.3 L 46.7 42.7 L 46.51111106872558 43.0 L 62.8 43.0 L 68.8 38.0 L 79.8 47.0 L 74.8 51.0 L 74.8 172.0 L 74.7 174.5 L 74.3 177.0 L 73.4 179.4 L 72.2 181.7 L 70.6 183.7 L 68.6 185.3 L 66.3 186.6 L 63.9 187.4 L 61.4 187.8 L 58.8 188.0 L 58.8 182.0 L 42.8 179.0 Z M 181.8 146.0 L 183.8 146.0 L 181.8 171.0 L 185.4 173.4 L 187.8 177.0 L 185.4 180.6 L 181.8 183.0 L 150.6 183.0 L 148.0 182.8 L 145.5 182.4 L 143.1 181.6 L 140.8 180.3 L 138.8 178.7 L 137.2 176.7 L 136.0 174.4 L 135.2 172.0 L 134.7 169.5 L 134.6 167.0 L 134.6 148.26842107772828 L 127.6 154.9 L 119.6 161.6 L 111.2 167.6 L 110.0 166.3 L 117.0 158.8 L 123.7 151.1 L 130.3 143.3 L 134.6 137.75161294937135 L 134.6 66.0 L 127.68518514633179 66.0 L 127.2 79.1 L 125.6 94.4 L 123.1 109.0 L 119.7 122.8 L 115.4 135.8 L 110.1 148.0 L 103.8 159.3 L 96.6 169.8 L 88.5 179.2 L 79.3 187.6 L 78.1 186.3 L 85.6 176.7 L 92.2 166.7 L 98.1 156.1 L 103.1 144.9 L 107.3 133.1 L 110.7 120.5 L 113.3 107.2 L 115.0 93.2 L 115.8 78.5 L 115.8 66.0 L 81.8 66.0 L 81.8 62.0 L 115.8 62.0 L 115.8 17.0 L 127.8 19.0 L 130.8 21.0 L 127.8 22.8 L 127.8 62.0 L 161.1 62.0 L 171.1 52.0 L 183.1 62.0 L 183.1 66.0 L 146.6 66.0 L 146.6 120.45 L 148.0 118.3 L 153.2 109.3 L 158.2 100.0 L 162.9 90.4 L 166.81129570007323 81.30396337509156 L 166.8 81.3 L 167.7 79.2 L 178.2 85.3 L 180.1 88.3 L 176.4295045852661 88.80627527236939 L 173.1 95.4 L 167.6 105.2 L 161.8 114.5 L 155.7 123.4 L 149.2 131.9 L 146.6 135.03529415130615 L 146.6 168.2 L 146.8 169.1 L 147.0 169.7 L 147.2 170.0 L 147.3 170.2 L 147.5 170.4 L 148.4 170.7 L 149.3 170.9 L 150.6 171.0 L 175.8 171.0 Z M 38.8 101.0 L 38.8 124.0 L 62.8 124.0 L 62.8 101.0 Z M 38.8 74.0 L 38.8 97.0 L 62.8 97.0 L 62.8 74.0 Z M 38.8 47.0 L 38.8 70.0 L 62.8 70.0 L 62.8 47.0 Z M 156.0 41.8 L 155.1 39.2 L 153.9 36.6 L 152.5 34.1 L 150.8 31.5 L 148.8 28.8 L 146.6 26.2 L 144.1 23.5 L 141.2 21.1 L 142.2 19.5 L 145.7 21.2 L 149.2 22.8 L 152.5 24.7 L 155.5 26.8 L 158.3 29.1 L 160.9 31.6 L 163.2 34.3 L 165.3 37.2 L 167.1 40.3 L 168.7 43.6 L 168.2 48.1 L 164.7 51.0 L 160.1 50.5 L 157.2 47.0 L 156.7 44.4 Z " />
</g>
</svg>
