<svg xmlns="http://www.w3.org/2000/svg" xmlns:xlink="http://www.w3.org/1999/xlink" version="1.1" baseProfile="full" viewBox="0 0 200 200" width="200" height="200">
<g fill="black">
<path d="M 54.0 176.0 L 74.0 176.0 L 75.2 175.9 L 76.1 175.7 L 77.0 175.4 L 77.4 175.0 L 77.7 174.1 L 77.9 173.2 L 78.0 172.0 L 78.0 86.0 L 15.0 86.0 L 15.0 82.0 L 78.0 82.0 L 84.0 77.0 L 95.0 86.0 L 90.0 90.0 L 90.0 172.0 L 89.8 174.5 L 89.4 177.0 L 88.6 179.4 L 87.3 181.7 L 85.7 183.7 L 83.7 185.3 L 81.4 186.6 L 79.0 187.4 L 76.5 187.8 L 74.0 188.0 L 74.0 182.0 L 54.0 179.0 Z M 169.4 51.1 L 171.8 53.8 L 168.09090909957885 54.92597398757935 L 166.7 58.9 L 165.2 62.9 L 163.7 67.0 L 162.0 71.3 L 160.2 75.6 L 158.3 80.0 L 156.3 84.5 L 154.0 89.1 L 152.7744680404663 91.5 L 165.8 91.5 L 175.8 81.5 L 187.8 91.5 L 187.8 95.5 L 147.5 95.5 L 147.5 129.3 L 160.3 129.3 L 170.3 119.3 L 182.3 129.3 L 182.3 133.3 L 147.5 133.3 L 147.5 181.0 L 135.5 187.0 L 135.5 133.3 L 100.6 133.3 L 100.6 129.3 L 135.5 129.3 L 135.5 95.5 L 95.1 95.5 L 95.1 91.5 L 150.12884616851807 91.5 L 150.6 88.0 L 151.4 83.0 L 152.3 78.2 L 153.2 73.5 L 154.0 68.9 L 154.9 64.5 L 155.7 60.2 L 156.4 56.1 L 157.1 52.1 L 157.5450472831726 49.20719242095947 L 157.5 49.2 L 157.61351346969604 48.76216220855713 L 157.7 48.2 L 157.75568113327026 48.213801288604735 L 158.2 46.5 Z M 31.0 123.0 L 52.0 123.0 L 58.0 118.0 L 69.0 127.0 L 64.0 131.0 L 64.0 164.0 L 52.0 170.0 L 52.0 158.0 L 31.0 158.0 L 31.0 170.0 L 19.0 176.0 L 19.0 117.0 Z M 31.0 127.0 L 31.0 154.0 L 52.0 154.0 L 52.0 127.0 Z M 72.0 103.0 L 72.0 107.0 L 11.5 107.0 L 11.5 103.0 L 53.81818180084228 103.0 L 62.0 94.0 Z M 121.5 76.4 L 121.0 72.6 L 120.5 68.9 L 120.0 65.3 L 119.3 61.7 L 118.6 58.2 L 117.8 54.8 L 117.1 51.3 L 116.1 48.0 L 117.6 47.2 L 119.8 50.0 L 122.0 52.9 L 124.0 56.1 L 125.9 59.4 L 127.5 62.9 L 129.1 66.6 L 130.5 70.4 L 131.8 74.4 L 132.9 78.5 L 133.9 82.7 L 132.7 87.1 L 128.8 89.5 L 124.4 88.3 L 122.0 84.4 L 121.8 80.3 Z M 77.0 57.8 L 75.4 53.7 L 75.35887546539307 53.60323638916016 L 73.2 54.5 L 66.7 56.9 L 60.2 58.9 L 53.9 60.7 L 47.6 62.4 L 41.3 63.8 L 35.2 65.1 L 29.2 66.2 L 23.2 67.1 L 21.499879360198975 67.33449935913086 L 19.6 70.7 L 17.4 67.9 L 14.5 56.0 L 16.5 55.9 L 22.2 55.8 L 28.0 55.5 L 32.78487968444824 55.175601387023924 L 33.0 54.1 L 33.8 49.6 L 34.8 45.1 L 35.7 40.7 L 36.7 36.2 L 38.5 27.2 L 40.1 18.2 L 40.7254545211792 14.603636360168457 L 40.7 14.6 L 40.8384614944458 13.953846168518066 L 40.9 13.6 L 40.91361255645752 13.603141403198242 L 41.3 11.8 L 52.6 16.3 L 55.1 18.9 L 51.36019077301025 20.102081489562988 L 51.1 20.9 L 48.1 29.9 L 46.4 34.3 L 44.6 38.7 L 42.7 43.0 L 40.7 47.2 L 38.6 51.3 L 36.59424304962158 54.87547969818115 L 39.9 54.6 L 46.1 54.0 L 52.4 53.3 L 58.9 52.5 L 65.5 51.7 L 72.2 50.8 L 74.0872901916504 50.61127099990845 L 73.7 49.7 L 72.0 45.8 L 70.1 42.0 L 68.2 38.3 L 64.2 30.9 L 62.0 27.3 L 63.3 26.1 L 66.7 28.7 L 70.1 31.5 L 73.2 34.6 L 76.2 38.0 L 79.0 41.6 L 81.7 45.3 L 84.2 49.2 L 86.6 53.3 L 88.9 57.6 L 91.0 62.0 L 90.8 66.6 L 87.5 69.8 L 83.0 69.6 L 79.8 66.3 L 78.4 62.0 Z M 102.2 39.7 L 135.5 39.7 L 135.5 11.9 L 147.5 13.9 L 150.5 15.9 L 147.5 17.7 L 147.5 39.7 L 158.7 39.7 L 168.7 29.7 L 180.7 39.7 L 180.7 43.7 L 102.2 43.7 Z " />
</g>
</svg>
