<svg xmlns="http://www.w3.org/2000/svg" xmlns:xlink="http://www.w3.org/1999/xlink" version="1.1" baseProfile="full" viewBox="0 0 200 200" width="200" height="200">
<g fill="black">
<path d="M 130.7 183.7 L 112.3 182.6 L 97.2 180.8 L 85.0 178.1 L 75.1 174.6 L 67.2 170.3 L 61.1 165.3 L 56.4 159.6 L 54.27821521759033 155.8868766784668 L 52.0 158.1 L 48.4 161.5 L 44.9 164.6 L 41.3 167.7 L 37.7 170.6 L 26.9 178.7 L 23.323113918304443 181.18394861221313 L 23.1 185.2 L 19.8 183.6 L 12.1 174.3 L 13.8 173.3 L 17.6 171.4 L 21.4 169.6 L 29.2 165.6 L 33.2 163.6 L 37.2 161.5 L 44.0 158.1 L 44.0 109.0 L 14.0 109.0 L 14.0 105.0 L 44.0 105.0 L 50.0 100.0 L 61.0 109.0 L 56.0 113.0 L 56.0 153.70384616851806 L 59.5 156.8 L 64.9 160.7 L 70.8 164.1 L 78.0 166.8 L 87.1 169.0 L 98.6 170.6 L 113.0 171.6 L 130.9 171.9 L 152.6 171.5 L 178.7 170.4 L 190.0 169.9 L 179.2 183.5 L 152.9 184.0 Z M 187.5 151.7 L 187.5 155.7 L 67.5 155.7 L 67.5 151.7 L 165.5 151.7 L 175.5 141.7 Z M 163.1 130.3 L 158.6 124.9 L 156.04788160324097 120.94421653747558 L 151.1 126.9 L 145.1 132.7 L 138.5 137.6 L 131.4 141.6 L 130.4 140.1 L 136.1 134.7 L 141.3 128.9 L 145.9 122.8 L 150.1 116.2 L 151.75862064361573 113.01724138259888 L 151.2 111.9 L 148.2 104.3 L 145.6 96.1 L 143.6 87.2 L 142.1 77.5 L 141.3615385055542 67.9 L 135.33760681152344 67.9 L 135.5 77.4 L 135.5 88.2 L 135.3 97.8 L 134.9 106.5 L 134.3 114.1 L 133.4 120.8 L 132.2 126.5 L 130.8 131.4 L 128.8 135.5 L 127.4 137.6 L 125.8 139.5 L 124.1 141.2 L 122.2 142.7 L 120.2 144.0 L 118.0 145.1 L 115.7 145.9 L 113.3 146.5 L 110.9 146.8 L 108.4 146.9 L 108.4 140.9 L 94.4 137.9 L 94.4 134.9 L 108.4 134.9 L 109.8 134.8 L 111.1 134.7 L 112.3 134.4 L 113.3 134.0 L 114.3 133.5 L 115.2 132.9 L 116.1 132.2 L 116.9 131.4 L 117.8 130.4 L 118.6 129.2 L 119.5 127.1 L 120.6 123.6 L 121.5 118.9 L 122.3 112.9 L 122.9 105.7 L 123.3 97.4 L 123.5 88.1 L 123.5 77.6 L 123.3 66.0 L 123.17959976196289 62.94183340072632 L 122.8 63.1 L 122.8 55.1 L 112.34285717010498 55.1 L 111.7 59.0 L 98.9 63.0 L 103.6741213798523 33.7 L 70.5 33.7 L 70.5 29.7 L 162.4 29.7 L 172.4 19.7 L 184.4 29.7 L 184.4 33.7 L 115.87032966613769 33.7 L 113.00219783782958 51.1 L 122.8 51.1 L 128.8 46.1 L 139.8 55.1 L 135.00075759887696 57.979545497894286 L 135.23023252487184 63.9 L 164.5 63.9 L 170.5 58.9 L 181.5 67.9 L 176.5 70.9 L 175.66703481674193 71.2470687866211 L 174.6 77.2 L 172.2 87.1 L 169.1 96.4 L 165.5 105.1 L 162.09918394088746 111.57774477005005 L 163.2 113.2 L 167.2 117.9 L 171.3 121.8 L 175.5 124.9 L 179.9 127.2 L 185.0 129.9 L 173.7 138.9 L 168.1 135.0 Z M 86.9 71.8 L 99.9 71.8 L 105.9 66.8 L 116.9 75.8 L 111.9 79.8 L 111.9 123.2 L 99.9 129.2 L 99.9 117.2 L 86.9 117.2 L 86.9 129.2 L 74.9 135.2 L 74.9 65.8 Z M 86.9 75.8 L 86.9 113.2 L 99.9 113.2 L 99.9 75.8 Z M 143.44795913696288 67.9 L 146.2 76.6 L 149.3 85.6 L 152.5 93.8 L 155.8 101.1 L 156.5274257659912 102.41340770721436 L 156.9 101.5 L 159.6 93.3 L 161.7 84.5 L 163.4 75.2 L 164.27600002288818 67.9 Z M 38.3 77.2 L 36.1 74.7 L 33.7 72.2 L 31.2 69.7 L 28.5 67.3 L 25.7 65.0 L 22.8 62.6 L 19.8 60.3 L 16.5 58.2 L 17.2 56.5 L 21.1 57.6 L 24.9 58.6 L 28.6 60.0 L 32.2 61.5 L 35.7 63.3 L 39.1 65.2 L 42.4 67.3 L 45.5 69.6 L 48.6 72.1 L 51.5 74.7 L 52.9 79.1 L 50.9 83.2 L 46.6 84.6 L 42.5 82.6 L 40.5 79.9 Z M 47.9 41.9 L 46.0 39.3 L 43.9 36.8 L 41.6 34.3 L 39.1 31.8 L 36.5 29.4 L 33.7 26.9 L 30.7 24.4 L 27.5 22.2 L 28.2 20.6 L 32.1 21.8 L 35.9 23.1 L 39.5 24.6 L 43.0 26.2 L 46.4 28.1 L 49.6 30.2 L 52.7 32.4 L 55.6 34.7 L 58.3 37.3 L 61.0 40.0 L 62.0 44.4 L 59.8 48.4 L 55.3 49.4 L 51.4 47.2 L 49.7 44.5 Z " />
</g>
</svg>
