<svg xmlns="http://www.w3.org/2000/svg" xmlns:xlink="http://www.w3.org/1999/xlink" version="1.1" baseProfile="full" viewBox="0 0 200 200" width="200" height="200">
<g fill="black">
<path d="M 162.4 92.8 L 160.3 93.7 L 158.2 94.5 L 156.0 95.3 L 151.6 96.3 L 149.3 96.6 L 147.0 96.8 L 144.7 96.9 L 144.7 90.9 L 126.7 87.9 L 126.7 84.9 L 144.7 84.9 L 146.4 84.8 L 148.0 84.7 L 149.6 84.4 L 151.1 84.1 L 154.1 83.3 L 155.6 82.7 L 157.0 82.0 L 158.4 81.2 L 159.9 80.4 L 160.8 79.5 L 162.1 77.9 L 163.4 75.2 L 164.6 71.6 L 165.8 67.1 L 166.7 61.7 L 167.5 55.4 L 168.0 48.3 L 168.4 40.4 L 168.47701148986818 33.7 L 149.94712648391723 33.7 L 148.0 41.4 L 144.9 49.6 L 141.0 57.3 L 136.1 64.4 L 130.5 71.0 L 124.0 77.0 L 116.7 82.4 L 108.6 87.3 L 106.34359474182129 88.33946752548218 L 106.4 88.4 L 106.44220180511475 88.61100921630859 L 107.8 89.4 L 115.2 93.6 L 122.6 97.6 L 130.2 101.4 L 137.9 104.9 L 145.8 108.1 L 153.8 111.0 L 162.1 113.6 L 170.5 115.9 L 179.2 117.9 L 187.7 120.0 L 176.0 130.7 L 167.0 127.9 L 158.3 124.7 L 149.8 121.2 L 141.7 117.4 L 134.8496503829956 113.75804195404052 L 142.7 120.3 L 142.7 124.3 L 107.0 124.3 L 107.0 139.2 L 143.9 139.2 L 153.9 129.2 L 165.9 139.2 L 165.9 143.2 L 107.0 143.2 L 107.0 174.3 L 157.5 174.3 L 167.5 164.3 L 179.5 174.3 L 179.5 178.3 L 22.4 178.3 L 22.4 174.3 L 95.0 174.3 L 95.0 143.2 L 36.0 143.2 L 36.0 139.2 L 95.0 139.2 L 95.0 124.3 L 59.2 124.3 L 59.2 120.3 L 120.7 120.3 L 130.01311473846437 110.98688526153565 L 126.1 108.7 L 118.8 103.8 L 111.9 98.5 L 105.3 92.8 L 103.59503107070923 91.03913040161133 L 103.39286661148071 90.98947601318359 L 99.2 94.6 L 91.6 100.5 L 83.6 105.9 L 75.1 111.0 L 66.2 115.6 L 56.8 119.9 L 47.0 123.7 L 36.7 127.1 L 26.0 130.0 L 14.9 132.3 L 14.4 130.5 L 24.9 126.3 L 34.9 122.1 L 44.4 117.6 L 53.5 113.0 L 62.1 108.1 L 70.3 103.0 L 77.9 97.6 L 85.1 92.0 L 91.7 86.1 L 97.3875 80.5027777671814 L 98.2 79.6 L 102.91518287658691 84.66019620895386 L 105.8 82.7 L 112.7 77.2 L 118.8 71.4 L 124.1 65.4 L 128.5 59.1 L 132.1 52.5 L 135.0 45.6 L 137.1 38.4 L 137.87164182662963 33.7 L 121.07021274566651 33.7 L 118.6 38.0 L 115.5 42.3 L 112.1 46.1 L 108.3 49.6 L 104.1 52.6 L 99.6 55.1 L 94.8 57.0 L 93.9 55.5 L 97.5 52.1 L 100.8 48.6 L 103.7 45.1 L 106.3 41.4 L 108.5 37.6 L 110.5 33.5 L 112.2 29.3 L 113.5 24.9 L 114.6 20.2 L 115.3 15.2 L 115.37015857696534 15.213080406188965 L 115.7 13.3 L 127.1 17.4 L 129.7 19.9 L 126.07026433944702 21.24434652328491 L 125.6 23.0 L 123.6 28.4 L 122.98979587554932 29.7 L 168.5 29.7 L 174.5 24.7 L 185.5 33.7 L 180.5 36.7 L 180.4448021888733 36.72299909591675 L 180.4 40.8 L 180.0 49.1 L 179.4 56.6 L 178.6 63.4 L 177.5 69.6 L 176.1 75.0 L 174.4 79.8 L 172.3 84.0 L 169.7 87.6 L 166.4 90.5 L 164.4 91.7 Z M 150.5 154.5 L 151.5 157.9 L 147.30174417495726 157.24854650497437 L 145.8 158.5 L 143.3 160.5 L 140.6 162.5 L 137.8 164.4 L 134.9 166.3 L 131.8 168.2 L 128.6 170.0 L 125.2 171.7 L 121.9 173.6 L 120.8 172.1 L 123.5 169.5 L 125.9 166.6 L 128.3 163.9 L 130.5 161.2 L 132.6 158.7 L 134.6 156.2 L 136.5 153.7 L 138.2 151.4 L 139.8 149.0 L 140.75338983535767 147.53813562393188 L 140.7 147.5 L 141.06000003814697 147.06800003051757 L 141.3 146.7 L 141.33906583786012 146.73312101364135 L 141.7 146.3 Z M 63.2 165.7 L 62.3 164.0 L 61.2 162.1 L 59.8 160.2 L 58.2 158.1 L 56.3 156.0 L 54.2 153.8 L 51.8 151.4 L 49.0 149.4 L 49.9 147.8 L 53.1 149.3 L 56.3 150.4 L 59.3 151.7 L 62.1 153.1 L 64.7 154.5 L 67.1 156.1 L 69.4 157.7 L 71.4 159.5 L 73.2 161.4 L 74.9 163.4 L 75.2 168.0 L 72.2 171.5 L 67.7 171.8 L 64.2 168.9 L 63.8 167.4 Z M 99.5 39.0 L 99.5 43.0 L 62.9 43.0 L 62.9 99.0 L 51.9 104.5 L 51.9 43.0 L 19.8 43.0 L 19.8 39.0 L 77.5 39.0 L 87.5 29.0 Z M 40.0 51.8 L 42.7 53.8 L 40.0 55.52340421676636 L 40.0 67.8 L 39.5 72.3 L 38.6 76.5 L 37.4 80.4 L 35.8 84.0 L 33.9 87.2 L 31.7 89.9 L 29.1 92.2 L 26.3 94.0 L 23.3 95.2 L 20.2 96.3 L 19.5 94.8 L 22.0 93.1 L 23.9 91.0 L 25.5 88.7 L 26.7 86.4 L 27.7 83.9 L 28.5 81.2 L 28.9 78.2 L 29.2 75.0 L 29.2 71.5 L 29.0 67.8 L 29.0 49.8 Z M 88.1 51.8 L 91.1 53.8 L 88.1 55.6 L 88.1 84.3 L 76.1 90.3 L 76.1 49.8 Z M 89.4 20.4 L 89.4 24.4 L 29.0 24.4 L 29.0 20.4 L 67.4 20.4 L 77.4 10.4 Z " />
</g>
</svg>
