<svg xmlns="http://www.w3.org/2000/svg" xmlns:xlink="http://www.w3.org/1999/xlink" version="1.1" baseProfile="full" viewBox="0 0 200 200" width="200" height="200">
<g fill="black">
<path d="M 163.1 176.0 L 157.0 169.3 L 152.0 161.7 L 147.9 153.1 L 144.8 143.7 L 142.6 133.3 L 142.16134595870972 129.5208264350891 L 141.5 132.8 L 137.8 143.8 L 132.6 153.6 L 126.1 162.4 L 118.3 169.9 L 109.3 176.3 L 99.0 181.4 L 87.6 185.3 L 75.0 187.8 L 74.6 186.1 L 86.4 181.7 L 96.7 176.6 L 105.7 170.8 L 113.3 164.3 L 119.5 157.0 L 124.6 149.0 L 128.4 140.1 L 131.1 130.4 L 132.5 119.6 L 132.8 108.0 L 132.8 90.0 L 144.8 92.0 L 147.8 94.0 L 144.8 95.8 L 144.8 106.525 L 145.2 109.7 L 147.2 121.3 L 149.7 131.8 L 152.07813215255737 139.1722095489502 L 153.3 137.0 L 156.6 131.0 L 159.6 125.7 L 162.3 120.9 L 164.6 116.6 L 166.6 112.8 L 168.3 109.6 L 169.5 106.9 L 170.4 104.7 L 170.5448275566101 104.15689659118652 L 170.4 104.1 L 170.74285717010497 103.41428575515747 L 170.8 103.2 L 170.8401487350464 103.21970262527466 L 171.4 102.1 L 181.6 108.5 L 183.5 111.6 L 179.0149384498596 111.98664321899415 L 178.7 112.4 L 174.3 117.9 L 171.5 121.2 L 168.3 125.1 L 164.8 129.3 L 160.7 134.0 L 156.2 139.0 L 153.22770986557006 142.2695191383362 L 156.4 149.3 L 160.7 156.3 L 165.5 162.2 L 170.8 167.0 L 176.7 170.9 L 183.1 173.9 L 189.4 176.5 L 178.0 186.0 L 170.1 181.6 Z M 17.5 170.9 L 24.5 169.6 L 31.5 168.2 L 38.6 166.8 L 45.7 165.3 L 49.6 164.46428575515748 L 49.6 105.0 L 19.6 105.0 L 19.6 101.0 L 49.6 101.0 L 49.6 73.0 L 35.4 73.0 L 35.4 69.0 L 63.6 69.0 L 73.6 59.0 L 85.6 69.0 L 85.6 73.0 L 61.6 73.0 L 61.6 101.0 L 68.8 101.0 L 78.8 91.0 L 90.8 101.0 L 90.8 105.0 L 61.6 105.0 L 61.6 161.81690139770507 L 67.0 160.6 L 74.2 159.0 L 81.4 157.5 L 88.8 156.1 L 89.4 157.8 L 82.6 161.1 L 75.8 164.1 L 68.9 166.9 L 62.0 169.5 L 55.0 172.0 L 48.1 174.3 L 34.1 178.7 L 27.1 180.7 L 24.090467071533205 181.51687316894532 L 22.7 185.1 L 20.1 182.6 L 15.5 171.3 Z M 30.7 145.5 L 30.4 142.5 L 29.8 139.6 L 28.9 136.6 L 27.9 133.6 L 26.6 130.5 L 25.2 127.5 L 23.5 124.3 L 21.4 121.3 L 22.7 120.0 L 25.6 122.4 L 28.6 124.8 L 31.3 127.4 L 33.7 130.2 L 35.9 133.2 L 37.8 136.3 L 39.5 139.6 L 40.9 143.1 L 42.0 146.7 L 42.9 150.4 L 41.4 154.8 L 37.4 156.9 L 33.1 155.5 L 30.9 151.5 L 30.9 148.5 Z M 87.3 122.0 L 89.4 125.0 L 85.29936304092408 125.70700635910035 L 84.0 128.0 L 80.4 134.0 L 78.4 136.9 L 76.3 139.9 L 74.1 142.8 L 71.8 145.7 L 69.3 148.5 L 67.0 151.4 L 65.4 150.5 L 66.9 147.0 L 68.0 143.5 L 69.2 140.1 L 70.3 136.7 L 71.4 133.4 L 72.5 130.2 L 73.5 127.0 L 75.3 120.8 L 75.83222799301147 118.73761653900146 L 75.7 118.7 L 76.6 116.4 Z M 93.8 144.7 L 92.7 140.3 L 95.0 136.3 L 97.4 134.7 L 99.7 132.7 L 101.7 130.3 L 103.6 127.4 L 105.2 124.1 L 106.7 120.3 L 107.8 115.9 L 108.8 111.1 L 109.5 105.8 L 109.9 100.0 L 111.7 99.9 L 112.9 105.7 L 113.7 111.3 L 113.9 116.6 L 113.7 121.6 L 113.1 126.4 L 111.9 130.9 L 110.3 135.2 L 108.1 139.1 L 105.4 142.8 L 102.1 146.0 L 97.7 147.0 Z M 185.5 29.9 L 180.5 33.9 L 180.5 89.3 L 168.5 95.3 L 168.5 87.3 L 97.1 87.3 L 97.1 83.3 L 168.5 83.3 L 168.5 56.9 L 101.2 56.9 L 101.2 52.9 L 168.5 52.9 L 168.5 29.9 L 98.3 29.9 L 98.3 25.9 L 168.5 25.9 L 174.5 20.9 Z M 77.4 49.3 L 75.8 46.8 L 73.9 44.3 L 71.6 41.7 L 69.1 39.1 L 66.3 36.4 L 63.2 33.7 L 59.9 30.8 L 57.35892419815063 29.061369228363038 L 55.0 34.5 L 51.1 42.5 L 46.9 50.4 L 42.3 58.0 L 37.4 65.5 L 32.2 72.7 L 26.6 79.6 L 20.5 86.2 L 14.1 92.5 L 12.7 91.4 L 17.6 83.9 L 22.2 76.4 L 26.7 69.0 L 30.9 61.5 L 34.9 53.9 L 38.6 46.1 L 42.0 38.3 L 45.1 30.3 L 48.0 22.3 L 50.5 14.0 L 50.518072319030765 14.006024074554443 L 51.0 12.5 L 61.9 17.8 L 64.1 20.6 L 60.4752236366272 21.426703357696532 L 58.6 26.2 L 58.21854305267334 27.07947015762329 L 61.3 28.2 L 65.6 29.8 L 69.6 31.6 L 73.3 33.5 L 76.7 35.6 L 79.9 37.9 L 82.9 40.3 L 85.6 42.8 L 88.1 45.6 L 90.2 48.4 L 90.7 53.0 L 87.9 56.6 L 83.3 57.0 L 79.7 54.2 L 78.7 51.8 Z " />
</g>
</svg>
