<svg xmlns="http://www.w3.org/2000/svg" xmlns:xlink="http://www.w3.org/1999/xlink" version="1.1" baseProfile="full" viewBox="0 0 200 200" width="200" height="200">
<g fill="black">
<path d="M 133.3 184.6 L 112.7 183.7 L 94.8 181.9 L 79.5 179.0 L 66.9 175.1 L 56.8 170.2 L 49.6 164.0 L 45.6 156.7 L 45.537106895446776 155.73144655227662 L 45.0 156.0 L 44.6 156.6 L 42.6 159.7 L 40.5 162.8 L 38.2 165.7 L 35.8 168.7 L 33.4 171.6 L 30.8 174.5 L 28.1 177.3 L 25.595207691192627 179.89424924850465 L 26.0 184.0 L 22.5 183.0 L 13.4 174.9 L 14.9 173.7 L 18.1 171.5 L 21.3 169.4 L 24.4 167.2 L 27.4 165.1 L 30.4 162.9 L 33.4 160.8 L 36.4 158.6 L 37.0 158.18000001907347 L 37.0 109.0 L 16.0 109.0 L 16.0 105.0 L 37.0 105.0 L 43.0 100.0 L 54.0 109.0 L 49.0 113.0 L 49.0 154.0 L 48.99183673858643 154.0040816307068 L 49.4 155.0 L 52.30888891220093 158.17333335876464 L 53.4 154.9 L 56.0 145.7 L 58.4 135.2 L 60.5 123.4 L 62.4 110.2 L 63.9 95.7 L 65.1 79.9 L 66.1 62.6 L 66.6 44.0 L 66.77979793548585 26.2 L 57.3 26.2 L 57.3 22.2 L 88.4 22.2 L 94.4 17.2 L 105.4 26.2 L 100.4 29.2 L 99.13155689239503 29.728517913818358 L 97.21855669021606 62.0 L 98.1 62.0 L 104.1 57.0 L 115.1 66.0 L 110.1 69.0 L 109.37159795761109 69.3035008430481 L 107.6 80.5 L 104.6 95.0 L 101.2 108.2 L 97.71115550994872 119.12559204101562 L 99.4 123.0 L 102.6 131.2 L 105.6 139.7 L 108.4 148.6 L 107.8 153.1 L 104.2 155.9 L 99.7 155.3 L 96.9 151.7 L 94.7 143.0 L 92.4 134.6 L 91.90769720077515 132.9852469444275 L 88.3 139.9 L 83.0 147.8 L 77.2 154.3 L 70.9 159.2 L 64.2 162.5 L 63.4 160.9 L 68.5 156.3 L 73.2 150.7 L 77.5 144.2 L 81.6 136.4 L 85.2 127.4 L 87.75947713851929 119.72156858444214 L 87.4 118.6 L 84.7 111.0 L 81.9 103.6 L 79.0 96.6 L 76.1 89.7 L 74.48851346969604 86.15472974777222 L 73.1 96.8 L 70.8 111.5 L 68.0 124.9 L 64.8 136.8 L 61.1 147.3 L 56.9 156.4 L 54.49771699905396 160.23343029022217 L 60.4 163.9 L 69.5 167.2 L 81.4 169.9 L 96.0 171.7 L 113.3 172.7 L 133.3 172.8 L 156.1 172.0 L 181.5 170.4 L 192.5 169.6 L 182.4 183.5 L 156.5 184.5 Z M 163.6 160.0 L 157.9 156.5 L 152.6 152.5 L 149.39436197280884 149.4279302597046 L 148.3 150.3 L 141.5 154.8 L 134.3 158.7 L 126.7 161.7 L 118.6 164.0 L 110.3 165.4 L 109.8 163.7 L 117.4 160.4 L 124.5 156.8 L 131.1 152.9 L 137.3 148.6 L 143.0 143.8 L 143.71453533172607 143.07172355651855 L 143.4 142.7 L 139.5 137.0 L 136.1 130.8 L 133.2 123.9 L 131.3270270347595 117.3 L 118.5 117.3 L 118.5 113.3 L 164.5 113.3 L 164.9285714149475 112.94285717010499 L 165.1 112.6 L 165.25 112.675 L 170.5 108.3 L 181.5 117.3 L 176.5 120.3 L 173.87175788879395 121.39510087966919 L 171.3 125.7 L 166.2 132.8 L 160.7 139.3 L 156.91644649505616 143.02049427032472 L 158.7 144.3 L 163.5 147.1 L 168.5 149.2 L 173.7 150.9 L 179.1 152.1 L 188.0 154.1 L 176.2 165.0 L 169.7 162.8 Z M 133.7161290168762 117.3 L 136.9 122.0 L 141.1 127.7 L 145.3 132.7 L 149.45131015777588 137.04439430236818 L 153.1 132.8 L 157.5 126.6 L 161.5 119.8 L 162.75 117.3 Z M 115.6 107.2 L 115.6 66.2 L 126.6 71.7 L 170.9 71.7 L 176.4 66.7 L 186.9 75.7 L 181.9 79.2 L 181.9 101.7 L 170.9 107.2 L 170.9 101.7 L 126.6 101.7 Z M 76.55172414779663 66.0 L 75.27546834945679 79.87928142547608 L 76.3 81.1 L 80.7 87.1 L 84.9 93.6 L 88.8 100.4 L 91.50665159225464 105.66699771881103 L 94.1 92.8 L 96.3 78.7 L 97.77483873367309 66.0 Z M 126.6 75.7 L 126.6 97.7 L 135.5 97.7 L 135.5 75.7 Z M 144.5 75.7 L 144.5 97.7 L 153.0 97.7 L 153.0 75.7 Z M 162.0 75.7 L 162.0 97.7 L 170.9 97.7 L 170.9 75.7 Z M 31.9 76.1 L 30.5 74.1 L 29.0 72.0 L 27.4 70.0 L 25.7 67.9 L 23.8 65.9 L 21.8 63.8 L 19.4 62.2 L 20.2 60.6 L 23.0 61.7 L 25.9 62.5 L 28.7 63.6 L 31.4 64.9 L 34.0 66.4 L 36.5 68.0 L 38.9 69.8 L 41.1 71.8 L 43.3 73.9 L 45.4 76.2 L 46.1 80.7 L 43.6 84.5 L 39.1 85.2 L 35.3 82.7 L 34.3 80.5 Z M 133.6 21.6 L 163.9 21.6 L 169.9 16.6 L 180.9 25.6 L 175.9 29.6 L 175.9 61.0 L 163.9 67.0 L 163.9 61.0 L 133.6 61.0 L 121.6 67.0 L 121.6 15.6 Z M 78.8153465270996 26.2 L 78.0 44.5 L 76.88297872543335 62.0 L 85.2608039855957 62.0 L 88.13919601440429 26.2 Z M 133.6 42.9 L 133.6 57.0 L 163.9 57.0 L 163.9 42.9 Z M 38.7 42.2 L 37.8 39.9 L 36.7 37.6 L 35.5 35.4 L 34.2 33.1 L 32.7 30.9 L 31.1 28.6 L 29.4 26.2 L 27.3 24.3 L 28.3 22.8 L 30.9 24.3 L 33.7 25.5 L 36.3 27.0 L 38.8 28.7 L 41.2 30.5 L 43.4 32.4 L 45.5 34.5 L 47.5 36.8 L 49.4 39.2 L 51.1 41.7 L 51.3 46.3 L 48.2 49.7 L 43.7 49.8 L 40.2 46.8 L 39.5 44.5 Z M 133.6 25.6 L 133.6 38.9 L 163.9 38.9 L 163.9 25.6 Z " />
</g>
</svg>
