<svg xmlns="http://www.w3.org/2000/svg" xmlns:xlink="http://www.w3.org/1999/xlink" version="1.1" baseProfile="full" viewBox="0 0 200 200" width="200" height="200">
<g fill="black">
<path d="M 133.3 184.6 L 112.7 183.7 L 94.8 181.9 L 79.5 179.0 L 66.9 175.1 L 56.8 170.2 L 49.6 164.0 L 45.6 156.7 L 45.53396224975586 155.68301887512206 L 45.05 155.925 L 44.6 156.6 L 42.6 159.7 L 40.5 162.8 L 38.2 165.7 L 35.8 168.7 L 33.4 171.6 L 30.8 174.5 L 28.1 177.3 L 25.595207691192627 179.89424924850465 L 26.0 184.0 L 22.5 183.0 L 13.4 174.9 L 14.9 173.7 L 18.1 171.5 L 21.3 169.4 L 24.4 167.2 L 27.4 165.1 L 30.4 162.9 L 33.4 160.8 L 36.4 158.6 L 37.5 157.83000001907348 L 37.5 109.0 L 16.0 109.0 L 16.0 105.0 L 37.5 105.0 L 43.0 100.0 L 53.5 109.0 L 48.5 112.5 L 48.5 152.8039999961853 L 49.4 155.0 L 53.8 159.8 L 60.4 163.9 L 69.5 167.2 L 81.4 169.9 L 96.0 171.7 L 113.3 172.7 L 133.3 172.8 L 156.1 172.0 L 181.5 170.4 L 192.5 169.6 L 182.4 183.5 L 156.5 184.5 Z M 105.7 17.0 L 108.7 19.0 L 105.7 20.8 L 105.7 35.16666669845581 L 109.5 30.1 L 115.5 36.1 L 115.5 40.1 L 105.7 40.1 L 105.7 60.0 L 93.7 66.0 L 93.7 58.0 L 90.5 58.0 L 90.5 74.4 L 99.5 74.4 L 105.0 69.4 L 115.5 78.4 L 110.5 81.9 L 110.5 114.7 L 99.5 120.2 L 99.5 110.7 L 90.5 110.7 L 90.5 131.3 L 97.31818180084228 131.3 L 105.5 122.3 L 115.5 131.3 L 115.5 135.3 L 90.5 135.3 L 90.5 160.6 L 80.5 165.6 L 80.5 135.3 L 55.5 135.3 L 55.5 131.3 L 80.5 131.3 L 80.5 110.7 L 70.2 110.7 L 70.2 117.7 L 60.2 122.7 L 60.2 69.4 L 70.2 74.4 L 80.5 74.4 L 80.5 58.0 L 78.0 58.0 L 78.0 61.0 L 66.0 67.0 L 66.0 40.1 L 55.5 40.1 L 55.5 36.1 L 66.0 36.1 L 66.0 15.0 L 78.0 17.0 L 81.0 19.0 L 78.0 20.8 L 78.0 36.1 L 93.7 36.1 L 93.7 15.0 Z M 157.9 157.0 L 155.5 156.5 L 153.1 155.6 L 150.9 154.4 L 148.9 152.7 L 147.3 150.7 L 146.2 148.5 L 145.4 146.1 L 145.1 143.7 L 145.0 141.2 L 145.0 93.57254905700684 L 143.0 94.2 L 137.9 95.1 L 137.4 93.3 L 141.5 90.7 L 145.0 88.25 L 145.0 23.581818199157716 L 144.50423727035522 23.744067764282228 L 143.0 29.4 L 140.4 38.6 L 137.7 47.7 L 134.8 56.5 L 131.8 65.1 L 130.9731237411499 67.34056797027588 L 134.6 68.0 L 137.4 70.0 L 134.6 71.75 L 134.6 160.3 L 123.6 165.8 L 123.6 85.58571424484253 L 121.8 89.7 L 118.0 97.4 L 114.0 104.7 L 112.3 104.1 L 114.5 96.0 L 116.8 87.8 L 119.1 79.5 L 121.4 71.1 L 123.7 62.6 L 125.9 53.9 L 128.0 45.0 L 130.0 36.0 L 132.0 26.8 L 133.62692308425903 18.303846168518067 L 133.6 18.3 L 134.2 15.6 L 145.5 20.0 L 145.72245759963988 20.231355953216553 L 156.0 22.1 L 158.7 24.1 L 156.0 25.823404216766356 L 156.0 78.7 L 157.0 77.7 L 160.7 73.5 L 164.4 69.0 L 168.0 64.0 L 171.5 58.6 L 174.48948469161988 53.645996761322024 L 174.4 53.6 L 175.5 51.9 L 185.1 59.1 L 186.6 62.4 L 182.8354344367981 62.33509368896485 L 180.9 65.1 L 176.5 70.5 L 172.0 75.5 L 167.4 80.0 L 162.7 84.0 L 157.9 87.4 L 156.0 88.52448978424073 L 156.0 141.2 L 156.1 142.4 L 156.3 143.4 L 156.8 144.4 L 157.0 144.6 L 157.3 144.7 L 157.7 144.9 L 158.3 145.0 L 159.2 145.1 L 160.5 145.2 L 175.4 145.2 L 181.4 120.2 L 183.4 120.2 L 181.4 145.2 L 185.0 147.6 L 187.4 151.2 L 185.0 154.7 L 181.4 157.2 L 160.5 157.2 Z M 70.2 78.4 L 70.2 106.7 L 80.5 106.7 L 80.5 78.4 Z M 90.5 78.4 L 90.5 106.7 L 99.5 106.7 L 99.5 78.4 Z M 31.9 76.1 L 30.5 74.1 L 29.0 72.0 L 27.4 70.0 L 25.7 67.9 L 23.8 65.9 L 21.8 63.8 L 19.4 62.2 L 20.2 60.6 L 23.0 61.7 L 25.9 62.5 L 28.7 63.6 L 31.4 64.9 L 34.0 66.4 L 36.5 68.0 L 38.9 69.8 L 41.1 71.8 L 43.3 73.9 L 45.4 76.2 L 46.1 80.7 L 43.6 84.5 L 39.1 85.2 L 35.3 82.7 L 34.3 80.5 Z M 78.0 40.1 L 78.0 54.0 L 93.7 54.0 L 93.7 40.1 Z M 38.7 42.2 L 37.8 39.9 L 36.7 37.6 L 35.5 35.4 L 34.2 33.1 L 32.7 30.9 L 31.1 28.6 L 29.4 26.2 L 27.3 24.3 L 28.3 22.8 L 30.9 24.3 L 33.7 25.5 L 36.3 27.0 L 38.8 28.7 L 41.2 30.5 L 43.4 32.4 L 45.5 34.5 L 47.5 36.8 L 49.4 39.2 L 51.1 41.7 L 51.3 46.3 L 48.2 49.7 L 43.7 49.8 L 40.2 46.8 L 39.5 44.5 Z " />
</g>
</svg>
