<svg xmlns="http://www.w3.org/2000/svg" xmlns:xlink="http://www.w3.org/1999/xlink" version="1.1" baseProfile="full" viewBox="0 0 200 200" width="200" height="200">
<g fill="black">
<path d="M 15.9 145.9 L 21.7 144.4 L 27.9 142.9 L 34.3 141.3 L 41.1 139.7 L 48.2 138.1 L 49.8 137.7324324607849 L 49.8 106.0 L 34.2 106.0 L 26.2 114.0 L 16.2 104.0 L 23.22853555679321 98.14288711547852 L 33.02797498703003 50.0 L 13.0 50.0 L 13.0 46.0 L 33.84217119216919 46.0 L 40.6 12.8 L 51.9 17.1 L 54.5 19.7 L 51.18427562713623 20.63841257095337 L 46.05431814193726 46.0 L 65.1 46.0 L 75.1 36.0 L 87.1 46.0 L 87.1 50.0 L 45.24522724151611 50.0 L 34.72704544067383 102.0 L 49.8 102.0 L 49.8 67.0 L 61.8 69.0 L 64.8 71.0 L 61.8 72.8 L 61.8 102.0 L 66.1 102.0 L 76.1 92.0 L 88.1 102.0 L 88.1 106.0 L 61.8 106.0 L 61.8 135.03116884231568 L 63.3 134.7 L 71.4 133.0 L 79.9 131.5 L 88.8 130.1 L 89.2 131.8 L 80.9 135.1 L 72.9 138.2 L 65.1 141.0 L 61.8 142.20405406951903 L 61.8 183.0 L 49.8 189.0 L 49.8 146.4470588684082 L 43.7 148.6 L 37.2 150.9 L 31.0 153.2 L 25.1 155.3 L 23.46548147201538 155.9240888595581 L 22.4 159.6 L 19.6 157.4 L 14.0 146.5 Z M 137.6 18.8 L 139.2 22.1 L 134.90476188659667 22.1 L 134.0 23.1 L 132.1 25.3 L 130.0 27.5 L 127.9 29.6 L 123.3 34.0 L 120.8 36.1 L 118.1 38.2 L 117.23043479919434 39.0 L 165.0 39.0 L 171.0 34.0 L 182.0 43.0 L 177.0 47.0 L 177.0 109.0 L 165.0 115.0 L 165.0 103.0 L 136.2768292427063 103.0 L 134.5 107.7 L 130.7 115.3 L 126.2 122.5 L 120.9 129.0 L 114.8 134.9 L 108.0 140.2 L 105.0 142.0 L 137.0 142.0 L 137.0 108.0 L 149.0 110.0 L 152.0 112.0 L 149.0 113.8 L 149.0 142.0 L 166.0 142.0 L 176.0 132.0 L 188.0 142.0 L 188.0 146.0 L 149.0 146.0 L 149.0 182.0 L 137.0 188.0 L 137.0 146.0 L 83.0 146.0 L 83.0 142.0 L 100.66101694107056 142.0 L 105.6 137.3 L 111.0 131.2 L 115.7 124.9 L 119.8 118.4 L 123.2 111.6 L 125.8 104.4 L 126.19200000762939 103.0 L 107.0 103.0 L 107.0 115.0 L 95.0 121.0 L 95.0 33.0 L 107.0 39.0 L 114.54827585220337 39.0 L 116.1 36.5 L 120.4 27.9 L 121.8 25.2 L 124.2 20.0 L 125.3 17.5 L 126.3 15.1 L 126.89018039703369 13.742585182189941 L 126.8 13.7 L 127.8 11.9 Z M 107.0 73.0 L 107.0 99.0 L 127.31199998855591 99.0 L 127.9 96.9 L 129.2 89.0 L 129.9 80.7 L 129.9885057449341 73.0 Z M 141.9270833015442 73.0 L 141.3 81.6 L 139.8 90.8 L 137.7264368057251 99.0 L 165.0 99.0 L 165.0 73.0 Z M 107.0 43.0 L 107.0 69.0 L 130.0 69.0 L 130.0 43.0 Z M 142.0 43.0 L 142.0 69.0 L 165.0 69.0 L 165.0 43.0 Z " />
</g>
</svg>
