<svg xmlns="http://www.w3.org/2000/svg" xmlns:xlink="http://www.w3.org/1999/xlink" version="1.1" baseProfile="full" viewBox="0 0 200 200" width="200" height="200">
<g fill="black">
<path d="M 88.7 106.0 L 103.7 106.0 L 109.2 101.0 L 119.7 110.0 L 114.7 113.5 L 114.7 133.0 L 103.7 138.5 L 103.7 133.0 L 88.7 133.0 L 88.7 145.5 L 105.8 145.5 L 110.8 140.5 L 120.8 149.5 L 115.8 152.5 L 115.8 178.0 L 105.8 183.0 L 105.8 174.0 L 88.7 174.0 L 88.7 181.0 L 76.7 187.0 L 76.7 100.0 Z M 61.9 48.7 L 60.7 46.3 L 59.4 43.8 L 57.8 41.3 L 56.0 38.7 L 54.0 36.1 L 51.7 33.5 L 49.3 30.7 L 48.29166669845581 29.83074712753296 L 46.8 34.1 L 43.6 42.1 L 40.2 50.0 L 36.6 57.7 L 32.6 65.1 L 30.356164360046385 69.0 L 51.31818180084228 69.0 L 59.5 60.0 L 69.5 69.0 L 69.5 73.0 L 52.0 73.0 L 52.0 101.0 L 55.418181800842284 101.0 L 63.6 92.0 L 73.6 101.0 L 73.6 105.0 L 52.0 105.0 L 52.0 161.41428575515747 L 54.5 160.7 L 60.2 159.1 L 66.0 157.6 L 71.9 156.1 L 72.6 157.8 L 67.5 161.1 L 62.2 164.1 L 56.9 166.8 L 51.6 169.4 L 46.2 171.9 L 40.7 174.2 L 35.3 176.4 L 29.9 178.5 L 24.4 180.5 L 22.893061447143555 181.05812540054322 L 21.7 184.8 L 19.0 182.5 L 13.8 171.4 L 15.7 170.9 L 26.7 168.3 L 32.2 166.9 L 37.7 165.4 L 40.0 164.78392858505248 L 40.0 105.0 L 17.8 105.0 L 17.8 101.0 L 40.0 101.0 L 40.0 73.0 L 30.2 73.0 L 30.2 69.27142858505249 L 28.4 72.4 L 23.9 79.4 L 19.0 86.1 L 13.7 92.5 L 12.2 91.4 L 15.7 84.1 L 19.2 76.7 L 22.6 69.3 L 25.8 61.8 L 28.8 54.2 L 31.6 46.5 L 34.2 38.7 L 36.6 30.7 L 38.7 22.7 L 40.45673837661743 15.409535884857178 L 40.4 15.4 L 41.1 12.7 L 52.3 17.4 L 54.7 20.1 L 51.12871894836426 21.18413887023926 L 49.7 25.8 L 49.075598049163816 27.587081336975096 L 50.8 28.5 L 54.3 30.1 L 57.6 31.9 L 60.6 33.9 L 63.4 36.0 L 66.1 38.3 L 68.5 40.7 L 70.7 43.3 L 72.7 46.0 L 74.5 48.8 L 74.5 53.4 L 71.4 56.7 L 66.8 56.7 L 63.5 53.6 L 62.8 51.2 Z M 88.7 149.5 L 88.7 170.0 L 105.8 170.0 L 105.8 149.5 Z M 25.4 145.3 L 25.2 142.2 L 24.8 139.3 L 24.3 136.3 L 23.6 133.3 L 22.7 130.3 L 21.7 127.3 L 20.6 124.2 L 19.0 121.3 L 20.5 120.2 L 25.4 125.1 L 27.6 127.7 L 29.6 130.5 L 31.5 133.5 L 33.1 136.7 L 34.4 139.9 L 35.6 143.4 L 36.6 146.9 L 37.3 150.5 L 35.8 154.9 L 31.8 156.9 L 27.4 155.4 L 25.4 151.4 L 25.5 148.3 Z M 72.2 121.6 L 74.5 124.4 L 70.51000003814697 125.38000001907349 L 69.4 127.6 L 68.0 130.6 L 64.8 136.6 L 63.0 139.6 L 61.2 142.5 L 59.2 145.5 L 57.1 148.3 L 55.1 151.3 L 53.5 150.6 L 54.5 147.2 L 55.3 143.7 L 56.0 140.3 L 56.8 137.0 L 57.5 133.8 L 58.3 130.6 L 58.9 127.4 L 59.6 124.3 L 60.2 121.2 L 60.544884014129636 119.13069572448731 L 60.4 119.1 L 61.2 116.6 Z M 88.7 110.0 L 88.7 129.0 L 103.7 129.0 L 103.7 110.0 Z M 186.5 108.5 L 186.5 112.5 L 158.6 112.5 L 158.6 127.0 L 170.7 127.0 L 176.7 122.0 L 187.7 131.0 L 182.7 135.0 L 182.7 161.5 L 182.6 164.0 L 182.1 166.5 L 181.3 168.9 L 180.1 171.2 L 178.5 173.2 L 176.5 174.8 L 174.2 176.1 L 171.8 176.9 L 169.3 177.3 L 166.7 177.5 L 166.7 171.5 L 158.7 168.5 L 158.7 165.5 L 166.7 165.5 L 168.0 165.4 L 168.9 165.2 L 169.8 164.9 L 170.0 164.7 L 170.1 164.5 L 170.3 164.2 L 170.5 163.6 L 170.7 162.7 L 170.7 131.0 L 158.6 131.0 L 158.6 182.5 L 146.6 188.5 L 146.6 131.0 L 133.1 131.0 L 133.1 170.7 L 124.1 175.2 L 124.1 122.5 L 133.1 127.0 L 146.6 127.0 L 146.6 112.5 L 120.1 112.5 L 120.1 108.5 L 164.5 108.5 L 174.01282052993776 98.98717947006226 L 169.8 97.9 L 164.0 95.7 L 158.7 92.9 L 154.0 89.4 L 153.20057754516603 88.61961145401001 L 151.0 90.1 L 145.2 93.2 L 139.1 95.5 L 132.8 97.1 L 126.1 97.8 L 125.8 96.1 L 131.6 93.5 L 137.0 90.6 L 142.0 87.5 L 146.6 83.9 L 147.83075103759765 82.78373746871948 L 146.2 80.7 L 143.2 75.5 L 140.9 69.9 L 139.2 63.8 L 138.40909090042115 58.0 L 130.0 58.0 L 130.0 54.0 L 167.0 54.0 L 167.44444446563722 53.629629611968994 L 167.5 53.5 L 167.5649582862854 53.529201412200926 L 173.0 49.0 L 184.0 58.0 L 179.0 61.0 L 176.46415090560913 62.056603813171385 L 174.8 65.2 L 170.8 71.4 L 166.4 77.0 L 161.63829784393312 81.96010637283325 L 164.0 83.2 L 168.3 84.7 L 172.9 85.8 L 177.9 86.4 L 187.9 87.8 L 176.0 99.5 L 175.56542053222657 99.38785047531128 Z M 90.2 17.7 L 107.2 17.7 L 113.2 12.7 L 124.2 21.7 L 119.2 25.7 L 119.2 47.1 L 107.2 53.1 L 107.2 47.1 L 90.2 47.1 L 90.2 60.8 L 110.2 60.8 L 116.2 55.8 L 127.2 64.8 L 122.2 68.8 L 122.2 91.7 L 110.2 97.7 L 110.2 91.7 L 90.2 91.7 L 78.2 97.7 L 78.2 11.7 Z M 90.2 64.8 L 90.2 87.7 L 110.2 87.7 L 110.2 64.8 Z M 140.7964285850525 58.0 L 143.1 62.3 L 146.2 67.3 L 149.3 71.7 L 152.7 75.4 L 153.95789098739624 76.5500717163086 L 154.8 75.6 L 158.5 70.8 L 161.8 65.6 L 164.8 59.8 L 165.5714285850525 58.0 Z M 186.0 22.0 L 181.0 26.0 L 181.0 42.0 L 169.0 48.0 L 169.0 42.0 L 130.0 42.0 L 130.0 38.0 L 169.0 38.0 L 169.0 22.0 L 130.0 22.0 L 130.0 18.0 L 169.0 18.0 L 175.0 13.0 Z M 90.2 21.7 L 90.2 43.1 L 107.2 43.1 L 107.2 21.7 Z " />
</g>
</svg>
