<svg xmlns="http://www.w3.org/2000/svg" xmlns:xlink="http://www.w3.org/1999/xlink" version="1.1" baseProfile="full" viewBox="0 0 200 200" width="200" height="200">
<g fill="black">
<path d="M 133.4 185.8 L 130.9 185.4 L 128.5 184.6 L 126.2 183.3 L 124.2 181.7 L 122.6 179.7 L 121.3 177.4 L 120.5 175.0 L 120.1 172.5 L 120.0 170.0 L 120.0 132.24020614624024 L 86.4 140.9 L 85.5 137.0 L 120.0 128.10824737548828 L 120.0 86.68028173446655 L 113.9 89.0 L 106.6 91.7 L 99.1 94.3 L 91.3 96.8 L 90.6 95.1 L 97.5 90.9 L 104.4 86.8 L 111.2 83.1 L 117.9 79.4 L 120.0 78.28636360168457 L 120.0 78.0 L 120.53999996185303 78.0 L 124.5 75.9 L 130.9 72.5 L 137.3 69.3 L 143.5 66.0 L 149.6 62.9 L 154.72164182662965 60.3391791343689 L 154.7 60.3 L 154.73529415130616 60.33235292434692 L 155.6 59.9 L 156.53667097091676 61.98361511230469 L 164.3 69.1 L 164.5 72.3 L 160.67532787322997 70.72156391143798 L 160.5 70.8 L 154.3 73.3 L 147.9 75.8 L 141.4 78.4 L 134.8 81.0 L 132.0 82.11176471710205 L 132.0 125.01546392440795 L 161.1054112434387 117.51406927108765 L 168.3 105.3 L 182.5 112.0 L 183.4 115.9 L 132.0 129.14742269515992 L 132.0 171.2 L 132.2 172.1 L 132.5 173.0 L 132.9 173.4 L 133.8 173.7 L 134.7 173.9 L 136.0 174.0 L 177.0 174.0 L 183.0 149.0 L 185.0 149.0 L 183.0 174.0 L 186.6 176.4 L 189.0 180.0 L 186.6 183.6 L 183.0 186.0 L 136.0 186.0 Z M 79.2 73.0 L 79.2 77.0 L 53.8 77.0 L 53.8 111.0 L 61.3 111.0 L 71.3 101.0 L 83.3 111.0 L 83.3 115.0 L 53.8 115.0 L 53.8 157.5484848022461 L 56.4 155.5 L 59.9 152.7 L 63.5 149.9 L 67.2 147.1 L 71.1 144.1 L 75.2 141.3 L 79.4 138.3 L 80.7 139.6 L 77.6 143.7 L 74.6 147.8 L 71.5 151.5 L 68.5 155.2 L 65.6 158.7 L 62.7 162.0 L 59.9 165.3 L 57.2 168.4 L 54.5 171.4 L 52.0 174.3 L 51.75588235855103 174.04411764144896 L 45.8 180.0 L 35.8 170.0 L 41.8 164.0 L 41.8 115.0 L 14.0 115.0 L 14.0 111.0 L 41.8 111.0 L 41.8 77.0 L 29.3 77.0 L 29.3 73.0 L 61.018181800842285 73.0 L 69.2 64.0 Z M 51.7 17.5 L 54.1 20.2 L 50.48461542129517 21.23296699523926 L 48.9 26.1 L 45.9 34.5 L 42.7 42.7 L 42.56708860397339 43.0 L 64.31818180084228 43.0 L 72.5 34.0 L 82.5 43.0 L 82.5 47.0 L 40.79493675231934 47.0 L 39.2 50.6 L 35.6 58.4 L 31.6 65.9 L 27.5 73.2 L 23.1 80.3 L 18.3 87.0 L 13.2 93.4 L 11.7 92.5 L 15.0 85.1 L 18.4 77.7 L 24.8 62.7 L 27.8 55.0 L 30.6 47.2 L 33.3 39.2 L 35.8 31.1 L 38.1 22.8 L 39.95060997009277 15.309435749053955 L 39.9 15.3 L 40.6 12.7 Z M 86.9 74.9 L 85.0 70.8 L 86.4 66.4 L 87.4 65.6 L 88.6 64.1 L 89.8 62.0 L 90.9 59.3 L 92.0 56.0 L 93.1 52.2 L 94.0 47.9 L 94.9 43.0 L 95.8 37.6 L 96.4 31.7 L 98.2 31.7 L 98.9 37.6 L 99.4 41.6 L 172.5 41.6 L 178.5 36.6 L 189.5 45.6 L 184.5 48.6 L 181.78151655197144 49.73270139694214 L 180.5 52.0 L 179.1 54.4 L 175.9 59.6 L 174.1 62.3 L 172.2 65.2 L 170.0 68.1 L 168.1 71.3 L 166.5 70.5 L 167.6 67.0 L 168.4 63.5 L 169.1 60.2 L 169.9 57.1 L 170.5 54.1 L 171.1 51.3 L 171.7 48.6 L 172.2 45.6 L 99.74117650985718 45.6 L 99.9 48.3 L 100.0 53.0 L 99.9 57.4 L 99.6 61.4 L 99.0 65.0 L 98.2 68.4 L 97.0 71.5 L 95.4 74.3 L 91.3 76.3 Z M 133.2 29.4 L 132.7 27.3 L 132.1 25.1 L 131.4 23.0 L 130.6 20.9 L 129.7 18.8 L 128.7 16.6 L 127.6 14.5 L 126.1 12.7 L 127.2 11.3 L 129.3 12.8 L 131.5 14.0 L 133.7 15.5 L 135.7 17.2 L 137.6 19.0 L 139.4 21.0 L 141.1 23.2 L 142.6 25.5 L 144.0 27.9 L 145.3 30.5 L 144.8 35.1 L 141.3 38.0 L 136.7 37.4 L 133.8 33.9 L 133.5 31.7 Z " />
</g>
</svg>
