<svg xmlns="http://www.w3.org/2000/svg" xmlns:xlink="http://www.w3.org/1999/xlink" version="1.1" baseProfile="full" viewBox="0 0 200 200" width="200" height="200">
<g fill="black">
<path d="M 139.7 83.4 L 140.4 80.2 L 141.1 77.1 L 141.9 74.1 L 142.6 71.1 L 143.3 68.3 L 144.7 62.9 L 145.2 60.3 L 145.55880517959594 58.74517736434937 L 145.4 58.7 L 146.3 56.4 L 157.0 62.0 L 159.1 65.0 L 154.86009855270385 65.74384241104126 L 152.7 69.2 L 151.2 71.7 L 149.6 74.2 L 146.0 79.4 L 144.1 82.0 L 142.0 84.5 L 141.6785714149475 85.0 L 159.5 85.0 L 169.5 75.0 L 181.5 85.0 L 181.5 89.0 L 149.5 89.0 L 149.5 114.0 L 157.0 114.0 L 167.0 104.0 L 179.0 114.0 L 179.0 118.0 L 149.5 118.0 L 149.5 142.0 L 157.0 142.0 L 167.0 132.0 L 179.0 142.0 L 179.0 146.0 L 149.5 146.0 L 149.5 171.0 L 165.2 171.0 L 175.2 161.0 L 187.2 171.0 L 187.2 175.0 L 119.8 175.0 L 119.8 182.0 L 107.8 188.0 L 107.8 98.71940298080445 L 101.9 105.5 L 94.7 112.5 L 93.3 111.4 L 98.9 103.1 L 104.2 94.7 L 107.8 88.43599996566772 L 107.8 85.0 L 109.71648349761963 85.0 L 113.9 76.9 L 118.2 67.4 L 122.1 57.5 L 125.7 47.2 L 126.3518518447876 45.0 L 110.22045450210571 45.0 L 110.5 49.1 L 110.4 53.3 L 110.0 57.3 L 109.3 61.1 L 108.1 64.6 L 106.6 67.9 L 104.5 70.9 L 100.3 72.7 L 96.0 71.1 L 94.3 66.9 L 95.9 62.6 L 97.4 61.4 L 98.8 59.7 L 100.2 57.6 L 101.5 55.0 L 102.6 52.0 L 103.6 48.5 L 104.4 44.5 L 105.0 40.1 L 105.5 35.3 L 105.6 30.0 L 107.4 29.8 L 108.5 35.1 L 109.5 40.0 L 109.64893617630005 41.0 L 127.53703699111938 41.0 L 128.9 36.4 L 131.7 25.3 L 133.91342277526854 14.601789665222167 L 133.9 14.6 L 134.5 11.8 L 145.9 16.2 L 148.4 18.8 L 144.8796565055847 19.99440221786499 L 142.7 28.1 L 139.1 39.6 L 138.59090909957885 41.0 L 172.2 41.0 L 172.74838705062865 40.54301071166992 L 173.0 39.9 L 173.30397272109985 40.080022716522215 L 178.2 36.0 L 189.2 45.0 L 184.2 48.0 L 180.22064514160155 49.65806455612183 L 180.1 49.8 L 178.4 51.9 L 176.5 54.0 L 174.6 56.2 L 172.5 58.5 L 170.3 60.9 L 168.0 63.3 L 165.5 65.7 L 163.2 68.4 L 161.7 67.5 L 163.3 64.3 L 164.5 61.0 L 165.8 57.9 L 167.0 55.0 L 168.1 52.2 L 169.2 49.5 L 170.3 46.9 L 171.0125 45.0 L 137.13636360168456 45.0 L 135.1 50.6 L 130.7 61.0 L 125.8 71.0 L 120.5 80.5 L 117.61797752380372 85.0 L 139.15 85.0 Z M 77.5 178.5 L 75.8 180.2 L 73.9 181.7 L 71.9 183.0 L 69.7 184.1 L 67.4 184.9 L 65.1 185.5 L 62.6 185.8 L 60.2 186.0 L 60.2 180.0 L 44.2 177.0 L 44.2 174.0 L 60.2 174.0 L 61.6 173.9 L 62.8 173.7 L 64.0 173.4 L 65.0 173.1 L 66.0 172.6 L 66.9 172.0 L 67.7 171.3 L 68.6 170.5 L 69.4 169.5 L 70.2 168.3 L 71.6 165.5 L 72.9 162.1 L 74.1 158.1 L 75.2 153.5 L 76.1 148.2 L 76.8 142.3 L 77.3 135.9 L 77.6 128.9 L 77.7 121.3 L 77.7 115.0 L 41.106976699829104 115.0 L 40.2 116.3 L 37.1 120.6 L 33.7 124.9 L 30.0 129.1 L 29.907985496520997 129.2014518737793 L 34.3 130.0 L 37.0 132.0 L 34.3 133.72340421676637 L 34.3 152.0 L 41.79344263076782 152.0 L 42.0 151.3 L 43.3 144.6 L 44.0 137.5 L 44.1 130.0 L 44.1 120.0 L 53.1 122.0 L 55.3 124.0 L 53.1 125.57142858505249 L 53.1 130.0 L 52.5 138.3 L 51.2 146.1 L 49.56111106872559 152.0 L 60.7 152.0 L 60.7 128.0 L 70.7 130.0 L 73.2 132.0 L 70.7 133.6666666984558 L 70.7 156.0 L 60.7 161.0 L 60.7 156.0 L 48.16764707565308 156.0 L 46.6 160.1 L 43.2 166.3 L 39.2 171.9 L 34.4 176.8 L 29.1 181.1 L 23.1 184.7 L 16.4 187.6 L 15.9 186.3 L 21.5 182.3 L 26.5 178.0 L 30.9 173.4 L 34.6 168.4 L 37.7 163.1 L 40.2 157.4 L 40.613114738464354 156.0 L 34.3 156.0 L 34.3 159.0 L 23.3 164.5 L 23.3 136.2 L 21.9 137.6 L 17.3 141.6 L 12.3 145.6 L 11.0 144.3 L 14.4 139.1 L 17.8 134.1 L 21.0 129.3 L 24.0 124.6 L 26.8 120.0 L 29.3 115.5 L 31.7 111.1 L 33.8 106.8 L 35.6 102.5 L 36.923395442962644 99.30828161239624 L 36.9 99.3 L 37.8 97.2 L 48.2 103.3 L 50.1 106.4 L 46.256040287017825 106.86392621994018 L 45.8 107.7 L 43.80465116500854 111.0 L 77.7 111.0 L 83.7 106.0 L 94.7 115.0 L 89.7 118.0 L 89.66136589050294 118.01609754562378 L 89.7 121.3 L 89.6 129.2 L 89.3 136.6 L 88.7 143.5 L 88.0 149.9 L 87.0 155.8 L 85.7 161.2 L 84.3 166.1 L 82.5 170.5 L 80.4 174.5 L 79.1 176.5 Z M 119.8 146.0 L 119.8 171.0 L 137.5 171.0 L 137.5 146.0 Z M 119.8 118.0 L 119.8 142.0 L 137.5 142.0 L 137.5 118.0 Z M 119.8 89.0 L 119.8 114.0 L 137.5 114.0 L 137.5 89.0 Z M 79.9 94.5 L 78.4 96.5 L 76.6 98.2 L 74.6 99.7 L 72.5 100.9 L 70.2 101.8 L 67.8 102.5 L 65.4 102.8 L 62.9 103.0 L 62.9 97.0 L 44.9 94.0 L 44.9 91.0 L 62.9 91.0 L 64.2 90.9 L 65.4 90.7 L 66.4 90.4 L 67.3 90.1 L 68.7 89.1 L 69.4 88.4 L 70.1 87.6 L 70.7 86.6 L 71.3 85.4 L 72.2 82.9 L 73.1 79.7 L 73.9 75.9 L 74.7 71.5 L 75.3 66.5 L 75.8 60.9 L 76.2 54.8 L 76.5 48.1 L 76.7 40.8 L 76.77435894012451 35.0 L 40.35918369293213 35.0 L 38.4 38.0 L 35.0 42.9 L 31.569858741760253 47.50361070632935 L 34.3 48.0 L 37.0 50.0 L 34.3 51.723404216766355 L 34.3 69.0 L 42.38181819915771 69.0 L 43.2 65.4 L 43.9 58.3 L 44.1 51.0 L 44.1 40.0 L 53.1 42.0 L 55.3 44.0 L 53.1 45.57142858505249 L 53.1 51.0 L 52.4 59.2 L 51.1 66.9 L 50.475675678253175 69.0 L 60.7 69.0 L 60.7 46.0 L 70.7 48.0 L 73.2 50.0 L 70.7 51.66666669845581 L 70.7 75.0 L 60.7 80.0 L 60.7 73.0 L 49.286486530303954 73.0 L 48.9 74.3 L 46.0 81.2 L 42.3 87.6 L 37.8 93.5 L 32.7 98.9 L 26.8 103.7 L 20.2 107.9 L 12.9 111.5 L 12.2 110.4 L 18.6 105.6 L 24.2 100.6 L 29.1 95.4 L 33.3 90.0 L 36.8 84.3 L 39.6 78.3 L 41.36666669845581 73.0 L 34.3 73.0 L 34.3 80.0 L 23.3 85.5 L 23.3 57.38863639831543 L 22.6 58.2 L 17.7 63.4 L 12.4 68.5 L 10.9 67.4 L 14.7 61.1 L 18.3 55.0 L 21.7 49.3 L 23.3 46.55 L 23.3 46.0 L 23.589387130737304 46.05261583328247 L 24.9 43.8 L 27.8 38.4 L 30.4 33.3 L 32.8 28.4 L 34.8 23.6 L 36.6 19.1 L 37.78449106216431 15.62549295425415 L 37.7 15.6 L 38.6 13.3 L 49.3 19.1 L 51.3 22.0 L 47.5182692527771 22.6634614944458 L 47.0 23.7 L 44.5 28.4 L 42.895744705200194 31.0 L 76.8 31.0 L 82.8 26.0 L 93.8 35.0 L 88.8 38.0 L 88.73717279434204 38.026177978515626 L 88.7 41.0 L 88.5 48.5 L 88.2 55.4 L 87.8 61.9 L 87.2 67.8 L 86.5 73.2 L 85.7 78.1 L 84.8 82.6 L 83.6 86.6 L 82.3 90.1 L 81.2 92.4 Z " />
</g>
</svg>
