<svg xmlns="http://www.w3.org/2000/svg" xmlns:xlink="http://www.w3.org/1999/xlink" version="1.1" baseProfile="full" viewBox="0 0 200 200" width="200" height="200">
<g fill="black">
<path d="M 140.0 156.7 L 140.0 143.0 L 60.0 143.0 L 60.0 153.0 L 59.49830513000488 156.7 Z M 89.0 123.2 L 75.4 126.5 L 61.0 129.2 L 51.41538457870483 130.5692307472229 L 60.0 132.0 L 63.0 134.0 L 60.0 135.8 L 60.0 139.0 L 140.0 139.0 L 140.0 130.24375 L 129.1 128.2 L 115.7 125.0 L 103.3 121.2 L 99.73838539123535 119.87621402740479 Z M 67.0 97.5 L 75.5 101.7 L 84.7 105.6 L 94.9 109.1 L 98.9965926170349 110.28099966049194 L 109.0 105.7 L 118.8 100.3 L 126.73684206008912 95.1 L 62.8 95.1 Z M 168.0 72.0 L 168.0 76.0 L 116.0 76.0 L 116.0 72.0 L 149.8181818008423 72.0 L 158.0 63.0 Z M 84.0 72.0 L 84.0 76.0 L 32.0 76.0 L 32.0 72.0 L 65.81818180084228 72.0 L 74.0 63.0 Z M 14.5 65.3 L 13.6 60.8 L 16.0 56.9 L 17.8 56.0 L 19.5 54.8 L 21.2 53.3 L 22.7 51.3 L 24.2 48.9 L 25.5 46.1 L 26.7 42.9 L 27.7 39.2 L 28.7 35.2 L 29.1 30.7 L 30.9 30.6 L 31.4 35.2 L 31.679069805145264 37.2 L 94.0 37.2 L 94.0 24.7 L 34.0 24.7 L 34.0 20.7 L 151.8181818008423 20.7 L 160.0 11.7 L 170.0 20.7 L 170.0 24.7 L 106.0 24.7 L 106.0 37.2 L 171.0 37.2 L 171.5195876121521 36.76701030731201 L 171.7 36.2 L 171.99661016464233 36.369491481781004 L 177.0 32.2 L 188.0 41.2 L 183.0 44.2 L 179.01398601531983 45.860839176177976 L 178.8 46.1 L 177.0 47.9 L 175.3 49.7 L 173.4 51.4 L 169.6 54.6 L 167.5 56.1 L 165.4 57.4 L 163.6 59.0 L 162.3 57.8 L 163.7 55.8 L 164.6 53.6 L 165.6 51.4 L 166.5 49.2 L 167.5 47.1 L 168.4 44.9 L 169.3 42.8 L 169.88181819915772 41.2 L 106.0 41.2 L 106.0 67.6 L 94.0 73.6 L 94.0 41.2 L 32.08095235824585 41.2 L 32.2 43.7 L 32.0 47.6 L 31.5 51.4 L 30.6 54.9 L 29.3 58.3 L 27.6 61.4 L 25.4 64.3 L 22.8 66.9 L 18.3 67.7 Z M 161.0 54.6 L 161.0 58.6 L 116.0 58.6 L 116.0 54.6 L 142.8181818008423 54.6 L 151.0 45.6 Z M 84.0 54.6 L 84.0 58.6 L 37.0 58.6 L 37.0 54.6 L 65.81818180084228 54.6 L 74.0 45.6 Z M 152.311203289032 132.2074688911438 L 155.0 134.0 L 152.0 135.8 L 152.0 182.1 L 140.0 188.1 L 140.0 160.7 L 58.61090908050537 160.7 L 57.4 164.4 L 54.7 169.4 L 51.1 173.8 L 46.7 177.5 L 41.5 180.6 L 35.7 183.2 L 29.2 185.2 L 22.0 186.5 L 14.1 187.3 L 13.8 185.5 L 21.1 182.9 L 27.5 180.1 L 33.0 177.2 L 37.6 174.2 L 41.2 171.0 L 44.0 167.7 L 46.0 164.3 L 47.3 160.8 L 47.9 157.0 L 48.0 153.0 L 48.0 131.057142829895 L 45.6 131.4 L 29.3 132.8 L 12.0 133.5 L 11.9 131.7 L 28.8 129.0 L 44.8 126.1 L 59.7 122.8 L 73.6 119.1 L 86.4 115.1 L 87.24071712493897 114.78208179473877 L 81.7 112.2 L 72.6 106.9 L 64.7 101.0 L 58.8 95.1 L 19.0 95.1 L 19.0 91.1 L 94.0 91.1 L 94.0 75.3 L 106.0 77.3 L 109.0 79.3 L 106.0 81.1 L 106.0 91.1 L 162.8181818008423 91.1 L 171.0 82.1 L 181.0 91.1 L 181.0 95.1 L 146.41739130020142 95.1 L 142.8 97.7 L 133.9 104.0 L 124.0 109.7 L 114.46215143203736 114.20398406982422 L 118.0 115.0 L 131.1 117.3 L 145.2 119.3 L 160.3 120.7 L 176.4 121.8 L 187.4 122.6 L 175.5 135.0 L 159.0 133.2 Z " />
</g>
</svg>
