<svg xmlns="http://www.w3.org/2000/svg" xmlns:xlink="http://www.w3.org/1999/xlink" version="1.1" baseProfile="full" viewBox="0 0 200 200" width="200" height="200">
<g fill="black">
<path d="M 102.4 176.3 L 122.4 176.3 L 123.6 176.2 L 124.5 176.0 L 125.1 175.9 L 125.5 175.7 L 125.7 175.5 L 125.8 175.3 L 126.0 175.0 L 126.2 174.4 L 126.3 173.5 L 126.4 172.3 L 126.4 131.3 L 81.1 131.3 L 81.1 127.3 L 161.7 127.3 L 171.7 117.3 L 183.7 127.3 L 183.7 131.3 L 138.4 131.3 L 138.4 172.3 L 138.3 174.8 L 137.8 177.3 L 137.0 179.7 L 135.8 182.0 L 134.1 184.0 L 132.1 185.7 L 129.9 186.9 L 127.5 187.7 L 125.0 188.1 L 122.4 188.3 L 122.4 182.3 L 102.4 179.3 Z M 115.3 147.1 L 117.2 150.1 L 113.36217193603515 150.63864250183104 L 113.0 151.3 L 110.5 155.4 L 107.7 159.4 L 104.7 163.3 L 101.5 167.1 L 98.1 170.7 L 94.4 174.3 L 90.5 177.6 L 86.3 180.8 L 81.8 183.8 L 80.5 182.5 L 83.7 178.2 L 86.7 174.0 L 89.6 170.0 L 92.3 166.0 L 94.8 162.0 L 97.1 158.1 L 99.2 154.1 L 101.1 150.2 L 102.8 146.3 L 103.95539360046386 143.2189504623413 L 103.9 143.2 L 104.8 141.1 Z M 166.8 170.3 L 165.2 166.9 L 163.3 163.5 L 161.2 160.2 L 158.9 156.9 L 156.4 153.7 L 153.7 150.5 L 150.8 147.3 L 147.6 144.2 L 148.5 142.7 L 152.7 144.7 L 156.7 146.8 L 160.5 149.3 L 164.0 152.0 L 167.4 154.9 L 170.5 158.1 L 173.3 161.5 L 176.0 165.1 L 178.4 168.9 L 180.6 172.9 L 180.6 177.5 L 177.4 180.8 L 172.8 180.7 L 169.6 177.5 L 168.3 173.9 Z M 49.8 76.0 L 52.8 78.0 L 49.8 79.8 L 49.8 152.48918914794922 L 50.2 152.1 L 57.6 144.7 L 61.4 141.0 L 65.2 137.2 L 69.2 133.5 L 73.3 129.9 L 77.5 126.4 L 78.9 127.5 L 76.2 132.4 L 73.3 137.0 L 70.2 141.5 L 67.1 145.9 L 60.9 154.5 L 57.7 158.7 L 54.6 162.8 L 51.4 166.9 L 49.7818681716919 168.98791208267212 L 49.8 169.0 L 49.6777777671814 169.12222223281861 L 48.3 170.9 L 48.08698225021362 170.7130177497864 L 41.8 177.0 L 31.8 167.0 L 37.8 161.0 L 37.8 74.0 Z M 169.5 103.3 L 169.5 107.3 L 95.4 107.3 L 95.4 103.3 L 147.5 103.3 L 157.5 93.3 Z M 81.4 101.8 L 80.2 97.4 L 82.3 93.4 L 83.2 93.2 L 84.2 92.5 L 85.3 91.4 L 86.4 89.8 L 87.5 87.7 L 88.5 85.2 L 89.5 82.2 L 90.3 78.9 L 91.2 75.1 L 91.5 71.0 L 93.3 71.0 L 93.7 75.2 L 94.05897436141967 77.2 L 170.4 77.2 L 170.9777777671814 76.7185185432434 L 171.0 76.6 L 171.07685079574586 76.63595771789551 L 176.4 72.2 L 187.4 81.2 L 182.4 84.2 L 178.36721315383912 85.88032789230347 L 178.0 86.3 L 176.5 87.9 L 174.9 89.6 L 173.3 91.4 L 171.4 93.2 L 169.5 95.1 L 167.4 97.0 L 165.6 99.2 L 164.1 98.2 L 165.5 95.7 L 166.3 93.0 L 167.2 90.5 L 167.9 88.1 L 168.7 85.9 L 169.3 83.8 L 169.9 81.8 L 170.02631578445434 81.2 L 94.57027025222779 81.2 L 94.7 82.8 L 94.9 86.2 L 94.8 89.4 L 94.4 92.5 L 93.8 95.3 L 92.9 98.0 L 91.6 100.5 L 89.8 102.8 L 85.4 104.0 Z M 93.3 60.0 L 84.5625 51.2625 L 80.0 54.0 L 77.03414630889893 55.2357723236084 L 75.9 57.0 L 74.0 59.7 L 72.1 62.5 L 70.1 65.3 L 65.9 70.9 L 63.6 73.7 L 61.1 76.5 L 58.8 79.4 L 57.3 78.5 L 58.7 75.1 L 59.8 71.6 L 60.9 68.2 L 63.3 61.6 L 64.4 58.5 L 65.5 55.3 L 66.6 52.3 L 67.03333330154419 51.0 L 37.20232553482056 51.0 L 34.3 58.8 L 30.9 67.4 L 27.2 76.1 L 23.0 84.8 L 18.5 93.6 L 13.5 102.3 L 11.9 101.6 L 15.0 92.1 L 18.1 82.8 L 21.0 73.7 L 23.8 64.8 L 26.3 56.1 L 28.6 47.6 L 30.6 39.2 L 32.4 30.9 L 33.9 22.8 L 35.03690032958984 15.80369005203247 L 35.0 15.8 L 35.5 12.9 L 47.0 17.0 L 49.6 19.5 L 46.06063566207886 20.851393604278563 L 45.0 25.2 L 42.8 33.5 L 40.3 41.8 L 38.56666669845581 47.0 L 68.0 47.0 L 68.55161294937133 46.540322589874265 L 68.6 46.4 L 68.67659578323364 46.436170196533205 L 74.0 42.0 L 83.51499996185302 49.785000038146975 L 89.3 44.0 L 89.3 22.5 L 101.3 24.5 L 104.3 26.5 L 101.3 28.3 L 101.3 48.0 L 126.4 48.0 L 126.4 13.0 L 138.4 15.0 L 141.4 17.0 L 138.4 18.8 L 138.4 48.0 L 162.9 48.0 L 162.9 22.5 L 174.9 24.5 L 177.9 26.5 L 174.9 28.3 L 174.9 56.0 L 162.9 62.0 L 162.9 52.0 L 101.3 52.0 Z M 129.9 69.9 L 129.5 68.4 L 129.0 66.9 L 128.3 65.3 L 127.5 63.7 L 126.5 62.1 L 125.4 60.4 L 124.1 58.7 L 122.4 57.4 L 123.3 55.8 L 125.3 56.9 L 127.5 57.5 L 129.6 58.3 L 131.6 59.3 L 133.5 60.4 L 135.3 61.6 L 137.0 63.0 L 138.6 64.5 L 140.0 66.2 L 141.4 68.0 L 141.4 72.6 L 138.2 75.9 L 133.6 75.9 L 130.3 72.7 L 130.2 71.3 Z " />
</g>
</svg>
