<svg xmlns="http://www.w3.org/2000/svg" xmlns:xlink="http://www.w3.org/1999/xlink" version="1.1" baseProfile="full" viewBox="0 0 200 200" width="200" height="200">
<g fill="black">
<path d="M 100.9 26.0 L 156.2 26.0 L 162.2 21.0 L 173.2 30.0 L 168.2 33.0 L 168.171604347229 33.0118314743042 L 168.0 63.3 L 168.7 92.5 L 169.9 116.1 L 171.7 134.8 L 174.0 149.1 L 176.5 159.5 L 178.81059246063234 165.98743267059325 L 182.5 150.0 L 184.5 150.0 L 182.74203824996948 172.8535032272339 L 183.8 174.2 L 186.1 176.1 L 188.4 180.1 L 187.4 184.5 L 183.4 186.8 L 179.0 185.8 L 175.3 182.7 L 171.6 178.1 L 168.1 171.6 L 164.9 162.9 L 162.2 151.3 L 159.8 136.3 L 158.0 117.0 L 156.7 92.9 L 156.0 63.4 L 156.03197355270385 52.08136520385742 L 152.72220001220703 53.086117839813234 L 149.9 63.0 L 145.7 76.2 L 141.2 89.0 L 136.62939157485962 100.47315998077393 L 141.0 109.7 L 145.2 119.2 L 149.1 128.7 L 152.6 138.1 L 155.7 147.4 L 155.1 152.0 L 151.6 154.8 L 147.1 154.3 L 144.2 150.7 L 141.7 141.5 L 139.0 132.2 L 135.9 122.8 L 132.4 113.3 L 131.75236158370973 111.61964092254638 L 131.1 113.1 L 125.6 124.4 L 119.7 135.3 L 113.4 145.6 L 106.6 155.3 L 99.4 164.5 L 98.0 163.4 L 103.4 153.3 L 108.7 142.9 L 113.8 132.3 L 118.7 121.2 L 123.3 109.8 L 127.06669616699219 99.69840564727784 L 124.7 93.9 L 120.4 84.0 L 115.8 74.0 L 111.0 63.7 L 106.1 53.3 L 107.6 52.3 L 114.3 61.9 L 120.5 71.4 L 126.2 81.0 L 130.62306203842164 89.01158409118652 L 131.7 85.7 L 135.5 73.1 L 139.0 60.0 L 141.96078357696533 47.50919418334961 L 141.9 47.5 L 142.6 44.8 L 153.8 49.3 L 156.03301792144777 51.71165933609009 L 156.09435024261475 30.0 L 100.9 30.0 L 100.9 82.0 L 100.4 96.1 L 99.5 109.5 L 98.1 122.1 L 96.3 134.0 L 94.1 145.0 L 91.5 155.2 L 88.4 164.6 L 84.8 173.2 L 80.7 180.8 L 76.0 187.4 L 74.4 186.5 L 77.2 179.1 L 79.8 171.2 L 82.1 162.7 L 84.1 153.4 L 85.8 143.4 L 87.1 132.7 L 88.1 121.2 L 88.7 108.9 L 89.0 95.8 L 88.9 82.0 L 88.9 20.0 Z M 48.8 181.0 L 36.8 187.0 L 36.8 106.0 L 12.6 106.0 L 12.6 102.0 L 36.8 102.0 L 36.8 77.0 L 15.5 77.0 L 15.5 73.0 L 36.8 73.0 L 36.8 47.0 L 13.6 47.0 L 13.6 43.0 L 36.8 43.0 L 36.8 13.0 L 48.8 15.0 L 51.8 17.0 L 48.8 18.8 L 48.8 43.0 L 58.9 43.0 L 68.9 33.0 L 80.9 43.0 L 80.9 47.0 L 48.8 47.0 L 48.8 73.0 L 56.9 73.0 L 66.9 63.0 L 78.9 73.0 L 78.9 77.0 L 48.8 77.0 L 48.8 102.0 L 65.1 102.0 L 71.1 97.0 L 82.1 106.0 L 77.27275743484498 108.89634552001954 L 77.3 109.7 L 77.3 120.4 L 77.2 125.3 L 77.0 129.9 L 76.7 134.1 L 76.3 138.0 L 75.9 141.6 L 75.3 144.8 L 74.6 147.8 L 73.8 150.3 L 72.8 152.6 L 71.5 154.7 L 69.9 156.6 L 68.0 158.3 L 65.9 159.7 L 63.7 160.7 L 61.3 161.4 L 58.8 161.8 L 56.2 162.0 L 56.2 156.0 L 48.8 153.225 Z M 168.19433689117432 28.999531936645507 L 168.2 29.0 L 168.2 28.0 Z M 64.0 139.7 L 64.4 136.6 L 64.8 133.1 L 65.0 129.2 L 65.2 124.9 L 65.3 120.3 L 65.3 113.91666669845581 L 65.1 114.0 L 65.1 106.0 L 48.8 106.0 L 48.8 150.0 L 56.2 150.0 L 57.5 149.9 L 58.6 149.7 L 59.5 149.5 L 60.1 149.1 L 60.7 148.8 L 61.2 148.3 L 61.7 147.7 L 62.2 147.0 L 62.6 146.0 L 63.0 144.7 L 63.5 142.5 Z " />
</g>
</svg>
