<svg xmlns="http://www.w3.org/2000/svg" xmlns:xlink="http://www.w3.org/1999/xlink" version="1.1" baseProfile="full" viewBox="0 0 200 200" width="200" height="200">
<g fill="black">
<path d="M 136.9 18.0 L 139.9 20.0 L 136.9 21.8 L 136.9 57.0 L 164.1 57.0 L 174.1 47.0 L 186.1 57.0 L 186.1 61.0 L 136.9 61.0 L 136.9 105.0 L 162.9 105.0 L 168.9 100.0 L 179.9 109.0 L 174.9 113.0 L 174.9 176.0 L 162.9 182.0 L 162.9 170.0 L 105.2 170.0 L 105.2 182.0 L 93.2 188.0 L 93.2 99.0 L 105.2 105.0 L 124.9 105.0 L 124.9 16.0 Z M 56.7 76.0 L 59.7 78.0 L 56.7 79.8 L 56.7 153.942857170105 L 59.2 151.8 L 63.5 148.1 L 76.7 137.0 L 81.3 133.4 L 86.0 129.8 L 90.9 126.3 L 92.1 127.6 L 88.7 132.5 L 85.1 137.2 L 81.4 141.7 L 73.8 150.5 L 70.0 154.8 L 66.2 159.0 L 54.8 171.3 L 54.60591716766358 171.09408283233643 L 48.7 177.0 L 38.7 167.0 L 44.7 161.0 L 44.7 74.0 Z M 105.2 166.0 L 162.9 166.0 L 162.9 109.0 L 105.2 109.0 Z M 53.4 17.2 L 55.9 19.8 L 52.33109502792358 21.010878467559813 L 51.1 25.4 L 48.5 33.7 L 45.6 42.0 L 43.65882349014282 47.0 L 80.5 47.0 L 81.06146793365478 46.532110118865965 L 81.3 46.0 L 81.53798627853394 46.13501148223877 L 86.5 42.0 L 97.5 51.0 L 92.5 54.0 L 89.19589042663574 55.37671232223511 L 85.6 60.0 L 83.4 62.8 L 81.1 65.5 L 78.8 68.3 L 76.3 71.1 L 73.7 73.9 L 71.0 76.6 L 68.4 79.5 L 66.9 78.4 L 68.6 75.0 L 70.0 71.4 L 73.0 64.6 L 74.5 61.4 L 75.9 58.2 L 77.4 55.0 L 78.7 52.0 L 79.11935482025146 51.0 L 42.08823528289795 51.0 L 38.7 59.0 L 34.7 67.6 L 30.3 76.2 L 25.6 85.0 L 20.4 93.7 L 14.7 102.4 L 13.1 101.5 L 17.0 91.9 L 20.8 82.6 L 24.4 73.5 L 27.7 64.6 L 30.8 55.9 L 33.5 47.3 L 36.0 38.9 L 38.2 30.7 L 40.1 22.6 L 41.41219511032104 15.601626014709472 L 41.4 15.6 L 41.5 15.133333301544189 L 41.6 14.6 L 41.61364164352417 14.60300579071045 L 42.0 12.8 Z " />
</g>
</svg>
