<svg xmlns="http://www.w3.org/2000/svg" xmlns:xlink="http://www.w3.org/1999/xlink" version="1.1" baseProfile="full" viewBox="0 0 200 200" width="200" height="200">
<g fill="black">
<path d="M 36.0 26.3 L 54.0 26.3 L 60.0 21.3 L 71.0 30.3 L 66.0 34.3 L 66.0 83.0 L 67.77777776718139 83.0 L 74.0 76.0 L 82.0 83.0 L 82.0 87.0 L 66.0 87.0 L 66.0 118.0 L 68.77777776718139 118.0 L 75.0 111.0 L 83.0 118.0 L 83.0 122.0 L 66.0 122.0 L 66.0 169.0 L 66.2 169.9 L 66.5 170.8 L 66.7 171.0 L 66.9 171.1 L 67.2 171.3 L 67.8 171.5 L 68.7 171.7 L 178.0 171.7 L 184.0 146.7 L 186.0 146.7 L 184.0 171.7 L 187.6 174.1 L 190.0 177.7 L 187.6 181.3 L 184.0 183.7 L 70.0 183.7 L 67.4 183.6 L 64.9 183.2 L 62.5 182.3 L 60.2 181.1 L 58.2 179.5 L 56.6 177.5 L 55.3 175.2 L 54.5 172.8 L 54.1 170.3 L 54.0 167.7 L 54.0 122.0 L 41.0 122.0 L 41.0 118.0 L 54.0 118.0 L 54.0 87.0 L 39.0 87.0 L 39.0 83.0 L 54.0 83.0 L 54.0 30.3 L 36.0 30.3 L 36.0 108.0 L 35.4 118.0 L 34.5 127.5 L 33.2 136.7 L 31.5 145.4 L 29.3 153.7 L 26.7 161.6 L 23.7 169.1 L 20.2 176.0 L 16.2 182.5 L 11.7 188.3 L 10.2 187.4 L 12.9 180.7 L 15.3 173.9 L 17.6 166.8 L 19.5 159.4 L 21.1 151.7 L 22.3 143.7 L 23.3 135.4 L 23.8 126.6 L 24.1 117.5 L 24.0 108.0 L 24.0 20.3 Z M 124.4 137.7 L 123.8 134.0 L 123.59462690353394 133.02447757720947 L 123.3 133.2 L 118.5 135.9 L 113.7 138.3 L 108.8 140.7 L 93.8 147.3 L 88.8 149.4 L 82.62736158370971 151.8690553665161 L 81.6 155.6 L 78.8 153.4 L 73.1 142.6 L 75.0 142.0 L 83.44610109329224 139.72604970932008 L 84.9 135.9 L 88.7 126.2 L 92.5 116.8 L 96.2 107.6 L 99.8 98.8 L 101.63333330154418 94.24285717010498 L 99.0 96.5 L 94.5 96.1 L 91.5 92.7 L 90.9 90.1 L 90.1 87.4 L 89.2 84.6 L 87.9 81.7 L 86.5 78.7 L 84.8 75.6 L 83.0 72.4 L 80.9 69.1 L 78.7 65.6 L 76.0 62.3 L 77.3 60.9 L 80.8 63.6 L 84.2 66.1 L 87.15464925765991 68.50065250396729 L 88.2 64.9 L 90.1 59.1 L 91.9 53.4 L 93.8 48.0 L 95.5 42.8 L 97.1 37.8 L 98.6 32.9 L 100.0 28.3 L 101.3 23.8 L 102.16560745239258 20.416261672973633 L 102.1 20.4 L 102.9 18.0 L 113.8 23.3 L 116.0 26.1 L 112.26494941711425 26.96706533432007 L 112.0 27.6 L 110.1 32.0 L 108.0 36.5 L 105.7 41.2 L 103.3 46.1 L 100.7 51.0 L 98.0 56.1 L 94.9 61.3 L 91.6 66.5 L 89.0629370689392 70.3055944442749 L 90.3 71.5 L 92.9 74.2 L 95.4 77.1 L 97.6 79.9 L 99.6 82.9 L 101.3 85.9 L 102.9 89.0 L 102.66104316711426 91.68826408386231 L 103.3 90.1 L 106.7 81.7 L 109.9 73.5 L 112.9 65.5 L 115.45444202423096 58.717516136169436 L 115.4 58.7 L 116.3 56.5 L 126.9 62.4 L 128.9 65.3 L 125.30776939392089 65.85741510391236 L 123.4 70.0 L 119.7 77.7 L 115.9 85.7 L 107.6 102.3 L 103.1 110.8 L 98.5 119.6 L 93.5 128.5 L 88.3 137.5 L 87.63079996109009 138.59940004348755 L 95.8 136.4 L 101.0 134.9 L 106.2 133.5 L 111.4 132.2 L 116.7 130.9 L 122.0 129.7 L 122.84453783035278 129.54360408782958 L 122.1 126.4 L 121.0 122.6 L 119.7 118.8 L 118.3 115.0 L 116.8 111.0 L 114.9 107.1 L 116.4 106.1 L 119.4 109.3 L 122.4 112.6 L 125.0 116.0 L 127.4 119.7 L 129.6 123.4 L 131.5 127.3 L 133.2 131.2 L 134.7 135.3 L 135.9 139.5 L 137.0 143.7 L 135.7 148.1 L 131.8 150.5 L 127.4 149.2 L 125.1 145.3 L 124.8 141.5 Z M 167.6 158.5 L 165.8 160.1 L 163.9 161.5 L 161.8 162.7 L 159.6 163.7 L 157.3 164.5 L 155.0 165.0 L 152.6 165.4 L 150.1 165.5 L 150.1 159.5 L 130.1 156.5 L 130.1 153.5 L 150.1 153.5 L 151.5 153.4 L 152.9 153.2 L 154.1 153.0 L 155.2 152.6 L 156.2 152.1 L 157.2 151.5 L 158.2 150.8 L 159.1 150.0 L 160.0 149.0 L 160.9 147.8 L 162.0 145.5 L 163.4 140.7 L 164.8 133.8 L 166.0 125.0 L 167.0 114.3 L 167.9 101.6 L 168.6 87.2 L 169.1 70.9 L 169.3 52.7 L 169.38994970321656 34.8 L 120.9 34.8 L 120.9 30.8 L 169.4 30.8 L 175.4 25.8 L 186.4 34.8 L 181.4 37.8 L 181.3749478340149 37.81043844223022 L 181.3 52.8 L 181.0 71.1 L 180.6 87.6 L 179.9 102.3 L 179.0 115.2 L 177.9 126.4 L 176.6 135.8 L 175.1 143.5 L 173.2 149.7 L 170.7 154.7 L 169.2 156.7 Z " />
</g>
</svg>
