<svg xmlns="http://www.w3.org/2000/svg" xmlns:xlink="http://www.w3.org/1999/xlink" version="1.1" baseProfile="full" viewBox="0 0 200 200" width="200" height="200">
<g fill="black">
<path d="M 133.0 105.6 L 136.0 107.6 L 133.0 109.4 L 133.0 119.2 L 166.0 119.2 L 176.0 109.2 L 188.0 119.2 L 188.0 123.2 L 133.0 123.2 L 133.0 138.7 L 159.8181818008423 138.7 L 168.0 129.7 L 178.0 138.7 L 178.0 142.7 L 133.0 142.7 L 133.0 159.1 L 166.0 159.1 L 176.0 149.1 L 188.0 159.1 L 188.0 163.1 L 133.0 163.1 L 133.0 182.4 L 121.0 188.4 L 121.0 103.6 Z M 15.4 156.5 L 24.9 155.9 L 34.2 155.2 L 43.3 154.6 L 52.2 154.0 L 61.0 153.4 L 68.94306745529175 152.93276071548462 L 69.0 150.2 L 69.0 142.7 L 19.0 142.7 L 19.0 138.7 L 69.0 138.7 L 69.0 123.2 L 19.0 123.2 L 19.0 119.2 L 69.0 119.2 L 69.0 103.6 L 81.0 105.6 L 84.0 107.6 L 81.0 109.4 L 81.0 150.2 L 80.72772560119628 152.25718412399291 L 86.0 152.0 L 94.0 151.7 L 101.8 151.7 L 102.1 153.5 L 94.5 155.5 L 86.7 157.3 L 79.52142858505249 158.73571424484254 L 78.0 163.3 L 74.8 168.9 L 70.5 173.7 L 65.2 177.7 L 59.1 181.0 L 52.1 183.5 L 44.3 185.3 L 35.6 186.4 L 26.0 186.7 L 25.9 184.9 L 34.9 182.7 L 42.9 180.1 L 49.8 177.3 L 55.6 174.3 L 60.2 170.9 L 63.8 167.3 L 66.3 163.5 L 67.36315793991089 160.93591327667235 L 61.9 161.9 L 53.3 163.3 L 44.4 164.6 L 35.3 165.9 L 26.0 167.2 L 20.58992290496826 167.88337812423705 L 18.8 171.2 L 16.5 168.4 L 13.4 156.7 Z M 159.3 100.7 L 151.5 97.4 L 144.3 93.6 L 137.99011478424072 89.52284336090088 L 136.7 90.1 L 128.4 93.1 L 119.4 95.7 L 109.7 97.9 L 99.2 99.5 L 98.7 97.8 L 108.7 94.2 L 117.7 90.6 L 126.0 87.0 L 131.58067827224733 84.17245635986328 L 126.9 79.4 L 122.5 73.8 L 119.1 67.7 L 117.21538457870483 62.8 L 106.0 62.8 L 106.0 58.8 L 160.0 58.8 L 160.37241382598876 58.48965520858765 L 160.7 57.9 L 160.9285223007202 58.026231384277345 L 166.0 53.8 L 177.0 62.8 L 172.0 65.8 L 168.68609275817872 67.18079471588135 L 167.3 69.1 L 162.7 74.2 L 157.3 78.8 L 151.1 82.9 L 148.50277776718139 84.35138893127441 L 149.0 84.6 L 155.7 87.2 L 163.0 89.5 L 170.8 91.5 L 179.2 93.0 L 188.5 94.8 L 176.7 106.0 L 167.7 103.6 Z M 53.0 86.5 L 73.0 86.5 L 74.2 86.4 L 75.1 86.2 L 75.7 86.1 L 76.0 85.9 L 76.4 85.5 L 76.7 84.6 L 76.9 83.7 L 77.0 82.5 L 77.0 59.02258062362671 L 73.5 59.7 L 64.5 61.3 L 55.7 62.8 L 47.2 64.2 L 41.27142858505249 65.2 L 40.7 69.2 L 39.2 75.2 L 37.1 80.8 L 34.5 86.0 L 31.4 90.7 L 27.7 95.0 L 23.4 98.8 L 18.7 102.1 L 13.4 104.7 L 12.5 103.2 L 16.3 99.1 L 19.7 95.0 L 22.5 90.9 L 24.9 86.7 L 26.9 82.3 L 28.4 77.6 L 29.4 72.8 L 30.0 67.7 L 30.02464179992676 67.03467044830322 L 23.1 68.1 L 19.67608699798584 68.64782609939576 L 18.0 72.0 L 15.6 69.3 L 12.3 57.6 L 14.3 57.4 L 21.8 56.8 L 29.6 56.2 L 30.0 56.170370388031 L 30.0 21.1 L 42.0 27.1 L 51.513333320617676 27.1 L 51.6 27.0 L 52.3 25.1 L 53.7 21.7 L 54.3 20.1 L 54.8 18.5 L 55.3 17.0 L 55.7 15.6 L 56.0 14.2 L 56.03746738433838 13.956462097167968 L 55.7 13.8 L 56.18317756652832 13.009345817565919 L 56.2 12.9 L 56.23705883026123 12.921176433563232 L 56.8 12.0 L 66.7 18.9 L 68.3 22.1 L 62.92687997817993 22.192640018463134 L 62.8 22.3 L 59.8 24.5 L 58.3 25.5 L 55.58000001907349 27.1 L 77.0 27.1 L 83.0 22.1 L 94.0 31.1 L 89.0 35.1 L 89.0 52.31546392440796 L 91.8 52.2 L 101.8 52.0 L 102.1 53.8 L 92.3 56.0 L 89.0 56.660000038146975 L 89.0 82.5 L 88.8 85.0 L 88.4 87.5 L 87.6 89.9 L 86.3 92.2 L 84.7 94.2 L 82.7 95.9 L 80.4 97.1 L 78.0 97.9 L 75.5 98.3 L 73.0 98.5 L 73.0 92.5 L 53.0 89.5 Z M 64.0 66.2 L 67.0 68.2 L 64.0 70.0 L 64.0 80.7 L 52.0 86.7 L 52.0 64.2 Z M 120.31199998855591 62.8 L 122.6 65.4 L 127.1 70.0 L 131.9 74.2 L 137.1 78.1 L 139.60355939865113 79.59335126876832 L 140.1 79.3 L 145.9 75.3 L 150.8 71.1 L 154.9 66.8 L 157.9 62.8 Z M 126.0 19.2 L 149.0 19.2 L 155.0 14.2 L 166.0 23.2 L 161.0 27.2 L 161.0 37.6 L 160.9 38.8 L 160.9 39.8 L 161.0 40.5 L 161.0 41.0 L 161.2 41.4 L 161.4 41.7 L 161.8 42.1 L 162.5 42.5 L 163.6 42.9 L 165.0 43.1 L 178.5 43.1 L 183.0 30.1 L 185.0 30.1 L 183.0 43.1 L 185.7 44.9 L 187.5 47.6 L 185.7 50.3 L 183.0 52.1 L 162.5 52.1 L 160.2 51.8 L 157.9 51.2 L 155.7 50.2 L 153.7 48.8 L 152.1 47.0 L 150.7 44.9 L 149.8 42.6 L 149.2 40.1 L 149.0 37.6 L 149.0 23.2 L 126.0 23.2 L 126.0 30.0 L 125.3 34.5 L 124.0 38.9 L 122.2 42.9 L 119.8 46.7 L 116.9 50.1 L 113.5 53.2 L 109.6 56.0 L 105.3 58.4 L 100.5 60.5 L 95.3 62.5 L 94.6 60.9 L 98.9 57.8 L 102.6 54.5 L 105.8 51.3 L 108.4 48.2 L 110.5 45.1 L 112.1 42.0 L 113.2 39.0 L 113.9 36.0 L 114.1 33.0 L 114.0 30.0 L 114.0 13.2 Z M 42.0 31.1 L 42.0 55.29285717010498 L 46.1 55.0 L 54.7 54.3 L 63.6 53.7 L 72.7 53.1 L 77.0 52.87127656936646 L 77.0 31.1 Z M 56.3 45.1 L 55.7 43.6 L 54.9 42.2 L 54.0 40.7 L 52.9 39.1 L 51.7 37.5 L 50.3 35.9 L 48.5 34.8 L 49.2 33.1 L 51.3 34.0 L 53.6 34.5 L 55.7 35.1 L 57.8 35.9 L 59.8 36.9 L 61.6 38.0 L 63.4 39.3 L 65.1 40.7 L 66.7 42.3 L 68.1 44.1 L 68.3 48.6 L 65.2 52.1 L 60.7 52.2 L 57.2 49.2 L 57.1 47.9 Z " />
</g>
</svg>
