<svg xmlns="http://www.w3.org/2000/svg" xmlns:xlink="http://www.w3.org/1999/xlink" version="1.1" baseProfile="full" viewBox="0 0 200 200" width="200" height="200">
<g fill="black">
<path d="M 31.0 176.1 L 47.0 176.1 L 48.2 176.0 L 49.1 175.8 L 50.0 175.5 L 50.4 175.1 L 50.7 174.2 L 50.9 173.3 L 51.0 172.1 L 51.0 143.76341466903688 L 50.7 144.1 L 46.1 148.4 L 41.3 152.5 L 36.0 156.3 L 30.5 159.8 L 24.6 162.9 L 18.4 165.7 L 11.7 168.0 L 11.0 166.4 L 16.5 162.4 L 21.8 158.4 L 26.7 154.4 L 31.3 150.3 L 35.6 146.2 L 39.5 141.9 L 43.1 137.5 L 46.3 133.0 L 49.07659578323364 128.5 L 12.3 128.5 L 12.3 124.5 L 58.044444465637206 124.5 L 56.8 122.9 L 55.1 121.1 L 53.1 119.2 L 50.8 117.3 L 48.3 115.4 L 45.4 113.4 L 42.2 111.5 L 38.8 109.5 L 35.1 107.4 L 31.1 105.6 L 31.6 103.9 L 36.0 104.7 L 40.3 105.4 L 44.3 106.2 L 48.2 107.2 L 51.8 108.4 L 55.2 109.7 L 58.4 111.1 L 59.067423057556155 111.4682333946228 L 61.8 109.1 L 64.6 106.6 L 67.3 104.3 L 69.8 102.1 L 72.2 100.0 L 72.86000003814698 99.4 L 17.1 99.4 L 17.1 95.4 L 77.13888893127441 95.4 L 78.3 94.3 L 79.9 92.6 L 80.31379680633545 93.13850269317626 L 83.6 90.4 L 94.6 99.4 L 89.6 102.4 L 77.6 107.4 L 77.6 106.9214285850525 L 77.0 107.2 L 74.0 108.6 L 70.8 110.0 L 67.5 111.4 L 64.0 112.7 L 62.31965322494507 113.31907510757446 L 64.1 114.4 L 66.7 116.3 L 68.4 120.6 L 66.82142858505249 124.5 L 80.4 124.5 L 81.0 124.0 L 82.0 122.4 L 82.43433475494385 122.80472106933594 L 86.4 119.5 L 97.4 128.5 L 92.4 131.5 L 84.24905662536621 134.8962264060974 L 82.6 135.9 L 80.2 137.2 L 77.7 138.6 L 75.0 140.0 L 72.1 141.3 L 69.0 142.6 L 66.0 144.3 L 65.0 142.8 L 67.6 140.6 L 69.7 138.1 L 71.8 135.8 L 73.7 133.5 L 75.5 131.4 L 77.1 129.4 L 77.81052627563477 128.5 L 63.0 128.5 L 63.0 172.1 L 62.8 174.6 L 62.4 177.1 L 61.6 179.5 L 60.3 181.8 L 58.7 183.8 L 56.7 185.4 L 54.4 186.7 L 52.0 187.5 L 49.5 187.9 L 47.0 188.1 L 47.0 182.1 L 31.0 179.1 Z M 158.8 140.1 L 149.9 137.3 L 141.6 134.1 L 135.85066165924073 131.3030245780945 L 130.5 133.8 L 124.82446804046631 135.96489362716676 L 135.0 138.0 L 138.0 140.0 L 134.43051767349243 142.14168939590454 L 133.9 146.0 L 133.18648653030397 148.2 L 164.0 148.2 L 170.0 143.2 L 181.0 152.2 L 176.0 155.2 L 175.6 155.36666669845582 L 175.4 157.7 L 175.0 161.0 L 174.5 164.1 L 173.9 166.9 L 173.2 169.5 L 172.4 172.0 L 171.5 174.2 L 170.3 176.3 L 169.0 178.2 L 167.3 180.0 L 165.6 181.7 L 163.7 183.2 L 161.7 184.5 L 159.6 185.6 L 157.4 186.5 L 155.1 187.2 L 152.8 187.7 L 150.4 188.0 L 148.0 188.1 L 148.0 182.1 L 128.0 179.1 L 128.0 176.1 L 148.0 176.1 L 149.4 176.0 L 150.8 175.8 L 152.1 175.5 L 153.3 175.2 L 154.5 174.7 L 155.6 174.1 L 156.7 173.4 L 157.7 172.6 L 158.7 171.6 L 159.7 170.5 L 160.1 170.0 L 160.6 169.1 L 161.2 167.8 L 161.7 166.2 L 162.2 164.2 L 162.7 161.9 L 163.1 159.3 L 163.4 156.5 L 163.7 153.3 L 163.79428567886353 152.2 L 131.88918914794922 152.2 L 131.5 153.4 L 127.7 160.2 L 122.6 166.2 L 116.3 171.4 L 108.9 175.8 L 100.4 179.5 L 90.7 182.5 L 80.0 184.7 L 68.1 186.2 L 67.8 184.5 L 79.1 181.1 L 89.1 177.4 L 97.7 173.5 L 105.1 169.2 L 111.1 164.6 L 115.8 159.8 L 119.2 154.8 L 120.3283019065857 152.2 L 90.0 152.2 L 90.0 148.2 L 121.78363637924194 148.2 L 122.7 144.0 L 123.0 138.0 L 123.0 136.6608247756958 L 120.8 137.5 L 110.1 140.8 L 98.7 143.7 L 86.3 146.0 L 73.1 147.7 L 72.8 146.0 L 85.5 142.3 L 97.2 138.5 L 108.1 134.6 L 117.9 130.5 L 126.84849987030029 126.12517786026001 L 121.6 122.3 L 116.6 117.6 L 112.6 112.4 L 110.78752689361572 108.83978490829467 L 107.2 111.2 L 103.2 113.5 L 98.8 115.5 L 94.2 117.3 L 89.4 119.1 L 88.5 117.4 L 92.6 114.5 L 96.3 111.4 L 99.7 108.5 L 102.9 105.5 L 105.7 102.6 L 108.2 99.7 L 110.4 96.8 L 112.3 93.9 L 113.9 91.1 L 114.78048076629639 89.13585052490234 L 114.7 89.1 L 115.7 87.2 L 116.0 87.4039999961853 L 116.0 11.9 L 128.0 13.9 L 131.0 15.9 L 128.0 17.7 L 128.0 26.2 L 156.0 26.2 L 166.0 16.2 L 178.0 26.2 L 178.0 30.2 L 128.0 30.2 L 128.0 45.7 L 154.8181818008423 45.7 L 163.0 36.7 L 173.0 45.7 L 173.0 49.7 L 128.0 49.7 L 128.0 67.0 L 160.0 67.0 L 170.0 57.0 L 182.0 67.0 L 182.0 71.0 L 128.0 71.0 L 128.0 83.0 L 117.35254240036011 88.32372884750366 L 125.7 94.0 L 127.4 97.1 L 123.28941860198975 97.31261625289918 L 120.7 100.4 L 118.6 102.5 L 164.0 102.5 L 174.0 92.5 L 186.0 102.5 L 186.0 106.5 L 168.2222222328186 106.5 L 166.8 108.1 L 161.2 114.2 L 154.8 119.8 L 147.6 124.9 L 147.2788546562195 125.08634357452392 L 153.0 126.7 L 161.6 128.6 L 170.9 130.2 L 180.9 131.5 L 190.9 133.0 L 179.0 144.6 L 168.6 142.5 Z M 113.9615385055542 106.5 L 112.90420370101928 107.2854486465454 L 115.7 109.7 L 120.5 113.1 L 125.7 116.4 L 131.6 119.3 L 135.56743249893188 120.9737606048584 L 141.8 116.7 L 147.9 111.6 L 152.90192308425904 106.5 Z M 19.8 68.8 L 26.6 67.8 L 33.2 66.8 L 39.7 65.9 L 46.1 65.0 L 52.3 64.1 L 58.5 63.3 L 70.3 61.9 L 75.10028486251831 61.56894588470459 L 75.5 60.7 L 77.1 55.3 L 77.88596487045288 49.7 L 30.0 49.7 L 30.0 45.7 L 77.9639344215393 45.7 L 78.0 43.5 L 78.0 30.2 L 24.0 30.2 L 24.0 26.2 L 78.0 26.2 L 78.0 11.9 L 90.0 13.9 L 93.0 15.9 L 90.0 17.7 L 90.0 43.5 L 89.2 51.1 L 87.4 58.2 L 84.7 64.8 L 81.0 70.8 L 76.3 76.0 L 70.9 80.6 L 64.6 84.5 L 57.6 87.8 L 49.8 90.2 L 41.2 91.9 L 40.7 90.2 L 48.5 86.7 L 55.3 82.9 L 61.1 79.0 L 66.0 74.8 L 70.1 70.4 L 72.4664122581482 66.81221370697021 L 71.4 67.2 L 65.8 69.0 L 60.0 70.7 L 54.1 72.4 L 47.9 74.1 L 41.7 75.7 L 35.3 77.4 L 28.8 79.0 L 26.08418712615967 79.6485523223877 L 24.6 83.2 L 22.1 80.6 L 17.8 69.2 Z " />
</g>
</svg>
