<svg xmlns="http://www.w3.org/2000/svg" xmlns:xlink="http://www.w3.org/1999/xlink" version="1.1" baseProfile="full" viewBox="0 0 200 200" width="200" height="200">
<g fill="black">
<path d="M 170.2 171.5 L 166.5 167.6 L 162.9 163.3 L 159.7 158.5 L 156.6 153.2 L 153.8 147.5 L 151.2 141.2 L 148.9 134.5 L 147.69736700057985 129.62265501022338 L 146.9 129.9 L 142.2 131.3 L 141.41323566436768 131.5408462524414 L 143.8 135.3 L 146.7 141.8 L 148.7 148.6 L 149.5 155.5 L 149.2 162.6 L 147.8 169.7 L 145.2 176.8 L 144.6 176.7833333015442 L 143.5 178.8 L 142.1 180.8 L 140.5 182.7 L 138.7 184.4 L 136.7 185.8 L 134.6 187.0 L 132.3 187.8 L 129.9 188.5 L 127.4 188.8 L 124.9 189.0 L 124.9 183.0 L 104.9 180.0 L 104.9 177.0 L 124.9 177.0 L 126.3 176.9 L 127.5 176.7 L 128.6 176.4 L 129.5 176.1 L 131.1 175.1 L 131.7629630088806 174.43703699111938 L 133.4 171.1 L 135.9 165.8 L 137.6 160.6 L 138.5 155.3 L 138.5 150.22105264663696 L 135.0 152.8 L 128.8 156.9 L 122.1 160.7 L 114.9 164.4 L 107.2 167.9 L 99.0 171.3 L 90.3 174.4 L 81.0 177.3 L 71.2 179.8 L 70.6 178.1 L 79.7 173.7 L 88.2 169.5 L 96.3 165.3 L 103.8 161.2 L 110.8 157.0 L 117.3 152.8 L 123.2 148.5 L 128.5 144.3 L 133.3 140.0 L 135.69315910339355 137.54986095428467 L 133.6 132.8 L 132.5425287246704 130.92676515579222 L 130.9 132.1 L 125.8 135.4 L 120.4 138.6 L 114.9 141.7 L 109.2 144.6 L 103.2 147.4 L 97.1 150.1 L 90.7 152.6 L 84.0 154.8 L 77.1 156.8 L 76.4 155.1 L 82.4 151.4 L 88.3 147.8 L 94.1 144.3 L 99.6 140.8 L 104.9 137.3 L 110.0 133.8 L 114.9 130.2 L 119.6 126.6 L 124.0 123.0 L 126.36960783004761 120.96103515625 L 125.8 120.1 L 120.79714288711548 113.68123989105224 L 115.9 117.1 L 110.5 120.6 L 104.9 124.0 L 99.2 127.1 L 93.3 130.0 L 87.3 132.5 L 81.0 134.7 L 80.2 133.2 L 85.4 129.2 L 90.6 125.4 L 95.7 121.5 L 100.7 117.7 L 105.5 113.8 L 110.3 109.7 L 114.8 105.6 L 119.3 101.4 L 121.7 99.0 L 89.3 99.0 L 89.3 95.0 L 162.4 95.0 L 172.4 85.0 L 184.4 95.0 L 184.4 99.0 L 138.60952377319336 99.0 L 136.2 101.2 L 131.4 105.5 L 126.3 109.5 L 122.37341012954712 112.50268640518189 L 128.8 117.3 L 134.8 123.0 L 139.74642858505248 128.93571424484253 L 140.7 128.3 L 144.8 125.4 L 148.8 122.8 L 152.7 120.3 L 156.4 117.9 L 160.0 115.6 L 163.4 113.4 L 166.7 111.2 L 169.9 109.2 L 172.09103450775146 107.73931035995483 L 172.0 107.6 L 172.12081451416014 107.71945705413819 L 172.9 107.2 L 174.41157312393187 109.98447675704956 L 180.9 116.4 L 181.1 119.8 L 177.32248516082763 118.22603549957276 L 175.2 119.1 L 171.7 120.6 L 168.0 122.1 L 164.1 123.7 L 160.1 125.2 L 155.9 126.8 L 151.5 128.3 L 150.14262294769287 128.77213115692138 L 152.7 132.8 L 156.4 138.6 L 160.0 143.9 L 163.6 148.7 L 167.1 152.9 L 170.7 156.6 L 174.2 159.8 L 177.7 162.4 L 181.1 164.5 L 184.5 166.1 L 189.7 168.8 L 178.5 177.8 L 174.2 174.9 Z M 62.4 178.3 L 60.7 180.1 L 58.8 181.6 L 56.8 183.0 L 54.7 184.1 L 52.4 184.9 L 50.0 185.5 L 47.6 185.8 L 45.1 186.0 L 45.1 180.0 L 31.1 177.0 L 31.1 174.0 L 45.1 174.0 L 46.5 173.9 L 47.7 173.7 L 48.9 173.4 L 49.9 173.1 L 50.8 172.6 L 51.6 172.0 L 52.5 171.3 L 53.3 170.5 L 54.0 169.5 L 54.8 168.3 L 56.3 165.1 L 57.8 161.1 L 59.2 156.2 L 60.4 150.6 L 61.4 144.2 L 62.3 137.0 L 63.0 129.1 L 63.4 120.5 L 63.7 111.1 L 63.78019800186157 103.0 L 31.6 103.0 L 23.6 111.0 L 13.6 101.0 L 19.981117916107177 95.68240175247192 L 24.6 39.5 L 36.4 42.4 L 39.2 44.7 L 36.120451068878175 45.76599769592285 L 31.699322032928468 99.0 L 53.33424654006958 99.0 L 57.96575345993042 30.0 L 14.9 30.0 L 14.9 26.0 L 58.1 26.0 L 64.1 21.0 L 75.1 30.0 L 70.1 33.0 L 68.85523977279664 33.51865005493164 L 65.37963638305663 97.68363637924195 L 69.8 94.0 L 80.8 103.0 L 75.8 106.0 L 75.75125913619995 106.02030868530274 L 75.7 111.3 L 75.4 121.0 L 74.9 130.0 L 74.2 138.2 L 73.3 145.9 L 72.2 152.8 L 70.8 159.1 L 69.3 164.7 L 67.4 169.8 L 65.2 174.2 L 63.9 176.3 Z M 11.8 145.3 L 16.0 143.1 L 20.3 140.8 L 24.6 138.6 L 29.0 136.3 L 33.3 134.0 L 37.8 131.7 L 42.2 129.5 L 46.8 127.3 L 51.4 125.2 L 56.2 123.2 L 57.2 124.7 L 53.5 128.3 L 49.7 131.7 L 45.8 135.0 L 41.8 138.1 L 37.9 141.1 L 29.9 147.1 L 26.0 149.9 L 22.0 152.8 L 21.463519287109374 153.175536441803 L 21.3 157.1 L 18.0 155.6 L 10.1 146.3 Z M 84.7 86.1 L 83.1 81.9 L 84.9 77.7 L 85.8 77.2 L 86.9 76.2 L 88.1 74.6 L 89.2 72.5 L 90.3 69.8 L 91.4 66.7 L 92.3 63.1 L 93.2 59.0 L 94.1 54.5 L 94.6 49.6 L 96.4 49.5 L 96.9 54.5 L 97.2702127456665 57.4 L 172.4 57.4 L 178.4 52.4 L 189.4 61.4 L 184.4 64.4 L 181.21012659072875 65.72911396026612 L 180.2 67.1 L 178.7 69.1 L 177.2 71.2 L 175.5 73.4 L 173.7 75.6 L 171.7 78.0 L 169.6 80.4 L 167.8 83.1 L 166.2 82.2 L 167.5 79.2 L 168.3 76.1 L 169.1 73.2 L 169.8 70.5 L 170.5 67.9 L 171.1 65.5 L 171.7 63.2 L 172.12857141494752 61.4 L 97.7 61.4 L 97.9 63.6 L 98.0 67.6 L 97.9 71.3 L 97.6 74.8 L 97.0 78.0 L 96.1 81.0 L 94.9 83.8 L 93.2 86.4 L 88.9 87.9 Z M 163.1 77.0 L 163.1 81.0 L 103.9 81.0 L 103.9 77.0 L 144.9181818008423 77.0 L 153.1 68.0 Z M 157.9 15.4 L 160.9 17.4 L 157.9 19.2 L 157.9 31.2 L 163.7 31.2 L 173.7 21.2 L 185.7 31.2 L 185.7 35.2 L 157.9 35.2 L 157.9 48.4 L 145.9 54.4 L 145.9 35.2 L 125.9 35.2 L 125.9 48.4 L 113.9 54.4 L 113.9 35.2 L 86.1 35.2 L 86.1 31.2 L 113.9 31.2 L 113.9 13.4 L 125.9 15.4 L 128.9 17.4 L 125.9 19.2 L 125.9 31.2 L 145.9 31.2 L 145.9 13.4 Z " />
</g>
</svg>
