<svg xmlns="http://www.w3.org/2000/svg" xmlns:xlink="http://www.w3.org/1999/xlink" version="1.1" baseProfile="full" viewBox="0 0 200 200" width="200" height="200">
<g fill="black">
<path d="M 157.6 83.6 L 159.7 96.7 L 162.4 109.2 L 165.5 121.3 L 169.2 132.9 L 173.5 144.0 L 178.2 154.7 L 183.6 164.8 L 189.4 174.5 L 179.6 183.7 L 178.2 181.4 L 172.5 170.6 L 167.5 159.5 L 163.1 147.9 L 159.5 135.9 L 156.5 123.6 L 154.2 110.8 L 153.2273127555847 102.83612337112427 L 151.7 112.0 L 148.4 126.0 L 144.1 139.1 L 139.0 151.0 L 132.9 162.0 L 126.0 171.7 L 118.1 180.3 L 109.3 187.6 L 108.2 186.3 L 115.3 177.8 L 121.6 168.6 L 127.2 158.7 L 132.0 148.0 L 136.1 136.3 L 139.4 123.8 L 141.8 110.3 L 143.5 95.8 L 144.4 80.4 L 144.6 64.0 L 144.6 17.0 L 156.6 19.0 L 159.6 21.0 L 156.6 22.8 L 156.6 64.0 L 156.18187074661256 72.88524589538574 Z M 119.9 128.1 L 119.0 124.3 L 117.7 120.5 L 116.3 116.6 L 114.6 112.6 L 112.7 108.4 L 111.91212120056153 106.82424240112304 L 111.1 111.9 L 108.0 125.8 L 104.0 138.7 L 99.2 150.6 L 93.5 161.4 L 87.0 171.1 L 79.6 179.5 L 71.4 186.6 L 70.1 185.3 L 76.7 177.0 L 82.6 168.0 L 87.7 158.3 L 92.2 147.7 L 95.9 136.2 L 98.9 123.7 L 101.2 110.2 L 102.8 95.8 L 103.6 80.4 L 103.7 64.0 L 103.7 17.0 L 115.7 19.0 L 118.7 21.0 L 115.7 22.8 L 115.7 64.0 L 115.0 80.9 L 113.5 96.9 L 113.05862064361573 99.65862064361572 L 114.7 101.3 L 117.9 105.1 L 120.9 108.9 L 123.6 112.8 L 126.0 116.7 L 128.1 120.6 L 130.0 124.6 L 131.6 128.7 L 133.0 132.8 L 132.1 137.2 L 128.4 139.9 L 123.9 139.0 L 121.3 135.3 L 120.7 131.7 Z M 67.2 97.4 L 65.4 98.9 L 63.4 100.2 L 61.3 101.4 L 59.1 102.3 L 56.8 103.0 L 54.5 103.6 L 52.1 103.9 L 49.6 104.0 L 49.6 98.0 L 39.6 95.0 L 39.6 92.0 L 49.6 92.0 L 51.1 91.9 L 52.5 91.7 L 54.9 91.1 L 56.1 90.6 L 57.1 90.0 L 58.2 89.3 L 59.2 88.5 L 60.2 87.5 L 61.1 86.4 L 61.5 85.1 L 62.0 82.8 L 62.5 79.6 L 62.9 75.7 L 63.3 71.0 L 63.5 65.6 L 63.7 59.4 L 63.8 52.5 L 63.87333335876465 47.0 L 30.1 47.0 L 30.1 114.0 L 67.1 114.0 L 73.1 109.0 L 84.1 118.0 L 79.1 121.0 L 79.05928373336792 121.01696510314942 L 79.1 124.6 L 79.0 132.8 L 78.7 140.3 L 78.2 147.2 L 77.5 153.5 L 76.6 159.1 L 75.4 164.2 L 74.1 168.7 L 72.4 172.8 L 70.3 176.3 L 68.8 178.2 L 67.1 180.0 L 65.3 181.6 L 63.4 183.0 L 61.3 184.2 L 59.1 185.2 L 56.9 186.0 L 54.5 186.5 L 52.1 186.8 L 49.6 187.0 L 49.6 181.0 L 33.6 178.0 L 33.6 175.0 L 49.6 175.0 L 51.1 174.9 L 52.4 174.7 L 54.8 174.1 L 55.8 173.6 L 56.8 173.0 L 57.8 172.3 L 58.7 171.5 L 59.6 170.5 L 60.5 169.3 L 61.6 167.4 L 62.8 164.7 L 63.8 161.2 L 64.8 156.9 L 65.6 151.9 L 66.2 146.1 L 66.7 139.6 L 67.0 132.5 L 67.1 124.6 L 67.1 118.0 L 30.1 118.0 L 22.1 126.0 L 12.1 116.0 L 18.1 110.0 L 18.1 37.0 L 30.1 43.0 L 37.26470584869385 43.0 L 37.9 41.2 L 38.7 37.8 L 39.5 34.5 L 40.4 31.4 L 41.2 28.3 L 42.1 25.4 L 42.9 22.5 L 44.3 17.1 L 44.74480962753296 15.447850131988526 L 44.6 15.4 L 44.96283187866211 14.638053131103515 L 45.0 14.5 L 45.02377719879151 14.51006784439087 L 45.6 13.3 L 56.1 19.2 L 58.0 22.2 L 53.8620192527771 22.780769252777098 L 53.1 24.0 L 51.5 26.4 L 49.9 28.9 L 48.2 31.5 L 46.4 34.2 L 44.5 36.9 L 42.4 39.6 L 40.3 42.4 L 39.88620691299438 43.0 L 63.9 43.0 L 69.9 38.0 L 80.9 47.0 L 75.9 50.0 L 75.83471164703369 50.027203464508055 L 75.8 52.7 L 75.7 59.7 L 75.5 66.1 L 75.2 71.7 L 74.8 76.8 L 74.4 81.2 L 73.8 85.0 L 73.1 88.2 L 72.1 91.1 L 70.5 93.8 L 68.9 95.7 Z M 13.2 150.0 L 17.8 148.4 L 22.5 146.7 L 31.9 143.1 L 36.7 141.3 L 41.5 139.4 L 51.3 135.6 L 56.4 133.8 L 61.6 132.2 L 62.4 133.7 L 58.2 137.2 L 53.8 140.4 L 49.3 143.4 L 44.9 146.2 L 40.4 148.9 L 35.9 151.5 L 26.9 156.5 L 22.3 158.8 L 21.62406768798828 159.1454765319824 L 20.9 163.1 L 17.8 161.1 L 11.3 150.8 Z M 44.1 72.0 L 43.7 70.2 L 43.2 68.3 L 42.6 66.3 L 41.7 64.4 L 40.7 62.4 L 39.5 60.4 L 38.2 58.2 L 36.3 56.5 L 37.4 55.1 L 39.6 56.5 L 42.0 57.6 L 44.3 58.9 L 46.5 60.4 L 48.5 62.1 L 50.3 63.9 L 52.0 65.9 L 53.5 68.0 L 54.9 70.3 L 56.0 72.8 L 55.3 77.3 L 51.7 80.1 L 47.2 79.3 L 44.4 75.7 L 44.3 73.9 Z " />
</g>
</svg>
