<svg xmlns="http://www.w3.org/2000/svg" xmlns:xlink="http://www.w3.org/1999/xlink" version="1.1" baseProfile="full" viewBox="0 0 200 200" width="200" height="200">
<g fill="black">
<path d="M 95.6 65.4 L 94.1 63.2 L 92.2 60.9 L 89.9 58.6 L 87.1 56.3 L 83.9 54.0 L 80.3 51.7 L 76.2 49.3 L 71.6 47.1 L 72.2 45.4 L 77.2 46.4 L 82.0 47.4 L 86.5 48.8 L 90.6 50.3 L 94.4 52.1 L 97.8 54.1 L 99.28220863342285 55.119018363952634 L 99.3 55.1 L 102.0 51.8 L 104.6 48.7 L 107.1 45.5 L 109.6 42.4 L 111.9 39.3 L 114.1 36.1 L 116.2 33.0 L 116.79375 32.0 L 75.44117650985717 32.0 L 74.1 33.8 L 69.8 38.9 L 65.0 43.8 L 59.7 48.6 L 54.0 53.4 L 47.7 58.0 L 40.9 62.5 L 33.5 66.7 L 32.4 65.2 L 38.6 59.4 L 44.3 53.9 L 49.6 48.5 L 54.4 43.2 L 58.7 38.1 L 62.6 33.0 L 65.9 28.0 L 68.8 23.1 L 71.1 18.3 L 72.60369596481323 14.501189136505127 L 72.6 14.5 L 72.63225803375244 14.429032230377198 L 73.0 13.5 L 73.04574174880982 13.519368171691895 L 73.6 12.3 L 84.1 18.2 L 86.1 21.2 L 82.1612244606018 21.743279361724852 L 81.2 23.5 L 78.3442307472229 28.0 L 119.0 28.0 L 119.33402061462402 27.72164945602417 L 120.0 26.6 L 120.37525081634521 26.853957653045654 L 125.0 23.0 L 136.0 32.0 L 131.0 35.0 L 127.07272729873657 36.63636360168457 L 124.4 39.5 L 121.5 42.4 L 118.5 45.3 L 115.3 48.0 L 112.1 50.6 L 108.6 53.1 L 105.1 55.4 L 101.97755613327027 57.20773067474365 L 103.8 58.9 L 106.2 61.7 L 108.2 64.8 L 108.3 69.4 L 106.79696969985962 71.0 L 156.0 71.0 L 162.0 66.0 L 173.0 75.0 L 168.0 79.0 L 168.0 133.0 L 156.0 139.0 L 156.0 131.0 L 126.0 131.0 L 126.0 182.0 L 114.0 188.0 L 114.0 131.0 L 87.0 131.0 L 87.0 182.0 L 75.0 188.0 L 75.0 131.0 L 31.0 131.0 L 31.0 127.0 L 75.0 127.0 L 75.0 103.0 L 31.0 103.0 L 31.0 99.0 L 75.0 99.0 L 75.0 75.0 L 31.0 75.0 L 31.0 71.0 L 98.79032258987426 71.0 L 97.3 69.6 L 96.6 67.5 Z M 65.2 146.4 L 66.3 149.8 L 62.44242420196533 149.39393939971924 L 61.7 150.2 L 58.0 154.0 L 54.0 157.8 L 49.7 161.6 L 45.1 165.3 L 40.3 169.0 L 35.1 172.6 L 29.6 176.1 L 23.7 179.5 L 17.5 182.7 L 16.4 181.2 L 21.5 176.4 L 26.3 171.8 L 31.0 167.5 L 35.4 163.2 L 39.5 159.0 L 43.3 154.9 L 46.8 150.9 L 50.0 146.9 L 52.9 143.0 L 55.021841526031494 140.0137044906616 L 55.0 140.0 L 56.0 138.5 Z M 164.8 173.0 L 162.2 169.4 L 159.3 165.9 L 156.3 162.3 L 153.1 158.7 L 149.6 155.0 L 146.0 151.2 L 142.2 147.3 L 138.2 143.3 L 139.3 141.8 L 144.4 144.3 L 149.3 147.1 L 153.8 150.0 L 158.1 153.0 L 162.1 156.2 L 166.0 159.4 L 169.6 162.7 L 173.0 166.1 L 176.2 169.5 L 179.1 173.1 L 180.1 177.5 L 177.7 181.4 L 173.2 182.3 L 169.3 179.9 L 167.2 176.5 Z M 87.0 103.0 L 87.0 127.0 L 114.0 127.0 L 114.0 103.0 Z M 126.0 103.0 L 126.0 127.0 L 156.0 127.0 L 156.0 103.0 Z M 87.0 75.0 L 87.0 99.0 L 114.0 99.0 L 114.0 75.0 Z M 126.0 75.0 L 126.0 99.0 L 156.0 99.0 L 156.0 75.0 Z " />
</g>
</svg>
