<svg xmlns="http://www.w3.org/2000/svg" xmlns:xlink="http://www.w3.org/1999/xlink" version="1.1" baseProfile="full" viewBox="0 0 200 200" width="200" height="200">
<g fill="black">
<path d="M 168.0 103.7 L 171.0 105.7 L 168.0 107.5 L 168.0 146.5 L 156.0 152.5 L 156.0 146.5 L 123.0 146.5 L 123.0 154.0 L 166.8181818008423 154.0 L 175.0 145.0 L 185.0 154.0 L 185.0 158.0 L 164.0 158.0 L 164.0 181.6 L 152.0 187.6 L 152.0 158.0 L 123.0 158.0 L 123.0 182.7 L 111.0 188.7 L 111.0 136.5 L 123.0 142.5 L 156.0 142.5 L 156.0 101.7 Z M 48.9 166.9 L 47.9 170.4 L 46.2 173.6 L 44.0 176.4 L 41.3 178.8 L 38.3 180.8 L 34.8 182.5 L 31.0 184.0 L 26.8 185.2 L 22.2 186.1 L 17.2 187.1 L 16.7 185.4 L 21.3 183.5 L 25.2 181.2 L 28.6 179.0 L 31.4 176.8 L 33.6 174.7 L 35.3 172.6 L 36.4 170.7 L 36.9 169.0 L 37.1 167.4 L 37.03999996185303 166.56000003814697 L 37.0 166.5 L 37.0 158.0 L 16.0 158.0 L 16.0 154.0 L 77.0 154.0 L 77.0 146.5 L 43.0 146.5 L 31.0 152.5 L 31.0 101.7 L 43.0 103.7 L 46.0 105.7 L 43.0 107.5 L 43.0 142.5 L 77.0 142.5 L 83.0 137.5 L 94.0 146.5 L 89.0 150.5 L 89.0 182.7 L 77.0 188.7 L 77.0 158.0 L 49.0 158.0 L 49.0 166.5 L 48.74133329391479 166.8880000114441 Z M 73.1 95.3 L 124.8 95.3 L 130.8 90.3 L 141.8 99.3 L 136.8 103.3 L 136.8 135.3 L 124.8 141.3 L 124.8 135.3 L 73.1 135.3 L 61.1 141.3 L 61.1 89.3 Z M 73.1 122.8 L 73.1 131.3 L 124.8 131.3 L 124.8 122.8 Z M 73.1 111.0 L 73.1 118.8 L 124.8 118.8 L 124.8 111.0 Z M 73.1 99.3 L 73.1 107.0 L 124.8 107.0 L 124.8 99.3 Z M 87.0 83.5 L 85.8 81.9 L 84.7734154701233 80.72676057815552 L 83.8 81.0 L 77.8 82.4 L 71.7 83.6 L 65.4 84.7 L 58.9 85.7 L 52.2 86.7 L 45.3 87.7 L 38.3 88.7 L 31.1 89.6 L 27.72769727706909 90.01014490127564 L 25.9 93.3 L 23.7 90.5 L 20.8 78.7 L 22.8 78.5 L 30.2 78.2 L 37.4 78.0 L 39.61018476486206 77.90661191940308 L 43.6 75.6 L 49.6 72.1 L 54.80155639648437 68.84902725219726 L 52.0 68.6 L 50.0 67.1 L 47.8 65.6 L 45.4 64.1 L 42.8 62.6 L 40.0 61.1 L 33.8 58.1 L 30.4 56.5 L 26.8 54.8 L 23.0 53.5 L 23.4 51.7 L 27.5 52.1 L 31.5 52.3 L 35.3 52.7 L 38.9 53.2 L 40.729545497894286 53.51363639831543 L 42.1 52.6 L 44.8 50.4 L 47.3 48.2 L 49.7 46.2 L 52.0 44.3 L 54.1 42.4 L 56.1 40.6 L 57.9 38.8 L 59.5 37.1 L 60.242656230926514 36.25124998092652 L 60.1 36.1 L 60.76000003814697 35.660000038146975 L 60.9 35.5 L 60.9347222328186 35.54351854324341 L 61.0 35.5 L 68.4 44.9 L 68.7 48.5 L 64.45714282989502 46.95714282989502 L 63.8 47.3 L 61.3 48.5 L 58.7 49.6 L 55.9 50.7 L 53.0 51.9 L 49.9 52.9 L 46.7 54.0 L 45.24375 54.38547792434692 L 45.8 54.5 L 49.0 55.2 L 52.1 56.1 L 55.0 57.0 L 57.8 58.1 L 60.6 61.7 L 60.18893909454346 65.39954853057861 L 60.5 65.2 L 65.3 61.8 L 69.8 58.4 L 73.8 55.0 L 77.5 51.7 L 80.01139240264892 49.11012659072876 L 80.0 49.1 L 80.16666669845581 48.95 L 80.7 48.4 L 80.73593072891235 48.437662315368655 L 81.0 48.2 L 89.0 57.1 L 89.6 60.7 L 85.8 59.61428575515747 L 84.8 60.4 L 80.4 63.6 L 75.5 66.7 L 70.3 69.7 L 64.7 72.5 L 58.8 75.3 L 53.83636360168457 77.42727270126343 L 58.1 77.3 L 64.7 77.1 L 71.1 77.0 L 77.3 77.0 L 81.2306794166565 77.12887477874756 L 81.2 77.1 L 79.4 75.4 L 77.4 73.7 L 75.2 71.9 L 72.7 70.6 L 73.4 68.9 L 76.2 69.8 L 79.0 70.3 L 81.7 70.9 L 84.3 71.7 L 86.8 72.5 L 89.2 73.5 L 91.5 74.5 L 93.6 75.7 L 95.7 77.0 L 97.7 78.4 L 99.2 82.7 L 97.3 86.9 L 93.0 88.4 L 88.9 86.5 L 88.0 85.0 Z M 170.9 84.0 L 169.8 82.3 L 168.4 80.4 L 168.00396041870118 79.90495052337647 L 164.2 80.8 L 157.4 82.1 L 150.7 83.3 L 144.0 84.3 L 137.5 85.2 L 131.1 86.1 L 124.7 86.9 L 112.3 88.3 L 110.43265304565429 88.51785717010497 L 108.5 91.9 L 106.3 89.0 L 103.6 77.1 L 105.6 77.0 L 111.7 77.0 L 117.8 76.9 L 119.85835962295532 76.86732759475709 L 122.4 75.0 L 127.4 71.5 L 132.5 67.9 L 134.55882349014283 66.41764707565308 L 131.5 68.3 L 127.1 67.4 L 125.8 66.1 L 124.2 64.7 L 122.2 63.3 L 120.0 61.8 L 117.5 60.3 L 114.7 58.8 L 111.6 57.2 L 108.3 55.5 L 104.7 53.8 L 100.7 52.3 L 101.1 50.5 L 105.3 51.1 L 109.4 51.5 L 113.2 51.9 L 116.8 52.5 L 119.31851854324341 52.944444465637204 L 121.1 51.3 L 123.6 49.1 L 126.1 47.0 L 128.4 44.9 L 130.6 42.8 L 132.7 40.8 L 134.7 38.8 L 136.6 36.8 L 137.6396556854248 35.63803186416626 L 137.5 35.5 L 138.4 34.8 L 146.1 44.0 L 146.5 47.6 L 142.5178165435791 46.22433662414551 L 141.0 47.1 L 138.3 48.5 L 135.5 50.0 L 132.6 51.3 L 129.6 52.6 L 126.4 53.9 L 125.18121738433838 54.318956565856936 L 126.2 54.6 L 129.0 55.5 L 131.5 56.5 L 133.9 57.5 L 136.3 61.4 L 135.42056074142457 65.7971962928772 L 137.5 64.3 L 142.5 60.6 L 152.5 52.8 L 157.5 48.8 L 161.72918539047242 45.33206796646118 L 161.7 45.3 L 162.6 44.6 L 169.8 54.2 L 170.0 57.8 L 166.5380729675293 56.45369501113892 L 164.3 58.0 L 158.8 61.6 L 153.2 65.0 L 147.6 68.3 L 142.0 71.4 L 136.4 74.4 L 131.5503119468689 76.78230285644531 L 136.9 76.7 L 150.1 76.7 L 156.9 76.8 L 163.8 77.0 L 165.49552240371705 77.09552240371704 L 164.8 76.4 L 162.6 74.3 L 160.2 72.1 L 157.6 69.8 L 154.5 67.8 L 155.2 66.2 L 158.7 67.5 L 162.2 68.6 L 165.5 69.8 L 168.5 71.1 L 171.3 72.4 L 173.9 73.9 L 176.3 75.5 L 178.6 77.1 L 180.6 78.9 L 182.5 80.9 L 183.1 85.4 L 180.5 89.1 L 176.0 89.8 L 172.3 87.2 L 171.7 85.7 Z M 134.0 14.1 L 137.0 16.1 L 134.0 17.9 L 134.0 23.5 L 165.0 23.5 L 175.0 13.5 L 187.0 23.5 L 187.0 27.5 L 134.0 27.5 L 134.0 34.4 L 122.0 40.4 L 122.0 27.5 L 78.0 27.5 L 78.0 34.4 L 66.0 40.4 L 66.0 27.5 L 13.0 27.5 L 13.0 23.5 L 66.0 23.5 L 66.0 12.1 L 78.0 14.1 L 81.0 16.1 L 78.0 17.9 L 78.0 23.5 L 122.0 23.5 L 122.0 12.1 Z " />
</g>
</svg>
