<svg xmlns="http://www.w3.org/2000/svg" xmlns:xlink="http://www.w3.org/1999/xlink" version="1.1" baseProfile="full" viewBox="0 0 200 200" width="200" height="200">
<g fill="black">
<path d="M 159.0 120.8 L 154.0 123.8 L 151.9436122894287 124.65682821273803 L 139.57619047164917 176.6 L 161.0 176.6 L 171.0 166.6 L 183.0 176.6 L 183.0 180.6 L 15.0 180.6 L 15.0 176.6 L 54.301672267913816 176.6 L 68.29832773208618 120.8 L 34.0 120.8 L 34.0 116.8 L 142.0 116.8 L 148.0 111.8 Z M 80.59832773208618 120.8 L 66.60167226791381 176.6 L 127.30167226791382 176.6 L 141.2983277320862 120.8 Z M 14.0 95.5 L 51.0 95.5 L 51.0 70.0 L 22.0 70.0 L 22.0 66.0 L 51.0 66.0 L 51.0 40.5 L 17.0 40.5 L 17.0 36.5 L 51.0 36.5 L 51.0 14.5 L 63.0 16.5 L 66.0 18.5 L 63.0 20.3 L 63.0 36.5 L 72.0 36.5 L 82.0 26.5 L 94.0 36.5 L 94.0 40.5 L 63.0 40.5 L 63.0 66.0 L 69.0 66.0 L 79.0 56.0 L 91.0 66.0 L 91.0 70.0 L 63.0 70.0 L 63.0 95.5 L 75.0 95.5 L 85.0 85.5 L 97.0 95.5 L 97.0 99.5 L 14.0 99.5 Z M 103.0 95.5 L 137.0 95.5 L 137.0 70.0 L 109.0 70.0 L 109.0 66.0 L 137.0 66.0 L 137.0 40.5 L 106.0 40.5 L 106.0 36.5 L 137.0 36.5 L 137.0 14.5 L 149.0 16.5 L 152.0 18.5 L 149.0 20.3 L 149.0 36.5 L 161.0 36.5 L 171.0 26.5 L 183.0 36.5 L 183.0 40.5 L 149.0 40.5 L 149.0 66.0 L 156.0 66.0 L 166.0 56.0 L 178.0 66.0 L 178.0 70.0 L 149.0 70.0 L 149.0 95.5 L 164.0 95.5 L 174.0 85.5 L 186.0 95.5 L 186.0 99.5 L 103.0 99.5 Z " />
</g>
</svg>
