<svg xmlns="http://www.w3.org/2000/svg" xmlns:xlink="http://www.w3.org/1999/xlink" version="1.1" baseProfile="full" viewBox="0 0 200 200" width="200" height="200">
<g fill="black">
<path d="M 52.8 169.8 L 49.80557689666748 171.75288457870482 L 53.3 172.4 L 61.4 173.0 L 72.0 173.2 L 164.0 173.2 L 170.0 148.2 L 172.0 148.2 L 170.0 173.2 L 173.6 175.6 L 176.0 179.2 L 173.6 182.8 L 170.0 185.2 L 72.0 185.2 L 60.8 185.0 L 51.8 184.3 L 44.8 183.0 L 39.1 180.6 L 34.9 174.7 L 36.5 167.6 L 40.9 163.3 L 46.9 159.4 L 54.9 155.3 L 65.1 150.8 L 122.36731519699097 127.1 L 40.0 127.1 L 40.0 123.1 L 137.0 123.1 L 143.0 118.1 L 152.6349718093872 125.98315877914429 L 156.0 126.1 L 153.86185388565065 126.98697137832642 L 154.0 127.1 L 149.0 130.1 L 137.0 135.1 L 137.0 133.9818076133728 L 69.7 161.9 L 60.0 166.1 Z M 143.0 105.0 L 159.0 105.0 L 160.2 104.9 L 161.1 104.7 L 162.0 104.4 L 162.4 104.0 L 162.7 103.1 L 162.9 102.2 L 163.0 101.0 L 163.0 92.6 L 133.0 92.6 L 133.0 107.0 L 121.0 113.0 L 121.0 92.6 L 91.0 92.6 L 91.0 109.8 L 79.0 115.8 L 79.0 45.6 L 91.0 51.6 L 121.0 51.6 L 121.0 37.1 L 70.0 37.1 L 70.0 33.1 L 121.0 33.1 L 121.0 11.9 L 133.0 13.9 L 136.0 15.9 L 133.0 17.7 L 133.0 33.1 L 166.0 33.1 L 176.0 23.1 L 188.0 33.1 L 188.0 37.1 L 133.0 37.1 L 133.0 51.6 L 163.0 51.6 L 169.0 46.6 L 180.0 55.6 L 175.0 59.6 L 175.0 101.0 L 174.8 103.5 L 174.4 106.0 L 173.6 108.4 L 172.3 110.7 L 170.7 112.7 L 168.7 114.3 L 166.4 115.6 L 164.0 116.4 L 161.5 116.8 L 159.0 117.0 L 159.0 111.0 L 143.0 108.0 Z M 39.7 117.1 L 35.8 114.8 L 34.5 110.4 L 35.1 106.8 L 35.2 103.7 L 34.9 100.8 L 34.1 98.1 L 32.7 95.5 L 30.7 92.9 L 28.0 90.5 L 24.6 88.1 L 20.3 85.9 L 15.3 84.1 L 15.7 82.3 L 21.2 83.0 L 26.3 83.9 L 30.9 85.4 L 33.510094165802 86.73687753677368 L 34.0 86.1 L 36.6 82.9 L 39.9 79.0 L 43.7 74.5 L 48.2 69.3 L 53.3 63.5 L 59.2 56.9 L 65.8 49.8 L 73.2 42.1 L 74.6 43.3 L 68.8 52.2 L 63.4 60.3 L 58.5 67.5 L 54.2 73.9 L 50.5 79.6 L 47.4 84.5 L 44.9 88.6 L 43.0 92.0 L 41.99418601989746 94.01162786483765 L 44.0 97.5 L 45.6 101.9 L 46.4 106.8 L 46.4 111.9 L 44.1 115.9 Z M 91.0 74.1 L 91.0 88.6 L 121.0 88.6 L 121.0 74.1 Z M 133.0 74.1 L 133.0 88.6 L 163.0 88.6 L 163.0 74.1 Z M 91.0 55.6 L 91.0 70.1 L 121.0 70.1 L 121.0 55.6 Z M 133.0 55.6 L 133.0 70.1 L 163.0 70.1 L 163.0 55.6 Z M 35.4 54.6 L 34.0 53.3 L 32.2 51.9 L 30.0 50.5 L 27.4 49.0 L 24.5 47.5 L 21.2 46.0 L 17.7 44.4 L 13.7 43.2 L 14.0 41.4 L 18.2 41.9 L 22.2 42.0 L 26.0 42.3 L 29.5 42.8 L 32.7 43.4 L 35.7 44.1 L 38.5 45.0 L 41.0 45.9 L 43.4 47.1 L 45.6 48.6 L 47.2 52.9 L 45.5 57.1 L 41.2 58.7 L 37.0 56.9 L 36.4 55.9 Z M 157.5 27.1 L 156.7 25.7 L 155.5 24.2 L 154.1 22.6 L 152.3 21.0 L 150.3 19.3 L 148.0 17.5 L 145.5 15.6 L 142.6 14.1 L 143.2 12.4 L 146.4 13.4 L 149.6 14.0 L 152.6 14.7 L 155.4 15.5 L 158.0 16.4 L 160.4 17.4 L 162.6 18.5 L 164.7 19.8 L 166.6 21.2 L 168.4 22.8 L 169.1 27.3 L 166.6 31.1 L 162.1 31.9 L 158.3 29.4 L 158.0 28.3 Z M 50.0 26.6 L 48.5 25.3 L 46.7 23.8 L 44.6 22.4 L 42.1 20.9 L 39.4 19.4 L 36.3 17.9 L 33.0 16.3 L 29.3 15.1 L 29.7 13.3 L 33.6 13.8 L 37.4 14.0 L 40.9 14.3 L 44.2 14.8 L 47.4 15.4 L 50.3 16.1 L 53.0 16.9 L 55.5 17.9 L 57.9 19.1 L 60.2 20.4 L 62.0 24.6 L 60.4 28.9 L 56.2 30.7 L 51.9 29.1 L 51.1 27.9 Z " />
</g>
</svg>
