<svg xmlns="http://www.w3.org/2000/svg" xmlns:xlink="http://www.w3.org/1999/xlink" version="1.1" baseProfile="full" viewBox="0 0 200 200" width="200" height="200">
<g fill="black">
<path d="M 175.9 111.1 L 174.9 107.8 L 173.9 104.6 L 172.8 101.5 L 171.7 98.5 L 170.6 95.6 L 169.4 92.7 L 168.69122810363768 91.04619884490967 L 166.8 96.9 L 164.5 102.8 L 161.9 108.1 L 159.1 112.9 L 156.0 117.1 L 154.1157480239868 118.98425197601318 L 156.1 123.3 L 160.2 131.3 L 164.5 138.7 L 169.0 145.6 L 173.6 151.8 L 178.4 157.5 L 183.4 162.5 L 188.6 167.0 L 190.6 168.8 L 179.8 176.9 L 174.4 171.2 L 169.3 165.0 L 164.6 158.2 L 160.3 151.0 L 156.3 143.2 L 152.7 134.8 L 149.4 126.0 L 149.1 124.99285717010498 L 149.1 183.0 L 137.1 189.0 L 137.1 127.26170215606689 L 136.8 127.9 L 131.4 137.3 L 125.3 146.1 L 118.6 154.3 L 111.2 162.0 L 103.1 168.9 L 94.4 175.2 L 84.9 180.7 L 84.0 179.2 L 92.1 172.2 L 99.6 165.0 L 106.5 157.4 L 112.7 149.6 L 118.4 141.3 L 123.4 132.6 L 127.8 123.5 L 131.5 114.0 L 132.27511663436889 111.57776050567627 L 130.8 112.8 L 126.3 112.3 L 123.4 108.8 L 123.0 106.4 L 122.6 104.1 L 122.1 101.6 L 121.4 99.1 L 120.7 96.4 L 119.8 93.8 L 118.8 91.0 L 118.02788457870483 88.96442308425904 L 117.2 92.0 L 114.7 99.4 L 112.1 106.3 L 109.1 112.9 L 105.9 118.9 L 102.3 124.4 L 98.3 129.4 L 96.8 128.5 L 98.9 122.7 L 101.0 116.7 L 103.0 110.4 L 104.9 103.9 L 106.6 97.0 L 108.1 89.8 L 109.5 82.2 L 110.7 74.3 L 111.7 65.9 L 112.40696058273315 58.30017404556274 L 112.4 58.3 L 112.7 55.2 L 124.4 58.6 L 127.2 61.0 L 123.78619756698609 62.54587278366089 L 123.0 67.6 L 121.3 76.1 L 119.3111554145813 84.25426292419434 L 121.1 85.9 L 123.3 88.2 L 125.4 90.5 L 127.3 92.9 L 129.1 95.3 L 132.3 100.3 L 133.6 102.8 L 134.50487804412842 104.60975608825683 L 134.7 104.0 L 137.1 94.01599998474121 L 137.1 48.0 L 99.3 48.0 L 99.3 44.0 L 137.1 44.0 L 137.1 13.0 L 149.1 15.0 L 152.1 17.0 L 149.1 18.8 L 149.1 44.0 L 164.8 44.0 L 174.8 34.0 L 186.8 44.0 L 186.8 48.0 L 149.1 48.0 L 149.1 107.52307691574097 L 152.1 114.6 L 152.53444728851318 115.54492292404174 L 152.7 115.1 L 154.3 110.6 L 155.9 105.7 L 157.3 100.3 L 158.7 94.5 L 159.9 88.3 L 160.9 81.5 L 161.9 74.3 L 162.6 66.6 L 163.22313785552979 59.30038566589356 L 163.2 59.3 L 163.5 56.2 L 175.2 59.5 L 178.0 61.8 L 174.60318183898926 63.40227270126343 L 173.9 68.0 L 172.5 76.0 L 170.8 83.5 L 169.67941608428956 87.56948909759521 L 170.4 88.2 L 172.9 90.2 L 175.3 92.5 L 177.5 95.1 L 179.7 97.8 L 181.7 100.8 L 183.7 103.9 L 185.5 107.2 L 187.3 110.6 L 188.9 114.2 L 188.6 118.8 L 185.1 121.8 L 180.6 121.4 L 177.6 118.0 L 176.7 114.5 Z M 63.6 156.0 L 71.6 156.0 L 72.8 155.9 L 73.7 155.7 L 74.6 155.4 L 75.0 155.0 L 75.3 154.1 L 75.5 153.2 L 75.6 152.0 L 75.6 83.0 L 58.7 83.0 L 58.7 183.0 L 46.7 189.0 L 46.7 83.0 L 30.6 83.0 L 30.6 165.0 L 18.6 171.0 L 18.6 73.0 L 30.6 79.0 L 46.7 79.0 L 46.7 51.0 L 58.7 53.0 L 61.7 55.0 L 58.7 56.8 L 58.7 79.0 L 75.6 79.0 L 81.6 74.0 L 92.6 83.0 L 87.6 87.0 L 87.6 152.0 L 87.4 154.5 L 87.0 157.0 L 86.2 159.4 L 84.9 161.7 L 83.3 163.7 L 81.3 165.3 L 79.0 166.6 L 76.6 167.4 L 74.1 167.8 L 71.6 168.0 L 71.6 162.0 L 63.6 159.0 Z M 11.9 47.0 L 46.7 47.0 L 46.7 14.0 L 58.7 16.0 L 61.7 18.0 L 58.7 19.8 L 58.7 47.0 L 73.2 47.0 L 83.2 37.0 L 95.2 47.0 L 95.2 51.0 L 11.9 51.0 Z " />
</g>
</svg>
