<svg xmlns="http://www.w3.org/2000/svg" xmlns:xlink="http://www.w3.org/1999/xlink" version="1.1" baseProfile="full" viewBox="0 0 200 200" width="200" height="200">
<g fill="black">
<path d="M 63.7 17.7 L 65.9 20.5 L 62.373267364501956 21.381683158874512 L 59.7 28.8 L 55.5 39.7 L 51.1 50.4 L 46.5 60.8 L 41.7 70.9 L 40.577209281921384 73.07953491210938 L 46.1 74.0 L 49.1 76.0 L 46.1 77.8 L 46.1 183.0 L 34.1 189.0 L 34.1 85.41538457870483 L 31.4 90.4 L 25.9 99.8 L 20.0 108.8 L 13.8 117.4 L 12.3 116.5 L 16.7 106.9 L 25.5 87.5 L 29.8 77.6 L 33.9 67.5 L 37.9 57.2 L 41.7 46.7 L 45.4 36.0 L 48.9 25.2 L 52.02271842956543 15.005242729187012 L 52.0 15.0 L 52.7 12.5 Z M 97.8 17.7 L 100.1 20.5 L 96.46967229843139 21.391659450531005 L 93.8 28.8 L 89.6 39.7 L 85.3 50.4 L 80.7 60.8 L 75.9 70.9 L 74.79751548767089 73.082919216156 L 80.3 74.0 L 83.3 76.0 L 80.3 77.8 L 80.3 183.0 L 68.3 189.0 L 68.3 85.50943393707276 L 65.6 90.4 L 60.2 99.8 L 54.3 108.8 L 48.2 117.4 L 46.6 116.5 L 51.0 106.9 L 59.8 87.5 L 64.0 77.6 L 68.1 67.5 L 72.1 57.2 L 75.9 46.7 L 79.6 36.0 L 83.1 25.2 L 86.13035020828247 15.007003879547119 L 86.1 15.0 L 86.9 12.5 Z M 140.6 124.6 L 140.14399995803834 127.0 L 163.1 127.0 L 173.1 117.0 L 185.1 127.0 L 185.1 131.0 L 139.73999996185302 131.0 L 141.0 133.8 L 143.8 139.6 L 147.0 145.0 L 150.6 150.2 L 154.7 155.1 L 159.3 159.7 L 164.4 164.2 L 170.1 168.4 L 176.3 172.4 L 183.1 176.2 L 187.7 178.9 L 176.5 187.7 L 169.4 182.8 L 162.9 177.7 L 157.0 172.4 L 151.9 166.7 L 147.4 160.8 L 143.6 154.7 L 140.6 148.3 L 138.3 141.7 L 137.58810577392578 138.29307737350464 L 135.9 143.9 L 132.1 152.4 L 127.5 160.2 L 121.9 167.2 L 115.5 173.3 L 108.2 178.6 L 100.2 182.9 L 91.3 186.4 L 81.7 188.8 L 81.1 187.1 L 89.8 182.9 L 97.6 178.2 L 104.4 173.2 L 110.3 167.7 L 115.4 161.7 L 119.6 155.2 L 123.0 148.2 L 125.7 140.5 L 127.5 132.2 L 127.64831457138061 131.0 L 92.1 131.0 L 92.1 127.0 L 128.14269666671754 127.0 L 128.6 123.3 L 128.6 97.0 L 114.11568632125855 97.0 L 113.9 97.5 L 111.4 102.4 L 108.7 107.0 L 105.8 111.2 L 102.6 115.1 L 99.1 118.6 L 95.4 121.5 L 94.0 120.4 L 96.1 116.3 L 98.2 112.1 L 100.1 107.9 L 101.9 103.5 L 103.6 99.0 L 105.2 94.2 L 106.6 89.2 L 107.9 83.9 L 109.0 78.5 L 109.75684757232666 73.70663223266601 L 109.7 73.7 L 110.3 70.9 L 121.7 75.1 L 124.2 77.7 L 120.61215991973877 78.93943567276001 L 120.0 81.1 L 118.2 86.9 L 116.1 92.4 L 115.84117650985718 93.0 L 153.4 93.0 L 163.4 83.0 L 175.4 93.0 L 175.4 97.0 L 140.6 97.0 L 140.6 124.0 L 140.22694301605225 124.55958547592164 Z M 168.6 61.8 L 166.6 57.4 L 166.01290321350098 56.225806427001956 L 162.7 57.4 L 154.8 59.8 L 147.0 62.0 L 139.3 63.9 L 131.7 65.7 L 124.2 67.2 L 116.8 68.7 L 102.4 71.1 L 99.47226886749267 71.47642259597778 L 97.6 74.9 L 95.4 72.0 L 92.3 60.3 L 94.3 60.1 L 108.3 59.3 L 114.21304349899292 58.807246398925784 L 115.9 52.2 L 117.2 47.7 L 118.5 43.1 L 119.7 38.5 L 122.1 29.5 L 123.2 24.9 L 124.2 20.4 L 124.9793909072876 16.814801692962646 L 124.9 16.8 L 125.6 14.2 L 136.7 19.0 L 139.1 21.8 L 135.3794520378113 22.796575355529786 L 135.1 23.6 L 133.4 28.1 L 129.6 37.1 L 127.6 41.5 L 125.4 45.8 L 123.1 50.1 L 120.7 54.3 L 118.0 58.4 L 117.95238780975342 58.468017387390134 L 130.3 57.3 L 138.0 56.4 L 145.8 55.5 L 153.7 54.6 L 161.9 53.7 L 164.6189655303955 53.437931060791016 L 164.5 53.2 L 159.9 45.2 L 157.4 41.4 L 154.8 37.7 L 152.2 33.9 L 149.5 30.2 L 150.7 28.9 L 154.7 31.3 L 158.6 34.1 L 162.3 37.2 L 165.8 40.6 L 169.1 44.3 L 172.2 48.2 L 175.2 52.4 L 178.0 56.8 L 180.7 61.4 L 183.2 66.2 L 183.2 70.8 L 180.0 74.1 L 175.5 74.1 L 172.2 70.9 L 170.4 66.3 Z " />
</g>
</svg>
