<svg xmlns="http://www.w3.org/2000/svg" xmlns:xlink="http://www.w3.org/1999/xlink" version="1.1" baseProfile="full" viewBox="0 0 200 200" width="200" height="200">
<g fill="black">
<path d="M 32.3 83.8 L 35.1 85.8 L 32.3 87.55 L 32.3 171.2 L 164.51818180084229 171.2 L 172.7 162.2 L 182.7 171.2 L 182.7 175.2 L 32.3 175.2 L 32.3 182.2 L 21.3 187.7 L 21.3 81.8 Z M 115.9 115.1 L 145.8 115.1 L 151.8 110.1 L 162.8 119.1 L 157.8 123.1 L 157.8 155.8 L 145.8 161.8 L 145.8 153.8 L 115.9 153.8 L 115.9 156.8 L 104.9 162.3 L 104.9 109.6 Z M 53.6 115.1 L 84.0 115.1 L 89.5 110.1 L 100.0 119.1 L 95.0 122.6 L 95.0 155.8 L 84.0 161.3 L 84.0 153.8 L 53.6 153.8 L 53.6 156.8 L 42.6 162.3 L 42.6 109.6 Z M 115.9 119.1 L 115.9 149.8 L 145.8 149.8 L 145.8 119.1 Z M 53.6 119.1 L 53.6 149.8 L 84.0 149.8 L 84.0 119.1 Z M 73.6 69.8 L 125.5 69.8 L 131.5 64.8 L 142.5 73.8 L 137.5 77.8 L 137.5 104.8 L 125.5 110.8 L 125.5 104.8 L 73.6 104.8 L 61.6 110.8 L 61.6 63.8 Z M 73.6 73.8 L 73.6 100.8 L 125.5 100.8 L 125.5 73.8 Z M 160.7 74.5 L 153.5 70.7 L 146.5 66.6 L 139.9 62.3 L 133.5 57.7 L 127.5 53.0 L 121.8 47.9 L 116.6 42.6 L 112.37931032180786 37.5 L 91.7444444656372 37.5 L 88.9 40.7 L 81.4 47.5 L 73.0 53.9 L 63.6 60.0 L 53.3 65.8 L 41.9 71.2 L 29.5 76.2 L 16.0 80.7 L 15.3 79.1 L 27.9 72.7 L 39.5 66.4 L 50.0 60.1 L 59.5 53.7 L 67.9 47.2 L 75.2 40.6 L 78.11492538452148 37.5 L 19.6 37.5 L 19.6 33.5 L 81.80588235855103 33.5 L 86.7 27.1 L 90.9 20.2 L 94.0 13.3 L 94.02369260787964 13.310245418548584 L 94.6 12.1 L 105.1 18.1 L 107.0 21.1 L 103.1319622039795 21.63352241516113 L 100.7 26.0 L 95.3 33.5 L 158.3 33.5 L 168.3 23.5 L 180.3 33.5 L 180.3 37.5 L 116.27948713302612 37.5 L 119.3 39.4 L 125.4 43.3 L 131.7 47.1 L 138.1 50.7 L 144.7 54.2 L 151.4 57.6 L 158.4 60.8 L 165.6 63.8 L 173.0 66.6 L 180.7 69.3 L 187.5 71.9 L 176.0 81.6 L 168.2 78.2 Z " />
</g>
</svg>
