<svg xmlns="http://www.w3.org/2000/svg" xmlns:xlink="http://www.w3.org/1999/xlink" version="1.1" baseProfile="full" viewBox="0 0 200 200" width="200" height="200">
<g fill="black">
<path d="M 161.1 180.2 L 159.3 181.8 L 157.3 183.1 L 155.2 184.3 L 153.0 185.3 L 150.8 186.0 L 148.4 186.5 L 146.0 186.8 L 143.6 187.0 L 143.6 181.0 L 123.6 178.0 L 123.6 175.0 L 143.6 175.0 L 145.0 174.9 L 146.4 174.7 L 148.8 174.1 L 149.9 173.6 L 150.9 173.0 L 151.9 172.3 L 152.9 171.5 L 153.8 170.5 L 154.7 169.4 L 157.0 165.6 L 159.2 160.1 L 161.3 153.0 L 163.1 144.4 L 164.7 134.2 L 165.9 122.5 L 166.9 109.3 L 167.5 94.7 L 167.8 78.6 L 167.88863639831544 63.0 L 130.43131313323974 63.0 L 128.8 80.0 L 125.8 98.5 L 121.6 115.6 L 116.4 131.4 L 110.1 145.7 L 102.6 158.5 L 94.1 169.9 L 84.4 179.6 L 73.6 187.7 L 72.5 186.2 L 81.7 176.9 L 89.8 166.6 L 97.0 155.1 L 103.2 142.5 L 108.4 128.5 L 112.7 113.3 L 115.9 96.7 L 118.1 78.8 L 119.0875 63.0 L 79.4 63.0 L 79.4 59.0 L 119.3087378501892 59.0 L 119.6 39.0 L 119.6 16.0 L 131.6 18.0 L 134.6 20.0 L 131.6 21.8 L 131.6 39.0 L 130.75094337463378 59.0 L 167.9 59.0 L 173.9 54.0 L 184.9 63.0 L 179.9 66.0 L 179.8 66.04166669845581 L 179.8 78.7 L 179.5 95.1 L 178.8 110.0 L 177.9 123.6 L 176.6 135.7 L 174.9 146.5 L 173.0 155.9 L 170.6 164.0 L 167.8 170.9 L 164.4 176.6 L 162.8 178.5 Z M 37.4 179.9 L 33.4 177.6 L 32.2 173.2 L 32.9 167.9 L 33.1 162.7 L 32.8 157.5 L 31.8 152.4 L 30.4 147.3 L 28.3 142.2 L 25.6 137.1 L 22.4 131.9 L 18.6 126.7 L 14.2 121.3 L 15.3 119.9 L 21.2 124.0 L 26.5 128.5 L 28.95776252746582 131.12161340713502 L 29.4 130.6 L 33.5 125.3 L 37.9 119.1 L 42.6 112.2 L 47.6 104.6 L 52.8 96.2 L 58.3 87.1 L 64.1 77.2 L 70.3 66.7 L 76.9 55.6 L 78.5 56.3 L 73.7 68.4 L 68.9 79.7 L 64.1 90.2 L 59.4 99.9 L 54.9 108.8 L 50.6 117.0 L 46.4 124.5 L 42.4 131.3 L 38.6 137.3 L 36.234621620178224 140.75217390060425 L 38.1 143.9 L 40.7 149.6 L 42.6 155.6 L 43.8 161.8 L 44.3 168.2 L 44.1 174.8 L 41.8 178.7 Z M 44.6 53.1 L 42.9 50.6 L 40.9 48.0 L 38.7 45.5 L 36.1 43.0 L 33.3 40.5 L 30.3 38.0 L 26.9 35.5 L 23.2 33.2 L 23.9 31.5 L 28.2 32.8 L 32.4 34.0 L 36.3 35.6 L 40.1 37.3 L 43.6 39.3 L 46.9 41.5 L 49.9 43.9 L 52.7 46.5 L 55.3 49.3 L 57.7 52.4 L 58.2 56.9 L 55.4 60.6 L 50.9 61.1 L 47.3 58.3 L 46.0 55.7 Z " />
</g>
</svg>
