<svg xmlns="http://www.w3.org/2000/svg" xmlns:xlink="http://www.w3.org/1999/xlink" version="1.1" baseProfile="full" viewBox="0 0 200 200" width="200" height="200">
<g fill="black">
<path d="M 147.9 176.0 L 167.9 176.0 L 169.1 175.9 L 170.0 175.7 L 170.9 175.4 L 171.3 175.0 L 171.6 174.1 L 171.8 173.2 L 171.9 172.0 L 171.9 14.0 L 183.9 16.0 L 186.9 18.0 L 183.9 19.8 L 183.9 172.0 L 183.7 174.5 L 183.3 177.0 L 182.5 179.4 L 181.2 181.7 L 179.6 183.7 L 177.6 185.3 L 175.3 186.6 L 172.9 187.4 L 170.4 187.8 L 167.9 188.0 L 167.9 182.0 L 147.9 179.0 Z M 38.8 122.4 L 38.0 120.3 L 37.1 118.1 L 36.1 115.9 L 34.9 113.7 L 33.5 111.5 L 32.1 109.2 L 31.148037719726563 107.8315541267395 L 29.1 112.3 L 25.5 119.3 L 21.6 125.9 L 17.2 132.2 L 15.6 131.4 L 18.2 124.3 L 23.0 109.9 L 25.3 102.5 L 27.4 95.0 L 29.4 87.3 L 31.1 79.5 L 32.7 71.5 L 34.1 63.3 L 35.2 54.9 L 35.26493864059448 54.91036834716797 L 35.6 52.9 L 47.1 56.8 L 49.7 59.3 L 46.25137805938721 60.64113073348999 L 45.2 65.4 L 43.2 73.8 L 41.29756097793579 80.3 L 56.9 80.3 L 62.9 75.3 L 73.9 84.3 L 68.9 87.3 L 68.2104009628296 87.58733291625977 L 66.6 98.3 L 63.6 112.5 L 59.9 125.7 L 55.7 137.9 L 50.8 149.0 L 45.2 159.1 L 38.9 168.0 L 32.0 175.8 L 24.5 182.3 L 16.3 187.5 L 15.3 186.0 L 21.9 179.5 L 28.0 172.3 L 33.6 164.2 L 38.6 155.4 L 43.0 145.6 L 46.9 134.8 L 48.57053508758545 129.00226078033447 L 47.7 129.9 L 43.1 129.8 L 39.9 126.6 L 39.4 124.5 Z M 90.6 183.4 L 88.1 183.0 L 85.7 182.2 L 83.4 180.9 L 81.4 179.3 L 79.8 177.3 L 78.6 175.0 L 77.7 172.6 L 77.3 170.1 L 77.2 167.6 L 77.2 51.8 L 89.2 53.8 L 92.2 55.8 L 89.2 57.6 L 89.2 109.61428575515747 L 89.8 109.1 L 93.5 106.0 L 97.1 102.9 L 100.7 99.6 L 104.3 96.1 L 107.9 92.5 L 111.5 88.7 L 115.1 84.7 L 118.05041694641113 81.33980283737182 L 118.0 81.3 L 119.0 80.2 L 127.5 88.8 L 128.3 92.3 L 124.57950639724731 91.51673822402954 L 123.2 92.8 L 118.9 96.5 L 114.6 100.0 L 110.3 103.3 L 105.9 106.3 L 101.5 109.0 L 97.1 111.5 L 92.7 113.7 L 89.2 115.0222222328186 L 89.2 168.8 L 89.4 169.7 L 89.6 170.3 L 89.8 170.6 L 89.9 170.8 L 90.1 171.0 L 91.0 171.3 L 91.9 171.5 L 93.2 171.6 L 120.7 171.6 L 126.7 146.6 L 128.7 146.6 L 126.7 171.6 L 130.3 174.0 L 132.7 177.6 L 130.3 181.2 L 126.7 183.6 L 93.2 183.6 Z M 151.0 31.0 L 154.0 33.0 L 151.0 34.8 L 151.0 149.0 L 139.0 155.0 L 139.0 29.0 Z M 40.072151851654056 84.3 L 38.3 89.9 L 35.5 97.6 L 32.4 105.1 L 32.381355953216556 105.14067792892456 L 34.7 106.3 L 37.2 107.8 L 39.6 109.5 L 41.8 111.2 L 43.9 113.2 L 45.9 115.2 L 47.7 117.3 L 49.4 119.6 L 50.619441223144534 121.55110597610474 L 53.1 110.3 L 55.3 96.5 L 56.70135135650635 84.3 Z M 14.2 63.1 L 13.0 58.7 L 15.1 54.7 L 16.2 54.2 L 17.4 53.3 L 18.7 51.8 L 19.9 49.9 L 21.1 47.4 L 22.2 44.4 L 23.3 41.0 L 24.2 37.1 L 25.1 32.8 L 25.5 28.1 L 27.3 28.0 L 27.8 32.9 L 28.204444408416748 35.5 L 66.0 35.5 L 66.0 11.8 L 78.0 13.8 L 81.0 15.8 L 78.0 17.6 L 78.0 35.5 L 116.1 35.5 L 122.1 30.5 L 133.1 39.5 L 128.1 42.5 L 124.4744680404663 44.010638332366945 L 123.4 45.3 L 121.8 47.2 L 118.2 51.2 L 116.2 53.4 L 114.1 55.5 L 111.7 57.8 L 109.7 60.3 L 108.2 59.3 L 109.7 56.4 L 110.7 53.4 L 111.8 50.6 L 112.7 47.9 L 113.6 45.4 L 114.4 43.0 L 115.2 40.8 L 115.57142858505249 39.5 L 28.65 39.5 L 28.8 41.6 L 28.8 45.5 L 28.6 49.2 L 28.1 52.6 L 27.3 55.8 L 26.2 58.8 L 24.6 61.6 L 22.6 64.1 L 18.2 65.3 Z " />
</g>
</svg>
