<svg xmlns="http://www.w3.org/2000/svg" xmlns:xlink="http://www.w3.org/1999/xlink" version="1.1" baseProfile="full" viewBox="0 0 200 200" width="200" height="200">
<g fill="black">
<path d="M 181.0 145.0 L 183.0 145.0 L 181.0 170.0 L 184.6 172.4 L 187.0 176.0 L 184.6 179.6 L 181.0 182.0 L 126.0 182.0 L 123.4 181.8 L 120.9 181.4 L 118.5 180.6 L 116.2 179.3 L 114.2 177.7 L 112.6 175.7 L 111.3 173.4 L 110.5 171.0 L 110.1 168.5 L 110.0 166.0 L 110.0 107.84285717010498 L 101.3 121.1 L 89.7 135.9 L 77.0 149.3 L 63.4 161.5 L 48.7 172.4 L 33.0 181.8 L 16.3 189.8 L 15.6 188.1 L 31.1 178.5 L 45.6 168.0 L 59.1 156.5 L 71.6 144.1 L 79.03437299728394 135.30804586410522 L 75.4 133.4 L 73.6 130.8 L 71.4 128.1 L 68.8 125.1 L 65.8 121.9 L 62.3 118.6 L 58.4 115.0 L 54.2 111.2 L 49.5 107.2 L 44.6 102.9 L 39.3 98.2 L 40.3 96.7 L 46.7 99.7 L 52.6 102.8 L 54.1578537940979 103.69432344436646 L 57.8 97.9 L 63.9 88.1 L 69.52318258285523 79.27742042541504 L 65.7 80.7 L 61.5 78.9 L 59.5 76.2 L 57.3 73.6 L 54.9 71.0 L 52.3 68.4 L 49.6 65.8 L 46.6 63.1 L 43.6 60.5 L 40.4 57.7 L 37.0 54.9 L 33.4 52.2 L 34.3 50.6 L 38.5 52.2 L 42.8 53.7 L 43.86495885848999 54.15260753631592 L 44.0 53.8 L 45.9 49.3 L 47.8 44.9 L 49.8 40.6 L 51.7 36.3 L 53.7 32.1 L 57.5 23.9 L 59.4 19.9 L 60.779136657714844 16.835251808166504 L 60.7 16.8 L 61.060344791412355 16.210344791412354 L 61.2 15.9 L 61.23738136291504 15.920648765563964 L 61.8 15.0 L 71.7 21.7 L 73.4 24.9 L 69.53794088363648 25.033174419403075 L 69.3 25.4 L 66.8 29.2 L 64.2 32.9 L 61.6 36.7 L 58.9 40.5 L 56.1 44.3 L 53.3 48.2 L 50.2 52.0 L 47.12075471878052 55.560377311706546 L 50.6 57.3 L 54.3 59.3 L 57.8 61.4 L 61.1 63.5 L 64.3 65.8 L 67.4 68.2 L 70.3 70.7 L 71.8 75.0 L 70.86220836639404 77.13608083724975 L 75.0 70.5 L 79.8 62.6 L 84.1 55.3 L 87.9 48.6 L 91.2 42.5 L 93.9 37.0 L 96.1 32.2 L 96.14014873504638 32.21970262527466 L 96.7 31.1 L 106.9 37.5 L 108.7 40.7 L 104.82226152420044 40.96289749145508 L 103.9 42.5 L 100.5 47.9 L 96.5 53.9 L 91.9 60.3 L 86.9 67.3 L 81.2 74.8 L 75.1 82.8 L 68.3 91.2 L 60.8 100.2 L 56.55698928833008 105.0716049194336 L 58.0 105.9 L 63.0 108.9 L 67.6 111.9 L 71.8 114.8 L 75.6 117.7 L 79.0 120.5 L 82.1 123.2 L 84.8 125.9 L 85.24218454360962 127.52134342193604 L 93.6 115.9 L 103.2 100.1 L 111.7 83.2 L 119.3 65.2 L 125.9 46.0 L 125.91807231903076 46.006024074554446 L 126.4 44.5 L 137.3 49.8 L 139.6 52.6 L 135.9265425682068 53.43780603408813 L 129.9 69.4 L 121.4 87.9 L 116.29361705780029 97.04893617630005 L 122.0 98.0 L 125.0 100.0 L 122.0 101.8 L 122.0 167.2 L 122.2 168.1 L 122.5 169.0 L 122.9 169.4 L 123.8 169.7 L 124.7 169.9 L 126.0 170.0 L 175.0 170.0 Z " />
</g>
</svg>
