<svg xmlns="http://www.w3.org/2000/svg" xmlns:xlink="http://www.w3.org/1999/xlink" version="1.1" baseProfile="full" viewBox="0 0 200 200" width="200" height="200">
<g fill="black">
<path d="M 106.7 176.2 L 126.7 176.2 L 127.9 176.1 L 128.8 175.9 L 129.7 175.6 L 130.1 175.2 L 130.4 174.3 L 130.6 173.4 L 130.7 172.2 L 130.7 157.1 L 15.9 157.1 L 15.9 153.1 L 130.7 153.1 L 130.7 141.4 L 142.7 143.4 L 145.7 145.4 L 142.7 147.2 L 142.7 153.1 L 163.0 153.1 L 168.52941179275513 147.57058820724487 L 165.0 147.1 L 163.1 145.6 L 160.9 144.1 L 158.5 142.5 L 155.7 141.0 L 152.6 139.5 L 149.3 138.0 L 145.6 136.5 L 141.7 134.9 L 137.6 133.3 L 133.1 131.9 L 133.4 130.1 L 138.1 130.4 L 142.7 130.5 L 147.0 130.9 L 151.1 131.4 L 155.0 132.0 L 158.6 132.7 L 162.1 133.6 L 165.3 134.6 L 168.4 135.6 L 171.3 136.9 L 173.9 140.6 L 173.45245904922484 143.47704916000367 L 185.0 153.1 L 185.0 157.1 L 142.7 157.1 L 142.7 172.2 L 142.5 174.7 L 142.1 177.2 L 141.3 179.6 L 140.0 181.9 L 138.4 183.9 L 136.4 185.5 L 134.1 186.8 L 131.7 187.6 L 129.2 188.0 L 126.7 188.2 L 126.7 182.2 L 106.7 179.2 Z M 73.3 175.7 L 72.0 173.9 L 70.4 172.1 L 68.7 170.3 L 66.9 168.5 L 64.8 166.7 L 62.6 164.9 L 60.2 163.0 L 57.5 161.6 L 58.1 159.9 L 61.2 160.8 L 64.3 161.3 L 67.2 162.1 L 70.1 163.0 L 72.8 164.1 L 75.4 165.3 L 77.9 166.6 L 80.3 168.1 L 82.6 169.7 L 84.7 171.5 L 86.0 175.9 L 84.0 179.9 L 79.6 181.3 L 75.5 179.2 L 74.5 177.4 Z M 163.4 59.8 L 155.2 56.5 L 147.3 53.0 L 139.7 49.1 L 132.3 44.9 L 125.2 40.3 L 118.4 35.4 L 112.1 30.0 L 107.87087383270264 25.770873832702637 L 105.9 27.3 L 99.5 32.2 L 92.4 36.9 L 84.7 41.4 L 76.3 45.7 L 67.3 49.8 L 57.6 53.6 L 47.3 57.3 L 36.3 60.7 L 28.979329586029053 62.639664840698245 L 38.7 67.5 L 64.9 67.5 L 65.50810813903809 66.99324321746826 L 65.8 66.3 L 66.1101351737976 66.49155406951904 L 70.9 62.5 L 81.9 71.5 L 76.9 74.5 L 72.44285717010499 76.35714282989503 L 72.1 76.7 L 69.9 78.7 L 67.5 80.7 L 65.0 82.8 L 62.2 84.8 L 59.3 86.8 L 56.1 88.7 L 52.7 90.6 L 50.970508098602295 91.71908302307129 L 54.4 93.2 L 58.5 94.8 L 62.1 96.4 L 65.3 98.0 L 68.1 99.8 L 70.4 101.7 L 72.4 103.8 L 73.9 106.5 L 74.6 109.7 L 74.1 113.1 L 63.91697616577149 108.74907159805298 L 64.1 108.2 L 63.8 106.9 L 62.8 105.1 L 61.3 103.0 L 59.1 100.7 L 56.4 98.2 L 53.2 95.4 L 49.2 92.9 L 49.26842107772827 92.76315793991088 L 48.1 91.4 L 50.9 88.5 L 53.3 85.5 L 55.6 82.7 L 57.6 80.0 L 59.5 77.4 L 61.2 74.9 L 62.7 72.6 L 63.27391300201416 71.5 L 38.7 71.5 L 38.7 141.0 L 26.7 147.0 L 26.7 63.24358978271484 L 24.6 63.8 L 12.2 66.5 L 11.7 64.8 L 23.4 60.2 L 34.5 55.6 L 44.9 51.2 L 54.6 46.7 L 63.6 42.1 L 71.9 37.5 L 79.5 32.8 L 86.4 28.0 L 90.46666669845581 24.8 L 61.0 24.8 L 61.0 20.8 L 94.0 20.8 L 104.0 10.8 L 116.0 20.8 L 116.0 24.8 L 111.17692308425903 24.8 L 114.5 26.6 L 121.7 30.4 L 128.9 34.1 L 136.2 37.5 L 143.6 40.7 L 151.2 43.6 L 159.0 46.2 L 167.0 48.5 L 175.1 50.6 L 183.5 52.3 L 192.2 54.4 L 180.4 65.2 L 171.8 62.6 Z M 108.80940551757813 128.24152250289916 L 116.7 135.4 L 116.9 138.6 L 113.1060941696167 137.0587257385254 L 112.8 137.2 L 109.0 138.4 L 105.0 139.6 L 100.9 140.7 L 96.6 141.8 L 92.1 142.8 L 87.5 143.6 L 82.7 144.4 L 77.7 145.1 L 72.6 145.5 L 67.2 145.8 L 66.9 144.1 L 71.8 142.1 L 76.5 140.2 L 81.1 138.3 L 85.5 136.6 L 89.7 134.9 L 93.7 133.1 L 97.6 131.4 L 101.2 129.7 L 104.7 127.9 L 106.20588235855102 127.1 L 65.6 127.1 L 65.6 123.19090909957886 L 64.3 123.9 L 62.1 124.8 L 59.7 125.5 L 57.2 125.8 L 54.7 125.9 L 54.7 119.9 L 44.7 116.9 L 44.7 113.9 L 56.0 113.9 L 57.2 113.7 L 58.2 113.4 L 59.1 113.1 L 59.9 112.6 L 60.6 112.1 L 61.3 111.4 L 61.9 110.6 L 62.5 109.6 L 63.1 108.4 L 63.91697616577149 108.74907159805298 L 74.1 113.1 L 73.0 115.4 L 71.7 117.5 L 70.2 119.5 L 68.4 121.2 L 66.5 122.7 L 65.76666669845581 123.1 L 88.6 123.1 L 88.6 61.5 L 100.6 67.5 L 148.0 67.5 L 154.0 62.5 L 165.0 71.5 L 160.0 75.5 L 160.0 123.1 L 164.8181818008423 123.1 L 173.0 114.1 L 183.0 123.1 L 183.0 127.1 L 108.30090913772582 127.1 Z M 100.6 113.9 L 100.6 123.1 L 148.0 123.1 L 148.0 113.9 Z M 100.6 99.8 L 100.6 109.9 L 148.0 109.9 L 148.0 99.8 Z M 100.6 85.6 L 100.6 95.8 L 148.0 95.8 L 148.0 85.6 Z M 100.6 71.5 L 100.6 81.6 L 148.0 81.6 L 148.0 71.5 Z M 136.0 51.4 L 136.0 55.4 L 67.0 55.4 L 67.0 51.4 L 121.77777776718139 51.4 L 128.0 44.4 Z " />
</g>
</svg>
