<svg xmlns="http://www.w3.org/2000/svg" xmlns:xlink="http://www.w3.org/1999/xlink" version="1.1" baseProfile="full" viewBox="0 0 200 200" width="200" height="200">
<g fill="black">
<path d="M 167.6 182.1 L 165.7 183.5 L 163.7 184.7 L 161.5 185.7 L 159.3 186.5 L 157.1 187.1 L 154.7 187.6 L 152.4 187.9 L 150.0 188.0 L 150.0 182.0 L 130.0 179.0 L 130.0 176.0 L 150.0 176.0 L 151.5 175.9 L 154.3 175.5 L 155.6 175.1 L 156.9 174.6 L 158.1 174.1 L 159.2 173.4 L 160.4 172.6 L 161.5 171.7 L 162.6 170.6 L 163.9 169.0 L 165.3 166.6 L 166.5 163.5 L 167.6 159.7 L 168.6 155.1 L 169.4 149.9 L 169.9 143.9 L 170.2 137.3 L 170.2730195045471 131.969575214386 L 170.2 132.0 L 170.2 124.0 L 92.2 124.0 L 80.2 130.0 L 80.2 32.0 L 92.2 38.0 L 113.75384616851807 38.0 L 114.4 36.8 L 116.4 31.2 L 117.5 28.5 L 118.5 25.8 L 121.2 17.7 L 122.0 15.1 L 122.52077693939209 13.342377853393554 L 122.4 13.3 L 122.7529411315918 12.558823490142823 L 122.8 12.4 L 122.82357139587403 12.410499954223633 L 123.4 11.2 L 133.8 17.3 L 135.7 20.4 L 131.51667919158936 20.904883575439452 L 130.5 22.4 L 126.9 27.2 L 125.0 29.6 L 123.0 31.9 L 121.0 34.1 L 118.8 36.2 L 116.8285714149475 38.0 L 155.2 38.0 L 161.2 33.0 L 172.2 42.0 L 167.2 46.0 L 167.2 80.0 L 155.2 86.0 L 155.2 76.0 L 92.2 76.0 L 92.2 97.0 L 169.3181818008423 97.0 L 177.5 88.0 L 187.5 97.0 L 187.5 101.0 L 92.2 101.0 L 92.2 120.0 L 170.2 120.0 L 176.2 115.0 L 187.2 124.0 L 182.2629539489746 126.96222763061523 L 182.3 130.0 L 182.2 137.7 L 181.9 144.8 L 181.3 151.3 L 180.4 157.2 L 179.3 162.6 L 177.8 167.4 L 176.1 171.8 L 173.9 175.6 L 171.2 179.0 L 169.5 180.6 Z M 67.5 173.6 L 66.6 169.1 L 69.1 165.3 L 71.2 164.1 L 73.2 162.6 L 75.0 160.8 L 76.6 158.5 L 78.1 155.9 L 79.3 152.8 L 80.3 149.3 L 81.1 145.3 L 81.7 140.9 L 81.7 136.1 L 83.5 135.8 L 84.6 140.7 L 85.6 145.3 L 86.1 149.8 L 86.1 154.0 L 85.6 158.1 L 84.7 162.1 L 83.2 165.8 L 81.3 169.2 L 78.8 172.4 L 75.8 175.2 L 71.3 176.1 Z M 34.6 179.9 L 30.6 177.6 L 29.4 173.2 L 30.1 167.9 L 30.3 162.6 L 30.0 157.4 L 29.1 152.3 L 27.8 147.2 L 25.9 142.1 L 23.5 137.0 L 20.5 131.9 L 17.1 126.7 L 13.1 121.3 L 14.3 120.0 L 19.8 124.1 L 24.7 128.6 L 26.686400413513184 130.81737718582153 L 26.7 130.8 L 30.6 125.4 L 34.7 119.3 L 39.1 112.4 L 43.7 104.7 L 48.6 96.3 L 53.7 87.2 L 59.1 77.3 L 64.9 66.8 L 71.1 55.6 L 72.8 56.3 L 68.4 68.4 L 64.0 79.6 L 59.6 90.1 L 55.3 99.8 L 51.2 108.7 L 47.2 116.9 L 43.4 124.4 L 39.7 131.1 L 36.2 137.2 L 33.875998878479 140.82270765304565 L 35.7 144.0 L 38.1 149.7 L 39.8 155.7 L 41.0 161.8 L 41.4 168.2 L 41.3 174.7 L 39.0 178.6 Z M 102.5 169.7 L 99.4 166.4 L 99.3 161.9 L 100.1 160.9 L 100.7 159.6 L 101.3 158.1 L 101.6 156.2 L 101.7 154.0 L 101.6 151.6 L 101.3 148.8 L 100.7 145.8 L 99.9 142.5 L 98.4 139.3 L 100.0 138.4 L 102.1 141.4 L 104.3 144.2 L 106.1 146.9 L 107.7 149.7 L 109.0 152.4 L 110.0 155.2 L 110.6 158.0 L 111.0 160.8 L 110.9 163.6 L 110.4 166.5 L 107.1 169.7 Z M 124.4 153.5 L 124.4 151.7 L 124.2 150.0 L 123.7 148.1 L 122.9 146.2 L 121.9 144.2 L 120.5 142.1 L 118.9 140.0 L 116.6 138.2 L 117.5 136.7 L 120.2 138.0 L 122.9 139.2 L 125.4 140.5 L 127.7 142.2 L 129.8 144.1 L 131.6 146.2 L 133.2 148.6 L 134.4 151.2 L 135.4 154.0 L 136.0 157.0 L 134.2 161.2 L 130.0 163.0 L 125.8 161.2 L 124.0 157.0 L 124.3 155.2 Z M 147.3 147.2 L 147.0 145.9 L 146.4 144.5 L 145.3 143.0 L 143.9 141.4 L 142.1 139.7 L 140.0 138.0 L 137.4 136.3 L 134.4 135.1 L 134.9 133.4 L 138.2 134.1 L 141.4 134.5 L 144.4 135.2 L 147.2 136.0 L 149.7 137.1 L 152.1 138.4 L 154.2 140.0 L 156.2 142.0 L 157.8 144.2 L 159.0 146.8 L 158.1 151.3 L 154.3 153.9 L 149.8 153.0 L 147.2 149.2 L 147.4 148.3 Z M 92.2 42.0 L 92.2 72.0 L 155.2 72.0 L 155.2 42.0 Z M 40.9 52.9 L 39.3 50.4 L 37.6 47.9 L 35.5 45.4 L 33.2 42.9 L 30.7 40.4 L 27.9 37.9 L 24.9 35.4 L 21.5 33.2 L 22.2 31.5 L 30.2 34.1 L 33.8 35.7 L 37.3 37.4 L 40.6 39.4 L 43.7 41.6 L 46.6 44.0 L 49.2 46.7 L 51.7 49.5 L 53.8 52.5 L 54.2 57.0 L 51.4 60.6 L 46.8 61.0 L 43.2 58.1 L 42.2 55.5 Z " />
</g>
</svg>
