<svg xmlns="http://www.w3.org/2000/svg" xmlns:xlink="http://www.w3.org/1999/xlink" version="1.1" baseProfile="full" viewBox="0 0 200 200" width="200" height="200">
<g fill="black">
<path d="M 116.7 176.8 L 136.7 176.8 L 137.9 176.7 L 138.8 176.5 L 139.4 176.3 L 139.8 176.2 L 139.9 176.0 L 140.1 175.8 L 140.3 175.5 L 140.5 174.9 L 140.6 174.0 L 140.7 172.8 L 140.7 40.3 L 104.6 40.3 L 104.6 36.3 L 166.0 36.3 L 176.0 26.3 L 188.0 36.3 L 188.0 40.3 L 152.7 40.3 L 152.7 172.8 L 152.5 175.3 L 152.1 177.8 L 151.3 180.2 L 150.1 182.5 L 148.4 184.5 L 146.4 186.2 L 144.1 187.4 L 141.7 188.2 L 139.2 188.6 L 136.7 188.8 L 136.7 182.8 L 116.7 179.8 Z M 53.0 176.0 L 73.0 176.0 L 74.3 175.9 L 75.2 175.7 L 76.1 175.4 L 76.3 175.2 L 76.4 175.0 L 76.6 174.7 L 76.8 174.1 L 77.0 173.2 L 77.0 40.0 L 12.8 40.0 L 12.8 36.0 L 78.3 36.0 L 88.3 26.0 L 100.3 36.0 L 100.3 40.0 L 89.0 40.0 L 89.0 172.0 L 88.9 174.5 L 88.5 177.0 L 87.6 179.4 L 86.4 181.7 L 84.8 183.7 L 82.8 185.3 L 80.5 186.6 L 78.1 187.4 L 75.6 187.8 L 73.0 188.0 L 73.0 182.0 L 53.0 179.0 Z M 34.8 67.8 L 51.9 67.8 L 57.9 62.8 L 68.9 71.8 L 63.9 75.8 L 63.9 136.1 L 51.9 142.1 L 51.9 130.1 L 34.8 130.1 L 34.8 142.1 L 22.8 148.1 L 22.8 61.8 Z M 34.8 71.8 L 34.8 126.1 L 51.9 126.1 L 51.9 71.8 Z " />
</g>
</svg>
