<svg xmlns="http://www.w3.org/2000/svg" xmlns:xlink="http://www.w3.org/1999/xlink" version="1.1" baseProfile="full" viewBox="0 0 200 200" width="200" height="200">
<g fill="black">
<path d="M 50.9 105.9 L 149.1 105.9 L 155.1 100.9 L 166.1 109.9 L 161.1 113.9 L 161.1 177.0 L 149.1 183.0 L 149.1 171.0 L 50.9 171.0 L 50.9 183.0 L 38.9 189.0 L 38.9 99.9 Z M 50.9 109.9 L 50.9 167.0 L 149.1 167.0 L 149.1 109.9 Z M 162.1 89.2 L 153.9 83.5 L 146.1 77.1 L 138.5 70.1 L 131.2 62.6 L 124.2 54.5 L 117.6 45.7 L 111.4 36.4 L 106.90300140380859 28.289341735839844 L 100.7 37.4 L 93.6 46.5 L 85.8 55.3 L 77.4 63.7 L 68.3 71.9 L 58.5 79.6 L 48.0 87.0 L 36.9 94.1 L 25.0 100.6 L 12.4 106.7 L 11.5 105.2 L 23.0 97.4 L 33.9 89.6 L 44.1 81.7 L 53.7 73.7 L 62.6 65.5 L 70.8 57.2 L 78.3 48.7 L 85.2 39.9 L 91.3 31.0 L 93.7 27.0 L 61.0 27.0 L 61.0 23.0 L 94.0 23.0 L 104.0 13.0 L 116.0 23.0 L 116.0 27.0 L 108.78255815505982 27.0 L 114.8 33.9 L 122.2 42.0 L 129.6 49.6 L 137.1 56.7 L 144.7 63.2 L 152.4 69.1 L 160.3 74.4 L 168.2 79.1 L 176.4 83.3 L 184.6 86.9 L 190.7 89.6 L 179.3 99.0 L 170.6 94.4 Z " />
</g>
</svg>
