<svg xmlns="http://www.w3.org/2000/svg" xmlns:xlink="http://www.w3.org/1999/xlink" version="1.1" baseProfile="full" viewBox="0 0 200 200" width="200" height="200">
<g fill="black">
<path d="M 40.0 26.0 L 166.0 26.0 L 176.0 16.0 L 188.0 26.0 L 188.0 30.0 L 40.0 30.0 L 40.0 76.5 L 102.0 76.5 L 102.0 54.6 L 57.8 54.6 L 57.8 50.6 L 102.0 50.6 L 102.0 32.6 L 114.0 34.6 L 117.0 36.6 L 114.0 38.4 L 114.0 50.6 L 156.5 50.6 L 162.5 45.6 L 173.5 54.6 L 168.5 58.6 L 168.5 112.3 L 156.5 118.3 L 156.5 106.3 L 57.8 106.3 L 57.8 102.3 L 102.0 102.3 L 102.0 80.5 L 40.0 80.5 L 40.0 91.0 L 39.4 105.1 L 38.4 118.3 L 37.0 130.6 L 35.0 141.9 L 32.6 152.4 L 29.7 161.9 L 26.2 170.4 L 22.3 177.9 L 17.7 184.3 L 12.6 189.5 L 11.3 188.4 L 14.5 182.3 L 17.5 175.5 L 20.1 168.0 L 22.4 159.7 L 24.3 150.5 L 25.8 140.4 L 27.0 129.4 L 27.7 117.5 L 28.0 104.7 L 28.0 20.0 Z M 87.3 122.0 L 128.7 122.0 L 134.7 117.0 L 145.7 126.0 L 140.7 130.0 L 140.7 169.4 L 140.8 170.6 L 140.9 171.5 L 141.1 172.1 L 141.3 172.5 L 141.6 172.8 L 142.0 173.0 L 142.6 173.2 L 143.5 173.3 L 144.7 173.4 L 176.7 173.4 L 182.7 148.4 L 184.7 148.4 L 182.7 173.4 L 186.3 175.8 L 188.7 179.4 L 186.3 183.0 L 182.7 185.4 L 144.7 185.4 L 142.1 185.3 L 139.6 184.8 L 137.2 184.0 L 135.0 182.8 L 133.0 181.1 L 131.3 179.1 L 130.1 176.9 L 129.3 174.4 L 128.8 172.0 L 128.7 169.4 L 128.7 126.0 L 87.3 126.0 L 87.3 128.0 L 86.4 137.4 L 84.5 146.2 L 81.4 154.3 L 77.2 161.6 L 71.9 168.3 L 65.6 174.1 L 58.3 179.1 L 50.1 183.4 L 41.0 186.7 L 30.9 189.2 L 30.4 187.5 L 39.5 183.2 L 47.6 178.6 L 54.6 173.7 L 60.5 168.4 L 65.4 162.8 L 69.2 156.8 L 72.1 150.3 L 74.1 143.5 L 75.1 136.0 L 75.3 128.0 L 75.3 116.0 Z M 114.0 80.5 L 114.0 102.3 L 156.5 102.3 L 156.5 80.5 Z M 114.0 54.6 L 114.0 76.5 L 156.5 76.5 L 156.5 54.6 Z " />
</g>
</svg>
