<svg xmlns="http://www.w3.org/2000/svg" xmlns:xlink="http://www.w3.org/1999/xlink" version="1.1" baseProfile="full" viewBox="0 0 200 200" width="200" height="200">
<g fill="black">
<path d="M 171.0 23.1 L 171.0 27.1 L 34.0 27.1 L 34.0 167.8 L 158.0 167.8 L 168.0 157.8 L 180.0 167.8 L 180.0 171.8 L 34.0 171.8 L 34.0 183.8 L 22.0 189.8 L 22.0 17.1 L 34.0 23.1 L 149.0 23.1 L 159.0 13.1 Z M 81.7 148.4 L 97.7 148.4 L 99.0 148.3 L 99.9 148.1 L 100.8 147.8 L 101.0 147.6 L 101.1 147.4 L 101.3 147.1 L 101.5 146.5 L 101.7 145.6 L 101.7 91.3 L 42.2 91.3 L 42.2 87.3 L 101.7 87.3 L 101.7 51.4 L 56.3 51.4 L 56.3 47.4 L 135.7 47.4 L 145.7 37.4 L 157.7 47.4 L 157.7 51.4 L 113.7 51.4 L 113.7 87.3 L 151.3 87.3 L 161.3 77.3 L 173.3 87.3 L 173.3 91.3 L 113.7 91.3 L 113.7 144.4 L 113.6 146.9 L 113.2 149.4 L 112.3 151.8 L 111.1 154.1 L 109.5 156.1 L 107.5 157.7 L 105.2 159.0 L 102.8 159.8 L 100.3 160.2 L 97.7 160.4 L 97.7 154.4 L 81.7 151.4 Z " />
</g>
</svg>
