<svg xmlns="http://www.w3.org/2000/svg" xmlns:xlink="http://www.w3.org/1999/xlink" version="1.1" baseProfile="full" viewBox="0 0 200 200" width="200" height="200">
<g fill="black">
<path d="M 160.7 178.6 L 155.2 174.7 L 149.1 170.9 L 142.5 167.2 L 135.79241495132447 163.8921498298645 L 131.0 167.4 L 119.9 173.5 L 107.2 178.4 L 93.0 182.3 L 77.3 185.1 L 60.1 186.8 L 59.9 185.0 L 76.6 181.4 L 91.6 177.1 L 104.9 172.3 L 116.4 166.7 L 126.2 160.4 L 126.90948905944825 159.79562044143677 L 119.0 156.5 L 110.1 153.0 L 107.12786693572998 151.87371797561644 L 104.3 157.9 L 90.9 158.2 L 107.94521741867065 121.9 L 81.7 121.9 L 81.7 117.9 L 109.82347822189331 117.9 L 123.3 89.2 L 133.3 96.1 L 135.2 99.2 L 131.52604360580443 99.88036231994629 L 123.0702265739441 117.9 L 164.4 117.9 L 174.4 107.9 L 186.4 117.9 L 186.4 121.9 L 162.51052627563476 121.9 L 159.8 132.2 L 155.1 142.7 L 148.7 152.0 L 142.68459300994874 158.24098472595216 L 146.0 159.5 L 153.4 162.7 L 160.4 166.1 L 166.7 169.7 L 172.6 173.6 L 178.0 177.8 L 179.9 181.9 L 178.4 186.3 L 174.2 188.1 L 169.9 186.6 L 165.6 182.6 Z M 121.19320392608643 121.9 L 108.53983211517334 148.8647714614868 L 111.1 149.3 L 120.7 151.4 L 129.7 153.8 L 132.784103679657 154.79131908416747 L 134.3 153.5 L 140.8 145.9 L 145.6 137.7 L 149.0 128.8 L 150.3179775238037 121.9 Z M 31.3 42.0 L 54.6 42.0 L 60.6 37.0 L 71.6 46.0 L 66.6 50.0 L 66.6 140.0 L 54.6 146.0 L 54.6 134.0 L 31.3 134.0 L 31.3 146.0 L 19.3 152.0 L 19.3 36.0 Z M 31.3 46.0 L 31.3 130.0 L 54.6 130.0 L 54.6 46.0 Z M 96.1 88.8 L 93.7 88.4 L 91.2 87.6 L 89.0 86.3 L 87.0 84.7 L 85.3 82.7 L 84.1 80.4 L 83.3 78.0 L 82.8 75.5 L 82.7 73.0 L 82.7 34.0 L 94.7 40.0 L 123.3 40.0 L 123.3 14.0 L 135.3 16.0 L 138.3 18.0 L 135.3 19.8 L 135.3 40.0 L 162.4 40.0 L 172.4 30.0 L 184.4 40.0 L 184.4 44.0 L 94.7 44.0 L 94.7 73.0 L 94.8 74.2 L 94.9 75.1 L 95.1 75.7 L 95.3 76.0 L 95.5 76.2 L 95.6 76.4 L 96.0 76.5 L 96.6 76.7 L 97.5 76.9 L 98.7 77.0 L 173.0 77.0 L 176.6 79.4 L 179.0 83.0 L 176.6 86.6 L 173.0 89.0 L 98.7 89.0 Z " />
</g>
</svg>
