<svg xmlns="http://www.w3.org/2000/svg" xmlns:xlink="http://www.w3.org/1999/xlink" version="1.1" baseProfile="full" viewBox="0 0 200 200" width="200" height="200">
<g fill="black">
<path d="M 171.0 23.0 L 171.0 27.0 L 34.0 27.0 L 34.0 167.0 L 158.0 167.0 L 168.0 157.0 L 180.0 167.0 L 180.0 171.0 L 34.0 171.0 L 34.0 183.0 L 22.0 189.0 L 22.0 17.0 L 34.0 23.0 L 149.0 23.0 L 159.0 13.0 Z M 59.4 162.9 L 55.3 160.8 L 53.8 156.5 L 54.4 151.4 L 54.6 146.7 L 54.4 142.6 L 53.9 138.8 L 53.0 135.4 L 52.12518863677978 133.01415090560914 L 50.9 132.7 L 51.40960454940796 131.54180793762208 L 50.3 129.6 L 48.3 127.0 L 45.9 124.6 L 42.7 122.5 L 43.3 120.8 L 47.3 121.8 L 51.1 123.3 L 54.286454391479495 125.30291423797607 L 55.4 122.9 L 57.7 118.1 L 60.5 112.4 L 63.7 105.8 L 67.5 98.4 L 71.7 90.1 L 76.5 81.0 L 82.0 71.2 L 83.6 71.9 L 80.0 82.6 L 76.6 92.3 L 73.5 101.0 L 70.7 108.8 L 68.3 115.6 L 66.3 121.6 L 64.7 126.6 L 63.6 130.6 L 62.8 133.7 L 62.6 135.7 L 62.018790531158444 135.55097188949586 L 62.3 136.1 L 63.9 140.7 L 65.0 145.8 L 65.7 151.3 L 65.8 157.3 L 63.7 161.4 Z M 133.0 136.5 L 143.0 136.5 L 144.2 136.4 L 145.2 136.3 L 145.7 136.1 L 146.3 135.8 L 146.6 135.2 L 146.8 134.6 L 146.9 133.7 L 147.0 132.5 L 147.0 106.0 L 120.1 106.0 L 120.1 156.9 L 108.1 162.9 L 108.1 106.0 L 81.1 106.0 L 81.1 102.0 L 147.0 102.0 L 153.0 97.0 L 164.0 106.0 L 159.0 110.0 L 159.0 132.5 L 158.9 135.1 L 158.4 137.6 L 157.6 140.0 L 156.4 142.2 L 154.7 144.2 L 152.7 145.9 L 150.5 147.1 L 148.1 147.9 L 145.6 148.4 L 143.0 148.5 L 143.0 142.5 L 133.0 139.5 Z M 149.5 87.1 L 144.7 81.6 L 140.3 75.9 L 136.1 69.8 L 132.3 63.5 L 128.8 56.8 L 125.7 49.9 L 123.47550048828126 43.73984746932983 L 123.4 43.9 L 119.8 50.7 L 115.8 57.3 L 111.5 63.8 L 106.9 70.0 L 101.9 76.1 L 96.5 82.0 L 90.8 87.6 L 84.6 92.9 L 78.1 97.9 L 76.8 96.5 L 81.9 90.2 L 86.8 84.0 L 91.5 77.7 L 95.9 71.5 L 99.9 65.2 L 103.7 58.8 L 107.1 52.4 L 110.2 45.8 L 113.0 39.2 L 115.12421712875366 33.50709810256958 L 115.1 33.5 L 116.0 31.2 L 122.30913848876953 34.5609429359436 L 122.7 34.4 L 123.06373605728149 34.962924766540525 L 126.7 36.9 L 128.7 39.9 L 126.48030862808227 40.25047760009765 L 126.9 40.9 L 130.9 47.2 L 135.1 53.2 L 139.3 58.9 L 143.7 64.3 L 148.2 69.4 L 152.9 74.2 L 157.8 78.6 L 162.8 82.8 L 168.1 86.7 L 170.9 88.9 L 160.0 97.1 L 154.6 92.3 Z M 54.5 84.3 L 53.8 82.8 L 52.8 81.3 L 51.6 79.8 L 50.1 78.2 L 48.4 76.6 L 46.4 74.9 L 44.2 73.2 L 41.6 72.0 L 42.2 70.3 L 45.1 71.1 L 48.0 71.5 L 50.7 72.1 L 53.3 72.9 L 55.8 73.8 L 58.1 74.9 L 60.2 76.2 L 62.2 77.6 L 64.1 79.3 L 65.7 81.2 L 66.1 85.7 L 63.3 89.3 L 58.7 89.7 L 55.2 86.8 L 54.9 85.6 Z M 144.2 83.1 L 144.2 87.1 L 98.7 87.1 L 98.7 83.1 L 126.01818180084229 83.1 L 134.2 74.1 Z M 64.4 49.6 L 63.7 48.1 L 62.7 46.6 L 61.6 45.0 L 60.2 43.5 L 58.6 41.8 L 56.7 40.2 L 54.7 38.5 L 52.3 37.2 L 52.9 35.6 L 55.6 36.4 L 58.4 36.8 L 61.0 37.4 L 63.5 38.2 L 68.1 40.2 L 70.2 41.5 L 72.2 42.9 L 74.0 44.5 L 75.7 46.3 L 76.3 50.8 L 73.6 54.5 L 69.0 55.1 L 65.4 52.4 L 65.0 51.0 Z " />
</g>
</svg>
