<svg xmlns="http://www.w3.org/2000/svg" xmlns:xlink="http://www.w3.org/1999/xlink" version="1.1" baseProfile="full" viewBox="0 0 200 200" width="200" height="200">
<g fill="black">
<path d="M 111.3 17.6 L 113.6 20.3 L 110.12219877243042 21.231553936004637 L 107.7 28.7 L 103.8 39.6 L 99.8 50.2 L 95.5 60.6 L 91.1 70.8 L 90.01718883514404 73.13039798736573 L 94.8 74.0 L 97.5 76.0 L 94.8 77.72340421676635 L 94.8 183.2 L 83.8 188.7 L 83.8 86.1 L 81.7 90.3 L 76.6 99.7 L 71.2 108.7 L 65.5 117.4 L 63.9 116.5 L 67.8 107.0 L 71.8 97.3 L 75.7 87.6 L 79.5 77.7 L 83.3 67.6 L 86.9 57.3 L 90.3 46.9 L 93.6 36.2 L 96.8 25.3 L 99.52818059921265 15.205731678009034 L 99.5 15.2 L 99.7444444656372 14.405555534362794 L 99.8 14.2 L 99.80705089569092 14.202084636688232 L 100.3 12.6 Z M 151.0 14.0 L 154.0 16.0 L 151.0 17.8 L 151.0 47.0 L 170.8 47.0 L 176.8 42.0 L 187.8 51.0 L 182.8 55.0 L 182.8 132.0 L 170.8 138.0 L 170.8 126.0 L 151.0 126.0 L 151.0 182.0 L 139.0 188.0 L 139.0 126.0 L 118.2 126.0 L 118.2 138.0 L 107.2 143.5 L 107.2 41.5 L 118.2 47.0 L 139.0 47.0 L 139.0 12.0 Z M 30.0 42.0 L 51.2 42.0 L 57.2 37.0 L 68.2 46.0 L 63.2 50.0 L 63.2 140.0 L 51.2 146.0 L 51.2 134.0 L 30.0 134.0 L 30.0 146.0 L 18.0 152.0 L 18.0 36.0 Z M 30.0 46.0 L 30.0 130.0 L 51.2 130.0 L 51.2 46.0 Z M 118.2 87.0 L 118.2 122.0 L 139.0 122.0 L 139.0 87.0 Z M 151.0 87.0 L 151.0 122.0 L 170.8 122.0 L 170.8 87.0 Z M 118.2 51.0 L 118.2 83.0 L 139.0 83.0 L 139.0 51.0 Z M 151.0 51.0 L 151.0 83.0 L 170.8 83.0 L 170.8 51.0 Z " />
</g>
</svg>
