<svg xmlns="http://www.w3.org/2000/svg" xmlns:xlink="http://www.w3.org/1999/xlink" version="1.1" baseProfile="full" viewBox="0 0 200 200" width="200" height="200">
<g fill="black">
<path d="M 153.0 14.8 L 156.0 16.8 L 153.0 18.6 L 153.0 35.4 L 165.1 35.4 L 175.1 25.4 L 187.1 35.4 L 187.1 39.4 L 153.0 39.4 L 153.0 57.2 L 141.0 63.2 L 141.0 39.4 L 114.9 39.4 L 114.9 57.2 L 103.1009132385254 63.0995433807373 L 111.7 67.6 L 113.8 70.5 L 110.12691555023193 71.20884084701538 L 108.3 75.4 L 104.8 83.0 L 101.1 90.4 L 97.2 97.7 L 93.1 104.8 L 92.59190368652344 105.6153172492981 L 97.3 106.4 L 100.3 108.4 L 97.3 110.2 L 97.3 182.1 L 85.3 188.1 L 85.3 117.02954549789429 L 84.4 118.4 L 79.7 124.9 L 74.7 131.1 L 69.5 137.0 L 68.0 135.9 L 71.6 129.0 L 75.2 122.0 L 82.2 108.0 L 85.6 100.9 L 88.8 93.6 L 92.0 86.2 L 94.9 78.7 L 97.8 71.1 L 100.14901905059814 64.31394510269165 L 100.1 64.3 L 101.0 62.0 L 102.9 62.994392490386964 L 102.9 39.4 L 68.8 39.4 L 68.8 35.4 L 102.9 35.4 L 102.9 12.8 L 114.9 14.8 L 117.9 16.8 L 114.9 18.6 L 114.9 35.4 L 141.0 35.4 L 141.0 12.8 Z M 107.7 172.5 L 138.9 172.5 L 138.9 125.7 L 103.4 125.7 L 103.4 121.7 L 138.9 121.7 L 138.9 87.59090909957885 L 136.8 88.1 L 129.9 89.6 L 122.8 90.8 L 115.5 91.7 L 107.9 92.2 L 107.6 90.4 L 114.7 88.0 L 121.5 85.6 L 128.2 83.3 L 134.6 80.9 L 140.7 78.4 L 146.6 75.9 L 152.3 73.2 L 157.7 70.5 L 162.8 67.7 L 166.8244956970215 65.23602304458618 L 166.8 65.2 L 166.83186769485474 65.23150959014893 L 167.7 64.7 L 169.4573561668396 67.82749814987183 L 175.7 74.0 L 175.8 77.4 L 172.17232446670533 75.8628493309021 L 168.0 77.8 L 162.1 80.3 L 156.1 82.5 L 150.9 84.26129035949707 L 150.9 121.7 L 164.5 121.7 L 174.5 111.7 L 186.5 121.7 L 186.5 125.7 L 150.9 125.7 L 150.9 172.5 L 160.1 172.5 L 170.1 162.5 L 182.1 172.5 L 182.1 176.5 L 107.7 176.5 Z M 29.3 42.0 L 51.1 42.0 L 57.1 37.0 L 68.1 46.0 L 63.1 50.0 L 63.1 140.0 L 51.1 146.0 L 51.1 134.0 L 29.3 134.0 L 29.3 146.0 L 17.3 152.0 L 17.3 36.0 Z M 29.3 46.0 L 29.3 130.0 L 51.1 130.0 L 51.1 46.0 Z " />
</g>
</svg>
