<svg xmlns="http://www.w3.org/2000/svg" xmlns:xlink="http://www.w3.org/1999/xlink" version="1.1" baseProfile="full" viewBox="0 0 200 200" width="200" height="200">
<g fill="black">
<path d="M 68.0 146.4 L 149.9 146.4 L 155.9 141.4 L 166.9 150.4 L 161.9 154.4 L 161.9 180.1 L 149.9 186.1 L 149.9 176.1 L 68.0 176.1 L 68.0 183.1 L 56.0 189.1 L 56.0 140.4 Z M 40.0 40.0 L 121.1944444656372 40.0 L 122.6 37.8 L 124.6 34.1 L 126.5 30.8 L 128.3 27.7 L 130.1 24.7 L 131.6 22.0 L 133.1 19.5 L 134.4 17.1 L 135.6 15.0 L 136.17231483459472 13.912601757049561 L 136.0 13.8 L 137.0 12.5 L 146.1 20.4 L 147.2 23.8 L 142.93345327377318 23.28507194519043 L 142.6 23.6 L 140.5 25.4 L 138.4 27.4 L 136.0 29.6 L 133.5 31.9 L 130.8 34.3 L 127.9 36.9 L 124.7 39.5 L 124.1833333015442 40.0 L 164.0 40.0 L 174.0 30.0 L 186.0 40.0 L 186.0 44.0 L 40.0 44.0 L 40.0 99.0 L 39.4 111.9 L 38.4 124.0 L 37.0 135.3 L 35.0 145.7 L 32.6 155.2 L 29.6 163.9 L 26.2 171.6 L 22.2 178.3 L 17.7 184.0 L 12.6 188.6 L 11.3 187.3 L 14.6 181.8 L 17.5 175.7 L 20.1 169.0 L 22.4 161.5 L 24.3 153.2 L 25.9 144.0 L 27.0 134.1 L 27.7 123.2 L 28.0 111.5 L 28.0 34.0 Z M 68.0 150.4 L 68.0 172.1 L 149.9 172.1 L 149.9 150.4 Z M 42.0 131.0 L 136.0 131.0 L 136.0 113.0 L 68.0 113.0 L 68.0 109.0 L 136.0 109.0 L 142.0 104.0 L 153.0 113.0 L 148.0 117.0 L 148.0 131.0 L 167.8181818008423 131.0 L 176.0 122.0 L 186.0 131.0 L 186.0 135.0 L 42.0 135.0 Z M 45.2 91.5 L 50.7 90.9 L 56.6 90.2 L 60.2 89.8 L 60.2 49.5 L 72.2 51.5 L 75.2 53.5 L 72.2 55.3 L 72.2 65.9 L 93.81818180084228 65.9 L 102.0 56.9 L 112.0 65.9 L 112.0 69.9 L 72.2 69.9 L 72.2 88.391428565979 L 76.5 87.9 L 83.9 87.0 L 91.7 86.1 L 99.9 85.2 L 108.5 84.4 L 117.5 83.8 L 117.8 85.6 L 109.2 88.2 L 100.9 90.5 L 92.9 92.6 L 85.3 94.5 L 78.0 96.2 L 71.1 97.9 L 64.6 99.4 L 58.4 100.8 L 52.6 102.1 L 51.211428546905516 102.408571434021 L 49.6 105.9 L 47.2 103.3 L 43.3 91.8 Z M 135.7 98.2 L 133.4 97.9 L 131.1 97.3 L 128.9 96.3 L 126.9 94.8 L 125.2 93.0 L 123.9 90.9 L 123.0 88.6 L 122.4 86.2 L 122.1 83.6 L 122.1 49.5 L 134.1 51.5 L 137.1 53.5 L 134.1 55.3 L 134.1 70.85952377319336 L 136.4 69.6 L 140.7 67.4 L 144.8 65.2 L 148.9 63.1 L 152.9 61.1 L 156.9 59.0 L 160.7 56.9 L 164.5 54.9 L 167.25462684631347 53.29313430786133 L 167.2 53.2 L 167.28280067443848 53.2766996383667 L 168.1 52.8 L 169.1722026824951 55.02688245773315 L 176.7 62.0 L 176.9 65.3 L 173.03312435150147 63.70414657592774 L 169.2 65.2 L 165.0 66.7 L 156.4 69.5 L 152.0 70.8 L 147.5 72.1 L 142.9 73.3 L 138.2 74.4 L 134.1 75.06938772201538 L 134.1 83.6 L 134.0 84.9 L 134.1 85.8 L 134.1 86.5 L 134.2 87.0 L 134.3 87.4 L 134.6 87.8 L 135.0 88.2 L 135.7 88.6 L 136.7 88.9 L 138.1 89.1 L 175.2 89.1 L 179.7 76.1 L 181.7 76.1 L 179.7 89.1 L 182.4 90.9 L 184.2 93.6 L 182.4 96.3 L 179.7 98.1 L 138.1 98.1 Z M 80.9 31.1 L 80.3 29.3 L 79.5 27.3 L 78.5 25.4 L 77.2 23.4 L 75.7 21.3 L 73.9 19.2 L 71.9 17.0 L 69.4 15.2 L 70.3 13.6 L 73.2 14.9 L 76.2 16.0 L 78.9 17.2 L 81.5 18.7 L 83.9 20.3 L 86.1 22.2 L 88.2 24.2 L 90.0 26.4 L 91.6 28.8 L 92.9 31.4 L 92.3 36.0 L 88.8 38.8 L 84.2 38.3 L 81.4 34.7 L 81.2 32.9 Z " />
</g>
</svg>
