<svg xmlns="http://www.w3.org/2000/svg" xmlns:xlink="http://www.w3.org/1999/xlink" version="1.1" baseProfile="full" viewBox="0 0 200 200" width="200" height="200">
<g fill="black">
<path d="M 34.1 111.0 L 68.3 111.0 L 74.3 106.0 L 85.3 115.0 L 80.3 119.0 L 80.3 167.0 L 68.3 173.0 L 68.3 161.0 L 34.1 161.0 L 34.1 173.0 L 22.1 179.0 L 22.1 105.0 Z M 150.7 161.0 L 160.7 161.0 L 161.9 160.9 L 162.8 160.7 L 163.7 160.4 L 164.1 160.0 L 164.4 159.1 L 164.6 158.2 L 164.7 157.0 L 164.7 129.0 L 141.8 129.0 L 141.8 181.0 L 129.8 187.0 L 129.8 129.0 L 110.2 129.0 L 110.2 168.0 L 98.2 174.0 L 98.2 119.0 L 110.2 125.0 L 129.8 125.0 L 129.8 102.0 L 119.1 102.0 L 119.1 109.0 L 107.1 115.0 L 107.1 63.0 L 119.1 69.0 L 152.5 69.0 L 158.5 64.0 L 168.3094762802124 72.02593517303467 L 168.4 71.0 L 168.8 67.9 L 169.3 64.8 L 169.7 61.8 L 170.1 58.9 L 170.4 56.1 L 170.8 53.5 L 170.97307691574096 52.0 L 102.16428575515747 52.0 L 102.2 52.3 L 102.6 56.3 L 102.7 60.2 L 102.8 63.8 L 102.6 67.2 L 102.3 70.5 L 101.8 73.5 L 101.2 76.4 L 98.0 79.6 L 93.4 79.7 L 90.2 76.5 L 90.1 71.9 L 91.1 70.1 L 92.2 67.9 L 93.2 65.4 L 94.1 62.5 L 95.0 59.3 L 95.8 55.9 L 96.5 52.1 L 97.3 48.0 L 98.1 43.6 L 98.5 39.0 L 100.3 38.9 L 101.0 43.6 L 101.68444442749023 48.0 L 129.8 48.0 L 129.8 13.0 L 141.8 15.0 L 144.8 17.0 L 141.8 18.8 L 141.8 48.0 L 149.78181819915773 48.0 L 150.8 45.2 L 151.7 41.8 L 152.7 38.5 L 153.8 35.4 L 154.8 32.3 L 155.9 29.4 L 157.0 26.6 L 158.0 23.9 L 159.1 21.2 L 159.75 19.575 L 159.6 19.5 L 160.0714285850525 18.77142858505249 L 160.1 18.7 L 160.11270036697388 18.707644844055174 L 160.7 17.8 L 170.4 24.9 L 171.9 28.2 L 167.69545450210572 28.2 L 167.0 29.1 L 165.2 31.3 L 163.4 33.6 L 161.5 36.0 L 159.6 38.5 L 157.6 41.1 L 155.4 43.7 L 153.2 46.4 L 152.13333330154418 48.0 L 171.1 48.0 L 177.1 43.0 L 188.1 52.0 L 183.1 55.0 L 180.9155101776123 55.910204124450686 L 180.7 56.4 L 179.5 58.9 L 176.9 64.1 L 175.5 66.8 L 174.0 69.6 L 170.6 75.2 L 169.1 78.3 L 167.4 77.6 L 168.1 74.4 L 168.12658224105834 74.09873418807983 L 164.5 77.0 L 164.5 106.0 L 152.5 112.0 L 152.5 102.0 L 141.8 102.0 L 141.8 125.0 L 164.7 125.0 L 170.7 120.0 L 181.7 129.0 L 176.7 133.0 L 176.7 157.0 L 176.5 159.5 L 176.1 162.0 L 175.3 164.4 L 174.0 166.7 L 172.4 168.7 L 170.4 170.3 L 168.1 171.6 L 165.7 172.4 L 163.2 172.8 L 160.7 173.0 L 160.7 167.0 L 150.7 164.0 Z M 34.1 115.0 L 34.1 157.0 L 68.3 157.0 L 68.3 115.0 Z M 119.1 73.0 L 119.1 98.0 L 152.5 98.0 L 152.5 73.0 Z M 17.0 86.0 L 45.2 86.0 L 45.2 54.0 L 14.0 54.0 L 14.0 50.0 L 45.2 50.0 L 45.2 14.0 L 57.2 16.0 L 60.2 18.0 L 57.2 19.8 L 57.2 50.0 L 69.4 50.0 L 79.4 40.0 L 91.4 50.0 L 91.4 54.0 L 57.2 54.0 L 57.2 86.0 L 66.4 86.0 L 76.4 76.0 L 88.4 86.0 L 88.4 90.0 L 17.0 90.0 Z M 110.4 37.8 L 110.2 35.5 L 109.4 30.9 L 108.9 28.6 L 108.3 26.3 L 106.9 21.5 L 105.7 19.3 L 107.2 18.2 L 108.9 20.1 L 110.9 21.9 L 112.7 23.8 L 114.5 25.8 L 116.1 27.9 L 117.6 30.1 L 119.0 32.4 L 121.4 37.2 L 122.4 39.8 L 121.5 44.2 L 117.8 46.9 L 113.3 46.0 L 110.7 42.3 L 110.6 40.0 Z " />
</g>
</svg>
