<svg xmlns="http://www.w3.org/2000/svg" xmlns:xlink="http://www.w3.org/1999/xlink" version="1.1" baseProfile="full" viewBox="0 0 200 200" width="200" height="200">
<g fill="black">
<path d="M 159.7 183.0 L 147.7 189.0 L 147.7 113.0 L 141.10337076187133 113.0 L 141.1 113.3 L 140.7 128.9 L 140.2 142.1 L 139.5 153.1 L 138.6 161.9 L 137.5 168.5 L 135.8 173.6 L 134.6 175.8 L 133.2 177.9 L 131.6 179.7 L 129.7 181.4 L 127.8 182.8 L 125.6 184.0 L 123.3 184.9 L 120.9 185.5 L 118.5 185.8 L 116.0 186.0 L 116.0 180.0 L 102.36441898345947 177.9546627998352 L 102.1 178.4 L 97.8 183.6 L 92.9 187.6 L 91.7 186.3 L 94.7 181.3 L 96.7906976699829 177.11860466003418 L 96.0 177.0 L 96.0 174.0 L 98.14761905670166 174.0 L 99.9 169.4 L 102.0 162.3 L 103.9 154.2 L 105.3 145.2 L 106.4 135.3 L 107.2 124.4 L 107.58644065856933 113.0 L 96.5 113.0 L 96.5 109.0 L 107.6 109.0 L 107.6 70.0 L 98.5 70.0 L 98.5 66.0 L 107.6 66.0 L 107.6 30.0 L 98.0 30.0 L 98.0 26.0 L 128.8 26.0 L 134.8 21.0 L 145.8 30.0 L 140.86124897003174 32.96325063705444 L 141.1 52.7 L 141.17084550857544 60.705539321899415 L 141.7 60.0 L 147.7 66.0 L 147.7 20.0 L 159.7 26.0 L 173.0 26.0 L 179.0 21.0 L 190.0 30.0 L 185.0 33.0 L 183.77586841583252 33.51005487442016 L 183.6 34.2 L 182.1 39.4 L 180.5 44.7 L 178.8 50.1 L 176.9 55.6 L 174.9 61.1 L 172.8 66.8 L 170.4 72.6 L 167.8 78.4 L 165.42820510864257 82.98547010421753 L 171.6 87.1 L 176.3 93.2 L 179.9 100.1 L 182.5 107.4 L 184.3 115.0 L 185.4 122.5 L 185.9 129.7 L 186.0 136.4 L 185.7 142.4 L 185.0 147.4 L 184.4 149.9 L 183.5 152.2 L 182.2 154.4 L 180.7 156.4 L 178.9 158.2 L 176.8 159.6 L 174.5 160.7 L 172.1 161.4 L 169.7 161.8 L 167.1 162.0 L 167.1 156.0 L 159.7 153.225 Z M 85.7 150.1 L 83.6 145.7 L 83.30926427841186 145.14495916366576 L 80.7 152.6 L 76.0 163.3 L 70.6 172.6 L 64.7 180.4 L 58.1 186.6 L 56.8 185.3 L 61.6 178.2 L 66.0 170.0 L 70.0 160.7 L 73.6 150.1 L 76.7 138.3 L 77.38786125183105 135.08179187774658 L 76.4 133.6 L 73.7 129.9 L 70.8 126.3 L 68.37831325531006 123.47469882965088 L 66.2 136.0 L 54.4 133.9 L 56.4 122.5 L 58.3 111.0 L 60.1 99.5 L 61.9 87.8 L 63.5 76.1 L 65.1 64.3 L 65.3923728942871 62.0 L 56.4 62.0 L 56.4 58.0 L 65.90084743499756 58.0 L 66.6 52.5 L 68.1 40.5 L 69.4 28.5 L 70.66486482620239 16.629729747772217 L 70.9 14.2 L 82.6 17.5 L 85.4 19.8 L 82.193763256073 21.312375831604005 L 80.0 41.9 L 77.9875 58.0 L 86.0 58.0 L 92.0 53.0 L 103.0 62.0 L 98.0 65.0 L 97.58299446105957 65.17375230789185 L 96.4 79.0 L 94.3 96.4 L 91.7 112.4 L 88.6 127.2 L 86.81770582199097 133.65479497909547 L 89.0 136.3 L 92.2 140.5 L 95.1 145.1 L 97.9 149.9 L 100.4 154.9 L 100.3 159.5 L 97.1 162.7 L 92.5 162.6 L 89.3 159.4 L 87.6 154.6 Z M 24.8 42.0 L 37.9 42.0 L 43.9 37.0 L 54.9 46.0 L 49.9 50.0 L 49.9 140.0 L 37.9 146.0 L 37.9 134.0 L 24.8 134.0 L 24.8 146.0 L 12.8 152.0 L 12.8 36.0 Z M 24.8 46.0 L 24.8 130.0 L 37.9 130.0 L 37.9 46.0 Z M 77.4875 62.0 L 77.0 65.9 L 75.4 77.8 L 73.8 89.6 L 70.2 113.0 L 69.08257369995117 119.42520103454589 L 70.1 119.9 L 74.3 122.4 L 78.3 125.4 L 79.27607593536376 126.24764490127563 L 79.5 125.2 L 81.8 110.8 L 83.7 95.1 L 85.1 78.0 L 85.88260869979858 62.0 Z M 119.08778629302978 109.0 L 129.1463276863098 109.0 L 129.3 95.4 L 129.3 75.3 L 129.25288887023925 70.0 L 119.6 70.0 L 119.6 100.0 L 119.49262294769287 100.1610655784607 Z M 141.25309734344484 70.0 L 141.3 75.3 L 141.3 95.5 L 141.1992395401001 104.46768064498902 L 142.3 103.0 L 147.7 108.4 L 147.7 70.0 Z M 119.6 30.0 L 119.6 66.0 L 129.21733331680298 66.0 L 129.1 52.8 L 128.9203610420227 37.94984951019287 L 128.8 38.0 L 128.8 30.0 Z M 126.7 160.3 L 127.5 152.2 L 128.2 141.5 L 128.7 128.5 L 129.1 113.1 L 129.10112991333008 113.0 L 118.90458011627197 113.0 L 118.9 113.1 L 117.9 125.3 L 116.4 136.5 L 114.5 146.8 L 112.1 156.2 L 109.3 164.6 L 105.9 172.0 L 104.7125 174.0 L 116.0 174.0 L 117.4 173.9 L 118.6 173.7 L 120.6 173.1 L 122.2 172.1 L 123.0 171.4 L 123.7 170.5 L 124.4 169.5 L 125.0 168.3 L 125.8 165.9 Z M 174.9 135.7 L 175.3 129.7 L 175.4 123.2 L 175.0 116.4 L 174.0 109.5 L 172.5 102.7 L 170.3 96.3 L 167.4 90.4 L 164.1 84.3 L 164.30939598083495 84.05570468902587 L 163.1 83.7 L 164.1 77.2 L 165.3 71.0 L 166.5 65.0 L 167.6 59.1 L 168.7 53.3 L 169.8 47.8 L 170.8 42.3 L 171.7 37.0 L 172.4 31.8 L 172.6880000114441 30.0 L 159.7 30.0 L 159.7 150.0 L 167.1 150.0 L 168.4 149.9 L 169.4 149.7 L 170.2 149.5 L 170.8 149.2 L 171.8 148.4 L 172.2 147.9 L 172.6 147.1 L 173.0 146.2 L 173.3 144.9 L 174.2 140.9 Z " />
</g>
</svg>
