<svg xmlns="http://www.w3.org/2000/svg" xmlns:xlink="http://www.w3.org/1999/xlink" version="1.1" baseProfile="full" viewBox="0 0 200 200" width="200" height="200">
<g fill="black">
<path d="M 131.6 107.0 L 130.59111013412476 111.00192975997925 L 131.4 113.2 L 136.2 124.6 L 141.0 134.8 L 146.1 143.9 L 148.35510463714598 147.3039315223694 L 150.8 143.2 L 153.4 138.6 L 155.8 134.1 L 157.9 129.6 L 159.39533405303956 126.13712120056152 L 159.3 126.1 L 160.3 124.1 L 170.6 130.5 L 172.4 133.6 L 168.54036359786988 133.93272724151612 L 167.9 135.0 L 165.1 139.5 L 161.9 144.0 L 158.5 148.5 L 154.9 152.9 L 153.527610206604 154.48352670669556 L 157.0 158.7 L 162.8 164.3 L 168.7 168.8 L 174.8 172.3 L 181.2 174.7 L 188.3 177.3 L 176.7 187.2 L 168.9 183.3 L 161.7 178.3 L 155.1 172.3 L 149.1 165.2 L 146.8360824584961 161.76219930648804 L 146.8 161.8 L 142.3 166.2 L 137.4 170.4 L 132.2 174.6 L 130.9 173.3 L 134.6 167.9 L 138.2 162.7 L 141.7 157.6 L 142.99093265533446 155.6831605911255 L 138.8 147.9 L 134.4 137.7 L 130.6 126.6 L 128.5888617515564 118.93253545761108 L 124.8 130.0 L 120.0 140.3 L 114.3 149.8 L 112.75909090042114 151.8545454978943 L 115.1 155.6 L 117.8 160.7 L 120.5 165.9 L 120.4 170.5 L 117.2 173.7 L 112.6 173.6 L 109.3 170.4 L 107.5 165.4 L 105.61117477416992 160.77237825393678 L 100.2 166.4 L 91.8 173.4 L 82.6 179.5 L 72.5 184.7 L 61.6 188.8 L 60.9 187.1 L 70.7 181.3 L 79.6 175.1 L 87.7 168.4 L 94.8 161.1 L 101.0 153.3 L 101.56946353912353 152.41416778564454 L 101.0 151.3 L 98.6 146.9 L 96.0 142.6 L 93.2 138.4 L 90.4 134.4 L 87.4 130.3 L 84.4 126.3 L 85.6 124.9 L 90.0 127.6 L 94.3 130.7 L 98.2 134.2 L 102.0 137.9 L 105.5 142.0 L 106.94692335128784 143.8299324989319 L 111.0 135.9 L 114.7 126.3 L 117.6 115.9 L 119.48999996185303 106.0 L 70.2 106.0 L 70.2 102.0 L 119.7 102.0 L 119.7 80.0 L 85.7 80.0 L 85.7 76.0 L 119.7 76.0 L 119.7 54.0 L 77.6 54.0 L 77.6 50.0 L 107.35 50.0 L 106.9 49.9 L 104.4 46.0 L 104.3 43.5 L 104.0 41.0 L 103.6 38.5 L 103.0 35.9 L 102.2 33.2 L 101.2 30.5 L 100.1 27.8 L 98.8 24.9 L 97.3 22.0 L 95.4 19.3 L 96.7 18.0 L 99.3 20.3 L 102.0 22.4 L 104.5 24.6 L 106.8 27.0 L 108.9 29.6 L 110.7 32.2 L 112.4 35.0 L 113.9 37.9 L 115.2 40.9 L 116.2 44.0 L 115.2 48.4 L 112.76800003051758 50.0 L 134.48918914794922 50.0 L 135.5 47.8 L 136.9 44.0 L 138.4 40.4 L 141.4 33.4 L 142.8 30.0 L 144.2 26.7 L 146.8 20.3 L 147.64081239700317 18.057833671569824 L 147.5 18.0 L 148.5 16.0 L 158.7 22.6 L 160.4 25.7 L 156.38192768096923 25.977108478546143 L 154.7 28.5 L 152.6 31.4 L 150.5 34.4 L 148.2 37.4 L 143.4 43.4 L 140.8 46.4 L 138.0 49.4 L 137.46000003814697 50.0 L 151.0 50.0 L 161.0 40.0 L 173.0 50.0 L 173.0 54.0 L 131.7 54.0 L 131.7 76.0 L 143.6 76.0 L 153.6 66.0 L 165.6 76.0 L 165.6 80.0 L 131.7 80.0 L 131.7 102.0 L 159.9 102.0 L 169.9 92.0 L 181.9 102.0 L 181.9 106.0 L 131.7 106.0 L 131.09298248291014 106.91052627563477 Z M 29.3 42.0 L 51.1 42.0 L 57.1 37.0 L 68.1 46.0 L 63.1 50.0 L 63.1 140.0 L 51.1 146.0 L 51.1 134.0 L 29.3 134.0 L 29.3 146.0 L 17.3 152.0 L 17.3 36.0 Z M 29.3 46.0 L 29.3 130.0 L 51.1 130.0 L 51.1 46.0 Z " />
</g>
</svg>
