<svg xmlns="http://www.w3.org/2000/svg" xmlns:xlink="http://www.w3.org/1999/xlink" version="1.1" baseProfile="full" viewBox="0 0 200 200" width="200" height="200">
<g fill="black">
<path d="M 64.4 184.6 L 63.4 180.2 L 65.7 176.2 L 67.5 175.1 L 69.4 173.6 L 71.2 171.6 L 72.9 169.2 L 74.6 166.2 L 76.1 162.7 L 77.5 158.7 L 78.8 154.3 L 80.1 149.3 L 81.0 143.9 L 82.8 144.0 L 83.2 149.5 L 83.5 154.8 L 83.4 159.8 L 82.9 164.4 L 82.2 168.7 L 81.0 172.8 L 79.6 176.6 L 77.7 180.0 L 75.5 183.2 L 72.7 185.9 L 68.3 187.0 Z M 170.8 174.5 L 169.9 171.1 L 168.8 167.6 L 167.4 164.1 L 165.7 160.5 L 163.8 156.8 L 161.7 153.1 L 159.5 149.2 L 156.8 145.2 L 158.1 144.0 L 161.9 147.0 L 165.5 150.1 L 168.7 153.3 L 171.7 156.7 L 174.3 160.1 L 176.8 163.6 L 178.9 167.3 L 180.8 171.0 L 182.4 174.8 L 183.7 178.7 L 182.7 183.2 L 179.0 185.8 L 174.5 184.9 L 171.9 181.1 L 171.5 177.8 Z M 136.8 172.3 L 136.5 169.3 L 135.9 166.1 L 135.1 163.0 L 134.1 159.7 L 132.9 156.5 L 131.5 153.1 L 130.0 149.6 L 127.9 146.2 L 129.3 145.0 L 132.3 147.8 L 135.2 150.6 L 137.8 153.5 L 140.2 156.6 L 142.3 159.8 L 144.1 163.1 L 145.7 166.6 L 147.0 170.1 L 148.1 173.8 L 148.9 177.5 L 147.4 181.8 L 143.3 183.9 L 139.0 182.4 L 136.9 178.4 L 137.0 175.4 Z M 109.1 183.9 L 105.0 181.8 L 103.5 177.5 L 104.0 174.5 L 104.3 171.5 L 104.5 168.5 L 104.5 165.5 L 104.3 162.4 L 103.9 159.3 L 103.3 156.1 L 102.6 152.8 L 101.7 149.4 L 100.4 146.2 L 101.9 145.2 L 106.5 151.0 L 108.5 154.0 L 110.3 157.2 L 111.8 160.4 L 113.0 163.8 L 114.0 167.4 L 114.7 170.9 L 115.2 174.6 L 115.5 178.4 L 113.4 182.4 Z M 27.9 42.0 L 45.9 42.0 L 51.9 37.0 L 62.9 46.0 L 57.9 50.0 L 57.9 134.0 L 45.9 140.0 L 45.9 134.0 L 27.9 134.0 L 27.9 146.0 L 15.9 152.0 L 15.9 36.0 Z M 99.4 60.8 L 102.4 62.8 L 99.4 64.6 L 99.4 78.0 L 107.61818180084228 78.0 L 115.8 69.0 L 125.8 78.0 L 125.8 82.0 L 95.55119047164916 82.0 L 93.9 89.3 L 91.92962961196899 96.9 L 108.3 96.9 L 114.3 91.9 L 125.3 100.9 L 120.3 103.9 L 120.27189693450927 103.91170959472656 L 120.2 106.5 L 120.1 109.9 L 119.9 112.9 L 119.7 115.6 L 119.4 118.1 L 119.0 120.3 L 118.5 122.4 L 117.9 124.3 L 116.9 126.2 L 106.82737131118775 119.6178861618042 L 107.0 119.1 L 107.2 118.0 L 107.5 116.4 L 107.7 114.4 L 107.9 112.0 L 108.1 109.3 L 108.2 106.2 L 108.3 102.7 L 108.3 100.9 L 90.60263156890869 100.9 L 89.2 105.0 L 86.3 112.3 L 83.1 119.2 L 79.5 125.7 L 75.4 131.7 L 71.1 137.3 L 66.2 142.3 L 61.0 146.8 L 59.7 145.5 L 63.3 139.9 L 66.7 134.2 L 69.8 128.3 L 72.7 122.1 L 75.3 115.7 L 77.6 109.0 L 79.7 102.0 L 81.4 94.7 L 82.8 87.1 L 83.44647884368896 82.0 L 62.5 82.0 L 62.5 78.0 L 87.4 78.0 L 87.4 59.1 L 61.0 59.1 L 61.0 55.1 L 87.4 55.1 L 87.4 38.8 L 67.5 38.8 L 67.5 34.8 L 87.4 34.8 L 87.4 12.9 L 99.4 14.9 L 102.4 16.9 L 99.4 18.7 L 99.4 34.8 L 104.81818180084228 34.8 L 113.0 25.8 L 123.0 34.8 L 123.0 38.8 L 99.4 38.8 L 99.4 55.1 L 112.01818180084229 55.1 L 120.2 46.1 L 130.2 55.1 L 130.2 59.1 L 89.2 59.1 Z M 165.0 126.9 L 160.0 120.9 L 155.5 114.1 L 154.3844659805298 111.868932056427 L 152.2 115.0 L 145.4 122.6 L 137.9 129.2 L 129.5 134.6 L 120.5 138.8 L 119.7 137.3 L 127.4 131.5 L 134.3 125.1 L 140.6 118.2 L 146.0 110.6 L 150.27755870819092 102.95500144958496 L 148.2 97.7 L 145.3 88.2 L 143.0 77.8 L 141.2 66.4 L 141.10169305801392 65.19082469940186 L 138.8 72.0 L 136.1 78.7 L 133.0 85.1 L 129.5 91.1 L 127.9 90.5 L 129.4 83.8 L 131.0 77.0 L 132.5 70.1 L 133.9 63.0 L 135.2 55.7 L 136.3 48.2 L 137.3 40.4 L 138.1 32.4 L 138.7 24.2 L 139.1411765098572 16.7 L 139.1 16.7 L 139.4 13.5 L 151.2 16.7 L 154.0 18.9 L 150.7141104698181 20.542944812774657 L 150.1 25.4 L 148.7 33.8 L 147.2 42.0 L 146.3797468185425 45.6 L 167.4181818008423 45.6 L 175.6 36.6 L 185.6 45.6 L 185.6 49.6 L 175.68549613952638 49.6 L 173.8 62.6 L 171.1 74.9 L 167.6 86.3 L 163.3 96.8 L 160.22070236206054 102.59632501602172 L 164.1 108.6 L 168.5 113.9 L 173.1 118.3 L 177.8 121.6 L 182.6 124.0 L 188.4 126.7 L 177.0 135.9 L 170.7 131.9 Z M 84.4 125.3 L 96.4 125.3 L 97.8 125.2 L 99.1 125.1 L 100.3 124.8 L 101.4 124.4 L 102.4 123.9 L 103.3 123.3 L 104.3 122.6 L 105.1 121.8 L 106.0 120.8 L 106.8 119.6 L 106.82737131118775 119.6178861618042 L 116.9 126.2 L 115.4 128.2 L 113.8 130.1 L 112.1 131.7 L 110.2 133.2 L 108.1 134.5 L 105.9 135.5 L 103.7 136.3 L 101.3 136.9 L 98.9 137.2 L 96.4 137.3 L 96.4 131.3 L 84.4 128.3 Z M 27.9 46.0 L 27.9 130.0 L 45.9 130.0 L 45.9 46.0 Z M 145.46835441589354 49.6 L 145.4 49.9 L 143.5 57.5 L 143.25510082244872 58.28793640136719 L 145.3 65.6 L 148.7 76.3 L 152.2 85.9 L 155.0172589302063 92.44822330474854 L 158.1 83.2 L 160.7 72.5 L 162.6 60.9 L 163.6847999572754 49.6 Z " />
</g>
</svg>
