<svg xmlns="http://www.w3.org/2000/svg" xmlns:xlink="http://www.w3.org/1999/xlink" version="1.1" baseProfile="full" viewBox="0 0 200 200" width="200" height="200">
<g fill="black">
<path d="M 61.1 180.8 L 81.0 180.8 L 81.0 110.7 L 93.0 116.7 L 155.0 116.7 L 161.0 111.7 L 172.0 120.7 L 167.0 124.7 L 167.0 180.8 L 172.6777777671814 180.8 L 178.9 173.8 L 186.9 180.8 L 186.9 184.8 L 61.1 184.8 Z M 93.0 163.4 L 93.0 180.8 L 155.0 180.8 L 155.0 163.4 Z M 93.0 142.1 L 93.0 159.4 L 155.0 159.4 L 155.0 142.1 Z M 30.4 42.0 L 51.2 42.0 L 56.7 37.0 L 67.2 46.0 L 62.2 49.5 L 62.2 140.0 L 51.2 145.5 L 51.2 134.0 L 30.4 134.0 L 30.4 146.0 L 18.4 152.0 L 18.4 36.0 Z M 93.0 120.7 L 93.0 138.1 L 155.0 138.1 L 155.0 120.7 Z M 30.4 46.0 L 30.4 130.0 L 51.2 130.0 L 51.2 46.0 Z M 74.7 109.0 L 74.7 36.7 L 85.7 42.2 L 113.15 42.2 L 114.0 40.5 L 115.0 37.3 L 115.9 34.4 L 116.7 31.7 L 117.3 29.4 L 117.8 27.3 L 118.0666666984558 26.1 L 62.2 26.1 L 62.2 22.1 L 163.7 22.1 L 173.7 12.1 L 185.7 22.1 L 185.7 26.1 L 129.6 26.1 L 128.7 27.2 L 127.7 28.3 L 126.5 29.6 L 125.2 31.1 L 123.8 32.8 L 122.1 34.7 L 120.3 36.8 L 118.2 39.2 L 116.0 41.6 L 115.6 42.2 L 161.7 42.2 L 167.7 37.2 L 178.7 46.2 L 173.7 50.2 L 173.7 103.5 L 161.7 109.5 L 161.7 103.5 L 85.7 103.5 Z M 85.7 46.2 L 85.7 99.5 L 102.9 99.5 L 102.9 46.2 Z M 114.9 83.4 L 114.9 99.5 L 133.0 99.5 L 133.0 83.4 Z M 145.0 46.2 L 145.0 99.5 L 161.7 99.5 L 161.7 46.2 Z M 114.9 64.3 L 114.9 79.4 L 133.0 79.4 L 133.0 64.3 Z M 114.9 46.2 L 114.9 60.3 L 133.0 60.3 L 133.0 46.2 Z " />
</g>
</svg>
