<svg xmlns="http://www.w3.org/2000/svg" xmlns:xlink="http://www.w3.org/1999/xlink" version="1.1" baseProfile="full" viewBox="0 0 200 200" width="200" height="200">
<g fill="black">
<path d="M 145.9 175.3 L 163.9 175.3 L 165.1 175.2 L 166.0 175.0 L 166.6 174.9 L 166.9 174.7 L 167.3 174.3 L 167.5 174.0 L 167.6 173.4 L 167.8 172.5 L 167.9 171.3 L 167.9 127.0 L 86.0 127.0 L 86.0 181.3 L 74.0 187.3 L 74.0 117.0 L 86.0 123.0 L 167.9 123.0 L 173.9 118.0 L 184.9 127.0 L 179.9 131.0 L 179.9 171.3 L 179.7 173.8 L 179.3 176.3 L 178.5 178.7 L 177.3 181.0 L 175.6 183.0 L 173.6 184.7 L 171.3 185.9 L 168.9 186.7 L 166.4 187.1 L 163.9 187.3 L 163.9 181.3 L 145.9 178.3 Z M 112.0 138.0 L 141.9 138.0 L 147.9 133.0 L 158.9 142.0 L 153.9 146.0 L 153.9 166.5 L 141.9 172.5 L 141.9 164.5 L 112.0 164.5 L 112.0 167.5 L 100.0 173.5 L 100.0 132.0 Z M 112.0 142.0 L 112.0 160.5 L 141.9 160.5 L 141.9 142.0 Z M 30.0 42.0 L 49.7 42.0 L 55.7 37.0 L 66.7 46.0 L 61.7 50.0 L 61.7 140.0 L 49.7 146.0 L 49.7 134.0 L 30.0 134.0 L 30.0 146.0 L 18.0 152.0 L 18.0 36.0 Z M 30.0 46.0 L 30.0 130.0 L 49.7 130.0 L 49.7 46.0 Z M 105.3 86.3 L 148.6 86.3 L 154.6 81.3 L 165.6 90.3 L 160.6 94.3 L 160.6 111.3 L 148.6 117.3 L 148.6 111.3 L 105.3 111.3 L 93.3 117.3 L 93.3 80.3 Z M 105.3 90.3 L 105.3 107.3 L 148.6 107.3 L 148.6 90.3 Z M 68.5 71.4 L 121.0 71.4 L 121.0 51.8 L 133.0 53.8 L 136.0 55.8 L 133.0 57.6 L 133.0 71.4 L 163.4 71.4 L 173.4 61.4 L 185.4 71.4 L 185.4 75.4 L 68.5 75.4 Z M 103.3 49.4 L 102.7 47.5 L 101.9 45.6 L 100.9 43.6 L 99.7 41.5 L 98.3 39.4 L 96.7 37.3 L 94.9 35.0 L 93.4944444656372 33.9 L 91.69183673858643 33.9 L 90.1 36.9 L 87.3 41.6 L 84.2 46.1 L 80.7 50.5 L 77.0 54.5 L 72.9 58.3 L 68.4 61.8 L 67.1 60.5 L 70.0 55.8 L 72.8 51.3 L 75.3 46.7 L 77.7 42.2 L 79.8 37.6 L 81.7 32.9 L 83.4 28.2 L 84.8 23.4 L 85.9 18.6 L 86.9 13.6 L 86.91363639831543 13.60303030014038 L 87.3 11.8 L 98.6 16.2 L 101.1 18.8 L 97.38463535308838 20.06057014465332 L 96.9 21.6 L 94.9 26.9 L 93.60588235855103 29.9 L 113.51818180084229 29.9 L 121.7 20.9 L 131.7 29.9 L 131.7 33.9 L 98.33636360168457 33.9 L 99.1 34.2 L 101.7 35.6 L 104.1 37.0 L 106.4 38.7 L 108.5 40.4 L 110.5 42.4 L 112.2 44.4 L 113.9 46.6 L 115.3 49.0 L 115.0 53.5 L 111.6 56.6 L 107.1 56.4 L 104.0 53.0 L 103.7 51.2 Z M 157.0 49.4 L 156.4 47.5 L 155.6 45.6 L 154.6 43.6 L 153.4 41.5 L 152.0 39.4 L 150.4 37.3 L 148.6 35.0 L 147.2555555343628 33.9 L 143.86666669845582 33.9 L 142.6 35.8 L 140.0 39.2 L 137.0 42.3 L 133.9 45.3 L 126.9 50.5 L 125.7 49.2 L 128.1 45.8 L 130.3 42.2 L 132.3 38.7 L 134.1 35.3 L 135.7 31.8 L 137.0 28.2 L 138.2 24.7 L 139.2 21.0 L 140.0 17.4 L 140.44123001098632 14.605543518066407 L 140.4 14.6 L 140.56000003814697 13.853333377838135 L 140.6 13.6 L 140.61363639831544 13.60303030014038 L 141.0 11.8 L 152.3 16.2 L 154.8 18.8 L 151.02939491271974 20.102572631835937 L 150.9 20.5 L 149.2 24.6 L 147.2 28.5 L 146.3675675392151 29.9 L 167.9181818008423 29.9 L 176.1 20.9 L 186.1 29.9 L 186.1 33.9 L 152.03636360168457 33.9 L 152.8 34.2 L 155.4 35.6 L 157.8 37.0 L 160.1 38.7 L 162.2 40.4 L 164.2 42.4 L 166.0 44.4 L 167.6 46.6 L 169.0 49.0 L 168.7 53.5 L 165.4 56.6 L 160.8 56.4 L 157.7 53.0 L 157.4 51.2 Z " />
</g>
</svg>
