<svg xmlns="http://www.w3.org/2000/svg" xmlns:xlink="http://www.w3.org/1999/xlink" version="1.1" baseProfile="full" viewBox="0 0 200 200" width="200" height="200">
<g fill="black">
<path d="M 36.0 26.0 L 164.0 26.0 L 170.0 21.0 L 181.0 30.0 L 176.0 34.0 L 176.0 178.0 L 164.0 184.0 L 164.0 174.0 L 36.0 174.0 L 36.0 181.0 L 24.0 187.0 L 24.0 20.0 Z M 36.0 30.0 L 36.0 170.0 L 164.0 170.0 L 164.0 30.0 Z M 111.3 153.8 L 125.3 153.8 L 126.5 153.7 L 127.5 153.6 L 128.0 153.4 L 128.6 153.1 L 128.9 152.5 L 129.1 152.0 L 129.2 151.0 L 129.3 149.8 L 129.3 137.7 L 70.6 137.7 L 70.6 159.7 L 58.6 165.7 L 58.6 89.8 L 70.6 95.8 L 129.3 95.8 L 135.3 90.8 L 146.3 99.8 L 141.3 103.8 L 141.3 149.8 L 141.2 152.4 L 140.7 154.9 L 139.9 157.3 L 138.7 159.5 L 137.1 161.6 L 135.0 163.2 L 132.8 164.4 L 130.4 165.2 L 127.9 165.7 L 125.3 165.8 L 125.3 159.8 L 111.3 156.8 Z M 70.6 118.7 L 70.6 133.7 L 129.3 133.7 L 129.3 118.7 Z M 70.6 99.8 L 70.6 114.7 L 129.3 114.7 L 129.3 99.8 Z M 40.1 79.7 L 62.7 79.7 L 62.7 45.7 L 74.7 47.7 L 77.7 49.7 L 74.7 51.5 L 74.7 79.7 L 94.0 79.7 L 94.0 35.4 L 106.0 37.4 L 109.0 39.4 L 106.0 41.2 L 106.0 55.6 L 128.3 55.6 L 138.3 45.6 L 150.3 55.6 L 150.3 59.6 L 106.0 59.6 L 106.0 79.7 L 141.61818180084228 79.7 L 149.8 70.7 L 159.8 79.7 L 159.8 83.7 L 40.1 83.7 Z " />
</g>
</svg>
