<svg xmlns="http://www.w3.org/2000/svg" xmlns:xlink="http://www.w3.org/1999/xlink" version="1.1" baseProfile="full" viewBox="0 0 200 200" width="200" height="200">
<g fill="black">
<path d="M 134.3 156.3 L 133.3 154.4 L 132.2 152.5 L 131.0 150.6 L 129.5 148.7 L 127.9 146.8 L 126.1 144.9 L 124.23762378692626 143.03762378692628 L 122.4 144.4 L 116.3 148.3 L 109.7 151.9 L 102.8 155.1 L 95.5 157.9 L 87.7 160.1 L 87.0 158.5 L 93.9 154.4 L 100.3 150.4 L 106.3 146.3 L 112.0 142.1 L 117.3 137.7 L 122.1 133.2 L 126.5 128.5 L 130.6 123.6 L 134.2 118.6 L 136.9298843383789 114.21564035415649 L 136.9 114.2 L 138.0 112.5 L 147.6 119.8 L 149.0 123.2 L 145.0927414894104 123.06526699066163 L 143.3 125.4 L 142.50384616851807 126.3 L 170.9 126.3 L 171.4219178199768 125.86506853103637 L 171.7 125.4 L 171.86774196624756 125.49354839324951 L 176.9 121.3 L 187.9 130.3 L 182.9 133.3 L 179.8980327606201 134.55081968307496 L 175.2 141.7 L 167.3 151.1 L 158.4 159.5 L 148.7 166.8 L 138.1 173.1 L 126.7 178.3 L 114.4 182.4 L 101.3 185.4 L 87.4 187.2 L 72.6 187.9 L 72.5 186.1 L 86.8 183.5 L 100.1 180.2 L 112.3 176.1 L 123.6 171.3 L 133.9 165.7 L 138.58649425506593 162.50919542312622 L 135.7 160.2 L 135.0 158.2 Z M 13.1 146.2 L 18.5 144.8 L 24.2 143.1 L 30.2 141.3 L 36.6 139.3 L 40.7 137.95373134613038 L 40.7 69.9 L 14.0 69.9 L 14.0 65.9 L 40.7 65.9 L 40.7 16.4 L 52.7 18.4 L 55.7 20.4 L 52.7 22.2 L 52.7 65.9 L 59.3 65.9 L 69.3 55.9 L 81.3 65.9 L 81.3 69.9 L 52.7 69.9 L 52.7 133.8780821800232 L 57.6 132.2 L 65.3 129.6 L 73.4 126.9 L 81.9 124.3 L 82.6 125.9 L 74.9 130.4 L 67.4 134.5 L 60.2 138.3 L 53.2 141.7 L 46.4 144.9 L 39.9 147.9 L 33.7 150.7 L 27.8 153.2 L 22.1 155.5 L 20.716465854644774 156.04819278717042 L 19.6 159.9 L 16.8 157.6 L 11.2 146.8 Z M 138.96538457870483 130.3 L 138.7 130.6 L 133.7 135.5 L 128.2 140.1 L 126.71175060272216 141.20335731506347 L 128.1 141.6 L 130.8 142.6 L 133.4 143.7 L 135.9 145.1 L 138.2 146.6 L 140.4 148.3 L 142.5 150.2 L 144.5 152.3 L 146.2 154.5 L 146.3881139755249 156.61628189086915 L 151.7 152.0 L 159.3 144.0 L 165.9 135.1 L 168.7701030731201 130.3 Z M 164.1566596031189 87.72600421905517 L 159.7 90.4 L 156.2199999809265 91.85 L 151.8 97.7 L 144.5 106.0 L 136.6 113.6 L 128.2 120.6 L 119.2 126.8 L 109.8 132.4 L 99.9 137.2 L 89.5 141.3 L 78.6 144.6 L 67.2 147.0 L 66.7 145.2 L 77.3 141.0 L 87.4 136.3 L 97.0 131.3 L 105.9 125.8 L 114.4 119.9 L 115.91514711380005 118.65335998535156 L 115.2 118.7 L 111.7 115.8 L 111.2 114.1 L 110.6 112.3 L 109.9 110.6 L 108.9 108.9 L 107.8 107.2 L 106.5 105.5 L 105.1 103.8 L 103.4 102.1 L 101.86407890319825 100.725754737854 L 96.6 104.5 L 91.0 108.1 L 85.1 111.3 L 78.9 114.1 L 72.3 116.6 L 71.5 114.9 L 77.0 110.8 L 82.2 106.8 L 87.2 102.7 L 91.9 98.6 L 96.2 94.3 L 100.3 89.9 L 104.0 85.5 L 107.5 80.9 L 110.6 76.1 L 112.92698535919189 72.1681972503662 L 106.5 76.1 L 97.4 80.8 L 87.7 85.1 L 77.5 88.8 L 66.8 91.9 L 66.2 90.2 L 76.1 85.3 L 85.4 80.2 L 94.2 75.0 L 102.5 69.6 L 110.1 64.0 L 117.2 58.1 L 118.78620252609252 56.61140985488892 L 114.0 51.0 L 108.8 43.7 L 104.4 35.9 L 105.9 34.9 L 112.0 41.1 L 118.3 47.0 L 123.87864418029785 51.80621652603149 L 129.6 45.6 L 135.0 38.9 L 139.55 32.4 L 140.3 31.2 L 149.7 38.8 L 151.0 42.1 L 147.23289470672609 41.90514974594116 L 143.9 46.1 L 137.5 52.9 L 131.93502683639525 57.98797550201416 L 138.6 62.4 L 146.1 66.7 L 154.0 70.5 L 162.2 74.0 L 170.8 77.1 L 179.9 79.7 L 187.7 82.1 L 176.1 92.4 L 166.6 88.8 Z M 115.98367347717286 87.4 L 115.9 87.5 L 111.5 92.2 L 106.9 96.5 L 104.34942197799683 98.64248552322388 L 105.2 98.8 L 107.7 99.5 L 110.2 100.5 L 112.5 101.7 L 114.8 103.0 L 116.9 104.6 L 118.9 106.3 L 120.7 108.2 L 122.4 110.4 L 122.58197422027588 113.12961378097535 L 129.6 106.4 L 136.5 98.8 L 142.8 90.7 L 145.06395349502563 87.4 Z M 123.1 65.3 L 115.0 70.9 L 114.82737607955933 71.00560522079468 L 123.7 77.5 L 125.2 80.8 L 121.35398998260499 80.73368949890137 L 120.0 82.6 L 119.33061227798461 83.4 L 147.7 83.4 L 147.9524887084961 83.18959274291993 L 148.7 82.1 L 149.0111110687256 82.30740737915039 L 150.38703174591063 81.16080694198608 L 148.9 80.4 L 140.9 75.4 L 133.3 70.0 L 126.3 64.2 L 125.46755437850952 63.380361270904544 Z M 116.5 22.8 L 117.5 26.3 L 113.71739130020141 25.582608699798584 L 112.6 26.7 L 108.5 30.4 L 104.3 34.0 L 100.0 37.5 L 95.6 40.8 L 91.0 44.0 L 86.3 47.0 L 81.4 49.8 L 76.3 52.4 L 71.0 54.6 L 70.1 53.1 L 74.2 49.2 L 78.3 45.5 L 86.3 38.1 L 90.1 34.4 L 93.8 30.6 L 97.4 26.8 L 100.9 22.9 L 104.3 18.9 L 106.97567567825317 15.656756782531739 L 106.9 15.6 L 107.9 14.5 Z M 163.9 41.1 L 161.8 38.2 L 159.3 35.3 L 156.5 32.4 L 153.3 29.6 L 149.8 26.9 L 145.9 24.1 L 141.7 21.3 L 137.1 18.6 L 137.8 16.9 L 143.1 18.2 L 148.1 19.7 L 152.9 21.5 L 157.3 23.6 L 161.5 25.9 L 165.3 28.5 L 168.9 31.3 L 172.1 34.3 L 175.1 37.6 L 177.7 41.1 L 178.2 45.7 L 175.4 49.3 L 170.8 49.8 L 167.2 47.0 L 165.7 44.0 Z " />
</g>
</svg>
