<svg xmlns="http://www.w3.org/2000/svg" xmlns:xlink="http://www.w3.org/1999/xlink" version="1.1" baseProfile="full" viewBox="0 0 200 200" width="200" height="200">
<g fill="black">
<path d="M 149.9 180.9 L 141.3 177.5 L 133.4 173.4 L 126.2 168.6 L 119.8 163.2 L 114.1 157.2 L 109.2 150.5 L 105.3 143.2 L 102.3 135.3 L 102.9375 135.0 L 97.93363637924195 135.0 L 92.7 145.1 L 85.8 154.9 L 77.5 163.4 L 68.1 170.5 L 57.5 176.4 L 45.8 180.9 L 33.0 183.9 L 19.1 185.6 L 18.9 183.8 L 32.1 180.3 L 44.0 175.8 L 54.5 170.5 L 63.7 164.3 L 71.7 157.2 L 78.4 149.2 L 84.0 140.2 L 86.26534652709961 135.0 L 19.0 135.0 L 19.0 131.0 L 88.00792083740234 131.0 L 88.4 130.1 L 91.7 119.0 L 93.71943845748902 107.80129585266113 L 93.7 107.8 L 94.2 104.8 L 105.7 108.6 L 108.4 111.0 L 104.83063478469849 112.45418586730958 L 102.7 121.9 L 99.49262294769287 131.0 L 158.0 131.0 L 168.0 121.0 L 180.0 131.0 L 180.0 135.0 L 104.3692307472229 135.0 L 108.8 141.0 L 113.9 146.9 L 119.3 152.2 L 125.1 156.8 L 131.4 160.9 L 138.2 164.3 L 145.4 167.2 L 153.3 169.6 L 161.7 171.3 L 170.8 172.5 L 180.9 173.9 L 169.0 185.6 L 159.1 183.6 Z M 48.9 115.4 L 36.9 121.4 L 36.9 70.228125 L 32.7 74.1 L 25.8 79.6 L 18.5 84.6 L 17.4 83.3 L 23.3 76.8 L 28.9 70.3 L 34.1 63.8 L 36.9 60.047999954223634 L 36.9 56.2 L 38.991304302215575 57.245652198791504 L 39.1 57.1 L 43.6 50.2 L 47.8 43.2 L 51.7 35.9 L 55.1 28.5 L 58.2 20.8 L 60.674057960510254 13.819622230529784 L 60.6 13.8 L 61.5 11.4 L 72.3 16.9 L 74.4 19.8 L 70.73543252944947 20.507197189331055 L 68.7 25.2 L 66.82405061721802 29.0 L 107.0 29.0 L 107.48196725845337 28.5983606338501 L 107.7 28.1 L 107.93010377883911 28.2249135017395 L 113.0 24.0 L 124.0 33.0 L 119.0 36.0 L 115.88000001907349 37.3 L 114.2 39.7 L 111.9 42.8 L 109.6 46.0 L 107.2 49.3 L 104.6 52.6 L 101.9 56.0 L 99.0 59.4 L 96.43999996185303 62.2 L 149.0 62.2 L 155.0 57.2 L 166.0 66.2 L 161.0 70.2 L 161.0 109.4 L 149.0 115.4 L 149.0 103.4 L 48.9 103.4 Z M 48.9 66.2 L 48.9 99.4 L 74.0 99.4 L 74.0 66.2 Z M 92.87714281082154 66.2 L 92.7 66.4 L 92.36666669845582 66.2 L 86.0 66.2 L 86.0 99.4 L 111.9 99.4 L 111.9 66.2 Z M 123.9 66.2 L 123.9 99.4 L 149.0 99.4 L 149.0 66.2 Z M 64.8493670463562 33.0 L 64.8 33.1 L 60.5 40.8 L 55.7 48.1 L 50.6 55.1 L 45.91368417739868 60.70684213638306 L 48.9 62.2 L 92.7 62.2 L 93.2 61.1 L 94.9 56.9 L 96.7 52.8 L 98.5 48.9 L 100.2 45.1 L 101.9 41.5 L 103.5 38.0 L 104.9 34.6 L 105.57878789901733 33.0 Z " />
</g>
</svg>
