<svg xmlns="http://www.w3.org/2000/svg" xmlns:xlink="http://www.w3.org/1999/xlink" version="1.1" baseProfile="full" viewBox="0 0 200 200" width="200" height="200">
<g fill="black">
<path d="M 64.6 147.6 L 61.4 143.4 L 57.9 139.5 L 56.66513023376465 138.3284568786621 L 55.7 140.5 L 48.8 152.7 L 41.1 163.7 L 32.6 173.5 L 23.2 181.8 L 13.1 188.7 L 12.0 187.2 L 20.7 179.0 L 28.6 169.9 L 35.8 159.9 L 42.3 148.9 L 48.0 136.9 L 49.77115564346313 132.25957221984862 L 49.7 132.2 L 45.1 128.8 L 40.2 125.5 L 35.34026584625244 122.56582088470459 L 33.4 133.1 L 20.5 136.8 L 34.131082153320314 63.0 L 17.6 63.0 L 17.6 59.0 L 34.86989421844483 59.0 L 43.2 13.9 L 54.6 18.0 L 57.2 20.5 L 53.959337615966795 21.478313159942626 L 47.0483057975769 59.0 L 65.7 59.0 L 71.7 54.0 L 82.7 63.0 L 77.7 66.0 L 76.97244091033936 66.30314960479737 L 74.9 79.7 L 71.3 96.6 L 66.9 112.4 L 61.7 127.0 L 60.3962963104248 129.9333333015442 L 64.1 132.6 L 68.6 136.5 L 72.9 140.7 L 76.8 145.4 L 80.4 150.3 L 81.0 154.8 L 78.3 158.5 L 73.8 159.1 L 70.1 156.4 L 67.5 151.9 Z M 120.3 183.9 L 117.8 183.4 L 115.4 182.6 L 113.2 181.4 L 111.1 179.7 L 109.5 177.7 L 108.3 175.5 L 107.5 173.0 L 107.0 170.6 L 106.9 168.0 L 106.9 130.3 L 118.9 132.3 L 121.9 134.3 L 118.9 136.1 L 118.9 168.0 L 119.0 169.2 L 119.1 170.1 L 119.3 170.7 L 119.5 171.1 L 119.8 171.4 L 120.2 171.6 L 120.7 171.8 L 121.7 171.9 L 122.9 172.0 L 154.7 172.0 L 160.7 147.0 L 162.7 147.0 L 160.7 172.0 L 164.3 174.4 L 166.7 178.0 L 164.3 181.6 L 160.7 184.0 L 122.9 184.0 Z M 82.5 176.5 L 80.7 172.2 L 82.4 168.0 L 83.9 166.7 L 85.5 164.9 L 87.0 162.6 L 88.5 159.7 L 89.8 156.2 L 91.1 152.3 L 92.2 147.8 L 93.2 142.8 L 94.2 137.4 L 94.9 131.4 L 96.7 131.4 L 97.4 137.4 L 98.0 143.1 L 98.2 148.4 L 98.1 153.4 L 97.8 158.0 L 97.1 162.3 L 96.1 166.3 L 94.8 170.0 L 93.1 173.4 L 90.9 176.4 L 86.7 178.1 Z M 172.2 160.6 L 171.4 157.0 L 170.5 153.6 L 169.4 150.2 L 168.2 146.8 L 166.7 143.5 L 165.1 140.2 L 163.4 136.8 L 161.3 133.6 L 162.6 132.3 L 165.7 134.8 L 168.8 137.4 L 171.6 140.2 L 174.2 143.3 L 176.5 146.6 L 178.6 150.1 L 180.5 153.7 L 182.2 157.6 L 183.7 161.6 L 184.9 165.7 L 183.9 170.2 L 180.1 172.7 L 175.6 171.7 L 173.1 167.9 L 172.7 164.2 Z M 135.5 146.7 L 134.6 144.0 L 133.6 141.4 L 132.6 138.9 L 131.4 136.4 L 130.2 134.0 L 127.4 129.2 L 125.5 127.2 L 126.6 125.7 L 129.1 127.3 L 131.7 128.7 L 134.2 130.4 L 136.6 132.4 L 138.8 134.6 L 140.9 137.0 L 143.0 139.6 L 144.8 142.4 L 146.6 145.3 L 148.2 148.5 L 147.9 153.0 L 144.6 156.1 L 140.0 155.8 L 136.9 152.5 L 136.2 149.5 Z M 158.7 118.6 L 157.3 120.6 L 155.6 122.4 L 153.6 123.9 L 151.5 125.2 L 149.2 126.1 L 146.8 126.8 L 144.4 127.2 L 141.8 127.3 L 141.8 121.3 L 121.8 118.3 L 121.8 115.3 L 141.8 115.3 L 143.2 115.2 L 144.3 115.1 L 145.3 114.8 L 146.1 114.4 L 146.8 114.0 L 147.5 113.5 L 148.1 112.9 L 148.7 112.1 L 149.2 111.0 L 149.8 109.8 L 150.4 108.0 L 151.0 105.5 L 151.5 102.5 L 152.0 99.1 L 152.3 95.1 L 152.6 90.6 L 152.8 85.7 L 153.0 80.3 L 153.0 77.95833330154419 L 152.9 78.0 L 152.9 70.0 L 130.4978723526001 70.0 L 129.7 77.5 L 127.9 86.2 L 125.1 94.3 L 121.4 101.5 L 116.8 108.0 L 111.4 113.6 L 105.2 118.3 L 98.3 122.1 L 90.7 124.9 L 82.5 126.7 L 82.0 125.0 L 89.3 121.4 L 95.7 117.4 L 101.3 113.1 L 106.0 108.2 L 110.0 102.9 L 113.2 97.1 L 115.7 90.7 L 117.4 83.8 L 118.4 76.2 L 118.6240963935852 70.0 L 99.9 70.0 L 99.9 66.0 L 152.9 66.0 L 158.9 61.0 L 169.9 70.0 L 164.97774391174318 72.95335369110107 L 165.0 74.4 L 165.0 80.4 L 164.8 86.1 L 164.6 91.3 L 164.3 96.0 L 163.9 100.4 L 163.4 104.4 L 162.7 108.0 L 161.9 111.2 L 161.0 114.1 L 160.0 116.4 Z M 46.31155519485473 63.0 L 36.044037914276124 118.74486970901489 L 36.3 118.8 L 42.5 120.7 L 48.4 123.1 L 52.49912328720093 125.1122968673706 L 53.0 123.8 L 57.3 109.6 L 60.9 94.3 L 63.7 77.9 L 65.39318180084229 63.0 Z M 119.5 31.8 L 121.7 34.6 L 117.94676313400268 35.471287155151366 L 117.3 37.0 L 114.8 42.0 L 111.8 46.8 L 108.6 51.5 L 105.0 55.8 L 101.0 60.0 L 96.7 64.0 L 92.1 67.6 L 87.0 71.0 L 81.6 73.9 L 80.5 72.5 L 84.6 68.0 L 88.5 63.7 L 92.0 59.4 L 95.3 55.1 L 98.2 50.7 L 100.8 46.3 L 103.1 41.9 L 105.1 37.4 L 106.7 32.8 L 107.72201118469238 29.105036449432372 L 107.7 29.1 L 107.87254905700684 28.560784339904785 L 108.0 28.1 L 108.01813306808472 28.105834102630617 L 108.5 26.6 Z M 167.7 65.6 L 163.3 61.5 L 159.5 57.1 L 156.2 52.3 L 153.5 47.3 L 151.3 41.9 L 149.7 36.3 L 148.9 30.4 L 148.81475410461425 25.2 L 117.6 25.2 L 117.6 21.2 L 144.68000001907347 21.2 L 149.6 17.1 L 160.6 26.1 L 155.6 29.1 L 153.31311473846435 30.243442630767824 L 155.3 34.3 L 157.9 38.9 L 160.7 43.0 L 163.8 46.8 L 167.1 50.2 L 170.8 53.3 L 174.7 56.1 L 179.0 58.6 L 183.7 60.8 L 189.1 63.5 L 177.8 72.6 L 172.5 69.3 Z M 149.5 24.1764705657959 L 149.6 24.158823490142822 L 149.6 24.1 L 149.5 24.066666698455812 Z " />
</g>
</svg>
