<svg xmlns="http://www.w3.org/2000/svg" xmlns:xlink="http://www.w3.org/1999/xlink" version="1.1" baseProfile="full" viewBox="0 0 200 200" width="200" height="200">
<g fill="black">
<path d="M 170.8 109.9 L 166.4 106.6 L 161.7 103.4 L 156.6 100.3 L 151.3 97.3 L 145.5 94.3 L 139.5 91.3 L 133.2 88.2 L 128.2 85.85151519775391 L 128.2 183.0 L 116.2 189.0 L 116.2 18.0 L 128.2 20.0 L 131.2 22.0 L 128.2 23.8 L 128.2 83.58082189559937 L 134.4 84.6 L 141.4 86.3 L 148.0 88.2 L 154.4 90.4 L 160.4 92.7 L 166.2 95.3 L 171.7 98.1 L 176.9 101.0 L 181.8 104.1 L 186.4 107.4 L 188.4 111.5 L 187.1 115.9 L 183.0 117.9 L 178.6 116.6 L 174.9 113.2 Z M 77.7 148.1 L 73.5 143.9 L 68.9 139.9 L 65.61131267547607 137.38512144088745 L 63.7 140.8 L 55.2 153.1 L 45.6 164.0 L 35.1 173.7 L 23.5 181.9 L 11.0 188.7 L 10.1 187.2 L 21.3 178.8 L 31.5 169.7 L 40.7 159.6 L 49.0 148.6 L 56.4 136.6 L 58.391701221466064 132.52323656082154 L 58.2 132.4 L 52.2 128.9 L 45.7 125.6 L 38.8 122.3 L 37.86950969696045 121.89211378097534 L 35.2 133.4 L 22.1 136.5 L 39.20414972305298 63.0 L 16.9 63.0 L 16.9 59.0 L 40.13498783111572 59.0 L 50.7 13.6 L 61.9 18.3 L 64.4 20.9 L 61.0788290977478 21.839953994750978 L 52.45873155593872 59.0 L 79.1 59.0 L 85.1 54.0 L 96.1 63.0 L 91.1 66.0 L 90.13556442260742 66.40184812545776 L 87.6 79.9 L 83.2 96.9 L 77.7 112.7 L 71.2 127.4 L 69.87088603973389 129.7746835708618 L 74.2 132.3 L 79.9 136.2 L 85.2 140.4 L 90.0 145.0 L 94.5 150.0 L 95.6 154.4 L 93.3 158.4 L 88.8 159.4 L 84.9 157.1 L 81.5 152.5 Z M 51.530842781066895 63.0 L 38.66421756744385 118.46623811721801 L 40.0 118.7 L 47.7 120.6 L 54.9 122.9 L 61.7 125.7 L 61.72043046951294 125.70974378585815 L 62.8 123.5 L 68.3 109.3 L 72.8 94.0 L 76.5 77.6 L 78.66914281845092 63.0 Z " />
</g>
</svg>
