<svg xmlns="http://www.w3.org/2000/svg" xmlns:xlink="http://www.w3.org/1999/xlink" version="1.1" baseProfile="full" viewBox="0 0 200 200" width="200" height="200">
<g fill="black">
<path d="M 28.0 176.0 L 42.0 176.0 L 43.2 175.9 L 44.1 175.7 L 45.0 175.4 L 45.4 175.0 L 45.7 174.1 L 45.9 173.2 L 46.0 172.0 L 46.0 12.0 L 58.0 14.0 L 61.0 16.0 L 58.0 17.8 L 58.0 172.0 L 57.8 174.5 L 57.4 177.0 L 56.6 179.4 L 55.3 181.7 L 53.7 183.7 L 51.7 185.3 L 49.4 186.6 L 47.0 187.4 L 44.5 187.8 L 42.0 188.0 L 42.0 182.0 L 28.0 179.0 Z M 161.8 147.5 L 163.8 147.5 L 161.8 172.5 L 165.4 174.9 L 167.8 178.5 L 165.4 182.1 L 161.8 184.5 L 121.2 184.5 L 118.6 184.4 L 116.1 183.9 L 113.7 183.1 L 111.4 181.9 L 109.4 180.2 L 107.8 178.2 L 106.5 176.0 L 105.7 173.5 L 105.3 171.1 L 105.2 168.5 L 105.2 138.5 L 117.2 140.5 L 120.2 142.5 L 117.2 144.3 L 117.2 169.7 L 117.4 170.6 L 117.6 171.2 L 117.8 171.6 L 118.1 171.9 L 118.4 172.1 L 119.0 172.3 L 119.9 172.4 L 121.2 172.5 L 155.8 172.5 Z M 78.8 177.3 L 77.6 172.9 L 79.8 168.9 L 81.3 168.0 L 82.8 166.7 L 84.3 164.9 L 85.8 162.7 L 87.2 160.0 L 88.5 156.8 L 89.6 153.2 L 90.6 149.2 L 91.6 144.7 L 92.1 139.7 L 93.9 139.7 L 94.5 144.7 L 95.1 149.5 L 95.3 153.9 L 95.1 158.2 L 94.7 162.1 L 94.0 165.8 L 92.9 169.3 L 91.4 172.6 L 89.5 175.6 L 87.2 178.3 L 82.8 179.5 Z M 174.4 164.2 L 173.6 161.4 L 172.7 158.5 L 171.6 155.7 L 170.2 152.9 L 168.7 150.1 L 166.9 147.2 L 165.0 144.3 L 162.6 141.6 L 163.8 140.2 L 170.0 144.2 L 172.9 146.4 L 175.6 148.9 L 178.1 151.5 L 180.3 154.4 L 182.3 157.4 L 184.1 160.5 L 185.7 163.9 L 187.0 167.3 L 186.2 171.8 L 182.5 174.5 L 178.0 173.7 L 175.3 170.0 L 174.9 167.1 Z M 135.5 152.9 L 134.6 150.7 L 133.6 148.5 L 132.5 146.3 L 129.9 142.1 L 126.7 137.9 L 124.7 136.2 L 125.6 134.6 L 128.1 135.9 L 130.8 136.9 L 133.3 138.2 L 135.8 139.7 L 138.1 141.4 L 140.3 143.3 L 142.4 145.4 L 144.4 147.7 L 146.2 150.1 L 147.9 152.6 L 148.0 157.2 L 144.9 160.6 L 140.3 160.7 L 137.0 157.6 L 136.3 155.2 Z M 39.8 57.5 L 42.7 59.7 L 39.2892484664917 61.373198890686034 L 38.6 66.6 L 37.0 75.6 L 35.2 84.4 L 33.0 93.2 L 30.5 101.8 L 27.7 110.2 L 24.6 118.5 L 21.1 126.7 L 17.2 134.6 L 12.8 142.3 L 11.1 141.6 L 13.7 133.2 L 16.1 124.8 L 18.4 116.5 L 20.5 108.1 L 22.3 99.6 L 23.9 91.1 L 25.3 82.6 L 26.4 73.9 L 27.3 65.2 L 27.831800079345705 57.40026502609253 L 27.8 57.4 L 28.1 54.3 Z M 107.2 83.7 L 157.7 83.7 L 163.7 78.7 L 174.7 87.7 L 169.7 91.7 L 169.7 128.5 L 157.7 134.5 L 157.7 128.5 L 107.2 128.5 L 95.2 134.5 L 95.2 77.7 Z M 74.0 112.2 L 73.6 107.0 L 72.9 101.2 L 71.9 94.9 L 70.6 88.1 L 69.1 80.7 L 67.4 72.8 L 65.5 64.3 L 63.4 55.2 L 65.1 54.6 L 69.1 63.1 L 72.5 71.2 L 75.4 78.8 L 78.0 86.1 L 80.2 93.0 L 82.0 99.4 L 83.5 105.4 L 84.7 110.9 L 85.5 116.1 L 86.0 121.0 L 84.2 125.2 L 80.0 127.0 L 75.8 125.2 L 74.0 121.0 L 74.1 116.9 Z M 107.2 108.1 L 107.2 124.5 L 157.7 124.5 L 157.7 108.1 Z M 107.2 87.7 L 107.2 104.1 L 157.7 104.1 L 157.7 87.7 Z M 161.3 42.8 L 163.4 45.8 L 159.18490991592407 46.53948945999146 L 158.4 47.9 L 155.0 53.1 L 153.1 55.8 L 151.0 58.5 L 148.9 61.3 L 146.6 64.1 L 144.0 66.8 L 143.5199999809265 67.4 L 164.9181818008423 67.4 L 173.1 58.4 L 183.1 67.4 L 183.1 71.4 L 81.7 71.4 L 81.7 67.4 L 140.78571424484252 67.4 L 141.7 65.4 L 142.9 61.9 L 144.1 58.6 L 147.2 49.3 L 148.1 46.4 L 148.9 43.7 L 149.5 41.1 L 149.87858772277832 39.52255125045777 L 149.8 39.5 L 150.0709677696228 38.7209677696228 L 150.1 38.6 L 150.1115385055542 38.60432691574097 L 150.6 37.2 Z M 111.7 57.5 L 111.3 55.1 L 110.8 52.7 L 110.2 50.4 L 109.5 48.2 L 108.7 46.1 L 107.9 43.9 L 106.9 41.8 L 105.5 40.1 L 106.7 38.7 L 108.6 40.1 L 110.8 41.4 L 112.9 43.0 L 114.8 44.8 L 116.7 46.9 L 118.4 49.1 L 120.0 51.5 L 121.4 54.2 L 122.8 57.0 L 124.0 59.9 L 123.3 64.4 L 119.6 67.2 L 115.1 66.4 L 112.4 62.8 L 112.1 60.1 Z M 88.5 32.7 L 126.4 32.7 L 126.4 11.2 L 138.4 13.2 L 141.4 15.2 L 138.4 17.0 L 138.4 32.7 L 154.4 32.7 L 164.4 22.7 L 176.4 32.7 L 176.4 36.7 L 88.5 36.7 Z " />
</g>
</svg>
