<svg xmlns="http://www.w3.org/2000/svg" xmlns:xlink="http://www.w3.org/1999/xlink" version="1.1" baseProfile="full" viewBox="0 0 200 200" width="200" height="200">
<g fill="black">
<path d="M 32.8 21.8 L 79.9 21.8 L 85.9 16.8 L 96.9 25.8 L 91.9 29.8 L 91.9 59.7 L 79.9 65.7 L 79.9 55.7 L 32.8 55.7 L 32.8 91.8 L 32.79635038375854 91.9 L 54.8 91.9 L 54.8 60.9 L 66.8 62.9 L 69.8 64.9 L 66.8 66.7 L 66.8 91.9 L 73.7 91.9 L 83.7 81.9 L 95.7 91.9 L 95.7 95.9 L 66.8 95.9 L 66.8 126.9 L 78.1 126.9 L 84.1 121.9 L 95.1 130.9 L 90.1 134.9 L 90.1 176.1 L 78.1 182.1 L 78.1 172.1 L 47.1 172.1 L 47.1 179.1 L 35.1 185.1 L 35.1 120.9 L 47.1 126.9 L 54.8 126.9 L 54.8 95.9 L 32.65036497116089 95.9 L 32.3 105.5 L 31.6 118.2 L 30.4 130.0 L 29.0 140.8 L 27.2 150.7 L 25.0 159.6 L 22.5 167.6 L 19.6 174.5 L 16.2 180.3 L 12.3 185.0 L 10.8 184.0 L 12.8 178.6 L 14.6 172.6 L 16.2 165.7 L 17.6 158.0 L 18.8 149.3 L 19.8 139.7 L 20.4 129.2 L 20.8 117.7 L 21.0 105.2 L 20.8 91.8 L 20.8 15.8 Z M 177.2 144.0 L 179.2 144.0 L 177.2 169.0 L 180.8 171.4 L 183.2 175.0 L 180.8 178.6 L 177.2 181.0 L 135.9 181.0 L 133.3 180.8 L 130.8 180.4 L 128.4 179.6 L 126.1 178.3 L 124.1 176.7 L 122.5 174.7 L 121.3 172.4 L 120.4 170.0 L 120.0 167.5 L 119.9 165.0 L 119.9 128.51428575515746 L 117.2 131.6 L 106.9 142.0 L 96.0 151.6 L 94.7 150.3 L 104.1 139.4 L 113.1 128.1 L 119.9 118.848837184906 L 119.9 104.0 L 129.06782178878785 105.52797031402588 L 129.9 104.3 L 137.7 91.7 L 141.9908396720886 84.0 L 97.0 84.0 L 97.0 80.0 L 131.1 80.0 L 131.1 47.0 L 106.1 47.0 L 106.1 43.0 L 131.1 43.0 L 131.1 13.0 L 143.1 15.0 L 146.1 17.0 L 143.1 18.8 L 143.1 43.0 L 147.9777777671814 43.0 L 154.2 36.0 L 161.5984962463379 42.47368421554565 L 164.2 36.1 L 169.6 20.9 L 170.1 19.4 L 180.9 24.9 L 183.1 27.8 L 179.45893535614013 28.502661609649657 L 174.7 40.4 L 168.0 55.2 L 160.8 69.5 L 154.85514707565306 80.0 L 165.9 80.0 L 175.9 70.0 L 187.9 80.0 L 187.9 84.0 L 152.53664121627807 84.0 L 144.9 96.2 L 136.2 108.6 L 131.9 114.11521739959717 L 131.9 134.7199999809265 L 134.6 132.8 L 139.1 129.7 L 143.4 126.6 L 147.5 123.4 L 151.6 120.0 L 155.5 116.6 L 159.2 113.0 L 162.9 109.3 L 166.4 105.4 L 166.41428575515747 105.41428575515747 L 166.7 105.1 L 174.9 113.9 L 175.6 117.4 L 171.90575914382936 116.47643976211548 L 170.6 117.6 L 166.2 121.1 L 161.7 124.4 L 157.1 127.5 L 152.3 130.4 L 147.4 133.0 L 142.3 135.5 L 137.1 137.6 L 131.9 139.3333333015442 L 131.9 166.2 L 132.1 167.1 L 132.3 167.7 L 132.5 168.0 L 132.6 168.2 L 132.8 168.4 L 133.7 168.7 L 134.6 168.9 L 135.9 169.0 L 171.2 169.0 Z M 47.1 168.1 L 78.1 168.1 L 78.1 130.9 L 47.1 130.9 Z M 143.1 47.0 L 143.1 80.0 L 144.21984729766845 80.0 L 145.0 78.6 L 151.8 64.9 L 158.2 50.8 L 159.75102043151855 47.0 Z M 32.8 25.8 L 32.8 51.7 L 79.9 51.7 L 79.9 25.8 Z " />
</g>
</svg>
