<svg xmlns="http://www.w3.org/2000/svg" xmlns:xlink="http://www.w3.org/1999/xlink" version="1.1" baseProfile="full" viewBox="0 0 200 200" width="200" height="200">
<g fill="black">
<path d="M 103.0 179.0 L 123.0 179.0 L 124.2 178.9 L 125.1 178.7 L 126.0 178.4 L 126.4 178.0 L 126.7 177.1 L 126.9 176.2 L 127.0 175.0 L 127.0 155.0 L 23.0 155.0 L 23.0 151.0 L 127.0 151.0 L 127.0 136.0 L 139.0 138.0 L 142.0 140.0 L 139.0 141.8 L 139.0 151.0 L 156.0 151.0 L 166.0 141.0 L 178.0 151.0 L 178.0 155.0 L 139.0 155.0 L 139.0 175.0 L 138.8 177.5 L 138.4 180.0 L 137.6 182.4 L 136.3 184.7 L 134.7 186.7 L 132.7 188.3 L 130.4 189.6 L 128.0 190.4 L 125.5 190.8 L 123.0 191.0 L 123.0 185.0 L 103.0 182.0 Z M 77.2 174.6 L 75.7 172.8 L 73.9 170.9 L 71.8 169.0 L 69.3 167.0 L 66.6 165.0 L 63.6 163.0 L 60.3 160.9 L 56.6 159.1 L 57.2 157.4 L 61.3 158.4 L 65.2 159.1 L 68.9 160.0 L 72.4 161.1 L 75.7 162.4 L 78.8 163.8 L 81.6 165.3 L 84.3 167.0 L 86.7 168.9 L 89.0 171.0 L 90.0 175.4 L 87.8 179.4 L 83.3 180.4 L 79.4 178.2 L 78.4 176.4 Z M 182.0 130.0 L 182.0 134.0 L 18.0 134.0 L 18.0 130.0 L 163.8181818008423 130.0 L 172.0 121.0 Z M 142.0 44.0 L 142.0 48.0 L 120.0 48.0 L 120.0 65.0 L 151.0 65.0 L 157.0 60.0 L 168.0 69.0 L 163.0 73.0 L 163.0 114.0 L 151.0 120.0 L 151.0 69.0 L 120.0 69.0 L 120.0 82.0 L 108.0 88.0 L 108.0 69.0 L 92.0 69.0 L 92.0 82.0 L 80.0 88.0 L 80.0 69.0 L 52.0 69.0 L 52.0 114.0 L 40.0 120.0 L 40.0 59.0 L 52.0 65.0 L 80.0 65.0 L 80.0 48.0 L 58.0 48.0 L 58.0 44.0 L 123.81818180084228 44.0 L 132.0 35.0 Z M 145.0 116.0 L 145.0 120.0 L 60.0 120.0 L 60.0 116.0 L 130.7777777671814 116.0 L 137.0 109.0 Z M 145.0 102.0 L 145.0 106.0 L 60.0 106.0 L 60.0 102.0 L 130.7777777671814 102.0 L 137.0 95.0 Z M 145.0 88.0 L 145.0 92.0 L 60.0 92.0 L 60.0 88.0 L 126.81818180084228 88.0 L 135.0 79.0 Z M 75.5 23.0 L 77.0 26.2 L 73.19824562072753 26.2 L 71.4 28.7 L 66.7 34.3 L 61.7 39.9 L 56.2 45.3 L 50.3 50.7 L 43.9 56.0 L 37.0 61.2 L 29.7 66.2 L 21.8 71.1 L 13.5 75.7 L 12.4 74.2 L 19.6 68.0 L 26.4 62.0 L 32.8 56.1 L 38.8 50.3 L 44.4 44.6 L 49.5 38.9 L 54.1 33.3 L 58.3 27.7 L 62.0 22.1 L 65.3 16.6 L 65.32148275375366 16.613479328155517 L 65.8 15.8 Z M 164.9 60.0 L 158.7 56.4 L 152.9 52.6 L 147.6 48.4 L 142.8 44.0 L 138.5 39.3 L 134.8 34.2 L 132.3940740585327 29.802962970733642 L 130.4 30.8 L 130.4 25.081818199157716 L 129.975 24.0 L 83.0 24.0 L 83.0 20.0 L 125.36000003814698 20.0 L 130.4 15.8 L 141.4 24.8 L 136.54396286010743 27.713622283935546 L 139.4 30.5 L 143.7 34.2 L 148.2 37.7 L 153.1 40.9 L 158.3 43.9 L 163.9 46.7 L 169.9 49.3 L 176.3 51.6 L 183.0 53.7 L 190.5 56.2 L 178.9 66.2 L 171.7 63.2 Z M 92.0 48.0 L 92.0 65.0 L 108.0 65.0 L 108.0 48.0 Z M 130.0 23.119999980926515 L 130.4 22.880000019073485 L 130.4 22.8 L 130.0 22.66666669845581 Z " />
</g>
</svg>
