<svg xmlns="http://www.w3.org/2000/svg" xmlns:xlink="http://www.w3.org/1999/xlink" version="1.1" baseProfile="full" viewBox="0 0 200 200" width="200" height="200">
<g fill="black">
<path d="M 138.7 176.2 L 158.7 176.2 L 159.9 176.1 L 160.8 175.9 L 161.7 175.6 L 162.1 175.2 L 162.3 174.9 L 162.4 174.3 L 162.6 173.4 L 162.7 172.2 L 162.7 94.6 L 67.2 94.6 L 67.2 182.1 L 55.2 188.1 L 55.2 84.6 L 67.2 90.6 L 93.00588235855102 90.6 L 94.3 88.6 L 96.3 85.0 L 98.2 81.7 L 100.2 78.4 L 102.0 75.2 L 103.8 72.1 L 105.5 69.1 L 107.2 66.2 L 108.7 63.3 L 109.73205289840698 61.373501205444335 L 109.6 61.3 L 110.7 59.7 L 120.2 67.2 L 121.5 70.5 L 117.47641086578369 70.29188327789306 L 115.7 72.3 L 113.3 74.9 L 110.8 77.4 L 108.2 80.1 L 105.5 82.7 L 102.7 85.3 L 99.8 87.9 L 96.6 90.5 L 96.48518514633179 90.6 L 162.7 90.6 L 168.7 85.6 L 179.7 94.6 L 174.7 98.6 L 174.7 172.2 L 174.5 174.7 L 174.1 177.2 L 173.3 179.6 L 172.1 181.9 L 170.4 183.9 L 168.4 185.5 L 166.1 186.8 L 163.7 187.6 L 161.2 188.0 L 158.7 188.2 L 158.7 182.2 L 138.7 179.2 Z M 45.0 23.0 L 161.0 23.0 L 167.0 18.0 L 178.0 27.0 L 173.0 31.0 L 173.0 60.0 L 161.0 66.0 L 161.0 56.0 L 45.0 56.0 L 45.0 87.0 L 44.4 99.7 L 43.3 111.8 L 41.7 123.3 L 39.5 134.2 L 36.8 144.5 L 33.6 154.1 L 29.7 163.1 L 25.4 171.4 L 20.3 178.8 L 14.7 185.5 L 13.2 184.4 L 17.1 176.9 L 20.6 169.0 L 23.7 160.6 L 26.3 151.8 L 28.6 142.4 L 30.4 132.5 L 31.7 122.0 L 32.6 110.9 L 33.0 99.2 L 33.0 17.0 Z M 98.8 115.0 L 131.1 115.0 L 137.1 110.0 L 148.1 119.0 L 143.1 123.0 L 143.1 161.3 L 131.1 167.3 L 131.1 155.3 L 98.8 155.3 L 98.8 167.3 L 86.8 173.3 L 86.8 109.0 Z M 98.8 119.0 L 98.8 151.3 L 131.1 151.3 L 131.1 119.0 Z M 45.0 27.0 L 45.0 52.0 L 161.0 52.0 L 161.0 27.0 Z " />
</g>
</svg>
