<svg xmlns="http://www.w3.org/2000/svg" xmlns:xlink="http://www.w3.org/1999/xlink" version="1.1" baseProfile="full" viewBox="0 0 200 200" width="200" height="200">
<g fill="black">
<path d="M 126.6 182.7 L 105.3 179.8 L 87.0 175.1 L 71.3 168.5 L 58.2 159.9 L 52.183978176116945 154.04955673217773 L 49.1 158.7 L 41.8 167.2 L 33.6 174.8 L 24.4 181.3 L 14.4 186.7 L 13.5 185.2 L 22.2 178.2 L 29.9 170.8 L 36.8 162.9 L 42.8 154.3 L 46.39457015991211 148.00950222015382 L 38.6 136.9 L 31.7 122.5 L 26.4 106.2 L 28.1 105.6 L 35.5 120.8 L 43.6 133.7 L 49.79930419921875 141.05741596221924 L 52.3 135.3 L 55.7 124.7 L 58.3 113.5 L 60.1 101.4 L 60.83125 91.0 L 38.565180110931394 91.0 L 37.5 93.3 L 24.1 93.6 L 51.353691291809085 36.0 L 15.0 36.0 L 15.0 32.0 L 53.0 32.0 L 59.0 27.0 L 70.0 36.0 L 65.0 39.0 L 62.08501596450806 40.214576721191406 L 40.41766719818115 87.0 L 61.0 87.0 L 67.0 82.0 L 78.0 91.0 L 73.0 94.0 L 72.3134020805359 94.2860824584961 L 71.3 102.9 L 68.8 115.7 L 65.3 127.7 L 60.8 138.9 L 56.30017404556274 147.48300132751464 L 63.2 153.2 L 75.4 160.1 L 90.0 165.4 L 107.2 169.0 L 127.5 171.0 L 151.2 171.4 L 178.6 170.4 L 189.8 169.8 L 179.3 183.5 L 151.2 184.0 Z M 160.2 142.3 L 153.4 132.8 L 147.2 122.4 L 141.8 110.9 L 137.0 98.5 L 132.9 85.2 L 129.5 70.8 L 126.9 55.4 L 125.40840120315552 41.09819974899292 L 125.4 41.1 L 118.4 42.3 L 111.4 43.2 L 104.2 43.7 L 103.0 43.71690139770508 L 103.0 138.932142829895 L 106.4 137.9 L 112.2 136.1 L 118.2 134.2 L 124.4 132.2 L 130.8 130.1 L 137.6 128.1 L 138.3 129.8 L 132.4 133.6 L 126.5 137.1 L 120.7 140.2 L 115.1 143.1 L 109.5 145.8 L 104.0 148.3 L 98.7 150.6 L 93.5 152.8 L 88.5 154.7 L 87.51131820678711 155.05592546463012 L 86.3 158.8 L 83.5 156.5 L 78.4 145.4 L 80.3 144.9 L 85.1 143.8 L 90.2 142.6 L 91.0 142.38461542129517 L 91.0 35.0 L 101.99272727966309 40.49636363983154 L 103.6 40.0 L 110.3 37.9 L 116.9 35.9 L 123.5 33.7 L 130.0 31.5 L 136.5 29.1 L 142.8 26.5 L 149.1 23.8 L 155.4 20.9 L 160.63705310821533 18.365942001342773 L 160.6 18.3 L 160.66029167175293 18.354697608947752 L 161.6 17.9 L 162.59236545562743 20.10750675201416 L 170.3 27.1 L 170.4 30.3 L 166.62734336853026 28.743030643463136 L 166.5 28.8 L 159.8 31.4 L 153.0 33.8 L 146.2 36.0 L 139.3 37.9 L 132.4 39.6 L 127.46998281478882 40.65643224716187 L 131.0 54.6 L 135.2 69.3 L 139.8 83.0 L 140.28927040100098 84.22317600250244 L 140.7 83.8 L 143.9 80.5 L 156.2 68.2 L 159.1 65.4 L 161.9 62.5 L 166.6011764526367 57.798823547363284 L 166.5 57.7 L 167.4 56.9 L 175.1 66.1 L 175.6 69.7 L 171.85972366333007 68.49776830673218 L 168.7 70.7 L 161.9 75.3 L 158.3 77.6 L 154.6 79.8 L 150.8 82.1 L 146.8 84.4 L 142.7 86.5 L 141.4598424911499 87.14960632324218 L 144.8 95.5 L 150.2 107.0 L 156.1 117.3 L 162.4 126.5 L 169.2 134.6 L 176.3 141.7 L 183.9 147.7 L 186.9 149.9 L 176.0 158.2 L 167.7 150.8 Z " />
</g>
</svg>
