<svg xmlns="http://www.w3.org/2000/svg" xmlns:xlink="http://www.w3.org/1999/xlink" version="1.1" baseProfile="full" viewBox="0 0 200 200" width="200" height="200">
<g fill="black">
<path d="M 40.0 35.0 L 98.0 35.0 L 98.0 12.0 L 110.0 14.0 L 113.0 16.0 L 110.0 17.8 L 110.0 35.0 L 164.0 35.0 L 174.0 25.0 L 186.0 35.0 L 186.0 39.0 L 40.0 39.0 L 40.0 102.0 L 39.4 113.7 L 38.3 124.8 L 36.7 135.3 L 34.5 145.2 L 31.8 154.4 L 28.5 162.9 L 24.7 170.8 L 20.3 177.9 L 15.2 184.2 L 9.6 189.5 L 8.3 188.4 L 12.2 181.9 L 15.6 175.2 L 18.7 168.0 L 21.4 160.3 L 23.6 152.0 L 25.4 143.2 L 26.7 133.8 L 27.6 123.8 L 28.0 113.2 L 28.0 29.0 Z M 139.4 175.3 L 159.4 175.3 L 160.6 175.2 L 161.5 175.1 L 162.1 174.9 L 162.4 174.7 L 162.8 174.3 L 163.0 174.0 L 163.2 173.4 L 163.3 172.5 L 163.4 171.3 L 163.4 143.7 L 122.7 143.7 L 122.7 176.6 L 110.7 182.6 L 110.7 143.7 L 70.8 143.7 L 70.8 181.6 L 58.8 187.6 L 58.8 77.6 L 70.8 83.6 L 117.52631578445434 83.6 L 116.5 82.3 L 114.7 80.3 L 112.5 78.2 L 109.9 76.1 L 107.0 74.0 L 103.7 71.9 L 100.1 69.7 L 96.1 67.4 L 91.8 65.0 L 87.1 62.8 L 87.7 61.1 L 92.8 62.1 L 97.8 63.0 L 102.4 64.2 L 106.7 65.5 L 110.7 66.9 L 114.4 68.5 L 117.9 70.1 L 121.1 71.9 L 122.18064517974854 72.62043008804321 L 124.6 70.9 L 128.7 67.8 L 132.5 64.9 L 136.0 62.2 L 139.2 59.7 L 142.0 57.4 L 143.36363639831544 56.2 L 60.1 56.2 L 60.1 52.2 L 147.6473684310913 52.2 L 148.5 51.3 L 149.9 49.7 L 150.32245988845824 50.18128337860107 L 153.9 47.2 L 164.9 56.2 L 159.9 59.2 L 148.74324321746826 63.848648643493654 L 146.9 64.8 L 143.4 66.5 L 139.6 68.2 L 135.4 70.0 L 131.0 71.8 L 126.1 73.6 L 124.50364551544189 74.22602138519287 L 126.7 76.0 L 128.3 80.3 L 126.88571424484253 83.6 L 163.4 83.6 L 169.4 78.6 L 180.4 87.6 L 175.4 91.6 L 175.4 171.3 L 175.2 173.8 L 174.8 176.3 L 174.0 178.7 L 172.8 181.0 L 171.1 183.0 L 169.1 184.7 L 166.8 185.9 L 164.4 186.7 L 161.9 187.1 L 159.4 187.3 L 159.4 181.3 L 139.4 178.3 Z M 70.8 114.8 L 70.8 139.7 L 110.7 139.7 L 110.7 114.8 Z M 122.7 114.8 L 122.7 139.7 L 163.4 139.7 L 163.4 114.8 Z M 70.8 87.6 L 70.8 110.8 L 110.7 110.8 L 110.7 87.6 Z M 122.7 87.6 L 122.7 110.8 L 163.4 110.8 L 163.4 87.6 Z " />
</g>
</svg>
