<svg xmlns="http://www.w3.org/2000/svg" xmlns:xlink="http://www.w3.org/1999/xlink" version="1.1" baseProfile="full" viewBox="0 0 200 200" width="200" height="200">
<g fill="black">
<path d="M 75.0 58.8 L 76.6 62.1 L 72.82894735336303 62.1 L 70.0 66.4 L 64.8 73.7 L 59.3 80.8 L 53.5 87.6 L 47.5 94.2 L 45.85714282989502 95.84285717010498 L 52.8 97.0 L 55.8 99.0 L 52.8 100.8 L 52.8 182.0 L 40.8 188.0 L 40.8 100.8641791343689 L 34.5 106.6 L 27.6 112.3 L 20.4 117.7 L 12.8 122.7 L 11.7 121.2 L 17.9 114.8 L 24.0 108.4 L 29.9 101.9 L 35.6 95.3 L 41.1 88.6 L 46.3 81.8 L 51.2 74.8 L 55.9 67.6 L 60.4 60.3 L 64.6 52.8 L 64.63696680068969 52.82132701873779 L 65.2 51.9 Z M 93.0 25.8 L 170.5 25.8 L 176.5 20.8 L 187.5 29.8 L 182.5 33.8 L 182.5 178.1 L 170.5 184.1 L 170.5 174.1 L 93.0 174.1 L 93.0 181.1 L 81.0 187.1 L 81.0 19.8 Z M 148.3 144.2 L 143.6 135.3 L 139.7 125.4 L 136.6 114.6 L 134.2 102.7 L 133.01486349105835 93.63719167709351 L 130.4 105.9 L 126.8 118.2 L 122.5 129.1 L 117.3 138.8 L 111.4 147.0 L 104.7 153.6 L 97.3 158.7 L 96.3 157.2 L 102.0 151.0 L 107.1 143.8 L 111.6 135.6 L 115.5 126.2 L 118.7 115.7 L 121.4 103.9 L 123.4 90.9 L 124.7 76.5 L 125.4 60.9 L 125.5 44.0 L 125.5 41.6 L 137.5 44.0 L 140.5 46.0 L 137.34334506988526 47.89399290084839 L 136.8 61.4 L 136.42542371749877 65.70762710571289 L 137.6 75.3 L 139.7 88.7 L 142.4 101.0 L 145.5 112.0 L 149.2 121.8 L 153.4 130.4 L 158.1 137.7 L 163.2 143.8 L 168.7 148.7 L 170.5 150.2 L 170.5 29.8 L 93.0 29.8 L 93.0 170.1 L 170.5 170.1 L 170.5 151.14587154388428 L 160.2 158.8 L 153.8 152.1 Z M 67.6 20.9 L 69.1 24.2 L 65.31538457870484 24.2 L 63.1 27.4 L 58.5 33.7 L 53.7 39.8 L 48.8 45.6 L 43.6 51.2 L 38.3 56.5 L 32.8 61.5 L 27.2 66.3 L 21.2 70.7 L 15.0 74.6 L 13.9 73.3 L 18.7 67.8 L 23.5 62.4 L 32.7 51.4 L 37.2 45.7 L 41.5 39.8 L 45.7 33.8 L 49.7 27.6 L 53.6 21.2 L 57.3 14.7 L 57.8 13.8 Z " />
</g>
</svg>
