<svg xmlns="http://www.w3.org/2000/svg" xmlns:xlink="http://www.w3.org/1999/xlink" version="1.1" baseProfile="full" viewBox="0 0 200 200" width="200" height="200">
<g fill="black">
<path d="M 40.0 35.0 L 98.0 35.0 L 98.0 12.0 L 110.0 14.0 L 113.0 16.0 L 110.0 17.8 L 110.0 35.0 L 167.8181818008423 35.0 L 176.0 26.0 L 186.0 35.0 L 186.0 39.0 L 40.0 39.0 L 40.0 102.0 L 39.4 113.7 L 38.3 124.8 L 36.7 135.3 L 34.5 145.2 L 31.8 154.4 L 28.5 162.9 L 24.7 170.8 L 20.3 177.9 L 15.2 184.2 L 9.6 189.5 L 8.3 188.4 L 12.2 181.9 L 15.6 175.2 L 18.7 168.0 L 21.4 160.3 L 23.6 152.0 L 25.4 143.2 L 26.7 133.8 L 27.6 123.8 L 28.0 113.2 L 28.0 29.0 Z M 160.2 178.4 L 153.1 173.7 L 146.7 168.2 L 146.07735853195192 167.48679246902466 L 140.1 172.8 L 132.1 178.2 L 123.5 182.6 L 114.3 185.8 L 104.5 188.0 L 104.1 186.2 L 113.0 182.3 L 121.1 177.8 L 128.4 172.7 L 135.1 167.0 L 140.68609132766724 161.1346040725708 L 136.5 154.9 L 132.7 147.2 L 129.8 138.9 L 127.8 129.9 L 126.89278354644776 121.1 L 119.1 121.1 L 119.1 117.1 L 161.4 117.1 L 167.4 112.1 L 178.4 121.1 L 173.4 124.1 L 171.78325910568236 124.77364206314087 L 169.5 131.5 L 165.0 141.6 L 159.8 150.8 L 153.9 159.1 L 153.01931219100953 160.07409410476686 L 153.6 160.6 L 159.3 164.6 L 165.6 167.9 L 172.5 170.5 L 180.0 172.5 L 188.4 174.7 L 176.7 185.3 L 168.1 182.3 Z M 74.8 176.7 L 90.2 176.7 L 91.2 176.6 L 91.8 176.5 L 92.2 176.4 L 92.5 176.2 L 92.6 176.1 L 92.8 175.8 L 93.0 175.4 L 93.2 174.6 L 93.4 173.6 L 93.4 116.56857147216797 L 90.2 117.3 L 83.1 118.7 L 75.8 120.1 L 68.4 121.4 L 67.98872814178466 121.46493768692017 L 67.9 124.6 L 67.1 134.5 L 65.9 143.7 L 64.4 152.3 L 62.3 160.2 L 59.9 167.4 L 57.0 173.9 L 53.6 179.7 L 49.7 184.6 L 45.3 188.5 L 44.0 187.3 L 46.6 182.4 L 48.9 177.1 L 50.9 171.4 L 52.7 165.1 L 54.1 158.2 L 55.2 150.7 L 56.0 142.6 L 56.4 133.8 L 56.5 124.3 L 56.46981325149536 123.28371372222901 L 53.2 123.8 L 49.49423990249634 124.32260723114014 L 47.7 127.7 L 45.4 124.9 L 42.2 113.2 L 44.2 113.0 L 52.0 112.5 L 56.2 112.16842107772827 L 56.2 59.4 L 68.2 65.4 L 70.69090909957886 65.4 L 71.2 64.6 L 72.1 62.0 L 73.0 59.6 L 73.8 57.2 L 74.6 54.9 L 75.8 50.5 L 76.3 48.3 L 76.8 46.2 L 76.95136413574218 45.14045076370239 L 76.8 45.1 L 77.075 44.275 L 77.1 44.1 L 77.12973680496216 44.1107894897461 L 77.6 42.7 L 88.4 48.2 L 90.5 51.1 L 86.00204086303711 52.046938800811766 L 85.7 52.5 L 84.2 54.6 L 81.0 58.6 L 79.2 60.5 L 77.3 62.4 L 75.3 64.2 L 73.83333330154419 65.4 L 93.4 65.4 L 98.9 60.4 L 109.4 69.4 L 104.4 72.9 L 104.4 108.75285711288453 L 110.3 108.5 L 114.80580205917359 108.36939706802369 L 116.1 106.5 L 118.5 102.6 L 120.4 98.8 L 122.1 95.1 L 123.3 91.3 L 124.2 87.4 L 124.7 83.5 L 124.9 79.6 L 124.7 75.6 L 124.7 47.9 L 136.7 53.9 L 154.3 53.9 L 160.3 48.9 L 171.3 57.9 L 166.3 61.9 L 166.3 92.3 L 166.4 93.2 L 166.5 93.9 L 166.6 94.3 L 166.7 94.6 L 166.9 94.9 L 167.3 95.2 L 168.0 95.6 L 169.0 95.8 L 170.3 96.0 L 175.9 96.0 L 180.9 79.0 L 182.9 79.0 L 180.9 96.0 L 183.9 98.0 L 185.9 101.0 L 183.9 104.0 L 180.9 106.0 L 167.9 106.0 L 165.5 105.7 L 163.1 105.0 L 160.9 103.9 L 158.9 102.4 L 157.3 100.5 L 156.0 98.4 L 155.1 96.0 L 154.6 93.6 L 154.3 91.0 L 154.3 57.9 L 136.7 57.9 L 136.7 75.6 L 136.2 80.6 L 135.1 85.5 L 133.7 90.1 L 131.7 94.6 L 129.4 98.8 L 126.6 102.7 L 123.4 106.4 L 119.8 109.8 L 115.7 112.8 L 111.3 115.6 L 110.2 114.3 L 112.28454256057739 111.75946369171143 L 110.9 112.2 L 104.4 114.01617650985717 L 104.4 172.2 L 104.3 174.6 L 104.0 177.0 L 103.3 179.2 L 102.3 181.4 L 100.9 183.3 L 99.1 185.0 L 97.1 186.2 L 94.9 187.1 L 92.5 187.5 L 90.2 187.7 L 90.2 182.2 L 74.8 179.4 Z M 84.4 126.6 L 87.1 128.6 L 84.4 130.32340421676636 L 84.4 158.1 L 73.4 163.6 L 73.4 124.6 Z M 129.0314606666565 121.1 L 131.8 128.8 L 135.3 136.8 L 139.2 143.9 L 143.5 150.3 L 146.4441204071045 153.6734712600708 L 146.5 153.6 L 151.2 145.7 L 155.3 137.1 L 158.8 127.7 L 160.61176471710206 121.1 Z M 68.2 69.4 L 68.2 111.33243246078491 L 74.6 110.9 L 81.9 110.3 L 89.1 109.8 L 93.4 109.4416666984558 L 93.4 69.4 Z M 77.4 94.6 L 77.0 91.8 L 76.6 89.2 L 76.0 86.7 L 75.3 84.3 L 74.5 81.9 L 73.5 79.6 L 72.4 77.2 L 70.7 75.3 L 71.9 73.9 L 74.1 75.5 L 76.6 77.0 L 78.8 78.8 L 80.9 81.0 L 82.8 83.4 L 84.5 86.1 L 86.0 89.0 L 87.4 92.1 L 88.5 95.4 L 89.5 98.9 L 88.2 103.3 L 84.3 105.6 L 79.9 104.4 L 77.6 100.4 L 77.5 97.4 Z " />
</g>
</svg>
