<svg xmlns="http://www.w3.org/2000/svg" xmlns:xlink="http://www.w3.org/1999/xlink" version="1.1" baseProfile="full" viewBox="0 0 200 200" width="200" height="200">
<g fill="black">
<path d="M 92.1 182.0 L 80.1 188.0 L 80.1 138.9 L 92.1 140.9 L 95.1 142.9 L 92.1 144.7 L 92.1 175.0 L 125.0 175.0 L 125.0 127.8 L 99.3 127.8 L 87.3 133.8 L 87.3 82.1 L 99.3 88.1 L 125.0 88.1 L 125.0 62.9 L 103.3 62.9 L 103.3 69.9 L 91.3 75.9 L 91.3 20.0 L 103.3 26.0 L 158.6 26.0 L 164.6 21.0 L 175.6 30.0 L 170.6 34.0 L 170.6 66.9 L 158.6 72.9 L 158.6 62.9 L 137.0 62.9 L 137.0 88.1 L 162.7 88.1 L 168.7 83.1 L 179.7 92.1 L 174.7 96.1 L 174.7 127.8 L 162.7 133.8 L 162.7 127.8 L 137.0 127.8 L 137.0 175.0 L 169.8 175.0 L 169.8 138.9 L 181.8 140.9 L 184.8 142.9 L 181.8 144.7 L 181.8 181.0 L 169.8 187.0 L 169.8 179.0 L 92.1 179.0 Z M 59.6 179.5 L 58.1 181.4 L 56.4 183.2 L 54.4 184.7 L 52.3 185.9 L 50.0 186.8 L 47.6 187.5 L 45.1 187.8 L 42.6 188.0 L 42.6 182.0 L 28.6 179.0 L 28.6 176.0 L 42.6 176.0 L 44.0 175.9 L 45.1 175.7 L 46.1 175.4 L 47.0 175.1 L 47.8 174.6 L 48.5 174.1 L 49.2 173.4 L 49.8 172.6 L 50.4 171.6 L 51.0 170.4 L 52.3 167.0 L 53.5 162.9 L 54.6 158.1 L 55.6 152.7 L 56.5 146.6 L 57.2 139.9 L 57.9 132.6 L 58.4 124.6 L 58.7 116.1 L 58.8543478012085 109.0 L 34.55 109.0 L 33.3 121.5 L 20.8 126.3 L 27.4 59.4 L 37.99718313217163 66.0 L 58.2 66.0 L 58.2 29.0 L 21.8 29.0 L 21.8 25.0 L 58.2 25.0 L 64.2 20.0 L 75.2 29.0 L 70.2 33.0 L 70.2 76.0 L 58.2 82.0 L 58.2 70.0 L 38.45 70.0 L 34.95 105.0 L 58.9 105.0 L 64.9 100.0 L 75.9 109.0 L 70.9 112.0 L 70.79266548156738 112.04472274780274 L 70.7 116.4 L 70.3 125.2 L 69.8 133.5 L 69.2 141.1 L 68.4 148.2 L 67.5 154.6 L 66.4 160.6 L 65.1 165.9 L 63.7 170.8 L 62.1 175.1 L 61.0 177.4 Z M 99.3 92.1 L 99.3 123.8 L 125.0 123.8 L 125.0 92.1 Z M 137.0 92.1 L 137.0 123.8 L 162.7 123.8 L 162.7 92.1 Z M 103.3 30.0 L 103.3 58.9 L 158.6 58.9 L 158.6 30.0 Z " />
</g>
</svg>
