<svg xmlns="http://www.w3.org/2000/svg" xmlns:xlink="http://www.w3.org/1999/xlink" version="1.1" baseProfile="full" viewBox="0 0 200 200" width="200" height="200">
<g fill="black">
<path d="M 73.4 184.3 L 70.9 183.8 L 68.5 183.0 L 66.2 181.8 L 64.2 180.1 L 62.6 178.1 L 61.3 175.9 L 60.5 173.4 L 60.1 171.0 L 60.0 168.4 L 60.0 135.8 L 72.0 137.8 L 75.0 139.8 L 72.0 141.6 L 72.0 169.6 L 72.2 170.5 L 72.4 171.1 L 72.5 171.5 L 72.7 171.6 L 72.9 171.8 L 73.2 172.0 L 73.8 172.2 L 74.7 172.3 L 76.0 172.4 L 141.0 172.4 L 147.0 147.4 L 149.0 147.4 L 147.0 172.4 L 150.6 174.8 L 153.0 178.4 L 150.6 182.0 L 147.0 184.4 L 76.0 184.4 Z M 15.3 176.5 L 14.9 172.0 L 17.8 168.4 L 20.6 167.1 L 23.2 165.5 L 25.6 163.5 L 27.7 161.1 L 29.7 158.3 L 31.5 155.0 L 33.0 151.3 L 34.3 147.0 L 35.4 142.3 L 36.1 137.0 L 37.9 137.0 L 38.6 142.4 L 39.0 147.6 L 38.8 152.5 L 38.2 157.2 L 37.0 161.6 L 35.4 165.8 L 33.2 169.6 L 30.4 173.2 L 27.2 176.3 L 23.4 179.0 L 18.9 179.4 Z M 170.3 164.0 L 168.8 160.9 L 167.0 157.8 L 164.8 154.7 L 162.2 151.6 L 159.3 148.5 L 156.0 145.3 L 152.4 142.1 L 148.4 138.9 L 149.3 137.3 L 154.1 139.3 L 158.8 141.3 L 163.0 143.7 L 167.0 146.3 L 170.6 149.1 L 173.9 152.1 L 176.8 155.3 L 179.5 158.8 L 181.7 162.4 L 183.6 166.3 L 183.3 170.8 L 179.9 173.9 L 175.4 173.6 L 172.3 170.2 L 171.5 167.1 Z M 108.3 152.1 L 106.4 149.6 L 104.4 147.1 L 102.1 144.7 L 99.7 142.3 L 97.0 140.0 L 94.1 137.6 L 91.0 135.2 L 87.5 133.1 L 88.2 131.5 L 96.2 133.7 L 99.9 135.1 L 103.5 136.7 L 106.9 138.5 L 110.1 140.5 L 113.2 142.7 L 116.1 145.1 L 118.7 147.7 L 121.2 150.5 L 122.1 155.0 L 119.6 158.9 L 115.1 159.7 L 111.3 157.3 L 109.9 154.7 Z M 84.9 69.2 L 83.8 67.4 L 82.5 65.7 L 81.0 63.9 L 79.4 62.1 L 77.7 60.2 L 75.8 58.2 L 74.64290027618408 56.985045337677 L 74.4 57.4 L 71.7 61.3 L 68.8 65.0 L 65.5 68.6 L 62.0 72.0 L 58.1 75.1 L 56.1930233001709 76.44883718490601 L 64.9 77.9 L 67.9 79.9 L 64.9 81.7 L 64.9 88.3 L 81.7 88.3 L 91.7 78.3 L 103.7 88.3 L 103.7 92.3 L 64.9 92.3 L 64.9 97.42765960693359 L 66.5 97.7 L 71.2 98.3 L 75.5 99.3 L 79.6 100.4 L 83.4 101.7 L 87.0 103.2 L 90.4 104.8 L 93.6 106.7 L 96.5 108.7 L 99.1 110.9 L 100.6 115.3 L 98.6 119.4 L 94.2 120.8 L 90.1 118.9 L 88.7 116.9 L 87.0 114.8 L 84.9 112.8 L 82.5 110.8 L 79.8 108.7 L 76.7 106.7 L 73.4 104.7 L 69.7 102.6 L 65.7 100.5 L 64.9 100.17272729873658 L 64.9 128.9 L 52.9 134.9 L 52.9 104.33500003814697 L 50.7 106.7 L 46.4 110.7 L 41.7 114.4 L 36.7 117.8 L 31.3 121.0 L 25.5 123.8 L 19.4 126.3 L 12.9 128.3 L 12.1 126.7 L 17.7 122.9 L 22.9 119.2 L 27.7 115.5 L 32.2 111.7 L 36.2 107.9 L 39.9 104.0 L 43.2 100.0 L 46.2 95.9 L 48.34285717010498 92.3 L 16.3 92.3 L 16.3 88.3 L 52.9 88.3 L 52.9 76.8083333015442 L 52.8 76.7 L 52.9 76.55714282989501 L 52.9 75.9 L 53.3119402885437 75.96865673065186 L 55.6 72.7 L 58.2 68.7 L 60.6 64.8 L 62.7 60.9 L 64.7 57.1 L 66.3 53.2 L 67.8 49.3 L 68.9 45.4 L 69.9 41.4 L 70.4243902206421 38.40348434448242 L 70.4 38.4 L 70.51764707565307 37.87058820724487 L 70.6 37.4 L 70.62113819122314 37.40487804412842 L 71.0 35.7 L 82.3 40.1 L 84.8 42.8 L 81.01721858978271 43.94834432601929 L 80.8 44.6 L 78.9 49.0 L 76.8 53.3 L 76.14089555740357 54.42597017288208 L 77.8 54.9 L 80.5 55.9 L 83.1 56.9 L 85.5 58.1 L 87.8 59.2 L 90.0 60.5 L 92.1 61.9 L 94.1 63.3 L 96.0 64.8 L 97.2 69.1 L 95.1 73.2 L 90.8 74.5 L 86.7 72.4 L 85.9 70.8 Z M 111.2 130.5 L 111.2 51.42195119857788 L 109.6 53.1 L 105.2 57.1 L 100.6 60.8 L 95.7 64.1 L 94.5 62.8 L 97.9 58.1 L 101.3 53.5 L 107.7 44.1 L 110.7 39.3 L 111.2 38.425 L 111.2 35.3 L 112.58888893127441 35.99444446563721 L 113.5 34.4 L 116.2 29.3 L 118.7 24.1 L 121.0 18.8 L 122.83518514633178 14.212036991119385 L 122.8 14.2 L 123.7 12.0 L 134.2 18.1 L 136.1 21.1 L 132.3757431983948 21.62270269393921 L 131.3 23.7 L 128.1 29.2 L 124.8 34.4 L 121.3 39.4 L 120.77142858505249 40.08571424484253 L 123.2 41.3 L 144.4875 41.3 L 145.5 39.5 L 146.9 36.1 L 148.4 33.0 L 149.8 30.0 L 151.1 27.1 L 152.4 24.3 L 153.6 21.7 L 154.7 19.2 L 155.7 16.8 L 156.24316902160643 15.472253513336181 L 156.1 15.4 L 157.1 13.7 L 166.8 20.8 L 168.4 24.1 L 164.0300000190735 24.1 L 163.4 24.8 L 161.5 26.9 L 159.5 29.1 L 157.4 31.4 L 155.2 33.7 L 150.3 38.6 L 147.6 41.0 L 147.33214282989502 41.3 L 162.4 41.3 L 172.4 31.3 L 184.4 41.3 L 184.4 45.3 L 154.7 45.3 L 154.7 66.3 L 160.7 66.3 L 170.7 56.3 L 182.7 66.3 L 182.7 70.3 L 154.7 70.3 L 154.7 92.0 L 160.7 92.0 L 170.7 82.0 L 182.7 92.0 L 182.7 96.0 L 154.7 96.0 L 154.7 120.5 L 165.8 120.5 L 175.8 110.5 L 187.8 120.5 L 187.8 124.5 L 123.2 124.5 Z M 123.2 96.0 L 123.2 120.5 L 142.7 120.5 L 142.7 96.0 Z M 123.2 70.3 L 123.2 92.0 L 142.7 92.0 L 142.7 70.3 Z M 44.9 66.9 L 44.0 65.3 L 43.0 63.7 L 41.8 62.0 L 40.5 60.3 L 39.0 58.5 L 37.4 56.7 L 37.225912761688235 56.50543184280396 L 34.7 60.1 L 31.8 63.6 L 28.6 67.0 L 25.1 70.1 L 21.2 73.0 L 17.2 75.7 L 16.0 74.3 L 18.9 70.6 L 21.5 66.8 L 23.8 63.1 L 25.9 59.5 L 27.7 55.9 L 29.3 52.2 L 30.5 48.6 L 31.5 45.0 L 32.3 41.3 L 32.6639289855957 38.60692567825318 L 32.6 38.6 L 32.77560977935791 37.780487823486325 L 32.8 37.6 L 32.813712978363036 37.60267286300659 L 33.2 35.8 L 44.6 39.9 L 47.1 42.5 L 43.328244304656984 43.89694652557373 L 43.2 44.3 L 41.5 48.5 L 39.5 52.5 L 38.959079074859616 53.45890531539917 L 41.9 54.4 L 44.2 55.4 L 48.4 57.4 L 50.4 58.6 L 52.3 59.8 L 54.1 61.1 L 55.8 62.5 L 56.9 66.9 L 54.7 70.9 L 50.2 72.0 L 46.3 69.8 L 45.7 68.4 Z M 123.2 45.3 L 123.2 66.3 L 142.7 66.3 L 142.7 45.3 Z M 14.0 31.0 L 50.0 31.0 L 50.0 13.0 L 62.0 15.0 L 65.0 17.0 L 62.0 18.8 L 62.0 31.0 L 76.0 31.0 L 86.0 21.0 L 98.0 31.0 L 98.0 35.0 L 14.0 35.0 Z " />
</g>
</svg>
