<svg xmlns="http://www.w3.org/2000/svg" xmlns:xlink="http://www.w3.org/1999/xlink" version="1.1" baseProfile="full" viewBox="0 0 200 200" width="200" height="200">
<g fill="black">
<path d="M 51.3 16.0 L 54.3 18.0 L 51.3 19.8 L 51.3 183.0 L 39.3 189.0 L 39.3 14.0 Z M 157.2 147.0 L 159.2 147.0 L 157.2 172.0 L 160.8 174.4 L 163.2 178.0 L 160.8 181.6 L 157.2 184.0 L 114.2 184.0 L 111.6 183.9 L 109.1 183.4 L 106.7 182.6 L 104.5 181.4 L 102.4 179.7 L 100.8 177.7 L 99.6 175.5 L 98.8 173.0 L 98.3 170.6 L 98.2 168.0 L 98.2 130.3 L 110.2 132.3 L 113.2 134.3 L 110.2 136.1 L 110.2 169.2 L 110.4 170.1 L 110.6 170.7 L 110.8 171.1 L 111.1 171.4 L 111.4 171.6 L 112.0 171.8 L 112.9 171.9 L 114.2 172.0 L 151.2 172.0 Z M 70.5 176.3 L 69.0 172.0 L 70.9 167.9 L 72.6 166.6 L 74.3 164.8 L 76.0 162.4 L 77.6 159.6 L 79.0 156.2 L 80.3 152.2 L 81.5 147.8 L 82.6 142.8 L 83.6 137.4 L 84.3 131.4 L 86.1 131.4 L 86.9 137.4 L 87.4 143.1 L 87.6 148.5 L 87.4 153.5 L 86.9 158.1 L 86.1 162.5 L 84.9 166.5 L 83.4 170.3 L 81.4 173.7 L 79.0 176.8 L 74.7 178.2 Z M 170.6 160.7 L 169.7 157.2 L 168.6 153.7 L 167.4 150.3 L 165.9 146.9 L 164.3 143.6 L 162.4 140.2 L 160.4 136.8 L 158.0 133.6 L 159.2 132.3 L 162.6 134.7 L 166.0 137.2 L 169.0 140.1 L 171.8 143.1 L 174.3 146.4 L 176.7 149.9 L 178.7 153.6 L 180.6 157.4 L 182.1 161.4 L 183.5 165.6 L 182.5 170.1 L 178.8 172.7 L 174.3 171.8 L 171.7 168.0 L 171.2 164.3 Z M 129.9 147.0 L 128.8 144.2 L 127.7 141.6 L 126.5 139.0 L 125.1 136.5 L 123.6 134.1 L 122.0 131.7 L 120.3 129.2 L 118.2 127.1 L 119.3 125.7 L 122.0 127.2 L 124.8 128.6 L 127.5 130.3 L 130.1 132.2 L 132.5 134.4 L 134.8 136.8 L 137.0 139.4 L 139.0 142.2 L 141.0 145.1 L 142.7 148.3 L 142.6 152.9 L 139.3 156.1 L 134.8 155.9 L 131.6 152.7 L 130.8 149.8 Z M 154.4 118.8 L 152.9 120.8 L 151.2 122.5 L 149.2 124.0 L 147.1 125.2 L 144.8 126.2 L 142.4 126.8 L 139.9 127.2 L 137.4 127.3 L 137.4 121.3 L 117.4 118.3 L 117.4 115.3 L 137.4 115.3 L 138.8 115.2 L 139.9 115.1 L 140.9 114.8 L 141.8 114.4 L 142.6 114.0 L 143.3 113.5 L 143.9 112.8 L 144.6 112.0 L 145.2 111.0 L 145.8 109.8 L 146.4 107.9 L 147.1 105.5 L 147.7 102.5 L 148.2 99.0 L 148.6 95.1 L 149.0 90.6 L 149.2 85.7 L 149.3 80.3 L 149.3 70.0 L 123.1 70.0 L 122.3 77.6 L 120.2 86.4 L 117.1 94.4 L 113.1 101.7 L 108.0 108.1 L 102.1 113.7 L 95.3 118.4 L 87.7 122.2 L 79.4 124.9 L 70.3 126.7 L 69.9 125.0 L 78.1 121.4 L 85.3 117.4 L 91.6 113.0 L 97.0 108.1 L 101.5 102.8 L 105.1 96.9 L 107.9 90.6 L 109.8 83.6 L 111.0 76.1 L 111.2231707572937 70.0 L 89.8 70.0 L 89.8 66.0 L 149.3 66.0 L 155.3 61.0 L 166.3 70.0 L 161.3 73.0 L 161.3 80.5 L 161.2 86.1 L 160.9 91.3 L 160.6 96.1 L 160.1 100.5 L 159.5 104.5 L 158.8 108.2 L 157.9 111.5 L 156.8 114.4 L 155.7 116.7 Z M 14.2 101.3 L 11.9 97.4 L 13.0 92.9 L 14.5 91.3 L 16.0 89.2 L 17.6 86.7 L 19.2 83.7 L 20.7 80.3 L 22.2 76.4 L 23.6 72.1 L 25.1 67.4 L 26.6 62.3 L 28.0 56.8 L 29.8 57.0 L 29.8 68.2 L 29.6 73.3 L 29.1 78.0 L 28.5 82.4 L 27.7 86.6 L 26.7 90.4 L 25.5 93.9 L 24.2 97.2 L 22.6 100.2 L 18.6 102.4 Z M 67.8 78.5 L 67.0 75.7 L 66.0 72.9 L 64.8 70.0 L 63.5 67.0 L 61.9 63.9 L 60.2 60.8 L 58.3 57.5 L 56.0 54.3 L 57.3 53.0 L 60.4 55.6 L 63.5 58.0 L 66.3 60.5 L 69.0 63.1 L 71.4 65.8 L 73.07200002670288 67.92799997329712 L 77.4 63.6 L 81.4 59.2 L 85.1 54.9 L 88.4 50.6 L 91.3 46.1 L 93.9 41.7 L 96.1 37.2 L 98.0 32.6 L 99.5 27.9 L 99.52981529235839 27.910554122924804 L 100.0 26.5 L 110.8 31.9 L 113.0 34.8 L 109.11657514572144 35.61756315231323 L 108.4 37.2 L 105.6 42.2 L 102.4 47.0 L 98.9 51.6 L 94.9 56.0 L 90.6 60.2 L 85.9 64.1 L 80.8 67.7 L 75.3 71.0 L 75.26666669845581 71.01666669845581 L 75.6 71.5 L 77.4 74.4 L 79.0 77.4 L 80.4 80.4 L 79.9 84.9 L 76.3 87.8 L 71.8 87.3 L 68.9 83.7 L 68.5 81.1 Z M 165.6 65.7 L 160.8 61.7 L 156.5 57.3 L 152.8 52.5 L 149.7 47.4 L 147.3 42.0 L 145.4 36.4 L 144.3 30.5 L 144.1290322303772 25.2 L 109.4 25.2 L 109.4 21.2 L 140.08000001907348 21.2 L 145.0 17.1 L 156.0 26.1 L 151.0 29.1 L 148.84715442657472 30.176422786712646 L 150.9 34.2 L 153.7 38.7 L 156.7 42.9 L 160.1 46.6 L 163.8 50.0 L 167.8 53.1 L 172.2 55.9 L 177.0 58.5 L 182.2 60.7 L 188.2 63.4 L 176.8 72.7 L 170.9 69.4 Z M 144.8 24.183333301544188 L 145.0 24.15 L 145.0 24.1 L 144.8 24.03333330154419 Z " />
</g>
</svg>
