<svg xmlns="http://www.w3.org/2000/svg" xmlns:xlink="http://www.w3.org/1999/xlink" version="1.1" baseProfile="full" viewBox="0 0 200 200" width="200" height="200">
<g fill="black">
<path d="M 147.0 148.3 L 149.0 148.3 L 147.0 173.3 L 150.6 175.7 L 153.0 179.3 L 150.6 182.9 L 147.0 185.3 L 76.0 185.3 L 73.4 185.2 L 70.9 184.7 L 68.5 183.9 L 66.2 182.7 L 64.2 181.1 L 62.6 179.0 L 61.3 176.8 L 60.5 174.4 L 60.1 171.9 L 60.0 169.3 L 60.0 134.5 L 72.0 136.5 L 75.0 138.5 L 72.0 140.3 L 72.0 170.5 L 72.2 171.5 L 72.4 172.0 L 72.5 172.4 L 72.7 172.6 L 72.9 172.7 L 73.2 172.9 L 73.8 173.1 L 74.7 173.2 L 76.0 173.3 L 141.0 173.3 Z M 15.3 177.3 L 14.9 172.8 L 17.6 169.2 L 20.5 167.7 L 23.1 166.0 L 25.4 163.9 L 27.6 161.3 L 29.6 158.3 L 31.4 154.7 L 32.9 150.7 L 34.2 146.2 L 35.4 141.2 L 36.1 135.6 L 37.9 135.6 L 38.6 141.3 L 39.0 146.7 L 38.9 151.9 L 38.3 156.8 L 37.1 161.4 L 35.4 165.8 L 33.2 169.8 L 30.5 173.5 L 27.3 176.8 L 23.5 179.6 L 19.0 180.1 Z M 170.2 164.0 L 168.7 160.7 L 166.9 157.4 L 164.7 154.2 L 162.1 150.9 L 159.2 147.6 L 155.9 144.3 L 152.4 140.9 L 148.4 137.6 L 149.3 136.0 L 154.2 138.1 L 158.8 140.3 L 163.1 142.9 L 167.1 145.7 L 170.7 148.7 L 174.0 151.9 L 177.0 155.3 L 179.6 159.0 L 181.8 162.8 L 183.7 166.9 L 183.3 171.4 L 179.9 174.4 L 175.3 174.0 L 172.3 170.6 L 171.4 167.3 Z M 108.2 151.3 L 106.4 148.7 L 104.3 146.1 L 102.1 143.6 L 99.6 141.1 L 96.9 138.6 L 94.0 136.2 L 90.9 133.7 L 87.5 131.5 L 88.2 129.9 L 96.2 132.3 L 100.0 133.7 L 103.6 135.5 L 107.0 137.4 L 110.2 139.6 L 113.3 142.0 L 116.2 144.6 L 118.9 147.4 L 121.4 150.3 L 122.1 154.8 L 119.6 158.6 L 115.1 159.4 L 111.3 156.8 L 109.8 154.0 Z M 29.7 103.8 L 29.7 99.775 L 28.5 105.1 L 26.5 111.7 L 24.3 117.8 L 21.6 123.5 L 18.6 128.6 L 15.2 133.1 L 13.6 132.2 L 15.2 127.0 L 16.6 121.6 L 18.0 115.9 L 19.2 109.8 L 20.1 103.4 L 20.9 96.6 L 21.4 89.5 L 21.7 81.9 L 21.8 73.9 L 21.6 65.5 L 21.6 15.1 L 33.6 21.1 L 89.5 21.1 L 95.5 16.1 L 106.5 25.1 L 101.5 29.1 L 101.5 46.9 L 89.5 52.9 L 89.5 44.9 L 33.6 44.9 L 33.6 65.5 L 33.577272701263425 66.0 L 79.0 66.0 L 89.0 56.0 L 101.0 66.0 L 101.0 70.0 L 33.395454502105714 70.0 L 33.2 74.3 L 32.4 82.6 L 31.4 90.5 L 30.1 98.0 L 29.870472240448 99.01852960586548 L 32.8 95.9 L 34.1 95.7 L 35.3 95.5 L 36.5 95.0 L 37.7 94.3 L 38.8 93.4 L 39.9 92.1 L 40.9 90.5 L 41.9 88.6 L 42.7 86.4 L 42.9 83.8 L 44.7 83.7 L 44.9 86.4 L 45.5 89.0 L 45.7 91.5 L 45.7 94.1 L 45.3 96.5 L 44.5 98.9 L 43.3 101.2 L 41.8 103.3 L 39.8 105.3 L 37.6 106.9 L 33.0 106.9 Z M 83.6 122.2 L 78.3 118.3 L 73.8 113.8 L 70.1 108.9 L 67.3 103.5 L 65.3 97.6 L 65.23021144866944 97.21299095153809 L 65.2 97.3 L 61.9 103.9 L 57.8 109.7 L 52.8 114.6 L 47.1 118.6 L 40.7 121.8 L 33.6 124.0 L 25.9 125.2 L 25.5 123.4 L 32.3 120.4 L 38.3 117.0 L 43.3 113.3 L 47.5 109.1 L 51.0 104.6 L 53.7 99.5 L 55.8 93.9 L 57.2 87.8 L 57.9 81.0 L 58.0 73.5 L 58.0 71.1 L 70.0 73.5 L 73.0 75.5 L 69.6256157875061 77.52463054656982 L 69.2 82.1 L 68.53769750595093 85.63227987289429 L 69.9 90.2 L 72.1 95.2 L 73.02669429779053 96.79391422271729 L 75.0 95.0 L 77.2 93.1 L 79.3 91.2 L 81.3 89.4 L 83.2 87.6 L 85.1 85.9 L 88.6 82.4 L 89.51354656219482 81.42935676574707 L 89.4 81.3 L 90.2 80.7 L 97.3 90.3 L 97.5 93.9 L 93.44018182754516 92.2460000038147 L 92.7 92.6 L 87.7 94.8 L 82.5 96.8 L 79.7 97.7 L 76.9 98.5 L 74.36279859542847 99.09201364517212 L 74.6 99.5 L 77.6 103.3 L 81.0 106.6 L 84.9 109.4 L 89.4 111.8 L 94.4 113.9 L 100.0 115.5 L 107.9 117.8 L 96.3 128.1 L 89.6 125.4 Z M 157.5 109.7 L 149.7 101.7 L 147.11002521514894 98.40703210830688 L 140.6 105.3 L 131.3 113.2 L 121.2 120.1 L 110.4 125.7 L 109.5 124.2 L 119.1 117.0 L 127.8 109.2 L 135.9 100.7 L 142.45892000198364 92.41025390625 L 136.7 83.1 L 131.7 72.5 L 127.5 61.1 L 124.3 48.9 L 122.2 35.9 L 121.26521739959716 23.0 L 107.0 23.0 L 107.0 19.0 L 171.0 19.0 L 177.0 14.0 L 188.0 23.0 L 183.0 26.0 L 181.7391249656677 26.52536458969116 L 179.3 36.7 L 174.9 50.5 L 169.7 63.3 L 163.6 75.3 L 156.8 86.2 L 153.91632976531983 89.98247652053833 L 157.7 94.1 L 165.1 100.6 L 173.2 106.3 L 182.0 111.1 L 187.2 113.8 L 175.9 122.8 L 166.3 116.7 Z M 123.29774436950683 23.0 L 126.3 35.1 L 130.0 47.4 L 134.3 58.7 L 139.2 69.0 L 144.7 78.3 L 148.47463359832764 83.41401968002319 L 149.6 81.7 L 155.4 71.0 L 160.4 59.4 L 164.7 47.1 L 168.2 33.9 L 170.44184398651123 23.0 Z M 33.6 25.1 L 33.6 40.9 L 89.5 40.9 L 89.5 25.1 Z " />
</g>
</svg>
