<svg xmlns="http://www.w3.org/2000/svg" xmlns:xlink="http://www.w3.org/1999/xlink" version="1.1" baseProfile="full" viewBox="0 0 200 200" width="200" height="200">
<g fill="black">
<path d="M 147.0 146.6 L 149.0 146.6 L 147.0 171.6 L 150.6 174.0 L 153.0 177.6 L 150.6 181.2 L 147.0 183.6 L 76.0 183.6 L 73.4 183.5 L 70.9 183.1 L 68.5 182.2 L 66.2 181.0 L 64.2 179.4 L 62.6 177.4 L 61.3 175.1 L 60.5 172.7 L 60.1 170.2 L 60.0 167.6 L 60.0 129.2 L 72.0 131.2 L 75.0 133.2 L 72.0 135.0 L 72.0 168.9 L 72.2 169.8 L 72.5 170.7 L 72.7 170.9 L 72.9 171.0 L 73.2 171.2 L 73.8 171.4 L 74.7 171.6 L 141.0 171.6 Z M 15.4 175.5 L 14.8 170.9 L 17.4 167.2 L 20.3 165.6 L 22.9 163.7 L 25.3 161.3 L 27.5 158.4 L 29.5 155.1 L 31.3 151.2 L 32.8 146.8 L 34.1 141.8 L 35.3 136.3 L 36.1 130.3 L 37.9 130.2 L 38.7 136.4 L 39.1 142.3 L 39.0 147.9 L 38.3 153.1 L 37.2 158.1 L 35.5 162.7 L 33.4 167.0 L 30.6 170.9 L 27.4 174.4 L 23.6 177.5 L 19.1 178.1 Z M 170.2 160.8 L 168.6 157.3 L 166.8 153.7 L 164.5 150.2 L 162.0 146.7 L 159.1 143.2 L 155.8 139.6 L 152.3 136.0 L 148.3 132.4 L 149.3 130.9 L 154.3 133.2 L 158.9 135.7 L 163.3 138.5 L 167.2 141.5 L 170.9 144.8 L 174.2 148.4 L 177.1 152.1 L 179.7 156.1 L 182.0 160.3 L 183.8 164.7 L 183.3 169.2 L 179.8 172.1 L 175.3 171.6 L 172.3 168.1 L 171.4 164.5 Z M 108.1 147.0 L 106.3 144.2 L 104.2 141.4 L 101.9 138.7 L 99.5 136.0 L 96.8 133.4 L 93.9 130.8 L 90.9 128.2 L 87.5 125.9 L 88.2 124.2 L 92.3 125.5 L 96.3 126.9 L 100.1 128.6 L 103.7 130.5 L 107.2 132.7 L 110.4 135.1 L 113.5 137.7 L 116.4 140.6 L 119.1 143.6 L 121.6 146.9 L 122.2 151.4 L 119.5 155.1 L 114.9 155.7 L 111.3 153.0 L 109.8 150.0 Z M 79.7 26.1 L 79.2 24.7 L 78.6 23.2 L 77.7 21.7 L 76.7 20.1 L 75.6 18.4 L 74.2 16.7 L 72.7 14.8 L 70.8 13.5 L 71.7 11.9 L 73.9 13.0 L 76.3 13.7 L 78.5 14.5 L 80.6 15.4 L 82.6 16.4 L 84.5 17.6 L 86.3 18.8 L 87.9 20.2 L 89.5 21.7 L 90.9 23.3 L 91.02916669845581 26.27083330154419 L 91.9 25.4 L 103.9 35.4 L 103.9 39.4 L 63.6 39.4 L 63.6 55.1 L 82.1 55.1 L 88.1 50.1 L 99.1 59.1 L 94.1 63.1 L 94.1 115.5 L 82.1 121.5 L 82.1 103.0 L 63.6 103.0 L 63.6 112.2 L 51.6 118.2 L 51.6 103.0 L 31.8 103.0 L 31.8 118.8 L 19.8 124.8 L 19.8 49.1 L 31.8 55.1 L 51.6 55.1 L 51.6 39.4 L 12.4 39.4 L 12.4 35.4 L 51.6 35.4 L 51.6 11.2 L 63.6 13.2 L 66.6 15.2 L 63.6 17.0 L 63.6 35.4 L 81.9 35.4 L 85.84651165008545 31.45348834991455 L 83.6 31.6 L 80.1 28.6 L 80.0 27.4 Z M 157.0 113.0 L 148.2 107.4 L 140.4 101.1 L 138.66601305007936 99.36601305007935 L 135.0 102.8 L 126.2 109.4 L 116.5 115.0 L 105.9 119.5 L 94.4 123.0 L 93.8 121.3 L 104.3 116.1 L 113.8 110.3 L 122.3 104.1 L 129.8 97.2 L 133.02430210113525 93.58487339019776 L 127.7 86.7 L 122.9 78.7 L 119.2 70.0 L 116.7 60.9 L 115.97084131240845 55.51544370651245 L 111.5 59.8 L 106.4 63.9 L 100.9 67.7 L 99.7 66.4 L 103.7 61.2 L 107.6 56.1 L 111.2 51.0 L 114.6 45.8 L 117.8 40.5 L 120.6 35.1 L 123.3 29.6 L 125.6 24.0 L 127.7 18.2 L 129.2169569015503 13.227752494812012 L 129.1 13.2 L 130.0 10.8 L 140.9 16.0 L 143.1 18.9 L 139.3502305984497 19.755210590362548 L 138.3 22.3 L 135.4 28.4 L 132.2 34.2 L 128.7 39.8 L 127.22222223281861 41.9 L 164.5 41.9 L 174.5 31.9 L 186.5 41.9 L 186.5 45.9 L 167.5692307472229 45.9 L 164.8 56.7 L 160.8 67.6 L 155.8 77.7 L 149.8 87.0 L 145.55759716033936 92.16466426849365 L 146.8 93.2 L 154.3 98.1 L 162.5 102.5 L 171.6 106.3 L 181.5 109.7 L 189.0 112.1 L 177.4 122.2 L 166.8 117.9 Z M 31.8 81.1 L 31.8 99.0 L 51.6 99.0 L 51.6 81.1 Z M 63.6 81.1 L 63.6 99.0 L 82.1 99.0 L 82.1 81.1 Z M 124.3235294342041 45.9 L 120.7 50.3 L 118.07073173522949 53.22804880142212 L 120.6 59.7 L 124.6 67.7 L 129.1 75.0 L 134.3 81.6 L 138.87345371246337 86.32848606109619 L 142.1 81.8 L 146.9 73.1 L 150.8 63.7 L 153.8 53.6 L 155.3685185432434 45.9 Z M 31.8 59.1 L 31.8 77.1 L 51.6 77.1 L 51.6 59.1 Z M 63.6 59.1 L 63.6 77.1 L 82.1 77.1 L 82.1 59.1 Z " />
</g>
</svg>
