<svg xmlns="http://www.w3.org/2000/svg" xmlns:xlink="http://www.w3.org/1999/xlink" version="1.1" baseProfile="full" viewBox="0 0 200 200" width="200" height="200">
<g fill="black">
<path d="M 51.8 16.0 L 54.8 18.0 L 51.8 19.8 L 51.8 183.0 L 39.8 189.0 L 39.8 14.0 Z M 173.8 92.0 L 185.8 102.0 L 185.8 106.0 L 135.5333333015442 106.0 L 137.8 112.4 L 141.4 121.5 L 145.3 130.1 L 149.7 138.2 L 154.5 145.8 L 159.8 152.9 L 165.5 159.5 L 171.7 165.6 L 178.4 171.4 L 185.7 176.6 L 188.8 178.9 L 177.9 187.3 L 170.3 180.9 L 163.4 174.0 L 157.1 166.7 L 151.5 158.9 L 146.5 150.6 L 142.2 142.0 L 138.7 132.9 L 135.8 123.4 L 133.7 113.4 L 133.54172201156615 111.91794281005859 L 133.1 114.4 L 130.0 125.5 L 125.9 136.0 L 120.7 145.8 L 114.5 154.9 L 107.4 163.3 L 99.2 170.9 L 90.1 177.7 L 80.1 183.7 L 69.1 188.8 L 68.2 187.1 L 78.1 180.4 L 86.9 173.4 L 94.8 166.0 L 101.7 158.2 L 107.6 150.0 L 112.6 141.3 L 116.6 132.1 L 119.8 122.4 L 122.0 112.1 L 122.73425922393798 106.0 L 76.7 106.0 L 76.7 102.0 L 123.215740776062 102.0 L 123.3 101.3 L 123.3 52.0 L 104.36341466903687 52.0 L 104.3 52.2 L 101.4 60.1 L 98.2 67.6 L 94.6 74.9 L 90.7 81.8 L 86.3 88.4 L 81.5 94.4 L 80.0 93.5 L 83.0 86.5 L 85.9 79.4 L 88.6 72.2 L 91.1 64.9 L 93.4 57.3 L 95.4 49.6 L 97.2 41.6 L 98.7 33.3 L 100.0 24.9 L 100.89600000381469 17.104800033569337 L 100.8 17.1 L 101.2 14.1 L 112.8 17.7 L 115.6 20.1 L 112.11720190048217 21.583413982391356 L 111.2 26.8 L 109.2 35.5 L 106.9 44.0 L 105.63170728683471 48.0 L 157.8 48.0 L 167.8 38.0 L 179.8 48.0 L 179.8 52.0 L 135.3 52.0 L 135.3 102.0 L 163.8 102.0 Z M 15.0 101.4 L 12.7 97.4 L 13.8 93.0 L 15.3 91.4 L 16.8 89.3 L 18.4 86.7 L 19.9 83.7 L 21.4 80.3 L 22.9 76.4 L 24.3 72.1 L 25.8 67.4 L 27.3 62.4 L 28.7 56.8 L 30.5 57.0 L 30.5 68.2 L 30.3 73.3 L 29.8 78.0 L 29.2 82.4 L 28.4 86.5 L 27.5 90.3 L 26.3 93.9 L 25.0 97.1 L 23.4 100.1 L 19.5 102.4 Z M 68.0 78.4 L 67.2 75.7 L 66.2 72.9 L 65.0 70.0 L 63.7 67.0 L 62.1 63.9 L 60.4 60.8 L 58.6 57.5 L 56.3 54.3 L 57.6 53.0 L 60.7 55.6 L 63.8 58.0 L 66.6 60.5 L 69.2 63.1 L 71.6 65.9 L 73.8 68.6 L 75.8 71.5 L 77.6 74.4 L 79.2 77.4 L 80.5 80.4 L 80.0 85.0 L 76.4 87.8 L 71.9 87.3 L 69.0 83.7 L 68.6 81.1 Z " />
</g>
</svg>
