<svg xmlns="http://www.w3.org/2000/svg" xmlns:xlink="http://www.w3.org/1999/xlink" version="1.1" baseProfile="full" viewBox="0 0 200 200" width="200" height="200">
<g fill="black">
<path d="M 45.5 17.0 L 48.5 19.0 L 45.5 20.8 L 45.5 182.0 L 33.5 188.0 L 33.5 15.0 Z M 143.8 183.7 L 130.8 182.6 L 120.1 180.7 L 111.3 178.0 L 104.2 174.4 L 98.7 170.0 L 94.5 165.0 L 91.6 159.4 L 90.57638893127441 156.5618055343628 L 90.18000001907349 156.76000003814698 L 89.4 157.8 L 87.2 161.0 L 85.0 164.1 L 82.6 167.1 L 78.0 172.7 L 75.6 175.4 L 73.3 178.0 L 71.69076328277588 179.74917039871215 L 72.1 183.9 L 68.7 182.9 L 59.5 175.0 L 61.0 173.7 L 66.4 170.1 L 69.2 168.2 L 75.0 164.2 L 77.9 162.1 L 81.0 160.0 L 81.7 159.50322580337524 L 81.7 109.0 L 62.7 109.0 L 62.7 105.0 L 81.7 105.0 L 87.7 100.0 L 98.7 109.0 L 93.7 113.0 L 93.7 155.0 L 93.36423358917236 155.16788320541383 L 95.1 157.2 L 99.1 161.2 L 103.3 164.4 L 108.2 167.1 L 114.3 169.1 L 122.0 170.7 L 131.8 171.6 L 144.0 171.9 L 159.0 171.5 L 177.0 170.4 L 188.1 169.7 L 177.8 183.5 L 159.3 184.0 Z M 160.8 147.9 L 158.7 143.8 L 156.4 139.8 L 153.9 135.8 L 151.1 132.0 L 148.1 128.3 L 145.0 124.7 L 141.6 121.0 L 140.36539096832274 119.69484195709228 L 140.3 120.0 L 137.4 128.9 L 133.8 137.0 L 129.4 144.1 L 124.2 150.2 L 118.4 155.3 L 111.9 159.1 L 104.7 161.8 L 104.0 160.1 L 109.8 155.9 L 114.9 151.2 L 119.2 145.9 L 123.0 140.0 L 126.1 133.4 L 128.6 126.0 L 130.5 117.8 L 131.8 108.7 L 131.84242420196534 108.0 L 100.9 108.0 L 100.9 104.0 L 132.0848484992981 104.0 L 132.4 98.8 L 132.4 73.0 L 111.3 73.0 L 111.3 69.0 L 143.5 69.0 L 153.5 59.0 L 165.5 69.0 L 165.5 73.0 L 144.4 73.0 L 144.4 88.0 L 143.8 99.5 L 143.21121492385865 104.0 L 156.1 104.0 L 166.1 94.0 L 178.1 104.0 L 178.1 108.0 L 142.68785047531128 108.0 L 142.4 110.2 L 141.01219511032104 116.67642278671265 L 143.9 118.0 L 148.4 120.6 L 152.6 123.6 L 156.6 126.9 L 160.4 130.5 L 163.9 134.3 L 167.1 138.3 L 170.1 142.6 L 172.9 147.1 L 175.4 151.8 L 175.4 156.4 L 172.3 159.7 L 167.7 159.7 L 164.4 156.6 L 162.7 152.2 Z M 14.0 100.5 L 11.4 96.8 L 12.0 92.3 L 13.3 90.6 L 14.7 88.5 L 16.0 85.9 L 17.4 82.9 L 18.7 79.4 L 20.0 75.5 L 21.3 71.2 L 22.6 66.5 L 24.0 61.4 L 25.2 55.9 L 27.0 56.0 L 27.2 61.7 L 27.3 67.1 L 27.2 72.1 L 26.9 76.8 L 26.5 81.2 L 26.0 85.2 L 25.3 89.0 L 24.5 92.4 L 23.5 95.6 L 22.3 98.5 L 18.5 101.2 Z M 77.8 76.3 L 76.5 73.8 L 75.1 71.4 L 71.9 66.8 L 70.2 64.6 L 68.5 62.3 L 66.6 60.1 L 64.5 58.2 L 65.4 56.7 L 68.1 58.0 L 70.9 59.1 L 73.7 60.4 L 76.3 62.0 L 78.9 63.8 L 81.4 65.8 L 83.8 67.9 L 86.2 70.2 L 88.4 72.6 L 90.6 75.3 L 91.2 79.8 L 88.6 83.5 L 84.0 84.2 L 80.3 81.5 L 79.1 78.9 Z M 56.9 67.1 L 56.3 64.4 L 55.6 61.6 L 54.7 58.7 L 53.7 55.7 L 52.5 52.7 L 51.3 49.6 L 49.9 46.4 L 48.1 43.3 L 49.5 42.2 L 52.1 44.8 L 54.8 47.2 L 57.2 49.8 L 59.5 52.4 L 61.5 55.2 L 63.4 57.9 L 65.2 60.8 L 66.7 63.7 L 68.1 66.6 L 69.3 69.7 L 68.5 74.2 L 64.8 76.9 L 60.3 76.1 L 57.6 72.4 L 57.3 69.8 Z M 129.9 34.2 L 132.2 37.0 L 128.32207794189452 37.96948051452637 L 128.1 38.5 L 126.1 42.6 L 123.8 46.5 L 121.2 50.2 L 118.3 53.8 L 115.1 57.1 L 111.7 60.3 L 108.1 63.2 L 104.1 65.8 L 99.9 68.3 L 98.8 66.9 L 101.9 63.3 L 104.6 59.7 L 107.2 56.1 L 109.5 52.6 L 111.6 49.1 L 113.5 45.5 L 115.1 41.9 L 116.4 38.2 L 117.5 34.6 L 118.16025533676148 31.81225528717041 L 118.1 31.8 L 118.37428569793701 30.908571434020995 L 118.4 30.8 L 118.40705089569092 30.80208463668823 L 118.9 29.2 Z M 164.5 61.5 L 161.5 58.0 L 158.9 54.3 L 156.6 50.3 L 154.6 46.2 L 153.0 41.9 L 151.8 37.4 L 151.1 32.8 L 150.76666669845582 28.8 L 127.1 28.8 L 127.1 24.8 L 140.6777777671814 24.8 L 146.9 17.8 L 154.9 24.8 L 154.9 28.8 L 153.05 28.8 L 154.5 31.7 L 156.8 35.5 L 159.1 39.0 L 161.4 42.3 L 163.9 45.3 L 166.6 48.1 L 169.4 50.6 L 172.3 52.9 L 175.4 54.9 L 178.7 56.8 L 182.6 59.3 L 171.5 67.8 L 167.9 64.8 Z M 83.4 38.5 L 82.1 36.1 L 79.3 31.3 L 77.7 29.0 L 76.0 26.7 L 74.2 24.3 L 72.0 22.3 L 73.0 20.8 L 75.7 22.2 L 78.6 23.5 L 81.3 25.0 L 83.9 26.8 L 86.4 28.7 L 88.8 30.7 L 93.2 35.3 L 95.3 37.9 L 97.2 40.5 L 97.5 45.1 L 94.6 48.6 L 90.1 49.0 L 86.6 46.1 L 85.6 43.5 Z " />
</g>
</svg>
