<svg xmlns="http://www.w3.org/2000/svg" xmlns:xlink="http://www.w3.org/1999/xlink" version="1.1" baseProfile="full" viewBox="0 0 200 200" width="200" height="200">
<g fill="black">
<path d="M 50.7 16.0 L 53.7 18.0 L 50.7 19.8 L 50.7 183.0 L 38.7 189.0 L 38.7 14.0 Z M 152.0 141.2 L 152.0 117.4 L 100.9 117.4 L 100.9 134.3 L 100.40120477676392 141.2 Z M 155.0 95.8 L 144.9 91.6 L 135.6 86.6 L 127.0 80.8 L 126.1336443901062 80.06866083145141 L 120.5 84.2 L 110.9 89.9 L 100.7 94.6 L 89.8 98.4 L 89.1936170578003 98.54893617630005 L 100.9 100.5 L 103.9 102.5 L 100.9 104.3 L 100.9 113.4 L 152.0 113.4 L 152.0 98.5 L 164.0 100.5 L 167.0 102.5 L 164.0 104.3 L 164.0 182.0 L 152.0 188.0 L 152.0 145.2 L 99.8948052406311 145.2 L 99.1 150.3 L 97.3 157.4 L 94.9 163.9 L 91.9 169.8 L 88.2 175.0 L 83.9 179.5 L 79.1 183.2 L 73.7 186.0 L 67.9 187.8 L 67.2 186.2 L 71.8 182.7 L 75.7 179.0 L 79.1 175.0 L 82.0 170.7 L 84.3 165.9 L 86.2 160.7 L 87.6 154.9 L 88.5 148.6 L 89.0 141.7 L 88.9 134.3 L 88.9 98.62105264663697 L 78.4 101.2 L 66.3 102.9 L 66.0 101.2 L 77.4 97.5 L 88.0 93.4 L 97.9 88.7 L 107.1 83.3 L 115.6 77.3 L 119.2055890083313 74.20289154052735 L 112.3 67.1 L 106.3 59.1 L 101.3 50.4 L 97.63684206008911 41.7 L 71.0 41.7 L 71.0 37.7 L 120.5 37.7 L 120.5 12.2 L 132.5 14.2 L 135.5 16.2 L 132.5 18.0 L 132.5 37.7 L 159.9 37.7 L 169.9 27.7 L 181.9 37.7 L 181.9 41.7 L 158.91481485366822 41.7 L 158.5 42.4 L 152.3 52.5 L 145.4 61.8 L 137.8 70.1 L 133.6562973976135 73.84430952072144 L 140.5 77.6 L 149.3 81.4 L 158.7 84.6 L 168.8 87.1 L 179.6 88.9 L 189.3 90.5 L 177.4 101.9 L 165.9 99.3 Z M 15.5 101.4 L 13.1 97.5 L 14.0 93.0 L 15.4 91.4 L 16.9 89.3 L 18.4 86.8 L 19.9 83.8 L 21.3 80.3 L 22.8 76.4 L 24.2 72.1 L 25.6 67.4 L 27.1 62.4 L 28.4 56.9 L 30.2 57.0 L 30.3 62.8 L 30.3 68.2 L 30.1 73.2 L 29.7 78.0 L 29.1 82.4 L 28.4 86.5 L 27.6 90.2 L 26.5 93.7 L 25.3 97.0 L 23.8 100.0 L 19.9 102.4 Z M 65.5 78.3 L 64.8 75.6 L 63.9 72.8 L 62.8 69.9 L 61.5 66.9 L 60.1 63.9 L 58.5 60.7 L 56.8 57.4 L 54.7 54.3 L 56.0 53.1 L 58.9 55.6 L 61.9 58.0 L 64.6 60.6 L 67.1 63.2 L 69.4 65.9 L 71.6 68.7 L 73.5 71.6 L 75.2 74.5 L 76.7 77.4 L 78.0 80.5 L 77.4 85.0 L 73.8 87.8 L 69.3 87.2 L 66.5 83.6 L 66.1 81.0 Z M 104.8 48.2 L 111.0 55.5 L 117.6 62.1 L 124.6 67.9 L 125.46070013046264 68.48125200271606 L 130.5 63.3 L 136.9 55.2 L 142.7 46.4 L 145.15522384643555 41.7 L 100.06543207168579 41.7 Z " />
</g>
</svg>
