<svg xmlns="http://www.w3.org/2000/svg" xmlns:xlink="http://www.w3.org/1999/xlink" version="1.1" baseProfile="full" viewBox="0 0 200 200" width="200" height="200">
<g fill="black">
<path d="M 25.0 176.0 L 39.0 176.0 L 40.3 175.9 L 41.2 175.7 L 42.1 175.4 L 42.3 175.2 L 42.4 175.0 L 42.6 174.7 L 42.8 174.1 L 43.0 173.2 L 43.0 114.0 L 11.5 114.0 L 11.5 110.0 L 43.0 110.0 L 43.0 72.0 L 14.8 72.0 L 14.8 68.0 L 43.0 68.0 L 43.0 32.62602739334106 L 38.9 33.3 L 31.2 34.4 L 22.9 35.2 L 14.2 35.8 L 13.8 34.1 L 22.2 31.5 L 30.1 29.1 L 37.5 26.9 L 44.4 24.8 L 50.8 22.7 L 56.7 20.7 L 62.1 18.7 L 66.9 16.7 L 71.3 14.8 L 74.12674951553345 13.34842586517334 L 74.1 13.3 L 74.14375371932984 13.339694023132324 L 75.0 12.9 L 75.92349462509155 14.954304409027099 L 83.8 22.1 L 84.0 25.3 L 80.19745759963989 23.670339012145995 L 79.9 23.8 L 75.4 25.4 L 70.5 26.8 L 65.1 28.2 L 59.2 29.6 L 55.0 30.46666669845581 L 55.0 68.0 L 61.3 68.0 L 71.3 58.0 L 83.3 68.0 L 83.3 72.0 L 55.0 72.0 L 55.0 110.0 L 64.5 110.0 L 74.5 100.0 L 86.5 110.0 L 86.5 114.0 L 55.0 114.0 L 55.0 172.0 L 54.9 174.5 L 54.5 177.0 L 53.6 179.4 L 52.4 181.7 L 50.8 183.7 L 48.8 185.3 L 46.5 186.6 L 44.1 187.4 L 41.6 187.8 L 39.0 188.0 L 39.0 182.0 L 25.0 179.0 Z M 80.9 174.0 L 84.9 172.9 L 89.3 171.6 L 94.0 170.3 L 94.0 101.0 L 106.0 103.0 L 109.0 105.0 L 106.0 106.8 L 106.0 128.0 L 117.77777776718139 128.0 L 124.0 121.0 L 132.0 128.0 L 132.0 132.0 L 106.0 132.0 L 106.0 166.88571424484252 L 109.8 165.8 L 115.7 164.1 L 122.0 162.4 L 128.6 160.7 L 135.6 159.1 L 136.3 160.8 L 130.0 164.3 L 123.9 167.4 L 118.1 170.3 L 112.5 172.9 L 107.2 175.3 L 102.1 177.6 L 97.4 179.8 L 92.9 181.7 L 88.8 183.6 L 88.74088487625122 183.62576808929444 L 87.8 187.5 L 84.9 185.3 L 79.0 174.6 Z M 182.0 145.0 L 184.0 145.0 L 182.0 170.0 L 185.6 172.4 L 188.0 176.0 L 185.6 179.6 L 182.0 182.0 L 154.0 182.0 L 151.4 181.8 L 148.9 181.4 L 146.5 180.6 L 144.2 179.3 L 142.2 177.7 L 140.6 175.7 L 139.3 173.4 L 138.5 171.0 L 138.1 168.5 L 138.0 166.0 L 138.0 101.0 L 150.0 103.0 L 153.0 105.0 L 150.0 106.8 L 150.0 131.91612901687623 L 153.0 129.4 L 156.1 127.0 L 159.2 124.7 L 162.3 122.3 L 165.3 120.0 L 171.1 115.6 L 173.16027908325196 113.98120927810669 L 173.1 113.9 L 173.1696774482727 113.97382488250733 L 173.9 113.4 L 176.42256269454955 117.42033424377442 L 181.5 122.8 L 181.6 126.3 L 177.9237675666809 124.75211267471313 L 173.7 126.8 L 170.3 128.4 L 166.8 130.0 L 163.3 131.5 L 159.6 133.1 L 156.0 134.5 L 152.2 136.0 L 150.0 136.73333330154418 L 150.0 167.2 L 150.2 168.1 L 150.5 169.0 L 150.9 169.4 L 151.8 169.7 L 152.7 169.9 L 154.0 170.0 L 176.0 170.0 Z M 107.5 25.3 L 160.5 25.3 L 166.5 20.3 L 177.5 29.3 L 172.5 33.3 L 172.5 94.1 L 160.5 100.1 L 160.5 88.1 L 107.5 88.1 L 95.5 94.1 L 95.5 19.3 Z M 107.5 58.7 L 107.5 84.1 L 160.5 84.1 L 160.5 58.7 Z M 107.5 29.3 L 107.5 54.7 L 160.5 54.7 L 160.5 29.3 Z " />
</g>
</svg>
