<svg xmlns="http://www.w3.org/2000/svg" xmlns:xlink="http://www.w3.org/1999/xlink" version="1.1" baseProfile="full" viewBox="0 0 200 200" width="200" height="200">
<g fill="black">
<path d="M 21.5 175.0 L 35.5 175.0 L 36.7 174.9 L 37.6 174.7 L 38.5 174.4 L 38.9 174.0 L 39.2 173.1 L 39.4 172.2 L 39.5 171.0 L 39.5 115.75081968307495 L 36.9 117.2 L 30.8 120.5 L 24.6 123.8 L 22.08938274383545 125.09580249786377 L 21.5 128.9 L 18.4 127.0 L 11.6 116.9 L 13.4 116.1 L 19.8 113.4 L 26.2 110.8 L 32.6 108.1 L 38.9 105.5 L 39.5 105.24285717010498 L 39.5 57.0 L 14.3 57.0 L 14.3 53.0 L 39.5 53.0 L 39.5 14.0 L 51.5 16.0 L 54.5 18.0 L 51.5 19.8 L 51.5 53.0 L 55.4 53.0 L 65.4 43.0 L 77.4 53.0 L 77.4 57.0 L 51.5 57.0 L 51.5 100.1 L 64.1 94.9 L 70.5 92.5 L 76.9 90.2 L 77.8 91.7 L 72.3 95.8 L 66.6 99.7 L 55.0 106.9 L 51.5 108.9416666984558 L 51.5 171.0 L 51.3 173.5 L 50.9 176.0 L 50.1 178.4 L 48.8 180.7 L 47.2 182.7 L 45.2 184.3 L 42.9 185.6 L 40.5 186.4 L 38.0 186.8 L 35.5 187.0 L 35.5 181.0 L 21.5 178.0 Z M 182.2 146.0 L 184.2 146.0 L 182.2 171.0 L 185.7 173.4 L 188.2 177.0 L 185.7 180.6 L 182.2 183.0 L 153.7 183.0 L 151.1 182.8 L 148.6 182.4 L 146.2 181.6 L 143.9 180.3 L 141.9 178.7 L 140.3 176.7 L 139.0 174.4 L 138.2 172.0 L 137.8 169.5 L 137.7 167.0 L 137.7 113.2 L 125.28632478713989 113.2 L 123.5 124.2 L 120.6 135.0 L 116.8 145.0 L 112.1 154.0 L 106.4 162.2 L 99.8 169.4 L 92.3 175.6 L 83.9 180.8 L 74.7 184.9 L 64.7 187.8 L 64.2 186.1 L 73.1 181.4 L 81.1 176.2 L 88.1 170.5 L 94.3 164.2 L 99.5 157.2 L 103.9 149.5 L 107.5 141.2 L 110.3 132.0 L 112.3 122.1 L 113.29813079833984 113.2 L 96.6 113.2 L 96.6 125.2 L 84.6 131.2 L 84.6 45.8 L 96.6 47.8 L 99.6 49.8 L 96.6 51.6 L 96.6 109.2 L 163.2 109.2 L 163.2 45.8 L 175.2 47.8 L 178.2 49.8 L 175.2 51.6 L 175.2 119.2 L 163.2 125.2 L 163.2 113.2 L 149.7 113.2 L 149.7 168.2 L 149.9 169.1 L 150.2 170.0 L 150.6 170.4 L 151.5 170.7 L 152.4 170.9 L 153.7 171.0 L 176.2 171.0 Z M 141.4 93.9 L 137.1 89.0 L 132.7 84.2 L 132.63658933639528 84.13524017333984 L 127.2 89.3 L 120.8 94.6 L 114.0 99.4 L 106.8 103.6 L 99.2 107.3 L 98.2 105.8 L 104.6 100.5 L 110.7 95.1 L 116.4 89.6 L 121.9 83.9 L 126.69395084381104 78.14725894927979 L 123.1 74.7 L 118.1 70.0 L 112.8 65.4 L 107.5 60.7 L 102.0 55.9 L 102.9 54.3 L 109.6 57.5 L 116.0 61.0 L 122.1 64.8 L 127.9 68.8 L 131.74493951797484 71.6331132888794 L 136.0 65.3 L 140.1 58.5 L 143.8 51.5 L 147.1 44.2 L 147.1233654975891 44.210932445526126 L 147.7 43.0 L 158.0 49.3 L 159.9 52.4 L 156.0677574157715 52.79643888473511 L 153.8 56.9 L 149.2 64.2 L 144.2 71.0 L 138.9889079093933 77.39096202850342 L 139.0 77.4 L 144.2 81.9 L 149.2 86.5 L 154.0 91.3 L 158.6 96.3 L 159.9 100.7 L 157.8 104.7 L 153.4 106.0 L 149.3 103.9 L 145.5 98.8 Z M 74.4 35.4 L 124.5 35.4 L 124.5 12.4 L 136.5 14.4 L 139.5 16.4 L 136.5 18.2 L 136.5 35.4 L 164.6 35.4 L 174.6 25.4 L 186.6 35.4 L 186.6 39.4 L 74.4 39.4 Z " />
</g>
</svg>
