<svg xmlns="http://www.w3.org/2000/svg" xmlns:xlink="http://www.w3.org/1999/xlink" version="1.1" baseProfile="full" viewBox="0 0 200 200" width="200" height="200">
<g fill="black">
<path d="M 157.7 173.7 L 149.1 166.7 L 141.3 158.8 L 140.4046664237976 157.65812520980836 L 131.4 166.1 L 121.0 173.8 L 109.8 180.2 L 97.7 185.2 L 85.0 188.7 L 84.4 187.0 L 96.3 181.7 L 107.2 175.5 L 117.2 168.5 L 126.4 160.4 L 134.7 151.4 L 135.08999996185304 150.8800000190735 L 134.4 150.0 L 128.4 140.3 L 123.1 129.8 L 118.8 118.4 L 115.4 106.2 L 113.2404580116272 93.9 L 104.3 93.9 L 104.3 89.9 L 132.1 89.9 L 132.1 12.1 L 144.1 14.1 L 147.1 16.1 L 144.1 17.9 L 144.1 48.5 L 168.51818180084229 48.5 L 176.7 39.5 L 186.7 48.5 L 186.7 52.5 L 144.1 52.5 L 144.1 89.9 L 164.3 89.9 L 170.3 84.9 L 181.3 93.9 L 176.3 96.9 L 174.58273191452025 97.61552839279175 L 170.8 108.6 L 164.7 122.5 L 157.7 135.3 L 149.8 146.8 L 147.09181756973265 149.96980447769164 L 148.8 151.8 L 156.2 158.3 L 164.3 164.0 L 172.9 168.7 L 182.1 172.6 L 188.7 175.3 L 177.2 184.9 L 167.1 179.8 Z M 30.65535717010498 36.47767858505249 L 32.6 35.8 L 39.1 33.6 L 45.5 31.3 L 51.7 29.0 L 57.9 26.6 L 63.9 24.1 L 69.8 21.4 L 75.6 18.6 L 81.3 15.7 L 86.04573802947998 13.072895050048828 L 86.0 13.0 L 86.06503858566285 13.062210750579833 L 86.9 12.6 L 88.19885997772217 15.103257369995116 L 95.2 21.8 L 95.3 25.1 L 91.55833597183228 23.566531085968016 L 86.2 25.9 L 79.9 28.4 L 73.6 30.7 L 67.1 32.8 L 60.6 34.7 L 53.9 36.3 L 47.2 37.7 L 40.3 38.8 L 33.4 39.5 L 31.7 39.59714288711548 L 31.7 63.6 L 60.97145328521729 63.6 L 62.8 36.5 L 74.6 39.4 L 77.5 41.6 L 74.37745580673217 42.702074432373045 L 72.96903457641602 63.6 L 84.3 63.6 L 94.3 53.6 L 106.3 63.6 L 106.3 67.6 L 72.6994535446167 67.6 L 70.94043712615967 93.7 L 84.5 93.7 L 90.5 88.7 L 101.5 97.7 L 96.5 101.7 L 96.5 174.8 L 84.5 180.8 L 84.5 174.8 L 49.7 174.8 L 49.7 181.8 L 38.7 187.3 L 38.7 88.2 L 49.7 93.7 L 58.94048442840576 93.7 L 60.701557064056395 67.6 L 31.7 67.6 L 31.7 99.5 L 31.3 112.4 L 30.6 124.5 L 29.6 135.7 L 28.3 146.0 L 26.6 155.4 L 24.7 163.9 L 22.4 171.4 L 19.8 178.0 L 16.7 183.6 L 13.3 188.0 L 11.9 187.2 L 13.6 182.1 L 15.2 176.4 L 16.6 169.8 L 17.9 162.5 L 19.0 154.2 L 19.8 145.1 L 20.4 135.0 L 20.7 124.1 L 20.9 112.2 L 20.7 99.5 L 20.7 31.5 Z M 49.7 148.0 L 49.7 170.8 L 84.5 170.8 L 84.5 148.0 Z M 49.7 122.8 L 49.7 144.0 L 84.5 144.0 L 84.5 122.8 Z M 119.4 104.9 L 124.3 116.2 L 129.6 126.6 L 135.5 135.9 L 140.9125 143.11666669845582 L 142.2 141.4 L 149.0 130.2 L 154.9 118.0 L 160.1 104.7 L 163.37724142074586 93.9 L 115.28617887496948 93.9 Z M 49.7 97.7 L 49.7 118.8 L 84.5 118.8 L 84.5 97.7 Z " />
</g>
</svg>
