<svg xmlns="http://www.w3.org/2000/svg" xmlns:xlink="http://www.w3.org/1999/xlink" version="1.1" baseProfile="full" viewBox="0 0 200 200" width="200" height="200">
<g fill="black">
<path d="M 155.7 169.5 L 146.4 160.8 L 138.2 151.1 L 136.24279384613038 148.17797393798827 L 129.2 157.0 L 118.3 167.4 L 106.3 176.2 L 93.1 183.3 L 78.7 188.8 L 78.1 187.1 L 91.3 180.0 L 103.2 171.8 L 113.9 162.5 L 123.4 152.0 L 131.32248468399047 140.83216018676757 L 131.1 140.5 L 125.0 129.0 L 120.1 116.5 L 116.2 103.3 L 113.6 89.1 L 112.76337928771973 80.13620691299438 L 108.3 86.7 L 102.8 93.9 L 96.9 100.5 L 95.4 99.4 L 99.7 91.7 L 103.7 84.0 L 107.6 76.0 L 111.3 67.9 L 114.7 59.5 L 117.8 50.9 L 120.6 42.0 L 123.2 32.8 L 125.5 23.4 L 127.5 13.6 L 127.51363639831543 13.60303030014038 L 127.9 11.8 L 139.2 16.2 L 141.7 18.8 L 138.16861839294432 20.01993179321289 L 136.5 26.2 L 133.5 35.9 L 130.1 45.2 L 126.5 54.2 L 123.2954023361206 61.0 L 165.8 61.0 L 175.8 51.0 L 187.8 61.0 L 187.8 65.0 L 167.3654450416565 65.0 L 164.4 82.7 L 159.9 100.4 L 154.1 116.7 L 147.1 131.6 L 142.17073879241943 139.5220269203186 L 146.2 144.6 L 154.2 152.9 L 163.0 160.2 L 172.7 166.6 L 183.2 172.0 L 188.7 174.7 L 177.4 183.9 L 166.1 177.2 Z M 38.84190473556519 31.82095241546631 L 38.9 31.8 L 44.9 29.7 L 50.8 27.8 L 56.5 25.9 L 62.1 24.0 L 67.6 22.1 L 72.9 20.2 L 78.1 18.2 L 83.1 16.2 L 88.0 14.2 L 88.60157012939453 15.899435710906982 L 97.5 23.6 L 97.8 26.7 L 93.64980945587158 24.930065822601318 L 92.0 25.5 L 86.7 27.0 L 81.3 28.4 L 75.8 29.8 L 70.1 31.0 L 64.3 32.2 L 58.4 33.2 L 52.3 34.2 L 46.0 35.0 L 39.7 35.5 L 39.0 35.53181819915771 L 39.0 77.0 L 81.0 77.0 L 91.0 67.0 L 103.0 77.0 L 103.0 81.0 L 75.0 81.0 L 75.0 121.66666669845581 L 78.6 123.6 L 83.6 126.7 L 88.1 130.0 L 92.3 133.4 L 96.0 137.0 L 99.2 140.8 L 100.1 145.3 L 97.6 149.1 L 93.2 150.0 L 89.3 147.6 L 87.2 144.2 L 84.6 140.9 L 81.5 137.5 L 77.9 134.1 L 75.0 131.63500003814698 L 75.0 182.6 L 63.0 188.6 L 63.0 122.97272729873657 L 58.8 120.3 L 52.9 116.7 L 46.5 113.0 L 47.2 111.3 L 54.4 113.3 L 61.2 115.5 L 63.0 116.22580642700196 L 63.0 81.0 L 39.0 81.0 L 39.0 95.4 L 38.4 107.6 L 37.5 119.1 L 36.1 129.9 L 34.3 140.1 L 32.1 149.6 L 29.4 158.4 L 26.2 166.6 L 22.6 173.9 L 18.4 180.5 L 13.7 186.1 L 12.2 185.1 L 15.1 178.6 L 17.7 171.7 L 20.1 164.3 L 22.1 156.3 L 23.8 147.8 L 25.2 138.6 L 26.2 128.8 L 26.8 118.3 L 27.1 107.2 L 27.0 95.4 L 27.0 25.9 Z M 121.31204814910889 65.0 L 118.1 71.2 L 114.78275079727173 76.8463815689087 L 117.7 88.2 L 121.9 101.6 L 126.8 113.9 L 132.5 125.2 L 136.501135635376 131.57680988311768 L 138.8 127.4 L 144.7 113.1 L 149.5 97.5 L 153.2 80.6 L 155.32727270126344 65.0 Z " />
</g>
</svg>
