<svg xmlns="http://www.w3.org/2000/svg" xmlns:xlink="http://www.w3.org/1999/xlink" version="1.1" baseProfile="full" viewBox="0 0 200 200" width="200" height="200">
<g fill="black">
<path d="M 146.2 142.9 L 156.2 142.9 L 157.5 142.8 L 158.4 142.6 L 159.0 142.5 L 159.3 142.3 L 159.5 142.1 L 159.6 141.9 L 159.8 141.6 L 160.0 141.0 L 160.2 140.1 L 160.2 102.46792249679565 L 136.1 109.6538212776184 L 136.1 156.8 L 124.1 162.8 L 124.1 113.23186225891114 L 102.6 119.64251880645752 L 102.6 168.5 L 102.8 169.4 L 103.1 170.3 L 103.5 170.7 L 104.4 171.0 L 105.3 171.2 L 174.4 171.2 L 180.4 146.2 L 182.4 146.2 L 180.4 171.2 L 184.0 173.6 L 186.4 177.2 L 184.0 180.8 L 180.4 183.2 L 106.6 183.2 L 104.0 183.1 L 101.5 182.7 L 99.1 181.9 L 96.8 180.6 L 94.8 179.0 L 93.2 177.0 L 91.9 174.7 L 91.1 172.3 L 90.7 169.8 L 90.6 167.2 L 90.6 123.22055978775025 L 73.9 128.2 L 73.03074979782104 125.19713563919068 L 72.9 131.8 L 72.6 141.0 L 72.0 149.2 L 71.2 156.4 L 70.2 162.8 L 68.9 168.3 L 67.3 173.0 L 66.2 175.3 L 64.9 177.4 L 63.4 179.4 L 61.7 181.1 L 59.7 182.6 L 57.6 183.9 L 55.3 184.8 L 52.9 185.5 L 50.4 185.8 L 47.9 186.0 L 47.9 180.0 L 31.9 177.0 L 31.9 174.0 L 47.9 174.0 L 49.3 173.9 L 50.4 173.7 L 51.4 173.4 L 52.3 173.1 L 53.0 172.7 L 54.4 171.5 L 55.0 170.6 L 55.6 169.6 L 56.2 168.4 L 57.4 165.0 L 58.4 160.5 L 59.3 154.8 L 60.1 148.1 L 60.6 140.3 L 61.0 131.5 L 61.1 121.7 L 61.1 110.9 L 60.8 99.0 L 60.67668161392212 95.84304933547973 L 60.3 96.0 L 60.3 88.0 L 44.910144901275636 88.0 L 44.7 93.8 L 43.6 107.1 L 41.9 119.6 L 39.8 131.5 L 37.0 142.7 L 33.8 153.2 L 29.9 162.9 L 25.5 172.0 L 20.4 180.2 L 14.7 187.5 L 13.2 186.4 L 17.1 178.3 L 20.6 169.7 L 23.8 160.6 L 26.5 151.0 L 28.8 140.7 L 30.6 129.9 L 32.0 118.4 L 32.9 106.2 L 33.3 93.4 L 33.2 80.0 L 33.2 53.0 L 14.0 53.0 L 14.0 49.0 L 39.8 49.0 L 39.8 16.0 L 51.8 18.0 L 54.8 20.0 L 51.8 21.8 L 51.8 49.0 L 61.2 49.0 L 71.2 39.0 L 83.2 49.0 L 83.2 53.0 L 45.2 53.0 L 45.2 80.0 L 45.055072498321536 84.0 L 60.3 84.0 L 66.3 79.0 L 77.3 88.0 L 72.49924812316894 90.88045110702515 L 72.8 98.7 L 73.0 110.7 L 73.1 121.7 L 73.04800586700439 124.32570514678955 L 90.6 119.0676724433899 L 90.6 85.9 L 102.6 87.9 L 105.6 89.9 L 102.6 91.7 L 102.6 115.47284479141236 L 124.1 109.0321120262146 L 124.1 75.0 L 136.1 77.0 L 139.1 79.0 L 136.1 80.8 L 136.1 105.43728446960449 L 160.2 98.21767244338989 L 160.2 96.6 L 166.2 91.6 L 177.2 100.6 L 172.2 104.6 L 172.2 138.9 L 172.1 141.4 L 171.6 143.9 L 170.8 146.3 L 169.6 148.6 L 168.0 150.6 L 165.9 152.3 L 163.7 153.5 L 161.3 154.3 L 158.8 154.7 L 156.2 154.9 L 156.2 148.9 L 146.2 145.9 Z M 160.2 23.1 L 162.2 26.0 L 158.47911920547486 26.65278606414795 L 157.1 29.5 L 153.7 35.8 L 150.1 41.9 L 146.1 47.7 L 141.8 53.4 L 137.2 58.8 L 132.4 64.0 L 127.1 68.9 L 121.5 73.4 L 115.5 77.6 L 114.4 76.3 L 118.9 70.7 L 123.2 65.2 L 127.4 59.7 L 131.3 54.1 L 134.9 48.5 L 138.3 42.7 L 141.4 36.9 L 144.2 31.0 L 146.7 24.9 L 148.65947227478028 19.61794424057007 L 148.6 19.6 L 149.5 17.3 Z M 129.3 16.9 L 131.4 19.8 L 127.7479404449463 20.50478343963623 L 126.2 24.1 L 122.8 31.2 L 119.1 37.9 L 115.0 44.5 L 110.7 50.8 L 106.0 56.8 L 100.9 62.5 L 95.5 67.9 L 89.8 73.0 L 83.6 77.6 L 82.3 76.3 L 87.0 70.3 L 91.5 64.4 L 95.8 58.4 L 99.8 52.3 L 103.6 46.1 L 107.0 39.8 L 110.2 33.3 L 113.1 26.7 L 115.7 19.9 L 117.69593391418456 13.825418376922608 L 117.6 13.8 L 118.5 11.5 Z " />
</g>
</svg>
