<svg xmlns="http://www.w3.org/2000/svg" xmlns:xlink="http://www.w3.org/1999/xlink" version="1.1" baseProfile="full" viewBox="0 0 200 200" width="200" height="200">
<g fill="black">
<path d="M 103.0 118.8 L 161.9 118.8 L 167.9 113.8 L 178.9 122.8 L 173.9 126.8 L 173.9 181.2 L 161.9 187.2 L 161.9 177.2 L 103.0 177.2 L 103.0 184.2 L 91.0 190.2 L 91.0 112.8 Z M 13.2 168.9 L 19.0 167.359375 L 19.0 101.0 L 30.0 103.0 L 32.7 105.0 L 30.0 106.72340421676635 L 30.0 164.29365081787108 L 32.3 163.6 L 38.7 161.7 L 41.5 160.825 L 41.5 80.0 L 30.5 80.0 L 30.5 83.0 L 18.5 89.0 L 18.5 22.0 L 30.5 28.0 L 61.2 28.0 L 67.2 23.0 L 78.2 32.0 L 73.2 36.0 L 73.2 86.0 L 61.2 92.0 L 61.2 80.0 L 52.5 80.0 L 52.5 117.0 L 61.977777767181394 117.0 L 68.2 110.0 L 76.2 117.0 L 76.2 121.0 L 52.5 121.0 L 52.5 157.2390625 L 57.8 155.5 L 64.2 153.3 L 70.7 151.2 L 77.3 149.1 L 78.1 150.8 L 72.3 154.6 L 66.4 158.2 L 60.4 161.5 L 54.3 164.6 L 48.2 167.6 L 42.0 170.4 L 35.7 173.1 L 29.4 175.6 L 23.0 178.1 L 20.52982454299927 178.98771934509278 L 19.4 182.7 L 16.6 180.4 L 11.3 169.5 Z M 103.0 149.2 L 103.0 173.2 L 161.9 173.2 L 161.9 149.2 Z M 103.0 122.8 L 103.0 145.2 L 161.9 145.2 L 161.9 122.8 Z M 153.0 108.8 L 140.5 105.8 L 129.5 101.1 L 120.1 94.9 L 112.62174091339111 87.22494459152222 L 107.8 92.6 L 101.2 98.3 L 94.0 103.0 L 86.4 106.4 L 78.4 108.6 L 77.8 106.9 L 84.7 103.0 L 91.1 98.5 L 96.9 93.4 L 102.2 87.5 L 107.0 80.8 L 107.68904666900634 79.59817447662354 L 106.6 77.9 L 102.7 67.4 L 100.6 55.6 L 100.54898653030395 53.40641889572144 L 100.0 54.8 L 97.0 60.8 L 93.7 66.4 L 89.9 71.5 L 85.8 76.0 L 81.2 79.9 L 79.9 78.6 L 82.8 73.7 L 85.4 68.6 L 87.9 63.3 L 90.1 57.7 L 92.0 51.8 L 93.7 45.6 L 95.1 38.9 L 96.2 32.0 L 97.1 24.6 L 97.53587846755981 17.80029649734497 L 97.5 17.8 L 97.8 14.6 L 109.6 17.9 L 112.4 20.1 L 109.03658895492553 21.749975204467773 L 108.4 26.1 L 106.84102563858032 33.7 L 124.0 33.7 L 130.0 28.7 L 141.0 37.7 L 136.0 40.7 L 134.5789731025696 41.29209451675415 L 132.5 48.6 L 128.7 59.4 L 124.3 69.1 L 119.4 77.9 L 117.73846244812012 80.28657217025757 L 118.8 81.6 L 125.7 87.5 L 134.0 91.9 L 143.6 95.1 L 154.6 97.1 L 167.2 97.6 L 181.3 96.9 L 192.2 96.0 L 182.3 110.0 L 166.9 110.2 Z M 172.2 61.3 L 170.7 58.9 L 168.8 56.5 L 166.7 54.0 L 164.3 51.4 L 161.6 48.8 L 158.6 46.1 L 155.4 43.2 L 155.4 88.8 L 143.4 94.8 L 143.4 15.5 L 155.4 17.5 L 158.4 19.5 L 155.4 21.3 L 155.4 40.07209300994873 L 156.9 40.7 L 161.0 42.3 L 164.9 44.1 L 168.4 46.0 L 171.7 48.0 L 174.8 50.1 L 177.6 52.3 L 180.2 54.6 L 182.6 57.0 L 184.7 59.5 L 185.3 64.1 L 182.6 67.8 L 178.1 68.4 L 174.4 65.7 L 173.4 63.5 Z M 30.5 57.0 L 30.5 76.0 L 61.2 76.0 L 61.2 57.0 Z M 105.82432432174683 37.7 L 104.9 41.3 L 103.0184079170227 46.944776153564455 L 104.7 54.9 L 108.2 65.4 L 111.80149612426757 72.21985445022582 L 115.2 64.9 L 118.6 55.7 L 121.6 45.5 L 123.35675678253173 37.7 Z M 30.5 32.0 L 30.5 53.0 L 61.2 53.0 L 61.2 32.0 Z " />
</g>
</svg>
