<svg xmlns="http://www.w3.org/2000/svg" xmlns:xlink="http://www.w3.org/1999/xlink" version="1.1" baseProfile="full" viewBox="0 0 200 200" width="200" height="200">
<g fill="black">
<path d="M 170.8 176.5 L 169.2 178.5 L 167.5 180.2 L 165.5 181.7 L 163.4 182.9 L 161.1 183.8 L 158.7 184.5 L 156.3 184.8 L 153.7 185.0 L 153.7 179.0 L 133.7 176.0 L 133.7 173.0 L 153.7 173.0 L 155.1 172.9 L 156.3 172.7 L 157.3 172.4 L 158.2 172.1 L 159.6 171.1 L 160.3 170.4 L 161.0 169.6 L 161.6 168.6 L 162.2 167.4 L 163.2 164.8 L 164.2 161.7 L 165.1 158.2 L 166.0 154.2 L 166.8 149.7 L 167.5 144.7 L 168.2 139.4 L 168.8 133.5 L 169.4 127.3 L 169.65671644210815 123.0 L 135.76899223327638 123.0 L 135.0 126.2 L 130.8 138.1 L 125.2 148.9 L 118.5 158.5 L 110.5 166.9 L 101.4 174.1 L 91.1 180.0 L 79.8 184.6 L 67.4 187.8 L 66.9 186.1 L 78.4 181.1 L 88.5 175.3 L 97.5 168.8 L 105.2 161.5 L 111.7 153.4 L 117.1 144.4 L 121.4 134.4 L 124.7 123.5 L 124.78823528289794 123.0 L 77.8 123.0 L 77.8 119.0 L 125.49411764144898 119.0 L 126.8 111.6 L 127.81541719436646 99.59961452484131 L 127.8 99.6 L 128.0 96.3 L 139.8 99.3 L 142.7 101.5 L 139.31526718139648 103.29191741943359 L 138.1 113.3 L 136.73023252487184 119.0 L 169.8 119.0 L 175.8 114.0 L 186.8 123.0 L 181.8 126.0 L 181.4488169670105 126.14632625579834 L 181.3 128.2 L 180.8 134.7 L 180.1 140.7 L 179.4 146.4 L 178.6 151.6 L 177.8 156.5 L 176.8 161.0 L 175.7 165.1 L 174.5 168.8 L 173.2 172.2 L 172.1 174.4 Z M 29.9 36.0 L 56.5 36.0 L 62.5 31.0 L 73.5 40.0 L 68.5 44.0 L 68.5 158.0 L 56.5 164.0 L 56.5 152.0 L 29.9 152.0 L 29.9 164.0 L 17.9 170.0 L 17.9 30.0 Z M 29.9 96.0 L 29.9 148.0 L 56.5 148.0 L 56.5 96.0 Z M 101.6 104.0 L 89.6 110.0 L 89.6 19.0 L 101.6 25.0 L 164.8 25.0 L 170.8 20.0 L 181.8 29.0 L 176.8 33.0 L 176.8 98.0 L 164.8 104.0 L 164.8 92.0 L 101.6 92.0 Z M 29.9 40.0 L 29.9 92.0 L 56.5 92.0 L 56.5 40.0 Z M 101.6 60.0 L 101.6 88.0 L 127.2 88.0 L 127.2 60.0 Z M 139.2 60.0 L 139.2 88.0 L 164.8 88.0 L 164.8 60.0 Z M 101.6 29.0 L 101.6 56.0 L 127.2 56.0 L 127.2 29.0 Z M 139.2 29.0 L 139.2 56.0 L 164.8 56.0 L 164.8 29.0 Z " />
</g>
</svg>
