<svg xmlns="http://www.w3.org/2000/svg" xmlns:xlink="http://www.w3.org/1999/xlink" version="1.1" baseProfile="full" viewBox="0 0 200 200" width="200" height="200">
<g fill="black">
<path d="M 65.2 104.9 L 63.8 102.6 L 62.2 100.3 L 60.5 98.0 L 58.6 95.8 L 56.5 93.6 L 54.3 91.4 L 53.0 90.15416669845581 L 53.0 183.0 L 41.0 189.0 L 41.0 96.27741937637329 L 39.8 99.8 L 36.3 108.6 L 32.6 117.2 L 28.5 125.5 L 24.0 133.5 L 19.1 141.2 L 13.8 148.4 L 12.2 147.5 L 15.8 139.3 L 19.2 131.1 L 22.5 122.8 L 25.5 114.4 L 28.3 105.8 L 30.9 97.0 L 33.2 88.0 L 35.3 78.8 L 37.0 69.5 L 37.99411764144897 63.0 L 13.0 63.0 L 13.0 59.0 L 41.0 59.0 L 41.0 14.0 L 53.0 16.0 L 56.0 18.0 L 53.0 19.8 L 53.0 59.0 L 56.5 59.0 L 66.5 49.0 L 78.5 59.0 L 78.5 63.0 L 53.0 63.0 L 53.0 86.725 L 53.2 86.8 L 56.5 87.8 L 59.6 89.1 L 62.6 90.6 L 65.5 92.3 L 68.2 94.2 L 70.8 96.2 L 73.2 98.4 L 75.5 100.7 L 77.7 103.2 L 78.4 107.7 L 75.8 111.5 L 71.3 112.2 L 67.5 109.6 L 66.4 107.2 Z M 101.7 130.0 L 161.1 130.0 L 167.1 125.0 L 178.1 134.0 L 173.1 138.0 L 173.1 176.0 L 161.1 182.0 L 161.1 170.0 L 101.7 170.0 L 101.7 182.0 L 89.7 188.0 L 89.7 124.0 Z M 101.7 134.0 L 101.7 166.0 L 161.1 166.0 L 161.1 134.0 Z M 170.0 105.0 L 170.0 109.0 L 93.8 109.0 L 93.8 105.0 L 148.0 105.0 L 158.0 95.0 Z M 170.0 79.0 L 170.0 83.0 L 93.8 83.0 L 93.8 79.0 L 148.0 79.0 L 158.0 69.0 Z M 186.4 54.0 L 186.4 58.0 L 80.3 58.0 L 80.3 54.0 L 168.21818180084227 54.0 L 176.4 45.0 Z M 170.0 30.0 L 170.0 34.0 L 92.8 34.0 L 92.8 30.0 L 148.0 30.0 L 158.0 20.0 Z " />
</g>
</svg>
