<svg xmlns="http://www.w3.org/2000/svg" xmlns:xlink="http://www.w3.org/1999/xlink" version="1.1" baseProfile="full" viewBox="0 0 200 200" width="200" height="200">
<g fill="black">
<path d="M 33.2 22.0 L 58.0 22.0 L 64.0 17.0 L 75.0 26.0 L 70.0 30.0 L 70.0 171.0 L 69.8 173.5 L 69.4 176.0 L 68.6 178.4 L 67.3 180.7 L 65.7 182.7 L 63.7 184.3 L 61.4 185.6 L 59.0 186.4 L 56.5 186.8 L 54.0 187.0 L 54.0 181.0 L 38.0 178.0 L 38.0 175.0 L 54.0 175.0 L 55.2 174.9 L 56.1 174.7 L 57.0 174.4 L 57.4 174.0 L 57.7 173.1 L 57.9 172.2 L 58.0 171.0 L 58.0 114.0 L 33.2 114.0 L 33.2 118.0 L 32.7 128.7 L 32.0 138.7 L 30.9 147.9 L 29.4 156.2 L 27.7 163.8 L 25.6 170.6 L 23.1 176.5 L 20.2 181.6 L 16.9 185.6 L 13.1 188.6 L 11.9 187.3 L 13.7 183.5 L 15.4 179.1 L 16.9 174.2 L 18.3 168.5 L 19.4 162.1 L 20.3 154.9 L 20.9 146.8 L 21.3 138.0 L 21.4 128.4 L 21.2 118.0 L 21.2 16.0 Z M 154.7 66.0 L 154.7 70.0 L 135.9 70.0 L 135.9 97.0 L 158.5 97.0 L 168.5 87.0 L 180.5 97.0 L 180.5 101.0 L 135.9 101.0 L 135.9 129.7 L 156.1 129.7 L 162.1 124.7 L 173.1 133.7 L 168.1 137.7 L 168.1 179.2 L 156.1 185.2 L 156.1 175.2 L 102.7 175.2 L 102.7 182.2 L 90.7 188.2 L 90.7 123.7 L 102.7 129.7 L 123.9 129.7 L 123.9 101.0 L 78.3 101.0 L 78.3 97.0 L 123.9 97.0 L 123.9 70.0 L 104.1 70.0 L 104.1 66.0 L 132.7 66.0 L 142.7 56.0 Z M 102.7 133.7 L 102.7 171.2 L 156.1 171.2 L 156.1 133.7 Z M 33.2 69.0 L 33.2 110.0 L 58.0 110.0 L 58.0 69.0 Z M 165.8 70.7 L 160.2 65.7 L 154.8 60.3 L 149.7 54.4 L 144.8 48.0 L 140.2 41.2 L 135.8 33.9 L 131.8 26.1 L 131.6918918609619 25.840540504455568 L 131.4 26.4 L 126.2 35.1 L 120.7 43.3 L 114.9 50.9 L 108.7 58.1 L 102.2 64.6 L 95.4 70.6 L 88.3 76.0 L 80.8 80.7 L 73.0 84.6 L 72.1 83.1 L 78.6 77.6 L 84.9 71.8 L 91.0 65.8 L 96.7 59.4 L 102.2 52.6 L 107.4 45.4 L 112.3 37.8 L 117.0 29.7 L 121.3 21.2 L 125.3 12.2 L 125.32344923019409 12.210756587982178 L 125.9 11.0 L 136.2 17.2 L 138.1 20.3 L 134.38193340301513 20.684627532958984 L 133.78923006057738 21.820642375946044 L 135.4 23.9 L 140.7 30.6 L 146.0 36.9 L 151.2 42.7 L 156.5 48.0 L 161.9 52.9 L 167.4 57.3 L 172.9 61.2 L 178.4 64.7 L 184.1 67.7 L 188.9 70.4 L 177.7 79.2 L 171.6 75.2 Z M 33.2 26.0 L 33.2 65.0 L 58.0 65.0 L 58.0 26.0 Z " />
</g>
</svg>
