<svg xmlns="http://www.w3.org/2000/svg" xmlns:xlink="http://www.w3.org/1999/xlink" version="1.1" baseProfile="full" viewBox="0 0 200 200" width="200" height="200">
<g fill="black">
<path d="M 39.1 183.5 L 27.1 189.5 L 27.1 122.53939390182495 L 26.4 123.6 L 22.8 128.4 L 18.9 133.1 L 14.6 137.7 L 13.1 136.7 L 15.7 131.1 L 18.2 125.6 L 20.7 120.3 L 23.0 115.0 L 25.2 109.8 L 27.1 105.18571424484253 L 27.1 100.8 L 28.473983764648438 101.48699188232422 L 29.2 99.5 L 30.9 94.5 L 32.5 89.4 L 33.56216478347778 85.31475095748901 L 33.5 85.3 L 34.3 82.9 L 45.3 88.1 L 47.5 90.9 L 43.799544429779054 91.74396352767944 L 43.2 93.2 L 40.9 98.4 L 38.4 103.5 L 37.16511631011963 105.83255815505981 L 39.1 106.8 L 61.13157892227173 106.8 L 61.3 106.4 L 61.7 104.3 L 62.2 102.1 L 62.7 100.0 L 63.2 97.8 L 64.4 93.4 L 65.95017642974854 87.45765705108643 L 65.8 87.4 L 66.14545450210571 86.70909090042115 L 66.2 86.5 L 66.24029846191407 86.51940298080444 L 66.8 85.4 L 77.0 91.7 L 78.9 94.8 L 74.36086959838867 95.26956520080566 L 72.6 97.5 L 71.2 99.4 L 69.7 101.1 L 68.1 102.9 L 66.6 104.5 L 65.0 106.1 L 64.20666666030884 106.8 L 84.5 106.8 L 94.5 96.8 L 106.5 106.8 L 106.5 110.8 L 71.3 110.8 L 71.3 128.4 L 81.51818180084229 128.4 L 89.7 119.4 L 99.7 128.4 L 99.7 132.4 L 71.3 132.4 L 71.3 150.9 L 81.51818180084229 150.9 L 89.7 141.9 L 99.7 150.9 L 99.7 154.9 L 71.3 154.9 L 71.3 172.5 L 90.2 172.5 L 100.2 162.5 L 112.2 172.5 L 112.2 176.5 L 39.1 176.5 Z M 182.9 146.2 L 184.9 146.2 L 182.9 171.2 L 186.5 173.6 L 188.9 177.2 L 186.5 180.8 L 182.9 183.2 L 150.0 183.2 L 147.4 183.0 L 145.0 182.6 L 142.5 181.8 L 140.3 180.6 L 138.3 178.9 L 136.6 176.9 L 135.4 174.6 L 134.6 172.2 L 134.1 169.7 L 134.0 167.2 L 134.0 122.28948659896851 L 105.6 128.4 L 104.8 124.5 L 134.0 118.21735944747925 L 134.0 86.54782609939575 L 108.0 92.2 L 107.2 88.3 L 134.0 82.47391300201416 L 134.0 45.505479431152345 L 132.0 46.3 L 124.3 49.1 L 116.3 51.6 L 108.6 53.61666669845581 L 108.6 82.6 L 96.6 88.6 L 96.6 62.91428575515747 L 95.4 64.2 L 92.4 67.0 L 89.3 69.8 L 85.9 72.6 L 82.3 75.2 L 78.5 77.8 L 74.5 80.2 L 70.2 82.5 L 65.8 84.8 L 64.8 83.3 L 68.3 79.8 L 71.5 76.4 L 74.6 73.1 L 77.5 69.9 L 80.3 66.7 L 82.8 63.6 L 85.1 60.5 L 87.2 57.4 L 89.1 54.4 L 90.32328939437866 52.31321220397949 L 90.3 52.3 L 90.55714282989501 51.91428575515747 L 90.8 51.5 L 90.82296981811524 51.51554527282715 L 91.3 50.8 L 96.6 54.9723403930664 L 96.6 36.281481456756595 L 94.4 38.4 L 91.6 40.9 L 88.6 43.3 L 85.5 45.7 L 82.1 48.0 L 78.6 50.3 L 74.9 52.4 L 70.9 54.3 L 66.9 56.4 L 65.9 54.9 L 69.2 51.8 L 72.1 48.7 L 74.9 45.7 L 77.6 42.8 L 80.1 39.9 L 82.4 37.0 L 84.5 34.3 L 86.5 31.5 L 88.2 28.8 L 89.29281740188598 26.955870628356934 L 89.2 26.9 L 90.2 25.4 L 96.6 30.69892473220825 L 96.6 24.5 L 66.1 24.5 L 61.1 28.5 L 61.1 82.6 L 49.1 88.6 L 49.1 63.48214282989502 L 48.6 64.0 L 45.7 66.8 L 42.5 69.5 L 39.1 72.2 L 35.5 74.9 L 31.6 77.5 L 27.4 80.0 L 23.0 82.4 L 18.3 84.8 L 17.3 83.3 L 21.0 79.7 L 24.4 76.1 L 27.7 72.7 L 30.7 69.5 L 33.5 66.3 L 36.1 63.2 L 38.4 60.1 L 40.5 57.2 L 42.3 54.3 L 43.432440757751465 52.31822862625122 L 43.4 52.3 L 43.7 51.85 L 43.9 51.5 L 43.9230414390564 51.51543779373169 L 44.4 50.8 L 49.1 54.46105260848999 L 49.1 36.101694869995114 L 48.812903213500974 36.087096786499025 L 46.6 38.3 L 43.9 40.9 L 40.9 43.3 L 37.7 45.7 L 34.4 48.0 L 30.8 50.3 L 27.0 52.4 L 23.0 54.3 L 18.9 56.4 L 17.9 54.9 L 21.2 51.8 L 24.3 48.7 L 27.2 45.7 L 29.9 42.7 L 32.4 39.9 L 34.6 37.1 L 36.7 34.3 L 38.6 31.6 L 40.2 28.9 L 41.20456428527832 27.158755207061766 L 41.1 27.1 L 42.2 25.5 L 49.1 31.005319118499756 L 49.1 24.5 L 17.8 24.5 L 17.8 20.5 L 49.1 20.5 L 55.1 15.5 L 65.3 23.845454502105714 L 65.3 20.5 L 96.6 20.5 L 102.6 15.5 L 113.6 24.5 L 108.6 28.5 L 108.6 51.40666666030884 L 114.8 48.1 L 122.2 44.2 L 129.2 40.4 L 136.0 36.6 L 142.5 32.8 L 148.7 29.0 L 154.6 25.2 L 160.2 21.3 L 165.5 17.5 L 169.72049283981323 14.123605728149414 L 169.7 14.1 L 170.5 13.5 L 177.6 23.2 L 177.8 26.8 L 174.26974172592162 25.36174659729004 L 171.9 26.9 L 166.0 30.4 L 159.7 33.8 L 153.2 37.1 L 146.4 40.3 L 146.0 40.47464790344238 L 146.0 79.86521739959717 L 156.8796748161316 77.50007066726684 L 164.6 65.5 L 178.5 72.8 L 179.3 76.7 L 146.0 83.93913040161132 L 146.0 115.63545236587524 L 165.02811813354492 111.54138288497924 L 172.7 99.7 L 186.6 106.9 L 187.4 110.8 L 146.0 119.70757942199707 L 146.0 167.2 L 146.1 168.4 L 146.2 169.3 L 146.4 169.9 L 146.6 170.3 L 146.8 170.4 L 146.9 170.6 L 147.3 170.8 L 147.9 171.0 L 148.8 171.1 L 150.0 171.2 L 176.9 171.2 Z M 39.1 154.9 L 39.1 172.5 L 59.3 172.5 L 59.3 154.9 Z M 39.1 132.4 L 39.1 150.9 L 59.3 150.9 L 59.3 132.4 Z M 39.1 110.8 L 39.1 128.4 L 59.3 128.4 L 59.3 110.8 Z " />
</g>
</svg>
