<svg xmlns="http://www.w3.org/2000/svg" xmlns:xlink="http://www.w3.org/1999/xlink" version="1.1" baseProfile="full" viewBox="0 0 200 200" width="200" height="200">
<g fill="black">
<path d="M 180.94117650985717 159.6 L 71.1 159.6 L 71.1 155.6 L 91.7 155.6 L 91.7 104.8 L 103.7 110.8 L 150.2 110.8 L 156.2 105.8 L 167.2 114.8 L 162.2 118.8 L 162.2 155.6 L 164.71818180084227 155.6 L 172.9 146.6 L 182.9 155.6 L 182.9 156.0 L 184.0 156.0 L 182.0 173.0 L 185.0 175.0 L 187.0 178.0 L 185.0 181.0 L 182.0 183.0 L 50.0 183.0 L 47.5 182.9 L 45.1 182.6 L 42.8 181.9 L 40.6 180.8 L 38.6 179.3 L 36.9 177.5 L 35.6 175.3 L 34.7 173.0 L 34.2 170.5 L 34.0 168.0 L 34.0 120.08032789230347 L 14.4 124.9 L 13.5 121.0 L 34.0 115.95901641845703 L 34.0 85.42982454299927 L 14.4 89.9 L 13.5 86.0 L 34.0 81.32456140518188 L 34.0 46.222388076782224 L 33.4 46.5 L 26.4 49.5 L 19.0 52.2 L 11.3 54.8 L 10.6 53.1 L 17.4 48.8 L 23.9 44.7 L 30.3 40.7 L 36.3 36.8 L 42.1 33.0 L 47.5 29.1 L 52.7 25.3 L 57.6 21.5 L 62.1 17.7 L 65.64689979553222 14.648016452789307 L 65.6 14.6 L 66.5 13.9 L 74.0 23.2 L 74.4 26.8 L 70.7950532913208 25.554654788970947 L 69.1 26.8 L 63.8 30.2 L 58.3 33.6 L 52.5 37.0 L 46.4 40.3 L 46.0 40.49682540893555 L 46.0 78.58771934509278 L 49.11406650543213 77.87749357223511 L 56.6 65.9 L 70.5 73.0 L 71.4 76.9 L 46.0 82.69298248291015 L 46.0 113.00819673538209 L 53.07582721710205 111.26823921203614 L 60.4 99.2 L 74.37871713638306 105.94150896072388 L 75.0 104.0 L 75.7 101.1 L 76.5 98.0 L 76.7 94.6 L 77.83695650100708 94.6 L 76.5 45.4 L 86.28345346450806 49.97095775604248 L 86.5 49.8 L 88.3 48.3 L 89.9 46.9 L 91.4 45.7 L 92.8 44.4 L 94.1 43.2 L 96.2 41.1 L 96.38867921829224 40.86415090560913 L 96.2 40.6 L 96.41879024505616 40.826512241363524 L 97.0 40.1 L 99.12179450988769 43.62491664886475 L 104.7 49.4 L 104.9 52.8 L 100.49350652694702 50.976623344421384 L 100.0 51.1 L 98.2 51.4 L 96.4 51.8 L 94.4 52.1 L 92.4 52.5 L 90.2 52.8 L 88.75341730117798 52.98868465423584 L 89.09878787994384 65.2 L 93.1 65.2 L 97.6 59.2 L 103.6 65.2 L 103.6 69.2 L 89.21191921234131 69.2 L 89.5371717453003 80.7 L 93.1 80.7 L 97.6 74.7 L 103.6 80.7 L 103.6 84.7 L 89.65030307769776 84.7 L 90.04343433380127 98.6 L 104.9 98.6 L 104.9 40.5 L 113.9 45.0 L 140.0 45.0 L 144.5 40.0 L 153.0 48.052631568908694 L 153.0 47.3 L 165.2 47.3 L 171.2 42.3 L 182.2 51.3 L 177.2 54.3 L 176.17359247207642 54.72766981124878 L 175.93296699523927 95.07252750396728 L 177.7 93.6 L 188.7 102.6 L 183.7 105.6 L 179.490163898468 107.35409832000732 L 177.0 110.2 L 175.4 112.0 L 173.6 113.9 L 171.8 115.9 L 169.7 118.0 L 168.0 120.4 L 166.5 119.5 L 167.8 116.8 L 168.5 114.0 L 169.3 111.5 L 169.9 109.0 L 170.5 106.8 L 171.1 104.7 L 171.5 102.9 L 171.55 102.6 L 79.82580642700195 102.6 L 80.1 104.3 L 80.4 107.1 L 80.6 109.9 L 80.7 112.4 L 80.6 114.9 L 80.3 117.2 L 79.8 119.5 L 79.0 121.7 L 75.1 124.1 L 70.7 123.2 L 68.2 119.4 L 69.1 114.9 L 69.9 114.4 L 70.7 113.6 L 71.6 112.3 L 72.5 110.7 L 72.54658203125 110.60166015625 L 46.0 117.12950820922852 L 46.0 168.0 L 45.9 169.2 L 46.0 170.1 L 46.1 170.8 L 46.3 171.6 L 46.5 171.9 L 46.9 172.2 L 47.6 172.5 L 48.6 172.8 L 50.0 173.0 L 177.0 173.0 Z M 103.7 144.3 L 103.7 155.6 L 150.2 155.6 L 150.2 144.3 Z M 103.7 129.5 L 103.7 140.3 L 150.2 140.3 L 150.2 129.5 Z M 103.7 114.8 L 103.7 125.5 L 150.2 125.5 L 150.2 114.8 Z M 113.9 49.0 L 113.9 98.6 L 140.0 98.6 L 140.0 75.38000001907349 L 137.7 76.3 L 137.7 89.8 L 129.7 93.8 L 129.7 89.8 L 124.2 89.8 L 116.2 93.8 L 116.2 66.3 L 124.2 70.3 L 129.7 70.3 L 133.7 65.3 L 140.0 71.6 L 140.0 49.0 Z M 149.0 51.5 L 149.0 98.6 L 163.85068225860596 98.6 L 164.2029239654541 84.7 L 150.4 84.7 L 150.4 80.7 L 164.304288482666 80.7 L 164.595711517334 69.2 L 150.4 69.2 L 150.4 65.2 L 164.6970760345459 65.2 L 165.04931774139405 51.3 L 153.0 51.3 L 153.0 49.5 Z M 124.2 74.3 L 124.2 85.8 L 129.7 85.8 L 129.7 74.3 Z M 138.7 59.0 L 138.7 63.0 L 115.3 63.0 L 115.3 59.0 L 124.4777777671814 59.0 L 130.7 52.0 Z M 74.5 32.4 L 121.3 32.4 L 121.3 14.0 L 133.3 16.0 L 136.3 18.0 L 133.3 19.8 L 133.3 32.4 L 165.7777777671814 32.4 L 172.0 25.4 L 180.0 32.4 L 180.0 36.4 L 74.5 36.4 Z " />
</g>
</svg>
