<svg xmlns="http://www.w3.org/2000/svg" xmlns:xlink="http://www.w3.org/1999/xlink" version="1.1" baseProfile="full" viewBox="0 0 200 200" width="200" height="200">
<g fill="black">
<path d="M 160.2 176.2 L 152.8 170.2 L 146.2 163.5 L 145.20722541809081 162.27557802200317 L 138.0 168.5 L 128.5 175.1 L 118.2 180.7 L 107.1 185.3 L 95.4 188.8 L 94.8 187.1 L 105.6 181.8 L 115.6 176.0 L 124.8 169.6 L 133.1 162.6 L 139.9626865386963 155.7373134613037 L 134.9 148.0 L 130.3 139.3 L 126.4 129.9 L 123.3 119.9 L 121.35700931549073 110.0 L 110.1 110.0 L 110.1 106.0 L 166.7 106.0 L 172.7 101.0 L 183.7 110.0 L 178.7 113.0 L 176.86794662475586 113.76335563659669 L 173.8 121.7 L 168.2 132.8 L 161.9 143.1 L 154.7 152.4 L 152.15693111419677 155.1362133026123 L 153.4 156.4 L 159.9 161.8 L 166.8 166.5 L 174.2 170.5 L 182.0 173.9 L 188.3 176.5 L 176.8 186.0 L 168.2 181.5 Z M 34.2 131.5 L 33.4 140.4 L 32.2 148.7 L 30.6 156.4 L 28.7 163.5 L 26.4 169.9 L 23.7 175.7 L 20.5 180.8 L 16.9 185.1 L 12.9 188.6 L 11.6 187.3 L 13.8 183.0 L 15.8 178.3 L 17.6 173.2 L 19.2 167.6 L 20.5 161.4 L 21.5 154.7 L 22.2 147.4 L 22.7 139.5 L 22.8 131.0 L 22.7 122.0 L 22.7 79.0 L 34.7 85.0 L 84.2 85.0 L 90.2 80.0 L 101.2 89.0 L 96.2 93.0 L 96.2 130.0 L 84.2 136.0 L 84.2 124.0 L 34.594736862182614 124.0 Z M 123.48367347717286 110.0 L 127.3 118.5 L 131.8 127.5 L 136.6 135.9 L 141.8 143.4 L 145.9820128440857 148.55283727645875 L 147.5 146.7 L 153.5 137.6 L 158.7 127.9 L 163.2 117.4 L 165.6884955406189 110.0 Z M 34.7 89.0 L 34.7 120.0 L 53.4 120.0 L 53.4 89.0 Z M 65.4 89.0 L 65.4 120.0 L 84.2 120.0 L 84.2 89.0 Z M 123.1 27.1 L 167.3 27.1 L 173.3 22.1 L 184.3 31.1 L 179.3 35.1 L 179.3 84.8 L 167.3 90.8 L 167.3 80.8 L 123.1 80.8 L 123.1 87.8 L 111.1 93.8 L 111.1 21.1 Z M 123.1 31.1 L 123.1 76.8 L 167.3 76.8 L 167.3 31.1 Z M 21.5 64.0 L 53.4 64.0 L 53.4 42.0 L 16.4 42.0 L 16.4 38.0 L 53.4 38.0 L 53.4 13.0 L 65.4 15.0 L 68.4 17.0 L 65.4 18.8 L 65.4 38.0 L 84.6 38.0 L 94.6 28.0 L 106.6 38.0 L 106.6 42.0 L 65.4 42.0 L 65.4 64.0 L 81.21818180084229 64.0 L 89.4 55.0 L 99.4 64.0 L 99.4 68.0 L 21.5 68.0 Z " />
</g>
</svg>
