<svg xmlns="http://www.w3.org/2000/svg" xmlns:xlink="http://www.w3.org/1999/xlink" version="1.1" baseProfile="full" viewBox="0 0 200 200" width="200" height="200">
<g fill="black">
<path d="M 47.6 120.4 L 46.6 117.8 L 45.3 115.3 L 43.7 112.8 L 41.8 110.3 L 39.7 107.9 L 37.3 105.6 L 34.6 103.2 L 33.86992712020874 102.74370450973511 L 32.8 104.5 L 26.9 112.5 L 20.5 119.9 L 13.5 126.6 L 12.2 125.3 L 17.5 117.5 L 22.5 109.5 L 27.1 101.1 L 31.3 92.4 L 35.1 83.3 L 38.5 73.7 L 41.4 63.7 L 44.0 53.3 L 46.1 42.4 L 47.2307692527771 34.0 L 12.9 34.0 L 12.9 30.0 L 75.5 30.0 L 85.5 20.0 L 97.5 30.0 L 97.5 34.0 L 59.37435894012451 34.0 L 57.2 44.6 L 54.4 55.9 L 51.0 66.7 L 50.143137264251706 69.0 L 76.5 69.0 L 82.5 64.0 L 93.5 73.0 L 88.5 76.0 L 87.70208444595337 76.33246479034423 L 85.6 88.8 L 81.8 104.9 L 76.8 119.8 L 70.8 133.5 L 63.8 146.1 L 55.7 157.5 L 46.6 167.6 L 36.5 176.4 L 25.4 183.8 L 13.3 189.7 L 12.5 188.2 L 23.3 180.6 L 33.0 172.3 L 41.8 163.1 L 49.6 152.9 L 56.5 141.8 L 62.4 129.6 L 67.4 116.4 L 71.4 102.1 L 74.4 86.8 L 76.23999996185303 73.0 L 48.652941131591795 73.0 L 47.2 76.9 L 42.9 86.6 L 38.1 95.8 L 35.22796363830567 100.51447467803955 L 39.5 101.9 L 43.0 103.4 L 46.2 105.3 L 49.2 107.4 L 52.0 109.8 L 54.6 112.5 L 56.8 115.5 L 58.8 118.8 L 60.5 122.3 L 60.0 126.8 L 56.6 129.8 L 52.0 129.4 L 49.0 125.9 L 48.4 123.1 Z M 157.1 174.3 L 148.3 167.6 L 140.67878789901732 160.74090909957886 L 131.4 167.7 L 120.0 174.5 L 107.7 180.3 L 94.5 185.1 L 80.3 188.8 L 79.7 187.1 L 93.1 181.6 L 105.4 175.5 L 116.7 168.8 L 127.0 161.5 L 134.94118738174438 154.59461965560914 L 133.1 152.6 L 126.8 144.3 L 121.3 135.5 L 116.7 126.2 L 113.1 116.5 L 110.79417476654052 107.0 L 98.3 107.0 L 98.3 103.0 L 167.3 103.0 L 173.3 98.0 L 184.3 107.0 L 179.3 110.0 L 177.32089548110963 110.82462682724 L 173.6 119.3 L 167.2 130.8 L 159.7 141.4 L 151.3 151.1 L 148.43729705810546 153.75176696777345 L 155.0 158.8 L 163.5 164.4 L 172.7 169.4 L 182.5 174.0 L 188.3 176.6 L 177.0 185.9 L 166.7 180.4 Z M 113.0 107.0 L 116.9 114.8 L 121.9 123.5 L 127.4 131.6 L 133.4 139.2 L 140.0 146.3 L 141.64721403121948 147.78706817626954 L 144.4 144.9 L 151.7 135.5 L 158.0 125.4 L 163.3 114.5 L 166.1448275566101 107.0 Z M 118.0 26.0 L 165.5 26.0 L 171.5 21.0 L 182.5 30.0 L 177.5 34.0 L 177.5 86.0 L 165.5 92.0 L 165.5 84.0 L 118.0 84.0 L 118.0 87.0 L 106.0 93.0 L 106.0 20.0 Z M 118.0 30.0 L 118.0 80.0 L 165.5 80.0 L 165.5 30.0 Z " />
</g>
</svg>
