<svg xmlns="http://www.w3.org/2000/svg" xmlns:xlink="http://www.w3.org/1999/xlink" version="1.1" baseProfile="full" viewBox="0 0 200 200" width="200" height="200">
<g fill="black">
<path d="M 173.4 183.3 L 171.4 184.6 L 169.4 185.8 L 167.2 186.7 L 165.0 187.5 L 162.8 188.2 L 160.4 188.6 L 158.1 188.9 L 155.7 189.0 L 155.7 183.0 L 135.7 180.0 L 135.7 177.0 L 155.7 177.0 L 157.2 176.9 L 158.7 176.7 L 160.1 176.5 L 161.4 176.1 L 162.7 175.6 L 163.9 175.1 L 165.1 174.4 L 166.3 173.6 L 167.4 172.7 L 168.5 171.6 L 168.9 171.1 L 169.6 169.6 L 170.4 167.1 L 171.1 163.7 L 171.7 159.5 L 172.2 154.5 L 172.5 148.8 L 172.7 142.3 L 172.62566165924073 136.94764099121093 L 172.5 137.0 L 172.5 129.0 L 87.6 129.0 L 87.6 125.0 L 132.2 125.0 L 132.2 106.0 L 108.3 106.0 L 108.3 109.0 L 96.3 115.0 L 96.3 68.97916669845581 L 92.8 73.5 L 87.5 79.2 L 81.9 84.5 L 80.74816055297852 83.59498329162598 L 80.1 87.7 L 76.5 103.8 L 72.0 118.7 L 66.4 132.4 L 60.0 145.0 L 52.5 156.3 L 44.1 166.5 L 34.7 175.3 L 24.4 182.7 L 13.2 188.7 L 12.3 187.2 L 22.2 179.7 L 31.1 171.3 L 39.1 162.2 L 46.2 152.0 L 52.5 140.9 L 57.9 128.8 L 62.4 115.6 L 66.1 101.3 L 68.9 85.8 L 70.48909091949463 72.0 L 46.02815532684326 72.0 L 44.7 75.8 L 40.7 85.5 L 36.3 94.7 L 33.472839546203616 99.61925926208497 L 34.0 99.8 L 37.4 101.0 L 40.7 102.5 L 43.7 104.4 L 46.5 106.5 L 49.1 109.0 L 51.5 111.7 L 53.6 114.7 L 55.5 117.9 L 57.0 121.4 L 56.5 125.9 L 52.9 128.8 L 48.4 128.3 L 45.5 124.7 L 45.0 121.9 L 44.3 119.2 L 43.3 116.6 L 42.2 114.1 L 40.8 111.6 L 39.2 109.2 L 37.3 106.9 L 35.1 104.5 L 32.7 102.2 L 32.19128580093384 101.84916267395019 L 31.3 103.4 L 25.9 111.4 L 19.9 118.8 L 13.5 125.5 L 12.1 124.4 L 16.9 116.6 L 21.4 108.6 L 25.5 100.2 L 29.4 91.5 L 32.8 82.4 L 35.9 72.8 L 38.6 62.8 L 40.9 52.4 L 42.8 41.5 L 43.85238094329834 33.0 L 12.8 33.0 L 12.8 29.0 L 68.5 29.0 L 78.5 19.0 L 90.5 29.0 L 90.5 33.0 L 55.97435894012451 33.0 L 54.0 43.5 L 51.4 54.8 L 48.3 65.5 L 47.426213550567624 68.0 L 70.8 68.0 L 76.8 63.0 L 87.55853662490844 71.8024390220642 L 88.4 70.4 L 92.1 63.8 L 95.6 57.1 L 98.8 50.2 L 101.8 43.2 L 104.5 36.1 L 106.9 28.7 L 109.1 21.1 L 110.77452249526978 14.313777256011964 L 110.7 14.3 L 111.4 11.7 L 122.6 16.5 L 125.0 19.2 L 121.33537549972534 20.247035598754884 L 119.9 24.5 L 117.0 32.3 L 113.8 39.8 L 110.2 47.1 L 109.69857139587403 48.0 L 166.7 48.0 L 176.7 38.0 L 188.7 48.0 L 188.7 52.0 L 144.2 52.0 L 144.2 73.0 L 168.0 73.0 L 174.0 68.0 L 185.0 77.0 L 180.0 81.0 L 180.0 108.0 L 168.0 114.0 L 168.0 106.0 L 144.2 106.0 L 144.2 125.0 L 172.5 125.0 L 178.5 120.0 L 189.5 129.0 L 184.56372547149658 131.96176471710206 L 184.6 134.9 L 184.7 142.4 L 184.5 149.2 L 184.2 155.4 L 183.6 160.9 L 182.9 165.8 L 182.0 170.1 L 180.8 173.9 L 179.2 177.2 L 177.0 180.2 L 175.2 181.8 Z M 164.4 151.0 L 164.4 155.0 L 92.1 155.0 L 92.1 151.0 L 142.4 151.0 L 152.4 141.0 Z M 108.3 77.0 L 108.3 102.0 L 132.2 102.0 L 132.2 77.0 Z M 144.2 77.0 L 144.2 102.0 L 168.0 102.0 L 168.0 77.0 Z M 82.8 75.0 L 82.05633802413941 75.30985918045045 L 80.8752212524414 82.79026546478272 L 84.5 76.9 L 87.2375 72.3375 Z M 107.46999998092652 52.0 L 106.3 54.1 L 102.2 60.9 L 97.6 67.3 L 97.40465116500854 67.55232553482055 L 108.3 73.0 L 132.2 73.0 L 132.2 52.0 Z " />
</g>
</svg>
