<svg xmlns="http://www.w3.org/2000/svg" xmlns:xlink="http://www.w3.org/1999/xlink" version="1.1" baseProfile="full" viewBox="0 0 200 200" width="200" height="200">
<g fill="black">
<path d="M 64.8 176.0 L 84.8 176.0 L 86.1 175.9 L 87.0 175.7 L 87.9 175.4 L 88.3 175.0 L 88.6 174.1 L 88.8 173.2 L 88.8 117.25 L 87.4 118.1 L 81.9 121.4 L 76.2 124.7 L 74.0759433746338 125.89245281219482 L 73.6 129.7 L 70.5 127.9 L 63.3 118.0 L 65.1 117.1 L 71.1 114.5 L 76.9 111.9 L 82.8 109.2 L 88.6 106.5 L 88.8 106.40877189636231 L 88.8 58.0 L 66.2 58.0 L 66.2 54.0 L 88.8 54.0 L 88.8 15.0 L 100.8 17.0 L 103.8 19.0 L 100.8 20.8 L 100.8 54.0 L 105.31818180084228 54.0 L 113.5 45.0 L 123.5 54.0 L 123.5 58.0 L 100.8 58.0 L 100.8 100.84137935638428 L 105.8 98.6 L 111.5 96.0 L 117.2 93.5 L 123.0 91.2 L 124.0 92.7 L 119.2 96.8 L 114.2 100.6 L 109.0 104.3 L 100.8 109.71509437561035 L 100.8 172.0 L 100.7 174.5 L 100.3 177.0 L 99.5 179.4 L 98.2 181.7 L 96.6 183.7 L 94.6 185.3 L 92.3 186.6 L 89.9 187.4 L 87.4 187.8 L 84.8 188.0 L 84.8 182.0 L 64.8 179.0 Z M 136.3 175.0 L 150.3 175.0 L 151.5 174.9 L 152.4 174.7 L 153.3 174.4 L 153.7 174.0 L 154.0 173.1 L 154.2 172.2 L 154.3 171.0 L 154.3 40.0 L 120.6 40.0 L 120.6 36.0 L 166.9 36.0 L 176.9 26.0 L 188.9 36.0 L 188.9 40.0 L 166.3 40.0 L 166.3 171.0 L 166.1 173.5 L 165.7 176.0 L 164.9 178.4 L 163.7 180.7 L 162.0 182.7 L 160.0 184.3 L 157.7 185.6 L 155.3 186.4 L 152.8 186.8 L 150.3 187.0 L 150.3 181.0 L 136.3 178.0 Z M 38.4 186.9 L 34.3 184.8 L 32.9 180.5 L 33.5 173.5 L 33.5 167.1 L 33.0 161.3 L 32.0 156.1 L 30.5 151.5 L 28.973366832733156 148.4467336654663 L 28.8 148.4 L 28.86610174179077 148.23220338821412 L 28.4 147.3 L 25.8 143.6 L 22.6 140.2 L 18.7 137.0 L 14.0 134.1 L 14.6 132.4 L 20.3 133.6 L 25.6 135.7 L 30.4 138.8 L 32.213289737701416 140.5690631866455 L 34.7 135.5 L 37.9 129.0 L 41.7 121.5 L 46.2 112.7 L 51.3 102.8 L 57.2 91.8 L 63.8 79.7 L 71.2 66.6 L 72.9 67.3 L 67.2 81.4 L 62.0 94.1 L 57.3 105.6 L 53.1 115.9 L 49.4 124.9 L 46.4 132.8 L 43.9 139.4 L 42.1 144.8 L 40.9 148.9 L 40.3 151.5 L 39.93542242050171 151.4017225265503 L 40.8 153.1 L 42.8 159.3 L 44.2 166.1 L 44.8 173.5 L 44.8 181.4 L 42.7 185.5 Z M 33.3 83.5 L 31.9 81.5 L 30.1 79.4 L 28.0 77.4 L 25.6 75.3 L 22.8 73.2 L 19.7 71.1 L 16.3 68.9 L 12.4 67.1 L 13.0 65.4 L 17.2 66.3 L 21.4 67.1 L 25.2 68.2 L 28.9 69.4 L 32.2 70.9 L 35.4 72.5 L 38.3 74.4 L 41.0 76.5 L 43.4 78.8 L 45.6 81.3 L 46.1 85.9 L 43.4 89.5 L 38.9 90.1 L 35.2 87.4 L 34.4 85.5 Z M 47.7 37.6 L 46.2 35.5 L 44.5 33.4 L 42.4 31.3 L 40.1 29.3 L 37.5 27.2 L 34.6 25.1 L 31.4 22.9 L 27.9 21.1 L 28.5 19.4 L 32.4 20.4 L 36.3 21.2 L 40.0 22.2 L 43.5 23.5 L 46.7 25.0 L 49.8 26.6 L 52.7 28.4 L 55.3 30.5 L 57.8 32.7 L 60.0 35.2 L 60.7 39.7 L 58.2 43.5 L 53.7 44.2 L 49.9 41.7 L 48.9 39.6 Z " />
</g>
</svg>
