<svg xmlns="http://www.w3.org/2000/svg" xmlns:xlink="http://www.w3.org/1999/xlink" version="1.1" baseProfile="full" viewBox="0 0 200 200" width="200" height="200">
<g fill="black">
<path d="M 93.0 26.0 L 167.0 26.0 L 173.0 21.0 L 184.0 30.0 L 179.0 34.0 L 179.0 80.0 L 167.0 86.0 L 167.0 74.0 L 93.0 74.0 L 93.0 86.0 L 92.3 99.1 L 91.1 111.7 L 89.2 123.6 L 86.7 135.0 L 83.5 145.6 L 79.7 155.7 L 75.2 165.0 L 70.1 173.7 L 64.2 181.5 L 57.6 188.5 L 56.3 187.4 L 61.1 179.4 L 65.4 171.0 L 69.3 162.3 L 72.6 153.0 L 75.4 143.3 L 77.6 132.9 L 79.3 122.1 L 80.4 110.6 L 81.0 98.6 L 81.0 20.0 Z M 42.0 186.9 L 37.9 184.8 L 36.4 180.5 L 37.0 173.5 L 36.9 167.2 L 36.3 161.4 L 35.1 156.3 L 33.3 151.6 L 31.0 147.5 L 28.0 143.7 L 24.3 140.2 L 19.9 137.0 L 14.7 134.1 L 15.1 132.4 L 21.4 133.5 L 27.2 135.6 L 32.3 138.7 L 34.863991355896 140.92212581634521 L 35.0 140.6 L 37.3 134.4 L 40.2 126.5 L 43.6 116.9 L 47.6 105.7 L 52.2 92.9 L 57.3 78.4 L 63.1 62.4 L 69.6 44.7 L 71.3 45.2 L 66.7 63.5 L 62.4 80.0 L 58.4 94.9 L 54.9 108.0 L 51.7 119.5 L 49.1 129.3 L 46.9 137.4 L 45.2 143.9 L 43.9 148.7 L 43.15796308517456 151.7609022140503 L 43.8 152.9 L 46.1 159.1 L 47.6 166.0 L 48.4 173.4 L 48.4 181.4 L 46.3 185.5 Z M 79.0 174.0 L 131.0 174.0 L 131.0 113.0 L 98.0 113.0 L 98.0 109.0 L 159.0 109.0 L 169.0 99.0 L 181.0 109.0 L 181.0 113.0 L 143.0 113.0 L 143.0 174.0 L 165.0 174.0 L 175.0 164.0 L 187.0 174.0 L 187.0 178.0 L 79.0 178.0 Z M 32.7 85.5 L 31.2 83.5 L 29.5 81.4 L 27.5 79.3 L 25.2 77.2 L 22.6 75.2 L 19.7 73.1 L 16.6 70.9 L 13.0 69.1 L 13.6 67.4 L 17.6 68.4 L 21.5 69.2 L 25.1 70.2 L 28.6 71.5 L 31.8 73.0 L 34.9 74.6 L 37.7 76.5 L 40.4 78.5 L 42.8 80.8 L 44.9 83.2 L 45.6 87.8 L 43.0 91.5 L 38.5 92.2 L 34.7 89.5 L 33.8 87.5 Z M 93.0 30.0 L 93.0 70.0 L 167.0 70.0 L 167.0 30.0 Z M 48.7 37.8 L 47.3 35.9 L 45.7 33.8 L 43.8 31.8 L 41.5 29.7 L 39.0 27.6 L 36.1 25.4 L 33.0 23.1 L 29.5 21.2 L 30.1 19.5 L 34.1 20.6 L 38.0 21.6 L 41.6 22.7 L 45.0 24.0 L 48.2 25.5 L 51.1 27.1 L 53.9 28.9 L 56.4 30.8 L 58.7 33.0 L 60.7 35.3 L 61.3 39.8 L 58.7 43.5 L 54.1 44.1 L 50.4 41.5 L 49.7 39.7 Z " />
</g>
</svg>
