<svg xmlns="http://www.w3.org/2000/svg" xmlns:xlink="http://www.w3.org/1999/xlink" version="1.1" baseProfile="full" viewBox="0 0 200 200" width="200" height="200">
<g fill="black">
<path d="M 69.8 180.5 L 119.0 180.5 L 119.0 162.7 L 87.7 162.7 L 87.7 158.7 L 119.0 158.7 L 119.0 141.0 L 72.5 141.0 L 72.5 137.0 L 119.0 137.0 L 119.0 120.7 L 94.6 120.7 L 94.6 116.7 L 119.0 116.7 L 119.0 98.1 L 131.0 100.1 L 134.0 102.1 L 131.0 103.9 L 131.0 116.7 L 133.3 116.7 L 143.3 106.7 L 155.3 116.7 L 155.3 120.7 L 131.0 120.7 L 131.0 137.0 L 159.21818180084227 137.0 L 167.4 128.0 L 177.4 137.0 L 177.4 141.0 L 119.6 141.0 L 131.0 142.9 L 134.0 144.9 L 131.0 146.7 L 131.0 158.7 L 144.01818180084229 158.7 L 152.2 149.7 L 162.2 158.7 L 162.2 162.7 L 131.0 162.7 L 131.0 180.5 L 158.2 180.5 L 168.2 170.5 L 180.2 180.5 L 180.2 184.5 L 69.8 184.5 Z M 166.2 125.6 L 161.1 121.6 L 156.3 117.4 L 151.7 112.9 L 147.3 108.2 L 143.2 103.4 L 139.5 98.2 L 136.0 92.8 L 133.45614032745362 87.8 L 120.33333330154419 87.8 L 118.8 90.3 L 113.4 97.4 L 107.4 104.2 L 100.6 110.6 L 93.0 116.8 L 84.8 122.5 L 75.8 127.8 L 66.1 132.7 L 65.2 131.1 L 73.7 124.6 L 81.6 118.2 L 88.8 111.7 L 95.3 105.2 L 101.0 98.6 L 106.0 91.8 L 108.49275360107421 87.8 L 68.4 87.8 L 68.4 83.8 L 110.86571426391602 83.8 L 113.9 77.9 L 116.7 70.8 L 118.9 63.5 L 118.90705089569092 63.50208463668823 L 119.4 61.9 L 130.4 66.9 L 132.7 69.7 L 128.97167234420778 70.6320818901062 L 127.3 75.0 L 123.4 82.8 L 122.78666667938232 83.8 L 159.5 83.8 L 169.5 73.8 L 181.5 83.8 L 181.5 87.8 L 136.557142829895 87.8 L 139.3 90.2 L 143.9 94.4 L 148.5 98.4 L 153.1 102.2 L 157.8 105.9 L 162.7 109.4 L 167.7 112.7 L 172.8 115.8 L 178.0 118.8 L 183.4 121.5 L 188.1 124.2 L 176.9 133.0 L 171.4 129.4 Z M 30.1 85.4 L 28.8 83.4 L 27.2 81.3 L 25.3 79.2 L 23.1 77.2 L 20.7 75.1 L 17.9 73.0 L 15.0 70.9 L 11.6 69.1 L 12.2 67.4 L 16.0 68.4 L 19.7 69.2 L 23.3 70.3 L 26.6 71.6 L 29.7 73.0 L 32.7 74.7 L 35.4 76.5 L 37.9 78.6 L 40.3 80.8 L 42.3 83.3 L 42.9 87.9 L 40.2 91.5 L 35.7 92.1 L 32.0 89.4 L 31.2 87.4 Z M 63.0 63.5 L 58.9 80.0 L 55.1 94.8 L 51.7 108.0 L 48.8 119.4 L 46.2 129.2 L 44.2 137.3 L 42.5 143.8 L 41.4 148.6 L 40.6 151.9 L 41.2 153.0 L 43.4 159.2 L 44.8 166.0 L 45.6 173.4 L 45.6 181.4 L 43.6 185.4 L 39.2 186.9 L 35.2 184.8 L 33.7 180.5 L 34.2 173.5 L 34.2 167.1 L 33.6 161.4 L 32.4 156.2 L 30.8 151.6 L 28.6 147.4 L 25.8 143.6 L 22.3 140.2 L 18.1 137.0 L 13.1 134.1 L 13.7 132.4 L 19.7 133.6 L 25.2 135.7 L 30.2 138.8 L 32.26977615356445 140.6772388458252 L 32.3 140.6 L 34.6 134.4 L 37.3 126.5 L 40.6 117.0 L 44.5 105.8 L 48.8 92.9 L 53.7 78.5 L 59.3 62.4 L 65.6 44.7 L 67.3 45.2 L 63.77022695541382 60.22205753326416 L 65.3 59.9 L 70.0 59.2 L 75.1 58.4 L 77.6 58.02264146804809 L 77.6 12.1 L 89.6 14.1 L 92.6 16.1 L 89.6 17.9 L 89.6 30.6 L 104.71818180084229 30.6 L 112.9 21.6 L 122.9 30.6 L 122.9 34.6 L 89.6 34.6 L 89.6 56.11666669845581 L 92.1 55.7 L 98.5 54.6 L 105.2 53.6 L 112.3 52.5 L 119.7 51.5 L 127.5 50.6 L 127.9 52.4 L 120.6 55.2 L 113.5 57.7 L 106.7 60.0 L 100.3 62.0 L 94.1 63.9 L 88.2 65.7 L 82.6 67.4 L 77.4 68.9 L 72.5 70.3 L 71.89956693649292 70.47885236740112 L 70.4 74.2 L 67.8 71.7 L 63.61874322891235 60.866743850708005 Z M 180.8 35.1 L 182.8 35.1 L 180.8 56.1 L 184.1 58.3 L 186.3 61.6 L 184.1 64.9 L 180.8 67.1 L 146.7 67.1 L 144.2 67.0 L 141.7 66.6 L 139.4 65.9 L 137.1 64.7 L 135.1 63.2 L 133.5 61.2 L 132.2 59.0 L 131.4 56.6 L 130.9 54.1 L 130.7 51.6 L 130.7 12.1 L 142.7 14.1 L 145.7 16.1 L 142.7 17.9 L 142.7 35.67142858505249 L 143.5 35.1 L 147.0 32.7 L 150.5 30.4 L 157.3 25.8 L 163.7 21.2 L 166.9 19.0 L 169.15361366271972 17.27222948074341 L 169.1 17.2 L 169.1620599746704 17.26575403213501 L 169.9 16.7 L 172.42256269454955 20.720334243774413 L 177.5 26.1 L 177.6 29.6 L 173.99230766296387 28.053846168518067 L 172.7 28.7 L 165.3 32.1 L 161.5 33.7 L 157.7 35.2 L 153.7 36.7 L 149.7 38.1 L 145.6 39.4 L 142.7 40.141860485076904 L 142.7 52.8 L 142.8 53.8 L 143.0 54.4 L 143.1 54.8 L 143.2 55.0 L 143.4 55.2 L 143.8 55.5 L 144.4 55.8 L 145.4 56.0 L 146.7 56.1 L 175.3 56.1 Z M 45.4 37.7 L 44.1 35.8 L 42.6 33.8 L 40.8 31.7 L 38.7 29.6 L 36.3 27.5 L 33.6 25.3 L 30.7 23.1 L 27.3 21.2 L 28.0 19.5 L 31.8 20.7 L 35.5 21.6 L 39.0 22.8 L 42.3 24.1 L 45.3 25.6 L 48.2 27.2 L 50.8 29.0 L 53.2 30.9 L 55.4 33.0 L 57.4 35.4 L 57.9 39.9 L 55.2 43.5 L 50.7 44.1 L 47.0 41.3 L 46.3 39.6 Z " />
</g>
</svg>
