<svg xmlns="http://www.w3.org/2000/svg" xmlns:xlink="http://www.w3.org/1999/xlink" version="1.1" baseProfile="full" viewBox="0 0 200 200" width="200" height="200">
<g fill="black">
<path d="M 171.0 183.7 L 166.9 178.7 L 163.7 172.6 L 161.2 165.4 L 159.3 157.0 L 157.9 147.3 L 157.0 136.4 L 156.6 124.3 L 156.69263229370117 111.79464111328124 L 156.6 111.8 L 156.7 108.5 L 168.7 111.1 L 171.6 113.2 L 168.67077732086182 114.89894914627075 L 168.6 124.1 L 169.0 135.8 L 169.8 146.0 L 171.1 154.8 L 172.7 162.1 L 174.7 168.0 L 176.9 172.2 L 177.86684074401856 173.37702350616456 L 182.8 152.0 L 184.8 152.0 L 182.88972606658936 176.83356161117553 L 183.5 177.0 L 187.4 179.3 L 188.8 183.7 L 186.5 187.7 L 182.1 189.0 L 176.1 187.3 Z M 102.6 175.4 L 107.8 173.7 L 116.5 171.02307691574097 L 116.5 109.0 L 128.5 111.0 L 131.5 113.0 L 128.5 114.8 L 128.5 167.39056606292723 L 128.8 167.3 L 139.6 164.3 L 145.1 162.9 L 150.7 161.6 L 156.4 160.6 L 157.0 162.3 L 152.0 165.2 L 147.0 167.9 L 141.9 170.5 L 136.9 172.9 L 131.8 175.3 L 116.8 182.2 L 111.8 184.4 L 110.66653671264649 184.90890188217162 L 109.8 188.7 L 106.9 186.6 L 100.7 176.1 Z M 62.6 174.5 L 74.0 171.34680852890014 L 74.0 109.8 L 86.0 111.8 L 89.0 113.8 L 86.0 115.6 L 86.0 168.01666669845582 L 86.4 167.9 L 91.3 166.6 L 101.3 164.2 L 106.5 163.1 L 111.7 162.2 L 112.3 163.9 L 107.8 166.7 L 103.2 169.2 L 98.5 171.6 L 93.9 173.8 L 84.7 178.0 L 80.1 180.0 L 75.6 182.0 L 71.0 184.0 L 70.37459287643432 184.26406078338624 L 69.4 188.0 L 66.5 185.9 L 60.7 175.2 Z M 35.8 186.9 L 31.8 184.9 L 30.2 180.5 L 30.8 173.5 L 30.9 167.0 L 30.5 161.2 L 29.6 156.0 L 28.2 151.3 L 27.02821054458618 148.6309239387512 L 26.5 148.5 L 26.722626399993896 147.93487138748168 L 26.4 147.2 L 24.2 143.5 L 21.4 140.1 L 18.0 137.0 L 13.9 134.1 L 14.5 132.4 L 19.8 133.6 L 24.6 135.8 L 29.0 139.0 L 30.00763463973999 140.06066799163818 L 31.9 135.7 L 34.9 129.2 L 38.3 121.6 L 42.4 112.9 L 47.1 103.0 L 52.5 91.9 L 58.5 79.8 L 65.3 66.6 L 67.0 67.3 L 62.0 81.3 L 57.4 94.0 L 53.2 105.5 L 49.4 115.8 L 46.2 124.8 L 43.5 132.6 L 41.3 139.2 L 39.7 144.6 L 38.6 148.7 L 38.2 151.4 L 37.556542015075685 151.2405104637146 L 38.5 153.2 L 40.3 159.4 L 41.6 166.1 L 42.2 173.5 L 42.2 181.4 L 40.1 185.4 Z M 140.8 149.4 L 139.8 147.4 L 138.7 145.3 L 136.5 141.3 L 132.6 135.3 L 130.9 133.7 L 132.0 132.2 L 134.1 133.5 L 136.4 134.4 L 138.7 135.6 L 140.9 136.9 L 143.0 138.3 L 145.1 139.9 L 147.1 141.6 L 149.1 143.4 L 151.0 145.4 L 152.8 147.4 L 153.5 151.9 L 150.8 155.7 L 146.3 156.4 L 142.6 153.7 L 141.7 151.6 Z M 99.8 149.4 L 98.8 147.4 L 97.8 145.3 L 96.7 143.3 L 95.5 141.3 L 94.2 139.3 L 93.0 137.3 L 91.7 135.3 L 90.0 133.7 L 91.0 132.2 L 93.1 133.5 L 95.5 134.4 L 97.7 135.6 L 99.9 136.9 L 102.1 138.3 L 104.1 139.9 L 106.1 141.6 L 108.1 143.4 L 110.0 145.4 L 111.8 147.4 L 112.5 151.9 L 109.9 155.7 L 105.4 156.4 L 101.6 153.7 L 100.7 151.6 Z M 142.2 127.7 L 141.4 126.1 L 140.5 124.5 L 139.4 122.8 L 138.2 121.0 L 136.8 119.2 L 135.3 117.3 L 133.8 115.3 L 131.8 113.8 L 132.7 112.2 L 135.0 113.4 L 137.5 114.3 L 139.9 115.2 L 142.1 116.3 L 144.2 117.4 L 146.2 118.5 L 148.2 119.8 L 150.0 121.1 L 151.7 122.6 L 153.3 124.1 L 154.2 128.5 L 151.7 132.4 L 147.2 133.2 L 143.4 130.8 L 142.8 129.3 Z M 100.5 127.7 L 99.7 126.1 L 98.8 124.4 L 97.8 122.7 L 96.7 121.0 L 95.4 119.1 L 94.1 117.3 L 92.6 115.3 L 90.7 113.8 L 91.7 112.3 L 93.9 113.5 L 96.3 114.3 L 100.7 116.3 L 102.7 117.4 L 104.7 118.6 L 108.3 121.2 L 110.0 122.6 L 111.6 124.1 L 112.4 128.5 L 110.0 132.4 L 105.5 133.2 L 101.6 130.8 L 101.1 129.2 Z M 73.9 105.2 L 73.9 64.2 L 85.9 70.2 L 157.0 70.2 L 163.0 65.2 L 174.0 74.2 L 169.0 78.2 L 169.0 99.2 L 157.0 105.2 L 157.0 99.2 L 85.9 99.2 Z M 85.9 74.2 L 85.9 95.2 L 101.4 95.2 L 101.4 74.2 Z M 113.4 74.2 L 113.4 95.2 L 129.5 95.2 L 129.5 74.2 Z M 141.5 74.2 L 141.5 95.2 L 157.0 95.2 L 157.0 74.2 Z M 30.7 83.2 L 29.5 81.3 L 28.0 79.2 L 26.1 77.2 L 24.0 75.2 L 21.6 73.1 L 18.9 71.0 L 15.9 68.9 L 12.4 67.1 L 13.0 65.4 L 16.9 66.4 L 20.6 67.2 L 24.2 68.3 L 27.5 69.6 L 30.6 71.0 L 33.5 72.7 L 36.2 74.6 L 38.7 76.7 L 40.9 79.0 L 42.9 81.5 L 43.2 86.1 L 40.4 89.6 L 35.8 90.0 L 32.3 87.1 L 31.6 85.2 Z M 83.4 59.2 L 81.1 59.0 L 78.9 58.6 L 76.8 57.7 L 74.9 56.4 L 73.1 54.7 L 71.8 52.7 L 70.8 50.5 L 70.1 48.1 L 69.7 45.6 L 69.7 24.6 L 81.7 30.6 L 116.0 30.6 L 116.0 12.0 L 128.0 14.0 L 131.0 16.0 L 128.0 17.8 L 128.0 30.6 L 155.7 30.6 L 165.7 20.6 L 177.7 30.6 L 177.7 34.6 L 81.7 34.6 L 81.7 45.6 L 81.5 46.8 L 81.4 47.8 L 81.4 48.6 L 81.5 49.2 L 81.6 49.7 L 81.8 50.2 L 82.3 50.7 L 83.1 51.3 L 84.2 51.7 L 85.7 52.1 L 170.9 52.1 L 173.0 53.5 L 174.4 55.6 L 173.0 57.7 L 170.9 59.1 L 85.7 59.1 Z M 43.7 37.3 L 42.4 35.3 L 40.9 33.2 L 39.1 31.2 L 37.1 29.1 L 34.8 27.1 L 32.3 25.0 L 29.5 22.9 L 26.3 21.1 L 27.0 19.5 L 30.6 20.5 L 34.1 21.3 L 37.5 22.4 L 40.7 23.6 L 43.7 25.1 L 46.5 26.8 L 49.1 28.6 L 51.6 30.7 L 53.9 32.9 L 55.9 35.4 L 56.4 39.9 L 53.7 43.5 L 49.2 44.1 L 45.5 41.4 L 44.7 39.3 Z " />
</g>
</svg>
