<svg xmlns="http://www.w3.org/2000/svg" xmlns:xlink="http://www.w3.org/1999/xlink" version="1.1" baseProfile="full" viewBox="0 0 200 200" width="200" height="200">
<g fill="black">
<path d="M 174.4 108.6 L 174.4 112.6 L 124.18888893127442 112.6 L 123.8 113.3 L 119.3 121.1 L 114.5 128.4 L 109.3 135.3 L 108.31891889572144 136.45945949554442 L 110.8 137.7 L 157.9 137.7 L 163.9 132.7 L 174.9 141.7 L 169.9 145.7 L 169.9 179.8 L 157.9 185.8 L 157.9 175.8 L 110.8 175.8 L 110.8 182.8 L 98.8 188.8 L 98.8 146.8 L 97.9 147.7 L 91.7 153.2 L 85.2 158.2 L 78.4 162.6 L 71.1 166.4 L 63.6 169.5 L 62.7 167.9 L 69.2 163.1 L 75.3 158.2 L 81.1 153.0 L 86.6 147.6 L 91.8 141.9 L 96.7 135.8 L 98.8 132.8133333206177 L 98.8 131.7 L 99.37919073104858 131.989595413208 L 101.2 129.4 L 105.4 122.6 L 109.4 115.5 L 110.70204086303711 112.6 L 82.6 112.6 L 82.6 108.6 L 152.4 108.6 L 162.4 98.6 Z M 37.3 186.9 L 33.2 184.8 L 31.7 180.5 L 32.3 173.5 L 32.4 167.1 L 31.9 161.3 L 30.9 156.1 L 29.5 151.4 L 28.086545372009276 148.50241804122925 L 27.7 148.4 L 27.856564044952393 148.03095626831055 L 27.5 147.3 L 25.0 143.5 L 21.9 140.1 L 18.2 137.0 L 13.7 134.1 L 14.2 132.4 L 19.8 133.6 L 25.0 135.8 L 29.6 138.9 L 31.202240180969238 140.46316118240355 L 33.5 135.5 L 36.6 129.1 L 40.3 121.5 L 44.7 112.8 L 49.7 102.9 L 55.4 91.9 L 61.8 79.8 L 69.1 66.6 L 70.7 67.3 L 65.3 81.4 L 60.3 94.1 L 55.7 105.6 L 51.6 115.9 L 48.1 124.9 L 45.2 132.7 L 42.8 139.3 L 41.0 144.7 L 39.9 148.8 L 39.4 151.5 L 38.84196138381958 151.35214366912842 L 39.7 153.1 L 41.7 159.3 L 43.1 166.1 L 43.7 173.5 L 43.7 181.4 L 41.6 185.5 Z M 110.8 141.7 L 110.8 171.8 L 157.9 171.8 L 157.9 141.7 Z M 64.3 109.9 L 63.2 105.5 L 65.5 101.5 L 68.0 99.9 L 70.3 98.1 L 72.3 96.1 L 74.1 93.9 L 75.7 91.5 L 77.0 88.7 L 78.1 85.7 L 79.0 82.3 L 79.7 78.5 L 79.8 74.4 L 81.6 74.2 L 82.6 78.3 L 83.32195119857788 82.0 L 170.5 82.0 L 171.23548383712767 81.38709678649903 L 171.3 81.0 L 171.53798627853394 81.13501148223877 L 176.5 77.0 L 187.5 86.0 L 182.5 89.0 L 176.2 91.625 L 176.1 91.7 L 174.4 92.9 L 172.6 94.1 L 170.7 95.3 L 168.6 96.6 L 166.3 97.8 L 164.3 99.5 L 163.1 98.2 L 164.8 96.3 L 166.0 94.1 L 167.1 92.0 L 169.0 88.2 L 169.7 86.5 L 169.8875 86.0 L 83.66999998092652 86.0 L 83.7 86.4 L 83.6 90.3 L 83.0 94.1 L 81.9 97.9 L 80.3 101.5 L 78.2 104.9 L 75.7 108.1 L 72.7 111.1 L 68.3 112.2 Z M 32.2 83.4 L 30.8 81.4 L 29.1 79.4 L 27.1 77.3 L 24.8 75.2 L 22.1 73.2 L 19.1 71.1 L 15.8 68.9 L 12.1 67.1 L 12.7 65.4 L 16.8 66.4 L 20.8 67.2 L 24.6 68.2 L 28.1 69.5 L 31.4 70.9 L 34.5 72.6 L 37.3 74.5 L 40.0 76.5 L 42.3 78.8 L 44.4 81.4 L 44.9 85.9 L 42.1 89.6 L 37.6 90.1 L 34.0 87.3 L 33.2 85.4 Z M 80.7 59.3 L 123.6 59.3 L 123.6 37.7 L 72.5 37.7 L 72.5 33.7 L 123.6 33.7 L 123.6 12.9 L 135.6 14.9 L 138.6 16.9 L 135.6 18.7 L 135.6 33.7 L 164.7 33.7 L 174.7 23.7 L 186.7 33.7 L 186.7 37.7 L 135.6 37.7 L 135.6 59.3 L 160.4181818008423 59.3 L 168.6 50.3 L 178.6 59.3 L 178.6 63.3 L 80.7 63.3 Z M 46.1 37.5 L 44.7 35.4 L 43.0 33.4 L 41.1 31.3 L 38.8 29.2 L 36.3 27.1 L 33.5 25.1 L 30.5 22.9 L 27.1 21.1 L 27.7 19.4 L 31.5 20.4 L 35.3 21.2 L 38.9 22.3 L 42.3 23.5 L 45.5 25.0 L 48.5 26.7 L 51.2 28.5 L 53.8 30.5 L 56.2 32.8 L 58.4 35.2 L 59.1 39.8 L 56.5 43.5 L 51.9 44.2 L 48.2 41.6 L 47.3 39.5 Z " />
</g>
</svg>
