<svg xmlns="http://www.w3.org/2000/svg" xmlns:xlink="http://www.w3.org/1999/xlink" version="1.1" baseProfile="full" viewBox="0 0 200 200" width="200" height="200">
<g fill="black">
<path d="M 93.0 174.7 L 114.2 174.7 L 115.1 174.5 L 115.7 174.3 L 116.0 174.1 L 116.2 174.0 L 116.4 173.8 L 116.7 172.9 L 116.9 172.0 L 117.0 170.7 L 117.0 129.2 L 73.3 129.2 L 73.3 125.2 L 149.9 125.2 L 159.9 115.2 L 171.9 125.2 L 171.9 129.2 L 129.0 129.2 L 129.0 170.7 L 128.8 173.3 L 128.4 175.8 L 127.6 178.2 L 126.3 180.5 L 124.7 182.5 L 122.7 184.1 L 120.4 185.4 L 118.0 186.2 L 115.5 186.6 L 113.0 186.7 L 113.0 180.7 L 93.0 177.7 Z M 104.3 141.6 L 106.3 144.6 L 102.45456085205078 145.1304054260254 L 102.0 146.0 L 99.5 150.3 L 96.7 154.6 L 93.6 158.8 L 90.3 163.0 L 86.8 167.1 L 83.0 171.1 L 78.8 175.0 L 74.4 178.8 L 69.6 182.4 L 68.3 181.1 L 71.6 176.2 L 74.8 171.5 L 77.9 166.9 L 80.7 162.5 L 83.4 158.1 L 85.8 153.7 L 88.0 149.5 L 90.0 145.2 L 91.8 141.0 L 92.96304349899292 137.8210144996643 L 92.9 137.8 L 93.8 135.6 Z M 164.8 110.4 L 159.2 104.3 L 154.1 97.8 L 149.5 91.0 L 145.3 83.8 L 142.3720000267029 77.7 L 106.48378381729125 77.7 L 105.1 80.1 L 97.9 90.4 L 89.9 99.8 L 81.0 108.2 L 71.3 115.6 L 60.8 121.9 L 59.8 120.4 L 69.0 112.6 L 77.3 104.3 L 84.9 95.5 L 91.8 86.0 L 96.68235292434693 77.7 L 63.84265737533569 77.7 L 60.7 88.4 L 56.7 101.3 L 53.2 112.8 L 50.1 122.9 L 47.5 131.5 L 45.3 138.7 L 43.7 144.5 L 42.4 148.9 L 41.71634244918823 151.8299611091614 L 42.3 152.9 L 44.6 159.1 L 46.1 166.0 L 46.9 173.4 L 46.9 181.4 L 44.8 185.5 L 40.5 186.9 L 36.4 184.8 L 34.9 180.5 L 35.5 173.5 L 35.4 167.2 L 34.8 161.4 L 33.6 156.3 L 31.9 151.6 L 29.6 147.4 L 26.6 143.7 L 23.0 140.2 L 18.7 137.0 L 13.5 134.1 L 14.0 132.4 L 20.2 133.5 L 25.9 135.7 L 31.0 138.7 L 33.5241379737854 140.943678188324 L 35.9 135.4 L 38.7 128.4 L 42.1 120.0 L 46.1 110.3 L 50.5 99.2 L 55.6 86.7 L 61.3 72.8 L 67.8 57.6 L 69.4 58.3 L 65.01392402648926 73.7 L 98.85 73.7 L 103.2 65.0 L 107.7 53.4 L 107.97804880142212 52.5 L 84.8 52.5 L 84.8 48.5 L 109.21382112503052 48.5 L 111.5 41.1 L 114.6 28.0 L 116.749382686615 15.103703689575195 L 116.7 15.1 L 117.2 12.2 L 128.7 16.0 L 131.4 18.4 L 127.90920505523681 19.822175693511962 L 125.7 30.5 L 121.8 44.1 L 120.19689922332763 48.5 L 139.1 48.5 L 149.1 38.5 L 161.1 48.5 L 161.1 52.5 L 137.00909090042114 52.5 L 140.2 58.8 L 144.1 66.1 L 148.1 73.0 L 148.5738461494446 73.7 L 162.9 73.7 L 172.9 63.7 L 184.9 73.7 L 184.9 77.7 L 151.2815384864807 77.7 L 152.5 79.5 L 157.1 85.6 L 162.0 91.4 L 167.3 96.7 L 172.9 101.7 L 178.8 106.4 L 185.1 110.7 L 188.5 113.1 L 177.5 121.5 L 170.9 116.1 Z M 158.8 167.2 L 157.0 163.5 L 155.0 159.8 L 152.9 156.3 L 150.4 152.9 L 147.8 149.5 L 144.9 146.2 L 141.8 142.8 L 138.4 139.6 L 139.4 138.1 L 143.8 140.1 L 148.0 142.3 L 152.0 144.9 L 155.7 147.8 L 159.2 151.0 L 162.4 154.5 L 165.4 158.2 L 168.1 162.1 L 170.6 166.3 L 172.8 170.7 L 172.7 175.3 L 169.4 178.5 L 164.8 178.3 L 161.6 175.1 L 160.3 171.1 Z M 149.6 101.0 L 149.6 105.0 L 95.6 105.0 L 95.6 101.0 L 127.6 101.0 L 137.6 91.0 Z M 31.2 85.5 L 29.8 83.4 L 28.1 81.4 L 26.2 79.3 L 23.9 77.2 L 21.3 75.2 L 18.5 73.1 L 15.4 70.9 L 11.9 69.1 L 12.5 67.4 L 16.4 68.4 L 20.3 69.2 L 23.9 70.3 L 27.3 71.5 L 30.5 73.0 L 33.5 74.6 L 36.4 76.5 L 39.0 78.5 L 41.3 80.8 L 43.5 83.3 L 44.1 87.8 L 41.5 91.5 L 37.0 92.2 L 33.2 89.5 L 32.4 87.5 Z M 118.73953485488892 52.5 L 117.1 57.0 L 111.5 69.0 L 108.79009008407593 73.7 L 140.7 73.7 L 138.7 68.5 L 136.3 60.2 L 134.76000003814698 52.5 Z M 106.1 22.9 L 107.8 26.1 L 103.9293683052063 26.233470058441164 L 103.3 27.2 L 100.3 31.3 L 97.1 35.2 L 93.7 39.0 L 90.2 42.6 L 86.5 46.0 L 82.5 49.2 L 78.4 52.2 L 74.1 54.8 L 69.5 57.2 L 68.4 55.8 L 71.7 52.0 L 74.9 48.2 L 78.0 44.5 L 81.0 40.8 L 83.8 37.0 L 86.5 33.2 L 89.0 29.3 L 91.4 25.3 L 93.6 21.3 L 95.1589285850525 18.026249980926515 L 95.1 18.0 L 95.50243902206421 17.30487804412842 L 95.6 17.1 L 95.61595134735107 17.10881128311157 L 96.2 16.1 Z M 163.0 43.4 L 161.3 40.1 L 159.4 36.8 L 157.3 33.6 L 155.0 30.5 L 152.6 27.5 L 150.0 24.4 L 147.2 21.3 L 144.2 18.4 L 145.2 16.9 L 149.1 18.8 L 152.9 20.7 L 156.6 23.0 L 160.0 25.5 L 163.3 28.3 L 166.4 31.3 L 169.2 34.5 L 171.9 37.8 L 174.5 41.4 L 176.8 45.2 L 176.9 49.7 L 173.9 53.2 L 169.4 53.3 L 165.9 50.3 L 164.5 46.8 Z M 47.0 37.8 L 45.7 35.8 L 44.1 33.8 L 42.2 31.8 L 40.0 29.7 L 37.5 27.5 L 34.7 25.4 L 31.6 23.1 L 28.1 21.2 L 28.8 19.5 L 32.7 20.6 L 36.6 21.6 L 40.1 22.7 L 43.5 24.1 L 46.6 25.5 L 49.6 27.1 L 52.3 28.9 L 54.8 30.9 L 57.0 33.0 L 59.0 35.3 L 59.6 39.8 L 57.0 43.5 L 52.4 44.1 L 48.7 41.4 L 48.0 39.7 Z " />
</g>
</svg>
