<svg xmlns="http://www.w3.org/2000/svg" xmlns:xlink="http://www.w3.org/1999/xlink" version="1.1" baseProfile="full" viewBox="0 0 200 200" width="200" height="200">
<g fill="black">
<path d="M 120.3 176.5 L 141.5 176.5 L 142.4 176.3 L 143.0 176.1 L 143.3 175.9 L 143.5 175.8 L 143.7 175.6 L 144.0 174.7 L 144.2 173.8 L 144.3 172.5 L 144.3 143.7 L 66.3 143.7 L 66.3 139.7 L 144.3 139.7 L 144.3 121.4 L 156.3 123.4 L 159.3 125.4 L 156.3 127.2 L 156.3 139.7 L 161.8 139.7 L 171.8 129.7 L 183.8 139.7 L 183.8 143.7 L 156.3 143.7 L 156.3 172.5 L 156.1 175.1 L 155.7 177.6 L 154.9 180.0 L 153.7 182.2 L 152.0 184.3 L 150.0 185.9 L 147.7 187.1 L 145.3 187.9 L 142.8 188.4 L 140.3 188.5 L 140.3 182.5 L 120.3 179.5 Z M 164.6 69.9 L 158.6 65.2 L 152.8 60.0 L 147.2 54.3 L 141.9 48.2 L 136.8 41.7 L 132.1 34.7 L 127.7 27.2 L 127.32040815353393 26.41161699295044 L 126.5 27.8 L 120.9 36.0 L 115.0 43.8 L 108.8 51.1 L 102.2 57.8 L 95.2 64.0 L 88.0 69.6 L 80.3 74.7 L 72.4 79.1 L 64.0 82.8 L 63.62477474212646 82.04954957962036 L 59.2 94.1 L 54.8 105.6 L 50.9 115.8 L 47.5 124.8 L 44.7 132.7 L 42.4 139.3 L 40.8 144.7 L 39.7 148.7 L 39.2 151.4 L 38.57597255706787 151.24532651901245 L 39.5 153.2 L 41.4 159.3 L 42.7 166.1 L 43.3 173.5 L 43.4 181.4 L 41.3 185.5 L 36.9 186.9 L 32.9 184.8 L 31.4 180.5 L 32.0 173.5 L 32.0 167.0 L 31.6 161.2 L 30.6 156.0 L 29.2 151.4 L 28.011475372314454 148.626775932312 L 27.5 148.5 L 27.718947410583496 147.9442105293274 L 27.4 147.2 L 25.0 143.5 L 22.1 140.1 L 18.5 137.0 L 14.2 134.1 L 14.8 132.4 L 20.2 133.6 L 25.3 135.8 L 29.7 138.9 L 31.001288414001465 140.23465480804444 L 33.1 135.6 L 36.1 129.1 L 39.7 121.6 L 43.9 112.8 L 48.7 102.9 L 54.2 91.9 L 60.5 79.8 L 67.5 66.6 L 69.1 67.3 L 64.21993322372437 80.43864145278931 L 70.3 75.9 L 77.2 70.3 L 83.8 64.6 L 90.1 58.4 L 96.0 51.9 L 101.7 45.1 L 107.0 37.8 L 112.0 30.1 L 116.7 22.0 L 120.63249530792237 14.313759231567383 L 120.6 14.3 L 121.6 12.4 L 131.7 19.0 L 133.4 22.2 L 129.6958770751953 22.391592597961427 L 129.42130680084227 22.85625 L 131.1 24.8 L 136.8 31.1 L 142.4 37.0 L 148.0 42.5 L 153.7 47.6 L 159.4 52.2 L 165.2 56.3 L 171.2 60.1 L 177.2 63.4 L 183.3 66.2 L 188.8 68.9 L 177.5 78.1 L 170.9 74.2 Z M 104.2 169.7 L 103.4 167.2 L 102.5 164.7 L 101.5 162.3 L 100.4 159.9 L 99.2 157.6 L 98.0 155.2 L 96.7 152.9 L 95.0 150.9 L 96.1 149.6 L 98.4 151.1 L 100.9 152.5 L 103.3 154.1 L 105.5 156.0 L 107.7 158.0 L 109.7 160.2 L 111.6 162.6 L 113.5 165.2 L 115.2 167.9 L 116.8 170.8 L 116.7 175.3 L 113.4 178.5 L 108.8 178.3 L 105.6 175.1 L 105.0 172.4 Z M 98.8 85.2 L 152.1 85.2 L 158.1 80.2 L 169.1 89.2 L 164.1 93.2 L 164.1 115.8 L 152.1 121.8 L 152.1 115.8 L 98.8 115.8 L 98.8 122.8 L 86.8 128.8 L 86.8 79.2 Z M 98.8 89.2 L 98.8 111.8 L 152.1 111.8 L 152.1 89.2 Z M 31.8 83.3 L 30.5 81.3 L 28.9 79.3 L 27.0 77.3 L 24.8 75.2 L 22.3 73.1 L 19.4 71.1 L 16.3 68.9 L 12.7 67.1 L 13.3 65.4 L 17.3 66.4 L 21.2 67.2 L 24.8 68.3 L 28.2 69.5 L 31.4 71.0 L 34.4 72.6 L 37.2 74.5 L 39.7 76.6 L 42.0 78.9 L 44.0 81.5 L 44.5 86.0 L 41.6 89.6 L 37.1 90.0 L 33.5 87.2 L 32.8 85.3 Z M 148.4 62.7 L 148.4 66.7 L 100.4 66.7 L 100.4 62.7 L 130.21818180084227 62.7 L 138.4 53.7 Z M 45.2 37.4 L 43.9 35.3 L 42.3 33.3 L 40.5 31.2 L 38.3 29.2 L 36.0 27.1 L 33.3 25.0 L 30.4 22.9 L 27.1 21.1 L 27.8 19.5 L 31.5 20.4 L 35.1 21.3 L 38.6 22.3 L 41.9 23.6 L 44.9 25.1 L 47.8 26.7 L 50.6 28.6 L 53.1 30.6 L 55.4 32.8 L 57.5 35.3 L 58.1 39.8 L 55.4 43.5 L 50.9 44.1 L 47.2 41.5 L 46.3 39.4 Z " />
</g>
</svg>
