<svg xmlns="http://www.w3.org/2000/svg" xmlns:xlink="http://www.w3.org/1999/xlink" version="1.1" baseProfile="full" viewBox="0 0 200 200" width="200" height="200">
<g fill="black">
<path d="M 63.5 79.6 L 66.5 81.6 L 63.5 83.4 L 63.5 107.8 L 70.1 107.8 L 80.1 97.8 L 92.1 107.8 L 92.1 111.8 L 63.5 111.8 L 63.5 142.9 L 81.7 142.9 L 91.7 132.9 L 103.7 142.9 L 103.7 146.9 L 63.5 146.9 L 63.5 182.2 L 51.5 188.2 L 51.5 146.9 L 12.3 146.9 L 12.3 142.9 L 51.5 142.9 L 51.5 111.8 L 31.2 111.8 L 29.1 117.1 L 26.8 122.3 L 24.1 127.2 L 21.2 131.8 L 17.8 136.2 L 16.2 135.3 L 19.2 125.1 L 20.6 119.9 L 21.9 114.8 L 23.0 109.5 L 24.0 104.1 L 24.8 98.7 L 25.4 93.1 L 25.9 87.4 L 26.14827585220337 82.6 L 26.1 82.6 L 26.4 79.5 L 38.1 82.6 L 41.0 84.9 L 37.51818475723267 86.60806026458741 L 37.2 88.8 L 36.0 94.8 L 34.7 100.6 L 33.0 106.3 L 32.50909090042114 107.8 L 51.5 107.8 L 51.5 77.6 Z M 122.0 121.0 L 164.0 121.0 L 170.0 116.0 L 181.0 125.0 L 176.0 129.0 L 176.0 177.0 L 164.0 183.0 L 164.0 173.0 L 122.0 173.0 L 122.0 180.0 L 110.0 186.0 L 110.0 115.0 Z M 122.0 125.0 L 122.0 169.0 L 164.0 169.0 L 164.0 125.0 Z M 172.2 89.0 L 172.2 93.0 L 113.7 93.0 L 113.7 89.0 L 150.2 89.0 L 160.2 79.0 Z M 169.1 77.2 L 164.8 71.7 L 160.8 65.8 L 156.9 59.5 L 153.4 52.8 L 150.1 45.8 L 147.1 38.4 L 144.92851238250734 31.538099193572997 L 143.3 35.4 L 139.4 43.5 L 135.0 51.4 L 130.2 59.1 L 125.0 66.6 L 119.3 73.8 L 113.2 80.7 L 106.5 87.3 L 99.3 93.6 L 98.1 92.3 L 103.7 84.8 L 109.0 77.3 L 114.0 69.9 L 118.7 62.4 L 122.9 54.8 L 126.8 47.1 L 130.3 39.3 L 133.4 31.4 L 136.1 23.3 L 138.11517305374144 16.20308609008789 L 138.1 16.2 L 138.3079999923706 15.523999977111817 L 138.4 15.2 L 138.40705089569093 15.202084636688232 L 138.9 13.6 L 149.9 18.6 L 152.2 21.4 L 148.54563102722167 22.31359224319458 L 147.00638732910156 26.53409938812256 L 148.4 28.9 L 152.5 35.8 L 156.5 42.4 L 160.6 48.6 L 164.8 54.4 L 169.0 59.7 L 173.3 64.6 L 177.8 69.1 L 182.3 73.2 L 186.9 76.9 L 189.3 78.9 L 178.5 87.0 L 173.7 82.3 Z M 83.9 62.7 L 82.3 58.2 L 82.01779880523682 57.5258526802063 L 79.7 58.5 L 72.9 61.0 L 66.1 63.2 L 59.5 65.2 L 52.9 67.0 L 46.4 68.6 L 39.9 70.1 L 33.6 71.4 L 27.4 72.5 L 25.389423656463624 72.82960271835327 L 23.6 76.3 L 21.3 73.5 L 18.0 61.8 L 20.0 61.6 L 26.0 61.2 L 32.1 60.7 L 37.15013408660889 60.29919567108154 L 37.5 58.2 L 38.5 53.4 L 40.5 44.0 L 41.6 39.3 L 42.6 34.5 L 45.3 20.4 L 45.92908010482788 16.704154300689698 L 45.9 16.7 L 46.04482755661011 16.0241379737854 L 46.1 15.7 L 46.11361255645752 15.703141403198241 L 46.5 13.9 L 57.8 18.4 L 60.3 21.0 L 56.61761789321899 22.18362283706665 L 56.3 23.2 L 54.8 27.9 L 53.2 32.5 L 51.4 37.2 L 49.6 41.8 L 47.7 46.3 L 45.6 50.8 L 43.4 55.2 L 41.0 59.5 L 40.715384578704835 59.942735004425046 L 44.7 59.5 L 51.2 58.6 L 57.9 57.8 L 64.7 56.8 L 71.6 55.8 L 78.8 54.8 L 80.7748257637024 54.55652828216553 L 80.5 53.9 L 78.6 49.7 L 76.6 45.6 L 74.5 41.7 L 72.4 37.9 L 68.0 30.3 L 69.3 29.1 L 72.9 31.7 L 76.4 34.6 L 79.7 37.9 L 82.8 41.5 L 85.8 45.4 L 88.6 49.5 L 91.2 53.8 L 93.7 58.4 L 96.1 63.2 L 98.3 68.2 L 98.0 72.8 L 94.7 75.9 L 90.1 75.6 L 87.0 72.2 L 85.5 67.4 Z " />
</g>
</svg>
