<svg xmlns="http://www.w3.org/2000/svg" xmlns:xlink="http://www.w3.org/1999/xlink" version="1.1" baseProfile="full" viewBox="0 0 200 200" width="200" height="200">
<g fill="black">
<path d="M 106.0 79.1 L 109.0 81.1 L 106.0 82.9 L 106.0 103.4 L 148.0 103.4 L 158.0 93.4 L 170.0 103.4 L 170.0 107.4 L 106.0 107.4 L 106.0 137.1 L 160.0 137.1 L 170.0 127.1 L 182.0 137.1 L 182.0 141.1 L 106.0 141.1 L 106.0 181.8 L 94.0 187.8 L 94.0 141.1 L 18.0 141.1 L 18.0 137.1 L 94.0 137.1 L 94.0 107.4 L 52.50909090042114 107.4 L 49.6 110.6 L 45.2 114.9 L 40.4 119.1 L 35.2 123.3 L 29.6 127.2 L 23.5 130.9 L 22.4 129.5 L 27.1 124.3 L 31.6 119.3 L 35.8 114.5 L 39.6 109.8 L 43.1 105.1 L 46.2 100.6 L 49.0 96.1 L 51.4 91.7 L 53.4 87.3 L 54.62492322921753 84.00801877975464 L 54.6 84.0 L 54.753846168518066 83.6615385055542 L 55.0 83.0 L 55.04574174880982 83.0193681716919 L 55.6 81.8 L 66.1 87.7 L 68.1 90.7 L 64.18229818344116 91.24037265777588 L 63.5 92.5 L 60.6 97.1 L 57.3 101.7 L 55.90222225189209 103.4 L 94.0 103.4 L 94.0 77.1 Z M 142.6 74.2 L 140.7 75.5 L 138.7 76.8 L 136.5 77.8 L 134.3 78.6 L 132.1 79.3 L 129.7 79.8 L 127.4 80.0 L 125.0 80.1 L 125.0 74.1 L 105.0 71.1 L 105.0 68.1 L 126.5 68.1 L 127.9 67.9 L 130.5 67.3 L 131.8 66.8 L 132.9 66.2 L 134.1 65.5 L 135.2 64.7 L 136.3 63.8 L 137.4 62.7 L 139.3 60.4 L 141.1 57.8 L 142.7 54.8 L 144.1 51.4 L 145.4 47.7 L 146.5 43.6 L 147.4 39.1 L 148.1 34.2 L 148.7 29.0 L 148.88214282989503 25.6 L 91.58865976333618 25.6 L 88.1 35.0 L 83.6 44.2 L 78.3 52.6 L 72.3 60.2 L 65.4 67.2 L 57.9 73.4 L 49.5 78.8 L 40.5 83.4 L 30.7 87.2 L 20.2 90.0 L 19.7 88.3 L 29.2 83.7 L 38.0 78.7 L 45.9 73.3 L 53.1 67.5 L 59.5 61.2 L 65.1 54.4 L 69.9 47.1 L 74.1 39.3 L 77.5 30.9 L 79.02465753555298 25.6 L 39.0 25.6 L 39.0 21.6 L 149.0 21.6 L 155.0 16.6 L 166.0 25.6 L 161.0 28.6 L 160.6569037437439 28.742956733703615 L 160.6 29.9 L 160.1 35.7 L 159.3 41.2 L 158.2 46.3 L 156.9 51.2 L 155.3 55.8 L 153.5 60.0 L 151.3 64.0 L 148.9 67.6 L 146.2 70.9 L 144.4 72.6 Z " />
</g>
</svg>
