<svg xmlns="http://www.w3.org/2000/svg" xmlns:xlink="http://www.w3.org/1999/xlink" version="1.1" baseProfile="full" viewBox="0 0 200 200" width="200" height="200">
<g fill="black">
<path d="M 110.2 17.5 L 112.6 20.2 L 109.02673263549805 21.220933532714845 L 106.7 28.6 L 103.0 39.5 L 99.2 50.2 L 95.2 60.6 L 91.0 70.7 L 89.91034479141236 73.15172414779663 L 95.0 74.0 L 98.0 76.0 L 95.0 77.8 L 95.0 183.0 L 83.0 189.0 L 83.0 88.0297872543335 L 81.9 90.3 L 77.1 99.6 L 71.9 108.7 L 66.4 117.4 L 64.8 116.5 L 68.5 107.0 L 72.2 97.4 L 75.9 87.6 L 79.5 77.7 L 83.0 67.7 L 86.4 57.4 L 89.7 46.9 L 92.8 36.3 L 95.8 25.4 L 98.43693943023682 15.30688705444336 L 98.4 15.3 L 99.1 12.7 Z M 63.2 153.3 L 61.9 149.9 L 60.4 146.3 L 58.6 142.7 L 56.5 138.9 L 54.1 135.0 L 51.5 130.9 L 48.94390239715576 127.06585369110107 L 48.3 130.5 L 45.5 140.8 L 42.0 150.4 L 37.8 159.2 L 32.8 167.2 L 27.1 174.4 L 20.7 180.5 L 13.5 185.6 L 12.4 184.3 L 18.0 177.9 L 22.9 171.1 L 27.2 163.8 L 30.9 155.9 L 34.0 147.5 L 36.5 138.4 L 38.4 128.6 L 39.7 118.1 L 40.4 106.9 L 40.4 17.0 L 52.4 19.0 L 55.4 21.0 L 52.4 22.8 L 52.4 72.81428575515747 L 54.4 70.1 L 57.1 66.4 L 59.7 62.9 L 62.1 59.6 L 64.4 56.4 L 66.6 53.4 L 68.5 50.6 L 69.79061784744263 48.66407318115235 L 69.7 48.6 L 70.18888893127442 48.06666669845581 L 70.3 47.9 L 70.32368822097779 47.919612884521484 L 70.8 47.4 L 79.6 55.6 L 80.6 59.0 L 76.60130643844604 58.37951307296753 L 74.5 60.4 L 71.8 62.9 L 68.8 65.6 L 65.7 68.4 L 62.4 71.3 L 58.9 74.2 L 55.2 77.3 L 52.4 79.46999998092652 L 52.4 95.0 L 51.7 107.5 L 50.4 119.3 L 49.68106737136841 123.13430747985839 L 51.2 124.3 L 55.3 127.7 L 59.0 131.1 L 62.3 134.6 L 65.4 138.1 L 68.2 141.7 L 70.7 145.3 L 72.8 149.0 L 74.7 152.7 L 76.3 156.4 L 75.8 160.9 L 72.3 163.8 L 67.7 163.3 L 64.8 159.8 L 64.1 156.6 Z M 106.0 169.0 L 138.5 169.0 L 138.5 101.0 L 101.5 101.0 L 101.5 97.0 L 138.5 97.0 L 138.5 46.019999980926514 L 136.4 46.8 L 129.2 49.1 L 121.8 51.1 L 114.1 52.7 L 106.3 53.8 L 105.8 52.1 L 113.1 49.0 L 120.1 46.0 L 126.9 42.9 L 133.5 39.8 L 138.5 37.18095235824585 L 138.5 37.0 L 138.84545450210572 37.0 L 139.8 36.5 L 145.9 33.1 L 151.7 29.5 L 157.2 25.8 L 162.6 21.9 L 166.82918539047242 18.432067966461183 L 166.8 18.4 L 167.16521739959717 18.156521701812743 L 167.6 17.8 L 167.63387470245362 17.844083499908447 L 167.7 17.8 L 174.9 27.3 L 175.1 30.9 L 171.54520177841187 29.517578506469725 L 169.0 31.2 L 163.0 34.8 L 156.7 38.2 L 150.5 41.112121200561525 L 150.5 97.0 L 165.6 97.0 L 175.6 87.0 L 187.6 97.0 L 187.6 101.0 L 150.5 101.0 L 150.5 169.0 L 161.1 169.0 L 171.1 159.0 L 183.1 169.0 L 183.1 173.0 L 106.0 173.0 Z M 16.4 108.5 L 13.8 104.8 L 14.4 100.3 L 16.3 97.5 L 18.0 94.3 L 19.4 90.8 L 20.7 86.8 L 21.7 82.4 L 22.5 77.5 L 23.1 72.3 L 23.5 66.6 L 23.8 60.6 L 23.9 54.1 L 25.7 53.8 L 27.5 60.2 L 28.8 66.3 L 29.7 72.2 L 30.1 77.9 L 30.1 83.3 L 29.8 88.4 L 29.1 93.3 L 28.0 98.0 L 26.6 102.4 L 24.7 106.5 L 20.9 109.2 Z " />
</g>
</svg>
