<svg xmlns="http://www.w3.org/2000/svg" xmlns:xlink="http://www.w3.org/1999/xlink" version="1.1" baseProfile="full" viewBox="0 0 200 200" width="200" height="200">
<g fill="black">
<path d="M 141.0 166.3 L 140.6 165.3 L 140.0 164.1 L 139.1 162.9 L 138.1 161.6 L 136.8 160.3 L 135.3 158.9 L 133.7 157.4 L 133.67803344726562 157.38953971862793 L 132.4 158.2 L 128.1 160.6 L 123.6 162.7 L 118.8 164.6 L 113.8 166.1 L 108.6 167.3 L 107.9 165.7 L 112.3 162.9 L 116.5 160.0 L 120.4 157.2 L 124.1 154.4 L 127.6 151.5 L 130.8 148.5 L 133.7 145.4 L 135.0892617225647 143.8049217224121 L 127.9 147.1 L 120.3 150.0 L 112.3 152.4 L 103.8 154.1 L 103.3 152.4 L 111.0 148.8 L 118.2 145.1 L 124.9 141.2 L 131.2 137.2 L 136.63236541748046 133.26621809005738 L 133.9 132.0 L 133.7 131.0 L 133.3 130.0 L 132.7 129.0 L 132.0 127.9 L 131.1 126.7 L 130.1 125.5 L 128.9 124.2 L 127.6 122.9 L 126.96177473068238 122.3043231010437 L 123.8 124.5 L 120.0 126.7 L 116.0 128.7 L 111.7 130.4 L 107.3 132.0 L 106.5 130.4 L 110.1 127.6 L 113.4 124.7 L 116.5 121.8 L 119.4 119.0 L 122.0 116.1 L 124.3 113.2 L 126.4 110.3 L 128.3 107.3 L 129.9 104.3 L 130.86623182296753 102.22950325012206 L 130.8 102.2 L 131.8 100.3 L 141.8 107.1 L 143.128125 109.6 L 157.8 109.6 L 158.28322143554686 109.19731540679932 L 158.8 108.4 L 159.04826812744142 108.55977649688721 L 163.8 104.6 L 174.8 113.6 L 169.8 116.6 L 166.52101907730102 117.96624202728272 L 164.4 120.7 L 159.4 126.2 L 154.0 131.2 L 148.1 135.8 L 144.78125 138.0125 L 150.6 143.0 L 151.5454545021057 145.4 L 167.2 145.4 L 167.47209300994874 145.17325582504273 L 168.1 144.2 L 168.40805368423463 144.39328861236572 L 173.2 140.4 L 184.2 149.4 L 179.2 152.4 L 175.85899276733397 153.79208631515502 L 173.1 157.4 L 167.3 163.6 L 160.8 169.1 L 153.7 174.0 L 146.1 178.2 L 137.9 181.7 L 129.2 184.6 L 119.9 186.8 L 110.0 188.3 L 99.6 189.0 L 99.4 187.2 L 109.3 184.6 L 118.5 181.7 L 127.0 178.4 L 134.9 174.8 L 142.0 170.8 L 143.50716371536254 169.75657892227173 L 141.1 168.0 L 141.1 167.2 Z M 63.0 142.5 L 62.830985927581786 143.3 L 75.9 143.3 L 85.9 133.3 L 97.9 143.3 L 97.9 147.3 L 61.98591547012329 147.3 L 61.5 149.6 L 59.809880924224856 154.31824913024903 L 61.4 154.9 L 65.4 156.2 L 69.2 157.7 L 72.7 159.3 L 76.1 160.9 L 79.3 162.7 L 82.3 164.4 L 85.1 166.3 L 87.7 168.2 L 90.1 170.2 L 91.6 174.6 L 89.7 178.7 L 85.4 180.2 L 81.2 178.3 L 79.8 176.2 L 78.1 174.1 L 76.2 171.9 L 74.0 169.6 L 71.6 167.3 L 69.1 165.0 L 66.3 162.6 L 63.2 160.1 L 60.1 157.5 L 58.91009759902954 156.67367887496948 L 56.0 162.4 L 52.2 168.0 L 47.7 173.0 L 42.5 177.4 L 36.7 181.2 L 30.3 184.3 L 23.2 186.7 L 15.5 188.5 L 15.0 186.8 L 21.7 183.2 L 27.7 179.6 L 33.0 175.7 L 37.6 171.6 L 41.4 167.3 L 44.6 162.7 L 47.1 157.8 L 49.1 152.6 L 50.33035717010498 147.3 L 13.2 147.3 L 13.2 143.3 L 50.83898305892944 143.3 L 51.1 141.1 L 51.1 121.5 L 20.4 121.5 L 20.4 117.5 L 72.8 117.5 L 82.8 107.5 L 94.8 117.5 L 94.8 121.5 L 63.1 121.5 L 63.1 141.8 L 62.660000038146975 142.46000003814697 Z M 144.40909090042115 149.4 L 144.1 149.7 L 140.4 152.8 L 136.5 155.6 L 136.39750003814697 155.66499996185303 L 136.8 155.7 L 139.0 156.0 L 141.0 156.4 L 143.0 157.0 L 144.9 157.7 L 146.6 158.4 L 148.3 159.4 L 149.9 160.5 L 151.4 161.8 L 151.64085073471068 163.64652261734008 L 154.3 161.4 L 159.6 156.1 L 164.1 150.4 L 164.7451612472534 149.4 Z M 136.7 113.6 L 133.9 116.6 L 130.7 119.4 L 130.16617650985717 119.82058820724487 L 131.0 119.9 L 132.9 120.2 L 134.7 120.6 L 136.5 121.1 L 138.2 121.7 L 139.8 122.3 L 141.4 123.1 L 142.9 124.0 L 143.87342958450319 127.05935020446778 L 147.1 123.9 L 151.4 118.9 L 155.3 113.8 L 155.429629611969 113.6 Z M 14.7 102.1 L 22.0 101.6 L 26.2 101.26842107772828 L 26.2 65.9 L 38.2 67.9 L 41.2 69.9 L 38.2 71.7 L 38.2 100.32025318145752 L 45.2 99.7 L 50.8 99.14691362380981 L 50.8 56.2 L 62.8 58.2 L 65.8 60.2 L 62.8 62.0 L 62.8 74.1 L 73.8777777671814 74.1 L 80.1 67.1 L 88.1 74.1 L 88.1 78.1 L 62.8 78.1 L 62.8 97.98705883026123 L 70.1 97.3 L 78.8 96.4 L 87.7 95.7 L 96.9 95.1 L 97.2 96.9 L 88.4 99.4 L 79.7 101.7 L 71.1 103.7 L 62.8 105.6 L 54.5 107.3 L 46.5 108.9 L 38.6 110.3 L 30.9 111.7 L 23.4 112.9 L 20.02907838821411 113.44663591384888 L 18.3 116.8 L 16.0 114.1 L 12.7 102.4 Z M 166.8 103.8 L 162.2 101.0 L 158.1 97.9 L 154.5 94.5 L 151.4 90.9 L 148.9 87.1 L 147.1 83.1 L 146.36109075546264 80.27870998382568 L 143.7 85.0 L 139.5 89.8 L 134.4 93.9 L 128.4 97.4 L 121.6 100.3 L 114.0 102.6 L 105.5 104.3 L 96.1 105.3 L 95.8 103.6 L 104.6 100.6 L 112.3 97.5 L 119.0 94.3 L 124.6 90.9 L 129.2 87.3 L 132.7 83.5 L 135.2 79.6 L 136.8 75.6 L 136.8380952835083 75.4 L 105.7 75.4 L 105.7 71.4 L 137.6 71.4 L 137.7 66.9 L 137.7 56.7 L 149.7 58.7 L 152.7 60.7 L 149.7 62.5 L 149.7 66.9 L 149.14615383148194 71.4 L 159.8 71.4 L 169.8 61.4 L 170.1 61.65 L 170.1 55.7 L 117.3 55.7 L 117.3 58.7 L 106.3 64.2 L 106.3 13.7 L 117.3 19.2 L 170.1 19.2 L 176.1 14.2 L 187.1 23.2 L 182.1 27.2 L 182.1 57.7 L 171.6375 62.93125 L 181.8 71.4 L 181.8 75.4 L 148.21147537231445 75.4 L 148.17263154983522 75.51283206939698 L 149.4 77.5 L 151.8 80.4 L 154.4 83.1 L 157.2 85.5 L 160.3 87.7 L 163.7 89.7 L 167.5 91.5 L 171.7 93.2 L 176.3 94.7 L 181.3 96.0 L 189.1 98.3 L 177.5 108.6 L 171.9 106.3 Z M 17.8 61.7 L 17.8 13.2 L 29.8 19.2 L 82.6 19.2 L 88.1 14.2 L 98.6 23.2 L 93.6 26.7 L 93.6 57.7 L 82.6 63.2 L 82.6 55.7 L 29.8 55.7 Z M 117.3 39.2 L 117.3 51.7 L 138.0 51.7 L 138.0 39.2 Z M 150.0 39.2 L 150.0 51.7 L 170.1 51.7 L 170.1 39.2 Z M 29.8 39.2 L 29.8 51.7 L 50.0 51.7 L 50.0 39.2 Z M 62.0 39.2 L 62.0 51.7 L 82.6 51.7 L 82.6 39.2 Z M 117.3 23.2 L 117.3 35.2 L 138.0 35.2 L 138.0 23.2 Z M 150.0 23.2 L 150.0 35.2 L 170.1 35.2 L 170.1 23.2 Z M 29.8 23.2 L 29.8 35.2 L 50.0 35.2 L 50.0 23.2 Z M 62.0 23.2 L 62.0 35.2 L 82.6 35.2 L 82.6 23.2 Z " />
</g>
</svg>
