<svg xmlns="http://www.w3.org/2000/svg" xmlns:xlink="http://www.w3.org/1999/xlink" version="1.1" baseProfile="full" viewBox="0 0 200 200" width="200" height="200">
<g fill="black">
<path d="M 126.7 176.9 L 146.7 176.9 L 148.0 176.8 L 148.9 176.7 L 149.5 176.5 L 149.8 176.3 L 150.1 176.0 L 150.3 175.6 L 150.5 175.0 L 150.7 174.1 L 150.7 112.5 L 83.4 112.5 L 83.4 108.5 L 150.7 108.5 L 150.7 77.7 L 162.7 79.7 L 165.7 81.7 L 162.7 83.5 L 162.7 108.5 L 164.9 108.5 L 174.9 98.5 L 186.9 108.5 L 186.9 112.5 L 162.7 112.5 L 162.7 172.9 L 162.6 175.4 L 162.1 177.9 L 161.3 180.3 L 160.1 182.6 L 158.5 184.6 L 156.4 186.3 L 154.2 187.5 L 151.8 188.3 L 149.3 188.7 L 146.7 188.9 L 146.7 182.9 L 126.7 179.9 Z M 13.1 153.9 L 19.6 152.2 L 26.2 150.5 L 33.1 148.6 L 38.5 147.057142829895 L 38.5 95.0 L 17.2 95.0 L 17.2 91.0 L 38.5 91.0 L 38.5 44.0 L 13.8 44.0 L 13.8 40.0 L 61.1 40.0 L 71.1 30.0 L 83.1 40.0 L 83.1 44.0 L 50.5 44.0 L 50.5 91.0 L 57.7 91.0 L 67.7 81.0 L 79.7 91.0 L 79.7 95.0 L 50.5 95.0 L 50.5 143.6918918609619 L 54.7 142.5 L 62.2 140.4 L 70.0 138.2 L 78.0 136.1 L 86.2 134.1 L 86.8 135.8 L 79.3 139.7 L 71.8 143.3 L 64.5 146.6 L 57.2 149.7 L 50.1 152.6 L 43.1 155.4 L 36.2 158.1 L 29.5 160.7 L 23.0 163.1 L 20.42241382598877 164.01206893920897 L 19.3 167.7 L 16.5 165.4 L 11.1 154.5 Z M 116.5 144.4 L 115.8 142.2 L 114.9 139.9 L 113.7 137.6 L 112.2 135.2 L 110.6 132.7 L 108.7 130.1 L 106.6 127.5 L 104.0 125.1 L 105.0 123.7 L 108.1 125.4 L 111.3 127.0 L 114.3 128.8 L 117.0 130.7 L 119.5 132.8 L 121.8 135.0 L 123.9 137.3 L 125.8 139.8 L 127.4 142.5 L 128.9 145.3 L 128.3 149.8 L 124.8 152.7 L 120.3 152.2 L 117.4 148.7 L 117.1 146.6 Z M 171.97060279846193 14.77263708114624 L 180.9 22.5 L 181.2 25.6 L 177.20213356018067 23.86958017349243 L 175.5 24.5 L 168.3 26.6 L 161.0 28.6 L 153.6 30.5 L 146.1 32.1 L 138.5 33.7 L 130.7 35.0 L 122.9 36.1 L 114.9 37.0 L 109.82158813476562 37.376178646087645 L 107.669287109375 38.119700813293456 L 107.0 40.6 L 105.1 46.6 L 103.1 52.4 L 100.8 58.0 L 98.4 63.4 L 95.8 68.6 L 92.9 73.5 L 89.8 78.1 L 86.5 82.3 L 82.8 86.3 L 81.3 85.2 L 83.2 80.4 L 87.0 70.6 L 88.8 65.5 L 90.5 60.3 L 92.1 55.0 L 93.5 49.5 L 94.8 43.8 L 95.9 37.9 L 96.73269758224487 32.903814697265624 L 96.7 32.9 L 96.85 32.2 L 96.9 31.9 L 96.91368913650513 31.902784252166747 L 97.3 30.1 L 107.01268653869629 33.67835817337036 L 121.6 29.7 L 129.1 27.6 L 136.5 25.4 L 143.7 23.2 L 150.9 20.8 L 157.9 18.4 L 164.7 15.8 L 170.51903114318847 13.541868495941163 L 170.5 13.5 L 170.53929471969604 13.534005069732666 L 171.4 13.2 Z M 173.8 67.7 L 172.6 64.0 L 171.2 60.3 L 169.7 56.5 L 167.9 52.7 L 166.0 48.8 L 163.9 44.8 L 161.7 40.6 L 159.3 36.4 L 160.7 35.2 L 164.3 38.5 L 167.9 41.9 L 171.1 45.3 L 174.0 48.9 L 176.7 52.5 L 179.2 56.2 L 181.5 59.9 L 183.6 63.7 L 185.5 67.5 L 187.1 71.4 L 186.6 75.9 L 183.1 78.9 L 178.6 78.4 L 175.7 74.9 L 174.8 71.3 Z M 132.1 66.0 L 131.7 62.9 L 131.1 60.0 L 130.5 57.0 L 129.7 54.0 L 128.8 51.1 L 127.7 48.1 L 126.7 45.1 L 125.2 42.2 L 126.6 41.1 L 128.9 43.5 L 131.4 45.9 L 133.6 48.4 L 135.6 51.1 L 137.5 54.0 L 139.2 56.9 L 140.8 60.1 L 142.2 63.3 L 143.4 66.6 L 144.5 70.1 L 143.4 74.5 L 139.5 77.0 L 135.1 75.9 L 132.6 72.1 L 132.4 69.0 Z " />
</g>
</svg>
