<svg xmlns="http://www.w3.org/2000/svg" xmlns:xlink="http://www.w3.org/1999/xlink" version="1.1" baseProfile="full" viewBox="0 0 200 200" width="200" height="200">
<g fill="black">
<path d="M 128.8 103.2 L 166.2 103.2 L 166.59310340881348 102.87241382598877 L 167.3 101.6 L 167.7336968421936 101.92191934585571 L 172.2 98.2 L 183.2 107.2 L 178.2 110.2 L 173.87294120788573 112.0029411315918 L 171.9 113.9 L 169.1 116.5 L 166.1 119.1 L 162.8 121.6 L 159.4 124.2 L 155.7 126.8 L 151.8 129.4 L 147.6 131.9 L 146.02130937576294 132.85455713272094 L 153.9 133.8 L 162.1 136.3 L 168.6 139.5 L 173.7 143.1 L 177.4 147.1 L 179.9 151.3 L 181.2 155.6 L 181.5 159.6 L 180.9 163.2 L 179.3 166.5 L 170.10804290771483 159.08713140487671 L 170.6 158.3 L 170.8 156.8 L 170.6 154.7 L 169.7 152.1 L 167.7 149.0 L 164.3 145.6 L 159.3 142.1 L 152.4 138.4 L 143.5 134.4 L 143.50537309646606 134.37582092285157 L 143.3 134.5 L 142.1 133.1 L 145.6 129.4 L 148.7 125.8 L 151.7 122.3 L 154.6 119.0 L 157.2 115.8 L 159.7 112.8 L 161.9 109.8 L 163.75714282989503 107.2 L 128.8 107.2 L 128.8 182.8 L 116.8 188.8 L 116.8 97.2 Z M 18.5 164.4 L 24.3 164.0 L 30.2 163.6 L 32.2 163.43870964050294 L 32.2 107.2 L 17.3 107.2 L 17.3 103.2 L 94.11818180084228 103.2 L 102.3 94.2 L 112.3 103.2 L 112.3 107.2 L 90.8 107.2 L 90.8 182.8 L 78.8 188.8 L 78.8 163.17605638504028 L 77.8 163.5 L 70.7 165.5 L 63.8 167.2 L 57.1 168.9 L 50.5 170.3 L 44.1 171.7 L 37.8 173.0 L 31.7 174.2 L 25.7 175.3 L 24.085422229766845 175.58325929641722 L 22.3 179.1 L 20.0 176.3 L 16.5 164.7 Z M 146.4 164.5 L 159.8 164.5 L 161.2 164.3 L 162.5 164.0 L 163.7 163.6 L 164.8 163.2 L 165.9 162.6 L 167.0 161.9 L 169.0 160.1 L 170.0 159.0 L 170.10804290771483 159.08713140487671 L 179.3 166.5 L 177.7 168.4 L 176.0 170.0 L 174.1 171.5 L 172.1 172.9 L 170.0 174.0 L 167.8 174.9 L 165.5 175.6 L 163.2 176.1 L 160.8 176.4 L 158.4 176.5 L 158.4 170.5 L 146.4 167.5 Z M 44.2 146.0 L 44.2 162.38461542129517 L 49.2 162.0 L 55.9 161.4 L 62.8 160.8 L 69.8 160.2 L 77.1 159.7 L 78.8 159.63199996948242 L 78.8 146.0 Z M 44.2 126.6 L 44.2 142.0 L 78.8 142.0 L 78.8 126.6 Z M 44.2 107.2 L 44.2 122.6 L 78.8 122.6 L 78.8 107.2 Z M 86.3 81.3 L 90.5 80.7 L 94.9 80.0 L 99.5 79.4 L 99.5 12.7 L 111.5 14.7 L 114.5 16.7 L 111.5 18.5 L 111.5 40.5 L 120.1777777671814 40.5 L 126.4 33.5 L 134.4 40.5 L 134.4 44.5 L 111.5 44.5 L 111.5 77.5615385055542 L 114.5 77.1 L 119.9 76.4 L 125.5 75.7 L 131.4 75.0 L 137.5 74.6 L 137.9 76.3 L 132.3 78.7 L 126.8 80.9 L 121.4 82.8 L 111.2 86.2 L 106.4 87.7 L 101.7 89.2 L 97.2 90.5 L 92.9 91.8 L 92.77647542953491 91.83615350723267 L 91.3 95.5 L 88.8 93.0 L 84.3 81.7 Z M 31.6 87.9 L 19.6 93.9 L 19.6 14.7 L 31.6 20.7 L 68.4 20.7 L 74.4 15.7 L 85.4 24.7 L 80.4 28.7 L 80.4 86.9 L 68.4 92.9 L 68.4 84.9 L 31.6 84.9 Z M 153.5 90.0 L 151.1 89.7 L 148.7 89.0 L 146.5 88.0 L 144.5 86.5 L 142.9 84.6 L 141.6 82.4 L 140.7 80.1 L 140.2 77.6 L 139.9 75.1 L 139.9 12.7 L 151.9 14.7 L 154.9 16.7 L 151.9 18.5 L 151.9 45.202777767181395 L 153.0 44.5 L 156.4 42.4 L 159.7 40.4 L 162.9 38.4 L 165.9 36.6 L 168.7 34.8 L 171.3 33.1 L 173.8 31.4 L 175.2832426071167 30.432667922973632 L 175.2 30.3 L 175.31546182632445 30.411655330657958 L 176.1 29.9 L 177.42292966842652 32.44964628219604 L 184.3 39.1 L 184.5 42.4 L 180.67236642837526 40.83129768371582 L 178.8 41.5 L 175.9 42.5 L 172.8 43.5 L 169.5 44.6 L 166.1 45.6 L 162.5 46.7 L 158.7 47.7 L 154.7 48.7 L 151.9 49.23333330154419 L 151.9 76.3 L 152.0 77.3 L 152.1 77.9 L 152.2 78.4 L 152.3 78.7 L 152.5 79.0 L 152.9 79.3 L 153.6 79.6 L 154.6 79.9 L 155.9 80.1 L 173.9 80.1 L 178.9 63.1 L 180.9 63.1 L 178.9 80.1 L 181.9 82.1 L 183.9 85.1 L 181.9 88.1 L 178.9 90.1 L 155.9 90.1 Z M 31.6 54.4 L 31.6 80.9 L 44.0 80.9 L 44.0 54.4 Z M 56.0 54.4 L 56.0 80.9 L 68.4 80.9 L 68.4 54.4 Z M 31.6 24.7 L 31.6 50.4 L 44.0 50.4 L 44.0 24.7 Z M 56.0 24.7 L 56.0 50.4 L 68.4 50.4 L 68.4 24.7 Z " />
</g>
</svg>
