<svg xmlns="http://www.w3.org/2000/svg" xmlns:xlink="http://www.w3.org/1999/xlink" version="1.1" baseProfile="full" viewBox="0 0 200 200" width="200" height="200">
<g fill="black">
<path d="M 128.2 166.9 L 128.3 167.4 L 128.3 167.5 L 128.4 167.6 L 128.9 167.7 L 129.7 167.9 L 131.0 168.0 L 166.0 168.0 L 172.0 143.0 L 174.0 143.0 L 172.0 168.0 L 175.6 170.4 L 178.0 174.0 L 175.6 177.6 L 172.0 180.0 L 131.0 180.0 L 128.4 179.8 L 125.9 179.4 L 123.5 178.5 L 121.2 177.2 L 119.3 175.4 L 117.8 173.2 L 116.8 170.8 L 116.3 168.3 L 116.2 165.8 L 116.4 163.2 L 120.63206281661988 133.0 L 88.0 133.0 L 88.0 129.0 L 121.19260091781616 129.0 L 124.55582962036132 105.0 L 94.0 105.0 L 94.0 101.0 L 125.11636772155762 101.0 L 128.61973094940186 76.0 L 89.15867347717285 76.0 L 88.8 77.9 L 84.6 95.7 L 79.7 111.8 L 73.9 126.5 L 66.8 139.8 L 58.5 151.7 L 48.6 162.5 L 36.9 172.1 L 23.4 180.7 L 22.5 179.2 L 34.5 169.2 L 44.7 158.8 L 53.2 147.8 L 60.2 136.0 L 66.0 123.2 L 70.9 109.0 L 74.9 93.3 L 78.26114282608032 76.0 L 35.0 76.0 L 35.0 72.0 L 78.89067354202271 72.0 L 81.3 56.5 L 83.6450704574585 38.0 L 24.0 38.0 L 24.0 34.0 L 150.0 34.0 L 160.0 24.0 L 172.0 34.0 L 172.0 38.0 L 95.69537038803101 38.0 L 92.5 58.3 L 89.91377553939819 72.0 L 129.0 72.0 L 135.0 67.0 L 146.0 76.0 L 141.0 79.0 L 139.39223756790162 79.66990098953247 L 136.61624031066896 101.0 L 141.0 101.0 L 151.0 91.0 L 163.0 101.0 L 163.0 105.0 L 136.0956618309021 105.0 L 132.97219133377075 129.0 L 136.0 129.0 L 146.0 119.0 L 158.0 129.0 L 158.0 133.0 L 132.45161294937134 133.0 L 128.3 164.9 L 128.2 166.1 Z " />
</g>
</svg>
