<svg xmlns="http://www.w3.org/2000/svg" xmlns:xlink="http://www.w3.org/1999/xlink" version="1.1" baseProfile="full" viewBox="0 0 200 200" width="200" height="200">
<g fill="black">
<path d="M 145.07446804046631 39.38723402023315 L 149.1 37.1 L 153.2 34.8 L 157.0 32.6 L 160.6 30.4 L 163.9 28.4 L 166.8 26.3 L 169.5 24.4 L 171.9 22.5 L 173.15806455612181 21.367741966247557 L 173.1 21.3 L 173.15848245620728 21.367365837097168 L 173.9 20.7 L 180.40734729766845 29.71732406616211 L 181.0 30.4 L 180.9 30.4 L 180.81995754241944 30.444161319732665 L 181.0 30.4 L 181.1 34.0 L 177.25298748016357 32.361457633972165 L 174.9 33.5 L 171.5 34.9 L 167.9 36.4 L 164.0 37.8 L 159.9 39.1 L 155.5 40.4 L 150.8 41.6 L 146.3 42.589999961853025 L 146.3 83.0 L 169.51818180084229 83.0 L 177.7 74.0 L 187.7 83.0 L 187.7 87.0 L 172.4 87.0 L 172.4 183.0 L 160.4 189.0 L 160.4 87.0 L 146.3 87.0 L 146.3 108.0 L 145.8 119.6 L 144.8 130.5 L 143.5 140.6 L 141.7 150.0 L 139.5 158.7 L 136.9 166.6 L 133.7 173.7 L 130.1 179.9 L 126.0 185.3 L 121.4 189.5 L 120.0 188.4 L 122.9 183.1 L 125.4 177.4 L 127.7 171.2 L 129.6 164.3 L 131.3 156.7 L 132.6 148.4 L 133.5 139.4 L 134.1 129.7 L 134.4 119.2 L 134.3 108.0 L 134.3 34.0 Z M 92.7 149.8 L 94.9 152.7 L 91.0615385055542 153.50809717178345 L 90.8 154.1 L 88.7 158.3 L 86.5 162.4 L 84.0 166.4 L 81.4 170.3 L 78.6 174.0 L 75.5 177.7 L 72.3 181.1 L 68.8 184.4 L 65.1 187.5 L 63.7 186.4 L 66.1 182.2 L 68.2 178.1 L 70.4 174.1 L 72.4 170.1 L 76.0 162.1 L 77.5 158.1 L 78.9 154.1 L 80.2 150.1 L 81.05488662719726 146.9136043548584 L 81.0 146.9 L 81.8 144.5 Z M 111.9 166.8 L 110.9 164.2 L 109.7 161.6 L 108.4 159.0 L 107.0 156.6 L 105.4 154.1 L 102.0 149.3 L 99.8 147.3 L 100.8 145.8 L 103.6 147.2 L 106.5 148.6 L 109.2 150.2 L 111.8 152.1 L 114.3 154.3 L 116.7 156.6 L 118.9 159.1 L 121.0 161.9 L 123.0 164.8 L 124.8 167.9 L 124.7 172.5 L 121.5 175.7 L 117.0 175.7 L 113.7 172.5 L 112.9 169.6 Z M 53.0 179.8 L 51.4 181.7 L 49.6 183.4 L 47.6 184.8 L 45.4 185.9 L 43.1 186.8 L 40.8 187.5 L 38.3 187.8 L 35.8 188.0 L 35.8 182.0 L 21.8 179.0 L 21.8 176.0 L 35.8 176.0 L 37.2 175.9 L 38.4 175.7 L 40.4 175.1 L 42.0 174.1 L 42.7 173.4 L 43.4 172.6 L 44.1 171.5 L 44.7 170.3 L 47.1 163.8 L 49.4 153.2 L 50.9 139.5 L 51.4 123.5 L 50.6 105.9 L 50.3383285522461 103.89385204315185 L 47.8 108.9 L 43.9 115.8 L 39.6 122.4 L 35.1 128.7 L 30.2 134.7 L 25.0 140.4 L 19.4 145.7 L 13.4 150.6 L 12.1 149.3 L 16.6 143.2 L 20.9 137.0 L 25.0 130.8 L 28.8 124.5 L 32.4 118.0 L 35.7 111.4 L 38.7 104.6 L 41.5 97.6 L 44.0 90.5 L 46.2 83.1 L 47.26251974105835 83.44485292434692 L 43.9 68.9 L 42.15266904830933 64.00747327804565 L 38.7 68.2 L 32.8 74.6 L 26.6 80.3 L 20.1 85.3 L 13.3 89.7 L 12.2 88.2 L 17.6 82.5 L 22.8 76.5 L 27.8 70.2 L 32.7 63.6 L 37.3 56.5 L 38.661194038391116 54.231343269348145 L 37.4 50.7 L 28.6 33.5 L 17.5 17.3 L 18.8 16.0 L 33.0 30.5 L 42.97782611846924 46.78456525802612 L 46.0 41.1 L 50.0 32.7 L 53.8 23.9 L 57.04277572631836 15.612906455993652 L 57.0 15.6 L 57.9 13.3 L 68.6 19.1 L 70.6 22.1 L 66.94806413650512 22.666679668426514 L 64.2 28.6 L 59.6 37.5 L 54.8 46.0 L 49.7 53.9 L 47.44864559173584 57.02688112258911 L 51.4 66.5 L 56.7 85.8 L 56.82957229614258 86.54994888305664 L 57.6 86.8 L 57.09417333602905 88.08142757415771 L 60.0 104.9 L 61.5 123.2 L 61.5 140.0 L 60.4 154.7 L 58.4 166.6 L 55.5 175.5 L 54.4 177.8 Z M 63.0 135.0 L 75.3 135.0 L 75.3 46.0 L 64.4 46.0 L 64.4 42.0 L 75.3 42.0 L 75.3 15.0 L 87.3 17.0 L 90.3 19.0 L 87.3 20.8 L 87.3 42.0 L 105.6 42.0 L 105.6 15.0 L 117.6 17.0 L 120.6 19.0 L 117.6 20.8 L 117.6 42.0 L 119.3 42.0 L 123.8 36.0 L 129.8 42.0 L 129.8 46.0 L 117.6 46.0 L 117.6 135.0 L 120.0 135.0 L 124.5 129.0 L 130.5 135.0 L 130.5 139.0 L 63.0 139.0 Z M 87.3 108.0 L 87.3 135.0 L 105.6 135.0 L 105.6 108.0 Z M 87.3 77.0 L 87.3 104.0 L 105.6 104.0 L 105.6 77.0 Z M 87.3 46.0 L 87.3 73.0 L 105.6 73.0 L 105.6 46.0 Z " />
</g>
</svg>
