<svg xmlns="http://www.w3.org/2000/svg" xmlns:xlink="http://www.w3.org/1999/xlink" version="1.1" baseProfile="full" viewBox="0 0 200 200" width="200" height="200">
<g fill="black">
<path d="M 175.1 115.4 L 174.4 111.0 L 173.5 106.7 L 173.0028518676758 104.80179786682129 L 168.7 106.4 L 161.4 108.7 L 153.9 110.9 L 146.2 112.9 L 144.8 113.23670883178711 L 144.8 182.0 L 132.8 188.0 L 132.8 116.090123462677 L 130.2 116.7 L 121.9 118.5 L 113.4 120.3 L 104.7 122.0 L 99.79867296218872 122.93620853424072 L 98.2 126.4 L 95.8 123.7 L 92.0 112.2 L 94.0 111.9 L 102.9 110.8 L 111.6 109.7 L 120.2 108.6 L 127.14704370498657 107.77297096252441 L 128.3 105.5 L 131.9 98.7 L 135.5 92.0 L 139.0 85.4 L 145.8 72.2 L 149.0 65.7 L 152.1 59.2 L 155.1 52.7 L 157.58388814926147 47.132664394378665 L 157.5 47.1 L 158.5 45.1 L 168.8 51.5 L 170.6 54.6 L 166.843523311615 54.923834228515624 L 165.2 57.8 L 161.6 64.2 L 157.8 70.5 L 153.8 76.8 L 149.7 83.1 L 145.5 89.3 L 141.0 95.5 L 136.4 101.6 L 131.8567907333374 107.16311340332031 L 132.8 107.03658533096313 L 132.8 107.0 L 133.07272729873657 107.0 L 136.8 106.5 L 144.8 105.4 L 152.6 104.4 L 160.3 103.5 L 167.9 102.7 L 172.349036026001 102.33926734924316 L 171.1 98.4 L 169.5 94.3 L 167.8 90.3 L 165.9 86.3 L 163.8 82.3 L 165.1 81.1 L 168.7 84.2 L 172.0 87.5 L 175.0 91.2 L 177.7 95.1 L 180.1 99.3 L 182.2 103.7 L 184.0 108.3 L 185.5 113.2 L 186.8 118.2 L 187.8 123.4 L 186.4 127.7 L 182.4 129.9 L 178.1 128.6 L 175.8 124.6 L 175.6 119.9 Z M 124.1 136.1 L 126.1 139.0 L 122.35973863601684 139.65618619918823 L 121.8 140.8 L 119.2 145.5 L 116.5 150.2 L 113.5 154.8 L 110.3 159.4 L 106.8 164.0 L 103.1 168.5 L 99.1 173.0 L 94.8 177.3 L 90.1 181.5 L 88.7 180.4 L 91.8 175.0 L 94.8 169.8 L 97.7 164.7 L 100.5 159.8 L 103.1 155.0 L 105.4 150.2 L 107.6 145.5 L 109.6 140.8 L 111.3 136.2 L 112.57224912643433 132.6217992782593 L 112.5 132.6 L 113.4 130.3 Z M 31.1 167.5 L 19.1 173.5 L 19.1 34.6 L 31.1 40.6 L 72.9 40.6 L 78.9 35.6 L 89.9 44.6 L 84.9 48.6 L 84.9 161.5 L 72.9 167.5 L 72.9 155.5 L 31.1 155.5 Z M 170.5 160.4 L 168.5 156.0 L 166.4 151.8 L 164.3 147.8 L 162.0 143.9 L 159.8 140.1 L 157.5 136.5 L 155.2 132.8 L 152.8 129.3 L 154.0 128.0 L 157.7 130.3 L 161.3 133.0 L 164.7 136.1 L 168.0 139.5 L 171.1 143.1 L 174.2 147.0 L 177.1 151.1 L 179.9 155.4 L 182.6 160.0 L 185.2 164.7 L 185.3 169.3 L 182.2 172.7 L 177.7 172.8 L 174.3 169.7 L 172.4 165.0 Z M 31.1 100.1 L 31.1 151.5 L 46.0 151.5 L 46.0 100.1 Z M 58.0 100.1 L 58.0 151.5 L 72.9 151.5 L 72.9 100.1 Z M 31.1 44.6 L 31.1 96.1 L 46.0 96.1 L 46.0 44.6 Z M 58.0 44.6 L 58.0 96.1 L 72.9 96.1 L 72.9 44.6 Z M 118.2 82.6 L 116.9 79.2 L 115.4 76.0 L 113.7 73.1 L 111.9 70.4 L 110.0 67.8 L 107.8 65.4 L 105.5 63.1 L 102.8 61.2 L 103.5 59.5 L 106.9 60.5 L 110.3 61.7 L 113.6 63.4 L 116.8 65.5 L 117.61494417190552 66.20628490447999 L 118.7 64.1 L 120.2 60.6 L 121.7 57.2 L 123.3 53.8 L 126.3 47.0 L 127.7 43.5 L 129.2 40.1 L 130.6 36.7 L 131.21141967773437 35.05387020111084 L 129.5 35.4 L 120.5 37.0 L 111.3 38.5 L 102.0 39.8 L 92.4 40.8 L 92.0 39.1 L 101.2 36.1 L 110.2 33.3 L 119.0 30.6 L 127.7 28.0 L 136.3 25.4 L 144.7 22.8 L 152.9 20.3 L 161.0 17.7 L 168.9 15.1 L 175.7115789413452 12.829473686218261 L 175.7 12.8 L 175.72849740982056 12.823834228515626 L 176.7 12.5 L 177.14633483886718 14.009661865234374 L 186.7 22.0 L 186.9 25.1 L 182.778178691864 23.18843069076538 L 180.1 24.0 L 172.1 26.0 L 163.9 28.0 L 155.6 30.0 L 138.4 33.6 L 135.69463577270508 34.14715232849121 L 142.7 38.5 L 144.5 41.6 L 140.5077844619751 41.93832330703735 L 138.4 45.1 L 136.2 48.3 L 131.6 54.5 L 129.1 57.5 L 126.6 60.4 L 124.0 63.2 L 121.2 65.8 L 119.31785717010499 67.68214282989501 L 119.8 68.1 L 122.6 71.0 L 125.2 74.3 L 127.6 77.9 L 129.8 81.9 L 131.9 86.1 L 131.5 90.7 L 128.2 93.8 L 123.6 93.5 L 120.5 90.1 L 119.4 86.2 Z " />
</g>
</svg>
