<svg xmlns="http://www.w3.org/2000/svg" xmlns:xlink="http://www.w3.org/1999/xlink" version="1.1" baseProfile="full" viewBox="0 0 200 200" width="200" height="200">
<g fill="black">
<path d="M 99.2 176.8 L 110.2 176.8 L 110.9 176.7 L 111.5 176.4 L 111.7 176.2 L 111.8 176.0 L 112.0 175.5 L 112.3 174.8 L 112.4 173.7 L 112.5 172.3 L 112.5 156.2 L 86.0 156.2 L 86.0 182.2 L 74.0 188.2 L 74.0 108.1 L 86.0 114.1 L 112.5 114.1 L 118.0 109.1 L 128.5 118.1 L 123.5 121.6 L 123.5 172.3 L 123.4 174.8 L 123.0 177.1 L 122.3 179.4 L 121.3 181.5 L 119.9 183.5 L 118.2 185.1 L 116.1 186.4 L 113.9 187.2 L 111.6 187.7 L 109.2 187.8 L 109.2 182.3 L 99.2 179.6 Z M 182.2 145.7 L 184.2 145.7 L 182.2 170.7 L 185.7 173.1 L 188.2 176.7 L 185.7 180.3 L 182.2 182.7 L 150.1 182.7 L 147.5 182.5 L 145.0 182.0 L 142.7 181.2 L 140.4 179.9 L 138.5 178.3 L 136.9 176.3 L 135.8 174.0 L 135.0 171.7 L 134.6 169.2 L 134.6 125.0 L 145.6 127.0 L 148.3 129.0 L 145.6 130.72340421676637 L 145.6 148.87837839126587 L 151.2 145.7 L 154.7 143.7 L 158.1 141.6 L 161.4 139.4 L 164.5 137.2 L 167.4 135.0 L 170.2 132.6 L 172.14148006439208 130.94614658355712 L 172.1 130.9 L 172.9 130.2 L 180.1 139.8 L 180.3 143.4 L 176.59411764144897 141.95882349014283 L 173.1 143.9 L 169.4 145.7 L 165.6 147.3 L 161.6 148.8 L 157.6 150.1 L 153.4 151.3 L 149.2 152.3 L 145.6 152.87272729873658 L 145.6 166.7 L 145.7 168.0 L 145.9 169.0 L 146.4 170.0 L 146.6 170.1 L 146.9 170.3 L 147.3 170.4 L 147.9 170.6 L 148.8 170.7 L 176.2 170.7 Z M 52.0 180.8 L 50.4 182.6 L 48.6 184.3 L 46.6 185.8 L 44.5 186.9 L 42.2 187.8 L 39.8 188.5 L 37.4 188.8 L 34.9 189.0 L 34.9 183.0 L 20.9 180.0 L 20.9 177.0 L 34.9 177.0 L 36.2 176.9 L 37.4 176.7 L 38.5 176.4 L 39.4 176.1 L 41.0 175.1 L 41.7 174.4 L 42.4 173.6 L 43.1 172.6 L 43.7 171.3 L 46.1 164.8 L 48.2 154.2 L 49.8 140.5 L 50.3 124.5 L 49.5 106.9 L 49.2654224395752 105.10157175064087 L 46.9 109.9 L 43.1 116.8 L 39.0 123.4 L 34.5 129.7 L 29.7 135.7 L 24.6 141.4 L 19.1 146.7 L 13.2 151.6 L 11.9 150.3 L 16.2 144.2 L 20.4 138.0 L 24.4 131.8 L 28.2 125.5 L 31.6 119.0 L 34.9 112.4 L 37.8 105.6 L 40.5 98.7 L 42.9 91.5 L 45.1 84.2 L 46.21082229614258 84.54104194641113 L 42.9 69.8 L 41.265312576293944 65.10351696014405 L 38.0 69.2 L 32.2 75.5 L 26.1 81.3 L 19.8 86.3 L 13.1 90.7 L 12.0 89.2 L 17.2 83.5 L 22.3 77.5 L 27.2 71.2 L 32.0 64.6 L 36.5 57.5 L 37.82507028579712 55.21964645385742 L 36.6 51.7 L 27.9 34.5 L 17.2 18.3 L 18.5 17.0 L 32.4 31.5 L 42.088732147216795 47.616833209991455 L 44.9 42.2 L 48.9 33.8 L 52.6 25.0 L 55.75504035949707 16.616606998443604 L 55.7 16.6 L 56.6 14.3 L 67.3 20.1 L 69.3 23.0 L 65.68313713073731 23.634537315368654 L 63.0 29.5 L 58.5 38.5 L 53.8 47.0 L 48.8 54.9 L 46.553768920898435 58.036247158050536 L 50.4 67.5 L 55.6 86.8 L 55.71015787124634 87.45750455856323 L 56.5 87.7 L 55.98145694732666 89.07682123184205 L 58.8 105.9 L 60.3 124.2 L 60.3 141.0 L 59.2 155.7 L 57.3 167.6 L 54.6 176.5 L 53.4 178.7 Z M 86.0 136.5 L 86.0 152.2 L 112.5 152.2 L 112.5 136.5 Z M 86.0 118.1 L 86.0 132.5 L 112.5 132.5 L 112.5 118.1 Z M 181.5 84.4 L 183.5 84.4 L 181.5 109.4 L 185.1 111.8 L 187.5 115.4 L 185.1 119.0 L 181.5 121.4 L 150.1 121.4 L 147.5 121.3 L 145.0 120.9 L 142.6 120.1 L 140.3 118.8 L 138.3 117.2 L 136.7 115.2 L 135.4 112.9 L 134.6 110.5 L 134.2 108.0 L 134.1 105.4 L 134.1 63.7 L 146.1 65.7 L 149.1 67.7 L 146.1 69.5 L 146.1 88.54736843109131 L 147.5 87.7 L 151.2 85.6 L 154.7 83.5 L 158.1 81.3 L 161.4 79.2 L 164.5 77.0 L 167.5 74.8 L 170.3 72.6 L 172.24011220932007 70.94731178283692 L 172.2 70.9 L 172.24121780395507 70.94637002944947 L 173.0 70.3 L 178.4545454978943 77.93636360168458 L 180.2 79.9 L 180.3 83.5 L 176.62233753204345 81.93358821868897 L 176.5 82.0 L 173.0 83.8 L 169.3 85.5 L 165.5 87.1 L 161.6 88.6 L 157.6 89.9 L 153.5 91.1 L 149.2 92.2 L 146.1 92.76363639831543 L 146.1 106.7 L 146.3 107.6 L 146.5 108.2 L 146.7 108.5 L 146.8 108.7 L 147.0 108.8 L 147.3 109.0 L 147.9 109.2 L 148.8 109.4 L 175.5 109.4 Z M 116.85968379974365 95.09901189804077 L 114.8 95.9 L 109.4 97.7 L 104.2 99.2 L 99.0 100.6 L 93.8 101.8 L 88.8 103.0 L 83.9 104.0 L 79.1 104.9 L 74.4 105.8 L 73.95210523605347 105.86815786361694 L 72.1 109.3 L 69.8 106.5 L 66.8 94.8 L 68.8 94.6 L 73.3 94.5 L 77.9 94.3 L 81.66708860397338 94.06455698013306 L 82.8 88.4 L 84.2 81.6 L 85.0 78.2 L 87.5900333404541 65.61983785629272 L 87.5 65.6 L 87.78444442749023 64.6755555152893 L 87.8 64.6 L 87.80701646804809 64.60219650268554 L 88.3 63.0 L 99.3 68.2 L 101.5 71.0 L 97.57433624267578 71.98141593933106 L 94.8 77.9 L 91.6 84.3 L 86.2 93.6 L 86.01470584869385 93.86470584869384 L 87.6 93.8 L 92.6 93.4 L 97.7 93.1 L 103.0 92.7 L 108.5 92.4 L 114.1 92.1 L 115.72766799926758 92.0719367980957 L 115.7 92.0 L 114.5 89.5 L 113.2 86.9 L 111.8 84.4 L 110.2 81.8 L 108.5 79.1 L 106.4 76.6 L 107.6 75.3 L 110.3 77.1 L 113.1 78.9 L 115.8 80.8 L 118.3 82.8 L 120.6 85.0 L 122.8 87.4 L 124.9 89.8 L 126.8 92.4 L 128.5 95.0 L 130.1 97.8 L 129.9 102.4 L 126.6 105.6 L 122.1 105.4 L 118.9 102.1 L 118.3 99.6 Z M 85.3 64.1 L 73.3 70.1 L 73.3 15.7 L 85.3 21.7 L 168.6 21.7 L 174.6 16.7 L 185.6 25.7 L 180.6 29.7 L 180.6 59.1 L 168.6 65.1 L 168.6 57.1 L 85.3 57.1 Z M 85.3 25.7 L 85.3 53.1 L 105.1 53.1 L 105.1 25.7 Z M 117.1 25.7 L 117.1 53.1 L 136.8 53.1 L 136.8 25.7 Z M 148.8 25.7 L 148.8 53.1 L 168.6 53.1 L 168.6 25.7 Z " />
</g>
</svg>
