<svg xmlns="http://www.w3.org/2000/svg" xmlns:xlink="http://www.w3.org/1999/xlink" version="1.1" baseProfile="full" viewBox="0 0 200 200" width="200" height="200">
<g fill="black">
<path d="M 106.59347829818725 19.62391300201416 L 106.2 27.1 L 104.8 37.9 L 104.3247525215149 40.3 L 136.0 40.3 L 142.0 35.3 L 153.0 44.3 L 148.0 48.3 L 148.0 109.1 L 152.0 109.1 L 158.0 104.1 L 169.0 113.1 L 164.0 117.1 L 164.0 176.0 L 167.8181818008423 176.0 L 176.0 167.0 L 186.0 176.0 L 186.0 180.0 L 14.0 180.0 L 14.0 176.0 L 36.0 176.0 L 36.0 103.1 L 48.0 109.1 L 52.0 109.1 L 52.0 34.3 L 64.0 40.3 L 93.71999998092652 40.3 L 94.2 36.5 L 94.8 26.4 L 94.8 13.3 L 106.8 15.7 L 109.8 17.7 Z M 48.0 176.0 L 75.0 176.0 L 75.0 113.1 L 48.0 113.1 Z M 87.0 113.1 L 87.0 176.0 L 113.0 176.0 L 113.0 113.1 Z M 125.0 176.0 L 152.0 176.0 L 152.0 113.1 L 125.0 113.1 Z M 116.8 86.3 L 115.0 82.7 L 112.9 79.1 L 110.7 75.5 L 108.2 72.0 L 105.5 68.5 L 102.7 65.0 L 99.6 61.3 L 98.9194209098816 60.555616569519046 L 96.7 66.3 L 92.6 74.4 L 87.8 81.8 L 82.3 88.4 L 76.1 94.2 L 69.2 99.0 L 68.1 97.5 L 73.4 91.5 L 78.1 85.1 L 82.3 78.3 L 85.8 71.0 L 88.8 63.2 L 91.2 54.9 L 93.0 46.0 L 93.21473684310914 44.3 L 64.0 44.3 L 64.0 109.1 L 136.0 109.1 L 136.0 44.3 L 103.53267326354981 44.3 L 102.8 48.0 L 100.1 57.5 L 100.0129693031311 57.72525596618652 L 101.8 58.7 L 106.0 61.2 L 109.9 64.0 L 113.6 67.1 L 117.0 70.3 L 120.2 73.6 L 123.2 77.2 L 126.0 80.9 L 128.5 84.8 L 130.8 88.8 L 130.9 93.3 L 127.8 96.7 L 123.3 96.8 L 119.9 93.7 L 118.5 90.0 Z " />
</g>
</svg>
