<svg xmlns="http://www.w3.org/2000/svg" xmlns:xlink="http://www.w3.org/1999/xlink" version="1.1" baseProfile="full" viewBox="0 0 200 200" width="200" height="200">
<g fill="black">
<path d="M 32.2 46.0 L 45.1 46.0 L 45.1 12.0 L 57.1 14.0 L 60.1 16.0 L 57.1 17.8 L 57.1 46.0 L 72.5 46.0 L 78.5 41.0 L 89.5 50.0 L 84.5 53.0 L 82.01652173995971 54.034782600402835 L 81.7 54.6 L 80.2 57.4 L 78.5 60.2 L 76.7 63.3 L 74.6 66.6 L 72.4 70.0 L 69.9 73.6 L 67.1 77.3 L 64.3 81.4 L 62.7 80.5 L 64.5 76.0 L 65.8 71.6 L 67.2 67.5 L 68.4 63.6 L 69.5 60.1 L 70.5 56.8 L 71.3 53.7 L 71.9 50.9 L 72.08000001907348 50.0 L 57.1 50.0 L 57.1 95.0 L 66.7 95.0 L 72.7 90.0 L 83.7 99.0 L 78.7 102.0 L 77.2075548171997 102.62185211181641 L 74.8 110.3 L 70.6 121.5 L 66.1 132.0 L 63.21978816986084 137.70164375305177 L 64.0 138.5 L 68.0 143.0 L 71.9 147.7 L 75.5 152.4 L 78.8 157.3 L 79.4 161.9 L 76.7 165.5 L 72.1 166.1 L 68.5 163.4 L 65.9 158.6 L 63.1 153.8 L 60.1 149.1 L 58.316296672821046 146.55957412719727 L 55.8 150.8 L 50.0 159.2 L 43.8 166.8 L 37.2 173.7 L 30.1 179.6 L 22.6 184.7 L 21.5 183.2 L 27.5 176.8 L 33.2 170.0 L 38.7 162.7 L 43.7 154.9 L 48.5 146.6 L 52.33687238693237 138.56933689117432 L 49.7 135.2 L 45.8 130.5 L 41.7 125.9 L 33.1 116.3 L 34.2 114.9 L 39.9 118.2 L 45.3 121.9 L 50.3 125.8 L 55.1 129.9 L 55.81120882034302 130.54936456680298 L 56.9 128.0 L 60.6 117.8 L 63.9 106.9 L 65.96086959838867 99.0 L 32.2 99.0 L 32.2 102.0 L 31.8 112.7 L 31.1 122.9 L 30.1 132.8 L 28.8 142.1 L 27.3 151.1 L 25.4 159.5 L 23.3 167.5 L 20.8 175.0 L 17.9 181.9 L 14.6 188.3 L 12.9 187.6 L 14.3 180.7 L 15.6 173.6 L 16.9 166.0 L 18.0 158.1 L 18.9 149.8 L 19.6 141.1 L 20.1 132.0 L 20.3 122.4 L 20.4 112.4 L 20.2 102.0 L 20.2 40.0 Z M 107.6 176.8 L 117.6 176.8 L 118.3 176.7 L 118.7 176.6 L 119.1 176.4 L 119.2 176.3 L 119.7 175.3 L 119.9 174.4 L 120.0 173.2 L 120.1 171.8 L 120.1 142.4 L 98.7 142.4 L 98.7 181.8 L 86.7 187.8 L 86.7 75.8 L 98.7 81.8 L 120.1 81.8 L 125.1 76.8 L 135.1 85.8 L 130.1 88.8 L 130.1 171.8 L 130.0 174.1 L 129.7 176.3 L 129.2 178.4 L 128.4 180.4 L 127.2 182.3 L 125.7 183.9 L 123.9 185.2 L 121.9 186.1 L 119.8 186.6 L 117.6 186.8 L 117.6 181.8 L 107.6 179.3 Z M 181.2 146.7 L 183.2 146.7 L 181.2 171.7 L 184.7 174.1 L 187.2 177.7 L 184.7 181.3 L 181.2 183.7 L 153.4 183.7 L 150.8 183.5 L 148.4 183.0 L 146.0 182.2 L 143.8 180.9 L 141.8 179.3 L 140.2 177.3 L 139.1 175.0 L 138.4 172.7 L 138.0 170.2 L 137.9 167.7 L 137.9 102.0 L 148.9 104.0 L 151.6 106.0 L 148.9 107.72340421676635 L 148.9 137.9235294342041 L 150.1 136.9 L 153.5 134.1 L 156.7 131.5 L 159.8 128.8 L 162.8 126.3 L 165.5 123.7 L 168.1 121.2 L 170.6 118.8 L 172.18352394104005 117.07877826690674 L 172.1 117.0 L 172.69090909957885 116.52727270126343 L 172.9 116.3 L 172.93116884231569 116.33506488800049 L 173.1 116.2 L 180.9 125.3 L 181.4 128.9 L 177.51643838882447 127.65171232223511 L 174.7 129.5 L 171.4 131.6 L 167.9 133.6 L 164.3 135.5 L 160.6 137.4 L 156.6 139.2 L 152.5 141.0 L 148.9 142.25581398010254 L 148.9 167.7 L 149.0 169.0 L 149.2 170.0 L 149.7 171.0 L 150.0 171.2 L 150.2 171.3 L 150.6 171.4 L 151.2 171.6 L 152.1 171.7 L 175.2 171.7 Z M 98.7 114.1 L 98.7 138.4 L 120.1 138.4 L 120.1 114.1 Z M 98.7 85.8 L 98.7 110.1 L 120.1 110.1 L 120.1 85.8 Z M 150.8 97.7 L 148.4 97.2 L 146.0 96.3 L 143.8 95.1 L 141.8 93.4 L 140.2 91.4 L 139.1 89.2 L 138.4 86.8 L 138.0 84.4 L 137.9 81.9 L 137.9 66.0 L 137.1 70.0 L 133.4 72.6 L 128.9 71.7 L 126.3 67.9 L 125.9 64.6 L 125.4 61.3 L 124.91208333969116 58.53513889312744 L 121.7 60.1 L 117.6 61.8 L 109.2 65.0 L 104.8 66.6 L 100.3 68.2 L 95.8 69.9 L 90.28713245391846 71.77672090530396 L 89.1 75.5 L 86.4 73.1 L 81.2 62.1 L 83.2 61.6 L 88.1 60.6 L 90.98846435546875 59.99823656082153 L 91.1 59.4 L 92.2 53.7 L 93.5 48.2 L 94.8 42.9 L 96.1 37.7 L 97.3 32.7 L 98.6 27.9 L 99.7 23.2 L 100.9 18.6 L 101.74727268218994 15.21090908050537 L 101.7 15.2 L 101.92857141494751 14.48571424484253 L 102.0 14.2 L 102.01811828613282 14.205880451202393 L 102.5 12.7 L 113.4 17.9 L 115.7 20.7 L 111.91748733520508 21.562678337097168 L 111.7 22.1 L 109.9 26.5 L 108.1 31.0 L 106.2 35.7 L 104.1 40.4 L 102.0 45.3 L 99.7 50.3 L 97.3 55.5 L 95.44663076400757 59.069451904296876 L 97.7 58.6 L 102.4 57.8 L 107.0 57.0 L 116.0 55.6 L 120.4 55.1 L 124.08075370788575 54.84320325851441 L 124.0 54.5 L 123.1 51.0 L 120.9 43.8 L 119.6 40.2 L 118.3 36.4 L 116.6 32.6 L 118.1 31.6 L 120.9 34.8 L 123.6 37.9 L 126.0 41.2 L 128.3 44.5 L 130.4 47.9 L 132.2 51.3 L 133.9 54.8 L 135.5 58.3 L 136.9 61.9 L 137.9 65.17272729873658 L 137.9 16.1 L 148.9 18.1 L 151.6 20.1 L 148.9 21.823404216766356 L 148.9 52.0235294342041 L 150.1 51.0 L 153.5 48.3 L 156.7 45.6 L 159.8 43.0 L 162.8 40.4 L 165.5 37.9 L 168.1 35.4 L 170.6 32.9 L 172.16823415756227 31.2635817527771 L 172.1 31.2 L 173.1 30.3 L 180.9 39.4 L 181.4 43.0 L 177.5483720779419 41.83075580596924 L 174.7 43.7 L 171.4 45.7 L 167.9 47.7 L 164.3 49.7 L 160.6 51.6 L 156.6 53.4 L 152.5 55.1 L 148.9 56.43953485488892 L 148.9 81.9 L 149.0 83.2 L 149.2 84.1 L 149.7 85.1 L 150.0 85.3 L 150.6 85.6 L 151.2 85.7 L 152.1 85.9 L 175.2 85.9 L 181.2 60.9 L 183.2 60.9 L 181.2 85.9 L 184.7 88.3 L 187.2 91.9 L 184.7 95.5 L 181.2 97.9 L 153.4 97.9 Z M 32.2 50.0 L 32.2 95.0 L 45.1 95.0 L 45.1 50.0 Z " />
</g>
</svg>
