<svg xmlns="http://www.w3.org/2000/svg" xmlns:xlink="http://www.w3.org/1999/xlink" version="1.1" baseProfile="full" viewBox="0 0 200 200" width="200" height="200">
<g fill="black">
<path d="M 99.2 50.2 L 101.3 53.1 L 97.667151927948 53.73734178543091 L 95.3 59.2 L 91.2 67.9 L 87.0 76.5 L 82.5 84.9 L 77.8 93.1 L 77.09732313156128 94.23288717269898 L 82.3 95.1 L 85.3 97.1 L 82.3 98.9 L 82.3 182.6 L 70.3 188.6 L 70.3 104.97647056579589 L 67.8 108.8 L 62.5 116.2 L 56.8 123.4 L 50.8 130.2 L 49.4 129.2 L 53.7 121.3 L 58.0 113.3 L 62.2 105.4 L 66.3 97.3 L 70.3 89.1 L 74.2 80.7 L 77.9 72.3 L 81.4 63.6 L 84.8 54.8 L 87.66912021636963 46.82025938034057 L 87.6 46.8 L 88.5 44.5 Z M 11.5 121.0 L 14.1 120.3 L 16.8 119.4 L 19.6 118.3 L 22.5 117.0 L 25.5 115.6 L 28.6 114.0 L 31.9 112.3 L 35.3 110.5 L 35.901788330078126 110.18238945007325 L 36.0 108.3 L 36.0 28.0 L 48.0 34.0 L 101.0 34.0 L 101.0 12.0 L 113.0 14.0 L 116.0 16.0 L 113.0 17.8 L 113.0 34.0 L 164.0 34.0 L 174.0 24.0 L 186.0 34.0 L 186.0 38.0 L 48.0 38.0 L 48.0 96.0 L 47.3 108.8 L 46.1 120.9 L 44.2 132.3 L 41.7 142.8 L 38.5 152.5 L 34.6 161.4 L 30.1 169.4 L 24.9 176.5 L 19.1 182.6 L 12.5 187.6 L 11.4 186.3 L 16.2 180.1 L 20.6 173.4 L 24.4 166.2 L 27.7 158.4 L 30.4 149.9 L 32.6 140.6 L 34.3 130.6 L 35.4 119.8 L 35.566769218444826 116.60358972549439 L 35.3 116.9 L 32.6 119.6 L 29.9 122.1 L 27.1 124.4 L 24.4 126.6 L 21.7 128.6 L 20.105434799194335 129.66304349899292 L 19.3 134.0 L 16.2 132.1 L 9.7 121.8 Z M 144.9 48.9 L 147.9 50.9 L 144.9 52.7 L 144.9 79.9 L 168.7 79.9 L 174.7 74.9 L 185.7 83.9 L 180.7 87.9 L 180.7 141.0 L 168.7 147.0 L 168.7 135.0 L 144.9 135.0 L 144.9 181.0 L 132.9 187.0 L 132.9 135.0 L 109.1 135.0 L 109.1 147.0 L 97.1 153.0 L 97.1 73.9 L 109.1 79.9 L 132.9 79.9 L 132.9 46.9 Z M 109.1 83.9 L 109.1 131.0 L 132.9 131.0 L 132.9 83.9 Z M 144.9 83.9 L 144.9 131.0 L 168.7 131.0 L 168.7 83.9 Z M 21.7 73.7 L 21.1 70.7 L 20.3 67.8 L 19.4 65.0 L 18.4 62.3 L 17.1 59.7 L 15.7 57.1 L 14.2 54.5 L 12.2 52.3 L 13.3 50.8 L 16.0 52.5 L 18.8 54.2 L 21.4 56.3 L 23.9 58.6 L 26.1 61.2 L 28.1 64.1 L 30.0 67.2 L 31.6 70.6 L 33.0 74.1 L 34.3 77.9 L 33.3 82.3 L 29.5 84.9 L 25.0 83.9 L 22.5 80.1 L 22.2 76.8 Z " />
</g>
</svg>
