<svg xmlns="http://www.w3.org/2000/svg" xmlns:xlink="http://www.w3.org/1999/xlink" version="1.1" baseProfile="full" viewBox="0 0 200 200" width="200" height="200">
<g fill="black">
<path d="M 172.3 179.1 L 170.6 180.9 L 168.8 182.5 L 166.8 183.9 L 164.6 185.0 L 162.4 185.9 L 160.0 186.5 L 157.5 186.8 L 155.0 187.0 L 155.0 181.0 L 135.0 178.0 L 135.0 175.0 L 155.0 175.0 L 156.4 174.9 L 157.6 174.7 L 158.7 174.4 L 159.7 174.1 L 160.6 173.6 L 161.4 173.0 L 162.2 172.3 L 162.9 171.5 L 163.7 170.5 L 164.4 169.3 L 166.0 165.3 L 167.5 159.1 L 168.9 150.8 L 170.1 140.6 L 171.0 128.4 L 171.7 114.3 L 172.1 98.3 L 172.2 80.4 L 172.1 60.7 L 171.88192958831786 48.92419605255127 L 171.7 49.0 L 171.7 41.0 L 98.46875 41.0 L 97.3 46.1 L 94.8 55.5 L 91.9 64.6 L 88.8 73.5 L 87.53488368988037 76.7 L 151.3181818008423 76.7 L 159.5 67.7 L 169.5 76.7 L 169.5 80.7 L 85.95348834991455 80.7 L 85.4 82.1 L 81.6 90.5 L 77.4 98.6 L 72.7 106.3 L 71.1 105.6 L 73.9 97.1 L 76.6 88.6 L 79.2 80.0 L 81.6 71.2 L 83.8 62.3 L 85.7 53.2 L 87.4 44.0 L 88.9 34.6 L 90.1 25.0 L 91.1 15.2 L 91.13281850814819 15.203861045837403 L 91.4 13.2 L 103.0 16.6 L 105.8 19.0 L 102.3740390777588 20.551378536224366 L 101.4 26.7 L 99.5 36.5 L 99.38541669845581 37.0 L 171.7 37.0 L 177.7 32.0 L 188.7 41.0 L 183.7948040008545 43.94311761856079 L 184.1 60.5 L 184.2 80.4 L 184.1 98.5 L 183.7 114.7 L 183.0 129.1 L 182.0 141.7 L 180.8 152.5 L 179.3 161.5 L 177.4 169.0 L 175.0 174.9 L 173.7 177.1 Z M 108.2 131.0 L 146.0 131.0 L 152.0 126.0 L 163.0 135.0 L 158.0 139.0 L 158.0 165.6 L 146.0 171.6 L 146.0 161.6 L 108.2 161.6 L 108.2 168.6 L 96.2 174.6 L 96.2 125.0 Z M 30.8 33.4 L 57.3 33.4 L 63.3 28.4 L 74.3 37.4 L 69.3 41.4 L 69.3 155.9 L 57.3 161.9 L 57.3 149.9 L 30.8 149.9 L 30.8 161.9 L 18.8 167.9 L 18.8 27.4 Z M 108.2 135.0 L 108.2 157.6 L 146.0 157.6 L 146.0 135.0 Z M 30.8 110.8 L 30.8 145.9 L 57.3 145.9 L 57.3 110.8 Z M 155.1 113.2 L 155.1 117.2 L 99.2 117.2 L 99.2 113.2 L 136.9181818008423 113.2 L 145.1 104.2 Z M 30.8 74.1 L 30.8 106.8 L 57.3 106.8 L 57.3 74.1 Z M 155.1 95.3 L 155.1 99.3 L 99.2 99.3 L 99.2 95.3 L 136.9181818008423 95.3 L 145.1 86.3 Z M 30.8 37.4 L 30.8 70.1 L 57.3 70.1 L 57.3 37.4 Z M 155.5 57.4 L 155.5 61.4 L 98.7 61.4 L 98.7 57.4 L 137.3181818008423 57.4 L 145.5 48.4 Z " />
</g>
</svg>
