<svg xmlns="http://www.w3.org/2000/svg" xmlns:xlink="http://www.w3.org/1999/xlink" version="1.1" baseProfile="full" viewBox="0 0 200 200" width="200" height="200">
<g fill="black">
<path d="M 152.9 176.6 L 162.9 176.6 L 164.2 176.5 L 165.1 176.4 L 165.7 176.2 L 166.0 176.0 L 166.2 175.9 L 166.5 175.3 L 166.7 174.8 L 166.9 173.8 L 166.9 158.2 L 143.2 158.2 L 143.2 181.5 L 131.2 187.5 L 131.2 158.2 L 107.5 158.2 L 107.5 181.5 L 95.5 187.5 L 95.5 105.3 L 107.5 111.3 L 131.2 111.3 L 131.2 98.3 L 86.6 98.3 L 86.6 94.3 L 131.2 94.3 L 131.2 75.1 L 143.2 77.1 L 146.2 79.1 L 143.2 80.9 L 143.2 94.3 L 169.61818180084228 94.3 L 177.8 85.3 L 187.8 94.3 L 187.8 98.3 L 143.2 98.3 L 143.2 111.3 L 166.9 111.3 L 172.9 106.3 L 183.9 115.3 L 178.9 119.3 L 178.9 172.6 L 178.8 175.2 L 178.4 177.7 L 177.6 180.1 L 176.3 182.3 L 174.7 184.4 L 172.7 186.0 L 170.4 187.2 L 168.0 188.0 L 165.5 188.5 L 162.9 188.6 L 162.9 182.6 L 152.9 179.6 Z M 83.9 25.0 L 83.9 25.442391300201415 L 87.6 25.0 L 97.0 24.0 L 106.5 23.0 L 116.2 21.9 L 126.1 20.8 L 136.1 19.5 L 146.3 18.1 L 156.7 16.6 L 167.2 14.9 L 176.91310682296753 13.356796073913575 L 176.9 13.3 L 176.95990419387817 13.349361038208007 L 177.9 13.2 L 178.0510500907898 14.248465251922607 L 189.4 23.6 L 189.8 26.6 L 185.2314606666565 24.195505619049072 L 179.6 25.0 L 168.7 26.2 L 157.9 27.3 L 147.4 28.1 L 137.0 28.7 L 126.7 29.2 L 116.7 29.5 L 106.8 29.5 L 97.2 29.3 L 87.7 28.8 L 83.9 28.43225803375244 L 83.9 42.0 L 170.8 42.0 L 176.8 37.0 L 187.8 46.0 L 182.8 50.0 L 182.8 72.0 L 170.8 78.0 L 170.8 70.0 L 83.9 70.0 L 83.9 99.0 L 83.4 112.0 L 82.7 124.2 L 81.6 135.4 L 80.1 145.7 L 78.3 155.1 L 76.2 163.6 L 73.6 171.1 L 70.7 177.6 L 67.3 183.1 L 63.5 187.4 L 62.2 186.5 L 64.3 181.5 L 66.1 175.8 L 67.9 169.3 L 69.4 162.0 L 70.7 153.8 L 71.7 144.6 L 72.4 134.6 L 72.8 123.6 L 73.0 111.8 L 72.9 99.0 L 72.9 19.5 Z M 29.3 33.4 L 52.1 33.4 L 57.6 28.4 L 68.1 37.4 L 63.1 40.9 L 63.1 155.9 L 52.1 161.4 L 52.1 149.9 L 29.3 149.9 L 29.3 161.9 L 17.3 167.9 L 17.3 27.4 Z M 107.5 136.7 L 107.5 154.2 L 131.2 154.2 L 131.2 136.7 Z M 143.2 136.7 L 143.2 154.2 L 166.9 154.2 L 166.9 136.7 Z M 29.3 110.8 L 29.3 145.9 L 52.1 145.9 L 52.1 110.8 Z M 107.5 115.3 L 107.5 132.7 L 131.2 132.7 L 131.2 115.3 Z M 143.2 115.3 L 143.2 132.7 L 166.9 132.7 L 166.9 115.3 Z M 29.3 74.1 L 29.3 106.8 L 52.1 106.8 L 52.1 74.1 Z M 160.7 89.2 L 159.6 87.9 L 158.3 86.6 L 156.8 85.3 L 155.2 84.0 L 153.4 82.7 L 151.4 81.3 L 149.3 80.0 L 146.9 79.1 L 147.3 77.4 L 149.9 77.8 L 152.5 77.8 L 155.0 77.9 L 157.5 78.3 L 159.9 78.7 L 162.2 79.3 L 164.4 80.0 L 166.5 80.8 L 168.6 81.8 L 170.6 82.9 L 172.5 87.1 L 171.0 91.4 L 166.8 93.3 L 162.5 91.8 L 161.7 90.5 Z M 29.3 37.4 L 29.3 70.1 L 52.1 70.1 L 52.1 37.4 Z M 83.9 46.0 L 83.9 66.0 L 170.8 66.0 L 170.8 46.0 Z " />
</g>
</svg>
