<svg xmlns="http://www.w3.org/2000/svg" xmlns:xlink="http://www.w3.org/1999/xlink" version="1.1" baseProfile="full" viewBox="0 0 200 200" width="200" height="200">
<g fill="black">
<path d="M 120.8 177.3 L 119.3 179.3 L 117.6 181.1 L 115.6 182.6 L 113.5 183.8 L 111.2 184.8 L 108.8 185.4 L 106.3 185.8 L 103.8 186.0 L 103.8 180.0 L 89.8 177.0 L 89.8 174.0 L 103.8 174.0 L 105.2 173.9 L 106.3 173.7 L 107.3 173.4 L 108.1 173.1 L 108.9 172.7 L 109.6 172.1 L 110.2 171.5 L 110.8 170.7 L 111.4 169.7 L 112.0 168.4 L 113.1 164.9 L 114.2 159.7 L 115.2 153.0 L 116.1 144.7 L 116.8 135.0 L 117.5 123.8 L 118.0 111.2 L 118.3 97.2 L 118.5 81.8 L 118.5880952835083 67.0 L 104.60270271301269 67.0 L 104.1 82.5 L 102.7 99.8 L 100.7 115.7 L 97.9 130.3 L 94.4 143.6 L 90.2 155.5 L 85.2 166.0 L 79.4 175.2 L 72.9 182.7 L 65.6 188.6 L 64.4 187.3 L 70.0 180.3 L 74.9 172.3 L 79.3 163.2 L 83.0 152.9 L 86.2 141.3 L 88.8 128.5 L 90.7 114.3 L 92.0 98.9 L 92.7 82.1 L 92.7 67.0 L 75.1 67.0 L 75.1 63.0 L 92.7 63.0 L 92.7 18.0 L 104.7 20.0 L 107.7 22.0 L 104.7 23.8 L 104.7 63.0 L 118.6 63.0 L 124.6 58.0 L 135.6 67.0 L 130.6 70.0 L 130.5703411102295 70.01235790252686 L 130.5 81.9 L 130.3 97.5 L 129.9 111.6 L 129.4 124.4 L 128.8 135.8 L 128.0 145.8 L 127.1 154.5 L 126.0 161.8 L 124.7 167.9 L 123.1 172.9 L 122.0 175.2 Z M 75.0 66.0 L 75.0 70.0 L 46.8 70.0 L 46.8 183.5 L 36.8 188.5 L 36.8 70.0 L 12.3 70.0 L 12.3 66.0 L 53.0 66.0 L 63.0 56.0 Z M 151.6 39.0 L 170.1 39.0 L 176.1 34.0 L 187.1 43.0 L 182.1 47.0 L 182.1 175.9 L 170.1 181.9 L 170.1 169.9 L 151.6 169.9 L 151.6 181.9 L 139.6 187.9 L 139.6 33.0 Z M 29.3 88.0 L 32.1 90.0 L 29.3 91.75 L 29.3 120.0 L 28.9 128.2 L 28.3 135.9 L 27.4 142.9 L 26.2 149.4 L 24.8 155.3 L 23.0 160.5 L 21.0 165.1 L 18.6 169.1 L 15.9 172.2 L 12.9 174.5 L 11.7 173.4 L 13.1 170.3 L 14.3 166.8 L 15.4 163.0 L 16.3 158.6 L 17.1 153.6 L 17.8 148.1 L 18.2 142.0 L 18.5 135.2 L 18.5 127.9 L 18.3 120.0 L 18.3 86.0 Z M 151.6 43.0 L 151.6 165.9 L 170.1 165.9 L 170.1 43.0 Z M 66.8 88.0 L 69.5 90.0 L 66.8 91.72340421676635 L 66.8 155.2 L 55.8 160.7 L 55.8 86.0 Z M 67.0 30.0 L 67.0 34.0 L 19.5 34.0 L 19.5 30.0 L 48.81818180084228 30.0 L 57.0 21.0 Z " />
</g>
</svg>
