<svg xmlns="http://www.w3.org/2000/svg" xmlns:xlink="http://www.w3.org/1999/xlink" version="1.1" baseProfile="full" viewBox="0 0 200 200" width="200" height="200">
<g fill="black">
<path d="M 159.0 180.5 L 157.2 182.0 L 155.2 183.3 L 153.1 184.4 L 150.9 185.4 L 148.6 186.1 L 146.3 186.6 L 143.9 186.9 L 141.4 187.0 L 141.4 181.0 L 123.4 178.0 L 123.4 175.0 L 141.4 175.0 L 142.9 174.9 L 144.3 174.7 L 145.6 174.4 L 146.8 174.1 L 147.9 173.6 L 149.0 173.0 L 150.1 172.3 L 151.1 171.5 L 152.1 170.5 L 153.1 169.4 L 155.2 166.3 L 157.1 162.2 L 158.9 157.1 L 160.4 150.9 L 161.6 143.7 L 162.5 135.5 L 163.0 126.4 L 163.2 116.3 L 163.1 105.2 L 163.00055055618287 102.83310394287109 L 162.6 103.0 L 162.6 95.0 L 130.9239436149597 95.0 L 130.8 97.2 L 128.9 110.7 L 125.9 123.5 L 121.9 135.6 L 116.8 146.8 L 110.7 157.2 L 103.5 166.7 L 95.2 175.4 L 85.9 183.0 L 75.6 189.7 L 74.6 188.2 L 83.5 180.1 L 91.4 171.7 L 98.3 162.7 L 104.2 153.2 L 109.2 143.1 L 113.2 132.4 L 116.2 121.1 L 118.3 109.1 L 119.4 96.4 L 119.6 83.0 L 119.6 58.0 L 131.6 60.0 L 134.6 62.0 L 131.6 63.8 L 131.6 83.0 L 131.14929580688477 91.0 L 162.6 91.0 L 168.6 86.0 L 179.6 95.0 L 174.81428575515747 97.87142858505248 L 175.1 104.9 L 175.2 116.3 L 175.0 126.9 L 174.4 136.5 L 173.5 145.3 L 172.1 153.3 L 170.4 160.4 L 168.3 166.7 L 165.6 172.3 L 162.4 177.0 L 160.8 178.8 Z M 74.9 127.5 L 72.8 124.4 L 70.6 121.3 L 68.1 118.1 L 65.5 114.9 L 62.6 111.6 L 59.6 108.2 L 58.9 107.40967741012574 L 58.9 181.0 L 46.9 187.0 L 46.9 114.26774196624756 L 46.2 116.3 L 42.7 124.9 L 38.8 133.2 L 34.6 141.0 L 29.9 148.4 L 24.8 155.3 L 19.3 161.7 L 13.3 167.5 L 11.9 166.4 L 16.3 159.4 L 20.4 152.3 L 24.3 145.1 L 27.8 137.5 L 31.1 129.7 L 34.0 121.6 L 36.6 113.2 L 38.9 104.4 L 40.9 95.3 L 41.96265058517456 89.0 L 13.5 89.0 L 13.5 85.0 L 46.9 85.0 L 46.9 14.0 L 58.9 16.0 L 61.9 18.0 L 58.9 19.8 L 58.9 85.0 L 69.3 85.0 L 79.3 75.0 L 91.3 85.0 L 91.3 89.0 L 58.9 89.0 L 58.9 102.3285714149475 L 62.7 104.5 L 66.7 107.0 L 70.4 109.6 L 73.9 112.3 L 77.2 115.2 L 80.3 118.1 L 83.2 121.0 L 86.0 124.1 L 88.5 127.2 L 89.3 131.7 L 86.7 135.5 L 82.2 136.2 L 78.4 133.7 L 76.8 130.6 Z M 88.6 33.0 L 90.7 35.9 L 86.83234090805054 36.63352155685425 L 86.8 36.7 L 84.9 40.4 L 82.8 44.3 L 80.6 48.3 L 78.3 52.5 L 75.7 56.7 L 73.0 61.0 L 70.1 65.4 L 66.9 69.9 L 63.5 74.4 L 61.9 73.5 L 63.7 68.2 L 65.5 63.0 L 67.3 58.1 L 69.0 53.4 L 70.7 48.9 L 72.2 44.5 L 73.7 40.4 L 75.0 36.3 L 76.2 32.5 L 77.02990331649781 29.708506965637206 L 77.0 29.7 L 77.22325582504273 29.058139514923095 L 77.3 28.8 L 77.31155023574829 28.804293060302733 L 77.8 27.4 Z M 28.6 62.8 L 28.0 59.3 L 27.2 55.7 L 26.3 51.9 L 25.2 48.0 L 23.9 43.8 L 22.5 39.5 L 21.1 34.9 L 19.4 30.3 L 21.0 29.4 L 24.0 33.5 L 26.8 37.4 L 29.4 41.3 L 31.7 45.2 L 33.8 48.9 L 35.7 52.7 L 37.3 56.3 L 38.8 59.9 L 40.1 63.4 L 41.2 66.9 L 40.2 71.4 L 36.4 73.9 L 31.9 72.9 L 29.4 69.1 L 29.1 66.0 Z M 84.8 54.0 L 125.0 54.0 L 125.0 16.0 L 137.0 18.0 L 140.0 20.0 L 137.0 21.8 L 137.0 54.0 L 166.0 54.0 L 176.0 44.0 L 188.0 54.0 L 188.0 58.0 L 84.8 58.0 Z " />
</g>
</svg>
