<svg xmlns="http://www.w3.org/2000/svg" xmlns:xlink="http://www.w3.org/1999/xlink" version="1.1" baseProfile="full" viewBox="0 0 200 200" width="200" height="200">
<g fill="black">
<path d="M 137.2 176.3 L 157.2 176.3 L 158.5 176.2 L 159.4 176.0 L 160.3 175.7 L 160.5 175.5 L 160.6 175.3 L 160.8 175.0 L 161.0 174.4 L 161.2 173.5 L 161.2 72.7 L 173.2 74.7 L 176.2 76.7 L 173.2 78.5 L 173.2 172.3 L 173.1 174.8 L 172.6 177.3 L 171.8 179.7 L 170.6 182.0 L 169.0 184.0 L 167.0 185.6 L 164.7 186.9 L 162.3 187.7 L 159.8 188.1 L 157.2 188.3 L 157.2 182.3 L 137.2 179.3 Z M 18.6 171.3 L 26.2 170.3952381134033 L 26.2 128.0 L 38.2 130.0 L 41.2 132.0 L 38.2 133.8 L 38.2 168.8156626701355 L 43.6 168.1 L 51.9 166.9 L 55.5 166.3731707572937 L 55.5 115.1 L 38.2 115.1 L 26.2 121.1 L 26.2 73.2 L 38.2 79.2 L 81.8 79.2 L 87.8 74.2 L 98.8 83.2 L 93.8 87.2 L 93.8 119.1 L 81.8 125.1 L 81.8 115.1 L 67.5 115.1 L 67.5 138.2 L 81.31818180084228 138.2 L 89.5 129.2 L 99.5 138.2 L 99.5 142.2 L 67.5 142.2 L 67.5 164.63012046813964 L 68.4 164.5 L 76.6 163.2 L 84.8 162.0 L 93.0 160.9 L 101.2 159.9 L 101.6 161.7 L 93.9 164.6 L 86.0 167.3 L 78.0 169.7 L 69.9 171.9 L 61.8 174.0 L 53.6 176.1 L 45.4 178.0 L 37.1 179.8 L 24.475844383239746 182.38567037582396 L 22.9 185.8 L 20.5 183.2 L 16.6 171.6 Z M 129.5 84.5 L 132.5 86.5 L 129.5 88.3 L 129.5 159.8 L 117.5 165.8 L 117.5 82.5 Z M 38.2 83.2 L 38.2 111.1 L 81.8 111.1 L 81.8 83.2 Z M 83.4 41.2 L 85.8 44.0 L 81.65425567626953 45.11046724319458 L 80.9 46.8 L 77.2 51.8 L 72.6 56.2 L 67.0 60.1 L 60.6 63.4 L 53.3 66.3 L 45.1 68.8 L 36.1 70.8 L 26.0 72.3 L 15.1 73.3 L 14.8 71.6 L 25.3 68.6 L 34.7 65.6 L 43.1 62.5 L 50.4 59.3 L 56.7 55.9 L 61.8 52.4 L 65.8 48.8 L 68.8 45.1 L 70.8 41.5 L 71.9 37.9 L 71.90706825256348 37.902028274536136 L 72.4 36.3 Z M 176.11555557250978 39.4518518447876 L 175.55 39.6875 L 175.0 40.1 L 172.9 41.6 L 170.6 43.2 L 168.1 44.8 L 165.4 46.5 L 162.6 48.3 L 159.5 50.0 L 156.5 52.1 L 155.4 50.7 L 157.8 48.1 L 159.9 45.3 L 161.8 42.6 L 163.7 40.2 L 165.3 37.8 L 166.9 35.6 L 167.93999996185303 34.0 L 126.0 34.0 L 126.0 53.8 L 126.2 54.7 L 126.4 55.3 L 126.5 55.7 L 126.7 55.8 L 126.9 56.0 L 127.2 56.2 L 127.8 56.4 L 128.7 56.5 L 130.0 56.6 L 172.0 56.6 Z M 13.2 53.9 L 13.1 49.3 L 16.2 45.9 L 18.2 45.3 L 20.0 44.5 L 21.7 43.3 L 23.4 41.8 L 24.9 40.0 L 26.4 37.6 L 27.6 34.9 L 28.7 31.7 L 29.7 28.0 L 30.1 24.0 L 31.9 23.9 L 32.4 28.1 L 32.6375 30.0 L 94.0 30.0 L 94.0 10.1 L 106.0 12.1 L 109.0 14.1 L 106.0 15.9 L 106.0 30.0 L 170.0 30.0 L 170.68571424484253 29.42857141494751 L 171.3 28.2 L 171.73420190811157 28.55483169555664 L 176.0 25.0 L 187.0 34.0 L 182.0 37.0 L 179.48413791656495 38.04827585220337 L 178.0 56.6 L 181.6 59.0 L 184.0 62.6 L 181.6 66.2 L 178.0 68.6 L 130.0 68.6 L 127.4 68.4 L 124.9 68.0 L 122.5 67.2 L 120.2 66.0 L 118.2 64.3 L 116.6 62.3 L 115.3 60.0 L 114.5 57.6 L 114.1 55.1 L 114.0 52.6 L 114.0 34.0 L 32.9 34.0 L 32.9 35.9 L 32.6 39.6 L 31.9 43.1 L 30.7 46.4 L 29.0 49.5 L 26.8 52.3 L 24.2 54.8 L 21.2 56.9 L 16.6 57.0 Z " />
</g>
</svg>
