<svg xmlns="http://www.w3.org/2000/svg" xmlns:xlink="http://www.w3.org/1999/xlink" version="1.1" baseProfile="full" viewBox="0 0 200 200" width="200" height="200">
<g fill="black">
<path d="M 132.8 102.8 L 135.7 104.9 L 132.44099140167236 106.6892596244812 L 131.6 115.8 L 129.5 127.9 L 126.7 139.2 L 123.0 149.5 L 118.5 158.8 L 113.2 167.1 L 107.0 174.5 L 100.1 180.7 L 92.4 185.7 L 84.1 189.5 L 83.2 187.9 L 90.3 182.6 L 96.5 176.7 L 102.0 170.2 L 106.8 163.0 L 110.9 155.0 L 114.3 146.2 L 117.0 136.6 L 119.0 126.0 L 120.2 114.6 L 120.8 102.3 L 120.83026485443115 102.30126104354858 L 120.9 100.0 Z M 181.8 147.4 L 183.8 147.4 L 181.8 172.4 L 185.4 174.8 L 187.8 178.4 L 185.4 182.0 L 181.8 184.4 L 158.5 184.4 L 155.9 184.3 L 153.4 183.8 L 151.0 183.0 L 148.7 181.8 L 146.7 180.2 L 145.1 178.2 L 143.8 175.9 L 143.0 173.5 L 142.6 171.0 L 142.5 168.4 L 142.5 97.4 L 92.77777776718139 97.4 L 94.0 98.5 L 94.0 102.5 L 54.41111106872559 102.5 L 59.7 103.7 L 62.6 105.8 L 59.34387702941895 107.58767538070678 L 58.5 116.8 L 56.7 128.8 L 56.43243246078491 129.9 L 69.8 129.9 L 79.8 119.9 L 91.8 129.9 L 91.8 133.9 L 56.976923084259035 133.9 L 57.9 134.5 L 61.7 137.3 L 65.3 140.3 L 68.7 143.4 L 71.9 146.7 L 75.0 150.1 L 77.9 153.7 L 80.7 157.4 L 83.3 161.2 L 85.7 165.1 L 86.0 169.7 L 83.1 173.2 L 78.5 173.5 L 75.0 170.5 L 73.4 166.7 L 71.6 162.9 L 69.7 159.1 L 67.6 155.4 L 65.4 151.7 L 63.1 148.0 L 60.7 144.4 L 55.5 137.0 L 54.89868516921997 136.20540542602538 L 54.0 139.9 L 50.5 150.1 L 46.3 159.2 L 41.3 167.2 L 35.5 174.2 L 29.0 179.9 L 21.7 184.4 L 13.8 187.6 L 13.0 185.9 L 19.6 181.2 L 25.4 175.9 L 30.5 169.9 L 34.9 163.1 L 38.7 155.5 L 41.8 146.9 L 44.3 137.5 L 44.923076915740964 133.9 L 16.8 133.9 L 16.8 129.9 L 45.615384578704834 129.9 L 46.1 127.1 L 47.2 115.7 L 47.65979700088501 104.29703483581542 L 47.6 104.3 L 47.709090900421145 102.5 L 14.5 102.5 L 14.5 98.5 L 47.7 98.5 L 47.7 76.1 L 25.7 76.1 L 25.7 72.1 L 47.7 72.1 L 47.7 49.7 L 19.0 49.7 L 19.0 45.7 L 40.7 45.7 L 39.6 45.4 L 37.3 41.4 L 37.3 38.8 L 37.2 36.2 L 37.0 33.6 L 36.7 31.1 L 36.3 28.5 L 35.1 23.3 L 34.4 20.7 L 33.6 18.0 L 32.3 15.5 L 33.7 14.5 L 35.7 16.6 L 37.8 18.7 L 39.8 20.9 L 41.6 23.2 L 43.2 25.7 L 44.7 28.3 L 46.1 31.1 L 47.3 33.9 L 48.3 36.9 L 49.2 39.9 L 47.9 44.3 L 45.52608699798584 45.7 L 60.08888893127441 45.7 L 60.7 43.7 L 61.4 40.0 L 62.3 36.4 L 63.1 32.9 L 64.0 29.5 L 64.8 26.1 L 65.7 22.8 L 66.4 19.5 L 67.2 16.3 L 67.6860047340393 14.147693538665772 L 67.5 14.1 L 68.4 11.7 L 79.2 17.1 L 81.4 20.0 L 77.41904764175415 20.838095283508302 L 76.2 23.2 L 74.6 26.2 L 73.0 29.3 L 71.3 32.4 L 67.5 38.6 L 65.5 41.8 L 63.3 44.9 L 62.775 45.7 L 70.21818180084229 45.7 L 78.4 36.7 L 88.4 45.7 L 88.4 49.7 L 59.7 49.7 L 59.7 72.1 L 64.61818180084228 72.1 L 72.8 63.1 L 82.8 72.1 L 82.8 76.1 L 59.7 76.1 L 59.7 98.5 L 75.81818180084228 98.5 L 84.0 89.5 L 90.9 95.71000003814697 L 90.9 93.4 L 131.7 93.4 L 131.7 12.4 L 143.7 14.4 L 146.7 16.4 L 143.7 18.2 L 143.7 93.4 L 169.01818180084229 93.4 L 177.2 84.4 L 187.2 93.4 L 187.2 97.4 L 154.5 97.4 L 154.5 169.7 L 154.7 170.6 L 155.0 171.5 L 155.2 171.7 L 155.4 171.8 L 155.7 172.0 L 156.3 172.2 L 157.2 172.4 L 175.8 172.4 Z M 177.2 33.8 L 179.3 36.7 L 175.5110713005066 37.431196784973146 L 175.2 38.1 L 173.2 42.6 L 171.0 47.2 L 168.7 51.8 L 166.2 56.6 L 163.6 61.4 L 160.8 66.4 L 157.9 71.4 L 154.6 76.4 L 151.1 81.4 L 149.4 80.7 L 151.2 74.8 L 153.0 69.1 L 154.8 63.6 L 156.7 58.3 L 158.4 53.2 L 160.1 48.2 L 161.7 43.4 L 163.2 38.7 L 164.6 34.1 L 165.5969554901123 30.725689029693605 L 165.5 30.7 L 166.4 28.3 Z M 111.1 65.1 L 110.2 60.5 L 109.1 56.1 L 107.8 51.9 L 106.4 48.0 L 104.8 44.1 L 103.0 40.4 L 101.1 36.7 L 99.0 33.2 L 100.3 31.9 L 103.8 34.5 L 107.1 37.4 L 110.1 40.8 L 112.9 44.5 L 115.4 48.6 L 117.6 52.9 L 119.7 57.5 L 121.4 62.5 L 122.9 67.6 L 124.2 73.1 L 123.1 77.5 L 119.2 79.9 L 114.8 78.8 L 112.4 74.9 L 111.8 69.9 Z " />
</g>
</svg>
