<svg xmlns="http://www.w3.org/2000/svg" xmlns:xlink="http://www.w3.org/1999/xlink" version="1.1" baseProfile="full" viewBox="0 0 200 200" width="200" height="200">
<g fill="black">
<path d="M 150.2 183.7 L 138.3 182.6 L 128.4 180.6 L 120.3 177.7 L 113.7 173.8 L 108.6 169.2 L 104.9 163.8 L 102.3 157.8 L 101.43178806304931 154.78410596847533 L 101.26341466903686 154.8682927131653 L 100.7 155.7 L 98.7 159.0 L 96.7 162.1 L 94.6 165.2 L 92.6 168.2 L 88.4 174.0 L 86.3 176.8 L 84.86493511199951 178.80909090042115 L 85.8 182.9 L 82.3 182.3 L 72.1 175.6 L 73.5 174.1 L 78.7 169.7 L 81.3 167.4 L 84.0 165.1 L 86.8 162.9 L 89.6 160.6 L 93.0 157.90344829559325 L 93.0 99.0 L 77.14615383148194 99.0 L 77.8 100.5 L 79.3 104.6 L 78.5 109.1 L 74.8 111.9 L 70.3 111.1 L 67.6 107.4 L 67.0 103.7 L 66.3 100.1 L 66.00216493606567 98.94175262451172 L 65.3 99.3 L 60.3 101.6 L 55.1 103.6 L 53.0 104.32692308425904 L 53.0 183.0 L 41.0 189.0 L 41.0 108.08181819915771 L 39.1 108.6 L 33.7 110.1 L 28.1 111.4 L 21.007466316223145 112.91982860565186 L 19.3 116.5 L 16.9 113.8 L 13.3 102.1 L 15.2 101.9 L 20.8 101.4 L 28.87723684310913 100.51884689331055 L 34.4 90.2 L 38.2 83.3 L 42.1 76.3 L 49.7 62.5 L 57.1 48.7 L 60.7 41.8 L 64.2 34.9 L 64.25708742141724 34.93153400421143 L 64.8 33.9 L 74.7 40.7 L 76.4 43.9 L 72.6935266494751 44.0278094291687 L 70.6 47.5 L 66.4 54.1 L 62.1 60.8 L 57.6 67.4 L 53.1 73.9 L 48.5 80.4 L 43.7 86.8 L 38.8 93.2 L 33.7 99.4 L 33.143130683898924 100.02905607223511 L 37.3 99.5 L 42.7 98.8 L 58.9 96.4 L 64.3 95.7 L 65.10032577514649 95.611074924469 L 64.4 93.3 L 63.2 90.0 L 62.0 86.9 L 60.6 83.9 L 59.1 80.9 L 57.5 78.0 L 55.5 75.3 L 56.7 74.0 L 59.6 76.0 L 62.5 78.1 L 65.2 80.5 L 67.8 83.3 L 70.1 86.2 L 72.3 89.5 L 74.3 92.9 L 75.9 96.18888893127442 L 75.9 95.0 L 93.0 95.0 L 99.0 90.0 L 110.0 99.0 L 105.0 103.0 L 105.0 153.0 L 104.19591836929321 153.40204086303712 L 106.0 155.9 L 109.7 160.3 L 113.7 164.0 L 118.2 166.8 L 123.7 169.0 L 130.6 170.6 L 139.5 171.6 L 150.5 171.9 L 164.1 171.5 L 180.4 170.4 L 191.5 169.6 L 181.3 183.5 L 164.4 184.0 Z M 36.2 124.5 L 39.0 126.8 L 35.61056995391846 128.42953367233275 L 35.3 130.5 L 34.0 136.3 L 32.6 142.1 L 30.8 147.8 L 28.8 153.4 L 26.6 158.9 L 24.1 164.3 L 21.2 169.5 L 18.1 174.5 L 14.5 179.4 L 12.9 178.5 L 14.6 172.9 L 18.0 161.9 L 19.4 156.4 L 20.7 151.0 L 21.8 145.5 L 22.7 140.0 L 23.5 134.5 L 24.0 129.0 L 24.246407890319823 124.40038671493531 L 24.2 124.4 L 24.5 121.2 Z M 65.8 148.5 L 65.0 144.5 L 64.1 140.5 L 63.0 136.8 L 61.8 133.1 L 60.5 129.5 L 59.2 126.1 L 57.7 122.6 L 56.0 119.3 L 57.4 118.1 L 60.3 120.7 L 63.2 123.5 L 65.8 126.6 L 68.2 129.9 L 70.4 133.6 L 72.4 137.4 L 74.3 141.5 L 76.0 145.7 L 77.5 150.2 L 78.8 154.9 L 77.8 159.4 L 74.0 161.9 L 69.5 160.9 L 67.0 157.1 L 66.5 152.7 Z M 169.2 140.8 L 165.5 135.1 L 162.0 129.2 L 158.8 123.0 L 155.9 116.6 L 153.3 109.9 L 152.3 106.85652170181274 L 152.3 160.0 L 140.3 166.0 L 140.3 112.2 L 136.4 119.3 L 132.2 126.1 L 127.9 132.4 L 123.3 138.4 L 118.5 143.9 L 113.4 149.0 L 107.9 153.6 L 106.6 152.3 L 110.5 146.6 L 114.2 140.7 L 117.9 134.6 L 121.5 128.4 L 124.9 121.8 L 128.1 115.1 L 131.2 108.0 L 134.1 100.6 L 136.8 93.0 L 138.0666666984558 89.0 L 107.3 89.0 L 107.3 85.0 L 140.3 85.0 L 140.3 14.0 L 152.3 16.0 L 155.3 18.0 L 152.3 19.8 L 152.3 85.0 L 162.7 85.0 L 172.7 75.0 L 184.7 85.0 L 184.7 89.0 L 152.3 89.0 L 152.3 92.9972222328186 L 153.0 94.3 L 156.4 100.7 L 159.8 106.8 L 163.3 112.7 L 166.9 118.4 L 170.7 123.7 L 174.5 128.8 L 178.5 133.6 L 182.7 138.2 L 188.1 143.6 L 177.4 151.5 L 173.1 146.3 Z M 179.8 30.8 L 182.1 33.6 L 178.3 34.46666669845581 L 176.2 39.6 L 172.2 48.6 L 167.8 57.8 L 165.5 62.4 L 163.0 67.1 L 160.3 71.7 L 157.4 76.3 L 155.7 75.6 L 156.8 70.3 L 158.0 65.1 L 159.4 60.0 L 160.7 55.1 L 162.1 50.2 L 163.4 45.4 L 164.8 40.7 L 166.0 36.1 L 167.3 31.5 L 168.25008020401 27.93719940185547 L 168.1 27.9 L 169.0 25.5 Z M 28.9 65.4 L 27.8 62.6 L 26.5 59.8 L 24.9 57.1 L 23.2 54.5 L 21.3 51.9 L 19.1 49.2 L 16.8 46.6 L 14.1 44.2 L 15.0 42.7 L 18.4 44.3 L 21.8 45.8 L 25.0 47.7 L 28.0 49.8 L 28.479947090148926 50.1942421913147 L 30.9 44.5 L 32.5 40.6 L 34.3 36.7 L 36.0 32.9 L 37.6 29.1 L 39.3 25.3 L 40.9 21.6 L 42.5 17.8 L 43.630081272125246 15.012466144561767 L 43.6 15.0 L 43.78571424484253 14.62857141494751 L 44.0 14.1 L 44.039776992797854 14.120446109771729 L 44.6 13.0 L 54.7 19.6 L 56.5 22.7 L 52.58457260131836 22.965452671051025 L 52.5 23.1 L 47.9 30.1 L 45.4 33.5 L 43.0 37.0 L 40.4 40.4 L 37.7 43.7 L 34.9 47.0 L 32.0 50.2 L 30.47162675857544 51.83026485443115 L 30.8 52.1 L 33.5 54.7 L 35.9 57.5 L 38.1 60.5 L 40.1 63.7 L 41.9 67.1 L 41.7 71.6 L 38.3 74.8 L 33.8 74.5 L 30.6 71.2 L 29.9 68.2 Z M 122.8 55.9 L 121.2 47.7 L 120.2 43.7 L 119.2 39.6 L 118.1 35.5 L 117.1 31.4 L 115.9 27.3 L 117.5 26.4 L 120.1 30.0 L 122.6 33.6 L 124.9 37.3 L 128.9 45.1 L 130.6 49.1 L 132.2 53.2 L 133.7 57.4 L 135.1 61.6 L 136.3 65.9 L 135.3 70.4 L 131.5 72.9 L 127.0 71.9 L 124.5 68.1 L 123.5 59.9 Z M 94.3 51.2 L 93.2 47.9 L 92.0 44.7 L 90.6 41.5 L 89.1 38.4 L 87.5 35.3 L 85.8 32.3 L 84.0 29.2 L 81.8 26.3 L 83.0 25.0 L 86.1 27.1 L 89.1 29.3 L 92.0 31.8 L 94.7 34.4 L 97.2 37.3 L 99.6 40.3 L 101.8 43.6 L 103.9 47.0 L 105.8 50.5 L 107.5 54.2 L 107.2 58.8 L 103.7 61.8 L 99.2 61.4 L 96.1 58.0 L 95.3 54.6 Z " />
</g>
</svg>
