<svg xmlns="http://www.w3.org/2000/svg" xmlns:xlink="http://www.w3.org/1999/xlink" version="1.1" baseProfile="full" viewBox="0 0 200 200" width="200" height="200">
<g fill="black">
<path d="M 172.0 75.0 L 184.0 85.0 L 184.0 89.0 L 143.0 89.0 L 143.0 114.0 L 155.0 114.0 L 165.0 104.0 L 177.0 114.0 L 177.0 118.0 L 143.0 118.0 L 143.0 141.0 L 155.0 141.0 L 165.0 131.0 L 177.0 141.0 L 177.0 145.0 L 143.0 145.0 L 143.0 172.0 L 165.0 172.0 L 175.0 162.0 L 187.0 172.0 L 187.0 176.0 L 102.0 176.0 L 102.0 183.0 L 90.0 189.0 L 90.0 102.68510637283325 L 86.5 107.6 L 81.3 114.4 L 75.8 121.4 L 69.7 128.5 L 68.2 127.4 L 72.6 119.2 L 74.37823638916015 115.8975609779358 L 71.2 117.4 L 65.7 119.7 L 60.1 121.9 L 54.6 124.0 L 49.1 126.0 L 38.1 129.8 L 27.3 133.6 L 25.889189147949217 134.07027025222777 L 24.7 137.8 L 21.9 135.4 L 16.7 124.5 L 17.533123016357422 124.23690853118896 L 17.6 123.1 L 20.9 121.2 L 24.8 117.5 L 29.3 111.8 L 34.2 104.6 L 39.5 96.1 L 44.8 86.8 L 47.13638210296631 82.63699188232422 L 45.1 83.3 L 36.7 85.7 L 32.6 86.8 L 28.5 87.8 L 24.6 88.9 L 20.955019378662108 89.72012062072754 L 19.2 93.4 L 16.8 90.7 L 13.0 79.2 L 14.229007625579834 79.01564884185791 L 16.7 77.4 L 19.6 74.0 L 22.9 69.1 L 26.4 62.8 L 30.0 55.6 L 33.6 47.7 L 37.0 39.7 L 40.1 31.9 L 42.8 24.7 L 44.75404224395752 19.517540073394777 L 44.7 19.5 L 45.6 17.3 L 56.1 23.2 L 58.1 26.2 L 54.46170215606689 26.710638332366944 L 53.3 29.2 L 49.9 36.2 L 46.1 43.9 L 41.9 51.8 L 37.5 59.6 L 32.9 66.8 L 28.2 73.0 L 23.4 77.8 L 22.3624059677124 78.42687969207763 L 22.9 78.4 L 27.0 78.1 L 31.2 77.9 L 35.4 77.6 L 39.7 77.4 L 44.1 77.2 L 48.6 77.1 L 50.243877506256105 77.1 L 50.3 77.0 L 55.6 67.1 L 60.7 57.6 L 65.10353841781617 49.60173645019531 L 65.1 49.6 L 66.1 47.8 L 75.9 54.9 L 77.4 58.1 L 73.84224939346313 58.16134052276611 L 70.6 63.3 L 64.9 72.5 L 58.9 82.1 L 52.8 91.6 L 46.6 100.7 L 40.4 109.0 L 34.3 116.1 L 28.4 121.4 L 27.41294002532959 121.9541389465332 L 29.8 121.4 L 35.4 120.2 L 46.8 117.8 L 58.4 115.6 L 64.3 114.6 L 70.2 113.7 L 75.8613847732544 113.14314250946045 L 76.8 111.4 L 80.9 104.0 L 84.7 97.0 L 88.2 90.3 L 90.0 86.7 L 90.0 85.0 L 90.85 85.0 L 91.4 83.9 L 94.3 77.8 L 96.9 72.1 L 99.1 66.6 L 100.62451276779174 62.507886695861814 L 100.6 62.5 L 100.75217390060425 62.16521739959717 L 101.0 61.5 L 101.04574174880982 61.519368171691895 L 101.6 60.3 L 112.1 66.2 L 114.1 69.2 L 110.26785717010497 69.72857141494751 L 109.4 71.4 L 106.5 76.9 L 103.2 82.5 L 101.63220338821411 85.0 L 162.0 85.0 Z M 15.3 166.0 L 21.4 163.8 L 27.7 161.4 L 34.1 159.1 L 40.6 156.7 L 47.3 154.2 L 61.1 149.2 L 68.3 146.8 L 75.6 144.4 L 83.2 142.1 L 83.9 143.8 L 77.2 147.9 L 70.4 151.7 L 63.8 155.3 L 57.2 158.7 L 50.7 162.0 L 38.1 168.3 L 31.9 171.3 L 23.65194606781006 175.28655939102174 L 22.9 179.1 L 19.9 177.1 L 13.4 166.8 Z M 102.0 145.0 L 102.0 172.0 L 131.0 172.0 L 131.0 145.0 Z M 102.0 118.0 L 102.0 141.0 L 131.0 141.0 L 131.0 118.0 Z M 102.0 89.0 L 102.0 114.0 L 131.0 114.0 L 131.0 89.0 Z M 135.6 76.6 L 135.0 75.0 L 134.3 73.2 L 133.4 71.3 L 132.3 69.4 L 131.1 67.4 L 129.7 65.3 L 128.2 63.1 L 126.2 61.3 L 127.3 59.8 L 129.6 61.3 L 132.2 62.5 L 134.5 63.7 L 136.7 65.1 L 138.8 66.5 L 140.7 68.0 L 142.5 69.5 L 144.2 71.2 L 145.8 72.9 L 147.2 74.7 L 147.3 79.3 L 144.2 82.7 L 139.6 82.8 L 136.2 79.7 L 136.0 78.2 Z M 91.7 65.8 L 81.7 55.8 L 87.7 49.8 L 87.7 25.1 L 99.7 27.1 L 102.7 29.1 L 99.7 30.9 L 99.7 53.8 L 128.0 53.8 L 128.0 14.3 L 140.0 16.3 L 143.0 18.3 L 140.0 20.1 L 140.0 53.8 L 167.6 53.8 L 167.6 25.1 L 179.6 27.1 L 182.6 29.1 L 179.6 30.9 L 179.6 61.8 L 167.6 67.8 L 167.6 57.8 L 99.7 57.8 Z " />
</g>
</svg>
