<svg xmlns="http://www.w3.org/2000/svg" xmlns:xlink="http://www.w3.org/1999/xlink" version="1.1" baseProfile="full" viewBox="0 0 200 200" width="200" height="200">
<g fill="black">
<path d="M 54.4 131.0 L 145.5 131.0 L 151.5 126.0 L 162.5 135.0 L 157.5 139.0 L 157.5 181.5 L 145.5 187.5 L 145.5 179.5 L 54.4 179.5 L 54.4 182.5 L 42.4 188.5 L 42.4 125.0 Z M 54.4 157.3 L 54.4 175.5 L 145.5 175.5 L 145.5 157.3 Z M 54.4 135.0 L 54.4 153.3 L 145.5 153.3 L 145.5 135.0 Z M 167.5 24.0 L 168.3 27.5 L 164.63331098556517 26.6637375831604 L 156.2 34.5 L 144.0 44.7 L 130.9 54.5 L 127.6916666984558 56.7 L 165.0 56.7 L 175.0 46.7 L 187.0 56.7 L 187.0 60.7 L 121.85833330154419 60.7 L 116.9 64.1 L 107.8664764404297 69.67774610519409 L 112.8 70.5 L 115.8 72.5 L 112.8 74.3 L 112.8 86.0 L 136.61818180084228 86.0 L 144.8 77.0 L 154.8 86.0 L 154.8 90.0 L 112.8 90.0 L 112.8 109.5 L 160.61818180084228 109.5 L 168.8 100.5 L 178.8 109.5 L 178.8 113.5 L 41.2 113.5 L 41.2 109.5 L 100.8 109.5 L 100.8 73.97261142730713 L 86.3 82.1 L 69.6 90.6 L 52.1 98.7 L 33.7 106.3 L 14.3 113.5 L 13.6 111.8 L 32.1 102.9 L 49.8 93.9 L 66.6 84.8 L 82.5 75.5 L 97.5 66.0 L 105.284375 60.7 L 17.0 60.7 L 17.0 56.7 L 86.0 56.7 L 86.0 36.2 L 34.0 36.2 L 34.0 32.2 L 86.0 32.2 L 86.0 13.0 L 98.0 15.0 L 101.0 17.0 L 98.0 18.8 L 98.0 32.2 L 117.0 32.2 L 127.0 22.2 L 139.0 32.2 L 139.0 34.68333330154419 L 148.5 26.1 L 159.3 15.3 Z M 98.0 36.2 L 98.0 56.7 L 111.159375 56.7 L 111.6 56.4 L 124.8 46.5 L 137.1 36.4 L 137.32135925292968 36.2 Z " />
</g>
</svg>
