<svg xmlns="http://www.w3.org/2000/svg" xmlns:xlink="http://www.w3.org/1999/xlink" version="1.1" baseProfile="full" viewBox="0 0 200 200" width="200" height="200">
<g fill="black">
<path d="M 124.6 175.9 L 145.8 175.9 L 146.7 175.7 L 147.3 175.5 L 147.6 175.3 L 147.8 175.2 L 148.0 175.0 L 148.3 174.1 L 148.5 173.2 L 148.6 171.9 L 148.6 154.6 L 51.4 154.6 L 51.4 182.5 L 39.4 188.5 L 39.4 98.3 L 51.4 104.3 L 148.6 104.3 L 154.6 99.3 L 165.6 108.3 L 160.6 112.3 L 160.6 171.9 L 160.4 174.5 L 160.0 177.0 L 159.2 179.4 L 157.9 181.7 L 156.3 183.7 L 154.3 185.3 L 152.0 186.5 L 149.6 187.4 L 147.1 187.8 L 144.6 187.9 L 144.6 181.9 L 124.6 178.9 Z M 51.4 131.4 L 51.4 150.6 L 148.6 150.6 L 148.6 131.4 Z M 51.4 108.3 L 51.4 127.4 L 148.6 127.4 L 148.6 108.3 Z M 149.4 96.0 L 147.3 96.8 L 145.2 97.5 L 143.0 98.1 L 140.8 98.6 L 138.6 99.0 L 136.4 99.3 L 134.1 99.4 L 131.9 99.5 L 131.9 93.5 L 111.9 90.5 L 111.9 87.5 L 131.9 87.5 L 135.3 87.3 L 138.5 86.9 L 141.7 86.1 L 143.3 85.5 L 144.8 84.9 L 146.4 84.3 L 147.9 83.5 L 149.5 82.3 L 151.2 80.4 L 152.9 77.4 L 154.5 73.5 L 156.0 68.5 L 157.1 62.5 L 158.0 55.6 L 158.6 47.7 L 158.9 38.9 L 158.9 31.1 L 54.63333330154419 31.1 L 50.8 34.1 L 45.8 37.5 L 40.5 40.8 L 38.455696201324464 41.87594938278198 L 50.0 43.8 L 53.0 45.8 L 50.0 47.6 L 50.0 79.5 L 123.3 79.5 L 129.76842107772828 73.03157892227173 L 126.6 72.0 L 125.2 70.5 L 123.4 68.8 L 121.2 67.1 L 118.5 65.3 L 115.4 63.4 L 112.0 61.5 L 108.1 59.5 L 103.8 57.5 L 99.2 55.4 L 97.04276943206787 54.493963146209715 L 95.5 56.0 L 90.8 60.0 L 85.4 63.9 L 79.3 67.8 L 72.6 71.5 L 65.3 75.1 L 57.2 78.6 L 56.3 77.0 L 63.3 71.9 L 69.7 67.0 L 75.5 62.4 L 80.7 58.0 L 85.1 53.7 L 88.9 49.5 L 91.9 45.6 L 94.3 41.8 L 96.0 38.2 L 97.1 35.0 L 97.6 33.5 L 108.4 38.9 L 110.6 41.7 L 106.62164278030396 42.53754892349243 L 106.2 43.4 L 103.3 47.7 L 99.7 51.9 L 99.30799999237061 52.28266668319702 L 100.1 52.4 L 105.2 53.1 L 110.0 53.9 L 114.4 54.9 L 118.5 56.0 L 122.3 57.2 L 125.8 58.5 L 129.0 59.8 L 131.9 61.3 L 134.5 63.0 L 136.5 67.1 L 135.22574853897095 71.10479040145874 L 145.3 79.5 L 145.3 83.5 L 50.0 83.5 L 50.0 90.5 L 38.0 96.5 L 38.0 42.11578950881958 L 34.8 43.8 L 28.7 46.7 L 22.2 49.3 L 15.3 51.5 L 14.5 49.9 L 20.5 45.9 L 26.1 42.0 L 31.4 38.2 L 36.2 34.5 L 40.7 30.7 L 44.8 27.0 L 48.5 23.2 L 51.9 19.4 L 54.8 15.7 L 56.75316781997681 12.731184959411621 L 56.7 12.7 L 57.8 11.2 L 67.1 18.8 L 68.3 22.2 L 64.4091477394104 21.864581680297853 L 63.5 22.9 L 59.7 26.8 L 59.35135135650635 27.1 L 158.9 27.1 L 164.9 22.1 L 175.9 31.1 L 170.9 34.1 L 170.9 39.1 L 170.6 48.4 L 170.0 56.8 L 169.0 64.4 L 167.6 71.3 L 165.9 77.3 L 163.7 82.7 L 161.0 87.3 L 157.6 91.2 L 153.5 94.1 L 151.5 95.1 Z " />
</g>
</svg>
