<svg xmlns="http://www.w3.org/2000/svg" xmlns:xlink="http://www.w3.org/1999/xlink" version="1.1" baseProfile="full" viewBox="0 0 200 200" width="200" height="200">
<g fill="black">
<path d="M 122.0 175.7 L 143.2 175.7 L 144.1 175.5 L 144.7 175.3 L 145.0 175.1 L 145.2 175.0 L 145.4 174.8 L 145.7 173.9 L 145.9 173.0 L 146.0 171.7 L 146.0 157.7 L 54.0 157.7 L 54.0 181.9 L 42.0 187.9 L 42.0 106.6 L 54.0 112.6 L 146.0 112.6 L 152.0 107.6 L 163.0 116.6 L 158.0 120.6 L 158.0 171.7 L 157.8 174.3 L 157.4 176.8 L 156.6 179.2 L 155.3 181.5 L 153.7 183.5 L 151.7 185.1 L 149.4 186.3 L 147.0 187.2 L 144.5 187.6 L 142.0 187.7 L 142.0 181.7 L 122.0 178.7 Z M 54.0 137.1 L 54.0 153.7 L 146.0 153.7 L 146.0 137.1 Z M 54.0 116.6 L 54.0 133.1 L 146.0 133.1 L 146.0 116.6 Z M 19.1 106.1 L 19.6 101.5 L 23.1 98.6 L 26.0 98.1 L 28.7 97.3 L 31.0 96.5 L 33.1 95.4 L 35.1 94.2 L 36.8 92.7 L 38.5 90.9 L 39.9 88.8 L 41.3 86.4 L 42.0 83.5 L 43.8 83.6 L 43.8 90.0 L 43.3 93.1 L 42.3 96.2 L 40.7 99.1 L 38.7 101.8 L 36.3 104.3 L 33.4 106.5 L 30.1 108.4 L 26.5 110.1 L 22.0 109.6 Z M 169.1 102.3 L 167.9 100.5 L 166.2 98.5 L 164.1 96.4 L 161.6 94.1 L 158.7 91.8 L 155.4 89.3 L 151.7 86.7 L 147.5 84.3 L 148.2 82.7 L 152.9 84.2 L 157.3 85.5 L 161.4 86.9 L 165.1 88.4 L 168.5 90.0 L 171.6 91.7 L 174.4 93.5 L 176.9 95.4 L 179.1 97.5 L 181.0 99.8 L 181.2 104.4 L 178.3 107.9 L 173.7 108.2 L 170.2 105.3 L 169.9 103.9 Z M 121.7 100.4 L 121.3 99.0 L 120.5 97.3 L 119.3 95.5 L 117.8 93.5 L 115.8 91.5 L 113.4 89.2 L 110.7 86.9 L 107.5 84.9 L 108.2 83.3 L 111.9 84.7 L 115.4 85.8 L 118.6 87.1 L 121.6 88.5 L 124.2 89.9 L 126.6 91.5 L 128.8 93.3 L 130.6 95.3 L 132.2 97.6 L 133.3 100.2 L 132.3 104.6 L 128.5 107.1 L 124.0 106.1 L 121.5 102.2 L 121.7 101.5 Z M 80.4 107.1 L 76.6 104.6 L 75.6 100.2 L 76.1 99.5 L 76.5 98.7 L 76.7 97.6 L 76.6 96.3 L 76.3 94.8 L 75.7 93.0 L 74.6 91.1 L 73.3 89.0 L 71.6 86.8 L 69.3 84.9 L 70.3 83.4 L 72.9 85.0 L 75.6 86.2 L 78.1 87.6 L 80.3 89.1 L 82.3 90.7 L 84.0 92.6 L 85.4 94.6 L 86.5 97.0 L 87.2 99.5 L 87.4 102.2 L 84.9 106.1 Z M 19.0 73.7 L 94.0 73.7 L 94.0 56.7 L 35.0 56.7 L 35.0 52.7 L 94.0 52.7 L 94.0 37.2 L 27.0 37.2 L 27.0 33.2 L 70.66800003051758 33.2 L 69.3 32.3 L 69.0 31.3 L 68.4 30.1 L 67.5 28.6 L 66.1 27.0 L 64.5 25.3 L 62.5 23.4 L 60.2 21.5 L 57.7 19.4 L 54.8 17.2 L 51.5 15.3 L 52.2 13.7 L 55.9 15.0 L 59.4 15.9 L 62.7 16.9 L 65.8 17.9 L 68.5 19.0 L 71.1 20.2 L 73.4 21.4 L 75.6 22.6 L 77.5 24.0 L 79.3 25.7 L 80.1 30.2 L 78.12631578445435 33.2 L 116.8307692527771 33.2 L 118.5 31.8 L 121.2 28.9 L 130.9 19.2 L 133.0 17.0 L 135.0 15.0 L 136.7 13.1 L 137.66000003814696 11.960000038146973 L 137.6 11.9 L 138.03953485488893 11.50930233001709 L 138.3 11.2 L 138.33760328292846 11.244352626800538 L 138.5 11.1 L 146.1 20.4 L 146.5 24.0 L 142.40838708877564 22.611774158477782 L 141.4 23.2 L 138.9 24.6 L 136.2 26.1 L 133.3 27.6 L 130.3 29.2 L 123.7 32.5 L 122.01999998092651 33.2 L 153.0 33.2 L 163.0 23.2 L 175.0 33.2 L 175.0 37.2 L 106.0 37.2 L 106.0 52.7 L 146.8181818008423 52.7 L 155.0 43.7 L 165.0 52.7 L 165.0 56.7 L 106.0 56.7 L 106.0 73.7 L 162.0 73.7 L 172.0 63.7 L 184.0 73.7 L 184.0 77.7 L 19.0 77.7 Z " />
</g>
</svg>
