<svg xmlns="http://www.w3.org/2000/svg" xmlns:xlink="http://www.w3.org/1999/xlink" version="1.1" baseProfile="full" viewBox="0 0 200 200" width="200" height="200">
<g fill="black">
<path d="M 182.5 174.4 L 180.3 177.7 L 177.0 179.9 L 37.2 179.9 L 34.7 179.8 L 32.2 179.4 L 29.9 178.7 L 27.6 177.5 L 25.6 175.9 L 24.0 174.0 L 22.7 171.8 L 21.9 169.4 L 21.4 166.9 L 21.2 164.4 L 21.2 61.0 L 33.2 63.0 L 36.2 65.0 L 33.2 66.8 L 33.2 165.6 L 33.3 166.5 L 33.5 167.2 L 33.6 167.6 L 34.3 168.3 L 34.9 168.5 L 35.9 168.8 L 37.2 168.9 L 177.0 168.9 L 180.3 171.1 Z M 50.3 145.8 L 101.3 145.8 L 101.3 114.4 L 62.4 114.4 L 62.4 110.4 L 101.3 110.4 L 101.3 84.5 L 54.6 84.5 L 54.6 80.5 L 142.4181818008423 80.5 L 150.6 71.5 L 160.6 80.5 L 160.6 84.5 L 113.3 84.5 L 113.3 110.4 L 131.5 110.4 L 141.5 100.4 L 153.5 110.4 L 153.5 114.4 L 113.3 114.4 L 113.3 145.8 L 142.2 145.8 L 152.2 135.8 L 164.2 145.8 L 164.2 149.8 L 50.3 149.8 Z M 139.3 63.4 L 139.3 67.4 L 78.1 67.4 L 78.1 63.4 L 121.11818180084228 63.4 L 129.3 54.4 Z M 141.3 12.6 L 144.3 14.6 L 141.3 16.4 L 141.3 28.8 L 164.0 28.8 L 174.0 18.8 L 186.0 28.8 L 186.0 32.8 L 141.3 32.8 L 141.3 46.3 L 129.3 52.3 L 129.3 32.8 L 104.4 32.8 L 104.4 28.8 L 129.3 28.8 L 129.3 10.6 Z M 69.6 12.6 L 72.6 14.6 L 69.6 16.4 L 69.6 28.8 L 72.5 28.8 L 82.5 18.8 L 94.5 28.8 L 94.5 32.8 L 69.6 32.8 L 69.6 46.3 L 57.6 52.3 L 57.6 32.8 L 12.9 32.8 L 12.9 28.8 L 57.6 28.8 L 57.6 10.6 Z " />
</g>
</svg>
