<svg xmlns="http://www.w3.org/2000/svg" xmlns:xlink="http://www.w3.org/1999/xlink" version="1.1" baseProfile="full" viewBox="0 0 200 200" width="200" height="200">
<g fill="black">
<path d="M 122.0 175.2 L 143.2 175.2 L 144.1 175.0 L 144.7 174.8 L 145.0 174.6 L 145.2 174.5 L 145.4 174.3 L 145.7 173.4 L 145.9 172.5 L 146.0 171.2 L 146.0 148.9 L 54.0 148.9 L 54.0 182.4 L 42.0 188.4 L 42.0 84.8 L 54.0 90.8 L 146.0 90.8 L 152.0 85.8 L 163.0 94.8 L 158.0 98.8 L 158.0 171.2 L 157.8 173.8 L 157.4 176.3 L 156.6 178.7 L 155.3 181.0 L 153.7 183.0 L 151.7 184.6 L 149.4 185.8 L 147.0 186.7 L 144.5 187.1 L 142.0 187.2 L 142.0 181.2 L 122.0 178.2 Z M 54.0 121.9 L 54.0 144.9 L 146.0 144.9 L 146.0 121.9 Z M 54.0 94.8 L 54.0 117.9 L 146.0 117.9 L 146.0 94.8 Z M 16.0 67.9 L 90.0 67.9 L 90.0 11.9 L 102.0 13.9 L 105.0 15.9 L 102.0 17.7 L 102.0 36.8 L 150.0 36.8 L 160.0 26.8 L 172.0 36.8 L 172.0 40.8 L 102.0 40.8 L 102.0 67.9 L 162.0 67.9 L 172.0 57.9 L 184.0 67.9 L 184.0 71.9 L 16.0 71.9 Z " />
</g>
</svg>
