<svg xmlns="http://www.w3.org/2000/svg" xmlns:xlink="http://www.w3.org/1999/xlink" version="1.1" baseProfile="full" viewBox="0 0 200 200" width="200" height="200">
<g fill="black">
<path d="M 105.60225439071655 112.13864736557007 L 105.16484851837158 116.58000001907348 L 106.8 125.1 L 109.8 133.9 L 113.8 141.8 L 117.28204298019409 146.39892473220826 L 120.7 144.6 L 126.2 141.7 L 131.7 139.1 L 137.0 136.4 L 142.2 133.9 L 147.2 131.3 L 152.1 128.8 L 156.8 126.3 L 161.3 123.7 L 164.8051954269409 121.708411693573 L 164.8 121.7 L 164.80745306015015 121.70712900161743 L 165.7 121.2 L 167.0277297973633 123.83087196350098 L 174.0 130.5 L 174.2 133.8 L 170.430011844635 132.19311981201173 L 166.3 134.0 L 161.3 136.0 L 156.2 137.9 L 150.9 139.9 L 145.5 141.7 L 139.8 143.5 L 134.1 145.2 L 128.1 146.8 L 121.9 148.2 L 119.0204423904419 148.6949239730835 L 119.1 148.8 L 125.5 155.1 L 133.3 160.6 L 142.5 165.5 L 153.1 169.8 L 165.2 173.4 L 178.8 176.3 L 188.0 178.1 L 176.2 189.2 L 161.8 185.4 L 148.9 180.8 L 137.5 175.4 L 127.6 169.1 L 119.2 161.9 L 112.5 153.9 L 107.4 145.2 L 104.2 135.7 L 103.03245706558228 127.91638021469116 L 101.6 133.6 L 96.6 144.7 L 89.7 154.5 L 81.1 163.2 L 70.8 170.5 L 58.9 176.6 L 45.3 181.5 L 30.2 185.1 L 13.4 187.4 L 13.1 185.6 L 29.3 181.4 L 43.6 176.4 L 56.0 170.7 L 66.7 164.2 L 75.4 156.9 L 82.4 148.8 L 87.7 140.0 L 91.4 130.3 L 93.5 119.7 L 94.0 108.1 L 94.0 105.7 L 106.0 108.1 L 109.0 110.1 Z M 25.7 154.1 L 26.2 149.6 L 29.7 146.6 L 34.0 145.6 L 37.8 144.3 L 41.1 142.8 L 43.9 141.1 L 46.4 139.2 L 48.4 137.0 L 50.2 134.4 L 51.6 131.4 L 52.8 127.9 L 53.2 123.9 L 55.0 123.7 L 55.7 128.0 L 56.1 132.2 L 55.6 136.3 L 54.5 140.3 L 52.5 144.1 L 49.9 147.6 L 46.6 150.8 L 42.6 153.6 L 38.2 156.0 L 33.1 158.2 L 28.6 157.6 Z M 156.6 116.4 L 148.2 113.1 L 140.3 109.5 L 133.1 105.4 L 126.4 101.0 L 120.4 96.1 L 115.1 90.9 L 110.6 85.2 L 108.80280447006226 82.15475196838379 L 101.1 89.2 L 91.8 96.2 L 81.5 102.5 L 70.2 108.3 L 57.8 113.4 L 44.4 118.0 L 30.0 121.8 L 14.5 125.0 L 14.1 123.2 L 28.9 118.2 L 42.6 112.9 L 55.2 107.4 L 66.7 101.5 L 77.1 95.3 L 86.3 88.7 L 94.4 81.7 L 101.4 74.4 L 107.3 66.8 L 109.16000003814698 63.7 L 77.55102043151855 63.7 L 75.2 66.1 L 69.9 70.8 L 64.2 75.1 L 58.0 79.1 L 51.4 82.7 L 44.4 86.0 L 36.9 88.9 L 28.9 91.3 L 28.2 89.7 L 35.3 85.5 L 41.9 81.3 L 48.0 77.1 L 53.7 72.8 L 58.9 68.4 L 63.7 63.9 L 67.9 59.2 L 71.7 54.4 L 75.1 49.5 L 77.44816818237305 45.222979354858396 L 77.4 45.2 L 77.54347829818725 44.97826089859009 L 66.5 50.5 L 66.5 32.5 L 14.7 32.5 L 14.7 28.5 L 66.5 28.5 L 66.5 11.8 L 78.5 13.8 L 81.5 15.8 L 78.5 17.6 L 78.5 28.5 L 121.4 28.5 L 121.4 11.8 L 133.4 13.8 L 136.4 15.8 L 133.4 17.6 L 133.4 28.5 L 163.2 28.5 L 173.2 18.5 L 185.2 28.5 L 185.2 32.5 L 133.4 32.5 L 133.4 44.5 L 121.4 50.5 L 121.4 32.5 L 78.5 32.5 L 78.5 43.5 L 88.3 50.4 L 89.9 53.7 L 86.00178575515747 53.7 L 84.4 56.0 L 81.2692307472229 59.7 L 111.3 59.7 L 111.81999998092651 59.26666669845581 L 112.1 58.8 L 112.2665904045105 58.89450798034668 L 117.3 54.7 L 128.3 63.7 L 123.3 66.7 L 120.22569904327392 67.98095874786377 L 116.4 73.5 L 110.78748331069946 79.98206157684326 L 113.7 82.4 L 119.1 86.5 L 124.8 90.4 L 130.9 93.9 L 137.5 97.2 L 144.5 100.1 L 152.1 102.8 L 160.1 105.1 L 168.7 107.1 L 177.7 108.8 L 187.0 110.7 L 175.2 121.8 L 165.6 119.3 Z " />
</g>
</svg>
