<svg xmlns="http://www.w3.org/2000/svg" xmlns:xlink="http://www.w3.org/1999/xlink" version="1.1" baseProfile="full" viewBox="0 0 200 200" width="200" height="200">
<g fill="black">
<path d="M 106.0 81.0 L 151.8181818008423 81.0 L 160.0 72.0 L 170.0 81.0 L 170.0 85.0 L 106.0 85.0 L 106.0 104.0 L 137.8181818008423 104.0 L 146.0 95.0 L 156.0 104.0 L 156.0 108.0 L 106.0 108.0 L 106.0 127.0 L 160.0 127.0 L 170.0 117.0 L 182.0 127.0 L 182.0 131.0 L 106.0 131.0 L 106.0 141.98709678649902 L 109.4 142.7 L 115.3 144.3 L 120.9 146.2 L 126.2 148.3 L 131.1 150.6 L 135.8 153.1 L 140.1 155.7 L 144.2 158.5 L 148.0 161.5 L 151.4 164.7 L 152.9 169.1 L 150.9 173.2 L 146.6 174.6 L 142.5 172.7 L 140.0 169.7 L 137.2 166.7 L 134.1 163.7 L 130.6 160.8 L 126.8 157.9 L 122.6 155.0 L 118.1 152.1 L 113.2 149.2 L 108.0 146.2 L 106.0 145.0518518447876 L 106.0 185.0 L 94.0 191.0 L 94.0 131.0 L 19.0 131.0 L 19.0 127.0 L 94.0 127.0 L 94.0 108.0 L 51.0 108.0 L 51.0 104.0 L 94.0 104.0 L 94.0 85.0 L 36.0 85.0 L 36.0 81.0 L 94.0 81.0 L 94.0 62.0 L 21.0 62.0 L 21.0 58.0 L 94.0 58.0 L 94.0 40.0 L 43.0 40.0 L 43.0 36.0 L 94.0 36.0 L 94.0 13.0 L 106.0 15.0 L 109.0 17.0 L 106.0 18.8 L 106.0 36.0 L 140.0 36.0 L 146.0 31.0 L 157.0 40.0 L 152.0 44.0 L 152.0 58.0 L 163.8181818008423 58.0 L 172.0 49.0 L 182.0 58.0 L 182.0 62.0 L 106.0 62.0 Z M 106.0 40.0 L 106.0 58.0 L 140.0 58.0 L 140.0 40.0 Z " />
</g>
</svg>
