<svg xmlns="http://www.w3.org/2000/svg" xmlns:xlink="http://www.w3.org/1999/xlink" version="1.1" baseProfile="full" viewBox="0 0 200 200" width="200" height="200">
<g fill="black">
<path d="M 97.0 93.1 L 97.0 97.1 L 58.8 97.1 L 58.8 183.2 L 46.8 189.2 L 46.8 97.1 L 13.4 97.1 L 13.4 93.1 L 75.0 93.1 L 85.0 83.1 Z M 139.74778757095336 103.851327419281 L 139.1 114.0 L 138.1614679336548 119.54587154388427 L 139.8 126.1 L 142.2 133.4 L 145.1 140.3 L 148.7 146.5 L 152.8 152.3 L 157.7 157.7 L 163.3 162.6 L 169.5 167.1 L 176.6 171.3 L 184.4 175.0 L 190.0 177.7 L 178.7 186.9 L 170.2 182.1 L 162.6 176.7 L 155.9 170.8 L 150.1 164.5 L 145.2 157.7 L 141.3 150.5 L 138.4 142.9 L 136.5 135.0 L 136.01979303359985 130.01785249710082 L 133.4 139.0 L 128.7 149.8 L 122.7 159.5 L 115.5 167.9 L 107.1 175.1 L 97.5 181.0 L 86.8 185.5 L 75.1 188.7 L 74.6 187.0 L 85.3 182.1 L 94.8 176.4 L 102.9 170.0 L 109.9 162.8 L 115.7 154.7 L 120.3 145.8 L 123.9 135.9 L 126.4 124.9 L 127.7 113.0 L 128.0 99.9 L 128.0 97.5 L 140.0 99.9 L 143.0 101.9 Z M 34.8 110.8 L 37.8 112.8 L 34.8 114.6 L 34.8 135.2 L 34.3 141.8 L 33.5 147.9 L 32.3 153.5 L 30.7 158.6 L 28.8 163.3 L 26.5 167.4 L 23.9 171.0 L 20.8 173.9 L 17.4 176.1 L 13.9 177.7 L 13.0 176.1 L 15.2 173.5 L 17.1 170.6 L 18.7 167.5 L 20.0 164.2 L 21.1 160.4 L 21.9 156.3 L 22.5 151.7 L 22.9 146.7 L 23.0 141.2 L 22.8 135.2 L 22.8 108.8 Z M 84.7 110.8 L 87.7 112.8 L 84.7 114.6 L 84.7 161.6 L 72.7 167.6 L 72.7 108.8 Z M 134.0 13.5 L 137.0 15.5 L 134.0 17.3 L 134.0 31.7 L 165.0 31.7 L 175.0 21.7 L 187.0 31.7 L 187.0 35.7 L 134.0 35.7 L 134.0 51.1 L 125.1865385055542 55.5067307472229 L 134.6 59.7 L 137.0 62.4 L 133.263076877594 63.46769227981567 L 132.4 65.9 L 129.8 71.9 L 126.8 77.8 L 123.5 83.4 L 119.8 88.9 L 119.49230766296387 89.3 L 170.7 89.3 L 171.29076919555663 88.80769233703613 L 171.9 87.7 L 172.27894735336304 87.98421049118042 L 176.7 84.3 L 187.7 93.3 L 182.7 96.3 L 177.928125 98.28828125 L 177.6 98.6 L 175.3 100.5 L 172.9 102.6 L 170.3 104.8 L 167.5 107.0 L 164.4 109.4 L 161.1 111.8 L 157.6 114.3 L 154.0 117.0 L 152.8 115.7 L 155.6 112.3 L 158.0 108.7 L 160.4 105.5 L 162.6 102.4 L 164.6 99.5 L 166.4 96.8 L 168.1 94.3 L 168.725 93.3 L 116.41538457870483 93.3 L 115.8 94.1 L 111.4 99.1 L 106.6 103.9 L 101.4 108.4 L 95.8 112.5 L 94.6 111.2 L 98.7 105.7 L 102.6 100.4 L 106.2 95.1 L 109.6 89.7 L 112.6 84.4 L 115.3 78.9 L 117.8 73.4 L 119.8 67.9 L 121.6 62.2 L 122.86007633209229 57.411709785461426 L 122.8 57.4 L 123.05454549789428 56.572727298736574 L 122.0 57.1 L 122.0 35.7 L 78.0 35.7 L 78.0 51.1 L 66.0 57.1 L 66.0 35.7 L 13.0 35.7 L 13.0 31.7 L 66.0 31.7 L 66.0 11.5 L 78.0 13.5 L 81.0 15.5 L 78.0 17.3 L 78.0 31.7 L 122.0 31.7 L 122.0 11.5 Z M 86.4 65.4 L 86.4 69.4 L 23.0 69.4 L 23.0 65.4 L 64.4 65.4 L 74.4 55.4 Z " />
</g>
</svg>
