<svg xmlns="http://www.w3.org/2000/svg" xmlns:xlink="http://www.w3.org/1999/xlink" version="1.1" baseProfile="full" viewBox="0 0 200 200" width="200" height="200">
<g fill="black">
<path d="M 107.0 126.8 L 95.0 132.8 L 95.0 61.8 L 107.0 67.8 L 114.73478260040284 67.8 L 116.3 66.0 L 119.3 61.0 L 120.7 58.7 L 122.1 56.5 L 123.3 54.3 L 124.5 52.2 L 125.6 50.1 L 126.6 48.1 L 127.07139463424683 47.10483360290527 L 126.9 47.0 L 127.45662651062011 46.29156627655029 L 127.5 46.2 L 127.5181393623352 46.21327724456787 L 128.0 45.6 L 137.2 53.3 L 138.5 56.7 L 133.92185792922973 56.312021827697755 L 133.6 56.6 L 131.7 58.2 L 129.7 59.8 L 127.6 61.4 L 125.3 63.1 L 123.0 64.7 L 120.6 66.2 L 118.0 67.8 L 165.0 67.8 L 171.0 62.8 L 182.0 71.8 L 177.0 75.8 L 177.0 125.8 L 165.0 131.8 L 165.0 119.8 L 136.2507462501526 119.8 L 134.4 123.8 L 130.5 130.0 L 126.0 135.7 L 120.6 140.9 L 114.6 145.5 L 107.8 149.5 L 106.2764705657959 150.2 L 137.0 150.2 L 137.0 123.2 L 149.0 125.2 L 152.0 127.2 L 149.0 129.0 L 149.0 150.2 L 166.0 150.2 L 176.0 140.2 L 188.0 150.2 L 188.0 154.2 L 149.0 154.2 L 149.0 182.0 L 137.0 188.0 L 137.0 154.2 L 83.0 154.2 L 83.0 150.2 L 100.98800001144409 150.2 L 105.7 146.4 L 111.2 141.4 L 116.0 136.2 L 120.0 131.0 L 123.4 125.5 L 126.0 119.8 L 107.0 119.8 Z M 14.4 169.3 L 21.2 168.4 L 28.2 167.5 L 35.4 166.4 L 42.7 165.2 L 50.1 164.0 L 51.38838586807251 163.76574802398682 L 51.5 163.5 L 53.4 158.7 L 55.3 154.1 L 57.1 149.7 L 58.7 145.5 L 60.2 141.5 L 61.6 137.6 L 62.8 133.9 L 63.9 130.4 L 64.54413042068481 128.0381883621216 L 64.4 128.0 L 65.3 125.6 L 76.1 131.1 L 78.2 134.0 L 74.32387313842773 134.74802446365356 L 72.6 138.1 L 70.6 141.7 L 68.4 145.4 L 66.1 149.3 L 63.5 153.2 L 60.7 157.1 L 57.7 161.2 L 56.36285715103149 162.86129865646362 L 57.8 162.6 L 65.6 161.2 L 73.6 159.7 L 81.8 158.3 L 90.2 156.9 L 90.7 158.6 L 82.8 161.9 L 75.0 164.9 L 67.2 167.5 L 59.6 170.0 L 52.1 172.2 L 44.7 174.3 L 37.4 176.3 L 30.2 178.0 L 23.2 179.6 L 20.43596487045288 180.20087718963623 L 18.8 183.8 L 16.3 181.1 L 12.4 169.6 Z M 30.9 151.3 L 30.5 148.7 L 29.8 146.1 L 29.0 143.4 L 28.0 140.7 L 26.7 138.0 L 25.3 135.1 L 23.7 132.2 L 21.6 129.5 L 22.9 128.2 L 25.7 130.4 L 28.5 132.4 L 31.1 134.7 L 33.5 137.1 L 35.7 139.7 L 37.6 142.5 L 39.3 145.3 L 40.8 148.3 L 42.1 151.4 L 43.1 154.7 L 42.0 159.1 L 38.1 161.5 L 33.7 160.4 L 31.3 156.5 L 31.2 153.9 Z M 32.9 81.4 L 66.6 81.4 L 72.6 76.4 L 83.6 85.4 L 78.6 89.4 L 78.6 118.2 L 66.6 124.2 L 66.6 118.2 L 32.9 118.2 L 20.9 124.2 L 20.9 75.4 Z M 107.0 95.8 L 107.0 115.8 L 127.28813562393188 115.8 L 127.9 113.9 L 129.3 107.8 L 129.9 101.3 L 129.98208951950073 95.8 Z M 141.89367084503175 95.8 L 141.3 102.5 L 139.8 110.0 L 137.92112674713135 115.8 L 165.0 115.8 L 165.0 95.8 Z M 32.9 85.4 L 32.9 114.2 L 66.6 114.2 L 66.6 85.4 Z M 107.0 71.8 L 107.0 91.8 L 130.0 91.8 L 130.0 71.8 Z M 142.0 71.8 L 142.0 91.8 L 165.0 91.8 L 165.0 71.8 Z M 86.0 60.6 L 86.0 64.6 L 14.4 64.6 L 14.4 60.6 L 64.0 60.6 L 74.0 50.6 Z M 134.0 14.1 L 137.0 16.1 L 134.0 17.9 L 134.0 29.4 L 165.0 29.4 L 175.0 19.4 L 187.0 29.4 L 187.0 33.4 L 134.0 33.4 L 134.0 39.0 L 122.0 45.0 L 122.0 33.4 L 78.0 33.4 L 78.0 46.1 L 66.0 52.1 L 66.0 33.4 L 13.0 33.4 L 13.0 29.4 L 66.0 29.4 L 66.0 12.1 L 78.0 14.1 L 81.0 16.1 L 78.0 17.9 L 78.0 29.4 L 122.0 29.4 L 122.0 12.1 Z " />
</g>
</svg>
