<svg xmlns="http://www.w3.org/2000/svg" xmlns:xlink="http://www.w3.org/1999/xlink" version="1.1" baseProfile="full" viewBox="0 0 200 200" width="200" height="200">
<g fill="black">
<path d="M 154.5 176.6 L 165.7 176.6 L 166.6 176.4 L 167.2 176.2 L 167.5 176.0 L 167.7 175.9 L 167.9 175.7 L 168.2 174.8 L 168.4 173.9 L 168.5 172.6 L 168.5 144.9 L 150.5 144.9 L 150.5 181.2 L 138.5 187.2 L 138.5 144.9 L 120.0 144.9 L 120.0 183.1 L 109.0 188.6 L 109.0 89.3 L 120.0 94.8 L 138.5 94.8 L 138.5 76.5 L 104.0 76.5 L 104.0 72.5 L 138.5 72.5 L 138.5 48.1 L 150.5 50.1 L 153.5 52.1 L 150.5 53.9 L 150.5 72.5 L 169.8181818008423 72.5 L 178.0 63.5 L 188.0 72.5 L 188.0 76.5 L 150.5 76.5 L 150.5 94.8 L 168.5 94.8 L 174.5 89.8 L 185.5 98.8 L 180.5 102.8 L 180.5 172.6 L 180.3 175.2 L 179.9 177.7 L 179.1 180.1 L 177.8 182.4 L 176.2 184.4 L 174.2 186.0 L 171.9 187.3 L 169.5 188.1 L 167.0 188.5 L 164.5 188.6 L 164.5 182.6 L 154.5 179.6 Z M 73.4 177.6 L 83.4 177.6 L 84.3 177.5 L 85.0 177.4 L 85.8 177.0 L 86.0 176.7 L 86.2 176.3 L 86.4 175.5 L 86.5 174.5 L 86.6 173.1 L 86.6 165.940625 L 84.7 167.9 L 80.2 167.9 L 76.8 164.8 L 76.2 162.5 L 75.79022159576417 161.21212520599366 L 73.3 164.3 L 70.7 167.2 L 67.8 169.8 L 65.5 171.70344829559326 L 65.5 180.6 L 53.5 186.6 L 53.5 168.5970588684082 L 52.4 169.6 L 47.8 169.3 L 44.8 165.9 L 44.2 163.2 L 43.653773593902585 160.83301887512206 L 43.3 161.3 L 40.7 164.4 L 37.8 167.2 L 34.8 169.8 L 32.3 171.88333330154418 L 32.3 182.6 L 20.3 188.6 L 20.3 93.22432432174682 L 17.2 94.9 L 13.4 96.8 L 12.4 95.4 L 15.2 92.4 L 20.3 86.3192307472229 L 20.3 81.0 L 23.281818199157716 82.49090909957886 L 27.7 76.6 L 32.1 69.8 L 34.2 66.2 L 35.7429497718811 63.42269039154053 L 35.7 63.4 L 36.7 61.8 L 46.3 69.0 L 47.8 72.3 L 43.786245346069336 72.23197021484376 L 43.5 72.6 L 40.6 76.1 L 37.6 79.3 L 34.5 82.4 L 31.2 85.4 L 30.40344829559326 86.05172414779663 L 32.3 87.0 L 53.5 87.0 L 53.5 60.4 L 13.4 60.4 L 13.4 56.4 L 87.31818180084228 56.4 L 95.5 47.4 L 105.5 56.4 L 105.5 60.4 L 65.5 60.4 L 65.5 87.0 L 86.6 87.0 L 91.8915789604187 82.18947372436523 L 90.7 80.7 L 88.5 78.3 L 86.0 75.8 L 83.3 73.2 L 80.4 70.6 L 77.3 68.0 L 73.8 65.5 L 74.7 63.9 L 78.7 65.4 L 82.7 66.8 L 86.5 68.5 L 90.1 70.2 L 93.4 72.1 L 96.5 74.2 L 99.5 76.3 L 102.2 78.6 L 104.8 81.0 L 107.1 83.6 L 108.0 88.0 L 105.6 91.9 L 101.1 92.8 L 100.5407265663147 92.44149141311645 L 97.6 94.5 L 97.6 173.1 L 97.5 175.5 L 97.1 177.9 L 96.5 180.1 L 95.5 182.3 L 94.1 184.2 L 92.3 185.9 L 90.2 187.1 L 88.0 188.0 L 85.7 188.4 L 83.4 188.6 L 83.4 183.1 L 73.4 180.3 Z M 43.42952852249145 122.79702234268188 L 43.2 123.1 L 40.7 126.1 L 38.0 128.8 L 35.1 131.1 L 32.3 133.3 L 32.3 167.96000003814697 L 32.4 167.8 L 34.1 164.4 L 37.3 157.6 L 38.7 154.1 L 39.920218563079835 150.9622950553894 L 39.8 150.7 L 38.6 148.3 L 37.2 145.9 L 35.8 143.4 L 34.0 141.3 L 35.1 139.9 L 37.5 141.6 L 40.2 143.1 L 42.02565965652466 144.39317560195923 L 42.4 143.1 L 43.4 139.2 L 44.09306373596191 136.11971693038942 L 44.0 136.1 L 44.8 133.6 L 53.5 137.55454549789428 L 53.5 129.671875 L 52.6 130.6 L 48.0 130.5 L 44.7 127.3 L 44.1 125.0 Z M 75.59363059997558 123.00764331817626 L 73.1 126.0 L 70.5 128.7 L 67.7 131.1 L 65.5 132.8285714149475 L 65.5 167.44666662216187 L 68.3 161.1 L 69.7 157.7 L 71.1 154.2 L 71.93571424484253 151.692857170105 L 71.7 151.2 L 70.5 148.9 L 69.2 146.6 L 67.8 144.2 L 66.0 142.1 L 67.2 140.8 L 69.5 142.4 L 72.0 143.8 L 74.0095588684082 145.13970584869384 L 74.6 143.1 L 75.5 139.2 L 76.19306373596191 136.11971693038942 L 76.1 136.1 L 76.9 133.6 L 86.6 138.00909090042114 L 86.6 128.640625 L 84.7 130.6 L 80.1 130.5 L 76.8 127.3 L 76.2 125.0 Z M 86.39456367492676 142.3193133354187 L 86.2 142.8 L 84.4 146.8 L 82.5 150.7 L 81.74003496170045 152.03898601531984 L 82.7 153.1 L 84.5 155.3 L 86.2 157.6 L 86.6 158.2 L 86.6 142.26428575515746 Z M 52.3 146.9 L 50.3 150.7 L 49.660062885284425 151.80534591674805 L 51.1 153.7 L 52.9 156.3 L 53.5 157.28823528289794 L 53.5 144.1666666984558 Z M 120.0 121.8 L 120.0 140.9 L 138.5 140.9 L 138.5 121.8 Z M 150.5 121.8 L 150.5 140.9 L 168.5 140.9 L 168.5 121.8 Z M 32.3 91.0 L 32.3 129.78235292434692 L 32.7 129.1 L 34.3 126.0 L 35.8 122.8 L 37.2 119.5 L 38.6 116.0 L 39.33783779144287 113.95675678253174 L 38.1 112.1 L 36.7 110.1 L 35.1 108.0 L 33.1 106.3 L 34.0 104.8 L 36.5 106.0 L 39.1 107.0 L 41.27158174514771 108.04235925674439 L 42.3 104.7 L 43.3 100.5 L 44.064395904541016 97.21309747695923 L 44.0 97.2 L 44.27619047164917 96.30238094329835 L 44.3 96.2 L 44.30705089569092 96.20208463668823 L 44.8 94.6 L 53.5 98.55454549789428 L 53.5 91.0 Z M 65.5 128.657142829895 L 66.7 126.0 L 68.1 122.8 L 69.5 119.5 L 70.8 116.1 L 71.51327438354492 114.06991147994995 L 70.2 112.1 L 68.8 110.1 L 67.2 108.0 L 65.5 106.55500001907349 Z M 86.4 103.35 L 86.1 104.1 L 84.3 108.3 L 82.3 112.4 L 81.31000003814697 114.11000003814698 L 82.6 115.4 L 84.5 117.7 L 86.3 120.1 L 86.6 120.5875 L 86.6 103.3 Z M 52.1 108.4 L 50.1 112.4 L 49.14666662216187 114.04666662216187 L 50.5 115.4 L 52.4 117.7 L 53.5 119.16666669845581 L 53.5 105.23157892227172 Z M 120.0 98.8 L 120.0 117.8 L 138.5 117.8 L 138.5 98.8 Z M 150.5 98.8 L 150.5 117.8 L 168.5 117.8 L 168.5 98.8 Z M 65.5 91.0 L 65.5 105.8 L 66.1 104.8 L 68.6 106.0 L 71.2 107.0 L 73.46810951232911 108.08869256973267 L 74.4 104.7 L 75.4 100.5 L 76.16439590454101 97.21309747695923 L 76.1 97.2 L 76.37619047164917 96.30238094329835 L 76.4 96.2 L 76.40705089569092 96.20208463668823 L 76.9 94.6 L 86.6 99.00909090042114 L 86.6 91.0 Z M 164.2 62.6 L 162.6 59.6 L 161.6 58.1 L 160.6 56.7 L 159.4 55.4 L 158.1 54.0 L 156.6 52.6 L 154.9 51.8 L 155.4 50.1 L 157.4 50.6 L 159.6 50.7 L 161.7 51.1 L 163.8 51.6 L 165.9 52.4 L 168.0 53.4 L 169.9 54.6 L 171.9 55.9 L 173.7 57.4 L 175.5 59.1 L 176.4 63.6 L 173.9 67.5 L 169.4 68.3 L 165.5 65.8 L 164.9 64.2 Z M 134.0 15.0 L 137.0 17.0 L 134.0 18.8 L 134.0 30.1 L 165.0 30.1 L 175.0 20.1 L 187.0 30.1 L 187.0 34.1 L 134.0 34.1 L 134.0 46.4 L 122.0 52.4 L 122.0 34.1 L 78.0 34.1 L 78.0 46.4 L 66.0 52.4 L 66.0 34.1 L 13.0 34.1 L 13.0 30.1 L 66.0 30.1 L 66.0 13.0 L 78.0 15.0 L 81.0 17.0 L 78.0 18.8 L 78.0 30.1 L 122.0 30.1 L 122.0 13.0 Z " />
</g>
</svg>
