<svg xmlns="http://www.w3.org/2000/svg" xmlns:xlink="http://www.w3.org/1999/xlink" version="1.1" baseProfile="full" viewBox="0 0 200 200" width="200" height="200">
<g fill="black">
<path d="M 59.725206565856936 122.96487607955933 L 59.3 129.1 L 58.1 138.6 L 56.2 147.3 L 53.7 155.2 L 50.6 162.4 L 46.8 168.8 L 42.3 174.3 L 37.2 178.8 L 31.5 182.4 L 25.3 184.8 L 24.6 183.1 L 29.4 179.2 L 33.6 174.9 L 37.2 170.2 L 40.3 164.9 L 42.8 159.0 L 44.9 152.4 L 46.4 145.2 L 47.5 137.2 L 48.0 128.4 L 48.0 116.6 L 60.0 119.0 L 63.0 121.0 Z M 182.0 143.0 L 184.0 143.0 L 182.0 168.0 L 185.6 170.4 L 188.0 174.0 L 185.6 177.6 L 182.0 180.0 L 84.0 180.0 L 81.4 179.8 L 78.9 179.4 L 76.5 178.6 L 74.2 177.3 L 72.2 175.7 L 70.6 173.7 L 69.3 171.4 L 68.5 169.0 L 68.1 166.5 L 68.0 164.0 L 68.0 116.0 L 80.0 118.0 L 83.0 120.0 L 80.0 121.8 L 80.0 165.2 L 80.2 166.1 L 80.5 167.0 L 80.9 167.4 L 81.8 167.7 L 82.7 167.9 L 84.0 168.0 L 176.0 168.0 Z M 166.6 93.3 L 162.1 88.9 L 158.0 83.9 L 154.3 78.6 L 150.9 72.9 L 147.8 66.7 L 145.2 60.1 L 143.91219511032105 56.00243902206421 L 142.0 60.1 L 138.1 67.1 L 133.9 73.6 L 129.3 79.7 L 124.4 85.4 L 119.1 90.5 L 115.92162160873413 93.11081085205078 L 125.5 97.9 L 158.2 97.9 L 164.2 92.9 L 175.2 101.9 L 170.2 105.9 L 170.2 149.5 L 158.2 155.5 L 158.2 143.5 L 125.5 143.5 L 125.5 155.5 L 113.5 161.5 L 113.5 95.1 L 107.4 99.2 L 101.1 102.6 L 100.0 101.1 L 105.1 96.2 L 109.9 91.2 L 114.3 86.0 L 118.5 80.5 L 122.4 74.8 L 126.0 68.7 L 129.2 62.3 L 132.2 55.6 L 134.9 48.5 L 137.2 41.0 L 137.21807231903077 41.006024074554446 L 137.7 39.5 L 148.6 44.8 L 150.9 47.6 L 147.14699478149413 48.45594854354859 L 146.28636274337768 50.62140989303589 L 146.8 51.5 L 150.5 57.6 L 154.2 63.2 L 157.9 68.3 L 161.8 73.0 L 165.7 77.2 L 169.8 81.0 L 174.1 84.2 L 178.4 87.1 L 182.9 89.5 L 187.6 92.2 L 176.4 101.0 L 171.3 97.4 Z M 125.5 101.9 L 125.5 139.5 L 158.2 139.5 L 158.2 101.9 Z M 62.4 109.8 L 59.9 109.4 L 57.5 108.6 L 55.2 107.3 L 53.2 105.7 L 51.6 103.7 L 50.3 101.4 L 49.5 99.0 L 49.1 96.5 L 49.0 94.0 L 49.0 86.62244901657104 L 34.4 89.9 L 34.0 88.16666669845581 L 34.0 126.0 L 33.86757497787475 126.19863758087158 L 33.9 126.2 L 33.1 134.9 L 32.0 143.1 L 30.6 150.8 L 29.0 157.9 L 27.1 164.5 L 24.8 170.6 L 22.3 176.0 L 19.5 180.9 L 16.2 185.1 L 12.7 188.5 L 11.2 187.4 L 13.0 183.1 L 14.7 178.5 L 16.2 173.6 L 17.6 168.2 L 18.8 162.4 L 19.9 156.1 L 20.7 149.2 L 21.3 141.9 L 21.8 134.1 L 22.0 125.7 L 22.0 47.0 L 34.0 53.0 L 49.0 53.0 L 49.0 12.0 L 61.0 14.0 L 64.0 16.0 L 61.0 17.8 L 61.0 32.0 L 77.81818180084228 32.0 L 86.0 23.0 L 96.0 32.0 L 96.0 36.0 L 61.0 36.0 L 61.0 53.0 L 85.0 53.0 L 91.0 48.0 L 102.0 57.0 L 97.0 60.0 L 94.52786884307861 61.03005466461182 L 94.4 61.3 L 93.3 63.2 L 92.1 65.1 L 90.8 67.1 L 89.4 69.1 L 87.8 71.1 L 86.1 73.1 L 84.8 75.4 L 83.1 74.5 L 84.1 72.1 L 84.5 69.6 L 84.8 67.2 L 85.09195404052734 64.96168584823609 L 85.0 65.0 L 85.0 57.0 L 34.0 57.0 L 34.0 85.88775510787964 L 49.0 82.52040815353394 L 49.0 62.0 L 61.0 64.0 L 64.0 66.0 L 61.0 67.8 L 61.0 79.82653064727783 L 64.79105253219605 78.97547798156738 L 71.0 68.6 L 82.5 75.0 L 83.4 78.9 L 61.0 83.92857141494751 L 61.0 95.2 L 61.2 96.1 L 61.5 97.0 L 61.9 97.4 L 62.8 97.7 L 63.7 97.9 L 65.0 98.0 L 82.0 98.0 L 88.0 73.0 L 90.0 73.0 L 88.0 98.0 L 91.6 100.4 L 94.0 104.0 L 91.6 107.6 L 88.0 110.0 L 65.0 110.0 Z M 135.8 22.3 L 137.7 25.3 L 133.87046632766723 25.83747844696045 L 133.4 26.7 L 130.8 31.0 L 128.1 35.1 L 125.1 39.0 L 122.0 42.8 L 118.7 46.4 L 115.2 49.7 L 111.4 52.8 L 107.4 55.7 L 103.2 58.2 L 102.1 56.8 L 105.0 53.0 L 107.7 49.2 L 110.4 45.5 L 112.9 41.7 L 115.3 37.9 L 117.5 34.0 L 119.6 30.0 L 123.2 21.8 L 124.37027778625489 18.523222255706788 L 124.3 18.5 L 124.66666669845581 17.69333333969116 L 124.7 17.6 L 124.70762367248535 17.60322799682617 L 125.3 16.3 Z M 164.8 40.6 L 163.0 37.4 L 161.1 34.4 L 159.1 31.3 L 156.9 28.3 L 154.7 25.4 L 152.4 22.3 L 149.8 19.5 L 150.9 18.1 L 154.3 20.0 L 157.8 22.0 L 161.0 24.2 L 164.1 26.6 L 167.1 29.2 L 170.0 32.0 L 172.7 35.0 L 175.3 38.1 L 177.7 41.3 L 180.0 44.7 L 180.4 49.2 L 177.6 52.8 L 173.0 53.2 L 169.4 50.3 L 168.0 47.0 Z " />
</g>
</svg>
