<svg xmlns="http://www.w3.org/2000/svg" xmlns:xlink="http://www.w3.org/1999/xlink" version="1.1" baseProfile="full" viewBox="0 0 200 200" width="200" height="200">
<g fill="black">
<path d="M 168.8 142.0 L 165.12940187454222 140.40709896087645 L 162.1 142.1 L 158.7 143.9 L 155.1 145.7 L 151.3 147.5 L 147.5 149.2 L 143.4 150.9 L 139.2 152.5 L 135.571692276001 153.736923122406 L 138.6 155.9 L 146.0 160.3 L 154.0 164.1 L 162.6 167.5 L 171.7 170.4 L 181.5 172.7 L 190.1 174.8 L 178.4 185.6 L 168.0 182.3 L 158.2 178.5 L 149.1 174.1 L 140.8 169.0 L 133.1 163.4 L 126.1 157.2 L 119.9 150.4 L 114.5 143.1 L 110.1 135.2 L 107.31031942367554 128.42506141662597 L 104.5 130.2 L 97.9 134.3 L 90.9 138.3 L 83.2 142.2 L 75.0 146.0 L 74.0 146.40909090042115 L 74.0 170.51956520080566 L 84.2 169.3 L 102.8 166.9 L 112.1 165.8 L 121.4 164.8 L 130.8 164.0 L 131.1 165.8 L 122.1 168.6 L 113.0 171.1 L 103.9 173.4 L 94.8 175.6 L 85.7 177.6 L 76.5 179.6 L 67.3 181.5 L 58.2 183.3 L 49.0 185.0 L 43.82122535705567 185.90065641403197 L 42.2 189.3 L 39.8 186.6 L 36.1 175.0 L 38.1 174.7 L 47.3 173.7 L 56.5 172.6 L 62.0 171.94946231842042 L 62.0 151.20851068496705 L 56.8 153.2 L 46.8 156.6 L 36.3 159.9 L 25.1 162.9 L 13.2 165.7 L 12.7 164.0 L 23.8 159.3 L 34.4 154.9 L 44.5 150.5 L 53.9 146.2 L 62.7 141.9 L 70.9 137.6 L 78.5 133.3 L 85.4 129.1 L 87.88108110427856 127.4 L 18.0 127.4 L 18.0 123.4 L 95.0 123.4 L 95.0 108.4 L 107.0 110.4 L 110.0 112.4 L 107.0 114.2 L 107.0 123.4 L 164.0 123.4 L 174.0 113.4 L 186.0 123.4 L 186.0 127.4 L 109.35714282989503 127.4 L 113.6 132.9 L 119.2 139.5 L 125.2 145.5 L 131.6 150.9 L 132.66994819641113 151.66424865722655 L 133.3 151.2 L 136.9 148.3 L 143.9 143.1 L 147.2 140.6 L 150.3 138.1 L 153.4 135.7 L 156.2 133.3 L 159.0 131.0 L 160.85288066864013 129.36091318130494 L 160.8 129.3 L 161.6 128.7 L 168.7 138.4 Z M 140.6 104.9 L 154.6 104.9 L 155.8 104.8 L 156.7 104.7 L 157.3 104.5 L 157.6 104.3 L 157.8 104.2 L 158.0 104.0 L 158.1 103.6 L 158.3 103.1 L 158.5 102.1 L 158.6 100.9 L 158.6 60.4 L 41.4 60.4 L 41.4 109.0 L 29.4 115.0 L 29.4 50.4 L 41.4 56.4 L 116.31724138259888 56.4 L 117.3 54.9 L 118.9 51.9 L 120.4 49.1 L 121.8 46.3 L 123.1 43.6 L 124.4 41.0 L 125.6 38.5 L 127.6 33.7 L 127.77391300201415 33.2 L 63.73999996185303 33.2 L 64.7 33.6 L 67.3 34.3 L 69.7 35.4 L 72.1 36.6 L 74.3 38.0 L 76.4 39.7 L 78.4 41.6 L 80.2 43.6 L 81.9 45.8 L 83.5 48.3 L 83.4 52.8 L 80.2 56.1 L 75.6 56.0 L 72.4 52.7 L 71.9 50.7 L 71.4 48.8 L 70.7 46.8 L 69.9 44.9 L 69.0 43.1 L 66.6 39.3 L 65.1 37.5 L 63.5 35.6 L 61.5 34.2 L 62.0 33.2 L 18.3 33.2 L 18.3 29.2 L 94.0 29.2 L 94.0 13.3 L 106.0 15.3 L 109.0 17.3 L 106.0 19.1 L 106.0 29.2 L 159.7 29.2 L 169.7 19.2 L 181.7 29.2 L 181.7 33.2 L 132.93088235855103 33.2 L 138.9 37.3 L 140.5 40.5 L 136.21624364852906 40.64771575927735 L 135.4 41.6 L 133.4 43.8 L 131.4 45.9 L 127.0 50.3 L 124.6 52.4 L 122.0 54.6 L 119.56999998092651 56.4 L 158.6 56.4 L 164.6 51.4 L 175.6 60.4 L 170.6 64.4 L 170.6 100.9 L 170.4 103.5 L 170.0 106.0 L 169.2 108.4 L 167.9 110.6 L 166.3 112.7 L 164.3 114.3 L 162.0 115.5 L 159.6 116.3 L 157.1 116.8 L 154.6 116.9 L 154.6 110.9 L 140.6 107.9 Z M 78.4 72.8 L 121.5 72.8 L 127.5 67.8 L 138.5 76.8 L 133.5 80.8 L 133.5 101.4 L 121.5 107.4 L 121.5 99.4 L 78.4 99.4 L 78.4 102.4 L 66.4 108.4 L 66.4 66.8 Z M 78.4 76.8 L 78.4 95.4 L 121.5 95.4 L 121.5 76.8 Z " />
</g>
</svg>
