<svg xmlns="http://www.w3.org/2000/svg" xmlns:xlink="http://www.w3.org/1999/xlink" version="1.1" baseProfile="full" viewBox="0 0 200 200" width="200" height="200">
<g fill="black">
<path d="M 54.0 153.0 L 146.0 153.0 L 152.0 148.0 L 163.0 157.0 L 158.0 161.0 L 158.0 179.0 L 146.0 185.0 L 146.0 177.0 L 54.0 177.0 L 54.0 180.0 L 42.0 186.0 L 42.0 147.0 Z M 54.0 157.0 L 54.0 173.0 L 146.0 173.0 L 146.0 157.0 Z M 155.0 138.0 L 155.0 142.0 L 45.0 142.0 L 45.0 138.0 L 140.7777777671814 138.0 L 147.0 131.0 Z M 155.0 122.0 L 155.0 126.0 L 45.0 126.0 L 45.0 122.0 L 140.7777777671814 122.0 L 147.0 115.0 Z M 188.0 105.0 L 188.0 109.0 L 12.0 109.0 L 12.0 105.0 L 169.8181818008423 105.0 L 178.0 96.0 Z M 160.0 91.0 L 160.0 95.0 L 40.0 95.0 L 40.0 91.0 L 141.8181818008423 91.0 L 150.0 82.0 Z M 94.0 30.3 L 97.0 32.3 L 94.0 34.1 L 94.0 52.2 L 92.8 58.1 L 90.2 63.5 L 86.2 68.0 L 81.2 71.7 L 75.1 74.8 L 68.0 77.4 L 59.9 79.5 L 50.7 81.1 L 40.5 82.2 L 29.1 82.7 L 28.8 80.9 L 39.9 78.4 L 49.6 75.9 L 58.2 73.2 L 65.4 70.3 L 71.3 67.3 L 75.9 64.1 L 79.1 61.0 L 81.0 57.9 L 81.14265270233155 57.456191539764404 L 75.0 59.1 L 68.0 60.9 L 53.8 64.1 L 46.8 65.5 L 39.8 67.0 L 32.8 68.4 L 22.846057415008545 70.24858932495117 L 21.2 73.7 L 18.8 71.0 L 15.1 59.4 L 17.1 59.1 L 24.1 58.4 L 31.0 57.719718265533444 L 31.0 17.3 L 42.40224723815918 23.00112361907959 L 48.7 21.4 L 54.6 20.1 L 60.6 18.9 L 72.6 16.3 L 78.7 15.0 L 84.7 13.7 L 95.90765552520752 11.12775115966797 L 95.9 11.1 L 95.92794456481934 11.123094654083252 L 96.9 10.9 L 97.12622947692871 12.113412857055664 L 108.0 21.1 L 108.3 24.1 L 103.8950065612793 21.837976360321044 L 99.1 22.7 L 86.5 24.3 L 80.2 25.0 L 67.8 26.0 L 61.6 26.4 L 55.4 26.7 L 49.3 26.8 L 43.2 26.6 L 43.0 26.587096786499025 L 43.0 56.53661975860596 L 45.4 56.3 L 52.6 55.7 L 59.7 55.0 L 66.9 54.4 L 74.2 53.8 L 81.5 53.5 L 81.95560283660889 53.487517738342284 L 82.0 52.2 L 82.0 28.3 Z M 148.9 61.2 L 162.1 61.2 L 163.0 61.0 L 163.6 60.8 L 163.9 60.6 L 164.1 60.5 L 164.3 60.3 L 164.5 60.0 L 164.6 59.4 L 164.8 58.5 L 164.9 57.2 L 164.9 24.5 L 125.0 24.5 L 125.0 78.3 L 113.0 84.3 L 113.0 14.5 L 125.0 20.5 L 164.9 20.5 L 170.9 15.5 L 181.9 24.5 L 176.9 28.5 L 176.9 57.2 L 176.7 59.8 L 176.3 62.3 L 175.5 64.7 L 174.3 67.0 L 172.6 69.0 L 170.6 70.6 L 168.3 71.8 L 165.9 72.6 L 163.4 73.1 L 160.9 73.2 L 160.9 67.2 L 148.9 64.2 Z " />
</g>
</svg>
