<svg xmlns="http://www.w3.org/2000/svg" xmlns:xlink="http://www.w3.org/1999/xlink" version="1.1" baseProfile="full" viewBox="0 0 200 200" width="200" height="200">
<g fill="black">
<path d="M 162.4 184.0 L 158.1 181.7 L 153.1 179.5 L 147.6 177.2 L 141.4 174.9 L 134.6 172.7 L 127.3 170.5 L 119.3 168.1 L 110.8 165.6 L 111.1 163.8 L 120.0 164.4 L 128.4 165.2 L 136.1 166.3 L 143.4 167.6 L 150.1 169.1 L 156.3 170.7 L 161.9 172.5 L 167.1 174.4 L 171.8 176.5 L 175.9 178.8 L 178.3 182.7 L 177.4 187.2 L 173.5 189.6 L 169.0 188.6 L 166.1 186.3 Z M 79.92765960693359 162.9276596069336 L 86.1 169.1 L 86.3 172.4 L 82.63586816787719 170.90950574874878 L 79.3 172.4 L 74.2 174.4 L 68.6 176.5 L 62.5 178.4 L 55.9 180.4 L 48.8 182.3 L 41.2 184.1 L 33.0 185.9 L 24.4 187.4 L 15.2 188.8 L 14.7 187.1 L 23.4 183.8 L 31.6 180.7 L 39.3 177.8 L 46.4 175.0 L 53.1 172.4 L 59.2 169.7 L 64.8 167.2 L 69.8 164.6 L 74.3 162.2 L 77.3255446434021 160.338126373291 L 77.3 160.3 L 77.33333330154419 160.3333333015442 L 78.2 159.8 Z M 56.0 97.4 L 144.0 97.4 L 150.0 92.4 L 161.0 101.4 L 156.0 105.4 L 156.0 156.5 L 144.0 162.5 L 144.0 156.5 L 56.0 156.5 L 56.0 159.5 L 44.0 165.5 L 44.0 91.4 Z M 56.0 138.2 L 56.0 152.5 L 144.0 152.5 L 144.0 138.2 Z M 56.0 119.8 L 56.0 134.2 L 144.0 134.2 L 144.0 119.8 Z M 56.0 101.4 L 56.0 115.8 L 144.0 115.8 L 144.0 101.4 Z M 64.7 39.4 L 63.5 47.6 L 62.09078950881958 52.7 L 80.5 52.7 L 90.5 42.7 L 102.5 52.7 L 102.5 56.7 L 76.8 56.7 L 76.8 74.43488368988037 L 82.8 72.9 L 87.3 71.8 L 91.8 70.8 L 101.2 69.0 L 101.8 70.7 L 93.6 75.5 L 89.5 77.7 L 81.3 81.7 L 73.3 85.5 L 65.55309410095215 89.07549505233764 L 64.6 93.0 L 61.7 90.8 L 55.7 80.2 L 57.6 79.5 L 64.8 77.56829271316528 L 64.8 56.7 L 60.766197204589844 56.7 L 58.4 62.3 L 54.4 68.8 L 49.6 74.6 L 43.9 79.7 L 37.5 84.1 L 30.2 87.8 L 22.2 90.7 L 13.4 92.8 L 12.8 91.1 L 20.7 87.2 L 27.7 83.1 L 33.7 78.7 L 38.9 74.0 L 43.2 69.1 L 46.6 63.8 L 49.3 58.2 L 49.775 56.7 L 34.6222222328186 56.7 L 34.4 57.8 L 21.5 61.4 L 27.0 33.7 L 38.4 38.0 L 40.9 40.5 L 37.69977674484253 41.46610517501831 L 35.43030300140381 52.7 L 51.04166669845581 52.7 L 51.2 52.2 L 52.3 45.7 L 52.7 38.8 L 52.7 31.9 L 19.6 31.9 L 19.6 27.9 L 52.7 27.9 L 52.7 12.8 L 64.7 14.8 L 67.7 16.8 L 64.7 18.6 L 64.7 27.9 L 75.8 27.9 L 85.8 17.9 L 97.8 27.9 L 97.8 31.9 L 64.7 31.9 L 64.7 39.1 L 64.50645160675049 39.390322589874266 Z M 183.3 69.0 L 185.3 69.0 L 183.3 82.0 L 186.0 83.8 L 187.8 86.5 L 186.0 89.2 L 183.3 91.0 L 153.9 91.0 L 151.5 90.7 L 149.2 90.1 L 147.0 89.1 L 145.1 87.7 L 143.4 85.8 L 142.1 83.7 L 141.1 81.4 L 140.6 79.0 L 140.3 76.5 L 140.3 65.7125 L 138.4 68.8 L 133.6 74.6 L 127.9 79.7 L 121.4 84.1 L 114.2 87.8 L 106.1 90.7 L 97.3 92.8 L 96.7 91.1 L 104.7 87.2 L 111.6 83.1 L 117.7 78.7 L 122.9 74.0 L 127.2 69.1 L 130.6 63.8 L 133.2 58.2 L 133.675 56.7 L 118.08743715286255 56.7 L 117.8 58.0 L 104.8 61.2 L 111.0 33.6 L 122.2 38.1 L 124.7 40.7 L 121.40520162582398 41.69465608596802 L 118.97185926437378 52.7 L 134.9416666984558 52.7 L 135.1 52.2 L 136.2 45.7 L 136.6 38.8 L 136.6 31.9 L 103.9 31.9 L 103.9 27.9 L 136.6 27.9 L 136.6 12.8 L 148.6 14.8 L 151.6 16.8 L 148.6 18.6 L 148.6 27.9 L 159.2 27.9 L 169.2 17.9 L 181.2 27.9 L 181.2 31.9 L 148.6 31.9 L 148.6 39.1 L 148.47027025222778 39.29459457397461 L 148.6 39.3 L 147.4 47.5 L 146.04935064315796 52.7 L 164.0 52.7 L 174.0 42.7 L 186.0 52.7 L 186.0 56.7 L 152.3 56.7 L 152.3 76.5 L 152.2 77.7 L 152.2 78.7 L 152.3 79.4 L 152.4 79.9 L 152.5 80.2 L 152.7 80.6 L 153.1 81.0 L 153.8 81.4 L 154.9 81.7 L 156.3 82.0 L 178.8 82.0 Z " />
</g>
</svg>
