<svg xmlns="http://www.w3.org/2000/svg" xmlns:xlink="http://www.w3.org/1999/xlink" version="1.1" baseProfile="full" viewBox="0 0 200 200" width="200" height="200">
<g fill="black">
<path d="M 179.0 119.9 L 175.131888961792 118.2524712562561 L 173.3 119.2 L 170.3 120.6 L 167.2 122.0 L 163.8 123.3 L 160.3 124.7 L 156.7 125.9 L 152.8 127.1 L 151.32138538360596 127.49670152664184 L 154.4 133.5 L 158.5 140.5 L 163.0 146.9 L 167.6 152.6 L 172.5 157.6 L 177.6 162.1 L 182.9 165.9 L 186.2 168.2 L 175.2 176.6 L 169.3 171.5 L 163.9 165.7 L 158.9 159.4 L 154.5 152.5 L 150.4 145.1 L 146.8 137.0 L 143.7 128.4 L 141.0 119.3 L 139.0 109.5 L 137.7087378501892 100.0 L 132.7 100.0 L 130.7 102.0 L 126.1 106.5 L 121.2 110.6 L 117.72810497283936 113.30807809829712 L 123.5 117.6 L 130.1 123.7 L 135.6 129.9 L 140.0 136.4 L 143.3 143.0 L 145.5 149.8 L 146.5 156.7 L 146.2 163.7 L 144.7 170.7 L 141.9 177.6 L 141.29476957321168 177.4699875831604 L 140.1 179.4 L 138.6 181.4 L 136.9 183.2 L 135.1 184.8 L 133.0 186.1 L 130.9 187.2 L 128.6 188.1 L 126.2 188.7 L 123.8 189.0 L 121.3 189.1 L 121.3 183.1 L 101.3 180.1 L 101.3 177.1 L 122.7 177.1 L 123.9 176.9 L 125.0 176.6 L 127.0 175.8 L 127.8 175.2 L 128.4285714149475 174.65 L 130.4 171.2 L 132.9 166.4 L 134.6 161.6 L 135.5 156.7 L 135.41428098678588 152.24260988235474 L 131.2 155.2 L 125.2 159.0 L 118.8 162.5 L 112.1 165.8 L 105.2 168.9 L 97.8 171.7 L 90.2 174.2 L 82.2 176.3 L 73.9 178.0 L 73.3 176.3 L 80.9 172.7 L 88.2 169.2 L 95.2 165.6 L 101.9 162.0 L 108.1 158.3 L 114.1 154.5 L 119.6 150.6 L 124.9 146.6 L 129.7 142.4 L 132.3785979270935 139.84045085906982 L 129.6 133.9 L 128.465274143219 132.10104436874389 L 127.4 132.9 L 122.3 136.3 L 117.2 139.5 L 111.8 142.5 L 106.3 145.2 L 100.6 147.8 L 94.7 150.1 L 88.6 152.2 L 82.3 153.9 L 75.9 155.3 L 75.3 153.6 L 81.0 150.4 L 86.5 147.3 L 91.9 144.2 L 97.1 141.1 L 102.1 137.8 L 106.9 134.5 L 111.6 131.1 L 116.0 127.6 L 120.3 123.9 L 121.91055784225463 122.44656982421876 L 120.5 120.5 L 115.80152921676635 114.78352727890015 L 111.0 118.2 L 105.6 121.5 L 100.0 124.6 L 94.3 127.4 L 88.4 129.8 L 82.2 131.9 L 75.9 133.5 L 75.2 131.8 L 80.7 128.4 L 85.9 125.0 L 91.1 121.7 L 96.0 118.2 L 100.8 114.5 L 105.4 110.7 L 109.8 106.8 L 114.0 102.7 L 116.51162786483765 100.0 L 85.5 100.0 L 85.5 96.0 L 160.0 96.0 L 170.0 86.0 L 182.0 96.0 L 182.0 100.0 L 139.85 100.0 L 143.0 108.4 L 146.6 117.4 L 149.63536586761475 124.02987804412842 L 150.9 123.1 L 154.1 120.8 L 157.1 118.6 L 160.0 116.5 L 162.7 114.4 L 165.3 112.4 L 167.6 110.4 L 169.7 108.5 L 170.97664670944215 107.28718566894531 L 170.9 107.2 L 171.7 106.6 L 178.9 116.3 Z M 42.7 148.8 L 44.9 151.6 L 41.07758617401123 152.4717785835266 L 40.8 153.1 L 38.7 157.4 L 36.4 161.6 L 33.9 165.7 L 31.2 169.8 L 28.3 173.8 L 25.2 177.7 L 21.8 181.4 L 18.0 185.1 L 14.1 188.5 L 12.7 187.4 L 15.2 182.8 L 17.6 178.4 L 19.9 174.1 L 22.0 169.8 L 24.0 165.6 L 25.8 161.4 L 27.4 157.3 L 28.9 153.2 L 30.2 149.1 L 31.02979431152344 146.00713024139404 L 31.0 146.0 L 31.196226406097413 145.38679246902467 L 31.3 145.0 L 31.31807231903076 145.00602407455443 L 31.8 143.5 Z M 61.3 167.3 L 59.5 161.7 L 58.3 159.0 L 57.1 156.2 L 55.7 153.5 L 52.5 147.9 L 50.5 145.3 L 51.7 144.0 L 54.4 146.0 L 57.3 147.9 L 59.9 150.0 L 62.4 152.3 L 64.8 154.8 L 66.9 157.4 L 68.9 160.2 L 70.8 163.1 L 72.5 166.1 L 74.0 169.3 L 73.6 173.8 L 70.1 176.8 L 65.6 176.4 L 62.6 172.9 L 62.0 170.1 Z M 31.0 22.5 L 58.1 22.5 L 64.1 17.5 L 75.1 26.5 L 70.1 30.5 L 70.1 134.8 L 58.1 140.8 L 58.1 134.8 L 31.0 134.8 L 31.0 137.8 L 19.0 143.8 L 19.0 16.5 Z M 31.0 97.2 L 31.0 130.8 L 58.1 130.8 L 58.1 97.2 Z M 31.0 61.8 L 31.0 93.2 L 58.1 93.2 L 58.1 61.8 Z M 80.7 87.3 L 79.2 83.0 L 81.0 78.8 L 81.9 78.3 L 83.0 77.3 L 84.2 75.8 L 85.4 73.7 L 86.5 71.1 L 87.6 68.0 L 88.5 64.4 L 89.4 60.4 L 90.3 56.0 L 90.7 51.1 L 92.5 51.0 L 93.1 56.0 L 93.46521739959717 58.8 L 170.0 58.8 L 176.0 53.8 L 187.0 62.8 L 182.0 65.8 L 178.66582279205323 67.18924055099487 L 177.7 68.5 L 176.3 70.5 L 174.7 72.6 L 173.0 74.7 L 171.1 76.9 L 169.2 79.2 L 167.0 81.6 L 165.2 84.2 L 163.6 83.4 L 164.9 80.4 L 165.7 77.3 L 166.6 74.5 L 167.3 71.8 L 168.1 69.2 L 168.7 66.8 L 169.3 64.5 L 169.70476188659669 62.8 L 93.90465116500854 62.8 L 94.1 64.9 L 94.2 68.9 L 94.1 72.6 L 93.7 76.1 L 93.1 79.3 L 92.2 82.3 L 90.9 85.1 L 89.2 87.6 L 84.9 89.1 Z M 160.1 78.2 L 160.1 82.2 L 99.5 82.2 L 99.5 78.2 L 141.9181818008423 78.2 L 150.1 69.2 Z M 31.0 26.5 L 31.0 57.8 L 58.1 57.8 L 58.1 26.5 Z M 155.7 17.2 L 158.7 19.2 L 155.7 21.0 L 155.7 32.9 L 162.4 32.9 L 172.4 22.9 L 184.4 32.9 L 184.4 36.9 L 155.7 36.9 L 155.7 49.8 L 143.7 55.8 L 143.7 36.9 L 122.8 36.9 L 122.8 49.8 L 110.8 55.8 L 110.8 36.9 L 82.2 36.9 L 82.2 32.9 L 110.8 32.9 L 110.8 15.2 L 122.8 17.2 L 125.8 19.2 L 122.8 21.0 L 122.8 32.9 L 143.7 32.9 L 143.7 15.2 Z " />
</g>
</svg>
