<svg xmlns="http://www.w3.org/2000/svg" xmlns:xlink="http://www.w3.org/1999/xlink" version="1.1" baseProfile="full" viewBox="0 0 200 200" width="200" height="200">
<g fill="black">
<path d="M 14.2 168.4 L 20.9 166.86081085205078 L 20.9 99.0 L 32.9 101.0 L 35.9 103.0 L 32.9 104.8 L 32.9 163.89864864349366 L 36.4 163.0 L 43.7 161.0 L 46.9 160.07945203781128 L 46.9 77.5 L 32.9 77.5 L 32.9 84.5 L 20.9 90.5 L 20.9 18.6 L 32.9 24.6 L 70.2 24.6 L 76.2 19.6 L 87.2 28.6 L 82.2 32.6 L 82.2 83.5 L 70.2 89.5 L 70.2 77.5 L 58.9 77.5 L 58.9 115.3 L 72.3777777671814 115.3 L 78.6 108.3 L 86.6 115.3 L 86.6 119.3 L 58.9 119.3 L 58.9 156.64931507110595 L 65.7 154.6 L 80.5 150.2 L 88.0 148.1 L 88.7 149.8 L 81.9 153.7 L 75.1 157.3 L 68.1 160.7 L 61.0 163.9 L 53.8 166.9 L 46.6 169.8 L 39.4 172.5 L 32.1 175.1 L 24.7 177.6 L 21.224242401123046 178.72727270126342 L 20.0 182.4 L 17.3 180.0 L 12.3 168.9 Z M 89.2 174.0 L 133.7 174.0 L 133.7 108.0 L 117.02043800354004 108.0 L 115.2 112.3 L 108.8 125.1 L 101.9 136.9 L 94.5 147.8 L 86.4 157.5 L 85.0 156.4 L 91.3 145.7 L 97.3 134.3 L 102.9 122.2 L 108.2 109.4 L 113.1 95.7 L 117.5 81.3 L 121.5 66.0 L 122.17080745697021 63.0 L 89.2 63.0 L 89.2 59.0 L 123.06521739959717 59.0 L 125.1 49.9 L 128.2 32.9 L 130.9 15.0 L 130.93267431259156 15.004942321777344 L 131.2 13.0 L 142.8 16.8 L 145.4 19.3 L 142.0751404762268 20.680130386352538 L 139.4 35.0 L 135.6 52.2 L 133.77560977935792 59.0 L 162.8 59.0 L 172.8 49.0 L 184.8 59.0 L 184.8 63.0 L 132.7024390220642 63.0 L 131.2 68.6 L 126.4 84.0 L 121.0 98.6 L 118.71386861801147 104.0 L 153.1 104.0 L 163.1 94.0 L 175.1 104.0 L 175.1 108.0 L 145.7 108.0 L 145.7 174.0 L 165.4 174.0 L 175.4 164.0 L 187.4 174.0 L 187.4 178.0 L 89.2 178.0 Z M 32.9 28.6 L 32.9 73.5 L 70.2 73.5 L 70.2 28.6 Z " />
</g>
</svg>
