<svg xmlns="http://www.w3.org/2000/svg" xmlns:xlink="http://www.w3.org/1999/xlink" version="1.1" baseProfile="full" viewBox="0 0 200 200" width="200" height="200">
<g fill="black">
<path d="M 104.0 175.8 L 124.0 175.8 L 125.2 175.7 L 126.1 175.6 L 126.7 175.4 L 127.0 175.2 L 127.2 175.0 L 127.4 174.9 L 127.5 174.5 L 127.7 173.9 L 127.9 173.0 L 128.0 171.8 L 128.0 134.8 L 22.0 134.8 L 22.0 130.8 L 128.0 130.8 L 128.0 110.3 L 140.0 112.3 L 143.0 114.3 L 140.0 116.1 L 140.0 130.8 L 158.0 130.8 L 168.0 120.8 L 180.0 130.8 L 180.0 134.8 L 140.0 134.8 L 140.0 171.8 L 139.8 174.3 L 139.4 176.8 L 138.6 179.2 L 137.3 181.5 L 135.7 183.5 L 133.7 185.2 L 131.4 186.4 L 129.0 187.2 L 126.5 187.6 L 124.0 187.8 L 124.0 181.8 L 104.0 178.8 Z M 76.0 157.8 L 74.7 156.2 L 72.9 154.5 L 70.7 152.7 L 68.1 150.8 L 65.1 148.9 L 61.7 146.9 L 57.9 144.8 L 53.6 142.9 L 54.2 141.2 L 58.8 142.2 L 63.2 142.9 L 67.2 143.8 L 70.9 144.8 L 74.3 145.9 L 77.4 147.1 L 80.3 148.4 L 82.8 149.9 L 85.2 151.6 L 87.2 153.6 L 88.1 158.1 L 85.6 161.9 L 81.1 162.8 L 77.3 160.3 L 76.9 159.2 Z M 154.9 113.0 L 150.6 110.8 L 145.8 108.6 L 140.6 106.4 L 134.9 104.2 L 128.8 102.0 L 122.3 99.7 L 115.4 97.3 L 108.0 94.7 L 108.4 92.9 L 116.2 93.6 L 123.6 94.5 L 130.5 95.6 L 137.1 96.9 L 143.2 98.3 L 148.9 99.8 L 154.3 101.5 L 159.3 103.2 L 163.9 105.1 L 168.1 107.1 L 170.8 110.7 L 170.2 115.3 L 166.6 118.0 L 162.0 117.4 L 158.7 115.2 Z M 78.08333797454834 93.05192041397095 L 83.8 98.9 L 83.9 102.3 L 80.24453783035278 100.78739500045776 L 77.5 102.1 L 72.6 104.1 L 67.2 106.1 L 61.4 108.0 L 55.2 109.8 L 48.6 111.6 L 41.6 113.2 L 34.1 114.7 L 26.1 115.9 L 17.7 116.9 L 17.3 115.2 L 25.2 112.2 L 32.7 109.5 L 39.7 106.9 L 46.3 104.3 L 52.5 101.8 L 58.1 99.3 L 63.3 96.9 L 68.0 94.4 L 72.3 92.0 L 75.15172729492187 90.07315721511841 L 75.1 90.0 L 75.16364297866821 90.06510610580445 L 76.0 89.5 Z M 54.0 23.7 L 140.9 23.7 L 146.9 18.7 L 157.9 27.7 L 152.9 31.7 L 152.9 88.0 L 140.9 94.0 L 140.9 88.0 L 54.0 88.0 L 54.0 91.0 L 42.0 97.0 L 42.0 17.7 Z M 54.0 67.0 L 54.0 84.0 L 140.9 84.0 L 140.9 67.0 Z M 54.0 47.3 L 54.0 63.0 L 140.9 63.0 L 140.9 47.3 Z M 54.0 27.7 L 54.0 43.3 L 140.9 43.3 L 140.9 27.7 Z " />
</g>
</svg>
