<svg xmlns="http://www.w3.org/2000/svg" xmlns:xlink="http://www.w3.org/1999/xlink" version="1.1" baseProfile="full" viewBox="0 0 200 200" width="200" height="200">
<g fill="black">
<path d="M 132.7 184.2 L 113.3 183.4 L 96.3 181.6 L 81.6 178.9 L 69.2 175.2 L 59.2 170.5 L 51.7 164.7 L 47.67365999221802 158.996018409729 L 44.7 163.3 L 40.5 168.5 L 35.9 173.2 L 30.9 177.6 L 25.5 181.6 L 19.7 185.1 L 13.4 188.0 L 12.5 186.5 L 17.5 182.0 L 22.1 177.4 L 26.3 172.8 L 30.3 168.1 L 33.8 163.2 L 36.9 158.2 L 39.7 152.9 L 42.1 147.4 L 44.2 141.7 L 45.611181831359865 136.8023690223694 L 45.6 136.8 L 45.78666667938232 136.19333333969115 L 45.9 135.8 L 45.907033634185794 135.80214071273804 L 46.4 134.2 L 57.4 139.3 L 59.7 142.1 L 55.90739297866821 143.03151750564575 L 54.8 145.8 L 51.9 152.0 L 50.10320281982422 155.06512451171875 L 50.5 155.7 L 55.5 160.2 L 62.5 164.1 L 71.8 167.2 L 83.4 169.7 L 91.0 170.62285718917846 L 91.0 127.0 L 54.0 127.0 L 42.0 133.0 L 42.0 92.49433965682984 L 38.2 94.0 L 26.6 97.2 L 14.1 99.3 L 13.8 97.5 L 25.5 93.5 L 36.2 89.0 L 45.8 84.0 L 54.4 78.4 L 61.9 72.1 L 62.88282070159912 71.08739681243897 L 58.2 69.5 L 51.6 67.4 L 44.5 65.2 L 43.03471899032593 64.76231870651245 L 38.6 75.5 L 25.3 76.5 L 42.485847568511964 34.8 L 15.0 34.8 L 15.0 30.8 L 44.13437013626098 30.8 L 51.8 12.2 L 62.1 18.6 L 64.1 21.6 L 60.56345186233521 22.320407962799074 L 57.0613356590271 30.8 L 85.0 30.8 L 91.0 25.8 L 102.0 34.8 L 97.0 37.8 L 95.2601655960083 38.524931049346925 L 93.0 45.0 L 88.1 54.7 L 82.2 63.6 L 78.89514560699463 67.43171520233155 L 82.1 68.5 L 86.4 70.2 L 90.3 72.2 L 93.7 74.5 L 95.6 78.6 L 94.2 83.0 L 90.1 84.9 L 85.7 83.5 L 83.8 81.6 L 81.3 79.7 L 78.0 77.6 L 74.0 75.6 L 71.85835056304931 74.68865976333618 L 67.5 78.6 L 58.6 84.7 L 48.8 89.8 L 42.88631582260132 92.14315786361695 L 54.0 97.7 L 144.0 97.7 L 150.0 92.7 L 161.0 101.7 L 156.0 105.7 L 156.0 131.0 L 144.0 137.0 L 144.0 127.0 L 103.0 127.0 L 103.0 147.3 L 148.0 147.3 L 158.0 137.3 L 170.0 147.3 L 170.0 151.3 L 103.0 151.3 L 103.0 171.70545454025267 L 113.9 172.3 L 132.7 172.4 L 153.9 171.7 L 177.5 170.1 L 188.5 169.4 L 178.4 183.3 L 154.4 184.2 Z M 54.0 101.7 L 54.0 123.0 L 144.0 123.0 L 144.0 101.7 Z M 159.3 87.1 L 151.2 82.5 L 143.8 77.0 L 141.34313011169434 74.68980894088745 L 135.9 78.5 L 128.4 82.7 L 120.5 86.0 L 112.3 88.5 L 111.6 86.8 L 118.9 82.6 L 125.7 78.1 L 132.0 73.2 L 136.09206562042237 69.52407665252686 L 131.1 63.7 L 125.9 55.9 L 121.5 47.4 L 118.0 38.2 L 115.58383836746216 29.0 L 103.0 29.0 L 103.0 25.0 L 164.0 25.0 L 170.0 20.0 L 181.0 29.0 L 176.0 32.0 L 173.78095235824586 32.924603176116946 L 171.3 38.3 L 166.5 46.7 L 161.3 54.5 L 155.7 61.5 L 149.5 67.9 L 149.13557109832763 68.21473407745361 L 149.9 68.8 L 156.8 73.0 L 164.2 76.4 L 172.1 79.1 L 180.5 81.2 L 189.2 83.2 L 177.4 94.0 L 168.0 91.0 Z M 55.40931463241577 34.8 L 44.39842224121094 61.46041593551636 L 45.2 61.5 L 52.7 62.2 L 59.7 63.1 L 66.1 64.2 L 68.85399799346924 64.81727542877198 L 74.0 57.8 L 78.7 49.7 L 82.4 40.8 L 84.16842107772827 34.8 Z M 117.79431819915771 29.0 L 121.8 36.5 L 126.7 44.6 L 131.9 51.8 L 137.5 58.3 L 142.54146337509155 63.00536584854126 L 143.4 62.1 L 148.4 55.7 L 153.0 48.8 L 157.2 41.4 L 161.0 33.4 L 162.73953485488892 29.0 Z " />
</g>
</svg>
