<svg xmlns="http://www.w3.org/2000/svg" xmlns:xlink="http://www.w3.org/1999/xlink" version="1.1" baseProfile="full" viewBox="0 0 200 200" width="200" height="200">
<g fill="black">
<path d="M 140.0 177.0 L 154.0 177.0 L 155.3 176.9 L 156.2 176.7 L 157.1 176.4 L 157.5 176.0 L 157.8 175.1 L 158.0 174.2 L 158.0 155.0 L 109.2 155.0 L 109.2 183.0 L 97.2 189.0 L 97.2 155.0 L 80.8 155.0 L 80.8 151.0 L 97.2 151.0 L 97.2 129.0 L 81.7 129.0 L 81.7 125.0 L 97.2 125.0 L 97.2 95.0 L 109.2 101.0 L 127.6 101.0 L 127.6 84.0 L 79.9 84.0 L 79.9 80.0 L 109.7 80.0 L 109.7 61.0 L 90.7 61.0 L 90.7 57.0 L 109.7 57.0 L 109.7 40.0 L 86.2 40.0 L 86.2 36.0 L 109.7 36.0 L 109.7 15.0 L 121.7 17.0 L 124.7 19.0 L 121.7 20.8 L 121.7 36.0 L 144.6 36.0 L 144.6 15.0 L 156.6 17.0 L 159.6 19.0 L 156.6 20.8 L 156.6 36.0 L 160.8 36.0 L 170.8 26.0 L 182.8 36.0 L 182.8 40.0 L 156.6 40.0 L 156.6 57.0 L 162.01818180084229 57.0 L 170.2 48.0 L 180.2 57.0 L 180.2 61.0 L 156.6 61.0 L 156.6 80.0 L 170.01818180084229 80.0 L 178.2 71.0 L 188.2 80.0 L 188.2 84.0 L 139.6 84.0 L 139.6 101.0 L 158.0 101.0 L 164.0 96.0 L 175.0 105.0 L 170.0 109.0 L 170.0 125.0 L 172.1777777671814 125.0 L 178.4 118.0 L 186.4 125.0 L 186.4 129.0 L 170.0 129.0 L 170.0 151.0 L 172.1777777671814 151.0 L 178.4 144.0 L 186.4 151.0 L 186.4 155.0 L 170.0 155.0 L 170.0 173.0 L 169.9 175.5 L 169.5 178.0 L 168.7 180.4 L 167.4 182.7 L 165.8 184.7 L 163.8 186.3 L 161.5 187.6 L 159.1 188.4 L 156.6 188.8 L 154.0 189.0 L 154.0 183.0 L 140.0 180.0 Z M 13.6 168.2 L 19.7 166.53636360168457 L 19.7 98.0 L 30.7 100.0 L 33.5 102.0 L 30.7 103.75 L 30.7 163.47727270126342 L 33.4 162.7 L 40.0 160.7 L 43.0 159.7454545021057 L 43.0 76.3 L 31.2 76.3 L 31.2 83.3 L 19.2 89.3 L 19.2 16.9 L 31.2 22.9 L 63.4 22.9 L 69.4 17.9 L 80.4 26.9 L 75.4 30.9 L 75.4 82.3 L 63.4 88.3 L 63.4 76.3 L 54.0 76.3 L 54.0 114.5 L 64.4777777671814 114.5 L 70.7 107.5 L 78.7 114.5 L 78.7 118.5 L 54.0 118.5 L 54.0 156.1 L 59.7 154.2 L 79.8 147.6 L 80.6 149.3 L 74.7 153.2 L 68.6 156.9 L 62.3 160.3 L 49.7 166.5 L 43.2 169.4 L 36.8 172.1 L 30.2 174.8 L 23.7 177.3 L 20.89410047531128 178.30509834289552 L 19.8 181.9 L 17.0 179.7 L 11.7 168.7 Z M 109.2 129.0 L 109.2 151.0 L 127.6 151.0 L 127.6 129.0 Z M 139.6 129.0 L 139.6 151.0 L 158.0 151.0 L 158.0 129.0 Z M 109.2 105.0 L 109.2 125.0 L 127.6 125.0 L 127.6 105.0 Z M 139.6 105.0 L 139.6 125.0 L 158.0 125.0 L 158.0 105.0 Z M 121.7 61.0 L 121.7 80.0 L 144.6 80.0 L 144.6 61.0 Z M 31.2 26.9 L 31.2 72.3 L 63.4 72.3 L 63.4 26.9 Z M 121.7 40.0 L 121.7 57.0 L 144.6 57.0 L 144.6 40.0 Z " />
</g>
</svg>
