<svg xmlns="http://www.w3.org/2000/svg" xmlns:xlink="http://www.w3.org/1999/xlink" version="1.1" baseProfile="full" viewBox="0 0 200 200" width="200" height="200">
<g fill="black">
<path d="M 130.7 183.7 L 112.3 182.6 L 97.2 180.8 L 85.0 178.1 L 75.1 174.6 L 67.2 170.3 L 61.1 165.3 L 56.4 159.6 L 54.27821521759033 155.8868766784668 L 52.0 158.1 L 48.4 161.5 L 44.9 164.6 L 41.3 167.7 L 37.7 170.6 L 26.9 178.7 L 23.323113918304443 181.18394861221313 L 23.1 185.2 L 19.8 183.6 L 12.1 174.3 L 13.8 173.3 L 17.6 171.4 L 21.4 169.6 L 29.2 165.6 L 33.2 163.6 L 37.2 161.5 L 44.0 158.1 L 44.0 109.0 L 14.0 109.0 L 14.0 105.0 L 44.0 105.0 L 50.0 100.0 L 61.0 109.0 L 56.0 113.0 L 56.0 153.70384616851806 L 59.5 156.8 L 64.10030536651611 160.12244272232056 L 65.7 156.8 L 67.9 151.2 L 70.0 145.3 L 71.7 139.0 L 73.2 132.3 L 74.4 125.1 L 75.2 117.5 L 75.7 109.4 L 75.9 100.8 L 75.8 91.8 L 75.8 32.9 L 87.8 38.9 L 123.4 38.9 L 123.4 14.8 L 135.4 16.8 L 138.4 18.8 L 135.4 20.6 L 135.4 38.9 L 163.3 38.9 L 173.3 28.9 L 185.3 38.9 L 185.3 42.9 L 87.8 42.9 L 87.8 91.8 L 87.3 101.3 L 86.4 110.3 L 85.2 118.8 L 83.5 126.9 L 81.4 134.4 L 78.9 141.4 L 76.0 147.8 L 72.7 153.7 L 68.9 158.9 L 66.3335633277893 161.5261212348938 L 70.8 164.1 L 78.0 166.8 L 87.1 169.0 L 98.6 170.6 L 113.0 171.6 L 130.9 171.9 L 152.6 171.5 L 178.7 170.4 L 190.0 169.9 L 179.2 183.5 L 152.9 184.0 Z M 164.1 156.7 L 157.9 152.9 L 152.3 148.5 L 147.3 143.6 L 142.9 138.2 L 139.1 132.2 L 136.1 125.7 L 134.74666662216185 121.63999996185302 L 133.2 125.7 L 128.9 133.3 L 123.5 140.2 L 117.1 146.3 L 109.8 151.5 L 101.5 155.9 L 92.2 159.4 L 82.1 162.0 L 81.5 160.2 L 90.8 155.9 L 98.9 151.2 L 106.0 146.1 L 112.0 140.7 L 117.0 134.8 L 121.0 128.5 L 124.0 121.8 L 126.1 114.6 L 126.22307691574096 113.8 L 97.7 113.8 L 97.7 109.8 L 126.8384614944458 109.8 L 127.3 106.8 L 127.5 98.4 L 127.5 92.1 L 90.1 92.1 L 90.1 88.1 L 127.5 88.1 L 127.5 69.6 L 99.0 69.6 L 99.0 65.6 L 127.5 65.6 L 127.5 48.2 L 139.5 50.2 L 142.5 52.2 L 139.5 54.0 L 139.5 65.6 L 157.9 65.6 L 163.9 60.6 L 174.9 69.6 L 169.9 73.6 L 169.9 88.1 L 174.8 88.1 L 179.3 82.1 L 185.3 88.1 L 185.3 92.1 L 169.9 92.1 L 169.9 119.8 L 157.9 125.8 L 157.9 113.8 L 137.2166666984558 113.8 L 136.76832456588744 115.7214659690857 L 137.6 117.2 L 141.3 123.0 L 145.2 128.2 L 149.3 132.8 L 153.8 136.9 L 158.5 140.4 L 163.7 143.5 L 169.2 146.0 L 175.1 148.1 L 181.4 149.7 L 189.8 151.9 L 178.1 162.5 L 170.8 159.9 Z M 139.5 98.6 L 138.5 108.3 L 138.15 109.8 L 157.9 109.8 L 157.9 92.1 L 139.5 92.1 L 139.5 98.5 L 139.43406591415405 98.5989010810852 Z M 139.5 69.6 L 139.5 88.1 L 157.9 88.1 L 157.9 69.6 Z M 38.3 77.2 L 36.1 74.7 L 33.7 72.2 L 31.2 69.7 L 28.5 67.3 L 25.7 65.0 L 22.8 62.6 L 19.8 60.3 L 16.5 58.2 L 17.2 56.5 L 21.1 57.6 L 24.9 58.6 L 28.6 60.0 L 32.2 61.5 L 35.7 63.3 L 39.1 65.2 L 42.4 67.3 L 45.5 69.6 L 48.6 72.1 L 51.5 74.7 L 52.9 79.1 L 50.9 83.2 L 46.6 84.6 L 42.5 82.6 L 40.5 79.9 Z M 47.9 41.9 L 46.0 39.3 L 43.9 36.8 L 41.6 34.3 L 39.1 31.8 L 36.5 29.4 L 33.7 26.9 L 30.7 24.4 L 27.5 22.2 L 28.2 20.6 L 32.1 21.8 L 35.9 23.1 L 39.5 24.6 L 43.0 26.2 L 46.4 28.1 L 49.6 30.2 L 52.7 32.4 L 55.6 34.7 L 58.3 37.3 L 61.0 40.0 L 62.0 44.4 L 59.8 48.4 L 55.3 49.4 L 51.4 47.2 L 49.7 44.5 Z " />
</g>
</svg>
