<svg xmlns="http://www.w3.org/2000/svg" xmlns:xlink="http://www.w3.org/1999/xlink" version="1.1" baseProfile="full" viewBox="0 0 200 200" width="200" height="200">
<g fill="black">
<path d="M 172.0 181.2 L 169.6 178.9 L 166.8 176.6 L 163.6 174.3 L 159.9 172.0 L 155.9 169.7 L 151.5 167.3 L 146.7 164.9 L 141.5 162.5 L 142.0 160.8 L 147.7 161.7 L 153.2 162.7 L 158.2 163.9 L 163.0 165.4 L 167.4 167.1 L 171.5 168.9 L 175.3 170.9 L 178.8 173.1 L 181.9 175.5 L 184.8 178.1 L 186.1 182.5 L 184.0 186.5 L 179.6 187.8 L 175.5 185.7 L 174.0 183.5 Z M 126.5 166.4 L 127.1 169.9 L 123.2156418800354 168.85954694747926 L 119.9 171.2 L 116.1 173.5 L 112.1 175.7 L 107.7 178.0 L 103.0 180.1 L 98.0 182.2 L 92.7 184.2 L 86.9 186.1 L 80.8 187.8 L 80.1 186.1 L 85.4 182.7 L 90.3 179.5 L 95.0 176.5 L 99.4 173.5 L 103.4 170.7 L 107.1 168.0 L 110.4 165.3 L 113.3 162.7 L 115.9 160.1 L 117.4323021888733 158.42839756011963 L 117.4 158.4 L 117.73333330154419 158.1 L 118.1 157.7 L 118.1361623764038 157.7374538421631 L 118.4 157.5 Z M 15.2 170.9 L 28.2 168.3 L 34.7 166.8 L 41.3 165.4 L 44.7 164.563076877594 L 44.7 105.0 L 17.3 105.0 L 17.3 101.0 L 44.7 101.0 L 44.7 73.0 L 31.9 73.0 L 31.9 69.0 L 60.21818180084229 69.0 L 68.4 60.0 L 78.4 69.0 L 78.4 73.0 L 56.7 73.0 L 56.7 101.0 L 61.3 101.0 L 71.3 91.0 L 83.3 101.0 L 83.3 105.0 L 56.7 105.0 L 56.7 161.71641788482665 L 61.1 160.6 L 67.7 159.0 L 74.5 157.5 L 81.3 156.1 L 81.9 157.8 L 75.8 161.1 L 69.5 164.1 L 63.1 166.9 L 56.7 169.5 L 50.3 172.0 L 43.9 174.3 L 37.4 176.5 L 31.0 178.6 L 21.926530647277833 181.39183673858642 L 20.6 185.0 L 18.0 182.6 L 13.3 171.3 Z M 108.7 88.0 L 160.2 88.0 L 166.2 83.0 L 177.2 92.0 L 172.2 96.0 L 172.2 152.4 L 160.2 158.4 L 160.2 152.4 L 108.7 152.4 L 108.7 155.4 L 96.7 161.4 L 96.7 82.0 Z M 27.2 145.4 L 26.9 142.4 L 26.4 139.5 L 25.7 136.5 L 24.7 133.5 L 23.6 130.5 L 22.3 127.4 L 20.8 124.3 L 18.9 121.3 L 20.2 120.1 L 25.8 124.9 L 28.4 127.5 L 30.6 130.3 L 32.7 133.3 L 34.5 136.4 L 36.1 139.7 L 37.4 143.2 L 38.5 146.8 L 39.3 150.5 L 37.8 154.8 L 33.8 156.9 L 29.5 155.5 L 27.3 151.4 L 27.4 148.4 Z M 80.4 121.9 L 82.6 124.8 L 78.53494129180908 125.58448505401611 L 75.7 130.9 L 73.9 133.8 L 70.1 139.8 L 68.0 142.7 L 65.8 145.6 L 63.4 148.4 L 61.2 151.4 L 59.7 150.5 L 61.0 147.1 L 61.9 143.6 L 63.0 140.2 L 64.0 136.8 L 65.0 133.6 L 65.9 130.3 L 66.8 127.2 L 67.6 124.0 L 68.4 120.9 L 68.8847173690796 118.82263994216919 L 68.8 118.8 L 69.6 116.4 Z M 108.7 132.2 L 108.7 148.4 L 160.2 148.4 L 160.2 132.2 Z M 108.7 112.1 L 108.7 128.2 L 160.2 128.2 L 160.2 112.1 Z M 108.7 92.0 L 108.7 108.1 L 160.2 108.1 L 160.2 92.0 Z M 70.4 49.1 L 68.9 46.7 L 67.2 44.1 L 65.2 41.5 L 63.0 38.9 L 60.4 36.3 L 57.6 33.6 L 54.6 30.8 L 52.57496004104614 29.295684623718262 L 50.5 34.3 L 46.9 42.4 L 42.9 50.2 L 38.7 57.9 L 34.1 65.3 L 29.2 72.6 L 24.0 79.5 L 18.3 86.2 L 12.3 92.5 L 10.8 91.4 L 15.3 83.9 L 19.5 76.5 L 23.6 69.1 L 27.5 61.6 L 31.1 54.0 L 34.5 46.3 L 37.7 38.4 L 40.5 30.5 L 43.1 22.4 L 45.4 14.2 L 45.448024368286134 14.21419849395752 L 45.9 12.6 L 56.9 17.6 L 59.2 20.4 L 55.56844549179077 21.37273778915405 L 53.9 26.1 L 53.44436550140381 27.198883247375488 L 56.1 28.3 L 60.1 29.9 L 63.8 31.7 L 67.3 33.6 L 70.5 35.8 L 73.5 38.0 L 76.3 40.4 L 78.8 43.0 L 81.1 45.7 L 83.2 48.6 L 83.5 53.1 L 80.6 56.6 L 76.0 56.9 L 72.5 54.0 L 71.6 51.6 Z M 165.2 41.8 L 167.3 44.7 L 163.13373489379882 45.577108478546144 L 162.4 46.8 L 160.9 49.5 L 159.1 52.3 L 157.3 55.3 L 155.2 58.4 L 153.0 61.6 L 150.6 65.0 L 148.0 68.4 L 147.08648653030394 69.7 L 170.21818180084227 69.7 L 178.4 60.7 L 188.4 69.7 L 188.4 73.7 L 80.5 73.7 L 80.5 69.7 L 144.38536586761475 69.7 L 145.4 67.1 L 146.7 62.9 L 147.9 59.1 L 149.1 55.4 L 150.2 52.0 L 151.2 48.7 L 152.0 45.7 L 152.8 42.9 L 153.4 40.3 L 153.70172414779663 38.85172414779663 L 153.5 38.8 L 154.4 36.4 Z M 112.2 58.3 L 111.2 53.3 L 110.5 50.8 L 109.7 48.3 L 108.8 45.9 L 107.9 43.4 L 106.8 40.8 L 105.3 38.6 L 106.6 37.3 L 108.7 39.2 L 111.1 41.0 L 113.2 42.9 L 115.2 45.1 L 117.1 47.3 L 118.9 49.8 L 120.5 52.3 L 121.9 55.0 L 123.2 57.8 L 124.4 60.7 L 123.6 65.2 L 119.9 67.9 L 115.4 67.0 L 112.7 63.4 L 112.5 60.8 Z M 87.5 31.0 L 128.5 31.0 L 128.5 11.9 L 140.5 13.9 L 143.5 15.9 L 140.5 17.7 L 140.5 31.0 L 159.4 31.0 L 169.4 21.0 L 181.4 31.0 L 181.4 35.0 L 87.5 35.0 Z " />
</g>
</svg>
