<svg xmlns="http://www.w3.org/2000/svg" xmlns:xlink="http://www.w3.org/1999/xlink" version="1.1" baseProfile="full" viewBox="0 0 200 200" width="200" height="200">
<g fill="black">
<path d="M 162.7 179.9 L 161.3 182.0 L 159.6 183.8 L 157.7 185.4 L 155.6 186.7 L 153.3 187.7 L 150.9 188.4 L 148.5 188.8 L 145.9 189.0 L 145.9 183.0 L 125.9 180.0 L 125.9 177.0 L 145.9 177.0 L 147.2 176.9 L 148.4 176.7 L 149.3 176.4 L 150.0 176.1 L 150.7 175.7 L 151.8 174.6 L 152.3 173.8 L 152.8 172.8 L 153.3 171.6 L 153.8 169.6 L 154.4 167.3 L 155.0 164.6 L 155.5 161.6 L 156.0 158.2 L 156.5 154.5 L 156.9 150.5 L 157.4 146.2 L 157.8 141.5 L 157.95 139.0 L 119.56409864425659 139.0 L 117.0 151.9 L 104.0 155.4 L 112.4304093360901 113.0 L 93.3 113.0 L 93.3 109.0 L 113.22573099136352 109.0 L 117.6 87.0 L 112.1 87.0 L 112.1 83.0 L 140.71818180084227 83.0 L 148.9 74.0 L 158.60542631149292 82.73488368988038 L 157.0 80.2 L 153.4 74.0 L 150.0 67.5 L 146.9 60.7 L 144.2 53.6 L 142.11466665267943 46.8 L 131.7543689727783 46.8 L 130.9 49.0 L 126.3 58.9 L 121.0 68.4 L 115.1 77.5 L 108.5 86.2 L 101.3 94.5 L 93.4 102.2 L 85.24186849594116 108.9515570640564 L 88.9 112.0 L 88.9 116.0 L 52.13999996185303 116.0 L 50.7 120.5 L 48.9 125.5 L 47.1 130.6 L 45.2 135.8 L 43.2 140.9 L 41.0 146.2 L 38.7 151.4 L 36.2 156.7 L 33.91178169250488 161.10693893432617 L 37.6 160.2 L 43.8 158.6 L 50.1 156.9 L 56.6 155.3 L 63.3 153.6 L 70.1 152.0 L 74.05609760284423 151.1522647857666 L 73.3 149.1 L 71.7 145.2 L 70.0 141.2 L 68.1 137.2 L 66.2 133.0 L 64.0 128.8 L 65.5 127.7 L 68.9 131.1 L 72.2 134.5 L 75.2 138.0 L 78.0 141.6 L 80.5 145.3 L 82.9 149.0 L 85.0 152.8 L 87.0 156.6 L 88.7 160.5 L 90.3 164.4 L 89.7 168.9 L 86.2 171.8 L 81.7 171.2 L 78.8 167.7 L 78.0 164.0 L 77.1 160.4 L 76.0 156.6 L 74.94190406799316 153.58849620819092 L 71.4 155.5 L 65.1 158.6 L 58.8 161.5 L 52.6 164.1 L 46.5 166.7 L 40.4 169.0 L 34.5 171.3 L 28.6 173.5 L 22.8 175.5 L 21.094061756134032 176.10926361083983 L 19.9 179.8 L 17.2 177.5 L 12.0 166.5 L 13.9 166.0 L 19.6 164.6 L 25.5 163.2 L 29.60666666030884 162.17333335876464 L 29.9 160.6 L 31.2 154.9 L 32.5 149.3 L 33.8 143.8 L 35.1 138.4 L 37.5 127.8 L 38.6 122.7 L 39.6 117.6 L 39.91111106872559 116.0 L 15.5 116.0 L 15.5 112.0 L 26.3 112.0 L 26.3 20.1 L 38.3 26.1 L 62.5 26.1 L 72.5 16.1 L 84.5 26.1 L 84.5 30.1 L 38.3 30.1 L 38.3 54.1 L 59.21818180084229 54.1 L 67.4 45.1 L 77.4 54.1 L 77.4 58.1 L 38.3 58.1 L 38.3 81.0 L 59.21818180084229 81.0 L 67.4 72.0 L 77.4 81.0 L 77.4 85.0 L 38.3 85.0 L 38.3 112.0 L 66.9 112.0 L 76.9 102.0 L 83.79549131393432 107.74624280929565 L 90.6 99.6 L 97.2 91.0 L 103.2 82.3 L 108.7 73.4 L 113.6 64.3 L 117.9 55.0 L 121.06041669845581 46.8 L 86.5 46.8 L 86.5 42.8 L 122.41414136886597 42.8 L 124.7 35.5 L 127.2 25.3 L 128.9170226097107 15.901560401916504 L 128.9 15.9 L 129.4 13.0 L 140.9 17.0 L 143.5 19.6 L 139.9539083480835 20.88948783874512 L 138.2 28.1 L 134.9 38.7 L 133.3077670097351 42.8 L 161.8 42.8 L 171.8 32.8 L 183.8 42.8 L 183.8 46.8 L 144.53125 46.8 L 147.9 51.7 L 152.1 57.9 L 156.2 63.8 L 160.4 69.5 L 164.6 74.8 L 168.9 79.9 L 173.3 84.7 L 177.8 89.2 L 182.4 93.5 L 187.1 97.4 L 189.1 99.2 L 178.3 107.2 L 173.6 102.4 L 169.1 97.2 L 164.9 91.8 L 160.8 86.2 L 158.9 83.2 L 158.9 87.0 L 129.9 87.0 L 125.52711868286133 109.0 L 155.6 109.0 L 165.6 99.0 L 177.6 109.0 L 177.6 113.0 L 124.73204927444458 113.0 L 120.35916795730591 135.0 L 158.1 135.0 L 164.1 130.0 L 175.1 139.0 L 170.1 142.0 L 169.72702703475952 142.1554054260254 L 169.7 142.5 L 169.3 147.3 L 168.9 151.8 L 168.4 156.0 L 167.9 159.9 L 167.3 163.5 L 166.8 166.9 L 166.1 169.9 L 165.4 172.7 L 164.7 175.3 L 163.8 177.6 Z " />
</g>
</svg>
