<svg xmlns="http://www.w3.org/2000/svg" xmlns:xlink="http://www.w3.org/1999/xlink" version="1.1" baseProfile="full" viewBox="0 0 200 200" width="200" height="200">
<g fill="black">
<path d="M 106.0 63.0 L 109.0 65.0 L 106.0 66.8 L 106.0 121.0 L 94.0 127.0 L 94.0 61.0 Z M 168.7 78.7 L 170.4 81.9 L 166.57980766296387 82.0317307472229 L 165.2 84.2 L 161.6 89.5 L 157.9 94.5 L 154.1 99.3 L 150.2 103.8 L 146.1 108.0 L 142.0 112.0 L 137.7 115.6 L 133.2 118.8 L 128.5 121.6 L 127.4 120.3 L 130.6 116.0 L 133.9 111.8 L 137.1 107.5 L 140.3 103.1 L 143.5 98.5 L 146.6 93.8 L 149.6 88.9 L 152.5 83.8 L 155.4 78.4 L 157.73408784866334 73.81518459320068 L 157.7 73.8 L 158.0465753555298 73.20136985778808 L 158.2 72.9 L 158.21595134735108 72.90881128311158 L 158.8 71.9 Z M 57.0 109.0 L 54.9 105.2 L 52.5 101.4 L 49.7 97.5 L 46.6 93.6 L 43.2 89.7 L 39.5 85.7 L 35.5 81.5 L 31.3 77.3 L 32.3 75.8 L 37.8 78.5 L 42.9 81.5 L 47.6 84.8 L 52.0 88.2 L 56.0 91.8 L 59.7 95.5 L 63.1 99.4 L 66.2 103.4 L 68.9 107.5 L 71.3 111.8 L 71.3 116.4 L 68.1 119.7 L 63.6 119.7 L 60.3 116.6 L 58.8 112.8 Z " />
</g>
</svg>
