<svg xmlns="http://www.w3.org/2000/svg" xmlns:xlink="http://www.w3.org/1999/xlink" version="1.1" baseProfile="full" viewBox="0 0 200 200" width="200" height="200">
<g fill="black">
<path d="M 149.0 183.3 L 137.9 181.1 L 128.7 178.0 L 121.2 173.9 L 115.3 169.0 L 110.7 163.3 L 107.3 157.0 L 105.23465595245361 151.8748869895935 L 104.4 154.2 L 101.0 161.4 L 97.1 168.1 L 92.6 174.1 L 87.5 179.5 L 81.8 184.2 L 75.5 188.1 L 74.4 186.6 L 79.2 181.4 L 83.5 175.9 L 87.3 170.3 L 90.5 164.2 L 93.3 157.9 L 95.6 151.1 L 97.4 143.9 L 98.8 136.2 L 99.6 128.1 L 99.9 119.5 L 99.93026485443116 119.50126104354858 L 100.0 117.2 L 111.9 120.0 L 114.8 122.1 L 111.47808647155762 123.92379570007324 L 110.9 129.3 L 109.3 138.1 L 107.2 146.4 L 107.14636869430542 146.549401473999 L 108.4 148.4 L 112.3 154.0 L 116.4 158.8 L 120.8 162.7 L 126.0 165.9 L 130.0 167.4625 L 130.0 90.3 L 88.0 90.3 L 88.0 86.3 L 171.0 86.3 L 171.70434780120848 85.71304349899292 L 171.9 85.4 L 172.7 84.1 L 173.13003225326537 84.52497310638428 L 177.0 81.3 L 188.0 90.3 L 183.0 93.3 L 173.7692307472229 97.14615383148194 L 172.0 98.3 L 166.9 101.7 L 163.9 103.6 L 160.7 105.5 L 157.6 108.0 L 156.3 106.7 L 159.0 103.7 L 161.2 100.6 L 163.2 97.8 L 165.1 95.2 L 166.9 92.9 L 168.4 90.7 L 168.68000001907347 90.3 L 142.0 90.3 L 142.0 123.1 L 163.8181818008423 123.1 L 172.0 114.1 L 182.0 123.1 L 182.0 127.1 L 142.0 127.1 L 142.0 170.5920000076294 L 150.4 171.6 L 162.8 172.1 L 177.8 171.8 L 189.4 171.6 L 178.1 185.0 L 162.3 184.6 Z M 74.6 49.2 L 73.1 46.7 L 71.3 44.2 L 69.1 41.6 L 66.8 39.0 L 64.1 36.4 L 61.1 33.6 L 57.9 30.8 L 55.63485240936279 29.16406011581421 L 53.4 34.4 L 49.6 42.5 L 45.5 50.3 L 41.1 58.0 L 36.3 65.4 L 33.8 69.0 L 60.7 69.0 L 70.7 59.0 L 82.7 69.0 L 82.7 73.0 L 59.8 73.0 L 59.8 101.0 L 65.8 101.0 L 75.8 91.0 L 87.8 101.0 L 87.8 105.0 L 59.8 105.0 L 59.8 161.73623189926147 L 64.7 160.6 L 71.7 159.0 L 78.7 157.5 L 85.8 156.1 L 86.4 157.8 L 79.9 161.1 L 73.3 164.1 L 66.7 166.9 L 60.0 169.5 L 53.3 172.0 L 46.6 174.3 L 39.9 176.5 L 26.3 180.7 L 23.5287184715271 181.48588581085204 L 22.2 185.1 L 19.6 182.6 L 14.9 171.3 L 16.9 170.9 L 23.7 169.6 L 44.1 165.4 L 47.8 164.52941179275513 L 47.8 105.0 L 19.0 105.0 L 19.0 101.0 L 47.8 101.0 L 47.8 73.0 L 30.98571424484253 73.0 L 25.8 79.6 L 20.0 86.2 L 13.7 92.5 L 12.3 91.4 L 17.0 83.9 L 21.4 76.5 L 25.7 69.0 L 29.8 61.5 L 33.6 53.9 L 37.2 46.2 L 40.5 38.4 L 43.5 30.4 L 46.2 22.3 L 48.33428907394409 15.007845783233643 L 48.3 15.0 L 49.1 12.5 L 60.1 17.7 L 62.3 20.5 L 58.70779218673706 21.398051929473876 L 56.9 26.2 L 56.49403057098389 27.151128387451173 L 59.4 28.3 L 63.5 29.8 L 67.4 31.6 L 71.0 33.6 L 74.3 35.7 L 77.4 37.9 L 80.3 40.3 L 82.9 42.9 L 85.3 45.6 L 87.4 48.5 L 87.8 53.0 L 85.0 56.6 L 80.4 57.0 L 76.8 54.1 L 75.9 51.7 Z M 29.6 145.5 L 29.2 142.5 L 28.7 139.5 L 27.9 136.5 L 26.9 133.5 L 25.7 130.5 L 24.3 127.4 L 22.8 124.3 L 20.7 121.3 L 22.0 120.0 L 27.8 124.8 L 30.4 127.4 L 32.8 130.2 L 34.9 133.2 L 36.8 136.4 L 38.4 139.7 L 39.7 143.1 L 40.8 146.7 L 41.7 150.5 L 40.2 154.8 L 36.2 156.9 L 31.9 155.5 L 29.7 151.5 L 29.7 148.5 Z M 84.6 122.0 L 86.7 124.9 L 82.63494129180908 125.68448505401611 L 81.4 128.0 L 79.7 130.9 L 75.9 136.9 L 73.9 139.8 L 71.8 142.7 L 69.5 145.6 L 67.1 148.5 L 64.8 151.4 L 63.2 150.5 L 64.6 147.1 L 65.7 143.5 L 66.8 140.1 L 67.9 136.8 L 68.9 133.5 L 70.9 127.1 L 71.7 123.9 L 72.6 120.8 L 73.08439769744874 118.72400970458985 L 73.0 118.7 L 73.27341775894165 117.91392402648925 L 73.3 117.8 L 73.31155023574829 117.80429306030274 L 73.8 116.4 Z M 168.3 61.5 L 166.2 57.0 L 165.56525115966798 55.759354496002196 L 162.1 57.0 L 154.0 59.5 L 146.0 61.7 L 138.0 63.6 L 130.2 65.4 L 122.5 67.0 L 114.9 68.5 L 107.4 69.8 L 100.1 70.9 L 96.91535568237305 71.33625259399415 L 95.1 74.7 L 92.8 71.9 L 89.8 60.2 L 91.8 60.0 L 98.9 59.6 L 106.2 59.1 L 112.28407430648804 58.606696701049806 L 112.8 56.5 L 114.0 51.7 L 115.3 47.0 L 116.7 42.3 L 118.0 37.7 L 121.6 23.6 L 122.7 19.0 L 123.50422458648681 15.220144271850586 L 123.4 15.2 L 124.2 12.6 L 135.3 17.5 L 137.6 20.2 L 133.94576272964477 21.244067764282228 L 133.6 22.2 L 131.8 26.9 L 128.0 36.1 L 125.9 40.6 L 123.7 45.1 L 121.4 49.5 L 118.9 53.8 L 116.2 58.1 L 116.07643976211548 58.26886558532715 L 121.1 57.8 L 136.7 56.2 L 144.7 55.2 L 152.9 54.2 L 161.3 53.3 L 164.15415811538696 53.0013090133667 L 164.0 52.7 L 161.7 48.5 L 156.7 40.5 L 151.3 32.9 L 148.5 29.0 L 149.7 27.7 L 153.9 30.2 L 157.9 33.0 L 161.6 36.3 L 165.2 39.8 L 168.6 43.6 L 171.8 47.7 L 174.9 52.0 L 177.8 56.5 L 180.5 61.3 L 183.1 66.3 L 183.1 70.8 L 179.9 74.1 L 175.3 74.1 L 172.0 71.0 L 170.2 66.2 Z " />
</g>
</svg>
