<svg xmlns="http://www.w3.org/2000/svg" xmlns:xlink="http://www.w3.org/1999/xlink" version="1.1" baseProfile="full" viewBox="0 0 200 200" width="200" height="200">
<g fill="black">
<path d="M 80.3 176.7 L 100.3 176.7 L 101.6 176.6 L 102.5 176.4 L 103.1 176.3 L 103.4 176.1 L 103.6 175.9 L 103.7 175.7 L 103.9 175.4 L 104.1 174.8 L 104.3 173.9 L 104.3 118.475 L 96.8 124.1 L 95.75331630706788 124.8612244606018 L 95.7 128.7 L 92.4 127.3 L 84.2 118.3 L 85.9 117.2 L 104.3 106.6297872543335 L 104.3 56.8 L 87.7 56.8 L 87.7 52.8 L 104.3 52.8 L 104.3 13.2 L 116.3 15.2 L 119.3 17.2 L 116.3 19.0 L 116.3 52.8 L 119.8777777671814 52.8 L 126.1 45.8 L 134.1 52.8 L 134.1 56.8 L 116.3 56.8 L 116.3 99.6625 L 118.9 98.2 L 123.6 95.6 L 128.5 93.0 L 133.5 90.6 L 134.6 92.0 L 130.8 96.1 L 126.8 99.9 L 122.7 103.6 L 118.5 107.2 L 116.3 108.99069766998291 L 116.3 172.7 L 116.2 175.2 L 115.8 177.7 L 114.9 180.1 L 113.7 182.4 L 112.1 184.4 L 110.1 186.1 L 107.8 187.3 L 105.4 188.1 L 102.9 188.5 L 100.3 188.7 L 100.3 182.7 L 80.3 179.7 Z M 15.7 174.0 L 36.7 171.3 L 42.5 170.6371428489685 L 42.5 156.7 L 16.3 156.7 L 16.3 152.7 L 42.5 152.7 L 42.5 136.3 L 30.2 136.3 L 30.2 139.3 L 18.2 145.3 L 18.2 87.3 L 30.2 93.3 L 67.3 93.3 L 73.3 88.3 L 84.3 97.3 L 79.3 101.3 L 79.3 138.3 L 70.0 142.95 L 81.7 152.7 L 81.7 156.7 L 54.5 156.7 L 54.5 169.22535209655763 L 57.8 168.9 L 64.8 168.1 L 71.8 167.5 L 78.9 167.0 L 86.0 166.8 L 86.3 168.5 L 79.6 170.8 L 72.8 172.8 L 65.9 174.6 L 59.1 176.3 L 52.2 178.0 L 45.3 179.6 L 38.5 181.2 L 31.6 182.8 L 21.827093982696532 184.92454481124878 L 20.3 188.4 L 17.8 185.8 L 13.8 174.3 Z M 182.7 148.6 L 184.7 148.6 L 182.7 173.6 L 186.2 176.0 L 188.7 179.6 L 186.2 183.2 L 182.7 185.6 L 166.7 185.6 L 164.1 185.5 L 161.6 185.0 L 159.2 184.2 L 156.9 183.0 L 154.9 181.4 L 153.3 179.3 L 152.0 177.1 L 151.2 174.7 L 150.8 172.2 L 150.7 169.6 L 150.7 98.25830326080322 L 130.2 105.4 L 128.9 101.6 L 150.7 94.00541515350342 L 150.7 42.385185146331786 L 145.8 44.2 L 140.0 45.9 L 133.8 47.5 L 133.2 45.8 L 138.4 42.5 L 143.5 39.3 L 148.2 36.3 L 150.7 34.65227270126343 L 150.7 34.5 L 150.9310344696045 34.5 L 152.6 33.4 L 156.7 30.5 L 160.5 27.7 L 163.9 24.9 L 166.9 22.1 L 169.7 19.4 L 171.31085939407347 17.508991146087645 L 171.3 17.5 L 171.425 17.375 L 172.0 16.7 L 172.05029239654542 16.74970760345459 L 172.3 16.5 L 180.6 25.2 L 181.3 28.7 L 177.3991066932678 27.74188585281372 L 177.2 27.9 L 173.6 30.5 L 169.7 33.0 L 165.6 35.4 L 162.7 36.946666622161864 L 162.7 89.82490978240966 L 163.42202892303467 89.57337255477906 L 169.6 76.8 L 184.3 82.3 L 185.6 86.1 L 162.7 94.07779779434205 L 162.7 170.9 L 162.9 171.8 L 163.1 172.4 L 163.3 172.7 L 163.4 172.9 L 163.6 173.0 L 163.9 173.2 L 164.5 173.4 L 165.4 173.6 L 176.7 173.6 Z M 54.5 136.3 L 54.5 152.7 L 59.7 152.7 L 68.9 143.5 L 67.3 144.3 L 67.3 136.3 Z M 30.2 117.1 L 30.2 132.3 L 42.5 132.3 L 42.5 117.1 Z M 54.5 117.1 L 54.5 132.3 L 67.3 132.3 L 67.3 117.1 Z M 30.2 97.3 L 30.2 113.1 L 42.5 113.1 L 42.5 97.3 Z M 54.5 97.3 L 54.5 113.1 L 67.3 113.1 L 67.3 97.3 Z M 83.7 75.0 L 83.7 79.0 L 14.7 79.0 L 14.7 75.0 L 65.51818180084229 75.0 L 73.7 66.0 Z M 30.6 20.6 L 65.7 20.6 L 71.7 15.6 L 82.7 24.6 L 77.7 28.6 L 77.7 61.3 L 65.7 67.3 L 65.7 61.3 L 30.6 61.3 L 18.6 67.3 L 18.6 14.6 Z M 30.6 42.4 L 30.6 57.3 L 65.7 57.3 L 65.7 42.4 Z M 30.6 24.6 L 30.6 38.4 L 65.7 38.4 L 65.7 24.6 Z " />
</g>
</svg>
