<svg xmlns="http://www.w3.org/2000/svg" xmlns:xlink="http://www.w3.org/1999/xlink" version="1.1" baseProfile="full" viewBox="0 0 200 200" width="200" height="200">
<g fill="black">
<path d="M 79.5 158.9 L 77.6 156.4 L 75.4 153.8 L 72.8 151.1 L 69.9 148.3 L 66.6 145.4 L 63.0 142.5 L 60.3 140.28461542129517 L 60.3 184.0 L 48.3 190.0 L 48.3 147.86666669845582 L 47.7 148.8 L 43.7 154.2 L 39.4 159.3 L 34.8 164.2 L 29.9 168.8 L 24.7 173.1 L 19.1 177.1 L 13.1 180.7 L 12.0 179.2 L 16.6 174.2 L 21.0 169.2 L 25.2 164.3 L 29.1 159.2 L 32.7 154.1 L 36.1 148.9 L 39.1 143.5 L 41.9 138.0 L 44.5 132.4 L 44.99411764144897 131.0 L 12.5 131.0 L 12.5 127.0 L 48.3 127.0 L 48.3 105.0 L 60.3 107.0 L 63.3 109.0 L 60.3 110.8 L 60.3 127.0 L 75.2 127.0 L 85.2 117.0 L 97.2 127.0 L 97.2 131.0 L 60.3 131.0 L 60.3 136.35098037719726 L 60.7 136.5 L 65.5 138.4 L 69.9 140.4 L 74.0 142.5 L 77.8 144.8 L 81.3 147.1 L 84.5 149.4 L 87.4 151.9 L 90.0 154.5 L 92.3 157.2 L 93.0 161.7 L 90.4 165.5 L 85.9 166.2 L 82.1 163.6 L 81.0 161.3 Z M 182.5 146.7 L 184.5 146.7 L 182.5 171.7 L 186.1 174.1 L 188.5 177.7 L 186.1 181.3 L 182.5 183.7 L 116.2 183.7 L 113.6 183.5 L 111.1 183.1 L 108.7 182.3 L 106.4 181.1 L 104.4 179.4 L 102.8 177.4 L 101.6 175.1 L 100.8 172.7 L 100.3 170.2 L 100.2 167.7 L 100.2 77.1 L 112.2 83.1 L 165.7 83.1 L 171.7 78.1 L 182.7 87.1 L 177.7 91.1 L 177.7 135.0 L 165.7 141.0 L 165.7 129.0 L 112.2 129.0 L 112.2 168.9 L 112.4 169.8 L 112.6 170.4 L 112.8 170.7 L 112.9 170.9 L 113.1 171.1 L 113.4 171.3 L 114.0 171.5 L 114.9 171.6 L 116.2 171.7 L 176.5 171.7 Z M 112.2 87.1 L 112.2 125.0 L 133.2 125.0 L 133.2 87.1 Z M 145.2 87.1 L 145.2 125.0 L 165.7 125.0 L 165.7 87.1 Z M 61.9 17.7 L 64.1 20.5 L 59.43636360168457 21.645454502105714 L 58.4 23.2 L 57.1 25.1 L 55.7 26.9 L 54.3 28.8 L 52.7 30.7 L 51.0 32.5 L 49.5 34.0 L 74.5 34.0 L 80.5 29.0 L 91.5 38.0 L 86.5 42.0 L 86.5 109.0 L 74.5 115.0 L 74.5 105.0 L 35.3 105.0 L 35.3 112.0 L 23.3 118.0 L 23.3 28.0 L 35.3 34.0 L 46.85217390060425 34.0 L 47.2 33.2 L 48.2 28.4 L 48.7 26.1 L 49.1 23.9 L 49.5 21.8 L 50.1 17.8 L 50.3 15.9 L 50.34148836135864 15.15320930480957 L 50.1 15.1 L 50.39579830169678 14.175630283355712 L 50.4 14.1 L 50.418178939819335 14.10569076538086 L 50.9 12.6 Z M 35.3 82.0 L 35.3 101.0 L 74.5 101.0 L 74.5 82.0 Z M 35.3 59.0 L 35.3 78.0 L 74.5 78.0 L 74.5 59.0 Z M 119.2 24.5 L 160.1 24.5 L 166.1 19.5 L 177.1 28.5 L 172.1 32.5 L 172.1 68.3 L 160.1 74.3 L 160.1 68.3 L 119.2 68.3 L 107.2 74.3 L 107.2 18.5 Z M 119.2 28.5 L 119.2 64.3 L 160.1 64.3 L 160.1 28.5 Z M 35.3 38.0 L 35.3 55.0 L 74.5 55.0 L 74.5 38.0 Z " />
</g>
</svg>
