<svg xmlns="http://www.w3.org/2000/svg" xmlns:xlink="http://www.w3.org/1999/xlink" version="1.1" baseProfile="full" viewBox="0 0 200 200" width="200" height="200">
<g fill="black">
<path d="M 15.6 170.9 L 21.9 169.6 L 28.1 168.3 L 34.4 166.8 L 40.7 165.4 L 43.8 164.61269845962525 L 43.8 105.0 L 17.7 105.0 L 17.7 101.0 L 43.8 101.0 L 43.8 73.0 L 31.8 73.0 L 31.8 69.0 L 58.31818180084228 69.0 L 66.5 60.0 L 76.5 69.0 L 76.5 73.0 L 55.8 73.0 L 55.8 101.0 L 59.2 101.0 L 69.2 91.0 L 81.2 101.0 L 81.2 105.0 L 55.8 105.0 L 55.8 161.7 L 66.2 159.1 L 72.7 157.5 L 79.3 156.1 L 80.0 157.8 L 74.0 161.1 L 68.0 164.1 L 61.9 166.9 L 55.8 169.5 L 43.4 174.3 L 37.2 176.5 L 31.0 178.6 L 24.7 180.6 L 22.51680850982666 181.26904258728027 L 21.2 185.0 L 18.5 182.5 L 13.7 171.4 Z M 131.7 23.0 L 132.3 26.5 L 128.5064516067505 25.48387098312378 L 128.1 25.8 L 124.4 28.5 L 120.6 31.1 L 116.8 33.4 L 112.9 35.5 L 108.9 37.5 L 104.8 39.2 L 100.6 40.7 L 97.7 41.4418604850769 L 97.7 92.0 L 110.61818180084228 92.0 L 118.8 83.0 L 128.8 92.0 L 128.8 96.0 L 97.7 96.0 L 97.7 153.0 L 111.21818180084229 153.0 L 119.4 144.0 L 129.4 153.0 L 129.4 157.0 L 97.7 157.0 L 97.7 169.0 L 85.7 175.0 L 85.7 32.0 L 96.71176471710206 37.50588235855103 L 98.4 36.3 L 105.2 31.3 L 108.4 28.7 L 111.6 26.0 L 114.7 23.3 L 117.6 20.4 L 120.5 17.4 L 122.63775930404663 15.03319501876831 L 122.6 15.0 L 122.96206893920899 14.6741379737854 L 123.3 14.3 L 123.3361623764038 14.337453842163086 L 123.6 14.1 Z M 156.5 153.0 L 166.5 153.0 L 167.7 152.9 L 168.6 152.7 L 169.2 152.5 L 169.6 152.4 L 169.8 152.2 L 169.9 152.0 L 170.1 151.7 L 170.3 151.1 L 170.4 150.2 L 170.5 149.0 L 170.5 36.0 L 146.1 36.0 L 146.1 183.0 L 134.1 189.0 L 134.1 26.0 L 146.1 32.0 L 170.5 32.0 L 176.5 27.0 L 187.5 36.0 L 182.5 40.0 L 182.5 149.0 L 182.4 151.5 L 181.9 154.0 L 181.1 156.4 L 179.9 158.7 L 178.2 160.7 L 176.2 162.3 L 174.0 163.6 L 171.6 164.4 L 169.1 164.8 L 166.5 165.0 L 166.5 159.0 L 156.5 156.0 Z M 27.1 145.4 L 26.8 142.4 L 26.3 139.4 L 25.6 136.4 L 24.7 133.4 L 23.7 130.4 L 22.5 127.4 L 21.1 124.2 L 19.2 121.3 L 20.6 120.1 L 23.2 122.5 L 26.0 124.9 L 28.5 127.5 L 30.7 130.4 L 32.7 133.3 L 34.4 136.5 L 36.0 139.8 L 37.3 143.2 L 38.3 146.8 L 39.1 150.5 L 37.6 154.8 L 33.6 156.9 L 29.3 155.5 L 27.1 151.4 L 27.2 148.4 Z M 78.7 121.8 L 80.9 124.7 L 76.90474309921265 125.54110670089722 L 74.1 130.8 L 72.4 133.8 L 70.6 136.8 L 68.7 139.7 L 66.7 142.7 L 64.5 145.6 L 62.2 148.4 L 60.0 151.4 L 58.5 150.5 L 59.7 147.1 L 60.6 143.6 L 61.6 140.2 L 62.5 136.9 L 63.5 133.6 L 64.4 130.4 L 65.2 127.2 L 66.0 124.1 L 67.17022905349731 118.91755723953247 L 67.1 118.9 L 67.33000001907348 118.21000003814697 L 67.4 117.9 L 67.42989416122437 117.91031742095947 L 67.9 116.5 Z M 68.6 49.1 L 67.3 46.6 L 65.6 44.0 L 63.7 41.5 L 61.6 38.9 L 59.2 36.3 L 56.5 33.6 L 53.6 30.8 L 51.84220180511475 29.41506814956665 L 49.9 34.3 L 46.4 42.3 L 42.6 50.2 L 38.4 57.8 L 34.0 65.3 L 29.3 72.5 L 24.2 79.5 L 18.8 86.2 L 12.9 92.5 L 11.4 91.4 L 15.6 84.0 L 19.7 76.6 L 23.7 69.1 L 27.4 61.6 L 30.9 54.0 L 34.1 46.3 L 37.1 38.5 L 39.9 30.5 L 42.3 22.4 L 44.3184591293335 15.203754425048828 L 44.3 15.2 L 44.52068967819214 14.482758617401123 L 44.6 14.2 L 44.60705089569092 14.202084636688232 L 45.1 12.6 L 56.1 17.6 L 58.4 20.4 L 54.82475566864014 21.29381103515625 L 53.2 26.0 L 52.671725559234616 27.328690242767333 L 55.1 28.3 L 59.0 29.9 L 62.6 31.7 L 65.9 33.7 L 69.1 35.8 L 72.0 38.1 L 74.7 40.5 L 77.2 43.0 L 79.4 45.8 L 81.4 48.6 L 81.6 53.2 L 78.6 56.6 L 74.1 56.9 L 70.6 53.9 L 69.7 51.5 Z " />
</g>
</svg>
