<svg xmlns="http://www.w3.org/2000/svg" xmlns:xlink="http://www.w3.org/1999/xlink" version="1.1" baseProfile="full" viewBox="0 0 200 200" width="200" height="200">
<g fill="black">
<path d="M 151.7 176.0 L 167.7 176.0 L 168.9 175.9 L 169.8 175.7 L 170.4 175.5 L 170.8 175.4 L 171.0 175.2 L 171.1 175.0 L 171.3 174.7 L 171.5 174.1 L 171.6 173.2 L 171.7 172.0 L 171.7 96.0 L 104.7 96.0 L 104.7 183.2 L 93.7 188.7 L 93.7 86.5 L 102.6 90.95 L 102.6 21.0 L 114.6 27.0 L 162.3 27.0 L 168.3 22.0 L 179.3 31.0 L 174.3 35.0 L 174.3 89.83333330154419 L 177.7 87.0 L 188.7 96.0 L 183.7 100.0 L 183.7 172.0 L 183.6 174.5 L 183.1 177.0 L 182.3 179.4 L 181.1 181.7 L 179.4 183.7 L 177.4 185.3 L 175.2 186.6 L 172.8 187.4 L 170.3 187.8 L 167.7 188.0 L 167.7 182.0 L 151.7 179.0 Z M 89.3 29.0 L 89.3 33.0 L 62.7 33.0 L 62.7 61.0 L 73.9 61.0 L 78.9 56.0 L 88.9 65.0 L 83.9 68.0 L 83.9 174.0 L 73.9 179.0 L 73.9 168.0 L 28.7 168.0 L 28.7 180.0 L 16.7 186.0 L 16.7 55.0 L 28.7 61.0 L 36.7 61.0 L 36.7 33.0 L 12.3 33.0 L 12.3 29.0 L 67.3 29.0 L 77.3 19.0 Z M 130.3 116.0 L 146.6 116.0 L 152.6 111.0 L 163.6 120.0 L 158.6 124.0 L 158.6 161.0 L 146.6 167.0 L 146.6 155.0 L 130.3 155.0 L 130.3 167.0 L 118.3 173.0 L 118.3 110.0 Z M 28.7 143.0 L 28.7 164.0 L 73.9 164.0 L 73.9 143.0 Z M 130.3 120.0 L 130.3 151.0 L 146.6 151.0 L 146.6 120.0 Z M 73.9 65.0 L 62.7 65.0 L 62.7 107.0 L 62.8 108.3 L 63.1 109.4 L 63.5 110.2 L 64.2 110.9 L 64.6 111.1 L 65.1 111.3 L 65.9 111.4 L 66.9 111.5 L 73.9 111.5 Z M 28.7 65.0 L 28.7 127.35294113159179 L 29.9 124.6 L 31.4 120.3 L 32.8 115.4 L 34.0 109.9 L 35.0 103.8 L 35.8 97.0 L 36.4 89.5 L 36.8 81.3 L 36.9 72.5 L 36.74210529327392 65.0 Z M 114.6 31.0 L 114.6 92.0 L 130.9 92.0 L 130.9 49.0 L 142.9 55.0 L 162.3 55.0 L 162.3 31.0 Z M 142.9 59.0 L 142.9 92.0 L 162.3 92.0 L 162.3 59.0 Z M 46.7 33.0 L 46.7 61.0 L 53.7 61.0 L 53.7 33.0 Z M 63.3 121.7 L 61.0 120.8 L 58.9 119.6 L 57.1 118.0 L 55.7 116.1 L 54.7 113.9 L 54.0 111.7 L 53.7 109.4 L 53.7 65.0 L 46.63814430236816 65.0 L 46.4 72.7 L 45.7 81.9 L 44.7 90.3 L 43.5 98.1 L 42.0 105.1 L 40.1 111.5 L 38.0 117.2 L 35.5 122.1 L 32.6 126.2 L 29.3 129.4 L 28.7 128.90909090042115 L 28.7 139.0 L 73.9 139.0 L 73.9 122.5 L 68.2 122.5 L 65.7 122.2 Z " />
</g>
</svg>
