<svg xmlns="http://www.w3.org/2000/svg" xmlns:xlink="http://www.w3.org/1999/xlink" version="1.1" baseProfile="full" viewBox="0 0 200 200" width="200" height="200">
<g fill="black">
<path d="M 183.0 27.0 L 183.0 31.0 L 125.0 31.0 L 125.0 61.0 L 153.0 61.0 L 159.0 56.0 L 170.0 65.0 L 165.0 69.0 L 165.0 176.0 L 153.0 182.0 L 153.0 65.0 L 125.0 65.0 L 125.0 98.0 L 126.0 98.0 L 136.0 88.0 L 148.0 98.0 L 148.0 102.0 L 52.0 102.0 L 52.0 98.0 L 76.0 98.0 L 76.0 65.0 L 46.0 65.0 L 46.0 176.0 L 34.0 182.0 L 34.0 55.0 L 46.0 61.0 L 76.0 61.0 L 76.0 31.0 L 17.0 31.0 L 17.0 27.0 L 161.0 27.0 L 171.0 17.0 Z M 148.0 166.0 L 148.0 170.0 L 52.0 170.0 L 52.0 166.0 L 126.0 166.0 L 136.0 156.0 Z M 148.0 132.0 L 148.0 136.0 L 52.0 136.0 L 52.0 132.0 L 126.0 132.0 L 136.0 122.0 Z M 88.0 65.0 L 88.0 98.0 L 113.0 98.0 L 113.0 65.0 Z M 88.0 31.0 L 88.0 61.0 L 113.0 61.0 L 113.0 31.0 Z " />
</g>
</svg>
