<svg xmlns="http://www.w3.org/2000/svg" xmlns:xlink="http://www.w3.org/1999/xlink" version="1.1" baseProfile="full" viewBox="0 0 200 200" width="200" height="200">
<g fill="black">
<path d="M 18.4 173.1 L 28.3 172.5 L 36.0 171.97156858444214 L 36.0 133.2 L 48.0 135.2 L 51.0 137.2 L 48.0 139.0 L 48.0 171.16057691574096 L 48.9 171.1 L 59.5 170.3 L 69.0 169.51559629440308 L 69.0 122.7 L 81.0 124.7 L 84.0 126.7 L 81.0 128.5 L 81.0 142.2 L 98.81818180084228 142.2 L 107.0 133.2 L 117.0 142.2 L 117.0 146.2 L 81.0 146.2 L 81.0 168.54821424484254 L 81.6 168.5 L 93.0 167.5 L 104.7 166.6 L 116.6 165.7 L 128.8 165.0 L 129.1 166.8 L 117.1 169.5 L 105.4 171.9 L 93.9 174.0 L 82.5 176.0 L 71.5 177.8 L 60.6 179.5 L 50.0 181.1 L 39.6 182.5 L 29.4 183.8 L 23.551089572906495 184.56803874969484 L 21.7 187.9 L 19.5 185.1 L 16.4 173.3 Z M 128.16101694107056 95.10338983535766 L 128.7 107.5 L 129.88951053619385 115.6 L 166.8181818008423 115.6 L 175.0 106.6 L 185.0 115.6 L 185.0 119.6 L 130.47692308425903 119.6 L 130.8 121.8 L 134.1 134.3 L 138.4 145.1 L 143.6 154.0 L 149.6 161.3 L 156.1 166.8 L 163.0 170.7 L 170.3 173.0 L 172.34876117706298 173.1887017250061 L 178.0 148.7 L 180.0 148.7 L 178.07446804046631 173.7319149017334 L 182.2 175.5 L 184.0 179.7 L 182.2 183.9 L 178.0 185.7 L 178.0 174.7 L 177.9083333015442 174.7 L 178.0 185.7 L 167.9 184.7 L 158.2 181.7 L 149.2 176.6 L 141.0 169.7 L 133.8 160.9 L 127.6 150.3 L 122.7 138.1 L 119.0 124.2 L 118.32179489135743 119.6 L 15.0 119.6 L 15.0 115.6 L 117.73205127716065 115.6 L 116.7 108.6 L 116.04056015014649 92.3966199874878 L 116.0 92.4 L 116.0 89.0 L 128.0 91.4 L 131.0 93.4 Z M 153.9 106.4 L 152.7 104.9 L 151.3 103.3 L 149.6 101.7 L 147.7 100.0 L 145.5 98.3 L 143.1 96.6 L 140.6 94.7 L 137.6 93.2 L 138.2 91.5 L 141.4 92.4 L 144.7 92.9 L 147.7 93.6 L 150.6 94.4 L 153.3 95.3 L 155.9 96.3 L 158.3 97.4 L 160.5 98.6 L 162.6 99.9 L 164.6 101.4 L 165.9 105.8 L 163.9 109.9 L 159.5 111.2 L 155.4 109.2 L 154.8 107.8 Z M 107.0 99.5 L 107.0 103.5 L 30.0 103.5 L 30.0 99.5 L 88.81818180084228 99.5 L 97.0 90.5 Z M 13.4 70.0 L 12.7 65.5 L 15.2 61.7 L 17.1 60.7 L 18.9 59.4 L 20.7 57.7 L 22.3 55.6 L 23.9 53.0 L 25.3 49.9 L 26.5 46.4 L 27.6 42.4 L 28.6 38.0 L 29.1 33.1 L 30.9 33.0 L 31.5 38.0 L 31.844680881500246 40.7 L 94.0 40.7 L 94.0 26.1 L 34.0 26.1 L 34.0 22.1 L 148.0 22.1 L 158.0 12.1 L 170.0 22.1 L 170.0 26.1 L 106.0 26.1 L 106.0 40.7 L 173.0 40.7 L 173.4826086997986 40.29782609939575 L 173.7 39.7 L 173.99863481521606 39.86780433654785 L 179.0 35.7 L 190.0 44.7 L 185.0 47.7 L 180.9974193572998 49.36774196624756 L 180.8 49.6 L 179.1 51.5 L 175.5 55.1 L 173.6 56.9 L 169.6 60.3 L 167.5 61.8 L 165.6 63.6 L 164.3 62.4 L 165.6 60.3 L 166.5 57.9 L 168.5 53.3 L 171.2 46.4 L 171.8954545021057 44.7 L 106.0 44.7 L 106.0 80.4 L 94.0 86.4 L 94.0 44.7 L 32.14444446563721 44.7 L 32.2 47.2 L 31.9 51.5 L 31.3 55.5 L 30.3 59.3 L 28.8 62.8 L 26.9 66.1 L 24.6 69.1 L 21.7 71.7 L 17.2 72.5 Z M 84.0 77.8 L 84.0 81.8 L 32.0 81.8 L 32.0 77.8 L 65.81818180084228 77.8 L 74.0 68.8 Z M 168.0 77.8 L 168.0 81.8 L 116.0 81.8 L 116.0 77.8 L 146.0 77.8 L 156.0 67.8 Z M 84.0 60.1 L 84.0 64.1 L 37.0 64.1 L 37.0 60.1 L 65.81818180084228 60.1 L 74.0 51.1 Z M 161.0 60.1 L 161.0 64.1 L 116.0 64.1 L 116.0 60.1 L 142.8181818008423 60.1 L 151.0 51.1 Z " />
</g>
</svg>
