<svg xmlns="http://www.w3.org/2000/svg" xmlns:xlink="http://www.w3.org/1999/xlink" version="1.1" baseProfile="full" viewBox="0 0 200 200" width="200" height="200">
<g fill="black">
<path d="M 72.3 129.0 L 71.4 131.3 L 70.1 133.5 L 68.6 135.5 L 66.7 137.2 L 64.7 138.6 L 62.4 139.7 L 60.0 140.4 L 57.5 140.8 L 55.0 141.0 L 54.94987468719482 134.98496236801148 L 45.0 132.0 L 45.0 129.0 L 54.9 129.0 L 56.2 128.9 L 57.3 128.7 L 58.1 128.5 L 58.8 128.2 L 59.3 127.8 L 59.7 127.4 L 59.92680416107178 127.12783508300781 L 60.7 123.7 L 61.8 119.5 L 62.3 115.2 L 62.4 110.9 L 61.9 106.5 L 60.8 101.9 L 59.2 97.2 L 57.0 92.3 L 54.2 87.2 L 50.9 81.9 L 47.0 76.3 L 47.2 76.1 L 46.2 75.5 L 48.8 69.6 L 51.4 64.0 L 53.9 58.6 L 56.3 53.5 L 58.4 48.5 L 60.4 43.7 L 62.2 39.0 L 63.8 34.5 L 65.1 30.2 L 65.15853662490845 30.0 L 35.0 30.0 L 35.0 183.0 L 23.0 189.0 L 23.0 20.0 L 35.0 26.0 L 66.0 26.0 L 72.0 21.0 L 83.0 30.0 L 78.0 33.0 L 75.93972606658936 33.85844745635986 L 75.8 34.2 L 73.7 38.6 L 71.3 43.2 L 68.8 47.7 L 66.0 52.4 L 62.9 57.1 L 59.6 61.9 L 56.0 66.8 L 52.0 71.6 L 48.6978217124939 75.28615245819091 L 54.0 79.1 L 58.9 83.6 L 63.1 88.3 L 66.6 93.3 L 69.5 98.5 L 71.8 103.8 L 73.3 109.4 L 74.1 115.0 L 74.2 120.8 L 73.6 126.7 L 72.79864778518677 127.21911497116089 Z M 165.9 78.8 L 168.5 81.3 L 165.0990783691406 82.6225806236267 L 163.7 89.3 L 161.4 99.6 L 159.0 109.9 L 156.4 120.1 L 153.8 130.2 L 151.0 140.3 L 148.1 150.3 L 145.1 160.2 L 141.7 169.9 L 138.925 177.3 L 165.2 177.3 L 175.2 167.3 L 187.2 177.3 L 187.2 181.3 L 69.7 181.3 L 69.7 177.3 L 136.68235292434693 177.3 L 138.0 168.9 L 143.7 138.6 L 145.5 128.4 L 147.4 118.2 L 149.1 107.9 L 150.9 97.6 L 152.5 87.2 L 153.9469630241394 77.70430498123169 L 153.9 77.7 L 154.4 74.8 Z M 103.1 141.2 L 102.1 131.6 L 100.8 122.6 L 99.4 113.9 L 97.8 105.6 L 96.0 97.7 L 94.2 90.2 L 92.2 83.0 L 90.3 76.0 L 91.9 75.3 L 95.7 81.5 L 99.2 88.4 L 102.3 95.8 L 105.1 103.6 L 107.7 112.0 L 109.9 120.8 L 112.0 130.0 L 113.8 139.7 L 115.3 149.9 L 116.6 160.4 L 115.2 164.8 L 111.2 166.9 L 106.8 165.5 L 104.7 161.4 L 104.0 151.1 Z M 77.2 57.4 L 122.5 57.4 L 122.5 18.4 L 134.5 20.4 L 137.5 22.4 L 134.5 24.2 L 134.5 57.4 L 157.8 57.4 L 167.8 47.4 L 179.8 57.4 L 179.8 61.4 L 77.2 61.4 Z " />
</g>
</svg>
