<svg xmlns="http://www.w3.org/2000/svg" xmlns:xlink="http://www.w3.org/1999/xlink" version="1.1" baseProfile="full" viewBox="0 0 200 200" width="200" height="200">
<g fill="black">
<path d="M 165.8 174.2 L 161.1 170.8 L 156.5 167.0 L 152.1 162.8 L 147.7 158.3 L 143.6 153.4 L 139.6 148.1 L 135.9 142.3 L 132.87777776718139 136.7 L 132.4 136.7 L 132.4 182.7 L 120.4 188.7 L 120.4 142.68478260040283 L 119.5 143.8 L 114.5 149.3 L 109.1 154.5 L 103.3 159.3 L 97.1 163.9 L 90.6 168.3 L 83.6 172.3 L 76.3 175.9 L 68.6 179.2 L 60.4 182.0 L 59.6 180.4 L 66.8 175.8 L 73.7 171.3 L 80.1 166.7 L 86.2 162.0 L 91.9 157.3 L 97.2 152.4 L 102.0 147.3 L 106.5 142.1 L 110.5 136.8 L 110.5619047164917 136.7 L 75.6 136.7 L 75.6 132.7 L 120.4 132.7 L 120.4 112.6 L 79.7 112.6 L 79.7 108.6 L 120.4 108.6 L 120.4 88.9 L 132.4 90.9 L 135.4 92.9 L 132.4 94.7 L 132.4 108.6 L 158.01818180084229 108.6 L 166.2 99.6 L 176.2 108.6 L 176.2 112.6 L 132.4 112.6 L 132.4 132.7 L 161.5 132.7 L 171.5 122.7 L 183.5 132.7 L 183.5 136.7 L 135.84468088150024 136.7 L 139.1 139.7 L 144.0 144.2 L 148.8 148.4 L 153.5 152.2 L 158.1 155.7 L 162.7 158.9 L 167.3 161.6 L 171.8 164.1 L 176.4 166.1 L 180.8 167.8 L 187.1 170.5 L 175.7 180.0 L 170.7 177.3 Z M 32.8 100.2 L 57.7 100.2 L 63.7 95.2 L 74.7 104.2 L 69.7 108.2 L 69.7 167.0 L 57.7 173.0 L 57.7 167.0 L 32.8 167.0 L 32.8 179.0 L 20.8 185.0 L 20.8 94.2 Z M 32.8 135.6 L 32.8 163.0 L 57.7 163.0 L 57.7 135.6 Z M 32.8 104.2 L 32.8 131.6 L 57.7 131.6 L 57.7 104.2 Z M 13.5 71.5 L 12.6 67.0 L 15.1 63.2 L 17.0 62.2 L 18.9 60.8 L 20.6 59.0 L 22.3 56.8 L 23.9 54.2 L 25.3 51.0 L 26.5 47.4 L 27.6 43.3 L 28.6 38.7 L 29.1 33.8 L 30.9 33.7 L 31.5 38.8 L 31.85 41.6 L 94.0 41.6 L 94.0 26.6 L 34.0 26.6 L 34.0 22.6 L 148.0 22.6 L 158.0 12.6 L 170.0 22.6 L 170.0 26.6 L 106.0 26.6 L 106.0 41.6 L 173.0 41.6 L 173.54489793777466 41.14591836929321 L 173.7 40.7 L 173.9285223007202 40.82623138427734 L 179.0 36.6 L 190.0 45.6 L 185.0 48.6 L 181.15225811004638 50.20322580337525 L 180.9 50.5 L 179.1 52.5 L 177.4 54.4 L 175.5 56.3 L 171.7 59.9 L 167.5 63.1 L 165.7 65.0 L 164.2 63.8 L 165.6 61.7 L 166.5 59.2 L 167.5 56.8 L 168.4 54.5 L 169.4 52.2 L 170.3 49.8 L 171.94347829818724 45.6 L 106.0 45.6 L 106.0 87.6 L 94.0 93.6 L 94.0 45.6 L 32.143478298187254 45.6 L 32.2 48.2 L 31.9 52.6 L 31.3 56.7 L 30.3 60.5 L 28.8 64.1 L 26.9 67.5 L 24.6 70.5 L 21.8 73.2 L 17.3 74.0 Z M 84.0 79.6 L 84.0 83.6 L 32.0 83.6 L 32.0 79.6 L 65.81818180084228 79.6 L 74.0 70.6 Z M 168.0 79.6 L 168.0 83.6 L 116.0 83.6 L 116.0 79.6 L 149.8181818008423 79.6 L 158.0 70.6 Z M 161.0 61.5 L 161.0 65.5 L 116.0 65.5 L 116.0 61.5 L 142.8181818008423 61.5 L 151.0 52.5 Z M 84.0 61.5 L 84.0 65.5 L 37.0 65.5 L 37.0 61.5 L 65.81818180084228 61.5 L 74.0 52.5 Z " />
</g>
</svg>
