<svg xmlns="http://www.w3.org/2000/svg" xmlns:xlink="http://www.w3.org/1999/xlink" version="1.1" baseProfile="full" viewBox="0 0 200 200" width="200" height="200">
<g fill="black">
<path d="M 35.0 25.0 L 77.0 25.0 L 83.0 20.0 L 94.0 29.0 L 89.0 33.0 L 89.0 76.0 L 77.0 82.0 L 77.0 74.0 L 35.0 74.0 L 35.0 183.0 L 23.0 189.0 L 23.0 19.0 Z M 117.8 134.0 L 117.8 139.7 L 117.3 145.5 L 116.5 151.0 L 115.4 156.2 L 113.9 161.0 L 112.1 165.4 L 109.9 169.5 L 108.4416666984558 171.6 L 128.3 171.6 L 129.5 171.5 L 130.4 171.4 L 131.0 171.2 L 131.6 170.9 L 131.9 170.3 L 132.1 169.7 L 132.2 168.8 L 132.3 167.6 L 132.3 134.0 Z M 44.7 134.0 L 44.7 130.0 L 58.9 130.0 L 58.9 85.5 L 70.9 91.5 L 84.7 91.5 L 90.2 86.5 L 100.7 95.5 L 95.7 99.0 L 95.7 130.0 L 106.8 130.0 L 106.8 86.0 L 117.8 91.5 L 132.3 91.5 L 138.3 86.5 L 149.3 95.5 L 144.3 99.5 L 144.3 130.0 L 146.7 130.0 L 151.2 124.0 L 157.2 130.0 L 157.2 134.0 L 144.3 134.0 L 144.3 167.6 L 144.2 170.2 L 143.7 172.7 L 142.9333333015442 175.0 L 161.0 175.0 L 162.2 174.9 L 163.1 174.7 L 164.0 174.4 L 164.4 174.0 L 164.7 173.1 L 164.9 172.2 L 165.0 171.0 L 165.0 74.0 L 123.0 74.0 L 123.0 77.0 L 111.0 83.0 L 111.0 19.0 L 123.0 25.0 L 165.0 25.0 L 171.0 20.0 L 182.0 29.0 L 177.0 33.0 L 177.0 171.0 L 176.8 173.5 L 176.4 176.0 L 175.6 178.4 L 174.3 180.7 L 172.7 182.7 L 170.7 184.3 L 168.4 185.6 L 166.0 186.4 L 163.5 186.8 L 161.0 187.0 L 161.0 181.0 L 141.0931263923645 178.01396894454956 L 140.0 179.3 L 138.0 181.0 L 135.8 182.2 L 133.4 183.0 L 130.9 183.5 L 128.3 183.6 L 128.3 177.6 L 108.3 174.6 L 108.3 171.8039999961853 L 107.4 173.1 L 104.5 176.2 L 101.3 178.8 L 97.9 181.0 L 96.8 179.7 L 99.1 176.7 L 100.9 173.5 L 102.6 170.1 L 103.9 166.6 L 105.0 162.8 L 105.9 158.8 L 106.5 154.5 L 106.9 149.9 L 107.0 144.9 L 106.8 139.7 L 106.8 134.0 L 95.7 134.0 L 95.7 167.1 L 95.6 169.5 L 95.2 171.8 L 94.6 174.1 L 93.6 176.2 L 92.2 178.2 L 90.4 179.8 L 88.3 181.1 L 86.1 181.9 L 83.8 182.4 L 81.5 182.6 L 81.5 177.1 L 67.5 174.3 L 67.5 171.6 L 81.5 171.6 L 82.4 171.5 L 83.1 171.4 L 83.7 171.1 L 83.9 170.9 L 84.0 170.7 L 84.3 170.2 L 84.5 169.5 L 84.6 168.4 L 84.7 167.1 L 84.7 134.0 L 70.9 134.0 L 70.9 138.6 L 70.3 144.6 L 69.5 150.3 L 68.2 155.6 L 66.5 160.6 L 64.5 165.2 L 62.0 169.5 L 59.2 173.3 L 56.0 176.6 L 52.4 179.4 L 48.5 181.6 L 47.4 180.2 L 49.9 176.8 L 52.1 173.4 L 53.9 169.8 L 55.5 166.1 L 56.8 162.2 L 57.8 158.0 L 58.5 153.6 L 58.9 148.9 L 59.0 143.9 L 58.9 138.6 L 58.9 134.0 Z M 70.9 95.5 L 70.9 130.0 L 84.7 130.0 L 84.7 95.5 Z M 117.8 95.5 L 117.8 130.0 L 132.3 130.0 L 132.3 95.5 Z M 123.0 51.0 L 123.0 70.0 L 165.0 70.0 L 165.0 51.0 Z M 35.0 51.0 L 35.0 70.0 L 77.0 70.0 L 77.0 51.0 Z M 123.0 29.0 L 123.0 47.0 L 165.0 47.0 L 165.0 29.0 Z M 35.0 29.0 L 35.0 47.0 L 77.0 47.0 L 77.0 29.0 Z " />
</g>
</svg>
