<svg xmlns="http://www.w3.org/2000/svg" xmlns:xlink="http://www.w3.org/1999/xlink" version="1.1" baseProfile="full" viewBox="0 0 200 200" width="200" height="200">
<g fill="black">
<path d="M 71.4 130.0 L 70.1 132.2 L 68.6 134.2 L 66.7 135.9 L 64.7 137.3 L 62.4 138.4 L 60.0 139.1 L 57.5 139.5 L 55.0 139.6 L 55.0 133.6 L 45.0 130.6 L 45.0 127.6 L 56.2 127.6 L 57.3 127.4 L 58.1 127.1 L 59.3 126.5 L 59.7 126.1 L 60.1 125.5 L 60.6 124.8 L 61.0 123.8 L 61.3 122.5 L 62.4 118.2 L 62.9 113.8 L 62.9 109.4 L 62.3 104.9 L 61.2 100.2 L 59.6 95.5 L 57.3 90.5 L 54.4 85.5 L 51.0 80.2 L 47.0 74.7 L 47.21999998092652 74.48000001907349 L 46.2 73.8 L 48.8 67.9 L 51.4 62.3 L 53.9 56.9 L 56.3 51.8 L 58.4 46.8 L 60.4 41.9 L 62.2 37.2 L 63.7 32.7 L 65.1 28.4 L 65.18571424484253 28.1 L 35.0 28.1 L 35.0 181.9 L 23.0 187.9 L 23.0 18.1 L 35.0 24.1 L 66.0 24.1 L 72.0 19.1 L 83.0 28.1 L 78.0 31.1 L 75.98904113769531 31.937899589538574 L 75.8 32.4 L 73.7 36.8 L 71.3 41.4 L 68.8 46.0 L 66.0 50.7 L 62.9 55.4 L 59.6 60.2 L 56.0 65.1 L 52.0 70.0 L 48.68843908309937 73.69662618637085 L 53.8 77.6 L 58.7 82.2 L 62.8 87.0 L 66.3 92.0 L 69.1 97.2 L 71.3 102.5 L 72.8 108.0 L 73.6 113.7 L 73.7 119.4 L 73.0 125.2 L 72.3 127.7 Z M 151.4 183.8 L 148.9 183.4 L 146.5 182.6 L 144.2 181.3 L 142.2 179.7 L 140.6 177.7 L 139.3 175.4 L 138.5 173.0 L 138.1 170.5 L 138.0 168.0 L 138.0 113.0 L 134.88834352493285 113.0 L 132.0 123.7 L 126.2 138.4 L 119.1 151.4 L 110.5 162.7 L 100.6 172.3 L 89.4 180.0 L 76.9 185.9 L 63.2 189.8 L 62.7 188.1 L 75.3 182.4 L 86.5 175.5 L 96.2 167.4 L 104.7 157.9 L 111.8 147.0 L 117.7 134.7 L 122.4 120.8 L 124.12207794189453 113.0 L 102.0 113.0 L 102.0 125.0 L 90.0 131.0 L 90.0 70.32333335876464 L 87.1 73.9 L 80.7 81.2 L 73.7 88.5 L 72.2 87.4 L 77.7 78.9 L 82.8 70.7 L 87.7 62.8 L 92.3 55.1 L 96.5 47.7 L 100.4 40.5 L 103.8 33.5 L 106.9 26.7 L 109.7 20.1 L 111.6690728187561 14.620840930938721 L 111.6 14.6 L 112.5 12.3 L 123.2 18.1 L 125.2 21.0 L 121.53595018386841 21.642815780639648 L 120.1 24.7 L 116.6 31.4 L 114.53529415130615 35.0 L 151.0 35.0 L 151.4 34.66666669845581 L 152.1 33.5 L 152.47764186859132 33.768631839752196 L 157.0 30.0 L 168.0 39.0 L 163.0 42.0 L 158.95728158950806 43.68446598052979 L 156.9 45.9 L 154.3 48.8 L 151.5 51.7 L 148.6 54.7 L 145.6 57.8 L 142.4 60.9 L 139.0 64.1 L 135.3 67.2 L 134.4030303001404 68.0 L 167.0 68.0 L 173.0 63.0 L 184.0 72.0 L 179.0 76.0 L 179.0 119.0 L 167.0 125.0 L 167.0 113.0 L 150.0 113.0 L 150.0 169.2 L 150.2 170.1 L 150.5 171.0 L 150.9 171.4 L 151.8 171.7 L 152.7 171.9 L 154.0 172.0 L 177.0 172.0 L 183.0 147.0 L 185.0 147.0 L 183.0 172.0 L 186.6 174.4 L 189.0 178.0 L 186.6 181.6 L 183.0 184.0 L 154.0 184.0 Z M 102.0 72.0 L 102.0 109.0 L 125.00519475936889 109.0 L 125.8 105.4 L 128.0 88.4 L 128.80217390060426 72.0 Z M 140.75384616851807 72.0 L 139.4 89.6 L 136.4 107.4 L 135.96809816360474 109.0 L 167.0 109.0 L 167.0 72.0 Z M 112.20144929885865 39.0 L 108.4 45.1 L 103.7 52.2 L 98.6 59.3 L 94.73065328598022 64.3653265953064 L 102.0 68.0 L 131.13333330154418 68.0 L 132.8 65.2 L 135.2 61.0 L 137.6 57.1 L 140.0 53.3 L 142.3 49.7 L 144.4 46.2 L 146.5 42.8 L 148.5 39.6 L 148.84838705062867 39.0 Z " />
</g>
</svg>
