<svg xmlns="http://www.w3.org/2000/svg" xmlns:xlink="http://www.w3.org/1999/xlink" version="1.1" baseProfile="full" viewBox="0 0 200 200" width="200" height="200">
<g fill="black">
<path d="M 70.0 177.0 L 90.0 177.0 L 91.2 176.9 L 92.1 176.7 L 93.0 176.4 L 93.4 176.0 L 93.7 175.1 L 93.9 174.2 L 94.0 173.0 L 94.0 105.0 L 39.0 105.0 L 39.0 101.0 L 94.0 101.0 L 94.0 80.0 L 20.0 80.0 L 20.0 76.0 L 94.0 76.0 L 94.0 56.0 L 39.0 56.0 L 39.0 52.0 L 94.0 52.0 L 94.0 35.0 L 24.0 35.0 L 24.0 31.0 L 94.0 31.0 L 94.0 12.0 L 106.0 14.0 L 109.0 16.0 L 106.0 17.8 L 106.0 31.0 L 154.0 31.0 L 164.0 21.0 L 176.0 31.0 L 176.0 35.0 L 106.0 35.0 L 106.0 52.0 L 144.0 52.0 L 150.0 47.0 L 161.0 56.0 L 156.0 60.0 L 156.0 76.0 L 165.8181818008423 76.0 L 174.0 67.0 L 184.0 76.0 L 184.0 80.0 L 156.0 80.0 L 156.0 109.0 L 144.0 115.0 L 144.0 105.0 L 106.0 105.0 L 106.0 115.72816905975341 L 108.4 118.5 L 115.6 126.2 L 123.0 133.5 L 130.5 140.2 L 134.127054977417 143.03654298782348 L 134.9 142.4 L 138.2 139.5 L 141.5 136.8 L 144.9 134.2 L 148.1 131.6 L 151.4 129.1 L 154.6 126.7 L 157.7 124.2 L 160.8 121.8 L 163.08280611038208 120.10630512237549 L 163.0 120.0 L 163.09245929718017 120.0991431236267 L 163.9 119.5 L 167.04274349212648 124.33499002456665 L 171.3 128.9 L 171.4 132.4 L 167.7895131111145 130.91712141036987 L 166.9 131.4 L 163.4 133.2 L 159.8 135.0 L 156.1 136.8 L 152.3 138.5 L 148.5 140.3 L 144.6 142.0 L 140.7 143.6 L 136.682315158844 145.03488750457763 L 138.3 146.3 L 146.3 151.9 L 154.6 156.9 L 163.2 161.4 L 172.1 165.4 L 181.3 168.8 L 188.2 171.4 L 176.6 181.1 L 167.0 176.8 L 157.7 171.8 L 148.8 166.3 L 140.4 160.2 L 132.4 153.5 L 124.8 146.3 L 117.7 138.4 L 111.1 130.0 L 106.0 122.35 L 106.0 173.0 L 105.8 175.5 L 105.4 178.0 L 104.6 180.4 L 103.3 182.7 L 101.7 184.7 L 99.7 186.3 L 97.4 187.6 L 95.0 188.4 L 92.5 188.8 L 90.0 189.0 L 90.0 183.0 L 70.0 180.0 Z M 22.1 162.9 L 28.7 161.1 L 35.4 159.1 L 42.2 157.1 L 49.1 155.0 L 55.9 152.9 L 69.9 148.5 L 77.0 146.3 L 84.2 144.2 L 91.6 142.1 L 92.3 143.8 L 85.7 147.7 L 79.0 151.3 L 72.3 154.6 L 65.6 157.8 L 58.9 160.8 L 52.3 163.8 L 45.6 166.6 L 39.0 169.3 L 32.3 171.9 L 29.59790105819702 172.92352228164674 L 28.6 176.6 L 25.7 174.4 L 20.2 163.5 Z M 57.0 132.7 L 55.6 130.5 L 53.9 128.2 L 52.0 125.9 L 49.9 123.5 L 47.6 121.0 L 45.1 118.4 L 42.4 115.7 L 39.3 113.2 L 40.3 111.7 L 43.9 113.4 L 47.5 114.9 L 50.9 116.5 L 54.0 118.3 L 57.0 120.0 L 59.8 121.9 L 62.4 123.8 L 64.8 125.8 L 67.1 127.9 L 69.2 130.1 L 70.1 134.5 L 67.7 138.4 L 63.2 139.3 L 59.3 136.9 L 58.3 134.8 Z M 106.0 80.0 L 106.0 101.0 L 144.0 101.0 L 144.0 80.0 Z M 106.0 56.0 L 106.0 76.0 L 144.0 76.0 L 144.0 56.0 Z " />
</g>
</svg>
