<svg xmlns="http://www.w3.org/2000/svg" xmlns:xlink="http://www.w3.org/1999/xlink" version="1.1" baseProfile="full" viewBox="0 0 200 200" width="200" height="200">
<g fill="black">
<path d="M 103.8 103.2 L 105.1 100.8 L 106.4 98.5 L 110.6 91.3 L 113.6 86.3 L 116.10097198486328 81.96498193740845 L 116.0 81.9 L 117.0 80.5 L 126.1 88.4 L 127.3 91.8 L 123.13611316680908 91.29746189117432 L 121.6 92.7 L 119.4 94.8 L 117.1 96.7 L 114.9 98.6 L 112.6 100.4 L 110.3 102.1 L 108.0 103.6 L 107.34285717010498 104.0 L 156.0 104.0 L 166.0 94.0 L 178.0 104.0 L 178.0 108.0 L 116.0 108.0 L 116.0 128.0 L 147.8181818008423 128.0 L 156.0 119.0 L 166.0 128.0 L 166.0 132.0 L 116.0 132.0 L 116.0 152.0 L 147.8181818008423 152.0 L 156.0 143.0 L 166.0 152.0 L 166.0 156.0 L 116.0 156.0 L 116.0 176.0 L 166.0 176.0 L 176.0 166.0 L 188.0 176.0 L 188.0 180.0 L 60.0 180.0 L 60.0 183.0 L 48.0 189.0 L 48.0 113.95714282989502 L 44.1 117.0 L 34.6 123.2 L 24.7 128.4 L 14.3 132.8 L 13.6 131.1 L 22.8 125.2 L 31.6 118.7 L 40.1 111.8 L 48.0 104.39375 L 48.0 104.0 L 48.385185146331786 104.0 L 55.8 96.2 L 63.0 87.5 L 69.9 78.2 L 76.4 68.2 L 82.4 57.5 L 88.1 46.2 L 88.14014873504638 46.21970262527466 L 88.7 45.1 L 98.9 51.5 L 100.7 54.7 L 96.9340425491333 54.95531911849976 L 92.3 63.1 L 85.4 74.0 L 78.0 84.1 L 70.2 93.5 L 61.9 102.1 L 59.7807692527771 104.0 L 103.22857141494751 104.0 Z M 60.0 156.0 L 60.0 176.0 L 104.0 176.0 L 104.0 156.0 Z M 60.0 132.0 L 60.0 152.0 L 104.0 152.0 L 104.0 132.0 Z M 60.0 108.0 L 60.0 128.0 L 104.0 128.0 L 104.0 108.0 Z M 48.1382435798645 78.53928232192993 L 47.0 79.0 L 42.7 77.3 L 41.2 75.2 L 39.8 73.0 L 38.5 70.8 L 37.3 68.4 L 36.1 65.9 L 35.0 63.4 L 33.9 60.7 L 33.0 58.0 L 32.2 55.1 L 31.1 52.4 L 32.7 51.5 L 34.3 53.9 L 36.4 56.0 L 38.3 58.0 L 40.3 59.9 L 42.1 61.6 L 44.0 63.3 L 47.6 66.3 L 48.53836069107056 66.97770490646363 L 49.0 66.6 L 50.1 65.6 L 51.3 64.5 L 52.6 63.4 L 53.8 62.2 L 55.2 61.0 L 56.0 59.4 L 57.7 60.2 L 57.0 61.8 L 56.9 63.7 L 56.8 65.4 L 56.6 67.2 L 56.3 68.8 L 56.1 70.4 L 55.8 72.0 L 55.5 73.5 L 55.2 74.9 L 54.9 76.4 L 51.1 79.0 Z M 137.3 49.6 L 141.2 51.3 L 144.7 53.2 L 148.1 55.2 L 151.1 57.4 L 153.9 59.6 L 156.4 62.0 L 158.7 64.5 L 160.7 67.1 L 162.4 69.9 L 162.3 74.5 L 159.1 77.7 L 156.0 77.63260869979858 L 156.0 78.0 L 154.82093019485472 77.6069766998291 L 154.5 77.6 L 154.3333333015442 77.4333333015442 L 151.5 76.3 L 149.8 75.7 L 148.1 75.0 L 144.3 73.4 L 140.1 71.4 L 137.8 70.8 L 138.1 69.1 L 140.5 69.3 L 142.8 68.9 L 144.9 68.6 L 147.0 68.2 L 148.84429531097413 67.89261741638184 L 148.8 67.8 L 147.4 65.4 L 145.7 62.9 L 143.6 60.3 L 141.3 57.6 L 138.6 54.9 L 135.7 51.9 L 132.3 49.2 L 133.3 47.7 Z M 15.0 37.3 L 94.0 37.3 L 94.0 12.9 L 106.0 14.9 L 109.0 16.9 L 106.0 18.7 L 106.0 37.3 L 163.0 37.3 L 173.0 27.3 L 185.0 37.3 L 185.0 41.3 L 15.0 41.3 Z " />
</g>
</svg>
