<svg xmlns="http://www.w3.org/2000/svg" xmlns:xlink="http://www.w3.org/1999/xlink" version="1.1" baseProfile="full" viewBox="0 0 200 200" width="200" height="200">
<g fill="black">
<path d="M 96.2 175.5 L 114.2 175.5 L 115.4 175.4 L 116.9 175.1 L 117.3 174.9 L 117.5 174.7 L 117.6 174.5 L 117.8 174.2 L 118.0 173.6 L 118.1 172.7 L 118.2 171.5 L 118.2 96.2 L 130.2 98.2 L 133.2 100.2 L 130.2 102.0 L 130.2 171.5 L 130.1 174.0 L 129.6 176.5 L 128.8 178.9 L 127.6 181.2 L 126.0 183.2 L 123.9 184.9 L 121.7 186.1 L 119.3 186.9 L 116.8 187.3 L 114.2 187.5 L 114.2 181.5 L 96.2 178.5 Z M 75.4 169.8 L 73.8 165.6 L 75.5 161.3 L 78.2 158.9 L 80.8 156.2 L 83.3 153.2 L 85.6 149.8 L 87.9 146.1 L 90.1 142.2 L 92.1 137.8 L 94.1 133.2 L 96.1 128.2 L 98.0 123.0 L 99.8 123.3 L 99.6 129.0 L 99.1 134.5 L 98.2 139.8 L 97.0 144.8 L 95.5 149.6 L 93.7 154.1 L 91.7 158.4 L 89.4 162.5 L 86.8 166.3 L 83.9 169.9 L 79.7 171.5 Z M 173.2 156.5 L 171.9 152.2 L 170.6 148.0 L 169.0 144.0 L 167.2 140.0 L 165.3 136.0 L 161.1 128.2 L 158.7 124.3 L 160.0 123.1 L 163.7 125.9 L 167.3 129.0 L 170.5 132.5 L 173.5 136.1 L 176.3 140.1 L 178.8 144.2 L 181.1 148.5 L 183.2 153.0 L 185.1 157.7 L 186.7 162.5 L 186.0 167.0 L 182.3 169.8 L 177.8 169.0 L 175.1 165.3 L 174.2 160.9 Z M 148.8 155.8 L 148.2 151.6 L 147.4 147.5 L 146.5 143.5 L 145.4 139.6 L 144.0 135.7 L 142.6 131.9 L 141.0 128.1 L 139.2 124.3 L 140.6 123.2 L 143.8 126.2 L 146.8 129.4 L 149.5 132.8 L 151.9 136.6 L 154.1 140.5 L 156.0 144.7 L 157.7 149.1 L 159.2 153.6 L 160.4 158.3 L 161.4 163.2 L 160.1 167.6 L 156.1 169.8 L 151.7 168.5 L 149.5 164.5 L 149.2 160.1 Z M 158.4 109.9 L 150.7 102.5 L 144.2 94.1 L 138.8 84.7 L 134.6 74.4 L 131.6 63.1 L 129.86179227828978 52.030361080169676 L 127.6 61.9 L 123.0 75.0 L 117.2 86.6 L 110.2 96.8 L 101.9 105.4 L 92.5 112.4 L 82.0 117.7 L 74.18719501495362 120.05731182098388 L 74.2 120.8 L 73.6 126.7 L 72.79864778518677 127.21911497116089 L 72.3 129.0 L 71.4 131.3 L 70.1 133.5 L 68.6 135.5 L 66.7 137.2 L 64.7 138.6 L 62.4 139.7 L 60.0 140.4 L 57.5 140.8 L 55.0 141.0 L 54.94987468719482 134.98496236801148 L 45.0 132.0 L 45.0 129.0 L 54.9 129.0 L 56.2 128.9 L 57.3 128.7 L 58.1 128.5 L 58.8 128.2 L 59.3 127.8 L 59.7 127.4 L 59.92680416107178 127.12783508300781 L 60.7 123.7 L 61.8 119.5 L 62.3 115.2 L 62.4 110.9 L 61.9 106.5 L 60.8 101.9 L 59.2 97.2 L 57.0 92.3 L 54.2 87.2 L 50.9 81.9 L 47.0 76.3 L 47.2 76.1 L 46.2 75.5 L 48.8 69.6 L 51.4 64.0 L 53.9 58.6 L 56.3 53.5 L 58.4 48.5 L 60.4 43.7 L 62.2 39.0 L 63.8 34.5 L 65.1 30.2 L 65.15853662490845 30.0 L 35.0 30.0 L 35.0 183.0 L 23.0 189.0 L 23.0 20.0 L 35.0 26.0 L 66.0 26.0 L 72.0 21.0 L 83.0 30.0 L 78.0 33.0 L 75.93972606658936 33.85844745635986 L 75.8 34.2 L 73.7 38.6 L 71.3 43.2 L 68.8 47.7 L 66.0 52.4 L 62.9 57.1 L 59.6 61.9 L 56.0 66.8 L 52.0 71.6 L 48.6978217124939 75.28615245819091 L 54.0 79.1 L 58.9 83.6 L 63.1 88.3 L 66.6 93.3 L 69.5 98.5 L 71.8 103.8 L 73.3 109.4 L 74.1 115.0 L 74.14032869338989 117.33906326293945 L 80.3 114.2 L 89.4 108.0 L 97.3 100.7 L 104.1 92.2 L 109.8 82.6 L 114.4 71.6 L 117.9 59.4 L 120.3 45.8 L 121.7 30.8 L 122.0 14.5 L 122.0 12.1 L 134.0 14.5 L 137.0 16.5 L 133.77108430862427 18.43734941482544 L 133.0 31.7 L 132.73164930343628 33.71901931762695 L 133.2 37.7 L 135.5 50.1 L 138.6 61.3 L 140.2880386352539 65.78662910461426 L 141.2 64.9 L 144.6 61.4 L 148.0 58.1 L 157.7 48.4 L 163.7 42.0 L 166.5 38.8 L 168.56439170837402 36.353313541412355 L 168.5 36.3 L 169.5 35.3 L 177.8 44.0 L 178.5 47.5 L 174.72420139312743 46.62347536087036 L 174.4 46.9 L 167.4 52.5 L 163.7 55.3 L 159.8 58.0 L 155.9 60.6 L 151.8 63.1 L 147.6 65.5 L 143.2 67.8 L 141.3673216819763 68.65524988174438 L 142.4 71.4 L 147.0 80.3 L 152.4 88.1 L 158.6 94.8 L 165.6 100.6 L 173.4 105.3 L 182.1 109.1 L 188.6 111.8 L 177.2 121.3 L 167.2 116.2 Z M 77.8 77.1 L 77.2 72.5 L 79.9 68.9 L 82.4 67.6 L 84.7 65.9 L 86.8 63.8 L 88.8 61.3 L 90.7 58.3 L 92.3 54.8 L 93.7 50.8 L 94.9 46.2 L 95.9 41.2 L 96.5 35.6 L 98.3 35.5 L 99.1 41.2 L 99.6 46.6 L 99.6 51.8 L 99.2 56.6 L 98.2 61.2 L 96.8 65.4 L 94.9 69.4 L 92.4 73.1 L 89.5 76.4 L 86.0 79.2 L 81.5 79.8 Z " />
</g>
</svg>
