<svg xmlns="http://www.w3.org/2000/svg" xmlns:xlink="http://www.w3.org/1999/xlink" version="1.1" baseProfile="full" viewBox="0 0 200 200" width="200" height="200">
<g fill="black">
<path d="M 159.4 182.4 L 157.3 183.5 L 155.2 184.5 L 153.1 185.3 L 150.9 186.0 L 148.6 186.5 L 146.3 186.9 L 144.0 187.1 L 141.7 187.2 L 141.7 181.2 L 121.7 178.2 L 121.7 175.2 L 141.7 175.2 L 143.3 175.1 L 144.8 175.0 L 147.8 174.4 L 149.2 174.0 L 150.5 173.4 L 151.9 172.8 L 153.2 172.1 L 154.5 171.3 L 155.5111110687256 170.5222222328186 L 155.9 169.9 L 156.7 168.4 L 157.6 166.2 L 158.7 163.5 L 159.7 160.4 L 160.8 156.9 L 161.7 153.0 L 162.6 148.8 L 162.8297297477722 147.1 L 132.96854600906372 147.1 L 129.6 155.7 L 116.2 156.7 L 130.0764705657959 123.0 L 96.77142858505249 123.0 L 93.8 132.1 L 89.6 141.1 L 84.4 149.4 L 78.1 156.9 L 70.9 163.7 L 62.7 169.7 L 53.7 174.9 L 43.7 179.3 L 32.8 182.8 L 21.0 185.5 L 20.5 183.8 L 31.5 179.3 L 41.5 174.4 L 50.4 169.2 L 58.3 163.5 L 65.2 157.4 L 71.1 150.8 L 76.0 143.8 L 80.0 136.3 L 83.1 128.2 L 84.4 123.0 L 32.9 123.0 L 32.9 119.0 L 131.4 119.0 L 137.4 114.0 L 148.4 123.0 L 143.4 126.0 L 140.81063833236695 127.07890071868897 L 134.53531160354615 143.1 L 163.3 143.1 L 169.3 138.1 L 180.3 147.1 L 175.3 150.1 L 174.47285718917846 150.44464282989503 L 174.4 150.9 L 173.4 155.6 L 172.4 160.0 L 171.2 164.0 L 170.0 167.6 L 168.7 170.8 L 167.5 173.5 L 166.3 175.8 L 165.1 177.8 L 163.2 179.8 L 161.3 181.2 Z M 76.1 17.8 L 77.4 21.2 L 73.60908145904541 20.9385573387146 L 71.1 24.1 L 66.0 30.3 L 60.6 36.3 L 54.9 42.1 L 49.779800510406496 47.04663343429566 L 54.9 47.9 L 57.9 49.9 L 54.9 51.7 L 54.9 108.9 L 42.9 114.9 L 42.9 53.3 L 36.5 58.6 L 29.9 63.7 L 22.9 68.5 L 15.6 72.9 L 14.5 71.5 L 26.4 59.6 L 32.1 53.7 L 37.6 47.8 L 43.0 41.9 L 48.1 35.9 L 52.9 29.8 L 57.6 23.6 L 62.0 17.3 L 65.64827585220337 11.82758617401123 L 65.6 11.8 L 66.7 10.3 Z M 88.5 111.9 L 88.5 43.824489784240725 L 88.4 43.9 L 83.2 47.3 L 77.8 50.5 L 72.1 53.3 L 66.1 55.8 L 65.2 54.2 L 70.1 50.1 L 74.7 46.0 L 79.3 42.0 L 83.6 38.0 L 87.6 33.9 L 88.5 32.9307692527771 L 88.5 30.3 L 90.16829271316529 31.134146308898927 L 91.5 29.7 L 95.1 25.5 L 98.5 21.1 L 101.6 16.7 L 104.5 12.1 L 104.54353561401368 12.130342960357666 L 105.0 11.4 L 114.4 19.0 L 115.7 22.3 L 111.95348014831544 22.041619300842285 L 110.7 23.6 L 106.7 28.0 L 102.5 32.3 L 98.95669288635254 35.52834644317627 L 100.5 36.3 L 130.60714282989503 36.3 L 132.0 34.8 L 134.1 31.8 L 136.3 29.1 L 138.3 26.4 L 140.3 23.9 L 142.1 21.5 L 143.9 19.2 L 145.5 17.0 L 147.0 15.0 L 147.76059970855712 13.829846572875976 L 147.6 13.7 L 148.6 12.7 L 157.0 21.3 L 157.7 24.9 L 153.49825868606567 23.867993354797363 L 152.8 24.4 L 150.5 26.1 L 148.0 27.7 L 145.5 29.5 L 142.8 31.3 L 140.0 33.1 L 136.9 35.0 L 134.58888893127443 36.3 L 160.2 36.3 L 170.2 26.3 L 182.2 36.3 L 182.2 40.3 L 141.6 40.3 L 141.6 57.0 L 161.8181818008423 57.0 L 170.0 48.0 L 180.0 57.0 L 180.0 61.0 L 141.6 61.0 L 141.6 78.3 L 161.8181818008423 78.3 L 170.0 69.3 L 180.0 78.3 L 180.0 82.3 L 141.6 82.3 L 141.6 101.9 L 168.4181818008423 101.9 L 176.6 92.9 L 186.6 101.9 L 186.6 105.9 L 100.5 105.9 Z M 100.5 82.3 L 100.5 101.9 L 129.6 101.9 L 129.6 82.3 Z M 100.5 61.0 L 100.5 78.3 L 129.6 78.3 L 129.6 61.0 Z M 100.5 40.3 L 100.5 57.0 L 129.6 57.0 L 129.6 40.3 Z " />
</g>
</svg>
