<svg xmlns="http://www.w3.org/2000/svg" xmlns:xlink="http://www.w3.org/1999/xlink" version="1.1" baseProfile="full" viewBox="0 0 200 200" width="200" height="200">
<g fill="black">
<path d="M 170.8 180.2 L 169.2 182.0 L 167.3 183.6 L 165.3 184.9 L 163.1 186.0 L 160.8 186.9 L 158.5 187.5 L 156.0 187.8 L 153.5 188.0 L 153.5 182.0 L 133.5 179.0 L 133.5 176.0 L 153.5 176.0 L 154.9 175.9 L 156.2 175.7 L 157.3 175.4 L 158.3 175.1 L 159.2 174.6 L 160.0 174.0 L 160.8 173.3 L 161.6 172.5 L 162.4 171.5 L 163.1 170.3 L 163.7 169.0 L 164.4 167.2 L 165.1 164.8 L 165.8 161.9 L 166.4 158.4 L 167.1 154.6 L 167.7 150.2 L 168.2 145.4 L 168.8 140.2 L 169.02456140518188 137.0 L 157.38171091079712 137.0 L 156.1 144.9 L 143.2 148.6 L 150.02694301605226 112.0 L 135.8026785850525 112.0 L 134.7 121.5 L 132.6 132.1 L 129.7 141.9 L 126.0 150.9 L 121.6 159.2 L 116.4 166.7 L 110.5 173.4 L 103.8 179.2 L 96.4 184.0 L 88.3 187.7 L 87.4 186.2 L 94.2 180.8 L 100.3 175.1 L 105.6 169.0 L 110.2 162.4 L 114.2 155.2 L 117.5 147.4 L 120.1 138.9 L 122.1 129.8 L 123.4 120.1 L 123.8009901046753 112.0 L 105.0 112.0 L 105.0 108.0 L 150.5 108.0 L 156.5 103.0 L 167.5 112.0 L 162.5 115.0 L 160.83872919082643 115.69219617843628 L 158.03067846298217 133.0 L 169.2 133.0 L 175.2 128.0 L 186.2 137.0 L 181.2 140.0 L 180.79590044021606 140.16837482452394 L 180.7 141.3 L 180.2 146.7 L 179.6 151.8 L 178.9 156.4 L 178.2 160.6 L 177.5 164.4 L 176.7 167.8 L 175.8 170.9 L 174.8 173.6 L 173.6 176.1 L 172.3 178.2 Z M 76.3 181.4 L 74.6 183.2 L 72.7 184.7 L 70.7 186.0 L 68.5 187.1 L 66.2 187.9 L 63.9 188.5 L 61.4 188.8 L 58.9 189.0 L 58.9 183.0 L 42.9 180.0 L 42.9 177.0 L 58.9 177.0 L 60.3 176.9 L 61.6 176.7 L 62.8 176.4 L 63.8 176.1 L 64.7 175.6 L 65.6 175.0 L 66.5 174.3 L 67.3 173.5 L 68.1 172.5 L 68.9 171.3 L 70.7 167.9 L 72.3 163.9 L 73.7 159.3 L 74.9 154.1 L 75.8 148.2 L 76.6 141.8 L 77.1 134.8 L 77.4 127.1 L 77.4 119.875 L 77.1 120.0 L 77.1 112.0 L 32.4 112.0 L 20.4 118.0 L 20.4 20.0 L 32.4 26.0 L 68.7 26.0 L 78.7 16.0 L 90.7 26.0 L 90.7 30.0 L 62.7 30.0 L 62.7 54.0 L 67.7 54.0 L 77.7 44.0 L 89.7 54.0 L 89.7 58.0 L 62.7 58.0 L 62.7 81.0 L 67.7 81.0 L 77.7 71.0 L 89.7 81.0 L 89.7 85.0 L 62.7 85.0 L 62.7 108.0 L 77.1 108.0 L 83.1 103.0 L 94.1 112.0 L 89.27133617401122 114.89719829559326 L 89.4 118.8 L 89.4 127.3 L 89.1 135.4 L 88.5 142.9 L 87.7 149.9 L 86.6 156.4 L 85.3 162.4 L 83.6 167.9 L 81.6 172.9 L 79.2 177.4 L 77.8 179.5 Z M 13.9 174.0 L 12.2 169.8 L 14.0 165.6 L 15.4 164.3 L 17.0 162.5 L 18.4 160.0 L 19.8 156.8 L 21.0 153.0 L 22.0 148.6 L 22.9 143.6 L 23.6 138.0 L 24.2 131.8 L 24.6 125.0 L 26.4 124.9 L 27.7 131.6 L 28.7 137.9 L 29.2 143.8 L 29.3 149.3 L 29.2 154.3 L 28.6 159.0 L 27.7 163.3 L 26.4 167.3 L 24.7 170.9 L 22.4 174.1 L 18.1 175.8 Z M 39.1 166.9 L 35.3 164.4 L 34.2 160.0 L 34.9 157.6 L 35.5 155.0 L 35.9 152.3 L 36.2 149.4 L 36.3 146.3 L 36.2 143.0 L 36.0 139.5 L 35.7 135.9 L 35.3 132.1 L 34.4 128.2 L 36.1 127.6 L 37.9 131.2 L 39.9 134.7 L 41.5 138.2 L 42.8 141.7 L 43.9 145.1 L 44.8 148.6 L 45.5 152.0 L 45.9 155.3 L 46.1 158.7 L 46.1 162.0 L 43.6 165.8 Z M 49.8 147.3 L 49.7 144.8 L 49.4 142.2 L 49.0 139.5 L 48.4 136.8 L 47.7 134.0 L 46.8 131.1 L 45.8 128.1 L 44.2 125.3 L 45.7 124.2 L 47.9 126.7 L 50.3 129.0 L 52.4 131.5 L 54.3 134.1 L 56.0 136.8 L 57.5 139.6 L 58.8 142.5 L 59.9 145.4 L 60.8 148.5 L 61.5 151.6 L 60.0 155.9 L 55.9 157.9 L 51.6 156.4 L 49.5 152.3 L 49.7 149.8 Z M 61.9 136.3 L 61.4 134.2 L 60.8 132.1 L 60.0 130.0 L 59.1 127.9 L 57.9 125.7 L 56.6 123.5 L 55.1 121.2 L 53.1 119.3 L 54.2 117.8 L 56.7 119.3 L 59.3 120.6 L 61.7 122.1 L 64.0 123.9 L 66.1 125.7 L 68.0 127.8 L 69.8 130.0 L 71.4 132.4 L 72.8 134.9 L 74.0 137.6 L 73.3 142.1 L 69.7 144.9 L 65.2 144.1 L 62.4 140.5 L 62.2 138.4 Z M 32.4 85.0 L 32.4 108.0 L 50.7 108.0 L 50.7 85.0 Z M 167.5 94.8 L 163.9 91.0 L 160.4 87.0 L 157.2 82.7 L 154.2 78.2 L 151.4 73.4 L 148.9 68.3 L 146.9 63.15714282989502 L 146.9 94.0 L 134.9 100.0 L 134.9 69.22941179275513 L 134.5 69.9 L 130.8 75.4 L 126.7 80.6 L 122.4 85.6 L 117.7 90.4 L 112.7 95.0 L 107.3 99.2 L 101.6 103.1 L 95.4 106.7 L 94.4 105.2 L 99.1 100.2 L 103.7 95.2 L 108.0 90.3 L 112.0 85.3 L 115.8 80.3 L 119.2 75.1 L 122.3 69.9 L 125.2 64.6 L 127.7 59.1 L 128.12580642700195 58.0 L 100.4 58.0 L 100.4 54.0 L 134.9 54.0 L 134.9 32.570967769622804 L 134.7 32.6 L 128.1 33.4 L 121.1 34.1 L 113.7 34.6 L 105.9 34.8 L 105.7 33.1 L 113.1 30.9 L 120.1 28.8 L 126.8 27.0 L 133.1 25.2 L 138.9 23.4 L 144.4 21.7 L 149.4 19.9 L 154.0 18.2 L 158.2 16.5 L 161.02978725433348 15.159574508666992 L 161.0 15.1 L 161.05438461303712 15.14792308807373 L 162.0 14.7 L 162.76982154846192 16.659545707702637 L 171.1 24.0 L 171.3 27.2 L 167.37095260620117 25.507487297058105 L 166.4 25.9 L 162.0 27.2 L 157.2 28.4 L 152.1 29.6 L 146.9 30.659259223937987 L 146.9 54.0 L 159.5 54.0 L 169.5 44.0 L 181.5 54.0 L 181.5 58.0 L 148.06136360168458 58.0 L 150.5 60.9 L 154.0 65.2 L 157.4 69.3 L 160.8 73.1 L 164.3 76.7 L 167.8 79.9 L 171.4 82.9 L 175.1 85.7 L 178.8 88.2 L 182.7 90.4 L 186.6 92.9 L 175.6 101.5 L 171.4 98.3 Z M 32.4 58.0 L 32.4 81.0 L 50.7 81.0 L 50.7 58.0 Z M 32.4 30.0 L 32.4 54.0 L 50.7 54.0 L 50.7 30.0 Z " />
</g>
</svg>
