<svg xmlns="http://www.w3.org/2000/svg" xmlns:xlink="http://www.w3.org/1999/xlink" version="1.1" baseProfile="full" viewBox="0 0 200 200" width="200" height="200">
<g fill="black">
<path d="M 146.5 175.0 L 162.5 175.0 L 163.7 174.9 L 164.6 174.7 L 165.2 174.5 L 165.6 174.4 L 165.7 174.2 L 165.9 174.0 L 166.1 173.7 L 166.3 173.1 L 166.4 172.2 L 166.5 171.0 L 166.5 75.0 L 139.2833333015442 75.0 L 139.1 79.4 L 137.6 92.8 L 136.23656845092773 100.1506742477417 L 138.2 101.3 L 142.0 103.9 L 145.5 106.9 L 148.8 110.2 L 151.7 113.7 L 154.3 117.5 L 156.6 121.5 L 158.7 125.8 L 160.4 130.2 L 161.8 134.9 L 160.8 139.3 L 157.0 141.9 L 152.5 140.9 L 150.0 137.1 L 149.4 133.1 L 148.6 129.2 L 147.6 125.4 L 146.3 121.6 L 144.7 118.0 L 142.9 114.4 L 140.8 110.9 L 138.5 107.3 L 136.0 103.8 L 135.63801107406616 103.37767953872681 L 135.3 105.2 L 132.2 116.6 L 128.2 127.0 L 123.5 136.3 L 117.9 144.5 L 111.5 151.6 L 104.3 157.3 L 101.9 158.6367088317871 L 101.9 182.0 L 89.9 188.0 L 89.9 65.0 L 101.9 71.0 L 127.7 71.0 L 127.7 34.0 L 86.5 34.0 L 86.5 30.0 L 164.7 30.0 L 174.7 20.0 L 186.7 30.0 L 186.7 34.0 L 139.7 34.0 L 139.7 65.0 L 139.45 71.0 L 166.5 71.0 L 172.5 66.0 L 183.5 75.0 L 178.5 79.0 L 178.5 171.0 L 178.4 173.5 L 177.9 176.0 L 177.1 178.4 L 175.9 180.7 L 174.2 182.7 L 172.2 184.3 L 170.0 185.6 L 167.5 186.4 L 165.1 186.8 L 162.5 187.0 L 162.5 181.0 L 146.5 178.0 Z M 71.7 181.2 L 70.1 183.0 L 68.2 184.6 L 66.2 185.9 L 64.1 187.0 L 61.8 187.9 L 59.4 188.5 L 57.0 188.8 L 54.5 189.0 L 54.5 183.0 L 38.5 180.0 L 38.5 177.0 L 54.5 177.0 L 55.9 176.9 L 57.1 176.7 L 58.2 176.4 L 59.2 176.1 L 60.1 175.6 L 60.9 175.0 L 61.7 174.3 L 62.5 173.5 L 63.3 172.5 L 64.0 171.3 L 65.6 167.9 L 67.1 163.9 L 68.4 159.3 L 69.5 154.1 L 70.4 148.2 L 71.0 141.8 L 71.5 134.8 L 71.7 127.1 L 71.7 119.91666669845581 L 71.5 120.0 L 71.5 112.0 L 31.3 112.0 L 19.3 118.0 L 19.3 20.0 L 31.3 26.0 L 62.5 26.0 L 72.5 16.0 L 84.5 26.0 L 84.5 30.0 L 59.2 30.0 L 59.2 54.0 L 61.6 54.0 L 71.6 44.0 L 83.6 54.0 L 83.6 58.0 L 59.2 58.0 L 59.2 81.0 L 61.6 81.0 L 71.6 71.0 L 83.6 81.0 L 83.6 85.0 L 59.2 85.0 L 59.2 108.0 L 71.5 108.0 L 77.5 103.0 L 88.5 112.0 L 83.61496744155883 114.93101949691773 L 83.7 118.8 L 83.7 127.3 L 83.5 135.3 L 83.0 142.8 L 82.3 149.8 L 81.3 156.2 L 80.0 162.2 L 78.5 167.6 L 76.7 172.6 L 74.5 177.1 L 73.2 179.2 Z M 13.7 174.1 L 11.9 169.9 L 13.4 165.7 L 14.8 164.4 L 16.2 162.6 L 17.6 160.1 L 18.9 156.9 L 20.0 153.0 L 21.0 148.6 L 21.8 143.6 L 22.5 138.0 L 23.2 131.8 L 23.6 125.0 L 25.4 124.9 L 26.6 131.6 L 27.6 137.9 L 28.1 143.8 L 28.3 149.2 L 28.2 154.3 L 27.8 158.9 L 27.0 163.2 L 25.9 167.1 L 24.3 170.7 L 22.2 173.9 L 18.0 175.7 Z M 37.0 166.9 L 33.2 164.5 L 32.0 160.1 L 32.7 157.6 L 33.2 155.0 L 33.7 152.3 L 33.9 149.3 L 34.1 146.2 L 34.1 142.9 L 33.9 139.5 L 33.7 135.9 L 33.4 132.1 L 32.6 128.2 L 34.3 127.6 L 36.0 131.2 L 37.9 134.8 L 39.4 138.3 L 40.7 141.7 L 41.7 145.2 L 42.6 148.6 L 43.2 152.0 L 43.7 155.3 L 43.9 158.6 L 43.9 161.9 L 41.5 165.8 Z M 46.4 147.3 L 46.3 144.7 L 46.1 142.1 L 45.8 139.4 L 45.3 136.7 L 44.7 133.9 L 43.9 131.1 L 43.0 128.1 L 41.7 125.3 L 43.1 124.3 L 45.2 126.7 L 47.5 129.1 L 49.5 131.6 L 51.3 134.2 L 52.9 136.9 L 54.3 139.7 L 55.6 142.6 L 56.6 145.5 L 57.5 148.5 L 58.1 151.6 L 56.5 155.9 L 52.4 157.9 L 48.1 156.4 L 46.1 152.3 L 46.3 149.8 Z M 101.9 75.0 L 101.9 154.4 L 107.6 147.9 L 112.5 140.8 L 116.8 132.8 L 120.3 123.9 L 123.2 114.1 L 125.4 103.3 L 126.9 91.5 L 127.7 78.7 L 127.7 75.0 Z M 57.6 136.2 L 57.2 134.1 L 56.0 129.9 L 55.1 127.8 L 54.1 125.6 L 53.0 123.4 L 51.7 121.2 L 49.9 119.3 L 51.0 117.9 L 53.3 119.4 L 55.7 120.7 L 58.0 122.3 L 60.1 124.0 L 62.1 125.9 L 64.0 127.9 L 65.6 130.1 L 67.1 132.5 L 68.5 135.0 L 69.6 137.7 L 68.8 142.2 L 65.1 144.9 L 60.6 144.1 L 57.9 140.4 L 57.8 138.3 Z M 31.3 85.0 L 31.3 108.0 L 47.2 108.0 L 47.2 85.0 Z M 31.3 58.0 L 31.3 81.0 L 47.2 81.0 L 47.2 58.0 Z M 31.3 30.0 L 31.3 54.0 L 47.2 54.0 L 47.2 30.0 Z " />
</g>
</svg>
