<svg xmlns="http://www.w3.org/2000/svg" xmlns:xlink="http://www.w3.org/1999/xlink" version="1.1" baseProfile="full" viewBox="0 0 200 200" width="200" height="200">
<g fill="black">
<path d="M 161.9 170.5 L 161.3 169.4 L 160.5 168.1 L 159.40405731201173 166.73007164001464 L 155.1 167.7 L 148.7 169.2 L 142.8 170.4 L 137.6 171.5 L 133.0 172.5 L 129.0 173.3 L 125.6 174.1 L 123.55695066452026 174.61076231002806 L 123.253125 175.2 L 176.0 175.2 L 182.0 150.2 L 184.0 150.2 L 182.0 175.2 L 185.6 177.6 L 188.0 181.2 L 185.6 184.7 L 182.0 187.2 L 116.0 187.2 L 113.4 187.0 L 110.9 186.6 L 108.5 185.8 L 106.2 184.5 L 104.2 182.9 L 102.6 180.9 L 101.3 178.6 L 100.5 176.2 L 100.1 173.7 L 100.0 171.2 L 100.0 143.2 L 82.05573768615723 143.2 L 87.0 146.1 L 88.9 149.2 L 84.90587902069092 149.68204908370973 L 83.2 152.6 L 78.6 158.5 L 73.0 163.9 L 66.7 168.8 L 59.6 173.3 L 51.7 177.2 L 43.0 180.7 L 33.5 183.7 L 23.3 186.2 L 12.2 188.0 L 11.7 186.3 L 22.2 182.5 L 31.8 178.7 L 40.5 174.7 L 48.2 170.5 L 55.1 166.1 L 61.1 161.5 L 66.1 156.7 L 70.3 151.7 L 73.6 146.5 L 75.15660381317139 143.2 L 49.0 143.2 L 49.0 155.2 L 37.0 161.2 L 37.0 94.38783779144288 L 33.1 95.6 L 24.9 97.3 L 15.8 98.4 L 15.5 96.7 L 23.9 93.7 L 31.4 90.6 L 37.8 87.4 L 43.2 84.0 L 47.6 80.4 L 50.9 76.7 L 53.3 73.0 L 54.9 69.1 L 55.28000001907348 67.2 L 15.7 67.2 L 15.7 63.2 L 55.7 63.2 L 55.7 50.1 L 25.5 50.1 L 25.5 46.1 L 55.7 46.1 L 55.7 35.4 L 17.6 35.4 L 17.6 31.4 L 55.7 31.4 L 55.7 12.3 L 67.7 14.3 L 70.7 16.3 L 67.7 18.1 L 67.7 31.4 L 87.61818180084228 31.4 L 95.8 22.4 L 105.8 31.4 L 105.8 35.4 L 67.7 35.4 L 67.7 46.1 L 80.81818180084228 46.1 L 89.0 37.1 L 99.0 46.1 L 99.0 50.1 L 67.7 50.1 L 67.7 60.8 L 67.39523811340332 63.2 L 91.61818180084228 63.2 L 99.8 54.2 L 109.8 63.2 L 109.8 67.2 L 66.86610174179077 67.2 L 64.9 73.0 L 61.8 78.3 L 57.8 83.0 L 52.9 87.0 L 47.1 90.5 L 40.5 93.3 L 37.725 94.1625 L 49.0 99.8 L 85.0 99.8 L 85.7 98.9 L 86.8 96.7 L 87.9 94.6 L 90.1 90.6 L 91.3 88.7 L 92.5 86.7 L 93.6 84.9 L 94.8 83.0 L 95.36200685501099 82.02926082611084 L 95.2 81.9 L 95.85217390060424 81.18260869979858 L 95.9 81.1 L 95.91460552215577 81.11393394470215 L 96.2 80.8 L 104.6 89.4 L 105.4 92.9 L 100.9159999847412 91.95600004196167 L 99.2 93.1 L 97.3 94.4 L 95.4 95.6 L 93.5 96.9 L 89.5 99.3 L 88.625 99.8 L 150.9 99.8 L 156.9 94.8 L 167.9 103.8 L 162.9 107.8 L 162.9 143.2 L 150.9 149.2 L 150.9 143.2 L 108.4 143.2 L 112.0 143.8 L 115.0 145.8 L 112.0 147.6 L 112.0 172.4 L 112.2 173.3 L 112.5 174.2 L 112.9 174.6 L 113.8 174.9 L 114.7 175.1 L 116.0 175.2 L 118.99658117294311 175.2 L 115.8 164.2 L 117.8 163.9 L 119.5 164.1 L 121.7 164.2 L 124.5 164.3 L 128.2285714149475 164.3 L 129.2 162.6 L 130.8 160.0 L 132.4 157.5 L 133.8 155.1 L 135.1 152.8 L 136.4 150.6 L 137.5 148.6 L 138.5 146.6 L 138.97139463424682 145.60483360290527 L 138.8 145.5 L 139.35662651062012 144.7915662765503 L 139.4 144.7 L 139.4181393623352 144.71327724456788 L 139.9 144.1 L 149.1 151.8 L 150.3 155.2 L 145.71925344467164 154.80510807037354 L 145.5 155.0 L 143.6 156.7 L 139.4 160.1 L 137.1 161.8 L 134.7 163.6 L 133.68888893127442 164.3 L 136.8 164.3 L 142.2 164.2 L 148.2 164.2 L 154.8 164.3 L 157.03098592758178 164.3309859275818 L 156.0 163.3 L 154.0 161.5 L 151.7 159.4 L 149.0 157.8 L 149.8 156.2 L 152.7 157.5 L 155.7 158.2 L 158.5 159.0 L 161.0 159.8 L 163.3 160.6 L 165.3 161.4 L 167.2 162.3 L 169.0 163.2 L 170.6 164.2 L 172.1 165.6 L 172.7 170.1 L 170.0 173.8 L 165.5 174.4 L 161.8 171.8 L 162.0 171.3 Z M 49.0 123.2 L 49.0 139.2 L 94.0 139.2 L 94.0 123.2 Z M 106.0 123.2 L 106.0 139.2 L 150.9 139.2 L 150.9 123.2 Z M 49.0 103.8 L 49.0 119.2 L 94.0 119.2 L 94.0 103.8 Z M 106.0 103.8 L 106.0 119.2 L 150.9 119.2 L 150.9 103.8 Z M 178.2 82.2 L 176.2 83.5 L 174.2 84.7 L 172.1 85.7 L 169.9 86.5 L 167.6 87.1 L 165.3 87.5 L 162.9 87.8 L 160.5 87.9 L 160.5 81.9 L 148.5 78.9 L 148.5 75.9 L 160.5 75.9 L 163.5 75.7 L 164.9 75.4 L 167.5 74.6 L 168.7 74.0 L 169.9 73.3 L 171.1 72.5 L 172.2 71.6 L 173.3 70.6 L 173.48571424484254 70.78571424484252 L 173.7 70.5 L 174.0 69.5 L 173.9 67.9 L 172.9 65.6 L 170.7 62.8 L 167.0 59.7 L 161.4 56.4 L 153.7 53.0 L 143.9 49.1 L 143.98547487258912 48.61564245223999 L 143.6 48.8 L 142.6 47.3 L 146.4 43.9 L 149.9 40.5 L 153.2 37.3 L 156.4 34.3 L 162.2 28.5 L 164.7 25.7 L 166.11538457870483 24.1 L 127.5 24.1 L 127.5 93.1 L 115.5 99.1 L 115.5 14.1 L 127.5 20.1 L 169.4 20.1 L 169.41090908050538 20.09090909957886 L 171.0 18.0 L 171.43433475494385 18.404721069335938 L 175.4 15.1 L 186.4 24.1 L 181.4 27.1 L 176.00458011627197 29.34809160232544 L 174.3 30.7 L 171.2 33.0 L 168.0 35.3 L 164.5 37.6 L 160.8 39.9 L 156.8 42.2 L 152.7 44.4 L 148.2 46.6 L 146.18193550109862 47.565161323547365 L 155.0 48.3 L 163.8 50.4 L 170.7 53.2 L 176.1 56.4 L 180.2 60.0 L 182.9 64.0 L 184.4 68.1 L 184.6 72.1 L 183.8 75.8 L 181.8 79.1 L 180.1 80.7 Z " />
</g>
</svg>
