<svg xmlns="http://www.w3.org/2000/svg" xmlns:xlink="http://www.w3.org/1999/xlink" version="1.1" baseProfile="full" viewBox="0 0 200 200" width="200" height="200">
<g fill="black">
<path d="M 110.4 105.5 L 160.5 105.5 L 166.5 100.5 L 177.5 109.5 L 172.5 113.5 L 172.5 177.4 L 160.5 183.4 L 160.5 171.4 L 110.4 171.4 L 110.4 183.4 L 98.4 189.4 L 98.4 99.5 Z M 18.3 166.9 L 24.9 165.6 L 31.6 164.3 L 38.6 162.9 L 45.8 161.5 L 53.2 160.0 L 60.8 158.6 L 68.7 157.1 L 76.8 155.6 L 85.1 154.3 L 93.7 153.1 L 94.2 154.8 L 86.1 158.0 L 78.1 160.8 L 70.3 163.4 L 62.7 165.9 L 55.3 168.3 L 48.1 170.5 L 41.0 172.6 L 34.2 174.7 L 27.6 176.7 L 25.12934513092041 177.38418140411378 L 23.8 181.0 L 21.1 178.5 L 16.4 167.4 Z M 110.4 139.5 L 110.4 167.4 L 160.5 167.4 L 160.5 139.5 Z M 36.0 144.0 L 24.0 150.0 L 24.0 70.05769233703613 L 19.4 75.1 L 13.8 80.5 L 12.4 79.4 L 16.4 72.8 L 20.2 66.2 L 24.0 59.8 L 27.6 53.3 L 31.0 46.8 L 34.2 40.3 L 37.1 33.7 L 39.9 27.1 L 42.4 20.5 L 44.7 13.8 L 44.74554920196533 13.816929817199707 L 45.3 12.4 L 56.0 18.0 L 58.1 20.9 L 54.35406608581543 21.61043577194214 L 52.9 24.8 L 49.7 31.6 L 46.1 38.2 L 45.63230772018433 39.0 L 65.4 39.0 L 65.95862064361572 38.53448276519775 L 66.2 38.0 L 66.43798627853394 38.13501148223877 L 71.4 34.0 L 82.4 43.0 L 77.4 46.0 L 74.09090909957885 47.37878789901733 L 72.5 49.5 L 68.3 54.7 L 66.2 57.2 L 64.0 59.7 L 61.9 62.0 L 59.6 64.2 L 57.62857141494751 66.0 L 72.9 66.0 L 78.9 61.0 L 89.9 70.0 L 84.9 74.0 L 84.9 136.0 L 72.9 142.0 L 72.9 132.0 L 36.0 132.0 Z M 110.4 109.5 L 110.4 135.5 L 160.5 135.5 L 160.5 109.5 Z M 36.0 100.0 L 36.0 128.0 L 48.5 128.0 L 48.5 100.0 Z M 60.5 100.0 L 60.5 128.0 L 72.9 128.0 L 72.9 100.0 Z M 36.0 70.0 L 36.0 96.0 L 48.5 96.0 L 48.5 70.0 Z M 60.5 70.0 L 60.5 96.0 L 72.9 96.0 L 72.9 70.0 Z M 179.0 54.5 L 181.0 54.5 L 179.0 75.5 L 182.3 77.7 L 184.5 81.0 L 182.3 84.3 L 179.0 86.5 L 113.0 86.5 L 110.4 86.4 L 108.0 86.0 L 105.6 85.2 L 103.4 84.1 L 101.4 82.5 L 99.7 80.6 L 98.5 78.4 L 97.6 76.0 L 97.1 73.5 L 97.0 71.0 L 97.0 18.0 L 109.0 20.0 L 112.0 22.0 L 109.0 23.8 L 109.0 49.53013696670532 L 115.0 46.9 L 122.0 44.0 L 128.6 41.4 L 134.8 38.8 L 140.6 36.3 L 146.0 33.9 L 150.9 31.6 L 159.7 27.2 L 162.51557483673096 25.525874423980714 L 162.5 25.5 L 162.52265148162843 25.521666622161867 L 163.4 25.0 L 164.65864944458008 27.564795112609865 L 171.7 34.3 L 171.9 37.5 L 168.21747159957886 35.99076700210571 L 164.4 37.5 L 159.7 39.2 L 154.7 40.9 L 149.2 42.6 L 143.4 44.3 L 137.2 46.0 L 130.6 47.6 L 123.5 49.2 L 116.1 50.6 L 109.0 51.67848100662231 L 109.0 72.2 L 109.1 73.1 L 109.2 73.7 L 109.4 74.1 L 109.5 74.4 L 109.7 74.6 L 110.1 74.9 L 110.7 75.1 L 111.7 75.3 L 113.0 75.5 L 173.5 75.5 Z M 43.293846130371094 43.0 L 42.3 44.7 L 38.3 51.1 L 34.0 57.3 L 29.85029935836792 62.92514972686767 L 36.0 66.0 L 54.4 66.0 L 55.0 64.8 L 56.1 61.8 L 57.2 59.0 L 58.4 56.1 L 59.7 53.2 L 60.9 50.2 L 63.5 44.2 L 64.00322580337524 43.0 Z " />
</g>
</svg>
