<svg xmlns="http://www.w3.org/2000/svg" xmlns:xlink="http://www.w3.org/1999/xlink" version="1.1" baseProfile="full" viewBox="0 0 200 200" width="200" height="200">
<g fill="black">
<path d="M 179.7 147.6 L 181.7 147.6 L 179.7 172.6 L 183.2 175.0 L 185.7 178.6 L 183.2 182.2 L 179.7 184.6 L 109.9 184.6 L 107.3 184.4 L 104.8 184.0 L 102.4 183.2 L 100.1 182.0 L 98.1 180.3 L 96.5 178.3 L 95.2 176.0 L 94.4 173.6 L 94.0 171.1 L 93.9 168.6 L 93.9 82.9 L 105.9 84.9 L 108.9 86.9 L 105.9 88.7 L 105.9 169.8 L 106.1 170.7 L 106.4 171.6 L 106.8 172.0 L 107.1 172.2 L 107.7 172.4 L 108.6 172.5 L 109.9 172.6 L 173.7 172.6 Z M 85.2 141.7 L 80.2 145.7 L 80.2 175.4 L 68.2 181.4 L 68.2 171.4 L 17.7 171.4 L 17.7 167.4 L 68.2 167.4 L 68.2 155.7 L 20.7 155.7 L 20.7 151.7 L 68.2 151.7 L 68.2 141.7 L 18.6 141.7 L 18.6 137.7 L 68.2 137.7 L 74.2 132.7 Z M 167.5 157.7 L 166.0 159.7 L 164.3 161.4 L 162.4 163.0 L 160.3 164.2 L 158.0 165.2 L 155.6 165.9 L 153.1 166.3 L 150.6 166.4 L 150.6 160.4 L 134.6 157.4 L 134.6 154.4 L 150.6 154.4 L 151.9 154.3 L 153.1 154.1 L 154.0 153.9 L 154.9 153.5 L 155.6 153.1 L 156.2 152.6 L 156.9 151.9 L 157.4 151.1 L 158.0 150.1 L 158.6 148.9 L 158.8 147.9 L 159.2 145.7 L 159.6 142.6 L 159.9 138.6 L 160.2 133.8 L 160.5 128.2 L 160.7 121.8 L 160.8 114.5 L 160.9 106.5 L 160.9 99.7 L 144.35660381317138 99.7 L 143.7 108.4 L 142.4 118.2 L 141.46216650009154 122.6423692703247 L 142.4 123.2 L 145.7 125.6 L 148.9 128.2 L 151.8 131.0 L 154.5 134.1 L 155.3 138.6 L 152.8 142.4 L 148.3 143.2 L 144.5 140.7 L 142.9 138.0 L 141.1 135.3 L 139.1 132.7 L 138.87702388763427 132.45844259262086 L 138.0 135.3 L 134.9 142.6 L 131.1 149.0 L 126.8 154.4 L 121.8 158.9 L 116.3 162.2 L 110.4 164.2 L 109.7 162.6 L 114.3 159.0 L 118.2 154.9 L 121.6 150.3 L 124.6 145.1 L 127.1 139.2 L 129.1 132.5 L 130.7 125.1 L 130.74691228866578 124.74602527618408 L 128.0 122.6 L 124.5 120.2 L 120.7 117.7 L 116.6 115.4 L 117.2 113.7 L 121.9 114.8 L 126.5 115.9 L 130.8 117.4 L 131.67253484725953 117.76178274154663 L 131.8 116.8 L 132.4 107.6 L 132.4 99.7 L 114.8 99.7 L 114.8 95.7 L 160.9 95.7 L 166.9 90.7 L 177.9 99.7 L 172.9 102.7 L 172.9 106.6 L 172.8 114.7 L 172.7 122.0 L 172.5 128.6 L 172.2 134.4 L 171.9 139.5 L 171.5 143.8 L 171.1 147.5 L 170.5 150.5 L 169.8 153.2 L 168.8 155.5 Z M 85.2 96.5 L 80.2 100.5 L 80.2 125.6 L 68.2 131.6 L 68.2 125.6 L 17.7 125.6 L 17.7 121.6 L 68.2 121.6 L 68.2 110.2 L 20.7 110.2 L 20.7 106.2 L 68.2 106.2 L 68.2 96.5 L 18.6 96.5 L 18.6 92.5 L 68.2 92.5 L 74.2 87.5 Z M 28.1 85.4 L 28.1 57.73389825820923 L 26.6 58.7 L 20.4 62.1 L 13.9 65.0 L 12.9 63.5 L 18.3 58.9 L 23.4 54.4 L 28.1 49.987755107879636 L 28.1 46.8 L 30.260563373565674 47.88028173446655 L 33.1 45.1 L 37.6 40.3 L 41.9 35.3 L 45.9 30.2 L 49.7 24.9 L 53.3 19.4 L 56.18672742843628 14.645390033721924 L 56.1 14.6 L 57.2 13.0 L 66.8 20.2 L 68.3 23.5 L 64.52007083892822 23.369657611846925 L 62.7 25.9 L 58.2 31.4 L 53.77358493804932 36.5 L 160.6 36.5 L 170.6 26.5 L 182.6 36.5 L 182.6 40.5 L 49.8 40.5 L 48.7 41.6 L 43.5 46.4 L 38.1 50.8 L 37.28840579986572 51.394202899932864 L 40.1 52.8 L 157.8 52.8 L 163.8 47.8 L 174.8 56.8 L 169.8 60.8 L 169.8 81.4 L 157.8 87.4 L 157.8 79.4 L 40.1 79.4 Z M 40.1 56.8 L 40.1 75.4 L 71.3 75.4 L 71.3 56.8 Z M 83.3 56.8 L 83.3 75.4 L 114.6 75.4 L 114.6 56.8 Z M 126.6 56.8 L 126.6 75.4 L 157.8 75.4 L 157.8 56.8 Z " />
</g>
</svg>
