<svg xmlns="http://www.w3.org/2000/svg" xmlns:xlink="http://www.w3.org/1999/xlink" version="1.1" baseProfile="full" viewBox="0 0 200 200" width="200" height="200">
<g fill="black">
<path d="M 148.4 118.6 L 151.4 120.6 L 148.4 122.4 L 148.4 131.3 L 160.8 131.3 L 170.8 121.3 L 182.8 131.3 L 182.8 135.3 L 148.4 135.3 L 148.4 157.7 L 165.7 157.7 L 175.7 147.7 L 187.7 157.7 L 187.7 161.7 L 148.4 161.7 L 148.4 182.2 L 136.4 188.2 L 136.4 161.7 L 106.6979591369629 161.7 L 106.3 163.2 L 93.2 165.9 L 100.4 138.6 L 111.5 143.6 L 113.9 146.3 L 110.55349025726318 147.16761360168456 L 107.75918369293213 157.7 L 136.4 157.7 L 136.4 135.3 L 103.0 135.3 L 103.0 131.3 L 136.4 131.3 L 136.4 116.6 Z M 15.5 182.6 L 12.7 178.9 L 13.2 174.4 L 14.6 172.6 L 15.9 170.5 L 17.2 168.1 L 18.4 165.3 L 19.5 162.3 L 20.5 159.0 L 21.5 155.4 L 22.5 151.5 L 23.4 147.4 L 24.1 143.0 L 25.9 143.0 L 26.3 147.5 L 26.9 151.8 L 27.2 156.0 L 27.3 160.0 L 27.2 163.8 L 26.9 167.4 L 26.4 170.9 L 25.7 174.2 L 24.8 177.3 L 23.6 180.3 L 20.0 183.1 Z M 55.2 162.9 L 54.9 160.4 L 54.4 157.8 L 53.8 155.2 L 53.1 152.7 L 52.3 150.1 L 51.4 147.5 L 50.4 144.8 L 48.9 142.3 L 50.3 141.1 L 52.4 143.2 L 54.7 145.2 L 56.9 147.3 L 58.8 149.6 L 60.6 152.1 L 62.3 154.6 L 63.8 157.3 L 65.1 160.1 L 66.3 163.0 L 67.3 166.0 L 66.3 170.4 L 62.5 172.9 L 58.0 171.9 L 55.5 168.0 L 55.4 165.5 Z M 41.8 176.9 L 37.7 174.9 L 36.2 170.6 L 36.6 168.5 L 37.0 166.3 L 37.2 164.0 L 37.3 161.5 L 37.2 158.8 L 37.0 156.0 L 36.6 153.0 L 36.2 149.9 L 35.6 146.5 L 34.6 143.2 L 36.2 142.5 L 38.0 145.5 L 40.0 148.4 L 41.7 151.3 L 43.2 154.2 L 44.5 157.0 L 45.6 159.9 L 46.6 162.8 L 47.3 165.6 L 47.8 168.5 L 48.1 171.4 L 46.1 175.4 Z M 75.0 160.0 L 73.9 157.5 L 72.6 155.0 L 71.4 152.6 L 70.0 150.2 L 68.7 147.9 L 65.9 143.3 L 64.2 141.3 L 65.3 139.9 L 67.6 141.4 L 70.1 142.7 L 72.5 144.2 L 74.9 145.9 L 77.2 147.8 L 81.6 152.0 L 83.7 154.4 L 85.7 156.8 L 87.7 159.4 L 88.2 163.9 L 85.4 167.6 L 80.9 168.1 L 77.2 165.3 L 76.2 162.6 Z M 90.8 67.9 L 85.8 71.9 L 85.8 132.3 L 73.8 138.3 L 73.8 132.3 L 33.7 132.3 L 21.7 138.3 L 21.7 71.23181819915771 L 17.4 76.9 L 12.7 82.4 L 11.2 81.5 L 14.2 74.9 L 17.1 68.5 L 19.9 62.1 L 22.6 55.7 L 25.0 49.3 L 27.2 42.8 L 29.2 36.3 L 31.0 29.8 L 32.6 23.2 L 33.702947330474856 17.600421047210695 L 33.7 17.6 L 33.7375 17.425 L 33.9 16.6 L 33.91361255645752 16.603141403198244 L 34.3 14.8 L 45.6 19.3 L 48.1 21.9 L 44.45180721282959 23.072633361816408 L 43.5 26.2 L 41.3 33.0 L 40.90606060028076 34.0 L 61.0 34.0 L 67.0 29.0 L 78.0 38.0 L 73.0 41.0 L 70.29885931015015 42.125475311279295 L 69.2 44.0 L 67.4 47.0 L 65.6 49.8 L 63.7 52.7 L 61.7 55.5 L 59.5 58.3 L 57.3 61.0 L 54.9 63.7 L 54.73703699111938 63.9 L 73.8 63.9 L 79.8 58.9 L 89.2 66.59090909957885 L 89.2 62.7 L 117.99080457687378 62.7 L 122.58275861740113 39.2 L 97.1 39.2 L 97.1 35.2 L 123.36436777114868 35.2 L 127.8 12.5 L 139.2 16.8 L 141.8 19.4 L 138.50686912536622 20.332018184661866 L 135.58914403915406 35.2 L 155.1 35.2 L 161.1 30.2 L 172.1 39.2 L 167.1 43.2 L 167.1 62.7 L 169.51818180084229 62.7 L 177.7 53.7 L 187.7 62.7 L 187.7 66.7 L 89.33333330154419 66.7 Z M 33.7 99.6 L 33.7 128.3 L 47.7 128.3 L 47.7 99.6 Z M 59.7 99.6 L 59.7 128.3 L 73.8 128.3 L 73.8 99.6 Z M 117.9 80.3 L 159.0 80.3 L 165.0 75.3 L 176.0 84.3 L 171.0 88.3 L 171.0 113.8 L 159.0 119.8 L 159.0 109.8 L 117.9 109.8 L 117.9 116.8 L 105.9 122.8 L 105.9 74.3 Z M 117.9 84.3 L 117.9 105.8 L 159.0 105.8 L 159.0 84.3 Z M 33.7 67.9 L 33.7 95.6 L 47.7 95.6 L 47.7 67.9 Z M 59.7 67.9 L 59.7 95.6 L 73.8 95.6 L 73.8 67.9 Z M 39.330303001403806 38.0 L 38.7 39.6 L 35.9 46.2 L 32.8 52.6 L 29.4 58.9 L 28.117500019073486 61.10874996185303 L 33.7 63.9 L 51.830303001403806 63.9 L 52.5 62.2 L 53.5 58.9 L 54.6 55.6 L 55.7 52.4 L 56.7 49.2 L 57.8 46.1 L 58.7 42.9 L 59.7 39.9 L 60.19032258987427 38.0 Z M 134.8041753768921 39.2 L 130.1924843788147 62.7 L 155.1 62.7 L 155.1 39.2 Z " />
</g>
</svg>
