<svg xmlns="http://www.w3.org/2000/svg" xmlns:xlink="http://www.w3.org/1999/xlink" version="1.1" baseProfile="full" viewBox="0 0 200 200" width="200" height="200">
<g fill="black">
<path d="M 80.4 182.1 L 78.6 183.7 L 76.6 185.1 L 74.5 186.3 L 72.4 187.3 L 70.1 188.0 L 67.7 188.5 L 65.3 188.8 L 62.9 189.0 L 62.9 183.0 L 44.9 180.0 L 44.9 177.0 L 62.9 177.0 L 64.3 176.9 L 65.7 176.7 L 68.1 176.1 L 69.1 175.6 L 70.2 175.0 L 71.2 174.3 L 72.1 173.5 L 73.0 172.5 L 74.0 171.3 L 75.3 169.2 L 76.7 166.3 L 77.9 162.9 L 79.1 158.8 L 80.0 154.1 L 80.9 148.8 L 81.5 143.0 L 82.0 136.5 L 82.2 129.5 L 82.27333335876465 124.0 L 31.6 124.0 L 19.6 130.0 L 19.6 30.0 L 31.6 36.0 L 43.675 36.0 L 44.3 35.0 L 45.4 32.3 L 46.5 29.7 L 47.6 27.2 L 48.6 24.6 L 50.6 19.6 L 52.4 14.6 L 52.90577430725098 13.082677173614503 L 52.7 13.0 L 53.7 11.1 L 63.9 17.5 L 65.7 20.7 L 61.38894157409668 20.997314357757567 L 60.5 22.2 L 58.7 24.4 L 56.8 26.6 L 54.9 28.7 L 52.9 30.8 L 50.8 32.8 L 48.6 34.7 L 46.93888893127441 36.0 L 73.4 36.0 L 79.4 31.0 L 90.4 40.0 L 85.4 44.0 L 85.4 86.0 L 73.4 92.0 L 73.4 84.0 L 31.6 84.0 L 31.6 100.0 L 78.31818180084228 100.0 L 86.5 91.0 L 96.5 100.0 L 96.5 104.0 L 31.6 104.0 L 31.6 120.0 L 82.3 120.0 L 88.3 115.0 L 99.3 124.0 L 94.3 127.0 L 94.2355531692505 127.02685289382934 L 94.2 129.8 L 93.9 137.2 L 93.5 144.1 L 92.8 150.4 L 91.9 156.3 L 90.7 161.6 L 89.4 166.5 L 87.8 170.9 L 85.9 174.9 L 83.6 178.5 L 82.1 180.4 Z M 151.4 143.0 L 150.2 140.3 L 148.7 137.4 L 146.9 134.4 L 144.9 131.4 L 142.6 128.3 L 140.1 125.0 L 139.9 124.75714282989502 L 139.9 171.0 L 127.9 177.0 L 127.9 131.96829271316528 L 123.9 138.7 L 119.4 145.4 L 114.6 152.0 L 109.4 158.3 L 103.7 164.4 L 97.7 170.2 L 91.1 175.6 L 89.8 174.3 L 94.8 167.6 L 99.6 160.9 L 104.1 154.3 L 108.3 147.7 L 112.2 141.0 L 115.8 134.2 L 119.0 127.3 L 121.9 120.3 L 124.4 113.3 L 125.39622640609741 110.0 L 99.3 110.0 L 99.3 106.0 L 127.9 106.0 L 127.9 58.0 L 139.9 60.0 L 142.9 62.0 L 139.9 63.8 L 139.9 106.0 L 146.6 106.0 L 156.6 96.0 L 168.6 106.0 L 168.6 110.0 L 139.9 110.0 L 139.9 119.66315793991089 L 143.1 121.6 L 146.7 124.1 L 150.0 126.7 L 153.0 129.4 L 155.8 132.1 L 158.3 135.0 L 160.5 137.9 L 162.5 140.9 L 164.2 144.0 L 164.1 148.6 L 160.8 151.8 L 156.2 151.6 L 153.0 148.3 L 152.3 145.7 Z M 13.0 177.2 L 11.0 173.1 L 12.5 168.7 L 13.9 167.5 L 15.3 165.8 L 16.6 163.7 L 17.8 161.1 L 18.9 158.0 L 19.9 154.4 L 20.7 150.5 L 21.5 146.1 L 22.1 141.2 L 22.3 136.0 L 24.1 135.9 L 25.1 141.1 L 26.0 146.0 L 26.6 150.7 L 26.8 155.1 L 26.7 159.3 L 26.4 163.2 L 25.7 166.9 L 24.7 170.4 L 23.3 173.7 L 21.5 176.7 L 17.3 178.6 Z M 171.7 179.8 L 170.1 181.7 L 168.3 183.4 L 166.3 184.8 L 164.2 186.0 L 161.9 186.8 L 159.5 187.5 L 157.0 187.8 L 154.5 188.0 L 154.5 182.0 L 134.5 179.0 L 134.5 176.0 L 154.5 176.0 L 155.9 175.9 L 157.1 175.7 L 158.2 175.4 L 159.1 175.1 L 160.7 174.1 L 161.5 173.4 L 162.2 172.5 L 162.9 171.5 L 163.5 170.3 L 165.4 165.5 L 167.2 159.0 L 168.7 150.7 L 170.1 140.8 L 171.1 129.3 L 171.9 116.2 L 172.4 101.5 L 172.6 85.2 L 172.6 67.4 L 172.40342464447022 57.91523971557617 L 172.2 58.0 L 172.2 50.0 L 118.1084337234497 50.0 L 117.2 52.6 L 114.1 60.4 L 110.9 67.8 L 108.67112970352173 72.19405860900879 L 109.6 72.9 L 112.1 74.6 L 114.5 76.5 L 116.7 78.6 L 118.6 80.8 L 120.4 83.3 L 121.9 85.8 L 123.2 88.5 L 124.3 91.4 L 125.1 94.4 L 123.7 98.7 L 119.8 100.9 L 115.4 99.6 L 113.2 95.6 L 113.3 93.4 L 113.3 91.2 L 113.0 89.0 L 112.6 86.7 L 112.1 84.4 L 111.3 82.0 L 110.3 79.6 L 107.8 74.6 L 107.58360109329223 74.33804349899292 L 107.4 74.7 L 103.6 81.2 L 99.6 87.1 L 95.3 92.4 L 93.7 91.5 L 96.3 85.2 L 98.9 78.7 L 101.4 72.0 L 103.8 64.9 L 106.1 57.5 L 108.4 49.7 L 110.4 41.6 L 112.4 33.0 L 114.1 24.1 L 115.61687021255493 15.80182762145996 L 115.6 15.8 L 115.74769229888916 15.086153888702393 L 115.8 14.8 L 115.8066291809082 14.801292133331298 L 116.2 12.9 L 127.6 17.1 L 130.1 19.6 L 126.69496326446533 20.83819513320923 L 125.3 26.6 L 122.8 35.7 L 120.1 44.3 L 119.50602407455445 46.0 L 172.2 46.0 L 178.2 41.0 L 189.2 50.0 L 184.3053698539734 52.93677806854248 L 184.6 67.3 L 184.6 85.3 L 184.4 101.8 L 183.9 116.7 L 183.1 130.1 L 182.0 142.1 L 180.6 152.6 L 178.9 161.6 L 176.8 169.2 L 174.3 175.6 L 173.1 177.8 Z M 37.1 171.9 L 33.4 169.1 L 32.7 164.6 L 33.4 163.1 L 34.1 161.4 L 34.6 159.4 L 34.9 157.2 L 35.2 154.7 L 35.3 152.0 L 35.2 149.1 L 35.1 146.0 L 34.8 142.6 L 34.0 139.2 L 35.7 138.6 L 37.2 141.8 L 38.9 144.9 L 40.4 147.9 L 41.6 150.8 L 42.6 153.7 L 43.4 156.5 L 44.0 159.3 L 44.3 162.1 L 44.5 164.8 L 44.4 167.5 L 41.6 171.1 Z M 50.4 153.1 L 50.3 151.0 L 50.1 148.8 L 49.7 146.7 L 49.2 144.6 L 48.5 142.5 L 47.7 140.3 L 46.8 138.1 L 45.3 136.3 L 46.5 135.0 L 48.5 136.5 L 50.7 137.9 L 52.7 139.6 L 54.6 141.5 L 56.3 143.5 L 57.8 145.8 L 59.2 148.2 L 60.4 150.8 L 61.4 153.5 L 62.2 156.4 L 60.9 160.7 L 56.9 162.9 L 52.5 161.6 L 50.3 157.6 L 50.4 155.3 Z M 65.1 144.6 L 64.7 143.0 L 64.2 141.4 L 63.5 139.8 L 62.7 138.2 L 61.6 136.6 L 60.4 135.0 L 59.0 133.3 L 57.1 132.2 L 57.8 130.5 L 60.0 131.4 L 62.4 131.9 L 64.6 132.6 L 66.7 133.7 L 68.8 134.9 L 70.7 136.4 L 72.5 138.0 L 74.1 139.9 L 75.6 142.0 L 76.9 144.3 L 76.4 148.8 L 72.9 151.8 L 68.4 151.4 L 65.4 147.9 L 65.3 146.2 Z M 165.5 73.5 L 167.3 76.6 L 163.1880313873291 76.95448007583619 L 161.8 79.0 L 159.8 81.8 L 157.7 84.5 L 153.1 89.9 L 150.7 92.6 L 148.1 95.2 L 145.3 97.8 L 142.7 100.5 L 141.3 99.4 L 143.1 96.1 L 144.5 92.7 L 147.5 86.3 L 148.8 83.1 L 150.2 80.0 L 152.6 74.0 L 153.7 71.1 L 154.36720476150512 69.1651062965393 L 154.2 69.1 L 155.2 67.1 Z M 31.6 62.0 L 31.6 80.0 L 73.4 80.0 L 73.4 62.0 Z M 31.6 40.0 L 31.6 58.0 L 73.4 58.0 L 73.4 40.0 Z " />
</g>
</svg>
