<svg xmlns="http://www.w3.org/2000/svg" xmlns:xlink="http://www.w3.org/1999/xlink" version="1.1" baseProfile="full" viewBox="0 0 200 200" width="200" height="200">
<g fill="black">
<path d="M 67.9 103.4 L 67.6 101.8 L 67.3 100.3 L 66.9 98.8 L 66.4 97.2 L 65.96999998092652 96.125 L 65.7 96.8 L 63.6 100.9 L 61.3 104.6 L 58.7 107.8 L 55.8 110.4 L 52.8 112.6 L 51.6 111.3 L 53.1 108.3 L 54.5 105.1 L 54.66884422302246 104.62160806655884 L 52.2 106.8 L 47.7 106.4 L 44.6 103.0 L 44.6 101.4 L 44.4 98.4 L 43.68379888534546 93.02849159240722 L 43.0 94.7 L 41.1 98.8 L 38.9 102.7 L 36.5 106.3 L 33.8 109.5 L 31.0 112.5 L 29.5 111.4 L 30.9 107.8 L 32.1 104.0 L 33.2 100.2 L 34.3 96.3 L 35.2 92.2 L 36.0 88.0 L 36.7 83.6 L 37.2 79.0 L 37.6 74.3 L 37.83994007110596 70.30099849700927 L 37.8 70.3 L 38.1 67.2 L 49.8 70.6 L 52.6 72.8 L 49.13646783828735 74.43374156951904 L 48.9 75.8 L 47.7 80.9 L 46.3 85.7 L 45.36666669845581 88.56222219467163 L 46.0 88.9 L 47.4 89.8 L 48.8 90.8 L 51.4 93.2 L 53.8 96.0 L 56.0 99.2 L 55.812871265411374 101.35198020935059 L 56.9 98.0 L 57.9 94.1 L 58.8 89.8 L 59.5 85.3 L 60.1 80.3 L 60.5 75.1 L 60.74734764099121 70.40039453506469 L 60.7 70.4 L 61.0 67.3 L 72.7 70.5 L 75.5 72.7 L 72.04545450210571 74.42727270126343 L 71.7 76.5 L 70.5 82.1 L 69.1 87.4 L 67.72436027526855 91.6128966331482 L 69.4 92.5 L 71.0 93.5 L 72.6 94.6 L 74.1 95.8 L 76.9 98.6 L 78.2 100.2 L 79.1 101.37692308425903 L 79.1 69.0 L 91.1 71.0 L 94.1 73.0 L 91.1 74.8 L 91.1 178.0 L 79.1 184.0 L 79.1 172.0 L 28.9 172.0 L 28.9 184.0 L 16.9 190.0 L 16.9 69.0 L 28.9 71.0 L 31.9 73.0 L 28.9 74.8 L 28.9 115.0 L 79.1 115.0 L 79.1 106.709375 L 76.2 109.7 L 71.6 109.7 L 68.4 106.5 L 68.2 104.9 Z M 165.0 179.7 L 159.0 175.1 L 153.3 170.0 L 148.1 164.6 L 143.3 158.8 L 139.0 152.6 L 135.2 146.0 L 131.9 139.0 L 129.63648653030396 132.3 L 121.0 132.3 L 121.0 169.05869569778443 L 121.3 169.0 L 130.7 167.2 L 135.5 166.4 L 145.3 165.2 L 145.8 166.9 L 141.4 169.2 L 137.0 171.4 L 132.6 173.3 L 128.1 175.2 L 123.7 177.0 L 114.9 180.4 L 110.5 182.0 L 106.2 183.6 L 105.79672126770019 183.7466467857361 L 104.6 187.5 L 101.8 185.2 L 96.7 174.1 L 98.6 173.6 L 103.1 172.7 L 107.6 171.7 L 109.0 171.41999998092652 L 109.0 132.3 L 95.7 132.3 L 95.7 128.3 L 161.7 128.3 L 171.7 118.3 L 183.7 128.3 L 183.7 132.3 L 163.43999996185303 132.3 L 173.1 139.2 L 174.7 142.5 L 170.30476188659668 142.5 L 167.5 145.6 L 165.4 147.7 L 163.3 149.7 L 158.7 153.5 L 156.2 155.2 L 153.6 156.9 L 153.55063419342042 156.94078044891359 L 154.7 158.0 L 160.0 162.3 L 165.6 166.2 L 171.4 169.8 L 177.5 173.0 L 183.9 175.8 L 189.8 178.5 L 178.4 187.8 L 171.5 184.0 Z M 43.6 153.2 L 43.5 151.8 L 43.4 150.3 L 43.2 148.8 L 43.1 147.3 L 43.04117650985718 146.82941179275514 L 42.3 148.6 L 40.3 152.6 L 38.0 156.3 L 35.6 159.7 L 32.9 162.7 L 30.0 165.5 L 28.9 164.63571424484252 L 28.9 168.0 L 79.1 168.0 L 79.1 159.6290322303772 L 76.3 162.7 L 71.7 162.8 L 68.4 159.7 L 68.2 158.3 L 67.3 153.8 L 66.8 152.3 L 66.3 150.7 L 65.85422534942627 149.5112675666809 L 65.6 150.1 L 63.5 154.1 L 61.2 157.7 L 58.6 160.8 L 55.8 163.4 L 52.8 165.6 L 51.6 164.3 L 53.2 161.3 L 54.5 158.1 L 55.8 154.8 L 56.9 151.2 L 57.9 147.3 L 58.8 143.2 L 59.5 138.7 L 60.1 133.9 L 60.5 128.8 L 60.74442386627197 124.40037021636962 L 60.7 124.4 L 61.0 121.2 L 72.7 124.5 L 75.5 126.8 L 72.0145336151123 128.4757049560547 L 71.7 130.3 L 70.5 135.8 L 69.1 140.9 L 67.72786884307861 145.01639347076417 L 69.4 146.0 L 71.0 147.0 L 72.5 148.1 L 74.0 149.3 L 75.4 150.5 L 76.8 151.9 L 78.1 153.3 L 79.1 154.4666666984558 L 79.1 119.0 L 28.9 119.0 L 28.9 163.65 L 30.0 160.9 L 31.2 157.3 L 32.4 153.6 L 33.6 149.8 L 34.6 145.8 L 35.5 141.7 L 36.3 137.3 L 36.9 132.8 L 37.5 128.1 L 37.8195258140564 124.10592689514161 L 37.7 124.1 L 38.2 121.1 L 49.8 124.7 L 52.5 127.1 L 48.910440826416014 128.62888631820678 L 48.6 130.0 L 47.3 135.0 L 45.8 139.8 L 44.99016599655151 141.943678188324 L 45.7 142.4 L 47.0 143.4 L 48.3 144.5 L 49.5 145.6 L 50.6 146.8 L 51.8 148.1 L 52.9 149.4 L 53.9 150.7 L 55.0 152.1 L 54.7 156.6 L 51.4 159.8 L 46.8 159.5 L 43.7 156.2 L 43.6 154.7 Z M 132.11290321350097 132.3 L 135.6 137.0 L 140.1 142.8 L 144.8 148.2 L 149.6 153.3 L 151.74347829818726 155.2753623008728 L 151.8 155.2 L 153.3 152.5 L 154.7 150.0 L 156.0 147.5 L 157.4 145.0 L 158.6 142.6 L 160.8 137.8 L 161.8 135.5 L 162.40411310195924 134.05012855529785 L 162.3 134.0 L 163.2444444656372 132.3 Z M 179.02868099212645 69.52346630096436 L 180.1 70.4 L 175.1 74.4 L 175.1 114.8 L 163.1 120.8 L 163.1 114.8 L 117.9 114.8 L 105.9 120.8 L 105.9 65.83333330154419 L 103.7 67.5 L 96.5 72.2 L 95.4 70.8 L 101.2 64.6 L 106.6 58.6 L 111.6 52.7 L 116.2 46.9 L 120.4 41.2 L 123.71052627563476 36.1 L 98.1 36.1 L 98.1 32.1 L 126.10357141494751 32.1 L 127.4 29.9 L 130.2 24.3 L 132.6 18.7 L 134.5 13.2 L 134.52965879440308 13.211023616790772 L 135.0 11.8 L 145.8 17.4 L 147.9 20.3 L 144.0449541091919 21.031129360198975 L 142.9 23.4 L 139.6 29.3 L 137.84406776428222 32.1 L 160.9 32.1 L 170.9 22.1 L 182.9 32.1 L 182.9 36.1 L 149.92258062362671 36.1 L 151.6 37.4 L 155.4 40.4 L 159.1 43.4 L 162.7 46.2 L 166.3 48.8 L 169.9 51.3 L 173.5 53.6 L 177.0 55.7 L 180.6 57.7 L 184.2 59.5 L 188.5 62.1 Z M 117.9 92.6 L 117.9 110.8 L 134.0 110.8 L 134.0 92.6 Z M 146.0 92.6 L 146.0 110.8 L 163.1 110.8 L 163.1 92.6 Z M 117.9 70.4 L 117.9 88.6 L 134.0 88.6 L 134.0 70.4 Z M 146.0 70.4 L 146.0 88.6 L 163.1 88.6 L 163.1 70.4 Z M 135.23684206008912 36.1 L 131.7 40.9 L 127.0 46.4 L 121.9 51.9 L 116.3 57.3 L 110.3 62.5 L 110.22048196792602 62.5602409362793 L 117.9 66.4 L 163.1 66.4 L 167.43988761901855 62.78342695236206 L 166.8 62.2 L 163.5 59.0 L 160.3 55.6 L 157.1 52.0 L 154.1 48.2 L 151.3 44.2 L 148.7 39.9 L 146.58888893127443 36.1 Z M 15.6 60.0 L 24.2 60.0 L 24.2 28.0 L 36.2 30.0 L 39.2 32.0 L 36.2 33.8 L 36.2 60.0 L 48.9 60.0 L 48.9 13.0 L 60.9 15.0 L 63.9 17.0 L 60.9 18.8 L 60.9 36.0 L 75.4777777671814 36.0 L 81.7 29.0 L 89.7 36.0 L 89.7 40.0 L 60.9 40.0 L 60.9 60.0 L 73.2 60.0 L 83.2 50.0 L 95.2 60.0 L 95.2 64.0 L 15.6 64.0 Z " />
</g>
</svg>
