<svg xmlns="http://www.w3.org/2000/svg" xmlns:xlink="http://www.w3.org/1999/xlink" version="1.1" baseProfile="full" viewBox="0 0 200 200" width="200" height="200">
<g fill="black">
<path d="M 111.7 18.7 L 113.4 21.9 L 109.03971633911132 22.05035457611084 L 108.6 22.6 L 106.9 24.6 L 105.2 26.7 L 101.4 31.1 L 99.3 33.3 L 97.1 35.6 L 96.2 36.5 L 149.0 36.5 L 155.0 31.5 L 166.0 40.5 L 161.0 44.5 L 161.0 70.8 L 149.0 76.8 L 149.0 68.8 L 54.0 68.8 L 54.0 87.5 L 152.0 87.5 L 158.0 82.5 L 169.0 91.5 L 164.0 95.5 L 164.0 122.8 L 152.0 128.8 L 152.0 120.8 L 54.0 120.8 L 54.0 140.4 L 155.0 140.4 L 161.0 135.4 L 172.0 144.4 L 167.0 148.4 L 167.0 179.6 L 155.0 185.6 L 155.0 175.6 L 54.0 175.6 L 54.0 182.6 L 42.0 188.6 L 42.0 30.5 L 54.0 36.5 L 92.6 36.5 L 93.7 33.4 L 94.8 30.5 L 95.8 27.7 L 96.9 25.0 L 97.8 22.4 L 98.8 19.9 L 99.6 17.5 L 100.5 15.2 L 100.91498374938965 13.895765495300292 L 100.7 13.8 L 101.7 12.0 Z M 54.0 144.4 L 54.0 171.6 L 155.0 171.6 L 155.0 144.4 Z M 54.0 91.5 L 54.0 116.8 L 152.0 116.8 L 152.0 91.5 Z M 54.0 40.5 L 54.0 64.8 L 149.0 64.8 L 149.0 40.5 Z " />
</g>
</svg>
