<svg xmlns="http://www.w3.org/2000/svg" xmlns:xlink="http://www.w3.org/1999/xlink" version="1.1" baseProfile="full" viewBox="0 0 200 200" width="200" height="200">
<g fill="black">
<path d="M 182.2 143.6 L 184.2 143.6 L 182.2 168.6 L 185.8 171.0 L 188.2 174.6 L 185.8 178.2 L 182.2 180.6 L 112.0 180.6 L 109.5 180.4 L 107.0 180.0 L 104.6 179.2 L 102.3 178.0 L 100.3 176.3 L 98.6 174.3 L 97.4 172.0 L 96.6 169.6 L 96.2 167.1 L 96.0 164.6 L 96.0 134.7 L 58.5 134.7 L 58.5 146.7 L 46.5 152.7 L 46.5 64.11578950881957 L 41.1 69.8 L 32.7 78.0 L 23.5 86.2 L 13.6 94.6 L 12.3 93.3 L 20.9 83.5 L 28.8 74.3 L 36.2 65.4 L 43.0 56.9 L 49.0 48.8 L 54.4 41.0 L 59.1 33.6 L 63.1 26.5 L 66.4 19.8 L 68.62514276504517 14.408308029174805 L 68.6 14.4 L 68.81428575515747 13.95 L 69.0 13.5 L 69.0237771987915 13.51006784439087 L 69.6 12.3 L 80.1 18.2 L 82.1 21.2 L 78.28504362106324 21.72620086669922 L 76.6 25.0 L 72.4 32.0 L 68.94929580688476 37.0 L 120.0 37.0 L 120.35483875274659 36.704301071166995 L 121.0 35.5 L 121.43564357757569 35.803630352020264 L 126.0 32.0 L 137.0 41.0 L 132.0 44.0 L 127.87614212036132 45.71827411651611 L 126.3 47.5 L 123.8 50.1 L 121.1 52.8 L 118.3 55.5 L 115.3 58.3 L 112.1 61.1 L 108.8 63.9 L 105.2 66.6 L 104.11999998092651 67.5 L 148.5 67.5 L 154.5 62.5 L 165.5 71.5 L 160.5 75.5 L 160.5 140.7 L 148.5 146.7 L 148.5 134.7 L 108.0 134.7 L 108.0 164.6 L 108.1 165.8 L 108.3 166.7 L 108.6 167.6 L 109.0 168.0 L 109.3 168.2 L 109.9 168.4 L 110.8 168.5 L 112.0 168.6 L 176.2 168.6 Z M 58.5 101.6 L 58.5 130.7 L 96.0 130.7 L 96.0 101.6 Z M 108.0 101.6 L 108.0 130.7 L 148.5 130.7 L 148.5 101.6 Z M 58.5 71.5 L 58.5 97.6 L 96.0 97.6 L 96.0 71.5 Z M 108.0 71.5 L 108.0 97.6 L 148.5 97.6 L 148.5 71.5 Z M 66.06216220855713 41.0 L 61.9 46.5 L 55.7 54.1 L 48.7 61.8 L 48.18474578857422 62.34237289428711 L 58.5 67.5 L 100.84736843109131 67.5 L 102.9 64.5 L 105.3 60.7 L 107.7 57.2 L 110.0 53.7 L 112.1 50.4 L 114.2 47.2 L 116.1 44.1 L 117.9 41.1 L 117.95714282989502 41.0 Z " />
</g>
</svg>
