<svg xmlns="http://www.w3.org/2000/svg" xmlns:xlink="http://www.w3.org/1999/xlink" version="1.1" baseProfile="full" viewBox="0 0 200 200" width="200" height="200">
<g fill="black">
<path d="M 152.0 20.0 L 155.0 22.0 L 152.0 23.8 L 152.0 183.0 L 140.0 189.0 L 140.0 118.0 L 86.8043478012085 118.0 L 86.4 127.3 L 84.9 137.9 L 82.5 147.8 L 79.2 156.7 L 74.9 164.8 L 69.7 171.9 L 63.6 178.0 L 56.6 183.1 L 48.8 187.0 L 40.3 189.8 L 39.6 188.1 L 47.0 183.7 L 53.5 178.7 L 59.0 173.3 L 63.7 167.3 L 67.5 160.6 L 70.6 153.3 L 72.8 145.2 L 74.3 136.3 L 75.0 126.6 L 75.0 118.0 L 47.0 118.0 L 47.0 114.0 L 140.0 114.0 L 140.0 82.0 L 82.0 82.0 L 82.0 94.0 L 70.0 100.0 L 70.0 29.0 L 82.0 31.0 L 85.0 33.0 L 82.0 34.8 L 82.0 78.0 L 140.0 78.0 L 140.0 18.0 Z " />
</g>
</svg>
