<svg xmlns="http://www.w3.org/2000/svg" xmlns:xlink="http://www.w3.org/1999/xlink" version="1.1" baseProfile="full" viewBox="0 0 200 200" width="200" height="200">
<g fill="black">
<path d="M 22.6 175.9 L 36.6 175.9 L 37.8 175.8 L 38.7 175.6 L 39.6 175.3 L 40.0 174.9 L 40.3 174.0 L 40.5 173.1 L 40.6 171.9 L 40.6 116.76000003814697 L 39.2 117.6 L 33.7 121.0 L 28.1 124.2 L 26.02823152542114 125.39944486618042 L 25.6 129.2 L 22.4 127.5 L 15.2 117.7 L 17.0 116.8 L 22.9 114.1 L 28.7 111.4 L 34.5 108.8 L 40.3 106.1 L 40.6 105.95789470672608 L 40.6 57.2 L 18.2 57.2 L 18.2 53.2 L 40.6 53.2 L 40.6 14.0 L 52.6 16.0 L 55.6 18.0 L 52.6 19.8 L 52.6 53.2 L 57.418181800842284 53.2 L 65.6 44.2 L 75.3 52.93000001907349 L 75.3 37.0 L 85.678125 38.7296875 L 87.6 37.0 L 89.6 35.3 L 91.4 33.7 L 93.1 32.0 L 94.8 30.5 L 96.2 28.9 L 97.6 27.4 L 98.24507160186768 26.655686569213866 L 98.1 26.5 L 99.0 25.8 L 105.55128202438354 34.32564105987549 L 116.9 40.0 L 119.3740740776062 40.0 L 119.7 38.9 L 120.1 36.0 L 120.6 33.2 L 121.0 30.4 L 121.5 27.6 L 122.5 22.2 L 122.9 19.5 L 123.4 16.8 L 123.64705171585084 15.132401180267333 L 123.5 15.1 L 123.78275861740113 14.216379356384277 L 123.8 14.1 L 123.81817893981933 14.10569076538086 L 124.3 12.6 L 135.3 17.7 L 137.5 20.5 L 133.3285714149475 21.54285717010498 L 132.7 22.8 L 131.4 25.3 L 128.6 30.3 L 127.1 32.7 L 125.5 35.1 L 123.8 37.5 L 122.0 39.8 L 121.88800001144409 40.0 L 139.0 40.0 L 145.0 35.0 L 156.0 44.0 L 151.0 48.0 L 151.0 111.0 L 139.0 117.0 L 139.0 111.0 L 116.9 111.0 L 104.9 117.0 L 104.9 38.23888893127442 L 102.27784433364869 37.219161701202395 L 99.9 38.3 L 97.5 39.2 L 95.1 40.0 L 92.6 40.8 L 90.0 41.6 L 88.76739130020141 41.919565200805664 L 87.3 42.8 L 87.3 108.0 L 90.3777777671814 108.0 L 96.6 101.0 L 104.6 108.0 L 104.6 112.0 L 87.3 112.0 L 87.3 124.0 L 75.3 130.0 L 75.3 92.77142858505249 L 71.1 96.2 L 66.0 100.1 L 60.8 103.8 L 55.5 107.3 L 52.6 109.17962961196899 L 52.6 171.9 L 52.4 174.4 L 52.0 176.9 L 51.2 179.3 L 49.9 181.6 L 48.3 183.6 L 46.3 185.2 L 44.0 186.5 L 41.6 187.3 L 39.1 187.7 L 36.6 187.9 L 36.6 181.9 L 22.6 178.9 Z M 180.2 145.2 L 182.2 145.2 L 180.2 170.2 L 183.8 172.6 L 186.2 176.2 L 183.8 179.8 L 180.2 182.2 L 154.6 182.2 L 152.1 182.1 L 149.6 181.6 L 147.2 180.8 L 144.9 179.6 L 142.9 178.0 L 141.2 175.9 L 140.0 173.7 L 139.2 171.3 L 138.8 168.8 L 138.6 166.2 L 138.6 133.1 L 117.1 133.1 L 117.1 144.5 L 116.78421049118042 144.97368421554566 L 117.1 145.0 L 115.9 151.6 L 113.9 157.6 L 111.3 163.2 L 108.0 168.1 L 104.0 172.4 L 99.4 176.0 L 94.2 179.0 L 88.6 181.2 L 82.4 182.7 L 75.8 183.4 L 75.4 181.7 L 81.3 179.1 L 86.4 176.3 L 90.9 173.3 L 94.6 170.1 L 97.8 166.6 L 100.3 162.8 L 102.3 158.7 L 103.7 154.2 L 104.7 149.3 L 105.1 144.0 L 105.1 123.1 L 117.1 129.1 L 138.6 129.1 L 144.6 124.1 L 155.6 133.1 L 150.6 137.1 L 150.6 166.2 L 150.7 167.4 L 150.8 168.4 L 151.0 168.9 L 151.2 169.3 L 151.5 169.6 L 151.9 169.8 L 152.5 170.0 L 153.4 170.1 L 154.6 170.2 L 174.2 170.2 Z M 184.9 39.0 L 179.9 43.0 L 179.9 118.0 L 167.9 124.0 L 167.9 112.0 L 153.2 112.0 L 153.2 108.0 L 167.9 108.0 L 167.9 39.0 L 154.4 39.0 L 154.4 35.0 L 167.9 35.0 L 173.9 30.0 Z M 116.9 76.0 L 116.9 107.0 L 139.0 107.0 L 139.0 76.0 Z M 52.6 57.2 L 52.6 100.34137935638428 L 63.4 95.5 L 69.2 93.0 L 75.1 90.6 L 75.3 90.95555553436279 L 75.3 57.2 Z M 116.9 44.0 L 116.9 72.0 L 139.0 72.0 L 139.0 44.0 Z " />
</g>
</svg>
