<svg xmlns="http://www.w3.org/2000/svg" xmlns:xlink="http://www.w3.org/1999/xlink" version="1.1" baseProfile="full" viewBox="0 0 200 200" width="200" height="200">
<g fill="black">
<path d="M 138.8 163.2 L 139.8 166.7 L 135.89183168411256 166.01435642242433 L 135.7 166.2 L 132.4 169.1 L 129.0 171.9 L 125.5 174.6 L 121.8 177.2 L 118.0 179.7 L 114.0 182.1 L 109.9 184.3 L 105.6 186.2 L 101.2 188.1 L 100.3 186.6 L 103.8 183.4 L 107.1 180.2 L 110.4 177.1 L 113.5 174.0 L 116.5 170.9 L 119.5 167.9 L 122.2 164.8 L 124.9 161.6 L 127.4 158.5 L 129.20089149475098 156.17384843826295 L 129.1 156.1 L 130.2 154.9 Z M 50.8 163.2 L 51.8 166.7 L 47.891831684112546 166.01435642242433 L 47.7 166.2 L 44.4 169.1 L 41.0 171.9 L 37.5 174.6 L 33.8 177.2 L 30.0 179.7 L 26.0 182.1 L 21.9 184.3 L 17.6 186.2 L 13.2 188.1 L 12.3 186.6 L 15.8 183.4 L 19.1 180.2 L 22.4 177.1 L 25.5 174.0 L 28.5 170.9 L 31.5 167.9 L 34.2 164.8 L 36.9 161.6 L 39.4 158.5 L 41.20089149475098 156.17384843826295 L 41.1 156.1 L 42.2 154.9 Z M 171.4 179.3 L 169.6 176.6 L 167.7 173.9 L 165.5 171.3 L 163.2 168.8 L 160.6 166.3 L 157.9 163.7 L 155.0 161.2 L 151.8 158.9 L 152.6 157.2 L 156.4 158.6 L 160.2 159.9 L 163.9 161.5 L 167.3 163.3 L 170.6 165.4 L 173.8 167.6 L 176.7 170.0 L 179.5 172.6 L 182.2 175.4 L 184.6 178.4 L 185.3 182.9 L 182.8 186.7 L 178.2 187.4 L 174.5 184.8 L 173.0 182.0 Z M 83.4 179.3 L 81.6 176.6 L 79.7 173.9 L 77.5 171.3 L 75.2 168.8 L 72.6 166.3 L 69.9 163.7 L 67.0 161.2 L 63.8 158.9 L 64.6 157.2 L 68.4 158.6 L 72.2 159.9 L 75.9 161.5 L 79.3 163.3 L 82.6 165.4 L 85.8 167.6 L 88.7 170.0 L 91.5 172.6 L 94.2 175.4 L 96.6 178.4 L 97.3 182.9 L 94.8 186.7 L 90.2 187.4 L 86.5 184.8 L 85.0 182.0 Z M 113.7 75.1 L 116.2 77.1 L 113.7 78.76666669845581 L 113.7 148.8 L 165.9 148.8 L 175.9 138.8 L 187.9 148.8 L 187.9 152.8 L 113.7 152.8 L 113.7 159.8 L 103.7 164.8 L 103.7 73.1 Z M 25.7 75.1 L 28.2 77.1 L 25.7 78.76666669845581 L 25.7 148.8 L 77.9 148.8 L 87.9 138.8 L 99.9 148.8 L 99.9 152.8 L 25.7 152.8 L 25.7 159.8 L 15.7 164.8 L 15.7 73.1 Z M 180.7 73.5 L 175.7 77.5 L 175.7 135.6 L 163.7 141.6 L 163.7 135.6 L 131.1 135.6 L 121.1 140.6 L 121.1 64.5 L 131.1 69.5 L 163.7 69.5 L 169.7 64.5 Z M 92.7 73.5 L 87.7 77.5 L 87.7 135.6 L 75.7 141.6 L 75.7 135.6 L 43.1 135.6 L 33.1 140.6 L 33.1 64.5 L 43.1 69.5 L 75.7 69.5 L 81.7 64.5 Z M 131.1 114.0 L 131.1 131.6 L 163.7 131.6 L 163.7 114.0 Z M 43.1 114.0 L 43.1 131.6 L 75.7 131.6 L 75.7 114.0 Z M 131.1 93.7 L 131.1 110.0 L 163.7 110.0 L 163.7 93.7 Z M 43.1 93.7 L 43.1 110.0 L 75.7 110.0 L 75.7 93.7 Z M 131.1 73.5 L 131.1 89.7 L 163.7 89.7 L 163.7 73.5 Z M 43.1 73.5 L 43.1 89.7 L 75.7 89.7 L 75.7 73.5 Z M 123.6 57.8 L 121.3 57.6 L 119.1 57.0 L 116.9 56.1 L 115.0 54.7 L 113.3 53.0 L 111.9 50.9 L 111.0 48.7 L 110.3 46.3 L 110.0 43.7 L 110.0 13.5 L 122.0 15.5 L 125.0 17.5 L 122.0 19.3 L 122.0 27.5 L 152.4 27.5 L 162.4 17.5 L 174.4 27.5 L 174.4 31.5 L 122.0 31.5 L 122.0 43.7 L 121.9 45.0 L 121.8 46.0 L 121.9 46.7 L 121.9 47.2 L 122.0 47.7 L 122.3 48.1 L 122.7 48.6 L 123.5 49.0 L 124.6 49.4 L 126.0 49.7 L 178.9 49.7 L 181.3 51.3 L 182.9 53.7 L 181.3 56.1 L 178.9 57.7 L 126.0 57.7 Z M 35.6 57.8 L 33.3 57.6 L 31.1 57.0 L 28.9 56.1 L 27.0 54.7 L 25.3 53.0 L 23.9 50.9 L 23.0 48.7 L 22.3 46.3 L 22.0 43.7 L 22.0 13.5 L 34.0 15.5 L 37.0 17.5 L 34.0 19.3 L 34.0 27.5 L 64.4 27.5 L 74.4 17.5 L 86.4 27.5 L 86.4 31.5 L 34.0 31.5 L 34.0 43.7 L 33.9 45.0 L 33.8 46.0 L 33.9 46.7 L 33.9 47.2 L 34.0 47.7 L 34.3 48.1 L 34.7 48.6 L 35.5 49.0 L 36.6 49.4 L 38.0 49.7 L 90.9 49.7 L 93.3 51.3 L 94.9 53.7 L 93.3 56.1 L 90.9 57.7 L 38.0 57.7 Z " />
</g>
</svg>
