<svg xmlns="http://www.w3.org/2000/svg" xmlns:xlink="http://www.w3.org/1999/xlink" version="1.1" baseProfile="full" viewBox="0 0 200 200" width="200" height="200">
<g fill="black">
<path d="M 59.0 177.3 L 77.0 177.3 L 77.0 111.5 L 89.0 117.5 L 157.9 117.5 L 163.9 112.5 L 174.9 121.5 L 169.9 125.5 L 169.9 177.3 L 173.6777777671814 177.3 L 179.9 170.3 L 187.9 177.3 L 187.9 181.3 L 59.0 181.3 Z M 89.0 121.5 L 89.0 177.3 L 104.0 177.3 L 104.0 121.5 Z M 116.0 121.5 L 116.0 177.3 L 130.9 177.3 L 130.9 121.5 Z M 142.9 121.5 L 142.9 177.3 L 157.9 177.3 L 157.9 121.5 Z M 28.1 36.0 L 51.8 36.0 L 57.8 31.0 L 68.8 40.0 L 63.8 44.0 L 63.8 156.0 L 51.8 162.0 L 51.8 152.0 L 28.1 152.0 L 28.1 164.0 L 16.1 170.0 L 16.1 30.0 Z M 28.1 96.0 L 28.1 148.0 L 51.8 148.0 L 51.8 96.0 Z M 92.8 24.3 L 153.4 24.3 L 159.4 19.3 L 170.4 28.3 L 165.4 32.3 L 165.4 100.7 L 153.4 106.7 L 153.4 96.7 L 92.8 96.7 L 92.8 103.7 L 80.8 109.7 L 80.8 18.3 Z M 92.8 28.3 L 92.8 92.7 L 153.4 92.7 L 153.4 28.3 Z M 28.1 40.0 L 28.1 92.0 L 51.8 92.0 L 51.8 40.0 Z M 131.16172103881837 40.6029673576355 L 130.9 43.7 L 129.7 50.5 L 127.8 56.9 L 126.28613252639771 60.59383668899536 L 126.3 60.6 L 129.9 62.1 L 133.3 63.8 L 136.6 65.7 L 139.6 67.8 L 142.4 70.0 L 145.1 72.3 L 147.6 74.8 L 149.8 77.4 L 151.9 80.1 L 152.4 84.7 L 149.6 88.3 L 145.1 88.7 L 141.4 85.9 L 140.4 83.4 L 139.2 80.9 L 137.7 78.4 L 136.1 75.9 L 134.2 73.4 L 132.2 70.8 L 129.9 68.3 L 127.4 65.7 L 125.1174880027771 63.32969903945923 L 122.2 68.6 L 118.5 73.7 L 114.2 78.4 L 109.3 82.6 L 103.8 86.2 L 97.8 89.1 L 96.8 87.6 L 101.5 83.1 L 105.6 78.6 L 109.2 74.1 L 112.2 69.4 L 114.7 64.5 L 116.7 59.4 L 118.1 54.1 L 119.1 48.6 L 119.6 42.7 L 119.51637105941772 37.59863576889038 L 119.5 37.6 L 119.5 34.2 L 131.5 36.6 L 134.5 38.6 Z " />
</g>
</svg>
