<svg xmlns="http://www.w3.org/2000/svg" xmlns:xlink="http://www.w3.org/1999/xlink" version="1.1" baseProfile="full" viewBox="0 0 200 200" width="200" height="200">
<g fill="black">
<path d="M 156.6 169.3 L 148.0 160.6 L 140.4 150.9 L 138.97432985305787 148.5750609397888 L 132.8 156.9 L 122.7 167.3 L 111.5 176.1 L 99.2 183.3 L 85.8 188.8 L 85.2 187.1 L 97.3 180.0 L 108.3 171.8 L 118.1 162.6 L 126.8 152.2 L 134.20588722229004 140.7988314628601 L 133.9 140.3 L 128.3 128.8 L 123.8 116.5 L 120.3 103.2 L 117.9 89.1 L 117.21454410552978 80.53180103302002 L 113.4 86.7 L 108.2 93.8 L 102.7 100.5 L 101.2 99.4 L 105.0 91.8 L 108.7 84.0 L 112.3 76.1 L 115.6 68.0 L 118.7 59.6 L 121.6 51.0 L 124.2 42.1 L 126.5 32.9 L 128.6 23.5 L 130.3059859275818 14.700704193115234 L 130.3 14.7 L 130.8 11.9 L 142.2 16.1 L 144.8 18.7 L 141.24278602600097 19.92885570526123 L 139.7 26.1 L 136.9 35.8 L 133.8 45.1 L 130.3 54.1 L 127.36551723480224 61.0 L 164.7 61.0 L 174.7 51.0 L 186.7 61.0 L 186.7 65.0 L 168.28010473251342 65.0 L 165.5 82.7 L 161.3 100.3 L 155.9 116.6 L 149.4 131.5 L 144.77530193328857 139.54817581176758 L 148.6 144.8 L 156.1 153.1 L 164.2 160.3 L 173.2 166.7 L 182.9 172.1 L 187.9 174.8 L 176.7 183.8 L 166.2 177.1 Z M 88.2 180.7 L 86.6 182.6 L 84.8 184.3 L 82.9 185.7 L 80.7 186.9 L 78.4 187.8 L 76.0 188.5 L 73.6 188.8 L 71.1 189.0 L 71.1 183.0 L 53.1 180.0 L 53.1 177.0 L 71.1 177.0 L 72.4 176.9 L 73.6 176.7 L 74.7 176.4 L 75.6 176.1 L 76.4 175.6 L 77.1 175.1 L 77.9 174.4 L 78.5 173.6 L 79.2 172.6 L 79.8 171.4 L 81.1 168.1 L 82.3 163.5 L 83.4 157.5 L 84.4 150.3 L 85.2 141.9 L 85.9 132.3 L 86.4 121.5 L 86.8 109.5 L 87.1 96.3 L 87.18601398468017 84.0 L 35.7 84.0 L 33.3 90.5 L 30.7 96.9 L 27.8 103.2 L 24.7 109.4 L 21.4 115.6 L 17.7 121.6 L 13.6 127.4 L 12.0 126.5 L 14.3 119.9 L 18.7 106.9 L 20.8 100.4 L 22.7 94.0 L 24.5 87.6 L 26.1 81.1 L 27.5 74.7 L 28.8 68.2 L 29.645340061187746 62.705289649963376 L 29.6 62.7 L 29.76363639831543 61.93636360168457 L 29.8 61.7 L 29.813689136505126 61.70278425216675 L 30.2 59.9 L 34.7 61.557894706726074 L 34.7 40.0 L 11.3 40.0 L 11.3 36.0 L 34.7 36.0 L 34.7 12.0 L 46.7 14.0 L 49.7 16.0 L 46.7 17.8 L 46.7 34.93333330154419 L 50.4 30.0 L 56.4 36.0 L 56.4 40.0 L 46.7 40.0 L 46.7 56.0 L 35.209090900421145 61.745454502105716 L 41.6 64.1 L 44.2 66.7 L 40.627126693725586 67.93426532745362 L 39.9 70.8 L 37.9 77.4 L 37.03333330154419 80.0 L 87.2 80.0 L 93.2 75.0 L 104.2 84.0 L 99.2 87.0 L 99.16517705917359 87.01450958251954 L 99.1 96.4 L 98.8 109.8 L 98.4 122.0 L 97.9 133.0 L 97.2 142.9 L 96.3 151.7 L 95.2 159.4 L 94.0 166.1 L 92.5 171.7 L 90.7 176.4 L 89.6 178.6 Z M 43.8 104.4 L 61.6 104.4 L 67.6 99.4 L 78.6 108.4 L 73.6 112.4 L 73.6 155.5 L 61.6 161.5 L 61.6 149.5 L 43.8 149.5 L 43.8 161.5 L 31.8 167.5 L 31.8 98.4 Z M 43.8 108.4 L 43.8 145.5 L 61.6 145.5 L 61.6 108.4 Z M 125.51325302124023 65.0 L 122.5 71.1 L 119.26710243225098 76.97799568176269 L 122.0 88.3 L 126.0 101.7 L 130.6 114.0 L 135.9 125.3 L 139.2218249320984 131.0024661064148 L 141.0 127.5 L 146.5 113.3 L 150.9 97.6 L 154.2 80.7 L 156.1514123916626 65.0 Z M 80.3 14.0 L 83.3 16.0 L 80.3 17.8 L 80.3 36.0 L 84.41818180084229 36.0 L 92.6 27.0 L 102.6 36.0 L 102.6 40.0 L 80.3 40.0 L 80.3 56.0 L 68.3 62.0 L 68.3 40.0 L 58.5 40.0 L 58.5 36.0 L 68.3 36.0 L 68.3 12.0 Z " />
</g>
</svg>
