<svg xmlns="http://www.w3.org/2000/svg" xmlns:xlink="http://www.w3.org/1999/xlink" version="1.1" baseProfile="full" viewBox="0 0 200 200" width="200" height="200">
<g fill="black">
<path d="M 144.2 176.0 L 158.2 176.0 L 159.4 175.9 L 160.3 175.7 L 160.9 175.5 L 161.3 175.4 L 161.4 175.2 L 161.6 175.0 L 161.8 174.7 L 162.0 174.1 L 162.1 173.2 L 162.2 172.0 L 162.2 149.1 L 107.7 149.1 L 107.7 183.2 L 95.7 189.2 L 95.7 84.3 L 107.7 90.3 L 162.2 90.3 L 168.2 85.3 L 179.2 94.3 L 174.2 98.3 L 174.2 172.0 L 174.1 174.5 L 173.6 177.0 L 172.8 179.4 L 171.6 181.7 L 169.9 183.7 L 167.9 185.4 L 165.7 186.6 L 163.2 187.4 L 160.8 187.8 L 158.2 188.0 L 158.2 182.0 L 144.2 179.0 Z M 73.7 49.2 L 72.2 46.7 L 70.4 44.2 L 68.3 41.6 L 66.0 39.0 L 63.3 36.3 L 60.4 33.6 L 57.2 30.8 L 55.03386116027832 29.190868282318114 L 52.9 34.4 L 49.1 42.4 L 45.1 50.3 L 40.7 57.9 L 36.0 65.4 L 33.5 69.0 L 59.8 69.0 L 69.8 59.0 L 81.8 69.0 L 81.8 73.0 L 59.2 73.0 L 59.2 101.0 L 64.8 101.0 L 74.8 91.0 L 86.8 101.0 L 86.8 105.0 L 59.2 105.0 L 59.2 161.71304349899293 L 64.0 160.6 L 70.8 159.0 L 77.8 157.5 L 84.8 156.1 L 85.4 157.8 L 79.0 161.1 L 72.5 164.1 L 66.0 166.9 L 59.4 169.5 L 52.7 172.0 L 46.1 174.3 L 39.4 176.5 L 32.8 178.6 L 26.1 180.7 L 23.3680100440979 181.47474346160888 L 22.0 185.0 L 19.4 182.6 L 14.7 171.3 L 16.7 170.9 L 23.4 169.6 L 36.8 166.8 L 43.6 165.4 L 47.2 164.54029846191406 L 47.2 105.0 L 18.8 105.0 L 18.8 101.0 L 47.2 101.0 L 47.2 73.0 L 30.691428565979002 73.0 L 25.6 79.6 L 19.8 86.2 L 13.6 92.5 L 12.2 91.4 L 16.8 83.9 L 21.2 76.5 L 25.4 69.1 L 29.4 61.5 L 33.2 53.9 L 36.7 46.2 L 39.9 38.4 L 42.9 30.4 L 45.6 22.3 L 47.70687379837036 15.101514530181884 L 47.7 15.1 L 47.78571424484253 14.83214282989502 L 48.0 14.1 L 48.018178939819336 14.10569076538086 L 48.5 12.6 L 59.5 17.7 L 61.7 20.5 L 58.089473724365234 21.402631568908692 L 56.3 26.1 L 55.86830711364746 27.153838539123534 L 58.7 28.3 L 62.8 29.8 L 66.6 31.6 L 70.2 33.6 L 73.5 35.7 L 76.6 38.0 L 79.4 40.4 L 82.1 42.9 L 84.4 45.6 L 86.5 48.5 L 86.9 53.1 L 84.0 56.6 L 79.4 57.0 L 75.9 54.1 L 74.9 51.7 Z M 29.2 145.5 L 28.8 142.5 L 28.3 139.5 L 27.5 136.5 L 26.6 133.5 L 25.4 130.5 L 24.0 127.4 L 22.5 124.3 L 20.5 121.3 L 21.8 120.0 L 24.6 122.5 L 27.5 124.8 L 30.1 127.4 L 32.4 130.3 L 34.5 133.2 L 36.4 136.4 L 38.0 139.7 L 39.4 143.2 L 40.4 146.7 L 41.3 150.5 L 39.8 154.8 L 35.8 156.9 L 31.5 155.5 L 29.3 151.5 L 29.4 148.4 Z M 83.7 122.0 L 85.8 124.9 L 81.67548894882202 125.69595823287963 L 80.5 127.9 L 78.8 130.9 L 77.0 133.9 L 75.1 136.9 L 73.1 139.8 L 71.0 142.7 L 68.8 145.6 L 66.3 148.5 L 64.0 151.4 L 62.5 150.5 L 63.8 147.1 L 64.9 143.5 L 66.0 140.1 L 67.0 136.8 L 68.1 133.5 L 69.1 130.3 L 70.0 127.1 L 70.9 124.0 L 71.7 120.9 L 72.1698429107666 118.81926698684693 L 72.1 118.8 L 72.33000001907348 118.11000003814698 L 72.4 117.8 L 72.42965879440308 117.81102361679078 L 72.9 116.4 Z M 107.7 121.7 L 107.7 145.1 L 162.2 145.1 L 162.2 121.7 Z M 107.7 94.3 L 107.7 117.7 L 162.2 117.7 L 162.2 94.3 Z M 170.9 64.4 L 168.6 59.6 L 167.75542640686035 58.0459846496582 L 163.6 59.4 L 154.7 62.0 L 145.8 64.3 L 137.1 66.4 L 128.6 68.2 L 120.1 69.9 L 111.7 71.4 L 103.5 72.8 L 95.4 74.0 L 91.56750955581666 74.48512535095215 L 89.7 77.9 L 87.5 75.0 L 84.5 63.2 L 86.5 63.1 L 94.3 62.7 L 102.3 62.1 L 109.01127376556397 61.608931159973146 L 111.1 54.0 L 115.6 39.0 L 117.0 34.1 L 118.4 29.1 L 119.7 24.2 L 121.85731868743896 15.211172294616699 L 121.8 15.2 L 122.07272729873657 14.31363639831543 L 122.1 14.2 L 122.10706825256348 14.202028274536133 L 122.6 12.6 L 133.6 17.5 L 136.0 20.3 L 132.23534879684448 21.29069766998291 L 131.8 22.5 L 129.9 27.5 L 127.9 32.4 L 125.8 37.3 L 121.2 46.9 L 118.7 51.6 L 116.0 56.2 L 113.1 60.7 L 112.65955324172974 61.29185028076172 L 118.8 60.7 L 127.2 59.8 L 135.9 58.9 L 144.7 57.8 L 153.6 56.7 L 162.8 55.7 L 166.27927417755126 55.32986440658569 L 166.1 55.0 L 163.5 50.5 L 160.8 46.2 L 157.9 42.0 L 154.9 37.9 L 151.9 33.9 L 148.7 29.8 L 149.9 28.4 L 154.5 31.1 L 158.8 34.2 L 162.8 37.6 L 166.7 41.4 L 170.4 45.5 L 173.9 49.8 L 177.2 54.4 L 180.4 59.2 L 183.4 64.3 L 186.2 69.6 L 186.2 74.2 L 183.1 77.5 L 178.5 77.6 L 175.2 74.5 L 173.1 69.3 Z " />
</g>
</svg>
