<svg xmlns="http://www.w3.org/2000/svg" xmlns:xlink="http://www.w3.org/1999/xlink" version="1.1" baseProfile="full" viewBox="0 0 200 200" width="200" height="200">
<g fill="black">
<path d="M 31.274725246429444 33.337362670898436 L 32.0 33.1 L 37.2 31.3 L 42.4 29.7 L 47.4 28.0 L 52.2 26.3 L 56.9 24.6 L 61.5 22.7 L 65.9 20.8 L 70.1 18.8 L 73.31698074340821 17.230741119384767 L 73.3 17.2 L 73.32797403335572 17.22537851333618 L 74.2 16.8 L 75.12349462509155 18.8543044090271 L 83.0 26.0 L 83.2 29.2 L 79.36777210235596 27.583278846740722 L 79.1 27.7 L 74.4 29.4 L 69.6 30.9 L 59.6 33.5 L 54.4 34.5 L 49.2 35.4 L 43.8 36.1 L 38.2 36.6 L 32.6 36.8 L 32.2 36.79310340881348 L 32.2 61.6 L 74.8 61.6 L 84.8 51.6 L 96.8 61.6 L 96.8 65.6 L 32.2 65.6 L 32.2 90.5 L 31.8 103.9 L 31.2 116.6 L 30.3 128.6 L 29.1 139.8 L 27.6 150.2 L 25.8 159.9 L 23.7 168.7 L 21.2 176.8 L 18.3 184.0 L 15.0 190.3 L 13.4 189.7 L 15.0 182.9 L 16.5 175.5 L 17.8 167.5 L 19.0 158.7 L 19.9 149.2 L 20.7 139.0 L 21.2 128.0 L 21.4 116.3 L 21.4 103.8 L 21.2 90.5 L 21.2 28.3 Z M 147.2 180.5 L 147.2 114.0 L 134.8 114.0 L 134.8 175.5 L 124.8 180.5 L 124.8 114.0 L 112.9 114.0 L 112.9 181.2 L 101.9 186.7 L 101.9 104.5 L 112.9 110.0 L 129.40285711288453 110.0 L 130.0 108.1 L 130.6 104.6 L 131.3 101.3 L 132.0 98.2 L 132.7 95.3 L 133.3 92.4 L 133.9 89.8 L 134.4 87.3 L 134.45217390060424 87.0 L 96.2 87.0 L 96.2 83.0 L 163.8 83.0 L 173.8 73.0 L 185.8 83.0 L 185.8 87.0 L 146.61818180084228 87.0 L 146.5 87.2 L 145.3 89.1 L 144.0 91.2 L 142.6 93.4 L 141.2 95.7 L 139.6 98.1 L 138.0 100.7 L 136.3 103.4 L 134.4 106.2 L 132.4 109.1 L 131.89375 110.0 L 169.1 110.0 L 174.6 105.0 L 185.1 114.0 L 180.1 117.5 L 180.1 171.0 L 179.9 173.4 L 179.6 175.7 L 178.9 178.0 L 177.9 180.1 L 176.5 182.1 L 174.7 183.7 L 172.7 185.0 L 170.5 185.8 L 168.2 186.3 L 165.8 186.5 L 165.8 181.0 L 151.8 178.2 Z M 87.6 146.2 L 89.6 146.2 L 87.6 171.2 L 91.2 173.6 L 93.6 177.2 L 91.2 180.8 L 87.6 183.2 L 55.5 183.2 L 53.0 183.0 L 50.5 182.5 L 48.1 181.7 L 45.9 180.4 L 44.0 178.7 L 42.4 176.7 L 41.2 174.5 L 40.5 172.1 L 40.1 169.7 L 40.0 167.2 L 40.0 77.2 L 51.0 82.7 L 76.1 82.7 L 82.1 77.7 L 93.1 86.7 L 88.1 90.7 L 88.1 132.3 L 76.1 138.3 L 76.1 126.3 L 51.0 126.3 L 51.0 167.2 L 51.2 168.5 L 51.4 169.4 L 51.6 170.1 L 52.1 170.6 L 52.4 170.8 L 52.7 170.9 L 53.4 171.1 L 54.3 171.2 L 81.6 171.2 Z M 51.0 86.7 L 51.0 122.3 L 76.1 122.3 L 76.1 86.7 Z M 115.7 67.4 L 103.7 73.4 L 103.7 24.8 L 115.7 26.8 L 118.7 28.8 L 115.7 30.6 L 115.7 56.4 L 135.0 56.4 L 135.0 12.6 L 147.0 14.6 L 150.0 16.6 L 147.0 18.4 L 147.0 56.4 L 166.2 56.4 L 166.2 24.8 L 178.2 26.8 L 181.2 28.8 L 178.2 30.6 L 178.2 64.4 L 166.2 70.4 L 166.2 60.4 L 115.7 60.4 Z M 157.2 114.0 L 157.2 175.5 L 165.8 175.5 L 166.8 175.4 L 167.4 175.3 L 167.8 175.1 L 168.1 175.0 L 168.2 174.8 L 168.4 174.6 L 168.6 174.1 L 168.8 173.4 L 169.0 172.3 L 169.1 171.0 L 169.1 114.0 Z " />
</g>
</svg>
