<svg xmlns="http://www.w3.org/2000/svg" xmlns:xlink="http://www.w3.org/1999/xlink" version="1.1" baseProfile="full" viewBox="0 0 200 200" width="200" height="200">
<g fill="black">
<path d="M 165.0 147.7 L 162.8 144.8 L 160.4 141.9 L 160.18878993988037 141.66532211303712 L 146.8 143.3 L 130.3 145.0 L 114.4 146.5 L 106.0 147.27368421554564 L 106.0 182.4 L 94.0 188.4 L 94.0 148.3303448677063 L 84.7 149.1 L 70.8 150.2 L 57.6 151.1 L 45.1 152.0 L 33.3 152.8 L 26.16481876373291 153.2459487915039 L 24.2 156.4 L 22.1 153.5 L 19.8 141.6 L 21.8 141.5 L 32.9 141.4 L 44.7 141.3 L 57.2 141.1 L 70.4 140.9 L 84.2 140.6 L 90.34890632629394 140.4736526489258 L 92.7 138.3 L 97.9 133.7 L 102.9 129.3 L 107.8 125.0 L 112.4 121.0 L 116.8 117.0 L 121.0 113.2 L 125.0 109.5 L 128.7 105.8 L 131.49252166748047 103.08726472854615 L 131.4 103.0 L 132.4 102.2 L 140.2 111.3 L 140.7 114.8 L 137.11404609680176 113.6916142463684 L 136.2 114.4 L 131.9 117.7 L 127.4 121.0 L 122.6 124.3 L 117.6 127.7 L 112.3 131.1 L 106.8 134.6 L 101.0 138.0 L 96.79979085922241 140.34110021591187 L 98.8 140.3 L 114.0 140.0 L 130.0 139.7 L 146.6 139.5 L 158.23999996185302 139.5 L 157.7 138.9 L 154.6 136.0 L 151.3 133.0 L 147.6 129.9 L 143.7 126.7 L 139.4 123.6 L 140.2 122.0 L 145.3 123.8 L 150.2 125.7 L 154.7 127.8 L 158.9 130.1 L 162.9 132.6 L 166.6 135.2 L 170.0 138.0 L 173.1 140.9 L 175.9 144.0 L 178.5 147.3 L 179.2 151.8 L 176.5 155.5 L 172.0 156.2 L 168.3 153.5 L 166.8 150.6 Z M 71.7 161.4 L 72.5 164.9 L 68.57957744598389 164.07464790344238 L 68.2 164.4 L 64.5 167.4 L 60.5 170.3 L 56.2 173.1 L 51.6 175.8 L 46.8 178.4 L 41.7 180.8 L 36.2 183.1 L 30.4 185.2 L 24.3 187.1 L 23.6 185.4 L 28.8 181.8 L 33.7 178.4 L 38.4 175.1 L 42.8 171.9 L 46.9 168.7 L 50.7 165.6 L 54.2 162.5 L 57.4 159.3 L 60.3 156.3 L 62.26792650222778 153.95362615585327 L 62.2 153.9 L 63.2 152.8 Z M 154.9 177.9 L 152.2 174.9 L 149.3 171.9 L 146.0 168.9 L 142.5 165.9 L 138.6 162.8 L 134.5 159.8 L 130.1 156.6 L 125.5 153.3 L 126.2 151.7 L 131.8 153.3 L 137.0 155.2 L 141.9 157.3 L 146.6 159.7 L 150.9 162.1 L 155.0 164.7 L 158.9 167.5 L 162.5 170.4 L 165.8 173.4 L 168.8 176.6 L 170.0 181.0 L 167.8 185.0 L 163.4 186.2 L 159.4 184.0 L 157.3 181.0 Z M 71.7 130.5 L 69.5 127.8 L 66.9 125.2 L 64.0 122.5 L 60.7 119.8 L 57.1 117.2 L 53.3 114.5 L 49.1 111.8 L 44.6 109.1 L 45.2 107.5 L 50.4 108.7 L 55.4 110.1 L 60.0 111.8 L 64.4 113.7 L 68.6 115.8 L 71.59045400619507 117.53131551742554 L 72.2 116.9 L 74.7 113.8 L 77.3 110.9 L 79.7 108.0 L 82.1 105.2 L 84.5 102.5 L 88.9 97.1 L 92.25243406295776 92.74183568954467 L 92.2 92.7 L 92.75 92.09499998092652 L 92.9 91.9 L 92.91460552215577 91.91393394470215 L 93.2 91.6 L 101.6 100.2 L 102.4 103.7 L 98.41358489990235 102.86075468063355 L 93.4 106.8 L 90.4 108.9 L 87.4 111.1 L 84.3 113.2 L 81.0 115.3 L 77.6 117.3 L 74.07272729873657 119.16161613464355 L 76.0 120.5 L 79.3 123.1 L 82.4 126.0 L 85.1 129.0 L 86.1 133.5 L 83.7 137.4 L 79.2 138.3 L 75.3 135.9 L 73.7 133.2 Z M 13.3 110.2 L 13.0 105.6 L 15.9 102.1 L 17.9 101.4 L 19.8 100.4 L 21.5 99.0 L 23.2 97.2 L 24.8 95.0 L 26.2 92.3 L 27.5 89.1 L 28.7 85.5 L 29.6 81.3 L 30.1 76.8 L 31.9 76.7 L 32.4 81.4 L 32.74090909957886 83.9 L 94.0 83.9 L 94.0 62.0 L 27.0 62.0 L 27.0 58.0 L 153.0 58.0 L 163.0 48.0 L 175.0 58.0 L 175.0 62.0 L 106.0 62.0 L 106.0 83.9 L 170.0 83.9 L 170.61764707565308 83.38529415130616 L 171.1 82.3 L 171.53655319213868 82.61953897476197 L 176.0 78.9 L 187.0 87.9 L 182.0 90.9 L 176.50769233703613 93.1884614944458 L 175.2 94.3 L 173.1 96.1 L 170.7 97.9 L 168.2 99.8 L 165.6 101.7 L 162.7 103.7 L 159.6 105.8 L 156.6 108.1 L 155.3 106.8 L 157.8 103.9 L 159.8 100.8 L 161.7 98.0 L 163.5 95.3 L 165.2 92.8 L 166.7 90.4 L 168.0 88.1 L 168.11428575515748 87.9 L 33.0 87.9 L 33.0 90.1 L 32.7 94.1 L 32.0 97.9 L 30.8 101.4 L 29.1 104.8 L 27.0 107.8 L 24.4 110.5 L 21.3 112.8 L 16.8 113.1 Z M 134.0 13.8 L 137.0 15.8 L 134.0 17.6 L 134.0 30.6 L 165.0 30.6 L 175.0 20.6 L 187.0 30.6 L 187.0 34.6 L 134.0 34.6 L 134.0 48.6 L 122.0 54.6 L 122.0 34.6 L 78.0 34.6 L 78.0 48.6 L 66.0 54.6 L 66.0 34.6 L 13.0 34.6 L 13.0 30.6 L 66.0 30.6 L 66.0 11.8 L 78.0 13.8 L 81.0 15.8 L 78.0 17.6 L 78.0 30.6 L 122.0 30.6 L 122.0 11.8 Z " />
</g>
</svg>
