<svg xmlns="http://www.w3.org/2000/svg" xmlns:xlink="http://www.w3.org/1999/xlink" version="1.1" baseProfile="full" viewBox="0 0 200 200" width="200" height="200">
<g fill="black">
<path d="M 115.3 170.4 L 115.4 174.0 L 111.86021900177002 172.46386861801147 L 110.8 173.1 L 106.2 175.7 L 101.4 178.1 L 96.3 180.3 L 91.2 182.4 L 85.8 184.4 L 80.2 186.1 L 74.4 187.7 L 68.4 188.9 L 62.2 189.8 L 61.7 188.1 L 67.2 185.3 L 77.8 180.0 L 82.8 177.4 L 87.5 174.8 L 92.1 172.1 L 96.5 169.3 L 100.6 166.5 L 104.5 163.6 L 108.2 160.7 Z M 166.1 184.4 L 162.4 182.2 L 158.3 179.9 L 153.9 177.6 L 149.2 175.1 L 144.1 172.6 L 138.7 170.0 L 133.0 167.2 L 127.0 164.1 L 127.6 162.4 L 134.2 163.6 L 140.5 165.0 L 146.4 166.5 L 152.0 168.1 L 157.2 169.7 L 162.1 171.4 L 166.7 173.1 L 171.0 174.8 L 174.9 176.5 L 178.6 178.3 L 181.3 182.0 L 180.7 186.5 L 177.0 189.2 L 172.4 188.6 L 169.5 186.5 Z M 37.3 186.9 L 33.2 184.8 L 31.7 180.5 L 32.3 173.5 L 32.4 167.1 L 31.9 161.3 L 30.9 156.1 L 29.5 151.4 L 28.086545372009276 148.50241804122925 L 27.7 148.4 L 27.856564044952393 148.03095626831055 L 27.5 147.3 L 25.0 143.5 L 21.9 140.1 L 18.2 137.0 L 13.7 134.1 L 14.2 132.4 L 19.8 133.6 L 25.0 135.8 L 29.6 138.9 L 31.202240180969238 140.46316118240355 L 33.5 135.5 L 36.6 129.1 L 40.3 121.5 L 44.7 112.8 L 49.7 102.9 L 55.4 91.9 L 61.8 79.8 L 69.1 66.6 L 70.7 67.3 L 65.3 81.4 L 60.3 94.1 L 55.7 105.6 L 51.6 115.9 L 48.1 124.9 L 45.2 132.7 L 42.8 139.3 L 41.0 144.7 L 39.9 148.8 L 39.4 151.5 L 38.84196138381958 151.35214366912842 L 39.7 153.1 L 41.7 159.3 L 43.1 166.1 L 43.7 173.5 L 43.7 181.4 L 41.6 185.5 Z M 93.3 85.0 L 158.3 85.0 L 164.3 80.0 L 175.3 89.0 L 170.3 93.0 L 170.3 155.0 L 158.3 161.0 L 158.3 153.0 L 93.3 153.0 L 93.3 160.0 L 81.3 166.0 L 81.3 79.0 Z M 93.3 132.0 L 93.3 149.0 L 158.3 149.0 L 158.3 132.0 Z M 93.3 110.0 L 93.3 128.0 L 158.3 128.0 L 158.3 110.0 Z M 93.3 89.0 L 93.3 106.0 L 158.3 106.0 L 158.3 89.0 Z M 32.2 83.4 L 30.8 81.4 L 29.1 79.4 L 27.1 77.3 L 24.8 75.2 L 22.1 73.2 L 19.1 71.1 L 15.8 68.9 L 12.1 67.1 L 12.7 65.4 L 16.8 66.4 L 20.8 67.2 L 24.6 68.2 L 28.1 69.5 L 31.4 70.9 L 34.5 72.6 L 37.3 74.5 L 40.0 76.5 L 42.3 78.8 L 44.4 81.4 L 44.9 85.9 L 42.1 89.6 L 37.6 90.1 L 34.0 87.3 L 33.2 85.4 Z M 155.4 41.0 L 158.4 43.0 L 155.4 44.8 L 155.4 60.0 L 164.2 60.0 L 174.2 50.0 L 186.2 60.0 L 186.2 64.0 L 155.4 64.0 L 155.4 76.0 L 143.4 82.0 L 143.4 64.0 L 128.7 64.0 L 128.7 60.0 L 143.4 60.0 L 143.4 39.0 Z M 107.7 41.0 L 110.5 43.0 L 107.7 44.75 L 107.7 60.0 L 110.9777777671814 60.0 L 117.2 53.0 L 125.2 60.0 L 125.2 64.0 L 107.7 64.0 L 107.7 76.2 L 96.7 81.7 L 96.7 64.0 L 71.2 64.0 L 71.2 60.0 L 96.7 60.0 L 96.7 39.0 Z M 130.7 13.0 L 133.5 15.0 L 130.7 16.75 L 130.7 30.0 L 156.1 30.0 L 166.1 20.0 L 178.1 30.0 L 178.1 34.0 L 130.7 34.0 L 130.7 47.2 L 119.7 52.7 L 119.7 34.0 L 73.5 34.0 L 73.5 30.0 L 119.7 30.0 L 119.7 11.0 Z M 46.1 37.5 L 44.7 35.4 L 43.0 33.4 L 41.1 31.3 L 38.8 29.2 L 36.3 27.1 L 33.5 25.1 L 30.5 22.9 L 27.1 21.1 L 27.7 19.4 L 31.5 20.4 L 35.3 21.2 L 38.9 22.3 L 42.3 23.5 L 45.5 25.0 L 48.5 26.7 L 51.2 28.5 L 53.8 30.5 L 56.2 32.8 L 58.4 35.2 L 59.1 39.8 L 56.5 43.5 L 51.9 44.2 L 48.2 41.6 L 47.3 39.5 Z " />
</g>
</svg>
