<svg xmlns="http://www.w3.org/2000/svg" xmlns:xlink="http://www.w3.org/1999/xlink" version="1.1" baseProfile="full" viewBox="0 0 200 200" width="200" height="200">
<g fill="black">
<path d="M 135.0 175.0 L 147.0 175.0 L 148.2 174.9 L 149.1 174.7 L 150.0 174.4 L 150.4 174.0 L 150.7 173.1 L 150.9 172.2 L 151.0 171.0 L 151.0 93.0 L 106.0 93.0 L 106.0 183.0 L 94.0 189.0 L 94.0 93.0 L 47.0 93.0 L 47.0 184.0 L 35.0 190.0 L 35.0 93.9 L 30.0 97.3 L 24.8 100.5 L 19.3 103.3 L 13.4 105.7 L 12.5 104.2 L 17.2 100.1 L 21.7 96.1 L 26.0 92.1 L 30.1 88.1 L 33.9 84.1 L 37.5 80.0 L 40.8 75.8 L 43.9 71.5 L 46.7 67.1 L 49.3 62.6 L 49.35857257843018 62.63675146102905 L 49.77058820724487 62.0 L 16.0 62.0 L 16.0 58.0 L 74.0 58.0 L 74.0 42.0 L 51.0 42.0 L 51.0 45.0 L 39.0 51.0 L 39.0 14.0 L 51.0 16.0 L 54.0 18.0 L 51.0 19.8 L 51.0 38.0 L 74.0 38.0 L 74.0 12.0 L 86.0 14.0 L 89.0 16.0 L 86.0 17.8 L 86.0 58.0 L 114.0 58.0 L 114.0 12.0 L 126.0 14.0 L 129.0 16.0 L 126.0 17.8 L 126.0 38.0 L 149.0 38.0 L 149.0 15.0 L 161.0 17.0 L 164.0 19.0 L 161.0 20.8 L 161.0 44.0 L 149.0 50.0 L 149.0 42.0 L 126.0 42.0 L 126.0 58.0 L 165.8181818008423 58.0 L 174.0 49.0 L 184.0 58.0 L 184.0 62.0 L 106.0 62.0 L 106.0 89.0 L 151.0 89.0 L 157.0 84.0 L 168.0 93.0 L 163.0 97.0 L 163.0 171.0 L 162.8 173.5 L 162.4 176.0 L 161.6 178.4 L 160.3 180.7 L 158.7 182.7 L 156.7 184.3 L 154.4 185.6 L 152.0 186.4 L 149.5 186.8 L 147.0 187.0 L 147.0 181.0 L 135.0 178.0 Z M 76.0 112.0 L 79.0 114.0 L 76.0 115.8 L 76.0 134.0 L 75.4 139.0 L 74.5 143.8 L 73.2 148.3 L 71.6 152.5 L 69.6 156.4 L 67.2 159.8 L 64.5 162.9 L 61.4 165.6 L 58.0 167.8 L 54.5 169.7 L 53.4 168.2 L 56.0 165.5 L 58.0 162.4 L 59.8 159.4 L 61.2 156.3 L 62.3 153.0 L 63.2 149.6 L 63.8 146.1 L 64.1 142.3 L 64.2 138.2 L 64.0 134.0 L 64.0 110.0 Z M 134.0 111.0 L 137.0 113.0 L 134.0 114.8 L 134.0 155.0 L 122.0 161.0 L 122.0 109.0 Z M 167.9 89.8 L 165.1 87.0 L 162.0 84.1 L 158.4 81.3 L 154.5 78.4 L 150.3 75.5 L 145.7 72.5 L 140.8 69.4 L 135.5 66.2 L 136.2 64.5 L 142.3 66.0 L 148.0 67.7 L 153.3 69.7 L 158.3 71.9 L 163.0 74.2 L 167.3 76.6 L 171.4 79.2 L 175.1 81.9 L 178.6 84.8 L 181.7 87.8 L 183.0 92.2 L 180.9 96.3 L 176.5 97.5 L 172.4 95.4 L 170.4 92.7 Z M 59.5 69.0 L 61.0 72.3 L 57.11043672561645 72.23293857574463 L 56.1 73.6 L 52.4 78.1 L 48.4 82.3 L 44.2 86.4 L 43.30743799209595 87.15371904373168 L 47.0 89.0 L 94.0 89.0 L 94.0 62.0 L 50.16666669845581 62.0 Z " />
</g>
</svg>
