<svg xmlns="http://www.w3.org/2000/svg" xmlns:xlink="http://www.w3.org/1999/xlink" version="1.1" baseProfile="full" viewBox="0 0 200 200" width="200" height="200">
<g fill="black">
<path d="M 30.5 112.2 L 61.3 112.2 L 66.8 107.2 L 77.3 116.2 L 72.3 119.7 L 72.3 176.3 L 61.3 181.8 L 61.3 170.3 L 30.5 170.3 L 30.5 182.3 L 18.5 188.3 L 18.5 106.2 Z M 164.5 178.1 L 158.6 168.6 L 154.0 156.3 L 150.3 141.3 L 147.6 123.5 L 145.7 102.8 L 144.6 79.1 L 144.4 52.4 L 144.95540542602538 25.0 L 16.0 25.0 L 16.0 21.0 L 145.0 21.0 L 151.0 16.0 L 162.0 25.0 L 157.0 28.0 L 156.8153582572937 28.07693405151367 L 156.4 52.5 L 156.6 78.8 L 157.6 102.0 L 159.5 122.1 L 162.1 139.1 L 165.5 152.8 L 169.4 163.4 L 173.8 170.5 L 176.85838146209716 173.28034677505494 L 182.0 151.0 L 184.0 151.0 L 182.09028959274292 175.8262351036072 L 182.6 176.0 L 186.6 178.2 L 187.9 182.6 L 185.7 186.6 L 181.3 187.9 L 172.1 184.8 Z M 93.6 112.2 L 124.4 112.2 L 130.4 107.2 L 141.4 116.2 L 136.4 120.2 L 136.4 176.3 L 124.4 182.3 L 124.4 170.3 L 93.6 170.3 L 93.6 182.3 L 82.6 187.8 L 82.6 106.7 Z M 93.6 116.2 L 93.6 166.3 L 124.4 166.3 L 124.4 116.2 Z M 30.5 116.2 L 30.5 166.3 L 61.3 166.3 L 61.3 116.2 Z M 50.5 41.7 L 103.7 41.7 L 109.7 36.7 L 120.7 45.7 L 115.7 49.7 L 115.7 96.0 L 103.7 102.0 L 103.7 94.0 L 50.5 94.0 L 50.5 97.0 L 38.5 103.0 L 38.5 35.7 Z M 50.5 45.7 L 50.5 90.0 L 103.7 90.0 L 103.7 45.7 Z " />
</g>
</svg>
