<svg xmlns="http://www.w3.org/2000/svg" xmlns:xlink="http://www.w3.org/1999/xlink" version="1.1" baseProfile="full" viewBox="0 0 200 200" width="200" height="200">
<g fill="black">
<path d="M 76.2 18.2 L 78.2 21.2 L 74.58874807357788 21.70684232711792 L 71.1 29.3 L 65.8 40.2 L 60.2 50.8 L 54.3 61.2 L 48.2 71.3 L 47.13981761932373 72.93996963500976 L 53.5 74.0 L 56.5 76.0 L 53.5 77.8 L 53.5 183.0 L 41.5 189.0 L 41.5 81.62537317276 L 35.1 90.7 L 28.2 100.0 L 20.9 109.0 L 13.2 117.5 L 11.7 116.4 L 17.8 106.7 L 23.8 97.0 L 29.6 87.2 L 35.3 77.2 L 40.8 67.1 L 46.1 56.8 L 51.2 46.3 L 56.1 35.6 L 60.7 24.7 L 65.1 13.6 L 65.15829830169677 13.624159622192384 L 65.7 12.3 Z M 171.2 147.6 L 173.2 147.6 L 171.2 172.6 L 174.7 175.0 L 177.2 178.6 L 174.7 182.2 L 171.2 184.6 L 106.3 184.6 L 103.7 184.4 L 101.2 184.0 L 98.8 183.2 L 96.5 182.0 L 94.5 180.3 L 92.9 178.3 L 91.6 176.0 L 90.8 173.6 L 90.4 171.1 L 90.3 168.6 L 90.3 85.58333330154419 L 84.5 90.9 L 75.3 98.1 L 65.3 104.7 L 64.2 103.2 L 72.8 95.1 L 80.8 87.0 L 88.0 78.8 L 94.6 70.4 L 100.4 61.8 L 105.5 53.0 L 108.9222222328186 46.0 L 67.6 46.0 L 67.6 42.0 L 110.7043478012085 42.0 L 113.6 34.8 L 116.6 25.3 L 118.9 15.6 L 118.91361255645752 15.603141403198242 L 119.3 13.8 L 130.6 18.3 L 133.1 20.9 L 129.47797193527222 22.064223289489746 L 127.5 28.7 L 123.6 38.7 L 122.00103092193604 42.0 L 160.4 42.0 L 170.4 32.0 L 182.4 42.0 L 182.4 46.0 L 135.95172414779663 46.0 L 139.5 50.2 L 144.3 55.9 L 149.0 61.4 L 153.8 66.6 L 158.7 71.6 L 163.6 76.3 L 168.7 80.8 L 174.0 85.0 L 179.3 88.9 L 184.8 92.6 L 188.1 94.9 L 177.1 103.3 L 171.6 98.7 L 166.2 93.9 L 161.2 88.8 L 156.3 83.4 L 151.7 77.8 L 147.3 71.9 L 143.2 65.7 L 139.4 59.2 L 136.0 52.4 L 133.38591547012328 46.0 L 120.06288661956788 46.0 L 118.9 48.4 L 113.5 57.7 L 107.4 66.6 L 100.5 75.1 L 92.9 83.2 L 92.26470584869385 83.78235292434692 L 102.3 88.8 L 145.6 88.8 L 151.6 83.8 L 162.6 92.8 L 157.6 96.8 L 157.6 133.7 L 145.6 139.7 L 145.6 127.7 L 102.3 127.7 L 102.3 169.8 L 102.5 170.7 L 102.8 171.6 L 103.2 172.0 L 103.5 172.2 L 104.1 172.4 L 105.0 172.5 L 106.3 172.6 L 165.2 172.6 Z M 102.3 92.8 L 102.3 123.7 L 145.6 123.7 L 145.6 92.8 Z " />
</g>
</svg>
