<svg xmlns="http://www.w3.org/2000/svg" xmlns:xlink="http://www.w3.org/1999/xlink" version="1.1" baseProfile="full" viewBox="0 0 200 200" width="200" height="200">
<g fill="black">
<path d="M 161.8 164.5 L 155.1 151.7 L 149.4 137.4 L 144.8 121.5 L 141.2 104.1 L 138.6 85.1 L 137.81589803695678 74.33166646957397 L 135.9 88.8 L 132.0 108.8 L 127.0 126.9 L 121.0 143.0 L 113.9 157.2 L 105.6 169.4 L 96.3 179.4 L 86.0 187.2 L 84.9 185.7 L 93.6 176.8 L 101.3 166.3 L 108.1 154.1 L 113.9 140.2 L 118.9 124.5 L 122.9 106.9 L 126.0 87.4 L 128.1 66.0 L 129.3 42.7 L 129.5 17.5 L 129.5 15.1 L 141.5 17.5 L 144.5 19.5 L 141.36406993865967 21.3815580368042 L 140.69362773895264 40.52640905380249 L 140.8 42.2 L 143.0 64.0 L 145.8 84.1 L 149.4 102.5 L 153.8 119.0 L 159.0 133.8 L 165.0 146.9 L 171.8 158.1 L 179.2 167.6 L 187.4 175.3 L 189.6 177.2 L 178.7 185.3 L 169.7 175.7 Z M 70.9 19.4 L 73.0 22.3 L 69.14589614868164 23.11139030456543 L 67.5 26.5 L 65.6 30.1 L 63.7 33.6 L 61.6 37.2 L 59.4 40.8 L 57.1 44.4 L 54.6 47.9 L 51.8 51.4 L 50.675 52.9 L 79.9 52.9 L 85.9 47.9 L 96.9 56.9 L 91.9 60.9 L 91.9 157.7 L 79.9 163.7 L 79.9 153.7 L 36.1 153.7 L 36.1 165.7 L 24.1 171.7 L 24.1 46.9 L 36.1 52.9 L 47.92857141494751 52.9 L 49.0 49.9 L 50.3 45.7 L 51.7 41.7 L 53.0 37.7 L 54.2 33.9 L 55.5 30.1 L 56.6 26.3 L 57.6 22.7 L 58.6 19.0 L 59.26432991027832 16.416494846343994 L 59.2 16.4 L 60.0 14.0 Z M 36.1 103.9 L 36.1 149.7 L 79.9 149.7 L 79.9 103.9 Z M 36.1 56.9 L 36.1 99.9 L 79.9 99.9 L 79.9 56.9 Z " />
</g>
</svg>
