<svg xmlns="http://www.w3.org/2000/svg" xmlns:xlink="http://www.w3.org/1999/xlink" version="1.1" baseProfile="full" viewBox="0 0 200 200" width="200" height="200">
<g fill="black">
<path d="M 52.8 169.2 L 49.72654867172241 171.20442476272584 L 53.3 171.8 L 61.4 172.5 L 72.0 172.7 L 164.0 172.7 L 170.0 147.7 L 172.0 147.7 L 170.0 172.7 L 173.6 175.1 L 176.0 178.7 L 173.6 182.3 L 170.0 184.7 L 72.0 184.7 L 60.8 184.5 L 51.8 183.7 L 44.8 182.4 L 39.1 180.0 L 34.9 174.1 L 36.5 167.1 L 40.8 162.7 L 46.9 158.8 L 54.9 154.7 L 65.1 150.2 L 123.47557249069214 126.0 L 30.0 126.0 L 30.0 122.0 L 138.0 122.0 L 144.0 117.0 L 153.63445205688475 124.8827335357666 L 157.0 125.0 L 154.86354427337648 125.88835439682006 L 155.0 126.0 L 150.0 129.0 L 138.0 134.0 L 138.0 132.9003436088562 L 69.7 161.3 L 60.0 165.5 Z M 134.8 112.2 L 117.4 110.9 L 102.0 108.9 L 88.8 106.2 L 77.7 102.9 L 68.7 98.9 L 62.0 94.1 L 57.7 88.5 L 57.58661241531372 88.00595417022706 L 55.4 90.9 L 51.3 95.2 L 46.7 99.1 L 41.4 102.7 L 35.6 106.0 L 29.1 109.0 L 22.0 111.6 L 14.3 113.7 L 13.6 112.1 L 20.4 108.1 L 26.6 104.2 L 32.1 100.4 L 37.0 96.6 L 41.1 92.7 L 44.6 88.8 L 47.3 84.9 L 49.4 81.1 L 51.0 77.2 L 51.66677055358887 74.31066083908081 L 51.6 74.3 L 52.3 71.6 L 63.5 76.2 L 66.0 78.9 L 61.99377918243408 80.11617422103882 L 61.5 81.4 L 59.839962005615234 84.47414445877075 L 61.1 86.1 L 65.6 89.4 L 71.8 92.4 L 80.2 94.9 L 90.7 97.1 L 94.0 97.51574802398682 L 94.0 66.6 L 16.0 66.6 L 16.0 62.6 L 165.8181818008423 62.6 L 174.0 53.6 L 184.0 62.6 L 184.0 66.6 L 106.0 66.6 L 106.0 80.4 L 146.0 80.4 L 156.0 70.4 L 168.0 80.4 L 168.0 84.4 L 106.0 84.4 L 106.0 98.89324321746827 L 118.2 99.8 L 135.3 100.4 L 154.5 100.5 L 175.8 100.0 L 187.4 99.7 L 176.1 113.2 L 154.4 113.0 Z M 55.0 17.2 L 145.0 17.2 L 151.0 12.2 L 162.0 21.2 L 157.0 25.2 L 157.0 52.3 L 145.0 58.3 L 145.0 52.3 L 55.0 52.3 L 43.0 58.3 L 43.0 11.2 Z M 55.0 36.8 L 55.0 48.3 L 145.0 48.3 L 145.0 36.8 Z M 55.0 21.2 L 55.0 32.8 L 145.0 32.8 L 145.0 21.2 Z " />
</g>
</svg>
