<svg xmlns="http://www.w3.org/2000/svg" xmlns:xlink="http://www.w3.org/1999/xlink" version="1.1" baseProfile="full" viewBox="0 0 200 200" width="200" height="200">
<g fill="black">
<path d="M 161.6 175.5 L 155.7 171.8 L 149.5 168.2 L 143.2 164.8 L 142.52153053283692 164.45048542022704 L 136.7 169.8 L 128.3 175.5 L 119.0 179.9 L 108.7 183.2 L 97.7 185.1 L 85.8 185.8 L 85.6 184.0 L 97.0 181.4 L 107.2 178.0 L 116.2 174.0 L 124.2 169.1 L 131.1 163.4 L 134.052681350708 160.20126180648805 L 129.8 158.2 L 122.8 155.0 L 115.6 151.8 L 112.8617220878601 150.59965896606445 L 110.6 154.8 L 107.7 159.9 L 97.4 153.8 L 100.2 149.0 L 105.4 139.0 L 108.0 133.8 L 111.8222222328186 125.2 L 82.0 125.2 L 82.0 121.2 L 113.53928575515747 121.2 L 115.1 117.4 L 117.3 111.6 L 119.4 105.8 L 121.5 99.8 L 122.0 98.3 L 132.9 103.6 L 135.1 106.4 L 131.6880404472351 107.17816619873047 L 130.8 109.8 L 126.43000001907349 121.2 L 166.0 121.2 L 176.0 111.2 L 188.0 121.2 L 188.0 125.2 L 163.14513273239135 125.2 L 160.2 135.6 L 155.9 145.8 L 150.5 155.0 L 148.35236053466798 157.68454933166504 L 153.7 159.9 L 160.4 163.0 L 167.0 166.3 L 173.4 169.8 L 179.6 173.5 L 182.1 177.4 L 181.2 181.9 L 177.3 184.3 L 172.8 183.4 L 167.3 179.4 Z M 43.2 89.9 L 45.8 92.4 L 42.382573223114015 93.72899932861328 L 41.3 98.8 L 39.2 107.6 L 37.0 116.5 L 34.5 125.3 L 31.8 134.1 L 28.9 142.8 L 25.7 151.5 L 22.3 160.2 L 18.5 168.8 L 14.3 177.3 L 12.7 176.6 L 14.9 167.5 L 17.2 158.5 L 21.6 140.7 L 23.6 131.8 L 25.5 123.0 L 27.2 114.2 L 28.7 105.5 L 30.1 96.7 L 31.3 88.0 L 31.353694343566893 88.00857305526733 L 31.7 86.0 Z M 124.79310340881348 125.2 L 123.8 127.6 L 121.4 133.3 L 118.8 138.9 L 116.2 144.3 L 114.34995651245117 147.80186796188354 L 116.8 148.2 L 124.6 149.9 L 132.1 152.0 L 138.93732204437256 154.21750984191894 L 142.1 149.6 L 146.1 141.3 L 149.3 132.1 L 150.85056180953978 125.2 Z M 67.5 136.0 L 66.5 129.7 L 65.4 123.5 L 64.1 117.4 L 62.7 111.3 L 61.1 105.3 L 57.7 93.3 L 56.0 87.2 L 57.6 86.5 L 61.2 91.8 L 64.4 97.3 L 67.3 103.0 L 69.9 108.9 L 72.2 115.0 L 74.4 121.2 L 76.3 127.5 L 78.1 133.9 L 79.6 140.5 L 80.9 147.2 L 79.7 151.6 L 75.8 153.9 L 71.4 152.7 L 69.0 148.8 L 68.4 142.4 Z M 103.0 106.2 L 91.0 112.2 L 91.0 48.1 L 103.0 54.1 L 116.4 54.1 L 116.4 31.6 L 82.5 31.6 L 82.5 27.6 L 165.5 27.6 L 175.5 17.6 L 187.5 27.6 L 187.5 31.6 L 153.7 31.6 L 153.7 54.1 L 167.0 54.1 L 173.0 49.1 L 184.0 58.1 L 179.0 62.1 L 179.0 100.2 L 167.0 106.2 L 167.0 94.2 L 103.0 94.2 Z M 103.0 58.1 L 103.0 90.2 L 116.4 90.2 L 116.4 58.1 Z M 128.4 58.1 L 128.4 90.2 L 141.7 90.2 L 141.7 58.1 Z M 153.7 58.1 L 153.7 90.2 L 167.0 90.2 L 167.0 58.1 Z M 12.4 61.8 L 42.6 61.8 L 42.6 18.9 L 54.6 20.9 L 57.6 22.9 L 54.6 24.7 L 54.6 61.8 L 62.7 61.8 L 72.7 51.8 L 84.7 61.8 L 84.7 65.8 L 12.4 65.8 Z M 128.4 31.6 L 128.4 54.1 L 141.7 54.1 L 141.7 31.6 Z " />
</g>
</svg>
