<svg xmlns="http://www.w3.org/2000/svg" xmlns:xlink="http://www.w3.org/1999/xlink" version="1.1" baseProfile="full" viewBox="0 0 200 200" width="200" height="200">
<g fill="black">
<path d="M 148.1 180.5 L 137.3 175.4 L 127.8 169.6 L 119.5 163.1 L 112.7 156.0 L 107.2 148.3 L 103.2 140.1 L 100.9 131.4 L 100.75512609481811 129.5166386604309 L 99.3 134.0 L 94.1 144.4 L 87.2 153.7 L 78.8 162.0 L 68.9 169.1 L 57.6 175.2 L 44.9 180.3 L 30.7 184.2 L 15.1 187.0 L 14.8 185.2 L 29.7 180.5 L 42.9 175.3 L 54.6 169.4 L 64.7 162.9 L 73.1 155.7 L 80.0 147.8 L 85.4 139.4 L 89.3 130.2 L 91.8 120.3 L 92.68640775680542 112.0 L 61.337931060791014 112.0 L 59.7 113.9 L 54.2 119.5 L 48.2 124.8 L 41.7 129.8 L 34.8 134.4 L 27.4 138.7 L 19.4 142.6 L 18.5 141.1 L 25.3 135.6 L 31.6 130.1 L 37.5 124.7 L 43.0 119.2 L 48.0 113.6 L 52.6 108.0 L 56.6 102.2 L 60.2 96.3 L 63.4 90.3 L 65.70141248703003 85.10051250457764 L 65.7 85.1 L 66.50935249328613 83.21151075363159 L 65.2 83.6 L 56.6 86.2 L 48.3 88.7 L 40.5 90.9 L 33.1 93.0 L 26.2 95.0 L 23.676973724365233 95.69868421554565 L 22.3 99.3 L 19.7 96.8 L 15.1 85.5 L 17.0 85.1 L 23.6 83.9 L 30.7 82.6 L 36.4 81.53599996566773 L 36.4 12.9 L 48.4 14.9 L 51.4 16.9 L 48.4 18.7 L 48.4 40.4 L 75.1 40.4 L 85.1 30.4 L 97.1 40.4 L 97.1 44.4 L 48.4 44.4 L 48.4 79.1619047164917 L 54.5 78.0 L 63.4 76.3 L 72.7 74.5 L 82.5 72.6 L 92.8 70.8 L 103.6 69.1 L 104.0 70.9 L 93.7 74.5 L 83.8 77.8 L 74.3 80.9 L 66.80676927566529 83.1232663154602 L 77.0 89.2 L 78.9 92.3 L 75.09435214996338 92.69368772506714 L 73.4 95.8 L 69.3 102.1 L 64.77666664123535 108.0 L 161.0 108.0 L 161.6 107.5 L 162.2 106.3 L 162.6341675758362 106.63819370269775 L 167.0 103.0 L 178.0 112.0 L 173.0 115.0 L 166.5714285850525 117.67857141494751 L 164.9 118.9 L 161.8 120.9 L 158.2 123.1 L 154.1 125.6 L 149.5 128.3 L 144.4 131.1 L 138.7 134.1 L 132.5 137.3 L 131.4 135.8 L 136.7 131.3 L 141.5 127.0 L 145.9 123.2 L 149.8 119.7 L 153.2 116.6 L 156.1 113.8 L 157.82799997329712 112.0 L 104.65081968307496 112.0 L 103.0 122.6 L 102.6096302986145 123.8027606010437 L 104.9 130.2 L 108.6 137.6 L 113.2 144.3 L 118.8 150.3 L 125.4 155.9 L 133.2 160.9 L 142.2 165.5 L 152.4 169.5 L 163.8 173.1 L 176.5 176.1 L 185.2 178.2 L 173.4 189.0 L 160.2 185.1 Z M 123.8 90.1 L 121.3 89.7 L 118.9 89.0 L 116.7 87.9 L 114.7 86.3 L 113.0 84.3 L 111.8 82.1 L 110.9 79.7 L 110.5 77.3 L 110.3 74.7 L 110.3 12.9 L 122.3 14.9 L 125.3 16.9 L 122.3 18.7 L 122.3 49.14200000762939 L 126.0 46.7 L 131.1 43.5 L 136.0 40.3 L 140.9 37.2 L 145.7 34.1 L 150.4 30.9 L 155.0 27.7 L 159.6 24.6 L 164.0 21.3 L 167.1341609954834 26.170003986358644 L 171.4 30.8 L 171.6 34.3 L 168.0072727203369 32.824415588378905 L 165.6 34.2 L 160.6 36.9 L 155.5 39.6 L 150.3 42.1 L 145.0 44.6 L 139.6 47.0 L 134.1 49.3 L 128.4 51.5 L 122.6 53.5 L 122.3 53.58500003814697 L 122.3 76.0 L 122.4 76.9 L 122.5 77.5 L 122.8 78.1 L 123.0 78.4 L 124.0 78.9 L 125.0 79.1 L 126.3 79.2 L 172.2 79.2 L 177.7 58.2 L 179.7 58.2 L 177.7 79.2 L 181.0 81.4 L 183.2 84.7 L 181.0 88.0 L 177.7 90.2 L 126.3 90.2 Z " />
</g>
</svg>
