<svg xmlns="http://www.w3.org/2000/svg" xmlns:xlink="http://www.w3.org/1999/xlink" version="1.1" baseProfile="full" viewBox="0 0 200 200" width="200" height="200">
<g fill="black">
<path d="M 52.0 112.9 L 51.77666711807251 115.42366104125976 L 54.1 114.7 L 60.5 112.8 L 67.1 111.0 L 73.9 109.4 L 74.6 111.0 L 68.5 114.6 L 62.5 117.8 L 56.5 120.8 L 51.06885557174682 123.42193174362183 L 51.0 124.2 L 49.4 134.9 L 47.2 144.9 L 44.4 154.2 L 41.0 162.8 L 37.1 170.7 L 32.5 177.8 L 27.2 184.1 L 21.4 189.4 L 20.1 188.1 L 24.2 181.7 L 27.9 175.0 L 31.2 167.8 L 34.0 160.1 L 36.3 151.8 L 38.1 143.0 L 39.4 133.4 L 39.81398010253906 128.75422353744506 L 39.5 128.9 L 34.1 131.3 L 28.9 133.6 L 23.8 135.8 L 22.685329914093018 136.2681613922119 L 21.7 140.1 L 18.8 137.9 L 12.9 127.3 L 14.8 126.6 L 19.9 125.1 L 25.2 123.5 L 30.6 121.9 L 36.2 120.2 L 40.42251205444336 118.88956518173218 L 40.6 112.5 L 40.4 101.1 L 40.465934085845944 101.0989010810852 L 40.4 101.0 L 40.4 84.7 L 20.7 84.7 L 20.7 80.7 L 40.4 80.7 L 40.4 35.73090906143189 L 36.82094593048096 36.83716220855713 L 36.6 37.5 L 34.9 42.0 L 33.0 46.5 L 30.9 51.0 L 28.5 55.5 L 26.0 60.1 L 23.2 64.6 L 20.2 69.1 L 16.9 73.6 L 13.1 78.0 L 11.6 77.1 L 13.5 71.8 L 15.5 66.6 L 17.4 61.7 L 19.1 56.8 L 20.8 52.1 L 22.2 47.5 L 23.5 43.0 L 24.7 38.6 L 25.7 34.4 L 26.32477674484253 31.119922351837157 L 26.2 31.1 L 26.9 28.4 L 38.1 33.0 L 40.4 35.5875 L 40.4 13.3 L 52.4 15.3 L 55.4 17.3 L 52.4 19.1 L 52.4 80.7 L 57.2777777671814 80.7 L 63.5 73.7 L 71.5 80.7 L 71.5 84.7 L 52.4 84.7 L 52.4 101.0 L 52.39649124145508 101.00526313781738 Z M 186.1 120.5 L 187.9 123.7 L 184.07200241088867 123.95952529907227 L 181.0 129.2 L 175.5 137.4 L 169.4 145.2 L 162.7 152.7 L 155.5 159.7 L 147.8 166.3 L 139.6 172.4 L 130.8 178.1 L 121.5 183.2 L 111.6 187.7 L 110.7 186.2 L 119.5 180.0 L 127.8 173.7 L 135.6 167.2 L 142.8 160.6 L 149.6 153.7 L 155.8 146.5 L 161.4 139.1 L 166.6 131.4 L 171.2 123.4 L 175.3 115.2 L 175.3401487350464 115.21970262527466 L 175.9 114.1 Z M 68.8 169.9 L 73.0 169.2 L 77.8 168.3 L 83.3 167.2 L 89.4 166.1 L 96.2 164.8 L 103.7 163.4 L 110.70431537628174 162.01643152236937 L 111.5 158.9 L 112.5 154.2 L 113.6 149.9 L 114.7 145.7 L 115.7 141.7 L 116.6 138.0 L 117.5 134.4 L 118.3 131.1 L 119.1 127.9 L 119.55725803375245 125.94032258987427 L 119.4 125.9 L 120.18461542129516 123.80769233703613 L 119.8 124.0 L 119.8 118.0 L 91.0 118.0 L 79.0 124.0 L 79.0 77.0 L 91.0 83.0 L 119.8 83.0 L 125.8 78.0 L 136.8 87.0 L 131.8 91.0 L 131.8 118.0 L 120.55 123.625 L 131.1 128.9 L 133.3 131.7 L 129.2764705657959 132.54705886840821 L 128.2 134.7 L 126.6 137.8 L 125.0 141.2 L 123.1 144.6 L 121.2 148.3 L 119.1 152.1 L 116.9 156.0 L 114.4 160.0 L 113.57783737182618 161.4730414390564 L 120.5 160.2 L 130.0 158.6 L 140.2 157.1 L 140.6 158.8 L 130.9 162.3 L 121.9 165.4 L 113.4 168.2 L 105.5 170.7 L 98.3 173.0 L 91.7 175.1 L 85.8 177.0 L 80.5 178.7 L 75.8 180.2 L 75.69368772506714 180.23455152511596 L 74.4 183.9 L 71.8 181.5 L 66.9 170.4 Z M 89.7 150.1 L 88.7 144.3 L 88.1 141.4 L 87.3 138.6 L 86.4 135.8 L 85.4 132.9 L 84.3 130.0 L 82.8 127.3 L 84.2 126.2 L 86.5 128.4 L 88.9 130.6 L 91.2 133.0 L 93.2 135.6 L 95.1 138.4 L 96.8 141.2 L 98.3 144.3 L 99.7 147.4 L 100.9 150.6 L 101.9 154.0 L 100.8 158.5 L 97.0 160.9 L 92.5 159.8 L 90.1 156.0 L 89.9 153.0 Z M 184.8 73.8 L 186.5 77.0 L 182.68327417373658 77.06580562591553 L 181.3 79.2 L 177.5 84.5 L 173.5 89.6 L 169.2 94.6 L 164.6 99.4 L 159.8 104.1 L 154.8 108.6 L 149.5 112.9 L 143.8 116.9 L 137.8 120.6 L 136.7 119.3 L 141.3 114.1 L 145.8 109.0 L 150.2 104.0 L 154.3 98.9 L 158.2 93.9 L 161.9 88.8 L 165.4 83.7 L 168.6 78.5 L 171.6 73.2 L 173.91974363327026 68.80905666351319 L 173.9 68.8 L 174.9 66.9 Z M 91.0 87.0 L 91.0 114.0 L 119.8 114.0 L 119.8 87.0 Z M 184.1 22.3 L 186.1 25.3 L 182.30972642898558 25.82279634475708 L 181.0 28.4 L 177.5 34.3 L 173.6 40.0 L 169.5 45.6 L 165.1 51.0 L 160.3 56.2 L 155.2 61.2 L 149.8 66.0 L 144.0 70.5 L 137.8 74.6 L 136.7 73.3 L 141.5 67.7 L 146.0 62.2 L 150.4 56.8 L 154.5 51.3 L 158.3 45.9 L 161.9 40.3 L 165.1 34.7 L 168.1 29.0 L 170.8 23.3 L 172.82413883209227 18.40833110809326 L 172.8 18.4 L 173.7 16.2 Z M 76.6 64.0 L 98.9 64.0 L 98.9 42.0 L 73.5 42.0 L 73.5 38.0 L 98.9 38.0 L 98.9 12.0 L 110.9 14.0 L 113.9 16.0 L 110.9 17.8 L 110.9 38.0 L 118.4 38.0 L 128.4 28.0 L 140.4 38.0 L 140.4 42.0 L 110.9 42.0 L 110.9 64.0 L 119.11818180084228 64.0 L 127.3 55.0 L 137.3 64.0 L 137.3 68.0 L 76.6 68.0 Z M 64.3 49.6 L 63.4 46.6 L 61.4 40.6 L 60.2 37.7 L 59.0 34.7 L 57.7 31.7 L 56.1 28.9 L 57.5 27.8 L 59.9 30.0 L 62.5 32.3 L 64.9 34.7 L 67.2 37.3 L 69.3 40.0 L 71.2 42.9 L 73.1 45.9 L 74.8 49.1 L 76.3 52.3 L 77.8 55.7 L 77.2 60.2 L 73.7 63.1 L 69.1 62.5 L 66.2 59.0 L 65.7 55.8 Z " />
</g>
</svg>
