<svg xmlns="http://www.w3.org/2000/svg" xmlns:xlink="http://www.w3.org/1999/xlink" version="1.1" baseProfile="full" viewBox="0 0 200 200" width="200" height="200">
<g fill="black">
<path d="M 154.5 184.4 L 152.4 185.2 L 150.3 185.9 L 148.1 186.5 L 145.9 187.0 L 143.7 187.4 L 141.5 187.7 L 139.2 187.8 L 137.0 187.9 L 137.0 181.9 L 117.0 178.9 L 117.0 175.9 L 137.0 175.9 L 138.7 175.8 L 140.3 175.7 L 142.0 175.5 L 145.2 174.9 L 146.8 174.5 L 148.4 173.9 L 149.9 173.3 L 151.5 172.7 L 153.0 171.9 L 154.1 171.1 L 155.4 169.7 L 156.8 167.5 L 158.1 164.4 L 159.4 160.5 L 160.5 155.8 L 161.4 150.4 L 162.1 144.1 L 162.6 137.2 L 162.89090909957886 131.6 L 94.6 131.6 L 90.2 141.3 L 84.9 150.1 L 78.7 158.0 L 71.6 165.0 L 63.7 171.0 L 54.9 176.1 L 45.4 180.2 L 35.0 183.3 L 23.9 185.4 L 12.1 186.5 L 11.8 184.7 L 23.1 181.7 L 33.4 178.2 L 42.8 174.2 L 51.2 169.5 L 58.7 164.1 L 65.3 158.2 L 71.0 151.6 L 75.9 144.3 L 80.0 136.3 L 81.75373134613037 131.6 L 22.0 131.6 L 22.0 127.6 L 163.0 127.6 L 169.0 122.6 L 180.0 131.6 L 175.0 134.6 L 174.71555557250977 134.71851854324342 L 174.6 137.8 L 174.1 145.3 L 173.3 152.0 L 172.2 158.2 L 170.9 163.7 L 169.3 168.6 L 167.4 173.0 L 165.0 176.8 L 162.1 180.1 L 158.6 182.5 L 156.6 183.5 Z M 188.0 107.4 L 188.0 111.4 L 68.0 111.4 L 68.0 107.4 L 169.8181818008423 107.4 L 178.0 98.4 Z M 14.8 93.1 L 20.3 92.3 L 26.2 91.4 L 32.4 90.4 L 38.9 89.3 L 42.0 88.7529411315918 L 42.0 49.0 L 15.0 49.0 L 15.0 45.0 L 42.0 45.0 L 42.0 14.8 L 54.0 16.8 L 57.0 18.8 L 54.0 20.6 L 54.0 45.0 L 62.0 45.0 L 72.0 35.0 L 84.0 45.0 L 84.0 49.0 L 54.0 49.0 L 54.0 86.57600002288818 L 60.3 85.4 L 68.1 84.1 L 76.2 82.7 L 84.7 81.5 L 85.2 83.2 L 77.2 86.4 L 69.4 89.3 L 54.7 94.2 L 47.7 96.3 L 41.0 98.3 L 34.6 100.2 L 28.5 101.9 L 22.6 103.4 L 21.126479721069337 103.80186920166015 L 19.6 107.4 L 17.1 104.9 L 12.8 93.4 Z M 105.0 20.4 L 157.0 20.4 L 163.0 15.4 L 174.0 24.4 L 169.0 28.4 L 169.0 91.8 L 157.0 97.8 L 157.0 89.8 L 105.0 89.8 L 105.0 92.8 L 93.0 98.8 L 93.0 14.4 Z M 105.0 56.2 L 105.0 85.8 L 157.0 85.8 L 157.0 56.2 Z M 105.0 24.4 L 105.0 52.2 L 157.0 52.2 L 157.0 24.4 Z " />
</g>
</svg>
