<svg xmlns="http://www.w3.org/2000/svg" xmlns:xlink="http://www.w3.org/1999/xlink" version="1.1" baseProfile="full" viewBox="0 0 200 200" width="200" height="200">
<g fill="black">
<path d="M 13.6 94.7 L 13.6 90.7 L 33.7 90.7 L 33.7 44.29166669845581 L 31.5 45.3 L 26.4 47.3 L 21.1 49.2 L 15.6 50.8 L 14.8 49.2 L 19.4 45.8 L 23.9 42.6 L 28.3 39.6 L 32.5 36.6 L 36.4 33.6 L 40.2 30.7 L 43.8 27.8 L 47.2 24.9 L 50.4 22.0 L 53.3 19.1 L 53.33811168670654 19.143900775909422 L 53.5 19.0 L 61.2 28.2 L 61.6 31.8 L 57.897233963012695 30.520862674713136 L 57.5 30.8 L 53.7 33.4 L 49.6 36.0 L 45.4 38.4 L 40.9 40.8 L 37.6 42.45 L 45.7 43.8 L 48.7 45.8 L 45.7 47.6 L 45.7 90.7 L 64.3 90.7 L 64.3 14.7 L 76.3 16.7 L 79.3 18.7 L 76.3 20.5 L 76.3 90.7 L 79.11818180084228 90.7 L 87.3 81.7 L 97.3 90.7 L 97.3 94.7 L 76.3 94.7 L 76.3 182.2 L 64.3 188.2 L 64.3 94.7 L 45.7 94.7 L 45.7 101.0 L 45.1 112.2 L 44.0 123.0 L 42.3 133.2 L 40.1 142.9 L 37.3 152.1 L 34.0 160.7 L 30.1 168.8 L 25.7 176.2 L 20.6 182.9 L 14.8 188.9 L 13.5 187.8 L 17.4 180.8 L 21.0 173.6 L 24.2 166.0 L 26.9 158.1 L 29.2 149.7 L 31.0 140.9 L 32.4 131.7 L 33.3 121.9 L 33.7 111.7 L 33.7 94.7 Z M 94.6 179.4 L 132.0 179.4 L 132.0 157.3 L 108.7 157.3 L 108.7 153.3 L 132.0 153.3 L 132.0 129.8 L 144.0 131.8 L 147.0 133.8 L 144.0 135.6 L 144.0 153.3 L 149.01818180084229 153.3 L 157.2 144.3 L 167.2 153.3 L 167.2 157.3 L 144.0 157.3 L 144.0 179.4 L 159.3 179.4 L 169.3 169.4 L 181.3 179.4 L 181.3 183.4 L 94.6 183.4 Z M 172.5 155.3 L 169.8 151.9 L 167.1 148.3 L 164.5 144.6 L 162.0 140.7 L 159.6 136.6 L 157.3 132.3 L 155.3 127.8 L 153.4 123.1 L 154.3 122.5 L 129.4391891479492 122.5 L 127.5 126.0 L 123.2 133.1 L 118.5 139.8 L 113.5 146.2 L 108.1 152.2 L 102.4 157.9 L 96.3 163.0 L 89.8 167.6 L 88.6 166.3 L 93.7 160.3 L 98.5 154.2 L 103.1 148.1 L 107.4 141.7 L 111.4 135.2 L 115.2 128.4 L 118.06571426391602 122.5 L 90.4 122.5 L 90.4 118.5 L 119.87123289108277 118.5 L 121.8 114.1 L 124.7 106.6 L 127.13333330154418 99.3 L 115.0 99.3 L 115.0 102.3 L 103.0 108.3 L 103.0 49.3 L 115.0 55.3 L 161.0 55.3 L 167.0 50.3 L 178.0 59.3 L 173.0 63.3 L 173.0 101.3 L 161.0 107.3 L 161.0 99.3 L 131.72727270126342 99.3 L 138.6 102.8 L 140.8 105.7 L 137.11000719070435 106.41210384368897 L 135.3 110.8 L 131.64743585586547 118.5 L 166.71818180084227 118.5 L 174.9 109.5 L 184.9 118.5 L 184.9 122.5 L 155.2888889312744 122.5 L 158.4 125.7 L 161.8 129.2 L 171.4 138.8 L 174.5 141.7 L 177.7 144.4 L 180.7 147.0 L 183.8 149.4 L 186.9 151.6 L 189.1 153.5 L 178.3 161.6 L 175.4 158.5 Z M 115.0 78.6 L 115.0 95.3 L 161.0 95.3 L 161.0 78.6 Z M 115.0 59.3 L 115.0 74.6 L 161.0 74.6 L 161.0 59.3 Z M 159.9 15.9 L 162.9 17.9 L 159.9 19.7 L 159.9 31.3 L 165.4 31.3 L 175.4 21.3 L 187.4 31.3 L 187.4 35.3 L 159.9 35.3 L 159.9 48.1 L 147.9 54.1 L 147.9 35.3 L 128.0 35.3 L 128.0 48.1 L 116.0 54.1 L 116.0 35.3 L 88.5 35.3 L 88.5 31.3 L 116.0 31.3 L 116.0 13.9 L 128.0 15.9 L 131.0 17.9 L 128.0 19.7 L 128.0 31.3 L 147.9 31.3 L 147.9 13.9 Z " />
</g>
</svg>
