<svg xmlns="http://www.w3.org/2000/svg" xmlns:xlink="http://www.w3.org/1999/xlink" version="1.1" baseProfile="full" viewBox="0 0 200 200" width="200" height="200">
<g fill="black">
<path d="M 101.0 177.0 L 121.0 177.0 L 122.2 176.9 L 123.1 176.7 L 124.0 176.4 L 124.4 176.0 L 124.7 175.1 L 124.9 174.2 L 125.0 173.0 L 125.0 105.0 L 102.0 105.0 L 95.0 112.0 L 88.56778526306152 105.56778526306152 L 88.3 105.6 L 88.37872343063354 105.37872343063354 L 85.0 102.0 L 91.51116170883179 96.57403192520141 L 108.0807692527771 50.0 L 80.0 50.0 L 80.0 46.0 L 109.50384616851807 46.0 L 121.6 12.0 L 132.3 17.9 L 134.4 20.8 L 130.99627189636232 21.556383991241454 L 122.28060398101806 46.0 L 161.0 46.0 L 171.0 36.0 L 183.0 46.0 L 183.0 50.0 L 120.85435543060302 50.0 L 102.66968641281127 101.0 L 125.0 101.0 L 125.0 67.0 L 137.0 69.0 L 140.0 71.0 L 137.0 72.8 L 137.0 101.0 L 153.0 101.0 L 163.0 91.0 L 175.0 101.0 L 175.0 105.0 L 137.0 105.0 L 137.0 173.0 L 136.8 175.5 L 136.4 178.0 L 135.6 180.4 L 134.3 182.7 L 132.7 184.7 L 130.7 186.3 L 128.4 187.6 L 126.0 188.4 L 123.5 188.8 L 121.0 189.0 L 121.0 183.0 L 101.0 180.0 Z M 109.8 124.7 L 111.5 127.9 L 107.6007628440857 128.03217754364013 L 106.5 129.7 L 103.0 134.7 L 99.3 139.5 L 95.3 144.1 L 91.1 148.7 L 86.5 153.1 L 81.7 157.3 L 76.7 161.4 L 71.3 165.1 L 65.5 168.7 L 64.4 167.2 L 68.8 162.3 L 73.0 157.4 L 77.1 152.7 L 81.0 147.9 L 84.6 143.2 L 88.0 138.4 L 91.2 133.6 L 94.1 128.8 L 96.8 123.9 L 98.74883928298951 119.9211196899414 L 98.7 119.9 L 99.7 118.0 Z M 172.0 153.3 L 169.5 149.3 L 166.8 145.3 L 163.9 141.3 L 160.7 137.2 L 157.3 133.1 L 153.8 129.0 L 150.0 124.7 L 146.2 120.3 L 147.3 118.9 L 152.5 121.8 L 157.3 125.0 L 161.9 128.4 L 166.2 132.0 L 170.2 135.6 L 174.0 139.4 L 177.5 143.2 L 180.8 147.2 L 183.9 151.3 L 186.7 155.4 L 187.2 159.9 L 184.4 163.6 L 179.9 164.1 L 176.3 161.3 L 174.2 157.3 Z M 32.0 42.0 L 58.0 42.0 L 64.0 37.0 L 75.0 46.0 L 70.0 50.0 L 70.0 138.0 L 58.0 144.0 L 58.0 134.0 L 32.0 134.0 L 32.0 146.0 L 20.0 152.0 L 20.0 36.0 Z M 32.0 46.0 L 32.0 130.0 L 58.0 130.0 L 58.0 46.0 Z " />
</g>
</svg>
