<svg xmlns="http://www.w3.org/2000/svg" xmlns:xlink="http://www.w3.org/1999/xlink" version="1.1" baseProfile="full" viewBox="0 0 200 200" width="200" height="200">
<g fill="black">
<path d="M 118.1 106.0 L 121.1 108.0 L 118.1 109.8 L 118.1 124.0 L 117.4 133.4 L 115.9 142.2 L 113.5 150.5 L 110.2 158.2 L 106.1 165.1 L 101.2 171.4 L 95.5 177.0 L 89.1 181.8 L 81.8 185.7 L 73.9 188.8 L 73.2 187.1 L 79.9 182.4 L 85.8 177.5 L 90.9 172.3 L 95.3 166.7 L 98.9 160.8 L 101.7 154.4 L 103.9 147.6 L 105.3 140.2 L 106.1 132.4 L 106.1 104.0 Z M 156.7 106.0 L 159.7 108.0 L 156.7 109.8 L 156.7 181.0 L 144.7 187.0 L 144.7 104.0 Z M 14.4 151.0 L 19.2 149.5 L 24.4 147.8 L 29.8 145.9 L 35.5 143.8 L 39.0 142.4583333015442 L 39.0 72.0 L 15.6 72.0 L 15.6 68.0 L 39.0 68.0 L 39.0 17.0 L 51.0 19.0 L 54.0 21.0 L 51.0 22.8 L 51.0 68.0 L 54.0 68.0 L 64.0 58.0 L 76.0 68.0 L 76.0 72.0 L 51.0 72.0 L 51.0 137.87878789901734 L 54.5 136.5 L 61.4 133.7 L 68.8 131.0 L 76.5 128.1 L 77.3 129.8 L 70.5 134.3 L 63.8 138.5 L 57.3 142.4 L 51.1 145.9 L 45.1 149.2 L 39.3 152.3 L 33.7 155.1 L 28.4 157.7 L 23.4 160.1 L 22.4277286529541 160.52536869049072 L 21.5 164.4 L 18.6 162.2 L 12.5 151.7 Z M 166.4 112.3 L 161.5 108.4 L 156.9 104.1 L 152.6 99.5 L 148.6 94.4 L 144.8 89.0 L 141.4 83.2 L 138.4 76.9 L 136.1651515007019 71.0 L 121.6209524154663 71.0 L 119.2 77.2 L 114.2 87.2 L 108.3 96.5 L 101.4 105.3 L 93.6 113.5 L 84.8 120.9 L 75.0 127.7 L 74.0 126.2 L 82.2 118.1 L 89.6 109.8 L 96.2 101.3 L 101.9 92.4 L 106.7 83.2 L 110.6 73.7 L 111.44545450210572 71.0 L 79.3 71.0 L 79.3 67.0 L 112.69797983169556 67.0 L 113.7 63.8 L 115.9 53.6 L 117.2 42.9 L 117.45988903045654 37.130463409423825 L 110.3 37.7 L 101.4 38.2 L 92.4 38.3 L 83.3 38.1 L 83.1 36.3 L 92.0 34.5 L 100.8 32.9 L 109.4 31.2 L 117.9 29.5 L 126.3 27.7 L 134.6 25.7 L 142.7 23.7 L 150.6 21.5 L 158.5 19.1 L 165.20852975845338 16.92190589904785 L 165.2 16.9 L 165.22122583389282 16.91778383255005 L 166.2 16.6 L 166.64206304550171 18.108214950561525 L 176.3 26.2 L 176.5 29.2 L 172.4083020210266 27.361700916290282 L 169.6 28.2 L 161.4 30.1 L 153.2 31.9 L 144.8 33.5 L 136.3 34.9 L 129.33289670944214 35.80162515640259 L 128.5 44.2 L 126.4 55.7 L 123.3 66.7 L 123.182857131958 67.0 L 162.5 67.0 L 172.5 57.0 L 184.5 67.0 L 184.5 71.0 L 138.8333333015442 71.0 L 142.0 74.8 L 146.3 79.8 L 150.6 84.6 L 154.9 88.9 L 159.2 92.9 L 163.7 96.4 L 168.2 99.6 L 172.9 102.4 L 177.6 104.9 L 182.4 107.0 L 188.3 109.6 L 176.9 118.9 L 171.5 115.8 Z " />
</g>
</svg>
