<svg xmlns="http://www.w3.org/2000/svg" xmlns:xlink="http://www.w3.org/1999/xlink" version="1.1" baseProfile="full" viewBox="0 0 200 200" width="200" height="200">
<g fill="black">
<path d="M 95.4 181.9 L 83.4 187.9 L 83.4 118.3 L 95.4 124.3 L 159.5 124.3 L 165.5 119.3 L 176.5 128.3 L 171.5 132.3 L 171.5 180.9 L 159.5 186.9 L 159.5 178.9 L 95.4 178.9 Z M 95.4 153.6 L 95.4 174.9 L 121.5 174.9 L 121.5 153.6 Z M 133.5 153.6 L 133.5 174.9 L 159.5 174.9 L 159.5 153.6 Z M 165.6 59.1 L 159.5 55.9 L 153.6 52.3 L 148.1 48.4 L 142.9 44.1 L 138.1 39.5 L 133.7 34.6 L 129.7 29.2 L 128.92708005905152 27.84153470993042 L 125.7 31.7 L 120.4 36.9 L 114.6 41.9 L 108.2 46.7 L 101.3 51.2 L 93.8 55.6 L 85.8 59.6 L 77.1 63.4 L 72.84618835449218 64.95515699386597 L 76.5 68.0 L 76.5 72.0 L 51.2 72.0 L 51.2 137.89701490402223 L 54.8 136.5 L 61.8 133.7 L 69.2 131.0 L 76.9 128.1 L 77.7 129.8 L 70.9 134.3 L 64.2 138.5 L 57.7 142.4 L 51.4 145.9 L 45.3 149.2 L 39.5 152.3 L 33.9 155.1 L 28.6 157.7 L 23.5 160.1 L 22.433257389068604 160.55717544555665 L 21.5 164.4 L 18.6 162.2 L 12.6 151.7 L 14.5 151.0 L 19.4 149.5 L 24.5 147.8 L 30.0 145.9 L 35.7 143.8 L 39.2 142.48032789230348 L 39.2 72.0 L 15.6 72.0 L 15.6 68.0 L 39.2 68.0 L 39.2 17.0 L 51.2 19.0 L 54.2 21.0 L 51.2 22.8 L 51.2 68.0 L 54.5 68.0 L 64.5 58.0 L 70.52295083999634 63.019125652313235 L 75.4 60.0 L 83.1 55.0 L 90.3 50.0 L 97.0 45.0 L 103.0 40.0 L 108.4 34.9 L 113.3 29.8 L 117.5 24.7 L 121.1 19.5 L 123.71057195663452 15.205188083648682 L 123.7 15.2 L 124.7 13.5 L 134.5 20.5 L 136.0 23.8 L 132.06842107772826 23.8 L 131.16475944519044 25.026397895812988 L 132.8 26.4 L 137.8 30.3 L 142.8 34.0 L 148.0 37.5 L 153.2 40.6 L 158.7 43.4 L 164.4 46.0 L 170.2 48.2 L 176.3 50.2 L 182.5 51.8 L 190.5 54.1 L 178.9 64.5 L 172.1 62.0 Z M 95.4 128.3 L 95.4 149.6 L 121.5 149.6 L 121.5 128.3 Z M 133.5 128.3 L 133.5 149.6 L 159.5 149.6 L 159.5 128.3 Z M 107.2 94.5 L 108.6 97.8 L 104.54533948898316 97.66018409729004 L 101.9 100.4 L 98.9 103.3 L 95.7 106.1 L 92.2 108.7 L 88.6 111.3 L 84.6 113.8 L 80.4 116.2 L 76.0 118.4 L 71.3 120.5 L 70.3 119.0 L 74.1 115.7 L 77.6 112.3 L 80.9 109.0 L 83.9 105.8 L 86.8 102.7 L 89.3 99.7 L 91.7 96.7 L 93.7 93.7 L 95.5 90.8 L 96.6026593208313 88.80143003463745 L 96.6 88.8 L 96.65555553436279 88.70555553436279 L 97.1 87.9 L 97.12124528884888 87.91388301849365 L 97.6 87.1 Z M 101.1 107.4 L 117.1 107.4 L 118.3 107.3 L 119.3 107.1 L 119.8 106.9 L 120.2 106.8 L 120.4 106.6 L 120.5 106.4 L 120.7 106.1 L 120.9 105.5 L 121.0 104.6 L 121.1 103.4 L 121.1 80.4 L 75.6 80.4 L 75.6 76.4 L 121.1 76.4 L 121.1 60.2 L 100.0 60.2 L 100.0 56.2 L 131.6 56.2 L 141.6 46.2 L 153.6 56.2 L 153.6 60.2 L 133.1 60.2 L 133.1 76.4 L 156.7 76.4 L 166.7 66.4 L 178.7 76.4 L 178.7 80.4 L 133.1 80.4 L 133.1 103.4 L 133.0 105.9 L 132.5 108.4 L 131.7 110.8 L 130.5 113.1 L 128.9 115.1 L 126.8 116.7 L 124.6 118.0 L 122.2 118.8 L 119.7 119.2 L 117.1 119.4 L 117.1 113.4 L 101.1 110.4 Z M 165.8 111.4 L 164.0 109.0 L 161.9 106.5 L 159.6 104.0 L 157.0 101.4 L 154.1 98.8 L 151.0 96.1 L 147.6 93.3 L 143.9 90.7 L 144.7 89.1 L 149.0 90.7 L 153.3 92.2 L 157.2 93.9 L 161.0 95.8 L 164.4 97.8 L 167.7 99.9 L 170.7 102.0 L 173.6 104.3 L 176.1 106.8 L 178.5 109.3 L 179.4 113.8 L 177.0 117.7 L 172.5 118.6 L 168.6 116.1 L 167.4 113.8 Z " />
</g>
</svg>
