<svg xmlns="http://www.w3.org/2000/svg" xmlns:xlink="http://www.w3.org/1999/xlink" version="1.1" baseProfile="full" viewBox="0 0 200 200" width="200" height="200">
<g fill="black">
<path d="M 89.9 25.0 L 113.8 25.0 L 119.3 20.0 L 129.8 29.0 L 124.8 32.5 L 124.8 84.0 L 113.8 89.5 L 113.8 78.0 L 89.9 78.0 L 89.9 183.0 L 77.9 189.0 L 77.9 19.0 Z M 149.0 176.0 L 167.0 176.0 L 168.2 175.9 L 169.1 175.7 L 170.0 175.4 L 170.4 175.0 L 170.7 174.1 L 170.9 173.2 L 171.0 172.0 L 171.0 78.0 L 147.1 78.0 L 147.1 90.0 L 136.1 95.5 L 136.1 19.5 L 147.1 25.0 L 171.0 25.0 L 177.0 20.0 L 188.0 29.0 L 183.0 33.0 L 183.0 172.0 L 182.8 174.5 L 182.4 177.0 L 181.6 179.4 L 180.3 181.7 L 178.7 183.7 L 176.7 185.3 L 174.4 186.6 L 172.0 187.4 L 169.5 187.8 L 167.0 188.0 L 167.0 182.0 L 149.0 179.0 Z M 117.4 105.8 L 144.9 105.8 L 150.9 100.8 L 161.9 109.8 L 156.9 113.8 L 156.9 160.1 L 144.9 166.1 L 144.9 154.1 L 117.4 154.1 L 117.4 166.1 L 105.4 172.1 L 105.4 99.8 Z M 14.0 151.0 L 18.7 149.5 L 23.6 147.8 L 28.9 145.9 L 34.4 143.8 L 37.7 142.51355934143066 L 37.7 72.0 L 15.2 72.0 L 15.2 68.0 L 37.7 68.0 L 37.7 17.0 L 49.7 19.0 L 52.7 21.0 L 49.7 22.8 L 49.7 68.0 L 51.9 68.0 L 61.9 58.0 L 73.9 68.0 L 73.9 72.0 L 49.7 72.0 L 49.7 137.7800000190735 L 52.9 136.5 L 59.6 133.7 L 66.8 131.0 L 74.2 128.2 L 75.1 129.7 L 68.5 134.3 L 62.1 138.5 L 55.8 142.4 L 49.7 145.9 L 43.9 149.2 L 38.3 152.2 L 32.9 155.1 L 27.8 157.7 L 22.9 160.0 L 22.09693670272827 160.37590198516847 L 21.2 164.3 L 18.2 162.2 L 12.1 151.7 Z M 117.4 109.8 L 117.4 150.1 L 144.9 150.1 L 144.9 109.8 Z M 147.1 53.0 L 147.1 74.0 L 171.0 74.0 L 171.0 53.0 Z M 89.9 53.0 L 89.9 74.0 L 113.8 74.0 L 113.8 53.0 Z M 147.1 29.0 L 147.1 49.0 L 171.0 49.0 L 171.0 29.0 Z M 89.9 29.0 L 89.9 49.0 L 113.8 49.0 L 113.8 29.0 Z " />
</g>
</svg>
