<svg xmlns="http://www.w3.org/2000/svg" xmlns:xlink="http://www.w3.org/1999/xlink" version="1.1" baseProfile="full" viewBox="0 0 200 200" width="200" height="200">
<g fill="black">
<path d="M 14.0 176.1 L 94.0 176.1 L 94.0 151.7 L 33.0 151.7 L 33.0 147.7 L 94.0 147.7 L 94.0 126.3 L 106.0 128.3 L 109.0 130.3 L 106.0 132.1 L 106.0 147.7 L 145.0 147.7 L 155.0 137.7 L 167.0 147.7 L 167.0 151.7 L 106.0 151.7 L 106.0 176.1 L 164.0 176.1 L 174.0 166.1 L 186.0 176.1 L 186.0 180.1 L 14.0 180.1 Z M 97.3 22.1 L 169.6 22.1 L 175.6 17.1 L 186.6 26.1 L 181.6 30.1 L 181.6 56.5 L 169.6 62.5 L 169.6 52.5 L 97.3 52.5 L 97.3 66.0 L 96.9 74.1 L 96.0 81.7 L 94.9 89.0 L 93.3 95.9 L 91.4 102.4 L 89.1 108.5 L 86.4 114.1 L 83.3 119.2 L 79.8 123.8 L 75.8 127.8 L 74.4 126.7 L 76.6 121.8 L 78.6 116.8 L 80.4 111.5 L 81.9 106.0 L 83.2 100.2 L 84.2 94.1 L 84.9 87.6 L 85.3 80.8 L 85.5 73.6 L 85.3 66.0 L 85.3 16.1 Z M 94.4 119.5 L 134.1 119.5 L 134.1 82.2 L 102.5 82.2 L 102.5 78.2 L 155.6 78.2 L 165.6 68.2 L 177.6 78.2 L 177.6 82.2 L 146.1 82.2 L 146.1 119.5 L 164.8 119.5 L 174.8 109.5 L 186.8 119.5 L 186.8 123.5 L 94.4 123.5 Z M 15.1 103.1 L 20.3 102.3 L 25.8 101.3 L 31.5 100.2 L 37.6 99.0 L 40.9 98.3296875 L 40.9 55.1 L 15.5 55.1 L 15.5 51.1 L 40.9 51.1 L 40.9 18.6 L 52.9 20.6 L 55.9 22.6 L 52.9 24.4 L 52.9 51.1 L 58.2 51.1 L 68.2 41.1 L 80.2 51.1 L 80.2 55.1 L 52.9 55.1 L 52.9 95.76619720458984 L 57.8 94.8 L 65.1 93.2 L 72.8 91.7 L 80.8 90.3 L 81.4 92.0 L 73.9 95.4 L 66.6 98.4 L 59.6 101.1 L 52.8 103.5 L 46.3 105.8 L 40.0 108.0 L 34.0 109.9 L 28.3 111.7 L 22.9 113.4 L 21.6764705657959 113.7529411315918 L 20.3 117.3 L 17.7 114.9 L 13.2 103.6 Z M 97.3 26.1 L 97.3 48.5 L 169.6 48.5 L 169.6 26.1 Z " />
</g>
</svg>
