<svg xmlns="http://www.w3.org/2000/svg" xmlns:xlink="http://www.w3.org/1999/xlink" version="1.1" baseProfile="full" viewBox="0 0 200 200" width="200" height="200">
<g fill="black">
<path d="M 136.4 40.7 L 138.6 43.5 L 135.17392349243164 44.340358352661134 L 128.01365413665772 65.6 L 160.3 65.6 L 170.3 55.6 L 182.3 65.6 L 182.3 69.6 L 126.6664499282837 69.6 L 111.81352405548095 113.7 L 132.0 113.7 L 132.0 81.5 L 144.0 83.5 L 147.0 85.5 L 144.0 87.3 L 144.0 113.7 L 150.3 113.7 L 160.3 103.7 L 172.3 113.7 L 172.3 117.7 L 144.0 117.7 L 144.0 146.1 L 164.7 146.1 L 174.7 136.1 L 186.7 146.1 L 186.7 150.1 L 144.0 150.1 L 144.0 181.8 L 132.0 187.8 L 132.0 150.1 L 84.2 150.1 L 84.2 146.1 L 132.0 146.1 L 132.0 117.7 L 111.8 117.7 L 103.8 125.7 L 97.55 119.45 L 97.2 119.5 L 97.3008849143982 119.20088491439819 L 93.8 115.7 L 100.31193418502808 110.27338819503784 L 114.03017749786378 69.6 L 88.6 69.6 L 88.6 65.6 L 115.37928991317749 65.6 L 125.7 35.0 Z M 54.0 22.0 L 57.0 24.0 L 54.0 25.8 L 54.0 147.16000003814696 L 55.5 146.8 L 64.0 145.0 L 67.8 144.23999996185302 L 67.8 50.0 L 79.8 52.0 L 82.8 54.0 L 79.8 55.8 L 79.8 163.0 L 67.8 169.0 L 67.8 147.44719104766847 L 65.1 148.6 L 57.1 152.0 L 50.0 154.8 L 43.8 157.3 L 38.5 159.5 L 34.1 161.3 L 30.7 162.9 L 28.2 164.1 L 27.34285717010498 164.557142829895 L 26.863190174102783 165.03680982589722 L 26.9 165.1 L 26.85 165.05 L 26.863190174102783 165.03680982589722 L 26.763703727722167 164.866024684906 L 26.7 164.9 L 26.85 165.05 L 21.9 170.0 L 11.9 160.0 L 17.9 154.0 L 17.9 50.0 L 29.9 52.0 L 32.9 54.0 L 29.9 55.8 L 29.9 152.78108110427857 L 31.2 152.5 L 35.9 151.4 L 41.5 150.1 L 42.0 149.98461542129516 L 42.0 20.0 Z M 89.6 59.2 L 87.5 55.1 L 88.8 50.7 L 89.8 49.9 L 90.9 48.3 L 92.1 46.1 L 93.2 43.3 L 94.3 39.9 L 95.3 36.0 L 96.2 31.5 L 97.1 26.5 L 98.0 21.0 L 98.7 15.0 L 100.5 14.9 L 101.2 21.0 L 101.63157892227173 25.1 L 171.1 25.1 L 177.1 20.1 L 188.1 29.1 L 183.1 32.1 L 180.63684206008912 33.12631578445435 L 180.6 33.2 L 179.3 35.6 L 177.9 38.1 L 176.4 40.7 L 174.8 43.4 L 173.0 46.2 L 171.2 49.1 L 169.1 52.2 L 167.2 55.4 L 165.6 54.7 L 166.7 51.1 L 167.3 47.6 L 168.0 44.2 L 168.7 41.0 L 169.3 38.0 L 169.8 35.1 L 170.3 32.4 L 170.8 29.9 L 170.9 29.1 L 101.98461542129516 29.1 L 102.2 31.9 L 102.3 36.7 L 102.2 41.1 L 101.9 45.2 L 101.4 48.9 L 100.7 52.3 L 99.6 55.4 L 98.1 58.3 L 94.0 60.4 Z " />
</g>
</svg>
