<svg xmlns="http://www.w3.org/2000/svg" xmlns:xlink="http://www.w3.org/1999/xlink" version="1.1" baseProfile="full" viewBox="0 0 200 200" width="200" height="200">
<g fill="black">
<path d="M 49.0 27.0 L 151.0 27.0 L 157.0 22.0 L 168.0 31.0 L 163.0 35.0 L 163.0 68.0 L 151.0 74.0 L 151.0 64.0 L 49.0 64.0 L 49.0 86.0 L 164.0 86.0 L 170.0 81.0 L 181.0 90.0 L 176.0 93.0 L 175.92317543029785 93.03201026916504 L 175.8 101.1 L 175.5 113.3 L 175.0 124.5 L 174.3 134.7 L 173.4 144.0 L 172.3 152.3 L 170.9 159.6 L 169.3 166.0 L 167.4 171.6 L 165.1 176.3 L 163.8 178.4 L 162.3 180.3 L 160.6 182.1 L 158.7 183.6 L 156.7 185.0 L 154.5 186.1 L 152.3 186.9 L 149.9 187.5 L 147.4 187.8 L 145.0 188.0 L 145.0 182.0 L 125.0 179.0 L 125.0 176.0 L 136.22307691574096 176.0 L 132.3 174.2 L 124.7 169.3 L 118.0 163.6 L 112.4 157.1 L 107.7 149.9 L 104.1 141.9 L 101.6 133.3 L 100.62415628433227 127.68889875411988 L 99.3 132.5 L 95.3 142.4 L 90.2 151.2 L 84.1 158.9 L 76.9 165.3 L 68.8 170.4 L 59.8 174.2 L 49.9 176.6 L 49.4 174.9 L 58.3 170.7 L 66.0 165.8 L 72.7 160.3 L 78.3 153.9 L 83.0 146.8 L 86.8 138.7 L 89.7 129.7 L 91.7 119.7 L 92.8 108.7 L 93.0 96.6 L 93.0 94.2 L 105.0 96.6 L 108.0 98.6 L 104.72552165985107 100.56468696594239 L 104.1 109.6 L 103.62279291152954 112.78138046264648 L 103.8 113.9 L 105.8 123.0 L 108.5 131.2 L 109.89873094558716 134.33654823303223 L 110.3 134.0 L 113.2 131.2 L 116.0 128.5 L 118.8 126.0 L 121.5 123.4 L 126.7 118.4 L 129.1 115.9 L 131.4 113.4 L 132.9314606666565 111.72931566238404 L 132.9 111.7 L 133.8 110.8 L 141.7 119.9 L 142.2 123.5 L 138.31779136657715 122.32147235870362 L 135.8 124.0 L 132.7 126.0 L 129.5 127.9 L 126.2 129.8 L 122.8 131.6 L 119.3 133.3 L 115.7 135.0 L 111.9 136.5 L 111.02736530303955 136.86742515563964 L 111.8 138.6 L 115.7 145.0 L 120.2 150.6 L 125.4 155.4 L 131.3 159.5 L 137.9 162.9 L 145.2 165.7 L 152.4 168.2 L 143.26060609817506 176.0 L 145.0 176.0 L 146.4 175.9 L 147.6 175.7 L 149.8 175.1 L 150.7 174.6 L 151.6 174.0 L 152.4 173.3 L 153.2 172.5 L 154.0 171.5 L 154.8 170.3 L 156.3 167.1 L 157.8 162.6 L 159.2 157.1 L 160.4 150.4 L 161.5 142.6 L 162.4 133.7 L 163.1 123.8 L 163.6 112.9 L 163.9 100.9 L 163.98449611663818 90.0 L 49.0 90.0 L 49.0 97.0 L 48.4 110.0 L 47.2 122.1 L 45.4 133.4 L 43.0 143.8 L 40.0 153.2 L 36.4 161.8 L 32.1 169.4 L 27.2 176.0 L 21.6 181.4 L 15.5 185.7 L 14.4 184.2 L 18.9 178.8 L 22.9 172.8 L 26.4 166.2 L 29.4 158.8 L 31.9 150.7 L 33.9 141.7 L 35.5 131.8 L 36.5 121.1 L 37.0 109.5 L 37.0 21.0 Z M 55.7 143.5 L 55.3 139.0 L 58.2 135.4 L 60.2 134.7 L 62.1 133.7 L 63.8 132.4 L 65.4 130.8 L 67.0 128.8 L 68.4 126.4 L 69.6 123.5 L 70.7 120.3 L 71.7 116.6 L 72.0 112.5 L 73.8 112.4 L 74.3 116.6 L 74.9 120.7 L 75.0 124.5 L 74.7 128.2 L 74.0 131.8 L 72.9 135.1 L 71.3 138.3 L 69.2 141.2 L 66.7 143.8 L 63.8 146.1 L 59.2 146.4 Z M 49.0 31.0 L 49.0 60.0 L 151.0 60.0 L 151.0 31.0 Z " />
</g>
</svg>
