<svg xmlns="http://www.w3.org/2000/svg" xmlns:xlink="http://www.w3.org/1999/xlink" version="1.1" baseProfile="full" viewBox="0 0 200 200" width="200" height="200">
<g fill="black">
<path d="M 67.6 178.0 L 122.7 178.0 L 122.7 149.0 L 81.0 149.0 L 81.0 145.0 L 122.7 145.0 L 122.7 118.0 L 134.7 120.0 L 137.7 122.0 L 134.7 123.8 L 134.7 145.0 L 157.8 145.0 L 167.8 135.0 L 179.8 145.0 L 179.8 149.0 L 134.7 149.0 L 134.7 178.0 L 165.5 178.0 L 175.5 168.0 L 187.5 178.0 L 187.5 182.0 L 67.6 182.0 Z M 23.3 161.0 L 12.3 166.5 L 12.3 50.0 L 23.3 52.0 L 26.0 54.0 L 23.3 55.723404216766355 L 23.3 145.0 L 35.0 145.0 L 35.0 20.0 L 46.0 22.0 L 48.7 24.0 L 46.0 25.723404216766358 L 46.0 145.0 L 58.8 145.0 L 58.8 50.0 L 70.8 52.0 L 73.8 54.0 L 70.8 55.8 L 70.8 155.0 L 58.8 161.0 L 58.8 149.0 L 23.3 149.0 Z M 120.1 84.7 L 122.8 87.1 L 119.20105514526367 88.6328839302063 L 118.5 91.7 L 116.1 98.3 L 113.0 104.4 L 109.2 110.1 L 104.7 115.2 L 99.5 119.9 L 93.7 124.0 L 87.2 127.5 L 80.1 130.5 L 72.4 132.8 L 71.7 131.1 L 78.5 127.1 L 84.5 122.9 L 89.8 118.7 L 94.4 114.3 L 98.3 109.7 L 101.5 104.8 L 104.1 99.8 L 106.0 94.5 L 107.4 89.0 L 108.18918914794922 83.27837839126587 L 108.31290321350097 82.0 L 74.3 82.0 L 74.3 78.0 L 122.7 78.0 L 122.7 48.0 L 84.3 48.0 L 84.3 44.0 L 122.7 44.0 L 122.7 13.0 L 134.7 15.0 L 137.7 17.0 L 134.7 18.8 L 134.7 44.0 L 154.4 44.0 L 164.4 34.0 L 176.4 44.0 L 176.4 48.0 L 134.7 48.0 L 134.7 78.0 L 165.5 78.0 L 175.5 68.0 L 187.5 78.0 L 187.5 82.0 L 111.325 82.0 Z M 179.8 92.5 L 181.8 92.5 L 179.8 113.5 L 183.1 115.7 L 185.3 119.0 L 183.1 122.3 L 179.8 124.5 L 156.5 124.5 L 153.9 124.4 L 151.5 124.0 L 149.1 123.2 L 146.9 122.1 L 144.9 120.5 L 143.2 118.6 L 142.0 116.4 L 141.1 114.0 L 140.6 111.5 L 140.5 109.0 L 140.5 82.0 L 152.5 84.0 L 155.5 86.0 L 152.5 87.8 L 152.5 110.2 L 152.6 111.1 L 152.7 111.7 L 152.9 112.1 L 153.0 112.4 L 153.2 112.6 L 153.6 112.9 L 154.2 113.1 L 155.2 113.3 L 156.5 113.5 L 174.3 113.5 Z " />
</g>
</svg>
