<svg xmlns="http://www.w3.org/2000/svg" xmlns:xlink="http://www.w3.org/1999/xlink" version="1.1" baseProfile="full" viewBox="0 0 200 200" width="200" height="200">
<g fill="black">
<path d="M 96.2 80.0 L 165.8 80.0 L 175.8 70.0 L 187.8 80.0 L 187.8 84.0 L 96.2 84.0 L 96.2 111.0 L 95.6 121.2 L 94.5 130.9 L 92.9 140.2 L 90.7 148.8 L 88.0 157.0 L 84.7 164.6 L 80.9 171.6 L 76.5 178.0 L 71.5 183.7 L 65.9 188.6 L 64.6 187.3 L 68.5 181.3 L 72.0 175.1 L 75.1 168.6 L 77.7 161.7 L 79.9 154.4 L 81.7 146.7 L 83.0 138.4 L 83.9 129.8 L 84.3 120.6 L 84.2 111.0 L 84.2 74.0 Z M 23.0 176.0 L 37.0 176.0 L 38.2 175.9 L 39.1 175.7 L 39.7 175.5 L 40.1 175.4 L 40.2 175.2 L 40.4 175.0 L 40.6 174.7 L 40.8 174.1 L 40.9 173.2 L 41.0 172.0 L 41.0 110.95384616851807 L 36.2 112.8 L 29.8 115.1 L 21.082789516448976 118.14410524368286 L 19.9 121.8 L 17.2 119.5 L 12.0 108.4 L 13.9 107.9 L 20.3 106.4 L 26.7 104.8 L 33.2 103.2 L 41.0 101.07272729873657 L 41.0 62.0 L 47.98800001144409 63.16466665267944 L 48.7 61.8 L 51.0 57.2 L 53.3 52.9 L 55.6 48.7 L 57.8 44.7 L 59.8 40.7 L 61.8 36.9 L 63.7 33.2 L 64.71081085205078 31.0 L 14.6 31.0 L 14.6 27.0 L 66.3 27.0 L 66.69230766296387 26.673076915740968 L 67.0 26.0 L 67.29863481521606 26.167804336547853 L 72.3 22.0 L 83.3 31.0 L 78.3 34.0 L 75.11199998855591 35.328333377838135 L 72.8 38.7 L 70.2 42.1 L 67.5 45.7 L 64.6 49.2 L 61.6 52.9 L 58.5 56.5 L 55.1 60.2 L 51.54285717010498 63.75714282989502 L 53.0 64.0 L 56.0 66.0 L 53.0 67.8 L 53.0 97.75588235855102 L 60.0 95.8 L 67.0 93.8 L 74.1 91.9 L 81.4 90.1 L 82.1 91.8 L 75.5 95.5 L 68.9 98.8 L 62.3 102.0 L 55.7 104.9 L 53.0 106.02153844833374 L 53.0 172.0 L 52.8 174.5 L 52.4 177.0 L 51.6 179.4 L 50.4 181.7 L 48.7 183.7 L 46.7 185.3 L 44.4 186.6 L 42.0 187.4 L 39.5 187.8 L 37.0 188.0 L 37.0 182.0 L 23.0 179.0 Z M 186.4 149.3 L 186.6 152.9 L 183.07595911026002 151.52953968048095 L 178.2 154.8 L 169.7 159.9 L 160.7 164.6 L 151.2 169.0 L 141.3 173.0 L 130.9 176.6 L 120.1 179.9 L 108.9 182.7 L 97.1 185.0 L 85.0 186.8 L 84.6 185.1 L 96.2 181.4 L 107.4 177.6 L 118.1 173.6 L 128.3 169.5 L 138.0 165.2 L 147.2 160.6 L 155.9 155.8 L 164.1 150.7 L 171.8 145.4 L 178.30734157562256 140.40806674957275 L 178.3 140.4 L 179.1 139.8 Z M 177.35238094329833 120.65333337783814 L 178.8 122.3 L 178.9 125.8 L 175.41953125 124.38203125 L 171.7 126.7 L 164.6 130.7 L 157.2 134.5 L 149.5 138.0 L 141.6 141.2 L 133.5 144.2 L 125.0 146.9 L 116.3 149.3 L 107.3 151.3 L 98.0 152.8 L 97.6 151.1 L 106.2 147.6 L 114.6 144.2 L 122.8 140.7 L 130.6 137.2 L 138.2 133.5 L 145.4 129.6 L 152.4 125.6 L 159.1 121.5 L 165.5 117.1 L 171.6 112.6 Z M 167.9 97.3 L 168.1 100.9 L 164.54315681457518 99.51678323745728 L 162.6 100.8 L 157.0 104.2 L 151.1 107.3 L 145.1 110.2 L 138.8 112.9 L 132.2 115.4 L 125.4 117.7 L 118.4 119.8 L 111.1 121.5 L 103.5 122.8 L 103.0 121.1 L 109.9 117.9 L 116.5 114.7 L 123.0 111.6 L 129.2 108.5 L 135.1 105.3 L 140.7 102.0 L 146.1 98.6 L 151.2 95.1 L 156.1 91.5 L 159.83007707595826 88.43304767608643 L 159.8 88.4 L 160.7 87.7 Z M 147.6 70.7 L 143.8 68.1 L 139.6 65.4 L 138.3298861503601 64.64333639144897 L 137.8 64.9 L 131.0 67.8 L 123.7 70.8 L 116.0 73.6 L 107.9 76.3 L 99.2 78.8 L 98.5 77.1 L 106.4 72.8 L 113.9 68.7 L 120.9 64.8 L 127.6 61.0 L 129.74754095077515 59.77283372879028 L 124.2 56.9 L 118.2 53.8 L 111.8 50.6 L 105.0 47.1 L 105.5 45.4 L 113.1 47.0 L 120.1 48.8 L 126.7 50.8 L 132.9 52.9 L 138.0055004119873 54.78097381591797 L 139.7 53.7 L 145.0 50.2 L 149.9 46.7 L 154.4 43.2 L 158.16470584869384 40.0 L 83.7 40.0 L 83.7 36.0 L 128.7 36.0 L 128.7 13.0 L 140.7 15.0 L 143.7 17.0 L 140.7 18.8 L 140.7 36.0 L 163.7 36.0 L 173.7 26.0 L 185.7 36.0 L 185.7 40.0 L 158.65368423461913 40.0 L 165.8 49.3 L 166.1 52.9 L 162.4757225036621 51.5161849975586 L 161.0 52.5 L 155.8 55.6 L 150.2 58.7 L 148.82270269393922 59.41160364151001 L 153.3 61.7 L 157.4 64.0 L 161.1 66.4 L 163.2 70.4 L 162.0 74.8 L 157.9 77.0 L 153.5 75.7 L 150.8 73.3 Z " />
</g>
</svg>
