<svg xmlns="http://www.w3.org/2000/svg" xmlns:xlink="http://www.w3.org/1999/xlink" version="1.1" baseProfile="full" viewBox="0 0 200 200" width="200" height="200">
<g fill="black">
<path d="M 75.4 58.9 L 77.0 62.1 L 73.26666669845581 62.1 L 70.4 66.4 L 65.2 73.7 L 59.6 80.8 L 53.8 87.6 L 47.7 94.2 L 46.07142858505249 95.8285714149475 L 53.1 97.0 L 56.1 99.0 L 53.1 100.8 L 53.1 182.0 L 41.1 188.0 L 41.1 100.77313432693481 L 34.7 106.6 L 27.8 112.3 L 20.5 117.7 L 12.9 122.7 L 11.8 121.2 L 18.1 114.8 L 24.2 108.4 L 30.1 101.9 L 35.9 95.3 L 41.4 88.6 L 46.6 81.8 L 51.6 74.8 L 56.4 67.6 L 60.9 60.3 L 64.64079027175903 53.6200174331665 L 64.6 53.6 L 65.6 51.9 Z M 167.7 173.1 L 165.8 168.8 L 164.13248281478883 165.00176639556884 L 159.4 166.4 L 150.5 168.7 L 141.7 170.9 L 132.8 172.9 L 124.0 174.8 L 115.1 176.7 L 97.5 180.3 L 83.87644395828247 182.93182334899902 L 82.3 186.4 L 79.9 183.7 L 76.1 172.2 L 78.0 171.9 L 113.6 167.5 L 122.6 166.5 L 123.5 166.38999996185302 L 123.5 133.0 L 98.3 133.0 L 98.3 145.0 L 86.3 151.0 L 86.3 63.0 L 98.3 69.0 L 123.5 69.0 L 123.5 46.0 L 70.8 46.0 L 70.8 42.0 L 123.5 42.0 L 123.5 13.0 L 135.5 15.0 L 138.5 17.0 L 135.5 18.8 L 135.5 42.0 L 166.1 42.0 L 176.1 32.0 L 188.1 42.0 L 188.1 46.0 L 135.5 46.0 L 135.5 69.0 L 161.3 69.0 L 167.3 64.0 L 178.3 73.0 L 173.3 77.0 L 173.3 133.0 L 161.3 139.0 L 161.3 133.0 L 135.5 133.0 L 135.5 164.9666666984558 L 140.6 164.4 L 149.6 163.5 L 158.7 162.7 L 162.8642105102539 162.4284210205078 L 162.1 160.9 L 160.2 157.4 L 158.3 154.1 L 156.4 151.0 L 154.5 148.0 L 152.5 145.3 L 153.7 143.9 L 156.8 145.6 L 159.9 147.7 L 163.0 150.2 L 166.0 153.1 L 168.8 156.4 L 171.7 160.0 L 174.4 164.0 L 177.1 168.3 L 179.8 172.9 L 182.4 177.8 L 182.4 182.4 L 179.3 185.7 L 174.7 185.7 L 171.4 182.6 L 169.5 177.7 Z M 98.3 103.0 L 98.3 129.0 L 123.5 129.0 L 123.5 103.0 Z M 135.5 103.0 L 135.5 129.0 L 161.3 129.0 L 161.3 103.0 Z M 98.3 73.0 L 98.3 99.0 L 123.5 99.0 L 123.5 73.0 Z M 135.5 73.0 L 135.5 99.0 L 161.3 99.0 L 161.3 73.0 Z M 68.0 20.9 L 69.5 24.2 L 65.71538457870483 24.2 L 63.5 27.4 L 58.8 33.7 L 54.0 39.8 L 49.0 45.6 L 43.9 51.2 L 38.5 56.5 L 33.0 61.5 L 27.3 66.3 L 21.3 70.7 L 15.1 74.6 L 14.0 73.3 L 18.8 67.8 L 23.6 62.4 L 28.4 56.9 L 33.0 51.4 L 37.5 45.6 L 41.8 39.8 L 46.0 33.8 L 50.1 27.6 L 54.0 21.2 L 57.23473052978515 15.517365264892579 L 57.2 15.5 L 58.2 13.8 Z " />
</g>
</svg>
