<svg xmlns="http://www.w3.org/2000/svg" xmlns:xlink="http://www.w3.org/1999/xlink" version="1.1" baseProfile="full" viewBox="0 0 200 200" width="200" height="200">
<g fill="black">
<path d="M 147.0 145.9 L 149.0 145.9 L 147.0 170.9 L 150.6 173.3 L 153.0 176.9 L 150.6 180.5 L 147.0 182.9 L 76.0 182.9 L 73.4 182.8 L 70.9 182.3 L 68.5 181.5 L 66.2 180.3 L 64.2 178.7 L 62.6 176.6 L 61.3 174.4 L 60.5 172.0 L 60.1 169.5 L 60.0 166.9 L 60.0 127.0 L 72.0 129.0 L 75.0 131.0 L 72.0 132.8 L 72.0 168.1 L 72.2 169.1 L 72.4 169.6 L 72.5 170.0 L 72.7 170.2 L 72.9 170.3 L 73.2 170.5 L 73.8 170.7 L 74.7 170.8 L 76.0 170.9 L 141.0 170.9 Z M 15.4 174.7 L 14.7 170.1 L 17.3 166.4 L 20.2 164.7 L 22.8 162.7 L 25.2 160.2 L 27.4 157.2 L 29.5 153.7 L 31.2 149.6 L 32.8 145.0 L 34.1 139.9 L 35.2 134.2 L 36.1 128.0 L 37.9 128.0 L 38.8 134.3 L 39.2 140.4 L 39.0 146.1 L 38.4 151.6 L 37.2 156.6 L 35.6 161.4 L 33.4 165.8 L 30.7 169.8 L 27.4 173.4 L 23.7 176.6 L 19.2 177.3 Z M 170.2 159.5 L 168.6 155.8 L 166.7 152.1 L 164.5 148.5 L 161.9 144.8 L 159.0 141.2 L 155.8 137.6 L 152.2 133.9 L 148.3 130.2 L 149.3 128.7 L 154.3 131.0 L 159.0 133.6 L 163.3 136.6 L 167.3 139.8 L 170.9 143.2 L 174.2 146.9 L 177.2 150.8 L 179.8 154.9 L 182.0 159.2 L 183.9 163.7 L 183.3 168.2 L 179.8 171.2 L 175.3 170.6 L 172.4 167.1 L 171.4 163.3 Z M 108.1 145.2 L 106.2 142.3 L 104.1 139.4 L 101.9 136.6 L 99.4 133.9 L 96.8 131.2 L 93.9 128.6 L 90.8 125.9 L 87.5 123.4 L 88.2 121.8 L 92.3 123.2 L 96.3 124.6 L 100.1 126.4 L 103.8 128.4 L 107.2 130.7 L 110.5 133.2 L 113.6 135.9 L 116.5 138.9 L 119.2 142.0 L 121.7 145.4 L 122.2 149.9 L 119.4 153.6 L 114.9 154.1 L 111.3 151.4 L 109.8 148.2 Z M 25.0 113.8 L 42.0 113.8 L 42.0 30.7 L 25.0 30.7 L 25.0 26.7 L 148.0 26.7 L 158.0 16.7 L 170.0 26.7 L 170.0 30.7 L 54.0 30.7 L 54.0 53.3 L 142.0 53.3 L 148.0 48.3 L 159.0 57.3 L 154.0 61.3 L 154.0 91.0 L 142.0 97.0 L 142.0 87.0 L 54.0 87.0 L 54.0 113.8 L 154.0 113.8 L 164.0 103.8 L 176.0 113.8 L 176.0 117.8 L 25.0 117.8 Z M 54.0 57.3 L 54.0 83.0 L 142.0 83.0 L 142.0 57.3 Z " />
</g>
</svg>
