<svg xmlns="http://www.w3.org/2000/svg" xmlns:xlink="http://www.w3.org/1999/xlink" version="1.1" baseProfile="full" viewBox="0 0 200 200" width="200" height="200">
<g fill="black">
<path d="M 64.8 70.1 L 63.9 67.9 L 62.7 65.6 L 61.0 63.1 L 59.0 60.4 L 56.6 57.5 L 53.8 54.5 L 52.0 52.58000001907349 L 52.0 183.0 L 40.0 189.0 L 40.0 14.0 L 52.0 16.0 L 55.0 18.0 L 52.0 19.8 L 52.0 48.786046504974365 L 52.4 49.0 L 56.5 51.0 L 60.2 53.2 L 63.6 55.4 L 66.6 57.7 L 69.4 60.0 L 71.8 62.4 L 73.9 65.0 L 75.6 67.6 L 77.0 70.5 L 76.4 75.0 L 72.8 77.8 L 68.3 77.2 L 65.5 73.6 L 65.3 72.0 Z M 160.2 183.1 L 158.3 184.5 L 156.2 185.7 L 154.1 186.7 L 151.9 187.5 L 149.6 188.1 L 147.3 188.6 L 144.9 188.9 L 142.5 189.0 L 142.5 183.0 L 122.5 180.0 L 122.5 177.0 L 142.5 177.0 L 144.0 176.9 L 145.5 176.7 L 146.9 176.5 L 148.2 176.1 L 150.6 175.1 L 151.8 174.4 L 152.9 173.6 L 155.1 171.6 L 157.3 168.8 L 159.6 164.6 L 161.7 159.2 L 163.8 152.4 L 165.6 144.5 L 167.1 135.3 L 168.5 124.9 L 169.6 113.4 L 170.4 100.7 L 170.90503597259521 89.0 L 157.01641788482667 89.0 L 153.1 101.8 L 148.1 114.5 L 142.3 126.4 L 135.6 137.7 L 128.0 148.2 L 119.5 158.0 L 110.3 166.9 L 100.1 175.1 L 89.1 182.4 L 77.3 188.7 L 76.3 187.2 L 87.0 179.3 L 96.7 170.9 L 105.7 162.2 L 113.8 153.0 L 121.2 143.2 L 127.6 132.8 L 133.3 121.9 L 138.2 110.4 L 142.3 98.3 L 144.60442476272584 89.0 L 127.9 89.0 L 127.7 89.4 L 123.1 98.2 L 118.2 106.7 L 112.8 114.9 L 107.0 122.8 L 100.8 130.3 L 94.2 137.6 L 87.2 144.5 L 79.7 151.0 L 71.8 157.1 L 63.4 162.7 L 62.3 161.2 L 69.3 154.2 L 76.0 147.1 L 82.4 139.9 L 88.5 132.6 L 94.2 125.1 L 99.4 117.4 L 104.3 109.5 L 108.9 101.4 L 113.0 93.0 L 114.73333330154419 89.0 L 99.8 89.0 L 91.8 97.0 L 81.8 87.0 L 82.6032154083252 86.33065376281738 L 82.3 86.2 L 147.82587413787843 31.0 L 78.0 31.0 L 78.0 27.0 L 153.5 27.0 L 159.5 22.0 L 170.5 31.0 L 165.5 34.0 L 159.7291054725647 36.40453939437866 L 102.28373985290527 85.0 L 171.0 85.0 L 177.0 80.0 L 188.0 89.0 L 183.0 92.0 L 182.78924732208253 92.08781366348266 L 182.4 101.3 L 181.5 114.3 L 180.4 126.3 L 179.0 137.1 L 177.3 146.8 L 175.4 155.5 L 173.1 163.1 L 170.5 169.7 L 167.4 175.3 L 163.8 179.9 L 162.0 181.6 Z M 13.1 97.9 L 11.8 93.5 L 13.9 89.4 L 15.0 88.8 L 16.3 87.4 L 17.8 85.4 L 19.4 82.7 L 20.9 79.4 L 22.4 75.4 L 23.8 70.9 L 25.3 65.8 L 26.8 60.1 L 28.2 53.9 L 30.0 54.0 L 30.1 60.5 L 30.1 66.5 L 29.8 72.0 L 29.3 77.0 L 28.7 81.6 L 27.8 85.7 L 26.7 89.5 L 25.4 92.9 L 23.7 95.9 L 21.6 98.6 L 17.2 99.9 Z " />
</g>
</svg>
