<svg xmlns="http://www.w3.org/2000/svg" xmlns:xlink="http://www.w3.org/1999/xlink" version="1.1" baseProfile="full" viewBox="0 0 200 200" width="200" height="200">
<g fill="black">
<path d="M 25.2 175.0 L 39.3 175.0 L 40.5 174.9 L 41.4 174.7 L 42.3 174.4 L 42.7 174.0 L 43.0 173.1 L 43.2 172.2 L 43.3 171.0 L 43.3 115.3 L 39.3 117.3 L 32.5 120.6 L 25.6 123.9 L 22.4360143661499 125.36735563278198 L 21.7 129.1 L 18.7 127.1 L 12.2 116.8 L 14.1 116.0 L 21.2 113.4 L 28.3 110.7 L 35.3 108.1 L 42.4 105.4 L 43.3 105.05285711288452 L 43.3 57.0 L 14.6 57.0 L 14.6 53.0 L 43.3 53.0 L 43.3 14.0 L 55.3 16.0 L 58.3 18.0 L 55.3 19.8 L 55.3 53.0 L 62.7 53.0 L 72.7 43.0 L 84.7 53.0 L 84.7 57.0 L 55.3 57.0 L 55.3 100.47681159973145 L 56.3 100.1 L 63.3 97.4 L 70.2 94.9 L 77.2 92.4 L 84.3 90.1 L 85.1 91.8 L 78.9 95.8 L 72.5 99.7 L 66.0 103.4 L 59.5 107.0 L 55.3 109.19402980804443 L 55.3 171.0 L 55.1 173.5 L 54.7 176.0 L 53.9 178.4 L 52.6 180.7 L 51.0 182.7 L 49.0 184.3 L 46.7 185.6 L 44.3 186.4 L 41.8 186.8 L 39.3 187.0 L 39.3 181.0 L 25.2 178.0 Z M 140.3 120.0 L 160.3 120.0 L 161.5 119.9 L 162.5 119.7 L 163.0 119.5 L 163.4 119.4 L 163.6 119.2 L 163.7 119.0 L 163.9 118.7 L 164.1 118.1 L 164.2 117.2 L 164.3 116.0 L 164.3 52.13551197052002 L 115.1 69.28583879470825 L 115.1 167.0 L 115.2 168.2 L 115.3 169.1 L 115.5 169.7 L 115.7 170.0 L 115.9 170.2 L 116.0 170.4 L 116.4 170.5 L 117.0 170.7 L 117.9 170.9 L 119.1 171.0 L 175.5 171.0 L 181.5 146.0 L 183.5 146.0 L 181.5 171.0 L 185.1 173.4 L 187.5 177.0 L 185.1 180.6 L 181.5 183.0 L 119.1 183.0 L 116.5 182.8 L 114.1 182.4 L 111.6 181.6 L 109.4 180.3 L 107.4 178.7 L 105.7 176.7 L 104.5 174.4 L 103.7 172.0 L 103.2 169.5 L 103.1 167.0 L 103.1 73.46884527206421 L 79.2 81.8 L 77.9 78.1 L 103.1 69.31568632125854 L 103.1 20.0 L 115.1 22.0 L 118.1 24.0 L 115.1 25.8 L 115.1 65.13267974853515 L 164.3 47.98235292434693 L 164.3 46.0 L 170.3 41.0 L 181.3 50.0 L 176.3 54.0 L 176.3 116.0 L 176.2 118.5 L 175.7 121.0 L 174.9 123.4 L 173.7 125.7 L 172.1 127.7 L 170.0 129.3 L 167.8 130.6 L 165.4 131.4 L 162.9 131.8 L 160.3 132.0 L 160.3 126.0 L 140.3 123.0 Z " />
</g>
</svg>
