<svg xmlns="http://www.w3.org/2000/svg" xmlns:xlink="http://www.w3.org/1999/xlink" version="1.1" baseProfile="full" viewBox="0 0 200 200" width="200" height="200">
<g fill="black">
<path d="M 49.7 16.0 L 52.7 18.0 L 49.7 19.8 L 49.7 183.0 L 37.7 189.0 L 37.7 14.0 Z M 122.6326530456543 164.18571424484253 L 123.6 165.3 L 123.8 168.9 L 120.20062713623047 167.36693382263184 L 118.3 168.5 L 113.0 171.5 L 107.4 174.3 L 101.6 176.9 L 95.6 179.4 L 89.3 181.8 L 82.8 183.9 L 76.1 185.9 L 69.1 187.5 L 61.8 188.8 L 61.2 187.1 L 67.9 183.9 L 74.2 180.8 L 80.4 177.8 L 86.3 174.8 L 92.0 171.8 L 97.4 168.7 L 102.6 165.5 L 107.5 162.3 L 112.1 159.0 L 115.70931339263916 156.2109850883484 L 115.7 156.2 L 115.70944690704346 156.21088190078734 L 116.5 155.6 Z M 170.3 180.3 L 167.0 177.5 L 163.3 174.7 L 159.3 172.0 L 154.9 169.3 L 150.2 166.6 L 145.1 163.8 L 139.7 161.0 L 134.0 158.1 L 134.5 156.4 L 140.9 157.4 L 147.0 158.8 L 152.8 160.5 L 158.2 162.4 L 163.3 164.5 L 168.1 166.8 L 172.6 169.2 L 176.8 171.8 L 180.7 174.6 L 184.3 177.6 L 186.0 181.9 L 184.2 186.1 L 180.0 187.7 L 175.8 186.0 L 173.2 183.2 Z M 136.2 18.0 L 139.2 20.0 L 136.2 21.8 L 136.2 65.0 L 161.6 65.0 L 167.6 60.0 L 178.6 69.0 L 173.6 73.0 L 173.6 149.0 L 161.6 155.0 L 161.6 147.0 L 101.8 147.0 L 101.8 154.0 L 89.8 160.0 L 89.8 59.0 L 101.8 65.0 L 124.2 65.0 L 124.2 16.0 Z M 101.8 121.0 L 101.8 143.0 L 161.6 143.0 L 161.6 121.0 Z M 101.8 95.0 L 101.8 117.0 L 161.6 117.0 L 161.6 95.0 Z M 14.5 101.4 L 12.1 97.5 L 13.0 93.0 L 14.4 91.4 L 15.9 89.3 L 17.4 86.8 L 18.9 83.8 L 20.3 80.3 L 21.8 76.4 L 23.2 72.1 L 24.6 67.4 L 26.1 62.4 L 27.4 56.9 L 29.2 57.0 L 29.3 62.8 L 29.3 68.2 L 29.1 73.2 L 28.7 78.0 L 28.1 82.4 L 27.4 86.5 L 26.6 90.2 L 25.5 93.7 L 24.3 97.0 L 22.8 100.0 L 18.9 102.4 Z M 101.8 91.0 L 161.6 91.0 L 161.6 69.0 L 101.8 69.0 Z M 64.5 78.3 L 63.8 75.6 L 62.9 72.8 L 61.8 69.9 L 60.5 66.9 L 59.1 63.9 L 57.5 60.7 L 55.8 57.4 L 53.7 54.3 L 55.0 53.1 L 57.9 55.6 L 60.9 58.0 L 63.6 60.6 L 66.1 63.2 L 68.4 65.9 L 70.21176471710206 68.20588235855102 L 73.3 64.5 L 77.2 59.9 L 81.1 55.5 L 84.9 51.1 L 88.4 46.7 L 91.9 42.4 L 95.1 38.1 L 98.2 33.8 L 101.1 29.6 L 103.35721683502197 26.133559894561767 L 103.3 26.1 L 104.4 24.6 L 113.7 32.2 L 115.0 35.6 L 111.08770055770874 35.33475933074951 L 110.2 36.4 L 106.6 40.5 L 102.8 44.6 L 98.8 48.6 L 94.6 52.6 L 90.2 56.4 L 85.7 60.2 L 80.9 63.9 L 75.8 67.4 L 71.44075441360474 69.98325662612915 L 72.5 71.6 L 74.2 74.5 L 75.7 77.4 L 77.0 80.5 L 76.4 85.0 L 72.8 87.8 L 68.3 87.2 L 65.5 83.6 L 65.1 81.0 Z M 172.1 52.9 L 170.0 50.0 L 167.6 47.2 L 164.9 44.3 L 161.9 41.5 L 158.7 38.7 L 155.2 35.9 L 151.4 33.0 L 147.3 30.2 L 148.1 28.6 L 152.9 30.1 L 157.6 31.7 L 161.9 33.6 L 166.1 35.7 L 169.9 38.0 L 173.6 40.5 L 177.0 43.1 L 180.1 46.0 L 183.0 49.0 L 185.6 52.2 L 186.3 56.7 L 183.8 60.5 L 179.2 61.2 L 175.5 58.6 L 173.9 55.7 Z " />
</g>
</svg>
