<svg xmlns="http://www.w3.org/2000/svg" xmlns:xlink="http://www.w3.org/1999/xlink" version="1.1" baseProfile="full" viewBox="0 0 200 200" width="200" height="200">
<g fill="black">
<path d="M 15.3 125.9 L 22.7 123.8 L 30.4 121.7 L 38.3 119.5 L 46.6 117.2 L 55.1 114.8 L 57.8 114.06363639831542 L 57.8 66.0 L 33.677922058105466 66.0 L 32.1 70.5 L 29.2 77.9 L 25.9 85.0 L 22.2 91.8 L 18.2 98.3 L 13.8 104.4 L 12.2 103.5 L 14.8 96.6 L 17.4 89.6 L 19.8 82.5 L 22.0 75.3 L 24.0 67.9 L 25.8 60.4 L 27.4 52.6 L 28.7 44.7 L 29.8 36.6 L 30.66666669845581 28.511111068725587 L 30.9 26.1 L 42.6 29.7 L 45.3 32.0 L 41.93289661407471 33.52472610473633 L 41.1 38.3 L 39.3 46.7 L 37.2 54.9 L 35.04303798675537 62.0 L 57.8 62.0 L 57.8 13.0 L 69.8 15.0 L 72.8 17.0 L 69.8 18.8 L 69.8 62.0 L 82.8 62.0 L 92.8 52.0 L 104.8 62.0 L 104.8 66.0 L 69.8 66.0 L 69.8 110.86086959838867 L 73.1 110.0 L 82.5 107.6 L 92.3 105.3 L 102.4 103.1 L 102.9 104.8 L 93.4 108.9 L 84.1 112.7 L 75.1 116.3 L 69.8 118.34772729873657 L 69.8 183.0 L 57.8 189.0 L 57.8 122.86279067993163 L 57.7 122.9 L 49.5 126.0 L 41.4 129.0 L 33.7 131.9 L 26.2 134.7 L 22.90725908279419 135.8890453338623 L 21.9 139.6 L 19.0 137.3 L 13.4 126.6 Z M 186.5 123.5 L 187.6 126.9 L 183.90523014068603 126.39037656784058 L 178.6 132.3 L 170.2 140.7 L 161.5 148.5 L 152.3 155.8 L 142.8 162.6 L 132.9 168.8 L 122.5 174.5 L 111.8 179.6 L 100.6 184.1 L 89.0 187.8 L 88.4 186.1 L 99.1 180.6 L 109.3 174.8 L 119.2 168.8 L 128.7 162.4 L 137.8 155.7 L 146.5 148.6 L 154.8 141.0 L 162.6 133.1 L 170.1 124.7 L 176.5237741470337 116.71616640090943 L 176.5 116.7 L 177.6 115.4 Z M 178.2 74.6 L 179.2 78.0 L 175.5689821243286 77.43656616210937 L 171.8 81.5 L 165.1 88.1 L 158.2 94.4 L 151.0 100.5 L 143.5 106.2 L 135.7 111.6 L 127.6 116.8 L 119.2 121.5 L 110.5 125.9 L 101.5 129.7 L 100.6 128.2 L 108.6 122.6 L 116.4 117.0 L 123.9 111.3 L 131.2 105.5 L 138.2 99.6 L 144.9 93.4 L 151.3 87.1 L 157.5 80.6 L 163.3 73.8 L 168.9 66.9 L 168.94523344039916 66.93745136260986 L 169.4 66.4 Z M 171.9 26.6 L 172.8 30.1 L 169.1746120452881 29.463967037200927 L 166.0 32.8 L 159.8 38.7 L 153.4 44.4 L 146.8 50.0 L 139.9 55.4 L 132.8 60.6 L 125.4 65.5 L 117.8 70.3 L 109.8 74.7 L 101.5 78.7 L 100.6 77.2 L 107.7 71.5 L 114.7 65.9 L 121.5 60.3 L 128.1 54.6 L 134.5 48.9 L 140.6 43.1 L 146.5 37.2 L 152.2 31.1 L 157.6 25.0 L 162.20799503326415 19.505852031707764 L 162.2 19.5 L 163.2 18.3 Z " />
</g>
</svg>
