<svg xmlns="http://www.w3.org/2000/svg" xmlns:xlink="http://www.w3.org/1999/xlink" version="1.1" baseProfile="full" viewBox="0 0 200 200" width="200" height="200">
<g fill="black">
<path d="M 53.4 16.0 L 56.4 18.0 L 53.4 19.8 L 53.4 183.0 L 41.4 189.0 L 41.4 14.0 Z M 166.5 178.8 L 164.7 180.5 L 162.8 181.9 L 160.7 183.2 L 158.5 184.2 L 156.2 185.0 L 153.9 185.5 L 151.5 185.8 L 149.0 186.0 L 149.0 180.0 L 129.0 177.0 L 129.0 174.0 L 149.0 174.0 L 150.4 173.9 L 151.7 173.7 L 152.9 173.4 L 154.0 173.1 L 155.1 172.6 L 156.0 172.0 L 157.0 171.3 L 157.9 170.5 L 158.8 169.5 L 159.6 168.3 L 161.3 165.5 L 162.8 162.2 L 164.2 158.3 L 165.4 153.8 L 166.4 148.9 L 167.1 143.4 L 167.7 137.3 L 168.1 130.8 L 168.16800470352172 125.97166471481323 L 168.1 126.0 L 168.1 118.0 L 133.62945737838746 118.0 L 129.4 130.4 L 123.9 142.2 L 117.1 152.8 L 109.2 162.2 L 100.1 170.4 L 90.0 177.2 L 78.7 182.7 L 66.4 186.8 L 65.8 185.1 L 77.0 179.3 L 87.0 172.7 L 95.8 165.4 L 103.5 157.2 L 110.1 148.1 L 115.6 138.0 L 120.0 126.9 L 122.52166662216186 118.0 L 82.3 118.0 L 82.3 114.0 L 123.55681819915772 114.0 L 125.7 101.7 L 126.90845708847046 88.49993009567261 L 126.9 88.5 L 127.2 85.3 L 139.0 88.4 L 141.8 90.6 L 138.48936166763306 92.25531911849976 L 137.0 103.5 L 134.6 114.0 L 168.1 114.0 L 174.1 109.0 L 185.1 118.0 L 180.1653265953064 120.9608039855957 L 180.2 123.7 L 180.1 131.2 L 179.7 138.2 L 179.1 144.8 L 178.2 150.9 L 177.0 156.6 L 175.6 161.8 L 173.9 166.6 L 171.9 171.0 L 169.6 175.0 L 168.1 177.0 Z M 15.5 101.3 L 13.3 97.3 L 14.4 92.9 L 15.9 91.3 L 17.5 89.2 L 19.1 86.7 L 20.7 83.7 L 22.2 80.2 L 23.7 76.4 L 25.2 72.1 L 26.7 67.4 L 28.3 62.3 L 29.7 56.8 L 31.5 57.0 L 31.5 62.8 L 31.4 68.2 L 31.1 73.3 L 30.6 78.0 L 30.0 82.5 L 29.1 86.6 L 28.1 90.4 L 26.9 94.0 L 25.5 97.2 L 23.9 100.2 L 19.9 102.5 Z M 104.5 22.0 L 163.8 22.0 L 169.8 17.0 L 180.8 26.0 L 175.8 30.0 L 175.8 85.0 L 163.8 91.0 L 163.8 79.0 L 104.5 79.0 L 104.5 91.0 L 92.5 97.0 L 92.5 16.0 Z M 70.6 78.5 L 69.7 75.8 L 68.7 72.9 L 67.5 70.0 L 66.0 67.0 L 64.4 64.0 L 62.6 60.8 L 60.7 57.5 L 58.3 54.3 L 59.6 53.0 L 62.7 55.6 L 65.9 57.9 L 68.8 60.5 L 71.5 63.1 L 74.0 65.8 L 76.2 68.6 L 78.3 71.4 L 80.1 74.3 L 81.8 77.3 L 83.2 80.4 L 82.6 84.9 L 79.1 87.8 L 74.6 87.3 L 71.7 83.8 L 71.2 81.2 Z M 104.5 26.0 L 104.5 75.0 L 163.8 75.0 L 163.8 26.0 Z " />
</g>
</svg>
