<svg xmlns="http://www.w3.org/2000/svg" xmlns:xlink="http://www.w3.org/1999/xlink" version="1.1" baseProfile="full" viewBox="0 0 200 200" width="200" height="200">
<g fill="black">
<path d="M 54.7 176.0 L 64.7 176.0 L 65.9 175.9 L 66.8 175.7 L 67.4 175.5 L 67.8 175.4 L 67.9 175.2 L 68.1 175.0 L 68.3 174.7 L 68.5 174.1 L 68.6 173.2 L 68.7 172.0 L 68.7 142.0 L 40.4 142.0 L 40.4 183.0 L 28.4 189.0 L 28.4 93.7444444656372 L 25.2 98.9 L 19.3 107.0 L 12.9 114.5 L 11.4 113.4 L 16.1 104.9 L 20.5 96.2 L 24.8 87.1 L 28.4 78.73000001907349 L 28.4 72.0 L 30.59393939971924 73.09696969985961 L 32.5 68.1 L 35.9 58.0 L 38.284615421295165 50.0 L 14.2 50.0 L 14.2 46.0 L 39.41100921630859 46.0 L 41.8 36.7 L 44.2 25.5 L 46.21172695159912 14.801270389556885 L 46.2 14.8 L 46.7 11.9 L 58.2 16.1 L 60.7 18.6 L 57.28843250274658 19.840569972991943 L 55.3 28.0 L 52.1 39.5 L 50.03181819915771 46.0 L 72.51818180084229 46.0 L 80.7 37.0 L 90.7 46.0 L 90.7 50.0 L 48.75909090042114 50.0 L 48.6 50.5 L 44.6 61.1 L 40.3 71.3 L 37.75083332061767 76.67541666030884 L 40.4 78.0 L 68.7 78.0 L 74.7 73.0 L 85.7 82.0 L 80.7 86.0 L 80.7 172.0 L 80.6 174.5 L 80.1 177.0 L 79.3 179.4 L 78.1 181.7 L 76.4 183.7 L 74.4 185.3 L 72.2 186.6 L 69.7 187.4 L 67.3 187.8 L 64.7 188.0 L 64.7 182.0 L 54.7 179.0 Z M 182.6 147.0 L 184.6 147.0 L 182.6 172.0 L 186.2 174.4 L 188.6 178.0 L 186.2 181.6 L 182.6 184.0 L 155.8 184.0 L 153.2 183.8 L 150.7 183.4 L 148.3 182.6 L 146.1 181.3 L 144.1 179.7 L 142.4 177.7 L 141.2 175.4 L 140.4 173.0 L 139.9 170.5 L 139.8 168.0 L 139.8 132.0 L 119.94871797561646 132.0 L 128.5 134.9 L 131.1 137.4 L 127.49857206344605 138.7750906944275 L 126.2 143.8 L 123.3 152.0 L 119.7 159.4 L 115.4 166.1 L 110.5 172.0 L 104.9 177.0 L 98.7 181.1 L 91.9 184.4 L 84.6 186.6 L 76.7 187.8 L 76.3 186.1 L 83.3 183.0 L 89.5 179.5 L 95.0 175.7 L 99.9 171.3 L 104.1 166.4 L 107.7 161.0 L 110.8 154.9 L 113.3 148.3 L 115.2 140.9 L 116.6 132.9 L 116.670374584198 132.91182765960693 L 116.82758617401123 132.0 L 91.9 132.0 L 91.9 128.0 L 158.0 128.0 L 168.0 118.0 L 180.0 128.0 L 180.0 132.0 L 151.8 132.0 L 151.8 168.0 L 151.9 169.2 L 152.0 170.1 L 152.2 170.7 L 152.4 171.0 L 152.5 171.2 L 152.7 171.4 L 153.1 171.5 L 153.7 171.7 L 154.6 171.9 L 155.8 172.0 L 176.6 172.0 Z M 40.4 112.0 L 40.4 138.0 L 68.7 138.0 L 68.7 112.0 Z M 89.1 113.0 L 93.1 111.9 L 97.3 110.7 L 101.8 109.4 L 106.5 108.12708330154419 L 106.5 87.0 L 91.1 87.0 L 91.1 83.0 L 106.5 83.0 L 106.5 63.0 L 118.5 65.0 L 121.5 67.0 L 118.5 68.8 L 118.5 83.0 L 120.4777777671814 83.0 L 126.7 76.0 L 134.7 83.0 L 134.7 87.0 L 118.5 87.0 L 118.5 104.69090909957886 L 122.5 103.6 L 128.4 102.0 L 134.7 100.5 L 141.2 99.1 L 141.8 100.8 L 136.0 104.1 L 130.3 107.0 L 124.9 109.7 L 119.6 112.3 L 114.6 114.6 L 109.8 116.8 L 105.3 118.9 L 101.0 120.8 L 97.02566156387329 122.58845224380494 L 96.1 126.4 L 93.2 124.3 L 87.3 113.6 Z M 133.0 110.0 L 150.9 110.0 L 150.9 87.0 L 139.0 87.0 L 139.0 83.0 L 150.9 83.0 L 150.9 63.0 L 162.9 65.0 L 165.9 67.0 L 162.9 68.8 L 162.9 83.0 L 165.7777777671814 83.0 L 172.0 76.0 L 180.0 83.0 L 180.0 87.0 L 162.9 87.0 L 162.9 110.0 L 166.9181818008423 110.0 L 175.1 101.0 L 185.1 110.0 L 185.1 114.0 L 133.0 114.0 Z M 40.4 82.0 L 40.4 108.0 L 68.7 108.0 L 68.7 82.0 Z M 85.1 57.0 L 128.7 57.0 L 128.7 36.0 L 97.1 36.0 L 97.1 32.0 L 128.7 32.0 L 128.7 12.0 L 140.7 14.0 L 143.7 16.0 L 140.7 17.8 L 140.7 32.0 L 153.7 32.0 L 163.7 22.0 L 175.7 32.0 L 175.7 36.0 L 140.7 36.0 L 140.7 57.0 L 171.7777777671814 57.0 L 178.0 50.0 L 186.0 57.0 L 186.0 61.0 L 85.1 61.0 Z " />
</g>
</svg>
