<svg xmlns="http://www.w3.org/2000/svg" xmlns:xlink="http://www.w3.org/1999/xlink" version="1.1" baseProfile="full" viewBox="0 0 200 200" width="200" height="200">
<g fill="black">
<path d="M 19.1 175.0 L 33.1 175.0 L 34.3 174.9 L 35.2 174.7 L 36.1 174.4 L 36.5 174.0 L 36.8 173.1 L 37.0 172.2 L 37.1 171.0 L 37.1 116.42884616851806 L 36.2 117.0 L 30.8 120.3 L 25.5 123.6 L 23.62705421447754 124.70989379882812 L 23.2 128.5 L 20.1 126.8 L 12.7 117.1 L 14.5 116.2 L 20.1 113.5 L 25.7 110.9 L 31.3 108.2 L 36.9 105.6 L 37.1 105.50181818008423 L 37.1 57.0 L 15.7 57.0 L 15.7 53.0 L 37.1 53.0 L 37.1 14.0 L 49.1 16.0 L 52.1 18.0 L 49.1 19.8 L 49.1 53.0 L 52.81818180084228 53.0 L 61.0 44.0 L 71.0 53.0 L 71.0 57.0 L 73.1 57.9 L 76.1 59.0 L 78.9 60.4 L 81.6 62.0 L 84.2 63.8 L 86.8 65.7 L 89.2 67.9 L 91.5 70.2 L 93.6 72.7 L 95.7 75.4 L 96.2 79.9 L 93.4 83.6 L 88.9 84.1 L 85.2 81.3 L 84.2 78.7 L 83.0 76.2 L 80.4 71.4 L 78.9 69.1 L 77.2 66.8 L 75.5 64.6 L 73.6 62.4 L 71.7 60.1 L 69.4 58.2 L 70.11999998092651 57.0 L 49.1 57.0 L 49.1 99.68928575515747 L 53.6 97.6 L 59.1 95.0 L 64.8 92.5 L 70.5 90.2 L 71.5 91.7 L 66.7 95.8 L 61.9 99.6 L 56.9 103.3 L 51.8 106.8 L 49.1 108.61730766296387 L 49.1 171.0 L 48.9 173.5 L 48.5 176.0 L 47.7 178.4 L 46.4 180.7 L 44.8 182.7 L 42.8 184.3 L 40.5 185.6 L 38.1 186.4 L 35.6 186.8 L 33.1 187.0 L 33.1 181.0 L 19.1 178.0 Z M 146.5 183.7 L 134.7 182.6 L 125.0 180.7 L 117.0 177.9 L 110.5 174.3 L 105.5 169.9 L 101.7 164.9 L 98.8 159.4 L 97.79166669845581 156.6041666984558 L 96.68000001907349 157.16000003814696 L 96.2 157.8 L 93.9 161.0 L 91.6 164.1 L 89.2 167.1 L 86.8 170.0 L 84.3 172.8 L 81.9 175.5 L 79.4 178.1 L 77.54615383148193 179.95384616851806 L 77.9 184.2 L 74.4 183.1 L 65.5 174.8 L 67.0 173.6 L 69.8 171.8 L 72.7 170.0 L 75.6 168.1 L 78.5 166.1 L 81.5 164.1 L 84.6 162.0 L 87.6 159.9 L 89.0 158.98125 L 89.0 109.0 L 69.0 109.0 L 69.0 105.0 L 89.0 105.0 L 95.0 100.0 L 106.0 109.0 L 101.0 113.0 L 101.0 155.0 L 100.67058820724488 155.16470584869384 L 102.4 157.1 L 106.3 161.2 L 110.3 164.5 L 114.8 167.1 L 120.3 169.2 L 127.1 170.7 L 135.9 171.6 L 146.8 171.9 L 160.2 171.5 L 176.5 170.4 L 187.5 169.6 L 177.4 183.5 L 160.6 184.0 Z M 175.4 21.1 L 177.3 24.2 L 172.8111701965332 24.664361667633056 L 171.5 26.5 L 169.9 28.7 L 168.2 31.3 L 166.2 34.1 L 164.1 37.1 L 161.8 40.4 L 159.2 43.9 L 158.21538457870483 45.5 L 164.8 45.5 L 174.8 35.5 L 186.8 45.5 L 186.8 49.5 L 153.15 49.5 L 152.9 49.9 L 151.6 51.9 L 148.6 56.1 L 146.9 58.2 L 145.2 60.5 L 143.4 62.8 L 141.4 65.1 L 139.4 67.5 L 137.1 69.9 L 136.9518518447876 70.1 L 167.7 70.1 L 173.7 65.1 L 184.7 74.1 L 179.7 78.1 L 179.7 155.5 L 167.7 161.5 L 167.7 151.5 L 127.3 151.5 L 127.3 158.5 L 115.3 164.5 L 115.3 64.1 L 127.3 70.1 L 134.25 70.1 L 134.9 68.6 L 135.8 65.5 L 136.8 62.5 L 137.7 59.7 L 138.6 57.0 L 139.4 54.3 L 140.1 51.8 L 140.7708333015442 49.5 L 108.2 49.5 L 108.2 45.5 L 155.78181819915773 45.5 L 156.8 42.7 L 158.0 38.6 L 159.1 34.7 L 160.2 31.2 L 161.2 27.9 L 162.1 25.0 L 162.9 22.3 L 163.6 20.0 L 164.1 17.9 L 164.28507738113404 17.067151927947997 L 164.1 17.0 L 164.475 16.2125 L 164.5 16.1 L 164.5234492301941 16.110756587982177 L 165.1 14.9 Z M 127.3 124.3 L 127.3 147.5 L 167.7 147.5 L 167.7 124.3 Z M 127.3 97.9 L 127.3 120.3 L 167.7 120.3 L 167.7 97.9 Z M 127.3 74.1 L 127.3 93.9 L 167.7 93.9 L 167.7 74.1 Z M 91.0 41.1 L 89.7 38.7 L 88.3 36.2 L 86.8 33.8 L 85.2 31.4 L 83.4 29.1 L 79.6 24.3 L 77.3 22.2 L 78.3 20.7 L 81.1 22.2 L 84.1 23.4 L 87.0 25.0 L 89.7 26.7 L 92.3 28.6 L 94.8 30.6 L 97.2 32.8 L 99.5 35.2 L 101.7 37.7 L 103.7 40.4 L 104.2 44.9 L 101.4 48.6 L 96.9 49.1 L 93.2 46.3 L 92.2 43.7 Z M 128.5 35.1 L 128.2 33.1 L 127.8 31.1 L 127.3 28.9 L 126.5 26.7 L 125.7 24.4 L 124.7 22.1 L 123.6 19.6 L 121.9 17.3 L 123.2 16.1 L 125.4 18.0 L 127.7 19.7 L 129.9 21.5 L 131.8 23.3 L 133.7 25.3 L 135.3 27.4 L 136.8 29.6 L 138.2 31.8 L 139.3 34.1 L 140.3 36.6 L 139.4 41.0 L 135.6 43.6 L 131.1 42.6 L 128.5 38.8 L 128.6 37.0 Z " />
</g>
</svg>
