<svg xmlns="http://www.w3.org/2000/svg" xmlns:xlink="http://www.w3.org/1999/xlink" version="1.1" baseProfile="full" viewBox="0 0 200 200" width="200" height="200">
<g fill="black">
<path d="M 122.0 136.6 L 120.8 134.1 L 119.3 131.3 L 117.4 128.3 L 115.1 125.1 L 112.5 121.7 L 109.4 118.1 L 106.1 114.2 L 103.45064401626587 111.48092412948608 L 100.6 114.2 L 93.6 120.5 L 86.1 126.9 L 78.0 133.2 L 69.3 139.6 L 68.1 138.3 L 75.5 130.4 L 82.4 122.9 L 89.0 115.8 L 95.2 108.9 L 100.8 102.3 L 106.0 95.9 L 110.7 89.7 L 114.9 83.8 L 118.5 78.1 L 121.21995735168457 73.51007194519043 L 121.2 73.5 L 122.2 71.8 L 131.9 78.9 L 133.4 82.2 L 129.54285717010498 82.2 L 127.9 84.5 L 123.4 90.2 L 118.5 96.0 L 169.7 96.0 L 170.05096778869628 95.70752687454224 L 170.1 95.6 L 170.1530466079712 95.62246112823486 L 175.7 91.0 L 186.7 100.0 L 181.7 103.0 L 179.2750599861145 104.01039171218872 L 174.3 113.6 L 166.3 126.0 L 157.1 137.3 L 146.8 147.6 L 135.4 156.8 L 122.9 165.0 L 109.3 172.1 L 94.6 178.2 L 78.8 183.1 L 62.0 186.8 L 61.6 185.1 L 77.7 179.5 L 92.6 173.2 L 106.3 166.3 L 118.8 158.6 L 130.2 150.1 L 140.4 140.8 L 149.5 130.7 L 157.5 119.9 L 164.4 108.1 L 168.09359998703002 100.0 L 114.83333330154419 100.0 L 113.0 102.0 L 107.1 108.0 L 105.07374448776245 109.93273601531982 L 108.1 111.8 L 112.5 114.6 L 116.5 117.4 L 120.2 120.2 L 123.4 123.0 L 126.3 125.8 L 128.9 128.6 L 131.1 131.4 L 133.0 134.3 L 134.5 137.3 L 134.0 141.9 L 130.5 144.8 L 126.0 144.3 L 123.0 140.8 L 122.7 138.9 Z M 37.7 186.9 L 33.7 184.8 L 32.2 180.5 L 32.8 173.5 L 32.8 167.1 L 32.3 161.3 L 31.3 156.1 L 29.9 151.4 L 28.472405338287352 148.47343101501465 L 28.2 148.4 L 28.3056999206543 148.13168487548828 L 27.9 147.3 L 25.3 143.5 L 22.2 140.1 L 18.4 137.0 L 13.8 134.1 L 14.4 132.4 L 20.0 133.6 L 25.3 135.7 L 29.9 138.9 L 31.558267974853514 140.47737684249878 L 34.0 135.5 L 37.1 129.1 L 45.3 112.7 L 50.3 102.9 L 56.1 91.9 L 62.6 79.8 L 69.9 66.6 L 71.6 67.3 L 66.1 81.4 L 61.0 94.1 L 56.3 105.6 L 52.2 115.9 L 48.6 124.9 L 45.6 132.8 L 43.2 139.4 L 41.4 144.7 L 40.3 148.8 L 39.7 151.5 L 39.33542242050171 151.4017225265503 L 40.2 153.1 L 42.2 159.3 L 43.5 166.1 L 44.2 173.5 L 44.2 181.4 L 42.0 185.5 Z M 32.6 83.4 L 31.2 81.4 L 29.5 79.4 L 27.5 77.3 L 25.1 75.3 L 22.4 73.2 L 19.4 71.1 L 16.0 68.9 L 12.2 67.1 L 12.8 65.4 L 17.0 66.4 L 21.0 67.2 L 24.8 68.2 L 28.4 69.5 L 31.8 70.9 L 34.9 72.6 L 37.7 74.4 L 40.4 76.5 L 42.8 78.8 L 44.9 81.4 L 45.4 85.9 L 42.6 89.6 L 38.1 90.1 L 34.5 87.3 L 33.7 85.4 Z M 83.6 77.8 L 73.6 67.8 L 79.6 61.8 L 79.6 28.6 L 91.6 30.6 L 94.6 32.6 L 91.6 34.4 L 91.6 65.8 L 126.0 65.8 L 126.0 14.9 L 138.0 16.9 L 141.0 18.9 L 138.0 20.7 L 138.0 65.8 L 171.5 65.8 L 171.5 28.6 L 183.5 30.6 L 186.5 32.6 L 183.5 34.4 L 183.5 75.8 L 171.5 81.8 L 171.5 69.8 L 91.6 69.8 Z M 46.8 37.5 L 45.3 35.5 L 43.6 33.4 L 41.6 31.3 L 39.3 29.2 L 36.8 27.2 L 34.0 25.1 L 30.9 22.9 L 27.4 21.1 L 28.0 19.4 L 31.9 20.4 L 35.7 21.2 L 39.3 22.3 L 42.8 23.5 L 46.0 25.0 L 49.0 26.6 L 51.8 28.5 L 54.4 30.5 L 56.8 32.8 L 59.0 35.2 L 59.7 39.7 L 57.1 43.5 L 52.6 44.2 L 48.9 41.6 L 47.9 39.6 Z " />
</g>
</svg>
