<svg xmlns="http://www.w3.org/2000/svg" xmlns:xlink="http://www.w3.org/1999/xlink" version="1.1" baseProfile="full" viewBox="0 0 200 200" width="200" height="200">
<g fill="black">
<path d="M 158.1 180.9 L 149.8 175.9 L 142.2 170.1 L 135.2 163.6 L 129.54676475524903 156.85259017944335 L 125.8 162.9 L 118.8 170.7 L 110.8 177.3 L 101.6 182.5 L 91.4 186.4 L 80.2 188.8 L 79.8 187.1 L 90.1 182.8 L 99.0 177.8 L 106.8 172.1 L 113.3 165.5 L 118.8 158.0 L 123.2 149.7 L 123.67251052856446 148.35406093597413 L 123.5 148.1 L 118.7 139.2 L 114.8 129.6 L 111.7 119.2 L 113.4 118.6 L 118.5 127.8 L 123.8 136.3 L 126.55943098068238 140.04494199752807 L 128.9 130.0 L 130.1 118.5 L 130.4 106.0 L 130.4 102.2 L 109.7 102.2 L 97.7 108.2 L 97.7 45.7 L 109.7 51.7 L 130.4 51.7 L 130.4 13.0 L 142.4 15.0 L 145.4 17.0 L 142.4 18.8 L 142.4 51.7 L 163.1 51.7 L 169.1 46.7 L 180.1 55.7 L 175.1 59.7 L 175.1 108.2 L 163.1 114.2 L 163.1 102.2 L 142.4 102.2 L 142.4 106.0 L 141.5 119.5 L 139.4 132.0 L 136.1 143.4 L 133.6790249824524 148.8208787918091 L 135.4 150.8 L 141.7 156.8 L 148.5 162.1 L 155.6 166.5 L 163.2 170.3 L 171.3 173.3 L 179.9 175.6 L 188.3 177.7 L 176.6 188.3 L 167.0 185.0 Z M 31.3 176.0 L 45.3 176.0 L 46.6 175.9 L 47.5 175.7 L 48.4 175.4 L 48.6 175.2 L 48.7 175.0 L 48.9 174.7 L 49.1 174.1 L 49.3 173.2 L 49.3 69.21999998092652 L 48.0 70.0 L 47.17437324523926 70.34401111602783 L 45.9 78.5 L 43.6 90.8 L 41.0 102.6 L 38.1 113.9 L 34.8 124.6 L 31.3 134.8 L 27.3 144.4 L 23.0 153.4 L 18.3 161.7 L 13.1 169.4 L 11.6 168.5 L 14.9 160.1 L 18.1 151.2 L 21.2 142.0 L 24.0 132.4 L 26.7 122.3 L 29.1 111.7 L 31.2 100.6 L 33.1 89.0 L 34.7 76.9 L 35.71338586807251 67.0 L 17.1 67.0 L 17.1 63.0 L 36.0 63.0 L 42.0 58.0 L 49.3 63.97272729873657 L 49.3 12.0 L 61.3 14.0 L 64.3 16.0 L 61.3 17.8 L 61.3 89.54666662216187 L 62.7 90.9 L 67.99603576660157 96.58120203018188 L 69.3 91.8 L 71.6 83.7 L 73.8 76.4 L 75.8 69.8 L 77.6 63.9 L 79.1 58.7 L 80.4 54.2 L 81.5 50.4 L 82.2 47.3 L 82.54096384048462 45.936144542694095 L 82.4 45.9 L 83.3 43.5 L 94.1 48.9 L 96.3 51.7 L 92.30651731491089 52.54073324203491 L 91.5 54.1 L 89.8 57.7 L 87.8 62.0 L 85.5 67.0 L 82.9 72.5 L 79.9 78.8 L 76.6 85.7 L 72.8 93.2 L 69.88273611068726 98.82615165710449 L 73.1 102.7 L 77.6 108.7 L 81.7 114.6 L 85.3 120.4 L 88.6 126.3 L 91.4 132.1 L 93.8 137.8 L 95.7 143.6 L 95.0 148.1 L 91.4 150.9 L 86.9 150.1 L 84.1 146.5 L 82.9 141.3 L 81.4 135.9 L 79.4 130.4 L 77.1 124.7 L 74.3 118.8 L 71.2 112.7 L 67.7 106.4 L 63.8 100.0 L 61.3 95.91463413238526 L 61.3 172.0 L 61.2 174.5 L 60.8 177.0 L 60.0 179.4 L 58.7 181.7 L 57.1 183.7 L 55.1 185.3 L 52.8 186.6 L 50.4 187.4 L 47.9 187.8 L 45.3 188.0 L 45.3 182.0 L 31.3 179.0 Z M 109.7 55.7 L 109.7 98.2 L 130.4 98.2 L 130.4 55.7 Z M 142.4 55.7 L 142.4 98.2 L 163.1 98.2 L 163.1 55.7 Z " />
</g>
</svg>
