<svg xmlns="http://www.w3.org/2000/svg" xmlns:xlink="http://www.w3.org/1999/xlink" version="1.1" baseProfile="full" viewBox="0 0 200 200" width="200" height="200">
<g fill="black">
<path d="M 48.7 93.1 L 48.2 90.9 L 47.5 88.5 L 46.7 86.1 L 45.7 83.7 L 44.6 81.1 L 44.6 183.0 L 32.6 189.0 L 32.6 105.36666669845582 L 31.7 108.3 L 28.8 116.9 L 25.6 125.2 L 22.1 133.2 L 18.3 141.0 L 14.0 148.3 L 12.4 147.6 L 14.8 139.5 L 17.1 131.4 L 19.4 123.1 L 21.6 114.7 L 23.6 106.1 L 25.4 97.3 L 27.0 88.3 L 28.4 79.2 L 29.7 69.8 L 30.395454502105714 63.0 L 13.2 63.0 L 13.2 59.0 L 32.6 59.0 L 32.6 14.0 L 44.6 16.0 L 47.6 18.0 L 44.6 19.8 L 44.6 59.0 L 47.8777777671814 59.0 L 54.1 52.0 L 62.1 59.0 L 62.1 63.0 L 44.6 63.0 L 44.6 74.72307691574096 L 46.3 75.9 L 48.7 77.9 L 51.0 80.0 L 53.1 82.2 L 55.0 84.5 L 56.7 86.9 L 58.2 89.3 L 59.6 91.9 L 60.8 94.6 L 60.1 99.1 L 56.5 101.9 L 52.0 101.1 L 49.2 97.5 L 49.0 95.4 Z M 178.6 178.5 L 177.3 180.6 L 175.7 182.5 L 173.8 184.1 L 171.7 185.5 L 169.4 186.5 L 167.0 187.2 L 164.6 187.6 L 162.0 187.8 L 162.0 181.8 L 142.0 178.8 L 142.0 175.8 L 162.0 175.8 L 163.3 175.7 L 164.4 175.5 L 165.3 175.3 L 166.0 175.0 L 166.6 174.6 L 167.1 174.1 L 167.6 173.5 L 168.1 172.8 L 168.5 171.8 L 168.9 170.5 L 169.5 168.1 L 170.1 164.7 L 170.6 160.5 L 171.1 155.5 L 171.6 149.7 L 172.0 143.1 L 172.3 135.7 L 172.6 127.6 L 172.8 118.6 L 172.95625 111.1 L 157.07508420944214 111.1 L 156.5 123.3 L 144.2 128.7 L 147.35940589904786 62.352475261688234 L 143.3 65.6 L 143.3 173.6 L 131.3 179.6 L 131.3 167.6 L 113.8 167.6 L 113.8 179.6 L 103.8 184.6 L 103.8 111.93999996185303 L 100.2 114.1 L 100.09708404541016 114.14288167953491 L 100.0 118.9 L 99.8 127.9 L 99.5 136.2 L 99.2 143.7 L 98.9 150.4 L 98.4 156.4 L 98.0 161.7 L 97.5 166.3 L 96.9 170.2 L 96.2 173.5 L 95.4 176.0 L 94.4 178.3 L 93.1 180.4 L 91.6 182.4 L 89.7 184.1 L 87.6 185.5 L 85.4 186.5 L 83.0 187.2 L 80.5 187.6 L 77.9 187.8 L 77.9 181.8 L 65.9 178.8 L 65.9 175.8 L 77.9 175.8 L 79.2 175.7 L 80.3 175.5 L 81.1 175.3 L 81.8 175.0 L 82.8 174.2 L 83.3 173.6 L 83.7 172.8 L 84.1 171.9 L 84.5 170.6 L 85.0 168.1 L 85.6 164.8 L 86.0 160.5 L 86.5 155.5 L 86.9 149.7 L 87.2 143.1 L 87.5 135.7 L 87.8 127.6 L 88.0 118.6 L 88.15625 111.1 L 74.37508420944214 111.1 L 73.8 123.3 L 61.5 128.7 L 64.9 57.3 L 76.06818180084228 63.6 L 87.8 63.6 L 87.8 25.2 L 67.8 25.2 L 67.8 21.2 L 87.8 21.2 L 92.8 16.2 L 102.8 25.2 L 127.41818180084229 25.2 L 135.6 16.2 L 145.6 25.2 L 145.6 29.2 L 128.31111106872558 29.2 L 127.8 31.5 L 126.9 35.1 L 126.0 38.5 L 125.1 41.8 L 124.0 45.1 L 123.0 48.2 L 121.8 51.3 L 120.5 54.2 L 119.1 57.0 L 118.86428575515747 57.6 L 131.3 57.6 L 137.3 52.6 L 147.42916669845582 60.8875 L 147.6 57.3 L 158.76818180084229 63.6 L 171.6 63.6 L 171.6 25.2 L 149.8 25.2 L 149.8 21.2 L 171.6 21.2 L 177.6 16.2 L 188.6 25.2 L 183.6 29.2 L 183.6 73.6 L 171.6 79.6 L 171.6 67.6 L 159.1255891799927 67.6 L 157.26363639831544 107.1 L 173.0 107.1 L 179.0 102.1 L 190.0 111.1 L 185.0 114.1 L 184.89708404541017 114.14288167953491 L 184.8 118.9 L 184.6 127.9 L 184.3 136.2 L 183.9 143.7 L 183.5 150.5 L 183.1 156.5 L 182.6 161.8 L 182.0 166.5 L 181.3 170.4 L 180.5 173.8 L 179.7 176.2 Z M 113.8 113.1 L 113.8 163.6 L 131.3 163.6 L 131.3 113.1 Z M 97.8 28.2 L 97.8 73.6 L 87.8 78.6 L 87.8 67.6 L 76.42558917999267 67.6 L 74.56363639831542 107.1 L 88.2 107.1 L 94.2 102.1 L 103.8 109.95454549789429 L 103.8 52.6 L 113.8 57.6 L 116.31724138259888 57.6 L 116.4 56.4 L 116.3 53.3 L 116.3 50.2 L 116.4 47.0 L 116.4 43.8 L 116.5 40.5 L 116.6 37.1 L 116.6 33.6 L 116.7 30.1 L 116.7 29.2 L 101.1 29.2 L 101.1 26.219999980926513 Z M 113.8 61.6 L 113.8 109.1 L 131.3 109.1 L 131.3 61.6 Z " />
</g>
</svg>
