<svg xmlns="http://www.w3.org/2000/svg" xmlns:xlink="http://www.w3.org/1999/xlink" version="1.1" baseProfile="full" viewBox="0 0 200 200" width="200" height="200">
<g fill="black">
<path d="M 19.3 185.1 L 19.0 180.5 L 22.0 177.0 L 24.8 175.8 L 27.4 174.3 L 29.9 172.4 L 32.2 170.1 L 34.3 167.4 L 36.2 164.3 L 38.0 160.7 L 39.6 156.6 L 41.0 152.0 L 42.0 146.9 L 43.8 147.0 L 44.1 152.3 L 44.2 157.4 L 43.7 162.2 L 42.8 166.8 L 41.4 171.1 L 39.6 175.1 L 37.2 178.9 L 34.4 182.2 L 31.1 185.2 L 27.3 187.8 L 22.7 188.0 Z M 168.6 176.6 L 167.2 173.4 L 165.4 170.1 L 163.3 166.7 L 160.8 163.2 L 157.9 159.6 L 154.7 155.9 L 151.2 152.1 L 147.2 148.2 L 148.3 146.7 L 153.3 149.4 L 157.9 152.2 L 162.2 155.1 L 166.0 158.2 L 169.6 161.4 L 172.7 164.7 L 175.6 168.1 L 178.0 171.7 L 180.1 175.3 L 181.8 179.1 L 181.3 183.7 L 177.8 186.6 L 173.3 186.1 L 170.3 182.6 L 169.6 179.6 Z M 121.3 174.2 L 120.7 171.4 L 119.8 168.5 L 118.5 165.5 L 116.9 162.4 L 115.0 159.2 L 112.8 155.9 L 110.2 152.4 L 107.2 149.1 L 108.3 147.7 L 112.2 150.2 L 116.0 152.7 L 119.3 155.4 L 122.4 158.2 L 125.1 161.2 L 127.5 164.3 L 129.6 167.6 L 131.3 171.1 L 132.6 174.6 L 133.6 178.3 L 132.3 182.7 L 128.3 184.9 L 123.9 183.6 L 121.7 179.6 L 121.6 177.0 Z M 80.6 184.9 L 76.6 182.7 L 75.3 178.3 L 75.8 175.7 L 76.2 173.1 L 76.2 170.4 L 76.0 167.6 L 75.6 164.8 L 74.9 161.8 L 73.9 158.8 L 72.6 155.6 L 71.1 152.3 L 69.0 149.1 L 70.3 147.9 L 73.2 150.6 L 76.1 153.1 L 78.7 155.9 L 80.9 158.9 L 82.8 162.0 L 84.4 165.3 L 85.6 168.7 L 86.5 172.2 L 87.1 175.9 L 87.2 179.6 L 85.0 183.6 Z M 161.8 144.9 L 158.8 142.0 L 155.7 139.2 L 152.5 136.5 L 149.1 133.9 L 145.6 131.4 L 142.1 129.0 L 138.4 126.5 L 135.4916060447693 124.73965635299683 L 133.2 127.5 L 128.4 132.3 L 123.1 136.7 L 117.4 140.8 L 111.3 144.4 L 104.7 147.5 L 97.7 150.2 L 90.3 152.3 L 89.6 150.6 L 96.1 146.8 L 102.2 142.8 L 107.8 138.8 L 112.9 134.7 L 117.6 130.3 L 121.7 125.8 L 125.5 121.1 L 128.8 116.1 L 131.6 111.0 L 133.90769233703614 106.01538457870484 L 134.6 104.4 L 145.0 110.7 L 146.8 113.8 L 142.92310085296631 114.20105848312377 L 141.5 116.6 L 137.6 122.2 L 137.04466018676757 122.868932056427 L 139.7 123.4 L 144.1 124.5 L 148.5 125.9 L 152.7 127.6 L 156.9 129.6 L 160.9 131.8 L 164.9 134.2 L 168.7 136.8 L 172.5 139.7 L 176.1 142.7 L 177.8 147.0 L 176.1 151.2 L 171.8 152.9 L 167.6 151.2 L 164.8 148.0 Z M 80.3 139.8 L 78.4 137.7 L 76.4 135.7 L 74.2 133.7 L 71.8 131.8 L 69.3 129.8 L 66.6 127.9 L 63.7 125.9 L 61.407862186431885 124.6430212020874 L 60.1 126.2 L 55.4 130.8 L 50.1 135.1 L 44.4 139.2 L 38.2 143.0 L 31.4 146.5 L 24.2 149.6 L 16.3 152.3 L 15.6 150.7 L 22.4 146.2 L 28.7 141.9 L 34.6 137.5 L 39.8 133.2 L 44.6 128.8 L 48.7 124.3 L 52.4 119.7 L 55.4 115.1 L 58.0 110.4 L 59.75 106.48333330154419 L 60.6 104.5 L 71.0 110.6 L 72.9 113.6 L 69.04204931259156 114.07378339767456 L 67.9 116.1 L 64.3 121.2 L 62.884563732147214 122.88504314422607 L 64.7 123.3 L 68.3 124.0 L 71.7 124.9 L 75.0 126.0 L 78.2 127.2 L 81.2 128.6 L 84.2 130.1 L 87.0 131.8 L 89.7 133.7 L 92.2 135.7 L 93.8 140.0 L 92.0 144.2 L 87.7 145.8 L 83.5 143.9 L 82.0 141.8 Z M 121.5 71.7 L 152.4 71.7 L 158.4 66.7 L 169.4 75.7 L 164.4 79.7 L 164.4 104.9 L 152.4 110.9 L 152.4 100.9 L 121.5 100.9 L 121.5 107.9 L 109.5 113.9 L 109.5 65.7 Z M 159.1 63.1 L 150.4 59.0 L 142.0 54.6 L 133.9 49.8 L 126.1 44.5 L 118.6 38.9 L 111.5 32.8 L 104.8 26.2 L 102.77327194213868 23.879069519042968 L 98.9 27.7 L 91.1 34.6 L 82.9 41.1 L 74.1 47.1 L 65.0 52.6 L 55.3 57.7 L 45.2 62.3 L 35.93529415130615 65.91764707565308 L 47.5 71.7 L 78.4 71.7 L 84.4 66.7 L 95.4 75.7 L 90.4 79.7 L 90.4 104.9 L 78.4 110.9 L 78.4 100.9 L 47.5 100.9 L 47.5 107.9 L 35.5 113.9 L 35.5 66.08761901855469 L 34.7 66.4 L 23.7 69.9 L 12.2 72.8 L 11.6 71.1 L 22.3 66.4 L 32.6 61.5 L 42.4 56.4 L 51.7 51.1 L 60.5 45.4 L 68.8 39.5 L 76.7 33.2 L 84.0 26.6 L 90.9 19.7 L 97.3 12.4 L 97.31836738586426 12.416326522827148 L 97.7 12.0 L 106.3 20.4 L 106.85689268112182 22.56569375991821 L 107.5 23.0 L 115.1 28.1 L 122.8 33.0 L 130.6 37.5 L 138.5 41.7 L 146.6 45.5 L 154.9 49.0 L 163.4 52.1 L 172.0 54.9 L 180.9 57.3 L 188.9 59.6 L 177.2 70.0 L 168.0 66.7 Z M 121.5 75.7 L 121.5 96.9 L 152.4 96.9 L 152.4 75.7 Z M 47.5 75.7 L 47.5 96.9 L 78.4 96.9 L 78.4 75.7 Z M 133.3 55.4 L 133.3 59.4 L 64.6 59.4 L 64.6 55.4 L 115.11818180084228 55.4 L 123.3 46.4 Z " />
</g>
</svg>
