<svg xmlns="http://www.w3.org/2000/svg" xmlns:xlink="http://www.w3.org/1999/xlink" version="1.1" baseProfile="full" viewBox="0 0 200 200" width="200" height="200">
<g fill="black">
<path d="M 59.8 128.3 L 59.8 124.3 L 90.7 124.3 L 90.7 98.5 L 76.3 98.5 L 76.3 105.5 L 64.3 111.5 L 64.3 64.83636360168457 L 62.7 65.2 L 58.7 62.9 L 57.7 58.4 L 60.0 54.5 L 61.2 54.0 L 62.4 53.1 L 63.7 51.7 L 65.0 49.8 L 66.3 47.4 L 67.4 44.6 L 68.5 41.2 L 69.4 37.5 L 70.4 33.2 L 70.8 28.6 L 72.6 28.5 L 73.1 33.3 L 73.44090909957886 35.8 L 114.0 35.8 L 114.0 12.6 L 126.0 14.6 L 129.0 16.6 L 126.0 18.4 L 126.0 35.8 L 167.2 35.8 L 167.7454545021057 35.34545450210571 L 167.8 35.1 L 167.9484393119812 35.176300621032716 L 173.2 30.8 L 184.2 39.8 L 179.2 42.8 L 175.24255323410034 44.44893617630005 L 174.2 45.7 L 172.5 47.5 L 170.7 49.4 L 168.8 51.4 L 166.7 53.5 L 166.18205127716064 53.994405555725095 L 174.5 60.8 L 169.5 64.8 L 169.5 74.8 L 169.6 74.8 L 174.1 68.8 L 180.1 74.8 L 180.1 78.8 L 169.5 78.8 L 169.5 96.9 L 157.5 102.9 L 157.5 96.9 L 121.2 96.9 L 121.2 92.9 L 157.5 92.9 L 157.5 78.8 L 112.3 78.8 L 112.3 74.8 L 157.5 74.8 L 157.5 60.8 L 121.2 60.8 L 121.2 56.8 L 157.5 56.8 L 161.0243697166443 53.863025188446045 L 161.2 53.4 L 162.4 50.5 L 163.4 47.9 L 164.4 45.4 L 165.3 43.1 L 166.1 40.8 L 166.45 39.8 L 73.85 39.8 L 74.0 41.9 L 74.0 45.8 L 73.7 49.4 L 73.1 52.8 L 72.2 56.0 L 71.03125 58.921875 L 76.3 59.8 L 79.3 61.8 L 76.3 63.6 L 76.3 94.5 L 90.7 94.5 L 90.7 49.2 L 101.7 51.2 L 104.4 53.2 L 101.7 54.92340421676636 L 101.7 182.4 L 90.7 187.9 L 90.7 128.3 L 79.3 128.3 L 79.3 138.9 L 78.8 145.0 L 78.1 150.9 L 77.0 156.5 L 75.5 161.9 L 73.8 167.1 L 71.7 171.9 L 69.3 176.5 L 66.5 180.8 L 63.3 184.6 L 59.7 188.0 L 58.4 187.0 L 60.4 182.7 L 62.2 178.4 L 63.8 174.0 L 65.2 169.5 L 66.4 164.8 L 67.2 160.0 L 67.9 155.0 L 68.3 149.8 L 68.4 144.4 L 68.3 138.9 L 68.3 128.3 Z M 158.4 180.0 L 152.4 176.0 L 147.0 171.4 L 144.01378946304322 168.22715129852295 L 138.0 173.0 L 131.3 177.4 L 124.1 181.1 L 116.5 184.0 L 108.4 186.0 L 107.8 184.3 L 115.0 180.5 L 121.6 176.4 L 127.6 172.0 L 133.2 167.2 L 138.3 162.0 L 138.67112712860109 161.5401249885559 L 137.9 160.5 L 134.2 154.3 L 131.1 147.5 L 128.8 140.1 L 127.36202535629272 133.0 L 116.5 133.0 L 116.5 129.0 L 156.3 129.0 L 162.3 124.0 L 165.9700934410095 127.00280370712281 L 166.4 126.1 L 166.8 123.8 L 167.3 121.7 L 167.7 119.7 L 168.1 117.8 L 168.4 116.0 L 168.7 114.3 L 115.13333330154418 114.3 L 115.3 115.3 L 115.6 118.1 L 115.7 120.8 L 115.7 123.2 L 115.5 125.5 L 115.0 127.8 L 114.2 130.0 L 112.8 132.1 L 108.5 133.6 L 104.4 131.6 L 102.9 127.3 L 104.8 123.2 L 105.2 123.4 L 105.9 123.1 L 106.8 122.3 L 107.7 121.1 L 108.6 119.4 L 109.5 117.3 L 110.3 114.9 L 111.1 112.2 L 111.9 109.1 L 112.1 105.7 L 113.9 105.6 L 114.2 109.1 L 114.425 110.3 L 168.7 110.3 L 174.7 105.3 L 185.7 114.3 L 180.7 117.3 L 176.17961168289185 119.18349514007568 L 174.4 121.1 L 171.5 124.0 L 170.0 125.6 L 168.2 127.1 L 167.46706228256227 128.22759647369384 L 173.3 133.0 L 168.3 136.0 L 166.1958698272705 136.87672090530396 L 164.2 141.3 L 160.0 148.9 L 155.3 155.9 L 150.75638189315796 161.30090456008912 L 153.6 163.6 L 158.6 166.8 L 163.8 169.5 L 169.4 171.7 L 175.4 173.3 L 183.5 175.6 L 171.8 186.0 L 164.8 183.3 Z M 33.1 186.9 L 29.1 184.9 L 27.5 180.6 L 28.1 173.5 L 28.2 167.0 L 27.8 161.1 L 27.0 155.9 L 25.8 151.2 L 24.87791166305542 148.77951803207398 L 24.1 148.6 L 24.451968479156495 147.6614172935486 L 24.2 147.0 L 22.2 143.4 L 19.7 140.0 L 16.7 137.0 L 13.0 134.1 L 13.7 132.5 L 18.6 133.7 L 23.1 135.9 L 27.2 139.1 L 27.60779218673706 139.56604824066162 L 29.1 135.8 L 31.8 129.3 L 35.1 121.7 L 38.9 113.0 L 43.2 103.1 L 48.2 92.0 L 53.8 79.9 L 60.2 66.6 L 61.8 67.3 L 57.4 81.3 L 53.2 94.0 L 49.4 105.4 L 46.0 115.7 L 43.0 124.7 L 40.6 132.5 L 38.6 139.1 L 37.2 144.5 L 36.2 148.6 L 35.8 151.3 L 35.032380962371825 151.12285718917846 L 36.0 153.3 L 37.7 159.4 L 38.9 166.2 L 39.5 173.5 L 39.5 181.3 L 37.4 185.4 Z M 129.5971014022827 133.0 L 132.6 138.6 L 136.4 144.8 L 140.3 150.4 L 143.9472246170044 154.74193410873414 L 147.0 150.2 L 150.7 143.6 L 153.9 136.5 L 155.16000003814696 133.0 Z M 27.9 83.0 L 26.9 81.1 L 25.6 79.1 L 24.0 77.1 L 22.1 75.1 L 19.9 73.0 L 17.5 71.0 L 14.8 68.9 L 11.7 67.1 L 12.3 65.5 L 15.8 66.5 L 19.4 67.3 L 22.6 68.4 L 25.7 69.7 L 28.7 71.1 L 31.4 72.8 L 33.9 74.7 L 36.2 76.8 L 38.3 79.1 L 40.1 81.6 L 40.3 86.2 L 37.3 89.7 L 32.8 89.9 L 29.3 86.9 L 28.7 85.0 Z M 39.9 37.1 L 38.8 35.1 L 37.4 33.1 L 35.9 31.0 L 34.1 29.0 L 32.1 27.0 L 29.8 25.0 L 27.3 22.9 L 24.5 21.2 L 25.1 19.5 L 28.4 20.6 L 31.7 21.4 L 34.9 22.5 L 37.8 23.7 L 40.6 25.2 L 43.3 26.9 L 45.8 28.7 L 48.1 30.8 L 50.2 33.0 L 52.1 35.5 L 52.4 40.0 L 49.6 43.6 L 45.0 44.0 L 41.5 41.1 L 40.8 39.1 Z " />
</g>
</svg>
