<svg xmlns="http://www.w3.org/2000/svg" xmlns:xlink="http://www.w3.org/1999/xlink" version="1.1" baseProfile="full" viewBox="0 0 200 200" width="200" height="200">
<g fill="black">
<path d="M 57.3 153.1 L 56.2 149.7 L 54.8 146.2 L 53.2 142.5 L 51.4 138.8 L 49.3 134.9 L 47.0 130.8 L 45.16050939559936 127.70965576171875 L 44.7 130.4 L 42.1 140.7 L 38.9 150.3 L 35.0 159.1 L 30.4 167.1 L 25.2 174.3 L 19.3 180.5 L 12.7 185.6 L 11.5 184.3 L 16.4 177.9 L 20.8 171.2 L 24.7 163.9 L 28.1 156.1 L 30.9 147.6 L 33.1 138.5 L 34.8 128.6 L 35.9 118.1 L 36.5 106.9 L 36.5 17.0 L 48.5 19.0 L 51.5 21.0 L 48.5 22.8 L 48.5 71.825 L 49.5 70.2 L 51.9 66.6 L 54.2 63.1 L 56.4 59.8 L 58.4 56.6 L 60.3 53.6 L 62.1 50.8 L 63.191160106658934 48.95866737365723 L 63.1 48.9 L 64.1 47.5 L 73.2 55.4 L 74.4 58.8 L 70.40667486190796 58.318046951293944 L 68.6 60.2 L 66.0 62.8 L 63.3 65.4 L 60.4 68.2 L 57.4 71.1 L 54.1 74.1 L 50.7 77.2 L 48.5 78.99473686218262 L 48.5 95.0 L 47.9 107.5 L 46.6 119.3 L 45.88454704284668 123.47975130081177 L 47.0 124.4 L 50.8 127.8 L 54.2 131.2 L 57.3 134.7 L 60.2 138.3 L 62.7 141.9 L 65.0 145.5 L 67.1 149.1 L 68.8 152.8 L 70.3 156.5 L 69.6 161.0 L 66.0 163.8 L 61.5 163.2 L 58.7 159.6 L 58.1 156.4 Z M 69.5 176.3 L 122.5 176.3 L 122.5 147.3 L 78.4 147.3 L 78.4 143.3 L 122.5 143.3 L 122.5 120.3 L 134.5 122.3 L 137.5 124.3 L 134.5 126.1 L 134.5 143.3 L 156.5 143.3 L 166.5 133.3 L 178.5 143.3 L 178.5 147.3 L 134.5 147.3 L 134.5 176.3 L 165.4 176.3 L 175.4 166.3 L 187.4 176.3 L 187.4 180.3 L 69.5 180.3 Z M 114.0 17.0 L 117.0 19.0 L 114.0 20.8 L 114.0 117.0 L 102.0 123.0 L 102.0 15.0 Z M 160.9 106.4 L 154.0 99.4 L 150.23571424484254 94.66428575515747 L 145.2 99.7 L 136.8 106.2 L 127.5 111.6 L 117.3 115.8 L 116.6 114.1 L 125.5 108.3 L 133.5 101.9 L 140.6 95.0 L 145.89790945053102 88.59123859405517 L 142.3 82.9 L 137.5 73.5 L 133.5 63.3 L 130.2 52.4 L 127.8 40.6 L 126.31520004272461 29.0 L 118.0 29.0 L 118.0 25.0 L 166.0 25.0 L 172.0 20.0 L 183.0 29.0 L 178.0 32.0 L 177.21795921325685 32.325850296020505 L 176.1 40.4 L 173.4 52.6 L 169.6 63.8 L 164.9 74.2 L 159.3 83.7 L 157.08901052474977 86.54748649597168 L 162.0 91.7 L 168.5 97.3 L 175.5 102.1 L 183.0 106.1 L 188.2 108.8 L 176.9 117.8 L 168.6 112.6 Z M 89.0 30.0 L 92.0 32.0 L 89.0 33.8 L 89.0 107.0 L 77.0 113.0 L 77.0 28.0 Z M 15.2 108.6 L 12.4 104.9 L 12.9 100.4 L 14.6 97.6 L 16.1 94.4 L 17.5 90.8 L 18.7 86.8 L 19.7 82.4 L 20.4 77.5 L 21.0 72.3 L 21.4 66.6 L 21.7 60.6 L 22.0 54.1 L 23.7 53.8 L 25.5 60.2 L 26.7 66.3 L 27.5 72.2 L 28.0 77.8 L 28.1 83.2 L 27.8 88.3 L 27.3 93.2 L 26.3 97.8 L 25.0 102.2 L 23.3 106.3 L 19.7 109.0 Z M 128.38644065856934 29.0 L 131.8 39.6 L 135.8 50.6 L 140.2 60.6 L 145.0 69.7 L 150.2 78.0 L 151.66675577163696 79.87847671508788 L 152.1 79.2 L 156.6 70.2 L 160.2 60.5 L 162.9 50.0 L 164.9 38.7 L 165.77459020614623 29.0 Z " />
</g>
</svg>
