<svg xmlns="http://www.w3.org/2000/svg" xmlns:xlink="http://www.w3.org/1999/xlink" version="1.1" baseProfile="full" viewBox="0 0 200 200" width="200" height="200">
<g fill="black">
<path d="M 90.0 65.5 L 110.0 65.5 L 111.2 65.4 L 112.1 65.3 L 112.7 65.1 L 113.0 64.9 L 113.2 64.7 L 113.4 64.6 L 113.5 64.2 L 113.7 63.6 L 113.9 62.7 L 114.0 61.5 L 114.0 12.9 L 126.0 14.9 L 129.0 16.9 L 126.0 18.7 L 126.0 22.381818199157713 L 127.3 25.1 L 131.0 31.3 L 135.0 37.0 L 138.78964519500732 41.2949312210083 L 141.1 39.9 L 145.7 36.7 L 150.0 33.8 L 153.8 31.3 L 157.1 29.0 L 159.9 27.0 L 162.3 25.2 L 164.1 23.8 L 165.4 22.6 L 165.4202898979187 22.569565200805663 L 165.2 22.3 L 165.4285714149475 22.55714282989502 L 166.0 21.7 L 170.5333333015442 28.3 L 173.2 31.3 L 173.3 34.9 L 168.90975608825684 33.030081272125244 L 166.9 33.7 L 164.1 34.8 L 160.7 36.0 L 156.9 37.4 L 152.6 39.0 L 147.8 40.7 L 142.4 42.6 L 140.76816720962523 43.21897106170654 L 144.6 46.6 L 150.3 50.7 L 156.5 54.2 L 163.4 57.3 L 171.0 59.9 L 179.3 62.0 L 187.7 64.2 L 175.9 74.8 L 166.9 71.7 L 158.6 68.1 L 151.0 63.8 L 144.2 58.9 L 138.3 53.5 L 133.2 47.5 L 129.0 41.0 L 126.0 34.63636360168457 L 126.0 61.5 L 125.8 64.1 L 125.4 66.5 L 124.6 69.0 L 123.3 71.2 L 121.7 73.2 L 119.7 74.9 L 117.4 76.1 L 115.26666669845581 76.81111106872558 L 126.0 78.6 L 129.0 80.6 L 126.0 82.4 L 126.0 90.1 L 150.9 90.1 L 156.9 85.1 L 167.9 94.1 L 162.9 98.1 L 162.9 107.3 L 168.0777777671814 107.3 L 174.3 100.3 L 182.3 107.3 L 182.3 111.3 L 162.9 111.3 L 162.9 130.5 L 150.9 136.5 L 150.9 128.5 L 126.0 128.5 L 126.0 143.5 L 149.51818180084229 143.5 L 157.7 134.5 L 167.7 143.5 L 167.7 147.5 L 126.0 147.5 L 126.0 161.6 L 159.6 161.6 L 169.6 151.6 L 181.6 161.6 L 181.6 165.6 L 126.0 165.6 L 126.0 182.3 L 114.0 188.3 L 114.0 165.6 L 58.4 165.6 L 58.4 161.6 L 114.0 161.6 L 114.0 147.5 L 64.5 147.5 L 64.5 143.5 L 114.0 143.5 L 114.0 128.5 L 74.5 128.5 L 74.5 124.5 L 114.0 124.5 L 114.0 111.3 L 57.6 111.3 L 57.6 107.3 L 114.0 107.3 L 114.0 94.1 L 74.5 94.1 L 74.5 90.1 L 114.0 90.1 L 114.0 77.1 L 112.5 77.4 L 110.0 77.5 L 110.0 71.5 L 90.0 68.5 Z M 35.9 186.9 L 31.9 184.8 L 30.4 180.5 L 31.0 173.5 L 31.0 167.0 L 30.6 161.2 L 29.6 156.0 L 28.2 151.4 L 27.011475372314454 148.626775932312 L 26.5 148.5 L 26.718947410583496 147.9442105293274 L 26.4 147.2 L 24.0 143.5 L 21.1 140.1 L 17.5 137.0 L 13.2 134.1 L 13.8 132.4 L 19.2 133.6 L 24.3 135.8 L 28.7 138.9 L 30.001288414001465 140.23465480804444 L 32.1 135.6 L 35.1 129.1 L 38.7 121.6 L 42.9 112.8 L 47.7 102.9 L 53.2 91.9 L 59.5 79.8 L 65.68579158782958 68.13536443710328 L 63.2 69.1 L 56.0 71.3 L 55.3 69.6 L 61.5 65.7 L 67.2 61.8 L 72.4 57.9 L 77.1 54.0 L 81.3 50.0 L 84.9 45.9 L 88.0 41.7 L 90.6 37.4 L 92.7 33.0 L 92.81333332061767 32.7 L 60.8 32.7 L 60.8 28.7 L 94.0 28.7 L 100.0 23.7 L 111.0 32.7 L 106.0 35.7 L 103.66315793991089 36.673684215545656 L 102.9 38.2 L 99.7 43.2 L 95.9 47.9 L 91.7 52.2 L 86.9 56.3 L 81.7 60.0 L 76.0 63.4 L 69.9 66.5 L 67.97706212997437 67.24621467590332 L 68.1 67.3 L 62.9 81.3 L 58.2 94.1 L 53.8 105.6 L 49.9 115.8 L 46.5 124.8 L 43.7 132.7 L 41.4 139.3 L 39.8 144.7 L 38.7 148.7 L 38.2 151.4 L 37.57597255706787 151.24532651901245 L 38.5 153.2 L 40.4 159.3 L 41.7 166.1 L 42.3 173.5 L 42.4 181.4 L 40.3 185.5 Z M 126.0 111.3 L 126.0 124.5 L 150.9 124.5 L 150.9 111.3 Z M 126.0 94.1 L 126.0 107.3 L 150.9 107.3 L 150.9 94.1 Z M 30.8 83.3 L 29.5 81.3 L 27.9 79.3 L 26.0 77.3 L 23.8 75.2 L 21.3 73.1 L 18.4 71.1 L 15.3 68.9 L 11.7 67.1 L 12.3 65.4 L 16.3 66.4 L 20.2 67.2 L 23.8 68.3 L 27.2 69.5 L 30.4 71.0 L 33.4 72.6 L 36.2 74.5 L 38.7 76.6 L 41.0 78.9 L 43.0 81.5 L 43.5 86.0 L 40.6 89.6 L 36.1 90.0 L 32.5 87.2 L 31.8 85.3 Z M 44.2 37.4 L 42.9 35.3 L 41.3 33.3 L 39.5 31.2 L 37.3 29.2 L 35.0 27.1 L 32.3 25.0 L 29.4 22.9 L 26.1 21.1 L 26.8 19.5 L 30.5 20.4 L 34.1 21.3 L 37.6 22.3 L 40.9 23.6 L 43.9 25.1 L 46.8 26.7 L 49.6 28.6 L 52.1 30.6 L 54.4 32.8 L 56.5 35.3 L 57.1 39.8 L 54.4 43.5 L 49.9 44.1 L 46.2 41.5 L 45.3 39.4 Z " />
</g>
</svg>
