<svg xmlns="http://www.w3.org/2000/svg" xmlns:xlink="http://www.w3.org/1999/xlink" version="1.1" baseProfile="full" viewBox="0 0 200 200" width="200" height="200">
<g fill="black">
<path d="M 87.5 25.0 L 112.5 25.0 L 118.0 20.0 L 128.5 29.0 L 123.5 32.5 L 123.5 82.0 L 112.5 87.5 L 112.5 78.0 L 87.5 78.0 L 87.5 183.0 L 75.5 189.0 L 75.5 19.0 Z M 149.4 176.0 L 167.4 176.0 L 168.6 175.9 L 169.5 175.7 L 170.4 175.4 L 170.8 175.0 L 171.0 174.7 L 171.2 174.1 L 171.3 173.2 L 171.4 172.0 L 171.4 78.0 L 146.4 78.0 L 146.4 85.0 L 135.4 90.5 L 135.4 19.5 L 146.4 25.0 L 171.4 25.0 L 177.4 20.0 L 188.4 29.0 L 183.4 33.0 L 183.4 172.0 L 183.2 174.5 L 182.8 177.0 L 182.0 179.4 L 180.8 181.7 L 179.1 183.7 L 177.1 185.3 L 174.8 186.6 L 172.4 187.4 L 169.9 187.8 L 167.4 188.0 L 167.4 182.0 L 149.4 179.0 Z M 56.5 153.1 L 55.4 149.7 L 54.1 146.2 L 52.5 142.5 L 50.7 138.7 L 48.6 134.8 L 46.4 130.8 L 44.63817520141602 127.84013433456421 L 44.2 130.4 L 41.7 140.7 L 38.5 150.3 L 34.6 159.1 L 30.1 167.1 L 24.9 174.3 L 19.1 180.4 L 12.6 185.6 L 11.3 184.3 L 16.2 177.9 L 20.6 171.2 L 24.4 163.9 L 27.7 156.1 L 30.4 147.6 L 32.6 138.5 L 34.3 128.7 L 35.4 118.1 L 36.0 106.9 L 36.0 17.0 L 48.0 19.0 L 51.0 21.0 L 48.0 22.8 L 48.0 71.6625 L 48.9 70.2 L 51.3 66.6 L 53.5 63.1 L 55.6 59.8 L 57.6 56.6 L 59.5 53.6 L 61.2 50.8 L 62.29140748977661 48.9582498550415 L 62.2 48.9 L 62.71232872009277 48.24794521331787 L 62.8 48.1 L 62.817885398864746 48.11360034942627 L 63.3 47.5 L 72.4 55.4 L 73.6 58.8 L 69.54654960632324 58.38067750930786 L 67.8 60.2 L 62.6 65.4 L 59.7 68.2 L 56.7 71.1 L 53.5 74.1 L 50.1 77.2 L 48.0 78.95945949554444 L 48.0 95.0 L 47.3 107.5 L 46.1 119.3 L 45.37377109527588 123.54270544052125 L 46.5 124.5 L 50.2 127.8 L 53.6 131.3 L 56.7 134.8 L 59.5 138.3 L 62.0 141.9 L 64.3 145.5 L 66.3 149.1 L 68.0 152.8 L 69.5 156.5 L 68.8 161.0 L 65.2 163.9 L 60.7 163.2 L 57.9 159.6 L 57.3 156.4 Z M 97.5 162.9 L 123.5 162.9 L 123.5 135.4 L 104.6 135.4 L 104.6 131.4 L 123.5 131.4 L 123.5 104.4 L 101.2 104.4 L 101.2 100.4 L 139.51818180084229 100.4 L 147.7 91.4 L 157.7 100.4 L 157.7 104.4 L 135.5 104.4 L 135.5 131.4 L 140.0777777671814 131.4 L 146.3 124.4 L 154.3 131.4 L 154.3 135.4 L 135.5 135.4 L 135.5 162.9 L 139.4 162.9 L 149.4 152.9 L 161.4 162.9 L 161.4 166.9 L 97.5 166.9 Z M 15.0 108.6 L 12.2 105.0 L 12.6 100.4 L 14.3 97.6 L 15.9 94.5 L 17.2 90.9 L 18.4 86.8 L 19.4 82.4 L 20.1 77.5 L 20.7 72.3 L 21.1 66.6 L 21.4 60.6 L 21.7 54.1 L 23.5 53.8 L 25.2 60.2 L 26.5 66.3 L 27.3 72.2 L 27.7 77.8 L 27.8 83.2 L 27.6 88.3 L 27.0 93.2 L 26.1 97.8 L 24.8 102.1 L 23.2 106.2 L 19.5 109.0 Z M 146.4 53.0 L 146.4 74.0 L 171.4 74.0 L 171.4 53.0 Z M 87.5 53.0 L 87.5 74.0 L 112.5 74.0 L 112.5 53.0 Z M 146.4 29.0 L 146.4 49.0 L 171.4 49.0 L 171.4 29.0 Z M 87.5 29.0 L 87.5 49.0 L 112.5 49.0 L 112.5 29.0 Z " />
</g>
</svg>
