<svg xmlns="http://www.w3.org/2000/svg" xmlns:xlink="http://www.w3.org/1999/xlink" version="1.1" baseProfile="full" viewBox="0 0 200 200" width="200" height="200">
<g fill="black">
<path d="M 123.1 90.0 L 117.5 85.8 L 114.6 83.8 L 108.6 79.8 L 106.0 78.03870964050293 L 106.0 91.6 L 100.5151515007019 94.34242420196533 L 104.8 97.1 L 106.6 100.3 L 102.56391754150391 100.57835054397583 L 100.3 104.1 L 94.8 110.6 L 93.9344262123108 111.4 L 160.0 111.4 L 170.0 101.4 L 182.0 111.4 L 182.0 115.4 L 118.1714285850525 115.4 L 125.7 118.8 L 132.0 121.7 L 138.4 124.4 L 145.1 127.0 L 152.0 129.5 L 159.0 131.8 L 166.4 134.1 L 173.9 136.2 L 181.7 138.1 L 189.9 140.4 L 178.2 150.8 L 170.2 148.1 L 162.6 145.2 L 157.0251121520996 142.9399103164673 L 155.2 144.4 L 155.2 180.4 L 143.2 186.4 L 143.2 176.4 L 56.8 176.4 L 56.8 183.4 L 44.8 189.4 L 44.8 140.1689655303955 L 40.4 141.8 L 27.9 145.6 L 14.2 149.0 L 13.7 147.3 L 26.6 142.1 L 38.5 136.8 L 44.8 133.7083333015442 L 44.8 130.4 L 48.1392523765564 132.0696261405945 L 49.3 131.5 L 59.0 126.1 L 67.6 120.6 L 74.56428575515747 115.4 L 18.0 115.4 L 18.0 111.4 L 79.07241382598878 111.4 L 81.5 109.2 L 86.8 103.4 L 91.0 97.6 L 94.0 91.89032258987427 L 94.0 80.1375 L 91.5 82.2 L 87.3 85.4 L 83.0 88.5 L 78.5 91.4 L 73.9 94.2 L 69.1 96.8 L 64.0 99.2 L 58.8 101.4 L 53.3 103.2 L 52.5 101.6 L 56.9 98.0 L 61.3 94.6 L 65.5 91.3 L 69.6 87.9 L 73.5 84.6 L 77.2 81.2 L 80.8 77.8 L 84.2 74.3 L 85.1 73.3 L 53.8 73.3 L 53.8 69.3 L 75.68095235824585 69.3 L 74.9 68.9 L 74.5 67.6 L 73.2 65.0 L 72.4 63.7 L 71.5 62.3 L 70.5 60.9 L 69.4 59.5 L 68.2 58.0 L 66.9 56.4 L 65.2 55.4 L 65.57919464111328 54.64161071777344 L 61.2 54.7 L 53.8 54.5 L 53.7 52.7 L 60.8 50.9 L 68.1 49.2 L 75.5 47.7 L 82.9 46.3 L 90.5 44.8 L 98.2 43.4 L 106.0 41.9 L 113.9 40.4 L 121.9 38.8 L 127.23333330154419 37.8 L 47.2 37.8 L 47.2 102.7 L 35.2 108.7 L 35.2 27.8 L 47.2 33.8 L 71.5285714149475 33.8 L 72.6 32.9 L 74.9 30.5 L 77.1 28.1 L 79.2 25.9 L 81.2 23.6 L 83.1 21.4 L 85.0 19.1 L 86.7 16.9 L 88.3 14.7 L 89.20177736282349 13.377393245697021 L 89.1 13.3 L 90.1 12.1 L 98.7 20.6 L 99.6 24.1 L 95.30732069015502 23.28587112426758 L 93.9 24.4 L 91.4 26.2 L 88.7 27.9 L 86.0 29.5 L 83.2 31.1 L 80.3 32.6 L 77.5307692527771 33.8 L 152.8 33.8 L 158.8 28.8 L 169.8 37.8 L 164.8 41.8 L 164.8 100.5 L 152.8 106.5 L 152.8 37.8 L 129.98050851821898 37.8 L 130.05727577209473 38.27676525115967 L 141.3 47.6 L 141.7 50.6 L 137.18136644363403 48.25031051635742 L 131.8 49.1 L 124.67030239105225 49.96947526931763 L 133.1 58.3 L 133.52954549789428 59.97045450210571 L 134.2 59.3 L 146.2 69.3 L 146.2 73.3 L 106.0 73.3 L 106.0 74.78648653030396 L 110.3 75.6 L 114.0 76.5 L 117.6 77.6 L 124.6 80.2 L 128.1 81.7 L 131.4 83.3 L 138.0 86.9 L 140.3 90.8 L 139.3 95.3 L 135.4 97.6 L 131.0 96.6 L 125.8 92.2 Z M 56.8 158.4 L 56.8 172.4 L 94.0 172.4 L 94.0 158.4 Z M 106.0 158.4 L 106.0 172.4 L 143.2 172.4 L 143.2 158.4 Z M 56.8 140.4 L 56.8 154.4 L 94.0 154.4 L 94.0 140.4 Z M 106.0 140.4 L 106.0 154.4 L 143.2 154.4 L 143.2 140.4 Z M 89.60655736923218 115.4 L 88.2 116.7 L 80.6 122.4 L 72.1 127.8 L 62.5 132.8 L 55.69346733093262 135.8467336654663 L 56.8 136.4 L 143.0 136.4 L 141.2 135.5 L 134.7 131.9 L 128.5 128.0 L 122.6 123.9 L 117.2 119.5 L 112.92916669845582 115.4 Z M 83.9 53.8 L 76.3 54.3 L 68.7 54.6 L 67.96829271316528 54.60975608825684 L 70.0 54.9 L 72.0 55.4 L 75.8 56.6 L 77.6 57.4 L 79.4 58.3 L 81.1 59.2 L 82.7 60.2 L 84.3 61.3 L 85.5 65.7 L 83.65609760284424 69.3 L 94.0 69.3 L 94.0 53.023076915740965 Z M 123.6 50.1 L 115.5 51.0 L 107.4 51.8 L 106.0 51.94177217483521 L 106.0 69.3 L 112.3 69.3 L 112.9 68.6 L 114.3 66.2 L 117.1 61.8 L 118.4 59.8 L 119.7 57.7 L 122.1 53.9 L 123.2 52.1 L 123.74795083999634 51.11368856430054 L 123.6 51.0 L 124.14285717010497 50.40285711288452 L 124.2 50.3 L 124.22001123428345 50.31798763275147 L 124.52019948959351 49.98778057098389 Z M 127.6 62.3 L 125.6 63.6 L 123.6 65.0 L 121.5 66.3 L 119.3 67.7 L 116.34615383148193 69.3 L 124.2 69.3 L 132.0720588684082 61.427941131591794 L 129.46603775024414 60.925024795532224 Z " />
</g>
</svg>
