<svg xmlns="http://www.w3.org/2000/svg" xmlns:xlink="http://www.w3.org/1999/xlink" version="1.1" baseProfile="full" viewBox="0 0 200 200" width="200" height="200">
<g fill="black">
<path d="M 101.7 175.2 L 108.4 171.9 L 115.4 168.2 L 122.7 164.4 L 130.2 160.2 L 137.9 155.8 L 145.9 151.1 L 154.2 146.1 L 162.8 141.0 L 171.7 135.7 L 181.0 130.2 L 182.0 131.7 L 173.9 138.8 L 165.8 145.4 L 157.9 151.6 L 150.1 157.4 L 142.5 162.9 L 135.1 168.1 L 127.8 173.0 L 120.8 177.5 L 114.0 181.8 L 110.87264528274537 183.6670774459839 L 110.5 187.5 L 107.3 185.8 L 99.9 176.1 Z M 14.2 156.0 L 19.6 154.4 L 25.3 152.8 L 31.5 151.1 L 38.0 149.3 L 39.9 148.75714282989503 L 39.9 90.0 L 14.4 90.0 L 14.4 86.0 L 39.9 86.0 L 39.9 38.0 L 12.6 38.0 L 12.6 34.0 L 66.2 34.0 L 76.2 24.0 L 88.2 34.0 L 88.2 38.0 L 51.9 38.0 L 51.9 86.0 L 64.4 86.0 L 74.4 76.0 L 86.4 86.0 L 86.4 90.0 L 51.9 90.0 L 51.9 145.4095890045166 L 52.3 145.3 L 60.1 143.3 L 68.3 141.2 L 76.9 139.1 L 86.1 137.1 L 86.6 138.8 L 78.1 142.7 L 70.0 146.2 L 62.2 149.5 L 54.7 152.5 L 47.7 155.4 L 41.0 158.1 L 34.7 160.6 L 28.8 163.0 L 23.3 165.2 L 21.96428575515747 165.75 L 21.0 169.5 L 18.2 167.3 L 12.3 156.6 Z M 72.0 124.2 L 71.2 121.8 L 70.2 119.2 L 68.8 116.4 L 67.2 113.5 L 65.3 110.4 L 63.1 107.1 L 60.6 103.7 L 57.7 100.3 L 58.9 98.9 L 62.6 101.6 L 66.2 104.1 L 69.4 106.6 L 72.4 109.2 L 75.1 111.8 L 77.5 114.5 L 79.6 117.2 L 81.5 119.9 L 83.0 122.7 L 84.3 125.6 L 83.5 130.1 L 79.9 132.9 L 75.3 132.1 L 72.6 128.4 L 72.4 126.4 Z M 137.0 118.3 L 134.7 115.4 L 132.1 112.7 L 129.2 110.0 L 126.1 107.4 L 122.8 104.8 L 119.3 102.2 L 115.5 99.6 L 111.4 97.1 L 112.0 95.5 L 116.8 96.6 L 121.4 97.9 L 125.8 99.5 L 129.9 101.3 L 133.9 103.4 L 137.7 105.7 L 141.3 108.2 L 144.6 110.9 L 147.8 113.8 L 150.7 117.0 L 151.8 121.4 L 149.5 125.4 L 145.0 126.4 L 141.1 124.1 L 139.2 121.2 Z M 164.8 86.4 L 159.2 79.7 L 153.9 72.8 L 149.1 65.7 L 144.7 58.3 L 140.7 50.6 L 137.1 42.8 L 134.27202434539794 35.07019987106323 L 131.3 41.2 L 126.3 50.7 L 120.9 59.8 L 115.3 68.4 L 109.4 76.6 L 103.2 84.4 L 96.8 91.7 L 89.9 98.4 L 82.7 104.6 L 81.4 103.3 L 87.1 95.9 L 92.6 88.3 L 98.0 80.5 L 103.2 72.4 L 108.1 63.9 L 112.8 55.2 L 117.3 46.1 L 121.6 36.7 L 125.6 26.9 L 129.4 16.7 L 129.4421917915344 16.716198635101318 L 129.9 15.4 L 140.6 21.0 L 142.7 24.0 L 139.01147718429564 24.635952186584472 L 136.45945053100587 30.47725772857666 L 137.9 32.9 L 142.4 40.1 L 146.9 47.0 L 151.7 53.7 L 156.7 60.2 L 161.9 66.4 L 167.5 72.4 L 173.3 78.2 L 179.4 83.7 L 185.8 88.9 L 188.0 90.9 L 177.2 99.0 L 170.8 92.8 Z " />
</g>
</svg>
