<svg xmlns="http://www.w3.org/2000/svg" xmlns:xlink="http://www.w3.org/1999/xlink" version="1.1" baseProfile="full" viewBox="0 0 200 200" width="200" height="200">
<g fill="black">
<path d="M 97.9 64.2 L 99.2 67.5 L 95.31735534667969 67.2991735458374 L 92.9 70.2 L 87.1 76.0 L 80.6 81.6 L 73.3 87.0 L 65.2 92.2 L 57.45600004196167 96.6 L 93.6 96.6 L 99.6 91.6 L 110.6 100.6 L 105.6 104.6 L 105.6 181.2 L 93.6 187.2 L 93.6 177.2 L 48.0 177.2 L 48.0 184.2 L 36.0 190.2 L 36.0 106.7875 L 25.3 110.8 L 13.3 114.8 L 12.6 113.1 L 23.8 107.4 L 34.1 101.7 L 36.0 100.61145830154419 L 36.0 90.6 L 45.25555553436279 95.2277777671814 L 52.5 90.7 L 60.5 85.1 L 67.7 79.6 L 74.0 74.0 L 79.5 68.4 L 84.2 62.9 L 88.0 57.4 L 88.5 56.6 Z M 48.0 150.6 L 48.0 173.2 L 93.6 173.2 L 93.6 150.6 Z M 48.0 125.6 L 48.0 146.6 L 93.6 146.6 L 93.6 125.6 Z M 150.3 120.0 L 164.3 120.0 L 165.5 119.9 L 166.4 119.7 L 167.3 119.4 L 167.7 119.0 L 167.9 118.7 L 168.0 118.1 L 168.2 117.2 L 168.3 116.0 L 168.3 53.06726722717285 L 135.9 68.63483486175537 L 135.9 168.2 L 136.1 169.1 L 136.3 169.7 L 136.5 170.0 L 136.6 170.2 L 136.8 170.4 L 137.7 170.7 L 138.6 170.9 L 139.9 171.0 L 176.4 171.0 L 182.4 146.0 L 184.4 146.0 L 182.4 171.0 L 186.0 173.4 L 188.4 177.0 L 186.0 180.6 L 182.4 183.0 L 139.9 183.0 L 137.3 182.8 L 134.8 182.4 L 132.4 181.6 L 130.1 180.3 L 128.1 178.7 L 126.5 176.7 L 125.3 174.4 L 124.4 172.0 L 124.0 169.5 L 123.9 167.0 L 123.9 74.40060062408448 L 108.5 81.8 L 106.8 78.1 L 123.9 69.88378381729126 L 123.9 20.0 L 135.9 22.0 L 138.9 24.0 L 135.9 25.8 L 135.9 64.11801805496216 L 168.3 48.55045042037964 L 168.3 46.0 L 174.3 41.0 L 185.3 50.0 L 180.3 54.0 L 180.3 116.0 L 180.1 118.5 L 179.7 121.0 L 178.9 123.4 L 177.7 125.7 L 176.0 127.7 L 174.0 129.3 L 171.7 130.6 L 169.3 131.4 L 166.8 131.8 L 164.3 132.0 L 164.3 126.0 L 150.3 123.0 Z M 49.6 100.6 L 48.0 101.4 L 48.0 121.6 L 93.6 121.6 L 93.6 100.6 Z M 47.0 35.6 L 49.4 38.3 L 45.42219753265381 39.365482807159424 L 43.8 42.7 L 41.6 46.7 L 39.1 50.9 L 36.3 55.5 L 33.0 60.3 L 29.4 65.5 L 25.3 70.9 L 20.7 76.6 L 15.6 82.5 L 14.2 81.4 L 17.6 74.5 L 20.8 68.0 L 23.7 62.1 L 26.4 56.5 L 28.8 51.4 L 30.9 46.7 L 32.6 42.4 L 33.9 38.6 L 34.9 35.2 L 35.309197998046876 33.222209739685056 L 35.2 33.2 L 36.0 30.6 Z M 39.0 64.0 L 55.0 64.0 L 56.2 63.9 L 57.1 63.7 L 58.0 63.4 L 58.4 63.0 L 58.7 62.1 L 58.9 61.2 L 59.0 60.0 L 59.0 13.0 L 71.0 15.0 L 74.0 17.0 L 71.0 18.8 L 71.0 60.0 L 70.8 62.5 L 70.4 65.0 L 69.6 67.4 L 68.3 69.7 L 66.7 71.7 L 64.7 73.3 L 62.4 74.6 L 60.0 75.4 L 57.5 75.8 L 55.0 76.0 L 55.0 70.0 L 39.0 67.0 Z M 104.1 59.4 L 102.5 56.0 L 100.8 52.6 L 98.9 49.1 L 96.8 45.5 L 94.7 41.8 L 92.5 38.1 L 90.2 34.2 L 87.7 30.3 L 89.0 29.1 L 92.6 32.1 L 96.2 35.0 L 99.4 38.1 L 102.5 41.2 L 105.4 44.4 L 108.2 47.6 L 110.8 50.8 L 113.2 54.0 L 115.5 57.3 L 117.7 60.5 L 118.0 65.1 L 115.1 68.6 L 110.5 68.9 L 107.0 66.0 L 105.6 62.7 Z " />
</g>
</svg>
