<svg xmlns="http://www.w3.org/2000/svg" xmlns:xlink="http://www.w3.org/1999/xlink" version="1.1" baseProfile="full" viewBox="0 0 200 200" width="200" height="200">
<g fill="black">
<path d="M 166.6 170.4 L 162.9 162.6 L 159.6 153.9 L 156.6 144.2 L 154.2 133.3 L 152.3 121.1 L 151.31888408660888 110.76054801940919 L 151.3 110.9 L 148.0 127.2 L 144.0 141.0 L 139.3 152.5 L 133.9 162.2 L 127.8 170.2 L 120.9 177.0 L 113.4 182.7 L 105.3 187.7 L 104.2 186.2 L 111.0 179.7 L 117.2 173.2 L 122.6 166.2 L 127.4 158.3 L 131.6 149.1 L 135.2 138.2 L 138.2 125.1 L 140.7 109.3 L 142.6 90.6 L 143.84096908569336 69.5989842414856 L 143.8 69.6 L 144.0 66.4 L 155.9 69.3 L 158.8 71.4 L 155.55656566619874 73.14646463394165 L 154.24913568496703 87.78968048095703 L 154.7 91.8 L 156.9 106.8 L 159.4 119.9 L 162.3 131.4 L 165.5 141.4 L 169.1 150.2 L 172.8 157.8 L 176.8 164.6 L 180.9 170.6 L 185.2 176.0 L 185.2 176.1 L 174.5 183.9 L 170.5 177.5 Z M 116.8 73.0 L 116.8 77.0 L 98.9 77.0 L 98.9 111.0 L 101.71818180084229 111.0 L 109.9 102.0 L 119.9 111.0 L 119.9 115.0 L 98.9 115.0 L 98.9 155.4 L 101.1 153.2 L 104.0 150.4 L 107.0 147.5 L 110.1 144.5 L 113.4 141.5 L 116.7 138.4 L 118.1 139.5 L 115.9 143.5 L 113.8 147.4 L 111.6 151.1 L 109.5 154.7 L 107.4 158.2 L 105.3 161.5 L 103.3 164.7 L 101.3 167.8 L 99.4 170.8 L 98.7268292427063 171.88455286026002 L 98.9 172.0 L 98.25454549789428 172.6454545021057 L 97.6 173.7 L 97.37751483917236 173.52248516082764 L 90.9 180.0 L 80.9 170.0 L 86.9 164.0 L 86.9 115.0 L 67.1 115.0 L 67.1 111.0 L 86.9 111.0 L 86.9 77.0 L 78.8 77.0 L 78.8 73.0 L 98.61818180084228 73.0 L 106.8 64.0 Z M 97.2 17.4 L 99.6 20.1 L 96.00879859924316 21.19018611907959 L 95.0 24.4 L 92.7 31.6 L 90.2 39.0 L 88.79740257263184 43.0 L 101.11818180084228 43.0 L 109.3 34.0 L 119.3 43.0 L 119.3 47.0 L 87.39125003814698 47.0 L 84.6 54.7 L 81.6 62.9 L 78.3 71.4 L 74.8 80.2 L 71.0 89.1 L 66.8 98.2 L 65.9 97.93529415130615 L 65.9 163.0 L 53.9 169.0 L 53.9 157.0 L 38.7 157.0 L 38.7 169.0 L 26.7 175.0 L 26.7 108.04680852890014 L 23.2 114.6 L 18.1 123.2 L 12.6 131.4 L 11.0 130.5 L 14.8 121.4 L 18.4 112.3 L 21.9 103.2 L 25.1 94.0 L 26.7 89.09333333969116 L 26.7 88.0 L 27.056521701812745 88.0 L 28.1 84.8 L 30.9 75.4 L 33.4 65.9 L 35.6 56.4 L 37.6 46.7 L 38.678160953521726 40.0 L 15.7 40.0 L 15.7 36.0 L 50.3 36.0 L 60.3 26.0 L 72.3 36.0 L 72.3 40.0 L 50.77227725982666 40.0 L 48.7 49.1 L 46.0 59.0 L 43.0 68.7 L 39.8 78.3 L 37.13440856933594 85.0 L 53.9 85.0 L 59.9 80.0 L 67.75954875946044 86.430539894104 L 69.7 78.5 L 72.0 69.4 L 74.3 60.6 L 76.5 52.2 L 78.6 44.0 L 80.5 36.2 L 82.4 28.6 L 84.1 21.4 L 85.6 14.4 L 85.65553560256959 14.414362621307372 L 86.1 12.7 Z M 38.7 89.0 L 38.7 153.0 L 53.9 153.0 L 53.9 89.0 Z M 143.6 17.8 L 146.3 20.2 L 142.86410751342774 21.66343574523926 L 142.0 26.2 L 140.2 34.6 L 138.2 42.8 L 136.59259262084962 49.0 L 170.0 49.0 L 176.0 44.0 L 187.0 53.0 L 182.0 56.0 L 179.4722222328186 57.05324077606201 L 178.3 59.3 L 176.9 61.8 L 175.5 64.5 L 173.9 67.3 L 172.3 70.3 L 170.5 73.4 L 168.5 76.7 L 166.7 80.3 L 165.0 79.6 L 166.0 75.8 L 166.5 72.0 L 167.1 68.4 L 167.7 65.1 L 168.3 61.9 L 168.8 59.0 L 169.3 56.2 L 169.7 53.7 L 169.7875 53.0 L 135.5037036895752 53.0 L 133.8 59.0 L 131.3 66.9 L 128.7 74.7 L 125.7 82.4 L 122.5 89.9 L 119.0 97.2 L 117.3 96.7 L 118.9 88.7 L 122.3 72.9 L 124.0 64.9 L 125.6 56.9 L 127.0 48.9 L 128.4 40.8 L 129.7 32.6 L 130.8 24.4 L 131.6908366203308 17.006055736541747 L 131.6 17.0 L 132.1 14.1 Z M 65.9 93.0 L 65.9 94.29130430221558 L 66.27311553955079 92.70150756835938 Z " />
</g>
</svg>
