<svg xmlns="http://www.w3.org/2000/svg" xmlns:xlink="http://www.w3.org/1999/xlink" version="1.1" baseProfile="full" viewBox="0 0 200 200" width="200" height="200">
<g fill="black">
<path d="M 143.2 55.6 L 169.7 55.6 L 175.7 50.6 L 186.7 59.6 L 181.7 63.6 L 181.7 172.3 L 181.6 174.8 L 181.1 177.3 L 180.3 179.7 L 179.1 182.0 L 177.5 184.0 L 175.4 185.7 L 173.2 186.9 L 170.8 187.7 L 168.3 188.1 L 165.7 188.3 L 165.7 182.3 L 149.7 179.3 L 149.7 176.3 L 165.7 176.3 L 166.9 176.2 L 167.9 176.1 L 168.4 175.9 L 168.8 175.7 L 169.1 175.4 L 169.3 175.0 L 169.5 174.4 L 169.6 173.5 L 169.7 172.3 L 169.7 59.6 L 143.2 59.6 L 143.2 84.3375 L 143.7 83.4 L 146.7 84.6 L 149.7 85.7 L 152.6 86.9 L 155.3 88.4 L 157.9 90.0 L 160.4 91.7 L 162.8 93.6 L 165.0 95.6 L 167.1 97.7 L 169.0 100.0 L 169.6 104.6 L 166.9 108.3 L 162.3 108.8 L 158.7 106.1 L 157.8 104.0 L 156.8 101.9 L 155.6 99.7 L 154.3 97.6 L 152.8 95.5 L 151.2 93.3 L 149.4 91.2 L 147.4 89.0 L 145.3 86.8 L 143.2 85.1375 L 143.2 118.7 L 143.05918369293212 121.28163261413575 L 143.7 120.0 L 146.7 121.3 L 149.7 122.4 L 152.6 123.6 L 155.3 125.0 L 157.9 126.6 L 160.4 128.4 L 162.8 130.2 L 165.0 132.3 L 167.1 134.4 L 169.0 136.7 L 169.6 141.3 L 166.9 144.9 L 162.3 145.5 L 158.7 142.8 L 157.8 140.7 L 156.8 138.5 L 155.6 136.4 L 154.3 134.3 L 152.8 132.2 L 151.2 130.0 L 149.4 127.9 L 147.4 125.7 L 145.3 123.5 L 143.0359477043152 121.7076252937317 L 142.6 129.7 L 141.3 139.9 L 139.3 149.2 L 136.6 157.7 L 133.1 165.3 L 129.0 172.0 L 124.1 177.7 L 118.6 182.3 L 112.4 185.8 L 105.8 188.0 L 105.1 186.3 L 110.5 182.5 L 115.1 178.2 L 119.2 173.4 L 122.6 167.9 L 125.4 161.7 L 127.1 156.6 L 96.6 156.6 L 96.6 182.5 L 84.6 188.5 L 84.6 156.6 L 56.6 156.6 L 56.6 152.6 L 84.6 152.6 L 84.6 129.7 L 74.7 129.7 L 74.7 136.7 L 63.7 142.2 L 63.7 79.4 L 74.7 84.9 L 84.6 84.9 L 84.6 66.9 L 58.8 66.9 L 58.8 62.9 L 84.6 62.9 L 84.6 44.4 L 96.6 46.4 L 99.6 48.4 L 96.6 50.2 L 96.6 62.9 L 107.21818180084229 62.9 L 115.4 53.9 L 125.4 62.9 L 125.4 66.9 L 96.6 66.9 L 96.6 84.9 L 106.8 84.9 L 112.8 79.9 L 123.8 88.9 L 118.8 92.9 L 118.8 133.7 L 106.8 139.7 L 106.8 129.7 L 96.6 129.7 L 96.6 152.6 L 106.4 152.6 L 116.4 142.6 L 128.24456520080565 152.47047100067138 L 129.5 147.1 L 130.6 138.5 L 131.2 129.0 L 131.2 49.6 Z M 12.7 122.0 L 15.4 121.2 L 18.3 120.3 L 21.4 119.2 L 24.6 117.9 L 27.9 116.5 L 31.3 114.9 L 34.9 113.2 L 38.6 111.4 L 42.40296411514282 109.54727392196655 L 42.5 98.0 L 42.5 31.5 L 53.5 37.0 L 104.0 37.0 L 104.0 12.0 L 116.0 14.0 L 119.0 16.0 L 116.0 17.8 L 116.0 37.0 L 167.8181818008423 37.0 L 176.0 28.0 L 186.0 37.0 L 186.0 41.0 L 53.5 41.0 L 53.5 98.0 L 52.8 110.5 L 51.5 122.2 L 49.5 133.3 L 46.8 143.6 L 43.3 153.1 L 39.2 161.7 L 34.3 169.6 L 28.8 176.6 L 22.4 182.6 L 15.5 187.6 L 14.4 186.3 L 20.0 180.2 L 24.9 173.5 L 29.2 166.4 L 32.9 158.7 L 36.1 150.3 L 38.6 141.3 L 40.5 131.6 L 41.7 121.1 L 42.13534479141235 114.13448276519776 L 41.2 115.1 L 38.1 118.0 L 35.1 120.7 L 32.0 123.2 L 29.0 125.6 L 26.0 127.7 L 23.0 129.7 L 21.009677410125732 130.89419355392457 L 20.1 135.2 L 17.1 133.1 L 10.8 122.8 Z M 74.7 109.3 L 74.7 125.7 L 106.8 125.7 L 106.8 109.3 Z M 74.7 105.3 L 106.8 105.3 L 106.8 88.9 L 74.7 88.9 Z M 24.3 76.9 L 23.6 73.9 L 22.7 70.9 L 21.7 68.1 L 20.5 65.4 L 19.2 62.7 L 17.8 60.1 L 16.2 57.5 L 14.2 55.3 L 15.3 53.8 L 18.0 55.5 L 20.8 57.2 L 23.5 59.2 L 26.0 61.5 L 28.3 64.1 L 30.4 67.0 L 32.3 70.1 L 34.1 73.4 L 35.7 76.9 L 37.1 80.6 L 36.3 85.1 L 32.6 87.9 L 28.1 87.1 L 25.4 83.4 L 24.9 80.1 Z " />
</g>
</svg>
