<svg xmlns="http://www.w3.org/2000/svg" xmlns:xlink="http://www.w3.org/1999/xlink" version="1.1" baseProfile="full" viewBox="0 0 200 200" width="200" height="200">
<g fill="black">
<path d="M 146.9 183.8 L 144.9 184.8 L 142.8 185.7 L 140.6 186.4 L 138.4 187.0 L 136.2 187.5 L 133.9 187.9 L 131.6 188.1 L 129.3 188.1 L 129.3 182.1 L 109.3 179.1 L 109.3 176.1 L 130.9 176.1 L 132.5 175.9 L 134.0 175.7 L 135.6 175.4 L 137.0 175.0 L 138.5 174.5 L 139.9 173.9 L 141.3 173.2 L 142.7 172.4 L 144.1 171.5 L 145.6 170.2 L 147.2 168.0 L 148.9 164.9 L 150.6 160.9 L 152.1 156.1 L 153.5 150.3 L 154.7 143.8 L 155.7 136.3 L 156.6 128.1 L 157.04666662216187 121.4 L 134.78461542129517 121.4 L 131.4 130.2 L 127.0 138.7 L 121.8 146.7 L 115.6 154.1 L 108.6 160.9 L 100.8 167.2 L 92.2 172.8 L 82.8 177.9 L 72.5 182.3 L 61.4 185.9 L 60.7 184.2 L 70.9 178.8 L 80.2 173.2 L 88.6 167.4 L 96.1 161.3 L 102.7 154.8 L 108.5 148.1 L 113.5 141.0 L 117.6 133.6 L 120.9 125.9 L 122.21538457870483 121.4 L 99.95862064361572 121.4 L 99.4 122.3 L 95.1 128.8 L 90.2 134.9 L 84.6 140.7 L 78.5 146.2 L 71.8 151.4 L 64.5 156.3 L 56.6 160.8 L 48.1 165.0 L 39.0 168.8 L 29.2 172.2 L 28.5 170.5 L 37.3 165.4 L 45.5 160.3 L 53.1 155.2 L 60.1 150.0 L 66.5 144.8 L 72.2 139.3 L 77.3 133.8 L 81.8 128.2 L 85.7 122.4 L 86.2 121.4 L 62.85531911849976 121.4 L 59.6 124.4 L 54.1 128.9 L 48.1 133.3 L 41.8 137.4 L 35.0 141.3 L 27.8 144.9 L 20.1 148.1 L 19.2 146.6 L 25.9 141.6 L 32.1 136.8 L 38.0 132.1 L 43.4 127.3 L 48.5 122.6 L 53.1 117.7 L 57.3 112.9 L 61.1 108.0 L 64.5 103.0 L 66.35600004196166 99.8 L 52.0 99.8 L 52.0 102.8 L 40.0 108.8 L 40.0 16.0 L 52.0 22.0 L 148.0 22.0 L 154.0 17.0 L 165.0 26.0 L 160.0 30.0 L 160.0 101.8 L 148.0 107.8 L 148.0 99.8 L 71.45211267471313 99.8 L 77.6 104.3 L 79.1 107.6 L 75.22091226577759 107.53311920166016 L 73.7 109.6 L 69.4 114.7 L 66.86199998855591 117.4 L 157.2 117.4 L 163.2 112.4 L 174.2 121.4 L 169.2 124.4 L 168.84255323410034 124.54893617630005 L 168.5 129.1 L 167.6 137.8 L 166.5 145.7 L 165.2 152.8 L 163.7 159.3 L 161.9 165.0 L 159.7 170.1 L 157.3 174.5 L 154.4 178.3 L 150.9 181.4 L 149.0 182.6 Z M 52.0 74.2 L 52.0 95.8 L 148.0 95.8 L 148.0 74.2 Z M 52.0 50.1 L 52.0 70.2 L 148.0 70.2 L 148.0 50.1 Z M 52.0 26.0 L 52.0 46.1 L 148.0 46.1 L 148.0 26.0 Z " />
</g>
</svg>
