<svg xmlns="http://www.w3.org/2000/svg" xmlns:xlink="http://www.w3.org/1999/xlink" version="1.1" baseProfile="full" viewBox="0 0 200 200" width="200" height="200">
<g fill="black">
<path d="M 77.0 123.3 L 80.0 125.3 L 77.0 127.1 L 77.0 138.8 L 76.1 146.3 L 74.1 153.2 L 71.1 159.7 L 67.0 165.6 L 62.0 170.9 L 56.0 175.6 L 49.1 179.6 L 41.4 183.1 L 32.7 186.0 L 23.2 188.2 L 22.7 186.4 L 31.4 182.4 L 39.1 178.3 L 45.7 174.0 L 51.3 169.6 L 55.9 164.9 L 59.5 160.1 L 62.2 155.1 L 63.9 150.0 L 64.8 144.6 L 65.0 138.8 L 65.0 121.3 Z M 137.0 123.3 L 140.0 125.3 L 137.0 127.1 L 137.0 181.4 L 125.0 187.4 L 125.0 121.3 Z M 163.0 136.1 L 155.9 132.3 L 149.2 128.3 L 143.1 124.0 L 137.4 119.6 L 132.3 114.9 L 127.8 110.0 L 123.9 104.9 L 121.28181819915771 100.1 L 86.2764705657959 100.1 L 84.6 102.0 L 76.4 109.9 L 67.6 117.1 L 58.2 123.7 L 48.2 129.8 L 37.5 135.1 L 26.2 139.7 L 14.3 143.5 L 13.6 141.8 L 24.7 136.2 L 35.0 130.3 L 44.8 124.1 L 53.8 117.6 L 62.3 110.6 L 70.0 103.1 L 72.7307692527771 100.1 L 20.0 100.1 L 20.0 96.1 L 76.37179489135742 96.1 L 77.1 95.3 L 83.6 87.0 L 89.5 78.2 L 90.14131889343261 77.06535892486572 L 89.4 77.1 L 78.1 77.4 L 66.3 77.4 L 53.9 77.2 L 41.0 76.7 L 40.9 74.9 L 53.8 73.4 L 66.1 72.1 L 77.7 70.8 L 88.8 69.5 L 99.3 68.2 L 109.2 66.8 L 118.5 65.3 L 127.2 63.8 L 135.3 62.1 L 141.80738887786865 60.62499189376831 L 141.8 60.6 L 141.8253920555115 60.62091112136841 L 142.8 60.4 L 143.05263156890868 61.63157892227173 L 153.7 70.4 L 154.0 73.4 L 149.58537549972533 71.22292490005493 L 145.2 72.1 L 137.3 73.3 L 128.8 74.4 L 119.8 75.3 L 110.2 76.0 L 104.19459457397461 76.35675678253173 L 99.0 84.4 L 92.1 93.5 L 89.80588235855103 96.1 L 156.0 96.1 L 166.0 86.1 L 178.0 96.1 L 178.0 100.1 L 124.52631578445434 100.1 L 127.0 102.1 L 131.9 105.7 L 136.9 109.3 L 142.3 112.8 L 148.1 116.2 L 154.3 119.4 L 160.9 122.4 L 167.9 125.3 L 175.3 128.1 L 183.2 130.7 L 190.3 133.2 L 178.7 143.1 L 170.7 139.7 Z M 66.6 57.5 L 65.3 55.1 L 63.8 52.7 L 62.0 50.2 L 59.9 47.7 L 57.5 45.2 L 54.8 42.6 L 51.8 39.9 L 49.48800001144409 38.2 L 44.91864404678345 38.2 L 42.6 42.0 L 38.7 47.7 L 34.3 53.2 L 29.5 58.4 L 24.3 63.3 L 18.7 67.8 L 12.5 72.0 L 11.4 70.7 L 16.1 65.1 L 20.4 59.6 L 24.5 54.1 L 28.2 48.6 L 31.6 43.1 L 34.6 37.4 L 37.2 31.7 L 39.5 25.9 L 41.4 20.0 L 42.65174598693848 14.909566497802734 L 42.6 14.9 L 42.86938772201538 14.024489784240723 L 42.9 13.9 L 42.907090473175046 13.90195598602295 L 43.4 12.3 L 54.5 17.1 L 56.8 19.8 L 53.13768119812012 20.846376800537108 L 52.1 23.7 L 49.4 30.0 L 47.1967212677002 34.2 L 84.0 34.2 L 94.0 24.2 L 106.0 34.2 L 106.0 38.2 L 55.28000001907348 38.2 L 57.1 38.9 L 60.8 40.6 L 64.1 42.5 L 67.3 44.5 L 70.2 46.8 L 72.8 49.2 L 75.2 51.7 L 77.4 54.5 L 79.2 57.4 L 79.3 62.0 L 76.2 65.3 L 71.6 65.3 L 68.3 62.2 L 67.5 59.9 Z M 145.6 57.5 L 144.3 55.1 L 142.8 52.7 L 141.0 50.2 L 138.9 47.7 L 136.5 45.2 L 133.8 42.6 L 130.8 39.9 L 128.4880000114441 38.2 L 123.46428575515748 38.2 L 121.6 41.1 L 117.6 46.4 L 113.2 51.5 L 108.4 56.2 L 103.2 60.6 L 97.6 64.5 L 91.5 68.1 L 90.4 66.6 L 95.1 61.6 L 99.5 56.7 L 103.6 51.7 L 107.3 46.7 L 110.7 41.5 L 113.6 36.3 L 116.3 30.9 L 118.5 25.4 L 120.4 19.7 L 121.63949117660522 14.907300853729248 L 121.6 14.9 L 122.4 12.2 L 133.5 17.1 L 135.8 19.9 L 132.07593050003052 20.897518634796143 L 131.1 23.5 L 128.3 29.7 L 125.89482755661011 34.2 L 164.0 34.2 L 174.0 24.2 L 186.0 34.2 L 186.0 38.2 L 134.2800000190735 38.2 L 136.1 38.9 L 139.8 40.6 L 143.1 42.5 L 146.3 44.5 L 149.2 46.8 L 151.8 49.2 L 154.2 51.7 L 156.4 54.5 L 158.2 57.4 L 158.3 62.0 L 155.2 65.3 L 150.6 65.3 L 147.3 62.2 L 146.5 59.9 Z " />
</g>
</svg>
