<svg xmlns="http://www.w3.org/2000/svg" xmlns:xlink="http://www.w3.org/1999/xlink" version="1.1" baseProfile="full" viewBox="0 0 200 200" width="200" height="200">
<g fill="black">
<path d="M 181.0 142.9 L 183.0 142.9 L 181.0 167.9 L 184.6 170.3 L 187.0 173.9 L 184.6 177.5 L 181.0 179.9 L 126.0 179.9 L 123.4 179.7 L 120.9 179.3 L 118.5 178.5 L 116.2 177.3 L 114.2 175.6 L 112.6 173.6 L 111.3 171.3 L 110.5 168.9 L 110.1 166.4 L 110.0 163.9 L 110.0 159.14166669845582 L 100.1 164.0 L 88.9 169.0 L 77.3 173.6 L 65.3 177.8 L 64.6 176.2 L 75.8 170.2 L 86.6 164.2 L 97.0 158.2 L 107.1 152.1 L 110.0 150.24639177322388 L 110.0 105.9 L 88.83815793991089 105.9 L 88.1 109.3 L 83.8 122.9 L 78.4 135.0 L 71.6 145.9 L 63.3 155.7 L 53.5 164.4 L 42.0 172.3 L 28.7 179.5 L 13.3 186.2 L 12.6 184.6 L 26.8 176.1 L 39.0 167.8 L 49.3 159.4 L 57.7 150.6 L 64.6 141.2 L 70.0 130.9 L 74.3 119.6 L 77.7 106.8 L 77.85 105.9 L 21.0 105.9 L 21.0 101.9 L 78.51666669845581 101.9 L 80.1 92.4 L 81.87272729873658 76.2484848022461 L 82.1 73.9 L 93.8 77.2 L 96.6 79.5 L 93.24889316558838 81.08071079254151 L 91.4 94.1 L 89.70657892227173 101.9 L 157.0 101.9 L 167.0 91.9 L 179.0 101.9 L 179.0 105.9 L 122.0 105.9 L 122.0 142.32150535583497 L 126.1 139.5 L 135.0 133.0 L 143.5 126.3 L 151.5 119.5 L 158.51474103927612 113.21406326293945 L 158.5 113.2 L 159.4 112.4 L 167.2 121.5 L 167.7 125.1 L 164.10213899612427 124.00779218673706 L 158.8 128.3 L 150.0 134.9 L 140.8 141.2 L 131.2 147.3 L 122.0 152.63599996566774 L 122.0 165.1 L 122.2 166.0 L 122.5 166.9 L 122.9 167.3 L 123.2 167.5 L 123.8 167.6 L 124.7 167.8 L 126.0 167.9 L 175.0 167.9 Z M 133.5 93.2 L 132.4 91.5 L 131.0 89.6 L 129.3 87.6 L 127.2 85.6 L 124.8 83.6 L 122.1 81.5 L 119.0 79.3 L 115.5 77.5 L 116.1 75.8 L 120.0 76.9 L 123.8 77.8 L 127.4 78.8 L 130.7 80.1 L 133.7 81.5 L 136.5 83.0 L 139.1 84.7 L 141.5 86.7 L 143.6 88.8 L 145.4 91.2 L 145.6 95.8 L 142.6 99.2 L 138.0 99.5 L 134.6 96.5 L 134.2 94.9 Z M 87.4 53.9 L 87.8 57.4 L 84.27257385253907 56.2455696105957 L 81.8 58.1 L 75.9 62.2 L 69.8 66.1 L 63.4 69.9 L 56.7 73.5 L 49.8 77.0 L 42.7 80.3 L 35.3 83.4 L 27.5 86.1 L 19.5 88.6 L 18.8 87.0 L 26.0 82.7 L 32.9 78.5 L 39.7 74.4 L 46.1 70.4 L 52.4 66.2 L 58.4 62.1 L 64.1 57.8 L 69.5 53.5 L 74.7 49.2 L 79.6 44.7 L 79.63760328292847 44.744352626800534 L 79.8 44.6 Z M 158.8 77.4 L 154.6 73.4 L 150.1 69.6 L 145.3 65.9 L 140.0 62.2 L 134.5 58.7 L 128.6 55.3 L 122.4 51.8 L 115.8 48.3 L 116.4 46.6 L 123.8 48.3 L 130.8 50.4 L 137.4 52.9 L 143.8 55.6 L 149.8 58.7 L 155.5 62.0 L 160.9 65.6 L 166.0 69.4 L 170.7 73.5 L 175.2 77.8 L 176.6 82.2 L 174.6 86.3 L 170.2 87.7 L 166.1 85.7 L 162.6 81.5 Z M 23.5 59.4 L 23.1 54.9 L 26.0 51.3 L 27.7 50.7 L 29.3 49.8 L 30.9 48.6 L 32.4 46.9 L 33.8 44.8 L 35.2 42.3 L 36.4 39.3 L 37.5 35.8 L 38.4 31.9 L 38.8 27.6 L 40.6 27.5 L 41.1 31.9 L 41.42857141494751 34.2 L 164.5 34.2 L 165.23432836532592 33.588059711456296 L 165.6 32.7 L 165.97942476272584 32.96714601516724 L 170.5 29.2 L 181.5 38.2 L 176.5 41.2 L 171.18235292434693 43.41568632125855 L 170.3 44.2 L 168.3 45.9 L 166.1 47.6 L 163.8 49.4 L 161.4 51.3 L 158.7 53.2 L 155.8 55.1 L 153.1 57.3 L 151.8 56.1 L 154.0 53.3 L 155.8 50.4 L 157.5 47.7 L 159.1 45.1 L 160.5 42.7 L 161.8 40.4 L 163.0 38.3 L 163.05 38.2 L 41.752499961853026 38.2 L 41.8 40.1 L 41.6 43.9 L 41.0 47.5 L 40.0 50.9 L 38.6 54.1 L 36.7 57.0 L 34.4 59.6 L 31.6 61.9 L 27.1 62.3 Z M 101.1 27.3 L 100.1 25.6 L 98.9 23.9 L 97.4 22.1 L 95.6 20.3 L 93.7 18.5 L 91.5 16.6 L 89.1 14.7 L 86.3 13.2 L 87.0 11.5 L 90.1 12.5 L 93.2 13.1 L 96.2 13.9 L 99.0 14.9 L 101.7 16.1 L 104.2 17.3 L 106.5 18.8 L 108.7 20.4 L 110.8 22.1 L 112.6 24.1 L 113.4 28.6 L 110.8 32.3 L 106.3 33.1 L 102.5 30.5 L 101.9 28.9 Z " />
</g>
</svg>
