<svg xmlns="http://www.w3.org/2000/svg" xmlns:xlink="http://www.w3.org/1999/xlink" version="1.1" baseProfile="full" viewBox="0 0 200 200" width="200" height="200">
<g fill="black">
<path d="M 81.5 66.0 L 81.5 70.0 L 50.3 70.0 L 50.3 183.5 L 40.3 188.5 L 40.3 70.0 L 13.2 70.0 L 13.2 66.0 L 59.5 66.0 L 69.5 56.0 Z M 147.7 181.2 L 133.8 177.7 L 121.3 172.4 L 110.4 165.2 L 101.1 156.2 L 97.16016931533814 150.70497303009034 L 92.3 159.6 L 86.5 168.2 L 80.0 175.7 L 73.0 181.8 L 65.5 186.7 L 64.4 185.2 L 70.4 179.0 L 75.9 172.2 L 81.0 164.5 L 85.7 156.0 L 89.9 146.5 L 91.62117280960084 141.6155906677246 L 87.7 133.3 L 83.6 119.5 L 81.3 104.1 L 83.1 103.8 L 87.6 118.3 L 93.1 130.9 L 94.4384973526001 133.10337266921997 L 96.9 124.6 L 99.7 112.1 L 102.1 98.7 L 103.63310346603393 87.0 L 93.09652175903321 87.0 L 92.7 88.5 L 79.5 91.0 L 95.94262294769287 32.0 L 76.7 32.0 L 76.7 28.0 L 96.8 28.0 L 102.8 23.0 L 113.8 32.0 L 108.8 35.0 L 106.60032577514649 35.916530990600585 L 94.15391302108765 83.0 L 104.0 83.0 L 110.0 78.0 L 121.0 87.0 L 116.0 90.0 L 115.08299160003662 90.38208684921264 L 113.3 100.6 L 110.2 114.5 L 106.6 127.3 L 102.4 139.2 L 100.72982912063598 142.9230893135071 L 107.2 150.5 L 115.9 157.7 L 125.8 163.2 L 137.0 167.1 L 149.4 169.5 L 163.3 170.2 L 178.7 169.4 L 189.5 168.5 L 179.8 182.5 L 163.1 182.7 Z M 31.2 88.0 L 34.0 90.0 L 31.2 91.75 L 31.2 120.0 L 30.8 128.2 L 30.1 135.9 L 29.2 143.0 L 27.9 149.5 L 26.4 155.3 L 24.5 160.6 L 22.3 165.2 L 19.8 169.1 L 16.9 172.3 L 13.7 174.5 L 12.6 173.4 L 14.2 170.2 L 15.5 166.8 L 16.8 162.9 L 17.9 158.5 L 18.8 153.6 L 19.5 148.0 L 20.0 141.9 L 20.3 135.2 L 20.4 127.9 L 20.2 120.0 L 20.2 86.0 Z M 152.2 16.1 L 154.9 18.1 L 152.2 19.823404216766356 L 152.2 33.2 L 165.1 33.2 L 170.6 28.2 L 181.1 37.2 L 176.1 40.7 L 176.1 58.3 L 178.8 58.3 L 183.3 52.3 L 189.3 58.3 L 189.3 62.3 L 176.1 62.3 L 176.1 91.4 L 165.1 96.9 L 165.1 87.4 L 152.2 87.4 L 152.2 111.6 L 160.0 111.6 L 170.0 101.6 L 182.0 111.6 L 182.0 115.6 L 152.2 115.6 L 152.2 136.7 L 165.3 136.7 L 175.3 126.7 L 187.3 136.7 L 187.3 140.7 L 152.2 140.7 L 152.2 161.1 L 141.2 166.6 L 141.2 140.7 L 111.4 140.7 L 111.4 136.7 L 141.2 136.7 L 141.2 115.6 L 116.0 115.6 L 116.0 111.6 L 141.2 111.6 L 141.2 87.4 L 121.3 87.4 L 121.3 83.4 L 141.2 83.4 L 141.2 62.3 L 108.0 62.3 L 108.0 58.3 L 141.2 58.3 L 141.2 37.2 L 121.3 37.2 L 121.3 33.2 L 141.2 33.2 L 141.2 14.1 Z M 72.0 88.0 L 74.8 90.0 L 72.0 91.75 L 72.0 155.2 L 61.0 160.7 L 61.0 86.0 Z M 152.2 62.3 L 152.2 83.4 L 165.1 83.4 L 165.1 62.3 Z M 152.2 37.2 L 152.2 58.3 L 165.1 58.3 L 165.1 37.2 Z M 72.8 30.0 L 72.8 34.0 L 21.0 34.0 L 21.0 30.0 L 50.8 30.0 L 60.8 20.0 Z " />
</g>
</svg>
