<svg xmlns="http://www.w3.org/2000/svg" xmlns:xlink="http://www.w3.org/1999/xlink" version="1.1" baseProfile="full" viewBox="0 0 200 200" width="200" height="200">
<g fill="black">
<path d="M 168.33397741317748 65.5259259223938 L 177.9 73.6 L 178.2 76.7 L 173.98276882171632 74.80530195236206 L 171.4 75.6 L 163.3 77.6 L 154.9 79.5 L 146.2 81.2 L 137.9 82.6755555152893 L 137.9 107.3 L 166.6 107.3 L 176.6 97.3 L 188.6 107.3 L 188.6 111.3 L 137.9 111.3 L 137.9 136.4 L 161.8 136.4 L 167.8 131.4 L 178.8 140.4 L 173.8 144.4 L 173.8 179.9 L 161.8 185.9 L 161.8 175.9 L 102.0 175.9 L 102.0 182.9 L 90.0 188.9 L 90.0 130.4 L 102.0 136.4 L 125.9 136.4 L 125.9 111.3 L 75.2 111.3 L 75.2 107.3 L 125.9 107.3 L 125.9 84.35263156890869 L 118.4 85.3 L 108.5 86.3 L 98.3 87.0 L 87.9 87.4 L 77.2 87.5 L 77.0 85.7 L 87.5 83.7 L 97.7 81.7 L 107.6 79.8 L 117.1 77.8 L 126.4 75.8 L 135.4 73.6 L 144.0 71.4 L 152.3 69.1 L 160.3 66.7 L 167.0027340888977 64.40695943832398 L 167.0 64.4 L 167.00665578842163 64.40561771392822 L 167.9 64.1 Z M 20.1 176.5 L 34.1 176.5 L 35.4 176.4 L 36.3 176.2 L 37.2 175.9 L 37.4 175.7 L 37.5 175.5 L 37.7 175.2 L 37.9 174.6 L 38.1 173.7 L 38.1 137.69122810363768 L 35.8 138.7 L 30.0 141.1 L 22.07057867050171 144.32552728652954 L 21.1 148.1 L 18.2 145.9 L 12.4 135.2 L 14.3 134.6 L 20.3 132.8 L 26.4 131.0 L 32.3 129.2 L 38.1 127.55666666030884 L 38.1 95.0 L 14.6 95.0 L 14.6 91.0 L 38.1 91.0 L 38.1 63.6 L 50.1 65.6 L 53.1 67.6 L 50.1 69.4 L 50.1 91.0 L 52.3 91.0 L 62.3 81.0 L 74.3 91.0 L 74.3 95.0 L 50.1 95.0 L 50.1 123.930508518219 L 50.2 123.9 L 56.1 122.2 L 62.0 120.6 L 68.0 119.1 L 74.0 117.7 L 74.7 119.4 L 69.4 122.6 L 64.0 125.6 L 58.5 128.3 L 52.9 131.0 L 50.1 132.27719297409058 L 50.1 172.5 L 50.0 175.0 L 49.6 177.5 L 48.7 179.9 L 47.5 182.2 L 45.9 184.2 L 43.9 185.9 L 41.6 187.1 L 39.2 187.9 L 36.7 188.3 L 34.1 188.5 L 34.1 182.5 L 20.1 179.5 Z M 102.0 171.9 L 161.8 171.9 L 161.8 140.4 L 102.0 140.4 Z M 67.6 57.9 L 66.3 55.5 L 64.8 53.0 L 63.0 50.5 L 60.9 48.0 L 58.4 45.4 L 55.8 42.8 L 52.8 40.1 L 50.48800001144409 38.4 L 45.975 38.4 L 43.7 42.3 L 39.7 48.0 L 35.3 53.5 L 30.5 58.7 L 25.3 63.7 L 19.7 68.3 L 13.5 72.5 L 12.4 71.1 L 17.0 65.5 L 21.4 60.0 L 25.5 54.5 L 29.2 48.9 L 32.6 43.3 L 35.6 37.7 L 38.2 31.9 L 40.5 26.1 L 42.4 20.1 L 43.65174598693848 15.009566497802734 L 43.6 15.0 L 43.86938772201538 14.124489784240723 L 43.9 14.0 L 43.907090473175046 14.00195598602295 L 44.4 12.4 L 55.5 17.2 L 57.8 19.9 L 54.13768119812012 20.94637680053711 L 53.1 23.8 L 50.4 30.2 L 48.1967212677002 34.4 L 85.0 34.4 L 95.0 24.4 L 107.0 34.4 L 107.0 38.4 L 56.28000001907348 38.4 L 58.1 39.1 L 61.8 40.9 L 65.1 42.8 L 68.3 44.8 L 71.2 47.1 L 73.8 49.5 L 76.2 52.1 L 78.4 54.8 L 80.3 57.8 L 80.3 62.4 L 77.1 65.7 L 72.6 65.7 L 69.3 62.6 L 68.5 60.2 Z M 146.6 57.9 L 145.3 55.5 L 143.8 53.0 L 142.0 50.5 L 139.9 48.0 L 137.4 45.4 L 134.8 42.8 L 131.8 40.1 L 129.4880000114441 38.4 L 124.46428575515748 38.4 L 122.6 41.3 L 118.6 46.7 L 114.2 51.8 L 109.4 56.5 L 104.2 60.9 L 98.6 64.9 L 92.5 68.5 L 91.4 67.0 L 96.1 62.0 L 100.5 57.0 L 104.6 52.0 L 108.3 47.0 L 111.7 41.8 L 114.6 36.5 L 117.2 31.1 L 119.5 25.6 L 121.4 19.8 L 122.66404027938843 14.912377548217773 L 122.6 14.9 L 123.4 12.3 L 134.5 17.2 L 136.8 19.9 L 133.08999996185304 20.960000038146973 L 132.1 23.6 L 129.3 29.8 L 126.88305082321168 34.4 L 165.0 34.4 L 175.0 24.4 L 187.0 34.4 L 187.0 38.4 L 135.2800000190735 38.4 L 137.1 39.1 L 140.8 40.9 L 144.1 42.8 L 147.3 44.8 L 150.2 47.1 L 152.8 49.5 L 155.2 52.1 L 157.4 54.8 L 159.3 57.8 L 159.3 62.4 L 156.1 65.7 L 151.6 65.7 L 148.3 62.6 L 147.5 60.2 Z " />
</g>
</svg>
