<svg xmlns="http://www.w3.org/2000/svg" xmlns:xlink="http://www.w3.org/1999/xlink" version="1.1" baseProfile="full" viewBox="0 0 200 200" width="200" height="200">
<g fill="black">
<path d="M 165.3 179.6 L 160.0 175.9 L 155.2 171.6 L 150.9 166.7 L 147.2 161.2 L 144.1 155.1 L 141.5 148.5 L 139.5 141.3 L 138.5502993583679 135.12694606781005 L 135.5 143.6 L 130.8 152.8 L 125.0 161.0 L 118.1 168.3 L 110.3 174.6 L 101.4 179.8 L 91.7 184.0 L 80.9 187.0 L 80.4 185.3 L 90.1 180.5 L 98.7 175.2 L 106.3 169.4 L 112.7 163.0 L 118.2 156.0 L 122.6 148.3 L 126.2 140.0 L 127.76593408584594 134.3 L 89.8 134.3 L 89.8 130.3 L 128.7979591369629 130.3 L 130.3 121.1 L 131.0 110.5 L 131.02808837890626 110.5011703491211 L 131.1 108.2 L 143.0 111.0 L 145.9 113.1 L 142.52713899612428 114.95176677703857 L 141.6 122.7 L 139.85688076019287 130.3 L 166.0 130.3 L 176.0 120.3 L 188.0 130.3 L 188.0 134.3 L 140.64057970046997 134.3 L 143.4 139.9 L 146.9 146.1 L 150.4 151.6 L 154.1 156.4 L 157.9 160.5 L 162.0 164.0 L 166.3 166.8 L 170.7 169.1 L 175.4 170.8 L 180.4 171.9 L 189.2 174.0 L 177.4 184.8 L 171.1 182.5 Z M 13.3 158.0 L 20.4 155.5 L 27.5 153.1 L 34.7 150.5 L 42.0 148.0 L 49.4 145.4 L 53.75 143.95 L 52.9 143.8 L 54.0 133.8 L 55.2 124.4 L 56.4 115.5 L 57.6 107.2 L 58.6 99.4 L 59.6 92.1 L 60.4 85.3 L 61.2 79.1 L 61.8 73.3 L 62.12297382354736 69.10134010314941 L 62.1 69.1 L 62.15454549789429 68.69090909957886 L 62.2 68.1 L 62.23271026611328 68.10467290878296 L 62.5 66.1 L 74.1 69.8 L 76.8 72.2 L 73.30648851394653 73.62328243255615 L 73.0 75.1 L 71.7 80.8 L 70.3 87.1 L 68.7 93.8 L 67.0 101.0 L 65.0 108.7 L 62.8 116.9 L 60.4 125.5 L 57.7 134.6 L 54.75866146087647 143.61377954483032 L 56.9 142.9 L 64.5 140.3 L 72.1 137.8 L 80.0 135.4 L 88.0 133.1 L 88.7 134.8 L 81.4 138.9 L 74.2 142.7 L 67.0 146.4 L 59.8 149.9 L 52.6 153.3 L 45.5 156.6 L 31.5 163.0 L 21.49381446838379 167.49553260803222 L 20.7 171.2 L 17.7 169.2 L 11.5 158.7 Z M 30.9 120.3 L 30.6 113.9 L 29.6 101.1 L 28.9 94.8 L 27.3 82.0 L 26.6 75.6 L 25.8 69.2 L 27.6 68.7 L 30.2 74.7 L 32.6 80.8 L 34.6 87.0 L 36.3 93.4 L 37.9 99.8 L 39.3 106.2 L 40.5 112.7 L 41.6 119.3 L 42.5 126.0 L 43.2 132.7 L 41.6 136.9 L 37.5 138.9 L 33.2 137.4 L 31.2 133.3 L 31.1 126.8 Z M 144.4 109.5 L 144.4 53.2 L 131.9 53.2 L 131.9 105.1 L 120.9 110.6 L 120.9 53.2 L 108.3 53.2 L 108.3 108.2 L 96.3 114.2 L 96.3 43.2 L 108.3 49.2 L 128.7777777671814 49.2 L 129.0 48.2 L 129.0 45.4 L 129.4 40.0 L 129.6 37.4 L 130.2 29.9 L 130.29565219879152 28.8 L 88.8 28.8 L 88.8 24.8 L 166.0 24.8 L 176.0 14.8 L 188.0 24.8 L 188.0 28.8 L 141.95 28.8 L 141.1 30.5 L 140.1 32.7 L 139.0 34.9 L 137.9 37.2 L 136.7 39.5 L 135.4 41.8 L 134.2 44.1 L 132.8 46.5 L 131.3 48.9 L 131.17307691574098 49.2 L 168.5 49.2 L 174.5 44.2 L 185.5 53.2 L 180.5 57.2 L 180.5 97.9 L 180.4 100.5 L 179.9 102.9 L 179.1 105.4 L 177.9 107.6 L 176.2 109.6 L 174.2 111.3 L 172.0 112.5 L 169.6 113.3 L 167.1 113.8 L 164.5 113.9 L 164.5 107.9 L 153.23333330154418 105.08333330154419 Z M 13.7 56.0 L 42.3 56.0 L 42.3 17.0 L 54.3 19.0 L 57.3 21.0 L 54.3 22.8 L 54.3 56.0 L 64.5 56.0 L 74.5 46.0 L 86.5 56.0 L 86.5 60.0 L 13.7 60.0 Z M 155.4 53.2 L 155.4 101.9 L 164.5 101.9 L 165.7 101.8 L 166.6 101.7 L 167.2 101.5 L 167.6 101.3 L 167.9 101.0 L 168.1 100.6 L 168.3 100.0 L 168.4 99.1 L 168.5 97.9 L 168.5 53.2 Z " />
</g>
</svg>
