<svg xmlns="http://www.w3.org/2000/svg" xmlns:xlink="http://www.w3.org/1999/xlink" version="1.1" baseProfile="full" viewBox="0 0 200 200" width="200" height="200">
<g fill="black">
<path d="M 68.5 178.1 L 63.7 180.5 L 63.7 114.0 L 51.2 114.0 L 51.2 175.5 L 41.2 180.5 L 41.2 114.0 L 29.1 114.0 L 29.1 181.2 L 18.1 186.7 L 18.1 104.5 L 29.1 110.0 L 45.85714282989502 110.0 L 46.4 108.1 L 47.1 104.6 L 47.8 101.3 L 48.5 98.2 L 49.1 95.2 L 49.8 92.4 L 50.4 89.8 L 50.9 87.3 L 50.95217390060425 87.0 L 12.4 87.0 L 12.4 83.0 L 80.5 83.0 L 90.5 73.0 L 102.5 83.0 L 102.5 87.0 L 63.11818180084229 87.0 L 63.0 87.2 L 61.8 89.1 L 60.5 91.2 L 59.1 93.4 L 57.7 95.7 L 54.5 100.7 L 52.7 103.4 L 50.8 106.2 L 48.8 109.1 L 48.29375 110.0 L 85.8 110.0 L 91.3 105.0 L 101.8 114.0 L 96.8 117.5 L 96.8 171.0 L 96.6 173.4 L 96.3 175.7 L 95.6 178.0 L 94.6 180.1 L 93.2 182.1 L 91.4 183.7 L 89.4 185.0 L 87.2 185.8 L 84.9 186.3 L 82.5 186.5 L 82.5 181.0 L 68.5 178.2 Z M 98.2 176.0 L 113.7 176.0 L 113.7 20.0 L 125.7 26.0 L 160.1 26.0 L 166.1 21.0 L 177.1 30.0 L 172.1 34.0 L 172.1 173.05 L 177.6 167.0 L 187.6 176.0 L 187.6 180.0 L 98.2 180.0 Z M 125.7 130.0 L 125.7 176.0 L 160.1 176.0 L 160.1 130.0 Z M 125.7 80.0 L 125.7 126.0 L 160.1 126.0 L 160.1 80.0 Z M 125.7 30.0 L 125.7 76.0 L 160.1 76.0 L 160.1 30.0 Z M 32.0 67.2 L 20.0 73.2 L 20.0 24.4 L 32.0 26.4 L 35.0 28.4 L 32.0 30.2 L 32.0 56.2 L 51.5 56.2 L 51.5 12.6 L 63.5 14.6 L 66.5 16.6 L 63.5 18.4 L 63.5 56.2 L 82.4 56.2 L 82.4 24.4 L 94.4 26.4 L 97.4 28.4 L 94.4 30.2 L 94.4 64.2 L 82.4 70.2 L 82.4 60.2 L 32.0 60.2 Z M 73.7 114.0 L 73.7 175.5 L 82.5 175.5 L 83.5 175.4 L 84.1 175.3 L 84.6 175.1 L 84.8 175.0 L 84.9 174.8 L 85.1 174.6 L 85.3 174.1 L 85.5 173.4 L 85.7 172.3 L 85.8 171.0 L 85.8 114.0 Z " />
</g>
</svg>
