<svg xmlns="http://www.w3.org/2000/svg" xmlns:xlink="http://www.w3.org/1999/xlink" version="1.1" baseProfile="full" viewBox="0 0 200 200" width="200" height="200">
<g fill="black">
<path d="M 132.0 175.6 L 153.2 175.6 L 154.1 175.4 L 154.7 175.2 L 155.1 175.0 L 155.4 174.7 L 155.6 174.4 L 155.8 173.8 L 155.9 172.9 L 156.0 171.6 L 156.0 98.3 L 103.25384616851807 98.3 L 101.5 102.1 L 99.50957727432251 105.2404447555542 L 105.0 106.3 L 110.4 107.6 L 115.6 109.1 L 120.5 110.9 L 125.2 112.9 L 129.7 115.1 L 133.9 117.4 L 137.9 119.9 L 141.7 122.6 L 145.2 125.5 L 147.0 129.7 L 145.3 134.0 L 141.1 135.7 L 136.8 134.0 L 134.2 131.2 L 131.4 128.4 L 128.2 125.6 L 124.8 122.9 L 121.1 120.3 L 117.1 117.6 L 112.9 115.0 L 108.4 112.4 L 103.7 109.7 L 98.7 107.0 L 99.0390625 105.9828125 L 97.0 109.2 L 91.6 115.6 L 85.2 121.1 L 77.8 125.9 L 69.4 129.8 L 59.9 132.9 L 49.4 135.1 L 49.0 133.4 L 58.7 129.3 L 67.1 125.0 L 74.2 120.3 L 80.3 115.3 L 85.3 109.9 L 89.3 104.0 L 92.19523811340332 98.3 L 43.9 98.3 L 43.9 182.2 L 31.9 188.2 L 31.9 88.3 L 43.9 94.3 L 93.7 94.3 L 94.9 90.9 L 96.6 83.4 L 97.6 75.2 L 97.63278236389161 75.20413227081299 L 97.9 73.2 L 109.5 76.7 L 112.3 79.0 L 108.72482347488403 80.61894788742066 L 107.7 85.8 L 105.1 94.3 L 156.0 94.3 L 162.0 89.3 L 173.0 98.3 L 168.0 102.3 L 168.0 171.6 L 167.9 174.2 L 167.4 176.7 L 166.6 179.1 L 165.4 181.3 L 163.7 183.4 L 161.7 185.0 L 159.5 186.2 L 157.0 187.0 L 154.6 187.5 L 152.0 187.6 L 152.0 181.6 L 132.0 178.6 Z M 130.9 161.9 L 127.5 159.2 L 124.0 156.6 L 120.3 154.1 L 116.4 151.7 L 112.3 149.4 L 108.0 147.1 L 103.5 144.8 L 100.3223684310913 143.24498882293702 L 98.5 145.3 L 93.2 150.1 L 87.3 154.4 L 80.9 158.3 L 73.9 161.6 L 66.3 164.4 L 58.1 166.6 L 49.4 168.3 L 49.0 166.5 L 56.9 163.1 L 64.2 159.5 L 70.9 155.7 L 76.9 151.8 L 82.3 147.6 L 87.0 143.2 L 91.1 138.6 L 94.5 133.8 L 97.4 128.7 L 99.31459455490112 124.20486488342286 L 99.3 124.2 L 100.2 122.0 L 110.7 128.0 L 112.7 131.0 L 108.78988761901856 131.53932580947875 L 107.3 134.3 L 103.2 140.0 L 102.2800711631775 141.03736658096312 L 104.6 141.3 L 109.7 142.2 L 114.7 143.4 L 119.5 144.9 L 124.1 146.7 L 128.6 148.6 L 132.9 150.8 L 137.1 153.2 L 141.1 155.8 L 144.9 158.5 L 146.9 162.7 L 145.4 167.0 L 141.3 169.0 L 137.0 167.5 L 134.0 164.6 Z M 87.9 39.7 L 85.2 43.1 L 79.4 49.9 L 76.3 53.2 L 73.2 56.6 L 69.9 59.9 L 66.6 63.1 L 63.1 66.3 L 61.900030040740965 67.27294864654542 L 65.6 67.0 L 78.0 66.2 L 90.5 65.3 L 103.2 64.4 L 116.1 63.6 L 129.2 62.8 L 142.05014724731444 62.11855278015137 L 140.8 61.0 L 136.8 57.7 L 132.5 54.4 L 128.1 51.0 L 123.5 47.6 L 124.2 45.9 L 129.9 47.7 L 135.2 49.7 L 140.3 52.2 L 145.2 54.8 L 149.8 57.7 L 154.2 60.7 L 155.36606216430664 61.616191673278806 L 155.8 61.6 L 155.8684931755066 62.01095886230469 L 158.4 64.0 L 162.4 67.4 L 166.2 71.0 L 169.8 74.8 L 171.0 79.2 L 168.8 83.3 L 164.4 84.4 L 160.4 82.3 L 157.7 78.5 L 154.7 74.9 L 151.6 71.3 L 148.2 67.8 L 145.6258207321167 65.36883068084717 L 142.8 65.9 L 129.8 68.1 L 116.8 70.1 L 104.0 72.0 L 91.4 73.8 L 78.9 75.4 L 66.6 77.0 L 54.4 78.6 L 42.4 80.0 L 34.518181800842285 80.92727270126343 L 32.7 84.2 L 30.5 81.4 L 27.4 69.6 L 29.4 69.5 L 41.3 68.7 L 53.4 67.9 L 56.385513877868654 67.67975721359252 L 56.8 67.0 L 59.3 63.0 L 64.3 55.2 L 66.7 51.4 L 69.1 47.7 L 73.7 40.3 L 74.88918914794922 38.3 L 15.0 38.3 L 15.0 34.3 L 94.0 34.3 L 94.0 12.3 L 106.0 14.3 L 109.0 16.3 L 106.0 18.1 L 106.0 34.3 L 162.0 34.3 L 172.0 24.3 L 184.0 34.3 L 184.0 38.3 L 88.97058820724487 38.3 Z " />
</g>
</svg>
