<svg xmlns="http://www.w3.org/2000/svg" xmlns:xlink="http://www.w3.org/1999/xlink" version="1.1" baseProfile="full" viewBox="0 0 200 200" width="200" height="200">
<g fill="black">
<path d="M 135.0 176.7 L 155.0 176.7 L 156.2 176.6 L 157.1 176.5 L 157.7 176.3 L 158.0 176.1 L 158.2 176.0 L 158.4 175.8 L 158.5 175.4 L 158.7 174.8 L 158.9 173.9 L 159.0 172.7 L 159.0 77.3 L 171.0 79.3 L 174.0 81.3 L 171.0 83.1 L 171.0 172.7 L 170.8 175.3 L 170.4 177.8 L 169.6 180.2 L 168.3 182.4 L 166.7 184.4 L 164.7 186.1 L 162.4 187.3 L 160.0 188.1 L 157.5 188.6 L 155.0 188.7 L 155.0 182.7 L 135.0 179.7 Z M 82.7 136.7 L 80.8 135.1 L 78.7 133.5 L 76.3 131.9 L 73.8 130.3 L 71.0 128.7 L 67.9 127.0 L 64.7 125.3 L 64.3 125.13999996185302 L 64.3 181.7 L 52.3 187.7 L 52.3 126.2764705657959 L 51.7 127.3 L 47.9 133.0 L 43.8 138.4 L 39.2 143.6 L 34.3 148.6 L 29.0 153.4 L 23.3 157.8 L 17.1 161.8 L 16.0 160.5 L 20.7 155.0 L 25.2 149.6 L 29.4 144.2 L 33.3 138.9 L 36.9 133.5 L 40.1 128.0 L 42.9 122.5 L 45.5 116.8 L 47.7 111.1 L 48.22105264663696 109.3 L 16.5 109.3 L 16.5 105.3 L 52.3 105.3 L 52.3 77.9 L 64.3 79.9 L 67.3 81.9 L 64.3 83.7 L 64.3 105.3 L 75.0 105.3 L 85.0 95.3 L 97.0 105.3 L 97.0 109.3 L 64.3 109.3 L 64.3 122.55526313781738 L 65.4 122.7 L 69.2 123.0 L 72.7 123.5 L 76.1 124.2 L 79.4 124.9 L 82.4 125.8 L 85.3 126.8 L 88.1 127.9 L 90.7 129.1 L 93.2 130.5 L 95.3 134.5 L 94.1 138.9 L 90.1 141.0 L 85.7 139.8 L 84.3 138.3 Z M 124.0 88.7 L 127.0 90.7 L 124.0 92.5 L 124.0 161.0 L 112.0 167.0 L 112.0 86.7 Z M 42.8 23.7 L 157.1 23.7 L 163.1 18.7 L 174.1 27.7 L 169.1 31.7 L 169.1 69.0 L 157.1 75.0 L 157.1 27.7 L 42.8 27.7 L 42.8 70.3 L 30.8 76.3 L 30.8 17.7 Z M 108.17362632751465 35.67582416534424 L 107.9 37.5 L 105.6 43.1 L 102.55458936691284 47.66811590194702 L 102.9 47.7 L 109.0 48.5 L 114.8 49.6 L 120.2 50.8 L 125.3 52.1 L 130.0 53.6 L 134.4 55.1 L 138.4 56.8 L 142.2 58.6 L 145.7 60.5 L 148.0 64.4 L 147.1 68.8 L 143.2 71.2 L 138.7 70.2 L 136.3 68.3 L 133.4 66.2 L 130.1 64.2 L 126.4 62.1 L 122.3 60.0 L 117.8 57.9 L 112.9 55.8 L 107.6 53.7 L 102.0 51.4 L 99.88235292434692 50.51764707565307 L 97.7 52.7 L 92.3 56.6 L 85.9 60.2 L 78.6 63.3 L 70.4 66.0 L 61.2 68.2 L 50.9 70.0 L 50.5 68.2 L 60.1 64.6 L 68.6 60.9 L 75.9 57.3 L 82.2 53.5 L 87.3 49.8 L 91.3 46.0 L 94.1 42.2 L 95.9 38.6 L 96.8 35.1 L 96.8 29.1 L 108.8 31.5 L 111.8 33.5 Z " />
</g>
</svg>
