<svg xmlns="http://www.w3.org/2000/svg" xmlns:xlink="http://www.w3.org/1999/xlink" version="1.1" baseProfile="full" viewBox="0 0 200 200" width="200" height="200">
<g fill="black">
<path d="M 166.8 170.3 L 162.6 165.6 L 158.6 160.5 L 155.0 155.2 L 151.8 149.7 L 148.8 143.8 L 146.2 137.7 L 146.0 137.08095235824584 L 146.0 181.5 L 134.0 187.5 L 134.0 141.3704545021057 L 130.5 146.7 L 125.6 153.0 L 120.4 158.8 L 114.8 164.2 L 108.8 169.2 L 102.4 173.7 L 95.6 177.6 L 88.4 180.9 L 87.5 179.4 L 93.5 174.5 L 99.2 169.4 L 104.5 164.3 L 109.4 158.9 L 114.0 153.3 L 118.2 147.4 L 122.0 141.2 L 125.5 134.8 L 128.6 128.0 L 129.65 125.2 L 101.0 125.2 L 101.0 121.2 L 134.0 121.2 L 134.0 93.7 L 146.0 95.7 L 149.0 97.7 L 146.0 99.5 L 146.0 121.2 L 164.0 121.2 L 174.0 111.2 L 186.0 121.2 L 186.0 125.2 L 146.0 125.2 L 146.0 126.57297296524048 L 147.9 129.5 L 151.5 135.0 L 155.0 140.2 L 158.7 145.1 L 162.5 149.7 L 166.5 154.0 L 170.6 158.0 L 174.8 161.7 L 179.3 165.1 L 183.8 168.2 L 187.0 170.6 L 176.1 178.9 L 171.3 174.7 Z M 83.8 155.7 L 81.7 153.0 L 79.4 150.4 L 76.9 147.8 L 74.1 145.2 L 71.1 142.7 L 67.8 140.2 L 66.0 138.91428575515747 L 66.0 181.5 L 54.0 187.5 L 54.0 142.9641025543213 L 52.0 146.4 L 47.7 152.7 L 43.1 158.6 L 38.1 164.1 L 32.7 169.1 L 27.0 173.6 L 20.9 177.5 L 14.4 180.9 L 13.5 179.4 L 18.6 174.5 L 23.5 169.5 L 28.1 164.4 L 32.4 159.1 L 36.3 153.5 L 39.9 147.6 L 43.3 141.5 L 46.2 135.0 L 48.9 128.3 L 49.93333330154419 125.2 L 14.0 125.2 L 14.0 121.2 L 54.0 121.2 L 54.0 93.7 L 66.0 95.7 L 69.0 97.7 L 66.0 99.5 L 66.0 121.2 L 77.0 121.2 L 87.0 111.2 L 99.0 121.2 L 99.0 125.2 L 66.0 125.2 L 66.0 135.01162786483764 L 69.9 136.1 L 74.0 137.6 L 77.9 139.4 L 81.6 141.4 L 85.2 143.6 L 88.5 146.0 L 91.6 148.7 L 94.5 151.5 L 97.2 154.6 L 98.1 159.1 L 95.6 162.9 L 91.2 163.8 L 87.3 161.4 L 85.7 158.5 Z M 93.55053977966308 14.155274772644043 L 102.5 21.9 L 102.8 25.0 L 98.77086877822876 23.25604772567749 L 97.0 23.9 L 92.1 25.3 L 87.0 26.6 L 81.8 27.8 L 76.4 29.0 L 70.8 30.1 L 65.1 31.2 L 59.1 32.1 L 53.0 32.9 L 46.7 33.5 L 46.0 33.54242420196533 L 46.0 54.7 L 75.0 54.7 L 85.0 44.7 L 97.0 54.7 L 97.0 58.7 L 46.0 58.7 L 46.0 82.1 L 154.0 82.1 L 154.0 58.7 L 109.0 58.7 L 109.0 54.7 L 154.0 54.7 L 154.0 31.2 L 110.0 31.2 L 110.0 27.2 L 154.0 27.2 L 160.0 22.2 L 171.0 31.2 L 166.0 35.2 L 166.0 92.1 L 154.0 98.1 L 154.0 86.1 L 46.0 86.1 L 46.0 98.1 L 34.0 104.1 L 34.0 25.0 L 44.588785076141356 30.29439249038696 L 45.9 29.8 L 51.8 27.7 L 57.6 25.7 L 63.2 23.8 L 68.6 21.9 L 73.9 20.1 L 78.9 18.2 L 83.8 16.3 L 88.5 14.5 L 92.12999486923218 12.967335510253907 L 92.1 12.9 L 92.1621307373047 12.953767013549804 L 93.0 12.6 Z " />
</g>
</svg>
