<svg xmlns="http://www.w3.org/2000/svg" xmlns:xlink="http://www.w3.org/1999/xlink" version="1.1" baseProfile="full" viewBox="0 0 200 200" width="200" height="200">
<g fill="black">
<path d="M 165.9 182.1 L 164.1 183.7 L 162.1 185.1 L 160.0 186.3 L 157.9 187.3 L 155.6 188.0 L 153.2 188.5 L 150.8 188.8 L 148.4 189.0 L 148.4 183.0 L 132.4 180.0 L 132.4 177.0 L 148.4 177.0 L 149.8 176.9 L 151.2 176.7 L 152.4 176.4 L 153.5 176.1 L 154.6 175.6 L 155.7 175.0 L 156.6 174.3 L 157.6 173.5 L 158.5 172.5 L 159.4 171.3 L 161.0 168.9 L 162.5 165.5 L 164.1 161.2 L 165.5 156.0 L 166.8 150.0 L 168.1 143.2 L 169.1 135.5 L 170.1 127.0 L 170.9 117.7 L 171.4336633682251 110.0 L 106.61107692718505 110.0 L 105.6 122.4 L 93.2 127.4 L 99.0 54.5 L 110.9 57.4 L 113.7 59.7 L 110.62568960189819 60.764184379577635 L 106.93723077774048 106.0 L 129.6 106.0 L 129.6 33.0 L 88.2 33.0 L 88.2 30.0 L 79.1 30.0 L 79.1 183.0 L 67.1 189.0 L 67.1 140.40333337783812 L 61.3 143.4 L 55.4 146.3 L 49.5 148.9 L 43.8 151.4 L 38.2 153.7 L 32.8 155.9 L 27.4 157.9 L 22.2 159.8 L 21.14736843109131 160.15789470672607 L 19.9 163.9 L 17.2 161.5 L 12.1 150.4 L 14.0 149.9 L 19.1 148.8 L 24.3 147.6 L 26.2 147.1425926208496 L 26.2 30.0 L 13.8 30.0 L 13.8 26.0 L 79.11818180084228 26.0 L 87.3 17.0 L 97.3 26.0 L 97.3 29.0 L 167.21818180084227 29.0 L 175.4 20.0 L 185.4 29.0 L 185.4 33.0 L 141.6 33.0 L 141.6 67.0 L 158.8181818008423 67.0 L 167.0 58.0 L 177.0 67.0 L 177.0 71.0 L 141.6 71.0 L 141.6 106.0 L 171.6 106.0 L 177.6 101.0 L 188.6 110.0 L 183.6 113.0 L 183.21691541671754 113.15961856842041 L 182.9 118.6 L 182.0 128.2 L 181.0 137.0 L 179.9 145.0 L 178.6 152.4 L 177.2 158.9 L 175.5 164.8 L 173.7 170.0 L 171.6 174.5 L 169.1 178.5 L 167.6 180.4 Z M 38.2 106.0 L 38.2 144.15 L 41.1 143.4 L 47.0 141.8 L 53.1 140.1 L 59.4 138.4 L 66.0 136.7 L 67.1 136.44117650985717 L 67.1 106.0 Z M 38.2 68.0 L 38.2 102.0 L 67.1 102.0 L 67.1 68.0 Z M 38.2 30.0 L 38.2 64.0 L 67.1 64.0 L 67.1 30.0 Z " />
</g>
</svg>
