<svg xmlns="http://www.w3.org/2000/svg" xmlns:xlink="http://www.w3.org/1999/xlink" version="1.1" baseProfile="full" viewBox="0 0 200 200" width="200" height="200">
<g fill="black">
<path d="M 99.4 61.5 L 131.0 61.5 L 131.0 42.8 L 143.0 44.8 L 146.0 46.8 L 143.0 48.6 L 143.0 61.5 L 165.9 61.5 L 175.9 51.5 L 187.9 61.5 L 187.9 65.5 L 99.4 65.5 L 99.4 86.9 L 116.9 86.9 L 116.9 69.0 L 128.9 71.0 L 131.9 73.0 L 128.9 74.8 L 128.9 86.9 L 154.4 86.9 L 154.4 69.0 L 166.4 71.0 L 169.4 73.0 L 166.4 74.8 L 166.4 86.9 L 168.4181818008423 86.9 L 176.6 77.9 L 186.6 86.9 L 186.6 90.9 L 166.4 90.9 L 166.4 118.3 L 154.4 124.3 L 154.4 116.3 L 128.9 116.3 L 128.9 119.3 L 116.9 125.3 L 116.9 90.9 L 99.4 90.9 L 99.4 116.8 L 98.9 126.4 L 98.0 135.6 L 96.6 144.2 L 94.9 152.3 L 92.7 159.9 L 90.0 166.9 L 86.9 173.4 L 83.3 179.2 L 79.2 184.3 L 74.7 188.7 L 73.3 187.5 L 76.1 182.2 L 78.6 176.6 L 80.9 170.7 L 82.8 164.4 L 84.5 157.7 L 85.8 150.5 L 86.7 142.8 L 87.3 134.6 L 87.5 126.0 L 87.4 116.8 L 87.4 55.5 Z M 14.7 171.4 L 20.3 170.2625 L 20.3 116.6 L 31.3 118.6 L 34.0 120.6 L 31.3 122.32340421676636 L 31.3 167.84615383148193 L 34.1 167.2 L 40.5 165.7 L 43.1 165.05 L 43.1 99.9 L 31.8 99.9 L 31.8 102.9 L 19.8 108.9 L 19.8 50.6 L 31.8 56.6 L 63.1 56.6 L 69.1 51.6 L 80.1 60.6 L 75.1 64.6 L 75.1 105.9 L 63.1 111.9 L 63.1 99.9 L 54.1 99.9 L 54.1 129.5 L 63.977777767181394 129.5 L 70.2 122.5 L 78.2 129.5 L 78.2 133.5 L 54.1 133.5 L 54.1 162.3140625 L 59.8 160.8 L 72.8 157.6 L 79.4 156.1 L 80.0 157.8 L 74.1 161.1 L 68.1 164.2 L 62.0 167.0 L 55.8 169.7 L 49.5 172.2 L 43.2 174.6 L 36.8 176.9 L 24.0 181.1 L 21.494450092315674 181.83239154815675 L 20.2 185.5 L 17.5 183.0 L 12.7 171.9 Z M 152.5 167.4 L 162.5 167.4 L 163.7 167.3 L 164.6 167.1 L 165.2 166.9 L 165.6 166.8 L 165.7 166.6 L 165.9 166.4 L 166.1 166.1 L 166.3 165.5 L 166.4 164.6 L 166.5 163.4 L 166.5 138.5 L 147.7 138.5 L 147.7 182.7 L 135.7 188.7 L 135.7 138.5 L 117.5 138.5 L 117.5 175.3 L 105.5 181.3 L 105.5 128.5 L 117.5 134.5 L 135.7 134.5 L 135.7 119.9 L 147.7 121.9 L 150.7 123.9 L 147.7 125.7 L 147.7 134.5 L 166.5 134.5 L 172.5 129.5 L 183.5 138.5 L 178.5 142.5 L 178.5 163.4 L 178.3 165.9 L 177.9 168.4 L 177.1 170.8 L 175.9 173.1 L 174.2 175.1 L 172.2 176.7 L 169.9 178.0 L 167.5 178.8 L 165.0 179.2 L 162.5 179.4 L 162.5 173.4 L 152.5 170.4 Z M 128.9 90.9 L 128.9 112.3 L 154.4 112.3 L 154.4 90.9 Z M 31.8 60.6 L 31.8 95.9 L 63.1 95.9 L 63.1 60.6 Z M 134.0 13.2 L 137.0 15.2 L 134.0 17.0 L 134.0 31.0 L 165.0 31.0 L 175.0 21.0 L 187.0 31.0 L 187.0 35.0 L 134.0 35.0 L 134.0 39.3 L 122.0 45.3 L 122.0 35.0 L 78.0 35.0 L 78.0 45.7 L 66.0 51.7 L 66.0 35.0 L 13.0 35.0 L 13.0 31.0 L 66.0 31.0 L 66.0 11.2 L 78.0 13.2 L 81.0 15.2 L 78.0 17.0 L 78.0 31.0 L 122.0 31.0 L 122.0 11.2 Z " />
</g>
</svg>
