<svg xmlns="http://www.w3.org/2000/svg" xmlns:xlink="http://www.w3.org/1999/xlink" version="1.1" baseProfile="full" viewBox="0 0 200 200" width="200" height="200">
<g fill="black">
<path d="M 103.7 175.0 L 114.4 175.0 L 114.8 174.9 L 115.1 174.8 L 115.4 174.5 L 115.6 174.2 L 115.8 173.6 L 116.0 172.7 L 116.2 171.5 L 116.2 141.3 L 92.9 141.3 L 92.9 180.3 L 81.9 185.8 L 81.9 76.0 L 92.9 81.5 L 116.2 81.5 L 121.2 76.5 L 131.2 85.5 L 126.2 88.5 L 126.2 170.0 L 126.1 172.4 L 125.8 174.6 L 125.3 176.7 L 124.5 178.7 L 123.4 180.5 L 121.8 182.2 L 120.0 183.5 L 118.0 184.4 L 115.9 184.9 L 113.7 185.0 L 113.7 180.0 L 103.7 177.5 Z M 179.7 145.1 L 181.7 145.1 L 179.7 170.1 L 183.2 172.5 L 185.7 176.1 L 183.2 179.7 L 179.7 182.1 L 150.3 182.1 L 147.7 181.9 L 145.3 181.4 L 142.9 180.5 L 140.7 179.3 L 138.7 177.6 L 137.1 175.6 L 136.0 173.4 L 135.3 171.0 L 134.9 168.6 L 134.8 166.1 L 134.8 101.4 L 145.8 103.4 L 148.5 105.4 L 145.8 107.12340421676636 L 145.8 136.9888889312744 L 147.4 135.7 L 151.0 133.0 L 154.4 130.4 L 157.6 127.8 L 160.7 125.2 L 163.6 122.7 L 166.4 120.3 L 171.3 115.4 L 171.33760328292846 115.44435262680054 L 171.5 115.3 L 179.1 124.6 L 179.5 128.2 L 175.69426755905153 126.88529243469239 L 172.7 128.7 L 169.3 130.7 L 165.7 132.7 L 162.0 134.6 L 158.1 136.5 L 154.0 138.3 L 149.7 139.9 L 145.8 141.3181818008423 L 145.8 166.1 L 145.9 167.4 L 146.1 168.3 L 146.6 169.3 L 146.9 169.5 L 147.5 169.8 L 148.1 169.9 L 149.0 170.1 L 173.7 170.1 Z M 65.6 158.2 L 65.1 154.2 L 64.5 150.3 L 64.43679523468018 150.0190899848938 L 62.8 151.5 L 58.3 155.1 L 53.7 158.4 L 48.9 161.6 L 38.9 167.6 L 33.8 170.4 L 28.6 173.1 L 23.2 175.7 L 21.6061674118042 176.43788547515868 L 20.8 180.2 L 17.8 178.2 L 11.6 167.7 L 13.5 167.0 L 18.9 165.2 L 24.3 163.2 L 34.9 159.2 L 40.1 157.1 L 40.3 157.01538457870484 L 40.3 112.0 L 28.1 112.0 L 28.1 124.0 L 17.1 129.5 L 17.1 47.5 L 28.1 53.0 L 40.3 53.0 L 40.3 13.0 L 50.3 15.0 L 52.8 17.0 L 50.3 18.66666669845581 L 50.3 53.0 L 63.1 53.0 L 68.1 48.0 L 78.1 57.0 L 73.1 60.0 L 73.1 112.0 L 63.1 117.0 L 63.1 112.0 L 50.3 112.0 L 50.3 152.78461542129517 L 50.5 152.7 L 55.6 150.5 L 60.8 148.3 L 63.783975791931155 147.11766996383668 L 63.6 146.3 L 62.5 142.4 L 61.2 138.4 L 59.7 134.4 L 58.1 130.3 L 56.2 126.3 L 57.6 125.2 L 60.9 128.5 L 64.0 131.9 L 66.7 135.6 L 69.1 139.5 L 71.2 143.5 L 73.1 147.6 L 74.7 151.9 L 76.0 156.4 L 77.1 160.9 L 77.8 165.6 L 76.3 169.9 L 72.2 171.9 L 67.9 170.4 L 65.9 166.3 L 65.8 162.3 Z M 92.9 113.4 L 92.9 137.3 L 116.2 137.3 L 116.2 113.4 Z M 92.9 85.5 L 92.9 109.4 L 116.2 109.4 L 116.2 85.5 Z M 28.1 57.0 L 28.1 108.0 L 40.3 108.0 L 40.3 57.0 Z M 50.3 57.0 L 50.3 108.0 L 63.1 108.0 L 63.1 57.0 Z M 179.7 60.5 L 181.7 60.5 L 179.7 85.5 L 183.2 87.9 L 185.7 91.5 L 183.2 95.1 L 179.7 97.5 L 150.3 97.5 L 147.7 97.3 L 145.3 96.8 L 142.9 96.0 L 140.7 94.7 L 138.7 93.1 L 137.1 91.1 L 136.0 88.8 L 135.3 86.4 L 134.9 84.0 L 134.8 81.5 L 134.8 16.9 L 145.8 18.9 L 148.5 20.9 L 145.8 22.623404216766357 L 145.8 52.444444465637204 L 151.0 48.4 L 154.4 45.8 L 157.6 43.2 L 160.7 40.7 L 163.6 38.2 L 166.4 35.7 L 171.3 30.8 L 171.33760328292846 30.844352626800536 L 171.5 30.7 L 179.1 40.0 L 179.5 43.6 L 175.7037036895752 42.28855218887329 L 172.7 44.2 L 169.3 46.2 L 165.7 48.1 L 162.0 50.0 L 158.1 51.9 L 154.0 53.7 L 149.7 55.4 L 145.8 56.729545497894286 L 145.8 81.5 L 145.9 82.8 L 146.1 83.7 L 146.4 84.4 L 146.6 84.7 L 146.9 84.9 L 147.1 85.1 L 147.5 85.2 L 148.1 85.4 L 149.0 85.5 L 173.7 85.5 Z M 121.8 61.4 L 121.2287356376648 58.70689659118652 L 117.6 60.3 L 113.3 61.9 L 109.0 63.6 L 104.5 65.1 L 95.3 68.3 L 90.5 69.9 L 85.6 71.5 L 84.64032640457154 71.83294801712036 L 83.4 75.5 L 80.7 73.2 L 75.7 62.1 L 77.6 61.6 L 82.8 60.5 L 85.70967512130737 59.97625846862793 L 85.8 59.5 L 87.1 53.8 L 88.4 48.4 L 89.8 43.1 L 91.2 38.1 L 92.5 33.1 L 93.8 28.3 L 95.0 23.7 L 96.2 19.2 L 97.14567766189575 15.811321830749511 L 97.1 15.8 L 97.9 13.4 L 108.8 18.7 L 111.0 21.6 L 107.2157024383545 22.39669418334961 L 107.0 22.9 L 105.2 27.2 L 103.3 31.7 L 101.3 36.2 L 99.2 40.9 L 96.9 45.7 L 94.6 50.7 L 92.1 55.7 L 90.27074117660523 59.15526657104492 L 92.8 58.7 L 97.7 57.8 L 102.5 57.0 L 107.2 56.3 L 111.8 55.7 L 116.4 55.2 L 120.35559844970703 54.93629341125488 L 120.3 54.7 L 119.3 51.3 L 118.2 47.8 L 116.9 44.3 L 115.6 40.6 L 114.2 36.8 L 112.4 33.1 L 113.9 32.1 L 119.5 38.3 L 122.0 41.5 L 124.4 44.7 L 126.5 48.0 L 128.4 51.4 L 130.2 54.8 L 131.8 58.3 L 133.2 61.8 L 134.5 65.4 L 133.6 69.9 L 129.9 72.5 L 125.4 71.7 L 122.7 67.9 L 122.3 64.7 Z " />
</g>
</svg>
