<svg xmlns="http://www.w3.org/2000/svg" xmlns:xlink="http://www.w3.org/1999/xlink" version="1.1" baseProfile="full" viewBox="0 0 200 200" width="200" height="200">
<g fill="black">
<path d="M 140.4 105.0 L 143.4 107.0 L 140.4 108.8 L 140.4 124.0 L 139.4 134.1 L 137.2 143.6 L 133.8 152.3 L 129.1 160.2 L 123.2 167.3 L 116.1 173.4 L 108.0 178.7 L 98.8 183.0 L 88.5 186.4 L 77.2 188.8 L 76.7 187.1 L 87.2 182.8 L 96.5 178.2 L 104.5 173.1 L 111.3 167.6 L 116.8 161.6 L 121.3 155.2 L 124.6 148.3 L 126.9 140.8 L 128.1 132.7 L 128.4 124.0 L 128.4 103.0 Z M 169.7 179.7 L 167.5 177.0 L 164.8 174.2 L 161.7 171.3 L 158.2 168.3 L 154.2 165.2 L 149.9 162.0 L 145.1 158.7 L 140.0 155.2 L 140.8 153.6 L 146.7 155.5 L 152.3 157.6 L 157.5 159.8 L 162.2 162.1 L 166.6 164.6 L 170.6 167.1 L 174.2 169.7 L 177.5 172.4 L 180.4 175.2 L 182.9 178.2 L 183.6 182.7 L 181.1 186.5 L 176.6 187.2 L 172.8 184.7 L 171.5 182.2 Z M 71.5 158.3 L 71.0 154.4 L 70.2 150.4 L 70.02727270126343 149.70909090042113 L 67.7 151.6 L 62.7 155.2 L 57.5 158.5 L 52.2 161.7 L 46.8 164.7 L 41.2 167.7 L 35.5 170.5 L 29.7 173.2 L 23.9 175.8 L 21.693907260894775 176.71920528411866 L 20.8 180.4 L 17.9 178.3 L 12.0 167.6 L 13.9 167.0 L 19.9 165.1 L 25.8 163.2 L 31.7 161.2 L 37.5 159.1 L 42.7 157.1842104911804 L 42.7 112.0 L 29.6 112.0 L 29.6 124.0 L 17.6 130.0 L 17.6 47.0 L 29.6 53.0 L 42.7 53.0 L 42.7 13.0 L 54.7 15.0 L 57.7 17.0 L 54.7 18.8 L 54.7 53.0 L 67.7 53.0 L 73.7 48.0 L 84.7 57.0 L 79.7 61.0 L 79.7 112.0 L 67.7 118.0 L 67.7 112.0 L 54.7 112.0 L 54.7 152.56071424484253 L 60.2 150.4 L 65.9 148.2 L 69.34758062362671 146.99032258987427 L 69.2 146.4 L 68.0 142.5 L 66.5 138.5 L 64.8 134.5 L 62.9 130.4 L 60.7 126.3 L 62.1 125.2 L 65.6 128.4 L 68.9 131.8 L 71.8 135.5 L 74.5 139.3 L 76.8 143.3 L 78.8 147.5 L 80.5 151.8 L 81.9 156.3 L 83.0 160.9 L 83.8 165.5 L 82.3 169.9 L 78.3 171.9 L 74.0 170.4 L 71.9 166.4 L 71.8 162.3 Z M 105.2 90.0 L 161.5 90.0 L 167.5 85.0 L 178.5 94.0 L 173.5 98.0 L 173.5 154.4 L 161.5 160.4 L 161.5 94.0 L 105.2 94.0 L 105.2 156.1 L 93.2 162.1 L 93.2 84.0 Z M 29.6 57.0 L 29.6 108.0 L 42.7 108.0 L 42.7 57.0 Z M 54.7 57.0 L 54.7 108.0 L 67.7 108.0 L 67.7 57.0 Z M 159.3 43.0 L 162.1 45.0 L 159.3 46.75 L 159.3 63.0 L 165.7 63.0 L 175.7 53.0 L 187.7 63.0 L 187.7 67.0 L 159.3 67.0 L 159.3 81.2 L 148.3 86.7 L 148.3 67.0 L 118.3 67.0 L 118.3 81.2 L 107.3 86.7 L 107.3 67.0 L 85.2 67.0 L 85.2 63.0 L 107.3 63.0 L 107.3 41.0 L 118.3 43.0 L 121.1 45.0 L 118.3 46.75 L 118.3 63.0 L 148.3 63.0 L 148.3 41.0 Z M 138.3 14.0 L 140.8 16.0 L 138.3 17.66666669845581 L 138.3 31.0 L 158.5 31.0 L 168.5 21.0 L 180.5 31.0 L 180.5 35.0 L 138.3 35.0 L 138.3 49.5 L 128.3 54.5 L 128.3 35.0 L 87.2 35.0 L 87.2 31.0 L 128.3 31.0 L 128.3 12.0 Z " />
</g>
</svg>
