<svg xmlns="http://www.w3.org/2000/svg" xmlns:xlink="http://www.w3.org/1999/xlink" version="1.1" baseProfile="full" viewBox="0 0 200 200" width="200" height="200">
<g fill="black">
<path d="M 29.3 133.0 L 61.2 133.0 L 67.2 128.0 L 78.2 137.0 L 73.2 141.0 L 73.2 179.0 L 61.2 185.0 L 61.2 175.0 L 29.3 175.0 L 29.3 182.0 L 17.3 188.0 L 17.3 127.0 Z M 187.5 173.0 L 187.5 177.0 L 80.9 177.0 L 80.9 173.0 L 165.5 173.0 L 175.5 163.0 Z M 29.3 137.0 L 29.3 171.0 L 61.2 171.0 L 61.2 137.0 Z M 114.6 54.3 L 158.6 54.3 L 164.6 49.3 L 175.6 58.3 L 170.6 62.3 L 170.6 150.6 L 158.6 156.6 L 158.6 144.6 L 114.6 144.6 L 114.6 156.6 L 102.6 162.6 L 102.6 48.3 Z M 114.6 100.2 L 114.6 140.6 L 158.6 140.6 L 158.6 100.2 Z M 73.0 108.0 L 73.0 112.0 L 17.5 112.0 L 17.5 108.0 L 51.0 108.0 L 61.0 98.0 Z M 114.6 58.3 L 114.6 96.2 L 158.6 96.2 L 158.6 58.3 Z M 73.0 82.0 L 73.0 86.0 L 17.5 86.0 L 17.5 82.0 L 51.0 82.0 L 61.0 72.0 Z M 81.8 54.0 L 81.8 58.0 L 13.6 58.0 L 13.6 54.0 L 59.8 54.0 L 69.8 44.0 Z M 73.0 28.0 L 73.0 32.0 L 17.5 32.0 L 17.5 28.0 L 51.0 28.0 L 61.0 18.0 Z M 183.6 28.0 L 183.6 32.0 L 90.5 32.0 L 90.5 28.0 L 161.6 28.0 L 171.6 18.0 Z " />
</g>
</svg>
