<svg xmlns="http://www.w3.org/2000/svg" xmlns:xlink="http://www.w3.org/1999/xlink" version="1.1" baseProfile="full" viewBox="0 0 200 200" width="200" height="200">
<g fill="black">
<path d="M 42.4 148.8 L 44.6 151.7 L 40.7615385055542 152.50809717178345 L 40.5 153.1 L 38.3 157.4 L 36.0 161.6 L 33.5 165.7 L 30.7 169.8 L 27.7 173.8 L 24.5 177.7 L 21.1 181.5 L 17.3 185.1 L 13.3 188.5 L 11.9 187.4 L 14.5 182.8 L 16.9 178.4 L 19.2 174.0 L 21.5 169.8 L 23.5 165.6 L 25.4 161.4 L 27.0 157.3 L 28.5 153.1 L 29.9 149.1 L 30.754886627197266 145.9136043548584 L 30.7 145.9 L 31.5 143.5 Z M 61.6 167.3 L 60.7 164.5 L 59.7 161.8 L 58.5 159.0 L 57.2 156.3 L 55.8 153.5 L 54.2 150.7 L 52.5 147.9 L 50.5 145.3 L 51.7 144.0 L 54.4 146.0 L 57.3 147.9 L 60.0 150.0 L 62.6 152.3 L 64.9 154.8 L 67.1 157.4 L 69.2 160.2 L 71.0 163.1 L 72.8 166.1 L 74.3 169.2 L 73.9 173.8 L 70.5 176.8 L 65.9 176.4 L 62.9 173.0 L 62.3 170.1 Z M 30.4 22.5 L 58.4 22.5 L 64.4 17.5 L 75.4 26.5 L 70.4 30.5 L 70.4 134.8 L 58.4 140.8 L 58.4 134.8 L 30.4 134.8 L 30.4 137.8 L 18.4 143.8 L 18.4 16.5 Z M 117.5 107.4 L 117.5 135.8 L 140.4 135.8 L 140.4 107.4 Z M 30.4 97.2 L 30.4 130.8 L 58.4 130.8 L 58.4 97.2 Z M 169.8 117.3 L 166.1 113.0 L 162.6 108.5 L 161.1 106.31818180084228 L 161.1 107.4 L 152.4 107.4 L 152.4 135.8 L 157.9 135.8 L 167.9 125.8 L 179.9 135.8 L 179.9 139.8 L 152.4 139.8 L 152.4 182.6 L 140.4 188.6 L 140.4 139.8 L 117.33561639785766 139.8 L 116.9 145.1 L 115.4 152.0 L 113.3 158.4 L 110.3 164.4 L 106.7 169.8 L 102.3 174.7 L 97.3 179.1 L 91.6 182.8 L 85.3 185.9 L 78.4 188.3 L 77.7 186.7 L 83.5 182.6 L 88.5 178.4 L 92.9 174.2 L 96.6 169.7 L 99.6 165.1 L 102.0 160.2 L 103.8 155.1 L 104.9 149.7 L 105.5 143.9 L 105.5 139.8 L 78.0 139.8 L 78.0 135.8 L 105.5 135.8 L 105.5 107.4 L 97.91896553039551 107.4 L 97.0 108.7 L 92.6 114.3 L 87.9 119.5 L 83.0 124.4 L 77.6 128.8 L 71.9 132.7 L 70.7 131.3 L 75.0 126.1 L 79.0 120.8 L 82.9 115.4 L 86.5 109.8 L 89.9 104.1 L 93.0 98.2 L 95.9 92.1 L 98.6 85.8 L 101.0 79.2 L 101.875 76.4 L 72.7 76.4 L 72.7 72.4 L 102.9 72.4 L 102.9 44.7 L 80.7 44.7 L 80.7 40.7 L 102.9 40.7 L 102.9 12.0 L 114.9 14.0 L 117.9 16.0 L 114.9 17.8 L 114.9 40.7 L 143.1 40.7 L 143.1 12.0 L 155.1 14.0 L 158.1 16.0 L 155.1 17.8 L 155.1 40.7 L 159.01818180084229 40.7 L 167.2 31.7 L 177.2 40.7 L 177.2 44.7 L 155.1 44.7 L 155.1 72.4 L 163.2 72.4 L 173.2 62.4 L 185.2 72.4 L 185.2 76.4 L 150.0176470756531 76.4 L 152.7 80.0 L 156.2 84.8 L 159.7 89.5 L 163.2 93.9 L 166.8 98.0 L 170.4 101.9 L 174.2 105.5 L 178.0 108.8 L 181.9 111.9 L 185.9 114.7 L 188.8 116.9 L 177.9 125.2 L 173.7 121.4 Z M 111.6 83.4 L 108.4 90.2 L 104.9 96.7 L 101.1 102.9 L 100.74655170440674 103.4 L 139.1 103.4 L 149.1 93.4 L 157.22307691574096 100.1692307472229 L 156.3 98.6 L 153.5 93.3 L 151.0 87.7 L 148.9 81.8 L 147.5064516067505 76.4 L 114.45915489196777 76.4 Z M 30.4 61.8 L 30.4 93.2 L 58.4 93.2 L 58.4 61.8 Z M 114.9 44.7 L 114.9 72.4 L 143.1 72.4 L 143.1 44.7 Z M 30.4 26.5 L 30.4 57.8 L 58.4 57.8 L 58.4 26.5 Z " />
</g>
</svg>
