<svg xmlns="http://www.w3.org/2000/svg" xmlns:xlink="http://www.w3.org/1999/xlink" version="1.1" baseProfile="full" viewBox="0 0 200 200" width="200" height="200">
<g fill="black">
<path d="M 148.5 177.7 L 168.5 177.7 L 169.7 177.6 L 170.6 177.5 L 171.2 177.3 L 171.5 177.1 L 171.7 176.9 L 171.9 176.8 L 172.1 176.4 L 172.2 175.8 L 172.4 174.9 L 172.5 173.7 L 172.5 121.7 L 149.5158878326416 121.7 L 149.3 129.4 L 148.7 139.4 L 147.6 148.7 L 146.3 157.2 L 144.5 164.9 L 142.3 171.9 L 139.8 178.1 L 136.8 183.5 L 133.4 187.9 L 129.6 191.3 L 128.4 190.2 L 130.5 186.0 L 132.5 181.3 L 134.2 176.0 L 135.7 170.0 L 136.9 163.3 L 137.8 155.9 L 138.5 147.8 L 138.8 138.9 L 138.9 129.2 L 138.7 118.8 L 138.76326704025269 118.79941959381104 L 138.7 118.7 L 138.7 19.9 L 149.7 25.4 L 172.5 25.4 L 178.5 20.4 L 189.5 29.4 L 184.5 33.4 L 184.5 173.7 L 184.3 176.2 L 183.9 178.7 L 183.1 181.1 L 181.9 183.4 L 180.2 185.4 L 178.2 187.1 L 175.9 188.3 L 173.5 189.1 L 171.0 189.5 L 168.5 189.7 L 168.5 183.7 L 148.5 180.7 Z M 17.8 146.0 L 22.3 144.5 L 27.2 143.0 L 32.2 141.4 L 37.6 139.8 L 43.2 138.1 L 43.6 137.98275861740112 L 43.6 106.0 L 34.0 106.0 L 26.0 114.0 L 16.0 104.0 L 22.8861834526062 98.2615138053894 L 30.53555784225464 50.0 L 16.1 50.0 L 16.1 46.0 L 31.169551658630372 46.0 L 36.4 13.0 L 47.9 16.9 L 50.6 19.3 L 47.356582450866696 20.34034147262573 L 43.30352268218994 46.0 L 52.2 46.0 L 62.2 36.0 L 74.2 46.0 L 74.2 50.0 L 42.671704578399655 50.0 L 34.458068180084226 102.0 L 43.6 102.0 L 43.6 67.0 L 55.6 69.0 L 58.6 71.0 L 55.6 72.8 L 55.6 102.0 L 60.7777777671814 102.0 L 67.0 95.0 L 75.0 102.0 L 75.0 106.0 L 55.6 106.0 L 55.6 134.69375 L 61.6 133.1 L 68.3 131.5 L 75.4 130.1 L 76.0 131.8 L 69.6 135.1 L 63.4 138.1 L 57.4 140.9 L 55.6 141.73793106079103 L 55.6 183.0 L 43.6 189.0 L 43.6 147.2320755004883 L 40.8 148.5 L 35.8 150.8 L 31.0 153.0 L 26.5 155.1 L 26.017673397064208 155.3296792984009 L 25.2 159.2 L 22.3 157.1 L 15.9 146.8 Z M 99.0 176.2 L 113.0 176.2 L 113.9 176.1 L 114.6 176.0 L 115.2 175.7 L 115.6 175.3 L 115.8 174.8 L 116.0 174.1 L 116.1 173.0 L 116.2 171.7 L 116.2 121.7 L 94.58679246902466 121.7 L 94.3 129.3 L 93.5 139.1 L 92.5 148.3 L 91.1 156.7 L 89.4 164.4 L 87.4 171.4 L 85.0 177.7 L 82.3 183.1 L 79.1 187.7 L 75.6 191.3 L 74.1 190.2 L 75.8 185.8 L 77.4 181.0 L 78.8 175.6 L 80.0 169.5 L 81.1 162.8 L 81.9 155.4 L 82.5 147.3 L 82.8 138.5 L 82.9 129.0 L 82.7 118.7 L 82.7 19.4 L 94.7 25.4 L 116.2 25.4 L 121.7 20.4 L 132.2 29.4 L 127.2 32.9 L 127.2 171.7 L 127.1 174.1 L 126.7 176.4 L 126.1 178.7 L 125.1 180.8 L 123.7 182.8 L 121.9 184.4 L 119.8 185.7 L 117.6 186.5 L 115.3 187.0 L 113.0 187.2 L 113.0 181.7 L 99.0 178.9 Z M 149.7 75.0 L 149.7 117.7 L 172.5 117.7 L 172.5 75.0 Z M 94.7 75.0 L 94.7 117.7 L 116.2 117.7 L 116.2 75.0 Z M 149.7 29.4 L 149.7 71.0 L 172.5 71.0 L 172.5 29.4 Z M 94.7 29.4 L 94.7 71.0 L 116.2 71.0 L 116.2 29.4 Z " />
</g>
</svg>
