<svg xmlns="http://www.w3.org/2000/svg" xmlns:xlink="http://www.w3.org/1999/xlink" version="1.1" baseProfile="full" viewBox="0 0 200 200" width="200" height="200">
<g fill="black">
<path d="M 59.7 15.0 L 62.7 17.0 L 59.7 18.8 L 59.7 40.0 L 71.0 40.0 L 81.0 30.0 L 93.0 40.0 L 93.0 44.0 L 59.7 44.0 L 59.7 63.0 L 74.1 63.0 L 79.6 58.0 L 90.1 67.0 L 85.1 70.5 L 85.1 127.0 L 74.1 132.5 L 74.1 123.0 L 59.7 123.0 L 59.7 146.0 L 72.8 146.0 L 82.8 136.0 L 94.8 146.0 L 94.8 150.0 L 59.7 150.0 L 59.7 183.0 L 47.7 189.0 L 47.7 150.0 L 12.5 150.0 L 12.5 146.0 L 47.7 146.0 L 47.7 123.0 L 33.7 123.0 L 33.7 130.0 L 21.7 136.0 L 21.7 57.0 L 33.7 63.0 L 47.7 63.0 L 47.7 44.0 L 14.3 44.0 L 14.3 40.0 L 47.7 40.0 L 47.7 13.0 Z M 168.5 179.6 L 166.8 181.3 L 164.9 182.8 L 162.8 184.1 L 160.6 185.1 L 158.4 185.9 L 156.0 186.5 L 153.6 186.8 L 151.1 187.0 L 151.1 181.0 L 131.1 178.0 L 131.1 175.0 L 151.1 175.0 L 152.5 174.9 L 153.8 174.7 L 155.0 174.4 L 156.0 174.1 L 157.0 173.6 L 157.9 173.0 L 158.8 172.3 L 159.7 171.5 L 160.5 170.5 L 161.3 169.3 L 161.9 168.2 L 162.6 166.8 L 163.2 165.1 L 163.8 163.1 L 164.3 160.9 L 164.7 158.3 L 165.1 155.6 L 165.5 152.5 L 165.7 149.2 L 165.76857147216796 148.0 L 130.23902435302733 148.0 L 128.6 152.2 L 124.8 159.7 L 120.2 166.6 L 115.0 172.7 L 109.1 178.0 L 102.6 182.5 L 95.5 186.1 L 87.8 188.8 L 87.1 187.1 L 93.6 182.8 L 99.5 178.1 L 104.7 173.1 L 109.3 167.7 L 113.2 161.8 L 116.5 155.4 L 119.3 148.5 L 121.5 141.0 L 123.1 132.9 L 123.77215185165406 127.0 L 92.1 127.0 L 92.1 123.0 L 168.51818180084229 123.0 L 176.7 114.0 L 186.7 123.0 L 186.7 127.0 L 135.74947366714477 127.0 L 134.3 135.1 L 131.8 144.0 L 165.9 144.0 L 171.9 139.0 L 182.9 148.0 L 177.9 151.0 L 177.60909090042114 151.12121210098266 L 177.4 153.7 L 177.1 157.1 L 176.6 160.3 L 176.0 163.3 L 175.4 166.1 L 174.6 168.8 L 173.7 171.3 L 172.7 173.6 L 171.5 175.7 L 170.1 177.7 Z M 33.7 94.0 L 33.7 119.0 L 47.7 119.0 L 47.7 94.0 Z M 59.7 94.0 L 59.7 119.0 L 74.1 119.0 L 74.1 94.0 Z M 95.5 114.5 L 95.5 71.2 L 106.5 76.7 L 171.0 76.7 L 177.0 71.7 L 188.0 80.7 L 183.0 84.7 L 183.0 109.0 L 171.0 115.0 L 171.0 109.0 L 106.5 109.0 Z M 106.5 80.7 L 106.5 105.0 L 120.3 105.0 L 120.3 80.7 Z M 132.3 80.7 L 132.3 105.0 L 145.7 105.0 L 145.7 80.7 Z M 157.7 80.7 L 157.7 105.0 L 171.0 105.0 L 171.0 80.7 Z M 33.7 67.0 L 33.7 90.0 L 47.7 90.0 L 47.7 67.0 Z M 59.7 67.0 L 59.7 90.0 L 74.1 90.0 L 74.1 67.0 Z M 118.5 21.1 L 159.5 21.1 L 165.5 16.1 L 176.5 25.1 L 171.5 29.1 L 171.5 63.0 L 159.5 69.0 L 159.5 63.0 L 118.5 63.0 L 106.5 69.0 L 106.5 15.1 Z M 118.5 43.5 L 118.5 59.0 L 159.5 59.0 L 159.5 43.5 Z M 118.5 25.1 L 118.5 39.5 L 159.5 39.5 L 159.5 25.1 Z " />
</g>
</svg>
