<svg xmlns="http://www.w3.org/2000/svg" xmlns:xlink="http://www.w3.org/1999/xlink" version="1.1" baseProfile="full" viewBox="0 0 200 200" width="200" height="200">
<g fill="black">
<path d="M 173.5 142.1 L 175.0 145.4 L 171.10148725509643 145.26784706115723 L 168.2 149.1 L 162.3 155.6 L 155.9 161.6 L 149.0 167.2 L 141.6 172.2 L 133.7 176.6 L 125.4 180.6 L 116.5 184.0 L 107.1 186.7 L 97.3 188.8 L 96.8 187.1 L 105.9 183.1 L 114.4 179.0 L 122.4 174.7 L 129.9 170.1 L 136.8 165.2 L 143.2 159.9 L 149.0 154.3 L 154.4 148.4 L 159.2 142.1 L 162.91009845733643 136.40543031692505 L 162.9 136.4 L 164.0 134.7 Z M 12.5 168.9 L 18.7 167.41549291610718 L 18.7 101.0 L 30.7 103.0 L 33.7 105.0 L 30.7 106.8 L 30.7 164.3871428489685 L 40.6 161.7 L 43.5 160.83000001907348 L 43.5 80.0 L 30.7 80.0 L 30.7 83.0 L 18.7 89.0 L 18.7 22.0 L 30.7 28.0 L 65.7 28.0 L 71.7 23.0 L 82.7 32.0 L 77.7 36.0 L 77.7 86.0 L 65.7 92.0 L 65.7 80.0 L 55.5 80.0 L 55.5 117.0 L 67.3777777671814 117.0 L 73.6 110.0 L 81.6 117.0 L 81.6 121.0 L 55.5 121.0 L 55.5 157.317142868042 L 61.6 155.4 L 82.9 149.1 L 83.6 150.8 L 77.2 154.6 L 70.7 158.2 L 64.0 161.5 L 57.3 164.7 L 50.5 167.6 L 43.6 170.5 L 29.8 175.7 L 22.8 178.1 L 19.62691764831543 179.17259120941162 L 18.4 182.8 L 15.7 180.5 L 10.6 169.4 Z M 158.1 124.2 L 159.5 127.5 L 155.6205298423767 127.2993377685547 L 153.7 129.7 L 149.0 135.0 L 144.1 140.0 L 138.9 144.6 L 133.4 148.9 L 127.6 152.9 L 121.6 156.5 L 115.4 159.7 L 108.8 162.5 L 101.9 164.8 L 101.2 163.1 L 107.0 159.1 L 112.6 155.1 L 118.0 151.0 L 123.1 146.8 L 127.9 142.4 L 132.5 137.8 L 136.8 133.0 L 140.9 128.0 L 144.7 122.8 L 148.2 117.4 L 148.22286376953124 117.41570434570312 L 148.7 116.7 Z M 164.0 52.7 L 162.7 49.8 L 161.31833686828614 46.944562911987305 L 158.2 48.0 L 151.5 49.9 L 144.8 51.6 L 137.9 53.2 L 131.0 54.6 L 127.28147649765015 55.33323001861572 L 136.7 59.7 L 139.0 62.5 L 135.36000757217408 63.39403324127197 L 133.0 69.9 L 129.99896907806396 77.0 L 163.3 77.0 L 173.3 67.0 L 185.3 77.0 L 185.3 81.0 L 146.34179105758668 81.0 L 150.3 86.1 L 155.1 92.4 L 159.5 98.2 L 163.7 103.4 L 167.7 108.1 L 171.5 112.2 L 175.1 115.7 L 178.5 118.5 L 181.6 120.8 L 184.4 122.4 L 188.2 124.9 L 177.1 133.5 L 173.7 130.5 L 170.3 127.1 L 167.0 123.2 L 163.6 118.7 L 160.3 113.7 L 156.9 108.2 L 153.5 102.1 L 150.0 95.5 L 146.7 88.2 L 143.78354434967042 81.0 L 128.2297872543335 81.0 L 124.4 89.0 L 119.6 98.0 L 114.4 106.6 L 108.8 114.7 L 102.8 122.5 L 96.5 129.7 L 89.6 136.4 L 82.4 142.6 L 81.1 141.3 L 86.8 133.9 L 92.3 126.3 L 97.5 118.6 L 102.4 110.6 L 107.0 102.3 L 111.3 93.7 L 115.3 84.8 L 116.78695650100708 81.0 L 84.5 81.0 L 84.5 77.0 L 118.35217390060424 77.0 L 118.9 75.6 L 122.2 66.0 L 125.2 56.1 L 125.21817893981934 56.10569076538086 L 125.34305467605591 55.71545400619507 L 123.9 56.0 L 116.8 57.3 L 109.7 58.5 L 102.4 59.7 L 99.15913200378418 60.18835000991821 L 97.4 63.6 L 95.1 60.8 L 91.8 49.1 L 93.8 48.9 L 108.16933088302612 47.91579923629761 L 108.8 46.8 L 111.1 42.3 L 113.5 38.1 L 115.7 34.0 L 117.8 30.1 L 119.8 26.4 L 121.7 22.8 L 123.4 19.3 L 125.0 16.0 L 125.97761554718018 13.835279846191407 L 125.9 13.8 L 126.32533330917359 13.065333366394043 L 126.4 12.9 L 126.41588506698608 12.908925914764405 L 127.0 11.9 L 136.9 18.8 L 138.5 22.0 L 134.60174646377564 22.06721124649048 L 132.5 24.9 L 130.0 28.1 L 127.4 31.4 L 124.6 34.7 L 121.6 38.2 L 118.5 41.7 L 115.1 45.3 L 112.803125 47.53307294845581 L 115.6 47.3 L 122.7 46.8 L 129.8 46.2 L 136.8 45.7 L 143.7 45.1 L 150.7 44.6 L 157.5 44.3 L 159.72136754989623 44.2356125831604 L 159.4 43.7 L 157.3 40.5 L 155.0 37.3 L 152.5 34.0 L 149.8 30.6 L 146.8 27.3 L 147.9 25.9 L 155.7 30.7 L 159.2 33.2 L 162.5 35.9 L 165.5 38.6 L 168.3 41.5 L 170.9 44.5 L 173.2 47.5 L 175.3 50.7 L 177.1 53.9 L 177.0 58.5 L 173.8 61.7 L 169.2 61.6 L 166.0 58.4 L 165.1 55.6 Z M 145.6 105.1 L 147.0 108.4 L 143.11247005462647 108.26594724655152 L 142.3 109.3 L 138.8 113.4 L 135.1 117.4 L 131.1 121.2 L 126.9 124.9 L 122.4 128.5 L 117.8 131.9 L 112.8 135.1 L 107.6 138.0 L 102.1 140.7 L 101.0 139.2 L 105.4 135.0 L 113.5 126.9 L 117.4 122.9 L 120.9 118.9 L 124.3 114.9 L 127.5 110.8 L 130.4 106.8 L 133.1 102.6 L 135.0841269493103 99.34603176116943 L 135.0 99.3 L 136.1 97.7 Z M 30.7 32.0 L 30.7 76.0 L 65.7 76.0 L 65.7 32.0 Z " />
</g>
</svg>
