<svg xmlns="http://www.w3.org/2000/svg" xmlns:xlink="http://www.w3.org/1999/xlink" version="1.1" baseProfile="full" viewBox="0 0 200 200" width="200" height="200">
<g fill="black">
<path d="M 20.8 146.0 L 26.1 144.5 L 31.7 142.9 L 37.6 141.4 L 43.7 139.7 L 50.2 138.1 L 51.3 137.825 L 51.3 106.0 L 38.2 106.0 L 30.2 114.0 L 20.2 104.0 L 27.155760955810546 98.20353260040284 L 36.05255470275879 50.0 L 18.4 50.0 L 18.4 46.0 L 36.790823745727536 46.0 L 42.9 12.9 L 54.4 17.0 L 57.0 19.5 L 53.75550737380981 20.47946949005127 L 49.02840909957886 46.0 L 63.9 46.0 L 73.9 36.0 L 85.9 46.0 L 85.9 50.0 L 48.2875 50.0 L 38.65568180084229 102.0 L 51.3 102.0 L 51.3 67.0 L 63.3 69.0 L 66.3 71.0 L 63.3 72.8 L 63.3 102.0 L 68.51818180084229 102.0 L 76.7 93.0 L 86.7 102.0 L 86.7 106.0 L 63.3 106.0 L 63.3 134.89154930114745 L 64.1 134.7 L 71.5 133.1 L 79.2 131.5 L 87.3 130.1 L 87.8 131.8 L 80.3 135.1 L 73.0 138.2 L 66.0 141.0 L 63.3 142.0477611541748 L 63.3 183.0 L 51.3 189.0 L 51.3 146.78064517974855 L 46.6 148.6 L 40.7 150.9 L 35.1 153.1 L 29.8 155.2 L 28.57322225570679 155.71524667739868 L 27.6 159.5 L 24.8 157.3 L 18.9 146.6 Z M 143.3 184.6 L 143.3 131.4 L 129.3 131.4 L 129.3 178.6 L 117.3 184.6 L 117.3 131.4 L 104.5 131.4 L 104.5 180.4 L 92.5 186.4 L 92.5 121.4 L 104.5 127.4 L 124.30454549789428 127.4 L 125.0 125.7 L 126.1 123.6 L 127.1 121.5 L 128.0 119.4 L 129.0 117.3 L 130.55454549789428 113.5 L 89.9 113.5 L 89.9 109.5 L 163.6 109.5 L 173.6 99.5 L 185.6 109.5 L 185.6 113.5 L 143.78709678649903 113.5 L 142.9 114.6 L 141.2 116.6 L 137.6 120.4 L 135.7 122.2 L 133.9 123.9 L 129.9 126.9 L 129.18571424484253 127.4 L 169.2 127.4 L 175.2 122.4 L 186.2 131.4 L 181.2 135.4 L 181.2 172.0 L 181.1 174.6 L 180.6 177.1 L 179.8 179.5 L 178.6 181.7 L 176.9 183.8 L 174.9 185.4 L 172.7 186.6 L 170.3 187.4 L 167.8 187.9 L 165.2 188.0 L 165.2 182.0 L 153.05454549789428 179.72272729873657 Z M 143.3 97.6 L 143.3 44.4 L 129.3 44.4 L 129.3 91.6 L 117.3 97.6 L 117.3 44.4 L 104.5 44.4 L 104.5 93.4 L 92.5 99.4 L 92.5 34.4 L 104.5 40.4 L 124.30454549789428 40.4 L 125.0 38.7 L 126.1 36.6 L 127.1 34.5 L 128.0 32.4 L 129.0 30.3 L 130.55454549789428 26.5 L 89.9 26.5 L 89.9 22.5 L 163.6 22.5 L 173.6 12.5 L 185.6 22.5 L 185.6 26.5 L 143.78709678649903 26.5 L 142.9 27.6 L 141.2 29.6 L 137.6 33.4 L 135.7 35.2 L 133.9 36.9 L 129.9 39.9 L 129.18571424484253 40.4 L 169.2 40.4 L 175.2 35.4 L 186.2 44.4 L 181.2 48.4 L 181.2 85.0 L 181.1 87.6 L 180.6 90.1 L 179.8 92.5 L 178.6 94.7 L 176.9 96.8 L 174.9 98.4 L 172.7 99.6 L 170.3 100.4 L 167.8 100.9 L 165.2 101.0 L 165.2 95.0 L 153.05454549789428 92.72272729873657 Z M 167.3 175.8 L 167.9 175.6 L 168.5 175.3 L 168.6 175.1 L 168.8 174.8 L 169.0 174.2 L 169.1 173.3 L 169.2 172.0 L 169.2 131.4 L 155.3 131.4 L 155.3 176.0 L 166.4 176.0 Z M 167.3 88.8 L 167.9 88.6 L 168.5 88.3 L 168.6 88.1 L 168.8 87.8 L 169.0 87.2 L 169.1 86.3 L 169.2 85.0 L 169.2 44.4 L 155.3 44.4 L 155.3 89.0 L 166.4 89.0 Z " />
</g>
</svg>
