<svg xmlns="http://www.w3.org/2000/svg" xmlns:xlink="http://www.w3.org/1999/xlink" version="1.1" baseProfile="full" viewBox="0 0 200 200" width="200" height="200">
<g fill="black">
<path d="M 48.0 135.9 L 152.0 135.9 L 158.0 130.9 L 169.0 139.9 L 164.0 143.9 L 164.0 178.8 L 152.0 184.8 L 152.0 174.8 L 48.0 174.8 L 48.0 181.8 L 36.0 187.8 L 36.0 129.9 Z M 48.0 139.9 L 48.0 170.8 L 152.0 170.8 L 152.0 139.9 Z M 97.3 20.9 L 98.7 24.2 L 94.73921842575074 24.64839038848877 L 85.54950494766236 38.1 L 153.0 38.1 L 163.0 28.1 L 175.0 38.1 L 175.0 42.1 L 82.81683168411254 42.1 L 59.58910894393921 76.1 L 98.0 76.1 L 98.0 50.9 L 110.0 52.9 L 113.0 54.9 L 110.0 56.7 L 110.0 76.1 L 137.0 76.1 L 147.0 66.1 L 159.0 76.1 L 159.0 80.1 L 110.0 80.1 L 110.0 101.6 L 160.0 101.6 L 170.0 91.6 L 182.0 101.6 L 182.0 105.6 L 110.0 105.6 L 110.0 129.6 L 98.0 135.6 L 98.0 105.6 L 18.0 105.6 L 18.0 101.6 L 98.0 101.6 L 98.0 80.1 L 59.0 80.1 L 51.0 88.1 L 41.0 78.1 L 47.27436485290527 72.8713625907898 L 68.3380952835083 42.1 L 25.0 42.1 L 25.0 38.1 L 71.07619047164917 38.1 L 88.6 12.5 Z " />
</g>
</svg>
