<svg xmlns="http://www.w3.org/2000/svg" xmlns:xlink="http://www.w3.org/1999/xlink" version="1.1" baseProfile="full" viewBox="0 0 200 200" width="200" height="200">
<g fill="black">
<path d="M 104.94859809875489 100.12429904937744 L 107.7 101.5 L 115.1 105.1 L 122.5 108.5 L 130.0 111.8 L 137.7 114.8 L 145.6 117.6 L 153.6 120.1 L 161.9 122.4 L 170.4 124.4 L 179.0 126.2 L 187.9 128.1 L 176.1 139.0 L 167.2 136.5 L 158.5 133.7 L 150.0 130.6 L 141.9 127.1 L 139.0687861442566 125.77398843765259 L 142.7 128.8 L 142.7 132.8 L 107.0 132.8 L 107.0 145.6 L 147.71818180084227 145.6 L 155.9 136.6 L 165.9 145.6 L 165.9 149.6 L 107.0 149.6 L 107.0 176.7 L 157.5 176.7 L 167.5 166.7 L 179.5 176.7 L 179.5 180.7 L 22.4 180.7 L 22.4 176.7 L 95.0 176.7 L 95.0 149.6 L 36.0 149.6 L 36.0 145.6 L 95.0 145.6 L 95.0 132.8 L 59.2 132.8 L 59.2 128.8 L 120.7 128.8 L 128.84491529464722 120.65508470535278 L 126.3 119.3 L 119.0 114.9 L 112.0 110.1 L 105.4 104.9 L 105.09703912734986 104.61690540313721 L 102.93107862472534 103.92070379257203 L 98.9 107.0 L 91.4 112.1 L 83.3 116.9 L 74.9 121.4 L 66.0 125.4 L 56.6 129.1 L 46.9 132.5 L 36.6 135.4 L 26.0 137.9 L 14.8 139.8 L 14.4 138.0 L 24.9 134.2 L 35.0 130.3 L 44.6 126.3 L 53.7 122.2 L 62.3 117.8 L 70.5 113.2 L 78.1 108.4 L 85.3 103.3 L 92.0 98.0 L 93.01454544067383 97.1 L 80.7 97.1 L 80.7 93.1 L 97.51111106872558 93.1 L 98.4 92.3 L 99.06956520080567 93.1 L 124.0 93.1 L 124.0 67.9 L 93.5 67.9 L 93.5 63.9 L 146.2 63.9 L 156.2 53.9 L 168.2 63.9 L 168.2 67.9 L 136.0 67.9 L 136.0 93.1 L 158.1 93.1 L 168.1 83.1 L 180.1 93.1 L 180.1 97.1 L 102.41739130020142 97.1 Z M 150.2 160.1 L 151.0 163.6 L 146.76014318466187 162.70739860534667 L 145.5 163.6 L 143.0 165.3 L 140.4 167.0 L 137.6 168.6 L 134.7 170.3 L 131.7 171.8 L 128.5 173.3 L 125.1 174.8 L 121.8 176.4 L 120.8 174.9 L 123.6 172.5 L 126.0 169.9 L 128.4 167.4 L 130.7 165.0 L 132.8 162.7 L 134.8 160.4 L 136.7 158.2 L 138.4 156.0 L 140.0 153.9 L 140.90948419570924 152.6873543739319 L 140.8 152.6 L 141.8 151.5 Z M 63.3 169.8 L 62.5 168.3 L 61.4 166.6 L 60.0 164.8 L 58.3 162.9 L 56.4 161.0 L 54.3 159.0 L 51.9 156.8 L 49.1 155.0 L 49.9 153.4 L 53.0 154.7 L 56.2 155.6 L 59.2 156.6 L 61.9 157.7 L 64.5 158.9 L 66.9 160.2 L 69.1 161.6 L 71.1 163.1 L 72.9 164.7 L 74.6 166.5 L 75.1 171.1 L 72.4 174.7 L 67.8 175.2 L 64.2 172.5 L 63.9 171.2 Z M 166.4 55.6 L 163.9 54.0 L 160.9 52.3 L 157.4 50.5 L 153.4 48.6 L 148.9 46.6 L 143.9 44.4 L 138.5 42.1 L 136.2481761932373 41.236800861358645 L 135.2 41.8 L 128.3 45.1 L 121.0 48.2 L 113.5 50.9 L 105.7 53.3 L 97.6 55.3 L 89.265882396698 56.78823528289795 L 90.0 57.4 L 90.0 61.4 L 64.2 61.4 L 64.2 73.12666664123535 L 66.1 73.0 L 74.0 72.4 L 82.3 72.1 L 90.8 71.9 L 91.1 73.7 L 82.8 75.8 L 74.8 77.8 L 67.1 79.5 L 64.2 80.08783779144287 L 64.2 97.0 L 52.2 103.0 L 52.2 82.58235292434692 L 45.8 83.9 L 39.3 85.3 L 33.2 86.6 L 27.3 87.8 L 25.91430797576904 88.10233278274536 L 24.3 91.6 L 21.8 89.0 L 18.0 77.4 L 20.0 77.1 L 25.6 76.5 L 31.5 75.9 L 37.8 75.3 L 44.4 74.7 L 51.3 74.1 L 52.2 74.02602739334107 L 52.2 61.4 L 38.1 61.4 L 30.1 69.4 L 23.484827613830568 62.784827613830565 L 23.3 62.8 L 23.35746479034424 62.657464790344235 L 20.1 59.4 L 26.98333330154419 53.663888931274414 L 35.032015800476074 33.7 L 16.2 33.7 L 16.2 29.7 L 36.64466400146485 29.7 L 43.7 12.2 L 54.1 18.5 L 56.1 21.5 L 52.604903316497804 22.21196413040161 L 49.58888893127441 29.7 L 67.1 29.7 L 77.1 19.7 L 89.1 29.7 L 89.1 33.7 L 47.977777767181394 33.7 L 38.43194446563721 57.4 L 52.2 57.4 L 52.2 40.6 L 64.2 42.6 L 67.2 44.6 L 64.2 46.4 L 64.2 57.4 L 68.0 57.4 L 78.0 47.4 L 89.17402601242065 56.711688327789304 L 88.7 55.1 L 96.4 51.7 L 103.8 48.3 L 111.0 44.8 L 117.8 41.3 L 124.4 37.6 L 130.6 33.8 L 136.5 29.8 L 142.2 25.6 L 145.03488368988036 23.3 L 94.4 23.3 L 94.4 19.3 L 149.7222222328186 19.3 L 152.5 16.8 L 152.875 17.2375 L 156.4 14.3 L 167.4 23.3 L 162.4 26.3 L 156.5714285850525 28.72857141494751 L 154.5 30.3 L 148.3 34.4 L 141.9 38.2 L 140.33582706451415 39.04045114517212 L 145.2 39.7 L 150.7 40.7 L 155.6 41.7 L 160.2 42.8 L 164.3 43.9 L 168.0 45.1 L 171.3 46.2 L 174.2 47.5 L 176.8 48.9 L 179.1 52.9 L 177.9 57.3 L 173.9 59.5 L 169.5 58.4 L 168.2 57.1 Z " />
</g>
</svg>
