<svg xmlns="http://www.w3.org/2000/svg" xmlns:xlink="http://www.w3.org/1999/xlink" version="1.1" baseProfile="full" viewBox="0 0 200 200" width="200" height="200">
<g fill="black">
<path d="M 155.2 176.5 L 167.2 176.5 L 168.2 176.4 L 168.9 176.3 L 169.5 176.0 L 169.6 175.8 L 169.8 175.6 L 170.0 175.1 L 170.3 174.4 L 170.4 173.3 L 170.5 172.0 L 170.5 14.0 L 181.5 16.0 L 184.2 18.0 L 181.5 19.723404216766358 L 181.5 172.0 L 181.4 174.4 L 181.0 176.7 L 180.3 179.0 L 179.3 181.1 L 177.9 183.1 L 176.2 184.7 L 174.1 186.0 L 171.9 186.8 L 169.6 187.3 L 167.2 187.5 L 167.2 182.0 L 155.2 179.2 Z M 73.9 57.6 L 85.9 63.6 L 125.3 63.6 L 130.8 58.6 L 141.3 67.6 L 136.3 71.1 L 136.3 127.6 L 126.3 132.6 L 126.3 149.6 L 129.4181818008423 149.6 L 137.6 140.6 L 147.6 149.6 L 147.6 153.6 L 126.3 153.6 L 126.3 180.7 L 114.3 186.7 L 114.3 153.6 L 96.60161294937134 153.6 L 95.7 157.9 L 94.0 163.5 L 91.9 168.7 L 89.4 173.2 L 86.5 177.3 L 83.2 180.6 L 79.6 183.3 L 75.6 185.2 L 71.4 186.4 L 70.7 184.8 L 73.7 182.2 L 76.3 179.4 L 78.5 176.4 L 80.4 173.1 L 82.0 169.5 L 83.4 165.4 L 84.4 160.9 L 85.2 155.9 L 85.40909090042115 153.6 L 63.6 153.6 L 63.6 149.6 L 85.72666664123535 149.6 L 85.9 144.4 L 85.9 130.6 L 73.9 136.6 Z M 63.4 73.0 L 63.4 77.0 L 44.4 77.0 L 44.4 111.0 L 48.418181800842284 111.0 L 56.6 102.0 L 66.6 111.0 L 66.6 115.0 L 44.4 115.0 L 44.4 155.80344829559326 L 50.1 150.3 L 53.2 147.4 L 56.5 144.4 L 59.9 141.5 L 63.3 138.4 L 64.7 139.5 L 62.3 143.5 L 60.1 147.5 L 57.9 151.2 L 55.6 154.8 L 53.4 158.3 L 51.2 161.6 L 49.1 164.8 L 47.0 167.9 L 45.0 170.9 L 44.29133853912354 171.92755908966063 L 44.4 172.0 L 43.888888931274415 172.5111110687256 L 43.0 173.8 L 42.78224849700928 173.61775150299073 L 36.4 180.0 L 26.4 170.0 L 32.4 164.0 L 32.4 115.0 L 11.6 115.0 L 11.6 111.0 L 32.4 111.0 L 32.4 77.0 L 23.7 77.0 L 23.7 73.0 L 45.21818180084229 73.0 L 53.4 64.0 Z M 158.9 40.0 L 161.4 42.0 L 158.9 43.66666669845581 L 158.9 141.5 L 148.9 146.5 L 148.9 38.0 Z M 85.9 104.1 L 85.9 119.6 L 125.3 119.6 L 125.3 104.1 Z M 85.9 85.9 L 85.9 100.1 L 125.3 100.1 L 125.3 85.9 Z M 42.8 17.2 L 45.3 19.8 L 41.77938508987427 21.016212463378906 L 40.5 25.8 L 38.1 34.2 L 35.4 42.3 L 35.15500001907348 43.0 L 47.81818180084228 43.0 L 56.0 34.0 L 66.0 43.0 L 66.0 47.0 L 33.755000019073485 47.0 L 32.6 50.3 L 29.6 58.1 L 26.4 65.6 L 23.0 73.0 L 19.3 80.1 L 15.4 86.9 L 11.1 93.4 L 9.5 92.5 L 11.9 85.2 L 14.4 77.9 L 16.9 70.5 L 19.3 63.0 L 21.6 55.3 L 23.7 47.5 L 25.8 39.5 L 27.7 31.4 L 29.4 23.1 L 31.1 14.6 L 31.11363639831543 14.60303030014038 L 31.5 12.8 Z M 85.9 67.6 L 85.9 81.9 L 125.3 81.9 L 125.3 67.6 Z M 86.1 49.0 L 85.8 47.1 L 84.8 43.3 L 84.1 41.4 L 83.3 39.4 L 81.3 35.2 L 80.26470584869385 34.1 L 80.26122446060181 34.1 L 79.2 36.7 L 77.1 41.4 L 74.7 45.9 L 72.0 50.3 L 69.1 54.4 L 65.9 58.3 L 62.4 61.8 L 60.9 60.8 L 64.5 51.8 L 66.2 47.3 L 67.8 42.8 L 69.2 38.3 L 70.5 33.6 L 71.6 28.9 L 72.5 24.1 L 73.3 19.2 L 73.9 14.2 L 73.93707160949707 14.206230545043946 L 74.2 12.3 L 85.8 16.2 L 88.4 18.6 L 84.85729818344116 20.043322944641112 L 84.5 21.5 L 82.9 26.7 L 81.76666669845581 30.1 L 94.0777777671814 30.1 L 100.3 23.1 L 108.3 30.1 L 108.3 34.1 L 83.71666669845581 34.1 L 85.0 34.8 L 87.1 36.2 L 89.1 37.7 L 90.9 39.4 L 92.6 41.2 L 94.1 43.1 L 95.5 45.1 L 96.8 47.3 L 98.0 49.6 L 97.3 54.1 L 93.7 56.9 L 89.2 56.2 L 86.4 52.6 L 86.3 50.8 Z M 124.6 45.2 L 123.4 41.4 L 122.5 39.4 L 121.6 37.3 L 120.5 35.2 L 119.46470584869385 34.1 L 119.18260869979858 34.1 L 118.4 35.9 L 116.2 40.3 L 113.8 44.5 L 111.1 48.4 L 108.2 52.1 L 105.0 55.5 L 101.6 58.5 L 100.2 57.4 L 102.1 53.4 L 103.9 49.4 L 105.6 45.3 L 107.2 41.2 L 108.6 37.0 L 109.8 32.7 L 110.9 28.3 L 111.8 23.7 L 112.6 19.0 L 113.07422676086426 15.20618553161621 L 113.0 15.2 L 113.5 12.2 L 125.0 16.2 L 127.6 18.7 L 124.02769231796265 20.089230728149413 L 123.7 21.4 L 122.2 26.4 L 120.84081630706787 30.1 L 133.87777776718139 30.1 L 140.1 23.1 L 148.1 30.1 L 148.1 34.1 L 123.01666669845581 34.1 L 124.3 34.8 L 126.4 36.2 L 128.3 37.7 L 130.1 39.4 L 131.8 41.2 L 133.4 43.1 L 134.8 45.1 L 136.1 47.3 L 137.2 49.6 L 136.6 54.1 L 132.9 56.9 L 128.4 56.2 L 125.6 52.6 L 125.4 49.0 Z M 97.9 145.1 L 97.28636360168457 149.6 L 114.3 149.6 L 114.3 126.4 L 125.3 128.23333330154418 L 125.3 123.6 L 85.9 123.6 L 85.9 126.4 L 97.9 128.4 L 100.9 130.4 L 97.9 132.2 L 97.9 144.7 L 97.64331550598145 145.08502674102783 Z " />
</g>
</svg>
