<svg xmlns="http://www.w3.org/2000/svg" xmlns:xlink="http://www.w3.org/1999/xlink" version="1.1" baseProfile="full" viewBox="0 0 200 200" width="200" height="200">
<g fill="black">
<path d="M 19.3 176.0 L 33.3 176.0 L 34.5 175.9 L 35.4 175.7 L 36.3 175.4 L 36.7 175.0 L 36.9 174.7 L 37.1 174.1 L 37.2 173.2 L 37.3 172.0 L 37.3 152.3333333015442 L 35.0 153.1 L 28.7 155.1 L 22.3 156.9 L 19.770249843597412 157.55160236358643 L 18.3 161.2 L 15.7 158.6 L 11.4 147.3 L 13.3 146.9 L 19.8 145.8 L 26.2 144.6 L 32.4 143.4 L 37.3 142.4360655784607 L 37.3 121.0 L 46.43375797271729 122.52229299545289 L 46.5 122.4 L 47.8 119.9 L 49.2 117.4 L 50.6 114.8 L 52.0 112.1 L 53.4 109.3 L 53.56071424484253 109.0 L 15.7 109.0 L 15.7 105.0 L 55.4 105.0 L 55.884848499298094 104.59595956802369 L 56.4 103.6 L 56.776940155029294 103.85254993438721 L 61.4 100.0 L 72.4 109.0 L 67.4 112.0 L 63.439999961853026 113.65 L 61.9 115.4 L 57.4 119.9 L 55.1 122.0 L 52.9 124.0 L 51.93400001525879 124.75600004196167 L 52.3 125.0 L 49.3 126.8 L 49.3 139.7241379737854 L 50.3 139.5 L 56.0 138.1 L 61.6 136.7 L 67.1 135.3 L 67.35772342681885 135.24376945495607 L 69.8 131.2 L 75.7 120.6 L 79.4 113.64655170440673 L 79.4 101.0 L 84.45071430206299 103.5253571510315 L 86.9 98.4 L 92.1 86.6 L 95.12764225006103 79.0 L 65.5 79.0 L 65.5 75.0 L 87.1 75.0 L 87.1 44.3 L 71.7 44.3 L 71.7 42.0 L 11.4 42.0 L 11.4 38.0 L 35.8 38.0 L 35.8 13.0 L 47.8 15.0 L 50.8 17.0 L 47.8 18.8 L 47.8 38.0 L 60.977777767181394 38.0 L 67.2 31.0 L 75.2 38.0 L 75.2 40.3 L 87.1 40.3 L 87.1 12.1 L 99.1 14.1 L 102.1 16.1 L 99.1 17.9 L 99.1 40.3 L 99.9 40.3 L 104.4 34.3 L 108.68651685714721 38.58651685714722 L 109.9 34.4 L 113.3642014503479 21.011329650878906 L 113.3 21.0 L 114.0 18.4 L 125.2 23.1 L 127.6 25.8 L 124.05404233932495 26.876451396942137 L 120.8 37.6 L 116.1 51.6 L 111.1 64.9 L 106.79379844665527 75.0 L 113.8777777671814 75.0 L 120.1 68.0 L 128.1 75.0 L 128.1 79.0 L 105.04390239715576 79.0 L 103.78941173553467 81.70705881118775 L 104.4 81.3 L 105.4 82.7 L 106.9 83.9 L 108.3 85.3 L 109.6 86.8 L 110.9 88.4 L 112.1 90.1 L 113.2 91.9 L 114.2 93.8 L 115.2 95.8 L 116.1 97.8 L 115.2 102.3 L 111.4 104.9 L 106.9 103.9 L 104.3 100.2 L 104.4 98.3 L 104.4 94.6 L 104.3 92.7 L 104.2 91.0 L 104.0 87.4 L 103.6 83.8 L 103.20839157104493 82.96083917617798 L 99.9 90.1 L 93.7 101.8 L 90.82369337081909 106.71184673309327 L 91.4 107.0 L 110.1 107.0 L 115.6 102.0 L 126.1 111.0 L 121.1 114.5 L 121.1 178.9 L 110.1 184.4 L 110.1 174.9 L 91.4 174.9 L 91.4 181.9 L 79.4 187.9 L 79.4 124.69189186096192 L 72.9 133.3 L 72.1255591392517 134.2035143852234 L 72.6 134.1 L 73.4 135.8 L 68.6 138.9 L 67.65555553436279 139.4185185432434 L 65.1 142.4 L 63.9174186706543 141.47082891464234 L 63.5 141.7 L 58.2 144.3 L 52.6 146.7 L 49.3 148.03157892227173 L 49.3 172.0 L 49.1 174.5 L 48.7 177.0 L 47.9 179.4 L 46.7 181.7 L 45.0 183.7 L 43.0 185.3 L 40.7 186.6 L 38.3 187.4 L 35.8 187.8 L 33.3 188.0 L 33.3 182.0 L 19.3 179.0 Z M 181.8 143.2 L 183.8 143.2 L 181.8 168.2 L 185.4 170.6 L 187.8 174.2 L 185.4 177.8 L 181.8 180.2 L 144.7 180.2 L 142.2 180.0 L 139.7 179.4 L 137.4 178.5 L 135.2 177.2 L 133.3 175.6 L 131.8 173.6 L 130.8 171.4 L 130.1 169.1 L 129.8 166.7 L 129.7 164.2 L 129.7 76.5 L 139.7 81.5 L 169.6 81.5 L 175.1 76.5 L 185.6 85.5 L 180.6 89.0 L 180.6 132.5 L 169.6 138.0 L 169.6 126.5 L 139.7 126.5 L 139.7 164.2 L 139.9 165.5 L 140.2 166.5 L 140.5 167.2 L 140.8 167.6 L 141.1 167.8 L 141.4 167.9 L 141.9 168.1 L 142.5 168.2 L 175.8 168.2 Z M 91.4 142.0 L 91.4 170.9 L 110.1 170.9 L 110.1 142.0 Z M 91.4 111.0 L 91.4 138.0 L 110.1 138.0 L 110.1 111.0 Z M 139.7 85.5 L 139.7 122.5 L 150.1 122.5 L 150.1 85.5 Z M 160.1 85.5 L 160.1 122.5 L 169.6 122.5 L 169.6 85.5 Z M 31.2 55.0 L 52.5 55.0 L 58.5 50.0 L 69.5 59.0 L 64.5 63.0 L 64.5 87.0 L 52.5 93.0 L 52.5 85.0 L 31.2 85.0 L 31.2 88.0 L 19.2 94.0 L 19.2 49.0 Z M 31.2 59.0 L 31.2 81.0 L 52.5 81.0 L 52.5 59.0 Z M 145.2 24.5 L 165.8 24.5 L 171.8 19.5 L 182.8 28.5 L 177.8 32.5 L 177.8 67.4 L 165.8 73.4 L 165.8 67.4 L 145.2 67.4 L 133.2 73.4 L 133.2 18.5 Z M 99.1 44.3 L 99.1 68.45652170181275 L 101.6 61.5 L 105.9 48.2 L 107.03043479919434 44.3 Z M 145.2 28.5 L 145.2 63.4 L 165.8 63.4 L 165.8 28.5 Z " />
</g>
</svg>
