<svg xmlns="http://www.w3.org/2000/svg" xmlns:xlink="http://www.w3.org/1999/xlink" version="1.1" baseProfile="full" viewBox="0 0 200 200" width="200" height="200">
<g fill="black">
<path d="M 67.4 128.9 L 66.4 131.2 L 65.2 133.4 L 63.7 135.4 L 61.9 137.2 L 59.8 138.6 L 57.5 139.7 L 55.1 140.4 L 52.6 140.8 L 50.1 141.0 L 50.1 135.0 L 40.1 132.0 L 40.1 129.0 L 50.1 129.0 L 51.4 128.9 L 52.4 128.7 L 53.2 128.5 L 53.8 128.2 L 54.3 127.8 L 55.008256912231445 127.09174308776855 L 55.7 123.8 L 56.7 119.5 L 57.2 115.2 L 57.3 110.8 L 56.9 106.4 L 55.9 101.8 L 54.5 97.1 L 52.5 92.2 L 49.9 87.1 L 46.9 81.9 L 43.5 76.3 L 43.7 76.1 L 42.7 75.5 L 45.0 69.6 L 47.3 64.1 L 49.6 58.7 L 51.7 53.6 L 53.7 48.6 L 55.5 43.8 L 57.1 39.2 L 58.5 34.7 L 59.8 30.3 L 59.8731707572937 30.0 L 32.8 30.0 L 32.8 183.0 L 20.8 189.0 L 20.8 20.0 L 32.8 26.0 L 60.6 26.0 L 66.6 21.0 L 77.6 30.0 L 72.6 33.0 L 70.61095886230468 33.82876710891723 L 70.5 34.1 L 68.6 38.5 L 66.4 43.0 L 64.0 47.6 L 61.4 52.3 L 58.5 57.0 L 55.4 61.9 L 52.0 66.7 L 48.3 71.6 L 45.15532112121582 75.2815752029419 L 50.1 79.2 L 54.7 83.7 L 58.6 88.5 L 62.0 93.4 L 64.7 98.6 L 66.8 103.9 L 68.2 109.4 L 69.0 115.0 L 69.2 120.7 L 68.6 126.5 L 67.84945192337037 127.02728376388549 Z M 112.9 161.0 L 113.4 164.6 L 109.65751638412476 163.5307189941406 L 108.8 164.2 L 104.5 167.3 L 100.0 170.3 L 95.1 173.2 L 90.1 176.0 L 84.7 178.7 L 79.1 181.2 L 73.2 183.6 L 67.0 185.8 L 60.4 187.8 L 59.7 186.1 L 65.3 182.4 L 70.8 178.9 L 76.0 175.5 L 80.9 172.1 L 85.6 168.8 L 90.0 165.5 L 94.1 162.1 L 97.9 158.8 L 101.4 155.5 L 103.95263156890869 152.94736843109132 L 103.9 152.9 L 104.9 152.0 Z M 168.8 178.7 L 165.8 175.7 L 162.6 172.8 L 159.1 170.0 L 155.4 167.2 L 151.4 164.5 L 147.2 161.8 L 142.8 159.0 L 138.1 156.1 L 138.7 154.5 L 144.1 155.6 L 149.4 157.0 L 154.3 158.8 L 159.1 160.8 L 163.6 162.9 L 167.9 165.3 L 172.0 167.9 L 175.9 170.6 L 179.5 173.6 L 182.9 176.7 L 184.4 181.0 L 182.5 185.2 L 178.1 186.6 L 174.0 184.7 L 171.5 181.7 Z M 92.9 151.0 L 80.9 157.0 L 80.9 78.0 L 92.9 84.0 L 121.8 84.0 L 121.8 64.0 L 94.5 64.0 L 94.5 60.0 L 142.9181818008423 60.0 L 151.1 51.0 L 161.1 60.0 L 161.1 64.0 L 133.8 64.0 L 133.8 84.0 L 162.6 84.0 L 168.6 79.0 L 179.6 88.0 L 174.6 92.0 L 174.6 146.0 L 162.6 152.0 L 162.6 144.0 L 92.9 144.0 Z M 92.9 116.0 L 92.9 140.0 L 121.8 140.0 L 121.8 116.0 Z M 133.8 116.0 L 133.8 140.0 L 162.6 140.0 L 162.6 116.0 Z M 92.9 88.0 L 92.9 112.0 L 121.8 112.0 L 121.8 88.0 Z M 133.8 88.0 L 133.8 112.0 L 162.6 112.0 L 162.6 88.0 Z M 86.9 45.8 L 86.9 50.4 L 86.7 54.5 L 86.2 58.4 L 85.5 62.0 L 84.4 65.3 L 82.9 68.4 L 81.0 71.1 L 76.7 72.7 L 72.5 70.9 L 70.9 66.6 L 72.7 62.4 L 73.9 61.6 L 75.1 60.3 L 76.4 58.5 L 77.7 56.0 L 78.9 53.0 L 80.0 49.4 L 81.1 45.3 L 82.0 40.7 L 82.9 35.7 L 83.5 30.1 L 85.3 30.1 L 85.9 35.7 L 86.31538457870484 39.3 L 122.9 39.3 L 122.9 11.6 L 134.9 13.6 L 137.9 15.6 L 134.9 17.4 L 134.9 39.3 L 171.9 39.3 L 177.9 34.3 L 188.9 43.3 L 183.9 46.3 L 180.72061853408815 47.62474222183228 L 179.4 49.7 L 177.8 51.9 L 176.1 54.3 L 174.3 56.7 L 172.3 59.3 L 170.2 61.9 L 167.9 64.6 L 165.8 67.6 L 164.2 66.7 L 165.6 63.4 L 166.6 60.0 L 167.5 56.8 L 168.5 53.8 L 169.3 50.9 L 170.1 48.2 L 170.8 45.7 L 171.4 43.3 L 86.69591836929321 43.3 Z " />
</g>
</svg>
