<svg xmlns="http://www.w3.org/2000/svg" xmlns:xlink="http://www.w3.org/1999/xlink" version="1.1" baseProfile="full" viewBox="0 0 200 200" width="200" height="200">
<g fill="black">
<path d="M 80.1 16.0 L 83.1 18.0 L 80.1 19.8 L 80.1 38.0 L 82.5777777671814 38.0 L 88.8 31.0 L 96.8 38.0 L 96.8 42.0 L 80.1 42.0 L 80.1 68.0 L 68.1 74.0 L 68.1 64.0 L 61.6 64.0 L 61.6 86.5 L 79.1 86.5 L 85.1 81.5 L 96.1 90.5 L 91.1 94.5 L 91.1 126.4 L 79.1 132.4 L 79.1 122.4 L 61.6 122.4 L 61.6 143.0 L 75.8 143.0 L 85.8 133.0 L 97.8 143.0 L 97.8 147.0 L 61.6 147.0 L 61.6 182.0 L 49.6 188.0 L 49.6 147.0 L 12.3 147.0 L 12.3 143.0 L 49.6 143.0 L 49.6 122.4 L 33.1 122.4 L 33.1 129.4 L 21.1 135.4 L 21.1 80.5 L 33.1 86.5 L 49.6 86.5 L 49.6 64.0 L 42.0 64.0 L 42.0 71.0 L 30.0 77.0 L 30.0 42.0 L 14.4 42.0 L 14.4 38.0 L 30.0 38.0 L 30.0 14.0 L 42.0 16.0 L 45.0 18.0 L 42.0 19.8 L 42.0 38.0 L 68.1 38.0 L 68.1 14.0 Z M 148.0 106.0 L 151.0 108.0 L 148.0 109.8 L 148.0 129.6 L 163.5 129.6 L 173.5 119.6 L 185.5 129.6 L 185.5 133.6 L 148.0 133.6 L 148.0 181.1 L 136.0 187.1 L 136.0 133.6 L 98.5 133.6 L 98.5 129.6 L 136.0 129.6 L 136.0 104.0 Z M 33.1 90.5 L 33.1 118.4 L 49.6 118.4 L 49.6 90.5 Z M 61.6 90.5 L 61.6 118.4 L 79.1 118.4 L 79.1 90.5 Z M 117.0 18.7 L 120.0 20.7 L 117.0 22.5 L 117.0 50.6 L 127.77777776718139 50.6 L 134.0 43.6 L 142.0 50.6 L 142.0 54.6 L 117.0 54.6 L 117.0 90.23999996185303 L 119.4 88.8 L 122.6 87.1 L 125.8 85.3 L 129.1 83.5 L 132.5 81.7 L 136.0 80.0 L 139.4 78.0 L 140.5 79.5 L 137.8 82.3 L 135.2 85.3 L 132.6 88.0 L 124.7 95.9 L 122.1 98.4 L 119.5 100.8 L 114.5 105.4 L 114.37321424484253 105.22678575515747 L 109.0 110.6 L 99.0 100.6 L 105.0 94.6 L 105.0 16.7 Z M 183.0 66.3 L 185.0 66.3 L 183.0 91.3 L 186.6 93.7 L 189.0 97.3 L 186.6 100.9 L 183.0 103.3 L 160.0 103.3 L 157.4 103.2 L 154.9 102.7 L 152.5 101.9 L 150.2 100.7 L 148.2 99.0 L 146.6 97.0 L 145.3 94.8 L 144.5 92.3 L 144.1 89.9 L 144.0 87.3 L 144.0 16.7 L 156.0 18.7 L 159.0 20.7 L 156.0 22.5 L 156.0 53.81199998855591 L 157.3 52.2 L 159.8 49.0 L 162.2 45.9 L 166.6 39.7 L 168.7 36.6 L 170.6 33.5 L 171.94888095855714 31.22820053100586 L 171.9 31.2 L 172.9 29.7 L 182.3 37.2 L 183.6 40.6 L 179.57888269424438 40.322681522369386 L 176.9 43.2 L 174.0 46.1 L 171.0 48.8 L 167.9 51.5 L 164.7 54.1 L 161.4 56.5 L 157.9 58.8 L 156.0 59.929729747772214 L 156.0 88.5 L 156.2 89.4 L 156.4 90.0 L 156.5 90.4 L 156.7 90.5 L 156.9 90.7 L 157.2 90.9 L 157.8 91.1 L 158.7 91.2 L 160.0 91.3 L 177.0 91.3 Z M 42.0 42.0 L 42.0 60.0 L 68.1 60.0 L 68.1 42.0 Z " />
</g>
</svg>
