<svg xmlns="http://www.w3.org/2000/svg" xmlns:xlink="http://www.w3.org/1999/xlink" version="1.1" baseProfile="full" viewBox="0 0 200 200" width="200" height="200">
<g fill="black">
<path d="M 126.0 175.3 L 146.0 175.3 L 147.3 175.2 L 148.2 175.0 L 149.1 174.7 L 149.3 174.5 L 149.4 174.3 L 149.6 174.0 L 149.8 173.4 L 150.0 172.5 L 150.0 123.5 L 95.6 123.5 L 95.6 119.5 L 150.0 119.5 L 150.0 93.0 L 162.0 95.0 L 165.0 97.0 L 162.0 98.8 L 162.0 119.5 L 164.3 119.5 L 174.3 109.5 L 186.3 119.5 L 186.3 123.5 L 162.0 123.5 L 162.0 171.3 L 161.9 173.8 L 161.4 176.3 L 160.6 178.7 L 159.4 181.0 L 157.8 183.0 L 155.8 184.6 L 153.5 185.9 L 151.1 186.7 L 148.6 187.1 L 146.0 187.3 L 146.0 181.3 L 126.0 178.3 Z M 76.5 156.6 L 71.0 152.1 L 68.94192943572997 150.6000502586365 L 64.1 155.9 L 55.9 163.4 L 46.9 170.3 L 37.1 176.5 L 26.5 181.9 L 15.0 186.6 L 14.3 185.0 L 24.6 178.6 L 34.1 172.0 L 42.9 165.1 L 50.8 157.8 L 57.9 150.2 L 61.539344215393065 145.44537277221679 L 58.9 143.7 L 52.3 139.6 L 45.3 135.7 L 37.9 131.9 L 30.2 128.1 L 22.1 124.2 L 22.6 122.5 L 31.5 124.5 L 39.9 126.9 L 48.0 129.7 L 55.7 132.8 L 63.0 136.3 L 66.66386766433716 138.18427476882934 L 69.6 133.7 L 74.2 124.9 L 78.1 115.6 L 79.98556699752808 109.7 L 18.0 109.7 L 18.0 105.7 L 81.0 105.7 L 87.0 100.7 L 98.0 109.7 L 93.0 112.7 L 91.14905662536621 113.47122640609741 L 88.7 119.9 L 83.8 129.8 L 78.0 139.1 L 75.11899394989014 142.95611581802368 L 76.7 143.9 L 83.0 148.1 L 89.0 152.6 L 94.6 157.4 L 96.4 161.6 L 94.8 165.9 L 90.5 167.6 L 86.3 166.0 L 81.6 161.2 Z M 121.6 150.8 L 120.3 148.9 L 118.6 146.9 L 116.5 144.8 L 114.0 142.7 L 111.1 140.5 L 107.8 138.2 L 104.2 135.8 L 100.1 133.6 L 100.7 132.0 L 105.3 133.2 L 109.6 134.3 L 113.6 135.5 L 117.3 136.9 L 120.7 138.4 L 123.8 140.0 L 126.7 141.8 L 129.3 143.7 L 131.5 145.8 L 133.5 148.2 L 134.0 152.8 L 131.1 156.4 L 126.6 156.8 L 123.0 154.0 L 122.5 152.5 Z M 13.5 72.9 L 12.6 68.4 L 15.0 64.6 L 16.9 63.5 L 18.8 62.0 L 20.5 60.1 L 22.2 57.7 L 23.8 54.9 L 25.2 51.5 L 26.4 47.7 L 27.5 43.3 L 28.5 38.5 L 29.1 33.3 L 30.9 33.2 L 31.6 38.6 L 31.903921604156494 41.7 L 94.0 41.7 L 94.0 25.7 L 34.0 25.7 L 34.0 21.7 L 148.0 21.7 L 158.0 11.7 L 170.0 21.7 L 170.0 25.7 L 106.0 25.7 L 106.0 41.7 L 173.0 41.7 L 173.45306119918823 41.32244901657104 L 173.6 40.9 L 173.8226589202881 41.01445083618164 L 179.0 36.7 L 190.0 45.7 L 185.0 48.7 L 181.25628738403321 50.259880256652835 L 179.2 52.8 L 175.6 56.8 L 173.7 58.7 L 171.7 60.6 L 169.7 62.4 L 167.5 64.1 L 165.7 66.0 L 164.2 65.0 L 165.6 62.7 L 166.5 60.1 L 167.4 57.7 L 168.4 55.2 L 171.9625 45.7 L 106.0 45.7 L 106.0 90.1 L 94.0 96.1 L 94.0 45.7 L 32.14166669845581 45.7 L 32.2 48.5 L 32.0 53.0 L 31.4 57.3 L 30.3 61.3 L 28.9 65.0 L 27.0 68.5 L 24.7 71.6 L 21.8 74.4 L 17.4 75.3 Z M 84.0 85.6 L 32.0 85.6 L 32.0 81.6 L 84.0 81.6 Z M 168.0 85.6 L 116.0 85.6 L 116.0 81.6 L 168.0 81.6 Z M 161.0 66.6 L 116.0 66.6 L 116.0 62.6 L 161.0 62.6 Z M 84.0 66.6 L 37.0 66.6 L 37.0 62.6 L 84.0 62.6 Z " />
</g>
</svg>
