<svg xmlns="http://www.w3.org/2000/svg" xmlns:xlink="http://www.w3.org/1999/xlink" version="1.1" baseProfile="full" viewBox="0 0 200 200" width="200" height="200">
<g fill="black">
<path d="M 111.1 90.6 L 138.67474746704102 90.6 L 138.4 87.4 L 137.44542016983033 66.49470100402831 L 137.4 66.5 L 137.3 63.1 L 148.0 64.86859502792359 L 148.0 41.0 L 128.9 41.0 L 128.9 61.0 L 116.9 67.0 L 116.9 41.0 L 90.2 41.0 L 90.2 37.0 L 116.9 37.0 L 116.9 12.0 L 128.9 14.0 L 131.9 16.0 L 128.9 17.8 L 128.9 37.0 L 148.0 37.0 L 148.0 12.0 L 160.0 14.0 L 163.0 16.0 L 160.0 17.8 L 160.0 37.0 L 164.7 37.0 L 174.7 27.0 L 186.7 37.0 L 186.7 41.0 L 160.0 41.0 L 160.0 61.0 L 150.45882349014283 65.77058820724487 L 152.4 67.0 L 149.57420539855957 68.84541683197021 L 150.4 86.6 L 150.7541666984558 90.6 L 163.1 90.6 L 168.28536586761476 85.41463413238526 L 167.5 85.5 L 163.9 82.7 L 163.7 81.5 L 163.4 80.3 L 162.9 78.9 L 162.2 77.5 L 161.4 76.1 L 160.3 74.6 L 159.1 73.0 L 157.7 71.4 L 156.2 69.6 L 154.3 68.4 L 155.1 66.8 L 157.3 67.8 L 159.6 68.3 L 161.8 68.9 L 163.9 69.7 L 165.9 70.6 L 167.8 71.6 L 169.6 72.7 L 171.3 74.0 L 172.9 75.3 L 174.4 76.9 L 174.9 81.4 L 174.5696629524231 81.82471914291382 L 185.1 90.6 L 185.1 94.6 L 151.10833330154418 94.6 L 152.1 105.8 L 154.4 122.8 L 157.3 137.3 L 158.4021716117859 141.06575298309326 L 162.4 131.9 L 166.3 121.6 L 169.8 110.5 L 169.8181182861328 110.50588045120239 L 170.3 109.0 L 181.2 114.2 L 183.5 117.0 L 179.8279676437378 117.8374810218811 L 176.9 125.6 L 172.2 136.2 L 167.2 145.9 L 162.554949092865 153.55573205947877 L 165.0 159.4 L 169.5 166.7 L 174.2 171.7 L 178.47058010101318 174.22748622894287 L 183.9 150.7 L 185.9 150.7 L 183.98209609985352 175.63275108337402 L 184.3 175.7 L 188.4 177.8 L 189.9 182.1 L 187.9 186.2 L 183.6 187.7 L 174.6 185.7 L 166.7 181.0 L 159.9 173.9 L 154.3 164.7 L 154.27703733444213 164.64528045654296 L 149.8 169.7 L 143.3 175.8 L 136.4 180.9 L 129.2 184.8 L 121.7 187.6 L 120.9 186.0 L 127.2 181.6 L 133.2 176.6 L 138.8 171.0 L 144.1 164.7 L 149.1 157.7 L 150.43368425369263 155.48665170669557 L 149.6 153.5 L 145.7 140.2 L 144.3 133.2 L 144.3 135.7 L 113.4 135.7 L 113.4 131.7 L 130.0777777671814 131.7 L 136.3 124.7 L 143.93636360168458 131.38181819915772 L 142.6 124.7 L 140.1 107.2 L 139.01818180084229 94.6 L 111.1 94.6 L 111.1 128.8 L 110.6 136.8 L 109.8 144.4 L 108.7 151.5 L 107.3 158.3 L 105.6 164.6 L 103.5 170.5 L 101.0 175.9 L 98.2 180.8 L 94.9 185.1 L 91.3 188.8 L 89.8 187.7 L 91.7 183.2 L 93.4 178.4 L 94.9 173.5 L 96.2 168.2 L 97.3 162.6 L 98.2 156.6 L 98.8 150.3 L 99.1 143.5 L 99.2 136.4 L 99.1 128.8 L 99.1 84.6 Z M 74.3 16.0 L 77.3 18.0 L 74.3 19.8 L 74.3 38.0 L 78.3 38.0 L 82.8 32.0 L 88.8 38.0 L 88.8 42.0 L 74.3 42.0 L 74.3 68.0 L 62.3 74.0 L 62.3 64.0 L 57.4 64.0 L 57.4 86.5 L 72.2 86.5 L 78.2 81.5 L 89.2 90.5 L 84.2 94.5 L 84.2 126.4 L 72.2 132.4 L 72.2 122.4 L 57.4 122.4 L 57.4 143.0 L 67.8 143.0 L 77.8 133.0 L 89.8 143.0 L 89.8 147.0 L 57.4 147.0 L 57.4 182.0 L 45.4 188.0 L 45.4 147.0 L 12.2 147.0 L 12.2 143.0 L 45.4 143.0 L 45.4 122.4 L 31.6 122.4 L 31.6 129.4 L 19.6 135.4 L 19.6 80.5 L 31.6 86.5 L 45.4 86.5 L 45.4 64.0 L 39.7 64.0 L 39.7 71.0 L 27.7 77.0 L 27.7 42.0 L 14.0 42.0 L 14.0 38.0 L 27.7 38.0 L 27.7 14.0 L 39.7 16.0 L 42.7 18.0 L 39.7 19.8 L 39.7 38.0 L 62.3 38.0 L 62.3 14.0 Z M 31.6 90.5 L 31.6 118.4 L 45.4 118.4 L 45.4 90.5 Z M 57.4 90.5 L 57.4 118.4 L 72.2 118.4 L 72.2 90.5 Z M 39.7 42.0 L 39.7 60.0 L 62.3 60.0 L 62.3 42.0 Z " />
</g>
</svg>
