<svg xmlns="http://www.w3.org/2000/svg" xmlns:xlink="http://www.w3.org/1999/xlink" version="1.1" baseProfile="full" viewBox="0 0 200 200" width="200" height="200">
<g fill="black">
<path d="M 117.71707916259766 184.19084157943726 L 114.5 182.7 L 113.7 181.4 L 112.3 179.7 L 110.4 177.8 L 108.1 175.6 L 105.2 173.1 L 101.9 170.5 L 98.2 167.5 L 94.0 164.3 L 89.4 160.8 L 84.4 157.2 L 85.3 155.6 L 86.66254978179931 156.1976095199585 L 91.5 157.5 L 96.5 159.1 L 101.3 160.8 L 105.9 162.3 L 110.3 163.5 L 114.4 164.2 L 118.3 164.3 L 121.9 163.8 L 124.68424015045166 162.92495307922363 L 126.4 161.5 L 131.6 155.6 L 136.4 148.8 L 140.6 141.0 L 144.2 132.2 L 147.3 122.4 L 149.8 111.6 L 151.7 99.7 L 153.1 86.8 L 153.86459035873412 76.24865322113037 L 153.6 75.8 L 153.5 74.8 L 152.3 73.3 L 148.6 71.6 L 142.6 70.3 L 137.42504625320436 69.85823564529419 L 122.8 70.8 L 101.7 73.4 L 85.4 76.4 L 72.9 79.5 L 63.5 82.4 L 56.4 84.6 L 50.6 86.0 L 45.2 85.9 L 40.4 83.4 L 39.1 81.45 L 38.5 81.3 L 36.0 77.4 L 36.8764705657959 73.89411764144897 L 36.5 72.2 L 38.9 68.3 L 41.7 66.5 L 44.5 64.2 L 47.3 61.5 L 50.1 58.4 L 52.9 54.8 L 55.6 50.8 L 56.75714282989502 48.91428575515747 L 58.9 44.8 L 61.0 39.7 L 61.935520553588866 36.72834644317627 L 61.9 36.5 L 62.22447547912598 35.81048946380615 L 62.7 34.3 L 63.89726448059082 29.14255323410034 L 63.8 27.1 L 63.5 24.8 L 62.9 22.3 L 62.0 19.7 L 60.8 16.9 L 59.0 14.3 L 60.3 13.1 L 61.163492107391356 13.927513217926025 L 61.3 13.7 L 63.6 14.8 L 66.1 15.7 L 68.4 16.7 L 70.6 17.8 L 72.8 19.1 L 74.7 20.6 L 76.6 22.2 L 78.3 23.9 L 79.9 25.8 L 81.3 27.9 L 81.3 32.4 L 78.705801486969 35.075267219543456 L 75.1 40.3 L 70.8 46.7 L 67.2 52.4 L 64.1 57.6 L 61.6 62.1 L 59.7 65.9 L 58.557970428466795 68.71114978790283 L 59.6 68.6 L 62.9097240447998 68.26530876159669 L 62.9 68.1 L 75.2 66.1 L 86.9 64.3 L 97.9 62.7 L 108.2 61.2 L 117.7 59.7 L 126.6 58.3 L 134.8 57.0 L 142.2 55.6 L 148.9 54.3 L 154.9 53.0 L 154.95294113159179 53.3 L 157.4 53.3 L 160.8 54.2 L 164.1 56.1 L 166.9 58.8 L 169.4 62.1 L 171.6 66.1 L 171.3 70.6 L 168.0 73.8 L 167.90908908843994 73.7940710067749 L 166.3 87.1 L 163.3 105.9 L 160.0 122.2 L 156.2 136.2 L 152.0 148.2 L 147.3 158.4 L 142.1 167.0 L 136.4 174.1 L 130.2 179.9 L 123.6 184.5 L 119.1 185.2 Z " />
</g>
</svg>
