<svg xmlns="http://www.w3.org/2000/svg" xmlns:xlink="http://www.w3.org/1999/xlink" version="1.1" baseProfile="full" viewBox="0 0 200 200" width="200" height="200">
<g fill="black">
<path d="M 74.8 110.3 L 75.7 113.8 L 71.96558008193969 113.01380634307861 L 70.1 114.8 L 65.1 119.2 L 59.9 123.3 L 54.4 127.4 L 49.519999980926514 130.65333337783812 L 54.6 131.5 L 57.6 133.5 L 54.6 135.3 L 54.6 181.8 L 42.6 187.8 L 42.6 134.95645160675048 L 36.5 138.4 L 30.0 141.6 L 23.2 144.6 L 16.1 147.2 L 15.3 145.6 L 21.4 141.2 L 27.3 137.0 L 33.0 132.8 L 38.4 128.6 L 43.7 124.4 L 48.6 120.1 L 53.3 115.7 L 57.8 111.3 L 62.0 106.8 L 65.30392780303956 102.90305957794189 L 65.3 102.9 L 65.39677419662476 102.79354839324951 L 65.9 102.2 L 65.91989936828614 102.21811065673828 L 66.3 101.8 Z M 159.79634141921997 129.34695119857787 L 169.1 137.1 L 169.1 141.1 L 142.4 141.1 L 142.4 159.6 L 160.5 159.6 L 170.5 149.6 L 182.5 159.6 L 182.5 163.6 L 142.4 163.6 L 142.4 181.8 L 130.4 187.8 L 130.4 163.6 L 95.02833337783814 163.6 L 94.2 165.7 L 80.9 166.9 L 90.9 141.4 L 101.3 147.7 L 103.4 150.6 L 99.8444519996643 151.39012174606324 L 96.60611114501953 159.6 L 130.4 159.6 L 130.4 141.1 L 89.4 141.1 L 89.4 137.1 L 130.4 137.1 L 130.4 124.6 L 142.4 126.6 L 145.4 128.6 L 142.4 130.4 L 142.4 137.1 L 147.1 137.1 L 155.80701751708983 128.39298248291016 L 155.0 128.2 L 146.4 125.5 L 138.3 122.5 L 130.8 118.9 L 128.47123289108276 117.56438360214233 L 128.4 117.6 L 119.7 121.4 L 110.6 124.7 L 101.1 127.6 L 91.2 129.9 L 81.0 131.6 L 70.3 132.6 L 70.0 130.8 L 80.1 127.8 L 89.8 124.7 L 99.0 121.3 L 107.8 117.6 L 116.2 113.7 L 119.5776294708252 111.86154346466064 L 117.8 110.6 L 112.3 105.8 L 107.5 100.5 L 106.20541687011719 98.48998937606811 L 103.6 100.9 L 99.4 104.6 L 94.7 108.0 L 89.8 111.3 L 84.4 114.4 L 78.7 117.2 L 72.6 119.7 L 71.7 118.1 L 76.7 114.0 L 81.4 110.0 L 85.8 106.1 L 89.9 102.2 L 93.6 98.3 L 96.9 94.5 L 99.9 90.7 L 102.5 86.8 L 104.8 83.0 L 106.25074968338012 80.0221453666687 L 106.2 80.0 L 107.2 78.1 L 117.2 84.8 L 118.9 88.0 L 114.98439836502075 88.20253114700317 L 114.4 89.1 L 112.6292682647705 91.3 L 148.8807017326355 91.3 L 151.6 88.8 L 152.02553195953368 89.27872343063355 L 155.6 86.3 L 166.6 95.3 L 161.6 98.3 L 155.90769233703614 100.67179489135742 L 152.4 103.4 L 144.8 108.6 L 139.24144144058226 111.9351351737976 L 141.8 112.8 L 149.5 114.9 L 157.7 116.7 L 166.4 118.0 L 175.6 119.1 L 185.9 120.4 L 174.0 132.2 L 164.2 130.4 Z M 67.7 87.2 L 68.5 90.7 L 64.77146015167236 89.84963130950928 L 63.5 91.0 L 59.1 94.8 L 54.6 98.3 L 49.9 101.7 L 45.0 105.0 L 40.0 108.0 L 34.9 110.9 L 29.5 113.5 L 24.0 115.9 L 18.2 117.9 L 17.4 116.3 L 22.1 112.6 L 26.7 108.9 L 31.3 105.4 L 35.7 101.8 L 40.0 98.2 L 44.1 94.5 L 48.0 90.7 L 51.8 86.9 L 55.5 82.9 L 58.35124607086182 79.64143304824829 L 58.3 79.6 L 59.3 78.6 Z M 109.2625 95.3 L 108.58117980957032 96.07865171432495 L 110.5 97.5 L 116.0 101.2 L 121.8 104.6 L 127.37844314575196 107.38922157287598 L 131.6 104.8 L 138.7 99.8 L 144.38867921829222 95.3 Z M 13.4 65.2 L 12.8 60.7 L 15.5 57.0 L 17.4 56.2 L 19.1 55.1 L 20.8 53.6 L 22.5 51.7 L 24.0 49.5 L 25.4 46.7 L 26.6 43.6 L 27.7 40.0 L 28.7 36.0 L 29.1 31.5 L 30.9 31.5 L 31.4 36.0 L 31.7 38.2 L 94.0 38.2 L 94.0 25.2 L 34.0 25.2 L 34.0 21.2 L 151.8181818008423 21.2 L 160.0 12.2 L 170.0 21.2 L 170.0 25.2 L 106.0 25.2 L 106.0 38.2 L 173.0 38.2 L 173.53999996185303 37.75 L 173.8 37.1 L 174.09988803863524 37.283426666259764 L 179.0 33.2 L 190.0 42.2 L 185.0 45.2 L 180.54285717010498 47.05714282989502 L 179.0 48.6 L 177.2 50.3 L 175.4 51.9 L 173.5 53.5 L 169.5 56.5 L 167.4 57.8 L 165.6 59.4 L 164.3 58.2 L 165.7 56.3 L 166.6 54.0 L 167.6 51.8 L 168.6 49.7 L 169.5 47.5 L 170.5 45.4 L 171.4 43.3 L 171.81904764175414 42.2 L 106.0 42.2 L 106.0 74.5 L 94.0 80.5 L 94.0 42.2 L 32.04390239715576 42.2 L 32.1 44.5 L 31.9 48.4 L 31.2 52.2 L 30.2 55.7 L 28.7 59.0 L 26.8 62.1 L 24.4 64.9 L 21.6 67.3 L 17.1 67.9 Z M 168.0 72.2 L 168.0 76.2 L 116.0 76.2 L 116.0 72.2 L 149.8181818008423 72.2 L 158.0 63.2 Z M 84.0 72.2 L 84.0 76.2 L 32.0 76.2 L 32.0 72.2 L 62.0 72.2 L 72.0 62.2 Z M 161.0 56.0 L 161.0 60.0 L 116.0 60.0 L 116.0 56.0 L 142.8181818008423 56.0 L 151.0 47.0 Z M 84.0 56.0 L 84.0 60.0 L 37.0 60.0 L 37.0 56.0 L 65.81818180084228 56.0 L 74.0 47.0 Z " />
</g>
</svg>
