<svg xmlns="http://www.w3.org/2000/svg" xmlns:xlink="http://www.w3.org/1999/xlink" version="1.1" baseProfile="full" viewBox="0 0 200 200" width="200" height="200">
<g fill="black">
<path d="M 111.4 26.0 L 170.5 26.0 L 176.5 21.0 L 187.5 30.0 L 182.5 34.0 L 182.5 127.0 L 170.5 133.0 L 170.5 121.0 L 147.0 121.0 L 147.0 183.0 L 135.0 189.0 L 135.0 121.0 L 111.4 121.0 L 111.4 133.0 L 99.4 139.0 L 99.4 20.0 Z M 17.6 166.9 L 24.3 165.6 L 31.2 164.3 L 38.2 162.9 L 45.6 161.5 L 53.1 160.0 L 60.8 158.6 L 68.8 157.1 L 77.0 155.6 L 85.5 154.3 L 94.2 153.1 L 94.7 154.8 L 86.4 158.0 L 78.3 160.8 L 70.4 163.4 L 62.7 165.9 L 55.1 168.3 L 47.8 170.5 L 40.6 172.6 L 33.7 174.7 L 27.0 176.7 L 24.406379222869873 177.44664840698243 L 23.1 181.0 L 20.4 178.6 L 15.7 167.3 Z M 35.5 144.0 L 23.5 150.0 L 23.5 69.8384614944458 L 18.7 75.1 L 13.0 80.5 L 11.6 79.4 L 15.7 72.7 L 19.6 66.2 L 23.4 59.7 L 27.1 53.3 L 30.5 46.8 L 33.8 40.3 L 36.8 33.7 L 39.6 27.1 L 42.2 20.4 L 44.237926197052005 14.710789394378661 L 44.2 14.7 L 45.1 12.4 L 55.8 18.0 L 57.9 21.0 L 54.16267604827881 21.64436616897583 L 52.7 24.9 L 49.4 31.6 L 45.8 38.2 L 45.31999998092651 39.0 L 65.5 39.0 L 66.08512392044068 38.51239671707153 L 66.3 38.0 L 66.53798627853394 38.13501148223877 L 71.5 34.0 L 82.5 43.0 L 77.5 46.0 L 74.19090909957886 47.37878789901733 L 72.6 49.5 L 70.4 52.2 L 68.3 54.8 L 66.2 57.3 L 64.0 59.7 L 61.8 62.0 L 59.5 64.2 L 57.52857141494751 66.0 L 73.2 66.0 L 79.2 61.0 L 90.2 70.0 L 85.2 74.0 L 85.2 136.0 L 73.2 142.0 L 73.2 132.0 L 35.5 132.0 Z M 35.5 100.0 L 35.5 128.0 L 48.3 128.0 L 48.3 100.0 Z M 60.3 100.0 L 60.3 128.0 L 73.2 128.0 L 73.2 100.0 Z M 111.4 75.0 L 111.4 117.0 L 135.0 117.0 L 135.0 75.0 Z M 147.0 75.0 L 147.0 117.0 L 170.5 117.0 L 170.5 75.0 Z M 35.5 70.0 L 35.5 96.0 L 48.3 96.0 L 48.3 70.0 Z M 60.3 70.0 L 60.3 96.0 L 73.2 96.0 L 73.2 70.0 Z M 111.4 30.0 L 111.4 71.0 L 135.0 71.0 L 135.0 30.0 Z M 147.0 30.0 L 147.0 71.0 L 170.5 71.0 L 170.5 30.0 Z M 42.91999998092651 43.0 L 41.9 44.7 L 37.8 51.1 L 33.5 57.3 L 29.28333330154419 62.89166669845581 L 35.5 66.0 L 54.2740740776062 66.0 L 54.9 64.7 L 56.0 61.8 L 57.2 58.9 L 58.4 56.1 L 59.7 53.1 L 61.0 50.2 L 63.6 44.2 L 64.14193544387817 43.0 Z " />
</g>
</svg>
