<svg xmlns="http://www.w3.org/2000/svg" xmlns:xlink="http://www.w3.org/1999/xlink" version="1.1" baseProfile="full" viewBox="0 0 200 200" width="200" height="200">
<g fill="black">
<path d="M 134.11930923461915 18.728414440155028 L 135.2 52.5 L 135.251118183136 53.0 L 164.0 53.0 L 174.0 43.0 L 186.0 53.0 L 186.0 57.0 L 135.66006393432616 57.0 L 138.4 83.8 L 143.4 109.6 L 147.5487265586853 123.84396133422851 L 148.1 122.9 L 154.5 109.2 L 160.1 94.4 L 164.60176601409913 79.3003264427185 L 164.6 79.3 L 164.66000003814696 79.10500001907349 L 164.9 78.3 L 164.90709047317506 78.30195598602295 L 165.4 76.7 L 176.5 81.5 L 178.8 84.3 L 175.24144735336304 85.2531837463379 L 170.9 98.2 L 164.3 113.6 L 156.8 127.8 L 151.71399135589598 135.61065616607667 L 156.2 146.1 L 163.1 157.9 L 169.7 166.0 L 175.5 171.0 L 176.76397514343262 171.6894410133362 L 182.0 149.0 L 184.0 149.0 L 182.07446804046631 174.0319149017334 L 186.2 175.8 L 188.0 180.0 L 186.2 184.2 L 182.0 186.0 L 175.6 184.6 L 168.7 180.9 L 161.1 174.4 L 153.3 164.8 L 145.5 151.5 L 143.48176345825195 146.78169031143187 L 139.1 152.2 L 128.9 162.4 L 117.8 171.2 L 105.8 178.6 L 92.9 184.5 L 79.2 188.8 L 78.7 187.1 L 91.3 181.0 L 103.0 174.0 L 113.8 166.0 L 123.7 156.9 L 132.6 146.7 L 139.4242416381836 137.29586219787598 L 138.1 134.2 L 131.7 112.4 L 126.6 85.6 L 123.58947372436523 57.0 L 14.0 57.0 L 14.0 53.0 L 123.19060049057006 53.0 L 122.03125 15.99739580154419 L 122.0 16.0 L 122.0 12.6 L 134.0 15.0 L 137.0 17.0 Z M 46.9 77.2 L 46.5 75.5 L 46.0 73.7 L 44.6 70.1 L 43.8 68.2 L 41.8 64.2 L 40.3 62.6 L 41.5 61.2 L 43.4 62.6 L 45.5 63.7 L 47.5 64.9 L 49.4 66.2 L 51.1 67.6 L 52.8 69.1 L 54.4 70.7 L 55.9 72.4 L 57.3 74.2 L 58.6 76.1 L 58.5 80.6 L 55.978787899017334 83.2 L 77.4777777671814 83.2 L 78.1 82.0 L 79.2 79.2 L 80.4 76.5 L 81.5 73.9 L 83.9 68.9 L 85.1 66.5 L 87.5 61.9 L 88.22063703536988 60.578832149505615 L 88.1 60.5 L 89.1 59.1 L 98.2 67.1 L 99.3 70.5 L 94.97202863693238 69.97765865325928 L 94.5 70.4 L 92.7 72.2 L 90.7 73.9 L 88.8 75.8 L 82.5 81.5 L 80.54499998092652 83.2 L 104.41818180084229 83.2 L 112.6 74.2 L 122.6 83.2 L 122.6 87.2 L 73.36666669845582 87.2 L 72.6 88.2 L 71.0 90.2 L 69.3 92.1 L 65.7 95.7 L 63.8 97.5 L 59.8 100.9 L 57.7 102.4 L 56.62666664123535 103.1 L 94.7 103.1 L 100.7 98.1 L 111.7 107.1 L 106.7 111.1 L 106.7 169.4 L 94.7 175.4 L 94.7 169.4 L 40.9 169.4 L 40.9 173.3 L 28.9 179.3 L 28.9 97.1 L 40.9 103.1 L 53.13333330154419 103.1 L 53.6 102.4 L 55.8 97.6 L 56.8 95.4 L 57.8 93.1 L 58.8 90.9 L 60.31363639831543 87.2 L 14.3 87.2 L 14.3 83.2 L 50.11818180084229 83.2 L 47.5 80.5 L 47.2 78.9 Z M 40.9 147.5 L 40.9 165.4 L 94.7 165.4 L 94.7 147.5 Z M 40.9 126.2 L 40.9 143.5 L 94.7 143.5 L 94.7 126.2 Z M 40.9 107.1 L 40.9 122.2 L 94.7 122.2 L 94.7 107.1 Z M 157.8 35.4 L 156.8 33.3 L 155.6 31.2 L 154.3 29.1 L 152.7 27.0 L 151.0 25.0 L 149.1 22.9 L 147.0 20.8 L 144.5 19.2 L 145.2 17.6 L 148.2 18.6 L 151.2 19.5 L 154.1 20.7 L 156.8 22.1 L 159.4 23.7 L 161.9 25.5 L 164.2 27.5 L 166.3 29.7 L 168.3 32.1 L 170.1 34.7 L 170.3 39.3 L 167.2 42.7 L 162.7 42.8 L 159.2 39.8 L 158.6 37.6 Z M 106.0 31.0 L 106.0 35.0 L 31.0 35.0 L 31.0 31.0 L 84.0 31.0 L 94.0 21.0 Z " />
</g>
</svg>
