<svg xmlns="http://www.w3.org/2000/svg" xmlns:xlink="http://www.w3.org/1999/xlink" version="1.1" baseProfile="full" viewBox="0 0 200 200" width="200" height="200">
<g fill="black">
<path d="M 83.2 179.7 L 82.2 178.4 L 81.0 176.9 L 79.3 175.4 L 77.4 173.8 L 75.2 172.1 L 72.6 170.4 L 69.8 168.5 L 66.5 167.1 L 67.1 165.4 L 70.6 166.3 L 74.0 166.7 L 77.2 167.4 L 80.2 168.1 L 82.9 168.9 L 85.5 169.8 L 87.8 170.9 L 90.0 172.1 L 92.0 173.4 L 93.9 175.1 L 94.8 179.6 L 92.98912706375123 182.3525267601013 L 97.2 179.5 L 102.7 174.6 L 107.6 168.7 L 111.8 162.0 L 115.5 154.2 L 118.6 145.4 L 121.0 135.5 L 122.9 124.5 L 124.16486482620239 112.62972974777222 L 124.4 110.2 L 136.1 113.5 L 138.9 115.8 L 135.51718168258668 117.42635498046874 L 134.2 126.3 L 131.5 138.0 L 128.1 148.6 L 123.9 158.1 L 119.1 166.4 L 113.4 173.6 L 107.1 179.4 L 100.1 184.0 L 92.5 187.1 L 84.4 188.8 L 84.0 187.1 L 91.0 183.7 L 91.08378381729126 183.64324321746827 L 87.8 184.3 L 84.0 181.9 L 83.8 180.9 Z M 58.1 172.2 L 58.4 175.8 L 54.571153831481936 174.47730770111085 L 52.2 175.9 L 45.8 179.5 L 42.4 181.2 L 38.9 182.8 L 35.3 184.4 L 31.5 185.9 L 27.6 187.3 L 23.6 188.7 L 22.8 187.2 L 26.1 184.6 L 29.3 182.0 L 32.3 179.4 L 35.3 177.0 L 38.1 174.6 L 40.8 172.2 L 43.4 169.8 L 48.2 165.2 L 49.69941520690918 163.70058479309083 L 49.6 163.6 L 50.5 162.9 Z M 32.9 98.0 L 32.79553575515747 98.1566964149475 L 32.6 109.4 L 31.8 120.3 L 30.7 130.7 L 29.2 140.4 L 27.2 149.7 L 24.9 158.3 L 22.0 166.3 L 18.8 173.7 L 15.0 180.4 L 10.7 186.3 L 9.4 185.6 L 12.1 179.0 L 14.6 172.0 L 16.8 164.6 L 18.7 156.7 L 20.3 148.2 L 21.5 139.3 L 22.4 129.8 L 22.9 119.8 L 23.1 109.2 L 22.9 98.0 L 22.9 57.61428575515747 L 22.3 60.1 L 21.3 62.7 L 19.8 65.2 L 15.6 67.0 L 11.4 65.4 L 9.6 61.2 L 11.2 56.9 L 12.0 56.6 L 13.0 55.6 L 14.0 54.1 L 15.1 52.1 L 16.1 49.5 L 17.1 46.5 L 18.0 43.1 L 18.8 39.2 L 19.7 34.8 L 20.1 30.1 L 21.9 30.0 L 22.4 34.8 L 22.819999980926514 37.5 L 49.8 37.5 L 49.8 13.8 L 61.8 15.8 L 64.8 17.8 L 61.8 19.6 L 61.8 37.5 L 88.0 37.5 L 94.0 32.5 L 105.0 41.5 L 100.0 44.5 L 96.92075471878051 45.78301887512207 L 96.7 46.2 L 95.6 48.0 L 94.5 50.0 L 93.3 52.2 L 91.9 54.5 L 91.25866985321045 55.611638927459715 L 95.4 59.0 L 90.4 63.0 L 90.4 80.0 L 78.4 86.0 L 78.4 80.0 L 32.9 80.0 Z M 181.57653427124023 151.5144404411316 L 177.7 153.9 L 173.3 152.7 L 170.9 148.8 L 171.1 147.0 L 171.2 145.3 L 171.2 144.09545450210572 L 170.9 144.3 L 168.7 145.7 L 166.6 147.0 L 164.6 148.3 L 162.7 149.5 L 160.9 150.7 L 159.96831588745118 151.35765933990479 L 159.1 156.1 L 156.1 154.1 L 152.3 148.07846155166627 L 152.3 168.2 L 152.5 169.1 L 152.8 170.0 L 153.2 170.4 L 154.1 170.7 L 155.0 170.9 L 156.3 171.0 L 176.9 171.0 Z M 93.1 97.0 L 88.1 101.0 L 88.1 157.0 L 76.1 163.0 L 76.1 157.0 L 45.3 157.0 L 35.3 162.0 L 35.3 88.0 L 45.3 93.0 L 76.1 93.0 L 82.1 88.0 Z M 45.3 137.0 L 45.3 153.0 L 76.1 153.0 L 76.1 137.0 Z M 45.3 117.0 L 45.3 133.0 L 76.1 133.0 L 76.1 117.0 Z M 45.3 97.0 L 45.3 113.0 L 76.1 113.0 L 76.1 97.0 Z M 117.5 76.0 L 117.5 104.0 L 136.5 104.0 L 136.5 76.0 Z M 148.5 76.0 L 148.5 104.0 L 167.5 104.0 L 167.5 76.0 Z M 32.9 59.0 L 32.9 76.0 L 50.5 76.0 L 50.5 59.0 Z M 62.5 59.0 L 62.5 76.0 L 78.4 76.0 L 78.4 59.0 Z M 117.5 45.0 L 117.5 72.0 L 136.5 72.0 L 136.5 45.0 Z M 148.5 45.0 L 148.5 72.0 L 167.5 72.0 L 167.5 45.0 Z M 23.30952377319336 41.5 L 23.5 43.5 L 23.7 47.3 L 23.61506853103638 50.35753421783447 L 32.9 55.0 L 78.4 55.0 L 84.4 50.0 L 88.40816993713379 53.27941179275513 L 88.5 50.8 L 88.56135597229004 49.26610174179077 L 88.0 49.5 L 88.0 41.5 Z M 117.5 120.0 L 105.5 126.0 L 105.5 35.0 L 117.5 41.0 L 130.03225803375244 41.0 L 130.6 39.4 L 131.3 36.2 L 132.1 33.2 L 132.8 30.2 L 133.6 27.4 L 134.3 24.6 L 134.9 22.0 L 135.5 19.5 L 136.0 17.0 L 136.2978723526001 15.629787254333497 L 136.2 15.6 L 136.43478260040283 15.0 L 136.5 14.7 L 136.54522209167482 14.717765808105469 L 137.1 13.3 L 147.7 19.1 L 149.8 22.0 L 145.45728645324706 22.748743724822997 L 145.0 23.5 L 143.6 25.7 L 140.4 30.5 L 138.7 32.9 L 136.9 35.5 L 135.0 38.0 L 132.9 40.6 L 132.64285717010497 41.0 L 167.5 41.0 L 173.5 36.0 L 184.5 45.0 L 179.5 49.0 L 179.5 108.0 L 167.5 114.0 L 167.5 108.0 L 146.3 108.0 L 152.3 109.0 L 155.3 111.0 L 152.3 112.8 L 152.3 142.86499996185302 L 153.4 142.7 L 155.5 142.3 L 156.6795000076294 142.13149995803832 L 156.9 140.0 L 157.3 137.3 L 157.8 134.6 L 158.2 131.9 L 159.0 126.7 L 159.3 124.2 L 159.7 121.7 L 159.81807870864867 120.22401599884033 L 159.7 120.2 L 159.8707317352295 119.56585369110107 L 159.9 119.2 L 159.96416721343994 119.21880760192872 L 160.4 117.6 L 171.5 122.6 L 173.8 125.3 L 169.54945850372314 126.43853788375854 L 169.1 127.3 L 167.9 129.7 L 166.6 132.1 L 165.2 134.5 L 163.7 136.8 L 162.2 139.2 L 160.6 141.5 L 160.5052631378174 141.62105264663697 L 162.2 141.4 L 164.6 141.1 L 167.1 140.9 L 169.7 140.7 L 171.22620544433593 140.64549264907836 L 171.2 140.2 L 171.1 138.6 L 170.9 136.9 L 170.7 135.3 L 170.5 133.6 L 169.7 132.3 L 171.1 131.2 L 172.2 132.4 L 173.7 133.4 L 175.2 134.7 L 176.5 136.1 L 177.8 137.6 L 179.0 139.3 L 180.1 141.1 L 181.0 143.0 L 182.0 145.0 L 182.69938650131226 146.83588953018187 L 182.9 146.0 L 184.9 146.0 L 182.9 171.0 L 186.5 173.4 L 188.9 177.0 L 186.5 180.6 L 182.9 183.0 L 156.3 183.0 L 153.7 182.8 L 151.2 182.4 L 148.8 181.6 L 146.5 180.3 L 144.5 178.7 L 142.9 176.7 L 141.6 174.4 L 140.8 172.0 L 140.4 169.5 L 140.3 167.0 L 140.3 108.0 L 117.5 108.0 Z " />
</g>
</svg>
