<svg xmlns="http://www.w3.org/2000/svg" xmlns:xlink="http://www.w3.org/1999/xlink" version="1.1" baseProfile="full" viewBox="0 0 200 200" width="200" height="200">
<g fill="black">
<path d="M 117.9 122.2 L 160.0 122.2 L 166.0 117.2 L 177.0 126.2 L 172.0 130.2 L 172.0 177.7 L 160.0 183.7 L 160.0 173.7 L 117.9 173.7 L 117.9 180.7 L 105.9 186.7 L 105.9 116.2 Z M 17.4 166.9 L 24.3 165.6 L 31.4 164.3 L 38.8 162.9 L 46.3 161.5 L 54.1 160.0 L 62.2 158.5 L 70.4 157.1 L 78.9 155.6 L 87.7 154.3 L 96.7 153.1 L 97.2 154.8 L 88.6 158.0 L 80.2 160.8 L 72.0 163.5 L 63.9 165.9 L 56.1 168.3 L 48.5 170.5 L 41.1 172.7 L 33.9 174.7 L 26.9 176.7 L 24.00237684249878 177.50963001251222 L 22.7 181.0 L 20.1 178.6 L 15.4 167.3 Z M 117.9 126.2 L 117.9 169.7 L 160.0 169.7 L 160.0 126.2 Z M 35.6 144.0 L 23.6 150.0 L 23.6 69.60727272033691 L 18.3 75.1 L 12.5 80.5 L 11.1 79.4 L 15.4 72.7 L 19.5 66.2 L 23.5 59.7 L 27.3 53.2 L 30.9 46.7 L 34.2 40.2 L 37.4 33.6 L 40.3 27.0 L 43.0 20.4 L 45.1576340675354 14.617540836334229 L 45.1 14.6 L 46.0 12.3 L 56.6 18.1 L 58.7 21.1 L 54.91159734725952 21.687855625152586 L 53.4 24.9 L 50.0 31.7 L 46.3 38.3 L 45.8692307472229 39.0 L 67.2 39.0 L 67.68620691299438 38.594827556610106 L 68.0 37.9 L 68.30397272109985 38.080022716522215 L 73.2 34.0 L 84.2 43.0 L 79.2 46.0 L 75.67433624267578 47.46902656555176 L 74.0 49.6 L 71.9 52.2 L 69.7 54.8 L 67.5 57.3 L 65.3 59.7 L 63.0 62.1 L 60.7 64.3 L 58.660000038146975 66.0 L 75.1 66.0 L 81.1 61.0 L 92.1 70.0 L 87.1 74.0 L 87.1 136.0 L 75.1 142.0 L 75.1 132.0 L 35.6 132.0 Z M 35.6 100.0 L 35.6 128.0 L 49.4 128.0 L 49.4 100.0 Z M 61.4 100.0 L 61.4 128.0 L 75.1 128.0 L 75.1 100.0 Z M 159.7 104.7 L 151.8 98.5 L 144.6 91.6 L 142.2534523010254 88.84373760223389 L 140.2 91.1 L 131.5 99.1 L 122.2 106.4 L 112.2 112.8 L 101.5 118.3 L 90.2 122.8 L 89.5 121.1 L 99.7 114.9 L 109.2 108.3 L 118.1 101.2 L 126.4 93.6 L 134.0 85.3 L 136.73834199905394 81.85751295089722 L 132.9 76.1 L 128.3 67.5 L 124.7 58.2 L 122.1 48.4 L 121.18467149734497 42.11474456787109 L 120.0 44.8 L 116.8 51.7 L 113.6 58.7 L 110.3 65.8 L 106.7 73.0 L 103.0 80.1 L 99.0 87.3 L 97.3 86.6 L 99.5 78.7 L 101.8 70.9 L 106.6 55.9 L 108.9 48.6 L 111.3 41.5 L 113.6 34.4 L 115.8 27.4 L 118.1 20.6 L 120.2 13.8 L 120.22973680496216 13.810789489746094 L 120.7 12.4 L 131.5 17.9 L 133.6 20.8 L 129.94308233261108 21.569877433776856 L 128.7 24.5 L 125.9 31.2 L 124.27941179275513 35.0 L 162.3 35.0 L 168.3 30.0 L 179.3 39.0 L 174.3 42.0 L 172.10017194747925 42.91659498214722 L 168.5 51.0 L 162.4 62.2 L 155.7 72.6 L 148.8689073562622 81.46195793151855 L 151.8 84.3 L 158.6 89.8 L 166.1 94.8 L 174.3 99.1 L 183.2 102.9 L 189.5 105.5 L 178.1 115.0 L 168.5 110.2 Z M 35.6 70.0 L 35.6 96.0 L 49.4 96.0 L 49.4 70.0 Z M 61.4 70.0 L 61.4 96.0 L 75.1 96.0 L 75.1 70.0 Z M 122.81999998092651 39.0 L 126.1 47.2 L 130.2 56.0 L 134.7 64.0 L 139.8 71.5 L 142.33767127990723 74.4828766822815 L 147.3 67.0 L 153.0 56.9 L 158.1 46.2 L 161.0052631378174 39.0 Z M 43.40769233703613 43.0 L 42.3 44.8 L 38.1 51.1 L 33.6 57.4 L 29.308235263824464 62.854117679595944 L 35.6 66.0 L 55.3259259223938 66.0 L 56.0 64.7 L 58.4 58.9 L 59.7 56.0 L 61.1 53.1 L 62.4 50.1 L 65.2 44.1 L 65.69677419662476 43.0 Z " />
</g>
</svg>
