<svg xmlns="http://www.w3.org/2000/svg" xmlns:xlink="http://www.w3.org/1999/xlink" version="1.1" baseProfile="full" viewBox="0 0 200 200" width="200" height="200">
<g fill="black">
<path d="M 154.3 139.5 L 152.6 141.2 L 150.7 142.7 L 148.7 144.0 L 146.5 145.1 L 144.2 145.9 L 141.9 146.5 L 139.4 146.8 L 137.0 147.0 L 137.0 141.0 L 119.0 138.0 L 119.0 135.0 L 137.0 135.0 L 138.4 134.9 L 139.6 134.7 L 140.8 134.4 L 141.8 134.1 L 142.8 133.6 L 143.7 133.0 L 144.5 132.3 L 145.4 131.5 L 146.2 130.5 L 146.6 129.9 L 146.6 129.8 L 146.8 129.0 L 147.0 127.7 L 147.3 126.1 L 147.6 124.2 L 147.9 121.9 L 148.2 119.4 L 148.6 116.5 L 148.66060609817504 116.0 L 61.0 116.0 L 61.0 149.0 L 170.0 149.0 L 176.0 144.0 L 187.0 153.0 L 182.1 155.93999996185303 L 182.1 158.8 L 182.0 162.4 L 181.8 165.7 L 181.4 168.8 L 180.9 171.7 L 180.2 174.3 L 179.2 176.8 L 177.9 179.0 L 176.3 181.1 L 174.5 182.8 L 172.6 184.3 L 170.7 185.6 L 168.6 186.7 L 166.5 187.7 L 164.3 188.5 L 162.0 189.2 L 159.7 189.6 L 157.4 189.9 L 155.0 190.0 L 155.0 184.0 L 135.0 181.0 L 135.0 178.0 L 155.0 178.0 L 156.5 177.9 L 159.3 177.5 L 160.7 177.1 L 163.1 176.1 L 164.3 175.4 L 165.5 174.6 L 166.7 173.7 L 167.8 172.6 L 167.9 172.4 L 168.3 171.8 L 168.7 170.6 L 169.2 169.0 L 169.5 167.0 L 169.8 164.6 L 170.0 161.8 L 170.0253297805786 160.98944587707518 L 170.0 161.0 L 170.0 153.0 L 61.0 153.0 L 53.0 161.0 L 43.0 151.0 L 49.0 145.0 L 49.0 106.0 L 61.0 112.0 L 88.1 112.0 L 88.5 111.7 L 91.9 107.9 L 93.5 106.1 L 95.0 104.2 L 96.5 102.4 L 99.3 98.6 L 100.6 96.6 L 101.30630359649658 95.48168592453003 L 101.2 95.4 L 101.71724138259887 94.83103446960449 L 101.8 94.7 L 101.82001123428344 94.71798763275146 L 102.2 94.3 L 110.7 102.7 L 111.6 106.2 L 107.2041932106018 105.3516863822937 L 104.2 107.4 L 101.9 108.8 L 99.6 110.0 L 97.2 111.2 L 95.28000001907348 112.0 L 149.0 112.0 L 155.0 107.0 L 166.0 116.0 L 161.0 119.0 L 160.31529407501222 119.28529415130615 L 160.1 120.9 L 159.8 123.5 L 159.5 125.9 L 159.2 128.0 L 158.9 129.8 L 158.6 131.3 L 158.3 132.6 L 158.0 133.8 L 157.2 135.5 L 155.9 137.5 Z M 150.0 169.0 L 150.0 173.0 L 19.0 173.0 L 19.0 169.0 L 128.0 169.0 L 138.0 159.0 Z M 99.8 134.7 L 97.9 133.0 L 95.8 131.2 L 93.3 129.5 L 90.6 127.8 L 87.5 126.0 L 84.2 124.3 L 80.7 122.5 L 76.7 121.0 L 77.1 119.3 L 81.4 119.8 L 85.5 120.2 L 89.4 120.8 L 93.0 121.5 L 96.5 122.5 L 99.8 123.5 L 102.9 124.8 L 105.8 126.2 L 108.5 127.8 L 111.1 129.6 L 112.8 133.8 L 111.1 138.1 L 106.8 139.8 L 102.6 138.1 L 101.3 136.4 Z M 102.0 90.8 L 122.0 90.8 L 123.2 90.7 L 124.1 90.6 L 124.7 90.4 L 125.0 90.2 L 125.2 90.0 L 125.4 89.9 L 125.5 89.5 L 125.7 88.9 L 125.9 88.0 L 126.0 86.8 L 126.0 41.2 L 86.0 41.2 L 86.0 37.2 L 126.0 37.2 L 132.0 32.2 L 143.0 41.2 L 138.0 45.2 L 138.0 45.31081085205078 L 140.9 49.7 L 144.7 54.8 L 147.0349471092224 57.61391067504883 L 147.5 57.3 L 151.2 54.5 L 154.7 51.9 L 158.0 49.4 L 161.0 47.1 L 163.8 44.9 L 166.3 42.8 L 168.6 40.7 L 170.7 38.8 L 171.79647054672242 37.70352945327759 L 171.7 37.6 L 172.5 37.0 L 179.9 46.4 L 180.2 50.0 L 176.16263732910156 48.5318681716919 L 174.6 49.4 L 171.6 50.9 L 168.4 52.4 L 165.0 53.9 L 161.4 55.4 L 157.5 57.0 L 153.3 58.5 L 148.95609560012818 59.882151412963864 L 152.7 63.9 L 157.0 67.8 L 161.7 71.2 L 166.6 74.4 L 171.8 77.1 L 177.3 79.5 L 183.2 81.5 L 190.3 84.0 L 178.7 93.9 L 172.2 90.9 L 166.1 87.4 L 160.4 83.5 L 155.2 79.2 L 150.5 74.5 L 146.4 69.3 L 142.7 63.8 L 139.6 57.8 L 138.0 53.6 L 138.0 86.8 L 137.8 89.4 L 137.4 91.8 L 136.6 94.3 L 135.3 96.5 L 133.7 98.5 L 131.7 100.2 L 129.4 101.4 L 127.0 102.2 L 124.5 102.7 L 122.0 102.8 L 122.0 96.8 L 102.0 93.8 Z M 35.0 18.5 L 63.0 18.5 L 69.0 13.5 L 80.0 22.5 L 75.0 26.5 L 75.0 85.8 L 74.8 88.4 L 74.4 90.9 L 73.6 93.3 L 72.3 95.6 L 70.7 97.6 L 68.7 99.2 L 66.4 100.4 L 64.0 101.3 L 61.5 101.7 L 59.0 101.8 L 59.0 95.8 L 43.0 92.8 L 43.0 89.8 L 60.2 89.8 L 61.1 89.6 L 61.7 89.4 L 62.0 89.2 L 62.2 89.1 L 62.4 88.9 L 62.7 88.0 L 62.9 87.1 L 63.0 85.8 L 63.0 67.1 L 35.0 67.1 L 35.0 67.5 L 34.4 72.7 L 33.5 77.5 L 32.2 82.0 L 30.5 86.1 L 28.4 89.7 L 26.0 92.8 L 23.2 95.4 L 20.1 97.5 L 16.7 98.9 L 13.3 100.0 L 12.6 98.4 L 15.2 96.4 L 17.3 94.0 L 19.0 91.6 L 20.4 89.0 L 21.5 86.1 L 22.3 83.1 L 22.8 79.7 L 23.1 76.0 L 23.2 71.9 L 23.0 67.5 L 23.0 12.5 Z M 123.0 58.0 L 118.0 61.0 L 116.26560640335083 61.722663974761964 L 116.1 62.2 L 113.8 66.8 L 110.9 71.1 L 107.5 75.1 L 103.7 78.8 L 99.4 82.1 L 94.6 85.1 L 89.3 87.8 L 83.5 90.0 L 77.3 91.9 L 76.6 90.2 L 81.9 86.7 L 86.6 83.2 L 90.8 79.8 L 94.5 76.3 L 97.7 72.8 L 100.4 69.3 L 102.5 65.7 L 104.1 62.1 L 105.3 58.4 L 105.38648653030396 58.0 L 81.0 58.0 L 81.0 54.0 L 106.0 54.0 L 112.0 49.0 Z M 35.0 44.6 L 35.0 63.1 L 63.0 63.1 L 63.0 44.6 Z M 35.0 22.5 L 35.0 40.6 L 63.0 40.6 L 63.0 22.5 Z M 133.6 29.4 L 131.5 27.8 L 129.2 26.1 L 126.6 24.5 L 123.8 22.8 L 120.7 21.1 L 117.3 19.5 L 113.7 17.7 L 109.7 16.3 L 110.1 14.5 L 114.4 15.0 L 118.5 15.3 L 122.4 15.8 L 126.1 16.5 L 129.6 17.3 L 132.9 18.3 L 136.1 19.4 L 139.1 20.6 L 141.9 22.0 L 144.5 23.5 L 146.6 27.6 L 145.2 32.0 L 141.2 34.1 L 136.8 32.7 L 135.3 31.1 Z " />
</g>
</svg>
