<svg xmlns="http://www.w3.org/2000/svg" xmlns:xlink="http://www.w3.org/1999/xlink" version="1.1" baseProfile="full" viewBox="0 0 200 200" width="200" height="200">
<g fill="black">
<path d="M 150.4 63.8 L 143.1 63.9 L 134.6 64.3 L 124.8 64.7 L 113.8 65.4 L 106.62914981842042 65.80809717178344 L 99.7 66.6 L 90.0 67.8 L 81.2 69.0 L 73.3 70.1 L 66.3 71.3 L 61.921968650817874 72.07674751281738 L 63.4 73.1 L 65.3 75.5 L 65.7 79.1 L 65.1 81.3 L 64.83896350860596 82.40940494537354 L 64.9 90.1 L 64.2 102.2 L 62.7 113.7 L 60.3 124.7 L 57.0 135.1 L 52.6 144.7 L 47.1 153.6 L 40.5 161.6 L 32.6 168.7 L 23.5 174.6 L 22.4 173.2 L 28.45511989593506 167.38389797210692 L 32.8 160.9 L 38.1 151.1 L 42.3 141.3 L 45.4 131.3 L 47.7 121.1 L 49.1 110.7 L 49.9 100.3 L 50.1 89.7 L 49.7 79.1 L 49.493020343780515 75.93616752624511 L 49.3 75.4 L 48.3 73.4 L 47.2 71.9 L 46.1 70.8 L 44.9 70.1 L 44.75421409606933 69.86309795379638 L 44.0 69.6 L 42.0 65.5 L 43.5 61.2 L 47.6 59.1 L 64.6 59.1 L 70.1 59.2 L 74.0666666984558 59.2 L 75.1 59.1 L 84.7 58.3 L 94.7 57.3 L 97.37532463073731 57.01428575515747 L 97.2 56.5 L 97.8 51.9 L 98.1 47.7 L 98.1 43.8 L 98.0 40.4 L 97.6 37.4 L 97.0 34.6 L 96.1 32.2 L 95.0 30.0 L 93.6 27.8 L 92.91044778823853 27.27462682723999 L 92.6 27.1 L 90.8 26.1 L 89.0 25.9 L 89.0 24.1 L 91.0 23.9 L 93.2 23.5 L 95.4 23.3 L 97.6 23.3 L 99.9 23.6 L 102.1 24.2 L 104.4 24.9 L 106.7 25.9 L 108.9 27.2 L 111.1 28.6 L 112.8 32.8 L 111.28378381729127 36.63513517379761 L 111.0 39.0 L 110.8 41.5 L 110.6 46.9 L 110.5 49.7 L 110.5 52.6 L 110.44918031692505 54.17540979385376 L 110.69557466506959 55.55521793365479 L 115.6 55.0 L 119.68010845184327 54.51338157653809 L 122.7 54.0 L 130.4 52.3 L 136.3 50.7 L 141.1 49.3 L 145.4 48.2 L 149.9 47.9 L 154.6 48.8 L 159.4 50.9 L 161.9859154701233 52.52253522872925 L 165.2 53.9 L 167.0 58.1 L 165.2 62.3 L 161.0 64.1 L 156.3 63.8 Z " />
</g>
</svg>
