<svg xmlns="http://www.w3.org/2000/svg" xmlns:xlink="http://www.w3.org/1999/xlink" version="1.1" baseProfile="full" viewBox="0 0 200 200" width="200" height="200">
<g fill="black">
<path d="M 167.2 121.0 L 165.31516714096068 121.78534708023071 L 162.4 129.3 L 156.8 140.0 L 150.0 149.6 L 146.6072048187256 153.29342260360718 L 147.0 153.7 L 153.0 159.0 L 159.4 163.6 L 166.2 167.6 L 173.4 171.0 L 181.0 173.7 L 188.0 176.3 L 176.4 186.2 L 168.1 182.3 L 160.2 177.8 L 152.9 172.5 L 146.3 166.7 L 140.2 160.1 L 140.0706067085266 159.93296508789064 L 133.2 165.8 L 123.3 172.2 L 112.4 177.6 L 100.5 181.8 L 87.6 184.9 L 73.9 186.8 L 73.5 185.1 L 86.7 181.3 L 98.7 176.8 L 109.6 171.6 L 119.3 165.8 L 127.9 159.1 L 134.5309100151062 152.73083639144897 L 129.8 145.2 L 125.6 136.8 L 122.2 127.8 L 121.50296258926392 125.22632341384887 L 120.6 127.0 L 117.4 132.4 L 113.9 137.8 L 110.1 143.0 L 105.9 148.0 L 101.3 152.9 L 96.3 157.5 L 94.9 156.4 L 98.3 150.6 L 101.5 144.9 L 104.6 139.4 L 107.4 133.9 L 109.9 128.5 L 112.2 123.0 L 114.2 117.6 L 115.8 112.3 L 116.12390508651734 111.13394165039062 L 112.6 114.4 L 108.3 118.0 L 103.8 121.5 L 99.1 124.6 L 94.2 127.4 L 93.0 126.1 L 96.6 121.7 L 100.2 117.5 L 103.7 113.4 L 107.1 109.2 L 110.3 104.9 L 113.5 100.7 L 116.5 96.3 L 119.3 91.9 L 122.1 87.4 L 124.10849609375 83.70436716079712 L 124.1 83.7 L 124.1679012298584 83.59506168365479 L 124.6 82.8 L 124.65857257843018 82.83675146102905 L 125.2 82.0 L 134.8 89.2 L 136.3 92.4 L 132.45333337783813 92.4 L 131.5 93.7 L 128.0 98.2 L 124.68191423416138 102.16326913833618 L 130.0 104.3 L 132.5 107.0 L 128.81488780975343 108.11869478225708 L 128.2 110.1 L 126.69473686218262 114.0 L 155.2 114.0 L 161.2 109.0 L 170.89716310501097 116.9340425491333 L 169.5 114.0 L 167.4 109.9 L 165.1 106.1 L 162.7 102.3 L 160.1 98.7 L 157.3 95.1 L 154.3 91.7 L 151.3 88.2 L 148.0 84.9 L 149.0 83.4 L 153.4 85.4 L 157.7 87.7 L 161.7 90.5 L 165.5 93.6 L 169.1 96.9 L 172.5 100.5 L 175.7 104.4 L 178.7 108.6 L 181.5 112.9 L 184.2 117.5 L 184.3 122.1 L 181.2 125.5 L 176.6 125.6 L 173.3 122.5 L 171.57360591888428 118.37583646774291 Z M 19.3 166.9 L 25.5 165.8 L 31.9 164.7 L 38.4 163.5 L 45.1 162.3 L 51.9 161.0 L 58.8 159.8 L 65.9 158.5 L 73.2 157.2 L 80.7 156.1 L 88.4 155.1 L 88.8 156.8 L 81.7 159.8 L 74.6 162.4 L 67.6 164.8 L 60.7 167.1 L 53.9 169.3 L 40.7 173.3 L 34.3 175.1 L 28.1 176.9 L 25.895258617401122 177.50452585220336 L 24.5 181.1 L 21.9 178.6 L 17.4 167.3 Z M 37.5 144.0 L 25.5 150.0 L 25.5 66.06744184494019 L 24.2 67.7 L 19.5 72.8 L 14.4 77.5 L 13.0 76.4 L 16.5 70.5 L 19.8 64.7 L 23.0 58.8 L 26.0 52.8 L 28.9 46.7 L 31.5 40.5 L 34.0 34.1 L 36.3 27.6 L 38.3 21.0 L 39.945817184448245 15.109707069396972 L 39.9 15.1 L 40.7 12.6 L 51.7 17.6 L 54.0 20.4 L 50.345995140075686 21.29747486114502 L 49.1 24.7 L 46.3 31.5 L 45.59545450210571 33.0 L 63.9 33.0 L 69.9 28.0 L 80.9 37.0 L 75.9 40.0 L 73.44982576370239 41.02090587615967 L 72.2 43.3 L 68.6 49.1 L 66.7 51.9 L 64.7 54.7 L 62.6 57.3 L 60.4 59.7 L 58.1 62.0 L 77.2 62.0 L 82.7 57.0 L 93.2 66.0 L 88.2 69.5 L 88.2 136.0 L 77.2 141.5 L 77.2 132.0 L 37.5 132.0 Z M 124.99649124145508 118.0 L 123.42552671432495 121.44403762817383 L 126.0 126.1 L 130.8 134.0 L 135.9 141.3 L 139.9545244216919 146.18044605255128 L 142.0 143.6 L 147.4 134.6 L 151.9 124.9 L 154.22149534225463 118.0 Z M 37.5 98.0 L 37.5 128.0 L 51.1 128.0 L 51.1 98.0 Z M 63.1 98.0 L 63.1 128.0 L 77.2 128.0 L 77.2 98.0 Z M 37.5 66.0 L 37.5 94.0 L 51.1 94.0 L 51.1 66.0 Z M 63.1 66.0 L 63.1 94.0 L 77.2 94.0 L 77.2 66.0 Z M 179.4 21.0 L 182.4 23.0 L 179.4 24.8 L 179.4 81.0 L 167.4 87.0 L 167.4 81.0 L 112.1 81.0 L 104.6 89.0 L 95.6 79.0 L 101.1 73.0 L 101.1 19.0 L 112.1 21.0 L 114.9 23.0 L 112.1 24.75 L 112.1 77.0 L 167.4 77.0 L 167.4 19.0 Z M 148.8 57.2 L 144.9 52.9 L 142.99573774337767 50.898083209991455 L 138.9 54.6 L 133.4 58.8 L 127.6 62.7 L 121.5 66.1 L 115.0 69.1 L 114.1 67.5 L 119.4 63.0 L 124.4 58.4 L 129.2 53.8 L 133.7 49.1 L 137.1253436088562 45.02221002578735 L 137.0 44.9 L 133.1 41.2 L 129.0 37.7 L 125.0 34.2 L 121.0 30.9 L 117.0 27.5 L 117.8 25.9 L 122.9 27.6 L 127.9 29.7 L 132.8 32.3 L 137.6 35.2 L 142.27639484405518 38.31759653091431 L 145.5 33.7 L 148.8 28.2 L 151.9 22.4 L 154.7 16.4 L 154.7040955543518 16.402009868621825 L 155.2 15.3 L 165.5 21.7 L 167.3 24.8 L 163.48627843856812 25.1287691116333 L 161.8 28.0 L 157.9 33.9 L 153.6 39.6 L 149.79333333969117 43.98594198226929 L 151.8 45.6 L 156.4 49.7 L 161.0 53.9 L 165.5 58.5 L 166.9 62.8 L 165.0 67.0 L 160.6 68.4 L 156.5 66.4 L 152.7 61.7 Z M 43.71666669845581 37.0 L 43.2 38.1 L 39.9 44.5 L 36.4 50.7 L 32.6 56.6 L 31.03935480117798 58.7696774482727 L 37.5 62.0 L 55.05 62.0 L 55.7 60.6 L 56.7 57.5 L 57.8 54.5 L 59.8 48.5 L 60.8 45.4 L 63.23870964050293 37.0 Z " />
</g>
</svg>
