<svg xmlns="http://www.w3.org/2000/svg" xmlns:xlink="http://www.w3.org/1999/xlink" version="1.1" baseProfile="full" viewBox="0 0 200 200" width="200" height="200">
<g fill="black">
<path d="M 29.290740776062012 38.545370388031 L 31.3 37.8 L 37.5 35.6 L 43.6 33.4 L 49.5 31.2 L 55.4 28.8 L 61.1 26.3 L 66.7 23.7 L 72.2 21.0 L 77.6 18.1 L 82.00445022583008 15.60691499710083 L 82.0 15.6 L 82.00615367889404 15.605950736999512 L 82.9 15.1 L 84.38011865615844 17.901653289794922 L 91.1 24.4 L 91.3 27.7 L 87.5172966003418 26.149711704254152 L 82.6 28.4 L 76.6 30.8 L 70.5 33.0 L 64.4 35.0 L 58.1 36.8 L 51.7 38.4 L 45.3 39.8 L 38.8 40.8 L 32.1 41.5 L 30.2 41.58507461547852 L 30.2 65.0 L 58.12127656936646 65.0 L 59.9 38.6 L 71.7 41.3 L 74.6 43.5 L 71.48087339401245 44.662027549743655 L 70.15530729293823 65.0 L 79.7 65.0 L 89.7 55.0 L 101.7 65.0 L 101.7 69.0 L 69.89459962844849 69.0 L 68.2456238746643 94.3 L 80.5 94.3 L 86.5 89.3 L 97.5 98.3 L 92.5 102.3 L 92.5 177.5 L 80.5 183.5 L 80.5 173.5 L 47.4 173.5 L 47.4 180.5 L 37.4 185.5 L 37.4 89.3 L 47.4 94.3 L 56.14716310501099 94.3 L 57.85177307128906 69.0 L 30.2 69.0 L 30.2 100.0 L 29.8 112.6 L 29.2 124.4 L 28.2 135.3 L 27.0 145.3 L 25.5 154.5 L 23.6 162.7 L 21.5 170.1 L 19.0 176.5 L 16.1 182.0 L 12.9 186.3 L 11.6 185.6 L 13.3 180.6 L 14.8 175.1 L 16.2 168.7 L 17.5 161.5 L 18.5 153.4 L 19.3 144.5 L 19.9 134.7 L 20.2 124.0 L 20.4 112.4 L 20.2 100.0 L 20.2 34.0 Z M 169.1 90.9 L 167.7 93.0 L 166.1 94.8 L 164.2 96.4 L 162.0 97.7 L 159.8 98.7 L 157.4 99.4 L 154.9 99.8 L 152.4 100.0 L 152.4 94.0 L 140.4 91.0 L 140.4 88.0 L 152.4 88.0 L 153.7 87.9 L 154.8 87.7 L 155.7 87.4 L 156.5 87.1 L 157.1 86.7 L 157.7 86.2 L 158.3 85.6 L 158.8 84.8 L 159.3 83.8 L 159.8 82.6 L 160.2 80.9 L 160.7 78.6 L 161.1 75.5 L 161.5 71.9 L 161.9 67.7 L 162.1 62.9 L 162.3 57.5 L 162.5 51.5 L 162.6 45.0 L 162.6 40.0 L 120.9 40.0 L 120.9 110.0 L 174.3 110.0 L 180.3 105.0 L 191.3 114.0 L 186.35118112564086 116.96929130554199 L 186.4 121.9 L 186.3 131.2 L 186.1 139.6 L 185.7 147.2 L 185.2 154.0 L 184.5 160.0 L 183.6 165.2 L 182.5 169.8 L 181.1 173.7 L 179.3 177.2 L 177.8 179.1 L 176.1 180.9 L 174.3 182.6 L 172.4 184.0 L 170.3 185.2 L 168.1 186.2 L 165.9 187.0 L 163.5 187.5 L 161.1 187.8 L 158.6 188.0 L 158.6 182.0 L 138.6 179.0 L 138.6 176.0 L 158.6 176.0 L 160.1 175.9 L 161.4 175.7 L 162.6 175.4 L 163.7 175.1 L 164.8 174.6 L 165.8 174.0 L 166.7 173.3 L 167.6 172.5 L 168.5 171.5 L 169.4 170.3 L 170.1 169.0 L 171.0 166.5 L 171.9 162.9 L 172.6 158.3 L 173.3 152.8 L 173.8 146.4 L 174.1 139.1 L 174.3 131.0 L 174.39935598373413 121.95860166549683 L 174.3 122.0 L 174.3 114.0 L 120.9 114.0 L 112.9 122.0 L 102.9 112.0 L 108.9 106.0 L 108.9 30.0 L 120.9 36.0 L 132.76000003814698 36.0 L 133.2 35.0 L 133.9 32.3 L 134.6 29.7 L 135.3 27.2 L 135.9 24.8 L 136.6 22.4 L 137.1 20.1 L 138.1 15.7 L 138.31570930480956 14.56752634048462 L 138.1 14.5 L 138.49344263076782 13.63442621231079 L 138.5 13.6 L 138.5076763153076 13.603112030029298 L 139.1 12.3 L 149.6 18.1 L 151.7 21.1 L 147.21257257461548 21.796324920654296 L 145.6 24.1 L 144.1 26.1 L 140.9 30.1 L 139.1 32.2 L 137.3 34.2 L 135.5 36.0 L 162.6 36.0 L 168.6 31.0 L 179.6 40.0 L 174.6 43.0 L 174.6 45.1 L 174.5 51.8 L 174.3 57.9 L 174.1 63.4 L 173.8 68.5 L 173.5 73.0 L 173.0 77.0 L 172.5 80.5 L 171.9 83.6 L 171.2 86.3 L 170.3 88.7 Z M 47.4 147.4 L 47.4 169.5 L 80.5 169.5 L 80.5 147.4 Z M 164.2 144.0 L 164.2 148.0 L 99.7 148.0 L 99.7 144.0 L 142.2 144.0 L 152.2 134.0 Z M 47.4 122.8 L 47.4 143.4 L 80.5 143.4 L 80.5 122.8 Z M 47.4 98.3 L 47.4 118.8 L 80.5 118.8 L 80.5 98.3 Z M 142.0 68.7 L 141.2 66.5 L 140.1 64.3 L 138.7 62.0 L 137.1 59.8 L 135.2 57.4 L 133.0 55.1 L 130.6 52.6 L 127.7 50.5 L 128.5 48.9 L 131.9 50.4 L 135.3 51.6 L 138.5 53.2 L 141.4 54.9 L 144.2 56.8 L 146.7 58.9 L 149.0 61.2 L 151.1 63.7 L 152.9 66.3 L 154.4 69.2 L 154.1 73.7 L 150.7 76.8 L 146.1 76.4 L 143.1 73.0 L 142.7 70.9 Z " />
</g>
</svg>
