<svg xmlns="http://www.w3.org/2000/svg" xmlns:xlink="http://www.w3.org/1999/xlink" version="1.1" baseProfile="full" viewBox="0 0 200 200" width="200" height="200">
<g fill="black">
<path d="M 115.1 150.8 L 114.8 149.3 L 113.8 146.1 L 113.2 144.4 L 111.6 140.8 L 110.9 139.2444444656372 L 110.9 183.0 L 98.9 189.0 L 98.9 87.0 L 110.9 93.0 L 126.5 93.0 L 132.5 88.0 L 143.5 97.0 L 138.5 101.0 L 138.5 173.0 L 138.3 175.5 L 137.9 178.0 L 137.1 180.4 L 135.8 182.7 L 134.2 184.7 L 132.2 186.3 L 129.9 187.6 L 127.5 188.4 L 125.0 188.8 L 122.5 189.0 L 122.5 183.0 L 114.5 180.0 L 114.5 177.0 L 122.5 177.0 L 123.7 176.9 L 124.6 176.7 L 125.5 176.4 L 125.9 176.0 L 126.2 175.1 L 126.4 174.2 L 126.5 173.0 L 126.5 153.4 L 123.3 156.7 L 118.7 156.7 L 115.4 153.6 L 115.3 152.2 Z M 47.8 98.0 L 45.529729747772215 105.0 L 67.8 105.0 L 73.8 100.0 L 84.8 109.0 L 79.8 112.0 L 78.325 112.61458330154419 L 76.0 120.3 L 71.6 131.4 L 66.6 141.7 L 64.48581914901733 145.16288242340087 L 64.8 145.4 L 69.9 149.6 L 74.7 154.1 L 79.4 158.9 L 83.9 163.9 L 85.0 168.3 L 82.8 172.3 L 78.4 173.5 L 74.4 171.2 L 70.7 166.2 L 66.9 161.4 L 62.8 156.8 L 59.36857671737671 153.12347507476807 L 54.4 159.8 L 47.2 167.5 L 39.4 174.3 L 30.9 180.2 L 21.8 185.0 L 12.0 188.8 L 11.3 187.1 L 19.9 181.7 L 27.9 175.8 L 35.1 169.4 L 41.7 162.3 L 47.7 154.6 L 52.705019092559816 146.66751699447633 L 49.6 143.9 L 44.7 139.9 L 39.7 136.0 L 34.6 132.1 L 32.97876844406128 130.9070182800293 L 32.8 131.2 L 28.8 136.5 L 24.6 141.5 L 20.0 145.8 L 15.0 149.6 L 13.7 148.3 L 17.1 143.3 L 20.3 138.2 L 23.4 132.9 L 26.2 127.4 L 28.8 121.6 L 31.1 115.5 L 33.3 109.0 L 35.1 102.3 L 36.8 95.2 L 37.54516124725342 91.0 L 10.8 91.0 L 10.8 87.0 L 45.3 87.0 L 45.3 65.0 L 20.7 65.0 L 20.7 61.0 L 45.3 61.0 L 45.3 39.0 L 17.1 39.0 L 17.1 35.0 L 45.3 35.0 L 45.3 12.0 L 57.3 14.0 L 60.3 16.0 L 57.3 17.8 L 57.3 35.0 L 62.6 35.0 L 72.6 25.0 L 84.6 35.0 L 84.6 39.0 L 57.3 39.0 L 57.3 61.0 L 62.81818180084228 61.0 L 71.0 52.0 L 81.0 61.0 L 81.0 65.0 L 57.3 65.0 L 57.3 87.0 L 72.71818180084229 87.0 L 80.9 78.0 L 90.9 87.0 L 90.9 91.0 L 49.68461542129516 91.0 Z M 152.9 173.3 L 152.0 168.9 L 150.9 164.4 L 149.6 160.0 L 148.2 155.5 L 146.7 151.1 L 145.1 146.6 L 143.4 142.0 L 141.9417061805725 137.96824645996094 L 141.1 137.6 L 142.2 132.4 L 143.4 127.4 L 144.6 122.5 L 145.9 117.6 L 147.1 112.8 L 150.4 98.7 L 152.01996812820434 90.42016267776489 L 151.9 90.4 L 152.6 87.7 L 163.8 92.4 L 166.2 95.0 L 162.58813190460205 96.11639556884765 L 162.3 97.0 L 160.7 101.7 L 157.1 110.9 L 155.1 115.6 L 153.0 120.2 L 150.8 124.8 L 148.3 129.4 L 145.7 133.9 L 143.69013652801513 136.8477996826172 L 146.6 140.1 L 149.7 144.1 L 152.5 148.2 L 155.0 152.5 L 157.4 156.9 L 159.5 161.3 L 161.5 165.8 L 163.2 170.4 L 164.8 175.1 L 166.1 179.8 L 165.2 184.3 L 161.4 186.9 L 156.9 185.9 L 154.4 182.2 L 153.7 177.7 Z M 172.3 173.2 L 171.2 169.0 L 170.0 164.7 L 168.6 160.4 L 167.0 156.0 L 165.3 151.5 L 163.5 146.9 L 161.7 142.1 L 159.96433124542236 137.9343949317932 L 159.2 137.6 L 160.5 132.6 L 161.8 127.7 L 163.3 122.9 L 164.7 118.1 L 166.1 113.4 L 167.4 108.7 L 169.8 99.5 L 171.780850315094 91.21644411087036 L 171.7 91.2 L 172.5 88.6 L 183.5 93.6 L 185.9 96.3 L 182.1361216545105 97.29049425125122 L 181.8 98.2 L 180.0 102.8 L 178.1 107.4 L 176.1 111.9 L 173.9 116.5 L 171.7 121.0 L 169.3 125.4 L 166.7 129.8 L 163.9 134.1 L 161.82952032089233 136.90516605377198 L 164.8 140.3 L 168.1 144.3 L 171.0 148.5 L 173.7 152.7 L 176.2 157.0 L 178.5 161.3 L 180.6 165.6 L 182.5 169.9 L 184.2 174.2 L 185.7 178.6 L 185.0 183.1 L 181.3 185.9 L 176.8 185.1 L 174.1 181.5 L 173.3 177.4 Z M 44.01142854690552 109.0 L 42.7 112.4 L 39.7 119.1 L 36.4 125.3 L 34.671491622924805 128.13283319473265 L 36.4 128.7 L 42.5 131.4 L 48.4 134.4 L 54.1 137.8 L 56.48176794052124 139.38784532546998 L 57.6 137.2 L 61.7 127.4 L 65.1 116.8 L 67.03274335861207 109.0 Z M 169.2 70.4 L 164.9 65.6 L 160.8 60.5 L 156.9 55.1 L 153.1 49.4 L 149.6 43.4 L 146.3 37.0 L 143.7016282081604 31.19696969985962 L 143.7 31.2 L 139.6 37.8 L 135.1 44.2 L 130.3 50.6 L 125.0 56.8 L 119.4 62.9 L 113.4 68.9 L 106.9 74.7 L 100.0 80.3 L 92.6 85.6 L 91.4 84.3 L 97.4 77.5 L 103.1 70.9 L 108.6 64.4 L 113.6 58.0 L 118.4 51.6 L 122.7 45.1 L 126.7 38.7 L 130.3 32.3 L 133.6 25.8 L 134.415625 24.0 L 110.1 24.0 L 110.1 20.0 L 135.9 20.0 L 136.4271966934204 19.560669422149658 L 136.5 19.4 L 136.57659578323364 19.436170196533205 L 141.9 15.0 L 152.9 24.0 L 147.9 27.0 L 146.38017053604125 27.63326225280762 L 146.9 28.3 L 151.3 33.9 L 155.6 39.3 L 159.9 44.4 L 164.2 49.3 L 168.5 53.8 L 172.9 58.0 L 177.3 61.9 L 181.8 65.5 L 186.4 68.7 L 189.2 70.9 L 178.3 79.2 L 173.7 74.9 Z M 166.9 73.0 L 166.9 77.0 L 112.7 77.0 L 112.7 73.0 L 144.9 73.0 L 154.9 63.0 Z M 115.1 123.8 L 114.8 122.3 L 113.8 119.1 L 113.2 117.4 L 111.6 113.8 L 110.9 112.2444444656372 L 110.9 136.24375 L 112.2 137.3 L 114.2 138.3 L 116.1 139.4 L 119.5 141.8 L 121.1 143.1 L 122.5 144.4 L 123.9 145.8 L 126.5 148.8 L 126.5 126.4 L 123.3 129.7 L 118.7 129.7 L 115.4 126.6 L 115.3 125.2 Z M 110.9 97.0 L 110.9 109.24375 L 112.2 110.3 L 114.2 111.3 L 116.1 112.4 L 119.5 114.8 L 121.1 116.1 L 122.5 117.4 L 123.9 118.8 L 126.5 121.8 L 126.5 97.0 Z " />
</g>
</svg>
