<svg xmlns="http://www.w3.org/2000/svg" xmlns:xlink="http://www.w3.org/1999/xlink" version="1.1" baseProfile="full" viewBox="0 0 200 200" width="200" height="200">
<g fill="black">
<path d="M 59.6 177.5 L 57.2 174.1 L 54.5 170.7 L 51.5 167.3 L 48.1 164.0 L 44.5 160.6 L 40.5 157.2 L 36.2 153.8 L 31.6 150.2 L 32.5 148.6 L 38.0 150.6 L 43.3 152.8 L 48.2 155.3 L 52.8 158.1 L 57.0 161.0 L 61.0 164.1 L 64.7 167.4 L 68.0 170.9 L 71.1 174.5 L 73.9 178.4 L 74.4 182.9 L 71.6 186.6 L 67.1 187.1 L 63.4 184.3 L 61.7 180.9 Z M 183.0 146.0 L 185.0 146.0 L 183.0 171.0 L 186.6 173.4 L 189.0 177.0 L 186.6 180.6 L 183.0 183.0 L 143.0 183.0 L 140.4 182.8 L 137.9 182.4 L 135.5 181.6 L 133.2 180.3 L 131.2 178.7 L 129.6 176.7 L 128.3 174.4 L 127.5 172.0 L 127.1 169.5 L 127.0 167.0 L 127.0 134.0 L 106.0 134.0 L 106.0 146.0 L 94.0 152.0 L 94.0 72.94655170440674 L 92.1 75.6 L 85.7 84.0 L 78.7 92.5 L 77.2 91.4 L 82.6 81.9 L 87.6 72.7 L 92.3 64.1 L 96.7 55.8 L 100.7 47.9 L 104.2 40.4 L 107.3 33.2 L 109.9 26.5 L 112.2 20.1 L 113.64226026535034 15.00966968536377 L 113.6 15.0 L 114.4 12.5 L 125.4 17.7 L 127.6 20.6 L 123.87691841125488 21.449123859405518 L 122.8 24.1 L 119.8 30.7 L 116.65 37.0 L 146.0 37.0 L 146.48318586349487 36.597345161437985 L 146.6 36.3 L 146.75052757263182 36.37456035614014 L 152.0 32.0 L 163.0 41.0 L 158.0 44.0 L 154.84745759963988 45.31355934143066 L 151.5 50.0 L 149.3 52.7 L 147.0 55.5 L 144.6 58.3 L 142.1 61.1 L 139.4 63.9 L 136.5 66.6 L 135.14827585220337 68.0 L 160.0 68.0 L 166.0 63.0 L 177.0 72.0 L 172.0 76.0 L 172.0 140.0 L 160.0 146.0 L 160.0 134.0 L 139.0 134.0 L 139.0 168.2 L 139.2 169.1 L 139.5 170.0 L 139.9 170.4 L 140.8 170.7 L 141.7 170.9 L 143.0 171.0 L 177.0 171.0 Z M 59.3 139.7 L 57.8 137.6 L 56.2 135.5 L 54.4 133.5 L 52.4 131.5 L 50.3 129.6 L 48.0 127.6 L 45.6 125.7 L 42.9 124.1 L 43.5 122.5 L 46.7 123.3 L 49.9 124.0 L 53.0 124.9 L 55.9 126.0 L 58.8 127.4 L 61.6 128.9 L 64.3 130.7 L 66.8 132.6 L 69.3 134.7 L 71.6 137.0 L 72.6 141.4 L 70.3 145.4 L 65.9 146.4 L 61.9 144.1 L 60.7 141.9 Z M 66.6 102.5 L 62.9 96.8 L 59.94496297836304 92.6326400756836 L 55.0 100.9 L 47.9 110.5 L 40.0 119.1 L 31.4 126.6 L 22.1 132.9 L 12.0 137.9 L 11.2 136.3 L 19.9 129.8 L 27.9 122.6 L 35.2 114.7 L 41.9 106.0 L 47.8 96.4 L 53.1 86.0 L 53.7040319442749 84.54775304794312 L 50.7 80.9 L 46.3 76.0 L 41.8 71.2 L 37.2 66.5 L 35.28874168395996 64.668377494812 L 35.0 65.3 L 31.6 71.9 L 27.8 77.9 L 23.6 83.4 L 19.0 88.3 L 17.6 87.2 L 20.4 81.4 L 23.1 75.3 L 25.6 69.0 L 28.0 62.4 L 30.2 55.5 L 32.2 48.1 L 34.0 40.4 L 35.5 32.3 L 36.9 23.9 L 37.875857543945315 16.004425048828125 L 37.8 16.0 L 38.2 12.9 L 49.8 16.7 L 52.5 19.1 L 49.08698587417602 20.516722869873046 L 48.1 25.8 L 46.07159090042114 34.3 L 67.6 34.3 L 73.6 29.3 L 84.6 38.3 L 79.6 41.3 L 78.46549558639526 41.772710132598874 L 76.1 52.0 L 72.0 65.7 L 67.1 78.4 L 64.53724517822266 83.70535221099854 L 66.1 85.3 L 70.9 90.7 L 75.4 96.4 L 79.8 102.3 L 84.0 108.6 L 84.5 113.1 L 81.8 116.8 L 77.3 117.4 L 73.6 114.6 L 70.2 108.5 Z M 106.0 102.0 L 106.0 130.0 L 127.0 130.0 L 127.0 102.0 Z M 139.0 102.0 L 139.0 130.0 L 160.0 130.0 L 160.0 102.0 Z M 106.0 72.0 L 106.0 98.0 L 127.0 98.0 L 127.0 72.0 Z M 139.0 72.0 L 139.0 98.0 L 160.0 98.0 L 160.0 72.0 Z M 44.974698829650876 38.3 L 43.7 42.9 L 41.1 50.8 L 38.2 58.3 L 36.516077518463135 61.98358039855957 L 39.5 63.5 L 45.2 67.1 L 50.8 71.1 L 56.1 75.5 L 57.08260383605957 76.42480363845826 L 57.8 74.7 L 61.7 62.5 L 65.1 49.3 L 67.12836875915528 38.3 Z M 114.47746477127075 41.0 L 112.5 44.6 L 108.1 52.0 L 103.3 59.6 L 99.70849056243897 64.85424528121948 L 106.0 68.0 L 132.417142868042 68.0 L 134.1 64.9 L 135.7 61.3 L 137.3 57.9 L 138.9 54.6 L 140.4 51.4 L 141.8 48.2 L 143.1 45.1 L 144.4 42.1 L 144.80333337783813 41.0 Z " />
</g>
</svg>
