<svg xmlns="http://www.w3.org/2000/svg" xmlns:xlink="http://www.w3.org/1999/xlink" version="1.1" baseProfile="full" viewBox="0 0 200 200" width="200" height="200">
<g fill="black">
<path d="M 167.8 161.8 L 163.6 155.8 L 159.6 149.5 L 155.9 142.9 L 152.3 135.9 L 149.0 128.5 L 146.0 120.8 L 145.0 117.8 L 145.0 183.0 L 133.0 189.0 L 133.0 125.33260869979858 L 129.5 131.8 L 124.3 140.0 L 118.7 147.7 L 112.6 154.9 L 106.0 161.7 L 98.9 167.9 L 91.4 173.6 L 91.0 173.8518518447876 L 91.0 174.0 L 89.85714282989503 174.5714285850525 L 83.3 178.7 L 82.84390239715576 178.0780488014221 L 79.0 180.0 L 79.0 161.2 L 73.8 163.8 L 68.0 166.4 L 62.1 168.9 L 50.3 173.5 L 44.4 175.7 L 38.4 177.8 L 32.5 179.8 L 27.67073173522949 181.32926826477052 L 23.0 186.0 L 13.0 176.0 L 19.0 170.0 L 19.0 94.0 L 31.0 96.0 L 34.0 98.0 L 31.0 99.8 L 31.0 168.45901641845703 L 35.5 167.5 L 41.5 166.1 L 47.6 164.6 L 53.7 163.2 L 65.9 160.2 L 72.1 158.7 L 78.3 157.3 L 79.0 157.1666666984558 L 79.0 94.0 L 91.0 96.0 L 94.0 98.0 L 91.0 99.8 L 91.0 168.4666666984558 L 95.2 164.0 L 101.2 157.2 L 106.7 150.1 L 111.8 142.7 L 116.4 135.1 L 120.6 127.1 L 124.4 118.7 L 127.8 110.1 L 129.38028173446656 105.0 L 94.9 105.0 L 94.9 101.0 L 133.0 101.0 L 133.0 48.0 L 101.8 48.0 L 101.8 44.0 L 133.0 44.0 L 133.0 13.0 L 145.0 15.0 L 148.0 17.0 L 145.0 18.8 L 145.0 44.0 L 157.7 44.0 L 167.7 34.0 L 179.7 44.0 L 179.7 48.0 L 145.0 48.0 L 145.0 101.0 L 163.7 101.0 L 173.7 91.0 L 185.7 101.0 L 185.7 105.0 L 145.0 105.0 L 145.0 107.35 L 147.2 111.1 L 151.3 118.3 L 155.5 125.2 L 159.6 131.8 L 163.8 138.0 L 168.1 143.8 L 172.5 149.2 L 176.9 154.3 L 181.4 158.9 L 186.0 163.2 L 187.5 164.7 L 176.7 172.7 L 172.2 167.4 Z M 63.6 137.7 L 62.6 134.9 L 61.5 132.3 L 60.3 129.7 L 59.0 127.1 L 57.5 124.6 L 55.9 122.1 L 54.943386268615725 120.54550266265869 L 53.9 123.1 L 50.7 130.3 L 47.1 137.4 L 43.1 144.4 L 38.7 151.5 L 33.7 158.4 L 32.2 157.5 L 35.3 149.7 L 38.3 142.1 L 41.1 134.7 L 43.7 127.4 L 45.9 120.2 L 47.9 113.2 L 49.6 106.3 L 51.0 99.4 L 52.1 92.7 L 52.77823467254639 87.10456371307373 L 52.7 87.1 L 53.2 84.1 L 64.7 87.8 L 67.4 90.2 L 63.91776857376099 91.71115703582764 L 63.3 94.8 L 61.4 101.9 L 59.3 109.0 L 56.8 116.0 L 56.153693771362306 117.58233594894409 L 58.8 119.0 L 61.5 120.9 L 64.0 122.9 L 66.4 125.1 L 68.7 127.6 L 70.9 130.2 L 72.9 132.9 L 74.7 135.9 L 76.5 139.0 L 76.3 143.5 L 73.0 146.7 L 68.5 146.6 L 65.3 143.3 L 64.5 140.5 Z M 175.5 59.8 L 177.7 62.7 L 173.7917922973633 63.52278060913086 L 172.2 66.8 L 170.3 70.4 L 168.3 74.0 L 166.2 77.7 L 161.4 85.1 L 158.7 88.9 L 155.8 92.6 L 152.7 96.4 L 151.2 95.5 L 152.9 91.0 L 154.4 86.6 L 156.0 82.3 L 157.4 78.2 L 158.8 74.2 L 160.1 70.3 L 161.3 66.6 L 162.3 62.9 L 163.3 59.4 L 163.88337287902831 56.92066507339477 L 163.8 56.9 L 164.6 54.5 Z M 114.0 81.3 L 113.2 77.9 L 112.3 74.6 L 111.3 71.4 L 110.2 68.3 L 108.9 65.2 L 107.6 62.2 L 106.2 59.1 L 104.4 56.3 L 105.7 55.1 L 108.4 57.3 L 111.2 59.5 L 113.7 62.1 L 116.1 64.9 L 118.3 67.9 L 120.3 71.1 L 122.2 74.5 L 123.9 78.0 L 125.4 81.8 L 126.8 85.7 L 126.1 90.2 L 122.4 92.9 L 117.9 92.1 L 115.2 88.4 L 114.6 84.8 Z M 12.0 76.0 L 26.0 76.0 L 26.0 31.0 L 38.0 33.0 L 41.0 35.0 L 38.0 36.8 L 38.0 76.0 L 52.0 76.0 L 52.0 14.0 L 64.0 16.0 L 67.0 18.0 L 64.0 19.8 L 64.0 43.0 L 78.77777776718139 43.0 L 85.0 36.0 L 93.0 43.0 L 93.0 47.0 L 64.0 47.0 L 64.0 76.0 L 77.0 76.0 L 87.0 66.0 L 99.0 76.0 L 99.0 80.0 L 12.0 80.0 Z " />
</g>
</svg>
