<svg xmlns="http://www.w3.org/2000/svg" xmlns:xlink="http://www.w3.org/1999/xlink" version="1.1" baseProfile="full" viewBox="0 0 200 200" width="200" height="200">
<g fill="black">
<path d="M 142.9143123626709 156.08251953125 L 142.986869430542 156.22433576583862 L 142.95 151.8 Z M 141.0 133.4 L 140.2 133.8 L 138.8 134.8 L 138.2 135.5 L 137.7 136.4 L 137.4 137.3 L 137.1 138.3 L 137.1 139.5 L 136.7841607093811 139.49736804962157 L 136.78490562438964 139.5 L 137.1 139.5 L 137.1 140.6 L 137.4 141.6 L 137.7 142.5 L 138.2 143.4 L 138.8 144.1 L 140.2 145.1 L 141.0 145.5 L 141.9 145.7 L 142.95 145.7954545021057 L 144.0 145.7 L 144.9 145.5 L 145.7 145.1 L 147.1 144.1 L 147.7 143.4 L 148.2 142.5 L 148.5 141.6 L 148.8 140.6 L 148.9 139.5 L 160.9 139.5 L 160.6 142.4 L 160.0 145.2 L 158.9 147.8 L 157.5 150.2 L 155.7 152.4 L 153.6 154.2 L 151.3 155.7 L 148.7 156.9 L 145.9 157.5 L 143.75316066741942 157.72208681106568 L 144.1 158.4 L 146.5 162.3 L 149.1 165.9 L 152.0 169.2 L 155.1 172.3 L 158.6 175.3 L 162.3 178.1 L 161.6 179.8 L 156.8 178.6 L 152.2 176.8 L 147.8 174.3 L 143.7 171.2 L 139.9 167.6 L 136.4 163.5 L 133.2 159.0 L 130.2804123878479 154.13402061462403 L 129.0 153.8 L 124.0 153.0 L 118.5 152.6 L 112.6 152.7 L 106.2 153.1 L 99.3 154.0 L 92.9392508506775 155.13273611068726 L 92.9 155.8 L 88.8 156.6 L 80.6 158.6 L 76.5 159.8 L 72.5 161.2 L 68.4 162.8 L 64.3 164.6 L 60.1 166.6 L 56.23357400894165 168.62527074813843 L 53.3 171.3 L 51.80891408920288 171.23517017364503 L 51.7 171.3 L 51.663424777984616 171.22884454727173 L 48.7 171.1 L 45.2 168.9 L 42.4449541091919 166.24334859848022 L 41.5 165.7 L 40.85074625015259 162.84328355789185 L 40.6 162.3 L 40.64912281036377 161.95614032745362 L 40.5 161.3 L 40.82314052581787 160.73801651000977 L 41.2 158.1 L 43.3 155.5 L 45.7 153.6 L 48.4 151.8 L 51.7 149.9 L 55.4 147.7 L 58.11428575515747 145.95510206222534 L 66.0 139.9 L 66.95234127044678 139.13995838165283 L 71.7 135.0 L 82.9 124.5 L 92.9 114.3 L 101.6 104.4 L 107.63843727111816 96.56635160446167 L 106.6 96.8 L 98.9 98.5 L 91.7 100.2 L 85.0 101.9 L 78.6 103.6 L 72.7 105.3 L 67.3 107.1 L 62.3 108.8 L 60.24271354675293 109.605025100708 L 57.2 112.3 L 52.7 112.1 L 49.7 110.0 L 47.3 107.6 L 45.6 104.8 L 44.7 101.7 L 45.0 98.6 L 46.3 96.0 L 46.365356254577634 95.93120393753051 L 46.4 95.4 L 49.7 92.3 L 51.9 91.4 L 55.9 88.7 L 60.9 84.7 L 66.4 79.4 L 71.9 73.0 L 77.1 65.8 L 81.5 57.7 L 84.9 48.9 L 87.0 39.4 L 87.57754011154175 34.44278078079223 L 87.2 31.8 L 86.6 28.8 L 85.9 25.5 L 84.6 22.3 L 86.2 21.4 L 86.76793479919434 22.296739101409912 L 90.4 24.6 L 93.8 27.2 L 96.6 29.9 L 98.8 32.6 L 100.4 35.4 L 101.4 38.4 L 101.7 41.5 L 101.2 44.6 L 100.1 47.5 L 98.3 50.1 L 98.07113399505616 50.19263620376587 L 97.7 51.2 L 95.2 56.9 L 92.3 62.5 L 88.9 68.0 L 85.0 73.5 L 80.7 79.0 L 75.9 84.3 L 71.12823534011841 89.16352939605713 L 68.2 92.4 L 65.26315793991088 95.1192982673645 L 64.8 96.2 L 64.71642742156982 96.65964908599854 L 70.4 95.6 L 76.7 94.5 L 83.4 93.6 L 90.4 92.7 L 97.9 92.0 L 105.8 91.5 L 111.2947850227356 91.30139331817627 L 115.1 85.5 L 119.9 76.5 L 123.3 67.9 L 125.6 59.6 L 125.78858451843261 58.81872148513794 L 125.7 57.8 L 125.4 55.4 L 124.9 52.8 L 123.71626014709473 50.33387537002564 L 123.5 50.2 L 124.2 48.6 L 126.7 49.6 L 129.2 50.3 L 131.6 51.4 L 133.7 52.7 L 135.7 54.3 L 137.4 56.2 L 138.9 58.4 L 140.0 60.9 L 140.7 63.5 L 141.1 66.4 L 140.96329584121705 66.67340822219849 L 141.2 67.0 L 136.0 75.7 L 130.3 84.2 L 124.2 92.4 L 122.65393705368042 94.2271653175354 L 121.4 96.3 L 115.4 104.5 L 108.6 112.9 L 100.9 121.5 L 92.4 130.2 L 83.0 139.1 L 72.8 148.2 L 70.4319444656372 150.20208330154418 L 70.3 150.4 L 69.5917896270752 151.7377305984497 L 77.1 149.3 L 84.6 147.2 L 92.1 145.5 L 99.5 144.1 L 106.7 143.0 L 113.8 142.2 L 120.8 141.8 L 125.24972572326661 141.67102241516113 L 125.1 139.5 L 135.71428575515748 139.5 L 135.75121669769288 139.4887601852417 L 125.1 139.4 L 125.3 136.5 L 125.9 133.7 L 127.0 131.1 L 128.4 128.7 L 130.2 126.5 L 132.3 124.7 L 134.6 123.2 L 137.2 122.0 L 140.0 121.4 L 143.0 121.1 L 145.9 121.4 L 148.7 122.0 L 151.3 123.2 L 153.6 124.7 L 155.7 126.5 L 157.5 128.7 L 158.9 131.1 L 160.0 133.7 L 160.6 136.5 L 160.9 139.4 L 148.9 139.5 L 148.8 138.3 L 148.5 137.3 L 148.2 136.4 L 147.7 135.5 L 147.1 134.8 L 145.7 133.8 L 144.9 133.4 L 144.0 133.2 L 143.0 133.1 L 141.9 133.2 Z " />
</g>
</svg>
