<svg xmlns="http://www.w3.org/2000/svg" xmlns:xlink="http://www.w3.org/1999/xlink" version="1.1" baseProfile="full" viewBox="0 0 200 200" width="200" height="200">
<g fill="black">
<path d="M 152.7 49.8 L 145.3 49.3 L 135.9 49.1 L 133.87681093215943 49.11790428161621 L 135.6 49.8 L 139.2 51.9 L 142.1 54.7 L 143.5 58.5 L 143.5 62.2 L 142.7 65.6 L 141.7 69.1 L 140.6 73.0 L 140.2518681526184 73.39454946517944 L 140.0 77.5 L 139.3 92.1 L 138.7 105.0 L 138.4 116.2 L 138.2 125.8 L 138.3 133.6 L 138.5 139.7 L 138.5964705467224 141.08274507522583 L 138.7 141.1 L 139.1 145.3 L 140.3 148.6 L 142.0 151.1 L 144.1 153.0 L 146.8 154.5 L 150.3 155.8 L 154.5 156.7 L 159.7 157.2 L 165.8 157.3 L 172.8 157.0 L 177.0 158.7 L 178.74625759124757 162.56014833450317 L 179.1 162.7 L 180.9 166.9 L 179.2 171.1 L 175.1 173.0 L 164.8 172.5 L 155.5 171.2 L 147.3 169.1 L 140.2 166.1 L 134.2 162.2 L 129.5 157.4 L 126.2 151.8 L 124.3 145.6 L 123.9 138.9 L 124.63237600326538 134.23942556381226 L 125.4 124.9 L 126.2 111.5 L 126.6 99.4 L 126.6 88.5 L 126.2 78.9 L 125.4 70.5 L 124.3 63.3 L 122.8 57.3 L 121.1 52.4 L 119.6322283744812 49.39106817245484 L 118.4630630493164 49.43603601455688 L 109.7 50.3 L 97.9094946861267 51.58958654403686 L 98.9 52.4 L 101.0 54.4 L 102.8 56.6 L 104.5 58.9 L 105.8 61.3 L 105.3 65.9 L 103.51769990921021 67.37676286697388 L 103.3 69.2 L 102.6 76.4 L 102.1 84.1 L 101.7 92.5 L 101.5 101.3 L 101.4 110.7 L 101.5 120.7 L 101.5956862449646 130.7470588684082 L 101.78969354629517 138.7498607635498 L 101.9 140.0 L 102.5 148.8 L 103.0 156.1 L 103.2 162.0 L 103.2 166.6 L 102.243816280365 168.33851585388183 L 102.3 169.2 L 99.3 172.7 L 94.7 172.9 L 91.2 169.9 L 88.3 162.6 L 86.6 156.7 L 86.2 151.5 L 86.8 146.7 L 87.8 141.6 L 88.9 135.1 L 89.9 126.0 L 90.4 113.5 L 90.4 96.46666669845581 L 89.9 86.3 L 89.0 75.5 L 87.9 66.1 L 86.6 57.9 L 85.61598739624023 53.05022373199463 L 85.2 53.1 L 74.9 54.5 L 65.8 55.9 L 61.83899717330932 56.65208911895752 L 63.8 57.9 L 65.8 59.6 L 67.5 61.7 L 69.0 64.1 L 70.2 66.8 L 69.3 71.2 L 68.80565099716186 71.56074113845825 L 68.4 87.3 L 66.8 104.3 L 64.1 119.1 L 60.4 131.9 L 55.6 142.7 L 49.9 151.7 L 43.4 159.0 L 36.0 164.7 L 27.9 168.9 L 19.3 171.8 L 18.6 170.1 L 19.613888931274413 169.49166669845582 L 19.4 169.2 L 27.4 162.2 L 34.1 155.3 L 39.7 148.3 L 44.1 140.8 L 47.6 132.4 L 50.3 122.8 L 52.2 111.5 L 53.4 98.4 L 54.0 82.9 L 54.0 74.0 L 53.9 72.9 L 53.5 69.8 L 53.0 67.0 L 52.5 64.4 L 51.9 62.1 L 51.2 60.0 L 50.843324947357175 59.063727951049806 L 46.3 60.4 L 45.19130430221558 60.25217390060425 L 42.6 60.9 L 39.9 60.0 L 37.4 58.9 L 34.9 57.6 L 32.5 56.2 L 30.2 54.5 L 27.9 52.7 L 25.8 50.7 L 23.8 48.5 L 22.0 46.1 L 19.9 43.9 L 21.1 42.6 L 22.01578950881958 43.21052627563476 L 31.8 44.1 L 43.4 44.8 L 56.5 44.7 L 70.7 43.9 L 82.28260869979859 42.72608699798584 L 82.3 42.7 L 82.33743705749512 42.72053003311157 L 85.5 42.4 L 100.5 40.6 L 115.2 38.5 L 129.0 36.3 L 138.1632791519165 34.90718154907226 L 141.2 34.2 L 146.7 32.6 L 151.4 31.6 L 156.3 31.5 L 161.2 33.1 L 165.9 36.1 L 170.9 40.5 L 172.6 44.8 L 170.9 49.0 L 166.7 50.7 L 166.37355451583863 50.57094020843506 L 165.8 51.2 L 161.3 51.6 L 158.2 50.7 Z " />
</g>
</svg>
