<svg xmlns="http://www.w3.org/2000/svg" xmlns:xlink="http://www.w3.org/1999/xlink" version="1.1" baseProfile="full" viewBox="0 0 200 200" width="200" height="200">
<g fill="black">
<path d="M 52.7 167.4 L 49.36942310333252 169.57211542129517 L 53.3 170.3 L 61.4 171.0 L 72.0 171.2 L 164.0 171.2 L 170.0 146.2 L 172.0 146.2 L 170.0 171.2 L 173.6 173.6 L 176.0 177.2 L 173.6 180.8 L 170.0 183.2 L 72.0 183.2 L 60.8 183.0 L 51.8 182.2 L 44.7 180.9 L 39.0 178.4 L 34.9 172.6 L 36.4 165.5 L 40.7 161.0 L 46.7 157.0 L 54.7 152.8 L 64.8 148.2 L 123.89151287078857 123.1 L 30.0 123.1 L 30.0 119.1 L 138.0 119.1 L 144.0 114.1 L 145.9 115.65454549789429 L 145.9 112.4 L 53.0 112.4 L 41.0 118.4 L 41.0 74.9 L 53.0 80.9 L 145.9 80.9 L 151.9 75.9 L 162.9 84.9 L 157.9 88.9 L 157.9 112.4 L 147.98275861740112 117.35862064361572 L 153.64489459991455 121.99127740859986 L 156.7 122.1 L 154.77926301956177 122.91939697265624 L 155.0 123.1 L 150.0 126.1 L 138.0 131.1 L 138.0 130.07752294540404 L 69.5 159.3 L 59.9 163.6 Z M 53.0 84.9 L 53.0 108.4 L 145.9 108.4 L 145.9 84.9 Z M 14.0 67.1 L 60.18421049118042 67.1 L 73.26973686218261 45.0 L 32.0 45.0 L 32.0 41.0 L 75.63815793991088 41.0 L 84.81578950881958 25.5 L 22.0 25.5 L 22.0 21.5 L 156.0 21.5 L 166.0 11.5 L 178.0 21.5 L 178.0 25.5 L 98.71578950881958 25.5 L 89.53815793991089 41.0 L 134.0 41.0 L 140.0 36.0 L 151.0 45.0 L 146.0 49.0 L 146.0 67.1 L 167.8181818008423 67.1 L 176.0 58.1 L 186.0 67.1 L 186.0 71.1 L 14.0 71.1 Z M 87.16973686218262 45.0 L 74.08421049118041 67.1 L 134.0 67.1 L 134.0 45.0 Z " />
</g>
</svg>
