<svg xmlns="http://www.w3.org/2000/svg" xmlns:xlink="http://www.w3.org/1999/xlink" version="1.1" baseProfile="full" viewBox="0 0 200 200" width="200" height="200">
<g fill="black">
<path d="M 71.2 19.7 L 73.2 22.7 L 69.61509437561035 23.26603775024414 L 66.4 30.5 L 61.4 41.1 L 56.2 51.5 L 50.8 61.6 L 45.1 71.5 L 44.1 73.1 L 50.1 74.1 L 53.1 76.1 L 50.1 77.9 L 50.1 180.3 L 38.1 186.3 L 38.1 82.61612901687622 L 32.9 90.5 L 26.4 99.5 L 19.6 108.2 L 12.4 116.6 L 10.9 115.5 L 16.5 106.1 L 22.0 96.6 L 27.3 87.0 L 32.6 77.3 L 37.6 67.4 L 42.5 57.4 L 47.2 47.1 L 51.6 36.7 L 55.9 26.1 L 59.652338314056394 16.215791702270508 L 59.6 16.2 L 60.5 14.0 Z M 114.0 174.0 L 132.0 174.0 L 133.2 173.9 L 134.1 173.7 L 135.0 173.4 L 135.4 173.0 L 135.7 172.1 L 135.9 171.2 L 136.0 170.0 L 136.0 99.0 L 61.0 99.0 L 61.0 95.0 L 136.0 95.0 L 136.0 60.0 L 148.0 62.0 L 151.0 64.0 L 148.0 65.8 L 148.0 95.0 L 161.0 95.0 L 171.0 85.0 L 183.0 95.0 L 183.0 99.0 L 148.0 99.0 L 148.0 170.0 L 147.8 172.5 L 147.4 175.0 L 146.6 177.4 L 145.3 179.7 L 143.7 181.7 L 141.7 183.3 L 139.4 184.6 L 137.0 185.4 L 134.5 185.8 L 132.0 186.0 L 132.0 180.0 L 114.0 177.0 Z M 98.1 135.5 L 97.5 133.0 L 96.7 130.4 L 95.7 127.6 L 94.5 124.8 L 93.0 121.8 L 91.3 118.7 L 89.4 115.4 L 87.0 112.3 L 88.3 111.0 L 91.4 113.6 L 94.5 115.9 L 97.4 118.4 L 99.9 121.0 L 102.3 123.6 L 104.4 126.3 L 106.2 129.1 L 107.8 132.0 L 109.2 134.9 L 110.3 137.9 L 109.3 142.4 L 105.5 144.9 L 101.0 143.9 L 98.5 140.1 L 98.4 137.9 Z M 66.4 72.0 L 64.9 67.7 L 66.8 63.6 L 68.0 62.8 L 69.2 61.6 L 70.6 59.7 L 71.9 57.3 L 73.1 54.3 L 74.2 50.8 L 75.3 46.8 L 76.2 42.3 L 77.1 37.3 L 77.7 31.8 L 79.5 31.8 L 80.1 37.3 L 80.57115383148194 40.8 L 118.5 40.8 L 118.5 13.4 L 130.5 15.4 L 133.5 17.4 L 130.5 19.2 L 130.5 40.8 L 169.0 40.8 L 175.0 35.8 L 186.0 44.8 L 181.0 47.8 L 177.90769233703614 49.0884614944458 L 177.9 49.1 L 176.4 51.2 L 174.8 53.4 L 171.2 58.2 L 169.1 60.7 L 167.0 63.3 L 164.6 65.9 L 162.5 68.9 L 160.9 68.0 L 162.4 64.7 L 163.4 61.3 L 164.4 58.1 L 165.4 55.1 L 166.3 52.3 L 167.1 49.6 L 167.9 47.1 L 168.475 44.8 L 80.89583330154419 44.8 L 81.0 47.3 L 81.1 51.8 L 80.8 56.0 L 80.3 59.8 L 79.5 63.4 L 78.4 66.7 L 76.9 69.7 L 74.8 72.5 L 70.5 74.0 Z " />
</g>
</svg>
