<svg xmlns="http://www.w3.org/2000/svg" xmlns:xlink="http://www.w3.org/1999/xlink" version="1.1" baseProfile="full" viewBox="0 0 200 200" width="200" height="200">
<g fill="black">
<path d="M 73.3 18.1 L 75.4 21.0 L 71.77060031890869 21.63673677444458 L 68.5 29.2 L 63.5 40.1 L 58.1 50.7 L 52.6 61.1 L 46.8 71.2 L 45.72660551071167 72.97110090255737 L 51.9 74.0 L 54.9 76.0 L 51.9 77.8 L 51.9 183.0 L 39.9 189.0 L 39.9 82.4714285850525 L 34.5 90.7 L 27.9 100.0 L 20.9 108.9 L 13.6 117.5 L 12.1 116.4 L 17.8 106.8 L 23.4 97.0 L 28.9 87.2 L 34.2 77.3 L 39.3 67.2 L 44.3 56.9 L 49.1 46.4 L 53.7 35.7 L 58.0 24.8 L 61.85331926345825 14.616227626800537 L 61.8 14.6 L 62.7 12.3 Z M 172.6 146.3 L 171.2 143.5 L 169.82960481643676 141.16226692199706 L 160.7 142.6 L 148.5 144.3 L 136.8 145.8 L 132.0 146.4 L 132.0 181.4 L 120.0 187.4 L 120.0 147.8222222328186 L 114.8 148.4 L 104.6 149.4 L 94.9 150.4 L 85.7 151.3 L 77.0 152.1 L 72.83626947402954 152.4554404258728 L 70.9 155.7 L 68.8 152.8 L 66.2 140.9 L 68.2 140.8 L 76.4 140.7 L 85.1 140.6 L 94.3 140.4 L 104.0 140.2 L 114.3 139.9 L 118.61575174331665 139.7789976119995 L 120.1 137.8 L 123.7 133.3 L 127.3 128.9 L 130.7 124.8 L 134.0 120.8 L 137.2 116.9 L 143.0 109.5 L 145.6 106.0 L 147.473895072937 103.45150260925293 L 147.4 103.4 L 148.5 102.1 L 157.3 110.3 L 158.4 113.7 L 154.50447759628295 113.09552240371704 L 154.2 113.4 L 151.0 116.7 L 147.6 120.0 L 143.9 123.3 L 140.1 126.7 L 136.1 130.2 L 131.9 133.6 L 127.5 137.1 L 124.0342960357666 139.62707576751708 L 125.0 139.6 L 136.3 139.3 L 148.1 139.0 L 160.4 138.8 L 168.38275861740112 138.8 L 167.7 137.7 L 165.6 134.9 L 163.3 132.0 L 160.9 129.0 L 158.2 125.9 L 155.1 123.1 L 156.1 121.6 L 159.9 123.6 L 163.7 125.5 L 167.2 127.6 L 170.5 130.0 L 173.5 132.5 L 176.4 135.1 L 179.0 137.9 L 181.5 140.8 L 183.7 143.8 L 185.7 147.0 L 185.8 151.6 L 182.7 154.9 L 178.1 155.0 L 174.7 152.0 L 173.8 149.1 Z M 106.6 160.0 L 108.0 163.4 L 103.978125 163.12262935638427 L 101.1 166.1 L 98.0 169.0 L 94.7 171.8 L 91.2 174.5 L 87.4 177.1 L 83.5 179.5 L 79.3 181.9 L 74.8 184.0 L 70.2 186.1 L 69.2 184.6 L 73.0 181.2 L 76.4 177.9 L 79.7 174.7 L 82.8 171.5 L 85.7 168.4 L 88.4 165.3 L 90.8 162.2 L 93.0 159.2 L 95.0 156.2 L 96.28914289474487 154.051428604126 L 96.2 154.0 L 97.3 152.5 Z M 165.1 176.3 L 163.3 173.4 L 161.3 170.4 L 159.1 167.5 L 156.6 164.6 L 154.0 161.6 L 151.2 158.6 L 148.1 155.6 L 144.8 152.6 L 145.8 151.1 L 149.9 153.0 L 153.9 154.9 L 157.7 157.0 L 161.3 159.3 L 164.6 161.8 L 167.8 164.4 L 170.8 167.1 L 173.6 170.0 L 176.1 173.0 L 178.5 176.1 L 179.0 180.7 L 176.3 184.3 L 171.8 184.9 L 168.1 182.1 L 166.7 179.2 Z M 166.8 44.3 L 164.7 41.8 L 163.1382851600647 40.17321367263794 L 156.4 41.2 L 146.1 42.6 L 136.2 43.8 L 126.6 44.8 L 117.3 45.8 L 108.3 46.7 L 99.6 47.5 L 91.81104345321656 48.25074281692505 L 99.6 52.4 L 101.7 55.3 L 97.80959825515747 55.97075891494751 L 96.1 59.2 L 94.2 62.6 L 92.3 65.9 L 90.4 69.3 L 86.2 75.9 L 84.0 79.1 L 83.353125 80.0 L 105.6 80.0 L 111.3 80.2 L 111.65901756286621 80.22434015274048 L 110.4 77.9 L 108.8 75.4 L 107.1 72.9 L 105.3 70.2 L 103.4 67.4 L 101.0 64.9 L 102.2 63.5 L 105.1 65.5 L 108.1 67.2 L 111.0 69.0 L 113.6 71.0 L 116.1 73.0 L 118.4 75.0 L 120.6 77.1 L 122.7 79.3 L 124.6 81.6 L 126.3 83.9 L 126.6 88.4 L 123.7 92.0 L 120.26934309005738 92.22871046066284 L 128.8 99.2 L 130.1 102.6 L 125.90014486312866 102.23794355392457 L 124.6 103.6 L 122.3 105.8 L 120.0 107.9 L 117.7 110.1 L 115.2 112.2 L 112.6 114.3 L 109.9 116.4 L 107.18888893127442 118.33650789260864 L 109.5 120.4 L 112.0 123.0 L 114.4 125.9 L 116.6 128.9 L 116.9 133.4 L 114.0 137.0 L 109.5 137.3 L 105.9 134.4 L 104.9 131.8 L 103.6 129.2 L 102.1 126.6 L 100.4 124.0 L 98.4 121.4 L 96.2 118.9 L 93.8 116.3 L 91.1 113.7 L 88.2 111.1 L 85.0 108.7 L 85.8 107.1 L 89.7 108.6 L 93.5 110.0 L 97.1 111.7 L 100.5 113.6 L 103.7 115.7 L 105.040625 116.68312501907349 L 105.1 116.6 L 106.8 113.6 L 108.5 110.7 L 110.1 107.9 L 111.8 105.2 L 113.3 102.5 L 116.3 97.3 L 117.7 94.8 L 118.54099617004394 93.18269968032837 L 118.4 93.1 L 119.06729860305786 92.19004735946655 L 115.7 89.4 L 114.9 87.2 L 114.0 85.0 L 113.36233854293823 83.53337869644164 L 111.7 84.0 L 106.2 85.4 L 100.7 86.5 L 95.5 87.5 L 90.3 88.4 L 85.4 89.3 L 80.5 90.1 L 75.9 90.8 L 71.4 91.4 L 71.18309860229492 91.42957744598388 L 69.2 94.9 L 67.0 92.0 L 64.3 80.1 L 66.3 80.0 L 70.6 80.0 L 75.1 80.1 L 79.16006908416747 80.01173763275146 L 80.9 73.4 L 82.0 69.7 L 83.1 66.1 L 84.2 62.4 L 85.3 58.8 L 86.3 55.2 L 87.4 51.6 L 88.12053575515748 49.00607147216797 L 88.1 49.0 L 88.21034479141235 48.68275861740112 L 88.2423487663269 48.56754446029663 L 83.3 49.0 L 79.65038757324218 49.33178291320801 L 77.7 52.6 L 75.6 49.7 L 73.0 37.8 L 75.0 37.7 L 82.7 37.6 L 90.7 37.6 L 99.1 37.5 L 99.37088441848755 37.49688634872437 L 101.3 34.9 L 103.8 31.7 L 106.2 28.6 L 110.6 22.8 L 112.6 20.0 L 114.5 17.3 L 116.2 14.7 L 117.26112823486328 13.041987133026122 L 117.2 13.0 L 117.72380952835083 12.31904764175415 L 117.8 12.2 L 117.8094464302063 12.207719612121583 L 118.2 11.7 L 127.1 19.8 L 128.2 23.2 L 124.1089961051941 22.63572359085083 L 122.3 24.3 L 119.7 26.5 L 117.0 28.9 L 114.1 31.2 L 111.0 33.5 L 107.8 35.9 L 105.63982477188111 37.42482957839966 L 107.8 37.4 L 116.8 37.3 L 126.2 37.2 L 145.8 37.2 L 156.1 37.4 L 160.49764394760132 37.56439790725708 L 159.6 36.7 L 156.8 34.2 L 153.7 31.7 L 150.4 29.1 L 146.8 26.4 L 143.0 23.8 L 143.7 22.2 L 148.2 23.6 L 152.6 25.0 L 156.7 26.6 L 160.6 28.3 L 164.3 30.2 L 167.8 32.3 L 171.0 34.5 L 174.1 36.8 L 177.0 39.2 L 179.7 41.8 L 180.9 46.2 L 178.8 50.2 L 174.4 51.5 L 170.4 49.3 L 168.7 46.8 Z M 175.09230766296386 83.52027969360351 L 173.7 83.9 L 168.4 85.3 L 163.3 86.5 L 158.2 87.5 L 153.3 88.4 L 148.6 89.3 L 143.9 90.0 L 135.1 91.4 L 133.1 94.9 L 130.9 92.0 L 128.2 80.1 L 130.2 80.0 L 134.3 80.1 L 140.8368420600891 80.1 L 142.6 73.4 L 143.7 69.7 L 144.8 66.1 L 145.9 62.4 L 148.1 55.2 L 149.82053575515747 49.00607147216797 L 149.8 49.0 L 149.87659578323365 48.8042552947998 L 150.1 48.0 L 150.1791386604309 48.03109016418457 L 150.7 46.7 L 161.3 52.4 L 163.4 55.3 L 159.50959825515747 55.97075891494751 L 156.0 62.6 L 154.1 65.9 L 152.1 69.3 L 150.1 72.6 L 148.0 75.9 L 145.8 79.1 L 145.0816216468811 80.05783786773682 L 147.8 80.0 L 162.6 80.0 L 167.9 80.1 L 173.3 80.3 L 173.5054054260254 80.31081085205078 L 173.5 80.3 L 172.1 77.9 L 170.6 75.4 L 168.9 72.9 L 167.0 70.2 L 165.1 67.4 L 162.8 64.9 L 163.9 63.5 L 166.8 65.5 L 169.9 67.2 L 172.7 69.0 L 175.3 71.0 L 177.8 73.0 L 180.2 75.0 L 182.4 77.1 L 184.4 79.3 L 186.3 81.6 L 188.0 83.9 L 188.4 88.4 L 185.5 92.0 L 180.9 92.3 L 177.4 89.4 L 175.8 85.0 Z " />
</g>
</svg>
