<svg xmlns="http://www.w3.org/2000/svg" xmlns:xlink="http://www.w3.org/1999/xlink" version="1.1" baseProfile="full" viewBox="0 0 200 200" width="200" height="200">
<g fill="black">
<path d="M 72.1 20.0 L 74.2 22.9 L 70.52601022720337 23.533446502685546 L 67.2 31.0 L 62.1 41.7 L 56.7 52.2 L 51.1 62.5 L 45.3 72.6 L 44.30388803482056 74.1839813232422 L 50.4 75.2 L 53.4 77.2 L 50.4 79.0 L 50.4 183.1 L 38.4 189.1 L 38.4 83.4875 L 32.8 91.8 L 26.1 101.0 L 19.1 109.9 L 11.7 118.3 L 10.2 117.2 L 16.0 107.7 L 27.2 88.3 L 32.6 78.5 L 37.9 68.4 L 42.9 58.2 L 47.7 47.8 L 52.3 37.3 L 56.8 26.5 L 60.650345993041995 16.41576051712036 L 60.6 16.4 L 61.5 14.2 Z M 148.4 177.4 L 163.8 177.4 L 164.7 177.3 L 165.4 177.2 L 166.0 176.9 L 166.4 176.5 L 166.6 176.0 L 166.8 175.3 L 166.9 174.2 L 167.0 172.9 L 167.0 77.7 L 86.9 77.7 L 86.9 182.9 L 75.9 188.4 L 75.9 68.2 L 86.9 73.7 L 139.74285717010497 73.7 L 139.5 73.6 L 140.7 69.9 L 141.5 66.2 L 142.3 62.7 L 143.0 59.4 L 143.8 56.3 L 144.4 53.3 L 145.0 50.5 L 145.6 47.8 L 146.0 45.3 L 146.23754901885985 43.934093379974364 L 146.1 43.9 L 146.9 41.5 L 157.8 46.8 L 160.0 49.7 L 155.73440589904786 50.59801979064942 L 155.3 51.4 L 153.9 53.8 L 152.4 56.4 L 150.9 59.1 L 149.1 61.9 L 147.3 64.8 L 145.3 67.9 L 143.1 71.0 L 141.5454545021057 73.7 L 167.0 73.7 L 172.5 68.7 L 183.0 77.7 L 178.0 81.2 L 178.0 172.9 L 177.9 175.3 L 177.5 177.6 L 176.9 179.9 L 175.9 182.0 L 174.5 184.0 L 172.7 185.6 L 170.6 186.9 L 168.4 187.7 L 166.1 188.2 L 163.8 188.4 L 163.8 182.9 L 148.4 180.1 Z M 133.0 83.0 L 136.0 85.0 L 133.0 86.8 L 133.0 102.0 L 139.8 102.0 L 149.8 92.0 L 161.8 102.0 L 161.8 106.0 L 133.0 106.0 L 133.0 127.3 L 144.8 127.3 L 150.3 122.3 L 160.8 131.3 L 155.8 134.8 L 155.8 168.6 L 144.8 174.1 L 144.8 162.6 L 109.1 162.6 L 109.1 174.6 L 98.1 180.1 L 98.1 121.8 L 109.1 127.3 L 121.0 127.3 L 121.0 106.0 L 92.1 106.0 L 92.1 102.0 L 121.0 102.0 L 121.0 81.0 Z M 109.1 131.3 L 109.1 158.6 L 144.8 158.6 L 144.8 131.3 Z M 103.8 62.1 L 103.4 59.5 L 102.9 56.9 L 102.4 54.4 L 101.8 51.9 L 101.2 49.5 L 99.8 44.5 L 98.7 42.3 L 100.1 41.2 L 101.9 43.2 L 103.9 45.0 L 105.8 47.0 L 107.6 49.1 L 109.2 51.4 L 110.8 53.8 L 113.6 59.0 L 114.9 61.8 L 116.0 64.6 L 115.2 69.2 L 111.6 71.9 L 107.1 71.1 L 104.3 67.4 L 104.1 64.7 Z M 70.0 35.9 L 121.0 35.9 L 121.0 13.2 L 133.0 15.2 L 136.0 17.2 L 133.0 19.0 L 133.0 35.9 L 161.9 35.9 L 171.9 25.9 L 183.9 35.9 L 183.9 39.9 L 70.0 39.9 Z " />
</g>
</svg>
