<svg xmlns="http://www.w3.org/2000/svg" xmlns:xlink="http://www.w3.org/1999/xlink" version="1.1" baseProfile="full" viewBox="0 0 200 200" width="200" height="200">
<g fill="black">
<path d="M 65.0 17.9 L 67.1 20.7 L 63.632524490356445 21.42999486923218 L 60.7 29.0 L 56.1 39.9 L 51.4 50.5 L 46.5 60.9 L 41.3 71.0 L 40.18333330154419 73.0472222328186 L 45.9 74.0 L 48.9 76.0 L 45.9 77.8 L 45.9 183.0 L 33.9 189.0 L 33.9 84.26842107772828 L 30.2 90.5 L 24.3 99.8 L 18.1 108.8 L 11.5 117.4 L 10.0 116.5 L 14.8 106.8 L 19.7 97.2 L 24.5 87.4 L 29.1 77.5 L 33.6 67.3 L 38.0 57.1 L 42.2 46.6 L 46.2 35.9 L 50.0 25.0 L 53.6 13.9 L 53.62984294891358 13.91047124862671 L 54.1 12.5 Z M 161.7 179.4 L 159.9 181.1 L 158.0 182.5 L 156.0 183.8 L 153.8 184.8 L 151.5 185.6 L 149.1 186.2 L 146.7 186.5 L 144.2 186.6 L 144.2 180.6 L 124.2 177.6 L 124.2 174.6 L 145.7 174.6 L 147.0 174.4 L 148.1 174.1 L 149.2 173.7 L 150.2 173.3 L 151.2 172.7 L 152.1 172.0 L 152.9 171.1 L 153.8 170.1 L 154.6 169.0 L 155.9 166.4 L 157.3 162.3 L 158.6 156.7 L 159.8 149.8 L 160.8 141.5 L 161.6 132.0 L 162.3 121.2 L 162.8 109.1 L 163.0 95.7 L 163.0863013267517 83.1 L 91.15833330154419 83.1 L 88.2 90.2 L 84.9 97.2 L 81.2 104.0 L 77.2 110.5 L 72.7 116.8 L 67.9 122.8 L 62.6 128.5 L 61.1 127.4 L 64.7 120.7 L 68.2 114.0 L 71.4 107.3 L 74.4 100.6 L 77.1 93.8 L 79.5 86.9 L 81.7 79.8 L 83.5 72.7 L 85.1 65.4 L 86.13723402023315 59.00372343063354 L 86.1 59.0 L 86.275 58.15416669845581 L 86.3 58.0 L 86.30664043426513 58.00123805999756 L 86.7 56.1 L 98.1 60.2 L 100.7 62.7 L 97.10723514556885 64.07178297042847 L 96.1 68.0 L 93.8 75.6 L 92.57027025222779 79.1 L 163.1 79.1 L 169.1 74.1 L 180.1 83.1 L 175.1 86.1 L 175.0661208152771 86.11411628723144 L 175.0 95.9 L 174.7 109.4 L 174.3 121.8 L 173.6 132.9 L 172.7 142.8 L 171.7 151.5 L 170.4 159.1 L 168.8 165.5 L 167.0 171.0 L 164.7 175.5 L 163.3 177.5 Z M 101.6 101.5 L 129.4 101.5 L 135.4 96.5 L 146.4 105.5 L 141.4 109.5 L 141.4 157.7 L 129.4 163.7 L 129.4 151.7 L 101.6 151.7 L 101.6 163.7 L 89.6 169.7 L 89.6 95.5 Z M 101.6 127.9 L 101.6 147.7 L 129.4 147.7 L 129.4 127.9 Z M 101.6 105.5 L 101.6 123.9 L 129.4 123.9 L 129.4 105.5 Z M 95.2 52.1 L 94.5 50.0 L 93.5 47.9 L 92.4 45.8 L 91.0 43.6 L 89.4 41.3 L 87.6 39.0 L 85.6 36.6 L 83.975 35.3 L 81.62307691574097 35.3 L 79.9 38.5 L 76.9 43.6 L 73.5 48.5 L 69.8 53.1 L 65.8 57.5 L 61.3 61.6 L 56.5 65.3 L 55.2 64.0 L 58.5 59.1 L 61.6 54.2 L 64.4 49.3 L 67.1 44.4 L 69.4 39.5 L 71.6 34.5 L 73.4 29.5 L 75.0 24.3 L 76.3 19.0 L 77.4 13.7 L 77.41361255645752 13.703141403198241 L 77.8 11.9 L 89.1 16.4 L 91.6 19.0 L 87.92667579650879 20.180711364746095 L 87.3 22.2 L 85.1 27.8 L 83.57272729873657 31.3 L 107.71818180084229 31.3 L 115.9 22.3 L 125.9 31.3 L 125.9 35.3 L 88.75 35.3 L 90.0 35.8 L 92.8 37.3 L 95.5 39.0 L 97.9 40.7 L 100.2 42.7 L 102.3 44.8 L 104.2 47.0 L 105.9 49.4 L 107.4 51.9 L 107.2 56.5 L 103.9 59.6 L 99.3 59.4 L 96.2 56.1 L 95.8 54.1 Z M 154.1 52.1 L 153.3 50.0 L 152.4 47.9 L 151.2 45.8 L 149.8 43.6 L 148.2 41.3 L 146.4 39.0 L 144.4 36.6 L 142.775 35.3 L 140.04399995803834 35.3 L 138.7 37.7 L 135.7 42.5 L 132.3 47.0 L 128.6 51.2 L 124.5 55.1 L 120.1 58.6 L 115.3 61.8 L 114.1 60.4 L 117.4 56.0 L 120.5 51.6 L 123.4 47.2 L 126.0 42.7 L 128.4 38.2 L 130.5 33.5 L 132.3 28.7 L 133.9 23.9 L 135.2 18.8 L 136.02285165786742 14.603456592559814 L 136.0 14.6 L 136.09655170440675 14.22758617401123 L 136.2 13.7 L 136.23145160675048 13.707258033752442 L 136.7 11.9 L 147.9 16.4 L 150.4 19.0 L 146.70376567840577 20.18807535171509 L 146.1 22.1 L 144.0 27.5 L 142.17307691574098 31.3 L 167.3181818008423 31.3 L 175.5 22.3 L 185.5 31.3 L 185.5 35.3 L 147.60833330154418 35.3 L 148.9 35.8 L 151.7 37.3 L 154.3 39.0 L 156.8 40.7 L 159.1 42.7 L 161.2 44.8 L 163.1 47.0 L 164.8 49.4 L 166.3 51.9 L 166.0 56.5 L 162.7 59.6 L 158.1 59.4 L 155.0 56.1 L 154.6 54.1 Z " />
</g>
</svg>
