<svg xmlns="http://www.w3.org/2000/svg" xmlns:xlink="http://www.w3.org/1999/xlink" version="1.1" baseProfile="full" viewBox="0 0 200 200" width="200" height="200">
<g fill="black">
<path d="M 142.2 176.0 L 162.2 176.0 L 163.4 175.9 L 164.3 175.7 L 164.9 175.5 L 165.3 175.4 L 165.5 175.2 L 165.6 175.0 L 165.8 174.7 L 166.0 174.1 L 166.1 173.2 L 166.2 172.0 L 166.2 14.0 L 178.2 16.0 L 181.2 18.0 L 178.2 19.8 L 178.2 172.0 L 178.1 174.5 L 177.6 177.0 L 176.8 179.4 L 175.6 181.7 L 173.9 183.7 L 171.9 185.3 L 169.7 186.6 L 167.3 187.4 L 164.8 187.8 L 162.2 188.0 L 162.2 182.0 L 142.2 179.0 Z M 106.0 128.6 L 105.33980579376221 127.63611650466919 L 102.47327585220337 129.35603446960448 L 102.5 131.2 L 102.5 137.7 L 102.3 143.7 L 102.1 149.3 L 101.7 154.5 L 101.3 159.2 L 100.7 163.5 L 100.0 167.4 L 99.2 170.9 L 98.2 174.1 L 97.2 176.4 L 95.9 178.6 L 94.5 180.6 L 92.8 182.4 L 90.9 183.9 L 88.7 185.2 L 86.5 186.2 L 84.1 186.8 L 81.6 187.2 L 79.1 187.4 L 79.1 181.4 L 59.1 178.4 L 59.1 175.4 L 79.1 175.4 L 80.4 175.3 L 81.5 175.1 L 82.5 174.8 L 83.3 174.5 L 84.0 174.1 L 84.6 173.6 L 85.2 172.9 L 85.8 172.1 L 86.4 171.1 L 86.9 169.9 L 87.6 167.7 L 88.2 165.0 L 88.8 161.7 L 89.3 157.8 L 89.8 153.5 L 90.1 148.7 L 90.3 143.3 L 90.5 137.5 L 90.5 134.35833330154418 L 90.4 134.4 L 90.4 126.4 L 66.71000003814697 126.4 L 65.9 134.5 L 64.0 143.7 L 61.1 152.3 L 57.3 160.0 L 52.6 166.9 L 47.0 172.9 L 40.6 177.9 L 33.5 182.0 L 25.6 185.1 L 17.0 187.1 L 16.5 185.4 L 24.1 181.6 L 30.8 177.4 L 36.6 172.8 L 41.6 167.6 L 45.7 161.9 L 49.1 155.7 L 51.7 148.8 L 53.5 141.3 L 54.6 133.1 L 54.828409099578856 126.4 L 35.1 126.4 L 35.1 124.13950614929199 L 32.3 127.7 L 23.5 136.8 L 13.9 144.6 L 12.7 143.3 L 20.8 134.2 L 28.1 124.4 L 34.8 113.8 L 40.9 102.5 L 45.94878044128418 91.0 L 14.0 91.0 L 14.0 87.0 L 47.472519111633304 87.0 L 51.1 77.1 L 55.2 63.1 L 55.90266666412354 60.0 L 35.3 60.0 L 35.3 56.0 L 56.80933332443237 56.0 L 58.6 48.1 L 61.3 32.1 L 63.35 15.7 L 63.6 13.2 L 75.3 16.6 L 78.0 19.0 L 74.69538135528565 20.496431064605712 L 72.6 34.0 L 69.1 50.4 L 67.53636360168457 56.0 L 81.6 56.0 L 91.6 46.0 L 103.6 56.0 L 103.6 60.0 L 81.99263162612915 60.0 L 85.1 68.2 L 88.7 77.1 L 92.5 85.6 L 93.1913579940796 87.0 L 102.9 87.0 L 112.9 77.0 L 124.9 87.0 L 124.9 91.0 L 95.16666669845581 91.0 L 96.5 93.7 L 100.7 101.3 L 105.3 108.4 L 110.1 115.0 L 115.2 121.2 L 120.5 126.9 L 126.2 132.1 L 127.9 133.8 L 117.2 141.8 L 111.3 135.4 Z M 143.0 31.0 L 146.0 33.0 L 143.0 34.8 L 143.0 149.0 L 131.0 155.0 L 131.0 29.0 Z M 55.22537317276001 91.0 L 54.1 93.6 L 47.6 106.1 L 40.4 117.4 L 36.467961120605466 122.4 L 90.4 122.4 L 96.4 117.4 L 100.84338750839234 121.03549880981446 L 96.5 113.7 L 92.5 105.6 L 88.9 97.1 L 86.68181819915772 91.0 Z M 66.41948051452637 60.0 L 64.8 65.8 L 59.9 80.2 L 56.95671644210815 87.0 L 85.33655910491943 87.0 L 83.1 79.0 L 81.1 69.3 L 79.91470584869384 60.0 Z M 55.3 23.1 L 57.3 26.1 L 53.505607509613036 26.688785076141357 L 52.7 28.3 L 50.0 33.4 L 47.1 38.3 L 44.1 42.9 L 40.8 47.5 L 37.5 51.8 L 33.9 55.9 L 30.1 59.8 L 26.0 63.3 L 21.7 66.6 L 20.4 65.3 L 23.2 60.8 L 25.9 56.4 L 28.6 51.9 L 31.2 47.5 L 33.7 42.9 L 36.0 38.3 L 38.3 33.5 L 40.4 28.7 L 42.3 23.7 L 43.857947731018065 19.51814022064209 L 43.8 19.5 L 44.7 17.3 Z M 104.6 48.8 L 103.0 44.8 L 101.3 40.9 L 99.5 37.2 L 97.5 33.5 L 95.4 29.9 L 93.2 26.3 L 90.8 22.8 L 88.3 19.3 L 89.5 17.9 L 93.2 20.4 L 96.8 23.0 L 100.2 26.0 L 103.4 29.2 L 106.3 32.7 L 109.1 36.3 L 111.8 40.2 L 114.2 44.3 L 116.5 48.6 L 118.6 53.1 L 118.3 57.7 L 115.0 60.8 L 110.4 60.5 L 107.3 57.2 L 106.0 52.9 Z " />
</g>
</svg>
