<svg xmlns="http://www.w3.org/2000/svg" xmlns:xlink="http://www.w3.org/1999/xlink" version="1.1" baseProfile="full" viewBox="0 0 200 200" width="200" height="200">
<g fill="black">
<path d="M 142.7 176.0 L 162.7 176.0 L 164.0 175.9 L 164.9 175.7 L 165.8 175.4 L 166.0 175.2 L 166.1 175.0 L 166.3 174.7 L 166.5 174.1 L 166.7 173.2 L 166.7 14.0 L 178.7 16.0 L 181.7 18.0 L 178.7 19.8 L 178.7 172.0 L 178.6 174.5 L 178.1 177.0 L 177.3 179.4 L 176.1 181.7 L 174.5 183.7 L 172.5 185.3 L 170.2 186.6 L 167.8 187.4 L 165.3 187.8 L 162.7 188.0 L 162.7 182.0 L 142.7 179.0 Z M 80.8 179.0 L 79.0 180.6 L 77.1 182.0 L 75.0 183.2 L 72.8 184.2 L 70.6 185.0 L 68.2 185.5 L 65.8 185.8 L 63.3 186.0 L 63.3 180.0 L 45.3 177.0 L 45.3 174.0 L 63.3 174.0 L 64.8 173.9 L 66.1 173.7 L 67.3 173.4 L 68.4 173.1 L 69.5 172.6 L 70.5 172.0 L 71.5 171.3 L 72.4 170.5 L 73.3 169.5 L 74.2 168.3 L 75.5 166.2 L 76.8 163.7 L 78.1 160.8 L 79.3 157.4 L 80.4 153.6 L 81.5 149.3 L 82.5 144.7 L 83.4 139.6 L 84.3 134.1 L 84.6741379737854 131.0 L 49.58813562393188 131.0 L 48.2 135.5 L 35.0 137.7 L 44.08801259994507 108.0 L 13.4 108.0 L 13.4 104.0 L 95.11818180084228 104.0 L 103.3 95.0 L 113.3 104.0 L 113.3 108.0 L 56.68305082321167 108.0 L 50.82203388214111 127.0 L 85.0 127.0 L 91.0 122.0 L 102.0 131.0 L 97.0 134.0 L 96.29431819915771 134.29403409957885 L 96.1 135.8 L 95.3 141.6 L 94.3 147.0 L 93.2 152.0 L 92.0 156.8 L 90.7 161.1 L 89.2 165.1 L 87.7 168.8 L 85.9 172.2 L 84.0 175.2 L 82.5 177.2 Z M 140.0 31.0 L 143.0 33.0 L 140.0 34.8 L 140.0 149.0 L 128.0 155.0 L 128.0 29.0 Z M 99.2 83.0 L 99.2 87.0 L 26.3 87.0 L 26.3 83.0 L 81.01818180084229 83.0 L 89.2 74.0 Z M 28.8 21.0 L 46.7 21.0 L 52.2 16.0 L 62.7 25.0 L 57.7 28.5 L 57.7 64.0 L 46.7 69.5 L 46.7 60.0 L 28.8 60.0 L 28.8 67.0 L 16.8 73.0 L 16.8 15.0 Z M 80.0 21.0 L 97.9 21.0 L 103.9 16.0 L 114.9 25.0 L 109.9 29.0 L 109.9 64.0 L 97.9 70.0 L 97.9 60.0 L 80.0 60.0 L 80.0 67.0 L 69.0 72.5 L 69.0 15.5 Z M 80.0 25.0 L 80.0 56.0 L 97.9 56.0 L 97.9 25.0 Z M 28.8 25.0 L 28.8 56.0 L 46.7 56.0 L 46.7 25.0 Z " />
</g>
</svg>
