<svg xmlns="http://www.w3.org/2000/svg" xmlns:xlink="http://www.w3.org/1999/xlink" version="1.1" baseProfile="full" viewBox="0 0 200 200" width="200" height="200">
<g fill="black">
<path d="M 129.6 106.6 L 129.6 110.6 L 102.675 110.6 L 101.2 116.5 L 99.2 123.0 L 96.9 129.3 L 94.3 135.2 L 93.36785717010498 137.0 L 114.2 137.0 L 120.2 132.0 L 131.2 141.0 L 126.2 145.0 L 126.2 179.3 L 114.2 185.3 L 114.2 175.3 L 93.3 175.3 L 93.3 182.3 L 81.3 188.3 L 81.3 155.02631578445434 L 80.9 155.5 L 76.7 159.6 L 72.1 163.1 L 70.8 161.9 L 73.8 157.1 L 76.6 152.3 L 79.2 147.5 L 81.3 143.0375 L 81.3 139.0 L 83.0384614944458 139.0 L 83.8 137.2 L 85.7 131.7 L 87.4 126.0 L 88.9 120.1 L 90.1 114.0 L 90.6037036895752 110.6 L 71.8 110.6 L 71.8 106.6 L 107.6 106.6 L 117.6 96.6 Z M 70.4 106.6 L 70.4 110.6 L 43.475 110.6 L 42.0 116.5 L 40.0 123.0 L 37.7 129.3 L 35.2 135.2 L 34.26785717010498 137.0 L 55.0 137.0 L 61.0 132.0 L 72.0 141.0 L 67.0 145.0 L 67.0 179.3 L 55.0 185.3 L 55.0 175.3 L 34.1 175.3 L 34.1 182.3 L 22.1 188.3 L 22.1 155.0384614944458 L 21.7 155.5 L 17.5 159.6 L 13.0 163.1 L 11.7 161.9 L 14.6 157.1 L 17.4 152.3 L 20.0 147.5 L 22.1 143.0375 L 22.1 139.0 L 23.838461494445802 139.0 L 24.6 137.2 L 26.5 131.7 L 28.2 126.0 L 29.7 120.1 L 30.9 114.0 L 31.403703689575195 110.6 L 12.6 110.6 L 12.6 106.6 L 48.4 106.6 L 58.4 96.6 Z M 147.2 176.0 L 167.2 176.0 L 168.4 175.9 L 169.3 175.7 L 169.9 175.5 L 170.3 175.4 L 170.4 175.2 L 170.6 175.0 L 170.8 174.7 L 171.0 174.1 L 171.1 173.2 L 171.2 172.0 L 171.2 14.0 L 183.2 16.0 L 186.2 18.0 L 183.2 19.8 L 183.2 172.0 L 183.0 174.5 L 182.6 177.0 L 181.8 179.4 L 180.6 181.7 L 178.9 183.7 L 176.9 185.3 L 174.6 186.6 L 172.2 187.4 L 169.7 187.8 L 167.2 188.0 L 167.2 182.0 L 147.2 179.0 Z M 93.3 141.0 L 93.3 171.3 L 114.2 171.3 L 114.2 141.0 Z M 34.1 141.0 L 34.1 171.3 L 55.0 171.3 L 55.0 141.0 Z M 150.8 31.0 L 153.8 33.0 L 150.8 34.8 L 150.8 149.0 L 138.8 155.0 L 138.8 29.0 Z M 120.9 23.3 L 120.9 27.3 L 70.3578125 27.3 L 67.7 33.6 L 64.4 39.7 L 60.7 45.4 L 56.4 50.9 L 56.1235294342041 51.2 L 98.7 51.2 L 104.7 46.2 L 115.7 55.2 L 110.7 59.2 L 110.7 88.7 L 98.7 94.7 L 98.7 86.7 L 54.0 86.7 L 54.0 89.7 L 42.0 95.7 L 42.0 64.25087718963623 L 40.9 65.1 L 34.9 69.0 L 28.3 72.5 L 21.2 75.5 L 20.3 74.0 L 26.2 69.3 L 31.7 64.7 L 36.7 60.0 L 41.3 55.2 L 42.0 54.363414669036864 L 42.0 53.0 L 43.14081630706787 53.0 L 45.4 50.3 L 49.0 45.3 L 52.2 40.1 L 54.9 34.7 L 57.2 29.1 L 57.76842107772827 27.3 L 21.4 27.3 L 21.4 23.3 L 98.9 23.3 L 108.9 13.3 Z M 54.0 55.2 L 54.0 82.7 L 98.7 82.7 L 98.7 55.2 Z " />
</g>
</svg>
