<svg xmlns="http://www.w3.org/2000/svg" xmlns:xlink="http://www.w3.org/1999/xlink" version="1.1" baseProfile="full" viewBox="0 0 200 200" width="200" height="200">
<g fill="black">
<path d="M 107.0 124.5 L 110.0 126.5 L 107.0 128.3 L 107.0 139.3 L 165.1 139.3 L 175.1 129.3 L 187.1 139.3 L 187.1 143.3 L 107.0 143.3 L 107.0 181.9 L 95.0 187.9 L 95.0 143.3 L 14.8 143.3 L 14.8 139.3 L 95.0 139.3 L 95.0 122.5 Z M 20.9 110.1 L 34.9 110.1 L 36.1 110.0 L 37.0 109.9 L 37.6 109.7 L 37.9 109.5 L 38.3 109.1 L 38.6 108.2 L 38.8 107.3 L 38.9 106.1 L 38.9 77.01166667938233 L 35.8 78.2 L 23.6 82.6 L 21.35665864944458 83.37229785919189 L 20.2 87.0 L 17.5 84.7 L 12.2 73.7 L 14.1 73.2 L 20.4 71.6 L 26.6 70.1 L 32.9 68.6 L 38.9 67.14838705062866 L 38.9 39.3 L 14.1 39.3 L 14.1 35.3 L 38.9 35.3 L 38.9 11.3 L 50.9 13.3 L 53.9 15.3 L 50.9 17.1 L 50.9 35.3 L 54.3 35.3 L 64.3 25.3 L 76.3 35.3 L 76.3 39.3 L 50.9 39.3 L 50.9 64.2209677696228 L 51.4 64.1 L 57.5 62.6 L 63.7 61.2 L 69.8 60.0 L 76.0 59.0 L 76.6 60.7 L 71.0 63.6 L 65.4 66.3 L 59.6 68.9 L 53.7 71.3 L 50.9 72.39152545928955 L 50.9 106.1 L 50.7 108.6 L 50.3 111.1 L 49.5 113.5 L 48.2 115.8 L 46.6 117.8 L 44.6 119.5 L 42.3 120.7 L 39.9 121.5 L 37.4 121.9 L 34.9 122.1 L 34.9 116.1 L 20.9 113.1 Z M 86.7 118.5 L 86.7 44.66470584869385 L 86.4 44.9 L 81.0 48.7 L 75.4 52.2 L 69.5 55.3 L 63.3 58.1 L 62.3 56.6 L 67.4 52.2 L 72.2 47.8 L 76.9 43.5 L 81.4 39.2 L 85.6 34.8 L 86.7 33.535000038146975 L 86.7 31.2 L 88.1151515007019 31.907575798034667 L 89.6 30.2 L 93.4 25.6 L 96.9 20.9 L 100.2 16.1 L 103.2 11.1 L 103.22124528884888 11.113883018493652 L 103.7 10.3 L 113.3 17.7 L 114.7 21.0 L 110.87560739517212 20.87035961151123 L 109.4 22.8 L 105.3 27.6 L 100.9 32.3 L 96.78059701919555 36.240298461914065 L 98.7 37.2 L 130.02666664123535 37.2 L 131.5 35.5 L 133.7 32.3 L 136.0 29.3 L 138.1 26.5 L 140.1 23.8 L 142.1 21.2 L 143.9 18.8 L 145.6 16.5 L 147.1 14.2 L 147.98300971984864 12.963786411285401 L 147.9 12.9 L 148.5 12.239999961853027 L 148.6 12.1 L 148.61484813690186 12.113667011260986 L 148.9 11.8 L 157.4 20.2 L 158.2 23.8 L 154.04651165008545 22.92558135986328 L 153.1 23.7 L 150.7 25.5 L 148.2 27.4 L 145.5 29.3 L 142.8 31.3 L 139.8 33.4 L 136.7 35.4 L 133.87142858505248 37.2 L 161.6 37.2 L 171.6 27.2 L 183.6 37.2 L 183.6 41.2 L 141.3 41.2 L 141.3 59.7 L 163.11818180084228 59.7 L 171.3 50.7 L 181.3 59.7 L 181.3 63.7 L 141.3 63.7 L 141.3 82.8 L 163.11818180084228 82.8 L 171.3 73.8 L 181.3 82.8 L 181.3 86.8 L 141.3 86.8 L 141.3 108.5 L 166.2 108.5 L 176.2 98.5 L 188.2 108.5 L 188.2 112.5 L 98.7 112.5 Z M 98.7 86.8 L 98.7 108.5 L 129.3 108.5 L 129.3 86.8 Z M 98.7 63.7 L 98.7 82.8 L 129.3 82.8 L 129.3 63.7 Z M 98.7 41.2 L 98.7 59.7 L 129.3 59.7 L 129.3 41.2 Z " />
</g>
</svg>
