<svg xmlns="http://www.w3.org/2000/svg" xmlns:xlink="http://www.w3.org/1999/xlink" version="1.1" baseProfile="full" viewBox="0 0 200 200" width="200" height="200">
<g fill="black">
<path d="M 40.0 26.0 L 166.0 26.0 L 176.0 16.0 L 188.0 26.0 L 188.0 30.0 L 40.0 30.0 L 40.0 91.0 L 39.4 105.1 L 38.4 118.3 L 37.0 130.6 L 35.0 141.9 L 32.6 152.4 L 29.7 161.9 L 26.2 170.4 L 22.3 177.9 L 17.7 184.3 L 12.6 189.5 L 11.3 188.4 L 14.5 182.3 L 17.5 175.5 L 20.1 168.0 L 22.4 159.7 L 24.3 150.5 L 25.8 140.4 L 27.0 129.4 L 27.7 117.5 L 28.0 104.7 L 28.0 20.0 Z M 84.8 129.3 L 142.4 129.3 L 148.4 124.3 L 159.4 133.3 L 154.4 137.3 L 154.4 178.9 L 142.4 184.9 L 142.4 174.9 L 84.8 174.9 L 84.8 181.9 L 72.8 187.9 L 72.8 123.3 Z M 84.8 133.3 L 84.8 170.9 L 142.4 170.9 L 142.4 133.3 Z M 162.1 105.4 L 155.1 99.9 L 148.3 93.9 L 141.7 87.4 L 135.3 80.3 L 129.1 72.6 L 123.1 64.4 L 117.4 55.6 L 114.71892862319946 50.753447914123534 L 114.1 51.8 L 108.2 60.8 L 101.8 69.5 L 94.9 77.9 L 87.6 85.9 L 79.9 93.7 L 71.7 101.1 L 63.0 108.1 L 53.8 114.7 L 44.1 120.8 L 43.0 119.4 L 51.4 111.7 L 59.5 104.1 L 67.1 96.3 L 74.4 88.4 L 81.2 80.3 L 87.7 72.1 L 93.6 63.6 L 99.2 54.9 L 104.3 46.0 L 108.52885456085205 37.812217712402344 L 108.5 37.8 L 109.5 35.9 L 119.6 42.5 L 121.3 45.6 L 117.61642827987671 45.85403938293457 L 116.28240480422974 48.10975189208985 L 120.8 53.2 L 127.7 60.8 L 134.5 67.9 L 141.3 74.5 L 148.1 80.6 L 154.9 86.1 L 161.8 91.1 L 168.7 95.6 L 175.6 99.6 L 182.5 103.0 L 187.9 105.7 L 176.6 114.7 L 169.2 110.4 Z M 151.6 101.7 L 151.6 105.7 L 77.2 105.7 L 77.2 101.7 L 129.6 101.7 L 139.6 91.7 Z " />
</g>
</svg>
