<svg xmlns="http://www.w3.org/2000/svg" xmlns:xlink="http://www.w3.org/1999/xlink" version="1.1" baseProfile="full" viewBox="0 0 200 200" width="200" height="200">
<g fill="black">
<path d="M 154.6 181.7 L 143.4 176.2 L 133.79554376602172 170.26783590316774 L 131.1 171.9 L 119.1 177.5 L 105.9 182.1 L 91.6 185.7 L 76.1 188.3 L 75.8 186.5 L 90.6 182.1 L 104.1 177.1 L 116.4 171.5 L 127.25400848388672 165.32616033554078 L 124.1 162.9 L 116.1 155.2 L 109.2 146.9 L 103.5 137.8 L 99.0 128.1 L 96.14077672958373 118.6 L 84.1 118.6 L 84.1 114.6 L 166.3 114.6 L 172.3 109.6 L 183.3 118.6 L 178.3 121.6 L 176.30901708602906 122.42957620620727 L 173.3 129.6 L 167.4 139.9 L 160.2 149.4 L 151.7 157.8 L 143.78400001525878 163.92061853408813 L 148.4 166.3 L 159.0 170.8 L 170.6 174.6 L 183.1 177.8 L 191.6 179.9 L 179.9 190.6 L 166.7 186.5 Z M 98.38461542129517 118.6 L 102.7 126.3 L 108.4 134.6 L 114.8 142.3 L 121.9 149.3 L 129.9 155.6 L 135.74042387008666 159.3830018043518 L 137.0 158.5 L 145.3 151.0 L 152.4 142.9 L 158.3 134.2 L 163.0 124.9 L 165.24554452896118 118.6 Z M 31.2 42.0 L 56.1 42.0 L 62.1 37.0 L 73.1 46.0 L 68.1 50.0 L 68.1 140.0 L 56.1 146.0 L 56.1 134.0 L 31.2 134.0 L 31.2 146.0 L 19.2 152.0 L 19.2 36.0 Z M 31.2 46.0 L 31.2 130.0 L 56.1 130.0 L 56.1 46.0 Z M 128.4042552947998 15.704255294799804 L 134.7 22.0 L 134.9 25.4 L 131.18593482971193 23.88919382095337 L 129.0 24.8 L 125.4 26.2 L 121.6 27.6 L 117.8 28.9 L 113.8 30.1 L 109.6 31.3 L 105.4 32.4 L 101.0 33.3 L 97.5 33.908695697784424 L 97.5 57.8 L 113.01818180084229 57.8 L 121.2 48.8 L 131.2 57.8 L 131.2 61.8 L 97.5 61.8 L 97.5 87.6 L 169.1 87.6 L 169.1 61.8 L 139.6 61.8 L 139.6 57.8 L 169.1 57.8 L 169.1 31.9 L 140.3 31.9 L 140.3 27.9 L 169.1 27.9 L 175.1 22.9 L 186.1 31.9 L 181.1 35.9 L 181.1 95.6 L 169.1 101.6 L 169.1 91.6 L 97.5 91.6 L 97.5 98.6 L 85.5 104.6 L 85.5 26.0 L 95.44761905670165 30.97380952835083 L 99.4 28.8 L 103.2 26.7 L 107.0 24.7 L 110.6 22.7 L 114.1 20.7 L 117.5 18.7 L 120.7 16.7 L 123.8 14.7 L 125.97940969467163 13.319707202911378 L 125.9 13.2 L 126.00408163070679 13.304081630706786 L 126.8 12.8 Z " />
</g>
</svg>
