<svg xmlns="http://www.w3.org/2000/svg" xmlns:xlink="http://www.w3.org/1999/xlink" version="1.1" baseProfile="full" viewBox="0 0 200 200" width="200" height="200">
<g fill="black">
<path d="M 93.0 177.0 L 113.0 177.0 L 114.2 176.9 L 115.1 176.7 L 115.7 176.5 L 116.1 176.4 L 116.2 176.2 L 116.4 176.0 L 116.6 175.7 L 116.8 175.1 L 116.9 174.2 L 117.0 173.0 L 117.0 97.0 L 129.0 99.0 L 132.0 101.0 L 129.0 102.8 L 129.0 173.0 L 128.9 175.5 L 128.4 178.0 L 127.6 180.4 L 126.4 182.7 L 124.7 184.7 L 122.7 186.3 L 120.5 187.6 L 118.0 188.4 L 115.6 188.8 L 113.0 189.0 L 113.0 183.0 L 93.0 180.0 Z M 148.8 163.6 L 148.1 159.9 L 147.2 156.2 L 146.1 152.6 L 144.9 148.9 L 143.5 145.3 L 142.0 141.7 L 140.4 137.9 L 138.5 134.3 L 139.9 133.2 L 143.0 136.1 L 146.0 139.1 L 148.7 142.3 L 151.2 145.7 L 153.4 149.2 L 155.5 152.9 L 157.3 156.7 L 159.0 160.7 L 160.4 164.8 L 161.6 168.9 L 160.6 173.4 L 156.8 175.9 L 152.4 174.9 L 149.8 171.1 L 149.4 167.3 Z M 74.0 174.0 L 72.4 169.8 L 74.2 165.5 L 77.2 162.8 L 80.0 159.8 L 82.6 156.5 L 84.9 152.9 L 87.1 148.9 L 89.0 144.6 L 90.7 140.0 L 92.3 135.0 L 93.7 129.6 L 95.0 123.9 L 96.8 124.0 L 97.4 130.0 L 97.5 135.8 L 97.1 141.4 L 96.2 146.8 L 95.0 151.9 L 93.3 156.9 L 91.2 161.6 L 88.7 166.1 L 85.8 170.3 L 82.5 174.2 L 78.2 175.8 Z M 172.9 157.3 L 171.8 154.0 L 170.5 150.5 L 168.9 147.0 L 167.2 143.5 L 165.2 139.8 L 163.1 136.1 L 160.9 132.2 L 158.4 128.3 L 159.7 127.1 L 163.3 130.1 L 166.8 133.1 L 170.1 136.2 L 173.0 139.5 L 175.8 142.8 L 178.3 146.2 L 180.5 149.6 L 182.6 153.1 L 184.5 156.7 L 186.1 160.3 L 185.6 164.8 L 182.1 167.8 L 177.6 167.3 L 174.6 163.9 L 173.9 160.6 Z M 30.8 41.2 L 51.9 41.2 L 57.9 36.2 L 68.9 45.2 L 63.9 49.2 L 63.9 139.6 L 51.9 145.6 L 51.9 133.6 L 30.8 133.6 L 30.8 145.6 L 18.8 151.6 L 18.8 35.2 Z M 30.8 45.2 L 30.8 129.6 L 51.9 129.6 L 51.9 45.2 Z M 167.3 112.8 L 162.5 108.2 L 157.9 103.3 L 153.5 98.1 L 149.3 92.7 L 145.3 87.1 L 141.6 81.1 L 138.2 74.9 L 135.51818180084229 69.0 L 120.82608699798584 69.0 L 120.0 70.9 L 114.3 81.6 L 107.8 91.5 L 100.7 100.7 L 92.9 109.0 L 84.3 116.5 L 75.1 123.1 L 65.2 128.7 L 64.3 127.2 L 72.8 120.1 L 80.8 112.6 L 88.1 104.6 L 94.7 96.0 L 100.7 86.9 L 106.1 77.1 L 109.76057691574097 69.0 L 71.0 69.0 L 71.0 65.0 L 111.44909086227418 65.0 L 115.0 55.7 L 118.4 44.0 L 119.69564723968506 38.45999126434326 L 115.1 38.9 L 105.4 39.8 L 95.4 40.4 L 84.9 40.8 L 74.2 40.8 L 74.0 39.1 L 84.6 37.0 L 94.7 35.1 L 104.5 33.3 L 114.0 31.4 L 123.1 29.6 L 131.8 27.7 L 140.2 25.7 L 148.2 23.7 L 155.9 21.6 L 162.10181455612184 19.705001068115234 L 162.1 19.7 L 162.1048843383789 19.704063129425048 L 163.1 19.4 L 163.48894443511963 20.855405139923096 L 173.4 29.1 L 173.7 32.1 L 169.47430868148803 30.13594627380371 L 166.2 31.0 L 158.5 32.6 L 150.5 34.2 L 142.2 35.5 L 133.5 36.8 L 132.25603866577148 36.96586151123047 L 129.4 47.2 L 125.0 59.4 L 122.56521739959717 65.0 L 163.4 65.0 L 173.4 55.0 L 185.4 65.0 L 185.4 69.0 L 138.3692307472229 69.0 L 141.6 72.5 L 146.3 77.6 L 151.0 82.5 L 155.6 87.2 L 160.3 91.7 L 165.1 96.0 L 169.9 100.0 L 174.9 103.7 L 179.9 107.2 L 185.0 110.5 L 188.5 112.9 L 177.5 121.4 L 172.3 117.2 Z " />
</g>
</svg>
