<svg xmlns="http://www.w3.org/2000/svg" xmlns:xlink="http://www.w3.org/1999/xlink" version="1.1" baseProfile="full" viewBox="0 0 200 200" width="200" height="200">
<g fill="black">
<path d="M 97.1 120.1 L 159.4 120.1 L 165.4 115.1 L 176.4 124.1 L 171.4 128.1 L 171.4 181.8 L 159.4 187.8 L 159.4 177.8 L 97.1 177.8 L 97.1 184.8 L 85.1 190.8 L 85.1 114.1 Z M 97.1 150.2 L 97.1 173.8 L 159.4 173.8 L 159.4 150.2 Z M 28.5 41.6 L 49.0 41.6 L 55.0 36.6 L 66.0 45.6 L 61.0 49.6 L 61.0 140.9 L 49.0 146.9 L 49.0 134.9 L 28.5 134.9 L 28.5 146.9 L 16.5 152.9 L 16.5 35.6 Z M 97.1 124.1 L 97.1 146.2 L 159.4 146.2 L 159.4 124.1 Z M 28.5 45.6 L 28.5 130.9 L 49.0 130.9 L 49.0 45.6 Z M 161.7 109.9 L 153.7 105.4 L 146.7 99.7 L 140.8 93.0 L 135.9 85.4 L 132.2 76.8 L 131.16000003814696 73.0 L 94.6 73.0 L 94.6 100.50447759628295 L 97.3 99.9 L 104.0 98.3 L 110.7 96.8 L 117.4 95.2 L 124.1 93.7 L 130.8 92.3 L 137.6 91.1 L 138.2 92.8 L 132.0 95.9 L 125.8 98.8 L 119.4 101.5 L 113.0 104.0 L 106.5 106.5 L 93.3 111.1 L 86.6 113.3 L 79.9 115.4 L 77.08097085952758 116.27058248519897 L 75.8 119.9 L 73.1 117.5 L 68.2 106.4 L 70.2 105.9 L 82.6 103.16470584869384 L 82.6 14.0 L 94.6 20.0 L 160.5 20.0 L 166.5 15.0 L 177.5 24.0 L 172.5 28.0 L 172.5 52.0 L 160.5 58.0 L 160.5 48.0 L 139.70101013183594 48.0 L 140.1 55.9 L 141.4 64.9 L 142.54177217483522 69.0 L 156.6 69.0 L 166.6 59.0 L 178.6 69.0 L 178.6 73.0 L 143.68571424484253 73.0 L 146.6 79.8 L 150.4 85.9 L 155.0 91.0 L 160.4 95.4 L 166.8 99.1 L 174.2 102.0 L 176.08363637924194 102.47090911865234 L 181.5 79.0 L 183.5 79.0 L 181.58867921829224 103.8471697807312 L 182.6 104.1 L 186.4 106.6 L 187.4 111.1 L 184.9 114.9 L 180.4 115.8 L 170.6 113.4 Z M 94.6 48.0 L 94.6 69.0 L 130.06526317596436 69.0 L 129.6 67.3 L 128.1 57.1 L 127.69009008407593 48.0 Z M 94.6 24.0 L 94.6 44.0 L 160.5 44.0 L 160.5 24.0 Z " />
</g>
</svg>
