<svg xmlns="http://www.w3.org/2000/svg" xmlns:xlink="http://www.w3.org/1999/xlink" version="1.1" baseProfile="full" viewBox="0 0 200 200" width="200" height="200">
<g fill="black">
<path d="M 148.8 183.6 L 146.7 184.6 L 144.6 185.5 L 142.4 186.3 L 140.2 186.9 L 138.0 187.3 L 135.7 187.7 L 133.4 187.9 L 131.1 188.0 L 131.1 182.0 L 111.1 179.0 L 111.1 176.0 L 131.1 176.0 L 134.3 175.8 L 135.9 175.5 L 137.4 175.2 L 138.9 174.8 L 140.3 174.3 L 141.8 173.7 L 143.2 173.0 L 144.6 172.2 L 145.9 171.3 L 146.8 170.6 L 147.9 169.2 L 149.1 167.2 L 150.4 164.6 L 151.6 161.3 L 152.9 157.5 L 154.0 153.0 L 155.1 147.9 L 156.0 142.3 L 156.48688526153563 139.0 L 104.22297296524047 139.0 L 102.7 143.6 L 89.4 145.5 L 99.23333330154419 116.0 L 69.2 116.0 L 69.2 112.0 L 168.71818180084227 112.0 L 176.9 103.0 L 186.9 112.0 L 186.9 116.0 L 111.83783779144287 116.0 L 105.5472972869873 135.0 L 156.9 135.0 L 162.9 130.0 L 173.9 139.0 L 168.9 142.0 L 168.16204080581664 142.3074830055237 L 167.9 144.2 L 166.8 150.2 L 165.7 155.7 L 164.4 160.7 L 163.0 165.2 L 161.4 169.3 L 159.7 172.9 L 157.7 176.1 L 155.4 178.9 L 152.7 181.2 L 150.8 182.5 Z M 27.6 42.0 L 49.8 42.0 L 55.8 37.0 L 66.8 46.0 L 61.8 50.0 L 61.8 140.0 L 49.8 146.0 L 49.8 134.0 L 27.6 134.0 L 27.6 146.0 L 15.6 152.0 L 15.6 36.0 Z M 27.6 46.0 L 27.6 130.0 L 49.8 130.0 L 49.8 46.0 Z M 171.6 88.0 L 171.6 92.0 L 82.2 92.0 L 82.2 88.0 L 153.4181818008423 88.0 L 161.6 79.0 Z M 87.7 22.6 L 107.3 22.6 L 113.3 17.6 L 124.3 26.6 L 119.3 30.6 L 119.3 67.3 L 107.3 73.3 L 107.3 63.3 L 87.7 63.3 L 87.7 70.3 L 75.7 76.3 L 75.7 16.6 Z M 145.5 22.6 L 165.1 22.6 L 171.1 17.6 L 182.1 26.6 L 177.1 30.6 L 177.1 67.3 L 165.1 73.3 L 165.1 63.3 L 145.5 63.3 L 145.5 70.3 L 133.5 76.3 L 133.5 16.6 Z M 145.5 26.6 L 145.5 59.3 L 165.1 59.3 L 165.1 26.6 Z M 87.7 26.6 L 87.7 59.3 L 107.3 59.3 L 107.3 26.6 Z " />
</g>
</svg>
