<svg xmlns="http://www.w3.org/2000/svg" xmlns:xlink="http://www.w3.org/1999/xlink" version="1.1" baseProfile="full" viewBox="0 0 200 200" width="200" height="200">
<g fill="black">
<path d="M 145.78878507614135 18.846728992462157 L 146.7 57.3 L 147.7947235107422 71.16649827957153 L 164.63201694488527 69.61502561569213 L 173.7 58.8 L 186.5 67.6 L 186.9 71.6 L 148.11112117767334 75.1742018699646 L 149.4 91.5 L 153.5 118.6 L 155.77889127731322 128.22715272903443 L 158.5 122.0 L 163.3 109.1 L 167.6 95.1 L 167.6070336341858 95.10214071273803 L 168.1 93.5 L 179.1 98.6 L 181.4 101.4 L 177.79471578598023 102.28550844192505 L 174.0 113.0 L 168.4 126.3 L 162.2 138.5 L 159.62512044906617 142.70311222076415 L 163.8 154.3 L 169.2 164.6 L 174.2 171.0 L 176.92051696777344 173.24442653656007 L 182.1 150.8 L 184.1 150.8 L 182.1744680404663 175.8319149017334 L 186.3 177.6 L 188.1 181.8 L 186.3 186.0 L 182.1 187.8 L 177.5 187.0 L 171.9 184.4 L 165.6 179.3 L 159.1 171.1 L 152.8 159.2 L 151.35072717666625 155.14694900512694 L 148.1 159.6 L 140.1 168.3 L 131.7 175.9 L 122.7 182.2 L 113.1 187.1 L 103.1 190.7 L 102.4 189.0 L 111.3 183.8 L 119.6 177.8 L 120.15797100067138 177.3 L 74.2 177.3 L 74.2 184.3 L 63.2 189.8 L 63.2 109.61558437347412 L 60.6 111.0 L 52.5 114.4 L 51.7 112.8 L 58.6 107.7 L 63.2 104.07575759887695 L 63.2 100.2 L 66.16744184494019 101.68372097015381 L 71.6 97.1 L 77.6 91.5 L 83.4 85.6 L 88.8 79.4 L 93.9 72.9 L 98.7 66.2 L 103.2 59.1 L 107.4 51.7 L 107.9 50.8 L 115.83530931472778 56.330670070648196 L 115.7 55.6 L 115.0 52.7 L 114.0 49.6 L 112.8 46.5 L 111.3 43.2 L 109.7 39.8 L 107.8 36.2 L 105.7 32.5 L 103.2 28.8 L 104.6 27.5 L 108.0 30.6 L 111.3 33.4 L 114.4 36.4 L 117.1 39.4 L 119.6 42.5 L 121.8 45.6 L 123.8 48.8 L 125.5 52.0 L 127.0 55.2 L 128.2 58.5 L 127.3 63.0 L 123.6 65.6 L 119.1 64.7 L 116.53413305282592 61.04857397079468 L 115.54164218902588 61.0653959274292 L 112.7 65.3 L 107.4 72.5 L 101.7 79.3 L 95.6 85.7 L 89.3 91.7 L 82.6 97.2 L 75.6 102.3 L 71.9721212387085 104.58606061935424 L 74.2 105.7 L 93.25454549789428 105.7 L 93.5 105.1 L 93.9 102.6 L 94.4 100.2 L 95.9 93.3 L 96.4 91.1 L 97.0 88.9 L 97.5 86.7 L 97.77094650268555 85.56202478408814 L 97.6 85.5 L 98.5 83.4 L 108.9 89.6 L 110.8 92.7 L 106.2990177154541 93.16561889648438 L 106.2 93.3 L 103.4 96.9 L 102.0 98.8 L 100.4 100.6 L 98.9 102.5 L 97.3 104.3 L 95.9 105.7 L 104.81818180084228 105.7 L 113.0 96.7 L 123.0 105.7 L 123.0 109.7 L 99.4 109.7 L 99.4 128.3 L 102.31818180084228 128.3 L 110.5 119.3 L 120.5 128.3 L 120.5 132.3 L 99.4 132.3 L 99.4 150.8 L 102.31818180084228 150.8 L 110.5 141.8 L 120.5 150.8 L 120.5 154.8 L 99.4 154.8 L 99.4 173.3 L 104.7 173.3 L 114.7 163.3 L 125.62315397262573 172.40262832641602 L 127.3 170.9 L 134.6 163.2 L 141.3 154.4 L 147.5 144.7 L 147.5691255569458 144.57128343582153 L 146.9 142.7 L 141.7 120.8 L 137.5 92.8 L 136.17414264678956 76.27413492202759 L 120.7 77.7 L 120.3 73.7 L 135.85264539718628 72.26690130233764 L 134.7 57.9 L 133.7233190536499 16.098056697845458 L 133.7 16.1 L 133.7 12.7 L 145.7 15.1 L 148.7 17.1 Z M 74.2 154.8 L 74.2 173.3 L 87.4 173.3 L 87.4 154.8 Z M 28.1 41.2 L 40.8 41.2 L 45.8 36.2 L 55.8 45.2 L 50.8 48.2 L 50.8 139.6 L 40.8 144.6 L 40.8 133.6 L 28.1 133.6 L 28.1 145.6 L 17.1 151.1 L 17.1 35.7 Z M 74.2 132.3 L 74.2 150.8 L 87.4 150.8 L 87.4 132.3 Z M 28.1 45.2 L 28.1 129.6 L 40.8 129.6 L 40.8 45.2 Z M 74.2 109.7 L 74.2 128.3 L 87.4 128.3 L 87.4 109.7 Z M 71.4 60.6 L 83.4 60.6 L 84.6 60.5 L 85.5 60.4 L 86.1 60.2 L 86.5 60.0 L 86.8 59.7 L 87.0 59.3 L 87.2 58.7 L 87.3 57.8 L 87.4 56.6 L 87.4 35.075 L 84.30699300765991 35.84825172424316 L 84.2 36.1 L 82.3 40.2 L 80.1 44.4 L 77.6 48.8 L 74.9 53.4 L 71.9 58.0 L 68.6 62.9 L 65.0 67.8 L 61.0 72.8 L 56.6 77.9 L 55.1 76.9 L 57.8 70.8 L 60.4 65.0 L 62.9 59.6 L 65.2 54.4 L 67.4 49.5 L 69.3 44.8 L 70.9 40.3 L 72.3 36.1 L 73.5 32.2 L 74.15386953353882 29.511869525909425 L 74.1 29.5 L 74.33661975860596 28.760563373565674 L 74.4 28.5 L 74.41817893981934 28.50569076538086 L 74.9 27.0 L 85.9 32.1 L 87.4 34.00909090042114 L 87.4 12.7 L 99.4 14.7 L 102.4 16.7 L 99.4 18.5 L 99.4 56.6 L 99.2 59.2 L 98.8 61.7 L 98.0 64.1 L 96.8 66.3 L 95.1 68.3 L 93.1 70.0 L 90.8 71.2 L 88.4 72.0 L 85.9 72.5 L 83.4 72.6 L 83.4 66.6 L 71.4 63.6 Z M 166.1 42.6 L 163.9 37.4 L 162.5 34.9 L 161.0 32.4 L 159.3 29.9 L 157.5 27.3 L 155.5 24.7 L 153.1 22.5 L 154.2 21.0 L 157.1 22.6 L 160.2 24.1 L 163.1 25.9 L 165.8 27.9 L 168.4 30.1 L 170.8 32.4 L 173.1 34.9 L 175.2 37.6 L 177.1 40.4 L 178.8 43.4 L 178.7 48.0 L 175.5 51.2 L 170.9 51.1 L 167.7 47.9 L 167.0 45.2 Z " />
</g>
</svg>
