<svg xmlns="http://www.w3.org/2000/svg" xmlns:xlink="http://www.w3.org/1999/xlink" version="1.1" baseProfile="full" viewBox="0 0 200 200" width="200" height="200">
<g fill="black">
<path d="M 169.0 182.3 L 166.4 180.1 L 163.4 178.0 L 160.0 175.8 L 156.1 173.6 L 151.8 171.4 L 147.1 169.2 L 141.9 166.9 L 136.4 164.7 L 136.8 162.9 L 142.9 163.6 L 148.5 164.5 L 153.8 165.6 L 158.8 166.8 L 163.4 168.3 L 167.6 169.9 L 171.6 171.7 L 175.2 173.6 L 178.5 175.8 L 181.5 178.1 L 183.1 182.4 L 181.3 186.6 L 177.0 188.2 L 172.8 186.4 L 171.1 184.4 Z M 120.0 168.8 L 120.3 172.4 L 116.53164768218994 171.09820556640625 L 113.1 173.1 L 109.2 175.2 L 104.9 177.2 L 100.4 179.2 L 95.5 181.1 L 90.3 183.0 L 84.7 184.7 L 78.7 186.3 L 72.3 187.8 L 71.7 186.1 L 77.3 182.8 L 82.6 179.8 L 87.6 177.0 L 92.2 174.3 L 96.5 171.6 L 100.4 169.1 L 104.0 166.6 L 107.1 164.2 L 109.9 161.8 L 111.56914081573487 160.26995420455933 L 111.5 160.2 L 112.4 159.5 Z M 101.5 96.4 L 156.5 96.4 L 162.5 91.4 L 173.5 100.4 L 168.5 104.4 L 168.5 155.5 L 156.5 161.5 L 156.5 155.5 L 101.5 155.5 L 101.5 158.5 L 89.5 164.5 L 89.5 90.4 Z M 31.8 42.0 L 53.4 42.0 L 58.9 37.0 L 69.4 46.0 L 64.4 49.5 L 64.4 140.0 L 53.4 145.5 L 53.4 134.0 L 31.8 134.0 L 31.8 146.0 L 19.8 152.0 L 19.8 36.0 Z M 101.5 137.2 L 101.5 151.5 L 156.5 151.5 L 156.5 137.2 Z M 101.5 118.8 L 101.5 133.2 L 156.5 133.2 L 156.5 118.8 Z M 31.8 46.0 L 31.8 130.0 L 53.4 130.0 L 53.4 46.0 Z M 101.5 100.4 L 101.5 114.8 L 156.5 114.8 L 156.5 100.4 Z M 83.9 99.4 L 74.9 103.9 L 74.9 19.8 L 83.9 24.3 L 110.41818180084229 24.3 L 118.6 15.3 L 128.6 24.3 L 128.6 28.3 L 107.3 28.3 L 107.3 42.6 L 114.9 42.6 L 120.9 37.6 L 131.9 46.6 L 126.9 50.6 L 126.9 69.4 L 114.9 75.4 L 114.9 67.4 L 107.3 67.4 L 107.3 83.4 L 112.11818180084228 83.4 L 120.3 74.4 L 130.3 83.4 L 130.3 87.4 L 83.9 87.4 Z M 165.7 87.2 L 160.4 81.5 L 155.6 75.2 L 154.2969123840332 73.21575298309327 L 150.8 76.9 L 144.7 82.5 L 138.0 87.5 L 130.8 92.1 L 129.7 90.6 L 135.5 84.7 L 140.9 78.7 L 145.9 72.6 L 150.24009037017822 66.65596313476563 L 147.4 61.2 L 144.1 53.4 L 141.3 45.2 L 139.1 36.4 L 137.82043008804322 27.9 L 131.6 27.9 L 131.6 23.9 L 168.5 23.9 L 174.5 18.9 L 185.5 27.9 L 180.5 30.9 L 178.8932692527771 31.569471168518067 L 177.5 35.6 L 174.3 43.3 L 170.5 50.8 L 166.3 57.9 L 161.6 64.6 L 160.83811473846436 65.5377049446106 L 163.6 68.9 L 168.5 73.9 L 173.6 78.4 L 179.0 82.3 L 184.6 85.7 L 188.9 88.3 L 177.8 97.0 L 171.5 92.4 Z M 83.9 67.4 L 83.9 83.4 L 96.3 83.4 L 96.3 67.4 Z M 83.9 63.4 L 114.9 63.4 L 114.9 46.6 L 83.9 46.6 Z M 140.05058822631835 27.9 L 143.1 35.1 L 146.8 43.0 L 150.7 50.4 L 154.7 57.1 L 155.50515937805176 58.26092758178711 L 158.3 53.2 L 161.5 46.4 L 164.3 39.3 L 166.7 31.9 L 167.7526315689087 27.9 Z M 83.9 28.3 L 83.9 42.6 L 96.3 42.6 L 96.3 28.3 Z " />
</g>
</svg>
