<svg xmlns="http://www.w3.org/2000/svg" xmlns:xlink="http://www.w3.org/1999/xlink" version="1.1" baseProfile="full" viewBox="0 0 200 200" width="200" height="200">
<g fill="black">
<path d="M 97.4 154.7 L 153.5 154.7 L 159.5 149.7 L 170.5 158.7 L 165.5 162.7 L 165.5 179.9 L 153.5 185.9 L 153.5 177.9 L 97.4 177.9 L 97.4 180.9 L 85.4 186.9 L 85.4 148.7 Z M 97.4 158.7 L 97.4 173.9 L 153.5 173.9 L 153.5 158.7 Z M 30.4 42.0 L 50.7 42.0 L 56.7 37.0 L 67.7 46.0 L 62.7 50.0 L 62.7 140.0 L 50.7 146.0 L 50.7 134.0 L 30.4 134.0 L 30.4 146.0 L 18.4 152.0 L 18.4 36.0 Z M 161.5 140.3 L 161.5 144.3 L 89.4 144.3 L 89.4 140.3 L 147.2777777671814 140.3 L 153.5 133.3 Z M 30.4 46.0 L 30.4 130.0 L 50.7 130.0 L 50.7 46.0 Z M 161.5 125.0 L 161.5 129.0 L 89.4 129.0 L 89.4 125.0 L 147.2777777671814 125.0 L 153.5 118.0 Z M 183.1 108.6 L 183.1 112.6 L 67.8 112.6 L 67.8 108.6 L 168.87777776718139 108.6 L 175.1 101.6 Z M 164.8 95.2 L 164.8 99.2 L 86.2 99.2 L 86.2 95.2 L 150.5777777671814 95.2 L 156.8 88.2 Z M 68.2 68.9 L 66.7 64.6 L 68.6 60.4 L 69.7 59.8 L 70.9 58.8 L 72.1 57.3 L 73.3 55.4 L 74.5 52.9 L 75.5 50.1 L 76.5 46.8 L 77.4 43.1 L 78.3 39.0 L 78.7 34.6 L 80.5 34.5 L 81.0 39.1 L 81.31428575515747 41.3 L 119.5 41.3 L 119.5 28.2 L 82.2 28.2 L 82.2 24.2 L 153.11818180084228 24.2 L 161.3 15.2 L 171.3 24.2 L 171.3 28.2 L 131.5 28.2 L 131.5 41.3 L 171.2 41.3 L 177.2 36.3 L 188.2 45.3 L 183.2 48.3 L 179.8384105682373 49.700662231445314 L 178.9 51.0 L 177.6 52.7 L 176.2 54.4 L 174.7 56.1 L 171.7 59.3 L 170.0 60.7 L 168.8 62.4 L 167.2 61.5 L 168.1 59.6 L 169.7 51.2 L 170.5 47.2 L 170.8619047164917 45.3 L 131.5 45.3 L 131.5 82.5 L 119.5 88.5 L 119.5 45.3 L 81.79512195587158 45.3 L 82.0 47.4 L 82.1 51.1 L 81.9 54.7 L 81.5 58.0 L 80.8 61.1 L 79.8 64.0 L 78.5 66.8 L 76.7 69.3 L 72.4 70.8 Z M 115.0 75.4 L 115.0 79.4 L 80.9 79.4 L 80.9 75.4 L 100.77777776718139 75.4 L 107.0 68.4 Z M 170.0 75.4 L 170.0 79.4 L 135.9 79.4 L 135.9 75.4 L 155.7777777671814 75.4 L 162.0 68.4 Z M 165.4 59.2 L 165.4 63.2 L 135.9 63.2 L 135.9 59.2 L 151.1777777671814 59.2 L 157.4 52.2 Z M 115.0 59.2 L 115.0 63.2 L 84.2 63.2 L 84.2 59.2 L 100.77777776718139 59.2 L 107.0 52.2 Z " />
</g>
</svg>
