<svg xmlns="http://www.w3.org/2000/svg" xmlns:xlink="http://www.w3.org/1999/xlink" version="1.1" baseProfile="full" viewBox="0 0 200 200" width="200" height="200">
<g fill="black">
<path d="M 91.4 27.0 L 170.5 27.0 L 176.5 22.0 L 187.5 31.0 L 182.5 35.0 L 182.5 176.0 L 170.5 182.0 L 170.5 170.0 L 91.4 170.0 L 91.4 182.0 L 79.4 188.0 L 79.4 21.0 Z M 91.4 31.0 L 91.4 166.0 L 170.5 166.0 L 170.5 31.0 Z M 13.9 151.0 L 18.5 149.5 L 23.5 147.8 L 28.7 145.9 L 34.2 143.8 L 37.5 142.49137935638427 L 37.5 72.0 L 15.1 72.0 L 15.1 68.0 L 37.5 68.0 L 37.5 17.0 L 49.5 19.0 L 52.5 21.0 L 49.5 22.8 L 49.5 68.0 L 55.21818180084229 68.0 L 63.4 59.0 L 73.4 68.0 L 73.4 72.0 L 49.5 72.0 L 49.5 137.73999996185302 L 52.6 136.5 L 59.3 133.7 L 66.4 131.0 L 73.8 128.2 L 74.7 129.7 L 68.1 134.3 L 61.7 138.5 L 55.5 142.4 L 49.5 145.9 L 43.7 149.2 L 38.1 152.2 L 32.8 155.1 L 27.7 157.7 L 22.8 160.0 L 21.980713748931883 160.39183254241942 L 21.1 164.3 L 18.2 162.2 L 12.0 151.7 Z M 148.9 132.2 L 147.1 127.7 L 145.2 123.3 L 143.2 118.8 L 141.0 114.4 L 138.7 110.0 L 136.4 105.5 L 134.0 101.0 L 133.73832635879518 100.50805349349976 L 131.9 110.4 L 129.0 120.7 L 125.3 130.1 L 120.7 138.5 L 115.3 145.8 L 109.1 152.0 L 102.1 157.0 L 94.4 160.7 L 93.6 159.2 L 99.9 154.0 L 105.3 148.2 L 110.1 141.8 L 114.1 134.7 L 117.5 126.8 L 120.1 118.1 L 122.0 108.5 L 123.3 97.9 L 123.8 86.5 L 123.63064517974854 76.0 L 98.0 76.0 L 98.0 72.0 L 123.6 72.0 L 123.6 39.0 L 135.6 41.0 L 138.6 43.0 L 135.6 44.8 L 135.6 72.0 L 144.6 72.0 L 154.6 62.0 L 166.6 72.0 L 166.6 76.0 L 135.53282442092896 76.0 L 135.2 86.9 L 134.27171907424926 96.33752307891845 L 137.0 98.6 L 140.7 102.4 L 144.2 106.3 L 147.4 110.4 L 150.5 114.6 L 153.4 118.9 L 156.1 123.3 L 158.6 127.7 L 161.0 132.3 L 163.2 137.0 L 163.0 141.6 L 159.7 144.8 L 155.2 144.6 L 152.0 141.3 L 150.5 136.7 Z " />
</g>
</svg>
