<svg xmlns="http://www.w3.org/2000/svg" xmlns:xlink="http://www.w3.org/1999/xlink" version="1.1" baseProfile="full" viewBox="0 0 200 200" width="200" height="200">
<g fill="black">
<path d="M 149.6 15.0 L 152.6 17.0 L 149.6 18.8 L 149.6 126.0267141342163 L 165.46118812561036 123.48440437316894 L 173.7 112.0 L 187.2 120.0 L 187.8 123.9 L 149.6 130.02834224700928 L 149.6 183.0 L 137.6 189.0 L 137.6 131.95347595214844 L 75.6 141.9 L 74.9 138.0 L 137.6 127.95013360977173 L 137.6 13.0 Z M 14.3 151.0 L 19.4 149.4 L 24.8 147.7 L 30.6 145.8 L 36.6 143.7 L 40.5 142.359375 L 40.5 72.0 L 15.3 72.0 L 15.3 68.0 L 40.5 68.0 L 40.5 17.0 L 52.5 19.0 L 55.5 21.0 L 52.5 22.8 L 52.5 68.0 L 57.4 68.0 L 67.4 58.0 L 79.4 68.0 L 79.4 72.0 L 52.5 72.0 L 52.5 137.96000003814697 L 56.7 136.4 L 64.0 133.7 L 71.8 130.9 L 79.9 128.1 L 80.7 129.8 L 73.4 134.4 L 66.3 138.6 L 59.4 142.4 L 52.8 146.0 L 46.4 149.3 L 40.2 152.3 L 34.3 155.1 L 28.7 157.7 L 23.3 160.1 L 22.098109626770018 160.6184624671936 L 21.1 164.5 L 18.2 162.3 L 12.4 151.6 Z M 102.7 103.6 L 100.7 100.9 L 98.6 98.2 L 96.3 95.4 L 93.8 92.7 L 91.1 89.9 L 88.3 87.0 L 85.3 84.1 L 82.1 81.2 L 83.0 79.7 L 87.0 81.5 L 90.9 83.3 L 94.6 85.2 L 98.2 87.3 L 101.5 89.5 L 104.7 91.8 L 107.7 94.2 L 110.5 96.7 L 113.2 99.3 L 115.7 102.0 L 116.8 106.5 L 114.4 110.4 L 110.0 111.4 L 106.0 109.0 L 104.4 106.4 Z M 110.4 59.6 L 108.4 56.9 L 106.3 54.2 L 104.0 51.4 L 101.5 48.7 L 98.8 45.9 L 96.0 43.0 L 93.1 40.1 L 89.8 37.2 L 90.8 35.7 L 94.7 37.5 L 98.7 39.3 L 102.4 41.2 L 105.9 43.3 L 109.2 45.5 L 112.4 47.8 L 115.4 50.2 L 118.3 52.7 L 121.0 55.3 L 123.5 58.0 L 124.5 62.5 L 122.2 66.4 L 117.7 67.4 L 113.8 65.0 L 112.2 62.4 Z " />
</g>
</svg>
