<svg xmlns="http://www.w3.org/2000/svg" xmlns:xlink="http://www.w3.org/1999/xlink" version="1.1" baseProfile="full" viewBox="0 0 200 200" width="200" height="200">
<g fill="black">
<path d="M 123.2 122.8 L 125.9 125.2 L 122.3529182434082 126.67237358093261 L 121.1 132.4 L 118.0 141.5 L 114.0 149.9 L 109.2 157.8 L 103.4 164.9 L 96.8 171.4 L 89.3 177.1 L 81.0 182.1 L 71.9 186.4 L 62.0 189.8 L 61.4 188.1 L 70.2 183.0 L 78.2 177.6 L 85.3 171.9 L 91.5 165.9 L 96.9 159.5 L 101.4 152.7 L 105.0 145.5 L 107.9 137.8 L 110.0 129.7 L 111.23685932159424 122.10215015411377 L 111.2 122.1 L 111.6 119.1 Z M 179.9 149.0 L 181.9 149.0 L 179.9 174.0 L 183.5 176.4 L 185.9 180.0 L 183.5 183.6 L 179.9 186.0 L 149.7 186.0 L 147.2 185.8 L 144.7 185.4 L 142.3 184.6 L 140.0 183.3 L 138.0 181.7 L 136.3 179.7 L 135.1 177.4 L 134.3 175.0 L 133.9 172.5 L 133.7 170.0 L 133.7 116.0 L 102.3 116.0 L 102.3 128.0 L 90.3 134.0 L 90.3 64.61111106872559 L 89.8 65.1 L 85.0 69.3 L 80.0 73.3 L 74.6 77.1 L 69.0 80.6 L 67.8 79.3 L 72.1 74.3 L 74.07142858505249 72.0 L 50.0 72.0 L 50.0 137.87878789901734 L 53.5 136.5 L 60.4 133.7 L 67.8 131.0 L 75.5 128.1 L 76.3 129.8 L 69.5 134.3 L 62.8 138.5 L 56.3 142.4 L 50.1 145.9 L 44.1 149.2 L 38.3 152.3 L 32.7 155.1 L 27.4 157.7 L 22.4 160.1 L 21.4277286529541 160.52536869049072 L 20.5 164.4 L 17.6 162.2 L 11.5 151.7 L 13.4 151.0 L 18.2 149.5 L 23.4 147.8 L 28.8 145.9 L 34.5 143.8 L 38.0 142.4583333015442 L 38.0 72.0 L 14.6 72.0 L 14.6 68.0 L 38.0 68.0 L 38.0 17.0 L 50.0 19.0 L 53.0 21.0 L 50.0 22.8 L 50.0 68.0 L 53.0 68.0 L 63.0 58.0 L 75.0 68.0 L 75.0 70.91666669845581 L 76.3 69.4 L 80.4 64.7 L 84.3 59.9 L 87.9 55.2 L 91.3 50.4 L 94.5 45.6 L 97.5 40.7 L 100.3 35.8 L 102.33325777053832 31.814814853668214 L 102.3 31.8 L 103.3 29.9 L 113.3 36.7 L 114.9 40.0 L 111.12256412506103 40.06512823104858 L 110.0 41.8 L 106.4 46.7 L 102.6 51.5 L 98.6 56.2 L 94.3 60.7 L 90.71353387832642 64.20676689147949 L 102.3 70.0 L 157.2 70.0 L 163.2 65.0 L 174.2 74.0 L 169.2 78.0 L 169.2 122.0 L 157.2 128.0 L 157.2 116.0 L 145.7 116.0 L 145.7 170.0 L 145.8 171.2 L 146.0 172.1 L 146.3 173.0 L 146.7 173.4 L 147.6 173.7 L 148.5 173.9 L 149.7 174.0 L 173.9 174.0 Z M 102.3 74.0 L 102.3 112.0 L 157.2 112.0 L 157.2 74.0 Z M 167.7 63.0 L 163.3 58.9 L 159.2 54.7 L 155.4 50.4 L 152.0 45.9 L 149.0 41.3 L 146.4 36.4 L 144.91499996185303 33.09250001907348 L 143.5 33.8 L 143.5 29.07333335876465 L 142.90192308425904 27.0 L 104.1 27.0 L 104.1 23.0 L 138.46000003814697 23.0 L 143.5 18.8 L 154.5 27.8 L 149.5 30.8 L 149.25575218200683 30.922123908996582 L 151.3 33.2 L 154.7 36.9 L 158.4 40.5 L 162.2 43.9 L 166.2 47.3 L 170.4 50.5 L 174.9 53.6 L 179.6 56.5 L 184.5 59.4 L 188.6 61.9 L 177.5 70.5 L 172.5 66.8 Z M 143.1 26.075 L 143.5 25.85 L 143.5 25.8 L 143.1 25.66666669845581 Z " />
</g>
</svg>
