<svg xmlns="http://www.w3.org/2000/svg" xmlns:xlink="http://www.w3.org/1999/xlink" version="1.1" baseProfile="full" viewBox="0 0 200 200" width="200" height="200">
<g fill="black">
<path d="M 89.7 181.8 L 77.7 187.8 L 77.7 112.8 L 89.7 118.8 L 107.0 118.8 L 107.0 90.0 L 87.1 90.0 L 87.1 102.0 L 75.1 108.0 L 75.1 46.0 L 87.1 52.0 L 107.0 52.0 L 107.0 30.0 L 68.0 30.0 L 68.0 26.0 L 164.9 26.0 L 174.9 16.0 L 186.9 26.0 L 186.9 30.0 L 148.0 30.0 L 148.0 52.0 L 167.9 52.0 L 173.9 47.0 L 184.9 56.0 L 179.9 60.0 L 179.9 96.0 L 167.9 102.0 L 167.9 90.0 L 148.0 90.0 L 148.0 118.8 L 165.2 118.8 L 171.2 113.8 L 182.2 122.8 L 177.2 126.8 L 177.2 178.8 L 165.2 184.8 L 165.2 174.8 L 89.7 174.8 Z M 89.7 148.4 L 89.7 170.8 L 121.5 170.8 L 121.5 148.4 Z M 133.5 148.4 L 133.5 170.8 L 165.2 170.8 L 165.2 148.4 Z M 13.4 151.0 L 18.0 149.5 L 22.7 147.8 L 27.8 145.9 L 33.2 143.8 L 36.2 142.567857170105 L 36.2 72.0 L 14.7 72.0 L 14.7 68.0 L 36.2 68.0 L 36.2 17.0 L 48.2 19.0 L 51.2 21.0 L 48.2 22.8 L 48.2 68.0 L 53.018181800842285 68.0 L 61.2 59.0 L 71.2 68.0 L 71.2 72.0 L 48.2 72.0 L 48.2 137.63225803375244 L 50.9 136.5 L 57.5 133.8 L 64.3 131.0 L 71.6 128.2 L 72.5 129.7 L 66.2 134.3 L 60.0 138.5 L 54.0 142.3 L 48.1 145.9 L 42.5 149.2 L 37.1 152.2 L 32.0 155.0 L 27.1 157.6 L 21.62799997329712 160.33599996566772 L 20.8 164.2 L 17.9 162.2 L 11.6 151.7 Z M 89.7 122.8 L 89.7 144.4 L 121.5 144.4 L 121.5 122.8 Z M 133.5 122.8 L 133.5 144.4 L 165.2 144.4 L 165.2 122.8 Z M 119.0 30.0 L 119.0 118.8 L 136.0 118.8 L 136.0 30.0 Z M 148.0 56.0 L 148.0 86.0 L 167.9 86.0 L 167.9 56.0 Z M 87.1 56.0 L 87.1 86.0 L 107.0 86.0 L 107.0 56.0 Z " />
</g>
</svg>
