<svg xmlns="http://www.w3.org/2000/svg" xmlns:xlink="http://www.w3.org/1999/xlink" version="1.1" baseProfile="full" viewBox="0 0 200 200" width="200" height="200">
<g fill="black">
<path d="M 165.8 166.6 L 160.8 161.9 L 156.0 156.6 L 151.6 150.9 L 147.4 144.7 L 143.6 138.1 L 140.1 131.0 L 137.0 123.4 L 136.7 122.45384616851807 L 136.7 184.0 L 124.7 190.0 L 124.7 129.8978723526001 L 122.9 133.0 L 117.9 140.7 L 112.6 147.9 L 106.9 154.6 L 100.9 160.9 L 94.6 166.7 L 87.9 172.0 L 80.8 176.7 L 73.4 180.7 L 72.4 179.2 L 78.5 173.6 L 84.4 167.9 L 90.0 162.0 L 95.3 155.8 L 100.3 149.3 L 105.0 142.4 L 109.5 135.2 L 113.6 127.7 L 117.4 119.8 L 119.03793106079101 116.0 L 79.2 116.0 L 79.2 112.0 L 124.7 112.0 L 124.7 84.0 L 136.7 86.0 L 139.7 88.0 L 136.7 89.8 L 136.7 112.0 L 162.2 112.0 L 172.2 102.0 L 184.2 112.0 L 184.2 116.0 L 137.08571424484253 116.0 L 140.7 121.5 L 145.2 128.1 L 149.7 134.2 L 154.2 139.8 L 158.8 145.0 L 163.4 149.6 L 168.2 153.7 L 173.1 157.3 L 178.1 160.5 L 183.2 163.2 L 188.0 165.8 L 176.8 174.7 L 171.2 170.9 Z M 64.2 152.7 L 60.5 148.1 L 56.6 143.8 L 56.10982789993286 143.32122726440429 L 49.9 154.8 L 42.5 165.5 L 34.2 174.8 L 25.1 182.5 L 15.2 188.6 L 14.2 187.0 L 22.6 179.6 L 30.2 171.2 L 37.1 161.7 L 43.3 151.0 L 48.7 139.1 L 49.43211650848389 137.04384298324584 L 47.7 135.5 L 42.8 131.6 L 37.6 127.8 L 32.1 124.1 L 29.348052406311034 122.34444723129272 L 28.3 126.3 L 25.0 138.0 L 13.5 134.6 L 16.7 123.2 L 19.8 111.6 L 22.8 99.9 L 25.6 88.2 L 28.3 76.4 L 30.9 64.5 L 31.280000019073487 62.6 L 12.8 62.6 L 12.8 58.6 L 32.08000001907349 58.6 L 33.3 52.5 L 35.6 40.5 L 37.8 28.4 L 39.7288577079773 17.10240478515625 L 39.7 17.1 L 40.2 14.2 L 51.7 18.1 L 54.4 20.5 L 51.06230363845825 21.835078525543214 L 49.6 30.4 L 47.4 42.7 L 45.1 54.9 L 44.335537147521975 58.6 L 64.8 58.6 L 70.8 53.6 L 81.8 62.6 L 76.8 65.6 L 76.1966480255127 65.85139665603637 L 74.4 80.0 L 71.2 97.7 L 67.1 114.0 L 62.2 129.0 L 59.82433567047119 134.66825170516967 L 62.8 136.9 L 67.8 141.2 L 72.4 145.7 L 76.7 150.6 L 80.6 155.8 L 81.4 160.3 L 78.9 164.1 L 74.4 164.8 L 70.6 162.3 L 67.5 157.4 Z M 43.50909090042114 62.6 L 42.6 67.0 L 40.0 79.0 L 37.3 91.0 L 34.4 102.8 L 31.4 114.6 L 30.070800304412842 119.61665678024292 L 33.7 120.7 L 40.2 123.2 L 46.3 126.1 L 52.1 129.4 L 52.14362154006958 129.42855224609374 L 53.4 125.9 L 57.4 111.5 L 60.6 95.6 L 63.1 78.5 L 64.56108112335205 62.6 Z M 115.7 24.0 L 143.6 24.0 L 149.6 19.0 L 160.6 28.0 L 155.6 32.0 L 155.6 72.2 L 155.8 73.1 L 156.1 74.0 L 156.5 74.4 L 157.4 74.7 L 158.3 74.9 L 159.6 75.0 L 173.0 75.0 L 179.0 50.0 L 181.0 50.0 L 179.0 75.0 L 182.6 77.4 L 185.0 81.0 L 182.6 84.6 L 179.0 87.0 L 159.6 87.0 L 157.0 86.8 L 154.5 86.4 L 152.1 85.6 L 149.8 84.3 L 147.8 82.7 L 146.2 80.7 L 144.9 78.4 L 144.1 76.0 L 143.7 73.5 L 143.6 71.0 L 143.6 28.0 L 115.7 28.0 L 115.7 49.0 L 115.0 55.6 L 113.6 62.0 L 111.5 68.0 L 108.8 73.6 L 105.3 78.8 L 101.2 83.5 L 96.5 87.9 L 91.1 91.7 L 85.2 95.0 L 78.6 97.7 L 77.7 96.2 L 83.1 91.8 L 87.8 87.5 L 91.9 83.1 L 95.4 78.7 L 98.2 74.1 L 100.4 69.4 L 102.1 64.6 L 103.2 59.6 L 103.7 54.4 L 103.7 18.0 Z " />
</g>
</svg>
