<svg xmlns="http://www.w3.org/2000/svg" xmlns:xlink="http://www.w3.org/1999/xlink" version="1.1" baseProfile="full" viewBox="0 0 200 200" width="200" height="200">
<g fill="black">
<path d="M 57.7 151.0 L 54.4 146.5 L 51.027366065979 142.35647830963134 L 45.7 153.1 L 38.9 163.8 L 31.3 173.0 L 22.9 180.7 L 13.8 186.7 L 12.8 185.2 L 20.4 177.9 L 27.2 169.6 L 33.4 160.2 L 38.9 149.7 L 43.8 137.9 L 44.550726318359374 135.61290369033813 L 43.0 134.1 L 38.6 130.3 L 33.9 126.6 L 29.0 122.9 L 27.13371686935425 121.54602994918824 L 26.3 125.0 L 23.3 136.5 L 11.7 133.4 L 14.6 122.0 L 17.4 110.6 L 20.1 99.1 L 22.7 87.4 L 27.5 64.0 L 27.869747924804688 62.0 L 11.6 62.0 L 11.6 58.0 L 28.60924367904663 58.0 L 29.7 52.1 L 31.8 40.2 L 33.8 28.2 L 35.6 16.1 L 35.623671531677246 16.103381633758545 L 35.9 14.1 L 47.5 17.8 L 50.2 20.2 L 46.90785236358643 21.602210998535156 L 45.6 30.0 L 43.6 42.2 L 41.5 54.3 L 40.81596641540527 58.0 L 58.2 58.0 L 64.2 53.0 L 75.2 62.0 L 70.2 65.0 L 69.63410997390747 65.23578748703002 L 68.0 79.2 L 65.1 96.6 L 61.4 112.8 L 56.9 127.6 L 54.68354606628418 133.31163120269775 L 57.5 135.6 L 62.0 139.9 L 66.2 144.4 L 70.1 149.2 L 73.7 154.3 L 74.3 158.8 L 71.6 162.5 L 67.1 163.1 L 63.4 160.4 L 60.7 155.6 Z M 149.2 183.7 L 136.8 182.6 L 126.6 180.7 L 118.2 178.0 L 111.4 174.4 L 106.2 170.0 L 102.3 164.9 L 99.5 159.3 L 98.66453905105591 156.61773052215577 L 98.36000003814698 156.7699999809265 L 97.7 157.7 L 95.6 160.9 L 93.5 164.0 L 91.3 167.0 L 86.9 172.6 L 84.7 175.3 L 82.6 177.9 L 81.17067708969117 179.52423057556152 L 81.7 183.7 L 78.2 182.8 L 68.8 175.1 L 70.3 173.8 L 75.5 170.2 L 78.2 168.2 L 80.9 166.3 L 83.7 164.2 L 86.5 162.2 L 89.4 160.0 L 90.5 159.2300000190735 L 90.5 109.0 L 72.2 109.0 L 72.2 105.0 L 90.5 105.0 L 96.0 100.0 L 106.5 109.0 L 101.5 112.5 L 101.5 155.2 L 101.48222217559814 155.20888891220093 L 103.1 157.2 L 106.9 161.2 L 110.9 164.5 L 115.6 167.1 L 121.3 169.2 L 128.6 170.7 L 137.9 171.6 L 149.5 171.9 L 163.6 171.5 L 180.7 170.4 L 191.7 169.7 L 181.5 183.5 L 164.0 184.0 Z M 152.4 15.4 L 155.4 17.4 L 152.4 19.2 L 152.4 35.6 L 162.6 35.6 L 172.6 25.6 L 184.6 35.6 L 184.6 39.6 L 152.4 39.6 L 152.4 61.4 L 167.4 61.4 L 173.4 56.4 L 184.4 65.4 L 179.4 69.4 L 179.4 121.0 L 167.4 127.0 L 167.4 117.0 L 152.4 117.0 L 152.4 140.6 L 164.9 140.6 L 174.9 130.6 L 186.9 140.6 L 186.9 144.6 L 152.4 144.6 L 152.4 163.6 L 140.4 169.6 L 140.4 144.6 L 106.0 144.6 L 106.0 140.6 L 140.4 140.6 L 140.4 117.0 L 125.0 117.0 L 125.0 124.0 L 114.0 129.5 L 114.0 55.9 L 125.0 61.4 L 140.4 61.4 L 140.4 39.6 L 108.3 39.6 L 108.3 35.6 L 140.4 35.6 L 140.4 13.4 Z M 40.0764705657959 62.0 L 39.3 66.2 L 36.9 78.1 L 34.4 90.0 L 31.8 101.7 L 29.1 113.4 L 27.8460901260376 118.59476957321166 L 30.8 119.5 L 36.7 122.0 L 42.3 124.9 L 47.12804737091064 127.76106510162353 L 48.1 124.8 L 51.6 110.4 L 54.5 94.8 L 56.7 77.8 L 58.08142080307007 62.0 Z M 125.0 91.2 L 125.0 113.0 L 140.4 113.0 L 140.4 91.2 Z M 152.4 91.2 L 152.4 113.0 L 167.4 113.0 L 167.4 91.2 Z M 125.0 65.4 L 125.0 87.2 L 140.4 87.2 L 140.4 65.4 Z M 152.4 65.4 L 152.4 87.2 L 167.4 87.2 L 167.4 65.4 Z M 86.3 76.2 L 85.0 73.7 L 83.7 71.3 L 82.3 69.0 L 80.8 66.7 L 79.3 64.5 L 75.9 60.1 L 73.9 58.2 L 74.8 56.7 L 77.4 58.0 L 80.1 59.1 L 82.8 60.5 L 85.3 62.1 L 87.8 63.9 L 90.2 65.8 L 92.5 68.0 L 94.8 70.3 L 96.9 72.7 L 99.0 75.4 L 99.5 79.9 L 96.8 83.5 L 92.3 84.1 L 88.6 81.4 L 87.5 78.7 Z M 92.7 40.8 L 91.6 38.4 L 90.4 36.0 L 89.1 33.6 L 87.8 31.3 L 86.3 28.9 L 83.1 24.3 L 81.1 22.3 L 82.1 20.8 L 84.7 22.3 L 87.4 23.6 L 90.0 25.1 L 92.5 26.8 L 94.9 28.7 L 97.2 30.8 L 99.4 33.0 L 101.5 35.4 L 103.4 37.9 L 105.3 40.6 L 105.5 45.2 L 102.6 48.6 L 98.0 48.9 L 94.5 45.9 L 93.6 43.4 Z " />
</g>
</svg>
