<svg xmlns="http://www.w3.org/2000/svg" xmlns:xlink="http://www.w3.org/1999/xlink" version="1.1" baseProfile="full" viewBox="0 0 200 200" width="200" height="200">
<g fill="black">
<path d="M 31.5 176.0 L 45.5 176.0 L 46.8 175.9 L 47.7 175.7 L 48.6 175.4 L 48.8 175.2 L 48.9 175.0 L 49.1 174.7 L 49.3 174.1 L 49.5 173.2 L 49.5 151.71219511032103 L 43.4 153.2 L 35.0 155.2 L 26.3 157.0 L 21.508341217041014 157.91526069641114 L 19.9 161.4 L 17.4 158.7 L 13.7 147.2 L 15.6 146.9 L 24.5 145.8 L 33.1 144.6 L 41.5 143.4 L 49.5 142.1317072868347 L 49.5 121.0 L 60.176470565795896 122.77941179275513 L 62.8 119.5 L 64.8 116.9 L 69.0 111.5 L 70.875 109.0 L 18.5 109.0 L 18.5 105.0 L 73.9 105.0 L 74.0542857170105 104.87142858505248 L 75.5 102.9 L 75.93714904785156 103.30237579345703 L 79.9 100.0 L 90.9 109.0 L 85.9 112.0 L 80.75161294937134 114.14516124725341 L 78.6 116.0 L 75.8 118.3 L 73.0 120.5 L 70.1 122.5 L 67.3 124.4 L 64.5 126.2 L 61.6 127.8 L 61.5 127.85 L 61.5 140.13589744567872 L 65.6 139.4 L 73.2 138.0 L 80.7 136.6 L 88.0 135.3 L 95.2 134.1 L 95.8 135.8 L 89.1 138.9 L 82.1 141.8 L 74.9 144.4 L 67.4 146.8 L 61.5 148.53974361419677 L 61.5 172.0 L 61.4 174.5 L 60.9 177.0 L 60.1 179.4 L 58.9 181.7 L 57.3 183.7 L 55.3 185.3 L 53.0 186.6 L 50.6 187.4 L 48.1 187.8 L 45.5 188.0 L 45.5 182.0 L 31.5 179.0 Z M 115.5 175.1 L 132.7 175.1 L 133.6 174.9 L 134.2 174.7 L 134.5 174.5 L 134.7 174.4 L 134.9 174.2 L 135.2 173.3 L 135.4 172.4 L 135.5 171.1 L 135.5 143.9 L 94.5 143.9 L 94.5 139.9 L 135.5 139.9 L 135.5 126.2 L 144.26782608032227 127.66130437850953 L 145.2 126.7 L 148.1 123.3 L 150.8 120.2 L 153.3 117.3 L 155.6 114.6 L 157.7 112.0 L 159.5 109.6 L 159.84782609939575 109.1 L 108.7 109.1 L 108.7 105.1 L 162.2 105.1 L 162.810169506073 104.59152545928956 L 163.5 103.4 L 163.87804346084596 103.70163040161133 L 168.2 100.1 L 179.2 109.1 L 174.2 112.1 L 168.96981134414673 114.27924528121949 L 168.7 114.5 L 166.3 116.4 L 163.7 118.3 L 160.9 120.3 L 157.8 122.4 L 154.5 124.5 L 150.9 126.7 L 147.8395833015442 128.4263889312744 L 150.5 130.2 L 147.5 132.0 L 147.5 139.9 L 166.4 139.9 L 176.4 129.9 L 188.4 139.9 L 188.4 143.9 L 147.5 143.9 L 147.5 171.1 L 147.3 173.7 L 146.9 176.2 L 146.1 178.6 L 144.8 180.9 L 143.2 182.9 L 141.2 184.5 L 138.9 185.7 L 136.5 186.6 L 134.0 187.0 L 131.5 187.1 L 131.5 181.1 L 115.5 178.1 Z M 124.5 55.9 L 159.4 55.9 L 165.4 50.9 L 176.4 59.9 L 171.4 63.9 L 171.4 90.0 L 159.4 96.0 L 159.4 88.0 L 124.5 88.0 L 124.5 91.0 L 112.5 97.0 L 112.5 49.9 Z M 37.2 55.0 L 70.0 55.0 L 76.0 50.0 L 87.0 59.0 L 82.0 63.0 L 82.0 87.0 L 70.0 93.0 L 70.0 85.0 L 37.2 85.0 L 37.2 88.0 L 25.2 94.0 L 25.2 49.0 Z M 124.5 59.9 L 124.5 84.0 L 159.4 84.0 L 159.4 59.9 Z M 37.2 59.0 L 37.2 81.0 L 70.0 81.0 L 70.0 59.0 Z M 98.4 42.0 L 12.6 42.0 L 12.6 38.0 L 47.6 38.0 L 47.6 13.0 L 59.6 15.0 L 62.6 17.0 L 59.6 18.8 L 59.6 38.0 L 76.4 38.0 L 86.4 28.0 L 97.6 37.33333330154419 L 97.6 37.0 L 135.5 37.0 L 135.5 13.0 L 147.5 15.0 L 150.5 17.0 L 147.5 18.8 L 147.5 37.0 L 166.3 37.0 L 176.3 27.0 L 188.3 37.0 L 188.3 41.0 L 98.4 41.0 Z " />
</g>
</svg>
