<svg xmlns="http://www.w3.org/2000/svg" xmlns:xlink="http://www.w3.org/1999/xlink" version="1.1" baseProfile="full" viewBox="0 0 200 200" width="200" height="200">
<g fill="black">
<path d="M 38.0 134.2 L 80.9 134.2 L 86.9 129.2 L 97.9 138.2 L 92.9 142.2 L 92.9 174.1 L 80.9 180.1 L 80.9 174.1 L 38.0 174.1 L 38.0 181.1 L 26.0 187.1 L 26.0 128.2 Z M 167.2 170.3 L 162.4 163.2 L 158.1 155.7 L 154.3 147.7 L 151.1 139.3 L 148.5 130.4 L 146.4 121.1 L 145.23322887420653 112.93260183334351 L 142.6 124.5 L 138.9 136.1 L 134.1 146.8 L 128.3 156.5 L 121.5 165.4 L 113.8 173.2 L 105.0 180.0 L 95.4 185.7 L 94.4 184.2 L 102.7 177.1 L 110.0 169.5 L 116.3 161.3 L 121.8 152.6 L 126.4 143.1 L 130.1 133.0 L 132.9 122.2 L 134.8 110.5 L 135.5540322303772 102.0 L 104.3 102.0 L 104.3 98.0 L 135.90076332092286 98.0 L 136.0 85.0 L 136.0 54.0 L 110.6 54.0 L 110.6 50.0 L 136.0 50.0 L 136.0 14.0 L 148.0 16.0 L 151.0 18.0 L 148.0 19.8 L 148.0 50.0 L 159.3 50.0 L 169.3 40.0 L 181.3 50.0 L 181.3 54.0 L 148.0 54.0 L 148.0 85.0 L 147.25714282989503 98.0 L 164.7 98.0 L 174.7 88.0 L 186.7 98.0 L 186.7 102.0 L 146.79090909957887 102.0 L 146.71819162368774 102.53326158523559 L 149.1 110.5 L 152.1 119.6 L 155.3 128.2 L 158.9 136.2 L 162.7 143.7 L 166.9 150.6 L 171.5 157.0 L 176.3 162.8 L 181.6 168.1 L 187.2 173.0 L 189.3 174.8 L 178.5 182.9 L 172.6 176.9 Z M 38.0 138.2 L 38.0 170.1 L 80.9 170.1 L 80.9 138.2 Z M 65.5 50.0 L 68.5 52.0 L 65.5 53.8 L 65.5 59.66545457839966 L 68.3 58.8 L 73.4 57.0 L 78.3 55.3 L 83.0 53.5 L 83.51621170043946 55.10444173812866 L 92.8 63.0 L 93.1 66.1 L 88.98446960449219 64.25099353790283 L 86.7 65.0 L 81.6 66.2 L 76.3 67.4 L 70.7 68.5 L 65.5 69.39655170440673 L 65.5 89.0 L 74.7 89.0 L 84.7 79.0 L 96.7 89.0 L 96.7 93.0 L 65.5 93.0 L 65.5 111.0 L 86.21818180084229 111.0 L 94.4 102.0 L 104.4 111.0 L 104.4 115.0 L 65.5 115.0 L 65.5 126.0 L 53.5 132.0 L 53.5 115.0 L 14.5 115.0 L 14.5 111.0 L 53.5 111.0 L 53.5 93.0 L 22.2 93.0 L 22.2 89.0 L 53.5 89.0 L 53.5 71.09677419662475 L 52.7 71.2 L 46.3 71.9 L 39.6 72.5 L 32.6 72.8 L 25.5 72.8 L 25.2 71.1 L 32.1 69.0 L 38.7 67.2 L 45.1 65.5 L 51.3 63.8 L 53.5 63.16610174179077 L 53.5 48.0 Z M 28.3 43.9 L 28.2 48.3 L 28.0 52.5 L 27.4 56.4 L 26.7 60.0 L 25.6 63.4 L 24.3 66.6 L 22.6 69.5 L 18.5 71.6 L 14.1 70.2 L 12.1 66.2 L 13.4 61.8 L 14.8 60.5 L 16.2 58.8 L 17.6 56.5 L 19.0 53.9 L 20.2 50.8 L 21.4 47.2 L 22.5 43.3 L 23.5 38.9 L 24.5 34.1 L 25.2 29.0 L 27.0 29.0 L 27.6 34.2 L 27.980000019073486 38.0 L 53.5 38.0 L 53.5 12.0 L 65.5 14.0 L 68.5 16.0 L 65.5 17.8 L 65.5 38.0 L 91.4 38.0 L 97.4 33.0 L 108.4 42.0 L 103.4 45.0 L 99.28888893127441 46.712963008880614 L 98.7 47.4 L 97.4 49.0 L 96.0 50.6 L 94.5 52.4 L 92.9 54.2 L 91.1 56.1 L 89.7 58.4 L 88.1 57.5 L 89.1 55.1 L 89.6 52.6 L 90.1 50.2 L 90.5 48.0 L 90.9 45.9 L 91.2 44.0 L 91.4 42.8 L 91.4 42.0 L 28.219148921966553 42.0 Z " />
</g>
</svg>
