<svg xmlns="http://www.w3.org/2000/svg" xmlns:xlink="http://www.w3.org/1999/xlink" version="1.1" baseProfile="full" viewBox="0 0 200 200" width="200" height="200">
<g fill="black">
<path d="M 81.8 156.4 L 80.3 153.6 L 78.7 150.9 L 77.1 148.3 L 75.3 145.7 L 73.5 143.3 L 71.6 140.8 L 69.7 138.4 L 69.3 138.0173913002014 L 69.3 184.5 L 59.3 189.5 L 59.3 117.0 L 48.4 117.0 L 48.4 184.2 L 37.4 189.7 L 37.4 141.71034479141235 L 36.2 144.4 L 33.3 150.4 L 30.1 156.1 L 26.8 161.4 L 23.4 166.3 L 19.7 170.6 L 15.7 174.5 L 14.3 173.4 L 16.5 168.5 L 18.8 163.5 L 21.1 158.3 L 23.3 152.8 L 25.5 147.0 L 27.6 140.9 L 29.6 134.5 L 31.6 127.8 L 33.5 120.8 L 34.35172414779663 117.0 L 21.5 117.0 L 21.5 113.0 L 37.4 113.0 L 37.4 95.0 L 13.1 95.0 L 13.1 91.0 L 37.4 91.0 L 37.4 73.0 L 21.5 73.0 L 21.5 69.0 L 37.4 69.0 L 37.4 55.0 L 13.1 55.0 L 13.1 51.0 L 37.4 51.0 L 37.4 37.92619047164917 L 33.7 39.6 L 29.5 41.3 L 25.2 42.6 L 20.9 43.8 L 20.2 42.1 L 23.7 39.5 L 27.1 36.8 L 30.5 34.2 L 33.9 31.5 L 37.3 28.7 L 40.7 25.8 L 44.1 22.8 L 47.4 19.7 L 54.1 13.0 L 62.0 22.1 L 62.5 25.6 L 58.81770830154419 24.54791669845581 L 58.1 25.1 L 54.1 28.0 L 50.1 30.7 L 46.1 33.2 L 45.585970115661624 33.48835821151734 L 48.4 34.0 L 51.07509603500366 35.98155269622803 L 54.3 33.8 L 57.6 31.4 L 64.4 26.8 L 67.7 24.5 L 71.1 22.2 L 77.7 17.4 L 81.1 15.0 L 83.56053171157836 13.077709579467774 L 83.5 13.0 L 83.56743850708008 13.072313594818116 L 84.3 12.5 L 87.36603460311889 17.145507049560546 L 91.8 21.9 L 91.9 25.4 L 88.20461082458496 23.88225088119507 L 87.0 24.5 L 83.2 26.5 L 79.3 28.3 L 75.4 30.0 L 67.6 33.2 L 66.7375 33.4875 L 69.3 34.0 L 71.8 36.0 L 69.3 37.66666669845581 L 69.3 51.0 L 79.5 51.0 L 89.5 41.0 L 101.5 51.0 L 101.5 55.0 L 69.3 55.0 L 69.3 69.0 L 78.3 69.0 L 83.8 64.0 L 94.3 73.0 L 89.3 76.5 L 89.3 91.0 L 91.8777777671814 91.0 L 98.1 84.0 L 106.1 91.0 L 106.1 95.0 L 89.3 95.0 L 89.3 121.0 L 78.3 126.5 L 78.3 117.0 L 69.3 117.0 L 69.3 135.13448276519776 L 71.3 136.1 L 74.3 137.5 L 77.2 139.1 L 80.0 141.0 L 82.7 143.1 L 85.4 145.4 L 87.9 147.9 L 90.4 150.5 L 92.7 153.4 L 95.0 156.4 L 95.5 160.9 L 92.7 164.6 L 88.2 165.1 L 84.5 162.3 L 83.2 159.3 Z M 177.8 105.9 L 180.0 108.7 L 176.29192008972169 109.46718893051147 L 172.6 118.2 L 166.7 129.6 L 160.0 140.3 L 152.6 150.0 L 144.4 158.9 L 135.4 166.8 L 125.8 173.8 L 115.4 179.9 L 104.3 184.9 L 92.5 188.8 L 91.9 187.1 L 102.6 181.4 L 112.7 175.2 L 121.9 168.5 L 130.5 161.1 L 138.2 153.0 L 145.3 144.3 L 151.6 134.8 L 157.3 124.6 L 162.2 113.6 L 166.12968158721924 102.90761070251465 L 166.1 102.9 L 167.0 100.5 Z M 118.6 119.0 L 134.6 119.0 L 135.8 118.9 L 136.7 118.7 L 137.6 118.4 L 138.0 118.0 L 138.3 117.1 L 138.5 116.2 L 138.6 115.0 L 138.6 14.0 L 150.6 16.0 L 153.6 18.0 L 150.6 19.8 L 150.6 115.0 L 150.4 117.5 L 150.0 120.0 L 149.2 122.4 L 148.0 124.7 L 146.3 126.7 L 144.3 128.3 L 142.0 129.6 L 139.6 130.4 L 137.1 130.8 L 134.6 131.0 L 134.6 125.0 L 118.6 122.0 Z M 48.4 95.0 L 48.4 113.0 L 59.3 113.0 L 59.3 95.0 Z M 69.3 95.0 L 69.3 113.0 L 78.3 113.0 L 78.3 95.0 Z M 130.0 56.9 L 132.7 59.4 L 129.1053999900818 60.79790000915527 L 128.6 63.0 L 126.9 69.1 L 125.0 75.0 L 122.8 80.8 L 120.4 86.4 L 117.7 92.0 L 114.8 97.4 L 111.5 102.6 L 107.9 107.6 L 103.9 112.4 L 102.4 111.5 L 104.6 105.8 L 108.8 94.6 L 110.7 89.0 L 112.4 83.5 L 114.0 77.8 L 115.3 72.2 L 116.5 66.5 L 117.4 60.8 L 118.06143341064453 56.00460748672485 L 118.0 56.0 L 118.5 53.0 Z M 174.2 84.1 L 172.7 80.2 L 171.0 76.3 L 169.1 72.4 L 167.1 68.6 L 164.9 64.8 L 162.5 61.0 L 160.0 57.1 L 157.3 53.3 L 158.6 52.0 L 162.5 54.8 L 166.3 57.7 L 169.8 60.9 L 173.0 64.3 L 176.0 67.9 L 178.9 71.7 L 181.5 75.6 L 183.9 79.6 L 186.1 83.8 L 188.1 88.1 L 187.8 92.7 L 184.4 95.8 L 179.9 95.5 L 176.8 92.1 L 175.6 88.1 Z M 48.4 73.0 L 48.4 91.0 L 59.3 91.0 L 59.3 73.0 Z M 69.3 73.0 L 69.3 91.0 L 78.3 91.0 L 78.3 73.0 Z M 48.4 55.0 L 48.4 69.0 L 59.3 69.0 L 59.3 55.0 Z M 55.6 36.8 L 51.6 37.8 L 50.90901880264282 36.12190284729004 L 48.4 37.723404216766355 L 48.4 51.0 L 59.3 51.0 L 59.3 35.89756097793579 Z " />
</g>
</svg>
