<svg xmlns="http://www.w3.org/2000/svg" xmlns:xlink="http://www.w3.org/1999/xlink" version="1.1" baseProfile="full" viewBox="0 0 200 200" width="200" height="200">
<g fill="black">
<path d="M 142.2 183.5 L 140.2 184.6 L 138.1 185.7 L 136.0 186.5 L 133.8 187.3 L 131.5 187.8 L 129.2 188.2 L 126.9 188.4 L 124.5 188.5 L 124.5 182.5 L 104.5 179.5 L 104.5 176.5 L 126.1 176.5 L 129.1 176.1 L 131.9 175.3 L 134.5 174.1 L 137.1 172.5 L 138.225 171.5625 L 138.4 171.3 L 138.7 170.7 L 139.1 169.6 L 139.5 168.3 L 139.9 166.6 L 140.2 164.6 L 140.5 162.3 L 140.8 159.7 L 140.83448276519775 159.2 L 86.46034479141235 159.2 L 81.8 164.5 L 75.7 169.5 L 68.8 174.0 L 60.9 177.8 L 52.2 181.1 L 42.5 183.7 L 31.9 185.7 L 20.4 187.0 L 20.1 185.2 L 31.1 182.0 L 41.0 178.6 L 49.8 174.9 L 57.6 171.0 L 64.3 166.8 L 69.9 162.3 L 74.5 157.6 L 78.0 152.6 L 80.7 147.5 L 81.75090913772583 144.1 L 20.3 144.1 L 20.3 140.1 L 94.0 140.1 L 94.0 126.1 L 106.0 128.1 L 109.0 130.1 L 106.0 131.9 L 106.0 140.1 L 162.4181818008423 140.1 L 170.6 131.1 L 180.6 140.1 L 180.6 144.1 L 91.03999996185303 144.1 L 93.9 145.4 L 96.2 148.1 L 92.29452447891235 149.14610948562623 L 90.9 152.4 L 89.1222222328186 155.2 L 141.0 155.2 L 147.0 150.2 L 158.0 159.2 L 153.0 162.2 L 152.53043479919432 162.3956521987915 L 152.4 163.7 L 152.1 166.4 L 151.6 168.9 L 151.1 171.2 L 150.5 173.4 L 149.7 175.4 L 148.8 177.3 L 147.6 179.1 L 146.0 180.7 L 144.2 182.1 Z M 85.2 113.1 L 87.3 116.0 L 82.99549951553345 116.83069305419922 L 82.6 117.5 L 79.1 121.2 L 74.7 124.3 L 69.7 126.9 L 63.8 129.1 L 57.2 131.0 L 49.8 132.6 L 41.6 133.9 L 32.5 134.8 L 22.5 135.2 L 22.3 133.4 L 31.9 131.0 L 40.5 128.6 L 48.2 126.3 L 54.9 123.8 L 60.6 121.3 L 65.3 118.7 L 69.0 116.0 L 71.6 113.5 L 73.2 111.1 L 73.9 109.0 L 73.91158180236816 109.00420227050782 L 74.4 107.6 Z M 125.9 130.9 L 123.6 130.7 L 121.4 130.2 L 119.3 129.4 L 117.3 128.1 L 115.6 126.4 L 114.3 124.4 L 113.3 122.2 L 112.6 119.8 L 112.2 117.2 L 112.2 107.4 L 38.86071424484253 107.4 L 38.9 108.5 L 38.6 111.3 L 37.9 114.0 L 36.8 116.6 L 35.3 119.0 L 33.3 121.2 L 30.9 123.1 L 28.2 124.8 L 23.6 124.5 L 20.5 121.1 L 20.8 116.6 L 24.2 113.5 L 25.9 113.2 L 27.5 112.8 L 28.9 112.2 L 30.3 111.5 L 31.6 110.4 L 32.9 109.1 L 34.0 107.3 L 35.1 105.2 L 36.0 102.8 L 36.2 99.9 L 38.0 99.8 L 38.3 102.8 L 38.403448295593265 103.4 L 94.0 103.4 L 94.0 92.5 L 55.4 92.5 L 43.4 98.5 L 43.4 46.6 L 55.4 52.6 L 88.56875 52.6 L 89.6 51.1 L 90.7 49.6 L 91.7 48.2 L 93.3 45.6 L 94.0 44.4 L 94.5 43.2 L 94.99719495773316 42.10617113113403 L 94.6 41.8 L 95.6 40.7 L 104.2 49.2 L 104.97714281082153 52.6 L 143.5 52.6 L 149.5 47.6 L 157.59831142425537 54.22589120864868 L 157.8 54.0 L 159.8 51.0 L 161.7 48.2 L 163.5 45.5 L 165.2 43.1 L 166.7 40.7 L 168.1 38.5 L 32.94878044128418 38.5 L 33.0 40.6 L 32.7 44.5 L 31.9 48.2 L 30.8 51.7 L 29.1 55.0 L 27.0 57.9 L 24.4 60.6 L 21.3 62.9 L 16.7 63.1 L 13.3 60.1 L 13.0 55.6 L 16.0 52.1 L 18.0 51.4 L 19.8 50.4 L 21.6 49.1 L 23.3 47.4 L 24.8 45.3 L 26.3 42.7 L 27.6 39.6 L 28.7 36.1 L 29.7 32.1 L 30.1 27.6 L 31.9 27.6 L 32.4 32.1 L 32.672727298736575 34.5 L 94.0 34.5 L 94.0 12.2 L 106.0 14.2 L 109.0 16.2 L 106.0 18.0 L 106.0 34.5 L 170.0 34.5 L 170.6 34.0 L 171.2 32.8 L 171.637020778656 33.13581600189209 L 176.0 29.5 L 187.0 38.5 L 182.0 41.5 L 176.41739130020142 43.82608699798584 L 175.2 44.8 L 173.0 46.5 L 170.7 48.3 L 168.2 50.1 L 165.5 52.0 L 162.7 53.9 L 159.6 55.8 L 159.5598470687866 55.830783939361574 L 160.5 56.6 L 155.5 60.6 L 155.5 92.5 L 143.5 98.5 L 143.5 92.5 L 107.5 92.5 L 109.0 93.5 L 106.0 95.3 L 106.0 103.4 L 163.3 103.4 L 164.14615383148194 102.6948718070984 L 164.4 102.3 L 165.1 101.1 L 165.52792692184448 101.54339418411254 L 169.3 98.4 L 180.3 107.4 L 175.3 110.4 L 163.3 115.4 L 163.3 114.79130430221558 L 161.9 115.4 L 159.5 116.4 L 156.9 117.5 L 154.2 118.5 L 151.5 120.0 L 150.5 118.5 L 152.8 116.6 L 154.7 114.4 L 156.5 112.3 L 158.2 110.4 L 159.8 108.6 L 160.6666666984558 107.4 L 124.2 107.4 L 124.2 117.2 L 124.0 118.5 L 123.9 119.5 L 123.9 120.3 L 124.0 120.9 L 124.0 121.4 L 124.3 121.9 L 124.8 122.4 L 125.6 123.0 L 126.7 123.4 L 128.2 123.7 L 167.6 123.7 L 171.1 118.7 L 173.1 118.7 L 171.1 123.7 L 173.2 125.1 L 174.6 127.2 L 173.2 129.3 L 171.1 130.7 L 128.2 130.7 Z M 55.4 80.0 L 55.4 88.5 L 143.5 88.5 L 143.5 80.0 Z M 55.4 68.3 L 55.4 76.0 L 143.5 76.0 L 143.5 68.3 Z M 55.4 56.6 L 55.4 64.3 L 143.5 64.3 L 143.5 56.6 Z M 99.9 51.2 L 98.4 51.9 L 96.8 52.4 L 96.23333330154419 52.6 L 104.525 52.6 L 99.3 51.5 L 100.16470584869384 51.094117641448975 Z " />
</g>
</svg>
