<svg xmlns="http://www.w3.org/2000/svg" xmlns:xlink="http://www.w3.org/1999/xlink" version="1.1" baseProfile="full" viewBox="0 0 200 200" width="200" height="200">
<g fill="black">
<path d="M 40.0 182.0 L 28.0 188.0 L 28.0 132.4 L 40.0 134.4 L 43.0 136.4 L 40.0 138.2 L 40.0 171.0 L 94.0 171.0 L 94.0 117.6 L 106.0 119.6 L 109.0 121.6 L 106.0 123.4 L 106.0 171.0 L 160.0 171.0 L 160.0 132.4 L 172.0 134.4 L 175.0 136.4 L 172.0 138.2 L 172.0 179.0 L 160.0 185.0 L 160.0 175.0 L 40.0 175.0 Z M 172.4 75.5 L 174.4 75.5 L 172.4 100.5 L 176.0 102.9 L 178.4 106.5 L 176.0 110.1 L 172.4 112.5 L 56.9 112.5 L 54.3 112.3 L 51.9 111.9 L 49.4 111.1 L 47.2 109.9 L 45.2 108.2 L 43.5 106.2 L 42.3 103.9 L 41.5 101.5 L 41.0 99.0 L 40.9 96.5 L 40.9 51.7 L 52.9 57.7 L 146.0 57.7 L 146.0 26.2 L 38.8 26.2 L 38.8 22.2 L 146.0 22.2 L 152.0 17.2 L 163.0 26.2 L 158.0 30.2 L 158.0 67.7 L 146.0 73.7 L 146.0 61.7 L 52.9 61.7 L 52.9 96.5 L 53.0 97.7 L 53.1 98.6 L 53.3 99.2 L 53.5 99.5 L 53.7 99.7 L 53.8 99.9 L 54.2 100.1 L 54.8 100.3 L 55.7 100.4 L 56.9 100.5 L 166.4 100.5 Z " />
</g>
</svg>
