<svg xmlns="http://www.w3.org/2000/svg" xmlns:xlink="http://www.w3.org/1999/xlink" version="1.1" baseProfile="full" viewBox="0 0 200 200" width="200" height="200">
<g fill="black">
<path d="M 104.3 176.6 L 125.5 176.6 L 126.4 176.4 L 127.0 176.2 L 127.6 175.9 L 127.7 175.7 L 127.9 175.4 L 128.1 174.8 L 128.2 173.9 L 128.3 172.6 L 128.3 98.3 L 140.3 100.3 L 143.3 102.3 L 140.3 104.1 L 140.3 172.6 L 140.2 175.2 L 139.7 177.7 L 138.9 180.1 L 137.7 182.4 L 136.0 184.4 L 134.0 186.0 L 131.8 187.2 L 129.4 188.0 L 126.9 188.5 L 124.3 188.6 L 124.3 182.6 L 104.3 179.6 Z M 61.1 181.0 L 59.3 182.6 L 57.4 184.0 L 55.3 185.2 L 53.1 186.2 L 50.8 186.9 L 48.5 187.5 L 46.1 187.8 L 43.6 187.9 L 43.6 181.9 L 29.6 178.9 L 29.6 175.9 L 43.6 175.9 L 46.4 175.7 L 47.6 175.4 L 48.7 175.0 L 49.8 174.5 L 50.8 173.9 L 51.8 173.2 L 52.7 172.4 L 53.6 171.4 L 54.5 170.3 L 55.6 168.4 L 56.8 165.9 L 57.9 162.9 L 58.9 159.4 L 59.8 155.3 L 60.6 150.7 L 61.2 145.6 L 61.8 140.0 L 62.2 133.9 L 62.33538465499878 129.5 L 30.689795875549315 129.5 L 29.4 137.4 L 16.6 141.4 L 24.9 90.4 L 34.542307662963864 97.3 L 61.5 97.3 L 61.5 71.5 L 16.6 71.5 L 16.6 67.5 L 61.5 67.5 L 67.5 62.5 L 78.5 71.5 L 73.5 75.5 L 73.5 105.3 L 61.5 111.3 L 61.5 101.3 L 35.2938775062561 101.3 L 31.34285717010498 125.5 L 62.4 125.5 L 68.4 120.5 L 79.4 129.5 L 74.4 132.5 L 74.18745384216308 132.58856086730958 L 74.1 134.6 L 73.7 141.0 L 73.2 147.0 L 72.4 152.5 L 71.6 157.6 L 70.5 162.3 L 69.3 166.6 L 67.9 170.5 L 66.2 174.1 L 64.3 177.2 L 62.8 179.2 Z M 115.0 126.8 L 117.2 129.6 L 113.3851794242859 130.47004680633546 L 112.8 131.8 L 110.3 136.8 L 107.5 141.6 L 104.3 146.3 L 100.9 150.8 L 97.2 155.2 L 93.1 159.5 L 88.8 163.6 L 84.0 167.4 L 78.9 171.0 L 77.6 169.6 L 81.3 164.7 L 84.8 159.9 L 88.1 155.3 L 91.1 150.6 L 93.9 146.0 L 96.4 141.4 L 98.6 136.8 L 100.5 132.2 L 102.2 127.6 L 103.30198135375977 123.90049114227295 L 103.3 123.9 L 103.3307692527771 123.80384616851806 L 103.6 122.9 L 103.61802654266357 122.90616703033447 L 104.1 121.4 Z M 171.2 156.4 L 169.3 152.2 L 167.3 148.0 L 165.0 143.9 L 162.5 139.9 L 159.8 135.9 L 156.9 131.9 L 153.9 127.9 L 150.6 123.8 L 151.8 122.4 L 156.4 125.1 L 160.7 128.2 L 164.7 131.6 L 168.4 135.2 L 171.9 139.0 L 175.1 143.1 L 178.1 147.3 L 180.8 151.7 L 183.2 156.3 L 185.5 161.1 L 185.2 165.6 L 181.9 168.8 L 177.3 168.5 L 174.2 165.2 L 172.8 160.8 Z M 124.4 65.3 L 126.5 68.2 L 122.79945192337036 68.91414089202881 L 121.3 72.3 L 118.0 79.1 L 114.4 85.5 L 111.52295083999634 90.0 L 171.1 90.0 L 171.47959184646606 89.68367347717285 L 172.7 87.9 L 173.13171520233155 88.3069040298462 L 177.1 85.0 L 188.1 94.0 L 183.1 97.0 L 176.66097564697264 99.68292684555054 L 175.4 100.6 L 173.2 102.4 L 170.8 104.2 L 168.3 106.2 L 165.6 108.2 L 162.8 110.4 L 159.7 112.5 L 156.8 115.1 L 155.5 113.9 L 157.8 110.7 L 159.7 107.5 L 161.6 104.5 L 163.5 101.7 L 165.2 99.0 L 166.9 96.5 L 168.5 94.1 L 168.5681818008423 94.0 L 108.77368421554566 94.0 L 106.4 97.3 L 102.0 102.7 L 97.4 107.8 L 92.5 112.4 L 87.2 116.6 L 81.7 120.2 L 80.5 118.9 L 84.6 113.8 L 88.6 108.7 L 92.3 103.5 L 95.9 98.2 L 99.3 92.6 L 102.5 86.8 L 105.5 80.8 L 108.2 74.5 L 110.8 67.9 L 113.1 61.1 L 113.12965879440307 61.111023616790774 L 113.6 59.7 Z M 32.0 61.2 L 32.0 23.4 L 44.0 25.4 L 47.0 27.4 L 44.0 29.2 L 44.0 51.2 L 94.0 51.2 L 94.0 13.0 L 106.0 15.0 L 109.0 17.0 L 106.0 18.8 L 106.0 51.2 L 155.0 51.2 L 155.0 23.4 L 167.0 25.4 L 170.0 27.4 L 167.0 29.2 L 167.0 59.2 L 155.0 65.2 L 155.0 55.2 L 44.0 55.2 Z " />
</g>
</svg>
