<svg xmlns="http://www.w3.org/2000/svg" xmlns:xlink="http://www.w3.org/1999/xlink" version="1.1" baseProfile="full" viewBox="0 0 200 200" width="200" height="200">
<g fill="black">
<path d="M 152.8 176.2 L 168.2 176.2 L 169.2 176.1 L 169.8 176.0 L 170.2 175.8 L 170.5 175.7 L 170.6 175.5 L 170.8 175.3 L 171.0 174.8 L 171.2 174.1 L 171.4 173.0 L 171.5 171.7 L 171.5 29.4 L 95.9 29.4 L 95.9 183.2 L 85.9 188.2 L 85.9 20.4 L 95.9 25.4 L 171.5 25.4 L 177.0 20.4 L 187.5 29.4 L 182.5 32.9 L 182.5 171.7 L 182.3 174.1 L 182.0 176.4 L 181.3 178.7 L 180.3 180.8 L 178.9 182.8 L 177.1 184.4 L 175.1 185.7 L 172.9 186.5 L 170.6 187.0 L 168.2 187.2 L 168.2 181.7 L 152.8 178.9 Z M 29.2 164.1 L 18.2 169.6 L 18.2 49.7 L 29.2 51.7 L 31.9 53.7 L 29.2 55.42340421676636 L 29.2 148.1 L 40.7 148.1 L 40.7 18.7 L 51.7 20.7 L 54.5 22.7 L 51.7 24.45 L 51.7 148.1 L 64.9 148.1 L 64.9 49.7 L 75.9 51.7 L 78.6 53.7 L 75.9 55.42340421676636 L 75.9 158.1 L 64.9 163.6 L 64.9 152.1 L 29.2 152.1 Z M 116.5 158.0 L 106.5 163.0 L 106.5 93.0 L 116.5 95.0 L 119.0 97.0 L 116.5 98.66666669845581 L 116.5 142.0 L 129.0 142.0 L 129.0 77.0 L 98.3 77.0 L 98.3 73.0 L 136.71000003814697 73.0 L 137.9 69.5 L 139.4 64.6 L 141.0 60.0 L 142.5 55.6 L 143.9 51.5 L 145.2 47.5 L 146.5 43.8 L 147.6 40.2 L 148.5 36.9 L 149.11734972000122 34.7049786567688 L 149.1 34.7 L 149.19795913696288 34.41836738586426 L 149.4 33.7 L 149.4421917915344 33.71619863510132 L 149.9 32.4 L 160.6 38.0 L 162.7 41.0 L 158.67829504013062 41.70556230545044 L 157.3 44.3 L 155.5 47.7 L 153.5 51.2 L 151.3 54.9 L 149.0 58.7 L 146.5 62.7 L 143.8 66.8 L 140.9 71.0 L 139.49090909957886 73.0 L 146.6 73.0 L 156.6 63.0 L 168.6 73.0 L 168.6 77.0 L 139.0 77.0 L 139.0 142.0 L 151.4 142.0 L 151.4 93.0 L 161.4 95.0 L 163.9 97.0 L 161.4 98.66666669845581 L 161.4 152.0 L 151.4 157.0 L 151.4 146.0 L 116.5 146.0 Z M 116.8 59.2 L 116.3 56.3 L 115.6 53.3 L 114.8 50.4 L 113.7 47.5 L 112.5 44.5 L 109.5 38.3 L 107.5 35.3 L 108.8 34.1 L 111.6 36.5 L 114.5 38.8 L 117.1 41.3 L 119.5 44.0 L 121.6 46.9 L 123.6 49.9 L 125.3 53.0 L 126.8 56.2 L 128.1 59.6 L 129.2 63.0 L 128.1 67.5 L 124.2 69.9 L 119.8 68.8 L 117.3 64.9 L 117.2 62.1 Z " />
</g>
</svg>
