<svg xmlns="http://www.w3.org/2000/svg" xmlns:xlink="http://www.w3.org/1999/xlink" version="1.1" baseProfile="full" viewBox="0 0 200 200" width="200" height="200">
<g fill="black">
<path d="M 39.5 35.0 L 98.0 35.0 L 98.0 12.0 L 110.0 14.0 L 113.0 16.0 L 110.0 17.8 L 110.0 35.0 L 164.0 35.0 L 174.0 25.0 L 186.0 35.0 L 186.0 39.0 L 39.5 39.0 L 39.5 102.0 L 38.9 113.7 L 37.8 124.8 L 36.3 135.2 L 34.1 145.1 L 31.4 154.3 L 28.2 162.8 L 24.4 170.6 L 20.1 177.8 L 15.1 184.1 L 9.6 189.5 L 8.3 188.4 L 12.3 182.0 L 15.8 175.3 L 19.0 168.1 L 21.7 160.4 L 24.0 152.1 L 25.8 143.3 L 27.1 133.9 L 28.1 123.8 L 28.5 113.2 L 28.5 29.5 Z M 48.0 172.6 L 54.8 171.8 L 61.8 171.0 L 68.9 170.1 L 76.2 169.2 L 77.4 169.07027025222777 L 77.4 153.7 L 52.7 153.7 L 52.7 149.7 L 77.4 149.7 L 77.4 137.3 L 50.4 137.3 L 50.4 133.3 L 77.4 133.3 L 77.4 116.0 L 62.2 116.0 L 51.2 121.5 L 51.2 87.6 L 62.2 93.1 L 77.4 93.1 L 77.4 79.9 L 74.5 79.9 L 62.5 85.9 L 62.5 64.3 L 46.4 64.3 L 46.4 60.3 L 62.5 60.3 L 62.5 44.1 L 74.5 46.1 L 77.5 48.1 L 74.5 49.9 L 74.5 60.3 L 93.2 60.3 L 93.2 44.1 L 105.2 46.1 L 108.2 48.1 L 105.2 49.9 L 105.2 60.3 L 109.3777777671814 60.3 L 115.6 53.3 L 123.6 60.3 L 123.6 64.3 L 105.2 64.3 L 105.2 79.9 L 93.2 85.9 L 93.2 79.9 L 89.4 79.9 L 89.4 93.1 L 104.2 93.1 L 110.2 88.1 L 121.2 97.1 L 116.2 101.1 L 116.2 116.0 L 104.2 122.0 L 104.2 116.0 L 89.4 116.0 L 89.4 133.3 L 100.71818180084229 133.3 L 108.9 124.3 L 118.9 133.3 L 118.9 137.3 L 89.4 137.3 L 89.4 149.7 L 94.5 149.7 L 104.5 139.7 L 116.5 149.7 L 116.5 153.7 L 89.4 153.7 L 89.4 167.7039999961853 L 91.1 167.5 L 98.7 166.6 L 106.5 165.8 L 114.5 165.2 L 122.7 164.7 L 123.0 166.5 L 115.2 168.9 L 107.5 171.1 L 99.9 173.1 L 92.4 175.0 L 85.0 176.7 L 77.8 178.4 L 70.6 180.0 L 63.6 181.6 L 56.7 183.0 L 53.98761329650879 183.60725078582763 L 52.4 187.1 L 50.0 184.5 L 46.0 173.0 Z M 170.3 177.7 L 168.6 179.5 L 166.8 181.1 L 164.8 182.5 L 162.6 183.6 L 160.3 184.5 L 157.9 185.1 L 155.5 185.4 L 153.0 185.6 L 153.0 179.6 L 133.0 176.6 L 133.0 173.6 L 153.0 173.6 L 154.4 173.5 L 155.6 173.3 L 156.7 173.0 L 157.7 172.7 L 158.6 172.2 L 159.4 171.6 L 160.2 170.9 L 161.0 170.1 L 161.7 169.1 L 162.4 167.9 L 163.4 165.6 L 164.4 161.7 L 165.4 156.5 L 166.3 150.0 L 167.1 142.2 L 167.7 133.2 L 168.2 123.0 L 168.5 111.6 L 168.7 99.0 L 168.78540143966674 87.3 L 152.36818180084228 87.3 L 151.8 99.8 L 150.3 114.0 L 148.1 127.2 L 145.0 139.3 L 141.2 150.3 L 136.5 160.1 L 131.1 168.8 L 124.8 176.2 L 117.7 182.2 L 109.9 186.9 L 108.9 185.4 L 115.2 179.4 L 120.7 172.7 L 125.6 165.2 L 129.7 156.8 L 133.2 147.3 L 136.0 136.9 L 138.2 125.4 L 139.6 112.8 L 140.4 99.2 L 140.48040542602538 87.3 L 120.5 87.3 L 120.5 83.3 L 140.5 83.3 L 140.5 46.5 L 152.5 48.5 L 155.5 50.5 L 152.5 52.3 L 152.5 83.3 L 168.8 83.3 L 174.8 78.3 L 185.8 87.3 L 180.8 90.3 L 180.76392059326173 90.3150330543518 L 180.7 99.2 L 180.5 111.9 L 180.2 123.5 L 179.7 133.9 L 179.0 143.2 L 178.2 151.3 L 177.3 158.4 L 176.1 164.4 L 174.7 169.4 L 173.0 173.6 L 171.7 175.7 Z M 62.2 97.1 L 62.2 112.0 L 77.4 112.0 L 77.4 97.1 Z M 89.4 97.1 L 89.4 112.0 L 104.2 112.0 L 104.2 97.1 Z M 74.5 64.3 L 74.5 75.9 L 93.2 75.9 L 93.2 64.3 Z " />
</g>
</svg>
