<svg xmlns="http://www.w3.org/2000/svg" xmlns:xlink="http://www.w3.org/1999/xlink" version="1.1" baseProfile="full" viewBox="0 0 200 200" width="200" height="200">
<g fill="black">
<path d="M 170.1 173.6 L 167.9 168.7 L 165.5 163.9 L 163.80127420425416 160.57049741744996 L 158.8 162.6 L 151.8 165.1 L 144.9 167.4 L 137.9 169.5 L 124.1 173.5 L 117.3 175.4 L 110.5 177.2 L 100.95643157958985 179.58589210510254 L 99.5 183.2 L 96.9 180.6 L 92.6 169.3 L 94.5 168.9 L 101.4 167.8 L 108.2 166.7 L 112.33041896820069 166.05093412399293 L 112.9 164.3 L 115.7 156.0 L 121.1 139.0 L 123.7 130.3 L 126.2 121.5 L 128.6 112.5 L 130.9 103.3 L 133.1 94.0 L 135.1 84.5 L 135.12110004425048 84.50504961013795 L 135.5 82.8 L 146.8 87.3 L 149.2 89.9 L 145.751314163208 91.02866086959838 L 144.1 96.9 L 141.3 106.2 L 138.3 115.4 L 135.1 124.3 L 131.8 133.1 L 128.2 141.6 L 124.5 149.9 L 120.6 158.0 L 116.64280443191528 165.34907751083375 L 122.1 164.4 L 129.1 163.3 L 136.2 162.1 L 150.6 159.9 L 157.9 158.9 L 162.66127014160156 158.38526811599732 L 160.3 154.1 L 157.4 149.3 L 154.4 144.4 L 151.3 139.4 L 148.1 134.3 L 149.4 133.1 L 154.2 136.9 L 158.6 141.0 L 162.7 145.3 L 166.5 149.8 L 170.1 154.4 L 173.5 159.1 L 176.7 163.9 L 179.7 168.8 L 182.4 173.8 L 185.0 178.9 L 184.9 183.5 L 181.7 186.7 L 177.2 186.7 L 173.9 183.5 L 172.1 178.5 Z M 60.8 180.0 L 59.2 181.8 L 57.4 183.5 L 55.4 184.8 L 53.2 186.0 L 50.9 186.9 L 48.6 187.5 L 46.1 187.8 L 43.6 188.0 L 43.6 182.0 L 29.6 179.0 L 29.6 176.0 L 43.6 176.0 L 45.0 175.9 L 46.2 175.7 L 47.3 175.4 L 48.2 175.1 L 49.1 174.6 L 50.7 173.4 L 51.4 172.5 L 52.1 171.5 L 52.8 170.3 L 54.4 166.9 L 55.8 162.8 L 57.2 158.0 L 58.4 152.6 L 59.5 146.6 L 60.4 139.9 L 61.1 132.5 L 61.7 124.6 L 62.1 116.0 L 62.32826089859009 109.0 L 30.69180326461792 109.0 L 29.2 121.6 L 16.6 126.1 L 24.5 59.3 L 34.640540504455565 66.0 L 61.5 66.0 L 61.5 29.0 L 16.6 29.0 L 16.6 25.0 L 61.5 25.0 L 67.5 20.0 L 78.5 29.0 L 73.5 33.0 L 73.5 76.0 L 61.5 82.0 L 61.5 70.0 L 35.309289646148684 70.0 L 31.165391635894775 105.0 L 62.4 105.0 L 68.4 100.0 L 79.4 109.0 L 74.4 112.0 L 74.24150943756104 112.06603775024413 L 74.1 116.5 L 73.7 125.3 L 73.1 133.6 L 72.3 141.3 L 71.3 148.4 L 70.2 155.0 L 68.8 161.0 L 67.3 166.4 L 65.5 171.4 L 63.5 175.8 L 62.3 178.0 Z M 128.6 17.1 L 131.5 19.2 L 128.34585752487183 20.931686019897462 L 127.3 36.7 L 125.2 55.6 L 124.46256980895996 60.0 L 165.6 60.0 L 175.6 50.0 L 187.6 60.0 L 187.6 64.0 L 123.79217872619628 64.0 L 122.2 73.5 L 118.2 90.7 L 113.3 107.0 L 107.5 122.4 L 100.7 136.9 L 93.0 150.4 L 84.3 163.0 L 74.6 174.5 L 73.2 173.4 L 81.1 160.9 L 88.3 147.8 L 94.8 134.1 L 100.4 119.6 L 105.2 104.4 L 109.2 88.5 L 112.3 71.8 L 113.3251428604126 64.0 L 83.2 64.0 L 83.2 60.0 L 113.85085716247559 60.0 L 114.6 54.3 L 116.0 35.9 L 116.56871128082275 17.796024990081786 L 116.5 17.8 L 116.6 14.5 Z " />
</g>
</svg>
