<svg xmlns="http://www.w3.org/2000/svg" xmlns:xlink="http://www.w3.org/1999/xlink" version="1.1" baseProfile="full" viewBox="0 0 200 200" width="200" height="200">
<g fill="black">
<path d="M 50.5 16.0 L 53.5 18.0 L 50.5 19.8 L 50.5 183.0 L 38.5 189.0 L 38.5 14.0 Z M 99.9 28.0 L 165.7 28.0 L 175.7 18.0 L 187.7 28.0 L 187.7 32.0 L 99.9 32.0 L 99.9 71.0 L 163.7 71.0 L 169.7 66.0 L 180.7 75.0 L 175.7 78.0 L 174.44120264053345 78.52449884414673 L 171.2 90.9 L 165.7 106.6 L 158.9 121.2 L 151.0 134.5 L 145.15930395126344 142.1817850112915 L 147.7 145.4 L 155.9 153.9 L 165.0 161.5 L 174.8 168.2 L 185.6 174.1 L 190.8 176.8 L 179.5 185.8 L 168.0 178.7 L 157.6 170.7 L 148.1 161.7 L 139.7 151.8 L 138.52662858963012 150.06405324935912 L 131.5 157.5 L 120.0 167.1 L 107.4 175.4 L 93.6 182.3 L 78.8 187.8 L 78.1 186.1 L 91.9 178.9 L 104.5 170.8 L 115.9 161.9 L 126.1 152.1 L 133.7588583946228 143.01036586761475 L 132.4 141.0 L 126.1 129.3 L 121.0 116.8 L 116.9 103.4 L 114.0 89.1 L 112.4960000038147 75.0 L 99.9 75.0 L 99.9 83.0 L 99.2 97.2 L 97.8 110.7 L 95.6 123.3 L 92.6 135.0 L 88.9 145.9 L 84.4 155.8 L 79.1 164.8 L 73.0 172.9 L 66.1 179.8 L 58.5 185.6 L 57.3 184.3 L 63.3 177.2 L 68.7 169.7 L 73.4 161.5 L 77.5 152.6 L 80.9 143.0 L 83.6 132.7 L 85.7 121.5 L 87.1 109.5 L 87.8 96.6 L 87.9 83.0 L 87.9 22.0 Z M 114.525 75.0 L 118.1 88.2 L 122.5 101.6 L 127.7 114.0 L 133.6 125.5 L 139.52614345550538 134.83816547393798 L 143.1 129.5 L 150.0 116.7 L 155.7 102.8 L 160.3 87.8 L 163.1 75.0 Z M 14.7 101.4 L 12.3 97.5 L 13.3 93.0 L 14.8 91.4 L 16.3 89.3 L 17.8 86.8 L 19.3 83.7 L 20.7 80.3 L 22.2 76.4 L 23.6 72.1 L 25.1 67.4 L 26.6 62.4 L 27.9 56.9 L 29.7 57.0 L 29.8 62.8 L 29.8 68.2 L 29.5 73.2 L 29.1 78.0 L 28.5 82.4 L 27.8 86.5 L 26.9 90.3 L 25.8 93.8 L 24.6 97.0 L 23.1 100.0 L 19.1 102.4 Z M 65.8 78.4 L 65.1 75.6 L 64.1 72.8 L 63.0 69.9 L 61.7 66.9 L 58.6 60.7 L 56.9 57.4 L 54.7 54.3 L 56.0 53.1 L 59.0 55.6 L 62.0 58.0 L 64.7 60.6 L 67.3 63.2 L 69.6 65.9 L 71.8 68.7 L 73.7 71.5 L 75.5 74.4 L 77.0 77.4 L 78.4 80.5 L 77.7 85.0 L 74.2 87.8 L 69.6 87.2 L 66.8 83.7 L 66.4 81.1 Z " />
</g>
</svg>
