<svg xmlns="http://www.w3.org/2000/svg" xmlns:xlink="http://www.w3.org/1999/xlink" version="1.1" baseProfile="full" viewBox="0 0 200 200" width="200" height="200">
<g fill="black">
<path d="M 48.7 16.0 L 51.7 18.0 L 48.7 19.8 L 48.7 183.0 L 36.7 189.0 L 36.7 14.0 Z M 154.9 179.8 L 145.1 174.6 L 136.4 168.7 L 129.2 162.7 L 119.3 169.9 L 108.6 176.1 L 97.2 181.1 L 85.2 184.9 L 72.4 187.5 L 59.1 188.8 L 58.8 187.1 L 71.6 183.8 L 83.5 179.8 L 94.6 175.0 L 104.9 169.4 L 114.4 163.0 L 122.69605751037598 155.9435832977295 L 121.9 155.1 L 116.2 147.5 L 111.7 139.2 L 108.3 130.4 L 107.82123613357544 128.0817749977112 L 107.2 129.2 L 103.3 135.2 L 99.0 140.8 L 94.3 146.1 L 89.2 151.1 L 83.6 155.6 L 77.5 159.6 L 76.4 158.3 L 81.0 152.8 L 85.3 147.4 L 89.2 142.0 L 92.8 136.4 L 96.1 130.7 L 99.0 124.9 L 101.5 118.8 L 103.6 112.6 L 105.4 106.2 L 106.9 99.6 L 107.3 97.8 L 118.6 102.3 L 121.0 104.9 L 117.3732455253601 106.08693780899048 L 116.3 109.4 L 113.7 116.3 L 112.92727270126343 118.0 L 150.2 118.0 L 150.50904111862184 117.74246578216552 L 150.8 117.2 L 151.02265892028808 117.31445083618163 L 156.2 113.0 L 167.2 122.0 L 162.2 125.0 L 159.4504298210144 126.145654296875 L 154.6 134.3 L 146.9 144.8 L 138.5 154.3 L 136.30528020858765 156.2823275566101 L 142.1 160.3 L 150.5 164.9 L 159.6 169.0 L 169.7 172.5 L 180.7 175.6 L 188.9 177.8 L 177.2 188.3 L 165.6 184.4 Z M 111.10909090042114 122.0 L 110.7 122.9 L 109.9222222328186 124.3 L 112.2 128.8 L 116.8 136.3 L 122.0 143.2 L 128.0 149.4 L 128.62346572875975 149.9384476661682 L 131.1 147.4 L 138.4 138.3 L 144.9 128.2 L 148.2254545211792 122.0 Z M 180.2 78.0 L 182.2 78.0 L 180.2 95.0 L 183.2 97.0 L 185.2 100.0 L 183.2 103.0 L 180.2 105.0 L 150.6 105.0 L 148.1 104.9 L 145.7 104.6 L 143.4 103.9 L 141.2 102.8 L 139.2 101.3 L 137.5 99.5 L 136.2 97.3 L 135.3 95.0 L 134.8 92.5 L 134.6 90.0 L 134.6 69.0 L 106.58571424484253 69.0 L 115.0 72.1 L 117.6 74.7 L 113.76913232803345 76.02339067459107 L 113.4 77.2 L 111.1 82.1 L 108.3 86.8 L 105.0 91.3 L 101.1 95.5 L 96.7 99.5 L 91.8 103.2 L 86.4 106.7 L 80.4 109.9 L 73.8 112.7 L 72.9 111.2 L 78.3 106.7 L 83.2 102.4 L 87.6 98.2 L 91.4 94.0 L 94.7 89.9 L 97.5 85.8 L 99.7 81.8 L 101.4 77.7 L 102.5 73.7 L 103.11502208709717 70.70176734924317 L 103.1 70.7 L 103.4035714149475 69.0 L 68.6 69.0 L 68.6 65.0 L 119.0 65.0 L 119.0 42.0 L 79.4 42.0 L 79.4 38.0 L 119.0 38.0 L 119.0 13.0 L 131.0 15.0 L 134.0 17.0 L 131.0 18.8 L 131.0 38.0 L 151.0 38.0 L 161.0 28.0 L 173.0 38.0 L 173.0 42.0 L 131.0 42.0 L 131.0 65.0 L 166.6 65.0 L 176.6 55.0 L 188.6 65.0 L 188.6 69.0 L 146.6 69.0 L 146.6 90.0 L 146.5 91.2 L 146.6 92.1 L 146.7 92.8 L 146.9 93.6 L 147.1 93.9 L 147.5 94.2 L 148.2 94.5 L 149.2 94.8 L 150.6 95.0 L 175.2 95.0 Z M 14.9 101.4 L 12.4 97.6 L 13.2 93.1 L 14.6 91.5 L 16.0 89.4 L 17.5 86.8 L 18.9 83.8 L 20.3 80.4 L 21.7 76.5 L 23.0 72.2 L 24.4 67.5 L 25.9 62.4 L 27.2 56.9 L 28.9 57.0 L 29.0 62.7 L 29.1 68.1 L 29.0 73.2 L 28.6 77.9 L 28.1 82.3 L 27.5 86.4 L 26.7 90.1 L 25.7 93.6 L 24.6 96.8 L 23.2 99.8 L 19.4 102.3 Z M 62.1 78.2 L 61.4 75.5 L 60.6 72.7 L 59.6 69.8 L 58.4 66.8 L 57.1 63.8 L 55.6 60.7 L 54.1 57.4 L 52.1 54.3 L 53.4 53.1 L 56.2 55.7 L 59.1 58.1 L 61.7 60.7 L 64.1 63.3 L 66.3 66.0 L 68.3 68.8 L 70.1 71.6 L 71.8 74.6 L 73.3 77.5 L 74.5 80.6 L 73.8 85.1 L 70.2 87.9 L 65.7 87.2 L 62.9 83.5 L 62.6 80.9 Z " />
</g>
</svg>
