<svg xmlns="http://www.w3.org/2000/svg" xmlns:xlink="http://www.w3.org/1999/xlink" version="1.1" baseProfile="full" viewBox="0 0 200 200" width="200" height="200">
<g fill="black">
<path d="M 46.6 16.0 L 49.6 18.0 L 46.6 19.8 L 46.6 183.0 L 34.6 189.0 L 34.6 14.0 Z M 106.2 63.4 L 108.6 66.1 L 103.33768844604492 67.69748744964599 L 103.1 68.0 L 101.9 69.5 L 100.5 70.9 L 99.1 72.2 L 97.6 73.5 L 96.0 74.8 L 95.71666669845581 75.0 L 114.1 75.0 L 119.6 70.0 L 130.1 79.0 L 125.1 82.5 L 125.1 127.0 L 114.1 132.5 L 114.1 125.0 L 87.1 125.0 L 87.1 144.0 L 106.31818180084228 144.0 L 114.5 135.0 L 124.5 144.0 L 124.5 148.0 L 87.1 148.0 L 87.1 166.0 L 109.11818180084228 166.0 L 117.3 157.0 L 127.3 166.0 L 127.3 170.0 L 87.1 170.0 L 87.1 183.0 L 75.1 189.0 L 75.1 69.0 L 87.1 75.0 L 92.40588235855103 75.0 L 92.6 74.7 L 93.6 70.9 L 94.0 69.2 L 94.3 67.5 L 94.6 65.9 L 94.7 64.4 L 94.7 61.6 L 94.68877840042114 61.46534090042114 L 94.3 61.4 L 95.0 58.7 Z M 155.3 159.8 L 165.3 159.8 L 166.6 159.7 L 167.5 159.6 L 168.1 159.4 L 168.4 159.2 L 168.7 158.9 L 168.9 158.5 L 169.1 157.9 L 169.3 157.0 L 169.3 72.8 L 145.4 72.8 L 145.4 183.6 L 134.4 189.1 L 134.4 63.3 L 145.4 68.8 L 169.3 68.8 L 175.3 63.8 L 186.3 72.8 L 181.3 76.8 L 181.3 155.8 L 181.2 158.4 L 180.8 160.8 L 180.0 163.3 L 178.7 165.5 L 177.1 167.5 L 175.1 169.2 L 172.8 170.4 L 170.4 171.2 L 167.9 171.7 L 165.3 171.8 L 165.3 165.8 L 155.3 162.8 Z M 87.1 102.0 L 87.1 121.0 L 114.1 121.0 L 114.1 102.0 Z M 14.3 101.5 L 11.7 97.7 L 12.4 93.2 L 13.8 91.6 L 15.1 89.5 L 16.5 86.9 L 17.9 83.9 L 19.2 80.4 L 20.6 76.5 L 21.9 72.2 L 23.2 67.5 L 24.6 62.4 L 25.9 56.9 L 27.7 57.0 L 27.8 62.7 L 27.9 68.1 L 27.8 73.2 L 27.5 77.9 L 27.1 82.2 L 26.5 86.3 L 25.8 90.0 L 24.9 93.5 L 23.8 96.7 L 22.6 99.6 L 18.8 102.2 Z M 87.1 79.0 L 87.1 98.0 L 114.1 98.0 L 114.1 79.0 Z M 58.6 78.1 L 58.0 75.4 L 57.3 72.6 L 55.3 66.8 L 54.1 63.8 L 51.3 57.4 L 49.4 54.3 L 50.8 53.2 L 53.4 55.7 L 56.2 58.2 L 58.7 60.7 L 61.0 63.4 L 63.1 66.1 L 65.1 68.9 L 66.8 71.7 L 68.4 74.6 L 69.8 77.6 L 71.0 80.6 L 70.3 85.1 L 66.6 87.9 L 62.1 87.1 L 59.4 83.4 L 59.1 80.8 Z M 103.0 51.1 L 102.4 49.1 L 101.5 47.1 L 100.5 45.1 L 99.2 43.0 L 97.7 40.8 L 96.1 38.6 L 94.2 36.3 L 92.7473684310913 35.1 L 90.78039216995239 35.1 L 89.2 38.2 L 86.3 43.1 L 83.1 47.7 L 79.6 52.2 L 75.8 56.4 L 71.6 60.3 L 67.0 63.9 L 65.7 62.6 L 68.7 57.8 L 71.5 53.1 L 74.2 48.4 L 76.6 43.8 L 78.8 39.0 L 80.8 34.2 L 82.5 29.4 L 84.0 24.4 L 85.2 19.4 L 86.02288827896118 15.203269767761231 L 86.0 15.2 L 86.6 12.5 L 97.9 16.9 L 100.4 19.5 L 96.75505304336548 20.67159013748169 L 96.2 22.5 L 94.1 27.9 L 92.68461542129516 31.1 L 114.01818180084229 31.1 L 122.2 22.1 L 132.2 31.1 L 132.2 35.1 L 97.53333330154419 35.1 L 98.5 35.5 L 101.2 36.9 L 103.7 38.5 L 106.0 40.2 L 108.2 42.0 L 110.2 44.0 L 112.0 46.1 L 113.6 48.4 L 115.1 50.8 L 114.8 55.4 L 111.5 58.5 L 106.9 58.2 L 103.8 54.9 L 103.5 53.0 Z M 158.3 51.1 L 157.7 49.1 L 156.8 47.1 L 155.8 45.1 L 154.5 43.0 L 153.0 40.8 L 151.4 38.6 L 149.5 36.3 L 148.04736843109131 35.1 L 145.7458333015442 35.1 L 144.5 37.4 L 141.5 42.0 L 138.3 46.3 L 134.8 50.3 L 131.0 54.1 L 126.8 57.5 L 122.3 60.5 L 121.0 59.1 L 124.1 54.8 L 126.9 50.6 L 129.6 46.4 L 132.0 42.1 L 134.2 37.7 L 136.1 33.3 L 137.8 28.7 L 139.3 24.0 L 140.5 19.2 L 141.5 14.2 L 141.51361255645753 14.203141403198241 L 141.9 12.4 L 153.2 16.9 L 155.6 19.5 L 151.9591262817383 20.691558647155762 L 151.4 22.4 L 149.4 27.6 L 147.78999996185303 31.1 L 170.01818180084229 31.1 L 178.2 22.1 L 188.2 31.1 L 188.2 35.1 L 152.8333333015442 35.1 L 153.8 35.5 L 156.5 36.9 L 159.0 38.5 L 161.3 40.2 L 163.5 42.0 L 165.5 44.0 L 167.3 46.1 L 168.9 48.4 L 170.4 50.8 L 170.1 55.4 L 166.8 58.5 L 162.2 58.2 L 159.1 54.9 L 158.8 53.0 Z " />
</g>
</svg>
