<svg xmlns="http://www.w3.org/2000/svg" xmlns:xlink="http://www.w3.org/1999/xlink" version="1.1" baseProfile="full" viewBox="0 0 200 200" width="200" height="200">
<g fill="black">
<path d="M 43.2 113.0 L 42.77433624267578 116.7 L 102.0 116.7 L 102.0 91.4 L 114.0 93.4 L 117.0 95.4 L 114.0 97.2 L 114.0 116.7 L 154.0 116.7 L 164.0 106.7 L 176.0 116.7 L 176.0 120.7 L 114.81935482025146 120.7 L 118.9 125.3 L 124.4 131.3 L 130.0 136.9 L 135.8 142.0 L 141.8 146.8 L 148.1 151.2 L 154.6 155.1 L 161.4 158.7 L 168.5 161.8 L 175.9 164.6 L 182.6 167.2 L 171.1 176.9 L 163.3 173.2 L 155.8 169.1 L 148.7 164.5 L 142.0 159.4 L 135.8 154.0 L 130.0 148.1 L 124.6 141.7 L 119.7 135.0 L 115.5 127.7 L 114.0 124.57837839126587 L 114.0 185.1 L 102.0 191.1 L 102.0 133.11636362075805 L 99.3 136.7 L 93.2 143.6 L 86.6 150.0 L 79.6 155.8 L 72.0 161.1 L 64.0 165.9 L 55.4 170.1 L 46.4 173.7 L 36.9 176.6 L 36.2 175.0 L 44.8 170.3 L 52.9 165.4 L 60.5 160.3 L 67.5 155.0 L 74.1 149.3 L 80.1 143.3 L 85.7 136.9 L 90.7 130.3 L 95.3 123.2 L 96.63333330154418 120.7 L 42.314159297943114 120.7 L 41.9 124.3 L 40.1 135.0 L 37.7 145.0 L 34.8 154.4 L 31.3 163.2 L 27.3 171.2 L 22.7 178.5 L 17.4 185.0 L 11.6 190.6 L 10.3 189.3 L 14.4 182.7 L 18.0 175.7 L 21.3 168.3 L 24.2 160.4 L 26.6 152.0 L 28.6 142.9 L 30.1 133.3 L 31.2 123.1 L 31.8 112.3 L 32.0 100.9 L 32.0 24.0 L 44.0 30.0 L 44.0 30.448120307922363 L 52.2 29.4 L 65.2 27.8 L 78.1 26.3 L 90.8 24.7 L 103.3 23.0 L 115.6 21.3 L 127.7 19.4 L 139.6 17.5 L 151.4 15.4 L 163.0 13.2 L 163.20265026092528 14.395636749267577 L 174.2 23.5 L 174.6 26.4 L 170.17238693237306 24.156676006317138 L 165.0 25.0 L 153.1 26.6 L 141.2 28.1 L 129.0 29.4 L 116.6 30.5 L 104.1 31.5 L 91.5 32.2 L 78.6 32.8 L 65.6 33.2 L 52.4 33.2 L 44.0 32.949253749847415 L 44.0 51.0 L 162.0 51.0 L 168.0 46.0 L 179.0 55.0 L 174.0 59.0 L 174.0 93.0 L 162.0 99.0 L 162.0 87.0 L 44.0 87.0 L 44.0 101.0 L 43.8904109954834 101.16438360214234 Z M 44.0 55.0 L 44.0 83.0 L 162.0 83.0 L 162.0 55.0 Z " />
</g>
</svg>
