<svg xmlns="http://www.w3.org/2000/svg" xmlns:xlink="http://www.w3.org/1999/xlink" version="1.1" baseProfile="full" viewBox="0 0 200 200" width="200" height="200">
<g fill="black">
<path d="M 175.5 121.0 L 170.5 125.0 L 170.5 145.8 L 174.0777777671814 145.8 L 180.3 138.8 L 188.3 145.8 L 188.3 149.8 L 170.5 149.8 L 170.5 182.5 L 158.5 188.5 L 158.5 180.5 L 80.5 180.5 L 80.5 176.5 L 158.5 176.5 L 158.5 149.8 L 66.5 149.8 L 66.5 145.8 L 158.5 145.8 L 158.5 121.0 L 81.9 121.0 L 81.9 117.0 L 158.5 117.0 L 164.5 112.0 Z M 19.7 175.0 L 31.7 175.0 L 32.9 174.9 L 33.8 174.7 L 34.7 174.4 L 35.1 174.0 L 35.4 173.1 L 35.6 172.2 L 35.7 171.0 L 35.7 116.31509437561036 L 34.6 117.0 L 29.2 120.4 L 21.834989166259767 124.68509721755981 L 21.4 128.6 L 18.2 126.8 L 10.9 117.1 L 12.7 116.2 L 18.4 113.5 L 24.1 110.9 L 29.8 108.2 L 35.4 105.6 L 35.7 105.45789470672608 L 35.7 57.0 L 13.9 57.0 L 13.9 53.0 L 35.7 53.0 L 35.7 14.0 L 47.7 16.0 L 50.7 18.0 L 47.7 19.8 L 47.7 53.0 L 51.81818180084228 53.0 L 60.0 44.0 L 70.0 53.0 L 70.0 57.0 L 47.7 57.0 L 47.7 99.74385967254639 L 52.4 97.6 L 58.0 95.0 L 63.8 92.5 L 68.15901098251342 90.77142667770386 L 66.3 87.4 L 68.2 86.8 L 72.7 85.4 L 77.5 83.9 L 82.5 82.3 L 87.7 80.5 L 92.0 79.01454544067383 L 92.0 58.7 L 74.2 58.7 L 74.2 54.7 L 92.0 54.7 L 92.0 34.3 L 71.4 34.3 L 71.4 30.3 L 92.0 30.3 L 92.0 11.3 L 104.0 13.3 L 107.0 15.3 L 104.0 17.1 L 104.0 30.3 L 109.6777777671814 30.3 L 115.9 23.3 L 123.9 30.3 L 123.9 34.3 L 104.0 34.3 L 104.0 54.7 L 107.5777777671814 54.7 L 113.8 47.7 L 121.8 54.7 L 121.8 58.7 L 104.0 58.7 L 104.0 74.78474578857421 L 104.8 74.5 L 110.9 72.4 L 117.4 70.2 L 124.2 68.1 L 124.9 69.7 L 119.0 73.6 L 113.2 77.2 L 107.5 80.5 L 104.0 82.4375 L 104.0 104.2 L 92.0 110.2 L 92.0 88.7365385055542 L 91.3 89.1 L 86.3 91.6 L 81.4 93.9 L 76.7 96.1 L 76.08387098312377 96.37383508682251 L 75.1 100.2 L 72.2 98.1 L 69.25663795471192 92.76203842163086 L 65.7 95.8 L 60.7 99.6 L 55.7 103.3 L 50.5 106.8 L 47.7 108.64905662536621 L 47.7 171.0 L 47.5 173.5 L 47.1 176.0 L 46.3 178.4 L 45.0 180.7 L 43.4 182.7 L 41.4 184.3 L 39.1 185.6 L 36.7 186.4 L 34.2 186.8 L 31.7 187.0 L 31.7 181.0 L 19.7 178.0 Z M 160.0 13.3 L 163.0 15.3 L 160.0 17.1 L 160.0 30.3 L 162.71818180084227 30.3 L 170.9 21.3 L 180.9 30.3 L 180.9 34.3 L 160.0 34.3 L 160.0 54.7 L 165.1777777671814 54.7 L 171.4 47.7 L 179.4 54.7 L 179.4 58.7 L 160.0 58.7 L 160.0 80.2 L 162.5 80.2 L 172.5 70.2 L 184.5 80.2 L 184.5 84.2 L 160.0 84.2 L 160.0 104.2 L 148.0 110.2 L 148.0 84.2 L 124.1 84.2 L 124.1 80.2 L 148.0 80.2 L 148.0 58.7 L 128.8 58.7 L 128.8 54.7 L 148.0 54.7 L 148.0 34.3 L 127.4 34.3 L 127.4 30.3 L 148.0 30.3 L 148.0 11.3 Z " />
</g>
</svg>
