<svg xmlns="http://www.w3.org/2000/svg" xmlns:xlink="http://www.w3.org/1999/xlink" version="1.1" baseProfile="full" viewBox="0 0 200 200" width="200" height="200">
<g fill="black">
<path d="M 19.7 175.0 L 31.7 175.0 L 32.9 174.9 L 33.8 174.7 L 34.7 174.4 L 35.1 174.0 L 35.4 173.1 L 35.6 172.2 L 35.7 171.0 L 35.7 116.31509437561036 L 34.6 117.0 L 29.2 120.4 L 21.834989166259767 124.68509721755981 L 21.4 128.6 L 18.2 126.8 L 10.9 117.1 L 12.7 116.2 L 18.4 113.5 L 24.1 110.9 L 29.8 108.2 L 35.4 105.6 L 35.7 105.45789470672608 L 35.7 57.0 L 13.9 57.0 L 13.9 53.0 L 35.7 53.0 L 35.7 14.0 L 47.7 16.0 L 50.7 18.0 L 47.7 19.8 L 47.7 53.0 L 51.81818180084228 53.0 L 60.0 44.0 L 70.0 53.0 L 70.0 57.0 L 47.7 57.0 L 47.7 99.74385967254639 L 52.4 97.6 L 58.0 95.0 L 63.8 92.5 L 69.6 90.2 L 70.5 91.7 L 65.7 95.8 L 60.7 99.6 L 55.7 103.3 L 50.5 106.8 L 47.7 108.64905662536621 L 47.7 171.0 L 47.5 173.5 L 47.1 176.0 L 46.3 178.4 L 45.0 180.7 L 43.4 182.7 L 41.4 184.3 L 39.1 185.6 L 36.7 186.4 L 34.2 186.8 L 31.7 187.0 L 31.7 181.0 L 19.7 178.0 Z M 87.1 47.0 L 116.7 47.0 L 116.7 12.0 L 128.7 14.0 L 131.7 16.0 L 128.7 17.8 L 128.7 27.0 L 151.21818180084227 27.0 L 159.4 18.0 L 169.4 27.0 L 169.4 31.0 L 128.7 31.0 L 128.7 47.0 L 171.4 47.0 L 172.0061855316162 46.494845390319824 L 172.1 46.2 L 172.26080923080445 46.28265895843506 L 177.4 42.0 L 188.4 51.0 L 183.4 54.0 L 179.83137254714967 55.48692808151245 L 178.4 57.3 L 176.8 59.2 L 173.6 63.2 L 170.0 67.2 L 168.1 69.1 L 166.5 71.4 L 165.0 70.5 L 166.0 68.0 L 166.6 65.3 L 167.3 62.7 L 168.7 57.7 L 169.4 55.3 L 170.70869569778444 51.0 L 87.1 51.0 L 87.1 111.0 L 86.5 121.3 L 85.5 131.1 L 83.9 140.3 L 81.9 148.8 L 79.3 156.7 L 76.2 164.0 L 72.5 170.6 L 68.4 176.4 L 63.6 181.5 L 58.3 185.6 L 57.1 184.3 L 60.7 179.0 L 63.9 173.5 L 66.7 167.5 L 69.2 161.1 L 71.2 154.2 L 72.8 146.7 L 74.0 138.6 L 74.8 130.0 L 75.2 120.8 L 75.1 111.0 L 75.1 41.0 Z M 165.3 180.5 L 163.5 182.0 L 161.5 183.3 L 159.4 184.5 L 157.2 185.4 L 154.9 186.1 L 152.6 186.6 L 150.2 186.9 L 147.7 187.0 L 147.7 181.0 L 127.7 178.0 L 127.7 175.0 L 147.7 175.0 L 149.2 174.9 L 150.6 174.7 L 151.9 174.4 L 153.1 174.1 L 154.3 173.6 L 155.4 173.0 L 156.4 172.3 L 157.5 171.5 L 158.5 170.5 L 159.5 169.4 L 159.9 168.7 L 160.6 166.8 L 161.5 163.9 L 162.3 160.0 L 163.0 155.2 L 163.7 149.6 L 164.3 143.1 L 164.8 135.8 L 165.3 127.7 L 165.52584266662598 121.0 L 153.95862064361572 121.0 L 152.7 128.3 L 150.5 136.6 L 147.7 144.5 L 146.82313528060914 146.38268013000487 L 149.9 148.1 L 153.8 150.8 L 157.2 153.7 L 158.7 158.0 L 156.8 162.2 L 152.5 163.7 L 148.3 161.8 L 146.3 159.3 L 143.6 156.8 L 142.02649173736572 155.57069664001466 L 140.2 158.6 L 135.5 164.9 L 130.2 170.6 L 124.3 175.6 L 117.8 180.0 L 110.7 183.7 L 109.8 182.2 L 115.5 177.0 L 120.7 171.7 L 125.3 166.2 L 129.4 160.4 L 132.9 154.3 L 134.58895597457885 150.57264881134034 L 132.4 149.3 L 127.6 146.9 L 123.0617021560669 144.88297872543336 L 122.7 145.5 L 118.9 151.0 L 114.7 156.2 L 110.0 161.0 L 104.9 165.4 L 99.3 169.3 L 93.3 172.7 L 92.2 171.2 L 96.9 166.4 L 101.2 161.5 L 105.1 156.6 L 108.7 151.5 L 111.8 146.4 L 114.41203079223632 141.3625120162964 L 109.9 139.6 L 103.0 137.0 L 103.4 135.3 L 110.8 135.9 L 116.47188262939453 136.7102689743042 L 117.0 135.5 L 119.0 129.7 L 120.7 123.8 L 121.225 121.0 L 110.03400001525878 121.0 L 108.7 123.3 L 105.4 128.1 L 101.9 132.8 L 98.1 137.3 L 94.0 141.7 L 89.5 145.8 L 84.6 149.6 L 83.3 148.3 L 86.7 143.3 L 89.8 138.3 L 92.8 133.4 L 95.6 128.6 L 98.2 123.8 L 100.5 118.9 L 102.5 114.0 L 104.3 109.1 L 105.9 104.2 L 106.93799095153808 100.20772695541382 L 106.9 100.2 L 107.6 97.6 L 118.7 102.6 L 121.0 105.4 L 117.25323276519775 106.32025861740112 L 116.6 108.0 L 114.2 113.2 L 112.26274509429932 117.0 L 165.6 117.0 L 171.6 112.0 L 182.6 121.0 L 177.6 124.0 L 177.38059701919556 124.09141788482665 L 177.2 128.2 L 176.8 136.5 L 176.3 144.1 L 175.7 150.8 L 174.9 156.8 L 174.1 162.1 L 173.1 166.7 L 172.0 170.7 L 170.6 174.1 L 168.7 177.1 L 167.1 178.9 Z M 133.36470584869386 121.0 L 131.6 127.0 L 129.1 133.5 L 126.525714302063 138.8201904296875 L 130.2 139.8 L 135.8 141.6 L 137.83715448379516 142.35893993377687 L 138.3 141.1 L 140.1 133.9 L 141.5 126.3 L 142.00821914672852 121.0 Z M 125.8 100.9 L 123.4 100.6 L 121.1 99.9 L 118.9 98.8 L 116.9 97.3 L 115.2 95.5 L 114.0 93.3 L 113.1 91.0 L 112.5 88.5 L 112.3 86.0 L 112.3 76.92035274505615 L 87.9 79.9 L 87.4 76.0 L 112.3 72.95929441452026 L 112.3 53.0 L 124.3 55.0 L 127.3 57.0 L 124.3 58.8 L 124.3 71.49389419555663 L 139.2486283302307 69.66841716766358 L 148.0 58.5 L 161.1 67.0 L 161.6 70.9 L 124.3 75.45495252609253 L 124.3 88.1 L 124.4 88.8 L 124.6 89.2 L 124.7 89.6 L 124.9 89.9 L 125.3 90.2 L 126.0 90.5 L 127.0 90.8 L 128.3 91.0 L 168.1 91.0 L 173.1 74.0 L 175.1 74.0 L 173.1 91.0 L 176.1 93.0 L 178.1 96.0 L 176.1 99.0 L 173.1 101.0 L 128.3 101.0 Z " />
</g>
</svg>
