<svg xmlns="http://www.w3.org/2000/svg" xmlns:xlink="http://www.w3.org/1999/xlink" version="1.1" baseProfile="full" viewBox="0 0 200 200" width="200" height="200">
<g fill="black">
<path d="M 82.5 153.5 L 80.3 150.4 L 77.8 147.3 L 75.2 144.3 L 72.3 141.2 L 69.3 138.3 L 66.1 135.3 L 64.7 133.9848484992981 L 64.7 183.0 L 52.7 189.0 L 52.7 137.94473686218262 L 51.6 140.0 L 47.3 146.8 L 42.6 153.3 L 37.6 159.6 L 32.1 165.4 L 26.1 170.9 L 19.7 176.0 L 12.8 180.6 L 11.7 179.3 L 17.2 173.2 L 22.3 167.2 L 27.1 161.1 L 31.6 154.9 L 35.6 148.6 L 39.3 142.0 L 42.7 135.3 L 45.6 128.5 L 48.2 121.4 L 49.20740737915039 118.0 L 14.0 118.0 L 14.0 114.0 L 52.7 114.0 L 52.7 90.0 L 33.8 90.0 L 33.8 97.0 L 21.8 103.0 L 21.8 21.0 L 33.8 27.0 L 83.7 27.0 L 89.7 22.0 L 100.7 31.0 L 95.7 35.0 L 95.7 90.0 L 83.7 96.0 L 83.7 90.0 L 64.7 90.0 L 64.7 114.0 L 78.0 114.0 L 88.0 104.0 L 100.0 114.0 L 100.0 118.0 L 64.7 118.0 L 64.7 129.4837209701538 L 68.8 131.2 L 72.9 133.3 L 76.8 135.6 L 80.5 138.1 L 84.1 140.8 L 87.4 143.7 L 90.6 146.6 L 93.6 149.8 L 96.4 153.1 L 97.3 157.6 L 94.8 161.4 L 90.3 162.3 L 86.5 159.8 L 84.6 156.6 Z M 155.7 169.4 L 146.7 160.7 L 138.7 151.0 L 136.9327079772949 148.28502960205077 L 130.2 156.9 L 119.6 167.3 L 107.9 176.2 L 95.0 183.3 L 81.0 188.8 L 80.3 187.1 L 93.2 180.0 L 104.7 171.8 L 115.1 162.5 L 124.3 152.1 L 132.09076175689697 140.84667749404906 L 131.8 140.4 L 125.9 128.9 L 121.1 116.5 L 117.4 103.2 L 114.8 89.1 L 114.08673324584962 80.18416547775269 L 109.8 86.7 L 104.5 93.8 L 98.7 100.5 L 97.2 99.4 L 101.3 91.8 L 105.2 84.0 L 109.0 76.1 L 112.5 67.9 L 115.8 59.5 L 118.9 50.9 L 121.6 42.0 L 124.1 32.8 L 126.3 23.4 L 128.11404371261597 14.601888179779053 L 128.1 14.6 L 128.7 11.9 L 140.0 16.2 L 142.5 18.8 L 139.010587310791 20.00543346405029 L 137.4 26.2 L 134.4 35.8 L 131.1 45.2 L 127.5 54.2 L 124.45172414779663 61.0 L 165.1 61.0 L 175.1 51.0 L 187.1 61.0 L 187.1 65.0 L 167.37277488708497 65.0 L 164.5 82.7 L 160.1 100.4 L 154.5 116.7 L 147.6 131.6 L 142.78870010375977 139.5594344139099 L 146.7 144.7 L 154.6 153.0 L 163.2 160.2 L 172.6 166.6 L 182.8 172.1 L 188.2 174.8 L 176.9 183.8 L 165.8 177.1 Z M 122.53734941482544 65.0 L 119.4 71.2 L 116.07680606842041 76.90722436904908 L 118.9 88.2 L 123.1 101.6 L 127.9 113.9 L 133.4 125.2 L 137.18403606414796 131.38659868240356 L 139.3 127.4 L 145.1 113.2 L 149.7 97.6 L 153.3 80.6 L 155.33863639831543 65.0 Z M 33.8 61.0 L 33.8 86.0 L 52.7 86.0 L 52.7 61.0 Z M 64.7 61.0 L 64.7 86.0 L 83.7 86.0 L 83.7 61.0 Z M 33.8 31.0 L 33.8 57.0 L 52.7 57.0 L 52.7 31.0 Z M 64.7 31.0 L 64.7 57.0 L 83.7 57.0 L 83.7 31.0 Z " />
</g>
</svg>
