<svg xmlns="http://www.w3.org/2000/svg" xmlns:xlink="http://www.w3.org/1999/xlink" version="1.1" baseProfile="full" viewBox="0 0 200 200" width="200" height="200">
<g fill="black">
<path d="M 106.0 98.0 L 109.0 100.0 L 106.0 101.8 L 106.0 123.0 L 139.0 123.0 L 149.0 113.0 L 161.0 123.0 L 161.0 127.0 L 106.0 127.0 L 106.0 150.0 L 160.0 150.0 L 170.0 140.0 L 182.0 150.0 L 182.0 154.0 L 106.0 154.0 L 106.0 183.0 L 94.0 189.0 L 94.0 154.0 L 19.0 154.0 L 19.0 150.0 L 94.0 150.0 L 94.0 127.0 L 38.0 127.0 L 38.0 123.0 L 94.0 123.0 L 94.0 96.0 Z M 143.0 98.8 L 128.5 94.5 L 115.0 89.4 L 102.6 83.6 L 99.62590351104737 81.85206613540649 L 89.6 87.1 L 76.0 92.8 L 61.4 97.7 L 45.9 101.5 L 29.4 104.4 L 12.1 106.1 L 11.8 104.4 L 28.7 100.6 L 44.5 96.3 L 59.3 91.4 L 73.1 85.8 L 85.8 79.5 L 90.72350931167603 76.5543107032776 L 81.0 69.5 L 71.9 61.2 L 64.2 52.1 L 58.25252523422241 42.9 L 19.0 42.9 L 19.0 38.9 L 94.0 38.9 L 94.0 12.6 L 106.0 14.6 L 109.0 16.6 L 106.0 18.4 L 106.0 38.9 L 159.0 38.9 L 169.0 28.9 L 181.0 38.9 L 181.0 42.9 L 145.13333330154418 42.9 L 143.8 44.5 L 134.9 54.8 L 125.0 64.3 L 114.2 72.8 L 109.01638851165771 76.13859720230103 L 118.7 79.9 L 131.7 83.9 L 145.7 87.3 L 160.7 89.9 L 176.7 91.9 L 187.1 93.1 L 175.2 105.0 L 158.6 102.3 Z M 67.3 49.3 L 75.9 56.8 L 85.3 63.6 L 95.5 69.7 L 98.98047580718995 71.42456007003784 L 108.1 64.8 L 117.8 56.4 L 126.4 47.2 L 129.67619047164916 42.9 L 60.97901229858398 42.9 Z " />
</g>
</svg>
