<svg xmlns="http://www.w3.org/2000/svg" xmlns:xlink="http://www.w3.org/1999/xlink" version="1.1" baseProfile="full" viewBox="0 0 200 200" width="200" height="200">
<g fill="black">
<path d="M 161.8 170.9 L 155.2 163.9 L 149.2 156.3 L 143.9 148.3 L 139.4 139.7 L 135.5 130.8 L 132.5 121.3 L 130.2 111.4 L 129.4243127822876 104.74201765060425 L 128.1 112.4 L 124.4 124.9 L 119.4 136.5 L 113.0 147.2 L 105.3 157.0 L 96.3 165.7 L 86.1 173.5 L 74.6 180.2 L 61.9 185.8 L 61.1 184.1 L 72.7 176.9 L 82.9 169.2 L 91.8 161.0 L 99.5 152.1 L 105.8 142.7 L 111.0 132.6 L 114.9 121.8 L 117.6 110.3 L 118.61219511032104 102.0 L 74.3 102.0 L 74.3 98.0 L 119.1 98.0 L 119.4 85.0 L 119.4 54.0 L 82.8 54.0 L 82.8 50.0 L 119.4 50.0 L 119.4 14.0 L 131.4 16.0 L 134.4 18.0 L 131.4 19.8 L 131.4 50.0 L 156.7 50.0 L 166.7 40.0 L 178.7 50.0 L 178.7 54.0 L 131.4 54.0 L 131.4 85.0 L 130.47801418304442 98.0 L 164.1 98.0 L 174.1 88.0 L 186.1 98.0 L 186.1 102.0 L 131.1875 102.0 L 134.3 110.3 L 138.0 119.3 L 142.1 127.8 L 146.7 135.7 L 151.7 143.1 L 157.2 150.0 L 163.2 156.3 L 169.7 162.2 L 176.8 167.5 L 184.3 172.4 L 188.3 174.9 L 177.2 183.5 L 169.2 177.5 Z M 29.4 36.0 L 55.2 36.0 L 61.2 31.0 L 72.2 40.0 L 67.2 44.0 L 67.2 158.0 L 55.2 164.0 L 55.2 152.0 L 29.4 152.0 L 29.4 164.0 L 17.4 170.0 L 17.4 30.0 Z M 29.4 96.0 L 29.4 148.0 L 55.2 148.0 L 55.2 96.0 Z M 29.4 40.0 L 29.4 92.0 L 55.2 92.0 L 55.2 40.0 Z " />
</g>
</svg>
