<svg xmlns="http://www.w3.org/2000/svg" xmlns:xlink="http://www.w3.org/1999/xlink" version="1.1" baseProfile="full" viewBox="0 0 200 200" width="200" height="200">
<g fill="black">
<path d="M 55.9 108.6 L 143.0 108.6 L 149.0 103.6 L 160.0 112.6 L 155.0 116.6 L 155.0 180.4 L 143.0 186.4 L 143.0 178.4 L 55.9 178.4 L 55.9 181.4 L 43.9 187.4 L 43.9 102.6 Z M 55.9 145.5 L 55.9 174.4 L 143.0 174.4 L 143.0 145.5 Z M 55.9 112.6 L 55.9 141.5 L 143.0 141.5 L 143.0 112.6 Z M 18.4 95.5 L 24.6 94.4 L 31.4 93.1 L 33.4 92.69459457397461 L 33.4 32.2 L 45.4 34.2 L 48.4 36.2 L 45.4 38.0 L 45.4 90.19750003814697 L 46.8 89.9 L 55.5 88.0 L 61.0 86.68478260040283 L 61.0 13.2 L 73.0 15.2 L 76.0 17.2 L 73.0 19.0 L 73.0 46.4 L 85.21818180084229 46.4 L 93.4 37.4 L 103.4 46.4 L 103.4 50.4 L 73.0 50.4 L 73.0 83.87171716690064 L 74.6 83.5 L 85.1 81.1 L 96.3 78.6 L 108.1 76.0 L 108.6 77.8 L 97.4 82.2 L 86.6 86.2 L 76.4 89.8 L 66.8 93.1 L 57.7 96.1 L 49.2 98.9 L 41.3 101.3 L 34.0 103.6 L 27.2 105.5 L 24.968235301971436 106.10222225189209 L 23.5 109.8 L 20.9 107.2 L 16.4 96.0 Z M 179.3 68.2 L 181.3 68.2 L 179.3 85.2 L 182.3 87.2 L 184.3 90.2 L 182.3 93.2 L 179.3 95.2 L 126.7 95.2 L 124.3 94.8 L 122.0 94.2 L 119.8 93.1 L 117.8 91.6 L 116.1 89.7 L 114.8 87.5 L 113.9 85.2 L 113.4 82.8 L 113.2 80.2 L 113.2 13.2 L 125.2 15.2 L 128.2 17.2 L 125.2 19.0 L 125.2 54.7758620262146 L 126.7 54.0 L 132.3 51.1 L 137.7 48.3 L 142.8 45.6 L 147.7 42.8 L 152.3 40.1 L 156.6 37.3 L 160.7 34.5 L 164.5 31.7 L 168.0 28.9 L 175.1 38.6 L 175.2 42.2 L 171.67562313079833 40.67055339813233 L 170.8 41.2 L 166.3 43.7 L 161.5 46.1 L 156.5 48.3 L 151.3 50.5 L 145.9 52.5 L 140.2 54.4 L 134.2 56.1 L 127.9 57.6 L 125.2 58.09846153259277 L 125.2 80.2 L 125.1 81.4 L 125.2 82.4 L 125.3 83.1 L 125.4 83.5 L 125.8 84.1 L 126.2 84.4 L 126.8 84.8 L 127.8 85.0 L 129.2 85.2 L 174.3 85.2 Z " />
</g>
</svg>
