<svg xmlns="http://www.w3.org/2000/svg" xmlns:xlink="http://www.w3.org/1999/xlink" version="1.1" baseProfile="full" viewBox="0 0 200 200" width="200" height="200">
<g fill="black">
<path d="M 133.6 176.0 L 153.6 176.0 L 154.8 175.9 L 155.7 175.7 L 156.3 175.5 L 156.7 175.4 L 156.9 175.2 L 157.0 175.0 L 157.2 174.7 L 157.4 174.1 L 157.5 173.2 L 157.6 172.0 L 157.6 73.0 L 133.0 73.0 L 133.0 69.0 L 157.6 69.0 L 157.6 16.0 L 169.6 18.0 L 172.6 20.0 L 169.6 21.8 L 169.6 69.0 L 173.87777776718139 69.0 L 180.1 62.0 L 188.1 69.0 L 188.1 73.0 L 169.6 73.0 L 169.6 172.0 L 169.5 174.5 L 169.0 177.0 L 168.2 179.4 L 167.0 181.7 L 165.3 183.7 L 163.3 185.3 L 161.1 186.6 L 158.7 187.4 L 156.2 187.8 L 153.6 188.0 L 153.6 182.0 L 133.6 179.0 Z M 62.2 167.9 L 68.5 166.4 L 75.2 164.9 L 82.1 163.2 L 89.3 161.5 L 89.5 161.45405406951903 L 89.5 133.0 L 67.9 133.0 L 67.9 129.0 L 89.5 129.0 L 89.5 103.0 L 62.1 103.0 L 62.1 99.0 L 100.2526315689087 99.0 L 101.1 96.7 L 102.3 92.9 L 103.5 89.2 L 104.8 85.7 L 106.0 82.3 L 107.3 79.0 L 108.6 75.8 L 109.8 72.7 L 111.0 69.7 L 111.80689105987548 67.750013256073 L 111.7 67.7 L 112.09514560699463 67.05339803695679 L 112.2 66.8 L 112.2369668006897 66.82132701873779 L 112.73888893127442 66.0 L 62.1 66.0 L 62.1 62.0 L 82.0 62.0 L 82.0 17.0 L 93.0 19.0 L 95.7 21.0 L 93.0 22.723404216766358 L 93.0 62.0 L 100.1 62.0 L 100.1 17.0 L 111.1 19.0 L 113.9 21.0 L 111.1 22.75 L 111.1 62.0 L 114.21818180084229 62.0 L 122.4 53.0 L 132.4 62.0 L 132.4 66.0 L 112.94202899932861 66.0 L 122.6 72.8 L 124.3 76.0 L 120.21538457870483 76.0692307472229 L 118.9 77.8 L 117.0 80.5 L 115.0 83.2 L 112.9 86.0 L 110.8 88.9 L 108.5 91.9 L 106.2 95.0 L 103.7 98.1 L 103.04545450210571 99.0 L 110.4 99.0 L 120.4 89.0 L 132.4 99.0 L 132.4 103.0 L 101.5 103.0 L 101.5 129.0 L 103.9 129.0 L 113.9 119.0 L 125.9 129.0 L 125.9 133.0 L 101.5 133.0 L 101.5 158.67792205810548 L 104.4 158.0 L 112.3 156.2 L 120.6 154.4 L 129.1 152.7 L 138.0 151.1 L 138.5 152.8 L 130.2 156.3 L 122.1 159.6 L 114.2 162.5 L 106.5 165.3 L 99.1 168.0 L 91.8 170.5 L 84.9 172.9 L 78.1 175.2 L 71.7 177.4 L 69.3535135269165 178.18216218948365 L 68.2 181.8 L 65.4 179.5 L 60.2 168.4 Z M 25.5 36.0 L 45.0 36.0 L 51.0 31.0 L 62.0 40.0 L 57.0 44.0 L 57.0 158.0 L 45.0 164.0 L 45.0 152.0 L 25.5 152.0 L 25.5 164.0 L 13.5 170.0 L 13.5 30.0 Z M 25.5 96.0 L 25.5 148.0 L 45.0 148.0 L 45.0 96.0 Z M 142.2 116.3 L 142.0 113.1 L 141.6 110.0 L 141.0 106.9 L 140.1 103.8 L 139.0 100.6 L 137.6 97.5 L 136.0 94.3 L 134.0 91.3 L 135.2 90.0 L 138.2 92.4 L 141.2 94.9 L 143.8 97.7 L 146.1 100.7 L 148.2 103.9 L 149.9 107.3 L 151.4 111.0 L 152.5 114.8 L 153.4 118.8 L 153.9 123.0 L 152.1 127.2 L 147.9 129.0 L 143.7 127.2 L 141.9 123.0 L 142.1 119.6 Z M 80.0 86.7 L 79.4 84.3 L 78.6 81.8 L 77.7 79.2 L 76.6 76.6 L 75.4 73.8 L 74.0 71.0 L 72.2 68.3 L 73.6 67.1 L 76.0 69.3 L 78.6 71.4 L 80.9 73.5 L 83.1 75.7 L 85.1 78.0 L 86.9 80.4 L 88.6 82.9 L 90.1 85.4 L 91.4 88.0 L 92.6 90.6 L 91.8 95.1 L 88.2 97.9 L 83.7 97.1 L 80.9 93.4 L 80.8 91.3 Z M 25.5 40.0 L 25.5 92.0 L 45.0 92.0 L 45.0 40.0 Z M 68.4 47.0 L 67.8 44.3 L 67.2 41.7 L 66.5 39.1 L 65.8 36.6 L 64.2 31.8 L 63.3 29.4 L 62.1 27.3 L 63.4 26.1 L 65.3 27.8 L 67.5 29.5 L 69.5 31.4 L 71.4 33.5 L 73.2 35.7 L 74.9 38.2 L 76.5 40.8 L 78.1 43.5 L 79.5 46.4 L 80.8 49.4 L 80.2 54.0 L 76.7 56.8 L 72.2 56.2 L 69.3 52.7 L 68.9 49.8 Z M 133.8 30.5 L 135.6 33.6 L 131.3033444404602 33.97040138244629 L 130.7 34.8 L 129.0 37.2 L 127.2 39.5 L 125.3 42.0 L 123.3 44.5 L 121.2 47.1 L 119.0 49.8 L 116.6 52.5 L 114.4 55.4 L 112.8 54.5 L 114.3 51.1 L 115.4 47.7 L 116.5 44.4 L 117.6 41.3 L 118.6 38.3 L 120.6 32.7 L 121.4 30.1 L 122.2 27.6 L 122.67702350616455 26.168929481506346 L 122.5 26.1 L 123.5 24.1 Z " />
</g>
</svg>
