<svg xmlns="http://www.w3.org/2000/svg" xmlns:xlink="http://www.w3.org/1999/xlink" version="1.1" baseProfile="full" viewBox="0 0 200 200" width="200" height="200">
<g fill="black">
<path d="M 64.4 104.8 L 63.0 102.5 L 61.4 100.3 L 59.7 98.0 L 57.9 95.8 L 55.9 93.6 L 53.7 91.4 L 52.5 90.25 L 52.5 183.0 L 40.5 189.0 L 40.5 96.5709677696228 L 39.4 99.8 L 36.0 108.6 L 32.3 117.2 L 28.2 125.5 L 23.8 133.5 L 18.9 141.1 L 13.6 148.4 L 12.1 147.5 L 15.6 139.3 L 19.0 131.1 L 22.2 122.8 L 25.2 114.4 L 28.0 105.8 L 30.5 97.0 L 32.8 88.0 L 34.8 78.9 L 36.6 69.5 L 37.51764707565307 63.0 L 12.9 63.0 L 12.9 59.0 L 40.5 59.0 L 40.5 14.0 L 52.5 16.0 L 55.5 18.0 L 52.5 19.8 L 52.5 59.0 L 55.6 59.0 L 65.6 49.0 L 77.6 59.0 L 77.6 63.0 L 52.5 63.0 L 52.5 86.7625 L 52.6 86.8 L 55.9 87.9 L 59.0 89.1 L 61.9 90.6 L 64.8 92.3 L 67.5 94.2 L 70.0 96.2 L 72.5 98.4 L 74.7 100.7 L 76.9 103.2 L 77.6 107.8 L 74.9 111.5 L 70.4 112.2 L 66.7 109.5 L 65.6 107.2 Z M 170.4 138.0 L 169.2 134.5 L 168.40984716415406 132.52461795806886 L 161.1 134.0 L 150.6 136.0 L 140.5 137.7 L 137.0 138.24123706817628 L 137.0 182.6 L 125.0 188.6 L 125.0 140.0731183052063 L 121.5 140.6 L 112.7 141.8 L 104.3 142.9 L 96.4 143.9 L 88.9 144.8 L 85.84281539916992 145.1444715499878 L 83.9 148.4 L 81.8 145.6 L 79.0 133.7 L 81.0 133.6 L 88.0 133.4 L 95.5 133.2 L 103.5 132.9 L 111.9 132.5 L 120.7 132.1 L 124.03940353393554 131.92046213150024 L 125.5 129.1 L 128.5 123.8 L 131.4 118.7 L 134.3 113.8 L 137.1 109.0 L 139.7 104.3 L 142.2 99.8 L 144.6 95.5 L 146.9 91.2 L 148.44946451187133 88.02359771728516 L 148.4 88.0 L 148.7021978378296 87.50549449920655 L 148.9 87.1 L 148.93680696487428 87.12158870697021 L 149.5 86.2 L 159.3 93.2 L 160.9 96.4 L 157.03852348327638 96.4665771484375 L 156.6 97.1 L 153.7 101.2 L 150.7 105.3 L 147.5 109.5 L 144.1 113.8 L 140.5 118.1 L 136.8 122.5 L 132.8 127.0 L 128.6 131.4 L 128.29508028030395 131.69166231155396 L 130.0 131.6 L 139.8 131.1 L 150.0 130.7 L 160.7 130.3 L 167.38555727005004 130.11930923461915 L 166.2 127.6 L 164.5 124.1 L 162.6 120.7 L 160.6 117.2 L 158.5 113.7 L 156.0 110.3 L 157.3 109.0 L 160.7 111.5 L 164.2 114.2 L 167.3 117.0 L 170.3 120.0 L 173.0 123.3 L 175.6 126.6 L 177.9 130.1 L 180.0 133.8 L 182.0 137.6 L 183.7 141.5 L 183.3 146.1 L 179.9 149.1 L 175.3 148.6 L 172.3 145.2 L 171.4 141.6 Z M 115.4 154.1 L 117.2 157.2 L 113.3213020324707 157.5343705177307 L 113.1 157.9 L 110.5 161.7 L 107.8 165.3 L 104.9 168.8 L 101.8 172.2 L 98.4 175.6 L 94.9 178.8 L 91.1 181.8 L 87.1 184.7 L 82.9 187.4 L 81.7 186.0 L 84.7 182.2 L 87.6 178.3 L 90.3 174.5 L 92.9 170.8 L 95.3 167.1 L 97.5 163.5 L 99.6 159.8 L 101.4 156.2 L 103.1 152.5 L 104.22155227661133 149.8082745552063 L 104.2 149.8 L 104.4 149.3800000190735 L 104.6 148.9 L 104.62324247360229 148.91119079589845 L 105.2 147.7 Z M 163.9 174.5 L 162.3 171.0 L 160.6 167.4 L 158.8 163.9 L 156.7 160.4 L 154.5 157.0 L 152.2 153.5 L 149.8 149.9 L 147.1 146.4 L 148.3 145.1 L 152.0 147.6 L 155.7 150.2 L 159.1 153.0 L 162.3 156.0 L 165.3 159.2 L 168.2 162.5 L 170.8 166.0 L 173.3 169.6 L 175.5 173.4 L 177.6 177.3 L 177.5 181.9 L 174.3 185.1 L 169.8 185.0 L 166.5 181.8 L 165.3 178.2 Z M 110.7 116.9 L 109.4 113.7 L 107.9 110.6 L 106.3 107.5 L 104.5 104.5 L 102.5 101.5 L 100.4 98.6 L 98.1 95.6 L 95.4 92.8 L 96.4 91.3 L 99.9 93.2 L 103.4 95.2 L 106.7 97.5 L 109.7 100.0 L 112.6 102.7 L 112.65366973876954 102.75963306427002 L 113.9 99.5 L 115.2 96.2 L 116.6 92.9 L 119.2 86.5 L 120.4 83.4 L 121.6 80.4 L 122.8 77.3 L 123.54817123413086 75.25953311920166 L 123.4 75.2 L 124.4 73.2 L 134.6 79.7 L 136.4 82.8 L 132.2538914680481 83.1574231147766 L 130.8 85.3 L 128.8 88.1 L 126.7 90.9 L 124.6 93.6 L 122.4 96.4 L 120.0 99.2 L 117.6 101.9 L 115.0 104.5 L 114.61155376434326 104.93505973815918 L 115.3 105.7 L 117.8 108.8 L 120.0 112.2 L 122.1 115.7 L 124.0 119.4 L 123.8 124.0 L 120.5 127.1 L 115.9 126.9 L 112.8 123.6 L 111.8 120.2 Z M 76.1 94.5 L 74.6 90.2 L 76.6 86.1 L 77.6 85.5 L 78.8 84.5 L 80.0 82.9 L 81.3 80.8 L 82.5 78.1 L 83.5 74.9 L 84.5 71.3 L 85.5 67.2 L 86.4 62.6 L 86.8 57.6 L 88.6 57.6 L 89.2 62.6 L 89.575 65.6 L 125.0 65.6 L 125.0 42.8 L 78.7 42.8 L 78.7 38.8 L 125.0 38.8 L 125.0 13.2 L 137.0 15.2 L 140.0 17.2 L 137.0 19.0 L 137.0 38.8 L 161.2 38.8 L 171.2 28.8 L 183.2 38.8 L 183.2 42.8 L 137.0 42.8 L 137.0 65.6 L 172.6 65.6 L 178.6 60.6 L 189.6 69.6 L 184.6 72.6 L 181.18987340927123 74.02088603973388 L 180.1 75.5 L 178.5 77.5 L 176.9 79.6 L 175.1 81.8 L 171.1 86.4 L 168.8 88.8 L 166.8 91.6 L 165.3 90.6 L 166.7 87.6 L 167.6 84.5 L 168.6 81.5 L 169.5 78.7 L 170.3 76.1 L 171.0 73.6 L 171.7 71.3 L 172.08636360168458 69.6 L 89.95 69.6 L 90.1 71.8 L 90.2 75.9 L 90.0 79.7 L 89.6 83.3 L 88.9 86.6 L 87.9 89.7 L 86.4 92.5 L 84.5 95.1 L 80.2 96.5 Z " />
</g>
</svg>
