<svg xmlns="http://www.w3.org/2000/svg" xmlns:xlink="http://www.w3.org/1999/xlink" version="1.1" baseProfile="full" viewBox="0 0 200 200" width="200" height="200">
<g fill="black">
<path d="M 65.2 105.9 L 63.8 103.6 L 62.2 101.3 L 60.5 99.1 L 58.6 96.9 L 56.5 94.7 L 54.3 92.5 L 53.0 91.2541666984558 L 53.0 183.1 L 41.0 189.1 L 41.0 97.31612901687622 L 39.8 100.8 L 36.3 109.6 L 32.6 118.1 L 28.5 126.3 L 24.0 134.2 L 19.1 141.8 L 13.8 148.9 L 12.2 148.0 L 15.8 139.9 L 19.2 131.8 L 22.5 123.6 L 25.5 115.2 L 28.4 106.7 L 30.9 98.0 L 33.2 89.1 L 35.3 80.0 L 37.0 70.8 L 37.99411764144897 64.3 L 13.0 64.3 L 13.0 60.3 L 41.0 60.3 L 41.0 15.8 L 53.0 17.8 L 56.0 19.8 L 53.0 21.6 L 53.0 60.3 L 56.5 60.3 L 66.5 50.3 L 78.5 60.3 L 78.5 64.3 L 53.0 64.3 L 53.0 87.825 L 53.2 87.9 L 56.5 88.9 L 59.6 90.2 L 62.6 91.7 L 65.5 93.3 L 68.2 95.2 L 70.8 97.2 L 73.2 99.3 L 75.5 101.6 L 77.7 104.1 L 78.4 108.6 L 75.8 112.4 L 71.3 113.1 L 67.5 110.5 L 66.4 108.2 Z M 124.1 167.1 L 124.6 170.7 L 120.82043342590332 169.48513927459717 L 120.8 169.5 L 117.3 171.8 L 113.6 174.1 L 109.6 176.3 L 105.5 178.4 L 101.1 180.5 L 96.5 182.5 L 91.6 184.4 L 86.5 186.1 L 81.1 187.8 L 80.3 186.1 L 84.9 183.0 L 89.2 179.9 L 93.4 176.9 L 97.4 174.1 L 101.1 171.3 L 104.6 168.6 L 107.9 165.9 L 110.9 163.3 L 113.7 160.7 L 115.46619787216187 158.86315422058107 L 115.4 158.8 L 115.95 158.36000003814698 L 116.2 158.1 L 116.23093996047973 158.13524808883668 L 116.4 158.0 Z M 167.0 181.0 L 164.4 178.5 L 161.6 176.1 L 158.6 173.7 L 155.4 171.4 L 151.9 169.1 L 148.3 166.7 L 144.4 164.4 L 140.3 162.1 L 140.9 160.4 L 145.6 161.4 L 150.1 162.4 L 154.5 163.6 L 158.7 165.1 L 162.7 166.8 L 166.5 168.6 L 170.1 170.6 L 173.6 172.8 L 176.9 175.1 L 180.0 177.6 L 181.7 181.9 L 180.0 186.1 L 175.7 187.7 L 171.5 186.0 L 169.3 183.5 Z M 75.3 148.0 L 106.9 148.0 L 106.9 121.0 L 82.7 121.0 L 82.7 117.0 L 106.9 117.0 L 106.9 98.0 L 118.9 100.0 L 121.9 102.0 L 118.9 103.8 L 118.9 117.0 L 143.7 117.0 L 143.7 98.0 L 155.7 100.0 L 158.7 102.0 L 155.7 103.8 L 155.7 117.0 L 160.5 117.0 L 170.5 107.0 L 182.5 117.0 L 182.5 121.0 L 155.7 121.0 L 155.7 148.0 L 166.6 148.0 L 176.6 138.0 L 188.6 148.0 L 188.6 152.0 L 75.3 152.0 Z M 118.9 121.0 L 118.9 148.0 L 143.7 148.0 L 143.7 121.0 Z M 182.5 55.0 L 184.5 55.0 L 182.5 80.0 L 186.1 82.4 L 188.5 86.0 L 186.1 89.6 L 182.5 92.0 L 153.0 92.0 L 150.5 91.8 L 148.0 91.3 L 145.6 90.4 L 143.4 89.2 L 141.4 87.5 L 139.9 85.5 L 138.7 83.3 L 138.0 80.9 L 137.6 78.5 L 137.5 76.0 L 137.5 18.5 L 148.5 24.0 L 169.8 24.0 L 175.8 19.0 L 186.8 28.0 L 181.8 32.0 L 181.8 57.0 L 169.8 63.0 L 169.8 53.0 L 148.5 53.0 L 148.5 76.0 L 148.6 77.2 L 148.8 78.2 L 149.1 78.8 L 149.4 79.2 L 149.6 79.4 L 150.2 79.7 L 150.8 79.8 L 151.8 79.9 L 153.0 80.0 L 176.5 80.0 Z M 127.6 55.0 L 129.6 55.0 L 127.6 80.0 L 131.2 82.4 L 133.6 86.0 L 131.2 89.6 L 127.6 92.0 L 98.1 92.0 L 95.5 91.8 L 93.0 91.4 L 90.6 90.6 L 88.3 89.3 L 86.3 87.7 L 84.7 85.7 L 83.5 83.4 L 82.6 81.0 L 82.2 78.5 L 82.1 76.0 L 82.1 18.0 L 94.1 24.0 L 114.7 24.0 L 120.2 19.0 L 130.7 28.0 L 125.7 31.5 L 125.7 57.0 L 114.7 62.5 L 114.7 53.0 L 94.1 53.0 L 94.1 77.2 L 94.3 78.1 L 94.5 78.7 L 94.7 79.0 L 94.8 79.2 L 95.0 79.4 L 95.9 79.7 L 96.8 79.9 L 98.1 80.0 L 121.6 80.0 Z M 148.5 28.0 L 148.5 49.0 L 169.8 49.0 L 169.8 28.0 Z M 94.1 28.0 L 94.1 49.0 L 114.7 49.0 L 114.7 28.0 Z " />
</g>
</svg>
