<svg xmlns="http://www.w3.org/2000/svg" xmlns:xlink="http://www.w3.org/1999/xlink" version="1.1" baseProfile="full" viewBox="0 0 200 200" width="200" height="200">
<g fill="black">
<path d="M 71.6 100.8 L 73.6 103.3 L 74.2 107.9 L 71.5 111.5 L 66.9 112.1 L 63.3 109.4 L 62.3 107.0 L 61.1 104.7 L 59.8 102.4 L 58.4 100.2 L 56.8 97.9 L 55.1 95.7 L 53.2 93.5 L 50.4 90.5666666984558 L 50.4 183.0 L 38.4 189.0 L 38.4 97.88000001907349 L 37.8 99.7 L 34.6 108.6 L 31.0 117.1 L 27.1 125.4 L 22.9 133.5 L 18.2 141.1 L 13.1 148.4 L 11.6 147.5 L 14.8 139.4 L 18.0 131.2 L 21.1 122.9 L 23.9 114.4 L 26.5 105.8 L 28.9 97.0 L 31.1 88.1 L 33.0 78.9 L 34.6 69.5 L 35.51764707565307 63.0 L 12.4 63.0 L 12.4 59.0 L 38.4 59.0 L 38.4 14.0 L 50.4 16.0 L 53.4 18.0 L 50.4 19.8 L 50.4 59.0 L 55.81818180084228 59.0 L 64.0 50.0 L 74.0 59.0 L 74.0 63.0 L 50.4 63.0 L 50.4 86.93225803375245 L 53.4 87.9 L 56.4 89.2 L 59.2 90.7 L 62.0 92.4 L 64.6 94.2 L 67.0 96.3 L 69.4 98.5 L 70.6 99.75454549789428 L 70.6 96.0 L 122.0 96.0 L 122.0 78.2 L 86.7 78.2 L 86.7 74.2 L 122.0 74.2 L 122.0 56.4 L 72.7 56.4 L 72.7 52.4 L 122.0 52.4 L 122.0 36.6 L 88.1 36.6 L 88.1 32.6 L 122.0 32.6 L 122.0 14.8 L 134.0 16.8 L 137.0 18.8 L 134.0 20.6 L 134.0 32.6 L 155.6 32.6 L 161.6 27.6 L 172.6 36.6 L 167.6 40.6 L 167.6 52.4 L 171.87777776718139 52.4 L 178.1 45.4 L 186.1 52.4 L 186.1 56.4 L 167.6 56.4 L 167.6 80.2 L 155.6 86.2 L 155.6 78.2 L 134.0 78.2 L 134.0 96.0 L 163.4 96.0 L 173.4 86.0 L 185.4 96.0 L 185.4 100.0 L 70.83478260040283 100.0 Z M 67.8 176.5 L 84.2 176.5 L 84.2 131.0 L 96.2 137.0 L 159.8 137.0 L 165.8 132.0 L 176.8 141.0 L 171.8 145.0 L 171.8 176.5 L 173.9777777671814 176.5 L 180.2 169.5 L 188.2 176.5 L 188.2 180.5 L 67.8 180.5 Z M 96.2 141.0 L 96.2 176.5 L 109.4 176.5 L 109.4 141.0 Z M 121.4 141.0 L 121.4 176.5 L 134.6 176.5 L 134.6 141.0 Z M 146.6 141.0 L 146.6 176.5 L 159.8 176.5 L 159.8 141.0 Z M 70.7 130.0 L 70.4 125.4 L 73.4 122.0 L 75.1 121.4 L 76.7 120.7 L 78.3 119.8 L 79.9 118.5 L 81.4 117.0 L 82.8 115.1 L 84.1 112.8 L 85.4 110.2 L 86.6 107.2 L 87.1 103.9 L 88.9 104.0 L 89.0 107.5 L 89.3 110.9 L 89.2 114.2 L 88.8 117.3 L 88.0 120.4 L 86.9 123.3 L 85.4 126.0 L 83.5 128.5 L 81.3 130.7 L 78.7 132.7 L 74.1 133.0 Z M 174.6 124.3 L 173.9 122.3 L 172.9 120.2 L 171.7 118.0 L 170.1 115.6 L 168.3 113.1 L 166.3 110.5 L 164.0 107.8 L 161.1 105.2 L 162.2 103.8 L 165.5 105.7 L 168.8 107.4 L 171.9 109.2 L 174.7 111.0 L 177.3 112.9 L 179.6 114.9 L 181.7 117.0 L 183.6 119.2 L 185.2 121.5 L 186.6 123.9 L 186.2 128.5 L 182.8 131.5 L 178.2 131.1 L 175.2 127.7 L 175.0 126.1 Z M 141.5 122.4 L 141.3 120.8 L 140.9 119.0 L 140.3 117.1 L 139.4 115.0 L 138.3 112.9 L 136.9 110.6 L 135.3 108.3 L 133.1 106.2 L 134.2 104.8 L 136.8 106.5 L 139.5 107.8 L 142.0 109.4 L 144.2 111.0 L 146.3 112.8 L 148.1 114.8 L 149.8 116.9 L 151.2 119.1 L 152.3 121.5 L 153.2 124.0 L 151.9 128.4 L 147.9 130.7 L 143.5 129.3 L 141.3 125.3 L 141.5 123.9 Z M 114.3 130.7 L 110.3 128.4 L 109.0 124.0 L 109.5 122.7 L 109.9 121.3 L 110.2 119.7 L 110.3 118.1 L 110.2 116.4 L 109.9 114.5 L 109.4 112.5 L 108.7 110.4 L 107.8 108.2 L 106.3 106.2 L 107.6 105.0 L 109.5 106.7 L 111.7 108.2 L 113.6 109.8 L 115.3 111.6 L 116.8 113.6 L 118.1 115.7 L 119.2 117.9 L 120.1 120.3 L 120.6 122.8 L 120.9 125.3 L 118.7 129.3 Z M 134.0 56.4 L 134.0 74.2 L 155.6 74.2 L 155.6 56.4 Z M 134.0 36.6 L 134.0 52.4 L 155.6 52.4 L 155.6 36.6 Z " />
</g>
</svg>
