<svg xmlns="http://www.w3.org/2000/svg" xmlns:xlink="http://www.w3.org/1999/xlink" version="1.1" baseProfile="full" viewBox="0 0 200 200" width="200" height="200">
<g fill="black">
<path d="M 54.8 104.4 L 53.8 102.2 L 52.6 100.0 L 49.8 95.6 L 48.2 93.4 L 46.6 91.4235294342041 L 46.6 183.0 L 34.6 189.0 L 34.6 101.7241379737854 L 32.4 108.4 L 29.2 117.0 L 25.7 125.3 L 21.8 133.3 L 17.6 141.0 L 13.0 148.4 L 11.4 147.5 L 14.2 139.4 L 16.9 131.3 L 19.5 123.0 L 22.0 114.6 L 24.3 106.0 L 26.3 97.2 L 28.2 88.2 L 29.9 79.0 L 31.3 69.7 L 32.07011489868164 63.0 L 12.2 63.0 L 12.2 59.0 L 34.6 59.0 L 34.6 14.0 L 46.6 16.0 L 49.6 18.0 L 46.6 19.8 L 46.6 59.0 L 48.71818180084229 59.0 L 56.9 50.0 L 66.9 59.0 L 66.9 63.0 L 46.6 63.0 L 46.6 87.20689659118652 L 48.9 88.0 L 51.6 89.4 L 54.2 90.9 L 56.6 92.6 L 59.0 94.4 L 61.2 96.5 L 63.4 98.7 L 65.4 101.0 L 67.2 103.5 L 67.6 108.1 L 64.7 111.6 L 60.1 112.0 L 56.6 109.1 L 55.8 106.7 Z M 130.9 102.1 L 133.4 104.6 L 129.9625 105.85 L 127.2 116.9 L 122.9 130.4 L 117.9 142.7 L 112.3 153.6 L 106.0 163.1 L 99.0 171.3 L 91.4 178.0 L 83.2 183.2 L 74.4 186.9 L 65.2 188.8 L 64.8 187.1 L 73.0 183.3 L 80.4 178.7 L 87.2 173.0 L 93.3 166.2 L 99.0 158.3 L 104.1 149.1 L 108.6 138.7 L 112.7 127.0 L 116.2 114.1 L 118.91707839965821 100.70199251174927 L 118.9 100.7 L 119.5 97.9 Z M 157.1 161.2 L 158.5 164.5 L 154.4737075805664 164.2952733039856 L 154.3 164.5 L 151.2 167.7 L 147.9 170.8 L 144.3 173.7 L 140.4 176.6 L 136.3 179.3 L 131.9 181.9 L 127.2 184.4 L 122.2 186.7 L 116.9 188.7 L 116.0 187.2 L 120.3 183.6 L 124.4 180.1 L 128.2 176.8 L 131.7 173.5 L 135.0 170.2 L 138.0 167.0 L 140.8 163.8 L 143.2 160.6 L 145.3 157.5 L 146.6812286376953 155.24641637802125 L 146.6 155.2 L 147.7 153.7 Z M 175.5 175.2 L 174.1 172.5 L 172.6 169.8 L 171.1 167.2 L 169.5 164.7 L 167.7 162.2 L 165.9 159.8 L 164.0 157.3 L 161.8 155.3 L 162.8 153.7 L 165.6 155.2 L 168.6 156.5 L 171.4 158.2 L 174.2 160.0 L 176.8 162.1 L 179.4 164.4 L 181.8 166.9 L 184.2 169.6 L 186.4 172.5 L 188.5 175.5 L 188.9 180.1 L 186.0 183.6 L 181.5 184.0 L 177.9 181.1 L 176.7 178.1 Z M 188.3 26.0 L 188.3 30.0 L 165.52666664123535 30.0 L 164.4 32.6 L 161.6 38.4 L 160.0 41.2 L 158.4 43.9 L 156.7 46.6 L 154.9 49.1 L 153.0 51.6 L 151.0 53.9 L 150.92799997329712 54.0 L 170.7 54.0 L 176.7 49.0 L 187.7 58.0 L 182.7 62.0 L 182.7 144.0 L 170.7 150.0 L 170.7 144.0 L 145.7 144.0 L 145.7 147.0 L 133.7 153.0 L 133.7 48.0 L 145.7 54.0 L 148.13571424484252 54.0 L 148.6 52.7 L 149.3 49.7 L 151.4 41.0 L 152.6 35.2 L 153.2 32.2 L 153.57931032180787 30.0 L 128.1 30.0 L 128.1 26.0 L 166.3 26.0 L 176.3 16.0 Z M 76.4 136.0 L 88.4 136.0 L 89.6 135.9 L 90.5 135.7 L 91.4 135.4 L 91.8 135.0 L 92.1 134.1 L 92.3 133.2 L 92.4 132.0 L 92.4 80.0 L 61.4 80.0 L 61.4 76.0 L 72.6 76.0 L 72.6 29.0 L 83.6 31.0 L 86.3 33.0 L 83.6 34.723404216766355 L 83.6 76.0 L 92.9 76.0 L 92.9 13.0 L 103.9 15.0 L 106.6 17.0 L 103.9 18.723404216766358 L 103.9 42.0 L 110.9777777671814 42.0 L 117.2 35.0 L 125.2 42.0 L 125.2 46.0 L 103.9 46.0 L 103.9 76.0 L 111.2 76.0 L 121.2 66.0 L 133.2 76.0 L 133.2 80.0 L 104.4 80.0 L 107.4 82.0 L 104.4 83.8 L 104.4 132.0 L 104.2 134.5 L 103.8 137.0 L 103.0 139.4 L 101.7 141.7 L 100.1 143.7 L 98.1 145.3 L 95.8 146.6 L 93.4 147.4 L 90.9 147.8 L 88.4 148.0 L 88.4 142.0 L 76.4 139.0 Z M 88.1 94.9 L 90.8 97.4 L 87.17868518829346 98.78268384933472 L 86.7 100.8 L 85.1 106.6 L 83.2 112.3 L 81.1 117.8 L 78.7 123.2 L 76.1 128.4 L 73.3 133.5 L 70.2 138.4 L 66.7 143.1 L 62.9 147.4 L 61.3 146.5 L 63.4 141.1 L 65.4 135.9 L 67.3 130.7 L 69.1 125.5 L 70.8 120.2 L 72.2 114.9 L 73.5 109.5 L 74.6 104.0 L 75.6 98.5 L 76.3 92.9 L 76.33706455230713 92.90628213882447 L 76.6 91.0 Z M 145.7 115.0 L 145.7 140.0 L 170.7 140.0 L 170.7 115.0 Z M 145.7 87.0 L 145.7 111.0 L 170.7 111.0 L 170.7 87.0 Z M 145.7 58.0 L 145.7 83.0 L 170.7 83.0 L 170.7 58.0 Z " />
</g>
</svg>
