<svg xmlns="http://www.w3.org/2000/svg" xmlns:xlink="http://www.w3.org/1999/xlink" version="1.1" baseProfile="full" viewBox="0 0 200 200" width="200" height="200">
<g fill="black">
<path d="M 168.8 170.9 L 164.4 163.3 L 160.5 155.0 L 157.2 145.9 L 154.5 136.1 L 152.4 125.5 L 151.0 114.2 L 150.93177003860472 112.83540086746216 L 149.5 120.6 L 146.1 133.7 L 141.7 145.7 L 136.4 156.6 L 130.2 166.5 L 123.1 175.1 L 115.0 182.5 L 106.1 188.6 L 105.0 187.2 L 112.4 179.8 L 118.9 171.7 L 124.7 162.9 L 129.6 153.2 L 133.8 142.7 L 137.1 131.2 L 139.7 118.7 L 141.4 105.2 L 142.4 90.8 L 142.5 75.3 L 142.5 67.3 L 154.5 69.3 L 157.5 71.3 L 154.5 73.1 L 154.5 75.3 L 153.7 91.4 L 153.39176654815674 94.30895280838013 L 154.6 101.8 L 156.8 113.3 L 159.5 124.0 L 162.5 133.8 L 166.0 142.7 L 169.8 150.7 L 174.0 157.8 L 178.4 164.1 L 183.1 169.5 L 187.9 174.0 L 189.8 175.7 L 179.0 183.7 L 173.6 177.7 Z M 27.0 22.0 L 48.8 22.0 L 54.8 17.0 L 65.8 26.0 L 60.8 30.0 L 60.8 72.0 L 48.8 78.0 L 48.8 68.0 L 27.0 68.0 L 27.0 98.0 L 39.518181800842285 98.0 L 47.7 89.0 L 57.7 98.0 L 57.7 102.0 L 27.0 102.0 L 27.0 130.0 L 39.518181800842285 130.0 L 47.7 121.0 L 57.7 130.0 L 57.7 134.0 L 27.0 134.0 L 27.0 179.0 L 15.0 185.0 L 15.0 16.0 Z M 92.5 160.5 L 89.2 154.5 L 86.80091104507446 150.56815977096556 L 85.3 153.6 L 79.8 162.5 L 73.8 170.1 L 67.2 176.5 L 60.1 181.4 L 52.6 184.9 L 51.8 183.3 L 57.9 178.4 L 63.5 172.6 L 68.7 166.0 L 73.4 158.4 L 77.7 149.8 L 80.9993420600891 141.7990954399109 L 77.8 137.4 L 73.4 132.0 L 68.9 126.7 L 64.1 121.4 L 59.1 116.2 L 60.2 114.7 L 66.5 118.5 L 72.5 122.7 L 78.1 127.4 L 83.4 132.4 L 83.98194875717164 132.99335956573486 L 85.2 129.2 L 88.2 117.3 L 90.9 104.2 L 92.65070419311523 92.9 L 57.8 92.9 L 57.8 88.9 L 93.0 88.9 L 99.0 83.9 L 110.0 92.9 L 105.0 95.9 L 104.00311136245728 96.31537027359009 L 102.0 106.4 L 98.6 119.9 L 94.7 132.3 L 91.30491714477539 140.9420289993286 L 93.2 143.2 L 97.6 149.1 L 101.8 155.2 L 105.6 161.6 L 109.2 168.2 L 109.3 172.8 L 106.2 176.2 L 101.6 176.3 L 98.2 173.2 L 95.5 166.8 Z M 146.4 17.8 L 149.1 20.1 L 145.692036819458 21.643228626251222 L 145.0 25.4 L 143.2 33.1 L 141.2 40.9 L 138.9 48.8 L 137.0544303894043 54.2 L 174.3 54.2 L 180.3 49.2 L 191.3 58.2 L 186.3 61.2 L 184.3996440887451 61.99181489944458 L 184.2 62.5 L 182.8 65.4 L 181.1 68.5 L 179.2 71.9 L 177.0 75.6 L 174.5 79.5 L 171.7 83.7 L 168.5 88.1 L 165.2 92.8 L 163.6 92.0 L 165.7 86.6 L 167.5 81.5 L 169.2 76.9 L 170.6 72.6 L 171.8 68.7 L 172.8 65.2 L 173.6 62.0 L 174.1 59.3 L 174.25 58.2 L 135.6375 58.2 L 133.2 64.7 L 129.9 72.7 L 126.2 80.7 L 122.1 88.8 L 117.5 96.8 L 115.9 96.1 L 118.6 87.3 L 121.2 78.8 L 123.7 70.4 L 126.0 62.3 L 128.1 54.3 L 129.9 46.4 L 131.4 38.7 L 132.7 31.1 L 133.7 23.6 L 134.39000339508056 17.303719139099123 L 134.3 17.3 L 134.7 14.2 Z M 111.1 26.0 L 106.1 30.0 L 106.1 72.0 L 94.1 78.0 L 94.1 68.0 L 67.3 68.0 L 67.3 64.0 L 94.1 64.0 L 94.1 26.0 L 69.3 26.0 L 69.3 22.0 L 94.1 22.0 L 100.1 17.0 Z M 27.0 26.0 L 27.0 64.0 L 48.8 64.0 L 48.8 26.0 Z " />
</g>
</svg>
