<svg xmlns="http://www.w3.org/2000/svg" xmlns:xlink="http://www.w3.org/1999/xlink" version="1.1" baseProfile="full" viewBox="0 0 200 200" width="200" height="200">
<g fill="black">
<path d="M 46.06380567550659 104.9902024269104 L 44.5 106.1 L 41.5 107.975 L 41.5 123.06000003814697 L 42.6 122.4 L 44.6 124.9 L 46.7 127.5 L 48.7 130.5 L 50.4 133.6 L 52.0 137.1 L 53.5 140.7 L 54.8 144.5 L 56.0 148.6 L 56.9 152.03636360168457 L 56.9 127.5 L 67.9 133.0 L 78.6 133.0 L 84.1 128.0 L 93.31763086318969 135.9008264541626 L 93.4 131.7 L 93.4 126.7 L 93.43026485443116 126.70126104354858 L 93.5 124.4 L 105.4 127.2 L 106.5 128.03448276519777 L 106.5 110.16000003814698 L 101.4 112.2 L 98.46976747512818 113.20465116500854 L 96.9 117.1 L 94.3 114.6 L 89.9 103.3 L 91.8 102.9 L 95.4 102.5 L 100.61685609817505 101.75473480224609 L 101.9 97.7 L 104.4 90.1 L 106.8 82.9 L 109.3 76.0 L 109.7308156967163 74.74501514434814 L 108.5 75.8 L 104.0 75.4 L 101.0 71.9 L 100.3 68.8 L 98.9 63.0 L 98.0 60.2 L 97.1 57.5 L 96.2 55.0 L 95.1 52.4 L 92.9 47.4 L 91.4 45.3 L 92.6 44.0 L 94.8 45.7 L 97.2 47.4 L 99.5 49.3 L 100.04363632202148 49.84363632202148 L 100.8 47.4 L 101.9 43.2 L 103.0 39.3 L 104.1 35.5 L 105.1 31.9 L 106.0 28.4 L 106.9 25.1 L 107.6 21.9 L 108.3 18.9 L 108.68871107101441 17.021230030059815 L 108.6 17.0 L 108.86341466903687 16.176829242706297 L 108.9 16.0 L 108.91807231903076 16.006024074554443 L 109.4 14.5 L 120.3 19.8 L 122.5 22.6 L 118.54040403366089 23.519191932678222 L 117.5 25.6 L 115.9 28.6 L 114.2 31.7 L 112.4 35.0 L 110.4 38.3 L 108.3 41.7 L 106.0 45.1 L 103.5 48.7 L 101.65675678253174 51.464864826202394 L 103.7 53.8 L 105.6 56.3 L 107.5 59.0 L 109.2 62.0 L 110.8 65.0 L 112.14694337844848 67.77807064056397 L 113.9 62.9 L 116.0 56.7 L 118.0 50.8 L 119.8 45.2 L 121.29133853912353 40.725984287261966 L 121.2 40.7 L 122.1 38.4 L 132.8 44.0 L 134.9 46.9 L 131.23453760147095 47.607369899749756 L 130.5 49.3 L 128.0 54.8 L 125.3 60.5 L 122.5 66.4 L 119.5 72.6 L 116.3 79.0 L 112.9 85.5 L 109.3 92.3 L 105.3 99.2 L 104.08153848648071 101.25978021621704 L 105.9 101.0 L 112.9 99.8 L 116.5 99.2 L 120.0 98.5 L 123.6 98.0 L 124.05228757858276 97.88692808151245 L 124.0 97.5 L 123.4 94.0 L 122.7 90.5 L 121.9 87.1 L 121.1 83.6 L 119.9 80.3 L 121.5 79.4 L 123.8 82.2 L 126.1 85.2 L 128.1 88.3 L 129.9 91.7 L 131.6 95.3 L 133.1 99.0 L 134.4 102.9 L 135.5 107.0 L 136.5 111.1 L 137.3 115.5 L 135.9 119.8 L 131.9 121.9 L 127.5 120.5 L 125.4 116.5 L 125.3 112.5 L 125.2 108.6 L 124.9 104.8 L 124.5 101.2 L 124.4538893699646 100.85878105163575 L 121.6 102.7 L 118.5 104.540625 L 118.5 183.0 L 106.5 189.0 L 106.5 130.3529411315918 L 104.95017709732056 131.1734356880188 L 104.8 132.5 L 104.0 137.9 L 103.1 143.2 L 102.0 148.4 L 100.8 153.7 L 99.4 158.9 L 97.7 164.1 L 95.9 169.2 L 93.8 174.2 L 91.4 179.2 L 89.6 178.7 L 90.1 173.3 L 90.7 167.9 L 91.3 162.6 L 91.9 157.4 L 92.4 152.2 L 92.8 147.1 L 93.1 141.9 L 93.25524196624755 137.9413306236267 L 89.6 140.5 L 89.6 175.0 L 78.6 180.5 L 78.6 175.0 L 67.9 175.0 L 67.9 182.0 L 56.9 187.5 L 56.9 161.6 L 52.9 163.9 L 48.5 162.7 L 46.2 158.7 L 46.0 154.5 L 45.7 150.5 L 45.4 146.6 L 44.9 142.9 L 44.4 139.3 L 43.9 135.8 L 43.3 132.5 L 42.6 129.3 L 42.0 126.2 L 41.5 124.58888893127441 L 41.5 183.0 L 29.5 189.0 L 29.5 136.2444444656372 L 29.0 139.3 L 28.0 144.7 L 26.7 150.0 L 25.3 155.3 L 23.7 160.5 L 21.9 165.6 L 19.9 170.6 L 17.5 175.5 L 14.8 180.3 L 13.1 179.6 L 13.9 174.3 L 15.5 163.9 L 16.3 158.8 L 17.0 153.6 L 17.6 148.4 L 18.4 138.0 L 18.6 132.8 L 18.68080778121948 128.5979965209961 L 18.6 128.6 L 18.8 125.3 L 29.5 127.99747896194458 L 29.5 113.9714285850525 L 27.8 114.7 L 24.3 116.1 L 21.274672508239746 117.19247941970825 L 19.7 121.1 L 17.1 118.6 L 12.7 107.3 L 14.6 106.9 L 18.1 106.5 L 21.6 106.0 L 23.175 105.73000001907349 L 24.1 102.4 L 26.3 95.2 L 32.10044860839844 77.29426717758179 L 29.9 78.9 L 25.4 78.0 L 22.7 74.3 L 22.3 71.1 L 21.9 68.1 L 21.3 65.1 L 20.6 62.2 L 19.8 59.4 L 18.9 56.6 L 17.9 54.0 L 16.8 51.3 L 15.6 48.7 L 14.0 46.3 L 15.3 45.0 L 17.6 46.9 L 20.1 48.8 L 22.4 50.9 L 23.335820865631103 51.92089548110962 L 23.4 51.6 L 24.1 47.5 L 25.0 43.4 L 26.8 35.4 L 27.7 31.3 L 29.5 23.3 L 30.4 19.2 L 31.093063735961913 16.119716930389405 L 31.0 16.1 L 31.8 13.6 L 42.8 18.6 L 45.1 21.4 L 41.30739297866821 22.331517505645753 L 41.2 22.6 L 39.6 26.5 L 37.9 30.4 L 36.2 34.2 L 32.6 41.8 L 30.7 45.5 L 28.6 49.2 L 26.4 52.7 L 25.398761653900145 54.338390064239505 L 26.6 55.9 L 28.5 58.7 L 30.2 61.7 L 31.7 64.9 L 33.2 68.2 L 34.127743530273435 70.90591859817505 L 35.4 66.8 L 37.7 59.6 L 44.02323989868164 38.905760288238525 L 44.0 38.9 L 44.8 36.5 L 55.7 41.8 L 57.9 44.7 L 54.275477695465085 45.463057327270505 L 52.9 49.0 L 50.1 56.0 L 47.1 63.1 L 44.1 70.0 L 41.1 77.0 L 34.7 90.6 L 31.3 97.3 L 27.6 103.9 L 26.891749477386476 105.09284296035767 L 32.1 104.2 L 35.6 103.5 L 39.2 102.7 L 42.7 101.9 L 45.650491333007814 101.3417989730835 L 45.6 100.9 L 45.1 97.5 L 44.5 94.2 L 43.9 91.0 L 43.2 87.9 L 42.5 85.0 L 41.8 82.0 L 40.7 79.3 L 42.2 78.3 L 44.2 80.6 L 46.4 83.0 L 48.4 85.6 L 50.2 88.5 L 51.9 91.7 L 53.4 95.0 L 54.9 98.5 L 56.2 102.2 L 57.4 106.0 L 58.5 110.1 L 57.3 114.5 L 53.5 116.9 L 49.0 115.8 L 46.6 111.9 L 46.4 108.1 Z M 168.5 169.2 L 165.8 161.8 L 163.4 153.6 L 161.4 144.7 L 159.8 135.0 L 158.6721068382263 125.22492580413818 L 157.3 132.6 L 154.3 144.5 L 150.7 155.4 L 146.4 165.2 L 141.5 173.8 L 135.9 181.3 L 129.6 187.6 L 128.3 186.3 L 132.8 179.2 L 136.8 171.3 L 140.4 162.5 L 143.5 152.9 L 146.1 142.4 L 148.2 130.9 L 149.8 118.4 L 150.8 104.9 L 151.3 90.4 L 151.3 67.0 L 163.3 69.0 L 166.3 71.0 L 163.3 72.8 L 163.3 75.0 L 162.7 90.9 L 161.91332998275757 100.6678189277649 L 162.0 101.3 L 163.8 112.9 L 165.8 123.6 L 168.0 133.5 L 170.5 142.5 L 173.2 150.6 L 176.1 157.8 L 179.2 164.2 L 182.5 169.6 L 185.8 174.1 L 175.1 181.9 L 175.0 181.8 L 171.6 175.9 Z M 67.9 137.0 L 67.9 171.0 L 78.6 171.0 L 78.6 137.0 Z M 124.1 155.1 L 124.0 151.1 L 123.7 147.2 L 123.3 143.4 L 122.8 139.6 L 122.3 136.0 L 121.7 132.3 L 121.1 128.7 L 120.2 125.2 L 121.9 124.5 L 124.0 127.5 L 126.1 130.7 L 127.9 134.1 L 129.6 137.7 L 131.1 141.5 L 132.4 145.4 L 133.6 149.5 L 134.6 153.7 L 135.5 158.1 L 136.2 162.6 L 134.7 166.9 L 130.6 168.9 L 126.3 167.4 L 124.2 163.3 L 124.2 159.2 Z M 87.0 108.0 L 87.0 112.0 L 59.5 112.0 L 59.5 108.0 L 72.77777776718139 108.0 L 79.0 101.0 Z M 157.9 17.4 L 160.8 19.7 L 157.37638006210327 21.379511642456055 L 156.9 25.0 L 155.7 32.6 L 154.2 40.4 L 152.6 48.2 L 151.18717947006226 54.0 L 172.3 54.0 L 178.3 49.0 L 189.3 58.0 L 184.3 61.0 L 182.71290321350097 61.66129035949707 L 182.7 61.7 L 181.6 64.5 L 180.4 67.7 L 179.0 71.1 L 177.3 74.7 L 175.5 78.7 L 173.4 82.9 L 171.0 87.4 L 168.6 92.3 L 167.0 91.6 L 168.2 86.4 L 169.1 81.5 L 169.9 76.9 L 170.7 72.7 L 171.3 68.8 L 171.9 65.4 L 172.2 62.3 L 172.3 60.9 L 172.3 58.0 L 150.175 58.0 L 148.6 64.0 L 146.2 72.0 L 143.6 80.0 L 140.6 88.1 L 137.2 96.2 L 135.4 95.7 L 136.9 87.1 L 138.4 78.7 L 139.8 70.4 L 141.1 62.3 L 142.4 54.4 L 143.4 46.5 L 144.3 38.8 L 145.0 31.3 L 145.6 23.8 L 145.95068492889405 17.4 L 145.9 17.4 L 146.2 14.3 Z M 87.0 82.0 L 87.0 86.0 L 59.5 86.0 L 59.5 82.0 L 72.77777776718139 82.0 L 79.0 75.0 Z M 91.3 54.0 L 91.3 58.0 L 57.5 58.0 L 57.5 54.0 L 77.0777777671814 54.0 L 83.3 47.0 Z M 87.0 28.0 L 87.0 32.0 L 59.5 32.0 L 59.5 28.0 L 72.77777776718139 28.0 L 79.0 21.0 Z " />
</g>
</svg>
