<svg xmlns="http://www.w3.org/2000/svg" xmlns:xlink="http://www.w3.org/1999/xlink" version="1.1" baseProfile="full" viewBox="0 0 200 200" width="200" height="200">
<g fill="black">
<path d="M 142.8 158.0 L 152.8 158.0 L 154.0 157.9 L 154.9 157.7 L 155.5 157.5 L 155.9 157.4 L 156.0 157.2 L 156.2 157.0 L 156.4 156.7 L 156.6 156.1 L 156.7 155.2 L 156.8 154.0 L 156.8 112.0 L 128.6 112.0 L 128.6 183.0 L 116.6 189.0 L 116.6 112.0 L 88.4 112.0 L 88.4 108.0 L 156.8 108.0 L 162.8 103.0 L 173.8 112.0 L 168.8 116.0 L 168.8 154.0 L 168.6 156.5 L 168.2 159.0 L 167.4 161.4 L 166.2 163.7 L 164.5 165.7 L 162.5 167.3 L 160.2 168.6 L 157.8 169.4 L 155.3 169.8 L 152.8 170.0 L 152.8 164.0 L 142.8 161.0 Z M 162.7 75.8 L 157.3 70.4 L 152.1 64.8 L 147.1 58.8 L 142.4 52.4 L 137.8 45.7 L 133.6 38.7 L 129.7 31.2 L 128.6730571746826 28.813868045806885 L 124.6 36.7 L 119.7 45.4 L 114.4 53.6 L 108.9 61.3 L 103.1 68.6 L 97.0 75.5 L 91.0 81.5 L 91.0 83.0 L 89.28947372436524 83.0 L 84.0 87.5 L 76.9 92.6 L 75.8 91.3 L 81.3 84.8 L 82.75074625015259 83.0 L 64.8 83.0 L 64.8 151.78505744934083 L 65.5 151.6 L 74.7 149.2 L 84.3 146.6 L 94.4 144.1 L 95.0 145.8 L 85.6 150.2 L 76.4 154.2 L 67.6 157.9 L 59.1 161.2 L 50.9 164.2 L 43.0 167.0 L 35.5 169.5 L 28.4 171.8 L 21.6 173.8 L 19.1 174.49230766296387 L 17.7 178.1 L 15.1 175.6 L 10.6 164.3 L 12.5 163.9 L 18.9 162.7 L 25.7 161.4 L 26.2 161.2888889312744 L 26.2 56.0 L 38.2 58.0 L 41.2 60.0 L 38.2 61.8 L 38.2 158.59866666793823 L 40.4 158.1 L 48.4 156.1 L 52.8 154.94761905670165 L 52.8 14.0 L 64.8 16.0 L 67.8 18.0 L 64.8 19.8 L 64.8 79.0 L 80.5 79.0 L 85.0 73.0 L 88.17704916000366 76.17704916000366 L 92.0 71.2 L 97.1 64.1 L 101.9 56.5 L 106.5 48.7 L 110.9 40.5 L 115.1 31.9 L 119.0 22.9 L 122.33717670440674 14.51196117401123 L 122.3 14.5 L 123.2 12.3 L 133.8 18.2 L 135.8 21.1 L 132.1398057937622 21.66796112060547 L 130.35369129180907 25.39895601272583 L 133.3 29.0 L 138.5 35.3 L 143.6 41.4 L 148.8 47.1 L 154.1 52.6 L 159.4 57.6 L 164.8 62.4 L 170.3 66.8 L 175.9 70.8 L 181.6 74.5 L 185.1 76.9 L 174.1 85.4 L 168.3 80.8 Z M 158.8 80.0 L 158.8 84.0 L 98.5 84.0 L 98.5 80.0 L 136.8 80.0 L 146.8 70.0 Z " />
</g>
</svg>
