<svg xmlns="http://www.w3.org/2000/svg" xmlns:xlink="http://www.w3.org/1999/xlink" version="1.1" baseProfile="full" viewBox="0 0 200 200" width="200" height="200">
<g fill="black">
<path d="M 36.8 119.8 L 36.1 117.2 L 35.3 114.7 L 34.3 112.3 L 33.1 109.9 L 31.7 107.6 L 30.1 105.4 L 28.409835433959962 103.240345287323 L 28.0 104.1 L 23.5 112.2 L 18.5 119.7 L 13.1 126.5 L 11.6 125.4 L 15.2 117.7 L 18.7 109.8 L 22.0 101.5 L 25.0 92.8 L 27.7 83.6 L 30.1 74.1 L 32.2 64.1 L 34.0 53.6 L 35.5 42.7 L 36.39439249038696 34.0 L 12.3 34.0 L 12.3 30.0 L 53.2 30.0 L 63.2 20.0 L 75.2 30.0 L 75.2 34.0 L 48.384615421295166 34.0 L 46.8 44.3 L 44.6 55.6 L 42.0 66.3 L 41.23235292434693 69.0 L 58.1 69.0 L 64.1 64.0 L 75.1 73.0 L 70.1 76.0 L 69.48825950622559 76.254891872406 L 67.9 88.6 L 64.9 104.5 L 61.2 119.4 L 56.7 133.1 L 51.3 145.7 L 45.2 157.0 L 38.3 167.2 L 30.6 176.1 L 22.1 183.6 L 12.8 189.7 L 11.8 188.2 L 19.6 180.8 L 26.6 172.5 L 32.9 163.4 L 38.6 153.4 L 43.6 142.2 L 47.9 130.1 L 51.5 116.8 L 54.4 102.5 L 56.6 87.0 L 57.86506023406982 73.0 L 40.09509801864624 73.0 L 39.1 76.5 L 35.8 86.3 L 32.1 95.5 L 29.534621715545654 100.88103733062744 L 29.8 101.0 L 32.7 102.2 L 35.4 103.8 L 38.0 105.7 L 40.4 107.9 L 42.6 110.4 L 44.6 113.1 L 46.4 116.0 L 47.9 119.2 L 49.3 122.7 L 48.5 127.2 L 44.8 129.9 L 40.3 129.1 L 37.6 125.4 L 37.3 122.5 Z M 70.5 139.4 L 75.2 137.8 L 79.2 136.4938775062561 L 79.2 32.1 L 88.53421049118042 36.76710529327393 L 91.1 34.8 L 94.2 32.5 L 97.4 30.3 L 100.4 28.2 L 103.5 26.0 L 106.6 23.7 L 112.6 19.3 L 114.85396823883056 17.571957683563234 L 114.8 17.5 L 114.86205997467042 17.56575403213501 L 115.6 17.0 L 118.1985652923584 21.100860786437988 L 123.2 26.4 L 123.3 29.9 L 119.59163990020753 28.33858518600464 L 118.5 28.9 L 115.0 30.6 L 111.4 32.2 L 104.2 35.2 L 100.6 36.5 L 96.9 37.8 L 93.1 38.9 L 91.2 39.36216220855713 L 91.2 64.4 L 102.6777777671814 64.4 L 108.9 57.4 L 116.9 64.4 L 116.9 68.4 L 91.2 68.4 L 91.2 96.6 L 102.6777777671814 96.6 L 108.9 89.6 L 116.9 96.6 L 116.9 100.6 L 91.2 100.6 L 91.2 132.51132078170775 L 95.6 131.1 L 101.1 129.4 L 106.8 127.7 L 112.7 126.0 L 118.8 124.4 L 125.1 123.1 L 125.8 124.7 L 120.2 128.0 L 114.7 131.0 L 109.3 133.8 L 103.9 136.4 L 98.8 139.0 L 93.7 141.4 L 91.2 142.65 L 91.2 183.3 L 79.2 189.3 L 79.2 148.45 L 78.865625 148.6171875 L 78.1 152.5 L 75.1 150.5 L 68.6 140.2 Z M 163.4 175.8 L 156.7 170.1 L 150.90439052581786 163.61677589416504 L 145.7 169.5 L 138.1 176.2 L 130.0 181.7 L 121.2 185.9 L 111.8 188.8 L 111.3 187.1 L 119.5 182.5 L 127.0 177.3 L 133.8 171.3 L 140.0 164.4 L 145.7 156.7 L 145.9193952560425 156.32264013290404 L 145.7 156.0 L 141.4 147.7 L 137.9 138.5 L 135.2 128.5 L 133.4 117.7 L 132.66206893920898 107.0 L 125.5 107.0 L 125.5 103.0 L 164.9 103.0 L 170.9 98.0 L 181.9 107.0 L 176.9 110.0 L 175.65486164093016 110.51880769729614 L 173.3 119.4 L 169.1 131.5 L 164.3 142.6 L 158.8 152.7 L 157.1123465538025 155.1498194694519 L 158.6 156.9 L 164.1 161.9 L 170.0 166.0 L 176.4 169.3 L 183.3 171.7 L 190.8 174.1 L 179.2 184.2 L 170.9 180.5 Z M 134.7351351737976 107.0 L 137.5 116.9 L 140.9 126.9 L 144.7 135.9 L 148.9 143.9 L 151.09968280792236 147.2473433494568 L 155.2 138.5 L 159.0 127.9 L 162.3 116.3 L 164.36666669845582 107.0 Z M 142.4 26.0 L 158.3 26.0 L 164.3 21.0 L 175.3 30.0 L 170.3 34.0 L 170.3 73.0 L 170.2 74.2 L 170.3 75.1 L 170.4 75.8 L 170.5 76.2 L 170.7 76.6 L 170.9 76.9 L 171.2 77.2 L 171.9 77.5 L 172.9 77.8 L 174.3 78.0 L 178.7 78.0 L 183.7 61.0 L 185.7 61.0 L 183.7 78.0 L 186.7 80.0 L 188.7 83.0 L 186.7 86.0 L 183.7 88.0 L 174.3 88.0 L 171.8 87.9 L 169.4 87.6 L 167.1 86.9 L 164.9 85.8 L 162.9 84.3 L 161.2 82.5 L 159.9 80.3 L 159.0 78.0 L 158.5 75.5 L 158.3 73.0 L 158.3 30.0 L 142.4 30.0 L 142.4 52.0 L 141.9 57.9 L 141.0 63.6 L 139.6 69.1 L 137.8 74.4 L 135.6 79.5 L 133.0 84.3 L 130.0 88.9 L 126.6 93.2 L 122.7 97.1 L 118.3 100.6 L 117.0 99.3 L 119.7 94.7 L 122.2 90.1 L 124.4 85.6 L 126.2 81.0 L 127.7 76.4 L 128.9 71.7 L 129.8 67.0 L 130.3 62.1 L 130.5 57.1 L 130.4 52.0 L 130.4 20.0 Z " />
</g>
</svg>
