<svg xmlns="http://www.w3.org/2000/svg" xmlns:xlink="http://www.w3.org/1999/xlink" version="1.1" baseProfile="full" viewBox="0 0 200 200" width="200" height="200">
<g fill="black">
<path d="M 88.55882349014283 27.87941179275513 L 92.3 27.1 L 101.8 25.2 L 111.1 23.6 L 120.2 22.0 L 129.1 20.5 L 137.8 19.0 L 146.3 17.6 L 154.7 16.1 L 162.8 14.6 L 169.7177269935608 13.374073696136474 L 169.7 13.3 L 169.77712144851685 13.363548088073731 L 170.7 13.2 L 170.86121282577514 14.256839370727539 L 182.2 23.6 L 182.6 26.6 L 178.04061489105226 24.200323581695557 L 172.5 25.0 L 164.4 25.9 L 156.1 26.7 L 147.6 27.5 L 139.0 28.3 L 130.1 28.9 L 121.1 29.6 L 111.8 30.1 L 102.4 30.6 L 92.7 30.8 L 88.8 30.8 L 88.8 47.0 L 167.7 47.0 L 173.7 42.0 L 184.7 51.0 L 179.7 55.0 L 179.7 81.0 L 167.7 87.0 L 167.7 77.0 L 88.8 77.0 L 88.8 86.0 L 88.1 99.9 L 86.6 113.1 L 84.4 125.5 L 81.3 137.1 L 77.5 147.9 L 72.8 157.9 L 67.4 167.0 L 61.1 175.2 L 54.0 182.5 L 46.1 188.6 L 45.0 187.3 L 51.2 179.9 L 56.8 172.0 L 61.7 163.6 L 66.0 154.6 L 69.5 145.0 L 72.3 134.7 L 74.5 123.6 L 76.0 111.8 L 76.7 99.3 L 76.8 86.0 L 76.8 22.0 Z M 102.4 176.1 L 122.4 176.1 L 123.6 176.0 L 124.5 175.8 L 125.4 175.5 L 125.8 175.1 L 126.0 174.8 L 126.1 174.2 L 126.3 173.3 L 126.4 172.1 L 126.4 117.5 L 123.4 119.3 L 122.16996583938598 119.81251420974732 L 121.2 123.6 L 118.4 131.4 L 115.1 138.7 L 111.3 145.5 L 106.9 151.8 L 101.9 157.5 L 96.4 162.7 L 90.4 167.3 L 83.8 171.2 L 76.7 174.4 L 75.8 172.8 L 81.7 168.0 L 87.0 163.1 L 91.8 158.0 L 96.1 152.7 L 99.9 147.0 L 103.2 141.0 L 106.0 134.6 L 108.3 127.9 L 110.1 120.7 L 110.92133331298828 116.3 L 89.4 116.3 L 89.4 112.3 L 111.4 112.3 L 117.4 107.3 L 126.4 114.66363639831543 L 126.4 80.0 L 138.4 82.0 L 141.4 84.0 L 138.4 85.8 L 138.4 90.65217390060425 L 140.3 100.4 L 142.9 111.2 L 146.0 121.0 L 148.31213388442993 126.78033475875854 L 148.4 126.7 L 151.5 123.4 L 154.6 120.3 L 157.4 117.4 L 160.1 114.6 L 162.5 111.9 L 164.8 109.4 L 166.9 106.9 L 168.7 104.6 L 169.67507600784302 103.25927047729492 L 169.6 103.2 L 170.0333333015442 102.76666669845581 L 170.3 102.4 L 170.35146198272705 102.44853801727295 L 170.7 102.1 L 179.1 110.7 L 179.9 114.2 L 175.77576789855956 113.25938568115234 L 174.1 114.6 L 171.3 116.6 L 168.3 118.6 L 165.1 120.7 L 161.7 122.8 L 158.1 124.9 L 154.3 127.1 L 150.2 129.1 L 149.4125 129.53125 L 149.6 130.0 L 153.8 137.9 L 158.6 145.0 L 163.8 151.2 L 169.7 156.5 L 176.1 161.0 L 183.0 164.7 L 188.4 167.4 L 177.1 176.4 L 169.0 171.3 L 161.9 165.3 L 155.5 158.5 L 150.1 150.8 L 145.5 142.3 L 141.9 133.0 L 139.0 123.1 L 138.4 119.72105264663696 L 138.4 172.1 L 138.2 174.6 L 137.8 177.1 L 137.0 179.5 L 135.8 181.8 L 134.1 183.8 L 132.1 185.5 L 129.8 186.7 L 127.4 187.5 L 124.9 187.9 L 122.4 188.1 L 122.4 182.1 L 102.4 179.1 Z M 36.8 186.9 L 32.8 184.8 L 31.3 180.5 L 31.9 173.5 L 32.0 167.1 L 31.4 161.3 L 30.4 156.1 L 28.9 151.5 L 27.373366832733154 148.4467336654663 L 27.2 148.4 L 27.26774196624756 148.23548383712767 L 26.8 147.3 L 24.1 143.6 L 20.9 140.2 L 16.9 137.0 L 12.2 134.1 L 12.7 132.4 L 18.5 133.6 L 23.9 135.7 L 28.7 138.8 L 30.595529747009277 140.60526638031007 L 33.1 135.5 L 36.4 129.0 L 40.2 121.4 L 44.8 112.7 L 50.0 102.8 L 55.9 91.8 L 62.6 79.7 L 70.1 66.6 L 71.7 67.3 L 66.0 81.4 L 60.7 94.1 L 55.9 105.6 L 51.6 115.9 L 47.9 125.0 L 44.9 132.8 L 42.4 139.4 L 40.5 144.8 L 39.3 148.9 L 38.7 151.5 L 38.33542242050171 151.4017225265503 L 39.2 153.1 L 41.3 159.3 L 42.6 166.1 L 43.3 173.5 L 43.3 181.4 L 41.2 185.5 Z M 31.7 83.5 L 30.3 81.5 L 28.5 79.4 L 26.4 77.4 L 23.9 75.3 L 21.1 73.2 L 17.9 71.1 L 14.4 69.0 L 10.5 67.1 L 11.1 65.4 L 15.4 66.3 L 19.6 67.1 L 23.5 68.2 L 27.2 69.4 L 30.6 70.9 L 33.8 72.5 L 36.7 74.4 L 39.4 76.5 L 41.9 78.8 L 44.0 81.3 L 44.6 85.9 L 41.9 89.5 L 37.4 90.1 L 33.7 87.4 L 32.9 85.5 Z M 88.8 51.0 L 88.8 73.0 L 167.7 73.0 L 167.7 51.0 Z M 46.3 37.6 L 44.8 35.5 L 43.0 33.4 L 40.9 31.4 L 38.6 29.3 L 35.9 27.2 L 33.0 25.1 L 29.8 22.9 L 26.2 21.1 L 26.8 19.4 L 30.8 20.4 L 34.7 21.2 L 38.4 22.2 L 41.9 23.5 L 45.2 24.9 L 48.3 26.6 L 51.2 28.4 L 53.9 30.5 L 56.4 32.7 L 58.6 35.2 L 59.4 39.7 L 56.9 43.5 L 52.4 44.2 L 48.6 41.7 L 47.6 39.7 Z " />
</g>
</svg>
