<svg xmlns="http://www.w3.org/2000/svg" xmlns:xlink="http://www.w3.org/1999/xlink" version="1.1" baseProfile="full" viewBox="0 0 200 200" width="200" height="200">
<g fill="black">
<path d="M 64.1 176.7 L 120.5 176.7 L 120.5 146.4 L 77.9 146.4 L 77.9 142.4 L 120.5 142.4 L 120.5 112.6 L 71.4 112.6 L 71.4 108.6 L 159.6 108.6 L 169.6 98.6 L 181.6 108.6 L 181.6 112.6 L 132.5 112.6 L 132.5 142.4 L 153.0 142.4 L 163.0 132.4 L 175.0 142.4 L 175.0 146.4 L 132.5 146.4 L 132.5 176.7 L 166.8 176.7 L 176.8 166.7 L 188.8 176.7 L 188.8 180.7 L 64.1 180.7 Z M 117.4 54.7 L 120.1 57.1 L 116.46040878295898 58.67944526672363 L 115.7 61.9 L 113.3 68.6 L 110.2 74.8 L 106.3 80.4 L 101.7 85.5 L 96.5 90.0 L 90.6 94.0 L 84.2 97.3 L 77.1 99.9 L 69.4 101.8 L 68.8 100.1 L 75.5 96.4 L 81.6 92.6 L 86.9 88.6 L 91.5 84.3 L 95.4 79.9 L 98.7 75.1 L 101.3 70.1 L 103.3 64.8 L 104.7 59.2 L 105.5 53.1 L 105.53274631500244 53.10440282821655 L 105.8 51.1 Z M 147.5 91.9 L 145.1 91.6 L 142.8 90.9 L 140.6 89.8 L 138.6 88.3 L 136.9 86.5 L 135.6 84.3 L 134.7 82.0 L 134.2 79.5 L 134.0 77.0 L 134.0 45.6 L 82.2384614944458 45.6 L 82.4 48.4 L 82.4 53.2 L 82.2 57.7 L 81.6 61.8 L 80.8 65.6 L 79.7 69.0 L 78.1 72.2 L 76.1 75.1 L 71.8 76.7 L 69.13707571029663 75.55874671936036 L 66.9 81.4 L 61.9 94.1 L 57.4 105.6 L 53.3 115.8 L 49.8 124.9 L 46.9 132.7 L 44.6 139.3 L 42.8 144.7 L 41.7 148.8 L 41.2 151.5 L 40.67829103469849 151.3617693901062 L 41.5 153.1 L 43.5 159.3 L 44.8 166.1 L 45.5 173.5 L 45.5 181.4 L 43.4 185.5 L 39.1 186.9 L 35.0 184.8 L 33.5 180.5 L 34.1 173.5 L 34.1 167.0 L 33.7 161.3 L 32.7 156.1 L 31.3 151.4 L 29.886545372009277 148.50241804122925 L 29.5 148.4 L 29.656564044952393 148.03095626831055 L 29.3 147.3 L 26.8 143.5 L 23.8 140.1 L 20.1 137.0 L 15.6 134.1 L 16.2 132.4 L 21.7 133.6 L 26.9 135.8 L 31.5 138.9 L 33.02151899337768 140.42151899337767 L 35.3 135.5 L 38.4 129.1 L 42.1 121.5 L 46.4 112.8 L 51.4 102.9 L 57.0 91.9 L 63.4 79.8 L 66.98064517974854 73.23548383712769 L 66.0 70.6 L 67.8 66.4 L 69.0 65.6 L 70.3 64.1 L 71.7 62.0 L 73.0 59.3 L 74.3 56.1 L 75.4 52.3 L 76.5 47.9 L 77.4 43.0 L 78.4 37.6 L 79.0 31.7 L 80.8 31.7 L 81.5 37.7 L 81.9254545211792 41.6 L 120.5 41.6 L 120.5 13.0 L 132.5 15.0 L 135.5 17.0 L 132.5 18.8 L 132.5 41.6 L 171.8 41.6 L 177.8 36.6 L 188.8 45.6 L 183.8 48.6 L 180.8804123878479 49.81649484634399 L 180.7 50.1 L 179.2 52.4 L 177.5 54.8 L 175.8 57.3 L 173.9 60.0 L 171.9 62.7 L 169.7 65.5 L 167.3 68.4 L 165.0 71.6 L 163.5 70.7 L 164.9 67.1 L 166.0 63.5 L 167.0 60.2 L 168.0 57.0 L 168.9 54.0 L 169.8 51.1 L 170.5 48.4 L 171.2 45.9 L 171.26521739959716 45.6 L 146.0 45.6 L 146.0 77.0 L 145.9 78.2 L 146.0 79.1 L 146.1 79.8 L 146.3 80.6 L 146.5 80.9 L 146.9 81.2 L 147.6 81.5 L 148.6 81.8 L 150.0 82.0 L 174.1 82.0 L 179.1 65.0 L 181.1 65.0 L 179.1 82.0 L 182.1 84.0 L 184.1 87.0 L 182.1 90.0 L 179.1 92.0 L 150.0 92.0 Z M 33.9 83.4 L 32.6 81.4 L 30.9 79.4 L 28.9 77.3 L 26.6 75.2 L 24.0 73.2 L 21.0 71.1 L 17.7 68.9 L 14.0 67.1 L 14.6 65.4 L 18.7 66.4 L 22.7 67.2 L 26.5 68.2 L 30.0 69.5 L 33.3 70.9 L 36.3 72.6 L 39.1 74.5 L 41.7 76.5 L 44.1 78.9 L 46.2 81.4 L 46.7 85.9 L 43.9 89.6 L 39.3 90.1 L 35.7 87.3 L 35.0 85.4 Z M 47.8 37.5 L 46.4 35.4 L 44.7 33.3 L 42.8 31.3 L 40.6 29.2 L 38.1 27.1 L 35.3 25.1 L 32.3 22.9 L 28.9 21.1 L 29.5 19.4 L 33.4 20.4 L 37.1 21.2 L 40.7 22.3 L 44.0 23.6 L 47.2 25.0 L 50.2 26.7 L 53.0 28.5 L 55.6 30.5 L 57.9 32.8 L 60.1 35.2 L 60.7 39.8 L 58.1 43.5 L 53.6 44.2 L 49.9 41.5 L 49.0 39.5 Z " />
</g>
</svg>
