<svg xmlns="http://www.w3.org/2000/svg" xmlns:xlink="http://www.w3.org/1999/xlink" version="1.1" baseProfile="full" viewBox="0 0 200 200" width="200" height="200">
<g fill="black">
<path d="M 91.0 144.0 L 156.0 144.0 L 162.0 139.0 L 173.0 148.0 L 168.0 152.0 L 168.0 181.0 L 156.0 187.0 L 156.0 179.0 L 91.0 179.0 L 91.0 182.0 L 79.0 188.0 L 79.0 138.0 Z M 37.7 186.9 L 33.7 184.8 L 32.2 180.5 L 32.8 173.5 L 32.8 167.1 L 32.3 161.3 L 31.3 156.1 L 29.9 151.4 L 28.472405338287352 148.47343101501465 L 28.2 148.4 L 28.3056999206543 148.13168487548828 L 27.9 147.3 L 25.3 143.5 L 22.2 140.1 L 18.4 137.0 L 13.8 134.1 L 14.4 132.4 L 20.0 133.6 L 25.3 135.7 L 29.9 138.9 L 31.558267974853514 140.47737684249878 L 34.0 135.5 L 37.1 129.1 L 45.3 112.7 L 50.3 102.9 L 56.1 91.9 L 62.6 79.8 L 69.9 66.6 L 71.6 67.3 L 66.1 81.4 L 61.0 94.1 L 56.3 105.6 L 52.2 115.9 L 48.6 124.9 L 45.6 132.8 L 43.2 139.4 L 41.4 144.7 L 40.3 148.8 L 39.7 151.5 L 39.33542242050171 151.4017225265503 L 40.2 153.1 L 42.2 159.3 L 43.5 166.1 L 44.2 173.5 L 44.2 181.4 L 42.0 185.5 Z M 91.0 148.0 L 91.0 175.0 L 156.0 175.0 L 156.0 148.0 Z M 92.0 72.0 L 154.0 72.0 L 160.0 67.0 L 171.0 76.0 L 166.0 80.0 L 166.0 105.0 L 154.0 111.0 L 154.0 101.0 L 144.43943662643431 101.0 L 152.5 106.9 L 154.0 110.2 L 149.79523811340331 110.2 L 148.8 111.3 L 147.0 113.5 L 145.1 115.6 L 143.2 117.6 L 141.3 119.7 L 139.4 121.7 L 137.5 123.6 L 135.86666669845582 125.0 L 169.8181818008423 125.0 L 178.0 116.0 L 188.0 125.0 L 188.0 129.0 L 60.0 129.0 L 60.0 125.0 L 132.8875 125.0 L 133.3 124.1 L 134.1 121.4 L 135.0 118.8 L 135.9 116.3 L 137.9 111.1 L 141.93311614990233 101.56718006134034 L 141.8 101.5 L 142.09411764144897 101.0 L 92.0 101.0 L 92.0 108.0 L 80.0 114.0 L 80.0 66.0 Z M 102.2 115.7 L 101.9 114.0 L 100.9 110.6 L 100.2 108.7 L 99.4 106.8 L 98.5 104.9 L 97.1 103.3 L 98.3 101.9 L 100.0 103.3 L 102.1 104.4 L 104.0 105.6 L 105.8 107.0 L 107.5 108.5 L 109.0 110.1 L 110.5 111.8 L 111.8 113.6 L 113.0 115.5 L 114.0 117.6 L 113.3 122.1 L 109.7 124.9 L 105.2 124.1 L 102.4 120.5 L 102.4 117.3 Z M 92.0 76.0 L 92.0 97.0 L 154.0 97.0 L 154.0 76.0 Z M 32.6 83.4 L 31.2 81.4 L 29.5 79.4 L 27.5 77.3 L 25.1 75.3 L 22.4 73.2 L 19.4 71.1 L 16.0 68.9 L 12.2 67.1 L 12.8 65.4 L 17.0 66.4 L 21.0 67.2 L 24.8 68.2 L 28.4 69.5 L 31.8 70.9 L 34.9 72.6 L 37.7 74.4 L 40.4 76.5 L 42.8 78.8 L 44.9 81.4 L 45.4 85.9 L 42.6 89.6 L 38.1 90.1 L 34.5 87.3 L 33.7 85.4 Z M 76.0 55.0 L 118.0 55.0 L 118.0 38.0 L 67.0 38.0 L 67.0 34.0 L 118.0 34.0 L 118.0 13.0 L 130.0 15.0 L 133.0 17.0 L 130.0 18.8 L 130.0 34.0 L 159.0 34.0 L 169.0 24.0 L 181.0 34.0 L 181.0 38.0 L 130.0 38.0 L 130.0 55.0 L 154.8181818008423 55.0 L 163.0 46.0 L 173.0 55.0 L 173.0 59.0 L 76.0 59.0 Z M 46.8 37.5 L 45.3 35.5 L 43.6 33.4 L 41.6 31.3 L 39.3 29.2 L 36.8 27.2 L 34.0 25.1 L 30.9 22.9 L 27.4 21.1 L 28.0 19.4 L 31.9 20.4 L 35.7 21.2 L 39.3 22.3 L 42.8 23.5 L 46.0 25.0 L 49.0 26.6 L 51.8 28.5 L 54.4 30.5 L 56.8 32.8 L 59.0 35.2 L 59.7 39.7 L 57.1 43.5 L 52.6 44.2 L 48.9 41.6 L 47.9 39.6 Z " />
</g>
</svg>
