<svg xmlns="http://www.w3.org/2000/svg" xmlns:xlink="http://www.w3.org/1999/xlink" version="1.1" baseProfile="full" viewBox="0 0 200 200" width="200" height="200">
<g fill="black">
<path d="M 93.2 139.0 L 155.7 139.0 L 161.7 134.0 L 172.7 143.0 L 167.7 147.0 L 167.7 180.0 L 155.7 186.0 L 155.7 176.0 L 93.2 176.0 L 93.2 183.0 L 81.2 189.0 L 81.2 133.0 Z M 36.6 186.9 L 32.5 184.8 L 31.1 180.5 L 31.6 173.5 L 31.7 167.0 L 31.2 161.2 L 30.3 156.0 L 28.8 151.4 L 27.489549160003662 148.5032138824463 L 27.1 148.4 L 27.265925884246826 148.00888891220092 L 26.9 147.2 L 24.5 143.5 L 21.5 140.1 L 17.8 137.0 L 13.5 134.1 L 14.0 132.4 L 19.5 133.6 L 24.6 135.8 L 29.2 138.9 L 30.588461494445802 140.2884614944458 L 32.8 135.6 L 35.9 129.1 L 39.5 121.5 L 43.8 112.8 L 48.7 102.9 L 54.3 91.9 L 60.7 79.8 L 67.8 66.6 L 69.4 67.3 L 64.1 81.3 L 59.2 94.1 L 54.7 105.6 L 50.7 115.8 L 47.3 124.9 L 44.4 132.7 L 42.1 139.3 L 40.4 144.7 L 39.3 148.8 L 38.8 151.5 L 38.22424945831299 151.34745073318481 L 39.1 153.2 L 41.1 159.3 L 42.4 166.1 L 43.0 173.5 L 43.0 181.4 L 40.9 185.5 Z M 93.2 143.0 L 93.2 172.0 L 155.7 172.0 L 155.7 143.0 Z M 60.6 119.0 L 95.18888893127442 119.0 L 93.4 116.7 L 93.1 114.6 L 92.8 112.6 L 92.3 110.6 L 91.6 108.6 L 90.7 106.7 L 89.7 104.7 L 88.5 102.8 L 87.1 100.8 L 85.5 98.8 L 83.4 97.2 L 84.2 95.6 L 86.7 96.8 L 89.4 97.7 L 91.9 98.9 L 94.2 100.4 L 96.4 102.0 L 98.5 103.9 L 100.4 106.0 L 102.1 108.3 L 103.6 110.8 L 104.9 113.4 L 104.3 118.0 L 103.05 119.0 L 118.5 119.0 L 118.5 91.0 L 64.8 91.0 L 64.8 87.0 L 118.5 87.0 L 118.5 69.0 L 79.7 69.0 L 79.7 65.0 L 118.5 65.0 L 118.5 47.0 L 68.0 47.0 L 68.0 43.0 L 136.3324324607849 43.0 L 137.7 40.7 L 139.7 36.9 L 141.7 33.4 L 143.6 30.0 L 145.4 26.8 L 147.1 23.7 L 148.7 20.7 L 150.3 17.9 L 152.55703706741332 13.38592596054077 L 152.4 13.3 L 153.5 11.7 L 163.0 19.1 L 164.4 22.4 L 160.25020923614503 22.256903743743898 L 158.9 23.8 L 156.6 26.3 L 154.2 28.9 L 151.7 31.5 L 146.2 37.0 L 143.2 39.7 L 140.0 42.5 L 139.48333330154418 43.0 L 158.9 43.0 L 168.9 33.0 L 180.9 43.0 L 180.9 47.0 L 130.5 47.0 L 130.5 65.0 L 151.01818180084229 65.0 L 159.2 56.0 L 169.2 65.0 L 169.2 69.0 L 130.5 69.0 L 130.5 87.0 L 162.1 87.0 L 172.1 77.0 L 184.1 87.0 L 184.1 91.0 L 130.5 91.0 L 130.5 119.0 L 144.24347829818726 119.0 L 145.4 117.1 L 146.5 114.6 L 147.6 112.0 L 150.0 107.0 L 152.4 101.8 L 153.6 99.1 L 154.9 96.4 L 155.71798133850098 94.5595419883728 L 155.6 94.5 L 156.6 92.8 L 166.3 99.9 L 167.9 103.2 L 163.6043478012085 103.2 L 160.3 107.0 L 156.1 111.4 L 154.0 113.4 L 151.9 115.3 L 149.7 117.1 L 147.4 118.7 L 147.0666666984558 119.0 L 166.4 119.0 L 176.4 109.0 L 188.4 119.0 L 188.4 123.0 L 60.6 123.0 Z M 31.5 83.4 L 30.2 81.4 L 28.5 79.3 L 26.6 77.3 L 24.3 75.2 L 21.7 73.2 L 18.8 71.1 L 15.6 68.9 L 11.9 67.1 L 12.5 65.4 L 16.5 66.4 L 20.5 67.2 L 24.2 68.2 L 27.7 69.5 L 30.9 71.0 L 34.0 72.6 L 36.8 74.5 L 39.3 76.6 L 41.7 78.9 L 43.7 81.4 L 44.2 86.0 L 41.4 89.6 L 36.8 90.0 L 33.2 87.2 L 32.5 85.3 Z M 45.2 37.4 L 43.8 35.4 L 42.2 33.3 L 40.3 31.3 L 38.1 29.2 L 35.6 27.1 L 32.9 25.0 L 30.0 22.9 L 26.6 21.1 L 27.2 19.4 L 31.0 20.4 L 34.7 21.2 L 38.2 22.3 L 41.6 23.6 L 44.7 25.0 L 47.6 26.7 L 50.4 28.5 L 53.0 30.6 L 55.3 32.8 L 57.4 35.3 L 58.1 39.8 L 55.4 43.5 L 50.9 44.2 L 47.2 41.5 L 46.3 39.5 Z M 97.3 34.4 L 96.8 32.3 L 96.0 30.2 L 95.0 28.0 L 93.7 25.7 L 92.1 23.4 L 90.2 21.0 L 88.1 18.4 L 85.4 16.2 L 86.4 14.7 L 89.5 16.4 L 92.7 17.8 L 95.6 19.4 L 98.3 21.2 L 100.8 23.2 L 103.0 25.4 L 105.0 27.7 L 106.8 30.2 L 108.3 32.9 L 109.5 35.8 L 108.6 40.2 L 104.8 42.9 L 100.4 42.0 L 97.7 38.3 L 97.6 36.4 Z " />
</g>
</svg>
