<svg xmlns="http://www.w3.org/2000/svg" xmlns:xlink="http://www.w3.org/1999/xlink" version="1.1" baseProfile="full" viewBox="0 0 200 200" width="200" height="200">
<g fill="black">
<path d="M 71.5 180.0 L 60.5 185.5 L 60.5 96.5 L 71.5 102.0 L 106.9 102.0 L 111.9 97.0 L 121.9 106.0 L 116.9 109.0 L 116.9 177.0 L 106.9 182.0 L 106.9 173.0 L 71.5 173.0 Z M 137.2 180.0 L 127.2 185.0 L 127.2 97.0 L 137.2 102.0 L 172.5 102.0 L 178.0 97.0 L 188.5 106.0 L 183.5 109.5 L 183.5 177.0 L 172.5 182.5 L 172.5 173.0 L 137.2 173.0 Z M 33.1 186.9 L 29.1 184.9 L 27.5 180.6 L 28.1 173.5 L 28.2 167.0 L 27.8 161.1 L 27.0 155.9 L 25.8 151.2 L 24.87791166305542 148.77951803207398 L 24.1 148.6 L 24.451968479156495 147.6614172935486 L 24.2 147.0 L 22.2 143.4 L 19.7 140.0 L 16.7 137.0 L 13.0 134.1 L 13.7 132.5 L 18.6 133.7 L 23.1 135.9 L 27.2 139.1 L 27.60779218673706 139.56604824066162 L 29.1 135.8 L 31.8 129.3 L 35.1 121.7 L 38.9 113.0 L 43.2 103.1 L 48.2 92.0 L 53.8 79.9 L 60.2 66.6 L 61.8 67.3 L 57.4 81.3 L 53.2 94.0 L 49.4 105.4 L 46.0 115.7 L 43.0 124.7 L 40.6 132.5 L 38.6 139.1 L 37.2 144.5 L 36.2 148.6 L 35.8 151.3 L 35.032380962371825 151.12285718917846 L 36.0 153.3 L 37.7 159.4 L 38.9 166.2 L 39.5 173.5 L 39.5 181.3 L 37.4 185.4 Z M 137.2 139.0 L 137.2 169.0 L 150.1 169.0 L 150.1 139.0 Z M 160.1 139.0 L 160.1 169.0 L 172.5 169.0 L 172.5 139.0 Z M 71.5 139.0 L 71.5 169.0 L 84.0 169.0 L 84.0 139.0 Z M 94.0 139.0 L 94.0 169.0 L 106.9 169.0 L 106.9 139.0 Z M 137.2 106.0 L 137.2 135.0 L 150.1 135.0 L 150.1 106.0 Z M 160.1 106.0 L 160.1 135.0 L 172.5 135.0 L 172.5 106.0 Z M 71.5 106.0 L 71.5 135.0 L 84.0 135.0 L 84.0 106.0 Z M 94.0 106.0 L 94.0 135.0 L 106.9 135.0 L 106.9 106.0 Z M 89.1 85.4 L 77.1 91.4 L 77.1 19.1 L 89.1 25.1 L 155.0 25.1 L 161.0 20.1 L 172.0 29.1 L 167.0 33.1 L 167.0 84.4 L 155.0 90.4 L 155.0 82.4 L 89.1 82.4 Z M 27.9 83.0 L 26.9 81.1 L 25.6 79.1 L 24.0 77.1 L 22.1 75.1 L 19.9 73.0 L 17.5 71.0 L 14.8 68.9 L 11.7 67.1 L 12.3 65.5 L 15.8 66.5 L 19.4 67.3 L 22.6 68.4 L 25.7 69.7 L 28.7 71.1 L 31.4 72.8 L 33.9 74.7 L 36.2 76.8 L 38.3 79.1 L 40.1 81.6 L 40.3 86.2 L 37.3 89.7 L 32.8 89.9 L 29.3 86.9 L 28.7 85.0 Z M 89.1 55.4 L 89.1 78.4 L 116.0 78.4 L 116.0 55.4 Z M 128.0 55.4 L 128.0 78.4 L 155.0 78.4 L 155.0 55.4 Z M 89.1 29.1 L 89.1 51.4 L 116.0 51.4 L 116.0 29.1 Z M 128.0 29.1 L 128.0 51.4 L 155.0 51.4 L 155.0 29.1 Z M 39.9 37.1 L 38.8 35.1 L 37.4 33.1 L 35.9 31.0 L 34.1 29.0 L 32.1 27.0 L 29.8 25.0 L 27.3 22.9 L 24.5 21.2 L 25.1 19.5 L 28.4 20.6 L 31.7 21.4 L 34.9 22.5 L 37.8 23.7 L 40.6 25.2 L 43.3 26.9 L 45.8 28.7 L 48.1 30.8 L 50.2 33.0 L 52.1 35.5 L 52.4 40.0 L 49.6 43.6 L 45.0 44.0 L 41.5 41.1 L 40.8 39.1 Z " />
</g>
</svg>
