<svg xmlns="http://www.w3.org/2000/svg" xmlns:xlink="http://www.w3.org/1999/xlink" version="1.1" baseProfile="full" viewBox="0 0 200 200" width="200" height="200">
<g fill="black">
<path d="M 95.8 168.7 L 94.6 166.5 L 93.2 164.4 L 91.6 162.3 L 89.7 160.2 L 87.5 158.1 L 85.2 156.0 L 82.6 153.9 L 81.9140703201294 153.51130657196046 L 80.9 156.3 L 77.4 163.5 L 73.3 170.1 L 68.6 176.1 L 63.1 181.4 L 57.1 186.0 L 50.4 189.7 L 49.4 188.2 L 54.6 183.0 L 59.3 177.7 L 63.4 172.1 L 66.9 166.2 L 69.8 159.9 L 72.1 153.2 L 73.9 146.0 L 74.24666662216187 144.0 L 52.2 144.0 L 52.2 140.0 L 74.93999996185303 140.0 L 75.2 138.5 L 75.9 130.4 L 76.0 121.9 L 76.0 119.5 L 88.0 122.0 L 91.0 124.1 L 87.65962295532226 125.99943008422852 L 87.2 131.4 L 85.83181819915771 140.0 L 91.4 140.0 L 101.4 130.0 L 113.4 140.0 L 113.4 144.0 L 84.85 144.0 L 83.7 148.6 L 82.74470586776734 151.22705879211426 L 83.7 151.5 L 87.1 152.4 L 90.4 153.5 L 93.5 154.9 L 96.4 156.5 L 99.1 158.2 L 101.7 160.3 L 104.1 162.5 L 106.2 164.9 L 108.2 167.6 L 108.5 172.1 L 105.6 175.6 L 101.0 175.9 L 97.5 173.0 L 96.7 170.8 Z M 30.7 186.9 L 26.6 184.9 L 25.0 180.6 L 25.5 173.5 L 25.6 166.9 L 25.4 161.0 L 24.8 155.7 L 23.8 151.0 L 23.185070419311522 149.01330442428588 L 22.1 148.8 L 22.61196174621582 147.16172246932985 L 22.5 146.8 L 20.9 143.2 L 18.9 139.9 L 16.5 136.9 L 13.5 134.2 L 14.3 132.5 L 18.6 133.8 L 22.6 136.1 L 25.530365657806396 138.70476951599122 L 26.5 136.0 L 28.8 129.5 L 31.7 121.9 L 35.0 113.1 L 38.8 103.2 L 43.1 92.1 L 48.0 80.0 L 53.5 66.7 L 55.3 67.2 L 51.6 81.2 L 48.2 93.8 L 45.0 105.3 L 42.2 115.5 L 39.8 124.5 L 37.7 132.3 L 36.1 138.9 L 34.9 144.2 L 34.1 148.3 L 33.8 151.1 L 32.841311073303224 150.9115397453308 L 33.8 153.5 L 35.3 159.6 L 36.3 166.2 L 36.9 173.5 L 37.0 181.3 L 35.0 185.4 Z M 170.7 90.5 L 169.4 92.7 L 167.8 94.6 L 165.9 96.3 L 163.8 97.7 L 161.6 98.7 L 159.2 99.4 L 156.7 99.8 L 154.1 100.0 L 154.1 94.0 L 144.1 91.0 L 144.1 88.0 L 154.1 88.0 L 155.4 87.9 L 156.5 87.7 L 157.4 87.5 L 158.0 87.1 L 158.6 86.8 L 159.6 85.8 L 160.5 84.0 L 160.9 82.8 L 161.2 81.1 L 161.6 78.7 L 161.9 75.6 L 162.2 72.0 L 162.5 67.7 L 162.7 62.9 L 162.9 57.5 L 163.0 51.6 L 163.1 45.0 L 163.1 40.0 L 132.5 40.0 L 132.5 110.0 L 172.3 110.0 L 178.3 105.0 L 189.3 114.0 L 184.35069580078124 116.9695824623108 L 184.4 121.9 L 184.4 131.1 L 184.2 139.5 L 184.0 147.0 L 183.6 153.7 L 183.1 159.6 L 182.4 164.7 L 181.6 169.1 L 180.6 172.8 L 179.2 176.1 L 177.9 178.2 L 176.4 180.2 L 174.7 182.0 L 172.9 183.6 L 170.9 184.9 L 168.7 186.0 L 166.4 186.9 L 164.0 187.5 L 161.6 187.8 L 159.1 188.0 L 159.1 182.0 L 139.1 179.0 L 139.1 176.0 L 159.1 176.0 L 160.5 175.9 L 161.7 175.7 L 162.9 175.4 L 163.9 175.1 L 164.8 174.6 L 165.6 174.0 L 166.4 173.3 L 167.2 172.5 L 168.0 171.5 L 168.7 170.3 L 169.2 169.0 L 169.9 166.5 L 170.5 162.9 L 171.1 158.3 L 171.6 152.8 L 172.0 146.4 L 172.2 139.1 L 172.4 131.0 L 172.4 121.95833330154419 L 172.3 122.0 L 172.3 114.0 L 132.5 114.0 L 124.5 122.0 L 114.5 112.0 L 120.5 106.0 L 120.5 30.0 L 132.5 36.0 L 140.41199998855592 36.0 L 140.7 35.1 L 141.1 32.4 L 141.5 29.9 L 142.0 27.5 L 142.4 25.1 L 142.7 22.7 L 143.1 20.5 L 143.7 16.1 L 143.80526313781738 15.047368431091309 L 143.6 15.0 L 144.4 12.5 L 155.3 17.7 L 157.6 20.6 L 153.14633903503417 21.615747261047364 L 153.1 21.7 L 151.8 23.7 L 150.5 25.8 L 149.2 27.8 L 147.7 29.9 L 146.2 31.9 L 144.6 34.0 L 142.98095235824584 36.0 L 163.1 36.0 L 169.1 31.0 L 180.1 40.0 L 175.1 43.0 L 175.1 45.1 L 175.0 51.7 L 174.9 57.8 L 174.7 63.3 L 174.5 68.3 L 174.2 72.8 L 173.9 76.8 L 173.5 80.2 L 173.0 83.2 L 172.5 85.8 L 171.7 88.2 Z M 165.6 144.0 L 165.6 148.0 L 114.4 148.0 L 114.4 144.0 L 143.6 144.0 L 153.6 134.0 Z M 102.0 116.9 L 101.5 114.9 L 101.08412237167359 113.59295616149902 L 97.0 114.6 L 90.3 116.2 L 84.1 117.5 L 78.4 118.7 L 73.3 119.8 L 68.7 120.9 L 64.7 121.9 L 61.2 122.8 L 60.164928913116455 123.13270139694214 L 58.8 127.0 L 56.1 124.5 L 51.3 113.4 L 53.3 112.9 L 55.035052394866945 112.71410150527954 L 57.7 110.2 L 62.8 105.2 L 67.9 100.4 L 72.7 95.5 L 77.4 90.6 L 80.54806871414185 87.10214595794677 L 78.4 87.9 L 75.0 89.1 L 68.4 91.3 L 65.2 92.2 L 60.51768951416015 93.60469312667847 L 58.6 97.5 L 56.3 94.8 L 52.7 83.1 L 54.26573705673218 82.94342632293701 L 56.9 80.4 L 59.5 77.3 L 62.0 74.4 L 64.5 71.6 L 66.7 68.8 L 68.8 66.1 L 70.8 63.3 L 72.6 60.6 L 74.3 57.9 L 75.30345401763915 56.160679721832274 L 75.2 56.1 L 76.3 54.6 L 85.6 62.2 L 86.9 65.6 L 82.68571424484253 65.31428575515747 L 80.6 67.4 L 78.0 69.8 L 75.1 72.2 L 72.2 74.5 L 69.1 76.7 L 65.8 78.8 L 62.3 80.9 L 58.7 82.7 L 58.377975177764895 82.87406749725342 L 60.6 82.8 L 63.7 82.8 L 70.3 82.6 L 77.3 82.4 L 81.0 82.3 L 84.8039999961853 82.3 L 86.3 80.6 L 90.4 75.5 L 94.3 70.3 L 97.51046361923218 65.90673398971558 L 97.5 65.9 L 98.5 64.5 L 107.6 72.4 L 108.8 75.8 L 105.00421628952026 75.34188814163208 L 103.1 77.5 L 98.5 82.6 L 93.6 87.4 L 88.5 92.2 L 83.3 96.7 L 77.8 101.2 L 72.1 105.4 L 66.2 109.4 L 61.789030170440675 112.10349760055541 L 63.1 112.0 L 67.3 111.7 L 72.1 111.4 L 77.4 111.2 L 83.3 111.0 L 89.7 110.8 L 96.6 110.9 L 100.08876399993896 110.99303369522094 L 99.8 110.3 L 98.6 107.7 L 97.1 105.1 L 95.5 102.2 L 93.7 99.2 L 91.3 96.3 L 92.5 95.0 L 95.5 97.4 L 98.5 99.5 L 101.2 101.6 L 103.7 103.8 L 106.0 106.0 L 108.0 108.2 L 109.8 110.5 L 111.4 112.8 L 112.8 115.2 L 114.0 117.7 L 113.2 122.2 L 109.5 124.9 L 105.0 124.1 L 102.3 120.4 L 102.2 118.8 Z M 25.4 82.6 L 24.6 80.7 L 23.6 78.8 L 22.3 76.8 L 20.9 74.9 L 19.1 72.9 L 17.2 70.9 L 15.0 68.8 L 12.4 67.2 L 13.1 65.5 L 16.1 66.6 L 19.2 67.5 L 22.1 68.6 L 24.8 69.9 L 27.4 71.4 L 29.8 73.1 L 32.0 75.0 L 34.1 77.1 L 35.9 79.4 L 37.5 81.9 L 37.5 86.5 L 34.3 89.7 L 29.7 89.7 L 26.4 86.5 L 26.0 84.6 Z M 146.9 68.3 L 146.3 66.1 L 145.6 63.9 L 144.6 61.7 L 143.4 59.5 L 142.1 57.2 L 140.5 54.9 L 138.8 52.5 L 136.6 50.5 L 137.6 49.0 L 140.3 50.6 L 143.1 51.9 L 145.8 53.5 L 148.2 55.2 L 150.5 57.2 L 152.6 59.3 L 154.6 61.6 L 156.3 64.1 L 157.8 66.7 L 159.1 69.5 L 158.5 74.0 L 154.9 76.8 L 150.3 76.2 L 147.5 72.6 L 147.3 70.4 Z M 115.1 35.8 L 116.7 39.0 L 112.62837753295898 39.07020034790039 L 111.2 41.1 L 109.2 43.7 L 105.2 49.1 L 103.1 51.7 L 100.9 54.4 L 98.7 57.0 L 96.4 59.6 L 94.3 62.4 L 92.7 61.5 L 94.0 58.3 L 95.0 54.9 L 96.1 51.7 L 97.2 48.4 L 98.4 45.3 L 99.6 42.1 L 100.9 39.0 L 102.1 36.0 L 103.4 32.9 L 104.21846151351929 30.853846168518068 L 104.1 30.8 L 105.1 28.9 Z M 58.7 50.4 L 58.2 48.6 L 57.6 46.7 L 56.9 44.8 L 56.1 42.9 L 55.1 40.9 L 54.0 38.9 L 52.4 37.3 L 53.5 35.9 L 55.5 37.2 L 57.7 38.3 L 59.8 39.6 L 61.7 41.0 L 63.6 42.6 L 65.3 44.3 L 66.9 46.1 L 68.3 48.1 L 69.7 50.2 L 70.9 52.4 L 70.3 56.9 L 66.8 59.8 L 62.3 59.3 L 59.4 55.8 L 59.0 52.2 Z M 80.0 49.0 L 79.7 47.4 L 79.3 45.8 L 78.7 44.0 L 78.0 42.2 L 77.1 40.3 L 76.0 38.2 L 74.8 36.1 L 73.0 34.3 L 74.2 32.9 L 76.3 34.4 L 78.6 35.6 L 80.7 36.9 L 82.7 38.3 L 84.5 39.7 L 86.2 41.3 L 87.8 42.9 L 89.2 44.7 L 90.5 46.5 L 91.6 48.5 L 91.0 53.0 L 87.4 55.8 L 82.9 55.2 L 80.0 51.7 L 80.1 50.4 Z M 34.7 34.7 L 33.7 32.8 L 32.5 30.8 L 31.1 28.8 L 29.5 26.9 L 27.7 24.9 L 25.7 22.8 L 23.3 21.2 L 24.1 19.6 L 26.9 20.7 L 29.8 21.5 L 32.5 22.6 L 35.1 24.0 L 37.6 25.5 L 40.0 27.1 L 42.1 29.0 L 44.2 31.1 L 46.0 33.3 L 47.7 35.7 L 47.8 40.3 L 44.7 43.7 L 40.1 43.8 L 36.8 40.7 L 35.6 36.7 Z M 102.06035900115967 15.748440265655518 L 112.1 24.1 L 112.4 27.1 L 108.15473651885986 25.126849365234374 L 104.8 26.0 L 100.8 26.7 L 96.5 27.4 L 91.8 28.1 L 86.8 28.8 L 81.5 29.4 L 75.8 30.1 L 69.7 30.7 L 63.3 31.2 L 56.5 31.6 L 49.3 31.8 L 49.0 30.1 L 55.8 27.9 L 62.3 26.0 L 68.5 24.2 L 74.3 22.6 L 79.8 21.1 L 84.9 19.7 L 89.7 18.3 L 94.1 16.9 L 98.1 15.6 L 101.7 14.4 Z " />
</g>
</svg>
