<svg xmlns="http://www.w3.org/2000/svg" xmlns:xlink="http://www.w3.org/1999/xlink" version="1.1" baseProfile="full" viewBox="0 0 200 200" width="200" height="200">
<g fill="black">
<path d="M 112.0 106.0 L 147.2 106.0 L 153.2 101.0 L 164.2 110.0 L 159.2 114.0 L 159.2 181.0 L 147.2 187.0 L 147.2 110.0 L 112.0 110.0 L 112.0 111.0 L 111.9344262123108 111.09836063385009 L 112.0 111.1 L 111.3 121.8 L 110.1 131.8 L 108.4 141.2 L 106.3 149.9 L 103.8 157.9 L 100.7 165.3 L 97.2 171.9 L 93.2 177.7 L 88.7 182.6 L 83.7 186.6 L 82.4 185.3 L 85.7 180.2 L 88.7 174.8 L 91.3 168.9 L 93.7 162.5 L 95.6 155.5 L 97.3 147.8 L 98.5 139.6 L 99.4 130.6 L 99.9 121.1 L 100.0 110.8 L 100.0 15.0 L 112.0 17.0 L 115.0 19.0 L 112.0 20.8 L 112.0 67.0 L 138.4 67.0 L 138.4 15.0 L 150.4 17.0 L 153.4 19.0 L 150.4 20.8 L 150.4 67.0 L 164.9 67.0 L 174.9 57.0 L 186.9 67.0 L 186.9 71.0 L 112.0 71.0 Z M 36.4 106.0 L 62.8 106.0 L 68.8 101.0 L 79.8 110.0 L 74.8 114.0 L 74.8 181.0 L 62.8 187.0 L 62.8 110.0 L 36.4 110.0 L 36.4 111.0 L 36.33442621231079 111.09836063385009 L 36.4 111.1 L 35.8 121.7 L 34.7 131.7 L 33.3 141.1 L 31.5 149.7 L 29.4 157.7 L 26.8 165.0 L 23.9 171.6 L 20.5 177.5 L 16.7 182.5 L 12.4 186.5 L 11.0 185.4 L 13.5 180.4 L 15.8 175.0 L 17.8 169.1 L 19.6 162.7 L 21.2 155.7 L 22.4 148.0 L 23.4 139.7 L 24.0 130.7 L 24.4 121.1 L 24.4 15.0 L 36.4 17.0 L 39.4 19.0 L 36.4 20.8 L 36.4 67.0 L 55.6 67.0 L 55.6 15.0 L 67.6 17.0 L 70.6 19.0 L 67.6 20.8 L 67.6 67.0 L 74.2 67.0 L 84.2 57.0 L 96.2 67.0 L 96.2 71.0 L 36.4 71.0 Z " />
</g>
</svg>
