<svg xmlns="http://www.w3.org/2000/svg" xmlns:xlink="http://www.w3.org/1999/xlink" version="1.1" baseProfile="full" viewBox="0 0 200 200" width="200" height="200">
<g fill="black">
<path d="M 45.6 176.0 L 61.6 176.0 L 62.8 175.9 L 63.7 175.7 L 64.6 175.4 L 65.0 175.0 L 65.2 174.7 L 65.4 174.1 L 65.5 173.2 L 65.6 172.0 L 65.6 111.6 L 60.3 120.7 L 54.8 129.4 L 49.0 137.6 L 42.9 145.4 L 36.5 152.7 L 29.9 159.6 L 22.8 165.9 L 15.5 171.6 L 14.2 170.3 L 20.1 163.2 L 25.9 156.0 L 31.5 148.6 L 36.8 140.8 L 42.0 132.8 L 46.9 124.5 L 51.6 115.8 L 56.0 106.7 L 60.2 97.4 L 62.38918914794922 92.0 L 30.57441129684448 92.0 L 27.8 104.9 L 14.8 108.2 L 30.2 36.7 L 41.5 41.2 L 44.1 43.8 L 40.74008903503418 44.73330860137939 L 31.434693908691408 88.0 L 65.6 88.0 L 65.6 32.0 L 18.5 32.0 L 18.5 28.0 L 70.6 28.0 L 80.6 18.0 L 92.6 28.0 L 92.6 32.0 L 77.6 32.0 L 77.6 88.0 L 80.27777776718139 88.0 L 86.5 81.0 L 94.5 88.0 L 94.5 92.0 L 77.6 92.0 L 77.6 172.0 L 77.4 174.5 L 77.0 177.0 L 76.2 179.4 L 75.0 181.7 L 73.3 183.7 L 71.3 185.3 L 69.0 186.6 L 66.6 187.4 L 64.1 187.8 L 61.6 188.0 L 61.6 182.0 L 45.6 179.0 Z M 163.7 173.2 L 157.6 165.5 L 152.0 157.1 L 146.9 148.3 L 142.4 138.9 L 138.4 129.0 L 135.0 118.6 L 132.3 107.7 L 130.4551724433899 97.0 L 112.0 97.0 L 112.0 166.0311475753784 L 116.6 164.9 L 122.7 163.3 L 135.3 160.1 L 141.7 158.5 L 148.3 157.1 L 149.0 158.8 L 143.1 162.1 L 137.1 165.1 L 131.1 167.9 L 125.2 170.5 L 119.2 172.9 L 107.4 177.5 L 101.6 179.6 L 95.8 181.6 L 93.9290322303772 182.21290321350097 L 92.7 185.9 L 90.0 183.5 L 84.9 172.4 L 86.9 171.9 L 92.7 170.6 L 98.6 169.3 L 100.0 168.9677966117859 L 100.0 19.0 L 112.0 25.0 L 158.8 25.0 L 164.8 20.0 L 175.8 29.0 L 170.8 33.0 L 170.8 99.0 L 158.8 105.0 L 158.8 97.0 L 132.59813079833984 97.0 L 136.2 106.4 L 140.5 116.6 L 145.0 126.2 L 149.5588313102722 134.7478087425232 L 152.7 131.1 L 158.7 124.5 L 161.7 121.3 L 167.3 115.1 L 170.0 112.1 L 174.49641876220704 107.08476371765137 L 174.4 107.0 L 175.4 106.1 L 183.5 115.0 L 184.1 118.5 L 180.29617023468018 117.48111705780029 L 177.2 119.9 L 170.6 124.9 L 167.1 127.4 L 163.4 130.0 L 159.7 132.4 L 155.8 134.9 L 151.8 137.3 L 151.25590295791625 137.5979578971863 L 154.9 143.6 L 160.4 151.4 L 166.2 158.6 L 172.4 165.2 L 178.9 171.3 L 185.8 176.8 L 188.4 178.9 L 177.5 187.1 L 170.4 180.4 Z M 112.0 63.0 L 112.0 93.0 L 158.8 93.0 L 158.8 63.0 Z M 112.0 29.0 L 112.0 59.0 L 158.8 59.0 L 158.8 29.0 Z " />
</g>
</svg>
