<svg xmlns="http://www.w3.org/2000/svg" xmlns:xlink="http://www.w3.org/1999/xlink" version="1.1" baseProfile="full" viewBox="0 0 200 200" width="200" height="200">
<g fill="black">
<path d="M 14.5 126.0 L 20.1 124.0 L 25.9 121.8 L 32.0 119.6 L 38.2 117.3 L 44.7 115.0 L 45.9 114.57014923095703 L 45.9 66.0 L 30.245454502105712 66.0 L 29.1 70.2 L 26.7 77.6 L 24.1 84.7 L 21.2 91.6 L 18.0 98.1 L 14.4 104.3 L 12.7 103.6 L 14.4 96.8 L 16.2 89.8 L 17.8 82.8 L 19.4 75.6 L 20.8 68.2 L 22.1 60.7 L 23.2 52.9 L 24.1 44.9 L 24.8 36.8 L 25.328554534912108 29.40023603439331 L 25.3 29.4 L 25.6 26.2 L 37.4 29.5 L 40.2 31.8 L 36.81065435409546 33.39874792098999 L 36.1 38.1 L 34.7 46.5 L 33.0 54.6 L 31.313924026489257 62.0 L 45.9 62.0 L 45.9 13.0 L 57.9 15.0 L 60.9 17.0 L 57.9 18.8 L 57.9 62.0 L 60.8 62.0 L 70.8 52.0 L 82.8 62.0 L 82.8 66.0 L 57.9 66.0 L 57.9 110.2785714149475 L 58.4 110.1 L 65.6 107.7 L 73.1 105.4 L 80.8 103.1 L 81.5 104.8 L 74.5 108.9 L 67.7 112.6 L 61.0 116.2 L 57.9 117.75 L 57.9 183.0 L 45.9 189.0 L 45.9 123.76721315383911 L 41.9 125.8 L 35.9 128.8 L 30.2 131.7 L 24.6 134.4 L 22.992291927337646 135.21902112960817 L 22.3 139.0 L 19.3 137.1 L 12.7 126.8 Z M 154.9 178.4 L 146.4 174.7 L 138.5 170.3 L 131.4 165.2 L 130.99501810073852 164.82073125839233 L 123.1 170.7 L 113.1 176.5 L 102.4 181.2 L 91.1 184.7 L 79.3 186.9 L 66.8 187.8 L 66.6 186.1 L 78.5 183.2 L 89.6 179.5 L 99.8 175.1 L 109.4 169.9 L 118.2 163.7 L 124.34417905807496 158.39021558761596 L 119.7 152.8 L 115.1 145.6 L 111.5 137.7 L 110.53620347976684 134.42309198379516 L 109.1 136.7 L 104.6 142.8 L 99.9 148.6 L 94.7 154.0 L 89.3 159.1 L 83.4 163.6 L 77.2 167.7 L 76.0 166.2 L 80.9 160.8 L 85.4 155.3 L 89.8 149.7 L 93.9 144.0 L 97.7 138.0 L 101.1 131.9 L 104.4 125.5 L 107.3 118.9 L 109.9 112.0 L 112.2 104.9 L 112.2298152923584 104.91055412292481 L 112.7 103.5 L 123.5 108.9 L 125.7 111.7 L 122.0007800102234 112.47878313064575 L 120.4 116.3 L 118.62816905975342 120.0 L 151.6 120.0 L 152.02305631637574 119.6474531173706 L 152.2 119.3 L 152.35104894638062 119.37412586212159 L 157.6 115.0 L 168.6 124.0 L 163.6 127.0 L 161.01821670532226 128.07574300765992 L 156.5 136.0 L 149.2 146.3 L 141.2 155.5 L 138.12731819152833 158.39609088897706 L 143.6 161.5 L 150.8 164.6 L 158.6 167.2 L 167.0 169.1 L 176.1 170.4 L 186.1 171.8 L 174.2 183.5 L 164.2 181.3 Z M 116.66470584869384 124.0 L 113.2 130.2 L 112.41615619659424 131.44267921447755 L 115.2 135.8 L 120.0 142.3 L 125.2 148.1 L 130.16865072250366 152.6250211715698 L 133.8 148.8 L 140.6 139.9 L 146.7 130.1 L 149.8064814567566 124.0 Z M 178.4 82.0 L 180.4 82.0 L 178.4 99.0 L 181.4 101.0 L 183.4 104.0 L 181.4 107.0 L 178.4 109.0 L 151.2 109.0 L 148.7 108.9 L 146.3 108.6 L 144.0 107.9 L 141.8 106.8 L 139.8 105.3 L 138.1 103.5 L 136.9 101.3 L 136.0 99.0 L 135.4 96.5 L 135.2 94.0 L 135.2 75.0 L 119.02799997329711 75.0 L 124.8 77.6 L 127.0 80.4 L 123.25271739959717 81.40373640060425 L 122.4 83.5 L 119.7 89.0 L 116.5 94.3 L 112.9 99.4 L 108.8 104.1 L 104.4 108.5 L 99.6 112.6 L 94.4 116.4 L 88.7 119.8 L 82.6 122.7 L 81.6 121.2 L 86.5 116.7 L 91.0 112.3 L 95.1 107.8 L 98.9 103.4 L 102.2 98.8 L 105.2 94.1 L 107.8 89.3 L 110.0 84.4 L 111.8 79.4 L 113.03805866241456 75.10806331634521 L 113.0 75.1 L 113.02799997329711 75.0 L 102.3 75.0 L 102.3 87.0 L 90.3 93.0 L 90.3 16.0 L 102.3 22.0 L 159.3 22.0 L 165.3 17.0 L 176.3 26.0 L 171.3 30.0 L 171.3 81.0 L 159.3 87.0 L 159.3 75.0 L 147.2 75.0 L 147.2 96.1 L 147.3 96.8 L 147.5 97.2 L 147.6 97.6 L 147.8 97.9 L 148.2 98.2 L 148.9 98.5 L 149.9 98.8 L 151.2 99.0 L 173.4 99.0 Z M 102.3 49.0 L 102.3 71.0 L 123.2 71.0 L 123.2 49.0 Z M 135.2 49.0 L 135.2 71.0 L 159.3 71.0 L 159.3 49.0 Z M 102.3 26.0 L 102.3 45.0 L 123.2 45.0 L 123.2 26.0 Z M 135.2 26.0 L 135.2 45.0 L 159.3 45.0 L 159.3 26.0 Z " />
</g>
</svg>
