<svg xmlns="http://www.w3.org/2000/svg" xmlns:xlink="http://www.w3.org/1999/xlink" version="1.1" baseProfile="full" viewBox="0 0 200 200" width="200" height="200">
<g fill="black">
<path d="M 78.9 62.0 L 78.9 66.0 L 55.9 66.0 L 55.9 110.16323528289794 L 62.6 107.7 L 69.7 105.4 L 77.0 103.1 L 77.8 104.8 L 71.2 108.8 L 64.8 112.6 L 58.5 116.1 L 55.9 117.54918031692505 L 55.9 183.0 L 43.9 189.0 L 43.9 124.08965520858764 L 40.7 125.8 L 35.2 128.7 L 29.8 131.6 L 24.6 134.3 L 23.295125675201415 135.00463218688964 L 22.7 138.9 L 19.6 137.0 L 12.8 126.9 L 14.6 126.1 L 19.8 124.0 L 25.3 121.8 L 31.0 119.6 L 36.9 117.3 L 43.0 115.0 L 43.9 114.65714282989502 L 43.9 66.0 L 29.778947353363037 66.0 L 28.7 70.1 L 26.5 77.5 L 24.0 84.7 L 21.3 91.5 L 18.2 98.1 L 14.7 104.3 L 13.1 103.6 L 14.6 96.8 L 16.2 89.9 L 17.7 82.8 L 19.1 75.7 L 20.4 68.3 L 21.6 60.7 L 22.6 52.9 L 23.5 45.0 L 24.1 36.8 L 24.62855443954468 29.400237941741942 L 24.6 29.4 L 24.8 26.3 L 36.6 29.5 L 39.4 31.7 L 36.10807456970215 33.34596271514893 L 35.5 38.1 L 34.1 46.4 L 32.5 54.6 L 30.813924026489257 62.0 L 43.9 62.0 L 43.9 13.0 L 55.9 15.0 L 58.9 17.0 L 55.9 18.8 L 55.9 62.0 L 60.71818180084229 62.0 L 68.9 53.0 L 72.78888893127441 56.5 L 119.8 56.5 L 119.8 35.3 L 84.6 35.3 L 84.6 31.3 L 119.8 31.3 L 119.8 11.1 L 131.8 13.1 L 134.8 15.1 L 131.8 16.9 L 131.8 31.3 L 148.6 31.3 L 158.6 21.3 L 170.6 31.3 L 170.6 35.3 L 131.8 35.3 L 131.8 56.5 L 167.6777777671814 56.5 L 173.9 49.5 L 181.9 56.5 L 181.9 60.5 L 77.23333330154419 60.5 Z M 178.1 147.7 L 180.1 147.7 L 178.1 172.7 L 181.7 175.1 L 184.1 178.7 L 181.7 182.3 L 178.1 184.7 L 147.9 184.7 L 145.4 184.6 L 142.9 184.2 L 140.5 183.3 L 138.2 182.1 L 136.2 180.5 L 134.5 178.5 L 133.3 176.2 L 132.5 173.8 L 132.1 171.3 L 131.9 168.7 L 131.9 132.3 L 109.70487804412842 132.3 L 118.4 135.4 L 121.0 137.9 L 117.38255033493041 139.2154362678528 L 116.0 144.4 L 112.8 152.6 L 108.9 160.2 L 104.3 166.9 L 98.9 172.8 L 92.8 177.8 L 86.1 182.0 L 78.8 185.2 L 70.8 187.5 L 62.4 188.7 L 62.0 186.9 L 69.7 183.8 L 76.5 180.3 L 82.7 176.4 L 88.0 171.9 L 92.7 167.0 L 96.7 161.5 L 100.1 155.4 L 102.9 148.6 L 105.0 141.2 L 106.4 134.2 L 106.72758617401124 132.3 L 79.0 132.3 L 79.0 128.3 L 153.3 128.3 L 163.3 118.3 L 175.3 128.3 L 175.3 132.3 L 143.9 132.3 L 143.9 168.7 L 144.0 170.0 L 144.1 170.9 L 144.3 171.5 L 144.5 171.8 L 144.8 172.1 L 145.2 172.3 L 145.8 172.5 L 146.7 172.7 L 172.1 172.7 Z M 76.2 113.1 L 80.5 112.0 L 85.2 110.8 L 90.1 109.5 L 95.3 108.2 L 95.5 108.14545450210571 L 95.5 86.8 L 78.1 86.8 L 78.1 82.8 L 95.5 82.8 L 95.5 62.6 L 107.5 64.6 L 110.5 66.6 L 107.5 68.4 L 107.5 82.8 L 111.5777777671814 82.8 L 117.8 75.8 L 125.8 82.8 L 125.8 86.8 L 107.5 86.8 L 107.5 104.9639344215393 L 112.7 103.6 L 119.1 102.0 L 125.8 100.5 L 132.9 99.1 L 133.5 100.8 L 127.1 104.1 L 120.8 107.1 L 114.8 109.8 L 109.0 112.4 L 103.5 114.7 L 98.3 117.0 L 93.3 119.0 L 88.6 121.0 L 84.1 122.8 L 83.8585394859314 122.90011777877808 L 82.8 126.8 L 80.0 124.5 L 74.3 113.8 Z M 123.9 110.1 L 144.1 110.1 L 144.1 86.8 L 130.4 86.8 L 130.4 82.8 L 144.1 82.8 L 144.1 62.6 L 156.1 64.6 L 159.1 66.6 L 156.1 68.4 L 156.1 82.8 L 161.0777777671814 82.8 L 167.3 75.8 L 175.3 82.8 L 175.3 86.8 L 156.1 86.8 L 156.1 110.1 L 162.71818180084227 110.1 L 170.9 101.1 L 180.9 110.1 L 180.9 114.1 L 123.9 114.1 Z " />
</g>
</svg>
