<svg xmlns="http://www.w3.org/2000/svg" xmlns:xlink="http://www.w3.org/1999/xlink" version="1.1" baseProfile="full" viewBox="0 0 200 200" width="200" height="200">
<g fill="black">
<path d="M 138.7 176.0 L 152.7 176.0 L 153.9 175.9 L 154.8 175.7 L 155.4 175.5 L 155.8 175.4 L 156.0 175.2 L 156.1 175.0 L 156.3 174.7 L 156.5 174.1 L 156.6 173.2 L 156.7 172.0 L 156.7 152.0 L 100.2 152.0 L 100.2 183.0 L 88.2 189.0 L 88.2 94.0 L 100.2 100.0 L 156.7 100.0 L 162.7 95.0 L 173.7 104.0 L 168.7 108.0 L 168.7 172.0 L 168.6 174.5 L 168.1 177.0 L 167.3 179.4 L 166.1 181.7 L 164.4 183.7 L 162.4 185.3 L 160.2 186.6 L 157.8 187.4 L 155.3 187.8 L 152.7 188.0 L 152.7 182.0 L 138.7 179.0 Z M 121.4 46.8 L 117.6 54.4 L 115.5 58.3 L 113.4 62.1 L 111.1 66.0 L 108.7 69.9 L 106.1 73.7 L 104.3014464378357 76.14089412689209 L 109.3 75.9 L 118.0 75.5 L 127.0 75.0 L 136.2 74.4 L 145.8 73.9 L 155.8 73.4 L 161.61788167953492 73.22888584136963 L 160.3 71.1 L 157.4 66.9 L 154.4 62.8 L 151.2 58.7 L 144.4 50.3 L 145.5 48.9 L 150.4 51.7 L 154.9 54.8 L 159.1 58.3 L 163.1 61.9 L 166.9 65.8 L 170.5 69.8 L 173.8 74.1 L 177.0 78.4 L 179.9 83.0 L 182.6 87.7 L 182.8 92.2 L 179.7 95.7 L 175.2 95.8 L 171.7 92.8 L 169.8 88.3 L 167.7 83.9 L 165.4 79.5 L 163.0520833015442 75.55550003051758 L 156.2 77.2 L 146.5 79.2 L 137.0 81.0 L 127.8 82.5 L 118.9 83.9 L 110.2 85.2 L 101.8 86.3 L 93.7 87.3 L 85.9 88.1 L 82.49106569290161 88.46361961364747 L 80.5 91.8 L 78.4 88.9 L 75.8 77.0 L 77.8 76.9 L 85.2 76.8 L 92.9 76.6 L 100.19741878509521 76.32972526550293 L 101.7 71.5 L 103.1 67.2 L 105.9 58.8 L 108.5 50.6 L 109.7 46.7 L 110.74358978271485 43.0 L 75.5 43.0 L 75.5 44.0 L 48.1 44.0 L 48.1 91.0 L 50.5 91.0 L 60.5 81.0 L 72.5 91.0 L 72.5 95.0 L 48.1 95.0 L 48.1 143.4203125 L 50.6 142.6 L 57.2 140.4 L 63.9 138.3 L 70.8 136.2 L 78.0 134.1 L 78.8 135.8 L 72.3 139.6 L 66.0 143.2 L 59.7 146.5 L 53.5 149.6 L 47.4 152.6 L 41.4 155.4 L 35.5 158.0 L 29.7 160.6 L 24.1 163.0 L 22.470008850097656 163.68163261413574 L 21.5 167.4 L 18.6 165.3 L 12.7 154.6 L 14.6 154.0 L 20.2 152.3 L 26.0 150.5 L 31.9 148.6 L 36.1 147.29180326461793 L 36.1 95.0 L 18.6 95.0 L 18.6 91.0 L 36.1 91.0 L 36.1 44.0 L 15.7 44.0 L 15.7 40.0 L 57.31818180084228 40.0 L 65.5 31.0 L 74.38888893127441 39.0 L 122.5 39.0 L 122.5 13.0 L 134.5 15.0 L 137.5 17.0 L 134.5 18.8 L 134.5 39.0 L 168.51818180084229 39.0 L 176.7 30.0 L 186.7 39.0 L 186.7 43.0 L 123.1 43.0 Z M 100.2 128.0 L 100.2 148.0 L 156.7 148.0 L 156.7 128.0 Z M 100.2 104.0 L 100.2 124.0 L 156.7 124.0 L 156.7 104.0 Z " />
</g>
</svg>
