<svg xmlns="http://www.w3.org/2000/svg" xmlns:xlink="http://www.w3.org/1999/xlink" version="1.1" baseProfile="full" viewBox="0 0 200 200" width="200" height="200">
<g fill="black">
<path d="M 40.0 21.5 L 166.0 21.5 L 176.0 11.5 L 188.0 21.5 L 188.0 25.5 L 40.0 25.5 L 40.0 87.8 L 39.4 102.2 L 38.4 115.6 L 37.0 128.2 L 35.0 139.8 L 32.6 150.4 L 29.7 160.1 L 26.2 168.8 L 22.3 176.4 L 17.7 183.0 L 12.6 188.3 L 11.3 187.2 L 14.5 180.9 L 17.5 174.1 L 20.1 166.4 L 22.4 157.9 L 24.3 148.6 L 25.8 138.3 L 27.0 127.1 L 27.7 114.9 L 28.0 101.8 L 28.0 15.5 Z M 39.9 176.8 L 107.0 176.8 L 107.0 149.0 L 56.0 149.0 L 56.0 145.0 L 107.0 145.0 L 107.0 120.3 L 48.4 120.3 L 48.4 116.3 L 155.6 116.3 L 165.6 106.3 L 177.6 116.3 L 177.6 120.3 L 119.0 120.3 L 119.0 145.0 L 147.9 145.0 L 157.9 135.0 L 169.9 145.0 L 169.9 149.0 L 119.0 149.0 L 119.0 176.8 L 164.1 176.8 L 174.1 166.8 L 186.1 176.8 L 186.1 180.8 L 39.9 180.8 Z M 154.6 169.3 L 152.7 167.6 L 150.6 165.8 L 148.3 164.0 L 145.8 162.3 L 143.2 160.5 L 140.3 158.6 L 137.3 156.7 L 134.0 155.1 L 134.6 153.4 L 138.2 154.2 L 141.8 154.7 L 145.3 155.4 L 148.6 156.3 L 151.7 157.2 L 154.8 158.3 L 160.4 160.7 L 163.0 162.1 L 165.5 163.5 L 167.6 167.6 L 166.2 172.0 L 162.2 174.1 L 157.8 172.7 L 156.3 171.0 Z M 168.0 97.4 L 163.8 93.7 L 160.1 89.7 L 156.7 85.4 L 153.8 80.8 L 153.2 79.6 L 153.2 105.3 L 141.2 111.3 L 141.2 77.7 L 139.7 79.8 L 136.0 84.4 L 131.9 88.7 L 127.5 92.7 L 122.8 96.4 L 117.9 99.8 L 112.6 102.7 L 106.9 105.1 L 106.0 103.6 L 110.4 99.6 L 114.6 95.5 L 118.5 91.5 L 122.1 87.4 L 125.5 83.1 L 128.6 78.7 L 131.4 74.2 L 134.0 69.5 L 136.3 64.6 L 136.559259223938 63.9 L 116.4 63.9 L 116.4 59.9 L 141.2 59.9 L 141.2 44.41176471710205 L 136.8 44.8 L 129.5 45.3 L 121.6 45.7 L 113.2 45.9 L 113.0 44.1 L 121.1 41.9 L 128.6 40.0 L 135.7 38.3 L 142.3 36.7 L 148.4 35.2 L 154.0 33.7 L 159.1 32.3 L 163.6 30.9 L 167.6 29.6 L 170.11454010009766 28.7378719329834 L 170.1 28.7 L 170.1362982749939 28.730412006378174 L 171.1 28.4 L 171.52985763549805 29.897988891601564 L 181.2 38.0 L 181.5 41.0 L 177.31317739486695 39.0860239982605 L 174.4 39.9 L 170.4 40.7 L 166.0 41.4 L 161.2 42.1 L 155.8 42.8 L 153.2 43.108474540710446 L 153.2 59.9 L 160.0 59.9 L 170.0 49.9 L 182.0 59.9 L 182.0 63.9 L 153.2 63.9 L 153.2 65.88571424484253 L 154.8 68.4 L 157.6 72.4 L 160.7 76.1 L 163.9 79.4 L 167.3 82.5 L 170.9 85.2 L 174.8 87.7 L 178.9 90.0 L 183.2 91.9 L 188.8 94.6 L 177.5 103.8 L 172.5 100.7 Z M 98.5 87.1 L 97.4 85.4 L 95.9 83.5 L 94.1 81.4 L 91.9 79.3 L 89.5 77.0 L 86.8 74.6 L 86.8 105.3 L 74.8 111.3 L 74.8 78.98421049118042 L 71.8 82.3 L 67.7 86.5 L 63.3 90.5 L 58.6 94.4 L 53.5 98.2 L 48.1 101.8 L 42.3 105.1 L 41.2 103.7 L 45.7 98.8 L 50.0 94.2 L 54.1 89.7 L 57.9 85.2 L 61.4 80.8 L 64.6 76.4 L 67.6 72.1 L 70.2 67.8 L 72.32727270126342 63.9 L 45.9 63.9 L 45.9 59.9 L 74.8 59.9 L 74.8 44.37014923095703 L 70.0 44.8 L 62.8 45.3 L 55.1 45.7 L 46.8 45.9 L 46.6 44.1 L 54.5 41.9 L 61.9 40.0 L 68.9 38.3 L 75.4 36.7 L 81.4 35.2 L 86.9 33.7 L 91.9 32.3 L 96.4 30.9 L 100.4 29.6 L 102.91454010009765 28.7378719329834 L 102.9 28.7 L 102.9362982749939 28.730412006378174 L 103.9 28.4 L 104.32985763549804 29.897988891601564 L 114.0 38.0 L 114.3 41.0 L 110.11317739486694 39.0860239982605 L 107.2 39.9 L 103.2 40.7 L 98.8 41.4 L 94.0 42.1 L 88.7 42.8 L 86.8 43.02931032180786 L 86.8 59.9 L 92.41818180084229 59.9 L 100.6 50.9 L 110.6 59.9 L 110.6 63.9 L 86.8 63.9 L 86.8 70.38157892227173 L 88.9 71.1 L 92.4 72.4 L 95.6 73.9 L 98.6 75.4 L 101.3 76.9 L 103.8 78.4 L 106.1 80.0 L 108.1 81.8 L 109.9 83.6 L 110.7 88.1 L 108.1 91.9 L 103.6 92.6 L 99.8 90.0 L 99.3 88.7 Z " />
</g>
</svg>
