<svg xmlns="http://www.w3.org/2000/svg" xmlns:xlink="http://www.w3.org/1999/xlink" version="1.1" baseProfile="full" viewBox="0 0 200 200" width="200" height="200">
<g fill="black">
<path d="M 167.8 171.1 L 168.0 171.7 L 168.1 172.1 L 168.3 172.2 L 168.4 172.4 L 168.8 172.5 L 169.3 172.7 L 170.2 172.9 L 171.5 173.0 L 176.1 173.0 L 182.1 148.0 L 184.1 148.0 L 182.1 173.0 L 185.7 175.4 L 188.1 179.0 L 185.7 182.6 L 182.1 185.0 L 171.5 185.0 L 168.9 184.8 L 166.4 184.4 L 164.0 183.6 L 161.8 182.3 L 159.7 180.7 L 158.1 178.6 L 156.9 176.4 L 156.1 174.0 L 155.7 171.5 L 155.6 168.9 L 156.38365678787233 73.0 L 129.08273382186889 73.0 L 124.67973937988282 167.15634183883668 L 127.1 166.5 L 133.1 164.8 L 139.4 163.1 L 146.0 161.5 L 152.8 160.1 L 153.4 161.8 L 147.3 165.1 L 141.3 168.1 L 135.4 170.9 L 129.7 173.6 L 124.1 176.1 L 118.8 178.5 L 113.6 180.8 L 108.6 183.0 L 103.7 185.2 L 102.8529655456543 185.5682758331299 L 102.0 189.3 L 99.1 187.2 L 93.0 176.7 L 94.9 176.0 L 99.8 174.5 L 104.8 173.0 L 110.1 171.4 L 112.5141360282898 170.69770584106445 L 118.95323743820191 33.0 L 100.7 33.0 L 100.7 29.0 L 161.0 29.0 L 171.0 19.0 L 183.0 29.0 L 183.0 33.0 L 130.9532374382019 33.0 L 129.2697841644287 69.0 L 156.4 69.0 L 162.4 64.0 L 173.4 73.0 L 168.4 76.0 L 167.40909872055053 76.4128755569458 L 167.6 169.0 L 167.6 170.2 Z M 75.4 175.1 L 72.2 172.5 L 68.3 169.7 L 63.949256896972656 167.20063695907592 L 58.7 171.7 L 51.0 176.9 L 42.6 181.2 L 33.5 184.7 L 23.7 187.2 L 13.3 188.8 L 12.9 187.1 L 22.7 183.6 L 31.6 179.7 L 39.6 175.4 L 46.9 170.5 L 53.3 165.2 L 55.351105499267575 163.03901386260986 L 52.1 161.6 L 45.3 158.9 L 37.9 156.0 L 34.02622756958008 154.56526947021484 L 31.7 158.2 L 28.4 163.3 L 18.4 156.6 L 21.7 151.7 L 24.8 146.8 L 27.9 142.0 L 30.8 137.2 L 32.66666669845581 134.0 L 12.3 134.0 L 12.3 130.0 L 35.0297872543335 130.0 L 36.4 127.7 L 39.0 123.0 L 41.5 118.3 L 43.9 113.7 L 45.791111087799074 110.0 L 21.8 110.0 L 21.8 106.0 L 48.4 106.0 L 48.4 87.0 L 13.9 87.0 L 13.9 83.0 L 48.4 83.0 L 48.4 64.0 L 21.8 64.0 L 21.8 60.0 L 48.4 60.0 L 48.4 42.0 L 13.9 42.0 L 13.9 38.0 L 48.4 38.0 L 48.4 13.0 L 60.4 15.0 L 63.4 17.0 L 60.4 18.8 L 60.4 38.0 L 79.3 38.0 L 89.3 28.0 L 101.3 38.0 L 101.3 42.0 L 60.4 42.0 L 60.4 60.0 L 78.6 60.0 L 84.6 55.0 L 95.6 64.0 L 90.6 68.0 L 90.6 83.0 L 94.0 83.0 L 98.5 77.0 L 104.5 83.0 L 104.5 87.0 L 90.6 87.0 L 90.6 112.0 L 78.6 118.0 L 78.6 110.0 L 49.828125 110.0 L 57.0 114.5 L 58.8 117.6 L 55.26400299072266 117.89966077804566 L 54.6 119.2 L 52.1 124.0 L 49.5 128.8 L 48.825 130.0 L 82.5 130.0 L 92.5 120.0 L 104.5 130.0 L 104.5 134.0 L 85.51648349761963 134.0 L 81.8 142.9 L 77.3 151.3 L 71.9 158.9 L 70.35 160.6 L 72.6 161.5 L 77.6 164.0 L 82.1 166.7 L 85.9 169.6 L 89.2 173.0 L 90.3 177.4 L 88.0 181.4 L 83.6 182.4 L 79.6 180.1 L 77.9 177.7 Z M 46.57142858505249 134.0 L 44.0 138.5 L 41.1 143.4 L 38.1 148.3 L 35.72152624130249 151.9420379638672 L 38.8 152.3 L 46.8 153.7 L 54.2 155.4 L 60.574719524383546 157.1126111984253 L 63.8 152.9 L 68.0 145.9 L 71.4 138.3 L 72.76507940292359 134.0 Z M 138.8 124.6 L 138.3 120.7 L 137.6 117.0 L 136.8 113.3 L 134.8 106.3 L 132.2 99.5 L 130.6 96.3 L 132.0 95.2 L 134.7 97.8 L 137.5 100.5 L 140.0 103.6 L 142.2 106.9 L 144.2 110.5 L 146.1 114.2 L 147.7 118.2 L 149.1 122.4 L 150.2 126.8 L 151.2 131.3 L 149.9 135.7 L 145.9 137.9 L 141.5 136.6 L 139.3 132.6 L 139.1 128.5 Z M 60.4 87.0 L 60.4 106.0 L 78.6 106.0 L 78.6 87.0 Z M 60.4 64.0 L 60.4 83.0 L 78.6 83.0 L 78.6 64.0 Z " />
</g>
</svg>
