<svg xmlns="http://www.w3.org/2000/svg" xmlns:xlink="http://www.w3.org/1999/xlink" version="1.1" baseProfile="full" viewBox="0 0 200 200" width="200" height="200">
<g fill="black">
<path d="M 164.3 171.1 L 164.5 171.7 L 164.7 172.1 L 165.0 172.4 L 165.9 172.7 L 166.8 172.9 L 168.0 173.0 L 175.7 173.0 L 181.7 148.0 L 183.7 148.0 L 181.7 173.0 L 185.3 175.4 L 187.7 179.0 L 185.3 182.6 L 181.7 185.0 L 168.0 185.0 L 165.5 184.8 L 163.0 184.4 L 160.6 183.6 L 158.3 182.3 L 156.3 180.7 L 154.6 178.6 L 153.4 176.4 L 152.7 174.0 L 152.2 171.5 L 152.1 168.9 L 153.07957096099852 73.0 L 119.8877697944641 73.0 L 114.7933482170105 167.41661310195923 L 118.8 166.4 L 125.7 164.7 L 132.9 163.1 L 140.4 161.5 L 148.1 160.1 L 148.6 161.8 L 141.5 165.1 L 134.5 168.2 L 127.7 171.0 L 121.1 173.6 L 114.7 176.2 L 108.4 178.6 L 102.4 180.9 L 96.6 183.1 L 91.0 185.3 L 89.4744101524353 185.89328489303588 L 88.4 189.6 L 85.6 187.4 L 80.0 176.5 L 81.9 175.9 L 87.5 174.5 L 93.3 172.9 L 99.3 171.3 L 102.62943735122681 170.4544285774231 L 110.04604320526123 33.0 L 88.2 33.0 L 88.2 29.0 L 160.8 29.0 L 170.8 19.0 L 182.8 29.0 L 182.8 33.0 L 122.04604320526123 33.0 L 120.10359716415405 69.0 L 153.1 69.0 L 159.1 64.0 L 170.1 73.0 L 165.1 76.0 L 164.1 76.41666669845581 L 164.1 169.0 L 164.2 170.2 Z M 79.5 139.8 L 77.3 136.6 L 74.8 133.6 L 72.3 130.8 L 69.5 128.0 L 66.6 125.4 L 63.5 122.9 L 62.0 121.76363639831543 L 62.0 182.0 L 50.0 188.0 L 50.0 127.39333333969117 L 48.6 130.1 L 44.0 138.3 L 39.2 145.9 L 34.3 152.8 L 29.2 159.1 L 24.0 164.7 L 18.5 169.6 L 12.9 173.6 L 11.7 172.3 L 15.8 166.9 L 19.9 161.3 L 24.0 155.2 L 28.0 148.6 L 31.9 141.5 L 35.8 133.9 L 39.6 125.7 L 43.3 117.0 L 46.9 107.7 L 49.29285717010498 101.0 L 12.3 101.0 L 12.3 97.0 L 50.0 97.0 L 50.0 59.0 L 30.46666669845581 59.0 L 30.1 60.1 L 27.9 66.2 L 25.4 72.3 L 22.6 78.1 L 19.5 83.8 L 16.0 89.3 L 14.3 88.6 L 16.0 82.4 L 17.6 76.2 L 19.2 70.1 L 20.6 64.0 L 22.0 57.8 L 23.1 51.6 L 24.1 45.4 L 25.0 39.1 L 25.7 32.7 L 26.121832370758057 27.30054578781128 L 26.1 27.3 L 26.4 24.2 L 38.1 27.6 L 40.9 29.9 L 37.39166412353516 31.554875469207765 L 36.9 34.3 L 35.6 40.9 L 34.0 47.4 L 32.2 53.8 L 31.8 55.0 L 50.0 55.0 L 50.0 16.0 L 62.0 18.0 L 65.0 20.0 L 62.0 21.8 L 62.0 55.0 L 71.1 55.0 L 81.1 45.0 L 93.1 55.0 L 93.1 59.0 L 62.0 59.0 L 62.0 97.0 L 73.0 97.0 L 83.0 87.0 L 95.0 97.0 L 95.0 101.0 L 62.0 101.0 L 62.0 117.64285717010497 L 65.7 118.7 L 69.8 120.3 L 73.7 122.3 L 77.4 124.5 L 81.0 127.1 L 84.4 130.0 L 87.7 133.1 L 90.8 136.5 L 93.7 140.2 L 94.4 144.7 L 91.8 148.5 L 87.3 149.2 L 83.5 146.6 L 81.6 143.1 Z M 132.7 124.7 L 132.1 120.9 L 131.2 117.1 L 130.3 113.5 L 129.1 110.0 L 127.7 106.5 L 126.2 103.1 L 124.6 99.6 L 122.6 96.3 L 123.9 95.1 L 127.0 97.6 L 130.0 100.3 L 132.8 103.4 L 135.3 106.7 L 137.6 110.3 L 139.6 114.0 L 141.4 118.0 L 142.9 122.2 L 144.2 126.6 L 145.3 131.2 L 144.1 135.6 L 140.1 137.9 L 135.7 136.7 L 133.4 132.7 L 133.1 128.7 Z " />
</g>
</svg>
