<svg xmlns="http://www.w3.org/2000/svg" xmlns:xlink="http://www.w3.org/1999/xlink" version="1.1" baseProfile="full" viewBox="0 0 200 200" width="200" height="200">
<g fill="black">
<path d="M 35.3 182.1 L 23.3 188.1 L 23.3 132.47142858505248 L 22.6380952835083 132.84965982437134 L 21.8 137.1 L 18.8 135.1 L 12.4 124.7 L 14.2 124.0 L 17.1 123.2 L 19.8 122.38999996185302 L 19.8 85.4 L 29.90461540222168 90.45230770111084 L 31.6 89.4 L 34.3 87.7 L 36.9 86.2 L 39.3 84.6 L 41.6 83.1 L 43.7 81.7 L 45.6 80.3 L 47.4 78.9 L 48.20290203094483 78.24764204025269 L 48.1 78.1 L 48.2267822265625 78.22823944091797 L 49.0 77.6 L 50.953821659088135 80.98662424087524 L 56.8 86.9 L 57.0 90.3 L 52.99160308837891 88.66946563720703 L 52.6 88.8 L 50.2 89.5 L 47.7 90.3 L 45.0 91.0 L 42.2 91.6 L 39.2 92.2 L 36.1 92.8 L 32.9 93.2 L 31.8 93.32941179275512 L 31.8 118.54864864349365 L 33.8 117.9 L 37.6 116.7 L 41.7 115.4 L 46.0 114.1 L 46.498969078063965 113.92989692687988 L 46.1 112.6 L 45.2 110.6 L 44.2 108.5 L 42.9 106.3 L 41.5 104.2 L 39.9 101.9 L 37.8 100.0 L 38.9 98.6 L 41.4 100.0 L 44.0 101.2 L 46.5 102.7 L 48.9 104.3 L 51.0 106.0 L 53.0 107.9 L 54.9 110.0 L 56.5 112.2 L 58.0 114.6 L 59.3 117.1 L 58.7 121.6 L 55.2 124.5 L 50.7 124.0 L 47.8 120.4 L 47.6 118.5 L 47.26313190460205 116.89987668991088 L 43.7 119.5 L 40.2 121.9 L 36.8 124.2 L 33.5 126.3 L 30.3 128.3 L 27.2 130.2 L 24.3 131.9 L 24.113333320617677 132.00666666030884 L 35.3 137.6 L 81.7 137.6 L 87.14285717010497 133.06428575515747 L 85.0 133.6 L 82.6 134.0 L 80.1 134.1 L 80.1 128.1 L 66.41635971069336 126.04745397567748 L 63.8 128.6 L 59.1 131.8 L 54.1 134.3 L 48.6 136.0 L 47.9 134.3 L 52.1 131.1 L 55.9 127.6 L 59.1 123.9 L 60.1 122.50714282989502 L 60.1 122.1 L 60.392307662963866 122.1 L 61.9 120.0 L 64.2 115.7 L 66.1 111.0 L 67.7 105.9 L 68.8 100.4 L 69.5 94.3 L 69.63548383712768 90.1 L 59.5 90.1 L 59.5 86.1 L 89.7 86.1 L 95.7 81.1 L 106.7 90.1 L 101.7021008491516 93.09873952865601 L 101.8 97.7 L 101.7 101.9 L 101.7 105.7 L 101.5 109.1 L 101.3 112.1 L 101.0 114.8 L 100.7 117.2 L 100.2 119.3 L 99.5 121.3 L 98.4 123.6 L 97.1 125.7 L 95.6 127.6 L 93.8 129.4 L 91.8 130.8 L 89.7 132.1 L 87.93366012573242 132.79117650985717 L 98.7 141.6 L 93.7 145.6 L 93.7 181.1 L 81.7 187.1 L 81.7 179.1 L 35.3 179.1 Z M 169.7 169.5 L 169.9 170.1 L 170.1 170.4 L 170.2 170.6 L 170.4 170.7 L 170.7 170.9 L 171.3 171.1 L 172.2 171.3 L 177.5 171.3 L 183.5 146.3 L 185.5 146.3 L 183.5 171.3 L 187.1 173.7 L 189.5 177.3 L 187.1 180.9 L 183.5 183.3 L 173.5 183.3 L 170.9 183.2 L 168.4 182.7 L 166.0 181.9 L 163.7 180.7 L 161.7 179.0 L 160.1 177.0 L 158.9 174.7 L 158.1 172.3 L 157.7 169.8 L 157.5 167.3 L 158.38221340179444 68.1 L 132.11396646499634 68.1 L 127.77276248931885 165.23443927764893 L 129.9 164.6 L 135.8 162.8 L 141.9 161.1 L 148.3 159.4 L 154.9 157.9 L 155.6 159.6 L 149.7 163.0 L 143.9 166.1 L 138.2 168.9 L 132.6 171.7 L 127.2 174.2 L 122.0 176.7 L 117.0 179.1 L 112.1 181.3 L 107.4 183.5 L 106.66967468261718 183.8408185005188 L 105.8 187.7 L 102.9 185.6 L 96.6 175.2 L 98.5 174.5 L 103.3 172.9 L 108.2 171.3 L 113.3 169.7 L 115.60624532699585 168.96026096343994 L 121.95530729293823 26.9 L 104.3 26.9 L 104.3 22.9 L 162.4 22.9 L 172.4 12.9 L 184.4 22.9 L 184.4 26.9 L 133.95530729293824 26.9 L 132.29273738861085 64.1 L 158.4 64.1 L 164.4 59.1 L 175.4 68.1 L 170.4 71.1 L 169.40440158843995 71.51483268737793 L 169.5 167.4 L 169.6 168.6 Z M 35.3 160.1 L 35.3 175.1 L 52.5 175.1 L 52.5 160.1 Z M 64.5 160.1 L 64.5 175.1 L 81.7 175.1 L 81.7 160.1 Z M 35.3 141.6 L 35.3 156.1 L 52.5 156.1 L 52.5 141.6 Z M 64.5 141.6 L 64.5 156.1 L 81.7 156.1 L 81.7 141.6 Z M 141.2 121.3 L 140.7 117.3 L 140.1 113.4 L 139.3 109.7 L 138.4 106.0 L 137.3 102.5 L 134.9 95.5 L 133.3 92.1 L 134.8 91.0 L 137.5 93.7 L 140.2 96.6 L 142.6 99.8 L 144.8 103.2 L 146.8 106.9 L 148.6 110.8 L 150.2 114.9 L 151.5 119.2 L 152.7 123.7 L 153.6 128.4 L 152.3 132.8 L 148.3 135.0 L 143.9 133.6 L 141.7 129.6 L 141.5 125.4 Z M 14.0 63.3 L 12.2 59.1 L 13.9 54.9 L 14.6 54.6 L 15.6 53.8 L 16.6 52.6 L 17.6 50.9 L 18.6 48.8 L 19.5 46.3 L 20.4 43.4 L 21.2 40.1 L 22.1 36.5 L 22.4 32.5 L 24.2 32.5 L 24.6 36.5 L 24.86842107772827 38.2 L 53.0 38.2 L 53.0 27.0 L 20.7 27.0 L 20.7 23.0 L 79.01818180084229 23.0 L 87.2 14.0 L 97.2 23.0 L 97.2 27.0 L 65.0 27.0 L 65.0 38.2 L 93.2 38.2 L 99.2 33.2 L 110.2 42.2 L 105.2 45.2 L 101.8890510559082 46.57956199645996 L 101.6 47.0 L 100.4 48.6 L 99.2 50.1 L 97.9 51.6 L 96.7 53.0 L 95.3 54.4 L 93.9 55.7 L 92.9 57.2 L 91.3 56.4 L 92.0 54.8 L 92.1 52.8 L 92.3 51.0 L 92.5 49.1 L 92.9 45.5 L 93.1 43.6 L 93.1777777671814 42.2 L 65.0 42.2 L 65.0 74.8 L 53.0 80.8 L 53.0 42.2 L 25.417142868041992 42.2 L 25.6 43.8 L 25.9 47.1 L 25.9 50.2 L 25.8 53.1 L 25.4 55.8 L 24.8 58.4 L 23.9 60.8 L 22.5 63.2 L 18.3 64.9 Z M 93.6 68.6 L 93.6 72.6 L 67.1 72.6 L 67.1 68.6 L 79.3777777671814 68.6 L 85.6 61.6 Z M 50.8 68.6 L 50.8 72.6 L 24.3 72.6 L 24.3 68.6 L 36.577777767181395 68.6 L 42.8 61.6 Z M 90.1 54.1 L 90.1 58.1 L 67.1 58.1 L 67.1 54.1 L 75.8777777671814 54.1 L 82.1 47.1 Z M 50.8 54.1 L 50.8 58.1 L 26.8 58.1 L 26.8 54.1 L 36.577777767181395 54.1 L 42.8 47.1 Z M 82.6 121.9 L 83.6 121.6 L 84.5 121.2 L 85.3 120.8 L 86.0 120.3 L 86.7 119.6 L 87.3 118.8 L 87.9 117.8 L 88.5 116.6 L 88.6 116.2 L 88.9 115.1 L 89.1 113.4 L 89.3 111.2 L 89.5 108.5 L 89.7 105.3 L 89.7 101.7 L 89.78870639801025 98.06303901672364 L 89.7 98.1 L 89.7 90.1 L 81.58082189559937 90.1 L 80.8 95.8 L 79.3 102.6 L 77.2 109.0 L 74.6 114.8 L 71.5 120.0 L 69.85652170181274 122.1 L 81.4 122.1 Z " />
</g>
</svg>
