<svg xmlns="http://www.w3.org/2000/svg" xmlns:xlink="http://www.w3.org/1999/xlink" version="1.1" baseProfile="full" viewBox="0 0 200 200" width="200" height="200">
<g fill="black">
<path d="M 118.4 176.9 L 133.6 176.9 L 134.6 176.7 L 135.1 176.5 L 135.7 176.2 L 135.8 176.0 L 136.0 175.7 L 136.2 175.1 L 136.3 174.2 L 136.4 172.9 L 136.4 131.3 L 103.9 131.3 L 103.9 127.3 L 136.4 127.3 L 136.4 104.1 L 118.0 104.1 L 118.0 100.1 L 147.9181818008423 100.1 L 156.1 91.1 L 166.1 100.1 L 166.1 104.1 L 148.4 104.1 L 148.4 127.3 L 160.4 127.3 L 170.4 117.3 L 182.4 127.3 L 182.4 131.3 L 148.4 131.3 L 148.4 172.9 L 148.3 175.5 L 147.8 178.0 L 147.0 180.4 L 145.8 182.7 L 144.2 184.7 L 142.1 186.3 L 139.9 187.5 L 137.5 188.3 L 135.0 188.8 L 132.4 188.9 L 132.4 182.9 L 118.4 179.9 Z M 102.3 137.2 L 101.4 139.6 L 100.2 141.8 L 98.7 143.8 L 96.8 145.5 L 94.8 147.0 L 92.5 148.0 L 90.1 148.8 L 87.6 149.2 L 85.1 149.3 L 85.1 143.3 L 77.1 140.3 L 77.1 137.3 L 86.3 137.3 L 87.4 137.1 L 88.2 136.8 L 88.8 136.6 L 89.3 136.2 L 89.7 135.8 L 89.90819272994995 135.5397590637207 L 90.6 132.2 L 91.4 129.2 L 91.9 126.0 L 92.0 122.8 L 91.8 119.4 L 91.2 115.8 L 90.1 112.1 L 88.7 108.1 L 86.8 104.0 L 84.5 99.7 L 81.8 95.2 L 82.125 94.875 L 81.0 94.2 L 82.8 89.4 L 84.6 84.7 L 86.2 80.3 L 87.8 76.0 L 89.3 71.9 L 90.6 67.9 L 91.8 64.0 L 92.9 60.3 L 93.63142852783203 57.1 L 73.9 57.1 L 73.9 182.7 L 62.9 188.2 L 62.9 47.6 L 73.9 53.1 L 94.2 53.1 L 100.2 48.1 L 111.2 57.1 L 106.2 60.1 L 104.25994234085083 60.908357334136966 L 102.8 64.0 L 101.0 67.7 L 98.9 71.5 L 96.7 75.3 L 94.3 79.2 L 91.7 83.2 L 88.9 87.1 L 85.8 91.1 L 83.33111114501953 94.09259262084962 L 87.3 97.4 L 91.1 100.9 L 94.4 104.7 L 97.2 108.6 L 99.5 112.7 L 101.4 116.9 L 102.7 121.2 L 103.5 125.7 L 103.8 130.2 L 103.5 134.9 L 102.71772613525391 135.45947437286378 Z M 12.7 122.0 L 15.4 121.2 L 18.3 120.3 L 21.4 119.2 L 24.6 117.9 L 27.9 116.5 L 31.3 114.9 L 34.9 113.2 L 38.6 111.4 L 42.40296411514282 109.54727392196655 L 42.5 98.0 L 42.5 31.5 L 53.5 37.0 L 104.0 37.0 L 104.0 12.0 L 116.0 14.0 L 119.0 16.0 L 116.0 17.8 L 116.0 37.0 L 164.0 37.0 L 174.0 27.0 L 186.0 37.0 L 186.0 41.0 L 53.5 41.0 L 53.5 98.0 L 52.8 110.5 L 51.5 122.2 L 49.5 133.3 L 46.8 143.6 L 43.3 153.1 L 39.2 161.7 L 34.3 169.6 L 28.8 176.6 L 22.4 182.6 L 15.5 187.6 L 14.4 186.3 L 20.0 180.2 L 24.9 173.5 L 29.2 166.4 L 32.9 158.7 L 36.1 150.3 L 38.6 141.3 L 40.5 131.6 L 41.7 121.1 L 42.13534479141235 114.13448276519776 L 41.2 115.1 L 38.1 118.0 L 35.1 120.7 L 32.0 123.2 L 29.0 125.6 L 26.0 127.7 L 23.0 129.7 L 21.009677410125732 130.89419355392457 L 20.1 135.2 L 17.1 133.1 L 10.8 122.8 Z M 127.4 147.6 L 129.3 150.7 L 125.39790573120118 151.10366487503052 L 125.0 151.8 L 122.5 155.9 L 119.9 159.9 L 117.2 163.8 L 114.3 167.5 L 111.3 171.0 L 108.2 174.5 L 105.0 177.7 L 101.5 180.7 L 97.9 183.5 L 96.6 182.3 L 98.9 178.5 L 101.0 174.6 L 103.2 170.7 L 105.3 166.9 L 107.4 162.9 L 109.4 159.0 L 111.3 155.0 L 113.1 150.9 L 114.9 146.7 L 116.21796703338623 143.4438461303711 L 116.1 143.4 L 117.1 141.4 Z M 170.7 170.1 L 169.5 166.7 L 168.0 163.4 L 166.4 160.1 L 164.7 156.8 L 162.7 153.6 L 160.6 150.3 L 158.4 147.0 L 155.9 143.8 L 157.1 142.5 L 160.6 144.8 L 164.0 147.1 L 167.2 149.7 L 170.2 152.6 L 173.0 155.6 L 175.6 158.8 L 178.0 162.1 L 180.3 165.7 L 182.3 169.4 L 184.1 173.2 L 183.8 177.7 L 180.4 180.8 L 175.8 180.5 L 172.8 177.1 L 171.8 173.6 Z M 168.9 98.5 L 164.9 94.1 L 161.0 89.3 L 157.2 83.9 L 153.4 78.1 L 149.8 71.8 L 146.2 65.0 L 143.76782007217406 59.61972322463989 L 141.7 64.1 L 137.9 71.5 L 133.8 78.4 L 129.4 84.8 L 124.7 90.7 L 119.8 96.1 L 114.5 100.9 L 108.9 105.1 L 103.0 108.6 L 101.9 107.1 L 106.4 102.2 L 110.7 97.2 L 114.8 91.8 L 118.7 86.2 L 122.3 80.2 L 125.7 73.8 L 128.9 67.0 L 131.9 59.9 L 134.6 52.3 L 137.1 44.2 L 137.11807231903077 44.20602407455444 L 137.6 42.7 L 148.5 48.0 L 150.8 50.8 L 147.09466972351075 51.64507532119751 L 145.88671751022338 54.778201484680174 L 146.5 55.6 L 151.3 62.0 L 155.8 67.9 L 160.2 73.3 L 164.5 78.2 L 168.7 82.6 L 172.8 86.4 L 176.8 89.8 L 180.8 92.6 L 184.5 94.9 L 188.3 97.4 L 177.3 105.9 L 173.0 102.5 Z M 24.3 76.9 L 23.6 73.9 L 22.7 70.9 L 21.7 68.1 L 20.5 65.4 L 19.2 62.7 L 17.8 60.1 L 16.2 57.5 L 14.2 55.3 L 15.3 53.8 L 18.0 55.5 L 20.8 57.2 L 23.5 59.2 L 26.0 61.5 L 28.3 64.1 L 30.4 67.0 L 32.3 70.1 L 34.1 73.4 L 35.7 76.9 L 37.1 80.6 L 36.3 85.1 L 32.6 87.9 L 28.1 87.1 L 25.4 83.4 L 24.9 80.1 Z " />
</g>
</svg>
