<svg xmlns="http://www.w3.org/2000/svg" xmlns:xlink="http://www.w3.org/1999/xlink" version="1.1" baseProfile="full" viewBox="0 0 200 200" width="200" height="200">
<g fill="black">
<path d="M 142.1 188.4 L 128.7 187.4 L 117.7 185.8 L 108.7 183.4 L 101.5 180.4 L 95.7 176.7 L 91.4 172.3 L 88.2 167.5 L 86.91157951354981 164.53103094100953 L 85.6 166.0 L 83.2 168.8 L 80.8 171.5 L 78.3 174.1 L 75.9 176.6 L 73.4 179.0 L 70.9 181.3 L 68.5 183.6 L 67.0 184.9125 L 67.0 189.2 L 63.6 187.8 L 55.3 179.0 L 57.0 177.9 L 59.7 176.5 L 62.5 175.0 L 68.3 172.0 L 71.2 170.4 L 74.2 168.7 L 77.3 167.0 L 78.0 166.65 L 78.0 125.3 L 58.0 125.3 L 58.0 121.3 L 78.0 121.3 L 84.0 116.3 L 95.0 125.3 L 90.0 129.3 L 90.0 162.9 L 89.53913040161133 163.13043479919435 L 91.5 164.9 L 95.4 168.1 L 99.7 170.7 L 104.8 172.7 L 111.2 174.4 L 119.3 175.7 L 129.5 176.4 L 142.3 176.6 L 157.8 176.2 L 176.5 175.2 L 187.8 174.6 L 177.2 188.3 L 158.1 188.7 Z M 12.7 122.0 L 15.4 121.2 L 18.3 120.3 L 21.4 119.2 L 24.6 117.9 L 27.9 116.5 L 31.3 114.9 L 34.9 113.2 L 38.6 111.4 L 41.900908660888675 109.79186496734619 L 42.0 98.0 L 42.0 31.0 L 54.0 37.0 L 104.0 37.0 L 104.0 12.0 L 116.0 14.0 L 119.0 16.0 L 116.0 17.8 L 116.0 37.0 L 164.0 37.0 L 174.0 27.0 L 186.0 37.0 L 186.0 41.0 L 54.0 41.0 L 54.0 98.0 L 53.3 110.5 L 52.0 122.3 L 49.9 133.4 L 47.2 143.7 L 43.7 153.2 L 39.5 161.9 L 34.6 169.8 L 28.9 176.7 L 22.6 182.7 L 15.5 187.7 L 14.4 186.2 L 19.9 180.0 L 24.7 173.4 L 29.0 166.3 L 32.7 158.6 L 35.7 150.2 L 38.2 141.2 L 40.0 131.5 L 41.3 121.0 L 41.6436749458313 114.64201288223266 L 41.2 115.1 L 38.1 118.0 L 35.1 120.7 L 32.0 123.2 L 29.0 125.6 L 26.0 127.7 L 23.0 129.7 L 21.009677410125732 130.89419355392457 L 20.1 135.2 L 17.1 133.1 L 10.8 122.8 Z M 101.6 159.9 L 106.1 158.6 L 110.4 157.31914892196656 L 110.4 49.3 L 122.4 55.3 L 155.0 55.3 L 161.0 50.3 L 172.0 59.3 L 167.0 63.3 L 167.0 111.1 L 155.0 117.1 L 155.0 111.1 L 122.4 111.1 L 122.4 153.7285714149475 L 125.3 152.9 L 130.4 151.4 L 135.6 149.9 L 140.9 148.4 L 146.4 147.1 L 152.0 145.8 L 152.7 147.5 L 147.8 150.6 L 142.9 153.4 L 138.0 156.0 L 133.1 158.4 L 128.4 160.8 L 123.7 163.0 L 119.1 165.2 L 114.5 167.3 L 110.0 169.3 L 109.5199107170105 169.51213245391847 L 108.6 173.3 L 105.7 171.2 L 99.7 160.6 Z M 164.8 157.8 L 162.2 154.1 L 159.0 150.4 L 155.4 146.7 L 151.4 142.9 L 146.8 139.1 L 141.8 135.2 L 136.4 131.2 L 130.5 127.0 L 131.3 125.4 L 138.2 127.9 L 144.6 130.6 L 150.5 133.6 L 152.82727270126344 134.97912454605103 L 153.0 134.8 L 155.3 131.8 L 159.7 126.2 L 161.8 123.6 L 163.7 121.1 L 165.5 118.6 L 167.2 116.3 L 168.8 114.0 L 169.67422218322753 112.6262222290039 L 169.5 112.5 L 170.6 111.3 L 179.3 119.6 L 180.2 123.1 L 176.04546842575073 122.37113485336303 L 174.8 123.4 L 172.3 125.3 L 169.8 127.3 L 167.1 129.2 L 164.2 131.2 L 161.3 133.1 L 158.1 135.0 L 155.44351587295532 136.52949085235596 L 155.9 136.8 L 160.9 140.2 L 165.5 143.7 L 169.6 147.4 L 173.3 151.3 L 176.6 155.4 L 179.4 159.6 L 179.7 164.2 L 176.8 167.7 L 172.2 168.0 L 168.7 165.1 L 167.0 161.5 Z M 122.4 84.4 L 122.4 107.1 L 155.0 107.1 L 155.0 84.4 Z M 74.1 98.5 L 72.7 96.4 L 71.2 94.3 L 69.7 92.3 L 68.0 90.3 L 66.2 88.3 L 62.3 84.4 L 60.0 82.8 L 60.8 81.2 L 63.5 82.2 L 66.3 83.0 L 69.1 84.0 L 71.8 85.2 L 74.4 86.5 L 76.9 88.0 L 79.4 89.7 L 81.7 91.5 L 84.0 93.5 L 86.2 95.6 L 87.3 100.0 L 85.0 104.0 L 80.6 105.1 L 76.6 102.8 L 75.4 100.6 Z M 24.3 76.9 L 23.6 73.9 L 22.7 70.9 L 21.7 68.1 L 20.5 65.4 L 19.2 62.7 L 17.8 60.1 L 16.2 57.5 L 14.2 55.3 L 15.3 53.8 L 18.0 55.5 L 20.8 57.2 L 23.5 59.2 L 26.0 61.5 L 28.3 64.1 L 30.4 67.0 L 32.3 70.1 L 34.1 73.4 L 35.7 76.9 L 37.1 80.6 L 36.3 85.1 L 32.6 87.9 L 28.1 87.1 L 25.4 83.4 L 24.9 80.1 Z M 122.4 59.3 L 122.4 80.4 L 155.0 80.4 L 155.0 59.3 Z M 79.9 66.8 L 78.6 64.8 L 77.1 62.7 L 75.6 60.7 L 73.9 58.6 L 72.1 56.6 L 70.1 54.5 L 67.8 52.8 L 68.7 51.2 L 71.4 52.4 L 74.3 53.3 L 77.0 54.4 L 79.6 55.7 L 82.1 57.2 L 84.5 58.8 L 86.8 60.5 L 89.0 62.4 L 91.1 64.4 L 93.1 66.6 L 93.9 71.1 L 91.3 74.9 L 86.8 75.6 L 83.0 73.1 L 82.1 71.0 Z " />
</g>
</svg>
