<svg xmlns="http://www.w3.org/2000/svg" xmlns:xlink="http://www.w3.org/1999/xlink" version="1.1" baseProfile="full" viewBox="0 0 200 200" width="200" height="200">
<g fill="black">
<path d="M 12.5 120.0 L 15.1 119.3 L 17.8 118.3 L 20.7 117.2 L 23.7 116.0 L 26.8 114.6 L 33.4 111.3 L 37.0 109.4 L 39.916788291931155 107.90218982696533 L 40.0 98.0 L 40.0 26.0 L 52.0 32.0 L 103.0 32.0 L 103.0 12.0 L 115.0 14.0 L 118.0 16.0 L 115.0 17.8 L 115.0 32.0 L 167.8181818008423 32.0 L 176.0 23.0 L 186.0 32.0 L 186.0 36.0 L 52.0 36.0 L 52.0 98.0 L 51.3 110.5 L 50.0 122.3 L 48.0 133.3 L 45.3 143.6 L 41.9 153.1 L 37.9 161.8 L 33.1 169.7 L 27.6 176.7 L 21.4 182.7 L 14.5 187.6 L 13.4 186.3 L 18.7 180.1 L 23.3 173.4 L 27.5 166.3 L 31.0 158.6 L 34.0 150.3 L 36.3 141.2 L 38.1 131.5 L 39.3 121.1 L 39.73614130020142 112.95869569778442 L 39.7 113.0 L 36.8 115.9 L 33.9 118.6 L 31.1 121.1 L 28.3 123.5 L 25.5 125.6 L 22.7 127.6 L 21.105434799194335 128.66304349899292 L 20.3 133.0 L 17.2 131.1 L 10.7 120.8 Z M 79.9 151.5 L 79.9 163.0 L 97.8 163.0 L 97.8 151.5 Z M 109.8 151.5 L 109.8 163.0 L 127.1 163.0 L 127.1 151.5 Z M 139.1 151.5 L 139.1 163.0 L 157.0 163.0 L 157.0 151.5 Z M 143.4 113.0 L 143.4 117.0 L 91.3 117.0 L 91.3 113.76438360214233 L 84.4 116.6 L 76.7 119.4 L 71.23720932006836 121.01860466003419 L 75.8 123.3 L 87.6 123.3 L 92.1 118.3 L 101.6 127.3 L 96.6 129.8 L 96.6 140.8 L 87.6 145.3 L 87.6 140.8 L 75.8 140.8 L 71.15 143.125 L 79.9 147.5 L 157.0 147.5 L 161.1 144.0833333015442 L 161.1 140.8 L 149.3 140.8 L 140.3 145.3 L 140.3 118.8 L 149.3 123.3 L 161.1 123.3 L 163.52838983535767 121.09237289428711 L 162.7 120.8 L 156.2 118.1 L 149.8 115.1 L 143.6 111.9 L 139.07518796920778 109.21578950881958 Z M 138.9 127.3 L 133.9 129.8 L 133.9 140.8 L 124.9 145.3 L 124.9 140.8 L 112.0 140.8 L 103.0 145.3 L 103.0 118.8 L 112.0 123.3 L 124.9 123.3 L 129.4 118.3 Z M 149.3 127.3 L 149.3 136.8 L 161.1 136.8 L 161.1 127.3 Z M 112.0 127.3 L 112.0 136.8 L 124.9 136.8 L 124.9 127.3 Z M 75.8 127.3 L 75.8 136.8 L 87.6 136.8 L 87.6 127.3 Z M 177.1 127.3 L 172.1 130.8 L 172.1 140.8 L 165.16206893920898 144.26896553039552 L 174.0 151.5 L 169.0 155.5 L 169.0 172.6 L 168.8 175.1 L 168.4 177.6 L 167.6 180.0 L 166.4 182.3 L 164.7 184.3 L 162.7 186.0 L 160.4 187.2 L 158.0 188.0 L 155.5 188.4 L 153.0 188.6 L 153.0 182.6 L 137.0 179.6 L 137.0 179.05 L 127.1 184.0 L 127.1 167.0 L 109.8 167.0 L 109.8 178.0 L 97.8 184.0 L 97.8 167.0 L 79.9 167.0 L 79.9 180.2 L 67.9 186.2 L 67.9 144.75 L 64.8 146.3 L 64.8 122.65952377319336 L 60.2 123.7 L 51.5 125.2 L 51.0 123.4 L 59.1 120.1 L 66.9 116.7 L 74.2 113.3 L 81.2 109.7 L 87.8 106.0 L 94.0 102.2 L 99.9 98.1 L 105.3 93.9 L 110.4 89.5 L 111.01304349899291 88.9 L 84.6 88.9 L 84.6 95.9 L 72.6 101.9 L 72.6 43.4 L 84.6 49.4 L 111.21999998092652 49.4 L 112.0 48.1 L 112.8 46.7 L 113.5 45.3 L 114.1 44.0 L 115.1 41.6 L 115.4 40.5 L 115.685560131073 39.54813280105591 L 115.3 39.3 L 116.3 37.9 L 125.4 45.8 L 126.5 49.3 L 120.7 48.6 L 122.82073173522949 47.33658533096313 L 121.6 47.9 L 120.2 48.6 L 118.7 49.2 L 118.13999996185302 49.4 L 156.3 49.4 L 162.3 44.4 L 173.3 53.4 L 168.3 57.4 L 168.3 92.9 L 156.3 98.9 L 156.3 88.9 L 119.17528085708618 88.9 L 121.31743431091309 91.28314571380615 L 124.2 92.7 L 129.9 95.6 L 135.8 98.4 L 141.6 101.0 L 147.6 103.5 L 153.7 105.7 L 160.0 107.7 L 166.4 109.6 L 172.9 111.2 L 179.6 112.6 L 188.3 114.7 L 176.5 125.4 L 173.94736843109132 124.59774436950684 Z M 117.7 98.2 L 111.7 102.5 L 105.4 106.5 L 98.7 110.2 L 92.93529415130615 113.0 L 129.1777777671814 113.0 L 134.93465347290038 106.52351484298705 L 132.1 104.6 L 126.7 100.6 L 122.43371105194092 96.76033992767334 L 120.24516124725342 96.14601020812988 Z M 84.6 76.5 L 84.6 84.9 L 115.1777777671814 84.9 L 115.4 84.7 L 115.57977523803712 84.9 L 156.3 84.9 L 156.3 76.5 Z M 23.3 72.9 L 22.6 69.9 L 21.7 66.9 L 20.7 64.1 L 19.5 61.4 L 18.2 58.7 L 16.8 56.1 L 15.2 53.5 L 13.2 51.3 L 14.3 49.8 L 17.0 51.5 L 19.8 53.2 L 22.5 55.2 L 25.0 57.5 L 27.3 60.1 L 29.4 63.0 L 31.3 66.1 L 33.1 69.4 L 34.7 72.9 L 36.1 76.6 L 35.3 81.1 L 31.6 83.9 L 27.1 83.1 L 24.4 79.4 L 23.9 76.1 Z M 84.6 65.0 L 84.6 72.5 L 156.3 72.5 L 156.3 65.0 Z M 84.6 53.4 L 84.6 61.0 L 156.3 61.0 L 156.3 53.4 Z M 139.1 167.0 L 139.1 176.6 L 153.0 176.6 L 154.2 176.5 L 155.1 176.3 L 155.7 176.2 L 156.0 176.0 L 156.4 175.6 L 156.7 174.7 L 156.9 173.8 L 157.0 172.6 L 157.0 167.0 Z " />
</g>
</svg>
