<svg xmlns="http://www.w3.org/2000/svg" xmlns:xlink="http://www.w3.org/1999/xlink" version="1.1" baseProfile="full" viewBox="0 0 200 200" width="200" height="200">
<g fill="black">
<path d="M 71.9 156.2 L 70.3 151.9 L 68.3 147.6 L 66.0 143.4 L 63.4 139.4 L 60.5 135.3 L 57.2 131.4 L 53.71386137008667 127.41584157943726 L 51.1 137.0 L 47.0 148.2 L 42.0 158.4 L 36.2 167.7 L 29.5 175.9 L 21.9 182.9 L 13.5 188.7 L 12.5 187.2 L 19.3 180.1 L 25.3 172.4 L 30.7 164.1 L 35.2 155.1 L 39.1 145.2 L 42.1 134.5 L 44.5 122.9 L 46.1 110.5 L 46.61127815246582 102.0 L 14.5 102.0 L 14.5 98.0 L 46.85187969207764 98.0 L 46.9 97.2 L 47.0 83.0 L 47.0 54.0 L 36.09714288711548 54.0 L 35.9 54.6 L 33.4 61.6 L 30.7 68.6 L 27.7 75.5 L 24.4 82.4 L 20.6 89.3 L 19.0 88.6 L 20.8 81.1 L 22.6 73.7 L 24.5 66.5 L 26.2 59.4 L 27.8 52.3 L 29.2 45.3 L 30.5 38.4 L 31.6 31.6 L 32.6 24.8 L 33.2817120552063 19.005447483062746 L 33.2 19.0 L 33.7 16.0 L 45.2 19.8 L 47.9 22.3 L 44.41612901687622 23.719354820251464 L 43.8 26.8 L 42.1 33.7 L 40.3 40.6 L 38.2 47.6 L 37.41142854690552 50.0 L 62.0 50.0 L 72.0 40.0 L 84.0 50.0 L 84.0 54.0 L 59.0 54.0 L 59.0 83.0 L 58.3 97.8 L 58.27857141494751 98.0 L 65.0 98.0 L 75.0 88.0 L 87.0 98.0 L 87.0 102.0 L 57.85 102.0 L 56.8 111.8 L 54.621802520751956 123.68932809829712 L 56.1 124.4 L 60.8 127.4 L 65.2 130.8 L 69.2 134.5 L 72.9 138.5 L 76.2 142.7 L 79.2 147.3 L 81.8 152.1 L 84.1 157.1 L 86.0 162.3 L 85.3 166.9 L 81.7 169.7 L 77.2 169.0 L 74.4 165.4 L 73.3 160.7 Z M 110.2 114.8 L 165.1 114.8 L 171.1 109.8 L 182.1 118.8 L 177.1 122.8 L 177.1 176.1 L 165.1 182.1 L 165.1 172.1 L 110.2 172.1 L 110.2 179.1 L 98.2 185.1 L 98.2 108.8 Z M 110.2 118.8 L 110.2 168.1 L 165.1 168.1 L 165.1 118.8 Z M 170.8 92.2 L 169.2 94.1 L 167.4 95.8 L 165.5 97.2 L 163.3 98.4 L 161.0 99.3 L 158.7 99.9 L 156.2 100.3 L 153.7 100.4 L 153.7 94.4 L 133.7 91.4 L 133.7 88.4 L 155.0 88.4 L 156.2 88.2 L 157.3 87.9 L 158.2 87.5 L 159.0 87.1 L 159.7 86.5 L 160.5 85.9 L 161.1 85.0 L 161.8 84.0 L 162.4 82.8 L 163.6 80.0 L 164.6 76.6 L 165.7 72.6 L 166.6 67.9 L 167.4 62.7 L 168.1 56.9 L 168.7 50.5 L 169.2 43.5 L 169.5 36.0 L 169.72124996185303 30.1 L 136.0307692527771 30.1 L 135.1 40.0 L 133.1 51.0 L 130.2 61.3 L 126.5 70.9 L 121.8 79.6 L 116.3 87.6 L 110.0 94.7 L 102.8 100.9 L 94.8 106.1 L 86.0 110.3 L 85.1 108.7 L 92.6 103.0 L 99.3 96.8 L 105.1 90.3 L 110.1 83.2 L 114.4 75.5 L 117.9 67.3 L 120.6 58.5 L 122.6 49.0 L 123.8 38.8 L 124.04392518997193 30.1 L 90.2 30.1 L 90.2 26.1 L 169.8 26.1 L 175.8 21.1 L 186.8 30.1 L 181.8 33.1 L 181.620183467865 33.174923515319826 L 181.5 36.5 L 181.1 44.2 L 180.6 51.5 L 180.0 58.1 L 179.3 64.3 L 178.4 70.0 L 177.4 75.2 L 176.2 79.9 L 174.9 84.1 L 173.3 87.9 L 172.2 90.1 Z " />
</g>
</svg>
