<svg xmlns="http://www.w3.org/2000/svg" xmlns:xlink="http://www.w3.org/1999/xlink" version="1.1" baseProfile="full" viewBox="0 0 200 200" width="200" height="200">
<g fill="black">
<path d="M 129.8 127.8 L 132.5 130.2 L 128.88467922210694 131.7398588180542 L 127.5 137.7 L 124.1 146.7 L 119.7 155.1 L 114.4 162.6 L 108.0 169.2 L 100.7 175.0 L 92.6 179.8 L 83.5 183.8 L 73.6 186.8 L 62.9 188.8 L 62.5 187.1 L 72.4 183.2 L 81.3 178.9 L 89.2 174.2 L 96.1 168.9 L 102.0 163.2 L 107.0 156.9 L 111.0 150.1 L 114.2 142.7 L 116.5 134.7 L 117.9 126.1 L 117.92367153167724 126.10338163375854 L 118.2 124.1 Z M 76.3 155.4 L 74.4 151.0 L 72.3 146.7 L 69.7 142.6 L 66.9 138.5 L 63.6 134.4 L 60.0 130.4 L 56.1 126.4 L 55.61782283782959 125.92930326461791 L 52.7 136.1 L 48.3 147.3 L 42.9 157.6 L 36.6 166.8 L 29.4 174.9 L 21.3 181.9 L 12.3 187.7 L 11.3 186.2 L 18.8 179.1 L 25.4 171.4 L 31.3 163.0 L 36.3 153.9 L 40.5 144.1 L 43.9 133.4 L 46.4 121.9 L 48.2 109.4 L 48.76842107772827 101.0 L 13.4 101.0 L 13.4 97.0 L 49.03909778594971 97.0 L 49.1 96.1 L 49.3 82.0 L 49.3 53.0 L 36.53999996185303 53.0 L 36.3 53.7 L 33.6 60.7 L 30.7 67.6 L 27.5 74.6 L 23.9 81.5 L 20.0 88.3 L 18.3 87.6 L 20.4 80.1 L 22.5 72.7 L 24.5 65.4 L 26.4 58.3 L 28.2 51.2 L 29.8 44.2 L 31.2 37.3 L 32.5 30.5 L 33.5 23.7 L 34.265016651153566 18.004876232147218 L 34.2 18.0 L 34.7 15.0 L 46.2 18.9 L 48.9 21.4 L 45.35699205398559 22.777836418151857 L 44.7 25.8 L 42.9 32.8 L 41.0 39.7 L 38.7 46.7 L 37.91142854690552 49.0 L 66.9 49.0 L 76.9 39.0 L 88.9 49.0 L 88.9 53.0 L 61.3 53.0 L 61.3 82.0 L 60.5 96.9 L 60.48785715103149 97.0 L 70.2 97.0 L 80.2 87.0 L 92.2 97.0 L 92.2 101.0 L 60.00214281082153 101.0 L 58.8 110.9 L 56.48500003814697 122.475 L 58.3 123.3 L 63.5 126.3 L 68.1 129.7 L 72.5 133.3 L 76.4 137.3 L 80.0 141.6 L 83.2 146.1 L 86.0 150.9 L 88.5 156.0 L 90.5 161.2 L 89.9 165.8 L 86.4 168.6 L 81.8 168.0 L 79.0 164.5 L 77.8 159.9 Z M 182.3 145.0 L 184.3 145.0 L 182.3 170.0 L 185.9 172.4 L 188.3 176.0 L 185.9 179.6 L 182.3 182.0 L 153.8 182.0 L 151.2 181.8 L 148.7 181.4 L 146.3 180.6 L 144.1 179.3 L 142.0 177.7 L 140.4 175.7 L 139.2 173.4 L 138.4 171.0 L 137.9 168.5 L 137.8 166.0 L 137.8 122.4 L 110.8 122.4 L 110.8 134.4 L 98.8 140.4 L 98.8 19.2 L 110.8 25.2 L 161.2 25.2 L 167.2 20.2 L 178.2 29.2 L 173.2 33.2 L 173.2 128.4 L 161.2 134.4 L 161.2 122.4 L 149.8 122.4 L 149.8 166.0 L 149.9 167.2 L 150.0 168.1 L 150.2 168.7 L 150.4 169.0 L 150.5 169.2 L 150.7 169.4 L 151.1 169.5 L 151.6 169.7 L 152.6 169.9 L 153.8 170.0 L 176.3 170.0 Z M 110.8 90.0 L 110.8 118.4 L 161.2 118.4 L 161.2 90.0 Z M 110.8 59.6 L 110.8 86.0 L 161.2 86.0 L 161.2 59.6 Z M 110.8 29.2 L 110.8 55.6 L 161.2 55.6 L 161.2 29.2 Z " />
</g>
</svg>
