<svg xmlns="http://www.w3.org/2000/svg" xmlns:xlink="http://www.w3.org/1999/xlink" version="1.1" baseProfile="full" viewBox="0 0 200 200" width="200" height="200">
<g fill="black">
<path d="M 77.7 176.0 L 127.0 176.0 L 127.0 148.0 L 95.9 148.0 L 95.9 144.0 L 127.0 144.0 L 127.0 118.0 L 105.07627115249633 118.0 L 103.5 121.1 L 100.2 126.7 L 96.6 132.1 L 92.7 137.2 L 88.5 142.0 L 84.0 146.5 L 79.0 150.6 L 77.7 149.3 L 81.1 144.0 L 84.3 138.8 L 87.3 133.5 L 90.1 128.1 L 92.8 122.7 L 95.1 117.1 L 97.3 111.4 L 99.1 105.6 L 100.8 99.6 L 101.97148084640503 94.41201362609863 L 101.9 94.4 L 102.6 91.7 L 113.8 96.4 L 116.2 99.1 L 112.57185497283936 100.20140113830567 L 111.7 102.9 L 109.2 109.2 L 107.03999996185303 114.0 L 127.0 114.0 L 127.0 88.0 L 139.0 90.0 L 142.0 92.0 L 139.0 93.8 L 139.0 114.0 L 158.4 114.0 L 168.4 104.0 L 180.4 114.0 L 180.4 118.0 L 139.0 118.0 L 139.0 144.0 L 151.9 144.0 L 161.9 134.0 L 173.9 144.0 L 173.9 148.0 L 139.0 148.0 L 139.0 176.0 L 166.2 176.0 L 176.2 166.0 L 188.2 176.0 L 188.2 180.0 L 77.7 180.0 Z M 79.8 36.0 L 79.8 40.0 L 54.294059371948244 40.0 L 51.9 49.3 L 48.9 59.2 L 45.5 68.9 L 41.8 78.4 L 38.921276569366455 85.0 L 59.6 85.0 L 65.6 80.0 L 76.6 89.0 L 71.6 93.0 L 71.6 163.0 L 59.6 169.0 L 59.6 157.0 L 40.4 157.0 L 40.4 169.0 L 28.4 175.0 L 28.4 106.0 L 23.1 114.8 L 17.4 123.2 L 11.2 131.4 L 9.7 130.5 L 14.1 121.3 L 18.4 112.2 L 22.5 103.1 L 26.3 93.9 L 28.4 88.31999998092651 L 28.4 88.0 L 28.520430088043213 88.0 L 29.8 84.6 L 33.1 75.2 L 36.0 65.8 L 38.6 56.2 L 40.9 46.5 L 42.1235294342041 40.0 L 14.9 40.0 L 14.9 36.0 L 57.8 36.0 L 67.8 26.0 Z M 40.4 89.0 L 40.4 153.0 L 59.6 153.0 L 59.6 89.0 Z M 103.9 24.2 L 162.1 24.2 L 168.1 19.2 L 179.1 28.2 L 174.1 32.2 L 174.1 90.7 L 162.1 96.7 L 162.1 84.7 L 103.9 84.7 L 91.9 90.7 L 91.9 18.2 Z M 103.9 55.6 L 103.9 80.7 L 162.1 80.7 L 162.1 55.6 Z M 103.9 28.2 L 103.9 51.6 L 162.1 51.6 L 162.1 28.2 Z " />
</g>
</svg>
