<svg xmlns="http://www.w3.org/2000/svg" xmlns:xlink="http://www.w3.org/1999/xlink" version="1.1" baseProfile="full" viewBox="0 0 200 200" width="200" height="200">
<g fill="black">
<path d="M 87.0 24.0 L 112.5 24.0 L 118.0 19.0 L 128.5 28.0 L 123.5 31.5 L 123.5 73.0 L 112.5 78.5 L 112.5 71.0 L 87.0 71.0 L 87.0 183.2 L 76.0 188.7 L 76.0 18.5 Z M 149.4 176.0 L 167.4 176.0 L 168.6 175.9 L 169.5 175.7 L 170.4 175.4 L 170.8 175.0 L 171.0 174.7 L 171.2 174.1 L 171.3 173.2 L 171.4 172.0 L 171.4 71.0 L 146.4 71.0 L 146.4 74.0 L 135.4 79.5 L 135.4 79.0666666984558 L 134.5 79.66666669845581 L 134.5 90.7 L 146.4181818008423 90.7 L 154.6 81.7 L 164.6 90.7 L 164.6 94.7 L 134.5 94.7 L 134.5 104.3 L 147.4 104.3 L 152.9 99.3 L 163.4 108.3 L 158.4 111.8 L 158.4 139.2 L 147.4 144.7 L 147.4 137.2 L 134.5 137.2 L 134.5 138.378125 L 136.0 140.3 L 139.2 143.9 L 142.3 147.3 L 145.4 150.4 L 148.4 153.1 L 151.5 155.6 L 154.6 157.7 L 157.8 159.5 L 160.9 161.0 L 164.1 162.2 L 169.8 164.9 L 158.4 174.2 L 154.7 171.8 L 151.2 169.1 L 147.8 166.1 L 144.7 162.8 L 141.9 159.2 L 139.2 155.4 L 136.8 151.2 L 134.6 146.8 L 134.5 146.5388889312744 L 134.5 171.6 L 124.5 176.6 L 124.5 150.5125 L 123.3 152.2 L 119.8 156.5 L 116.1 160.4 L 112.3 163.9 L 108.2 167.0 L 103.9 169.8 L 99.4 172.0 L 94.7 173.7 L 93.9 172.1 L 100.7 165.5 L 103.8 162.1 L 106.9 158.6 L 109.7 154.8 L 112.4 150.9 L 114.9 146.7 L 117.3 142.3 L 119.4 137.6 L 119.5666666984558 137.2 L 111.9 137.2 L 111.9 140.2 L 100.9 145.7 L 100.9 98.8 L 111.9 104.3 L 124.5 104.3 L 124.5 94.7 L 95.1 94.7 L 95.1 90.7 L 124.5 90.7 L 124.5 74.0 L 134.5 76.0 L 135.4 76.71999998092652 L 135.4 18.5 L 146.4 24.0 L 171.4 24.0 L 177.4 19.0 L 188.4 28.0 L 183.4 32.0 L 183.4 172.0 L 183.2 174.5 L 182.8 177.0 L 182.0 179.4 L 180.8 181.7 L 179.1 183.7 L 177.1 185.3 L 174.8 186.6 L 172.4 187.4 L 169.9 187.8 L 167.4 188.0 L 167.4 182.0 L 149.4 179.0 Z M 71.2 36.0 L 71.2 40.0 L 49.38400001525879 40.0 L 47.2 49.1 L 44.5 59.0 L 41.5 68.7 L 38.2 78.3 L 35.53440856933594 85.0 L 53.1 85.0 L 58.6 80.0 L 69.1 89.0 L 64.1 92.5 L 64.1 163.0 L 53.1 168.5 L 53.1 157.0 L 37.1 157.0 L 37.1 169.0 L 25.1 175.0 L 25.1 107.859574508667 L 21.5 114.6 L 16.3 123.2 L 10.7 131.4 L 9.2 130.5 L 13.0 121.4 L 16.7 112.3 L 20.2 103.2 L 23.5 94.0 L 25.1 89.25161294937134 L 25.1 88.0 L 25.521739101409914 88.0 L 26.6 84.8 L 29.4 75.4 L 31.9 65.9 L 34.1 56.3 L 36.1 46.6 L 37.17441864013672 40.0 L 13.9 40.0 L 13.9 36.0 L 49.2 36.0 L 59.2 26.0 Z M 37.1 89.0 L 37.1 153.0 L 53.1 153.0 L 53.1 89.0 Z M 115.5 126.2 L 115.3 124.8 L 115.0 123.3 L 114.6 121.8 L 114.1 120.2 L 113.4 118.5 L 112.8 116.8 L 112.0 115.0 L 111.9 114.88461542129517 L 111.9 133.2 L 124.5 133.2 L 124.5 130.9333333015442 L 123.4 132.0 L 118.9 131.9 L 115.7 128.7 L 115.6 127.5 Z M 145.3 122.3 L 143.6 124.0 L 142.0 125.7 L 140.2 127.3 L 138.3 128.9 L 136.4 130.4 L 134.8 132.2 L 134.5 131.9800000190735 L 134.5 133.2 L 147.4 133.2 L 147.4 119.78000001907348 Z M 134.5 108.3 L 134.5 129.1 L 135.3 126.8 L 136.0 124.5 L 136.7 122.4 L 137.4 120.2 L 138.1 118.1 L 138.7 116.0 L 139.3 114.0 L 139.8 111.9 L 140.06012144088746 110.85951414108277 L 139.9 110.8 L 140.26842107772828 110.02631578445434 L 140.3 109.9 L 140.32336549758912 109.91093244552613 L 140.9 108.7 L 147.4 112.67572813034057 L 147.4 108.3 Z M 111.9 108.3 L 111.9 112.3 L 112.0 112.2 L 113.5 113.5 L 115.3 114.4 L 117.1 115.5 L 118.7 116.5 L 120.3 117.7 L 121.8 118.9 L 123.1 120.1 L 124.4 121.4 L 124.5 121.50769233703613 L 124.5 108.3 Z M 146.4 49.0 L 146.4 67.0 L 171.4 67.0 L 171.4 49.0 Z M 87.0 49.0 L 87.0 67.0 L 112.5 67.0 L 112.5 49.0 Z M 146.4 28.0 L 146.4 45.0 L 171.4 45.0 L 171.4 28.0 Z M 87.0 28.0 L 87.0 45.0 L 112.5 45.0 L 112.5 28.0 Z " />
</g>
</svg>
