<svg xmlns="http://www.w3.org/2000/svg" xmlns:xlink="http://www.w3.org/1999/xlink" version="1.1" baseProfile="full" viewBox="0 0 200 200" width="200" height="200">
<g fill="black">
<path d="M 67.8 117.0 L 66.3 114.7 L 64.6 112.4 L 62.8 110.1 L 60.7 107.9 L 58.5 105.7 L 56.1 103.4 L 54.4 101.83599996566772 L 54.4 183.0 L 42.4 189.0 L 42.4 109.23333330154419 L 40.5 114.3 L 36.9 122.8 L 32.9 130.9 L 28.6 138.7 L 24.0 146.1 L 18.9 153.0 L 13.3 159.5 L 11.9 158.4 L 15.7 151.0 L 19.3 143.4 L 22.8 135.7 L 26.0 127.8 L 29.0 119.6 L 31.7 111.2 L 34.2 102.5 L 36.3 93.6 L 38.2 84.4 L 39.26666669845581 78.0 L 12.6 78.0 L 12.6 74.0 L 42.4 74.0 L 42.4 40.48985509872436 L 38.3 41.5 L 31.0 43.1 L 23.0 44.6 L 14.6 45.8 L 14.1 44.1 L 22.0 40.9 L 29.4 38.0 L 36.4 35.3 L 42.8 32.6 L 48.7 30.1 L 54.1 27.6 L 59.0 25.2 L 63.3 22.8 L 67.1 20.6 L 69.52434635162354 18.93326187133789 L 69.5 18.9 L 69.5288257598877 18.930182266235352 L 70.3 18.4 L 72.6385895729065 22.18628797531128 L 78.0 27.8 L 78.1 31.2 L 74.43418083190917 29.656497192382812 L 72.5 30.6 L 68.0 32.5 L 63.0 34.4 L 57.6 36.3 L 54.4 37.26000003814697 L 54.4 74.0 L 59.5 74.0 L 69.5 64.0 L 81.5 74.0 L 81.5 78.0 L 54.4 78.0 L 54.4 98.53823528289794 L 58.3 99.8 L 61.5 101.1 L 64.7 102.6 L 67.6 104.2 L 70.5 106.1 L 73.2 108.1 L 75.7 110.3 L 78.1 112.6 L 80.4 115.1 L 81.2 119.6 L 78.7 123.5 L 74.2 124.3 L 70.4 121.7 L 69.2 119.4 Z M 70.2 177.0 L 91.0 177.0 L 91.0 74.0 L 103.0 76.0 L 106.0 78.0 L 103.0 79.8 L 103.0 177.0 L 126.3 177.0 L 126.3 17.0 L 138.3 19.0 L 141.3 21.0 L 138.3 22.8 L 138.3 89.0 L 160.3 89.0 L 170.3 79.0 L 182.3 89.0 L 182.3 93.0 L 138.3 93.0 L 138.3 177.0 L 165.3 177.0 L 175.3 167.0 L 187.3 177.0 L 187.3 181.0 L 70.2 181.0 Z " />
</g>
</svg>
