<svg xmlns="http://www.w3.org/2000/svg" xmlns:xlink="http://www.w3.org/1999/xlink" version="1.1" baseProfile="full" viewBox="0 0 200 200" width="200" height="200">
<g fill="black">
<path d="M 127.0 95.1 L 130.0 97.1 L 127.0 98.9 L 127.0 113.2 L 155.0 113.2 L 165.0 103.2 L 177.0 113.2 L 177.0 117.2 L 127.0 117.2 L 127.0 149.4 L 163.0 149.4 L 173.0 139.4 L 185.0 149.4 L 185.0 153.4 L 127.0 153.4 L 127.0 182.4 L 115.0 188.4 L 115.0 153.4 L 50.65879125595093 153.4 L 46.5 162.1 L 33.0 162.3 L 54.0 118.7 L 63.9 125.7 L 65.8 128.8 L 62.12537317276001 129.41243782043458 L 52.57087907791138 149.4 L 115.0 149.4 L 115.0 117.2 L 25.0 117.2 L 25.0 113.2 L 115.0 113.2 L 115.0 93.1 Z M 160.6 87.1 L 153.8 84.1 L 147.0 80.8 L 140.2 77.0 L 133.4 72.7 L 126.6 68.0 L 119.8 62.8 L 113.1 57.1 L 107.4 51.572727298736574 L 107.4 89.3 L 95.4 95.3 L 95.4 56.6983606338501 L 92.8 59.0 L 86.3 64.2 L 79.4 69.0 L 72.2 73.5 L 64.6 77.7 L 56.6 81.5 L 48.2 85.1 L 39.5 88.2 L 30.3 91.0 L 20.8 93.2 L 20.2 91.5 L 29.0 87.4 L 37.4 83.3 L 45.4 79.1 L 53.1 74.8 L 60.3 70.3 L 67.1 65.7 L 73.5 60.8 L 79.5 55.8 L 84.2384614944458 51.4 L 24.4 51.4 L 24.4 47.4 L 95.4 47.4 L 95.4 30.726548671722412 L 88.2 31.3 L 76.3 32.1 L 63.8 32.8 L 50.8 33.2 L 37.1 33.3 L 37.0 31.5 L 50.5 29.4 L 63.3 27.4 L 75.6 25.6 L 87.3 23.8 L 98.4 22.0 L 109.0 20.1 L 118.9 18.3 L 128.2 16.3 L 136.9 14.4 L 144.01363229751587 12.643547630310058 L 144.0 12.6 L 144.04388761520386 12.636077117919921 L 145.0 12.4 L 145.27788019180298 13.650460815429687 L 155.8 22.3 L 156.1 25.3 L 151.7137188911438 23.19698848724365 L 147.6 24.1 L 139.1 25.6 L 130.0 26.9 L 120.4 28.2 L 110.3 29.3 L 107.4 29.595370388031007 L 107.4 47.4 L 158.4 47.4 L 168.4 37.4 L 180.4 47.4 L 180.4 51.4 L 111.37045450210572 51.4 L 115.5 53.7 L 123.1 57.9 L 130.4 61.9 L 137.5 65.5 L 144.5 68.7 L 151.3 71.5 L 157.9 73.9 L 164.4 75.9 L 170.8 77.5 L 177.0 78.7 L 185.9 80.7 L 174.1 91.6 L 167.3 89.6 Z " />
</g>
</svg>
