<svg xmlns="http://www.w3.org/2000/svg" xmlns:xlink="http://www.w3.org/1999/xlink" version="1.1" baseProfile="full" viewBox="0 0 200 200" width="200" height="200">
<g fill="black">
<path d="M 67.8 117.0 L 66.3 114.7 L 64.6 112.4 L 62.8 110.1 L 60.7 107.9 L 58.5 105.7 L 56.1 103.4 L 54.4 101.83599996566772 L 54.4 183.0 L 42.4 189.0 L 42.4 109.23333330154419 L 40.5 114.3 L 36.9 122.8 L 32.9 130.9 L 28.6 138.7 L 24.0 146.1 L 18.9 153.0 L 13.3 159.5 L 11.9 158.4 L 15.7 151.0 L 19.3 143.4 L 22.8 135.7 L 26.0 127.8 L 29.0 119.6 L 31.7 111.2 L 34.2 102.5 L 36.3 93.6 L 38.2 84.4 L 39.26666669845581 78.0 L 12.6 78.0 L 12.6 74.0 L 42.4 74.0 L 42.4 40.48985509872436 L 38.3 41.5 L 31.0 43.1 L 23.0 44.6 L 14.6 45.8 L 14.1 44.1 L 22.0 40.9 L 29.4 38.0 L 36.4 35.3 L 42.8 32.6 L 48.7 30.1 L 54.1 27.6 L 59.0 25.2 L 63.3 22.8 L 67.1 20.6 L 69.52434635162354 18.93326187133789 L 69.5 18.9 L 69.5288257598877 18.930182266235352 L 70.3 18.4 L 72.6385895729065 22.18628797531128 L 78.0 27.8 L 78.1 31.2 L 74.43418083190917 29.656497192382812 L 72.5 30.6 L 68.0 32.5 L 63.0 34.4 L 57.6 36.3 L 54.4 37.26000003814697 L 54.4 74.0 L 59.5 74.0 L 69.5 64.0 L 81.5 74.0 L 81.5 78.0 L 54.4 78.0 L 54.4 98.53823528289794 L 58.3 99.8 L 61.5 101.1 L 64.7 102.6 L 67.6 104.2 L 70.5 106.1 L 73.2 108.1 L 75.7 110.3 L 78.1 112.6 L 80.4 115.1 L 81.2 119.6 L 78.7 123.5 L 74.2 124.3 L 70.4 121.7 L 69.2 119.4 Z M 173.0 94.6 L 171.2 96.3 L 169.3 97.8 L 167.3 99.1 L 165.1 100.1 L 162.8 100.9 L 160.5 101.5 L 158.0 101.8 L 155.6 102.0 L 155.6 96.0 L 135.6 93.0 L 135.6 90.0 L 155.6 90.0 L 157.0 89.9 L 158.3 89.7 L 160.5 89.1 L 161.5 88.6 L 162.4 88.0 L 163.3 87.3 L 164.1 86.5 L 164.9 85.5 L 165.8 84.3 L 166.7 82.5 L 167.7 79.8 L 168.6 76.3 L 169.4 72.1 L 170.0 67.2 L 170.5 61.5 L 170.9 55.2 L 171.1 48.2 L 171.1 41.95833330154419 L 171.0 42.0 L 171.0 34.0 L 113.56078433990479 34.0 L 113.5 34.1 L 110.1 39.0 L 106.5 43.5 L 104.44095945358276 45.66199264526367 L 111.8 47.0 L 114.5 49.0 L 111.8 50.723404216766355 L 111.8 68.0 L 125.2 68.0 L 125.2 39.0 L 135.2 41.0 L 137.7 43.0 L 135.2 44.66666669845581 L 135.2 68.0 L 147.6 68.0 L 147.6 45.0 L 158.6 47.0 L 161.3 49.0 L 158.6 50.723404216766355 L 158.6 76.0 L 147.6 81.5 L 147.6 72.0 L 134.68000001907347 72.0 L 133.2 75.7 L 130.8 79.8 L 127.8 83.7 L 124.2 87.1 L 120.1 90.2 L 115.5 93.0 L 112.92371129989624 94.21237115859985 L 121.8 99.2 L 123.8 102.2 L 120.03584909439087 102.7283019065857 L 118.9 105.0 L 115.8 110.6 L 114.90188674926758 112.0 L 172.0 112.0 L 178.0 107.0 L 189.0 116.0 L 184.0 119.0 L 184.0 123.1 L 183.8 131.6 L 183.4 139.4 L 182.9 146.6 L 182.3 153.2 L 181.5 159.1 L 180.6 164.4 L 179.4 169.1 L 178.1 173.2 L 176.5 176.8 L 175.3 179.0 L 173.8 181.0 L 172.2 182.9 L 170.4 184.5 L 168.4 185.9 L 166.2 187.0 L 163.9 187.9 L 161.5 188.5 L 159.1 188.8 L 156.6 189.0 L 156.6 183.0 L 136.6 180.0 L 136.6 177.0 L 156.6 177.0 L 158.0 176.9 L 159.2 176.7 L 160.3 176.4 L 161.3 176.1 L 162.1 175.6 L 163.7 174.4 L 164.5 173.5 L 165.2 172.5 L 165.9 171.3 L 166.9 169.0 L 167.9 165.9 L 168.8 161.9 L 169.6 157.2 L 170.4 151.8 L 171.0 145.6 L 171.4 138.8 L 171.8 131.2 L 172.0 122.9 L 172.0 116.0 L 112.32799997329712 116.0 L 108.8 120.9 L 104.9 125.7 L 101.53826370239258 129.38971061706542 L 111.2 131.0 L 114.2 133.0 L 111.2 134.8 L 111.2 154.0 L 124.2 154.0 L 124.2 121.0 L 136.2 123.0 L 139.2 125.0 L 136.2 126.8 L 136.2 154.0 L 149.2 154.0 L 149.2 129.0 L 161.2 131.0 L 164.2 133.0 L 161.2 134.8 L 161.2 162.0 L 149.2 168.0 L 149.2 158.0 L 135.75384616851807 158.0 L 134.6 162.0 L 132.2 166.8 L 129.0 171.1 L 125.1 175.0 L 120.5 178.3 L 115.3 181.3 L 109.4 183.8 L 102.9 186.0 L 95.7 187.6 L 87.8 188.8 L 87.3 187.1 L 94.5 184.0 L 100.9 181.0 L 106.6 177.9 L 111.4 174.8 L 115.4 171.6 L 118.6 168.3 L 121.1 165.0 L 122.7 161.8 L 123.8 158.5 L 123.85882349014283 158.0 L 111.2 158.0 L 111.2 165.0 L 99.2 171.0 L 99.2 131.76279067993164 L 96.5 134.4 L 91.9 138.2 L 87.0 141.7 L 81.9 144.7 L 80.8 143.2 L 88.2 134.4 L 91.7 129.9 L 95.0 125.4 L 98.1 120.7 L 101.0 115.8 L 103.7 110.8 L 106.3 105.5 L 108.6 100.2 L 110.4 95.4 L 104.8 97.6 L 98.6 99.3 L 91.9 100.7 L 91.5 99.2 L 97.6 96.4 L 103.0 93.5 L 107.9 90.7 L 112.2 87.7 L 115.8 84.7 L 118.8 81.6 L 121.3 78.4 L 123.2 75.3 L 124.5 72.0 L 111.8 72.0 L 111.8 75.0 L 100.8 80.5 L 100.8 49.27857141494751 L 98.3 51.6 L 93.8 55.1 L 89.0 58.1 L 83.9 60.7 L 82.9 59.2 L 86.7 55.1 L 90.2 51.1 L 93.6 47.0 L 96.8 42.8 L 99.7 38.4 L 102.3 33.9 L 104.8 29.2 L 107.0 24.3 L 108.9 19.2 L 110.38655128479004 14.82293243408203 L 110.3 14.8 L 111.2 12.4 L 122.0 17.9 L 124.1 20.8 L 120.34681062698364 21.524299716949464 L 119.4 23.6 L 116.6 29.0 L 115.99215688705445 30.0 L 171.0 30.0 L 177.0 25.0 L 188.0 34.0 L 183.0600461959839 36.96397228240967 L 183.1 40.4 L 183.1 48.3 L 182.9 55.7 L 182.5 62.4 L 181.9 68.5 L 181.2 74.0 L 180.3 78.9 L 179.1 83.3 L 177.7 87.2 L 175.9 90.6 L 174.5 92.7 Z " />
</g>
</svg>
