<svg xmlns="http://www.w3.org/2000/svg" xmlns:xlink="http://www.w3.org/1999/xlink" version="1.1" baseProfile="full" viewBox="0 0 200 200" width="200" height="200">
<g fill="black">
<path d="M 136.1 157.0 L 138.0 160.0 L 133.9488549232483 160.55877866744996 L 132.1 163.2 L 129.8 166.2 L 127.3 169.0 L 124.6 171.7 L 121.8 174.3 L 118.7 176.7 L 115.5 179.0 L 112.875 180.5 L 158.0 180.5 L 168.0 170.5 L 180.0 180.5 L 180.0 184.5 L 21.0 184.5 L 21.0 180.5 L 108.51724138259888 180.5 L 110.1 178.8 L 112.5 175.7 L 114.7 172.7 L 116.7 169.7 L 118.6 166.8 L 120.2 163.8 L 121.7 160.9 L 123.0 158.0 L 124.1 155.1 L 124.681316280365 153.22686977386473 L 124.6 153.2 L 124.88260869979858 152.5782608985901 L 125.0 152.2 L 125.04558525085449 152.21971254348756 L 125.6 151.0 Z M 75.7 170.7 L 74.7 168.2 L 73.6 165.8 L 72.4 163.3 L 71.0 160.9 L 69.6 158.4 L 68.0 156.0 L 66.3 153.5 L 64.2 151.3 L 64.66315793991089 150.66842107772828 L 55.0 155.5 L 55.0 119.5 L 67.0 125.5 L 134.0 125.5 L 140.0 120.5 L 151.0 129.5 L 146.0 133.5 L 146.0 149.5 L 134.0 155.5 L 134.0 149.5 L 67.0 149.5 L 65.78688526153564 150.10655736923218 L 68.0 151.5 L 70.8 153.0 L 73.4 154.7 L 75.9 156.6 L 78.3 158.6 L 80.6 160.8 L 82.7 163.2 L 84.7 165.7 L 86.6 168.3 L 88.3 171.1 L 88.3 175.6 L 85.1 179.0 L 80.6 179.0 L 77.3 175.8 L 76.5 173.3 Z M 67.0 129.5 L 67.0 145.5 L 134.0 145.5 L 134.0 129.5 Z M 102.0 79.5 L 97.0 82.5 L 93.16125650405884 84.09947643280029 L 89.5 88.4 L 82.9 95.5 L 75.8 102.1 L 68.4 108.4 L 60.5 114.2 L 52.3 119.7 L 43.7 124.8 L 34.7 129.4 L 25.2 133.5 L 15.3 137.0 L 14.6 135.4 L 23.5 130.1 L 32.0 124.7 L 40.2 119.2 L 48.0 113.5 L 55.4 107.5 L 62.3 101.3 L 68.9 94.9 L 75.0 88.1 L 80.8 81.1 L 81.9777777671814 79.5 L 34.0 79.5 L 34.0 75.5 L 84.9222222328186 75.5 L 86.1 73.9 L 86.53655319213867 74.21953897476196 L 91.0 70.5 Z M 159.2 119.6 L 151.0 115.5 L 143.2 110.9 L 136.0 105.9 L 129.3 100.4 L 123.2 94.5 L 117.6 88.1 L 112.8 81.2 L 108.8 73.8 L 110.3 72.8 L 116.1 78.6 L 121.9 84.1 L 128.0 89.2 L 129.40509662628173 90.21599292755127 L 130.4 89.0 L 132.1 86.9 L 135.3 82.7 L 136.7 80.7 L 138.1 78.6 L 139.3 76.5 L 141.0384238243103 73.18119087219239 L 140.9 73.1 L 142.0 71.6 L 151.3 79.2 L 152.5 82.6 L 147.99595279693602 82.28937606811523 L 147.1 83.1 L 145.0 84.9 L 142.7 86.6 L 140.3 88.2 L 137.9 89.7 L 135.4 91.0 L 132.7 92.2 L 132.33559141159057 92.33496608734131 L 134.5 93.9 L 141.2 98.2 L 147.47920637130738 101.56070203781128 L 148.0 101.1 L 150.5 98.8 L 152.9 96.6 L 155.2 94.3 L 157.3 91.9 L 159.3 89.5 L 161.2 87.1 L 163.0 84.6 L 164.07625274658204 82.8510892868042 L 164.0 82.8 L 164.39487180709838 82.33333330154419 L 164.6 82.0 L 164.64592084884643 82.03663902282715 L 165.1 81.5 L 174.0 89.5 L 175.1 92.9 L 171.00632257461547 92.33535480499268 L 168.7 94.3 L 165.9 96.5 L 162.9 98.5 L 159.9 100.4 L 156.8 102.1 L 153.6 103.6 L 152.5713625907898 103.99330253601075 L 155.8 105.5 L 163.7 108.6 L 172.0 111.3 L 180.7 113.6 L 188.9 115.8 L 177.2 126.3 L 168.0 123.2 Z M 134.0 110.5 L 134.0 114.5 L 67.0 114.5 L 67.0 110.5 L 115.81818180084228 110.5 L 124.0 101.5 Z M 46.6 99.9 L 45.6 98.1 L 44.4 96.3 L 43.1 94.4 L 41.6 92.6 L 40.1 90.6 L 38.4 88.7 L 36.6 86.6 L 34.4 85.0 L 35.3 83.4 L 37.8 84.6 L 40.5 85.5 L 43.1 86.5 L 45.5 87.6 L 47.9 88.9 L 50.1 90.2 L 52.3 91.6 L 56.3 94.8 L 58.1 96.5 L 59.1 101.0 L 56.7 104.9 L 52.2 105.9 L 48.3 103.5 L 47.5 101.7 Z M 83.4 41.2 L 85.7 44.0 L 81.55100374221801 45.11133832931519 L 80.8 46.7 L 77.2 51.6 L 72.5 55.8 L 67.0 59.6 L 60.6 62.8 L 53.3 65.6 L 45.1 68.0 L 36.0 69.9 L 26.0 71.4 L 15.1 72.3 L 14.8 70.6 L 25.3 67.7 L 34.7 64.7 L 43.1 61.7 L 50.5 58.5 L 56.7 55.2 L 61.9 51.8 L 65.9 48.3 L 68.9 44.8 L 70.8 41.3 L 71.9 37.8 L 71.90705089569092 37.802084636688235 L 72.4 36.2 Z M 176.98084630966187 39.2913140296936 L 175.25 40.0125 L 175.0 40.2 L 172.8 41.6 L 170.5 43.1 L 168.0 44.7 L 165.4 46.4 L 162.6 48.0 L 159.5 49.7 L 156.5 51.7 L 155.4 50.3 L 157.9 47.8 L 159.9 45.0 L 161.9 42.4 L 163.7 40.0 L 165.4 37.7 L 166.9 35.5 L 167.81000003814697 34.2 L 126.0 34.2 L 126.0 53.1 L 126.1 54.0 L 126.2 54.7 L 126.4 55.0 L 126.5 55.3 L 126.7 55.5 L 127.1 55.8 L 127.7 56.0 L 128.7 56.2 L 130.0 56.4 L 172.5 56.4 Z M 13.2 53.4 L 13.2 48.8 L 16.3 45.5 L 18.3 44.9 L 20.1 44.1 L 21.8 43.0 L 23.4 41.6 L 25.0 39.8 L 26.4 37.6 L 27.6 34.9 L 28.8 31.8 L 29.7 28.3 L 30.1 24.4 L 31.9 24.3 L 32.3 28.4 L 32.576923084259036 30.2 L 94.0 30.2 L 94.0 10.9 L 106.0 12.9 L 109.0 14.9 L 106.0 16.7 L 106.0 30.2 L 170.0 30.2 L 170.6235294342041 29.68039216995239 L 171.4 28.3 L 171.83380279541015 28.671830940246583 L 176.0 25.2 L 187.0 34.2 L 182.0 37.2 L 179.73884296417236 38.14214878082275 L 178.0 56.4 L 181.3 58.6 L 183.5 61.9 L 181.3 65.2 L 178.0 67.4 L 130.0 67.4 L 127.4 67.3 L 125.0 66.9 L 122.6 66.2 L 120.4 65.0 L 118.4 63.4 L 116.7 61.5 L 115.5 59.3 L 114.6 56.9 L 114.1 54.4 L 114.0 51.9 L 114.0 34.2 L 32.9 34.2 L 32.9 36.0 L 32.6 39.6 L 31.8 43.0 L 30.6 46.2 L 28.9 49.2 L 26.8 52.0 L 24.2 54.4 L 21.1 56.5 L 16.5 56.5 Z " />
</g>
</svg>
