<svg xmlns="http://www.w3.org/2000/svg" xmlns:xlink="http://www.w3.org/1999/xlink" version="1.1" baseProfile="full" viewBox="0 0 200 200" width="200" height="200">
<g fill="black">
<path d="M 166.0 71.0 L 161.0 75.0 L 161.0 91.0 L 170.8181818008423 91.0 L 179.0 82.0 L 189.0 91.0 L 189.0 95.0 L 161.0 95.0 L 161.0 121.7 L 149.0 127.7 L 149.0 119.7 L 77.07288131713867 119.7 L 76.3 121.3 L 69.2 132.1 L 66.51914892196655 135.259574508667 L 71.8 137.9 L 156.1 137.9 L 162.1 132.9 L 173.1 141.9 L 168.1 145.9 L 168.1 180.3 L 156.1 186.3 L 156.1 176.3 L 71.8 176.3 L 71.8 183.3 L 59.8 189.3 L 59.8 142.9278350830078 L 51.1 151.0 L 40.1 159.0 L 27.8 165.9 L 14.3 171.8 L 13.6 170.1 L 26.0 162.6 L 37.0 154.6 L 46.7 146.1 L 55.1 137.0 L 62.2 127.3 L 66.4384614944458 119.7 L 35.0 119.7 L 35.0 115.7 L 68.50181818008423 115.7 L 72.6 105.9 L 75.7948275566101 95.0 L 15.0 95.0 L 15.0 91.0 L 76.55887098312378 91.0 L 78.1 81.9 L 78.7759690284729 71.0 L 37.0 71.0 L 37.0 67.0 L 149.0 67.0 L 155.0 62.0 Z M 71.8 141.9 L 71.8 172.3 L 156.1 172.3 L 156.1 141.9 Z M 86.72537317276002 95.0 L 86.3 96.9 L 82.0 109.5 L 79.00508470535279 115.7 L 149.0 115.7 L 149.0 95.0 Z M 90.698601436615 71.0 L 89.3 83.5 L 87.62089548110961 91.0 L 149.0 91.0 L 149.0 71.0 Z M 54.4 16.6 L 56.6 19.4 L 52.85384616851807 20.3365385055542 L 52.0 22.4 L 49.2 27.9 L 47.535185146331784 30.8 L 83.98347110748291 30.8 L 94.0 20.7 L 106.0 30.8 L 106.0 34.8 L 56.68333330154419 34.8 L 57.0 34.9 L 60.6 36.3 L 63.9 37.8 L 67.0 39.5 L 69.9 41.4 L 72.5 43.4 L 74.9 45.6 L 77.1 47.9 L 79.0 50.5 L 68.2 55.8 L 67.6 53.9 L 66.7 51.9 L 65.5 49.8 L 64.0 47.7 L 62.2 45.5 L 60.1 43.2 L 57.6 40.9 L 54.9 38.6 L 51.9 36.1 L 49.79523811340332 34.8 L 45.061538505554196 34.8 L 42.5 38.5 L 38.5 43.4 L 34.1 48.1 L 29.4 52.6 L 24.2 56.8 L 18.6 60.7 L 12.5 64.3 L 11.4 62.8 L 16.1 57.8 L 20.6 52.9 L 24.6 48.1 L 28.4 43.2 L 31.7 38.3 L 34.7 33.4 L 37.3 28.4 L 39.6 23.3 L 41.4 18.2 L 42.610848903656006 14.002390480041504 L 42.6 14.0 L 42.717073154449466 13.634146308898925 L 42.9 13.0 L 42.918178939819335 13.005690765380859 L 43.4 11.5 Z M 145.7 51.9 L 144.5 49.8 L 143.0 47.7 L 141.2 45.5 L 139.1 43.2 L 136.6 40.9 L 133.9 38.6 L 130.9 36.1 L 128.79523811340331 34.8 L 123.53061227798462 34.8 L 121.4 37.7 L 117.4 42.3 L 113.0 46.7 L 108.3 50.7 L 103.1 54.5 L 97.5 57.9 L 91.4 60.8 L 90.5 59.3 L 95.2 54.8 L 99.7 50.3 L 103.8 45.9 L 107.5 41.5 L 110.8 37.0 L 113.8 32.4 L 116.4 27.7 L 118.6 22.9 L 120.4 18.0 L 121.62807292938233 13.906423473358155 L 121.6 13.9 L 122.4 11.4 L 133.4 16.6 L 135.6 19.5 L 131.81552600860596 20.363125610351563 L 131.0 22.3 L 128.2 27.7 L 126.25490198135375 30.8 L 163.9834711074829 30.8 L 174.0 20.7 L 186.0 30.8 L 186.0 34.8 L 135.6833333015442 34.8 L 136.0 34.9 L 139.6 36.3 L 142.9 37.8 L 146.0 39.5 L 148.9 41.4 L 151.5 43.4 L 153.9 45.6 L 156.1 47.9 L 158.0 50.5 L 158.2 55.0 L 155.3 58.5 L 150.7 58.8 L 147.2 55.9 L 146.6 53.9 Z M 79.2 55.0 L 76.3 58.5 L 71.7 58.8 L 68.2 55.9 L 79.0 50.5 Z " />
</g>
</svg>
