<svg xmlns="http://www.w3.org/2000/svg" xmlns:xlink="http://www.w3.org/1999/xlink" version="1.1" baseProfile="full" viewBox="0 0 200 200" width="200" height="200">
<g fill="black">
<path d="M 50.8 132.4 L 151.1 132.4 L 157.1 127.4 L 168.1 136.4 L 163.1 140.4 L 163.1 181.7 L 151.1 187.7 L 151.1 179.7 L 50.8 179.7 L 50.8 182.7 L 38.8 188.7 L 38.8 126.4 Z M 50.8 157.4 L 50.8 175.7 L 151.1 175.7 L 151.1 157.4 Z M 50.8 136.4 L 50.8 153.4 L 151.1 153.4 L 151.1 136.4 Z M 66.8 91.0 L 135.1 91.0 L 141.1 86.0 L 152.1 95.0 L 147.1 99.0 L 147.1 118.7 L 135.1 124.7 L 135.1 116.7 L 66.8 116.7 L 66.8 119.7 L 54.8 125.7 L 54.8 85.0 Z M 66.8 95.0 L 66.8 112.7 L 135.1 112.7 L 135.1 95.0 Z M 20.2 75.5 L 95.0 75.5 L 95.0 56.9 L 107.0 58.9 L 110.0 60.9 L 107.0 62.7 L 107.0 75.5 L 159.7 75.5 L 169.7 65.5 L 181.7 75.5 L 181.7 79.5 L 20.2 79.5 Z M 67.7 51.6 L 66.5 49.5 L 65.0 47.4 L 63.2 45.3 L 61.1 43.1 L 58.7 40.8 L 55.9 38.5 L 52.9 36.1 L 50.73636360168457 34.7 L 46.089999961853025 34.7 L 43.5 38.4 L 39.5 43.3 L 35.1 47.9 L 30.4 52.2 L 25.2 56.4 L 19.6 60.2 L 13.5 63.6 L 12.4 62.1 L 17.2 57.2 L 21.6 52.4 L 25.7 47.6 L 29.4 42.9 L 32.8 38.1 L 35.7 33.2 L 38.3 28.4 L 40.6 23.4 L 42.4 18.4 L 43.60551147460937 14.301261138916015 L 43.6 14.3 L 43.672727298736575 14.072727298736572 L 43.9 13.3 L 43.918133068084714 13.305834102630616 L 44.4 11.8 L 55.4 17.0 L 57.6 19.8 L 53.831307888031006 20.725643634796143 L 53.0 22.7 L 50.2 28.1 L 48.630188655853274 30.7 L 85.0 30.7 L 95.0 20.7 L 107.0 30.7 L 107.0 34.7 L 57.675 34.7 L 58.0 34.8 L 61.5 36.1 L 64.9 37.6 L 68.0 39.3 L 70.8 41.0 L 73.5 43.0 L 75.9 45.1 L 78.0 47.4 L 79.9 49.9 L 80.2 54.5 L 77.3 58.0 L 72.8 58.3 L 69.2 55.4 L 68.6 53.5 Z M 146.7 51.6 L 145.5 49.5 L 144.0 47.4 L 142.2 45.3 L 140.1 43.1 L 137.7 40.8 L 134.9 38.5 L 131.9 36.1 L 129.73636360168456 34.7 L 123.48333330154419 34.7 L 121.1 37.3 L 117.4 40.8 L 113.5 44.0 L 109.1 46.9 L 104.4 49.6 L 99.4 52.0 L 98.5 50.5 L 102.3 46.7 L 105.9 43.0 L 109.1 39.3 L 112.0 35.7 L 114.7 32.0 L 116.9 28.4 L 118.9 24.7 L 120.5 20.9 L 121.9 17.2 L 122.65957088470459 14.3136305809021 L 122.6 14.3 L 123.4 11.8 L 134.4 17.0 L 136.6 19.8 L 132.7334792137146 20.749671745300294 L 132.4 21.5 L 130.1 25.7 L 127.4 29.8 L 126.70769233703614 30.7 L 165.0 30.7 L 175.0 20.7 L 187.0 30.7 L 187.0 34.7 L 136.675 34.7 L 137.0 34.8 L 140.5 36.1 L 143.9 37.6 L 147.0 39.3 L 149.8 41.0 L 152.5 43.0 L 154.9 45.1 L 157.0 47.4 L 158.9 49.9 L 159.2 54.5 L 156.3 58.0 L 151.8 58.3 L 148.2 55.4 L 147.6 53.5 Z " />
</g>
</svg>
