<svg xmlns="http://www.w3.org/2000/svg" xmlns:xlink="http://www.w3.org/1999/xlink" version="1.1" baseProfile="full" viewBox="0 0 200 200" width="200" height="200">
<g fill="black">
<path d="M 166.4 159.9 L 161.7 153.3 L 157.1 146.3 L 152.9 138.9 L 148.9 131.0 L 145.2 122.7 L 141.8 114.0 L 140.1 108.66551723480225 L 140.1 182.0 L 128.1 188.0 L 128.1 116.76363639831543 L 128.0 117.0 L 123.1 126.8 L 117.7 136.0 L 111.7 144.6 L 105.2 152.6 L 98.1 160.0 L 90.5 166.6 L 82.3 172.6 L 73.6 177.7 L 72.6 176.2 L 80.0 169.6 L 86.9 162.7 L 93.3 155.5 L 99.3 147.8 L 104.7 139.8 L 109.7 131.3 L 114.2 122.3 L 118.2 112.8 L 121.6 102.8 L 123.53181819915771 96.0 L 87.0 96.0 L 87.0 92.0 L 128.1 92.0 L 128.1 56.0 L 140.1 58.0 L 143.1 60.0 L 140.1 61.8 L 140.1 92.0 L 163.9 92.0 L 173.9 82.0 L 185.9 92.0 L 185.9 96.0 L 140.1 96.0 L 140.1 98.38260869979858 L 142.7 103.3 L 147.2 111.6 L 151.7 119.5 L 156.2 127.0 L 160.9 134.0 L 165.6 140.5 L 170.5 146.6 L 175.5 152.3 L 180.6 157.4 L 185.8 162.1 L 187.6 163.8 L 176.8 171.8 L 171.5 166.0 Z M 68.8 127.3 L 66.9 124.2 L 64.9 121.1 L 62.8 117.9 L 60.4 114.7 L 57.9 111.5 L 55.2 108.1 L 55.2 181.0 L 43.2 187.0 L 43.2 117.275 L 40.4 124.8 L 36.8 133.1 L 32.9 140.9 L 28.6 148.3 L 24.0 155.2 L 18.8 161.7 L 13.3 167.5 L 11.8 166.4 L 15.7 159.5 L 19.4 152.4 L 22.9 145.2 L 26.1 137.7 L 29.0 129.8 L 31.6 121.7 L 34.0 113.3 L 36.0 104.5 L 37.8 95.4 L 38.71428575515747 89.0 L 13.4 89.0 L 13.4 85.0 L 43.2 85.0 L 43.2 14.0 L 55.2 16.0 L 58.2 18.0 L 55.2 19.8 L 55.2 85.0 L 62.3 85.0 L 72.3 75.0 L 84.3 85.0 L 84.3 89.0 L 55.2 89.0 L 55.2 102.71282052993774 L 58.4 104.6 L 62.1 107.1 L 65.5 109.8 L 68.7 112.5 L 71.8 115.3 L 74.6 118.2 L 77.3 121.2 L 79.9 124.2 L 82.2 127.3 L 82.8 131.9 L 80.1 135.5 L 75.5 136.1 L 71.9 133.4 L 70.4 130.4 Z M 84.9 78.7 L 82.8 74.7 L 84.1 70.3 L 85.2 69.4 L 86.4 67.7 L 87.7 65.5 L 88.9 62.6 L 90.0 59.1 L 91.0 55.0 L 92.0 50.4 L 92.9 45.2 L 93.8 39.6 L 94.5 33.4 L 96.3 33.3 L 97.0 39.6 L 97.5189655303955 43.9 L 128.1 43.9 L 128.1 13.0 L 140.1 15.0 L 143.1 17.0 L 140.1 18.8 L 140.1 43.9 L 171.8 43.9 L 177.8 38.9 L 188.8 47.9 L 183.8 50.9 L 181.3444444656372 51.9231481552124 L 181.2 52.2 L 179.8 54.6 L 178.4 57.2 L 176.8 59.9 L 175.1 62.6 L 173.3 65.6 L 171.4 68.6 L 169.2 71.7 L 167.3 75.0 L 165.6 74.3 L 166.8 70.6 L 167.5 66.9 L 168.3 63.4 L 169.7 57.0 L 170.3 54.1 L 170.9 51.3 L 171.4 48.7 L 171.5333333015442 47.9 L 97.83888893127441 47.9 L 98.0 50.8 L 98.1 55.8 L 98.0 60.3 L 97.6 64.5 L 97.0 68.4 L 96.2 71.9 L 95.0 75.1 L 93.3 78.0 L 89.2 80.1 Z M 82.3 32.8 L 84.5 35.7 L 80.58960247039795 36.52324161529541 L 78.9 40.3 L 77.0 44.2 L 74.9 48.2 L 72.7 52.3 L 70.4 56.6 L 67.9 60.9 L 65.2 65.3 L 62.2 69.8 L 59.0 74.3 L 57.4 73.6 L 59.0 68.2 L 60.5 63.1 L 62.1 58.3 L 63.6 53.6 L 65.1 49.0 L 66.4 44.7 L 67.7 40.5 L 68.9 36.5 L 70.0 32.6 L 70.65352945327759 29.913267993927 L 70.6 29.9 L 70.81000003814697 29.269999980926514 L 70.9 28.9 L 70.92992124557495 28.910236263275145 L 71.4 27.5 Z M 26.7 62.6 L 26.1 59.2 L 25.5 55.6 L 24.6 51.8 L 23.7 47.8 L 22.6 43.7 L 21.4 39.4 L 20.2 34.9 L 18.7 30.2 L 20.3 29.4 L 23.1 33.5 L 25.7 37.5 L 28.1 41.4 L 30.3 45.3 L 32.2 49.1 L 34.0 52.8 L 35.5 56.5 L 36.9 60.0 L 38.1 63.5 L 39.1 67.0 L 38.1 71.4 L 34.2 73.9 L 29.8 72.8 L 27.3 69.0 L 27.1 65.9 Z " />
</g>
</svg>
