<svg xmlns="http://www.w3.org/2000/svg" xmlns:xlink="http://www.w3.org/1999/xlink" version="1.1" baseProfile="full" viewBox="0 0 200 200" width="200" height="200">
<g fill="black">
<path d="M 158.1 178.4 L 149.6 175.0 L 141.5 171.3 L 133.9 167.4 L 126.7 163.1 L 119.9 158.6 L 113.7 153.7 L 108.1 148.4 L 106.0 146.00600004196167 L 106.0 182.6 L 94.0 188.6 L 94.0 148.6300000190735 L 91.4 151.1 L 84.8 156.5 L 77.7 161.5 L 70.1 166.1 L 62.0 170.3 L 53.3 174.2 L 44.1 177.7 L 34.3 180.8 L 24.0 183.4 L 13.2 185.5 L 12.7 183.7 L 22.9 179.8 L 32.5 175.7 L 41.6 171.6 L 50.1 167.3 L 57.9 162.9 L 65.2 158.2 L 71.9 153.3 L 78.0 148.2 L 82.98113203048706 143.4 L 15.0 143.4 L 15.0 139.4 L 94.0 139.4 L 94.0 107.8 L 106.0 109.8 L 109.0 111.8 L 106.0 113.6 L 106.0 139.4 L 118.62571430206299 139.4 L 120.7 137.2 L 123.7 133.7 L 126.5 130.5 L 129.1 127.4 L 131.6 124.5 L 133.9 121.8 L 135.9 119.2 L 137.8 116.7 L 139.4 114.5 L 140.18949775695802 113.16392698287964 L 140.1 113.1 L 140.5375 112.575 L 140.7 112.3 L 140.7390658378601 112.33312101364136 L 141.1 111.9 L 149.9 120.1 L 150.9 123.6 L 146.65771427154542 122.86857147216797 L 145.3 124.0 L 142.7 126.0 L 140.0 128.2 L 137.0 130.3 L 133.7 132.6 L 130.3 134.9 L 126.6 137.2 L 122.77391300201415 139.4 L 163.0 139.4 L 173.0 129.4 L 185.0 139.4 L 185.0 143.4 L 107.7054054260254 143.4 L 110.6 145.1 L 117.1 148.8 L 123.7 152.4 L 130.7 155.8 L 137.9 159.0 L 145.5 161.9 L 153.5 164.6 L 161.8 167.1 L 170.5 169.4 L 179.5 171.5 L 188.1 173.6 L 176.4 184.3 L 167.0 181.5 Z M 66.6 132.8 L 65.2 131.1 L 63.5 129.3 L 61.5 127.3 L 59.1 125.3 L 56.4 123.2 L 53.4 121.0 L 50.2 118.7 L 46.5 116.7 L 47.2 115.0 L 51.3 116.3 L 55.3 117.3 L 58.9 118.4 L 62.3 119.6 L 65.5 120.9 L 68.4 122.2 L 71.1 123.6 L 73.6 125.2 L 75.9 126.8 L 77.9 128.7 L 79.0 133.1 L 76.8 137.1 L 72.3 138.2 L 68.4 135.9 L 67.7 134.5 Z M 168.0 103.0 L 162.6 99.8 L 157.6 96.4 L 152.9 92.8 L 148.6 89.1 L 144.6 85.1 L 141.1 81.0 L 138.2 76.6 L 137.0 74.3 L 137.0 107.9 L 125.0 113.9 L 125.0 81.0 L 122.8 83.2 L 117.8 87.5 L 112.3 91.4 L 106.2 95.1 L 99.5 98.5 L 92.3 101.6 L 84.6 104.4 L 76.2 106.8 L 67.3 108.9 L 66.7 107.2 L 74.9 103.3 L 82.5 99.5 L 89.5 95.7 L 95.9 91.8 L 101.6 87.9 L 106.8 83.9 L 111.3 79.9 L 115.1 75.8 L 117.53571424484252 72.7 L 79.37674417495728 72.7 L 78.4 75.5 L 74.3 77.5 L 70.0 76.0 L 68.9 74.7 L 67.7 73.2 L 66.3 71.8 L 64.6 70.3 L 62.8 68.8 L 60.7 67.3 L 58.4 65.8 L 56.0 64.3 L 53.9 62.977777767181394 L 53.9 107.9 L 41.9 113.9 L 41.9 67.8 L 39.7 71.2 L 36.1 76.1 L 32.2 80.7 L 27.9 85.0 L 23.3 89.1 L 18.4 92.8 L 13.0 96.1 L 11.9 94.7 L 15.8 90.0 L 19.5 85.3 L 23.0 80.7 L 26.2 76.0 L 29.1 71.3 L 31.7 66.4 L 34.1 61.5 L 36.2 56.4 L 38.0 51.2 L 38.38571424484253 49.7 L 12.5 49.7 L 12.5 45.7 L 41.9 45.7 L 41.9 28.782352924346924 L 37.5 29.3 L 30.3 30.0 L 22.6 30.4 L 14.4 30.7 L 14.1 28.9 L 22.0 26.7 L 29.4 24.7 L 36.4 22.8 L 42.8 21.1 L 48.7 19.4 L 54.2 17.8 L 59.1 16.3 L 63.4 14.8 L 67.3 13.3 L 69.64734411239624 12.304157066345216 L 69.6 12.2 L 69.69695949554443 12.283108139038086 L 70.6 11.9 L 71.1880217552185 13.561161518096924 L 80.1 21.2 L 80.3 24.3 L 76.3165246963501 22.57580919265747 L 74.6 23.2 L 70.7 24.1 L 66.3 25.1 L 61.5 26.0 L 56.2 26.9 L 53.9 27.222807025909425 L 53.9 45.7 L 58.6 45.7 L 68.6 35.7 L 80.6 45.7 L 80.6 49.7 L 53.9 49.7 L 53.9 60.28125 L 54.0 60.3 L 57.2 60.5 L 60.3 60.9 L 63.2 61.5 L 65.9 62.1 L 68.6 62.9 L 71.1 63.7 L 73.5 64.7 L 75.7 65.8 L 77.9 67.0 L 78.70952377319335 68.7 L 125.0 68.7 L 125.0 56.6 L 99.6 56.6 L 87.6 62.6 L 87.6 12.6 L 99.6 18.6 L 162.4 18.6 L 168.4 13.6 L 179.4 22.6 L 174.4 26.6 L 174.4 56.6 L 162.4 62.6 L 162.4 56.6 L 137.0 56.6 L 137.0 68.7 L 168.9181818008423 68.7 L 177.1 59.7 L 187.1 68.7 L 187.1 72.7 L 139.78275861740113 72.7 L 141.3 73.8 L 145.3 76.8 L 149.4 79.7 L 153.7 82.4 L 158.2 85.1 L 162.9 87.7 L 167.9 90.1 L 173.2 92.4 L 178.8 94.6 L 184.6 96.7 L 191.3 99.3 L 179.8 109.0 L 173.7 106.1 Z M 99.6 39.9 L 99.6 52.6 L 125.0 52.6 L 125.0 39.9 Z M 137.0 39.9 L 137.0 52.6 L 162.4 52.6 L 162.4 39.9 Z M 99.6 22.6 L 99.6 35.9 L 125.0 35.9 L 125.0 22.6 Z M 137.0 22.6 L 137.0 35.9 L 162.4 35.9 L 162.4 22.6 Z " />
</g>
</svg>
