<svg xmlns="http://www.w3.org/2000/svg" xmlns:xlink="http://www.w3.org/1999/xlink" version="1.1" baseProfile="full" viewBox="0 0 200 200" width="200" height="200">
<g fill="black">
<path d="M 61.7 128.1 L 60.2 125.0 L 56.6 118.6 L 54.6 115.3 L 52.4 112.0 L 51.0 109.99130430221558 L 51.0 183.6 L 39.0 189.6 L 39.0 121.7551724433899 L 37.7 125.7 L 34.5 134.2 L 31.0 142.2 L 27.1 149.8 L 22.9 156.9 L 18.2 163.6 L 13.1 169.6 L 11.6 168.6 L 15.0 161.6 L 18.1 154.4 L 21.1 147.0 L 23.9 139.3 L 26.5 131.3 L 28.8 123.0 L 30.9 114.3 L 32.7 105.3 L 34.2 96.0 L 34.97528085708618 89.1 L 13.1 89.1 L 13.1 85.1 L 39.0 85.1 L 39.0 12.3 L 51.0 14.3 L 54.0 16.3 L 51.0 18.1 L 51.0 85.1 L 54.2 85.1 L 64.2 75.1 L 76.2 85.1 L 76.2 89.1 L 51.0 89.1 L 51.0 103.73333330154419 L 53.5 105.4 L 56.8 108.1 L 59.9 110.8 L 62.8 113.6 L 65.6 116.5 L 68.2 119.5 L 70.7 122.6 L 73.0 125.7 L 75.1 128.9 L 75.4 133.4 L 72.5 136.9 L 67.9 137.3 L 64.4 134.3 L 63.1 131.2 Z M 167.3 180.3 L 165.6 177.6 L 163.9 175.0 L 162.1 172.5 L 160.2 170.0 L 156.2 165.4 L 154.2 163.2 L 153.4053511619568 162.5709030151367 L 152.8 163.6 L 149.6 168.4 L 146.0 172.8 L 142.1 176.8 L 137.9 180.5 L 133.4 183.7 L 128.6 186.3 L 123.5 188.5 L 122.5 186.9 L 126.4 183.2 L 130.0 179.5 L 133.3 175.7 L 136.4 171.8 L 139.2 167.7 L 141.7 163.4 L 144.0 158.8 L 146.0 154.1 L 147.7 149.0 L 148.93797121047973 144.7083664894104 L 148.9 144.7 L 149.7 142.2 L 160.7 147.3 L 161.2 147.90869569778442 L 161.2 138.5 L 145.0 138.5 L 145.0 145.5 L 134.0 151.0 L 134.0 104.4 L 145.0 109.9 L 161.2 109.9 L 167.2 104.9 L 178.2 113.9 L 173.2 117.9 L 173.2 142.5 L 161.54430379867554 148.32784814834594 L 163.0 150.1 L 159.22164878845214 151.02801609039307 L 158.4 153.1 L 155.8 158.5 L 154.6573797225952 160.44245443344116 L 155.6 160.8 L 158.7 161.9 L 161.7 163.3 L 164.6 165.0 L 167.4 166.9 L 170.2 169.0 L 172.9 171.4 L 175.5 173.9 L 178.1 176.7 L 180.6 179.6 L 181.4 184.1 L 178.8 187.9 L 174.3 188.7 L 170.5 186.2 L 168.9 183.2 Z M 114.7 175.3 L 113.8 173.5 L 112.8 171.7 L 110.4 168.1 L 109.1 166.3 L 107.6 164.5 L 106.0 162.6 L 105.6307209968567 162.34733543395996 L 105.6 162.4 L 102.4 166.9 L 98.9 171.3 L 95.0 175.3 L 90.8 179.1 L 86.2 182.6 L 81.2 185.7 L 75.8 188.5 L 74.8 187.0 L 78.8 182.7 L 82.6 178.6 L 86.1 174.5 L 89.3 170.3 L 92.1 166.1 L 94.6 161.9 L 96.8 157.5 L 98.7 153.1 L 100.2 148.5 L 101.22210865020752 144.80468406677247 L 101.2 144.8 L 101.43157892227173 144.04736843109131 L 101.5 143.8 L 101.50703363418579 143.80214071273804 L 102.0 142.2 L 113.0 147.3 L 115.3 150.0 L 111.49838275909424 151.0182903289795 L 110.9 152.5 L 108.4 157.6 L 106.75596332550049 160.41834859848024 L 107.2 160.6 L 109.7 161.3 L 112.1 162.2 L 114.4 163.3 L 116.6 164.5 L 118.7 165.8 L 120.8 167.4 L 122.8 169.0 L 124.7 170.8 L 126.5 172.7 L 127.2 177.3 L 124.6 181.0 L 120.1 181.7 L 116.3 179.1 L 115.6 177.2 Z M 145.0 113.9 L 145.0 134.5 L 161.2 134.5 L 161.2 113.9 Z M 97.7 113.9 L 97.7 134.5 L 113.9 134.5 L 113.9 113.9 Z M 166.0 101.3 L 160.4 97.3 L 155.0 93.0 L 149.8 88.2 L 144.9 83.1 L 140.3 77.6 L 135.9 71.8 L 131.9 65.5 L 131.72295083999634 65.16557378768921 L 130.9 66.4 L 125.7 73.2 L 120.2 79.6 L 114.4 85.5 L 108.3 91.0 L 101.9 96.0 L 95.2 100.6 L 88.1 104.7 L 87.68888893127442 104.8944444656372 L 97.7 109.9 L 113.9 109.9 L 119.4 104.9 L 129.9 113.9 L 124.9 117.4 L 124.9 142.5 L 113.9 148.0 L 113.9 138.5 L 97.7 138.5 L 97.7 145.5 L 85.7 151.5 L 85.7 105.83513517379761 L 80.7 108.2 L 73.0 111.0 L 72.3 109.4 L 78.9 104.8 L 85.2 100.2 L 91.3 95.3 L 97.1 90.2 L 102.5 84.8 L 107.7 79.1 L 112.5 73.1 L 117.1 66.8 L 121.4 60.1 L 124.92832565307617 54.01363830566406 L 124.9 54.0 L 125.9 52.3 L 135.7 59.2 L 137.3 62.5 L 134.78461542129517 62.5 L 135.2 62.9 L 140.4 67.9 L 145.5 72.7 L 150.7 77.1 L 155.9 81.1 L 161.2 84.8 L 166.5 88.1 L 172.0 91.1 L 177.5 93.8 L 183.1 96.0 L 189.2 98.7 L 177.8 108.1 L 171.8 104.9 Z M 151.0 94.0 L 151.0 98.0 L 106.7 98.0 L 106.7 94.0 L 132.8181818008423 94.0 L 141.0 85.0 Z M 75.1 31.4 L 77.4 34.1 L 73.59176950454712 35.12006168365478 L 72.0 39.0 L 70.3 43.0 L 68.4 47.2 L 66.4 51.4 L 64.3 55.8 L 62.0 60.2 L 59.5 64.8 L 56.8 69.4 L 53.8 74.2 L 52.1 73.4 L 53.4 68.1 L 54.7 62.9 L 56.0 57.9 L 57.3 53.1 L 58.6 48.5 L 59.8 44.1 L 60.9 39.8 L 61.9 35.7 L 62.8 31.7 L 63.38565330505371 28.918146896362305 L 63.3 28.9 L 63.561538505554196 28.082692337036132 L 63.6 27.9 L 63.61822500228882 27.905546760559083 L 64.1 26.4 Z M 24.4 62.0 L 23.9 58.5 L 23.3 54.8 L 22.6 50.9 L 21.8 46.9 L 20.9 42.7 L 20.0 38.3 L 19.0 33.7 L 17.7 28.9 L 19.4 28.2 L 21.9 32.5 L 24.4 36.5 L 26.6 40.6 L 28.6 44.6 L 30.4 48.5 L 32.0 52.3 L 33.4 56.1 L 34.7 59.8 L 35.8 63.4 L 36.7 66.9 L 35.6 71.3 L 31.7 73.7 L 27.2 72.5 L 24.8 68.6 L 24.7 65.4 Z M 106.0 51.9 L 105.4 49.9 L 104.7 47.8 L 103.8 45.7 L 102.7 43.5 L 101.4 41.3 L 99.9 39.1 L 98.3 36.7 L 96.93500003814697 35.4 L 95.55849056243896 35.4 L 94.2 38.4 L 91.5 43.5 L 88.5 48.4 L 85.2 53.1 L 81.6 57.5 L 77.7 61.7 L 73.4 65.4 L 72.0 64.3 L 74.7 59.4 L 77.2 54.5 L 79.6 49.7 L 81.8 44.8 L 83.8 39.9 L 85.6 34.9 L 87.1 29.8 L 88.5 24.6 L 89.6 19.3 L 90.33269233703614 14.903846168518067 L 90.3 14.9 L 90.8 12.1 L 102.2 16.3 L 104.8 18.8 L 101.14355401992798 20.129616737365723 L 100.6 22.1 L 98.8 27.7 L 97.2925926208496 31.4 L 115.11818180084228 31.4 L 123.3 22.4 L 133.3 31.4 L 133.3 35.4 L 101.04615383148193 35.4 L 102.5 36.1 L 105.0 37.6 L 107.4 39.3 L 109.6 41.1 L 111.7 43.1 L 113.5 45.2 L 115.3 47.4 L 116.8 49.8 L 118.1 52.3 L 117.7 56.9 L 114.2 59.9 L 109.7 59.4 L 106.7 56.0 L 106.4 54.0 Z M 157.0 51.9 L 156.4 49.9 L 155.6 47.8 L 154.7 45.7 L 153.6 43.5 L 152.3 41.3 L 150.9 39.1 L 149.3 36.7 L 147.93500003814697 35.4 L 145.12051286697388 35.4 L 144.0 37.3 L 141.4 41.0 L 138.7 44.4 L 135.6 47.6 L 132.3 50.6 L 128.8 53.3 L 127.5 52.1 L 129.8 48.4 L 133.6 41.0 L 135.3 37.3 L 136.7 33.6 L 138.1 29.8 L 139.2 26.0 L 140.1 22.0 L 140.9 18.0 L 141.27703113555907 14.908345031738282 L 141.2 14.9 L 141.38113203048707 14.054716968536377 L 141.4 13.9 L 141.41371297836304 13.902672863006591 L 141.8 12.1 L 153.2 16.2 L 155.8 18.8 L 151.98666667938232 20.186666679382324 L 151.8 20.8 L 150.2 25.2 L 148.4 29.4 L 147.35 31.4 L 166.71818180084227 31.4 L 174.9 22.4 L 184.9 31.4 L 184.9 35.4 L 152.04615383148194 35.4 L 153.5 36.1 L 156.0 37.6 L 158.4 39.3 L 160.6 41.1 L 162.6 43.1 L 164.5 45.2 L 166.2 47.4 L 167.7 49.8 L 169.1 52.3 L 168.6 56.9 L 165.2 59.9 L 160.6 59.4 L 157.7 56.0 L 157.4 54.0 Z " />
</g>
</svg>
