<svg xmlns="http://www.w3.org/2000/svg" xmlns:xlink="http://www.w3.org/1999/xlink" version="1.1" baseProfile="full" viewBox="0 0 200 200" width="200" height="200">
<g fill="black">
<path d="M 68.7 151.1 L 67.8 147.2 L 66.8 143.5 L 65.7 139.9 L 64.5 136.4 L 63.1 133.0 L 61.6 129.7 L 60.0 126.4 L 58.1 123.3 L 59.4 122.1 L 62.4 124.4 L 65.3 127.0 L 68.1 129.8 L 70.6 133.0 L 72.9 136.4 L 75.0 140.1 L 77.0 143.9 L 78.7 148.0 L 80.3 152.3 L 80.7 153.58571424484253 L 80.7 150.0 L 124.8 150.0 L 124.8 126.0 L 89.2 126.0 L 89.2 122.0 L 124.8 122.0 L 124.8 98.0 L 94.3 98.0 L 94.3 94.0 L 124.8 94.0 L 124.8 70.0 L 87.5 70.0 L 87.5 66.0 L 124.8 66.0 L 124.8 42.0 L 94.3 42.0 L 94.3 38.0 L 124.8 38.0 L 124.8 13.0 L 136.8 15.0 L 139.8 17.0 L 136.8 18.8 L 136.8 38.0 L 158.0 38.0 L 164.0 33.0 L 175.0 42.0 L 170.0 46.0 L 170.0 66.0 L 173.5777777671814 66.0 L 179.8 59.0 L 187.8 66.0 L 187.8 70.0 L 170.0 70.0 L 170.0 102.0 L 158.0 108.0 L 158.0 98.0 L 136.8 98.0 L 136.8 122.0 L 155.6 122.0 L 165.6 112.0 L 177.6 122.0 L 177.6 126.0 L 136.8 126.0 L 136.8 150.0 L 164.1 150.0 L 174.1 140.0 L 186.1 150.0 L 186.1 154.0 L 136.8 154.0 L 136.8 183.0 L 124.8 189.0 L 124.8 154.0 L 80.82888889312744 154.0 L 81.7 156.8 L 80.8 161.3 L 77.1 163.9 L 72.6 163.0 L 70.0 159.2 L 69.4 155.1 Z M 69.1 105.1 L 68.77388753890992 103.83178482055663 L 67.8 104.3 L 62.5 106.6 L 57.0 108.6 L 54.5 109.4035714149475 L 54.5 183.0 L 42.5 189.0 L 42.5 112.96842107772827 L 40.1 113.6 L 34.3 115.1 L 28.4 116.4 L 22.5 117.6 L 20.525597286224365 117.9948805809021 L 18.8 121.5 L 16.5 118.8 L 12.9 107.1 L 14.9 106.9 L 20.8 106.4 L 26.7 105.8 L 29.290819358825683 105.5319842338562 L 31.2 102.0 L 35.3 94.8 L 39.4 87.5 L 43.5 80.3 L 47.6 73.2 L 51.6 65.9 L 55.6 58.7 L 59.5 51.5 L 63.3 44.2 L 67.0 36.9 L 67.05708742141724 36.93153400421143 L 67.6 35.9 L 77.5 42.7 L 79.2 45.9 L 75.5129584312439 46.027139377594 L 73.2 49.9 L 64.2 63.9 L 59.5 70.8 L 54.7 77.7 L 49.9 84.5 L 44.9 91.2 L 39.7 97.8 L 34.3 104.2 L 33.52060089111328 105.07682399749756 L 38.3 104.5 L 44.0 103.8 L 49.8 103.0 L 55.4 102.2 L 61.1 101.4 L 66.8 100.7 L 67.872305393219 100.58712577819824 L 67.1 98.2 L 65.8 94.8 L 64.5 91.6 L 62.9 88.4 L 61.3 85.3 L 59.5 82.2 L 57.5 79.3 L 58.7 78.0 L 61.7 80.1 L 64.8 82.4 L 67.6 85.0 L 70.3 87.9 L 72.7 90.9 L 75.0 94.3 L 77.1 97.8 L 79.0 101.5 L 80.7 105.4 L 82.3 109.6 L 81.6 114.1 L 77.9 116.9 L 73.4 116.2 L 70.6 112.5 L 70.0 108.8 Z M 36.7 128.6 L 39.5 130.9 L 36.00681819915771 132.48181819915771 L 35.7 134.2 L 34.4 139.7 L 32.9 145.1 L 31.1 150.5 L 29.0 155.8 L 26.6 161.0 L 24.0 166.1 L 21.1 171.0 L 17.7 175.8 L 14.0 180.4 L 12.5 179.5 L 14.4 174.0 L 16.2 168.7 L 18.0 163.5 L 19.6 158.3 L 21.0 153.1 L 22.1 147.9 L 23.1 142.8 L 23.9 137.6 L 24.5 132.5 L 24.74224672317505 128.30105619430543 L 24.7 128.3 L 25.0 125.2 Z M 136.8 70.0 L 136.8 94.0 L 158.0 94.0 L 158.0 70.0 Z M 29.6 69.0 L 28.4 66.0 L 26.9 63.0 L 25.2 60.1 L 23.4 57.3 L 21.3 54.5 L 19.0 51.7 L 16.5 48.8 L 13.6 46.2 L 14.6 44.7 L 18.2 46.4 L 21.8 48.2 L 25.2 50.2 L 28.3 52.6 L 28.90344829559326 53.10287351608277 L 29.7 51.2 L 31.4 47.0 L 33.3 42.8 L 38.7 30.5 L 40.5 26.5 L 42.3 22.4 L 44.0 18.3 L 45.242296028137204 15.116616344451904 L 45.2 15.1 L 45.422222232818605 14.655555534362794 L 45.6 14.2 L 45.64014873504639 14.219702625274659 L 46.2 13.1 L 56.4 19.5 L 58.2 22.6 L 54.377456951141355 22.9295295715332 L 54.1 23.4 L 51.7 27.3 L 49.2 31.2 L 46.7 35.0 L 44.1 38.7 L 41.4 42.4 L 38.6 46.1 L 35.7 49.6 L 32.6 53.1 L 30.94636869430542 54.80530729293823 L 31.3 55.1 L 34.0 57.9 L 36.6 60.9 L 38.9 64.1 L 41.0 67.5 L 42.8 71.1 L 42.6 75.6 L 39.3 78.8 L 34.7 78.5 L 31.6 75.2 L 30.7 72.1 Z M 136.8 42.0 L 136.8 66.0 L 158.0 66.0 L 158.0 42.0 Z " />
</g>
</svg>
