<svg xmlns="http://www.w3.org/2000/svg" xmlns:xlink="http://www.w3.org/1999/xlink" version="1.1" baseProfile="full" viewBox="0 0 200 200" width="200" height="200">
<g fill="black">
<path d="M 121.4 46.8 L 117.6 54.4 L 115.5 58.3 L 113.4 62.1 L 111.1 66.0 L 108.7 69.9 L 106.1 73.7 L 104.3014464378357 76.14089412689209 L 109.3 75.9 L 118.0 75.5 L 127.0 75.0 L 136.2 74.4 L 145.8 73.9 L 155.8 73.4 L 161.61788167953492 73.22888584136963 L 160.3 71.1 L 157.4 66.9 L 154.4 62.8 L 151.2 58.7 L 144.4 50.3 L 145.5 48.9 L 150.4 51.7 L 154.9 54.8 L 159.1 58.3 L 163.1 61.9 L 166.9 65.8 L 170.5 69.8 L 173.8 74.1 L 177.0 78.4 L 179.9 83.0 L 182.6 87.7 L 182.8 92.2 L 179.7 95.7 L 175.2 95.8 L 171.7 92.8 L 169.8 88.3 L 167.7 83.9 L 165.4 79.5 L 163.0520833015442 75.55550003051758 L 156.2 77.2 L 146.5 79.2 L 137.0 81.0 L 127.8 82.5 L 118.9 83.9 L 110.2 85.2 L 101.8 86.3 L 93.7 87.3 L 85.9 88.1 L 82.49106569290161 88.46361961364747 L 80.5 91.8 L 78.4 88.9 L 75.8 77.0 L 77.8 76.9 L 85.2 76.8 L 92.9 76.6 L 100.19741878509521 76.32972526550293 L 101.7 71.5 L 103.1 67.2 L 105.9 58.8 L 108.5 50.6 L 109.7 46.7 L 110.74358978271485 43.0 L 73.87419357299805 43.0 L 75.5 45.8 L 71.80125427246094 45.988071823120116 L 69.6 49.8 L 65.3 56.8 L 60.9 63.8 L 56.4 70.8 L 51.8 77.6 L 47.1 84.4 L 42.3 91.1 L 37.3 97.7 L 32.1 104.2 L 31.358309078216553 105.0653060913086 L 41.3 103.8 L 46.8 103.0 L 52.2 102.2 L 57.7 101.4 L 63.2 100.7 L 64.03782386779785 100.60860099792481 L 63.3 98.1 L 62.1 94.8 L 60.8 91.6 L 59.4 88.4 L 56.2 82.2 L 54.2 79.3 L 55.5 78.0 L 58.4 80.2 L 61.4 82.5 L 64.1 85.1 L 66.7 87.9 L 69.0 91.0 L 71.2 94.3 L 73.3 97.9 L 75.1 101.6 L 76.8 105.5 L 78.3 109.6 L 77.5 114.1 L 73.9 116.9 L 69.4 116.1 L 66.6 112.5 L 66.0 108.7 L 65.2 105.0 L 64.92658224105836 103.93670883178712 L 64.2 104.3 L 59.1 106.6 L 53.8 108.6 L 51.7 109.31320753097535 L 51.7 183.0 L 39.7 189.0 L 39.7 113.02727270126343 L 32.1 115.1 L 26.5 116.4 L 20.8 117.6 L 19.1521559715271 117.94093322753906 L 17.4 121.5 L 15.0 118.8 L 11.4 107.1 L 13.4 106.9 L 19.1 106.4 L 27.21419687271118 105.53062171936035 L 32.8 94.8 L 36.7 87.6 L 40.7 80.4 L 44.6 73.2 L 52.2 58.8 L 55.9 51.6 L 59.6 44.3 L 62.74621849060058 37.9201681137085 L 62.7 37.9 L 63.7 36.0 L 70.2 40.355000019073486 L 70.2 39.0 L 122.5 39.0 L 122.5 13.0 L 134.5 15.0 L 137.5 17.0 L 134.5 18.8 L 134.5 39.0 L 164.7 39.0 L 174.7 29.0 L 186.7 39.0 L 186.7 43.0 L 123.1 43.0 Z M 138.7 176.0 L 152.7 176.0 L 153.9 175.9 L 154.8 175.7 L 155.4 175.5 L 155.8 175.4 L 156.0 175.2 L 156.1 175.0 L 156.3 174.7 L 156.5 174.1 L 156.6 173.2 L 156.7 172.0 L 156.7 152.0 L 100.2 152.0 L 100.2 183.0 L 88.2 189.0 L 88.2 94.0 L 100.2 100.0 L 156.7 100.0 L 162.7 95.0 L 173.7 104.0 L 168.7 108.0 L 168.7 172.0 L 168.6 174.5 L 168.1 177.0 L 167.3 179.4 L 166.1 181.7 L 164.4 183.7 L 162.4 185.3 L 160.2 186.6 L 157.8 187.4 L 155.3 187.8 L 152.7 188.0 L 152.7 182.0 L 138.7 179.0 Z M 34.6 128.5 L 37.4 130.8 L 33.89396619796753 132.45378952026368 L 33.6 134.1 L 32.4 139.7 L 30.9 145.1 L 29.1 150.5 L 27.1 155.8 L 24.8 160.9 L 22.3 166.0 L 19.4 171.0 L 16.2 175.8 L 12.6 180.4 L 11.0 179.5 L 14.6 168.7 L 16.2 163.5 L 17.7 158.3 L 19.0 153.1 L 20.2 148.0 L 21.1 142.8 L 21.8 137.7 L 22.3 132.5 L 22.623047351837158 128.30038414001464 L 22.6 128.3 L 22.9 125.2 Z M 64.8 151.0 L 64.0 147.1 L 63.0 143.4 L 62.0 139.8 L 60.8 136.4 L 59.5 133.0 L 58.1 129.7 L 56.6 126.4 L 54.8 123.3 L 56.2 122.1 L 59.0 124.5 L 61.9 127.0 L 64.5 129.9 L 67.0 133.1 L 69.2 136.5 L 71.3 140.1 L 73.2 144.0 L 74.9 148.1 L 76.4 152.4 L 77.8 156.8 L 76.8 161.3 L 73.0 163.9 L 68.6 162.9 L 66.0 159.2 L 65.4 155.0 Z M 100.2 128.0 L 100.2 148.0 L 156.7 148.0 L 156.7 128.0 Z M 100.2 104.0 L 100.2 124.0 L 156.7 124.0 L 156.7 104.0 Z M 27.3 68.9 L 26.1 65.9 L 24.8 63.0 L 23.2 60.1 L 21.4 57.2 L 19.4 54.4 L 17.3 51.6 L 14.9 48.8 L 12.2 46.2 L 13.1 44.7 L 16.6 46.5 L 20.1 48.2 L 23.4 50.3 L 26.4 52.6 L 26.834215259552003 52.989296436309814 L 27.5 51.2 L 29.2 47.0 L 32.6 38.8 L 34.4 34.7 L 37.8 26.5 L 39.4 22.5 L 42.24260129928589 15.215834140777588 L 42.2 15.2 L 42.470270252227785 14.632432460784912 L 42.6 14.3 L 42.62336549758911 14.310932445526124 L 43.2 13.1 L 53.5 19.4 L 55.3 22.5 L 51.436064052581784 22.89971752166748 L 46.6 31.1 L 41.6 38.7 L 39.0 42.4 L 36.3 46.0 L 33.5 49.6 L 30.5 53.0 L 28.85658483505249 54.80245532989502 L 29.3 55.2 L 31.9 58.0 L 34.4 61.0 L 36.6 64.1 L 38.7 67.5 L 40.5 71.1 L 40.2 75.7 L 36.8 78.8 L 32.2 78.5 L 29.1 75.1 L 28.3 72.0 Z " />
</g>
</svg>
