<svg xmlns="http://www.w3.org/2000/svg" xmlns:xlink="http://www.w3.org/1999/xlink" version="1.1" baseProfile="full" viewBox="0 0 200 200" width="200" height="200">
<g fill="black">
<path d="M 148.2 177.0 L 164.2 177.0 L 165.4 176.9 L 166.3 176.7 L 166.9 176.5 L 167.3 176.4 L 167.5 176.2 L 167.6 176.0 L 167.8 175.7 L 168.0 175.1 L 168.1 174.2 L 168.2 173.0 L 168.2 71.0 L 93.9 71.0 L 93.9 183.0 L 81.9 189.0 L 81.9 61.0 L 93.9 67.0 L 124.5 67.0 L 124.5 43.0 L 76.2 43.0 L 76.2 39.0 L 124.5 39.0 L 124.5 14.0 L 136.5 16.0 L 139.5 18.0 L 136.5 19.8 L 136.5 39.0 L 166.0 39.0 L 176.0 29.0 L 188.0 39.0 L 188.0 43.0 L 136.5 43.0 L 136.5 67.0 L 168.2 67.0 L 174.2 62.0 L 185.2 71.0 L 180.2 75.0 L 180.2 173.0 L 180.1 175.5 L 179.6 178.0 L 178.8 180.4 L 177.6 182.7 L 175.9 184.7 L 173.9 186.3 L 171.7 187.6 L 169.3 188.4 L 166.8 188.8 L 164.2 189.0 L 164.2 183.0 L 148.2 180.0 Z M 154.9 81.1 L 156.9 84.1 L 152.76983156204224 84.74088821411132 L 151.9 86.1 L 150.3 88.7 L 148.6 91.5 L 146.7 94.3 L 144.8 97.3 L 142.7 100.4 L 140.4 103.6 L 137.9 106.9 L 137.17714281082152 108.0 L 144.3181818008423 108.0 L 152.5 99.0 L 162.5 108.0 L 162.5 112.0 L 136.5 112.0 L 136.5 136.0 L 143.7 136.0 L 153.7 126.0 L 165.7 136.0 L 165.7 140.0 L 136.5 140.0 L 136.5 178.0 L 124.5 184.0 L 124.5 140.0 L 98.6 140.0 L 98.6 136.0 L 124.5 136.0 L 124.5 112.0 L 100.7 112.0 L 100.7 108.0 L 134.5384614944458 108.0 L 135.4 105.6 L 136.5 101.7 L 137.6 97.9 L 138.7 94.4 L 139.7 91.0 L 140.7 87.8 L 141.6 84.8 L 142.4 81.9 L 143.1 79.2 L 143.54543495178223 77.54552745819092 L 143.4 77.5 L 144.3 75.3 Z M 14.0 166.1 L 19.7 163.8 L 25.6 161.5 L 31.5 159.1 L 43.9 154.3 L 50.3 151.8 L 56.8 149.3 L 63.5 146.8 L 70.4 144.4 L 77.5 142.1 L 78.2 143.8 L 72.0 147.8 L 65.8 151.6 L 59.6 155.2 L 53.5 158.6 L 47.5 161.9 L 41.6 165.1 L 35.7 168.2 L 30.0 171.2 L 24.4 174.2 L 22.585015296936035 175.12399225234986 L 22.0 178.9 L 18.9 177.0 L 12.1 166.9 Z M 16.336908531188964 124.17255516052246 L 16.4 123.1 L 19.4 121.2 L 22.9 117.5 L 27.0 111.9 L 31.6 104.7 L 36.4 96.2 L 41.4 86.9 L 43.545962715148924 82.6939130783081 L 42.1 83.2 L 34.3 85.6 L 26.7 87.8 L 23.0 88.8 L 20.013872814178466 89.62947978973389 L 18.3 93.4 L 15.8 90.7 L 12.0 79.2 L 13.35393705368042 78.98622045516967 L 15.5 77.4 L 18.1 74.1 L 21.1 69.2 L 24.3 62.9 L 27.7 55.7 L 31.0 47.8 L 34.1 39.8 L 37.0 32.0 L 39.5 24.9 L 41.28626823425293 19.626255607604982 L 41.2 19.6 L 42.1 17.4 L 52.7 23.1 L 54.8 26.0 L 51.13899450302124 26.64228162765503 L 50.1 29.0 L 46.9 36.1 L 43.3 43.8 L 39.4 51.7 L 35.3 59.5 L 31.0 66.7 L 26.5 72.9 L 22.0 77.7 L 20.892927265167238 78.42200393676758 L 21.3 78.4 L 25.1 78.2 L 29.0 77.9 L 32.9 77.7 L 41.1 77.3 L 45.3 77.2 L 46.34897956848145 77.2 L 51.4 67.3 L 56.2 57.8 L 60.6 48.9 L 60.65708742141724 48.93153400421143 L 61.2 47.9 L 71.1 54.7 L 72.8 57.9 L 69.18464508056641 58.02255439758301 L 66.2 63.2 L 60.8 72.4 L 55.3 82.0 L 49.5 91.5 L 43.7 100.6 L 37.9 108.9 L 32.2 116.0 L 26.6 121.4 L 25.870270252227783 121.83243246078491 L 27.6 121.4 L 32.8 120.2 L 38.1 119.0 L 43.5 117.8 L 48.8 116.7 L 54.3 115.6 L 59.8 114.6 L 65.4 113.7 L 71.0 113.1 L 71.5 114.8 L 66.4 117.4 L 61.3 119.7 L 56.2 121.9 L 51.0 123.9 L 40.8 127.9 L 35.7 129.8 L 25.7 133.6 L 24.6306640625 133.9849609375 L 23.5 137.7 L 20.7 135.4 L 15.3 124.5 Z M 113.7 97.4 L 113.1 94.8 L 112.4 92.3 L 111.6 89.8 L 110.6 87.3 L 109.5 84.8 L 108.3 82.2 L 106.9 79.6 L 105.1 77.3 L 106.3 76.0 L 108.7 77.9 L 111.3 79.6 L 113.7 81.5 L 116.0 83.7 L 118.1 86.0 L 120.0 88.4 L 121.7 91.0 L 123.3 93.7 L 124.8 96.6 L 126.0 99.6 L 125.3 104.1 L 121.7 106.9 L 117.2 106.1 L 114.4 102.5 L 114.1 99.9 Z " />
</g>
</svg>
