<svg xmlns="http://www.w3.org/2000/svg" xmlns:xlink="http://www.w3.org/1999/xlink" version="1.1" baseProfile="full" viewBox="0 0 200 200" width="200" height="200">
<g fill="black">
<path d="M 107.0 106.0 L 107.3 104.7 L 107.4 103.3 L 107.5 102.0 L 107.6 100.5 L 107.6 97.5 L 107.5 95.9 L 106.9 94.5 L 108.4 93.6 L 109.3 94.9 L 111.9 97.1 L 114.1 99.7 L 115.1 101.0 L 116.1 102.5 L 116.9 104.0 L 117.7 105.6 L 118.4 107.2 L 117.1 111.6 L 116.00909090042114 112.2 L 122.81818180084228 112.2 L 123.25 111.725 L 123.6 110.5 L 123.7 108.3 L 123.9 106.1 L 124.1 104.0 L 124.2 102.0 L 124.4 100.0 L 124.5 98.0 L 124.6 96.1 L 124.74720668792725 93.45027933120727 L 124.5 93.4 L 125.3 90.9 L 136.3 95.8 L 138.6 98.6 L 133.9147131919861 99.85498752593995 L 133.3 100.9 L 132.2 102.7 L 131.5179856300354 103.66618709564209 L 141.0 112.2 L 141.0 116.2 L 125.6 116.2 L 125.6 133.1 L 128.6 133.1 L 133.1 127.1 L 139.1 133.1 L 139.1 137.1 L 125.6 137.1 L 125.6 153.6 L 129.0777777671814 153.6 L 135.3 146.6 L 143.3 153.6 L 143.3 157.6 L 125.6 157.6 L 125.6 181.2 L 113.6 187.2 L 113.6 157.6 L 95.8 157.6 L 95.8 153.6 L 113.6 153.6 L 113.6 137.1 L 100.0 137.1 L 100.0 133.1 L 113.6 133.1 L 113.6 116.2 L 98.1 116.2 L 98.1 112.2 L 108.53500003814698 112.2 L 106.5 108.5 L 106.8 107.3 Z M 185.8 176.8 L 186.8800000190735 179.31999998092653 L 188.0 181.0 L 186.8800000190735 182.68000001907347 L 185.8 185.2 L 182.7199999809265 186.5199999809265 L 182.0 187.0 L 181.6 187.0 L 179.1 186.8 L 176.6 186.3 L 174.3 185.4 L 172.1 184.1 L 170.2 182.4 L 168.7 180.4 L 167.7 178.2 L 167.0 175.9 L 166.7 173.5 L 166.6 171.0 L 166.6 135.2 L 160.4 135.2 L 160.4 140.6 L 160.1452229499817 140.9821656227112 L 160.4 141.0 L 159.4 147.6 L 158.0 153.8 L 156.3 159.5 L 154.1 164.9 L 151.5 169.8 L 148.5 174.3 L 145.1 178.3 L 141.3 181.7 L 137.1 184.6 L 132.6 186.8 L 131.8 185.5 L 135.2 182.1 L 138.2 178.6 L 140.8 174.9 L 143.2 170.9 L 145.2 166.6 L 146.9 162.1 L 148.2 157.2 L 149.3 151.9 L 150.0 146.3 L 150.4 140.3 L 150.4 135.2 L 143.5 135.2 L 143.5 131.2 L 150.4 131.2 L 150.4 100.5 L 143.0 100.5 L 143.0 96.5 L 166.6 96.5 L 171.6 91.5 L 181.6 100.5 L 176.6 103.5 L 176.6 171.0 L 176.73432836532592 171.94029846191407 L 182.0 150.0 L 184.0 150.0 L 182.0 175.0 L 179.4 175.0 L 180.4 175.1 L 181.6 175.0 L 182.0 175.0 L 182.7199999809265 175.4800000190735 Z M 61.8 114.4 L 58.0 116.9 L 53.6 115.9 L 51.0 112.1 L 50.7 108.3 L 50.2 104.6 L 50.19425439834595 104.56648426055908 L 47.2 106.3 L 43.4 108.3 L 42.8 108.56999998092651 L 42.8 183.0 L 30.8 189.0 L 30.8 131.6 L 29.435294151306152 132.28235292434692 L 29.2 133.9 L 28.2 139.4 L 27.0 144.8 L 25.6 150.2 L 24.0 155.5 L 22.1 160.6 L 20.1 165.8 L 17.8 170.8 L 15.2 175.6 L 12.2 180.3 L 10.5 179.6 L 11.6 174.2 L 13.8 163.8 L 14.8 158.6 L 15.7 153.4 L 16.5 148.3 L 17.1 143.1 L 17.9 132.7 L 18.0 127.5 L 18.062208366394042 127.50466566085815 L 18.2 125.3 L 30.0 128.4 L 30.8 129.02857141494752 L 30.8 113.58292684555053 L 27.2 114.9 L 18.8 117.5 L 18.651485919952393 117.54144582748413 L 17.0 121.3 L 14.5 118.7 L 10.4 107.2 L 12.4 106.9 L 16.5 106.4 L 20.7 105.9 L 22.541336154937746 105.63695201873779 L 23.7 102.3 L 26.4 95.1 L 29.2 87.9 L 34.8 73.7 L 40.4 59.3 L 43.1 52.1 L 45.7 44.9 L 48.02708778381348 38.60824413299561 L 48.0 38.6 L 48.9 36.3 L 59.5 42.1 L 61.5 45.1 L 57.89106149673462 45.669832420349124 L 56.3 49.2 L 53.0 56.3 L 49.6 63.3 L 46.1 70.3 L 42.6 77.2 L 35.2 90.8 L 31.3 97.4 L 27.1 104.0 L 26.371217250823975 105.0846999168396 L 29.0 104.7 L 33.1 104.0 L 37.3 103.3 L 41.4 102.5 L 45.6 101.7 L 49.58672981262207 101.0355450630188 L 48.9 97.7 L 48.2 94.4 L 47.3 91.2 L 46.4 88.1 L 44.4 82.1 L 43.1 79.3 L 44.5 78.2 L 46.8 80.5 L 49.2 82.8 L 51.4 85.4 L 53.5 88.3 L 55.4 91.4 L 57.2 94.8 L 58.8 98.3 L 60.3 102.0 L 61.6 105.9 L 62.4 108.5666666984558 L 62.4 91.1 L 73.4 96.6 L 84.2 96.6 L 89.7 91.6 L 100.2 100.6 L 95.2 104.1 L 95.2 170.2 L 95.1 172.6 L 94.7 174.9 L 94.0 177.2 L 93.0 179.3 L 91.6 181.3 L 89.9 182.9 L 87.8 184.2 L 85.6 185.0 L 83.3 185.5 L 80.9 185.7 L 80.9 180.2 L 68.9 177.4 L 68.9 174.7 L 80.9 174.7 L 81.9 174.6 L 82.6 174.5 L 83.2 174.2 L 83.4 174.0 L 83.5 173.8 L 83.7 173.3 L 84.0 172.6 L 84.1 171.5 L 84.2 170.2 L 84.2 146.3 L 73.4 146.3 L 73.4 147.4 L 73.0 153.1 L 72.4 158.4 L 71.6 163.2 L 70.5 167.6 L 69.3 171.6 L 67.8 175.2 L 66.1 178.3 L 64.2 180.9 L 62.0 182.9 L 59.8 184.4 L 58.7 183.2 L 59.8 181.2 L 60.6 178.8 L 61.2 176.2 L 61.8 173.3 L 62.2 170.0 L 62.5 166.3 L 62.7 162.2 L 62.8 157.7 L 62.7 152.8 L 62.4 147.4 L 62.4 111.7 Z M 49.8 150.6 L 48.8 143.0 L 48.1 139.5 L 47.3 136.0 L 46.5 132.7 L 44.7 126.3 L 43.5 123.3 L 45.0 122.3 L 47.3 124.7 L 49.6 127.3 L 51.8 130.3 L 53.7 133.4 L 55.5 136.9 L 57.2 140.5 L 58.7 144.4 L 60.1 148.4 L 61.3 152.7 L 62.4 157.1 L 61.3 161.5 L 57.4 163.9 L 53.0 162.8 L 50.6 158.9 L 50.3 154.7 Z M 73.4 122.9 L 73.4 142.3 L 84.2 142.3 L 84.2 122.9 Z M 160.4 100.5 L 160.4 127.6 L 162.2 125.2 L 166.6 129.6 L 166.6 100.5 Z M 73.4 100.6 L 73.4 118.9 L 84.2 118.9 L 84.2 100.6 Z M 87.1 64.5 L 160.7 64.5 L 166.7 59.5 L 177.7 68.5 L 172.7 72.5 L 172.7 85.1 L 160.7 91.1 L 160.7 85.1 L 87.1 85.1 L 75.1 91.1 L 75.1 58.5 Z M 87.1 68.5 L 87.1 81.1 L 160.7 81.1 L 160.7 68.5 Z M 21.7 68.3 L 20.9 65.3 L 20.0 62.4 L 17.8 56.8 L 16.5 54.1 L 13.5 48.7 L 11.5 46.3 L 12.7 44.9 L 15.4 46.8 L 18.2 48.6 L 20.8 50.7 L 22.546153831481934 52.446153831481936 L 22.8 51.5 L 23.8 47.3 L 24.9 43.2 L 26.1 39.2 L 27.3 35.1 L 28.4 31.1 L 29.6 27.1 L 30.7 23.0 L 31.8 19.0 L 32.6546516418457 15.814480304718018 L 32.6 15.8 L 32.80571432113648 15.251428604125977 L 32.9 14.9 L 32.9331395149231 14.911627864837646 L 33.5 13.4 L 44.3 18.9 L 46.4 21.8 L 42.625333309173584 22.528444480895995 L 42.5 22.8 L 38.7 30.6 L 36.8 34.4 L 34.8 38.2 L 32.7 42.0 L 30.5 45.7 L 28.2 49.3 L 25.8 52.8 L 24.519931316375732 54.59209623336792 L 25.5 55.7 L 27.6 58.5 L 29.6 61.4 L 31.4 64.6 L 33.0 68.0 L 34.4 71.5 L 33.8 76.0 L 30.2 78.8 L 25.6 78.2 L 22.8 74.6 L 22.3 71.4 Z M 80.1 53.5 L 77.9 53.3 L 75.7 52.9 L 73.5 52.0 L 71.6 50.7 L 69.9 49.0 L 68.5 47.0 L 67.5 44.8 L 66.8 42.4 L 66.4 39.8 L 66.4 24.2 L 78.4 30.2 L 116.5 30.2 L 116.5 13.5 L 128.5 15.5 L 131.5 17.5 L 128.5 19.3 L 128.5 30.2 L 161.4 30.2 L 171.4 20.2 L 183.4 30.2 L 183.4 34.2 L 78.4 34.2 L 78.4 39.8 L 78.2 41.1 L 78.2 43.5 L 78.3 44.0 L 78.5 44.5 L 79.0 45.0 L 79.8 45.6 L 80.9 46.0 L 82.4 46.3 L 174.7 46.3 L 176.7 47.7 L 178.2 49.8 L 176.7 51.9 L 174.7 53.3 L 82.4 53.3 Z " />
</g>
</svg>
