<svg xmlns="http://www.w3.org/2000/svg" xmlns:xlink="http://www.w3.org/1999/xlink" version="1.1" baseProfile="full" viewBox="0 0 200 200" width="200" height="200">
<g fill="black">
<path d="M 96.7 98.1 L 100.2 96.75384616851807 L 100.2 70.6125 L 99.9 71.7 L 96.3 82.1 L 92.3 91.3 L 87.9 99.4 L 83.1 106.2 L 77.8 111.6 L 72.2 115.6 L 71.1 114.3 L 73.13207550048828 111.59056606292725 L 69.4 113.7 L 62.6 117.2 L 56.0 120.5 L 49.7 123.6 L 47.70434274673462 124.54875507354737 L 47.2 130.5 L 45.7 141.3 L 43.5 151.3 L 40.8 160.2 L 37.4 168.1 L 33.5 175.1 L 28.9 180.9 L 23.7 185.5 L 18.0 188.7 L 17.0 187.2 L 21.1 182.7 L 24.7 177.6 L 27.8 171.8 L 30.4 165.2 L 32.7 157.7 L 34.4 149.3 L 35.7 139.9 L 36.47269220352173 129.9515874862671 L 32.3 132.0 L 27.0 134.5 L 22.0 136.9 L 21.0511736869812 137.34413146972656 L 20.3 141.1 L 17.3 139.1 L 10.9 128.8 L 12.8 128.0 L 17.7 126.3 L 23.0 124.5 L 28.5 122.7 L 34.4 120.7 L 36.84340229034424 119.8988844871521 L 36.9 118.3 L 36.7 106.0 L 36.7 89.0 L 19.6 89.0 L 19.6 85.0 L 36.7 85.0 L 36.7 55.0 L 14.1 55.0 L 14.1 51.0 L 30.35 51.0 L 29.9 50.9 L 27.4 47.1 L 27.2 44.0 L 26.9 41.1 L 26.6 38.3 L 26.2 35.6 L 25.6 32.9 L 25.0 30.3 L 23.6 25.1 L 22.8 22.6 L 21.5 20.3 L 22.9 19.2 L 24.8 21.1 L 27.0 23.0 L 29.0 25.1 L 30.9 27.4 L 32.6 29.9 L 34.1 32.6 L 35.6 35.5 L 36.9 38.5 L 38.1 41.6 L 39.2 44.9 L 38.2 49.4 L 35.76800003051758 51.0 L 47.8384614944458 51.0 L 48.7 48.6 L 49.7 44.6 L 50.8 40.9 L 51.9 37.3 L 53.0 33.8 L 53.9 30.5 L 54.8 27.3 L 55.7 24.3 L 56.4 21.4 L 56.86179103851318 19.618805980682374 L 56.8 19.6 L 57.03225803375244 18.96129035949707 L 57.1 18.7 L 57.12386360168457 18.709375 L 57.6 17.4 L 68.3 23.1 L 70.4 26.0 L 66.30369844436646 26.706258869171144 L 65.3 28.4 L 63.7 31.2 L 61.9 34.1 L 60.1 37.1 L 58.1 40.1 L 56.0 43.3 L 53.7 46.6 L 51.3 49.8 L 50.5 51.0 L 59.7777777671814 51.0 L 66.0 44.0 L 74.0 51.0 L 74.0 55.0 L 48.7 55.0 L 48.7 85.0 L 51.018181800842285 85.0 L 59.2 76.0 L 69.2 85.0 L 69.2 89.0 L 48.7 89.0 L 48.7 106.0 L 48.695850658416745 106.0062240600586 L 48.299988174438475 116.14030237197876 L 53.6 114.4 L 60.6 112.2 L 67.9 110.1 L 75.59350852966308 108.12730550765991 L 78.6 103.2 L 82.1 96.3 L 85.3 88.3 L 88.2 79.3 L 90.9 69.2 L 92.21681413650512 63.0 L 74.5 63.0 L 74.5 59.0 L 80.4 59.0 L 80.4 27.0 L 92.4 33.0 L 97.0666666984558 33.0 L 97.2 32.0 L 98.6375 17.9125 L 98.9 15.2 L 110.6 18.6 L 113.4 20.9 L 110.06668004989623 22.409427833557128 L 108.5840000152588 33.0 L 111.6777777671814 33.0 L 117.9 26.0 L 125.9 33.0 L 125.9 37.0 L 107.88405799865723 37.0 L 106.0 47.4 L 103.35118112564086 59.0 L 109.81818180084228 59.0 L 118.0 50.0 L 128.0 59.0 L 128.0 63.0 L 112.2 63.0 L 115.2 65.0 L 112.2 66.8 L 112.2 91.08333330154419 L 115.2 89.5 L 118.7 87.6 L 122.1 85.6 L 125.6 83.6 L 129.0 81.5 L 132.3 79.3 L 133.6 80.6 L 131.2 83.9 L 128.7 87.2 L 125.9 90.3 L 123.0 93.3 L 119.8 96.1 L 116.5 98.9 L 113.1 101.6 L 109.5 104.1 L 105.8 106.6 L 105.60473709106445 106.71818542480469 L 105.1 110.7 L 102.0 108.9 L 94.9 99.0 Z M 102.0 111.4 L 155.5 111.4 L 161.5 106.4 L 172.5 115.4 L 167.5 119.4 L 167.5 178.5 L 155.5 184.5 L 155.5 174.5 L 102.0 174.5 L 102.0 181.5 L 90.0 187.5 L 90.0 105.4 Z M 102.0 144.9 L 102.0 170.5 L 155.5 170.5 L 155.5 144.9 Z M 102.0 115.4 L 102.0 140.9 L 155.5 140.9 L 155.5 115.4 Z M 180.2 89.0 L 182.2 89.0 L 180.2 98.0 L 182.6 99.6 L 184.2 102.0 L 182.6 104.4 L 180.2 106.0 L 168.1 106.0 L 165.8 105.8 L 163.6 105.3 L 161.4 104.3 L 159.4 103.0 L 157.7 101.2 L 156.4 99.2 L 155.4 96.9 L 154.8 94.5 L 154.5 92.0 L 154.5 68.76363639831543 L 153.9 70.8 L 150.1 80.7 L 146.0 89.3 L 141.3 96.6 L 136.3 102.6 L 130.8 107.0 L 124.9 109.7 L 124.1 108.2 L 128.3 104.1 L 132.2 99.1 L 135.8 93.1 L 139.1 86.0 L 142.2 77.7 L 145.0 68.1 L 146.18055553436278 63.0 L 130.2 63.0 L 130.2 59.0 L 134.0 59.0 L 134.0 27.0 L 146.0 33.0 L 151.34402980804444 33.0 L 151.5 31.9 L 152.94444446563722 17.840740776062013 L 153.2 15.2 L 164.9 18.6 L 167.7 20.9 L 164.33544578552247 22.42357168197632 L 162.77382555007935 33.0 L 167.37777776718139 33.0 L 173.6 26.0 L 181.6 33.0 L 181.6 37.0 L 162.0613139152527 37.0 L 160.2 47.2 L 157.34516124725343 59.0 L 162.4 59.0 L 172.4 49.0 L 184.4 59.0 L 184.4 63.0 L 166.5 63.0 L 169.5 65.0 L 166.5 66.8 L 166.5 92.0 L 166.3 93.2 L 166.3 94.9 L 166.4 95.5 L 166.5 95.9 L 166.7 96.4 L 167.2 96.8 L 167.9 97.3 L 169.0 97.7 L 170.5 98.0 L 176.2 98.0 Z M 146.0 37.0 L 146.0 59.0 L 147.1064814567566 59.0 L 147.5 57.3 L 149.6 45.3 L 150.77686567306517 37.0 Z M 92.4 37.0 L 92.4 59.0 L 93.06637172698974 59.0 L 93.3 57.9 L 95.4 45.5 L 96.53333330154419 37.0 Z " />
</g>
</svg>
