<svg xmlns="http://www.w3.org/2000/svg" xmlns:xlink="http://www.w3.org/1999/xlink" version="1.1" baseProfile="full" viewBox="0 0 200 200" width="200" height="200">
<g fill="black">
<path d="M 150.5 181.9 L 139.5 177.3 L 129.8 171.7 L 121.4 165.0 L 114.5 157.3 L 109.1 148.7 L 105.2 139.2 L 103.5433120727539 132.02101907730102 L 102.3 136.8 L 97.3 147.9 L 90.5 157.8 L 82.0 166.3 L 71.9 173.5 L 60.3 179.3 L 47.1 183.8 L 32.3 186.9 L 16.1 188.7 L 15.8 186.9 L 31.5 183.2 L 45.4 178.7 L 57.5 173.3 L 67.8 167.1 L 76.4 160.0 L 83.2 152.1 L 88.4 143.3 L 92.1 133.5 L 94.3 122.8 L 94.9 111.0 L 94.92939739227295 111.00048999786377 L 95.0 108.6 L 106.9 111.2 L 109.9 113.2 L 106.48071746826172 115.18318386077881 L 105.61208229064941 123.43521852493286 L 106.9 127.9 L 110.6 137.0 L 115.3 145.0 L 118.88260869979858 149.4782608985901 L 122.9 146.1 L 127.2 142.6 L 131.4 139.3 L 135.5 136.1 L 139.4 133.0 L 143.1 129.9 L 146.7 126.9 L 150.1 124.0 L 153.3 121.0 L 155.6272505760193 118.82789945602417 L 155.6 118.8 L 156.5 118.0 L 164.0 127.4 L 164.4 130.9 L 160.7671685218811 129.64502182006837 L 160.4 129.9 L 156.6 132.5 L 152.6 135.0 L 148.5 137.5 L 144.1 140.0 L 139.6 142.5 L 134.9 144.9 L 130.0 147.2 L 124.8 149.4 L 120.18685712814332 151.108571434021 L 120.9 152.0 L 127.5 158.0 L 135.2 163.0 L 144.0 167.3 L 154.0 170.6 L 165.2 173.1 L 177.7 174.7 L 188.1 175.9 L 176.2 187.8 L 162.7 185.4 Z M 35.3 156.3 L 35.0 151.7 L 38.0 148.3 L 41.3 146.8 L 44.5 145.0 L 47.3 143.0 L 50.0 140.8 L 52.5 138.2 L 54.8 135.2 L 56.8 131.9 L 58.7 128.3 L 60.5 124.2 L 61.9 119.7 L 63.7 119.9 L 63.7 124.8 L 63.3 129.6 L 62.4 134.1 L 61.0 138.5 L 59.2 142.6 L 56.9 146.4 L 54.2 150.0 L 51.0 153.4 L 47.3 156.3 L 43.3 159.0 L 38.7 159.3 Z M 137.0 99.6 L 153.0 99.6 L 154.2 99.5 L 155.1 99.4 L 155.7 99.2 L 156.0 99.0 L 156.2 98.8 L 156.4 98.7 L 156.5 98.3 L 156.7 97.7 L 156.9 96.8 L 157.0 95.6 L 157.0 52.5 L 127.0 52.5 L 127.0 101.5 L 115.0 107.5 L 115.0 52.5 L 87.0 52.5 L 87.0 102.6 L 75.0 108.6 L 75.0 52.5 L 46.0 52.5 L 46.0 105.8 L 34.0 111.8 L 34.0 42.5 L 46.0 48.5 L 85.7925926208496 48.5 L 86.2 47.4 L 86.9 44.5 L 87.6 41.7 L 88.4 39.0 L 89.1 36.4 L 89.8 33.9 L 90.6 31.4 L 91.2 28.9 L 91.22857141494751 28.8 L 17.0 28.8 L 17.0 24.7 L 164.0826446533203 24.7 L 174.0 14.7 L 186.0 24.7 L 186.0 28.8 L 103.73999996185303 28.8 L 103.4 29.3 L 102.0 31.3 L 99.0 35.5 L 97.4 37.6 L 95.8 39.8 L 94.1 41.9 L 92.3 44.1 L 90.4 46.3 L 88.4 48.5 L 157.0 48.5 L 163.0 43.5 L 174.0 52.5 L 169.0 56.5 L 169.0 95.6 L 168.8 98.2 L 168.4 100.6 L 167.6 103.1 L 166.3 105.3 L 164.7 107.3 L 162.7 109.0 L 160.4 110.2 L 158.0 111.0 L 155.5 111.5 L 153.0 111.6 L 153.0 105.6 L 137.0 102.6 Z " />
</g>
</svg>
