<svg xmlns="http://www.w3.org/2000/svg" xmlns:xlink="http://www.w3.org/1999/xlink" version="1.1" baseProfile="full" viewBox="0 0 200 200" width="200" height="200">
<g fill="black">
<path d="M 62.6 136.8 L 61.5 134.1 L 60.1 131.3 L 58.6 128.6 L 56.9 125.9 L 55.1 123.2 L 53.1 120.5 L 51.3 118.29090909957885 L 51.3 182.0 L 39.3 188.0 L 39.3 133.55 L 38.6 135.6 L 35.4 143.5 L 31.7 151.0 L 27.6 158.1 L 23.1 164.7 L 18.2 170.9 L 12.7 176.5 L 11.3 175.4 L 15.0 168.7 L 18.6 161.9 L 21.8 155.0 L 24.8 147.8 L 27.4 140.4 L 29.8 132.7 L 31.7 124.8 L 33.4 116.6 L 34.7 108.1 L 35.302469158172606 102.0 L 12.9 102.0 L 12.9 98.0 L 39.3 98.0 L 39.3 71.0 L 15.7 71.0 L 15.7 67.0 L 39.3 67.0 L 39.3 46.245454502105716 L 34.3 46.7 L 27.5 47.1 L 20.4 47.2 L 13.0 46.8 L 12.8 45.1 L 20.0 43.4 L 26.8 41.8 L 33.2 40.2 L 39.3 38.625806427001955 L 39.3 13.0 L 51.3 15.0 L 54.3 17.0 L 51.3 18.8 L 51.3 34.917307662963864 L 56.0 33.2 L 60.8 31.3 L 65.4 29.2 L 68.63699607849121 27.463075256347658 L 68.6 27.4 L 68.65668659210205 27.452509689331055 L 69.5 27.0 L 70.57220268249512 29.226882457733154 L 78.1 36.2 L 78.3 39.4 L 74.55582695007324 37.85478572845459 L 69.7 39.7 L 64.5 41.4 L 59.0 42.8 L 53.2 44.1 L 51.3 44.44833335876465 L 51.3 67.0 L 56.71818180084229 67.0 L 64.9 58.0 L 74.9 67.0 L 74.9 71.0 L 51.3 71.0 L 51.3 98.0 L 55.7 98.0 L 65.7 88.0 L 77.7 98.0 L 77.7 102.0 L 51.3 102.0 L 51.3 114.86875 L 52.6 115.6 L 55.9 117.2 L 59.0 119.2 L 61.9 121.4 L 64.6 123.7 L 67.1 126.2 L 69.5 128.9 L 71.7 131.7 L 73.7 134.7 L 75.6 137.9 L 75.5 142.5 L 72.3 145.7 L 67.7 145.7 L 64.5 142.5 L 63.6 139.6 Z M 149.6 183.7 L 137.8 182.6 L 128.1 180.7 L 120.1 177.9 L 113.7 174.3 L 108.7 169.9 L 105.0 164.9 L 102.4 159.3 L 101.67841730117797 156.71079139709474 L 101.48604650497437 156.8069766998291 L 100.9 157.7 L 99.0 160.9 L 95.0 166.9 L 92.9 169.7 L 90.9 172.5 L 88.9 175.2 L 86.8 177.7 L 85.57790699005128 179.22761631011963 L 86.3 183.5 L 82.8 182.7 L 73.1 175.2 L 74.6 173.9 L 77.1 172.1 L 82.1 168.3 L 84.7 166.4 L 90.1 162.2 L 92.9 160.1 L 93.7 159.49310340881348 L 93.7 109.0 L 76.7 109.0 L 76.7 105.0 L 93.7 105.0 L 99.2 100.0 L 109.7 109.0 L 104.7 112.5 L 104.7 155.2 L 104.5119402885437 155.29402980804443 L 106.1 157.3 L 109.7 161.3 L 113.6 164.6 L 118.0 167.2 L 123.4 169.2 L 130.3 170.7 L 139.0 171.6 L 149.9 171.9 L 163.3 171.5 L 179.4 170.4 L 190.4 169.6 L 180.3 183.5 L 163.6 184.0 Z M 127.5 103.0 L 164.2 103.0 L 170.2 98.0 L 181.2 107.0 L 176.2 111.0 L 176.2 151.8 L 164.2 157.8 L 164.2 145.8 L 127.5 145.8 L 127.5 152.8 L 116.5 158.3 L 116.5 97.5 Z M 127.5 107.0 L 127.5 141.8 L 164.2 141.8 L 164.2 107.0 Z M 153.0 15.7 L 156.0 17.7 L 153.0 19.5 L 153.0 42.4 L 157.4181818008423 42.4 L 165.6 33.4 L 175.6 42.4 L 175.6 46.4 L 153.0 46.4 L 153.0 76.2 L 162.6 76.2 L 172.6 66.2 L 184.6 76.2 L 184.6 80.2 L 153.0 80.2 L 153.0 93.4 L 141.0 99.4 L 141.0 80.2 L 109.5 80.2 L 109.5 76.2 L 141.0 76.2 L 141.0 46.4 L 127.4 46.4 L 127.0 47.3 L 124.8 51.8 L 122.4 56.1 L 119.8 60.2 L 116.9 64.2 L 113.8 67.9 L 112.3 67.0 L 113.7 62.5 L 115.1 57.9 L 116.5 53.4 L 119.1 44.4 L 120.3 39.8 L 121.4 35.2 L 123.2 25.8 L 123.83061227798461 22.01632652282715 L 123.7 22.0 L 124.3 19.2 L 135.7 23.5 L 138.2 26.1 L 134.62632846832275 27.334541034698486 L 134.3 28.5 L 132.7 33.3 L 130.9 38.1 L 129.1617021560669 42.4 L 141.0 42.4 L 141.0 13.7 Z M 89.8 76.1 L 88.6 73.6 L 87.4 71.2 L 86.1 68.9 L 83.3 64.5 L 81.8 62.3 L 80.2 60.1 L 78.3 58.3 L 79.3 56.8 L 81.7 58.1 L 84.3 59.2 L 86.9 60.6 L 89.3 62.2 L 91.7 64.0 L 94.0 65.9 L 96.2 68.1 L 98.4 70.4 L 100.4 72.8 L 102.4 75.4 L 102.8 80.0 L 100.0 83.6 L 95.5 84.0 L 91.9 81.2 L 90.8 78.6 Z M 95.8 40.7 L 94.8 38.3 L 92.6 33.5 L 91.3 31.2 L 88.5 26.6 L 87.0 24.2 L 85.1 22.3 L 86.2 20.8 L 88.6 22.3 L 91.2 23.6 L 93.7 25.2 L 96.1 26.9 L 98.4 28.8 L 100.6 30.9 L 102.7 33.1 L 104.7 35.5 L 106.6 38.0 L 108.4 40.7 L 108.5 45.3 L 105.5 48.7 L 100.9 48.8 L 97.5 45.8 L 96.7 43.2 Z " />
</g>
</svg>
