<svg xmlns="http://www.w3.org/2000/svg" xmlns:xlink="http://www.w3.org/1999/xlink" version="1.1" baseProfile="full" viewBox="0 0 200 200" width="200" height="200">
<g fill="black">
<path d="M 32.7 22.0 L 58.2 22.0 L 64.2 17.0 L 75.2 26.0 L 70.2 30.0 L 70.2 171.0 L 70.1 173.5 L 69.6 176.0 L 68.8 178.4 L 67.6 180.7 L 65.9 182.7 L 63.9 184.3 L 61.7 185.6 L 59.3 186.4 L 56.8 186.8 L 54.2 187.0 L 54.2 181.0 L 38.2 178.0 L 38.2 175.0 L 54.2 175.0 L 55.4 174.9 L 56.3 174.7 L 56.9 174.5 L 57.3 174.4 L 57.5 174.2 L 57.6 174.0 L 57.8 173.7 L 58.0 173.1 L 58.1 172.2 L 58.2 171.0 L 58.2 114.0 L 32.7 114.0 L 32.7 118.0 L 32.2 128.7 L 31.5 138.7 L 30.3 147.9 L 28.9 156.3 L 27.1 163.8 L 24.9 170.6 L 22.4 176.5 L 19.5 181.6 L 16.1 185.6 L 12.3 188.6 L 11.1 187.3 L 13.0 183.5 L 14.7 179.1 L 16.3 174.2 L 17.7 168.5 L 18.8 162.1 L 19.7 154.8 L 20.4 146.8 L 20.7 138.0 L 20.9 128.4 L 20.7 118.0 L 20.7 16.0 Z M 177.9 157.9 L 176.5 160.0 L 174.9 161.8 L 172.9 163.4 L 170.8 164.7 L 168.6 165.7 L 166.2 166.4 L 163.7 166.8 L 161.2 167.0 L 161.2 161.0 L 151.2 158.0 L 151.2 155.0 L 161.2 155.0 L 162.5 154.9 L 163.6 154.7 L 164.5 154.4 L 165.3 154.1 L 165.9 153.7 L 166.5 153.2 L 167.1 152.6 L 167.6 151.8 L 168.1 150.8 L 168.6 149.6 L 169.1 147.7 L 169.7 145.4 L 170.1 142.8 L 170.5 139.8 L 170.9 136.5 L 171.2 132.9 L 171.4 128.9 L 171.6 124.5 L 171.7 119.9 L 171.75918369293214 117.0 L 139.8 117.0 L 139.8 182.0 L 127.8 188.0 L 127.8 129.32244901657106 L 125.3 133.2 L 120.0 140.4 L 114.3 147.3 L 108.3 153.8 L 101.9 159.9 L 95.2 165.6 L 88.1 170.8 L 80.6 175.5 L 72.6 179.7 L 71.7 178.2 L 78.3 172.4 L 84.7 166.6 L 90.8 160.7 L 96.6 154.5 L 102.0 148.1 L 107.1 141.5 L 111.8 134.6 L 116.2 127.4 L 120.3 120.0 L 121.73999996185303 117.0 L 97.78428287506104 117.0 L 96.2 129.6 L 83.5 134.0 L 91.4 71.3 L 101.54054050445556 78.0 L 127.8 78.0 L 127.8 48.0 L 87.6 48.0 L 87.6 44.0 L 142.00833330154418 44.0 L 143.3 40.9 L 144.5 37.3 L 145.7 33.8 L 146.9 30.5 L 148.1 27.3 L 149.3 24.2 L 150.4 21.3 L 151.4 18.5 L 152.3 15.7 L 152.8773636817932 14.032060623168945 L 152.8 14.0 L 153.05842695236205 13.508988761901856 L 153.2 13.1 L 153.257994556427 13.129810333251953 L 153.8 12.1 L 163.9 18.6 L 165.7 21.7 L 161.52960729599 21.98761329650879 L 160.6 23.3 L 158.8 25.8 L 156.9 28.4 L 154.9 31.0 L 152.8 33.8 L 150.6 36.6 L 148.2 39.4 L 145.7 42.3 L 144.38387098312378 44.0 L 166.3 44.0 L 172.3 39.0 L 183.3 48.0 L 178.3 52.0 L 178.3 88.0 L 166.3 94.0 L 166.3 82.0 L 139.8 82.0 L 139.8 113.0 L 171.8 113.0 L 177.8 108.0 L 188.8 117.0 L 183.8 120.0 L 183.7011531829834 120.04118614196777 L 183.7 120.1 L 183.6 124.9 L 183.4 129.4 L 183.2 133.7 L 182.9 137.6 L 182.5 141.3 L 182.0 144.7 L 181.4 147.8 L 180.8 150.7 L 180.0 153.3 L 179.1 155.7 Z M 102.18506879806519 82.0 L 98.28722982406616 113.0 L 127.8 113.0 L 127.8 82.0 Z M 32.7 69.0 L 32.7 110.0 L 58.2 110.0 L 58.2 69.0 Z M 139.8 48.0 L 139.8 78.0 L 166.3 78.0 L 166.3 48.0 Z M 32.7 26.0 L 32.7 65.0 L 58.2 65.0 L 58.2 26.0 Z M 110.4 33.1 L 109.9 31.0 L 109.3 28.8 L 108.4 26.5 L 107.4 24.1 L 106.1 21.7 L 104.7 19.2 L 103.1 16.6 L 100.9 14.3 L 102.1 12.9 L 104.7 14.8 L 107.5 16.4 L 110.1 18.2 L 112.4 20.2 L 114.6 22.3 L 116.6 24.5 L 118.4 26.9 L 119.9 29.4 L 121.3 32.0 L 122.5 34.7 L 121.6 39.2 L 117.9 41.9 L 113.4 41.0 L 110.7 37.3 L 110.6 35.3 Z " />
</g>
</svg>
