<svg xmlns="http://www.w3.org/2000/svg" xmlns:xlink="http://www.w3.org/1999/xlink" version="1.1" baseProfile="full" viewBox="0 0 200 200" width="200" height="200">
<g fill="black">
<path d="M 19.0 177.5 L 94.0 177.5 L 94.0 159.2 L 35.0 159.2 L 35.0 155.2 L 94.0 155.2 L 94.0 141.6 L 106.0 143.6 L 109.0 145.6 L 106.0 147.4 L 106.0 155.2 L 141.0 155.2 L 151.0 145.2 L 163.0 155.2 L 163.0 159.2 L 106.0 159.2 L 106.0 177.5 L 157.0 177.5 L 167.0 167.5 L 179.0 177.5 L 179.0 181.5 L 19.0 181.5 Z M 151.4 140.6 L 148.2 138.0 L 144.5 135.4 L 143.70102300643921 134.90063934326173 L 138.4 135.7 L 125.9 137.4 L 113.6 138.8 L 101.4 140.1 L 89.4 141.2 L 77.6 142.3 L 66.0 143.3 L 54.5 144.1 L 43.3 144.9 L 36.202808952331544 145.41150922775267 L 34.3 148.6 L 32.2 145.7 L 29.7 133.7 L 31.7 133.7 L 42.8 133.6 L 54.1 133.4 L 62.02395401000977 133.2609832763672 L 63.6 131.2 L 68.6 124.6 L 71.1 121.4 L 73.4 118.2 L 75.8 115.1 L 78.0 112.0 L 78.26666669845581 111.6 L 42.0 111.6 L 42.0 107.6 L 132.0 107.6 L 142.0 97.6 L 154.0 107.6 L 154.0 111.6 L 93.35263156890869 111.6 L 91.6 113.4 L 88.8 116.2 L 86.0 118.9 L 80.0 124.3 L 76.8 127.0 L 73.6 129.6 L 70.3 132.1 L 68.84063606262207 133.14240283966063 L 77.1 133.0 L 89.0 132.8 L 101.0 132.5 L 113.1 132.3 L 125.5 132.0 L 138.1 131.9 L 138.81717414855956 131.90560293197632 L 136.1 130.3 L 131.3 127.7 L 126.1 125.1 L 120.5 122.4 L 114.7 119.5 L 115.2 117.8 L 121.7 118.8 L 127.9 120.0 L 133.7 121.6 L 139.2 123.3 L 144.3 125.3 L 149.1 127.3 L 153.5 129.5 L 157.7 131.9 L 161.5 134.5 L 165.0 137.2 L 166.7 141.4 L 165.1 145.7 L 160.9 147.4 L 156.6 145.8 L 154.2 143.2 Z M 16.1 116.9 L 15.7 112.3 L 18.5 108.7 L 20.5 108.0 L 22.3 106.9 L 24.1 105.4 L 25.7 103.5 L 27.3 101.2 L 28.8 98.3 L 30.0 95.0 L 31.2 91.2 L 32.2 86.9 L 32.6 82.2 L 34.4 82.1 L 35.0 87.0 L 35.29347829818725 89.7 L 58.0 89.7 L 58.0 34.6 L 21.0 34.6 L 21.0 30.6 L 58.0 30.6 L 58.0 12.8 L 70.0 14.8 L 73.0 16.8 L 70.0 18.6 L 70.0 30.6 L 130.0 30.6 L 130.0 12.8 L 142.0 14.8 L 145.0 16.8 L 142.0 18.6 L 142.0 30.6 L 157.0 30.6 L 167.0 20.6 L 179.0 30.6 L 179.0 34.6 L 142.0 34.6 L 142.0 89.7 L 170.3 89.7 L 170.98823528289796 89.1264705657959 L 171.4 88.2 L 171.77942476272582 88.46714601516723 L 176.3 84.7 L 187.3 93.7 L 182.3 96.7 L 177.25172414779664 98.80344829559326 L 175.7 100.2 L 173.6 102.0 L 171.3 104.0 L 168.8 105.9 L 166.2 108.0 L 163.3 110.1 L 160.2 112.2 L 157.3 114.7 L 156.0 113.4 L 158.3 110.4 L 160.3 107.2 L 162.2 104.3 L 164.0 101.6 L 165.6 98.9 L 167.1 96.5 L 168.4 94.2 L 168.67272729873656 93.7 L 35.548837184906006 93.7 L 35.6 95.9 L 35.3 100.1 L 34.6 104.0 L 33.4 107.6 L 31.9 111.0 L 29.8 114.2 L 27.2 117.0 L 24.2 119.3 L 19.6 119.7 Z M 70.0 73.3 L 70.0 89.7 L 130.0 89.7 L 130.0 73.3 Z M 70.0 54.0 L 70.0 69.3 L 130.0 69.3 L 130.0 54.0 Z M 70.0 34.6 L 70.0 50.0 L 130.0 50.0 L 130.0 34.6 Z " />
</g>
</svg>
