<svg xmlns="http://www.w3.org/2000/svg" xmlns:xlink="http://www.w3.org/1999/xlink" version="1.1" baseProfile="full" viewBox="0 0 200 200" width="200" height="200">
<g fill="black">
<path d="M 132.1 175.5 L 147.3 175.5 L 148.2 175.3 L 148.8 175.1 L 149.4 174.8 L 149.5 174.6 L 149.7 174.3 L 149.9 173.7 L 150.0 172.8 L 150.1 171.5 L 150.1 110.8 L 111.6 110.8 L 111.6 106.8 L 161.7 106.8 L 171.7 96.8 L 183.7 106.8 L 183.7 110.8 L 162.1 110.8 L 162.1 171.5 L 162.0 174.1 L 161.5 176.6 L 160.7 179.0 L 159.5 181.3 L 157.8 183.3 L 155.8 184.9 L 153.6 186.1 L 151.2 186.9 L 148.7 187.4 L 146.1 187.5 L 146.1 181.5 L 132.1 178.5 Z M 113.3 91.6 L 114.8 94.8 L 111.00566034317016 94.8 L 109.5 96.9 L 105.5 102.1 L 101.3 107.1 L 96.8 112.1 L 93.57313432693482 115.39552240371704 L 97.8 116.1 L 100.8 118.1 L 97.8 119.9 L 97.8 181.3 L 85.8 187.3 L 85.8 122.8115385055542 L 82.0 126.1 L 76.6 130.5 L 70.8 134.6 L 64.8 138.4 L 63.6 137.0 L 68.4 131.7 L 73.0 126.5 L 77.4 121.4 L 81.7 116.4 L 85.8 111.3 L 89.7 106.2 L 93.3 101.0 L 96.8 95.8 L 100.0 90.6 L 102.53661518096924 86.1186466217041 L 102.5 86.1 L 102.87671232223511 85.51780824661255 L 103.0 85.3 L 103.01264324188233 85.30773324966431 L 103.6 84.4 Z M 38.5 188.7 L 34.4 186.6 L 33.0 182.2 L 33.6 177.3 L 33.7 172.8 L 33.4 168.7 L 32.7 165.0 L 31.6 161.7 L 30.1 158.6 L 30.08309860229492 158.57746477127074 L 29.5 158.4 L 29.680000019073486 158.03999996185303 L 28.0 155.8 L 25.4 153.2 L 22.2 150.6 L 18.2 148.5 L 18.7 146.8 L 23.4 147.7 L 27.9 149.1 L 31.9 151.2 L 32.84937438964844 151.9647738456726 L 34.7 148.6 L 37.5 143.8 L 40.7 138.1 L 44.5 131.6 L 48.9 124.2 L 53.9 116.0 L 59.6 107.0 L 65.9 97.3 L 67.5 98.1 L 62.9 108.8 L 58.7 118.5 L 54.8 127.3 L 51.3 135.1 L 48.3 141.9 L 45.8 147.9 L 43.8 152.9 L 42.3 156.9 L 41.4 160.0 L 41.01384334564209 161.83424406051637 L 42.9 166.5 L 44.2 171.6 L 44.9 177.2 L 44.9 183.3 L 42.8 187.3 Z M 33.7 110.8 L 32.7 109.4 L 31.3 107.8 L 29.7 106.2 L 27.7 104.6 L 25.5 102.9 L 22.9 101.2 L 20.1 99.4 L 16.9 98.1 L 17.4 96.4 L 20.9 97.1 L 24.3 97.5 L 27.5 98.1 L 30.6 98.8 L 33.4 99.7 L 36.0 100.8 L 38.5 102.0 L 40.8 103.4 L 42.9 105.1 L 44.8 107.0 L 45.6 111.5 L 43.1 115.3 L 38.6 116.0 L 34.8 113.5 L 34.4 112.2 Z M 109.6 69.7 L 110.5 73.2 L 106.65761394500733 72.45848693847657 L 106.4 72.7 L 103.0 75.7 L 99.4 78.6 L 95.7 81.6 L 91.8 84.4 L 87.7 87.2 L 83.4 90.0 L 78.9 92.6 L 74.2 95.1 L 69.2 97.5 L 68.2 96.0 L 72.1 92.2 L 75.8 88.4 L 79.5 84.9 L 86.4 78.0 L 89.6 74.7 L 92.6 71.4 L 95.5 68.1 L 98.2 64.9 L 100.13319625854493 62.425508689880374 L 100.1 62.4 L 100.4777777671814 61.98444442749023 L 100.7 61.7 L 100.72001123428345 61.717987632751466 L 101.1 61.3 Z M 45.7 76.3 L 44.7 74.8 L 43.3 73.2 L 41.7 71.6 L 39.9 69.9 L 37.8 68.2 L 35.4 66.5 L 32.8 64.8 L 29.8 63.5 L 30.4 61.8 L 33.6 62.5 L 36.9 62.9 L 39.9 63.5 L 42.8 64.3 L 45.5 65.2 L 48.1 66.2 L 50.5 67.5 L 52.8 68.9 L 54.9 70.4 L 56.9 72.2 L 57.9 76.7 L 55.5 80.6 L 51.0 81.5 L 47.1 79.2 L 46.6 77.8 Z M 175.0 68.6 L 175.0 72.6 L 115.6 72.6 L 115.6 68.6 L 153.0 68.6 L 163.0 58.6 Z M 134.6 14.5 L 137.6 16.5 L 134.6 18.3 L 134.6 34.5 L 165.9 34.5 L 175.9 24.5 L 187.9 34.5 L 187.9 38.5 L 134.6 38.5 L 134.6 55.6 L 122.6 61.6 L 122.6 38.5 L 78.3 38.5 L 78.3 55.6 L 66.3 61.6 L 66.3 38.5 L 13.0 38.5 L 13.0 34.5 L 66.3 34.5 L 66.3 12.5 L 78.3 14.5 L 81.3 16.5 L 78.3 18.3 L 78.3 34.5 L 122.6 34.5 L 122.6 12.5 Z " />
</g>
</svg>
