<svg xmlns="http://www.w3.org/2000/svg" xmlns:xlink="http://www.w3.org/1999/xlink" version="1.1" baseProfile="full" viewBox="0 0 200 200" width="200" height="200">
<g fill="black">
<path d="M 57.5 111.7 L 60.5 113.7 L 57.5 115.5 L 57.5 123.4 L 56.9 132.7 L 55.7 141.3 L 54.0 149.3 L 51.7 156.7 L 48.8 163.3 L 45.3 169.3 L 41.2 174.5 L 36.5 179.0 L 31.3 182.5 L 25.6 185.0 L 24.8 183.4 L 29.0 179.4 L 32.8 175.2 L 36.0 170.6 L 38.7 165.5 L 41.0 160.0 L 42.8 153.9 L 44.2 147.2 L 45.1 139.9 L 45.5 132.0 L 45.5 109.7 Z M 34.3 47.9 L 52.8 47.9 L 52.8 11.7 L 64.8 13.7 L 67.8 15.7 L 64.8 17.5 L 64.8 27.4 L 79.9777777671814 27.4 L 86.2 20.4 L 94.2 27.4 L 94.2 31.4 L 64.8 31.4 L 64.8 47.9 L 85.7 47.9 L 86.60967741012573 47.141935443878175 L 86.7 46.6 L 87.01042127609253 46.80798225402832 L 91.7 42.9 L 102.7 51.9 L 97.7 54.9 L 88.42727270126343 58.76363639831543 L 86.2 60.1 L 84.5 61.0 L 83.3 62.3 L 81.9 61.1 L 83.0 59.7 L 83.5 57.9 L 84.5 54.7 L 85.0 53.2 L 85.34666662216186 51.9 L 34.3 51.9 L 34.3 92.1 L 33.8 104.1 L 33.0 115.5 L 31.9 126.2 L 30.4 136.4 L 28.6 146.0 L 26.4 154.9 L 23.8 163.1 L 20.8 170.7 L 17.4 177.6 L 13.5 183.6 L 11.9 182.8 L 13.9 176.1 L 15.8 169.0 L 17.5 161.4 L 19.0 153.2 L 20.2 144.5 L 21.2 135.2 L 21.9 125.3 L 22.3 114.9 L 22.5 103.8 L 22.3 92.1 L 22.3 41.9 Z M 173.3 181.1 L 171.5 182.7 L 169.5 184.1 L 167.4 185.3 L 165.3 186.3 L 163.0 187.0 L 160.6 187.5 L 158.2 187.8 L 155.8 188.0 L 155.8 182.0 L 135.8 179.0 L 135.8 176.0 L 155.8 176.0 L 157.2 175.9 L 158.6 175.7 L 159.8 175.4 L 160.9 175.1 L 162.0 174.6 L 163.1 174.0 L 164.1 173.3 L 165.0 172.5 L 166.0 171.5 L 166.9 170.3 L 167.7 168.9 L 168.6 166.7 L 169.5 163.6 L 170.3 159.8 L 171.0 155.2 L 171.6 149.9 L 171.9 144.0 L 172.1 137.3 L 172.1730195045471 131.969575214386 L 172.1 132.0 L 172.1 124.0 L 115.7 124.0 L 103.7 130.0 L 103.7 32.0 L 115.7 38.0 L 130.4 38.0 L 130.8 37.0 L 131.4 34.2 L 132.6 28.8 L 133.3 26.2 L 133.9 23.5 L 134.5 20.9 L 135.0 18.2 L 135.82114839553833 13.930028247833253 L 135.7 13.9 L 136.5 11.5 L 147.4 16.8 L 149.6 19.7 L 145.32840099334717 20.599283981323243 L 143.2 24.4 L 141.7 26.8 L 140.1 29.2 L 138.5 31.5 L 136.8 33.8 L 135.0 36.0 L 133.09523811340333 38.0 L 160.7 38.0 L 166.7 33.0 L 177.7 42.0 L 172.7 46.0 L 172.7 80.0 L 160.7 86.0 L 160.7 76.0 L 115.7 76.0 L 115.7 97.0 L 168.51818180084229 97.0 L 176.7 88.0 L 186.7 97.0 L 186.7 101.0 L 115.7 101.0 L 115.7 120.0 L 172.1 120.0 L 178.1 115.0 L 189.1 124.0 L 184.1629539489746 126.96222763061523 L 184.2 130.0 L 184.1 137.6 L 183.9 144.6 L 183.5 150.9 L 182.9 156.7 L 182.2 161.9 L 181.2 166.5 L 180.0 170.6 L 178.5 174.3 L 176.5 177.5 L 175.0 179.4 Z M 58.9 167.6 L 61.6 165.2 L 64.6 162.6 L 67.9 159.8 L 69.7 158.3 L 69.7 109.7 L 81.7 111.7 L 84.7 113.7 L 81.7 115.5 L 81.7 148.49130430221558 L 84.3 146.4 L 89.2 142.5 L 94.5 138.6 L 100.3 134.5 L 101.6 135.8 L 97.1 141.3 L 92.9 146.4 L 88.8 151.1 L 84.9 155.5 L 81.3 159.6 L 78.0 163.4 L 75.0 166.9 L 72.2 170.2 L 70.29815502166748 172.49806270599365 L 71.2 176.5 L 67.6 175.8 L 57.5 169.0 Z M 95.1 173.9 L 93.7 169.6 L 95.6 165.5 L 97.2 164.4 L 98.7 163.0 L 100.1 161.1 L 101.5 158.8 L 102.7 156.1 L 103.7 153.0 L 104.6 149.4 L 105.3 145.3 L 105.9 140.9 L 106.1 136.0 L 107.9 135.8 L 108.8 140.7 L 109.7 145.3 L 110.3 149.7 L 110.5 153.8 L 110.3 157.8 L 109.8 161.5 L 108.9 165.1 L 107.6 168.5 L 105.8 171.6 L 103.6 174.4 L 99.2 175.9 Z M 122.1 169.8 L 118.6 166.8 L 118.2 162.3 L 118.9 161.1 L 119.5 159.7 L 120.1 158.0 L 120.4 156.1 L 120.6 153.8 L 120.7 151.4 L 120.5 148.6 L 120.2 145.7 L 119.8 142.5 L 118.8 139.2 L 120.4 138.5 L 122.1 141.6 L 123.9 144.4 L 125.5 147.1 L 126.8 149.9 L 127.9 152.6 L 128.8 155.3 L 129.4 157.9 L 129.8 160.6 L 129.9 163.2 L 129.6 165.9 L 126.6 169.4 Z M 137.5 153.2 L 137.6 151.4 L 137.5 149.6 L 137.3 147.7 L 136.9 145.8 L 136.2 143.9 L 135.4 142.0 L 134.4 139.9 L 132.7 138.3 L 133.8 136.8 L 135.9 138.2 L 138.1 139.4 L 140.2 140.9 L 142.1 142.6 L 143.8 144.5 L 145.3 146.6 L 146.5 148.9 L 147.6 151.5 L 148.4 154.1 L 149.0 157.0 L 147.2 161.2 L 143.0 163.0 L 138.8 161.2 L 137.0 157.0 L 137.3 155.1 Z M 154.9 146.6 L 154.8 145.4 L 154.4 144.0 L 153.8 142.6 L 153.0 141.1 L 151.8 139.5 L 150.4 137.9 L 148.7 136.3 L 146.4 135.1 L 147.1 133.5 L 149.5 134.3 L 152.1 134.7 L 154.5 135.4 L 156.8 136.4 L 158.9 137.5 L 160.8 138.9 L 162.6 140.6 L 164.2 142.5 L 165.5 144.7 L 166.5 147.0 L 165.3 151.5 L 161.5 153.9 L 157.0 152.8 L 154.6 148.9 L 154.8 147.8 Z M 88.26038846969604 75.1483814239502 L 60.7 78.49499998092651 L 60.7 90.2 L 60.9 91.1 L 61.2 92.0 L 61.4 92.2 L 61.6 92.3 L 61.9 92.5 L 62.5 92.7 L 63.4 92.9 L 84.0 92.9 Z M 115.7 42.0 L 115.7 72.0 L 160.7 72.0 L 160.7 42.0 Z M 96.0 98.9 L 93.6 102.5 L 90.0 104.9 L 64.7 104.9 L 62.1 104.8 L 59.6 104.4 L 57.2 103.5 L 54.9 102.3 L 52.9 100.7 L 51.3 98.7 L 50.0 96.4 L 49.2 94.0 L 48.8 91.5 L 48.7 88.9 L 48.7 79.95214281082153 L 37.6 81.3 L 37.1 77.3 L 48.7 75.891428565979 L 48.7 53.8 L 60.7 55.8 L 63.7 57.8 L 60.7 59.6 L 60.7 74.43428573608398 L 71.26164951324463 73.15179967880249 L 80.0 62.0 L 89.87778072357177 68.40924701690673 L 90.0 67.9 L 92.0 67.9 L 91.85654573440551 69.69317855834962 L 93.1 70.5 L 93.6 74.5 L 91.45112524032592 74.76093482971191 L 90.0 92.9 L 93.6 95.3 Z " />
</g>
</svg>
