<svg xmlns="http://www.w3.org/2000/svg" xmlns:xlink="http://www.w3.org/1999/xlink" version="1.1" baseProfile="full" viewBox="0 0 200 200" width="200" height="200">
<g fill="black">
<path d="M 113.1 27.0 L 150.6 27.0 L 156.6 22.0 L 167.6 31.0 L 162.6 35.0 L 162.6 166.2 L 162.8 167.1 L 163.1 168.0 L 163.5 168.4 L 164.4 168.7 L 165.3 168.9 L 166.6 169.0 L 175.8 169.0 L 181.8 144.0 L 183.8 144.0 L 181.8 169.0 L 185.4 171.4 L 187.8 175.0 L 185.4 178.6 L 181.8 181.0 L 166.6 181.0 L 164.0 180.8 L 161.5 180.4 L 159.1 179.6 L 156.8 178.3 L 154.8 176.7 L 153.2 174.7 L 151.9 172.4 L 151.1 170.0 L 150.7 167.5 L 150.6 165.0 L 150.6 31.0 L 113.1 31.0 L 113.1 95.0 L 112.4 107.2 L 111.0 118.8 L 108.9 129.8 L 106.1 140.2 L 102.5 149.9 L 98.2 159.0 L 93.1 167.3 L 87.3 174.9 L 80.8 181.7 L 73.5 187.6 L 72.2 186.3 L 77.9 179.2 L 83.0 171.8 L 87.5 164.0 L 91.3 155.7 L 94.5 147.0 L 97.1 137.7 L 99.0 127.9 L 100.4 117.5 L 101.0 106.5 L 101.1 95.0 L 101.1 21.0 Z M 70.2 158.3 L 69.7 154.3 L 68.9 150.4 L 68.76566562652587 149.8029582977295 L 66.6 151.6 L 61.7 155.1 L 56.6 158.5 L 51.4 161.7 L 46.0 164.7 L 40.6 167.6 L 35.0 170.5 L 29.3 173.2 L 23.6 175.8 L 21.501160621643066 176.68933868408203 L 20.6 180.4 L 17.7 178.3 L 11.7 167.6 L 13.6 167.0 L 19.5 165.1 L 25.3 163.2 L 31.1 161.2 L 41.9 157.22105264663696 L 41.9 112.0 L 29.2 112.0 L 29.2 124.0 L 17.2 130.0 L 17.2 47.0 L 29.2 53.0 L 41.9 53.0 L 41.9 13.0 L 53.9 15.0 L 56.9 17.0 L 53.9 18.8 L 53.9 53.0 L 66.5 53.0 L 72.5 48.0 L 83.5 57.0 L 78.5 61.0 L 78.5 112.0 L 66.5 118.0 L 66.5 112.0 L 53.9 112.0 L 53.9 152.48214282989503 L 59.2 150.4 L 64.7 148.3 L 68.13746395111085 147.0109510421753 L 68.0 146.4 L 66.7 142.5 L 65.3 138.5 L 63.6 134.5 L 61.8 130.4 L 59.7 126.3 L 61.1 125.2 L 64.5 128.4 L 67.8 131.8 L 70.7 135.5 L 73.3 139.4 L 75.6 143.4 L 77.5 147.5 L 79.2 151.8 L 80.6 156.3 L 81.7 160.9 L 82.5 165.5 L 81.0 169.9 L 77.0 171.9 L 72.6 170.4 L 70.6 166.4 L 70.5 162.3 Z M 29.2 57.0 L 29.2 108.0 L 41.9 108.0 L 41.9 57.0 Z M 53.9 57.0 L 53.9 108.0 L 66.5 108.0 L 66.5 57.0 Z M 130.6 94.8 L 129.6 90.8 L 128.4 87.0 L 127.0 83.3 L 125.5 79.7 L 123.7 76.1 L 121.8 72.6 L 119.6 69.1 L 117.2 65.7 L 118.4 64.3 L 122.0 66.8 L 125.5 69.5 L 128.6 72.6 L 131.5 75.9 L 134.2 79.5 L 136.6 83.3 L 138.7 87.3 L 140.6 91.6 L 142.3 96.0 L 143.7 100.7 L 142.7 105.1 L 138.9 107.7 L 134.5 106.7 L 131.9 103.0 L 131.3 98.8 Z " />
</g>
</svg>
