<svg xmlns="http://www.w3.org/2000/svg" xmlns:xlink="http://www.w3.org/1999/xlink" version="1.1" baseProfile="full" viewBox="0 0 200 200" width="200" height="200">
<g fill="black">
<path d="M 160.4 109.9 L 152.6 103.9 L 145.3 97.5 L 138.7 90.6 L 132.8 83.5 L 128.54605264663695 77.4 L 75.90810813903809 77.4 L 73.4 80.6 L 63.6 90.7 L 52.7 99.9 L 48.04265737533569 103.12132863998413 L 58.0 108.1 L 94.0 108.1 L 94.0 87.7 L 106.0 89.7 L 109.0 91.7 L 106.0 93.5 L 106.0 108.1 L 142.0 108.1 L 148.0 103.1 L 159.0 112.1 L 154.0 116.1 L 154.0 140.7 L 142.0 146.7 L 142.0 140.7 L 106.0 140.7 L 106.0 168.31176471710205 L 107.9 168.2 L 121.2 167.4 L 134.3 166.5 L 147.2 165.8 L 153.5895348548889 165.49573640823365 L 151.7 163.8 L 147.5 160.3 L 142.8 156.7 L 137.8 153.2 L 132.5 149.4 L 133.2 147.8 L 139.6 149.8 L 145.5 152.1 L 151.0 154.7 L 156.2 157.6 L 161.0 160.7 L 165.4 164.1 L 169.5 167.6 L 173.3 171.4 L 176.7 175.3 L 179.7 179.5 L 180.2 184.0 L 177.4 187.7 L 172.9 188.2 L 169.3 185.5 L 167.3 181.8 L 164.9 178.1 L 162.2 174.5 L 159.1 170.9 L 156.11972455978395 167.83457384109497 L 147.7 169.6 L 134.9 171.9 L 121.9 173.9 L 108.6 175.7 L 95.1 177.4 L 81.2 179.0 L 67.1 180.4 L 52.8 181.7 L 38.1 182.8 L 27.311799335479737 183.5964443206787 L 25.4 186.8 L 23.2 183.9 L 20.7 172.0 L 22.7 171.9 L 37.5 171.5 L 52.1 171.0 L 66.4 170.4 L 80.5 169.7 L 94.0 169.01521739959716 L 94.0 140.7 L 58.0 140.7 L 58.0 147.7 L 46.0 153.7 L 46.0 104.53416662216186 L 40.7 108.2 L 27.5 115.4 L 13.3 121.6 L 12.6 119.9 L 25.7 112.1 L 37.6 103.8 L 48.5 94.9 L 58.2 85.4 L 65.02352943420411 77.4 L 14.0 77.4 L 14.0 73.4 L 68.15 73.4 L 74.4 64.4 L 80.9 52.9 L 81.38292684555054 51.8 L 47.0 51.8 L 47.0 47.8 L 83.13902435302734 47.8 L 86.3 40.6 L 90.6 27.7 L 93.9 14.0 L 93.91363639831543 14.00303030014038 L 94.3 12.2 L 105.6 16.6 L 108.1 19.2 L 104.53491773605347 20.366754150390626 L 101.5 31.1 L 96.2 44.8 L 94.6765625 47.8 L 131.0 47.8 L 141.0 37.8 L 153.0 47.8 L 153.0 51.8 L 119.10810813903808 51.8 L 123.0 57.8 L 128.0 64.9 L 133.4 71.7 L 134.9380952835083 73.4 L 164.0 73.4 L 174.0 63.4 L 186.0 73.4 L 186.0 77.4 L 138.557142829895 77.4 L 139.1 78.0 L 145.4 84.1 L 152.1 89.8 L 159.2 95.1 L 166.9 100.1 L 175.2 104.8 L 183.9 109.1 L 189.3 111.8 L 178.0 120.9 L 168.9 115.6 Z M 58.0 112.1 L 58.0 136.7 L 94.0 136.7 L 94.0 112.1 Z M 106.0 112.1 L 106.0 136.7 L 142.0 136.7 L 142.0 112.1 Z M 92.6453125 51.8 L 89.7 57.6 L 82.1 69.5 L 79.04324321746826 73.4 L 126.07594938278199 73.4 L 123.0 68.0 L 119.3 59.7 L 116.72790699005127 51.8 Z M 74.1 22.9 L 75.3 26.3 L 71.4447816848755 25.8347149848938 L 70.3 27.1 L 66.3 31.2 L 62.0 35.2 L 57.5 38.9 L 52.8 42.5 L 47.8 45.9 L 42.6 49.2 L 37.2 52.1 L 31.4 54.8 L 25.4 57.2 L 24.5 55.6 L 29.5 51.6 L 34.2 47.7 L 38.8 43.8 L 43.2 39.9 L 47.3 36.0 L 51.2 32.1 L 54.9 28.0 L 58.4 24.0 L 61.6 19.8 L 64.01957368850708 16.412596893310546 L 64.0 16.4 L 65.0 15.0 Z M 157.8 43.8 L 155.2 40.5 L 152.3 37.2 L 149.1 34.0 L 145.7 30.8 L 142.0 27.7 L 138.1 24.5 L 133.9 21.3 L 129.5 18.0 L 130.2 16.4 L 135.6 18.1 L 140.7 20.0 L 145.5 22.3 L 150.1 24.7 L 154.4 27.5 L 158.4 30.4 L 162.3 33.5 L 165.8 36.8 L 169.2 40.3 L 172.2 43.9 L 173.1 48.4 L 170.6 52.3 L 166.1 53.2 L 162.3 50.7 L 160.2 47.2 Z " />
</g>
</svg>
