<svg xmlns="http://www.w3.org/2000/svg" xmlns:xlink="http://www.w3.org/1999/xlink" version="1.1" baseProfile="full" viewBox="0 0 200 200" width="200" height="200">
<g fill="black">
<path d="M 132.1 132.4 L 130.9 141.1 L 129.0 149.1 L 126.6 156.6 L 123.5 163.3 L 119.8 169.4 L 115.5 174.8 L 110.5 179.3 L 105.1 183.1 L 99.1 185.9 L 92.7 187.8 L 92.0 186.1 L 97.3 182.6 L 101.9 178.7 L 106.0 174.6 L 109.5 170.0 L 112.5 165.0 L 115.0 159.4 L 117.1 153.4 L 118.6 146.7 L 119.6 139.4 L 120.2 131.5 L 120.2 115.0 L 132.2 117.0 L 135.2 119.0 L 132.2 120.8 L 132.2 132.0 L 131.93109340667723 132.38722553253174 Z M 181.5 147.0 L 183.5 147.0 L 181.5 172.0 L 185.1 174.4 L 187.5 178.0 L 185.1 181.6 L 181.5 184.0 L 161.8 184.0 L 159.2 183.8 L 156.7 183.4 L 154.3 182.6 L 152.0 181.3 L 150.0 179.7 L 148.4 177.7 L 147.2 175.4 L 146.4 173.0 L 145.9 170.5 L 145.8 168.0 L 145.8 115.0 L 157.8 117.0 L 160.8 119.0 L 157.8 120.8 L 157.8 169.2 L 158.0 170.1 L 158.2 170.7 L 158.4 171.0 L 158.5 171.2 L 158.7 171.4 L 159.6 171.7 L 160.5 171.9 L 161.8 172.0 L 175.5 172.0 Z M 69.3 158.3 L 68.8 154.3 L 68.1 150.4 L 67.95330400466919 149.8132158279419 L 65.8 151.6 L 61.0 155.1 L 56.0 158.5 L 50.9 161.7 L 45.6 164.7 L 40.2 167.6 L 34.7 170.4 L 29.1 173.1 L 23.3 175.7 L 21.397728538513185 176.51994457244874 L 20.4 180.4 L 17.5 178.2 L 11.6 167.7 L 13.4 167.0 L 19.3 165.1 L 25.0 163.2 L 30.7 161.2 L 36.4 159.1 L 41.3 157.2625 L 41.3 112.0 L 29.0 112.0 L 29.0 124.0 L 17.0 130.0 L 17.0 47.0 L 29.0 53.0 L 41.3 53.0 L 41.3 13.0 L 53.3 15.0 L 56.3 17.0 L 53.3 18.8 L 53.3 53.0 L 65.7 53.0 L 71.7 48.0 L 82.7 57.0 L 77.7 61.0 L 77.7 112.0 L 65.7 118.0 L 65.7 112.0 L 53.3 112.0 L 53.3 152.4800000190735 L 58.5 150.4 L 67.26348543167114 147.05394191741942 L 67.1 146.4 L 65.9 142.5 L 64.5 138.5 L 62.9 134.5 L 61.1 130.4 L 59.0 126.3 L 60.4 125.2 L 63.8 128.4 L 67.1 131.9 L 69.9 135.5 L 72.5 139.4 L 74.7 143.4 L 76.7 147.6 L 78.4 151.9 L 79.8 156.3 L 80.9 160.9 L 81.7 165.6 L 80.1 169.9 L 76.1 171.9 L 71.8 170.4 L 69.7 166.4 L 69.6 162.3 Z M 29.0 57.0 L 29.0 108.0 L 41.3 108.0 L 41.3 57.0 Z M 53.3 57.0 L 53.3 108.0 L 65.7 108.0 L 65.7 57.0 Z M 136.7 107.8 L 134.2 107.4 L 131.8 106.6 L 129.5 105.3 L 127.5 103.7 L 125.8 101.7 L 124.6 99.4 L 123.8 97.0 L 123.4 94.5 L 123.2 92.0 L 123.2 81.76178865432739 L 103.9 84.9 L 103.5 82.3 L 103.5 120.0 L 102.9 129.9 L 101.8 139.3 L 100.1 147.9 L 97.8 155.9 L 95.0 163.2 L 91.6 169.8 L 87.6 175.6 L 83.1 180.6 L 77.9 184.6 L 72.3 187.7 L 71.3 186.2 L 75.4 181.8 L 79.0 177.1 L 82.2 172.0 L 84.8 166.3 L 87.1 160.2 L 88.9 153.4 L 90.2 146.0 L 91.1 138.0 L 91.5 129.3 L 91.5 43.0 L 103.5 49.0 L 126.3 49.0 L 126.3 12.0 L 138.3 14.0 L 141.3 16.0 L 138.3 17.8 L 138.3 28.0 L 154.11818180084228 28.0 L 162.3 19.0 L 172.3 28.0 L 172.3 32.0 L 138.3 32.0 L 138.3 49.0 L 171.4 49.0 L 177.4 44.0 L 188.4 53.0 L 183.4 56.0 L 180.49346733093262 57.211055278778076 L 177.9 61.6 L 175.1 66.0 L 173.6 68.3 L 172.0 70.5 L 170.3 72.8 L 169.0 75.3 L 167.3 74.6 L 168.1 71.9 L 168.4 69.1 L 168.7 66.4 L 169.1 63.7 L 169.6 61.1 L 170.0 58.6 L 170.5 56.1 L 170.9 53.6 L 171.0 53.0 L 103.5 53.0 L 103.5 80.96747970581055 L 123.2 77.7642276763916 L 123.2 55.0 L 135.2 57.0 L 138.2 59.0 L 135.2 60.8 L 135.2 75.81300811767578 L 143.0202880859375 74.54141654968262 L 151.3 63.0 L 164.8 71.0 L 165.4 74.9 L 135.2 79.81056909561157 L 135.2 92.0 L 135.3 93.2 L 135.4 94.1 L 135.6 94.7 L 135.8 95.0 L 136.2 95.4 L 137.1 95.7 L 138.0 95.9 L 139.2 96.0 L 171.4 96.0 L 177.4 71.0 L 179.4 71.0 L 177.4 96.0 L 181.0 98.4 L 183.4 102.0 L 181.0 105.6 L 177.4 108.0 L 139.2 108.0 Z " />
</g>
</svg>
