<svg xmlns="http://www.w3.org/2000/svg" xmlns:xlink="http://www.w3.org/1999/xlink" version="1.1" baseProfile="full" viewBox="0 0 200 200" width="200" height="200">
<g fill="black">
<path d="M 86.9 180.4 L 85.7 176.4 L 85.27406978607178 175.45348834991455 L 82.4 176.2 L 74.9 178.0 L 67.4 179.5 L 60.0 181.0 L 52.7 182.4 L 45.5 183.7 L 38.4 185.0 L 31.4 186.2 L 24.5 187.4 L 21.754523086547852 187.8441212654114 L 20.0 191.3 L 17.7 188.5 L 14.2 176.9 L 16.2 176.6 L 23.1 176.1 L 30.1 175.6 L 37.2 175.0 L 44.4 174.5 L 51.7 174.0 L 52.0 173.9797297477722 L 52.0 156.5 L 34.0 156.5 L 34.0 159.5 L 22.0 165.5 L 22.0 124.3 L 34.0 130.3 L 52.0 130.3 L 52.0 115.9 L 64.0 117.9 L 67.0 119.9 L 64.0 121.7 L 64.0 130.3 L 81.0 130.3 L 87.0 125.3 L 98.0 134.3 L 93.0 138.3 L 93.0 156.5 L 81.0 162.5 L 81.0 156.5 L 64.0 156.5 L 64.0 173.17333335876464 L 66.6 173.0 L 74.2 172.7 L 82.0 172.4 L 83.8 172.4 L 83.7 172.2 L 82.4 170.1 L 81.0 167.8 L 79.4 165.5 L 77.2 163.5 L 78.3 162.0 L 80.9 163.6 L 83.6 164.9 L 86.1 166.4 L 88.4 168.0 L 90.6 169.8 L 92.6 171.7 L 94.5 173.8 L 96.1 175.9 L 97.6 178.3 L 98.9 180.7 L 98.3 185.2 L 94.8 188.1 L 90.3 187.6 L 87.3 184.1 L 87.2 182.2 Z M 174.8 180.4 L 174.3 178.4 L 173.5 176.3 L 173.26168489456177 175.79953832626342 L 171.8 176.2 L 164.5 177.9 L 157.2 179.5 L 150.0 180.9 L 142.7 182.2 L 135.4 183.4 L 128.2 184.6 L 120.9 185.7 L 110.61992378234864 187.12778835296632 L 108.8 190.5 L 106.5 187.7 L 103.4 176.0 L 105.4 175.8 L 119.8 175.0 L 137.0 174.05753421783447 L 137.0 156.5 L 120.0 156.5 L 120.0 159.5 L 108.0 165.5 L 108.0 124.3 L 120.0 130.3 L 137.0 130.3 L 137.0 115.9 L 149.0 117.9 L 152.0 119.9 L 149.0 121.7 L 149.0 130.3 L 166.0 130.3 L 172.0 125.3 L 183.0 134.3 L 178.0 138.3 L 178.0 156.5 L 166.79032258987428 162.1048387527466 L 168.1 162.9 L 170.9 164.4 L 173.6 166.0 L 176.1 167.7 L 178.3 169.6 L 180.4 171.5 L 182.4 173.6 L 184.1 175.9 L 185.6 178.2 L 186.9 180.7 L 186.3 185.2 L 182.8 188.1 L 178.3 187.6 L 175.3 184.1 L 175.2 182.3 Z M 149.0 156.5 L 149.0 173.30675678253175 L 149.1 173.3 L 156.4 173.0 L 163.8 172.6 L 171.3 172.4 L 171.51818180084229 172.4 L 171.3 172.0 L 169.9 169.7 L 168.3 167.3 L 166.5 164.8 L 164.2 162.6 L 165.3 161.2 L 166.0 161.625 L 166.0 156.5 Z M 120.0 134.3 L 120.0 152.5 L 137.0 152.5 L 137.0 134.3 Z M 149.0 134.3 L 149.0 152.5 L 166.0 152.5 L 166.0 134.3 Z M 34.0 134.3 L 34.0 152.5 L 52.0 152.5 L 52.0 134.3 Z M 64.0 134.3 L 64.0 152.5 L 81.0 152.5 L 81.0 134.3 Z M 150.0 111.7 L 158.0 111.7 L 159.2 111.6 L 160.1 111.4 L 161.0 111.1 L 161.4 110.7 L 161.7 109.8 L 161.9 108.9 L 162.0 107.7 L 162.0 84.1 L 106.0 84.1 L 106.0 97.15813951492309 L 119.6 97.0 L 128.2 97.2 L 129.63573770523072 97.24950819015503 L 126.9 95.1 L 123.8 92.8 L 120.4 90.4 L 116.5 88.2 L 117.2 86.5 L 121.5 87.8 L 125.7 88.9 L 129.5 90.2 L 133.1 91.5 L 136.4 93.0 L 139.5 94.6 L 142.3 96.4 L 144.9 98.2 L 147.3 100.3 L 149.4 102.5 L 150.1 107.0 L 147.6 110.8 L 143.1 111.6 L 139.3 109.0 L 138.5 107.3 L 137.5 105.5 L 136.0 103.6 L 134.2 101.5 L 132.79207916259764 100.09207916259766 L 128.5 100.9 L 120.0 102.4 L 103.0 104.8 L 86.0 106.8 L 77.6 107.7 L 69.1 108.6 L 56.41121950149536 109.80845527648925 L 54.5 113.1 L 52.3 110.2 L 49.6 98.4 L 51.6 98.3 L 60.0 98.1 L 68.5 97.9 L 76.9 97.7 L 93.9 97.3 L 94.0 97.29882354736328 L 94.0 84.1 L 38.0 84.1 L 38.0 116.6 L 26.0 122.6 L 26.0 74.1 L 38.0 80.1 L 94.0 80.1 L 94.0 71.2 L 52.0 71.2 L 40.0 77.2 L 40.0 33.5 L 52.0 39.5 L 148.0 39.5 L 154.0 34.5 L 165.0 43.5 L 160.0 47.5 L 160.0 71.2 L 148.0 77.2 L 148.0 71.2 L 106.0 71.2 L 106.0 80.1 L 162.0 80.1 L 168.0 75.1 L 179.0 84.1 L 174.0 88.1 L 174.0 107.7 L 173.8 110.2 L 173.4 112.7 L 172.6 115.1 L 171.3 117.4 L 169.7 119.4 L 167.7 121.1 L 165.4 122.3 L 163.0 123.1 L 160.5 123.5 L 158.0 123.7 L 158.0 117.7 L 150.0 114.7 Z M 52.0 57.4 L 52.0 67.2 L 94.0 67.2 L 94.0 57.4 Z M 106.0 57.4 L 106.0 67.2 L 148.0 67.2 L 148.0 57.4 Z M 52.0 43.5 L 52.0 53.4 L 94.0 53.4 L 94.0 43.5 Z M 106.0 43.5 L 106.0 53.4 L 148.0 53.4 L 148.0 43.5 Z M 134.0 13.2 L 137.0 15.2 L 134.0 17.0 L 134.0 22.4 L 168.8181818008423 22.4 L 177.0 13.4 L 187.0 22.4 L 187.0 26.4 L 134.0 26.4 L 134.0 33.1 L 122.0 39.1 L 122.0 26.4 L 78.0 26.4 L 78.0 33.1 L 66.0 39.1 L 66.0 26.4 L 13.0 26.4 L 13.0 22.4 L 66.0 22.4 L 66.0 11.2 L 78.0 13.2 L 81.0 15.2 L 78.0 17.0 L 78.0 22.4 L 122.0 22.4 L 122.0 11.2 Z " />
</g>
</svg>
