<svg xmlns="http://www.w3.org/2000/svg" xmlns:xlink="http://www.w3.org/1999/xlink" version="1.1" baseProfile="full" viewBox="0 0 200 200" width="200" height="200">
<g fill="black">
<path d="M 121.4 128.1 L 120.4 137.1 L 118.4 145.5 L 115.4 153.4 L 111.4 160.7 L 106.5 167.3 L 100.6 173.2 L 93.9 178.5 L 86.4 183.0 L 77.9 186.8 L 68.7 189.8 L 68.0 188.1 L 76.3 183.4 L 83.5 178.5 L 89.9 173.3 L 95.3 167.9 L 99.8 162.1 L 103.3 156.0 L 106.1 149.6 L 108.0 142.8 L 109.1 135.5 L 109.4 127.8 L 109.4 109.0 L 121.4 111.0 L 124.4 113.0 L 121.4 114.8 L 121.4 128.0 L 121.33442621231079 128.0983606338501 Z M 66.3 132.1 L 64.8 129.2 L 63.0 126.3 L 61.0 123.4 L 58.7 120.4 L 56.2 117.5 L 53.5 114.4 L 52.2 113.01034479141235 L 52.2 183.0 L 40.2 189.0 L 40.2 109.6125 L 35.7 114.3 L 28.1 121.4 L 19.9 128.2 L 11.2 134.6 L 10.1 133.3 L 17.3 125.5 L 24.3 117.7 L 30.9 109.8 L 37.0 101.9 L 40.2 97.48620691299439 L 40.2 97.0 L 40.55249996185303 97.0 L 42.8 93.9 L 48.1 85.7 L 53.0 77.4 L 57.5 69.0 L 61.5 60.4 L 63.35 56.0 L 14.6 56.0 L 14.6 52.0 L 40.2 52.0 L 40.2 12.0 L 52.2 14.0 L 55.2 16.0 L 52.2 17.8 L 52.2 52.0 L 64.7 52.0 L 70.7 47.0 L 81.7 56.0 L 76.7 59.0 L 74.41441860198975 59.95232553482056 L 71.8 65.3 L 66.9 74.1 L 61.6 82.7 L 55.8 91.0 L 51.15 97.0 L 52.2 97.0 L 52.2 108.6975609779358 L 52.4 108.8 L 56.3 110.8 L 58.30123176574707 111.98992156982422 L 59.0 111.0 L 61.0 107.5 L 62.8 104.3 L 64.5 101.4 L 66.0 98.6 L 67.3 96.1 L 68.4 93.7 L 69.3 91.6 L 70.0 89.7 L 70.17118072509766 88.97248191833496 L 70.0 88.9 L 70.34042549133301 88.25319147109985 L 70.4 88.0 L 70.4577709197998 88.03023529052734 L 71.0 87.0 L 81.1 93.6 L 82.8 96.8 L 78.14136543273926 97.04096384048462 L 78.0 97.2 L 76.2 99.1 L 74.2 101.1 L 72.0 103.2 L 69.6 105.5 L 67.0 107.8 L 64.1 110.2 L 61.0 112.7 L 60.37964038848877 113.26032485961915 L 63.5 115.4 L 66.7 117.9 L 69.7 120.6 L 72.5 123.4 L 75.1 126.4 L 77.4 129.4 L 79.5 132.6 L 79.7 137.2 L 76.7 140.7 L 72.2 140.9 L 68.7 137.9 L 67.6 135.0 Z M 152.8 185.8 L 150.3 185.4 L 147.9 184.6 L 145.7 183.3 L 143.6 181.7 L 142.0 179.7 L 140.8 177.4 L 140.0 175.0 L 139.5 172.5 L 139.4 170.0 L 139.4 104.0 L 151.4 106.0 L 154.4 108.0 L 151.4 109.8 L 151.4 171.2 L 151.6 172.1 L 151.8 172.7 L 152.0 173.0 L 152.1 173.2 L 152.3 173.4 L 153.2 173.7 L 154.1 173.9 L 155.4 174.0 L 174.7 174.0 L 180.7 149.0 L 182.7 149.0 L 180.7 174.0 L 184.3 176.4 L 186.7 180.0 L 184.3 183.6 L 180.7 186.0 L 155.4 186.0 Z M 135.5 53.3 L 137.4 56.4 L 133.4277072906494 56.87941465377808 L 133.3 57.1 L 131.0 61.0 L 128.4 65.1 L 125.5 69.3 L 122.4 73.7 L 119.0 78.2 L 115.3 82.9 L 111.4 87.7 L 107.0 92.5 L 106.94503812789917 92.55725193023682 L 110.2 92.2 L 118.5 91.3 L 126.8 90.5 L 135.1 89.6 L 143.4 88.8 L 151.8 88.1 L 160.3 87.5 L 163.66411609649657 87.34168863296509 L 161.3 83.5 L 158.5 79.5 L 155.5 75.3 L 152.3 70.9 L 148.7 66.3 L 149.9 65.0 L 154.7 68.4 L 159.2 71.9 L 163.3 75.4 L 167.0 78.9 L 170.3 82.4 L 173.3 86.0 L 176.0 89.5 L 178.4 93.0 L 180.5 96.6 L 182.2 100.2 L 181.8 104.7 L 178.4 107.8 L 173.9 107.4 L 170.8 104.0 L 170.1 101.1 L 168.9 97.9 L 167.5 94.6 L 165.8 91.1 L 165.1506501197815 89.95590724945069 L 160.9 91.2 L 152.7 93.4 L 144.5 95.3 L 128.1 98.9 L 119.9 100.5 L 111.7 102.2 L 103.6 103.7 L 95.4 105.3 L 91.31898155212403 106.0053611755371 L 89.7 109.4 L 87.3 106.7 L 83.6 95.2 L 85.6 94.9 L 102.53535871505737 93.0412410736084 L 103.9 90.4 L 106.9 84.6 L 109.9 79.2 L 112.6 74.1 L 115.2 69.2 L 117.5 64.6 L 119.6 60.2 L 121.5 56.0 L 123.1 52.1 L 124.15249061584473 49.31841773986817 L 124.1 49.3 L 124.24285717010498 49.0 L 81.2 49.0 L 81.2 45.0 L 124.4 45.0 L 124.4 15.0 L 136.4 17.0 L 139.4 19.0 L 136.4 20.8 L 136.4 45.0 L 164.0 45.0 L 174.0 35.0 L 186.0 45.0 L 186.0 49.0 L 128.16885242462158 49.0 Z " />
</g>
</svg>
