<svg xmlns="http://www.w3.org/2000/svg" xmlns:xlink="http://www.w3.org/1999/xlink" version="1.1" baseProfile="full" viewBox="0 0 200 200" width="200" height="200">
<g fill="black">
<path d="M 142.07045736312867 18.757725620269774 L 142.6 47.0 L 143.02553195953368 53.0 L 166.0 53.0 L 176.0 43.0 L 188.0 53.0 L 188.0 57.0 L 143.30921983718872 57.0 L 144.6 75.2 L 147.7 99.7 L 151.7 120.6 L 152.70263414382936 124.26921434402466 L 154.1 121.2 L 159.1 107.7 L 163.3 93.2 L 166.80769233703614 78.09743585586548 L 167.3 75.8 L 178.6 80.2 L 181.1 82.8 L 177.58090324401854 84.01568794250488 L 174.3 96.3 L 169.2 111.3 L 163.3 125.2 L 156.6 138.0 L 156.5236644744873 138.11966104507445 L 161.7 151.5 L 167.3 161.7 L 172.8 168.5 L 176.64768209457398 171.193377494812 L 182.0 148.0 L 184.0 148.0 L 182.07446804046631 173.0319149017334 L 186.2 174.8 L 188.0 179.0 L 186.2 183.2 L 182.0 185.0 L 172.8 182.9 L 164.6 177.2 L 157.3 168.4 L 150.8 156.6 L 148.4521710395813 150.52802867889403 L 140.9 159.9 L 131.9 169.1 L 122.1 177.0 L 111.6 183.6 L 100.3 188.8 L 99.6 187.1 L 109.6 180.4 L 118.8 172.9 L 127.3 164.5 L 135.1 155.1 L 142.1 144.8 L 144.64606609344483 140.30460205078126 L 140.0 123.3 L 135.8 101.6 L 132.6 76.4 L 131.3245675086975 57.0 L 80.03333330154419 57.0 L 76.7 59.0 L 74.41441860198975 59.95232553482056 L 71.8 65.3 L 66.9 74.1 L 61.6 82.7 L 55.8 91.0 L 51.15 97.0 L 52.2 97.0 L 52.2 108.6975609779358 L 52.4 108.8 L 56.3 110.8 L 58.30123176574707 111.98992156982422 L 59.0 111.0 L 61.0 107.5 L 62.8 104.3 L 64.5 101.4 L 66.0 98.6 L 67.3 96.1 L 68.4 93.7 L 69.3 91.6 L 70.0 89.7 L 70.17118072509766 88.97248191833496 L 70.0 88.9 L 70.34042549133301 88.25319147109985 L 70.4 88.0 L 70.4577709197998 88.03023529052734 L 71.0 87.0 L 81.1 93.6 L 82.8 96.8 L 78.14136543273926 97.04096384048462 L 78.0 97.2 L 76.2 99.1 L 74.2 101.1 L 72.0 103.2 L 69.6 105.5 L 67.0 107.8 L 64.1 110.2 L 61.0 112.7 L 60.37964038848877 113.26032485961915 L 63.5 115.4 L 66.7 117.9 L 69.7 120.6 L 72.5 123.4 L 75.1 126.4 L 77.4 129.4 L 79.5 132.6 L 79.7 137.2 L 76.7 140.7 L 72.2 140.9 L 68.7 137.9 L 67.6 135.0 L 66.3 132.1 L 64.8 129.2 L 63.0 126.3 L 61.0 123.4 L 58.7 120.4 L 56.2 117.5 L 53.5 114.4 L 52.2 113.01034479141235 L 52.2 183.0 L 40.2 189.0 L 40.2 109.6125 L 35.7 114.3 L 28.1 121.4 L 19.9 128.2 L 11.2 134.6 L 10.1 133.3 L 17.3 125.5 L 24.3 117.7 L 30.9 109.8 L 37.0 101.9 L 40.2 97.48620691299439 L 40.2 97.0 L 40.55249996185303 97.0 L 42.8 93.9 L 48.1 85.7 L 53.0 77.4 L 57.5 69.0 L 61.5 60.4 L 63.35 56.0 L 14.6 56.0 L 14.6 52.0 L 40.2 52.0 L 40.2 12.0 L 52.2 14.0 L 55.2 16.0 L 52.2 17.8 L 52.2 52.0 L 64.7 52.0 L 70.7 47.0 L 80.0 54.609090900421144 L 80.0 53.0 L 131.06159172058105 53.0 L 130.7 47.5 L 130.02149982452391 15.998208332061768 L 130.0 16.0 L 130.0 12.6 L 142.0 15.0 L 145.0 17.0 Z M 78.9 114.0 L 84.3 112.3 L 89.8 110.7 L 95.2 109.0 L 100.5 107.3 L 102.0 106.8555555343628 L 102.0 70.0 L 114.0 72.0 L 117.0 74.0 L 114.0 75.8 L 114.0 100.0 L 113.78777236938477 103.21878566741944 L 121.8 100.8 L 127.2 99.4 L 132.6 98.1 L 133.3 99.8 L 128.7 102.9 L 123.9 105.8 L 119.0 108.5 L 114.0 111.1 L 113.10059175491332 111.54970417022705 L 112.3 118.1 L 110.6 126.7 L 108.5 135.0 L 105.7 143.0 L 102.5 150.7 L 98.7 158.0 L 94.3 165.0 L 89.3 171.5 L 83.7 177.5 L 82.2 176.4 L 86.1 169.4 L 89.6 162.3 L 92.7 155.1 L 95.4 147.9 L 97.7 140.4 L 99.4 132.7 L 100.8 124.9 L 101.57293529510498 117.07402982711793 L 98.7 118.4 L 93.5 120.7 L 86.77208738327026 123.61966018676758 L 85.8 127.4 L 82.9 125.3 L 77.0 114.6 Z M 162.6 37.1 L 161.4 35.2 L 160.1 33.3 L 158.6 31.3 L 157.0 29.3 L 155.1 27.3 L 153.1 25.2 L 151.0 23.0 L 148.4 21.2 L 149.3 19.6 L 152.2 20.9 L 155.2 21.8 L 158.1 23.0 L 160.8 24.2 L 163.4 25.6 L 165.8 27.1 L 168.1 28.7 L 170.3 30.4 L 172.4 32.2 L 174.3 34.1 L 175.1 38.6 L 172.6 42.4 L 168.1 43.3 L 164.3 40.8 L 163.5 39.0 Z " />
</g>
</svg>
