<svg xmlns="http://www.w3.org/2000/svg" xmlns:xlink="http://www.w3.org/1999/xlink" version="1.1" baseProfile="full" viewBox="0 0 200 200" width="200" height="200">
<g fill="black">
<path d="M 88.4 86.9 L 131.0 86.9 L 131.0 62.3 L 105.75 62.3 L 100.5 69.3 L 94.4 75.8 L 87.6 81.8 L 80.0 87.0 L 73.40699329376221 90.6181134223938 L 78.0 93.5 L 79.8 96.6 L 75.18033103942871 96.99824733734131 L 75.1 97.1 L 73.4 99.0 L 71.5 101.0 L 67.1 105.4 L 64.6 107.7 L 61.9 110.1 L 59.0 112.6 L 58.37368421554565 113.22631578445434 L 61.5 115.5 L 64.5 118.1 L 67.3 120.7 L 70.0 123.5 L 72.4 126.5 L 74.6 129.6 L 76.5 132.8 L 76.6 137.3 L 73.5 140.7 L 69.0 140.8 L 65.6 137.7 L 64.6 134.8 L 63.4 132.0 L 62.0 129.1 L 60.4 126.2 L 58.6 123.3 L 56.5 120.3 L 54.3 117.4 L 51.8 114.3 L 51.1 113.46538457870483 L 51.1 183.0 L 39.1 189.0 L 39.1 110.28208951950073 L 35.6 114.2 L 28.5 121.4 L 20.8 128.2 L 12.6 134.6 L 11.4 133.3 L 18.1 125.5 L 24.5 117.7 L 30.6 109.9 L 36.3 102.0 L 39.1 97.77358493804931 L 39.1 97.0 L 39.6125 97.0 L 41.6 94.0 L 46.6 85.9 L 51.1 77.6 L 55.2 69.1 L 59.0 60.5 L 60.70689659118652 56.0 L 15.7 56.0 L 15.7 52.0 L 39.1 52.0 L 39.1 12.0 L 51.1 14.0 L 54.1 16.0 L 51.1 17.8 L 51.1 52.0 L 61.9 52.0 L 67.9 47.0 L 78.9 56.0 L 73.9 59.0 L 71.79898538589478 59.87542276382446 L 69.4 65.2 L 64.8 74.0 L 59.8 82.5 L 54.4 90.8 L 49.960493850708005 97.0 L 51.1 97.0 L 51.1 108.95405406951905 L 54.7 110.9 L 56.30991640090942 111.91194744110108 L 56.9 111.0 L 58.7 107.6 L 60.4 104.4 L 61.9 101.5 L 63.2 98.7 L 64.4 96.2 L 65.4 93.9 L 66.2 91.7 L 66.8 89.8 L 66.95934963226318 89.16260166168213 L 66.8 89.1 L 67.15 88.4 L 67.2 88.2 L 67.24014873504639 88.21970262527466 L 67.8 87.1 L 71.47978363037109 89.40888385772705 L 77.7 84.0 L 83.9 77.8 L 89.5 71.4 L 94.4 64.7 L 98.7 57.6 L 102.3 50.2 L 105.3 42.4 L 106.41219511032105 38.6 L 76.6 38.6 L 76.6 34.6 L 107.58292684555053 34.6 L 107.7 34.2 L 109.4 25.5 L 110.46783618927002 17.4022424697876 L 110.4 17.4 L 110.8 14.3 L 122.5 17.8 L 125.2 20.2 L 121.73857231140137 21.767438983917238 L 120.6 27.7 L 118.69148931503295 34.6 L 160.3 34.6 L 170.3 24.6 L 182.3 34.6 L 182.3 38.6 L 117.44382019042969 38.6 L 114.7 46.0 L 110.7 54.3 L 108.2384614944458 58.3 L 151.1 58.3 L 161.1 48.3 L 173.1 58.3 L 173.1 62.3 L 143.0 62.3 L 143.0 86.9 L 163.6 86.9 L 173.6 76.9 L 185.6 86.9 L 185.6 90.9 L 88.4 90.9 Z M 142.0 175.7 L 157.3 175.7 L 158.2 175.5 L 158.8 175.3 L 159.1 175.1 L 159.3 175.0 L 159.4 174.8 L 159.6 174.5 L 159.8 173.9 L 160.0 173.0 L 160.0 155.9 L 101.9 155.9 L 101.9 182.1 L 89.9 188.1 L 89.9 101.9 L 101.9 107.9 L 160.0 107.9 L 166.0 102.9 L 177.0 111.9 L 172.0 115.9 L 172.0 171.7 L 171.9 174.3 L 171.4 176.8 L 170.6 179.2 L 169.4 181.5 L 167.8 183.5 L 165.8 185.1 L 163.5 186.4 L 161.1 187.2 L 158.6 187.6 L 156.0 187.7 L 156.0 181.7 L 142.0 178.7 Z M 101.9 133.9 L 101.9 151.9 L 160.0 151.9 L 160.0 133.9 Z M 101.9 111.9 L 101.9 129.9 L 160.0 129.9 L 160.0 111.9 Z " />
</g>
</svg>
