<svg xmlns="http://www.w3.org/2000/svg" xmlns:xlink="http://www.w3.org/1999/xlink" version="1.1" baseProfile="full" viewBox="0 0 200 200" width="200" height="200">
<g fill="black">
<path d="M 140.3 66.4 L 143.3 81.9 L 146.8 96.4 L 150.8 109.7 L 151.4763684272766 111.52325401306152 L 152.2 110.6 L 155.0 106.9 L 157.8 103.3 L 163.2 96.5 L 165.8 93.2 L 168.3 90.0 L 170.7 86.9 L 174.66864681243896 81.55095434188843 L 174.6 81.5 L 175.15846157073975 80.89076919555664 L 175.3 80.7 L 175.31836738586426 80.71632652282715 L 175.7 80.3 L 184.3 88.7 L 185.2 92.1 L 181.36987428665162 91.4280481338501 L 178.5 94.1 L 175.4 96.8 L 172.2 99.5 L 168.9 102.2 L 165.5 105.0 L 162.0 107.7 L 158.3 110.4 L 154.5 113.0 L 152.50519819259642 114.29662122726441 L 155.4 122.1 L 160.5 133.4 L 166.2 143.6 L 172.4 152.8 L 179.3 161.0 L 186.6 168.1 L 188.4 169.8 L 177.6 177.8 L 169.8 169.2 L 162.8 159.6 L 156.6 149.1 L 151.2 137.6 L 146.6 125.3 L 142.8 112.1 L 139.7 97.9 L 137.5 82.9 L 136.2 66.9 L 135.93718156814575 52.09455947875976 L 132.8 63.0 L 128.2 76.8 L 123.1 89.7 L 122.5139344215393 91.0 L 124.6 91.0 L 124.6 167.703125 L 127.3 166.1 L 130.7 164.0 L 134.3 161.9 L 138.0 159.6 L 141.9 157.2 L 146.0 154.8 L 150.2 152.3 L 151.3 153.6 L 148.0 157.3 L 144.9 160.9 L 141.8 164.3 L 135.7 170.4 L 132.8 173.2 L 129.9 175.8 L 127.2 178.3 L 124.5 180.7 L 122.0 182.9 L 121.87784433364868 182.7221556663513 L 116.6 188.0 L 106.6 178.0 L 112.6 172.0 L 112.6 111.16229505538941 L 111.5 113.2 L 105.0 123.6 L 98.0 133.0 L 90.4 141.5 L 89.0 140.4 L 94.9 130.9 L 100.4 120.8 L 105.7 110.1 L 110.6 98.8 L 112.6 93.53913040161133 L 112.6 91.0 L 113.5652892112732 91.0 L 115.2 86.7 L 119.4 73.8 L 123.2 60.3 L 125.39583330154419 51.0 L 102.48139533996581 51.0 L 102.5 51.4 L 102.5 55.4 L 102.2 59.3 L 101.7 62.9 L 101.0 66.3 L 100.0 69.6 L 98.7 72.6 L 97.1 75.5 L 93.0 77.5 L 88.6 76.3 L 86.5 72.2 L 87.8 67.8 L 89.2 66.5 L 90.7 64.8 L 92.0 62.8 L 93.4 60.3 L 94.6 57.5 L 95.8 54.3 L 96.9 50.7 L 97.9 46.8 L 98.9 42.6 L 99.5 38.0 L 101.3 38.0 L 101.8 42.7 L 102.28863639831543 47.0 L 126.34027776718139 47.0 L 126.6 45.9 L 129.7 30.8 L 132.13598756790162 15.902998924255371 L 132.1 15.9 L 132.6 13.0 L 144.1 16.9 L 146.7 19.4 L 143.32324018478394 20.713184356689453 L 140.8 33.1 L 137.34771242141724 47.0 L 172.0 47.0 L 172.5938775062561 46.50510206222534 L 172.7 46.2 L 172.8602325439453 46.28313951492309 L 178.0 42.0 L 189.0 51.0 L 184.0 54.0 L 180.40718564987182 55.497006034851076 L 180.0 56.0 L 178.3 58.3 L 176.4 60.6 L 174.4 62.9 L 172.4 65.3 L 170.2 67.8 L 167.9 70.2 L 165.3 72.7 L 163.1 75.4 L 161.5 74.5 L 163.1 71.3 L 164.3 68.0 L 165.6 64.9 L 166.8 61.9 L 167.9 59.0 L 169.0 56.2 L 170.0 53.5 L 171.0 51.0 L 137.87333335876465 51.0 Z M 86.8 29.0 L 86.8 33.0 L 61.1 33.0 L 61.1 61.0 L 71.2 61.0 L 76.7 56.0 L 87.2 65.0 L 82.2 68.5 L 82.2 174.0 L 71.2 179.5 L 71.2 168.0 L 28.1 168.0 L 28.1 180.0 L 16.1 186.0 L 16.1 55.0 L 28.1 61.0 L 35.6 61.0 L 35.6 33.0 L 12.0 33.0 L 12.0 29.0 L 64.8 29.0 L 74.8 19.0 Z M 71.2 65.0 L 61.1 65.0 L 61.1 112.0 L 61.3 113.3 L 61.6 114.4 L 62.0 115.1 L 62.4 115.5 L 62.8 115.7 L 63.1 115.9 L 63.6 115.9 L 64.3 116.0 L 71.2 116.0 Z M 28.1 65.0 L 28.1 137.54375 L 29.0 134.9 L 30.4 129.7 L 31.8 123.9 L 33.0 117.4 L 34.0 110.1 L 34.7 102.2 L 35.3 93.5 L 35.6 84.0 L 35.7 73.9 L 35.618348598480225 65.0 Z M 45.6 33.0 L 45.6 61.0 L 52.1 61.0 L 52.1 33.0 Z M 61.6 127.1 L 59.3 126.2 L 57.2 124.8 L 55.3 123.2 L 53.9 121.2 L 52.9 119.0 L 52.3 116.7 L 52.0 114.4 L 52.1 112.0 L 52.1 65.0 L 45.52792797088623 65.0 L 45.2 74.1 L 44.6 84.5 L 43.6 94.2 L 42.4 103.1 L 40.9 111.3 L 39.1 118.7 L 37.1 125.4 L 34.6 131.2 L 31.8 136.3 L 28.6 140.3 L 28.1 140.00833330154418 L 28.1 164.0 L 71.2 164.0 L 71.2 128.0 L 66.6 128.0 L 64.0 127.7 Z " />
</g>
</svg>
