<svg xmlns="http://www.w3.org/2000/svg" xmlns:xlink="http://www.w3.org/1999/xlink" version="1.1" baseProfile="full" viewBox="0 0 200 200" width="200" height="200">
<g fill="black">
<path d="M 102.0 101.0 L 105.0 103.0 L 102.0 104.8 L 102.0 118.0 L 107.5 118.0 L 112.0 112.0 L 118.0 118.0 L 118.0 122.0 L 102.0 122.0 L 102.0 150.0 L 106.77777776718139 150.0 L 113.0 143.0 L 121.0 150.0 L 121.0 154.0 L 102.0 154.0 L 102.0 184.0 L 90.0 190.0 L 90.0 154.0 L 77.70772199630737 154.0 L 77.0 157.9 L 64.1 161.7 L 70.2 127.9 L 81.7 132.0 L 84.3 134.5 L 81.06934871673585 135.47529096603392 L 78.43359069824218 150.0 L 90.0 150.0 L 90.0 122.0 L 71.0 122.0 L 71.0 118.0 L 90.0 118.0 L 90.0 99.0 Z M 34.8 145.9 L 34.4 144.6 L 33.8 143.2 L 33.1 141.8 L 32.3 140.3 L 31.3 138.7 L 30.2 137.1 L 29.653254413604735 136.32544374465942 L 28.1 138.5 L 24.3 143.1 L 20.1 147.4 L 15.6 151.5 L 14.3 150.4 L 19.9 140.0 L 22.6 134.9 L 25.1 129.8 L 27.4 124.7 L 29.5 119.6 L 31.4 114.3 L 33.1 109.1 L 34.6 103.7 L 35.65673418045044 99.3104887008667 L 35.6 99.3 L 35.87234039306641 98.41489362716675 L 35.9 98.3 L 35.907090473175046 98.30195598602295 L 36.4 96.7 L 47.5 101.5 L 49.8 104.2 L 46.117647075653075 105.25210084915162 L 45.4 107.2 L 43.2 112.8 L 40.79259262084961 118.0 L 54.0 118.0 L 60.0 113.0 L 71.0 122.0 L 66.0 125.0 L 64.51336030960083 125.61943321228027 L 63.0 130.7 L 59.6 139.6 L 55.7 147.9 L 51.4 155.7 L 46.5 162.8 L 41.1 169.4 L 35.2 175.3 L 28.7 180.5 L 21.8 185.0 L 14.4 188.7 L 13.5 187.2 L 19.6 182.0 L 25.2 176.5 L 30.4 170.7 L 35.2 164.6 L 39.4 158.1 L 43.3 151.1 L 43.68823528289795 150.22941179275512 L 43.4 150.6 L 38.9 151.0 L 35.2 148.2 L 35.1 147.1 Z M 184.3 145.0 L 186.3 145.0 L 184.3 170.0 L 187.9 172.4 L 190.3 176.0 L 187.9 179.6 L 184.3 182.0 L 166.7 182.0 L 164.2 181.8 L 161.7 181.4 L 159.3 180.6 L 157.0 179.3 L 155.0 177.7 L 153.3 175.7 L 152.1 173.4 L 151.3 171.0 L 150.9 168.5 L 150.7 166.0 L 150.7 130.1264150619507 L 147.7207901954651 131.47549123764037 L 146.7 137.3 L 144.2 146.2 L 141.0 154.5 L 137.1 162.0 L 132.4 168.7 L 127.0 174.5 L 120.9 179.5 L 114.2 183.6 L 106.8 186.7 L 98.9 188.8 L 98.3 187.1 L 105.2 183.3 L 111.3 179.1 L 116.7 174.5 L 121.5 169.4 L 125.5 163.7 L 128.9 157.5 L 131.7 150.7 L 133.9 143.3 L 135.5 135.1 L 136.4782608985901 126.49130430221558 L 136.7 124.2 L 148.4 127.6 L 150.7 129.48928575515748 L 150.7 122.4 L 134.8 122.4 L 134.8 134.4 L 122.8 140.4 L 122.8 19.2 L 134.8 25.2 L 167.5 25.2 L 173.5 20.2 L 184.5 29.2 L 179.5 33.2 L 179.5 128.4 L 167.5 134.4 L 167.5 122.4 L 162.7 122.4 L 162.7 166.0 L 162.8 167.2 L 162.9 168.1 L 163.1 168.7 L 163.3 169.0 L 163.5 169.2 L 163.6 169.4 L 164.0 169.5 L 164.6 169.7 L 165.5 169.9 L 166.7 170.0 L 178.3 170.0 Z M 38.69245281219482 122.0 L 37.9 123.5 L 34.9 128.7 L 31.6 133.6 L 31.295652198791505 134.02608699798583 L 32.3 134.3 L 34.3 134.9 L 36.2 135.7 L 38.0 136.6 L 39.7 137.6 L 41.3 138.6 L 42.9 139.8 L 44.4 141.0 L 45.7 142.4 L 45.98998937606812 145.06790256500244 L 46.6 143.7 L 49.6 135.8 L 52.1 127.4 L 53.327272701263425 122.0 Z M 134.8 90.0 L 134.8 118.4 L 167.5 118.4 L 167.5 90.0 Z M 100.1 85.9 L 96.9 83.5 L 93.4 81.1 L 89.8 78.8 L 85.9 76.5 L 81.9 74.2 L 77.7 71.9 L 74.0 69.88181819915772 L 74.0 102.0 L 62.0 108.0 L 62.0 66.52631578445434 L 58.8 70.4 L 54.6 74.8 L 50.0 79.1 L 45.1 83.3 L 39.7 87.4 L 34.0 91.3 L 27.9 95.0 L 21.4 98.5 L 14.4 101.7 L 13.5 100.2 L 19.3 95.3 L 24.8 90.6 L 30.0 86.1 L 34.9 81.6 L 39.3 77.1 L 43.4 72.6 L 47.1 68.1 L 50.4 63.7 L 52.83863639831543 60.0 L 17.0 60.0 L 17.0 56.0 L 62.0 56.0 L 62.0 16.0 L 74.0 18.0 L 77.0 20.0 L 74.0 21.8 L 74.0 56.0 L 96.0 56.0 L 106.0 46.0 L 118.0 56.0 L 118.0 60.0 L 74.0 60.0 L 74.0 66.1384614944458 L 74.4 66.2 L 79.4 67.1 L 84.3 68.4 L 88.9 69.8 L 93.4 71.3 L 97.7 73.1 L 101.9 74.9 L 105.8 76.9 L 109.6 79.1 L 113.3 81.4 L 115.5 85.4 L 114.3 89.8 L 110.3 92.0 L 105.9 90.8 L 103.1 88.4 Z M 134.8 59.6 L 134.8 86.0 L 167.5 86.0 L 167.5 59.6 Z M 134.8 29.2 L 134.8 55.6 L 167.5 55.6 L 167.5 29.2 Z M 106.5 28.0 L 107.9 31.3 L 103.75883150100708 31.22860050201416 L 102.2 33.0 L 97.6 38.0 L 95.2 40.5 L 92.7 43.0 L 87.3 47.8 L 84.4 50.1 L 81.6 52.5 L 80.3 51.4 L 82.2 48.3 L 83.9 45.0 L 87.3 38.8 L 89.0 35.8 L 90.6 32.9 L 93.6 27.1 L 95.91888885498047 22.462222194671632 L 95.8 22.4 L 96.35 21.6 L 96.4 21.5 L 96.41299867630005 21.508365535736083 L 96.9 20.8 Z M 39.1 42.5 L 38.2 40.3 L 37.1 38.2 L 35.8 35.9 L 34.4 33.7 L 32.7 31.3 L 30.8 28.9 L 28.8 26.4 L 26.3 24.3 L 27.3 22.8 L 30.3 24.4 L 33.3 25.8 L 36.2 27.3 L 38.9 29.0 L 41.4 30.9 L 43.7 32.8 L 45.9 34.9 L 47.9 37.1 L 49.7 39.4 L 51.3 41.8 L 51.3 46.4 L 48.1 49.7 L 43.6 49.7 L 40.3 46.6 L 39.8 44.5 Z " />
</g>
</svg>
