<svg xmlns="http://www.w3.org/2000/svg" xmlns:xlink="http://www.w3.org/1999/xlink" version="1.1" baseProfile="full" viewBox="0 0 200 200" width="200" height="200">
<g fill="black">
<path d="M 33.8452054977417 136.0 L 47.6 136.0 L 47.6 104.0 L 34.8 104.0 L 34.8 124.0 L 34.4 131.5 Z M 57.6 104.0 L 57.6 136.0 L 70.3 136.0 L 70.3 104.0 Z M 112.4 91.0 L 112.4 113.0 L 161.7 113.0 L 161.7 91.0 Z M 34.8 69.0 L 34.8 100.0 L 47.6 100.0 L 47.6 69.0 Z M 57.6 69.0 L 57.6 100.0 L 70.3 100.0 L 70.3 69.0 Z M 187.5 71.0 L 187.5 75.0 L 87.6 75.0 L 87.6 71.0 L 169.3181818008423 71.0 L 177.5 62.0 Z M 42.431578922271726 39.0 L 42.1 39.9 L 39.0 47.4 L 35.5 54.8 L 31.8 62.3 L 31.279365062713623 63.239682579040526 L 34.8 65.0 L 51.56666669845581 65.0 L 52.5 62.9 L 53.8 59.2 L 55.1 55.7 L 56.5 52.3 L 57.8 49.0 L 59.0 45.8 L 60.3 42.8 L 61.4 39.8 L 61.70344829559326 39.0 Z M 106.7 57.0 L 95.7 62.5 L 95.7 14.5 L 106.7 20.0 L 166.4 20.0 L 171.9 15.0 L 182.4 24.0 L 177.4 27.5 L 177.4 56.0 L 166.4 61.5 L 166.4 54.0 L 106.7 54.0 Z M 106.7 24.0 L 106.7 50.0 L 119.0 50.0 L 119.0 24.0 Z M 129.0 24.0 L 129.0 50.0 L 143.0 50.0 L 143.0 24.0 Z M 153.0 24.0 L 153.0 50.0 L 166.4 50.0 L 166.4 24.0 Z M 165.2 173.2 L 159.6 167.8 L 154.6 162.1 L 150.2 156.0 L 146.4 149.5 L 143.2 142.7 L 140.7 135.5 L 138.9 128.0 L 138.66013250350952 126.10504674911499 L 137.4 127.3 L 131.3 132.5 L 125.2 137.4 L 119.0 142.0 L 116.5 143.6796875 L 116.5 167.3942307472229 L 118.4 166.7 L 123.7 164.8 L 129.1 162.9 L 134.7 160.9 L 140.5 159.0 L 146.5 157.1 L 147.3 158.8 L 142.2 162.4 L 137.0 165.8 L 131.9 168.8 L 126.8 171.7 L 121.8 174.5 L 116.9 177.1 L 112.0 179.6 L 107.3 181.9 L 102.6 184.1 L 101.77378644943238 184.47718448638915 L 100.9 188.3 L 98.0 186.2 L 91.9 175.7 L 93.7 175.0 L 98.4 173.5 L 103.2 172.0 L 104.5 171.5579999923706 L 104.5 151.18358211517335 L 99.4 154.0 L 92.7 157.4 L 85.8 160.3 L 81.3 161.88450708389283 L 81.3 170.0 L 81.2 172.4 L 80.8 174.7 L 80.1 177.0 L 79.1 179.1 L 77.7 181.1 L 76.0 182.7 L 73.9 184.0 L 71.7 184.8 L 69.4 185.3 L 67.0 185.5 L 67.0 180.0 L 51.6 177.2 L 51.6 174.5 L 67.0 174.5 L 68.0 174.4 L 68.7 174.3 L 69.3 174.0 L 69.4 173.8 L 69.6 173.6 L 69.8 173.1 L 70.0 172.4 L 70.2 171.3 L 70.3 170.0 L 70.3 140.0 L 33.29718313217163 140.0 L 32.3 145.9 L 30.7 152.7 L 28.8 159.2 L 26.4 165.5 L 23.7 171.5 L 20.5 177.2 L 16.9 182.5 L 12.8 187.4 L 11.4 186.5 L 13.9 180.8 L 16.1 175.0 L 18.1 169.2 L 19.8 163.3 L 21.3 157.2 L 22.4 150.9 L 23.2 144.5 L 23.7 137.8 L 23.9 131.0 L 23.8 124.0 L 23.8 76.11333332061767 L 23.2 77.1 L 18.3 84.3 L 12.9 91.4 L 11.4 90.5 L 15.0 82.4 L 18.5 74.5 L 21.8 66.8 L 23.8 61.83225803375244 L 23.8 59.5 L 24.581621646881104 59.89081077575683 L 24.9 59.1 L 27.7 51.5 L 30.3 44.0 L 32.6 36.6 L 34.7 29.2 L 36.4 21.9 L 37.9 14.6 L 37.91363639831543 14.60303030014038 L 38.3 12.8 L 49.6 17.2 L 52.1 19.9 L 48.481761646270755 21.0630051612854 L 47.4 24.8 L 44.9 32.3 L 43.905263137817386 35.0 L 62.9 35.0 L 63.41504421234131 34.570796489715576 L 63.6 34.1 L 63.83096332550049 34.22419729232788 L 68.9 30.0 L 79.9 39.0 L 74.9 42.0 L 71.63714284896851 43.35952377319336 L 70.6 44.8 L 68.6 47.4 L 66.6 50.1 L 64.5 52.9 L 62.3 55.7 L 60.0 58.5 L 57.6 61.4 L 54.9 64.3 L 54.358064556121825 65.0 L 70.3 65.0 L 75.8 60.0 L 86.3 69.0 L 81.3 72.5 L 81.3 158.75901641845704 L 84.0 156.9 L 96.0 148.5 L 104.5 141.9051724433899 L 104.5 141.0 L 105.66666669845581 141.0 L 107.6 139.5 L 113.2 134.7 L 118.7 129.7 L 124.1 124.5 L 129.4 119.1 L 131.35 117.0 L 112.4 117.0 L 112.4 124.0 L 100.4 130.0 L 100.4 81.0 L 112.4 87.0 L 161.7 87.0 L 167.7 82.0 L 178.7 91.0 L 173.7 95.0 L 173.7 117.0 L 161.7 123.0 L 161.7 117.0 L 138.5674418449402 117.0 L 143.2 121.8 L 144.0 125.4 L 142.09141731262207 124.9312252998352 L 142.9 126.7 L 146.2 133.3 L 149.7 139.4 L 153.5 145.1 L 153.90253467559813 145.60796041488646 L 154.8 145.0 L 157.6 142.7 L 160.5 140.4 L 163.3 138.2 L 168.7 133.8 L 171.3 131.6 L 173.9 129.3 L 176.4 127.1 L 178.166912651062 125.47444038391113 L 178.1 125.4 L 178.9 124.7 L 186.1 134.3 L 186.3 137.9 L 182.55544929504396 136.44378585815429 L 179.9 137.9 L 176.7 139.6 L 173.4 141.2 L 170.1 142.7 L 166.7 144.1 L 163.2 145.4 L 159.7 146.6 L 156.1 147.6 L 155.61044778823853 147.76318407058716 L 157.7 150.4 L 162.3 155.3 L 167.2 159.8 L 172.6 164.0 L 178.3 167.8 L 184.5 171.2 L 189.1 173.9 L 178.0 182.7 L 171.3 178.1 Z " />
</g>
</svg>
