<svg xmlns="http://www.w3.org/2000/svg" xmlns:xlink="http://www.w3.org/1999/xlink" version="1.1" baseProfile="full" viewBox="0 0 200 200" width="200" height="200">
<g fill="black">
<path d="M 29.5 130.6 L 58.2 130.6 L 64.2 125.6 L 75.2 134.6 L 70.2 138.6 L 70.2 171.0 L 58.2 177.0 L 58.2 171.0 L 29.5 171.0 L 29.5 183.0 L 17.5 189.0 L 17.5 124.6 Z M 151.4 174.4 L 140.5 167.5 L 130.6 159.7 L 128.14901123046874 157.30408964157104 L 127.5 157.9 L 115.4 166.7 L 102.4 174.3 L 88.3 180.5 L 73.2 185.4 L 57.2 188.8 L 56.7 187.1 L 72.0 181.8 L 86.2 175.6 L 99.2 168.5 L 111.1 160.5 L 121.9 151.5 L 122.05240449905395 151.34448528289795 L 121.7 151.0 L 113.8 141.3 L 107.0 130.8 L 101.3 119.5 L 96.7 107.2 L 93.60307693481445 95.0 L 82.0 95.0 L 82.0 91.0 L 122.0 91.0 L 122.0 54.0 L 80.0 54.0 L 80.0 50.0 L 122.0 50.0 L 122.0 14.0 L 134.0 16.0 L 137.0 18.0 L 134.0 19.8 L 134.0 50.0 L 165.0 50.0 L 175.0 40.0 L 187.0 50.0 L 187.0 54.0 L 134.0 54.0 L 134.0 91.0 L 160.0 91.0 L 166.0 86.0 L 177.0 95.0 L 172.0 98.0 L 169.8938775062561 98.87755098342896 L 165.0 110.0 L 157.2 123.8 L 148.4 136.4 L 138.5 147.8 L 135.55684757232666 150.50234909057616 L 137.1 151.8 L 146.6 158.3 L 156.9 163.9 L 168.0 168.7 L 179.9 172.7 L 187.6 175.1 L 176.0 185.2 L 163.2 180.3 Z M 29.5 134.6 L 29.5 167.0 L 58.2 167.0 L 58.2 134.6 Z M 100.6 105.7 L 106.5 116.8 L 113.1 126.9 L 120.4 136.1 L 128.3 144.4 L 128.60590581893922 144.6572389602661 L 131.7 141.5 L 140.4 130.4 L 148.0 118.3 L 154.7 105.1 L 158.68309860229493 95.0 L 95.73636360168457 95.0 Z M 69.6 106.6 L 69.6 110.6 L 18.1 110.6 L 18.1 106.6 L 51.418181800842284 106.6 L 59.6 97.6 Z M 69.6 81.6 L 69.6 85.6 L 18.1 85.6 L 18.1 81.6 L 47.6 81.6 L 57.6 71.6 Z M 77.8 54.7 L 77.8 58.7 L 14.4 58.7 L 14.4 54.7 L 55.8 54.7 L 65.8 44.7 Z M 69.6 29.8 L 69.6 33.8 L 18.1 33.8 L 18.1 29.8 L 47.6 29.8 L 57.6 19.8 Z " />
</g>
</svg>
