<svg xmlns="http://www.w3.org/2000/svg" xmlns:xlink="http://www.w3.org/1999/xlink" version="1.1" baseProfile="full" viewBox="0 0 200 200" width="200" height="200">
<g fill="black">
<path d="M 29.4 133.0 L 57.9 133.0 L 63.9 128.0 L 74.9 137.0 L 69.9 141.0 L 69.9 179.0 L 57.9 185.0 L 57.9 175.0 L 29.4 175.0 L 29.4 182.0 L 17.4 188.0 L 17.4 127.0 Z M 155.3 177.1 L 146.2 172.1 L 138.0 166.0 L 131.51862831115722 159.9507197380066 L 129.6 161.8 L 120.7 168.8 L 111.1 174.7 L 101.0 179.6 L 90.3 183.3 L 79.0 185.8 L 78.5 184.1 L 88.9 179.7 L 98.7 174.7 L 107.7 169.1 L 116.1 162.7 L 123.8 155.6 L 125.769140625 153.408984375 L 123.9 151.2 L 118.2 142.5 L 113.4 132.9 L 109.5 122.4 L 106.99285717010498 112.0 L 93.4 112.0 L 93.4 108.0 L 152.8 108.0 L 158.8 103.0 L 166.89195404052734 109.62068967819214 L 167.6 107.8 L 168.5 104.2 L 169.4 100.8 L 170.3 97.6 L 171.2 94.5 L 172.6 88.9 L 173.2 86.4 L 173.30869569778443 85.9 L 90.03584909439087 85.9 L 90.2 88.8 L 90.3 93.6 L 90.0 98.1 L 89.6 102.2 L 88.9 106.0 L 87.8 109.4 L 86.4 112.6 L 84.5 115.5 L 80.3 117.3 L 76.0 115.6 L 74.3 111.4 L 75.9 107.2 L 77.1 106.3 L 78.4 104.8 L 79.7 102.7 L 80.9 99.9 L 82.2 96.6 L 83.3 92.7 L 84.3 88.3 L 85.2 83.3 L 86.1 77.9 L 86.8 71.9 L 88.6 71.9 L 89.3 77.9 L 89.72857141494751 81.9 L 147.31132078170776 81.9 L 148.7 77.3 L 150.2 72.1 L 151.8 67.3 L 153.4 62.6 L 154.8 58.0 L 156.3 53.7 L 157.6 49.5 L 158.8 45.4 L 160.0 41.5 L 160.72766695022582 38.807632255554196 L 160.7 38.8 L 160.8064516067505 38.51612901687622 L 161.0 37.8 L 161.06582527160646 37.82446603775024 L 161.6 36.4 L 172.3 42.0 L 174.4 44.9 L 170.5826219558716 45.63668699264527 L 168.8 49.4 L 166.8 53.2 L 164.7 57.2 L 162.5 61.3 L 160.1 65.6 L 157.6 69.9 L 154.9 74.3 L 151.9 78.8 L 149.76444444656372 81.9 L 173.7 81.9 L 179.7 76.9 L 190.7 85.9 L 185.7 88.9 L 182.95025129318236 90.04572868347168 L 182.8 90.3 L 179.8 95.1 L 178.1 97.7 L 176.3 100.4 L 174.3 103.1 L 172.2 106.0 L 169.9 108.9 L 168.56847829818724 110.99239130020142 L 169.8 112.0 L 164.8 115.0 L 162.5204225540161 115.94982395172119 L 158.7 124.0 L 152.4 134.9 L 145.5 144.8 L 138.30048847198486 153.32573738098145 L 144.1 157.9 L 151.8 162.5 L 160.1 166.4 L 169.0 169.3 L 178.5 171.5 L 187.6 173.4 L 175.8 184.4 L 165.2 181.3 Z M 29.4 137.0 L 29.4 171.0 L 57.9 171.0 L 57.9 137.0 Z M 109.16601943969727 112.0 L 113.4 120.9 L 118.6 130.2 L 124.2 138.5 L 130.4 145.9 L 131.4697838783264 146.9373661994934 L 137.4 139.0 L 143.2 129.4 L 148.5 119.0 L 151.4115044593811 112.0 Z M 69.3 108.0 L 69.3 112.0 L 18.0 112.0 L 18.0 108.0 L 47.3 108.0 L 57.3 98.0 Z M 69.3 82.0 L 69.3 86.0 L 18.0 86.0 L 18.0 82.0 L 47.3 82.0 L 57.3 72.0 Z M 99.9 64.7 L 99.5 61.6 L 99.0 58.7 L 98.4 55.9 L 97.8 53.0 L 97.0 50.3 L 96.1 47.6 L 95.2 44.8 L 93.9 42.3 L 95.3 41.2 L 97.4 43.3 L 99.7 45.4 L 101.8 47.7 L 103.7 50.2 L 105.5 53.0 L 107.1 55.9 L 108.6 58.9 L 109.9 62.2 L 111.1 65.5 L 112.1 69.0 L 111.0 73.5 L 107.2 75.9 L 102.7 74.8 L 100.3 70.9 L 100.1 67.7 Z M 126.5 62.2 L 126.2 59.0 L 125.2 53.0 L 124.6 50.1 L 123.9 47.3 L 123.2 44.6 L 122.4 41.8 L 121.2 39.3 L 122.6 38.2 L 124.6 40.3 L 126.8 42.5 L 128.8 44.9 L 130.7 47.5 L 132.4 50.3 L 133.9 53.3 L 135.4 56.5 L 136.7 59.9 L 137.8 63.4 L 138.8 67.1 L 137.7 71.5 L 133.8 73.9 L 129.4 72.8 L 127.0 68.9 L 126.8 65.5 Z M 77.4 54.0 L 77.4 58.0 L 14.4 58.0 L 14.4 54.0 L 55.4 54.0 L 65.4 44.0 Z M 166.63521738052367 17.205652141571044 L 175.8 25.0 L 176.0 28.1 L 171.93955268859864 26.308626174926758 L 169.9 27.0 L 163.0 28.8 L 155.7 30.5 L 148.0 32.1 L 140.0 33.5 L 131.5 34.7 L 122.7 35.8 L 113.4 36.7 L 103.8 37.4 L 93.7 37.8 L 83.3 37.8 L 83.1 36.1 L 93.3 34.0 L 103.1 32.1 L 112.5 30.2 L 121.4 28.3 L 130.0 26.4 L 138.1 24.4 L 145.7 22.3 L 152.9 20.1 L 159.7 17.9 L 165.12222223281861 15.951388931274414 L 165.1 15.9 L 165.14907665252684 15.941738033294678 L 166.1 15.6 Z M 69.3 28.0 L 69.3 32.0 L 18.0 32.0 L 18.0 28.0 L 47.3 28.0 L 57.3 18.0 Z " />
</g>
</svg>
