<svg xmlns="http://www.w3.org/2000/svg" xmlns:xlink="http://www.w3.org/1999/xlink" version="1.1" baseProfile="full" viewBox="0 0 200 200" width="200" height="200">
<g fill="black">
<path d="M 80.8 175.0 L 85.3 173.4 L 89.8 171.9 L 94.2 170.3 L 94.9 170.06136360168458 L 94.9 117.0 L 106.9 119.0 L 109.9 121.0 L 106.9 122.8 L 106.9 165.9666666984558 L 107.1 165.9 L 115.5 163.3 L 123.7 161.1 L 124.5 162.8 L 121.1 165.3 L 117.6 167.9 L 114.0 170.2 L 110.2 172.6 L 106.3 174.9 L 102.3 177.1 L 98.2 179.4 L 94.1 181.6 L 89.9 183.8 L 89.31281414031983 184.10693807601928 L 88.6 188.0 L 85.5 186.1 L 79.0 175.8 Z M 115.3 174.1 L 119.4 172.6 L 127.5 169.9 L 127.5 155.68695650100707 L 125.9 158.4 L 121.4 159.4 L 117.5 157.0 L 116.7 155.2 L 115.9 153.3 L 109.6 140.7 L 108.3 139.3 L 109.5 137.9 L 111.1 139.1 L 113.1 139.9 L 114.9 140.9 L 116.8 141.9 L 120.4 144.3 L 122.1 145.6 L 123.8 147.0 L 125.6 148.5 L 127.2 150.0 L 127.5 151.35 L 127.5 136.0333333015442 L 125.7 138.5 L 121.2 139.1 L 117.5 136.5 L 117.0 134.9 L 116.5 133.4 L 116.0 131.8 L 115.4 130.2 L 114.6 128.6 L 113.9 126.9 L 112.1 123.5 L 111.1 121.7 L 109.7 120.3 L 110.9 118.9 L 112.5 120.1 L 114.5 120.9 L 116.4 121.8 L 120.0 123.8 L 121.6 125.0 L 123.3 126.2 L 124.8 127.5 L 126.3 128.9 L 127.5 130.1 L 127.5 115.0 L 139.5 117.0 L 142.5 119.0 L 139.5 120.8 L 139.5 166.08409090042113 L 145.2 164.4 L 149.7 163.2 L 154.4 162.1 L 159.0 161.1 L 159.7 162.8 L 155.7 165.4 L 151.7 167.9 L 147.6 170.2 L 143.6 172.5 L 139.6 174.7 L 135.6 176.8 L 127.8 181.0 L 124.0 183.0 L 123.86429414749145 183.06959276199342 L 123.2 187.0 L 120.1 185.0 L 113.5 174.9 Z M 172.6 181.6 L 168.8 177.3 L 165.8 171.9 L 163.5 165.5 L 161.6 158.0 L 160.1 149.5 L 159.1 139.8 L 159.01042051315306 138.41791591644287 L 154.6 139.3 L 150.7 136.8 L 150.2 135.2 L 149.6 133.6 L 148.9 132.0 L 148.1 130.4 L 147.3 128.7 L 146.4 127.0 L 145.4 125.3 L 143.2 121.7 L 141.7 120.3 L 142.8 118.8 L 144.6 120.0 L 146.7 120.8 L 148.7 121.7 L 150.6 122.7 L 152.4 123.7 L 154.2 124.9 L 155.9 126.1 L 157.6 127.4 L 158.37575759887696 128.0303030014038 L 158.12494287490844 117.99771356582642 L 158.1 118.0 L 158.0 114.6 L 163.2 115.58842973709106 L 163.2 110.2 L 103.0 110.2 L 91.0 116.2 L 91.0 53.4 L 103.0 59.4 L 163.2 59.4 L 169.2 54.4 L 180.2 63.4 L 175.2 67.4 L 175.2 110.2 L 164.0862275123596 115.75688619613648 L 170.1 116.9 L 173.1 118.9 L 170.19677419662474 120.64193544387817 L 170.4 128.5 L 171.0 138.8 L 172.0 147.8 L 173.3 155.6 L 174.9 161.9 L 176.8 166.9 L 178.44845066070556 170.02338027954102 L 183.3 149.0 L 185.3 149.0 L 183.38140707015992 173.9417085647583 L 183.6 174.0 L 187.7 176.0 L 189.3 180.3 L 187.3 184.4 L 183.0 185.9 L 177.4 184.7 Z M 67.9 85.4 L 66.2 82.0 L 64.4 78.5 L 62.3 74.9 L 60.1 71.2 L 57.6 67.4 L 55.1 63.5 L 52.904773807525636 60.16650838851929 L 50.8 65.4 L 46.8 74.2 L 42.6 82.7 L 38.2 90.9 L 33.6 98.6 L 30.018274116516114 104.00913705825806 L 40.0 109.0 L 65.2 109.0 L 71.2 104.0 L 82.2 113.0 L 77.2 117.0 L 77.2 173.0 L 65.2 179.0 L 65.2 167.0 L 40.0 167.0 L 40.0 179.0 L 28.0 185.0 L 28.0 106.94230766296387 L 23.5 113.0 L 18.0 119.5 L 12.2 125.5 L 10.8 124.4 L 15.0 117.3 L 19.1 110.0 L 23.1 102.6 L 27.0 94.9 L 30.7 87.0 L 34.2 78.8 L 37.6 70.3 L 40.7 61.6 L 43.7 52.5 L 46.229878425598145 44.006836605072024 L 46.2 44.0 L 47.0 41.5 L 58.0 46.7 L 60.2 49.5 L 56.64057970046997 50.38985509872437 L 54.5 56.2 L 54.289467334747314 56.723486709594724 L 54.9 57.2 L 58.7 60.3 L 62.3 63.5 L 65.7 66.7 L 68.8 70.0 L 71.8 73.3 L 74.5 76.6 L 77.0 79.9 L 79.3 83.3 L 81.4 86.6 L 81.6 91.2 L 78.7 94.6 L 74.1 94.9 L 70.6 91.9 L 69.4 88.7 Z M 40.0 113.0 L 40.0 163.0 L 65.2 163.0 L 65.2 113.0 Z M 148.2 153.0 L 146.8 149.6 L 146.0 147.8 L 145.2 146.1 L 144.3 144.3 L 143.3 142.5 L 142.4 140.7 L 141.0 139.3 L 142.1 137.9 L 143.8 139.1 L 145.8 139.9 L 147.7 140.8 L 149.6 141.9 L 151.4 143.1 L 153.2 144.4 L 154.9 145.7 L 158.1 148.7 L 159.6 150.3 L 160.3 154.8 L 157.6 158.5 L 153.1 159.1 L 149.4 156.5 L 148.8 154.8 Z M 103.0 63.4 L 103.0 106.2 L 163.2 106.2 L 163.2 63.4 Z M 144.2 96.4 L 141.7 93.6 L 138.8 90.8 L 138.1 90.2 L 133.7 92.6 L 127.7 95.7 L 121.2 98.6 L 114.2 101.3 L 106.7 103.8 L 105.9 102.2 L 112.5 97.9 L 118.7 93.8 L 124.4 90.0 L 129.7 86.2 L 131.34994649887085 84.9362112045288 L 131.3 84.9 L 126.8 81.8 L 121.8 78.7 L 116.4 75.4 L 110.5 72.0 L 111.2 70.3 L 117.9 72.0 L 124.1 73.9 L 129.8 76.0 L 135.1 78.3 L 137.8773913383484 79.68869562149048 L 138.7 79.0 L 142.4 75.6 L 145.6 72.2 L 148.3 69.0 L 149.840745639801 66.72556591033936 L 149.8 66.7 L 150.22127656936647 66.1638298034668 L 150.4 65.9 L 150.4179775238037 65.91348314285278 L 150.9 65.3 L 160.0 73.1 L 161.2 76.5 L 157.18581686019897 76.0847396850586 L 156.7 76.6 L 153.0 80.0 L 148.9 83.2 L 146.561697101593 84.82664556503296 L 148.3 86.0 L 151.9 88.9 L 155.0 91.9 L 157.7 95.2 L 158.4 99.7 L 155.8 103.5 L 151.3 104.2 L 147.6 101.6 L 146.1 99.1 Z M 44.9 20.4 L 47.3 23.1 L 43.628476810455325 24.214569568634033 L 43.3 25.2 L 41.4 30.1 L 39.3 35.1 L 37.0 40.1 L 34.5 45.3 L 31.7 50.6 L 28.7 56.0 L 25.4 61.4 L 21.7 66.9 L 17.7 72.4 L 16.1 71.5 L 18.4 65.1 L 20.6 59.0 L 22.8 53.2 L 24.8 47.5 L 26.7 42.1 L 28.4 36.8 L 29.9 31.7 L 31.2 26.7 L 32.4 22.0 L 33.104208278656 18.40071325302124 L 33.1 18.4 L 33.11772155761719 18.331645584106447 L 33.3 17.4 L 33.35553560256958 17.414362621307372 L 33.8 15.7 Z M 163.1 48.0 L 162.4 46.4 L 161.7 44.7 L 160.8 43.0 L 159.8 41.3 L 158.7 39.5 L 157.5 37.7 L 156.2 35.9 L 154.4 34.4 L 154.894117641449 33.65882349014282 L 154.7 33.8 L 153.5 32.4 L 155.4 30.4 L 156.8 28.1 L 158.2 25.9 L 159.5 23.8 L 160.7 21.8 L 161.8 19.8 L 162.9 17.9 L 163.7 16.1 L 164.5 14.4 L 164.8186471939087 13.626142597198486 L 164.6 13.5 L 165.7 12.0 L 175.0 19.5 L 176.4 22.9 L 171.61040725708008 22.569683265686034 L 169.9 23.9 L 168.1 25.4 L 166.1 26.8 L 164.0 28.2 L 161.7 29.6 L 159.4 30.9 L 156.9 32.2 L 155.69452056884765 33.07671232223511 L 157.4 34.1 L 159.7 34.8 L 161.9 35.8 L 164.0 36.8 L 166.0 38.0 L 167.9 39.3 L 169.7 40.6 L 171.4 42.1 L 173.0 43.7 L 174.5 45.4 L 175.0 50.0 L 172.1 53.6 L 167.6 54.0 L 164.0 51.2 L 163.6 49.6 Z M 131.8 48.0 L 131.2 46.4 L 129.6 43.0 L 128.6 41.3 L 127.5 39.5 L 124.9 35.9 L 123.2 34.4 L 123.67462682723999 33.608955192565915 L 123.4 33.8 L 122.2 32.4 L 124.1 30.4 L 125.6 28.1 L 127.0 25.9 L 128.3 23.8 L 129.5 21.8 L 130.6 19.8 L 131.6 17.9 L 132.5 16.1 L 133.3 14.4 L 133.58082704544069 13.604323291778565 L 133.4 13.5 L 133.8625 12.80625 L 133.9 12.7 L 133.92286376953126 12.715704345703125 L 134.4 12.0 L 143.8 19.5 L 145.1 22.9 L 140.4022624015808 22.576018142700196 L 138.7 23.9 L 136.8 25.4 L 134.8 26.8 L 132.7 28.2 L 130.5 29.6 L 128.2 30.9 L 125.7 32.2 L 124.42598037719726 33.08627452850342 L 126.2 34.1 L 128.5 34.8 L 130.7 35.8 L 132.7 36.8 L 134.7 38.0 L 136.6 39.3 L 138.4 40.6 L 140.1 42.1 L 141.7 43.7 L 143.3 45.4 L 143.7 50.0 L 140.9 53.6 L 136.3 54.0 L 132.7 51.2 L 132.3 49.6 Z M 100.6 48.0 L 99.9 46.4 L 99.2 44.7 L 98.3 43.0 L 97.3 41.3 L 96.2 39.5 L 95.0 37.7 L 93.7 35.9 L 91.9 34.4 L 92.47297296524047 33.540540504455564 L 92.1 33.8 L 91.0 32.4 L 92.9 30.4 L 94.3 28.1 L 95.7 25.9 L 97.0 23.8 L 98.2 21.8 L 99.3 19.8 L 100.3 17.9 L 101.2 16.1 L 102.0 14.4 L 102.31864719390869 13.626142597198486 L 102.1 13.5 L 103.2 12.0 L 112.5 19.5 L 113.9 22.9 L 109.10378618240357 22.574832916259766 L 107.4 23.9 L 105.5 25.4 L 103.6 26.8 L 101.5 28.2 L 99.2 29.6 L 96.9 30.9 L 94.4 32.2 L 93.16510066986083 33.059060382843015 L 94.9 34.1 L 97.2 34.8 L 99.4 35.8 L 101.5 36.8 L 103.5 38.0 L 105.3 39.3 L 107.2 40.6 L 108.9 42.1 L 110.5 43.7 L 112.0 45.4 L 112.4 50.0 L 109.6 53.6 L 105.1 54.0 L 101.5 51.2 L 101.1 49.6 Z M 71.7 41.4 L 70.5 38.4 L 69.0 35.5 L 67.4 32.6 L 65.6 29.7 L 63.7 26.8 L 61.6 23.9 L 59.3 21.0 L 56.7 18.3 L 57.8 16.8 L 64.6 20.6 L 67.7 22.8 L 70.7 25.2 L 73.5 27.7 L 76.2 30.4 L 78.6 33.3 L 80.9 36.4 L 83.0 39.6 L 84.9 42.9 L 84.8 47.5 L 81.6 50.7 L 77.0 50.6 L 73.8 47.4 L 72.8 44.4 Z " />
</g>
</svg>
