<svg xmlns="http://www.w3.org/2000/svg" xmlns:xlink="http://www.w3.org/1999/xlink" version="1.1" baseProfile="full" viewBox="0 0 200 200" width="200" height="200">
<g fill="black">
<path d="M 108.4 33.0 L 165.1 33.0 L 175.1 23.0 L 187.1 33.0 L 187.1 37.0 L 108.4 37.0 L 108.4 102.0 L 107.9 113.6 L 107.0 124.7 L 105.6 135.1 L 103.7 144.8 L 101.4 153.9 L 98.6 162.4 L 95.4 170.1 L 91.6 177.1 L 87.3 183.2 L 82.5 188.5 L 81.0 187.4 L 84.1 181.2 L 86.8 174.7 L 89.2 167.7 L 91.4 160.1 L 93.1 152.0 L 94.6 143.2 L 95.6 133.8 L 96.3 123.8 L 96.5 113.2 L 96.4 102.0 L 96.4 27.0 Z M 76.0 129.2 L 74.8 126.2 L 73.5 123.4 L 72.3 120.7 L 71.0 118.1 L 69.6 115.7 L 68.3 113.4 L 67.48943586349488 112.06835899353027 L 67.48545560836791 112.07441987991334 L 67.8 113.4 L 69.4 125.3 L 69.8 137.3 L 69.0 149.4 L 66.9 161.5 L 63.6 173.7 L 62.81690998077393 173.9394160270691 L 62.0 175.9 L 60.9 178.1 L 59.4 180.1 L 57.7 181.9 L 55.8 183.5 L 53.7 184.8 L 51.4 185.8 L 49.0 186.4 L 46.6 186.8 L 44.0 187.0 L 44.0 181.0 L 30.0 178.0 L 30.0 175.0 L 44.0 175.0 L 45.4 174.9 L 46.5 174.7 L 47.4 174.4 L 48.2 174.1 L 48.9 173.7 L 49.5 173.2 L 49.87333335876465 172.82666664123536 L 51.1 169.3 L 54.7 158.5 L 57.3 147.6 L 58.8 136.7 L 59.2 125.8 L 59.113347911834715 124.19693651199341 L 58.6 124.9 L 53.7 130.7 L 48.5 136.1 L 43.1 141.0 L 37.4 145.5 L 31.6 149.4 L 25.4 152.8 L 19.0 155.6 L 12.4 157.8 L 11.7 156.1 L 17.2 152.3 L 22.6 148.3 L 27.7 144.1 L 32.6 139.6 L 37.2 134.9 L 41.7 129.8 L 45.9 124.4 L 49.9 118.6 L 53.7 112.5 L 57.2 106.0 L 57.27399673461914 106.041978931427 L 56.9 103.6 L 54.1 92.3 L 54.02707929611206 92.08684720993043 L 51.8 94.9 L 47.8 99.6 L 43.5 104.1 L 39.0 108.4 L 34.3 112.5 L 29.3 116.5 L 24.0 120.2 L 18.4 123.6 L 12.5 126.7 L 11.5 125.2 L 16.1 120.6 L 20.6 116.0 L 24.9 111.6 L 29.0 107.1 L 32.9 102.5 L 36.6 97.9 L 40.0 93.3 L 43.2 88.5 L 46.2 83.7 L 48.9 78.8 L 49.46532802581787 79.14578313827515 L 45.3 69.2 L 43.40967874526977 65.3215823173523 L 39.8 68.8 L 33.9 74.0 L 27.6 79.1 L 20.8 84.0 L 13.4 88.7 L 12.3 87.2 L 18.3 81.1 L 24.0 75.1 L 29.4 69.3 L 34.3 63.6 L 38.9 57.9 L 43.0 52.3 L 46.7 46.7 L 50.0 41.2 L 52.9 35.8 L 53.24285717010498 35.0 L 17.1 35.0 L 17.1 31.0 L 64.8 31.0 L 74.8 21.0 L 86.8 31.0 L 86.8 35.0 L 66.48000001907349 35.0 L 66.2 35.5 L 62.8 41.3 L 59.1 47.0 L 54.9 52.6 L 50.3 58.1 L 45.87122268676758 62.88307943344116 L 49.0 67.2 L 55.6 78.5 L 58.45719385147095 84.64566230773926 L 59.2 85.1 L 58.87699136734009 85.54862308502197 L 60.9 89.9 L 61.20205965042114 90.76197519302369 L 61.8 89.4 L 63.4 85.4 L 65.0 81.5 L 66.7 77.8 L 68.4 74.3 L 70.0 70.9 L 71.6 67.6 L 74.7 61.4 L 75.74513187408448 59.37941179275513 L 75.6 59.3 L 76.7 57.7 L 86.2 65.1 L 87.6 68.4 L 83.54544239044189 68.26018762588501 L 82.0 70.1 L 79.8 72.8 L 77.5 75.6 L 75.1 78.5 L 72.6 81.5 L 70.0 84.6 L 67.3 87.8 L 64.4 91.0 L 62.19243783950806 93.58817634582519 L 65.0 101.6 L 66.49770212173462 107.9117446899414 L 68.6 109.1 L 71.2 110.4 L 73.6 112.0 L 76.1 114.0 L 78.4 116.2 L 80.7 118.6 L 82.9 121.3 L 85.1 124.2 L 87.2 127.4 L 89.3 130.7 L 89.4 135.3 L 86.4 138.7 L 81.8 138.8 L 78.4 135.7 L 77.2 132.4 Z M 137.4 126.0 L 157.4 126.0 L 158.7 125.9 L 159.6 125.7 L 160.5 125.4 L 160.9 125.0 L 161.2 124.1 L 161.4 123.2 L 161.4 69.0 L 134.0 69.0 L 134.0 168.0 L 134.1 169.2 L 134.3 170.1 L 134.6 171.0 L 135.0 171.4 L 135.9 171.7 L 136.8 171.9 L 138.0 172.0 L 175.2 172.0 L 181.2 147.0 L 183.2 147.0 L 181.2 172.0 L 184.8 174.4 L 187.2 178.0 L 184.8 181.6 L 181.2 184.0 L 138.0 184.0 L 135.5 183.8 L 133.0 183.4 L 130.6 182.6 L 128.3 181.3 L 126.3 179.7 L 124.7 177.7 L 123.4 175.4 L 122.6 173.0 L 122.2 170.5 L 122.0 168.0 L 122.0 59.0 L 134.0 65.0 L 161.4 65.0 L 167.4 60.0 L 178.4 69.0 L 173.4 73.0 L 173.4 122.0 L 173.3 124.5 L 172.9 127.0 L 172.1 129.4 L 170.8 131.7 L 169.2 133.7 L 167.2 135.3 L 164.9 136.6 L 162.5 137.4 L 160.0 137.8 L 157.4 138.0 L 157.4 132.0 L 137.4 129.0 Z " />
</g>
</svg>
