<svg xmlns="http://www.w3.org/2000/svg" xmlns:xlink="http://www.w3.org/1999/xlink" version="1.1" baseProfile="full" viewBox="0 0 200 200" width="200" height="200">
<g fill="black">
<path d="M 122.2 144.0 L 123.7 147.3 L 119.84748859405518 147.23470315933227 L 118.2 149.5 L 114.1 154.8 L 109.9 159.8 L 105.5 164.6 L 101.0 169.0 L 96.3 173.3 L 91.5 177.2 L 86.5 180.8 L 81.3 183.9 L 75.9 186.7 L 74.9 185.2 L 79.0 180.9 L 83.0 176.7 L 87.0 172.3 L 90.9 167.9 L 94.7 163.3 L 98.4 158.5 L 102.0 153.6 L 105.5 148.4 L 108.8 143.1 L 112.0 137.6 L 112.05857257843017 137.63675146102906 L 112.6 136.8 Z M 167.3 171.7 L 162.5 165.1 L 158.0 157.8 L 153.8 150.0 L 149.9 141.5 L 146.3 132.4 L 143.0 122.7 L 140.2 112.3 L 138.53084535598754 104.2445143699646 L 138.0 104.38421049118043 L 138.0 184.0 L 126.0 190.0 L 126.0 106.94782609939575 L 123.6 107.4 L 116.2 108.7 L 108.2 109.7 L 99.6 110.7 L 90.5 111.4 L 80.7 111.8 L 80.5 110.1 L 89.9 107.6 L 98.7 105.4 L 107.0 103.3 L 114.6 101.2 L 121.6 99.2 L 128.1 97.1 L 133.8 95.1 L 139.0 93.0 L 143.5 91.0 L 146.43302392959595 89.45630321502685 L 146.4 89.4 L 146.4503828048706 89.44716691970825 L 147.3 89.0 L 148.38923959732057 91.26226682662964 L 155.8 98.2 L 156.0 101.5 L 152.20263624191284 99.90755710601806 L 147.8 101.5 L 142.5 103.2 L 140.9178277015686 103.61636114120483 L 144.1 110.9 L 148.5 120.5 L 152.9 129.5 L 154.9903762817383 133.35558300018312 L 156.2 131.0 L 158.1 127.5 L 159.9 124.1 L 161.6 120.9 L 163.2 117.8 L 166.1 112.0 L 167.4 109.3 L 168.09873189926148 107.64845180511475 L 168.0 107.6 L 168.3875 106.96590909957885 L 168.5 106.7 L 168.53655366897584 106.72200317382813 L 169.1 105.8 L 178.8 112.9 L 180.4 116.2 L 176.15 116.2 L 174.9 117.7 L 172.7 120.2 L 170.4 122.8 L 168.0 125.5 L 165.4 128.2 L 162.7 130.9 L 159.7 133.7 L 156.66389255523683 136.44229059219361 L 157.4 137.8 L 161.9 145.4 L 166.6 152.3 L 171.4 158.5 L 176.2 164.0 L 181.2 168.8 L 186.2 172.9 L 188.7 174.9 L 177.8 183.0 L 172.4 177.7 Z M 65.9 179.1 L 64.5 181.1 L 62.8 182.9 L 60.9 184.5 L 58.8 185.8 L 56.5 186.8 L 54.1 187.4 L 51.6 187.8 L 49.1 188.0 L 49.1 182.0 L 33.1 179.0 L 33.1 176.0 L 49.1 176.0 L 50.4 175.9 L 51.5 175.7 L 52.5 175.4 L 53.3 175.1 L 53.9 174.7 L 54.6 174.2 L 55.1 173.6 L 55.7 172.8 L 56.2 171.8 L 56.7 170.5 L 59.8 161.5 L 62.1 152.5 L 63.54254789352417 143.74854288101196 L 63.4 143.9 L 58.3 148.8 L 52.9 153.4 L 47.1 157.8 L 41.0 161.8 L 34.5 165.6 L 27.7 169.1 L 20.6 172.1 L 13.1 174.8 L 12.3 173.1 L 18.8 168.8 L 25.0 164.4 L 30.9 160.1 L 36.5 155.7 L 41.8 151.1 L 46.7 146.5 L 51.2 141.7 L 55.5 136.8 L 59.4 131.7 L 62.9 126.5 L 64.12834959030151 127.36485834121704 L 64.1 124.7 L 63.2 115.2 L 62.315762996673584 110.15464754104615 L 59.4 113.2 L 54.7 117.7 L 49.8 121.9 L 44.8 125.9 L 39.6 129.7 L 34.2 133.2 L 28.6 136.4 L 22.7 139.3 L 16.6 141.7 L 15.8 140.2 L 20.7 136.0 L 25.5 132.0 L 30.3 127.9 L 34.8 123.7 L 39.2 119.5 L 43.5 115.1 L 47.5 110.6 L 51.4 106.0 L 55.1 101.2 L 58.7 96.3 L 59.15116024017334 96.64668102264405 L 58.9 95.7 L 55.7 85.6 L 54.919532775878906 83.59029703140259 L 54.7 83.8 L 48.0 89.7 L 41.3 95.2 L 34.4 100.2 L 27.4 104.7 L 20.3 108.5 L 13.1 111.7 L 12.3 110.2 L 18.3 105.3 L 24.3 100.3 L 30.3 95.1 L 36.3 89.5 L 42.2 83.6 L 48.1 77.3 L 54.0 70.6 L 59.8 63.5 L 60.61113691329956 62.43271465301514 L 57.1 64.9 L 52.6 64.0 L 50.0 60.2 L 49.8 57.8 L 49.5 55.5 L 49.0 53.2 L 48.4 50.9 L 47.6 48.7 L 46.6 46.6 L 45.3 44.4 L 43.9 42.2 L 42.82538738250732 40.72240762710571 L 42.2 41.1 L 36.9 44.1 L 31.4 46.8 L 25.7 49.2 L 19.9 51.2 L 13.9 52.8 L 13.2 51.1 L 18.3 47.7 L 23.3 44.4 L 28.1 41.1 L 32.9 37.6 L 37.5 34.1 L 42.0 30.5 L 46.3 26.7 L 50.5 22.7 L 54.6 18.7 L 57.83681049346924 15.131208896636963 L 57.8 15.1 L 58.8 14.1 L 67.0 22.9 L 67.7 26.4 L 64.03744077682495 25.484360218048096 L 62.3 27.0 L 57.5 30.9 L 52.6 34.5 L 47.5 37.9 L 45.83579998016357 38.90480003356934 L 46.5 39.2 L 49.0 40.7 L 51.4 42.5 L 53.6 44.5 L 55.7 46.7 L 57.5 49.2 L 59.1 51.8 L 60.5 54.7 L 61.7 57.8 L 60.83142852783203 62.14285717010498 L 65.5 56.0 L 70.61060018539429 49.006547164916995 L 70.6 49.0 L 71.6 47.5 L 80.8 55.3 L 82.0 58.7 L 78.27382326126099 58.37877788543701 L 74.4 63.1 L 67.9 70.5 L 61.4 77.4 L 57.43086128234863 81.19141607284546 L 59.2 84.1 L 64.0 93.9 L 67.52378225326538 103.08038005828857 L 68.2 103.6 L 67.85430183410645 103.99393510818481 L 70.6 113.8 L 72.6 123.9 L 73.5 134.0 L 73.6 144.1 L 72.7 154.3 L 70.8 164.4 L 68.1 174.5 L 67.1 176.9 Z M 113.4 120.6 L 115.1 123.8 L 111.2442608833313 123.99943475723266 L 110.8 124.7 L 108.0 128.6 L 105.1 132.4 L 102.0 136.0 L 98.7 139.6 L 95.2 142.9 L 91.5 146.2 L 87.7 149.2 L 83.5 152.0 L 79.2 154.6 L 78.1 153.3 L 84.1 145.5 L 86.9 141.8 L 89.6 138.0 L 92.2 134.3 L 94.6 130.5 L 96.9 126.7 L 99.0 122.9 L 101.0 119.0 L 102.37979564666747 115.93378734588623 L 102.3 115.9 L 103.3 114.0 Z M 78.0 84.0 L 92.7 84.0 L 92.7 35.5 L 103.7 41.0 L 114.4 41.0 L 115.3 39.2 L 116.7 35.9 L 118.1 32.7 L 119.4 29.6 L 120.8 26.6 L 122.1 23.6 L 123.4 20.8 L 124.6 18.0 L 125.8 15.3 L 126.49873189926147 13.648451805114746 L 126.4 13.6 L 126.7875 12.965909099578857 L 126.9 12.7 L 126.93655366897583 12.722003173828124 L 127.5 11.8 L 137.2 18.9 L 138.8 22.2 L 134.57391300201417 22.2 L 133.5 23.5 L 131.5 25.9 L 129.4 28.3 L 127.2 30.8 L 125.0 33.2 L 122.7 35.7 L 120.2 38.3 L 117.6 40.8 L 117.41481485366822 41.0 L 159.0 41.0 L 164.5 36.0 L 175.0 45.0 L 170.0 48.5 L 170.0 84.0 L 172.37777776718139 84.0 L 178.6 77.0 L 186.6 84.0 L 186.6 88.0 L 78.0 88.0 Z M 103.7 45.0 L 103.7 84.0 L 114.6 84.0 L 114.6 45.0 Z M 124.6 45.0 L 124.6 84.0 L 138.0 84.0 L 138.0 45.0 Z M 148.0 45.0 L 148.0 84.0 L 159.0 84.0 L 159.0 45.0 Z M 33.6 70.7 L 33.4 68.7 L 33.0 66.6 L 32.4 64.5 L 31.6 62.3 L 30.6 60.1 L 29.4 57.8 L 28.0 55.4 L 26.0 53.3 L 27.2 51.9 L 29.6 53.6 L 32.2 55.1 L 34.6 56.8 L 36.7 58.7 L 38.7 60.7 L 40.5 62.9 L 42.1 65.3 L 43.4 67.8 L 44.6 70.5 L 45.4 73.3 L 44.1 77.7 L 40.2 79.9 L 35.8 78.6 L 33.5 74.7 L 33.6 72.7 Z " />
</g>
</svg>
