<svg xmlns="http://www.w3.org/2000/svg" xmlns:xlink="http://www.w3.org/1999/xlink" version="1.1" baseProfile="full" viewBox="0 0 200 200" width="200" height="200">
<g fill="black">
<path d="M 143.9 177.0 L 155.9 177.0 L 157.2 176.9 L 158.1 176.7 L 159.0 176.4 L 159.2 176.2 L 159.3 176.0 L 159.5 175.7 L 159.7 175.1 L 159.9 174.2 L 159.9 150.0 L 112.5 150.0 L 112.5 183.0 L 100.5 189.0 L 100.5 94.0 L 112.5 100.0 L 159.9 100.0 L 165.9 95.0 L 176.9 104.0 L 171.9 108.0 L 171.9 173.0 L 171.8 175.5 L 171.3 178.0 L 170.5 180.4 L 169.3 182.7 L 167.7 184.7 L 165.7 186.3 L 163.4 187.6 L 161.0 188.4 L 158.5 188.8 L 155.9 189.0 L 155.9 183.0 L 143.9 180.0 Z M 71.0 167.7 L 69.1 164.4 L 66.9 161.0 L 64.5 157.5 L 61.7 153.9 L 58.7 150.2 L 55.4 146.4 L 51.9 142.4 L 51.551556301116946 142.01388664245604 L 49.7 147.8 L 45.6 157.0 L 40.7 165.3 L 35.0 172.7 L 28.5 179.1 L 21.1 184.5 L 13.0 188.7 L 12.1 187.2 L 18.8 181.5 L 24.7 175.3 L 29.8 168.6 L 34.2 161.3 L 37.9 153.4 L 40.9 144.8 L 43.1 135.5 L 44.6 125.4 L 45.4 114.6 L 45.5 103.0 L 45.5 47.0 L 57.5 49.0 L 60.5 51.0 L 57.5 52.8 L 57.5 103.0 L 56.8 115.3 L 55.3 127.0 L 52.9 137.8 L 52.58695650100708 138.77826089859008 L 54.2 139.7 L 58.8 142.6 L 63.0 145.6 L 66.9 148.7 L 70.6 151.9 L 73.9 155.1 L 77.0 158.4 L 79.9 161.7 L 82.4 165.1 L 84.7 168.5 L 85.0 173.1 L 82.1 176.6 L 77.5 176.9 L 74.0 174.0 L 72.7 170.9 Z M 112.5 126.0 L 112.5 146.0 L 159.9 146.0 L 159.9 126.0 Z M 33.4 28.1 L 69.6 28.1 L 75.6 23.1 L 86.6 32.1 L 81.6 36.1 L 81.6 131.3 L 69.6 137.3 L 69.6 32.1 L 33.4 32.1 L 33.4 134.0 L 21.4 140.0 L 21.4 22.1 Z M 112.5 104.0 L 112.5 122.0 L 159.9 122.0 L 159.9 104.0 Z M 85.4 81.0 L 129.7 81.0 L 129.7 62.0 L 96.4 62.0 L 96.4 58.0 L 129.7 58.0 L 129.7 39.0 L 91.8 39.0 L 91.8 35.0 L 129.7 35.0 L 129.7 14.0 L 141.7 16.0 L 144.7 18.0 L 141.7 19.8 L 141.7 35.0 L 159.5 35.0 L 169.5 25.0 L 181.5 35.0 L 181.5 39.0 L 141.7 39.0 L 141.7 58.0 L 157.8181818008423 58.0 L 166.0 49.0 L 176.0 58.0 L 176.0 62.0 L 141.7 62.0 L 141.7 81.0 L 169.71818180084227 81.0 L 177.9 72.0 L 187.9 81.0 L 187.9 85.0 L 85.4 85.0 Z " />
</g>
</svg>
