<svg xmlns="http://www.w3.org/2000/svg" xmlns:xlink="http://www.w3.org/1999/xlink" version="1.1" baseProfile="full" viewBox="0 0 200 200" width="200" height="200">
<g fill="black">
<path d="M 125.7 183.0 L 103.6 180.9 L 84.2 177.7 L 67.6 173.2 L 53.8 167.4 L 42.8 160.3 L 34.9 151.9 L 30.3 142.3 L 30.265223598480226 142.00150270462035 L 28.8 149.5 L 26.8 157.6 L 24.5 165.1 L 21.9 172.0 L 18.9 178.2 L 15.5 183.7 L 11.7 188.4 L 10.2 187.5 L 12.1 182.0 L 14.0 176.2 L 15.7 169.9 L 17.2 163.1 L 18.5 155.8 L 19.7 147.9 L 20.6 139.5 L 21.3 130.5 L 21.7 120.9 L 21.9 110.7 L 21.93026485443115 110.70126104354858 L 22.0 108.4 L 33.9 111.2 L 36.8 113.3 L 33.60346460342407 115.05496063232422 L 33.1 121.6 L 31.9 131.5 L 31.568412494659423 133.7026883125305 L 34.2 140.8 L 39.5 148.2 L 47.1 154.5 L 49.0 155.49611654281617 L 49.0 86.0 L 61.0 88.0 L 64.0 90.0 L 61.0 91.8 L 61.0 121.0 L 75.81818180084228 121.0 L 84.0 112.0 L 94.0 121.0 L 94.0 125.0 L 61.0 125.0 L 61.0 161.1 L 70.3 164.2 L 86.1 167.6 L 104.8 169.9 L 126.2 171.2 L 150.5 171.3 L 177.7 170.4 L 189.0 169.9 L 178.2 183.5 L 150.6 183.8 Z M 91.7 148.0 L 133.5 148.0 L 133.5 87.1 L 102.3 87.1 L 102.3 83.1 L 133.5 83.1 L 133.5 28.3 L 97.3 28.3 L 97.3 24.3 L 159.6 24.3 L 169.6 14.3 L 181.6 24.3 L 181.6 28.3 L 145.5 28.3 L 145.5 83.1 L 154.6 83.1 L 164.6 73.1 L 176.6 83.1 L 176.6 87.1 L 145.5 87.1 L 145.5 148.0 L 165.2 148.0 L 175.2 138.0 L 187.2 148.0 L 187.2 152.0 L 91.7 152.0 Z M 164.1 124.8 L 163.0 121.6 L 161.8 118.4 L 160.5 115.3 L 157.7 109.3 L 156.2 106.3 L 154.7 103.4 L 152.8 100.6 L 154.1 99.4 L 156.8 101.5 L 159.6 103.6 L 162.2 105.9 L 164.7 108.5 L 167.1 111.2 L 169.4 114.1 L 171.5 117.2 L 173.5 120.4 L 175.5 123.8 L 177.3 127.3 L 177.1 131.9 L 173.8 135.0 L 169.2 134.8 L 166.1 131.6 L 165.1 128.1 Z M 14.0 82.0 L 49.0 82.0 L 49.0 50.0 L 17.0 50.0 L 17.0 46.0 L 49.0 46.0 L 49.0 12.0 L 61.0 14.0 L 64.0 16.0 L 61.0 17.8 L 61.0 46.0 L 71.0 46.0 L 81.0 36.0 L 93.0 46.0 L 93.0 50.0 L 61.0 50.0 L 61.0 82.0 L 73.0 82.0 L 83.0 72.0 L 95.0 82.0 L 95.0 86.0 L 14.0 86.0 Z " />
</g>
</svg>
