<svg xmlns="http://www.w3.org/2000/svg" xmlns:xlink="http://www.w3.org/1999/xlink" version="1.1" baseProfile="full" viewBox="0 0 200 200" width="200" height="200">
<g fill="black">
<path d="M 125.7 183.0 L 103.6 180.9 L 84.2 177.7 L 67.6 173.2 L 53.8 167.4 L 42.8 160.3 L 34.9 151.9 L 30.3 142.3 L 30.265223598480226 142.00150270462035 L 28.8 149.5 L 26.8 157.6 L 24.5 165.1 L 21.9 172.0 L 18.9 178.2 L 15.5 183.7 L 11.7 188.4 L 10.2 187.5 L 12.1 182.0 L 14.0 176.2 L 15.7 169.9 L 17.2 163.1 L 18.5 155.8 L 19.7 147.9 L 20.6 139.5 L 21.3 130.5 L 21.7 120.9 L 21.9 110.7 L 21.93026485443115 110.70126104354858 L 22.0 108.4 L 33.9 111.2 L 36.8 113.3 L 33.60346460342407 115.05496063232422 L 33.1 121.6 L 31.9 131.5 L 31.568412494659423 133.7026883125305 L 34.2 140.8 L 39.5 148.2 L 47.1 154.5 L 49.0 155.49611654281617 L 49.0 86.0 L 61.0 88.0 L 64.0 90.0 L 61.0 91.8 L 61.0 121.0 L 75.81818180084228 121.0 L 84.0 112.0 L 94.0 121.0 L 94.0 125.0 L 61.0 125.0 L 61.0 161.1 L 70.3 164.2 L 86.1 167.6 L 104.8 169.9 L 126.2 171.2 L 150.5 171.3 L 177.7 170.4 L 189.0 169.9 L 178.2 183.5 L 150.6 183.8 Z M 153.0 132.9 L 163.0 132.9 L 164.3 132.8 L 165.2 132.7 L 165.8 132.5 L 166.1 132.3 L 166.3 132.2 L 166.6 131.6 L 166.8 131.0 L 167.0 130.1 L 167.0 65.7 L 146.1 65.7 L 146.1 160.7 L 134.1 166.7 L 134.1 65.7 L 113.2 65.7 L 113.2 138.6 L 101.2 144.6 L 101.2 55.7 L 113.2 61.7 L 134.1 61.7 L 134.1 32.9 L 95.6 32.9 L 95.6 28.9 L 164.4 28.9 L 174.4 18.9 L 186.4 28.9 L 186.4 32.9 L 146.1 32.9 L 146.1 61.7 L 167.0 61.7 L 173.0 56.7 L 184.0 65.7 L 179.0 69.7 L 179.0 128.9 L 178.9 131.5 L 178.5 134.0 L 177.6 136.4 L 176.4 138.6 L 174.8 140.6 L 172.8 142.3 L 170.5 143.5 L 168.1 144.3 L 165.6 144.8 L 163.0 144.9 L 163.0 138.9 L 153.0 135.9 Z M 14.0 82.0 L 49.0 82.0 L 49.0 50.0 L 17.0 50.0 L 17.0 46.0 L 49.0 46.0 L 49.0 12.0 L 61.0 14.0 L 64.0 16.0 L 61.0 17.8 L 61.0 46.0 L 71.0 46.0 L 81.0 36.0 L 93.0 46.0 L 93.0 50.0 L 61.0 50.0 L 61.0 82.0 L 73.0 82.0 L 83.0 72.0 L 95.0 82.0 L 95.0 86.0 L 14.0 86.0 Z " />
</g>
</svg>
