<svg xmlns="http://www.w3.org/2000/svg" xmlns:xlink="http://www.w3.org/1999/xlink" version="1.1" baseProfile="full" viewBox="0 0 200 200" width="200" height="200">
<g fill="black">
<path d="M 124.6 183.0 L 102.1 180.9 L 82.5 177.7 L 65.6 173.2 L 51.6 167.4 L 44.78309860229492 163.0 L 44.0 163.0 L 44.0 162.49454545974731 L 40.6 160.3 L 32.6 151.9 L 28.336974811553954 142.8055461883545 L 27.2 149.4 L 25.4 157.5 L 23.3 165.0 L 20.9 171.9 L 18.2 178.1 L 15.2 183.6 L 11.7 188.4 L 10.2 187.5 L 11.7 182.1 L 13.2 176.3 L 14.6 170.0 L 15.9 163.2 L 17.0 155.9 L 18.0 148.0 L 18.8 139.5 L 19.3 130.5 L 19.7 120.9 L 19.9 110.7 L 19.93026485443115 110.70126104354858 L 20.0 108.4 L 31.9 111.2 L 34.8 113.3 L 31.603464603424072 115.05496063232422 L 31.1 121.6 L 30.0 131.5 L 29.64232978820801 134.0312047958374 L 32.0 140.8 L 37.2 148.2 L 44.0 153.76363639831544 L 44.0 86.0 L 56.0 88.0 L 59.0 90.0 L 56.0 91.8 L 56.0 121.0 L 70.77777776718139 121.0 L 77.0 114.0 L 85.0 121.0 L 85.0 125.0 L 56.0 125.0 L 56.0 160.06870231628417 L 68.3 164.2 L 84.3 167.6 L 103.3 169.9 L 125.2 171.2 L 150.0 171.3 L 177.7 170.4 L 189.0 169.9 L 178.2 183.5 L 150.0 183.8 Z M 105.1 21.2 L 170.8 21.2 L 176.8 16.2 L 187.8 25.2 L 182.8 29.2 L 182.8 146.2 L 182.6 148.8 L 182.2 151.3 L 181.4 153.7 L 180.1 155.9 L 178.5 157.9 L 176.5 159.6 L 174.2 160.8 L 171.8 161.6 L 169.3 162.1 L 166.8 162.2 L 166.8 156.2 L 146.8 153.2 L 146.8 150.2 L 166.8 150.2 L 168.0 150.1 L 168.9 150.0 L 169.5 149.8 L 169.8 149.6 L 170.0 149.5 L 170.2 149.3 L 170.3 148.9 L 170.5 148.3 L 170.7 147.4 L 170.8 146.2 L 170.8 25.2 L 105.1 25.2 L 105.1 97.6 L 104.5 106.2 L 103.6 114.4 L 102.2 122.1 L 100.4 129.4 L 98.1 136.2 L 95.4 142.6 L 92.2 148.4 L 88.6 153.6 L 84.4 158.2 L 79.8 162.1 L 78.4 160.8 L 81.4 155.9 L 84.0 150.7 L 86.3 145.4 L 88.3 139.7 L 90.0 133.7 L 91.3 127.3 L 92.3 120.5 L 92.9 113.3 L 93.2 105.7 L 93.1 97.6 L 93.1 15.2 Z M 127.1 95.6 L 146.6 95.6 L 152.6 90.6 L 163.6 99.6 L 158.6 103.6 L 158.6 136.2 L 146.6 142.2 L 146.6 130.2 L 127.1 130.2 L 127.1 142.2 L 115.1 148.2 L 115.1 89.6 Z M 127.1 99.6 L 127.1 126.2 L 146.6 126.2 L 146.6 99.6 Z M 140.8 33.8 L 143.8 35.8 L 140.8 37.6 L 140.8 51.8 L 143.2 51.8 L 153.2 41.8 L 165.2 51.8 L 165.2 55.8 L 140.8 55.8 L 140.8 73.7 L 147.01818180084229 73.7 L 155.2 64.7 L 165.2 73.7 L 165.2 77.7 L 140.8 77.7 L 140.8 85.0 L 128.8 91.0 L 128.8 77.7 L 110.6 77.7 L 110.6 73.7 L 128.8 73.7 L 128.8 55.8 L 110.6 55.8 L 110.6 51.8 L 128.8 51.8 L 128.8 31.8 Z M 13.0 82.0 L 44.0 82.0 L 44.0 50.0 L 16.0 50.0 L 16.0 46.0 L 44.0 46.0 L 44.0 12.0 L 56.0 14.0 L 59.0 16.0 L 56.0 17.8 L 56.0 46.0 L 62.0 46.0 L 72.0 36.0 L 84.0 46.0 L 84.0 50.0 L 56.0 50.0 L 56.0 82.0 L 64.0 82.0 L 74.0 72.0 L 86.0 82.0 L 86.0 86.0 L 13.0 86.0 Z " />
</g>
</svg>
