<svg xmlns="http://www.w3.org/2000/svg" xmlns:xlink="http://www.w3.org/1999/xlink" version="1.1" baseProfile="full" viewBox="0 0 200 200" width="200" height="200">
<g fill="black">
<path d="M 176.0 137.0 L 106.0 137.0 L 106.0 154.0 L 148.0 154.0 L 158.0 144.0 L 170.0 154.0 L 170.0 158.0 L 106.0 158.0 L 106.0 174.2380952835083 L 106.6 174.3 L 121.1 175.2 L 137.6 175.6 L 156.2 175.6 L 177.0 175.4 L 188.8 175.4 L 177.0 188.6 L 156.1 188.1 L 137.3 187.4 L 120.4 186.2 L 105.5 184.5 L 92.3 182.1 L 80.8 179.0 L 71.0 175.0 L 62.8 169.9 L 56.3 163.6 L 55.19313802719116 161.80442390441894 L 53.8 163.8 L 49.5 168.7 L 44.8 173.2 L 39.7 177.3 L 34.0 180.9 L 27.9 184.1 L 21.3 186.7 L 14.3 188.8 L 13.6 187.1 L 19.7 183.3 L 25.2 179.4 L 30.3 175.5 L 34.8 171.4 L 38.9 167.2 L 42.4 162.7 L 45.5 158.1 L 48.1 153.3 L 50.2 148.3 L 51.9 143.0 L 51.91807231903076 143.00602407455443 L 52.4 141.5 L 63.3 146.8 L 65.5 149.6 L 61.74115962982178 150.45727939605712 L 60.7 152.9 L 57.5 158.5 L 57.22565851211548 158.8929756164551 L 59.2 160.7 L 66.0 164.9 L 73.8 168.3 L 83.1 171.0 L 94.0 173.0 L 94.0 137.0 L 24.0 137.0 L 24.0 133.0 L 94.0 133.0 L 94.0 118.0 L 58.0 118.0 L 58.0 114.0 L 94.0 114.0 L 94.0 95.0 L 106.0 97.0 L 109.0 99.0 L 106.0 100.8 L 106.0 114.0 L 123.81818180084228 114.0 L 132.0 105.0 L 142.0 114.0 L 142.0 118.0 L 106.0 118.0 L 106.0 133.0 L 157.8181818008423 133.0 L 163.55555553436278 126.68888893127442 L 161.1 125.1 L 156.1 121.5 L 151.1 117.6 L 146.3 113.3 L 141.5 108.7 L 136.8 103.6 L 132.2 98.1 L 128.41999998092652 92.7 L 75.9848484992981 92.7 L 75.0 94.0 L 70.7 99.5 L 66.0 104.8 L 60.9 109.8 L 55.4 114.5 L 49.6 118.9 L 43.3 123.0 L 36.7 126.8 L 29.7 130.3 L 22.2 133.3 L 14.3 136.0 L 13.6 134.3 L 20.5 129.9 L 27.0 125.6 L 33.2 121.2 L 39.0 116.8 L 44.3 112.2 L 49.3 107.5 L 53.8 102.7 L 57.9 97.8 L 61.6 92.7 L 18.0 92.7 L 18.0 88.7 L 69.0 88.7 L 69.0 75.7 L 36.0 75.7 L 36.0 71.7 L 69.0 71.7 L 69.0 59.7 L 40.0 59.7 L 40.0 55.7 L 69.0 55.7 L 69.0 40.6 L 81.0 42.6 L 84.0 44.6 L 81.0 46.4 L 81.0 55.7 L 119.0 55.7 L 119.0 40.6 L 131.0 42.6 L 134.0 44.6 L 131.0 46.4 L 131.0 55.7 L 141.8181818008423 55.7 L 150.0 46.7 L 160.0 55.7 L 160.0 59.7 L 131.0 59.7 L 131.0 71.7 L 145.8181818008423 71.7 L 154.0 62.7 L 164.0 71.7 L 164.0 75.7 L 131.0 75.7 L 131.0 88.7 L 163.8181818008423 88.7 L 172.0 79.7 L 182.0 88.7 L 182.0 92.7 L 131.9069766998291 92.7 L 135.2 95.1 L 140.7 99.3 L 146.1 103.2 L 151.4 106.8 L 156.6 110.0 L 161.7 113.0 L 166.7 115.6 L 171.6 117.9 L 176.5 119.8 L 181.3 121.4 L 188.1 124.0 L 176.6 133.8 L 176.0 133.5 Z M 81.0 75.7 L 81.0 88.7 L 119.0 88.7 L 119.0 75.7 Z M 81.0 59.7 L 81.0 71.7 L 119.0 71.7 L 119.0 59.7 Z M 13.3 60.4 L 13.0 55.8 L 16.0 52.4 L 18.0 51.7 L 19.8 50.7 L 21.6 49.4 L 23.3 47.8 L 24.8 45.7 L 26.3 43.1 L 27.6 40.1 L 28.7 36.6 L 29.7 32.6 L 30.1 28.2 L 31.9 28.2 L 32.4 32.7 L 32.667441844940186 35.0 L 94.0 35.0 L 94.0 12.9 L 106.0 14.9 L 109.0 16.9 L 106.0 18.7 L 106.0 35.0 L 170.0 35.0 L 176.0 30.0 L 187.0 39.0 L 182.0 42.0 L 176.85714282989503 44.14285717010498 L 176.8 44.2 L 175.3 45.8 L 173.7 47.5 L 171.9 49.4 L 169.9 51.5 L 167.6 53.7 L 165.7 56.3 L 164.2 55.4 L 165.7 52.5 L 168.4 44.4 L 169.1 42.1 L 169.6 40.1 L 169.9235294342041 39.0 L 32.94878044128418 39.0 L 33.0 41.1 L 32.7 44.9 L 31.9 48.6 L 30.7 52.1 L 29.1 55.3 L 27.0 58.3 L 24.3 60.9 L 21.3 63.2 L 16.7 63.4 Z " />
</g>
</svg>
