<svg xmlns="http://www.w3.org/2000/svg" xmlns:xlink="http://www.w3.org/1999/xlink" version="1.1" baseProfile="full" viewBox="0 0 200 200" width="200" height="200">
<g fill="black">
<path d="M 118.3 181.4 L 95.3 179.5 L 76.1 176.1 L 60.3 171.3 L 47.7 164.7 L 38.11547622680664 156.4 L 37.7 156.4 L 37.7 155.85 L 31.2 146.1 L 27.28399028778076 134.82953300476075 L 26.2 143.6 L 24.8 152.0 L 23.1 160.0 L 21.1 167.6 L 18.7 174.7 L 16.0 181.3 L 12.7 187.4 L 11.1 186.7 L 12.3 180.1 L 13.6 173.3 L 14.7 166.2 L 15.6 158.7 L 16.4 150.9 L 16.9 142.7 L 17.3 134.1 L 17.4 125.1 L 17.2 115.8 L 16.93051881790161 106.99694814682007 L 16.9 107.0 L 16.8 103.7 L 28.9 105.8 L 31.9 107.7 L 28.783856868743896 109.67143745422364 L 28.6 115.8 L 28.15666742324829 124.40065259933472 L 31.0 133.0 L 36.4 143.2 L 37.7 144.72941179275512 L 37.7 83.1 L 12.9 83.1 L 12.9 79.1 L 37.7 79.1 L 37.7 48.5 L 14.9 48.5 L 14.9 44.5 L 37.7 44.5 L 37.7 12.8 L 49.7 14.8 L 52.7 16.8 L 49.7 18.6 L 49.7 44.5 L 52.418181800842284 44.5 L 60.6 35.5 L 70.6 44.5 L 70.6 48.5 L 49.7 48.5 L 49.7 79.1 L 53.418181800842284 79.1 L 61.6 70.1 L 71.6 79.1 L 71.6 83.1 L 49.7 83.1 L 52.7 85.1 L 49.7 86.9 L 49.7 117.7 L 56.3777777671814 117.7 L 62.6 110.7 L 70.6 117.7 L 70.6 121.7 L 49.7 121.7 L 49.7 155.87415733337403 L 52.1 157.6 L 63.5 162.5 L 78.2 166.1 L 78.84145603179931 166.1841254234314 L 78.6 165.5 L 83.6 162.7 L 88.2 159.9 L 92.6 157.3 L 96.7 154.8 L 100.4 152.4 L 103.9 150.1 L 107.0 147.8 L 109.7 145.6 L 112.1 143.5 L 113.44941177368165 142.15058822631835 L 113.4 142.1 L 114.3 141.3 L 121.8 150.7 L 122.2 154.2 L 118.38367347717285 152.88163261413575 L 115.6 154.4 L 112.1 156.2 L 108.3 158.0 L 104.2 159.7 L 99.9 161.4 L 95.2 163.0 L 90.2 164.5 L 84.8 165.9 L 81.8668815612793 166.5809024810791 L 96.5 168.5 L 118.8 169.6 L 145.4 169.6 L 176.8 168.6 L 188.3 168.2 L 177.3 181.8 L 145.5 182.1 Z M 164.6 162.4 L 162.4 160.5 L 159.8 158.6 L 156.8 156.6 L 153.4 154.6 L 149.7 152.6 L 145.6 150.6 L 141.1 148.5 L 136.2 146.5 L 136.6 144.8 L 141.9 145.5 L 146.9 146.2 L 151.7 147.1 L 156.0 148.1 L 160.1 149.3 L 163.9 150.7 L 167.5 152.2 L 170.7 153.9 L 173.7 155.7 L 176.4 157.8 L 178.0 162.1 L 176.1 166.3 L 171.8 167.9 L 167.7 166.1 L 166.3 164.3 Z M 114.9 72.2 L 114.0 70.4 L 112.9 68.6 L 111.7 66.9 L 110.4 65.1 L 108.9 63.3 L 107.2 61.5 L 105.46428575515748 59.66785717010498 L 104.5 62.4 L 101.5 68.8 L 97.9 74.7 L 94.26000003814697 79.38000001907349 L 105.7 85.1 L 153.2 85.1 L 159.2 80.1 L 170.2 89.1 L 165.2 93.1 L 165.2 138.4 L 153.2 144.4 L 153.2 138.4 L 105.7 138.4 L 93.7 144.4 L 93.7 80.1 L 88.9 84.9 L 83.6 89.0 L 77.6 92.5 L 76.6 91.1 L 81.0 86.2 L 85.0 81.2 L 88.4 76.1 L 91.3 70.8 L 93.8 65.2 L 95.7 59.4 L 96.96451616287231 53.8 L 77.7 53.8 L 77.7 49.8 L 97.62307691574097 49.8 L 98.1 46.7 L 98.5 39.9 L 98.5 34.7 L 81.3 34.7 L 81.3 30.7 L 98.5 30.7 L 98.5 14.3 L 110.5 16.3 L 113.5 18.3 L 110.5 20.1 L 110.5 30.7 L 113.4777777671814 30.7 L 119.7 23.7 L 127.7 30.7 L 127.7 34.7 L 110.35 34.7 L 109.9 40.7 L 108.7 48.4 L 108.35 49.8 L 114.6777777671814 49.8 L 120.9 42.8 L 128.9 49.8 L 128.9 53.8 L 107.35 53.8 L 106.9 55.6 L 106.23195877075196 57.492783546447754 L 106.5 57.6 L 109.2 58.2 L 111.7 59.1 L 114.2 60.1 L 116.5 61.3 L 118.7 62.7 L 120.9 64.2 L 122.9 65.9 L 124.8 67.7 L 126.6 69.7 L 127.1 74.2 L 124.4 77.9 L 119.9 78.4 L 116.2 75.7 L 115.6 74.0 Z M 105.7 122.0 L 105.7 134.4 L 153.2 134.4 L 153.2 122.0 Z M 105.7 105.5 L 105.7 118.0 L 153.2 118.0 L 153.2 105.5 Z M 105.7 89.1 L 105.7 101.5 L 153.2 101.5 L 153.2 89.1 Z M 166.9 81.6 L 164.3 78.6 L 161.9 75.4 L 159.7 72.1 L 157.9 68.6 L 156.3 64.9 L 155.0 61.1 L 154.21242151260375 57.59965105056763 L 152.8 61.1 L 149.8 66.3 L 146.3 70.9 L 142.2 74.8 L 137.5 78.0 L 132.4 80.5 L 126.8 82.2 L 126.1 80.6 L 130.5 77.2 L 134.3 73.8 L 137.5 70.2 L 140.2 66.3 L 142.4 62.1 L 144.2 57.6 L 145.20816326141357 53.8 L 131.2 53.8 L 131.2 49.8 L 145.929629611969 49.8 L 146.3 47.3 L 146.7 41.5 L 146.7 34.7 L 132.4 34.7 L 132.4 30.7 L 146.7 30.7 L 146.7 14.3 L 158.7 16.3 L 161.7 18.3 L 158.7 20.1 L 158.7 30.7 L 163.37777776718139 30.7 L 169.6 23.7 L 177.6 30.7 L 177.6 34.7 L 158.7 34.7 L 158.7 35.3 L 158.1 42.5 L 156.9 49.2 L 156.72580642700194 49.8 L 163.01818180084229 49.8 L 171.2 40.8 L 181.2 49.8 L 181.2 53.8 L 155.86470584869386 53.8 L 157.1 55.8 L 159.5 58.9 L 161.8 61.7 L 164.1 64.4 L 166.6 66.8 L 169.1 69.0 L 171.6 71.0 L 174.3 72.8 L 179.9 75.8 L 184.1 78.3 L 173.0 87.0 L 169.8 84.4 Z " />
</g>
</svg>
