<svg xmlns="http://www.w3.org/2000/svg" xmlns:xlink="http://www.w3.org/1999/xlink" version="1.1" baseProfile="full" viewBox="0 0 200 200" width="200" height="200">
<g fill="black">
<path d="M 164.4 175.8 L 158.2 169.6 L 152.4 162.8 L 148.42717571258544 157.02816095352173 L 146.9 158.0 L 140.2 162.0 L 133.4 165.7 L 126.7 169.2 L 119.9 172.5 L 113.2 175.7 L 106.4 178.8 L 99.7 181.8 L 93.1 184.6 L 90.26636533737182 185.74191246032714 L 89.3 189.5 L 86.4 187.3 L 80.5 176.6 L 82.4 176.0 L 89.2 173.9 L 99.3 170.63235292434692 L 99.3 107.0 L 82.4 107.0 L 82.4 103.0 L 99.3 103.0 L 99.3 22.0 L 111.3 28.0 L 156.1 28.0 L 166.1 18.0 L 178.1 28.0 L 178.1 32.0 L 111.3 32.0 L 111.3 53.0 L 149.9 53.0 L 159.9 43.0 L 171.9 53.0 L 171.9 57.0 L 111.3 57.0 L 111.3 78.0 L 150.9 78.0 L 160.9 68.0 L 172.9 78.0 L 172.9 82.0 L 111.3 82.0 L 111.3 103.0 L 169.3181818008423 103.0 L 177.5 94.0 L 187.5 103.0 L 187.5 107.0 L 130.05961542129518 107.0 L 134.3 116.0 L 139.2 125.6 L 144.2 134.4 L 146.43221216201783 137.9452781677246 L 147.3 137.3 L 150.9 134.3 L 154.4 131.5 L 157.7 129.0 L 160.7 126.5 L 163.6 124.1 L 166.2 121.9 L 168.5 119.8 L 170.7 117.8 L 171.8964705467224 116.60352945327759 L 171.8 116.5 L 172.7 115.8 L 180.0 125.3 L 180.3 128.9 L 176.35858306884765 127.39509534835815 L 174.6 128.4 L 171.6 129.9 L 168.4 131.6 L 164.9 133.2 L 161.3 134.9 L 157.4 136.6 L 153.2 138.3 L 148.8 139.9 L 147.88772611618043 140.2569766998291 L 149.3 142.5 L 154.7 149.7 L 160.2 156.2 L 166.0 161.8 L 171.9 166.7 L 178.0 170.8 L 184.3 174.1 L 189.4 176.8 L 178.2 185.8 L 171.1 181.2 Z M 15.0 168.9 L 21.5 167.3652777671814 L 21.5 101.0 L 33.5 103.0 L 36.5 105.0 L 33.5 106.8 L 33.5 164.4 L 36.7 163.6 L 43.9 161.6 L 47.0 160.75068492889403 L 47.0 80.0 L 33.5 80.0 L 33.5 83.0 L 21.5 89.0 L 21.5 22.0 L 33.5 28.0 L 69.9 28.0 L 75.9 23.0 L 86.9 32.0 L 81.9 36.0 L 81.9 84.0 L 69.9 90.0 L 69.9 80.0 L 59.0 80.0 L 59.0 117.0 L 71.8777777671814 117.0 L 78.1 110.0 L 86.1 117.0 L 86.1 121.0 L 59.0 121.0 L 59.0 157.325 L 65.6 155.4 L 72.8 153.2 L 80.1 151.1 L 87.4 149.1 L 88.2 150.8 L 81.5 154.7 L 74.8 158.2 L 67.9 161.5 L 61.0 164.7 L 53.9 167.6 L 46.9 170.5 L 39.7 173.2 L 32.6 175.7 L 25.3 178.2 L 22.017098426818848 179.248704624176 L 20.8 182.9 L 18.1 180.5 L 13.0 169.4 Z M 111.3 107.0 L 111.3 166.551428604126 L 116.7 164.7 L 123.7 162.2 L 130.8 159.7 L 138.0 157.1 L 145.3 154.6 L 146.55738258361816 154.18087244033813 L 142.2 146.8 L 137.8 137.8 L 133.8 128.0 L 130.4 117.5 L 127.79823007583619 107.0 Z M 33.5 32.0 L 33.5 76.0 L 69.9 76.0 L 69.9 32.0 Z " />
</g>
</svg>
