<svg xmlns="http://www.w3.org/2000/svg" xmlns:xlink="http://www.w3.org/1999/xlink" version="1.1" baseProfile="full" viewBox="0 0 200 200" width="200" height="200">
<g fill="black">
<path d="M 128.4 167.2 L 128.8 170.8 L 125.14501991271973 169.47091636657714 L 124.1 170.2 L 119.6 173.0 L 114.8 175.6 L 109.9 178.1 L 104.6 180.4 L 99.2 182.5 L 93.5 184.5 L 87.6 186.2 L 81.4 187.7 L 75.0 188.8 L 74.4 187.1 L 80.2 184.1 L 85.7 181.2 L 91.0 178.4 L 96.0 175.6 L 100.8 172.8 L 105.3 170.0 L 109.6 167.0 L 113.6 164.1 L 117.4 161.0 L 120.10445995330811 158.60462112426757 L 120.1 158.6 L 121.0 157.8 Z M 169.0 182.1 L 166.5 179.7 L 163.6 177.3 L 160.4 174.8 L 156.7 172.2 L 152.7 169.6 L 148.3 166.9 L 143.6 164.0 L 138.5 161.1 L 139.1 159.5 L 144.9 160.9 L 150.3 162.3 L 155.4 164.0 L 160.1 165.8 L 164.5 167.7 L 168.6 169.7 L 172.3 171.8 L 175.8 174.0 L 178.9 176.3 L 181.7 178.7 L 183.2 183.1 L 181.2 187.2 L 176.9 188.6 L 172.8 186.7 L 171.1 184.5 Z M 40.5 176.0 L 56.6 176.0 L 57.8 175.9 L 58.7 175.7 L 59.6 175.4 L 60.0 175.0 L 60.3 174.1 L 60.5 173.2 L 60.6 172.0 L 60.6 139.98985509872438 L 60.2 140.5 L 53.1 148.9 L 45.8 156.8 L 38.2 164.3 L 30.4 171.3 L 22.3 177.8 L 13.9 183.6 L 12.8 182.3 L 19.8 174.9 L 26.7 167.5 L 33.4 159.8 L 40.1 151.8 L 46.5 143.5 L 52.8 134.9 L 55.73239860534668 130.57351026535034 L 54.0 131.3 L 48.1 133.6 L 42.5 135.8 L 37.3 137.7 L 32.5 139.5 L 28.0 141.2 L 24.0 142.7 L 20.943478298187255 143.85652170181274 L 19.7 147.7 L 16.9 145.4 L 11.7 134.5 L 13.6 133.9 L 17.1 133.2 L 21.0 132.4 L 24.5 131.66744184494019 L 24.5 37.0 L 36.5 43.0 L 37.05 43.0 L 38.0 41.1 L 39.3 37.6 L 40.6 34.4 L 41.8 31.2 L 44.0 25.4 L 45.0 22.7 L 45.9 20.1 L 46.7 17.6 L 47.11317071914673 16.242438983917236 L 47.0 16.2 L 47.9 14.1 L 58.2 20.4 L 60.1 23.5 L 55.76171245574951 23.948788356781005 L 55.1 24.9 L 53.4 27.2 L 51.5 29.6 L 49.6 32.1 L 47.5 34.6 L 45.2 37.2 L 42.9 39.9 L 40.3 42.5 L 39.88620691299438 43.0 L 60.6 43.0 L 66.6 38.0 L 77.6 47.0 L 72.6 51.0 L 72.6 103.08181819915771 L 75.54780874252319 97.7221658706665 L 75.5 97.7 L 76.6 95.9 L 86.5 102.8 L 88.1 106.0 L 84.44429140090942 106.06302947998047 L 80.2 112.8 L 73.8 122.4 L 72.6 124.06567163467408 L 72.6 172.0 L 72.4 174.5 L 72.0 177.0 L 71.2 179.4 L 69.9 181.7 L 68.3 183.7 L 66.3 185.3 L 64.0 186.6 L 61.6 187.4 L 59.1 187.8 L 56.6 188.0 L 56.6 182.0 L 40.5 179.0 Z M 108.7 92.0 L 158.8 92.0 L 164.8 87.0 L 175.8 96.0 L 170.8 100.0 L 170.8 152.0 L 158.8 158.0 L 158.8 152.0 L 108.7 152.0 L 108.7 155.0 L 96.7 161.0 L 96.7 86.0 Z M 108.7 133.0 L 108.7 148.0 L 158.8 148.0 L 158.8 133.0 Z M 36.5 102.0 L 36.5 129.2944444656372 L 40.4 128.5 L 46.3 127.3 L 52.5 126.2 L 59.2 125.1 L 59.42788953781128 125.06790285110473 L 60.6 123.220339012146 L 60.6 102.0 Z M 108.7 114.0 L 108.7 129.0 L 158.8 129.0 L 158.8 114.0 Z M 108.7 96.0 L 108.7 110.0 L 158.8 110.0 L 158.8 96.0 Z M 36.5 73.0 L 36.5 98.0 L 60.6 98.0 L 60.6 73.0 Z M 82.0 76.0 L 127.7 76.0 L 127.7 60.0 L 107.6 60.0 L 107.6 63.0 L 95.6 69.0 L 95.6 26.0 L 107.6 32.0 L 127.7 32.0 L 127.7 14.0 L 139.7 16.0 L 142.7 18.0 L 139.7 19.8 L 139.7 32.0 L 159.8 32.0 L 165.8 27.0 L 176.8 36.0 L 171.8 40.0 L 171.8 62.0 L 159.8 68.0 L 159.8 60.0 L 139.7 60.0 L 139.7 76.0 L 169.3181818008423 76.0 L 177.5 67.0 L 187.5 76.0 L 187.5 80.0 L 82.0 80.0 Z M 36.5 47.0 L 36.5 69.0 L 60.6 69.0 L 60.6 47.0 Z M 107.6 36.0 L 107.6 56.0 L 127.7 56.0 L 127.7 36.0 Z M 139.7 36.0 L 139.7 56.0 L 159.8 56.0 L 159.8 36.0 Z " />
</g>
</svg>
