<svg xmlns="http://www.w3.org/2000/svg" xmlns:xlink="http://www.w3.org/1999/xlink" version="1.1" baseProfile="full" viewBox="0 0 200 200" width="200" height="200">
<g fill="black">
<path d="M 60.0 15.0 L 63.0 17.0 L 60.0 18.8 L 60.0 40.0 L 71.6 40.0 L 81.6 30.0 L 93.6 40.0 L 93.6 44.0 L 60.0 44.0 L 60.0 63.0 L 74.1 63.0 L 80.1 58.0 L 91.1 67.0 L 86.1 71.0 L 86.1 127.0 L 74.1 133.0 L 74.1 123.0 L 60.0 123.0 L 60.0 146.0 L 73.4 146.0 L 83.4 136.0 L 95.4 146.0 L 95.4 150.0 L 60.0 150.0 L 60.0 183.0 L 48.0 189.0 L 48.0 150.0 L 12.6 150.0 L 12.6 146.0 L 48.0 146.0 L 48.0 123.0 L 33.9 123.0 L 33.9 130.0 L 21.9 136.0 L 21.9 57.0 L 33.9 63.0 L 48.0 63.0 L 48.0 44.0 L 14.4 44.0 L 14.4 40.0 L 48.0 40.0 L 48.0 13.0 Z M 116.6 28.0 L 162.7 28.0 L 172.7 18.0 L 184.7 28.0 L 184.7 32.0 L 116.6 32.0 L 116.6 71.0 L 164.5 71.0 L 170.5 66.0 L 181.5 75.0 L 176.5 78.0 L 175.4786259651184 78.42557249069213 L 173.0 90.6 L 168.5 106.3 L 163.2 120.8 L 156.8 134.1 L 151.9684747695923 142.10841846466064 L 154.3 145.8 L 160.9 154.4 L 168.1 162.0 L 175.9 168.7 L 184.3 174.4 L 188.1 176.9 L 177.0 185.5 L 167.9 178.3 L 159.6 170.2 L 152.2 161.2 L 145.7 151.3 L 145.66563539505006 151.23549089431762 L 141.2 157.1 L 132.0 166.8 L 121.9 175.2 L 110.8 182.2 L 98.8 187.8 L 98.1 186.1 L 108.7 179.0 L 118.5 171.0 L 127.3 162.2 L 135.3 152.4 L 141.3552653312683 143.1440944671631 L 140.0 140.6 L 135.2 129.0 L 131.2 116.5 L 128.2 103.2 L 126.1 89.0 L 125.16666669845581 75.0 L 116.6 75.0 L 116.6 83.0 L 116.0 97.2 L 114.8 110.5 L 113.0 123.1 L 110.6 134.8 L 107.6 145.6 L 104.0 155.5 L 99.7 164.6 L 94.8 172.6 L 89.1 179.7 L 82.9 185.6 L 81.6 184.3 L 86.1 177.4 L 90.1 169.9 L 93.7 161.8 L 96.8 152.9 L 99.4 143.3 L 101.5 132.9 L 103.1 121.7 L 104.1 109.6 L 104.7 96.7 L 104.6 83.0 L 104.6 22.0 Z M 127.17310342788696 75.0 L 130.2 88.3 L 133.9 101.8 L 138.1 114.3 L 142.9 125.8 L 146.7355845451355 133.2580810546875 L 148.5 129.9 L 153.8 117.1 L 158.3 103.2 L 161.9 88.1 L 164.09689445495604 75.0 Z M 33.9 94.0 L 33.9 119.0 L 48.0 119.0 L 48.0 94.0 Z M 60.0 94.0 L 60.0 119.0 L 74.1 119.0 L 74.1 94.0 Z M 33.9 67.0 L 33.9 90.0 L 48.0 90.0 L 48.0 67.0 Z M 60.0 67.0 L 60.0 90.0 L 74.1 90.0 L 74.1 67.0 Z " />
</g>
</svg>
