<svg xmlns="http://www.w3.org/2000/svg" xmlns:xlink="http://www.w3.org/1999/xlink" version="1.1" baseProfile="full" viewBox="0 0 200 200" width="200" height="200">
<g fill="black">
<path d="M 128.3 183.7 L 109.1 182.6 L 93.4 180.8 L 80.7 178.1 L 70.6 174.6 L 62.7 170.3 L 56.6 165.3 L 52.1 159.6 L 50.16981134414673 155.91509437561035 L 48.63999996185303 156.68000001907347 L 44.3 161.3 L 41.1 164.5 L 38.0 167.5 L 34.8 170.4 L 31.6 173.2 L 28.4 175.9 L 25.3 178.5 L 22.45704574584961 180.7927050590515 L 22.4 184.9 L 19.0 183.4 L 10.9 174.5 L 12.5 173.4 L 15.9 171.6 L 22.9 167.8 L 26.4 165.8 L 30.0 163.8 L 33.7 161.7 L 37.5 159.6 L 40.0 158.25384616851807 L 40.0 109.0 L 14.0 109.0 L 14.0 105.0 L 40.0 105.0 L 46.0 100.0 L 57.0 109.0 L 52.0 113.0 L 52.0 153.86400003433226 L 55.3 156.9 L 60.4 160.8 L 66.3 164.1 L 73.5 166.8 L 82.8 169.0 L 94.7 170.6 L 109.8 171.6 L 128.5 171.9 L 151.3 171.5 L 178.7 170.4 L 190.1 169.9 L 179.2 183.5 L 151.5 184.0 Z M 80.0 110.5 L 108.8 110.5 L 114.8 105.5 L 125.8 114.5 L 120.8 118.5 L 120.8 153.5 L 108.8 159.5 L 108.8 153.5 L 80.0 153.5 L 80.0 156.5 L 68.0 162.5 L 68.0 104.5 Z M 162.2 149.2 L 156.1 141.7 L 150.9196678161621 133.58740434646606 L 147.9 138.4 L 140.5 147.3 L 132.4 154.9 L 123.4 161.0 L 113.7 165.6 L 112.9 163.9 L 121.3 157.8 L 128.8 150.9 L 135.5 143.1 L 141.5 134.2 L 146.4915283203125 124.9703815460205 L 146.2 124.4 L 142.4 114.6 L 139.4 104.1 L 137.1 92.8 L 135.7 80.8 L 135.5003144264221 75.72798738479614 L 133.9 78.7 L 130.0 84.8 L 126.48181819915771 89.38181819915772 L 128.0 90.9 L 128.0 94.9 L 61.2 94.9 L 61.2 90.9 L 75.62558135986328 90.9 L 80.98139533996581 58.0 L 68.2 58.0 L 68.2 54.0 L 81.63255815505981 54.0 L 85.47441864013672 30.4 L 64.3 30.4 L 64.3 26.4 L 102.9 26.4 L 112.9 16.4 L 124.9 26.4 L 124.9 30.4 L 97.67441864013672 30.4 L 93.83255815505981 54.0 L 104.1 54.0 L 110.1 49.0 L 121.1 58.0 L 116.1 62.0 L 116.1 90.9 L 117.5 90.9 L 122.0 84.9 L 124.84719104766846 87.74719104766845 L 126.6 83.0 L 129.0 76.4 L 131.3 69.7 L 133.5 62.8 L 135.6 55.7 L 137.5 48.4 L 139.2 40.8 L 140.8 33.1 L 142.2 25.1 L 143.25476188659667 17.804563522338867 L 143.2 17.8 L 143.7 14.9 L 155.2 18.8 L 157.8 21.3 L 154.34044380187987 22.645382976531984 L 153.3 27.3 L 151.3 35.5 L 148.9 43.4 L 146.4 51.0 L 144.31891889572142 56.5 L 166.8181818008423 56.5 L 175.0 47.5 L 185.0 56.5 L 185.0 60.5 L 173.5962963104248 60.5 L 171.6 75.2 L 168.6 90.3 L 164.7 104.1 L 159.9 116.8 L 156.61853656768798 123.48012199401856 L 159.4 128.0 L 164.8 134.9 L 170.6 141.0 L 176.9 146.2 L 183.6 150.7 L 187.6 153.2 L 176.5 161.8 L 169.0 155.9 Z M 80.0 114.5 L 80.0 149.5 L 108.8 149.5 L 108.8 114.5 Z M 142.7126760482788 60.5 L 140.6 65.5 L 137.79640140533448 71.3700345993042 L 139.8 80.1 L 142.9 91.5 L 146.3 102.0 L 150.2 111.5 L 151.23780698776244 113.55202741622925 L 151.3 113.4 L 155.0 101.3 L 158.1 88.0 L 160.3 73.6 L 161.64358978271486 60.5 Z M 93.18139533996582 58.0 L 87.82558135986328 90.9 L 104.1 90.9 L 104.1 58.0 Z M 34.7 77.0 L 32.7 74.5 L 28.3 69.5 L 26.0 67.2 L 23.5 64.8 L 21.0 62.5 L 18.4 60.2 L 15.5 58.2 L 16.2 56.6 L 19.7 57.7 L 23.2 58.7 L 26.6 60.1 L 29.9 61.6 L 33.1 63.4 L 36.2 65.3 L 39.2 67.5 L 42.2 69.8 L 45.0 72.2 L 47.7 74.8 L 49.0 79.2 L 46.8 83.3 L 42.4 84.5 L 38.4 82.4 L 36.6 79.7 Z M 43.3 41.6 L 41.6 39.1 L 39.7 36.6 L 37.7 34.1 L 35.6 31.7 L 33.3 29.3 L 30.8 26.9 L 28.3 24.4 L 25.4 22.2 L 26.3 20.6 L 29.7 22.0 L 33.2 23.2 L 36.5 24.7 L 39.7 26.4 L 42.8 28.3 L 45.7 30.3 L 48.5 32.5 L 51.2 34.9 L 53.8 37.4 L 56.2 40.1 L 57.1 44.6 L 54.6 48.4 L 50.2 49.3 L 46.3 46.9 L 44.9 44.2 Z " />
</g>
</svg>
