<svg xmlns="http://www.w3.org/2000/svg" xmlns:xlink="http://www.w3.org/1999/xlink" version="1.1" baseProfile="full" viewBox="0 0 200 200" width="200" height="200">
<g fill="black">
<path d="M 179.6 153.4 L 178.1 155.4 L 176.4 157.1 L 174.4 158.6 L 172.3 159.9 L 170.0 160.8 L 167.6 161.4 L 165.2 161.8 L 162.6 162.0 L 162.6 156.0 L 150.6 153.0 L 150.6 150.0 L 162.6 150.0 L 164.0 149.9 L 165.1 149.7 L 166.1 149.4 L 167.0 149.1 L 167.7 148.7 L 169.1 147.5 L 169.7 146.7 L 170.3 145.6 L 170.9 144.4 L 172.3 140.6 L 173.5 135.6 L 174.1 129.9 L 173.9 123.6 L 172.9 117.0 L 170.8 110.3 L 167.4 103.6 L 162.6 97.0 L 156.1 90.8 L 148.02061939239502 84.37543230056762 L 148.0 84.4 L 146.5 83.5 L 149.5 76.8 L 152.4 70.4 L 155.3 64.3 L 158.1 58.3 L 160.6 52.5 L 163.0 46.9 L 165.3 41.4 L 167.3 36.0 L 169.1 30.9 L 169.4 30.0 L 133.5 30.0 L 133.5 183.0 L 121.5 189.0 L 121.5 20.0 L 133.5 26.0 L 170.4 26.0 L 176.4 21.0 L 187.4 30.0 L 182.4 33.0 L 180.29698190689086 33.876257514953615 L 179.7 35.2 L 177.1 40.3 L 174.4 45.6 L 171.4 51.0 L 168.2 56.4 L 164.7 61.9 L 161.0 67.5 L 157.0 73.2 L 152.7 78.8 L 149.3414659500122 82.80165758132935 L 159.1 86.3 L 167.4 92.2 L 173.9 99.1 L 178.7 106.6 L 182.0 114.4 L 183.9 122.3 L 184.7 129.9 L 184.5 137.0 L 183.5 143.4 L 182.0 149.0 L 180.9 151.3 Z M 31.2 35.6 L 60.3 35.6 L 60.3 12.8 L 72.3 14.8 L 75.3 16.8 L 72.3 18.6 L 72.3 35.6 L 91.8 35.6 L 101.8 25.6 L 113.8 35.6 L 113.8 39.6 L 31.2 39.6 L 31.2 101.9 L 30.7 113.4 L 30.0 124.3 L 28.9 134.6 L 27.6 144.3 L 25.9 153.3 L 23.8 161.7 L 21.5 169.5 L 18.7 176.5 L 15.5 182.9 L 11.9 188.4 L 10.4 187.7 L 12.3 181.5 L 14.1 174.9 L 15.7 167.9 L 17.1 160.2 L 18.2 152.0 L 19.1 143.2 L 19.8 133.8 L 20.2 123.8 L 20.3 113.2 L 20.2 101.9 L 20.2 30.1 Z M 94.3 178.2 L 94.3 182.2 L 36.2 182.2 L 36.2 178.2 L 72.3 178.2 L 82.3 168.2 Z M 92.1 164.9 L 86.1 156.6 L 81.2 147.0 L 77.3 136.2 L 74.2 124.1 L 71.9 110.7 L 71.85646257400512 110.3 L 50.5 110.3 L 50.5 152.03488368988036 L 51.6 151.6 L 56.2 149.8 L 60.8 147.9 L 65.7 145.9 L 70.8 143.9 L 76.1 141.8 L 77.1 143.4 L 72.6 147.0 L 68.3 150.4 L 63.9 153.6 L 59.6 156.4 L 55.4 159.1 L 51.3 161.6 L 47.3 163.9 L 43.4 166.1 L 39.58917922973633 168.0542670249939 L 38.7 172.0 L 35.8 169.9 L 29.6 159.4 L 31.5 158.7 L 35.2 157.6 L 39.1 156.3 L 39.5 156.16000003814696 L 39.5 64.0 L 49.28709678649902 68.89354839324952 L 50.0 68.6 L 55.1 66.7 L 60.1 64.7 L 65.1 62.8 L 69.9 60.7 L 74.7 58.5 L 79.4 56.3 L 84.1 53.9 L 88.6 51.4 L 92.21857147216797 49.22885713577271 L 92.2 49.2 L 92.22552595138549 49.224684429168704 L 93.1 48.7 L 94.58011865615845 51.50165328979492 L 101.3 58.0 L 101.4 61.3 L 97.69152545928955 59.754802227020264 L 93.6 61.6 L 88.5 63.7 L 83.3 65.5 L 81.16364345550537 66.18524646759033 L 81.4 79.5 L 82.3 95.0 L 83.51071424484253 106.3 L 91.6 106.3 L 101.6 96.3 L 113.6 106.3 L 113.6 110.3 L 84.01666669845581 110.3 L 85.9 121.6 L 88.7 132.7 L 92.2 142.3 L 96.4 150.4 L 101.2 157.1 L 105.42690992355347 161.25005702972413 L 110.1 141.0 L 112.1 141.0 L 110.26341466903686 164.87560977935792 L 113.0 166.7 L 115.8 170.3 L 115.4 174.9 L 111.8 177.7 L 107.3 177.3 L 99.1 171.8 Z M 67.3 70.0 L 61.9 71.1 L 56.4 71.9 L 50.8 72.3 L 50.5 72.30535717010498 L 50.5 106.3 L 71.42108840942383 106.3 L 70.3 96.0 L 69.4 79.9 L 69.22030696868896 69.53770389556885 Z " />
</g>
</svg>
