<svg xmlns="http://www.w3.org/2000/svg" xmlns:xlink="http://www.w3.org/1999/xlink" version="1.1" baseProfile="full" viewBox="0 0 200 200" width="200" height="200">
<g fill="black">
<path d="M 106.0 176.0 L 126.0 176.0 L 127.2 175.9 L 128.1 175.7 L 129.0 175.4 L 129.4 175.0 L 129.7 174.1 L 129.9 173.2 L 130.0 172.0 L 130.0 123.0 L 142.0 125.0 L 145.0 127.0 L 142.0 128.8 L 142.0 148.43043479919433 L 142.7 147.7 L 144.8 145.5 L 146.9 143.4 L 148.8 141.3 L 150.6 139.4 L 152.4 137.4 L 154.0 135.6 L 155.5 133.8 L 156.27039546966552 132.8645197868347 L 156.1 132.7 L 157.0 131.9 L 164.8 141.1 L 165.2 144.7 L 161.0020833015442 143.32613639831544 L 160.5 143.6 L 158.2 144.9 L 155.7 146.1 L 153.2 147.4 L 150.6 148.6 L 147.8 149.9 L 144.9 151.1 L 142.0 152.1290322303772 L 142.0 172.0 L 141.8 174.5 L 141.4 177.0 L 140.6 179.4 L 139.3 181.7 L 137.7 183.7 L 135.7 185.3 L 133.4 186.6 L 131.0 187.4 L 128.5 187.8 L 126.0 188.0 L 126.0 182.0 L 106.0 179.0 Z M 84.3 29.0 L 84.3 33.0 L 59.4 33.0 L 59.4 61.0 L 69.0 61.0 L 74.5 56.0 L 85.0 65.0 L 80.0 68.5 L 80.0 174.0 L 69.0 179.5 L 69.0 168.0 L 27.5 168.0 L 27.5 180.0 L 15.5 186.0 L 15.5 55.0 L 27.5 61.0 L 34.4 61.0 L 34.4 33.0 L 11.7 33.0 L 11.7 29.0 L 62.3 29.0 L 72.3 19.0 Z M 87.3 170.0 L 91.2 168.9 L 95.2 167.9 L 99.1 166.7 L 103.1 165.6 L 107.1 164.4 L 111.2 163.1 L 115.4 161.9 L 119.6 160.6 L 123.9 159.4 L 128.2 158.1 L 129.0 159.8 L 125.3 162.4 L 121.7 165.0 L 117.9 167.4 L 114.1 169.7 L 110.3 171.9 L 102.7 175.9 L 98.9 177.8 L 95.2171233177185 179.54452056884764 L 94.2 183.5 L 91.3 181.3 L 85.5 170.6 Z M 166.5 175.9 L 164.4 173.6 L 162.1 171.4 L 159.7 169.3 L 157.0 167.3 L 154.2 165.4 L 151.2 163.5 L 148.1 161.6 L 144.6 160.1 L 145.1 158.3 L 148.9 158.9 L 152.8 159.4 L 156.5 160.2 L 160.1 161.3 L 163.6 162.6 L 167.0 164.2 L 170.2 166.0 L 173.4 168.0 L 176.4 170.2 L 179.3 172.7 L 180.8 177.0 L 178.8 181.2 L 174.5 182.6 L 170.3 180.7 L 168.5 178.2 Z M 27.5 143.0 L 27.5 164.0 L 69.0 164.0 L 69.0 143.0 Z M 172.8 147.9 L 170.3 144.7 L 167.9 141.3 L 165.5 137.8 L 163.1 134.1 L 160.8 130.2 L 158.7 126.1 L 156.6 121.8 L 154.99555559158324 118.0 L 112.928125 118.0 L 120.1 122.5 L 121.9 125.7 L 118.08510780334473 125.96309604644776 L 116.9 128.0 L 113.5 133.2 L 111.09985313415527 136.42305431365966 L 112.9 136.7 L 115.3 137.3 L 117.6 138.1 L 119.7 139.1 L 121.8 140.2 L 123.7 141.6 L 125.5 143.1 L 127.2 144.9 L 128.6 146.8 L 128.7 151.3 L 125.6 154.7 L 121.0 154.8 L 117.7 151.6 L 117.5 150.3 L 117.2 149.0 L 116.7 147.6 L 116.0 146.1 L 115.1 144.6 L 114.0 143.1 L 112.7 141.5 L 111.2 139.9 L 109.5592204093933 138.44152927398682 L 106.5 142.2 L 102.8 146.2 L 99.0 149.7 L 95.1 152.8 L 91.1 155.3 L 86.9 157.4 L 82.7 158.7 L 81.8 157.2 L 84.8 154.2 L 87.8 151.1 L 90.7 147.9 L 93.5 144.4 L 96.3 140.7 L 99.0 136.6 L 101.7 132.3 L 104.3 127.6 L 106.9 122.5 L 108.98333330154419 118.0 L 89.0 118.0 L 89.0 114.0 L 115.3 114.0 L 115.3 97.0 L 91.4 97.0 L 91.4 93.0 L 115.3 93.0 L 115.3 75.0 L 127.3 77.0 L 130.3 79.0 L 127.3 80.8 L 127.3 93.0 L 142.8 93.0 L 142.8 74.0 L 154.8 76.0 L 157.8 78.0 L 154.8 79.8 L 154.8 93.0 L 162.9181818008423 93.0 L 171.1 84.0 L 181.1 93.0 L 181.1 97.0 L 154.8 97.0 L 154.8 114.0 L 164.0 114.0 L 174.0 104.0 L 186.0 114.0 L 186.0 118.0 L 157.9 118.0 L 159.6 119.7 L 163.0 123.0 L 166.2 126.1 L 169.3 129.2 L 175.3 134.8 L 178.2 137.3 L 181.1 139.7 L 183.9 142.0 L 186.7 144.0 L 188.7 145.8 L 177.9 153.9 L 175.3 151.0 Z M 68.8 113.1 L 68.83764705657958 113.19176473617554 L 69.0 113.3 L 69.0 65.0 L 59.4 65.0 L 59.4 107.0 L 59.6 108.3 L 59.9 109.4 L 60.2 110.2 L 60.6 110.6 L 60.9641791343689 110.87313432693482 L 66.3 90.5 L 68.3 90.5 L 66.3 111.5 L 68.53999996185303 112.99333333969116 Z M 27.5 65.0 L 27.5 126.30625 L 28.2 124.6 L 29.6 120.3 L 30.8 115.4 L 32.0 109.9 L 32.9 103.8 L 33.6 97.0 L 34.2 89.5 L 34.5 81.3 L 34.6 72.5 L 34.442105293273926 65.0 Z M 127.3 97.0 L 127.3 114.0 L 142.8 114.0 L 142.8 97.0 Z M 107.2 24.0 L 162.9 24.0 L 168.9 19.0 L 179.9 28.0 L 174.9 32.0 L 174.9 75.0 L 162.9 81.0 L 162.9 71.0 L 107.2 71.0 L 107.2 78.0 L 95.2 84.0 L 95.2 18.0 Z M 107.2 49.0 L 107.2 67.0 L 162.9 67.0 L 162.9 49.0 Z M 44.4 33.0 L 44.4 61.0 L 50.4 61.0 L 50.4 33.0 Z M 107.2 28.0 L 107.2 45.0 L 162.9 45.0 L 162.9 28.0 Z M 62.4 122.2 L 60.0 121.7 L 57.8 120.8 L 55.7 119.6 L 53.9 118.0 L 52.4 116.1 L 51.4 113.9 L 50.8 111.7 L 50.5 109.4 L 50.4 107.0 L 50.4 65.0 L 44.338144302368164 65.0 L 44.1 72.7 L 43.4 81.8 L 42.5 90.3 L 41.3 98.0 L 39.9 105.1 L 38.1 111.5 L 36.1 117.1 L 33.7 122.1 L 30.9 126.2 L 27.8 129.4 L 27.5 129.175 L 27.5 139.0 L 69.0 139.0 L 69.0 120.7 L 66.3 122.5 L 64.9 122.5 Z " />
</g>
</svg>
