<svg xmlns="http://www.w3.org/2000/svg" xmlns:xlink="http://www.w3.org/1999/xlink" version="1.1" baseProfile="full" viewBox="0 0 200 200" width="200" height="200">
<g fill="black">
<path d="M 17.0 122.1 L 17.0 118.1 L 164.8181818008423 118.1 L 173.0 109.1 L 183.0 118.1 L 183.0 122.1 L 116.0 122.1 L 116.0 132.6 L 154.0 132.6 L 160.0 127.6 L 171.0 136.6 L 166.0 140.6 L 166.0 182.1 L 154.0 188.1 L 154.0 180.1 L 46.0 180.1 L 46.0 183.1 L 34.0 189.1 L 34.0 126.6 L 46.0 132.6 L 74.03000001907348 132.6 L 74.0 132.3 L 74.37480316162109 132.26220474243163 L 74.0 131.7 L 74.0 122.1 Z M 46.0 167.1 L 46.0 176.1 L 154.0 176.1 L 154.0 167.1 Z M 117.6 155.6 L 115.4 155.5 L 113.2 155.0 L 111.1 154.1 L 109.1 152.9 L 107.4 151.2 L 106.0 149.2 L 105.0 146.9 L 104.3 144.5 L 104.0 142.0 L 104.0 136.6 L 85.49166669845582 136.6 L 84.3 141.0 L 82.1 145.3 L 79.0 148.9 L 75.2 151.9 L 70.8 154.3 L 65.8 156.1 L 60.2 157.5 L 53.9 158.2 L 47.1 158.7 L 46.8 156.9 L 53.2 155.0 L 58.8 152.8 L 63.5 150.5 L 67.3 148.1 L 70.2 145.6 L 72.2 143.0 L 73.5 140.5 L 74.2 137.9 L 74.25 136.6 L 46.0 136.6 L 46.0 163.1 L 154.0 163.1 L 154.0 136.6 L 116.0 136.6 L 116.0 142.0 L 115.8 143.3 L 115.7 144.3 L 115.7 145.6 L 115.8 146.1 L 116.0 146.7 L 116.5 147.2 L 117.3 147.7 L 118.5 148.2 L 120.0 148.5 L 140.5 148.5 L 144.0 143.5 L 146.0 143.5 L 144.0 148.5 L 146.1 149.9 L 147.5 152.0 L 146.1 154.1 L 144.0 155.5 L 120.0 155.5 Z M 85.81176471710205 132.6 L 104.0 132.6 L 104.0 122.1 L 86.0 122.1 L 86.0 131.7 L 85.85161294937134 131.92258062362671 Z M 166.20465116500856 59.54418601989746 L 173.6 66.2 L 173.6 70.2 L 152.4 70.2 L 152.4 87.5 L 162.8 87.5 L 172.8 77.5 L 184.8 87.5 L 184.8 91.5 L 152.4 91.5 L 152.4 108.3 L 140.4 114.3 L 140.4 91.5 L 112.82470588684082 91.5 L 112.2 93.3 L 98.9 95.1 L 107.4 70.5 L 118.1 76.3 L 120.3 79.2 L 116.82556657791137 79.97209634780884 L 114.21294116973877 87.5 L 140.4 87.5 L 140.4 70.2 L 107.2 70.2 L 107.2 66.2 L 140.4 66.2 L 140.4 54.6 L 152.4 56.6 L 155.4 58.6 L 152.4 60.4 L 152.4 66.2 L 155.4181818008423 66.2 L 162.44536085128783 58.470103073120114 L 161.5 58.2 L 154.2 55.7 L 147.4 52.8 L 141.2 49.4 L 139.66968688964843 48.4066388130188 L 132.9 51.7 L 125.2 54.8 L 117.2 57.5 L 108.9 59.7 L 100.2 61.2 L 91.3 62.2 L 91.0 60.4 L 99.3 57.5 L 107.3 54.5 L 114.9 51.3 L 122.1 47.9 L 129.0 44.1 L 131.56486482620238 42.52162160873413 L 130.3 41.5 L 125.8 36.9 L 122.0 31.9 L 121.29627122879029 30.609830474853517 L 119.7 32.3 L 116.1 35.7 L 112.1 38.9 L 107.9 42.0 L 103.4 44.9 L 98.5 47.6 L 93.2 50.0 L 92.9 49.5 L 23.6 49.5 L 35.2 55.3 L 70.8 55.3 L 76.8 50.3 L 87.8 59.3 L 82.8 63.3 L 82.8 81.7 L 70.8 87.7 L 70.8 81.7 L 59.8 81.7 L 59.8 92.7 L 77.31818180084228 92.7 L 85.5 83.7 L 95.5 92.7 L 95.5 96.7 L 59.8 96.7 L 59.8 108.9 L 47.8 114.9 L 47.8 96.7 L 12.2 96.7 L 12.2 92.7 L 47.8 92.7 L 47.8 81.7 L 35.2 81.7 L 23.2 87.7 L 23.2 49.5 L 13.0 49.5 L 13.0 45.5 L 37.21428575515747 45.5 L 36.1 44.2 L 36.1 41.6 L 36.0 40.2 L 35.6 37.6 L 35.3 36.2 L 34.9 34.9 L 34.4 33.4 L 33.9 32.0 L 32.8 31.0 L 33.9 29.6 L 35.2 30.5 L 36.8 31.0 L 38.4 31.7 L 39.9 32.6 L 41.3 33.6 L 42.7 34.7 L 44.0 36.0 L 45.3 37.4 L 46.4 38.9 L 47.5 40.5 L 47.1 45.0 L 46.55161294937134 45.5 L 59.85714282989502 45.5 L 60.2 44.9 L 61.6 40.5 L 62.3 38.4 L 63.7 34.4 L 64.3 32.5 L 64.9 30.7 L 65.5 29.0 L 65.55882349014283 28.8 L 18.1 28.8 L 18.1 24.8 L 47.8 24.8 L 47.8 12.0 L 59.8 14.0 L 62.8 16.0 L 59.8 17.8 L 59.8 24.8 L 67.5 24.8 L 77.5 14.8 L 89.5 24.8 L 89.5 28.8 L 69.66666669845581 28.8 L 76.2 33.7 L 77.6 37.0 L 72.78803644180297 36.91703510284424 L 72.0 37.6 L 69.0 40.4 L 67.4 41.8 L 65.7 43.3 L 63.9 44.7 L 62.88666667938232 45.5 L 79.5777777671814 45.5 L 85.8 38.5 L 93.8 45.5 L 93.8 47.0375 L 96.3 44.6 L 100.2 40.8 L 103.7 37.1 L 107.0 33.5 L 110.0 29.9 L 112.7 26.3 L 115.1 22.7 L 117.2 19.1 L 119.0 15.5 L 120.12155227661133 12.8082745552063 L 120.1 12.8 L 120.4375 12.05 L 120.5 11.9 L 120.50410957336426 11.901978683471679 L 121.0 10.8 L 131.3 17.1 L 133.2 20.2 L 129.2349090576172 20.541818141937256 L 128.9 21.1 L 127.46410255432129 23.1 L 155.98301887512207 23.1 L 158.1 20.9 L 158.53003225326538 21.324973106384277 L 162.4 18.1 L 173.4 27.1 L 168.4 30.1 L 163.29212827682494 32.22827987670898 L 160.5 34.7 L 154.1 39.6 L 149.5147915840149 42.63432903289795 L 151.3 43.3 L 157.7 45.2 L 164.4 46.8 L 171.6 48.1 L 179.3 49.0 L 189.3 50.4 L 177.4 62.1 L 169.2 60.4 Z M 35.2 70.2 L 35.2 77.7 L 70.8 77.7 L 70.8 70.2 Z M 35.2 59.3 L 35.2 66.2 L 70.8 66.2 L 70.8 59.3 Z M 124.39729728698731 27.1 L 123.70802249908448 27.950105571746825 L 125.1 29.1 L 129.8 32.5 L 134.7 35.7 L 138.65994052886964 37.90842838287354 L 141.7 35.8 L 147.5 31.1 L 151.9897958755493 27.1 Z " />
</g>
</svg>
