<svg xmlns="http://www.w3.org/2000/svg" xmlns:xlink="http://www.w3.org/1999/xlink" version="1.1" baseProfile="full" viewBox="0 0 200 200" width="200" height="200">
<g fill="black">
<path d="M 93.3 170.2 L 171.6 170.2 L 171.6 55.7 L 183.6 57.7 L 186.6 59.7 L 183.6 61.5 L 183.6 178.2 L 171.6 184.2 L 171.6 174.2 L 93.3 174.2 L 93.3 181.2 L 81.3 187.2 L 81.3 55.7 L 93.3 57.7 L 96.3 59.7 L 93.3 61.5 L 93.3 138.23333330154418 L 93.8 137.8 L 96.7 135.6 L 99.8 133.1 L 102.9 130.5 L 106.2 127.7 L 109.6 124.7 L 113.1 121.5 L 116.7 118.2 L 120.4 114.7 L 124.4 111.1 L 128.5 107.4 L 129.9 108.5 L 127.2 113.4 L 124.4 118.0 L 121.5 122.4 L 118.6 126.5 L 115.7 130.3 L 112.8 134.0 L 110.0 137.5 L 107.2 140.8 L 104.62906875610352 143.64638814926147 L 105.2 147.7 L 101.7 146.8 L 93.3 139.91914892196655 Z M 66.5 48.9 L 65.2 46.4 L 63.7 43.9 L 62.0 41.4 L 60.0 38.8 L 57.7 36.2 L 55.3 33.5 L 52.6 30.8 L 51.20642204284668 29.631192684173584 L 49.5 34.2 L 46.1 42.2 L 42.5 50.1 L 38.6 57.8 L 34.4 65.2 L 32.025 69.0 L 56.11818180084229 69.0 L 64.3 60.0 L 74.3 69.0 L 74.3 73.0 L 55.1 73.0 L 55.1 101.0 L 60.518181800842285 101.0 L 68.7 92.0 L 78.7 101.0 L 78.7 105.0 L 55.1 105.0 L 55.1 161.55333337783813 L 58.3 160.7 L 64.4 159.1 L 70.6 157.5 L 76.9 156.1 L 77.5 157.8 L 72.0 161.1 L 66.3 164.1 L 60.6 166.9 L 54.8 169.5 L 49.0 171.9 L 37.4 176.5 L 31.5 178.6 L 25.6 180.6 L 23.749358463287354 181.20624465942382 L 22.5 184.9 L 19.8 182.5 L 14.8 171.4 L 16.7 170.9 L 28.5 168.3 L 34.4 166.9 L 40.4 165.4 L 43.1 164.71355934143065 L 43.1 105.0 L 18.8 105.0 L 18.8 101.0 L 43.1 101.0 L 43.1 73.0 L 29.488571453094483 73.0 L 25.1 79.4 L 19.9 86.1 L 14.3 92.5 L 12.8 91.4 L 16.7 84.0 L 20.5 76.6 L 24.2 69.2 L 27.7 61.7 L 30.9 54.1 L 34.0 46.4 L 36.8 38.6 L 39.4 30.6 L 41.7 22.5 L 43.54190177917481 15.307812213897705 L 43.5 15.3 L 44.2 12.7 L 55.3 17.5 L 57.7 20.2 L 54.10168542861938 21.228089904785158 L 52.6 25.9 L 52.022734832763675 27.445580863952635 L 54.1 28.4 L 57.8 30.0 L 61.2 31.8 L 64.5 33.8 L 67.5 35.9 L 70.2 38.2 L 72.8 40.6 L 75.2 43.1 L 77.3 45.9 L 79.2 48.7 L 79.3 53.3 L 76.2 56.7 L 71.7 56.8 L 68.3 53.7 L 67.5 51.3 Z M 27.3 145.3 L 27.1 142.3 L 26.6 139.3 L 26.0 136.4 L 25.2 133.4 L 24.3 130.4 L 23.2 127.3 L 21.9 124.2 L 20.2 121.3 L 21.6 120.1 L 24.1 122.6 L 26.8 125.0 L 29.1 127.6 L 31.2 130.4 L 33.2 133.4 L 34.8 136.6 L 36.3 139.9 L 37.5 143.3 L 38.5 146.8 L 39.3 150.5 L 37.8 154.8 L 33.8 156.9 L 29.5 155.5 L 27.3 151.4 L 27.4 148.3 Z M 76.7 121.7 L 78.9 124.6 L 74.89306926727295 125.51386137008667 L 73.8 127.7 L 70.6 133.7 L 68.9 136.7 L 67.0 139.7 L 65.1 142.6 L 63.1 145.5 L 60.8 148.4 L 58.8 151.4 L 57.2 150.5 L 58.3 147.1 L 59.1 143.7 L 60.0 140.3 L 60.9 137.0 L 61.7 133.7 L 63.3 127.3 L 64.7 121.1 L 65.11470584869384 119.0264705657959 L 65.0 119.0 L 65.8 116.5 Z M 156.4 139.8 L 155.0 136.7 L 153.5 133.6 L 151.9 130.5 L 150.1 127.4 L 148.2 124.2 L 144.0 117.6 L 142.64310579299928 115.73427038192749 L 142.6 119.7 L 142.4 127.6 L 142.1 134.4 L 141.6 140.1 L 141.0 144.6 L 140.0 148.4 L 139.1 150.8 L 137.9 153.0 L 136.5 155.0 L 134.9 156.9 L 133.0 158.5 L 130.8 159.8 L 128.6 160.7 L 126.2 161.4 L 123.7 161.8 L 121.2 162.0 L 121.2 156.0 L 111.2 153.0 L 111.2 150.0 L 121.2 150.0 L 122.5 149.9 L 123.6 149.7 L 124.5 149.4 L 125.3 149.1 L 126.0 148.7 L 126.6 148.2 L 127.1 147.6 L 127.7 146.8 L 128.2 145.8 L 128.7 144.6 L 129.2 142.5 L 129.7 138.8 L 130.1 133.6 L 130.4 127.2 L 130.6 119.5 L 130.7 110.5 L 130.6 100.3 L 130.4 88.8 L 130.1 76.1 L 129.9786729812622 71.88388624191285 L 129.7 72.0 L 129.7 64.0 L 124.73085107803345 64.0 L 124.3 67.6 L 111.6 72.2 L 116.4582938194275 32.0 L 78.9 32.0 L 78.9 28.0 L 164.0 28.0 L 174.0 18.0 L 186.0 28.0 L 186.0 32.0 L 128.56063833236695 32.0 L 125.20957450866699 60.0 L 129.7 60.0 L 135.7 55.0 L 146.7 64.0 L 141.84783821105958 66.91129703521729 L 142.1 75.8 L 142.4 88.6 L 142.6 100.1 L 142.63339653015137 103.57323541641236 L 144.1 101.3 L 145.9 98.0 L 147.6 94.9 L 149.4 91.9 L 151.0 89.0 L 152.7 86.1 L 154.2 83.4 L 155.8 80.6 L 157.2 78.0 L 158.1026315689087 76.25921049118043 L 158.0 76.2 L 159.0 74.6 L 168.4 82.2 L 169.7 85.5 L 165.54885711669922 85.28528575897217 L 161.9 89.1 L 159.5 91.5 L 157.1 93.8 L 154.6 96.2 L 149.2 100.8 L 146.2 103.1 L 143.4 105.5 L 142.64578676223755 104.86181955337524 L 142.7 110.5 L 142.671310710907 113.139413356781 L 142.8 113.0 L 146.1 115.5 L 149.5 117.9 L 152.6 120.4 L 155.5 123.1 L 158.2 125.8 L 160.8 128.7 L 163.2 131.6 L 165.5 134.6 L 167.6 137.6 L 169.5 140.7 L 169.7 145.3 L 166.6 148.7 L 162.0 148.8 L 158.6 145.8 L 157.6 142.8 Z M 109.5 97.9 L 108.6 95.3 L 107.6 92.7 L 106.5 90.1 L 105.3 87.5 L 102.5 82.3 L 101.0 79.7 L 99.1 77.3 L 100.3 75.9 L 102.8 77.8 L 105.5 79.5 L 108.1 81.4 L 110.5 83.5 L 112.8 85.8 L 114.9 88.2 L 116.9 90.7 L 118.8 93.3 L 120.5 96.1 L 122.2 99.0 L 122.0 103.6 L 118.7 106.8 L 114.1 106.6 L 110.9 103.3 L 110.3 100.6 Z " />
</g>
</svg>
