<svg xmlns="http://www.w3.org/2000/svg" xmlns:xlink="http://www.w3.org/1999/xlink" version="1.1" baseProfile="full" viewBox="0 0 200 200" width="200" height="200">
<g fill="black">
<path d="M 35.0 25.0 L 77.0 25.0 L 83.0 20.0 L 94.0 29.0 L 89.0 33.0 L 89.0 80.0 L 77.0 86.0 L 77.0 78.0 L 35.0 78.0 L 35.0 183.0 L 23.0 189.0 L 23.0 19.0 Z M 141.0 176.0 L 161.0 176.0 L 162.2 175.9 L 163.1 175.7 L 164.0 175.4 L 164.4 175.0 L 164.7 174.1 L 164.9 173.2 L 165.0 172.0 L 165.0 78.0 L 123.0 78.0 L 123.0 81.0 L 111.0 87.0 L 111.0 19.0 L 123.0 25.0 L 165.0 25.0 L 171.0 20.0 L 182.0 29.0 L 177.0 33.0 L 177.0 172.0 L 176.8 174.5 L 176.4 177.0 L 175.6 179.4 L 174.3 181.7 L 172.7 183.7 L 170.7 185.3 L 168.4 186.6 L 166.0 187.4 L 163.5 187.8 L 161.0 188.0 L 161.0 182.0 L 141.0 179.0 Z M 148.0 133.7 L 150.0 133.7 L 148.0 158.7 L 151.6 161.1 L 154.0 164.7 L 151.6 168.3 L 148.0 170.7 L 123.2 170.7 L 120.6 170.6 L 118.1 170.1 L 115.7 169.3 L 113.4 168.1 L 111.4 166.5 L 109.8 164.4 L 108.5 162.2 L 107.7 159.8 L 107.3 157.3 L 107.2 154.7 L 107.2 123.1 L 91.5 123.1 L 94.0 123.6 L 97.0 125.6 L 93.59574470520019 127.64255323410035 L 93.2 131.6 L 91.6 139.1 L 89.0 146.0 L 85.6 152.1 L 81.3 157.5 L 76.2 162.1 L 70.3 165.9 L 63.7 168.8 L 56.5 170.8 L 48.5 172.0 L 48.2 170.2 L 55.3 167.2 L 61.5 163.9 L 66.8 160.3 L 71.2 156.4 L 74.8 152.1 L 77.6 147.4 L 79.7 142.2 L 81.2 136.6 L 81.9 130.4 L 82.0 123.6 L 82.0 123.1 L 49.6 123.1 L 49.6 119.1 L 128.4 119.1 L 138.4 109.1 L 150.4 119.1 L 150.4 123.1 L 116.2 123.1 L 119.2 123.6 L 122.2 125.6 L 119.2 127.4 L 119.2 156.0 L 119.4 156.9 L 119.7 157.8 L 119.9 158.0 L 120.1 158.1 L 120.4 158.3 L 121.0 158.5 L 121.9 158.7 L 142.0 158.7 Z M 141.4 94.1 L 141.4 98.1 L 58.6 98.1 L 58.6 94.1 L 123.21818180084229 94.1 L 131.4 85.1 Z M 123.0 53.0 L 123.0 74.0 L 165.0 74.0 L 165.0 53.0 Z M 35.0 53.0 L 35.0 74.0 L 77.0 74.0 L 77.0 53.0 Z M 123.0 29.0 L 123.0 49.0 L 165.0 49.0 L 165.0 29.0 Z M 35.0 29.0 L 35.0 49.0 L 77.0 49.0 L 77.0 29.0 Z " />
</g>
</svg>
