<svg xmlns="http://www.w3.org/2000/svg" xmlns:xlink="http://www.w3.org/1999/xlink" version="1.1" baseProfile="full" viewBox="0 0 200 200" width="200" height="200">
<g fill="black">
<path d="M 35.0 25.0 L 77.0 25.0 L 83.0 20.0 L 94.0 29.0 L 89.0 33.0 L 89.0 77.0 L 77.0 83.0 L 77.0 73.0 L 35.0 73.0 L 35.0 183.0 L 23.0 189.0 L 23.0 19.0 Z M 141.0 175.0 L 161.0 175.0 L 162.2 174.9 L 163.1 174.7 L 164.0 174.4 L 164.4 174.0 L 164.7 173.1 L 164.9 172.2 L 165.0 171.0 L 165.0 73.0 L 123.0 73.0 L 123.0 80.0 L 111.0 86.0 L 111.0 19.0 L 123.0 25.0 L 165.0 25.0 L 171.0 20.0 L 182.0 29.0 L 177.0 33.0 L 177.0 171.0 L 176.8 173.5 L 176.4 176.0 L 175.6 178.4 L 174.3 180.7 L 172.7 182.7 L 170.7 184.3 L 168.4 185.6 L 166.0 186.4 L 163.5 186.8 L 161.0 187.0 L 161.0 181.0 L 141.0 178.0 Z M 44.1 123.3 L 44.1 119.3 L 94.0 119.3 L 94.0 99.7 L 56.4 99.7 L 56.4 95.7 L 94.0 95.7 L 94.0 77.2 L 106.0 79.2 L 109.0 81.2 L 106.0 83.0 L 106.0 95.7 L 125.31818180084228 95.7 L 133.5 86.7 L 143.5 95.7 L 143.5 99.7 L 106.0 99.7 L 106.0 119.3 L 133.9 119.3 L 143.9 109.3 L 155.9 119.3 L 155.9 123.3 L 120.9 123.3 L 120.9 166.7 L 120.8 169.3 L 120.3 171.8 L 119.5 174.2 L 118.3 176.5 L 116.6 178.5 L 114.6 180.1 L 112.4 181.4 L 110.0 182.2 L 107.5 182.6 L 104.9 182.7 L 104.9 176.7 L 88.9 173.7 L 88.9 170.7 L 106.1 170.7 L 107.0 170.5 L 107.6 170.3 L 108.2 170.0 L 108.3 169.8 L 108.5 169.5 L 108.7 168.9 L 108.8 168.0 L 108.9 166.7 L 108.9 123.3 L 93.0 123.3 L 93.0 141.9 L 92.3 147.9 L 90.8 153.6 L 88.6 158.8 L 85.7 163.6 L 82.1 167.8 L 77.8 171.6 L 72.9 174.8 L 67.4 177.5 L 61.4 179.6 L 54.7 181.1 L 54.2 179.4 L 59.9 176.1 L 64.9 172.8 L 69.1 169.4 L 72.7 165.9 L 75.6 162.3 L 77.8 158.6 L 79.4 154.8 L 80.5 150.7 L 81.0 146.5 L 81.0 123.3 Z M 72.2 138.8 L 74.5 141.6 L 70.44518947601318 142.5959183692932 L 68.5 146.0 L 66.3 149.3 L 63.8 152.5 L 61.0 155.4 L 58.1 158.1 L 54.9 160.6 L 51.4 162.9 L 47.7 164.9 L 43.9 166.9 L 42.9 165.4 L 45.9 162.5 L 48.5 159.4 L 50.8 156.5 L 53.0 153.5 L 54.9 150.5 L 56.5 147.5 L 57.9 144.4 L 59.1 141.4 L 60.0 138.3 L 60.56393442153931 136.11475410461426 L 60.5 136.1 L 61.3 133.6 Z M 142.9 156.6 L 141.8 154.1 L 140.4 151.7 L 138.8 149.2 L 137.1 146.7 L 135.1 144.2 L 132.9 141.6 L 130.5 139.0 L 127.7 136.7 L 128.6 135.2 L 132.0 136.8 L 135.4 138.2 L 138.6 139.9 L 141.6 141.8 L 144.4 143.9 L 147.1 146.1 L 149.5 148.6 L 151.7 151.2 L 153.8 153.9 L 155.6 156.9 L 155.6 161.4 L 152.5 164.7 L 147.9 164.8 L 144.6 161.6 L 143.8 159.1 Z M 123.0 50.0 L 123.0 69.0 L 165.0 69.0 L 165.0 50.0 Z M 35.0 50.0 L 35.0 69.0 L 77.0 69.0 L 77.0 50.0 Z M 123.0 29.0 L 123.0 46.0 L 165.0 46.0 L 165.0 29.0 Z M 35.0 29.0 L 35.0 46.0 L 77.0 46.0 L 77.0 29.0 Z " />
</g>
</svg>
