<svg xmlns="http://www.w3.org/2000/svg" xmlns:xlink="http://www.w3.org/1999/xlink" version="1.1" baseProfile="full" viewBox="0 0 200 200" width="200" height="200">
<g fill="black">
<path d="M 35.0 25.0 L 77.0 25.0 L 83.0 20.0 L 94.0 29.0 L 89.0 33.0 L 89.0 78.0 L 77.0 84.0 L 77.0 78.0 L 35.0 78.0 L 35.0 183.0 L 23.0 189.0 L 23.0 19.0 Z M 78.5 102.7 L 77.6 100.6 L 76.5 98.5 L 75.2 96.4 L 73.6 94.3 L 71.8 92.1 L 67.4 87.7 L 64.7 85.8 L 65.5 84.2 L 68.7 85.5 L 71.9 86.6 L 74.9 87.9 L 77.8 89.4 L 80.4 91.0 L 82.9 92.9 L 85.2 94.9 L 87.2 97.2 L 89.1 99.6 L 90.7 102.2 L 90.6 106.8 L 87.8 109.6 L 110.85172414779663 109.6 L 112.3 107.5 L 113.9 104.3 L 115.6 101.3 L 117.2 98.4 L 118.9 95.5 L 120.4 92.6 L 122.0 89.8 L 123.4 87.0 L 124.9 84.2 L 125.79120178222657 82.34904251098632 L 125.7 82.3 L 126.7 80.7 L 136.3 88.0 L 137.7 91.4 L 133.59485492706298 91.18766489028931 L 132.0 93.0 L 127.4 97.8 L 125.0 100.2 L 122.5 102.5 L 119.9 104.9 L 117.2 107.1 L 114.4 109.3 L 114.04782609939575 109.6 L 128.7 109.6 L 138.7 99.6 L 150.7 109.6 L 150.7 113.6 L 127.4 113.6 L 127.4 140.3 L 133.9 140.3 L 143.9 130.3 L 155.9 140.3 L 155.9 144.3 L 127.4 144.3 L 127.4 183.0 L 115.4 189.0 L 115.4 144.3 L 88.04078950881959 144.3 L 87.7 148.0 L 86.1 155.1 L 83.7 161.7 L 80.4 167.6 L 76.3 172.9 L 71.4 177.4 L 65.8 181.2 L 59.5 184.2 L 52.5 186.4 L 44.9 187.8 L 44.5 186.0 L 51.2 182.9 L 57.1 179.4 L 62.1 175.8 L 66.3 171.8 L 69.7 167.6 L 72.4 163.0 L 74.3 158.0 L 75.7 152.6 L 76.4 146.8 L 76.4 144.3 L 44.1 144.3 L 44.1 140.3 L 76.4 140.3 L 76.4 113.6 L 49.3 113.6 L 49.3 109.6 L 82.590625 109.6 L 79.6 106.7 L 79.2 104.7 Z M 149.0 176.0 L 161.0 176.0 L 162.2 175.9 L 163.1 175.7 L 164.0 175.4 L 164.4 175.0 L 164.7 174.1 L 164.9 173.2 L 165.0 172.0 L 165.0 78.0 L 123.0 78.0 L 111.0 84.0 L 111.0 19.0 L 123.0 25.0 L 165.0 25.0 L 171.0 20.0 L 182.0 29.0 L 177.0 33.0 L 177.0 172.0 L 176.8 174.5 L 176.4 177.0 L 175.6 179.4 L 174.3 181.7 L 172.7 183.7 L 170.7 185.3 L 168.4 186.6 L 166.0 187.4 L 163.5 187.8 L 161.0 188.0 L 161.0 182.0 L 149.0 179.0 Z M 88.4 113.6 L 88.4 140.3 L 115.4 140.3 L 115.4 113.6 Z M 123.0 53.0 L 123.0 74.0 L 165.0 74.0 L 165.0 53.0 Z M 35.0 53.0 L 35.0 74.0 L 77.0 74.0 L 77.0 53.0 Z M 123.0 29.0 L 123.0 49.0 L 165.0 49.0 L 165.0 29.0 Z M 35.0 29.0 L 35.0 49.0 L 77.0 49.0 L 77.0 29.0 Z " />
</g>
</svg>
