<svg xmlns="http://www.w3.org/2000/svg" xmlns:xlink="http://www.w3.org/1999/xlink" version="1.1" baseProfile="full" viewBox="0 0 200 200" width="200" height="200">
<g fill="black">
<path d="M 165.0 111.8 L 158.8 106.5 L 153.1 100.6 L 147.7 94.2 L 142.9 87.3 L 138.4 79.8 L 134.5 71.8 L 131.1971428871155 63.54285717010498 L 126.9 71.6 L 121.7 80.2 L 116.0 88.2 L 109.8 95.6 L 103.1 102.5 L 96.0 108.8 L 88.4 114.5 L 80.3 119.5 L 72.2844482421875 123.41457176208496 L 71.9 126.6 L 71.24987535476684 127.03615961074829 L 70.7 129.0 L 69.7 131.3 L 68.5 133.5 L 67.0 135.5 L 65.1 137.2 L 63.0 138.6 L 60.8 139.7 L 58.4 140.4 L 55.9 140.8 L 53.3 141.0 L 53.3 135.0 L 43.3 132.0 L 43.3 129.0 L 53.3 129.0 L 54.6 128.9 L 55.7 128.7 L 56.5 128.5 L 57.1 128.2 L 58.1 127.4 L 58.36943006515503 127.06321239471436 L 59.1 123.8 L 60.1 119.5 L 60.6 115.2 L 60.7 110.9 L 60.2 106.4 L 59.2 101.9 L 57.6 97.1 L 55.5 92.2 L 52.8 87.2 L 49.5 81.9 L 45.9 76.3 L 46.05445547103882 76.1326732635498 L 45.0 75.5 L 47.6 69.6 L 50.1 64.0 L 52.5 58.7 L 54.8 53.5 L 56.9 48.5 L 58.8 43.7 L 60.5 39.1 L 62.0 34.6 L 63.3 30.3 L 63.37857141494751 30.0 L 34.2 30.0 L 34.2 183.0 L 22.2 189.0 L 22.2 20.0 L 34.2 26.0 L 64.2 26.0 L 70.2 21.0 L 81.2 30.0 L 76.2 33.0 L 74.14919166564941 33.85450344085693 L 74.0 34.2 L 72.0 38.6 L 69.7 43.1 L 67.2 47.7 L 64.4 52.4 L 61.4 57.1 L 58.2 61.9 L 54.7 66.8 L 50.8 71.6 L 47.49505729675293 75.28923835754395 L 52.7 79.1 L 57.5 83.6 L 61.6 88.4 L 65.1 93.4 L 67.9 98.5 L 70.1 103.9 L 71.6 109.4 L 72.4 115.0 L 72.59816179275512 120.7466911315918 L 78.1 116.3 L 85.1 110.3 L 91.6 104.0 L 97.6 97.3 L 103.2 90.2 L 108.4 82.8 L 113.1 74.9 L 117.4 66.7 L 121.3 57.9 L 124.44853553771972 49.71380748748779 L 124.4 49.7 L 125.3 47.4 L 136.0 53.0 L 138.1 55.9 L 134.38549556732178 56.604475021362305 L 133.30715703964233 59.011928462982176 L 134.8 61.5 L 139.6 69.0 L 144.5 75.9 L 149.6 82.3 L 154.8 88.1 L 160.3 93.4 L 166.0 98.1 L 171.9 102.3 L 178.0 105.9 L 184.4 109.0 L 189.8 111.7 L 178.5 120.9 L 171.5 116.6 Z M 103.7 118.6 L 153.9 118.6 L 159.9 113.6 L 170.9 122.6 L 165.9 126.6 L 165.9 177.3 L 153.9 183.3 L 153.9 173.3 L 103.7 173.3 L 103.7 180.3 L 91.7 186.3 L 91.7 112.6 Z M 103.7 122.6 L 103.7 169.3 L 153.9 169.3 L 153.9 122.6 Z M 118.1 25.5 L 120.0 28.6 L 116.1322006225586 28.927779579162596 L 115.0 30.9 L 111.5 36.2 L 107.9 41.2 L 103.9 46.0 L 99.7 50.6 L 95.3 55.0 L 90.6 59.2 L 85.6 63.0 L 80.3 66.5 L 74.7 69.7 L 73.6 68.2 L 77.9 63.6 L 82.0 59.0 L 86.0 54.5 L 89.7 49.9 L 93.2 45.2 L 96.5 40.4 L 99.6 35.5 L 102.4 30.6 L 105.0 25.4 L 106.90163841247559 21.100643634796143 L 106.9 21.1 L 106.91666669845581 21.066666698455812 L 107.3 20.2 L 107.34014873504638 20.219702625274657 L 107.9 19.1 Z M 165.1 52.3 L 162.5 48.3 L 159.7 44.4 L 156.7 40.6 L 153.6 36.9 L 150.4 33.3 L 147.0 29.7 L 139.8 22.3 L 140.8 20.8 L 145.7 22.9 L 150.3 25.5 L 154.7 28.3 L 158.9 31.4 L 162.8 34.8 L 166.7 38.3 L 170.3 42.0 L 173.7 45.9 L 177.0 50.0 L 180.1 54.3 L 180.8 58.8 L 178.1 62.5 L 173.6 63.2 L 169.9 60.5 L 167.6 56.3 Z " />
</g>
</svg>
