<svg xmlns="http://www.w3.org/2000/svg" xmlns:xlink="http://www.w3.org/1999/xlink" version="1.1" baseProfile="full" viewBox="0 0 200 200" width="200" height="200">
<g fill="black">
<path d="M 71.4 131.3 L 70.1 133.5 L 68.6 135.5 L 66.7 137.2 L 64.7 138.6 L 62.4 139.7 L 60.0 140.4 L 57.5 140.8 L 55.0 141.0 L 54.94987468719482 134.98496236801148 L 45.0 132.0 L 45.0 129.0 L 54.9 129.0 L 56.2 128.9 L 57.3 128.7 L 58.1 128.5 L 58.8 128.2 L 59.3 127.8 L 59.7 127.4 L 60.2 126.8 L 60.6 126.1 L 61.0 125.1 L 61.3 123.9 L 62.4 119.6 L 62.9 115.2 L 62.9 110.8 L 62.3 106.4 L 61.2 101.7 L 59.6 97.0 L 57.3 92.1 L 54.4 87.1 L 51.0 81.8 L 47.0 76.3 L 47.2 76.1 L 46.2 75.5 L 48.8 69.6 L 51.4 64.0 L 53.9 58.6 L 56.3 53.5 L 58.4 48.5 L 60.4 43.7 L 62.2 39.0 L 63.8 34.5 L 65.1 30.2 L 65.15853662490845 30.0 L 35.0 30.0 L 35.0 183.0 L 23.0 189.0 L 23.0 20.0 L 35.0 26.0 L 66.0 26.0 L 72.0 21.0 L 83.0 30.0 L 78.0 33.0 L 75.93972606658936 33.85844745635986 L 75.8 34.2 L 73.7 38.6 L 71.3 43.2 L 68.8 47.7 L 66.0 52.4 L 62.9 57.1 L 59.6 61.9 L 56.0 66.8 L 52.0 71.6 L 48.68843908309937 75.29662618637084 L 53.8 79.2 L 58.7 83.8 L 62.8 88.5 L 66.3 93.5 L 69.1 98.6 L 71.3 104.0 L 72.8 109.4 L 73.6 115.0 L 73.7 120.8 L 73.0 126.5 L 72.3 129.0 Z M 155.6 178.7 L 144.9 173.2 L 135.5 166.5 L 134.92553386688232 165.93253955841064 L 133.4 166.8 L 122.6 171.9 L 111.4 176.5 L 99.6 180.4 L 87.4 183.6 L 74.6 186.1 L 61.4 187.8 L 61.0 186.1 L 73.7 182.4 L 85.9 178.5 L 97.5 174.2 L 108.5 169.5 L 118.9 164.3 L 128.0393069267273 159.13029098510742 L 127.3 158.4 L 120.4 149.1 L 114.9 138.6 L 111.89900016784668 130.43448886871337 L 78.0 133.9 L 77.5 130.0 L 110.53736686706543 126.62571001052856 L 107.7 114.2 L 106.12274112701417 101.39636907577514 L 106.1 101.4 L 106.02615385055542 100.61230773925782 L 106.0 100.4 L 106.0062063217163 100.39953451156616 L 105.8 98.2 L 118.0 99.5 L 121.1 101.3 L 118.43259973526001 103.13383769989014 L 119.5 112.1 L 122.1 123.5 L 122.78024740219116 125.37527647018433 L 163.24933357238768 121.24194364547729 L 172.2 110.2 L 185.2 119.0 L 185.6 122.9 L 124.1607421875 129.18096504211425 L 125.8 133.7 L 130.6 142.7 L 136.4 150.5 L 138.37058820724488 152.47058820724487 L 146.9 146.0 L 155.2 138.9 L 162.33263158798218 131.95263156890869 L 163.1 131.1 L 171.3 139.9 L 172.0 143.5 L 168.2950505256653 142.52501335144044 L 162.6 147.5 L 153.4 154.6 L 146.10080327987671 159.36682233810424 L 151.2 163.0 L 160.3 167.7 L 170.7 171.4 L 175.86368217468262 172.55737705230712 L 181.3 149.0 L 183.3 149.0 L 181.3925684928894 173.79661016464235 L 182.3 174.0 L 186.1 176.5 L 187.2 181.0 L 184.7 184.8 L 180.2 185.9 L 167.3 182.9 Z M 141.2 111.3 L 139.9 109.2 L 138.4 107.0 L 136.7 104.8 L 134.9 102.7 L 132.9 100.5 L 128.5 96.1 L 125.8 94.2 L 126.7 92.6 L 129.7 93.8 L 132.9 94.8 L 135.9 96.1 L 138.8 97.5 L 141.6 99.1 L 144.2 100.8 L 146.8 102.7 L 149.1 104.7 L 151.4 106.8 L 153.5 109.1 L 154.4 113.6 L 151.9 117.4 L 147.4 118.3 L 143.5 115.8 L 142.5 113.6 Z M 155.2 96.4 L 144.6 90.1 L 135.44051723480226 82.71332035064697 L 129.8 85.2 L 120.1 89.0 L 110.0 92.3 L 99.4 95.3 L 88.4 97.8 L 76.9 99.8 L 76.5 98.1 L 87.4 94.2 L 97.8 90.2 L 107.7 86.2 L 117.2 81.9 L 126.2 77.5 L 129.05713005065917 75.9717677116394 L 127.2 74.0 L 120.4 64.3 L 114.9 53.5 L 114.05969896316529 51.213599586486815 L 78.0 54.9 L 77.5 51.0 L 112.66134510040283 47.40877628326416 L 110.6 41.8 L 107.7 29.1 L 106.12361965179443 16.396228790283203 L 106.1 16.4 L 106.0255639076233 15.606015014648438 L 106.0 15.4 L 106.0062063217163 15.399534511566163 L 105.8 13.2 L 118.0 14.5 L 121.1 16.3 L 118.4357967376709 18.131639766693116 L 119.5 27.0 L 122.1 38.4 L 124.93367986679077 46.15533447265625 L 163.24933357238768 42.24194364547729 L 172.2 31.2 L 185.2 40.0 L 185.6 43.9 L 126.47817707061768 49.94405250549316 L 130.6 58.1 L 136.5 66.4 L 139.73968391418458 69.8744436264038 L 142.8 68.0 L 150.5 62.9 L 157.6 57.5 L 164.2 52.0 L 164.2281639099121 52.03365030288696 L 164.4 51.9 L 171.9 61.2 L 172.2 64.8 L 168.62973823547364 63.566636848449704 L 164.3 66.7 L 156.3 71.8 L 147.9 76.6 L 147.31946754455566 76.89686317443848 L 151.5 80.2 L 160.7 85.8 L 171.1 90.4 L 175.99467887878419 91.9897247314453 L 181.3 69.0 L 183.3 69.0 L 181.39660034179687 93.74419498443604 L 182.8 94.2 L 186.4 97.0 L 187.0 101.5 L 184.2 105.1 L 179.7 105.7 L 166.9 101.6 Z M 146.5 32.4 L 145.1 30.3 L 143.6 28.2 L 141.9 26.1 L 140.1 24.0 L 138.1 22.0 L 136.0 20.0 L 133.7 17.9 L 131.1 16.2 L 131.8 14.5 L 134.9 15.6 L 138.0 16.4 L 141.0 17.5 L 143.9 18.8 L 146.7 20.3 L 149.4 21.9 L 151.9 23.7 L 154.3 25.7 L 156.6 27.8 L 158.7 30.1 L 159.5 34.6 L 157.0 38.4 L 152.5 39.3 L 148.7 36.8 L 147.7 34.6 Z " />
</g>
</svg>
