<svg xmlns="http://www.w3.org/2000/svg" xmlns:xlink="http://www.w3.org/1999/xlink" version="1.1" baseProfile="full" viewBox="0 0 200 200" width="200" height="200">
<g fill="black">
<path d="M 113.3 181.0 L 101.3 187.0 L 101.3 66.85106382369995 L 98.4 70.8 L 93.5 76.8 L 88.2 82.4 L 82.7 87.5 L 81.3 86.4 L 85.3 80.0 L 89.2 73.6 L 93.0 67.1 L 96.6 60.5 L 100.1 53.6 L 101.3 51.094117641448975 L 101.3 50.0 L 101.72272729873657 50.21136360168457 L 103.5 46.5 L 106.6 39.2 L 109.6 31.7 L 112.4 23.9 L 115.0 15.9 L 115.02981529235839 15.910554122924804 L 115.5 14.5 L 126.3 19.9 L 128.5 22.7 L 124.84584217071533 23.469296360015868 L 123.0 28.0 L 119.5 35.9 L 115.7 43.5 L 111.7 50.8 L 109.6692307472229 54.18461542129516 L 113.3 56.0 L 138.30638294219972 56.0 L 139.6 52.8 L 141.3 48.2 L 143.0 43.9 L 144.7 39.7 L 146.3 35.7 L 147.8 31.9 L 149.3 28.3 L 150.7 24.8 L 152.0 21.4 L 152.8417953491211 19.15521240234375 L 152.7 19.1 L 153.7 17.1 L 164.0 23.5 L 165.8 26.6 L 161.81378087997436 26.94363956451416 L 160.1 29.6 L 158.0 32.8 L 155.8 36.1 L 153.4 39.6 L 151.0 43.2 L 148.3 46.9 L 145.5 50.6 L 142.4 54.4 L 141.16000003814696 56.0 L 162.4 56.0 L 172.4 46.0 L 184.4 56.0 L 184.4 60.0 L 149.4 60.0 L 149.4 92.0 L 160.4 92.0 L 170.4 82.0 L 182.4 92.0 L 182.4 96.0 L 149.4 96.0 L 149.4 129.0 L 160.4 129.0 L 170.4 119.0 L 182.4 129.0 L 182.4 133.0 L 149.4 133.0 L 149.4 170.0 L 166.3 170.0 L 176.3 160.0 L 188.3 170.0 L 188.3 174.0 L 113.3 174.0 Z M 37.2 113.1 L 66.7 113.1 L 72.7 108.1 L 83.7 117.1 L 78.7 121.1 L 78.7 169.2 L 66.7 175.2 L 66.7 163.2 L 37.2 163.2 L 37.2 175.2 L 25.2 181.2 L 25.2 107.1 Z M 113.3 133.0 L 113.3 170.0 L 137.4 170.0 L 137.4 133.0 Z M 37.2 117.1 L 37.2 159.2 L 66.7 159.2 L 66.7 117.1 Z M 113.3 96.0 L 113.3 129.0 L 137.4 129.0 L 137.4 96.0 Z M 74.5 64.1 L 72.4 60.1 L 70.0 56.0 L 67.3 51.9 L 64.2 47.6 L 60.8 43.3 L 57.0 38.9 L 53.0 34.2 L 52.9048867225647 34.09129915237427 L 51.6 37.2 L 47.8 45.1 L 43.8 52.8 L 39.5 60.3 L 34.8 67.5 L 29.8 74.6 L 24.5 81.4 L 18.8 87.8 L 12.7 94.0 L 11.3 92.8 L 15.8 85.6 L 20.1 78.3 L 24.3 71.0 L 28.3 63.6 L 32.0 56.2 L 35.5 48.6 L 38.7 41.0 L 41.6 33.2 L 44.3 25.2 L 46.51748876571655 18.1040358543396 L 46.5 18.1 L 47.3 15.6 L 58.2 20.8 L 60.4 23.7 L 56.7557656288147 24.545983028411865 L 55.0 29.1 L 54.33218555450439 30.69096975326538 L 55.5 31.4 L 60.7 34.9 L 65.4 38.7 L 69.8 42.5 L 73.8 46.5 L 77.5 50.5 L 80.8 54.6 L 83.8 58.7 L 86.4 63.0 L 88.7 67.3 L 88.6 71.8 L 85.4 75.1 L 80.8 75.0 L 77.6 71.8 L 76.2 68.0 Z M 113.3 60.0 L 113.3 92.0 L 137.4 92.0 L 137.4 60.0 Z M 76.6 81.4 L 76.6 85.4 L 29.0 85.4 L 29.0 81.4 L 58.418181800842284 81.4 L 66.6 72.4 Z " />
</g>
</svg>
