<svg xmlns="http://www.w3.org/2000/svg" xmlns:xlink="http://www.w3.org/1999/xlink" version="1.1" baseProfile="full" viewBox="0 0 200 200" width="200" height="200">
<g fill="black">
<path d="M 92.2 73.0 L 87.2 76.0 L 84.8 77.0 L 78.71400003433227 94.9 L 83.11818180084228 94.9 L 91.3 85.9 L 101.3 94.9 L 101.3 98.9 L 70.5 98.9 L 70.5 113.5 L 83.8 113.5 L 89.3 108.5 L 99.8 117.5 L 94.8 121.0 L 94.8 181.2 L 83.8 186.7 L 83.8 177.2 L 30.8 177.2 L 30.8 184.2 L 18.8 190.2 L 18.8 107.5 L 30.8 113.5 L 41.1 113.5 L 41.1 98.9 L 12.9 98.9 L 12.9 94.9 L 65.97538461685181 94.9 L 74.0615385055542 73.0 L 25.8 73.0 L 25.8 69.0 L 75.2 69.0 L 81.2 64.0 Z M 122.3 181.0 L 110.3 187.0 L 110.3 68.35 L 108.8 70.6 L 104.4 76.7 L 99.7 82.3 L 94.6 87.5 L 93.2 86.4 L 96.5 80.1 L 99.9 73.8 L 103.2 67.3 L 106.3 60.7 L 109.4 53.8 L 110.3 51.596551704406735 L 110.3 50.0 L 110.84152050018311 50.270760250091556 L 112.3 46.7 L 115.0 39.4 L 117.6 31.9 L 120.0 24.2 L 122.01509675979614 17.103354835510252 L 122.0 17.1 L 122.7 14.6 L 133.7 19.7 L 136.0 22.5 L 132.37288131713868 23.40677967071533 L 130.8 27.8 L 127.6 35.7 L 124.3 43.3 L 120.7 50.6 L 118.7768362045288 54.238418102264404 L 122.3 56.0 L 143.48913040161133 56.0 L 144.5 52.9 L 145.9 48.4 L 147.3 44.0 L 148.8 39.9 L 150.1 35.9 L 151.4 32.1 L 152.7 28.5 L 153.8 25.0 L 154.9 21.7 L 155.60754718780518 19.435849094390868 L 155.5 19.4 L 155.8800000190735 18.564000034332274 L 155.9 18.5 L 155.9076124191284 18.503252601623537 L 156.5 17.2 L 166.9 23.2 L 168.9 26.3 L 164.96626796722413 26.774760723114014 L 163.5 29.3 L 161.6 32.6 L 159.6 35.9 L 157.4 39.4 L 155.2 43.0 L 152.8 46.7 L 150.2 50.5 L 147.4 54.3 L 146.23902435302733 56.0 L 162.2 56.0 L 172.2 46.0 L 184.2 56.0 L 184.2 60.0 L 154.1 60.0 L 154.1 92.0 L 160.5 92.0 L 170.5 82.0 L 182.5 92.0 L 182.5 96.0 L 154.1 96.0 L 154.1 129.0 L 160.5 129.0 L 170.5 119.0 L 182.5 129.0 L 182.5 133.0 L 154.1 133.0 L 154.1 170.0 L 165.6 170.0 L 175.6 160.0 L 187.6 170.0 L 187.6 174.0 L 122.3 174.0 Z M 30.8 162.7 L 30.8 173.2 L 83.8 173.2 L 83.8 162.7 Z M 122.3 133.0 L 122.3 170.0 L 142.1 170.0 L 142.1 133.0 Z M 83.4 146.8 L 81.8 149.2 L 79.4 150.8 L 73.2 150.8 L 70.9 150.5 L 68.7 149.9 L 66.7 148.9 L 64.8 147.5 L 63.3 145.8 L 62.1 143.8 L 61.3 141.6 L 60.7 139.3 L 60.5 136.8 L 60.5 117.5 L 51.96440677642822 117.5 L 51.7 121.4 L 50.8 126.9 L 49.7 132.0 L 48.2 136.7 L 46.4 140.9 L 44.2 144.7 L 41.6 148.0 L 38.7 150.7 L 35.5 152.8 L 32.2 154.5 L 31.3 153.1 L 33.6 150.6 L 35.5 147.8 L 37.1 144.9 L 38.4 141.7 L 39.5 138.2 L 40.3 134.4 L 40.9 130.3 L 41.2 125.7 L 41.3 120.8 L 41.17547168731689 117.5 L 30.8 117.5 L 30.8 158.7 L 83.8 158.7 L 83.8 117.5 L 70.5 117.5 L 70.5 138.2 L 70.6 139.2 L 70.7 140.1 L 70.9 140.7 L 71.5 141.5 L 72.1 142.0 L 72.9 142.3 L 74.1 142.6 L 75.40597019195556 142.78656721115112 L 79.4 133.8 L 81.4 133.8 L 79.4 142.8 L 81.8 144.4 Z M 122.3 96.0 L 122.3 129.0 L 142.1 129.0 L 142.1 96.0 Z M 52.1 98.9 L 52.1 113.5 L 60.5 113.5 L 60.5 98.9 Z M 122.3 60.0 L 122.3 92.0 L 142.1 92.0 L 142.1 60.0 Z M 84.9 48.6 L 82.5 45.6 L 79.7 42.5 L 76.6 39.5 L 73.1 36.5 L 69.3 33.5 L 65.2 30.5 L 60.7 27.3 L 59.13771867752075 26.29102659225464 L 56.6 30.0 L 52.4 35.5 L 47.9 41.0 L 43.0 46.4 L 37.8 51.7 L 32.2 56.9 L 26.2 62.0 L 19.8 66.9 L 13.0 71.6 L 11.8 70.3 L 17.3 64.1 L 22.5 58.2 L 27.5 52.4 L 32.1 46.6 L 36.5 40.9 L 40.5 35.3 L 44.3 29.7 L 47.6 24.1 L 50.7 18.6 L 53.4 13.0 L 53.45765342712402 13.030458450317383 L 54.0 12.0 L 64.0 18.6 L 65.8 21.8 L 61.91375074386597 21.997605895996095 L 60.87313432693482 23.692324066162108 L 62.3 24.1 L 67.6 25.9 L 72.6 28.0 L 77.2 30.3 L 81.6 32.8 L 85.6 35.5 L 89.4 38.4 L 92.9 41.5 L 96.0 44.7 L 98.9 48.2 L 99.7 52.7 L 97.1 56.5 L 92.6 57.3 L 88.8 54.7 L 87.0 51.7 Z M 83.1 54.0 L 83.1 58.0 L 36.3 58.0 L 36.3 54.0 L 64.91818180084229 54.0 L 73.1 45.0 Z " />
</g>
</svg>
