<svg xmlns="http://www.w3.org/2000/svg" xmlns:xlink="http://www.w3.org/1999/xlink" version="1.1" baseProfile="full" viewBox="0 0 200 200" width="200" height="200">
<g fill="black">
<path d="M 137.9 125.1 L 136.9935185432434 134.0 L 167.71818180084227 134.0 L 175.9 125.0 L 185.9 134.0 L 185.9 138.0 L 137.06969699859619 138.0 L 137.6 139.4 L 140.4 145.4 L 143.6 150.8 L 147.2 155.7 L 151.3 160.1 L 156.0 164.0 L 161.2 167.5 L 167.0 170.7 L 173.4 173.4 L 180.4 175.7 L 187.9 178.2 L 176.3 188.2 L 168.4 184.9 L 161.3 181.0 L 154.9 176.6 L 149.3 171.7 L 144.4 166.3 L 140.4 160.5 L 137.2 154.2 L 134.9 147.5 L 134.51744337081908 145.41065244674684 L 134.4 145.9 L 130.7 155.0 L 125.7 163.1 L 119.6 170.1 L 112.3 176.1 L 103.9 181.0 L 94.5 184.7 L 84.1 187.4 L 72.7 188.8 L 72.4 187.1 L 83.1 183.7 L 92.6 179.7 L 100.8 175.2 L 107.7 170.1 L 113.4 164.3 L 118.0 157.9 L 121.5 150.8 L 124.0 143.0 L 124.86206893920898 138.0 L 83.3 138.0 L 83.3 134.0 L 125.51263160705567 134.0 L 125.9 124.8 L 125.9 114.0 L 96.3 114.0 L 96.3 110.0 L 125.9 110.0 L 125.9 90.0 L 89.8 90.0 L 89.8 86.0 L 116.9 86.0 L 116.1 85.8 L 113.6 81.9 L 113.7 80.0 L 113.7 78.1 L 113.1 74.1 L 112.6 71.9 L 111.9 69.7 L 111.0 67.4 L 110.0 65.0 L 108.8 62.5 L 107.1 60.3 L 108.4 59.0 L 110.6 60.9 L 113.0 62.6 L 115.2 64.4 L 117.2 66.3 L 119.0 68.4 L 120.7 70.5 L 122.1 72.7 L 123.5 75.1 L 124.6 77.5 L 125.5 80.1 L 124.4 84.5 L 121.9625 86.0 L 141.0 86.0 L 141.5 85.0 L 142.8 81.5 L 144.1 78.2 L 145.4 75.0 L 146.5 71.8 L 147.6 68.8 L 148.5 65.9 L 149.4 63.1 L 150.2 60.4 L 150.56720724105836 58.74756755828857 L 150.4 58.7 L 150.67391300201416 58.0 L 84.4 58.0 L 84.4 54.0 L 115.6 54.0 L 115.6 12.0 L 126.6 14.0 L 129.4 16.0 L 126.6 17.75 L 126.6 54.0 L 139.4 54.0 L 139.4 12.0 L 150.4 14.0 L 153.1 16.0 L 150.4 17.723404216766358 L 150.4 54.0 L 168.8181818008423 54.0 L 177.0 45.0 L 187.0 54.0 L 187.0 58.0 L 154.35714282989503 58.0 L 162.0 62.0 L 164.1 65.0 L 159.8923186302185 65.7254623413086 L 158.9 67.4 L 157.2 70.1 L 155.3 72.8 L 153.3 75.5 L 151.2 78.3 L 148.9 81.1 L 146.5 83.8 L 144.3 86.0 L 158.5 86.0 L 168.5 76.0 L 180.5 86.0 L 180.5 90.0 L 137.9 90.0 L 140.9 92.0 L 137.9 93.8 L 137.9 110.0 L 151.51818180084229 110.0 L 159.7 101.0 L 169.7 110.0 L 169.7 114.0 L 137.9 114.0 L 137.9 125.0 L 137.8344262123108 125.09836063385009 Z M 72.9 15.1 L 75.9 17.1 L 72.9 18.9 L 72.9 37.4 L 76.9 37.4 L 81.4 31.4 L 87.4 37.4 L 87.4 41.4 L 72.9 41.4 L 72.9 67.6 L 60.9 73.6 L 60.9 63.6 L 56.2 63.6 L 56.2 86.4 L 70.8 86.4 L 76.8 81.4 L 87.8 90.4 L 82.8 94.4 L 82.8 122.6 L 70.8 128.6 L 70.8 122.6 L 56.2 122.6 L 56.2 143.4 L 70.11818180084228 143.4 L 78.3 134.4 L 88.3 143.4 L 88.3 147.4 L 56.2 147.4 L 56.2 182.8 L 44.2 188.8 L 44.2 147.4 L 11.1 147.4 L 11.1 143.4 L 44.2 143.4 L 44.2 122.6 L 30.5 122.6 L 30.5 129.6 L 18.5 135.6 L 18.5 80.4 L 30.5 86.4 L 44.2 86.4 L 44.2 63.6 L 38.5 63.6 L 38.5 70.6 L 26.5 76.6 L 26.5 41.4 L 13.0 41.4 L 13.0 37.4 L 26.5 37.4 L 26.5 13.1 L 38.5 15.1 L 41.5 17.1 L 38.5 18.9 L 38.5 37.4 L 60.9 37.4 L 60.9 13.1 Z M 30.5 90.4 L 30.5 118.6 L 44.2 118.6 L 44.2 90.4 Z M 56.2 90.4 L 56.2 118.6 L 70.8 118.6 L 70.8 90.4 Z M 38.5 41.4 L 38.5 59.6 L 60.9 59.6 L 60.9 41.4 Z M 177.9 22.5 L 179.6 25.7 L 175.5385012626648 25.980103397369383 L 174.1 28.1 L 172.1 30.9 L 170.0 33.7 L 167.9 36.6 L 165.6 39.5 L 163.2 42.5 L 160.7 45.4 L 155.3 51.4 L 153.8 50.5 L 155.5 46.8 L 156.9 43.1 L 158.3 39.5 L 161.1 32.7 L 162.4 29.4 L 163.7 26.2 L 164.9 23.1 L 166.7610116958618 18.02451362609863 L 166.7 18.0 L 166.9307692527771 17.5615385055542 L 167.1 17.1 L 167.1583333015442 17.129166698455812 L 167.7 16.1 Z M 99.1 38.8 L 98.6 36.3 L 98.0 33.8 L 97.2 31.3 L 96.2 28.9 L 95.0 26.4 L 93.6 24.0 L 92.1 21.5 L 90.0 19.3 L 91.1 17.8 L 93.8 19.5 L 96.5 21.1 L 99.1 23.0 L 101.4 25.1 L 103.6 27.4 L 105.6 29.9 L 107.3 32.7 L 108.9 35.6 L 110.2 38.7 L 111.4 41.9 L 110.3 46.4 L 106.5 48.9 L 102.1 47.9 L 99.6 44.1 L 99.4 41.4 Z " />
</g>
</svg>
