<svg xmlns="http://www.w3.org/2000/svg" xmlns:xlink="http://www.w3.org/1999/xlink" version="1.1" baseProfile="full" viewBox="0 0 200 200" width="200" height="200">
<g fill="black">
<path d="M 74.4 15.1 L 77.4 17.1 L 74.4 18.9 L 74.4 37.4 L 78.8 37.4 L 83.3 31.4 L 89.3 37.4 L 89.3 41.4 L 74.4 41.4 L 74.4 67.6 L 62.4 73.6 L 62.4 63.6 L 57.3 63.6 L 57.3 86.4 L 72.4 86.4 L 78.4 81.4 L 89.4 90.4 L 84.4 94.4 L 84.4 126.6 L 72.4 132.6 L 72.4 122.6 L 57.3 122.6 L 57.3 143.4 L 68.2 143.4 L 78.2 133.4 L 90.2 143.4 L 90.2 147.4 L 57.3 147.4 L 57.3 182.8 L 45.3 188.8 L 45.3 147.4 L 11.4 147.4 L 11.4 143.4 L 45.3 143.4 L 45.3 122.6 L 31.0 122.6 L 31.0 129.6 L 19.0 135.6 L 19.0 80.4 L 31.0 86.4 L 45.3 86.4 L 45.3 63.6 L 39.2 63.6 L 39.2 70.6 L 27.2 76.6 L 27.2 41.4 L 13.3 41.4 L 13.3 37.4 L 27.2 37.4 L 27.2 13.1 L 39.2 15.1 L 42.2 17.1 L 39.2 18.9 L 39.2 37.4 L 62.4 37.4 L 62.4 13.1 Z M 124.1 185.4 L 121.6 185.0 L 119.2 184.1 L 116.9 182.9 L 114.9 181.3 L 113.2 179.3 L 112.0 177.0 L 111.2 174.6 L 110.8 172.1 L 110.6 169.5 L 110.6 141.9 L 122.6 143.9 L 125.6 145.9 L 122.6 147.7 L 122.6 169.5 L 122.7 170.8 L 122.8 171.7 L 123.0 172.3 L 123.2 172.6 L 123.5 172.9 L 123.9 173.1 L 124.5 173.3 L 125.4 173.5 L 157.4 173.5 L 163.4 148.5 L 165.4 148.5 L 163.4 173.5 L 167.0 175.9 L 169.4 179.5 L 167.0 183.1 L 163.4 185.5 L 126.6 185.5 Z M 86.6 178.5 L 85.3 174.1 L 87.5 170.1 L 88.8 169.4 L 90.2 168.2 L 91.6 166.7 L 93.0 164.6 L 94.3 162.1 L 95.5 159.2 L 96.6 155.8 L 97.6 152.1 L 98.5 147.8 L 99.0 143.2 L 100.8 143.2 L 101.3 147.9 L 101.9 152.3 L 102.1 156.5 L 102.1 160.5 L 101.7 164.2 L 101.1 167.7 L 100.2 171.0 L 98.9 174.0 L 97.2 176.9 L 95.0 179.4 L 90.6 180.7 Z M 174.6 166.1 L 174.0 163.5 L 173.1 160.9 L 172.2 158.2 L 171.0 155.6 L 169.6 152.9 L 168.0 150.2 L 166.3 147.5 L 164.1 145.0 L 165.3 143.6 L 168.1 145.5 L 171.1 147.4 L 173.8 149.4 L 176.3 151.7 L 178.6 154.1 L 180.7 156.8 L 182.6 159.5 L 184.3 162.5 L 185.8 165.6 L 187.0 168.8 L 186.2 173.3 L 182.5 176.0 L 178.0 175.2 L 175.3 171.5 L 175.0 168.8 Z M 138.0 153.5 L 137.1 151.5 L 136.1 149.5 L 135.0 147.5 L 133.8 145.5 L 131.0 141.5 L 129.1 139.9 L 130.1 138.4 L 132.3 139.6 L 134.8 140.5 L 137.2 141.7 L 139.5 143.1 L 141.7 144.6 L 143.7 146.4 L 145.7 148.3 L 147.6 150.4 L 149.3 152.6 L 150.9 155.0 L 151.0 159.6 L 147.8 162.9 L 143.3 163.0 L 139.9 159.8 L 139.4 157.7 Z M 102.2 38.7 L 102.5 41.6 L 102.7 44.4 L 102.6 47.1 L 102.3 49.7 L 101.8 52.3 L 101.0 54.8 L 100.0 57.2 L 96.0 59.5 L 91.6 58.4 L 89.3 54.4 L 90.3 50.0 L 91.4 49.2 L 92.5 48.1 L 93.5 46.7 L 94.5 45.0 L 95.4 43.1 L 96.3 40.9 L 97.1 38.5 L 97.7 35.8 L 98.4 32.8 L 98.5 29.7 L 100.3 29.5 L 100.8 32.7 L 101.23870964050293 34.4 L 130.8 34.4 L 130.8 13.4 L 142.8 15.4 L 145.8 17.4 L 142.8 19.2 L 142.8 34.4 L 172.1 34.4 L 178.1 29.4 L 189.1 38.4 L 184.1 41.4 L 180.04754095077516 43.088524627685544 L 178.9 44.4 L 177.5 46.2 L 175.9 48.0 L 174.2 50.0 L 172.4 52.1 L 170.4 54.4 L 169.33507976531982 56.028701591491696 L 170.4 56.9 L 165.4 60.9 L 165.4 85.3 L 153.4 91.3 L 153.4 83.3 L 118.1 83.3 L 118.1 98.5 L 157.6 98.5 L 163.6 93.5 L 174.6 102.5 L 169.6 106.5 L 169.6 131.7 L 157.6 137.7 L 157.6 131.7 L 118.1 131.7 L 106.1 137.7 L 106.1 46.9 L 118.1 52.9 L 153.4 52.9 L 159.4 47.9 L 167.73929414749145 54.72305879592896 L 168.4 53.3 L 169.1 50.4 L 169.8 47.7 L 170.4 45.2 L 171.0 42.9 L 171.5 40.7 L 171.9 38.8 L 171.9666666984558 38.4 L 102.13793106079102 38.4 Z M 118.1 102.5 L 118.1 127.7 L 157.6 127.7 L 157.6 102.5 Z M 31.0 90.4 L 31.0 118.6 L 45.3 118.6 L 45.3 90.4 Z M 57.3 90.4 L 57.3 118.6 L 72.4 118.6 L 72.4 90.4 Z M 118.1 56.9 L 118.1 79.3 L 153.4 79.3 L 153.4 56.9 Z M 39.2 41.4 L 39.2 59.6 L 62.4 59.6 L 62.4 41.4 Z " />
</g>
</svg>
