<svg xmlns="http://www.w3.org/2000/svg" xmlns:xlink="http://www.w3.org/1999/xlink" version="1.1" baseProfile="full" viewBox="0 0 200 200" width="200" height="200">
<g fill="black">
<path d="M 93.9 145.4 L 90.7 142.2 L 90.6 137.6 L 91.6615385055542 135.3 L 64.9 135.3 L 64.9 158.1 L 76.7 158.1 L 86.7 148.1 L 98.7 158.1 L 98.7 162.1 L 64.9 162.1 L 64.9 183.0 L 52.9 189.0 L 52.9 162.1 L 28.295454502105713 162.1 L 28.0 163.4 L 14.9 166.6 L 21.3 138.9 L 32.5 143.6 L 35.0 146.2 L 31.69660863876343 147.13492212295532 L 29.204545497894287 158.1 L 52.9 158.1 L 52.9 135.3 L 24.3 135.3 L 24.3 131.3 L 52.9 131.3 L 52.9 116.4 L 64.9 118.4 L 67.9 120.4 L 64.9 122.2 L 64.9 131.3 L 72.4 131.3 L 82.4 121.3 L 93.5550295829773 130.595858001709 L 94.0 129.4 L 95.4 124.7 L 96.7 119.6 L 97.8 114.2 L 98.7 108.3 L 99.4 102.2 L 100.0 95.6 L 100.6 88.7 L 101.1 81.4 L 102.9 81.3 L 104.4 88.5 L 105.4 95.5 L 106.0 102.3 L 106.3 108.8 L 106.2 115.0 L 105.9 121.0 L 105.3 126.6 L 104.4 132.1 L 103.2 137.2 L 101.7 142.2 L 98.4 145.4 Z M 130.2 183.7 L 127.7 183.3 L 125.3 182.4 L 123.0 181.2 L 121.0 179.6 L 119.3 177.6 L 118.1 175.3 L 117.3 172.9 L 116.9 170.4 L 116.7 167.8 L 116.7 156.98761062622071 L 111.0 164.1 L 98.8 177.3 L 85.7 189.5 L 84.5 188.2 L 96.0 174.8 L 106.8 160.8 L 116.7 146.58712873458862 L 116.7 51.2 L 128.7 53.2 L 131.7 55.2 L 128.7 57.0 L 128.7 126.87441864013672 L 135.0 115.3 L 143.0 98.7 L 150.1 81.5 L 156.6 63.6 L 162.2 45.0 L 166.94059743881226 26.60648193359375 L 166.9 26.6 L 167.6 23.9 L 178.8 28.5 L 181.2 31.1 L 177.71799364089966 32.23956565856933 L 173.1 48.2 L 166.7 67.1 L 159.4 85.3 L 151.4 102.7 L 142.5 119.3 L 132.8 135.1 L 128.7 140.91809520721435 L 128.7 167.8 L 128.8 169.1 L 129.0 170.0 L 129.1 170.6 L 129.3 170.9 L 129.5 171.1 L 129.7 171.2 L 130.0 171.4 L 130.6 171.6 L 131.5 171.8 L 164.3 171.8 L 170.3 146.8 L 172.3 146.8 L 170.3 171.8 L 173.9 174.2 L 176.3 177.8 L 173.9 181.4 L 170.3 183.8 L 132.7 183.8 Z M 175.4 122.8 L 174.7 117.8 L 173.9 112.8 L 172.8 107.8 L 171.4 102.8 L 169.8 97.9 L 168.1 92.9 L 164.1 82.7 L 165.6 81.7 L 169.4 85.9 L 172.8 90.4 L 175.8 95.1 L 178.5 100.0 L 180.8 105.1 L 182.8 110.3 L 184.5 115.6 L 186.0 121.0 L 187.1 126.6 L 187.9 132.2 L 186.4 136.5 L 182.3 138.6 L 178.0 137.1 L 175.9 133.0 L 175.8 127.9 Z M 38.1 79.5 L 72.8 79.5 L 78.8 74.5 L 89.8 83.5 L 84.8 87.5 L 84.8 113.4 L 72.8 119.4 L 72.8 109.4 L 38.1 109.4 L 38.1 116.4 L 26.1 122.4 L 26.1 73.5 Z M 38.1 83.5 L 38.1 105.4 L 72.8 105.4 L 72.8 83.5 Z M 12.2 61.6 L 36.74155597686767 61.6 L 40.80607213973999 37.8 L 19.1 37.8 L 19.1 33.8 L 41.489184093475345 33.8 L 45.4 10.9 L 56.9 14.9 L 59.5 17.4 L 56.309782314300534 18.363084602355958 L 53.67885007858276 33.8 L 69.3 33.8 L 75.3 28.8 L 86.3 37.8 L 81.3 41.8 L 81.3 61.6 L 84.4777777671814 61.6 L 90.7 54.6 L 98.7 61.6 L 98.7 65.6 L 12.2 65.6 Z M 52.997125244140626 37.8 L 48.94086246490478 61.6 L 69.3 61.6 L 69.3 37.8 Z M 139.8 44.3 L 137.8 41.2 L 135.6 38.2 L 133.0 35.1 L 130.1 32.0 L 126.8 28.9 L 123.3 25.8 L 119.5 22.5 L 115.3 19.3 L 116.1 17.7 L 121.2 19.6 L 126.0 21.6 L 130.4 23.9 L 134.6 26.4 L 138.5 29.0 L 142.0 31.8 L 145.3 34.8 L 148.3 38.0 L 151.0 41.3 L 153.4 44.8 L 153.7 49.3 L 150.8 52.9 L 146.3 53.2 L 142.8 50.3 L 141.4 47.3 Z " />
</g>
</svg>
