<svg xmlns="http://www.w3.org/2000/svg" xmlns:xlink="http://www.w3.org/1999/xlink" version="1.1" baseProfile="full" viewBox="0 0 200 200" width="200" height="200">
<g fill="black">
<path d="M 62.6 142.2 L 137.3 142.2 L 143.3 137.2 L 154.3 146.2 L 149.3 150.2 L 149.3 181.9 L 137.3 187.9 L 137.3 179.9 L 62.6 179.9 L 62.6 182.9 L 50.6 188.9 L 50.6 136.2 Z M 62.6 162.6 L 62.6 175.9 L 137.3 175.9 L 137.3 162.6 Z M 62.6 146.2 L 62.6 158.6 L 137.3 158.6 L 137.3 146.2 Z M 84.1 61.1 L 81.4 58.9 L 78.6 56.8 L 75.6 54.6 L 72.3 52.6 L 68.9 50.5 L 65.4 48.4 L 61.7 46.2 L 59.26510581970215 45.04342527389527 L 56.4 49.0 L 51.3 54.1 L 45.5 58.4 L 38.9 61.9 L 32.14509515762329 64.30585651397705 L 32.5 67.5 L 32.8764705657959 70.7 L 170.0 70.7 L 170.6300000190735 70.175 L 170.9 69.5 L 171.20469274520875 69.69608936309814 L 176.0 65.7 L 187.0 74.7 L 182.0 77.7 L 177.54285717010498 79.55714282989501 L 173.3 83.8 L 170.9 85.9 L 168.4 88.2 L 165.7 90.5 L 162.8 92.9 L 159.7 95.3 L 158.50694007873534 96.3391167640686 L 158.7 96.5 L 158.7 100.5 L 131.2125 100.5 L 138.3 106.8 L 139.4 110.2 L 135.1045636177063 109.68158531188965 L 134.2 110.5 L 129.8 114.5 L 127.4 116.5 L 124.9 118.5 L 119.5 122.7 L 116.6 124.7 L 115.13913040161133 125.9 L 164.11818180084228 125.9 L 172.3 116.9 L 182.3 125.9 L 182.3 129.9 L 17.6 129.9 L 17.6 125.9 L 112.60833330154419 125.9 L 112.5 125.8 L 114.6 122.9 L 116.4 119.8 L 118.2 116.9 L 119.9 114.1 L 121.6 111.4 L 123.2 108.8 L 124.8 106.3 L 126.2 103.9 L 127.6 101.6 L 128.25 100.5 L 41.2 100.5 L 41.2 96.5 L 94.0 96.5 L 94.0 81.8 L 106.0 83.8 L 109.0 85.8 L 106.0 87.6 L 106.0 96.5 L 136.7 96.5 L 146.7 86.5 L 156.71886796951293 94.84905662536622 L 157.7 93.5 L 159.6 90.1 L 161.5 86.9 L 163.3 83.9 L 165.0 81.1 L 166.5 78.4 L 167.8 76.0 L 168.45 74.7 L 33.1 74.7 L 33.1 77.3 L 32.8 81.8 L 32.1 86.1 L 30.9 90.0 L 29.3 93.7 L 27.2 97.1 L 24.6 100.1 L 21.6 102.6 L 17.0 103.2 L 13.4 100.4 L 12.8 95.9 L 15.5 92.2 L 17.5 91.3 L 19.4 90.0 L 21.3 88.3 L 23.0 86.1 L 24.6 83.4 L 26.1 80.2 L 27.4 76.4 L 28.5 72.2 L 29.5 67.4 L 29.78815793991089 64.90263156890869 L 23.5 66.3 L 23.0 64.6 L 30.1 61.0 L 36.3 57.2 L 41.6 53.1 L 46.0 48.7 L 49.6 43.9 L 52.4 38.8 L 54.4 33.3 L 55.8 27.4 L 56.4 21.0 L 56.31426362991333 14.998454761505126 L 56.3 15.0 L 56.2 11.6 L 68.3 13.7 L 71.3 15.6 L 68.00861167907715 17.682306861877443 L 67.7 21.9 L 66.3 29.6 L 63.9 36.8 L 60.729103088378906 42.949618339538574 L 62.7 43.3 L 67.0 44.0 L 71.2 45.0 L 75.3 46.2 L 79.2 47.5 L 82.9 49.0 L 86.5 50.6 L 90.0 52.4 L 93.3 54.3 L 96.5 56.3 L 98.6 60.3 L 97.4 64.7 L 93.3 66.8 L 88.9 65.6 L 86.6 63.3 Z M 72.7 118.2 L 72.1 116.3 L 71.3 114.4 L 70.4 112.5 L 69.4 110.5 L 68.2 108.5 L 65.4 104.5 L 63.4 102.8 L 64.4 101.3 L 66.7 102.6 L 69.2 103.6 L 71.6 104.8 L 73.9 106.2 L 76.0 107.7 L 78.0 109.4 L 79.9 111.2 L 81.6 113.2 L 83.2 115.3 L 84.7 117.5 L 84.5 122.1 L 81.3 125.3 L 76.7 125.2 L 73.5 121.9 L 73.2 120.1 Z M 162.4 61.1 L 159.8 58.9 L 156.9 56.8 L 153.9 54.6 L 150.7 52.6 L 147.3 50.5 L 143.7 48.4 L 140.0 46.2 L 137.56510581970215 45.04342527389527 L 134.7 49.0 L 129.7 54.1 L 123.8 58.4 L 117.2 61.9 L 109.9 64.5 L 101.9 66.3 L 101.3 64.6 L 108.5 61.0 L 114.6 57.2 L 119.9 53.1 L 124.3 48.7 L 127.9 43.9 L 130.7 38.8 L 132.8 33.3 L 134.1 27.4 L 134.7 21.0 L 134.61426362991332 14.998454761505126 L 134.6 15.0 L 134.5 11.6 L 146.6 13.7 L 149.6 15.6 L 146.30861167907716 17.682306861877443 L 146.0 21.9 L 144.6 29.6 L 142.2 36.8 L 139.032857131958 42.94233770370484 L 141.0 43.3 L 145.4 44.0 L 149.5 45.0 L 153.6 46.2 L 157.5 47.5 L 161.2 49.0 L 164.8 50.6 L 168.3 52.4 L 171.6 54.3 L 174.8 56.3 L 176.9 60.3 L 175.7 64.7 L 171.6 66.8 L 167.2 65.6 L 164.9 63.3 Z M 107.0 43.9 L 105.4 39.6 L 107.2 35.4 L 108.7 34.5 L 110.0 33.7 L 112.2 31.9 L 113.1 30.9 L 113.9 29.8 L 114.6 28.5 L 115.2 27.0 L 115.7 25.3 L 115.3 23.6 L 117.0 23.0 L 117.7 24.9 L 118.7 26.7 L 119.4 28.6 L 119.8 30.7 L 119.9 32.9 L 119.6 35.1 L 119.0 37.4 L 118.2 39.6 L 117.0 41.9 L 115.5 44.0 L 111.2 45.6 Z M 28.7 43.9 L 27.1 39.6 L 28.9 35.4 L 30.4 34.5 L 31.7 33.7 L 32.8 32.8 L 33.8 31.9 L 34.8 30.9 L 35.6 29.8 L 36.3 28.5 L 36.9 27.0 L 37.3 25.3 L 37.0 23.6 L 38.7 23.0 L 39.4 24.9 L 40.4 26.7 L 41.1 28.6 L 41.5 30.7 L 41.6 32.9 L 41.3 35.1 L 40.7 37.4 L 39.8 39.6 L 38.7 41.9 L 37.2 44.0 L 32.9 45.6 Z M 173.8 24.8 L 175.0 28.2 L 170.37328243255615 27.721374034881592 L 169.9 28.1 L 167.8 29.7 L 163.2 32.7 L 160.7 34.1 L 158.1 35.4 L 155.3 36.7 L 152.4 37.8 L 149.6 39.2 L 148.6 37.7 L 151.0 35.8 L 153.0 33.5 L 154.9 31.3 L 156.7 29.1 L 158.3 27.1 L 159.8 25.1 L 161.1 23.1 L 162.3 21.2 L 163.3 19.4 L 163.7522388458252 18.49552240371704 L 163.6 18.4 L 164.6 17.0 Z M 95.4 24.8 L 96.7 28.2 L 92.07328243255616 27.721374034881592 L 91.6 28.1 L 89.5 29.7 L 84.9 32.7 L 82.4 34.1 L 79.8 35.4 L 77.0 36.7 L 74.1 37.8 L 71.3 39.2 L 70.3 37.7 L 72.7 35.8 L 74.7 33.5 L 76.6 31.3 L 78.4 29.1 L 80.0 27.1 L 82.8 23.1 L 83.9 21.2 L 85.0 19.4 L 85.39114141464233 18.519931888580324 L 85.2 18.4 L 85.76279067993164 17.683720970153807 L 85.8 17.6 L 85.8179775238037 17.613483142852782 L 86.3 17.0 Z " />
</g>
</svg>
