<svg xmlns="http://www.w3.org/2000/svg" xmlns:xlink="http://www.w3.org/1999/xlink" version="1.1" baseProfile="full" viewBox="0 0 200 200" width="200" height="200">
<g fill="black">
<path d="M 138.0 161.8 L 138.8 165.4 L 135.00791997909545 164.46861190795897 L 134.3 165.1 L 130.2 168.2 L 125.9 171.2 L 121.3 174.1 L 116.3 176.9 L 111.1 179.6 L 105.6 182.2 L 99.7 184.6 L 93.5 186.8 L 87.0 188.8 L 86.2 187.1 L 91.9 183.4 L 97.3 179.9 L 102.4 176.5 L 107.2 173.1 L 111.7 169.8 L 115.9 166.5 L 119.8 163.2 L 123.3 160.0 L 126.6 156.7 L 128.75101881027223 154.2416928291321 L 128.7 154.2 L 129.7 153.2 Z M 50.5 150.4 L 52.4 153.5 L 48.46075086593628 153.90750856399535 L 48.0 154.7 L 45.2 158.9 L 42.2 163.0 L 38.9 167.0 L 35.4 170.9 L 31.7 174.6 L 27.7 178.2 L 23.4 181.6 L 18.8 184.7 L 13.8 187.6 L 12.7 186.3 L 16.2 181.9 L 19.7 177.7 L 22.9 173.6 L 26.0 169.5 L 28.9 165.5 L 31.5 161.5 L 33.9 157.4 L 36.0 153.4 L 38.0 149.3 L 39.31509437561035 146.20566034317017 L 39.3 146.2 L 40.2 144.1 Z M 170.9 176.1 L 168.7 173.3 L 166.3 170.5 L 163.8 167.9 L 161.0 165.2 L 158.0 162.7 L 154.9 160.1 L 151.6 157.5 L 148.1 155.2 L 148.8 153.5 L 153.0 154.7 L 157.2 156.0 L 161.2 157.6 L 165.0 159.5 L 168.7 161.5 L 172.2 163.8 L 175.5 166.3 L 178.7 169.0 L 181.7 171.9 L 184.5 175.0 L 185.5 179.5 L 183.2 183.4 L 178.7 184.4 L 174.8 182.0 L 172.9 179.0 Z M 82.5 167.7 L 80.8 164.9 L 78.9 162.2 L 76.8 159.6 L 74.5 157.0 L 72.0 154.5 L 69.3 152.0 L 66.4 149.5 L 63.2 147.2 L 63.9 145.6 L 67.8 146.9 L 71.6 148.2 L 75.2 149.8 L 78.7 151.6 L 82.0 153.7 L 85.1 156.0 L 88.0 158.5 L 90.8 161.3 L 93.4 164.2 L 95.8 167.3 L 96.3 171.9 L 93.6 175.5 L 89.1 176.1 L 85.4 173.4 L 84.0 170.5 Z M 187.5 26.0 L 187.5 30.0 L 151.5 30.0 L 151.2 30.5 L 149.4 33.4 L 147.4 36.3 L 145.4 39.1 L 143.4 41.8 L 141.2 44.5 L 138.9 47.1 L 136.6 49.6 L 134.1 51.9 L 131.72608699798585 54.0 L 164.1 54.0 L 170.1 49.0 L 181.1 58.0 L 176.1 62.0 L 176.1 144.0 L 164.1 150.0 L 164.1 144.0 L 122.2 144.0 L 122.2 147.0 L 110.2 153.0 L 110.2 48.0 L 122.2 54.0 L 128.42068967819213 54.0 L 129.3 52.5 L 130.6 49.4 L 132.0 46.4 L 135.9 37.4 L 137.1 34.4 L 138.2 31.5 L 138.73225803375243 30.0 L 100.5 30.0 L 100.5 26.0 L 169.3181818008423 26.0 L 177.5 17.0 Z M 122.2 115.0 L 122.2 140.0 L 164.1 140.0 L 164.1 115.0 Z M 11.4 135.0 L 31.0 135.0 L 31.0 46.0 L 13.3 46.0 L 13.3 42.0 L 31.0 42.0 L 31.0 15.0 L 43.0 17.0 L 46.0 19.0 L 43.0 20.8 L 43.0 42.0 L 73.8 42.0 L 73.8 15.0 L 85.8 17.0 L 88.8 19.0 L 85.8 20.8 L 85.8 42.0 L 91.1777777671814 42.0 L 97.4 35.0 L 105.4 42.0 L 105.4 46.0 L 85.8 46.0 L 85.8 135.0 L 88.21818180084229 135.0 L 96.4 126.0 L 106.4 135.0 L 106.4 139.0 L 11.4 139.0 Z M 43.0 108.0 L 43.0 135.0 L 73.8 135.0 L 73.8 108.0 Z M 122.2 87.0 L 122.2 111.0 L 164.1 111.0 L 164.1 87.0 Z M 43.0 77.0 L 43.0 104.0 L 73.8 104.0 L 73.8 77.0 Z M 122.2 58.0 L 122.2 83.0 L 164.1 83.0 L 164.1 58.0 Z M 43.0 46.0 L 43.0 73.0 L 73.8 73.0 L 73.8 46.0 Z " />
</g>
</svg>
