<svg xmlns="http://www.w3.org/2000/svg" xmlns:xlink="http://www.w3.org/1999/xlink" version="1.1" baseProfile="full" viewBox="0 0 200 200" width="200" height="200">
<g fill="black">
<path d="M 160.1 128.2 L 150.8 125.8 L 141.8 123.0 L 133.3 120.1 L 125.2 116.9 L 122.82162160873413 115.81891889572144 L 126.0 118.6 L 126.0 122.6 L 72.0 122.6 L 72.0 118.6 L 111.77777776718139 118.6 L 116.74797086715698 113.00853281021118 L 110.2 109.6 L 103.5 105.5 L 101.08195009231568 103.67655248641968 L 100.2 104.3 L 93.6 108.2 L 86.2 112.0 L 78.1 115.7 L 69.2 119.2 L 59.4 122.6 L 57.557894706726074 123.17894735336304 L 67.0 127.9 L 128.0 127.9 L 134.0 122.9 L 145.0 131.9 L 140.0 135.9 L 140.0 153.6 L 128.0 159.6 L 128.0 153.6 L 94.13999996185302 153.6 L 95.9 154.4 L 102.8 157.4 L 109.9 160.2 L 117.4 162.8 L 123.15656681060791 164.45501298904418 L 126.8 162.5 L 130.7 160.2 L 134.6 158.1 L 138.4 156.2 L 145.6 152.4 L 149.1 150.7 L 152.4 148.9 L 155.6 147.2 L 157.82620916366577 146.05098876953124 L 157.8 146.0 L 157.84588212966918 146.0408350944519 L 158.7 145.6 L 159.48855266571044 147.50281190872192 L 167.8 154.9 L 168.0 158.0 L 164.1 156.3800000190735 L 163.3 156.7 L 159.9 157.7 L 156.3 158.7 L 152.6 159.8 L 148.8 160.8 L 144.9 161.8 L 140.8 162.8 L 136.6 163.8 L 132.3 164.7 L 127.8 165.5 L 127.31460123062134 165.5844171524048 L 133.7 167.2 L 142.5 169.0 L 151.8 170.6 L 161.5 171.9 L 171.7 172.9 L 182.1 174.1 L 170.2 186.0 L 159.6 184.3 L 149.6 182.2 L 140.0 179.8 L 131.0 177.0 L 122.4 174.0 L 114.4 170.5 L 108.9388349533081 167.73300971984864 L 109.1 168.7 L 102.7 170.8 L 96.1 172.7 L 89.1 174.5 L 81.9 176.3 L 74.4 178.0 L 66.6 179.7 L 58.6 181.4 L 50.3 183.2 L 41.8 185.0 L 36.954555702209475 185.97997751235962 L 35.4 189.4 L 32.9 186.8 L 29.0 175.2 L 30.9 174.9 L 39.9 173.7 L 48.5 172.6 L 55.0 171.74880952835082 L 55.0 123.98285713195801 L 48.9 125.9 L 37.5 129.1 L 25.3 132.0 L 12.2 134.6 L 11.7 132.9 L 24.2 128.3 L 35.9 123.9 L 46.7 119.7 L 56.7 115.5 L 65.9 111.4 L 74.1 107.2 L 81.5 103.1 L 88.0 99.0 L 93.6 95.0 L 98.3 91.0 L 98.33732690811158 91.04459829330445 L 98.5 90.9 L 106.0 100.2 L 106.20898876190185 102.0808988571167 L 112.6 104.3 L 120.1 106.7 L 127.9 109.0 L 136.1 111.2 L 144.5 113.2 L 153.3 115.0 L 162.5 116.7 L 172.0 118.2 L 181.9 119.4 L 191.8 120.9 L 180.0 132.5 L 169.8 130.5 Z M 67.0 153.6 L 67.0 170.28354434967042 L 73.0 169.6 L 80.6 168.8 L 88.0 168.0 L 95.2 167.4 L 102.1 167.1 L 107.37848663330078 166.94243326187134 L 106.9 166.7 L 100.0 162.6 L 93.7 158.0 L 88.95490198135376 153.6 Z M 67.0 142.7 L 67.0 149.6 L 128.0 149.6 L 128.0 142.7 Z M 67.0 131.9 L 67.0 138.7 L 128.0 138.7 L 128.0 131.9 Z M 35.8 95.0 L 23.8 101.0 L 23.8 12.9 L 35.8 18.9 L 76.2 18.9 L 86.2 8.9 L 98.2 18.9 L 98.2 22.9 L 67.0 22.9 L 67.0 37.5 L 81.5 37.5 L 87.5 32.5 L 98.5 41.5 L 93.5 45.5 L 93.5 64.7 L 81.5 70.7 L 81.5 62.7 L 67.0 62.7 L 67.0 79.0 L 78.5 79.0 L 88.5 69.0 L 100.5 79.0 L 100.5 83.0 L 35.8 83.0 Z M 141.2361110687256 19.558333301544188 L 140.70151128768921 27.577330017089842 L 142.5 36.3 L 145.0 45.0 L 148.2 52.9 L 152.0 59.9 L 156.4 66.0 L 161.5 71.4 L 167.3 76.1 L 173.7 80.0 L 180.9 83.3 L 187.0 86.0 L 175.6 95.4 L 167.3 90.8 L 160.0 85.4 L 153.6 79.1 L 148.2 72.1 L 143.8 64.3 L 140.4 55.9 L 138.0 46.9 L 137.55166788101195 43.7936990737915 L 136.2 48.9 L 132.5 58.3 L 127.9 66.7 L 122.2 74.2 L 115.7 80.6 L 108.2 85.9 L 99.9 90.0 L 90.8 93.0 L 90.2 91.3 L 98.2 86.7 L 105.1 81.5 L 111.2 75.8 L 116.3 69.4 L 120.6 62.4 L 124.0 54.7 L 126.6 46.1 L 128.4 36.8 L 129.3 26.6 L 129.5 15.6 L 129.5 13.2 L 141.5 15.6 L 144.5 17.6 Z M 35.8 62.7 L 35.8 79.0 L 55.0 79.0 L 55.0 62.7 Z M 35.8 58.7 L 81.5 58.7 L 81.5 41.5 L 35.8 41.5 Z M 35.8 22.9 L 35.8 37.5 L 55.0 37.5 L 55.0 22.9 Z " />
</g>
</svg>
