<svg xmlns="http://www.w3.org/2000/svg" xmlns:xlink="http://www.w3.org/1999/xlink" version="1.1" baseProfile="full" viewBox="0 0 200 200" width="200" height="200">
<g fill="black">
<path d="M 163.9 111.4 L 165.7 114.5 L 161.4366720199585 114.94103393554687 L 160.7 116.0 L 159.1 118.4 L 157.4 120.7 L 155.7 123.1 L 153.9 125.5 L 152.0 127.9 L 150.1 130.4 L 148.0 132.8 L 147.8615385055542 133.0 L 162.9 133.0 L 172.9 123.0 L 184.9 133.0 L 184.9 137.0 L 140.0 137.0 L 140.0 157.0 L 157.7 157.0 L 167.7 147.0 L 179.7 157.0 L 179.7 161.0 L 140.0 161.0 L 140.0 183.0 L 128.0 189.0 L 128.0 161.0 L 90.3 161.0 L 90.3 157.0 L 128.0 157.0 L 128.0 137.0 L 84.0 137.0 L 84.0 133.0 L 145.1689655303955 133.0 L 145.7 131.6 L 146.4 128.5 L 147.2 125.5 L 148.1 122.6 L 148.9 119.7 L 149.8 116.9 L 150.6 114.2 L 151.5 111.5 L 152.8001832962036 107.27440443038941 L 152.6 107.2 L 153.6 105.1 Z M 67.1 49.7 L 65.6 46.8 L 63.8 43.8 L 61.8 40.9 L 59.5 38.0 L 57.0 35.0 L 54.3 32.1 L 51.4 29.1 L 51.23921356201172 28.954287242889404 L 48.7 34.3 L 44.8 42.0 L 40.8 49.4 L 36.6 56.5 L 32.2 63.2 L 27.7 69.6 L 26.02976188659668 71.81488094329833 L 36.4 77.0 L 61.5 77.0 L 67.5 72.0 L 78.5 81.0 L 73.5 85.0 L 73.5 127.0 L 61.5 133.0 L 61.5 125.0 L 36.4 125.0 L 36.4 145.0 L 59.61818180084229 145.0 L 67.8 136.0 L 77.8 145.0 L 77.8 149.0 L 36.4 149.0 L 36.4 168.0 L 60.418181800842284 168.0 L 68.6 159.0 L 78.6 168.0 L 78.6 172.0 L 36.4 172.0 L 36.4 183.0 L 24.4 189.0 L 24.4 73.97608699798585 L 23.1 75.7 L 18.1 81.3 L 12.9 86.5 L 11.5 85.4 L 15.1 79.1 L 18.6 72.7 L 22.2 66.1 L 25.7 59.4 L 29.1 52.4 L 32.5 45.2 L 35.8 37.7 L 38.9 30.0 L 42.0 22.0 L 44.63495950698852 14.709945392608642 L 44.6 14.7 L 45.5 12.4 L 56.2 18.0 L 58.2 21.0 L 54.579500102996825 21.63517541885376 L 52.52599096298218 26.241695976257326 L 53.1 26.5 L 57.1 28.4 L 60.8 30.5 L 64.3 32.9 L 67.5 35.4 L 70.6 38.1 L 73.4 41.0 L 76.0 44.1 L 78.3 47.3 L 80.4 50.7 L 80.5 55.3 L 77.5 58.7 L 72.9 58.8 L 69.5 55.7 L 68.4 52.7 Z M 112.3 124.5 L 111.9 122.3 L 110.9 117.9 L 110.2 115.6 L 109.6 113.3 L 108.8 110.9 L 108.1 108.5 L 106.8 106.3 L 108.2 105.2 L 110.0 107.1 L 112.0 108.8 L 113.9 110.6 L 115.7 112.5 L 117.4 114.5 L 119.0 116.5 L 120.4 118.7 L 121.8 120.8 L 123.1 123.1 L 124.3 125.4 L 123.8 129.9 L 120.2 132.8 L 115.7 132.3 L 112.8 128.8 L 112.6 126.6 Z M 36.4 102.0 L 36.4 121.0 L 61.5 121.0 L 61.5 102.0 Z M 79.9 101.0 L 128.0 101.0 L 128.0 84.0 L 92.4 84.0 L 92.4 80.0 L 128.0 80.0 L 128.0 61.0 L 140.0 63.0 L 143.0 65.0 L 140.0 66.8 L 140.0 80.0 L 157.4181818008423 80.0 L 165.6 71.0 L 175.6 80.0 L 175.6 84.0 L 140.0 84.0 L 140.0 101.0 L 166.0 101.0 L 176.0 91.0 L 188.0 101.0 L 188.0 105.0 L 79.9 105.0 Z M 36.4 81.0 L 36.4 98.0 L 61.5 98.0 L 61.5 81.0 Z M 99.0 66.4 L 87.0 72.4 L 87.0 16.0 L 99.0 22.0 L 168.9 22.0 L 174.9 17.0 L 185.9 26.0 L 180.9 30.0 L 180.9 63.4 L 168.9 69.4 L 168.9 59.4 L 99.0 59.4 Z M 68.3 59.0 L 68.3 63.0 L 35.1 63.0 L 35.1 59.0 L 54.077777767181395 59.0 L 60.3 52.0 Z M 99.0 26.0 L 99.0 55.4 L 114.3 55.4 L 114.3 26.0 Z M 126.3 26.0 L 126.3 55.4 L 141.6 55.4 L 141.6 26.0 Z M 153.6 26.0 L 153.6 55.4 L 168.9 55.4 L 168.9 26.0 Z " />
</g>
</svg>
