<svg xmlns="http://www.w3.org/2000/svg" xmlns:xlink="http://www.w3.org/1999/xlink" version="1.1" baseProfile="full" viewBox="0 0 200 200" width="200" height="200">
<g fill="black">
<path d="M 176.0 151.2 L 178.0 151.2 L 176.0 172.2 L 179.3 174.3 L 181.5 177.7 L 179.3 181.0 L 176.0 183.2 L 52.0 183.2 L 49.4 183.1 L 47.0 182.7 L 44.6 181.9 L 42.4 180.8 L 40.4 179.2 L 38.7 177.3 L 37.5 175.1 L 36.6 172.7 L 36.1 170.2 L 36.0 167.7 L 36.0 115.1 L 48.0 121.1 L 151.0 121.1 L 157.0 116.1 L 168.0 125.1 L 163.0 129.1 L 163.0 153.8 L 151.0 159.8 L 151.0 149.8 L 48.0 149.8 L 48.0 168.9 L 48.1 169.8 L 48.2 170.4 L 48.4 170.8 L 48.5 171.1 L 48.7 171.3 L 49.1 171.6 L 49.7 171.8 L 50.7 172.0 L 52.0 172.2 L 170.5 172.2 Z M 48.0 125.1 L 48.0 145.8 L 94.0 145.8 L 94.0 125.1 Z M 106.0 125.1 L 106.0 145.8 L 151.0 145.8 L 151.0 125.1 Z M 37.0 75.0 L 37.0 110.0 L 25.0 116.0 L 25.0 65.0 L 37.0 71.0 L 163.0 71.0 L 169.0 66.0 L 180.0 75.0 L 175.0 79.0 L 175.0 98.0 L 174.8 100.5 L 174.4 103.0 L 173.6 105.4 L 172.3 107.7 L 170.7 109.7 L 168.7 111.3 L 166.4 112.6 L 164.0 113.4 L 161.5 113.8 L 159.0 114.0 L 159.0 108.0 L 140.8 105.26999998092651 L 140.8 107.4 L 128.8 113.4 L 128.8 107.4 L 71.2 107.4 L 59.2 113.4 L 59.2 79.5 L 71.2 85.5 L 128.8 85.5 L 134.8 80.5 L 145.8 89.5 L 140.8 93.5 L 140.8 102.0 L 159.0 102.0 L 160.2 101.9 L 161.1 101.7 L 162.0 101.4 L 162.4 101.0 L 162.7 100.1 L 162.9 99.2 L 163.0 98.0 L 163.0 75.0 Z M 71.2 89.5 L 71.2 103.4 L 128.8 103.4 L 128.8 89.5 Z M 58.0 41.0 L 142.0 41.0 L 148.0 36.0 L 159.0 45.0 L 154.0 49.0 L 154.0 62.0 L 142.0 68.0 L 142.0 62.0 L 58.0 62.0 L 46.0 68.0 L 46.0 35.0 Z M 58.0 45.0 L 58.0 58.0 L 142.0 58.0 L 142.0 45.0 Z M 16.0 28.0 L 94.0 28.0 L 94.0 11.0 L 106.0 13.0 L 109.0 15.0 L 106.0 16.8 L 106.0 28.0 L 165.8181818008423 28.0 L 174.0 19.0 L 184.0 28.0 L 184.0 32.0 L 16.0 32.0 Z " />
</g>
</svg>
