<svg xmlns="http://www.w3.org/2000/svg" xmlns:xlink="http://www.w3.org/1999/xlink" version="1.1" baseProfile="full" viewBox="0 0 200 200" width="200" height="200">
<g fill="black">
<path d="M 131.0 167.2 L 131.5 170.8 L 127.72238864898682 169.51831045150757 L 126.9 170.1 L 122.5 172.9 L 117.9 175.6 L 113.0 178.0 L 108.0 180.4 L 102.7 182.5 L 97.2 184.5 L 91.5 186.2 L 85.5 187.7 L 79.2 188.8 L 78.7 187.1 L 84.2 184.1 L 89.5 181.2 L 94.6 178.5 L 99.4 175.7 L 104.0 172.9 L 108.4 170.0 L 112.5 167.1 L 116.4 164.1 L 120.0 161.1 L 122.62932748794556 158.63002576828003 L 122.6 158.6 L 122.95625 158.3229166984558 L 123.3 158.0 L 123.3281639099121 158.03365030288697 L 123.5 157.9 Z M 169.9 182.1 L 167.5 179.7 L 164.7 177.2 L 161.6 174.7 L 158.1 172.2 L 154.2 169.6 L 150.0 166.9 L 145.5 164.0 L 140.6 161.2 L 141.2 159.5 L 146.8 160.9 L 152.1 162.4 L 157.0 164.0 L 161.5 165.8 L 165.8 167.7 L 169.8 169.7 L 173.4 171.8 L 176.7 174.0 L 179.8 176.3 L 182.6 178.8 L 183.9 183.1 L 181.9 187.2 L 177.5 188.6 L 173.4 186.6 L 171.8 184.4 Z M 51.0 174.8 L 61.0 174.8 L 62.2 174.7 L 63.1 174.5 L 64.0 174.2 L 64.4 173.8 L 64.7 172.9 L 64.9 172.0 L 65.0 170.8 L 65.0 151.2 L 37.1 151.2 L 37.1 181.6 L 25.1 187.6 L 25.1 91.6 L 37.1 97.6 L 65.0 97.6 L 71.0 92.6 L 75.08356161117554 95.94109592437744 L 75.7 94.4 L 76.1 91.7 L 76.5 89.2 L 77.0 86.9 L 77.4 84.6 L 77.7 82.5 L 78.0 80.5 L 78.1 79.6 L 78.1 79.3 L 23.927027034759522 79.3 L 24.1 80.9 L 24.4 84.3 L 24.5 87.5 L 24.4 90.4 L 24.2 93.1 L 23.7 95.7 L 22.9 98.1 L 21.7 100.4 L 17.5 102.3 L 13.2 100.8 L 11.3 96.6 L 12.8 92.3 L 13.4 92.2 L 14.3 91.5 L 15.2 90.3 L 16.2 88.5 L 17.1 86.3 L 18.0 83.6 L 18.8 80.5 L 19.6 77.1 L 20.5 73.2 L 20.8 69.0 L 22.6 68.9 L 23.0 73.2 L 23.367500019073486 75.3 L 25.5 75.3 L 25.5 16.5 L 36.5 22.0 L 65.6 22.0 L 71.1 17.0 L 81.6 26.0 L 76.6 29.5 L 76.6 75.3 L 78.1 75.3 L 84.1 70.3 L 91.0666666984558 76.0 L 130.0 76.0 L 130.0 60.0 L 111.0 60.0 L 111.0 63.0 L 99.0 69.0 L 99.0 26.0 L 111.0 32.0 L 130.0 32.0 L 130.0 14.0 L 142.0 16.0 L 145.0 18.0 L 142.0 19.8 L 142.0 32.0 L 161.0 32.0 L 167.0 27.0 L 178.0 36.0 L 173.0 40.0 L 173.0 62.0 L 161.0 68.0 L 161.0 60.0 L 142.0 60.0 L 142.0 76.0 L 169.8181818008423 76.0 L 178.0 67.0 L 188.0 76.0 L 188.0 80.0 L 93.9333333015442 80.0 L 90.1 82.3 L 86.83284673690795 83.66131391525269 L 86.6 84.0 L 85.3 85.7 L 84.0 87.5 L 82.6 89.4 L 81.1 91.3 L 79.5 93.3 L 77.7 95.4 L 76.61029024124146 97.19023742675782 L 82.0 101.6 L 77.0 105.6 L 77.0 170.8 L 76.8 173.3 L 76.4 175.8 L 75.6 178.2 L 74.4 180.5 L 72.7 182.5 L 70.7 184.2 L 68.4 185.4 L 66.0 186.2 L 63.5 186.6 L 61.0 186.8 L 61.0 180.8 L 51.0 177.8 Z M 112.0 92.0 L 160.0 92.0 L 166.0 87.0 L 177.0 96.0 L 172.0 100.0 L 172.0 152.0 L 160.0 158.0 L 160.0 152.0 L 112.0 152.0 L 112.0 155.0 L 100.0 161.0 L 100.0 86.0 Z M 112.0 133.0 L 112.0 148.0 L 160.0 148.0 L 160.0 133.0 Z M 37.1 126.4 L 37.1 147.2 L 65.0 147.2 L 65.0 126.4 Z M 112.0 114.0 L 112.0 129.0 L 160.0 129.0 L 160.0 114.0 Z M 37.1 101.6 L 37.1 122.4 L 65.0 122.4 L 65.0 101.6 Z M 112.0 96.0 L 112.0 110.0 L 160.0 110.0 L 160.0 96.0 Z M 36.5 26.0 L 36.5 75.3 L 46.4 75.3 L 46.4 40.0 L 56.4 45.0 L 65.6 45.0 L 65.6 26.0 Z M 56.4 49.0 L 56.4 75.3 L 65.6 75.3 L 65.6 49.0 Z M 111.0 36.0 L 111.0 56.0 L 130.0 56.0 L 130.0 36.0 Z M 142.0 36.0 L 142.0 56.0 L 161.0 56.0 L 161.0 36.0 Z " />
</g>
</svg>
