<svg xmlns="http://www.w3.org/2000/svg" xmlns:xlink="http://www.w3.org/1999/xlink" version="1.1" baseProfile="full" viewBox="0 0 200 200" width="200" height="200">
<g fill="black">
<path d="M 14.0 182.2 L 40.0 182.2 L 40.0 147.6 L 52.0 153.6 L 148.0 153.6 L 154.0 148.6 L 165.0 157.6 L 160.0 161.6 L 160.0 182.2 L 164.0 182.2 L 174.0 172.2 L 186.0 182.2 L 186.0 186.2 L 14.0 186.2 Z M 52.0 157.6 L 52.0 182.2 L 76.0 182.2 L 76.0 157.6 Z M 88.0 157.6 L 88.0 182.2 L 112.0 182.2 L 112.0 157.6 Z M 124.0 157.6 L 124.0 182.2 L 148.0 182.2 L 148.0 157.6 Z M 52.9 141.0 L 70.9 141.0 L 72.2 140.9 L 73.1 140.8 L 73.7 140.6 L 74.0 140.4 L 74.2 140.3 L 74.5 139.7 L 74.7 139.2 L 74.9 138.2 L 74.9 116.2022988319397 L 69.7 116.8 L 60.9 117.7 L 53.15 118.475 L 62.3 120.0 L 65.3 122.0 L 62.3 123.8 L 62.3 133.5 L 50.3 139.5 L 50.3 118.74065933227538 L 42.8 119.4 L 41.25861644744873 119.53259210586548 L 40.5 124.0 L 39.0 129.0 L 37.0 133.6 L 34.5 137.7 L 31.4 141.4 L 27.8 144.5 L 23.8 147.1 L 19.4 149.1 L 14.7 150.7 L 13.9 149.0 L 17.7 146.2 L 20.9 143.2 L 23.6 140.1 L 25.7 136.9 L 27.5 133.6 L 28.7 130.1 L 29.6 126.3 L 30.1 122.4 L 30.1 120.48936166763306 L 24.1 121.0 L 18.558811092376708 121.40404500961304 L 16.6 124.6 L 14.5 121.7 L 12.0 109.8 L 14.0 109.7 L 23.6 109.6 L 29.8 109.5340425491333 L 29.8 82.1 L 41.8 88.1 L 47.68823528289795 88.1 L 49.1 86.5 L 50.4 84.9 L 51.7 83.5 L 52.8 82.0 L 53.8 80.7 L 54.7 79.4 L 55.4 78.1 L 55.9 77.0 L 55.970007514953615 76.8074794769287 L 55.7 76.6 L 56.27575759887695 75.96666669845581 L 56.3 75.9 L 56.32001123428345 75.91798763275146 L 56.7 75.5 L 65.2 83.9 L 66.1 87.4 L 60.76075944900513 86.36962022781373 L 60.5 86.5 L 56.9 87.9 L 56.26666669845581 88.1 L 74.9 88.1 L 80.9 83.1 L 91.9 92.1 L 86.9 96.1 L 86.9 109.30705881118774 L 95.1 109.5 L 101.08725938796997 109.8606782913208 L 103.4 108.4 L 106.6 106.1 L 109.3 103.9 L 111.4 101.8 L 112.9 99.8 L 113.8 98.0 L 114.2 96.5 L 114.2 95.2 L 113.9 94.2 L 113.9 76.5 L 125.9 82.5 L 150.2 82.5 L 156.2 77.5 L 167.2 86.5 L 162.2 90.5 L 162.2 96.8 L 162.1 98.1 L 162.1 99.8 L 162.3 100.8 L 162.5 101.2 L 163.0 101.7 L 163.7 102.1 L 164.8 102.5 L 166.2 102.8 L 177.5 102.8 L 181.5 93.8 L 183.5 93.8 L 181.5 102.8 L 183.9 104.4 L 185.5 106.8 L 183.9 109.2 L 181.5 110.8 L 167.4666666984558 110.8 L 175.9 117.7 L 170.9 120.7 L 167.2111110687256 122.23703699111938 L 165.1 124.7 L 159.6 129.8 L 153.2 134.3 L 151.83170967102052 135.07086782455445 L 152.7 135.3 L 160.6 136.8 L 169.4 138.0 L 179.0 138.8 L 189.6 139.9 L 177.7 152.0 L 167.6 150.3 L 158.3 148.3 L 149.8 145.9 L 142.1 143.1 L 138.7119927406311 141.47964868545532 L 138.2 141.7 L 129.6 144.5 L 120.2 146.9 L 110.1 148.6 L 99.2 149.8 L 87.6 150.3 L 87.4 148.6 L 98.7 146.1 L 109.0 143.4 L 118.5 140.5 L 127.1 137.3 L 129.45772142410277 136.25892820358277 L 129.2 136.1 L 124.2 131.9 L 120.1 127.3 L 117.2 122.3 L 115.7245283126831 117.7 L 105.7 117.7 L 105.7 113.7 L 158.9 113.7 L 159.14878044128417 113.49268293380737 L 159.9 112.4 L 160.21042127609252 112.60798225402831 L 162.4149606704712 110.77086610794068 L 161.6 110.7 L 159.3 110.1 L 157.2 109.2 L 155.2 107.8 L 153.5 106.1 L 152.2 104.0 L 151.2 101.8 L 150.6 99.3 L 150.2 96.8 L 150.2 86.5 L 125.9 86.5 L 125.9 94.2 L 125.1 97.7 L 123.6 100.8 L 121.6 103.5 L 119.1 105.8 L 116.2 107.8 L 112.9 109.5 L 109.2 111.0 L 105.1 112.2 L 100.5 113.3 L 95.7 114.6 L 95.26832065582275 113.30496187210083 L 87.0 114.6 L 86.9 114.61395349502564 L 86.9 137.0 L 86.8 139.6 L 86.3 142.1 L 85.5 144.5 L 84.3 146.7 L 82.7 148.8 L 80.7 150.4 L 78.4 151.6 L 76.0 152.4 L 73.5 152.9 L 70.9 153.0 L 70.9 147.0 L 52.9 144.0 Z M 118.48648653030395 117.7 L 120.6 120.0 L 124.4 123.3 L 128.7 126.2 L 133.5 128.9 L 139.1 131.3 L 139.3221761703491 131.37290153503417 L 141.6 130.1 L 147.5 126.1 L 152.5 121.8 L 156.1543478012085 117.7 Z M 56.1 104.9 L 55.9 103.9 L 55.4 102.7 L 54.7 101.4 L 53.7 100.0 L 52.4 98.6 L 50.8 97.1 L 49.0 95.5 L 46.7 94.6 L 47.3 92.9 L 49.8 93.6 L 52.3 93.9 L 54.7 94.3 L 56.9 94.9 L 59.0 95.7 L 61.0 96.7 L 62.8 97.9 L 64.5 99.3 L 66.0 101.0 L 67.3 102.9 L 66.8 107.5 L 64.81623668670655 109.25037937164306 L 69.3 109.2 L 74.9 109.2 L 74.9 92.1 L 41.8 92.1 L 41.8 109.40537633895875 L 42.3 109.4 L 51.4 109.3 L 58.21999998092652 109.3 L 55.9 106.5 L 56.0 105.8 Z M 91.4 71.6 L 90.1 69.8 L 88.6 68.1 L 86.9 66.3 L 85.479816532135 64.87981653213501 L 79.7 66.6 L 71.7 68.9 L 64.1 70.8 L 56.9 72.5 L 50.1 74.0 L 43.7 75.4 L 37.8 76.6 L 32.3 77.7 L 27.2 78.6 L 26.594329929351808 78.69020614624023 L 24.7 82.1 L 22.5 79.3 L 19.4 67.6 L 21.4 67.4 L 26.0 67.2 L 31.0 67.0 L 35.92924528121948 66.64150943756104 L 36.3 65.9 L 37.5 63.6 L 38.6 61.3 L 39.6 59.2 L 40.5 57.2 L 41.1222222328186 55.6 L 12.0 55.6 L 12.0 51.6 L 32.0 51.6 L 32.0 13.4 L 44.0 19.4 L 90.81818180084228 19.4 L 99.0 10.4 L 109.0 19.4 L 109.0 23.4 L 44.0 23.4 L 44.0 30.4 L 88.77777776718139 30.4 L 95.0 23.4 L 103.0 30.4 L 103.0 34.4 L 95.91428575515747 34.4 L 103.0 40.6 L 103.0 43.5 L 112.0 51.6 L 112.0 55.6 L 54.0 55.6 L 53.1 56.6 L 51.8 58.0 L 48.8 60.8 L 47.1 62.2 L 45.3 63.7 L 43.4 65.2 L 42.0569766998291 66.22325582504273 L 42.4 66.2 L 48.8 65.6 L 55.7 65.0 L 63.0 64.3 L 70.8 63.6 L 79.0 62.9 L 82.91451797485351 62.633101081848146 L 80.7 60.9 L 78.3 59.0 L 75.6 57.5 L 76.2 55.8 L 79.3 56.7 L 82.4 57.3 L 85.4 58.1 L 88.3 59.0 L 91.0 60.1 L 93.6 61.3 L 96.0 62.6 L 98.4 64.0 L 100.6 65.6 L 102.7 67.3 L 104.0 71.7 L 101.9 75.8 L 97.5 77.0 L 93.4 74.9 L 92.5 73.3 Z M 182.84276456832885 51.27199172973633 L 189.0 57.5 L 189.2 60.8 L 185.49699697494506 59.293693733215335 L 181.8 61.0 L 176.1 63.2 L 169.8 65.2 L 163.0 67.2 L 155.6 68.9 L 147.7 70.6 L 139.2 72.0 L 130.1 73.3 L 120.4 74.3 L 110.1 75.0 L 109.8 73.2 L 119.7 70.6 L 129.0 68.0 L 137.8 65.6 L 145.9 63.2 L 153.3 60.8 L 160.2 58.3 L 166.4 55.8 L 172.0 53.3 L 176.9 50.7 L 181.1 48.2 Z M 173.8917236328125 33.362603187561035 L 180.2 39.6 L 180.3 43.0 L 176.6078694343567 41.43553791046143 L 173.4 42.9 L 168.4 44.9 L 163.0 46.8 L 157.2 48.6 L 151.1 50.4 L 144.5 52.0 L 137.6 53.6 L 130.2 55.0 L 122.4 56.2 L 114.2 57.2 L 113.7 55.4 L 121.5 52.6 L 128.8 49.8 L 135.8 47.3 L 142.3 44.8 L 148.4 42.3 L 154.0 39.9 L 159.2 37.5 L 164.0 35.1 L 168.3 32.7 L 171.3255446434021 30.838126373291015 L 171.3 30.8 L 171.33356685638427 30.833189678192138 L 172.2 30.3 Z M 44.0 44.6 L 44.0 51.6 L 93.81818180084228 51.6 L 100.18181819915772 44.6 Z M 44.0 34.4 L 44.0 40.6 L 88.77777776718139 40.6 L 94.28888893127441 34.4 Z M 168.05382165908813 15.286624240875245 L 173.9 21.2 L 174.1 24.6 L 170.36989192962648 23.082667922973634 L 167.9 24.2 L 163.4 26.2 L 158.5 28.1 L 153.2 29.9 L 147.5 31.8 L 141.5 33.6 L 135.1 35.4 L 128.2 37.1 L 120.9 38.7 L 113.2 40.1 L 112.7 38.3 L 119.8 35.1 L 126.5 32.0 L 132.9 29.2 L 138.8 26.5 L 144.4 23.9 L 149.6 21.4 L 154.4 18.9 L 158.7 16.5 L 162.6 14.2 L 165.2437054634094 12.462707805633546 L 165.2 12.4 L 165.2547924041748 12.455422115325927 L 166.1 11.9 Z " />
</g>
</svg>
