<svg xmlns="http://www.w3.org/2000/svg" xmlns:xlink="http://www.w3.org/1999/xlink" version="1.1" baseProfile="full" viewBox="0 0 200 200" width="200" height="200">
<g fill="black">
<path d="M 137.0 176.2 L 154.2 176.2 L 155.1 176.0 L 155.7 175.8 L 156.0 175.6 L 156.2 175.5 L 156.4 175.3 L 156.7 174.4 L 156.9 173.5 L 157.0 172.2 L 157.0 152.1 L 127.0 152.1 L 127.0 178.6 L 115.0 184.6 L 115.0 152.1 L 87.0 152.1 L 87.0 179.2 L 75.0 185.2 L 75.0 152.1 L 46.0 152.1 L 46.0 181.1 L 34.0 187.1 L 34.0 142.1 L 46.0 148.1 L 86.35 148.1 L 86.5 147.9 L 87.3 145.9 L 88.2 144.1 L 89.8 140.5 L 90.5 138.8 L 90.75 138.3 L 17.0 138.3 L 17.0 134.3 L 175.5 134.3 L 180.0 128.3 L 186.0 134.3 L 186.0 138.3 L 104.94324321746826 138.3 L 102.6 140.0 L 99.8 142.0 L 98.3 143.1 L 96.7 144.1 L 95.1 145.2 L 93.5 146.2 L 91.8 147.3 L 90.36000003814698 148.1 L 157.0 148.1 L 163.0 143.1 L 174.0 152.1 L 169.0 156.1 L 169.0 172.2 L 168.8 174.8 L 168.4 177.3 L 167.6 179.7 L 166.3 182.0 L 164.7 184.0 L 162.7 185.6 L 160.4 186.9 L 158.0 187.7 L 155.5 188.1 L 153.0 188.2 L 153.0 182.2 L 137.0 179.2 Z M 13.2 116.9 L 13.2 112.3 L 16.4 109.0 L 18.3 108.6 L 20.0 108.0 L 21.5 107.2 L 23.0 106.2 L 24.4 105.0 L 25.7 103.4 L 26.9 101.4 L 28.0 99.1 L 28.9 96.4 L 29.1 93.4 L 30.9 93.3 L 31.2 96.5 L 31.335483837127686 97.2 L 94.0 97.2 L 94.0 89.2 L 34.0 89.2 L 34.0 85.2 L 155.7777777671814 85.2 L 162.0 78.2 L 170.0 85.2 L 170.0 89.2 L 106.0 89.2 L 106.0 97.2 L 173.0 97.2 L 173.68571424484253 96.62857141494752 L 174.4 95.2 L 174.88977394104003 95.62518835067749 L 179.0 92.2 L 190.0 101.2 L 185.0 104.2 L 175.56000003814697 108.13333330154418 L 174.9 108.5 L 173.1 109.4 L 171.2 110.3 L 167.2 111.9 L 165.5 113.0 L 164.4 111.6 L 165.9 110.2 L 166.9 108.4 L 168.0 106.6 L 169.0 104.9 L 170.0 103.3 L 171.0 101.6 L 171.225 101.2 L 151.55555553436278 101.2 L 161.0 109.7 L 161.0 113.7 L 116.0 113.7 L 116.0 109.7 L 142.8181818008423 109.7 L 150.5454545021057 101.2 L 106.0 101.2 L 106.0 125.8 L 94.0 131.8 L 94.0 101.2 L 74.5555555343628 101.2 L 84.0 109.7 L 84.0 113.7 L 37.0 113.7 L 37.0 109.7 L 65.81818180084228 109.7 L 73.54545450210571 101.2 L 31.853333377838133 101.2 L 31.9 102.6 L 31.6 105.5 L 30.9 108.4 L 29.8 111.2 L 28.2 113.8 L 26.2 116.1 L 23.8 118.3 L 21.0 120.1 L 16.5 120.0 Z M 168.0 121.1 L 168.0 125.1 L 116.0 125.1 L 116.0 121.1 L 157.5 121.1 L 162.0 115.1 Z M 84.0 121.1 L 84.0 125.1 L 32.0 125.1 L 32.0 121.1 L 73.5 121.1 L 78.0 115.1 Z M 91.3 74.3 L 90.0 72.5 L 88.5 70.7 L 86.9 68.8 L 85.44516448974609 67.42173480987549 L 79.7 69.2 L 71.7 71.5 L 64.1 73.5 L 56.9 75.3 L 50.1 76.9 L 43.8 78.3 L 32.3 80.6 L 27.2 81.5 L 26.69661588668823 81.58568239212036 L 24.8 85.1 L 22.5 82.3 L 19.4 70.6 L 21.4 70.4 L 25.9 70.2 L 31.0 70.0 L 35.76283187866211 69.64719762802125 L 36.2 68.7 L 37.4 66.2 L 38.5 63.9 L 39.5 61.7 L 40.4 59.7 L 41.2 57.8 L 41.23333330154419 57.7 L 12.0 57.7 L 12.0 53.7 L 32.0 53.7 L 32.0 14.1 L 44.0 20.1 L 90.81818180084228 20.1 L 99.0 11.1 L 109.0 20.1 L 109.0 24.1 L 44.0 24.1 L 44.0 31.6 L 88.77777776718139 31.6 L 95.0 24.6 L 103.0 31.6 L 103.0 35.6 L 95.34285717010498 35.6 L 103.0 42.3 L 103.0 46.3 L 44.0 46.3 L 44.0 53.7 L 97.77777776718139 53.7 L 104.0 46.7 L 112.0 53.7 L 112.0 57.7 L 54.006896591186525 57.7 L 53.2 58.6 L 51.8 60.1 L 50.4 61.5 L 48.8 63.0 L 47.2 64.6 L 45.4 66.1 L 43.4 67.8 L 41.70232553482056 69.15813951492309 L 42.4 69.1 L 48.8 68.5 L 55.6 67.8 L 63.0 67.0 L 70.7 66.3 L 79.0 65.5 L 82.88915662765503 65.19063529968261 L 80.7 63.3 L 78.3 61.3 L 75.5 59.8 L 76.2 58.1 L 79.3 59.1 L 82.5 59.7 L 85.5 60.6 L 88.3 61.5 L 91.1 62.7 L 93.7 63.9 L 96.2 65.3 L 98.5 66.9 L 100.7 68.6 L 102.8 70.4 L 104.0 74.8 L 101.8 78.8 L 97.4 80.0 L 93.4 77.8 L 92.4 76.0 Z M 183.08109617233276 53.84809846878052 L 188.8 59.7 L 188.9 63.1 L 185.2497405052185 61.58954782485962 L 181.9 63.2 L 176.2 65.5 L 169.9 67.6 L 163.1 69.7 L 155.7 71.5 L 147.7 73.3 L 139.2 74.8 L 130.1 76.2 L 120.4 77.3 L 110.1 78.1 L 109.8 76.3 L 119.7 73.5 L 129.0 70.9 L 137.7 68.4 L 145.8 65.9 L 153.3 63.4 L 160.1 60.8 L 166.3 58.3 L 171.9 55.6 L 176.8 53.0 L 181.0 50.3 Z M 174.05382165908813 35.086624240875246 L 179.9 41.0 L 180.1 44.4 L 176.42048292160035 42.90324726104736 L 173.5 44.3 L 168.5 46.4 L 163.1 48.4 L 157.3 50.3 L 151.2 52.2 L 144.6 53.9 L 137.6 55.6 L 130.2 57.1 L 122.4 58.4 L 114.2 59.4 L 113.7 57.7 L 121.5 54.7 L 128.8 51.9 L 135.7 49.3 L 142.2 46.7 L 148.3 44.2 L 154.0 41.6 L 159.2 39.1 L 163.9 36.6 L 168.2 34.2 L 171.2370569229126 32.25316867828369 L 171.2 32.2 L 171.24654893875123 32.247084045410155 L 172.1 31.7 Z M 44.0 35.6 L 44.0 42.3 L 88.77777776718139 42.3 L 94.73333330154419 35.6 Z M 168.28508977890016 16.296197605133056 L 173.7 21.9 L 173.8 25.3 L 170.16452512741088 23.76927375793457 L 168.0 24.8 L 163.5 26.8 L 158.6 28.8 L 153.3 30.8 L 147.6 32.8 L 141.5 34.7 L 135.1 36.6 L 128.2 38.4 L 121.0 40.1 L 113.2 41.6 L 112.7 39.8 L 119.8 36.5 L 126.5 33.4 L 132.8 30.4 L 138.8 27.6 L 144.4 24.9 L 149.5 22.3 L 154.3 19.7 L 158.6 17.2 L 162.5 14.8 L 165.1448745727539 13.061939525604249 L 165.1 13.0 L 165.15403499603272 13.055919933319093 L 166.0 12.5 Z " />
</g>
</svg>
