<svg xmlns="http://www.w3.org/2000/svg" xmlns:xlink="http://www.w3.org/1999/xlink" version="1.1" baseProfile="full" viewBox="0 0 200 200" width="200" height="200">
<g fill="black">
<path d="M 15.1 188.2 L 13.1 184.1 L 14.5 179.8 L 16.4 177.8 L 18.3 175.4 L 20.1 172.8 L 21.8 169.7 L 23.3 166.3 L 24.7 162.6 L 25.9 158.4 L 27.1 154.0 L 28.2 149.1 L 29.0 144.0 L 30.8 144.0 L 31.4 149.3 L 31.9 154.4 L 31.9 159.3 L 31.7 164.0 L 31.1 168.4 L 30.2 172.7 L 29.0 176.8 L 27.6 180.6 L 25.7 184.2 L 23.6 187.6 L 19.5 189.6 Z M 182.0 142.9 L 184.0 142.9 L 182.0 167.9 L 185.6 170.3 L 188.0 173.9 L 185.6 177.5 L 182.0 179.9 L 136.6 179.9 L 134.0 179.7 L 131.5 179.3 L 129.1 178.5 L 126.8 177.3 L 124.8 175.6 L 123.2 173.6 L 121.9 171.3 L 121.1 168.9 L 120.7 166.4 L 120.6 163.9 L 120.6 18.3 L 132.6 20.3 L 135.6 22.3 L 132.6 24.1 L 132.6 165.1 L 132.8 166.0 L 133.1 166.9 L 133.5 167.3 L 133.8 167.5 L 134.4 167.6 L 135.3 167.8 L 136.6 167.9 L 176.0 167.9 Z M 72.2 168.8 L 71.6 166.2 L 70.8 163.6 L 69.8 160.9 L 68.6 158.2 L 67.1 155.5 L 65.4 152.8 L 63.5 149.9 L 61.2 147.3 L 62.3 145.9 L 65.3 147.9 L 68.4 149.8 L 71.3 151.9 L 73.9 154.3 L 76.3 156.8 L 78.4 159.5 L 80.3 162.4 L 82.0 165.4 L 83.4 168.6 L 84.5 171.9 L 83.5 176.4 L 79.7 178.9 L 75.2 177.9 L 72.7 174.0 L 72.5 171.4 Z M 50.9 182.9 L 47.0 180.6 L 45.8 176.2 L 46.4 174.1 L 46.8 171.8 L 47.0 169.3 L 47.1 166.7 L 47.0 163.8 L 46.7 160.8 L 46.2 157.7 L 45.6 154.3 L 44.8 150.8 L 43.5 147.3 L 45.1 146.4 L 47.2 149.6 L 49.5 152.7 L 51.4 155.8 L 53.0 158.9 L 54.4 162.0 L 55.6 165.1 L 56.5 168.3 L 57.2 171.4 L 57.5 174.6 L 57.7 177.8 L 55.3 181.7 Z M 97.4 164.5 L 96.2 161.9 L 94.9 159.5 L 93.4 157.0 L 91.7 154.6 L 89.8 152.2 L 87.7 149.8 L 85.4 147.3 L 82.8 145.2 L 83.7 143.7 L 86.9 145.1 L 90.2 146.4 L 93.3 147.9 L 96.2 149.7 L 98.9 151.8 L 101.5 154.0 L 104.0 156.4 L 106.2 159.0 L 108.3 161.8 L 110.2 164.8 L 110.2 169.4 L 107.1 172.7 L 102.5 172.7 L 99.2 169.6 L 98.4 167.0 Z M 26.1 138.0 L 26.1 63.3777777671814 L 23.2 66.6 L 18.5 71.3 L 13.5 75.5 L 12.1 74.4 L 15.5 68.8 L 19.0 63.3 L 22.3 57.7 L 25.7 52.0 L 28.9 46.2 L 32.0 40.2 L 35.0 34.0 L 37.9 27.7 L 40.6 21.2 L 42.932894706726074 15.410964870452881 L 42.9 15.4 L 43.8 13.2 L 54.3 19.2 L 56.3 22.2 L 52.596195697784424 22.710869598388673 L 51.0 26.0 L 47.5 32.5 L 47.2063491821289 33.0 L 76.3 33.0 L 82.3 28.0 L 93.3 37.0 L 88.3 40.0 L 85.3131004333496 41.24454145431518 L 84.5 42.4 L 82.4 45.0 L 79.9 47.7 L 77.1 50.5 L 74.0 53.3 L 70.6 56.3 L 66.9 59.3 L 62.7 62.3 L 60.43333330154419 64.0 L 88.1 64.0 L 94.1 59.0 L 105.1 68.0 L 100.1 72.0 L 100.1 132.0 L 88.1 138.0 L 88.1 132.0 L 38.1 132.0 Z M 38.1 100.0 L 38.1 128.0 L 57.1 128.0 L 57.1 100.0 Z M 69.1 100.0 L 69.1 128.0 L 88.1 128.0 L 88.1 100.0 Z M 38.1 68.0 L 38.1 96.0 L 57.1 96.0 L 57.1 68.0 Z M 69.1 68.0 L 69.1 96.0 L 88.1 96.0 L 88.1 68.0 Z M 43.8 38.8 L 40.0 44.8 L 36.1 50.7 L 32.0 56.2 L 29.294701957702635 59.59735097885132 L 38.1 64.0 L 57.35 64.0 L 60.6 60.1 L 63.6 56.0 L 66.3 52.3 L 68.8 48.7 L 71.0 45.4 L 72.8 42.4 L 74.3 39.5 L 75.5 37.0 L 44.85714282989502 37.0 Z " />
</g>
</svg>
