<svg xmlns="http://www.w3.org/2000/svg" xmlns:xlink="http://www.w3.org/1999/xlink" version="1.1" baseProfile="full" viewBox="0 0 200 200" width="200" height="200">
<g fill="black">
<path d="M 14.9 186.8 L 12.3 183.0 L 13.1 178.5 L 14.6 176.5 L 16.1 174.2 L 17.5 171.6 L 18.8 168.6 L 20.1 165.2 L 21.2 161.4 L 22.3 157.4 L 23.3 152.9 L 24.3 148.2 L 25.0 143.1 L 26.8 143.1 L 27.4 148.3 L 28.0 153.2 L 28.2 158.0 L 28.2 162.5 L 27.9 166.8 L 27.4 170.8 L 26.7 174.6 L 25.8 178.3 L 24.6 181.7 L 23.2 184.9 L 19.4 187.5 Z M 79.1 176.0 L 98.7 176.0 L 98.7 20.0 L 110.7 26.0 L 154.0 26.0 L 160.0 21.0 L 171.0 30.0 L 166.0 34.0 L 166.0 176.0 L 167.51818180084229 176.0 L 175.7 167.0 L 185.7 176.0 L 185.7 180.0 L 79.1 180.0 Z M 55.5 167.0 L 55.2 164.5 L 54.8 161.9 L 54.2 159.3 L 53.5 156.7 L 52.6 154.2 L 50.4 148.8 L 48.7 146.4 L 50.0 145.1 L 52.3 147.2 L 54.8 149.1 L 57.1 151.3 L 59.1 153.6 L 61.0 156.1 L 62.7 158.7 L 64.2 161.5 L 65.5 164.4 L 66.7 167.5 L 67.6 170.7 L 66.4 175.1 L 62.4 177.4 L 58.0 176.2 L 55.7 172.3 L 55.7 169.6 Z M 110.7 130.0 L 110.7 176.0 L 154.0 176.0 L 154.0 130.0 Z M 41.3 181.3 L 37.3 179.1 L 36.0 174.8 L 36.5 172.6 L 36.9 170.2 L 37.2 167.8 L 37.4 165.1 L 37.5 162.4 L 37.4 159.4 L 37.2 156.3 L 36.9 153.1 L 36.5 149.7 L 35.7 146.3 L 37.3 145.6 L 39.0 148.8 L 40.8 151.8 L 42.4 154.9 L 43.8 157.9 L 44.9 161.0 L 45.9 164.0 L 46.7 167.0 L 47.3 170.0 L 47.7 173.0 L 47.9 176.0 L 45.7 180.0 Z M 74.0 162.6 L 73.3 160.1 L 72.5 157.8 L 71.5 155.4 L 70.5 153.1 L 69.3 150.9 L 66.5 146.3 L 64.7 144.4 L 65.7 142.9 L 68.1 144.4 L 70.7 145.7 L 73.1 147.3 L 75.4 149.1 L 77.6 151.1 L 79.7 153.3 L 81.6 155.7 L 83.3 158.2 L 84.9 161.0 L 86.4 163.8 L 86.0 168.4 L 82.6 171.4 L 78.1 171.0 L 75.0 167.6 L 74.6 165.0 Z M 22.0 136.9 L 22.0 66.70588235855102 L 21.8 67.0 L 18.1 71.6 L 14.1 75.9 L 12.6 75.0 L 14.8 69.6 L 17.1 64.3 L 19.4 58.9 L 21.7 53.4 L 24.0 47.7 L 26.1 41.8 L 28.2 35.8 L 30.3 29.7 L 32.2 23.3 L 33.74774398803711 17.710924434661866 L 33.7 17.7 L 34.5 15.2 L 45.5 20.4 L 47.7 23.2 L 44.04314298629761 24.09817543029785 L 42.9 27.0 L 40.3 33.4 L 39.90806455612183 34.3 L 58.4 34.3 L 64.4 29.3 L 75.4 38.3 L 70.4 41.3 L 67.7417721748352 42.407594966888425 L 67.4 43.0 L 65.7 45.6 L 63.8 48.3 L 61.6 51.0 L 59.2 53.9 L 56.5 56.8 L 53.6 59.8 L 50.3 62.9 L 48.6 64.6 L 67.5 64.6 L 73.0 59.6 L 83.5 68.6 L 78.5 72.1 L 78.5 131.4 L 67.5 136.9 L 67.5 131.4 L 33.0 131.4 Z M 33.0 100.0 L 33.0 127.4 L 45.3 127.4 L 45.3 100.0 Z M 55.3 100.0 L 55.3 127.4 L 67.5 127.4 L 67.5 100.0 Z M 110.7 80.0 L 110.7 126.0 L 154.0 126.0 L 154.0 80.0 Z M 33.0 68.6 L 33.0 96.0 L 45.3 96.0 L 45.3 68.6 Z M 55.3 68.6 L 55.3 96.0 L 67.5 96.0 L 67.5 68.6 Z M 110.7 30.0 L 110.7 76.0 L 154.0 76.0 L 154.0 30.0 Z M 38.16612901687622 38.3 L 37.6 39.6 L 34.7 45.5 L 31.7 51.3 L 28.5 56.8 L 25.826277351379396 61.013138675689696 L 33.0 64.6 L 45.9125 64.6 L 48.1 61.1 L 50.1 57.2 L 51.9 53.6 L 53.6 50.1 L 55.0 47.0 L 56.2 44.0 L 57.2 41.2 L 57.9 38.8 L 58.008695697784425 38.3 Z " />
</g>
</svg>
