<svg xmlns="http://www.w3.org/2000/svg" xmlns:xlink="http://www.w3.org/1999/xlink" version="1.1" baseProfile="full" viewBox="0 0 200 200" width="200" height="200">
<g fill="black">
<path d="M 143.7 99.0 L 146.7 101.0 L 143.7 102.8 L 143.7 130.0 L 157.8 130.0 L 167.8 120.0 L 179.8 130.0 L 179.8 134.0 L 143.7 134.0 L 143.7 183.0 L 131.7 189.0 L 131.7 134.0 L 98.0 134.0 L 98.0 130.0 L 131.7 130.0 L 131.7 97.0 Z M 14.9 188.4 L 12.5 184.6 L 13.4 180.1 L 15.0 178.1 L 16.6 175.7 L 18.1 173.0 L 19.5 169.9 L 20.8 166.5 L 22.0 162.7 L 23.1 158.5 L 24.2 154.0 L 25.2 149.2 L 26.0 144.0 L 27.8 144.0 L 28.4 149.3 L 28.9 154.3 L 29.1 159.2 L 29.0 163.8 L 28.7 168.2 L 28.1 172.3 L 27.3 176.3 L 26.2 180.0 L 24.9 183.6 L 23.3 186.9 L 19.4 189.3 Z M 59.6 168.5 L 59.2 165.9 L 58.7 163.2 L 58.0 160.6 L 57.1 158.0 L 56.1 155.3 L 54.9 152.6 L 53.6 149.8 L 51.8 147.3 L 53.0 146.0 L 55.5 148.1 L 58.2 150.1 L 60.6 152.2 L 62.7 154.6 L 64.7 157.2 L 66.6 159.9 L 68.2 162.7 L 69.6 165.7 L 70.8 168.9 L 71.7 172.1 L 70.5 176.5 L 66.6 178.9 L 62.2 177.7 L 59.9 173.8 L 59.8 171.2 Z M 43.7 182.9 L 39.7 180.7 L 38.3 176.3 L 38.9 174.1 L 39.3 171.7 L 39.6 169.2 L 39.8 166.5 L 39.8 163.7 L 39.7 160.7 L 39.4 157.5 L 39.0 154.2 L 38.5 150.7 L 37.6 147.2 L 39.2 146.5 L 41.0 149.8 L 43.0 152.9 L 44.6 156.0 L 46.0 159.1 L 47.3 162.2 L 48.3 165.3 L 49.1 168.4 L 49.7 171.5 L 50.1 174.5 L 50.3 177.6 L 48.0 181.6 Z M 79.7 164.0 L 78.9 161.5 L 77.9 159.0 L 76.8 156.6 L 75.6 154.3 L 74.3 152.0 L 72.8 149.6 L 71.1 147.3 L 69.1 145.3 L 70.1 143.8 L 72.7 145.3 L 75.5 146.6 L 78.1 148.2 L 80.5 150.1 L 82.9 152.1 L 85.0 154.4 L 87.1 156.8 L 89.0 159.4 L 90.7 162.2 L 92.3 165.1 L 92.0 169.7 L 88.6 172.8 L 84.0 172.5 L 80.9 169.1 L 80.4 166.5 Z M 22.6 138.0 L 22.6 65.71081085205078 L 22.1 66.4 L 18.2 71.1 L 13.9 75.5 L 12.5 74.4 L 15.0 69.0 L 17.5 63.5 L 20.1 58.0 L 22.7 52.4 L 25.1 46.6 L 27.5 40.6 L 29.9 34.4 L 32.1 28.1 L 34.2 21.6 L 36.01263160705567 15.903157901763915 L 36.0 15.9 L 36.8 13.5 L 47.6 18.8 L 49.8 21.7 L 46.14282093048096 22.46993246078491 L 44.9 25.6 L 42.1 32.1 L 41.67142858505249 33.0 L 62.8 33.0 L 68.8 28.0 L 79.8 37.0 L 74.8 40.0 L 72.0689655303955 41.13793106079102 L 71.6 41.9 L 69.8 44.6 L 67.8 47.3 L 65.4 50.1 L 62.9 53.0 L 60.0 56.0 L 56.9 59.1 L 53.4 62.2 L 51.43636360168457 64.0 L 72.2 64.0 L 78.2 59.0 L 89.2 68.0 L 84.2 72.0 L 84.2 132.0 L 72.2 138.0 L 72.2 132.0 L 34.6 132.0 Z M 34.6 100.0 L 34.6 128.0 L 47.4 128.0 L 47.4 100.0 Z M 59.4 100.0 L 59.4 128.0 L 72.2 128.0 L 72.2 100.0 Z M 167.1 108.7 L 162.3 103.5 L 157.9 97.9 L 154.0 91.8 L 150.5 85.3 L 147.5 78.4 L 145.0 71.1 L 143.1 63.4 L 142.01707315444946 56.0 L 137.1507936477661 56.0 L 137.0 56.5 L 132.3 68.4 L 126.8 79.6 L 120.4 90.1 L 113.2 99.7 L 105.2 108.6 L 96.3 116.6 L 86.6 123.7 L 85.5 122.2 L 93.7 113.8 L 101.2 105.0 L 108.0 95.8 L 114.0 86.1 L 119.2 75.8 L 123.7 64.9 L 126.588596534729 56.0 L 98.0 56.0 L 98.0 52.0 L 127.77190084457398 52.0 L 130.4 41.4 L 132.6 28.7 L 133.95625 15.71875 L 134.2 13.2 L 146.0 16.5 L 148.7 18.8 L 145.3883804321289 20.39212484359741 L 143.8 30.5 L 140.8 43.9 L 138.35714282989503 52.0 L 161.8 52.0 L 171.8 42.0 L 183.8 52.0 L 183.8 56.0 L 144.2232876777649 56.0 L 147.1 62.0 L 150.5 68.9 L 154.0 75.3 L 157.8 81.2 L 161.7 86.6 L 165.9 91.5 L 170.3 95.9 L 174.9 99.8 L 179.8 103.3 L 184.9 106.3 L 189.1 108.9 L 178.0 117.6 L 172.3 113.4 Z M 34.6 68.0 L 34.6 96.0 L 47.4 96.0 L 47.4 68.0 Z M 59.4 68.0 L 59.4 96.0 L 72.2 96.0 L 72.2 68.0 Z M 39.76666669845581 37.0 L 39.1 38.4 L 36.0 44.5 L 32.7 50.3 L 29.4 55.9 L 26.65 60.025 L 34.6 64.0 L 48.66341466903687 64.0 L 51.1 60.3 L 53.3 56.3 L 55.4 52.6 L 57.3 49.1 L 58.9 45.8 L 60.2 42.8 L 61.3 40.0 L 62.2 37.4 L 62.28695650100708 37.0 Z " />
</g>
</svg>
