<svg xmlns="http://www.w3.org/2000/svg" xmlns:xlink="http://www.w3.org/1999/xlink" version="1.1" baseProfile="full" viewBox="0 0 200 200" width="200" height="200">
<g fill="black">
<path d="M 57.7 153.0 L 56.6 151.3 L 55.4 149.6 L 54.0 147.8 L 52.5 146.1 L 50.8 144.3 L 48.9 142.5 L 46.9 140.6 L 45.36083650588989 139.63802280426026 L 44.4 140.7 L 40.2 144.6 L 35.7 148.1 L 31.0 151.2 L 25.8 153.9 L 20.4 156.1 L 19.5 154.5 L 23.8 150.7 L 27.7 147.0 L 31.4 143.2 L 34.8 139.3 L 37.9 135.2 L 40.7 131.0 L 43.2 126.6 L 45.4 122.0 L 47.3 117.3 L 48.65504159927368 113.31458368301392 L 48.6 113.3 L 49.5 110.9 L 60.3 116.4 L 62.4 119.3 L 58.58065986633301 120.03706560134887 L 57.7 121.9 L 56.93137254714966 123.3 L 86.0 123.3 L 92.0 118.3 L 103.0 127.3 L 98.0 130.3 L 96.37007875442505 130.97913389205934 L 94.6 136.4 L 90.3 145.4 L 84.9 153.7 L 78.4 161.1 L 71.0 167.8 L 62.5 173.6 L 53.1 178.7 L 42.7 182.9 L 31.4 186.2 L 19.2 188.6 L 18.7 186.8 L 30.3 182.5 L 40.7 177.9 L 50.0 172.9 L 58.3 167.3 L 65.4 161.3 L 71.6 154.9 L 76.6 147.9 L 80.7 140.5 L 83.9 132.5 L 85.23023252487182 127.3 L 54.70408163070679 127.3 L 51.7 131.9 L 48.2 136.5 L 46.769352722167966 138.08124170303344 L 47.9 138.5 L 50.8 139.1 L 53.4 139.9 L 56.0 140.9 L 58.4 142.0 L 60.8 143.2 L 63.0 144.5 L 65.2 146.0 L 67.2 147.6 L 69.1 149.3 L 70.1 153.8 L 67.7 157.7 L 63.3 158.7 L 59.3 156.4 L 58.6 154.7 Z M 132.0 147.7 L 152.0 147.7 L 153.2 147.6 L 154.1 147.5 L 154.7 147.3 L 155.0 147.1 L 155.2 147.0 L 155.4 146.8 L 155.5 146.4 L 155.7 145.9 L 155.9 144.9 L 156.0 143.7 L 156.0 127.3 L 119.0 127.3 L 119.0 170.2 L 119.2 171.1 L 119.4 171.7 L 119.5 172.1 L 119.7 172.2 L 119.9 172.4 L 120.2 172.6 L 120.8 172.8 L 121.7 172.9 L 123.0 173.0 L 171.0 173.0 L 177.0 148.0 L 179.0 148.0 L 177.0 173.0 L 180.6 175.4 L 183.0 179.0 L 180.6 182.6 L 177.0 185.0 L 123.0 185.0 L 120.4 184.9 L 117.9 184.4 L 115.5 183.6 L 113.2 182.4 L 111.2 180.7 L 109.6 178.7 L 108.3 176.5 L 107.5 174.0 L 107.1 171.6 L 107.0 169.0 L 107.0 117.3 L 119.0 123.3 L 156.0 123.3 L 162.0 118.3 L 173.0 127.3 L 168.0 131.3 L 168.0 143.7 L 167.8 146.3 L 167.4 148.8 L 166.6 151.2 L 165.3 153.4 L 163.7 155.5 L 161.7 157.1 L 159.4 158.3 L 157.0 159.1 L 154.5 159.6 L 152.0 159.7 L 152.0 153.7 L 132.0 150.7 Z M 20.2 109.4 L 20.2 104.9 L 23.4 101.6 L 26.1 100.7 L 28.5 99.8 L 30.5 98.7 L 32.3 97.4 L 33.9 96.0 L 35.3 94.2 L 36.5 92.2 L 37.5 89.8 L 38.3 86.9 L 38.2 83.8 L 40.0 83.5 L 40.7 86.8 L 41.5 90.0 L 41.7 93.3 L 41.3 96.5 L 40.4 99.7 L 39.0 102.7 L 36.9 105.6 L 34.4 108.2 L 31.4 110.5 L 28.0 112.6 L 23.5 112.6 Z M 164.6 113.7 L 162.6 114.8 L 160.5 115.7 L 158.3 116.5 L 156.1 117.1 L 153.9 117.6 L 151.6 118.0 L 149.3 118.2 L 147.0 118.3 L 147.0 112.3 L 127.0 109.3 L 127.0 106.3 L 147.0 106.3 L 148.6 106.2 L 150.1 106.1 L 151.7 105.8 L 153.2 105.5 L 154.6 105.1 L 156.0 104.6 L 157.4 104.0 L 158.8 103.2 L 160.1 102.4 L 161.5 101.5 L 161.7 101.0 L 162.2 100.0 L 162.6 98.3 L 163.0 96.1 L 163.3 93.4 L 163.4 90.3 L 163.4 87.33333330154419 L 163.0 87.5 L 163.0 79.5 L 62.0 79.5 L 50.0 85.5 L 50.0 21.6 L 62.0 27.6 L 86.94375 27.6 L 87.3 27.3 L 88.8 25.3 L 90.3 23.5 L 91.8 21.6 L 93.3 19.9 L 94.8 18.1 L 99.0 13.0 L 99.74505491256714 12.148508644104004 L 99.6 12.0 L 100.5 11.3 L 108.0 20.6 L 108.4 24.2 L 104.02365589141846 22.68817205429077 L 104.0 22.7 L 97.7 25.7 L 95.5 26.7 L 93.3 27.6 L 139.0 27.6 L 145.0 22.6 L 156.0 31.6 L 151.0 35.6 L 151.0 56.7 L 139.0 62.7 L 139.0 56.7 L 62.0 56.7 L 62.0 64.1 L 170.7777777671814 64.1 L 177.0 57.1 L 185.0 64.1 L 185.0 68.1 L 62.0 68.1 L 62.0 75.5 L 163.0 75.5 L 169.0 70.5 L 180.0 79.5 L 175.3092104911804 82.31447372436523 L 175.4 86.4 L 175.4 90.5 L 175.3 94.3 L 174.9 97.8 L 174.4 100.9 L 173.5 103.9 L 172.4 106.6 L 170.8 109.0 L 168.6 111.2 L 166.6 112.5 Z M 65.7 109.3 L 62.6 105.9 L 62.8 101.3 L 64.2 99.9 L 64.7 99.0 L 65.1 97.9 L 65.3 96.6 L 65.3 95.1 L 65.0 93.3 L 64.4 91.4 L 63.6 89.2 L 62.0 87.4 L 63.3 86.1 L 65.2 87.8 L 67.3 89.2 L 69.1 90.8 L 70.7 92.5 L 72.1 94.4 L 73.1 96.5 L 73.9 98.8 L 74.2 101.2 L 74.1 103.8 L 73.7 106.4 L 70.3 109.4 Z M 97.0 99.8 L 96.6 98.4 L 95.9 96.9 L 94.9 95.4 L 93.6 93.7 L 92.1 92.1 L 90.2 90.3 L 88.1 88.5 L 85.6 87.2 L 86.2 85.6 L 89.0 86.5 L 91.9 87.0 L 94.6 87.7 L 97.1 88.6 L 99.5 89.7 L 101.7 91.0 L 103.7 92.5 L 105.6 94.2 L 107.2 96.1 L 108.6 98.3 L 108.3 102.9 L 104.9 106.0 L 100.4 105.7 L 97.3 102.3 L 97.3 101.1 Z M 128.6 97.2 L 127.8 95.9 L 126.7 94.6 L 125.2 93.1 L 123.5 91.6 L 121.5 90.0 L 119.2 88.4 L 116.6 86.7 L 113.6 85.5 L 114.2 83.8 L 117.4 84.5 L 120.5 84.8 L 123.5 85.3 L 126.2 86.0 L 128.8 86.7 L 131.2 87.6 L 133.5 88.6 L 135.6 89.8 L 137.5 91.1 L 139.3 92.8 L 140.1 97.3 L 137.6 101.1 L 133.1 101.9 L 129.3 99.4 L 129.1 98.4 Z M 62.0 44.2 L 62.0 52.7 L 139.0 52.7 L 139.0 44.2 Z M 62.0 31.6 L 62.0 40.2 L 139.0 40.2 L 139.0 31.6 Z " />
</g>
</svg>
