<svg xmlns="http://www.w3.org/2000/svg" xmlns:xlink="http://www.w3.org/1999/xlink" version="1.1" baseProfile="full" viewBox="0 0 200 200" width="200" height="200">
<g fill="black">
<path d="M 183.3 28.6 L 183.3 32.6 L 101.4 32.6 L 101.4 171.4 L 170.21818180084227 171.4 L 178.4 162.4 L 188.4 171.4 L 188.4 175.4 L 101.4 175.4 L 101.4 182.4 L 90.4 187.9 L 90.4 23.1 L 101.4 28.6 L 161.3 28.6 L 171.3 18.6 Z M 70.1 181.5 L 68.3 183.2 L 66.5 184.8 L 64.4 186.0 L 62.2 187.1 L 60.0 187.9 L 57.6 188.5 L 55.2 188.8 L 52.7 189.0 L 52.7 183.0 L 36.7 180.0 L 36.7 177.0 L 52.7 177.0 L 54.1 176.9 L 55.4 176.7 L 57.6 176.1 L 58.5 175.6 L 59.5 175.0 L 60.3 174.3 L 61.2 173.5 L 62.0 172.5 L 62.8 171.3 L 63.9 169.2 L 64.9 166.4 L 66.0 163.0 L 66.9 158.9 L 67.7 154.2 L 68.3 148.9 L 68.8 143.0 L 69.2 136.6 L 69.4 129.6 L 69.47368421554566 124.0 L 29.5 124.0 L 17.5 130.0 L 17.5 30.0 L 29.5 36.0 L 38.330434799194336 36.0 L 38.8 35.1 L 40.4 29.9 L 41.2 27.4 L 41.9 24.9 L 42.7 22.4 L 43.4 20.0 L 44.0 17.5 L 44.7 15.0 L 45.06197185516358 13.552112674713134 L 44.9 13.5 L 45.8 11.3 L 56.4 17.2 L 58.4 20.2 L 54.052388763427736 20.799670505523682 L 53.4 21.8 L 51.8 24.1 L 50.2 26.3 L 48.5 28.4 L 44.9 32.6 L 41.321052646636964 36.0 L 62.1 36.0 L 68.1 31.0 L 79.1 40.0 L 74.1 44.0 L 74.1 86.0 L 62.1 92.0 L 62.1 84.0 L 29.5 84.0 L 29.5 100.0 L 64.11818180084228 100.0 L 72.3 91.0 L 82.3 100.0 L 82.3 104.0 L 29.5 104.0 L 29.5 120.0 L 69.5 120.0 L 75.5 115.0 L 86.5 124.0 L 81.5 127.0 L 81.43555316925048 127.02685289382934 L 81.4 129.8 L 81.2 137.1 L 80.8 143.9 L 80.2 150.2 L 79.5 155.9 L 78.6 161.2 L 77.6 166.0 L 76.3 170.3 L 74.8 174.1 L 73.0 177.5 L 71.6 179.6 Z M 13.0 177.4 L 10.7 173.4 L 11.7 169.0 L 12.9 167.8 L 14.1 166.1 L 15.3 163.9 L 16.4 161.2 L 17.4 158.1 L 18.3 154.5 L 19.0 150.5 L 19.7 146.1 L 20.4 141.2 L 20.7 136.0 L 22.5 135.9 L 23.4 141.1 L 24.3 146.0 L 24.8 150.7 L 25.1 155.0 L 25.2 159.1 L 25.0 163.0 L 24.6 166.6 L 23.8 169.9 L 22.8 173.1 L 21.4 176.1 L 17.4 178.4 Z M 33.0 171.9 L 29.3 169.3 L 28.4 164.8 L 29.1 163.2 L 29.7 161.4 L 30.2 159.4 L 30.6 157.1 L 30.8 154.6 L 31.0 151.9 L 31.1 149.0 L 31.0 145.9 L 31.0 142.6 L 30.4 139.2 L 32.1 138.6 L 33.4 141.9 L 34.9 145.0 L 36.2 148.0 L 37.3 150.9 L 38.3 153.8 L 39.0 156.6 L 39.6 159.3 L 40.0 162.0 L 40.1 164.6 L 40.1 167.2 L 37.5 171.0 Z M 43.2 152.9 L 43.2 150.7 L 43.1 148.6 L 42.9 146.5 L 42.1 142.3 L 40.9 138.1 L 39.7 136.3 L 41.1 135.1 L 42.7 136.7 L 44.7 138.1 L 46.5 139.8 L 48.1 141.7 L 49.6 143.8 L 51.0 146.0 L 52.2 148.4 L 54.2 153.6 L 54.9 156.5 L 53.5 160.8 L 49.4 162.9 L 45.1 161.5 L 42.9 157.5 L 43.1 155.2 Z M 186.5 111.7 L 181.5 115.2 L 181.5 156.7 L 170.5 162.2 L 170.5 156.7 L 158.0 156.7 L 149.0 161.2 L 149.0 103.2 L 158.0 107.7 L 170.5 107.7 L 176.0 102.7 Z M 146.6 111.7 L 141.6 114.2 L 141.6 156.7 L 132.6 161.2 L 132.6 156.7 L 119.6 156.7 L 109.6 161.7 L 109.6 102.7 L 119.6 107.7 L 132.6 107.7 L 137.1 102.7 Z M 158.0 111.7 L 158.0 152.7 L 170.5 152.7 L 170.5 111.7 Z M 119.6 111.7 L 119.6 152.7 L 132.6 152.7 L 132.6 111.7 Z M 55.3 144.2 L 55.1 142.6 L 54.7 141.0 L 54.3 139.5 L 53.7 138.0 L 53.0 136.4 L 52.2 134.9 L 51.1 133.3 L 49.6 132.2 L 50.5 130.6 L 52.3 131.5 L 54.3 132.0 L 56.3 132.8 L 58.2 133.9 L 60.0 135.2 L 61.6 136.7 L 63.2 138.4 L 64.6 140.2 L 65.9 142.3 L 67.1 144.5 L 66.4 149.1 L 62.8 151.9 L 58.2 151.2 L 55.4 147.6 L 55.4 145.9 Z M 131.6 45.5 L 157.2 45.5 L 163.2 40.5 L 174.2 49.5 L 169.2 53.5 L 169.2 91.5 L 157.2 97.5 L 157.2 89.5 L 131.6 89.5 L 131.6 92.5 L 119.6 98.5 L 119.6 39.5 Z M 131.6 49.5 L 131.6 85.5 L 157.2 85.5 L 157.2 49.5 Z M 29.5 62.0 L 29.5 80.0 L 62.1 80.0 L 62.1 62.0 Z M 29.5 40.0 L 29.5 58.0 L 62.1 58.0 L 62.1 40.0 Z " />
</g>
</svg>
