<svg xmlns="http://www.w3.org/2000/svg" xmlns:xlink="http://www.w3.org/1999/xlink" version="1.1" baseProfile="full" viewBox="0 0 200 200" width="200" height="200">
<g fill="black">
<path d="M 58.86207513809204 106.44275493621826 L 58.4 114.1 L 56.7 125.1 L 56.36019420623779 126.5 L 75.6 126.5 L 85.6 116.5 L 97.6 126.5 L 97.6 130.5 L 55.389320373535156 130.5 L 54.2 135.4 L 52.922360229492185 139.00745344161987 L 55.3 139.8 L 61.1 141.9 L 66.4 144.3 L 71.3 146.8 L 75.7 149.4 L 79.6 152.2 L 83.2 155.1 L 86.2 158.1 L 88.9 161.4 L 91.0 164.8 L 91.1 169.4 L 88.0 172.7 L 83.4 172.7 L 80.1 169.6 L 79.2 167.2 L 77.8 164.7 L 75.9 161.9 L 73.5 159.0 L 70.6 156.0 L 67.1 152.9 L 63.1 149.7 L 58.6 146.4 L 53.7 143.0 L 51.920787239074706 141.83542432785035 L 50.8 145.0 L 46.6 153.9 L 41.6 162.0 L 35.7 169.5 L 29.1 176.2 L 21.7 182.1 L 13.5 187.1 L 12.5 185.6 L 19.2 179.2 L 25.2 172.4 L 30.5 165.4 L 35.1 158.0 L 39.0 150.1 L 42.1 141.8 L 44.5 132.9 L 44.904210567474365 130.5 L 14.1 130.5 L 14.1 126.5 L 45.57789478302002 126.5 L 46.1 123.4 L 47.0 113.2 L 47.1 102.5 L 47.1 100.1 L 59.1 102.5 L 62.1 104.5 Z M 165.9 90.9 L 164.5 93.0 L 162.9 94.8 L 160.9 96.4 L 158.8 97.7 L 156.6 98.7 L 154.2 99.4 L 151.7 99.8 L 149.2 100.0 L 149.2 94.0 L 137.2 91.0 L 137.2 88.0 L 149.2 88.0 L 150.5 87.9 L 151.6 87.7 L 152.5 87.4 L 153.3 87.1 L 153.9 86.7 L 154.5 86.2 L 155.1 85.6 L 155.6 84.8 L 156.1 83.8 L 156.6 82.6 L 157.1 80.9 L 157.5 78.6 L 158.0 75.5 L 158.3 71.9 L 158.7 67.7 L 159.0 62.9 L 159.2 57.5 L 159.3 51.5 L 159.4 45.0 L 159.47142858505248 40.0 L 117.5 40.0 L 117.5 110.0 L 171.2 110.0 L 177.2 105.0 L 188.2 114.0 L 183.2029354095459 116.99823875427246 L 183.3 121.9 L 183.2 131.2 L 183.0 139.6 L 182.6 147.2 L 182.1 154.0 L 181.4 160.0 L 180.5 165.3 L 179.4 169.8 L 178.0 173.8 L 176.1 177.2 L 174.6 179.2 L 173.0 181.0 L 171.2 182.6 L 169.2 184.0 L 167.2 185.2 L 165.0 186.2 L 162.7 187.0 L 160.3 187.5 L 157.9 187.8 L 155.5 188.0 L 155.5 182.0 L 135.5 179.0 L 135.5 176.0 L 155.5 176.0 L 156.9 175.9 L 158.2 175.7 L 160.6 175.1 L 161.6 174.6 L 162.6 174.0 L 163.6 173.3 L 164.5 172.5 L 165.4 171.5 L 166.3 170.3 L 167.0 169.0 L 167.9 166.5 L 168.7 162.9 L 169.5 158.3 L 170.1 152.8 L 170.6 146.4 L 171.0 139.1 L 171.2 131.0 L 171.29935598373413 121.95860166549683 L 171.2 122.0 L 171.2 114.0 L 117.5 114.0 L 109.5 122.0 L 99.5 112.0 L 105.5 106.0 L 105.5 30.0 L 117.5 36.0 L 129.36000003814698 36.0 L 129.8 35.0 L 130.5 32.3 L 131.2 29.7 L 132.6 24.7 L 133.8 20.1 L 134.8 15.7 L 135.01570930480958 14.56752634048462 L 134.8 14.5 L 135.19344263076783 13.63442621231079 L 135.2 13.6 L 135.20767631530762 13.603112030029298 L 135.8 12.3 L 146.3 18.1 L 148.3 21.1 L 143.89824047088624 21.795014667510987 L 143.7 22.1 L 139.2 28.1 L 137.5 30.1 L 135.8 32.2 L 133.9 34.2 L 132.1 36.0 L 159.5 36.0 L 165.5 31.0 L 176.5 40.0 L 171.5 43.0 L 171.42916173934935 43.02951593399048 L 171.4 45.1 L 171.3 51.8 L 171.2 57.9 L 170.9 63.4 L 170.6 68.5 L 170.3 73.0 L 169.9 77.0 L 169.3 80.5 L 168.7 83.6 L 168.0 86.3 L 167.1 88.7 Z M 161.0 144.0 L 161.0 148.0 L 96.2 148.0 L 96.2 144.0 L 139.0 144.0 L 149.0 134.0 Z M 69.8 115.3 L 69.7 114.2 L 69.3 112.9 L 68.8 111.4 L 68.1 109.7 L 67.2 107.8 L 66.1 105.8 L 64.8 103.7 L 63.0 101.8 L 64.2 100.5 L 66.3 102.1 L 68.6 103.3 L 70.6 104.5 L 72.5 105.7 L 74.3 106.8 L 75.9 108.0 L 77.3 109.2 L 78.6 110.4 L 79.8 111.8 L 80.9 113.3 L 80.3 117.9 L 76.7 120.7 L 72.2 120.1 L 69.3 116.6 L 69.6 116.1 Z M 32.7 23.9 L 75.7 23.9 L 81.7 18.9 L 92.7 27.9 L 87.7 31.9 L 87.7 97.9 L 75.7 103.9 L 75.7 97.9 L 32.7 97.9 L 32.7 109.9 L 20.7 115.9 L 20.7 17.9 Z M 32.7 73.5 L 32.7 93.9 L 75.7 93.9 L 75.7 73.5 Z M 138.7 68.7 L 137.9 66.6 L 136.8 64.3 L 135.4 62.1 L 133.7 59.8 L 131.8 57.4 L 129.6 55.1 L 127.2 52.6 L 124.2 50.5 L 125.1 48.9 L 128.5 50.4 L 131.9 51.6 L 135.1 53.1 L 138.1 54.9 L 140.8 56.8 L 143.4 58.9 L 145.7 61.2 L 147.8 63.6 L 149.6 66.3 L 151.1 69.2 L 150.8 73.7 L 147.4 76.8 L 142.8 76.4 L 139.8 73.0 L 139.4 70.9 Z M 32.7 50.7 L 32.7 69.5 L 75.7 69.5 L 75.7 50.7 Z M 32.7 27.9 L 32.7 46.7 L 75.7 46.7 L 75.7 27.9 Z " />
</g>
</svg>
