<svg xmlns="http://www.w3.org/2000/svg" xmlns:xlink="http://www.w3.org/1999/xlink" version="1.1" baseProfile="full" viewBox="0 0 200 200" width="200" height="200">
<g fill="black">
<path d="M 130.2 184.2 L 110.3 181.6 L 93.4 177.6 L 79.2 172.1 L 67.6 165.2 L 62.82044534683227 160.99191389083862 L 56.8 166.6 L 48.8 172.6 L 40.2 177.7 L 30.9 182.0 L 20.9 185.4 L 10.2 187.8 L 9.7 186.1 L 19.5 181.8 L 28.6 177.2 L 36.8 172.1 L 44.3 166.5 L 51.1 160.3 L 56.335391998291016 154.45381231307982 L 51.3 148.0 L 46.0 138.0 L 43.93528776168823 131.628888130188 L 42.7 133.8 L 39.0 139.4 L 34.9 144.8 L 30.5 149.9 L 25.6 154.8 L 20.3 159.4 L 14.6 163.6 L 13.3 162.3 L 17.6 156.8 L 21.6 151.3 L 25.3 145.9 L 28.7 140.5 L 31.8 135.0 L 34.5 129.4 L 36.8 123.8 L 38.9 118.1 L 40.5 112.3 L 41.67953214645386 107.41336679458618 L 41.6 107.4 L 42.3 104.7 L 53.5 109.4 L 54.0 109.91999998092652 L 54.0 87.87272729873658 L 53.2 88.8 L 48.5 93.8 L 43.5 98.7 L 38.1 103.3 L 32.3 107.8 L 26.1 112.1 L 19.5 116.0 L 12.4 119.7 L 11.5 118.2 L 17.3 113.0 L 22.8 107.8 L 28.0 102.8 L 32.9 97.8 L 37.4 92.7 L 41.6 87.7 L 45.4 82.6 L 48.9 77.4 L 52.0 72.3 L 54.0 68.3740740776062 L 54.0 42.0 L 14.0 42.0 L 14.0 38.0 L 54.0 38.0 L 54.0 12.0 L 66.0 14.0 L 69.0 16.0 L 66.0 17.8 L 66.0 38.0 L 79.0 38.0 L 89.0 28.0 L 101.0 38.0 L 101.0 42.0 L 66.0 42.0 L 66.0 86.5666666984558 L 70.2 87.5 L 74.3 88.8 L 78.3 90.4 L 82.0 92.1 L 85.5 94.1 L 88.8 96.3 L 91.8 98.7 L 94.6 101.3 L 97.2 104.1 L 98.1 108.6 L 95.6 112.4 L 91.2 113.3 L 87.3 110.9 L 85.9 108.4 L 84.2 105.9 L 82.3 103.5 L 80.1 101.1 L 77.5 98.7 L 74.7 96.3 L 71.6 94.0 L 68.3 91.7 L 66.0 90.20810813903809 L 66.0 109.0 L 54.0 115.0 L 54.0 112.60714282989503 L 52.27592191696167 113.13052368164062 L 51.4 115.8 L 49.30322580337524 121.0 L 74.0 121.0 L 80.0 116.0 L 91.0 125.0 L 86.0 128.0 L 83.91656446456909 128.86809816360474 L 81.4 134.8 L 76.4 143.9 L 70.6 152.2 L 67.99712390899658 155.24336280822754 L 72.2 158.3 L 83.0 163.6 L 96.1 167.7 L 112.0 170.7 L 131.0 172.4 L 153.4 172.7 L 179.5 171.4 L 190.6 170.7 L 180.4 184.5 L 153.4 185.2 Z M 137.9 140.4 L 139.1 143.8 L 135.105882358551 143.3868154525757 L 135.0 143.5 L 131.8 146.4 L 128.3 149.2 L 124.5 151.9 L 120.4 154.5 L 116.0 157.0 L 111.3 159.4 L 106.2 161.6 L 100.8 163.6 L 95.1 165.4 L 94.3 163.8 L 99.2 160.3 L 103.7 157.0 L 108.0 153.9 L 111.9 150.8 L 115.5 147.8 L 118.8 144.8 L 121.7 141.8 L 124.2 138.9 L 126.4 136.0 L 127.7400785446167 134.0251473426819 L 127.7 134.0 L 128.11904764175415 133.4666666984558 L 128.3 133.2 L 128.3179775238037 133.2134831428528 L 128.8 132.6 Z M 169.7 157.4 L 168.5 155.1 L 166.8 152.6 L 164.8 150.1 L 162.4 147.4 L 159.7 144.6 L 156.5 141.6 L 153.0 138.5 L 149.1 135.6 L 150.0 134.0 L 154.6 136.0 L 159.0 137.9 L 163.0 139.9 L 166.7 142.0 L 170.1 144.2 L 173.2 146.5 L 175.9 148.9 L 178.3 151.4 L 180.4 154.1 L 182.2 157.0 L 182.0 161.5 L 178.8 164.8 L 174.2 164.6 L 171.0 161.4 L 170.5 159.5 Z M 47.45 125.0 L 46.0 128.0 L 45.516433525085446 128.84990463256835 L 49.7 136.0 L 56.0 144.5 L 60.49200000762939 148.9920000076294 L 62.4 146.4 L 67.1 138.5 L 71.0 130.1 L 72.84945058822632 125.0 Z M 119.0 134.6 L 107.0 140.6 L 107.0 76.1 L 119.0 82.1 L 136.8 82.1 L 136.8 68.0 L 98.0 68.0 L 98.0 64.0 L 171.7777777671814 64.0 L 178.0 57.0 L 186.0 64.0 L 186.0 68.0 L 148.8 68.0 L 148.8 82.1 L 165.1 82.1 L 171.1 77.1 L 182.1 86.1 L 177.1 90.1 L 177.1 127.6 L 165.1 133.6 L 165.1 127.6 L 119.0 127.6 Z M 119.0 106.9 L 119.0 123.6 L 136.8 123.6 L 136.8 106.9 Z M 148.8 106.9 L 148.8 123.6 L 165.1 123.6 L 165.1 106.9 Z M 119.0 86.1 L 119.0 102.9 L 136.8 102.9 L 136.8 86.1 Z M 148.8 86.1 L 148.8 102.9 L 165.1 102.9 L 165.1 86.1 Z M 37.5 72.2 L 37.4 71.1 L 37.1 69.9 L 36.6 68.6 L 36.0 67.1 L 35.2 65.7 L 34.779812240600585 65.02769956588745 L 32.9 69.3 L 30.5 74.0 L 27.8 78.4 L 24.7 82.5 L 21.4 86.3 L 17.6 89.7 L 13.6 92.6 L 12.3 91.3 L 14.8 87.2 L 17.1 83.1 L 19.2 79.0 L 21.1 74.8 L 22.8 70.4 L 24.3 65.9 L 25.5 61.2 L 26.5 56.4 L 27.3 51.4 L 27.786227703094482 47.10498838424682 L 27.7 47.1 L 28.1 44.1 L 39.8 47.8 L 42.5 50.2 L 38.919985675811766 51.65852432250976 L 38.5 53.5 L 36.9 59.0 L 36.126044273376465 61.278869819641116 L 36.2 61.3 L 38.1 62.0 L 40.0 62.8 L 41.7 63.7 L 43.3 64.7 L 44.9 65.9 L 46.3 67.1 L 47.6 68.6 L 48.7 70.2 L 48.3 74.8 L 44.9 77.8 L 40.3 77.4 L 37.3 74.0 L 37.5 73.2 Z M 88.9 79.9 L 88.5 78.2 L 87.9 76.5 L 87.2 74.7 L 86.2 72.9 L 85.1 71.0 L 83.7 69.0 L 82.3 66.9 L 81.88400001525879 66.56719999313354 L 80.1 69.6 L 77.8 73.0 L 75.3 76.3 L 69.7 82.5 L 68.2 81.4 L 70.0 77.7 L 71.4 74.0 L 72.6 70.3 L 73.8 66.7 L 74.7 63.2 L 75.5 59.8 L 76.1 56.4 L 76.6 53.0 L 76.8 49.6 L 76.86964416503906 47.30174112319946 L 76.8 47.3 L 77.1 44.2 L 88.8 47.6 L 91.6 49.9 L 87.8415428161621 51.60194282531738 L 86.8 55.2 L 85.5 59.0 L 83.9 62.6 L 82.85932207107544 64.68135595321655 L 83.6 65.1 L 86.1 66.1 L 88.4 67.3 L 90.6 68.6 L 92.7 70.0 L 94.6 71.6 L 96.4 73.3 L 98.0 75.1 L 99.4 77.1 L 100.7 79.2 L 100.3 83.8 L 96.9 86.8 L 92.3 86.4 L 89.3 83.0 L 89.2 81.5 Z M 164.6 15.1 L 167.6 17.1 L 164.6 18.9 L 164.6 31.1 L 169.2777777671814 31.1 L 175.5 24.1 L 183.5 31.1 L 183.5 35.1 L 164.6 35.1 L 164.6 54.1 L 152.6 60.1 L 152.6 54.1 L 131.4 54.1 L 119.4 60.1 L 119.4 35.1 L 100.5 35.1 L 100.5 31.1 L 119.4 31.1 L 119.4 13.1 L 131.4 15.1 L 134.4 17.1 L 131.4 18.9 L 131.4 31.1 L 152.6 31.1 L 152.6 13.1 Z M 131.4 35.1 L 131.4 50.1 L 152.6 50.1 L 152.6 35.1 Z " />
</g>
</svg>
