<svg xmlns="http://www.w3.org/2000/svg" xmlns:xlink="http://www.w3.org/1999/xlink" version="1.1" baseProfile="full" viewBox="0 0 200 200" width="200" height="200">
<g fill="black">
<path d="M 101.2 107.0 L 104.2 109.0 L 101.2 110.8 L 101.2 127.3 L 157.6 127.3 L 167.6 117.3 L 179.6 127.3 L 179.6 131.3 L 101.2 131.3 L 101.2 149.5 L 152.5 149.5 L 158.5 144.5 L 169.5 153.5 L 164.5 157.5 L 164.5 183.3 L 152.5 189.3 L 152.5 183.3 L 47.4 183.3 L 35.4 189.3 L 35.4 143.5 L 47.4 149.5 L 89.2 149.5 L 89.2 105.0 Z M 47.4 179.3 L 152.5 179.3 L 152.5 153.5 L 47.4 153.5 Z M 15.4 101.3 L 32.2 100.3 L 40.20527381896973 99.72819471359253 L 38.3 97.7 L 38.2 96.2 L 38.0 94.7 L 37.7 93.1 L 37.3 91.5 L 36.1 88.1 L 35.3 86.3 L 34.5 84.4 L 33.6 82.5 L 32.1 80.9 L 33.3 79.5 L 35.0 80.9 L 37.1 81.9 L 39.0 83.0 L 40.8 84.3 L 42.5 85.6 L 44.1 87.0 L 45.6 88.5 L 47.1 90.1 L 48.4 91.8 L 49.6 93.6 L 49.3 98.1 L 48.210602378845216 99.15638551712036 L 49.0 99.1 L 57.4 98.4 L 61.73999996185303 98.08999996185302 L 62.6 96.8 L 63.6 94.4 L 64.6 92.2 L 65.5 90.0 L 67.3 86.0 L 68.2 84.1 L 69.0 82.2 L 69.8 80.4 L 70.1721848487854 79.60910720825196 L 70.0 79.5 L 70.64285717010497 78.6 L 34.0 78.6 L 22.0 84.6 L 22.0 50.7 L 34.0 56.7 L 78.0 56.7 L 84.0 51.7 L 95.0 60.7 L 90.0 64.7 L 90.0 78.6 L 78.36842107772827 84.41578950881959 L 80.1 85.9 L 81.3 89.3 L 76.59176473617553 88.81294116973876 L 75.5 89.7 L 73.9 91.1 L 72.2 92.4 L 70.4 93.8 L 68.5 95.3 L 66.5 96.7 L 64.86666669845582 97.86666669845582 L 65.8 97.8 L 74.3 97.1 L 82.7 96.5 L 91.3 95.9 L 99.8 95.6 L 100.1 97.3 L 91.8 99.7 L 83.6 101.8 L 75.2 103.6 L 66.9 105.3 L 58.5 106.9 L 41.7 109.7 L 33.3 111.0 L 24.9 112.2 L 20.570691680908205 112.76693325042724 L 18.8 116.1 L 16.5 113.3 L 13.4 101.5 Z M 158.5 108.1 L 150.3 104.2 L 142.7 99.7 L 135.8 94.5 L 135.3395348548889 94.0687707901001 L 132.0 95.5 L 122.9 98.7 L 112.9 101.3 L 102.2 103.3 L 101.7 101.6 L 111.8 97.7 L 121.0 93.7 L 129.3 89.6 L 130.0863751411438 89.14914493560791 L 129.5 88.6 L 123.8 82.1 L 118.9 75.0 L 114.8 67.3 L 111.90476188659667 59.7 L 102.0 59.7 L 102.0 55.7 L 133.0 55.7 L 133.0 35.8 L 100.0 35.8 L 100.0 31.8 L 133.0 31.8 L 133.0 11.9 L 145.0 13.9 L 148.0 15.9 L 145.0 17.7 L 145.0 31.8 L 167.8181818008423 31.8 L 176.0 22.8 L 186.0 31.8 L 186.0 35.8 L 145.0 35.8 L 145.0 55.7 L 163.0 55.7 L 163.3542857170105 55.40476188659668 L 163.4 55.3 L 163.4530466079712 55.32246112823486 L 169.0 50.7 L 180.0 59.7 L 175.0 62.7 L 172.32974786758422 63.81260499954224 L 170.8 66.5 L 166.4 72.6 L 161.0 78.2 L 154.9 83.2 L 148.1 87.8 L 145.2663999557495 89.30880002975464 L 148.0 90.9 L 155.1 94.3 L 162.7 97.1 L 170.7 99.3 L 179.2 100.9 L 188.5 102.7 L 176.7 113.9 L 167.3 111.3 Z M 118.4 65.1 L 123.6 71.5 L 129.2 77.3 L 135.1 82.4 L 137.93043479919433 84.5 L 143.3 80.7 L 149.0 76.0 L 153.9 71.1 L 157.9 66.0 L 161.0 60.8 L 161.4800000190735 59.7 L 114.33043479919434 59.7 Z M 71.58333330154419 78.6 L 78.0 84.1 L 78.0 78.6 Z M 34.0 60.7 L 34.0 74.6 L 78.0 74.6 L 78.0 60.7 Z M 18.0 41.7 L 50.0 41.7 L 50.0 28.8 L 13.0 28.8 L 13.0 24.8 L 50.0 24.8 L 50.0 11.9 L 62.0 13.9 L 65.0 15.9 L 62.0 17.7 L 62.0 24.8 L 86.77777776718139 24.8 L 93.0 17.8 L 101.0 24.8 L 101.0 28.8 L 62.0 28.8 L 62.0 41.7 L 77.81818180084228 41.7 L 86.0 32.7 L 96.0 41.7 L 96.0 45.7 L 18.0 45.7 Z " />
</g>
</svg>
