<svg xmlns="http://www.w3.org/2000/svg" xmlns:xlink="http://www.w3.org/1999/xlink" version="1.1" baseProfile="full" viewBox="0 0 200 200" width="200" height="200">
<g fill="black">
<path d="M 94.9 151.4 L 95.9 154.9 L 91.98575944900513 154.2132911682129 L 89.0 157.0 L 85.8 159.8 L 82.5 162.6 L 79.1 165.3 L 75.5 168.0 L 71.8 170.6 L 69.21686744689941 172.32208833694457 L 72.0 172.3 L 85.0 172.1 L 98.6 172.0 L 112.7 171.9 L 127.2 171.8 L 142.3 171.9 L 151.0245231628418 172.06777925491332 L 149.0 170.6 L 144.7 167.7 L 140.1 164.7 L 135.2 161.8 L 130.0 158.7 L 124.6 155.5 L 125.2 153.8 L 131.5 155.2 L 137.4 156.9 L 143.0 158.8 L 148.3 161.0 L 153.3 163.2 L 158.0 165.6 L 162.4 168.2 L 166.6 170.8 L 170.5 173.6 L 174.1 176.6 L 175.8 180.8 L 174.1 185.1 L 169.8 186.8 L 165.6 185.1 L 162.9 182.2 L 159.9 179.3 L 156.6 176.4 L 154.14548654556273 174.4227530479431 L 142.5 175.7 L 127.5 177.2 L 112.9 178.5 L 98.9 179.6 L 85.4 180.6 L 72.3 181.6 L 59.8 182.4 L 47.8 183.2 L 36.2 184.0 L 29.213951301574706 184.44456672668457 L 27.3 187.6 L 25.2 184.7 L 22.7 172.8 L 24.7 172.7 L 35.8 172.6 L 47.3 172.5 L 59.4 172.4 L 62.13536071777344 172.37829074859619 L 64.7 169.4 L 67.7 166.0 L 70.7 162.7 L 73.5 159.4 L 76.2 156.2 L 78.8 153.0 L 81.2 149.8 L 83.5 146.7 L 83.57333335876464 146.6 L 14.0 146.6 L 14.0 142.6 L 94.0 142.6 L 94.0 123.3 L 27.0 123.3 L 27.0 119.3 L 94.0 119.3 L 94.0 103.3 L 106.0 105.3 L 109.0 107.3 L 106.0 109.1 L 106.0 119.3 L 151.0 119.3 L 161.0 109.3 L 173.0 119.3 L 173.0 123.3 L 106.0 123.3 L 106.0 142.6 L 164.0 142.6 L 174.0 132.6 L 186.0 142.6 L 186.0 146.6 L 89.74878044128418 146.6 Z M 15.4 99.7 L 32.2 98.7 L 40.11724138259888 98.13448276519776 L 38.3 96.2 L 38.2 94.8 L 38.0 93.3 L 37.7 91.8 L 37.3 90.1 L 36.8 88.5 L 36.1 86.8 L 35.4 85.0 L 33.6 81.2 L 32.1 79.7 L 33.3 78.3 L 35.0 79.7 L 37.1 80.6 L 39.0 81.7 L 40.8 82.9 L 42.5 84.2 L 44.1 85.6 L 45.6 87.1 L 47.0 88.7 L 48.3 90.3 L 49.5 92.1 L 49.3 96.6 L 48.3219277381897 97.54843378067017 L 57.4 96.9 L 61.882352924346925 96.5264705657959 L 62.7 95.3 L 63.6 93.0 L 64.6 90.7 L 65.5 88.6 L 66.5 86.6 L 67.4 84.6 L 68.2 82.7 L 69.1 80.9 L 69.8 79.1 L 70.1715690612793 78.3104157447815 L 70.0 78.2 L 70.57575759887695 77.4515151977539 L 70.6 77.4 L 70.60966920852661 77.40742998123169 L 70.61538457870483 77.4 L 34.0 77.4 L 22.0 83.4 L 22.0 49.8 L 34.0 55.8 L 78.0 55.8 L 84.0 50.8 L 95.0 59.8 L 90.0 63.8 L 90.0 77.4 L 78.36842107772827 83.21578950881958 L 80.1 84.7 L 81.3 88.1 L 76.48258819580079 87.60164709091187 L 73.9 89.7 L 68.5 93.9 L 66.5 95.3 L 65.05714282989501 96.2619047164917 L 65.8 96.2 L 82.8 95.0 L 91.3 94.5 L 99.8 94.1 L 100.1 95.9 L 91.8 98.2 L 83.5 100.3 L 75.2 102.1 L 66.9 103.8 L 58.5 105.3 L 41.7 108.1 L 33.3 109.4 L 24.9 110.5 L 20.598550701141356 111.11449279785157 L 18.8 114.5 L 16.5 111.7 L 13.4 99.9 Z M 158.6 106.6 L 150.4 102.7 L 142.8 98.2 L 135.8 93.1 L 135.36379823684692 92.69841737747193 L 132.0 94.1 L 122.8 97.2 L 112.9 99.8 L 102.2 101.7 L 101.7 100.0 L 111.8 96.1 L 121.0 92.2 L 129.3 88.1 L 129.96466550827026 87.72778730392456 L 129.5 87.3 L 123.8 80.9 L 118.9 73.9 L 114.8 66.3 L 111.8731707572937 58.8 L 102.0 58.8 L 102.0 54.8 L 133.0 54.8 L 133.0 35.3 L 100.0 35.3 L 100.0 31.3 L 133.0 31.3 L 133.0 11.7 L 145.0 13.7 L 148.0 15.7 L 145.0 17.5 L 145.0 31.3 L 167.80180177688598 31.3 L 176.0 22.2 L 186.0 31.3 L 186.0 35.3 L 145.0 35.3 L 145.0 54.8 L 163.0 54.8 L 163.3529411315918 54.50588235855103 L 163.4 54.4 L 163.4530466079712 54.422461128234865 L 169.0 49.8 L 180.0 58.8 L 175.0 61.8 L 172.32974786758422 62.91260499954224 L 170.8 65.6 L 166.3 71.6 L 161.0 77.0 L 154.9 82.0 L 148.0 86.5 L 145.37944984436035 87.91371784210205 L 148.0 89.4 L 155.1 92.7 L 162.6 95.5 L 170.7 97.7 L 179.2 99.3 L 188.5 101.1 L 176.7 112.3 L 167.4 109.7 Z M 118.4 64.1 L 123.6 70.4 L 129.2 76.1 L 135.1 81.1 L 137.91260414123536 83.14140625 L 143.4 79.4 L 149.1 74.8 L 153.9 70.0 L 157.9 64.9 L 161.0 59.8 L 161.44444446563722 58.8 L 114.3470588684082 58.8 Z M 71.58333330154419 77.4 L 78.0 82.9 L 78.0 77.4 Z M 34.0 59.8 L 34.0 73.4 L 78.0 73.4 L 78.0 59.8 Z M 18.0 41.1 L 50.0 41.1 L 50.0 28.4 L 13.0 28.4 L 13.0 24.4 L 50.0 24.4 L 50.0 11.7 L 62.0 13.7 L 65.0 15.7 L 62.0 17.5 L 62.0 24.4 L 86.77777776718139 24.4 L 93.0 17.4 L 101.0 24.4 L 101.0 28.4 L 62.0 28.4 L 62.0 41.1 L 77.81818180084228 41.1 L 86.0 32.1 L 96.0 41.1 L 96.0 45.1 L 18.0 45.1 Z " />
</g>
</svg>
