<svg xmlns="http://www.w3.org/2000/svg" xmlns:xlink="http://www.w3.org/1999/xlink" version="1.1" baseProfile="full" viewBox="0 0 200 200" width="200" height="200">
<g fill="black">
<path d="M 87.4 168.6 L 84.7 163.6 L 82.6 157.6 L 80.9 150.6 L 79.6 142.3 L 79.49743919372558 141.22880926132203 L 79.1 145.7 L 75.7 148.8 L 71.2 148.4 L 68.1 145.0 L 66.6 137.5 L 66.1 135.2 L 64.9 130.6 L 64.3 128.5 L 63.6 126.3 L 63.0 124.1 L 62.6 123.44545450210572 L 62.6 160.70540542602538 L 63.0 160.5 L 66.8 158.6 L 70.8 156.7 L 74.8 155.0 L 78.8 153.2 L 79.8 154.7 L 73.4 160.7 L 70.2 163.6 L 63.8 169.2 L 60.6 171.9 L 57.4 174.5 L 51.344154071807864 179.5790965080261 L 51.4 183.6 L 48.1 182.3 L 39.6 173.6 L 41.2 172.5 L 44.7 170.4 L 50.6 167.12222223281861 L 50.6 145.9735294342041 L 47.5 148.8 L 43.0 148.4 L 39.9 145.0 L 38.4 137.5 L 37.9 135.2 L 36.7 130.6 L 36.0 128.5 L 34.8 124.1 L 33.7 122.3 L 35.1 121.2 L 36.7 122.7 L 38.6 124.1 L 40.4 125.8 L 42.1 127.5 L 43.8 129.5 L 45.4 131.6 L 46.9 133.8 L 48.4 136.1 L 49.9 138.6 L 50.6 140.0 L 50.6 117.89090909957886 L 47.6 120.8 L 43.0 120.6 L 39.9 117.3 L 39.3 113.7 L 38.9 111.9 L 38.5 110.0 L 37.3 106.2 L 35.9 102.2 L 35.1 100.1 L 34.43488368988037 99.17906980514526 L 33.4 99.8 L 33.4 163.7361110687256 L 33.9 163.5 L 37.5 161.9 L 41.2 160.3 L 45.0 158.8 L 48.8 157.2 L 49.8 158.7 L 46.7 161.4 L 43.7 164.3 L 40.6 166.9 L 37.6 169.5 L 34.5 172.0 L 31.5 174.4 L 28.5 176.7 L 25.5 179.1 L 23.016068077087404 180.9215500831604 L 22.9 185.1 L 19.6 183.6 L 11.6 174.3 L 13.3 173.3 L 16.6 171.7 L 22.3375 169.0 L 21.4 169.0 L 21.4 94.0 L 33.4 96.0 L 35.079032230377194 97.11935482025146 L 35.1 97.1 L 35.254545497894284 97.23636360168457 L 36.4 98.0 L 36.23333330154419 98.1 L 36.8 98.6 L 38.8 99.9 L 42.4 102.7 L 45.6 105.9 L 47.1 107.6 L 48.5 109.3 L 49.8 111.1 L 50.6 112.2692307472229 L 50.6 93.0 L 62.6 95.0 L 65.6 97.0 L 64.16349210739136 97.8619047164917 L 65.0 98.6 L 67.0 99.9 L 70.6 102.7 L 73.8 105.9 L 75.3 107.6 L 76.7 109.3 L 77.81339950561524 110.73151369094849 L 77.8 110.2 L 77.8 96.9 L 77.82940454483033 96.90024499893188 L 77.9 94.5 L 89.8 97.0 L 92.8 99.1 L 89.8 100.83999996185302 L 89.8 110.0 L 90.1 121.7 L 90.7 132.0 L 91.5 140.9 L 92.7 148.3 L 93.91823205947875 153.52099447250367 L 97.5 138.0 L 99.5 138.0 L 97.6442307472229 162.125 L 98.3 162.9 L 98.7 163.1 L 102.5 165.7 L 103.4 170.2 L 100.8 173.9 L 96.3 174.8 L 91.2 172.5 Z M 175.4 121.0 L 170.4 124.0 L 168.2859206199646 124.88086643218995 L 152.8 182.4 L 139.6 185.0 L 157.53939390182495 121.0 L 104.6 121.0 L 104.6 117.0 L 158.4 117.0 L 164.4 112.0 Z M 67.1 111.9 L 66.7 110.0 L 65.5 106.2 L 64.1 102.2 L 63.3 100.1 L 62.6 99.1307692527771 L 62.6 121.75 L 63.3 121.2 L 64.9 122.7 L 66.8 124.1 L 68.6 125.8 L 70.3 127.5 L 72.0 129.5 L 73.6 131.6 L 75.2 133.8 L 76.6 136.1 L 78.1 138.6 L 79.49353046417237 141.1879852294922 L 78.7 132.9 L 78.1 122.1 L 78.01312456130981 118.65393981933593 L 75.8 120.8 L 71.2 120.6 L 68.1 117.3 L 67.5 113.7 Z M 165.1 88.2 L 160.0 82.3 L 155.3 75.7 L 150.8 68.5 L 146.6 60.7 L 142.7 52.3 L 139.1 43.3 L 135.91468448638915 33.93710298538208 L 133.9 39.6 L 129.9 49.6 L 125.5 59.3 L 120.8 68.5 L 115.8 77.4 L 110.4 85.9 L 104.6 93.9 L 98.4 101.5 L 91.8 108.5 L 90.4 107.4 L 95.4 99.3 L 100.1 91.0 L 104.8 82.5 L 109.1 73.8 L 113.2 64.8 L 117.0 55.6 L 120.5 46.0 L 123.8 36.1 L 126.7 25.9 L 129.14108171463013 16.40690450668335 L 129.1 16.4 L 129.8 13.7 L 141.0 18.4 L 143.3 21.1 L 139.81044387817383 22.178590106964112 L 137.841140460968 28.43402452468872 L 139.7 32.0 L 144.4 40.8 L 149.1 49.0 L 153.8 56.5 L 158.6 63.4 L 163.5 69.6 L 168.4 75.1 L 173.4 79.9 L 178.4 84.0 L 183.5 87.5 L 187.0 89.9 L 176.0 98.4 L 170.4 93.6 Z M 57.9 24.1 L 58.4 27.7 L 54.588084888458255 26.45246410369873 L 51.9 28.1 L 48.8 29.9 L 45.7 31.6 L 42.5 33.1 L 39.3 34.5 L 36.0 35.8 L 32.7 36.9 L 31.6 37.19117650985718 L 31.6 58.0 L 38.6777777671814 58.0 L 44.9 51.0 L 52.9 58.0 L 52.9 62.0 L 31.6 62.0 L 31.6 83.0 L 80.6 83.0 L 80.6 62.0 L 62.0 62.0 L 62.0 58.0 L 80.6 58.0 L 80.6 39.0 L 60.2 39.0 L 60.2 35.0 L 80.6 35.0 L 86.6 30.0 L 97.6 39.0 L 92.6 43.0 L 92.6 87.0 L 80.6 93.0 L 80.6 87.0 L 31.6 87.0 L 19.6 93.0 L 19.6 30.0 L 28.805714321136474 34.60285711288452 L 30.7 33.0 L 33.3 30.9 L 35.8 28.8 L 40.8 24.4 L 43.2 22.2 L 45.5 19.9 L 47.8 17.5 L 49.33095111846924 15.829871463775635 L 49.3 15.8 L 50.2 14.9 Z M 157.1 87.0 L 157.1 91.0 L 114.6 91.0 L 114.6 87.0 L 138.9181818008423 87.0 L 147.1 78.0 Z " />
</g>
</svg>
