<svg xmlns="http://www.w3.org/2000/svg" xmlns:xlink="http://www.w3.org/1999/xlink" version="1.1" baseProfile="full" viewBox="0 0 200 200" width="200" height="200">
<g fill="black">
<path d="M 77.4 76.2 L 75.4 72.2 L 76.7 67.8 L 77.8 66.9 L 79.0 65.4 L 80.3 63.4 L 81.4 60.9 L 82.5 57.8 L 83.6 54.3 L 84.5 50.3 L 85.4 45.8 L 86.3 40.9 L 86.8 35.6 L 88.6 35.6 L 89.3 41.0 L 89.67200002670288 44.1 L 123.4 44.1 L 123.4 28.0 L 90.1 28.0 L 90.1 24.0 L 149.0 24.0 L 159.0 14.0 L 171.0 24.0 L 171.0 28.0 L 135.4 28.0 L 135.4 44.1 L 170.4 44.1 L 176.4 39.1 L 187.4 48.1 L 182.4 51.1 L 179.88235292434692 52.14901962280273 L 179.8 52.3 L 178.5 54.5 L 177.3 56.6 L 176.0 58.7 L 173.2 62.7 L 171.7 64.7 L 170.1 66.5 L 168.9 68.6 L 167.2 67.8 L 167.9 65.6 L 168.8 58.4 L 169.1 56.1 L 169.4 53.7 L 169.8 51.4 L 170.1 49.0 L 170.21739130020143 48.1 L 135.4 48.1 L 135.4 78.6 L 127.5 82.55 L 136.1 89.0 L 137.0784008026123 91.30623054504395 L 141.1 94.9 L 145.8 98.9 L 150.6 102.4 L 155.4 105.7 L 160.3 108.5 L 165.3 111.1 L 170.5 113.3 L 175.8 115.1 L 181.2 116.6 L 189.0 119.0 L 177.3 129.3 L 171.3 126.8 L 165.5 124.0 L 160.0 120.7 L 154.8 117.1 L 149.8 113.1 L 145.1 108.8 L 140.8 104.0 L 136.8 98.9 L 133.2 93.3 L 133.07444620132446 93.05699262619018 L 131.7 94.9 L 126.8 100.4 L 121.6 105.5 L 116.0 110.2 L 110.0 114.5 L 103.6 118.5 L 96.9 122.0 L 89.7 125.1 L 82.2 127.7 L 74.4 129.77341775894166 L 74.4 130.4 L 71.2 133.7 L 66.7 133.7 L 63.4 130.6 L 62.4 127.7 L 61.3 124.8 L 60.0 122.0 L 58.5 119.1 L 56.8 116.2 L 54.9 113.3 L 52.8 110.3 L 50.4 107.3 L 50.2 107.04166669845581 L 50.2 183.0 L 38.2 189.0 L 38.2 110.7015625 L 35.3 114.1 L 28.4 121.3 L 21.1 128.2 L 13.3 134.6 L 12.0 133.3 L 18.4 125.5 L 24.4 117.8 L 30.2 110.0 L 35.6 102.1 L 38.2 97.93999996185303 L 38.2 97.0 L 38.7875 97.0 L 40.6 94.1 L 45.3 86.0 L 49.6 77.7 L 53.5 69.2 L 57.1 60.6 L 58.73908042907715 56.0 L 16.2 56.0 L 16.2 52.0 L 38.2 52.0 L 38.2 12.0 L 50.2 14.0 L 53.2 16.0 L 50.2 17.8 L 50.2 52.0 L 59.9 52.0 L 65.9 47.0 L 76.9 56.0 L 71.9 59.0 L 69.7959641456604 59.876681613922116 L 67.5 65.1 L 63.2 73.9 L 58.4 82.4 L 53.3 90.7 L 48.944444465637204 97.0 L 50.2 97.0 L 50.2 102.1222222328186 L 53.4 103.9 L 56.8 106.2 L 59.9 108.6 L 62.8 111.1 L 65.5 113.8 L 68.1 116.6 L 70.4 119.6 L 72.5 122.6 L 74.4 125.8 L 74.4 127.71999998092652 L 80.7 124.3 L 87.3 120.3 L 93.6 116.3 L 99.4 112.2 L 104.9 107.8 L 109.9 103.2 L 114.5 98.4 L 118.7 93.3 L 122.5 88.1 L 125.34666662216186 83.62666664123535 L 123.4 84.6 L 123.4 48.1 L 90.07872343063354 48.1 L 90.3 50.7 L 90.4 55.1 L 90.3 59.2 L 90.0 63.0 L 89.4 66.5 L 88.6 69.7 L 87.4 72.7 L 85.9 75.5 L 81.8 77.6 Z M 139.4 163.0 L 149.4 163.0 L 150.6 162.9 L 151.5 162.7 L 152.1 162.5 L 152.5 162.4 L 152.7 162.2 L 152.8 162.0 L 153.0 161.7 L 153.2 161.1 L 153.3 160.2 L 153.4 159.0 L 153.4 142.0 L 129.6 142.0 L 129.6 181.0 L 117.6 187.0 L 117.6 142.0 L 93.2 142.0 L 93.2 138.0 L 153.4 138.0 L 159.4 133.0 L 170.4 142.0 L 165.4 146.0 L 165.4 159.0 L 165.3 161.5 L 164.8 164.0 L 164.0 166.4 L 162.8 168.7 L 161.1 170.7 L 159.1 172.3 L 156.9 173.6 L 154.5 174.4 L 152.0 174.8 L 149.4 175.0 L 149.4 169.0 L 139.4 166.0 Z M 148.1 121.0 L 148.1 125.0 L 111.0 125.0 L 111.0 121.0 L 129.9181818008423 121.0 L 138.1 112.0 Z M 169.8 84.4 L 169.8 88.4 L 138.9 88.4 L 138.9 84.4 L 155.5777777671814 84.4 L 161.8 77.4 Z M 119.9 84.4 L 119.9 88.4 L 88.9 88.4 L 88.9 84.4 L 105.6777777671814 84.4 L 111.9 77.4 Z M 165.7 65.2 L 165.7 69.2 L 138.9 69.2 L 138.9 65.2 L 151.4777777671814 65.2 L 157.7 58.2 Z M 119.9 65.2 L 119.9 69.2 L 91.9 69.2 L 91.9 65.2 L 105.6777777671814 65.2 L 111.9 58.2 Z " />
</g>
</svg>
