<svg xmlns="http://www.w3.org/2000/svg" xmlns:xlink="http://www.w3.org/1999/xlink" version="1.1" baseProfile="full" viewBox="0 0 200 200" width="200" height="200">
<g fill="black">
<path d="M 49.6 17.2 L 52.1 19.8 L 48.61506509780884 21.00388660430908 L 46.7 28.4 L 43.7 39.2 L 40.5 49.9 L 37.1 60.3 L 33.6 70.5 L 32.605714321136475 73.23428573608399 L 37.2 74.0 L 40.2 76.0 L 37.2 77.8 L 37.2 183.0 L 25.2 189.0 L 25.2 92.21499996185302 L 22.1 99.5 L 17.7 108.5 L 13.0 117.3 L 11.4 116.6 L 17.0 97.6 L 19.9 87.9 L 22.8 78.0 L 25.5 67.9 L 28.2 57.7 L 30.8 47.2 L 33.3 36.6 L 35.7 25.7 L 37.70175504684448 15.600235939025879 L 37.7 15.6 L 37.723999977111816 15.488000011444091 L 37.9 14.6 L 37.91363639831543 14.60303030014038 L 38.3 12.8 Z M 88.4 113.0 L 88.4 76.0 L 73.4 76.0 L 73.4 108.0 L 73.1807017326355 113.0 Z M 129.7 121.0 L 165.2 121.0 L 171.2 116.0 L 182.2 125.0 L 177.2 129.0 L 177.2 177.0 L 165.2 183.0 L 165.2 173.0 L 129.7 173.0 L 129.7 180.0 L 117.7 186.0 L 117.7 115.0 Z M 129.7 125.0 L 129.7 169.0 L 165.2 169.0 L 165.2 125.0 Z M 169.7 76.9 L 165.9 71.4 L 162.4 65.5 L 159.1 59.3 L 156.1 52.6 L 153.3 45.6 L 150.7 38.3 L 149.2736126899719 32.934066963195804 L 148.4 35.2 L 144.9 43.3 L 141.0 51.2 L 136.8 58.9 L 132.1 66.4 L 127.0 73.6 L 121.6 80.6 L 115.6 87.2 L 109.2 93.5 L 107.8 92.4 L 112.6 84.9 L 117.2 77.5 L 121.5 70.0 L 125.6 62.5 L 129.3 55.0 L 132.6 47.3 L 135.7 39.5 L 138.3 31.6 L 140.7 23.6 L 142.45388860702514 16.409056854248046 L 142.4 16.4 L 143.1 13.7 L 154.3 18.4 L 156.7 21.1 L 153.09469890594482 22.194466400146485 L 151.6 26.9 L 151.5126494407654 27.126565551757814 L 152.5 29.0 L 156.2 36.0 L 159.8 42.6 L 163.5 48.8 L 167.2 54.6 L 171.0 60.0 L 174.9 64.9 L 178.8 69.4 L 182.9 73.5 L 186.9 77.2 L 188.6 78.8 L 177.9 86.7 L 173.7 82.0 Z M 173.2 89.0 L 173.2 93.0 L 121.7 93.0 L 121.7 89.0 L 151.2 89.0 L 161.2 79.0 Z M 73.4 35.0 L 73.4 72.0 L 88.4 72.0 L 88.4 35.0 Z M 41.3 76.0 L 41.3 72.0 L 61.4 72.0 L 61.4 35.0 L 49.2 35.0 L 49.2 31.0 L 88.4 31.0 L 94.4 26.0 L 105.4 35.0 L 100.4 39.0 L 100.4 72.0 L 105.7 72.0 L 110.2 66.0 L 116.2 72.0 L 116.2 76.0 L 100.4 76.0 L 100.4 123.0 L 88.4 129.0 L 88.4 117.0 L 73.00526313781738 117.0 L 72.9 119.4 L 71.8 130.2 L 70.2 140.3 L 68.1 149.6 L 65.4 158.2 L 62.2 166.0 L 58.4 173.0 L 54.1 179.2 L 49.1 184.4 L 43.7 188.6 L 42.5 187.3 L 46.3 182.0 L 49.6 176.2 L 52.6 170.0 L 55.1 163.2 L 57.3 155.7 L 59.0 147.6 L 60.3 138.7 L 61.1 129.2 L 61.5 118.9 L 61.48256883621216 117.0 L 43.1 117.0 L 43.1 113.0 L 61.44587154388428 113.0 L 61.4 108.0 L 61.4 76.0 Z " />
</g>
</svg>
