<svg xmlns="http://www.w3.org/2000/svg" xmlns:xlink="http://www.w3.org/1999/xlink" version="1.1" baseProfile="full" viewBox="0 0 200 200" width="200" height="200">
<g fill="black">
<path d="M 40.0 26.0 L 166.0 26.0 L 176.0 16.0 L 188.0 26.0 L 188.0 30.0 L 40.0 30.0 L 40.0 91.0 L 39.4 105.1 L 38.4 118.3 L 37.0 130.6 L 35.0 141.9 L 32.6 152.4 L 29.7 161.9 L 26.2 170.4 L 22.3 177.9 L 17.7 184.3 L 12.6 189.5 L 11.3 188.4 L 14.5 182.3 L 17.5 175.5 L 20.1 168.0 L 22.4 159.7 L 24.3 150.5 L 25.8 140.4 L 27.0 129.4 L 27.7 117.5 L 28.0 104.7 L 28.0 20.0 Z M 71.8 126.4 L 156.1 126.4 L 162.1 121.4 L 173.1 130.4 L 168.1 134.4 L 168.1 178.7 L 156.1 184.7 L 156.1 174.7 L 71.8 174.7 L 71.8 181.7 L 59.8 187.7 L 59.8 120.4 Z M 71.8 152.6 L 71.8 170.7 L 156.1 170.7 L 156.1 152.6 Z M 71.8 130.4 L 71.8 148.6 L 156.1 148.6 L 156.1 130.4 Z M 100.0 89.2 L 98.5 87.9 L 96.8 86.6 L 94.9 85.3 L 92.8 83.9 L 90.4 82.5 L 87.9 81.1 L 85.6 79.8222222328186 L 85.6 117.2 L 73.6 123.2 L 73.6 84.14242420196533 L 71.1 87.4 L 67.4 91.5 L 63.5 95.3 L 59.2 98.9 L 54.6 102.2 L 49.6 105.2 L 44.3 107.8 L 43.3 106.3 L 47.3 102.2 L 51.1 98.1 L 54.6 94.1 L 57.9 90.1 L 60.9 86.1 L 63.5 81.9 L 65.9 77.7 L 68.0 73.5 L 69.8 69.1 L 69.89130430221557 68.8 L 43.8 68.8 L 43.8 64.8 L 73.6 64.8 L 73.6 51.46176471710205 L 69.0 51.8 L 61.8 52.3 L 54.0 52.6 L 45.7 52.7 L 45.5 50.9 L 53.5 48.8 L 61.0 47.0 L 68.1 45.4 L 74.6 43.8 L 80.6 42.3 L 86.1 40.9 L 91.1 39.5 L 95.6 38.2 L 99.5 36.9 L 101.92812786102294 35.97159814834595 L 101.9 35.9 L 101.96707315444947 35.956707286834714 L 102.9 35.6 L 103.35151767730713 37.127192211151126 L 112.9 45.2 L 113.2 48.2 L 108.97636251449585 46.32953195571899 L 106.3 47.1 L 102.4 47.9 L 98.0 48.6 L 93.2 49.4 L 87.9 50.0 L 85.6 50.27758617401123 L 85.6 64.8 L 90.7 64.8 L 100.7 54.8 L 112.7 64.8 L 112.7 68.8 L 85.6 68.8 L 85.6 77.26969699859619 L 85.8 77.3 L 88.9 77.4 L 92.0 77.6 L 94.8 77.9 L 97.6 78.4 L 100.2 78.9 L 102.6 79.5 L 105.0 80.2 L 109.4 82.0 L 111.7 86.0 L 110.6 90.4 L 106.7 92.7 L 102.2 91.7 L 101.2 90.5 Z M 167.9 103.6 L 163.9 99.8 L 160.3 95.7 L 157.1 91.5 L 154.2 87.2 L 151.8 82.6 L 149.8 77.9 L 149.1 75.66000003814698 L 149.1 117.2 L 137.1 123.2 L 137.1 84.9 L 133.0 89.7 L 128.3 94.3 L 123.2 98.5 L 117.5 102.5 L 111.3 106.1 L 104.6 109.4 L 97.4 112.2 L 96.5 110.6 L 102.7 106.1 L 108.4 101.7 L 113.5 97.3 L 118.2 92.8 L 122.3 88.3 L 125.8 83.8 L 128.9 79.2 L 131.4 74.5 L 133.4 69.7 L 133.67931032180786 68.8 L 115.6 68.8 L 115.6 64.8 L 137.1 64.8 L 137.1 50.93333330154419 L 136.5 51.0 L 129.9 51.6 L 123.1 52.1 L 115.9 52.5 L 108.4 52.7 L 108.1 50.9 L 115.3 48.7 L 122.2 46.8 L 128.8 45.1 L 135.2 43.5 L 141.3 42.0 L 147.1 40.5 L 152.7 39.0 L 157.9 37.6 L 162.9 36.3 L 166.62150173187257 35.27064847946167 L 166.6 35.2 L 166.6697193145752 35.25731163024902 L 167.6 35.0 L 167.8649151802063 36.23980321884155 L 178.4 44.9 L 178.7 47.9 L 174.29819860458375 45.78954725265503 L 170.1 46.7 L 165.2 47.4 L 160.0 48.2 L 154.6 48.9 L 149.1 49.563793087005614 L 149.1 64.8 L 162.4 64.8 L 172.4 54.8 L 184.4 64.8 L 184.4 68.8 L 150.21499996185304 68.8 L 152.1 71.4 L 154.9 75.1 L 157.8 78.8 L 160.9 82.2 L 164.1 85.5 L 167.6 88.6 L 171.3 91.5 L 175.2 94.3 L 179.4 97.0 L 183.8 99.5 L 188.0 102.1 L 176.9 110.7 L 172.2 107.3 Z " />
</g>
</svg>
