<svg xmlns="http://www.w3.org/2000/svg" xmlns:xlink="http://www.w3.org/1999/xlink" version="1.1" baseProfile="full" viewBox="0 0 200 200" width="200" height="200">
<g fill="black">
<path d="M 119.8 180.2 L 107.8 186.2 L 107.8 68.75 L 106.3 71.0 L 101.8 76.9 L 97.1 82.5 L 92.0 87.6 L 90.6 86.5 L 94.0 80.3 L 97.3 74.0 L 100.6 67.6 L 103.8 61.0 L 106.9 54.2 L 107.8 52.02758617401123 L 107.8 50.4 L 108.35857992172241 50.67928991317749 L 109.8 47.2 L 112.5 40.0 L 115.1 32.6 L 117.6 24.9 L 119.61174936294556 17.902610969543456 L 119.6 17.9 L 120.3 15.4 L 131.3 20.5 L 133.6 23.3 L 129.92902069091798 24.201644039154054 L 128.3 28.6 L 125.2 36.4 L 121.8 43.9 L 118.2 51.1 L 116.29714288711548 54.64857139587402 L 119.8 56.4 L 141.22173910140992 56.4 L 142.2 53.4 L 143.6 48.9 L 145.1 44.6 L 146.5 40.5 L 147.9 36.5 L 149.2 32.8 L 150.5 29.2 L 151.6 25.7 L 152.7 22.4 L 153.39877672195433 20.23379201889038 L 153.3 20.2 L 153.6777777671814 19.36888885498047 L 153.7 19.3 L 153.70758619308472 19.303310298919676 L 154.3 18.0 L 164.7 24.1 L 166.7 27.1 L 162.65873203277587 27.587739276885987 L 161.2 30.1 L 159.3 33.3 L 157.3 36.6 L 152.9 43.6 L 150.5 47.3 L 147.9 51.0 L 145.1 54.8 L 143.9800000190735 56.4 L 160.1 56.4 L 170.1 46.4 L 182.1 56.4 L 182.1 60.4 L 151.8 60.4 L 151.8 92.0 L 158.4 92.0 L 168.4 82.0 L 180.4 92.0 L 180.4 96.0 L 151.8 96.0 L 151.8 128.6 L 158.4 128.6 L 168.4 118.6 L 180.4 128.6 L 180.4 132.6 L 151.8 132.6 L 151.8 169.2 L 163.6 169.2 L 173.6 159.2 L 185.6 169.2 L 185.6 173.2 L 119.8 173.2 Z M 65.0 174.0 L 79.0 174.0 L 80.2 173.9 L 81.1 173.7 L 82.0 173.4 L 82.4 173.0 L 82.7 172.1 L 82.9 171.2 L 83.0 170.0 L 83.0 122.0 L 55.20172414779663 122.0 L 53.5 126.7 L 51.2 132.4 L 48.7 138.1 L 46.0 143.6 L 43.617088603973386 147.88924055099488 L 50.8 146.6 L 54.7 145.8 L 58.6 145.1 L 62.6 144.4 L 66.6 143.8 L 66.90602569580078 143.7464454650879 L 66.2 141.5 L 65.1 137.8 L 63.8 134.1 L 62.4 130.2 L 60.7 126.3 L 62.2 125.3 L 65.0 128.6 L 67.7 131.9 L 70.2 135.2 L 72.5 138.5 L 74.6 141.9 L 76.4 145.2 L 78.1 148.6 L 79.7 152.0 L 81.0 155.4 L 82.2 158.8 L 81.3 163.3 L 77.6 165.9 L 73.1 165.0 L 70.5 161.3 L 70.1 158.2 L 69.6 155.0 L 69.0 151.8 L 68.2 148.4 L 67.76666669845581 146.7629630088806 L 67.7 146.8 L 64.1 148.9 L 60.5 150.8 L 53.1 154.2 L 49.4 155.8 L 45.7 157.3 L 41.9 158.8 L 38.42890119552612 160.11338872909545 L 37.0 164.0 L 34.4 161.5 L 29.5 150.4 L 31.5 149.9 L 35.3 149.3 L 39.1 148.6 L 39.272872352600096 148.57340421676636 L 39.5 147.6 L 41.0 141.7 L 42.5 135.9 L 44.0 130.0 L 45.3 124.2 L 45.83103446960449 122.0 L 29.0 122.0 L 29.0 180.0 L 17.0 186.0 L 17.0 112.0 L 29.0 118.0 L 46.781355953216554 118.0 L 47.9 112.5 L 49.0 106.6 L 50.0 100.7 L 50.71694917678833 96.0 L 37.0 96.0 L 37.0 103.0 L 25.0 109.0 L 25.0 46.0 L 37.0 48.0 L 40.0 50.0 L 37.0 51.8 L 37.0 84.55675678253174 L 39.1 82.4 L 42.6 78.6 L 46.0 74.8 L 49.2 71.0 L 51.644866943359375 67.82167301177978 L 50.8 66.9 L 48.4 64.6 L 45.7 62.3 L 42.8 60.0 L 39.6 58.1 L 40.2 56.5 L 44.0 57.4 L 47.8 58.4 L 51.4 59.7 L 54.8 61.4 L 55.66445655822754 61.92391300201416 L 57.5 59.1 L 59.9 54.9 L 62.1 50.6 L 64.1 46.2 L 64.14014873504638 46.21970262527466 L 64.7 45.1 L 74.9 51.5 L 76.0 53.455555534362794 L 76.0 46.0 L 88.0 48.0 L 91.0 50.0 L 88.0 51.8 L 88.0 100.0 L 76.0 106.0 L 76.0 96.0 L 59.688095283508304 96.0 L 62.7 97.1 L 65.2 99.6 L 61.69328861236572 100.87516775131226 L 61.1 103.1 L 59.4 109.1 L 57.6 115.0 L 56.58305082321167 118.0 L 83.0 118.0 L 89.0 113.0 L 100.0 122.0 L 95.0 126.0 L 95.0 170.0 L 94.8 172.5 L 94.4 175.0 L 93.6 177.4 L 92.3 179.7 L 90.7 181.7 L 88.7 183.3 L 86.4 184.6 L 84.0 185.4 L 81.5 185.8 L 79.0 186.0 L 79.0 180.0 L 65.0 177.0 Z M 119.8 132.6 L 119.8 169.2 L 139.8 169.2 L 139.8 132.6 Z M 119.8 96.0 L 119.8 128.6 L 139.8 128.6 L 139.8 96.0 Z M 119.8 60.4 L 119.8 92.0 L 139.8 92.0 L 139.8 60.4 Z M 58.5 77.2 L 56.9 74.5 L 56.763537883758545 74.30288810729981 L 54.6 76.3 L 50.4 79.6 L 46.1 82.7 L 41.4 85.4 L 37.0 87.46530609130859 L 37.0 92.0 L 76.0 92.0 L 76.0 54.747457599639894 L 72.76074523925782 54.967068099975585 L 72.0 56.2 L 69.0 60.6 L 65.7 64.9 L 63.40909090042114 67.51818180084229 L 64.2 68.2 L 67.0 71.1 L 69.5 74.2 L 71.9 77.5 L 72.2 82.1 L 69.3 85.6 L 64.8 86.0 L 61.2 83.1 L 60.0 80.1 Z M 13.0 37.0 L 50.0 37.0 L 50.0 15.0 L 62.0 17.0 L 65.0 19.0 L 62.0 20.8 L 62.0 37.0 L 79.0 37.0 L 89.0 27.0 L 101.0 37.0 L 101.0 41.0 L 13.0 41.0 Z " />
</g>
</svg>
