<svg xmlns="http://www.w3.org/2000/svg" xmlns:xlink="http://www.w3.org/1999/xlink" version="1.1" baseProfile="full" viewBox="0 0 200 200" width="200" height="200">
<g fill="black">
<path d="M 151.15363445281983 22.767819309234618 L 151.5 47.1 L 152.5 72.9 L 153.30987129211425 84.0 L 165.8 84.0 L 175.8 74.0 L 187.8 84.0 L 187.8 88.0 L 153.60171670913695 88.0 L 154.2 96.2 L 156.5 116.8 L 158.6591197013855 129.61077699661254 L 162.2 121.0 L 166.1 109.5 L 169.5 97.3 L 169.56444444656373 97.31777782440186 L 170.0 95.7 L 181.1 100.5 L 183.4 103.3 L 179.8604751586914 104.24808702468872 L 176.9 113.2 L 172.1 125.0 L 166.8 136.1 L 162.0159520149231 144.59580936431885 L 163.2 149.3 L 167.4 160.8 L 171.9 168.6 L 174.58592376708984 171.16099710464476 L 179.7 149.0 L 181.7 149.0 L 179.7801619529724 173.95789470672608 L 179.9 174.0 L 184.0 175.9 L 185.6 180.2 L 183.7 184.3 L 179.4 185.9 L 169.9 182.9 L 162.3 175.9 L 156.4 165.7 L 153.38855752944946 157.43455152511598 L 147.8 164.4 L 140.4 172.2 L 132.5 179.0 L 124.1 184.9 L 115.2 189.7 L 114.2 188.2 L 121.8 181.8 L 129.0 175.0 L 135.7 167.7 L 141.9 159.7 L 147.6 151.1 L 150.16807765960692 146.59375047683716 L 147.8 137.0 L 144.6 118.5 L 142.2 97.3 L 141.5329113960266 88.0 L 66.0 88.0 L 66.0 84.0 L 110.3131579399109 84.0 L 111.1 81.7 L 112.0 77.9 L 113.0 74.2 L 114.8 67.0 L 116.2 60.2 L 116.8 56.9 L 117.64043102264404 51.521241664886475 L 117.5 51.5 L 118.2 48.8 L 129.4 53.3 L 131.9 56.0 L 127.96588811874389 57.194283962249756 L 126.9 59.9 L 125.4 63.2 L 123.8 66.5 L 122.1 69.8 L 120.3 73.2 L 118.3 76.5 L 116.1 79.8 L 113.7 83.0 L 113.02352943420411 84.0 L 141.2459915161133 84.0 L 140.5 73.6 L 139.5 47.4 L 139.11406803131104 19.99882764816284 L 139.1 20.0 L 139.1 16.6 L 151.1 19.0 L 154.1 21.0 Z M 26.8 133.0 L 50.8 133.0 L 56.8 128.0 L 67.8 137.0 L 62.8 141.0 L 62.8 179.0 L 50.8 185.0 L 50.8 175.0 L 26.8 175.0 L 26.8 182.0 L 14.8 188.0 L 14.8 127.0 Z M 91.3 104.0 L 115.8 104.0 L 121.8 99.0 L 132.8 108.0 L 127.8 112.0 L 127.8 163.0 L 115.8 169.0 L 115.8 163.0 L 91.3 163.0 L 91.3 175.0 L 79.3 181.0 L 79.3 98.0 Z M 26.8 137.0 L 26.8 171.0 L 50.8 171.0 L 50.8 137.0 Z M 91.3 135.0 L 91.3 159.0 L 115.8 159.0 L 115.8 135.0 Z M 91.3 108.0 L 91.3 131.0 L 115.8 131.0 L 115.8 108.0 Z M 61.6 108.0 L 61.6 112.0 L 16.0 112.0 L 16.0 108.0 L 43.418181800842284 108.0 L 51.6 99.0 Z M 61.6 82.0 L 61.6 86.0 L 16.0 86.0 L 16.0 82.0 L 43.418181800842284 82.0 L 51.6 73.0 Z M 85.0 71.6 L 84.8 69.1 L 84.4 66.5 L 83.9 63.9 L 82.5 58.5 L 81.6 55.8 L 80.6 52.9 L 79.1 50.3 L 80.5 49.2 L 82.7 51.5 L 85.0 53.6 L 87.1 55.9 L 89.1 58.4 L 90.8 60.9 L 92.4 63.6 L 93.8 66.4 L 95.0 69.2 L 96.1 72.2 L 96.9 75.3 L 95.7 79.6 L 91.7 81.9 L 87.3 80.6 L 85.0 76.7 L 85.1 74.2 Z M 171.0 52.0 L 168.4 47.0 L 166.8 44.5 L 165.1 42.1 L 163.3 39.6 L 161.3 37.1 L 159.2 34.5 L 156.6 32.3 L 157.6 30.7 L 160.7 32.3 L 163.9 33.8 L 166.9 35.5 L 169.7 37.3 L 172.4 39.3 L 175.0 41.5 L 177.4 43.8 L 179.6 46.2 L 181.7 48.8 L 183.6 51.6 L 183.9 56.1 L 181.0 59.6 L 176.4 59.9 L 172.9 57.0 L 172.0 54.5 Z M 68.8 54.0 L 68.8 58.0 L 12.8 58.0 L 12.8 54.0 L 50.61818180084229 54.0 L 58.8 45.0 Z M 72.1 42.0 L 98.5 42.0 L 98.5 16.0 L 110.5 18.0 L 113.5 20.0 L 110.5 21.8 L 110.5 42.0 L 116.0 42.0 L 126.0 32.0 L 138.0 42.0 L 138.0 46.0 L 72.1 46.0 Z M 61.6 28.0 L 61.6 32.0 L 16.0 32.0 L 16.0 28.0 L 43.418181800842284 28.0 L 51.6 19.0 Z " />
</g>
</svg>
