<svg xmlns="http://www.w3.org/2000/svg" xmlns:xlink="http://www.w3.org/1999/xlink" version="1.1" baseProfile="full" viewBox="0 0 200 200" width="200" height="200">
<g fill="black">
<path d="M 164.5 158.6 L 158.7 150.0 L 153.4 140.5 L 148.5 130.2 L 144.2 119.0 L 140.3 106.9 L 137.0 93.9 L 134.3 79.9 L 132.64371366500853 67.64348077774048 L 129.2 72.5 L 124.8 77.9 L 119.9 83.0 L 115.37681694030762 87.10436983108521 L 121.9 93.4 L 129.1 102.1 L 134.9 111.0 L 139.3 120.0 L 142.4 129.2 L 144.1 138.6 L 144.4 148.1 L 143.2 157.5 L 140.6 167.0 L 136.5 176.4 L 135.88933582305907 176.2787652015686 L 134.7 178.2 L 133.2 180.2 L 131.6 182.0 L 129.7 183.6 L 127.7 184.9 L 125.5 186.0 L 123.3 186.9 L 120.9 187.5 L 118.5 187.8 L 116.0 188.0 L 116.0 182.0 L 96.0 179.0 L 96.0 176.0 L 116.0 176.0 L 117.3 175.9 L 118.6 175.7 L 119.7 175.4 L 120.7 175.1 L 121.6 174.6 L 122.4 174.0 L 123.05503358840943 173.42684564590454 L 125.0 170.0 L 128.9 162.4 L 131.7 154.8 L 133.4 147.1 L 133.5288553237915 145.06408615112304 L 128.5 148.6 L 121.7 152.8 L 114.5 156.9 L 107.0 160.7 L 99.0 164.3 L 90.7 167.6 L 82.0 170.7 L 72.8 173.4 L 63.2 175.8 L 62.7 174.1 L 71.5 169.9 L 79.9 165.7 L 88.0 161.6 L 95.7 157.5 L 102.9 153.2 L 109.8 148.9 L 116.2 144.4 L 122.2 139.9 L 127.8 135.2 L 133.0 130.5 L 133.21917381286622 130.74691734313964 L 131.4 122.8 L 128.4 114.2 L 127.83505020141601 113.03068532943726 L 125.6 114.9 L 119.9 119.4 L 115.07101907730103 122.91942672729492 L 115.7 123.8 L 117.9 127.5 L 120.0 131.3 L 121.8 135.3 L 121.3 139.8 L 117.9 142.8 L 113.3 142.4 L 110.3 138.9 L 109.4 135.4 L 108.4 131.9 L 107.1 128.4 L 107.06283779144287 128.31824321746825 L 101.6 131.7 L 95.0 135.4 L 88.2 139.0 L 81.2 142.2 L 73.9 145.2 L 66.3 147.8 L 65.6 146.1 L 72.2 141.8 L 78.6 137.5 L 84.9 133.3 L 91.0 129.0 L 96.8 124.7 L 102.5 120.3 L 102.89849395751953 119.96054220199585 L 102.0 118.4 L 99.9 115.1 L 97.5 111.8 L 95.0 108.5 L 92.2 105.3 L 93.3 103.9 L 97.1 106.1 L 100.8 108.5 L 104.3 111.1 L 107.5 114.0 L 108.55132379531861 115.12382888793945 L 113.1 111.1 L 118.0 106.4 L 122.24189186096191 102.15810813903809 L 118.6 96.0 L 113.59708890914916 88.64723672866822 L 108.7 92.7 L 102.4 97.2 L 95.7 101.5 L 88.4 105.6 L 80.7 109.3 L 72.4 112.7 L 71.5 111.2 L 78.8 106.0 L 85.6 101.0 L 91.9 96.1 L 97.8 91.2 L 103.2 86.2 L 108.1 81.2 L 112.5 76.2 L 116.4 71.1 L 119.8 66.0 L 77.0 66.0 L 77.0 62.0 L 157.0 62.0 L 167.0 52.0 L 179.0 62.0 L 179.0 66.0 L 134.36338024139405 66.0 L 138.3 79.0 L 142.7 92.3 L 147.2 104.6 L 148.21139240264893 107.03164558410644 L 149.1 105.6 L 151.0 102.7 L 153.0 99.8 L 154.9 97.0 L 156.9 94.2 L 158.9 91.3 L 160.8 88.5 L 162.8 85.7 L 164.1516778945923 83.63691272735596 L 164.1 83.6 L 164.45483875274658 83.17419357299805 L 164.7 82.8 L 164.7390658378601 82.83312101364136 L 165.1 82.4 L 173.9 90.6 L 174.8 94.1 L 170.84340658187867 93.40586080551148 L 168.6 95.4 L 166.0 97.7 L 160.6 102.3 L 157.9 104.5 L 155.1 106.6 L 152.3 108.6 L 149.59959230422973 110.36923265457153 L 151.9 115.9 L 157.0 126.2 L 162.3 135.5 L 167.9 143.8 L 173.7 151.2 L 179.8 157.5 L 186.1 162.9 L 188.6 164.9 L 177.8 173.0 L 170.9 166.3 Z M 14.1 151.0 L 18.9 149.5 L 23.9 147.8 L 29.2 145.9 L 34.9 143.8 L 38.2 142.51355934143066 L 38.2 72.0 L 15.3 72.0 L 15.3 68.0 L 38.2 68.0 L 38.2 17.0 L 50.2 19.0 L 53.2 21.0 L 50.2 22.8 L 50.2 68.0 L 52.7 68.0 L 62.7 58.0 L 74.7 68.0 L 74.7 72.0 L 50.2 72.0 L 50.2 137.81999998092653 L 53.5 136.5 L 60.4 133.7 L 67.6 131.0 L 75.1 128.2 L 76.0 129.7 L 69.3 134.3 L 62.8 138.5 L 56.4 142.4 L 50.3 145.9 L 44.4 149.2 L 38.7 152.3 L 33.3 155.1 L 28.1 157.7 L 23.1 160.1 L 22.1644549369812 160.51800947189332 L 21.3 164.3 L 18.4 162.2 L 12.3 151.7 Z M 72.7 55.4 L 71.3 51.0 L 73.3 46.9 L 74.3 46.4 L 75.4 45.4 L 76.7 43.8 L 77.9 41.7 L 79.1 39.0 L 80.2 35.9 L 81.2 32.2 L 82.1 28.2 L 83.0 23.6 L 83.4 18.7 L 85.2 18.6 L 85.8 23.7 L 86.1702127456665 26.6 L 169.0 26.6 L 169.38787879943848 26.276767635345458 L 169.4 26.2 L 169.4530466079712 26.222461128234862 L 175.0 21.6 L 186.0 30.6 L 181.0 33.6 L 177.47272729873657 35.06969699859619 L 174.9 38.5 L 173.2 40.6 L 171.4 42.7 L 169.5 45.0 L 167.5 47.3 L 165.2 49.7 L 163.2 52.4 L 161.7 51.5 L 163.1 48.5 L 164.0 45.3 L 165.0 42.4 L 165.9 39.7 L 166.7 37.0 L 167.4 34.6 L 168.1 32.3 L 168.48636360168456 30.6 L 86.6 30.6 L 86.8 32.8 L 86.8 36.9 L 86.6 40.7 L 86.2 44.2 L 85.5 47.5 L 84.5 50.5 L 83.1 53.4 L 81.2 55.9 L 76.8 57.3 Z " />
</g>
</svg>
