<svg xmlns="http://www.w3.org/2000/svg" xmlns:xlink="http://www.w3.org/1999/xlink" version="1.1" baseProfile="full" viewBox="0 0 200 200" width="200" height="200">
<g fill="black">
<path d="M 147.0 151.0 L 149.0 151.0 L 147.0 176.0 L 150.6 178.4 L 153.0 182.0 L 150.6 185.6 L 147.0 188.0 L 76.0 188.0 L 73.4 187.8 L 70.9 187.4 L 68.5 186.6 L 66.2 185.3 L 64.2 183.7 L 62.6 181.7 L 61.3 179.4 L 60.5 177.0 L 60.1 174.5 L 60.0 172.0 L 60.0 142.7 L 72.0 144.7 L 75.0 146.7 L 72.0 148.5 L 72.0 173.2 L 72.2 174.1 L 72.5 175.0 L 72.9 175.4 L 73.8 175.7 L 74.7 175.9 L 76.0 176.0 L 141.0 176.0 Z M 15.3 180.3 L 15.0 175.7 L 18.0 172.2 L 20.8 171.1 L 23.4 169.6 L 25.7 167.9 L 27.9 165.8 L 29.8 163.3 L 31.6 160.3 L 33.1 157.0 L 34.4 153.1 L 35.5 148.8 L 36.1 144.0 L 37.9 143.9 L 38.5 148.9 L 38.9 153.7 L 38.8 158.2 L 38.1 162.6 L 36.9 166.7 L 35.3 170.6 L 33.0 174.3 L 30.3 177.6 L 27.0 180.5 L 23.3 183.0 L 18.7 183.3 Z M 170.4 169.0 L 168.9 166.2 L 167.1 163.3 L 164.9 160.5 L 162.3 157.6 L 159.4 154.6 L 156.1 151.7 L 152.5 148.6 L 148.4 145.7 L 149.2 144.1 L 154.1 145.9 L 158.7 147.7 L 162.9 149.8 L 166.8 152.1 L 170.4 154.6 L 173.7 157.3 L 176.7 160.3 L 179.3 163.4 L 181.6 166.7 L 183.5 170.3 L 183.3 174.9 L 180.0 178.0 L 175.4 177.8 L 172.3 174.5 L 171.5 171.7 Z M 108.4 158.1 L 106.5 155.8 L 104.5 153.5 L 102.3 151.3 L 99.8 149.0 L 97.1 146.8 L 94.2 144.6 L 91.0 142.3 L 87.6 140.4 L 88.2 138.7 L 92.2 139.7 L 96.1 140.6 L 99.8 141.8 L 103.3 143.3 L 106.7 144.9 L 109.9 146.7 L 113.0 148.7 L 115.8 150.8 L 118.5 153.2 L 121.0 155.7 L 122.0 160.2 L 119.7 164.1 L 115.3 165.2 L 111.3 162.8 L 109.9 160.5 Z M 164.4 128.5 L 158.6 121.9 L 153.7392788887024 114.80334720611572 L 151.0 118.8 L 144.0 126.5 L 136.3 132.9 L 127.8 138.1 L 118.6 141.9 L 117.8 140.3 L 125.8 134.9 L 132.9 128.8 L 139.2 122.0 L 144.8 114.3 L 149.1920813560486 106.68108329772949 L 145.6 98.1 L 142.7 88.9 L 140.6 79.2 L 139.3 68.7 L 139.15126132965088 64.60968713760376 L 137.7 67.0 L 134.0 72.1 L 130.0 76.9 L 128.5 76.0 L 130.7 70.3 L 133.0 64.5 L 135.1 58.7 L 137.2 52.7 L 139.1 46.6 L 140.9 40.3 L 142.5 33.8 L 143.9 27.1 L 145.2 20.2 L 146.3 13.1 L 146.37015857696534 13.113080406188965 L 146.7 11.2 L 158.1 15.3 L 160.7 17.8 L 157.14242420196533 19.183501720428467 L 156.3 22.6 L 154.4 29.7 L 152.1 36.5 L 149.7 43.1 L 147.99375 47.3 L 167.8181818008423 47.3 L 176.0 38.3 L 186.0 47.3 L 186.0 51.3 L 175.57659578323364 51.3 L 173.7 63.9 L 170.7 77.0 L 167.0 89.0 L 162.5 100.0 L 159.58780488967895 105.33902435302734 L 162.0 108.8 L 167.0 114.7 L 172.4 119.8 L 178.3 124.3 L 184.7 128.1 L 189.2 130.7 L 178.1 139.5 L 170.9 134.3 Z M 64.3 42.3 L 65.8 45.6 L 61.99383459091187 45.4709774017334 L 60.3 47.8 L 56.1 53.2 L 51.6 58.5 L 46.9 63.7 L 43.42857141494751 67.1714285850525 L 47.8 67.9 L 50.8 69.9 L 47.8 71.7 L 47.8 135.9 L 35.8 141.9 L 35.8 74.36909093856812 L 31.2 78.3 L 25.4 82.8 L 19.3 87.1 L 12.9 91.1 L 11.8 89.7 L 16.9 84.2 L 21.8 78.8 L 26.6 73.5 L 31.2 68.3 L 35.6 63.0 L 39.8 57.6 L 43.7 52.3 L 47.4 46.8 L 50.9 41.4 L 53.6264817237854 36.71385955810547 L 53.6 36.7 L 53.8247311592102 36.3731183052063 L 54.1 35.9 L 54.13493146896362 35.921917819976805 L 54.7 35.1 Z M 65.6 126.2 L 91.7 126.2 L 91.7 104.2 L 71.2 104.2 L 71.2 100.2 L 91.7 100.2 L 91.7 84.52075471878052 L 91.0 84.6 L 85.5 85.1 L 79.8 85.5 L 74.0 85.6 L 68.0 85.3 L 67.7 83.6 L 73.5 81.8 L 79.0 80.2 L 84.3 78.7 L 89.5 77.2 L 94.5 75.7 L 99.2 74.2 L 103.8 72.6 L 108.2 71.0 L 112.3 69.4 L 115.43142852783203 68.06914281845093 L 115.4 68.0 L 115.4639344215393 68.05532789230347 L 116.3 67.7 L 116.87060279846192 69.27263708114624 L 125.8 77.0 L 126.0 80.1 L 122.04824504852294 78.38953886032104 L 120.4 79.0 L 115.9 80.2 L 111.2 81.3 L 106.4 82.3 L 103.7 82.78599996566773 L 103.7 100.2 L 105.91818180084229 100.2 L 114.1 91.2 L 124.1 100.2 L 124.1 104.2 L 103.7 104.2 L 103.7 126.2 L 107.7 126.2 L 117.7 116.2 L 129.7 126.2 L 129.7 130.2 L 65.6 130.2 Z M 146.24426231384277 51.3 L 144.2 55.6 L 141.50703172683717 60.63845672607422 L 143.4 68.0 L 146.3 77.7 L 149.6 86.7 L 153.3 94.8 L 153.98885679244995 96.04330253601074 L 157.5 85.9 L 160.3 74.5 L 162.4 62.1 L 163.52835817337035 51.3 Z M 69.0 54.1 L 69.0 21.3 L 80.0 23.3 L 82.8 25.3 L 80.0 27.05 L 80.0 44.6 L 92.7 44.6 L 92.7 12.2 L 102.7 14.2 L 105.2 16.2 L 102.7 17.86666669845581 L 102.7 44.6 L 115.3 44.6 L 115.3 21.3 L 126.3 23.3 L 129.0 25.3 L 126.3 27.02340421676636 L 126.3 48.6 L 118.825 52.3375 L 129.7 61.4 L 129.7 65.4 L 65.6 65.4 L 65.6 61.4 L 107.7 61.4 L 115.3 53.8 L 115.3 48.6 L 80.0 48.6 Z M 60.5 19.5 L 61.3 23.0 L 57.607258033752444 22.22258062362671 L 57.1 22.7 L 53.5 25.8 L 49.7 28.8 L 45.7 31.9 L 41.6 34.9 L 37.3 37.8 L 32.7 40.7 L 28.0 43.5 L 22.9 46.1 L 17.7 48.5 L 16.6 47.0 L 20.8 43.0 L 24.8 39.1 L 28.7 35.5 L 32.5 31.9 L 36.2 28.4 L 39.6 24.9 L 42.9 21.4 L 46.0 18.1 L 48.9 14.7 L 51.063856315612796 12.14974069595337 L 51.0 12.1 L 52.0 11.0 Z " />
</g>
</svg>
