<svg xmlns="http://www.w3.org/2000/svg" xmlns:xlink="http://www.w3.org/1999/xlink" version="1.1" baseProfile="full" viewBox="0 0 200 200" width="200" height="200">
<g fill="black">
<path d="M 70.3 105.1 L 68.7 102.8 L 66.9 100.5 L 65.0 98.2 L 62.8 95.9 L 60.5 93.7 L 58.0 91.4 L 56.0 89.6307692527771 L 56.0 183.0 L 44.0 189.0 L 44.0 93.55757579803466 L 41.7 99.9 L 38.0 108.8 L 33.9 117.3 L 29.5 125.6 L 24.7 133.6 L 19.4 141.2 L 13.7 148.4 L 12.2 147.5 L 16.2 139.3 L 20.0 131.0 L 23.6 122.7 L 27.0 114.3 L 30.1 105.6 L 32.9 96.9 L 35.4 87.9 L 37.7 78.7 L 39.6 69.4 L 40.66666669845581 63.0 L 13.0 63.0 L 13.0 59.0 L 44.0 59.0 L 44.0 14.0 L 56.0 16.0 L 59.0 18.0 L 56.0 19.8 L 56.0 59.0 L 62.2 59.0 L 72.2 49.0 L 84.2 59.0 L 84.2 63.0 L 56.0 63.0 L 56.0 86.49428567886352 L 56.6 86.7 L 60.1 87.7 L 63.5 89.0 L 66.7 90.5 L 69.8 92.2 L 72.7 94.0 L 75.4 96.0 L 78.1 98.2 L 80.5 100.6 L 82.9 103.1 L 83.7 107.6 L 81.3 111.4 L 76.8 112.3 L 72.9 109.8 L 71.7 107.4 Z M 153.0 175.0 L 142.3 167.5 L 132.8 158.6 L 127.83711938858032 152.76131687164306 L 119.3 162.4 L 108.4 171.3 L 96.0 178.5 L 82.2 184.0 L 66.9 187.8 L 66.5 186.1 L 80.8 180.5 L 93.5 173.8 L 104.5 166.0 L 113.8 157.1 L 121.7 147.0 L 122.4298578262329 145.6908899307251 L 117.1 137.4 L 110.9 125.0 L 106.0 111.5 L 102.2 96.9 L 99.8 81.1 L 101.6 80.8 L 106.2 95.8 L 111.5 109.5 L 117.4 121.9 L 124.1 133.0 L 127.22717590332032 137.08617649078369 L 128.0 135.7 L 132.8 123.0 L 136.2 109.1 L 138.2 93.7 L 138.6 77.0 L 138.6 62.0 L 87.2 62.0 L 87.2 58.0 L 138.6 58.0 L 138.6 14.0 L 150.6 16.0 L 153.6 18.0 L 150.6 19.8 L 150.6 58.0 L 164.6 58.0 L 174.6 48.0 L 186.6 58.0 L 186.6 62.0 L 150.6 62.0 L 150.6 77.0 L 149.5 94.8 L 146.7 111.2 L 142.3 126.3 L 136.3 139.8 L 133.28972148895264 144.53043766021727 L 139.9 151.3 L 149.0 158.7 L 158.9 164.8 L 169.7 169.8 L 181.3 173.6 L 189.2 176.0 L 177.6 186.3 L 164.8 181.3 Z M 168.1 36.0 L 167.6 33.6 L 166.9 31.3 L 166.0 29.1 L 164.9 26.8 L 163.5 24.6 L 161.8 22.3 L 159.9 20.1 L 157.4 18.2 L 158.3 16.6 L 161.2 17.9 L 164.2 19.1 L 167.1 20.7 L 169.7 22.5 L 172.1 24.6 L 174.2 27.0 L 176.2 29.6 L 177.8 32.5 L 179.3 35.7 L 180.4 39.0 L 179.3 43.4 L 175.4 45.9 L 171.0 44.8 L 168.5 41.0 L 168.4 38.4 Z " />
</g>
</svg>
