<svg xmlns="http://www.w3.org/2000/svg" xmlns:xlink="http://www.w3.org/1999/xlink" version="1.1" baseProfile="full" viewBox="0 0 200 200" width="200" height="200">
<g fill="black">
<path d="M 181.8 142.0 L 183.8 142.0 L 181.8 167.0 L 185.4 169.4 L 187.8 173.0 L 185.4 176.6 L 181.8 179.0 L 112.3 179.0 L 109.7 178.8 L 107.2 178.4 L 104.8 177.6 L 102.5 176.3 L 100.5 174.7 L 98.9 172.7 L 97.6 170.4 L 96.8 168.0 L 96.4 165.5 L 96.3 163.0 L 96.3 22.0 L 108.3 28.0 L 163.0 28.0 L 169.0 23.0 L 180.0 32.0 L 175.0 36.0 L 175.0 101.0 L 163.0 107.0 L 163.0 95.0 L 108.3 95.0 L 108.3 164.2 L 108.5 165.1 L 108.8 166.0 L 109.2 166.4 L 110.1 166.7 L 111.0 166.9 L 112.3 167.0 L 175.8 167.0 Z M 65.8 180.8 L 64.0 182.4 L 62.1 183.9 L 60.0 185.1 L 57.8 186.2 L 55.6 187.0 L 53.2 187.5 L 50.8 187.8 L 48.3 188.0 L 48.3 182.0 L 32.3 179.0 L 32.3 176.0 L 48.3 176.0 L 49.7 175.9 L 51.0 175.7 L 52.2 175.4 L 53.3 175.1 L 54.3 174.6 L 55.3 174.0 L 56.2 173.3 L 57.1 172.5 L 58.0 171.5 L 58.8 170.3 L 62.0 163.8 L 65.0 153.2 L 67.1 139.6 L 67.8 123.6 L 66.6 106.1 L 65.40961389541626 99.6929220199585 L 63.8 102.4 L 59.0 109.5 L 53.8 116.3 L 48.2 122.9 L 42.1 129.2 L 35.6 135.1 L 28.7 140.7 L 21.4 145.9 L 13.5 150.7 L 12.4 149.2 L 19.0 143.0 L 25.2 136.7 L 31.0 130.4 L 36.5 124.0 L 41.6 117.5 L 46.3 110.8 L 50.6 104.0 L 54.5 97.0 L 58.0 89.9 L 61.1 82.5 L 61.523730754852295 82.68875274658203 L 57.1 69.2 L 53.771903324127194 62.46984891891479 L 47.0 68.7 L 39.1 74.9 L 30.9 80.5 L 22.4 85.5 L 13.4 89.7 L 12.5 88.2 L 20.3 82.3 L 27.8 76.2 L 34.9 69.8 L 41.8 63.1 L 48.4 56.0 L 49.76076698303223 54.35843982696533 L 48.1 51.0 L 35.6 33.8 L 19.7 17.3 L 20.8 15.8 L 39.6 30.1 L 53.8 47.4 L 54.498193454742434 48.643449211120604 L 54.7 48.4 L 60.6 40.5 L 66.3 32.1 L 71.6 23.2 L 76.11301259994507 14.80579652786255 L 76.1 14.8 L 77.1 13.0 L 87.1 19.7 L 88.8 22.9 L 85.06774196624755 23.028698539733888 L 81.3 29.2 L 75.1 38.1 L 68.6 46.6 L 61.7 54.5 L 59.20628995895386 57.02834491729736 L 64.3 66.1 L 71.6 85.5 L 72.01486692428588 87.36207704544067 L 72.1 87.4 L 72.0465308189392 87.50419635772705 L 75.9 104.8 L 77.8 123.3 L 77.7 140.4 L 75.9 155.3 L 73.0 167.6 L 68.8 176.9 L 67.4 178.9 Z M 108.3 32.0 L 108.3 91.0 L 163.0 91.0 L 163.0 32.0 Z " />
</g>
</svg>
