<svg xmlns="http://www.w3.org/2000/svg" xmlns:xlink="http://www.w3.org/1999/xlink" version="1.1" baseProfile="full" viewBox="0 0 200 200" width="200" height="200">
<g fill="black">
<path d="M 130.7 183.7 L 112.3 182.6 L 97.2 180.8 L 85.0 178.1 L 75.1 174.6 L 67.2 170.3 L 61.1 165.3 L 56.4 159.6 L 54.27821521759033 155.8868766784668 L 52.0 158.1 L 48.4 161.5 L 44.9 164.6 L 41.3 167.7 L 37.7 170.6 L 26.9 178.7 L 23.323113918304443 181.18394861221313 L 23.1 185.2 L 19.8 183.6 L 12.1 174.3 L 13.8 173.3 L 17.6 171.4 L 21.4 169.6 L 29.2 165.6 L 33.2 163.6 L 37.2 161.5 L 44.0 158.1 L 44.0 109.0 L 14.0 109.0 L 14.0 105.0 L 44.0 105.0 L 50.0 100.0 L 61.0 109.0 L 56.0 113.0 L 56.0 153.70384616851806 L 59.5 156.8 L 64.18504676818847 160.18364486694335 L 65.2 157.9 L 67.0 153.4 L 68.6 148.7 L 70.0 143.8 L 71.1 138.6 L 72.0 133.1 L 72.6 127.3 L 73.0 121.2 L 73.1 114.7 L 73.0 108.0 L 73.0 21.0 L 85.0 27.0 L 165.0 27.0 L 171.0 22.0 L 182.0 31.0 L 177.0 35.0 L 177.0 53.0 L 165.0 59.0 L 165.0 53.0 L 85.0 53.0 L 85.0 89.27894735336304 L 86.2 88.9 L 90.1 88.1 L 94.1 87.2 L 98.2 86.3 L 102.4 85.4 L 106.7 84.5 L 111.0 83.5 L 115.5 82.6 L 120.1 81.7 L 124.8 80.9 L 126.0 80.70408163070678 L 126.0 55.0 L 138.0 57.0 L 141.0 59.0 L 138.0 60.8 L 138.0 101.0 L 126.0 107.0 L 126.0 84.04651165008545 L 125.9 84.1 L 121.7 86.4 L 117.5 88.5 L 113.3 90.4 L 109.2 92.3 L 101.2 95.7 L 97.3 97.4 L 93.57727270126342 98.83181819915771 L 92.4 102.7 L 89.6 100.4 L 85.0 90.93962268829345 L 85.0 108.0 L 84.5 115.2 L 83.7 122.2 L 82.6 128.7 L 81.1 135.0 L 79.3 140.8 L 77.1 146.3 L 74.6 151.3 L 71.7 155.9 L 68.4 160.0 L 66.61513690948486 161.68838396072388 L 70.8 164.1 L 78.0 166.8 L 87.1 169.0 L 98.6 170.6 L 113.0 171.6 L 130.9 171.9 L 152.6 171.5 L 178.7 170.4 L 190.0 169.9 L 179.2 183.5 L 152.9 184.0 Z M 139.0 111.0 L 142.0 113.0 L 139.0 114.8 L 139.0 120.0 L 154.0 120.0 L 164.0 110.0 L 176.0 120.0 L 176.0 124.0 L 139.0 124.0 L 139.0 143.0 L 159.0 143.0 L 169.0 133.0 L 181.0 143.0 L 181.0 147.0 L 139.0 147.0 L 139.0 165.0 L 127.0 171.0 L 127.0 147.0 L 102.57224674224854 147.0 L 100.5 151.9 L 87.2 152.8 L 99.25581398010254 124.0 L 86.0 124.0 L 86.0 120.0 L 127.0 120.0 L 127.0 109.0 Z M 101.86000003814698 124.0 L 110.1 129.2 L 112.1 132.2 L 108.52313871383667 132.92861986160278 L 104.26387662887574 143.0 L 127.0 143.0 L 127.0 124.0 Z M 167.1 96.5 L 165.4 95.1 L 163.2 93.7 L 160.5 92.2 L 157.4 90.5 L 153.9 88.8 L 149.9 86.9 L 145.5 84.9 L 140.7 83.1 L 141.1 81.3 L 146.3 82.2 L 151.1 82.7 L 155.6 83.4 L 159.6 84.1 L 163.2 84.9 L 166.5 85.7 L 169.5 86.5 L 172.1 87.3 L 174.5 88.3 L 176.6 89.5 L 178.6 93.6 L 177.2 97.9 L 173.1 99.9 L 168.7 98.5 L 168.2 97.6 Z M 38.3 77.2 L 36.1 74.7 L 33.7 72.2 L 31.2 69.7 L 28.5 67.3 L 25.7 65.0 L 22.8 62.6 L 19.8 60.3 L 16.5 58.2 L 17.2 56.5 L 21.1 57.6 L 24.9 58.6 L 28.6 60.0 L 32.2 61.5 L 35.7 63.3 L 39.1 65.2 L 42.4 67.3 L 45.5 69.6 L 48.6 72.1 L 51.5 74.7 L 52.9 79.1 L 50.9 83.2 L 46.6 84.6 L 42.5 82.6 L 40.5 79.9 Z M 104.2 73.0 L 102.6 71.5 L 99.2 68.5 L 97.4 67.0 L 95.6 65.3 L 93.5 64.2 L 94.2 62.5 L 96.5 63.2 L 99.0 63.5 L 103.8 64.5 L 108.4 65.9 L 110.6 66.6 L 112.8 67.5 L 114.9 68.4 L 117.1 69.3 L 119.4 73.3 L 118.4 77.7 L 114.5 80.1 L 110.0 79.0 L 107.2 76.0 Z M 166.48732175827027 64.69984149932861 L 174.7 72.0 L 174.9 75.2 L 171.05041599273682 73.57595672607422 L 170.3 73.9 L 167.8 74.5 L 162.4 75.5 L 159.5 76.0 L 156.6 76.4 L 153.5 76.8 L 150.3 77.1 L 147.0 77.3 L 143.6 77.4 L 140.2 77.8 L 139.7 76.1 L 143.0 74.9 L 146.0 73.3 L 148.9 71.9 L 151.7 70.5 L 154.4 69.2 L 156.9 67.9 L 159.3 66.6 L 161.6 65.3 L 163.7 64.0 L 164.8550000190735 63.30699996948242 L 164.8 63.2 L 164.89402980804442 63.28358211517334 L 165.7 62.8 Z M 47.9 41.9 L 46.0 39.3 L 43.9 36.8 L 41.6 34.3 L 39.1 31.8 L 36.5 29.4 L 33.7 26.9 L 30.7 24.4 L 27.5 22.2 L 28.2 20.6 L 32.1 21.8 L 35.9 23.1 L 39.5 24.6 L 43.0 26.2 L 46.4 28.1 L 49.6 30.2 L 52.7 32.4 L 55.6 34.7 L 58.3 37.3 L 61.0 40.0 L 62.0 44.4 L 59.8 48.4 L 55.3 49.4 L 51.4 47.2 L 49.7 44.5 Z M 85.0 31.0 L 85.0 49.0 L 165.0 49.0 L 165.0 31.0 Z " />
</g>
</svg>
